<?xml version="1.0" encoding="UTF-8" standalone="no"?>
<!DOCTYPE svg PUBLIC "-//W3C//DTD SVG 1.1//EN"
 "http://www.w3.org/Graphics/SVG/1.1/DTD/svg11.dtd">
<!-- Generated by graphviz version 2.38.0 (20140413.2041)
 -->
<!-- Title: G Pages: 1 -->
<svg width="560pt" height="580pt"
 viewBox="0.00 0.00 559.70 580.00" xmlns="http://www.w3.org/2000/svg" xmlns:xlink="http://www.w3.org/1999/xlink">
<g id="graph0" class="graph" transform="scale(1 1) rotate(0) translate(4 576)">
<title>G</title>
<polygon fill="white" stroke="none" points="-4,4 -4,-576 555.697,-576 555.697,4 -4,4"/>
<!-- eq_job -->
<g id="node1" class="node"><title>eq_job</title>
<polygon fill="none" stroke="black" points="481.841,-572 412.129,-554 481.841,-536 551.554,-554 481.841,-572"/>
<text text-anchor="middle" x="481.841" y="-550.3" font-family="Times,serif" font-size="14.00">eq_job = 1</text>
</g>
<!-- restart -->
<g id="node2" class="node"><title>restart</title>
<polygon fill="none" stroke="black" points="412.841,-485 366.926,-467 412.841,-449 458.757,-467 412.841,-485"/>
<text text-anchor="middle" x="412.841" y="-463.3" font-family="Times,serif" font-size="14.00">restart</text>
</g>
<!-- eq_job&#45;&gt;restart -->
<g id="edge1" class="edge"><title>eq_job&#45;&gt;restart</title>
<path fill="none" stroke="black" d="M470.136,-538.581C459.106,-524.993 442.449,-504.474 429.934,-489.056"/>
<polygon fill="black" stroke="black" points="432.489,-486.65 423.469,-481.092 427.054,-491.062 432.489,-486.65"/>
<text text-anchor="middle" x="461.341" y="-506.8" font-family="Times,serif" font-size="14.00">yes</text>
</g>
<!-- store -->
<g id="node3" class="node"><title>store</title>
<ellipse fill="none" stroke="black" cx="347.841" cy="-91" rx="74.9875" ry="18"/>
<text text-anchor="middle" x="347.841" y="-87.3" font-family="Times,serif" font-size="14.00">store new vec, res</text>
</g>
<!-- eq_job&#45;&gt;store -->
<g id="edge2" class="edge"><title>eq_job&#45;&gt;store</title>
<path fill="none" stroke="black" d="M491.676,-538.356C501.717,-521.955 515.841,-494.225 515.841,-468 515.841,-468 515.841,-468 515.841,-163 515.841,-122.02 472.905,-104.329 430.445,-96.8526"/>
<polygon fill="black" stroke="black" points="430.976,-93.3932 420.552,-95.2852 429.881,-100.307 430.976,-93.3932"/>
<text text-anchor="middle" x="522.841" y="-322.3" font-family="Times,serif" font-size="14.00">no</text>
</g>
<!-- jump -->
<g id="node4" class="node"><title>jump</title>
<polygon fill="none" stroke="black" points="277.841,-398 236.617,-380 277.841,-362 319.066,-380 277.841,-398"/>
<text text-anchor="middle" x="277.841" y="-376.3" font-family="Times,serif" font-size="14.00">jump</text>
</g>
<!-- restart&#45;&gt;jump -->
<g id="edge3" class="edge"><title>restart&#45;&gt;jump</title>
<path fill="none" stroke="black" d="M396.017,-455.407C372.52,-440.613 329.719,-413.664 302.585,-396.579"/>
<polygon fill="black" stroke="black" points="304.362,-393.562 294.034,-391.196 300.632,-399.486 304.362,-393.562"/>
<text text-anchor="middle" x="363.341" y="-419.8" font-family="Times,serif" font-size="14.00">yes</text>
</g>
<!-- copy -->
<g id="node5" class="node"><title>copy</title>
<ellipse fill="none" stroke="black" cx="412.841" cy="-326" rx="79.8859" ry="18"/>
<text text-anchor="middle" x="412.841" y="-322.3" font-family="Times,serif" font-size="14.00">copy previous level</text>
</g>
<!-- restart&#45;&gt;copy -->
<g id="edge4" class="edge"><title>restart&#45;&gt;copy</title>
<path fill="none" stroke="black" d="M412.841,-448.956C412.841,-425.404 412.841,-382.639 412.841,-354.526"/>
<polygon fill="black" stroke="black" points="416.342,-354.184 412.841,-344.184 409.342,-354.184 416.342,-354.184"/>
<text text-anchor="middle" x="419.841" y="-419.8" font-family="Times,serif" font-size="14.00">no</text>
</g>
<!-- return -->
<g id="node8" class="node"><title>return</title>
<ellipse fill="none" stroke="black" cx="189.841" cy="-18" rx="31.6951" ry="18"/>
<text text-anchor="middle" x="189.841" y="-14.3" font-family="Times,serif" font-size="14.00">return</text>
</g>
<!-- store&#45;&gt;return -->
<g id="edge12" class="edge"><title>store&#45;&gt;return</title>
<path fill="none" stroke="black" d="M313.946,-74.7687C287.135,-62.7205 249.9,-45.9882 223.223,-34.0004"/>
<polygon fill="black" stroke="black" points="224.467,-30.7224 213.911,-29.816 221.597,-37.1073 224.467,-30.7224"/>
</g>
<!-- reconstructcur -->
<g id="node6" class="node"><title>reconstructcur</title>
<ellipse fill="none" stroke="black" cx="96.8414" cy="-218" rx="96.6831" ry="18"/>
<text text-anchor="middle" x="96.8414" y="-214.3" font-family="Times,serif" font-size="14.00">reconstruct current level</text>
</g>
<!-- jump&#45;&gt;reconstructcur -->
<g id="edge5" class="edge"><title>jump&#45;&gt;reconstructcur</title>
<path fill="none" stroke="black" d="M264.824,-367.493C235.387,-341.471 163.194,-277.654 123.71,-242.751"/>
<polygon fill="black" stroke="black" points="125.619,-239.767 115.808,-235.766 120.983,-245.012 125.619,-239.767"/>
<text text-anchor="middle" x="245.341" y="-322.3" font-family="Times,serif" font-size="14.00">yes</text>
</g>
<!-- restartone -->
<g id="node7" class="node"><title>restartone</title>
<polygon fill="none" stroke="black" points="277.841,-290 210.644,-272 277.841,-254 345.039,-272 277.841,-290"/>
<text text-anchor="middle" x="277.841" y="-268.3" font-family="Times,serif" font-size="14.00">restart = 1</text>
</g>
<!-- jump&#45;&gt;restartone -->
<g id="edge6" class="edge"><title>jump&#45;&gt;restartone</title>
<path fill="none" stroke="black" d="M277.841,-361.969C277.841,-345.378 277.841,-319.883 277.841,-300.431"/>
<polygon fill="black" stroke="black" points="281.342,-300.341 277.841,-290.341 274.342,-300.341 281.342,-300.341"/>
<text text-anchor="middle" x="284.841" y="-322.3" font-family="Times,serif" font-size="14.00">no</text>
</g>
<!-- copy&#45;&gt;store -->
<g id="edge9" class="edge"><title>copy&#45;&gt;store</title>
<path fill="none" stroke="black" d="M425.261,-308.132C448.191,-274.747 491.939,-198.908 458.841,-146 447.609,-128.045 428.507,-115.905 409.284,-107.766"/>
<polygon fill="black" stroke="black" points="410.46,-104.468 399.872,-104.084 407.91,-110.987 410.46,-104.468"/>
</g>
<!-- reconstructcur&#45;&gt;return -->
<g id="edge7" class="edge"><title>reconstructcur&#45;&gt;return</title>
<path fill="none" stroke="black" d="M104.932,-199.775C121.338,-164.847 158.592,-85.5302 177.837,-44.558"/>
<polygon fill="black" stroke="black" points="181.015,-46.0252 182.098,-35.4859 174.679,-43.0492 181.015,-46.0252"/>
</g>
<!-- restartone&#45;&gt;store -->
<g id="edge11" class="edge"><title>restartone&#45;&gt;store</title>
<path fill="none" stroke="black" d="M262.871,-257.944C237.8,-234.47 192.45,-184.041 217.841,-146 231.553,-125.457 254.699,-112.718 277.693,-104.823"/>
<polygon fill="black" stroke="black" points="279.026,-108.072 287.511,-101.727 276.921,-101.396 279.026,-108.072"/>
<text text-anchor="middle" x="227.341" y="-160.3" font-family="Times,serif" font-size="14.00">yes</text>
</g>
<!-- reconstruct -->
<g id="node9" class="node"><title>reconstruct</title>
<ellipse fill="none" stroke="black" cx="347.841" cy="-164" rx="102.082" ry="18"/>
<text text-anchor="middle" x="347.841" y="-160.3" font-family="Times,serif" font-size="14.00">reconstruct previous level</text>
</g>
<!-- restartone&#45;&gt;reconstruct -->
<g id="edge8" class="edge"><title>restartone&#45;&gt;reconstruct</title>
<path fill="none" stroke="black" d="M287.575,-256.261C298.766,-239.314 317.338,-211.191 330.913,-190.635"/>
<polygon fill="black" stroke="black" points="333.98,-192.341 336.57,-182.068 328.139,-188.483 333.98,-192.341"/>
<text text-anchor="middle" x="330.841" y="-214.3" font-family="Times,serif" font-size="14.00">no</text>
</g>
<!-- reconstruct&#45;&gt;store -->
<g id="edge10" class="edge"><title>reconstruct&#45;&gt;store</title>
<path fill="none" stroke="black" d="M347.841,-145.813C347.841,-137.789 347.841,-128.047 347.841,-119.069"/>
<polygon fill="black" stroke="black" points="351.342,-119.029 347.841,-109.029 344.342,-119.029 351.342,-119.029"/>
</g>
</g>
</svg>
