<?xml version="1.0" encoding="UTF-8" standalone="no"?>
<!DOCTYPE svg PUBLIC "-//W3C//DTD SVG 1.1//EN"
 "http://www.w3.org/Graphics/SVG/1.1/DTD/svg11.dtd">
<!-- Generated by graphviz version 2.38.0 (20140413.2041)
 -->
<!-- Title: plot_info_for_vmec_hel_comparison Pages: 1 -->
<svg width="1040pt" height="338pt"
 viewBox="0.00 0.00 1040.00 337.73" xmlns="http://www.w3.org/2000/svg" xmlns:xlink="http://www.w3.org/1999/xlink">
<g id="graph0" class="graph" transform="scale(1 1) rotate(0) translate(4 333.727)">
<title>plot_info_for_vmec_hel_comparison</title>
<polygon fill="white" stroke="none" points="-4,4 -4,-333.727 1036,-333.727 1036,4 -4,4"/>
<!-- Node0 -->
<g id="node1" class="node"><title>Node0</title>
<polygon fill="#bfbfbf" stroke="black" points="0,-123.727 0,-157.727 125,-157.727 125,-123.727 0,-123.727"/>
<text text-anchor="start" x="8" y="-144.127" font-family="Ubuntu Mono" font-size="12.00">plot_info_for_vmec</text>
<text text-anchor="middle" x="62.5" y="-131.127" font-family="Ubuntu Mono" font-size="12.00">_hel_comparison</text>
</g>
<!-- Node1 -->
<g id="node2" class="node"><title>Node1</title>
<g id="a_node2"><a xlink:href="namespaceinput__utilities.html#a71bd36f063d55ab62c7a37864aef1185" target="_top" xlink:title="input_utilities::pause_prog">
<polygon fill="white" stroke="black" points="161,-110.227 161,-131.227 340,-131.227 340,-110.227 161,-110.227"/>
<text text-anchor="middle" x="250.5" y="-117.627" font-family="Ubuntu Mono" font-size="12.00">input_utilities::pause_prog</text>
</a>
</g>
</g>
<!-- Node0&#45;&gt;Node1 -->
<g id="edge1" class="edge"><title>Node0&#45;&gt;Node1</title>
<path fill="none" stroke="midnightblue" d="M125.177,-134.095C133.386,-133.212 141.963,-132.29 150.608,-131.361"/>
<polygon fill="midnightblue" stroke="midnightblue" points="151.202,-134.817 160.771,-130.268 150.454,-127.857 151.202,-134.817"/>
</g>
<!-- Node4 -->
<g id="node5" class="node"><title>Node4</title>
<g id="a_node5"><a xlink:href="namespacemessages.html#aa4a8d01563e92558e8a0875b075ec54c" target="_top" xlink:title="messages::writo">
<polygon fill="white" stroke="black" points="567,-130.227 567,-151.227 674,-151.227 674,-130.227 567,-130.227"/>
<text text-anchor="middle" x="620.5" y="-137.627" font-family="Ubuntu Mono" font-size="12.00">messages::writo</text>
</a>
</g>
</g>
<!-- Node0&#45;&gt;Node4 -->
<g id="edge21" class="edge"><title>Node0&#45;&gt;Node4</title>
<path fill="none" stroke="midnightblue" d="M87.6033,-123.637C158.832,-75.4039 373.232,53.3476 531,-24.727 571.463,-44.7512 598.482,-93.1198 611.163,-120.659"/>
<polygon fill="midnightblue" stroke="midnightblue" points="608.084,-122.352 615.319,-130.092 614.49,-119.53 608.084,-122.352"/>
</g>
<!-- Node9 -->
<g id="node10" class="node"><title>Node9</title>
<g id="a_node10"><a xlink:href="namespaceinput__utilities.html#a03e09af96ba6f7e187ea4a1d9b743148" target="_top" xlink:title="input_utilities::get_int">
<polygon fill="white" stroke="black" points="170,-190.227 170,-211.227 331,-211.227 331,-190.227 170,-190.227"/>
<text text-anchor="middle" x="250.5" y="-197.627" font-family="Ubuntu Mono" font-size="12.00">input_utilities::get_int</text>
</a>
</g>
</g>
<!-- Node0&#45;&gt;Node9 -->
<g id="edge11" class="edge"><title>Node0&#45;&gt;Node9</title>
<path fill="none" stroke="midnightblue" d="M100.927,-157.799C118.845,-165.526 140.761,-174.338 161,-180.727 169.097,-183.283 177.709,-185.65 186.259,-187.793"/>
<polygon fill="midnightblue" stroke="midnightblue" points="185.69,-191.256 196.233,-190.205 187.335,-184.453 185.69,-191.256"/>
</g>
<!-- Node11 -->
<g id="node12" class="node"><title>Node11</title>
<g id="a_node12"><a xlink:href="namespaceinput__utilities.html#ad9ce824c30b32041ab70f3fb191f06db" target="_top" xlink:title="input_utilities::get_log">
<polygon fill="white" stroke="black" points="170,-150.227 170,-171.227 331,-171.227 331,-150.227 170,-150.227"/>
<text text-anchor="middle" x="250.5" y="-157.627" font-family="Ubuntu Mono" font-size="12.00">input_utilities::get_log</text>
</a>
</g>
</g>
<!-- Node0&#45;&gt;Node11 -->
<g id="edge16" class="edge"><title>Node0&#45;&gt;Node11</title>
<path fill="none" stroke="midnightblue" d="M125.177,-147.359C136.219,-148.546 147.927,-149.805 159.571,-151.057"/>
<polygon fill="midnightblue" stroke="midnightblue" points="159.452,-154.565 169.769,-152.154 160.201,-147.605 159.452,-154.565"/>
</g>
<!-- Node2 -->
<g id="node3" class="node"><title>Node2</title>
<g id="a_node3"><a xlink:href="namespacempi__utilities.html#a790ea24d32dd0e249541c1e57cd85536" target="_top" xlink:title="mpi_utilities::wait_mpi">
<polygon fill="white" stroke="black" points="376,-34.227 376,-55.227 531,-55.227 531,-34.227 376,-34.227"/>
<text text-anchor="middle" x="453.5" y="-41.627" font-family="Ubuntu Mono" font-size="12.00">mpi_utilities::wait_mpi</text>
</a>
</g>
</g>
<!-- Node1&#45;&gt;Node2 -->
<g id="edge2" class="edge"><title>Node1&#45;&gt;Node2</title>
<path fill="none" stroke="midnightblue" d="M276.095,-110.031C301.06,-99.3212 340.923,-82.6234 376,-69.727 386.543,-65.8509 398.008,-61.9439 408.776,-58.4076"/>
<polygon fill="midnightblue" stroke="midnightblue" points="409.993,-61.6925 418.424,-55.2757 407.832,-55.0346 409.993,-61.6925"/>
</g>
<!-- Node3 -->
<g id="node4" class="node"><title>Node3</title>
<g id="a_node4"><a xlink:href="namespacemessages.html#a2a1154de25763d4894275ff4307b6862" target="_top" xlink:title="messages::stop_time">
<polygon fill="white" stroke="black" points="388,-190.227 388,-211.227 519,-211.227 519,-190.227 388,-190.227"/>
<text text-anchor="middle" x="453.5" y="-197.627" font-family="Ubuntu Mono" font-size="12.00">messages::stop_time</text>
</a>
</g>
</g>
<!-- Node1&#45;&gt;Node3 -->
<g id="edge3" class="edge"><title>Node1&#45;&gt;Node3</title>
<path fill="none" stroke="midnightblue" d="M318.914,-131.31C326.288,-133.811 333.477,-136.904 340,-140.727 360.635,-152.821 355.57,-168.29 376,-180.727 379.562,-182.895 383.355,-184.831 387.275,-186.558"/>
<polygon fill="midnightblue" stroke="midnightblue" points="386.015,-189.823 396.603,-190.221 388.574,-183.308 386.015,-189.823"/>
</g>
<!-- Node1&#45;&gt;Node4 -->
<g id="edge10" class="edge"><title>Node1&#45;&gt;Node4</title>
<path fill="none" stroke="midnightblue" d="M311.714,-110.207C368.668,-102.07 456.304,-94.2538 531,-107.727 550.83,-111.304 572.014,-119.05 588.684,-126.14"/>
<polygon fill="midnightblue" stroke="midnightblue" points="587.369,-129.385 597.932,-130.201 590.183,-122.975 587.369,-129.385"/>
</g>
<!-- Node8 -->
<g id="node9" class="node"><title>Node8</title>
<g id="a_node9"><a xlink:href="namespacemessages.html#ad997c3dff64c512e0070ce8816c28e7f" target="_top" xlink:title="messages::start_time">
<polygon fill="white" stroke="black" points="385,-150.227 385,-171.227 522,-171.227 522,-150.227 385,-150.227"/>
<text text-anchor="middle" x="453.5" y="-157.627" font-family="Ubuntu Mono" font-size="12.00">messages::start_time</text>
</a>
</g>
</g>
<!-- Node1&#45;&gt;Node8 -->
<g id="edge8" class="edge"><title>Node1&#45;&gt;Node8</title>
<path fill="none" stroke="midnightblue" d="M304.31,-131.237C330.519,-136.452 362.361,-142.789 389.802,-148.25"/>
<polygon fill="midnightblue" stroke="midnightblue" points="389.203,-151.699 399.694,-150.218 390.569,-144.834 389.203,-151.699"/>
</g>
<!-- Node3&#45;&gt;Node4 -->
<g id="edge4" class="edge"><title>Node3&#45;&gt;Node4</title>
<path fill="none" stroke="midnightblue" d="M500.189,-190.13C510.427,-187.384 521.165,-184.207 531,-180.727 550.931,-173.674 572.57,-163.934 589.461,-155.831"/>
<polygon fill="midnightblue" stroke="midnightblue" points="591.349,-158.805 598.809,-151.282 588.286,-152.511 591.349,-158.805"/>
</g>
<!-- Node5 -->
<g id="node6" class="node"><title>Node5</title>
<g id="a_node6"><a xlink:href="namespacemessages.html#a82dddaab795b78b3d39e1ff1aab2f665" target="_top" xlink:title="messages::get_mem_usage">
<polygon fill="white" stroke="black" points="710,-150.227 710,-171.227 865,-171.227 865,-150.227 710,-150.227"/>
<text text-anchor="middle" x="787.5" y="-157.627" font-family="Ubuntu Mono" font-size="12.00">messages::get_mem_usage</text>
</a>
</g>
</g>
<!-- Node4&#45;&gt;Node5 -->
<g id="edge5" class="edge"><title>Node4&#45;&gt;Node5</title>
<path fill="none" stroke="midnightblue" d="M674.161,-147.11C682.452,-148.115 691.208,-149.177 700.025,-150.245"/>
<polygon fill="midnightblue" stroke="midnightblue" points="699.635,-153.724 709.984,-151.452 700.478,-146.774 699.635,-153.724"/>
</g>
<!-- Node6 -->
<g id="node7" class="node"><title>Node6</title>
<g id="a_node7"><a xlink:href="messages_8f90.html#a6d15f28783f95a7a4b2a44185619792f" target="_top" xlink:title="format_str">
<polygon fill="white" stroke="black" points="749,-110.227 749,-131.227 826,-131.227 826,-110.227 749,-110.227"/>
<text text-anchor="middle" x="787.5" y="-117.627" font-family="Ubuntu Mono" font-size="12.00">format_str</text>
</a>
</g>
</g>
<!-- Node4&#45;&gt;Node6 -->
<g id="edge6" class="edge"><title>Node4&#45;&gt;Node6</title>
<path fill="none" stroke="midnightblue" d="M674.161,-134.344C694.977,-131.821 718.722,-128.943 739.002,-126.484"/>
<polygon fill="midnightblue" stroke="midnightblue" points="739.448,-129.956 748.954,-125.278 738.606,-123.007 739.448,-129.956"/>
</g>
<!-- Node7 -->
<g id="node8" class="node"><title>Node7</title>
<g id="a_node8"><a xlink:href="namespacemessages.html#a61fd0b51b5e37d58fdc993c01792a3fd" target="_top" xlink:title="messages::get_clock">
<polygon fill="white" stroke="black" points="901,-110.227 901,-131.227 1032,-131.227 1032,-110.227 901,-110.227"/>
<text text-anchor="middle" x="966.5" y="-117.627" font-family="Ubuntu Mono" font-size="12.00">messages::get_clock</text>
</a>
</g>
</g>
<!-- Node6&#45;&gt;Node7 -->
<g id="edge7" class="edge"><title>Node6&#45;&gt;Node7</title>
<path fill="none" stroke="midnightblue" d="M826.037,-120.727C844.869,-120.727 868.372,-120.727 890.685,-120.727"/>
<polygon fill="midnightblue" stroke="midnightblue" points="890.832,-124.227 900.832,-120.727 890.832,-117.227 890.832,-124.227"/>
</g>
<!-- Node8&#45;&gt;Node4 -->
<g id="edge9" class="edge"><title>Node8&#45;&gt;Node4</title>
<path fill="none" stroke="midnightblue" d="M522.088,-152.535C533.535,-151.147 545.379,-149.711 556.697,-148.339"/>
<polygon fill="midnightblue" stroke="midnightblue" points="557.411,-151.779 566.917,-147.101 556.569,-144.829 557.411,-151.779"/>
</g>
<!-- Node9&#45;&gt;Node3 -->
<g id="edge13" class="edge"><title>Node9&#45;&gt;Node3</title>
<path fill="none" stroke="midnightblue" d="M331.229,-200.727C346.458,-200.727 362.351,-200.727 377.428,-200.727"/>
<polygon fill="midnightblue" stroke="midnightblue" points="377.716,-204.227 387.716,-200.727 377.716,-197.227 377.716,-204.227"/>
</g>
<!-- Node9&#45;&gt;Node4 -->
<g id="edge15" class="edge"><title>Node9&#45;&gt;Node4</title>
<path fill="none" stroke="midnightblue" d="M267.897,-211.371C312.542,-238.899 439.076,-307.152 531,-260.727 572.57,-239.732 599.42,-188.982 611.709,-160.666"/>
<polygon fill="midnightblue" stroke="midnightblue" points="614.977,-161.924 615.578,-151.346 608.512,-159.24 614.977,-161.924"/>
</g>
<!-- Node9&#45;&gt;Node8 -->
<g id="edge14" class="edge"><title>Node9&#45;&gt;Node8</title>
<path fill="none" stroke="midnightblue" d="M304.31,-190.217C330.519,-185.002 362.361,-178.665 389.802,-173.204"/>
<polygon fill="midnightblue" stroke="midnightblue" points="390.569,-176.62 399.694,-171.236 389.203,-169.755 390.569,-176.62"/>
</g>
<!-- Node10 -->
<g id="node11" class="node"><title>Node10</title>
<g id="a_node11"><a xlink:href="namespacestr__utilities.html#a0b97e51770725a3e98ed393d26681414" target="_top" xlink:title="str_utilities::i2str">
<polygon fill="white" stroke="black" points="385,-308.227 385,-329.227 522,-329.227 522,-308.227 385,-308.227"/>
<text text-anchor="middle" x="453.5" y="-315.627" font-family="Ubuntu Mono" font-size="12.00">str_utilities::i2str</text>
</a>
</g>
</g>
<!-- Node9&#45;&gt;Node10 -->
<g id="edge12" class="edge"><title>Node9&#45;&gt;Node10</title>
<path fill="none" stroke="midnightblue" d="M262.986,-211.376C283.96,-230.323 330.502,-270.114 376,-293.727 384.197,-297.981 393.26,-301.705 402.197,-304.889"/>
<polygon fill="midnightblue" stroke="midnightblue" points="401.202,-308.247 411.797,-308.131 403.442,-301.615 401.202,-308.247"/>
</g>
<!-- Node11&#45;&gt;Node3 -->
<g id="edge17" class="edge"><title>Node11&#45;&gt;Node3</title>
<path fill="none" stroke="midnightblue" d="M304.31,-171.237C330.519,-176.452 362.361,-182.789 389.802,-188.25"/>
<polygon fill="midnightblue" stroke="midnightblue" points="389.203,-191.699 399.694,-190.218 390.569,-184.834 389.203,-191.699"/>
</g>
<!-- Node11&#45;&gt;Node4 -->
<g id="edge20" class="edge"><title>Node11&#45;&gt;Node4</title>
<path fill="none" stroke="midnightblue" d="M305.202,-150.182C327.069,-146.39 352.65,-142.591 376,-140.727 437.177,-135.845 507.275,-136.5 556.502,-137.982"/>
<polygon fill="midnightblue" stroke="midnightblue" points="556.572,-141.486 566.679,-138.309 556.797,-134.489 556.572,-141.486"/>
</g>
<!-- Node11&#45;&gt;Node8 -->
<g id="edge18" class="edge"><title>Node11&#45;&gt;Node8</title>
<path fill="none" stroke="midnightblue" d="M331.229,-160.727C345.517,-160.727 360.391,-160.727 374.626,-160.727"/>
<polygon fill="midnightblue" stroke="midnightblue" points="374.861,-164.227 384.861,-160.727 374.861,-157.227 374.861,-164.227"/>
</g>
<!-- Node12 -->
<g id="node13" class="node"><title>Node12</title>
<g id="a_node13"><a xlink:href="namespacestr__utilities.html#a219964a283968cc6a968db0197d2187e" target="_top" xlink:title="str_utilities::strh2l">
<polygon fill="white" stroke="black" points="382,-230.227 382,-251.227 525,-251.227 525,-230.227 382,-230.227"/>
<text text-anchor="middle" x="453.5" y="-237.627" font-family="Ubuntu Mono" font-size="12.00">str_utilities::strh2l</text>
</a>
</g>
</g>
<!-- Node11&#45;&gt;Node12 -->
<g id="edge19" class="edge"><title>Node11&#45;&gt;Node12</title>
<path fill="none" stroke="midnightblue" d="M318.914,-171.31C326.288,-173.811 333.477,-176.904 340,-180.727 360.635,-192.821 355.57,-208.29 376,-220.727 379.562,-222.895 383.355,-224.831 387.275,-226.558"/>
<polygon fill="midnightblue" stroke="midnightblue" points="386.015,-229.823 396.603,-230.221 388.574,-223.308 386.015,-229.823"/>
</g>
</g>
</svg>
