<?xml version="1.0" encoding="UTF-8" standalone="no"?>
<!DOCTYPE svg PUBLIC "-//W3C//DTD SVG 1.1//EN"
 "http://www.w3.org/Graphics/SVG/1.1/DTD/svg11.dtd">
<!-- Generated by graphviz version 2.38.0 (20140413.2041)
 -->
<!-- Title: plot_info_for_vmec_hel_comparision Pages: 1 -->
<svg width="407pt" height="43pt"
 viewBox="0.00 0.00 407.00 43.00" xmlns="http://www.w3.org/2000/svg" xmlns:xlink="http://www.w3.org/1999/xlink">
<g id="graph0" class="graph" transform="scale(1 1) rotate(0) translate(4 39)">
<title>plot_info_for_vmec_hel_comparision</title>
<polygon fill="white" stroke="none" points="-4,4 -4,-39 403,-39 403,4 -4,4"/>
<!-- Node13 -->
<g id="node1" class="node"><title>Node13</title>
<polygon fill="#bfbfbf" stroke="black" points="0,-0.5 0,-34.5 125,-34.5 125,-0.5 0,-0.5"/>
<text text-anchor="start" x="8" y="-20.9" font-family="Ubuntu Mono" font-size="12.00">plot_info_for_vmec</text>
<text text-anchor="middle" x="62.5" y="-7.9" font-family="Ubuntu Mono" font-size="12.00">_hel_comparision</text>
</g>
<!-- Node14 -->
<g id="node2" class="node"><title>Node14</title>
<g id="a_node2"><a xlink:href="namespacedriver__eq.html#ac8eca434f541966edc3556d72f261eff" target="_top" xlink:title="driver_eq::run_driver_eq">
<polygon fill="white" stroke="black" points="161,-7 161,-28 322,-28 322,-7 161,-7"/>
<text text-anchor="middle" x="241.5" y="-14.4" font-family="Ubuntu Mono" font-size="12.00">driver_eq::run_driver_eq</text>
</a>
</g>
</g>
<!-- Node13&#45;&gt;Node14 -->
<g id="edge1" class="edge"><title>Node13&#45;&gt;Node14</title>
<path fill="none" stroke="midnightblue" d="M135.491,-17.5C143.86,-17.5 152.432,-17.5 160.895,-17.5"/>
<polygon fill="midnightblue" stroke="midnightblue" points="135.406,-14.0001 125.406,-17.5 135.406,-21.0001 135.406,-14.0001"/>
</g>
<!-- Node15 -->
<g id="node3" class="node"><title>Node15</title>
<g id="a_node3"><a xlink:href="PB3D_8f90.html#afaee01f014ab3398eecac996b2795fd2" target="_top" xlink:title="pb3d">
<polygon fill="white" stroke="black" points="358,-7 358,-28 399,-28 399,-7 358,-7"/>
<text text-anchor="middle" x="378.5" y="-14.4" font-family="Ubuntu Mono" font-size="12.00">pb3d</text>
</a>
</g>
</g>
<!-- Node14&#45;&gt;Node15 -->
<g id="edge2" class="edge"><title>Node14&#45;&gt;Node15</title>
<path fill="none" stroke="midnightblue" d="M332.278,-17.5C341.755,-17.5 350.571,-17.5 357.856,-17.5"/>
<polygon fill="midnightblue" stroke="midnightblue" points="332.201,-14.0001 322.201,-17.5 332.201,-21.0001 332.201,-14.0001"/>
</g>
</g>
</svg>
