<?xml version="1.0" encoding="UTF-8" standalone="no"?>
<!DOCTYPE svg PUBLIC "-//W3C//DTD SVG 1.1//EN"
 "http://www.w3.org/Graphics/SVG/1.1/DTD/svg11.dtd">
<!-- Generated by graphviz version 2.38.0 (20140413.2041)
 -->
<!-- Title: calc_derived_de_epar_hel Pages: 1 -->
<svg width="891pt" height="280pt"
 viewBox="0.00 0.00 891.00 280.00" xmlns="http://www.w3.org/2000/svg" xmlns:xlink="http://www.w3.org/1999/xlink">
<g id="graph0" class="graph" transform="scale(1 1) rotate(0) translate(4 276)">
<title>calc_derived_de_epar_hel</title>
<polygon fill="white" stroke="none" points="-4,4 -4,-276 887,-276 887,4 -4,4"/>
<!-- Node0 -->
<g id="node1" class="node"><title>Node0</title>
<polygon fill="#bfbfbf" stroke="black" points="0,-140.5 0,-161.5 161,-161.5 161,-140.5 0,-140.5"/>
<text text-anchor="middle" x="80.5" y="-147.9" font-family="Ubuntu Mono" font-size="12.00">calc_derived_de_epar_hel</text>
</g>
<!-- Node1 -->
<g id="node2" class="node"><title>Node1</title>
<g id="a_node2"><a xlink:href="namespacenum__utilities.html#a5ee3fbd1fe67d0deefc7194631389f2a" target="_top" xlink:title="Convert 2&#45;D coordinates (i,j) to the storage convention used in matrices. ">
<polygon fill="white" stroke="black" points="227,-250.5 227,-271.5 340,-271.5 340,-250.5 227,-250.5"/>
<text text-anchor="middle" x="283.5" y="-257.9" font-family="Ubuntu Mono" font-size="12.00">num_utilities::c</text>
</a>
</g>
</g>
<!-- Node0&#45;&gt;Node1 -->
<g id="edge1" class="edge"><title>Node0&#45;&gt;Node1</title>
<path fill="none" stroke="midnightblue" d="M91.8829,-161.708C110.908,-180.684 153.422,-220.171 197,-241 203.192,-243.959 209.849,-246.496 216.618,-248.668"/>
<polygon fill="midnightblue" stroke="midnightblue" points="215.991,-252.132 226.573,-251.595 217.966,-245.416 215.991,-252.132"/>
</g>
<!-- Node2 -->
<g id="node3" class="node"><title>Node2</title>
<g id="a_node3"><a xlink:href="namespacegrid__utilities.html#a67001ff9bbcad707aacf17f90a748d90" target="_top" xlink:title="Trim a grid, removing any overlap between the different regions. ">
<polygon fill="white" stroke="black" points="200,-210.5 200,-231.5 367,-231.5 367,-210.5 200,-210.5"/>
<text text-anchor="middle" x="283.5" y="-217.9" font-family="Ubuntu Mono" font-size="12.00">grid_utilities::trim_grid</text>
</a>
</g>
</g>
<!-- Node0&#45;&gt;Node2 -->
<g id="edge2" class="edge"><title>Node0&#45;&gt;Node2</title>
<path fill="none" stroke="midnightblue" d="M102.765,-161.577C125.605,-172.61 163.183,-189.825 197,-201 204.615,-203.516 212.711,-205.843 220.769,-207.952"/>
<polygon fill="midnightblue" stroke="midnightblue" points="219.991,-211.366 230.544,-210.414 221.701,-204.578 219.991,-211.366"/>
</g>
<!-- Node3 -->
<g id="node4" class="node"><title>Node3</title>
<g id="a_node4"><a xlink:href="namespacegrid__utilities.html#a39e7cd9b8f173994358dbdd6b57827e1" target="_top" xlink:title="Calculates , &#160;and &#160;on a grid grid_XYZ, determined through its E(quilibrium) coordinates. ">
<polygon fill="white" stroke="black" points="215,-157 215,-191 352,-191 352,-157 215,-157"/>
<text text-anchor="start" x="223" y="-177.4" font-family="Ubuntu Mono" font-size="12.00">grid_utilities::calc</text>
<text text-anchor="middle" x="283.5" y="-164.4" font-family="Ubuntu Mono" font-size="12.00">_xyz_grid</text>
</a>
</g>
</g>
<!-- Node0&#45;&gt;Node3 -->
<g id="edge3" class="edge"><title>Node0&#45;&gt;Node3</title>
<path fill="none" stroke="midnightblue" d="M161.229,-160.123C175.517,-161.758 190.391,-163.46 204.626,-165.089"/>
<polygon fill="midnightblue" stroke="midnightblue" points="204.528,-168.601 214.861,-166.26 205.324,-161.646 204.528,-168.601"/>
</g>
<!-- Node4 -->
<g id="node5" class="node"><title>Node4</title>
<g id="a_node5"><a xlink:href="namespacemessages.html#aa4a8d01563e92558e8a0875b075ec54c" target="_top" xlink:title="Write output to file identified by output_i. ">
<polygon fill="white" stroke="black" points="585,-78.5 585,-99.5 692,-99.5 692,-78.5 585,-78.5"/>
<text text-anchor="middle" x="638.5" y="-85.9" font-family="Ubuntu Mono" font-size="12.00">messages::writo</text>
</a>
</g>
</g>
<!-- Node0&#45;&gt;Node4 -->
<g id="edge4" class="edge"><title>Node0&#45;&gt;Node4</title>
<path fill="none" stroke="midnightblue" d="M161.304,-147.06C254.685,-141.705 413.758,-130.261 549,-109 561.157,-107.089 574.136,-104.482 586.303,-101.781"/>
<polygon fill="midnightblue" stroke="midnightblue" points="587.325,-105.138 596.297,-99.5038 585.769,-98.313 587.325,-105.138"/>
</g>
<!-- Node7 -->
<g id="node8" class="node"><title>Node7</title>
<g id="a_node8"><a xlink:href="namespacemessages.html#a6e6bfb084063e4cc91ee86e542043302" target="_top" xlink:title="Increases/decreases lvl of output. ">
<polygon fill="white" stroke="black" points="421,-78.5 421,-99.5 534,-99.5 534,-78.5 421,-78.5"/>
<text text-anchor="middle" x="477.5" y="-85.9" font-family="Ubuntu Mono" font-size="12.00">messages::lvl_ud</text>
</a>
</g>
</g>
<!-- Node0&#45;&gt;Node7 -->
<g id="edge7" class="edge"><title>Node0&#45;&gt;Node7</title>
<path fill="none" stroke="midnightblue" d="M108.586,-140.444C131.71,-131.889 166.043,-120.263 197,-114 269.149,-99.4037 353.497,-93.3285 410.509,-90.8005"/>
<polygon fill="midnightblue" stroke="midnightblue" points="410.983,-94.2838 420.828,-90.3685 410.69,-87.2899 410.983,-94.2838"/>
</g>
<!-- Node8 -->
<g id="node9" class="node"><title>Node8</title>
<g id="a_node9"><a xlink:href="namespaceoutput__ops.html#ab0d14194d01ab0534562eab50b37a57a" target="_top" xlink:title="Takes two input vectors and plots these as well as the relative and absolute difference in a HDF5 fil...">
<polygon fill="white" stroke="black" points="197,-39.5 197,-60.5 370,-60.5 370,-39.5 197,-39.5"/>
<text text-anchor="middle" x="283.5" y="-46.9" font-family="Ubuntu Mono" font-size="12.00">output_ops::plot_diff_hdf5</text>
</a>
</g>
</g>
<!-- Node0&#45;&gt;Node8 -->
<g id="edge9" class="edge"><title>Node0&#45;&gt;Node8</title>
<path fill="none" stroke="midnightblue" d="M94.9839,-140.425C115.815,-124.521 157.549,-94.3594 197,-76 207.335,-71.1902 218.781,-66.9995 229.849,-63.4688"/>
<polygon fill="midnightblue" stroke="midnightblue" points="230.9,-66.8074 239.44,-60.537 228.854,-60.1132 230.9,-66.8074"/>
</g>
<!-- Node5 -->
<g id="node6" class="node"><title>Node5</title>
<g id="a_node6"><a xlink:href="namespacemessages.html#a82dddaab795b78b3d39e1ff1aab2f665" target="_top" xlink:title="Returns the memory usage in kilobytes. ">
<polygon fill="white" stroke="black" points="728,-98.5 728,-119.5 883,-119.5 883,-98.5 728,-98.5"/>
<text text-anchor="middle" x="805.5" y="-105.9" font-family="Ubuntu Mono" font-size="12.00">messages::get_mem_usage</text>
</a>
</g>
</g>
<!-- Node4&#45;&gt;Node5 -->
<g id="edge5" class="edge"><title>Node4&#45;&gt;Node5</title>
<path fill="none" stroke="midnightblue" d="M692.161,-95.3831C700.452,-96.3881 709.208,-97.4495 718.025,-98.5182"/>
<polygon fill="midnightblue" stroke="midnightblue" points="717.635,-101.996 727.984,-99.7253 718.478,-95.0474 717.635,-101.996"/>
</g>
<!-- Node6 -->
<g id="node7" class="node"><title>Node6</title>
<g id="a_node7"><a xlink:href="namespacemessages.html#a61fd0b51b5e37d58fdc993c01792a3fd" target="_top" xlink:title="Returns the time. ">
<polygon fill="white" stroke="black" points="740,-58.5 740,-79.5 871,-79.5 871,-58.5 740,-58.5"/>
<text text-anchor="middle" x="805.5" y="-65.9" font-family="Ubuntu Mono" font-size="12.00">messages::get_clock</text>
</a>
</g>
</g>
<!-- Node4&#45;&gt;Node6 -->
<g id="edge6" class="edge"><title>Node4&#45;&gt;Node6</title>
<path fill="none" stroke="midnightblue" d="M692.161,-82.6169C704.142,-81.1646 717.094,-79.5947 729.797,-78.0549"/>
<polygon fill="midnightblue" stroke="midnightblue" points="730.402,-81.5073 739.908,-76.8293 729.56,-74.5581 730.402,-81.5073"/>
</g>
<!-- Node7&#45;&gt;Node4 -->
<g id="edge8" class="edge"><title>Node7&#45;&gt;Node4</title>
<path fill="none" stroke="midnightblue" d="M534.11,-89C547.241,-89 561.33,-89 574.752,-89"/>
<polygon fill="midnightblue" stroke="midnightblue" points="574.859,-92.5001 584.859,-89 574.859,-85.5001 574.859,-92.5001"/>
</g>
<!-- Node8&#45;&gt;Node4 -->
<g id="edge10" class="edge"><title>Node8&#45;&gt;Node4</title>
<path fill="none" stroke="midnightblue" d="M370.026,-52.8777C421.995,-55.4355 489.568,-60.201 549,-69 561.295,-70.8203 574.419,-73.4186 586.692,-76.1423"/>
<polygon fill="midnightblue" stroke="midnightblue" points="586.236,-79.6283 596.765,-78.4454 587.797,-72.8044 586.236,-79.6283"/>
</g>
<!-- Node8&#45;&gt;Node7 -->
<g id="edge11" class="edge"><title>Node8&#45;&gt;Node7</title>
<path fill="none" stroke="midnightblue" d="M336.205,-60.5026C360.424,-65.4221 389.461,-71.3202 414.819,-76.471"/>
<polygon fill="midnightblue" stroke="midnightblue" points="414.206,-79.9179 424.703,-78.4787 415.599,-73.058 414.206,-79.9179"/>
</g>
<!-- Node9 -->
<g id="node10" class="node"><title>Node9</title>
<g id="a_node10"><a xlink:href="namespacestr__utilities.html#ac778d706b2e021672618939ab58fdd32" target="_top" xlink:title="Convert a real (double) to string. ">
<polygon fill="white" stroke="black" points="406,-0.5 406,-21.5 549,-21.5 549,-0.5 406,-0.5"/>
<text text-anchor="middle" x="477.5" y="-7.9" font-family="Ubuntu Mono" font-size="12.00">str_utilities::r2strt</text>
</a>
</g>
</g>
<!-- Node8&#45;&gt;Node9 -->
<g id="edge12" class="edge"><title>Node8&#45;&gt;Node9</title>
<path fill="none" stroke="midnightblue" d="M336.205,-39.4974C360.424,-34.5779 389.461,-28.6798 414.819,-23.529"/>
<polygon fill="midnightblue" stroke="midnightblue" points="415.599,-26.942 424.703,-21.5213 414.206,-20.0821 415.599,-26.942"/>
</g>
</g>
</svg>
