<?xml version="1.0" encoding="UTF-8" standalone="no"?>
<!DOCTYPE svg PUBLIC "-//W3C//DTD SVG 1.1//EN"
 "http://www.w3.org/Graphics/SVG/1.1/DTD/svg11.dtd">
<!-- Generated by graphviz version 2.43.0 (0)
 -->
<!-- Title: calc_derived_de_epar_hel Pages: 1 -->
<svg width="954pt" height="450pt"
 viewBox="0.00 0.00 954.00 450.00" xmlns="http://www.w3.org/2000/svg" xmlns:xlink="http://www.w3.org/1999/xlink">
<g id="graph0" class="graph" transform="scale(1 1) rotate(0) translate(4 446)">
<title>calc_derived_de_epar_hel</title>
<polygon fill="white" stroke="transparent" points="-4,4 -4,-446 950,-446 950,4 -4,4"/>
<!-- Node1 -->
<g id="node1" class="node">
<title>Node1</title>
<g id="a_node1"><a xlink:title=" ">
<polygon fill="#bfbfbf" stroke="black" points="0,-249.5 0,-270.5 170,-270.5 170,-249.5 0,-249.5"/>
<text text-anchor="middle" x="85" y="-256.9" font-family="Ubuntu Mono" font-size="12.00">calc_derived_de_epar_hel</text>
</a>
</g>
</g>
<!-- Node2 -->
<g id="node2" class="node">
<title>Node2</title>
<g id="a_node2"><a xlink:href="namespacenum__utilities.html#a5ee3fbd1fe67d0deefc7194631389f2a" target="_top" xlink:title="Convert 2&#45;D coordinates (i,j) to the storage convention used in matrices.">
<polygon fill="white" stroke="black" points="238,-420.5 238,-441.5 344,-441.5 344,-420.5 238,-420.5"/>
<text text-anchor="middle" x="291" y="-427.9" font-family="Ubuntu Mono" font-size="12.00">num_utilities::c</text>
</a>
</g>
</g>
<!-- Node1&#45;&gt;Node2 -->
<g id="edge1" class="edge">
<title>Node1&#45;&gt;Node2</title>
<path fill="none" stroke="midnightblue" d="M91.28,-270.79C105.56,-298.76 147.8,-373.98 206,-411 212.67,-415.24 220.16,-418.59 227.84,-421.22"/>
<polygon fill="midnightblue" stroke="midnightblue" points="227.05,-424.64 237.63,-424.19 229.08,-417.94 227.05,-424.64"/>
</g>
<!-- Node3 -->
<g id="node3" class="node">
<title>Node3</title>
<g id="a_node3"><a xlink:href="namespacegrid__utilities.html#a39e7cd9b8f173994358dbdd6b57827e1" target="_top" xlink:title="Calculates , &#160;and &#160;on a grid grid_XYZ, determined through its E(quilibrium) coordinates.">
<polygon fill="white" stroke="black" points="231.5,-367 231.5,-401 350.5,-401 350.5,-367 231.5,-367"/>
<text text-anchor="start" x="239.5" y="-387.4" font-family="Ubuntu Mono" font-size="12.00">grid_utilities::calc</text>
<text text-anchor="middle" x="291" y="-374.4" font-family="Ubuntu Mono" font-size="12.00">_xyz_grid</text>
</a>
</g>
</g>
<!-- Node1&#45;&gt;Node3 -->
<g id="edge2" class="edge">
<title>Node1&#45;&gt;Node3</title>
<path fill="none" stroke="midnightblue" d="M97.45,-270.64C117.92,-289.2 162.68,-327.82 206,-352 213.07,-355.95 220.73,-359.61 228.44,-362.94"/>
<polygon fill="midnightblue" stroke="midnightblue" points="227.27,-366.24 237.85,-366.83 229.95,-359.77 227.27,-366.24"/>
</g>
<!-- Node4 -->
<g id="node4" class="node">
<title>Node4</title>
<g id="a_node4"><a xlink:href="namespaceoutput__ops.html#a50bfbb88cc91805469353c3ff47b3e2e" target="_top" xlink:title="Use external program to draw a plot.">
<polygon fill="white" stroke="black" points="221,-229.5 221,-250.5 361,-250.5 361,-229.5 221,-229.5"/>
<text text-anchor="middle" x="291" y="-236.9" font-family="Ubuntu Mono" font-size="12.00">output_ops::draw_ex</text>
</a>
</g>
</g>
<!-- Node1&#45;&gt;Node4 -->
<g id="edge3" class="edge">
<title>Node1&#45;&gt;Node4</title>
<path fill="none" stroke="midnightblue" d="M170.15,-251.75C183.62,-250.43 197.52,-249.07 210.87,-247.76"/>
<polygon fill="midnightblue" stroke="midnightblue" points="211.34,-251.23 220.95,-246.77 210.65,-244.26 211.34,-251.23"/>
</g>
<!-- Node5 -->
<g id="node5" class="node">
<title>Node5</title>
<g id="a_node5"><a xlink:href="namespacestr__utilities.html#a0b97e51770725a3e98ed393d26681414" target="_top" xlink:title="Convert an integer to string.">
<polygon fill="white" stroke="black" points="797.5,-117.5 797.5,-138.5 911.5,-138.5 911.5,-117.5 797.5,-117.5"/>
<text text-anchor="middle" x="854.5" y="-124.9" font-family="Ubuntu Mono" font-size="12.00">str_utilities::i2str</text>
</a>
</g>
</g>
<!-- Node1&#45;&gt;Node5 -->
<g id="edge13" class="edge">
<title>Node1&#45;&gt;Node5</title>
<path fill="none" stroke="midnightblue" d="M102.43,-249.46C148.78,-220.43 285.43,-139.54 412,-111 544.8,-81.05 705.66,-100.8 791.85,-115.73"/>
<polygon fill="midnightblue" stroke="midnightblue" points="791.27,-119.18 801.73,-117.48 792.49,-112.29 791.27,-119.18"/>
</g>
<!-- Node6 -->
<g id="node6" class="node">
<title>Node6</title>
<g id="a_node6"><a xlink:href="namespacemessages.html#a6e6bfb084063e4cc91ee86e542043302" target="_top" xlink:title="Increases/decreases lvl of output.">
<polygon fill="white" stroke="black" points="435.5,-288.5 435.5,-309.5 553.5,-309.5 553.5,-288.5 435.5,-288.5"/>
<text text-anchor="middle" x="494.5" y="-295.9" font-family="Ubuntu Mono" font-size="12.00">messages::lvl_ud</text>
</a>
</g>
</g>
<!-- Node1&#45;&gt;Node6 -->
<g id="edge14" class="edge">
<title>Node1&#45;&gt;Node6</title>
<path fill="none" stroke="midnightblue" d="M170.43,-268.08C245.98,-275.31 355.32,-285.78 425.41,-292.48"/>
<polygon fill="midnightblue" stroke="midnightblue" points="425.17,-295.98 435.45,-293.44 425.83,-289.01 425.17,-295.98"/>
</g>
<!-- Node7 -->
<g id="node7" class="node">
<title>Node7</title>
<g id="a_node7"><a xlink:href="namespacemessages.html#aa4a8d01563e92558e8a0875b075ec54c" target="_top" xlink:title="Write output to file identified by output_i.">
<polygon fill="white" stroke="black" points="613,-248.5 613,-269.5 727,-269.5 727,-248.5 613,-248.5"/>
<text text-anchor="middle" x="670" y="-255.9" font-family="Ubuntu Mono" font-size="12.00">messages::writo</text>
</a>
</g>
</g>
<!-- Node1&#45;&gt;Node7 -->
<g id="edge17" class="edge">
<title>Node1&#45;&gt;Node7</title>
<path fill="none" stroke="midnightblue" d="M112.45,-270.51C187.11,-298.62 405.21,-370.07 577,-319 604.96,-310.69 632.35,-290.89 649.88,-276.29"/>
<polygon fill="midnightblue" stroke="midnightblue" points="652.34,-278.79 657.64,-269.62 647.78,-273.48 652.34,-278.79"/>
</g>
<!-- Node12 -->
<g id="node12" class="node">
<title>Node12</title>
<g id="a_node12"><a xlink:href="namespaceoutput__ops.html#ab0d14194d01ab0534562eab50b37a57a" target="_top" xlink:title="Takes two input vectors and plots these as well as the relative and absolute difference in a HDF5 fil...">
<polygon fill="white" stroke="black" points="206,-40.5 206,-61.5 376,-61.5 376,-40.5 206,-40.5"/>
<text text-anchor="middle" x="291" y="-47.9" font-family="Ubuntu Mono" font-size="12.00">output_ops::plot_diff_hdf5</text>
</a>
</g>
</g>
<!-- Node1&#45;&gt;Node12 -->
<g id="edge15" class="edge">
<title>Node1&#45;&gt;Node12</title>
<path fill="none" stroke="midnightblue" d="M89.84,-249.4C101.81,-217.92 141.51,-124.13 206,-76 211.57,-71.84 217.83,-68.37 224.35,-65.48"/>
<polygon fill="midnightblue" stroke="midnightblue" points="226.04,-68.57 234.05,-61.63 223.46,-62.07 226.04,-68.57"/>
</g>
<!-- Node13 -->
<g id="node13" class="node">
<title>Node13</title>
<g id="a_node13"><a xlink:href="namespacegrid__utilities.html#a67001ff9bbcad707aacf17f90a748d90" target="_top" xlink:title="Trim a grid, removing any overlap between the different regions.">
<polygon fill="white" stroke="black" points="216.5,-0.5 216.5,-21.5 365.5,-21.5 365.5,-0.5 216.5,-0.5"/>
<text text-anchor="middle" x="291" y="-7.9" font-family="Ubuntu Mono" font-size="12.00">grid_utilities::trim_grid</text>
</a>
</g>
</g>
<!-- Node1&#45;&gt;Node13 -->
<g id="edge16" class="edge">
<title>Node1&#45;&gt;Node13</title>
<path fill="none" stroke="midnightblue" d="M88.27,-249.33C96.65,-212.63 129.46,-90.51 206,-31 208.12,-29.35 210.36,-27.83 212.69,-26.44"/>
<polygon fill="midnightblue" stroke="midnightblue" points="214.74,-29.32 222.04,-21.64 211.55,-23.09 214.74,-29.32"/>
</g>
<!-- Node4&#45;&gt;Node5 -->
<g id="edge4" class="edge">
<title>Node4&#45;&gt;Node5</title>
<path fill="none" stroke="midnightblue" d="M301.26,-229.37C319.83,-208.93 363.99,-164.59 412,-147 538.29,-100.73 698.65,-108.92 787.2,-118.68"/>
<polygon fill="midnightblue" stroke="midnightblue" points="787.04,-122.19 797.38,-119.85 787.84,-115.23 787.04,-122.19"/>
</g>
<!-- Node4&#45;&gt;Node6 -->
<g id="edge5" class="edge">
<title>Node4&#45;&gt;Node6</title>
<path fill="none" stroke="midnightblue" d="M322.39,-250.56C346.54,-258.79 381.24,-270.24 412,-279 420.45,-281.41 429.44,-283.79 438.25,-286.03"/>
<polygon fill="midnightblue" stroke="midnightblue" points="437.53,-289.45 448.08,-288.48 439.23,-282.66 437.53,-289.45"/>
</g>
<!-- Node4&#45;&gt;Node7 -->
<g id="edge12" class="edge">
<title>Node4&#45;&gt;Node7</title>
<path fill="none" stroke="midnightblue" d="M361.04,-235.51C418.89,-232.76 503.57,-231.11 577,-239 590.86,-240.49 605.69,-243.2 619.31,-246.16"/>
<polygon fill="midnightblue" stroke="midnightblue" points="618.93,-249.67 629.45,-248.46 620.47,-242.84 618.93,-249.67"/>
</g>
<!-- Node10 -->
<g id="node10" class="node">
<title>Node10</title>
<g id="a_node10"><a xlink:href="namespacefiles__utilities.html#ac6066df405564ba2f5e3c4bba726c1f8" target="_top" xlink:title="Search for available new unit.">
<polygon fill="white" stroke="black" points="422,-248.5 422,-269.5 567,-269.5 567,-248.5 422,-248.5"/>
<text text-anchor="middle" x="494.5" y="-255.9" font-family="Ubuntu Mono" font-size="12.00">files_utilities::nextunit</text>
</a>
</g>
</g>
<!-- Node4&#45;&gt;Node10 -->
<g id="edge10" class="edge">
<title>Node4&#45;&gt;Node10</title>
<path fill="none" stroke="midnightblue" d="M361.06,-246.51C377.29,-248.04 394.74,-249.69 411.47,-251.27"/>
<polygon fill="midnightblue" stroke="midnightblue" points="411.5,-254.78 421.78,-252.24 412.16,-247.81 411.5,-254.78"/>
</g>
<!-- Node11 -->
<g id="node11" class="node">
<title>Node11</title>
<g id="a_node11"><a xlink:href="namespaceoutput__ops.html#aa9e4855511b6ea16a08b3efb587bec51" target="_top" xlink:title="Executes command line, or displays a message if disabled.">
<polygon fill="white" stroke="black" points="412,-157 412,-191 577,-191 577,-157 412,-157"/>
<text text-anchor="start" x="420" y="-177.4" font-family="Ubuntu Mono" font-size="12.00">output_ops::use_execute</text>
<text text-anchor="middle" x="494.5" y="-164.4" font-family="Ubuntu Mono" font-size="12.00">_command_line</text>
</a>
</g>
</g>
<!-- Node4&#45;&gt;Node11 -->
<g id="edge11" class="edge">
<title>Node4&#45;&gt;Node11</title>
<path fill="none" stroke="midnightblue" d="M324.37,-229.4C353.25,-219.94 396.33,-205.83 431.77,-194.22"/>
<polygon fill="midnightblue" stroke="midnightblue" points="433.14,-197.45 441.55,-191.02 430.96,-190.8 433.14,-197.45"/>
</g>
<!-- Node6&#45;&gt;Node7 -->
<g id="edge6" class="edge">
<title>Node6&#45;&gt;Node7</title>
<path fill="none" stroke="midnightblue" d="M541.09,-288.49C563.31,-283.37 590.23,-277.16 613.63,-271.77"/>
<polygon fill="midnightblue" stroke="midnightblue" points="614.46,-275.17 623.42,-269.51 612.89,-268.34 614.46,-275.17"/>
</g>
<!-- Node7&#45;&gt;Node5 -->
<g id="edge9" class="edge">
<title>Node7&#45;&gt;Node5</title>
<path fill="none" stroke="midnightblue" d="M685.93,-248.28C717.77,-225.42 792.51,-171.78 830.49,-144.52"/>
<polygon fill="midnightblue" stroke="midnightblue" points="832.79,-147.18 838.87,-138.5 828.7,-141.49 832.79,-147.18"/>
</g>
<!-- Node8 -->
<g id="node8" class="node">
<title>Node8</title>
<g id="a_node8"><a xlink:href="namespacemessages.html#a61fd0b51b5e37d58fdc993c01792a3fd" target="_top" xlink:title="Returns the time.">
<polygon fill="white" stroke="black" points="784.5,-228.5 784.5,-249.5 924.5,-249.5 924.5,-228.5 784.5,-228.5"/>
<text text-anchor="middle" x="854.5" y="-235.9" font-family="Ubuntu Mono" font-size="12.00">messages::get_clock</text>
</a>
</g>
</g>
<!-- Node7&#45;&gt;Node8 -->
<g id="edge7" class="edge">
<title>Node7&#45;&gt;Node8</title>
<path fill="none" stroke="midnightblue" d="M727.25,-252.84C742.02,-251.22 758.24,-249.44 773.99,-247.71"/>
<polygon fill="midnightblue" stroke="midnightblue" points="774.69,-251.16 784.25,-246.59 773.93,-244.2 774.69,-251.16"/>
</g>
<!-- Node9 -->
<g id="node9" class="node">
<title>Node9</title>
<g id="a_node9"><a xlink:href="namespacemessages.html#a82dddaab795b78b3d39e1ff1aab2f665" target="_top" xlink:title="Returns the memory usage in kilobytes.">
<polygon fill="white" stroke="black" points="763,-268.5 763,-289.5 946,-289.5 946,-268.5 763,-268.5"/>
<text text-anchor="middle" x="854.5" y="-275.9" font-family="Ubuntu Mono" font-size="12.00">messages::get_mem_usage</text>
</a>
</g>
</g>
<!-- Node7&#45;&gt;Node9 -->
<g id="edge8" class="edge">
<title>Node7&#45;&gt;Node9</title>
<path fill="none" stroke="midnightblue" d="M727.25,-265.16C735.46,-266.06 744.13,-267.01 752.91,-267.98"/>
<polygon fill="midnightblue" stroke="midnightblue" points="752.53,-271.46 762.86,-269.07 753.3,-264.5 752.53,-271.46"/>
</g>
</g>
</svg>
