<?xml version="1.0" encoding="UTF-8" standalone="no"?>
<!DOCTYPE svg PUBLIC "-//W3C//DTD SVG 1.1//EN"
 "http://www.w3.org/Graphics/SVG/1.1/DTD/svg11.dtd">
<!-- Generated by graphviz version 2.38.0 (20140413.2041)
 -->
<!-- Title: dealloc_eq_1_final Pages: 1 -->
<svg width="664pt" height="129pt"
 viewBox="0.00 0.00 664.00 129.00" xmlns="http://www.w3.org/2000/svg" xmlns:xlink="http://www.w3.org/1999/xlink">
<g id="graph0" class="graph" transform="scale(1 1) rotate(0) translate(4 125)">
<title>dealloc_eq_1_final</title>
<polygon fill="white" stroke="none" points="-4,4 -4,-125 660,-125 660,4 -4,4"/>
<!-- Node0 -->
<g id="node1" class="node"><title>Node0</title>
<polygon fill="#bfbfbf" stroke="black" points="0,-60.5 0,-81.5 125,-81.5 125,-60.5 0,-60.5"/>
<text text-anchor="middle" x="62.5" y="-67.9" font-family="Ubuntu Mono" font-size="12.00">dealloc_eq_1_final</text>
</g>
<!-- Node1 -->
<g id="node2" class="node"><title>Node1</title>
<g id="a_node2"><a xlink:href="namespacemessages.html#a82dddaab795b78b3d39e1ff1aab2f665" target="_top" xlink:title="messages::get_mem_usage">
<polygon fill="white" stroke="black" points="334,-99.5 334,-120.5 489,-120.5 489,-99.5 334,-99.5"/>
<text text-anchor="middle" x="411.5" y="-106.9" font-family="Ubuntu Mono" font-size="12.00">messages::get_mem_usage</text>
</a>
</g>
</g>
<!-- Node0&#45;&gt;Node1 -->
<g id="edge1" class="edge"><title>Node0&#45;&gt;Node1</title>
<path fill="none" stroke="midnightblue" d="M82.9562,-81.6392C102.146,-91.482 132.638,-105.408 161,-111 214.364,-121.521 275.406,-121.48 323.754,-118.708"/>
<polygon fill="midnightblue" stroke="midnightblue" points="324.108,-122.193 333.871,-118.077 323.673,-115.206 324.108,-122.193"/>
</g>
<!-- Node2 -->
<g id="node3" class="node"><title>Node2</title>
<g id="a_node3"><a xlink:href="eq__vars_8f90.html#a0485e4116f0b0004f9a06ed86ac624aa" target="_top" xlink:title="dealloc_eq_2_final">
<polygon fill="white" stroke="black" points="167,-80.5 167,-101.5 292,-101.5 292,-80.5 167,-80.5"/>
<text text-anchor="middle" x="229.5" y="-87.9" font-family="Ubuntu Mono" font-size="12.00">dealloc_eq_2_final</text>
</a>
</g>
</g>
<!-- Node0&#45;&gt;Node2 -->
<g id="edge2" class="edge"><title>Node0&#45;&gt;Node2</title>
<path fill="none" stroke="midnightblue" d="M125.409,-78.5042C135.665,-79.7473 146.375,-81.0455 156.847,-82.3148"/>
<polygon fill="midnightblue" stroke="midnightblue" points="156.444,-85.7915 166.792,-83.5203 157.286,-78.8423 156.444,-85.7915"/>
</g>
<!-- Node3 -->
<g id="node4" class="node"><title>Node3</title>
<g id="a_node4"><a xlink:href="namespacemessages.html#aa4a8d01563e92558e8a0875b075ec54c" target="_top" xlink:title="messages::writo">
<polygon fill="white" stroke="black" points="176,-40.5 176,-61.5 283,-61.5 283,-40.5 176,-40.5"/>
<text text-anchor="middle" x="229.5" y="-47.9" font-family="Ubuntu Mono" font-size="12.00">messages::writo</text>
</a>
</g>
</g>
<!-- Node0&#45;&gt;Node3 -->
<g id="edge3" class="edge"><title>Node0&#45;&gt;Node3</title>
<path fill="none" stroke="midnightblue" d="M125.409,-63.4958C138.672,-61.8883 152.692,-60.1888 165.978,-58.5785"/>
<polygon fill="midnightblue" stroke="midnightblue" points="166.463,-62.0454 175.969,-57.3674 165.62,-55.0963 166.463,-62.0454"/>
</g>
<!-- Node6 -->
<g id="node7" class="node"><title>Node6</title>
<g id="a_node7"><a xlink:href="namespacestr__utilities.html#a0b97e51770725a3e98ed393d26681414" target="_top" xlink:title="str_utilities::i2str">
<polygon fill="white" stroke="black" points="161,-0.5 161,-21.5 298,-21.5 298,-0.5 161,-0.5"/>
<text text-anchor="middle" x="229.5" y="-7.9" font-family="Ubuntu Mono" font-size="12.00">str_utilities::i2str</text>
</a>
</g>
</g>
<!-- Node0&#45;&gt;Node6 -->
<g id="edge7" class="edge"><title>Node0&#45;&gt;Node6</title>
<path fill="none" stroke="midnightblue" d="M87.2804,-60.453C106.863,-51.9601 135.46,-39.9967 161,-31 167.351,-28.7627 174.095,-26.5621 180.768,-24.486"/>
<polygon fill="midnightblue" stroke="midnightblue" points="181.892,-27.8025 190.441,-21.5436 179.855,-21.1055 181.892,-27.8025"/>
</g>
<!-- Node3&#45;&gt;Node1 -->
<g id="edge4" class="edge"><title>Node3&#45;&gt;Node1</title>
<path fill="none" stroke="midnightblue" d="M267.378,-61.5957C277.345,-64.5496 288.109,-67.8221 298,-71 322.576,-78.8963 349.945,-88.3688 371.534,-96.0009"/>
<polygon fill="midnightblue" stroke="midnightblue" points="370.421,-99.3198 381.015,-99.3658 372.762,-92.7229 370.421,-99.3198"/>
</g>
<!-- Node4 -->
<g id="node5" class="node"><title>Node4</title>
<g id="a_node5"><a xlink:href="messages_8f90.html#a6d15f28783f95a7a4b2a44185619792f" target="_top" xlink:title="format_str">
<polygon fill="white" stroke="black" points="373,-40.5 373,-61.5 450,-61.5 450,-40.5 373,-40.5"/>
<text text-anchor="middle" x="411.5" y="-47.9" font-family="Ubuntu Mono" font-size="12.00">format_str</text>
</a>
</g>
</g>
<!-- Node3&#45;&gt;Node4 -->
<g id="edge5" class="edge"><title>Node3&#45;&gt;Node4</title>
<path fill="none" stroke="midnightblue" d="M283.047,-51C308.198,-51 338.099,-51 362.615,-51"/>
<polygon fill="midnightblue" stroke="midnightblue" points="362.764,-54.5001 372.764,-51 362.763,-47.5001 362.764,-54.5001"/>
</g>
<!-- Node5 -->
<g id="node6" class="node"><title>Node5</title>
<g id="a_node6"><a xlink:href="namespacemessages.html#a61fd0b51b5e37d58fdc993c01792a3fd" target="_top" xlink:title="messages::get_clock">
<polygon fill="white" stroke="black" points="525,-40.5 525,-61.5 656,-61.5 656,-40.5 525,-40.5"/>
<text text-anchor="middle" x="590.5" y="-47.9" font-family="Ubuntu Mono" font-size="12.00">messages::get_clock</text>
</a>
</g>
</g>
<!-- Node4&#45;&gt;Node5 -->
<g id="edge6" class="edge"><title>Node4&#45;&gt;Node5</title>
<path fill="none" stroke="midnightblue" d="M450.037,-51C468.869,-51 492.372,-51 514.685,-51"/>
<polygon fill="midnightblue" stroke="midnightblue" points="514.832,-54.5001 524.832,-51 514.832,-47.5001 514.832,-54.5001"/>
</g>
</g>
</svg>
