<?xml version="1.0" encoding="UTF-8" standalone="no"?>
<!DOCTYPE svg PUBLIC "-//W3C//DTD SVG 1.1//EN"
 "http://www.w3.org/Graphics/SVG/1.1/DTD/svg11.dtd">
<!-- Generated by graphviz version 2.38.0 (20140413.2041)
 -->
<!-- Title: calc_normalization_const_hel Pages: 1 -->
<svg width="664pt" height="90pt"
 viewBox="0.00 0.00 664.00 90.00" xmlns="http://www.w3.org/2000/svg" xmlns:xlink="http://www.w3.org/1999/xlink">
<g id="graph0" class="graph" transform="scale(1 1) rotate(0) translate(4 86)">
<title>calc_normalization_const_hel</title>
<polygon fill="white" stroke="none" points="-4,4 -4,-86 660,-86 660,4 -4,4"/>
<!-- Node4 -->
<g id="node1" class="node"><title>Node4</title>
<polygon fill="#bfbfbf" stroke="black" points="0,-14 0,-48 125,-48 125,-14 0,-14"/>
<text text-anchor="start" x="8" y="-34.4" font-family="Ubuntu Mono" font-size="12.00">calc_normalization</text>
<text text-anchor="middle" x="62.5" y="-21.4" font-family="Ubuntu Mono" font-size="12.00">_const_hel</text>
</g>
<!-- Node5 -->
<g id="node2" class="node"><title>Node5</title>
<g id="a_node2"><a xlink:href="namespacemessages.html#aa4a8d01563e92558e8a0875b075ec54c" target="_top" xlink:title="messages::writo">
<polygon fill="white" stroke="black" points="176,-40.5 176,-61.5 283,-61.5 283,-40.5 176,-40.5"/>
<text text-anchor="middle" x="229.5" y="-47.9" font-family="Ubuntu Mono" font-size="12.00">messages::writo</text>
</a>
</g>
</g>
<!-- Node4&#45;&gt;Node5 -->
<g id="edge1" class="edge"><title>Node4&#45;&gt;Node5</title>
<path fill="none" stroke="midnightblue" d="M125.409,-38.5042C138.672,-40.1117 152.692,-41.8112 165.978,-43.4215"/>
<polygon fill="midnightblue" stroke="midnightblue" points="165.62,-46.9037 175.969,-44.6326 166.463,-39.9546 165.62,-46.9037"/>
</g>
<!-- Node9 -->
<g id="node6" class="node"><title>Node9</title>
<g id="a_node6"><a xlink:href="namespacestr__utilities.html#a92ac6c0af1979df094de1caddd28ade0" target="_top" xlink:title="str_utilities::r2str">
<polygon fill="white" stroke="black" points="161,-0.5 161,-21.5 298,-21.5 298,-0.5 161,-0.5"/>
<text text-anchor="middle" x="229.5" y="-7.9" font-family="Ubuntu Mono" font-size="12.00">str_utilities::r2str</text>
</a>
</g>
</g>
<!-- Node4&#45;&gt;Node9 -->
<g id="edge5" class="edge"><title>Node4&#45;&gt;Node9</title>
<path fill="none" stroke="midnightblue" d="M125.409,-23.4958C133.756,-22.4841 142.404,-21.4359 150.98,-20.3964"/>
<polygon fill="midnightblue" stroke="midnightblue" points="151.485,-23.8609 160.991,-19.1829 150.643,-16.9117 151.485,-23.8609"/>
</g>
<!-- Node6 -->
<g id="node3" class="node"><title>Node6</title>
<g id="a_node3"><a xlink:href="namespacemessages.html#a82dddaab795b78b3d39e1ff1aab2f665" target="_top" xlink:title="messages::get_mem_usage">
<polygon fill="white" stroke="black" points="334,-60.5 334,-81.5 489,-81.5 489,-60.5 334,-60.5"/>
<text text-anchor="middle" x="411.5" y="-67.9" font-family="Ubuntu Mono" font-size="12.00">messages::get_mem_usage</text>
</a>
</g>
</g>
<!-- Node5&#45;&gt;Node6 -->
<g id="edge2" class="edge"><title>Node5&#45;&gt;Node6</title>
<path fill="none" stroke="midnightblue" d="M283.047,-56.8386C295.823,-58.2581 309.824,-59.8138 323.723,-61.3581"/>
<polygon fill="midnightblue" stroke="midnightblue" points="323.481,-64.8526 333.806,-62.4784 324.254,-57.8954 323.481,-64.8526"/>
</g>
<!-- Node7 -->
<g id="node4" class="node"><title>Node7</title>
<g id="a_node4"><a xlink:href="messages_8f90.html#a6d15f28783f95a7a4b2a44185619792f" target="_top" xlink:title="format_str">
<polygon fill="white" stroke="black" points="373,-20.5 373,-41.5 450,-41.5 450,-20.5 373,-20.5"/>
<text text-anchor="middle" x="411.5" y="-27.9" font-family="Ubuntu Mono" font-size="12.00">format_str</text>
</a>
</g>
</g>
<!-- Node5&#45;&gt;Node7 -->
<g id="edge3" class="edge"><title>Node5&#45;&gt;Node7</title>
<path fill="none" stroke="midnightblue" d="M283.047,-45.1614C308.198,-42.3669 338.099,-39.0446 362.615,-36.3205"/>
<polygon fill="midnightblue" stroke="midnightblue" points="363.211,-39.7759 372.764,-35.1929 362.438,-32.8188 363.211,-39.7759"/>
</g>
<!-- Node8 -->
<g id="node5" class="node"><title>Node8</title>
<g id="a_node5"><a xlink:href="namespacemessages.html#a61fd0b51b5e37d58fdc993c01792a3fd" target="_top" xlink:title="messages::get_clock">
<polygon fill="white" stroke="black" points="525,-20.5 525,-41.5 656,-41.5 656,-20.5 525,-20.5"/>
<text text-anchor="middle" x="590.5" y="-27.9" font-family="Ubuntu Mono" font-size="12.00">messages::get_clock</text>
</a>
</g>
</g>
<!-- Node7&#45;&gt;Node8 -->
<g id="edge4" class="edge"><title>Node7&#45;&gt;Node8</title>
<path fill="none" stroke="midnightblue" d="M450.037,-31C468.869,-31 492.372,-31 514.685,-31"/>
<polygon fill="midnightblue" stroke="midnightblue" points="514.832,-34.5001 524.832,-31 514.832,-27.5001 514.832,-34.5001"/>
</g>
</g>
</svg>
