<?xml version="1.0" encoding="UTF-8" standalone="no"?>
<!DOCTYPE svg PUBLIC "-//W3C//DTD SVG 1.1//EN"
 "http://www.w3.org/Graphics/SVG/1.1/DTD/svg11.dtd">
<!-- Generated by graphviz version 2.38.0 (20140413.2041)
 -->
<!-- Title: read_opts Pages: 1 -->
<svg width="753pt" height="130pt"
 viewBox="0.00 0.00 753.00 130.00" xmlns="http://www.w3.org/2000/svg" xmlns:xlink="http://www.w3.org/1999/xlink">
<g id="graph0" class="graph" transform="scale(1 1) rotate(0) translate(4 126)">
<title>read_opts</title>
<polygon fill="white" stroke="none" points="-4,4 -4,-126 749,-126 749,4 -4,4"/>
<!-- Node10 -->
<g id="node1" class="node"><title>Node10</title>
<polygon fill="#bfbfbf" stroke="black" points="0,-60.5 0,-81.5 71,-81.5 71,-60.5 0,-60.5"/>
<text text-anchor="middle" x="35.5" y="-67.9" font-family="Ubuntu Mono" font-size="12.00">read_opts</text>
</g>
<!-- Node11 -->
<g id="node2" class="node"><title>Node11</title>
<g id="a_node2"><a xlink:href="namespacemessages.html#aa4a8d01563e92558e8a0875b075ec54c" target="_top" xlink:title="messages::writo">
<polygon fill="white" stroke="black" points="280,-80.5 280,-101.5 387,-101.5 387,-80.5 280,-80.5"/>
<text text-anchor="middle" x="333.5" y="-87.9" font-family="Ubuntu Mono" font-size="12.00">messages::writo</text>
</a>
</g>
</g>
<!-- Node10&#45;&gt;Node11 -->
<g id="edge1" class="edge"><title>Node10&#45;&gt;Node11</title>
<path fill="none" stroke="midnightblue" d="M50.1329,-81.603C63.6855,-91.4191 85.5017,-105.326 107,-111 167.944,-127.085 241.026,-115.168 287.122,-104.021"/>
<polygon fill="midnightblue" stroke="midnightblue" points="288.253,-107.346 297.101,-101.517 286.55,-100.556 288.253,-107.346"/>
</g>
<!-- Node15 -->
<g id="node6" class="node"><title>Node15</title>
<g id="a_node6"><a xlink:href="namespacemessages.html#a6e6bfb084063e4cc91ee86e542043302" target="_top" xlink:title="messages::lvl_ud">
<polygon fill="white" stroke="black" points="119,-80.5 119,-101.5 232,-101.5 232,-80.5 119,-80.5"/>
<text text-anchor="middle" x="175.5" y="-87.9" font-family="Ubuntu Mono" font-size="12.00">messages::lvl_ud</text>
</a>
</g>
</g>
<!-- Node10&#45;&gt;Node15 -->
<g id="edge5" class="edge"><title>Node10&#45;&gt;Node15</title>
<path fill="none" stroke="midnightblue" d="M71.3232,-76.0468C82.6639,-77.6904 95.6525,-79.5728 108.502,-81.4351"/>
<polygon fill="midnightblue" stroke="midnightblue" points="108.344,-84.9487 118.743,-82.9193 109.348,-78.0211 108.344,-84.9487"/>
</g>
<!-- Node16 -->
<g id="node7" class="node"><title>Node16</title>
<g id="a_node7"><a xlink:href="namespacestr__utilities.html#a0b97e51770725a3e98ed393d26681414" target="_top" xlink:title="str_utilities::i2str">
<polygon fill="white" stroke="black" points="107,-40.5 107,-61.5 244,-61.5 244,-40.5 107,-40.5"/>
<text text-anchor="middle" x="175.5" y="-47.9" font-family="Ubuntu Mono" font-size="12.00">str_utilities::i2str</text>
</a>
</g>
</g>
<!-- Node10&#45;&gt;Node16 -->
<g id="edge7" class="edge"><title>Node10&#45;&gt;Node16</title>
<path fill="none" stroke="midnightblue" d="M71.3232,-65.9532C79.2131,-64.8097 87.9005,-63.5507 96.7838,-62.2632"/>
<polygon fill="midnightblue" stroke="midnightblue" points="97.4698,-65.7004 106.864,-60.8023 96.4658,-58.7728 97.4698,-65.7004"/>
</g>
<!-- Node17 -->
<g id="node8" class="node"><title>Node17</title>
<g id="a_node8"><a xlink:href="files__ops_8f90.html#a0aab73e3be6acf8b28310674ffabb246" target="_top" xlink:title="apply_opt_pb3d">
<polygon fill="white" stroke="black" points="125,-0.5 125,-21.5 226,-21.5 226,-0.5 125,-0.5"/>
<text text-anchor="middle" x="175.5" y="-7.9" font-family="Ubuntu Mono" font-size="12.00">apply_opt_pb3d</text>
</a>
</g>
</g>
<!-- Node10&#45;&gt;Node17 -->
<g id="edge8" class="edge"><title>Node10&#45;&gt;Node17</title>
<path fill="none" stroke="midnightblue" d="M52.7603,-60.3541C66.7092,-51.5735 87.5747,-39.2603 107,-31 112.332,-28.7326 118.004,-26.6191 123.707,-24.6803"/>
<polygon fill="midnightblue" stroke="midnightblue" points="124.841,-27.9921 133.28,-21.586 122.688,-21.3314 124.841,-27.9921"/>
</g>
<!-- Node12 -->
<g id="node3" class="node"><title>Node12</title>
<g id="a_node3"><a xlink:href="namespacemessages.html#a82dddaab795b78b3d39e1ff1aab2f665" target="_top" xlink:title="messages::get_mem_usage">
<polygon fill="white" stroke="black" points="423,-100.5 423,-121.5 578,-121.5 578,-100.5 423,-100.5"/>
<text text-anchor="middle" x="500.5" y="-107.9" font-family="Ubuntu Mono" font-size="12.00">messages::get_mem_usage</text>
</a>
</g>
</g>
<!-- Node11&#45;&gt;Node12 -->
<g id="edge2" class="edge"><title>Node11&#45;&gt;Node12</title>
<path fill="none" stroke="midnightblue" d="M387.161,-97.3831C395.452,-98.3881 404.208,-99.4495 413.025,-100.518"/>
<polygon fill="midnightblue" stroke="midnightblue" points="412.635,-103.996 422.984,-101.725 413.478,-97.0474 412.635,-103.996"/>
</g>
<!-- Node13 -->
<g id="node4" class="node"><title>Node13</title>
<g id="a_node4"><a xlink:href="messages_8f90.html#a6d15f28783f95a7a4b2a44185619792f" target="_top" xlink:title="format_str">
<polygon fill="white" stroke="black" points="462,-60.5 462,-81.5 539,-81.5 539,-60.5 462,-60.5"/>
<text text-anchor="middle" x="500.5" y="-67.9" font-family="Ubuntu Mono" font-size="12.00">format_str</text>
</a>
</g>
</g>
<!-- Node11&#45;&gt;Node13 -->
<g id="edge3" class="edge"><title>Node11&#45;&gt;Node13</title>
<path fill="none" stroke="midnightblue" d="M387.161,-84.6169C407.977,-82.0937 431.722,-79.2155 452.002,-76.7573"/>
<polygon fill="midnightblue" stroke="midnightblue" points="452.448,-80.229 461.954,-75.551 451.606,-73.2798 452.448,-80.229"/>
</g>
<!-- Node14 -->
<g id="node5" class="node"><title>Node14</title>
<g id="a_node5"><a xlink:href="namespacemessages.html#a61fd0b51b5e37d58fdc993c01792a3fd" target="_top" xlink:title="messages::get_clock">
<polygon fill="white" stroke="black" points="614,-60.5 614,-81.5 745,-81.5 745,-60.5 614,-60.5"/>
<text text-anchor="middle" x="679.5" y="-67.9" font-family="Ubuntu Mono" font-size="12.00">messages::get_clock</text>
</a>
</g>
</g>
<!-- Node13&#45;&gt;Node14 -->
<g id="edge4" class="edge"><title>Node13&#45;&gt;Node14</title>
<path fill="none" stroke="midnightblue" d="M539.037,-71C557.869,-71 581.372,-71 603.685,-71"/>
<polygon fill="midnightblue" stroke="midnightblue" points="603.832,-74.5001 613.832,-71 603.832,-67.5001 603.832,-74.5001"/>
</g>
<!-- Node15&#45;&gt;Node11 -->
<g id="edge6" class="edge"><title>Node15&#45;&gt;Node11</title>
<path fill="none" stroke="midnightblue" d="M232.379,-91C244.468,-91 257.331,-91 269.667,-91"/>
<polygon fill="midnightblue" stroke="midnightblue" points="269.877,-94.5001 279.877,-91 269.877,-87.5001 269.877,-94.5001"/>
</g>
<!-- Node17&#45;&gt;Node11 -->
<g id="edge9" class="edge"><title>Node17&#45;&gt;Node11</title>
<path fill="none" stroke="midnightblue" d="M219.372,-21.537C227.715,-24.1876 236.266,-27.341 244,-31 268.72,-42.6956 294.297,-60.8002 311.558,-74.0642"/>
<polygon fill="midnightblue" stroke="midnightblue" points="309.746,-77.091 319.778,-80.4997 314.062,-71.5792 309.746,-77.091"/>
</g>
</g>
</svg>
