<?xml version="1.0" encoding="UTF-8" standalone="no"?>
<!DOCTYPE svg PUBLIC "-//W3C//DTD SVG 1.1//EN"
 "http://www.w3.org/Graphics/SVG/1.1/DTD/svg11.dtd">
<!-- Generated by graphviz version 2.38.0 (20140413.2041)
 -->
<!-- Title: calc_xyz_grid_hel Pages: 1 -->
<svg width="479pt" height="43pt"
 viewBox="0.00 0.00 479.00 43.00" xmlns="http://www.w3.org/2000/svg" xmlns:xlink="http://www.w3.org/1999/xlink">
<g id="graph0" class="graph" transform="scale(1 1) rotate(0) translate(4 39)">
<title>calc_xyz_grid_hel</title>
<polygon fill="white" stroke="none" points="-4,4 -4,-39 475,-39 475,4 -4,4"/>
<!-- Node0 -->
<g id="node1" class="node"><title>Node0</title>
<polygon fill="#bfbfbf" stroke="black" points="0,-7 0,-28 119,-28 119,-7 0,-7"/>
<text text-anchor="middle" x="59.5" y="-14.4" font-family="Ubuntu Mono" font-size="12.00">calc_xyz_grid_hel</text>
</g>
<!-- Node1 -->
<g id="node2" class="node"><title>Node1</title>
<g id="a_node2"><a xlink:href="namespacegrid__utilities.html#a43206328f85253a6cc821cd46a498bb6" target="_top" xlink:title="grid_utilities::setup\l_interp_data">
<polygon fill="white" stroke="black" points="155,-0.5 155,-34.5 298,-34.5 298,-0.5 155,-0.5"/>
<text text-anchor="start" x="163" y="-20.9" font-family="Ubuntu Mono" font-size="12.00">grid_utilities::setup</text>
<text text-anchor="middle" x="226.5" y="-7.9" font-family="Ubuntu Mono" font-size="12.00">_interp_data</text>
</a>
</g>
</g>
<!-- Node0&#45;&gt;Node1 -->
<g id="edge1" class="edge"><title>Node0&#45;&gt;Node1</title>
<path fill="none" stroke="midnightblue" d="M119.137,-17.5C127.459,-17.5 136.136,-17.5 144.786,-17.5"/>
<polygon fill="midnightblue" stroke="midnightblue" points="144.906,-21.0001 154.906,-17.5 144.906,-14.0001 144.906,-21.0001"/>
</g>
<!-- Node2 -->
<g id="node3" class="node"><title>Node2</title>
<g id="a_node3"><a xlink:href="namespacestr__utilities.html#a0b97e51770725a3e98ed393d26681414" target="_top" xlink:title="str_utilities::i2str">
<polygon fill="white" stroke="black" points="334,-7 334,-28 471,-28 471,-7 334,-7"/>
<text text-anchor="middle" x="402.5" y="-14.4" font-family="Ubuntu Mono" font-size="12.00">str_utilities::i2str</text>
</a>
</g>
</g>
<!-- Node1&#45;&gt;Node2 -->
<g id="edge2" class="edge"><title>Node1&#45;&gt;Node2</title>
<path fill="none" stroke="midnightblue" d="M298.022,-17.5C306.553,-17.5 315.304,-17.5 323.929,-17.5"/>
<polygon fill="midnightblue" stroke="midnightblue" points="323.977,-21.0001 333.977,-17.5 323.977,-14.0001 323.977,-21.0001"/>
</g>
</g>
</svg>
