<?xml version="1.0" encoding="UTF-8" standalone="no"?>
<!DOCTYPE svg PUBLIC "-//W3C//DTD SVG 1.1//EN"
 "http://www.w3.org/Graphics/SVG/1.1/DTD/svg11.dtd">
<!-- Generated by graphviz version 2.38.0 (20140413.2041)
 -->
<!-- Title: calc_norm_range_pb3d_x Pages: 1 -->
<svg width="1040pt" height="348pt"
 viewBox="0.00 0.00 1040.00 348.01" xmlns="http://www.w3.org/2000/svg" xmlns:xlink="http://www.w3.org/1999/xlink">
<g id="graph0" class="graph" transform="scale(1 1) rotate(0) translate(4 344.015)">
<title>calc_norm_range_pb3d_x</title>
<polygon fill="white" stroke="none" points="-4,4 -4,-344.015 1036,-344.015 1036,4 -4,4"/>
<!-- Node34 -->
<g id="node1" class="node"><title>Node34</title>
<polygon fill="#bfbfbf" stroke="black" points="0,-205.5 0,-226.5 149,-226.5 149,-205.5 0,-205.5"/>
<text text-anchor="middle" x="74.5" y="-212.9" font-family="Ubuntu Mono" font-size="12.00">calc_norm_range_pb3d_x</text>
</g>
<!-- Node35 -->
<g id="node2" class="node"><title>Node35</title>
<g id="a_node2"><a xlink:href="namespacemessages.html#aa4a8d01563e92558e8a0875b075ec54c" target="_top" xlink:title="Write output to file identified by output_i. ">
<polygon fill="white" stroke="black" points="734,-216.5 734,-237.5 841,-237.5 841,-216.5 734,-216.5"/>
<text text-anchor="middle" x="787.5" y="-223.9" font-family="Ubuntu Mono" font-size="12.00">messages::writo</text>
</a>
</g>
</g>
<!-- Node34&#45;&gt;Node35 -->
<g id="edge1" class="edge"><title>Node34&#45;&gt;Node35</title>
<path fill="none" stroke="midnightblue" d="M86.1801,-226.641C104.568,-244.233 144.18,-279.021 185,-295 335.974,-354.098 389.232,-346.569 549,-319 628.198,-305.334 714.654,-264.699 758.141,-242.278"/>
<polygon fill="midnightblue" stroke="midnightblue" points="760.004,-245.254 767.249,-237.523 756.765,-239.049 760.004,-245.254"/>
</g>
<!-- Node38 -->
<g id="node5" class="node"><title>Node38</title>
<g id="a_node5"><a xlink:href="grid__ops_8f90.html#a9121423739548f1a1fa4e87055f49010" target="_top" xlink:title="PB3D solution version. ">
<polygon fill="white" stroke="black" points="185,-264.5 185,-285.5 346,-285.5 346,-264.5 185,-264.5"/>
<text text-anchor="middle" x="265.5" y="-271.9" font-family="Ubuntu Mono" font-size="12.00">calc_norm_range_pb3d_sol</text>
</a>
</g>
</g>
<!-- Node34&#45;&gt;Node38 -->
<g id="edge4" class="edge"><title>Node34&#45;&gt;Node38</title>
<path fill="none" stroke="midnightblue" d="M109.289,-226.548C140.504,-236.292 187.043,-250.82 221.018,-261.426"/>
<polygon fill="midnightblue" stroke="midnightblue" points="220.096,-264.805 230.685,-264.444 222.182,-258.123 220.096,-264.805"/>
</g>
<!-- Node39 -->
<g id="node6" class="node"><title>Node39</title>
<g id="a_node6"><a xlink:href="namespaceoutput__ops.html#a50bfbb88cc91805469353c3ff47b3e2e" target="_top" xlink:title="Use external program to draw a plot. ">
<polygon fill="white" stroke="black" points="200,-186.5 200,-207.5 331,-207.5 331,-186.5 200,-186.5"/>
<text text-anchor="middle" x="265.5" y="-193.9" font-family="Ubuntu Mono" font-size="12.00">output_ops::draw_ex</text>
</a>
</g>
</g>
<!-- Node34&#45;&gt;Node39 -->
<g id="edge5" class="edge"><title>Node34&#45;&gt;Node39</title>
<path fill="none" stroke="midnightblue" d="M149.114,-208.6C162.494,-207.255 176.462,-205.85 189.872,-204.502"/>
<polygon fill="midnightblue" stroke="midnightblue" points="190.398,-207.967 199.998,-203.484 189.698,-201.002 190.398,-207.967"/>
</g>
<!-- Node40 -->
<g id="node7" class="node"><title>Node40</title>
<g id="a_node7"><a xlink:href="namespacestr__utilities.html#a0b97e51770725a3e98ed393d26681414" target="_top" xlink:title="Convert an integer to string. ">
<polygon fill="white" stroke="black" points="397,-288.5 397,-309.5 534,-309.5 534,-288.5 397,-288.5"/>
<text text-anchor="middle" x="465.5" y="-295.9" font-family="Ubuntu Mono" font-size="12.00">str_utilities::i2str</text>
</a>
</g>
</g>
<!-- Node34&#45;&gt;Node40 -->
<g id="edge17" class="edge"><title>Node34&#45;&gt;Node40</title>
<path fill="none" stroke="midnightblue" d="M149.079,-219.8C204.366,-224.273 281.363,-233.981 346,-255 363.205,-260.595 365.266,-267.123 382,-274 392.28,-278.225 403.539,-282.103 414.343,-285.479"/>
<polygon fill="midnightblue" stroke="midnightblue" points="413.512,-288.884 424.097,-288.434 415.541,-282.184 413.512,-288.884"/>
</g>
<!-- Node43 -->
<g id="node10" class="node"><title>Node43</title>
<g id="a_node10"><a xlink:href="namespacemessages.html#a6e6bfb084063e4cc91ee86e542043302" target="_top" xlink:title="Increases/decreases lvl of output. ">
<polygon fill="white" stroke="black" points="585,-142.5 585,-163.5 698,-163.5 698,-142.5 585,-142.5"/>
<text text-anchor="middle" x="641.5" y="-149.9" font-family="Ubuntu Mono" font-size="12.00">messages::lvl_ud</text>
</a>
</g>
</g>
<!-- Node34&#45;&gt;Node43 -->
<g id="edge16" class="edge"><title>Node34&#45;&gt;Node43</title>
<path fill="none" stroke="midnightblue" d="M91.1612,-205.305C134.776,-176.25 262.304,-96.2193 382,-69 454.374,-52.5418 479.837,-42.0671 549,-69 582.583,-82.0776 611.314,-113.88 627.216,-134.386"/>
<polygon fill="midnightblue" stroke="midnightblue" points="624.422,-136.494 633.222,-142.395 630.022,-132.294 624.422,-136.494"/>
</g>
<!-- Node45 -->
<g id="node12" class="node"><title>Node45</title>
<g id="a_node12"><a xlink:href="namespacestr__utilities.html#ac778d706b2e021672618939ab58fdd32" target="_top" xlink:title="Convert a real (double) to string. ">
<polygon fill="white" stroke="black" points="194,-0.5 194,-21.5 337,-21.5 337,-0.5 194,-0.5"/>
<text text-anchor="middle" x="265.5" y="-7.9" font-family="Ubuntu Mono" font-size="12.00">str_utilities::r2strt</text>
</a>
</g>
</g>
<!-- Node34&#45;&gt;Node45 -->
<g id="edge15" class="edge"><title>Node34&#45;&gt;Node45</title>
<path fill="none" stroke="midnightblue" d="M78.9785,-205.241C89.5842,-174.147 124.529,-83.367 185,-36 190.357,-31.8039 196.429,-28.3058 202.772,-25.3909"/>
<polygon fill="midnightblue" stroke="midnightblue" points="204.282,-28.5546 212.208,-21.524 201.628,-22.0773 204.282,-28.5546"/>
</g>
<!-- Node36 -->
<g id="node3" class="node"><title>Node36</title>
<g id="a_node3"><a xlink:href="namespacemessages.html#a82dddaab795b78b3d39e1ff1aab2f665" target="_top" xlink:title="Returns the memory usage in kilobytes. ">
<polygon fill="white" stroke="black" points="877,-236.5 877,-257.5 1032,-257.5 1032,-236.5 877,-236.5"/>
<text text-anchor="middle" x="954.5" y="-243.9" font-family="Ubuntu Mono" font-size="12.00">messages::get_mem_usage</text>
</a>
</g>
</g>
<!-- Node35&#45;&gt;Node36 -->
<g id="edge2" class="edge"><title>Node35&#45;&gt;Node36</title>
<path fill="none" stroke="midnightblue" d="M841.161,-233.383C849.452,-234.388 858.208,-235.449 867.025,-236.518"/>
<polygon fill="midnightblue" stroke="midnightblue" points="866.635,-239.996 876.984,-237.725 867.478,-233.047 866.635,-239.996"/>
</g>
<!-- Node37 -->
<g id="node4" class="node"><title>Node37</title>
<g id="a_node4"><a xlink:href="namespacemessages.html#a61fd0b51b5e37d58fdc993c01792a3fd" target="_top" xlink:title="Returns the time. ">
<polygon fill="white" stroke="black" points="889,-196.5 889,-217.5 1020,-217.5 1020,-196.5 889,-196.5"/>
<text text-anchor="middle" x="954.5" y="-203.9" font-family="Ubuntu Mono" font-size="12.00">messages::get_clock</text>
</a>
</g>
</g>
<!-- Node35&#45;&gt;Node37 -->
<g id="edge3" class="edge"><title>Node35&#45;&gt;Node37</title>
<path fill="none" stroke="midnightblue" d="M841.161,-220.617C853.142,-219.165 866.094,-217.595 878.797,-216.055"/>
<polygon fill="midnightblue" stroke="midnightblue" points="879.402,-219.507 888.908,-214.829 878.56,-212.558 879.402,-219.507"/>
</g>
<!-- Node39&#45;&gt;Node35 -->
<g id="edge7" class="edge"><title>Node39&#45;&gt;Node35</title>
<path fill="none" stroke="midnightblue" d="M310.087,-207.518C321.944,-210.94 334.642,-215.133 346,-220 363.026,-227.296 364.119,-236.166 382,-241 501.936,-273.425 649.156,-254.381 728.759,-239.498"/>
<polygon fill="midnightblue" stroke="midnightblue" points="729.901,-242.843 739.064,-237.523 728.584,-235.968 729.901,-242.843"/>
</g>
<!-- Node39&#45;&gt;Node40 -->
<g id="edge6" class="edge"><title>Node39&#45;&gt;Node40</title>
<path fill="none" stroke="midnightblue" d="M317.674,-207.604C327.655,-211.14 337.613,-215.821 346,-222 368.63,-238.673 359.283,-257.445 382,-274 387.821,-278.242 394.369,-281.772 401.165,-284.709"/>
<polygon fill="midnightblue" stroke="midnightblue" points="399.952,-287.993 410.54,-288.356 402.49,-281.469 399.952,-287.993"/>
</g>
<!-- Node41 -->
<g id="node8" class="node"><title>Node41</title>
<g id="a_node8"><a xlink:href="namespacefiles__utilities.html#ac6066df405564ba2f5e3c4bba726c1f8" target="_top" xlink:title="Search for available new unit. ">
<polygon fill="white" stroke="black" points="382,-210.5 382,-231.5 549,-231.5 549,-210.5 382,-210.5"/>
<text text-anchor="middle" x="465.5" y="-217.9" font-family="Ubuntu Mono" font-size="12.00">files_utilities::nextunit</text>
</a>
</g>
</g>
<!-- Node39&#45;&gt;Node41 -->
<g id="edge8" class="edge"><title>Node39&#45;&gt;Node41</title>
<path fill="none" stroke="midnightblue" d="M331.059,-204.825C344.135,-206.41 358.128,-208.106 371.952,-209.782"/>
<polygon fill="midnightblue" stroke="midnightblue" points="371.624,-213.268 381.973,-210.997 372.467,-206.319 371.624,-213.268"/>
</g>
<!-- Node42 -->
<g id="node9" class="node"><title>Node42</title>
<g id="a_node9"><a xlink:href="namespaceoutput__ops.html#aa9e4855511b6ea16a08b3efb587bec51" target="_top" xlink:title="Executes command line, or displays a message if disabled. ">
<polygon fill="white" stroke="black" points="388,-157 388,-191 543,-191 543,-157 388,-157"/>
<text text-anchor="start" x="396" y="-177.4" font-family="Ubuntu Mono" font-size="12.00">output_ops::use_execute</text>
<text text-anchor="middle" x="465.5" y="-164.4" font-family="Ubuntu Mono" font-size="12.00">_command_line</text>
</a>
</g>
</g>
<!-- Node39&#45;&gt;Node42 -->
<g id="edge9" class="edge"><title>Node39&#45;&gt;Node42</title>
<path fill="none" stroke="midnightblue" d="M331.059,-189.501C345.963,-187.769 362.057,-185.9 377.736,-184.079"/>
<polygon fill="midnightblue" stroke="midnightblue" points="378.433,-187.521 387.962,-182.891 377.625,-180.568 378.433,-187.521"/>
</g>
<!-- Node39&#45;&gt;Node43 -->
<g id="edge13" class="edge"><title>Node39&#45;&gt;Node43</title>
<path fill="none" stroke="midnightblue" d="M284.532,-186.414C306.629,-174.112 345.627,-154.535 382,-147 446.494,-133.639 521.971,-137.564 574.657,-143.349"/>
<polygon fill="midnightblue" stroke="midnightblue" points="574.546,-146.86 584.881,-144.527 575.347,-139.906 574.546,-146.86"/>
</g>
<!-- Node44 -->
<g id="node11" class="node"><title>Node44</title>
<g id="a_node11"><a xlink:href="namespacestr__utilities.html#a92ac6c0af1979df094de1caddd28ade0" target="_top" xlink:title="Convert a real (double) to string. ">
<polygon fill="white" stroke="black" points="397,-78.5 397,-99.5 534,-99.5 534,-78.5 397,-78.5"/>
<text text-anchor="middle" x="465.5" y="-85.9" font-family="Ubuntu Mono" font-size="12.00">str_utilities::r2str</text>
</a>
</g>
</g>
<!-- Node39&#45;&gt;Node44 -->
<g id="edge14" class="edge"><title>Node39&#45;&gt;Node44</title>
<path fill="none" stroke="midnightblue" d="M278.447,-186.338C298.507,-168.936 340.819,-134.335 382,-114 390.957,-109.577 400.852,-105.761 410.587,-102.536"/>
<polygon fill="midnightblue" stroke="midnightblue" points="411.737,-105.843 420.228,-99.5071 409.639,-99.1651 411.737,-105.843"/>
</g>
<!-- Node42&#45;&gt;Node35 -->
<g id="edge10" class="edge"><title>Node42&#45;&gt;Node35</title>
<path fill="none" stroke="midnightblue" d="M543.148,-186.695C598.445,-195.853 672.17,-208.064 723.929,-216.637"/>
<polygon fill="midnightblue" stroke="midnightblue" points="723.539,-220.12 733.976,-218.301 724.683,-213.214 723.539,-220.12"/>
</g>
<!-- Node42&#45;&gt;Node43 -->
<g id="edge11" class="edge"><title>Node42&#45;&gt;Node43</title>
<path fill="none" stroke="midnightblue" d="M543.072,-164.759C553.603,-163.488 564.341,-162.192 574.656,-160.947"/>
<polygon fill="midnightblue" stroke="midnightblue" points="575.298,-164.395 584.807,-159.722 574.46,-157.445 575.298,-164.395"/>
</g>
<!-- Node43&#45;&gt;Node35 -->
<g id="edge12" class="edge"><title>Node43&#45;&gt;Node35</title>
<path fill="none" stroke="midnightblue" d="M663.614,-163.577C673.988,-168.793 686.665,-175.195 698,-181 717.767,-191.123 739.94,-202.648 757.147,-211.63"/>
<polygon fill="midnightblue" stroke="midnightblue" points="755.665,-214.804 766.149,-216.333 758.906,-208.6 755.665,-214.804"/>
</g>
</g>
</svg>
