<?xml version="1.0" encoding="UTF-8" standalone="no"?>
<!DOCTYPE svg PUBLIC "-//W3C//DTD SVG 1.1//EN"
 "http://www.w3.org/Graphics/SVG/1.1/DTD/svg11.dtd">
<!-- Generated by graphviz version 2.43.0 (0)
 -->
<!-- Title: calc_norm_range_pb3d_x Pages: 1 -->
<svg width="960pt" height="356pt"
 viewBox="0.00 0.00 960.00 356.00" xmlns="http://www.w3.org/2000/svg" xmlns:xlink="http://www.w3.org/1999/xlink">
<g id="graph0" class="graph" transform="scale(1 1) rotate(0) translate(4 352)">
<title>calc_norm_range_pb3d_x</title>
<polygon fill="white" stroke="transparent" points="-4,4 -4,-352 956,-352 956,4 -4,4"/>
<!-- Node1 -->
<g id="node1" class="node">
<title>Node1</title>
<g id="a_node1"><a xlink:title="PB3D perturbation version.">
<polygon fill="#bfbfbf" stroke="black" points="0,-218.5 0,-239.5 168,-239.5 168,-218.5 0,-218.5"/>
<text text-anchor="middle" x="84" y="-225.9" font-family="Ubuntu Mono" font-size="12.00">calc_norm_range_pb3d_x</text>
</a>
</g>
</g>
<!-- Node2 -->
<g id="node2" class="node">
<title>Node2</title>
<g id="a_node2"><a xlink:href="grid__ops_8f90.html#a9121423739548f1a1fa4e87055f49010" target="_top" xlink:title="PB3D solution version.">
<polygon fill="white" stroke="black" points="204,-326.5 204,-347.5 382,-347.5 382,-326.5 204,-326.5"/>
<text text-anchor="middle" x="293" y="-333.9" font-family="Ubuntu Mono" font-size="12.00">calc_norm_range_pb3d_sol</text>
</a>
</g>
</g>
<!-- Node1&#45;&gt;Node2 -->
<g id="edge1" class="edge">
<title>Node1&#45;&gt;Node2</title>
<path fill="none" stroke="midnightblue" d="M97.33,-239.72C118.03,-257.2 161.67,-291.92 204,-312 213.46,-316.49 223.89,-320.32 234.15,-323.54"/>
<polygon fill="midnightblue" stroke="midnightblue" points="233.32,-326.95 243.9,-326.44 235.32,-320.24 233.32,-326.95"/>
</g>
<!-- Node3 -->
<g id="node3" class="node">
<title>Node3</title>
<g id="a_node3"><a xlink:href="namespaceoutput__ops.html#a50bfbb88cc91805469353c3ff47b3e2e" target="_top" xlink:title="Use external program to draw a plot.">
<polygon fill="white" stroke="black" points="223,-179.5 223,-200.5 363,-200.5 363,-179.5 223,-179.5"/>
<text text-anchor="middle" x="293" y="-186.9" font-family="Ubuntu Mono" font-size="12.00">output_ops::draw_ex</text>
</a>
</g>
</g>
<!-- Node1&#45;&gt;Node3 -->
<g id="edge2" class="edge">
<title>Node1&#45;&gt;Node3</title>
<path fill="none" stroke="midnightblue" d="M140.74,-218.5C167.09,-213.53 198.72,-207.58 226.22,-202.39"/>
<polygon fill="midnightblue" stroke="midnightblue" points="226.98,-205.81 236.16,-200.52 225.68,-198.93 226.98,-205.81"/>
</g>
<!-- Node4 -->
<g id="node4" class="node">
<title>Node4</title>
<g id="a_node4"><a xlink:href="namespacestr__utilities.html#a0b97e51770725a3e98ed393d26681414" target="_top" xlink:title="Convert an integer to string.">
<polygon fill="white" stroke="black" points="803.5,-77.5 803.5,-98.5 917.5,-98.5 917.5,-77.5 803.5,-77.5"/>
<text text-anchor="middle" x="860.5" y="-84.9" font-family="Ubuntu Mono" font-size="12.00">str_utilities::i2str</text>
</a>
</g>
</g>
<!-- Node1&#45;&gt;Node4 -->
<g id="edge12" class="edge">
<title>Node1&#45;&gt;Node4</title>
<path fill="none" stroke="midnightblue" d="M101.07,-218.41C147.63,-188.43 287.65,-103.26 418,-74 548.82,-44.64 706.87,-61.91 793.94,-75.81"/>
<polygon fill="midnightblue" stroke="midnightblue" points="793.51,-79.29 803.94,-77.45 794.64,-72.38 793.51,-79.29"/>
</g>
<!-- Node5 -->
<g id="node5" class="node">
<title>Node5</title>
<g id="a_node5"><a xlink:href="namespacemessages.html#a6e6bfb084063e4cc91ee86e542043302" target="_top" xlink:title="Increases/decreases lvl of output.">
<polygon fill="white" stroke="black" points="441.5,-248.5 441.5,-269.5 559.5,-269.5 559.5,-248.5 441.5,-248.5"/>
<text text-anchor="middle" x="500.5" y="-255.9" font-family="Ubuntu Mono" font-size="12.00">messages::lvl_ud</text>
</a>
</g>
</g>
<!-- Node1&#45;&gt;Node5 -->
<g id="edge13" class="edge">
<title>Node1&#45;&gt;Node5</title>
<path fill="none" stroke="midnightblue" d="M168.38,-235.03C245.56,-240.62 358.93,-248.83 430.96,-254.04"/>
<polygon fill="midnightblue" stroke="midnightblue" points="431.05,-257.56 441.28,-254.79 431.56,-250.57 431.05,-257.56"/>
</g>
<!-- Node6 -->
<g id="node6" class="node">
<title>Node6</title>
<g id="a_node6"><a xlink:href="namespacemessages.html#aa4a8d01563e92558e8a0875b075ec54c" target="_top" xlink:title="Write output to file identified by output_i.">
<polygon fill="white" stroke="black" points="619,-208.5 619,-229.5 733,-229.5 733,-208.5 619,-208.5"/>
<text text-anchor="middle" x="676" y="-215.9" font-family="Ubuntu Mono" font-size="12.00">messages::writo</text>
</a>
</g>
</g>
<!-- Node1&#45;&gt;Node6 -->
<g id="edge15" class="edge">
<title>Node1&#45;&gt;Node6</title>
<path fill="none" stroke="midnightblue" d="M114.08,-239.52C191.92,-266.08 410.8,-330.19 583,-279 610.96,-270.69 638.35,-250.89 655.88,-236.29"/>
<polygon fill="midnightblue" stroke="midnightblue" points="658.34,-238.79 663.64,-229.62 653.78,-233.48 658.34,-238.79"/>
</g>
<!-- Node11 -->
<g id="node11" class="node">
<title>Node11</title>
<g id="a_node11"><a xlink:href="namespacestr__utilities.html#ac778d706b2e021672618939ab58fdd32" target="_top" xlink:title="Convert a real (double) to string.">
<polygon fill="white" stroke="black" points="232.5,-0.5 232.5,-21.5 353.5,-21.5 353.5,-0.5 232.5,-0.5"/>
<text text-anchor="middle" x="293" y="-7.9" font-family="Ubuntu Mono" font-size="12.00">str_utilities::r2strt</text>
</a>
</g>
</g>
<!-- Node1&#45;&gt;Node11 -->
<g id="edge14" class="edge">
<title>Node1&#45;&gt;Node11</title>
<path fill="none" stroke="midnightblue" d="M88.44,-218.32C99.51,-185.66 137.44,-86.34 204,-36 209.75,-31.65 216.22,-28.06 222.99,-25.09"/>
<polygon fill="midnightblue" stroke="midnightblue" points="224.32,-28.33 232.35,-21.42 221.76,-21.82 224.32,-28.33"/>
</g>
<!-- Node3&#45;&gt;Node4 -->
<g id="edge3" class="edge">
<title>Node3&#45;&gt;Node4</title>
<path fill="none" stroke="midnightblue" d="M305.15,-179.35C325.58,-160.62 371.22,-122.32 418,-107 545.64,-65.2 705.18,-71.69 793.3,-79.96"/>
<polygon fill="midnightblue" stroke="midnightblue" points="793.13,-83.46 803.42,-80.95 793.81,-76.5 793.13,-83.46"/>
</g>
<!-- Node3&#45;&gt;Node5 -->
<g id="edge4" class="edge">
<title>Node3&#45;&gt;Node5</title>
<path fill="none" stroke="midnightblue" d="M320.54,-200.54C356.22,-214.7 415.54,-238.22 418,-239 425.7,-241.45 433.88,-243.78 441.99,-245.92"/>
<polygon fill="midnightblue" stroke="midnightblue" points="441.24,-249.35 451.79,-248.44 442.98,-242.57 441.24,-249.35"/>
</g>
<!-- Node3&#45;&gt;Node6 -->
<g id="edge11" class="edge">
<title>Node3&#45;&gt;Node6</title>
<path fill="none" stroke="midnightblue" d="M363.18,-188.62C421.89,-188.28 508.27,-189.79 583,-199 596.44,-200.66 610.83,-203.34 624.13,-206.2"/>
<polygon fill="midnightblue" stroke="midnightblue" points="623.54,-209.66 634.06,-208.42 625.06,-202.83 623.54,-209.66"/>
</g>
<!-- Node9 -->
<g id="node9" class="node">
<title>Node9</title>
<g id="a_node9"><a xlink:href="namespacefiles__utilities.html#ac6066df405564ba2f5e3c4bba726c1f8" target="_top" xlink:title="Search for available new unit.">
<polygon fill="white" stroke="black" points="428,-208.5 428,-229.5 573,-229.5 573,-208.5 428,-208.5"/>
<text text-anchor="middle" x="500.5" y="-215.9" font-family="Ubuntu Mono" font-size="12.00">files_utilities::nextunit</text>
</a>
</g>
</g>
<!-- Node3&#45;&gt;Node9 -->
<g id="edge9" class="edge">
<title>Node3&#45;&gt;Node9</title>
<path fill="none" stroke="midnightblue" d="M363,-199.74C380.61,-202.22 399.71,-204.92 417.89,-207.48"/>
<polygon fill="midnightblue" stroke="midnightblue" points="417.48,-210.96 427.87,-208.89 418.46,-204.03 417.48,-210.96"/>
</g>
<!-- Node10 -->
<g id="node10" class="node">
<title>Node10</title>
<g id="a_node10"><a xlink:href="namespaceoutput__ops.html#aa9e4855511b6ea16a08b3efb587bec51" target="_top" xlink:title="Executes command line, or displays a message if disabled.">
<polygon fill="white" stroke="black" points="418,-117 418,-151 583,-151 583,-117 418,-117"/>
<text text-anchor="start" x="426" y="-137.4" font-family="Ubuntu Mono" font-size="12.00">output_ops::use_execute</text>
<text text-anchor="middle" x="500.5" y="-124.4" font-family="Ubuntu Mono" font-size="12.00">_command_line</text>
</a>
</g>
</g>
<!-- Node3&#45;&gt;Node10 -->
<g id="edge10" class="edge">
<title>Node3&#45;&gt;Node10</title>
<path fill="none" stroke="midnightblue" d="M332.65,-179.47C359.21,-172.23 395.27,-162.4 427.07,-153.74"/>
<polygon fill="midnightblue" stroke="midnightblue" points="428.06,-157.1 436.79,-151.09 426.22,-150.34 428.06,-157.1"/>
</g>
<!-- Node5&#45;&gt;Node6 -->
<g id="edge5" class="edge">
<title>Node5&#45;&gt;Node6</title>
<path fill="none" stroke="midnightblue" d="M547.09,-248.49C569.31,-243.37 596.23,-237.16 619.63,-231.77"/>
<polygon fill="midnightblue" stroke="midnightblue" points="620.46,-235.17 629.42,-229.51 618.89,-228.34 620.46,-235.17"/>
</g>
<!-- Node6&#45;&gt;Node4 -->
<g id="edge8" class="edge">
<title>Node6&#45;&gt;Node4</title>
<path fill="none" stroke="midnightblue" d="M691.93,-208.28C723.77,-185.42 798.51,-131.78 836.49,-104.52"/>
<polygon fill="midnightblue" stroke="midnightblue" points="838.79,-107.18 844.87,-98.5 834.7,-101.49 838.79,-107.18"/>
</g>
<!-- Node7 -->
<g id="node7" class="node">
<title>Node7</title>
<g id="a_node7"><a xlink:href="namespacemessages.html#a61fd0b51b5e37d58fdc993c01792a3fd" target="_top" xlink:title="Returns the time.">
<polygon fill="white" stroke="black" points="790.5,-188.5 790.5,-209.5 930.5,-209.5 930.5,-188.5 790.5,-188.5"/>
<text text-anchor="middle" x="860.5" y="-195.9" font-family="Ubuntu Mono" font-size="12.00">messages::get_clock</text>
</a>
</g>
</g>
<!-- Node6&#45;&gt;Node7 -->
<g id="edge6" class="edge">
<title>Node6&#45;&gt;Node7</title>
<path fill="none" stroke="midnightblue" d="M733.25,-212.84C748.02,-211.22 764.24,-209.44 779.99,-207.71"/>
<polygon fill="midnightblue" stroke="midnightblue" points="780.69,-211.16 790.25,-206.59 779.93,-204.2 780.69,-211.16"/>
</g>
<!-- Node8 -->
<g id="node8" class="node">
<title>Node8</title>
<g id="a_node8"><a xlink:href="namespacemessages.html#a82dddaab795b78b3d39e1ff1aab2f665" target="_top" xlink:title="Returns the memory usage in kilobytes.">
<polygon fill="white" stroke="black" points="769,-228.5 769,-249.5 952,-249.5 952,-228.5 769,-228.5"/>
<text text-anchor="middle" x="860.5" y="-235.9" font-family="Ubuntu Mono" font-size="12.00">messages::get_mem_usage</text>
</a>
</g>
</g>
<!-- Node6&#45;&gt;Node8 -->
<g id="edge7" class="edge">
<title>Node6&#45;&gt;Node8</title>
<path fill="none" stroke="midnightblue" d="M733.25,-225.16C741.46,-226.06 750.13,-227.01 758.91,-227.98"/>
<polygon fill="midnightblue" stroke="midnightblue" points="758.53,-231.46 768.86,-229.07 759.3,-224.5 758.53,-231.46"/>
</g>
</g>
</svg>
