<?xml version="1.0" encoding="UTF-8" standalone="no"?>
<!DOCTYPE svg PUBLIC "-//W3C//DTD SVG 1.1//EN"
 "http://www.w3.org/Graphics/SVG/1.1/DTD/svg11.dtd">
<!-- Generated by graphviz version 2.38.0 (20140413.2041)
 -->
<!-- Title: calc_norm_range_pb3d_in Pages: 1 -->
<svg width="515pt" height="43pt"
 viewBox="0.00 0.00 515.00 43.00" xmlns="http://www.w3.org/2000/svg" xmlns:xlink="http://www.w3.org/1999/xlink">
<g id="graph0" class="graph" transform="scale(1 1) rotate(0) translate(4 39)">
<title>calc_norm_range_pb3d_in</title>
<polygon fill="white" stroke="none" points="-4,4 -4,-39 511,-39 511,4 -4,4"/>
<!-- Node11 -->
<g id="node1" class="node"><title>Node11</title>
<polygon fill="#bfbfbf" stroke="black" points="0,-7 0,-28 155,-28 155,-7 0,-7"/>
<text text-anchor="middle" x="77.5" y="-14.4" font-family="Ubuntu Mono" font-size="12.00">calc_norm_range_pb3d_in</text>
</g>
<!-- Node12 -->
<g id="node2" class="node"><title>Node12</title>
<g id="a_node2"><a xlink:href="namespacegrid__utilities.html#a43206328f85253a6cc821cd46a498bb6" target="_top" xlink:title="grid_utilities::setup\l_interp_data">
<polygon fill="white" stroke="black" points="191,-0.5 191,-34.5 334,-34.5 334,-0.5 191,-0.5"/>
<text text-anchor="start" x="199" y="-20.9" font-family="Ubuntu Mono" font-size="12.00">grid_utilities::setup</text>
<text text-anchor="middle" x="262.5" y="-7.9" font-family="Ubuntu Mono" font-size="12.00">_interp_data</text>
</a>
</g>
</g>
<!-- Node11&#45;&gt;Node12 -->
<g id="edge1" class="edge"><title>Node11&#45;&gt;Node12</title>
<path fill="none" stroke="midnightblue" d="M155.048,-17.5C163.474,-17.5 172.073,-17.5 180.55,-17.5"/>
<polygon fill="midnightblue" stroke="midnightblue" points="180.809,-21.0001 190.809,-17.5 180.809,-14.0001 180.809,-21.0001"/>
</g>
<!-- Node13 -->
<g id="node3" class="node"><title>Node13</title>
<g id="a_node3"><a xlink:href="namespacestr__utilities.html#a0b97e51770725a3e98ed393d26681414" target="_top" xlink:title="str_utilities::i2str">
<polygon fill="white" stroke="black" points="370,-7 370,-28 507,-28 507,-7 370,-7"/>
<text text-anchor="middle" x="438.5" y="-14.4" font-family="Ubuntu Mono" font-size="12.00">str_utilities::i2str</text>
</a>
</g>
</g>
<!-- Node12&#45;&gt;Node13 -->
<g id="edge2" class="edge"><title>Node12&#45;&gt;Node13</title>
<path fill="none" stroke="midnightblue" d="M334.022,-17.5C342.553,-17.5 351.304,-17.5 359.929,-17.5"/>
<polygon fill="midnightblue" stroke="midnightblue" points="359.977,-21.0001 369.977,-17.5 359.977,-14.0001 359.977,-21.0001"/>
</g>
</g>
</svg>
