<?xml version="1.0" encoding="UTF-8" standalone="no"?>
<!DOCTYPE svg PUBLIC "-//W3C//DTD SVG 1.1//EN"
 "http://www.w3.org/Graphics/SVG/1.1/DTD/svg11.dtd">
<!-- Generated by graphviz version 2.38.0 (20140413.2041)
 -->
<!-- Title: calc_norm_range_pb3d_eq Pages: 1 -->
<svg width="825pt" height="225pt"
 viewBox="0.00 0.00 825.00 225.34" xmlns="http://www.w3.org/2000/svg" xmlns:xlink="http://www.w3.org/1999/xlink">
<g id="graph0" class="graph" transform="scale(1 1) rotate(0) translate(4 221.342)">
<title>calc_norm_range_pb3d_eq</title>
<polygon fill="white" stroke="none" points="-4,4 -4,-221.342 821,-221.342 821,4 -4,4"/>
<!-- Node1 -->
<g id="node1" class="node"><title>Node1</title>
<polygon fill="#bfbfbf" stroke="black" points="0,-96.5 0,-117.5 155,-117.5 155,-96.5 0,-96.5"/>
<text text-anchor="middle" x="77.5" y="-103.9" font-family="Ubuntu Mono" font-size="12.00">calc_norm_range_pb3d_eq</text>
</g>
<!-- Node2 -->
<g id="node2" class="node"><title>Node2</title>
<g id="a_node2"><a xlink:href="namespacegrid__ops.html#a596695cab6971ec6b9d32d13a50708b6" target="_top" xlink:title="grid_ops::calc_norm\l_range">
<polygon fill="white" stroke="black" points="191,-90 191,-124 322,-124 322,-90 191,-90"/>
<text text-anchor="start" x="199" y="-110.4" font-family="Ubuntu Mono" font-size="12.00">grid_ops::calc_norm</text>
<text text-anchor="middle" x="256.5" y="-97.4" font-family="Ubuntu Mono" font-size="12.00">_range</text>
</a>
</g>
</g>
<!-- Node1&#45;&gt;Node2 -->
<g id="edge1" class="edge"><title>Node1&#45;&gt;Node2</title>
<path fill="none" stroke="midnightblue" d="M165.246,-107C173.91,-107 182.596,-107 190.973,-107"/>
<polygon fill="midnightblue" stroke="midnightblue" points="165.105,-103.5 155.105,-107 165.105,-110.5 165.105,-103.5"/>
</g>
<!-- Node3 -->
<g id="node3" class="node"><title>Node3</title>
<g id="a_node3"><a xlink:href="namespacedriver__eq.html#ac8eca434f541966edc3556d72f261eff" target="_top" xlink:title="driver_eq::run_driver_eq">
<polygon fill="white" stroke="black" points="573,-163.5 573,-184.5 734,-184.5 734,-163.5 573,-163.5"/>
<text text-anchor="middle" x="653.5" y="-170.9" font-family="Ubuntu Mono" font-size="12.00">driver_eq::run_driver_eq</text>
</a>
</g>
</g>
<!-- Node2&#45;&gt;Node3 -->
<g id="edge2" class="edge"><title>Node2&#45;&gt;Node3</title>
<path fill="none" stroke="midnightblue" d="M275.635,-132.532C293.574,-155.377 323.321,-187.309 358,-201 450.408,-237.481 571.376,-203.387 624.934,-184.565"/>
<polygon fill="midnightblue" stroke="midnightblue" points="278.193,-130.115 269.351,-124.278 272.624,-134.355 278.193,-130.115"/>
</g>
<!-- Node5 -->
<g id="node5" class="node"><title>Node5</title>
<g id="a_node5"><a xlink:href="namespacedriver__post.html#af527706d4e696d4e507443d2f74194ef" target="_top" xlink:title="driver_post::init_post">
<polygon fill="white" stroke="black" points="370,-116.5 370,-137.5 519,-137.5 519,-116.5 370,-116.5"/>
<text text-anchor="middle" x="444.5" y="-123.9" font-family="Ubuntu Mono" font-size="12.00">driver_post::init_post</text>
</a>
</g>
</g>
<!-- Node2&#45;&gt;Node5 -->
<g id="edge4" class="edge"><title>Node2&#45;&gt;Node5</title>
<path fill="none" stroke="midnightblue" d="M332.299,-115.043C344.672,-116.373 357.492,-117.752 369.837,-119.079"/>
<polygon fill="midnightblue" stroke="midnightblue" points="332.349,-111.528 322.032,-113.939 331.6,-118.488 332.349,-111.528"/>
</g>
<!-- Node7 -->
<g id="node7" class="node"><title>Node7</title>
<g id="a_node7"><a xlink:href="namespacedriver__sol.html#a208ddea649ee160b7a55da8d0a5d4847" target="_top" xlink:title="driver_sol::run_driver_sol">
<polygon fill="white" stroke="black" points="567,-79.5 567,-100.5 740,-100.5 740,-79.5 567,-79.5"/>
<text text-anchor="middle" x="653.5" y="-86.9" font-family="Ubuntu Mono" font-size="12.00">driver_sol::run_driver_sol</text>
</a>
</g>
</g>
<!-- Node2&#45;&gt;Node7 -->
<g id="edge6" class="edge"><title>Node2&#45;&gt;Node7</title>
<path fill="none" stroke="midnightblue" d="M332.324,-103.78C399.161,-100.903 497.032,-96.691 566.952,-93.6818"/>
<polygon fill="midnightblue" stroke="midnightblue" points="332.124,-100.285 322.284,-104.212 332.425,-107.279 332.124,-100.285"/>
</g>
<!-- Node8 -->
<g id="node8" class="node"><title>Node8</title>
<g id="a_node8"><a xlink:href="namespacedriver__x.html#ada3d72a0929daaa5e3da585246d62281" target="_top" xlink:title="driver_x::run_driver_x">
<polygon fill="white" stroke="black" points="579,-39.5 579,-60.5 728,-60.5 728,-39.5 579,-39.5"/>
<text text-anchor="middle" x="653.5" y="-46.9" font-family="Ubuntu Mono" font-size="12.00">driver_x::run_driver_x</text>
</a>
</g>
</g>
<!-- Node2&#45;&gt;Node8 -->
<g id="edge8" class="edge"><title>Node2&#45;&gt;Node8</title>
<path fill="none" stroke="midnightblue" d="M332.242,-95.7895C340.925,-94.5034 349.656,-93.2176 358,-92 433.251,-81.0184 519.369,-68.7742 578.956,-60.3532"/>
<polygon fill="midnightblue" stroke="midnightblue" points="331.474,-92.3651 322.096,-97.2954 332.502,-99.2892 331.474,-92.3651"/>
</g>
<!-- Node9 -->
<g id="node9" class="node"><title>Node9</title>
<g id="a_node9"><a xlink:href="namespacegrid__ops.html#ab10ef5b486ee3861df2da4e53bc22630" target="_top" xlink:title="grid_ops::redistribute\l_output_grid">
<polygon fill="white" stroke="black" points="370,-157 370,-191 519,-191 519,-157 370,-157"/>
<text text-anchor="start" x="378" y="-177.4" font-family="Ubuntu Mono" font-size="12.00">grid_ops::redistribute</text>
<text text-anchor="middle" x="444.5" y="-164.4" font-family="Ubuntu Mono" font-size="12.00">_output_grid</text>
</a>
</g>
</g>
<!-- Node2&#45;&gt;Node9 -->
<g id="edge10" class="edge"><title>Node2&#45;&gt;Node9</title>
<path fill="none" stroke="midnightblue" d="M307.967,-127.92C323.883,-134.292 341.593,-141.153 358,-147 367.384,-150.344 377.42,-153.704 387.195,-156.862"/>
<polygon fill="midnightblue" stroke="midnightblue" points="308.9,-124.522 298.317,-124.029 306.282,-131.014 308.9,-124.522"/>
</g>
<!-- Node10 -->
<g id="node10" class="node"><title>Node10</title>
<g id="a_node10"><a xlink:href="namespaceinput__ops.html#a84ec7b3833da80ebb36ae0d5ff1a9e0a" target="_top" xlink:title="input_ops::print_output_in">
<polygon fill="white" stroke="black" points="358,-0.5 358,-21.5 531,-21.5 531,-0.5 358,-0.5"/>
<text text-anchor="middle" x="444.5" y="-7.9" font-family="Ubuntu Mono" font-size="12.00">input_ops::print_output_in</text>
</a>
</g>
</g>
<!-- Node2&#45;&gt;Node10 -->
<g id="edge12" class="edge"><title>Node2&#45;&gt;Node10</title>
<path fill="none" stroke="midnightblue" d="M285.215,-83.6118C304.567,-68.2695 331.571,-48.7587 358,-36 370.256,-30.0833 384.189,-25.2802 397.198,-21.5243"/>
<polygon fill="midnightblue" stroke="midnightblue" points="283.003,-80.8993 277.414,-89.9 287.396,-86.3493 283.003,-80.8993"/>
</g>
<!-- Node4 -->
<g id="node4" class="node"><title>Node4</title>
<g id="a_node4"><a xlink:href="PB3D_8f90.html#afaee01f014ab3398eecac996b2795fd2" target="_top" xlink:title="pb3d">
<polygon fill="white" stroke="black" points="776,-59.5 776,-80.5 817,-80.5 817,-59.5 776,-59.5"/>
<text text-anchor="middle" x="796.5" y="-66.9" font-family="Ubuntu Mono" font-size="12.00">pb3d</text>
</a>
</g>
</g>
<!-- Node3&#45;&gt;Node4 -->
<g id="edge3" class="edge"><title>Node3&#45;&gt;Node4</title>
<path fill="none" stroke="midnightblue" d="M722.795,-159.602C728.881,-156.927 734.726,-153.757 740,-150 765.608,-131.758 783.303,-97.7924 791.064,-80.5815"/>
<polygon fill="midnightblue" stroke="midnightblue" points="721.112,-156.502 713.079,-163.411 723.666,-163.02 721.112,-156.502"/>
</g>
<!-- Node6 -->
<g id="node6" class="node"><title>Node6</title>
<g id="a_node6"><a xlink:href="POST_8f90.html#ac289b64ac4671fea0b4f2298ba1188a1" target="_top" xlink:title="post">
<polygon fill="white" stroke="black" points="633,-119.5 633,-140.5 674,-140.5 674,-119.5 633,-119.5"/>
<text text-anchor="middle" x="653.5" y="-126.9" font-family="Ubuntu Mono" font-size="12.00">post</text>
</a>
</g>
</g>
<!-- Node5&#45;&gt;Node6 -->
<g id="edge5" class="edge"><title>Node5&#45;&gt;Node6</title>
<path fill="none" stroke="midnightblue" d="M529.135,-128.212C567.091,-128.762 608.75,-129.366 632.646,-129.712"/>
<polygon fill="midnightblue" stroke="midnightblue" points="529.113,-124.712 519.063,-128.066 529.011,-131.711 529.113,-124.712"/>
</g>
<!-- Node7&#45;&gt;Node4 -->
<g id="edge7" class="edge"><title>Node7&#45;&gt;Node4</title>
<path fill="none" stroke="midnightblue" d="M738.835,-78.0376C752.597,-76.0855 765.627,-74.2373 775.715,-72.8064"/>
<polygon fill="midnightblue" stroke="midnightblue" points="738.126,-74.6031 728.716,-79.4729 739.109,-81.5337 738.126,-74.6031"/>
</g>
<!-- Node8&#45;&gt;Node4 -->
<g id="edge9" class="edge"><title>Node8&#45;&gt;Node4</title>
<path fill="none" stroke="midnightblue" d="M738.546,-61.9215C752.48,-63.8979 765.68,-65.7702 775.857,-67.2138"/>
<polygon fill="midnightblue" stroke="midnightblue" points="738.696,-58.4077 728.304,-60.4686 737.713,-65.3384 738.696,-58.4077"/>
</g>
<!-- Node9&#45;&gt;Node3 -->
<g id="edge11" class="edge"><title>Node9&#45;&gt;Node3</title>
<path fill="none" stroke="midnightblue" d="M529.402,-174C543.75,-174 558.619,-174 572.852,-174"/>
<polygon fill="midnightblue" stroke="midnightblue" points="529.063,-170.5 519.063,-174 529.063,-177.5 529.063,-170.5"/>
</g>
<!-- Node10&#45;&gt;Node4 -->
<g id="edge13" class="edge"><title>Node10&#45;&gt;Node4</title>
<path fill="none" stroke="midnightblue" d="M541.217,-3.97678C600.183,-2.83269 676.405,-7.18433 740,-30 757.44,-36.2568 774.234,-49.7417 784.694,-59.322"/>
<polygon fill="midnightblue" stroke="midnightblue" points="541.072,-0.479222 531.163,-4.22801 541.247,-7.47704 541.072,-0.479222"/>
</g>
</g>
</svg>
