<?xml version="1.0" encoding="UTF-8" standalone="no"?>
<!DOCTYPE svg PUBLIC "-//W3C//DTD SVG 1.1//EN"
 "http://www.w3.org/Graphics/SVG/1.1/DTD/svg11.dtd">
<!-- Generated by graphviz version 2.38.0 (20140413.2041)
 -->
<!-- Title: fun_pol Pages: 1 -->
<svg width="419pt" height="43pt"
 viewBox="0.00 0.00 419.00 43.00" xmlns="http://www.w3.org/2000/svg" xmlns:xlink="http://www.w3.org/1999/xlink">
<g id="graph0" class="graph" transform="scale(1 1) rotate(0) translate(4 39)">
<title>fun_pol</title>
<polygon fill="white" stroke="none" points="-4,4 -4,-39 415,-39 415,4 -4,4"/>
<!-- Node55 -->
<g id="node1" class="node"><title>Node55</title>
<polygon fill="#bfbfbf" stroke="black" points="0,-7 0,-28 59,-28 59,-7 0,-7"/>
<text text-anchor="middle" x="29.5" y="-14.4" font-family="Ubuntu Mono" font-size="12.00">fun_pol</text>
</g>
<!-- Node56 -->
<g id="node2" class="node"><title>Node56</title>
<g id="a_node2"><a xlink:href="namespacegrid__utilities.html#a43206328f85253a6cc821cd46a498bb6" target="_top" xlink:title="grid_utilities::setup\l_interp_data">
<polygon fill="white" stroke="black" points="95,-0.5 95,-34.5 238,-34.5 238,-0.5 95,-0.5"/>
<text text-anchor="start" x="103" y="-20.9" font-family="Ubuntu Mono" font-size="12.00">grid_utilities::setup</text>
<text text-anchor="middle" x="166.5" y="-7.9" font-family="Ubuntu Mono" font-size="12.00">_interp_data</text>
</a>
</g>
</g>
<!-- Node55&#45;&gt;Node56 -->
<g id="edge1" class="edge"><title>Node55&#45;&gt;Node56</title>
<path fill="none" stroke="midnightblue" d="M59.13,-17.5C66.917,-17.5 75.751,-17.5 84.9198,-17.5"/>
<polygon fill="midnightblue" stroke="midnightblue" points="84.9667,-21.0001 94.9666,-17.5 84.9666,-14.0001 84.9667,-21.0001"/>
</g>
<!-- Node57 -->
<g id="node3" class="node"><title>Node57</title>
<g id="a_node3"><a xlink:href="namespacestr__utilities.html#a0b97e51770725a3e98ed393d26681414" target="_top" xlink:title="str_utilities::i2str">
<polygon fill="white" stroke="black" points="274,-7 274,-28 411,-28 411,-7 274,-7"/>
<text text-anchor="middle" x="342.5" y="-14.4" font-family="Ubuntu Mono" font-size="12.00">str_utilities::i2str</text>
</a>
</g>
</g>
<!-- Node56&#45;&gt;Node57 -->
<g id="edge2" class="edge"><title>Node56&#45;&gt;Node57</title>
<path fill="none" stroke="midnightblue" d="M238.022,-17.5C246.553,-17.5 255.304,-17.5 263.929,-17.5"/>
<polygon fill="midnightblue" stroke="midnightblue" points="263.977,-21.0001 273.977,-17.5 263.977,-14.0001 263.977,-21.0001"/>
</g>
</g>
</svg>
