<?xml version="1.0" encoding="UTF-8" standalone="no"?>
<!DOCTYPE svg PUBLIC "-//W3C//DTD SVG 1.1//EN"
 "http://www.w3.org/Graphics/SVG/1.1/DTD/svg11.dtd">
<!-- Generated by graphviz version 2.38.0 (20140413.2041)
 -->
<!-- Title: get_full_xyz Pages: 1 -->
<svg width="568pt" height="70pt"
 viewBox="0.00 0.00 568.00 70.00" xmlns="http://www.w3.org/2000/svg" xmlns:xlink="http://www.w3.org/1999/xlink">
<g id="graph0" class="graph" transform="scale(1 1) rotate(0) translate(4 66)">
<title>get_full_xyz</title>
<polygon fill="white" stroke="none" points="-4,4 -4,-66 564,-66 564,4 -4,4"/>
<!-- Node65 -->
<g id="node1" class="node"><title>Node65</title>
<polygon fill="#bfbfbf" stroke="black" points="0,-20.5 0,-41.5 89,-41.5 89,-20.5 0,-20.5"/>
<text text-anchor="middle" x="44.5" y="-27.9" font-family="Ubuntu Mono" font-size="12.00">get_full_xyz</text>
</g>
<!-- Node66 -->
<g id="node2" class="node"><title>Node66</title>
<g id="a_node2"><a xlink:href="namespacegrid__ops.html#addd76b7b3be0b51e0863ae0cdfef41e6" target="_top" xlink:title="grid_ops::magn_grid_plot">
<polygon fill="white" stroke="black" points="125,-20.5 125,-41.5 286,-41.5 286,-20.5 125,-20.5"/>
<text text-anchor="middle" x="205.5" y="-27.9" font-family="Ubuntu Mono" font-size="12.00">grid_ops::magn_grid_plot</text>
</a>
</g>
</g>
<!-- Node65&#45;&gt;Node66 -->
<g id="edge1" class="edge"><title>Node65&#45;&gt;Node66</title>
<path fill="none" stroke="midnightblue" d="M99.4674,-31C107.634,-31 116.202,-31 124.774,-31"/>
<polygon fill="midnightblue" stroke="midnightblue" points="99.3684,-27.5001 89.3683,-31 99.3683,-34.5001 99.3684,-27.5001"/>
</g>
<!-- Node67 -->
<g id="node3" class="node"><title>Node67</title>
<g id="a_node3"><a xlink:href="namespacedriver__eq.html#ac8eca434f541966edc3556d72f261eff" target="_top" xlink:title="driver_eq::run_driver_eq">
<polygon fill="white" stroke="black" points="322,-40.5 322,-61.5 483,-61.5 483,-40.5 322,-40.5"/>
<text text-anchor="middle" x="402.5" y="-47.9" font-family="Ubuntu Mono" font-size="12.00">driver_eq::run_driver_eq</text>
</a>
</g>
</g>
<!-- Node66&#45;&gt;Node67 -->
<g id="edge2" class="edge"><title>Node66&#45;&gt;Node67</title>
<path fill="none" stroke="midnightblue" d="M296.117,-40.1915C304.7,-41.0718 313.365,-41.9605 321.843,-42.8301"/>
<polygon fill="midnightblue" stroke="midnightblue" points="296.4,-36.7023 286.095,-39.1636 295.686,-43.6657 296.4,-36.7023"/>
</g>
<!-- Node69 -->
<g id="node5" class="node"><title>Node69</title>
<g id="a_node5"><a xlink:href="namespacedriver__post.html#af527706d4e696d4e507443d2f74194ef" target="_top" xlink:title="driver_post::init_post">
<polygon fill="white" stroke="black" points="328,-0.5 328,-21.5 477,-21.5 477,-0.5 328,-0.5"/>
<text text-anchor="middle" x="402.5" y="-7.9" font-family="Ubuntu Mono" font-size="12.00">driver_post::init_post</text>
</a>
</g>
</g>
<!-- Node66&#45;&gt;Node69 -->
<g id="edge4" class="edge"><title>Node66&#45;&gt;Node69</title>
<path fill="none" stroke="midnightblue" d="M296.189,-21.8011C306.775,-20.7154 317.483,-19.6171 327.812,-18.5577"/>
<polygon fill="midnightblue" stroke="midnightblue" points="295.686,-18.3343 286.095,-22.8364 296.4,-25.2977 295.686,-18.3343"/>
</g>
<!-- Node68 -->
<g id="node4" class="node"><title>Node68</title>
<g id="a_node4"><a xlink:href="PB3D_8f90.html#afaee01f014ab3398eecac996b2795fd2" target="_top" xlink:title="pb3d">
<polygon fill="white" stroke="black" points="519,-40.5 519,-61.5 560,-61.5 560,-40.5 519,-40.5"/>
<text text-anchor="middle" x="539.5" y="-47.9" font-family="Ubuntu Mono" font-size="12.00">pb3d</text>
</a>
</g>
</g>
<!-- Node67&#45;&gt;Node68 -->
<g id="edge3" class="edge"><title>Node67&#45;&gt;Node68</title>
<path fill="none" stroke="midnightblue" d="M493.278,-51C502.755,-51 511.571,-51 518.856,-51"/>
<polygon fill="midnightblue" stroke="midnightblue" points="493.201,-47.5001 483.201,-51 493.201,-54.5001 493.201,-47.5001"/>
</g>
<!-- Node70 -->
<g id="node6" class="node"><title>Node70</title>
<g id="a_node6"><a xlink:href="POST_8f90.html#ac289b64ac4671fea0b4f2298ba1188a1" target="_top" xlink:title="post">
<polygon fill="white" stroke="black" points="519,-0.5 519,-21.5 560,-21.5 560,-0.5 519,-0.5"/>
<text text-anchor="middle" x="539.5" y="-7.9" font-family="Ubuntu Mono" font-size="12.00">post</text>
</a>
</g>
</g>
<!-- Node69&#45;&gt;Node70 -->
<g id="edge5" class="edge"><title>Node69&#45;&gt;Node70</title>
<path fill="none" stroke="midnightblue" d="M487.322,-11C499.072,-11 510.121,-11 518.924,-11"/>
<polygon fill="midnightblue" stroke="midnightblue" points="487.32,-7.5001 477.32,-11 487.32,-14.5001 487.32,-7.5001"/>
</g>
</g>
</svg>
