<?xml version="1.0" encoding="UTF-8" standalone="no"?>
<!DOCTYPE svg PUBLIC "-//W3C//DTD SVG 1.1//EN"
 "http://www.w3.org/Graphics/SVG/1.1/DTD/svg11.dtd">
<!-- Generated by graphviz version 2.38.0 (20140413.2041)
 -->
<!-- Title: calc_xyz_grid_hel Pages: 1 -->
<svg width="968pt" height="362pt"
 viewBox="0.00 0.00 968.00 361.50" xmlns="http://www.w3.org/2000/svg" xmlns:xlink="http://www.w3.org/1999/xlink">
<g id="graph0" class="graph" transform="scale(1 1) rotate(0) translate(4 357.5)">
<title>calc_xyz_grid_hel</title>
<polygon fill="white" stroke="none" points="-4,4 -4,-357.5 964,-357.5 964,4 -4,4"/>
<!-- Node3 -->
<g id="node1" class="node"><title>Node3</title>
<polygon fill="#bfbfbf" stroke="black" points="0,-212 0,-233 119,-233 119,-212 0,-212"/>
<text text-anchor="middle" x="59.5" y="-219.4" font-family="Ubuntu Mono" font-size="12.00">calc_xyz_grid_hel</text>
</g>
<!-- Node4 -->
<g id="node2" class="node"><title>Node4</title>
<g id="a_node2"><a xlink:href="namespacegrid__utilities.html#a39e7cd9b8f173994358dbdd6b57827e1" target="_top" xlink:title="grid_utilities::calc\l_xyz_grid">
<polygon fill="white" stroke="black" points="155,-205.5 155,-239.5 292,-239.5 292,-205.5 155,-205.5"/>
<text text-anchor="start" x="163" y="-225.9" font-family="Ubuntu Mono" font-size="12.00">grid_utilities::calc</text>
<text text-anchor="middle" x="223.5" y="-212.9" font-family="Ubuntu Mono" font-size="12.00">_xyz_grid</text>
</a>
</g>
</g>
<!-- Node3&#45;&gt;Node4 -->
<g id="edge1" class="edge"><title>Node3&#45;&gt;Node4</title>
<path fill="none" stroke="midnightblue" d="M129.543,-222.5C137.914,-222.5 146.459,-222.5 154.81,-222.5"/>
<polygon fill="midnightblue" stroke="midnightblue" points="129.444,-219 119.444,-222.5 129.444,-226 129.444,-219"/>
</g>
<!-- Node5 -->
<g id="node3" class="node"><title>Node5</title>
<g id="a_node3"><a xlink:href="namespacedriver__post.html#a33b3c6f9018a0ddc92dce77394b8ab37" target="_top" xlink:title="driver_post::run_driver_post">
<polygon fill="white" stroke="black" points="698,-152 698,-173 883,-173 883,-152 698,-152"/>
<text text-anchor="middle" x="790.5" y="-159.4" font-family="Ubuntu Mono" font-size="12.00">driver_post::run_driver_post</text>
</a>
</g>
</g>
<!-- Node4&#45;&gt;Node5 -->
<g id="edge2" class="edge"><title>Node4&#45;&gt;Node5</title>
<path fill="none" stroke="midnightblue" d="M253.809,-198.897C273.875,-183.489 301.544,-163.676 328,-149.5 400.678,-110.558 419.949,-97.6466 501,-82.5 571.338,-69.3553 599.732,-47.2447 662,-82.5 689.062,-97.8221 672.74,-124.36 698,-142.5 703.283,-146.294 709.149,-149.39 715.287,-151.915"/>
<polygon fill="midnightblue" stroke="midnightblue" points="251.446,-196.3 245.7,-205.202 255.743,-201.827 251.446,-196.3"/>
</g>
<!-- Node7 -->
<g id="node5" class="node"><title>Node7</title>
<g id="a_node5"><a xlink:href="eq__ops_8f90.html#aed8d3363343555190699b29e393b4e23" target="_top" xlink:title="flux_q_plot_hdf5">
<polygon fill="white" stroke="black" points="340,-290 340,-311 453,-311 453,-290 340,-290"/>
<text text-anchor="middle" x="396.5" y="-297.4" font-family="Ubuntu Mono" font-size="12.00">flux_q_plot_hdf5</text>
</a>
</g>
</g>
<!-- Node4&#45;&gt;Node7 -->
<g id="edge4" class="edge"><title>Node4&#45;&gt;Node7</title>
<path fill="none" stroke="midnightblue" d="M265.636,-244.33C284.444,-254.008 307.14,-265.269 328,-274.5 340.403,-279.988 354.354,-285.474 366.34,-289.981"/>
<polygon fill="midnightblue" stroke="midnightblue" points="267.229,-241.213 256.74,-239.721 264.009,-247.429 267.229,-241.213"/>
</g>
<!-- Node12 -->
<g id="node10" class="node"><title>Node12</title>
<g id="a_node10"><a xlink:href="namespaceeq__ops.html#a9ecb744b3812fe838f13c9886307da24" target="_top" xlink:title="eq_ops::kappa_plot">
<polygon fill="white" stroke="black" points="519,-212 519,-233 644,-233 644,-212 519,-212"/>
<text text-anchor="middle" x="581.5" y="-219.4" font-family="Ubuntu Mono" font-size="12.00">eq_ops::kappa_plot</text>
</a>
</g>
</g>
<!-- Node4&#45;&gt;Node12 -->
<g id="edge10" class="edge"><title>Node4&#45;&gt;Node12</title>
<path fill="none" stroke="midnightblue" d="M302.501,-222.5C367.53,-222.5 458.92,-222.5 518.902,-222.5"/>
<polygon fill="midnightblue" stroke="midnightblue" points="302.299,-219 292.299,-222.5 302.299,-226 302.299,-219"/>
</g>
<!-- Node13 -->
<g id="node11" class="node"><title>Node13</title>
<g id="a_node11"><a xlink:href="namespacegrid__ops.html#addd76b7b3be0b51e0863ae0cdfef41e6" target="_top" xlink:title="grid_ops::magn_grid_plot">
<polygon fill="white" stroke="black" points="501,-252 501,-273 662,-273 662,-252 501,-252"/>
<text text-anchor="middle" x="581.5" y="-259.4" font-family="Ubuntu Mono" font-size="12.00">grid_ops::magn_grid_plot</text>
</a>
</g>
</g>
<!-- Node4&#45;&gt;Node13 -->
<g id="edge13" class="edge"><title>Node4&#45;&gt;Node13</title>
<path fill="none" stroke="midnightblue" d="M302.254,-233.289C310.935,-234.413 319.653,-235.506 328,-236.5 385.762,-243.379 451.089,-250.076 500.823,-254.951"/>
<polygon fill="midnightblue" stroke="midnightblue" points="302.474,-229.788 292.105,-231.96 301.565,-236.729 302.474,-229.788"/>
</g>
<!-- Node14 -->
<g id="node12" class="node"><title>Node14</title>
<g id="a_node12"><a xlink:href="namespacegrid__utilities.html#a3076796477d38ffed189868b3b28efb1" target="_top" xlink:title="grid_utilities::calc\l_vec_comp">
<polygon fill="white" stroke="black" points="328,-159.5 328,-193.5 465,-193.5 465,-159.5 328,-159.5"/>
<text text-anchor="start" x="336" y="-179.9" font-family="Ubuntu Mono" font-size="12.00">grid_utilities::calc</text>
<text text-anchor="middle" x="396.5" y="-166.9" font-family="Ubuntu Mono" font-size="12.00">_vec_comp</text>
</a>
</g>
</g>
<!-- Node4&#45;&gt;Node14 -->
<g id="edge16" class="edge"><title>Node4&#45;&gt;Node14</title>
<path fill="none" stroke="midnightblue" d="M298.034,-202.719C309.362,-199.672 320.975,-196.548 332.058,-193.566"/>
<polygon fill="midnightblue" stroke="midnightblue" points="296.922,-199.394 288.174,-205.371 298.74,-206.153 296.922,-199.394"/>
</g>
<!-- Node18 -->
<g id="node16" class="node"><title>Node18</title>
<g id="a_node16"><a xlink:href="namespacetest.html#ac574f08ba400cd61070a6a6f13f6f7ee" target="_top" xlink:title="test::test_read_hdf5\l_subset">
<polygon fill="white" stroke="black" points="328,-0.5 328,-34.5 465,-34.5 465,-0.5 328,-0.5"/>
<text text-anchor="start" x="336" y="-20.9" font-family="Ubuntu Mono" font-size="12.00">test::test_read_hdf5</text>
<text text-anchor="middle" x="396.5" y="-7.9" font-family="Ubuntu Mono" font-size="12.00">_subset</text>
</a>
</g>
</g>
<!-- Node4&#45;&gt;Node18 -->
<g id="edge26" class="edge"><title>Node4&#45;&gt;Node18</title>
<path fill="none" stroke="midnightblue" d="M234.679,-195.634C249.932,-158.495 281.931,-91.3267 328,-49.5 334.433,-43.6592 342.123,-38.6837 349.97,-34.5208"/>
<polygon fill="midnightblue" stroke="midnightblue" points="231.29,-194.682 230.824,-205.267 237.789,-197.284 231.29,-194.682"/>
</g>
<!-- Node20 -->
<g id="node18" class="node"><title>Node20</title>
<g id="a_node18"><a xlink:href="namespacex__ops.html#a766228ae0a64f84c10521a013367cfc8" target="_top" xlink:title="x_ops::resonance_plot">
<polygon fill="white" stroke="black" points="510,-332 510,-353 653,-353 653,-332 510,-332"/>
<text text-anchor="middle" x="581.5" y="-339.4" font-family="Ubuntu Mono" font-size="12.00">x_ops::resonance_plot</text>
</a>
</g>
</g>
<!-- Node4&#45;&gt;Node20 -->
<g id="edge30" class="edge"><title>Node4&#45;&gt;Node20</title>
<path fill="none" stroke="midnightblue" d="M242.839,-247.7C261.414,-271.048 292.421,-304.504 328,-320.5 385.391,-346.302 457.452,-350.143 509.887,-348.507"/>
<polygon fill="midnightblue" stroke="midnightblue" points="245.462,-245.371 236.573,-239.607 239.927,-249.656 245.462,-245.371"/>
</g>
<!-- Node6 -->
<g id="node4" class="node"><title>Node6</title>
<g id="a_node4"><a xlink:href="POST_8f90.html#ac289b64ac4671fea0b4f2298ba1188a1" target="_top" xlink:title="post">
<polygon fill="white" stroke="black" points="919,-152 919,-173 960,-173 960,-152 919,-152"/>
<text text-anchor="middle" x="939.5" y="-159.4" font-family="Ubuntu Mono" font-size="12.00">post</text>
</a>
</g>
</g>
<!-- Node5&#45;&gt;Node6 -->
<g id="edge3" class="edge"><title>Node5&#45;&gt;Node6</title>
<path fill="none" stroke="midnightblue" d="M893.464,-162.5C902.946,-162.5 911.681,-162.5 918.883,-162.5"/>
<polygon fill="midnightblue" stroke="midnightblue" points="893.344,-159 883.344,-162.5 893.344,-166 893.344,-159"/>
</g>
<!-- Node8 -->
<g id="node6" class="node"><title>Node8</title>
<g id="a_node6"><a xlink:href="namespaceeq__ops.html#af0effe20188d46a44680c2648e4572e9" target="_top" xlink:title="eq_ops::flux_q_plot">
<polygon fill="white" stroke="black" points="516,-292 516,-313 647,-313 647,-292 516,-292"/>
<text text-anchor="middle" x="581.5" y="-299.4" font-family="Ubuntu Mono" font-size="12.00">eq_ops::flux_q_plot</text>
</a>
</g>
</g>
<!-- Node7&#45;&gt;Node8 -->
<g id="edge5" class="edge"><title>Node7&#45;&gt;Node8</title>
<path fill="none" stroke="midnightblue" d="M463.799,-301.225C480.798,-301.41 499.056,-301.61 515.965,-301.795"/>
<polygon fill="midnightblue" stroke="midnightblue" points="463.438,-297.721 453.4,-301.111 463.362,-304.72 463.438,-297.721"/>
</g>
<!-- Node9 -->
<g id="node7" class="node"><title>Node9</title>
<g id="a_node7"><a xlink:href="namespacedriver__eq.html#ac8eca434f541966edc3556d72f261eff" target="_top" xlink:title="driver_eq::run_driver_eq">
<polygon fill="white" stroke="black" points="710,-212 710,-233 871,-233 871,-212 710,-212"/>
<text text-anchor="middle" x="790.5" y="-219.4" font-family="Ubuntu Mono" font-size="12.00">driver_eq::run_driver_eq</text>
</a>
</g>
</g>
<!-- Node8&#45;&gt;Node9 -->
<g id="edge6" class="edge"><title>Node8&#45;&gt;Node9</title>
<path fill="none" stroke="midnightblue" d="M642.495,-289.2C649.156,-287.196 655.776,-284.963 662,-282.5 679.019,-275.766 681.596,-270.619 698,-262.5 719.753,-251.733 745.079,-240.78 763.564,-233.064"/>
<polygon fill="midnightblue" stroke="midnightblue" points="641.408,-285.87 632.748,-291.973 643.324,-292.603 641.408,-285.87"/>
</g>
<!-- Node11 -->
<g id="node9" class="node"><title>Node11</title>
<g id="a_node9"><a xlink:href="namespacedriver__post.html#af527706d4e696d4e507443d2f74194ef" target="_top" xlink:title="driver_post::init_post">
<polygon fill="white" stroke="black" points="716,-272 716,-293 865,-293 865,-272 716,-272"/>
<text text-anchor="middle" x="790.5" y="-279.4" font-family="Ubuntu Mono" font-size="12.00">driver_post::init_post</text>
</a>
</g>
</g>
<!-- Node8&#45;&gt;Node11 -->
<g id="edge8" class="edge"><title>Node8&#45;&gt;Node11</title>
<path fill="none" stroke="midnightblue" d="M657.291,-295.274C676.396,-293.428 696.918,-291.445 715.959,-289.605"/>
<polygon fill="midnightblue" stroke="midnightblue" points="656.762,-291.809 647.145,-296.254 657.435,-298.776 656.762,-291.809"/>
</g>
<!-- Node10 -->
<g id="node8" class="node"><title>Node10</title>
<g id="a_node8"><a xlink:href="PB3D_8f90.html#afaee01f014ab3398eecac996b2795fd2" target="_top" xlink:title="pb3d">
<polygon fill="white" stroke="black" points="919,-212 919,-233 960,-233 960,-212 919,-212"/>
<text text-anchor="middle" x="939.5" y="-219.4" font-family="Ubuntu Mono" font-size="12.00">pb3d</text>
</a>
</g>
</g>
<!-- Node9&#45;&gt;Node10 -->
<g id="edge7" class="edge"><title>Node9&#45;&gt;Node10</title>
<path fill="none" stroke="midnightblue" d="M881.401,-222.5C895.492,-222.5 908.735,-222.5 918.913,-222.5"/>
<polygon fill="midnightblue" stroke="midnightblue" points="881.023,-219 871.023,-222.5 881.023,-226 881.023,-219"/>
</g>
<!-- Node11&#45;&gt;Node6 -->
<g id="edge9" class="edge"><title>Node11&#45;&gt;Node6</title>
<path fill="none" stroke="midnightblue" d="M837.009,-268.347C852.649,-262.058 869.582,-253.534 883,-242.5 907.024,-222.745 925.185,-190.06 933.5,-173.237"/>
<polygon fill="midnightblue" stroke="midnightblue" points="835.581,-265.146 827.481,-271.977 838.072,-271.688 835.581,-265.146"/>
</g>
<!-- Node12&#45;&gt;Node5 -->
<g id="edge12" class="edge"><title>Node12&#45;&gt;Node5</title>
<path fill="none" stroke="midnightblue" d="M636.053,-209.476C644.749,-207.232 653.641,-204.861 662,-202.5 694.819,-193.232 731.988,-181.419 757.689,-173.039"/>
<polygon fill="midnightblue" stroke="midnightblue" points="635.184,-206.085 626.358,-211.947 636.913,-212.869 635.184,-206.085"/>
</g>
<!-- Node12&#45;&gt;Node9 -->
<g id="edge11" class="edge"><title>Node12&#45;&gt;Node9</title>
<path fill="none" stroke="midnightblue" d="M654.141,-222.5C672.086,-222.5 691.447,-222.5 709.759,-222.5"/>
<polygon fill="midnightblue" stroke="midnightblue" points="654.046,-219 644.046,-222.5 654.046,-226 654.046,-219"/>
</g>
<!-- Node13&#45;&gt;Node9 -->
<g id="edge14" class="edge"><title>Node13&#45;&gt;Node9</title>
<path fill="none" stroke="midnightblue" d="M647.074,-250.022C675.334,-244.561 708.127,-238.224 735.117,-233.009"/>
<polygon fill="midnightblue" stroke="midnightblue" points="646.041,-246.657 636.887,-251.99 647.369,-253.53 646.041,-246.657"/>
</g>
<!-- Node13&#45;&gt;Node11 -->
<g id="edge15" class="edge"><title>Node13&#45;&gt;Node11</title>
<path fill="none" stroke="midnightblue" d="M672.254,-271.172C686.831,-272.58 701.779,-274.025 715.912,-275.39"/>
<polygon fill="midnightblue" stroke="midnightblue" points="672.526,-267.682 662.236,-270.204 671.853,-274.649 672.526,-267.682"/>
</g>
<!-- Node14&#45;&gt;Node12 -->
<g id="edge23" class="edge"><title>Node14&#45;&gt;Node12</title>
<path fill="none" stroke="midnightblue" d="M475.053,-195.994C496.872,-201.479 519.775,-207.236 538.64,-211.978"/>
<polygon fill="midnightblue" stroke="midnightblue" points="475.674,-192.542 465.123,-193.498 473.968,-199.33 475.674,-192.542"/>
</g>
<!-- Node15 -->
<g id="node13" class="node"><title>Node15</title>
<g id="a_node13"><a xlink:href="namespaceeq__ops.html#a9dab060a0bbbbaf6c8ccb66e1f5f160b" target="_top" xlink:title="eq_ops::b_plot">
<polygon fill="white" stroke="black" points="531,-132 531,-153 632,-153 632,-132 531,-132"/>
<text text-anchor="middle" x="581.5" y="-139.4" font-family="Ubuntu Mono" font-size="12.00">eq_ops::b_plot</text>
</a>
</g>
</g>
<!-- Node14&#45;&gt;Node15 -->
<g id="edge17" class="edge"><title>Node14&#45;&gt;Node15</title>
<path fill="none" stroke="midnightblue" d="M475.197,-162.065C494.061,-158.56 513.726,-154.906 530.885,-151.718"/>
<polygon fill="midnightblue" stroke="midnightblue" points="474.315,-158.668 465.123,-163.936 475.594,-165.551 474.315,-158.668"/>
</g>
<!-- Node16 -->
<g id="node14" class="node"><title>Node16</title>
<g id="a_node14"><a xlink:href="namespaceeq__ops.html#af611fc0c83d1ab5ed8940d9a1a652d6c" target="_top" xlink:title="eq_ops::j_plot">
<polygon fill="white" stroke="black" points="531,-172 531,-193 632,-193 632,-172 531,-172"/>
<text text-anchor="middle" x="581.5" y="-179.4" font-family="Ubuntu Mono" font-size="12.00">eq_ops::j_plot</text>
</a>
</g>
</g>
<!-- Node14&#45;&gt;Node16 -->
<g id="edge20" class="edge"><title>Node14&#45;&gt;Node16</title>
<path fill="none" stroke="midnightblue" d="M475.197,-179.047C494.061,-179.666 513.726,-180.311 530.885,-180.873"/>
<polygon fill="midnightblue" stroke="midnightblue" points="475.232,-175.547 465.123,-178.717 475.002,-182.543 475.232,-175.547"/>
</g>
<!-- Node17 -->
<g id="node15" class="node"><title>Node17</title>
<g id="a_node15"><a xlink:href="namespacesol__ops.html#ae14af60a6f8f77e7dde1e93dbaa7e6d0" target="_top" xlink:title="sol_ops::plot_sol_vec">
<polygon fill="white" stroke="black" points="510,-92 510,-113 653,-113 653,-92 510,-92"/>
<text text-anchor="middle" x="581.5" y="-99.4" font-family="Ubuntu Mono" font-size="12.00">sol_ops::plot_sol_vec</text>
</a>
</g>
</g>
<!-- Node14&#45;&gt;Node17 -->
<g id="edge24" class="edge"><title>Node14&#45;&gt;Node17</title>
<path fill="none" stroke="midnightblue" d="M434.852,-154.296C454.109,-143.556 478.271,-131.151 501,-122.5 510.444,-118.906 520.765,-115.767 530.749,-113.107"/>
<polygon fill="midnightblue" stroke="midnightblue" points="433.075,-151.279 426.097,-159.251 436.524,-157.371 433.075,-151.279"/>
</g>
<!-- Node15&#45;&gt;Node5 -->
<g id="edge19" class="edge"><title>Node15&#45;&gt;Node5</title>
<path fill="none" stroke="midnightblue" d="M642.069,-148.255C659.463,-149.936 678.889,-151.813 697.785,-153.639"/>
<polygon fill="midnightblue" stroke="midnightblue" points="642.372,-144.769 632.082,-147.29 641.699,-151.736 642.372,-144.769"/>
</g>
<!-- Node15&#45;&gt;Node9 -->
<g id="edge18" class="edge"><title>Node15&#45;&gt;Node9</title>
<path fill="none" stroke="midnightblue" d="M642.209,-155.714C648.966,-157.741 655.687,-160.002 662,-162.5 679.019,-169.234 681.596,-174.381 698,-182.5 719.753,-193.267 745.079,-204.22 763.564,-211.936"/>
<polygon fill="midnightblue" stroke="midnightblue" points="642.901,-152.273 632.326,-152.913 640.993,-159.007 642.901,-152.273"/>
</g>
<!-- Node16&#45;&gt;Node5 -->
<g id="edge22" class="edge"><title>Node16&#45;&gt;Node5</title>
<path fill="none" stroke="midnightblue" d="M642.069,-176.745C659.463,-175.064 678.889,-173.187 697.785,-171.361"/>
<polygon fill="midnightblue" stroke="midnightblue" points="641.699,-173.264 632.082,-177.71 642.372,-180.231 641.699,-173.264"/>
</g>
<!-- Node16&#45;&gt;Node9 -->
<g id="edge21" class="edge"><title>Node16&#45;&gt;Node9</title>
<path fill="none" stroke="midnightblue" d="M642.162,-194.029C671.391,-199.677 706.342,-206.431 734.867,-211.943"/>
<polygon fill="midnightblue" stroke="midnightblue" points="642.564,-190.542 632.082,-192.081 641.236,-197.415 642.564,-190.542"/>
</g>
<!-- Node17&#45;&gt;Node5 -->
<g id="edge25" class="edge"><title>Node17&#45;&gt;Node5</title>
<path fill="none" stroke="midnightblue" d="M642.495,-115.8C649.156,-117.804 655.776,-120.037 662,-122.5 679.019,-129.234 680.877,-136.033 698,-142.5 707.888,-146.235 718.653,-149.362 729.213,-151.95"/>
<polygon fill="midnightblue" stroke="midnightblue" points="643.324,-112.397 632.748,-113.027 641.408,-119.13 643.324,-112.397"/>
</g>
<!-- Node19 -->
<g id="node17" class="node"><title>Node19</title>
<g id="a_node17"><a xlink:href="namespacetest.html#aca21ee464c0b1f4b617177afdde110ec" target="_top" xlink:title="test::generic_tests">
<polygon fill="white" stroke="black" points="725,-112 725,-133 856,-133 856,-112 725,-112"/>
<text text-anchor="middle" x="790.5" y="-119.4" font-family="Ubuntu Mono" font-size="12.00">test::generic_tests</text>
</a>
</g>
</g>
<!-- Node18&#45;&gt;Node19 -->
<g id="edge27" class="edge"><title>Node18&#45;&gt;Node19</title>
<path fill="none" stroke="midnightblue" d="M475.276,-18.8022C528.936,-21.6423 601.266,-29.3602 662,-49.5 706.547,-64.272 752.924,-95.5212 775.488,-111.93"/>
<polygon fill="midnightblue" stroke="midnightblue" points="475.299,-15.2994 465.142,-18.3119 474.961,-22.2912 475.299,-15.2994"/>
</g>
<!-- Node19&#45;&gt;Node6 -->
<g id="edge29" class="edge"><title>Node19&#45;&gt;Node6</title>
<path fill="none" stroke="midnightblue" d="M855.49,-135.368C864.768,-137.557 874.165,-139.954 883,-142.5 895.105,-145.988 908.39,-150.741 918.927,-154.739"/>
<polygon fill="midnightblue" stroke="midnightblue" points="856.029,-131.901 845.5,-133.076 854.464,-138.723 856.029,-131.901"/>
</g>
<!-- Node19&#45;&gt;Node10 -->
<g id="edge28" class="edge"><title>Node19&#45;&gt;Node10</title>
<path fill="none" stroke="midnightblue" d="M865.742,-133.577C871.83,-136.001 877.679,-138.939 883,-142.5 909.13,-159.986 926.588,-194.294 934.182,-211.749"/>
<polygon fill="midnightblue" stroke="midnightblue" points="866.613,-130.174 856.018,-130.177 864.303,-136.782 866.613,-130.174"/>
</g>
<!-- Node20&#45;&gt;Node11 -->
<g id="edge31" class="edge"><title>Node20&#45;&gt;Node11</title>
<path fill="none" stroke="midnightblue" d="M636.053,-329.476C644.749,-327.232 653.641,-324.861 662,-322.5 694.819,-313.232 731.988,-301.419 757.689,-293.039"/>
<polygon fill="midnightblue" stroke="midnightblue" points="635.184,-326.085 626.358,-331.947 636.913,-332.869 635.184,-326.085"/>
</g>
<!-- Node21 -->
<g id="node19" class="node"><title>Node21</title>
<g id="a_node19"><a xlink:href="namespacedriver__x.html#ada3d72a0929daaa5e3da585246d62281" target="_top" xlink:title="driver_x::run_driver_x">
<polygon fill="white" stroke="black" points="716,-322 716,-343 865,-343 865,-322 716,-322"/>
<text text-anchor="middle" x="790.5" y="-329.4" font-family="Ubuntu Mono" font-size="12.00">driver_x::run_driver_x</text>
</a>
</g>
</g>
<!-- Node20&#45;&gt;Node21 -->
<g id="edge32" class="edge"><title>Node20&#45;&gt;Node21</title>
<path fill="none" stroke="midnightblue" d="M663.267,-338.598C680.638,-337.759 698.908,-336.876 715.986,-336.051"/>
<polygon fill="midnightblue" stroke="midnightblue" points="662.978,-335.108 653.159,-339.087 663.316,-342.1 662.978,-335.108"/>
</g>
<!-- Node21&#45;&gt;Node10 -->
<g id="edge33" class="edge"><title>Node21&#45;&gt;Node10</title>
<path fill="none" stroke="midnightblue" d="M852.981,-318.463C863.595,-314.378 874.072,-309.155 883,-302.5 908.073,-283.811 925.892,-250.355 933.847,-233.235"/>
<polygon fill="midnightblue" stroke="midnightblue" points="851.498,-315.275 843.234,-321.904 853.829,-321.875 851.498,-315.275"/>
</g>
</g>
</svg>
