<?xml version="1.0" encoding="UTF-8" standalone="no"?>
<!DOCTYPE svg PUBLIC "-//W3C//DTD SVG 1.1//EN"
 "http://www.w3.org/Graphics/SVG/1.1/DTD/svg11.dtd">
<!-- Generated by graphviz version 2.38.0 (20140413.2041)
 -->
<!-- Title: interp_var_7d_real_ow Pages: 1 -->
<svg width="795pt" height="110pt"
 viewBox="0.00 0.00 795.00 110.00" xmlns="http://www.w3.org/2000/svg" xmlns:xlink="http://www.w3.org/1999/xlink">
<g id="graph0" class="graph" transform="scale(1 1) rotate(0) translate(4 106)">
<title>interp_var_7d_real_ow</title>
<polygon fill="white" stroke="none" points="-4,4 -4,-106 791,-106 791,4 -4,4"/>
<!-- Node13 -->
<g id="node1" class="node"><title>Node13</title>
<polygon fill="#bfbfbf" stroke="black" points="0,-40.5 0,-61.5 143,-61.5 143,-40.5 0,-40.5"/>
<text text-anchor="middle" x="71.5" y="-47.9" font-family="Ubuntu Mono" font-size="12.00">interp_var_7d_real_ow</text>
</g>
<!-- Node14 -->
<g id="node2" class="node"><title>Node14</title>
<g id="a_node2"><a xlink:href="namespacehelena__ops.html#a7796861de18ae7ac9c3aa07a8628be38" target="_top" xlink:title="helena_ops::interp\l_hel_on_grid">
<polygon fill="white" stroke="black" points="179,-34 179,-68 304,-68 304,-34 179,-34"/>
<text text-anchor="start" x="187" y="-54.4" font-family="Ubuntu Mono" font-size="12.00">helena_ops::interp</text>
<text text-anchor="middle" x="241.5" y="-41.4" font-family="Ubuntu Mono" font-size="12.00">_hel_on_grid</text>
</a>
</g>
</g>
<!-- Node13&#45;&gt;Node14 -->
<g id="edge1" class="edge"><title>Node13&#45;&gt;Node14</title>
<path fill="none" stroke="midnightblue" d="M153.311,-51C161.909,-51 170.552,-51 178.878,-51"/>
<polygon fill="midnightblue" stroke="midnightblue" points="153.26,-47.5001 143.26,-51 153.26,-54.5001 153.26,-47.5001"/>
</g>
<!-- Node15 -->
<g id="node3" class="node"><title>Node15</title>
<g id="a_node3"><a xlink:href="namespacedriver__post.html#a33b3c6f9018a0ddc92dce77394b8ab37" target="_top" xlink:title="driver_post::run_driver_post">
<polygon fill="white" stroke="black" points="340,-80.5 340,-101.5 525,-101.5 525,-80.5 340,-80.5"/>
<text text-anchor="middle" x="432.5" y="-87.9" font-family="Ubuntu Mono" font-size="12.00">driver_post::run_driver_post</text>
</a>
</g>
</g>
<!-- Node14&#45;&gt;Node15 -->
<g id="edge2" class="edge"><title>Node14&#45;&gt;Node15</title>
<path fill="none" stroke="midnightblue" d="M313.989,-66.1299C336.525,-70.8994 360.92,-76.0623 381.611,-80.4415"/>
<polygon fill="midnightblue" stroke="midnightblue" points="314.632,-62.6886 304.124,-64.0421 313.183,-69.5369 314.632,-62.6886"/>
</g>
<!-- Node17 -->
<g id="node5" class="node"><title>Node17</title>
<g id="a_node5"><a xlink:href="namespacedriver__x.html#a2b82a9bc6c0f4af9f3468d03fedc008e" target="_top" xlink:title="driver_x::run_driver_x_0">
<polygon fill="white" stroke="black" points="352,-40.5 352,-61.5 513,-61.5 513,-40.5 352,-40.5"/>
<text text-anchor="middle" x="432.5" y="-47.9" font-family="Ubuntu Mono" font-size="12.00">driver_x::run_driver_x_0</text>
</a>
</g>
</g>
<!-- Node14&#45;&gt;Node17 -->
<g id="edge4" class="edge"><title>Node14&#45;&gt;Node17</title>
<path fill="none" stroke="midnightblue" d="M314.258,-51C326.497,-51 339.277,-51 351.709,-51"/>
<polygon fill="midnightblue" stroke="midnightblue" points="314.124,-47.5001 304.124,-51 314.124,-54.5001 314.124,-47.5001"/>
</g>
<!-- Node20 -->
<g id="node8" class="node"><title>Node20</title>
<g id="a_node8"><a xlink:href="namespacedriver__x.html#ad3924b3d66f336f0a9a9559eafffec8e" target="_top" xlink:title="driver_x::run_driver_x_2">
<polygon fill="white" stroke="black" points="352,-0.5 352,-21.5 513,-21.5 513,-0.5 352,-0.5"/>
<text text-anchor="middle" x="432.5" y="-7.9" font-family="Ubuntu Mono" font-size="12.00">driver_x::run_driver_x_2</text>
</a>
</g>
</g>
<!-- Node14&#45;&gt;Node20 -->
<g id="edge7" class="edge"><title>Node14&#45;&gt;Node20</title>
<path fill="none" stroke="midnightblue" d="M313.989,-35.8701C336.525,-31.1006 360.92,-25.9377 381.611,-21.5585"/>
<polygon fill="midnightblue" stroke="midnightblue" points="313.183,-32.4631 304.124,-37.9579 314.632,-39.3114 313.183,-32.4631"/>
</g>
<!-- Node16 -->
<g id="node4" class="node"><title>Node16</title>
<g id="a_node4"><a xlink:href="POST_8f90.html#ac289b64ac4671fea0b4f2298ba1188a1" target="_top" xlink:title="post">
<polygon fill="white" stroke="black" points="615,-80.5 615,-101.5 656,-101.5 656,-80.5 615,-80.5"/>
<text text-anchor="middle" x="635.5" y="-87.9" font-family="Ubuntu Mono" font-size="12.00">post</text>
</a>
</g>
</g>
<!-- Node15&#45;&gt;Node16 -->
<g id="edge3" class="edge"><title>Node15&#45;&gt;Node16</title>
<path fill="none" stroke="midnightblue" d="M535.423,-91C565.664,-91 595.733,-91 614.674,-91"/>
<polygon fill="midnightblue" stroke="midnightblue" points="535.177,-87.5001 525.177,-91 535.177,-94.5001 535.177,-87.5001"/>
</g>
<!-- Node18 -->
<g id="node6" class="node"><title>Node18</title>
<g id="a_node6"><a xlink:href="namespacedriver__x.html#ada3d72a0929daaa5e3da585246d62281" target="_top" xlink:title="driver_x::run_driver_x">
<polygon fill="white" stroke="black" points="561,-20.5 561,-41.5 710,-41.5 710,-20.5 561,-20.5"/>
<text text-anchor="middle" x="635.5" y="-27.9" font-family="Ubuntu Mono" font-size="12.00">driver_x::run_driver_x</text>
</a>
</g>
</g>
<!-- Node17&#45;&gt;Node18 -->
<g id="edge5" class="edge"><title>Node17&#45;&gt;Node18</title>
<path fill="none" stroke="midnightblue" d="M523.227,-42.072C535.772,-40.8237 548.544,-39.5529 560.748,-38.3385"/>
<polygon fill="midnightblue" stroke="midnightblue" points="522.833,-38.5937 513.229,-43.0667 523.527,-45.5593 522.833,-38.5937"/>
</g>
<!-- Node19 -->
<g id="node7" class="node"><title>Node19</title>
<g id="a_node7"><a xlink:href="PB3D_8f90.html#afaee01f014ab3398eecac996b2795fd2" target="_top" xlink:title="pb3d">
<polygon fill="white" stroke="black" points="746,-20.5 746,-41.5 787,-41.5 787,-20.5 746,-20.5"/>
<text text-anchor="middle" x="766.5" y="-27.9" font-family="Ubuntu Mono" font-size="12.00">pb3d</text>
</a>
</g>
</g>
<!-- Node18&#45;&gt;Node19 -->
<g id="edge6" class="edge"><title>Node18&#45;&gt;Node19</title>
<path fill="none" stroke="midnightblue" d="M720.141,-31C729.656,-31 738.56,-31 745.916,-31"/>
<polygon fill="midnightblue" stroke="midnightblue" points="720.044,-27.5001 710.044,-31 720.044,-34.5001 720.044,-27.5001"/>
</g>
<!-- Node20&#45;&gt;Node18 -->
<g id="edge8" class="edge"><title>Node20&#45;&gt;Node18</title>
<path fill="none" stroke="midnightblue" d="M523.227,-19.928C535.772,-21.1763 548.544,-22.4471 560.748,-23.6615"/>
<polygon fill="midnightblue" stroke="midnightblue" points="523.527,-16.4407 513.229,-18.9333 522.833,-23.4063 523.527,-16.4407"/>
</g>
</g>
</svg>
