<?xml version="1.0" encoding="UTF-8" standalone="no"?>
<!DOCTYPE svg PUBLIC "-//W3C//DTD SVG 1.1//EN"
 "http://www.w3.org/Graphics/SVG/1.1/DTD/svg11.dtd">
<!-- Generated by graphviz version 2.38.0 (20140413.2041)
 -->
<!-- Title: adapt_run_pb3d Pages: 1 -->
<svg width="395pt" height="70pt"
 viewBox="0.00 0.00 395.00 70.00" xmlns="http://www.w3.org/2000/svg" xmlns:xlink="http://www.w3.org/1999/xlink">
<g id="graph0" class="graph" transform="scale(1 1) rotate(0) translate(4 66)">
<title>adapt_run_pb3d</title>
<polygon fill="white" stroke="none" points="-4,4 -4,-66 391,-66 391,4 -4,4"/>
<!-- Node28 -->
<g id="node1" class="node"><title>Node28</title>
<polygon fill="#bfbfbf" stroke="black" points="0,-20.5 0,-41.5 101,-41.5 101,-20.5 0,-20.5"/>
<text text-anchor="middle" x="50.5" y="-27.9" font-family="Ubuntu Mono" font-size="12.00">adapt_run_pb3d</text>
</g>
<!-- Node29 -->
<g id="node2" class="node"><title>Node29</title>
<g id="a_node2"><a xlink:href="namespaceinput__ops.html#a434acca4f59f9dc1d91e04f846133684" target="_top" xlink:title="input_ops::read_input_opts">
<polygon fill="white" stroke="black" points="137,-20.5 137,-41.5 310,-41.5 310,-20.5 137,-20.5"/>
<text text-anchor="middle" x="223.5" y="-27.9" font-family="Ubuntu Mono" font-size="12.00">input_ops::read_input_opts</text>
</a>
</g>
</g>
<!-- Node28&#45;&gt;Node29 -->
<g id="edge1" class="edge"><title>Node28&#45;&gt;Node29</title>
<path fill="none" stroke="midnightblue" d="M111.575,-31C119.756,-31 128.28,-31 136.805,-31"/>
<polygon fill="midnightblue" stroke="midnightblue" points="111.42,-27.5001 101.42,-31 111.42,-34.5001 111.42,-27.5001"/>
</g>
<!-- Node30 -->
<g id="node3" class="node"><title>Node30</title>
<g id="a_node3"><a xlink:href="PB3D_8f90.html#afaee01f014ab3398eecac996b2795fd2" target="_top" xlink:title="pb3d">
<polygon fill="white" stroke="black" points="346,-40.5 346,-61.5 387,-61.5 387,-40.5 346,-40.5"/>
<text text-anchor="middle" x="366.5" y="-47.9" font-family="Ubuntu Mono" font-size="12.00">pb3d</text>
</a>
</g>
</g>
<!-- Node29&#45;&gt;Node30 -->
<g id="edge2" class="edge"><title>Node29&#45;&gt;Node30</title>
<path fill="none" stroke="midnightblue" d="M308.835,-42.9624C322.597,-44.9145 335.627,-46.7627 345.715,-48.1936"/>
<polygon fill="midnightblue" stroke="midnightblue" points="309.109,-39.4663 298.716,-41.5271 308.126,-46.3969 309.109,-39.4663"/>
</g>
<!-- Node31 -->
<g id="node4" class="node"><title>Node31</title>
<g id="a_node4"><a xlink:href="POST_8f90.html#ac289b64ac4671fea0b4f2298ba1188a1" target="_top" xlink:title="post">
<polygon fill="white" stroke="black" points="346,-0.5 346,-21.5 387,-21.5 387,-0.5 346,-0.5"/>
<text text-anchor="middle" x="366.5" y="-7.9" font-family="Ubuntu Mono" font-size="12.00">post</text>
</a>
</g>
</g>
<!-- Node29&#45;&gt;Node31 -->
<g id="edge3" class="edge"><title>Node29&#45;&gt;Node31</title>
<path fill="none" stroke="midnightblue" d="M308.835,-19.0376C322.597,-17.0855 335.627,-15.2373 345.715,-13.8064"/>
<polygon fill="midnightblue" stroke="midnightblue" points="308.126,-15.6031 298.716,-20.4729 309.109,-22.5337 308.126,-15.6031"/>
</g>
</g>
</svg>
