<?xml version="1.0" encoding="UTF-8" standalone="no"?>
<!DOCTYPE svg PUBLIC "-//W3C//DTD SVG 1.1//EN"
 "http://www.w3.org/Graphics/SVG/1.1/DTD/svg11.dtd">
<!-- Generated by graphviz version 2.38.0 (20140413.2041)
 -->
<!-- Title: adapt_min_n_par_x Pages: 1 -->
<svg width="664pt" height="130pt"
 viewBox="0.00 0.00 664.00 130.00" xmlns="http://www.w3.org/2000/svg" xmlns:xlink="http://www.w3.org/1999/xlink">
<g id="graph0" class="graph" transform="scale(1 1) rotate(0) translate(4 126)">
<title>adapt_min_n_par_x</title>
<polygon fill="white" stroke="none" points="-4,4 -4,-126 660,-126 660,4 -4,4"/>
<!-- Node0 -->
<g id="node1" class="node"><title>Node0</title>
<polygon fill="#bfbfbf" stroke="black" points="0,-40.5 0,-61.5 119,-61.5 119,-40.5 0,-40.5"/>
<text text-anchor="middle" x="59.5" y="-47.9" font-family="Ubuntu Mono" font-size="12.00">adapt_min_n_par_x</text>
</g>
<!-- Node1 -->
<g id="node2" class="node"><title>Node1</title>
<g id="a_node2"><a xlink:href="namespacemessages.html#aa4a8d01563e92558e8a0875b075ec54c" target="_top" xlink:title="messages::writo">
<polygon fill="white" stroke="black" points="173,-80.5 173,-101.5 280,-101.5 280,-80.5 173,-80.5"/>
<text text-anchor="middle" x="226.5" y="-87.9" font-family="Ubuntu Mono" font-size="12.00">messages::writo</text>
</a>
</g>
</g>
<!-- Node0&#45;&gt;Node1 -->
<g id="edge1" class="edge"><title>Node0&#45;&gt;Node1</title>
<path fill="none" stroke="midnightblue" d="M103.852,-61.5095C124.8,-66.588 150.133,-72.7292 172.246,-78.0898"/>
<polygon fill="midnightblue" stroke="midnightblue" points="171.608,-81.5367 182.152,-80.4913 173.258,-74.7337 171.608,-81.5367"/>
</g>
<!-- Node5 -->
<g id="node6" class="node"><title>Node5</title>
<g id="a_node6"><a xlink:href="namespacestr__utilities.html#a0b97e51770725a3e98ed393d26681414" target="_top" xlink:title="str_utilities::i2str">
<polygon fill="white" stroke="black" points="158,-40.5 158,-61.5 295,-61.5 295,-40.5 158,-40.5"/>
<text text-anchor="middle" x="226.5" y="-47.9" font-family="Ubuntu Mono" font-size="12.00">str_utilities::i2str</text>
</a>
</g>
</g>
<!-- Node0&#45;&gt;Node5 -->
<g id="edge5" class="edge"><title>Node0&#45;&gt;Node5</title>
<path fill="none" stroke="midnightblue" d="M119.137,-51C128.321,-51 137.935,-51 147.47,-51"/>
<polygon fill="midnightblue" stroke="midnightblue" points="147.761,-54.5001 157.761,-51 147.761,-47.5001 147.761,-54.5001"/>
</g>
<!-- Node6 -->
<g id="node7" class="node"><title>Node6</title>
<g id="a_node7"><a xlink:href="namespacestr__utilities.html#ac778d706b2e021672618939ab58fdd32" target="_top" xlink:title="str_utilities::r2strt">
<polygon fill="white" stroke="black" points="155,-0.5 155,-21.5 298,-21.5 298,-0.5 155,-0.5"/>
<text text-anchor="middle" x="226.5" y="-7.9" font-family="Ubuntu Mono" font-size="12.00">str_utilities::r2strt</text>
</a>
</g>
</g>
<!-- Node0&#45;&gt;Node6 -->
<g id="edge6" class="edge"><title>Node0&#45;&gt;Node6</title>
<path fill="none" stroke="midnightblue" d="M103.852,-40.4905C124.8,-35.412 150.133,-29.2708 172.246,-23.9102"/>
<polygon fill="midnightblue" stroke="midnightblue" points="173.258,-27.2663 182.152,-21.5087 171.608,-20.4633 173.258,-27.2663"/>
</g>
<!-- Node2 -->
<g id="node3" class="node"><title>Node2</title>
<g id="a_node3"><a xlink:href="namespacemessages.html#a82dddaab795b78b3d39e1ff1aab2f665" target="_top" xlink:title="messages::get_mem_usage">
<polygon fill="white" stroke="black" points="334,-100.5 334,-121.5 489,-121.5 489,-100.5 334,-100.5"/>
<text text-anchor="middle" x="411.5" y="-107.9" font-family="Ubuntu Mono" font-size="12.00">messages::get_mem_usage</text>
</a>
</g>
</g>
<!-- Node1&#45;&gt;Node2 -->
<g id="edge2" class="edge"><title>Node1&#45;&gt;Node2</title>
<path fill="none" stroke="midnightblue" d="M280.431,-96.7848C293.982,-98.2658 308.915,-99.8978 323.685,-101.512"/>
<polygon fill="midnightblue" stroke="midnightblue" points="323.544,-105.017 333.865,-102.625 324.304,-98.0588 323.544,-105.017"/>
</g>
<!-- Node3 -->
<g id="node4" class="node"><title>Node3</title>
<g id="a_node4"><a xlink:href="messages_8f90.html#a6d15f28783f95a7a4b2a44185619792f" target="_top" xlink:title="format_str">
<polygon fill="white" stroke="black" points="373,-60.5 373,-81.5 450,-81.5 450,-60.5 373,-60.5"/>
<text text-anchor="middle" x="411.5" y="-67.9" font-family="Ubuntu Mono" font-size="12.00">format_str</text>
</a>
</g>
</g>
<!-- Node1&#45;&gt;Node3 -->
<g id="edge3" class="edge"><title>Node1&#45;&gt;Node3</title>
<path fill="none" stroke="midnightblue" d="M280.431,-85.2152C306.409,-82.3761 337.463,-78.9821 362.713,-76.2226"/>
<polygon fill="midnightblue" stroke="midnightblue" points="363.23,-79.6871 372.79,-75.1213 362.469,-72.7285 363.23,-79.6871"/>
</g>
<!-- Node4 -->
<g id="node5" class="node"><title>Node4</title>
<g id="a_node5"><a xlink:href="namespacemessages.html#a61fd0b51b5e37d58fdc993c01792a3fd" target="_top" xlink:title="messages::get_clock">
<polygon fill="white" stroke="black" points="525,-60.5 525,-81.5 656,-81.5 656,-60.5 525,-60.5"/>
<text text-anchor="middle" x="590.5" y="-67.9" font-family="Ubuntu Mono" font-size="12.00">messages::get_clock</text>
</a>
</g>
</g>
<!-- Node3&#45;&gt;Node4 -->
<g id="edge4" class="edge"><title>Node3&#45;&gt;Node4</title>
<path fill="none" stroke="midnightblue" d="M450.037,-71C468.869,-71 492.372,-71 514.685,-71"/>
<polygon fill="midnightblue" stroke="midnightblue" points="514.832,-74.5001 524.832,-71 514.832,-67.5001 514.832,-74.5001"/>
</g>
</g>
</svg>
