<?xml version="1.0" encoding="UTF-8" standalone="no"?>
<!DOCTYPE svg PUBLIC "-//W3C//DTD SVG 1.1//EN"
 "http://www.w3.org/Graphics/SVG/1.1/DTD/svg11.dtd">
<!-- Generated by graphviz version 2.38.0 (20140413.2041)
 -->
<!-- Title: adapt_rich Pages: 1 -->
<svg width="622pt" height="170pt"
 viewBox="0.00 0.00 622.00 170.00" xmlns="http://www.w3.org/2000/svg" xmlns:xlink="http://www.w3.org/1999/xlink">
<g id="graph0" class="graph" transform="scale(1 1) rotate(0) translate(4 166)">
<title>adapt_rich</title>
<polygon fill="white" stroke="none" points="-4,4 -4,-166 618,-166 618,4 -4,4"/>
<!-- Node11 -->
<g id="node1" class="node"><title>Node11</title>
<polygon fill="#bfbfbf" stroke="black" points="0,-60.5 0,-81.5 77,-81.5 77,-60.5 0,-60.5"/>
<text text-anchor="middle" x="38.5" y="-67.9" font-family="Ubuntu Mono" font-size="12.00">adapt_rich</text>
</g>
<!-- Node12 -->
<g id="node2" class="node"><title>Node12</title>
<g id="a_node2"><a xlink:href="namespacemessages.html#aa4a8d01563e92558e8a0875b075ec54c" target="_top" xlink:title="messages::writo">
<polygon fill="white" stroke="black" points="131,-120.5 131,-141.5 238,-141.5 238,-120.5 131,-120.5"/>
<text text-anchor="middle" x="184.5" y="-127.9" font-family="Ubuntu Mono" font-size="12.00">messages::writo</text>
</a>
</g>
</g>
<!-- Node11&#45;&gt;Node12 -->
<g id="edge1" class="edge"><title>Node11&#45;&gt;Node12</title>
<path fill="none" stroke="midnightblue" d="M56.491,-81.6601C71.0571,-90.4494 92.8234,-102.767 113,-111 118.721,-113.334 124.808,-115.502 130.916,-117.484"/>
<polygon fill="midnightblue" stroke="midnightblue" points="129.897,-120.832 140.484,-120.44 131.963,-114.144 129.897,-120.832"/>
</g>
<!-- Node16 -->
<g id="node6" class="node"><title>Node16</title>
<g id="a_node6"><a xlink:href="namespacestr__utilities.html#ac778d706b2e021672618939ab58fdd32" target="_top" xlink:title="str_utilities::r2strt">
<polygon fill="white" stroke="black" points="113,-80.5 113,-101.5 256,-101.5 256,-80.5 113,-80.5"/>
<text text-anchor="middle" x="184.5" y="-87.9" font-family="Ubuntu Mono" font-size="12.00">str_utilities::r2strt</text>
</a>
</g>
</g>
<!-- Node11&#45;&gt;Node16 -->
<g id="edge5" class="edge"><title>Node11&#45;&gt;Node16</title>
<path fill="none" stroke="midnightblue" d="M77.3343,-76.2548C85.2656,-77.3563 93.9169,-78.5579 102.747,-79.7842"/>
<polygon fill="midnightblue" stroke="midnightblue" points="102.376,-83.2663 112.762,-81.1753 103.339,-76.3328 102.376,-83.2663"/>
</g>
<!-- Node17 -->
<g id="node7" class="node"><title>Node17</title>
<g id="a_node7"><a xlink:href="namespacestr__utilities.html#a92ac6c0af1979df094de1caddd28ade0" target="_top" xlink:title="str_utilities::r2str">
<polygon fill="white" stroke="black" points="116,-40.5 116,-61.5 253,-61.5 253,-40.5 116,-40.5"/>
<text text-anchor="middle" x="184.5" y="-47.9" font-family="Ubuntu Mono" font-size="12.00">str_utilities::r2str</text>
</a>
</g>
</g>
<!-- Node11&#45;&gt;Node17 -->
<g id="edge6" class="edge"><title>Node11&#45;&gt;Node17</title>
<path fill="none" stroke="midnightblue" d="M77.3343,-65.7452C86.2089,-64.5127 95.985,-63.1549 105.904,-61.7773"/>
<polygon fill="midnightblue" stroke="midnightblue" points="106.418,-65.2395 115.842,-60.397 105.455,-58.306 106.418,-65.2395"/>
</g>
<!-- Node18 -->
<g id="node8" class="node"><title>Node18</title>
<g id="a_node8"><a xlink:href="namespacestr__utilities.html#a0b97e51770725a3e98ed393d26681414" target="_top" xlink:title="str_utilities::i2str">
<polygon fill="white" stroke="black" points="116,-0.5 116,-21.5 253,-21.5 253,-0.5 116,-0.5"/>
<text text-anchor="middle" x="184.5" y="-7.9" font-family="Ubuntu Mono" font-size="12.00">str_utilities::i2str</text>
</a>
</g>
</g>
<!-- Node11&#45;&gt;Node18 -->
<g id="edge7" class="edge"><title>Node11&#45;&gt;Node18</title>
<path fill="none" stroke="midnightblue" d="M56.491,-60.3399C71.0571,-51.5506 92.8234,-39.2326 113,-31 118.721,-28.6659 124.808,-26.4976 130.916,-24.5162"/>
<polygon fill="midnightblue" stroke="midnightblue" points="131.963,-27.8561 140.484,-21.5596 129.897,-21.1681 131.963,-27.8561"/>
</g>
<!-- Node13 -->
<g id="node3" class="node"><title>Node13</title>
<g id="a_node3"><a xlink:href="namespacemessages.html#a82dddaab795b78b3d39e1ff1aab2f665" target="_top" xlink:title="messages::get_mem_usage">
<polygon fill="white" stroke="black" points="292,-140.5 292,-161.5 447,-161.5 447,-140.5 292,-140.5"/>
<text text-anchor="middle" x="369.5" y="-147.9" font-family="Ubuntu Mono" font-size="12.00">messages::get_mem_usage</text>
</a>
</g>
</g>
<!-- Node12&#45;&gt;Node13 -->
<g id="edge2" class="edge"><title>Node12&#45;&gt;Node13</title>
<path fill="none" stroke="midnightblue" d="M238.431,-136.785C251.982,-138.266 266.915,-139.898 281.685,-141.512"/>
<polygon fill="midnightblue" stroke="midnightblue" points="281.544,-145.017 291.865,-142.625 282.304,-138.059 281.544,-145.017"/>
</g>
<!-- Node14 -->
<g id="node4" class="node"><title>Node14</title>
<g id="a_node4"><a xlink:href="messages_8f90.html#a6d15f28783f95a7a4b2a44185619792f" target="_top" xlink:title="format_str">
<polygon fill="white" stroke="black" points="331,-100.5 331,-121.5 408,-121.5 408,-100.5 331,-100.5"/>
<text text-anchor="middle" x="369.5" y="-107.9" font-family="Ubuntu Mono" font-size="12.00">format_str</text>
</a>
</g>
</g>
<!-- Node12&#45;&gt;Node14 -->
<g id="edge3" class="edge"><title>Node12&#45;&gt;Node14</title>
<path fill="none" stroke="midnightblue" d="M238.431,-125.215C264.409,-122.376 295.463,-118.982 320.713,-116.223"/>
<polygon fill="midnightblue" stroke="midnightblue" points="321.23,-119.687 330.79,-115.121 320.469,-112.729 321.23,-119.687"/>
</g>
<!-- Node15 -->
<g id="node5" class="node"><title>Node15</title>
<g id="a_node5"><a xlink:href="namespacemessages.html#a61fd0b51b5e37d58fdc993c01792a3fd" target="_top" xlink:title="messages::get_clock">
<polygon fill="white" stroke="black" points="483,-100.5 483,-121.5 614,-121.5 614,-100.5 483,-100.5"/>
<text text-anchor="middle" x="548.5" y="-107.9" font-family="Ubuntu Mono" font-size="12.00">messages::get_clock</text>
</a>
</g>
</g>
<!-- Node14&#45;&gt;Node15 -->
<g id="edge4" class="edge"><title>Node14&#45;&gt;Node15</title>
<path fill="none" stroke="midnightblue" d="M408.037,-111C426.869,-111 450.372,-111 472.685,-111"/>
<polygon fill="midnightblue" stroke="midnightblue" points="472.832,-114.5 482.832,-111 472.832,-107.5 472.832,-114.5"/>
</g>
</g>
</svg>
