<?xml version="1.0" encoding="UTF-8" standalone="no"?>
<!DOCTYPE svg PUBLIC "-//W3C//DTD SVG 1.1//EN"
 "http://www.w3.org/Graphics/SVG/1.1/DTD/svg11.dtd">
<!-- Generated by graphviz version 2.38.0 (20140413.2041)
 -->
<!-- Title: adapt_min_n_par_x Pages: 1 -->
<svg width="413pt" height="70pt"
 viewBox="0.00 0.00 413.00 70.00" xmlns="http://www.w3.org/2000/svg" xmlns:xlink="http://www.w3.org/1999/xlink">
<g id="graph0" class="graph" transform="scale(1 1) rotate(0) translate(4 66)">
<title>adapt_min_n_par_x</title>
<polygon fill="white" stroke="none" points="-4,4 -4,-66 409,-66 409,4 -4,4"/>
<!-- Node7 -->
<g id="node1" class="node"><title>Node7</title>
<polygon fill="#bfbfbf" stroke="black" points="0,-20.5 0,-41.5 119,-41.5 119,-20.5 0,-20.5"/>
<text text-anchor="middle" x="59.5" y="-27.9" font-family="Ubuntu Mono" font-size="12.00">adapt_min_n_par_x</text>
</g>
<!-- Node8 -->
<g id="node2" class="node"><title>Node8</title>
<g id="a_node2"><a xlink:href="namespaceinput__ops.html#a434acca4f59f9dc1d91e04f846133684" target="_top" xlink:title="input_ops::read_input_opts">
<polygon fill="white" stroke="black" points="155,-20.5 155,-41.5 328,-41.5 328,-20.5 155,-20.5"/>
<text text-anchor="middle" x="241.5" y="-27.9" font-family="Ubuntu Mono" font-size="12.00">input_ops::read_input_opts</text>
</a>
</g>
</g>
<!-- Node7&#45;&gt;Node8 -->
<g id="edge1" class="edge"><title>Node7&#45;&gt;Node8</title>
<path fill="none" stroke="midnightblue" d="M129.477,-31C137.827,-31 146.433,-31 154.985,-31"/>
<polygon fill="midnightblue" stroke="midnightblue" points="129.439,-27.5001 119.439,-31 129.439,-34.5001 129.439,-27.5001"/>
</g>
<!-- Node9 -->
<g id="node3" class="node"><title>Node9</title>
<g id="a_node3"><a xlink:href="PB3D_8f90.html#afaee01f014ab3398eecac996b2795fd2" target="_top" xlink:title="pb3d">
<polygon fill="white" stroke="black" points="364,-40.5 364,-61.5 405,-61.5 405,-40.5 364,-40.5"/>
<text text-anchor="middle" x="384.5" y="-47.9" font-family="Ubuntu Mono" font-size="12.00">pb3d</text>
</a>
</g>
</g>
<!-- Node8&#45;&gt;Node9 -->
<g id="edge2" class="edge"><title>Node8&#45;&gt;Node9</title>
<path fill="none" stroke="midnightblue" d="M326.835,-42.9624C340.597,-44.9145 353.627,-46.7627 363.715,-48.1936"/>
<polygon fill="midnightblue" stroke="midnightblue" points="327.109,-39.4663 316.716,-41.5271 326.126,-46.3969 327.109,-39.4663"/>
</g>
<!-- Node10 -->
<g id="node4" class="node"><title>Node10</title>
<g id="a_node4"><a xlink:href="POST_8f90.html#ac289b64ac4671fea0b4f2298ba1188a1" target="_top" xlink:title="post">
<polygon fill="white" stroke="black" points="364,-0.5 364,-21.5 405,-21.5 405,-0.5 364,-0.5"/>
<text text-anchor="middle" x="384.5" y="-7.9" font-family="Ubuntu Mono" font-size="12.00">post</text>
</a>
</g>
</g>
<!-- Node8&#45;&gt;Node10 -->
<g id="edge3" class="edge"><title>Node8&#45;&gt;Node10</title>
<path fill="none" stroke="midnightblue" d="M326.835,-19.0376C340.597,-17.0855 353.627,-15.2373 363.715,-13.8064"/>
<polygon fill="midnightblue" stroke="midnightblue" points="326.126,-15.6031 316.716,-20.4729 327.109,-22.5337 326.126,-15.6031"/>
</g>
</g>
</svg>
