<?xml version="1.0" encoding="UTF-8" standalone="no"?>
<!DOCTYPE svg PUBLIC "-//W3C//DTD SVG 1.1//EN"
 "http://www.w3.org/Graphics/SVG/1.1/DTD/svg11.dtd">
<!-- Generated by graphviz version 2.38.0 (20140413.2041)
 -->
<!-- Title: adapt_rich Pages: 1 -->
<svg width="371pt" height="70pt"
 viewBox="0.00 0.00 371.00 70.00" xmlns="http://www.w3.org/2000/svg" xmlns:xlink="http://www.w3.org/1999/xlink">
<g id="graph0" class="graph" transform="scale(1 1) rotate(0) translate(4 66)">
<title>adapt_rich</title>
<polygon fill="white" stroke="none" points="-4,4 -4,-66 367,-66 367,4 -4,4"/>
<!-- Node19 -->
<g id="node1" class="node"><title>Node19</title>
<polygon fill="#bfbfbf" stroke="black" points="0,-20.5 0,-41.5 77,-41.5 77,-20.5 0,-20.5"/>
<text text-anchor="middle" x="38.5" y="-27.9" font-family="Ubuntu Mono" font-size="12.00">adapt_rich</text>
</g>
<!-- Node20 -->
<g id="node2" class="node"><title>Node20</title>
<g id="a_node2"><a xlink:href="namespaceinput__ops.html#a434acca4f59f9dc1d91e04f846133684" target="_top" xlink:title="input_ops::read_input_opts">
<polygon fill="white" stroke="black" points="113,-20.5 113,-41.5 286,-41.5 286,-20.5 113,-20.5"/>
<text text-anchor="middle" x="199.5" y="-27.9" font-family="Ubuntu Mono" font-size="12.00">input_ops::read_input_opts</text>
</a>
</g>
</g>
<!-- Node19&#45;&gt;Node20 -->
<g id="edge1" class="edge"><title>Node19&#45;&gt;Node20</title>
<path fill="none" stroke="midnightblue" d="M87.1825,-31C95.3296,-31 104.011,-31 112.793,-31"/>
<polygon fill="midnightblue" stroke="midnightblue" points="87.1808,-27.5001 77.1808,-31 87.1807,-34.5001 87.1808,-27.5001"/>
</g>
<!-- Node21 -->
<g id="node3" class="node"><title>Node21</title>
<g id="a_node3"><a xlink:href="PB3D_8f90.html#afaee01f014ab3398eecac996b2795fd2" target="_top" xlink:title="pb3d">
<polygon fill="white" stroke="black" points="322,-40.5 322,-61.5 363,-61.5 363,-40.5 322,-40.5"/>
<text text-anchor="middle" x="342.5" y="-47.9" font-family="Ubuntu Mono" font-size="12.00">pb3d</text>
</a>
</g>
</g>
<!-- Node20&#45;&gt;Node21 -->
<g id="edge2" class="edge"><title>Node20&#45;&gt;Node21</title>
<path fill="none" stroke="midnightblue" d="M284.835,-42.9624C298.597,-44.9145 311.627,-46.7627 321.715,-48.1936"/>
<polygon fill="midnightblue" stroke="midnightblue" points="285.109,-39.4663 274.716,-41.5271 284.126,-46.3969 285.109,-39.4663"/>
</g>
<!-- Node22 -->
<g id="node4" class="node"><title>Node22</title>
<g id="a_node4"><a xlink:href="POST_8f90.html#ac289b64ac4671fea0b4f2298ba1188a1" target="_top" xlink:title="post">
<polygon fill="white" stroke="black" points="322,-0.5 322,-21.5 363,-21.5 363,-0.5 322,-0.5"/>
<text text-anchor="middle" x="342.5" y="-7.9" font-family="Ubuntu Mono" font-size="12.00">post</text>
</a>
</g>
</g>
<!-- Node20&#45;&gt;Node22 -->
<g id="edge3" class="edge"><title>Node20&#45;&gt;Node22</title>
<path fill="none" stroke="midnightblue" d="M284.835,-19.0376C298.597,-17.0855 311.627,-15.2373 321.715,-13.8064"/>
<polygon fill="midnightblue" stroke="midnightblue" points="284.126,-15.6031 274.716,-20.4729 285.109,-22.5337 284.126,-15.6031"/>
</g>
</g>
</svg>
