<?xml version="1.0" encoding="UTF-8" standalone="no"?>
<!DOCTYPE svg PUBLIC "-//W3C//DTD SVG 1.1//EN"
 "http://www.w3.org/Graphics/SVG/1.1/DTD/svg11.dtd">
<!-- Generated by graphviz version 14.1.2 (20260124.0452)
 -->
<!-- Title: num_utilities::add_arr_mult::add_arr_mult_3_3 Pages: 1 -->
<svg width="358pt" height="53pt"
 viewBox="0.00 0.00 358.00 53.00" xmlns="http://www.w3.org/2000/svg" xmlns:xlink="http://www.w3.org/1999/xlink">
<g id="graph0" class="graph" transform="scale(1 1) rotate(0) translate(4 49.12)">
<title>num_utilities::add_arr_mult::add_arr_mult_3_3</title>
<!-- Node1 -->
<g id="Node000001" class="node">
<title>Node1</title>
<g id="a_Node000001"><a xlink:title="version with arr_1 and arr_2 in 3 coords.">
<polygon fill="#999999" stroke="#666666" points="178,-33.5 0,-33.5 0,0 178,0 178,-33.5"/>
<text xml:space="preserve" text-anchor="start" x="8" y="-18.1" font-family="Ubuntu Mono" font-size="12.00">num_utilities::add</text>
<text xml:space="preserve" text-anchor="middle" x="89" y="-5.35" font-family="Ubuntu Mono" font-size="12.00">_arr_mult::add_arr_mult_3_3</text>
</a>
</g>
</g>
<!-- Node2 -->
<g id="Node000002" class="node">
<title>Node2</title>
<g id="a_Node000002"><a xlink:href="namespacestr__utilities.html#a0b97e51770725a3e98ed393d26681414" target="_top" xlink:title="Convert an integer to string.">
<polygon fill="white" stroke="#666666" points="350,-27.12 214,-27.12 214,-6.38 350,-6.38 350,-27.12"/>
<text xml:space="preserve" text-anchor="middle" x="282" y="-11.72" font-family="Ubuntu Mono" font-size="12.00">str_utilities::i2str</text>
</a>
</g>
</g>
<!-- Node1&#45;&gt;Node2 -->
<g id="edge1_Node000001_Node000002" class="edge">
<title>Node1&#45;&gt;Node2</title>
<g id="a_edge1_Node000001_Node000002"><a xlink:title=" ">
<path fill="none" stroke="#63b8ff" d="M178.23,-16.75C186.24,-16.75 194.32,-16.75 202.25,-16.75"/>
<polygon fill="#63b8ff" stroke="#63b8ff" points="202.2,-20.25 212.2,-16.75 202.2,-13.25 202.2,-20.25"/>
</a>
</g>
</g>
<!-- Node2&#45;&gt;Node2 -->
<g id="edge2_Node000002_Node000002" class="edge">
<title>Node2&#45;&gt;Node2</title>
<g id="a_edge2_Node000002_Node000002"><a xlink:title=" ">
<path fill="none" stroke="#63b8ff" d="M250.9,-27.52C238.46,-36.18 248.83,-45.12 282,-45.12 300.14,-45.12 311.46,-42.45 315.96,-38.61"/>
<polygon fill="#63b8ff" stroke="#63b8ff" points="319.37,-37.8 313.48,-28.99 312.59,-39.55 319.37,-37.8"/>
</a>
</g>
</g>
</g>
</svg>
