<?xml version="1.0" encoding="UTF-8" standalone="no"?>
<!DOCTYPE svg PUBLIC "-//W3C//DTD SVG 1.1//EN"
 "http://www.w3.org/Graphics/SVG/1.1/DTD/svg11.dtd">
<!-- Generated by graphviz version 2.38.0 (20140413.2041)
 -->
<!-- Title: eq_ops::calc_t_hf::calc_t_hf_arr Pages: 1 -->
<svg width="1273pt" height="902pt"
 viewBox="0.00 0.00 1273.00 902.21" xmlns="http://www.w3.org/2000/svg" xmlns:xlink="http://www.w3.org/1999/xlink">
<g id="graph0" class="graph" transform="scale(1 1) rotate(0) translate(4 898.208)">
<title>eq_ops::calc_t_hf::calc_t_hf_arr</title>
<polygon fill="white" stroke="none" points="-4,4 -4,-898.208 1269,-898.208 1269,4 -4,4"/>
<!-- Node2 -->
<g id="node1" class="node"><title>Node2</title>
<polygon fill="#bfbfbf" stroke="black" points="0,-355.708 0,-389.708 131,-389.708 131,-355.708 0,-355.708"/>
<text text-anchor="start" x="8" y="-376.108" font-family="Ubuntu Mono" font-size="12.00">eq_ops::calc_t_hf::</text>
<text text-anchor="middle" x="65.5" y="-363.108" font-family="Ubuntu Mono" font-size="12.00">calc_t_hf_arr</text>
</g>
<!-- Node3 -->
<g id="node2" class="node"><title>Node3</title>
<g id="a_node2"><a xlink:href="namespacegrid__utilities.html#a67001ff9bbcad707aacf17f90a748d90" target="_top" xlink:title="Trim a grid, removing any overlap between the different regions. ">
<polygon fill="white" stroke="black" points="376,-589.208 376,-610.208 543,-610.208 543,-589.208 376,-589.208"/>
<text text-anchor="middle" x="459.5" y="-596.608" font-family="Ubuntu Mono" font-size="12.00">grid_utilities::trim_grid</text>
</a>
</g>
</g>
<!-- Node2&#45;&gt;Node3 -->
<g id="edge1" class="edge"><title>Node2&#45;&gt;Node3</title>
<path fill="none" stroke="midnightblue" d="M69.2958,-389.94C76.8268,-430.164 101.578,-530.205 167,-574.708 232.94,-619.564 327.646,-618.802 391.029,-611.506"/>
<polygon fill="midnightblue" stroke="midnightblue" points="391.818,-614.935 401.313,-610.233 390.958,-607.988 391.818,-614.935"/>
</g>
<!-- Node4 -->
<g id="node3" class="node"><title>Node4</title>
<g id="a_node3"><a xlink:href="namespacemessages.html#aa4a8d01563e92558e8a0875b075ec54c" target="_top" xlink:title="Write output to file identified by output_i. ">
<polygon fill="white" stroke="black" points="967,-445.208 967,-466.208 1074,-466.208 1074,-445.208 967,-445.208"/>
<text text-anchor="middle" x="1020.5" y="-452.608" font-family="Ubuntu Mono" font-size="12.00">messages::writo</text>
</a>
</g>
</g>
<!-- Node2&#45;&gt;Node4 -->
<g id="edge2" class="edge"><title>Node2&#45;&gt;Node4</title>
<path fill="none" stroke="midnightblue" d="M65.8499,-355.447C64.8128,-300.409 69.7609,-127.982 167,-47.7082 267.51,35.2658 328.166,-15.7082 458.5,-15.7082 458.5,-15.7082 458.5,-15.7082 666.5,-15.7082 787.448,-15.7082 845.744,6.08124 931,-79.7082 982.048,-131.075 1009.95,-363.391 1017.43,-434.777"/>
<polygon fill="midnightblue" stroke="midnightblue" points="1013.99,-435.552 1018.49,-445.144 1020.95,-434.84 1013.99,-435.552"/>
</g>
<!-- Node7 -->
<g id="node6" class="node"><title>Node7</title>
<g id="a_node6"><a xlink:href="namespacemessages.html#a6e6bfb084063e4cc91ee86e542043302" target="_top" xlink:title="Increases/decreases lvl of output. ">
<polygon fill="white" stroke="black" points="803,-623.208 803,-644.208 916,-644.208 916,-623.208 803,-623.208"/>
<text text-anchor="middle" x="859.5" y="-630.608" font-family="Ubuntu Mono" font-size="12.00">messages::lvl_ud</text>
</a>
</g>
</g>
<!-- Node2&#45;&gt;Node7 -->
<g id="edge5" class="edge"><title>Node2&#45;&gt;Node7</title>
<path fill="none" stroke="midnightblue" d="M67.8274,-389.945C72.3292,-435.09 91.2899,-556.931 167,-609.708 217.443,-644.872 629.558,-639.139 792.53,-635.435"/>
<polygon fill="midnightblue" stroke="midnightblue" points="792.981,-638.926 802.898,-635.195 792.819,-631.928 792.981,-638.926"/>
</g>
<!-- Node8 -->
<g id="node7" class="node"><title>Node8</title>
<g id="a_node7"><a xlink:href="namespacegrid__utilities.html#a414a1a11924bc935afca3a89fc31f2f5" target="_top" xlink:title="Extend a grid angularly. ">
<polygon fill="white" stroke="black" points="179,-667.708 179,-701.708 328,-701.708 328,-667.708 179,-667.708"/>
<text text-anchor="start" x="187" y="-688.108" font-family="Ubuntu Mono" font-size="12.00">grid_utilities::extend</text>
<text text-anchor="middle" x="253.5" y="-675.108" font-family="Ubuntu Mono" font-size="12.00">_grid_f</text>
</a>
</g>
</g>
<!-- Node2&#45;&gt;Node8 -->
<g id="edge7" class="edge"><title>Node2&#45;&gt;Node8</title>
<path fill="none" stroke="midnightblue" d="M67.7528,-389.786C72.1785,-437.867 91.1903,-575.866 167,-652.708 170.595,-656.352 174.644,-659.586 178.975,-662.455"/>
<polygon fill="midnightblue" stroke="midnightblue" points="177.212,-665.479 187.605,-667.535 180.763,-659.446 177.212,-665.479"/>
</g>
<!-- Node9 -->
<g id="node8" class="node"><title>Node9</title>
<g id="a_node8"><a xlink:href="namespacestr__utilities.html#ac778d706b2e021672618939ab58fdd32" target="_top" xlink:title="Convert a real (double) to string. ">
<polygon fill="white" stroke="black" points="388,-743.208 388,-764.208 531,-764.208 531,-743.208 388,-743.208"/>
<text text-anchor="middle" x="459.5" y="-750.608" font-family="Ubuntu Mono" font-size="12.00">str_utilities::r2strt</text>
</a>
</g>
</g>
<!-- Node2&#45;&gt;Node9 -->
<g id="edge60" class="edge"><title>Node2&#45;&gt;Node9</title>
<path fill="none" stroke="midnightblue" d="M65.7335,-390.088C64.287,-446.362 67.9998,-624.903 167,-710.708 224.334,-760.4 313.077,-766.947 377.591,-763.661"/>
<polygon fill="midnightblue" stroke="midnightblue" points="377.956,-767.146 387.729,-763.055 377.538,-760.158 377.956,-767.146"/>
</g>
<!-- Node10 -->
<g id="node9" class="node"><title>Node10</title>
<g id="a_node9"><a xlink:href="namespacegrid__utilities.html#a39e7cd9b8f173994358dbdd6b57827e1" target="_top" xlink:title="Calculates , &#160;and &#160;on a grid grid_XYZ, determined through its E(quilibrium) coordinates. ">
<polygon fill="white" stroke="black" points="391,-123.708 391,-157.708 528,-157.708 528,-123.708 391,-123.708"/>
<text text-anchor="start" x="399" y="-144.108" font-family="Ubuntu Mono" font-size="12.00">grid_utilities::calc</text>
<text text-anchor="middle" x="459.5" y="-131.108" font-family="Ubuntu Mono" font-size="12.00">_xyz_grid</text>
</a>
</g>
</g>
<!-- Node2&#45;&gt;Node10 -->
<g id="edge12" class="edge"><title>Node2&#45;&gt;Node10</title>
<path fill="none" stroke="midnightblue" d="M67.4237,-355.381C70.9527,-308.803 87.7716,-180.844 167,-127.708 237.886,-80.1678 341.731,-100.836 404.446,-120.522"/>
<polygon fill="midnightblue" stroke="midnightblue" points="403.555,-123.913 414.147,-123.663 405.711,-117.253 403.555,-123.913"/>
</g>
<!-- Node12 -->
<g id="node11" class="node"><title>Node12</title>
<g id="a_node11"><a xlink:href="namespacestr__utilities.html#a0b97e51770725a3e98ed393d26681414" target="_top" xlink:title="Convert an integer to string. ">
<polygon fill="white" stroke="black" points="791,-192.208 791,-213.208 928,-213.208 928,-192.208 791,-192.208"/>
<text text-anchor="middle" x="859.5" y="-199.608" font-family="Ubuntu Mono" font-size="12.00">str_utilities::i2str</text>
</a>
</g>
</g>
<!-- Node2&#45;&gt;Node12 -->
<g id="edge34" class="edge"><title>Node2&#45;&gt;Node12</title>
<path fill="none" stroke="midnightblue" d="M70.8978,-355.613C81.0008,-320.319 109.54,-239.922 167,-206.708 269.214,-147.624 622.537,-176.966 780.788,-193.736"/>
<polygon fill="midnightblue" stroke="midnightblue" points="780.609,-197.237 790.925,-194.821 781.355,-190.277 780.609,-197.237"/>
</g>
<!-- Node13 -->
<g id="node12" class="node"><title>Node13</title>
<g id="a_node12"><a xlink:href="namespacestr__utilities.html#a92ac6c0af1979df094de1caddd28ade0" target="_top" xlink:title="Convert a real (double) to string. ">
<polygon fill="white" stroke="black" points="791,-89.2082 791,-110.208 928,-110.208 928,-89.2082 791,-89.2082"/>
<text text-anchor="middle" x="859.5" y="-96.6082" font-family="Ubuntu Mono" font-size="12.00">str_utilities::r2str</text>
</a>
</g>
</g>
<!-- Node2&#45;&gt;Node13 -->
<g id="edge35" class="edge"><title>Node2&#45;&gt;Node13</title>
<path fill="none" stroke="midnightblue" d="M66.6756,-355.587C68.2167,-305.561 80.2606,-159.104 167,-94.7082 271.453,-17.1614 622.909,-56.5994 752,-72.7082 773.437,-75.3833 796.751,-80.976 816.086,-86.3813"/>
<polygon fill="midnightblue" stroke="midnightblue" points="815.225,-89.7755 825.803,-89.1744 817.159,-83.0479 815.225,-89.7755"/>
</g>
<!-- Node14 -->
<g id="node13" class="node"><title>Node14</title>
<g id="a_node13"><a xlink:href="namespacevmec__utilities.html#ac699116fc25fdea3e28e488513d97c87" target="_top" xlink:title="Calculate the trigonometric cosine and sine factors. ">
<polygon fill="white" stroke="black" points="597,-328.708 597,-362.708 734,-362.708 734,-328.708 597,-328.708"/>
<text text-anchor="start" x="605" y="-349.108" font-family="Ubuntu Mono" font-size="12.00">vmec_utilities::calc</text>
<text text-anchor="middle" x="665.5" y="-336.108" font-family="Ubuntu Mono" font-size="12.00">_trigon_factors</text>
</a>
</g>
</g>
<!-- Node2&#45;&gt;Node14 -->
<g id="edge17" class="edge"><title>Node2&#45;&gt;Node14</title>
<path fill="none" stroke="midnightblue" d="M131.099,-374.921C143.035,-375.249 155.393,-375.535 167,-375.708 334.208,-378.203 376.607,-378.386 543,-361.708 557.19,-360.286 572.28,-358.511 586.824,-356.667"/>
<polygon fill="midnightblue" stroke="midnightblue" points="587.318,-360.132 596.789,-355.382 586.423,-353.19 587.318,-360.132"/>
</g>
<!-- Node15 -->
<g id="node14" class="node"><title>Node15</title>
<g id="a_node14"><a xlink:href="namespaceoutput__ops.html#a50bfbb88cc91805469353c3ff47b3e2e" target="_top" xlink:title="Use external program to draw a plot. ">
<polygon fill="white" stroke="black" points="394,-293.208 394,-314.208 525,-314.208 525,-293.208 394,-293.208"/>
<text text-anchor="middle" x="459.5" y="-300.608" font-family="Ubuntu Mono" font-size="12.00">output_ops::draw_ex</text>
</a>
</g>
</g>
<!-- Node2&#45;&gt;Node15 -->
<g id="edge20" class="edge"><title>Node2&#45;&gt;Node15</title>
<path fill="none" stroke="midnightblue" d="M93.4783,-355.589C113.07,-344.099 140.658,-329.811 167,-322.708 238.863,-303.331 324.132,-299.927 383.819,-300.55"/>
<polygon fill="midnightblue" stroke="midnightblue" points="383.864,-304.051 393.913,-300.696 383.965,-297.051 383.864,-304.051"/>
</g>
<!-- Node18 -->
<g id="node17" class="node"><title>Node18</title>
<g id="a_node17"><a xlink:href="namespacenum__utilities.html#a5ee3fbd1fe67d0deefc7194631389f2a" target="_top" xlink:title="Convert 2&#45;D coordinates (i,j) to the storage convention used in matrices. ">
<polygon fill="white" stroke="black" points="403,-215.208 403,-236.208 516,-236.208 516,-215.208 403,-215.208"/>
<text text-anchor="middle" x="459.5" y="-222.608" font-family="Ubuntu Mono" font-size="12.00">num_utilities::c</text>
</a>
</g>
</g>
<!-- Node2&#45;&gt;Node18 -->
<g id="edge29" class="edge"><title>Node2&#45;&gt;Node18</title>
<path fill="none" stroke="midnightblue" d="M84.6565,-355.578C103.731,-338.491 135.312,-312.69 167,-297.708 207.003,-278.796 322.141,-253.304 395.171,-238.276"/>
<polygon fill="midnightblue" stroke="midnightblue" points="396.089,-241.661 405.184,-236.227 394.686,-234.803 396.089,-241.661"/>
</g>
<!-- Node19 -->
<g id="node18" class="node"><title>Node19</title>
<g id="a_node18"><a xlink:href="namespaceoutput__ops.html#ab0d14194d01ab0534562eab50b37a57a" target="_top" xlink:title="Takes two input vectors and plots these as well as the relative and absolute difference in a HDF5 fil...">
<polygon fill="white" stroke="black" points="167,-776.208 167,-797.208 340,-797.208 340,-776.208 167,-776.208"/>
<text text-anchor="middle" x="253.5" y="-783.608" font-family="Ubuntu Mono" font-size="12.00">output_ops::plot_diff_hdf5</text>
</a>
</g>
</g>
<!-- Node2&#45;&gt;Node19 -->
<g id="edge30" class="edge"><title>Node2&#45;&gt;Node19</title>
<path fill="none" stroke="midnightblue" d="M65.7625,-389.805C64.1713,-448.772 66.8997,-646.034 167,-755.708 173.253,-762.56 181.14,-767.899 189.58,-772.06"/>
<polygon fill="midnightblue" stroke="midnightblue" points="188.339,-775.337 198.905,-776.127 191.138,-768.921 188.339,-775.337"/>
</g>
<!-- Node20 -->
<g id="node19" class="node"><title>Node20</title>
<g id="a_node19"><a xlink:href="namespacevmec__ops.html#a95f04a642fd732a538aef30052a12863" target="_top" xlink:title="Normalizes VMEC input. ">
<polygon fill="white" stroke="black" points="173,-216.208 173,-237.208 334,-237.208 334,-216.208 173,-216.208"/>
<text text-anchor="middle" x="253.5" y="-223.608" font-family="Ubuntu Mono" font-size="12.00">vmec_ops::normalize_vmec</text>
</a>
</g>
</g>
<!-- Node2&#45;&gt;Node20 -->
<g id="edge36" class="edge"><title>Node2&#45;&gt;Node20</title>
<path fill="none" stroke="midnightblue" d="M76.1658,-355.494C91.8216,-329.184 125.229,-279.14 167,-251.708 173.709,-247.302 181.212,-243.655 188.91,-240.641"/>
<polygon fill="midnightblue" stroke="midnightblue" points="190.117,-243.927 198.359,-237.269 187.764,-237.334 190.117,-243.927"/>
</g>
<!-- Node21 -->
<g id="node20" class="node"><title>Node21</title>
<g id="a_node20"><a xlink:href="namespacegrid__utilities.html#ad3d9386b9abcb1a7e17369a1b3a3750d" target="_top" xlink:title="Calculates contra&#45; and covariant components of a vector in multiple coordinate systems. ">
<polygon fill="white" stroke="black" points="185,-332.708 185,-366.708 322,-366.708 322,-332.708 185,-332.708"/>
<text text-anchor="start" x="193" y="-353.108" font-family="Ubuntu Mono" font-size="12.00">grid_utilities::calc</text>
<text text-anchor="middle" x="253.5" y="-340.108" font-family="Ubuntu Mono" font-size="12.00">_vec_comp</text>
</a>
</g>
</g>
<!-- Node2&#45;&gt;Node21 -->
<g id="edge37" class="edge"><title>Node2&#45;&gt;Node21</title>
<path fill="none" stroke="midnightblue" d="M131.032,-364.728C145.183,-362.979 160.308,-361.108 174.912,-359.302"/>
<polygon fill="midnightblue" stroke="midnightblue" points="175.425,-362.766 184.92,-358.065 174.566,-355.819 175.425,-362.766"/>
</g>
<!-- Node22 -->
<g id="node21" class="node"><title>Node22</title>
<g id="a_node21"><a xlink:href="namespaceinput__utilities.html#ad9ce824c30b32041ab70f3fb191f06db" target="_top" xlink:title="Queries for a logical value yes or no, where the default answer is also to be provided. ">
<polygon fill="white" stroke="black" points="585,-473.208 585,-494.208 746,-494.208 746,-473.208 585,-473.208"/>
<text text-anchor="middle" x="665.5" y="-480.608" font-family="Ubuntu Mono" font-size="12.00">input_utilities::get_log</text>
</a>
</g>
</g>
<!-- Node2&#45;&gt;Node22 -->
<g id="edge46" class="edge"><title>Node2&#45;&gt;Node22</title>
<path fill="none" stroke="midnightblue" d="M116.767,-389.773C177.456,-409.65 282.978,-441.903 376,-458.708 442.04,-470.639 517.649,-476.925 574.893,-480.209"/>
<polygon fill="midnightblue" stroke="midnightblue" points="574.821,-483.71 584.999,-480.769 575.208,-476.721 574.821,-483.71"/>
</g>
<!-- Node26 -->
<g id="node25" class="node"><title>Node26</title>
<g id="a_node25"><a xlink:href="namespacegrid__utilities.html#a0854b2d6cc61a31f68b4afe7304077a9" target="_top" xlink:title="calculates the cosine and sine mode numbers of a function defined on a non&#45;regular grid...">
<polygon fill="white" stroke="black" points="182,-137.208 182,-158.208 325,-158.208 325,-137.208 182,-137.208"/>
<text text-anchor="middle" x="253.5" y="-144.608" font-family="Ubuntu Mono" font-size="12.00">grid_utilities::nufft</text>
</a>
</g>
</g>
<!-- Node2&#45;&gt;Node26 -->
<g id="edge53" class="edge"><title>Node2&#45;&gt;Node26</title>
<path fill="none" stroke="midnightblue" d="M70.1835,-355.617C79.4015,-317.019 107.149,-222.591 167,-172.708 171.912,-168.615 177.467,-165.191 183.33,-162.328"/>
<polygon fill="midnightblue" stroke="midnightblue" points="184.946,-165.443 192.747,-158.275 182.178,-159.013 184.946,-165.443"/>
</g>
<!-- Node27 -->
<g id="node26" class="node"><title>Node27</title>
<g id="a_node26"><a xlink:href="namespaceeq__utilities.html#a5a9f230ed9a6e627e31e882e9f4a00a1" target="_top" xlink:title="Calculate memory in MB necessary for variables in equilibrium job. ">
<polygon fill="white" stroke="black" points="397,-859.708 397,-893.708 522,-893.708 522,-859.708 397,-859.708"/>
<text text-anchor="start" x="405" y="-880.108" font-family="Ubuntu Mono" font-size="12.00">eq_utilities::calc</text>
<text text-anchor="middle" x="459.5" y="-867.108" font-family="Ubuntu Mono" font-size="12.00">_memory_eq</text>
</a>
</g>
</g>
<!-- Node2&#45;&gt;Node27 -->
<g id="edge56" class="edge"><title>Node2&#45;&gt;Node27</title>
<path fill="none" stroke="midnightblue" d="M68.0997,-389.921C75.2233,-462.875 106.407,-745.621 167,-806.708 224.319,-864.494 320.387,-877.802 386.473,-879.409"/>
<polygon fill="midnightblue" stroke="midnightblue" points="386.757,-882.914 396.811,-879.571 386.867,-875.915 386.757,-882.914"/>
</g>
<!-- Node28 -->
<g id="node27" class="node"><title>Node28</title>
<g id="a_node27"><a xlink:href="namespacex__utilities.html#a4d18921da77463d069346f1c7322b451" target="_top" xlink:title="Calculate memory in MB necessary for X variables. ">
<polygon fill="white" stroke="black" points="579,-589.208 579,-610.208 752,-610.208 752,-589.208 579,-589.208"/>
<text text-anchor="middle" x="665.5" y="-596.608" font-family="Ubuntu Mono" font-size="12.00">x_utilities::calc_memory_x</text>
</a>
</g>
</g>
<!-- Node2&#45;&gt;Node28 -->
<g id="edge58" class="edge"><title>Node2&#45;&gt;Node28</title>
<path fill="none" stroke="midnightblue" d="M88.0284,-389.798C107.84,-405.06 138.399,-427.451 167,-443.708 255.389,-493.949 279.39,-505.032 376,-536.708 446.458,-559.81 529.39,-576.917 588.211,-587.429"/>
<polygon fill="midnightblue" stroke="midnightblue" points="587.714,-590.896 598.17,-589.188 588.931,-584.002 587.714,-590.896"/>
</g>
<!-- Node5 -->
<g id="node4" class="node"><title>Node5</title>
<g id="a_node4"><a xlink:href="namespacemessages.html#a82dddaab795b78b3d39e1ff1aab2f665" target="_top" xlink:title="Returns the memory usage in kilobytes. ">
<polygon fill="white" stroke="black" points="1110,-465.208 1110,-486.208 1265,-486.208 1265,-465.208 1110,-465.208"/>
<text text-anchor="middle" x="1187.5" y="-472.608" font-family="Ubuntu Mono" font-size="12.00">messages::get_mem_usage</text>
</a>
</g>
</g>
<!-- Node4&#45;&gt;Node5 -->
<g id="edge3" class="edge"><title>Node4&#45;&gt;Node5</title>
<path fill="none" stroke="midnightblue" d="M1074.16,-462.091C1082.45,-463.096 1091.21,-464.158 1100.03,-465.226"/>
<polygon fill="midnightblue" stroke="midnightblue" points="1099.64,-468.705 1109.98,-466.434 1100.48,-461.756 1099.64,-468.705"/>
</g>
<!-- Node6 -->
<g id="node5" class="node"><title>Node6</title>
<g id="a_node5"><a xlink:href="namespacemessages.html#a61fd0b51b5e37d58fdc993c01792a3fd" target="_top" xlink:title="Returns the time. ">
<polygon fill="white" stroke="black" points="1122,-425.208 1122,-446.208 1253,-446.208 1253,-425.208 1122,-425.208"/>
<text text-anchor="middle" x="1187.5" y="-432.608" font-family="Ubuntu Mono" font-size="12.00">messages::get_clock</text>
</a>
</g>
</g>
<!-- Node4&#45;&gt;Node6 -->
<g id="edge4" class="edge"><title>Node4&#45;&gt;Node6</title>
<path fill="none" stroke="midnightblue" d="M1074.16,-449.325C1086.14,-447.873 1099.09,-446.303 1111.8,-444.763"/>
<polygon fill="midnightblue" stroke="midnightblue" points="1112.4,-448.215 1121.91,-443.537 1111.56,-441.266 1112.4,-448.215"/>
</g>
<!-- Node7&#45;&gt;Node4 -->
<g id="edge6" class="edge"><title>Node7&#45;&gt;Node4</title>
<path fill="none" stroke="midnightblue" d="M914.643,-623.203C920.504,-620.688 926.107,-617.571 931,-613.708 977.092,-577.317 1003.04,-509.917 1013.7,-476.132"/>
<polygon fill="midnightblue" stroke="midnightblue" points="1017.09,-477.01 1016.63,-466.425 1010.39,-474.987 1017.09,-477.01"/>
</g>
<!-- Node8&#45;&gt;Node3 -->
<g id="edge11" class="edge"><title>Node8&#45;&gt;Node3</title>
<path fill="none" stroke="midnightblue" d="M295.782,-667.507C333.348,-651.855 388.19,-629.004 423.614,-614.244"/>
<polygon fill="midnightblue" stroke="midnightblue" points="425.175,-617.385 433.06,-610.308 422.483,-610.924 425.175,-617.385"/>
</g>
<!-- Node8&#45;&gt;Node4 -->
<g id="edge8" class="edge"><title>Node8&#45;&gt;Node4</title>
<path fill="none" stroke="midnightblue" d="M328.202,-691.245C483.364,-703.455 837.139,-722.666 931,-653.708 990.204,-610.212 1010.57,-518.004 1016.91,-476.601"/>
<polygon fill="midnightblue" stroke="midnightblue" points="1020.39,-476.961 1018.32,-466.571 1013.46,-475.987 1020.39,-476.961"/>
</g>
<!-- Node8&#45;&gt;Node7 -->
<g id="edge10" class="edge"><title>Node8&#45;&gt;Node7</title>
<path fill="none" stroke="midnightblue" d="M328.074,-682.559C425.377,-679.126 602.063,-670.847 752,-652.708 766.468,-650.958 781.949,-648.523 796.501,-645.98"/>
<polygon fill="midnightblue" stroke="midnightblue" points="797.175,-649.415 806.403,-644.208 795.943,-642.524 797.175,-649.415"/>
</g>
<!-- Node8&#45;&gt;Node9 -->
<g id="edge9" class="edge"><title>Node8&#45;&gt;Node9</title>
<path fill="none" stroke="midnightblue" d="M299.88,-701.791C322.63,-710.189 350.665,-720.289 376,-728.708 387.761,-732.617 400.547,-736.613 412.462,-740.23"/>
<polygon fill="midnightblue" stroke="midnightblue" points="411.641,-743.638 422.226,-743.17 413.659,-736.936 411.641,-743.638"/>
</g>
<!-- Node11 -->
<g id="node10" class="node"><title>Node11</title>
<g id="a_node10"><a xlink:href="namespacegrid__utilities.html#ad059876fabae2c8445e5d3971ba28742" target="_top" xlink:title="Set up the factors for the interpolation calculation in a matrix A using a polynomial order ord...">
<polygon fill="white" stroke="black" points="594,-82.7082 594,-116.708 737,-116.708 737,-82.7082 594,-82.7082"/>
<text text-anchor="start" x="602" y="-103.108" font-family="Ubuntu Mono" font-size="12.00">grid_utilities::setup</text>
<text text-anchor="middle" x="665.5" y="-90.1082" font-family="Ubuntu Mono" font-size="12.00">_interp_data</text>
</a>
</g>
</g>
<!-- Node10&#45;&gt;Node11 -->
<g id="edge13" class="edge"><title>Node10&#45;&gt;Node11</title>
<path fill="none" stroke="midnightblue" d="M528.146,-127.113C546.039,-123.517 565.528,-119.6 584.028,-115.881"/>
<polygon fill="midnightblue" stroke="midnightblue" points="584.778,-119.301 593.892,-113.899 583.398,-112.438 584.778,-119.301"/>
</g>
<!-- Node11&#45;&gt;Node4 -->
<g id="edge14" class="edge"><title>Node11&#45;&gt;Node4</title>
<path fill="none" stroke="midnightblue" d="M737.049,-114.179C805.653,-129.563 903.433,-155.4 931,-182.708 1003.07,-254.1 1016.48,-384.615 1018.95,-435.051"/>
<polygon fill="midnightblue" stroke="midnightblue" points="1015.46,-435.206 1019.35,-445.061 1022.45,-434.931 1015.46,-435.206"/>
</g>
<!-- Node11&#45;&gt;Node12 -->
<g id="edge15" class="edge"><title>Node11&#45;&gt;Node12</title>
<path fill="none" stroke="midnightblue" d="M691.355,-116.844C715.405,-132.987 753.223,-157.237 788,-174.708 797.81,-179.636 808.706,-184.324 818.941,-188.405"/>
<polygon fill="midnightblue" stroke="midnightblue" points="817.906,-191.758 828.495,-192.12 820.443,-185.234 817.906,-191.758"/>
</g>
<!-- Node11&#45;&gt;Node13 -->
<g id="edge16" class="edge"><title>Node11&#45;&gt;Node13</title>
<path fill="none" stroke="midnightblue" d="M737.176,-99.7082C751.286,-99.7082 766.183,-99.7082 780.524,-99.7082"/>
<polygon fill="midnightblue" stroke="midnightblue" points="780.848,-103.208 790.848,-99.7082 780.848,-96.2083 780.848,-103.208"/>
</g>
<!-- Node14&#45;&gt;Node4 -->
<g id="edge18" class="edge"><title>Node14&#45;&gt;Node4</title>
<path fill="none" stroke="midnightblue" d="M734.205,-352.672C788.836,-359.895 866.874,-373.888 931,-399.708 955.56,-409.597 980.814,-426.355 998.026,-438.968"/>
<polygon fill="midnightblue" stroke="midnightblue" points="996.146,-441.933 1006.25,-445.128 1000.34,-436.33 996.146,-441.933"/>
</g>
<!-- Node14&#45;&gt;Node12 -->
<g id="edge19" class="edge"><title>Node14&#45;&gt;Node12</title>
<path fill="none" stroke="midnightblue" d="M689.66,-328.459C726.779,-300.813 799.144,-246.916 835.903,-219.538"/>
<polygon fill="midnightblue" stroke="midnightblue" points="838.091,-222.272 844.021,-213.492 833.91,-216.658 838.091,-222.272"/>
</g>
<!-- Node15&#45;&gt;Node4 -->
<g id="edge22" class="edge"><title>Node15&#45;&gt;Node4</title>
<path fill="none" stroke="midnightblue" d="M525.233,-295.641C620.866,-286.967 802.432,-283.169 931,-357.708 964.666,-377.227 992.597,-413.949 1007.6,-436.478"/>
<polygon fill="midnightblue" stroke="midnightblue" points="1004.85,-438.672 1013.21,-445.173 1010.73,-434.874 1004.85,-438.672"/>
</g>
<!-- Node15&#45;&gt;Node7 -->
<g id="edge27" class="edge"><title>Node15&#45;&gt;Node7</title>
<path fill="none" stroke="midnightblue" d="M463.57,-314.397C473.797,-348.012 510.035,-452.386 579,-503.708 642.56,-551.008 689.443,-498.089 752,-546.708 778.691,-567.452 761.653,-592.529 788,-613.708 790.082,-615.382 792.297,-616.916 794.61,-618.321"/>
<polygon fill="midnightblue" stroke="midnightblue" points="793.441,-621.657 803.932,-623.131 796.65,-615.436 793.441,-621.657"/>
</g>
<!-- Node15&#45;&gt;Node12 -->
<g id="edge21" class="edge"><title>Node15&#45;&gt;Node12</title>
<path fill="none" stroke="midnightblue" d="M510.286,-293.154C521.53,-289.56 533.068,-284.843 543,-278.708 562.793,-266.482 558.298,-251.323 579,-240.708 641.691,-208.565 722.188,-200.548 780.681,-199.692"/>
<polygon fill="midnightblue" stroke="midnightblue" points="780.998,-203.19 790.971,-199.612 780.944,-196.19 780.998,-203.19"/>
</g>
<!-- Node15&#45;&gt;Node13 -->
<g id="edge28" class="edge"><title>Node15&#45;&gt;Node13</title>
<path fill="none" stroke="midnightblue" d="M518.419,-293.147C527.347,-289.633 535.933,-284.949 543,-278.708 572.529,-252.631 550.038,-224.414 579,-197.708 612.667,-166.663 734.796,-131.376 805.986,-112.779"/>
<polygon fill="midnightblue" stroke="midnightblue" points="806.876,-116.164 815.679,-110.268 805.121,-109.388 806.876,-116.164"/>
</g>
<!-- Node16 -->
<g id="node15" class="node"><title>Node16</title>
<g id="a_node15"><a xlink:href="namespacefiles__utilities.html#ac6066df405564ba2f5e3c4bba726c1f8" target="_top" xlink:title="Search for available new unit. ">
<polygon fill="white" stroke="black" points="582,-250.208 582,-271.208 749,-271.208 749,-250.208 582,-250.208"/>
<text text-anchor="middle" x="665.5" y="-257.608" font-family="Ubuntu Mono" font-size="12.00">files_utilities::nextunit</text>
</a>
</g>
</g>
<!-- Node15&#45;&gt;Node16 -->
<g id="edge23" class="edge"><title>Node15&#45;&gt;Node16</title>
<path fill="none" stroke="midnightblue" d="M510.404,-293.189C538.806,-287.203 574.574,-279.663 604.499,-273.355"/>
<polygon fill="midnightblue" stroke="midnightblue" points="605.341,-276.755 614.404,-271.268 603.897,-269.905 605.341,-276.755"/>
</g>
<!-- Node17 -->
<g id="node16" class="node"><title>Node17</title>
<g id="a_node16"><a xlink:href="namespaceoutput__ops.html#aa9e4855511b6ea16a08b3efb587bec51" target="_top" xlink:title="Executes command line, or displays a message if disabled. ">
<polygon fill="white" stroke="black" points="588,-381.708 588,-415.708 743,-415.708 743,-381.708 588,-381.708"/>
<text text-anchor="start" x="596" y="-402.108" font-family="Ubuntu Mono" font-size="12.00">output_ops::use_execute</text>
<text text-anchor="middle" x="665.5" y="-389.108" font-family="Ubuntu Mono" font-size="12.00">_command_line</text>
</a>
</g>
</g>
<!-- Node15&#45;&gt;Node17 -->
<g id="edge24" class="edge"><title>Node15&#45;&gt;Node17</title>
<path fill="none" stroke="midnightblue" d="M476.406,-314.32C498.623,-328.791 540.553,-354.842 579,-371.708 584.078,-373.936 589.399,-376.067 594.796,-378.084"/>
<polygon fill="midnightblue" stroke="midnightblue" points="593.964,-381.504 604.558,-381.59 596.329,-374.916 593.964,-381.504"/>
</g>
<!-- Node17&#45;&gt;Node4 -->
<g id="edge25" class="edge"><title>Node17&#45;&gt;Node4</title>
<path fill="none" stroke="midnightblue" d="M743.159,-400.282C796.42,-402.679 868.731,-408.541 931,-422.708 949.935,-427.016 970.29,-434.4 986.699,-441.092"/>
<polygon fill="midnightblue" stroke="midnightblue" points="985.782,-444.503 996.358,-445.136 988.485,-438.046 985.782,-444.503"/>
</g>
<!-- Node17&#45;&gt;Node7 -->
<g id="edge26" class="edge"><title>Node17&#45;&gt;Node7</title>
<path fill="none" stroke="midnightblue" d="M699.044,-415.954C717.247,-427.216 738.855,-443.564 752,-463.708 789.467,-521.125 740.522,-564.248 788,-613.708 789.85,-615.636 791.871,-617.381 794.023,-618.962"/>
<polygon fill="midnightblue" stroke="midnightblue" points="792.506,-622.134 802.882,-624.279 796.108,-616.132 792.506,-622.134"/>
</g>
<!-- Node19&#45;&gt;Node4 -->
<g id="edge31" class="edge"><title>Node19&#45;&gt;Node4</title>
<path fill="none" stroke="midnightblue" d="M310.365,-797.243C438.261,-817.874 754.832,-848.604 931,-687.708 994.384,-629.819 1012.71,-521.621 1017.72,-476.402"/>
<polygon fill="midnightblue" stroke="midnightblue" points="1021.22,-476.63 1018.73,-466.331 1014.25,-475.933 1021.22,-476.63"/>
</g>
<!-- Node19&#45;&gt;Node7 -->
<g id="edge32" class="edge"><title>Node19&#45;&gt;Node7</title>
<path fill="none" stroke="midnightblue" d="M340.221,-791.101C398.218,-792.073 476.141,-789.457 543,-773.708 656.351,-747.008 779.416,-680.17 832.129,-649.518"/>
<polygon fill="midnightblue" stroke="midnightblue" points="833.992,-652.483 840.846,-644.405 830.45,-646.446 833.992,-652.483"/>
</g>
<!-- Node19&#45;&gt;Node9 -->
<g id="edge33" class="edge"><title>Node19&#45;&gt;Node9</title>
<path fill="none" stroke="midnightblue" d="M319.608,-776.176C339.85,-772.902 362.332,-769.265 383.208,-765.888"/>
<polygon fill="midnightblue" stroke="midnightblue" points="383.998,-769.306 393.311,-764.253 382.88,-762.395 383.998,-769.306"/>
</g>
<!-- Node21&#45;&gt;Node3 -->
<g id="edge42" class="edge"><title>Node21&#45;&gt;Node3</title>
<path fill="none" stroke="midnightblue" d="M263.03,-366.802C280.824,-401.411 324.551,-481.193 376,-536.708 392.899,-554.943 415.542,-571.82 432.832,-583.507"/>
<polygon fill="midnightblue" stroke="midnightblue" points="431.054,-586.527 441.326,-589.125 434.916,-580.689 431.054,-586.527"/>
</g>
<!-- Node21&#45;&gt;Node4 -->
<g id="edge40" class="edge"><title>Node21&#45;&gt;Node4</title>
<path fill="none" stroke="midnightblue" d="M315.255,-366.763C380.047,-384.239 485.933,-410.766 579,-424.708 712.693,-444.736 871.203,-451.881 956.912,-454.389"/>
<polygon fill="midnightblue" stroke="midnightblue" points="956.903,-457.89 966.997,-454.672 957.1,-450.893 956.903,-457.89"/>
</g>
<!-- Node21&#45;&gt;Node7 -->
<g id="edge41" class="edge"><title>Node21&#45;&gt;Node7</title>
<path fill="none" stroke="midnightblue" d="M269.895,-366.886C291.614,-390.277 333.382,-432.259 376,-458.708 458.536,-509.931 486.299,-510.683 579,-539.708 654.312,-563.289 682.444,-542.427 752,-579.708 771.397,-590.105 768.864,-602.837 788,-613.708 791.733,-615.829 795.708,-617.738 799.795,-619.455"/>
<polygon fill="midnightblue" stroke="midnightblue" points="798.883,-622.852 809.475,-623.12 801.362,-616.306 798.883,-622.852"/>
</g>
<!-- Node21&#45;&gt;Node10 -->
<g id="edge44" class="edge"><title>Node21&#45;&gt;Node10</title>
<path fill="none" stroke="midnightblue" d="M268.592,-332.616C298.044,-296.95 364.36,-216.964 376,-205.708 391.484,-190.735 410.244,-175.741 425.96,-163.932"/>
<polygon fill="midnightblue" stroke="midnightblue" points="428.389,-166.488 434.338,-157.72 424.22,-160.865 428.389,-166.488"/>
</g>
<!-- Node21&#45;&gt;Node11 -->
<g id="edge43" class="edge"><title>Node21&#45;&gt;Node11</title>
<path fill="none" stroke="midnightblue" d="M280.99,-332.548C304.948,-317.713 341.635,-296.67 376,-283.708 447.222,-256.845 487.324,-297.615 543,-245.708 583.416,-208.028 540.165,-166.016 579,-126.708 580.915,-124.77 582.967,-122.971 585.129,-121.301"/>
<polygon fill="midnightblue" stroke="midnightblue" points="587.537,-123.906 593.956,-115.477 583.682,-118.063 587.537,-123.906"/>
</g>
<!-- Node21&#45;&gt;Node14 -->
<g id="edge39" class="edge"><title>Node21&#45;&gt;Node14</title>
<path fill="none" stroke="midnightblue" d="M322.203,-349.048C394.905,-348.338 510.246,-347.213 586.648,-346.468"/>
<polygon fill="midnightblue" stroke="midnightblue" points="586.731,-349.967 596.696,-346.37 586.663,-342.968 586.731,-349.967"/>
</g>
<!-- Node21&#45;&gt;Node15 -->
<g id="edge45" class="edge"><title>Node21&#45;&gt;Node15</title>
<path fill="none" stroke="midnightblue" d="M322.146,-334.455C347.936,-328.639 377.043,-322.076 401.723,-316.511"/>
<polygon fill="midnightblue" stroke="midnightblue" points="402.666,-319.886 411.651,-314.272 401.126,-313.058 402.666,-319.886"/>
</g>
<!-- Node21&#45;&gt;Node18 -->
<g id="edge38" class="edge"><title>Node21&#45;&gt;Node18</title>
<path fill="none" stroke="midnightblue" d="M275.365,-332.623C309.725,-304.498 374.589,-251.459 376,-250.708 384.335,-246.273 393.572,-242.506 402.761,-239.347"/>
<polygon fill="midnightblue" stroke="midnightblue" points="403.839,-242.677 412.278,-236.272 401.687,-236.016 403.839,-242.677"/>
</g>
<!-- Node22&#45;&gt;Node4 -->
<g id="edge52" class="edge"><title>Node22&#45;&gt;Node4</title>
<path fill="none" stroke="midnightblue" d="M721.127,-494.243C775.089,-502.773 859.664,-511.081 931,-495.708 952.974,-490.973 976.061,-480.322 993.144,-471.201"/>
<polygon fill="midnightblue" stroke="midnightblue" points="994.901,-474.229 1001.97,-466.338 991.523,-468.098 994.901,-474.229"/>
</g>
<!-- Node23 -->
<g id="node22" class="node"><title>Node23</title>
<g id="a_node22"><a xlink:href="namespacemessages.html#aed343894ae4a28ad6dfbd1d39aac64ff" target="_top" xlink:title="Stop a timer. ">
<polygon fill="white" stroke="black" points="794,-465.208 794,-486.208 925,-486.208 925,-465.208 794,-465.208"/>
<text text-anchor="middle" x="859.5" y="-472.608" font-family="Ubuntu Mono" font-size="12.00">messages::stop_time</text>
</a>
</g>
</g>
<!-- Node22&#45;&gt;Node23 -->
<g id="edge47" class="edge"><title>Node22&#45;&gt;Node23</title>
<path fill="none" stroke="midnightblue" d="M746.257,-480.385C758.653,-479.868 771.421,-479.336 783.702,-478.825"/>
<polygon fill="midnightblue" stroke="midnightblue" points="784.039,-482.314 793.884,-478.401 783.747,-475.32 784.039,-482.314"/>
</g>
<!-- Node24 -->
<g id="node23" class="node"><title>Node24</title>
<g id="a_node23"><a xlink:href="namespacemessages.html#a84d5988f3ea5ca8dc2834032f896ae90" target="_top" xlink:title="Start a timer. ">
<polygon fill="white" stroke="black" points="791,-543.208 791,-564.208 928,-564.208 928,-543.208 791,-543.208"/>
<text text-anchor="middle" x="859.5" y="-550.608" font-family="Ubuntu Mono" font-size="12.00">messages::start_time</text>
</a>
</g>
</g>
<!-- Node22&#45;&gt;Node24 -->
<g id="edge49" class="edge"><title>Node22&#45;&gt;Node24</title>
<path fill="none" stroke="midnightblue" d="M709.331,-494.214C723.175,-498.141 738.444,-503.044 752,-508.708 768.888,-515.765 771.317,-521.179 788,-528.708 796.693,-532.631 806.2,-536.361 815.338,-539.685"/>
<polygon fill="midnightblue" stroke="midnightblue" points="814.46,-543.087 825.054,-543.123 816.795,-536.488 814.46,-543.087"/>
</g>
<!-- Node25 -->
<g id="node24" class="node"><title>Node25</title>
<g id="a_node24"><a xlink:href="namespacestr__utilities.html#a219964a283968cc6a968db0197d2187e" target="_top" xlink:title="Convert a string to lowercase. ">
<polygon fill="white" stroke="black" points="788,-583.208 788,-604.208 931,-604.208 931,-583.208 788,-583.208"/>
<text text-anchor="middle" x="859.5" y="-590.608" font-family="Ubuntu Mono" font-size="12.00">str_utilities::strh2l</text>
</a>
</g>
</g>
<!-- Node22&#45;&gt;Node25 -->
<g id="edge51" class="edge"><title>Node22&#45;&gt;Node25</title>
<path fill="none" stroke="midnightblue" d="M725.598,-494.368C735.063,-497.871 744.271,-502.525 752,-508.708 777.787,-529.338 762.13,-553.182 788,-573.708 790.093,-575.369 792.317,-576.892 794.636,-578.288"/>
<polygon fill="midnightblue" stroke="midnightblue" points="793.484,-581.63 803.981,-583.071 796.674,-575.399 793.484,-581.63"/>
</g>
<!-- Node23&#45;&gt;Node4 -->
<g id="edge48" class="edge"><title>Node23&#45;&gt;Node4</title>
<path fill="none" stroke="midnightblue" d="M925.171,-467.573C935.489,-466.276 946.151,-464.934 956.431,-463.641"/>
<polygon fill="midnightblue" stroke="midnightblue" points="957.07,-467.089 966.555,-462.368 956.197,-460.143 957.07,-467.089"/>
</g>
<!-- Node24&#45;&gt;Node4 -->
<g id="edge50" class="edge"><title>Node24&#45;&gt;Node4</title>
<path fill="none" stroke="midnightblue" d="M897.793,-543.196C908.836,-539.373 920.717,-534.531 931,-528.708 957.958,-513.443 984.829,-489.778 1001.77,-473.556"/>
<polygon fill="midnightblue" stroke="midnightblue" points="1004.53,-475.75 1009.24,-466.26 999.64,-470.741 1004.53,-475.75"/>
</g>
<!-- Node26&#45;&gt;Node11 -->
<g id="edge54" class="edge"><title>Node26&#45;&gt;Node11</title>
<path fill="none" stroke="midnightblue" d="M285.035,-137.104C309.353,-129.164 344.432,-118.824 376,-113.708 445.461,-102.451 525.455,-99.3282 583.566,-98.8049"/>
<polygon fill="midnightblue" stroke="midnightblue" points="583.813,-102.303 593.789,-98.7375 583.766,-95.3036 583.813,-102.303"/>
</g>
<!-- Node26&#45;&gt;Node15 -->
<g id="edge55" class="edge"><title>Node26&#45;&gt;Node15</title>
<path fill="none" stroke="midnightblue" d="M272.358,-158.398C290.256,-169.477 318.205,-187.796 340,-206.708 357.817,-222.168 358.251,-230.17 376,-245.708 393.784,-261.277 415.754,-276.555 432.55,-287.519"/>
<polygon fill="midnightblue" stroke="midnightblue" points="430.985,-290.674 441.289,-293.141 434.772,-284.787 430.985,-290.674"/>
</g>
<!-- Node27&#45;&gt;Node7 -->
<g id="edge57" class="edge"><title>Node27&#45;&gt;Node7</title>
<path fill="none" stroke="midnightblue" d="M502.449,-859.519C560.838,-834.699 668.802,-785.517 752,-728.708 786.141,-705.397 821.019,-672.117 841.17,-651.765"/>
<polygon fill="midnightblue" stroke="midnightblue" points="843.888,-653.992 848.381,-644.397 838.885,-649.096 843.888,-653.992"/>
</g>
<!-- Node28&#45;&gt;Node7 -->
<g id="edge59" class="edge"><title>Node28&#45;&gt;Node7</title>
<path fill="none" stroke="midnightblue" d="M725.935,-610.233C747.137,-613.988 771.137,-618.238 792.833,-622.08"/>
<polygon fill="midnightblue" stroke="midnightblue" points="792.49,-625.573 802.947,-623.871 793.711,-618.681 792.49,-625.573"/>
</g>
</g>
</svg>
