<?xml version="1.0" encoding="UTF-8" standalone="no"?>
<!DOCTYPE svg PUBLIC "-//W3C//DTD SVG 1.1//EN"
 "http://www.w3.org/Graphics/SVG/1.1/DTD/svg11.dtd">
<!-- Generated by graphviz version 14.1.2 (20260124.0452)
 -->
<!-- Title: eq_ops::calc_g_f::calc_g_f_ind Pages: 1 -->
<svg width="500pt" height="98pt"
 viewBox="0.00 0.00 500.00 98.00" xmlns="http://www.w3.org/2000/svg" xmlns:xlink="http://www.w3.org/1999/xlink">
<g id="graph0" class="graph" transform="scale(1 1) rotate(0) translate(4 94.12)">
<title>eq_ops::calc_g_f::calc_g_f_ind</title>
<!-- Node1 -->
<g id="Node000001" class="node">
<title>Node1</title>
<g id="a_Node000001"><a xlink:title="individual version">
<polygon fill="#999999" stroke="#666666" points="148,-55.5 0,-55.5 0,-22 148,-22 148,-55.5"/>
<text xml:space="preserve" text-anchor="start" x="8" y="-40.1" font-family="Ubuntu Mono" font-size="12.00">eq_ops::calc_g_f::calc</text>
<text xml:space="preserve" text-anchor="middle" x="74" y="-27.35" font-family="Ubuntu Mono" font-size="12.00">_g_f_ind</text>
</a>
</g>
</g>
<!-- Node2 -->
<g id="Node000002" class="node">
<title>Node2</title>
<g id="a_Node000002"><a xlink:href="namespaceeq__utilities.html#adffeddbd79a75c018b61d5b8d3052b10" target="_top" xlink:title="Calculate the metric coefficients in a coordinate system B ! using the.">
<polygon fill="white" stroke="#666666" points="320,-49.12 184,-49.12 184,-28.38 320,-28.38 320,-49.12"/>
<text xml:space="preserve" text-anchor="middle" x="252" y="-33.73" font-family="Ubuntu Mono" font-size="12.00">eq_utilities::calc_g</text>
</a>
</g>
</g>
<!-- Node1&#45;&gt;Node2 -->
<g id="edge1_Node000001_Node000002" class="edge">
<title>Node1&#45;&gt;Node2</title>
<g id="a_edge1_Node000001_Node000002"><a xlink:title=" ">
<path fill="none" stroke="#63b8ff" d="M148.37,-38.75C156.22,-38.75 164.24,-38.75 172.16,-38.75"/>
<polygon fill="#63b8ff" stroke="#63b8ff" points="172.15,-42.25 182.15,-38.75 172.15,-35.25 172.15,-42.25"/>
</a>
</g>
</g>
<!-- Node3 -->
<g id="Node000003" class="node">
<title>Node3</title>
<g id="a_Node000003"><a xlink:href="namespacenum__utilities.html#a5ee3fbd1fe67d0deefc7194631389f2a" target="_top" xlink:title="Convert 2&#45;D coordinates (i,j) to the storage convention used in matrices.">
<polygon fill="white" stroke="#666666" points="480,-72.12 368,-72.12 368,-51.38 480,-51.38 480,-72.12"/>
<text xml:space="preserve" text-anchor="middle" x="424" y="-56.73" font-family="Ubuntu Mono" font-size="12.00">num_utilities::c</text>
</a>
</g>
</g>
<!-- Node2&#45;&gt;Node3 -->
<g id="edge2_Node000002_Node000003" class="edge">
<title>Node2&#45;&gt;Node3</title>
<g id="a_edge2_Node000002_Node000003"><a xlink:title=" ">
<path fill="none" stroke="#63b8ff" d="M320.19,-47.84C332.07,-49.45 344.45,-51.12 356.32,-52.73"/>
<polygon fill="#63b8ff" stroke="#63b8ff" points="355.64,-56.17 366.02,-54.04 356.58,-49.23 355.64,-56.17"/>
</a>
</g>
</g>
<!-- Node4 -->
<g id="Node000004" class="node">
<title>Node4</title>
<g id="a_Node000004"><a xlink:href="namespacenum__utilities.html#a00f4cfe18a734eaa5d66f529e52f7c31" target="_top" xlink:title="checks whether the derivatives requested for a certain subroutine are valid">
<polygon fill="white" stroke="#666666" points="492,-33.5 356,-33.5 356,0 492,0 492,-33.5"/>
<text xml:space="preserve" text-anchor="start" x="364" y="-18.1" font-family="Ubuntu Mono" font-size="12.00">num_utilities::check</text>
<text xml:space="preserve" text-anchor="middle" x="424" y="-5.35" font-family="Ubuntu Mono" font-size="12.00">_deriv</text>
</a>
</g>
</g>
<!-- Node2&#45;&gt;Node4 -->
<g id="edge4_Node000002_Node000004" class="edge">
<title>Node2&#45;&gt;Node4</title>
<g id="a_edge4_Node000002_Node000004"><a xlink:title=" ">
<path fill="none" stroke="#63b8ff" d="M320.19,-30.06C328.14,-29.03 336.3,-27.97 344.39,-26.92"/>
<polygon fill="#63b8ff" stroke="#63b8ff" points="344.77,-30.4 354.24,-25.65 343.88,-23.46 344.77,-30.4"/>
</a>
</g>
</g>
<!-- Node3&#45;&gt;Node3 -->
<g id="edge3_Node000003_Node000003" class="edge">
<title>Node3&#45;&gt;Node3</title>
<g id="a_edge3_Node000003_Node000003"><a xlink:title=" ">
<path fill="none" stroke="#63b8ff" d="M396.29,-72.52C385.2,-81.18 394.44,-90.12 424,-90.12 440.17,-90.12 450.26,-87.45 454.27,-83.61"/>
<polygon fill="#63b8ff" stroke="#63b8ff" points="457.71,-82.96 452.05,-74 450.89,-84.53 457.71,-82.96"/>
</a>
</g>
</g>
</g>
</svg>
