<?xml version="1.0" encoding="UTF-8" standalone="no"?>
<!DOCTYPE svg PUBLIC "-//W3C//DTD SVG 1.1//EN"
 "http://www.w3.org/Graphics/SVG/1.1/DTD/svg11.dtd">
<!-- Generated by graphviz version 2.38.0 (20140413.2041)
 -->
<!-- Title: x_ops::calc_x::calc_x_2 Pages: 1 -->
<svg width="718pt" height="203pt"
 viewBox="0.00 0.00 718.00 202.50" xmlns="http://www.w3.org/2000/svg" xmlns:xlink="http://www.w3.org/1999/xlink">
<g id="graph0" class="graph" transform="scale(1 1) rotate(0) translate(4 198.5)">
<title>x_ops::calc_x::calc_x_2</title>
<polygon fill="white" stroke="none" points="-4,4 -4,-198.5 714,-198.5 714,4 -4,4"/>
<!-- Node19 -->
<g id="node1" class="node"><title>Node19</title>
<polygon fill="#bfbfbf" stroke="black" points="0,-104 0,-125 155,-125 155,-104 0,-104"/>
<text text-anchor="middle" x="77.5" y="-111.4" font-family="Ubuntu Mono" font-size="12.00">x_ops::calc_x::calc_x_2</text>
</g>
<!-- Node20 -->
<g id="node2" class="node"><title>Node20</title>
<g id="a_node2"><a xlink:href="namespacemessages.html#aa4a8d01563e92558e8a0875b075ec54c" target="_top" xlink:title="Write output to file identified by output_i. ">
<polygon fill="white" stroke="black" points="376,-153 376,-174 483,-174 483,-153 376,-153"/>
<text text-anchor="middle" x="429.5" y="-160.4" font-family="Ubuntu Mono" font-size="12.00">messages::writo</text>
</a>
</g>
</g>
<!-- Node19&#45;&gt;Node20 -->
<g id="edge1" class="edge"><title>Node19&#45;&gt;Node20</title>
<path fill="none" stroke="midnightblue" d="M101.622,-125.065C123.968,-134.708 159.039,-148.362 191,-154.5 249.326,-165.702 317.146,-167.152 365.344,-166.276"/>
<polygon fill="midnightblue" stroke="midnightblue" points="365.705,-169.769 375.626,-166.048 365.55,-162.77 365.705,-169.769"/>
</g>
<!-- Node23 -->
<g id="node5" class="node"><title>Node23</title>
<g id="a_node5"><a xlink:href="namespacemessages.html#a6e6bfb084063e4cc91ee86e542043302" target="_top" xlink:title="Increases/decreases lvl of output. ">
<polygon fill="white" stroke="black" points="191,-124 191,-145 304,-145 304,-124 191,-124"/>
<text text-anchor="middle" x="247.5" y="-131.4" font-family="Ubuntu Mono" font-size="12.00">messages::lvl_ud</text>
</a>
</g>
</g>
<!-- Node19&#45;&gt;Node23 -->
<g id="edge4" class="edge"><title>Node19&#45;&gt;Node23</title>
<path fill="none" stroke="midnightblue" d="M155.126,-123.622C163.616,-124.633 172.208,-125.656 180.55,-126.649"/>
<polygon fill="midnightblue" stroke="midnightblue" points="180.235,-130.136 190.578,-127.843 181.062,-123.185 180.235,-130.136"/>
</g>
<!-- Node24 -->
<g id="node6" class="node"><title>Node24</title>
<g id="a_node6"><a xlink:href="namespacex__ops.html#a51f3bf0b4c8d688ffbcc3a1adbca9762" target="_top" xlink:title="calculate &#160;(pol. flux) or &#160;(tor. flux) at all equilibrium loc_n_r values. ">
<polygon fill="white" stroke="black" points="197,-84 197,-105 298,-105 298,-84 197,-84"/>
<text text-anchor="middle" x="247.5" y="-91.4" font-family="Ubuntu Mono" font-size="12.00">x_ops::calc_pv</text>
</a>
</g>
</g>
<!-- Node19&#45;&gt;Node24 -->
<g id="edge6" class="edge"><title>Node19&#45;&gt;Node24</title>
<path fill="none" stroke="midnightblue" d="M155.126,-105.378C165.77,-104.111 176.574,-102.825 186.845,-101.602"/>
<polygon fill="midnightblue" stroke="midnightblue" points="187.398,-105.061 196.915,-100.403 186.571,-98.1098 187.398,-105.061"/>
</g>
<!-- Node29 -->
<g id="node11" class="node"><title>Node29</title>
<g id="a_node11"><a xlink:href="namespacex__ops.html#a045e8903230dfa0fb8b89b458d0c8ee2" target="_top" xlink:title="calculate &#160;(pol. flux) or &#160;(tor. flux) at all equilibrium loc_n_r values. ">
<polygon fill="white" stroke="black" points="197,-44 197,-65 298,-65 298,-44 197,-44"/>
<text text-anchor="middle" x="247.5" y="-51.4" font-family="Ubuntu Mono" font-size="12.00">x_ops::calc_kv</text>
</a>
</g>
</g>
<!-- Node19&#45;&gt;Node29 -->
<g id="edge11" class="edge"><title>Node19&#45;&gt;Node29</title>
<path fill="none" stroke="midnightblue" d="M108.148,-103.911C135.773,-94.0453 177.142,-79.2708 207.447,-68.4476"/>
<polygon fill="midnightblue" stroke="midnightblue" points="208.626,-71.7431 216.866,-65.0836 206.271,-65.1509 208.626,-71.7431"/>
</g>
<!-- Node21 -->
<g id="node3" class="node"><title>Node21</title>
<g id="a_node3"><a xlink:href="namespacemessages.html#a82dddaab795b78b3d39e1ff1aab2f665" target="_top" xlink:title="Returns the memory usage in kilobytes. ">
<polygon fill="white" stroke="black" points="555,-133 555,-154 710,-154 710,-133 555,-133"/>
<text text-anchor="middle" x="632.5" y="-140.4" font-family="Ubuntu Mono" font-size="12.00">messages::get_mem_usage</text>
</a>
</g>
</g>
<!-- Node20&#45;&gt;Node21 -->
<g id="edge2" class="edge"><title>Node20&#45;&gt;Node21</title>
<path fill="none" stroke="midnightblue" d="M483.048,-158.271C501.84,-156.401 523.555,-154.241 544.476,-152.159"/>
<polygon fill="midnightblue" stroke="midnightblue" points="545.062,-155.618 554.666,-151.145 544.368,-148.653 545.062,-155.618"/>
</g>
<!-- Node22 -->
<g id="node4" class="node"><title>Node22</title>
<g id="a_node4"><a xlink:href="namespacemessages.html#a61fd0b51b5e37d58fdc993c01792a3fd" target="_top" xlink:title="Returns the time. ">
<polygon fill="white" stroke="black" points="567,-173 567,-194 698,-194 698,-173 567,-173"/>
<text text-anchor="middle" x="632.5" y="-180.4" font-family="Ubuntu Mono" font-size="12.00">messages::get_clock</text>
</a>
</g>
</g>
<!-- Node20&#45;&gt;Node22 -->
<g id="edge3" class="edge"><title>Node20&#45;&gt;Node22</title>
<path fill="none" stroke="midnightblue" d="M483.048,-168.729C505.539,-170.967 532.215,-173.621 556.707,-176.058"/>
<polygon fill="midnightblue" stroke="midnightblue" points="556.392,-179.544 566.69,-177.051 557.086,-172.578 556.392,-179.544"/>
</g>
<!-- Node23&#45;&gt;Node20 -->
<g id="edge5" class="edge"><title>Node23&#45;&gt;Node20</title>
<path fill="none" stroke="midnightblue" d="M304.466,-143.517C323.978,-146.66 345.992,-150.207 365.999,-153.43"/>
<polygon fill="midnightblue" stroke="midnightblue" points="365.518,-156.898 375.947,-155.033 366.631,-149.987 365.518,-156.898"/>
</g>
<!-- Node25 -->
<g id="node7" class="node"><title>Node25</title>
<g id="a_node7"><a xlink:href="namespacenum__utilities.html#a5ee3fbd1fe67d0deefc7194631389f2a" target="_top" xlink:title="Convert 2&#45;D coordinates (i,j) to the storage convention used in matrices. ">
<polygon fill="white" stroke="black" points="373,-94 373,-115 486,-115 486,-94 373,-94"/>
<text text-anchor="middle" x="429.5" y="-101.4" font-family="Ubuntu Mono" font-size="12.00">num_utilities::c</text>
</a>
</g>
</g>
<!-- Node24&#45;&gt;Node25 -->
<g id="edge7" class="edge"><title>Node24&#45;&gt;Node25</title>
<path fill="none" stroke="midnightblue" d="M298.162,-97.259C318.195,-98.372 341.59,-99.6717 362.986,-100.86"/>
<polygon fill="midnightblue" stroke="midnightblue" points="362.801,-104.355 372.98,-101.416 363.19,-97.3662 362.801,-104.355"/>
</g>
<!-- Node26 -->
<g id="node8" class="node"><title>Node26</title>
<g id="a_node8"><a xlink:href="namespacex__utilities.html#a689aca7fedb49c43c5a65a18d557259f" target="_top" xlink:title="Determines whether a variable needs to be considered: ">
<polygon fill="white" stroke="black" points="340,-54 340,-75 519,-75 519,-54 340,-54"/>
<text text-anchor="middle" x="429.5" y="-61.4" font-family="Ubuntu Mono" font-size="12.00">x_utilities::is_necessary_x</text>
</a>
</g>
</g>
<!-- Node24&#45;&gt;Node26 -->
<g id="edge8" class="edge"><title>Node24&#45;&gt;Node26</title>
<path fill="none" stroke="midnightblue" d="M298.162,-86.223C315.885,-83.2692 336.239,-79.8768 355.513,-76.6645"/>
<polygon fill="midnightblue" stroke="midnightblue" points="356.185,-80.1008 365.474,-75.0044 355.034,-73.1961 356.185,-80.1008"/>
</g>
<!-- Node27 -->
<g id="node9" class="node"><title>Node27</title>
<g id="a_node9"><a xlink:href="namespacegrid__utilities.html#af8493f3dc2f6438d1fe98214dc20b884" target="_top" xlink:title="Set up the factors for the interpolation calculation in a matrix A using a polynomial order ord...">
<polygon fill="white" stroke="black" points="358,-0.5 358,-34.5 501,-34.5 501,-0.5 358,-0.5"/>
<text text-anchor="start" x="366" y="-20.9" font-family="Ubuntu Mono" font-size="12.00">grid_utilities::setup</text>
<text text-anchor="middle" x="429.5" y="-7.9" font-family="Ubuntu Mono" font-size="12.00">_interp_data</text>
</a>
</g>
</g>
<!-- Node24&#45;&gt;Node27 -->
<g id="edge9" class="edge"><title>Node24&#45;&gt;Node27</title>
<path fill="none" stroke="midnightblue" d="M283.676,-83.9257C290.612,-81.2634 297.691,-78.1151 304,-74.5 322.071,-64.1458 321.677,-54.4015 340,-44.5 344.003,-42.3366 348.205,-40.3214 352.51,-38.4481"/>
<polygon fill="midnightblue" stroke="midnightblue" points="354.117,-41.5733 362.069,-34.5712 351.486,-35.0866 354.117,-41.5733"/>
</g>
<!-- Node28 -->
<g id="node10" class="node"><title>Node28</title>
<g id="a_node10"><a xlink:href="namespacestr__utilities.html#a0b97e51770725a3e98ed393d26681414" target="_top" xlink:title="Convert an integer to string. ">
<polygon fill="white" stroke="black" points="564,-7 564,-28 701,-28 701,-7 564,-7"/>
<text text-anchor="middle" x="632.5" y="-14.4" font-family="Ubuntu Mono" font-size="12.00">str_utilities::i2str</text>
</a>
</g>
</g>
<!-- Node27&#45;&gt;Node28 -->
<g id="edge10" class="edge"><title>Node27&#45;&gt;Node28</title>
<path fill="none" stroke="midnightblue" d="M501.082,-17.5C518.103,-17.5 536.383,-17.5 553.713,-17.5"/>
<polygon fill="midnightblue" stroke="midnightblue" points="553.79,-21.0001 563.79,-17.5 553.79,-14.0001 553.79,-21.0001"/>
</g>
<!-- Node29&#45;&gt;Node25 -->
<g id="edge12" class="edge"><title>Node29&#45;&gt;Node25</title>
<path fill="none" stroke="midnightblue" d="M278.366,-65.0843C296.142,-71.1846 319.213,-78.7574 340,-84.5 348.92,-86.9643 358.407,-89.3509 367.731,-91.5656"/>
<polygon fill="midnightblue" stroke="midnightblue" points="367.217,-95.0394 377.75,-93.8969 368.803,-88.2215 367.217,-95.0394"/>
</g>
<!-- Node29&#45;&gt;Node26 -->
<g id="edge13" class="edge"><title>Node29&#45;&gt;Node26</title>
<path fill="none" stroke="midnightblue" d="M298.162,-57.259C308.121,-57.8123 318.911,-58.4117 329.873,-59.0207"/>
<polygon fill="midnightblue" stroke="midnightblue" points="329.791,-62.5215 339.97,-59.5817 330.179,-55.5322 329.791,-62.5215"/>
</g>
<!-- Node29&#45;&gt;Node27 -->
<g id="edge14" class="edge"><title>Node29&#45;&gt;Node27</title>
<path fill="none" stroke="midnightblue" d="M298.162,-44.2916C313.559,-41.1267 330.942,-37.5536 347.877,-34.0725"/>
<polygon fill="midnightblue" stroke="midnightblue" points="348.688,-37.4792 357.778,-32.0373 347.278,-30.6225 348.688,-37.4792"/>
</g>
</g>
</svg>
