<?xml version="1.0" encoding="UTF-8" standalone="no"?>
<!DOCTYPE svg PUBLIC "-//W3C//DTD SVG 1.1//EN"
 "http://www.w3.org/Graphics/SVG/1.1/DTD/svg11.dtd">
<!-- Generated by graphviz version 2.43.0 (0)
 -->
<!-- Title: eq_utilities::calc_inv_met::calc_inv_met_ind Pages: 1 -->
<svg width="713pt" height="186pt"
 viewBox="0.00 0.00 713.00 186.00" xmlns="http://www.w3.org/2000/svg" xmlns:xlink="http://www.w3.org/1999/xlink">
<g id="graph0" class="graph" transform="scale(1 1) rotate(0) translate(4 182)">
<title>eq_utilities::calc_inv_met::calc_inv_met_ind</title>
<polygon fill="white" stroke="transparent" points="-4,4 -4,-182 709,-182 709,4 -4,4"/>
<!-- Node1 -->
<g id="node1" class="node">
<title>Node1</title>
<g id="a_node1"><a xlink:title="individual matrix version">
<polygon fill="#bfbfbf" stroke="black" points="0,-72 0,-106 179,-106 179,-72 0,-72"/>
<text text-anchor="start" x="8" y="-92.4" font-family="Ubuntu Mono" font-size="12.00">eq_utilities::calc</text>
<text text-anchor="middle" x="89.5" y="-79.4" font-family="Ubuntu Mono" font-size="12.00">_inv_met::calc_inv_met_ind</text>
</a>
</g>
</g>
<!-- Node2 -->
<g id="node2" class="node">
<title>Node2</title>
<g id="a_node2"><a xlink:href="namespacenum__utilities.html#a5ee3fbd1fe67d0deefc7194631389f2a" target="_top" xlink:title="Convert 2&#45;D coordinates (i,j) to the storage convention used in matrices.">
<polygon fill="white" stroke="black" points="222.5,-156.5 222.5,-177.5 328.5,-177.5 328.5,-156.5 222.5,-156.5"/>
<text text-anchor="middle" x="275.5" y="-163.9" font-family="Ubuntu Mono" font-size="12.00">num_utilities::c</text>
</a>
</g>
</g>
<!-- Node1&#45;&gt;Node2 -->
<g id="edge1" class="edge">
<title>Node1&#45;&gt;Node2</title>
<path fill="none" stroke="midnightblue" d="M130.57,-106.11C154.96,-116.52 186.76,-130.06 215,-142 223.08,-145.42 231.79,-149.09 239.99,-152.53"/>
<polygon fill="midnightblue" stroke="midnightblue" points="238.73,-155.8 249.3,-156.44 241.44,-149.34 238.73,-155.8"/>
</g>
<!-- Node3 -->
<g id="node3" class="node">
<title>Node3</title>
<g id="a_node3"><a xlink:href="namespacestr__utilities.html#a0b97e51770725a3e98ed393d26681414" target="_top" xlink:title="Convert an integer to string.">
<polygon fill="white" stroke="black" points="556.5,-117.5 556.5,-138.5 670.5,-138.5 670.5,-117.5 556.5,-117.5"/>
<text text-anchor="middle" x="613.5" y="-124.9" font-family="Ubuntu Mono" font-size="12.00">str_utilities::i2str</text>
</a>
</g>
</g>
<!-- Node1&#45;&gt;Node3 -->
<g id="edge2" class="edge">
<title>Node1&#45;&gt;Node3</title>
<path fill="none" stroke="midnightblue" d="M179.09,-104.47C191.13,-106.21 203.35,-107.79 215,-109 331.08,-121.06 467.03,-125.48 546.1,-127.09"/>
<polygon fill="midnightblue" stroke="midnightblue" points="546.33,-130.59 556.4,-127.29 546.47,-123.59 546.33,-130.59"/>
</g>
<!-- Node4 -->
<g id="node4" class="node">
<title>Node4</title>
<g id="a_node4"><a xlink:href="namespacemessages.html#a6e6bfb084063e4cc91ee86e542043302" target="_top" xlink:title="Increases/decreases lvl of output.">
<polygon fill="white" stroke="black" points="216.5,-78.5 216.5,-99.5 334.5,-99.5 334.5,-78.5 216.5,-78.5"/>
<text text-anchor="middle" x="275.5" y="-85.9" font-family="Ubuntu Mono" font-size="12.00">messages::lvl_ud</text>
</a>
</g>
</g>
<!-- Node1&#45;&gt;Node4 -->
<g id="edge3" class="edge">
<title>Node1&#45;&gt;Node4</title>
<path fill="none" stroke="midnightblue" d="M179.27,-89C188.32,-89 197.41,-89 206.19,-89"/>
<polygon fill="midnightblue" stroke="midnightblue" points="206.33,-92.5 216.33,-89 206.33,-85.5 206.33,-92.5"/>
</g>
<!-- Node5 -->
<g id="node5" class="node">
<title>Node5</title>
<g id="a_node5"><a xlink:href="namespacemessages.html#aa4a8d01563e92558e8a0875b075ec54c" target="_top" xlink:title="Write output to file identified by output_i.">
<polygon fill="white" stroke="black" points="372,-77.5 372,-98.5 486,-98.5 486,-77.5 372,-77.5"/>
<text text-anchor="middle" x="429" y="-84.9" font-family="Ubuntu Mono" font-size="12.00">messages::writo</text>
</a>
</g>
</g>
<!-- Node1&#45;&gt;Node5 -->
<g id="edge9" class="edge">
<title>Node1&#45;&gt;Node5</title>
<path fill="none" stroke="midnightblue" d="M179.05,-73C191.09,-71.35 203.33,-69.93 215,-69 268.61,-64.72 282.5,-63.53 336,-69 349.06,-70.33 363,-72.71 375.98,-75.33"/>
<polygon fill="midnightblue" stroke="midnightblue" points="375.64,-78.84 386.14,-77.48 377.08,-71.99 375.64,-78.84"/>
</g>
<!-- Node8 -->
<g id="node8" class="node">
<title>Node8</title>
<g id="a_node8"><a xlink:href="namespacestr__utilities.html#ac778d706b2e021672618939ab58fdd32" target="_top" xlink:title="Convert a real (double) to string.">
<polygon fill="white" stroke="black" points="215,-0.5 215,-21.5 336,-21.5 336,-0.5 215,-0.5"/>
<text text-anchor="middle" x="275.5" y="-7.9" font-family="Ubuntu Mono" font-size="12.00">str_utilities::r2strt</text>
</a>
</g>
</g>
<!-- Node1&#45;&gt;Node8 -->
<g id="edge8" class="edge">
<title>Node1&#45;&gt;Node8</title>
<path fill="none" stroke="midnightblue" d="M130.57,-71.89C154.96,-61.48 186.76,-47.94 215,-36 223.08,-32.58 231.79,-28.91 239.99,-25.47"/>
<polygon fill="midnightblue" stroke="midnightblue" points="241.44,-28.66 249.3,-21.56 238.73,-22.2 241.44,-28.66"/>
</g>
<!-- Node4&#45;&gt;Node5 -->
<g id="edge4" class="edge">
<title>Node4&#45;&gt;Node5</title>
<path fill="none" stroke="midnightblue" d="M334.64,-88.62C343.49,-88.56 352.68,-88.5 361.69,-88.44"/>
<polygon fill="midnightblue" stroke="midnightblue" points="361.79,-91.94 371.76,-88.37 361.74,-84.94 361.79,-91.94"/>
</g>
<!-- Node5&#45;&gt;Node3 -->
<g id="edge7" class="edge">
<title>Node5&#45;&gt;Node3</title>
<path fill="none" stroke="midnightblue" d="M477.95,-98.51C501.43,-103.66 529.9,-109.9 554.59,-115.31"/>
<polygon fill="midnightblue" stroke="midnightblue" points="554.04,-118.77 564.55,-117.49 555.54,-111.93 554.04,-118.77"/>
</g>
<!-- Node6 -->
<g id="node6" class="node">
<title>Node6</title>
<g id="a_node6"><a xlink:href="namespacemessages.html#a61fd0b51b5e37d58fdc993c01792a3fd" target="_top" xlink:title="Returns the time.">
<polygon fill="white" stroke="black" points="543.5,-77.5 543.5,-98.5 683.5,-98.5 683.5,-77.5 543.5,-77.5"/>
<text text-anchor="middle" x="613.5" y="-84.9" font-family="Ubuntu Mono" font-size="12.00">messages::get_clock</text>
</a>
</g>
</g>
<!-- Node5&#45;&gt;Node6 -->
<g id="edge5" class="edge">
<title>Node5&#45;&gt;Node6</title>
<path fill="none" stroke="midnightblue" d="M486.25,-88C501.02,-88 517.24,-88 532.99,-88"/>
<polygon fill="midnightblue" stroke="midnightblue" points="533.25,-91.5 543.25,-88 533.25,-84.5 533.25,-91.5"/>
</g>
<!-- Node7 -->
<g id="node7" class="node">
<title>Node7</title>
<g id="a_node7"><a xlink:href="namespacemessages.html#a82dddaab795b78b3d39e1ff1aab2f665" target="_top" xlink:title="Returns the memory usage in kilobytes.">
<polygon fill="white" stroke="black" points="522,-37.5 522,-58.5 705,-58.5 705,-37.5 522,-37.5"/>
<text text-anchor="middle" x="613.5" y="-44.9" font-family="Ubuntu Mono" font-size="12.00">messages::get_mem_usage</text>
</a>
</g>
</g>
<!-- Node5&#45;&gt;Node7 -->
<g id="edge6" class="edge">
<title>Node5&#45;&gt;Node7</title>
<path fill="none" stroke="midnightblue" d="M477.95,-77.49C501.43,-72.34 529.9,-66.1 554.59,-60.69"/>
<polygon fill="midnightblue" stroke="midnightblue" points="555.54,-64.07 564.55,-58.51 554.04,-57.23 555.54,-64.07"/>
</g>
</g>
</svg>
