<?xml version="1.0" encoding="UTF-8" standalone="no"?>
<!DOCTYPE svg PUBLIC "-//W3C//DTD SVG 1.1//EN"
 "http://www.w3.org/Graphics/SVG/1.1/DTD/svg11.dtd">
<!-- Generated by graphviz version 2.38.0 (20140413.2041)
 -->
<!-- Title: num_ops::calc_zero_hh::calc_zero_hh_3d Pages: 1 -->
<svg width="515pt" height="150pt"
 viewBox="0.00 0.00 515.00 150.00" xmlns="http://www.w3.org/2000/svg" xmlns:xlink="http://www.w3.org/1999/xlink">
<g id="graph0" class="graph" transform="scale(1 1) rotate(0) translate(4 146)">
<title>num_ops::calc_zero_hh::calc_zero_hh_3d</title>
<polygon fill="white" stroke="none" points="-4,4 -4,-146 511,-146 511,4 -4,4"/>
<!-- Node8 -->
<g id="node1" class="node"><title>Node8</title>
<polygon fill="#bfbfbf" stroke="black" points="0,-54 0,-88 137,-88 137,-54 0,-54"/>
<text text-anchor="start" x="8" y="-74.4" font-family="Ubuntu Mono" font-size="12.00">num_ops::calc_zero</text>
<text text-anchor="middle" x="68.5" y="-61.4" font-family="Ubuntu Mono" font-size="12.00">_hh::calc_zero_hh_3d</text>
</g>
<!-- Node9 -->
<g id="node2" class="node"><title>Node9</title>
<g id="a_node2"><a xlink:href="namespacestr__utilities.html#a0b97e51770725a3e98ed393d26681414" target="_top" xlink:title="Convert an integer to string. ">
<polygon fill="white" stroke="black" points="176,-120.5 176,-141.5 313,-141.5 313,-120.5 176,-120.5"/>
<text text-anchor="middle" x="244.5" y="-127.9" font-family="Ubuntu Mono" font-size="12.00">str_utilities::i2str</text>
</a>
</g>
</g>
<!-- Node8&#45;&gt;Node9 -->
<g id="edge1" class="edge"><title>Node8&#45;&gt;Node9</title>
<path fill="none" stroke="midnightblue" d="M110.979,-88.0392C129.769,-95.4962 152.355,-104.099 173,-111 179.802,-113.274 187.028,-115.516 194.16,-117.631"/>
<polygon fill="midnightblue" stroke="midnightblue" points="193.199,-120.996 203.779,-120.425 195.153,-114.274 193.199,-120.996"/>
</g>
<!-- Node10 -->
<g id="node3" class="node"><title>Node10</title>
<g id="a_node3"><a xlink:href="namespacemessages.html#aa4a8d01563e92558e8a0875b075ec54c" target="_top" xlink:title="Write output to file identified by output_i. ">
<polygon fill="white" stroke="black" points="191,-80.5 191,-101.5 298,-101.5 298,-80.5 191,-80.5"/>
<text text-anchor="middle" x="244.5" y="-87.9" font-family="Ubuntu Mono" font-size="12.00">messages::writo</text>
</a>
</g>
</g>
<!-- Node8&#45;&gt;Node10 -->
<g id="edge2" class="edge"><title>Node8&#45;&gt;Node10</title>
<path fill="none" stroke="midnightblue" d="M137.271,-78.7898C151.553,-80.4314 166.563,-82.1567 180.655,-83.7764"/>
<polygon fill="midnightblue" stroke="midnightblue" points="180.395,-87.2696 190.73,-84.9345 181.195,-80.3154 180.395,-87.2696"/>
</g>
<!-- Node13 -->
<g id="node6" class="node"><title>Node13</title>
<g id="a_node6"><a xlink:href="namespacestr__utilities.html#a92ac6c0af1979df094de1caddd28ade0" target="_top" xlink:title="Convert a real (double) to string. ">
<polygon fill="white" stroke="black" points="176,-40.5 176,-61.5 313,-61.5 313,-40.5 176,-40.5"/>
<text text-anchor="middle" x="244.5" y="-47.9" font-family="Ubuntu Mono" font-size="12.00">str_utilities::r2str</text>
</a>
</g>
</g>
<!-- Node8&#45;&gt;Node13 -->
<g id="edge5" class="edge"><title>Node8&#45;&gt;Node13</title>
<path fill="none" stroke="midnightblue" d="M137.271,-63.2102C146.591,-62.1389 156.221,-61.032 165.704,-59.9421"/>
<polygon fill="midnightblue" stroke="midnightblue" points="166.379,-63.3876 175.914,-58.7685 165.579,-56.4334 166.379,-63.3876"/>
</g>
<!-- Node14 -->
<g id="node7" class="node"><title>Node14</title>
<g id="a_node7"><a xlink:href="namespacestr__utilities.html#ac778d706b2e021672618939ab58fdd32" target="_top" xlink:title="Convert a real (double) to string. ">
<polygon fill="white" stroke="black" points="173,-0.5 173,-21.5 316,-21.5 316,-0.5 173,-0.5"/>
<text text-anchor="middle" x="244.5" y="-7.9" font-family="Ubuntu Mono" font-size="12.00">str_utilities::r2strt</text>
</a>
</g>
</g>
<!-- Node8&#45;&gt;Node14 -->
<g id="edge6" class="edge"><title>Node8&#45;&gt;Node14</title>
<path fill="none" stroke="midnightblue" d="M110.979,-53.9608C129.769,-46.5038 152.355,-37.9015 173,-31 179.802,-28.7261 187.028,-26.4838 194.16,-24.3694"/>
<polygon fill="midnightblue" stroke="midnightblue" points="195.153,-27.7257 203.779,-21.5746 193.199,-21.0037 195.153,-27.7257"/>
</g>
<!-- Node11 -->
<g id="node4" class="node"><title>Node11</title>
<g id="a_node4"><a xlink:href="namespacemessages.html#a82dddaab795b78b3d39e1ff1aab2f665" target="_top" xlink:title="Returns the memory usage in kilobytes. ">
<polygon fill="white" stroke="black" points="352,-100.5 352,-121.5 507,-121.5 507,-100.5 352,-100.5"/>
<text text-anchor="middle" x="429.5" y="-107.9" font-family="Ubuntu Mono" font-size="12.00">messages::get_mem_usage</text>
</a>
</g>
</g>
<!-- Node10&#45;&gt;Node11 -->
<g id="edge3" class="edge"><title>Node10&#45;&gt;Node11</title>
<path fill="none" stroke="midnightblue" d="M298.431,-96.7848C311.982,-98.2658 326.915,-99.8978 341.685,-101.512"/>
<polygon fill="midnightblue" stroke="midnightblue" points="341.544,-105.017 351.865,-102.625 342.304,-98.0588 341.544,-105.017"/>
</g>
<!-- Node12 -->
<g id="node5" class="node"><title>Node12</title>
<g id="a_node5"><a xlink:href="namespacemessages.html#a61fd0b51b5e37d58fdc993c01792a3fd" target="_top" xlink:title="Returns the time. ">
<polygon fill="white" stroke="black" points="364,-60.5 364,-81.5 495,-81.5 495,-60.5 364,-60.5"/>
<text text-anchor="middle" x="429.5" y="-67.9" font-family="Ubuntu Mono" font-size="12.00">messages::get_clock</text>
</a>
</g>
</g>
<!-- Node10&#45;&gt;Node12 -->
<g id="edge4" class="edge"><title>Node10&#45;&gt;Node12</title>
<path fill="none" stroke="midnightblue" d="M298.431,-85.2152C315.621,-83.3365 335.034,-81.2149 353.517,-79.1949"/>
<polygon fill="midnightblue" stroke="midnightblue" points="354.109,-82.6511 363.669,-78.0853 353.348,-75.6926 354.109,-82.6511"/>
</g>
</g>
</svg>
