<?xml version="1.0" encoding="UTF-8" standalone="no"?>
<!DOCTYPE svg PUBLIC "-//W3C//DTD SVG 1.1//EN"
 "http://www.w3.org/Graphics/SVG/1.1/DTD/svg11.dtd">
<!-- Generated by graphviz version 2.43.0 (0)
 -->
<!-- Title: hdf5_ops::reset_hdf5_item::reset_hdf5_item_arr Pages: 1 -->
<svg width="553pt" height="110pt"
 viewBox="0.00 0.00 553.00 110.00" xmlns="http://www.w3.org/2000/svg" xmlns:xlink="http://www.w3.org/1999/xlink">
<g id="graph0" class="graph" transform="scale(1 1) rotate(0) translate(4 106)">
<title>hdf5_ops::reset_hdf5_item::reset_hdf5_item_arr</title>
<polygon fill="white" stroke="transparent" points="-4,4 -4,-106 549,-106 549,4 -4,4"/>
<!-- Node1 -->
<g id="node1" class="node">
<title>Node1</title>
<g id="a_node1"><a xlink:title="array version">
<polygon fill="#bfbfbf" stroke="black" points="0,-34 0,-68 176,-68 176,-34 0,-34"/>
<text text-anchor="start" x="8" y="-54.4" font-family="Ubuntu Mono" font-size="12.00">hdf5_ops::reset_hdf5</text>
<text text-anchor="middle" x="88" y="-41.4" font-family="Ubuntu Mono" font-size="12.00">_item::reset_hdf5_item_arr</text>
</a>
</g>
</g>
<!-- Node2 -->
<g id="node2" class="node">
<title>Node2</title>
<g id="a_node2"><a xlink:href="namespacemessages.html#aa4a8d01563e92558e8a0875b075ec54c" target="_top" xlink:title="Write output to file identified by output_i.">
<polygon fill="white" stroke="black" points="212,-40.5 212,-61.5 326,-61.5 326,-40.5 212,-40.5"/>
<text text-anchor="middle" x="269" y="-47.9" font-family="Ubuntu Mono" font-size="12.00">messages::writo</text>
</a>
</g>
</g>
<!-- Node1&#45;&gt;Node2 -->
<g id="edge1" class="edge">
<title>Node1&#45;&gt;Node2</title>
<path fill="none" stroke="midnightblue" d="M176.14,-51C184.74,-51 193.36,-51 201.7,-51"/>
<polygon fill="midnightblue" stroke="midnightblue" points="201.7,-54.5 211.7,-51 201.7,-47.5 201.7,-54.5"/>
</g>
<!-- Node3 -->
<g id="node3" class="node">
<title>Node3</title>
<g id="a_node3"><a xlink:href="namespacemessages.html#a61fd0b51b5e37d58fdc993c01792a3fd" target="_top" xlink:title="Returns the time.">
<polygon fill="white" stroke="black" points="383.5,-80.5 383.5,-101.5 523.5,-101.5 523.5,-80.5 383.5,-80.5"/>
<text text-anchor="middle" x="453.5" y="-87.9" font-family="Ubuntu Mono" font-size="12.00">messages::get_clock</text>
</a>
</g>
</g>
<!-- Node2&#45;&gt;Node3 -->
<g id="edge2" class="edge">
<title>Node2&#45;&gt;Node3</title>
<path fill="none" stroke="midnightblue" d="M317.95,-61.51C341.43,-66.66 369.9,-72.9 394.59,-78.31"/>
<polygon fill="midnightblue" stroke="midnightblue" points="394.04,-81.77 404.55,-80.49 395.54,-74.93 394.04,-81.77"/>
</g>
<!-- Node4 -->
<g id="node4" class="node">
<title>Node4</title>
<g id="a_node4"><a xlink:href="namespacemessages.html#a82dddaab795b78b3d39e1ff1aab2f665" target="_top" xlink:title="Returns the memory usage in kilobytes.">
<polygon fill="white" stroke="black" points="362,-40.5 362,-61.5 545,-61.5 545,-40.5 362,-40.5"/>
<text text-anchor="middle" x="453.5" y="-47.9" font-family="Ubuntu Mono" font-size="12.00">messages::get_mem_usage</text>
</a>
</g>
</g>
<!-- Node2&#45;&gt;Node4 -->
<g id="edge3" class="edge">
<title>Node2&#45;&gt;Node4</title>
<path fill="none" stroke="midnightblue" d="M326.25,-51C334.37,-51 342.94,-51 351.63,-51"/>
<polygon fill="midnightblue" stroke="midnightblue" points="351.86,-54.5 361.86,-51 351.86,-47.5 351.86,-54.5"/>
</g>
<!-- Node5 -->
<g id="node5" class="node">
<title>Node5</title>
<g id="a_node5"><a xlink:href="namespacestr__utilities.html#a0b97e51770725a3e98ed393d26681414" target="_top" xlink:title="Convert an integer to string.">
<polygon fill="white" stroke="black" points="396.5,-0.5 396.5,-21.5 510.5,-21.5 510.5,-0.5 396.5,-0.5"/>
<text text-anchor="middle" x="453.5" y="-7.9" font-family="Ubuntu Mono" font-size="12.00">str_utilities::i2str</text>
</a>
</g>
</g>
<!-- Node2&#45;&gt;Node5 -->
<g id="edge4" class="edge">
<title>Node2&#45;&gt;Node5</title>
<path fill="none" stroke="midnightblue" d="M317.95,-40.49C341.43,-35.34 369.9,-29.1 394.59,-23.69"/>
<polygon fill="midnightblue" stroke="midnightblue" points="395.54,-27.07 404.55,-21.51 394.04,-20.23 395.54,-27.07"/>
</g>
</g>
</svg>
