<?xml version="1.0" encoding="UTF-8" standalone="no"?>
<!DOCTYPE svg PUBLIC "-//W3C//DTD SVG 1.1//EN"
 "http://www.w3.org/Graphics/SVG/1.1/DTD/svg11.dtd">
<!-- Generated by graphviz version 2.43.0 (0)
 -->
<!-- Title: grid_utilities::coord_f2e::coord_f2e_rtz Pages: 1 -->
<svg width="296pt" height="70pt"
 viewBox="0.00 0.00 296.00 70.00" xmlns="http://www.w3.org/2000/svg" xmlns:xlink="http://www.w3.org/1999/xlink">
<g id="graph0" class="graph" transform="scale(1 1) rotate(0) translate(4 66)">
<title>grid_utilities::coord_f2e::coord_f2e_rtz</title>
<polygon fill="white" stroke="transparent" points="-4,4 -4,-66 292,-66 292,4 -4,4"/>
<!-- Node1 -->
<g id="node1" class="node">
<title>Node1</title>
<g id="a_node1"><a xlink:title="version withi r, theta and zeta">
<polygon fill="#bfbfbf" stroke="black" points="0,-14 0,-48 131,-48 131,-14 0,-14"/>
<text text-anchor="start" x="8" y="-34.4" font-family="Ubuntu Mono" font-size="12.00">grid_utilities::coord</text>
<text text-anchor="middle" x="65.5" y="-21.4" font-family="Ubuntu Mono" font-size="12.00">_f2e::coord_f2e_rtz</text>
</a>
</g>
</g>
<!-- Node2 -->
<g id="node2" class="node">
<title>Node2</title>
<g id="a_node2"><a xlink:href="namespacestr__utilities.html#a0b97e51770725a3e98ed393d26681414" target="_top" xlink:title="Convert an integer to string.">
<polygon fill="white" stroke="black" points="170.5,-40.5 170.5,-61.5 284.5,-61.5 284.5,-40.5 170.5,-40.5"/>
<text text-anchor="middle" x="227.5" y="-47.9" font-family="Ubuntu Mono" font-size="12.00">str_utilities::i2str</text>
</a>
</g>
</g>
<!-- Node1&#45;&gt;Node2 -->
<g id="edge1" class="edge">
<title>Node1&#45;&gt;Node2</title>
<path fill="none" stroke="midnightblue" d="M131.12,-39.08C140.77,-40.28 150.74,-41.53 160.42,-42.74"/>
<polygon fill="midnightblue" stroke="midnightblue" points="160.03,-46.22 170.39,-43.99 160.9,-39.27 160.03,-46.22"/>
</g>
<!-- Node3 -->
<g id="node3" class="node">
<title>Node3</title>
<g id="a_node3"><a xlink:href="namespacestr__utilities.html#ac778d706b2e021672618939ab58fdd32" target="_top" xlink:title="Convert a real (double) to string.">
<polygon fill="white" stroke="black" points="167,-0.5 167,-21.5 288,-21.5 288,-0.5 167,-0.5"/>
<text text-anchor="middle" x="227.5" y="-7.9" font-family="Ubuntu Mono" font-size="12.00">str_utilities::r2strt</text>
</a>
</g>
</g>
<!-- Node1&#45;&gt;Node3 -->
<g id="edge2" class="edge">
<title>Node1&#45;&gt;Node3</title>
<path fill="none" stroke="midnightblue" d="M131.12,-22.92C139.59,-21.86 148.31,-20.77 156.87,-19.7"/>
<polygon fill="midnightblue" stroke="midnightblue" points="157.33,-23.17 166.82,-18.46 156.46,-16.23 157.33,-23.17"/>
</g>
</g>
</svg>
