<?xml version="1.0" encoding="UTF-8" standalone="no"?>
<!DOCTYPE svg PUBLIC "-//W3C//DTD SVG 1.1//EN"
 "http://www.w3.org/Graphics/SVG/1.1/DTD/svg11.dtd">
<!-- Generated by graphviz version 14.1.2 (20260124.0452)
 -->
<!-- Title: eq_ops::redistribute_output_eq::redistribute_output_eq_2 Pages: 1 -->
<svg width="738pt" height="115pt"
 viewBox="0.00 0.00 738.00 115.00" xmlns="http://www.w3.org/2000/svg" xmlns:xlink="http://www.w3.org/1999/xlink">
<g id="graph0" class="graph" transform="scale(1 1) rotate(0) translate(4 110.75)">
<title>eq_ops::redistribute_output_eq::redistribute_output_eq_2</title>
<!-- Node1 -->
<g id="Node000001" class="node">
<title>Node1</title>
<g id="a_Node000001"><a xlink:title="metric version">
<polygon fill="#999999" stroke="#666666" points="160,-71.5 0,-71.5 0,-25.25 160,-25.25 160,-71.5"/>
<text xml:space="preserve" text-anchor="start" x="8" y="-56.1" font-family="Ubuntu Mono" font-size="12.00">eq_ops::redistribute</text>
<text xml:space="preserve" text-anchor="start" x="8" y="-43.35" font-family="Ubuntu Mono" font-size="12.00">_output_eq::redistribute</text>
<text xml:space="preserve" text-anchor="middle" x="80" y="-30.6" font-family="Ubuntu Mono" font-size="12.00">_output_eq_2</text>
</a>
</g>
</g>
<!-- Node2 -->
<g id="Node000002" class="node">
<title>Node2</title>
<g id="a_Node000002"><a xlink:href="namespacemessages.html#a6e6bfb084063e4cc91ee86e542043302" target="_top" xlink:title="Increases/decreases lvl of output.">
<polygon fill="white" stroke="#666666" points="353,-96.75 241,-96.75 241,-76 353,-76 353,-96.75"/>
<text xml:space="preserve" text-anchor="middle" x="297" y="-81.35" font-family="Ubuntu Mono" font-size="12.00">messages::lvl_ud</text>
</a>
</g>
</g>
<!-- Node1&#45;&gt;Node2 -->
<g id="edge1_Node000001_Node000002" class="edge">
<title>Node1&#45;&gt;Node2</title>
<g id="a_edge1_Node000001_Node000002"><a xlink:title=" ">
<path fill="none" stroke="#63b8ff" d="M160.45,-62.42C183.16,-66.43 207.68,-70.76 229.53,-74.63"/>
<polygon fill="#63b8ff" stroke="#63b8ff" points="228.74,-78.04 239.2,-76.34 229.96,-71.15 228.74,-78.04"/>
</a>
</g>
</g>
<!-- Node3 -->
<g id="Node000003" class="node">
<title>Node3</title>
<g id="a_Node000003"><a xlink:href="namespacemessages.html#aa4a8d01563e92558e8a0875b075ec54c" target="_top" xlink:title="Write output to file identified by output_i.">
<polygon fill="white" stroke="#666666" points="540,-77.75 434,-77.75 434,-57 540,-57 540,-77.75"/>
<text xml:space="preserve" text-anchor="middle" x="487" y="-62.35" font-family="Ubuntu Mono" font-size="12.00">messages::writo</text>
</a>
</g>
</g>
<!-- Node1&#45;&gt;Node3 -->
<g id="edge7_Node000001_Node000003" class="edge">
<title>Node1&#45;&gt;Node3</title>
<g id="a_edge7_Node000001_Node000003"><a xlink:title=" ">
<path fill="none" stroke="#63b8ff" d="M160.05,-52.08C236.59,-55.67 351.18,-61.05 422.12,-64.38"/>
<polygon fill="#63b8ff" stroke="#63b8ff" points="421.88,-67.87 432.04,-64.84 422.21,-60.88 421.88,-67.87"/>
</a>
</g>
</g>
<!-- Node6 -->
<g id="Node000006" class="node">
<title>Node6</title>
<g id="a_Node000006"><a xlink:href="namespacempi__utilities.html#a128702990bd5fddc582e8fabcffc82b2" target="_top" xlink:title="Redistribute variables according to new limits.">
<polygon fill="white" stroke="#666666" points="398,-20.75 196,-20.75 196,0 398,0 398,-20.75"/>
<text xml:space="preserve" text-anchor="middle" x="297" y="-5.35" font-family="Ubuntu Mono" font-size="12.00">mpi_utilities::redistribute_var</text>
</a>
</g>
</g>
<!-- Node1&#45;&gt;Node6 -->
<g id="edge6_Node000001_Node000006" class="edge">
<title>Node1&#45;&gt;Node6</title>
<g id="a_edge6_Node000001_Node000006"><a xlink:title=" ">
<path fill="none" stroke="#63b8ff" d="M160.45,-34.33C181.14,-30.68 203.32,-26.76 223.62,-23.17"/>
<polygon fill="#63b8ff" stroke="#63b8ff" points="223.96,-26.66 233.2,-21.48 222.74,-19.77 223.96,-26.66"/>
</a>
</g>
</g>
<!-- Node2&#45;&gt;Node3 -->
<g id="edge2_Node000002_Node000003" class="edge">
<title>Node2&#45;&gt;Node3</title>
<g id="a_edge2_Node000002_Node000003"><a xlink:title=" ">
<path fill="none" stroke="#63b8ff" d="M353.39,-80.78C374.97,-78.6 399.84,-76.08 422.17,-73.83"/>
<polygon fill="#63b8ff" stroke="#63b8ff" points="422.48,-77.31 432.08,-72.82 421.78,-70.35 422.48,-77.31"/>
</a>
</g>
</g>
<!-- Node4 -->
<g id="Node000004" class="node">
<title>Node4</title>
<g id="a_Node000004"><a xlink:href="namespacemessages.html#a82dddaab795b78b3d39e1ff1aab2f665" target="_top" xlink:title="Returns the memory usage in kilobytes.">
<polygon fill="white" stroke="#666666" points="730,-106.75 576,-106.75 576,-86 730,-86 730,-106.75"/>
<text xml:space="preserve" text-anchor="middle" x="653" y="-91.35" font-family="Ubuntu Mono" font-size="12.00">messages::get_mem_usage</text>
</a>
</g>
</g>
<!-- Node3&#45;&gt;Node4 -->
<g id="edge3_Node000003_Node000004" class="edge">
<title>Node3&#45;&gt;Node4</title>
<g id="a_edge3_Node000003_Node000004"><a xlink:title=" ">
<path fill="none" stroke="#63b8ff" d="M540.34,-76.63C552.86,-78.85 566.45,-81.25 579.7,-83.59"/>
<polygon fill="#63b8ff" stroke="#63b8ff" points="578.77,-86.98 589.23,-85.28 579.99,-80.09 578.77,-86.98"/>
</a>
</g>
</g>
<!-- Node5 -->
<g id="Node000005" class="node">
<title>Node5</title>
<g id="a_Node000005"><a xlink:href="namespacestr__utilities.html#a0b97e51770725a3e98ed393d26681414" target="_top" xlink:title="Convert an integer to string.">
<polygon fill="white" stroke="#666666" points="721,-49.75 585,-49.75 585,-29 721,-29 721,-49.75"/>
<text xml:space="preserve" text-anchor="middle" x="653" y="-34.35" font-family="Ubuntu Mono" font-size="12.00">str_utilities::i2str</text>
</a>
</g>
</g>
<!-- Node3&#45;&gt;Node5 -->
<g id="edge4_Node000003_Node000005" class="edge">
<title>Node3&#45;&gt;Node5</title>
<g id="a_edge4_Node000003_Node000005"><a xlink:title=" ">
<path fill="none" stroke="#63b8ff" d="M540.34,-58.44C552.04,-56.44 564.67,-54.29 577.08,-52.17"/>
<polygon fill="#63b8ff" stroke="#63b8ff" points="577.62,-55.62 586.89,-50.49 576.45,-48.72 577.62,-55.62"/>
</a>
</g>
</g>
<!-- Node5&#45;&gt;Node5 -->
<g id="edge5_Node000005_Node000005" class="edge">
<title>Node5&#45;&gt;Node5</title>
<g id="a_edge5_Node000005_Node000005"><a xlink:title=" ">
<path fill="none" stroke="#63b8ff" d="M626.25,-50.15C615.55,-58.81 624.47,-67.75 653,-67.75 668.6,-67.75 678.34,-65.08 682.21,-61.24"/>
<polygon fill="#63b8ff" stroke="#63b8ff" points="685.66,-60.63 680.08,-51.62 678.83,-62.15 685.66,-60.63"/>
</a>
</g>
</g>
</g>
</svg>
