<?xml version="1.0" encoding="UTF-8" standalone="no"?>
<!DOCTYPE svg PUBLIC "-//W3C//DTD SVG 1.1//EN"
 "http://www.w3.org/Graphics/SVG/1.1/DTD/svg11.dtd">
<!-- Generated by graphviz version 2.43.0 (0)
 -->
<!-- Title: hdf5_ops::reset_hdf5_item::reset_hdf5_item_ind Pages: 1 -->
<svg width="554pt" height="110pt"
 viewBox="0.00 0.00 554.00 110.00" xmlns="http://www.w3.org/2000/svg" xmlns:xlink="http://www.w3.org/1999/xlink">
<g id="graph0" class="graph" transform="scale(1 1) rotate(0) translate(4 106)">
<title>hdf5_ops::reset_hdf5_item::reset_hdf5_item_ind</title>
<polygon fill="white" stroke="transparent" points="-4,4 -4,-106 550,-106 550,4 -4,4"/>
<!-- Node1 -->
<g id="node1" class="node">
<title>Node1</title>
<g id="a_node1"><a xlink:title="individual version">
<polygon fill="#bfbfbf" stroke="black" points="0,-34 0,-68 177,-68 177,-34 0,-34"/>
<text text-anchor="start" x="8" y="-54.4" font-family="Ubuntu Mono" font-size="12.00">hdf5_ops::reset_hdf5</text>
<text text-anchor="middle" x="88.5" y="-41.4" font-family="Ubuntu Mono" font-size="12.00">_item::reset_hdf5_item_ind</text>
</a>
</g>
</g>
<!-- Node2 -->
<g id="node2" class="node">
<title>Node2</title>
<g id="a_node2"><a xlink:href="namespacemessages.html#aa4a8d01563e92558e8a0875b075ec54c" target="_top" xlink:title="Write output to file identified by output_i.">
<polygon fill="white" stroke="black" points="213,-40.5 213,-61.5 327,-61.5 327,-40.5 213,-40.5"/>
<text text-anchor="middle" x="270" y="-47.9" font-family="Ubuntu Mono" font-size="12.00">messages::writo</text>
</a>
</g>
</g>
<!-- Node1&#45;&gt;Node2 -->
<g id="edge1" class="edge">
<title>Node1&#45;&gt;Node2</title>
<path fill="none" stroke="midnightblue" d="M177.15,-51C185.75,-51 194.38,-51 202.72,-51"/>
<polygon fill="midnightblue" stroke="midnightblue" points="202.73,-54.5 212.73,-51 202.73,-47.5 202.73,-54.5"/>
</g>
<!-- Node3 -->
<g id="node3" class="node">
<title>Node3</title>
<g id="a_node3"><a xlink:href="namespacemessages.html#a61fd0b51b5e37d58fdc993c01792a3fd" target="_top" xlink:title="Returns the time.">
<polygon fill="white" stroke="black" points="384.5,-80.5 384.5,-101.5 524.5,-101.5 524.5,-80.5 384.5,-80.5"/>
<text text-anchor="middle" x="454.5" y="-87.9" font-family="Ubuntu Mono" font-size="12.00">messages::get_clock</text>
</a>
</g>
</g>
<!-- Node2&#45;&gt;Node3 -->
<g id="edge2" class="edge">
<title>Node2&#45;&gt;Node3</title>
<path fill="none" stroke="midnightblue" d="M318.95,-61.51C342.43,-66.66 370.9,-72.9 395.59,-78.31"/>
<polygon fill="midnightblue" stroke="midnightblue" points="395.04,-81.77 405.55,-80.49 396.54,-74.93 395.04,-81.77"/>
</g>
<!-- Node4 -->
<g id="node4" class="node">
<title>Node4</title>
<g id="a_node4"><a xlink:href="namespacemessages.html#a82dddaab795b78b3d39e1ff1aab2f665" target="_top" xlink:title="Returns the memory usage in kilobytes.">
<polygon fill="white" stroke="black" points="363,-40.5 363,-61.5 546,-61.5 546,-40.5 363,-40.5"/>
<text text-anchor="middle" x="454.5" y="-47.9" font-family="Ubuntu Mono" font-size="12.00">messages::get_mem_usage</text>
</a>
</g>
</g>
<!-- Node2&#45;&gt;Node4 -->
<g id="edge3" class="edge">
<title>Node2&#45;&gt;Node4</title>
<path fill="none" stroke="midnightblue" d="M327.25,-51C335.37,-51 343.94,-51 352.63,-51"/>
<polygon fill="midnightblue" stroke="midnightblue" points="352.86,-54.5 362.86,-51 352.86,-47.5 352.86,-54.5"/>
</g>
<!-- Node5 -->
<g id="node5" class="node">
<title>Node5</title>
<g id="a_node5"><a xlink:href="namespacestr__utilities.html#a0b97e51770725a3e98ed393d26681414" target="_top" xlink:title="Convert an integer to string.">
<polygon fill="white" stroke="black" points="397.5,-0.5 397.5,-21.5 511.5,-21.5 511.5,-0.5 397.5,-0.5"/>
<text text-anchor="middle" x="454.5" y="-7.9" font-family="Ubuntu Mono" font-size="12.00">str_utilities::i2str</text>
</a>
</g>
</g>
<!-- Node2&#45;&gt;Node5 -->
<g id="edge4" class="edge">
<title>Node2&#45;&gt;Node5</title>
<path fill="none" stroke="midnightblue" d="M318.95,-40.49C342.43,-35.34 370.9,-29.1 395.59,-23.69"/>
<polygon fill="midnightblue" stroke="midnightblue" points="396.54,-27.07 405.55,-21.51 395.04,-20.23 396.54,-27.07"/>
</g>
</g>
</svg>
