<?xml version="1.0" encoding="UTF-8" standalone="no"?>
<!DOCTYPE svg PUBLIC "-//W3C//DTD SVG 1.1//EN"
 "http://www.w3.org/Graphics/SVG/1.1/DTD/svg11.dtd">
<!-- Generated by graphviz version 2.43.0 (0)
 -->
<!-- Title: num_ops::calc_zero_hh::calc_zero_hh_3d Pages: 1 -->
<svg width="527pt" height="146pt"
 viewBox="0.00 0.00 527.00 145.77" xmlns="http://www.w3.org/2000/svg" xmlns:xlink="http://www.w3.org/1999/xlink">
<g id="graph0" class="graph" transform="scale(1 1) rotate(0) translate(4 141.77)">
<title>num_ops::calc_zero_hh::calc_zero_hh_3d</title>
<polygon fill="white" stroke="transparent" points="-4,4 -4,-141.77 523,-141.77 523,4 -4,4"/>
<!-- Node1 -->
<g id="node1" class="node">
<title>Node1</title>
<g id="a_node1"><a xlink:title="3&#45;D version">
<polygon fill="#bfbfbf" stroke="black" points="0,-74 0,-108 143,-108 143,-74 0,-74"/>
<text text-anchor="start" x="8" y="-94.4" font-family="Ubuntu Mono" font-size="12.00">num_ops::calc_zero</text>
<text text-anchor="middle" x="71.5" y="-81.4" font-family="Ubuntu Mono" font-size="12.00">_hh::calc_zero_hh_3d</text>
</a>
</g>
</g>
<!-- Node2 -->
<g id="node2" class="node">
<title>Node2</title>
<g id="a_node2"><a xlink:href="namespacestr__utilities.html#a0b97e51770725a3e98ed393d26681414" target="_top" xlink:title="Convert an integer to string.">
<polygon fill="white" stroke="black" points="370.5,-109.5 370.5,-130.5 484.5,-130.5 484.5,-109.5 370.5,-109.5"/>
<text text-anchor="middle" x="427.5" y="-116.9" font-family="Ubuntu Mono" font-size="12.00">str_utilities::i2str</text>
</a>
</g>
</g>
<!-- Node1&#45;&gt;Node2 -->
<g id="edge1" class="edge">
<title>Node1&#45;&gt;Node2</title>
<path fill="none" stroke="midnightblue" d="M108.06,-108.03C128.33,-116.79 154.51,-126.55 179,-131 239.77,-142.04 310.25,-137.23 360.41,-130.88"/>
<polygon fill="midnightblue" stroke="midnightblue" points="361.03,-134.33 370.48,-129.55 360.11,-127.39 361.03,-134.33"/>
</g>
<!-- Node3 -->
<g id="node3" class="node">
<title>Node3</title>
<g id="a_node3"><a xlink:href="namespacestr__utilities.html#a92ac6c0af1979df094de1caddd28ade0" target="_top" xlink:title="Convert a real (double) to string.">
<polygon fill="white" stroke="black" points="181.5,-100.5 181.5,-121.5 297.5,-121.5 297.5,-100.5 181.5,-100.5"/>
<text text-anchor="middle" x="239.5" y="-107.9" font-family="Ubuntu Mono" font-size="12.00">str_utilities::r2str</text>
</a>
</g>
</g>
<!-- Node1&#45;&gt;Node3 -->
<g id="edge2" class="edge">
<title>Node1&#45;&gt;Node3</title>
<path fill="none" stroke="midnightblue" d="M143.38,-99.54C152.6,-100.65 162.02,-101.79 171.18,-102.89"/>
<polygon fill="midnightblue" stroke="midnightblue" points="171.04,-106.4 181.39,-104.12 171.88,-99.45 171.04,-106.4"/>
</g>
<!-- Node4 -->
<g id="node4" class="node">
<title>Node4</title>
<g id="a_node4"><a xlink:href="namespacestr__utilities.html#ac778d706b2e021672618939ab58fdd32" target="_top" xlink:title="Convert a real (double) to string.">
<polygon fill="white" stroke="black" points="179,-60.5 179,-81.5 300,-81.5 300,-60.5 179,-60.5"/>
<text text-anchor="middle" x="239.5" y="-67.9" font-family="Ubuntu Mono" font-size="12.00">str_utilities::r2strt</text>
</a>
</g>
</g>
<!-- Node1&#45;&gt;Node4 -->
<g id="edge3" class="edge">
<title>Node1&#45;&gt;Node4</title>
<path fill="none" stroke="midnightblue" d="M143.38,-82.46C151.78,-81.45 160.34,-80.42 168.72,-79.41"/>
<polygon fill="midnightblue" stroke="midnightblue" points="169.32,-82.86 178.82,-78.19 168.48,-75.91 169.32,-82.86"/>
</g>
<!-- Node5 -->
<g id="node5" class="node">
<title>Node5</title>
<g id="a_node5"><a xlink:href="namespacemessages.html#aa4a8d01563e92558e8a0875b075ec54c" target="_top" xlink:title="Write output to file identified by output_i.">
<polygon fill="white" stroke="black" points="182.5,-20.5 182.5,-41.5 296.5,-41.5 296.5,-20.5 182.5,-20.5"/>
<text text-anchor="middle" x="239.5" y="-27.9" font-family="Ubuntu Mono" font-size="12.00">messages::writo</text>
</a>
</g>
</g>
<!-- Node1&#45;&gt;Node5 -->
<g id="edge4" class="edge">
<title>Node1&#45;&gt;Node5</title>
<path fill="none" stroke="midnightblue" d="M116.94,-73.91C135.99,-66.69 158.53,-58.28 179,-51 184.66,-48.99 190.63,-46.92 196.53,-44.9"/>
<polygon fill="midnightblue" stroke="midnightblue" points="197.97,-48.11 206.31,-41.59 195.72,-41.48 197.97,-48.11"/>
</g>
<!-- Node5&#45;&gt;Node2 -->
<g id="edge7" class="edge">
<title>Node5&#45;&gt;Node2</title>
<path fill="none" stroke="midnightblue" d="M275.52,-41.58C283.66,-44.37 292.22,-47.57 300,-51 316.74,-58.39 319.95,-62.2 336,-71 356.49,-82.24 379.66,-94.78 397.43,-104.36"/>
<polygon fill="midnightblue" stroke="midnightblue" points="396.23,-107.69 406.69,-109.36 399.55,-101.53 396.23,-107.69"/>
</g>
<!-- Node6 -->
<g id="node6" class="node">
<title>Node6</title>
<g id="a_node6"><a xlink:href="namespacemessages.html#a61fd0b51b5e37d58fdc993c01792a3fd" target="_top" xlink:title="Returns the time.">
<polygon fill="white" stroke="black" points="357.5,-40.5 357.5,-61.5 497.5,-61.5 497.5,-40.5 357.5,-40.5"/>
<text text-anchor="middle" x="427.5" y="-47.9" font-family="Ubuntu Mono" font-size="12.00">messages::get_clock</text>
</a>
</g>
</g>
<!-- Node5&#45;&gt;Node6 -->
<g id="edge5" class="edge">
<title>Node5&#45;&gt;Node6</title>
<path fill="none" stroke="midnightblue" d="M296.56,-37.03C312.56,-38.75 330.31,-40.66 347.42,-42.5"/>
<polygon fill="midnightblue" stroke="midnightblue" points="347.08,-45.98 357.4,-43.57 347.83,-39.02 347.08,-45.98"/>
</g>
<!-- Node7 -->
<g id="node7" class="node">
<title>Node7</title>
<g id="a_node7"><a xlink:href="namespacemessages.html#a82dddaab795b78b3d39e1ff1aab2f665" target="_top" xlink:title="Returns the memory usage in kilobytes.">
<polygon fill="white" stroke="black" points="336,-0.5 336,-21.5 519,-21.5 519,-0.5 336,-0.5"/>
<text text-anchor="middle" x="427.5" y="-7.9" font-family="Ubuntu Mono" font-size="12.00">messages::get_mem_usage</text>
</a>
</g>
</g>
<!-- Node5&#45;&gt;Node7 -->
<g id="edge6" class="edge">
<title>Node5&#45;&gt;Node7</title>
<path fill="none" stroke="midnightblue" d="M296.56,-24.97C305.86,-23.97 315.76,-22.91 325.78,-21.83"/>
<polygon fill="midnightblue" stroke="midnightblue" points="326.25,-25.3 335.81,-20.75 325.5,-18.34 326.25,-25.3"/>
</g>
</g>
</svg>
