<?xml version="1.0" encoding="UTF-8" standalone="no"?>
<!DOCTYPE svg PUBLIC "-//W3C//DTD SVG 1.1//EN"
 "http://www.w3.org/Graphics/SVG/1.1/DTD/svg11.dtd">
<!-- Generated by graphviz version 2.43.0 (0)
 -->
<!-- Title: eq_ops::calc_jac_v::calc_jac_v_ind Pages: 1 -->
<svg width="304pt" height="43pt"
 viewBox="0.00 0.00 304.00 43.00" xmlns="http://www.w3.org/2000/svg" xmlns:xlink="http://www.w3.org/1999/xlink">
<g id="graph0" class="graph" transform="scale(1 1) rotate(0) translate(4 39)">
<title>eq_ops::calc_jac_v::calc_jac_v_ind</title>
<polygon fill="white" stroke="transparent" points="-4,4 -4,-39 300,-39 300,4 -4,4"/>
<!-- Node1 -->
<g id="node1" class="node">
<title>Node1</title>
<g id="a_node1"><a xlink:title="individual version">
<polygon fill="#bfbfbf" stroke="black" points="0,-0.5 0,-34.5 126,-34.5 126,-0.5 0,-0.5"/>
<text text-anchor="start" x="8" y="-20.9" font-family="Ubuntu Mono" font-size="12.00">eq_ops::calc_jac_v</text>
<text text-anchor="middle" x="63" y="-7.9" font-family="Ubuntu Mono" font-size="12.00">::calc_jac_v_ind</text>
</a>
</g>
</g>
<!-- Node2 -->
<g id="node2" class="node">
<title>Node2</title>
<g id="a_node2"><a xlink:href="namespacenum__utilities.html#a00f4cfe18a734eaa5d66f529e52f7c31" target="_top" xlink:title="checks whether the derivatives requested for a certain subroutine are valid">
<polygon fill="white" stroke="black" points="162,-0.5 162,-34.5 296,-34.5 296,-0.5 162,-0.5"/>
<text text-anchor="start" x="170" y="-20.9" font-family="Ubuntu Mono" font-size="12.00">num_utilities::check</text>
<text text-anchor="middle" x="229" y="-7.9" font-family="Ubuntu Mono" font-size="12.00">_deriv</text>
</a>
</g>
</g>
<!-- Node1&#45;&gt;Node2 -->
<g id="edge1" class="edge">
<title>Node1&#45;&gt;Node2</title>
<path fill="none" stroke="midnightblue" d="M126,-17.5C134.41,-17.5 143.12,-17.5 151.74,-17.5"/>
<polygon fill="midnightblue" stroke="midnightblue" points="151.81,-21 161.81,-17.5 151.81,-14 151.81,-21"/>
</g>
</g>
</svg>
