<?xml version="1.0" encoding="UTF-8" standalone="no"?>
<!DOCTYPE svg PUBLIC "-//W3C//DTD SVG 1.1//EN"
 "http://www.w3.org/Graphics/SVG/1.1/DTD/svg11.dtd">
<!-- Generated by graphviz version 2.38.0 (20140413.2041)
 -->
<!-- Title: x_ops::redistribute_output_x::redistribute_output_x_2 Pages: 1 -->
<svg width="736pt" height="109pt"
 viewBox="0.00 0.00 736.00 109.00" xmlns="http://www.w3.org/2000/svg" xmlns:xlink="http://www.w3.org/1999/xlink">
<g id="graph0" class="graph" transform="scale(1 1) rotate(0) translate(4 105)">
<title>x_ops::redistribute_output_x::redistribute_output_x_2</title>
<polygon fill="white" stroke="none" points="-4,4 -4,-105 732,-105 732,4 -4,4"/>
<!-- Node7 -->
<g id="node1" class="node"><title>Node7</title>
<polygon fill="#bfbfbf" stroke="black" points="0,-27.5 0,-74.5 155,-74.5 155,-27.5 0,-27.5"/>
<text text-anchor="start" x="8" y="-60.9" font-family="Ubuntu Mono" font-size="12.00">x_ops::redistribute</text>
<text text-anchor="start" x="8" y="-47.9" font-family="Ubuntu Mono" font-size="12.00">_output_x::redistribute</text>
<text text-anchor="middle" x="77.5" y="-34.9" font-family="Ubuntu Mono" font-size="12.00">_output_x_2</text>
</g>
<!-- Node8 -->
<g id="node2" class="node"><title>Node8</title>
<g id="a_node2"><a xlink:href="namespacempi__utilities.html#a128702990bd5fddc582e8fabcffc82b2" target="_top" xlink:title="Redistribute variables according to new limits. ">
<polygon fill="white" stroke="black" points="191,-79.5 191,-100.5 394,-100.5 394,-79.5 191,-79.5"/>
<text text-anchor="middle" x="292.5" y="-86.9" font-family="Ubuntu Mono" font-size="12.00">mpi_utilities::redistribute_var</text>
</a>
</g>
</g>
<!-- Node7&#45;&gt;Node8 -->
<g id="edge1" class="edge"><title>Node7&#45;&gt;Node8</title>
<path fill="none" stroke="midnightblue" d="M155.097,-65.0248C177.644,-69.1531 202.137,-73.6378 224.065,-77.6528"/>
<polygon fill="midnightblue" stroke="midnightblue" points="223.477,-81.1031 233.944,-79.4615 224.737,-74.2176 223.477,-81.1031"/>
</g>
<!-- Node9 -->
<g id="node3" class="node"><title>Node9</title>
<g id="a_node3"><a xlink:href="namespacemessages.html#aa4a8d01563e92558e8a0875b075ec54c" target="_top" xlink:title="Write output to file identified by output_i. ">
<polygon fill="white" stroke="black" points="430,-20.5 430,-41.5 537,-41.5 537,-20.5 430,-20.5"/>
<text text-anchor="middle" x="483.5" y="-27.9" font-family="Ubuntu Mono" font-size="12.00">messages::writo</text>
</a>
</g>
</g>
<!-- Node7&#45;&gt;Node9 -->
<g id="edge2" class="edge"><title>Node7&#45;&gt;Node9</title>
<path fill="none" stroke="midnightblue" d="M155.44,-47.1911C232.14,-43.394 348.499,-37.6337 419.776,-34.1051"/>
<polygon fill="midnightblue" stroke="midnightblue" points="420.141,-37.5915 429.955,-33.6012 419.794,-30.6 420.141,-37.5915"/>
</g>
<!-- Node12 -->
<g id="node6" class="node"><title>Node12</title>
<g id="a_node6"><a xlink:href="namespacemessages.html#a6e6bfb084063e4cc91ee86e542043302" target="_top" xlink:title="Increases/decreases lvl of output. ">
<polygon fill="white" stroke="black" points="236,-1.5 236,-22.5 349,-22.5 349,-1.5 236,-1.5"/>
<text text-anchor="middle" x="292.5" y="-8.9" font-family="Ubuntu Mono" font-size="12.00">messages::lvl_ud</text>
</a>
</g>
</g>
<!-- Node7&#45;&gt;Node12 -->
<g id="edge5" class="edge"><title>Node7&#45;&gt;Node12</title>
<path fill="none" stroke="midnightblue" d="M155.097,-36.9752C178.265,-32.7332 203.487,-28.1151 225.87,-24.0168"/>
<polygon fill="midnightblue" stroke="midnightblue" points="226.73,-27.4175 235.937,-22.1736 225.47,-20.5319 226.73,-27.4175"/>
</g>
<!-- Node10 -->
<g id="node4" class="node"><title>Node10</title>
<g id="a_node4"><a xlink:href="namespacemessages.html#a82dddaab795b78b3d39e1ff1aab2f665" target="_top" xlink:title="Returns the memory usage in kilobytes. ">
<polygon fill="white" stroke="black" points="573,-40.5 573,-61.5 728,-61.5 728,-40.5 573,-40.5"/>
<text text-anchor="middle" x="650.5" y="-47.9" font-family="Ubuntu Mono" font-size="12.00">messages::get_mem_usage</text>
</a>
</g>
</g>
<!-- Node9&#45;&gt;Node10 -->
<g id="edge3" class="edge"><title>Node9&#45;&gt;Node10</title>
<path fill="none" stroke="midnightblue" d="M537.161,-37.3831C545.452,-38.3881 554.208,-39.4495 563.025,-40.5182"/>
<polygon fill="midnightblue" stroke="midnightblue" points="562.635,-43.9965 572.984,-41.7253 563.478,-37.0474 562.635,-43.9965"/>
</g>
<!-- Node11 -->
<g id="node5" class="node"><title>Node11</title>
<g id="a_node5"><a xlink:href="namespacemessages.html#a61fd0b51b5e37d58fdc993c01792a3fd" target="_top" xlink:title="Returns the time. ">
<polygon fill="white" stroke="black" points="585,-0.5 585,-21.5 716,-21.5 716,-0.5 585,-0.5"/>
<text text-anchor="middle" x="650.5" y="-7.9" font-family="Ubuntu Mono" font-size="12.00">messages::get_clock</text>
</a>
</g>
</g>
<!-- Node9&#45;&gt;Node11 -->
<g id="edge4" class="edge"><title>Node9&#45;&gt;Node11</title>
<path fill="none" stroke="midnightblue" d="M537.161,-24.6169C549.142,-23.1646 562.094,-21.5947 574.797,-20.0549"/>
<polygon fill="midnightblue" stroke="midnightblue" points="575.402,-23.5073 584.908,-18.8293 574.56,-16.5581 575.402,-23.5073"/>
</g>
<!-- Node12&#45;&gt;Node9 -->
<g id="edge6" class="edge"><title>Node12&#45;&gt;Node9</title>
<path fill="none" stroke="midnightblue" d="M349.184,-17.5979C371.28,-19.8191 396.802,-22.3849 419.564,-24.6731"/>
<polygon fill="midnightblue" stroke="midnightblue" points="419.506,-28.1848 429.806,-25.7027 420.206,-21.2199 419.506,-28.1848"/>
</g>
</g>
</svg>
