<?xml version="1.0" encoding="UTF-8" standalone="no"?>
<!DOCTYPE svg PUBLIC "-//W3C//DTD SVG 1.1//EN"
 "http://www.w3.org/Graphics/SVG/1.1/DTD/svg11.dtd">
<!-- Generated by graphviz version 2.38.0 (20140413.2041)
 -->
<!-- Title: num_utilities::spline::spline_real Pages: 1 -->
<svg width="515pt" height="150pt"
 viewBox="0.00 0.00 515.00 150.00" xmlns="http://www.w3.org/2000/svg" xmlns:xlink="http://www.w3.org/1999/xlink">
<g id="graph0" class="graph" transform="scale(1 1) rotate(0) translate(4 146)">
<title>num_utilities::spline::spline_real</title>
<polygon fill="white" stroke="none" points="-4,4 -4,-146 511,-146 511,4 -4,4"/>
<!-- Node2 -->
<g id="node1" class="node"><title>Node2</title>
<polygon fill="#bfbfbf" stroke="black" points="0,-54 0,-88 143,-88 143,-54 0,-54"/>
<text text-anchor="start" x="8" y="-74.4" font-family="Ubuntu Mono" font-size="12.00">num_utilities::spline</text>
<text text-anchor="middle" x="71.5" y="-61.4" font-family="Ubuntu Mono" font-size="12.00">::spline_real</text>
</g>
<!-- Node3 -->
<g id="node2" class="node"><title>Node3</title>
<g id="a_node2"><a xlink:href="namespacestr__utilities.html#a0b97e51770725a3e98ed393d26681414" target="_top" xlink:title="Convert an integer to string. ">
<polygon fill="white" stroke="black" points="179,-120.5 179,-141.5 316,-141.5 316,-120.5 179,-120.5"/>
<text text-anchor="middle" x="247.5" y="-127.9" font-family="Ubuntu Mono" font-size="12.00">str_utilities::i2str</text>
</a>
</g>
</g>
<!-- Node2&#45;&gt;Node3 -->
<g id="edge1" class="edge"><title>Node2&#45;&gt;Node3</title>
<path fill="none" stroke="midnightblue" d="M115.775,-88.0523C135.022,-95.4288 158.028,-103.965 179,-111 185.54,-113.194 192.477,-115.392 199.318,-117.487"/>
<polygon fill="midnightblue" stroke="midnightblue" points="198.63,-120.935 209.215,-120.469 200.65,-114.233 198.63,-120.935"/>
</g>
<!-- Node4 -->
<g id="node3" class="node"><title>Node4</title>
<g id="a_node3"><a xlink:href="namespacemessages.html#aa4a8d01563e92558e8a0875b075ec54c" target="_top" xlink:title="Write output to file identified by output_i. ">
<polygon fill="white" stroke="black" points="194,-80.5 194,-101.5 301,-101.5 301,-80.5 194,-80.5"/>
<text text-anchor="middle" x="247.5" y="-87.9" font-family="Ubuntu Mono" font-size="12.00">messages::writo</text>
</a>
</g>
</g>
<!-- Node2&#45;&gt;Node4 -->
<g id="edge2" class="edge"><title>Node2&#45;&gt;Node4</title>
<path fill="none" stroke="midnightblue" d="M143.022,-79.1059C156.534,-80.6591 170.597,-82.2755 183.841,-83.7978"/>
<polygon fill="midnightblue" stroke="midnightblue" points="183.453,-87.2761 193.787,-84.941 184.252,-80.3219 183.453,-87.2761"/>
</g>
<!-- Node7 -->
<g id="node6" class="node"><title>Node7</title>
<g id="a_node6"><a xlink:href="namespacestr__utilities.html#a92ac6c0af1979df094de1caddd28ade0" target="_top" xlink:title="Convert a real (double) to string. ">
<polygon fill="white" stroke="black" points="179,-40.5 179,-61.5 316,-61.5 316,-40.5 179,-40.5"/>
<text text-anchor="middle" x="247.5" y="-47.9" font-family="Ubuntu Mono" font-size="12.00">str_utilities::r2str</text>
</a>
</g>
</g>
<!-- Node2&#45;&gt;Node7 -->
<g id="edge5" class="edge"><title>Node2&#45;&gt;Node7</title>
<path fill="none" stroke="midnightblue" d="M143.022,-62.8941C151.553,-61.9135 160.304,-60.9076 168.929,-59.9162"/>
<polygon fill="midnightblue" stroke="midnightblue" points="169.442,-63.3804 178.977,-58.7613 168.643,-56.4261 169.442,-63.3804"/>
</g>
<!-- Node8 -->
<g id="node7" class="node"><title>Node8</title>
<g id="a_node7"><a xlink:href="num__utilities_8f90.html#a41f0ec23e08348e7498587997f483a00" target="_top" xlink:title="/private set up limit values ">
<polygon fill="white" stroke="black" points="197,-0.5 197,-21.5 298,-21.5 298,-0.5 197,-0.5"/>
<text text-anchor="middle" x="247.5" y="-7.9" font-family="Ubuntu Mono" font-size="12.00">setup_lim_vals</text>
</a>
</g>
</g>
<!-- Node2&#45;&gt;Node8 -->
<g id="edge6" class="edge"><title>Node2&#45;&gt;Node8</title>
<path fill="none" stroke="midnightblue" d="M115.775,-53.9477C135.022,-46.5712 158.028,-38.0355 179,-31 185.54,-28.8061 192.477,-26.6075 199.318,-24.5129"/>
<polygon fill="midnightblue" stroke="midnightblue" points="200.65,-27.7671 209.215,-21.5311 198.63,-21.0647 200.65,-27.7671"/>
</g>
<!-- Node5 -->
<g id="node4" class="node"><title>Node5</title>
<g id="a_node4"><a xlink:href="namespacemessages.html#a82dddaab795b78b3d39e1ff1aab2f665" target="_top" xlink:title="Returns the memory usage in kilobytes. ">
<polygon fill="white" stroke="black" points="352,-100.5 352,-121.5 507,-121.5 507,-100.5 352,-100.5"/>
<text text-anchor="middle" x="429.5" y="-107.9" font-family="Ubuntu Mono" font-size="12.00">messages::get_mem_usage</text>
</a>
</g>
</g>
<!-- Node4&#45;&gt;Node5 -->
<g id="edge3" class="edge"><title>Node4&#45;&gt;Node5</title>
<path fill="none" stroke="midnightblue" d="M301.047,-96.8386C313.823,-98.2581 327.824,-99.8138 341.723,-101.358"/>
<polygon fill="midnightblue" stroke="midnightblue" points="341.481,-104.853 351.806,-102.478 342.254,-97.8954 341.481,-104.853"/>
</g>
<!-- Node6 -->
<g id="node5" class="node"><title>Node6</title>
<g id="a_node5"><a xlink:href="namespacemessages.html#a61fd0b51b5e37d58fdc993c01792a3fd" target="_top" xlink:title="Returns the time. ">
<polygon fill="white" stroke="black" points="364,-60.5 364,-81.5 495,-81.5 495,-60.5 364,-60.5"/>
<text text-anchor="middle" x="429.5" y="-67.9" font-family="Ubuntu Mono" font-size="12.00">messages::get_clock</text>
</a>
</g>
</g>
<!-- Node4&#45;&gt;Node6 -->
<g id="edge4" class="edge"><title>Node4&#45;&gt;Node6</title>
<path fill="none" stroke="midnightblue" d="M301.047,-85.1614C317.442,-83.3398 335.855,-81.2939 353.479,-79.3357"/>
<polygon fill="midnightblue" stroke="midnightblue" points="354.191,-82.7782 363.743,-78.1952 353.418,-75.821 354.191,-82.7782"/>
</g>
</g>
</svg>
