<?xml version="1.0" encoding="UTF-8" standalone="no"?>
<!DOCTYPE svg PUBLIC "-//W3C//DTD SVG 1.1//EN"
 "http://www.w3.org/Graphics/SVG/1.1/DTD/svg11.dtd">
<!-- Generated by graphviz version 2.43.0 (0)
 -->
<!-- Title: eq_utilities::calc_f_derivs::calc_f_derivs_1 Pages: 1 -->
<svg width="346pt" height="110pt"
 viewBox="0.00 0.00 346.00 110.00" xmlns="http://www.w3.org/2000/svg" xmlns:xlink="http://www.w3.org/1999/xlink">
<g id="graph0" class="graph" transform="scale(1 1) rotate(0) translate(4 106)">
<title>eq_utilities::calc_f_derivs::calc_f_derivs_1</title>
<polygon fill="white" stroke="transparent" points="-4,4 -4,-106 342,-106 342,4 -4,4"/>
<!-- Node1 -->
<g id="node1" class="node">
<title>Node1</title>
<g id="a_node1"><a xlink:title="flux version">
<polygon fill="#bfbfbf" stroke="black" points="0,-34 0,-68 167,-68 167,-34 0,-34"/>
<text text-anchor="start" x="8" y="-54.4" font-family="Ubuntu Mono" font-size="12.00">eq_utilities::calc</text>
<text text-anchor="middle" x="83.5" y="-41.4" font-family="Ubuntu Mono" font-size="12.00">_f_derivs::calc_f_derivs_1</text>
</a>
</g>
</g>
<!-- Node2 -->
<g id="node2" class="node">
<title>Node2</title>
<g id="a_node2"><a xlink:href="namespacenum__utilities.html#a5ee3fbd1fe67d0deefc7194631389f2a" target="_top" xlink:title="Convert 2&#45;D coordinates (i,j) to the storage convention used in matrices.">
<polygon fill="white" stroke="black" points="217.5,-80.5 217.5,-101.5 323.5,-101.5 323.5,-80.5 217.5,-80.5"/>
<text text-anchor="middle" x="270.5" y="-87.9" font-family="Ubuntu Mono" font-size="12.00">num_utilities::c</text>
</a>
</g>
</g>
<!-- Node1&#45;&gt;Node2 -->
<g id="edge1" class="edge">
<title>Node1&#45;&gt;Node2</title>
<path fill="none" stroke="midnightblue" d="M163.22,-68.02C179.13,-71.46 195.58,-75.02 210.66,-78.28"/>
<polygon fill="midnightblue" stroke="midnightblue" points="210.34,-81.79 220.85,-80.48 211.82,-74.95 210.34,-81.79"/>
</g>
<!-- Node3 -->
<g id="node3" class="node">
<title>Node3</title>
<g id="a_node3"><a xlink:href="namespacenum__utilities.html#ac827c18dd05a9b5a06675eac942f3b51" target="_top" xlink:title="Returns derivatives of certain order.">
<polygon fill="white" stroke="black" points="203,-40.5 203,-61.5 338,-61.5 338,-40.5 203,-40.5"/>
<text text-anchor="middle" x="270.5" y="-47.9" font-family="Ubuntu Mono" font-size="12.00">num_utilities::derivs</text>
</a>
</g>
</g>
<!-- Node1&#45;&gt;Node3 -->
<g id="edge2" class="edge">
<title>Node1&#45;&gt;Node3</title>
<path fill="none" stroke="midnightblue" d="M167.26,-51C175.74,-51 184.33,-51 192.75,-51"/>
<polygon fill="midnightblue" stroke="midnightblue" points="192.9,-54.5 202.9,-51 192.9,-47.5 192.9,-54.5"/>
</g>
<!-- Node4 -->
<g id="node4" class="node">
<title>Node4</title>
<g id="a_node4"><a xlink:href="namespacenum__utilities.html#a43ab60f9e202b55221373286a5bbb954" target="_top" xlink:title="Calculate factorial.">
<polygon fill="white" stroke="black" points="211.5,-0.5 211.5,-21.5 329.5,-21.5 329.5,-0.5 211.5,-0.5"/>
<text text-anchor="middle" x="270.5" y="-7.9" font-family="Ubuntu Mono" font-size="12.00">num_utilities::fac</text>
</a>
</g>
</g>
<!-- Node1&#45;&gt;Node4 -->
<g id="edge3" class="edge">
<title>Node1&#45;&gt;Node4</title>
<path fill="none" stroke="midnightblue" d="M163.22,-33.98C179.13,-30.54 195.58,-26.98 210.66,-23.72"/>
<polygon fill="midnightblue" stroke="midnightblue" points="211.82,-27.05 220.85,-21.52 210.34,-20.21 211.82,-27.05"/>
</g>
</g>
</svg>
