<?xml version="1.0" encoding="UTF-8" standalone="no"?>
<!DOCTYPE svg PUBLIC "-//W3C//DTD SVG 1.1//EN"
 "http://www.w3.org/Graphics/SVG/1.1/DTD/svg11.dtd">
<!-- Generated by graphviz version 2.43.0 (0)
 -->
<!-- Title: eq_utilities::calc_f_derivs::calc_f_derivs_2 Pages: 1 -->
<svg width="346pt" height="70pt"
 viewBox="0.00 0.00 346.00 70.00" xmlns="http://www.w3.org/2000/svg" xmlns:xlink="http://www.w3.org/1999/xlink">
<g id="graph0" class="graph" transform="scale(1 1) rotate(0) translate(4 66)">
<title>eq_utilities::calc_f_derivs::calc_f_derivs_2</title>
<polygon fill="white" stroke="transparent" points="-4,4 -4,-66 342,-66 342,4 -4,4"/>
<!-- Node1 -->
<g id="node1" class="node">
<title>Node1</title>
<g id="a_node1"><a xlink:title="metric version">
<polygon fill="#bfbfbf" stroke="black" points="0,-14 0,-48 167,-48 167,-14 0,-14"/>
<text text-anchor="start" x="8" y="-34.4" font-family="Ubuntu Mono" font-size="12.00">eq_utilities::calc</text>
<text text-anchor="middle" x="83.5" y="-21.4" font-family="Ubuntu Mono" font-size="12.00">_f_derivs::calc_f_derivs_2</text>
</a>
</g>
</g>
<!-- Node2 -->
<g id="node2" class="node">
<title>Node2</title>
<g id="a_node2"><a xlink:href="namespacenum__utilities.html#a5ee3fbd1fe67d0deefc7194631389f2a" target="_top" xlink:title="Convert 2&#45;D coordinates (i,j) to the storage convention used in matrices.">
<polygon fill="white" stroke="black" points="217.5,-40.5 217.5,-61.5 323.5,-61.5 323.5,-40.5 217.5,-40.5"/>
<text text-anchor="middle" x="270.5" y="-47.9" font-family="Ubuntu Mono" font-size="12.00">num_utilities::c</text>
</a>
</g>
</g>
<!-- Node1&#45;&gt;Node2 -->
<g id="edge1" class="edge">
<title>Node1&#45;&gt;Node2</title>
<path fill="none" stroke="midnightblue" d="M167.26,-39.95C180.7,-41.4 194.41,-42.88 207.25,-44.27"/>
<polygon fill="midnightblue" stroke="midnightblue" points="207.02,-47.77 217.34,-45.36 207.77,-40.81 207.02,-47.77"/>
</g>
<!-- Node3 -->
<g id="node3" class="node">
<title>Node3</title>
<g id="a_node3"><a xlink:href="namespacenum__utilities.html#ac827c18dd05a9b5a06675eac942f3b51" target="_top" xlink:title="Returns derivatives of certain order.">
<polygon fill="white" stroke="black" points="203,-0.5 203,-21.5 338,-21.5 338,-0.5 203,-0.5"/>
<text text-anchor="middle" x="270.5" y="-7.9" font-family="Ubuntu Mono" font-size="12.00">num_utilities::derivs</text>
</a>
</g>
</g>
<!-- Node1&#45;&gt;Node3 -->
<g id="edge2" class="edge">
<title>Node1&#45;&gt;Node3</title>
<path fill="none" stroke="midnightblue" d="M167.26,-22.05C175.74,-21.14 184.33,-20.21 192.75,-19.3"/>
<polygon fill="midnightblue" stroke="midnightblue" points="193.33,-22.75 202.9,-18.2 192.58,-15.8 193.33,-22.75"/>
</g>
</g>
</svg>
