<?xml version="1.0" encoding="UTF-8" standalone="no"?>
<!DOCTYPE svg PUBLIC "-//W3C//DTD SVG 1.1//EN"
 "http://www.w3.org/Graphics/SVG/1.1/DTD/svg11.dtd">
<!-- Generated by graphviz version 14.1.2 (20260124.0452)
 -->
<!-- Title: eq_ops::calc_t_hf::calc_t_hf_ind Pages: 1 -->
<svg width="310pt" height="98pt"
 viewBox="0.00 0.00 310.00 98.00" xmlns="http://www.w3.org/2000/svg" xmlns:xlink="http://www.w3.org/1999/xlink">
<g id="graph0" class="graph" transform="scale(1 1) rotate(0) translate(4 94.12)">
<title>eq_ops::calc_t_hf::calc_t_hf_ind</title>
<!-- Node1 -->
<g id="Node000001" class="node">
<title>Node1</title>
<g id="a_Node000001"><a xlink:title="individual version">
<polygon fill="#999999" stroke="#666666" points="130,-55.5 0,-55.5 0,-22 130,-22 130,-55.5"/>
<text xml:space="preserve" text-anchor="start" x="8" y="-40.1" font-family="Ubuntu Mono" font-size="12.00">eq_ops::calc_t_hf::</text>
<text xml:space="preserve" text-anchor="middle" x="65" y="-27.35" font-family="Ubuntu Mono" font-size="12.00">calc_t_hf_ind</text>
</a>
</g>
</g>
<!-- Node2 -->
<g id="Node000002" class="node">
<title>Node2</title>
<g id="a_Node000002"><a xlink:href="namespacenum__utilities.html#a5ee3fbd1fe67d0deefc7194631389f2a" target="_top" xlink:title="Convert 2&#45;D coordinates (i,j) to the storage convention used in matrices.">
<polygon fill="white" stroke="#666666" points="290,-72.12 178,-72.12 178,-51.38 290,-51.38 290,-72.12"/>
<text xml:space="preserve" text-anchor="middle" x="234" y="-56.73" font-family="Ubuntu Mono" font-size="12.00">num_utilities::c</text>
</a>
</g>
</g>
<!-- Node1&#45;&gt;Node2 -->
<g id="edge1_Node000001_Node000002" class="edge">
<title>Node1&#45;&gt;Node2</title>
<g id="a_edge1_Node000001_Node000002"><a xlink:title=" ">
<path fill="none" stroke="#63b8ff" d="M130.09,-47.58C141.94,-49.21 154.34,-50.92 166.27,-52.56"/>
<polygon fill="#63b8ff" stroke="#63b8ff" points="165.64,-56.01 176.02,-53.9 166.59,-49.07 165.64,-56.01"/>
</a>
</g>
</g>
<!-- Node3 -->
<g id="Node000003" class="node">
<title>Node3</title>
<g id="a_Node000003"><a xlink:href="namespacenum__utilities.html#a00f4cfe18a734eaa5d66f529e52f7c31" target="_top" xlink:title="checks whether the derivatives requested for a certain subroutine are valid">
<polygon fill="white" stroke="#666666" points="302,-33.5 166,-33.5 166,0 302,0 302,-33.5"/>
<text xml:space="preserve" text-anchor="start" x="174" y="-18.1" font-family="Ubuntu Mono" font-size="12.00">num_utilities::check</text>
<text xml:space="preserve" text-anchor="middle" x="234" y="-5.35" font-family="Ubuntu Mono" font-size="12.00">_deriv</text>
</a>
</g>
</g>
<!-- Node1&#45;&gt;Node3 -->
<g id="edge3_Node000001_Node000003" class="edge">
<title>Node1&#45;&gt;Node3</title>
<g id="a_edge3_Node000001_Node000003"><a xlink:title=" ">
<path fill="none" stroke="#63b8ff" d="M130.09,-30.31C138.12,-29.25 146.4,-28.16 154.62,-27.08"/>
<polygon fill="#63b8ff" stroke="#63b8ff" points="154.8,-30.58 164.26,-25.81 153.89,-23.64 154.8,-30.58"/>
</a>
</g>
</g>
<!-- Node2&#45;&gt;Node2 -->
<g id="edge2_Node000002_Node000002" class="edge">
<title>Node2&#45;&gt;Node2</title>
<g id="a_edge2_Node000002_Node000002"><a xlink:title=" ">
<path fill="none" stroke="#63b8ff" d="M206.77,-72.52C195.88,-81.18 204.95,-90.12 234,-90.12 249.89,-90.12 259.8,-87.45 263.74,-83.61"/>
<polygon fill="#63b8ff" stroke="#63b8ff" points="267.18,-82.98 261.57,-74 260.36,-84.52 267.18,-82.98"/>
</a>
</g>
</g>
</g>
</svg>
