<?xml version="1.0" encoding="UTF-8" standalone="no"?>
<!DOCTYPE svg PUBLIC "-//W3C//DTD SVG 1.1//EN"
 "http://www.w3.org/Graphics/SVG/1.1/DTD/svg11.dtd">
<!-- Generated by graphviz version 2.43.0 (0)
 -->
<!-- Title: num_utilities::conv_mat::conv_mat_3d Pages: 1 -->
<svg width="317pt" height="70pt"
 viewBox="0.00 0.00 317.00 70.00" xmlns="http://www.w3.org/2000/svg" xmlns:xlink="http://www.w3.org/1999/xlink">
<g id="graph0" class="graph" transform="scale(1 1) rotate(0) translate(4 66)">
<title>num_utilities::conv_mat::conv_mat_3d</title>
<polygon fill="white" stroke="transparent" points="-4,4 -4,-66 313,-66 313,4 -4,4"/>
<!-- Node1 -->
<g id="node1" class="node">
<title>Node1</title>
<g id="a_node1"><a xlink:title="version defined on 3&#45;D grid">
<polygon fill="#bfbfbf" stroke="black" points="0,-14 0,-48 134,-48 134,-14 0,-14"/>
<text text-anchor="start" x="8" y="-34.4" font-family="Ubuntu Mono" font-size="12.00">num_utilities::conv</text>
<text text-anchor="middle" x="67" y="-21.4" font-family="Ubuntu Mono" font-size="12.00">_mat::conv_mat_3d</text>
</a>
</g>
</g>
<!-- Node2 -->
<g id="node2" class="node">
<title>Node2</title>
<g id="a_node2"><a xlink:href="namespacenum__utilities.html#a5ee3fbd1fe67d0deefc7194631389f2a" target="_top" xlink:title="Convert 2&#45;D coordinates (i,j) to the storage convention used in matrices.">
<polygon fill="white" stroke="black" points="186.5,-40.5 186.5,-61.5 292.5,-61.5 292.5,-40.5 186.5,-40.5"/>
<text text-anchor="middle" x="239.5" y="-47.9" font-family="Ubuntu Mono" font-size="12.00">num_utilities::c</text>
</a>
</g>
</g>
<!-- Node1&#45;&gt;Node2 -->
<g id="edge1" class="edge">
<title>Node1&#45;&gt;Node2</title>
<path fill="none" stroke="midnightblue" d="M134.41,-38.79C148.12,-40.4 162.51,-42.09 176.07,-43.68"/>
<polygon fill="midnightblue" stroke="midnightblue" points="175.92,-47.18 186.26,-44.87 176.73,-40.23 175.92,-47.18"/>
</g>
<!-- Node3 -->
<g id="node3" class="node">
<title>Node3</title>
<g id="a_node3"><a xlink:href="namespacenum__utilities.html#a4e6994b5c92b3d16c8538b54db0beadd" target="_top" xlink:title="Determines whether a matrix making use of the storage convention in eq_vars.eq_2_type is symmetric or...">
<polygon fill="white" stroke="black" points="170,-0.5 170,-21.5 309,-21.5 309,-0.5 170,-0.5"/>
<text text-anchor="middle" x="239.5" y="-7.9" font-family="Ubuntu Mono" font-size="12.00">num_utilities::is_sym</text>
</a>
</g>
</g>
<!-- Node1&#45;&gt;Node3 -->
<g id="edge2" class="edge">
<title>Node1&#45;&gt;Node3</title>
<path fill="none" stroke="midnightblue" d="M134.41,-23.21C142.65,-22.24 151.14,-21.25 159.55,-20.26"/>
<polygon fill="midnightblue" stroke="midnightblue" points="160.22,-23.71 169.74,-19.07 159.4,-16.75 160.22,-23.71"/>
</g>
</g>
</svg>
