<?xml version="1.0" encoding="UTF-8" standalone="no"?>
<!DOCTYPE svg PUBLIC "-//W3C//DTD SVG 1.1//EN"
 "http://www.w3.org/Graphics/SVG/1.1/DTD/svg11.dtd">
<!-- Generated by graphviz version 2.38.0 (20140413.2041)
 -->
<!-- Title: grid_utilities::coord_f2e::coord_f2e_r Pages: 1 -->
<svg width="694pt" height="130pt"
 viewBox="0.00 0.00 694.00 130.00" xmlns="http://www.w3.org/2000/svg" xmlns:xlink="http://www.w3.org/1999/xlink">
<g id="graph0" class="graph" transform="scale(1 1) rotate(0) translate(4 126)">
<title>grid_utilities::coord_f2e::coord_f2e_r</title>
<polygon fill="white" stroke="none" points="-4,4 -4,-126 690,-126 690,4 -4,4"/>
<!-- Node0 -->
<g id="node1" class="node"><title>Node0</title>
<polygon fill="#bfbfbf" stroke="black" points="0,-34 0,-68 143,-68 143,-34 0,-34"/>
<text text-anchor="start" x="8" y="-54.4" font-family="Ubuntu Mono" font-size="12.00">grid_utilities::coord</text>
<text text-anchor="middle" x="71.5" y="-41.4" font-family="Ubuntu Mono" font-size="12.00">_f2e::coord_f2e_r</text>
</g>
<!-- Node1 -->
<g id="node2" class="node"><title>Node1</title>
<g id="a_node2"><a xlink:href="namespacegrid__utilities.html#ad059876fabae2c8445e5d3971ba28742" target="_top" xlink:title="Set up the factors for the interpolation calculation in a matrix A using a polynomial order ord...">
<polygon fill="white" stroke="black" points="179,-34 179,-68 322,-68 322,-34 179,-34"/>
<text text-anchor="start" x="187" y="-54.4" font-family="Ubuntu Mono" font-size="12.00">grid_utilities::setup</text>
<text text-anchor="middle" x="250.5" y="-41.4" font-family="Ubuntu Mono" font-size="12.00">_interp_data</text>
</a>
</g>
</g>
<!-- Node0&#45;&gt;Node1 -->
<g id="edge1" class="edge"><title>Node0&#45;&gt;Node1</title>
<path fill="none" stroke="midnightblue" d="M143.218,-51C151.57,-51 160.142,-51 168.62,-51"/>
<polygon fill="midnightblue" stroke="midnightblue" points="168.894,-54.5001 178.894,-51 168.894,-47.5001 168.894,-54.5001"/>
</g>
<!-- Node2 -->
<g id="node3" class="node"><title>Node2</title>
<g id="a_node3"><a xlink:href="namespacemessages.html#aa4a8d01563e92558e8a0875b075ec54c" target="_top" xlink:title="Write output to file identified by output_i. ">
<polygon fill="white" stroke="black" points="373,-80.5 373,-101.5 480,-101.5 480,-80.5 373,-80.5"/>
<text text-anchor="middle" x="426.5" y="-87.9" font-family="Ubuntu Mono" font-size="12.00">messages::writo</text>
</a>
</g>
</g>
<!-- Node1&#45;&gt;Node2 -->
<g id="edge2" class="edge"><title>Node1&#45;&gt;Node2</title>
<path fill="none" stroke="midnightblue" d="M322.022,-67.2119C337.941,-70.8714 354.624,-74.7066 369.832,-78.2028"/>
<polygon fill="midnightblue" stroke="midnightblue" points="369.061,-81.6167 379.591,-80.4461 370.629,-74.7946 369.061,-81.6167"/>
</g>
<!-- Node5 -->
<g id="node6" class="node"><title>Node5</title>
<g id="a_node6"><a xlink:href="namespacestr__utilities.html#a0b97e51770725a3e98ed393d26681414" target="_top" xlink:title="Convert an integer to string. ">
<polygon fill="white" stroke="black" points="358,-40.5 358,-61.5 495,-61.5 495,-40.5 358,-40.5"/>
<text text-anchor="middle" x="426.5" y="-47.9" font-family="Ubuntu Mono" font-size="12.00">str_utilities::i2str</text>
</a>
</g>
</g>
<!-- Node1&#45;&gt;Node5 -->
<g id="edge5" class="edge"><title>Node1&#45;&gt;Node5</title>
<path fill="none" stroke="midnightblue" d="M322.022,-51C330.553,-51 339.304,-51 347.929,-51"/>
<polygon fill="midnightblue" stroke="midnightblue" points="347.977,-54.5001 357.977,-51 347.977,-47.5001 347.977,-54.5001"/>
</g>
<!-- Node6 -->
<g id="node7" class="node"><title>Node6</title>
<g id="a_node7"><a xlink:href="namespacestr__utilities.html#a92ac6c0af1979df094de1caddd28ade0" target="_top" xlink:title="Convert a real (double) to string. ">
<polygon fill="white" stroke="black" points="358,-0.5 358,-21.5 495,-21.5 495,-0.5 358,-0.5"/>
<text text-anchor="middle" x="426.5" y="-7.9" font-family="Ubuntu Mono" font-size="12.00">str_utilities::r2str</text>
</a>
</g>
</g>
<!-- Node1&#45;&gt;Node6 -->
<g id="edge6" class="edge"><title>Node1&#45;&gt;Node6</title>
<path fill="none" stroke="midnightblue" d="M322.022,-34.7881C337.941,-31.1286 354.624,-27.2934 369.832,-23.7972"/>
<polygon fill="midnightblue" stroke="midnightblue" points="370.629,-27.2054 379.591,-21.5539 369.061,-20.3833 370.629,-27.2054"/>
</g>
<!-- Node3 -->
<g id="node4" class="node"><title>Node3</title>
<g id="a_node4"><a xlink:href="namespacemessages.html#a82dddaab795b78b3d39e1ff1aab2f665" target="_top" xlink:title="Returns the memory usage in kilobytes. ">
<polygon fill="white" stroke="black" points="531,-100.5 531,-121.5 686,-121.5 686,-100.5 531,-100.5"/>
<text text-anchor="middle" x="608.5" y="-107.9" font-family="Ubuntu Mono" font-size="12.00">messages::get_mem_usage</text>
</a>
</g>
</g>
<!-- Node2&#45;&gt;Node3 -->
<g id="edge3" class="edge"><title>Node2&#45;&gt;Node3</title>
<path fill="none" stroke="midnightblue" d="M480.047,-96.8386C492.823,-98.2581 506.824,-99.8138 520.723,-101.358"/>
<polygon fill="midnightblue" stroke="midnightblue" points="520.481,-104.853 530.806,-102.478 521.254,-97.8954 520.481,-104.853"/>
</g>
<!-- Node4 -->
<g id="node5" class="node"><title>Node4</title>
<g id="a_node5"><a xlink:href="namespacemessages.html#a61fd0b51b5e37d58fdc993c01792a3fd" target="_top" xlink:title="Returns the time. ">
<polygon fill="white" stroke="black" points="543,-60.5 543,-81.5 674,-81.5 674,-60.5 543,-60.5"/>
<text text-anchor="middle" x="608.5" y="-67.9" font-family="Ubuntu Mono" font-size="12.00">messages::get_clock</text>
</a>
</g>
</g>
<!-- Node2&#45;&gt;Node4 -->
<g id="edge4" class="edge"><title>Node2&#45;&gt;Node4</title>
<path fill="none" stroke="midnightblue" d="M480.047,-85.1614C496.442,-83.3398 514.855,-81.2939 532.479,-79.3357"/>
<polygon fill="midnightblue" stroke="midnightblue" points="533.191,-82.7782 542.743,-78.1952 532.418,-75.821 533.191,-82.7782"/>
</g>
</g>
</svg>
