<?xml version="1.0" encoding="UTF-8" standalone="no"?>
<!DOCTYPE svg PUBLIC "-//W3C//DTD SVG 1.1//EN"
 "http://www.w3.org/Graphics/SVG/1.1/DTD/svg11.dtd">
<!-- Generated by graphviz version 2.43.0 (0)
 -->
<!-- Title: output_ops::print_ex_3d::print_ex_3d_arr Pages: 1 -->
<svg width="892pt" height="308pt"
 viewBox="0.00 0.00 892.00 307.68" xmlns="http://www.w3.org/2000/svg" xmlns:xlink="http://www.w3.org/1999/xlink">
<g id="graph0" class="graph" transform="scale(1 1) rotate(0) translate(4 303.68)">
<title>output_ops::print_ex_3d::print_ex_3d_arr</title>
<polygon fill="white" stroke="transparent" points="-4,4 -4,-303.68 888,-303.68 888,4 -4,4"/>
<!-- Node1 -->
<g id="node1" class="node">
<title>Node1</title>
<g id="a_node1"><a xlink:title="array version">
<polygon fill="#bfbfbf" stroke="black" points="0,-119.5 0,-153.5 138,-153.5 138,-119.5 0,-119.5"/>
<text text-anchor="start" x="8" y="-139.9" font-family="Ubuntu Mono" font-size="12.00">output_ops::print_ex</text>
<text text-anchor="middle" x="69" y="-126.9" font-family="Ubuntu Mono" font-size="12.00">_3d::print_ex_3d_arr</text>
</a>
</g>
</g>
<!-- Node2 -->
<g id="node2" class="node">
<title>Node2</title>
<g id="a_node2"><a xlink:href="namespaceoutput__ops.html#a50bfbb88cc91805469353c3ff47b3e2e" target="_top" xlink:title="Use external program to draw a plot.">
<polygon fill="white" stroke="black" points="174,-165 174,-186 314,-186 314,-165 174,-165"/>
<text text-anchor="middle" x="244" y="-172.4" font-family="Ubuntu Mono" font-size="12.00">output_ops::draw_ex</text>
</a>
</g>
</g>
<!-- Node1&#45;&gt;Node2 -->
<g id="edge1" class="edge">
<title>Node1&#45;&gt;Node2</title>
<path fill="none" stroke="midnightblue" d="M138.37,-151.91C154.33,-155.51 171.16,-159.3 186.53,-162.77"/>
<polygon fill="midnightblue" stroke="midnightblue" points="185.88,-166.21 196.4,-165 187.42,-159.38 185.88,-166.21"/>
</g>
<!-- Node3 -->
<g id="node3" class="node">
<title>Node3</title>
<g id="a_node3"><a xlink:href="namespacestr__utilities.html#a0b97e51770725a3e98ed393d26681414" target="_top" xlink:title="Convert an integer to string.">
<polygon fill="white" stroke="black" points="735.5,-223 735.5,-244 849.5,-244 849.5,-223 735.5,-223"/>
<text text-anchor="middle" x="792.5" y="-230.4" font-family="Ubuntu Mono" font-size="12.00">str_utilities::i2str</text>
</a>
</g>
</g>
<!-- Node1&#45;&gt;Node3 -->
<g id="edge11" class="edge">
<title>Node1&#45;&gt;Node3</title>
<path fill="none" stroke="midnightblue" d="M84.51,-153.74C103.22,-174.98 137.68,-210.88 174,-232.5 245.01,-274.78 268.47,-278.98 350,-292.5 496.75,-316.83 672.24,-271.28 750.42,-247.13"/>
<polygon fill="midnightblue" stroke="midnightblue" points="751.86,-250.35 760.35,-244.02 749.77,-243.67 751.86,-250.35"/>
</g>
<!-- Node5 -->
<g id="node5" class="node">
<title>Node5</title>
<g id="a_node5"><a xlink:href="namespacemessages.html#aa4a8d01563e92558e8a0875b075ec54c" target="_top" xlink:title="Write output to file identified by output_i.">
<polygon fill="white" stroke="black" points="551,-164 551,-185 665,-185 665,-164 551,-164"/>
<text text-anchor="middle" x="608" y="-171.4" font-family="Ubuntu Mono" font-size="12.00">messages::writo</text>
</a>
</g>
</g>
<!-- Node1&#45;&gt;Node5 -->
<g id="edge15" class="edge">
<title>Node1&#45;&gt;Node5</title>
<path fill="none" stroke="midnightblue" d="M108.35,-119.5C187.62,-86.95 373.9,-24.05 515,-82.5 550.58,-97.24 579.58,-133.16 594.98,-155.5"/>
<polygon fill="midnightblue" stroke="midnightblue" points="592.1,-157.49 600.55,-163.88 597.92,-153.61 592.1,-157.49"/>
</g>
<!-- Node8 -->
<g id="node8" class="node">
<title>Node8</title>
<g id="a_node8"><a xlink:href="namespacefiles__utilities.html#ac6066df405564ba2f5e3c4bba726c1f8" target="_top" xlink:title="Search for available new unit.">
<polygon fill="white" stroke="black" points="360,-262 360,-283 505,-283 505,-262 360,-262"/>
<text text-anchor="middle" x="432.5" y="-269.4" font-family="Ubuntu Mono" font-size="12.00">files_utilities::nextunit</text>
</a>
</g>
</g>
<!-- Node1&#45;&gt;Node8 -->
<g id="edge13" class="edge">
<title>Node1&#45;&gt;Node8</title>
<path fill="none" stroke="midnightblue" d="M96.51,-153.76C117.04,-166.57 146.51,-183.77 174,-195.5 240.93,-224.06 321.87,-246.4 374.92,-259.5"/>
<polygon fill="midnightblue" stroke="midnightblue" points="374.27,-262.94 384.82,-261.91 375.93,-256.14 374.27,-262.94"/>
</g>
<!-- Node9 -->
<g id="node9" class="node">
<title>Node9</title>
<g id="a_node9"><a xlink:href="namespaceoutput__ops.html#aa9e4855511b6ea16a08b3efb587bec51" target="_top" xlink:title="Executes command line, or displays a message if disabled.">
<polygon fill="white" stroke="black" points="350,-92.5 350,-126.5 515,-126.5 515,-92.5 350,-92.5"/>
<text text-anchor="start" x="358" y="-112.9" font-family="Ubuntu Mono" font-size="12.00">output_ops::use_execute</text>
<text text-anchor="middle" x="432.5" y="-99.9" font-family="Ubuntu Mono" font-size="12.00">_command_line</text>
</a>
</g>
</g>
<!-- Node1&#45;&gt;Node9 -->
<g id="edge14" class="edge">
<title>Node1&#45;&gt;Node9</title>
<path fill="none" stroke="midnightblue" d="M138.42,-131.39C195.33,-127.14 276.85,-121.05 339.48,-116.37"/>
<polygon fill="midnightblue" stroke="midnightblue" points="340.04,-119.84 349.75,-115.61 339.52,-112.86 340.04,-119.84"/>
</g>
<!-- Node10 -->
<g id="node10" class="node">
<title>Node10</title>
<g id="a_node10"><a xlink:href="namespacestr__utilities.html#a6ab16f33c155db79844279c6a56a494c" target="_top" xlink:title="Merge array of strings.">
<polygon fill="white" stroke="black" points="180.5,-0.5 180.5,-34.5 307.5,-34.5 307.5,-0.5 180.5,-0.5"/>
<text text-anchor="start" x="188.5" y="-20.9" font-family="Ubuntu Mono" font-size="12.00">str_utilities::merge</text>
<text text-anchor="middle" x="244" y="-7.9" font-family="Ubuntu Mono" font-size="12.00">_strings</text>
</a>
</g>
</g>
<!-- Node1&#45;&gt;Node10 -->
<g id="edge12" class="edge">
<title>Node1&#45;&gt;Node10</title>
<path fill="none" stroke="midnightblue" d="M87.65,-119.22C107.48,-100.44 141.2,-70.31 174,-49.5 179.77,-45.84 186.02,-42.35 192.33,-39.12"/>
<polygon fill="midnightblue" stroke="midnightblue" points="194.14,-42.13 201.56,-34.57 191.05,-35.85 194.14,-42.13"/>
</g>
<!-- Node2&#45;&gt;Node3 -->
<g id="edge2" class="edge">
<title>Node2&#45;&gt;Node3</title>
<path fill="none" stroke="midnightblue" d="M310.17,-186.02C323.34,-187.97 337.1,-189.9 350,-191.5 482.72,-207.91 638.58,-221.39 725.09,-228.36"/>
<polygon fill="midnightblue" stroke="midnightblue" points="725.04,-231.86 735.29,-229.17 725.6,-224.89 725.04,-231.86"/>
</g>
<!-- Node4 -->
<g id="node4" class="node">
<title>Node4</title>
<g id="a_node4"><a xlink:href="namespacemessages.html#a6e6bfb084063e4cc91ee86e542043302" target="_top" xlink:title="Increases/decreases lvl of output.">
<polygon fill="white" stroke="black" points="373.5,-146 373.5,-167 491.5,-167 491.5,-146 373.5,-146"/>
<text text-anchor="middle" x="432.5" y="-153.4" font-family="Ubuntu Mono" font-size="12.00">messages::lvl_ud</text>
</a>
</g>
</g>
<!-- Node2&#45;&gt;Node4 -->
<g id="edge3" class="edge">
<title>Node2&#45;&gt;Node4</title>
<path fill="none" stroke="midnightblue" d="M314.18,-168.45C330.17,-166.82 347.17,-165.09 363.12,-163.47"/>
<polygon fill="midnightblue" stroke="midnightblue" points="363.84,-166.91 373.43,-162.42 363.13,-159.95 363.84,-166.91"/>
</g>
<!-- Node2&#45;&gt;Node5 -->
<g id="edge10" class="edge">
<title>Node2&#45;&gt;Node5</title>
<path fill="none" stroke="midnightblue" d="M314.09,-176.31C368.64,-176.82 446.68,-177.24 515,-176.5 523.27,-176.41 531.95,-176.27 540.55,-176.12"/>
<polygon fill="midnightblue" stroke="midnightblue" points="540.63,-179.62 550.56,-175.92 540.5,-172.62 540.63,-179.62"/>
</g>
<!-- Node2&#45;&gt;Node8 -->
<g id="edge8" class="edge">
<title>Node2&#45;&gt;Node8</title>
<path fill="none" stroke="midnightblue" d="M261.94,-186.11C276.03,-195.04 296.54,-208.28 314,-220.5 330.38,-231.97 332.17,-238.43 350,-247.5 358.62,-251.88 368.14,-255.66 377.55,-258.85"/>
<polygon fill="midnightblue" stroke="midnightblue" points="376.68,-262.24 387.27,-261.96 378.81,-255.58 376.68,-262.24"/>
</g>
<!-- Node2&#45;&gt;Node9 -->
<g id="edge9" class="edge">
<title>Node2&#45;&gt;Node9</title>
<path fill="none" stroke="midnightblue" d="M272.54,-164.97C293.66,-156.96 323.58,-145.78 350,-136.5 356.33,-134.28 362.95,-132 369.57,-129.76"/>
<polygon fill="midnightblue" stroke="midnightblue" points="370.87,-133.01 379.23,-126.51 368.64,-126.38 370.87,-133.01"/>
</g>
<!-- Node4&#45;&gt;Node5 -->
<g id="edge4" class="edge">
<title>Node4&#45;&gt;Node5</title>
<path fill="none" stroke="midnightblue" d="M491.76,-162.54C507.42,-164.17 524.48,-165.94 540.56,-167.61"/>
<polygon fill="midnightblue" stroke="midnightblue" points="540.65,-171.13 550.96,-168.69 541.37,-164.17 540.65,-171.13"/>
</g>
<!-- Node5&#45;&gt;Node3 -->
<g id="edge7" class="edge">
<title>Node5&#45;&gt;Node3</title>
<path fill="none" stroke="midnightblue" d="M641.35,-185.09C658.97,-190.85 681.18,-198.09 701,-204.5 716.58,-209.54 733.69,-215.03 748.79,-219.86"/>
<polygon fill="midnightblue" stroke="midnightblue" points="747.8,-223.22 758.39,-222.93 749.93,-216.55 747.8,-223.22"/>
</g>
<!-- Node6 -->
<g id="node6" class="node">
<title>Node6</title>
<g id="a_node6"><a xlink:href="namespacemessages.html#a61fd0b51b5e37d58fdc993c01792a3fd" target="_top" xlink:title="Returns the time.">
<polygon fill="white" stroke="black" points="722.5,-174 722.5,-195 862.5,-195 862.5,-174 722.5,-174"/>
<text text-anchor="middle" x="792.5" y="-181.4" font-family="Ubuntu Mono" font-size="12.00">messages::get_clock</text>
</a>
</g>
</g>
<!-- Node5&#45;&gt;Node6 -->
<g id="edge5" class="edge">
<title>Node5&#45;&gt;Node6</title>
<path fill="none" stroke="midnightblue" d="M665.25,-177.58C680.02,-178.39 696.24,-179.28 711.99,-180.14"/>
<polygon fill="midnightblue" stroke="midnightblue" points="712.07,-183.65 722.25,-180.71 712.45,-176.66 712.07,-183.65"/>
</g>
<!-- Node7 -->
<g id="node7" class="node">
<title>Node7</title>
<g id="a_node7"><a xlink:href="namespacemessages.html#a82dddaab795b78b3d39e1ff1aab2f665" target="_top" xlink:title="Returns the memory usage in kilobytes.">
<polygon fill="white" stroke="black" points="701,-134 701,-155 884,-155 884,-134 701,-134"/>
<text text-anchor="middle" x="792.5" y="-141.4" font-family="Ubuntu Mono" font-size="12.00">messages::get_mem_usage</text>
</a>
</g>
</g>
<!-- Node5&#45;&gt;Node7 -->
<g id="edge6" class="edge">
<title>Node5&#45;&gt;Node7</title>
<path fill="none" stroke="midnightblue" d="M665.25,-165.25C681.7,-162.55 699.95,-159.55 717.35,-156.69"/>
<polygon fill="midnightblue" stroke="midnightblue" points="718.17,-160.1 727.47,-155.03 717.03,-153.19 718.17,-160.1"/>
</g>
</g>
</svg>
