<?xml version="1.0" encoding="UTF-8" standalone="no"?>
<!DOCTYPE svg PUBLIC "-//W3C//DTD SVG 1.1//EN"
 "http://www.w3.org/Graphics/SVG/1.1/DTD/svg11.dtd">
<!-- Generated by graphviz version 2.43.0 (0)
 -->
<!-- Title: eq_ops::calc_rzl::calc_rzl_ind Pages: 1 -->
<svg width="320pt" height="43pt"
 viewBox="0.00 0.00 320.00 43.00" xmlns="http://www.w3.org/2000/svg" xmlns:xlink="http://www.w3.org/1999/xlink">
<g id="graph0" class="graph" transform="scale(1 1) rotate(0) translate(4 39)">
<title>eq_ops::calc_rzl::calc_rzl_ind</title>
<polygon fill="white" stroke="transparent" points="-4,4 -4,-39 316,-39 316,4 -4,4"/>
<!-- Node1 -->
<g id="node1" class="node">
<title>Node1</title>
<g id="a_node1"><a xlink:title="individual version">
<polygon fill="#bfbfbf" stroke="black" points="0,-0.5 0,-34.5 142,-34.5 142,-0.5 0,-0.5"/>
<text text-anchor="start" x="8" y="-20.9" font-family="Ubuntu Mono" font-size="12.00">eq_ops::calc_rzl::calc</text>
<text text-anchor="middle" x="71" y="-7.9" font-family="Ubuntu Mono" font-size="12.00">_rzl_ind</text>
</a>
</g>
</g>
<!-- Node2 -->
<g id="node2" class="node">
<title>Node2</title>
<g id="a_node2"><a xlink:href="namespacenum__utilities.html#a00f4cfe18a734eaa5d66f529e52f7c31" target="_top" xlink:title="checks whether the derivatives requested for a certain subroutine are valid">
<polygon fill="white" stroke="black" points="178,-0.5 178,-34.5 312,-34.5 312,-0.5 178,-0.5"/>
<text text-anchor="start" x="186" y="-20.9" font-family="Ubuntu Mono" font-size="12.00">num_utilities::check</text>
<text text-anchor="middle" x="245" y="-7.9" font-family="Ubuntu Mono" font-size="12.00">_deriv</text>
</a>
</g>
</g>
<!-- Node1&#45;&gt;Node2 -->
<g id="edge1" class="edge">
<title>Node1&#45;&gt;Node2</title>
<path fill="none" stroke="midnightblue" d="M142.46,-17.5C150.77,-17.5 159.28,-17.5 167.66,-17.5"/>
<polygon fill="midnightblue" stroke="midnightblue" points="167.81,-21 177.81,-17.5 167.81,-14 167.81,-21"/>
</g>
</g>
</svg>
