<?xml version="1.0" encoding="UTF-8" standalone="no"?>
<!DOCTYPE svg PUBLIC "-//W3C//DTD SVG 1.1//EN"
 "http://www.w3.org/Graphics/SVG/1.1/DTD/svg11.dtd">
<!-- Generated by graphviz version 2.38.0 (20140413.2041)
 -->
<!-- Title: eq_ops::calc_jac_v::calc_jac_v_ind Pages: 1 -->
<svg width="479pt" height="43pt"
 viewBox="0.00 0.00 479.00 43.00" xmlns="http://www.w3.org/2000/svg" xmlns:xlink="http://www.w3.org/1999/xlink">
<g id="graph0" class="graph" transform="scale(1 1) rotate(0) translate(4 39)">
<title>eq_ops::calc_jac_v::calc_jac_v_ind</title>
<polygon fill="white" stroke="none" points="-4,4 -4,-39 475,-39 475,4 -4,4"/>
<!-- Node8 -->
<g id="node1" class="node"><title>Node8</title>
<polygon fill="#bfbfbf" stroke="black" points="0,-0.5 0,-34.5 125,-34.5 125,-0.5 0,-0.5"/>
<text text-anchor="start" x="8" y="-20.9" font-family="Ubuntu Mono" font-size="12.00">eq_ops::calc_jac_v</text>
<text text-anchor="middle" x="62.5" y="-7.9" font-family="Ubuntu Mono" font-size="12.00">::calc_jac_v_ind</text>
</g>
<!-- Node9 -->
<g id="node2" class="node"><title>Node9</title>
<g id="a_node2"><a xlink:href="namespacenum__utilities.html#a00f4cfe18a734eaa5d66f529e52f7c31" target="_top" xlink:title="checks whether the derivatives requested for a certain subroutine are valid ">
<polygon fill="white" stroke="black" points="161,-0.5 161,-34.5 298,-34.5 298,-0.5 161,-0.5"/>
<text text-anchor="start" x="169" y="-20.9" font-family="Ubuntu Mono" font-size="12.00">num_utilities::check</text>
<text text-anchor="middle" x="229.5" y="-7.9" font-family="Ubuntu Mono" font-size="12.00">_deriv</text>
</a>
</g>
</g>
<!-- Node8&#45;&gt;Node9 -->
<g id="edge1" class="edge"><title>Node8&#45;&gt;Node9</title>
<path fill="none" stroke="midnightblue" d="M125.409,-17.5C133.756,-17.5 142.404,-17.5 150.98,-17.5"/>
<polygon fill="midnightblue" stroke="midnightblue" points="150.991,-21.0001 160.991,-17.5 150.991,-14.0001 150.991,-21.0001"/>
</g>
<!-- Node10 -->
<g id="node3" class="node"><title>Node10</title>
<g id="a_node3"><a xlink:href="namespacestr__utilities.html#a0b97e51770725a3e98ed393d26681414" target="_top" xlink:title="Convert an integer to string. ">
<polygon fill="white" stroke="black" points="334,-7 334,-28 471,-28 471,-7 334,-7"/>
<text text-anchor="middle" x="402.5" y="-14.4" font-family="Ubuntu Mono" font-size="12.00">str_utilities::i2str</text>
</a>
</g>
</g>
<!-- Node9&#45;&gt;Node10 -->
<g id="edge2" class="edge"><title>Node9&#45;&gt;Node10</title>
<path fill="none" stroke="midnightblue" d="M298.084,-17.5C306.538,-17.5 315.237,-17.5 323.83,-17.5"/>
<polygon fill="midnightblue" stroke="midnightblue" points="323.847,-21.0001 333.847,-17.5 323.847,-14.0001 323.847,-21.0001"/>
</g>
</g>
</svg>
