<?xml version="1.0" encoding="UTF-8" standalone="no"?>
<!DOCTYPE svg PUBLIC "-//W3C//DTD SVG 1.1//EN"
 "http://www.w3.org/Graphics/SVG/1.1/DTD/svg11.dtd">
<!-- Generated by graphviz version 2.38.0 (20140413.2041)
 -->
<!-- Title: eq_utilities::calc_inv_met::calc_inv_met_ind Pages: 1 -->
<svg width="694pt" height="188pt"
 viewBox="0.00 0.00 694.00 188.00" xmlns="http://www.w3.org/2000/svg" xmlns:xlink="http://www.w3.org/1999/xlink">
<g id="graph0" class="graph" transform="scale(1 1) rotate(0) translate(4 184)">
<title>eq_utilities::calc_inv_met::calc_inv_met_ind</title>
<polygon fill="white" stroke="none" points="-4,4 -4,-184 690,-184 690,4 -4,4"/>
<!-- Node4 -->
<g id="node1" class="node"><title>Node4</title>
<polygon fill="#bfbfbf" stroke="black" points="0,-74 0,-108 173,-108 173,-74 0,-74"/>
<text text-anchor="start" x="8" y="-94.4" font-family="Ubuntu Mono" font-size="12.00">eq_utilities::calc</text>
<text text-anchor="middle" x="86.5" y="-81.4" font-family="Ubuntu Mono" font-size="12.00">_inv_met::calc_inv_met_ind</text>
</g>
<!-- Node5 -->
<g id="node2" class="node"><title>Node5</title>
<g id="a_node2"><a xlink:href="namespacenum__utilities.html#a5ee3fbd1fe67d0deefc7194631389f2a" target="_top" xlink:title="Convert 2&#45;D coordinates (i,j) to the storage convention used in matrices. ">
<polygon fill="white" stroke="black" points="224,-158.5 224,-179.5 337,-179.5 337,-158.5 224,-158.5"/>
<text text-anchor="middle" x="280.5" y="-165.9" font-family="Ubuntu Mono" font-size="12.00">num_utilities::c</text>
</a>
</g>
</g>
<!-- Node4&#45;&gt;Node5 -->
<g id="edge1" class="edge"><title>Node4&#45;&gt;Node5</title>
<path fill="none" stroke="midnightblue" d="M124.707,-108.042C148.611,-118.789 180.424,-132.717 209,-144 218.512,-147.756 228.843,-151.567 238.59,-155.043"/>
<polygon fill="midnightblue" stroke="midnightblue" points="237.494,-158.368 248.089,-158.394 239.823,-151.767 237.494,-158.368"/>
</g>
<!-- Node6 -->
<g id="node3" class="node"><title>Node6</title>
<g id="a_node3"><a xlink:href="namespacemessages.html#aa4a8d01563e92558e8a0875b075ec54c" target="_top" xlink:title="Write output to file identified by output_i. ">
<polygon fill="white" stroke="black" points="388,-99.5 388,-120.5 495,-120.5 495,-99.5 388,-99.5"/>
<text text-anchor="middle" x="441.5" y="-106.9" font-family="Ubuntu Mono" font-size="12.00">messages::writo</text>
</a>
</g>
</g>
<!-- Node4&#45;&gt;Node6 -->
<g id="edge2" class="edge"><title>Node4&#45;&gt;Node6</title>
<path fill="none" stroke="midnightblue" d="M173.242,-106.902C185.213,-108.599 197.388,-110.051 209,-111 272.344,-116.179 288.445,-111.359 352,-111 360.283,-110.953 369.002,-110.882 377.605,-110.798"/>
<polygon fill="midnightblue" stroke="midnightblue" points="377.656,-114.298 387.62,-110.695 377.584,-107.298 377.656,-114.298"/>
</g>
<!-- Node9 -->
<g id="node6" class="node"><title>Node9</title>
<g id="a_node6"><a xlink:href="namespacemessages.html#a6e6bfb084063e4cc91ee86e542043302" target="_top" xlink:title="Increases/decreases lvl of output. ">
<polygon fill="white" stroke="black" points="224,-80.5 224,-101.5 337,-101.5 337,-80.5 224,-80.5"/>
<text text-anchor="middle" x="280.5" y="-87.9" font-family="Ubuntu Mono" font-size="12.00">messages::lvl_ud</text>
</a>
</g>
</g>
<!-- Node4&#45;&gt;Node9 -->
<g id="edge5" class="edge"><title>Node4&#45;&gt;Node9</title>
<path fill="none" stroke="midnightblue" d="M173.112,-91C186.684,-91 200.536,-91 213.566,-91"/>
<polygon fill="midnightblue" stroke="midnightblue" points="213.819,-94.5001 223.819,-91 213.819,-87.5001 213.819,-94.5001"/>
</g>
<!-- Node10 -->
<g id="node7" class="node"><title>Node10</title>
<g id="a_node7"><a xlink:href="namespacestr__utilities.html#ac778d706b2e021672618939ab58fdd32" target="_top" xlink:title="Convert a real (double) to string. ">
<polygon fill="white" stroke="black" points="209,-40.5 209,-61.5 352,-61.5 352,-40.5 209,-40.5"/>
<text text-anchor="middle" x="280.5" y="-47.9" font-family="Ubuntu Mono" font-size="12.00">str_utilities::r2strt</text>
</a>
</g>
</g>
<!-- Node4&#45;&gt;Node10 -->
<g id="edge7" class="edge"><title>Node4&#45;&gt;Node10</title>
<path fill="none" stroke="midnightblue" d="M169.204,-73.9784C185.865,-70.5073 203.114,-66.9137 218.882,-63.6286"/>
<polygon fill="midnightblue" stroke="midnightblue" points="219.934,-66.9849 229.01,-61.5188 218.506,-60.132 219.934,-66.9849"/>
</g>
<!-- Node11 -->
<g id="node8" class="node"><title>Node11</title>
<g id="a_node8"><a xlink:href="namespacestr__utilities.html#a0b97e51770725a3e98ed393d26681414" target="_top" xlink:title="Convert an integer to string. ">
<polygon fill="white" stroke="black" points="212,-0.5 212,-21.5 349,-21.5 349,-0.5 212,-0.5"/>
<text text-anchor="middle" x="280.5" y="-7.9" font-family="Ubuntu Mono" font-size="12.00">str_utilities::i2str</text>
</a>
</g>
</g>
<!-- Node4&#45;&gt;Node11 -->
<g id="edge8" class="edge"><title>Node4&#45;&gt;Node11</title>
<path fill="none" stroke="midnightblue" d="M118.264,-73.855C142.415,-60.8788 177.166,-43.2579 209,-31 214.922,-28.7198 221.212,-26.569 227.502,-24.5837"/>
<polygon fill="midnightblue" stroke="midnightblue" points="228.778,-27.8542 237.334,-21.6053 226.749,-21.1548 228.778,-27.8542"/>
</g>
<!-- Node7 -->
<g id="node4" class="node"><title>Node7</title>
<g id="a_node4"><a xlink:href="namespacemessages.html#a82dddaab795b78b3d39e1ff1aab2f665" target="_top" xlink:title="Returns the memory usage in kilobytes. ">
<polygon fill="white" stroke="black" points="531,-119.5 531,-140.5 686,-140.5 686,-119.5 531,-119.5"/>
<text text-anchor="middle" x="608.5" y="-126.9" font-family="Ubuntu Mono" font-size="12.00">messages::get_mem_usage</text>
</a>
</g>
</g>
<!-- Node6&#45;&gt;Node7 -->
<g id="edge3" class="edge"><title>Node6&#45;&gt;Node7</title>
<path fill="none" stroke="midnightblue" d="M495.161,-116.383C503.452,-117.388 512.208,-118.449 521.025,-119.518"/>
<polygon fill="midnightblue" stroke="midnightblue" points="520.635,-122.996 530.984,-120.725 521.478,-116.047 520.635,-122.996"/>
</g>
<!-- Node8 -->
<g id="node5" class="node"><title>Node8</title>
<g id="a_node5"><a xlink:href="namespacemessages.html#a61fd0b51b5e37d58fdc993c01792a3fd" target="_top" xlink:title="Returns the time. ">
<polygon fill="white" stroke="black" points="543,-79.5 543,-100.5 674,-100.5 674,-79.5 543,-79.5"/>
<text text-anchor="middle" x="608.5" y="-86.9" font-family="Ubuntu Mono" font-size="12.00">messages::get_clock</text>
</a>
</g>
</g>
<!-- Node6&#45;&gt;Node8 -->
<g id="edge4" class="edge"><title>Node6&#45;&gt;Node8</title>
<path fill="none" stroke="midnightblue" d="M495.161,-103.617C507.142,-102.165 520.094,-100.595 532.797,-99.0549"/>
<polygon fill="midnightblue" stroke="midnightblue" points="533.402,-102.507 542.908,-97.8293 532.56,-95.5581 533.402,-102.507"/>
</g>
<!-- Node9&#45;&gt;Node6 -->
<g id="edge6" class="edge"><title>Node9&#45;&gt;Node6</title>
<path fill="none" stroke="midnightblue" d="M337.11,-97.6453C350.241,-99.2144 364.33,-100.898 377.752,-102.502"/>
<polygon fill="midnightblue" stroke="midnightblue" points="377.514,-105.998 387.859,-103.71 378.345,-99.0477 377.514,-105.998"/>
</g>
</g>
</svg>
