<?xml version="1.0" encoding="UTF-8" standalone="no"?>
<!DOCTYPE svg PUBLIC "-//W3C//DTD SVG 1.1//EN"
 "http://www.w3.org/Graphics/SVG/1.1/DTD/svg11.dtd">
<!-- Generated by graphviz version 14.1.2 (20260124.0452)
 -->
<!-- Title: eq_ops::calc_eq::calc_eq_1 Pages: 1 -->
<svg width="892pt" height="322pt"
 viewBox="0.00 0.00 892.00 322.00" xmlns="http://www.w3.org/2000/svg" xmlns:xlink="http://www.w3.org/1999/xlink">
<g id="graph0" class="graph" transform="scale(1 1) rotate(0) translate(4 318.08)">
<title>eq_ops::calc_eq::calc_eq_1</title>
<!-- Node1 -->
<g id="Node000001" class="node">
<title>Node1</title>
<g id="a_Node000001"><a xlink:title="flux version">
<polygon fill="#999999" stroke="#666666" points="172,-238.08 0,-238.08 0,-217.33 172,-217.33 172,-238.08"/>
<text xml:space="preserve" text-anchor="middle" x="86" y="-222.68" font-family="Ubuntu Mono" font-size="12.00">eq_ops::calc_eq::calc_eq_1</text>
</a>
</g>
</g>
<!-- Node2 -->
<g id="Node000002" class="node">
<title>Node2</title>
<g id="a_Node000002"><a xlink:href="namespacenum__utilities.html#ac827c18dd05a9b5a06675eac942f3b51" target="_top" xlink:title="Returns derivatives of certain order.">
<polygon fill="white" stroke="#666666" points="350,-314.08 208,-314.08 208,-293.33 350,-293.33 350,-314.08"/>
<text xml:space="preserve" text-anchor="middle" x="279" y="-298.68" font-family="Ubuntu Mono" font-size="12.00">num_utilities::derivs</text>
</a>
</g>
</g>
<!-- Node1&#45;&gt;Node2 -->
<g id="edge1_Node000001_Node000002" class="edge">
<title>Node1&#45;&gt;Node2</title>
<g id="a_edge1_Node000001_Node000002"><a xlink:title=" ">
<path fill="none" stroke="#63b8ff" d="M110.43,-238.4C134.65,-249.31 173.65,-266.46 208,-279.71 216.34,-282.93 225.33,-286.17 233.98,-289.18"/>
<polygon fill="#63b8ff" stroke="#63b8ff" points="232.67,-292.44 243.27,-292.37 234.95,-285.81 232.67,-292.44"/>
</a>
</g>
</g>
<!-- Node3 -->
<g id="Node000003" class="node">
<title>Node3</title>
<g id="a_Node000003"><a xlink:href="namespaceoutput__ops.html#a50bfbb88cc91805469353c3ff47b3e2e" target="_top" xlink:title="Use external program to draw a plot.">
<polygon fill="white" stroke="#666666" points="344,-162.08 214,-162.08 214,-141.33 344,-141.33 344,-162.08"/>
<text xml:space="preserve" text-anchor="middle" x="279" y="-146.68" font-family="Ubuntu Mono" font-size="12.00">output_ops::draw_ex</text>
</a>
</g>
</g>
<!-- Node1&#45;&gt;Node3 -->
<g id="edge2_Node000001_Node000003" class="edge">
<title>Node1&#45;&gt;Node3</title>
<g id="a_edge2_Node000001_Node000003"><a xlink:title=" ">
<path fill="none" stroke="#63b8ff" d="M113.96,-216.98C147,-203.83 203.17,-181.48 240.43,-166.66"/>
<polygon fill="#63b8ff" stroke="#63b8ff" points="241.46,-170.01 249.46,-163.06 238.88,-163.51 241.46,-170.01"/>
</a>
</g>
</g>
<!-- Node4 -->
<g id="Node000004" class="node">
<title>Node4</title>
<g id="a_Node000004"><a xlink:href="namespacestr__utilities.html#a0b97e51770725a3e98ed393d26681414" target="_top" xlink:title="Convert an integer to string.">
<polygon fill="white" stroke="#666666" points="875,-49.08 739,-49.08 739,-28.33 875,-28.33 875,-49.08"/>
<text xml:space="preserve" text-anchor="middle" x="807" y="-33.68" font-family="Ubuntu Mono" font-size="12.00">str_utilities::i2str</text>
</a>
</g>
</g>
<!-- Node1&#45;&gt;Node4 -->
<g id="edge14_Node000001_Node000004" class="edge">
<title>Node1&#45;&gt;Node4</title>
<g id="a_edge14_Node000001_Node000004"><a xlink:title=" ">
<path fill="none" stroke="#63b8ff" d="M97.03,-216.92C132.24,-180 255.13,-58.8 386,-19.71 513.41,18.35 672.19,-7.38 753.16,-25.39"/>
<polygon fill="#63b8ff" stroke="#63b8ff" points="752.05,-28.72 762.58,-27.53 753.6,-21.9 752.05,-28.72"/>
</a>
</g>
</g>
<!-- Node5 -->
<g id="Node000005" class="node">
<title>Node5</title>
<g id="a_Node000005"><a xlink:href="namespacemessages.html#a6e6bfb084063e4cc91ee86e542043302" target="_top" xlink:title="Increases/decreases lvl of output.">
<polygon fill="white" stroke="#666666" points="525,-238.08 413,-238.08 413,-217.33 525,-217.33 525,-238.08"/>
<text xml:space="preserve" text-anchor="middle" x="469" y="-222.68" font-family="Ubuntu Mono" font-size="12.00">messages::lvl_ud</text>
</a>
</g>
</g>
<!-- Node1&#45;&gt;Node5 -->
<g id="edge15_Node000001_Node000005" class="edge">
<title>Node1&#45;&gt;Node5</title>
<g id="a_edge15_Node000001_Node000005"><a xlink:title=" ">
<path fill="none" stroke="#63b8ff" d="M172.03,-227.71C241.2,-227.71 337.45,-227.71 401.18,-227.71"/>
<polygon fill="#63b8ff" stroke="#63b8ff" points="401.17,-231.21 411.17,-227.71 401.17,-224.21 401.17,-231.21"/>
</a>
</g>
</g>
<!-- Node6 -->
<g id="Node000006" class="node">
<title>Node6</title>
<g id="a_Node000006"><a xlink:href="namespacemessages.html#aa4a8d01563e92558e8a0875b075ec54c" target="_top" xlink:title="Write output to file identified by output_i.">
<polygon fill="white" stroke="#666666" points="694,-190.08 588,-190.08 588,-169.33 694,-169.33 694,-190.08"/>
<text xml:space="preserve" text-anchor="middle" x="641" y="-174.68" font-family="Ubuntu Mono" font-size="12.00">messages::writo</text>
</a>
</g>
</g>
<!-- Node1&#45;&gt;Node6 -->
<g id="edge16_Node000001_Node000006" class="edge">
<title>Node1&#45;&gt;Node6</title>
<g id="a_edge16_Node000001_Node000006"><a xlink:title=" ">
<path fill="none" stroke="#63b8ff" d="M126.3,-238.53C208.1,-259.1 401.56,-297.46 552,-246.71 580.2,-237.2 606.51,-214.64 622.88,-198.33"/>
<polygon fill="#63b8ff" stroke="#63b8ff" points="625,-201.17 629.44,-191.55 619.97,-196.3 625,-201.17"/>
</a>
</g>
</g>
<!-- Node3&#45;&gt;Node4 -->
<g id="edge3_Node000003_Node000004" class="edge">
<title>Node3&#45;&gt;Node4</title>
<g id="a_edge3_Node000003_Node000004"><a xlink:title=" ">
<path fill="none" stroke="#63b8ff" d="M287.86,-140.99C303.71,-120.38 341.78,-75.64 386,-57.71 497.83,-12.35 640.38,-17.65 727.34,-27.1"/>
<polygon fill="#63b8ff" stroke="#63b8ff" points="726.87,-30.57 737.21,-28.22 727.67,-23.61 726.87,-30.57"/>
</a>
</g>
</g>
<!-- Node3&#45;&gt;Node5 -->
<g id="edge5_Node000003_Node000005" class="edge">
<title>Node3&#45;&gt;Node5</title>
<g id="a_edge5_Node000003_Node000005"><a xlink:title=" ">
<path fill="none" stroke="#63b8ff" d="M297.01,-162.39C317.45,-174.82 353.11,-195.23 386,-207.71 391.97,-209.97 398.28,-212.05 404.64,-213.93"/>
<polygon fill="#63b8ff" stroke="#63b8ff" points="403.33,-217.19 413.9,-216.5 405.2,-210.45 403.33,-217.19"/>
</a>
</g>
</g>
<!-- Node3&#45;&gt;Node6 -->
<g id="edge13_Node000003_Node000006" class="edge">
<title>Node3&#45;&gt;Node6</title>
<g id="a_edge13_Node000003_Node000006"><a xlink:title=" ">
<path fill="none" stroke="#63b8ff" d="M344.45,-146.17C399.84,-142.73 481.66,-140.79 552,-151.71 569.08,-154.36 587.39,-159.75 602.85,-165.09"/>
<polygon fill="#63b8ff" stroke="#63b8ff" points="601.54,-168.34 612.13,-168.43 603.9,-161.75 601.54,-168.34"/>
</a>
</g>
</g>
<!-- Node8 -->
<g id="Node000008" class="node">
<title>Node8</title>
<g id="a_Node000008"><a xlink:href="namespacefiles__utilities.html#ac6066df405564ba2f5e3c4bba726c1f8" target="_top" xlink:title="Search for available new unit.">
<polygon fill="white" stroke="#666666" points="552,-181.08 386,-181.08 386,-160.33 552,-160.33 552,-181.08"/>
<text xml:space="preserve" text-anchor="middle" x="469" y="-165.68" font-family="Ubuntu Mono" font-size="12.00">files_utilities::nextunit</text>
</a>
</g>
</g>
<!-- Node3&#45;&gt;Node8 -->
<g id="edge9_Node000003_Node000008" class="edge">
<title>Node3&#45;&gt;Node8</title>
<g id="a_edge9_Node000003_Node000008"><a xlink:title=" ">
<path fill="none" stroke="#63b8ff" d="M344.44,-158.22C354.09,-159.2 364.21,-160.22 374.32,-161.24"/>
<polygon fill="#63b8ff" stroke="#63b8ff" points="373.9,-164.72 384.2,-162.24 374.6,-157.75 373.9,-164.72"/>
</a>
</g>
</g>
<!-- Node9 -->
<g id="Node000009" class="node">
<title>Node9</title>
<g id="a_Node000009"><a xlink:href="namespacestr__utilities.html#a92ac6c0af1979df094de1caddd28ade0" target="_top" xlink:title="Convert a real (double) to string.">
<polygon fill="white" stroke="#666666" points="537,-87.08 401,-87.08 401,-66.33 537,-66.33 537,-87.08"/>
<text xml:space="preserve" text-anchor="middle" x="469" y="-71.68" font-family="Ubuntu Mono" font-size="12.00">str_utilities::r2str</text>
</a>
</g>
</g>
<!-- Node3&#45;&gt;Node9 -->
<g id="edge11_Node000003_Node000009" class="edge">
<title>Node3&#45;&gt;Node9</title>
<g id="a_edge11_Node000003_Node000009"><a xlink:title=" ">
<path fill="none" stroke="#63b8ff" d="M306.94,-140.96C339.37,-128.02 394.04,-106.22 430.56,-91.64"/>
<polygon fill="#63b8ff" stroke="#63b8ff" points="431.41,-95.07 439.4,-88.12 428.82,-88.57 431.41,-95.07"/>
</a>
</g>
</g>
<!-- Node4&#45;&gt;Node4 -->
<g id="edge4_Node000004_Node000004" class="edge">
<title>Node4&#45;&gt;Node4</title>
<g id="a_edge4_Node000004_Node000004"><a xlink:title=" ">
<path fill="none" stroke="#63b8ff" d="M780.25,-49.48C769.55,-58.14 778.47,-67.08 807,-67.08 822.6,-67.08 832.34,-64.41 836.21,-60.57"/>
<polygon fill="#63b8ff" stroke="#63b8ff" points="839.66,-59.96 834.08,-50.96 832.83,-61.48 839.66,-59.96"/>
</a>
</g>
</g>
<!-- Node5&#45;&gt;Node6 -->
<g id="edge6_Node000005_Node000006" class="edge">
<title>Node5&#45;&gt;Node6</title>
<g id="a_edge6_Node000005_Node000006"><a xlink:title=" ">
<path fill="none" stroke="#63b8ff" d="M516.98,-216.84C528.47,-214.02 540.71,-210.88 552,-207.71 566.88,-203.53 583.04,-198.53 597.4,-193.91"/>
<polygon fill="#63b8ff" stroke="#63b8ff" points="598.11,-197.36 606.54,-190.95 595.94,-190.71 598.11,-197.36"/>
</a>
</g>
</g>
<!-- Node6&#45;&gt;Node4 -->
<g id="edge8_Node000006_Node000004" class="edge">
<title>Node6&#45;&gt;Node4</title>
<g id="a_edge8_Node000006_Node000004"><a xlink:title=" ">
<path fill="none" stroke="#63b8ff" d="M654.6,-168.88C682.69,-144.73 750.7,-86.25 785.19,-56.6"/>
<polygon fill="#63b8ff" stroke="#63b8ff" points="787.14,-59.54 792.44,-50.37 782.57,-54.23 787.14,-59.54"/>
</a>
</g>
</g>
<!-- Node7 -->
<g id="Node000007" class="node">
<title>Node7</title>
<g id="a_Node000007"><a xlink:href="namespacemessages.html#a82dddaab795b78b3d39e1ff1aab2f665" target="_top" xlink:title="Returns the memory usage in kilobytes.">
<polygon fill="white" stroke="#666666" points="884,-190.08 730,-190.08 730,-169.33 884,-169.33 884,-190.08"/>
<text xml:space="preserve" text-anchor="middle" x="807" y="-174.68" font-family="Ubuntu Mono" font-size="12.00">messages::get_mem_usage</text>
</a>
</g>
</g>
<!-- Node6&#45;&gt;Node7 -->
<g id="edge7_Node000006_Node000007" class="edge">
<title>Node6&#45;&gt;Node7</title>
<g id="a_edge7_Node000006_Node000007"><a xlink:title=" ">
<path fill="none" stroke="#63b8ff" d="M694.34,-179.71C701.99,-179.71 710.03,-179.71 718.15,-179.71"/>
<polygon fill="#63b8ff" stroke="#63b8ff" points="718.14,-183.21 728.14,-179.71 718.14,-176.21 718.14,-183.21"/>
</a>
</g>
</g>
<!-- Node8&#45;&gt;Node8 -->
<g id="edge10_Node000008_Node000008" class="edge">
<title>Node8&#45;&gt;Node8</title>
<g id="a_edge10_Node000008_Node000008"><a xlink:title=" ">
<path fill="none" stroke="#63b8ff" d="M441.29,-181.48C430.2,-190.14 439.44,-199.08 469,-199.08 485.17,-199.08 495.26,-196.41 499.27,-192.57"/>
<polygon fill="#63b8ff" stroke="#63b8ff" points="502.71,-191.92 497.05,-182.96 495.89,-193.49 502.71,-191.92"/>
</a>
</g>
</g>
<!-- Node9&#45;&gt;Node9 -->
<g id="edge12_Node000009_Node000009" class="edge">
<title>Node9&#45;&gt;Node9</title>
<g id="a_edge12_Node000009_Node000009"><a xlink:title=" ">
<path fill="none" stroke="#63b8ff" d="M441.29,-87.48C430.2,-96.14 439.44,-105.08 469,-105.08 485.17,-105.08 495.26,-102.41 499.27,-98.57"/>
<polygon fill="#63b8ff" stroke="#63b8ff" points="502.71,-97.92 497.05,-88.96 495.89,-99.49 502.71,-97.92"/>
</a>
</g>
</g>
</g>
</svg>
