<?xml version="1.0" encoding="UTF-8" standalone="no"?>
<!DOCTYPE svg PUBLIC "-//W3C//DTD SVG 1.1//EN"
 "http://www.w3.org/Graphics/SVG/1.1/DTD/svg11.dtd">
<!-- Generated by graphviz version 14.1.2 (20260124.0452)
 -->
<!-- Title: eq_ops::calc_jac_h::calc_jac_h_ind Pages: 1 -->
<svg width="304pt" height="53pt"
 viewBox="0.00 0.00 304.00 53.00" xmlns="http://www.w3.org/2000/svg" xmlns:xlink="http://www.w3.org/1999/xlink">
<g id="graph0" class="graph" transform="scale(1 1) rotate(0) translate(4 49.12)">
<title>eq_ops::calc_jac_h::calc_jac_h_ind</title>
<!-- Node1 -->
<g id="Node000001" class="node">
<title>Node1</title>
<g id="a_Node000001"><a xlink:title="individual version">
<polygon fill="#999999" stroke="#666666" points="124,-33.5 0,-33.5 0,0 124,0 124,-33.5"/>
<text xml:space="preserve" text-anchor="start" x="8" y="-18.1" font-family="Ubuntu Mono" font-size="12.00">eq_ops::calc_jac_h</text>
<text xml:space="preserve" text-anchor="middle" x="62" y="-5.35" font-family="Ubuntu Mono" font-size="12.00">::calc_jac_h_ind</text>
</a>
</g>
</g>
<!-- Node2 -->
<g id="Node000002" class="node">
<title>Node2</title>
<g id="a_Node000002"><a xlink:href="namespacestr__utilities.html#a0b97e51770725a3e98ed393d26681414" target="_top" xlink:title="Convert an integer to string.">
<polygon fill="white" stroke="#666666" points="296,-27.12 160,-27.12 160,-6.38 296,-6.38 296,-27.12"/>
<text xml:space="preserve" text-anchor="middle" x="228" y="-11.72" font-family="Ubuntu Mono" font-size="12.00">str_utilities::i2str</text>
</a>
</g>
</g>
<!-- Node1&#45;&gt;Node2 -->
<g id="edge1_Node000001_Node000002" class="edge">
<title>Node1&#45;&gt;Node2</title>
<g id="a_edge1_Node000001_Node000002"><a xlink:title=" ">
<path fill="none" stroke="#63b8ff" d="M124.07,-16.75C131.93,-16.75 140.06,-16.75 148.16,-16.75"/>
<polygon fill="#63b8ff" stroke="#63b8ff" points="148.03,-20.25 158.03,-16.75 148.03,-13.25 148.03,-20.25"/>
</a>
</g>
</g>
<!-- Node2&#45;&gt;Node2 -->
<g id="edge2_Node000002_Node000002" class="edge">
<title>Node2&#45;&gt;Node2</title>
<g id="a_edge2_Node000002_Node000002"><a xlink:title=" ">
<path fill="none" stroke="#63b8ff" d="M201.25,-27.52C190.55,-36.18 199.47,-45.12 228,-45.12 243.6,-45.12 253.34,-42.45 257.21,-38.61"/>
<polygon fill="#63b8ff" stroke="#63b8ff" points="260.66,-38 255.08,-29 253.83,-39.52 260.66,-38"/>
</a>
</g>
</g>
</g>
</svg>
