<?xml version="1.0" encoding="UTF-8" standalone="no"?>
<!DOCTYPE svg PUBLIC "-//W3C//DTD SVG 1.1//EN"
 "http://www.w3.org/Graphics/SVG/1.1/DTD/svg11.dtd">
<!-- Generated by graphviz version 2.38.0 (20140413.2041)
 -->
<!-- Title: x_ops::calc_x::calc_x_2 Pages: 1 -->
<svg width="718pt" height="149pt"
 viewBox="0.00 0.00 718.00 149.00" xmlns="http://www.w3.org/2000/svg" xmlns:xlink="http://www.w3.org/1999/xlink">
<g id="graph0" class="graph" transform="scale(1 1) rotate(0) translate(4 145)">
<title>x_ops::calc_x::calc_x_2</title>
<polygon fill="white" stroke="none" points="-4,4 -4,-145 714,-145 714,4 -4,4"/>
<!-- Node18 -->
<g id="node1" class="node"><title>Node18</title>
<polygon fill="#bfbfbf" stroke="black" points="0,-60.5 0,-81.5 155,-81.5 155,-60.5 0,-60.5"/>
<text text-anchor="middle" x="77.5" y="-67.9" font-family="Ubuntu Mono" font-size="12.00">x_ops::calc_x::calc_x_2</text>
</g>
<!-- Node19 -->
<g id="node2" class="node"><title>Node19</title>
<g id="a_node2"><a xlink:href="namespacemessages.html#aa4a8d01563e92558e8a0875b075ec54c" target="_top" xlink:title="Write output to file identified by output_i. ">
<polygon fill="white" stroke="black" points="376,-99.5 376,-120.5 483,-120.5 483,-99.5 376,-99.5"/>
<text text-anchor="middle" x="429.5" y="-106.9" font-family="Ubuntu Mono" font-size="12.00">messages::writo</text>
</a>
</g>
</g>
<!-- Node18&#45;&gt;Node19 -->
<g id="edge1" class="edge"><title>Node18&#45;&gt;Node19</title>
<path fill="none" stroke="midnightblue" d="M101.147,-81.65C123.436,-91.5009 158.725,-105.433 191,-111 249.486,-121.088 317.286,-119.516 365.436,-116.206"/>
<polygon fill="midnightblue" stroke="midnightblue" points="365.989,-119.675 375.707,-115.454 365.478,-112.694 365.989,-119.675"/>
</g>
<!-- Node22 -->
<g id="node5" class="node"><title>Node22</title>
<g id="a_node5"><a xlink:href="namespacemessages.html#a6e6bfb084063e4cc91ee86e542043302" target="_top" xlink:title="Increases/decreases lvl of output. ">
<polygon fill="white" stroke="black" points="191,-80.5 191,-101.5 304,-101.5 304,-80.5 191,-80.5"/>
<text text-anchor="middle" x="247.5" y="-87.9" font-family="Ubuntu Mono" font-size="12.00">messages::lvl_ud</text>
</a>
</g>
</g>
<!-- Node18&#45;&gt;Node22 -->
<g id="edge4" class="edge"><title>Node18&#45;&gt;Node22</title>
<path fill="none" stroke="midnightblue" d="M155.126,-80.1221C163.616,-81.1329 172.208,-82.1557 180.55,-83.1488"/>
<polygon fill="midnightblue" stroke="midnightblue" points="180.235,-86.6359 190.578,-84.3427 181.062,-79.685 180.235,-86.6359"/>
</g>
<!-- Node23 -->
<g id="node6" class="node"><title>Node23</title>
<g id="a_node6"><a xlink:href="namespacex__ops.html#a51f3bf0b4c8d688ffbcc3a1adbca9762" target="_top" xlink:title="calculate &#160;(pol. flux) or &#160;(tor. flux) at all equilibrium loc_n_r values. ">
<polygon fill="white" stroke="black" points="197,-40.5 197,-61.5 298,-61.5 298,-40.5 197,-40.5"/>
<text text-anchor="middle" x="247.5" y="-47.9" font-family="Ubuntu Mono" font-size="12.00">x_ops::calc_pv</text>
</a>
</g>
</g>
<!-- Node18&#45;&gt;Node23 -->
<g id="edge6" class="edge"><title>Node18&#45;&gt;Node23</title>
<path fill="none" stroke="midnightblue" d="M155.126,-61.8779C165.77,-60.6107 176.574,-59.3246 186.845,-58.1017"/>
<polygon fill="midnightblue" stroke="midnightblue" points="187.398,-61.5607 196.915,-56.903 186.571,-54.6098 187.398,-61.5607"/>
</g>
<!-- Node26 -->
<g id="node9" class="node"><title>Node26</title>
<g id="a_node9"><a xlink:href="namespacex__ops.html#a045e8903230dfa0fb8b89b458d0c8ee2" target="_top" xlink:title="calculate &#160;(pol. flux) or &#160;(tor. flux) at all equilibrium loc_n_r values. ">
<polygon fill="white" stroke="black" points="197,-0.5 197,-21.5 298,-21.5 298,-0.5 197,-0.5"/>
<text text-anchor="middle" x="247.5" y="-7.9" font-family="Ubuntu Mono" font-size="12.00">x_ops::calc_kv</text>
</a>
</g>
</g>
<!-- Node18&#45;&gt;Node26 -->
<g id="edge9" class="edge"><title>Node18&#45;&gt;Node26</title>
<path fill="none" stroke="midnightblue" d="M108.148,-60.4113C135.773,-50.5453 177.142,-35.7708 207.447,-24.9476"/>
<polygon fill="midnightblue" stroke="midnightblue" points="208.626,-28.2431 216.866,-21.5836 206.271,-21.6509 208.626,-28.2431"/>
</g>
<!-- Node20 -->
<g id="node3" class="node"><title>Node20</title>
<g id="a_node3"><a xlink:href="namespacemessages.html#a82dddaab795b78b3d39e1ff1aab2f665" target="_top" xlink:title="Returns the memory usage in kilobytes. ">
<polygon fill="white" stroke="black" points="555,-119.5 555,-140.5 710,-140.5 710,-119.5 555,-119.5"/>
<text text-anchor="middle" x="632.5" y="-126.9" font-family="Ubuntu Mono" font-size="12.00">messages::get_mem_usage</text>
</a>
</g>
</g>
<!-- Node19&#45;&gt;Node20 -->
<g id="edge2" class="edge"><title>Node19&#45;&gt;Node20</title>
<path fill="none" stroke="midnightblue" d="M483.048,-115.229C501.84,-117.099 523.555,-119.259 544.476,-121.341"/>
<polygon fill="midnightblue" stroke="midnightblue" points="544.368,-124.847 554.666,-122.355 545.062,-117.882 544.368,-124.847"/>
</g>
<!-- Node21 -->
<g id="node4" class="node"><title>Node21</title>
<g id="a_node4"><a xlink:href="namespacemessages.html#a61fd0b51b5e37d58fdc993c01792a3fd" target="_top" xlink:title="Returns the time. ">
<polygon fill="white" stroke="black" points="567,-79.5 567,-100.5 698,-100.5 698,-79.5 567,-79.5"/>
<text text-anchor="middle" x="632.5" y="-86.9" font-family="Ubuntu Mono" font-size="12.00">messages::get_clock</text>
</a>
</g>
</g>
<!-- Node19&#45;&gt;Node21 -->
<g id="edge3" class="edge"><title>Node19&#45;&gt;Node21</title>
<path fill="none" stroke="midnightblue" d="M483.048,-104.771C505.539,-102.533 532.215,-99.8791 556.707,-97.4421"/>
<polygon fill="midnightblue" stroke="midnightblue" points="557.086,-100.922 566.69,-96.4488 556.392,-93.9562 557.086,-100.922"/>
</g>
<!-- Node22&#45;&gt;Node19 -->
<g id="edge5" class="edge"><title>Node22&#45;&gt;Node19</title>
<path fill="none" stroke="midnightblue" d="M304.466,-96.9076C323.978,-98.9671 345.992,-101.291 365.999,-103.403"/>
<polygon fill="midnightblue" stroke="midnightblue" points="365.635,-106.884 375.947,-104.453 366.37,-99.9223 365.635,-106.884"/>
</g>
<!-- Node24 -->
<g id="node7" class="node"><title>Node24</title>
<g id="a_node7"><a xlink:href="namespacenum__utilities.html#a5ee3fbd1fe67d0deefc7194631389f2a" target="_top" xlink:title="Convert 2&#45;D coordinates (i,j) to the storage convention used in matrices. ">
<polygon fill="white" stroke="black" points="373,-0.5 373,-21.5 486,-21.5 486,-0.5 373,-0.5"/>
<text text-anchor="middle" x="429.5" y="-7.9" font-family="Ubuntu Mono" font-size="12.00">num_utilities::c</text>
</a>
</g>
</g>
<!-- Node23&#45;&gt;Node24 -->
<g id="edge7" class="edge"><title>Node23&#45;&gt;Node24</title>
<path fill="none" stroke="midnightblue" d="M295.793,-40.4905C318.955,-35.3434 347.029,-29.1046 371.38,-23.6933"/>
<polygon fill="midnightblue" stroke="midnightblue" points="372.208,-27.0948 381.211,-21.5087 370.69,-20.2614 372.208,-27.0948"/>
</g>
<!-- Node25 -->
<g id="node8" class="node"><title>Node25</title>
<g id="a_node8"><a xlink:href="namespacex__utilities.html#a689aca7fedb49c43c5a65a18d557259f" target="_top" xlink:title="Determines whether a variable needs to be considered: ">
<polygon fill="white" stroke="black" points="340,-40.5 340,-61.5 519,-61.5 519,-40.5 340,-40.5"/>
<text text-anchor="middle" x="429.5" y="-47.9" font-family="Ubuntu Mono" font-size="12.00">x_utilities::is_necessary_x</text>
</a>
</g>
</g>
<!-- Node23&#45;&gt;Node25 -->
<g id="edge8" class="edge"><title>Node23&#45;&gt;Node25</title>
<path fill="none" stroke="midnightblue" d="M298.162,-51C308.121,-51 318.911,-51 329.873,-51"/>
<polygon fill="midnightblue" stroke="midnightblue" points="329.97,-54.5001 339.97,-51 329.97,-47.5001 329.97,-54.5001"/>
</g>
<!-- Node26&#45;&gt;Node24 -->
<g id="edge10" class="edge"><title>Node26&#45;&gt;Node24</title>
<path fill="none" stroke="midnightblue" d="M298.162,-11C318.104,-11 341.378,-11 362.696,-11"/>
<polygon fill="midnightblue" stroke="midnightblue" points="362.98,-14.5001 372.98,-11 362.98,-7.5001 362.98,-14.5001"/>
</g>
<!-- Node26&#45;&gt;Node25 -->
<g id="edge11" class="edge"><title>Node26&#45;&gt;Node25</title>
<path fill="none" stroke="midnightblue" d="M295.793,-21.5095C318.955,-26.6566 347.029,-32.8954 371.38,-38.3067"/>
<polygon fill="midnightblue" stroke="midnightblue" points="370.69,-41.7386 381.211,-40.4913 372.208,-34.9052 370.69,-41.7386"/>
</g>
</g>
</svg>
