<?xml version="1.0" encoding="UTF-8" standalone="no"?>
<!DOCTYPE svg PUBLIC "-//W3C//DTD SVG 1.1//EN"
 "http://www.w3.org/Graphics/SVG/1.1/DTD/svg11.dtd">
<!-- Generated by graphviz version 2.38.0 (20140413.2041)
 -->
<!-- Title: grid_utilities::setup_deriv_data::setup_deriv_data_eqd Pages: 1 -->
<svg width="372pt" height="70pt"
 viewBox="0.00 0.00 372.00 70.00" xmlns="http://www.w3.org/2000/svg" xmlns:xlink="http://www.w3.org/1999/xlink">
<g id="graph0" class="graph" transform="scale(1 1) rotate(0) translate(4 66)">
<title>grid_utilities::setup_deriv_data::setup_deriv_data_eqd</title>
<polygon fill="white" stroke="none" points="-4,4 -4,-66 368,-66 368,4 -4,4"/>
<!-- Node0 -->
<g id="node1" class="node"><title>Node0</title>
<polygon fill="#bfbfbf" stroke="black" points="0,-7.5 0,-54.5 161,-54.5 161,-7.5 0,-7.5"/>
<text text-anchor="start" x="8" y="-40.9" font-family="Ubuntu Mono" font-size="12.00">grid_utilities::setup</text>
<text text-anchor="start" x="8" y="-27.9" font-family="Ubuntu Mono" font-size="12.00">_deriv_data::setup_deriv</text>
<text text-anchor="middle" x="80.5" y="-14.9" font-family="Ubuntu Mono" font-size="12.00">_data_eqd</text>
</g>
<!-- Node1 -->
<g id="node2" class="node"><title>Node1</title>
<g id="a_node2"><a xlink:href="namespacenum__utilities.html#a43ab60f9e202b55221373286a5bbb954" target="_top" xlink:title="Calculate factorial. ">
<polygon fill="white" stroke="black" points="218,-40.5 218,-61.5 343,-61.5 343,-40.5 218,-40.5"/>
<text text-anchor="middle" x="280.5" y="-47.9" font-family="Ubuntu Mono" font-size="12.00">num_utilities::fac</text>
</a>
</g>
</g>
<!-- Node0&#45;&gt;Node1 -->
<g id="edge1" class="edge"><title>Node0&#45;&gt;Node1</title>
<path fill="none" stroke="midnightblue" d="M161.178,-39.0483C176.545,-40.6005 192.558,-42.218 207.657,-43.7431"/>
<polygon fill="midnightblue" stroke="midnightblue" points="207.644,-47.2596 217.945,-44.7824 208.348,-40.295 207.644,-47.2596"/>
</g>
<!-- Node2 -->
<g id="node3" class="node"><title>Node2</title>
<g id="a_node3"><a xlink:href="namespacenum__utilities.html#a54c65e345182e2e7e13ac14a0ba3647a" target="_top" xlink:title="Solve a Vandermonde system . ">
<polygon fill="white" stroke="black" points="197,-0.5 197,-21.5 364,-21.5 364,-0.5 197,-0.5"/>
<text text-anchor="middle" x="280.5" y="-7.9" font-family="Ubuntu Mono" font-size="12.00">num_utilities::solve_vand</text>
</a>
</g>
</g>
<!-- Node0&#45;&gt;Node2 -->
<g id="edge2" class="edge"><title>Node0&#45;&gt;Node2</title>
<path fill="none" stroke="midnightblue" d="M161.178,-22.9517C169.597,-22.1013 178.21,-21.2313 186.76,-20.3677"/>
<polygon fill="midnightblue" stroke="midnightblue" points="187.155,-23.8456 196.753,-19.3583 186.452,-16.8811 187.155,-23.8456"/>
</g>
</g>
</svg>
