<?xml version="1.0" encoding="UTF-8" standalone="no"?>
<!DOCTYPE svg PUBLIC "-//W3C//DTD SVG 1.1//EN"
 "http://www.w3.org/Graphics/SVG/1.1/DTD/svg11.dtd">
<!-- Generated by graphviz version 2.43.0 (0)
 -->
<!-- Title: x_ops::print_output_x::print_output_x_1 Pages: 1 -->
<svg width="1063pt" height="415pt"
 viewBox="0.00 0.00 1063.00 414.63" xmlns="http://www.w3.org/2000/svg" xmlns:xlink="http://www.w3.org/1999/xlink">
<g id="graph0" class="graph" transform="scale(1 1) rotate(0) translate(4 410.63)">
<title>x_ops::print_output_x::print_output_x_1</title>
<polygon fill="white" stroke="transparent" points="-4,4 -4,-410.63 1059,-410.63 1059,4 -4,4"/>
<!-- Node1 -->
<g id="node1" class="node">
<title>Node1</title>
<g id="a_node1"><a xlink:title="vectorial version.">
<polygon fill="#bfbfbf" stroke="black" points="0,-308.63 0,-342.63 136,-342.63 136,-308.63 0,-308.63"/>
<text text-anchor="start" x="8" y="-329.03" font-family="Ubuntu Mono" font-size="12.00">x_ops::print_output</text>
<text text-anchor="middle" x="68" y="-316.03" font-family="Ubuntu Mono" font-size="12.00">_x::print_output_x_1</text>
</a>
</g>
</g>
<!-- Node2 -->
<g id="node2" class="node">
<title>Node2</title>
<g id="a_node2"><a xlink:href="namespacemessages.html#a6e6bfb084063e4cc91ee86e542043302" target="_top" xlink:title="Increases/decreases lvl of output.">
<polygon fill="white" stroke="black" points="376.5,-345.13 376.5,-366.13 494.5,-366.13 494.5,-345.13 376.5,-345.13"/>
<text text-anchor="middle" x="435.5" y="-352.53" font-family="Ubuntu Mono" font-size="12.00">messages::lvl_ud</text>
</a>
</g>
</g>
<!-- Node1&#45;&gt;Node2 -->
<g id="edge1" class="edge">
<title>Node1&#45;&gt;Node2</title>
<path fill="none" stroke="midnightblue" d="M136.04,-331.13C201.38,-336.5 300.24,-344.61 366.05,-350.01"/>
<polygon fill="midnightblue" stroke="midnightblue" points="366.07,-353.53 376.32,-350.85 366.64,-346.55 366.07,-353.53"/>
</g>
<!-- Node3 -->
<g id="node3" class="node">
<title>Node3</title>
<g id="a_node3"><a xlink:href="namespacemessages.html#aa4a8d01563e92558e8a0875b075ec54c" target="_top" xlink:title="Write output to file identified by output_i.">
<polygon fill="white" stroke="black" points="550,-345.13 550,-366.13 664,-366.13 664,-345.13 550,-345.13"/>
<text text-anchor="middle" x="607" y="-352.53" font-family="Ubuntu Mono" font-size="12.00">messages::writo</text>
</a>
</g>
</g>
<!-- Node1&#45;&gt;Node3 -->
<g id="edge29" class="edge">
<title>Node1&#45;&gt;Node3</title>
<path fill="none" stroke="midnightblue" d="M120.41,-342.64C136.75,-347.49 154.99,-352.35 172,-355.63 313.23,-382.87 351.74,-388.43 495,-375.63 512.44,-374.07 531.25,-371.16 548.34,-368.03"/>
<polygon fill="midnightblue" stroke="midnightblue" points="549,-371.47 558.17,-366.17 547.7,-364.59 549,-371.47"/>
</g>
<!-- Node7 -->
<g id="node7" class="node">
<title>Node7</title>
<g id="a_node7"><a xlink:href="namespacehdf5__ops.html#af80b879ed614698ed91b8235cf1cb22a" target="_top" xlink:title="Prints a series of arrays, in the form of an array of pointers, to an HDF5 file.">
<polygon fill="white" stroke="black" points="172,-277.13 172,-298.13 340,-298.13 340,-277.13 172,-277.13"/>
<text text-anchor="middle" x="256" y="-284.53" font-family="Ubuntu Mono" font-size="12.00">hdf5_ops::print_hdf5_arrs</text>
</a>
</g>
</g>
<!-- Node1&#45;&gt;Node7 -->
<g id="edge6" class="edge">
<title>Node1&#45;&gt;Node7</title>
<path fill="none" stroke="midnightblue" d="M136.15,-311.91C154.85,-308.09 175.07,-303.96 193.43,-300.21"/>
<polygon fill="midnightblue" stroke="midnightblue" points="194.32,-303.6 203.42,-298.17 192.92,-296.74 194.32,-303.6"/>
</g>
<!-- Node18 -->
<g id="node18" class="node">
<title>Node18</title>
<g id="a_node18"><a xlink:href="namespacegrid__utilities.html#a67001ff9bbcad707aacf17f90a748d90" target="_top" xlink:title="Trim a grid, removing any overlap between the different regions.">
<polygon fill="white" stroke="black" points="181.5,-237.13 181.5,-258.13 330.5,-258.13 330.5,-237.13 181.5,-237.13"/>
<text text-anchor="middle" x="256" y="-244.53" font-family="Ubuntu Mono" font-size="12.00">grid_utilities::trim_grid</text>
</a>
</g>
</g>
<!-- Node1&#45;&gt;Node18 -->
<g id="edge28" class="edge">
<title>Node1&#45;&gt;Node18</title>
<path fill="none" stroke="midnightblue" d="M94.68,-308.52C114.94,-295.68 144.31,-278.52 172,-267.63 178.3,-265.15 185,-262.92 191.75,-260.93"/>
<polygon fill="midnightblue" stroke="midnightblue" points="192.94,-264.23 201.63,-258.18 191.06,-257.49 192.94,-264.23"/>
</g>
<!-- Node2&#45;&gt;Node3 -->
<g id="edge2" class="edge">
<title>Node2&#45;&gt;Node3</title>
<path fill="none" stroke="midnightblue" d="M494.83,-355.63C509.3,-355.63 524.92,-355.63 539.74,-355.63"/>
<polygon fill="midnightblue" stroke="midnightblue" points="539.85,-359.13 549.85,-355.63 539.85,-352.13 539.85,-359.13"/>
</g>
<!-- Node4 -->
<g id="node4" class="node">
<title>Node4</title>
<g id="a_node4"><a xlink:href="namespacemessages.html#a61fd0b51b5e37d58fdc993c01792a3fd" target="_top" xlink:title="Returns the time.">
<polygon fill="white" stroke="black" points="740.5,-385.13 740.5,-406.13 880.5,-406.13 880.5,-385.13 740.5,-385.13"/>
<text text-anchor="middle" x="810.5" y="-392.53" font-family="Ubuntu Mono" font-size="12.00">messages::get_clock</text>
</a>
</g>
</g>
<!-- Node3&#45;&gt;Node4 -->
<g id="edge3" class="edge">
<title>Node3&#45;&gt;Node4</title>
<path fill="none" stroke="midnightblue" d="M660.94,-366.14C687.22,-371.36 719.14,-377.69 746.65,-383.15"/>
<polygon fill="midnightblue" stroke="midnightblue" points="746.07,-386.61 756.56,-385.12 747.44,-379.74 746.07,-386.61"/>
</g>
<!-- Node5 -->
<g id="node5" class="node">
<title>Node5</title>
<g id="a_node5"><a xlink:href="namespacemessages.html#a82dddaab795b78b3d39e1ff1aab2f665" target="_top" xlink:title="Returns the memory usage in kilobytes.">
<polygon fill="white" stroke="black" points="719,-345.13 719,-366.13 902,-366.13 902,-345.13 719,-345.13"/>
<text text-anchor="middle" x="810.5" y="-352.53" font-family="Ubuntu Mono" font-size="12.00">messages::get_mem_usage</text>
</a>
</g>
</g>
<!-- Node3&#45;&gt;Node5 -->
<g id="edge4" class="edge">
<title>Node3&#45;&gt;Node5</title>
<path fill="none" stroke="midnightblue" d="M664.13,-355.63C678.08,-355.63 693.45,-355.63 708.83,-355.63"/>
<polygon fill="midnightblue" stroke="midnightblue" points="708.91,-359.13 718.91,-355.63 708.91,-352.13 708.91,-359.13"/>
</g>
<!-- Node6 -->
<g id="node6" class="node">
<title>Node6</title>
<g id="a_node6"><a xlink:href="namespacestr__utilities.html#a0b97e51770725a3e98ed393d26681414" target="_top" xlink:title="Convert an integer to string.">
<polygon fill="white" stroke="black" points="939.5,-268.13 939.5,-289.13 1053.5,-289.13 1053.5,-268.13 939.5,-268.13"/>
<text text-anchor="middle" x="996.5" y="-275.53" font-family="Ubuntu Mono" font-size="12.00">str_utilities::i2str</text>
</a>
</g>
</g>
<!-- Node3&#45;&gt;Node6 -->
<g id="edge5" class="edge">
<title>Node3&#45;&gt;Node6</title>
<path fill="none" stroke="midnightblue" d="M661.07,-345.09C731.89,-331.01 857.11,-306.13 932.6,-291.13"/>
<polygon fill="midnightblue" stroke="midnightblue" points="933.33,-294.55 942.45,-289.17 931.96,-287.69 933.33,-294.55"/>
</g>
<!-- Node7&#45;&gt;Node2 -->
<g id="edge25" class="edge">
<title>Node7&#45;&gt;Node2</title>
<path fill="none" stroke="midnightblue" d="M284.73,-298.26C315.08,-309.88 363.89,-328.58 397.49,-341.45"/>
<polygon fill="midnightblue" stroke="midnightblue" points="396.37,-344.77 406.96,-345.08 398.87,-338.23 396.37,-344.77"/>
</g>
<!-- Node7&#45;&gt;Node3 -->
<g id="edge27" class="edge">
<title>Node7&#45;&gt;Node3</title>
<path fill="none" stroke="midnightblue" d="M311.15,-298.18C373.52,-310.33 475.89,-330.28 542.11,-343.18"/>
<polygon fill="midnightblue" stroke="midnightblue" points="541.53,-346.63 552.01,-345.11 542.87,-339.76 541.53,-346.63"/>
</g>
<!-- Node7&#45;&gt;Node6 -->
<g id="edge7" class="edge">
<title>Node7&#45;&gt;Node6</title>
<path fill="none" stroke="midnightblue" d="M340.28,-286.62C488.26,-284.81 794.11,-281.08 929.05,-279.44"/>
<polygon fill="midnightblue" stroke="midnightblue" points="929.29,-282.94 939.25,-279.32 929.2,-275.94 929.29,-282.94"/>
</g>
<!-- Node8 -->
<g id="node8" class="node">
<title>Node8</title>
<g id="a_node8"><a xlink:href="namespacempi__utilities.html#a5a789d05be41d6109c01f46cc98620c8" target="_top" xlink:title="Request access to lock of a BL (blocking) or optionally a NB (non&#45;blocking) type.">
<polygon fill="white" stroke="black" points="376,-85.63 376,-119.63 495,-119.63 495,-85.63 376,-85.63"/>
<text text-anchor="start" x="384" y="-106.03" font-family="Ubuntu Mono" font-size="12.00">mpi_utilities::lock</text>
<text text-anchor="middle" x="435.5" y="-93.03" font-family="Ubuntu Mono" font-size="12.00">_req_acc</text>
</a>
</g>
</g>
<!-- Node7&#45;&gt;Node8 -->
<g id="edge8" class="edge">
<title>Node7&#45;&gt;Node8</title>
<path fill="none" stroke="midnightblue" d="M326.58,-277.07C331.47,-274.52 336.03,-271.41 340,-267.63 381.24,-228.34 343.07,-191.11 376,-144.63 381.04,-137.52 387.67,-131.16 394.66,-125.68"/>
<polygon fill="midnightblue" stroke="midnightblue" points="396.92,-128.37 402.95,-119.66 392.8,-122.71 396.92,-128.37"/>
</g>
<!-- Node16 -->
<g id="node16" class="node">
<title>Node16</title>
<g id="a_node16"><a xlink:href="namespacempi__utilities.html#a86f9982a0f92b51a916f832d9a3d8ba9" target="_top" xlink:title="Returns access to a lock.">
<polygon fill="white" stroke="black" points="376,-207.63 376,-241.63 495,-241.63 495,-207.63 376,-207.63"/>
<text text-anchor="start" x="384" y="-228.03" font-family="Ubuntu Mono" font-size="12.00">mpi_utilities::lock</text>
<text text-anchor="middle" x="435.5" y="-215.03" font-family="Ubuntu Mono" font-size="12.00">_return_acc</text>
</a>
</g>
</g>
<!-- Node7&#45;&gt;Node16 -->
<g id="edge20" class="edge">
<title>Node7&#45;&gt;Node16</title>
<path fill="none" stroke="midnightblue" d="M307.48,-277.09C318.32,-274.38 329.63,-271.2 340,-267.63 357.38,-261.64 375.91,-253.6 391.92,-246.09"/>
<polygon fill="midnightblue" stroke="midnightblue" points="393.5,-249.22 401.02,-241.75 390.49,-242.9 393.5,-249.22"/>
</g>
<!-- Node17 -->
<g id="node17" class="node">
<title>Node17</title>
<g id="a_node17"><a xlink:href="namespacehdf5__utilities.html#a7574320980affc30a584f7776d33a51c" target="_top" xlink:title="Sets up the chunk property list and/or the 1D hyperslabs that correspond to a local subset of lim_tot...">
<polygon fill="white" stroke="black" points="377,-154.63 377,-188.63 494,-188.63 494,-154.63 377,-154.63"/>
<text text-anchor="start" x="385" y="-175.03" font-family="Ubuntu Mono" font-size="12.00">hdf5_utilities::set</text>
<text text-anchor="middle" x="435.5" y="-162.03" font-family="Ubuntu Mono" font-size="12.00">_1d_vars</text>
</a>
</g>
</g>
<!-- Node7&#45;&gt;Node17 -->
<g id="edge26" class="edge">
<title>Node7&#45;&gt;Node17</title>
<path fill="none" stroke="midnightblue" d="M324.18,-276.95C329.85,-274.45 335.22,-271.39 340,-267.63 367.51,-246.01 350.57,-221.66 376,-197.63 377.11,-196.58 378.27,-195.57 379.47,-194.59"/>
<polygon fill="midnightblue" stroke="midnightblue" points="381.73,-197.29 387.9,-188.68 377.71,-191.56 381.73,-197.29"/>
</g>
<!-- Node9 -->
<g id="node9" class="node">
<title>Node9</title>
<g id="a_node9"><a xlink:href="namespacempi__utilities.html#a17c39b0498528e2532c8347b0b7dec86" target="_top" xlink:title="Get notified that the rank can get the lock.">
<polygon fill="white" stroke="black" points="547.5,-29.63 547.5,-63.63 666.5,-63.63 666.5,-29.63 547.5,-29.63"/>
<text text-anchor="start" x="555.5" y="-50.03" font-family="Ubuntu Mono" font-size="12.00">mpi_utilities::lock</text>
<text text-anchor="middle" x="607" y="-37.03" font-family="Ubuntu Mono" font-size="12.00">_get_notified</text>
</a>
</g>
</g>
<!-- Node8&#45;&gt;Node9 -->
<g id="edge9" class="edge">
<title>Node8&#45;&gt;Node9</title>
<path fill="none" stroke="midnightblue" d="M488.28,-85.52C506.18,-79.61 526.42,-72.92 545,-66.78"/>
<polygon fill="midnightblue" stroke="midnightblue" points="546.14,-70.09 554.54,-63.63 543.95,-63.45 546.14,-70.09"/>
</g>
<!-- Node10 -->
<g id="node10" class="node">
<title>Node10</title>
<g id="a_node10"><a xlink:href="namespacempi__utilities.html#abe5bf3ae3b6a06eda18c2f4d62ac09c5" target="_top" xlink:title="Returns the header for lock debug messages.">
<polygon fill="white" stroke="black" points="751,-146.63 751,-180.63 870,-180.63 870,-146.63 751,-146.63"/>
<text text-anchor="start" x="759" y="-167.03" font-family="Ubuntu Mono" font-size="12.00">mpi_utilities::lock</text>
<text text-anchor="middle" x="810.5" y="-154.03" font-family="Ubuntu Mono" font-size="12.00">_header</text>
</a>
</g>
</g>
<!-- Node8&#45;&gt;Node10 -->
<g id="edge13" class="edge">
<title>Node8&#45;&gt;Node10</title>
<path fill="none" stroke="midnightblue" d="M449.28,-85.61C465.63,-65.41 496.06,-32.8 531,-19.63 594.22,4.19 621.45,8.22 683,-19.63 736.48,-43.84 776.33,-103.06 795.93,-137.55"/>
<polygon fill="midnightblue" stroke="midnightblue" points="793.02,-139.51 800.92,-146.57 799.14,-136.13 793.02,-139.51"/>
</g>
<!-- Node12 -->
<g id="node12" class="node">
<title>Node12</title>
<g id="a_node12"><a xlink:href="namespacempi__utilities.html#a263a30c79639d97f5faffdb566b5a811" target="_top" xlink:title="Notifies a rank that they can get the lock.">
<polygon fill="white" stroke="black" points="547.5,-123.63 547.5,-157.63 666.5,-157.63 666.5,-123.63 547.5,-123.63"/>
<text text-anchor="start" x="555.5" y="-144.03" font-family="Ubuntu Mono" font-size="12.00">mpi_utilities::lock</text>
<text text-anchor="middle" x="607" y="-131.03" font-family="Ubuntu Mono" font-size="12.00">_notify</text>
</a>
</g>
</g>
<!-- Node8&#45;&gt;Node12 -->
<g id="edge14" class="edge">
<title>Node8&#45;&gt;Node12</title>
<path fill="none" stroke="midnightblue" d="M495.31,-115.81C508.85,-118.85 523.37,-122.11 537.29,-125.23"/>
<polygon fill="midnightblue" stroke="midnightblue" points="536.77,-128.7 547.3,-127.47 538.3,-121.87 536.77,-128.7"/>
</g>
<!-- Node13 -->
<g id="node13" class="node">
<title>Node13</title>
<g id="a_node13"><a xlink:href="namespacempi__utilities.html#a3b0349e5ec825e14083e3126c3e7ba65" target="_top" xlink:title="Adds, removes or sets to active a rank from the waiting list for a lock and returns the lock waiting ...">
<polygon fill="white" stroke="black" points="547.5,-215.63 547.5,-249.63 666.5,-249.63 666.5,-215.63 547.5,-215.63"/>
<text text-anchor="start" x="555.5" y="-236.03" font-family="Ubuntu Mono" font-size="12.00">mpi_utilities::lock</text>
<text text-anchor="middle" x="607" y="-223.03" font-family="Ubuntu Mono" font-size="12.00">_wl_change</text>
</a>
</g>
</g>
<!-- Node8&#45;&gt;Node13 -->
<g id="edge16" class="edge">
<title>Node8&#45;&gt;Node13</title>
<path fill="none" stroke="midnightblue" d="M460.88,-119.74C471.45,-127.26 483.92,-136.27 495,-144.63 523.2,-165.91 554.7,-191.02 576.92,-208.96"/>
<polygon fill="midnightblue" stroke="midnightblue" points="574.98,-211.89 584.96,-215.46 579.38,-206.45 574.98,-211.89"/>
</g>
<!-- Node15 -->
<g id="node15" class="node">
<title>Node15</title>
<g id="a_node15"><a xlink:href="namespacempi__utilities.html#a74e2e82b561f403ca8087c3925f76e29" target="_top" xlink:title="Decides whether a waiting list is empty.">
<polygon fill="white" stroke="black" points="531,-83.13 531,-104.13 683,-104.13 683,-83.13 531,-83.13"/>
<text text-anchor="middle" x="607" y="-90.53" font-family="Ubuntu Mono" font-size="12.00">mpi_utilities::wl_empty</text>
</a>
</g>
</g>
<!-- Node8&#45;&gt;Node15 -->
<g id="edge19" class="edge">
<title>Node8&#45;&gt;Node15</title>
<path fill="none" stroke="midnightblue" d="M495.31,-99.51C503.55,-99.07 512.16,-98.61 520.78,-98.16"/>
<polygon fill="midnightblue" stroke="midnightblue" points="521.08,-101.64 530.88,-97.62 520.7,-94.65 521.08,-101.64"/>
</g>
<!-- Node9&#45;&gt;Node10 -->
<g id="edge10" class="edge">
<title>Node9&#45;&gt;Node10</title>
<path fill="none" stroke="midnightblue" d="M661.23,-63.74C668.68,-66.73 676.13,-70.04 683,-73.63 719.05,-92.49 756.56,-120.39 781.28,-140.12"/>
<polygon fill="midnightblue" stroke="midnightblue" points="779.18,-142.92 789.16,-146.48 783.57,-137.47 779.18,-142.92"/>
</g>
<!-- Node10&#45;&gt;Node6 -->
<g id="edge11" class="edge">
<title>Node10&#45;&gt;Node6</title>
<path fill="none" stroke="midnightblue" d="M845.56,-180.85C862.76,-189.85 883.78,-201.32 902,-212.63 927.21,-228.28 954.83,-248.13 973.47,-261.96"/>
<polygon fill="midnightblue" stroke="midnightblue" points="971.49,-264.85 981.6,-268.03 975.68,-259.24 971.49,-264.85"/>
</g>
<!-- Node11 -->
<g id="node11" class="node">
<title>Node11</title>
<g id="a_node11"><a xlink:href="namespacestr__utilities.html#acb8c4e66aead51f178e47fdea8d7a7db" target="_top" xlink:title="Convert an integer to string.">
<polygon fill="white" stroke="black" points="938,-153.13 938,-174.13 1055,-174.13 1055,-153.13 938,-153.13"/>
<text text-anchor="middle" x="996.5" y="-160.53" font-family="Ubuntu Mono" font-size="12.00">str_utilities::ii2str</text>
</a>
</g>
</g>
<!-- Node10&#45;&gt;Node11 -->
<g id="edge12" class="edge">
<title>Node10&#45;&gt;Node11</title>
<path fill="none" stroke="midnightblue" d="M870.22,-163.63C888.59,-163.63 909,-163.63 927.92,-163.63"/>
<polygon fill="midnightblue" stroke="midnightblue" points="927.96,-167.13 937.96,-163.63 927.96,-160.13 927.96,-167.13"/>
</g>
<!-- Node12&#45;&gt;Node10 -->
<g id="edge15" class="edge">
<title>Node12&#45;&gt;Node10</title>
<path fill="none" stroke="midnightblue" d="M666.55,-147.31C689.73,-149.96 716.55,-153.02 740.66,-155.77"/>
<polygon fill="midnightblue" stroke="midnightblue" points="740.47,-159.27 750.8,-156.93 741.26,-152.32 740.47,-159.27"/>
</g>
<!-- Node13&#45;&gt;Node10 -->
<g id="edge17" class="edge">
<title>Node13&#45;&gt;Node10</title>
<path fill="none" stroke="midnightblue" d="M657.81,-215.57C685.66,-206.04 720.56,-194.09 749.86,-184.05"/>
<polygon fill="midnightblue" stroke="midnightblue" points="751.24,-187.28 759.57,-180.73 748.97,-180.66 751.24,-187.28"/>
</g>
<!-- Node14 -->
<g id="node14" class="node">
<title>Node14</title>
<g id="a_node14"><a xlink:href="namespacestr__utilities.html#ac778d706b2e021672618939ab58fdd32" target="_top" xlink:title="Convert a real (double) to string.">
<polygon fill="white" stroke="black" points="750,-222.13 750,-243.13 871,-243.13 871,-222.13 750,-222.13"/>
<text text-anchor="middle" x="810.5" y="-229.53" font-family="Ubuntu Mono" font-size="12.00">str_utilities::r2strt</text>
</a>
</g>
</g>
<!-- Node13&#45;&gt;Node14 -->
<g id="edge18" class="edge">
<title>Node13&#45;&gt;Node14</title>
<path fill="none" stroke="midnightblue" d="M666.55,-232.63C689.43,-232.63 715.85,-232.63 739.7,-232.63"/>
<polygon fill="midnightblue" stroke="midnightblue" points="739.75,-236.13 749.75,-232.63 739.75,-229.13 739.75,-236.13"/>
</g>
<!-- Node16&#45;&gt;Node10 -->
<g id="edge21" class="edge">
<title>Node16&#45;&gt;Node10</title>
<path fill="none" stroke="midnightblue" d="M495.14,-212.38C506.99,-210.03 519.38,-207.67 531,-205.63 602.29,-193.1 684.26,-181.01 740.72,-173.05"/>
<polygon fill="midnightblue" stroke="midnightblue" points="741.54,-176.47 750.96,-171.61 740.57,-169.54 741.54,-176.47"/>
</g>
<!-- Node16&#45;&gt;Node12 -->
<g id="edge22" class="edge">
<title>Node16&#45;&gt;Node12</title>
<path fill="none" stroke="midnightblue" d="M476,-207.55C482.45,-204.43 488.98,-201.07 495,-197.63 511.91,-187.96 513.95,-182.06 531,-172.63 537.79,-168.87 545.12,-165.26 552.44,-161.89"/>
<polygon fill="midnightblue" stroke="midnightblue" points="553.95,-165.05 561.66,-157.78 551.1,-158.66 553.95,-165.05"/>
</g>
<!-- Node16&#45;&gt;Node13 -->
<g id="edge23" class="edge">
<title>Node16&#45;&gt;Node13</title>
<path fill="none" stroke="midnightblue" d="M495.31,-227.41C508.85,-228.04 523.37,-228.73 537.29,-229.39"/>
<polygon fill="midnightblue" stroke="midnightblue" points="537.14,-232.88 547.3,-229.86 537.47,-225.89 537.14,-232.88"/>
</g>
<!-- Node16&#45;&gt;Node15 -->
<g id="edge24" class="edge">
<title>Node16&#45;&gt;Node15</title>
<path fill="none" stroke="midnightblue" d="M482.48,-207.56C487.04,-204.69 491.33,-201.4 495,-197.63 523.32,-168.52 500.28,-140.21 531,-113.63 532.78,-112.09 534.67,-110.67 536.64,-109.35"/>
<polygon fill="midnightblue" stroke="midnightblue" points="538.72,-112.19 545.74,-104.25 535.3,-106.09 538.72,-112.19"/>
</g>
</g>
</svg>
