<?xml version="1.0" encoding="UTF-8" standalone="no"?>
<!DOCTYPE svg PUBLIC "-//W3C//DTD SVG 1.1//EN"
 "http://www.w3.org/Graphics/SVG/1.1/DTD/svg11.dtd">
<!-- Generated by graphviz version 2.43.0 (0)
 -->
<!-- Title: x_ops::print_output_x::print_output_x_2 Pages: 1 -->
<svg width="1111pt" height="596pt"
 viewBox="0.00 0.00 1111.00 595.55" xmlns="http://www.w3.org/2000/svg" xmlns:xlink="http://www.w3.org/1999/xlink">
<g id="graph0" class="graph" transform="scale(1 1) rotate(0) translate(4 591.55)">
<title>x_ops::print_output_x::print_output_x_2</title>
<polygon fill="white" stroke="transparent" points="-4,4 -4,-591.55 1107,-591.55 1107,4 -4,4"/>
<!-- Node1 -->
<g id="node1" class="node">
<title>Node1</title>
<g id="a_node1"><a xlink:title="tensorial version">
<polygon fill="#bfbfbf" stroke="black" points="0,-409.9 0,-443.9 136,-443.9 136,-409.9 0,-409.9"/>
<text text-anchor="start" x="8" y="-430.3" font-family="Ubuntu Mono" font-size="12.00">x_ops::print_output</text>
<text text-anchor="middle" x="68" y="-417.3" font-family="Ubuntu Mono" font-size="12.00">_x::print_output_x_2</text>
</a>
</g>
</g>
<!-- Node2 -->
<g id="node2" class="node">
<title>Node2</title>
<g id="a_node2"><a xlink:href="namespacenum__utilities.html#a5ee3fbd1fe67d0deefc7194631389f2a" target="_top" xlink:title="Convert 2&#45;D coordinates (i,j) to the storage convention used in matrices.">
<polygon fill="white" stroke="black" points="406.5,-562.4 406.5,-583.4 512.5,-583.4 512.5,-562.4 406.5,-562.4"/>
<text text-anchor="middle" x="459.5" y="-569.8" font-family="Ubuntu Mono" font-size="12.00">num_utilities::c</text>
</a>
</g>
</g>
<!-- Node1&#45;&gt;Node2 -->
<g id="edge1" class="edge">
<title>Node1&#45;&gt;Node2</title>
<path fill="none" stroke="midnightblue" d="M76.82,-444.12C91.04,-473.16 124.16,-531.11 172,-555.9 242.15,-592.26 335.33,-590.09 396.08,-583.18"/>
<polygon fill="midnightblue" stroke="midnightblue" points="396.79,-586.62 406.29,-581.94 395.94,-579.67 396.79,-586.62"/>
</g>
<!-- Node3 -->
<g id="node3" class="node">
<title>Node3</title>
<g id="a_node3"><a xlink:href="namespacex__utilities.html#a6072ddd1fd230758795ff320c75a1f6a" target="_top" xlink:title="Gets one of the the local ranges of contiguous tensorial perturbation variables to be printed or read...">
<polygon fill="white" stroke="black" points="193.5,-512.9 193.5,-546.9 318.5,-546.9 318.5,-512.9 193.5,-512.9"/>
<text text-anchor="start" x="201.5" y="-533.3" font-family="Ubuntu Mono" font-size="12.00">x_utilities::get_sec</text>
<text text-anchor="middle" x="256" y="-520.3" font-family="Ubuntu Mono" font-size="12.00">_x_range</text>
</a>
</g>
</g>
<!-- Node1&#45;&gt;Node3 -->
<g id="edge2" class="edge">
<title>Node1&#45;&gt;Node3</title>
<path fill="none" stroke="midnightblue" d="M90.55,-443.99C110.75,-459.47 142.23,-482.18 172,-497.9 179.46,-501.84 187.52,-505.55 195.57,-508.96"/>
<polygon fill="midnightblue" stroke="midnightblue" points="194.42,-512.27 205,-512.81 197.07,-505.79 194.42,-512.27"/>
</g>
<!-- Node4 -->
<g id="node4" class="node">
<title>Node4</title>
<g id="a_node4"><a xlink:href="namespacex__utilities.html#a689aca7fedb49c43c5a65a18d557259f" target="_top" xlink:title="Determines whether a variable needs to be considered:">
<polygon fill="white" stroke="black" points="376,-497.4 376,-518.4 543,-518.4 543,-497.4 376,-497.4"/>
<text text-anchor="middle" x="459.5" y="-504.8" font-family="Ubuntu Mono" font-size="12.00">x_utilities::is_necessary_x</text>
</a>
</g>
</g>
<!-- Node1&#45;&gt;Node4 -->
<g id="edge5" class="edge">
<title>Node1&#45;&gt;Node4</title>
<path fill="none" stroke="midnightblue" d="M117.32,-443.97C134.44,-449.59 153.93,-455.52 172,-459.9 236.38,-475.52 310.13,-487.75 366.68,-495.95"/>
<polygon fill="midnightblue" stroke="midnightblue" points="366.27,-499.43 376.67,-497.39 367.27,-492.5 366.27,-499.43"/>
</g>
<!-- Node5 -->
<g id="node5" class="node">
<title>Node5</title>
<g id="a_node5"><a xlink:href="namespacemessages.html#a6e6bfb084063e4cc91ee86e542043302" target="_top" xlink:title="Increases/decreases lvl of output.">
<polygon fill="white" stroke="black" points="400.5,-397.4 400.5,-418.4 518.5,-418.4 518.5,-397.4 400.5,-397.4"/>
<text text-anchor="middle" x="459.5" y="-404.8" font-family="Ubuntu Mono" font-size="12.00">messages::lvl_ud</text>
</a>
</g>
</g>
<!-- Node1&#45;&gt;Node5 -->
<g id="edge6" class="edge">
<title>Node1&#45;&gt;Node5</title>
<path fill="none" stroke="midnightblue" d="M136.4,-423.61C207.48,-420.14 318.86,-414.71 390.26,-411.23"/>
<polygon fill="midnightblue" stroke="midnightblue" points="390.67,-414.71 400.49,-410.73 390.33,-407.72 390.67,-414.71"/>
</g>
<!-- Node6 -->
<g id="node6" class="node">
<title>Node6</title>
<g id="a_node6"><a xlink:href="namespacemessages.html#aa4a8d01563e92558e8a0875b075ec54c" target="_top" xlink:title="Write output to file identified by output_i.">
<polygon fill="white" stroke="black" points="598,-394.4 598,-415.4 712,-415.4 712,-394.4 598,-394.4"/>
<text text-anchor="middle" x="655" y="-401.8" font-family="Ubuntu Mono" font-size="12.00">messages::writo</text>
</a>
</g>
</g>
<!-- Node1&#45;&gt;Node6 -->
<g id="edge35" class="edge">
<title>Node1&#45;&gt;Node6</title>
<path fill="none" stroke="midnightblue" d="M136.38,-431.85C228.52,-437.53 398.87,-444.11 543,-427.9 562.64,-425.69 583.96,-421.67 602.62,-417.61"/>
<polygon fill="midnightblue" stroke="midnightblue" points="603.39,-421.02 612.39,-415.42 601.87,-414.19 603.39,-421.02"/>
</g>
<!-- Node10 -->
<g id="node10" class="node">
<title>Node10</title>
<g id="a_node10"><a xlink:href="namespacehdf5__ops.html#af80b879ed614698ed91b8235cf1cb22a" target="_top" xlink:title="Prints a series of arrays, in the form of an array of pointers, to an HDF5 file.">
<polygon fill="white" stroke="black" points="172,-358.4 172,-379.4 340,-379.4 340,-358.4 172,-358.4"/>
<text text-anchor="middle" x="256" y="-365.8" font-family="Ubuntu Mono" font-size="12.00">hdf5_ops::print_hdf5_arrs</text>
</a>
</g>
</g>
<!-- Node1&#45;&gt;Node10 -->
<g id="edge11" class="edge">
<title>Node1&#45;&gt;Node10</title>
<path fill="none" stroke="midnightblue" d="M121.61,-409.85C137.76,-404.67 155.59,-399 172,-393.9 184.25,-390.09 197.54,-386.05 209.82,-382.35"/>
<polygon fill="midnightblue" stroke="midnightblue" points="210.85,-385.7 219.42,-379.47 208.83,-378.99 210.85,-385.7"/>
</g>
<!-- Node21 -->
<g id="node21" class="node">
<title>Node21</title>
<g id="a_node21"><a xlink:href="namespacex__vars.html#a90d744aee4358a8cc35d29304d1bb120" target="_top" xlink:title="Sets number of entries for tensorial perturbation variables.">
<polygon fill="white" stroke="black" points="189,-318.4 189,-339.4 323,-339.4 323,-318.4 189,-318.4"/>
<text text-anchor="middle" x="256" y="-325.8" font-family="Ubuntu Mono" font-size="12.00">x_vars::set_nn_mod</text>
</a>
</g>
</g>
<!-- Node1&#45;&gt;Node21 -->
<g id="edge33" class="edge">
<title>Node1&#45;&gt;Node21</title>
<path fill="none" stroke="midnightblue" d="M86.82,-409.69C106.23,-391.89 138.96,-364.55 172,-348.9 177.02,-346.52 182.36,-344.41 187.8,-342.54"/>
<polygon fill="midnightblue" stroke="midnightblue" points="189.19,-345.77 197.68,-339.42 187.09,-339.09 189.19,-345.77"/>
</g>
<!-- Node22 -->
<g id="node22" class="node">
<title>Node22</title>
<g id="a_node22"><a xlink:href="namespacegrid__utilities.html#a67001ff9bbcad707aacf17f90a748d90" target="_top" xlink:title="Trim a grid, removing any overlap between the different regions.">
<polygon fill="white" stroke="black" points="181.5,-278.4 181.5,-299.4 330.5,-299.4 330.5,-278.4 181.5,-278.4"/>
<text text-anchor="middle" x="256" y="-285.8" font-family="Ubuntu Mono" font-size="12.00">grid_utilities::trim_grid</text>
</a>
</g>
</g>
<!-- Node1&#45;&gt;Node22 -->
<g id="edge34" class="edge">
<title>Node1&#45;&gt;Node22</title>
<path fill="none" stroke="midnightblue" d="M78.97,-409.88C95.1,-383.91 129.44,-334.69 172,-308.9 175.57,-306.74 179.35,-304.81 183.26,-303.09"/>
<polygon fill="midnightblue" stroke="midnightblue" points="184.54,-306.35 192.57,-299.45 181.99,-299.83 184.54,-306.35"/>
</g>
<!-- Node3&#45;&gt;Node2 -->
<g id="edge3" class="edge">
<title>Node3&#45;&gt;Node2</title>
<path fill="none" stroke="midnightblue" d="M318.55,-543.03C344.2,-548.51 373.86,-554.84 399.25,-560.26"/>
<polygon fill="midnightblue" stroke="midnightblue" points="398.61,-563.7 409.12,-562.36 400.07,-556.85 398.61,-563.7"/>
</g>
<!-- Node3&#45;&gt;Node4 -->
<g id="edge4" class="edge">
<title>Node3&#45;&gt;Node4</title>
<path fill="none" stroke="midnightblue" d="M318.55,-523.18C333.36,-521.56 349.51,-519.8 365.41,-518.06"/>
<polygon fill="midnightblue" stroke="midnightblue" points="366.24,-521.49 375.8,-516.93 365.48,-514.54 366.24,-521.49"/>
</g>
<!-- Node5&#45;&gt;Node6 -->
<g id="edge7" class="edge">
<title>Node5&#45;&gt;Node6</title>
<path fill="none" stroke="midnightblue" d="M518.56,-407C540.37,-406.66 565.33,-406.27 587.83,-405.93"/>
<polygon fill="midnightblue" stroke="midnightblue" points="588.03,-409.42 597.98,-405.77 587.93,-402.42 588.03,-409.42"/>
</g>
<!-- Node7 -->
<g id="node7" class="node">
<title>Node7</title>
<g id="a_node7"><a xlink:href="namespacemessages.html#a61fd0b51b5e37d58fdc993c01792a3fd" target="_top" xlink:title="Returns the time.">
<polygon fill="white" stroke="black" points="788.5,-414.4 788.5,-435.4 928.5,-435.4 928.5,-414.4 788.5,-414.4"/>
<text text-anchor="middle" x="858.5" y="-421.8" font-family="Ubuntu Mono" font-size="12.00">messages::get_clock</text>
</a>
</g>
</g>
<!-- Node6&#45;&gt;Node7 -->
<g id="edge8" class="edge">
<title>Node6&#45;&gt;Node7</title>
<path fill="none" stroke="midnightblue" d="M712.13,-410.47C732.63,-412.51 756.22,-414.85 778.35,-417.04"/>
<polygon fill="midnightblue" stroke="midnightblue" points="778.1,-420.54 788.4,-418.04 778.79,-413.57 778.1,-420.54"/>
</g>
<!-- Node8 -->
<g id="node8" class="node">
<title>Node8</title>
<g id="a_node8"><a xlink:href="namespacemessages.html#a82dddaab795b78b3d39e1ff1aab2f665" target="_top" xlink:title="Returns the memory usage in kilobytes.">
<polygon fill="white" stroke="black" points="767,-374.4 767,-395.4 950,-395.4 950,-374.4 767,-374.4"/>
<text text-anchor="middle" x="858.5" y="-381.8" font-family="Ubuntu Mono" font-size="12.00">messages::get_mem_usage</text>
</a>
</g>
</g>
<!-- Node6&#45;&gt;Node8 -->
<g id="edge9" class="edge">
<title>Node6&#45;&gt;Node8</title>
<path fill="none" stroke="midnightblue" d="M712.13,-399.33C726.08,-397.94 741.45,-396.42 756.83,-394.89"/>
<polygon fill="midnightblue" stroke="midnightblue" points="757.31,-398.36 766.91,-393.89 756.62,-391.4 757.31,-398.36"/>
</g>
<!-- Node9 -->
<g id="node9" class="node">
<title>Node9</title>
<g id="a_node9"><a xlink:href="namespacestr__utilities.html#a0b97e51770725a3e98ed393d26681414" target="_top" xlink:title="Convert an integer to string.">
<polygon fill="white" stroke="black" points="987.5,-266.4 987.5,-287.4 1101.5,-287.4 1101.5,-266.4 987.5,-266.4"/>
<text text-anchor="middle" x="1044.5" y="-273.8" font-family="Ubuntu Mono" font-size="12.00">str_utilities::i2str</text>
</a>
</g>
</g>
<!-- Node6&#45;&gt;Node9 -->
<g id="edge10" class="edge">
<title>Node6&#45;&gt;Node9</title>
<path fill="none" stroke="midnightblue" d="M684.64,-394.24C707,-386.01 738.87,-374.44 767,-364.9 848.51,-337.25 944.39,-307.31 999.15,-290.45"/>
<polygon fill="midnightblue" stroke="midnightblue" points="1000.35,-293.74 1008.88,-287.46 998.29,-287.05 1000.35,-293.74"/>
</g>
<!-- Node10&#45;&gt;Node5 -->
<g id="edge30" class="edge">
<title>Node10&#45;&gt;Node5</title>
<path fill="none" stroke="midnightblue" d="M311.26,-379.4C336.79,-384.34 367.42,-390.27 394.12,-395.44"/>
<polygon fill="midnightblue" stroke="midnightblue" points="393.66,-398.91 404.14,-397.38 394.99,-392.04 393.66,-398.91"/>
</g>
<!-- Node10&#45;&gt;Node6 -->
<g id="edge32" class="edge">
<title>Node10&#45;&gt;Node6</title>
<path fill="none" stroke="midnightblue" d="M340.08,-372.54C397.24,-375.5 474.86,-380.43 543,-387.9 557.56,-389.5 573.14,-391.62 587.89,-393.82"/>
<polygon fill="midnightblue" stroke="midnightblue" points="587.53,-397.31 597.94,-395.36 588.58,-390.39 587.53,-397.31"/>
</g>
<!-- Node10&#45;&gt;Node9 -->
<g id="edge12" class="edge">
<title>Node10&#45;&gt;Node9</title>
<path fill="none" stroke="midnightblue" d="M322.03,-358.27C328.39,-355.77 334.52,-352.69 340,-348.9 363.42,-332.7 351.03,-309.58 376,-295.9 477.83,-240.1 829,-259.99 976.95,-271.29"/>
<polygon fill="midnightblue" stroke="midnightblue" points="977.01,-274.8 987.25,-272.08 977.55,-267.82 977.01,-274.8"/>
</g>
<!-- Node11 -->
<g id="node11" class="node">
<title>Node11</title>
<g id="a_node11"><a xlink:href="namespacempi__utilities.html#a5a789d05be41d6109c01f46cc98620c8" target="_top" xlink:title="Request access to lock of a BL (blocking) or optionally a NB (non&#45;blocking) type.">
<polygon fill="white" stroke="black" points="400,-152.9 400,-186.9 519,-186.9 519,-152.9 400,-152.9"/>
<text text-anchor="start" x="408" y="-173.3" font-family="Ubuntu Mono" font-size="12.00">mpi_utilities::lock</text>
<text text-anchor="middle" x="459.5" y="-160.3" font-family="Ubuntu Mono" font-size="12.00">_req_acc</text>
</a>
</g>
</g>
<!-- Node10&#45;&gt;Node11 -->
<g id="edge13" class="edge">
<title>Node10&#45;&gt;Node11</title>
<path fill="none" stroke="midnightblue" d="M325.32,-358.23C330.61,-355.72 335.6,-352.65 340,-348.9 371.55,-322.03 353.95,-297.98 376,-262.9 392.08,-237.32 415.24,-211.9 432.94,-194.12"/>
<polygon fill="midnightblue" stroke="midnightblue" points="435.5,-196.51 440.15,-186.99 430.58,-191.53 435.5,-196.51"/>
</g>
<!-- Node19 -->
<g id="node19" class="node">
<title>Node19</title>
<g id="a_node19"><a xlink:href="namespacempi__utilities.html#a86f9982a0f92b51a916f832d9a3d8ba9" target="_top" xlink:title="Returns access to a lock.">
<polygon fill="white" stroke="black" points="400,-75.9 400,-109.9 519,-109.9 519,-75.9 400,-75.9"/>
<text text-anchor="start" x="408" y="-96.3" font-family="Ubuntu Mono" font-size="12.00">mpi_utilities::lock</text>
<text text-anchor="middle" x="459.5" y="-83.3" font-family="Ubuntu Mono" font-size="12.00">_return_acc</text>
</a>
</g>
</g>
<!-- Node10&#45;&gt;Node19 -->
<g id="edge25" class="edge">
<title>Node10&#45;&gt;Node19</title>
<path fill="none" stroke="midnightblue" d="M327.83,-358.38C332.32,-355.8 336.45,-352.68 340,-348.9 403.6,-281.13 323.56,-219.64 376,-142.9 383.68,-131.66 394.8,-122.52 406.4,-115.27"/>
<polygon fill="midnightblue" stroke="midnightblue" points="408.43,-118.15 415.32,-110.1 404.91,-112.09 408.43,-118.15"/>
</g>
<!-- Node20 -->
<g id="node20" class="node">
<title>Node20</title>
<g id="a_node20"><a xlink:href="namespacehdf5__utilities.html#a7574320980affc30a584f7776d33a51c" target="_top" xlink:title="Sets up the chunk property list and/or the 1D hyperslabs that correspond to a local subset of lim_tot...">
<polygon fill="white" stroke="black" points="401,-305.9 401,-339.9 518,-339.9 518,-305.9 401,-305.9"/>
<text text-anchor="start" x="409" y="-326.3" font-family="Ubuntu Mono" font-size="12.00">hdf5_utilities::set</text>
<text text-anchor="middle" x="459.5" y="-313.3" font-family="Ubuntu Mono" font-size="12.00">_1d_vars</text>
</a>
</g>
</g>
<!-- Node10&#45;&gt;Node20 -->
<g id="edge31" class="edge">
<title>Node10&#45;&gt;Node20</title>
<path fill="none" stroke="midnightblue" d="M303.23,-358.35C329.21,-352.41 362.12,-344.9 390.95,-338.32"/>
<polygon fill="midnightblue" stroke="midnightblue" points="391.98,-341.67 400.95,-336.04 390.43,-334.85 391.98,-341.67"/>
</g>
<!-- Node12 -->
<g id="node12" class="node">
<title>Node12</title>
<g id="a_node12"><a xlink:href="namespacempi__utilities.html#a17c39b0498528e2532c8347b0b7dec86" target="_top" xlink:title="Get notified that the rank can get the lock.">
<polygon fill="white" stroke="black" points="595.5,-175.9 595.5,-209.9 714.5,-209.9 714.5,-175.9 595.5,-175.9"/>
<text text-anchor="start" x="603.5" y="-196.3" font-family="Ubuntu Mono" font-size="12.00">mpi_utilities::lock</text>
<text text-anchor="middle" x="655" y="-183.3" font-family="Ubuntu Mono" font-size="12.00">_get_notified</text>
</a>
</g>
</g>
<!-- Node11&#45;&gt;Node12 -->
<g id="edge14" class="edge">
<title>Node11&#45;&gt;Node12</title>
<path fill="none" stroke="midnightblue" d="M519.08,-176.86C539.92,-179.34 563.57,-182.15 585.19,-184.72"/>
<polygon fill="midnightblue" stroke="midnightblue" points="584.94,-188.22 595.28,-185.92 585.77,-181.26 584.94,-188.22"/>
</g>
<!-- Node13 -->
<g id="node13" class="node">
<title>Node13</title>
<g id="a_node13"><a xlink:href="namespacempi__utilities.html#abe5bf3ae3b6a06eda18c2f4d62ac09c5" target="_top" xlink:title="Returns the header for lock debug messages.">
<polygon fill="white" stroke="black" points="799,-149.9 799,-183.9 918,-183.9 918,-149.9 799,-149.9"/>
<text text-anchor="start" x="807" y="-170.3" font-family="Ubuntu Mono" font-size="12.00">mpi_utilities::lock</text>
<text text-anchor="middle" x="858.5" y="-157.3" font-family="Ubuntu Mono" font-size="12.00">_header</text>
</a>
</g>
</g>
<!-- Node11&#45;&gt;Node13 -->
<g id="edge18" class="edge">
<title>Node11&#45;&gt;Node13</title>
<path fill="none" stroke="midnightblue" d="M492.12,-186.98C515.39,-198.54 548.21,-212.79 579,-218.9 645.26,-232.06 664.72,-231.99 731,-218.9 760.82,-213.01 792.45,-200.01 816.62,-188.48"/>
<polygon fill="midnightblue" stroke="midnightblue" points="818.37,-191.52 825.83,-183.99 815.31,-185.23 818.37,-191.52"/>
</g>
<!-- Node15 -->
<g id="node15" class="node">
<title>Node15</title>
<g id="a_node15"><a xlink:href="namespacempi__utilities.html#a263a30c79639d97f5faffdb566b5a811" target="_top" xlink:title="Notifies a rank that they can get the lock.">
<polygon fill="white" stroke="black" points="595.5,-122.9 595.5,-156.9 714.5,-156.9 714.5,-122.9 595.5,-122.9"/>
<text text-anchor="start" x="603.5" y="-143.3" font-family="Ubuntu Mono" font-size="12.00">mpi_utilities::lock</text>
<text text-anchor="middle" x="655" y="-130.3" font-family="Ubuntu Mono" font-size="12.00">_notify</text>
</a>
</g>
</g>
<!-- Node11&#45;&gt;Node15 -->
<g id="edge19" class="edge">
<title>Node11&#45;&gt;Node15</title>
<path fill="none" stroke="midnightblue" d="M519.08,-160.82C539.92,-157.59 563.57,-153.92 585.19,-150.57"/>
<polygon fill="midnightblue" stroke="midnightblue" points="585.94,-153.99 595.28,-149 584.87,-147.08 585.94,-153.99"/>
</g>
<!-- Node16 -->
<g id="node16" class="node">
<title>Node16</title>
<g id="a_node16"><a xlink:href="namespacempi__utilities.html#a3b0349e5ec825e14083e3126c3e7ba65" target="_top" xlink:title="Adds, removes or sets to active a rank from the waiting list for a lock and returns the lock waiting ...">
<polygon fill="white" stroke="black" points="595.5,-28.9 595.5,-62.9 714.5,-62.9 714.5,-28.9 595.5,-28.9"/>
<text text-anchor="start" x="603.5" y="-49.3" font-family="Ubuntu Mono" font-size="12.00">mpi_utilities::lock</text>
<text text-anchor="middle" x="655" y="-36.3" font-family="Ubuntu Mono" font-size="12.00">_wl_change</text>
</a>
</g>
</g>
<!-- Node11&#45;&gt;Node16 -->
<g id="edge21" class="edge">
<title>Node11&#45;&gt;Node16</title>
<path fill="none" stroke="midnightblue" d="M494.07,-152.74C509.83,-143.82 528.32,-132.04 543,-118.9 562.34,-101.58 557.96,-88.11 579,-72.9 581.5,-71.09 584.13,-69.4 586.85,-67.8"/>
<polygon fill="midnightblue" stroke="midnightblue" points="588.6,-70.84 595.81,-63.07 585.33,-64.65 588.6,-70.84"/>
</g>
<!-- Node18 -->
<g id="node18" class="node">
<title>Node18</title>
<g id="a_node18"><a xlink:href="namespacempi__utilities.html#a74e2e82b561f403ca8087c3925f76e29" target="_top" xlink:title="Decides whether a waiting list is empty.">
<polygon fill="white" stroke="black" points="579,-82.4 579,-103.4 731,-103.4 731,-82.4 579,-82.4"/>
<text text-anchor="middle" x="655" y="-89.8" font-family="Ubuntu Mono" font-size="12.00">mpi_utilities::wl_empty</text>
</a>
</g>
</g>
<!-- Node11&#45;&gt;Node18 -->
<g id="edge24" class="edge">
<title>Node11&#45;&gt;Node18</title>
<path fill="none" stroke="midnightblue" d="M491.98,-152.75C515.46,-140.46 548.6,-124.15 579,-112.9 585.37,-110.54 592.14,-108.34 598.9,-106.32"/>
<polygon fill="midnightblue" stroke="midnightblue" points="600.11,-109.61 608.75,-103.49 598.18,-102.88 600.11,-109.61"/>
</g>
<!-- Node12&#45;&gt;Node13 -->
<g id="edge15" class="edge">
<title>Node12&#45;&gt;Node13</title>
<path fill="none" stroke="midnightblue" d="M714.55,-185.34C737.73,-182.35 764.55,-178.89 788.66,-175.78"/>
<polygon fill="midnightblue" stroke="midnightblue" points="789.33,-179.22 798.8,-174.47 788.44,-172.28 789.33,-179.22"/>
</g>
<!-- Node13&#45;&gt;Node9 -->
<g id="edge16" class="edge">
<title>Node13&#45;&gt;Node9</title>
<path fill="none" stroke="midnightblue" d="M888.25,-184.09C923.45,-205.13 982.59,-240.49 1016.82,-260.95"/>
<polygon fill="midnightblue" stroke="midnightblue" points="1015.39,-264.18 1025.77,-266.3 1018.99,-258.17 1015.39,-264.18"/>
</g>
<!-- Node14 -->
<g id="node14" class="node">
<title>Node14</title>
<g id="a_node14"><a xlink:href="namespacestr__utilities.html#acb8c4e66aead51f178e47fdea8d7a7db" target="_top" xlink:title="Convert an integer to string.">
<polygon fill="white" stroke="black" points="986,-156.4 986,-177.4 1103,-177.4 1103,-156.4 986,-156.4"/>
<text text-anchor="middle" x="1044.5" y="-163.8" font-family="Ubuntu Mono" font-size="12.00">str_utilities::ii2str</text>
</a>
</g>
</g>
<!-- Node13&#45;&gt;Node14 -->
<g id="edge17" class="edge">
<title>Node13&#45;&gt;Node14</title>
<path fill="none" stroke="midnightblue" d="M918.22,-166.9C936.59,-166.9 957,-166.9 975.92,-166.9"/>
<polygon fill="midnightblue" stroke="midnightblue" points="975.96,-170.4 985.96,-166.9 975.96,-163.4 975.96,-170.4"/>
</g>
<!-- Node15&#45;&gt;Node13 -->
<g id="edge20" class="edge">
<title>Node15&#45;&gt;Node13</title>
<path fill="none" stroke="midnightblue" d="M714.55,-147.75C737.73,-150.85 764.55,-154.45 788.66,-157.67"/>
<polygon fill="midnightblue" stroke="midnightblue" points="788.42,-161.18 798.8,-159.03 789.35,-154.24 788.42,-161.18"/>
</g>
<!-- Node16&#45;&gt;Node13 -->
<g id="edge22" class="edge">
<title>Node16&#45;&gt;Node13</title>
<path fill="none" stroke="midnightblue" d="M709.7,-63.04C717.01,-66 724.29,-69.3 731,-72.9 767.83,-92.65 805.74,-122.29 830.33,-143"/>
<polygon fill="midnightblue" stroke="midnightblue" points="828.26,-145.83 838.14,-149.65 832.8,-140.5 828.26,-145.83"/>
</g>
<!-- Node17 -->
<g id="node17" class="node">
<title>Node17</title>
<g id="a_node17"><a xlink:href="namespacestr__utilities.html#ac778d706b2e021672618939ab58fdd32" target="_top" xlink:title="Convert a real (double) to string.">
<polygon fill="white" stroke="black" points="798,-35.4 798,-56.4 919,-56.4 919,-35.4 798,-35.4"/>
<text text-anchor="middle" x="858.5" y="-42.8" font-family="Ubuntu Mono" font-size="12.00">str_utilities::r2strt</text>
</a>
</g>
</g>
<!-- Node16&#45;&gt;Node17 -->
<g id="edge23" class="edge">
<title>Node16&#45;&gt;Node17</title>
<path fill="none" stroke="midnightblue" d="M714.55,-45.9C737.43,-45.9 763.85,-45.9 787.7,-45.9"/>
<polygon fill="midnightblue" stroke="midnightblue" points="787.75,-49.4 797.75,-45.9 787.75,-42.4 787.75,-49.4"/>
</g>
<!-- Node19&#45;&gt;Node13 -->
<g id="edge26" class="edge">
<title>Node19&#45;&gt;Node13</title>
<path fill="none" stroke="midnightblue" d="M480.19,-75.68C502.42,-57.48 540.53,-29.93 579,-18.9 643.94,-0.29 670.42,11.01 731,-18.9 754.59,-30.55 750.21,-45.64 767,-65.9 789.15,-92.62 815.8,-122.06 834.43,-142.23"/>
<polygon fill="midnightblue" stroke="midnightblue" points="832.02,-144.79 841.39,-149.74 837.16,-140.03 832.02,-144.79"/>
</g>
<!-- Node19&#45;&gt;Node15 -->
<g id="edge27" class="edge">
<title>Node19&#45;&gt;Node15</title>
<path fill="none" stroke="midnightblue" d="M519.08,-107.13C540.01,-112.21 563.78,-117.99 585.48,-123.26"/>
<polygon fill="midnightblue" stroke="midnightblue" points="584.74,-126.68 595.28,-125.64 586.39,-119.88 584.74,-126.68"/>
</g>
<!-- Node19&#45;&gt;Node16 -->
<g id="edge28" class="edge">
<title>Node19&#45;&gt;Node16</title>
<path fill="none" stroke="midnightblue" d="M519.08,-78.67C540.01,-73.59 563.78,-67.81 585.48,-62.54"/>
<polygon fill="midnightblue" stroke="midnightblue" points="586.39,-65.92 595.28,-60.16 584.74,-59.12 586.39,-65.92"/>
</g>
<!-- Node19&#45;&gt;Node18 -->
<g id="edge29" class="edge">
<title>Node19&#45;&gt;Node18</title>
<path fill="none" stroke="midnightblue" d="M519.08,-92.9C534.65,-92.9 551.79,-92.9 568.47,-92.9"/>
<polygon fill="midnightblue" stroke="midnightblue" points="568.79,-96.4 578.79,-92.9 568.79,-89.4 568.79,-96.4"/>
</g>
</g>
</svg>
