<?xml version="1.0" encoding="UTF-8" standalone="no"?>
<!DOCTYPE svg PUBLIC "-//W3C//DTD SVG 1.1//EN"
 "http://www.w3.org/Graphics/SVG/1.1/DTD/svg11.dtd">
<!-- Generated by graphviz version 2.38.0 (20140413.2041)
 -->
<!-- Title: eq_ops::calc_eq::calc_eq_1 Pages: 1 -->
<svg width="694pt" height="148pt"
 viewBox="0.00 0.00 694.00 148.00" xmlns="http://www.w3.org/2000/svg" xmlns:xlink="http://www.w3.org/1999/xlink">
<g id="graph0" class="graph" transform="scale(1 1) rotate(0) translate(4 144)">
<title>eq_ops::calc_eq::calc_eq_1</title>
<polygon fill="white" stroke="none" points="-4,4 -4,-144 690,-144 690,4 -4,4"/>
<!-- Node0 -->
<g id="node1" class="node"><title>Node0</title>
<polygon fill="#bfbfbf" stroke="black" points="0,-59.5 0,-80.5 173,-80.5 173,-59.5 0,-59.5"/>
<text text-anchor="middle" x="86.5" y="-66.9" font-family="Ubuntu Mono" font-size="12.00">eq_ops::calc_eq::calc_eq_1</text>
</g>
<!-- Node1 -->
<g id="node2" class="node"><title>Node1</title>
<g id="a_node2"><a xlink:href="namespacenum__utilities.html#ac827c18dd05a9b5a06675eac942f3b51" target="_top" xlink:title="Returns derivatives of certain order. ">
<polygon fill="white" stroke="black" points="209,-118.5 209,-139.5 352,-139.5 352,-118.5 209,-118.5"/>
<text text-anchor="middle" x="280.5" y="-125.9" font-family="Ubuntu Mono" font-size="12.00">num_utilities::derivs</text>
</a>
</g>
</g>
<!-- Node0&#45;&gt;Node1 -->
<g id="edge1" class="edge"><title>Node0&#45;&gt;Node1</title>
<path fill="none" stroke="midnightblue" d="M121.826,-80.548C153.535,-90.2921 200.814,-104.82 235.328,-115.426"/>
<polygon fill="midnightblue" stroke="midnightblue" points="234.561,-118.852 245.148,-118.444 236.618,-112.161 234.561,-118.852"/>
</g>
<!-- Node2 -->
<g id="node3" class="node"><title>Node2</title>
<g id="a_node3"><a xlink:href="namespacemessages.html#aa4a8d01563e92558e8a0875b075ec54c" target="_top" xlink:title="Write output to file identified by output_i. ">
<polygon fill="white" stroke="black" points="388,-59.5 388,-80.5 495,-80.5 495,-59.5 388,-59.5"/>
<text text-anchor="middle" x="441.5" y="-66.9" font-family="Ubuntu Mono" font-size="12.00">messages::writo</text>
</a>
</g>
</g>
<!-- Node0&#45;&gt;Node2 -->
<g id="edge2" class="edge"><title>Node0&#45;&gt;Node2</title>
<path fill="none" stroke="midnightblue" d="M173.129,-70.7931C185.173,-70.8789 197.398,-70.9523 209,-71 272.555,-71.2615 288.445,-71.3591 352,-71 360.283,-70.9532 369.002,-70.8818 377.605,-70.7982"/>
<polygon fill="midnightblue" stroke="midnightblue" points="377.656,-74.2979 387.62,-70.6952 377.584,-67.2983 377.656,-74.2979"/>
</g>
<!-- Node5 -->
<g id="node6" class="node"><title>Node5</title>
<g id="a_node6"><a xlink:href="namespacemessages.html#a6e6bfb084063e4cc91ee86e542043302" target="_top" xlink:title="Increases/decreases lvl of output. ">
<polygon fill="white" stroke="black" points="224,-40.5 224,-61.5 337,-61.5 337,-40.5 224,-40.5"/>
<text text-anchor="middle" x="280.5" y="-47.9" font-family="Ubuntu Mono" font-size="12.00">messages::lvl_ud</text>
</a>
</g>
</g>
<!-- Node0&#45;&gt;Node5 -->
<g id="edge5" class="edge"><title>Node0&#45;&gt;Node5</title>
<path fill="none" stroke="midnightblue" d="M173.112,-61.528C186.684,-60.1849 200.536,-58.8142 213.566,-57.5247"/>
<polygon fill="midnightblue" stroke="midnightblue" points="214.212,-60.978 223.819,-56.5101 213.523,-54.012 214.212,-60.978"/>
</g>
<!-- Node6 -->
<g id="node7" class="node"><title>Node6</title>
<g id="a_node7"><a xlink:href="namespacestr__utilities.html#a0b97e51770725a3e98ed393d26681414" target="_top" xlink:title="Convert an integer to string. ">
<polygon fill="white" stroke="black" points="212,-0.5 212,-21.5 349,-21.5 349,-0.5 212,-0.5"/>
<text text-anchor="middle" x="280.5" y="-7.9" font-family="Ubuntu Mono" font-size="12.00">str_utilities::i2str</text>
</a>
</g>
</g>
<!-- Node0&#45;&gt;Node6 -->
<g id="edge7" class="edge"><title>Node0&#45;&gt;Node6</title>
<path fill="none" stroke="midnightblue" d="M119.384,-59.437C143.837,-51.4157 178.463,-40.2296 209,-31 216.282,-28.799 224.009,-26.535 231.575,-24.3575"/>
<polygon fill="midnightblue" stroke="midnightblue" points="232.725,-27.6693 241.379,-21.5574 230.802,-20.9385 232.725,-27.6693"/>
</g>
<!-- Node3 -->
<g id="node4" class="node"><title>Node3</title>
<g id="a_node4"><a xlink:href="namespacemessages.html#a82dddaab795b78b3d39e1ff1aab2f665" target="_top" xlink:title="Returns the memory usage in kilobytes. ">
<polygon fill="white" stroke="black" points="531,-79.5 531,-100.5 686,-100.5 686,-79.5 531,-79.5"/>
<text text-anchor="middle" x="608.5" y="-86.9" font-family="Ubuntu Mono" font-size="12.00">messages::get_mem_usage</text>
</a>
</g>
</g>
<!-- Node2&#45;&gt;Node3 -->
<g id="edge3" class="edge"><title>Node2&#45;&gt;Node3</title>
<path fill="none" stroke="midnightblue" d="M495.161,-76.3831C503.452,-77.3881 512.208,-78.4495 521.025,-79.5182"/>
<polygon fill="midnightblue" stroke="midnightblue" points="520.635,-82.9965 530.984,-80.7253 521.478,-76.0474 520.635,-82.9965"/>
</g>
<!-- Node4 -->
<g id="node5" class="node"><title>Node4</title>
<g id="a_node5"><a xlink:href="namespacemessages.html#a61fd0b51b5e37d58fdc993c01792a3fd" target="_top" xlink:title="Returns the time. ">
<polygon fill="white" stroke="black" points="543,-39.5 543,-60.5 674,-60.5 674,-39.5 543,-39.5"/>
<text text-anchor="middle" x="608.5" y="-46.9" font-family="Ubuntu Mono" font-size="12.00">messages::get_clock</text>
</a>
</g>
</g>
<!-- Node2&#45;&gt;Node4 -->
<g id="edge4" class="edge"><title>Node2&#45;&gt;Node4</title>
<path fill="none" stroke="midnightblue" d="M495.161,-63.6169C507.142,-62.1646 520.094,-60.5947 532.797,-59.0549"/>
<polygon fill="midnightblue" stroke="midnightblue" points="533.402,-62.5073 542.908,-57.8293 532.56,-55.5581 533.402,-62.5073"/>
</g>
<!-- Node5&#45;&gt;Node2 -->
<g id="edge6" class="edge"><title>Node5&#45;&gt;Node2</title>
<path fill="none" stroke="midnightblue" d="M337.11,-57.6453C350.241,-59.2144 364.33,-60.898 377.752,-62.5018"/>
<polygon fill="midnightblue" stroke="midnightblue" points="377.514,-65.9982 387.859,-63.7096 378.345,-59.0477 377.514,-65.9982"/>
</g>
</g>
</svg>
