<?xml version="1.0" encoding="UTF-8" standalone="no"?>
<!DOCTYPE svg PUBLIC "-//W3C//DTD SVG 1.1//EN"
 "http://www.w3.org/Graphics/SVG/1.1/DTD/svg11.dtd">
<!-- Generated by graphviz version 2.43.0 (0)
 -->
<!-- Title: num_utilities::calc_inv::calc_inv_3d Pages: 1 -->
<svg width="306pt" height="70pt"
 viewBox="0.00 0.00 306.00 70.00" xmlns="http://www.w3.org/2000/svg" xmlns:xlink="http://www.w3.org/1999/xlink">
<g id="graph0" class="graph" transform="scale(1 1) rotate(0) translate(4 66)">
<title>num_utilities::calc_inv::calc_inv_3d</title>
<polygon fill="white" stroke="transparent" points="-4,4 -4,-66 302,-66 302,4 -4,4"/>
<!-- Node1 -->
<g id="node1" class="node">
<title>Node1</title>
<g id="a_node1"><a xlink:title="array version">
<polygon fill="#bfbfbf" stroke="black" points="0,-14 0,-48 123,-48 123,-14 0,-14"/>
<text text-anchor="start" x="8" y="-34.4" font-family="Ubuntu Mono" font-size="12.00">num_utilities::calc</text>
<text text-anchor="middle" x="61.5" y="-21.4" font-family="Ubuntu Mono" font-size="12.00">_inv::calc_inv_3d</text>
</a>
</g>
</g>
<!-- Node2 -->
<g id="node2" class="node">
<title>Node2</title>
<g id="a_node2"><a xlink:href="namespacenum__utilities.html#a5ee3fbd1fe67d0deefc7194631389f2a" target="_top" xlink:title="Convert 2&#45;D coordinates (i,j) to the storage convention used in matrices.">
<polygon fill="white" stroke="black" points="175.5,-40.5 175.5,-61.5 281.5,-61.5 281.5,-40.5 175.5,-40.5"/>
<text text-anchor="middle" x="228.5" y="-47.9" font-family="Ubuntu Mono" font-size="12.00">num_utilities::c</text>
</a>
</g>
</g>
<!-- Node1&#45;&gt;Node2 -->
<g id="edge1" class="edge">
<title>Node1&#45;&gt;Node2</title>
<path fill="none" stroke="midnightblue" d="M123,-38.33C136.84,-40.01 151.57,-41.8 165.48,-43.48"/>
<polygon fill="midnightblue" stroke="midnightblue" points="165.08,-46.96 175.43,-44.69 165.92,-40.01 165.08,-46.96"/>
</g>
<!-- Node3 -->
<g id="node3" class="node">
<title>Node3</title>
<g id="a_node3"><a xlink:href="namespacenum__utilities.html#a4e6994b5c92b3d16c8538b54db0beadd" target="_top" xlink:title="Determines whether a matrix making use of the storage convention in eq_vars.eq_2_type is symmetric or...">
<polygon fill="white" stroke="black" points="159,-0.5 159,-21.5 298,-21.5 298,-0.5 159,-0.5"/>
<text text-anchor="middle" x="228.5" y="-7.9" font-family="Ubuntu Mono" font-size="12.00">num_utilities::is_sym</text>
</a>
</g>
</g>
<!-- Node1&#45;&gt;Node3 -->
<g id="edge2" class="edge">
<title>Node1&#45;&gt;Node3</title>
<path fill="none" stroke="midnightblue" d="M123,-23.67C131.4,-22.65 140.12,-21.59 148.79,-20.54"/>
<polygon fill="midnightblue" stroke="midnightblue" points="149.41,-23.99 158.92,-19.31 148.57,-17.04 149.41,-23.99"/>
</g>
</g>
</svg>
