<?xml version="1.0" encoding="UTF-8" standalone="no"?>
<!DOCTYPE svg PUBLIC "-//W3C//DTD SVG 1.1//EN"
 "http://www.w3.org/Graphics/SVG/1.1/DTD/svg11.dtd">
<!-- Generated by graphviz version 14.1.2 (20260124.0452)
 -->
<!-- Title: num_utilities::calc_int::calc_int_eqd Pages: 1 -->
<svg width="310pt" height="53pt"
 viewBox="0.00 0.00 310.00 53.00" xmlns="http://www.w3.org/2000/svg" xmlns:xlink="http://www.w3.org/1999/xlink">
<g id="graph0" class="graph" transform="scale(1 1) rotate(0) translate(4 49.12)">
<title>num_utilities::calc_int::calc_int_eqd</title>
<!-- Node1 -->
<g id="Node000001" class="node">
<title>Node1</title>
<g id="a_Node000001"><a xlink:title="equidistant version">
<polygon fill="#999999" stroke="#666666" points="130,-33.5 0,-33.5 0,0 130,0 130,-33.5"/>
<text xml:space="preserve" text-anchor="start" x="8" y="-18.1" font-family="Ubuntu Mono" font-size="12.00">num_utilities::calc</text>
<text xml:space="preserve" text-anchor="middle" x="65" y="-5.35" font-family="Ubuntu Mono" font-size="12.00">_int::calc_int_eqd</text>
</a>
</g>
</g>
<!-- Node2 -->
<g id="Node000002" class="node">
<title>Node2</title>
<g id="a_Node000002"><a xlink:href="namespacestr__utilities.html#a0b97e51770725a3e98ed393d26681414" target="_top" xlink:title="Convert an integer to string.">
<polygon fill="white" stroke="#666666" points="302,-27.12 166,-27.12 166,-6.38 302,-6.38 302,-27.12"/>
<text xml:space="preserve" text-anchor="middle" x="234" y="-11.72" font-family="Ubuntu Mono" font-size="12.00">str_utilities::i2str</text>
</a>
</g>
</g>
<!-- Node1&#45;&gt;Node2 -->
<g id="edge1_Node000001_Node000002" class="edge">
<title>Node1&#45;&gt;Node2</title>
<g id="a_edge1_Node000001_Node000002"><a xlink:title=" ">
<path fill="none" stroke="#63b8ff" d="M130.09,-16.75C138.03,-16.75 146.22,-16.75 154.34,-16.75"/>
<polygon fill="#63b8ff" stroke="#63b8ff" points="154.25,-20.25 164.25,-16.75 154.25,-13.25 154.25,-20.25"/>
</a>
</g>
</g>
<!-- Node2&#45;&gt;Node2 -->
<g id="edge2_Node000002_Node000002" class="edge">
<title>Node2&#45;&gt;Node2</title>
<g id="a_edge2_Node000002_Node000002"><a xlink:title=" ">
<path fill="none" stroke="#63b8ff" d="M206.77,-27.52C195.88,-36.18 204.95,-45.12 234,-45.12 249.89,-45.12 259.8,-42.45 263.74,-38.61"/>
<polygon fill="#63b8ff" stroke="#63b8ff" points="267.18,-37.98 261.57,-29 260.36,-39.52 267.18,-37.98"/>
</a>
</g>
</g>
</g>
</svg>
