<?xml version="1.0" encoding="UTF-8" standalone="no"?>
<!DOCTYPE svg PUBLIC "-//W3C//DTD SVG 1.1//EN"
 "http://www.w3.org/Graphics/SVG/1.1/DTD/svg11.dtd">
<!-- Generated by graphviz version 2.43.0 (0)
 -->
<!-- Title: eq_ops::calc_jac_h::calc_jac_h_ind Pages: 1 -->
<svg width="305pt" height="84pt"
 viewBox="0.00 0.00 305.00 83.50" xmlns="http://www.w3.org/2000/svg" xmlns:xlink="http://www.w3.org/1999/xlink">
<g id="graph0" class="graph" transform="scale(1 1) rotate(0) translate(4 79.5)">
<title>eq_ops::calc_jac_h::calc_jac_h_ind</title>
<polygon fill="white" stroke="transparent" points="-4,4 -4,-79.5 301,-79.5 301,4 -4,4"/>
<!-- Node1 -->
<g id="node1" class="node">
<title>Node1</title>
<g id="a_node1"><a xlink:title="individual version">
<polygon fill="#bfbfbf" stroke="black" points="0,-17 0,-51 127,-51 127,-17 0,-17"/>
<text text-anchor="start" x="8" y="-37.4" font-family="Ubuntu Mono" font-size="12.00">eq_ops::calc_jac_h</text>
<text text-anchor="middle" x="63.5" y="-24.4" font-family="Ubuntu Mono" font-size="12.00">::calc_jac_h_ind</text>
</a>
</g>
</g>
<!-- Node2 -->
<g id="node2" class="node">
<title>Node2</title>
<g id="a_node2"><a xlink:href="namespacenum__utilities.html#a00f4cfe18a734eaa5d66f529e52f7c31" target="_top" xlink:title="checks whether the derivatives requested for a certain subroutine are valid">
<polygon fill="white" stroke="black" points="163,-41 163,-75 297,-75 297,-41 163,-41"/>
<text text-anchor="start" x="171" y="-61.4" font-family="Ubuntu Mono" font-size="12.00">num_utilities::check</text>
<text text-anchor="middle" x="230" y="-48.4" font-family="Ubuntu Mono" font-size="12.00">_deriv</text>
</a>
</g>
</g>
<!-- Node1&#45;&gt;Node2 -->
<g id="edge1" class="edge">
<title>Node1&#45;&gt;Node2</title>
<path fill="none" stroke="midnightblue" d="M127.16,-43.14C135.58,-44.37 144.29,-45.64 152.91,-46.9"/>
<polygon fill="midnightblue" stroke="midnightblue" points="152.56,-50.38 162.96,-48.36 153.57,-43.46 152.56,-50.38"/>
</g>
<!-- Node3 -->
<g id="node3" class="node">
<title>Node3</title>
<g id="a_node3"><a xlink:href="namespacestr__utilities.html#a0b97e51770725a3e98ed393d26681414" target="_top" xlink:title="Convert an integer to string.">
<polygon fill="white" stroke="black" points="173,-0.5 173,-21.5 287,-21.5 287,-0.5 173,-0.5"/>
<text text-anchor="middle" x="230" y="-7.9" font-family="Ubuntu Mono" font-size="12.00">str_utilities::i2str</text>
</a>
</g>
</g>
<!-- Node1&#45;&gt;Node3 -->
<g id="edge2" class="edge">
<title>Node1&#45;&gt;Node3</title>
<path fill="none" stroke="midnightblue" d="M127.16,-25.24C138.82,-23.61 151.03,-21.9 162.79,-20.26"/>
<polygon fill="midnightblue" stroke="midnightblue" points="163.56,-23.68 172.98,-18.83 162.59,-16.75 163.56,-23.68"/>
</g>
</g>
</svg>
