<?xml version="1.0" encoding="UTF-8" standalone="no"?>
<!DOCTYPE svg PUBLIC "-//W3C//DTD SVG 1.1//EN"
 "http://www.w3.org/Graphics/SVG/1.1/DTD/svg11.dtd">
<!-- Generated by graphviz version 2.43.0 (0)
 -->
<!-- Title: x_ops::redistribute_output_x::redistribute_output_x_2 Pages: 1 -->
<svg width="751pt" height="128pt"
 viewBox="0.00 0.00 751.00 128.00" xmlns="http://www.w3.org/2000/svg" xmlns:xlink="http://www.w3.org/1999/xlink">
<g id="graph0" class="graph" transform="scale(1 1) rotate(0) translate(4 124)">
<title>x_ops::redistribute_output_x::redistribute_output_x_2</title>
<polygon fill="white" stroke="transparent" points="-4,4 -4,-124 747,-124 747,4 -4,4"/>
<!-- Node1 -->
<g id="node1" class="node">
<title>Node1</title>
<g id="a_node1"><a xlink:title="metric version">
<polygon fill="#bfbfbf" stroke="black" points="0,-26.5 0,-73.5 150,-73.5 150,-26.5 0,-26.5"/>
<text text-anchor="start" x="8" y="-59.9" font-family="Ubuntu Mono" font-size="12.00">x_ops::redistribute</text>
<text text-anchor="start" x="8" y="-46.9" font-family="Ubuntu Mono" font-size="12.00">_output_x::redistribute</text>
<text text-anchor="middle" x="75" y="-33.9" font-family="Ubuntu Mono" font-size="12.00">_output_x_2</text>
</a>
</g>
</g>
<!-- Node2 -->
<g id="node2" class="node">
<title>Node2</title>
<g id="a_node2"><a xlink:href="namespacemessages.html#a6e6bfb084063e4cc91ee86e542043302" target="_top" xlink:title="Increases/decreases lvl of output.">
<polygon fill="white" stroke="black" points="221,-78.5 221,-99.5 339,-99.5 339,-78.5 221,-78.5"/>
<text text-anchor="middle" x="280" y="-85.9" font-family="Ubuntu Mono" font-size="12.00">messages::lvl_ud</text>
</a>
</g>
</g>
<!-- Node1&#45;&gt;Node2 -->
<g id="edge1" class="edge">
<title>Node1&#45;&gt;Node2</title>
<path fill="none" stroke="midnightblue" d="M150.15,-64.25C171.17,-68.28 193.89,-72.65 214.31,-76.57"/>
<polygon fill="midnightblue" stroke="midnightblue" points="213.65,-80.01 224.13,-78.46 214.97,-73.13 213.65,-80.01"/>
</g>
<!-- Node3 -->
<g id="node3" class="node">
<title>Node3</title>
<g id="a_node3"><a xlink:href="namespacemessages.html#aa4a8d01563e92558e8a0875b075ec54c" target="_top" xlink:title="Write output to file identified by output_i.">
<polygon fill="white" stroke="black" points="410,-58.5 410,-79.5 524,-79.5 524,-58.5 410,-58.5"/>
<text text-anchor="middle" x="467" y="-65.9" font-family="Ubuntu Mono" font-size="12.00">messages::writo</text>
</a>
</g>
</g>
<!-- Node1&#45;&gt;Node3 -->
<g id="edge7" class="edge">
<title>Node1&#45;&gt;Node3</title>
<path fill="none" stroke="midnightblue" d="M150.27,-53.62C222.27,-57.13 330.47,-62.4 399.65,-65.77"/>
<polygon fill="midnightblue" stroke="midnightblue" points="399.83,-69.28 409.99,-66.27 400.17,-62.29 399.83,-69.28"/>
</g>
<!-- Node7 -->
<g id="node7" class="node">
<title>Node7</title>
<g id="a_node7"><a xlink:href="namespacempi__utilities.html#a128702990bd5fddc582e8fabcffc82b2" target="_top" xlink:title="Redistribute variables according to new limits.">
<polygon fill="white" stroke="black" points="186,-0.5 186,-21.5 374,-21.5 374,-0.5 186,-0.5"/>
<text text-anchor="middle" x="280" y="-7.9" font-family="Ubuntu Mono" font-size="12.00">mpi_utilities::redistribute_var</text>
</a>
</g>
</g>
<!-- Node1&#45;&gt;Node7 -->
<g id="edge6" class="edge">
<title>Node1&#45;&gt;Node7</title>
<path fill="none" stroke="midnightblue" d="M150.15,-35.75C171.17,-31.72 193.89,-27.35 214.31,-23.43"/>
<polygon fill="midnightblue" stroke="midnightblue" points="214.97,-26.87 224.13,-21.54 213.65,-19.99 214.97,-26.87"/>
</g>
<!-- Node2&#45;&gt;Node3 -->
<g id="edge2" class="edge">
<title>Node2&#45;&gt;Node3</title>
<path fill="none" stroke="midnightblue" d="M339.03,-82.73C358.25,-80.65 379.79,-78.32 399.59,-76.18"/>
<polygon fill="midnightblue" stroke="midnightblue" points="400.2,-79.63 409.76,-75.08 399.44,-72.68 400.2,-79.63"/>
</g>
<!-- Node4 -->
<g id="node4" class="node">
<title>Node4</title>
<g id="a_node4"><a xlink:href="namespacemessages.html#a61fd0b51b5e37d58fdc993c01792a3fd" target="_top" xlink:title="Returns the time.">
<polygon fill="white" stroke="black" points="581.5,-98.5 581.5,-119.5 721.5,-119.5 721.5,-98.5 581.5,-98.5"/>
<text text-anchor="middle" x="651.5" y="-105.9" font-family="Ubuntu Mono" font-size="12.00">messages::get_clock</text>
</a>
</g>
</g>
<!-- Node3&#45;&gt;Node4 -->
<g id="edge3" class="edge">
<title>Node3&#45;&gt;Node4</title>
<path fill="none" stroke="midnightblue" d="M515.95,-79.51C539.43,-84.66 567.9,-90.9 592.59,-96.31"/>
<polygon fill="midnightblue" stroke="midnightblue" points="592.04,-99.77 602.55,-98.49 593.54,-92.93 592.04,-99.77"/>
</g>
<!-- Node5 -->
<g id="node5" class="node">
<title>Node5</title>
<g id="a_node5"><a xlink:href="namespacemessages.html#a82dddaab795b78b3d39e1ff1aab2f665" target="_top" xlink:title="Returns the memory usage in kilobytes.">
<polygon fill="white" stroke="black" points="560,-58.5 560,-79.5 743,-79.5 743,-58.5 560,-58.5"/>
<text text-anchor="middle" x="651.5" y="-65.9" font-family="Ubuntu Mono" font-size="12.00">messages::get_mem_usage</text>
</a>
</g>
</g>
<!-- Node3&#45;&gt;Node5 -->
<g id="edge4" class="edge">
<title>Node3&#45;&gt;Node5</title>
<path fill="none" stroke="midnightblue" d="M524.25,-69C532.37,-69 540.94,-69 549.63,-69"/>
<polygon fill="midnightblue" stroke="midnightblue" points="549.86,-72.5 559.86,-69 549.86,-65.5 549.86,-72.5"/>
</g>
<!-- Node6 -->
<g id="node6" class="node">
<title>Node6</title>
<g id="a_node6"><a xlink:href="namespacestr__utilities.html#a0b97e51770725a3e98ed393d26681414" target="_top" xlink:title="Convert an integer to string.">
<polygon fill="white" stroke="black" points="594.5,-18.5 594.5,-39.5 708.5,-39.5 708.5,-18.5 594.5,-18.5"/>
<text text-anchor="middle" x="651.5" y="-25.9" font-family="Ubuntu Mono" font-size="12.00">str_utilities::i2str</text>
</a>
</g>
</g>
<!-- Node3&#45;&gt;Node6 -->
<g id="edge5" class="edge">
<title>Node3&#45;&gt;Node6</title>
<path fill="none" stroke="midnightblue" d="M515.95,-58.49C539.43,-53.34 567.9,-47.1 592.59,-41.69"/>
<polygon fill="midnightblue" stroke="midnightblue" points="593.54,-45.07 602.55,-39.51 592.04,-38.23 593.54,-45.07"/>
</g>
</g>
</svg>
