<?xml version="1.0" encoding="UTF-8" standalone="no"?>
<!DOCTYPE svg PUBLIC "-//W3C//DTD SVG 1.1//EN"
 "http://www.w3.org/Graphics/SVG/1.1/DTD/svg11.dtd">
<!-- Generated by graphviz version 2.43.0 (0)
 -->
<!-- Title: num_utilities::conv_mat::conv_mat_3d_complex Pages: 1 -->
<svg width="374pt" height="70pt"
 viewBox="0.00 0.00 374.00 70.00" xmlns="http://www.w3.org/2000/svg" xmlns:xlink="http://www.w3.org/1999/xlink">
<g id="graph0" class="graph" transform="scale(1 1) rotate(0) translate(4 66)">
<title>num_utilities::conv_mat::conv_mat_3d_complex</title>
<polygon fill="white" stroke="transparent" points="-4,4 -4,-66 370,-66 370,4 -4,4"/>
<!-- Node1 -->
<g id="node1" class="node">
<title>Node1</title>
<g id="a_node1"><a xlink:title="complex version defined on 3D grid">
<polygon fill="#bfbfbf" stroke="black" points="0,-14 0,-48 191,-48 191,-14 0,-14"/>
<text text-anchor="start" x="8" y="-34.4" font-family="Ubuntu Mono" font-size="12.00">num_utilities::conv</text>
<text text-anchor="middle" x="95.5" y="-21.4" font-family="Ubuntu Mono" font-size="12.00">_mat::conv_mat_3d_complex</text>
</a>
</g>
</g>
<!-- Node2 -->
<g id="node2" class="node">
<title>Node2</title>
<g id="a_node2"><a xlink:href="namespacenum__utilities.html#a5ee3fbd1fe67d0deefc7194631389f2a" target="_top" xlink:title="Convert 2&#45;D coordinates (i,j) to the storage convention used in matrices.">
<polygon fill="white" stroke="black" points="243.5,-40.5 243.5,-61.5 349.5,-61.5 349.5,-40.5 243.5,-40.5"/>
<text text-anchor="middle" x="296.5" y="-47.9" font-family="Ubuntu Mono" font-size="12.00">num_utilities::c</text>
</a>
</g>
</g>
<!-- Node1&#45;&gt;Node2 -->
<g id="edge1" class="edge">
<title>Node1&#45;&gt;Node2</title>
<path fill="none" stroke="midnightblue" d="M191.05,-40.5C205.43,-41.95 219.95,-43.41 233.41,-44.76"/>
<polygon fill="midnightblue" stroke="midnightblue" points="233.17,-48.25 243.47,-45.77 233.87,-41.29 233.17,-48.25"/>
</g>
<!-- Node3 -->
<g id="node3" class="node">
<title>Node3</title>
<g id="a_node3"><a xlink:href="namespacenum__utilities.html#a4e6994b5c92b3d16c8538b54db0beadd" target="_top" xlink:title="Determines whether a matrix making use of the storage convention in eq_vars.eq_2_type is symmetric or...">
<polygon fill="white" stroke="black" points="227,-0.5 227,-21.5 366,-21.5 366,-0.5 227,-0.5"/>
<text text-anchor="middle" x="296.5" y="-7.9" font-family="Ubuntu Mono" font-size="12.00">num_utilities::is_sym</text>
</a>
</g>
</g>
<!-- Node1&#45;&gt;Node3 -->
<g id="edge2" class="edge">
<title>Node1&#45;&gt;Node3</title>
<path fill="none" stroke="midnightblue" d="M191.05,-21.5C199.6,-20.64 208.21,-19.77 216.61,-18.93"/>
<polygon fill="midnightblue" stroke="midnightblue" points="217.13,-22.39 226.73,-17.91 216.43,-15.43 217.13,-22.39"/>
</g>
</g>
</svg>
