<?xml version="1.0" encoding="UTF-8" standalone="no"?>
<!DOCTYPE svg PUBLIC "-//W3C//DTD SVG 1.1//EN"
 "http://www.w3.org/Graphics/SVG/1.1/DTD/svg11.dtd">
<!-- Generated by graphviz version 2.43.0 (0)
 -->
<!-- Title: x_ops::calc_x::calc_x_2 Pages: 1 -->
<svg width="736pt" height="169pt"
 viewBox="0.00 0.00 736.00 169.00" xmlns="http://www.w3.org/2000/svg" xmlns:xlink="http://www.w3.org/1999/xlink">
<g id="graph0" class="graph" transform="scale(1 1) rotate(0) translate(4 165)">
<title>x_ops::calc_x::calc_x_2</title>
<polygon fill="white" stroke="transparent" points="-4,4 -4,-165 732,-165 732,4 -4,4"/>
<!-- Node1 -->
<g id="node1" class="node">
<title>Node1</title>
<g id="a_node1"><a xlink:title="tensorial version">
<polygon fill="#bfbfbf" stroke="black" points="0,-79.5 0,-100.5 152,-100.5 152,-79.5 0,-79.5"/>
<text text-anchor="middle" x="76" y="-86.9" font-family="Ubuntu Mono" font-size="12.00">x_ops::calc_x::calc_x_2</text>
</a>
</g>
</g>
<!-- Node2 -->
<g id="node2" class="node">
<title>Node2</title>
<g id="a_node2"><a xlink:href="namespacex__ops.html#a045e8903230dfa0fb8b89b458d0c8ee2" target="_top" xlink:title="calculate &#160;(pol. flux) or &#160;(tor. flux) at all equilibrium loc_n_r values.">
<polygon fill="white" stroke="black" points="196.5,-139.5 196.5,-160.5 297.5,-160.5 297.5,-139.5 196.5,-139.5"/>
<text text-anchor="middle" x="247" y="-146.9" font-family="Ubuntu Mono" font-size="12.00">x_ops::calc_kv</text>
</a>
</g>
</g>
<!-- Node1&#45;&gt;Node2 -->
<g id="edge1" class="edge">
<title>Node1&#45;&gt;Node2</title>
<path fill="none" stroke="midnightblue" d="M106.17,-100.64C128.54,-108.76 160.18,-120.19 188,-130 193.66,-132 199.64,-134.08 205.53,-136.12"/>
<polygon fill="midnightblue" stroke="midnightblue" points="204.67,-139.53 215.27,-139.49 206.96,-132.92 204.67,-139.53"/>
</g>
<!-- Node5 -->
<g id="node5" class="node">
<title>Node5</title>
<g id="a_node5"><a xlink:href="namespacex__ops.html#a51f3bf0b4c8d688ffbcc3a1adbca9762" target="_top" xlink:title="calculate &#160;(pol. flux) or &#160;(tor. flux) at all equilibrium loc_n_r values.">
<polygon fill="white" stroke="black" points="196,-99.5 196,-120.5 298,-120.5 298,-99.5 196,-99.5"/>
<text text-anchor="middle" x="247" y="-106.9" font-family="Ubuntu Mono" font-size="12.00">x_ops::calc_pv</text>
</a>
</g>
</g>
<!-- Node1&#45;&gt;Node5 -->
<g id="edge4" class="edge">
<title>Node1&#45;&gt;Node5</title>
<path fill="none" stroke="midnightblue" d="M152.11,-98.89C163.33,-100.22 174.78,-101.57 185.65,-102.86"/>
<polygon fill="midnightblue" stroke="midnightblue" points="185.52,-106.37 195.86,-104.07 186.34,-99.42 185.52,-106.37"/>
</g>
<!-- Node6 -->
<g id="node6" class="node">
<title>Node6</title>
<g id="a_node6"><a xlink:href="namespacemessages.html#a6e6bfb084063e4cc91ee86e542043302" target="_top" xlink:title="Increases/decreases lvl of output.">
<polygon fill="white" stroke="black" points="188,-21.5 188,-42.5 306,-42.5 306,-21.5 188,-21.5"/>
<text text-anchor="middle" x="247" y="-28.9" font-family="Ubuntu Mono" font-size="12.00">messages::lvl_ud</text>
</a>
</g>
</g>
<!-- Node1&#45;&gt;Node6 -->
<g id="edge7" class="edge">
<title>Node1&#45;&gt;Node6</title>
<path fill="none" stroke="midnightblue" d="M107.6,-79.5C135.04,-70.08 175.48,-56.2 205.56,-45.88"/>
<polygon fill="midnightblue" stroke="midnightblue" points="207.02,-49.08 215.34,-42.52 204.74,-42.46 207.02,-49.08"/>
</g>
<!-- Node7 -->
<g id="node7" class="node">
<title>Node7</title>
<g id="a_node7"><a xlink:href="namespacemessages.html#aa4a8d01563e92558e8a0875b075ec54c" target="_top" xlink:title="Write output to file identified by output_i.">
<polygon fill="white" stroke="black" points="368.5,-40.5 368.5,-61.5 482.5,-61.5 482.5,-40.5 368.5,-40.5"/>
<text text-anchor="middle" x="425.5" y="-47.9" font-family="Ubuntu Mono" font-size="12.00">messages::writo</text>
</a>
</g>
</g>
<!-- Node1&#45;&gt;Node7 -->
<g id="edge12" class="edge">
<title>Node1&#45;&gt;Node7</title>
<path fill="none" stroke="midnightblue" d="M152.4,-81.54C213.7,-74.66 299.34,-65.05 358.08,-58.45"/>
<polygon fill="midnightblue" stroke="midnightblue" points="358.81,-61.89 368.36,-57.3 358.03,-54.94 358.81,-61.89"/>
</g>
<!-- Node3 -->
<g id="node3" class="node">
<title>Node3</title>
<g id="a_node3"><a xlink:href="namespacenum__utilities.html#a5ee3fbd1fe67d0deefc7194631389f2a" target="_top" xlink:title="Convert 2&#45;D coordinates (i,j) to the storage convention used in matrices.">
<polygon fill="white" stroke="black" points="372.5,-99.5 372.5,-120.5 478.5,-120.5 478.5,-99.5 372.5,-99.5"/>
<text text-anchor="middle" x="425.5" y="-106.9" font-family="Ubuntu Mono" font-size="12.00">num_utilities::c</text>
</a>
</g>
</g>
<!-- Node2&#45;&gt;Node3 -->
<g id="edge2" class="edge">
<title>Node2&#45;&gt;Node3</title>
<path fill="none" stroke="midnightblue" d="M294.37,-139.49C316.98,-134.37 344.37,-128.16 368.17,-122.77"/>
<polygon fill="midnightblue" stroke="midnightblue" points="369.15,-126.13 378.13,-120.51 367.6,-119.31 369.15,-126.13"/>
</g>
<!-- Node4 -->
<g id="node4" class="node">
<title>Node4</title>
<g id="a_node4"><a xlink:href="namespacex__utilities.html#a689aca7fedb49c43c5a65a18d557259f" target="_top" xlink:title="Determines whether a variable needs to be considered:">
<polygon fill="white" stroke="black" points="342,-139.5 342,-160.5 509,-160.5 509,-139.5 342,-139.5"/>
<text text-anchor="middle" x="425.5" y="-146.9" font-family="Ubuntu Mono" font-size="12.00">x_utilities::is_necessary_x</text>
</a>
</g>
</g>
<!-- Node2&#45;&gt;Node4 -->
<g id="edge3" class="edge">
<title>Node2&#45;&gt;Node4</title>
<path fill="none" stroke="midnightblue" d="M297.63,-150C308.28,-150 319.86,-150 331.55,-150"/>
<polygon fill="midnightblue" stroke="midnightblue" points="331.83,-153.5 341.83,-150 331.83,-146.5 331.83,-153.5"/>
</g>
<!-- Node5&#45;&gt;Node3 -->
<g id="edge5" class="edge">
<title>Node5&#45;&gt;Node3</title>
<path fill="none" stroke="midnightblue" d="M298.11,-110C318.07,-110 341.27,-110 362.3,-110"/>
<polygon fill="midnightblue" stroke="midnightblue" points="362.42,-113.5 372.42,-110 362.42,-106.5 362.42,-113.5"/>
</g>
<!-- Node5&#45;&gt;Node4 -->
<g id="edge6" class="edge">
<title>Node5&#45;&gt;Node4</title>
<path fill="none" stroke="midnightblue" d="M294.37,-120.51C316.98,-125.63 344.37,-131.84 368.17,-137.23"/>
<polygon fill="midnightblue" stroke="midnightblue" points="367.6,-140.69 378.13,-139.49 369.15,-133.87 367.6,-140.69"/>
</g>
<!-- Node6&#45;&gt;Node7 -->
<g id="edge8" class="edge">
<title>Node6&#45;&gt;Node7</title>
<path fill="none" stroke="midnightblue" d="M306.28,-38.27C322.83,-40.06 340.97,-42.01 357.97,-43.84"/>
<polygon fill="midnightblue" stroke="midnightblue" points="358.06,-47.37 368.38,-44.96 358.81,-40.41 358.06,-47.37"/>
</g>
<!-- Node8 -->
<g id="node8" class="node">
<title>Node8</title>
<g id="a_node8"><a xlink:href="namespacemessages.html#a61fd0b51b5e37d58fdc993c01792a3fd" target="_top" xlink:title="Returns the time.">
<polygon fill="white" stroke="black" points="566.5,-80.5 566.5,-101.5 706.5,-101.5 706.5,-80.5 566.5,-80.5"/>
<text text-anchor="middle" x="636.5" y="-87.9" font-family="Ubuntu Mono" font-size="12.00">messages::get_clock</text>
</a>
</g>
</g>
<!-- Node7&#45;&gt;Node8 -->
<g id="edge9" class="edge">
<title>Node7&#45;&gt;Node8</title>
<path fill="none" stroke="midnightblue" d="M481.41,-61.51C508.78,-66.75 542.06,-73.12 570.68,-78.59"/>
<polygon fill="midnightblue" stroke="midnightblue" points="570.11,-82.05 580.59,-80.49 571.43,-75.17 570.11,-82.05"/>
</g>
<!-- Node9 -->
<g id="node9" class="node">
<title>Node9</title>
<g id="a_node9"><a xlink:href="namespacemessages.html#a82dddaab795b78b3d39e1ff1aab2f665" target="_top" xlink:title="Returns the memory usage in kilobytes.">
<polygon fill="white" stroke="black" points="545,-40.5 545,-61.5 728,-61.5 728,-40.5 545,-40.5"/>
<text text-anchor="middle" x="636.5" y="-47.9" font-family="Ubuntu Mono" font-size="12.00">messages::get_mem_usage</text>
</a>
</g>
</g>
<!-- Node7&#45;&gt;Node9 -->
<g id="edge10" class="edge">
<title>Node7&#45;&gt;Node9</title>
<path fill="none" stroke="midnightblue" d="M482.51,-51C498.48,-51 516.39,-51 534.18,-51"/>
<polygon fill="midnightblue" stroke="midnightblue" points="534.62,-54.5 544.62,-51 534.62,-47.5 534.62,-54.5"/>
</g>
<!-- Node10 -->
<g id="node10" class="node">
<title>Node10</title>
<g id="a_node10"><a xlink:href="namespacestr__utilities.html#a0b97e51770725a3e98ed393d26681414" target="_top" xlink:title="Convert an integer to string.">
<polygon fill="white" stroke="black" points="579.5,-0.5 579.5,-21.5 693.5,-21.5 693.5,-0.5 579.5,-0.5"/>
<text text-anchor="middle" x="636.5" y="-7.9" font-family="Ubuntu Mono" font-size="12.00">str_utilities::i2str</text>
</a>
</g>
</g>
<!-- Node7&#45;&gt;Node10 -->
<g id="edge11" class="edge">
<title>Node7&#45;&gt;Node10</title>
<path fill="none" stroke="midnightblue" d="M481.41,-40.49C508.78,-35.25 542.06,-28.88 570.68,-23.41"/>
<polygon fill="midnightblue" stroke="midnightblue" points="571.43,-26.83 580.59,-21.51 570.11,-19.95 571.43,-26.83"/>
</g>
</g>
</svg>
