<?xml version="1.0" encoding="UTF-8" standalone="no"?>
<!DOCTYPE svg PUBLIC "-//W3C//DTD SVG 1.1//EN"
 "http://www.w3.org/Graphics/SVG/1.1/DTD/svg11.dtd">
<!-- Generated by graphviz version 14.1.2 (20260124.0452)
 -->
<!-- Title: eq_ops::print_output_eq::print_output_eq_2 Pages: 1 -->
<svg width="1058pt" height="290pt"
 viewBox="0.00 0.00 1058.00 290.00" xmlns="http://www.w3.org/2000/svg" xmlns:xlink="http://www.w3.org/1999/xlink">
<g id="graph0" class="graph" transform="scale(1 1) rotate(0) translate(4 285.92)">
<title>eq_ops::print_output_eq::print_output_eq_2</title>
<!-- Node1 -->
<g id="Node000001" class="node">
<title>Node1</title>
<g id="a_Node000001"><a xlink:title="metric version">
<polygon fill="#999999" stroke="#666666" points="148,-239 0,-239 0,-205.5 148,-205.5 148,-239"/>
<text xml:space="preserve" text-anchor="start" x="8" y="-223.6" font-family="Ubuntu Mono" font-size="12.00">eq_ops::print_output</text>
<text xml:space="preserve" text-anchor="middle" x="74" y="-210.85" font-family="Ubuntu Mono" font-size="12.00">_eq::print_output_eq_2</text>
</a>
</g>
</g>
<!-- Node2 -->
<g id="Node000002" class="node">
<title>Node2</title>
<g id="a_Node000002"><a xlink:href="namespacemessages.html#a6e6bfb084063e4cc91ee86e542043302" target="_top" xlink:title="Increases/decreases lvl of output.">
<polygon fill="white" stroke="#666666" points="507,-264.62 395,-264.62 395,-243.87 507,-243.87 507,-264.62"/>
<text xml:space="preserve" text-anchor="middle" x="451" y="-249.22" font-family="Ubuntu Mono" font-size="12.00">messages::lvl_ud</text>
</a>
</g>
</g>
<!-- Node1&#45;&gt;Node2 -->
<g id="edge1_Node000001_Node000002" class="edge">
<title>Node1&#45;&gt;Node2</title>
<g id="a_edge1_Node000001_Node000002"><a xlink:title=" ">
<path fill="none" stroke="#63b8ff" d="M148.19,-228.5C216.5,-234.32 317.53,-242.95 383.57,-248.58"/>
<polygon fill="#63b8ff" stroke="#63b8ff" points="382.89,-252.04 393.15,-249.4 383.49,-245.06 382.89,-252.04"/>
</a>
</g>
</g>
<!-- Node3 -->
<g id="Node000003" class="node">
<title>Node3</title>
<g id="a_Node000003"><a xlink:href="namespacemessages.html#aa4a8d01563e92558e8a0875b075ec54c" target="_top" xlink:title="Write output to file identified by output_i.">
<polygon fill="white" stroke="#666666" points="670,-245.62 564,-245.62 564,-224.87 670,-224.87 670,-245.62"/>
<text xml:space="preserve" text-anchor="middle" x="617" y="-230.22" font-family="Ubuntu Mono" font-size="12.00">messages::writo</text>
</a>
</g>
</g>
<!-- Node1&#45;&gt;Node3 -->
<g id="edge24_Node000001_Node000003" class="edge">
<title>Node1&#45;&gt;Node3</title>
<g id="a_edge24_Node000001_Node000003"><a xlink:title=" ">
<path fill="none" stroke="#63b8ff" d="M131.74,-239.5C216.06,-262.71 379.17,-298.37 516,-273.25 539.63,-268.91 564.9,-259.26 584.13,-250.77"/>
<polygon fill="#63b8ff" stroke="#63b8ff" points="585.4,-254.04 593.05,-246.71 582.49,-247.67 585.4,-254.04"/>
</a>
</g>
</g>
<!-- Node6 -->
<g id="Node000006" class="node">
<title>Node6</title>
<g id="a_Node000006"><a xlink:href="namespacehdf5__ops.html#a2c76f91dc7fb8022ee64b54b4f3b4b52" target="_top" xlink:title="Prints a series of arrays, in the form of an array of pointers, to an HDF5 file.">
<polygon fill="white" stroke="#666666" points="350,-191.62 184,-191.62 184,-170.87 350,-170.87 350,-191.62"/>
<text xml:space="preserve" text-anchor="middle" x="267" y="-176.22" font-family="Ubuntu Mono" font-size="12.00">hdf5_ops::print_hdf5_arrs</text>
</a>
</g>
</g>
<!-- Node1&#45;&gt;Node6 -->
<g id="edge6_Node000001_Node000006" class="edge">
<title>Node1&#45;&gt;Node6</title>
<g id="a_edge6_Node000001_Node000006"><a xlink:title=" ">
<path fill="none" stroke="#63b8ff" d="M148.3,-206.52C166.77,-202.55 186.41,-198.33 204.25,-194.5"/>
<polygon fill="#63b8ff" stroke="#63b8ff" points="204.86,-197.95 213.91,-192.43 203.4,-191.11 204.86,-197.95"/>
</a>
</g>
</g>
<!-- Node14 -->
<g id="Node000014" class="node">
<title>Node14</title>
<g id="a_Node000014"><a xlink:href="namespacegrid__utilities.html#a67001ff9bbcad707aacf17f90a748d90" target="_top" xlink:title="Trim a grid, removing any overlap between the different regions.">
<polygon fill="white" stroke="#666666" points="350,-152.62 184,-152.62 184,-131.87 350,-131.87 350,-152.62"/>
<text xml:space="preserve" text-anchor="middle" x="267" y="-137.22" font-family="Ubuntu Mono" font-size="12.00">grid_utilities::trim_grid</text>
</a>
</g>
</g>
<!-- Node1&#45;&gt;Node14 -->
<g id="edge23_Node000001_Node000014" class="edge">
<title>Node1&#45;&gt;Node14</title>
<g id="a_edge23_Node000001_Node000014"><a xlink:title=" ">
<path fill="none" stroke="#63b8ff" d="M101.36,-205.14C122.86,-191.84 154.41,-173.77 184,-162.25 189.72,-160.02 195.76,-157.99 201.87,-156.15"/>
<polygon fill="#63b8ff" stroke="#63b8ff" points="202.75,-159.54 211.41,-153.45 200.84,-152.8 202.75,-159.54"/>
</a>
</g>
</g>
<!-- Node2&#45;&gt;Node3 -->
<g id="edge2_Node000002_Node000003" class="edge">
<title>Node2&#45;&gt;Node3</title>
<g id="a_edge2_Node000002_Node000003"><a xlink:title=" ">
<path fill="none" stroke="#63b8ff" d="M507.07,-247.87C521.6,-246.19 537.4,-244.36 552.35,-242.62"/>
<polygon fill="#63b8ff" stroke="#63b8ff" points="552.54,-246.12 562.07,-241.5 551.74,-239.17 552.54,-246.12"/>
</a>
</g>
</g>
<!-- Node4 -->
<g id="Node000004" class="node">
<title>Node4</title>
<g id="a_Node000004"><a xlink:href="namespacemessages.html#a82dddaab795b78b3d39e1ff1aab2f665" target="_top" xlink:title="Returns the memory usage in kilobytes.">
<polygon fill="white" stroke="#666666" points="872,-245.62 718,-245.62 718,-224.87 872,-224.87 872,-245.62"/>
<text xml:space="preserve" text-anchor="middle" x="795" y="-230.22" font-family="Ubuntu Mono" font-size="12.00">messages::get_mem_usage</text>
</a>
</g>
</g>
<!-- Node3&#45;&gt;Node4 -->
<g id="edge3_Node000003_Node000004" class="edge">
<title>Node3&#45;&gt;Node4</title>
<g id="a_edge3_Node000003_Node000004"><a xlink:title=" ">
<path fill="none" stroke="#63b8ff" d="M670.33,-235.25C681.73,-235.25 694.1,-235.25 706.45,-235.25"/>
<polygon fill="#63b8ff" stroke="#63b8ff" points="706.26,-238.75 716.25,-235.25 706.25,-231.75 706.26,-238.75"/>
</a>
</g>
</g>
<!-- Node5 -->
<g id="Node000005" class="node">
<title>Node5</title>
<g id="a_Node000005"><a xlink:href="namespacestr__utilities.html#a0b97e51770725a3e98ed393d26681414" target="_top" xlink:title="Convert an integer to string.">
<polygon fill="white" stroke="#666666" points="1047,-139.62 911,-139.62 911,-118.87 1047,-118.87 1047,-139.62"/>
<text xml:space="preserve" text-anchor="middle" x="979" y="-124.22" font-family="Ubuntu Mono" font-size="12.00">str_utilities::i2str</text>
</a>
</g>
</g>
<!-- Node3&#45;&gt;Node5 -->
<g id="edge4_Node000003_Node000005" class="edge">
<title>Node3&#45;&gt;Node5</title>
<g id="a_edge4_Node000003_Node000005"><a xlink:title=" ">
<path fill="none" stroke="#63b8ff" d="M654.83,-224.4C720.54,-205.06 857.89,-164.62 930.56,-143.22"/>
<polygon fill="#63b8ff" stroke="#63b8ff" points="931.16,-146.69 939.77,-140.51 929.18,-139.97 931.16,-146.69"/>
</a>
</g>
</g>
<!-- Node5&#45;&gt;Node5 -->
<g id="edge5_Node000005_Node000005" class="edge">
<title>Node5&#45;&gt;Node5</title>
<g id="a_edge5_Node000005_Node000005"><a xlink:title=" ">
<path fill="none" stroke="#63b8ff" d="M949.35,-140.02C937.49,-148.68 947.38,-157.62 979,-157.62 996.29,-157.62 1007.09,-154.95 1011.38,-151.11"/>
<polygon fill="#63b8ff" stroke="#63b8ff" points="1014.8,-150.37 1009.01,-141.49 1008,-152.04 1014.8,-150.37"/>
</a>
</g>
</g>
<!-- Node6&#45;&gt;Node2 -->
<g id="edge20_Node000006_Node000002" class="edge">
<title>Node6&#45;&gt;Node2</title>
<g id="a_edge20_Node000006_Node000002"><a xlink:title=" ">
<path fill="none" stroke="#63b8ff" d="M293.22,-192.02C317.04,-202.12 353.82,-217.54 386,-230.25 393.74,-233.31 402.04,-236.49 410.02,-239.5"/>
<polygon fill="#63b8ff" stroke="#63b8ff" points="408.6,-242.71 419.19,-242.94 411.05,-236.15 408.6,-242.71"/>
</a>
</g>
</g>
<!-- Node6&#45;&gt;Node3 -->
<g id="edge22_Node000006_Node000003" class="edge">
<title>Node6&#45;&gt;Node3</title>
<g id="a_edge22_Node000006_Node000003"><a xlink:title=" ">
<path fill="none" stroke="#63b8ff" d="M338,-192.11C400.66,-201.83 491.72,-215.96 552.35,-225.37"/>
<polygon fill="#63b8ff" stroke="#63b8ff" points="551.76,-228.82 562.18,-226.9 552.84,-221.91 551.76,-228.82"/>
</a>
</g>
</g>
<!-- Node6&#45;&gt;Node5 -->
<g id="edge7_Node000006_Node000005" class="edge">
<title>Node6&#45;&gt;Node5</title>
<g id="a_edge7_Node000006_Node000005"><a xlink:title=" ">
<path fill="none" stroke="#63b8ff" d="M318.71,-170.38C329.16,-167.73 340.01,-164.66 350,-161.25 366.57,-155.6 368.92,-149.12 386,-145.25 566.08,-104.48 784.83,-113.04 899.38,-121.78"/>
<polygon fill="#63b8ff" stroke="#63b8ff" points="899.05,-125.26 909.3,-122.56 899.6,-118.28 899.05,-125.26"/>
</a>
</g>
</g>
<!-- Node7 -->
<g id="Node000007" class="node">
<title>Node7</title>
<g id="a_Node000007"><a xlink:href="namespacempi__utilities.html#a5a789d05be41d6109c01f46cc98620c8" target="_top" xlink:title="Request access to lock of a BL (blocking) or optionally a NB (non&#45;blocking) type.">
<polygon fill="white" stroke="#666666" points="516,-46 386,-46 386,-12.5 516,-12.5 516,-46"/>
<text xml:space="preserve" text-anchor="start" x="394" y="-30.6" font-family="Ubuntu Mono" font-size="12.00">mpi_utilities::lock</text>
<text xml:space="preserve" text-anchor="middle" x="451" y="-17.85" font-family="Ubuntu Mono" font-size="12.00">_req_acc</text>
</a>
</g>
</g>
<!-- Node6&#45;&gt;Node7 -->
<g id="edge8_Node000006_Node000007" class="edge">
<title>Node6&#45;&gt;Node7</title>
<g id="a_edge8_Node000006_Node000007"><a xlink:title=" ">
<path fill="none" stroke="#63b8ff" d="M336.58,-170.42C341.45,-167.93 346,-164.91 350,-161.25 386.7,-127.65 351.86,-91.44 386,-55.25 386.59,-54.63 387.19,-54.02 387.81,-53.43"/>
<polygon fill="#63b8ff" stroke="#63b8ff" points="389.74,-56.36 395.43,-47.43 385.4,-50.87 389.74,-56.36"/>
</a>
</g>
</g>
<!-- Node12 -->
<g id="Node000012" class="node">
<title>Node12</title>
<g id="a_Node000012"><a xlink:href="namespacempi__utilities.html#a86f9982a0f92b51a916f832d9a3d8ba9" target="_top" xlink:title="Returns access to a lock.">
<polygon fill="white" stroke="#666666" points="516,-98 386,-98 386,-64.5 516,-64.5 516,-98"/>
<text xml:space="preserve" text-anchor="start" x="394" y="-82.6" font-family="Ubuntu Mono" font-size="12.00">mpi_utilities::lock</text>
<text xml:space="preserve" text-anchor="middle" x="451" y="-69.85" font-family="Ubuntu Mono" font-size="12.00">_return_acc</text>
</a>
</g>
</g>
<!-- Node6&#45;&gt;Node12 -->
<g id="edge17_Node000006_Node000012" class="edge">
<title>Node6&#45;&gt;Node12</title>
<g id="a_edge17_Node000006_Node000012"><a xlink:title=" ">
<path fill="none" stroke="#63b8ff" d="M331.69,-170.5C338.15,-168.03 344.39,-164.99 350,-161.25 372.48,-146.26 365.23,-129.54 386,-112.25 389.58,-109.27 393.49,-106.5 397.56,-103.94"/>
<polygon fill="#63b8ff" stroke="#63b8ff" points="399.03,-107.13 405.94,-99.1 395.53,-101.06 399.03,-107.13"/>
</a>
</g>
</g>
<!-- Node13 -->
<g id="Node000013" class="node">
<title>Node13</title>
<g id="a_Node000013"><a xlink:href="namespacehdf5__utilities.html#a7574320980affc30a584f7776d33a51c" target="_top" xlink:title="Sets up the chunk property list and/or the 1D hyperslabs that correspond to a local subset of lim_tot...">
<polygon fill="white" stroke="#666666" points="516,-188 386,-188 386,-154.5 516,-154.5 516,-188"/>
<text xml:space="preserve" text-anchor="start" x="394" y="-172.6" font-family="Ubuntu Mono" font-size="12.00">hdf5_utilities::set</text>
<text xml:space="preserve" text-anchor="middle" x="451" y="-159.85" font-family="Ubuntu Mono" font-size="12.00">_1d_vars</text>
</a>
</g>
</g>
<!-- Node6&#45;&gt;Node13 -->
<g id="edge21_Node000006_Node000013" class="edge">
<title>Node6&#45;&gt;Node13</title>
<g id="a_edge21_Node000006_Node000013"><a xlink:title=" ">
<path fill="none" stroke="#63b8ff" d="M350.48,-176.72C358.38,-176.28 366.36,-175.84 374.19,-175.41"/>
<polygon fill="#63b8ff" stroke="#63b8ff" points="374.23,-178.92 384.02,-174.87 373.84,-171.93 374.23,-178.92"/>
</a>
</g>
</g>
<!-- Node8 -->
<g id="Node000008" class="node">
<title>Node8</title>
<g id="a_Node000008"><a xlink:href="namespacempi__utilities.html#abe5bf3ae3b6a06eda18c2f4d62ac09c5" target="_top" xlink:title="Returns the header for lock debug messages.">
<polygon fill="white" stroke="#666666" points="860,-92 730,-92 730,-58.5 860,-58.5 860,-92"/>
<text xml:space="preserve" text-anchor="start" x="738" y="-76.6" font-family="Ubuntu Mono" font-size="12.00">mpi_utilities::lock</text>
<text xml:space="preserve" text-anchor="middle" x="795" y="-63.85" font-family="Ubuntu Mono" font-size="12.00">_header</text>
</a>
</g>
</g>
<!-- Node7&#45;&gt;Node8 -->
<g id="edge9_Node000007_Node000008" class="edge">
<title>Node7&#45;&gt;Node8</title>
<g id="a_edge9_Node000007_Node000008"><a xlink:title=" ">
<path fill="none" stroke="#63b8ff" d="M509.04,-12.05C556.98,-0.7 626.39,8.33 682,-14.25 702.68,-22.64 698.98,-37.58 718,-49.25 720.26,-50.63 722.6,-51.96 724.99,-53.22"/>
<polygon fill="#63b8ff" stroke="#63b8ff" points="723.22,-56.25 733.75,-57.41 726.25,-49.94 723.22,-56.25"/>
</a>
</g>
</g>
<!-- Node10 -->
<g id="Node000010" class="node">
<title>Node10</title>
<g id="a_Node000010"><a xlink:href="namespacempi__utilities.html#a3b0349e5ec825e14083e3126c3e7ba65" target="_top" xlink:title="Adds, removes or sets to active a rank from the waiting list for a lock and returns the lock waiting ...">
<polygon fill="white" stroke="#666666" points="682,-57 552,-57 552,-23.5 682,-23.5 682,-57"/>
<text xml:space="preserve" text-anchor="start" x="560" y="-41.6" font-family="Ubuntu Mono" font-size="12.00">mpi_utilities::lock</text>
<text xml:space="preserve" text-anchor="middle" x="617" y="-28.85" font-family="Ubuntu Mono" font-size="12.00">_wl_change</text>
</a>
</g>
</g>
<!-- Node7&#45;&gt;Node10 -->
<g id="edge13_Node000007_Node000010" class="edge">
<title>Node7&#45;&gt;Node10</title>
<g id="a_edge13_Node000007_Node000010"><a xlink:title=" ">
<path fill="none" stroke="#63b8ff" d="M516.35,-33.57C524.21,-34.09 532.31,-34.64 540.33,-35.17"/>
<polygon fill="#63b8ff" stroke="#63b8ff" points="539.85,-38.65 550.06,-35.83 540.32,-31.67 539.85,-38.65"/>
</a>
</g>
</g>
<!-- Node8&#45;&gt;Node5 -->
<g id="edge10_Node000008_Node000005" class="edge">
<title>Node8&#45;&gt;Node5</title>
<g id="a_edge10_Node000008_Node000005"><a xlink:title=" ">
<path fill="none" stroke="#63b8ff" d="M852.06,-92.47C869.92,-97.9 889.77,-103.88 908,-109.25 914.76,-111.24 921.9,-113.32 928.93,-115.34"/>
<polygon fill="#63b8ff" stroke="#63b8ff" points="927.79,-118.65 938.37,-118.05 929.72,-111.92 927.79,-118.65"/>
</a>
</g>
</g>
<!-- Node9 -->
<g id="Node000009" class="node">
<title>Node9</title>
<g id="a_Node000009"><a xlink:href="namespacestr__utilities.html#acb8c4e66aead51f178e47fdea8d7a7db" target="_top" xlink:title="Convert an integer to string.">
<polygon fill="white" stroke="#666666" points="1050,-82.62 908,-82.62 908,-61.87 1050,-61.87 1050,-82.62"/>
<text xml:space="preserve" text-anchor="middle" x="979" y="-67.22" font-family="Ubuntu Mono" font-size="12.00">str_utilities::ii2str</text>
</a>
</g>
</g>
<!-- Node8&#45;&gt;Node9 -->
<g id="edge11_Node000008_Node000009" class="edge">
<title>Node8&#45;&gt;Node9</title>
<g id="a_edge11_Node000008_Node000009"><a xlink:title=" ">
<path fill="none" stroke="#63b8ff" d="M860.42,-74.19C872.05,-74 884.3,-73.79 896.34,-73.6"/>
<polygon fill="#63b8ff" stroke="#63b8ff" points="896.33,-77.1 906.27,-73.43 896.22,-70.1 896.33,-77.1"/>
</a>
</g>
</g>
<!-- Node9&#45;&gt;Node9 -->
<g id="edge12_Node000009_Node000009" class="edge">
<title>Node9&#45;&gt;Node9</title>
<g id="a_edge12_Node000009_Node000009"><a xlink:title=" ">
<path fill="none" stroke="#63b8ff" d="M949.35,-83.02C937.49,-91.68 947.38,-100.62 979,-100.62 996.29,-100.62 1007.09,-97.95 1011.38,-94.11"/>
<polygon fill="#63b8ff" stroke="#63b8ff" points="1014.8,-93.37 1009.01,-84.49 1008,-95.04 1014.8,-93.37"/>
</a>
</g>
</g>
<!-- Node10&#45;&gt;Node8 -->
<g id="edge14_Node000010_Node000008" class="edge">
<title>Node10&#45;&gt;Node8</title>
<g id="a_edge14_Node000010_Node000008"><a xlink:title=" ">
<path fill="none" stroke="#63b8ff" d="M682.04,-52.98C693.93,-55.35 706.45,-57.84 718.64,-60.26"/>
<polygon fill="#63b8ff" stroke="#63b8ff" points="717.74,-63.65 728.23,-62.17 719.11,-56.79 717.74,-63.65"/>
</a>
</g>
</g>
<!-- Node11 -->
<g id="Node000011" class="node">
<title>Node11</title>
<g id="a_Node000011"><a xlink:href="namespacestr__utilities.html#ac778d706b2e021672618939ab58fdd32" target="_top" xlink:title="Convert a real (double) to string.">
<polygon fill="white" stroke="#666666" points="866,-22.62 724,-22.62 724,-1.87 866,-1.87 866,-22.62"/>
<text xml:space="preserve" text-anchor="middle" x="795" y="-7.22" font-family="Ubuntu Mono" font-size="12.00">str_utilities::r2strt</text>
</a>
</g>
</g>
<!-- Node10&#45;&gt;Node11 -->
<g id="edge15_Node000010_Node000011" class="edge">
<title>Node10&#45;&gt;Node11</title>
<g id="a_edge15_Node000010_Node000011"><a xlink:title=" ">
<path fill="none" stroke="#63b8ff" d="M682.04,-30.06C692.62,-28.38 703.69,-26.62 714.59,-24.88"/>
<polygon fill="#63b8ff" stroke="#63b8ff" points="715.04,-28.36 724.36,-23.33 713.94,-21.44 715.04,-28.36"/>
</a>
</g>
</g>
<!-- Node11&#45;&gt;Node11 -->
<g id="edge16_Node000011_Node000011" class="edge">
<title>Node11&#45;&gt;Node11</title>
<g id="a_edge16_Node000011_Node000011"><a xlink:title=" ">
<path fill="none" stroke="#63b8ff" d="M766.32,-23.02C754.85,-31.68 764.41,-40.62 795,-40.62 811.73,-40.62 822.17,-37.95 826.32,-34.11"/>
<polygon fill="#63b8ff" stroke="#63b8ff" points="829.75,-33.41 824.03,-24.49 822.94,-35.03 829.75,-33.41"/>
</a>
</g>
</g>
<!-- Node12&#45;&gt;Node8 -->
<g id="edge18_Node000012_Node000008" class="edge">
<title>Node12&#45;&gt;Node8</title>
<g id="a_edge18_Node000012_Node000008"><a xlink:title=" ">
<path fill="none" stroke="#63b8ff" d="M516.33,-80.12C573.68,-79.11 657.68,-77.64 718.26,-76.58"/>
<polygon fill="#63b8ff" stroke="#63b8ff" points="718.22,-80.08 728.16,-76.4 718.1,-73.08 718.22,-80.08"/>
</a>
</g>
</g>
<!-- Node12&#45;&gt;Node10 -->
<g id="edge19_Node000012_Node000010" class="edge">
<title>Node12&#45;&gt;Node10</title>
<g id="a_edge19_Node000012_Node000010"><a xlink:title=" ">
<path fill="none" stroke="#63b8ff" d="M516.35,-65.16C524.31,-63.17 532.5,-61.13 540.6,-59.1"/>
<polygon fill="#63b8ff" stroke="#63b8ff" points="541.25,-62.54 550.1,-56.72 539.55,-55.75 541.25,-62.54"/>
</a>
</g>
</g>
</g>
</svg>
