<?xml version="1.0" encoding="UTF-8" standalone="no"?>
<!DOCTYPE svg PUBLIC "-//W3C//DTD SVG 1.1//EN"
 "http://www.w3.org/Graphics/SVG/1.1/DTD/svg11.dtd">
<!-- Generated by graphviz version 2.38.0 (20140413.2041)
 -->
<!-- Title: eq_ops::calc_eq::calc_eq_1 Pages: 1 -->
<svg width="1046pt" height="347pt"
 viewBox="0.00 0.00 1046.00 346.73" xmlns="http://www.w3.org/2000/svg" xmlns:xlink="http://www.w3.org/1999/xlink">
<g id="graph0" class="graph" transform="scale(1 1) rotate(0) translate(4 342.726)">
<title>eq_ops::calc_eq::calc_eq_1</title>
<polygon fill="white" stroke="none" points="-4,4 -4,-342.726 1042,-342.726 1042,4 -4,4"/>
<!-- Node0 -->
<g id="node1" class="node"><title>Node0</title>
<polygon fill="#bfbfbf" stroke="black" points="0,-240.226 0,-261.226 173,-261.226 173,-240.226 0,-240.226"/>
<text text-anchor="middle" x="86.5" y="-247.626" font-family="Ubuntu Mono" font-size="12.00">eq_ops::calc_eq::calc_eq_1</text>
</g>
<!-- Node1 -->
<g id="node2" class="node"><title>Node1</title>
<g id="a_node2"><a xlink:href="namespacenum__utilities.html#ac827c18dd05a9b5a06675eac942f3b51" target="_top" xlink:title="Returns derivatives of certain order. ">
<polygon fill="white" stroke="black" points="209,-317.226 209,-338.226 352,-338.226 352,-317.226 209,-317.226"/>
<text text-anchor="middle" x="280.5" y="-324.626" font-family="Ubuntu Mono" font-size="12.00">num_utilities::derivs</text>
</a>
</g>
</g>
<!-- Node0&#45;&gt;Node1 -->
<g id="edge1" class="edge"><title>Node0&#45;&gt;Node1</title>
<path fill="none" stroke="midnightblue" d="M111.063,-261.339C135.408,-272.179 174.594,-289.279 209,-302.726 218.616,-306.485 229.058,-310.32 238.887,-313.821"/>
<polygon fill="midnightblue" stroke="midnightblue" points="237.862,-317.171 248.457,-317.197 240.19,-310.57 237.862,-317.171"/>
</g>
<!-- Node2 -->
<g id="node3" class="node"><title>Node2</title>
<g id="a_node3"><a xlink:href="namespacemessages.html#aa4a8d01563e92558e8a0875b075ec54c" target="_top" xlink:title="Write output to file identified by output_i. ">
<polygon fill="white" stroke="black" points="740,-90.2263 740,-111.226 847,-111.226 847,-90.2263 740,-90.2263"/>
<text text-anchor="middle" x="793.5" y="-97.6263" font-family="Ubuntu Mono" font-size="12.00">messages::writo</text>
</a>
</g>
</g>
<!-- Node0&#45;&gt;Node2 -->
<g id="edge2" class="edge"><title>Node0&#45;&gt;Node2</title>
<path fill="none" stroke="midnightblue" d="M132.525,-261.251C217.702,-279.069 407.135,-308.63 555,-258.726 646.174,-227.956 735.765,-152.874 773.653,-118.472"/>
<polygon fill="midnightblue" stroke="midnightblue" points="776.349,-120.747 781.34,-111.401 771.611,-115.595 776.349,-120.747"/>
</g>
<!-- Node5 -->
<g id="node6" class="node"><title>Node5</title>
<g id="a_node6"><a xlink:href="namespacemessages.html#a6e6bfb084063e4cc91ee86e542043302" target="_top" xlink:title="Increases/decreases lvl of output. ">
<polygon fill="white" stroke="black" points="591,-101.226 591,-122.226 704,-122.226 704,-101.226 591,-101.226"/>
<text text-anchor="middle" x="647.5" y="-108.626" font-family="Ubuntu Mono" font-size="12.00">messages::lvl_ud</text>
</a>
</g>
</g>
<!-- Node0&#45;&gt;Node5 -->
<g id="edge5" class="edge"><title>Node0&#45;&gt;Node5</title>
<path fill="none" stroke="midnightblue" d="M173.394,-255.807C289.906,-261.255 490.874,-265.109 555,-231.726 596.807,-209.962 625.043,-159.523 638.135,-131.461"/>
<polygon fill="midnightblue" stroke="midnightblue" points="641.376,-132.787 642.27,-122.23 634.987,-129.925 641.376,-132.787"/>
</g>
<!-- Node6 -->
<g id="node7" class="node"><title>Node6</title>
<g id="a_node7"><a xlink:href="namespaceoutput__ops.html#a50bfbb88cc91805469353c3ff47b3e2e" target="_top" xlink:title="Use external program to draw a plot. ">
<polygon fill="white" stroke="black" points="215,-122.226 215,-143.226 346,-143.226 346,-122.226 215,-122.226"/>
<text text-anchor="middle" x="280.5" y="-129.626" font-family="Ubuntu Mono" font-size="12.00">output_ops::draw_ex</text>
</a>
</g>
</g>
<!-- Node0&#45;&gt;Node6 -->
<g id="edge7" class="edge"><title>Node0&#45;&gt;Node6</title>
<path fill="none" stroke="midnightblue" d="M104.877,-240.046C138.79,-219.204 213.943,-173.016 253.692,-148.587"/>
<polygon fill="midnightblue" stroke="midnightblue" points="255.613,-151.515 262.3,-143.297 251.948,-145.551 255.613,-151.515"/>
</g>
<!-- Node7 -->
<g id="node8" class="node"><title>Node7</title>
<g id="a_node8"><a xlink:href="namespacestr__utilities.html#a0b97e51770725a3e98ed393d26681414" target="_top" xlink:title="Convert an integer to string. ">
<polygon fill="white" stroke="black" points="403,-201.226 403,-222.226 540,-222.226 540,-201.226 403,-201.226"/>
<text text-anchor="middle" x="471.5" y="-208.626" font-family="Ubuntu Mono" font-size="12.00">str_utilities::i2str</text>
</a>
</g>
</g>
<!-- Node0&#45;&gt;Node7 -->
<g id="edge16" class="edge"><title>Node0&#45;&gt;Node7</title>
<path fill="none" stroke="midnightblue" d="M173.106,-240.651C185.154,-239.295 197.386,-237.95 209,-236.726 270.655,-230.228 340.566,-223.581 392.58,-218.777"/>
<polygon fill="midnightblue" stroke="midnightblue" points="393.1,-222.244 402.737,-217.841 392.458,-215.273 393.1,-222.244"/>
</g>
<!-- Node3 -->
<g id="node4" class="node"><title>Node3</title>
<g id="a_node4"><a xlink:href="namespacemessages.html#a82dddaab795b78b3d39e1ff1aab2f665" target="_top" xlink:title="Returns the memory usage in kilobytes. ">
<polygon fill="white" stroke="black" points="883,-110.226 883,-131.226 1038,-131.226 1038,-110.226 883,-110.226"/>
<text text-anchor="middle" x="960.5" y="-117.626" font-family="Ubuntu Mono" font-size="12.00">messages::get_mem_usage</text>
</a>
</g>
</g>
<!-- Node2&#45;&gt;Node3 -->
<g id="edge3" class="edge"><title>Node2&#45;&gt;Node3</title>
<path fill="none" stroke="midnightblue" d="M847.161,-107.109C855.452,-108.114 864.208,-109.176 873.025,-110.244"/>
<polygon fill="midnightblue" stroke="midnightblue" points="872.635,-113.723 882.984,-111.452 873.478,-106.774 872.635,-113.723"/>
</g>
<!-- Node4 -->
<g id="node5" class="node"><title>Node4</title>
<g id="a_node5"><a xlink:href="namespacemessages.html#a61fd0b51b5e37d58fdc993c01792a3fd" target="_top" xlink:title="Returns the time. ">
<polygon fill="white" stroke="black" points="895,-70.2263 895,-91.2263 1026,-91.2263 1026,-70.2263 895,-70.2263"/>
<text text-anchor="middle" x="960.5" y="-77.6263" font-family="Ubuntu Mono" font-size="12.00">messages::get_clock</text>
</a>
</g>
</g>
<!-- Node2&#45;&gt;Node4 -->
<g id="edge4" class="edge"><title>Node2&#45;&gt;Node4</title>
<path fill="none" stroke="midnightblue" d="M847.161,-94.3432C859.142,-92.8909 872.094,-91.3209 884.797,-89.7812"/>
<polygon fill="midnightblue" stroke="midnightblue" points="885.402,-93.2336 894.908,-88.5556 884.56,-86.2844 885.402,-93.2336"/>
</g>
<!-- Node5&#45;&gt;Node2 -->
<g id="edge6" class="edge"><title>Node5&#45;&gt;Node2</title>
<path fill="none" stroke="midnightblue" d="M704.174,-107.473C712.502,-106.837 721.137,-106.178 729.601,-105.531"/>
<polygon fill="midnightblue" stroke="midnightblue" points="730.105,-109.003 739.809,-104.751 729.571,-102.023 730.105,-109.003"/>
</g>
<!-- Node6&#45;&gt;Node2 -->
<g id="edge9" class="edge"><title>Node6&#45;&gt;Node2</title>
<path fill="none" stroke="midnightblue" d="M287.453,-121.938C301.341,-98.0444 338.499,-41.0941 388,-19.7263 522.12,38.1684 699.302,-47.6124 765.785,-84.8735"/>
<polygon fill="midnightblue" stroke="midnightblue" points="764.351,-88.0849 774.772,-89.9961 767.817,-82.0034 764.351,-88.0849"/>
</g>
<!-- Node6&#45;&gt;Node5 -->
<g id="edge14" class="edge"><title>Node6&#45;&gt;Node5</title>
<path fill="none" stroke="midnightblue" d="M346.334,-128.996C412.351,-125.198 514.178,-119.339 580.583,-115.519"/>
<polygon fill="midnightblue" stroke="midnightblue" points="581.144,-118.992 590.926,-114.924 580.741,-112.004 581.144,-118.992"/>
</g>
<!-- Node6&#45;&gt;Node7 -->
<g id="edge8" class="edge"><title>Node6&#45;&gt;Node7</title>
<path fill="none" stroke="midnightblue" d="M297.434,-143.348C317.696,-156.423 354.129,-178.516 388,-191.726 394.365,-194.209 401.131,-196.448 407.943,-198.451"/>
<polygon fill="midnightblue" stroke="midnightblue" points="407.343,-201.917 417.915,-201.217 409.214,-195.171 407.343,-201.917"/>
</g>
<!-- Node8 -->
<g id="node9" class="node"><title>Node8</title>
<g id="a_node9"><a xlink:href="namespacefiles__utilities.html#ac6066df405564ba2f5e3c4bba726c1f8" target="_top" xlink:title="Search for available new unit. ">
<polygon fill="white" stroke="black" points="388,-161.226 388,-182.226 555,-182.226 555,-161.226 388,-161.226"/>
<text text-anchor="middle" x="471.5" y="-168.626" font-family="Ubuntu Mono" font-size="12.00">files_utilities::nextunit</text>
</a>
</g>
</g>
<!-- Node6&#45;&gt;Node8 -->
<g id="edge10" class="edge"><title>Node6&#45;&gt;Node8</title>
<path fill="none" stroke="midnightblue" d="M332.646,-143.28C356.283,-148.158 384.54,-153.988 409.299,-159.098"/>
<polygon fill="midnightblue" stroke="midnightblue" points="408.812,-162.571 419.313,-161.164 410.227,-155.715 408.812,-162.571"/>
</g>
<!-- Node9 -->
<g id="node10" class="node"><title>Node9</title>
<g id="a_node10"><a xlink:href="namespaceoutput__ops.html#aa9e4855511b6ea16a08b3efb587bec51" target="_top" xlink:title="Executes command line, or displays a message if disabled. ">
<polygon fill="white" stroke="black" points="394,-29.7263 394,-63.7263 549,-63.7263 549,-29.7263 394,-29.7263"/>
<text text-anchor="start" x="402" y="-50.1263" font-family="Ubuntu Mono" font-size="12.00">output_ops::use_execute</text>
<text text-anchor="middle" x="471.5" y="-37.1263" font-family="Ubuntu Mono" font-size="12.00">_command_line</text>
</a>
</g>
</g>
<!-- Node6&#45;&gt;Node9 -->
<g id="edge11" class="edge"><title>Node6&#45;&gt;Node9</title>
<path fill="none" stroke="midnightblue" d="M298.33,-122.086C318.904,-109.392 355.06,-88.0857 388,-73.7263 393.094,-71.5055 398.433,-69.3644 403.839,-67.3259"/>
<polygon fill="midnightblue" stroke="midnightblue" points="405.406,-70.4805 413.606,-63.7726 403.012,-63.9023 405.406,-70.4805"/>
</g>
<!-- Node10 -->
<g id="node11" class="node"><title>Node10</title>
<g id="a_node11"><a xlink:href="namespacestr__utilities.html#a92ac6c0af1979df094de1caddd28ade0" target="_top" xlink:title="Convert a real (double) to string. ">
<polygon fill="white" stroke="black" points="403,-83.2263 403,-104.226 540,-104.226 540,-83.2263 403,-83.2263"/>
<text text-anchor="middle" x="471.5" y="-90.6263" font-family="Ubuntu Mono" font-size="12.00">str_utilities::r2str</text>
</a>
</g>
</g>
<!-- Node6&#45;&gt;Node10 -->
<g id="edge15" class="edge"><title>Node6&#45;&gt;Node10</title>
<path fill="none" stroke="midnightblue" d="M332.646,-122.172C356.283,-117.295 384.54,-111.464 409.299,-106.355"/>
<polygon fill="midnightblue" stroke="midnightblue" points="410.227,-109.737 419.313,-104.289 408.812,-102.882 410.227,-109.737"/>
</g>
<!-- Node9&#45;&gt;Node2 -->
<g id="edge12" class="edge"><title>Node9&#45;&gt;Node2</title>
<path fill="none" stroke="midnightblue" d="M549.148,-59.6606C604.445,-68.992 678.17,-81.4331 729.929,-90.1675"/>
<polygon fill="midnightblue" stroke="midnightblue" points="729.533,-93.6501 739.976,-91.8629 730.698,-86.7476 729.533,-93.6501"/>
</g>
<!-- Node9&#45;&gt;Node5 -->
<g id="edge13" class="edge"><title>Node9&#45;&gt;Node5</title>
<path fill="none" stroke="midnightblue" d="M526.848,-63.8508C536.278,-67.0106 545.956,-70.3741 555,-73.7263 574.415,-80.9225 595.802,-89.753 613.014,-97.0899"/>
<polygon fill="midnightblue" stroke="midnightblue" points="612.05,-100.485 622.62,-101.213 614.811,-94.0524 612.05,-100.485"/>
</g>
</g>
</svg>
