<?xml version="1.0" encoding="UTF-8" standalone="no"?>
<!DOCTYPE svg PUBLIC "-//W3C//DTD SVG 1.1//EN"
 "http://www.w3.org/Graphics/SVG/1.1/DTD/svg11.dtd">
<!-- Generated by graphviz version 2.43.0 (0)
 -->
<!-- Title: eq_ops::calc_g_v::calc_g_v_ind Pages: 1 -->
<svg width="326pt" height="84pt"
 viewBox="0.00 0.00 326.00 83.50" xmlns="http://www.w3.org/2000/svg" xmlns:xlink="http://www.w3.org/1999/xlink">
<g id="graph0" class="graph" transform="scale(1 1) rotate(0) translate(4 79.5)">
<title>eq_ops::calc_g_v::calc_g_v_ind</title>
<polygon fill="white" stroke="transparent" points="-4,4 -4,-79.5 322,-79.5 322,4 -4,4"/>
<!-- Node1 -->
<g id="node1" class="node">
<title>Node1</title>
<g id="a_node1"><a xlink:title="individual version">
<polygon fill="#bfbfbf" stroke="black" points="0,-23.5 0,-57.5 148,-57.5 148,-23.5 0,-23.5"/>
<text text-anchor="start" x="8" y="-43.9" font-family="Ubuntu Mono" font-size="12.00">eq_ops::calc_g_v::calc</text>
<text text-anchor="middle" x="74" y="-30.9" font-family="Ubuntu Mono" font-size="12.00">_g_v_ind</text>
</a>
</g>
</g>
<!-- Node2 -->
<g id="node2" class="node">
<title>Node2</title>
<g id="a_node2"><a xlink:href="namespaceeq__utilities.html#a1426f7226577f8719472265fd882fbf4" target="_top" xlink:title="Calculate the metric coefficients in a coordinate system B ! using the.">
<polygon fill="white" stroke="black" points="188.5,-54 188.5,-75 313.5,-75 313.5,-54 188.5,-54"/>
<text text-anchor="middle" x="251" y="-61.4" font-family="Ubuntu Mono" font-size="12.00">eq_utilities::calc_g</text>
</a>
</g>
</g>
<!-- Node1&#45;&gt;Node2 -->
<g id="edge1" class="edge">
<title>Node1&#45;&gt;Node2</title>
<path fill="none" stroke="midnightblue" d="M148.2,-50.54C158.14,-51.9 168.34,-53.3 178.25,-54.66"/>
<polygon fill="midnightblue" stroke="midnightblue" points="178.08,-58.17 188.46,-56.06 179.03,-51.23 178.08,-58.17"/>
</g>
<!-- Node3 -->
<g id="node3" class="node">
<title>Node3</title>
<g id="a_node3"><a xlink:href="namespacenum__utilities.html#a00f4cfe18a734eaa5d66f529e52f7c31" target="_top" xlink:title="checks whether the derivatives requested for a certain subroutine are valid">
<polygon fill="white" stroke="black" points="184,-0.5 184,-34.5 318,-34.5 318,-0.5 184,-0.5"/>
<text text-anchor="start" x="192" y="-20.9" font-family="Ubuntu Mono" font-size="12.00">num_utilities::check</text>
<text text-anchor="middle" x="251" y="-7.9" font-family="Ubuntu Mono" font-size="12.00">_deriv</text>
</a>
</g>
</g>
<!-- Node1&#45;&gt;Node3 -->
<g id="edge2" class="edge">
<title>Node1&#45;&gt;Node3</title>
<path fill="none" stroke="midnightblue" d="M148.2,-30.88C156.68,-29.76 165.35,-28.63 173.87,-27.51"/>
<polygon fill="midnightblue" stroke="midnightblue" points="174.33,-30.98 183.79,-26.2 173.41,-24.04 174.33,-30.98"/>
</g>
</g>
</svg>
