<?xml version="1.0" encoding="UTF-8" standalone="no"?>
<!DOCTYPE svg PUBLIC "-//W3C//DTD SVG 1.1//EN"
 "http://www.w3.org/Graphics/SVG/1.1/DTD/svg11.dtd">
<!-- Generated by graphviz version 2.38.0 (20140413.2041)
 -->
<!-- Title: test::test_calc_int_vol Pages: 1 -->
<svg width="407pt" height="70pt"
 viewBox="0.00 0.00 407.00 70.00" xmlns="http://www.w3.org/2000/svg" xmlns:xlink="http://www.w3.org/1999/xlink">
<g id="graph0" class="graph" transform="scale(1 1) rotate(0) translate(4 66)">
<title>test::test_calc_int_vol</title>
<polygon fill="white" stroke="none" points="-4,4 -4,-66 403,-66 403,4 -4,4"/>
<!-- Node71 -->
<g id="node1" class="node"><title>Node71</title>
<polygon fill="#bfbfbf" stroke="black" points="0,-20.5 0,-41.5 155,-41.5 155,-20.5 0,-20.5"/>
<text text-anchor="middle" x="77.5" y="-27.9" font-family="Ubuntu Mono" font-size="12.00">test::test_calc_int_vol</text>
</g>
<!-- Node72 -->
<g id="node2" class="node"><title>Node72</title>
<g id="a_node2"><a xlink:href="namespacetest.html#aca21ee464c0b1f4b617177afdde110ec" target="_top" xlink:title="test::generic_tests">
<polygon fill="white" stroke="black" points="191,-20.5 191,-41.5 322,-41.5 322,-20.5 191,-20.5"/>
<text text-anchor="middle" x="256.5" y="-27.9" font-family="Ubuntu Mono" font-size="12.00">test::generic_tests</text>
</a>
</g>
</g>
<!-- Node71&#45;&gt;Node72 -->
<g id="edge1" class="edge"><title>Node71&#45;&gt;Node72</title>
<path fill="none" stroke="midnightblue" d="M165.246,-31C173.91,-31 182.596,-31 190.973,-31"/>
<polygon fill="midnightblue" stroke="midnightblue" points="165.105,-27.5001 155.105,-31 165.105,-34.5001 165.105,-27.5001"/>
</g>
<!-- Node73 -->
<g id="node3" class="node"><title>Node73</title>
<g id="a_node3"><a xlink:href="PB3D_8f90.html#afaee01f014ab3398eecac996b2795fd2" target="_top" xlink:title="pb3d">
<polygon fill="white" stroke="black" points="358,-40.5 358,-61.5 399,-61.5 399,-40.5 358,-40.5"/>
<text text-anchor="middle" x="378.5" y="-47.9" font-family="Ubuntu Mono" font-size="12.00">pb3d</text>
</a>
</g>
</g>
<!-- Node72&#45;&gt;Node73 -->
<g id="edge2" class="edge"><title>Node72&#45;&gt;Node73</title>
<path fill="none" stroke="midnightblue" d="M330.742,-43.2071C340.695,-44.8658 350.136,-46.4393 357.894,-47.7324"/>
<polygon fill="midnightblue" stroke="midnightblue" points="331.102,-39.7188 320.663,-41.5271 329.951,-46.6236 331.102,-39.7188"/>
</g>
<!-- Node74 -->
<g id="node4" class="node"><title>Node74</title>
<g id="a_node4"><a xlink:href="POST_8f90.html#ac289b64ac4671fea0b4f2298ba1188a1" target="_top" xlink:title="post">
<polygon fill="white" stroke="black" points="358,-0.5 358,-21.5 399,-21.5 399,-0.5 358,-0.5"/>
<text text-anchor="middle" x="378.5" y="-7.9" font-family="Ubuntu Mono" font-size="12.00">post</text>
</a>
</g>
</g>
<!-- Node72&#45;&gt;Node74 -->
<g id="edge3" class="edge"><title>Node72&#45;&gt;Node74</title>
<path fill="none" stroke="midnightblue" d="M330.742,-18.7929C340.695,-17.1342 350.136,-15.5607 357.894,-14.2676"/>
<polygon fill="midnightblue" stroke="midnightblue" points="329.951,-15.3764 320.663,-20.4729 331.102,-22.2812 329.951,-15.3764"/>
</g>
</g>
</svg>
