<?xml version="1.0" encoding="UTF-8" standalone="no"?>
<!DOCTYPE svg PUBLIC "-//W3C//DTD SVG 1.1//EN"
 "http://www.w3.org/Graphics/SVG/1.1/DTD/svg11.dtd">
<!-- Generated by graphviz version 2.38.0 (20140413.2041)
 -->
<!-- Title: slepc_utilities::insert_block_mat Pages: 1 -->
<svg width="795pt" height="70pt"
 viewBox="0.00 0.00 795.00 70.00" xmlns="http://www.w3.org/2000/svg" xmlns:xlink="http://www.w3.org/1999/xlink">
<g id="graph0" class="graph" transform="scale(1 1) rotate(0) translate(4 66)">
<title>slepc_utilities::insert_block_mat</title>
<polygon fill="white" stroke="none" points="-4,4 -4,-66 791,-66 791,4 -4,4"/>
<!-- Node13 -->
<g id="node1" class="node"><title>Node13</title>
<polygon fill="#bfbfbf" stroke="black" points="0,-14 0,-48 155,-48 155,-14 0,-14"/>
<text text-anchor="start" x="8" y="-34.4" font-family="Ubuntu Mono" font-size="12.00">slepc_utilities::insert</text>
<text text-anchor="middle" x="77.5" y="-21.4" font-family="Ubuntu Mono" font-size="12.00">_block_mat</text>
</g>
<!-- Node14 -->
<g id="node2" class="node"><title>Node14</title>
<g id="a_node2"><a xlink:href="namespaceslepc__ops.html#aac8202cb74cbb06013eb73f1fa0c3118" target="_top" xlink:title="Sets up the matrices &#160;and &#160;in the EV problem . ">
<polygon fill="white" stroke="black" points="191,-40.5 191,-61.5 334,-61.5 334,-40.5 191,-40.5"/>
<text text-anchor="middle" x="262.5" y="-47.9" font-family="Ubuntu Mono" font-size="12.00">slepc_ops::setup_mats</text>
</a>
</g>
</g>
<!-- Node13&#45;&gt;Node14 -->
<g id="edge1" class="edge"><title>Node13&#45;&gt;Node14</title>
<path fill="none" stroke="midnightblue" d="M165.111,-40.4657C173.721,-41.4067 182.389,-42.354 190.809,-43.2742"/>
<polygon fill="midnightblue" stroke="midnightblue" points="165.369,-36.9731 155.048,-39.3659 164.609,-43.9317 165.369,-36.9731"/>
</g>
<!-- Node18 -->
<g id="node6" class="node"><title>Node18</title>
<g id="a_node6"><a xlink:href="namespaceslepc__ops.html#a05f8a23335ed47ad1996cddf3bcfdc2e" target="_top" xlink:title="Sets the boundary conditions deep in the plasma (1) and at the edge (2). ">
<polygon fill="white" stroke="black" points="203,-0.5 203,-21.5 322,-21.5 322,-0.5 203,-0.5"/>
<text text-anchor="middle" x="262.5" y="-7.9" font-family="Ubuntu Mono" font-size="12.00">slepc_ops::set_bc</text>
</a>
</g>
</g>
<!-- Node13&#45;&gt;Node18 -->
<g id="edge5" class="edge"><title>Node13&#45;&gt;Node18</title>
<path fill="none" stroke="midnightblue" d="M165.215,-21.5229C177.949,-20.1312 190.807,-18.726 202.799,-17.4154"/>
<polygon fill="midnightblue" stroke="midnightblue" points="164.609,-18.0683 155.048,-22.6341 165.369,-25.0269 164.609,-18.0683"/>
</g>
<!-- Node15 -->
<g id="node3" class="node"><title>Node15</title>
<g id="a_node3"><a xlink:href="namespaceslepc__ops.html#a79c420987056c225931b51c8d30ece1f" target="_top" xlink:title="Solve the eigenvalue system using SLEPC. ">
<polygon fill="white" stroke="black" points="370,-14 370,-48 501,-48 501,-14 370,-14"/>
<text text-anchor="start" x="378" y="-34.4" font-family="Ubuntu Mono" font-size="12.00">slepc_ops::solve_ev</text>
<text text-anchor="middle" x="435.5" y="-21.4" font-family="Ubuntu Mono" font-size="12.00">_system_slepc</text>
</a>
</g>
</g>
<!-- Node14&#45;&gt;Node15 -->
<g id="edge2" class="edge"><title>Node14&#45;&gt;Node15</title>
<path fill="none" stroke="midnightblue" d="M344.126,-41.57C352.762,-40.5599 361.465,-39.5421 369.881,-38.5578"/>
<polygon fill="midnightblue" stroke="midnightblue" points="343.565,-38.1117 334.04,-42.7498 344.378,-45.0643 343.565,-38.1117"/>
</g>
<!-- Node16 -->
<g id="node4" class="node"><title>Node16</title>
<g id="a_node4"><a xlink:href="namespacedriver__sol.html#ad3b1765b3ecc5f82129bfc683ffc6c5c" target="_top" xlink:title="Main driver of PB3D solution part. ">
<polygon fill="white" stroke="black" points="537,-20.5 537,-41.5 710,-41.5 710,-20.5 537,-20.5"/>
<text text-anchor="middle" x="623.5" y="-27.9" font-family="Ubuntu Mono" font-size="12.00">driver_sol::run_driver_sol</text>
</a>
</g>
</g>
<!-- Node15&#45;&gt;Node16 -->
<g id="edge3" class="edge"><title>Node15&#45;&gt;Node16</title>
<path fill="none" stroke="midnightblue" d="M511.183,-31C519.607,-31 528.239,-31 536.788,-31"/>
<polygon fill="midnightblue" stroke="midnightblue" points="511.032,-27.5001 501.032,-31 511.032,-34.5001 511.032,-27.5001"/>
</g>
<!-- Node17 -->
<g id="node5" class="node"><title>Node17</title>
<g id="a_node5"><a xlink:href="PB3D_8f90.html#afaee01f014ab3398eecac996b2795fd2" target="_top" xlink:title="Peeling Ballooning in 3D. ">
<polygon fill="white" stroke="black" points="746,-20.5 746,-41.5 787,-41.5 787,-20.5 746,-20.5"/>
<text text-anchor="middle" x="766.5" y="-27.9" font-family="Ubuntu Mono" font-size="12.00">pb3d</text>
</a>
</g>
</g>
<!-- Node16&#45;&gt;Node17 -->
<g id="edge4" class="edge"><title>Node16&#45;&gt;Node17</title>
<path fill="none" stroke="midnightblue" d="M720.337,-31C729.873,-31 738.695,-31 745.964,-31"/>
<polygon fill="midnightblue" stroke="midnightblue" points="720.178,-27.5001 710.178,-31 720.178,-34.5001 720.178,-27.5001"/>
</g>
<!-- Node18&#45;&gt;Node15 -->
<g id="edge6" class="edge"><title>Node18&#45;&gt;Node15</title>
<path fill="none" stroke="midnightblue" d="M332.588,-19.0805C344.94,-20.5251 357.766,-22.0253 369.984,-23.4542"/>
<polygon fill="midnightblue" stroke="midnightblue" points="332.687,-15.5683 322.348,-17.8829 331.874,-22.5209 332.687,-15.5683"/>
</g>
</g>
</svg>
