<?xml version="1.0" encoding="UTF-8" standalone="no"?>
<!DOCTYPE svg PUBLIC "-//W3C//DTD SVG 1.1//EN"
 "http://www.w3.org/Graphics/SVG/1.1/DTD/svg11.dtd">
<!-- Generated by graphviz version 2.38.0 (20140413.2041)
 -->
<!-- Title: eq_ops::calc_normalization_const Pages: 1 -->
<svg width="1028pt" height="200pt"
 viewBox="0.00 0.00 1028.00 199.62" xmlns="http://www.w3.org/2000/svg" xmlns:xlink="http://www.w3.org/1999/xlink">
<g id="graph0" class="graph" transform="scale(1 1) rotate(0) translate(4 195.616)">
<title>eq_ops::calc_normalization_const</title>
<polygon fill="white" stroke="none" points="-4,4 -4,-195.616 1024,-195.616 1024,4 -4,4"/>
<!-- Node98 -->
<g id="node1" class="node"><title>Node98</title>
<polygon fill="#bfbfbf" stroke="black" points="0,-94 0,-128 173,-128 173,-94 0,-94"/>
<text text-anchor="start" x="8" y="-114.4" font-family="Ubuntu Mono" font-size="12.00">eq_ops::calc_normalization</text>
<text text-anchor="middle" x="86.5" y="-101.4" font-family="Ubuntu Mono" font-size="12.00">_const</text>
</g>
<!-- Node99 -->
<g id="node2" class="node"><title>Node99</title>
<g id="a_node2"><a xlink:href="namespacemessages.html#aa4a8d01563e92558e8a0875b075ec54c" target="_top" xlink:title="messages::writo">
<polygon fill="white" stroke="black" points="555,-125.5 555,-146.5 662,-146.5 662,-125.5 555,-125.5"/>
<text text-anchor="middle" x="608.5" y="-132.9" font-family="Ubuntu Mono" font-size="12.00">messages::writo</text>
</a>
</g>
</g>
<!-- Node98&#45;&gt;Node99 -->
<g id="edge1" class="edge"><title>Node98&#45;&gt;Node99</title>
<path fill="none" stroke="midnightblue" d="M123.907,-128.013C147.628,-138.358 179.536,-150.902 209,-158 343.172,-190.321 384.087,-205.073 519,-176 540.974,-171.265 564.061,-160.614 581.144,-151.493"/>
<polygon fill="midnightblue" stroke="midnightblue" points="582.901,-154.521 589.971,-146.63 579.523,-148.39 582.901,-154.521"/>
</g>
<!-- Node103 -->
<g id="node6" class="node"><title>Node103</title>
<g id="a_node6"><a xlink:href="namespacemessages.html#a6e6bfb084063e4cc91ee86e542043302" target="_top" xlink:title="messages::lvl_ud">
<polygon fill="white" stroke="black" points="394,-145.5 394,-166.5 507,-166.5 507,-145.5 394,-145.5"/>
<text text-anchor="middle" x="450.5" y="-152.9" font-family="Ubuntu Mono" font-size="12.00">messages::lvl_ud</text>
</a>
</g>
</g>
<!-- Node98&#45;&gt;Node103 -->
<g id="edge5" class="edge"><title>Node98&#45;&gt;Node103</title>
<path fill="none" stroke="midnightblue" d="M155.933,-128.015C173.164,-131.799 191.685,-135.442 209,-138 267.778,-146.684 335.292,-151.272 383.795,-153.636"/>
<polygon fill="midnightblue" stroke="midnightblue" points="383.693,-157.135 393.846,-154.107 384.021,-150.143 383.693,-157.135"/>
</g>
<!-- Node104 -->
<g id="node7" class="node"><title>Node104</title>
<g id="a_node7"><a xlink:href="eq__ops_8f90.html#a26984870bf6ddccfc7c55bdf5993a4d8" target="_top" xlink:title="calc_normalization\l_const_vmec">
<polygon fill="white" stroke="black" points="215,-94 215,-128 340,-128 340,-94 215,-94"/>
<text text-anchor="start" x="223" y="-114.4" font-family="Ubuntu Mono" font-size="12.00">calc_normalization</text>
<text text-anchor="middle" x="277.5" y="-101.4" font-family="Ubuntu Mono" font-size="12.00">_const_vmec</text>
</a>
</g>
</g>
<!-- Node98&#45;&gt;Node104 -->
<g id="edge7" class="edge"><title>Node98&#45;&gt;Node104</title>
<path fill="none" stroke="midnightblue" d="M173.152,-111C183.701,-111 194.397,-111 204.71,-111"/>
<polygon fill="midnightblue" stroke="midnightblue" points="204.876,-114.5 214.876,-111 204.876,-107.5 204.876,-114.5"/>
</g>
<!-- Node106 -->
<g id="node9" class="node"><title>Node106</title>
<g id="a_node9"><a xlink:href="eq__ops_8f90.html#af011b33f043fd8732eeea7d9f2e03ea3" target="_top" xlink:title="calc_normalization\l_const_hel">
<polygon fill="white" stroke="black" points="215,-41 215,-75 340,-75 340,-41 215,-41"/>
<text text-anchor="start" x="223" y="-61.4" font-family="Ubuntu Mono" font-size="12.00">calc_normalization</text>
<text text-anchor="middle" x="277.5" y="-48.4" font-family="Ubuntu Mono" font-size="12.00">_const_hel</text>
</a>
</g>
</g>
<!-- Node98&#45;&gt;Node106 -->
<g id="edge11" class="edge"><title>Node98&#45;&gt;Node106</title>
<path fill="none" stroke="midnightblue" d="M148.341,-93.9387C166.72,-88.7849 187.052,-83.0832 206.005,-77.7684"/>
<polygon fill="midnightblue" stroke="midnightblue" points="207.089,-81.0995 215.773,-75.0293 205.199,-74.3594 207.089,-81.0995"/>
</g>
<!-- Node107 -->
<g id="node10" class="node"><title>Node107</title>
<g id="a_node10"><a xlink:href="namespacestr__utilities.html#a0b97e51770725a3e98ed393d26681414" target="_top" xlink:title="str_utilities::i2str">
<polygon fill="white" stroke="black" points="209,-0.5 209,-21.5 346,-21.5 346,-0.5 209,-0.5"/>
<text text-anchor="middle" x="277.5" y="-7.9" font-family="Ubuntu Mono" font-size="12.00">str_utilities::i2str</text>
</a>
</g>
</g>
<!-- Node98&#45;&gt;Node107 -->
<g id="edge14" class="edge"><title>Node98&#45;&gt;Node107</title>
<path fill="none" stroke="midnightblue" d="M109.174,-93.8683C132.62,-76.0419 171.67,-48.3544 209,-31 213.918,-28.7136 219.159,-26.6189 224.464,-24.7181"/>
<polygon fill="midnightblue" stroke="midnightblue" points="225.66,-28.0088 234.025,-21.5068 223.431,-21.3731 225.66,-28.0088"/>
</g>
<!-- Node100 -->
<g id="node3" class="node"><title>Node100</title>
<g id="a_node3"><a xlink:href="namespacemessages.html#a82dddaab795b78b3d39e1ff1aab2f665" target="_top" xlink:title="messages::get_mem_usage">
<polygon fill="white" stroke="black" points="698,-145.5 698,-166.5 853,-166.5 853,-145.5 698,-145.5"/>
<text text-anchor="middle" x="775.5" y="-152.9" font-family="Ubuntu Mono" font-size="12.00">messages::get_mem_usage</text>
</a>
</g>
</g>
<!-- Node99&#45;&gt;Node100 -->
<g id="edge2" class="edge"><title>Node99&#45;&gt;Node100</title>
<path fill="none" stroke="midnightblue" d="M662.161,-142.383C670.452,-143.388 679.208,-144.449 688.025,-145.518"/>
<polygon fill="midnightblue" stroke="midnightblue" points="687.635,-148.996 697.984,-146.725 688.478,-142.047 687.635,-148.996"/>
</g>
<!-- Node101 -->
<g id="node4" class="node"><title>Node101</title>
<g id="a_node4"><a xlink:href="messages_8f90.html#a6d15f28783f95a7a4b2a44185619792f" target="_top" xlink:title="format_str">
<polygon fill="white" stroke="black" points="737,-105.5 737,-126.5 814,-126.5 814,-105.5 737,-105.5"/>
<text text-anchor="middle" x="775.5" y="-112.9" font-family="Ubuntu Mono" font-size="12.00">format_str</text>
</a>
</g>
</g>
<!-- Node99&#45;&gt;Node101 -->
<g id="edge3" class="edge"><title>Node99&#45;&gt;Node101</title>
<path fill="none" stroke="midnightblue" d="M662.161,-129.617C682.977,-127.094 706.722,-124.216 727.002,-121.757"/>
<polygon fill="midnightblue" stroke="midnightblue" points="727.448,-125.229 736.954,-120.551 726.606,-118.28 727.448,-125.229"/>
</g>
<!-- Node102 -->
<g id="node5" class="node"><title>Node102</title>
<g id="a_node5"><a xlink:href="namespacemessages.html#a61fd0b51b5e37d58fdc993c01792a3fd" target="_top" xlink:title="messages::get_clock">
<polygon fill="white" stroke="black" points="889,-105.5 889,-126.5 1020,-126.5 1020,-105.5 889,-105.5"/>
<text text-anchor="middle" x="954.5" y="-112.9" font-family="Ubuntu Mono" font-size="12.00">messages::get_clock</text>
</a>
</g>
</g>
<!-- Node101&#45;&gt;Node102 -->
<g id="edge4" class="edge"><title>Node101&#45;&gt;Node102</title>
<path fill="none" stroke="midnightblue" d="M814.037,-116C832.869,-116 856.372,-116 878.685,-116"/>
<polygon fill="midnightblue" stroke="midnightblue" points="878.832,-119.5 888.832,-116 878.832,-112.5 878.832,-119.5"/>
</g>
<!-- Node103&#45;&gt;Node99 -->
<g id="edge6" class="edge"><title>Node103&#45;&gt;Node99</title>
<path fill="none" stroke="midnightblue" d="M507.379,-148.836C519.468,-147.286 532.331,-145.637 544.667,-144.056"/>
<polygon fill="midnightblue" stroke="midnightblue" points="545.403,-147.49 554.877,-142.747 544.513,-140.547 545.403,-147.49"/>
</g>
<!-- Node104&#45;&gt;Node99 -->
<g id="edge8" class="edge"><title>Node104&#45;&gt;Node99</title>
<path fill="none" stroke="midnightblue" d="M340.382,-115.702C398.768,-120.139 485.87,-126.758 544.59,-131.22"/>
<polygon fill="midnightblue" stroke="midnightblue" points="544.611,-134.731 554.847,-131.999 545.141,-127.751 544.611,-134.731"/>
</g>
<!-- Node104&#45;&gt;Node103 -->
<g id="edge9" class="edge"><title>Node104&#45;&gt;Node103</title>
<path fill="none" stroke="midnightblue" d="M340.235,-127.246C359.778,-132.389 381.121,-138.005 399.715,-142.899"/>
<polygon fill="midnightblue" stroke="midnightblue" points="398.887,-146.3 409.449,-145.46 400.669,-139.53 398.887,-146.3"/>
</g>
<!-- Node105 -->
<g id="node8" class="node"><title>Node105</title>
<g id="a_node8"><a xlink:href="namespacestr__utilities.html#a92ac6c0af1979df094de1caddd28ade0" target="_top" xlink:title="str_utilities::r2str">
<polygon fill="white" stroke="black" points="382,-67.5 382,-88.5 519,-88.5 519,-67.5 382,-67.5"/>
<text text-anchor="middle" x="450.5" y="-74.9" font-family="Ubuntu Mono" font-size="12.00">str_utilities::r2str</text>
</a>
</g>
</g>
<!-- Node104&#45;&gt;Node105 -->
<g id="edge10" class="edge"><title>Node104&#45;&gt;Node105</title>
<path fill="none" stroke="midnightblue" d="M340.235,-99.0862C354.77,-96.2812 370.301,-93.2841 384.956,-90.4559"/>
<polygon fill="midnightblue" stroke="midnightblue" points="385.783,-93.8608 394.939,-88.5293 384.457,-86.9876 385.783,-93.8608"/>
</g>
<!-- Node106&#45;&gt;Node99 -->
<g id="edge12" class="edge"><title>Node106&#45;&gt;Node99</title>
<path fill="none" stroke="midnightblue" d="M340.183,-46.3053C390.084,-39.5621 461.29,-36.1981 519,-58 550.235,-69.8 577.579,-98.2047 593.32,-117.279"/>
<polygon fill="midnightblue" stroke="midnightblue" points="590.738,-119.656 599.709,-125.294 596.212,-115.292 590.738,-119.656"/>
</g>
<!-- Node106&#45;&gt;Node105 -->
<g id="edge13" class="edge"><title>Node106&#45;&gt;Node105</title>
<path fill="none" stroke="midnightblue" d="M340.235,-65.2205C350.457,-66.416 361.171,-67.6692 371.727,-68.9038"/>
<polygon fill="midnightblue" stroke="midnightblue" points="371.439,-72.3939 381.778,-70.0793 372.252,-65.4413 371.439,-72.3939"/>
</g>
</g>
</svg>
