<?xml version="1.0" encoding="UTF-8" standalone="no"?>
<!DOCTYPE svg PUBLIC "-//W3C//DTD SVG 1.1//EN"
 "http://www.w3.org/Graphics/SVG/1.1/DTD/svg11.dtd">
<!-- Generated by graphviz version 2.38.0 (20140413.2041)
 -->
<!-- Title: rich_ops::term_rich Pages: 1 -->
<svg width="1082pt" height="328pt"
 viewBox="0.00 0.00 1082.00 328.07" xmlns="http://www.w3.org/2000/svg" xmlns:xlink="http://www.w3.org/1999/xlink">
<g id="graph0" class="graph" transform="scale(1 1) rotate(0) translate(4 324.067)">
<title>rich_ops::term_rich</title>
<polygon fill="white" stroke="none" points="-4,4 -4,-324.067 1078,-324.067 1078,4 -4,4"/>
<!-- Node93 -->
<g id="node1" class="node"><title>Node93</title>
<polygon fill="#bfbfbf" stroke="black" points="0,-138.5 0,-159.5 131,-159.5 131,-138.5 0,-138.5"/>
<text text-anchor="middle" x="65.5" y="-145.9" font-family="Ubuntu Mono" font-size="12.00">rich_ops::term_rich</text>
</g>
<!-- Node94 -->
<g id="node2" class="node"><title>Node94</title>
<g id="a_node2"><a xlink:href="namespaceinput__utilities.html#aa0cf7578f9c9ab6470f8bb8d025f1daf" target="_top" xlink:title="input_utilities::dealloc_in">
<polygon fill="white" stroke="black" points="167,-236.5 167,-257.5 346,-257.5 346,-236.5 167,-236.5"/>
<text text-anchor="middle" x="256.5" y="-243.9" font-family="Ubuntu Mono" font-size="12.00">input_utilities::dealloc_in</text>
</a>
</g>
</g>
<!-- Node93&#45;&gt;Node94 -->
<g id="edge1" class="edge"><title>Node93&#45;&gt;Node94</title>
<path fill="none" stroke="midnightblue" d="M78.2813,-159.738C96.1844,-175.524 131.883,-204.96 167,-222 176.361,-226.542 186.692,-230.392 196.892,-233.608"/>
<polygon fill="midnightblue" stroke="midnightblue" points="196.012,-236.998 206.595,-236.498 198.01,-230.289 196.012,-236.998"/>
</g>
<!-- Node97 -->
<g id="node5" class="node"><title>Node97</title>
<g id="a_node5"><a xlink:href="namespacemessages.html#aa4a8d01563e92558e8a0875b075ec54c" target="_top" xlink:title="messages::writo">
<polygon fill="white" stroke="black" points="594,-196.5 594,-217.5 701,-217.5 701,-196.5 594,-196.5"/>
<text text-anchor="middle" x="647.5" y="-203.9" font-family="Ubuntu Mono" font-size="12.00">messages::writo</text>
</a>
</g>
</g>
<!-- Node93&#45;&gt;Node97 -->
<g id="edge13" class="edge"><title>Node93&#45;&gt;Node97</title>
<path fill="none" stroke="midnightblue" d="M131.084,-144.284C223.646,-139.188 398.779,-135.76 543,-169 567.205,-174.579 593.464,-184.266 613.477,-192.462"/>
<polygon fill="midnightblue" stroke="midnightblue" points="612.186,-195.716 622.763,-196.342 614.885,-189.258 612.186,-195.716"/>
</g>
<!-- Node100 -->
<g id="node8" class="node"><title>Node100</title>
<g id="a_node8"><a xlink:href="namespacestr__utilities.html#a0b97e51770725a3e98ed393d26681414" target="_top" xlink:title="str_utilities::i2str">
<polygon fill="white" stroke="black" points="579,-275.5 579,-296.5 716,-296.5 716,-275.5 579,-275.5"/>
<text text-anchor="middle" x="647.5" y="-282.9" font-family="Ubuntu Mono" font-size="12.00">str_utilities::i2str</text>
</a>
</g>
</g>
<!-- Node93&#45;&gt;Node100 -->
<g id="edge16" class="edge"><title>Node93&#45;&gt;Node100</title>
<path fill="none" stroke="midnightblue" d="M72.1364,-159.599C85.2807,-183.185 120.42,-240.043 167,-267 303.918,-346.238 501.525,-318.383 594.466,-298.709"/>
<polygon fill="midnightblue" stroke="midnightblue" points="595.438,-302.08 604.468,-296.537 593.953,-295.239 595.438,-302.08"/>
</g>
<!-- Node102 -->
<g id="node10" class="node"><title>Node102</title>
<g id="a_node10"><a xlink:href="namespacemessages.html#a6e6bfb084063e4cc91ee86e542043302" target="_top" xlink:title="messages::lvl_ud">
<polygon fill="white" stroke="black" points="406,-196.5 406,-217.5 519,-217.5 519,-196.5 406,-196.5"/>
<text text-anchor="middle" x="462.5" y="-203.9" font-family="Ubuntu Mono" font-size="12.00">messages::lvl_ud</text>
</a>
</g>
</g>
<!-- Node93&#45;&gt;Node102 -->
<g id="edge14" class="edge"><title>Node93&#45;&gt;Node102</title>
<path fill="none" stroke="midnightblue" d="M87.4373,-159.617C107.345,-169.154 138.41,-182.609 167,-189 244.264,-206.271 335.58,-209.249 395.817,-208.897"/>
<polygon fill="midnightblue" stroke="midnightblue" points="395.983,-212.395 405.951,-208.804 395.919,-205.396 395.983,-212.395"/>
</g>
<!-- Node103 -->
<g id="node11" class="node"><title>Node103</title>
<g id="a_node11"><a xlink:href="namespacestr__utilities.html#a92ac6c0af1979df094de1caddd28ade0" target="_top" xlink:title="str_utilities::r2str">
<polygon fill="white" stroke="black" points="188,-80.5 188,-101.5 325,-101.5 325,-80.5 188,-80.5"/>
<text text-anchor="middle" x="256.5" y="-87.9" font-family="Ubuntu Mono" font-size="12.00">str_utilities::r2str</text>
</a>
</g>
</g>
<!-- Node93&#45;&gt;Node103 -->
<g id="edge17" class="edge"><title>Node93&#45;&gt;Node103</title>
<path fill="none" stroke="midnightblue" d="M97.6289,-138.405C117.426,-131.76 143.64,-123.131 167,-116 179.899,-112.062 193.92,-108.001 206.92,-104.327"/>
<polygon fill="midnightblue" stroke="midnightblue" points="207.944,-107.675 216.626,-101.602 206.052,-100.936 207.944,-107.675"/>
</g>
<!-- Node104 -->
<g id="node12" class="node"><title>Node104</title>
<g id="a_node12"><a xlink:href="namespacestr__utilities.html#ac778d706b2e021672618939ab58fdd32" target="_top" xlink:title="str_utilities::r2strt">
<polygon fill="white" stroke="black" points="185,-40.5 185,-61.5 328,-61.5 328,-40.5 185,-40.5"/>
<text text-anchor="middle" x="256.5" y="-47.9" font-family="Ubuntu Mono" font-size="12.00">str_utilities::r2strt</text>
</a>
</g>
</g>
<!-- Node93&#45;&gt;Node104 -->
<g id="edge18" class="edge"><title>Node93&#45;&gt;Node104</title>
<path fill="none" stroke="midnightblue" d="M76.8772,-138.355C94.021,-121.411 130.052,-88.4456 167,-71 172.201,-68.5441 177.719,-66.3819 183.358,-64.4796"/>
<polygon fill="midnightblue" stroke="midnightblue" points="184.409,-67.8182 192.927,-61.5175 182.339,-61.1313 184.409,-67.8182"/>
</g>
<!-- Node105 -->
<g id="node13" class="node"><title>Node105</title>
<g id="a_node13"><a xlink:href="namespacestr__utilities.html#a308e943e5e244e3e0f852f2ecb3e3183" target="_top" xlink:title="str_utilities::c2str">
<polygon fill="white" stroke="black" points="188,-0.5 188,-21.5 325,-21.5 325,-0.5 188,-0.5"/>
<text text-anchor="middle" x="256.5" y="-7.9" font-family="Ubuntu Mono" font-size="12.00">str_utilities::c2str</text>
</a>
</g>
</g>
<!-- Node93&#45;&gt;Node105 -->
<g id="edge19" class="edge"><title>Node93&#45;&gt;Node105</title>
<path fill="none" stroke="midnightblue" d="M72.4129,-138.176C85.865,-114.641 121.175,-58.7055 167,-31 170.64,-28.7996 174.496,-26.8408 178.483,-25.0972"/>
<polygon fill="midnightblue" stroke="midnightblue" points="179.928,-28.2907 187.982,-21.4069 177.393,-21.7658 179.928,-28.2907"/>
</g>
<!-- Node106 -->
<g id="node14" class="node"><title>Node106</title>
<g id="a_node14"><a xlink:href="rich__ops_8f90.html#ac79849bfcf0a924774e4c4b601fc19d8" target="_top" xlink:title="draw_sol_val_rich">
<polygon fill="white" stroke="black" points="197,-158.5 197,-179.5 316,-179.5 316,-158.5 197,-158.5"/>
<text text-anchor="middle" x="256.5" y="-165.9" font-family="Ubuntu Mono" font-size="12.00">draw_sol_val_rich</text>
</a>
</g>
</g>
<!-- Node93&#45;&gt;Node106 -->
<g id="edge20" class="edge"><title>Node93&#45;&gt;Node106</title>
<path fill="none" stroke="midnightblue" d="M131.014,-155.827C149.06,-157.737 168.733,-159.818 187.001,-161.751"/>
<polygon fill="midnightblue" stroke="midnightblue" points="186.673,-165.236 196.985,-162.808 187.409,-158.275 186.673,-165.236"/>
</g>
<!-- Node95 -->
<g id="node3" class="node"><title>Node95</title>
<g id="a_node3"><a xlink:href="namespacevmec__vars.html#ace63f2f143043b860f7705dff7089676" target="_top" xlink:title="vmec_vars::dealloc_vmec">
<polygon fill="white" stroke="black" points="385,-276.5 385,-297.5 540,-297.5 540,-276.5 385,-276.5"/>
<text text-anchor="middle" x="462.5" y="-283.9" font-family="Ubuntu Mono" font-size="12.00">vmec_vars::dealloc_vmec</text>
</a>
</g>
</g>
<!-- Node94&#45;&gt;Node95 -->
<g id="edge2" class="edge"><title>Node94&#45;&gt;Node95</title>
<path fill="none" stroke="midnightblue" d="M311.099,-257.51C337.699,-262.725 370.016,-269.062 397.866,-274.523"/>
<polygon fill="midnightblue" stroke="midnightblue" points="397.419,-278.002 407.906,-276.491 398.766,-271.132 397.419,-278.002"/>
</g>
<!-- Node101 -->
<g id="node9" class="node"><title>Node101</title>
<g id="a_node9"><a xlink:href="namespacehelena__vars.html#add7b3eea7306eca7fb45737ff915523f" target="_top" xlink:title="helena_vars::dealloc_hel">
<polygon fill="white" stroke="black" points="382,-236.5 382,-257.5 543,-257.5 543,-236.5 382,-236.5"/>
<text text-anchor="middle" x="462.5" y="-243.9" font-family="Ubuntu Mono" font-size="12.00">helena_vars::dealloc_hel</text>
</a>
</g>
</g>
<!-- Node94&#45;&gt;Node101 -->
<g id="edge9" class="edge"><title>Node94&#45;&gt;Node101</title>
<path fill="none" stroke="midnightblue" d="M346.087,-247C354.666,-247 363.373,-247 371.961,-247"/>
<polygon fill="midnightblue" stroke="midnightblue" points="371.973,-250.5 381.973,-247 371.973,-243.5 371.973,-250.5"/>
</g>
<!-- Node96 -->
<g id="node4" class="node"><title>Node96</title>
<g id="a_node4"><a xlink:href="namespacemessages.html#a82dddaab795b78b3d39e1ff1aab2f665" target="_top" xlink:title="messages::get_mem_usage">
<polygon fill="white" stroke="black" points="752,-236.5 752,-257.5 907,-257.5 907,-236.5 752,-236.5"/>
<text text-anchor="middle" x="829.5" y="-243.9" font-family="Ubuntu Mono" font-size="12.00">messages::get_mem_usage</text>
</a>
</g>
</g>
<!-- Node95&#45;&gt;Node96 -->
<g id="edge3" class="edge"><title>Node95&#45;&gt;Node96</title>
<path fill="none" stroke="midnightblue" d="M503.065,-297.534C553.321,-309.204 642.368,-324.136 716,-306 749.165,-297.831 783.377,-277.952 805.23,-263.522"/>
<polygon fill="midnightblue" stroke="midnightblue" points="807.481,-266.225 813.801,-257.721 803.557,-260.428 807.481,-266.225"/>
</g>
<!-- Node95&#45;&gt;Node97 -->
<g id="edge4" class="edge"><title>Node95&#45;&gt;Node97</title>
<path fill="none" stroke="midnightblue" d="M514.223,-276.493C523.933,-273.853 533.902,-270.696 543,-267 571.998,-255.219 602.721,-236.516 623.09,-223.123"/>
<polygon fill="midnightblue" stroke="midnightblue" points="625.04,-226.03 631.414,-217.566 621.153,-220.208 625.04,-226.03"/>
</g>
<!-- Node95&#45;&gt;Node100 -->
<g id="edge8" class="edge"><title>Node95&#45;&gt;Node100</title>
<path fill="none" stroke="midnightblue" d="M540.048,-286.582C549.542,-286.53 559.258,-286.477 568.769,-286.425"/>
<polygon fill="midnightblue" stroke="midnightblue" points="569.01,-289.924 578.991,-286.369 568.972,-282.924 569.01,-289.924"/>
</g>
<!-- Node97&#45;&gt;Node96 -->
<g id="edge5" class="edge"><title>Node97&#45;&gt;Node96</title>
<path fill="none" stroke="midnightblue" d="M695.793,-217.51C718.955,-222.657 747.029,-228.895 771.38,-234.307"/>
<polygon fill="midnightblue" stroke="midnightblue" points="770.69,-237.739 781.211,-236.491 772.208,-230.905 770.69,-237.739"/>
</g>
<!-- Node98 -->
<g id="node6" class="node"><title>Node98</title>
<g id="a_node6"><a xlink:href="messages_8f90.html#a6d15f28783f95a7a4b2a44185619792f" target="_top" xlink:title="format_str">
<polygon fill="white" stroke="black" points="791,-196.5 791,-217.5 868,-217.5 868,-196.5 791,-196.5"/>
<text text-anchor="middle" x="829.5" y="-203.9" font-family="Ubuntu Mono" font-size="12.00">format_str</text>
</a>
</g>
</g>
<!-- Node97&#45;&gt;Node98 -->
<g id="edge6" class="edge"><title>Node97&#45;&gt;Node98</title>
<path fill="none" stroke="midnightblue" d="M701.047,-207C726.198,-207 756.099,-207 780.615,-207"/>
<polygon fill="midnightblue" stroke="midnightblue" points="780.764,-210.5 790.764,-207 780.763,-203.5 780.764,-210.5"/>
</g>
<!-- Node99 -->
<g id="node7" class="node"><title>Node99</title>
<g id="a_node7"><a xlink:href="namespacemessages.html#a61fd0b51b5e37d58fdc993c01792a3fd" target="_top" xlink:title="messages::get_clock">
<polygon fill="white" stroke="black" points="943,-196.5 943,-217.5 1074,-217.5 1074,-196.5 943,-196.5"/>
<text text-anchor="middle" x="1008.5" y="-203.9" font-family="Ubuntu Mono" font-size="12.00">messages::get_clock</text>
</a>
</g>
</g>
<!-- Node98&#45;&gt;Node99 -->
<g id="edge7" class="edge"><title>Node98&#45;&gt;Node99</title>
<path fill="none" stroke="midnightblue" d="M868.037,-207C886.869,-207 910.372,-207 932.685,-207"/>
<polygon fill="midnightblue" stroke="midnightblue" points="932.832,-210.5 942.832,-207 932.832,-203.5 932.832,-210.5"/>
</g>
<!-- Node101&#45;&gt;Node96 -->
<g id="edge10" class="edge"><title>Node101&#45;&gt;Node96</title>
<path fill="none" stroke="midnightblue" d="M543.15,-247C601.744,-247 681.34,-247 741.581,-247"/>
<polygon fill="midnightblue" stroke="midnightblue" points="741.833,-250.5 751.833,-247 741.833,-243.5 741.833,-250.5"/>
</g>
<!-- Node101&#45;&gt;Node97 -->
<g id="edge11" class="edge"><title>Node101&#45;&gt;Node97</title>
<path fill="none" stroke="midnightblue" d="M511.581,-236.49C535.129,-231.343 563.671,-225.105 588.428,-219.693"/>
<polygon fill="midnightblue" stroke="midnightblue" points="589.401,-223.063 598.423,-217.509 587.906,-216.225 589.401,-223.063"/>
</g>
<!-- Node101&#45;&gt;Node100 -->
<g id="edge12" class="edge"><title>Node101&#45;&gt;Node100</title>
<path fill="none" stroke="midnightblue" d="M513.022,-257.554C535.807,-262.41 563.025,-268.21 586.922,-273.303"/>
<polygon fill="midnightblue" stroke="midnightblue" points="586.428,-276.776 596.938,-275.438 587.887,-269.93 586.428,-276.776"/>
</g>
<!-- Node102&#45;&gt;Node97 -->
<g id="edge15" class="edge"><title>Node102&#45;&gt;Node97</title>
<path fill="none" stroke="midnightblue" d="M519.4,-207C539.725,-207 562.825,-207 583.706,-207"/>
<polygon fill="midnightblue" stroke="midnightblue" points="583.757,-210.5 593.757,-207 583.757,-203.5 583.757,-210.5"/>
</g>
<!-- Node106&#45;&gt;Node97 -->
<g id="edge21" class="edge"><title>Node106&#45;&gt;Node97</title>
<path fill="none" stroke="midnightblue" d="M316.214,-170.508C374.079,-172.51 464.915,-177.036 543,-187 557.898,-188.901 573.879,-191.638 588.72,-194.481"/>
<polygon fill="midnightblue" stroke="midnightblue" points="588.297,-197.964 598.784,-196.456 589.645,-191.095 588.297,-197.964"/>
</g>
<!-- Node106&#45;&gt;Node102 -->
<g id="edge22" class="edge"><title>Node106&#45;&gt;Node102</title>
<path fill="none" stroke="midnightblue" d="M314.054,-179.535C339.462,-184.267 369.598,-189.881 395.984,-194.796"/>
<polygon fill="midnightblue" stroke="midnightblue" points="395.423,-198.252 405.895,-196.642 396.705,-191.37 395.423,-198.252"/>
</g>
</g>
</svg>
