<?xml version="1.0" encoding="UTF-8" standalone="no"?>
<!DOCTYPE svg PUBLIC "-//W3C//DTD SVG 1.1//EN"
 "http://www.w3.org/Graphics/SVG/1.1/DTD/svg11.dtd">
<!-- Generated by graphviz version 2.38.0 (20140413.2041)
 -->
<!-- Title: mpi_utilities::redistribute_var Pages: 1 -->
<svg width="670pt" height="149pt"
 viewBox="0.00 0.00 670.00 149.00" xmlns="http://www.w3.org/2000/svg" xmlns:xlink="http://www.w3.org/1999/xlink">
<g id="graph0" class="graph" transform="scale(1 1) rotate(0) translate(4 145)">
<title>mpi_utilities::redistribute_var</title>
<polygon fill="white" stroke="none" points="-4,4 -4,-145 666,-145 666,4 -4,4"/>
<!-- Node298 -->
<g id="node1" class="node"><title>Node298</title>
<polygon fill="#bfbfbf" stroke="black" points="0,-60 0,-81 203,-81 203,-60 0,-60"/>
<text text-anchor="middle" x="101.5" y="-67.4" font-family="Ubuntu Mono" font-size="12.00">mpi_utilities::redistribute_var</text>
</g>
<!-- Node299 -->
<g id="node2" class="node"><title>Node299</title>
<g id="a_node2"><a xlink:href="namespaceeq__ops.html#adc3d3173255a02f750a4d2c0f1b30044" target="_top" xlink:title="eq_ops::redistribute\l_output_eq_1">
<polygon fill="white" stroke="black" points="245,-106.5 245,-140.5 382,-140.5 382,-106.5 245,-106.5"/>
<text text-anchor="start" x="253" y="-126.9" font-family="Ubuntu Mono" font-size="12.00">eq_ops::redistribute</text>
<text text-anchor="middle" x="313.5" y="-113.9" font-family="Ubuntu Mono" font-size="12.00">_output_eq_1</text>
</a>
</g>
</g>
<!-- Node298&#45;&gt;Node299 -->
<g id="edge1" class="edge"><title>Node298&#45;&gt;Node299</title>
<path fill="none" stroke="midnightblue" d="M154,-83.4977C181.36,-90.4027 215.332,-98.9766 244.799,-106.414"/>
<polygon fill="midnightblue" stroke="midnightblue" points="154.793,-80.088 144.24,-81.0345 153.08,-86.8752 154.793,-80.088"/>
</g>
<!-- Node300 -->
<g id="node3" class="node"><title>Node300</title>
<g id="a_node3"><a xlink:href="namespaceeq__ops.html#a34003959915249394273824108af61e0" target="_top" xlink:title="eq_ops::redistribute\l_output_eq_2">
<polygon fill="white" stroke="black" points="245,-53.5 245,-87.5 382,-87.5 382,-53.5 245,-53.5"/>
<text text-anchor="start" x="253" y="-73.9" font-family="Ubuntu Mono" font-size="12.00">eq_ops::redistribute</text>
<text text-anchor="middle" x="313.5" y="-60.9" font-family="Ubuntu Mono" font-size="12.00">_output_eq_2</text>
</a>
</g>
</g>
<!-- Node298&#45;&gt;Node300 -->
<g id="edge2" class="edge"><title>Node298&#45;&gt;Node300</title>
<path fill="none" stroke="midnightblue" d="M213.447,-70.5C224.129,-70.5 234.728,-70.5 244.801,-70.5"/>
<polygon fill="midnightblue" stroke="midnightblue" points="213.194,-67.0001 203.194,-70.5 213.194,-74.0001 213.194,-67.0001"/>
</g>
<!-- Node301 -->
<g id="node4" class="node"><title>Node301</title>
<g id="a_node4"><a xlink:href="namespacegrid__ops.html#ab10ef5b486ee3861df2da4e53bc22630" target="_top" xlink:title="grid_ops::redistribute\l_output_grid">
<polygon fill="white" stroke="black" points="239,-0.5 239,-34.5 388,-34.5 388,-0.5 239,-0.5"/>
<text text-anchor="start" x="247" y="-20.9" font-family="Ubuntu Mono" font-size="12.00">grid_ops::redistribute</text>
<text text-anchor="middle" x="313.5" y="-7.9" font-family="Ubuntu Mono" font-size="12.00">_output_grid</text>
</a>
</g>
</g>
<!-- Node298&#45;&gt;Node301 -->
<g id="edge3" class="edge"><title>Node298&#45;&gt;Node301</title>
<path fill="none" stroke="midnightblue" d="M154,-57.5023C181.36,-50.5973 215.332,-42.0234 244.799,-34.5864"/>
<polygon fill="midnightblue" stroke="midnightblue" points="153.08,-54.1248 144.24,-59.9655 154.793,-60.912 153.08,-54.1248"/>
</g>
<!-- Node302 -->
<g id="node5" class="node"><title>Node302</title>
<g id="a_node5"><a xlink:href="namespacedriver__eq.html#ac8eca434f541966edc3556d72f261eff" target="_top" xlink:title="driver_eq::run_driver_eq">
<polygon fill="white" stroke="black" points="424,-7 424,-28 585,-28 585,-7 424,-7"/>
<text text-anchor="middle" x="504.5" y="-14.4" font-family="Ubuntu Mono" font-size="12.00">driver_eq::run_driver_eq</text>
</a>
</g>
</g>
<!-- Node301&#45;&gt;Node302 -->
<g id="edge4" class="edge"><title>Node301&#45;&gt;Node302</title>
<path fill="none" stroke="midnightblue" d="M398.365,-17.5C406.831,-17.5 415.412,-17.5 423.833,-17.5"/>
<polygon fill="midnightblue" stroke="midnightblue" points="398.114,-14.0001 388.114,-17.5 398.113,-21.0001 398.114,-14.0001"/>
</g>
<!-- Node303 -->
<g id="node6" class="node"><title>Node303</title>
<g id="a_node6"><a xlink:href="PB3D_8f90.html#afaee01f014ab3398eecac996b2795fd2" target="_top" xlink:title="pb3d">
<polygon fill="white" stroke="black" points="621,-7 621,-28 662,-28 662,-7 621,-7"/>
<text text-anchor="middle" x="641.5" y="-14.4" font-family="Ubuntu Mono" font-size="12.00">pb3d</text>
</a>
</g>
</g>
<!-- Node302&#45;&gt;Node303 -->
<g id="edge5" class="edge"><title>Node302&#45;&gt;Node303</title>
<path fill="none" stroke="midnightblue" d="M595.278,-17.5C604.755,-17.5 613.571,-17.5 620.856,-17.5"/>
<polygon fill="midnightblue" stroke="midnightblue" points="595.201,-14.0001 585.201,-17.5 595.201,-21.0001 595.201,-14.0001"/>
</g>
</g>
</svg>
