<?xml version="1.0" encoding="UTF-8" standalone="no"?>
<!DOCTYPE svg PUBLIC "-//W3C//DTD SVG 1.1//EN"
 "http://www.w3.org/Graphics/SVG/1.1/DTD/svg11.dtd">
<!-- Generated by graphviz version 2.38.0 (20140413.2041)
 -->
<!-- Title: sol_ops::print_output_sol Pages: 1 -->
<svg width="1106pt" height="417pt"
 viewBox="0.00 0.00 1106.00 416.68" xmlns="http://www.w3.org/2000/svg" xmlns:xlink="http://www.w3.org/1999/xlink">
<g id="graph0" class="graph" transform="scale(1 1) rotate(0) translate(4 412.681)">
<title>sol_ops::print_output_sol</title>
<polygon fill="white" stroke="none" points="-4,4 -4,-412.681 1102,-412.681 1102,4 -4,4"/>
<!-- Node64 -->
<g id="node1" class="node"><title>Node64</title>
<polygon fill="#bfbfbf" stroke="black" points="0,-58.5 0,-79.5 167,-79.5 167,-58.5 0,-58.5"/>
<text text-anchor="middle" x="83.5" y="-65.9" font-family="Ubuntu Mono" font-size="12.00">sol_ops::print_output_sol</text>
</g>
<!-- Node65 -->
<g id="node2" class="node"><title>Node65</title>
<g id="a_node2"><a xlink:href="namespacehdf5__ops.html#a18a07099350020b44d6fbe93ed36e804" target="_top" xlink:title="hdf5_ops::print_hdf5_arrs">
<polygon fill="white" stroke="black" points="203,-180.5 203,-201.5 370,-201.5 370,-180.5 203,-180.5"/>
<text text-anchor="middle" x="286.5" y="-187.9" font-family="Ubuntu Mono" font-size="12.00">hdf5_ops::print_hdf5_arrs</text>
</a>
</g>
</g>
<!-- Node64&#45;&gt;Node65 -->
<g id="edge1" class="edge"><title>Node64&#45;&gt;Node65</title>
<path fill="none" stroke="midnightblue" d="M101.986,-79.6133C137.415,-101.118 217.835,-149.93 259.456,-175.192"/>
<polygon fill="midnightblue" stroke="midnightblue" points="257.833,-178.301 268.198,-180.498 261.465,-172.317 257.833,-178.301"/>
</g>
<!-- Node78 -->
<g id="node15" class="node"><title>Node78</title>
<g id="a_node15"><a xlink:href="namespacemessages.html#aa4a8d01563e92558e8a0875b075ec54c" target="_top" xlink:title="messages::writo">
<polygon fill="white" stroke="black" points="597,-77.5 597,-98.5 704,-98.5 704,-77.5 597,-77.5"/>
<text text-anchor="middle" x="650.5" y="-84.9" font-family="Ubuntu Mono" font-size="12.00">messages::writo</text>
</a>
</g>
</g>
<!-- Node64&#45;&gt;Node78 -->
<g id="edge29" class="edge"><title>Node64&#45;&gt;Node78</title>
<path fill="none" stroke="midnightblue" d="M167.244,-64.8616C258.104,-61.281 408.222,-58.2019 537,-69 553.673,-70.398 571.591,-72.942 588.118,-75.7236"/>
<polygon fill="midnightblue" stroke="midnightblue" points="587.753,-79.2125 598.204,-77.478 588.952,-72.3161 587.753,-79.2125"/>
</g>
<!-- Node82 -->
<g id="node19" class="node"><title>Node82</title>
<g id="a_node19"><a xlink:href="namespacemessages.html#a6e6bfb084063e4cc91ee86e542043302" target="_top" xlink:title="messages::lvl_ud">
<polygon fill="white" stroke="black" points="415,-78.5 415,-99.5 528,-99.5 528,-78.5 415,-78.5"/>
<text text-anchor="middle" x="471.5" y="-85.9" font-family="Ubuntu Mono" font-size="12.00">messages::lvl_ud</text>
</a>
</g>
</g>
<!-- Node64&#45;&gt;Node82 -->
<g id="edge30" class="edge"><title>Node64&#45;&gt;Node82</title>
<path fill="none" stroke="midnightblue" d="M167.307,-73.2905C238.274,-76.9676 339.134,-82.1935 404.695,-85.5904"/>
<polygon fill="midnightblue" stroke="midnightblue" points="404.737,-89.0972 414.904,-86.1194 405.099,-82.1065 404.737,-89.0972"/>
</g>
<!-- Node83 -->
<g id="node20" class="node"><title>Node83</title>
<g id="a_node20"><a xlink:href="namespacegrid__utilities.html#a67001ff9bbcad707aacf17f90a748d90" target="_top" xlink:title="grid_utilities::trim_grid">
<polygon fill="white" stroke="black" points="203,-0.5 203,-21.5 370,-21.5 370,-0.5 203,-0.5"/>
<text text-anchor="middle" x="286.5" y="-7.9" font-family="Ubuntu Mono" font-size="12.00">grid_utilities::trim_grid</text>
</a>
</g>
</g>
<!-- Node64&#45;&gt;Node83 -->
<g id="edge28" class="edge"><title>Node64&#45;&gt;Node83</title>
<path fill="none" stroke="midnightblue" d="M120.9,-58.4966C154.094,-48.9183 203.299,-34.7196 239.264,-24.3418"/>
<polygon fill="midnightblue" stroke="midnightblue" points="240.395,-27.6584 249.032,-21.5231 238.454,-20.9328 240.395,-27.6584"/>
</g>
<!-- Node66 -->
<g id="node3" class="node"><title>Node66</title>
<g id="a_node3"><a xlink:href="namespacempi__utilities.html#a5a789d05be41d6109c01f46cc98620c8" target="_top" xlink:title="mpi_utilities::lock\l_req_acc">
<polygon fill="white" stroke="black" points="406,-197 406,-231 537,-231 537,-197 406,-197"/>
<text text-anchor="start" x="414" y="-217.4" font-family="Ubuntu Mono" font-size="12.00">mpi_utilities::lock</text>
<text text-anchor="middle" x="471.5" y="-204.4" font-family="Ubuntu Mono" font-size="12.00">_req_acc</text>
</a>
</g>
</g>
<!-- Node65&#45;&gt;Node66 -->
<g id="edge2" class="edge"><title>Node65&#45;&gt;Node66</title>
<path fill="none" stroke="midnightblue" d="M370.166,-201.39C378.651,-202.456 387.238,-203.535 395.632,-204.59"/>
<polygon fill="midnightblue" stroke="midnightblue" points="395.396,-208.088 405.755,-205.863 396.269,-201.143 395.396,-208.088"/>
</g>
<!-- Node69 -->
<g id="node6" class="node"><title>Node69</title>
<g id="a_node6"><a xlink:href="namespacestr__utilities.html#a0b97e51770725a3e98ed393d26681414" target="_top" xlink:title="str_utilities::i2str">
<polygon fill="white" stroke="black" points="958,-335.5 958,-356.5 1095,-356.5 1095,-335.5 958,-335.5"/>
<text text-anchor="middle" x="1026.5" y="-342.9" font-family="Ubuntu Mono" font-size="12.00">str_utilities::i2str</text>
</a>
</g>
</g>
<!-- Node65&#45;&gt;Node69 -->
<g id="edge20" class="edge"><title>Node65&#45;&gt;Node69</title>
<path fill="none" stroke="midnightblue" d="M291.983,-201.65C304.83,-230.694 344.823,-311.477 406,-347 596.342,-457.524 878.256,-390.701 983.696,-359.446"/>
<polygon fill="midnightblue" stroke="midnightblue" points="984.775,-362.776 993.34,-356.54 982.755,-356.074 984.775,-362.776"/>
</g>
<!-- Node75 -->
<g id="node12" class="node"><title>Node75</title>
<g id="a_node12"><a xlink:href="namespacempi__utilities.html#a86f9982a0f92b51a916f832d9a3d8ba9" target="_top" xlink:title="mpi_utilities::lock\l_return_acc">
<polygon fill="white" stroke="black" points="406,-303 406,-337 537,-337 537,-303 406,-303"/>
<text text-anchor="start" x="414" y="-323.4" font-family="Ubuntu Mono" font-size="12.00">mpi_utilities::lock</text>
<text text-anchor="middle" x="471.5" y="-310.4" font-family="Ubuntu Mono" font-size="12.00">_return_acc</text>
</a>
</g>
</g>
<!-- Node65&#45;&gt;Node75 -->
<g id="edge14" class="edge"><title>Node65&#45;&gt;Node75</title>
<path fill="none" stroke="midnightblue" d="M297.346,-201.653C316.564,-221.938 361.132,-266.531 406,-294 408.462,-295.507 411.026,-296.959 413.652,-298.354"/>
<polygon fill="midnightblue" stroke="midnightblue" points="412.248,-301.564 422.762,-302.869 415.357,-295.292 412.248,-301.564"/>
</g>
<!-- Node76 -->
<g id="node13" class="node"><title>Node76</title>
<g id="a_node13"><a xlink:href="namespacehdf5__utilities.html#a7574320980affc30a584f7776d33a51c" target="_top" xlink:title="hdf5_utilities::set\l_1d_vars">
<polygon fill="white" stroke="black" points="406,-250 406,-284 537,-284 537,-250 406,-250"/>
<text text-anchor="start" x="414" y="-270.4" font-family="Ubuntu Mono" font-size="12.00">hdf5_utilities::set</text>
<text text-anchor="middle" x="471.5" y="-257.4" font-family="Ubuntu Mono" font-size="12.00">_1d_vars</text>
</a>
</g>
</g>
<!-- Node65&#45;&gt;Node76 -->
<g id="edge19" class="edge"><title>Node65&#45;&gt;Node76</title>
<path fill="none" stroke="midnightblue" d="M312.945,-201.567C340.505,-213.013 385.183,-231.568 419.936,-246.001"/>
<polygon fill="midnightblue" stroke="midnightblue" points="418.875,-249.35 429.453,-249.953 421.56,-242.885 418.875,-249.35"/>
</g>
<!-- Node77 -->
<g id="node14" class="node"><title>Node77</title>
<g id="a_node14"><a xlink:href="HDF5__ops_8f90.html#a9ce89bbcdaf88002bfab4d531536c989" target="_top" xlink:title="detect_ind_print">
<polygon fill="white" stroke="black" points="415,-156.5 415,-177.5 528,-177.5 528,-156.5 415,-156.5"/>
<text text-anchor="middle" x="471.5" y="-163.9" font-family="Ubuntu Mono" font-size="12.00">detect_ind_print</text>
</a>
</g>
</g>
<!-- Node65&#45;&gt;Node77 -->
<g id="edge21" class="edge"><title>Node65&#45;&gt;Node77</title>
<path fill="none" stroke="midnightblue" d="M367.766,-180.473C380.146,-178.85 392.804,-177.19 404.816,-175.614"/>
<polygon fill="midnightblue" stroke="midnightblue" points="405.273,-179.084 414.733,-174.314 404.363,-172.144 405.273,-179.084"/>
</g>
<!-- Node65&#45;&gt;Node78 -->
<g id="edge22" class="edge"><title>Node65&#45;&gt;Node78</title>
<path fill="none" stroke="midnightblue" d="M313.553,-180.316C337.363,-170.794 373.68,-156.878 406,-147 467.294,-128.266 538.699,-111.552 588.269,-100.738"/>
<polygon fill="midnightblue" stroke="midnightblue" points="589.16,-104.126 598.192,-98.5887 587.678,-97.2851 589.16,-104.126"/>
</g>
<!-- Node65&#45;&gt;Node82 -->
<g id="edge26" class="edge"><title>Node65&#45;&gt;Node82</title>
<path fill="none" stroke="midnightblue" d="M301.874,-180.255C323.599,-164.345 366.468,-134.23 406,-114 413.607,-110.107 421.969,-106.447 430.078,-103.19"/>
<polygon fill="midnightblue" stroke="midnightblue" points="431.364,-106.445 439.42,-99.5639 428.831,-99.9199 431.364,-106.445"/>
</g>
<!-- Node67 -->
<g id="node4" class="node"><title>Node67</title>
<g id="a_node4"><a xlink:href="namespacempi__utilities.html#a4c5de9472574b63c69212948d8a3f4e1" target="_top" xlink:title="mpi_utilities::lock\l_header">
<polygon fill="white" stroke="black" points="776,-232 776,-266 907,-266 907,-232 776,-232"/>
<text text-anchor="start" x="784" y="-252.4" font-family="Ubuntu Mono" font-size="12.00">mpi_utilities::lock</text>
<text text-anchor="middle" x="841.5" y="-239.4" font-family="Ubuntu Mono" font-size="12.00">_header</text>
</a>
</g>
</g>
<!-- Node66&#45;&gt;Node67 -->
<g id="edge3" class="edge"><title>Node66&#45;&gt;Node67</title>
<path fill="none" stroke="midnightblue" d="M520.333,-196.909C526.17,-193.987 531.875,-190.685 537,-187 556.689,-172.844 550.909,-156.001 573,-146 635.757,-117.588 663.79,-121.046 728,-146 767.916,-161.513 802.296,-198.53 822.205,-223.691"/>
<polygon fill="midnightblue" stroke="midnightblue" points="819.514,-225.934 828.389,-231.722 825.06,-221.663 819.514,-225.934"/>
</g>
<!-- Node70 -->
<g id="node7" class="node"><title>Node70</title>
<g id="a_node7"><a xlink:href="namespacempi__utilities.html#a0417983d618bfc9f892d6d2af5d27b1d" target="_top" xlink:title="mpi_utilities::lock\l_wl_change">
<polygon fill="white" stroke="black" points="585,-303 585,-337 716,-337 716,-303 585,-303"/>
<text text-anchor="start" x="593" y="-323.4" font-family="Ubuntu Mono" font-size="12.00">mpi_utilities::lock</text>
<text text-anchor="middle" x="650.5" y="-310.4" font-family="Ubuntu Mono" font-size="12.00">_wl_change</text>
</a>
</g>
</g>
<!-- Node66&#45;&gt;Node70 -->
<g id="edge6" class="edge"><title>Node66&#45;&gt;Node70</title>
<path fill="none" stroke="midnightblue" d="M523.431,-231.099C528.246,-233.709 532.865,-236.665 537,-240 559.166,-257.876 550.447,-275.615 573,-293 575.301,-294.773 577.727,-296.436 580.244,-297.995"/>
<polygon fill="midnightblue" stroke="midnightblue" points="578.657,-301.117 589.101,-302.903 582.05,-294.994 578.657,-301.117"/>
</g>
<!-- Node72 -->
<g id="node9" class="node"><title>Node72</title>
<g id="a_node9"><a xlink:href="namespacempi__utilities.html#a74e2e82b561f403ca8087c3925f76e29" target="_top" xlink:title="mpi_utilities::wl_empty">
<polygon fill="white" stroke="black" points="573,-262.5 573,-283.5 728,-283.5 728,-262.5 573,-262.5"/>
<text text-anchor="middle" x="650.5" y="-269.9" font-family="Ubuntu Mono" font-size="12.00">mpi_utilities::wl_empty</text>
</a>
</g>
</g>
<!-- Node66&#45;&gt;Node72 -->
<g id="edge9" class="edge"><title>Node66&#45;&gt;Node72</title>
<path fill="none" stroke="midnightblue" d="M514.987,-231.045C537.066,-239.79 561.737,-249.356 573,-253 580.347,-255.377 588.158,-257.675 595.876,-259.814"/>
<polygon fill="midnightblue" stroke="midnightblue" points="594.992,-263.201 605.559,-262.433 596.819,-256.444 594.992,-263.201"/>
</g>
<!-- Node73 -->
<g id="node10" class="node"><title>Node73</title>
<g id="a_node10"><a xlink:href="namespacempi__utilities.html#a5d2dbf8ffba124237c362f06c3d3ac32" target="_top" xlink:title="mpi_utilities::lock\l_notify">
<polygon fill="white" stroke="black" points="585,-209 585,-243 716,-243 716,-209 585,-209"/>
<text text-anchor="start" x="593" y="-229.4" font-family="Ubuntu Mono" font-size="12.00">mpi_utilities::lock</text>
<text text-anchor="middle" x="650.5" y="-216.4" font-family="Ubuntu Mono" font-size="12.00">_notify</text>
</a>
</g>
</g>
<!-- Node66&#45;&gt;Node73 -->
<g id="edge10" class="edge"><title>Node66&#45;&gt;Node73</title>
<path fill="none" stroke="midnightblue" d="M537.152,-218.383C549.265,-219.204 562.022,-220.069 574.42,-220.91"/>
<polygon fill="midnightblue" stroke="midnightblue" points="574.513,-224.424 584.727,-221.609 574.986,-217.44 574.513,-224.424"/>
</g>
<!-- Node74 -->
<g id="node11" class="node"><title>Node74</title>
<g id="a_node11"><a xlink:href="namespacempi__utilities.html#a9ec02d2ade63716189369640f0da3c5f" target="_top" xlink:title="mpi_utilities::lock\l_get_notified">
<polygon fill="white" stroke="black" points="585,-156 585,-190 716,-190 716,-156 585,-156"/>
<text text-anchor="start" x="593" y="-176.4" font-family="Ubuntu Mono" font-size="12.00">mpi_utilities::lock</text>
<text text-anchor="middle" x="650.5" y="-163.4" font-family="Ubuntu Mono" font-size="12.00">_get_notified</text>
</a>
</g>
</g>
<!-- Node66&#45;&gt;Node74 -->
<g id="edge12" class="edge"><title>Node66&#45;&gt;Node74</title>
<path fill="none" stroke="midnightblue" d="M537.152,-199.024C549.386,-196.19 562.277,-193.204 574.791,-190.305"/>
<polygon fill="midnightblue" stroke="midnightblue" points="575.774,-193.67 584.727,-188.004 574.195,-186.851 575.774,-193.67"/>
</g>
<!-- Node68 -->
<g id="node5" class="node"><title>Node68</title>
<g id="a_node5"><a xlink:href="namespacestr__utilities.html#acb8c4e66aead51f178e47fdea8d7a7db" target="_top" xlink:title="str_utilities::ii2str">
<polygon fill="white" stroke="black" points="955,-238.5 955,-259.5 1098,-259.5 1098,-238.5 955,-238.5"/>
<text text-anchor="middle" x="1026.5" y="-245.9" font-family="Ubuntu Mono" font-size="12.00">str_utilities::ii2str</text>
</a>
</g>
</g>
<!-- Node67&#45;&gt;Node68 -->
<g id="edge4" class="edge"><title>Node67&#45;&gt;Node68</title>
<path fill="none" stroke="midnightblue" d="M907.019,-249C919.199,-249 932.079,-249 944.685,-249"/>
<polygon fill="midnightblue" stroke="midnightblue" points="944.717,-252.5 954.717,-249 944.717,-245.5 944.717,-252.5"/>
</g>
<!-- Node67&#45;&gt;Node69 -->
<g id="edge5" class="edge"><title>Node67&#45;&gt;Node69</title>
<path fill="none" stroke="midnightblue" d="M874.795,-266.118C909.256,-284.385 963.352,-313.058 996.496,-330.626"/>
<polygon fill="midnightblue" stroke="midnightblue" points="995.185,-333.893 1005.66,-335.483 998.463,-327.708 995.185,-333.893"/>
</g>
<!-- Node70&#45;&gt;Node67 -->
<g id="edge7" class="edge"><title>Node70&#45;&gt;Node67</title>
<path fill="none" stroke="midnightblue" d="M700.56,-302.959C709.7,-299.706 719.155,-296.289 728,-293 747.842,-285.62 769.529,-277.219 788.519,-269.75"/>
<polygon fill="midnightblue" stroke="midnightblue" points="789.874,-272.978 797.892,-266.053 787.305,-266.466 789.874,-272.978"/>
</g>
<!-- Node71 -->
<g id="node8" class="node"><title>Node71</title>
<g id="a_node8"><a xlink:href="namespacestr__utilities.html#ac778d706b2e021672618939ab58fdd32" target="_top" xlink:title="str_utilities::r2strt">
<polygon fill="white" stroke="black" points="770,-309.5 770,-330.5 913,-330.5 913,-309.5 770,-309.5"/>
<text text-anchor="middle" x="841.5" y="-316.9" font-family="Ubuntu Mono" font-size="12.00">str_utilities::r2strt</text>
</a>
</g>
</g>
<!-- Node70&#45;&gt;Node71 -->
<g id="edge8" class="edge"><title>Node70&#45;&gt;Node71</title>
<path fill="none" stroke="midnightblue" d="M716.014,-320C730.09,-320 745.156,-320 759.772,-320"/>
<polygon fill="midnightblue" stroke="midnightblue" points="759.802,-323.5 769.802,-320 759.802,-316.5 759.802,-323.5"/>
</g>
<!-- Node73&#45;&gt;Node67 -->
<g id="edge11" class="edge"><title>Node73&#45;&gt;Node67</title>
<path fill="none" stroke="midnightblue" d="M716.014,-233.851C732.043,-235.802 749.356,-237.908 765.828,-239.913"/>
<polygon fill="midnightblue" stroke="midnightblue" points="765.606,-243.412 775.956,-241.145 766.452,-236.463 765.606,-243.412"/>
</g>
<!-- Node74&#45;&gt;Node67 -->
<g id="edge13" class="edge"><title>Node74&#45;&gt;Node67</title>
<path fill="none" stroke="midnightblue" d="M703.991,-190.137C712.075,-192.978 720.293,-195.985 728,-199 750.338,-207.739 774.711,-218.425 795.042,-227.672"/>
<polygon fill="midnightblue" stroke="midnightblue" points="793.824,-230.963 804.373,-231.943 796.737,-224.598 793.824,-230.963"/>
</g>
<!-- Node75&#45;&gt;Node67 -->
<g id="edge15" class="edge"><title>Node75&#45;&gt;Node67</title>
<path fill="none" stroke="midnightblue" d="M512.929,-337.111C565.382,-356.537 658.407,-381.357 728,-347 751.594,-335.352 744.794,-317.985 764,-300 775.265,-289.451 788.933,-279.595 801.583,-271.414"/>
<polygon fill="midnightblue" stroke="midnightblue" points="803.537,-274.32 810.135,-266.03 799.808,-268.396 803.537,-274.32"/>
</g>
<!-- Node75&#45;&gt;Node70 -->
<g id="edge16" class="edge"><title>Node75&#45;&gt;Node70</title>
<path fill="none" stroke="midnightblue" d="M537.152,-320C549.265,-320 562.022,-320 574.42,-320"/>
<polygon fill="midnightblue" stroke="midnightblue" points="574.727,-323.5 584.727,-320 574.727,-316.5 574.727,-323.5"/>
</g>
<!-- Node75&#45;&gt;Node72 -->
<g id="edge17" class="edge"><title>Node75&#45;&gt;Node72</title>
<path fill="none" stroke="midnightblue" d="M536.651,-302.965C557.461,-297.44 580.218,-291.397 599.81,-286.194"/>
<polygon fill="midnightblue" stroke="midnightblue" points="600.973,-289.507 609.74,-283.558 599.177,-282.741 600.973,-289.507"/>
</g>
<!-- Node75&#45;&gt;Node73 -->
<g id="edge18" class="edge"><title>Node75&#45;&gt;Node73</title>
<path fill="none" stroke="midnightblue" d="M522.02,-302.87C527.267,-300.235 532.371,-297.282 537,-294 556.783,-279.975 552.914,-266.588 573,-253 575.887,-251.047 578.931,-249.219 582.075,-247.51"/>
<polygon fill="midnightblue" stroke="midnightblue" points="583.748,-250.587 591.149,-243.006 580.636,-244.317 583.748,-250.587"/>
</g>
<!-- Node79 -->
<g id="node16" class="node"><title>Node79</title>
<g id="a_node16"><a xlink:href="namespacemessages.html#a82dddaab795b78b3d39e1ff1aab2f665" target="_top" xlink:title="messages::get_mem_usage">
<polygon fill="white" stroke="black" points="764,-57.5 764,-78.5 919,-78.5 919,-57.5 764,-57.5"/>
<text text-anchor="middle" x="841.5" y="-64.9" font-family="Ubuntu Mono" font-size="12.00">messages::get_mem_usage</text>
</a>
</g>
</g>
<!-- Node78&#45;&gt;Node79 -->
<g id="edge23" class="edge"><title>Node78&#45;&gt;Node79</title>
<path fill="none" stroke="midnightblue" d="M704.147,-82.4289C719.434,-80.8113 736.551,-78.9999 753.356,-77.2215"/>
<polygon fill="midnightblue" stroke="midnightblue" points="754.184,-80.6536 763.761,-76.1206 753.448,-73.6924 754.184,-80.6536"/>
</g>
<!-- Node80 -->
<g id="node17" class="node"><title>Node80</title>
<g id="a_node17"><a xlink:href="messages_8f90.html#a6d15f28783f95a7a4b2a44185619792f" target="_top" xlink:title="format_str">
<polygon fill="white" stroke="black" points="803,-97.5 803,-118.5 880,-118.5 880,-97.5 803,-97.5"/>
<text text-anchor="middle" x="841.5" y="-104.9" font-family="Ubuntu Mono" font-size="12.00">format_str</text>
</a>
</g>
</g>
<!-- Node78&#45;&gt;Node80 -->
<g id="edge24" class="edge"><title>Node78&#45;&gt;Node80</title>
<path fill="none" stroke="midnightblue" d="M704.147,-93.5711C731.944,-96.5126 765.795,-100.095 792.814,-102.954"/>
<polygon fill="midnightblue" stroke="midnightblue" points="792.495,-106.44 802.808,-104.011 793.232,-99.4785 792.495,-106.44"/>
</g>
<!-- Node81 -->
<g id="node18" class="node"><title>Node81</title>
<g id="a_node18"><a xlink:href="namespacemessages.html#a61fd0b51b5e37d58fdc993c01792a3fd" target="_top" xlink:title="messages::get_clock">
<polygon fill="white" stroke="black" points="961,-97.5 961,-118.5 1092,-118.5 1092,-97.5 961,-97.5"/>
<text text-anchor="middle" x="1026.5" y="-104.9" font-family="Ubuntu Mono" font-size="12.00">messages::get_clock</text>
</a>
</g>
</g>
<!-- Node80&#45;&gt;Node81 -->
<g id="edge25" class="edge"><title>Node80&#45;&gt;Node81</title>
<path fill="none" stroke="midnightblue" d="M880.418,-108C900.754,-108 926.542,-108 950.719,-108"/>
<polygon fill="midnightblue" stroke="midnightblue" points="950.961,-111.5 960.961,-108 950.961,-104.5 950.961,-111.5"/>
</g>
<!-- Node82&#45;&gt;Node78 -->
<g id="edge27" class="edge"><title>Node82&#45;&gt;Node78</title>
<path fill="none" stroke="midnightblue" d="M528.018,-88.6863C546.667,-88.581 567.595,-88.4627 586.759,-88.3545"/>
<polygon fill="midnightblue" stroke="midnightblue" points="586.917,-91.8537 596.897,-88.2972 586.877,-84.8538 586.917,-91.8537"/>
</g>
</g>
</svg>
