<?xml version="1.0" encoding="UTF-8" standalone="no"?>
<!DOCTYPE svg PUBLIC "-//W3C//DTD SVG 1.1//EN"
 "http://www.w3.org/Graphics/SVG/1.1/DTD/svg11.dtd">
<!-- Generated by graphviz version 2.38.0 (20140413.2041)
 -->
<!-- Title: grid_ops::print_output_grid Pages: 1 -->
<svg width="1118pt" height="417pt"
 viewBox="0.00 0.00 1118.00 416.68" xmlns="http://www.w3.org/2000/svg" xmlns:xlink="http://www.w3.org/1999/xlink">
<g id="graph0" class="graph" transform="scale(1 1) rotate(0) translate(4 412.681)">
<title>grid_ops::print_output_grid</title>
<polygon fill="white" stroke="none" points="-4,4 -4,-412.681 1114,-412.681 1114,4 -4,4"/>
<!-- Node64 -->
<g id="node1" class="node"><title>Node64</title>
<polygon fill="#bfbfbf" stroke="black" points="0,-58.5 0,-79.5 179,-79.5 179,-58.5 0,-58.5"/>
<text text-anchor="middle" x="89.5" y="-65.9" font-family="Ubuntu Mono" font-size="12.00">grid_ops::print_output_grid</text>
</g>
<!-- Node65 -->
<g id="node2" class="node"><title>Node65</title>
<g id="a_node2"><a xlink:href="namespacehdf5__ops.html#a18a07099350020b44d6fbe93ed36e804" target="_top" xlink:title="hdf5_ops::print_hdf5_arrs">
<polygon fill="white" stroke="black" points="215,-180.5 215,-201.5 382,-201.5 382,-180.5 215,-180.5"/>
<text text-anchor="middle" x="298.5" y="-187.9" font-family="Ubuntu Mono" font-size="12.00">hdf5_ops::print_hdf5_arrs</text>
</a>
</g>
</g>
<!-- Node64&#45;&gt;Node65 -->
<g id="edge1" class="edge"><title>Node64&#45;&gt;Node65</title>
<path fill="none" stroke="midnightblue" d="M108.508,-79.6133C145.072,-101.163 228.163,-150.135 270.948,-175.351"/>
<polygon fill="midnightblue" stroke="midnightblue" points="269.289,-178.436 279.681,-180.498 272.843,-172.405 269.289,-178.436"/>
</g>
<!-- Node78 -->
<g id="node15" class="node"><title>Node78</title>
<g id="a_node15"><a xlink:href="namespacemessages.html#aa4a8d01563e92558e8a0875b075ec54c" target="_top" xlink:title="messages::writo">
<polygon fill="white" stroke="black" points="609,-77.5 609,-98.5 716,-98.5 716,-77.5 609,-77.5"/>
<text text-anchor="middle" x="662.5" y="-84.9" font-family="Ubuntu Mono" font-size="12.00">messages::writo</text>
</a>
</g>
</g>
<!-- Node64&#45;&gt;Node78 -->
<g id="edge29" class="edge"><title>Node64&#45;&gt;Node78</title>
<path fill="none" stroke="midnightblue" d="M179.008,-64.6253C271.485,-61.0783 420.696,-58.2416 549,-69 565.673,-70.398 583.591,-72.942 600.118,-75.7236"/>
<polygon fill="midnightblue" stroke="midnightblue" points="599.753,-79.2125 610.204,-77.478 600.952,-72.3161 599.753,-79.2125"/>
</g>
<!-- Node82 -->
<g id="node19" class="node"><title>Node82</title>
<g id="a_node19"><a xlink:href="namespacemessages.html#a6e6bfb084063e4cc91ee86e542043302" target="_top" xlink:title="messages::lvl_ud">
<polygon fill="white" stroke="black" points="427,-78.5 427,-99.5 540,-99.5 540,-78.5 427,-78.5"/>
<text text-anchor="middle" x="483.5" y="-85.9" font-family="Ubuntu Mono" font-size="12.00">messages::lvl_ud</text>
</a>
</g>
</g>
<!-- Node64&#45;&gt;Node82 -->
<g id="edge30" class="edge"><title>Node64&#45;&gt;Node82</title>
<path fill="none" stroke="midnightblue" d="M179.451,-73.5383C251.603,-77.2196 351.675,-82.3253 416.75,-85.6454"/>
<polygon fill="midnightblue" stroke="midnightblue" points="416.718,-89.1483 426.884,-86.1624 417.075,-82.1573 416.718,-89.1483"/>
</g>
<!-- Node83 -->
<g id="node20" class="node"><title>Node83</title>
<g id="a_node20"><a xlink:href="namespacegrid__utilities.html#a67001ff9bbcad707aacf17f90a748d90" target="_top" xlink:title="grid_utilities::trim_grid">
<polygon fill="white" stroke="black" points="215,-0.5 215,-21.5 382,-21.5 382,-0.5 215,-0.5"/>
<text text-anchor="middle" x="298.5" y="-7.9" font-family="Ubuntu Mono" font-size="12.00">grid_utilities::trim_grid</text>
</a>
</g>
</g>
<!-- Node64&#45;&gt;Node83 -->
<g id="edge28" class="edge"><title>Node64&#45;&gt;Node83</title>
<path fill="none" stroke="midnightblue" d="M127.986,-58.4966C162.171,-48.9183 212.846,-34.7196 249.884,-24.3418"/>
<polygon fill="midnightblue" stroke="midnightblue" points="251.259,-27.5914 259.944,-21.5231 249.37,-20.8509 251.259,-27.5914"/>
</g>
<!-- Node66 -->
<g id="node3" class="node"><title>Node66</title>
<g id="a_node3"><a xlink:href="namespacempi__utilities.html#a5a789d05be41d6109c01f46cc98620c8" target="_top" xlink:title="mpi_utilities::lock\l_req_acc">
<polygon fill="white" stroke="black" points="418,-197 418,-231 549,-231 549,-197 418,-197"/>
<text text-anchor="start" x="426" y="-217.4" font-family="Ubuntu Mono" font-size="12.00">mpi_utilities::lock</text>
<text text-anchor="middle" x="483.5" y="-204.4" font-family="Ubuntu Mono" font-size="12.00">_req_acc</text>
</a>
</g>
</g>
<!-- Node65&#45;&gt;Node66 -->
<g id="edge2" class="edge"><title>Node65&#45;&gt;Node66</title>
<path fill="none" stroke="midnightblue" d="M382.166,-201.39C390.651,-202.456 399.238,-203.535 407.632,-204.59"/>
<polygon fill="midnightblue" stroke="midnightblue" points="407.396,-208.088 417.755,-205.863 408.269,-201.143 407.396,-208.088"/>
</g>
<!-- Node69 -->
<g id="node6" class="node"><title>Node69</title>
<g id="a_node6"><a xlink:href="namespacestr__utilities.html#a0b97e51770725a3e98ed393d26681414" target="_top" xlink:title="str_utilities::i2str">
<polygon fill="white" stroke="black" points="970,-335.5 970,-356.5 1107,-356.5 1107,-335.5 970,-335.5"/>
<text text-anchor="middle" x="1038.5" y="-342.9" font-family="Ubuntu Mono" font-size="12.00">str_utilities::i2str</text>
</a>
</g>
</g>
<!-- Node65&#45;&gt;Node69 -->
<g id="edge20" class="edge"><title>Node65&#45;&gt;Node69</title>
<path fill="none" stroke="midnightblue" d="M303.983,-201.65C316.83,-230.694 356.823,-311.477 418,-347 608.342,-457.524 890.256,-390.701 995.696,-359.446"/>
<polygon fill="midnightblue" stroke="midnightblue" points="996.775,-362.776 1005.34,-356.54 994.755,-356.074 996.775,-362.776"/>
</g>
<!-- Node75 -->
<g id="node12" class="node"><title>Node75</title>
<g id="a_node12"><a xlink:href="namespacempi__utilities.html#a86f9982a0f92b51a916f832d9a3d8ba9" target="_top" xlink:title="mpi_utilities::lock\l_return_acc">
<polygon fill="white" stroke="black" points="418,-303 418,-337 549,-337 549,-303 418,-303"/>
<text text-anchor="start" x="426" y="-323.4" font-family="Ubuntu Mono" font-size="12.00">mpi_utilities::lock</text>
<text text-anchor="middle" x="483.5" y="-310.4" font-family="Ubuntu Mono" font-size="12.00">_return_acc</text>
</a>
</g>
</g>
<!-- Node65&#45;&gt;Node75 -->
<g id="edge14" class="edge"><title>Node65&#45;&gt;Node75</title>
<path fill="none" stroke="midnightblue" d="M309.346,-201.653C328.564,-221.938 373.132,-266.531 418,-294 420.462,-295.507 423.026,-296.959 425.652,-298.354"/>
<polygon fill="midnightblue" stroke="midnightblue" points="424.248,-301.564 434.762,-302.869 427.357,-295.292 424.248,-301.564"/>
</g>
<!-- Node76 -->
<g id="node13" class="node"><title>Node76</title>
<g id="a_node13"><a xlink:href="namespacehdf5__utilities.html#a7574320980affc30a584f7776d33a51c" target="_top" xlink:title="hdf5_utilities::set\l_1d_vars">
<polygon fill="white" stroke="black" points="418,-250 418,-284 549,-284 549,-250 418,-250"/>
<text text-anchor="start" x="426" y="-270.4" font-family="Ubuntu Mono" font-size="12.00">hdf5_utilities::set</text>
<text text-anchor="middle" x="483.5" y="-257.4" font-family="Ubuntu Mono" font-size="12.00">_1d_vars</text>
</a>
</g>
</g>
<!-- Node65&#45;&gt;Node76 -->
<g id="edge19" class="edge"><title>Node65&#45;&gt;Node76</title>
<path fill="none" stroke="midnightblue" d="M324.945,-201.567C352.505,-213.013 397.183,-231.568 431.936,-246.001"/>
<polygon fill="midnightblue" stroke="midnightblue" points="430.875,-249.35 441.453,-249.953 433.56,-242.885 430.875,-249.35"/>
</g>
<!-- Node77 -->
<g id="node14" class="node"><title>Node77</title>
<g id="a_node14"><a xlink:href="HDF5__ops_8f90.html#a9ce89bbcdaf88002bfab4d531536c989" target="_top" xlink:title="detect_ind_print">
<polygon fill="white" stroke="black" points="427,-156.5 427,-177.5 540,-177.5 540,-156.5 427,-156.5"/>
<text text-anchor="middle" x="483.5" y="-163.9" font-family="Ubuntu Mono" font-size="12.00">detect_ind_print</text>
</a>
</g>
</g>
<!-- Node65&#45;&gt;Node77 -->
<g id="edge21" class="edge"><title>Node65&#45;&gt;Node77</title>
<path fill="none" stroke="midnightblue" d="M379.766,-180.473C392.146,-178.85 404.804,-177.19 416.816,-175.614"/>
<polygon fill="midnightblue" stroke="midnightblue" points="417.273,-179.084 426.733,-174.314 416.363,-172.144 417.273,-179.084"/>
</g>
<!-- Node65&#45;&gt;Node78 -->
<g id="edge22" class="edge"><title>Node65&#45;&gt;Node78</title>
<path fill="none" stroke="midnightblue" d="M325.553,-180.316C349.363,-170.794 385.68,-156.878 418,-147 479.294,-128.266 550.699,-111.552 600.269,-100.738"/>
<polygon fill="midnightblue" stroke="midnightblue" points="601.16,-104.126 610.192,-98.5887 599.678,-97.2851 601.16,-104.126"/>
</g>
<!-- Node65&#45;&gt;Node82 -->
<g id="edge26" class="edge"><title>Node65&#45;&gt;Node82</title>
<path fill="none" stroke="midnightblue" d="M313.874,-180.255C335.599,-164.345 378.468,-134.23 418,-114 425.607,-110.107 433.969,-106.447 442.078,-103.19"/>
<polygon fill="midnightblue" stroke="midnightblue" points="443.364,-106.445 451.42,-99.5639 440.831,-99.9199 443.364,-106.445"/>
</g>
<!-- Node67 -->
<g id="node4" class="node"><title>Node67</title>
<g id="a_node4"><a xlink:href="namespacempi__utilities.html#a4c5de9472574b63c69212948d8a3f4e1" target="_top" xlink:title="mpi_utilities::lock\l_header">
<polygon fill="white" stroke="black" points="788,-232 788,-266 919,-266 919,-232 788,-232"/>
<text text-anchor="start" x="796" y="-252.4" font-family="Ubuntu Mono" font-size="12.00">mpi_utilities::lock</text>
<text text-anchor="middle" x="853.5" y="-239.4" font-family="Ubuntu Mono" font-size="12.00">_header</text>
</a>
</g>
</g>
<!-- Node66&#45;&gt;Node67 -->
<g id="edge3" class="edge"><title>Node66&#45;&gt;Node67</title>
<path fill="none" stroke="midnightblue" d="M532.333,-196.909C538.17,-193.987 543.875,-190.685 549,-187 568.689,-172.844 562.909,-156.001 585,-146 647.757,-117.588 675.79,-121.046 740,-146 779.916,-161.513 814.296,-198.53 834.205,-223.691"/>
<polygon fill="midnightblue" stroke="midnightblue" points="831.514,-225.934 840.389,-231.722 837.06,-221.663 831.514,-225.934"/>
</g>
<!-- Node70 -->
<g id="node7" class="node"><title>Node70</title>
<g id="a_node7"><a xlink:href="namespacempi__utilities.html#a0417983d618bfc9f892d6d2af5d27b1d" target="_top" xlink:title="mpi_utilities::lock\l_wl_change">
<polygon fill="white" stroke="black" points="597,-303 597,-337 728,-337 728,-303 597,-303"/>
<text text-anchor="start" x="605" y="-323.4" font-family="Ubuntu Mono" font-size="12.00">mpi_utilities::lock</text>
<text text-anchor="middle" x="662.5" y="-310.4" font-family="Ubuntu Mono" font-size="12.00">_wl_change</text>
</a>
</g>
</g>
<!-- Node66&#45;&gt;Node70 -->
<g id="edge6" class="edge"><title>Node66&#45;&gt;Node70</title>
<path fill="none" stroke="midnightblue" d="M535.431,-231.099C540.246,-233.709 544.865,-236.665 549,-240 571.166,-257.876 562.447,-275.615 585,-293 587.301,-294.773 589.727,-296.436 592.244,-297.995"/>
<polygon fill="midnightblue" stroke="midnightblue" points="590.657,-301.117 601.101,-302.903 594.05,-294.994 590.657,-301.117"/>
</g>
<!-- Node72 -->
<g id="node9" class="node"><title>Node72</title>
<g id="a_node9"><a xlink:href="namespacempi__utilities.html#a74e2e82b561f403ca8087c3925f76e29" target="_top" xlink:title="mpi_utilities::wl_empty">
<polygon fill="white" stroke="black" points="585,-262.5 585,-283.5 740,-283.5 740,-262.5 585,-262.5"/>
<text text-anchor="middle" x="662.5" y="-269.9" font-family="Ubuntu Mono" font-size="12.00">mpi_utilities::wl_empty</text>
</a>
</g>
</g>
<!-- Node66&#45;&gt;Node72 -->
<g id="edge9" class="edge"><title>Node66&#45;&gt;Node72</title>
<path fill="none" stroke="midnightblue" d="M526.987,-231.045C549.066,-239.79 573.737,-249.356 585,-253 592.347,-255.377 600.158,-257.675 607.876,-259.814"/>
<polygon fill="midnightblue" stroke="midnightblue" points="606.992,-263.201 617.559,-262.433 608.819,-256.444 606.992,-263.201"/>
</g>
<!-- Node73 -->
<g id="node10" class="node"><title>Node73</title>
<g id="a_node10"><a xlink:href="namespacempi__utilities.html#a5d2dbf8ffba124237c362f06c3d3ac32" target="_top" xlink:title="mpi_utilities::lock\l_notify">
<polygon fill="white" stroke="black" points="597,-209 597,-243 728,-243 728,-209 597,-209"/>
<text text-anchor="start" x="605" y="-229.4" font-family="Ubuntu Mono" font-size="12.00">mpi_utilities::lock</text>
<text text-anchor="middle" x="662.5" y="-216.4" font-family="Ubuntu Mono" font-size="12.00">_notify</text>
</a>
</g>
</g>
<!-- Node66&#45;&gt;Node73 -->
<g id="edge10" class="edge"><title>Node66&#45;&gt;Node73</title>
<path fill="none" stroke="midnightblue" d="M549.152,-218.383C561.265,-219.204 574.022,-220.069 586.42,-220.91"/>
<polygon fill="midnightblue" stroke="midnightblue" points="586.513,-224.424 596.727,-221.609 586.986,-217.44 586.513,-224.424"/>
</g>
<!-- Node74 -->
<g id="node11" class="node"><title>Node74</title>
<g id="a_node11"><a xlink:href="namespacempi__utilities.html#a9ec02d2ade63716189369640f0da3c5f" target="_top" xlink:title="mpi_utilities::lock\l_get_notified">
<polygon fill="white" stroke="black" points="597,-156 597,-190 728,-190 728,-156 597,-156"/>
<text text-anchor="start" x="605" y="-176.4" font-family="Ubuntu Mono" font-size="12.00">mpi_utilities::lock</text>
<text text-anchor="middle" x="662.5" y="-163.4" font-family="Ubuntu Mono" font-size="12.00">_get_notified</text>
</a>
</g>
</g>
<!-- Node66&#45;&gt;Node74 -->
<g id="edge12" class="edge"><title>Node66&#45;&gt;Node74</title>
<path fill="none" stroke="midnightblue" d="M549.152,-199.024C561.386,-196.19 574.277,-193.204 586.791,-190.305"/>
<polygon fill="midnightblue" stroke="midnightblue" points="587.774,-193.67 596.727,-188.004 586.195,-186.851 587.774,-193.67"/>
</g>
<!-- Node68 -->
<g id="node5" class="node"><title>Node68</title>
<g id="a_node5"><a xlink:href="namespacestr__utilities.html#acb8c4e66aead51f178e47fdea8d7a7db" target="_top" xlink:title="str_utilities::ii2str">
<polygon fill="white" stroke="black" points="967,-238.5 967,-259.5 1110,-259.5 1110,-238.5 967,-238.5"/>
<text text-anchor="middle" x="1038.5" y="-245.9" font-family="Ubuntu Mono" font-size="12.00">str_utilities::ii2str</text>
</a>
</g>
</g>
<!-- Node67&#45;&gt;Node68 -->
<g id="edge4" class="edge"><title>Node67&#45;&gt;Node68</title>
<path fill="none" stroke="midnightblue" d="M919.019,-249C931.199,-249 944.079,-249 956.685,-249"/>
<polygon fill="midnightblue" stroke="midnightblue" points="956.717,-252.5 966.717,-249 956.717,-245.5 956.717,-252.5"/>
</g>
<!-- Node67&#45;&gt;Node69 -->
<g id="edge5" class="edge"><title>Node67&#45;&gt;Node69</title>
<path fill="none" stroke="midnightblue" d="M886.795,-266.118C921.256,-284.385 975.352,-313.058 1008.5,-330.626"/>
<polygon fill="midnightblue" stroke="midnightblue" points="1007.18,-333.893 1017.66,-335.483 1010.46,-327.708 1007.18,-333.893"/>
</g>
<!-- Node70&#45;&gt;Node67 -->
<g id="edge7" class="edge"><title>Node70&#45;&gt;Node67</title>
<path fill="none" stroke="midnightblue" d="M712.56,-302.959C721.7,-299.706 731.155,-296.289 740,-293 759.842,-285.62 781.529,-277.219 800.519,-269.75"/>
<polygon fill="midnightblue" stroke="midnightblue" points="801.874,-272.978 809.892,-266.053 799.305,-266.466 801.874,-272.978"/>
</g>
<!-- Node71 -->
<g id="node8" class="node"><title>Node71</title>
<g id="a_node8"><a xlink:href="namespacestr__utilities.html#ac778d706b2e021672618939ab58fdd32" target="_top" xlink:title="str_utilities::r2strt">
<polygon fill="white" stroke="black" points="782,-309.5 782,-330.5 925,-330.5 925,-309.5 782,-309.5"/>
<text text-anchor="middle" x="853.5" y="-316.9" font-family="Ubuntu Mono" font-size="12.00">str_utilities::r2strt</text>
</a>
</g>
</g>
<!-- Node70&#45;&gt;Node71 -->
<g id="edge8" class="edge"><title>Node70&#45;&gt;Node71</title>
<path fill="none" stroke="midnightblue" d="M728.014,-320C742.09,-320 757.156,-320 771.772,-320"/>
<polygon fill="midnightblue" stroke="midnightblue" points="771.802,-323.5 781.802,-320 771.802,-316.5 771.802,-323.5"/>
</g>
<!-- Node73&#45;&gt;Node67 -->
<g id="edge11" class="edge"><title>Node73&#45;&gt;Node67</title>
<path fill="none" stroke="midnightblue" d="M728.014,-233.851C744.043,-235.802 761.356,-237.908 777.828,-239.913"/>
<polygon fill="midnightblue" stroke="midnightblue" points="777.606,-243.412 787.956,-241.145 778.452,-236.463 777.606,-243.412"/>
</g>
<!-- Node74&#45;&gt;Node67 -->
<g id="edge13" class="edge"><title>Node74&#45;&gt;Node67</title>
<path fill="none" stroke="midnightblue" d="M715.991,-190.137C724.075,-192.978 732.293,-195.985 740,-199 762.338,-207.739 786.711,-218.425 807.042,-227.672"/>
<polygon fill="midnightblue" stroke="midnightblue" points="805.824,-230.963 816.373,-231.943 808.737,-224.598 805.824,-230.963"/>
</g>
<!-- Node75&#45;&gt;Node67 -->
<g id="edge15" class="edge"><title>Node75&#45;&gt;Node67</title>
<path fill="none" stroke="midnightblue" d="M524.929,-337.111C577.382,-356.537 670.407,-381.357 740,-347 763.594,-335.352 756.794,-317.985 776,-300 787.265,-289.451 800.933,-279.595 813.583,-271.414"/>
<polygon fill="midnightblue" stroke="midnightblue" points="815.537,-274.32 822.135,-266.03 811.808,-268.396 815.537,-274.32"/>
</g>
<!-- Node75&#45;&gt;Node70 -->
<g id="edge16" class="edge"><title>Node75&#45;&gt;Node70</title>
<path fill="none" stroke="midnightblue" d="M549.152,-320C561.265,-320 574.022,-320 586.42,-320"/>
<polygon fill="midnightblue" stroke="midnightblue" points="586.727,-323.5 596.727,-320 586.727,-316.5 586.727,-323.5"/>
</g>
<!-- Node75&#45;&gt;Node72 -->
<g id="edge17" class="edge"><title>Node75&#45;&gt;Node72</title>
<path fill="none" stroke="midnightblue" d="M548.651,-302.965C569.461,-297.44 592.218,-291.397 611.81,-286.194"/>
<polygon fill="midnightblue" stroke="midnightblue" points="612.973,-289.507 621.74,-283.558 611.177,-282.741 612.973,-289.507"/>
</g>
<!-- Node75&#45;&gt;Node73 -->
<g id="edge18" class="edge"><title>Node75&#45;&gt;Node73</title>
<path fill="none" stroke="midnightblue" d="M534.02,-302.87C539.267,-300.235 544.371,-297.282 549,-294 568.783,-279.975 564.914,-266.588 585,-253 587.887,-251.047 590.931,-249.219 594.075,-247.51"/>
<polygon fill="midnightblue" stroke="midnightblue" points="595.748,-250.587 603.149,-243.006 592.636,-244.317 595.748,-250.587"/>
</g>
<!-- Node79 -->
<g id="node16" class="node"><title>Node79</title>
<g id="a_node16"><a xlink:href="namespacemessages.html#a82dddaab795b78b3d39e1ff1aab2f665" target="_top" xlink:title="messages::get_mem_usage">
<polygon fill="white" stroke="black" points="776,-57.5 776,-78.5 931,-78.5 931,-57.5 776,-57.5"/>
<text text-anchor="middle" x="853.5" y="-64.9" font-family="Ubuntu Mono" font-size="12.00">messages::get_mem_usage</text>
</a>
</g>
</g>
<!-- Node78&#45;&gt;Node79 -->
<g id="edge23" class="edge"><title>Node78&#45;&gt;Node79</title>
<path fill="none" stroke="midnightblue" d="M716.147,-82.4289C731.434,-80.8113 748.551,-78.9999 765.356,-77.2215"/>
<polygon fill="midnightblue" stroke="midnightblue" points="766.184,-80.6536 775.761,-76.1206 765.448,-73.6924 766.184,-80.6536"/>
</g>
<!-- Node80 -->
<g id="node17" class="node"><title>Node80</title>
<g id="a_node17"><a xlink:href="messages_8f90.html#a6d15f28783f95a7a4b2a44185619792f" target="_top" xlink:title="format_str">
<polygon fill="white" stroke="black" points="815,-97.5 815,-118.5 892,-118.5 892,-97.5 815,-97.5"/>
<text text-anchor="middle" x="853.5" y="-104.9" font-family="Ubuntu Mono" font-size="12.00">format_str</text>
</a>
</g>
</g>
<!-- Node78&#45;&gt;Node80 -->
<g id="edge24" class="edge"><title>Node78&#45;&gt;Node80</title>
<path fill="none" stroke="midnightblue" d="M716.147,-93.5711C743.944,-96.5126 777.795,-100.095 804.814,-102.954"/>
<polygon fill="midnightblue" stroke="midnightblue" points="804.495,-106.44 814.808,-104.011 805.232,-99.4785 804.495,-106.44"/>
</g>
<!-- Node81 -->
<g id="node18" class="node"><title>Node81</title>
<g id="a_node18"><a xlink:href="namespacemessages.html#a61fd0b51b5e37d58fdc993c01792a3fd" target="_top" xlink:title="messages::get_clock">
<polygon fill="white" stroke="black" points="973,-97.5 973,-118.5 1104,-118.5 1104,-97.5 973,-97.5"/>
<text text-anchor="middle" x="1038.5" y="-104.9" font-family="Ubuntu Mono" font-size="12.00">messages::get_clock</text>
</a>
</g>
</g>
<!-- Node80&#45;&gt;Node81 -->
<g id="edge25" class="edge"><title>Node80&#45;&gt;Node81</title>
<path fill="none" stroke="midnightblue" d="M892.418,-108C912.754,-108 938.542,-108 962.719,-108"/>
<polygon fill="midnightblue" stroke="midnightblue" points="962.961,-111.5 972.961,-108 962.961,-104.5 962.961,-111.5"/>
</g>
<!-- Node82&#45;&gt;Node78 -->
<g id="edge27" class="edge"><title>Node82&#45;&gt;Node78</title>
<path fill="none" stroke="midnightblue" d="M540.018,-88.6863C558.667,-88.581 579.595,-88.4627 598.759,-88.3545"/>
<polygon fill="midnightblue" stroke="midnightblue" points="598.917,-91.8537 608.897,-88.2972 598.877,-84.8538 598.917,-91.8537"/>
</g>
</g>
</svg>
