<?xml version="1.0" encoding="UTF-8" standalone="no"?>
<!DOCTYPE svg PUBLIC "-//W3C//DTD SVG 1.1//EN"
 "http://www.w3.org/Graphics/SVG/1.1/DTD/svg11.dtd">
<!-- Generated by graphviz version 2.38.0 (20140413.2041)
 -->
<!-- Title: eq_ops::calc_normalization_const Pages: 1 -->
<svg width="688pt" height="149pt"
 viewBox="0.00 0.00 688.00 149.00" xmlns="http://www.w3.org/2000/svg" xmlns:xlink="http://www.w3.org/1999/xlink">
<g id="graph0" class="graph" transform="scale(1 1) rotate(0) translate(4 145)">
<title>eq_ops::calc_normalization_const</title>
<polygon fill="white" stroke="none" points="-4,4 -4,-145 684,-145 684,4 -4,4"/>
<!-- Node44 -->
<g id="node1" class="node"><title>Node44</title>
<polygon fill="#bfbfbf" stroke="black" points="0,-54 0,-88 173,-88 173,-54 0,-54"/>
<text text-anchor="start" x="8" y="-74.4" font-family="Ubuntu Mono" font-size="12.00">eq_ops::calc_normalization</text>
<text text-anchor="middle" x="86.5" y="-61.4" font-family="Ubuntu Mono" font-size="12.00">_const</text>
</g>
<!-- Node45 -->
<g id="node2" class="node"><title>Node45</title>
<g id="a_node2"><a xlink:href="namespacemessages.html#aa4a8d01563e92558e8a0875b075ec54c" target="_top" xlink:title="Write output to file identified by output_i. ">
<polygon fill="white" stroke="black" points="382,-99.5 382,-120.5 489,-120.5 489,-99.5 382,-99.5"/>
<text text-anchor="middle" x="435.5" y="-106.9" font-family="Ubuntu Mono" font-size="12.00">messages::writo</text>
</a>
</g>
</g>
<!-- Node44&#45;&gt;Node45 -->
<g id="edge1" class="edge"><title>Node44&#45;&gt;Node45</title>
<path fill="none" stroke="midnightblue" d="M128.3,-88.0409C151.507,-96.8099 181.372,-106.569 209,-111 269.121,-120.642 285.112,-111.344 346,-111 354.283,-110.953 363.002,-110.882 371.605,-110.798"/>
<polygon fill="midnightblue" stroke="midnightblue" points="371.656,-114.298 381.62,-110.695 371.584,-107.298 371.656,-114.298"/>
</g>
<!-- Node48 -->
<g id="node5" class="node"><title>Node48</title>
<g id="a_node5"><a xlink:href="namespacemessages.html#a6e6bfb084063e4cc91ee86e542043302" target="_top" xlink:title="Increases/decreases lvl of output. ">
<polygon fill="white" stroke="black" points="221,-80.5 221,-101.5 334,-101.5 334,-80.5 221,-80.5"/>
<text text-anchor="middle" x="277.5" y="-87.9" font-family="Ubuntu Mono" font-size="12.00">messages::lvl_ud</text>
</a>
</g>
</g>
<!-- Node44&#45;&gt;Node48 -->
<g id="edge4" class="edge"><title>Node44&#45;&gt;Node48</title>
<path fill="none" stroke="midnightblue" d="M173.152,-80.0637C185.819,-81.4041 198.699,-82.7671 210.873,-84.0553"/>
<polygon fill="midnightblue" stroke="midnightblue" points="210.599,-87.5458 220.912,-85.1176 211.335,-80.5846 210.599,-87.5458"/>
</g>
<!-- Node49 -->
<g id="node6" class="node"><title>Node49</title>
<g id="a_node6"><a xlink:href="namespacestr__utilities.html#a0b97e51770725a3e98ed393d26681414" target="_top" xlink:title="Convert an integer to string. ">
<polygon fill="white" stroke="black" points="209,-40.5 209,-61.5 346,-61.5 346,-40.5 209,-40.5"/>
<text text-anchor="middle" x="277.5" y="-47.9" font-family="Ubuntu Mono" font-size="12.00">str_utilities::i2str</text>
</a>
</g>
</g>
<!-- Node44&#45;&gt;Node49 -->
<g id="edge6" class="edge"><title>Node44&#45;&gt;Node49</title>
<path fill="none" stroke="midnightblue" d="M173.152,-61.9363C181.693,-61.0325 190.331,-60.1184 198.784,-59.2239"/>
<polygon fill="midnightblue" stroke="midnightblue" points="199.408,-62.6775 208.984,-58.1446 198.671,-55.7164 199.408,-62.6775"/>
</g>
<!-- Node50 -->
<g id="node7" class="node"><title>Node50</title>
<g id="a_node7"><a xlink:href="namespacestr__utilities.html#a92ac6c0af1979df094de1caddd28ade0" target="_top" xlink:title="Convert a real (double) to string. ">
<polygon fill="white" stroke="black" points="209,-0.5 209,-21.5 346,-21.5 346,-0.5 209,-0.5"/>
<text text-anchor="middle" x="277.5" y="-7.9" font-family="Ubuntu Mono" font-size="12.00">str_utilities::r2str</text>
</a>
</g>
</g>
<!-- Node44&#45;&gt;Node50 -->
<g id="edge7" class="edge"><title>Node44&#45;&gt;Node50</title>
<path fill="none" stroke="midnightblue" d="M138.23,-53.9226C159.974,-46.7006 185.685,-38.2901 209,-31 215.897,-28.8434 223.209,-26.6161 230.376,-24.4659"/>
<polygon fill="midnightblue" stroke="midnightblue" points="231.423,-27.806 240.007,-21.5953 229.424,-21.0976 231.423,-27.806"/>
</g>
<!-- Node46 -->
<g id="node3" class="node"><title>Node46</title>
<g id="a_node3"><a xlink:href="namespacemessages.html#a82dddaab795b78b3d39e1ff1aab2f665" target="_top" xlink:title="Returns the memory usage in kilobytes. ">
<polygon fill="white" stroke="black" points="525,-119.5 525,-140.5 680,-140.5 680,-119.5 525,-119.5"/>
<text text-anchor="middle" x="602.5" y="-126.9" font-family="Ubuntu Mono" font-size="12.00">messages::get_mem_usage</text>
</a>
</g>
</g>
<!-- Node45&#45;&gt;Node46 -->
<g id="edge2" class="edge"><title>Node45&#45;&gt;Node46</title>
<path fill="none" stroke="midnightblue" d="M489.161,-116.383C497.452,-117.388 506.208,-118.449 515.025,-119.518"/>
<polygon fill="midnightblue" stroke="midnightblue" points="514.635,-122.996 524.984,-120.725 515.478,-116.047 514.635,-122.996"/>
</g>
<!-- Node47 -->
<g id="node4" class="node"><title>Node47</title>
<g id="a_node4"><a xlink:href="namespacemessages.html#a61fd0b51b5e37d58fdc993c01792a3fd" target="_top" xlink:title="Returns the time. ">
<polygon fill="white" stroke="black" points="537,-79.5 537,-100.5 668,-100.5 668,-79.5 537,-79.5"/>
<text text-anchor="middle" x="602.5" y="-86.9" font-family="Ubuntu Mono" font-size="12.00">messages::get_clock</text>
</a>
</g>
</g>
<!-- Node45&#45;&gt;Node47 -->
<g id="edge3" class="edge"><title>Node45&#45;&gt;Node47</title>
<path fill="none" stroke="midnightblue" d="M489.161,-103.617C501.142,-102.165 514.094,-100.595 526.797,-99.0549"/>
<polygon fill="midnightblue" stroke="midnightblue" points="527.402,-102.507 536.908,-97.8293 526.56,-95.5581 527.402,-102.507"/>
</g>
<!-- Node48&#45;&gt;Node45 -->
<g id="edge5" class="edge"><title>Node48&#45;&gt;Node45</title>
<path fill="none" stroke="midnightblue" d="M334.379,-97.8058C346.468,-99.2782 359.331,-100.845 371.667,-102.347"/>
<polygon fill="midnightblue" stroke="midnightblue" points="371.527,-105.856 381.877,-103.591 372.373,-98.9073 371.527,-105.856"/>
</g>
</g>
</svg>
