<?xml version="1.0" encoding="UTF-8" standalone="no"?>
<!DOCTYPE svg PUBLIC "-//W3C//DTD SVG 1.1//EN"
 "http://www.w3.org/Graphics/SVG/1.1/DTD/svg11.dtd">
<!-- Generated by graphviz version 2.38.0 (20140413.2041)
 -->
<!-- Title: files_utilities::delete_file Pages: 1 -->
<svg width="455pt" height="30pt"
 viewBox="0.00 0.00 455.00 30.00" xmlns="http://www.w3.org/2000/svg" xmlns:xlink="http://www.w3.org/1999/xlink">
<g id="graph0" class="graph" transform="scale(1 1) rotate(0) translate(4 26)">
<title>files_utilities::delete_file</title>
<polygon fill="white" stroke="none" points="-4,4 -4,-26 451,-26 451,4 -4,4"/>
<!-- Node6 -->
<g id="node1" class="node"><title>Node6</title>
<polygon fill="#bfbfbf" stroke="black" points="0,-0.5 0,-21.5 185,-21.5 185,-0.5 0,-0.5"/>
<text text-anchor="middle" x="92.5" y="-7.9" font-family="Ubuntu Mono" font-size="12.00">files_utilities::delete_file</text>
</g>
<!-- Node7 -->
<g id="node2" class="node"><title>Node7</title>
<g id="a_node2"><a xlink:href="namespacedriver__x.html#ada3d72a0929daaa5e3da585246d62281" target="_top" xlink:title="Main driver of PB3D perturbation part. ">
<polygon fill="white" stroke="black" points="221,-0.5 221,-21.5 370,-21.5 370,-0.5 221,-0.5"/>
<text text-anchor="middle" x="295.5" y="-7.9" font-family="Ubuntu Mono" font-size="12.00">driver_x::run_driver_x</text>
</a>
</g>
</g>
<!-- Node6&#45;&gt;Node7 -->
<g id="edge1" class="edge"><title>Node6&#45;&gt;Node7</title>
<path fill="none" stroke="midnightblue" d="M195.248,-11C203.835,-11 212.41,-11 220.722,-11"/>
<polygon fill="midnightblue" stroke="midnightblue" points="195.177,-7.5001 185.177,-11 195.177,-14.5001 195.177,-7.5001"/>
</g>
<!-- Node8 -->
<g id="node3" class="node"><title>Node8</title>
<g id="a_node3"><a xlink:href="PB3D_8f90.html#afaee01f014ab3398eecac996b2795fd2" target="_top" xlink:title="Peeling Ballooning in 3D. ">
<polygon fill="white" stroke="black" points="406,-0.5 406,-21.5 447,-21.5 447,-0.5 406,-0.5"/>
<text text-anchor="middle" x="426.5" y="-7.9" font-family="Ubuntu Mono" font-size="12.00">pb3d</text>
</a>
</g>
</g>
<!-- Node7&#45;&gt;Node8 -->
<g id="edge2" class="edge"><title>Node7&#45;&gt;Node8</title>
<path fill="none" stroke="midnightblue" d="M380.141,-11C389.656,-11 398.56,-11 405.916,-11"/>
<polygon fill="midnightblue" stroke="midnightblue" points="380.044,-7.5001 370.044,-11 380.044,-14.5001 380.044,-7.5001"/>
</g>
</g>
</svg>
