<?xml version="1.0" encoding="UTF-8" standalone="no"?>
<!DOCTYPE svg PUBLIC "-//W3C//DTD SVG 1.1//EN"
 "http://www.w3.org/Graphics/SVG/1.1/DTD/svg11.dtd">
<!-- Generated by graphviz version 2.43.0 (0)
 -->
<!-- Title: pb3d_ops::reconstruct_pb3d_x_2 Pages: 1 -->
<svg width="618pt" height="56pt"
 viewBox="0.00 0.00 618.00 55.50" xmlns="http://www.w3.org/2000/svg" xmlns:xlink="http://www.w3.org/1999/xlink">
<g id="graph0" class="graph" transform="scale(1 1) rotate(0) translate(4 51.5)">
<title>pb3d_ops::reconstruct_pb3d_x_2</title>
<polygon fill="white" stroke="transparent" points="-4,4 -4,-51.5 614,-51.5 614,4 -4,4"/>
<!-- Node1 -->
<g id="node1" class="node">
<title>Node1</title>
<g id="a_node1"><a xlink:title="Reconstructs the tensorial perturbation variables from PB3D HDF5 output.">
<polygon fill="#bfbfbf" stroke="black" points="461,-13 461,-47 610,-47 610,-13 461,-13"/>
<text text-anchor="start" x="469" y="-33.4" font-family="Ubuntu Mono" font-size="12.00">pb3d_ops::reconstruct</text>
<text text-anchor="middle" x="535.5" y="-20.4" font-family="Ubuntu Mono" font-size="12.00">_pb3d_x_2</text>
</a>
</g>
</g>
<!-- Node2 -->
<g id="node2" class="node">
<title>Node2</title>
<g id="a_node2"><a xlink:href="namespacedriver__x.html#ada3d72a0929daaa5e3da585246d62281" target="_top" xlink:title="Main driver of PB3D perturbation part.">
<polygon fill="white" stroke="black" points="83,-19.5 83,-40.5 229,-40.5 229,-19.5 83,-19.5"/>
<text text-anchor="middle" x="156" y="-26.9" font-family="Ubuntu Mono" font-size="12.00">driver_x::run_driver_x</text>
</a>
</g>
</g>
<!-- Node1&#45;&gt;Node2 -->
<g id="edge1" class="edge">
<title>Node1&#45;&gt;Node2</title>
<path fill="none" stroke="midnightblue" d="M450.71,-30.84C442.03,-30.91 433.34,-30.96 425,-31 353.89,-31.32 336.11,-31.33 265,-31 253.37,-30.95 241.05,-30.86 229.04,-30.76"/>
<polygon fill="midnightblue" stroke="midnightblue" points="450.9,-34.34 460.87,-30.76 450.85,-27.34 450.9,-34.34"/>
</g>
<!-- Node4 -->
<g id="node4" class="node">
<title>Node4</title>
<g id="a_node4"><a xlink:href="namespacedriver__x.html#ad3924b3d66f336f0a9a9559eafffec8e" target="_top" xlink:title="Part 2 of driver_X: Tensorial jobs.">
<polygon fill="white" stroke="black" points="265,-0.5 265,-21.5 425,-21.5 425,-0.5 265,-0.5"/>
<text text-anchor="middle" x="345" y="-7.9" font-family="Ubuntu Mono" font-size="12.00">driver_x::run_driver_x_2</text>
</a>
</g>
</g>
<!-- Node1&#45;&gt;Node4 -->
<g id="edge3" class="edge">
<title>Node1&#45;&gt;Node4</title>
<path fill="none" stroke="midnightblue" d="M450.6,-21.54C442.17,-20.69 433.62,-19.83 425.24,-18.99"/>
<polygon fill="midnightblue" stroke="midnightblue" points="450.51,-25.05 460.81,-22.57 451.21,-18.09 450.51,-25.05"/>
</g>
<!-- Node3 -->
<g id="node3" class="node">
<title>Node3</title>
<g id="a_node3"><a xlink:href="PB3D_8f90.html#afaee01f014ab3398eecac996b2795fd2" target="_top" xlink:title="Peeling Ballooning in 3D.">
<polygon fill="white" stroke="black" points="0,-19.5 0,-40.5 47,-40.5 47,-19.5 0,-19.5"/>
<text text-anchor="middle" x="23.5" y="-26.9" font-family="Ubuntu Mono" font-size="12.00">pb3d</text>
</a>
</g>
</g>
<!-- Node2&#45;&gt;Node3 -->
<g id="edge2" class="edge">
<title>Node2&#45;&gt;Node3</title>
<path fill="none" stroke="midnightblue" d="M72.66,-30C63.39,-30 54.61,-30 47.15,-30"/>
<polygon fill="midnightblue" stroke="midnightblue" points="72.88,-33.5 82.88,-30 72.88,-26.5 72.88,-33.5"/>
</g>
<!-- Node4&#45;&gt;Node2 -->
<g id="edge4" class="edge">
<title>Node4&#45;&gt;Node2</title>
<path fill="none" stroke="midnightblue" d="M254.9,-20.05C246.29,-20.93 237.63,-21.81 229.21,-22.66"/>
<polygon fill="midnightblue" stroke="midnightblue" points="255.37,-23.52 264.97,-19.03 254.66,-16.56 255.37,-23.52"/>
</g>
</g>
</svg>
