<?xml version="1.0" encoding="UTF-8" standalone="no"?>
<!DOCTYPE svg PUBLIC "-//W3C//DTD SVG 1.1//EN"
 "http://www.w3.org/Graphics/SVG/1.1/DTD/svg11.dtd">
<!-- Generated by graphviz version 2.38.0 (20140413.2041)
 -->
<!-- Title: num_utilities::calc_ext_var Pages: 1 -->
<svg width="819pt" height="123pt"
 viewBox="0.00 0.00 819.00 122.82" xmlns="http://www.w3.org/2000/svg" xmlns:xlink="http://www.w3.org/1999/xlink">
<g id="graph0" class="graph" transform="scale(1 1) rotate(0) translate(4 118.824)">
<title>num_utilities::calc_ext_var</title>
<polygon fill="white" stroke="none" points="-4,4 -4,-118.824 815,-118.824 815,4 -4,4"/>
<!-- Node91 -->
<g id="node1" class="node"><title>Node91</title>
<polygon fill="#bfbfbf" stroke="black" points="0,-27.8243 0,-61.8243 131,-61.8243 131,-27.8243 0,-27.8243"/>
<text text-anchor="start" x="8" y="-48.2243" font-family="Ubuntu Mono" font-size="12.00">num_utilities::calc</text>
<text text-anchor="middle" x="65.5" y="-35.2243" font-family="Ubuntu Mono" font-size="12.00">_ext_var</text>
</g>
<!-- Node92 -->
<g id="node2" class="node"><title>Node92</title>
<g id="a_node2"><a xlink:href="namespacestr__utilities.html#a0b97e51770725a3e98ed393d26681414" target="_top" xlink:title="Convert an integer to string. ">
<polygon fill="white" stroke="black" points="167,-93.3243 167,-114.324 304,-114.324 304,-93.3243 167,-93.3243"/>
<text text-anchor="middle" x="235.5" y="-100.724" font-family="Ubuntu Mono" font-size="12.00">str_utilities::i2str</text>
</a>
</g>
</g>
<!-- Node91&#45;&gt;Node92 -->
<g id="edge1" class="edge"><title>Node91&#45;&gt;Node92</title>
<path fill="none" stroke="midnightblue" d="M115.093,-61.8896C140.474,-70.8033 171.135,-81.5711 195.032,-89.9634"/>
<polygon fill="midnightblue" stroke="midnightblue" points="193.897,-93.2746 204.492,-93.2859 196.217,-86.67 193.897,-93.2746"/>
</g>
<!-- Node93 -->
<g id="node3" class="node"><title>Node93</title>
<g id="a_node3"><a xlink:href="namespacemessages.html#aa4a8d01563e92558e8a0875b075ec54c" target="_top" xlink:title="Write output to file identified by output_i. ">
<polygon fill="white" stroke="black" points="513,-34.3243 513,-55.3243 620,-55.3243 620,-34.3243 513,-34.3243"/>
<text text-anchor="middle" x="566.5" y="-41.7243" font-family="Ubuntu Mono" font-size="12.00">messages::writo</text>
</a>
</g>
</g>
<!-- Node91&#45;&gt;Node93 -->
<g id="edge2" class="edge"><title>Node91&#45;&gt;Node93</title>
<path fill="none" stroke="midnightblue" d="M131.105,-45.5621C143.04,-45.6714 155.397,-45.7666 167,-45.8243 304.776,-46.5098 339.224,-46.6027 477,-45.8243 485.283,-45.7776 494.002,-45.7061 502.605,-45.6225"/>
<polygon fill="midnightblue" stroke="midnightblue" points="502.656,-49.1223 512.62,-45.5195 502.584,-42.1226 502.656,-49.1223"/>
</g>
<!-- Node96 -->
<g id="node6" class="node"><title>Node96</title>
<g id="a_node6"><a xlink:href="namespacemessages.html#a80797cedef6112b8dccaeda431f0c610" target="_top" xlink:title="Print an array of dimension 2 on the screen. ">
<polygon fill="white" stroke="black" points="167,-15.3243 167,-36.3243 304,-36.3243 304,-15.3243 167,-15.3243"/>
<text text-anchor="middle" x="235.5" y="-22.7243" font-family="Ubuntu Mono" font-size="12.00">messages::print_ar_2</text>
</a>
</g>
</g>
<!-- Node91&#45;&gt;Node96 -->
<g id="edge5" class="edge"><title>Node91&#45;&gt;Node96</title>
<path fill="none" stroke="midnightblue" d="M131.453,-37.4785C139.815,-36.5327 148.443,-35.557 156.981,-34.5914"/>
<polygon fill="midnightblue" stroke="midnightblue" points="157.398,-38.0666 166.941,-33.4649 156.611,-31.1109 157.398,-38.0666"/>
</g>
<!-- Node97 -->
<g id="node7" class="node"><title>Node97</title>
<g id="a_node7"><a xlink:href="namespacemessages.html#a5686118397930f505259225f3688216b" target="_top" xlink:title="Print an array of dimension 1 on the screen. ">
<polygon fill="white" stroke="black" points="340,-15.3243 340,-36.3243 477,-36.3243 477,-15.3243 340,-15.3243"/>
<text text-anchor="middle" x="408.5" y="-22.7243" font-family="Ubuntu Mono" font-size="12.00">messages::print_ar_1</text>
</a>
</g>
</g>
<!-- Node91&#45;&gt;Node97 -->
<g id="edge8" class="edge"><title>Node91&#45;&gt;Node97</title>
<path fill="none" stroke="midnightblue" d="M100.91,-27.8171C119.897,-19.3788 144.189,-10.0952 167,-5.82435 230.63,6.08903 305.061,-3.66386 354.075,-13.2693"/>
<polygon fill="midnightblue" stroke="midnightblue" points="353.639,-16.7521 364.135,-15.3089 355.03,-9.89165 353.639,-16.7521"/>
</g>
<!-- Node94 -->
<g id="node4" class="node"><title>Node94</title>
<g id="a_node4"><a xlink:href="namespacemessages.html#a82dddaab795b78b3d39e1ff1aab2f665" target="_top" xlink:title="Returns the memory usage in kilobytes. ">
<polygon fill="white" stroke="black" points="656,-54.3243 656,-75.3243 811,-75.3243 811,-54.3243 656,-54.3243"/>
<text text-anchor="middle" x="733.5" y="-61.7243" font-family="Ubuntu Mono" font-size="12.00">messages::get_mem_usage</text>
</a>
</g>
</g>
<!-- Node93&#45;&gt;Node94 -->
<g id="edge3" class="edge"><title>Node93&#45;&gt;Node94</title>
<path fill="none" stroke="midnightblue" d="M620.161,-51.2075C628.452,-52.2125 637.208,-53.2738 646.025,-54.3426"/>
<polygon fill="midnightblue" stroke="midnightblue" points="645.635,-57.8208 655.984,-55.5497 646.478,-50.8717 645.635,-57.8208"/>
</g>
<!-- Node95 -->
<g id="node5" class="node"><title>Node95</title>
<g id="a_node5"><a xlink:href="namespacemessages.html#a61fd0b51b5e37d58fdc993c01792a3fd" target="_top" xlink:title="Returns the time. ">
<polygon fill="white" stroke="black" points="668,-14.3243 668,-35.3243 799,-35.3243 799,-14.3243 668,-14.3243"/>
<text text-anchor="middle" x="733.5" y="-21.7243" font-family="Ubuntu Mono" font-size="12.00">messages::get_clock</text>
</a>
</g>
</g>
<!-- Node93&#45;&gt;Node95 -->
<g id="edge4" class="edge"><title>Node93&#45;&gt;Node95</title>
<path fill="none" stroke="midnightblue" d="M620.161,-38.4412C632.142,-36.9889 645.094,-35.419 657.797,-33.8792"/>
<polygon fill="midnightblue" stroke="midnightblue" points="658.402,-37.3316 667.908,-32.6537 657.56,-30.3825 658.402,-37.3316"/>
</g>
<!-- Node96&#45;&gt;Node97 -->
<g id="edge6" class="edge"><title>Node96&#45;&gt;Node97</title>
<path fill="none" stroke="midnightblue" d="M304.084,-25.8243C312.538,-25.8243 321.237,-25.8243 329.83,-25.8243"/>
<polygon fill="midnightblue" stroke="midnightblue" points="329.847,-29.3244 339.847,-25.8243 329.847,-22.3244 329.847,-29.3244"/>
</g>
<!-- Node97&#45;&gt;Node93 -->
<g id="edge7" class="edge"><title>Node97&#45;&gt;Node93</title>
<path fill="none" stroke="midnightblue" d="M477.017,-34.0475C485.564,-35.0885 494.282,-36.1504 502.751,-37.1818"/>
<polygon fill="midnightblue" stroke="midnightblue" points="502.579,-40.6866 512.928,-38.4214 503.425,-33.738 502.579,-40.6866"/>
</g>
</g>
</svg>
