<?xml version="1.0" encoding="UTF-8" standalone="no"?>
<!DOCTYPE svg PUBLIC "-//W3C//DTD SVG 1.1//EN"
 "http://www.w3.org/Graphics/SVG/1.1/DTD/svg11.dtd">
<!-- Generated by graphviz version 2.43.0 (0)
 -->
<!-- Title: str_utilities::c2strt Pages: 1 -->
<svg width="804pt" height="117pt"
 viewBox="0.00 0.00 804.00 116.50" xmlns="http://www.w3.org/2000/svg" xmlns:xlink="http://www.w3.org/1999/xlink">
<g id="graph0" class="graph" transform="scale(1 1) rotate(0) translate(4 112.5)">
<title>str_utilities::c2strt</title>
<polygon fill="white" stroke="transparent" points="-4,4 -4,-112.5 800,-112.5 800,4 -4,4"/>
<!-- Node1 -->
<g id="node1" class="node">
<title>Node1</title>
<g id="a_node1"><a xlink:title="Convert a complex (double) to string.">
<polygon fill="#bfbfbf" stroke="black" points="674,-47 674,-68 796,-68 796,-47 674,-47"/>
<text text-anchor="middle" x="735" y="-54.4" font-family="Ubuntu Mono" font-size="12.00">str_utilities::c2strt</text>
</a>
</g>
</g>
<!-- Node2 -->
<g id="node2" class="node">
<title>Node2</title>
<g id="a_node2"><a xlink:href="namespacedriver__post.html#af527706d4e696d4e507443d2f74194ef" target="_top" xlink:title="Initializes the POST driver.">
<polygon fill="white" stroke="black" points="476,-87 476,-108 616,-108 616,-87 476,-87"/>
<text text-anchor="middle" x="546" y="-94.4" font-family="Ubuntu Mono" font-size="12.00">driver_post::init_post</text>
</a>
</g>
</g>
<!-- Node1&#45;&gt;Node2 -->
<g id="edge1" class="edge">
<title>Node1&#45;&gt;Node2</title>
<path fill="none" stroke="midnightblue" d="M674.99,-70.12C649.62,-75.55 620.3,-81.82 596.13,-86.99"/>
<polygon fill="midnightblue" stroke="midnightblue" points="675.82,-73.52 684.87,-68.01 674.36,-66.68 675.82,-73.52"/>
</g>
<!-- Node4 -->
<g id="node4" class="node">
<title>Node4</title>
<g id="a_node4"><a xlink:href="namespacedriver__post.html#a33b3c6f9018a0ddc92dce77394b8ab37" target="_top" xlink:title="The main driver routine for postprocessing.">
<polygon fill="white" stroke="black" points="454,-47 454,-68 638,-68 638,-47 454,-47"/>
<text text-anchor="middle" x="546" y="-54.4" font-family="Ubuntu Mono" font-size="12.00">driver_post::run_driver_post</text>
</a>
</g>
</g>
<!-- Node1&#45;&gt;Node4 -->
<g id="edge3" class="edge">
<title>Node1&#45;&gt;Node4</title>
<path fill="none" stroke="midnightblue" d="M663.72,-57.5C655.34,-57.5 646.68,-57.5 638.06,-57.5"/>
<polygon fill="midnightblue" stroke="midnightblue" points="663.8,-61 673.8,-57.5 663.8,-54 663.8,-61"/>
</g>
<!-- Node5 -->
<g id="node5" class="node">
<title>Node5</title>
<g id="a_node5"><a xlink:href="namespaceslepc__ops.html#a24d97496000ed55f1d11e4d436e084a6" target="_top" xlink:title="Stores the results.">
<polygon fill="white" stroke="black" points="467.5,-7 467.5,-28 624.5,-28 624.5,-7 467.5,-7"/>
<text text-anchor="middle" x="546" y="-14.4" font-family="Ubuntu Mono" font-size="12.00">slepc_ops::store_results</text>
</a>
</g>
</g>
<!-- Node1&#45;&gt;Node5 -->
<g id="edge5" class="edge">
<title>Node1&#45;&gt;Node5</title>
<path fill="none" stroke="midnightblue" d="M674.99,-44.88C649.62,-39.45 620.3,-33.18 596.13,-28.01"/>
<polygon fill="midnightblue" stroke="midnightblue" points="674.36,-48.32 684.87,-46.99 675.82,-41.48 674.36,-48.32"/>
</g>
<!-- Node3 -->
<g id="node3" class="node">
<title>Node3</title>
<g id="a_node3"><a xlink:href="POST_8f90.html#ac289b64ac4671fea0b4f2298ba1188a1" target="_top" xlink:title="Peeling Ballooning in 3D: postprocessing.">
<polygon fill="white" stroke="black" points="330.5,-70 330.5,-91 372.5,-91 372.5,-70 330.5,-70"/>
<text text-anchor="middle" x="351.5" y="-77.4" font-family="Ubuntu Mono" font-size="12.00">post</text>
</a>
</g>
</g>
<!-- Node2&#45;&gt;Node3 -->
<g id="edge2" class="edge">
<title>Node2&#45;&gt;Node3</title>
<path fill="none" stroke="midnightblue" d="M465.4,-90.47C431.61,-87.49 395,-84.25 372.91,-82.3"/>
<polygon fill="midnightblue" stroke="midnightblue" points="465.51,-93.99 475.78,-91.39 466.12,-87.02 465.51,-93.99"/>
</g>
<!-- Node4&#45;&gt;Node3 -->
<g id="edge4" class="edge">
<title>Node4&#45;&gt;Node3</title>
<path fill="none" stroke="midnightblue" d="M446.93,-69.22C418.69,-72.59 390.65,-75.94 372.55,-78.1"/>
<polygon fill="midnightblue" stroke="midnightblue" points="447.4,-72.69 456.92,-68.02 446.57,-65.74 447.4,-72.69"/>
</g>
<!-- Node6 -->
<g id="node6" class="node">
<title>Node6</title>
<g id="a_node6"><a xlink:href="namespaceslepc__ops.html#a79c420987056c225931b51c8d30ece1f" target="_top" xlink:title="Solve the eigenvalue system using SLEPC.">
<polygon fill="white" stroke="black" points="285,-0.5 285,-34.5 418,-34.5 418,-0.5 285,-0.5"/>
<text text-anchor="start" x="293" y="-20.9" font-family="Ubuntu Mono" font-size="12.00">slepc_ops::solve_ev</text>
<text text-anchor="middle" x="351.5" y="-7.9" font-family="Ubuntu Mono" font-size="12.00">_system_slepc</text>
</a>
</g>
</g>
<!-- Node5&#45;&gt;Node6 -->
<g id="edge6" class="edge">
<title>Node5&#45;&gt;Node6</title>
<path fill="none" stroke="midnightblue" d="M456.88,-17.5C443.86,-17.5 430.64,-17.5 418.18,-17.5"/>
<polygon fill="midnightblue" stroke="midnightblue" points="457.26,-21 467.26,-17.5 457.26,-14 457.26,-21"/>
</g>
<!-- Node7 -->
<g id="node7" class="node">
<title>Node7</title>
<g id="a_node7"><a xlink:href="namespacedriver__sol.html#ad3b1765b3ecc5f82129bfc683ffc6c5c" target="_top" xlink:title="Main driver of PB3D solution part.">
<polygon fill="white" stroke="black" points="83,-7 83,-28 249,-28 249,-7 83,-7"/>
<text text-anchor="middle" x="166" y="-14.4" font-family="Ubuntu Mono" font-size="12.00">driver_sol::run_driver_sol</text>
</a>
</g>
</g>
<!-- Node6&#45;&gt;Node7 -->
<g id="edge7" class="edge">
<title>Node6&#45;&gt;Node7</title>
<path fill="none" stroke="midnightblue" d="M274.65,-17.5C266.27,-17.5 257.7,-17.5 249.24,-17.5"/>
<polygon fill="midnightblue" stroke="midnightblue" points="274.77,-21 284.77,-17.5 274.77,-14 274.77,-21"/>
</g>
<!-- Node8 -->
<g id="node8" class="node">
<title>Node8</title>
<g id="a_node8"><a xlink:href="PB3D_8f90.html#afaee01f014ab3398eecac996b2795fd2" target="_top" xlink:title="Peeling Ballooning in 3D.">
<polygon fill="white" stroke="black" points="0,-7 0,-28 47,-28 47,-7 0,-7"/>
<text text-anchor="middle" x="23.5" y="-14.4" font-family="Ubuntu Mono" font-size="12.00">pb3d</text>
</a>
</g>
</g>
<!-- Node7&#45;&gt;Node8 -->
<g id="edge8" class="edge">
<title>Node7&#45;&gt;Node8</title>
<path fill="none" stroke="midnightblue" d="M72.59,-17.5C63.29,-17.5 54.57,-17.5 47.18,-17.5"/>
<polygon fill="midnightblue" stroke="midnightblue" points="72.86,-21 82.86,-17.5 72.86,-14 72.86,-21"/>
</g>
</g>
</svg>
