<?xml version="1.0" encoding="UTF-8" standalone="no"?>
<!DOCTYPE svg PUBLIC "-//W3C//DTD SVG 1.1//EN"
 "http://www.w3.org/Graphics/SVG/1.1/DTD/svg11.dtd">
<!-- Generated by graphviz version 2.38.0 (20140413.2041)
 -->
<!-- Title: str_utilities::strh2l Pages: 1 -->
<svg width="1058pt" height="561pt"
 viewBox="0.00 0.00 1058.00 560.97" xmlns="http://www.w3.org/2000/svg" xmlns:xlink="http://www.w3.org/1999/xlink">
<g id="graph0" class="graph" transform="scale(1 1) rotate(0) translate(4 556.966)">
<title>str_utilities::strh2l</title>
<polygon fill="white" stroke="none" points="-4,4 -4,-556.966 1054,-556.966 1054,4 -4,4"/>
<!-- Node429 -->
<g id="node1" class="node"><title>Node429</title>
<polygon fill="#bfbfbf" stroke="black" points="0,-280.5 0,-301.5 143,-301.5 143,-280.5 0,-280.5"/>
<text text-anchor="middle" x="71.5" y="-287.9" font-family="Ubuntu Mono" font-size="12.00">str_utilities::strh2l</text>
</g>
<!-- Node430 -->
<g id="node2" class="node"><title>Node430</title>
<g id="a_node2"><a xlink:href="namespaceinput__utilities.html#ad9ce824c30b32041ab70f3fb191f06db" target="_top" xlink:title="Queries for a logical value yes or no, where the default answer is also to be provided. ">
<polygon fill="white" stroke="black" points="179,-280.5 179,-301.5 340,-301.5 340,-280.5 179,-280.5"/>
<text text-anchor="middle" x="259.5" y="-287.9" font-family="Ubuntu Mono" font-size="12.00">input_utilities::get_log</text>
</a>
</g>
</g>
<!-- Node429&#45;&gt;Node430 -->
<g id="edge1" class="edge"><title>Node429&#45;&gt;Node430</title>
<path fill="none" stroke="midnightblue" d="M153.351,-291C161.839,-291 170.465,-291 178.94,-291"/>
<polygon fill="midnightblue" stroke="midnightblue" points="153.084,-287.5 143.084,-291 153.084,-294.5 153.084,-287.5"/>
</g>
<!-- Node431 -->
<g id="node3" class="node"><title>Node431</title>
<g id="a_node3"><a xlink:href="namespacedriver__eq.html#adc9d5dff288fa512e5ef885627d940cc" target="_top" xlink:title="Main driver of PB3D equilibrium part. ">
<polygon fill="white" stroke="black" points="800,-217.5 800,-238.5 961,-238.5 961,-217.5 800,-217.5"/>
<text text-anchor="middle" x="880.5" y="-224.9" font-family="Ubuntu Mono" font-size="12.00">driver_eq::run_driver_eq</text>
</a>
</g>
</g>
<!-- Node430&#45;&gt;Node431 -->
<g id="edge2" class="edge"><title>Node430&#45;&gt;Node431</title>
<path fill="none" stroke="midnightblue" d="M275.925,-272.789C296.202,-250.412 334.187,-213.617 376,-199 544.199,-140.199 763.15,-193.207 845.88,-217.422"/>
<polygon fill="midnightblue" stroke="midnightblue" points="273.277,-270.5 269.281,-280.313 278.524,-275.134 273.277,-270.5"/>
</g>
<!-- Node433 -->
<g id="node5" class="node"><title>Node433</title>
<g id="a_node5"><a xlink:href="namespacedriver__x.html#a454779cefa6da3714d32eedcec0ef7de" target="_top" xlink:title="Part 1 of driver_x: Vectorial jobs. ">
<polygon fill="white" stroke="black" points="585,-130.5 585,-151.5 746,-151.5 746,-130.5 585,-130.5"/>
<text text-anchor="middle" x="665.5" y="-137.9" font-family="Ubuntu Mono" font-size="12.00">driver_x::run_driver_x_1</text>
</a>
</g>
</g>
<!-- Node430&#45;&gt;Node433 -->
<g id="edge4" class="edge"><title>Node430&#45;&gt;Node433</title>
<path fill="none" stroke="midnightblue" d="M271.921,-271.391C289.921,-242.559 327.848,-189.597 376,-166 441.122,-134.087 524.455,-130.201 584.799,-132.889"/>
<polygon fill="midnightblue" stroke="midnightblue" points="268.792,-269.802 266.595,-280.167 274.776,-273.434 268.792,-269.802"/>
</g>
<!-- Node435 -->
<g id="node7" class="node"><title>Node435</title>
<g id="a_node7"><a xlink:href="interfaceeq__ops_1_1calc__eq.html#ae2f56ab19ce5c33e863f32e1c9263604" target="_top" xlink:title="metric version ">
<polygon fill="white" stroke="black" points="579,-68.5 579,-89.5 752,-89.5 752,-68.5 579,-68.5"/>
<text text-anchor="middle" x="665.5" y="-75.9" font-family="Ubuntu Mono" font-size="12.00">eq_ops::calc_eq::calc_eq_2</text>
</a>
</g>
</g>
<!-- Node430&#45;&gt;Node435 -->
<g id="edge7" class="edge"><title>Node430&#45;&gt;Node435</title>
<path fill="none" stroke="midnightblue" d="M268.662,-270.836C284,-235.732 320.65,-163.819 376,-129 409.024,-108.226 506.17,-94.3879 578.668,-86.6371"/>
<polygon fill="midnightblue" stroke="midnightblue" points="265.422,-269.511 264.745,-280.085 271.868,-272.241 265.422,-269.511"/>
</g>
<!-- Node436 -->
<g id="node8" class="node"><title>Node436</title>
<g id="a_node8"><a xlink:href="namespaceeq__ops.html#a9addef683b3d4a8c587510e4c994ec61" target="_top" xlink:title="Creates a VMEC input file. ">
<polygon fill="white" stroke="black" points="394,-41 394,-75 525,-75 525,-41 394,-41"/>
<text text-anchor="start" x="402" y="-61.4" font-family="Ubuntu Mono" font-size="12.00">eq_ops::create_vmec</text>
<text text-anchor="middle" x="459.5" y="-48.4" font-family="Ubuntu Mono" font-size="12.00">_input</text>
</a>
</g>
</g>
<!-- Node430&#45;&gt;Node436 -->
<g id="edge8" class="edge"><title>Node430&#45;&gt;Node436</title>
<path fill="none" stroke="midnightblue" d="M267.078,-270.415C280.909,-230.251 316.709,-140.924 376,-90 382.876,-84.0944 390.965,-79.2112 399.342,-75.1928"/>
<polygon fill="midnightblue" stroke="midnightblue" points="263.673,-269.561 263.827,-280.155 270.313,-271.777 263.673,-269.561"/>
</g>
<!-- Node437 -->
<g id="node9" class="node"><title>Node437</title>
<g id="a_node9"><a xlink:href="namespaceeq__ops.html#ad173efd111cb85c11bc2bc78a7555096" target="_top" xlink:title="Plots the curvature. ">
<polygon fill="white" stroke="black" points="603,-338.5 603,-359.5 728,-359.5 728,-338.5 603,-338.5"/>
<text text-anchor="middle" x="665.5" y="-345.9" font-family="Ubuntu Mono" font-size="12.00">eq_ops::kappa_plot</text>
</a>
</g>
</g>
<!-- Node430&#45;&gt;Node437 -->
<g id="edge10" class="edge"><title>Node430&#45;&gt;Node437</title>
<path fill="none" stroke="midnightblue" d="M294.245,-305.41C316.924,-314.41 347.726,-325.332 376,-331 453.129,-346.462 543.969,-349.738 602.812,-349.954"/>
<polygon fill="midnightblue" stroke="midnightblue" points="295.327,-302.072 284.745,-301.563 292.7,-308.56 295.327,-302.072"/>
</g>
<!-- Node440 -->
<g id="node12" class="node"><title>Node440</title>
<g id="a_node12"><a xlink:href="namespaceslepc__ops.html#a79c420987056c225931b51c8d30ece1f" target="_top" xlink:title="Solve the eigenvalue system using SLEPC. ">
<polygon fill="white" stroke="black" points="600,-256 600,-290 731,-290 731,-256 600,-256"/>
<text text-anchor="start" x="608" y="-276.4" font-family="Ubuntu Mono" font-size="12.00">slepc_ops::solve_ev</text>
<text text-anchor="middle" x="665.5" y="-263.4" font-family="Ubuntu Mono" font-size="12.00">_system_slepc</text>
</a>
</g>
</g>
<!-- Node430&#45;&gt;Node440 -->
<g id="edge14" class="edge"><title>Node430&#45;&gt;Node440</title>
<path fill="none" stroke="midnightblue" d="M350.313,-286.998C425.948,-283.629 532.312,-278.89 599.82,-275.882"/>
<polygon fill="midnightblue" stroke="midnightblue" points="350.152,-283.502 340.317,-287.444 350.463,-290.495 350.152,-283.502"/>
</g>
<!-- Node442 -->
<g id="node14" class="node"><title>Node442</title>
<g id="a_node14"><a xlink:href="namespaceslepc__ops.html#aac8202cb74cbb06013eb73f1fa0c3118" target="_top" xlink:title="Sets up the matrices &#160;and &#160;in the EV problem . ">
<polygon fill="white" stroke="black" points="388,-300.5 388,-321.5 531,-321.5 531,-300.5 388,-300.5"/>
<text text-anchor="middle" x="459.5" y="-307.9" font-family="Ubuntu Mono" font-size="12.00">slepc_ops::setup_mats</text>
</a>
</g>
</g>
<!-- Node430&#45;&gt;Node442 -->
<g id="edge17" class="edge"><title>Node430&#45;&gt;Node442</title>
<path fill="none" stroke="midnightblue" d="M350.25,-300.066C362.882,-301.342 375.717,-302.638 387.922,-303.871"/>
<polygon fill="midnightblue" stroke="midnightblue" points="350.479,-296.571 340.178,-299.048 349.776,-303.536 350.479,-296.571"/>
</g>
<!-- Node443 -->
<g id="node15" class="node"><title>Node443</title>
<g id="a_node15"><a xlink:href="namespacetest.html#aca21ee464c0b1f4b617177afdde110ec" target="_top" xlink:title="Performs generic tests. ">
<polygon fill="white" stroke="black" points="815,-406.5 815,-427.5 946,-427.5 946,-406.5 815,-406.5"/>
<text text-anchor="middle" x="880.5" y="-413.9" font-family="Ubuntu Mono" font-size="12.00">test::generic_tests</text>
</a>
</g>
</g>
<!-- Node430&#45;&gt;Node443 -->
<g id="edge19" class="edge"><title>Node430&#45;&gt;Node443</title>
<path fill="none" stroke="midnightblue" d="M283.886,-307.197C306.414,-321.943 341.99,-343.034 376,-354 527.967,-403 717.139,-414.196 814.655,-416.556"/>
<polygon fill="midnightblue" stroke="midnightblue" points="285.618,-304.145 275.356,-301.507 281.733,-309.968 285.618,-304.145"/>
</g>
<!-- Node444 -->
<g id="node16" class="node"><title>Node444</title>
<g id="a_node16"><a xlink:href="namespacetest.html#a53c6b3d654d4577af301fe3b04473d6a" target="_top" xlink:title="Test splines. ">
<polygon fill="white" stroke="black" points="603,-496.5 603,-517.5 728,-517.5 728,-496.5 603,-496.5"/>
<text text-anchor="middle" x="665.5" y="-503.9" font-family="Ubuntu Mono" font-size="12.00">test::test_splines</text>
</a>
</g>
</g>
<!-- Node430&#45;&gt;Node444 -->
<g id="edge22" class="edge"><title>Node430&#45;&gt;Node444</title>
<path fill="none" stroke="midnightblue" d="M263.335,-311.689C271.155,-359.696 297.894,-478.267 376,-527 460.553,-579.755 587.438,-538.674 640.171,-517.558"/>
<polygon fill="midnightblue" stroke="midnightblue" points="266.761,-310.939 261.802,-301.577 259.84,-311.988 266.761,-310.939"/>
</g>
<!-- Node445 -->
<g id="node17" class="node"><title>Node445</title>
<g id="a_node17"><a xlink:href="test_8f90.html#a197914f99b7e194fb4bca9ca3669e0e8" target="_top" xlink:title="plot_y">
<polygon fill="white" stroke="black" points="433,-496.5 433,-517.5 486,-517.5 486,-496.5 433,-496.5"/>
<text text-anchor="middle" x="459.5" y="-503.9" font-family="Ubuntu Mono" font-size="12.00">plot_y</text>
</a>
</g>
</g>
<!-- Node430&#45;&gt;Node445 -->
<g id="edge24" class="edge"><title>Node430&#45;&gt;Node445</title>
<path fill="none" stroke="midnightblue" d="M266.589,-311.51C279.641,-351.775 314.259,-441.217 376,-487 392.455,-499.202 415.363,-504.05 432.866,-505.932"/>
<polygon fill="midnightblue" stroke="midnightblue" points="269.928,-310.459 263.602,-301.96 263.247,-312.549 269.928,-310.459"/>
</g>
<!-- Node446 -->
<g id="node18" class="node"><title>Node446</title>
<g id="a_node18"><a xlink:href="namespacetest.html#ab595ec935321ea0b1168593fb88fad22" target="_top" xlink:title="Test calculation of toroidal functions. ">
<polygon fill="white" stroke="black" points="397,-456.5 397,-477.5 522,-477.5 522,-456.5 397,-456.5"/>
<text text-anchor="middle" x="459.5" y="-463.9" font-family="Ubuntu Mono" font-size="12.00">test::test_tor_fun</text>
</a>
</g>
</g>
<!-- Node430&#45;&gt;Node446 -->
<g id="edge26" class="edge"><title>Node430&#45;&gt;Node446</title>
<path fill="none" stroke="midnightblue" d="M269.549,-310.978C285.825,-344.557 323.319,-412.057 376,-447 382.386,-451.236 389.582,-454.576 396.995,-457.21"/>
<polygon fill="midnightblue" stroke="midnightblue" points="272.615,-309.274 265.185,-301.72 266.283,-312.258 272.615,-309.274"/>
</g>
<!-- Node447 -->
<g id="node19" class="node"><title>Node447</title>
<g id="a_node19"><a xlink:href="namespacetest.html#a0d4cb791bf762b2e52260fea7644a3ee" target="_top" xlink:title="Tests calculation of volume integral. ">
<polygon fill="white" stroke="black" points="382,-416.5 382,-437.5 537,-437.5 537,-416.5 382,-416.5"/>
<text text-anchor="middle" x="459.5" y="-423.9" font-family="Ubuntu Mono" font-size="12.00">test::test_calc_int_vol</text>
</a>
</g>
</g>
<!-- Node430&#45;&gt;Node447 -->
<g id="edge28" class="edge"><title>Node430&#45;&gt;Node447</title>
<path fill="none" stroke="midnightblue" d="M274.839,-309.404C294.913,-333.964 333.712,-377.229 376,-402 386.331,-408.051 398.262,-412.762 409.784,-416.379"/>
<polygon fill="midnightblue" stroke="midnightblue" points="277.532,-307.167 268.544,-301.557 272.072,-311.548 277.532,-307.167"/>
</g>
<!-- Node448 -->
<g id="node20" class="node"><title>Node448</title>
<g id="a_node20"><a xlink:href="namespacevac__utilities.html#a8e7889688701f6ac2fd2c60cdee2b96a" target="_top" xlink:title="Copies vacuum variables of a previous level into the appropriate, interlaced place of a next level...">
<polygon fill="white" stroke="black" points="376,-209 376,-243 543,-243 543,-209 376,-209"/>
<text text-anchor="start" x="384" y="-229.4" font-family="Ubuntu Mono" font-size="12.00">vac_utilities::interlaced</text>
<text text-anchor="middle" x="459.5" y="-216.4" font-family="Ubuntu Mono" font-size="12.00">_vac_copy</text>
</a>
</g>
</g>
<!-- Node430&#45;&gt;Node448 -->
<g id="edge30" class="edge"><title>Node430&#45;&gt;Node448</title>
<path fill="none" stroke="midnightblue" d="M302.606,-277.177C332.963,-267.211 374.126,-253.698 406.531,-243.06"/>
<polygon fill="midnightblue" stroke="midnightblue" points="301.162,-273.967 292.753,-280.412 303.346,-280.618 301.162,-273.967"/>
</g>
<!-- Node450 -->
<g id="node22" class="node"><title>Node450</title>
<g id="a_node22"><a xlink:href="namespacex__ops.html#a4e39701da15ff952add5133db1897b52" target="_top" xlink:title="Calculate , &#160;or , . ">
<polygon fill="white" stroke="black" points="412,-0.5 412,-21.5 507,-21.5 507,-0.5 412,-0.5"/>
<text text-anchor="middle" x="459.5" y="-7.9" font-family="Ubuntu Mono" font-size="12.00">x_ops::calc_u</text>
</a>
</g>
</g>
<!-- Node430&#45;&gt;Node450 -->
<g id="edge33" class="edge"><title>Node430&#45;&gt;Node450</title>
<path fill="none" stroke="midnightblue" d="M263.437,-270.229C271.573,-220.724 299.119,-95.14 376,-31 386.072,-22.5973 399.112,-17.6199 411.839,-14.7016"/>
<polygon fill="midnightblue" stroke="midnightblue" points="259.941,-269.931 261.874,-280.348 266.859,-270.999 259.941,-269.931"/>
</g>
<!-- Node432 -->
<g id="node4" class="node"><title>Node432</title>
<g id="a_node4"><a xlink:href="PB3D_8f90.html#afaee01f014ab3398eecac996b2795fd2" target="_top" xlink:title="Peeling Ballooning in 3D. ">
<polygon fill="white" stroke="black" points="1009,-238.5 1009,-259.5 1050,-259.5 1050,-238.5 1009,-238.5"/>
<text text-anchor="middle" x="1029.5" y="-245.9" font-family="Ubuntu Mono" font-size="12.00">pb3d</text>
</a>
</g>
</g>
<!-- Node431&#45;&gt;Node432 -->
<g id="edge3" class="edge"><title>Node431&#45;&gt;Node432</title>
<path fill="none" stroke="midnightblue" d="M965.573,-240.01C981.763,-242.323 997.254,-244.536 1008.82,-246.188"/>
<polygon fill="midnightblue" stroke="midnightblue" points="965.825,-236.511 955.431,-238.562 964.835,-243.441 965.825,-236.511"/>
</g>
<!-- Node434 -->
<g id="node6" class="node"><title>Node434</title>
<g id="a_node6"><a xlink:href="namespacedriver__x.html#ada3d72a0929daaa5e3da585246d62281" target="_top" xlink:title="Main driver of PB3D perturbation part. ">
<polygon fill="white" stroke="black" points="806,-151.5 806,-172.5 955,-172.5 955,-151.5 806,-151.5"/>
<text text-anchor="middle" x="880.5" y="-158.9" font-family="Ubuntu Mono" font-size="12.00">driver_x::run_driver_x</text>
</a>
</g>
</g>
<!-- Node433&#45;&gt;Node434 -->
<g id="edge5" class="edge"><title>Node433&#45;&gt;Node434</title>
<path fill="none" stroke="midnightblue" d="M756.331,-149.857C772.874,-151.488 789.968,-153.173 805.961,-154.75"/>
<polygon fill="midnightblue" stroke="midnightblue" points="756.411,-146.348 746.116,-148.849 755.725,-153.314 756.411,-146.348"/>
</g>
<!-- Node434&#45;&gt;Node432 -->
<g id="edge6" class="edge"><title>Node434&#45;&gt;Node432</title>
<path fill="none" stroke="midnightblue" d="M914.761,-177.037C932.451,-185.45 954.339,-196.532 973,-208 988.105,-217.283 1004.29,-229.536 1015.27,-238.222"/>
<polygon fill="midnightblue" stroke="midnightblue" points="915.953,-173.73 905.413,-172.652 912.981,-180.068 915.953,-173.73"/>
</g>
<!-- Node436&#45;&gt;Node435 -->
<g id="edge9" class="edge"><title>Node436&#45;&gt;Node435</title>
<path fill="none" stroke="midnightblue" d="M535.201,-65.6898C549.353,-67.1466 564.262,-68.6814 578.725,-70.1702"/>
<polygon fill="midnightblue" stroke="midnightblue" points="535.353,-62.187 525.047,-64.6445 534.636,-69.1502 535.353,-62.187"/>
</g>
<!-- Node437&#45;&gt;Node431 -->
<g id="edge11" class="edge"><title>Node437&#45;&gt;Node431</title>
<path fill="none" stroke="midnightblue" d="M698.894,-333.974C715.798,-325.206 736.19,-313.098 752,-299 771.903,-281.252 765.794,-265.765 788,-251 795.911,-245.74 804.934,-241.683 814.159,-238.553"/>
<polygon fill="midnightblue" stroke="midnightblue" points="697.273,-330.872 689.913,-338.494 700.419,-337.125 697.273,-330.872"/>
</g>
<!-- Node438 -->
<g id="node10" class="node"><title>Node438</title>
<g id="a_node10"><a xlink:href="namespacedriver__post.html#a33b3c6f9018a0ddc92dce77394b8ab37" target="_top" xlink:title="The main driver routine for postprocessing. ">
<polygon fill="white" stroke="black" points="788,-347.5 788,-368.5 973,-368.5 973,-347.5 788,-347.5"/>
<text text-anchor="middle" x="880.5" y="-354.9" font-family="Ubuntu Mono" font-size="12.00">driver_post::run_driver_post</text>
</a>
</g>
</g>
<!-- Node437&#45;&gt;Node438 -->
<g id="edge12" class="edge"><title>Node437&#45;&gt;Node438</title>
<path fill="none" stroke="midnightblue" d="M738.377,-352.037C754.282,-352.709 771.343,-353.43 787.913,-354.13"/>
<polygon fill="midnightblue" stroke="midnightblue" points="738.247,-348.529 728.108,-351.603 737.952,-355.522 738.247,-348.529"/>
</g>
<!-- Node439 -->
<g id="node11" class="node"><title>Node439</title>
<g id="a_node11"><a xlink:href="POST_8f90.html#ac289b64ac4671fea0b4f2298ba1188a1" target="_top" xlink:title="Peeling Ballooning in 3D: postprocessing. ">
<polygon fill="white" stroke="black" points="1009,-376.5 1009,-397.5 1050,-397.5 1050,-376.5 1009,-376.5"/>
<text text-anchor="middle" x="1029.5" y="-383.9" font-family="Ubuntu Mono" font-size="12.00">post</text>
</a>
</g>
</g>
<!-- Node438&#45;&gt;Node439 -->
<g id="edge13" class="edge"><title>Node438&#45;&gt;Node439</title>
<path fill="none" stroke="midnightblue" d="M945.102,-370.547C968.151,-375.094 992.522,-379.902 1008.93,-383.138"/>
<polygon fill="midnightblue" stroke="midnightblue" points="945.475,-367.053 934.986,-368.552 944.12,-373.921 945.475,-367.053"/>
</g>
<!-- Node441 -->
<g id="node13" class="node"><title>Node441</title>
<g id="a_node13"><a xlink:href="namespacedriver__sol.html#ad3b1765b3ecc5f82129bfc683ffc6c5c" target="_top" xlink:title="Main driver of PB3D solution part. ">
<polygon fill="white" stroke="black" points="794,-260.5 794,-281.5 967,-281.5 967,-260.5 794,-260.5"/>
<text text-anchor="middle" x="880.5" y="-267.9" font-family="Ubuntu Mono" font-size="12.00">driver_sol::run_driver_sol</text>
</a>
</g>
</g>
<!-- Node440&#45;&gt;Node441 -->
<g id="edge15" class="edge"><title>Node440&#45;&gt;Node441</title>
<path fill="none" stroke="midnightblue" d="M741.619,-272.295C758.499,-272.136 776.535,-271.967 793.81,-271.805"/>
<polygon fill="midnightblue" stroke="midnightblue" points="741.241,-268.798 731.275,-272.392 741.307,-275.798 741.241,-268.798"/>
</g>
<!-- Node441&#45;&gt;Node432 -->
<g id="edge16" class="edge"><title>Node441&#45;&gt;Node432</title>
<path fill="none" stroke="midnightblue" d="M962.282,-258.91C979.712,-256.302 996.59,-253.776 1008.94,-251.927"/>
<polygon fill="midnightblue" stroke="midnightblue" points="961.358,-255.509 951.986,-260.451 962.394,-262.432 961.358,-255.509"/>
</g>
<!-- Node442&#45;&gt;Node440 -->
<g id="edge18" class="edge"><title>Node442&#45;&gt;Node440</title>
<path fill="none" stroke="midnightblue" d="M526.904,-298.631C550.335,-294.266 576.632,-289.368 599.91,-285.031"/>
<polygon fill="midnightblue" stroke="midnightblue" points="526.244,-295.193 517.054,-300.465 527.526,-302.075 526.244,-295.193"/>
</g>
<!-- Node443&#45;&gt;Node432 -->
<g id="edge20" class="edge"><title>Node443&#45;&gt;Node432</title>
<path fill="none" stroke="midnightblue" d="M933.436,-402.788C947.617,-396.936 962.068,-388.895 973,-378 1007.71,-343.407 1022.13,-283.611 1026.72,-259.514"/>
<polygon fill="midnightblue" stroke="midnightblue" points="931.805,-399.664 923.709,-406.498 934.299,-406.205 931.805,-399.664"/>
</g>
<!-- Node443&#45;&gt;Node439 -->
<g id="edge21" class="edge"><title>Node443&#45;&gt;Node439</title>
<path fill="none" stroke="midnightblue" d="M943.281,-404.392C966.81,-399.59 991.984,-394.452 1008.82,-391.016"/>
<polygon fill="midnightblue" stroke="midnightblue" points="942.425,-400.994 933.327,-406.423 943.825,-407.853 942.425,-400.994"/>
</g>
<!-- Node444&#45;&gt;Node443 -->
<g id="edge23" class="edge"><title>Node444&#45;&gt;Node443</title>
<path fill="none" stroke="midnightblue" d="M714.156,-493.37C726.608,-489.424 739.921,-484.858 752,-480 791.629,-464.061 835.924,-440.894 860.48,-427.547"/>
<polygon fill="midnightblue" stroke="midnightblue" points="712.911,-490.092 704.396,-496.395 714.984,-496.778 712.911,-490.092"/>
</g>
<!-- Node445&#45;&gt;Node444 -->
<g id="edge25" class="edge"><title>Node445&#45;&gt;Node444</title>
<path fill="none" stroke="midnightblue" d="M496.561,-507C525.987,-507 568.227,-507 602.982,-507"/>
<polygon fill="midnightblue" stroke="midnightblue" points="496.337,-503.5 486.337,-507 496.337,-510.5 496.337,-503.5"/>
</g>
<!-- Node446&#45;&gt;Node443 -->
<g id="edge27" class="edge"><title>Node446&#45;&gt;Node443</title>
<path fill="none" stroke="midnightblue" d="M531.979,-460.243C591.051,-454.456 677.075,-445.562 752,-436 772.424,-433.393 794.635,-430.206 814.71,-427.193"/>
<polygon fill="midnightblue" stroke="midnightblue" points="531.618,-456.762 522.005,-461.216 532.298,-463.729 531.618,-456.762"/>
</g>
<!-- Node447&#45;&gt;Node443 -->
<g id="edge29" class="edge"><title>Node447&#45;&gt;Node443</title>
<path fill="none" stroke="midnightblue" d="M547.361,-424.927C626.98,-423.027 743.075,-420.256 814.814,-418.544"/>
<polygon fill="midnightblue" stroke="midnightblue" points="547.265,-421.428 537.351,-425.166 547.432,-428.426 547.265,-421.428"/>
</g>
<!-- Node449 -->
<g id="node21" class="node"><title>Node449</title>
<g id="a_node21"><a xlink:href="namespacevac__ops.html#a37220702fbf378626a0f2c12f446e0aa" target="_top" xlink:title="Stores calculation of the vacuum response by storing the necessary variables. ">
<polygon fill="white" stroke="black" points="603,-215.5 603,-236.5 728,-236.5 728,-215.5 603,-215.5"/>
<text text-anchor="middle" x="665.5" y="-222.9" font-family="Ubuntu Mono" font-size="12.00">vac_ops::store_vac</text>
</a>
</g>
</g>
<!-- Node448&#45;&gt;Node449 -->
<g id="edge31" class="edge"><title>Node448&#45;&gt;Node449</title>
<path fill="none" stroke="midnightblue" d="M553.505,-226C570.18,-226 587.178,-226 602.699,-226"/>
<polygon fill="midnightblue" stroke="midnightblue" points="553.181,-222.5 543.181,-226 553.18,-229.5 553.181,-222.5"/>
</g>
<!-- Node449&#45;&gt;Node431 -->
<g id="edge32" class="edge"><title>Node449&#45;&gt;Node431</title>
<path fill="none" stroke="midnightblue" d="M738.263,-226.674C758.026,-226.859 779.582,-227.062 799.765,-227.251"/>
<polygon fill="midnightblue" stroke="midnightblue" points="738.141,-223.173 728.108,-226.578 738.075,-230.172 738.141,-223.173"/>
</g>
<!-- Node451 -->
<g id="node23" class="node"><title>Node451</title>
<g id="a_node23"><a xlink:href="interfacex__ops_1_1calc__x.html#a837126ca92e7f4d6821261c835b987d4" target="_top" xlink:title="vectorial version ">
<polygon fill="white" stroke="black" points="588,-0.5 588,-21.5 743,-21.5 743,-0.5 588,-0.5"/>
<text text-anchor="middle" x="665.5" y="-7.9" font-family="Ubuntu Mono" font-size="12.00">x_ops::calc_x::calc_x_1</text>
</a>
</g>
</g>
<!-- Node450&#45;&gt;Node451 -->
<g id="edge34" class="edge"><title>Node450&#45;&gt;Node451</title>
<path fill="none" stroke="midnightblue" d="M517.142,-11C538.99,-11 564.323,-11 587.758,-11"/>
<polygon fill="midnightblue" stroke="midnightblue" points="517.046,-7.5001 507.046,-11 517.046,-14.5001 517.046,-7.5001"/>
</g>
</g>
</svg>
