<?xml version="1.0" encoding="UTF-8" standalone="no"?>
<!DOCTYPE svg PUBLIC "-//W3C//DTD SVG 1.1//EN"
 "http://www.w3.org/Graphics/SVG/1.1/DTD/svg11.dtd">
<!-- Generated by graphviz version 14.1.2 (20260124.0452)
 -->
<!-- Title: mpi_utilities::lock_return_acc Pages: 1 -->
<svg width="660pt" height="138pt"
 viewBox="0.00 0.00 660.00 138.00" xmlns="http://www.w3.org/2000/svg" xmlns:xlink="http://www.w3.org/1999/xlink">
<g id="graph0" class="graph" transform="scale(1 1) rotate(0) translate(4 133.75)">
<title>mpi_utilities::lock_return_acc</title>
<!-- Node1 -->
<g id="Node000001" class="node">
<title>Node1</title>
<g id="a_Node000001"><a xlink:title="Returns access to a lock.">
<polygon fill="#999999" stroke="#666666" points="130,-67.12 0,-67.12 0,-33.62 130,-33.62 130,-67.12"/>
<text xml:space="preserve" text-anchor="start" x="8" y="-51.73" font-family="Ubuntu Mono" font-size="12.00">mpi_utilities::lock</text>
<text xml:space="preserve" text-anchor="middle" x="65" y="-38.98" font-family="Ubuntu Mono" font-size="12.00">_return_acc</text>
</a>
</g>
</g>
<!-- Node2 -->
<g id="Node000002" class="node">
<title>Node2</title>
<g id="a_Node000002"><a xlink:href="namespacempi__utilities.html#abe5bf3ae3b6a06eda18c2f4d62ac09c5" target="_top" xlink:title="Returns the header for lock debug messages.">
<polygon fill="white" stroke="#666666" points="468,-90.12 338,-90.12 338,-56.62 468,-56.62 468,-90.12"/>
<text xml:space="preserve" text-anchor="start" x="346" y="-74.72" font-family="Ubuntu Mono" font-size="12.00">mpi_utilities::lock</text>
<text xml:space="preserve" text-anchor="middle" x="403" y="-61.98" font-family="Ubuntu Mono" font-size="12.00">_header</text>
</a>
</g>
</g>
<!-- Node1&#45;&gt;Node2 -->
<g id="edge1_Node000001_Node000002" class="edge">
<title>Node1&#45;&gt;Node2</title>
<g id="a_edge1_Node000001_Node000002"><a xlink:title=" ">
<path fill="none" stroke="#63b8ff" d="M130.39,-54.78C186.33,-58.61 267.42,-64.16 326.42,-68.2"/>
<polygon fill="#63b8ff" stroke="#63b8ff" points="325.82,-71.67 336.04,-68.86 326.3,-64.68 325.82,-71.67"/>
</a>
</g>
</g>
<!-- Node5 -->
<g id="Node000005" class="node">
<title>Node5</title>
<g id="a_Node000005"><a xlink:href="namespacempi__utilities.html#a3b0349e5ec825e14083e3126c3e7ba65" target="_top" xlink:title="Adds, removes or sets to active a rank from the waiting list for a lock and returns the lock waiting ...">
<polygon fill="white" stroke="#666666" points="296,-45.12 166,-45.12 166,-11.62 296,-11.62 296,-45.12"/>
<text xml:space="preserve" text-anchor="start" x="174" y="-29.73" font-family="Ubuntu Mono" font-size="12.00">mpi_utilities::lock</text>
<text xml:space="preserve" text-anchor="middle" x="231" y="-16.98" font-family="Ubuntu Mono" font-size="12.00">_wl_change</text>
</a>
</g>
</g>
<!-- Node1&#45;&gt;Node5 -->
<g id="edge6_Node000001_Node000005" class="edge">
<title>Node1&#45;&gt;Node5</title>
<g id="a_edge6_Node000001_Node000005"><a xlink:title=" ">
<path fill="none" stroke="#63b8ff" d="M130.35,-41.74C138.21,-40.69 146.31,-39.6 154.33,-38.53"/>
<polygon fill="#63b8ff" stroke="#63b8ff" points="154.62,-42.02 164.07,-37.22 153.69,-35.08 154.62,-42.02"/>
</a>
</g>
</g>
<!-- Node3 -->
<g id="Node000003" class="node">
<title>Node3</title>
<g id="a_Node000003"><a xlink:href="namespacestr__utilities.html#a0b97e51770725a3e98ed393d26681414" target="_top" xlink:title="Convert an integer to string.">
<polygon fill="white" stroke="#666666" points="649,-111.75 513,-111.75 513,-91 649,-91 649,-111.75"/>
<text xml:space="preserve" text-anchor="middle" x="581" y="-96.35" font-family="Ubuntu Mono" font-size="12.00">str_utilities::i2str</text>
</a>
</g>
</g>
<!-- Node2&#45;&gt;Node3 -->
<g id="edge2_Node000002_Node000003" class="edge">
<title>Node2&#45;&gt;Node3</title>
<g id="a_edge2_Node000002_Node000003"><a xlink:title=" ">
<path fill="none" stroke="#63b8ff" d="M468.04,-83.56C478.95,-85.3 490.39,-87.12 501.62,-88.91"/>
<polygon fill="#63b8ff" stroke="#63b8ff" points="500.83,-92.32 511.26,-90.44 501.93,-85.41 500.83,-92.32"/>
</a>
</g>
</g>
<!-- Node4 -->
<g id="Node000004" class="node">
<title>Node4</title>
<g id="a_Node000004"><a xlink:href="namespacestr__utilities.html#acb8c4e66aead51f178e47fdea8d7a7db" target="_top" xlink:title="Convert an integer to string.">
<polygon fill="white" stroke="#666666" points="652,-54.75 510,-54.75 510,-34 652,-34 652,-54.75"/>
<text xml:space="preserve" text-anchor="middle" x="581" y="-39.35" font-family="Ubuntu Mono" font-size="12.00">str_utilities::ii2str</text>
</a>
</g>
</g>
<!-- Node2&#45;&gt;Node4 -->
<g id="edge4_Node000002_Node000004" class="edge">
<title>Node2&#45;&gt;Node4</title>
<g id="a_edge4_Node000002_Node000004"><a xlink:title=" ">
<path fill="none" stroke="#63b8ff" d="M468.04,-62.82C479.43,-60.95 491.41,-58.97 503.12,-57.04"/>
<polygon fill="#63b8ff" stroke="#63b8ff" points="503.45,-60.54 512.74,-55.46 502.31,-53.63 503.45,-60.54"/>
</a>
</g>
</g>
<!-- Node3&#45;&gt;Node3 -->
<g id="edge3_Node000003_Node000003" class="edge">
<title>Node3&#45;&gt;Node3</title>
<g id="a_edge3_Node000003_Node000003"><a xlink:title=" ">
<path fill="none" stroke="#63b8ff" d="M552.32,-112.15C540.85,-120.81 550.41,-129.75 581,-129.75 597.73,-129.75 608.17,-127.08 612.32,-123.24"/>
<polygon fill="#63b8ff" stroke="#63b8ff" points="615.75,-122.54 610.03,-113.62 608.94,-124.16 615.75,-122.54"/>
</a>
</g>
</g>
<!-- Node4&#45;&gt;Node4 -->
<g id="edge5_Node000004_Node000004" class="edge">
<title>Node4&#45;&gt;Node4</title>
<g id="a_edge5_Node000004_Node000004"><a xlink:title=" ">
<path fill="none" stroke="#63b8ff" d="M552.32,-55.15C540.85,-63.81 550.41,-72.75 581,-72.75 597.73,-72.75 608.17,-70.08 612.32,-66.24"/>
<polygon fill="#63b8ff" stroke="#63b8ff" points="615.75,-65.54 610.03,-56.62 608.94,-67.16 615.75,-65.54"/>
</a>
</g>
</g>
<!-- Node5&#45;&gt;Node2 -->
<g id="edge7_Node000005_Node000002" class="edge">
<title>Node5&#45;&gt;Node2</title>
<g id="a_edge7_Node000005_Node000002"><a xlink:title=" ">
<path fill="none" stroke="#63b8ff" d="M296.27,-45.39C306.21,-48.02 316.56,-50.76 326.72,-53.45"/>
<polygon fill="#63b8ff" stroke="#63b8ff" points="325.61,-56.78 336.18,-55.95 327.4,-50.01 325.61,-56.78"/>
</a>
</g>
</g>
<!-- Node6 -->
<g id="Node000006" class="node">
<title>Node6</title>
<g id="a_Node000006"><a xlink:href="namespacestr__utilities.html#ac778d706b2e021672618939ab58fdd32" target="_top" xlink:title="Convert a real (double) to string.">
<polygon fill="white" stroke="#666666" points="474,-20.75 332,-20.75 332,0 474,0 474,-20.75"/>
<text xml:space="preserve" text-anchor="middle" x="403" y="-5.35" font-family="Ubuntu Mono" font-size="12.00">str_utilities::r2strt</text>
</a>
</g>
</g>
<!-- Node5&#45;&gt;Node6 -->
<g id="edge8_Node000005_Node000006" class="edge">
<title>Node5&#45;&gt;Node6</title>
<g id="a_edge8_Node000005_Node000006"><a xlink:title=" ">
<path fill="none" stroke="#63b8ff" d="M296.27,-21.57C304.13,-20.74 312.24,-19.88 320.32,-19.02"/>
<polygon fill="#63b8ff" stroke="#63b8ff" points="320.59,-22.51 330.17,-17.98 319.85,-15.55 320.59,-22.51"/>
</a>
</g>
</g>
<!-- Node6&#45;&gt;Node6 -->
<g id="edge9_Node000006_Node000006" class="edge">
<title>Node6&#45;&gt;Node6</title>
<g id="a_edge9_Node000006_Node000006"><a xlink:title=" ">
<path fill="none" stroke="#63b8ff" d="M375.29,-21.15C364.2,-29.81 373.44,-38.75 403,-38.75 419.17,-38.75 429.26,-36.08 433.27,-32.24"/>
<polygon fill="#63b8ff" stroke="#63b8ff" points="436.71,-31.58 431.05,-22.62 429.89,-33.15 436.71,-31.58"/>
</a>
</g>
</g>
</g>
</svg>
