<?xml version="1.0" encoding="UTF-8" standalone="no"?>
<!DOCTYPE svg PUBLIC "-//W3C//DTD SVG 1.1//EN"
 "http://www.w3.org/Graphics/SVG/1.1/DTD/svg11.dtd">
<!-- Generated by graphviz version 2.38.0 (20140413.2041)
 -->
<!-- Title: vac_ops::calc_vac Pages: 1 -->
<svg width="413pt" height="30pt"
 viewBox="0.00 0.00 413.00 30.00" xmlns="http://www.w3.org/2000/svg" xmlns:xlink="http://www.w3.org/1999/xlink">
<g id="graph0" class="graph" transform="scale(1 1) rotate(0) translate(4 26)">
<title>vac_ops::calc_vac</title>
<polygon fill="white" stroke="none" points="-4,4 -4,-26 409,-26 409,4 -4,4"/>
<!-- Node89 -->
<g id="node1" class="node"><title>Node89</title>
<polygon fill="#bfbfbf" stroke="black" points="0,-0.5 0,-21.5 119,-21.5 119,-0.5 0,-0.5"/>
<text text-anchor="middle" x="59.5" y="-7.9" font-family="Ubuntu Mono" font-size="12.00">vac_ops::calc_vac</text>
</g>
<!-- Node90 -->
<g id="node2" class="node"><title>Node90</title>
<g id="a_node2"><a xlink:href="namespacedriver__sol.html#a3a2250322c6ca75132ebf585732d3fc2" target="_top" xlink:title="Main driver of PB3D solution part. ">
<polygon fill="white" stroke="black" points="155,-0.5 155,-21.5 328,-21.5 328,-0.5 155,-0.5"/>
<text text-anchor="middle" x="241.5" y="-7.9" font-family="Ubuntu Mono" font-size="12.00">driver_sol::run_driver_sol</text>
</a>
</g>
</g>
<!-- Node89&#45;&gt;Node90 -->
<g id="edge1" class="edge"><title>Node89&#45;&gt;Node90</title>
<path fill="none" stroke="midnightblue" d="M129.477,-11C137.827,-11 146.433,-11 154.985,-11"/>
<polygon fill="midnightblue" stroke="midnightblue" points="129.439,-7.5001 119.439,-11 129.439,-14.5001 129.439,-7.5001"/>
</g>
<!-- Node91 -->
<g id="node3" class="node"><title>Node91</title>
<g id="a_node3"><a xlink:href="PB3D_8f90.html#afaee01f014ab3398eecac996b2795fd2" target="_top" xlink:title="Peeling Ballooning in 3D. ">
<polygon fill="white" stroke="black" points="364,-0.5 364,-21.5 405,-21.5 405,-0.5 364,-0.5"/>
<text text-anchor="middle" x="384.5" y="-7.9" font-family="Ubuntu Mono" font-size="12.00">pb3d</text>
</a>
</g>
</g>
<!-- Node90&#45;&gt;Node91 -->
<g id="edge2" class="edge"><title>Node90&#45;&gt;Node91</title>
<path fill="none" stroke="midnightblue" d="M338.337,-11C347.873,-11 356.695,-11 363.964,-11"/>
<polygon fill="midnightblue" stroke="midnightblue" points="338.178,-7.5001 328.178,-11 338.178,-14.5001 338.178,-7.5001"/>
</g>
</g>
</svg>
