<?xml version="1.0" encoding="UTF-8" standalone="no"?>
<!DOCTYPE svg PUBLIC "-//W3C//DTD SVG 1.1//EN"
 "http://www.w3.org/Graphics/SVG/1.1/DTD/svg11.dtd">
<!-- Generated by graphviz version 2.38.0 (20140413.2041)
 -->
<!-- Title: slepc_ops::get_solution Pages: 1 -->
<svg width="646pt" height="70pt"
 viewBox="0.00 0.00 646.00 70.00" xmlns="http://www.w3.org/2000/svg" xmlns:xlink="http://www.w3.org/1999/xlink">
<g id="graph0" class="graph" transform="scale(1 1) rotate(0) translate(4 66)">
<title>slepc_ops::get_solution</title>
<polygon fill="white" stroke="none" points="-4,4 -4,-66 642,-66 642,4 -4,4"/>
<!-- Node0 -->
<g id="node1" class="node"><title>Node0</title>
<polygon fill="#bfbfbf" stroke="black" points="0,-20.5 0,-41.5 155,-41.5 155,-20.5 0,-20.5"/>
<text text-anchor="middle" x="77.5" y="-27.9" font-family="Ubuntu Mono" font-size="12.00">slepc_ops::get_solution</text>
</g>
<!-- Node1 -->
<g id="node2" class="node"><title>Node1</title>
<g id="a_node2"><a xlink:href="namespacemessages.html#a6e6bfb084063e4cc91ee86e542043302" target="_top" xlink:title="Increases/decreases lvl of output. ">
<polygon fill="white" stroke="black" points="191,-20.5 191,-41.5 304,-41.5 304,-20.5 191,-20.5"/>
<text text-anchor="middle" x="247.5" y="-27.9" font-family="Ubuntu Mono" font-size="12.00">messages::lvl_ud</text>
</a>
</g>
</g>
<!-- Node0&#45;&gt;Node1 -->
<g id="edge1" class="edge"><title>Node0&#45;&gt;Node1</title>
<path fill="none" stroke="midnightblue" d="M155.126,-31C163.616,-31 172.208,-31 180.55,-31"/>
<polygon fill="midnightblue" stroke="midnightblue" points="180.579,-34.5001 190.578,-31 180.578,-27.5001 180.579,-34.5001"/>
</g>
<!-- Node2 -->
<g id="node3" class="node"><title>Node2</title>
<g id="a_node3"><a xlink:href="namespacemessages.html#aa4a8d01563e92558e8a0875b075ec54c" target="_top" xlink:title="Write output to file identified by output_i. ">
<polygon fill="white" stroke="black" points="340,-20.5 340,-41.5 447,-41.5 447,-20.5 340,-20.5"/>
<text text-anchor="middle" x="393.5" y="-27.9" font-family="Ubuntu Mono" font-size="12.00">messages::writo</text>
</a>
</g>
</g>
<!-- Node1&#45;&gt;Node2 -->
<g id="edge2" class="edge"><title>Node1&#45;&gt;Node2</title>
<path fill="none" stroke="midnightblue" d="M304.174,-31C312.502,-31 321.137,-31 329.601,-31"/>
<polygon fill="midnightblue" stroke="midnightblue" points="329.809,-34.5001 339.809,-31 329.809,-27.5001 329.809,-34.5001"/>
</g>
<!-- Node3 -->
<g id="node4" class="node"><title>Node3</title>
<g id="a_node4"><a xlink:href="namespacemessages.html#a82dddaab795b78b3d39e1ff1aab2f665" target="_top" xlink:title="Returns the memory usage in kilobytes. ">
<polygon fill="white" stroke="black" points="483,-40.5 483,-61.5 638,-61.5 638,-40.5 483,-40.5"/>
<text text-anchor="middle" x="560.5" y="-47.9" font-family="Ubuntu Mono" font-size="12.00">messages::get_mem_usage</text>
</a>
</g>
</g>
<!-- Node2&#45;&gt;Node3 -->
<g id="edge3" class="edge"><title>Node2&#45;&gt;Node3</title>
<path fill="none" stroke="midnightblue" d="M447.161,-37.3831C455.452,-38.3881 464.208,-39.4495 473.025,-40.5182"/>
<polygon fill="midnightblue" stroke="midnightblue" points="472.635,-43.9965 482.984,-41.7253 473.478,-37.0474 472.635,-43.9965"/>
</g>
<!-- Node4 -->
<g id="node5" class="node"><title>Node4</title>
<g id="a_node5"><a xlink:href="namespacemessages.html#a61fd0b51b5e37d58fdc993c01792a3fd" target="_top" xlink:title="Returns the time. ">
<polygon fill="white" stroke="black" points="495,-0.5 495,-21.5 626,-21.5 626,-0.5 495,-0.5"/>
<text text-anchor="middle" x="560.5" y="-7.9" font-family="Ubuntu Mono" font-size="12.00">messages::get_clock</text>
</a>
</g>
</g>
<!-- Node2&#45;&gt;Node4 -->
<g id="edge4" class="edge"><title>Node2&#45;&gt;Node4</title>
<path fill="none" stroke="midnightblue" d="M447.161,-24.6169C459.142,-23.1646 472.094,-21.5947 484.797,-20.0549"/>
<polygon fill="midnightblue" stroke="midnightblue" points="485.402,-23.5073 494.908,-18.8293 484.56,-16.5581 485.402,-23.5073"/>
</g>
</g>
</svg>
