<?xml version="1.0" encoding="UTF-8" standalone="no"?>
<!DOCTYPE svg PUBLIC "-//W3C//DTD SVG 1.1//EN"
 "http://www.w3.org/Graphics/SVG/1.1/DTD/svg11.dtd">
<!-- Generated by graphviz version 14.1.2 (20260124.0452)
 -->
<!-- Title: messages::start_time Pages: 1 -->
<svg width="1314pt" height="1072pt"
 viewBox="0.00 0.00 1314.00 1072.00" xmlns="http://www.w3.org/2000/svg" xmlns:xlink="http://www.w3.org/1999/xlink">
<g id="graph0" class="graph" transform="scale(1 1) rotate(0) translate(4 1068.38)">
<title>messages::start_time</title>
<!-- Node1 -->
<g id="Node000001" class="node">
<title>Node1</title>
<g id="a_Node000001"><a xlink:title="Start a timer.">
<polygon fill="#999999" stroke="#666666" points="1306,-637.75 1170,-637.75 1170,-617 1306,-617 1306,-637.75"/>
<text xml:space="preserve" text-anchor="middle" x="1238" y="-622.35" font-family="Ubuntu Mono" font-size="12.00">messages::start_time</text>
</a>
</g>
</g>
<!-- Node2 -->
<g id="Node000002" class="node">
<title>Node2</title>
<g id="a_Node000002"><a xlink:href="PB3D_8f90.html#a36e5b0ce05c9783f58b43c4463b290a1" target="_top" xlink:title="Peeling Ballooning in 3D.">
<polygon fill="white" stroke="#666666" points="88,-446.75 0,-446.75 0,-426 88,-426 88,-446.75"/>
<text xml:space="preserve" text-anchor="middle" x="44" y="-431.35" font-family="Ubuntu Mono" font-size="12.00">__pb3d_f90__</text>
</a>
</g>
</g>
<!-- Node1&#45;&gt;Node2 -->
<g id="edge1_Node000001_Node000002" class="edge">
<title>Node1&#45;&gt;Node2</title>
<g id="a_edge1_Node000001_Node000002"><a xlink:title=" ">
<path fill="none" stroke="#63b8ff" d="M1232.33,-649.06C1221.61,-694.83 1191.59,-802.99 1134,-874.38 1035.14,-996.92 992.45,-1064.38 835,-1064.38 835,-1064.38 835,-1064.38 411,-1064.38 112.87,-1064.38 53.29,-529.54 45.88,-447.01"/>
<polygon fill="#63b8ff" stroke="#63b8ff" points="1235.68,-650.12 1234.47,-639.59 1228.85,-648.57 1235.68,-650.12"/>
</a>
</g>
</g>
<!-- Node3 -->
<g id="Node000003" class="node">
<title>Node3</title>
<g id="a_Node000003"><a xlink:href="POST_8f90.html#a28f8fd95cf9c74c0cfd8b386827a7a9b" target="_top" xlink:title="Peeling Ballooning in 3D: postprocessing.">
<polygon fill="white" stroke="#666666" points="456,-96.75 368,-96.75 368,-76 456,-76 456,-96.75"/>
<text xml:space="preserve" text-anchor="middle" x="412" y="-81.35" font-family="Ubuntu Mono" font-size="12.00">__post_f90__</text>
</a>
</g>
</g>
<!-- Node1&#45;&gt;Node3 -->
<g id="edge2_Node000001_Node000003" class="edge">
<title>Node1&#45;&gt;Node3</title>
<g id="a_edge2_Node000001_Node000003"><a xlink:title=" ">
<path fill="none" stroke="#63b8ff" d="M1234.45,-605.25C1227.2,-550.18 1202.38,-404.35 1134,-306.38 1064.95,-207.44 1025.99,-197 920,-139.38 764.37,-54.77 704.54,-52.89 528,-67.38 504.2,-69.33 477.91,-73.52 456.48,-77.47"/>
<polygon fill="#63b8ff" stroke="#63b8ff" points="1230.98,-605.68 1235.68,-615.17 1237.92,-604.82 1230.98,-605.68"/>
</a>
</g>
</g>
<!-- Node4 -->
<g id="Node000004" class="node">
<title>Node4</title>
<g id="a_Node000004"><a xlink:href="namespaceinput__utilities.html#a03e09af96ba6f7e187ea4a1d9b743148" target="_top" xlink:title="Queries for user input for an integer value, where allowable range can be provided as well.">
<polygon fill="white" stroke="#666666" points="1125,-770.75 965,-770.75 965,-750 1125,-750 1125,-770.75"/>
<text xml:space="preserve" text-anchor="middle" x="1045" y="-755.35" font-family="Ubuntu Mono" font-size="12.00">input_utilities::get_int</text>
</a>
</g>
</g>
<!-- Node1&#45;&gt;Node4 -->
<g id="edge3_Node000001_Node000004" class="edge">
<title>Node1&#45;&gt;Node4</title>
<g id="a_edge3_Node000001_Node000004"><a xlink:title=" ">
<path fill="none" stroke="#63b8ff" d="M1212.39,-644.51C1172.39,-672.36 1094.42,-726.66 1061.38,-749.67"/>
<polygon fill="#63b8ff" stroke="#63b8ff" points="1214.24,-647.49 1220.45,-638.9 1210.24,-641.74 1214.24,-647.49"/>
</a>
</g>
</g>
<!-- Node11 -->
<g id="Node000011" class="node">
<title>Node11</title>
<g id="a_Node000011"><a xlink:href="namespaceinput__utilities.html#ad9ce824c30b32041ab70f3fb191f06db" target="_top" xlink:title="Queries for a logical value yes or no, where the default answer is also to be provided.">
<polygon fill="white" stroke="#666666" points="1125,-504.75 965,-504.75 965,-484 1125,-484 1125,-504.75"/>
<text xml:space="preserve" text-anchor="middle" x="1045" y="-489.35" font-family="Ubuntu Mono" font-size="12.00">input_utilities::get_log</text>
</a>
</g>
</g>
<!-- Node1&#45;&gt;Node11 -->
<g id="edge16_Node000001_Node000011" class="edge">
<title>Node1&#45;&gt;Node11</title>
<g id="a_edge16_Node000001_Node000011"><a xlink:title=" ">
<path fill="none" stroke="#63b8ff" d="M1212.39,-610.24C1172.39,-582.39 1094.42,-528.09 1061.38,-505.08"/>
<polygon fill="#63b8ff" stroke="#63b8ff" points="1210.24,-613.01 1220.45,-615.85 1214.24,-607.26 1210.24,-613.01"/>
</a>
</g>
</g>
<!-- Node21 -->
<g id="Node000021" class="node">
<title>Node21</title>
<g id="a_Node000021"><a xlink:href="namespaceinput__utilities.html#a41fc0c806e12bc722771210cfa1edbd3" target="_top" xlink:title="Queries for user input for a real value, where allowable range can be provided as well.">
<polygon fill="white" stroke="#666666" points="1128,-865.75 962,-865.75 962,-845 1128,-845 1128,-865.75"/>
<text xml:space="preserve" text-anchor="middle" x="1045" y="-850.35" font-family="Ubuntu Mono" font-size="12.00">input_utilities::get_real</text>
</a>
</g>
</g>
<!-- Node1&#45;&gt;Node21 -->
<g id="edge38_Node000001_Node000021" class="edge">
<title>Node1&#45;&gt;Node21</title>
<g id="a_edge38_Node000001_Node000021"><a xlink:title=" ">
<path fill="none" stroke="#63b8ff" d="M1225.47,-647.87C1207.88,-678.26 1172.3,-736.31 1134,-779.38 1110.92,-805.32 1079.13,-830.71 1060.75,-844.58"/>
<polygon fill="#63b8ff" stroke="#63b8ff" points="1228.44,-649.74 1230.36,-639.32 1222.36,-646.26 1228.44,-649.74"/>
</a>
</g>
</g>
<!-- Node22 -->
<g id="Node000022" class="node">
<title>Node22</title>
<g id="a_Node000022"><a xlink:href="namespaceinput__utilities.html#a71bd36f063d55ab62c7a37864aef1185" target="_top" xlink:title="Pauses the running of the program.">
<polygon fill="white" stroke="#666666" points="1134,-335.75 956,-335.75 956,-315 1134,-315 1134,-335.75"/>
<text xml:space="preserve" text-anchor="middle" x="1045" y="-320.35" font-family="Ubuntu Mono" font-size="12.00">input_utilities::pause_prog</text>
</a>
</g>
</g>
<!-- Node1&#45;&gt;Node22 -->
<g id="edge44_Node000001_Node000022" class="edge">
<title>Node1&#45;&gt;Node22</title>
<g id="a_edge44_Node000001_Node000022"><a xlink:title=" ">
<path fill="none" stroke="#63b8ff" d="M1224.1,-606.99C1186.95,-548.23 1080.53,-379.97 1052.72,-335.99"/>
<polygon fill="#63b8ff" stroke="#63b8ff" points="1221.09,-608.77 1229.39,-615.35 1227.01,-605.03 1221.09,-608.77"/>
</a>
</g>
</g>
<!-- Node5 -->
<g id="Node000005" class="node">
<title>Node5</title>
<g id="a_Node000005"><a xlink:href="interfaceeq__ops_1_1calc__eq.html#ae2f56ab19ce5c33e863f32e1c9263604" target="_top" xlink:title="metric version">
<polygon fill="white" stroke="#666666" points="706,-922.75 534,-922.75 534,-902 706,-902 706,-922.75"/>
<text xml:space="preserve" text-anchor="middle" x="620" y="-907.35" font-family="Ubuntu Mono" font-size="12.00">eq_ops::calc_eq::calc_eq_2</text>
</a>
</g>
</g>
<!-- Node4&#45;&gt;Node5 -->
<g id="edge4_Node000004_Node000005" class="edge">
<title>Node4&#45;&gt;Node5</title>
<g id="a_edge4_Node000004_Node000005"><a xlink:title=" ">
<path fill="none" stroke="#63b8ff" d="M1018.01,-777.44C998.63,-791.32 972.73,-812.46 956,-836.38 930.12,-873.38 957.16,-905.72 920,-931.38 834.39,-990.48 700.05,-945.64 645.37,-923.19"/>
<polygon fill="#63b8ff" stroke="#63b8ff" points="1019.74,-780.5 1025.95,-771.92 1015.74,-774.75 1019.74,-780.5"/>
</a>
</g>
</g>
<!-- Node6 -->
<g id="Node000006" class="node">
<title>Node6</title>
<g id="a_Node000006"><a xlink:href="namespacetest.html#aca21ee464c0b1f4b617177afdde110ec" target="_top" xlink:title="Performs generic tests.">
<polygon fill="white" stroke="#666666" points="685,-618.75 555,-618.75 555,-598 685,-598 685,-618.75"/>
<text xml:space="preserve" text-anchor="middle" x="620" y="-603.35" font-family="Ubuntu Mono" font-size="12.00">test::generic_tests</text>
</a>
</g>
</g>
<!-- Node4&#45;&gt;Node6 -->
<g id="edge5_Node000004_Node000006" class="edge">
<title>Node4&#45;&gt;Node6</title>
<g id="a_edge5_Node000004_Node000006"><a xlink:title=" ">
<path fill="none" stroke="#63b8ff" d="M953.62,-771.17C892.74,-774.55 812.15,-771.28 748,-741.38 688.97,-713.85 643.37,-645.74 627.28,-619.2"/>
<polygon fill="#63b8ff" stroke="#63b8ff" points="953.49,-774.68 963.24,-770.56 953.04,-767.7 953.49,-774.68"/>
</a>
</g>
</g>
<!-- Node7 -->
<g id="Node000007" class="node">
<title>Node7</title>
<g id="a_Node000007"><a xlink:href="test_8f90.html#a197914f99b7e194fb4bca9ca3669e0e8" target="_top" xlink:title=" ">
<polygon fill="white" stroke="#666666" points="860,-732.75 808,-732.75 808,-712 860,-712 860,-732.75"/>
<text xml:space="preserve" text-anchor="middle" x="834" y="-717.35" font-family="Ubuntu Mono" font-size="12.00">plot_y</text>
</a>
</g>
</g>
<!-- Node4&#45;&gt;Node7 -->
<g id="edge8_Node000004_Node000007" class="edge">
<title>Node4&#45;&gt;Node7</title>
<g id="a_edge8_Node000004_Node000007"><a xlink:title=" ">
<path fill="none" stroke="#63b8ff" d="M973.08,-747.48C934.12,-740.4 888.2,-732.05 860.36,-726.99"/>
<polygon fill="#63b8ff" stroke="#63b8ff" points="972.43,-750.92 982.9,-749.27 973.69,-744.03 972.43,-750.92"/>
</a>
</g>
</g>
<!-- Node8 -->
<g id="Node000008" class="node">
<title>Node8</title>
<g id="a_Node000008"><a xlink:href="namespacedriver__eq.html#a40d652e15887ad4f788a3945e6253571" target="_top" xlink:title="Main driver of PB3D equilibrium part.">
<polygon fill="white" stroke="#666666" points="492,-393.75 332,-393.75 332,-373 492,-373 492,-393.75"/>
<text xml:space="preserve" text-anchor="middle" x="412" y="-378.35" font-family="Ubuntu Mono" font-size="12.00">driver_eq::run_driver_eq</text>
</a>
</g>
</g>
<!-- Node4&#45;&gt;Node8 -->
<g id="edge10_Node000004_Node000008" class="edge">
<title>Node4&#45;&gt;Node8</title>
<g id="a_edge10_Node000004_Node000008"><a xlink:title=" ">
<path fill="none" stroke="#63b8ff" d="M984.36,-773.27C923.56,-783.93 827.2,-793.85 748,-770.38 636.19,-737.23 594.67,-723.06 528,-627.38 486.58,-567.93 525.83,-532.45 492,-468.38 475.54,-437.2 444.67,-408.92 426.78,-394.15"/>
<polygon fill="#63b8ff" stroke="#63b8ff" points="984.95,-776.72 994.16,-771.49 983.7,-769.84 984.95,-776.72"/>
</a>
</g>
</g>
<!-- Node9 -->
<g id="Node000009" class="node">
<title>Node9</title>
<g id="a_Node000009"><a xlink:href="namespacedriver__x.html#a0dafd879836a65efc2ec726d04368532" target="_top" xlink:title="Main driver of PB3D perturbation part.">
<polygon fill="white" stroke="#666666" points="694,-247.75 546,-247.75 546,-227 694,-227 694,-247.75"/>
<text xml:space="preserve" text-anchor="middle" x="620" y="-232.35" font-family="Ubuntu Mono" font-size="12.00">driver_x::run_driver_x</text>
</a>
</g>
</g>
<!-- Node4&#45;&gt;Node9 -->
<g id="edge12_Node000004_Node000009" class="edge">
<title>Node4&#45;&gt;Node9</title>
<g id="a_edge12_Node000004_Node000009"><a xlink:title=" ">
<path fill="none" stroke="#63b8ff" d="M1036.45,-739.17C1010.43,-666.19 925.77,-429.52 920,-423.38 862.81,-362.43 806.04,-407.51 748,-347.38 718.08,-316.38 744.86,-285.24 712,-257.38 706.69,-252.88 700.6,-249.32 694.14,-246.53"/>
<polygon fill="#63b8ff" stroke="#63b8ff" points="1033.06,-740.1 1039.72,-748.34 1039.66,-737.75 1033.06,-740.1"/>
</a>
</g>
</g>
<!-- Node10 -->
<g id="Node000010" class="node">
<title>Node10</title>
<g id="a_Node000010"><a xlink:href="namespacehelena__ops.html#a0f156b3653264fb016d6d311eb59114c" target="_top" xlink:title="Checks whether the metric elements provided by HELENA are consistent with a direct calculation using ...">
<polygon fill="white" stroke="#666666" points="920,-922.75 748,-922.75 748,-902 920,-902 920,-922.75"/>
<text xml:space="preserve" text-anchor="middle" x="834" y="-907.35" font-family="Ubuntu Mono" font-size="12.00">helena_ops::test_metrics_h</text>
</a>
</g>
</g>
<!-- Node4&#45;&gt;Node10 -->
<g id="edge14_Node000004_Node000010" class="edge">
<title>Node4&#45;&gt;Node10</title>
<g id="a_edge14_Node000004_Node000010"><a xlink:title=" ">
<path fill="none" stroke="#63b8ff" d="M1020.02,-777.81C976.4,-809.54 885.26,-875.82 849.68,-901.7"/>
<polygon fill="#63b8ff" stroke="#63b8ff" points="1022.05,-780.67 1028.08,-771.95 1017.93,-775 1022.05,-780.67"/>
</a>
</g>
</g>
<!-- Node6&#45;&gt;Node2 -->
<g id="edge6_Node000006_Node000002" class="edge">
<title>Node6&#45;&gt;Node2</title>
<g id="a_edge6_Node000006_Node000002"><a xlink:title=" ">
<path fill="none" stroke="#63b8ff" d="M565.78,-594.67C474.62,-570.86 283.05,-519.28 124,-466.38 106.46,-460.54 87.05,-453.18 71.86,-447.21"/>
<polygon fill="#63b8ff" stroke="#63b8ff" points="564.89,-598.06 575.45,-597.19 566.66,-591.28 564.89,-598.06"/>
</a>
</g>
</g>
<!-- Node6&#45;&gt;Node3 -->
<g id="edge7_Node000006_Node000003" class="edge">
<title>Node6&#45;&gt;Node3</title>
<g id="a_edge7_Node000006_Node000003"><a xlink:title=" ">
<path fill="none" stroke="#63b8ff" d="M596.06,-590.55C575.18,-573.11 545.11,-544.65 528,-513.38 495.31,-453.6 509.31,-430.27 492,-364.38 464.52,-259.8 427.32,-134.29 416.24,-97.19"/>
<polygon fill="#63b8ff" stroke="#63b8ff" points="593.78,-593.21 603.74,-596.81 598.2,-587.78 593.78,-593.21"/>
</a>
</g>
</g>
<!-- Node7&#45;&gt;Node6 -->
<g id="edge9_Node000007_Node000006" class="edge">
<title>Node7&#45;&gt;Node6</title>
<g id="a_edge9_Node000007_Node000006"><a xlink:title=" ">
<path fill="none" stroke="#63b8ff" d="M802.98,-706.23C759.06,-682.62 678.45,-639.27 641.05,-619.15"/>
<polygon fill="#63b8ff" stroke="#63b8ff" points="801.26,-709.28 811.72,-710.93 804.57,-703.11 801.26,-709.28"/>
</a>
</g>
</g>
<!-- Node8&#45;&gt;Node2 -->
<g id="edge11_Node000008_Node000002" class="edge">
<title>Node8&#45;&gt;Node2</title>
<g id="a_edge11_Node000008_Node000002"><a xlink:title=" ">
<path fill="none" stroke="#63b8ff" d="M324.86,-395.85C250.57,-406.61 146.36,-421.7 88.34,-430.1"/>
<polygon fill="#63b8ff" stroke="#63b8ff" points="325.16,-399.34 334.55,-394.45 324.15,-392.41 325.16,-399.34"/>
</a>
</g>
</g>
<!-- Node9&#45;&gt;Node2 -->
<g id="edge13_Node000009_Node000002" class="edge">
<title>Node9&#45;&gt;Node2</title>
<g id="a_edge13_Node000009_Node000002"><a xlink:title=" ">
<path fill="none" stroke="#63b8ff" d="M553.87,-250.73C545.13,-252.8 536.32,-255.04 528,-257.38 345.19,-308.73 298.89,-322.42 124,-396.38 103.19,-405.18 80.23,-417.06 64.45,-425.58"/>
<polygon fill="#63b8ff" stroke="#63b8ff" points="554.42,-254.2 563.38,-248.54 552.85,-247.38 554.42,-254.2"/>
</a>
</g>
</g>
<!-- Node10&#45;&gt;Node5 -->
<g id="edge15_Node000010_Node000005" class="edge">
<title>Node10&#45;&gt;Node5</title>
<g id="a_edge15_Node000010_Node000005"><a xlink:title=" ">
<path fill="none" stroke="#63b8ff" d="M736.46,-912.38C726.46,-912.38 716.35,-912.38 706.48,-912.38"/>
<polygon fill="#63b8ff" stroke="#63b8ff" points="736.17,-915.88 746.17,-912.38 736.17,-908.88 736.17,-915.88"/>
</a>
</g>
</g>
<!-- Node11&#45;&gt;Node5 -->
<g id="edge17_Node000011_Node000005" class="edge">
<title>Node11&#45;&gt;Node5</title>
<g id="a_edge17_Node000011_Node000005"><a xlink:title=" ">
<path fill="none" stroke="#63b8ff" d="M1034.48,-515.03C1017.04,-550.5 976.48,-622.79 920,-660.38 854.4,-704.02 811.44,-656.64 748,-703.38 674.84,-757.26 635.25,-867.1 624.23,-901.7"/>
<polygon fill="#63b8ff" stroke="#63b8ff" points="1037.52,-516.79 1038.67,-506.26 1031.2,-513.77 1037.52,-516.79"/>
</a>
</g>
</g>
<!-- Node11&#45;&gt;Node6 -->
<g id="edge18_Node000011_Node000006" class="edge">
<title>Node11&#45;&gt;Node6</title>
<g id="a_edge18_Node000011_Node000006"><a xlink:title=" ">
<path fill="none" stroke="#63b8ff" d="M1025.58,-512.9C1002.94,-534.36 962.29,-568.75 920,-584.38 842.94,-612.85 747.32,-615.35 685.27,-613.07"/>
<polygon fill="#63b8ff" stroke="#63b8ff" points="1027.78,-515.65 1032.52,-506.17 1022.91,-510.62 1027.78,-515.65"/>
</a>
</g>
</g>
<!-- Node11&#45;&gt;Node7 -->
<g id="edge26_Node000011_Node000007" class="edge">
<title>Node11&#45;&gt;Node7</title>
<g id="a_edge26_Node000011_Node000007"><a xlink:title=" ">
<path fill="none" stroke="#63b8ff" d="M1036.94,-516C1022.16,-557.78 983.97,-649.75 920,-698.38 902.66,-711.55 878.41,-717.49 860.24,-720.17"/>
<polygon fill="#63b8ff" stroke="#63b8ff" points="1040.22,-517.21 1040.14,-506.62 1033.6,-514.95 1040.22,-517.21"/>
</a>
</g>
</g>
<!-- Node11&#45;&gt;Node8 -->
<g id="edge31_Node000011_Node000008" class="edge">
<title>Node11&#45;&gt;Node8</title>
<g id="a_edge31_Node000011_Node000008"><a xlink:title=" ">
<path fill="none" stroke="#63b8ff" d="M1020.82,-476.89C996.94,-459.93 957.96,-435.09 920,-423.38 842.38,-399.42 614.42,-389.24 492.34,-385.4"/>
<polygon fill="#63b8ff" stroke="#63b8ff" points="1018.71,-479.68 1028.86,-482.72 1022.82,-474.02 1018.71,-479.68"/>
</a>
</g>
</g>
<!-- Node11&#45;&gt;Node9 -->
<g id="edge32_Node000011_Node000009" class="edge">
<title>Node11&#45;&gt;Node9</title>
<g id="a_edge32_Node000011_Node000009"><a xlink:title=" ">
<path fill="none" stroke="#63b8ff" d="M1030.93,-474.17C1012.88,-445.82 979.84,-392.32 956,-344.38 937.37,-306.91 953.99,-281.78 920,-257.38 885.13,-232.34 771,-231.27 694.27,-233.67"/>
<polygon fill="#63b8ff" stroke="#63b8ff" points="1027.91,-475.94 1036.25,-482.47 1033.8,-472.16 1027.91,-475.94"/>
</a>
</g>
</g>
<!-- Node12 -->
<g id="Node000012" class="node">
<title>Node12</title>
<g id="a_Node000012"><a xlink:href="namespacevac__utilities.html#a8e7889688701f6ac2fd2c60cdee2b96a" target="_top" xlink:title="Copies vacuum variables of a previous level into the appropriate, interlaced place of a next level.">
<polygon fill="white" stroke="#666666" points="917,-338.12 751,-338.12 751,-304.62 917,-304.62 917,-338.12"/>
<text xml:space="preserve" text-anchor="start" x="759" y="-322.73" font-family="Ubuntu Mono" font-size="12.00">vac_utilities::interlaced</text>
<text xml:space="preserve" text-anchor="middle" x="834" y="-309.98" font-family="Ubuntu Mono" font-size="12.00">_vac_copy</text>
</a>
</g>
</g>
<!-- Node11&#45;&gt;Node12 -->
<g id="edge19_Node000011_Node000012" class="edge">
<title>Node11&#45;&gt;Node12</title>
<g id="a_edge19_Node000011_Node000012"><a xlink:title=" ">
<path fill="none" stroke="#63b8ff" d="M1031.38,-474.33C1011.29,-443.94 969.25,-386.16 920,-352.38 912.1,-346.95 903.14,-342.36 894.07,-338.5"/>
<polygon fill="#63b8ff" stroke="#63b8ff" points="1028.35,-476.09 1036.72,-482.58 1034.23,-472.29 1028.35,-476.09"/>
</a>
</g>
</g>
<!-- Node14 -->
<g id="Node000014" class="node">
<title>Node14</title>
<g id="a_Node000014"><a xlink:href="namespaceeq__ops.html#a55917387e2d5511f49396a2b7f9f2b5a" target="_top" xlink:title="Plots the curvature.">
<polygon fill="white" stroke="#666666" points="896,-286.75 772,-286.75 772,-266 896,-266 896,-286.75"/>
<text xml:space="preserve" text-anchor="middle" x="834" y="-271.35" font-family="Ubuntu Mono" font-size="12.00">eq_ops::kappa_plot</text>
</a>
</g>
</g>
<!-- Node11&#45;&gt;Node14 -->
<g id="edge22_Node000011_Node000014" class="edge">
<title>Node11&#45;&gt;Node14</title>
<g id="a_edge22_Node000011_Node000014"><a xlink:title=" ">
<path fill="none" stroke="#63b8ff" d="M1032.31,-473.65C1004.75,-425.12 936.83,-307.31 920,-295.38 912.97,-290.39 904.85,-286.68 896.49,-283.93"/>
<polygon fill="#63b8ff" stroke="#63b8ff" points="1029.25,-475.35 1037.22,-482.33 1035.34,-471.9 1029.25,-475.35"/>
</a>
</g>
</g>
<!-- Node16 -->
<g id="Node000016" class="node">
<title>Node16</title>
<g id="a_Node000016"><a xlink:href="namespacex__ops.html#abdaf1308e13cede3a153e8c6cf35a637" target="_top" xlink:title="plot &#45;profile or &#45;profile in flux coordinates with &#160;or &#160;indicated if requested.">
<polygon fill="white" stroke="#666666" points="905,-210.75 763,-210.75 763,-190 905,-190 905,-210.75"/>
<text xml:space="preserve" text-anchor="middle" x="834" y="-195.35" font-family="Ubuntu Mono" font-size="12.00">x_ops::resonance_plot</text>
</a>
</g>
</g>
<!-- Node11&#45;&gt;Node16 -->
<g id="edge27_Node000011_Node000016" class="edge">
<title>Node11&#45;&gt;Node16</title>
<g id="a_edge27_Node000011_Node000016"><a xlink:title=" ">
<path fill="none" stroke="#63b8ff" d="M1029.96,-474.08C1011.04,-445.99 977.29,-393.21 956,-344.38 933.75,-293.33 959.69,-263.43 920,-224.38 914.32,-218.78 907.43,-214.47 900.08,-211.15"/>
<polygon fill="#63b8ff" stroke="#63b8ff" points="1027.05,-476.02 1035.57,-482.32 1032.84,-472.08 1027.05,-476.02"/>
</a>
</g>
</g>
<!-- Node18 -->
<g id="Node000018" class="node">
<title>Node18</title>
<g id="a_Node000018"><a xlink:href="namespaceslepc__ops.html#a500b46d275e7dda76ed46db7e2515b24" target="_top" xlink:title="Sets up the matrices &#160;and &#160;in the EV problem &#160;.">
<polygon fill="white" stroke="#666666" points="691,-504.75 549,-504.75 549,-484 691,-484 691,-504.75"/>
<text xml:space="preserve" text-anchor="middle" x="620" y="-489.35" font-family="Ubuntu Mono" font-size="12.00">slepc_ops::setup_mats</text>
</a>
</g>
</g>
<!-- Node11&#45;&gt;Node18 -->
<g id="edge33_Node000011_Node000018" class="edge">
<title>Node11&#45;&gt;Node18</title>
<g id="a_edge33_Node000011_Node000018"><a xlink:title=" ">
<path fill="none" stroke="#63b8ff" d="M953.61,-494.38C875.15,-494.38 763.15,-494.38 691.25,-494.38"/>
<polygon fill="#63b8ff" stroke="#63b8ff" points="953.42,-497.88 963.42,-494.38 953.42,-490.88 953.42,-497.88"/>
</a>
</g>
</g>
<!-- Node19 -->
<g id="Node000019" class="node">
<title>Node19</title>
<g id="a_Node000019"><a xlink:href="namespaceslepc__ops.html#ad5a8b4c450e66604733f3c04e7ef2bf9" target="_top" xlink:title="Solve the eigenvalue system using SLEPC.">
<polygon fill="white" stroke="#666666" points="477,-511.12 347,-511.12 347,-477.62 477,-477.62 477,-511.12"/>
<text xml:space="preserve" text-anchor="start" x="355" y="-495.73" font-family="Ubuntu Mono" font-size="12.00">slepc_ops::solve_ev</text>
<text xml:space="preserve" text-anchor="middle" x="412" y="-482.98" font-family="Ubuntu Mono" font-size="12.00">_system_slepc</text>
</a>
</g>
</g>
<!-- Node11&#45;&gt;Node19 -->
<g id="edge37_Node000011_Node000019" class="edge">
<title>Node11&#45;&gt;Node19</title>
<g id="a_edge37_Node000011_Node000019"><a xlink:title=" ">
<path fill="none" stroke="#63b8ff" d="M953.5,-505.53C942.24,-506.64 930.86,-507.63 920,-508.38 746.17,-520.25 701.65,-527.62 528,-513.38 511.46,-512.02 493.72,-509.58 477.24,-506.89"/>
<polygon fill="#63b8ff" stroke="#63b8ff" points="953.62,-509.04 963.21,-504.54 952.9,-502.07 953.62,-509.04"/>
</a>
</g>
</g>
<!-- Node13 -->
<g id="Node000013" class="node">
<title>Node13</title>
<g id="a_Node000013"><a xlink:href="namespacevac__ops.html#a37220702fbf378626a0f2c12f446e0aa" target="_top" xlink:title="Stores calculation of the vacuum response by storing the necessary variables.">
<polygon fill="white" stroke="#666666" points="682,-372.75 558,-372.75 558,-352 682,-352 682,-372.75"/>
<text xml:space="preserve" text-anchor="middle" x="620" y="-357.35" font-family="Ubuntu Mono" font-size="12.00">vac_ops::store_vac</text>
</a>
</g>
</g>
<!-- Node12&#45;&gt;Node13 -->
<g id="edge20_Node000012_Node000013" class="edge">
<title>Node12&#45;&gt;Node13</title>
<g id="a_edge20_Node000012_Node000013"><a xlink:title=" ">
<path fill="none" stroke="#63b8ff" d="M739.64,-339.43C718.28,-343.56 696.22,-347.83 677.01,-351.54"/>
<polygon fill="#63b8ff" stroke="#63b8ff" points="740.09,-342.91 749.25,-337.57 738.76,-336.04 740.09,-342.91"/>
</a>
</g>
</g>
<!-- Node13&#45;&gt;Node8 -->
<g id="edge21_Node000013_Node000008" class="edge">
<title>Node13&#45;&gt;Node8</title>
<g id="a_edge21_Node000013_Node000008"><a xlink:title=" ">
<path fill="none" stroke="#63b8ff" d="M546.46,-369.77C528.95,-371.55 510.16,-373.47 492.36,-375.29"/>
<polygon fill="#63b8ff" stroke="#63b8ff" points="546.65,-373.27 556.25,-368.77 545.94,-366.3 546.65,-373.27"/>
</a>
</g>
</g>
<!-- Node14&#45;&gt;Node8 -->
<g id="edge23_Node000014_Node000008" class="edge">
<title>Node14&#45;&gt;Node8</title>
<g id="a_edge23_Node000014_Node000008"><a xlink:title=" ">
<path fill="none" stroke="#63b8ff" d="M762.48,-289.4C700.29,-301.47 607.44,-320.92 528,-343.38 497.89,-351.89 464.16,-363.92 441.06,-372.57"/>
<polygon fill="#63b8ff" stroke="#63b8ff" points="763.09,-292.85 772.24,-287.52 761.76,-285.97 763.09,-292.85"/>
</a>
</g>
</g>
<!-- Node15 -->
<g id="Node000015" class="node">
<title>Node15</title>
<g id="a_Node000015"><a xlink:href="namespacedriver__post.html#a33b3c6f9018a0ddc92dce77394b8ab37" target="_top" xlink:title="The main driver routine for postprocessing.">
<polygon fill="white" stroke="#666666" points="712,-286.75 528,-286.75 528,-266 712,-266 712,-286.75"/>
<text xml:space="preserve" text-anchor="middle" x="620" y="-271.35" font-family="Ubuntu Mono" font-size="12.00">driver_post::run_driver_post</text>
</a>
</g>
</g>
<!-- Node14&#45;&gt;Node15 -->
<g id="edge24_Node000014_Node000015" class="edge">
<title>Node14&#45;&gt;Node15</title>
<g id="a_edge24_Node000014_Node000015"><a xlink:title=" ">
<path fill="none" stroke="#63b8ff" d="M760.55,-276.38C744.98,-276.38 728.33,-276.38 712.16,-276.38"/>
<polygon fill="#63b8ff" stroke="#63b8ff" points="760.17,-279.88 770.17,-276.38 760.17,-272.88 760.17,-279.88"/>
</a>
</g>
</g>
<!-- Node15&#45;&gt;Node3 -->
<g id="edge25_Node000015_Node000003" class="edge">
<title>Node15&#45;&gt;Node3</title>
<g id="a_edge25_Node000015_Node000003"><a xlink:title=" ">
<path fill="none" stroke="#63b8ff" d="M535.51,-260.88C532.91,-259.5 530.4,-258 528,-256.38 466.38,-214.56 428.72,-127.71 416.97,-97.23"/>
<polygon fill="#63b8ff" stroke="#63b8ff" points="533.94,-264.02 544.49,-265 536.86,-257.65 533.94,-264.02"/>
</a>
</g>
</g>
<!-- Node16&#45;&gt;Node9 -->
<g id="edge30_Node000016_Node000009" class="edge">
<title>Node16&#45;&gt;Node9</title>
<g id="a_edge30_Node000016_Node000009"><a xlink:title=" ">
<path fill="none" stroke="#63b8ff" d="M759.59,-213.19C734.68,-217.53 707.12,-222.34 683.17,-226.52"/>
<polygon fill="#63b8ff" stroke="#63b8ff" points="760.09,-216.65 769.33,-211.49 758.88,-209.76 760.09,-216.65"/>
</a>
</g>
</g>
<!-- Node17 -->
<g id="Node000017" class="node">
<title>Node17</title>
<g id="a_Node000017"><a xlink:href="namespacedriver__post.html#af527706d4e696d4e507443d2f74194ef" target="_top" xlink:title="Initializes the POST driver.">
<polygon fill="white" stroke="#666666" points="694,-96.75 546,-96.75 546,-76 694,-76 694,-96.75"/>
<text xml:space="preserve" text-anchor="middle" x="620" y="-81.35" font-family="Ubuntu Mono" font-size="12.00">driver_post::init_post</text>
</a>
</g>
</g>
<!-- Node16&#45;&gt;Node17 -->
<g id="edge28_Node000016_Node000017" class="edge">
<title>Node16&#45;&gt;Node17</title>
<g id="a_edge28_Node000016_Node000017"><a xlink:title=" ">
<path fill="none" stroke="#63b8ff" d="M802.98,-184.23C759.06,-160.62 678.45,-117.27 641.05,-97.15"/>
<polygon fill="#63b8ff" stroke="#63b8ff" points="801.26,-187.28 811.72,-188.93 804.57,-181.11 801.26,-187.28"/>
</a>
</g>
</g>
<!-- Node17&#45;&gt;Node3 -->
<g id="edge29_Node000017_Node000003" class="edge">
<title>Node17&#45;&gt;Node3</title>
<g id="a_edge29_Node000017_Node000003"><a xlink:title=" ">
<path fill="none" stroke="#63b8ff" d="M534.18,-86.38C507.46,-86.38 479.05,-86.38 456.46,-86.38"/>
<polygon fill="#63b8ff" stroke="#63b8ff" points="533.99,-89.88 543.99,-86.38 533.99,-82.88 533.99,-89.88"/>
</a>
</g>
</g>
<!-- Node18&#45;&gt;Node19 -->
<g id="edge34_Node000018_Node000019" class="edge">
<title>Node18&#45;&gt;Node19</title>
<g id="a_edge34_Node000018_Node000019"><a xlink:title=" ">
<path fill="none" stroke="#63b8ff" d="M537.43,-494.38C517.5,-494.38 496.46,-494.38 477.46,-494.38"/>
<polygon fill="#63b8ff" stroke="#63b8ff" points="537.17,-497.88 547.17,-494.38 537.17,-490.88 537.17,-497.88"/>
</a>
</g>
</g>
<!-- Node20 -->
<g id="Node000020" class="node">
<title>Node20</title>
<g id="a_Node000020"><a xlink:href="namespacedriver__sol.html#a8dad197124fcba9c120e568f8f1b85c6" target="_top" xlink:title="Main driver of PB3D solution part.">
<polygon fill="white" stroke="#666666" points="296,-457.75 124,-457.75 124,-437 296,-437 296,-457.75"/>
<text xml:space="preserve" text-anchor="middle" x="210" y="-442.35" font-family="Ubuntu Mono" font-size="12.00">driver_sol::run_driver_sol</text>
</a>
</g>
</g>
<!-- Node19&#45;&gt;Node20 -->
<g id="edge35_Node000019_Node000020" class="edge">
<title>Node19&#45;&gt;Node20</title>
<g id="a_edge35_Node000019_Node000020"><a xlink:title=" ">
<path fill="none" stroke="#63b8ff" d="M335.5,-476.63C309.17,-470.45 280.43,-463.69 257.2,-458.23"/>
<polygon fill="#63b8ff" stroke="#63b8ff" points="334.61,-480.02 345.14,-478.9 336.21,-473.2 334.61,-480.02"/>
</a>
</g>
</g>
<!-- Node20&#45;&gt;Node2 -->
<g id="edge36_Node000020_Node000002" class="edge">
<title>Node20&#45;&gt;Node2</title>
<g id="a_edge36_Node000020_Node000002"><a xlink:title=" ">
<path fill="none" stroke="#63b8ff" d="M112.17,-440.88C103.84,-440.32 95.71,-439.78 88.16,-439.27"/>
<polygon fill="#63b8ff" stroke="#63b8ff" points="111.92,-444.37 122.13,-441.55 112.38,-437.39 111.92,-444.37"/>
</a>
</g>
</g>
<!-- Node21&#45;&gt;Node5 -->
<g id="edge39_Node000021_Node000005" class="edge">
<title>Node21&#45;&gt;Node5</title>
<g id="a_edge39_Node000021_Node000005"><a xlink:title=" ">
<path fill="none" stroke="#63b8ff" d="M1029.23,-875.24C1008.32,-901.5 967.33,-946.53 920,-964.38 848.47,-991.34 823.01,-979.14 748,-964.38 708.03,-956.51 664.79,-935.95 640.48,-923.16"/>
<polygon fill="#63b8ff" stroke="#63b8ff" points="1031.96,-877.44 1035.31,-867.38 1026.42,-873.15 1031.96,-877.44"/>
</a>
</g>
</g>
<!-- Node21&#45;&gt;Node6 -->
<g id="edge40_Node000021_Node000006" class="edge">
<title>Node21&#45;&gt;Node6</title>
<g id="a_edge40_Node000021_Node000006"><a xlink:title=" ">
<path fill="none" stroke="#63b8ff" d="M994.94,-868.79C932.54,-882.87 823.8,-897.08 748,-850.38 659.94,-796.12 629.76,-658.78 622.74,-619.2"/>
<polygon fill="#63b8ff" stroke="#63b8ff" points="995.63,-872.23 1004.56,-866.53 994.03,-865.41 995.63,-872.23"/>
</a>
</g>
</g>
<!-- Node21&#45;&gt;Node7 -->
<g id="edge41_Node000021_Node000007" class="edge">
<title>Node21&#45;&gt;Node7</title>
<g id="a_edge41_Node000021_Node000007"><a xlink:title=" ">
<path fill="none" stroke="#63b8ff" d="M1017.63,-838.59C974.03,-810.85 888.13,-756.19 851.83,-733.08"/>
<polygon fill="#63b8ff" stroke="#63b8ff" points="1015.66,-841.49 1025.97,-843.9 1019.42,-835.58 1015.66,-841.49"/>
</a>
</g>
</g>
<!-- Node21&#45;&gt;Node18 -->
<g id="edge42_Node000021_Node000018" class="edge">
<title>Node21&#45;&gt;Node18</title>
<g id="a_edge42_Node000021_Node000018"><a xlink:title=" ">
<path fill="none" stroke="#63b8ff" d="M950.5,-842.67C884.64,-828.83 799.36,-800.19 748,-741.38 702.33,-689.08 745.18,-650.36 712,-589.38 692.46,-553.46 655.76,-521.33 635.44,-505.24"/>
<polygon fill="#63b8ff" stroke="#63b8ff" points="949.75,-846.09 960.24,-844.63 951.13,-839.23 949.75,-846.09"/>
</a>
</g>
</g>
<!-- Node21&#45;&gt;Node19 -->
<g id="edge43_Node000021_Node000019" class="edge">
<title>Node21&#45;&gt;Node19</title>
<g id="a_edge43_Node000021_Node000019"><a xlink:title=" ">
<path fill="none" stroke="#63b8ff" d="M1032.46,-875.54C1013.55,-906.28 972.75,-963.67 920,-986.38 758.4,-1055.92 653.17,-1055.01 528,-931.38 465.77,-869.91 424.69,-583.93 415.14,-511.22"/>
<polygon fill="#63b8ff" stroke="#63b8ff" points="1035.33,-877.56 1037.44,-867.18 1029.32,-873.98 1035.33,-877.56"/>
</a>
</g>
</g>
<!-- Node22&#45;&gt;Node5 -->
<g id="edge45_Node000022_Node000005" class="edge">
<title>Node22&#45;&gt;Node5</title>
<g id="a_edge45_Node000022_Node000005"><a xlink:title=" ">
<path fill="none" stroke="#63b8ff" d="M1032.01,-345.83C1001.61,-397.66 923.65,-530.36 920,-534.38 856.31,-604.54 809.24,-588.06 748,-660.38 679.61,-741.13 636.22,-865.01 624.32,-901.76"/>
<polygon fill="#63b8ff" stroke="#63b8ff" points="1034.93,-347.77 1036.97,-337.37 1028.89,-344.23 1034.93,-347.77"/>
</a>
</g>
</g>
<!-- Node22&#45;&gt;Node6 -->
<g id="edge46_Node000022_Node000006" class="edge">
<title>Node22&#45;&gt;Node6</title>
<g id="a_edge46_Node000022_Node000006"><a xlink:title=" ">
<path fill="none" stroke="#63b8ff" d="M1031.9,-345.28C1012,-376.62 969.57,-437.75 920,-475.38 836.96,-538.41 719.34,-579.41 659.38,-597.58"/>
<polygon fill="#63b8ff" stroke="#63b8ff" points="1034.65,-347.5 1036.97,-337.16 1028.71,-343.8 1034.65,-347.5"/>
</a>
</g>
</g>
<!-- Node22&#45;&gt;Node8 -->
<g id="edge52_Node000022_Node000008" class="edge">
<title>Node22&#45;&gt;Node8</title>
<g id="a_edge52_Node000022_Node000008"><a xlink:title=" ">
<path fill="none" stroke="#63b8ff" d="M1035.5,-304.02C1019.4,-266.89 980.56,-191.51 920,-161.38 851.56,-127.32 823.83,-151.71 748,-161.38 647.8,-174.14 610.92,-160.69 528,-218.38 468.38,-259.85 429.72,-342.85 417.32,-372.52"/>
<polygon fill="#63b8ff" stroke="#63b8ff" points="1032.26,-305.35 1039.35,-313.23 1038.72,-302.65 1032.26,-305.35"/>
</a>
</g>
</g>
<!-- Node22&#45;&gt;Node9 -->
<g id="edge53_Node000022_Node000009" class="edge">
<title>Node22&#45;&gt;Node9</title>
<g id="a_edge53_Node000022_Node000009"><a xlink:title=" ">
<path fill="none" stroke="#63b8ff" d="M1033.76,-304.69C1015.95,-271.36 975.77,-206.95 920,-181.38 821.11,-136.03 687.76,-199.92 639.45,-226.61"/>
<polygon fill="#63b8ff" stroke="#63b8ff" points="1030.54,-306.07 1038.24,-313.35 1036.76,-302.86 1030.54,-306.07"/>
</a>
</g>
</g>
<!-- Node22&#45;&gt;Node16 -->
<g id="edge51_Node000022_Node000016" class="edge">
<title>Node22&#45;&gt;Node16</title>
<g id="a_edge51_Node000022_Node000016"><a xlink:title=" ">
<path fill="none" stroke="#63b8ff" d="M1025.75,-306.36C1003,-283.71 961.98,-246.19 920,-224.38 909.52,-218.93 897.66,-214.59 886.19,-211.18"/>
<polygon fill="#63b8ff" stroke="#63b8ff" points="1023.23,-308.79 1032.74,-313.45 1028.21,-303.87 1023.23,-308.79"/>
</a>
</g>
</g>
<!-- Node23 -->
<g id="Node000023" class="node">
<title>Node23</title>
<g id="a_Node000023"><a xlink:href="namespaceslepc__utilities.html#aa34aa361f0bfff9621ecba179f9ed0c6" target="_top" xlink:title="Insert a block pertaining to 1 normal point into a matrix.">
<polygon fill="white" stroke="#666666" points="911,-466.12 757,-466.12 757,-432.62 911,-432.62 911,-466.12"/>
<text xml:space="preserve" text-anchor="start" x="765" y="-450.73" font-family="Ubuntu Mono" font-size="12.00">slepc_utilities::insert</text>
<text xml:space="preserve" text-anchor="middle" x="834" y="-437.98" font-family="Ubuntu Mono" font-size="12.00">_block_mat</text>
</a>
</g>
</g>
<!-- Node22&#45;&gt;Node23 -->
<g id="edge47_Node000022_Node000023" class="edge">
<title>Node22&#45;&gt;Node23</title>
<g id="a_edge47_Node000022_Node000023"><a xlink:title=" ">
<path fill="none" stroke="#63b8ff" d="M1016,-341.99C976.29,-365.55 903.99,-408.44 863.83,-432.27"/>
<polygon fill="#63b8ff" stroke="#63b8ff" points="1017.7,-345.05 1024.52,-336.93 1014.13,-339.03 1017.7,-345.05"/>
</a>
</g>
</g>
<!-- Node25 -->
<g id="Node000025" class="node">
<title>Node25</title>
<g id="a_Node000025"><a xlink:href="namespacempi__ops.html#a804ec65ff711509de1f8873f97bdf967" target="_top" xlink:title="Start MPI and gather information.">
<polygon fill="white" stroke="#666666" points="682,-20.75 558,-20.75 558,0 682,0 682,-20.75"/>
<text xml:space="preserve" text-anchor="middle" x="620" y="-5.35" font-family="Ubuntu Mono" font-size="12.00">mpi_ops::start_mpi</text>
</a>
</g>
</g>
<!-- Node22&#45;&gt;Node25 -->
<g id="edge54_Node000022_Node000025" class="edge">
<title>Node22&#45;&gt;Node25</title>
<g id="a_edge54_Node000022_Node000025"><a xlink:title=" ">
<path fill="none" stroke="#63b8ff" d="M1037.36,-303.75C1023.03,-260.65 985.12,-163.6 920,-110.38 850.6,-53.65 747.65,-28.58 682.46,-17.88"/>
<polygon fill="#63b8ff" stroke="#63b8ff" points="1034,-304.73 1040.38,-313.18 1040.66,-302.59 1034,-304.73"/>
</a>
</g>
</g>
<!-- Node23&#45;&gt;Node18 -->
<g id="edge50_Node000023_Node000018" class="edge">
<title>Node23&#45;&gt;Node18</title>
<g id="a_edge50_Node000023_Node000018"><a xlink:title=" ">
<path fill="none" stroke="#63b8ff" d="M745.75,-467.9C720.69,-473.21 694.18,-478.84 672.08,-483.53"/>
<polygon fill="#63b8ff" stroke="#63b8ff" points="746.23,-471.37 755.28,-465.87 744.77,-464.52 746.23,-471.37"/>
</a>
</g>
</g>
<!-- Node24 -->
<g id="Node000024" class="node">
<title>Node24</title>
<g id="a_Node000024"><a xlink:href="namespaceslepc__ops.html#a4f092f050bd0e5cc83575ea7b7871efb" target="_top" xlink:title="Sets the boundary conditions deep in the plasma (1) and at the edge (2).">
<polygon fill="white" stroke="#666666" points="679,-462.75 561,-462.75 561,-442 679,-442 679,-462.75"/>
<text xml:space="preserve" text-anchor="middle" x="620" y="-447.35" font-family="Ubuntu Mono" font-size="12.00">slepc_ops::set_bc</text>
</a>
</g>
</g>
<!-- Node23&#45;&gt;Node24 -->
<g id="edge48_Node000023_Node000024" class="edge">
<title>Node23&#45;&gt;Node24</title>
<g id="a_edge48_Node000023_Node000024"><a xlink:title=" ">
<path fill="none" stroke="#63b8ff" d="M745.25,-450.62C723.01,-450.93 699.66,-451.26 679.29,-451.55"/>
<polygon fill="#63b8ff" stroke="#63b8ff" points="745.3,-454.12 755.25,-450.48 745.2,-447.12 745.3,-454.12"/>
</a>
</g>
</g>
<!-- Node24&#45;&gt;Node19 -->
<g id="edge49_Node000024_Node000019" class="edge">
<title>Node24&#45;&gt;Node19</title>
<g id="a_edge49_Node000024_Node000019"><a xlink:title=" ">
<path fill="none" stroke="#63b8ff" d="M554.66,-465.49C530.08,-470.5 502.07,-476.22 477.48,-481.23"/>
<polygon fill="#63b8ff" stroke="#63b8ff" points="555.1,-468.98 564.2,-463.55 553.7,-462.12 555.1,-468.98"/>
</a>
</g>
</g>
<!-- Node25&#45;&gt;Node2 -->
<g id="edge55_Node000025_Node000002" class="edge">
<title>Node25&#45;&gt;Node2</title>
<g id="a_edge55_Node000025_Node000002"><a xlink:title=" ">
<path fill="none" stroke="#63b8ff" d="M546.06,-11.32C484.92,-15.13 397.37,-27.91 332,-67.38 175.68,-161.76 72.44,-375.28 49.73,-425.6"/>
<polygon fill="#63b8ff" stroke="#63b8ff" points="546.24,-14.81 556.03,-10.77 545.86,-7.82 546.24,-14.81"/>
</a>
</g>
</g>
<!-- Node25&#45;&gt;Node3 -->
<g id="edge56_Node000025_Node000003" class="edge">
<title>Node25&#45;&gt;Node3</title>
<g id="a_edge56_Node000025_Node000003"><a xlink:title=" ">
<path fill="none" stroke="#63b8ff" d="M560.91,-24.14C549.88,-27.19 538.51,-30.64 528,-34.38 494.34,-46.33 456.92,-64.14 434.18,-75.51"/>
<polygon fill="#63b8ff" stroke="#63b8ff" points="561.57,-27.59 570.32,-21.62 559.76,-20.83 561.57,-27.59"/>
</a>
</g>
</g>
</g>
</svg>
