<?xml version="1.0" encoding="UTF-8" standalone="no"?>
<!DOCTYPE svg PUBLIC "-//W3C//DTD SVG 1.1//EN"
 "http://www.w3.org/Graphics/SVG/1.1/DTD/svg11.dtd">
<!-- Generated by graphviz version 2.43.0 (0)
 -->
<!-- Title: sol_ops::plot_harmonics Pages: 1 -->
<svg width="921pt" height="291pt"
 viewBox="0.00 0.00 921.00 291.00" xmlns="http://www.w3.org/2000/svg" xmlns:xlink="http://www.w3.org/1999/xlink">
<g id="graph0" class="graph" transform="scale(1 1) rotate(0) translate(4 287)">
<title>sol_ops::plot_harmonics</title>
<polygon fill="white" stroke="transparent" points="-4,4 -4,-287 917,-287 917,4 -4,4"/>
<!-- Node1 -->
<g id="node1" class="node">
<title>Node1</title>
<g id="a_node1"><a xlink:title="Plots the harmonics and their maximum in 2&#45;D.">
<polygon fill="#bfbfbf" stroke="black" points="0,-132 0,-153 158,-153 158,-132 0,-132"/>
<text text-anchor="middle" x="79" y="-139.4" font-family="Ubuntu Mono" font-size="12.00">sol_ops::plot_harmonics</text>
</a>
</g>
</g>
<!-- Node2 -->
<g id="node2" class="node">
<title>Node2</title>
<g id="a_node2"><a xlink:href="namespacesol__utilities.html#a8b902a82ae6a238e725da2cf09e7854f" target="_top" xlink:title="Calculate the total version of the solution vector from the local version.">
<polygon fill="white" stroke="black" points="580.5,-248.5 580.5,-282.5 693.5,-282.5 693.5,-248.5 580.5,-248.5"/>
<text text-anchor="start" x="588.5" y="-268.9" font-family="Ubuntu Mono" font-size="12.00">sol_utilities::calc</text>
<text text-anchor="middle" x="637" y="-255.9" font-family="Ubuntu Mono" font-size="12.00">_tot_sol_vec</text>
</a>
</g>
</g>
<!-- Node1&#45;&gt;Node2 -->
<g id="edge1" class="edge">
<title>Node1&#45;&gt;Node2</title>
<path fill="none" stroke="midnightblue" d="M89.04,-153.09C106.8,-173.01 148.48,-215.69 194,-233.5 319.95,-282.78 481.34,-279.47 570.11,-272.56"/>
<polygon fill="midnightblue" stroke="midnightblue" points="570.63,-276.03 580.31,-271.72 570.05,-269.05 570.63,-276.03"/>
</g>
<!-- Node3 -->
<g id="node3" class="node">
<title>Node3</title>
<g id="a_node3"><a xlink:href="namespacestr__utilities.html#a0b97e51770725a3e98ed393d26681414" target="_top" xlink:title="Convert an integer to string.">
<polygon fill="white" stroke="black" points="764.5,-200 764.5,-221 878.5,-221 878.5,-200 764.5,-200"/>
<text text-anchor="middle" x="821.5" y="-207.4" font-family="Ubuntu Mono" font-size="12.00">str_utilities::i2str</text>
</a>
</g>
</g>
<!-- Node1&#45;&gt;Node3 -->
<g id="edge13" class="edge">
<title>Node1&#45;&gt;Node3</title>
<path fill="none" stroke="midnightblue" d="M137.04,-153.02C155.21,-156.24 175.43,-159.67 194,-162.5 364.64,-188.52 407.67,-195.58 580,-205.5 638.78,-208.88 705.75,-210.06 754.07,-210.43"/>
<polygon fill="midnightblue" stroke="midnightblue" points="754.06,-213.93 764.09,-210.5 754.11,-206.93 754.06,-213.93"/>
</g>
<!-- Node4 -->
<g id="node4" class="node">
<title>Node4</title>
<g id="a_node4"><a xlink:href="namespaceoutput__ops.html#a50bfbb88cc91805469353c3ff47b3e2e" target="_top" xlink:title="Use external program to draw a plot.">
<polygon fill="white" stroke="black" points="198.5,-132 198.5,-153 338.5,-153 338.5,-132 198.5,-132"/>
<text text-anchor="middle" x="268.5" y="-139.4" font-family="Ubuntu Mono" font-size="12.00">output_ops::draw_ex</text>
</a>
</g>
</g>
<!-- Node1&#45;&gt;Node4 -->
<g id="edge3" class="edge">
<title>Node1&#45;&gt;Node4</title>
<path fill="none" stroke="midnightblue" d="M158.16,-142.5C168.08,-142.5 178.24,-142.5 188.17,-142.5"/>
<polygon fill="midnightblue" stroke="midnightblue" points="188.43,-146 198.43,-142.5 188.43,-139 188.43,-146"/>
</g>
<!-- Node11 -->
<g id="node11" class="node">
<title>Node11</title>
<g id="a_node11"><a xlink:href="namespacestr__utilities.html#a92ac6c0af1979df094de1caddd28ade0" target="_top" xlink:title="Convert a real (double) to string.">
<polygon fill="white" stroke="black" points="210.5,-92 210.5,-113 326.5,-113 326.5,-92 210.5,-92"/>
<text text-anchor="middle" x="268.5" y="-99.4" font-family="Ubuntu Mono" font-size="12.00">str_utilities::r2str</text>
</a>
</g>
</g>
<!-- Node1&#45;&gt;Node11 -->
<g id="edge14" class="edge">
<title>Node1&#45;&gt;Node11</title>
<path fill="none" stroke="midnightblue" d="M129.26,-131.99C153.5,-126.82 182.89,-120.55 208.34,-115.12"/>
<polygon fill="midnightblue" stroke="midnightblue" points="209.19,-118.52 218.24,-113.01 207.73,-111.67 209.19,-118.52"/>
</g>
<!-- Node12 -->
<g id="node12" class="node">
<title>Node12</title>
<g id="a_node12"><a xlink:href="namespacegrid__utilities.html#a67001ff9bbcad707aacf17f90a748d90" target="_top" xlink:title="Trim a grid, removing any overlap between the different regions.">
<polygon fill="white" stroke="black" points="194,-52 194,-73 343,-73 343,-52 194,-52"/>
<text text-anchor="middle" x="268.5" y="-59.4" font-family="Ubuntu Mono" font-size="12.00">grid_utilities::trim_grid</text>
</a>
</g>
</g>
<!-- Node1&#45;&gt;Node12 -->
<g id="edge15" class="edge">
<title>Node1&#45;&gt;Node12</title>
<path fill="none" stroke="midnightblue" d="M97.21,-131.91C119.05,-118.83 158.21,-96.59 194,-82.5 199.98,-80.15 206.33,-77.97 212.7,-75.98"/>
<polygon fill="midnightblue" stroke="midnightblue" points="214.09,-79.22 222.68,-73.02 212.1,-72.51 214.09,-79.22"/>
</g>
<!-- Node2&#45;&gt;Node3 -->
<g id="edge2" class="edge">
<title>Node2&#45;&gt;Node3</title>
<path fill="none" stroke="midnightblue" d="M693.75,-248.7C720,-240.79 750.91,-231.47 775.63,-224.02"/>
<polygon fill="midnightblue" stroke="midnightblue" points="776.9,-227.3 785.46,-221.06 774.88,-220.59 776.9,-227.3"/>
</g>
<!-- Node4&#45;&gt;Node3 -->
<g id="edge4" class="edge">
<title>Node4&#45;&gt;Node3</title>
<path fill="none" stroke="midnightblue" d="M322.84,-153.04C340.65,-156.35 360.64,-159.83 379,-162.5 511.52,-181.78 667.45,-196.99 754.02,-204.78"/>
<polygon fill="midnightblue" stroke="midnightblue" points="753.96,-208.29 764.23,-205.7 754.58,-201.32 753.96,-208.29"/>
</g>
<!-- Node5 -->
<g id="node5" class="node">
<title>Node5</title>
<g id="a_node5"><a xlink:href="namespacemessages.html#a6e6bfb084063e4cc91ee86e542043302" target="_top" xlink:title="Increases/decreases lvl of output.">
<polygon fill="white" stroke="black" points="402.5,-132 402.5,-153 520.5,-153 520.5,-132 402.5,-132"/>
<text text-anchor="middle" x="461.5" y="-139.4" font-family="Ubuntu Mono" font-size="12.00">messages::lvl_ud</text>
</a>
</g>
</g>
<!-- Node4&#45;&gt;Node5 -->
<g id="edge5" class="edge">
<title>Node4&#45;&gt;Node5</title>
<path fill="none" stroke="midnightblue" d="M338.73,-142.5C356.13,-142.5 374.79,-142.5 392.15,-142.5"/>
<polygon fill="midnightblue" stroke="midnightblue" points="392.2,-146 402.2,-142.5 392.2,-139 392.2,-146"/>
</g>
<!-- Node6 -->
<g id="node6" class="node">
<title>Node6</title>
<g id="a_node6"><a xlink:href="namespacemessages.html#aa4a8d01563e92558e8a0875b075ec54c" target="_top" xlink:title="Write output to file identified by output_i.">
<polygon fill="white" stroke="black" points="580,-132 580,-153 694,-153 694,-132 580,-132"/>
<text text-anchor="middle" x="637" y="-139.4" font-family="Ubuntu Mono" font-size="12.00">messages::writo</text>
</a>
</g>
</g>
<!-- Node4&#45;&gt;Node6 -->
<g id="edge12" class="edge">
<title>Node4&#45;&gt;Node6</title>
<path fill="none" stroke="midnightblue" d="M316.67,-131.96C335.9,-128.17 358.41,-124.37 379,-122.5 452.03,-115.88 471.09,-114.67 544,-122.5 557.86,-123.99 572.69,-126.7 586.31,-129.66"/>
<polygon fill="midnightblue" stroke="midnightblue" points="585.93,-133.17 596.45,-131.96 587.47,-126.34 585.93,-133.17"/>
</g>
<!-- Node9 -->
<g id="node9" class="node">
<title>Node9</title>
<g id="a_node9"><a xlink:href="namespacefiles__utilities.html#ac6066df405564ba2f5e3c4bba726c1f8" target="_top" xlink:title="Search for available new unit.">
<polygon fill="white" stroke="black" points="389,-54 389,-75 534,-75 534,-54 389,-54"/>
<text text-anchor="middle" x="461.5" y="-61.4" font-family="Ubuntu Mono" font-size="12.00">files_utilities::nextunit</text>
</a>
</g>
</g>
<!-- Node4&#45;&gt;Node9 -->
<g id="edge10" class="edge">
<title>Node4&#45;&gt;Node9</title>
<path fill="none" stroke="midnightblue" d="M320.95,-131.89C328.58,-129.36 336.17,-126.27 343,-122.5 362.01,-112.02 360.16,-100.28 379,-89.5 386.65,-85.12 395.16,-81.43 403.7,-78.33"/>
<polygon fill="midnightblue" stroke="midnightblue" points="404.97,-81.6 413.33,-75.09 402.73,-74.97 404.97,-81.6"/>
</g>
<!-- Node10 -->
<g id="node10" class="node">
<title>Node10</title>
<g id="a_node10"><a xlink:href="namespaceoutput__ops.html#aa9e4855511b6ea16a08b3efb587bec51" target="_top" xlink:title="Executes command line, or displays a message if disabled.">
<polygon fill="white" stroke="black" points="379,-0.5 379,-34.5 544,-34.5 544,-0.5 379,-0.5"/>
<text text-anchor="start" x="387" y="-20.9" font-family="Ubuntu Mono" font-size="12.00">output_ops::use_execute</text>
<text text-anchor="middle" x="461.5" y="-7.9" font-family="Ubuntu Mono" font-size="12.00">_command_line</text>
</a>
</g>
</g>
<!-- Node4&#45;&gt;Node10 -->
<g id="edge11" class="edge">
<title>Node4&#45;&gt;Node10</title>
<path fill="none" stroke="midnightblue" d="M327.72,-131.97C333.24,-129.45 338.46,-126.34 343,-122.5 372.15,-97.84 350.53,-69.94 379,-44.5 380.72,-42.97 382.52,-41.52 384.4,-40.16"/>
<polygon fill="midnightblue" stroke="midnightblue" points="386.47,-42.99 393.04,-34.68 382.72,-37.08 386.47,-42.99"/>
</g>
<!-- Node5&#45;&gt;Node6 -->
<g id="edge6" class="edge">
<title>Node5&#45;&gt;Node6</title>
<path fill="none" stroke="midnightblue" d="M520.76,-142.5C536.42,-142.5 553.48,-142.5 569.56,-142.5"/>
<polygon fill="midnightblue" stroke="midnightblue" points="569.96,-146 579.96,-142.5 569.96,-139 569.96,-146"/>
</g>
<!-- Node6&#45;&gt;Node3 -->
<g id="edge9" class="edge">
<title>Node6&#45;&gt;Node3</title>
<path fill="none" stroke="midnightblue" d="M666.52,-153.12C697.72,-164.75 747.9,-183.45 782.44,-196.32"/>
<polygon fill="midnightblue" stroke="midnightblue" points="781.59,-199.74 792.18,-199.95 784.04,-193.18 781.59,-199.74"/>
</g>
<!-- Node7 -->
<g id="node7" class="node">
<title>Node7</title>
<g id="a_node7"><a xlink:href="namespacemessages.html#a61fd0b51b5e37d58fdc993c01792a3fd" target="_top" xlink:title="Returns the time.">
<polygon fill="white" stroke="black" points="751.5,-142 751.5,-163 891.5,-163 891.5,-142 751.5,-142"/>
<text text-anchor="middle" x="821.5" y="-149.4" font-family="Ubuntu Mono" font-size="12.00">messages::get_clock</text>
</a>
</g>
</g>
<!-- Node6&#45;&gt;Node7 -->
<g id="edge7" class="edge">
<title>Node6&#45;&gt;Node7</title>
<path fill="none" stroke="midnightblue" d="M694.25,-145.58C709.02,-146.39 725.24,-147.28 740.99,-148.14"/>
<polygon fill="midnightblue" stroke="midnightblue" points="741.07,-151.65 751.25,-148.71 741.45,-144.66 741.07,-151.65"/>
</g>
<!-- Node8 -->
<g id="node8" class="node">
<title>Node8</title>
<g id="a_node8"><a xlink:href="namespacemessages.html#a82dddaab795b78b3d39e1ff1aab2f665" target="_top" xlink:title="Returns the memory usage in kilobytes.">
<polygon fill="white" stroke="black" points="730,-102 730,-123 913,-123 913,-102 730,-102"/>
<text text-anchor="middle" x="821.5" y="-109.4" font-family="Ubuntu Mono" font-size="12.00">messages::get_mem_usage</text>
</a>
</g>
</g>
<!-- Node6&#45;&gt;Node8 -->
<g id="edge8" class="edge">
<title>Node6&#45;&gt;Node8</title>
<path fill="none" stroke="midnightblue" d="M694.25,-133.25C710.7,-130.55 728.95,-127.55 746.35,-124.69"/>
<polygon fill="midnightblue" stroke="midnightblue" points="747.17,-128.1 756.47,-123.03 746.03,-121.19 747.17,-128.1"/>
</g>
</g>
</svg>
