<?xml version="1.0" encoding="UTF-8" standalone="no"?>
<!DOCTYPE svg PUBLIC "-//W3C//DTD SVG 1.1//EN"
 "http://www.w3.org/Graphics/SVG/1.1/DTD/svg11.dtd">
<!-- Generated by graphviz version 2.38.0 (20140413.2041)
 -->
<!-- Title: grid_utilities::copy_grid Pages: 1 -->
<svg width="646pt" height="163pt"
 viewBox="0.00 0.00 646.00 162.50" xmlns="http://www.w3.org/2000/svg" xmlns:xlink="http://www.w3.org/1999/xlink">
<g id="graph0" class="graph" transform="scale(1 1) rotate(0) translate(4 158.5)">
<title>grid_utilities::copy_grid</title>
<polygon fill="white" stroke="none" points="-4,4 -4,-158.5 642,-158.5 642,4 -4,4"/>
<!-- Node128 -->
<g id="node1" class="node"><title>Node128</title>
<polygon fill="#bfbfbf" stroke="black" points="0,-83 0,-104 167,-104 167,-83 0,-83"/>
<text text-anchor="middle" x="83.5" y="-90.4" font-family="Ubuntu Mono" font-size="12.00">grid_utilities::copy_grid</text>
</g>
<!-- Node129 -->
<g id="node2" class="node"><title>Node129</title>
<g id="a_node2"><a xlink:href="namespacedriver__post.html#af527706d4e696d4e507443d2f74194ef" target="_top" xlink:title="driver_post::init_post">
<polygon fill="white" stroke="black" points="394,-133 394,-154 543,-154 543,-133 394,-133"/>
<text text-anchor="middle" x="468.5" y="-140.4" font-family="Ubuntu Mono" font-size="12.00">driver_post::init_post</text>
</a>
</g>
</g>
<!-- Node128&#45;&gt;Node129 -->
<g id="edge1" class="edge"><title>Node128&#45;&gt;Node129</title>
<path fill="none" stroke="midnightblue" d="M161.466,-105.538C175.284,-107.6 189.561,-109.667 203,-111.5 267.392,-120.284 340.774,-129.065 393.883,-135.2"/>
<polygon fill="midnightblue" stroke="midnightblue" points="161.914,-102.066 151.505,-104.041 160.873,-108.988 161.914,-102.066"/>
</g>
<!-- Node131 -->
<g id="node4" class="node"><title>Node131</title>
<g id="a_node4"><a xlink:href="namespacedriver__post.html#a33b3c6f9018a0ddc92dce77394b8ab37" target="_top" xlink:title="driver_post::run_driver_post">
<polygon fill="white" stroke="black" points="376,-71 376,-92 561,-92 561,-71 376,-71"/>
<text text-anchor="middle" x="468.5" y="-78.4" font-family="Ubuntu Mono" font-size="12.00">driver_post::run_driver_post</text>
</a>
</g>
</g>
<!-- Node128&#45;&gt;Node131 -->
<g id="edge3" class="edge"><title>Node128&#45;&gt;Node131</title>
<path fill="none" stroke="midnightblue" d="M177.25,-96.9305C185.954,-97.162 194.642,-97.359 203,-97.5 263.88,-98.5272 279.23,-101.298 340,-97.5 358.369,-96.3519 378.14,-94.2821 396.502,-92.004"/>
<polygon fill="midnightblue" stroke="midnightblue" points="177.139,-93.4261 167.045,-96.644 176.943,-100.423 177.139,-93.4261"/>
</g>
<!-- Node132 -->
<g id="node5" class="node"><title>Node132</title>
<g id="a_node5"><a xlink:href="namespacedriver__post.html#aba7a645f4dd2e08db109cefc6ce0df86" target="_top" xlink:title="driver_post::setup\l_out_grids">
<polygon fill="white" stroke="black" points="209,-53.5 209,-87.5 334,-87.5 334,-53.5 209,-53.5"/>
<text text-anchor="start" x="217" y="-73.9" font-family="Ubuntu Mono" font-size="12.00">driver_post::setup</text>
<text text-anchor="middle" x="271.5" y="-60.9" font-family="Ubuntu Mono" font-size="12.00">_out_grids</text>
</a>
</g>
</g>
<!-- Node128&#45;&gt;Node132 -->
<g id="edge5" class="edge"><title>Node128&#45;&gt;Node132</title>
<path fill="none" stroke="midnightblue" d="M177.354,-82.0181C188,-80.7016 198.649,-79.3848 208.742,-78.1367"/>
<polygon fill="midnightblue" stroke="midnightblue" points="176.66,-78.5771 167.165,-83.2779 177.519,-85.5242 176.66,-78.5771"/>
</g>
<!-- Node133 -->
<g id="node6" class="node"><title>Node133</title>
<g id="a_node6"><a xlink:href="namespacetest.html#ac574f08ba400cd61070a6a6f13f6f7ee" target="_top" xlink:title="test::test_read_hdf5\l_subset">
<polygon fill="white" stroke="black" points="203,-0.5 203,-34.5 340,-34.5 340,-0.5 203,-0.5"/>
<text text-anchor="start" x="211" y="-20.9" font-family="Ubuntu Mono" font-size="12.00">test::test_read_hdf5</text>
<text text-anchor="middle" x="271.5" y="-7.9" font-family="Ubuntu Mono" font-size="12.00">_subset</text>
</a>
</g>
</g>
<!-- Node128&#45;&gt;Node133 -->
<g id="edge7" class="edge"><title>Node128&#45;&gt;Node133</title>
<path fill="none" stroke="midnightblue" d="M118.162,-78.9625C141.817,-68.8291 174.244,-55.1015 203,-43.5 210.337,-40.5399 218.151,-37.4622 225.762,-34.5039"/>
<polygon fill="midnightblue" stroke="midnightblue" points="116.726,-75.7702 108.917,-82.9313 119.487,-82.2026 116.726,-75.7702"/>
</g>
<!-- Node130 -->
<g id="node3" class="node"><title>Node130</title>
<g id="a_node3"><a xlink:href="POST_8f90.html#ac289b64ac4671fea0b4f2298ba1188a1" target="_top" xlink:title="post">
<polygon fill="white" stroke="black" points="597,-71 597,-92 638,-92 638,-71 597,-71"/>
<text text-anchor="middle" x="617.5" y="-78.4" font-family="Ubuntu Mono" font-size="12.00">post</text>
</a>
</g>
</g>
<!-- Node129&#45;&gt;Node130 -->
<g id="edge2" class="edge"><title>Node129&#45;&gt;Node130</title>
<path fill="none" stroke="midnightblue" d="M503.74,-129.059C532.583,-116.894 572.841,-99.9138 596.637,-89.8777"/>
<polygon fill="midnightblue" stroke="midnightblue" points="502.29,-125.871 494.437,-132.983 505.011,-132.321 502.29,-125.871"/>
</g>
<!-- Node131&#45;&gt;Node130 -->
<g id="edge4" class="edge"><title>Node131&#45;&gt;Node130</title>
<path fill="none" stroke="midnightblue" d="M571.464,-81.5C580.946,-81.5 589.681,-81.5 596.883,-81.5"/>
<polygon fill="midnightblue" stroke="midnightblue" points="571.344,-78.0001 561.344,-81.5 571.344,-85.0001 571.344,-78.0001"/>
</g>
<!-- Node132&#45;&gt;Node131 -->
<g id="edge6" class="edge"><title>Node132&#45;&gt;Node131</title>
<path fill="none" stroke="midnightblue" d="M344.332,-74.5521C354.62,-75.1324 365.319,-75.7359 375.924,-76.3342"/>
<polygon fill="midnightblue" stroke="midnightblue" points="344.381,-71.0493 334.199,-73.9805 343.986,-78.0382 344.381,-71.0493"/>
</g>
<!-- Node134 -->
<g id="node7" class="node"><title>Node134</title>
<g id="a_node7"><a xlink:href="namespacetest.html#aca21ee464c0b1f4b617177afdde110ec" target="_top" xlink:title="test::generic_tests">
<polygon fill="white" stroke="black" points="403,-25 403,-46 534,-46 534,-25 403,-25"/>
<text text-anchor="middle" x="468.5" y="-32.4" font-family="Ubuntu Mono" font-size="12.00">test::generic_tests</text>
</a>
</g>
</g>
<!-- Node133&#45;&gt;Node134 -->
<g id="edge8" class="edge"><title>Node133&#45;&gt;Node134</title>
<path fill="none" stroke="midnightblue" d="M350.308,-24.6822C367.755,-26.2927 386.08,-27.9843 402.92,-29.5388"/>
<polygon fill="midnightblue" stroke="midnightblue" points="350.434,-21.1791 340.154,-23.745 349.79,-28.1495 350.434,-21.1791"/>
</g>
<!-- Node134&#45;&gt;Node130 -->
<g id="edge10" class="edge"><title>Node134&#45;&gt;Node130</title>
<path fill="none" stroke="midnightblue" d="M518.643,-48.7904C532.407,-52.6952 547.338,-57.1032 561,-61.5 572.992,-65.3594 586.272,-70.1271 596.835,-74.0394"/>
<polygon fill="midnightblue" stroke="midnightblue" points="519.436,-45.3777 508.862,-46.0434 517.543,-52.1169 519.436,-45.3777"/>
</g>
<!-- Node135 -->
<g id="node8" class="node"><title>Node135</title>
<g id="a_node8"><a xlink:href="PB3D_8f90.html#afaee01f014ab3398eecac996b2795fd2" target="_top" xlink:title="pb3d">
<polygon fill="white" stroke="black" points="597,-25 597,-46 638,-46 638,-25 597,-25"/>
<text text-anchor="middle" x="617.5" y="-32.4" font-family="Ubuntu Mono" font-size="12.00">pb3d</text>
</a>
</g>
</g>
<!-- Node134&#45;&gt;Node135 -->
<g id="edge9" class="edge"><title>Node134&#45;&gt;Node135</title>
<path fill="none" stroke="midnightblue" d="M544.518,-35.5C563.888,-35.5 583.118,-35.5 596.823,-35.5"/>
<polygon fill="midnightblue" stroke="midnightblue" points="544.404,-32.0001 534.404,-35.5 544.404,-39.0001 544.404,-32.0001"/>
</g>
</g>
</svg>
