<?xml version="1.0" encoding="UTF-8" standalone="no"?>
<!DOCTYPE svg PUBLIC "-//W3C//DTD SVG 1.1//EN"
 "http://www.w3.org/Graphics/SVG/1.1/DTD/svg11.dtd">
<!-- Generated by graphviz version 14.1.2 (20260124.0452)
 -->
<!-- Title: helena_ops::test_metrics_h Pages: 1 -->
<svg width="898pt" height="297pt"
 viewBox="0.00 0.00 898.00 297.00" xmlns="http://www.w3.org/2000/svg" xmlns:xlink="http://www.w3.org/1999/xlink">
<g id="graph0" class="graph" transform="scale(1 1) rotate(0) translate(4 293.26)">
<title>helena_ops::test_metrics_h</title>
<!-- Node1 -->
<g id="Node000001" class="node">
<title>Node1</title>
<g id="a_Node000001"><a xlink:title="Checks whether the metric elements provided by HELENA are consistent with a direct calculation using ...">
<polygon fill="#999999" stroke="#666666" points="172,-133.75 0,-133.75 0,-113 172,-113 172,-133.75"/>
<text xml:space="preserve" text-anchor="middle" x="86" y="-118.35" font-family="Ubuntu Mono" font-size="12.00">helena_ops::test_metrics_h</text>
</a>
</g>
</g>
<!-- Node2 -->
<g id="Node000002" class="node">
<title>Node2</title>
<g id="a_Node000002"><a xlink:href="namespaceinput__utilities.html#a03e09af96ba6f7e187ea4a1d9b743148" target="_top" xlink:title="Queries for user input for an integer value, where allowable range can be provided as well.">
<polygon fill="white" stroke="#666666" points="374,-228.75 214,-228.75 214,-208 374,-208 374,-228.75"/>
<text xml:space="preserve" text-anchor="middle" x="294" y="-213.35" font-family="Ubuntu Mono" font-size="12.00">input_utilities::get_int</text>
</a>
</g>
</g>
<!-- Node1&#45;&gt;Node2 -->
<g id="edge1_Node000001_Node000002" class="edge">
<title>Node1&#45;&gt;Node2</title>
<g id="a_edge1_Node000001_Node000002"><a xlink:title=" ">
<path fill="none" stroke="#63b8ff" d="M110.23,-134.09C146.63,-150.87 217.26,-183.45 259.26,-202.82"/>
<polygon fill="#63b8ff" stroke="#63b8ff" points="257.62,-205.91 268.16,-206.92 260.55,-199.56 257.62,-205.91"/>
</a>
</g>
</g>
<!-- Node5 -->
<g id="Node000005" class="node">
<title>Node5</title>
<g id="a_Node000005"><a xlink:href="namespacemessages.html#aa4a8d01563e92558e8a0875b075ec54c" target="_top" xlink:title="Write output to file identified by output_i.">
<polygon fill="white" stroke="#666666" points="700,-190.75 594,-190.75 594,-170 700,-170 700,-190.75"/>
<text xml:space="preserve" text-anchor="middle" x="647" y="-175.35" font-family="Ubuntu Mono" font-size="12.00">messages::writo</text>
</a>
</g>
</g>
<!-- Node1&#45;&gt;Node5 -->
<g id="edge18_Node000001_Node000005" class="edge">
<title>Node1&#45;&gt;Node5</title>
<g id="a_edge18_Node000001_Node000005"><a xlink:title=" ">
<path fill="none" stroke="#63b8ff" d="M172.47,-126.87C267.14,-131.53 424.09,-141.61 558,-161.38 568.56,-162.93 579.74,-165.01 590.47,-167.22"/>
<polygon fill="#63b8ff" stroke="#63b8ff" points="589.45,-170.58 599.96,-169.24 590.91,-163.74 589.45,-170.58"/>
</a>
</g>
</g>
<!-- Node8 -->
<g id="Node000008" class="node">
<title>Node8</title>
<g id="a_Node000008"><a xlink:href="namespacemessages.html#a6e6bfb084063e4cc91ee86e542043302" target="_top" xlink:title="Increases/decreases lvl of output.">
<polygon fill="white" stroke="#666666" points="543,-114.75 431,-114.75 431,-94 543,-94 543,-114.75"/>
<text xml:space="preserve" text-anchor="middle" x="487" y="-99.35" font-family="Ubuntu Mono" font-size="12.00">messages::lvl_ud</text>
</a>
</g>
</g>
<!-- Node1&#45;&gt;Node8 -->
<g id="edge11_Node000001_Node000008" class="edge">
<title>Node1&#45;&gt;Node8</title>
<g id="a_edge11_Node000001_Node000008"><a xlink:title=" ">
<path fill="none" stroke="#63b8ff" d="M172.11,-119.32C245.99,-115.8 351.49,-110.78 419.37,-107.55"/>
<polygon fill="#63b8ff" stroke="#63b8ff" points="419.42,-111.05 429.25,-107.08 419.09,-104.06 419.42,-111.05"/>
</a>
</g>
</g>
<!-- Node9 -->
<g id="Node000009" class="node">
<title>Node9</title>
<g id="a_Node000009"><a xlink:href="namespaceoutput__ops.html#a0fbe9a10388ec667461c6ac858f7caaa" target="_top" xlink:title="Takes two input vectors and plots these as well as the relative and absolute difference in a HDF5 fil...">
<polygon fill="white" stroke="#666666" points="380,-76.75 208,-76.75 208,-56 380,-56 380,-76.75"/>
<text xml:space="preserve" text-anchor="middle" x="294" y="-61.35" font-family="Ubuntu Mono" font-size="12.00">output_ops::plot_diff_hdf5</text>
</a>
</g>
</g>
<!-- Node1&#45;&gt;Node9 -->
<g id="edge13_Node000001_Node000009" class="edge">
<title>Node1&#45;&gt;Node9</title>
<g id="a_edge13_Node000001_Node000009"><a xlink:title=" ">
<path fill="none" stroke="#63b8ff" d="M126.23,-112.52C159.45,-103.33 207.26,-90.1 243.18,-80.16"/>
<polygon fill="#63b8ff" stroke="#63b8ff" points="243.75,-83.63 252.46,-77.59 241.88,-76.89 243.75,-83.63"/>
</a>
</g>
</g>
<!-- Node3 -->
<g id="Node000003" class="node">
<title>Node3</title>
<g id="a_Node000003"><a xlink:href="namespacestr__utilities.html#a0b97e51770725a3e98ed393d26681414" target="_top" xlink:title="Convert an integer to string.">
<polygon fill="white" stroke="#666666" points="881,-267.75 745,-267.75 745,-247 881,-247 881,-267.75"/>
<text xml:space="preserve" text-anchor="middle" x="813" y="-252.35" font-family="Ubuntu Mono" font-size="12.00">str_utilities::i2str</text>
</a>
</g>
</g>
<!-- Node2&#45;&gt;Node3 -->
<g id="edge2_Node000002_Node000003" class="edge">
<title>Node2&#45;&gt;Node3</title>
<g id="a_edge2_Node000002_Node000003"><a xlink:title=" ">
<path fill="none" stroke="#63b8ff" d="M311.76,-229.22C334.36,-243.12 376.34,-266.5 416,-275.38 531.54,-301.23 670.63,-284.2 749.44,-270.26"/>
<polygon fill="#63b8ff" stroke="#63b8ff" points="749.91,-273.73 759.13,-268.5 748.66,-266.84 749.91,-273.73"/>
</a>
</g>
</g>
<!-- Node4 -->
<g id="Node000004" class="node">
<title>Node4</title>
<g id="a_Node000004"><a xlink:href="namespacemessages.html#a84d5988f3ea5ca8dc2834032f896ae90" target="_top" xlink:title="Start a timer.">
<polygon fill="white" stroke="#666666" points="555,-266.75 419,-266.75 419,-246 555,-246 555,-266.75"/>
<text xml:space="preserve" text-anchor="middle" x="487" y="-251.35" font-family="Ubuntu Mono" font-size="12.00">messages::start_time</text>
</a>
</g>
</g>
<!-- Node2&#45;&gt;Node4 -->
<g id="edge4_Node000002_Node000004" class="edge">
<title>Node2&#45;&gt;Node4</title>
<g id="a_edge4_Node000002_Node000004"><a xlink:title=" ">
<path fill="none" stroke="#63b8ff" d="M349.48,-229.21C371.56,-233.61 397.25,-238.72 420.35,-243.31"/>
<polygon fill="#63b8ff" stroke="#63b8ff" points="419.48,-246.71 429.97,-245.23 420.84,-239.84 419.48,-246.71"/>
</a>
</g>
</g>
<!-- Node2&#45;&gt;Node5 -->
<g id="edge10_Node000002_Node000005" class="edge">
<title>Node2&#45;&gt;Node5</title>
<g id="a_edge10_Node000002_Node000005"><a xlink:title=" ">
<path fill="none" stroke="#63b8ff" d="M374.43,-215.55C426.77,-212.97 496.71,-208.16 558,-199.38 568.68,-197.84 580,-195.76 590.83,-193.53"/>
<polygon fill="#63b8ff" stroke="#63b8ff" points="591.37,-196.99 600.42,-191.48 589.91,-190.14 591.37,-196.99"/>
</a>
</g>
</g>
<!-- Node7 -->
<g id="Node000007" class="node">
<title>Node7</title>
<g id="a_Node000007"><a xlink:href="namespacemessages.html#aed343894ae4a28ad6dfbd1d39aac64ff" target="_top" xlink:title="Stop a timer.">
<polygon fill="white" stroke="#666666" points="552,-190.75 422,-190.75 422,-170 552,-170 552,-190.75"/>
<text xml:space="preserve" text-anchor="middle" x="487" y="-175.35" font-family="Ubuntu Mono" font-size="12.00">messages::stop_time</text>
</a>
</g>
</g>
<!-- Node2&#45;&gt;Node7 -->
<g id="edge8_Node000002_Node000007" class="edge">
<title>Node2&#45;&gt;Node7</title>
<g id="a_edge8_Node000002_Node000007"><a xlink:title=" ">
<path fill="none" stroke="#63b8ff" d="M349.48,-207.54C371.56,-203.14 397.25,-198.03 420.35,-193.44"/>
<polygon fill="#63b8ff" stroke="#63b8ff" points="420.84,-196.91 429.97,-191.52 419.48,-190.04 420.84,-196.91"/>
</a>
</g>
</g>
<!-- Node3&#45;&gt;Node3 -->
<g id="edge3_Node000003_Node000003" class="edge">
<title>Node3&#45;&gt;Node3</title>
<g id="a_edge3_Node000003_Node000003"><a xlink:title=" ">
<path fill="none" stroke="#63b8ff" d="M786.25,-268.15C775.55,-276.81 784.47,-285.75 813,-285.75 828.6,-285.75 838.34,-283.08 842.21,-279.24"/>
<polygon fill="#63b8ff" stroke="#63b8ff" points="845.66,-278.63 840.08,-269.62 838.83,-280.15 845.66,-278.63"/>
</a>
</g>
</g>
<!-- Node4&#45;&gt;Node5 -->
<g id="edge5_Node000004_Node000005" class="edge">
<title>Node4&#45;&gt;Node5</title>
<g id="a_edge5_Node000004_Node000005"><a xlink:title=" ">
<path fill="none" stroke="#63b8ff" d="M524.16,-245.54C535.21,-241.82 547.27,-237.32 558,-232.38 579.96,-222.25 603.47,-208.17 620.66,-197.22"/>
<polygon fill="#63b8ff" stroke="#63b8ff" points="622.23,-200.37 628.73,-192 618.43,-194.5 622.23,-200.37"/>
</a>
</g>
</g>
<!-- Node5&#45;&gt;Node3 -->
<g id="edge7_Node000005_Node000003" class="edge">
<title>Node5&#45;&gt;Node3</title>
<g id="a_edge7_Node000005_Node000003"><a xlink:title=" ">
<path fill="none" stroke="#63b8ff" d="M671.15,-191.24C699.23,-204.43 746.78,-226.75 778.77,-241.77"/>
<polygon fill="#63b8ff" stroke="#63b8ff" points="777.06,-244.84 787.6,-245.92 780.03,-238.5 777.06,-244.84"/>
</a>
</g>
</g>
<!-- Node6 -->
<g id="Node000006" class="node">
<title>Node6</title>
<g id="a_Node000006"><a xlink:href="namespacemessages.html#a82dddaab795b78b3d39e1ff1aab2f665" target="_top" xlink:title="Returns the memory usage in kilobytes.">
<polygon fill="white" stroke="#666666" points="890,-190.75 736,-190.75 736,-170 890,-170 890,-190.75"/>
<text xml:space="preserve" text-anchor="middle" x="813" y="-175.35" font-family="Ubuntu Mono" font-size="12.00">messages::get_mem_usage</text>
</a>
</g>
</g>
<!-- Node5&#45;&gt;Node6 -->
<g id="edge6_Node000005_Node000006" class="edge">
<title>Node5&#45;&gt;Node6</title>
<g id="a_edge6_Node000005_Node000006"><a xlink:title=" ">
<path fill="none" stroke="#63b8ff" d="M700.34,-180.38C707.99,-180.38 716.03,-180.38 724.15,-180.38"/>
<polygon fill="#63b8ff" stroke="#63b8ff" points="724.14,-183.88 734.14,-180.38 724.14,-176.88 724.14,-183.88"/>
</a>
</g>
</g>
<!-- Node7&#45;&gt;Node5 -->
<g id="edge9_Node000007_Node000005" class="edge">
<title>Node7&#45;&gt;Node5</title>
<g id="a_edge9_Node000007_Node000005"><a xlink:title=" ">
<path fill="none" stroke="#63b8ff" d="M552.26,-180.38C562.21,-180.38 572.48,-180.38 582.42,-180.38"/>
<polygon fill="#63b8ff" stroke="#63b8ff" points="582.37,-183.88 592.37,-180.38 582.37,-176.88 582.37,-183.88"/>
</a>
</g>
</g>
<!-- Node8&#45;&gt;Node5 -->
<g id="edge12_Node000008_Node000005" class="edge">
<title>Node8&#45;&gt;Node5</title>
<g id="a_edge12_Node000008_Node000005"><a xlink:title=" ">
<path fill="none" stroke="#63b8ff" d="M524.16,-115.21C535.21,-118.93 547.27,-123.43 558,-128.38 579.96,-138.5 603.47,-152.58 620.66,-163.53"/>
<polygon fill="#63b8ff" stroke="#63b8ff" points="618.43,-166.25 628.73,-168.75 622.23,-160.38 618.43,-166.25"/>
</a>
</g>
</g>
<!-- Node9&#45;&gt;Node5 -->
<g id="edge17_Node000009_Node000005" class="edge">
<title>Node9&#45;&gt;Node5</title>
<g id="a_edge17_Node000009_Node000005"><a xlink:title=" ">
<path fill="none" stroke="#63b8ff" d="M380.49,-57.07C434.02,-54.89 503.02,-58.96 558,-85.38 591.94,-101.68 619.13,-137.31 633.88,-160"/>
<polygon fill="#63b8ff" stroke="#63b8ff" points="630.86,-161.77 639.13,-168.4 636.8,-158.06 630.86,-161.77"/>
</a>
</g>
</g>
<!-- Node9&#45;&gt;Node8 -->
<g id="edge14_Node000009_Node000008" class="edge">
<title>Node9&#45;&gt;Node8</title>
<g id="a_edge14_Node000009_Node000008"><a xlink:title=" ">
<path fill="none" stroke="#63b8ff" d="M349.48,-77.21C371.56,-81.61 397.25,-86.72 420.35,-91.31"/>
<polygon fill="#63b8ff" stroke="#63b8ff" points="419.48,-94.71 429.97,-93.23 420.84,-87.84 419.48,-94.71"/>
</a>
</g>
</g>
<!-- Node10 -->
<g id="Node000010" class="node">
<title>Node10</title>
<g id="a_Node000010"><a xlink:href="namespacestr__utilities.html#ac778d706b2e021672618939ab58fdd32" target="_top" xlink:title="Convert a real (double) to string.">
<polygon fill="white" stroke="#666666" points="558,-20.75 416,-20.75 416,0 558,0 558,-20.75"/>
<text xml:space="preserve" text-anchor="middle" x="487" y="-5.35" font-family="Ubuntu Mono" font-size="12.00">str_utilities::r2strt</text>
</a>
</g>
</g>
<!-- Node9&#45;&gt;Node10 -->
<g id="edge15_Node000009_Node000010" class="edge">
<title>Node9&#45;&gt;Node10</title>
<g id="a_edge15_Node000009_Node000010"><a xlink:title=" ">
<path fill="none" stroke="#63b8ff" d="M331.83,-55.58C362.12,-46.7 405.26,-34.05 438.21,-24.39"/>
<polygon fill="#63b8ff" stroke="#63b8ff" points="438.9,-27.83 447.51,-21.66 436.93,-21.12 438.9,-27.83"/>
</a>
</g>
</g>
<!-- Node10&#45;&gt;Node10 -->
<g id="edge16_Node000010_Node000010" class="edge">
<title>Node10&#45;&gt;Node10</title>
<g id="a_edge16_Node000010_Node000010"><a xlink:title=" ">
<path fill="none" stroke="#63b8ff" d="M461.22,-21.15C450.91,-29.81 459.5,-38.75 487,-38.75 502.04,-38.75 511.42,-36.08 515.15,-32.24"/>
<polygon fill="#63b8ff" stroke="#63b8ff" points="518.61,-31.67 513.1,-22.63 511.77,-33.14 518.61,-31.67"/>
</a>
</g>
</g>
</g>
</svg>
