<?xml version="1.0" encoding="UTF-8" standalone="no"?>
<!DOCTYPE svg PUBLIC "-//W3C//DTD SVG 1.1//EN"
 "http://www.w3.org/Graphics/SVG/1.1/DTD/svg11.dtd">
<!-- Generated by graphviz version 2.38.0 (20140413.2041)
 -->
<!-- Title: mpi_utilities::lock_wl_change Pages: 1 -->
<svg width="497pt" height="97pt"
 viewBox="0.00 0.00 497.00 97.00" xmlns="http://www.w3.org/2000/svg" xmlns:xlink="http://www.w3.org/1999/xlink">
<g id="graph0" class="graph" transform="scale(1 1) rotate(0) translate(4 93)">
<title>mpi_utilities::lock_wl_change</title>
<polygon fill="white" stroke="none" points="-4,4 -4,-93 493,-93 493,4 -4,4"/>
<!-- Node250 -->
<g id="node1" class="node"><title>Node250</title>
<polygon fill="#bfbfbf" stroke="black" points="0,-17 0,-51 131,-51 131,-17 0,-17"/>
<text text-anchor="start" x="8" y="-37.4" font-family="Ubuntu Mono" font-size="12.00">mpi_utilities::lock</text>
<text text-anchor="middle" x="65.5" y="-24.4" font-family="Ubuntu Mono" font-size="12.00">_wl_change</text>
</g>
<!-- Node251 -->
<g id="node2" class="node"><title>Node251</title>
<g id="a_node2"><a xlink:href="namespacempi__utilities.html#a4c5de9472574b63c69212948d8a3f4e1" target="_top" xlink:title="mpi_utilities::lock\l_header">
<polygon fill="white" stroke="black" points="173,-41 173,-75 304,-75 304,-41 173,-41"/>
<text text-anchor="start" x="181" y="-61.4" font-family="Ubuntu Mono" font-size="12.00">mpi_utilities::lock</text>
<text text-anchor="middle" x="238.5" y="-48.4" font-family="Ubuntu Mono" font-size="12.00">_header</text>
</a>
</g>
</g>
<!-- Node250&#45;&gt;Node251 -->
<g id="edge1" class="edge"><title>Node250&#45;&gt;Node251</title>
<path fill="none" stroke="midnightblue" d="M131.148,-43.0734C141.469,-44.5219 152.221,-46.0311 162.753,-47.5092"/>
<polygon fill="midnightblue" stroke="midnightblue" points="162.371,-50.9899 172.761,-48.9138 163.344,-44.0578 162.371,-50.9899"/>
</g>
<!-- Node254 -->
<g id="node5" class="node"><title>Node254</title>
<g id="a_node5"><a xlink:href="namespacestr__utilities.html#ac778d706b2e021672618939ab58fdd32" target="_top" xlink:title="str_utilities::r2strt">
<polygon fill="white" stroke="black" points="167,-0.5 167,-21.5 310,-21.5 310,-0.5 167,-0.5"/>
<text text-anchor="middle" x="238.5" y="-7.9" font-family="Ubuntu Mono" font-size="12.00">str_utilities::r2strt</text>
</a>
</g>
</g>
<!-- Node250&#45;&gt;Node254 -->
<g id="edge4" class="edge"><title>Node250&#45;&gt;Node254</title>
<path fill="none" stroke="midnightblue" d="M131.148,-25.3047C139.509,-24.1801 148.154,-23.0173 156.735,-21.8632"/>
<polygon fill="midnightblue" stroke="midnightblue" points="157.314,-25.3169 166.758,-20.515 156.38,-18.3794 157.314,-25.3169"/>
</g>
<!-- Node252 -->
<g id="node3" class="node"><title>Node252</title>
<g id="a_node3"><a xlink:href="namespacestr__utilities.html#acb8c4e66aead51f178e47fdea8d7a7db" target="_top" xlink:title="str_utilities::ii2str">
<polygon fill="white" stroke="black" points="346,-67.5 346,-88.5 489,-88.5 489,-67.5 346,-67.5"/>
<text text-anchor="middle" x="417.5" y="-74.9" font-family="Ubuntu Mono" font-size="12.00">str_utilities::ii2str</text>
</a>
</g>
</g>
<!-- Node251&#45;&gt;Node252 -->
<g id="edge2" class="edge"><title>Node251&#45;&gt;Node252</title>
<path fill="none" stroke="midnightblue" d="M304.152,-65.3054C314.405,-66.4639 325.119,-67.6745 335.686,-68.8685"/>
<polygon fill="midnightblue" stroke="midnightblue" points="335.423,-72.3609 345.752,-70.0059 336.209,-65.4052 335.423,-72.3609"/>
</g>
<!-- Node253 -->
<g id="node4" class="node"><title>Node253</title>
<g id="a_node4"><a xlink:href="namespacestr__utilities.html#a0b97e51770725a3e98ed393d26681414" target="_top" xlink:title="str_utilities::i2str">
<polygon fill="white" stroke="black" points="349,-27.5 349,-48.5 486,-48.5 486,-27.5 349,-27.5"/>
<text text-anchor="middle" x="417.5" y="-34.9" font-family="Ubuntu Mono" font-size="12.00">str_utilities::i2str</text>
</a>
</g>
</g>
<!-- Node251&#45;&gt;Node253 -->
<g id="edge3" class="edge"><title>Node251&#45;&gt;Node253</title>
<path fill="none" stroke="midnightblue" d="M304.152,-50.6946C315.38,-49.4259 327.162,-48.0947 338.697,-46.7913"/>
<polygon fill="midnightblue" stroke="midnightblue" points="339.207,-50.256 348.751,-45.6553 338.421,-43.3003 339.207,-50.256"/>
</g>
</g>
</svg>
