<?xml version="1.0" encoding="UTF-8" standalone="no"?>
<!DOCTYPE svg PUBLIC "-//W3C//DTD SVG 1.1//EN"
 "http://www.w3.org/Graphics/SVG/1.1/DTD/svg11.dtd">
<!-- Generated by graphviz version 14.1.2 (20260124.0452)
 -->
<!-- Title: input_ops::print_output_in Pages: 1 -->
<svg width="1314pt" height="813pt"
 viewBox="0.00 0.00 1314.00 813.00" xmlns="http://www.w3.org/2000/svg" xmlns:xlink="http://www.w3.org/1999/xlink">
<g id="graph0" class="graph" transform="scale(1 1) rotate(0) translate(4 809.28)">
<title>input_ops::print_output_in</title>
<!-- Node1 -->
<g id="Node000001" class="node">
<title>Node1</title>
<g id="a_Node000001"><a xlink:title="Print input quantities to an output file.">
<polygon fill="#999999" stroke="#666666" points="172,-449.12 0,-449.12 0,-428.38 172,-428.38 172,-449.12"/>
<text xml:space="preserve" text-anchor="middle" x="86" y="-433.73" font-family="Ubuntu Mono" font-size="12.00">input_ops::print_output_in</text>
</a>
</g>
</g>
<!-- Node2 -->
<g id="Node000002" class="node">
<title>Node2</title>
<g id="a_Node000002"><a xlink:href="namespacegrid__ops.html#a7dd21871a4e65190fe6235eb2af4b6c2" target="_top" xlink:title="Calculates normal range for the input grid, the equilibrium grid and/or the solution grid.">
<polygon fill="white" stroke="#666666" points="338,-455.5 208,-455.5 208,-422 338,-422 338,-455.5"/>
<text xml:space="preserve" text-anchor="start" x="216" y="-440.1" font-family="Ubuntu Mono" font-size="12.00">grid_ops::calc_norm</text>
<text xml:space="preserve" text-anchor="middle" x="273" y="-427.35" font-family="Ubuntu Mono" font-size="12.00">_range</text>
</a>
</g>
</g>
<!-- Node1&#45;&gt;Node2 -->
<g id="edge1_Node000001_Node000002" class="edge">
<title>Node1&#45;&gt;Node2</title>
<g id="a_edge1_Node000001_Node000002"><a xlink:title=" ">
<path fill="none" stroke="#63b8ff" d="M172.46,-438.75C180.41,-438.75 188.43,-438.75 196.29,-438.75"/>
<polygon fill="#63b8ff" stroke="#63b8ff" points="196.13,-442.25 206.13,-438.75 196.13,-435.25 196.13,-442.25"/>
</a>
</g>
</g>
<!-- Node7 -->
<g id="Node000007" class="node">
<title>Node7</title>
<g id="a_Node000007"><a xlink:href="namespaceoutput__ops.html#a50bfbb88cc91805469353c3ff47b3e2e" target="_top" xlink:title="Use external program to draw a plot.">
<polygon fill="white" stroke="#666666" points="721,-646.12 591,-646.12 591,-625.38 721,-625.38 721,-646.12"/>
<text xml:space="preserve" text-anchor="middle" x="656" y="-630.73" font-family="Ubuntu Mono" font-size="12.00">output_ops::draw_ex</text>
</a>
</g>
</g>
<!-- Node1&#45;&gt;Node7 -->
<g id="edge26_Node000001_Node000007" class="edge">
<title>Node1&#45;&gt;Node7</title>
<g id="a_edge26_Node000001_Node000007"><a xlink:title=" ">
<path fill="none" stroke="#63b8ff" d="M90.64,-449.43C102.03,-481.02 140.39,-574.2 208,-611.75 330.48,-679.79 502.15,-663.9 592.97,-648.55"/>
<polygon fill="#63b8ff" stroke="#63b8ff" points="593.44,-652.02 602.68,-646.85 592.23,-645.12 593.44,-652.02"/>
</a>
</g>
</g>
<!-- Node8 -->
<g id="Node000008" class="node">
<title>Node8</title>
<g id="a_Node000008"><a xlink:href="namespacestr__utilities.html#a0b97e51770725a3e98ed393d26681414" target="_top" xlink:title="Convert an integer to string.">
<polygon fill="white" stroke="#666666" points="1297,-421.12 1161,-421.12 1161,-400.38 1297,-400.38 1297,-421.12"/>
<text xml:space="preserve" text-anchor="middle" x="1229" y="-405.73" font-family="Ubuntu Mono" font-size="12.00">str_utilities::i2str</text>
</a>
</g>
</g>
<!-- Node1&#45;&gt;Node8 -->
<g id="edge27_Node000001_Node000008" class="edge">
<title>Node1&#45;&gt;Node8</title>
<g id="a_edge27_Node000001_Node000008"><a xlink:title=" ">
<path fill="none" stroke="#63b8ff" d="M105.5,-428.01C158.32,-398.4 315.09,-317.75 456,-317.75 456,-317.75 456,-317.75 856,-317.75 982.8,-317.75 1126.86,-369.24 1192.29,-395.59"/>
<polygon fill="#63b8ff" stroke="#63b8ff" points="1190.86,-398.79 1201.44,-399.33 1193.5,-392.31 1190.86,-398.79"/>
</a>
</g>
</g>
<!-- Node9 -->
<g id="Node000009" class="node">
<title>Node9</title>
<g id="a_Node000009"><a xlink:href="namespacemessages.html#a6e6bfb084063e4cc91ee86e542043302" target="_top" xlink:title="Increases/decreases lvl of output.">
<polygon fill="white" stroke="#666666" points="911,-570.12 799,-570.12 799,-549.38 911,-549.38 911,-570.12"/>
<text xml:space="preserve" text-anchor="middle" x="855" y="-554.73" font-family="Ubuntu Mono" font-size="12.00">messages::lvl_ud</text>
</a>
</g>
</g>
<!-- Node1&#45;&gt;Node9 -->
<g id="edge28_Node000001_Node000009" class="edge">
<title>Node1&#45;&gt;Node9</title>
<g id="a_edge28_Node000001_Node000009"><a xlink:title=" ">
<path fill="none" stroke="#63b8ff" d="M112.2,-449.53C161.51,-470.17 274.63,-515.31 374,-538.75 530.99,-575.78 574.73,-568.17 736,-564.75 752.66,-564.4 770.63,-563.76 787.4,-563.07"/>
<polygon fill="#63b8ff" stroke="#63b8ff" points="787.43,-566.57 797.27,-562.64 787.13,-559.57 787.43,-566.57"/>
</a>
</g>
</g>
<!-- Node10 -->
<g id="Node000010" class="node">
<title>Node10</title>
<g id="a_Node000010"><a xlink:href="namespacemessages.html#aa4a8d01563e92558e8a0875b075ec54c" target="_top" xlink:title="Write output to file identified by output_i.">
<polygon fill="white" stroke="#666666" points="1098,-551.12 992,-551.12 992,-530.38 1098,-530.38 1098,-551.12"/>
<text xml:space="preserve" text-anchor="middle" x="1045" y="-535.73" font-family="Ubuntu Mono" font-size="12.00">messages::writo</text>
</a>
</g>
</g>
<!-- Node1&#45;&gt;Node10 -->
<g id="edge46_Node000001_Node000010" class="edge">
<title>Node1&#45;&gt;Node10</title>
<g id="a_edge46_Node000001_Node000010"><a xlink:title=" ">
<path fill="none" stroke="#63b8ff" d="M90.91,-449.56C103.35,-482.72 144.97,-584.53 208,-646.75 298.08,-735.67 329.43,-786.75 456,-786.75 456,-786.75 456,-786.75 657,-786.75 782.17,-786.75 834.74,-838.5 938,-767.75 1009.16,-718.99 1033.68,-609.55 1041.12,-562.7"/>
<polygon fill="#63b8ff" stroke="#63b8ff" points="1044.55,-563.39 1042.54,-552.99 1037.63,-562.38 1044.55,-563.39"/>
</a>
</g>
</g>
<!-- Node14 -->
<g id="Node000014" class="node">
<title>Node14</title>
<g id="a_Node000014"><a xlink:href="namespacestr__utilities.html#ac778d706b2e021672618939ab58fdd32" target="_top" xlink:title="Convert a real (double) to string.">
<polygon fill="white" stroke="#666666" points="1116,-252.12 974,-252.12 974,-231.38 1116,-231.38 1116,-252.12"/>
<text xml:space="preserve" text-anchor="middle" x="1045" y="-236.72" font-family="Ubuntu Mono" font-size="12.00">str_utilities::r2strt</text>
</a>
</g>
</g>
<!-- Node1&#45;&gt;Node14 -->
<g id="edge45_Node000001_Node000014" class="edge">
<title>Node1&#45;&gt;Node14</title>
<g id="a_edge45_Node000001_Node000014"><a xlink:title=" ">
<path fill="none" stroke="#63b8ff" d="M93.38,-428.03C109.26,-402.3 153.28,-336.74 208,-303.75 305.3,-245.09 342.39,-241.75 456,-241.75 456,-241.75 456,-241.75 657,-241.75 762.5,-241.75 884.18,-241.75 962.5,-241.75"/>
<polygon fill="#63b8ff" stroke="#63b8ff" points="962.22,-245.25 972.22,-241.75 962.22,-238.25 962.22,-245.25"/>
</a>
</g>
</g>
<!-- Node17 -->
<g id="Node000017" class="node">
<title>Node17</title>
<g id="a_Node000017"><a xlink:href="namespacehdf5__ops.html#a2c76f91dc7fb8022ee64b54b4f3b4b52" target="_top" xlink:title="Prints a series of arrays, in the form of an array of pointers, to an HDF5 file.">
<polygon fill="white" stroke="#666666" points="540,-169.12 374,-169.12 374,-148.38 540,-148.38 540,-169.12"/>
<text xml:space="preserve" text-anchor="middle" x="457" y="-153.72" font-family="Ubuntu Mono" font-size="12.00">hdf5_ops::print_hdf5_arrs</text>
</a>
</g>
</g>
<!-- Node1&#45;&gt;Node17 -->
<g id="edge29_Node000001_Node000017" class="edge">
<title>Node1&#45;&gt;Node17</title>
<g id="a_edge29_Node000001_Node000017"><a xlink:title=" ">
<path fill="none" stroke="#63b8ff" d="M89.94,-428.05C100.03,-393.39 136.65,-283.21 208,-227.75 252.12,-193.45 312.31,-176.2 362.34,-167.52"/>
<polygon fill="#63b8ff" stroke="#63b8ff" points="362.71,-171.01 372.01,-165.94 361.58,-164.1 362.71,-171.01"/>
</a>
</g>
</g>
<!-- Node3 -->
<g id="Node000003" class="node">
<title>Node3</title>
<g id="a_Node000003"><a xlink:href="grid__ops_8f90.html#a868669b6df6c0fa6a8cedd993042f6ea" target="_top" xlink:title="PB3D equilibrium version.">
<polygon fill="white" stroke="#666666" points="534,-372.12 380,-372.12 380,-351.38 534,-351.38 534,-372.12"/>
<text xml:space="preserve" text-anchor="middle" x="457" y="-356.73" font-family="Ubuntu Mono" font-size="12.00">calc_norm_range_pb3d_eq</text>
</a>
</g>
</g>
<!-- Node2&#45;&gt;Node3 -->
<g id="edge2_Node000002_Node000003" class="edge">
<title>Node2&#45;&gt;Node3</title>
<g id="a_edge2_Node000002_Node000003"><a xlink:title=" ">
<path fill="none" stroke="#63b8ff" d="M299.32,-421.67C318.96,-409.09 347.26,-392.39 374,-381.75 379.62,-379.52 385.55,-377.48 391.56,-375.64"/>
<polygon fill="#63b8ff" stroke="#63b8ff" points="392.29,-379.07 400.94,-372.96 390.36,-372.35 392.29,-379.07"/>
</a>
</g>
</g>
<!-- Node4 -->
<g id="Node000004" class="node">
<title>Node4</title>
<g id="a_Node000004"><a xlink:href="grid__ops_8f90.html#aebe21d718069318bced62bc3d2d09393" target="_top" xlink:title="PB3D input version.">
<polygon fill="white" stroke="#666666" points="534,-530.12 380,-530.12 380,-509.38 534,-509.38 534,-530.12"/>
<text xml:space="preserve" text-anchor="middle" x="457" y="-514.73" font-family="Ubuntu Mono" font-size="12.00">calc_norm_range_pb3d_in</text>
</a>
</g>
</g>
<!-- Node2&#45;&gt;Node4 -->
<g id="edge3_Node000002_Node000004" class="edge">
<title>Node2&#45;&gt;Node4</title>
<g id="a_edge3_Node000002_Node000004"><a xlink:title=" ">
<path fill="none" stroke="#63b8ff" d="M297.53,-456C317.12,-469.63 346.2,-488.21 374,-499.75 379.28,-501.94 384.85,-503.93 390.51,-505.72"/>
<polygon fill="#63b8ff" stroke="#63b8ff" points="389.4,-509.05 399.98,-508.51 391.37,-502.33 389.4,-509.05"/>
</a>
</g>
</g>
<!-- Node5 -->
<g id="Node000005" class="node">
<title>Node5</title>
<g id="a_Node000005"><a xlink:href="grid__ops_8f90.html#a6b55de41e75e249c934c4ab96cf10ee9" target="_top" xlink:title="PB3D solution version.">
<polygon fill="white" stroke="#666666" points="736,-418.12 576,-418.12 576,-397.38 736,-397.38 736,-418.12"/>
<text xml:space="preserve" text-anchor="middle" x="656" y="-402.73" font-family="Ubuntu Mono" font-size="12.00">calc_norm_range_pb3d_sol</text>
</a>
</g>
</g>
<!-- Node2&#45;&gt;Node5 -->
<g id="edge4_Node000002_Node000005" class="edge">
<title>Node2&#45;&gt;Node5</title>
<g id="a_edge4_Node000002_Node000005"><a xlink:title=" ">
<path fill="none" stroke="#63b8ff" d="M338.28,-434.75C392.18,-431.25 471.17,-425.8 540,-419.75 547.9,-419.06 556.11,-418.29 564.34,-417.49"/>
<polygon fill="#63b8ff" stroke="#63b8ff" points="564.42,-421 574.03,-416.53 563.74,-414.03 564.42,-421"/>
</a>
</g>
</g>
<!-- Node6 -->
<g id="Node000006" class="node">
<title>Node6</title>
<g id="a_Node000006"><a xlink:href="grid__ops_8f90.html#af80fd529f789cbf0338024afe3fe76ec" target="_top" xlink:title="PB3D perturbation version.">
<polygon fill="white" stroke="#666666" points="531,-491.12 383,-491.12 383,-470.38 531,-470.38 531,-491.12"/>
<text xml:space="preserve" text-anchor="middle" x="457" y="-475.73" font-family="Ubuntu Mono" font-size="12.00">calc_norm_range_pb3d_x</text>
</a>
</g>
</g>
<!-- Node2&#45;&gt;Node6 -->
<g id="edge5_Node000002_Node000006" class="edge">
<title>Node2&#45;&gt;Node6</title>
<g id="a_edge5_Node000002_Node000006"><a xlink:title=" ">
<path fill="none" stroke="#63b8ff" d="M338.42,-453.62C357.82,-458.09 378.99,-462.98 397.94,-467.35"/>
<polygon fill="#63b8ff" stroke="#63b8ff" points="397.12,-470.75 407.65,-469.59 398.69,-463.93 397.12,-470.75"/>
</a>
</g>
</g>
<!-- Node15 -->
<g id="Node000015" class="node">
<title>Node15</title>
<g id="a_Node000015"><a xlink:href="grid__ops_8f90.html#a504fe64a9f5061c867bef7bee7538450" target="_top" xlink:title="POST version.">
<polygon fill="white" stroke="#666666" points="525,-411.12 389,-411.12 389,-390.38 525,-390.38 525,-411.12"/>
<text xml:space="preserve" text-anchor="middle" x="457" y="-395.73" font-family="Ubuntu Mono" font-size="12.00">calc_norm_range_post</text>
</a>
</g>
</g>
<!-- Node2&#45;&gt;Node15 -->
<g id="edge24_Node000002_Node000015" class="edge">
<title>Node2&#45;&gt;Node15</title>
<g id="a_edge24_Node000002_Node000015"><a xlink:title=" ">
<path fill="none" stroke="#63b8ff" d="M338.42,-425.3C356.12,-421.6 375.29,-417.6 392.91,-413.92"/>
<polygon fill="#63b8ff" stroke="#63b8ff" points="393.39,-417.4 402.47,-411.93 391.96,-410.54 393.39,-417.4"/>
</a>
</g>
</g>
<!-- Node6&#45;&gt;Node5 -->
<g id="edge6_Node000006_Node000005" class="edge">
<title>Node6&#45;&gt;Node5</title>
<g id="a_edge6_Node000006_Node000005"><a xlink:title=" ">
<path fill="none" stroke="#63b8ff" d="M494.53,-470C508.94,-465.32 525.5,-459.38 540,-452.75 556.85,-445.05 559.02,-439.16 576,-431.75 584.31,-428.12 593.34,-424.82 602.23,-421.91"/>
<polygon fill="#63b8ff" stroke="#63b8ff" points="602.99,-425.34 611.49,-419 600.9,-418.66 602.99,-425.34"/>
</a>
</g>
</g>
<!-- Node6&#45;&gt;Node7 -->
<g id="edge7_Node000006_Node000007" class="edge">
<title>Node6&#45;&gt;Node7</title>
<g id="a_edge7_Node000006_Node000007"><a xlink:title=" ">
<path fill="none" stroke="#63b8ff" d="M524.85,-491.61C530.28,-494.07 535.43,-497.08 540,-500.75 568.22,-523.38 553.2,-545.66 576,-573.75 590.6,-591.74 611.34,-607.77 627.9,-619.01"/>
<polygon fill="#63b8ff" stroke="#63b8ff" points="625.55,-621.66 635.83,-624.23 629.4,-615.81 625.55,-621.66"/>
</a>
</g>
</g>
<!-- Node6&#45;&gt;Node8 -->
<g id="edge19_Node000006_Node000008" class="edge">
<title>Node6&#45;&gt;Node8</title>
<g id="a_edge19_Node000006_Node000008"><a xlink:title=" ">
<path fill="none" stroke="#63b8ff" d="M531.21,-476.07C587.3,-472.35 666.58,-466.77 736,-460.75 882.25,-448.06 1052.61,-430.02 1149.64,-419.43"/>
<polygon fill="#63b8ff" stroke="#63b8ff" points="1149.75,-422.94 1159.31,-418.38 1148.99,-415.98 1149.75,-422.94"/>
</a>
</g>
</g>
<!-- Node6&#45;&gt;Node9 -->
<g id="edge20_Node000006_Node000009" class="edge">
<title>Node6&#45;&gt;Node9</title>
<g id="a_edge20_Node000006_Node000009"><a xlink:title=" ">
<path fill="none" stroke="#63b8ff" d="M518.52,-491.58C525.99,-494.05 533.33,-497.06 540,-500.75 559.53,-511.55 555.7,-526.47 576,-535.75 643.22,-566.48 729.07,-569.1 787.46,-566.21"/>
<polygon fill="#63b8ff" stroke="#63b8ff" points="787.46,-569.71 797.25,-565.65 787.06,-562.73 787.46,-569.71"/>
</a>
</g>
</g>
<!-- Node6&#45;&gt;Node10 -->
<g id="edge23_Node000006_Node000010" class="edge">
<title>Node6&#45;&gt;Node10</title>
<g id="a_edge23_Node000006_Node000010"><a xlink:title=" ">
<path fill="none" stroke="#63b8ff" d="M529.06,-491.59C544.51,-493.78 560.79,-495.96 576,-497.75 720.19,-514.75 890.06,-528.89 980.23,-535.94"/>
<polygon fill="#63b8ff" stroke="#63b8ff" points="979.87,-539.42 990.11,-536.7 980.41,-532.44 979.87,-539.42"/>
</a>
</g>
</g>
<!-- Node6&#45;&gt;Node14 -->
<g id="edge21_Node000006_Node000014" class="edge">
<title>Node6&#45;&gt;Node14</title>
<g id="a_edge21_Node000006_Node000014"><a xlink:title=" ">
<path fill="none" stroke="#63b8ff" d="M531.34,-473.58C588.54,-466.32 669.21,-452.38 736,-426.75 850.96,-382.64 971.76,-296.56 1021.04,-259.46"/>
<polygon fill="#63b8ff" stroke="#63b8ff" points="1023.13,-262.27 1028.98,-253.43 1018.9,-256.69 1023.13,-262.27"/>
</a>
</g>
</g>
<!-- Node7&#45;&gt;Node8 -->
<g id="edge8_Node000007_Node000008" class="edge">
<title>Node7&#45;&gt;Node8</title>
<g id="a_edge8_Node000007_Node000008"><a xlink:title=" ">
<path fill="none" stroke="#63b8ff" d="M721.49,-641.36C816.47,-646.29 995.72,-642.5 1116,-559.75 1141.48,-542.22 1191.34,-467.81 1214.98,-431.23"/>
<polygon fill="#63b8ff" stroke="#63b8ff" points="1217.89,-433.17 1220.35,-422.86 1212,-429.39 1217.89,-433.17"/>
</a>
</g>
</g>
<!-- Node7&#45;&gt;Node9 -->
<g id="edge10_Node000007_Node000009" class="edge">
<title>Node7&#45;&gt;Node9</title>
<g id="a_edge10_Node000007_Node000009"><a xlink:title=" ">
<path fill="none" stroke="#63b8ff" d="M702.83,-624.93C714,-621.45 725.69,-617.09 736,-611.75 754,-602.43 753.95,-592.98 772,-583.75 779.26,-580.03 787.19,-576.81 795.16,-574.03"/>
<polygon fill="#63b8ff" stroke="#63b8ff" points="796.12,-577.4 804.56,-570.99 793.97,-570.74 796.12,-577.4"/>
</a>
</g>
</g>
<!-- Node7&#45;&gt;Node10 -->
<g id="edge18_Node000007_Node000010" class="edge">
<title>Node7&#45;&gt;Node10</title>
<g id="a_edge18_Node000007_Node000010"><a xlink:title=" ">
<path fill="none" stroke="#63b8ff" d="M721.24,-625.44C778.6,-615.59 864.64,-599.22 938,-578.75 961.2,-572.28 986.61,-563.23 1006.74,-555.59"/>
<polygon fill="#63b8ff" stroke="#63b8ff" points="1007.84,-558.92 1015.92,-552.06 1005.33,-552.39 1007.84,-558.92"/>
</a>
</g>
</g>
<!-- Node12 -->
<g id="Node000012" class="node">
<title>Node12</title>
<g id="a_Node000012"><a xlink:href="namespacefiles__utilities.html#ac6066df405564ba2f5e3c4bba726c1f8" target="_top" xlink:title="Search for available new unit.">
<polygon fill="white" stroke="#666666" points="938,-741.12 772,-741.12 772,-720.38 938,-720.38 938,-741.12"/>
<text xml:space="preserve" text-anchor="middle" x="855" y="-725.73" font-family="Ubuntu Mono" font-size="12.00">files_utilities::nextunit</text>
</a>
</g>
</g>
<!-- Node7&#45;&gt;Node12 -->
<g id="edge14_Node000007_Node000012" class="edge">
<title>Node7&#45;&gt;Node12</title>
<g id="a_edge14_Node000007_Node000012"><a xlink:title=" ">
<path fill="none" stroke="#63b8ff" d="M670.29,-646.61C690.86,-662.88 732.19,-693.51 772,-710.75 776.95,-712.89 782.17,-714.83 787.49,-716.58"/>
<polygon fill="#63b8ff" stroke="#63b8ff" points="786.43,-719.92 797.02,-719.48 788.46,-713.22 786.43,-719.92"/>
</a>
</g>
</g>
<!-- Node13 -->
<g id="Node000013" class="node">
<title>Node13</title>
<g id="a_Node000013"><a xlink:href="namespacestr__utilities.html#a92ac6c0af1979df094de1caddd28ade0" target="_top" xlink:title="Convert a real (double) to string.">
<polygon fill="white" stroke="#666666" points="923,-684.12 787,-684.12 787,-663.38 923,-663.38 923,-684.12"/>
<text xml:space="preserve" text-anchor="middle" x="855" y="-668.73" font-family="Ubuntu Mono" font-size="12.00">str_utilities::r2str</text>
</a>
</g>
</g>
<!-- Node7&#45;&gt;Node13 -->
<g id="edge16_Node000007_Node000013" class="edge">
<title>Node7&#45;&gt;Node13</title>
<g id="a_edge16_Node000007_Node000013"><a xlink:title=" ">
<path fill="none" stroke="#63b8ff" d="M713.19,-646.59C736.06,-651 762.7,-656.14 786.61,-660.75"/>
<polygon fill="#63b8ff" stroke="#63b8ff" points="785.77,-664.15 796.25,-662.61 787.09,-657.28 785.77,-664.15"/>
</a>
</g>
</g>
<!-- Node8&#45;&gt;Node8 -->
<g id="edge9_Node000008_Node000008" class="edge">
<title>Node8&#45;&gt;Node8</title>
<g id="a_edge9_Node000008_Node000008"><a xlink:title=" ">
<path fill="none" stroke="#63b8ff" d="M1199.35,-421.52C1187.49,-430.18 1197.38,-439.12 1229,-439.12 1246.29,-439.12 1257.09,-436.45 1261.38,-432.61"/>
<polygon fill="#63b8ff" stroke="#63b8ff" points="1264.8,-431.87 1259.01,-422.99 1258,-433.54 1264.8,-431.87"/>
</a>
</g>
</g>
<!-- Node9&#45;&gt;Node10 -->
<g id="edge11_Node000009_Node000010" class="edge">
<title>Node9&#45;&gt;Node10</title>
<g id="a_edge11_Node000009_Node000010"><a xlink:title=" ">
<path fill="none" stroke="#63b8ff" d="M911.39,-554.15C932.97,-551.97 957.84,-549.46 980.17,-547.2"/>
<polygon fill="#63b8ff" stroke="#63b8ff" points="980.48,-550.69 990.08,-546.2 979.78,-543.72 980.48,-550.69"/>
</a>
</g>
</g>
<!-- Node10&#45;&gt;Node8 -->
<g id="edge13_Node000010_Node000008" class="edge">
<title>Node10&#45;&gt;Node8</title>
<g id="a_edge13_Node000010_Node000008"><a xlink:title=" ">
<path fill="none" stroke="#63b8ff" d="M1064.78,-529.97C1079.08,-521.59 1099.11,-509.44 1116,-497.75 1148.59,-475.18 1184.49,-446.59 1206.64,-428.48"/>
<polygon fill="#63b8ff" stroke="#63b8ff" points="1208.57,-431.42 1214.07,-422.37 1204.13,-426.01 1208.57,-431.42"/>
</a>
</g>
</g>
<!-- Node11 -->
<g id="Node000011" class="node">
<title>Node11</title>
<g id="a_Node000011"><a xlink:href="namespacemessages.html#a82dddaab795b78b3d39e1ff1aab2f665" target="_top" xlink:title="Returns the memory usage in kilobytes.">
<polygon fill="white" stroke="#666666" points="1306,-551.12 1152,-551.12 1152,-530.38 1306,-530.38 1306,-551.12"/>
<text xml:space="preserve" text-anchor="middle" x="1229" y="-535.73" font-family="Ubuntu Mono" font-size="12.00">messages::get_mem_usage</text>
</a>
</g>
</g>
<!-- Node10&#45;&gt;Node11 -->
<g id="edge12_Node000010_Node000011" class="edge">
<title>Node10&#45;&gt;Node11</title>
<g id="a_edge12_Node000010_Node000011"><a xlink:title=" ">
<path fill="none" stroke="#63b8ff" d="M1098.15,-540.75C1111.33,-540.75 1125.85,-540.75 1140.26,-540.75"/>
<polygon fill="#63b8ff" stroke="#63b8ff" points="1140.25,-544.25 1150.25,-540.75 1140.25,-537.25 1140.25,-544.25"/>
</a>
</g>
</g>
<!-- Node12&#45;&gt;Node12 -->
<g id="edge15_Node000012_Node000012" class="edge">
<title>Node12&#45;&gt;Node12</title>
<g id="a_edge15_Node000012_Node000012"><a xlink:title=" ">
<path fill="none" stroke="#63b8ff" d="M824.38,-741.52C812.14,-750.18 822.34,-759.12 855,-759.12 872.86,-759.12 884,-756.45 888.43,-752.61"/>
<polygon fill="#63b8ff" stroke="#63b8ff" points="891.84,-751.82 885.99,-742.99 885.06,-753.54 891.84,-751.82"/>
</a>
</g>
</g>
<!-- Node13&#45;&gt;Node13 -->
<g id="edge17_Node000013_Node000013" class="edge">
<title>Node13&#45;&gt;Node13</title>
<g id="a_edge17_Node000013_Node000013"><a xlink:title=" ">
<path fill="none" stroke="#63b8ff" d="M824.38,-684.52C812.14,-693.18 822.34,-702.12 855,-702.12 872.86,-702.12 884,-699.45 888.43,-695.61"/>
<polygon fill="#63b8ff" stroke="#63b8ff" points="891.84,-694.82 885.99,-685.99 885.06,-696.54 891.84,-694.82"/>
</a>
</g>
</g>
<!-- Node14&#45;&gt;Node14 -->
<g id="edge22_Node000014_Node000014" class="edge">
<title>Node14&#45;&gt;Node14</title>
<g id="a_edge22_Node000014_Node000014"><a xlink:title=" ">
<path fill="none" stroke="#63b8ff" d="M1015.35,-252.52C1003.49,-261.18 1013.38,-270.12 1045,-270.12 1062.29,-270.12 1073.09,-267.45 1077.38,-263.61"/>
<polygon fill="#63b8ff" stroke="#63b8ff" points="1080.8,-262.87 1075.01,-253.99 1074,-264.54 1080.8,-262.87"/>
</a>
</g>
</g>
<!-- Node16 -->
<g id="Node000016" class="node">
<title>Node16</title>
<g id="a_Node000016"><a xlink:href="namespacegrid__utilities.html#a169b137ec246579a2fa94fa4612104d1" target="_top" xlink:title="finds smallest range that comprises a minimum and maximum value.">
<polygon fill="white" stroke="#666666" points="724,-379.5 588,-379.5 588,-346 724,-346 724,-379.5"/>
<text xml:space="preserve" text-anchor="start" x="596" y="-364.1" font-family="Ubuntu Mono" font-size="12.00">grid_utilities::find</text>
<text xml:space="preserve" text-anchor="middle" x="656" y="-351.35" font-family="Ubuntu Mono" font-size="12.00">_compr_range</text>
</a>
</g>
</g>
<!-- Node15&#45;&gt;Node16 -->
<g id="edge25_Node000015_Node000016" class="edge">
<title>Node15&#45;&gt;Node16</title>
<g id="a_edge25_Node000015_Node000016"><a xlink:title=" ">
<path fill="none" stroke="#63b8ff" d="M514.19,-389.91C533.57,-386.17 555.64,-381.92 576.47,-377.9"/>
<polygon fill="#63b8ff" stroke="#63b8ff" points="576.91,-381.38 586.07,-376.05 575.59,-374.5 576.91,-381.38"/>
</a>
</g>
</g>
<!-- Node17&#45;&gt;Node8 -->
<g id="edge30_Node000017_Node000008" class="edge">
<title>Node17&#45;&gt;Node8</title>
<g id="a_edge30_Node000017_Node000008"><a xlink:title=" ">
<path fill="none" stroke="#63b8ff" d="M496.98,-147.93C519.81,-142.16 549.31,-135.66 576,-132.75 817.88,-106.42 919.83,-78.81 1116,-222.75 1174.72,-265.84 1208.3,-349.82 1221.47,-389.29"/>
<polygon fill="#63b8ff" stroke="#63b8ff" points="1218.12,-390.32 1224.51,-398.78 1224.79,-388.19 1218.12,-390.32"/>
</a>
</g>
</g>
<!-- Node17&#45;&gt;Node9 -->
<g id="edge42_Node000017_Node000009" class="edge">
<title>Node17&#45;&gt;Node9</title>
<g id="a_edge42_Node000017_Node000009"><a xlink:title=" ">
<path fill="none" stroke="#63b8ff" d="M477.35,-169.41C533.52,-200.62 695.15,-292.37 736,-336.75 793.9,-399.66 832.11,-496.28 846.99,-538.63"/>
<polygon fill="#63b8ff" stroke="#63b8ff" points="843.6,-539.52 850.15,-547.85 850.22,-537.26 843.6,-539.52"/>
</a>
</g>
</g>
<!-- Node17&#45;&gt;Node10 -->
<g id="edge44_Node000017_Node000010" class="edge">
<title>Node17&#45;&gt;Node10</title>
<g id="a_edge44_Node000017_Node000010"><a xlink:title=" ">
<path fill="none" stroke="#63b8ff" d="M507.67,-169.61C584.9,-186.59 726.01,-218.1 736,-223.75 875.59,-302.7 992.54,-464.02 1030.78,-520.6"/>
<polygon fill="#63b8ff" stroke="#63b8ff" points="1027.69,-522.27 1036.15,-528.64 1033.51,-518.38 1027.69,-522.27"/>
</a>
</g>
</g>
<!-- Node18 -->
<g id="Node000018" class="node">
<title>Node18</title>
<g id="a_Node000018"><a xlink:href="namespacempi__utilities.html#a5a789d05be41d6109c01f46cc98620c8" target="_top" xlink:title="Request access to lock of a BL (blocking) or optionally a NB (non&#45;blocking) type.">
<polygon fill="white" stroke="#666666" points="721,-85.5 591,-85.5 591,-52 721,-52 721,-85.5"/>
<text xml:space="preserve" text-anchor="start" x="599" y="-70.1" font-family="Ubuntu Mono" font-size="12.00">mpi_utilities::lock</text>
<text xml:space="preserve" text-anchor="middle" x="656" y="-57.35" font-family="Ubuntu Mono" font-size="12.00">_req_acc</text>
</a>
</g>
</g>
<!-- Node17&#45;&gt;Node18 -->
<g id="edge31_Node000017_Node000018" class="edge">
<title>Node17&#45;&gt;Node18</title>
<g id="a_edge31_Node000017_Node000018"><a xlink:title=" ">
<path fill="none" stroke="#63b8ff" d="M478.2,-147.96C501.49,-135.67 541.06,-115.3 576,-99.75 583.23,-96.53 590.9,-93.3 598.51,-90.2"/>
<polygon fill="#63b8ff" stroke="#63b8ff" points="599.79,-93.46 607.77,-86.49 597.19,-86.96 599.79,-93.46"/>
</a>
</g>
</g>
<!-- Node22 -->
<g id="Node000022" class="node">
<title>Node22</title>
<g id="a_Node000022"><a xlink:href="namespacempi__utilities.html#a86f9982a0f92b51a916f832d9a3d8ba9" target="_top" xlink:title="Returns access to a lock.">
<polygon fill="white" stroke="#666666" points="721,-33.5 591,-33.5 591,0 721,0 721,-33.5"/>
<text xml:space="preserve" text-anchor="start" x="599" y="-18.1" font-family="Ubuntu Mono" font-size="12.00">mpi_utilities::lock</text>
<text xml:space="preserve" text-anchor="middle" x="656" y="-5.35" font-family="Ubuntu Mono" font-size="12.00">_return_acc</text>
</a>
</g>
</g>
<!-- Node17&#45;&gt;Node22 -->
<g id="edge39_Node000017_Node000022" class="edge">
<title>Node17&#45;&gt;Node22</title>
<g id="a_edge39_Node000017_Node000022"><a xlink:title=" ">
<path fill="none" stroke="#63b8ff" d="M465.95,-148.14C483.4,-125.56 527.43,-72.35 576,-42.75 578.29,-41.36 580.66,-40.03 583.09,-38.76"/>
<polygon fill="#63b8ff" stroke="#63b8ff" points="584.45,-41.99 591.99,-34.55 581.45,-35.66 584.45,-41.99"/>
</a>
</g>
</g>
<!-- Node23 -->
<g id="Node000023" class="node">
<title>Node23</title>
<g id="a_Node000023"><a xlink:href="namespacehdf5__utilities.html#a7574320980affc30a584f7776d33a51c" target="_top" xlink:title="Sets up the chunk property list and/or the 1D hyperslabs that correspond to a local subset of lim_tot...">
<polygon fill="white" stroke="#666666" points="721,-175.5 591,-175.5 591,-142 721,-142 721,-175.5"/>
<text xml:space="preserve" text-anchor="start" x="599" y="-160.1" font-family="Ubuntu Mono" font-size="12.00">hdf5_utilities::set</text>
<text xml:space="preserve" text-anchor="middle" x="656" y="-147.35" font-family="Ubuntu Mono" font-size="12.00">_1d_vars</text>
</a>
</g>
</g>
<!-- Node17&#45;&gt;Node23 -->
<g id="edge43_Node000017_Node000023" class="edge">
<title>Node17&#45;&gt;Node23</title>
<g id="a_edge43_Node000017_Node000023"><a xlink:title=" ">
<path fill="none" stroke="#63b8ff" d="M540.4,-158.75C553.24,-158.75 566.45,-158.75 579.13,-158.75"/>
<polygon fill="#63b8ff" stroke="#63b8ff" points="579.09,-162.25 589.09,-158.75 579.09,-155.25 579.09,-162.25"/>
</a>
</g>
</g>
<!-- Node19 -->
<g id="Node000019" class="node">
<title>Node19</title>
<g id="a_Node000019"><a xlink:href="namespacempi__utilities.html#abe5bf3ae3b6a06eda18c2f4d62ac09c5" target="_top" xlink:title="Returns the header for lock debug messages.">
<polygon fill="white" stroke="#666666" points="1110,-63.5 980,-63.5 980,-30 1110,-30 1110,-63.5"/>
<text xml:space="preserve" text-anchor="start" x="988" y="-48.1" font-family="Ubuntu Mono" font-size="12.00">mpi_utilities::lock</text>
<text xml:space="preserve" text-anchor="middle" x="1045" y="-35.35" font-family="Ubuntu Mono" font-size="12.00">_header</text>
</a>
</g>
</g>
<!-- Node18&#45;&gt;Node19 -->
<g id="edge32_Node000018_Node000019" class="edge">
<title>Node18&#45;&gt;Node19</title>
<g id="a_edge32_Node000018_Node000019"><a xlink:title=" ">
<path fill="none" stroke="#63b8ff" d="M721.34,-51.56C737.74,-47.91 755.42,-44.6 772,-42.75 838.06,-35.38 913.69,-37.32 968.41,-40.56"/>
<polygon fill="#63b8ff" stroke="#63b8ff" points="968.05,-44.05 978.24,-41.18 968.48,-37.06 968.05,-44.05"/>
</a>
</g>
</g>
<!-- Node21 -->
<g id="Node000021" class="node">
<title>Node21</title>
<g id="a_Node000021"><a xlink:href="namespacempi__utilities.html#a3b0349e5ec825e14083e3126c3e7ba65" target="_top" xlink:title="Adds, removes or sets to active a rank from the waiting list for a lock and returns the lock waiting ...">
<polygon fill="white" stroke="#666666" points="920,-85.5 790,-85.5 790,-52 920,-52 920,-85.5"/>
<text xml:space="preserve" text-anchor="start" x="798" y="-70.1" font-family="Ubuntu Mono" font-size="12.00">mpi_utilities::lock</text>
<text xml:space="preserve" text-anchor="middle" x="855" y="-57.35" font-family="Ubuntu Mono" font-size="12.00">_wl_change</text>
</a>
</g>
</g>
<!-- Node18&#45;&gt;Node21 -->
<g id="edge36_Node000018_Node000021" class="edge">
<title>Node18&#45;&gt;Node21</title>
<g id="a_edge36_Node000018_Node000021"><a xlink:title=" ">
<path fill="none" stroke="#63b8ff" d="M721.23,-68.75C739.36,-68.75 759.27,-68.75 778.02,-68.75"/>
<polygon fill="#63b8ff" stroke="#63b8ff" points="778,-72.25 788,-68.75 778,-65.25 778,-72.25"/>
</a>
</g>
</g>
<!-- Node19&#45;&gt;Node8 -->
<g id="edge33_Node000019_Node000008" class="edge">
<title>Node19&#45;&gt;Node8</title>
<g id="a_edge33_Node000019_Node000008"><a xlink:title=" ">
<path fill="none" stroke="#63b8ff" d="M1076.15,-63.95C1089.9,-73.08 1105.43,-85.38 1116,-99.75 1185.26,-193.9 1215.21,-335.09 1224.56,-388.88"/>
<polygon fill="#63b8ff" stroke="#63b8ff" points="1221.07,-389.28 1226.17,-398.57 1227.98,-388.13 1221.07,-389.28"/>
</a>
</g>
</g>
<!-- Node20 -->
<g id="Node000020" class="node">
<title>Node20</title>
<g id="a_Node000020"><a xlink:href="namespacestr__utilities.html#acb8c4e66aead51f178e47fdea8d7a7db" target="_top" xlink:title="Convert an integer to string.">
<polygon fill="white" stroke="#666666" points="1300,-57.12 1158,-57.12 1158,-36.38 1300,-36.38 1300,-57.12"/>
<text xml:space="preserve" text-anchor="middle" x="1229" y="-41.73" font-family="Ubuntu Mono" font-size="12.00">str_utilities::ii2str</text>
</a>
</g>
</g>
<!-- Node19&#45;&gt;Node20 -->
<g id="edge34_Node000019_Node000020" class="edge">
<title>Node19&#45;&gt;Node20</title>
<g id="a_edge34_Node000019_Node000020"><a xlink:title=" ">
<path fill="none" stroke="#63b8ff" d="M1110.42,-46.75C1122.05,-46.75 1134.3,-46.75 1146.34,-46.75"/>
<polygon fill="#63b8ff" stroke="#63b8ff" points="1146.27,-50.25 1156.27,-46.75 1146.27,-43.25 1146.27,-50.25"/>
</a>
</g>
</g>
<!-- Node20&#45;&gt;Node20 -->
<g id="edge35_Node000020_Node000020" class="edge">
<title>Node20&#45;&gt;Node20</title>
<g id="a_edge35_Node000020_Node000020"><a xlink:title=" ">
<path fill="none" stroke="#63b8ff" d="M1199.35,-57.52C1187.49,-66.18 1197.38,-75.12 1229,-75.12 1246.29,-75.12 1257.09,-72.45 1261.38,-68.61"/>
<polygon fill="#63b8ff" stroke="#63b8ff" points="1264.8,-67.87 1259.01,-58.99 1258,-69.54 1264.8,-67.87"/>
</a>
</g>
</g>
<!-- Node21&#45;&gt;Node14 -->
<g id="edge38_Node000021_Node000014" class="edge">
<title>Node21&#45;&gt;Node14</title>
<g id="a_edge38_Node000021_Node000014"><a xlink:title=" ">
<path fill="none" stroke="#63b8ff" d="M874.71,-85.97C910.33,-118.75 987.57,-189.82 1024.09,-223.43"/>
<polygon fill="#63b8ff" stroke="#63b8ff" points="1021.61,-225.9 1031.34,-230.1 1026.35,-220.75 1021.61,-225.9"/>
</a>
</g>
</g>
<!-- Node21&#45;&gt;Node19 -->
<g id="edge37_Node000021_Node000019" class="edge">
<title>Node21&#45;&gt;Node19</title>
<g id="a_edge37_Node000021_Node000019"><a xlink:title=" ">
<path fill="none" stroke="#63b8ff" d="M920.44,-61.21C935.83,-59.41 952.41,-57.47 968.26,-55.61"/>
<polygon fill="#63b8ff" stroke="#63b8ff" points="968.62,-59.1 978.15,-54.46 967.81,-52.14 968.62,-59.1"/>
</a>
</g>
</g>
<!-- Node22&#45;&gt;Node19 -->
<g id="edge40_Node000022_Node000019" class="edge">
<title>Node22&#45;&gt;Node19</title>
<g id="a_edge40_Node000022_Node000019"><a xlink:title=" ">
<path fill="none" stroke="#63b8ff" d="M721.26,-19.51C778.27,-22.23 863.78,-26.96 938,-33.75 947.79,-34.65 958.08,-35.73 968.23,-36.88"/>
<polygon fill="#63b8ff" stroke="#63b8ff" points="967.76,-40.35 978.1,-38.03 968.57,-33.4 967.76,-40.35"/>
</a>
</g>
</g>
<!-- Node22&#45;&gt;Node21 -->
<g id="edge41_Node000022_Node000021" class="edge">
<title>Node22&#45;&gt;Node21</title>
<g id="a_edge41_Node000022_Node000021"><a xlink:title=" ">
<path fill="none" stroke="#63b8ff" d="M721.23,-33.7C739.54,-38.54 759.64,-43.84 778.55,-48.83"/>
<polygon fill="#63b8ff" stroke="#63b8ff" points="777.49,-52.17 788.05,-51.34 779.28,-45.41 777.49,-52.17"/>
</a>
</g>
</g>
</g>
</svg>
