<?xml version="1.0" encoding="UTF-8" standalone="no"?>
<!DOCTYPE svg PUBLIC "-//W3C//DTD SVG 1.1//EN"
 "http://www.w3.org/Graphics/SVG/1.1/DTD/svg11.dtd">
<!-- Generated by graphviz version 2.38.0 (20140413.2041)
 -->
<!-- Title: grid_utilities::apply_disc_3d_complex Pages: 1 -->
<svg width="682pt" height="43pt"
 viewBox="0.00 0.00 682.00 43.00" xmlns="http://www.w3.org/2000/svg" xmlns:xlink="http://www.w3.org/1999/xlink">
<g id="graph0" class="graph" transform="scale(1 1) rotate(0) translate(4 39)">
<title>grid_utilities::apply_disc_3d_complex</title>
<polygon fill="white" stroke="none" points="-4,4 -4,-39 678,-39 678,4 -4,4"/>
<!-- Node18 -->
<g id="node1" class="node"><title>Node18</title>
<polygon fill="#bfbfbf" stroke="black" points="0,-0.5 0,-34.5 143,-34.5 143,-0.5 0,-0.5"/>
<text text-anchor="start" x="8" y="-20.9" font-family="Ubuntu Mono" font-size="12.00">grid_utilities::apply</text>
<text text-anchor="middle" x="71.5" y="-7.9" font-family="Ubuntu Mono" font-size="12.00">_disc_3d_complex</text>
</g>
<!-- Node19 -->
<g id="node2" class="node"><title>Node19</title>
<g id="a_node2"><a xlink:href="namespacegrid__utilities.html#a7fcde4b046076294fc8d2ca130f84add" target="_top" xlink:title="grid_utilities::apply\l_disc_4d_complex">
<polygon fill="white" stroke="black" points="179,-0.5 179,-34.5 322,-34.5 322,-0.5 179,-0.5"/>
<text text-anchor="start" x="187" y="-20.9" font-family="Ubuntu Mono" font-size="12.00">grid_utilities::apply</text>
<text text-anchor="middle" x="250.5" y="-7.9" font-family="Ubuntu Mono" font-size="12.00">_disc_4d_complex</text>
</a>
</g>
</g>
<!-- Node18&#45;&gt;Node19 -->
<g id="edge1" class="edge"><title>Node18&#45;&gt;Node19</title>
<path fill="none" stroke="midnightblue" d="M143.218,-17.5C151.57,-17.5 160.142,-17.5 168.62,-17.5"/>
<polygon fill="midnightblue" stroke="midnightblue" points="168.894,-21.0001 178.894,-17.5 168.894,-14.0001 168.894,-21.0001"/>
</g>
<!-- Node20 -->
<g id="node3" class="node"><title>Node20</title>
<g id="a_node3"><a xlink:href="namespacegrid__utilities.html#a9494e086550e67e6d1319d94d37e15ef" target="_top" xlink:title="grid_utilities::apply\l_disc_4d_real">
<polygon fill="white" stroke="black" points="358,-0.5 358,-34.5 501,-34.5 501,-0.5 358,-0.5"/>
<text text-anchor="start" x="366" y="-20.9" font-family="Ubuntu Mono" font-size="12.00">grid_utilities::apply</text>
<text text-anchor="middle" x="429.5" y="-7.9" font-family="Ubuntu Mono" font-size="12.00">_disc_4d_real</text>
</a>
</g>
</g>
<!-- Node19&#45;&gt;Node20 -->
<g id="edge2" class="edge"><title>Node19&#45;&gt;Node20</title>
<path fill="none" stroke="midnightblue" d="M322.218,-17.5C330.57,-17.5 339.142,-17.5 347.62,-17.5"/>
<polygon fill="midnightblue" stroke="midnightblue" points="347.894,-21.0001 357.894,-17.5 347.894,-14.0001 347.894,-21.0001"/>
</g>
<!-- Node21 -->
<g id="node4" class="node"><title>Node21</title>
<g id="a_node4"><a xlink:href="namespacestr__utilities.html#a0b97e51770725a3e98ed393d26681414" target="_top" xlink:title="str_utilities::i2str">
<polygon fill="white" stroke="black" points="537,-7 537,-28 674,-28 674,-7 537,-7"/>
<text text-anchor="middle" x="605.5" y="-14.4" font-family="Ubuntu Mono" font-size="12.00">str_utilities::i2str</text>
</a>
</g>
</g>
<!-- Node20&#45;&gt;Node21 -->
<g id="edge3" class="edge"><title>Node20&#45;&gt;Node21</title>
<path fill="none" stroke="midnightblue" d="M501.022,-17.5C509.553,-17.5 518.304,-17.5 526.929,-17.5"/>
<polygon fill="midnightblue" stroke="midnightblue" points="526.977,-21.0001 536.977,-17.5 526.977,-14.0001 526.977,-21.0001"/>
</g>
</g>
</svg>
