<?xml version="1.0" encoding="UTF-8" standalone="no"?>
<!DOCTYPE svg PUBLIC "-//W3C//DTD SVG 1.1//EN"
 "http://www.w3.org/Graphics/SVG/1.1/DTD/svg11.dtd">
<!-- Generated by graphviz version 2.38.0 (20140413.2041)
 -->
<!-- Title: grid_ops::setup_grid_x Pages: 1 -->
<svg width="509pt" height="43pt"
 viewBox="0.00 0.00 509.00 43.00" xmlns="http://www.w3.org/2000/svg" xmlns:xlink="http://www.w3.org/1999/xlink">
<g id="graph0" class="graph" transform="scale(1 1) rotate(0) translate(4 39)">
<title>grid_ops::setup_grid_x</title>
<polygon fill="white" stroke="none" points="-4,4 -4,-39 505,-39 505,4 -4,4"/>
<!-- Node133 -->
<g id="node1" class="node"><title>Node133</title>
<polygon fill="#bfbfbf" stroke="black" points="0,-7 0,-28 149,-28 149,-7 0,-7"/>
<text text-anchor="middle" x="74.5" y="-14.4" font-family="Ubuntu Mono" font-size="12.00">grid_ops::setup_grid_x</text>
</g>
<!-- Node134 -->
<g id="node2" class="node"><title>Node134</title>
<g id="a_node2"><a xlink:href="namespacegrid__utilities.html#a43206328f85253a6cc821cd46a498bb6" target="_top" xlink:title="grid_utilities::setup\l_interp_data">
<polygon fill="white" stroke="black" points="185,-0.5 185,-34.5 328,-34.5 328,-0.5 185,-0.5"/>
<text text-anchor="start" x="193" y="-20.9" font-family="Ubuntu Mono" font-size="12.00">grid_utilities::setup</text>
<text text-anchor="middle" x="256.5" y="-7.9" font-family="Ubuntu Mono" font-size="12.00">_interp_data</text>
</a>
</g>
</g>
<!-- Node133&#45;&gt;Node134 -->
<g id="edge1" class="edge"><title>Node133&#45;&gt;Node134</title>
<path fill="none" stroke="midnightblue" d="M149.232,-17.5C157.584,-17.5 166.129,-17.5 174.567,-17.5"/>
<polygon fill="midnightblue" stroke="midnightblue" points="174.786,-21.0001 184.786,-17.5 174.786,-14.0001 174.786,-21.0001"/>
</g>
<!-- Node135 -->
<g id="node3" class="node"><title>Node135</title>
<g id="a_node3"><a xlink:href="namespacestr__utilities.html#a0b97e51770725a3e98ed393d26681414" target="_top" xlink:title="str_utilities::i2str">
<polygon fill="white" stroke="black" points="364,-7 364,-28 501,-28 501,-7 364,-7"/>
<text text-anchor="middle" x="432.5" y="-14.4" font-family="Ubuntu Mono" font-size="12.00">str_utilities::i2str</text>
</a>
</g>
</g>
<!-- Node134&#45;&gt;Node135 -->
<g id="edge2" class="edge"><title>Node134&#45;&gt;Node135</title>
<path fill="none" stroke="midnightblue" d="M328.022,-17.5C336.553,-17.5 345.304,-17.5 353.929,-17.5"/>
<polygon fill="midnightblue" stroke="midnightblue" points="353.977,-21.0001 363.977,-17.5 353.977,-14.0001 353.977,-21.0001"/>
</g>
</g>
</svg>
