<?xml version="1.0" encoding="UTF-8" standalone="no"?>
<!DOCTYPE svg PUBLIC "-//W3C//DTD SVG 1.1//EN"
 "http://www.w3.org/Graphics/SVG/1.1/DTD/svg11.dtd">
<!-- Generated by graphviz version 2.38.0 (20140413.2041)
 -->
<!-- Title: mpi_ops::abort_mpi Pages: 1 -->
<svg width="383pt" height="70pt"
 viewBox="0.00 0.00 383.00 70.00" xmlns="http://www.w3.org/2000/svg" xmlns:xlink="http://www.w3.org/1999/xlink">
<g id="graph0" class="graph" transform="scale(1 1) rotate(0) translate(4 66)">
<title>mpi_ops::abort_mpi</title>
<polygon fill="white" stroke="none" points="-4,4 -4,-66 379,-66 379,4 -4,4"/>
<!-- Node1 -->
<g id="node1" class="node"><title>Node1</title>
<polygon fill="#bfbfbf" stroke="black" points="0,-20.5 0,-41.5 125,-41.5 125,-20.5 0,-20.5"/>
<text text-anchor="middle" x="62.5" y="-27.9" font-family="Ubuntu Mono" font-size="12.00">mpi_ops::abort_mpi</text>
</g>
<!-- Node2 -->
<g id="node2" class="node"><title>Node2</title>
<g id="a_node2"><a xlink:href="namespacempi__ops.html#a40e8610357a9a5b075fef9dab1c3f24f" target="_top" xlink:title="Suddenly stops the computations, aborting MPI, etc. ">
<polygon fill="white" stroke="black" points="161,-20.5 161,-41.5 298,-41.5 298,-20.5 161,-20.5"/>
<text text-anchor="middle" x="229.5" y="-27.9" font-family="Ubuntu Mono" font-size="12.00">mpi_ops::sudden_stop</text>
</a>
</g>
</g>
<!-- Node1&#45;&gt;Node2 -->
<g id="edge1" class="edge"><title>Node1&#45;&gt;Node2</title>
<path fill="none" stroke="midnightblue" d="M135.602,-31C144.038,-31 152.621,-31 160.991,-31"/>
<polygon fill="midnightblue" stroke="midnightblue" points="135.409,-27.5001 125.409,-31 135.409,-34.5001 135.409,-27.5001"/>
</g>
<!-- Node3 -->
<g id="node3" class="node"><title>Node3</title>
<g id="a_node3"><a xlink:href="PB3D_8f90.html#afaee01f014ab3398eecac996b2795fd2" target="_top" xlink:title="Peeling Ballooning in 3D. ">
<polygon fill="white" stroke="black" points="334,-40.5 334,-61.5 375,-61.5 375,-40.5 334,-40.5"/>
<text text-anchor="middle" x="354.5" y="-47.9" font-family="Ubuntu Mono" font-size="12.00">pb3d</text>
</a>
</g>
</g>
<!-- Node2&#45;&gt;Node3 -->
<g id="edge2" class="edge"><title>Node2&#45;&gt;Node3</title>
<path fill="none" stroke="midnightblue" d="M305.419,-43.182C315.904,-44.8869 325.842,-46.5028 333.932,-47.8182"/>
<polygon fill="midnightblue" stroke="midnightblue" points="305.674,-39.6775 295.242,-41.5271 304.55,-46.5868 305.674,-39.6775"/>
</g>
<!-- Node4 -->
<g id="node4" class="node"><title>Node4</title>
<g id="a_node4"><a xlink:href="POST_8f90.html#ac289b64ac4671fea0b4f2298ba1188a1" target="_top" xlink:title="Peeling Ballooning in 3D: postprocessing. ">
<polygon fill="white" stroke="black" points="334,-0.5 334,-21.5 375,-21.5 375,-0.5 334,-0.5"/>
<text text-anchor="middle" x="354.5" y="-7.9" font-family="Ubuntu Mono" font-size="12.00">post</text>
</a>
</g>
</g>
<!-- Node2&#45;&gt;Node4 -->
<g id="edge3" class="edge"><title>Node2&#45;&gt;Node4</title>
<path fill="none" stroke="midnightblue" d="M305.419,-18.818C315.904,-17.1131 325.842,-15.4972 333.932,-14.1818"/>
<polygon fill="midnightblue" stroke="midnightblue" points="304.55,-15.4132 295.242,-20.4729 305.674,-22.3225 304.55,-15.4132"/>
</g>
</g>
</svg>
