<?xml version="1.0" encoding="UTF-8" standalone="no"?>
<!DOCTYPE svg PUBLIC "-//W3C//DTD SVG 1.1//EN"
 "http://www.w3.org/Graphics/SVG/1.1/DTD/svg11.dtd">
<!-- Generated by graphviz version 2.43.0 (0)
 -->
<!-- Title: input_utilities::pause_prog Pages: 1 -->
<svg width="1072pt" height="368pt"
 viewBox="0.00 0.00 1072.00 368.24" xmlns="http://www.w3.org/2000/svg" xmlns:xlink="http://www.w3.org/1999/xlink">
<g id="graph0" class="graph" transform="scale(1 1) rotate(0) translate(4 364.24)">
<title>input_utilities::pause_prog</title>
<polygon fill="white" stroke="transparent" points="-4,4 -4,-364.24 1068,-364.24 1068,4 -4,4"/>
<!-- Node1 -->
<g id="node1" class="node">
<title>Node1</title>
<g id="a_node1"><a xlink:title="Pauses the running of the program.">
<polygon fill="#bfbfbf" stroke="black" points="893,-179.5 893,-200.5 1064,-200.5 1064,-179.5 893,-179.5"/>
<text text-anchor="middle" x="978.5" y="-186.9" font-family="Ubuntu Mono" font-size="12.00">input_utilities::pause_prog</text>
</a>
</g>
</g>
<!-- Node2 -->
<g id="node2" class="node">
<title>Node2</title>
<g id="a_node2"><a xlink:href="interfaceeq__ops_1_1calc__eq.html#ae2f56ab19ce5c33e863f32e1c9263604" target="_top" xlink:title="metric version">
<polygon fill="white" stroke="black" points="484,-329.5 484,-350.5 661,-350.5 661,-329.5 484,-329.5"/>
<text text-anchor="middle" x="572.5" y="-336.9" font-family="Ubuntu Mono" font-size="12.00">eq_ops::calc_eq::calc_eq_2</text>
</a>
</g>
</g>
<!-- Node1&#45;&gt;Node2 -->
<g id="edge1" class="edge">
<title>Node1&#45;&gt;Node2</title>
<path fill="none" stroke="midnightblue" d="M968.1,-209.68C951.17,-242.53 912.13,-307.53 857,-334 781.11,-370.43 680.11,-360.87 621.41,-350.5"/>
<polygon fill="midnightblue" stroke="midnightblue" points="971.3,-211.11 972.63,-200.6 965.03,-207.98 971.3,-211.11"/>
</g>
<!-- Node3 -->
<g id="node3" class="node">
<title>Node3</title>
<g id="a_node3"><a xlink:href="namespacex__ops.html#a4e39701da15ff952add5133db1897b52" target="_top" xlink:title="Calculate , &#160;or , .">
<polygon fill="white" stroke="black" points="729.5,-249.5 729.5,-270.5 824.5,-270.5 824.5,-249.5 729.5,-249.5"/>
<text text-anchor="middle" x="777" y="-256.9" font-family="Ubuntu Mono" font-size="12.00">x_ops::calc_u</text>
</a>
</g>
</g>
<!-- Node1&#45;&gt;Node3 -->
<g id="edge2" class="edge">
<title>Node1&#45;&gt;Node3</title>
<path fill="none" stroke="midnightblue" d="M945.45,-204.8C921.44,-215.51 887.61,-229.84 857,-240 846.53,-243.48 835.1,-246.69 824.28,-249.48"/>
<polygon fill="midnightblue" stroke="midnightblue" points="947.1,-207.89 954.78,-200.6 944.22,-201.51 947.1,-207.89"/>
</g>
<!-- Node5 -->
<g id="node5" class="node">
<title>Node5</title>
<g id="a_node5"><a xlink:href="namespaceeq__ops.html#a9addef683b3d4a8c587510e4c994ec61" target="_top" xlink:title="Creates a VMEC input file.">
<polygon fill="white" stroke="black" points="705.5,-290 705.5,-324 848.5,-324 848.5,-290 705.5,-290"/>
<text text-anchor="start" x="713.5" y="-310.4" font-family="Ubuntu Mono" font-size="12.00">eq_ops::create_vmec</text>
<text text-anchor="middle" x="777" y="-297.4" font-family="Ubuntu Mono" font-size="12.00">_input</text>
</a>
</g>
</g>
<!-- Node1&#45;&gt;Node5 -->
<g id="edge4" class="edge">
<title>Node1&#45;&gt;Node5</title>
<path fill="none" stroke="midnightblue" d="M958.46,-207.22C935.72,-227.04 895.88,-259.49 857,-280 850.08,-283.65 842.56,-286.96 835.01,-289.92"/>
<polygon fill="midnightblue" stroke="midnightblue" points="960.85,-209.78 966.03,-200.54 956.22,-204.53 960.85,-209.78"/>
</g>
<!-- Node6 -->
<g id="node6" class="node">
<title>Node6</title>
<g id="a_node6"><a xlink:href="namespacetest.html#aca21ee464c0b1f4b617177afdde110ec" target="_top" xlink:title="Performs generic tests.">
<polygon fill="white" stroke="black" points="714,-117.5 714,-138.5 840,-138.5 840,-117.5 714,-117.5"/>
<text text-anchor="middle" x="777" y="-124.9" font-family="Ubuntu Mono" font-size="12.00">test::generic_tests</text>
</a>
</g>
</g>
<!-- Node1&#45;&gt;Node6 -->
<g id="edge6" class="edge">
<title>Node1&#45;&gt;Node6</title>
<path fill="none" stroke="midnightblue" d="M933.75,-176.4C897.13,-165.02 845.6,-149.01 812.01,-138.57"/>
<polygon fill="midnightblue" stroke="midnightblue" points="933.07,-179.86 943.66,-179.48 935.15,-173.17 933.07,-179.86"/>
</g>
<!-- Node9 -->
<g id="node9" class="node">
<title>Node9</title>
<g id="a_node9"><a xlink:href="namespaceslepc__utilities.html#aa34aa361f0bfff9621ecba179f9ed0c6" target="_top" xlink:title="Insert a block pertaining to 1 normal point into a matrix.">
<polygon fill="white" stroke="black" points="708.5,-196 708.5,-230 845.5,-230 845.5,-196 708.5,-196"/>
<text text-anchor="start" x="716.5" y="-216.4" font-family="Ubuntu Mono" font-size="12.00">slepc_utilities::insert</text>
<text text-anchor="middle" x="777" y="-203.4" font-family="Ubuntu Mono" font-size="12.00">_block_mat</text>
</a>
</g>
</g>
<!-- Node1&#45;&gt;Node9 -->
<g id="edge9" class="edge">
<title>Node1&#45;&gt;Node9</title>
<path fill="none" stroke="midnightblue" d="M882.83,-200.91C870.23,-202.37 857.52,-203.83 845.5,-205.22"/>
<polygon fill="midnightblue" stroke="midnightblue" points="883.36,-204.38 892.89,-199.75 882.56,-197.42 883.36,-204.38"/>
</g>
<!-- Node14 -->
<g id="node14" class="node">
<title>Node14</title>
<g id="a_node14"><a xlink:href="namespacedriver__eq.html#adc9d5dff288fa512e5ef885627d940cc" target="_top" xlink:title="Main driver of PB3D equilibrium part.">
<polygon fill="white" stroke="black" points="285,-156.5 285,-177.5 448,-177.5 448,-156.5 285,-156.5"/>
<text text-anchor="middle" x="366.5" y="-163.9" font-family="Ubuntu Mono" font-size="12.00">driver_eq::run_driver_eq</text>
</a>
</g>
</g>
<!-- Node1&#45;&gt;Node14 -->
<g id="edge16" class="edge">
<title>Node1&#45;&gt;Node14</title>
<path fill="none" stroke="midnightblue" d="M882.46,-186.42C763.1,-181.92 560.38,-174.27 448.2,-170.04"/>
<polygon fill="midnightblue" stroke="midnightblue" points="882.56,-189.92 892.68,-186.8 882.82,-182.93 882.56,-189.92"/>
</g>
<!-- Node15 -->
<g id="node15" class="node">
<title>Node15</title>
<g id="a_node15"><a xlink:href="namespacedriver__x.html#a454779cefa6da3714d32eedcec0ef7de" target="_top" xlink:title="Part 1 of driver_x: Vectorial jobs.">
<polygon fill="white" stroke="black" points="697,-19.5 697,-40.5 857,-40.5 857,-19.5 697,-19.5"/>
<text text-anchor="middle" x="777" y="-26.9" font-family="Ubuntu Mono" font-size="12.00">driver_x::run_driver_x_1</text>
</a>
</g>
</g>
<!-- Node1&#45;&gt;Node15 -->
<g id="edge18" class="edge">
<title>Node1&#45;&gt;Node15</title>
<path fill="none" stroke="midnightblue" d="M962.73,-171.45C941.49,-145.69 900.1,-98.77 857,-68 841.14,-56.68 821.39,-47.18 805.61,-40.51"/>
<polygon fill="midnightblue" stroke="midnightblue" points="960.11,-173.78 969.13,-179.32 965.54,-169.36 960.11,-173.78"/>
</g>
<!-- Node17 -->
<g id="node17" class="node">
<title>Node17</title>
<g id="a_node17"><a xlink:href="namespacempi__ops.html#a804ec65ff711509de1f8873f97bdf967" target="_top" xlink:title="Start MPI and gather information.">
<polygon fill="white" stroke="black" points="712,-77.5 712,-98.5 842,-98.5 842,-77.5 712,-77.5"/>
<text text-anchor="middle" x="777" y="-84.9" font-family="Ubuntu Mono" font-size="12.00">mpi_ops::start_mpi</text>
</a>
</g>
</g>
<!-- Node1&#45;&gt;Node17 -->
<g id="edge21" class="edge">
<title>Node1&#45;&gt;Node17</title>
<path fill="none" stroke="midnightblue" d="M957.05,-172.75C934.1,-154.22 895.06,-125.12 857,-108 848.74,-104.29 839.68,-101.18 830.72,-98.61"/>
<polygon fill="midnightblue" stroke="midnightblue" points="955.07,-175.66 965.03,-179.29 959.51,-170.24 955.07,-175.66"/>
</g>
<!-- Node4 -->
<g id="node4" class="node">
<title>Node4</title>
<g id="a_node4"><a xlink:href="interfacex__ops_1_1calc__x.html#a837126ca92e7f4d6821261c835b987d4" target="_top" xlink:title="vectorial version">
<polygon fill="white" stroke="black" points="496.5,-275.5 496.5,-296.5 648.5,-296.5 648.5,-275.5 496.5,-275.5"/>
<text text-anchor="middle" x="572.5" y="-282.9" font-family="Ubuntu Mono" font-size="12.00">x_ops::calc_x::calc_x_1</text>
</a>
</g>
</g>
<!-- Node3&#45;&gt;Node4 -->
<g id="edge3" class="edge">
<title>Node3&#45;&gt;Node4</title>
<path fill="none" stroke="midnightblue" d="M719.16,-267.3C697.26,-270.11 671.9,-273.37 648.54,-276.37"/>
<polygon fill="midnightblue" stroke="midnightblue" points="719.82,-270.74 729.29,-266 718.92,-263.8 719.82,-270.74"/>
</g>
<!-- Node5&#45;&gt;Node2 -->
<g id="edge5" class="edge">
<title>Node5&#45;&gt;Node2</title>
<path fill="none" stroke="midnightblue" d="M695.58,-320.11C676.46,-323.22 656.32,-326.5 638.02,-329.48"/>
<polygon fill="midnightblue" stroke="midnightblue" points="696.15,-323.56 705.46,-318.5 695.03,-316.65 696.15,-323.56"/>
</g>
<!-- Node7 -->
<g id="node7" class="node">
<title>Node7</title>
<g id="a_node7"><a xlink:href="PB3D_8f90.html#afaee01f014ab3398eecac996b2795fd2" target="_top" xlink:title="Peeling Ballooning in 3D.">
<polygon fill="white" stroke="black" points="0,-117.5 0,-138.5 47,-138.5 47,-117.5 0,-117.5"/>
<text text-anchor="middle" x="23.5" y="-124.9" font-family="Ubuntu Mono" font-size="12.00">pb3d</text>
</a>
</g>
</g>
<!-- Node6&#45;&gt;Node7 -->
<g id="edge7" class="edge">
<title>Node6&#45;&gt;Node7</title>
<path fill="none" stroke="midnightblue" d="M703.38,-128C539.07,-128 145.44,-128 47.07,-128"/>
<polygon fill="midnightblue" stroke="midnightblue" points="703.86,-131.5 713.86,-128 703.86,-124.5 703.86,-131.5"/>
</g>
<!-- Node8 -->
<g id="node8" class="node">
<title>Node8</title>
<g id="a_node8"><a xlink:href="POST_8f90.html#ac289b64ac4671fea0b4f2298ba1188a1" target="_top" xlink:title="Peeling Ballooning in 3D: postprocessing.">
<polygon fill="white" stroke="black" points="551.5,-78.5 551.5,-99.5 593.5,-99.5 593.5,-78.5 551.5,-78.5"/>
<text text-anchor="middle" x="572.5" y="-85.9" font-family="Ubuntu Mono" font-size="12.00">post</text>
</a>
</g>
</g>
<!-- Node6&#45;&gt;Node8 -->
<g id="edge8" class="edge">
<title>Node6&#45;&gt;Node8</title>
<path fill="none" stroke="midnightblue" d="M711.61,-115.6C670.91,-107.76 621.02,-98.15 593.73,-92.9"/>
<polygon fill="midnightblue" stroke="midnightblue" points="710.99,-119.04 721.47,-117.5 712.31,-112.17 710.99,-119.04"/>
</g>
<!-- Node10 -->
<g id="node10" class="node">
<title>Node10</title>
<g id="a_node10"><a xlink:href="namespaceslepc__ops.html#a05f8a23335ed47ad1996cddf3bcfdc2e" target="_top" xlink:title="Sets the boundary conditions deep in the plasma (1) and at the edge (2).">
<polygon fill="white" stroke="black" points="512.5,-235.5 512.5,-256.5 632.5,-256.5 632.5,-235.5 512.5,-235.5"/>
<text text-anchor="middle" x="572.5" y="-242.9" font-family="Ubuntu Mono" font-size="12.00">slepc_ops::set_bc</text>
</a>
</g>
</g>
<!-- Node9&#45;&gt;Node10 -->
<g id="edge10" class="edge">
<title>Node9&#45;&gt;Node10</title>
<path fill="none" stroke="midnightblue" d="M698.39,-225.65C676.58,-229.2 653.21,-233.01 632.66,-236.36"/>
<polygon fill="midnightblue" stroke="midnightblue" points="698.98,-229.1 708.29,-224.03 697.86,-222.19 698.98,-229.1"/>
</g>
<!-- Node13 -->
<g id="node13" class="node">
<title>Node13</title>
<g id="a_node13"><a xlink:href="namespaceslepc__ops.html#aac8202cb74cbb06013eb73f1fa0c3118" target="_top" xlink:title="Sets up the matrices &#160;and &#160;in the EV problem .">
<polygon fill="white" stroke="black" points="497,-195.5 497,-216.5 648,-216.5 648,-195.5 497,-195.5"/>
<text text-anchor="middle" x="572.5" y="-202.9" font-family="Ubuntu Mono" font-size="12.00">slepc_ops::setup_mats</text>
</a>
</g>
</g>
<!-- Node9&#45;&gt;Node13 -->
<g id="edge14" class="edge">
<title>Node9&#45;&gt;Node13</title>
<path fill="none" stroke="midnightblue" d="M698.18,-210.31C681.74,-209.74 664.43,-209.14 648.12,-208.58"/>
<polygon fill="midnightblue" stroke="midnightblue" points="698.17,-213.81 708.29,-210.66 698.42,-206.82 698.17,-213.81"/>
</g>
<!-- Node11 -->
<g id="node11" class="node">
<title>Node11</title>
<g id="a_node11"><a xlink:href="namespaceslepc__ops.html#a79c420987056c225931b51c8d30ece1f" target="_top" xlink:title="Solve the eigenvalue system using SLEPC.">
<polygon fill="white" stroke="black" points="300,-197 300,-231 433,-231 433,-197 300,-197"/>
<text text-anchor="start" x="308" y="-217.4" font-family="Ubuntu Mono" font-size="12.00">slepc_ops::solve_ev</text>
<text text-anchor="middle" x="366.5" y="-204.4" font-family="Ubuntu Mono" font-size="12.00">_system_slepc</text>
</a>
</g>
</g>
<!-- Node10&#45;&gt;Node11 -->
<g id="edge11" class="edge">
<title>Node10&#45;&gt;Node11</title>
<path fill="none" stroke="midnightblue" d="M502.4,-235.16C480.03,-231.65 455.29,-227.77 433.17,-224.3"/>
<polygon fill="midnightblue" stroke="midnightblue" points="502.07,-238.65 512.49,-236.74 503.16,-231.74 502.07,-238.65"/>
</g>
<!-- Node12 -->
<g id="node12" class="node">
<title>Node12</title>
<g id="a_node12"><a xlink:href="namespacedriver__sol.html#ad3b1765b3ecc5f82129bfc683ffc6c5c" target="_top" xlink:title="Main driver of PB3D solution part.">
<polygon fill="white" stroke="black" points="83,-199.5 83,-220.5 249,-220.5 249,-199.5 83,-199.5"/>
<text text-anchor="middle" x="166" y="-206.9" font-family="Ubuntu Mono" font-size="12.00">driver_sol::run_driver_sol</text>
</a>
</g>
</g>
<!-- Node11&#45;&gt;Node12 -->
<g id="edge12" class="edge">
<title>Node11&#45;&gt;Node12</title>
<path fill="none" stroke="midnightblue" d="M289.89,-212.48C276.56,-212.21 262.62,-211.93 249.12,-211.65"/>
<polygon fill="midnightblue" stroke="midnightblue" points="289.89,-215.98 299.95,-212.68 290.03,-208.98 289.89,-215.98"/>
</g>
<!-- Node12&#45;&gt;Node7 -->
<g id="edge13" class="edge">
<title>Node12&#45;&gt;Node7</title>
<path fill="none" stroke="midnightblue" d="M115.59,-196.09C104.48,-192 93.03,-186.98 83,-181 63.46,-169.34 44.67,-150.52 33.86,-138.72"/>
<polygon fill="midnightblue" stroke="midnightblue" points="114.61,-199.45 125.21,-199.44 116.92,-192.84 114.61,-199.45"/>
</g>
<!-- Node13&#45;&gt;Node11 -->
<g id="edge15" class="edge">
<title>Node13&#45;&gt;Node11</title>
<path fill="none" stroke="midnightblue" d="M486.81,-209.32C468.86,-210.03 450.17,-210.76 433.05,-211.43"/>
<polygon fill="midnightblue" stroke="midnightblue" points="487.13,-212.81 496.99,-208.92 486.86,-205.82 487.13,-212.81"/>
</g>
<!-- Node14&#45;&gt;Node7 -->
<g id="edge17" class="edge">
<title>Node14&#45;&gt;Node7</title>
<path fill="none" stroke="midnightblue" d="M274.56,-162.35C218.98,-158.67 146.59,-152.37 83,-142 71.04,-140.05 57.91,-136.99 47.12,-134.23"/>
<polygon fill="midnightblue" stroke="midnightblue" points="274.54,-165.85 284.74,-163.01 274.99,-158.87 274.54,-165.85"/>
</g>
<!-- Node16 -->
<g id="node16" class="node">
<title>Node16</title>
<g id="a_node16"><a xlink:href="namespacedriver__x.html#ada3d72a0929daaa5e3da585246d62281" target="_top" xlink:title="Main driver of PB3D perturbation part.">
<polygon fill="white" stroke="black" points="93,-0.5 93,-21.5 239,-21.5 239,-0.5 93,-0.5"/>
<text text-anchor="middle" x="166" y="-7.9" font-family="Ubuntu Mono" font-size="12.00">driver_x::run_driver_x</text>
</a>
</g>
</g>
<!-- Node15&#45;&gt;Node16 -->
<g id="edge19" class="edge">
<title>Node15&#45;&gt;Node16</title>
<path fill="none" stroke="midnightblue" d="M686.69,-27.21C565.37,-23.43 350.82,-16.73 239.13,-13.25"/>
<polygon fill="midnightblue" stroke="midnightblue" points="686.59,-30.71 696.7,-27.53 686.81,-23.72 686.59,-30.71"/>
</g>
<!-- Node16&#45;&gt;Node7 -->
<g id="edge20" class="edge">
<title>Node16&#45;&gt;Node7</title>
<path fill="none" stroke="midnightblue" d="M101.14,-25.43C94.68,-28.34 88.49,-31.82 83,-36 54.22,-57.88 35.82,-98.33 28.33,-117.45"/>
<polygon fill="midnightblue" stroke="midnightblue" points="102.77,-28.55 110.74,-21.58 100.16,-22.06 102.77,-28.55"/>
</g>
<!-- Node17&#45;&gt;Node7 -->
<g id="edge22" class="edge">
<title>Node17&#45;&gt;Node7</title>
<path fill="none" stroke="midnightblue" d="M713.24,-75.72C696.35,-72.94 678.04,-70.4 661,-69 420.43,-49.26 129.19,-105.65 47.03,-123.06"/>
<polygon fill="midnightblue" stroke="midnightblue" points="713.11,-79.25 723.55,-77.48 714.28,-72.35 713.11,-79.25"/>
</g>
<!-- Node17&#45;&gt;Node8 -->
<g id="edge23" class="edge">
<title>Node17&#45;&gt;Node8</title>
<path fill="none" stroke="midnightblue" d="M701.72,-88.37C663.07,-88.56 618.76,-88.78 593.66,-88.9"/>
<polygon fill="midnightblue" stroke="midnightblue" points="701.95,-91.87 711.93,-88.32 701.91,-84.87 701.95,-91.87"/>
</g>
</g>
</svg>
