<?xml version="1.0" encoding="UTF-8" standalone="no"?>
<!DOCTYPE svg PUBLIC "-//W3C//DTD SVG 1.1//EN"
 "http://www.w3.org/Graphics/SVG/1.1/DTD/svg11.dtd">
<!-- Generated by graphviz version 14.1.2 (20260124.0452)
 -->
<!-- Title: grid_ops::calc_ang_grid_eq_b Pages: 1 -->
<svg width="850pt" height="284pt"
 viewBox="0.00 0.00 850.00 284.00" xmlns="http://www.w3.org/2000/svg" xmlns:xlink="http://www.w3.org/1999/xlink">
<g id="graph0" class="graph" transform="scale(1 1) rotate(0) translate(4 279.5)">
<title>grid_ops::calc_ang_grid_eq_b</title>
<!-- Node1 -->
<g id="Node000001" class="node">
<title>Node1</title>
<g id="a_Node000001"><a xlink:title="Calculate equilibrium grid that follows magnetic field lines.">
<polygon fill="#999999" stroke="#666666" points="124,-154.5 0,-154.5 0,-121 124,-121 124,-154.5"/>
<text xml:space="preserve" text-anchor="start" x="8" y="-139.1" font-family="Ubuntu Mono" font-size="12.00">grid_ops::calc_ang</text>
<text xml:space="preserve" text-anchor="middle" x="62" y="-126.35" font-family="Ubuntu Mono" font-size="12.00">_grid_eq_b</text>
</a>
</g>
</g>
<!-- Node2 -->
<g id="Node000002" class="node">
<title>Node2</title>
<g id="a_Node000002"><a xlink:href="namespacegrid__utilities.html#a8b3114d164cbf016c0c6bb1232e6314e" target="_top" xlink:title="Calculates the local number of parallel grid points for this Richardson level, taking into account th...">
<polygon fill="white" stroke="#666666" points="314,-275.5 178,-275.5 178,-242 314,-242 314,-275.5"/>
<text xml:space="preserve" text-anchor="start" x="186" y="-260.1" font-family="Ubuntu Mono" font-size="12.00">grid_utilities::calc</text>
<text xml:space="preserve" text-anchor="middle" x="246" y="-247.35" font-family="Ubuntu Mono" font-size="12.00">_n_par_x_rich</text>
</a>
</g>
</g>
<!-- Node1&#45;&gt;Node2 -->
<g id="edge1_Node000001_Node000002" class="edge">
<title>Node1&#45;&gt;Node2</title>
<g id="a_edge1_Node000001_Node000002"><a xlink:title=" ">
<path fill="none" stroke="#63b8ff" d="M77.52,-154.85C95.21,-174.76 126.88,-207.5 160,-227.75 165.58,-231.16 171.59,-234.28 177.75,-237.12"/>
<polygon fill="#63b8ff" stroke="#63b8ff" points="176.24,-240.28 186.81,-241.03 179.02,-233.85 176.24,-240.28"/>
</a>
</g>
</g>
<!-- Node3 -->
<g id="Node000003" class="node">
<title>Node3</title>
<g id="a_Node000003"><a xlink:href="namespacestr__utilities.html#a0b97e51770725a3e98ed393d26681414" target="_top" xlink:title="Convert an integer to string.">
<polygon fill="white" stroke="#666666" points="833,-215.12 697,-215.12 697,-194.38 833,-194.38 833,-215.12"/>
<text xml:space="preserve" text-anchor="middle" x="765" y="-199.72" font-family="Ubuntu Mono" font-size="12.00">str_utilities::i2str</text>
</a>
</g>
</g>
<!-- Node1&#45;&gt;Node3 -->
<g id="edge2_Node000001_Node000003" class="edge">
<title>Node1&#45;&gt;Node3</title>
<g id="a_edge2_Node000001_Node000003"><a xlink:title=" ">
<path fill="none" stroke="#63b8ff" d="M106.78,-154.88C123.22,-160.6 142.23,-166.36 160,-169.75 345.98,-205.18 569.5,-208.07 685.49,-206.68"/>
<polygon fill="#63b8ff" stroke="#63b8ff" points="685.25,-210.18 695.2,-206.55 685.16,-203.18 685.25,-210.18"/>
</a>
</g>
</g>
<!-- Node4 -->
<g id="Node000004" class="node">
<title>Node4</title>
<g id="a_Node000004"><a xlink:href="namespacemessages.html#a6e6bfb084063e4cc91ee86e542043302" target="_top" xlink:title="Increases/decreases lvl of output.">
<polygon fill="white" stroke="#666666" points="495,-148.12 383,-148.12 383,-127.38 495,-127.38 495,-148.12"/>
<text xml:space="preserve" text-anchor="middle" x="439" y="-132.72" font-family="Ubuntu Mono" font-size="12.00">messages::lvl_ud</text>
</a>
</g>
</g>
<!-- Node1&#45;&gt;Node4 -->
<g id="edge4_Node000001_Node000004" class="edge">
<title>Node1&#45;&gt;Node4</title>
<g id="a_edge4_Node000001_Node000004"><a xlink:title=" ">
<path fill="none" stroke="#63b8ff" d="M124.08,-137.75C192.01,-137.75 301.36,-137.75 371.43,-137.75"/>
<polygon fill="#63b8ff" stroke="#63b8ff" points="371.24,-141.25 381.24,-137.75 371.23,-134.25 371.24,-141.25"/>
</a>
</g>
</g>
<!-- Node5 -->
<g id="Node000005" class="node">
<title>Node5</title>
<g id="a_Node000005"><a xlink:href="namespacemessages.html#aa4a8d01563e92558e8a0875b075ec54c" target="_top" xlink:title="Write output to file identified by output_i.">
<polygon fill="white" stroke="#666666" points="652,-166.12 546,-166.12 546,-145.38 652,-145.38 652,-166.12"/>
<text xml:space="preserve" text-anchor="middle" x="599" y="-150.72" font-family="Ubuntu Mono" font-size="12.00">messages::writo</text>
</a>
</g>
</g>
<!-- Node1&#45;&gt;Node5 -->
<g id="edge15_Node000001_Node000005" class="edge">
<title>Node1&#45;&gt;Node5</title>
<g id="a_edge15_Node000001_Node000005"><a xlink:title=" ">
<path fill="none" stroke="#63b8ff" d="M124.45,-147.75C136.22,-149.34 148.47,-150.78 160,-151.75 292.76,-162.89 448.95,-160.65 534.32,-158.13"/>
<polygon fill="#63b8ff" stroke="#63b8ff" points="534.23,-161.64 544.12,-157.83 534.02,-154.64 534.23,-161.64"/>
</a>
</g>
</g>
<!-- Node7 -->
<g id="Node000007" class="node">
<title>Node7</title>
<g id="a_Node000007"><a xlink:href="namespaceoutput__ops.html#a0fbe9a10388ec667461c6ac858f7caaa" target="_top" xlink:title="Takes two input vectors and plots these as well as the relative and absolute difference in a HDF5 fil...">
<polygon fill="white" stroke="#666666" points="332,-110.12 160,-110.12 160,-89.38 332,-89.38 332,-110.12"/>
<text xml:space="preserve" text-anchor="middle" x="246" y="-94.72" font-family="Ubuntu Mono" font-size="12.00">output_ops::plot_diff_hdf5</text>
</a>
</g>
</g>
<!-- Node1&#45;&gt;Node7 -->
<g id="edge8_Node000001_Node000007" class="edge">
<title>Node1&#45;&gt;Node7</title>
<g id="a_edge8_Node000001_Node000007"><a xlink:title=" ">
<path fill="none" stroke="#63b8ff" d="M124.36,-124.94C142.91,-121.07 163.3,-116.81 181.95,-112.91"/>
<polygon fill="#63b8ff" stroke="#63b8ff" points="182.45,-116.38 191.53,-110.91 181.02,-109.53 182.45,-116.38"/>
</a>
</g>
</g>
<!-- Node8 -->
<g id="Node000008" class="node">
<title>Node8</title>
<g id="a_Node000008"><a xlink:href="namespacestr__utilities.html#ac778d706b2e021672618939ab58fdd32" target="_top" xlink:title="Convert a real (double) to string.">
<polygon fill="white" stroke="#666666" points="510,-54.12 368,-54.12 368,-33.38 510,-33.38 510,-54.12"/>
<text xml:space="preserve" text-anchor="middle" x="439" y="-38.73" font-family="Ubuntu Mono" font-size="12.00">str_utilities::r2strt</text>
</a>
</g>
</g>
<!-- Node1&#45;&gt;Node8 -->
<g id="edge14_Node000001_Node000008" class="edge">
<title>Node1&#45;&gt;Node8</title>
<g id="a_edge14_Node000001_Node000008"><a xlink:title=" ">
<path fill="none" stroke="#63b8ff" d="M86.02,-120.64C104.9,-107.51 132.85,-90.1 160,-80.75 223.74,-58.79 299.85,-49.76 356.31,-46.1"/>
<polygon fill="#63b8ff" stroke="#63b8ff" points="356.41,-49.6 366.18,-45.51 355.99,-42.61 356.41,-49.6"/>
</a>
</g>
</g>
<!-- Node9 -->
<g id="Node000009" class="node">
<title>Node9</title>
<g id="a_Node000009"><a xlink:href="namespaceeq__utilities.html#a5306cf07f1206add0995814dc73e9588" target="_top" xlink:title="Prints information for equilibrium parallel job.">
<polygon fill="white" stroke="#666666" points="311,-33.5 181,-33.5 181,0 311,0 311,-33.5"/>
<text xml:space="preserve" text-anchor="start" x="189" y="-18.1" font-family="Ubuntu Mono" font-size="12.00">eq_utilities::print</text>
<text xml:space="preserve" text-anchor="middle" x="246" y="-5.35" font-family="Ubuntu Mono" font-size="12.00">_info_eq</text>
</a>
</g>
</g>
<!-- Node1&#45;&gt;Node9 -->
<g id="edge13_Node000001_Node000009" class="edge">
<title>Node1&#45;&gt;Node9</title>
<g id="a_edge13_Node000001_Node000009"><a xlink:title=" ">
<path fill="none" stroke="#63b8ff" d="M77.52,-120.65C95.21,-100.74 126.88,-68 160,-47.75 165.58,-44.34 171.59,-41.22 177.75,-38.38"/>
<polygon fill="#63b8ff" stroke="#63b8ff" points="179.02,-41.65 186.81,-34.47 176.24,-35.22 179.02,-41.65"/>
</a>
</g>
</g>
<!-- Node3&#45;&gt;Node3 -->
<g id="edge3_Node000003_Node000003" class="edge">
<title>Node3&#45;&gt;Node3</title>
<g id="a_edge3_Node000003_Node000003"><a xlink:title=" ">
<path fill="none" stroke="#63b8ff" d="M738.25,-215.52C727.55,-224.18 736.47,-233.12 765,-233.12 780.6,-233.12 790.34,-230.45 794.21,-226.61"/>
<polygon fill="#63b8ff" stroke="#63b8ff" points="797.66,-226 792.08,-217 790.83,-227.52 797.66,-226"/>
</a>
</g>
</g>
<!-- Node4&#45;&gt;Node5 -->
<g id="edge5_Node000004_Node000005" class="edge">
<title>Node4&#45;&gt;Node5</title>
<g id="a_edge5_Node000004_Node000005"><a xlink:title=" ">
<path fill="none" stroke="#63b8ff" d="M495.26,-144.05C507.93,-145.49 521.49,-147.03 534.47,-148.51"/>
<polygon fill="#63b8ff" stroke="#63b8ff" points="533.85,-151.96 544.19,-149.62 534.65,-145.01 533.85,-151.96"/>
</a>
</g>
</g>
<!-- Node5&#45;&gt;Node3 -->
<g id="edge7_Node000005_Node000003" class="edge">
<title>Node5&#45;&gt;Node3</title>
<g id="a_edge7_Node000005_Node000003"><a xlink:title=" ">
<path fill="none" stroke="#63b8ff" d="M636.4,-166.62C660.07,-173.7 691.18,-182.99 716.76,-190.63"/>
<polygon fill="#63b8ff" stroke="#63b8ff" points="715.67,-193.96 726.25,-193.47 717.68,-187.26 715.67,-193.96"/>
</a>
</g>
</g>
<!-- Node6 -->
<g id="Node000006" class="node">
<title>Node6</title>
<g id="a_Node000006"><a xlink:href="namespacemessages.html#a82dddaab795b78b3d39e1ff1aab2f665" target="_top" xlink:title="Returns the memory usage in kilobytes.">
<polygon fill="white" stroke="#666666" points="842,-166.12 688,-166.12 688,-145.38 842,-145.38 842,-166.12"/>
<text xml:space="preserve" text-anchor="middle" x="765" y="-150.72" font-family="Ubuntu Mono" font-size="12.00">messages::get_mem_usage</text>
</a>
</g>
</g>
<!-- Node5&#45;&gt;Node6 -->
<g id="edge6_Node000005_Node000006" class="edge">
<title>Node5&#45;&gt;Node6</title>
<g id="a_edge6_Node000005_Node000006"><a xlink:title=" ">
<path fill="none" stroke="#63b8ff" d="M652.34,-155.75C659.99,-155.75 668.03,-155.75 676.15,-155.75"/>
<polygon fill="#63b8ff" stroke="#63b8ff" points="676.14,-159.25 686.14,-155.75 676.14,-152.25 676.14,-159.25"/>
</a>
</g>
</g>
<!-- Node7&#45;&gt;Node4 -->
<g id="edge9_Node000007_Node000004" class="edge">
<title>Node7&#45;&gt;Node4</title>
<g id="a_edge9_Node000007_Node000004"><a xlink:title=" ">
<path fill="none" stroke="#63b8ff" d="M301.48,-110.59C323.56,-114.98 349.25,-120.09 372.35,-124.69"/>
<polygon fill="#63b8ff" stroke="#63b8ff" points="371.48,-128.08 381.97,-126.6 372.84,-121.22 371.48,-128.08"/>
</a>
</g>
</g>
<!-- Node7&#45;&gt;Node5 -->
<g id="edge12_Node000007_Node000005" class="edge">
<title>Node7&#45;&gt;Node5</title>
<g id="a_edge12_Node000007_Node000005"><a xlink:title=" ">
<path fill="none" stroke="#63b8ff" d="M332.46,-98.93C384.44,-100.15 451.79,-104.81 510,-118.75 529.83,-123.5 550.93,-132.23 567.49,-140.02"/>
<polygon fill="#63b8ff" stroke="#63b8ff" points="565.78,-143.08 576.3,-144.29 568.83,-136.78 565.78,-143.08"/>
</a>
</g>
</g>
<!-- Node7&#45;&gt;Node8 -->
<g id="edge10_Node000007_Node000008" class="edge">
<title>Node7&#45;&gt;Node8</title>
<g id="a_edge10_Node000007_Node000008"><a xlink:title=" ">
<path fill="none" stroke="#63b8ff" d="M285.97,-88.9C300.44,-84.84 316.99,-80.14 332,-75.75 351.65,-70.01 373.3,-63.51 391.88,-57.87"/>
<polygon fill="#63b8ff" stroke="#63b8ff" points="392.72,-61.27 401.27,-55.02 390.68,-54.58 392.72,-61.27"/>
</a>
</g>
</g>
<!-- Node8&#45;&gt;Node8 -->
<g id="edge11_Node000008_Node000008" class="edge">
<title>Node8&#45;&gt;Node8</title>
<g id="a_edge11_Node000008_Node000008"><a xlink:title=" ">
<path fill="none" stroke="#63b8ff" d="M413.22,-54.52C402.91,-63.18 411.5,-72.12 439,-72.12 454.04,-72.12 463.42,-69.45 467.15,-65.61"/>
<polygon fill="#63b8ff" stroke="#63b8ff" points="470.61,-65.05 465.1,-56 463.77,-66.51 470.61,-65.05"/>
</a>
</g>
</g>
</g>
</svg>
