<?xml version="1.0" encoding="UTF-8" standalone="no"?>
<!DOCTYPE svg PUBLIC "-//W3C//DTD SVG 1.1//EN"
 "http://www.w3.org/Graphics/SVG/1.1/DTD/svg11.dtd">
<!-- Generated by graphviz version 2.38.0 (20140413.2041)
 -->
<!-- Title: grid_utilities::calc_vec_comp Pages: 1 -->
<svg width="622pt" height="190pt"
 viewBox="0.00 0.00 622.00 190.00" xmlns="http://www.w3.org/2000/svg" xmlns:xlink="http://www.w3.org/1999/xlink">
<g id="graph0" class="graph" transform="scale(1 1) rotate(0) translate(4 186)">
<title>grid_utilities::calc_vec_comp</title>
<polygon fill="white" stroke="none" points="-4,4 -4,-186 618,-186 618,4 -4,4"/>
<!-- Node39 -->
<g id="node1" class="node"><title>Node39</title>
<polygon fill="#bfbfbf" stroke="black" points="0,-74 0,-108 137,-108 137,-74 0,-74"/>
<text text-anchor="start" x="8" y="-94.4" font-family="Ubuntu Mono" font-size="12.00">grid_utilities::calc</text>
<text text-anchor="middle" x="68.5" y="-81.4" font-family="Ubuntu Mono" font-size="12.00">_vec_comp</text>
</g>
<!-- Node40 -->
<g id="node2" class="node"><title>Node40</title>
<g id="a_node2"><a xlink:href="namespaceeq__ops.html#a73a8c3cea1e8a636b4978bc626e0fab0" target="_top" xlink:title="Plots the magnetic fields. ">
<polygon fill="white" stroke="black" points="194,-160.5 194,-181.5 295,-181.5 295,-160.5 194,-160.5"/>
<text text-anchor="middle" x="244.5" y="-167.9" font-family="Ubuntu Mono" font-size="12.00">eq_ops::b_plot</text>
</a>
</g>
</g>
<!-- Node39&#45;&gt;Node40 -->
<g id="edge1" class="edge"><title>Node39&#45;&gt;Node40</title>
<path fill="none" stroke="midnightblue" d="M103.538,-113.624C123.21,-125.951 148.789,-140.738 173,-151 181.434,-154.575 190.7,-157.721 199.664,-160.396"/>
<polygon fill="midnightblue" stroke="midnightblue" points="105.258,-110.57 94.9415,-108.159 101.503,-116.478 105.258,-110.57"/>
</g>
<!-- Node45 -->
<g id="node7" class="node"><title>Node45</title>
<g id="a_node7"><a xlink:href="namespaceeq__ops.html#afabdf28e5c26ceb87e6eb8cf3809919d" target="_top" xlink:title="Plots the current. ">
<polygon fill="white" stroke="black" points="194,-120.5 194,-141.5 295,-141.5 295,-120.5 194,-120.5"/>
<text text-anchor="middle" x="244.5" y="-127.9" font-family="Ubuntu Mono" font-size="12.00">eq_ops::j_plot</text>
</a>
</g>
</g>
<!-- Node39&#45;&gt;Node45 -->
<g id="edge6" class="edge"><title>Node39&#45;&gt;Node45</title>
<path fill="none" stroke="midnightblue" d="M147.325,-108.891C164.531,-112.846 182.221,-116.913 197.663,-120.463"/>
<polygon fill="midnightblue" stroke="midnightblue" points="147.801,-105.409 137.271,-106.58 146.233,-112.231 147.801,-105.409"/>
</g>
<!-- Node46 -->
<g id="node8" class="node"><title>Node46</title>
<g id="a_node8"><a xlink:href="namespaceeq__ops.html#ad173efd111cb85c11bc2bc78a7555096" target="_top" xlink:title="Plots the curvature. ">
<polygon fill="white" stroke="black" points="182,-80.5 182,-101.5 307,-101.5 307,-80.5 182,-80.5"/>
<text text-anchor="middle" x="244.5" y="-87.9" font-family="Ubuntu Mono" font-size="12.00">eq_ops::kappa_plot</text>
</a>
</g>
</g>
<!-- Node39&#45;&gt;Node46 -->
<g id="edge9" class="edge"><title>Node39&#45;&gt;Node46</title>
<path fill="none" stroke="midnightblue" d="M147.357,-91C158.922,-91 170.704,-91 181.875,-91"/>
<polygon fill="midnightblue" stroke="midnightblue" points="147.271,-87.5001 137.271,-91 147.271,-94.5001 147.271,-87.5001"/>
</g>
<!-- Node47 -->
<g id="node9" class="node"><title>Node47</title>
<g id="a_node9"><a xlink:href="namespaceeq__ops.html#ac0a79893900631d25b170be0abd2c131" target="_top" xlink:title="Plots HALF of the change in the position vectors for 2 different toroidal positions, which can correspond to a ripple. ">
<polygon fill="white" stroke="black" points="176,-0.5 176,-21.5 313,-21.5 313,-0.5 176,-0.5"/>
<text text-anchor="middle" x="244.5" y="-7.9" font-family="Ubuntu Mono" font-size="12.00">eq_ops::delta_r_plot</text>
</a>
</g>
</g>
<!-- Node39&#45;&gt;Node47 -->
<g id="edge12" class="edge"><title>Node39&#45;&gt;Node47</title>
<path fill="none" stroke="midnightblue" d="M103.538,-68.3758C123.21,-56.0494 148.789,-41.262 173,-31 181.434,-27.4253 190.7,-24.2793 199.664,-21.6037"/>
<polygon fill="midnightblue" stroke="midnightblue" points="101.503,-65.5223 94.9415,-73.841 105.258,-71.4296 101.503,-65.5223"/>
</g>
<!-- Node48 -->
<g id="node10" class="node"><title>Node48</title>
<g id="a_node10"><a xlink:href="namespacesol__ops.html#a13b3cf2fb6437a3c93256368fa91c267" target="_top" xlink:title="Plots Eigenvectors. ">
<polygon fill="white" stroke="black" points="173,-40.5 173,-61.5 316,-61.5 316,-40.5 173,-40.5"/>
<text text-anchor="middle" x="244.5" y="-47.9" font-family="Ubuntu Mono" font-size="12.00">sol_ops::plot_sol_vec</text>
</a>
</g>
</g>
<!-- Node39&#45;&gt;Node48 -->
<g id="edge14" class="edge"><title>Node39&#45;&gt;Node48</title>
<path fill="none" stroke="midnightblue" d="M147.325,-73.1092C164.531,-69.1538 182.221,-65.0871 197.663,-61.5373"/>
<polygon fill="midnightblue" stroke="midnightblue" points="146.233,-69.7689 137.271,-75.4204 147.801,-76.591 146.233,-69.7689"/>
</g>
<!-- Node41 -->
<g id="node3" class="node"><title>Node41</title>
<g id="a_node3"><a xlink:href="namespacedriver__eq.html#adc9d5dff288fa512e5ef885627d940cc" target="_top" xlink:title="Main driver of PB3D equilibrium part. ">
<polygon fill="white" stroke="black" points="364,-120.5 364,-141.5 525,-141.5 525,-120.5 364,-120.5"/>
<text text-anchor="middle" x="444.5" y="-127.9" font-family="Ubuntu Mono" font-size="12.00">driver_eq::run_driver_eq</text>
</a>
</g>
</g>
<!-- Node40&#45;&gt;Node41 -->
<g id="edge2" class="edge"><title>Node40&#45;&gt;Node41</title>
<path fill="none" stroke="midnightblue" d="M305.089,-158.962C332.556,-153.413 364.86,-146.887 391.348,-141.536"/>
<polygon fill="midnightblue" stroke="midnightblue" points="304.317,-155.547 295.208,-160.958 305.703,-162.408 304.317,-155.547"/>
</g>
<!-- Node43 -->
<g id="node5" class="node"><title>Node43</title>
<g id="a_node5"><a xlink:href="namespacedriver__post.html#a33b3c6f9018a0ddc92dce77394b8ab37" target="_top" xlink:title="The main driver routine for postprocessing. ">
<polygon fill="white" stroke="black" points="352,-80.5 352,-101.5 537,-101.5 537,-80.5 352,-80.5"/>
<text text-anchor="middle" x="444.5" y="-87.9" font-family="Ubuntu Mono" font-size="12.00">driver_post::run_driver_post</text>
</a>
</g>
</g>
<!-- Node40&#45;&gt;Node43 -->
<g id="edge4" class="edge"><title>Node40&#45;&gt;Node43</title>
<path fill="none" stroke="midnightblue" d="M304.609,-156.995C308.577,-155.223 312.416,-153.233 316,-151 336.3,-138.352 331.323,-123.021 352,-111 358.607,-107.159 365.872,-104.054 373.331,-101.545"/>
<polygon fill="midnightblue" stroke="midnightblue" points="303.172,-153.8 295.174,-160.749 305.759,-160.304 303.172,-153.8"/>
</g>
<!-- Node42 -->
<g id="node4" class="node"><title>Node42</title>
<g id="a_node4"><a xlink:href="PB3D_8f90.html#afaee01f014ab3398eecac996b2795fd2" target="_top" xlink:title="Peeling Ballooning in 3D. ">
<polygon fill="white" stroke="black" points="573,-120.5 573,-141.5 614,-141.5 614,-120.5 573,-120.5"/>
<text text-anchor="middle" x="593.5" y="-127.9" font-family="Ubuntu Mono" font-size="12.00">pb3d</text>
</a>
</g>
</g>
<!-- Node41&#45;&gt;Node42 -->
<g id="edge3" class="edge"><title>Node41&#45;&gt;Node42</title>
<path fill="none" stroke="midnightblue" d="M535.401,-131C549.492,-131 562.735,-131 572.913,-131"/>
<polygon fill="midnightblue" stroke="midnightblue" points="535.023,-127.5 525.023,-131 535.023,-134.5 535.023,-127.5"/>
</g>
<!-- Node44 -->
<g id="node6" class="node"><title>Node44</title>
<g id="a_node6"><a xlink:href="POST_8f90.html#ac289b64ac4671fea0b4f2298ba1188a1" target="_top" xlink:title="Peeling Ballooning in 3D: postprocessing. ">
<polygon fill="white" stroke="black" points="573,-80.5 573,-101.5 614,-101.5 614,-80.5 573,-80.5"/>
<text text-anchor="middle" x="593.5" y="-87.9" font-family="Ubuntu Mono" font-size="12.00">post</text>
</a>
</g>
</g>
<!-- Node43&#45;&gt;Node44 -->
<g id="edge5" class="edge"><title>Node43&#45;&gt;Node44</title>
<path fill="none" stroke="midnightblue" d="M547.464,-91C556.946,-91 565.681,-91 572.883,-91"/>
<polygon fill="midnightblue" stroke="midnightblue" points="547.344,-87.5001 537.344,-91 547.344,-94.5001 547.344,-87.5001"/>
</g>
<!-- Node45&#45;&gt;Node41 -->
<g id="edge7" class="edge"><title>Node45&#45;&gt;Node41</title>
<path fill="none" stroke="midnightblue" d="M305.446,-131C323.787,-131 344.257,-131 363.7,-131"/>
<polygon fill="midnightblue" stroke="midnightblue" points="305.208,-127.5 295.208,-131 305.208,-134.5 305.208,-127.5"/>
</g>
<!-- Node45&#45;&gt;Node43 -->
<g id="edge8" class="edge"><title>Node45&#45;&gt;Node43</title>
<path fill="none" stroke="midnightblue" d="M305.089,-118.962C332.556,-113.413 364.86,-106.887 391.348,-101.536"/>
<polygon fill="midnightblue" stroke="midnightblue" points="304.317,-115.547 295.208,-120.958 305.703,-122.408 304.317,-115.547"/>
</g>
<!-- Node46&#45;&gt;Node41 -->
<g id="edge10" class="edge"><title>Node46&#45;&gt;Node41</title>
<path fill="none" stroke="midnightblue" d="M307.623,-103.55C334.573,-108.995 365.778,-115.299 391.482,-120.491"/>
<polygon fill="midnightblue" stroke="midnightblue" points="308.017,-100.059 297.522,-101.51 306.631,-106.92 308.017,-100.059"/>
</g>
<!-- Node46&#45;&gt;Node43 -->
<g id="edge11" class="edge"><title>Node46&#45;&gt;Node43</title>
<path fill="none" stroke="midnightblue" d="M317.22,-91C328.457,-91 340.201,-91 351.811,-91"/>
<polygon fill="midnightblue" stroke="midnightblue" points="317.063,-87.5001 307.063,-91 317.063,-94.5001 317.063,-87.5001"/>
</g>
<!-- Node47&#45;&gt;Node43 -->
<g id="edge13" class="edge"><title>Node47&#45;&gt;Node43</title>
<path fill="none" stroke="midnightblue" d="M296.498,-24.3942C303.113,-26.4445 309.756,-28.6629 316,-31 355.179,-45.6637 398.906,-67.5086 423.623,-80.3983"/>
<polygon fill="midnightblue" stroke="midnightblue" points="297.458,-21.0281 286.874,-21.5162 295.452,-27.7346 297.458,-21.0281"/>
</g>
<!-- Node48&#45;&gt;Node43 -->
<g id="edge15" class="edge"><title>Node48&#45;&gt;Node43</title>
<path fill="none" stroke="midnightblue" d="M307.623,-63.55C334.573,-68.9946 365.778,-75.2986 391.482,-80.4913"/>
<polygon fill="midnightblue" stroke="midnightblue" points="308.017,-60.0591 297.522,-61.5095 306.631,-66.9205 308.017,-60.0591"/>
</g>
</g>
</svg>
