<?xml version="1.0" encoding="UTF-8" standalone="no"?>
<!DOCTYPE svg PUBLIC "-//W3C//DTD SVG 1.1//EN"
 "http://www.w3.org/Graphics/SVG/1.1/DTD/svg11.dtd">
<!-- Generated by graphviz version 2.38.0 (20140413.2041)
 -->
<!-- Title: grid_utilities::untrim_grid Pages: 1 -->
<svg width="789pt" height="43pt"
 viewBox="0.00 0.00 789.00 43.00" xmlns="http://www.w3.org/2000/svg" xmlns:xlink="http://www.w3.org/1999/xlink">
<g id="graph0" class="graph" transform="scale(1 1) rotate(0) translate(4 39)">
<title>grid_utilities::untrim_grid</title>
<polygon fill="white" stroke="none" points="-4,4 -4,-39 785,-39 785,4 -4,4"/>
<!-- Node277 -->
<g id="node1" class="node"><title>Node277</title>
<polygon fill="#bfbfbf" stroke="black" points="0,-7 0,-28 179,-28 179,-7 0,-7"/>
<text text-anchor="middle" x="89.5" y="-14.4" font-family="Ubuntu Mono" font-size="12.00">grid_utilities::untrim_grid</text>
</g>
<!-- Node278 -->
<g id="node2" class="node"><title>Node278</title>
<g id="a_node2"><a xlink:href="namespacesol__ops.html#aaeb4b122754fc6a4f538b22d72b6cba0" target="_top" xlink:title="sol_ops::calc_e">
<polygon fill="white" stroke="black" points="215,-7 215,-28 322,-28 322,-7 215,-7"/>
<text text-anchor="middle" x="268.5" y="-14.4" font-family="Ubuntu Mono" font-size="12.00">sol_ops::calc_e</text>
</a>
</g>
</g>
<!-- Node277&#45;&gt;Node278 -->
<g id="edge1" class="edge"><title>Node277&#45;&gt;Node278</title>
<path fill="none" stroke="midnightblue" d="M189.427,-17.5C198.053,-17.5 206.544,-17.5 214.568,-17.5"/>
<polygon fill="midnightblue" stroke="midnightblue" points="189.259,-14.0001 179.259,-17.5 189.259,-21.0001 189.259,-14.0001"/>
</g>
<!-- Node279 -->
<g id="node3" class="node"><title>Node279</title>
<g id="a_node3"><a xlink:href="namespacesol__ops.html#a5e15aa2fa915e7de74ce74f02cd35fac" target="_top" xlink:title="sol_ops::decompose\l_energy">
<polygon fill="white" stroke="black" points="358,-0.5 358,-34.5 483,-34.5 483,-0.5 358,-0.5"/>
<text text-anchor="start" x="366" y="-20.9" font-family="Ubuntu Mono" font-size="12.00">sol_ops::decompose</text>
<text text-anchor="middle" x="420.5" y="-7.9" font-family="Ubuntu Mono" font-size="12.00">_energy</text>
</a>
</g>
</g>
<!-- Node278&#45;&gt;Node279 -->
<g id="edge2" class="edge"><title>Node278&#45;&gt;Node279</title>
<path fill="none" stroke="midnightblue" d="M332.493,-17.5C340.888,-17.5 349.489,-17.5 357.86,-17.5"/>
<polygon fill="midnightblue" stroke="midnightblue" points="332.384,-14.0001 322.384,-17.5 332.384,-21.0001 332.384,-14.0001"/>
</g>
<!-- Node280 -->
<g id="node4" class="node"><title>Node280</title>
<g id="a_node4"><a xlink:href="namespacedriver__post.html#a33b3c6f9018a0ddc92dce77394b8ab37" target="_top" xlink:title="driver_post::run_driver_post">
<polygon fill="white" stroke="black" points="519,-7 519,-28 704,-28 704,-7 519,-7"/>
<text text-anchor="middle" x="611.5" y="-14.4" font-family="Ubuntu Mono" font-size="12.00">driver_post::run_driver_post</text>
</a>
</g>
</g>
<!-- Node279&#45;&gt;Node280 -->
<g id="edge3" class="edge"><title>Node279&#45;&gt;Node280</title>
<path fill="none" stroke="midnightblue" d="M493.19,-17.5C501.562,-17.5 510.187,-17.5 518.782,-17.5"/>
<polygon fill="midnightblue" stroke="midnightblue" points="493.124,-14.0001 483.124,-17.5 493.124,-21.0001 493.124,-14.0001"/>
</g>
<!-- Node281 -->
<g id="node5" class="node"><title>Node281</title>
<g id="a_node5"><a xlink:href="POST_8f90.html#ac289b64ac4671fea0b4f2298ba1188a1" target="_top" xlink:title="post">
<polygon fill="white" stroke="black" points="740,-7 740,-28 781,-28 781,-7 740,-7"/>
<text text-anchor="middle" x="760.5" y="-14.4" font-family="Ubuntu Mono" font-size="12.00">post</text>
</a>
</g>
</g>
<!-- Node280&#45;&gt;Node281 -->
<g id="edge4" class="edge"><title>Node280&#45;&gt;Node281</title>
<path fill="none" stroke="midnightblue" d="M714.464,-17.5C723.946,-17.5 732.681,-17.5 739.883,-17.5"/>
<polygon fill="midnightblue" stroke="midnightblue" points="714.344,-14.0001 704.344,-17.5 714.344,-21.0001 714.344,-14.0001"/>
</g>
</g>
</svg>
