<?xml version="1.0" encoding="UTF-8" standalone="no"?>
<!DOCTYPE svg PUBLIC "-//W3C//DTD SVG 1.1//EN"
 "http://www.w3.org/Graphics/SVG/1.1/DTD/svg11.dtd">
<!-- Generated by graphviz version 2.38.0 (20140413.2041)
 -->
<!-- Title: eq_ops::calc_derived_q Pages: 1 -->
<svg width="455pt" height="70pt"
 viewBox="0.00 0.00 455.00 70.00" xmlns="http://www.w3.org/2000/svg" xmlns:xlink="http://www.w3.org/1999/xlink">
<g id="graph0" class="graph" transform="scale(1 1) rotate(0) translate(4 66)">
<title>eq_ops::calc_derived_q</title>
<polygon fill="white" stroke="none" points="-4,4 -4,-66 451,-66 451,4 -4,4"/>
<!-- Node27 -->
<g id="node1" class="node"><title>Node27</title>
<polygon fill="#bfbfbf" stroke="black" points="0,-20.5 0,-41.5 149,-41.5 149,-20.5 0,-20.5"/>
<text text-anchor="middle" x="74.5" y="-27.9" font-family="Ubuntu Mono" font-size="12.00">eq_ops::calc_derived_q</text>
</g>
<!-- Node28 -->
<g id="node2" class="node"><title>Node28</title>
<g id="a_node2"><a xlink:href="namespacedriver__post.html#a33b3c6f9018a0ddc92dce77394b8ab37" target="_top" xlink:title="driver_post::run_driver_post">
<polygon fill="white" stroke="black" points="185,-40.5 185,-61.5 370,-61.5 370,-40.5 185,-40.5"/>
<text text-anchor="middle" x="277.5" y="-47.9" font-family="Ubuntu Mono" font-size="12.00">driver_post::run_driver_post</text>
</a>
</g>
</g>
<!-- Node27&#45;&gt;Node28 -->
<g id="edge1" class="edge"><title>Node27&#45;&gt;Node28</title>
<path fill="none" stroke="midnightblue" d="M159.322,-39.3405C167.696,-40.1737 176.228,-41.0227 184.678,-41.8635"/>
<polygon fill="midnightblue" stroke="midnightblue" points="159.501,-35.8411 149.204,-38.3337 158.808,-42.8067 159.501,-35.8411"/>
</g>
<!-- Node30 -->
<g id="node4" class="node"><title>Node30</title>
<g id="a_node4"><a xlink:href="namespaceeq__ops.html#a91256e08dadab2ccbabd66cf369c43a5" target="_top" xlink:title="eq_ops::calc_eq_2">
<polygon fill="white" stroke="black" points="218,-0.5 218,-21.5 337,-21.5 337,-0.5 218,-0.5"/>
<text text-anchor="middle" x="277.5" y="-7.9" font-family="Ubuntu Mono" font-size="12.00">eq_ops::calc_eq_2</text>
</a>
</g>
</g>
<!-- Node27&#45;&gt;Node30 -->
<g id="edge3" class="edge"><title>Node27&#45;&gt;Node30</title>
<path fill="none" stroke="midnightblue" d="M159.395,-22.6523C179.067,-20.6948 199.613,-18.6505 217.902,-16.8306"/>
<polygon fill="midnightblue" stroke="midnightblue" points="158.808,-19.1933 149.204,-23.6663 159.501,-26.1589 158.808,-19.1933"/>
</g>
<!-- Node29 -->
<g id="node3" class="node"><title>Node29</title>
<g id="a_node3"><a xlink:href="POST_8f90.html#ac289b64ac4671fea0b4f2298ba1188a1" target="_top" xlink:title="post">
<polygon fill="white" stroke="black" points="406,-40.5 406,-61.5 447,-61.5 447,-40.5 406,-40.5"/>
<text text-anchor="middle" x="426.5" y="-47.9" font-family="Ubuntu Mono" font-size="12.00">post</text>
</a>
</g>
</g>
<!-- Node28&#45;&gt;Node29 -->
<g id="edge2" class="edge"><title>Node28&#45;&gt;Node29</title>
<path fill="none" stroke="midnightblue" d="M380.464,-51C389.946,-51 398.681,-51 405.883,-51"/>
<polygon fill="midnightblue" stroke="midnightblue" points="380.344,-47.5001 370.344,-51 380.344,-54.5001 380.344,-47.5001"/>
</g>
</g>
</svg>
