<?xml version="1.0" encoding="UTF-8" standalone="no"?>
<!DOCTYPE svg PUBLIC "-//W3C//DTD SVG 1.1//EN"
 "http://www.w3.org/Graphics/SVG/1.1/DTD/svg11.dtd">
<!-- Generated by graphviz version 2.43.0 (0)
 -->
<!-- Title: x_ops::calc_res_surf Pages: 1 -->
<svg width="593pt" height="70pt"
 viewBox="0.00 0.00 593.00 70.00" xmlns="http://www.w3.org/2000/svg" xmlns:xlink="http://www.w3.org/1999/xlink">
<g id="graph0" class="graph" transform="scale(1 1) rotate(0) translate(4 66)">
<title>x_ops::calc_res_surf</title>
<polygon fill="white" stroke="transparent" points="-4,4 -4,-66 589,-66 589,4 -4,4"/>
<!-- Node1 -->
<g id="node1" class="node">
<title>Node1</title>
<g id="a_node1"><a xlink:title="Calculates resonating flux surfaces for the perturbation modes.">
<polygon fill="#bfbfbf" stroke="black" points="450,-20.5 450,-41.5 585,-41.5 585,-20.5 450,-20.5"/>
<text text-anchor="middle" x="517.5" y="-27.9" font-family="Ubuntu Mono" font-size="12.00">x_ops::calc_res_surf</text>
</a>
</g>
</g>
<!-- Node2 -->
<g id="node2" class="node">
<title>Node2</title>
<g id="a_node2"><a xlink:href="namespacedriver__post.html#af527706d4e696d4e507443d2f74194ef" target="_top" xlink:title="Initializes the POST driver.">
<polygon fill="white" stroke="black" points="86,-40.5 86,-61.5 226,-61.5 226,-40.5 86,-40.5"/>
<text text-anchor="middle" x="156" y="-47.9" font-family="Ubuntu Mono" font-size="12.00">driver_post::init_post</text>
</a>
</g>
</g>
<!-- Node1&#45;&gt;Node2 -->
<g id="edge1" class="edge">
<title>Node1&#45;&gt;Node2</title>
<path fill="none" stroke="midnightblue" d="M439.4,-35.29C376.08,-38.81 287.22,-43.76 226.17,-47.15"/>
<polygon fill="midnightblue" stroke="midnightblue" points="439.93,-38.77 449.72,-34.71 439.54,-31.78 439.93,-38.77"/>
</g>
<!-- Node4 -->
<g id="node4" class="node">
<title>Node4</title>
<g id="a_node4"><a xlink:href="namespacex__ops.html#abdaf1308e13cede3a153e8c6cf35a637" target="_top" xlink:title="plot &#45;profile or &#45;profile in flux coordinates with &#160;or &#160;indicated if requested.">
<polygon fill="white" stroke="black" points="265,-1.5 265,-22.5 414,-22.5 414,-1.5 265,-1.5"/>
<text text-anchor="middle" x="339.5" y="-8.9" font-family="Ubuntu Mono" font-size="12.00">x_ops::resonance_plot</text>
</a>
</g>
</g>
<!-- Node1&#45;&gt;Node4 -->
<g id="edge3" class="edge">
<title>Node1&#45;&gt;Node4</title>
<path fill="none" stroke="midnightblue" d="M440,-22.74C431.44,-21.82 422.73,-20.88 414.2,-19.96"/>
<polygon fill="midnightblue" stroke="midnightblue" points="439.64,-26.22 449.96,-23.82 440.4,-19.26 439.64,-26.22"/>
</g>
<!-- Node3 -->
<g id="node3" class="node">
<title>Node3</title>
<g id="a_node3"><a xlink:href="POST_8f90.html#ac289b64ac4671fea0b4f2298ba1188a1" target="_top" xlink:title="Peeling Ballooning in 3D: postprocessing.">
<polygon fill="white" stroke="black" points="2.5,-40.5 2.5,-61.5 44.5,-61.5 44.5,-40.5 2.5,-40.5"/>
<text text-anchor="middle" x="23.5" y="-47.9" font-family="Ubuntu Mono" font-size="12.00">post</text>
</a>
</g>
</g>
<!-- Node2&#45;&gt;Node3 -->
<g id="edge2" class="edge">
<title>Node2&#45;&gt;Node3</title>
<path fill="none" stroke="midnightblue" d="M75.7,-51C64.2,-51 53.32,-51 44.56,-51"/>
<polygon fill="midnightblue" stroke="midnightblue" points="75.93,-54.5 85.93,-51 75.93,-47.5 75.93,-54.5"/>
</g>
<!-- Node4&#45;&gt;Node2 -->
<g id="edge4" class="edge">
<title>Node4&#45;&gt;Node2</title>
<path fill="none" stroke="midnightblue" d="M279.45,-24.69C255.75,-29.78 228.76,-35.58 206.16,-40.44"/>
<polygon fill="midnightblue" stroke="midnightblue" points="280.34,-28.08 289.38,-22.55 278.87,-21.23 280.34,-28.08"/>
</g>
<!-- Node5 -->
<g id="node5" class="node">
<title>Node5</title>
<g id="a_node5"><a xlink:href="namespacedriver__x.html#ada3d72a0929daaa5e3da585246d62281" target="_top" xlink:title="Main driver of PB3D perturbation part.">
<polygon fill="white" stroke="black" points="83,-0.5 83,-21.5 229,-21.5 229,-0.5 83,-0.5"/>
<text text-anchor="middle" x="156" y="-7.9" font-family="Ubuntu Mono" font-size="12.00">driver_x::run_driver_x</text>
</a>
</g>
</g>
<!-- Node4&#45;&gt;Node5 -->
<g id="edge5" class="edge">
<title>Node4&#45;&gt;Node5</title>
<path fill="none" stroke="midnightblue" d="M254.91,-11.54C246.32,-11.49 237.65,-11.44 229.19,-11.4"/>
<polygon fill="midnightblue" stroke="midnightblue" points="254.92,-15.04 264.94,-11.59 254.96,-8.04 254.92,-15.04"/>
</g>
<!-- Node6 -->
<g id="node6" class="node">
<title>Node6</title>
<g id="a_node6"><a xlink:href="PB3D_8f90.html#afaee01f014ab3398eecac996b2795fd2" target="_top" xlink:title="Peeling Ballooning in 3D.">
<polygon fill="white" stroke="black" points="0,-0.5 0,-21.5 47,-21.5 47,-0.5 0,-0.5"/>
<text text-anchor="middle" x="23.5" y="-7.9" font-family="Ubuntu Mono" font-size="12.00">pb3d</text>
</a>
</g>
</g>
<!-- Node5&#45;&gt;Node6 -->
<g id="edge6" class="edge">
<title>Node5&#45;&gt;Node6</title>
<path fill="none" stroke="midnightblue" d="M72.66,-11C63.39,-11 54.61,-11 47.15,-11"/>
<polygon fill="midnightblue" stroke="midnightblue" points="72.88,-14.5 82.88,-11 72.88,-7.5 72.88,-14.5"/>
</g>
</g>
</svg>
