<?xml version="1.0" encoding="UTF-8" standalone="no"?>
<!DOCTYPE svg PUBLIC "-//W3C//DTD SVG 1.1//EN"
 "http://www.w3.org/Graphics/SVG/1.1/DTD/svg11.dtd">
<!-- Generated by graphviz version 2.43.0 (0)
 -->
<!-- Title: slepc_ops::store_results Pages: 1 -->
<svg width="719pt" height="306pt"
 viewBox="0.00 0.00 719.00 306.00" xmlns="http://www.w3.org/2000/svg" xmlns:xlink="http://www.w3.org/1999/xlink">
<g id="graph0" class="graph" transform="scale(1 1) rotate(0) translate(4 302)">
<title>slepc_ops::store_results</title>
<polygon fill="white" stroke="transparent" points="-4,4 -4,-302 715,-302 715,4 -4,4"/>
<!-- Node1 -->
<g id="node1" class="node">
<title>Node1</title>
<g id="a_node1"><a xlink:title="Stores the results.">
<polygon fill="#bfbfbf" stroke="black" points="0,-138.5 0,-159.5 157,-159.5 157,-138.5 0,-138.5"/>
<text text-anchor="middle" x="78.5" y="-145.9" font-family="Ubuntu Mono" font-size="12.00">slepc_ops::store_results</text>
</a>
</g>
</g>
<!-- Node2 -->
<g id="node2" class="node">
<title>Node2</title>
<g id="a_node2"><a xlink:href="namespacestr__utilities.html#a308e943e5e244e3e0f852f2ecb3e3183" target="_top" xlink:title="Convert a complex (double) to string.">
<polygon fill="white" stroke="black" points="208.5,-276.5 208.5,-297.5 326.5,-297.5 326.5,-276.5 208.5,-276.5"/>
<text text-anchor="middle" x="267.5" y="-283.9" font-family="Ubuntu Mono" font-size="12.00">str_utilities::c2str</text>
</a>
</g>
</g>
<!-- Node1&#45;&gt;Node2 -->
<g id="edge1" class="edge">
<title>Node1&#45;&gt;Node2</title>
<path fill="none" stroke="midnightblue" d="M86.64,-159.65C102.75,-182.85 144.35,-238.15 193,-267 196.58,-269.12 200.4,-271.03 204.33,-272.74"/>
<polygon fill="midnightblue" stroke="midnightblue" points="203.09,-276.01 213.68,-276.37 205.62,-269.48 203.09,-276.01"/>
</g>
<!-- Node3 -->
<g id="node3" class="node">
<title>Node3</title>
<g id="a_node3"><a xlink:href="namespacestr__utilities.html#abca28d6272d447dc1c0c100624c6ed75" target="_top" xlink:title="Convert a complex (double) to string.">
<polygon fill="white" stroke="black" points="206.5,-236.5 206.5,-257.5 328.5,-257.5 328.5,-236.5 206.5,-236.5"/>
<text text-anchor="middle" x="267.5" y="-243.9" font-family="Ubuntu Mono" font-size="12.00">str_utilities::c2strt</text>
</a>
</g>
</g>
<!-- Node1&#45;&gt;Node3 -->
<g id="edge2" class="edge">
<title>Node1&#45;&gt;Node3</title>
<path fill="none" stroke="midnightblue" d="M93.53,-159.63C114.34,-175.03 155.02,-203.67 193,-222 201.47,-226.09 210.78,-229.8 219.85,-233.05"/>
<polygon fill="midnightblue" stroke="midnightblue" points="218.94,-236.44 229.54,-236.38 221.22,-229.82 218.94,-236.44"/>
</g>
<!-- Node4 -->
<g id="node4" class="node">
<title>Node4</title>
<g id="a_node4"><a xlink:href="namespacestr__utilities.html#a0b97e51770725a3e98ed393d26681414" target="_top" xlink:title="Convert an integer to string.">
<polygon fill="white" stroke="black" points="562.5,-197.5 562.5,-218.5 676.5,-218.5 676.5,-197.5 562.5,-197.5"/>
<text text-anchor="middle" x="619.5" y="-204.9" font-family="Ubuntu Mono" font-size="12.00">str_utilities::i2str</text>
</a>
</g>
</g>
<!-- Node1&#45;&gt;Node4 -->
<g id="edge3" class="edge">
<title>Node1&#45;&gt;Node4</title>
<path fill="none" stroke="midnightblue" d="M102.85,-159.52C125.41,-169.12 160.8,-182.75 193,-189 318.26,-213.31 467.97,-213.48 552.27,-211.01"/>
<polygon fill="midnightblue" stroke="midnightblue" points="552.58,-214.5 562.47,-210.69 552.36,-207.51 552.58,-214.5"/>
</g>
<!-- Node5 -->
<g id="node5" class="node">
<title>Node5</title>
<g id="a_node5"><a xlink:href="namespacemessages.html#a6e6bfb084063e4cc91ee86e542043302" target="_top" xlink:title="Increases/decreases lvl of output.">
<polygon fill="white" stroke="black" points="208.5,-158.5 208.5,-179.5 326.5,-179.5 326.5,-158.5 208.5,-158.5"/>
<text text-anchor="middle" x="267.5" y="-165.9" font-family="Ubuntu Mono" font-size="12.00">messages::lvl_ud</text>
</a>
</g>
</g>
<!-- Node1&#45;&gt;Node5 -->
<g id="edge4" class="edge">
<title>Node1&#45;&gt;Node5</title>
<path fill="none" stroke="midnightblue" d="M157.18,-157.31C170.85,-158.77 184.99,-160.28 198.38,-161.71"/>
<polygon fill="midnightblue" stroke="midnightblue" points="198.14,-165.21 208.45,-162.79 198.88,-158.25 198.14,-165.21"/>
</g>
<!-- Node6 -->
<g id="node6" class="node">
<title>Node6</title>
<g id="a_node6"><a xlink:href="namespacemessages.html#aa4a8d01563e92558e8a0875b075ec54c" target="_top" xlink:title="Write output to file identified by output_i.">
<polygon fill="white" stroke="black" points="378,-157.5 378,-178.5 492,-178.5 492,-157.5 378,-157.5"/>
<text text-anchor="middle" x="435" y="-164.9" font-family="Ubuntu Mono" font-size="12.00">messages::writo</text>
</a>
</g>
</g>
<!-- Node1&#45;&gt;Node6 -->
<g id="edge12" class="edge">
<title>Node1&#45;&gt;Node6</title>
<path fill="none" stroke="midnightblue" d="M157.24,-144.87C209.59,-143.1 280.12,-142.68 342,-149 355.06,-150.33 369,-152.71 381.98,-155.33"/>
<polygon fill="midnightblue" stroke="midnightblue" points="381.64,-158.84 392.14,-157.48 383.08,-151.99 381.64,-158.84"/>
</g>
<!-- Node9 -->
<g id="node9" class="node">
<title>Node9</title>
<g id="a_node9"><a xlink:href="namespacestr__utilities.html#a92ac6c0af1979df094de1caddd28ade0" target="_top" xlink:title="Convert a real (double) to string.">
<polygon fill="white" stroke="black" points="209.5,-80.5 209.5,-101.5 325.5,-101.5 325.5,-80.5 209.5,-80.5"/>
<text text-anchor="middle" x="267.5" y="-87.9" font-family="Ubuntu Mono" font-size="12.00">str_utilities::r2str</text>
</a>
</g>
</g>
<!-- Node1&#45;&gt;Node9 -->
<g id="edge9" class="edge">
<title>Node1&#45;&gt;Node9</title>
<path fill="none" stroke="midnightblue" d="M113.36,-138.5C143.98,-129 189.24,-114.96 222.62,-104.61"/>
<polygon fill="midnightblue" stroke="midnightblue" points="224.06,-107.83 232.57,-101.52 221.98,-101.14 224.06,-107.83"/>
</g>
<!-- Node10 -->
<g id="node10" class="node">
<title>Node10</title>
<g id="a_node10"><a xlink:href="namespacestr__utilities.html#ac778d706b2e021672618939ab58fdd32" target="_top" xlink:title="Convert a real (double) to string.">
<polygon fill="white" stroke="black" points="207,-40.5 207,-61.5 328,-61.5 328,-40.5 207,-40.5"/>
<text text-anchor="middle" x="267.5" y="-47.9" font-family="Ubuntu Mono" font-size="12.00">str_utilities::r2strt</text>
</a>
</g>
</g>
<!-- Node1&#45;&gt;Node10 -->
<g id="edge10" class="edge">
<title>Node1&#45;&gt;Node10</title>
<path fill="none" stroke="midnightblue" d="M91.91,-138.35C111.91,-121.7 153.08,-89.49 193,-71 198.02,-68.67 203.37,-66.57 208.8,-64.68"/>
<polygon fill="midnightblue" stroke="midnightblue" points="210.17,-67.92 218.61,-61.52 208.02,-61.26 210.17,-67.92"/>
</g>
<!-- Node11 -->
<g id="node11" class="node">
<title>Node11</title>
<g id="a_node11"><a xlink:href="namespacegrid__utilities.html#a67001ff9bbcad707aacf17f90a748d90" target="_top" xlink:title="Trim a grid, removing any overlap between the different regions.">
<polygon fill="white" stroke="black" points="193,-0.5 193,-21.5 342,-21.5 342,-0.5 193,-0.5"/>
<text text-anchor="middle" x="267.5" y="-7.9" font-family="Ubuntu Mono" font-size="12.00">grid_utilities::trim_grid</text>
</a>
</g>
</g>
<!-- Node1&#45;&gt;Node11 -->
<g id="edge11" class="edge">
<title>Node1&#45;&gt;Node11</title>
<path fill="none" stroke="midnightblue" d="M86.64,-138.35C102.75,-115.15 144.35,-59.85 193,-31 196.58,-28.88 200.4,-26.97 204.33,-25.26"/>
<polygon fill="midnightblue" stroke="midnightblue" points="205.62,-28.52 213.68,-21.63 203.09,-21.99 205.62,-28.52"/>
</g>
<!-- Node5&#45;&gt;Node6 -->
<g id="edge5" class="edge">
<title>Node5&#45;&gt;Node6</title>
<path fill="none" stroke="midnightblue" d="M326.85,-168.65C340.05,-168.57 354.16,-168.48 367.66,-168.4"/>
<polygon fill="midnightblue" stroke="midnightblue" points="367.87,-171.9 377.84,-168.34 367.82,-164.9 367.87,-171.9"/>
</g>
<!-- Node6&#45;&gt;Node4 -->
<g id="edge8" class="edge">
<title>Node6&#45;&gt;Node4</title>
<path fill="none" stroke="midnightblue" d="M483.95,-178.51C507.43,-183.66 535.9,-189.9 560.59,-195.31"/>
<polygon fill="midnightblue" stroke="midnightblue" points="560.04,-198.77 570.55,-197.49 561.54,-191.93 560.04,-198.77"/>
</g>
<!-- Node7 -->
<g id="node7" class="node">
<title>Node7</title>
<g id="a_node7"><a xlink:href="namespacemessages.html#a61fd0b51b5e37d58fdc993c01792a3fd" target="_top" xlink:title="Returns the time.">
<polygon fill="white" stroke="black" points="549.5,-157.5 549.5,-178.5 689.5,-178.5 689.5,-157.5 549.5,-157.5"/>
<text text-anchor="middle" x="619.5" y="-164.9" font-family="Ubuntu Mono" font-size="12.00">messages::get_clock</text>
</a>
</g>
</g>
<!-- Node6&#45;&gt;Node7 -->
<g id="edge6" class="edge">
<title>Node6&#45;&gt;Node7</title>
<path fill="none" stroke="midnightblue" d="M492.25,-168C507.02,-168 523.24,-168 538.99,-168"/>
<polygon fill="midnightblue" stroke="midnightblue" points="539.25,-171.5 549.25,-168 539.25,-164.5 539.25,-171.5"/>
</g>
<!-- Node8 -->
<g id="node8" class="node">
<title>Node8</title>
<g id="a_node8"><a xlink:href="namespacemessages.html#a82dddaab795b78b3d39e1ff1aab2f665" target="_top" xlink:title="Returns the memory usage in kilobytes.">
<polygon fill="white" stroke="black" points="528,-117.5 528,-138.5 711,-138.5 711,-117.5 528,-117.5"/>
<text text-anchor="middle" x="619.5" y="-124.9" font-family="Ubuntu Mono" font-size="12.00">messages::get_mem_usage</text>
</a>
</g>
</g>
<!-- Node6&#45;&gt;Node8 -->
<g id="edge7" class="edge">
<title>Node6&#45;&gt;Node8</title>
<path fill="none" stroke="midnightblue" d="M483.95,-157.49C507.43,-152.34 535.9,-146.1 560.59,-140.69"/>
<polygon fill="midnightblue" stroke="midnightblue" points="561.54,-144.07 570.55,-138.51 560.04,-137.23 561.54,-144.07"/>
</g>
</g>
</svg>
