<?xml version="1.0" encoding="UTF-8" standalone="no"?>
<!DOCTYPE svg PUBLIC "-//W3C//DTD SVG 1.1//EN"
 "http://www.w3.org/Graphics/SVG/1.1/DTD/svg11.dtd">
<!-- Generated by graphviz version 2.38.0 (20140413.2041)
 -->
<!-- Title: x_utilities::is_necessary_x Pages: 1 -->
<svg width="1010pt" height="202pt"
 viewBox="0.00 0.00 1010.00 201.50" xmlns="http://www.w3.org/2000/svg" xmlns:xlink="http://www.w3.org/1999/xlink">
<g id="graph0" class="graph" transform="scale(1 1) rotate(0) translate(4 197.5)">
<title>x_utilities::is_necessary_x</title>
<polygon fill="white" stroke="none" points="-4,4 -4,-197.5 1006,-197.5 1006,4 -4,4"/>
<!-- Node30 -->
<g id="node1" class="node"><title>Node30</title>
<polygon fill="#bfbfbf" stroke="black" points="0,-93 0,-114 179,-114 179,-93 0,-93"/>
<text text-anchor="middle" x="89.5" y="-100.4" font-family="Ubuntu Mono" font-size="12.00">x_utilities::is_necessary_x</text>
</g>
<!-- Node31 -->
<g id="node2" class="node"><title>Node31</title>
<g id="a_node2"><a xlink:href="namespacex__ops.html#a51f3bf0b4c8d688ffbcc3a1adbca9762" target="_top" xlink:title="x_ops::calc_pv">
<polygon fill="white" stroke="black" points="233,-172 233,-193 334,-193 334,-172 233,-172"/>
<text text-anchor="middle" x="283.5" y="-179.4" font-family="Ubuntu Mono" font-size="12.00">x_ops::calc_pv</text>
</a>
</g>
</g>
<!-- Node30&#45;&gt;Node31 -->
<g id="edge1" class="edge"><title>Node30&#45;&gt;Node31</title>
<path fill="none" stroke="midnightblue" d="M119.255,-118.688C144.139,-131.451 181.323,-149.62 215,-162.5 224.019,-165.949 233.899,-169.174 243.251,-171.985"/>
<polygon fill="midnightblue" stroke="midnightblue" points="120.843,-115.569 110.353,-114.084 117.627,-121.787 120.843,-115.569"/>
</g>
<!-- Node32 -->
<g id="node3" class="node"><title>Node32</title>
<g id="a_node3"><a xlink:href="namespacex__ops.html#a045e8903230dfa0fb8b89b458d0c8ee2" target="_top" xlink:title="x_ops::calc_kv">
<polygon fill="white" stroke="black" points="233,-132 233,-153 334,-153 334,-132 233,-132"/>
<text text-anchor="middle" x="283.5" y="-139.4" font-family="Ubuntu Mono" font-size="12.00">x_ops::calc_kv</text>
</a>
</g>
</g>
<!-- Node30&#45;&gt;Node32 -->
<g id="edge2" class="edge"><title>Node30&#45;&gt;Node32</title>
<path fill="none" stroke="midnightblue" d="M152.33,-116.059C178.318,-121.338 208.149,-127.398 232.692,-132.383"/>
<polygon fill="midnightblue" stroke="midnightblue" points="152.702,-112.563 142.205,-114.003 151.308,-119.423 152.702,-112.563"/>
</g>
<!-- Node33 -->
<g id="node4" class="node"><title>Node33</title>
<g id="a_node4"><a xlink:href="namespacex__ops.html#a6df79622d1b95d54ab3e542751a5881d" target="_top" xlink:title="x_ops::calc_magn_ints">
<polygon fill="white" stroke="black" points="394,-94 394,-115 537,-115 537,-94 394,-94"/>
<text text-anchor="middle" x="465.5" y="-101.4" font-family="Ubuntu Mono" font-size="12.00">x_ops::calc_magn_ints</text>
</a>
</g>
</g>
<!-- Node30&#45;&gt;Node33 -->
<g id="edge3" class="edge"><title>Node30&#45;&gt;Node33</title>
<path fill="none" stroke="midnightblue" d="M189.305,-103.764C253.696,-103.936 336.183,-104.157 393.989,-104.311"/>
<polygon fill="midnightblue" stroke="midnightblue" points="189.142,-100.264 179.133,-103.737 189.123,-107.264 189.142,-100.264"/>
</g>
<!-- Node37 -->
<g id="node8" class="node"><title>Node37</title>
<g id="a_node8"><a xlink:href="namespacex__ops.html#a28615c2a15bf15a2d2acd71038386135" target="_top" xlink:title="x_ops::print_output_x_2">
<polygon fill="white" stroke="black" points="388,-54 388,-75 543,-75 543,-54 388,-54"/>
<text text-anchor="middle" x="465.5" y="-61.4" font-family="Ubuntu Mono" font-size="12.00">x_ops::print_output_x_2</text>
</a>
</g>
</g>
<!-- Node30&#45;&gt;Node37 -->
<g id="edge7" class="edge"><title>Node30&#45;&gt;Node37</title>
<path fill="none" stroke="midnightblue" d="M189.35,-93.1921C251.502,-86.711 330.501,-78.4732 387.892,-72.4886"/>
<polygon fill="midnightblue" stroke="midnightblue" points="188.716,-89.7392 179.133,-94.2575 189.442,-96.7014 188.716,-89.7392"/>
</g>
<!-- Node38 -->
<g id="node9" class="node"><title>Node38</title>
<g id="a_node9"><a xlink:href="namespacex__utilities.html#a6072ddd1fd230758795ff320c75a1f6a" target="_top" xlink:title="x_utilities::get_sec\l_x_range">
<polygon fill="white" stroke="black" points="215,-2.5 215,-36.5 352,-36.5 352,-2.5 215,-2.5"/>
<text text-anchor="start" x="223" y="-22.9" font-family="Ubuntu Mono" font-size="12.00">x_utilities::get_sec</text>
<text text-anchor="middle" x="283.5" y="-9.9" font-family="Ubuntu Mono" font-size="12.00">_x_range</text>
</a>
</g>
</g>
<!-- Node30&#45;&gt;Node38 -->
<g id="edge8" class="edge"><title>Node30&#45;&gt;Node38</title>
<path fill="none" stroke="midnightblue" d="M124.128,-88.7879C157.419,-74.2229 208.357,-51.9376 243.427,-36.5944"/>
<polygon fill="midnightblue" stroke="midnightblue" points="122.576,-85.6465 114.817,-92.8613 125.381,-92.0596 122.576,-85.6465"/>
</g>
<!-- Node34 -->
<g id="node5" class="node"><title>Node34</title>
<g id="a_node5"><a xlink:href="namespacedriver__x.html#ad3924b3d66f336f0a9a9559eafffec8e" target="_top" xlink:title="driver_x::run_driver_x_2">
<polygon fill="white" stroke="black" points="579,-46 579,-67 740,-67 740,-46 579,-46"/>
<text text-anchor="middle" x="659.5" y="-53.4" font-family="Ubuntu Mono" font-size="12.00">driver_x::run_driver_x_2</text>
</a>
</g>
</g>
<!-- Node33&#45;&gt;Node34 -->
<g id="edge4" class="edge"><title>Node33&#45;&gt;Node34</title>
<path fill="none" stroke="midnightblue" d="M518.73,-91.4425C549.428,-83.768 587.724,-74.1941 616.463,-67.0092"/>
<polygon fill="midnightblue" stroke="midnightblue" points="517.488,-88.1453 508.635,-93.9662 519.186,-94.9363 517.488,-88.1453"/>
</g>
<!-- Node35 -->
<g id="node6" class="node"><title>Node35</title>
<g id="a_node6"><a xlink:href="namespacedriver__x.html#ada3d72a0929daaa5e3da585246d62281" target="_top" xlink:title="driver_x::run_driver_x">
<polygon fill="white" stroke="black" points="776,-26 776,-47 925,-47 925,-26 776,-26"/>
<text text-anchor="middle" x="850.5" y="-33.4" font-family="Ubuntu Mono" font-size="12.00">driver_x::run_driver_x</text>
</a>
</g>
</g>
<!-- Node34&#45;&gt;Node35 -->
<g id="edge5" class="edge"><title>Node34&#45;&gt;Node35</title>
<path fill="none" stroke="midnightblue" d="M750.123,-47.0161C758.692,-46.1093 767.314,-45.1969 775.708,-44.3087"/>
<polygon fill="midnightblue" stroke="midnightblue" points="749.681,-43.5432 740.105,-48.0762 750.418,-50.5043 749.681,-43.5432"/>
</g>
<!-- Node36 -->
<g id="node7" class="node"><title>Node36</title>
<g id="a_node7"><a xlink:href="PB3D_8f90.html#afaee01f014ab3398eecac996b2795fd2" target="_top" xlink:title="pb3d">
<polygon fill="white" stroke="black" points="961,-26 961,-47 1002,-47 1002,-26 961,-26"/>
<text text-anchor="middle" x="981.5" y="-33.4" font-family="Ubuntu Mono" font-size="12.00">pb3d</text>
</a>
</g>
</g>
<!-- Node35&#45;&gt;Node36 -->
<g id="edge6" class="edge"><title>Node35&#45;&gt;Node36</title>
<path fill="none" stroke="midnightblue" d="M935.141,-36.5C944.656,-36.5 953.56,-36.5 960.916,-36.5"/>
<polygon fill="midnightblue" stroke="midnightblue" points="935.044,-33.0001 925.044,-36.5 935.044,-40.0001 935.044,-33.0001"/>
</g>
<!-- Node38&#45;&gt;Node37 -->
<g id="edge12" class="edge"><title>Node38&#45;&gt;Node37</title>
<path fill="none" stroke="midnightblue" d="M361.84,-38.8351C382.657,-44.0393 404.396,-49.474 422.482,-53.9954"/>
<polygon fill="midnightblue" stroke="midnightblue" points="362.588,-35.4143 352.037,-36.3844 360.89,-42.2053 362.588,-35.4143"/>
</g>
<!-- Node39 -->
<g id="node10" class="node"><title>Node39</title>
<g id="a_node10"><a xlink:href="namespacepb3d__ops.html#a50f211992fbe20a56749b2be81a521e6" target="_top" xlink:title="pb3d_ops::reconstruct\l_pb3d_x_2">
<polygon fill="white" stroke="black" points="394,-0.5 394,-34.5 537,-34.5 537,-0.5 394,-0.5"/>
<text text-anchor="start" x="402" y="-20.9" font-family="Ubuntu Mono" font-size="12.00">pb3d_ops::reconstruct</text>
<text text-anchor="middle" x="465.5" y="-7.9" font-family="Ubuntu Mono" font-size="12.00">_pb3d_x_2</text>
</a>
</g>
</g>
<!-- Node38&#45;&gt;Node39 -->
<g id="edge9" class="edge"><title>Node38&#45;&gt;Node39</title>
<path fill="none" stroke="midnightblue" d="M362.078,-18.638C372.644,-18.5206 383.444,-18.4006 393.879,-18.2847"/>
<polygon fill="midnightblue" stroke="midnightblue" points="361.998,-15.1386 352.037,-18.7496 362.076,-22.1382 361.998,-15.1386"/>
</g>
<!-- Node39&#45;&gt;Node34 -->
<g id="edge11" class="edge"><title>Node39&#45;&gt;Node34</title>
<path fill="none" stroke="midnightblue" d="M546.982,-33.8479C567.143,-37.9432 588.243,-42.2291 606.596,-45.957"/>
<polygon fill="midnightblue" stroke="midnightblue" points="547.672,-30.4167 537.176,-31.856 546.279,-37.2766 547.672,-30.4167"/>
</g>
<!-- Node39&#45;&gt;Node35 -->
<g id="edge10" class="edge"><title>Node39&#45;&gt;Node35</title>
<path fill="none" stroke="midnightblue" d="M547.373,-21.512C614.954,-24.8645 710.509,-29.6049 775.957,-32.8516"/>
<polygon fill="midnightblue" stroke="midnightblue" points="547.356,-18.0069 537.194,-21.007 547.009,-24.9983 547.356,-18.0069"/>
</g>
</g>
</svg>
