<?xml version="1.0" encoding="UTF-8" standalone="no"?>
<!DOCTYPE svg PUBLIC "-//W3C//DTD SVG 1.1//EN"
 "http://www.w3.org/Graphics/SVG/1.1/DTD/svg11.dtd">
<!-- Generated by graphviz version 2.38.0 (20140413.2041)
 -->
<!-- Title: num_utilities::check_deriv Pages: 1 -->
<svg width="330pt" height="255pt"
 viewBox="0.00 0.00 330.00 255.00" xmlns="http://www.w3.org/2000/svg" xmlns:xlink="http://www.w3.org/1999/xlink">
<g id="graph0" class="graph" transform="scale(1 1) rotate(0) translate(4 251)">
<title>num_utilities::check_deriv</title>
<polygon fill="white" stroke="none" points="-4,4 -4,-251 326,-251 326,4 -4,4"/>
<!-- Node95 -->
<g id="node1" class="node"><title>Node95</title>
<polygon fill="#bfbfbf" stroke="black" points="0,-106.5 0,-140.5 137,-140.5 137,-106.5 0,-106.5"/>
<text text-anchor="start" x="8" y="-126.9" font-family="Ubuntu Mono" font-size="12.00">num_utilities::check</text>
<text text-anchor="middle" x="68.5" y="-113.9" font-family="Ubuntu Mono" font-size="12.00">_deriv</text>
</g>
<!-- Node96 -->
<g id="node2" class="node"><title>Node96</title>
<g id="a_node2"><a xlink:href="interfaceeq__ops_1_1calc__rzl.html#ac161b0609f9e3748553befd2d62d083c" target="_top" xlink:title="individual version ">
<polygon fill="white" stroke="black" points="173,-212.5 173,-246.5 322,-246.5 322,-212.5 173,-212.5"/>
<text text-anchor="start" x="181" y="-232.9" font-family="Ubuntu Mono" font-size="12.00">eq_ops::calc_rzl::calc</text>
<text text-anchor="middle" x="247.5" y="-219.9" font-family="Ubuntu Mono" font-size="12.00">_rzl_ind</text>
</a>
</g>
</g>
<!-- Node95&#45;&gt;Node96 -->
<g id="edge1" class="edge"><title>Node95&#45;&gt;Node96</title>
<path fill="none" stroke="midnightblue" d="M95.7864,-147.642C115.781,-165.017 144.607,-188.025 173,-203.5 178.942,-206.739 185.367,-209.704 191.86,-212.379"/>
<polygon fill="midnightblue" stroke="midnightblue" points="97.8634,-144.807 88.0491,-140.816 93.2323,-150.056 97.8634,-144.807"/>
</g>
<!-- Node97 -->
<g id="node3" class="node"><title>Node97</title>
<g id="a_node3"><a xlink:href="interfaceeq__ops_1_1calc__g__v.html#a16fcebfd6f70491ec6d66534cd50c7a4" target="_top" xlink:title="individual version ">
<polygon fill="white" stroke="black" points="173,-159.5 173,-193.5 322,-193.5 322,-159.5 173,-159.5"/>
<text text-anchor="start" x="181" y="-179.9" font-family="Ubuntu Mono" font-size="12.00">eq_ops::calc_g_v::calc</text>
<text text-anchor="middle" x="247.5" y="-166.9" font-family="Ubuntu Mono" font-size="12.00">_g_v_ind</text>
</a>
</g>
</g>
<!-- Node95&#45;&gt;Node97 -->
<g id="edge2" class="edge"><title>Node95&#45;&gt;Node97</title>
<path fill="none" stroke="midnightblue" d="M136.118,-143.448C153.733,-148.722 172.582,-154.366 189.629,-159.471"/>
<polygon fill="midnightblue" stroke="midnightblue" points="137.062,-140.077 126.478,-140.561 135.054,-146.783 137.062,-140.077"/>
</g>
<!-- Node98 -->
<g id="node4" class="node"><title>Node98</title>
<g id="a_node4"><a xlink:href="interfaceeq__ops_1_1calc__g__f.html#a2c6ba8f85bc6ab16e69d4ec2ccaa317a" target="_top" xlink:title="individual version ">
<polygon fill="white" stroke="black" points="173,-106.5 173,-140.5 322,-140.5 322,-106.5 173,-106.5"/>
<text text-anchor="start" x="181" y="-126.9" font-family="Ubuntu Mono" font-size="12.00">eq_ops::calc_g_f::calc</text>
<text text-anchor="middle" x="247.5" y="-113.9" font-family="Ubuntu Mono" font-size="12.00">_g_f_ind</text>
</a>
</g>
</g>
<!-- Node95&#45;&gt;Node98 -->
<g id="edge3" class="edge"><title>Node95&#45;&gt;Node98</title>
<path fill="none" stroke="midnightblue" d="M147.437,-123.5C155.923,-123.5 164.54,-123.5 172.97,-123.5"/>
<polygon fill="midnightblue" stroke="midnightblue" points="147.174,-120 137.174,-123.5 147.174,-127 147.174,-120"/>
</g>
<!-- Node99 -->
<g id="node5" class="node"><title>Node99</title>
<g id="a_node5"><a xlink:href="interfaceeq__ops_1_1calc__jac__v.html#aee94f0bad510a7c93f9ae0d185dc4965" target="_top" xlink:title="individual version ">
<polygon fill="white" stroke="black" points="185,-53.5 185,-87.5 310,-87.5 310,-53.5 185,-53.5"/>
<text text-anchor="start" x="193" y="-73.9" font-family="Ubuntu Mono" font-size="12.00">eq_ops::calc_jac_v</text>
<text text-anchor="middle" x="247.5" y="-60.9" font-family="Ubuntu Mono" font-size="12.00">::calc_jac_v_ind</text>
</a>
</g>
</g>
<!-- Node95&#45;&gt;Node99 -->
<g id="edge4" class="edge"><title>Node95&#45;&gt;Node99</title>
<path fill="none" stroke="midnightblue" d="M136.118,-103.552C153.733,-98.2776 172.582,-92.6336 189.629,-87.5293"/>
<polygon fill="midnightblue" stroke="midnightblue" points="135.054,-100.217 126.478,-106.439 137.062,-106.923 135.054,-100.217"/>
</g>
<!-- Node100 -->
<g id="node6" class="node"><title>Node100</title>
<g id="a_node6"><a xlink:href="interfaceeq__ops_1_1calc__jac__h.html#a1976fc12059af2b0da37445710dbfa68" target="_top" xlink:title="individual version ">
<polygon fill="white" stroke="black" points="185,-0.5 185,-34.5 310,-34.5 310,-0.5 185,-0.5"/>
<text text-anchor="start" x="193" y="-20.9" font-family="Ubuntu Mono" font-size="12.00">eq_ops::calc_jac_h</text>
<text text-anchor="middle" x="247.5" y="-7.9" font-family="Ubuntu Mono" font-size="12.00">::calc_jac_h_ind</text>
</a>
</g>
</g>
<!-- Node95&#45;&gt;Node100 -->
<g id="edge5" class="edge"><title>Node95&#45;&gt;Node100</title>
<path fill="none" stroke="midnightblue" d="M95.8917,-99.7812C115.939,-82.6846 144.785,-59.987 173,-44.5 179.554,-40.9023 186.685,-37.6043 193.842,-34.6432"/>
<polygon fill="midnightblue" stroke="midnightblue" points="93.4037,-97.3056 88.1312,-106.495 97.9837,-102.599 93.4037,-97.3056"/>
</g>
</g>
</svg>
