<?xml version="1.0" encoding="UTF-8" standalone="no"?>
<!DOCTYPE svg PUBLIC "-//W3C//DTD SVG 1.1//EN"
 "http://www.w3.org/Graphics/SVG/1.1/DTD/svg11.dtd">
<!-- Generated by graphviz version 2.38.0 (20140413.2041)
 -->
<!-- Title: x_ops::restore_nm_x Pages: 1 -->
<svg width="425pt" height="30pt"
 viewBox="0.00 0.00 425.00 30.00" xmlns="http://www.w3.org/2000/svg" xmlns:xlink="http://www.w3.org/1999/xlink">
<g id="graph0" class="graph" transform="scale(1 1) rotate(0) translate(4 26)">
<title>x_ops::restore_nm_x</title>
<polygon fill="white" stroke="none" points="-4,4 -4,-26 421,-26 421,4 -4,4"/>
<!-- Node116 -->
<g id="node1" class="node"><title>Node116</title>
<polygon fill="#bfbfbf" stroke="black" points="0,-0.5 0,-21.5 131,-21.5 131,-0.5 0,-0.5"/>
<text text-anchor="middle" x="65.5" y="-7.9" font-family="Ubuntu Mono" font-size="12.00">x_ops::restore_nm_x</text>
</g>
<!-- Node117 -->
<g id="node2" class="node"><title>Node117</title>
<g id="a_node2"><a xlink:href="namespacedriver__sol.html#a4fee58764d695ec5cacf3d70df6281e6" target="_top" xlink:title="Main driver of PB3D solution part. ">
<polygon fill="white" stroke="black" points="167,-0.5 167,-21.5 340,-21.5 340,-0.5 167,-0.5"/>
<text text-anchor="middle" x="253.5" y="-7.9" font-family="Ubuntu Mono" font-size="12.00">driver_sol::run_driver_sol</text>
</a>
</g>
</g>
<!-- Node116&#45;&gt;Node117 -->
<g id="edge1" class="edge"><title>Node116&#45;&gt;Node117</title>
<path fill="none" stroke="midnightblue" d="M141.183,-11C149.607,-11 158.239,-11 166.788,-11"/>
<polygon fill="midnightblue" stroke="midnightblue" points="141.032,-7.5001 131.032,-11 141.032,-14.5001 141.032,-7.5001"/>
</g>
<!-- Node118 -->
<g id="node3" class="node"><title>Node118</title>
<g id="a_node3"><a xlink:href="PB3D_8f90.html#afaee01f014ab3398eecac996b2795fd2" target="_top" xlink:title="Peeling Ballooning in 3D. ">
<polygon fill="white" stroke="black" points="376,-0.5 376,-21.5 417,-21.5 417,-0.5 376,-0.5"/>
<text text-anchor="middle" x="396.5" y="-7.9" font-family="Ubuntu Mono" font-size="12.00">pb3d</text>
</a>
</g>
</g>
<!-- Node117&#45;&gt;Node118 -->
<g id="edge2" class="edge"><title>Node117&#45;&gt;Node118</title>
<path fill="none" stroke="midnightblue" d="M350.337,-11C359.873,-11 368.695,-11 375.964,-11"/>
<polygon fill="midnightblue" stroke="midnightblue" points="350.178,-7.5001 340.178,-11 350.178,-14.5001 350.178,-7.5001"/>
</g>
</g>
</svg>
