<?xml version="1.0" encoding="UTF-8" standalone="no"?>
<!DOCTYPE svg PUBLIC "-//W3C//DTD SVG 1.1//EN"
 "http://www.w3.org/Graphics/SVG/1.1/DTD/svg11.dtd">
<!-- Generated by graphviz version 2.43.0 (0)
 -->
<!-- Title: hdf5_utilities::list_all_vars_in_group Pages: 1 -->
<svg width="502pt" height="110pt"
 viewBox="0.00 0.00 502.00 110.00" xmlns="http://www.w3.org/2000/svg" xmlns:xlink="http://www.w3.org/1999/xlink">
<g id="graph0" class="graph" transform="scale(1 1) rotate(0) translate(4 106)">
<title>hdf5_utilities::list_all_vars_in_group</title>
<polygon fill="white" stroke="transparent" points="-4,4 -4,-106 498,-106 498,4 -4,4"/>
<!-- Node1 -->
<g id="node1" class="node">
<title>Node1</title>
<g id="a_node1"><a xlink:title="Lists all variables in a HDF5 group.">
<polygon fill="#bfbfbf" stroke="black" points="0,-53 0,-87 125,-87 125,-53 0,-53"/>
<text text-anchor="start" x="8" y="-73.4" font-family="Ubuntu Mono" font-size="12.00">hdf5_utilities::list</text>
<text text-anchor="middle" x="62.5" y="-60.4" font-family="Ubuntu Mono" font-size="12.00">_all_vars_in_group</text>
</a>
</g>
</g>
<!-- Node2 -->
<g id="node2" class="node">
<title>Node2</title>
<g id="a_node2"><a xlink:href="namespacestr__utilities.html#a0b97e51770725a3e98ed393d26681414" target="_top" xlink:title="Convert an integer to string.">
<polygon fill="white" stroke="black" points="345.5,-80.5 345.5,-101.5 459.5,-101.5 459.5,-80.5 345.5,-80.5"/>
<text text-anchor="middle" x="402.5" y="-87.9" font-family="Ubuntu Mono" font-size="12.00">str_utilities::i2str</text>
</a>
</g>
</g>
<!-- Node1&#45;&gt;Node2 -->
<g id="edge1" class="edge">
<title>Node1&#45;&gt;Node2</title>
<path fill="none" stroke="midnightblue" d="M125.1,-73.83C184.5,-77.52 274.12,-83.09 335.09,-86.87"/>
<polygon fill="midnightblue" stroke="midnightblue" points="335.18,-90.39 345.37,-87.51 335.61,-83.4 335.18,-90.39"/>
</g>
<!-- Node3 -->
<g id="node3" class="node">
<title>Node3</title>
<g id="a_node3"><a xlink:href="namespacemessages.html#aa4a8d01563e92558e8a0875b075ec54c" target="_top" xlink:title="Write output to file identified by output_i.">
<polygon fill="white" stroke="black" points="161,-40.5 161,-61.5 275,-61.5 275,-40.5 161,-40.5"/>
<text text-anchor="middle" x="218" y="-47.9" font-family="Ubuntu Mono" font-size="12.00">messages::writo</text>
</a>
</g>
</g>
<!-- Node1&#45;&gt;Node3 -->
<g id="edge2" class="edge">
<title>Node1&#45;&gt;Node3</title>
<path fill="none" stroke="midnightblue" d="M125.05,-62.38C133.56,-61.33 142.34,-60.24 150.93,-59.18"/>
<polygon fill="midnightblue" stroke="midnightblue" points="151.41,-62.65 160.9,-57.94 150.55,-55.7 151.41,-62.65"/>
</g>
<!-- Node3&#45;&gt;Node2 -->
<g id="edge5" class="edge">
<title>Node3&#45;&gt;Node2</title>
<path fill="none" stroke="midnightblue" d="M266.95,-61.51C290.43,-66.66 318.9,-72.9 343.59,-78.31"/>
<polygon fill="midnightblue" stroke="midnightblue" points="343.04,-81.77 353.55,-80.49 344.54,-74.93 343.04,-81.77"/>
</g>
<!-- Node4 -->
<g id="node4" class="node">
<title>Node4</title>
<g id="a_node4"><a xlink:href="namespacemessages.html#a61fd0b51b5e37d58fdc993c01792a3fd" target="_top" xlink:title="Returns the time.">
<polygon fill="white" stroke="black" points="332.5,-40.5 332.5,-61.5 472.5,-61.5 472.5,-40.5 332.5,-40.5"/>
<text text-anchor="middle" x="402.5" y="-47.9" font-family="Ubuntu Mono" font-size="12.00">messages::get_clock</text>
</a>
</g>
</g>
<!-- Node3&#45;&gt;Node4 -->
<g id="edge3" class="edge">
<title>Node3&#45;&gt;Node4</title>
<path fill="none" stroke="midnightblue" d="M275.25,-51C290.02,-51 306.24,-51 321.99,-51"/>
<polygon fill="midnightblue" stroke="midnightblue" points="322.25,-54.5 332.25,-51 322.25,-47.5 322.25,-54.5"/>
</g>
<!-- Node5 -->
<g id="node5" class="node">
<title>Node5</title>
<g id="a_node5"><a xlink:href="namespacemessages.html#a82dddaab795b78b3d39e1ff1aab2f665" target="_top" xlink:title="Returns the memory usage in kilobytes.">
<polygon fill="white" stroke="black" points="311,-0.5 311,-21.5 494,-21.5 494,-0.5 311,-0.5"/>
<text text-anchor="middle" x="402.5" y="-7.9" font-family="Ubuntu Mono" font-size="12.00">messages::get_mem_usage</text>
</a>
</g>
</g>
<!-- Node3&#45;&gt;Node5 -->
<g id="edge4" class="edge">
<title>Node3&#45;&gt;Node5</title>
<path fill="none" stroke="midnightblue" d="M266.95,-40.49C290.43,-35.34 318.9,-29.1 343.59,-23.69"/>
<polygon fill="midnightblue" stroke="midnightblue" points="344.54,-27.07 353.55,-21.51 343.04,-20.23 344.54,-27.07"/>
</g>
</g>
</svg>
