<?xml version="1.0" encoding="UTF-8" standalone="no"?>
<!DOCTYPE svg PUBLIC "-//W3C//DTD SVG 1.1//EN"
 "http://www.w3.org/Graphics/SVG/1.1/DTD/svg11.dtd">
<!-- Generated by graphviz version 2.43.0 (0)
 -->
<!-- Title: eq_ops::test_b_f Pages: 1 -->
<svg width="696pt" height="226pt"
 viewBox="0.00 0.00 696.00 226.00" xmlns="http://www.w3.org/2000/svg" xmlns:xlink="http://www.w3.org/1999/xlink">
<g id="graph0" class="graph" transform="scale(1 1) rotate(0) translate(4 222)">
<title>eq_ops::test_b_f</title>
<polygon fill="white" stroke="transparent" points="-4,4 -4,-222 692,-222 692,4 -4,4"/>
<!-- Node1 -->
<g id="node1" class="node">
<title>Node1</title>
<g id="a_node1"><a xlink:title="Tests whether &#160;is calculated correctly.">
<polygon fill="#bfbfbf" stroke="black" points="0,-98.5 0,-119.5 113,-119.5 113,-98.5 0,-98.5"/>
<text text-anchor="middle" x="56.5" y="-105.9" font-family="Ubuntu Mono" font-size="12.00">eq_ops::test_b_f</text>
</a>
</g>
</g>
<!-- Node2 -->
<g id="node2" class="node">
<title>Node2</title>
<g id="a_node2"><a xlink:href="namespacenum__utilities.html#a5ee3fbd1fe67d0deefc7194631389f2a" target="_top" xlink:title="Convert 2&#45;D coordinates (i,j) to the storage convention used in matrices.">
<polygon fill="white" stroke="black" points="181,-196.5 181,-217.5 287,-217.5 287,-196.5 181,-196.5"/>
<text text-anchor="middle" x="234" y="-203.9" font-family="Ubuntu Mono" font-size="12.00">num_utilities::c</text>
</a>
</g>
</g>
<!-- Node1&#45;&gt;Node2 -->
<g id="edge1" class="edge">
<title>Node1&#45;&gt;Node2</title>
<path fill="none" stroke="midnightblue" d="M68.06,-119.74C84.16,-135.53 116.4,-164.97 149,-182 157.51,-186.44 166.92,-190.22 176.28,-193.38"/>
<polygon fill="midnightblue" stroke="midnightblue" points="175.39,-196.76 185.98,-196.45 177.5,-190.09 175.39,-196.76"/>
</g>
<!-- Node3 -->
<g id="node3" class="node">
<title>Node3</title>
<g id="a_node3"><a xlink:href="namespacestr__utilities.html#a0b97e51770725a3e98ed393d26681414" target="_top" xlink:title="Convert an integer to string.">
<polygon fill="white" stroke="black" points="539.5,-157.5 539.5,-178.5 653.5,-178.5 653.5,-157.5 539.5,-157.5"/>
<text text-anchor="middle" x="596.5" y="-164.9" font-family="Ubuntu Mono" font-size="12.00">str_utilities::i2str</text>
</a>
</g>
</g>
<!-- Node1&#45;&gt;Node3 -->
<g id="edge2" class="edge">
<title>Node1&#45;&gt;Node3</title>
<path fill="none" stroke="midnightblue" d="M76.07,-119.57C94.07,-129.21 122.48,-142.87 149,-149 281.15,-179.57 441.05,-177.25 529.16,-172.7"/>
<polygon fill="midnightblue" stroke="midnightblue" points="529.48,-176.19 539.28,-172.15 529.1,-169.2 529.48,-176.19"/>
</g>
<!-- Node4 -->
<g id="node4" class="node">
<title>Node4</title>
<g id="a_node4"><a xlink:href="namespacemessages.html#a6e6bfb084063e4cc91ee86e542043302" target="_top" xlink:title="Increases/decreases lvl of output.">
<polygon fill="white" stroke="black" points="175,-118.5 175,-139.5 293,-139.5 293,-118.5 175,-118.5"/>
<text text-anchor="middle" x="234" y="-125.9" font-family="Ubuntu Mono" font-size="12.00">messages::lvl_ud</text>
</a>
</g>
</g>
<!-- Node1&#45;&gt;Node4 -->
<g id="edge3" class="edge">
<title>Node1&#45;&gt;Node4</title>
<path fill="none" stroke="midnightblue" d="M113.03,-115.33C129.48,-117.2 147.69,-119.28 164.85,-121.23"/>
<polygon fill="midnightblue" stroke="midnightblue" points="164.47,-124.71 174.8,-122.37 165.27,-117.76 164.47,-124.71"/>
</g>
<!-- Node5 -->
<g id="node5" class="node">
<title>Node5</title>
<g id="a_node5"><a xlink:href="namespacemessages.html#aa4a8d01563e92558e8a0875b075ec54c" target="_top" xlink:title="Write output to file identified by output_i.">
<polygon fill="white" stroke="black" points="355,-117.5 355,-138.5 469,-138.5 469,-117.5 355,-117.5"/>
<text text-anchor="middle" x="412" y="-124.9" font-family="Ubuntu Mono" font-size="12.00">messages::writo</text>
</a>
</g>
</g>
<!-- Node1&#45;&gt;Node5 -->
<g id="edge10" class="edge">
<title>Node1&#45;&gt;Node5</title>
<path fill="none" stroke="midnightblue" d="M113.02,-105.74C166.07,-103.39 248.21,-101.77 319,-109 332.06,-110.33 346,-112.71 358.98,-115.33"/>
<polygon fill="midnightblue" stroke="midnightblue" points="358.64,-118.84 369.14,-117.48 360.08,-111.99 358.64,-118.84"/>
</g>
<!-- Node8 -->
<g id="node8" class="node">
<title>Node8</title>
<g id="a_node8"><a xlink:href="namespaceoutput__ops.html#ab0d14194d01ab0534562eab50b37a57a" target="_top" xlink:title="Takes two input vectors and plots these as well as the relative and absolute difference in a HDF5 fil...">
<polygon fill="white" stroke="black" points="149,-40.5 149,-61.5 319,-61.5 319,-40.5 149,-40.5"/>
<text text-anchor="middle" x="234" y="-47.9" font-family="Ubuntu Mono" font-size="12.00">output_ops::plot_diff_hdf5</text>
</a>
</g>
</g>
<!-- Node1&#45;&gt;Node8 -->
<g id="edge8" class="edge">
<title>Node1&#45;&gt;Node8</title>
<path fill="none" stroke="midnightblue" d="M85.39,-98.48C103.44,-91.78 127.5,-83.07 149,-76 160.97,-72.06 173.99,-68.06 186.12,-64.44"/>
<polygon fill="midnightblue" stroke="midnightblue" points="187.46,-67.69 196.06,-61.5 185.48,-60.98 187.46,-67.69"/>
</g>
<!-- Node9 -->
<g id="node9" class="node">
<title>Node9</title>
<g id="a_node9"><a xlink:href="namespacegrid__utilities.html#a67001ff9bbcad707aacf17f90a748d90" target="_top" xlink:title="Trim a grid, removing any overlap between the different regions.">
<polygon fill="white" stroke="black" points="159.5,-0.5 159.5,-21.5 308.5,-21.5 308.5,-0.5 159.5,-0.5"/>
<text text-anchor="middle" x="234" y="-7.9" font-family="Ubuntu Mono" font-size="12.00">grid_utilities::trim_grid</text>
</a>
</g>
</g>
<!-- Node1&#45;&gt;Node9 -->
<g id="edge9" class="edge">
<title>Node1&#45;&gt;Node9</title>
<path fill="none" stroke="midnightblue" d="M66.76,-98.36C82.12,-81.43 114.57,-48.48 149,-31 153.56,-28.68 158.4,-26.63 163.36,-24.81"/>
<polygon fill="midnightblue" stroke="midnightblue" points="164.63,-28.08 173.01,-21.59 162.41,-21.44 164.63,-28.08"/>
</g>
<!-- Node4&#45;&gt;Node5 -->
<g id="edge4" class="edge">
<title>Node4&#45;&gt;Node5</title>
<path fill="none" stroke="midnightblue" d="M293.12,-128.67C309.53,-128.58 327.53,-128.47 344.4,-128.38"/>
<polygon fill="midnightblue" stroke="midnightblue" points="344.76,-131.88 354.74,-128.32 344.72,-124.88 344.76,-131.88"/>
</g>
<!-- Node5&#45;&gt;Node3 -->
<g id="edge7" class="edge">
<title>Node5&#45;&gt;Node3</title>
<path fill="none" stroke="midnightblue" d="M460.95,-138.51C484.43,-143.66 512.9,-149.9 537.59,-155.31"/>
<polygon fill="midnightblue" stroke="midnightblue" points="537.04,-158.77 547.55,-157.49 538.54,-151.93 537.04,-158.77"/>
</g>
<!-- Node6 -->
<g id="node6" class="node">
<title>Node6</title>
<g id="a_node6"><a xlink:href="namespacemessages.html#a61fd0b51b5e37d58fdc993c01792a3fd" target="_top" xlink:title="Returns the time.">
<polygon fill="white" stroke="black" points="526.5,-117.5 526.5,-138.5 666.5,-138.5 666.5,-117.5 526.5,-117.5"/>
<text text-anchor="middle" x="596.5" y="-124.9" font-family="Ubuntu Mono" font-size="12.00">messages::get_clock</text>
</a>
</g>
</g>
<!-- Node5&#45;&gt;Node6 -->
<g id="edge5" class="edge">
<title>Node5&#45;&gt;Node6</title>
<path fill="none" stroke="midnightblue" d="M469.25,-128C484.02,-128 500.24,-128 515.99,-128"/>
<polygon fill="midnightblue" stroke="midnightblue" points="516.25,-131.5 526.25,-128 516.25,-124.5 516.25,-131.5"/>
</g>
<!-- Node7 -->
<g id="node7" class="node">
<title>Node7</title>
<g id="a_node7"><a xlink:href="namespacemessages.html#a82dddaab795b78b3d39e1ff1aab2f665" target="_top" xlink:title="Returns the memory usage in kilobytes.">
<polygon fill="white" stroke="black" points="505,-77.5 505,-98.5 688,-98.5 688,-77.5 505,-77.5"/>
<text text-anchor="middle" x="596.5" y="-84.9" font-family="Ubuntu Mono" font-size="12.00">messages::get_mem_usage</text>
</a>
</g>
</g>
<!-- Node5&#45;&gt;Node7 -->
<g id="edge6" class="edge">
<title>Node5&#45;&gt;Node7</title>
<path fill="none" stroke="midnightblue" d="M460.95,-117.49C484.43,-112.34 512.9,-106.1 537.59,-100.69"/>
<polygon fill="midnightblue" stroke="midnightblue" points="538.54,-104.07 547.55,-98.51 537.04,-97.23 538.54,-104.07"/>
</g>
</g>
</svg>
