<?xml version="1.0" encoding="UTF-8" standalone="no"?>
<!DOCTYPE svg PUBLIC "-//W3C//DTD SVG 1.1//EN"
 "http://www.w3.org/Graphics/SVG/1.1/DTD/svg11.dtd">
<!-- Generated by graphviz version 14.1.2 (20260124.0452)
 -->
<!-- Title: hdf5_utilities::list_all_vars_in_group Pages: 1 -->
<svg width="476pt" height="86pt"
 viewBox="0.00 0.00 476.00 86.00" xmlns="http://www.w3.org/2000/svg" xmlns:xlink="http://www.w3.org/1999/xlink">
<g id="graph0" class="graph" transform="scale(1 1) rotate(0) translate(4 81.75)">
<title>hdf5_utilities::list_all_vars_in_group</title>
<!-- Node1 -->
<g id="Node000001" class="node">
<title>Node1</title>
<g id="a_Node000001"><a xlink:title="Lists all variables in a HDF5 group.">
<polygon fill="#999999" stroke="#666666" points="136,-47.12 0,-47.12 0,-13.62 136,-13.62 136,-47.12"/>
<text xml:space="preserve" text-anchor="start" x="8" y="-31.73" font-family="Ubuntu Mono" font-size="12.00">hdf5_utilities::list</text>
<text xml:space="preserve" text-anchor="middle" x="68" y="-18.98" font-family="Ubuntu Mono" font-size="12.00">_all_vars_in_group</text>
</a>
</g>
</g>
<!-- Node2 -->
<g id="Node000002" class="node">
<title>Node2</title>
<g id="a_Node000002"><a xlink:href="namespacestr__utilities.html#a0b97e51770725a3e98ed393d26681414" target="_top" xlink:title="Convert an integer to string.">
<polygon fill="white" stroke="#666666" points="459,-59.75 323,-59.75 323,-39 459,-39 459,-59.75"/>
<text xml:space="preserve" text-anchor="middle" x="391" y="-44.35" font-family="Ubuntu Mono" font-size="12.00">str_utilities::i2str</text>
</a>
</g>
</g>
<!-- Node1&#45;&gt;Node2 -->
<g id="edge1_Node000001_Node000002" class="edge">
<title>Node1&#45;&gt;Node2</title>
<g id="a_edge1_Node000001_Node000002"><a xlink:title=" ">
<path fill="none" stroke="#63b8ff" d="M136.29,-34.36C187.35,-37.38 257.68,-41.54 311.34,-44.72"/>
<polygon fill="#63b8ff" stroke="#63b8ff" points="310.82,-48.19 321.01,-45.29 311.23,-41.21 310.82,-48.19"/>
</a>
</g>
</g>
<!-- Node3 -->
<g id="Node000003" class="node">
<title>Node3</title>
<g id="a_Node000003"><a xlink:href="namespacemessages.html#aa4a8d01563e92558e8a0875b075ec54c" target="_top" xlink:title="Write output to file identified by output_i.">
<polygon fill="white" stroke="#666666" points="278,-21.75 172,-21.75 172,-1 278,-1 278,-21.75"/>
<text xml:space="preserve" text-anchor="middle" x="225" y="-6.35" font-family="Ubuntu Mono" font-size="12.00">messages::writo</text>
</a>
</g>
</g>
<!-- Node1&#45;&gt;Node3 -->
<g id="edge3_Node000001_Node000003" class="edge">
<title>Node1&#45;&gt;Node3</title>
<g id="a_edge3_Node000001_Node000003"><a xlink:title=" ">
<path fill="none" stroke="#63b8ff" d="M136.08,-22.15C144.2,-21.16 152.48,-20.14 160.54,-19.15"/>
<polygon fill="#63b8ff" stroke="#63b8ff" points="160.76,-22.65 170.26,-17.96 159.91,-15.7 160.76,-22.65"/>
</a>
</g>
</g>
<!-- Node2&#45;&gt;Node2 -->
<g id="edge2_Node000002_Node000002" class="edge">
<title>Node2&#45;&gt;Node2</title>
<g id="a_edge2_Node000002_Node000002"><a xlink:title=" ">
<path fill="none" stroke="#63b8ff" d="M364.25,-60.15C353.55,-68.81 362.47,-77.75 391,-77.75 406.6,-77.75 416.34,-75.08 420.21,-71.24"/>
<polygon fill="#63b8ff" stroke="#63b8ff" points="423.66,-70.63 418.08,-61.62 416.83,-72.15 423.66,-70.63"/>
</a>
</g>
</g>
<!-- Node3&#45;&gt;Node2 -->
<g id="edge5_Node000003_Node000002" class="edge">
<title>Node3&#45;&gt;Node2</title>
<g id="a_edge5_Node000003_Node000002"><a xlink:title=" ">
<path fill="none" stroke="#63b8ff" d="M272.56,-22.16C291.17,-26.47 312.79,-31.49 332.38,-36.02"/>
<polygon fill="#63b8ff" stroke="#63b8ff" points="331.32,-39.37 341.85,-38.22 332.9,-32.55 331.32,-39.37"/>
</a>
</g>
</g>
<!-- Node4 -->
<g id="Node000004" class="node">
<title>Node4</title>
<g id="a_Node000004"><a xlink:href="namespacemessages.html#a82dddaab795b78b3d39e1ff1aab2f665" target="_top" xlink:title="Returns the memory usage in kilobytes.">
<polygon fill="white" stroke="#666666" points="468,-20.75 314,-20.75 314,0 468,0 468,-20.75"/>
<text xml:space="preserve" text-anchor="middle" x="391" y="-5.35" font-family="Ubuntu Mono" font-size="12.00">messages::get_mem_usage</text>
</a>
</g>
</g>
<!-- Node3&#45;&gt;Node4 -->
<g id="edge4_Node000003_Node000004" class="edge">
<title>Node3&#45;&gt;Node4</title>
<g id="a_edge4_Node000003_Node000004"><a xlink:title=" ">
<path fill="none" stroke="#63b8ff" d="M278.34,-11.06C285.99,-11.01 294.03,-10.96 302.15,-10.91"/>
<polygon fill="#63b8ff" stroke="#63b8ff" points="302.16,-14.41 312.14,-10.85 302.11,-7.41 302.16,-14.41"/>
</a>
</g>
</g>
</g>
</svg>
