<?xml version="1.0" encoding="UTF-8" standalone="no"?>
<!DOCTYPE svg PUBLIC "-//W3C//DTD SVG 1.1//EN"
 "http://www.w3.org/Graphics/SVG/1.1/DTD/svg11.dtd">
<!-- Generated by graphviz version 2.38.0 (20140413.2041)
 -->
<!-- Title: num_utilities::calc_aux_utilities Pages: 1 -->
<svg width="437pt" height="43pt"
 viewBox="0.00 0.00 437.00 43.00" xmlns="http://www.w3.org/2000/svg" xmlns:xlink="http://www.w3.org/1999/xlink">
<g id="graph0" class="graph" transform="scale(1 1) rotate(0) translate(4 39)">
<title>num_utilities::calc_aux_utilities</title>
<polygon fill="white" stroke="none" points="-4,4 -4,-39 433,-39 433,4 -4,4"/>
<!-- Node65 -->
<g id="node1" class="node"><title>Node65</title>
<polygon fill="#bfbfbf" stroke="black" points="0,-0.5 0,-34.5 131,-34.5 131,-0.5 0,-0.5"/>
<text text-anchor="start" x="8" y="-20.9" font-family="Ubuntu Mono" font-size="12.00">num_utilities::calc</text>
<text text-anchor="middle" x="65.5" y="-7.9" font-family="Ubuntu Mono" font-size="12.00">_aux_utilities</text>
</g>
<!-- Node66 -->
<g id="node2" class="node"><title>Node66</title>
<g id="a_node2"><a xlink:href="namespacedriver__post.html#a33b3c6f9018a0ddc92dce77394b8ab37" target="_top" xlink:title="The main driver routine for postprocessing. ">
<polygon fill="white" stroke="black" points="167,-7 167,-28 352,-28 352,-7 167,-7"/>
<text text-anchor="middle" x="259.5" y="-14.4" font-family="Ubuntu Mono" font-size="12.00">driver_post::run_driver_post</text>
</a>
</g>
</g>
<!-- Node65&#45;&gt;Node66 -->
<g id="edge1" class="edge"><title>Node65&#45;&gt;Node66</title>
<path fill="none" stroke="midnightblue" d="M141.296,-17.5C149.651,-17.5 158.231,-17.5 166.766,-17.5"/>
<polygon fill="midnightblue" stroke="midnightblue" points="141.235,-14.0001 131.235,-17.5 141.235,-21.0001 141.235,-14.0001"/>
</g>
<!-- Node67 -->
<g id="node3" class="node"><title>Node67</title>
<g id="a_node3"><a xlink:href="POST_8f90.html#ac289b64ac4671fea0b4f2298ba1188a1" target="_top" xlink:title="Peeling Ballooning in 3D: postprocessing. ">
<polygon fill="white" stroke="black" points="388,-7 388,-28 429,-28 429,-7 388,-7"/>
<text text-anchor="middle" x="408.5" y="-14.4" font-family="Ubuntu Mono" font-size="12.00">post</text>
</a>
</g>
</g>
<!-- Node66&#45;&gt;Node67 -->
<g id="edge2" class="edge"><title>Node66&#45;&gt;Node67</title>
<path fill="none" stroke="midnightblue" d="M362.464,-17.5C371.946,-17.5 380.681,-17.5 387.883,-17.5"/>
<polygon fill="midnightblue" stroke="midnightblue" points="362.344,-14.0001 352.344,-17.5 362.344,-21.0001 362.344,-14.0001"/>
</g>
</g>
</svg>
