<?xml version="1.0" encoding="UTF-8" standalone="no"?>
<!DOCTYPE svg PUBLIC "-//W3C//DTD SVG 1.1//EN"
 "http://www.w3.org/Graphics/SVG/1.1/DTD/svg11.dtd">
<!-- Generated by graphviz version 2.43.0 (0)
 -->
<!-- Title: num_utilities::fac Pages: 1 -->
<svg width="1021pt" height="180pt"
 viewBox="0.00 0.00 1021.00 179.50" xmlns="http://www.w3.org/2000/svg" xmlns:xlink="http://www.w3.org/1999/xlink">
<g id="graph0" class="graph" transform="scale(1 1) rotate(0) translate(4 175.5)">
<title>num_utilities::fac</title>
<polygon fill="white" stroke="transparent" points="-4,4 -4,-175.5 1017,-175.5 1017,4 -4,4"/>
<!-- Node1 -->
<g id="node1" class="node">
<title>Node1</title>
<g id="a_node1"><a xlink:title="Calculate factorial.">
<polygon fill="#bfbfbf" stroke="black" points="895,-60 895,-81 1013,-81 1013,-60 895,-60"/>
<text text-anchor="middle" x="954" y="-67.4" font-family="Ubuntu Mono" font-size="12.00">num_utilities::fac</text>
</a>
</g>
</g>
<!-- Node2 -->
<g id="node2" class="node">
<title>Node2</title>
<g id="a_node2"><a xlink:href="namespacenum__utilities.html#a4dffe3beba7165dd17cff19a99a9e2ac" target="_top" xlink:title="Calculate the coefficients for finite differences.">
<polygon fill="white" stroke="black" points="714,-106.5 714,-140.5 837,-140.5 837,-106.5 714,-106.5"/>
<text text-anchor="start" x="722" y="-126.9" font-family="Ubuntu Mono" font-size="12.00">num_utilities::calc</text>
<text text-anchor="middle" x="775.5" y="-113.9" font-family="Ubuntu Mono" font-size="12.00">_coeff_fin_diff</text>
</a>
</g>
</g>
<!-- Node1&#45;&gt;Node2 -->
<g id="edge1" class="edge">
<title>Node1&#45;&gt;Node2</title>
<path fill="none" stroke="midnightblue" d="M907.98,-84.02C885.25,-90.84 857.45,-99.19 833.27,-106.45"/>
<polygon fill="midnightblue" stroke="midnightblue" points="909.14,-87.33 917.71,-81.1 907.12,-80.62 909.14,-87.33"/>
</g>
<!-- Node8 -->
<g id="node8" class="node">
<title>Node8</title>
<g id="a_node8"><a xlink:href="namespacenum__utilities.html#af2e9ffd7ce2f9391bf8b6f1c344fabca" target="_top" xlink:title="Returns the 1D indices for derivatives of a certain order in certain dimensions.">
<polygon fill="white" stroke="black" points="714,-53.5 714,-87.5 837,-87.5 837,-53.5 714,-53.5"/>
<text text-anchor="start" x="722" y="-73.9" font-family="Ubuntu Mono" font-size="12.00">num_utilities::calc</text>
<text text-anchor="middle" x="775.5" y="-60.9" font-family="Ubuntu Mono" font-size="12.00">_derivs_1d_id</text>
</a>
</g>
</g>
<!-- Node1&#45;&gt;Node8 -->
<g id="edge8" class="edge">
<title>Node1&#45;&gt;Node8</title>
<path fill="none" stroke="midnightblue" d="M884.59,-70.5C868.95,-70.5 852.43,-70.5 837.14,-70.5"/>
<polygon fill="midnightblue" stroke="midnightblue" points="884.72,-74 894.72,-70.5 884.72,-67 884.72,-74"/>
</g>
<!-- Node12 -->
<g id="node12" class="node">
<title>Node12</title>
<g id="a_node12"><a xlink:href="interfaceeq__utilities_1_1calc__f__derivs.html#a22e3ecb3617be8bb8012694b6a28848e" target="_top" xlink:title="flux version">
<polygon fill="white" stroke="black" points="692,-0.5 692,-34.5 859,-34.5 859,-0.5 692,-0.5"/>
<text text-anchor="start" x="700" y="-20.9" font-family="Ubuntu Mono" font-size="12.00">eq_utilities::calc</text>
<text text-anchor="middle" x="775.5" y="-7.9" font-family="Ubuntu Mono" font-size="12.00">_f_derivs::calc_f_derivs_1</text>
</a>
</g>
</g>
<!-- Node1&#45;&gt;Node12 -->
<g id="edge12" class="edge">
<title>Node1&#45;&gt;Node12</title>
<path fill="none" stroke="midnightblue" d="M907.98,-56.98C885.25,-50.16 857.45,-41.81 833.27,-34.55"/>
<polygon fill="midnightblue" stroke="midnightblue" points="907.12,-60.38 917.71,-59.9 909.14,-53.67 907.12,-60.38"/>
</g>
<!-- Node3 -->
<g id="node3" class="node">
<title>Node3</title>
<g id="a_node3"><a xlink:href="namespaceslepc__ops.html#a05f8a23335ed47ad1996cddf3bcfdc2e" target="_top" xlink:title="Sets the boundary conditions deep in the plasma (1) and at the edge (2).">
<polygon fill="white" stroke="black" points="520.5,-150 520.5,-171 640.5,-171 640.5,-150 520.5,-150"/>
<text text-anchor="middle" x="580.5" y="-157.4" font-family="Ubuntu Mono" font-size="12.00">slepc_ops::set_bc</text>
</a>
</g>
</g>
<!-- Node2&#45;&gt;Node3 -->
<g id="edge2" class="edge">
<title>Node2&#45;&gt;Node3</title>
<path fill="none" stroke="midnightblue" d="M703.92,-137.03C681.72,-141.29 657.54,-145.92 636.58,-149.94"/>
<polygon fill="midnightblue" stroke="midnightblue" points="704.8,-140.43 713.96,-135.11 703.48,-133.55 704.8,-140.43"/>
</g>
<!-- Node7 -->
<g id="node7" class="node">
<title>Node7</title>
<g id="a_node7"><a xlink:href="namespaceslepc__ops.html#aac8202cb74cbb06013eb73f1fa0c3118" target="_top" xlink:title="Sets up the matrices &#160;and &#160;in the EV problem .">
<polygon fill="white" stroke="black" points="505,-110 505,-131 656,-131 656,-110 505,-110"/>
<text text-anchor="middle" x="580.5" y="-117.4" font-family="Ubuntu Mono" font-size="12.00">slepc_ops::setup_mats</text>
</a>
</g>
</g>
<!-- Node2&#45;&gt;Node7 -->
<g id="edge6" class="edge">
<title>Node2&#45;&gt;Node7</title>
<path fill="none" stroke="midnightblue" d="M703.89,-122.4C688.33,-122.16 671.79,-121.9 656.08,-121.66"/>
<polygon fill="midnightblue" stroke="midnightblue" points="703.91,-125.9 713.96,-122.56 704.02,-118.9 703.91,-125.9"/>
</g>
<!-- Node4 -->
<g id="node4" class="node">
<title>Node4</title>
<g id="a_node4"><a xlink:href="namespaceslepc__ops.html#a79c420987056c225931b51c8d30ece1f" target="_top" xlink:title="Solve the eigenvalue system using SLEPC.">
<polygon fill="white" stroke="black" points="310.5,-123.5 310.5,-157.5 443.5,-157.5 443.5,-123.5 310.5,-123.5"/>
<text text-anchor="start" x="318.5" y="-143.9" font-family="Ubuntu Mono" font-size="12.00">slepc_ops::solve_ev</text>
<text text-anchor="middle" x="377" y="-130.9" font-family="Ubuntu Mono" font-size="12.00">_system_slepc</text>
</a>
</g>
</g>
<!-- Node3&#45;&gt;Node4 -->
<g id="edge3" class="edge">
<title>Node3&#45;&gt;Node4</title>
<path fill="none" stroke="midnightblue" d="M510.35,-153.64C488.8,-151.5 465.11,-149.15 443.8,-147.03"/>
<polygon fill="midnightblue" stroke="midnightblue" points="510.11,-157.13 520.4,-154.63 510.8,-150.16 510.11,-157.13"/>
</g>
<!-- Node5 -->
<g id="node5" class="node">
<title>Node5</title>
<g id="a_node5"><a xlink:href="namespacedriver__sol.html#ad3b1765b3ecc5f82129bfc683ffc6c5c" target="_top" xlink:title="Main driver of PB3D solution part.">
<polygon fill="white" stroke="black" points="83,-130 83,-151 249,-151 249,-130 83,-130"/>
<text text-anchor="middle" x="166" y="-137.4" font-family="Ubuntu Mono" font-size="12.00">driver_sol::run_driver_sol</text>
</a>
</g>
</g>
<!-- Node4&#45;&gt;Node5 -->
<g id="edge4" class="edge">
<title>Node4&#45;&gt;Node5</title>
<path fill="none" stroke="midnightblue" d="M300.28,-140.5C283.7,-140.5 266.08,-140.5 249.26,-140.5"/>
<polygon fill="midnightblue" stroke="midnightblue" points="300.44,-144 310.44,-140.5 300.44,-137 300.44,-144"/>
</g>
<!-- Node6 -->
<g id="node6" class="node">
<title>Node6</title>
<g id="a_node6"><a xlink:href="PB3D_8f90.html#afaee01f014ab3398eecac996b2795fd2" target="_top" xlink:title="Peeling Ballooning in 3D.">
<polygon fill="white" stroke="black" points="0,-130 0,-151 47,-151 47,-130 0,-130"/>
<text text-anchor="middle" x="23.5" y="-137.4" font-family="Ubuntu Mono" font-size="12.00">pb3d</text>
</a>
</g>
</g>
<!-- Node5&#45;&gt;Node6 -->
<g id="edge5" class="edge">
<title>Node5&#45;&gt;Node6</title>
<path fill="none" stroke="midnightblue" d="M72.59,-140.5C63.29,-140.5 54.57,-140.5 47.18,-140.5"/>
<polygon fill="midnightblue" stroke="midnightblue" points="72.86,-144 82.86,-140.5 72.86,-137 72.86,-144"/>
</g>
<!-- Node7&#45;&gt;Node4 -->
<g id="edge7" class="edge">
<title>Node7&#45;&gt;Node4</title>
<path fill="none" stroke="midnightblue" d="M494.78,-128.91C477.7,-130.6 459.98,-132.36 443.67,-133.98"/>
<polygon fill="midnightblue" stroke="midnightblue" points="495.15,-132.39 504.76,-127.92 494.46,-125.42 495.15,-132.39"/>
</g>
<!-- Node9 -->
<g id="node9" class="node">
<title>Node9</title>
<g id="a_node9"><a xlink:href="namespacenum__utilities.html#af461ae4c95a7a45da875dcf311e323f5" target="_top" xlink:title="Initialize utilities for fast future reference, depending on program style.">
<polygon fill="white" stroke="black" points="519,-53.5 519,-87.5 642,-87.5 642,-53.5 519,-53.5"/>
<text text-anchor="start" x="527" y="-73.9" font-family="Ubuntu Mono" font-size="12.00">num_utilities::calc</text>
<text text-anchor="middle" x="580.5" y="-60.9" font-family="Ubuntu Mono" font-size="12.00">_aux_utilities</text>
</a>
</g>
</g>
<!-- Node8&#45;&gt;Node9 -->
<g id="edge9" class="edge">
<title>Node8&#45;&gt;Node9</title>
<path fill="none" stroke="midnightblue" d="M703.86,-70.5C683.62,-70.5 661.74,-70.5 642.15,-70.5"/>
<polygon fill="midnightblue" stroke="midnightblue" points="703.96,-74 713.96,-70.5 703.96,-67 703.96,-74"/>
</g>
<!-- Node10 -->
<g id="node10" class="node">
<title>Node10</title>
<g id="a_node10"><a xlink:href="namespacedriver__post.html#a33b3c6f9018a0ddc92dce77394b8ab37" target="_top" xlink:title="The main driver routine for postprocessing.">
<polygon fill="white" stroke="black" points="285,-60 285,-81 469,-81 469,-60 285,-60"/>
<text text-anchor="middle" x="377" y="-67.4" font-family="Ubuntu Mono" font-size="12.00">driver_post::run_driver_post</text>
</a>
</g>
</g>
<!-- Node9&#45;&gt;Node10 -->
<g id="edge10" class="edge">
<title>Node9&#45;&gt;Node10</title>
<path fill="none" stroke="midnightblue" d="M508.68,-70.5C495.89,-70.5 482.4,-70.5 469.13,-70.5"/>
<polygon fill="midnightblue" stroke="midnightblue" points="508.77,-74 518.77,-70.5 508.77,-67 508.77,-74"/>
</g>
<!-- Node11 -->
<g id="node11" class="node">
<title>Node11</title>
<g id="a_node11"><a xlink:href="POST_8f90.html#ac289b64ac4671fea0b4f2298ba1188a1" target="_top" xlink:title="Peeling Ballooning in 3D: postprocessing.">
<polygon fill="white" stroke="black" points="145,-60 145,-81 187,-81 187,-60 145,-60"/>
<text text-anchor="middle" x="166" y="-67.4" font-family="Ubuntu Mono" font-size="12.00">post</text>
</a>
</g>
</g>
<!-- Node10&#45;&gt;Node11 -->
<g id="edge11" class="edge">
<title>Node10&#45;&gt;Node11</title>
<path fill="none" stroke="midnightblue" d="M274.68,-70.5C241.56,-70.5 208,-70.5 187.35,-70.5"/>
<polygon fill="midnightblue" stroke="midnightblue" points="274.94,-74 284.94,-70.5 274.94,-67 274.94,-74"/>
</g>
</g>
</svg>
