<?xml version="1.0" encoding="UTF-8" standalone="no"?>
<!DOCTYPE svg PUBLIC "-//W3C//DTD SVG 1.1//EN"
 "http://www.w3.org/Graphics/SVG/1.1/DTD/svg11.dtd">
<!-- Generated by graphviz version 2.38.0 (20140413.2041)
 -->
<!-- Title: files_ops::open_output Pages: 1 -->
<svg width="1106pt" height="355pt"
 viewBox="0.00 0.00 1106.00 355.00" xmlns="http://www.w3.org/2000/svg" xmlns:xlink="http://www.w3.org/1999/xlink">
<g id="graph0" class="graph" transform="scale(1 1) rotate(0) translate(4 351)">
<title>files_ops::open_output</title>
<polygon fill="white" stroke="none" points="-4,4 -4,-351 1102,-351 1102,4 -4,4"/>
<!-- Node22 -->
<g id="node1" class="node"><title>Node22</title>
<polygon fill="#bfbfbf" stroke="black" points="0,-226.5 0,-247.5 149,-247.5 149,-226.5 0,-226.5"/>
<text text-anchor="middle" x="74.5" y="-233.9" font-family="Ubuntu Mono" font-size="12.00">files_ops::open_output</text>
</g>
<!-- Node23 -->
<g id="node2" class="node"><title>Node23</title>
<g id="a_node2"><a xlink:href="namespacehdf5__ops.html#a1263636fffc4f4aa86f72bd5fd3352a0" target="_top" xlink:title="Creates an HDF5 output file. ">
<polygon fill="white" stroke="black" points="185,-265.5 185,-286.5 370,-286.5 370,-265.5 185,-265.5"/>
<text text-anchor="middle" x="277.5" y="-272.9" font-family="Ubuntu Mono" font-size="12.00">hdf5_ops::create_output_hdf5</text>
</a>
</g>
</g>
<!-- Node22&#45;&gt;Node23 -->
<g id="edge1" class="edge"><title>Node22&#45;&gt;Node23</title>
<path fill="none" stroke="midnightblue" d="M129.629,-247.503C155.095,-252.444 185.65,-258.372 212.28,-263.539"/>
<polygon fill="midnightblue" stroke="midnightblue" points="211.791,-267.01 222.275,-265.479 213.124,-260.138 211.791,-267.01"/>
</g>
<!-- Node24 -->
<g id="node3" class="node"><title>Node24</title>
<g id="a_node3"><a xlink:href="namespacemessages.html#a6e6bfb084063e4cc91ee86e542043302" target="_top" xlink:title="Increases/decreases lvl of output. ">
<polygon fill="white" stroke="black" points="415,-228.5 415,-249.5 528,-249.5 528,-228.5 415,-228.5"/>
<text text-anchor="middle" x="471.5" y="-235.9" font-family="Ubuntu Mono" font-size="12.00">messages::lvl_ud</text>
</a>
</g>
</g>
<!-- Node22&#45;&gt;Node24 -->
<g id="edge26" class="edge"><title>Node22&#45;&gt;Node24</title>
<path fill="none" stroke="midnightblue" d="M149.333,-237.374C222.759,-237.746 334.344,-238.311 404.787,-238.667"/>
<polygon fill="midnightblue" stroke="midnightblue" points="404.854,-242.168 414.872,-238.718 404.89,-235.168 404.854,-242.168"/>
</g>
<!-- Node25 -->
<g id="node4" class="node"><title>Node25</title>
<g id="a_node4"><a xlink:href="namespacemessages.html#aa4a8d01563e92558e8a0875b075ec54c" target="_top" xlink:title="Write output to file identified by output_i. ">
<polygon fill="white" stroke="black" points="597,-305.5 597,-326.5 704,-326.5 704,-305.5 597,-305.5"/>
<text text-anchor="middle" x="650.5" y="-312.9" font-family="Ubuntu Mono" font-size="12.00">messages::writo</text>
</a>
</g>
</g>
<!-- Node22&#45;&gt;Node25 -->
<g id="edge25" class="edge"><title>Node22&#45;&gt;Node25</title>
<path fill="none" stroke="midnightblue" d="M90.1615,-247.729C110.342,-261.809 148.357,-285.913 185,-296 324.378,-334.367 496.083,-328.84 586.666,-322.057"/>
<polygon fill="midnightblue" stroke="midnightblue" points="587.074,-325.536 596.771,-321.269 586.53,-318.557 587.074,-325.536"/>
</g>
<!-- Node28 -->
<g id="node7" class="node"><title>Node28</title>
<g id="a_node7"><a xlink:href="namespacehdf5__utilities.html#ae4e6c96512460a0ede8dc5b1a43681e8" target="_top" xlink:title="Probe HDF5 file for group existence. ">
<polygon fill="white" stroke="black" points="206,-174 206,-208 349,-208 349,-174 206,-174"/>
<text text-anchor="start" x="214" y="-194.4" font-family="Ubuntu Mono" font-size="12.00">hdf5_utilities::probe</text>
<text text-anchor="middle" x="277.5" y="-181.4" font-family="Ubuntu Mono" font-size="12.00">_hdf5_group</text>
</a>
</g>
</g>
<!-- Node22&#45;&gt;Node28 -->
<g id="edge7" class="edge"><title>Node22&#45;&gt;Node28</title>
<path fill="none" stroke="midnightblue" d="M121.613,-226.447C143.612,-221.412 170.586,-215.239 195.824,-209.463"/>
<polygon fill="midnightblue" stroke="midnightblue" points="196.799,-212.831 205.766,-207.188 195.238,-206.007 196.799,-212.831"/>
</g>
<!-- Node32 -->
<g id="node11" class="node"><title>Node32</title>
<g id="a_node11"><a xlink:href="namespacestr__utilities.html#a0b97e51770725a3e98ed393d26681414" target="_top" xlink:title="Convert an integer to string. ">
<polygon fill="white" stroke="black" points="958,-24.5 958,-45.5 1095,-45.5 1095,-24.5 958,-24.5"/>
<text text-anchor="middle" x="1026.5" y="-31.9" font-family="Ubuntu Mono" font-size="12.00">str_utilities::i2str</text>
</a>
</g>
</g>
<!-- Node22&#45;&gt;Node32 -->
<g id="edge27" class="edge"><title>Node22&#45;&gt;Node32</title>
<path fill="none" stroke="midnightblue" d="M84.6084,-226.201C124.794,-179.837 292.16,-0 470.5,-0 470.5,-0 470.5,-0 651.5,-0 754.114,-0 871.879,-13.2226 947.403,-23.4134"/>
<polygon fill="midnightblue" stroke="midnightblue" points="947.392,-26.9443 957.773,-24.8295 948.339,-20.0086 947.392,-26.9443"/>
</g>
<!-- Node23&#45;&gt;Node24 -->
<g id="edge2" class="edge"><title>Node23&#45;&gt;Node24</title>
<path fill="none" stroke="midnightblue" d="M333.006,-265.496C355.706,-261.122 382.239,-256.009 405.908,-251.447"/>
<polygon fill="midnightblue" stroke="midnightblue" points="406.701,-254.859 415.858,-249.53 405.376,-247.986 406.701,-254.859"/>
</g>
<!-- Node23&#45;&gt;Node25 -->
<g id="edge6" class="edge"><title>Node23&#45;&gt;Node25</title>
<path fill="none" stroke="midnightblue" d="M370.076,-284.681C419.538,-289.503 481.645,-295.773 537,-302 553.197,-303.822 570.687,-305.93 586.939,-307.949"/>
<polygon fill="midnightblue" stroke="midnightblue" points="586.519,-311.424 596.876,-309.191 587.387,-304.478 586.519,-311.424"/>
</g>
<!-- Node24&#45;&gt;Node25 -->
<g id="edge3" class="edge"><title>Node24&#45;&gt;Node25</title>
<path fill="none" stroke="midnightblue" d="M504.778,-249.534C515.328,-253.491 526.919,-258.406 537,-264 554.488,-273.705 555.257,-281.77 573,-291 581.193,-295.262 590.254,-298.989 599.19,-302.175"/>
<polygon fill="midnightblue" stroke="midnightblue" points="598.195,-305.533 608.79,-305.418 600.436,-298.901 598.195,-305.533"/>
</g>
<!-- Node26 -->
<g id="node5" class="node"><title>Node26</title>
<g id="a_node5"><a xlink:href="namespacemessages.html#a82dddaab795b78b3d39e1ff1aab2f665" target="_top" xlink:title="Returns the memory usage in kilobytes. ">
<polygon fill="white" stroke="black" points="764,-285.5 764,-306.5 919,-306.5 919,-285.5 764,-285.5"/>
<text text-anchor="middle" x="841.5" y="-292.9" font-family="Ubuntu Mono" font-size="12.00">messages::get_mem_usage</text>
</a>
</g>
</g>
<!-- Node25&#45;&gt;Node26 -->
<g id="edge4" class="edge"><title>Node25&#45;&gt;Node26</title>
<path fill="none" stroke="midnightblue" d="M704.147,-310.429C719.434,-308.811 736.551,-307 753.356,-305.222"/>
<polygon fill="midnightblue" stroke="midnightblue" points="754.184,-308.654 763.761,-304.121 753.448,-301.692 754.184,-308.654"/>
</g>
<!-- Node27 -->
<g id="node6" class="node"><title>Node27</title>
<g id="a_node6"><a xlink:href="namespacemessages.html#a61fd0b51b5e37d58fdc993c01792a3fd" target="_top" xlink:title="Returns the time. ">
<polygon fill="white" stroke="black" points="776,-325.5 776,-346.5 907,-346.5 907,-325.5 776,-325.5"/>
<text text-anchor="middle" x="841.5" y="-332.9" font-family="Ubuntu Mono" font-size="12.00">messages::get_clock</text>
</a>
</g>
</g>
<!-- Node25&#45;&gt;Node27 -->
<g id="edge5" class="edge"><title>Node25&#45;&gt;Node27</title>
<path fill="none" stroke="midnightblue" d="M704.147,-321.571C723.202,-323.587 745.102,-325.905 765.695,-328.084"/>
<polygon fill="midnightblue" stroke="midnightblue" points="765.369,-331.569 775.682,-329.141 766.106,-324.608 765.369,-331.569"/>
</g>
<!-- Node29 -->
<g id="node8" class="node"><title>Node29</title>
<g id="a_node8"><a xlink:href="namespacempi__utilities.html#a5a789d05be41d6109c01f46cc98620c8" target="_top" xlink:title="Request access to lock of a BL (blocking) or optionally a NB (non&#45;blocking) type. ...">
<polygon fill="white" stroke="black" points="406,-120 406,-154 537,-154 537,-120 406,-120"/>
<text text-anchor="start" x="414" y="-140.4" font-family="Ubuntu Mono" font-size="12.00">mpi_utilities::lock</text>
<text text-anchor="middle" x="471.5" y="-127.4" font-family="Ubuntu Mono" font-size="12.00">_req_acc</text>
</a>
</g>
</g>
<!-- Node28&#45;&gt;Node29 -->
<g id="edge8" class="edge"><title>Node28&#45;&gt;Node29</title>
<path fill="none" stroke="midnightblue" d="M338.986,-173.988C358.446,-168.515 380.171,-162.405 400.269,-156.752"/>
<polygon fill="midnightblue" stroke="midnightblue" points="401.309,-160.096 409.988,-154.019 399.414,-153.357 401.309,-160.096"/>
</g>
<!-- Node38 -->
<g id="node17" class="node"><title>Node38</title>
<g id="a_node17"><a xlink:href="namespacempi__utilities.html#a86f9982a0f92b51a916f832d9a3d8ba9" target="_top" xlink:title="Returns access to a lock. ">
<polygon fill="white" stroke="black" points="406,-174 406,-208 537,-208 537,-174 406,-174"/>
<text text-anchor="start" x="414" y="-194.4" font-family="Ubuntu Mono" font-size="12.00">mpi_utilities::lock</text>
<text text-anchor="middle" x="471.5" y="-181.4" font-family="Ubuntu Mono" font-size="12.00">_return_acc</text>
</a>
</g>
</g>
<!-- Node28&#45;&gt;Node38 -->
<g id="edge20" class="edge"><title>Node28&#45;&gt;Node38</title>
<path fill="none" stroke="midnightblue" d="M349.176,-191C364.205,-191 380.127,-191 395.318,-191"/>
<polygon fill="midnightblue" stroke="midnightblue" points="395.698,-194.5 405.698,-191 395.698,-187.5 395.698,-194.5"/>
</g>
<!-- Node30 -->
<g id="node9" class="node"><title>Node30</title>
<g id="a_node9"><a xlink:href="namespacempi__utilities.html#abe5bf3ae3b6a06eda18c2f4d62ac09c5" target="_top" xlink:title="Returns the header for lock debug messages. ">
<polygon fill="white" stroke="black" points="776,-93 776,-127 907,-127 907,-93 776,-93"/>
<text text-anchor="start" x="784" y="-113.4" font-family="Ubuntu Mono" font-size="12.00">mpi_utilities::lock</text>
<text text-anchor="middle" x="841.5" y="-100.4" font-family="Ubuntu Mono" font-size="12.00">_header</text>
</a>
</g>
</g>
<!-- Node29&#45;&gt;Node30 -->
<g id="edge9" class="edge"><title>Node29&#45;&gt;Node30</title>
<path fill="none" stroke="midnightblue" d="M487.105,-119.869C505.019,-100.314 537.421,-69.4319 573,-57 638.033,-34.2764 660.774,-41.9573 728,-57 754.916,-63.0227 782.984,-76.2328 804.351,-87.9571"/>
<polygon fill="midnightblue" stroke="midnightblue" points="802.644,-91.0124 813.075,-92.8655 806.076,-84.9117 802.644,-91.0124"/>
</g>
<!-- Node33 -->
<g id="node12" class="node"><title>Node33</title>
<g id="a_node12"><a xlink:href="namespacempi__utilities.html#a3b0349e5ec825e14083e3126c3e7ba65" target="_top" xlink:title="Adds, removes or sets to active a rank from the waiting list for a lock and returns the lock waiting ...">
<polygon fill="white" stroke="black" points="585,-214 585,-248 716,-248 716,-214 585,-214"/>
<text text-anchor="start" x="593" y="-234.4" font-family="Ubuntu Mono" font-size="12.00">mpi_utilities::lock</text>
<text text-anchor="middle" x="650.5" y="-221.4" font-family="Ubuntu Mono" font-size="12.00">_wl_change</text>
</a>
</g>
</g>
<!-- Node29&#45;&gt;Node33 -->
<g id="edge12" class="edge"><title>Node29&#45;&gt;Node33</title>
<path fill="none" stroke="midnightblue" d="M520.291,-154.151C526.134,-157.063 531.852,-160.347 537,-164 556.505,-177.843 553.108,-190.72 573,-204 575.899,-205.935 578.953,-207.749 582.104,-209.446"/>
<polygon fill="midnightblue" stroke="midnightblue" points="580.678,-212.645 591.195,-213.926 583.772,-206.366 580.678,-212.645"/>
</g>
<!-- Node35 -->
<g id="node14" class="node"><title>Node35</title>
<g id="a_node14"><a xlink:href="namespacempi__utilities.html#a74e2e82b561f403ca8087c3925f76e29" target="_top" xlink:title="Decides whether a waiting list is empty. ">
<polygon fill="white" stroke="black" points="573,-173.5 573,-194.5 728,-194.5 728,-173.5 573,-173.5"/>
<text text-anchor="middle" x="650.5" y="-180.9" font-family="Ubuntu Mono" font-size="12.00">mpi_utilities::wl_empty</text>
</a>
</g>
</g>
<!-- Node29&#45;&gt;Node35 -->
<g id="edge15" class="edge"><title>Node29&#45;&gt;Node35</title>
<path fill="none" stroke="midnightblue" d="M536.651,-154.035C557.461,-159.56 580.218,-165.603 599.81,-170.806"/>
<polygon fill="midnightblue" stroke="midnightblue" points="599.177,-174.259 609.74,-173.442 600.973,-167.493 599.177,-174.259"/>
</g>
<!-- Node36 -->
<g id="node15" class="node"><title>Node36</title>
<g id="a_node15"><a xlink:href="namespacempi__utilities.html#a263a30c79639d97f5faffdb566b5a811" target="_top" xlink:title="Notifies a rank that they can get the lock. ">
<polygon fill="white" stroke="black" points="585,-120 585,-154 716,-154 716,-120 585,-120"/>
<text text-anchor="start" x="593" y="-140.4" font-family="Ubuntu Mono" font-size="12.00">mpi_utilities::lock</text>
<text text-anchor="middle" x="650.5" y="-127.4" font-family="Ubuntu Mono" font-size="12.00">_notify</text>
</a>
</g>
</g>
<!-- Node29&#45;&gt;Node36 -->
<g id="edge16" class="edge"><title>Node29&#45;&gt;Node36</title>
<path fill="none" stroke="midnightblue" d="M537.152,-137C549.265,-137 562.022,-137 574.42,-137"/>
<polygon fill="midnightblue" stroke="midnightblue" points="574.727,-140.5 584.727,-137 574.727,-133.5 574.727,-140.5"/>
</g>
<!-- Node37 -->
<g id="node16" class="node"><title>Node37</title>
<g id="a_node16"><a xlink:href="namespacempi__utilities.html#a17c39b0498528e2532c8347b0b7dec86" target="_top" xlink:title="Get notified that the rank can get the lock. ">
<polygon fill="white" stroke="black" points="585,-67 585,-101 716,-101 716,-67 585,-67"/>
<text text-anchor="start" x="593" y="-87.4" font-family="Ubuntu Mono" font-size="12.00">mpi_utilities::lock</text>
<text text-anchor="middle" x="650.5" y="-74.4" font-family="Ubuntu Mono" font-size="12.00">_get_notified</text>
</a>
</g>
</g>
<!-- Node29&#45;&gt;Node37 -->
<g id="edge18" class="edge"><title>Node29&#45;&gt;Node37</title>
<path fill="none" stroke="midnightblue" d="M529.478,-119.939C546.532,-114.832 565.382,-109.188 582.992,-103.915"/>
<polygon fill="midnightblue" stroke="midnightblue" points="584.053,-107.251 592.629,-101.029 582.045,-100.545 584.053,-107.251"/>
</g>
<!-- Node31 -->
<g id="node10" class="node"><title>Node31</title>
<g id="a_node10"><a xlink:href="namespacestr__utilities.html#acb8c4e66aead51f178e47fdea8d7a7db" target="_top" xlink:title="Convert an integer to string. ">
<polygon fill="white" stroke="black" points="955,-99.5 955,-120.5 1098,-120.5 1098,-99.5 955,-99.5"/>
<text text-anchor="middle" x="1026.5" y="-106.9" font-family="Ubuntu Mono" font-size="12.00">str_utilities::ii2str</text>
</a>
</g>
</g>
<!-- Node30&#45;&gt;Node31 -->
<g id="edge10" class="edge"><title>Node30&#45;&gt;Node31</title>
<path fill="none" stroke="midnightblue" d="M907.019,-110C919.199,-110 932.079,-110 944.685,-110"/>
<polygon fill="midnightblue" stroke="midnightblue" points="944.717,-113.5 954.717,-110 944.717,-106.5 944.717,-113.5"/>
</g>
<!-- Node30&#45;&gt;Node32 -->
<g id="edge11" class="edge"><title>Node30&#45;&gt;Node32</title>
<path fill="none" stroke="midnightblue" d="M884.026,-92.9813C916.093,-79.8389 959.974,-61.8549 990.324,-49.4164"/>
<polygon fill="midnightblue" stroke="midnightblue" points="991.744,-52.6168 999.67,-45.586 989.09,-46.1397 991.744,-52.6168"/>
</g>
<!-- Node33&#45;&gt;Node30 -->
<g id="edge13" class="edge"><title>Node33&#45;&gt;Node30</title>
<path fill="none" stroke="midnightblue" d="M707.285,-213.961C714.434,-211.016 721.513,-207.694 728,-204 761.683,-184.818 795.105,-155.191 816.656,-134.335"/>
<polygon fill="midnightblue" stroke="midnightblue" points="819.356,-136.589 824.037,-127.084 814.45,-131.596 819.356,-136.589"/>
</g>
<!-- Node34 -->
<g id="node13" class="node"><title>Node34</title>
<g id="a_node13"><a xlink:href="namespacestr__utilities.html#ac778d706b2e021672618939ab58fdd32" target="_top" xlink:title="Convert a real (double) to string. ">
<polygon fill="white" stroke="black" points="770,-220.5 770,-241.5 913,-241.5 913,-220.5 770,-220.5"/>
<text text-anchor="middle" x="841.5" y="-227.9" font-family="Ubuntu Mono" font-size="12.00">str_utilities::r2strt</text>
</a>
</g>
</g>
<!-- Node33&#45;&gt;Node34 -->
<g id="edge14" class="edge"><title>Node33&#45;&gt;Node34</title>
<path fill="none" stroke="midnightblue" d="M716.014,-231C730.09,-231 745.156,-231 759.772,-231"/>
<polygon fill="midnightblue" stroke="midnightblue" points="759.802,-234.5 769.802,-231 759.802,-227.5 759.802,-234.5"/>
</g>
<!-- Node36&#45;&gt;Node30 -->
<g id="edge17" class="edge"><title>Node36&#45;&gt;Node30</title>
<path fill="none" stroke="midnightblue" d="M716.014,-127.784C732.043,-125.494 749.356,-123.021 765.828,-120.667"/>
<polygon fill="midnightblue" stroke="midnightblue" points="766.551,-124.1 775.956,-119.221 765.561,-117.17 766.551,-124.1"/>
</g>
<!-- Node37&#45;&gt;Node30 -->
<g id="edge19" class="edge"><title>Node37&#45;&gt;Node30</title>
<path fill="none" stroke="midnightblue" d="M716.014,-92.875C732.043,-95.08 749.356,-97.4617 765.828,-99.7276"/>
<polygon fill="midnightblue" stroke="midnightblue" points="765.572,-103.225 775.956,-101.121 766.526,-96.2906 765.572,-103.225"/>
</g>
<!-- Node38&#45;&gt;Node30 -->
<g id="edge21" class="edge"><title>Node38&#45;&gt;Node30</title>
<path fill="none" stroke="midnightblue" d="M518.16,-208.05C524.718,-211.28 531.201,-214.938 537,-219 556.055,-232.346 551.629,-247.808 573,-257 636.283,-284.22 666.235,-287.508 728,-257 729.697,-256.162 789.898,-176.847 821.521,-135.087"/>
<polygon fill="midnightblue" stroke="midnightblue" points="824.376,-137.114 827.621,-127.029 818.795,-132.889 824.376,-137.114"/>
</g>
<!-- Node38&#45;&gt;Node33 -->
<g id="edge22" class="edge"><title>Node38&#45;&gt;Node33</title>
<path fill="none" stroke="midnightblue" d="M537.152,-205.611C549.386,-208.375 562.277,-211.289 574.791,-214.117"/>
<polygon fill="midnightblue" stroke="midnightblue" points="574.201,-217.571 584.727,-216.362 575.744,-210.744 574.201,-217.571"/>
</g>
<!-- Node38&#45;&gt;Node35 -->
<g id="edge23" class="edge"><title>Node38&#45;&gt;Node35</title>
<path fill="none" stroke="midnightblue" d="M537.152,-188.443C545.457,-188.115 554.064,-187.774 562.651,-187.435"/>
<polygon fill="midnightblue" stroke="midnightblue" points="562.848,-190.93 572.702,-187.037 562.572,-183.935 562.848,-190.93"/>
</g>
<!-- Node38&#45;&gt;Node36 -->
<g id="edge24" class="edge"><title>Node38&#45;&gt;Node36</title>
<path fill="none" stroke="midnightblue" d="M528.504,-173.914C546.103,-168.545 565.694,-162.568 583.897,-157.015"/>
<polygon fill="midnightblue" stroke="midnightblue" points="585.013,-160.333 593.557,-154.067 582.971,-153.638 585.013,-160.333"/>
</g>
</g>
</svg>
