<?xml version="1.0" encoding="UTF-8" standalone="no"?>
<!DOCTYPE svg PUBLIC "-//W3C//DTD SVG 1.1//EN"
 "http://www.w3.org/Graphics/SVG/1.1/DTD/svg11.dtd">
<!-- Generated by graphviz version 2.38.0 (20140413.2041)
 -->
<!-- Title: grid_ops::calc_norm_range Pages: 1 -->
<svg width="634pt" height="238pt"
 viewBox="0.00 0.00 634.00 238.00" xmlns="http://www.w3.org/2000/svg" xmlns:xlink="http://www.w3.org/1999/xlink">
<g id="graph0" class="graph" transform="scale(1 1) rotate(0) translate(4 234)">
<title>grid_ops::calc_norm_range</title>
<polygon fill="white" stroke="none" points="-4,4 -4,-234 630,-234 630,4 -4,4"/>
<!-- Node31 -->
<g id="node1" class="node"><title>Node31</title>
<polygon fill="#bfbfbf" stroke="black" points="0,-94 0,-128 131,-128 131,-94 0,-94"/>
<text text-anchor="start" x="8" y="-114.4" font-family="Ubuntu Mono" font-size="12.00">grid_ops::calc_norm</text>
<text text-anchor="middle" x="65.5" y="-101.4" font-family="Ubuntu Mono" font-size="12.00">_range</text>
</g>
<!-- Node32 -->
<g id="node2" class="node"><title>Node32</title>
<g id="a_node2"><a xlink:href="namespacedriver__eq.html#adc9d5dff288fa512e5ef885627d940cc" target="_top" xlink:title="Main driver of PB3D equilibrium part. ">
<polygon fill="white" stroke="black" points="382,-123.5 382,-144.5 543,-144.5 543,-123.5 382,-123.5"/>
<text text-anchor="middle" x="462.5" y="-130.9" font-family="Ubuntu Mono" font-size="12.00">driver_eq::run_driver_eq</text>
</a>
</g>
</g>
<!-- Node31&#45;&gt;Node32 -->
<g id="edge1" class="edge"><title>Node31&#45;&gt;Node32</title>
<path fill="none" stroke="midnightblue" d="M101.695,-133.057C120.343,-143.45 144.081,-154.711 167,-160 258.023,-181.008 368.472,-159.004 424.72,-144.528"/>
<polygon fill="midnightblue" stroke="midnightblue" points="103.392,-129.995 92.9759,-128.054 99.9079,-136.067 103.392,-129.995"/>
</g>
<!-- Node34 -->
<g id="node4" class="node"><title>Node34</title>
<g id="a_node4"><a xlink:href="namespacedriver__post.html#af527706d4e696d4e507443d2f74194ef" target="_top" xlink:title="Initializes the POST driver. ">
<polygon fill="white" stroke="black" points="179,-208.5 179,-229.5 328,-229.5 328,-208.5 179,-208.5"/>
<text text-anchor="middle" x="253.5" y="-215.9" font-family="Ubuntu Mono" font-size="12.00">driver_post::init_post</text>
</a>
</g>
</g>
<!-- Node31&#45;&gt;Node34 -->
<g id="edge3" class="edge"><title>Node31&#45;&gt;Node34</title>
<path fill="none" stroke="midnightblue" d="M90.0915,-135.272C109.265,-153.741 137.829,-178.538 167,-194 178.341,-200.011 191.316,-204.753 203.673,-208.416"/>
<polygon fill="midnightblue" stroke="midnightblue" points="92.312,-132.547 82.724,-128.039 87.4081,-137.543 92.312,-132.547"/>
</g>
<!-- Node36 -->
<g id="node6" class="node"><title>Node36</title>
<g id="a_node6"><a xlink:href="namespacedriver__sol.html#ad3b1765b3ecc5f82129bfc683ffc6c5c" target="_top" xlink:title="Main driver of PB3D solution part. ">
<polygon fill="white" stroke="black" points="376,-79.5 376,-100.5 549,-100.5 549,-79.5 376,-79.5"/>
<text text-anchor="middle" x="462.5" y="-86.9" font-family="Ubuntu Mono" font-size="12.00">driver_sol::run_driver_sol</text>
</a>
</g>
</g>
<!-- Node31&#45;&gt;Node36 -->
<g id="edge5" class="edge"><title>Node31&#45;&gt;Node36</title>
<path fill="none" stroke="midnightblue" d="M141.324,-107.022C208.161,-103.469 306.032,-98.2654 375.952,-94.5481"/>
<polygon fill="midnightblue" stroke="midnightblue" points="141.084,-103.53 131.284,-107.556 141.456,-110.52 141.084,-103.53"/>
</g>
<!-- Node37 -->
<g id="node7" class="node"><title>Node37</title>
<g id="a_node7"><a xlink:href="namespacedriver__x.html#ada3d72a0929daaa5e3da585246d62281" target="_top" xlink:title="Main driver of PB3D perturbation part. ">
<polygon fill="white" stroke="black" points="388,-39.5 388,-60.5 537,-60.5 537,-39.5 388,-39.5"/>
<text text-anchor="middle" x="462.5" y="-46.9" font-family="Ubuntu Mono" font-size="12.00">driver_x::run_driver_x</text>
</a>
</g>
</g>
<!-- Node31&#45;&gt;Node37 -->
<g id="edge7" class="edge"><title>Node31&#45;&gt;Node37</title>
<path fill="none" stroke="midnightblue" d="M140.921,-97.394C149.704,-95.8702 158.547,-94.3738 167,-93 242.1,-80.7952 328.241,-68.4042 387.874,-60.0791"/>
<polygon fill="midnightblue" stroke="midnightblue" points="140.3,-93.9494 131.053,-99.121 141.506,-100.845 140.3,-93.9494"/>
</g>
<!-- Node38 -->
<g id="node8" class="node"><title>Node38</title>
<g id="a_node8"><a xlink:href="namespacegrid__ops.html#ab10ef5b486ee3861df2da4e53bc22630" target="_top" xlink:title="Redistribute a grid to match the normal distribution of solution grid. ">
<polygon fill="white" stroke="black" points="179,-117 179,-151 328,-151 328,-117 179,-117"/>
<text text-anchor="start" x="187" y="-137.4" font-family="Ubuntu Mono" font-size="12.00">grid_ops::redistribute</text>
<text text-anchor="middle" x="253.5" y="-124.4" font-family="Ubuntu Mono" font-size="12.00">_output_grid</text>
</a>
</g>
</g>
<!-- Node31&#45;&gt;Node38 -->
<g id="edge9" class="edge"><title>Node31&#45;&gt;Node38</title>
<path fill="none" stroke="midnightblue" d="M141.299,-120.249C153.672,-121.779 166.492,-123.365 178.837,-124.891"/>
<polygon fill="midnightblue" stroke="midnightblue" points="141.386,-116.733 131.032,-118.98 140.527,-123.681 141.386,-116.733"/>
</g>
<!-- Node39 -->
<g id="node9" class="node"><title>Node39</title>
<g id="a_node9"><a xlink:href="namespaceinput__ops.html#a6a1237ee3005ebd6f4978e7092ab2dc5" target="_top" xlink:title="Print input quantities to an output file. ">
<polygon fill="white" stroke="black" points="167,-0.5 167,-21.5 340,-21.5 340,-0.5 167,-0.5"/>
<text text-anchor="middle" x="253.5" y="-7.9" font-family="Ubuntu Mono" font-size="12.00">input_ops::print_output_in</text>
</a>
</g>
</g>
<!-- Node31&#45;&gt;Node39 -->
<g id="edge12" class="edge"><title>Node31&#45;&gt;Node39</title>
<path fill="none" stroke="midnightblue" d="M92.9049,-87.1396C112.227,-70.762 139.727,-49.6073 167,-36 178.901,-30.0622 192.455,-25.2925 205.209,-21.5762"/>
<polygon fill="midnightblue" stroke="midnightblue" points="90.4349,-84.648 85.1493,-93.8302 95.0074,-89.9483 90.4349,-84.648"/>
</g>
<!-- Node33 -->
<g id="node3" class="node"><title>Node33</title>
<g id="a_node3"><a xlink:href="PB3D_8f90.html#afaee01f014ab3398eecac996b2795fd2" target="_top" xlink:title="Peeling Ballooning in 3D. ">
<polygon fill="white" stroke="black" points="585,-59.5 585,-80.5 626,-80.5 626,-59.5 585,-59.5"/>
<text text-anchor="middle" x="605.5" y="-66.9" font-family="Ubuntu Mono" font-size="12.00">pb3d</text>
</a>
</g>
</g>
<!-- Node32&#45;&gt;Node33 -->
<g id="edge2" class="edge"><title>Node32&#45;&gt;Node33</title>
<path fill="none" stroke="midnightblue" d="M522.358,-120.431C531.476,-117.493 540.636,-114.031 549,-110 565.263,-102.162 581.78,-89.5304 592.515,-80.5604"/>
<polygon fill="midnightblue" stroke="midnightblue" points="521.072,-117.164 512.519,-123.416 523.104,-123.862 521.072,-117.164"/>
</g>
<!-- Node35 -->
<g id="node5" class="node"><title>Node35</title>
<g id="a_node5"><a xlink:href="POST_8f90.html#ac289b64ac4671fea0b4f2298ba1188a1" target="_top" xlink:title="Peeling Ballooning in 3D: postprocessing. ">
<polygon fill="white" stroke="black" points="442,-208.5 442,-229.5 483,-229.5 483,-208.5 442,-208.5"/>
<text text-anchor="middle" x="462.5" y="-215.9" font-family="Ubuntu Mono" font-size="12.00">post</text>
</a>
</g>
</g>
<!-- Node34&#45;&gt;Node35 -->
<g id="edge4" class="edge"><title>Node34&#45;&gt;Node35</title>
<path fill="none" stroke="midnightblue" d="M338.135,-219C376.091,-219 417.75,-219 441.646,-219"/>
<polygon fill="midnightblue" stroke="midnightblue" points="338.063,-215.5 328.063,-219 338.063,-222.5 338.063,-215.5"/>
</g>
<!-- Node36&#45;&gt;Node33 -->
<g id="edge6" class="edge"><title>Node36&#45;&gt;Node33</title>
<path fill="none" stroke="midnightblue" d="M547.835,-78.0376C561.597,-76.0855 574.627,-74.2373 584.715,-72.8064"/>
<polygon fill="midnightblue" stroke="midnightblue" points="547.126,-74.6031 537.716,-79.4729 548.109,-81.5337 547.126,-74.6031"/>
</g>
<!-- Node37&#45;&gt;Node33 -->
<g id="edge8" class="edge"><title>Node37&#45;&gt;Node33</title>
<path fill="none" stroke="midnightblue" d="M547.546,-61.9215C561.48,-63.8979 574.68,-65.7702 584.857,-67.2138"/>
<polygon fill="midnightblue" stroke="midnightblue" points="547.696,-58.4077 537.304,-60.4686 546.713,-65.3384 547.696,-58.4077"/>
</g>
<!-- Node38&#45;&gt;Node32 -->
<g id="edge10" class="edge"><title>Node38&#45;&gt;Node32</title>
<path fill="none" stroke="midnightblue" d="M338.402,-134C352.75,-134 367.619,-134 381.852,-134"/>
<polygon fill="midnightblue" stroke="midnightblue" points="338.063,-130.5 328.063,-134 338.063,-137.5 338.063,-130.5"/>
</g>
<!-- Node38&#45;&gt;Node36 -->
<g id="edge11" class="edge"><title>Node38&#45;&gt;Node36</title>
<path fill="none" stroke="midnightblue" d="M337.943,-116.263C363.003,-110.936 389.695,-105.263 411.834,-100.557"/>
<polygon fill="midnightblue" stroke="midnightblue" points="337.117,-112.861 328.063,-118.363 338.573,-119.708 337.117,-112.861"/>
</g>
<!-- Node39&#45;&gt;Node33 -->
<g id="edge13" class="edge"><title>Node39&#45;&gt;Node33</title>
<path fill="none" stroke="midnightblue" d="M350.217,-3.97678C409.183,-2.83269 485.405,-7.18433 549,-30 566.44,-36.2568 583.234,-49.7417 593.694,-59.322"/>
<polygon fill="midnightblue" stroke="midnightblue" points="350.072,-0.479222 340.163,-4.22801 350.247,-7.47704 350.072,-0.479222"/>
</g>
</g>
</svg>
