<?xml version="1.0" encoding="UTF-8" standalone="no"?>
<!DOCTYPE svg PUBLIC "-//W3C//DTD SVG 1.1//EN"
 "http://www.w3.org/Graphics/SVG/1.1/DTD/svg11.dtd">
<!-- Generated by graphviz version 14.1.2 (20260124.0452)
 -->
<!-- Title: grid_ops::print_output_grid Pages: 1 -->
<svg width="518pt" height="107pt"
 viewBox="0.00 0.00 518.00 107.00" xmlns="http://www.w3.org/2000/svg" xmlns:xlink="http://www.w3.org/1999/xlink">
<g id="graph0" class="graph" transform="scale(1 1) rotate(0) translate(4 102.75)">
<title>grid_ops::print_output_grid</title>
<!-- Node1 -->
<g id="Node000001" class="node">
<title>Node1</title>
<g id="a_Node000001"><a xlink:title="Print grid variables to an output file.">
<polygon fill="#999999" stroke="#666666" points="510,-59.75 332,-59.75 332,-39 510,-39 510,-59.75"/>
<text xml:space="preserve" text-anchor="middle" x="421" y="-44.35" font-family="Ubuntu Mono" font-size="12.00">grid_ops::print_output_grid</text>
</a>
</g>
</g>
<!-- Node2 -->
<g id="Node000002" class="node">
<title>Node2</title>
<g id="a_Node000002"><a xlink:href="namespacedriver__eq.html#a40d652e15887ad4f788a3945e6253571" target="_top" xlink:title="Main driver of PB3D equilibrium part.">
<polygon fill="white" stroke="#666666" points="290,-98.75 130,-98.75 130,-78 290,-78 290,-98.75"/>
<text xml:space="preserve" text-anchor="middle" x="210" y="-83.35" font-family="Ubuntu Mono" font-size="12.00">driver_eq::run_driver_eq</text>
</a>
</g>
</g>
<!-- Node1&#45;&gt;Node2 -->
<g id="edge1_Node000001_Node000002" class="edge">
<title>Node1&#45;&gt;Node2</title>
<g id="a_edge1_Node000001_Node000002"><a xlink:title=" ">
<path fill="none" stroke="#63b8ff" d="M350.7,-62.31C324.31,-67.23 294.53,-72.79 269.27,-77.5"/>
<polygon fill="#63b8ff" stroke="#63b8ff" points="351.11,-65.79 360.29,-60.52 349.82,-58.91 351.11,-65.79"/>
</a>
</g>
</g>
<!-- Node4 -->
<g id="Node000004" class="node">
<title>Node4</title>
<g id="a_Node000004"><a xlink:href="namespacedriver__sol.html#a8dad197124fcba9c120e568f8f1b85c6" target="_top" xlink:title="Main driver of PB3D solution part.">
<polygon fill="white" stroke="#666666" points="296,-59.75 124,-59.75 124,-39 296,-39 296,-59.75"/>
<text xml:space="preserve" text-anchor="middle" x="210" y="-44.35" font-family="Ubuntu Mono" font-size="12.00">driver_sol::run_driver_sol</text>
</a>
</g>
</g>
<!-- Node1&#45;&gt;Node4 -->
<g id="edge3_Node000001_Node000004" class="edge">
<title>Node1&#45;&gt;Node4</title>
<g id="a_edge3_Node000001_Node000004"><a xlink:title=" ">
<path fill="none" stroke="#63b8ff" d="M320.36,-49.38C312.33,-49.38 304.27,-49.38 296.35,-49.38"/>
<polygon fill="#63b8ff" stroke="#63b8ff" points="320.15,-52.88 330.15,-49.38 320.15,-45.88 320.15,-52.88"/>
</a>
</g>
</g>
<!-- Node5 -->
<g id="Node000005" class="node">
<title>Node5</title>
<g id="a_Node000005"><a xlink:href="namespacedriver__x.html#a0dafd879836a65efc2ec726d04368532" target="_top" xlink:title="Main driver of PB3D perturbation part.">
<polygon fill="white" stroke="#666666" points="284,-20.75 136,-20.75 136,0 284,0 284,-20.75"/>
<text xml:space="preserve" text-anchor="middle" x="210" y="-5.35" font-family="Ubuntu Mono" font-size="12.00">driver_x::run_driver_x</text>
</a>
</g>
</g>
<!-- Node1&#45;&gt;Node5 -->
<g id="edge5_Node000001_Node000005" class="edge">
<title>Node1&#45;&gt;Node5</title>
<g id="a_edge5_Node000001_Node000005"><a xlink:title=" ">
<path fill="none" stroke="#63b8ff" d="M350.7,-36.44C324.31,-31.52 294.53,-25.96 269.27,-21.25"/>
<polygon fill="#63b8ff" stroke="#63b8ff" points="349.82,-39.84 360.29,-38.23 351.11,-32.96 349.82,-39.84"/>
</a>
</g>
</g>
<!-- Node3 -->
<g id="Node000003" class="node">
<title>Node3</title>
<g id="a_Node000003"><a xlink:href="PB3D_8f90.html#a36e5b0ce05c9783f58b43c4463b290a1" target="_top" xlink:title="Peeling Ballooning in 3D.">
<polygon fill="white" stroke="#666666" points="88,-59.75 0,-59.75 0,-39 88,-39 88,-59.75"/>
<text xml:space="preserve" text-anchor="middle" x="44" y="-44.35" font-family="Ubuntu Mono" font-size="12.00">__pb3d_f90__</text>
</a>
</g>
</g>
<!-- Node2&#45;&gt;Node3 -->
<g id="edge2_Node000002_Node000003" class="edge">
<title>Node2&#45;&gt;Node3</title>
<g id="a_edge2_Node000002_Node000003"><a xlink:title=" ">
<path fill="none" stroke="#63b8ff" d="M151.58,-74.9C142.35,-72.73 132.91,-70.5 124,-68.38 112.47,-65.63 100,-62.64 88.45,-59.87"/>
<polygon fill="#63b8ff" stroke="#63b8ff" points="150.66,-78.28 161.2,-77.17 152.27,-71.47 150.66,-78.28"/>
</a>
</g>
</g>
<!-- Node4&#45;&gt;Node3 -->
<g id="edge4_Node000004_Node000003" class="edge">
<title>Node4&#45;&gt;Node3</title>
<g id="a_edge4_Node000004_Node000003"><a xlink:title=" ">
<path fill="none" stroke="#63b8ff" d="M112.17,-49.38C103.84,-49.38 95.71,-49.38 88.16,-49.38"/>
<polygon fill="#63b8ff" stroke="#63b8ff" points="112.12,-52.88 122.12,-49.38 112.12,-45.88 112.12,-52.88"/>
</a>
</g>
</g>
<!-- Node5&#45;&gt;Node3 -->
<g id="edge6_Node000005_Node000003" class="edge">
<title>Node5&#45;&gt;Node3</title>
<g id="a_edge6_Node000005_Node000003"><a xlink:title=" ">
<path fill="none" stroke="#63b8ff" d="M151.58,-23.85C142.35,-26.02 132.91,-28.25 124,-30.38 112.47,-33.12 100,-36.11 88.45,-38.88"/>
<polygon fill="#63b8ff" stroke="#63b8ff" points="152.27,-27.28 161.2,-21.58 150.66,-20.47 152.27,-27.28"/>
</a>
</g>
</g>
</g>
</svg>
