<?xml version="1.0" encoding="UTF-8" standalone="no"?>
<!DOCTYPE svg PUBLIC "-//W3C//DTD SVG 1.1//EN"
 "http://www.w3.org/Graphics/SVG/1.1/DTD/svg11.dtd">
<!-- Generated by graphviz version 2.38.0 (20140413.2041)
 -->
<!-- Title: hdf5_ops::print_hdf5_3d_data_item Pages: 1 -->
<svg width="616pt" height="104pt"
 viewBox="0.00 0.00 616.00 103.50" xmlns="http://www.w3.org/2000/svg" xmlns:xlink="http://www.w3.org/1999/xlink">
<g id="graph0" class="graph" transform="scale(1 1) rotate(0) translate(4 99.5)">
<title>hdf5_ops::print_hdf5_3d_data_item</title>
<polygon fill="white" stroke="none" points="-4,4 -4,-99.5 612,-99.5 612,4 -4,4"/>
<!-- Node45 -->
<g id="node1" class="node"><title>Node45</title>
<polygon fill="#bfbfbf" stroke="black" points="0,-23.5 0,-57.5 137,-57.5 137,-23.5 0,-23.5"/>
<text text-anchor="start" x="8" y="-43.9" font-family="Ubuntu Mono" font-size="12.00">hdf5_ops::print_hdf5</text>
<text text-anchor="middle" x="68.5" y="-30.9" font-family="Ubuntu Mono" font-size="12.00">_3d_data_item</text>
</g>
<!-- Node46 -->
<g id="node2" class="node"><title>Node46</title>
<g id="a_node2"><a xlink:href="namespacegrid__ops.html#addd76b7b3be0b51e0863ae0cdfef41e6" target="_top" xlink:title="Plots the grid in real 3&#45;D space. ">
<polygon fill="white" stroke="black" points="173,-54 173,-75 334,-75 334,-54 173,-54"/>
<text text-anchor="middle" x="253.5" y="-61.4" font-family="Ubuntu Mono" font-size="12.00">grid_ops::magn_grid_plot</text>
</a>
</g>
</g>
<!-- Node45&#45;&gt;Node46 -->
<g id="edge1" class="edge"><title>Node45&#45;&gt;Node46</title>
<path fill="none" stroke="midnightblue" d="M147.306,-50.7041C155.736,-51.8096 164.324,-52.936 172.776,-54.0444"/>
<polygon fill="midnightblue" stroke="midnightblue" points="147.493,-47.1987 137.123,-49.3685 146.582,-54.1392 147.493,-47.1987"/>
</g>
<!-- Node51 -->
<g id="node7" class="node"><title>Node51</title>
<g id="a_node7"><a xlink:href="interfaceoutput__ops_1_1plot__hdf5.html#aabeeacb6f9aab1fb21d226e6a315e3d1" target="_top" xlink:title="array version ">
<polygon fill="white" stroke="black" points="182,-0.5 182,-34.5 325,-34.5 325,-0.5 182,-0.5"/>
<text text-anchor="start" x="190" y="-20.9" font-family="Ubuntu Mono" font-size="12.00">output_ops::plot_hdf5</text>
<text text-anchor="middle" x="253.5" y="-7.9" font-family="Ubuntu Mono" font-size="12.00">::plot_hdf5_arr</text>
</a>
</g>
</g>
<!-- Node45&#45;&gt;Node51 -->
<g id="edge6" class="edge"><title>Node45&#45;&gt;Node51</title>
<path fill="none" stroke="midnightblue" d="M147.133,-30.7428C158.634,-29.2974 170.434,-27.8143 181.783,-26.3879"/>
<polygon fill="midnightblue" stroke="midnightblue" points="146.608,-27.2812 137.123,-32.001 147.481,-34.2266 146.608,-27.2812"/>
</g>
<!-- Node47 -->
<g id="node3" class="node"><title>Node47</title>
<g id="a_node3"><a xlink:href="namespacedriver__eq.html#adc9d5dff288fa512e5ef885627d940cc" target="_top" xlink:title="Main driver of PB3D equilibrium part. ">
<polygon fill="white" stroke="black" points="370,-74 370,-95 531,-95 531,-74 370,-74"/>
<text text-anchor="middle" x="450.5" y="-81.4" font-family="Ubuntu Mono" font-size="12.00">driver_eq::run_driver_eq</text>
</a>
</g>
</g>
<!-- Node46&#45;&gt;Node47 -->
<g id="edge2" class="edge"><title>Node46&#45;&gt;Node47</title>
<path fill="none" stroke="midnightblue" d="M344.117,-73.6915C352.7,-74.5718 361.365,-75.4605 369.843,-76.3301"/>
<polygon fill="midnightblue" stroke="midnightblue" points="344.4,-70.2023 334.095,-72.6636 343.686,-77.1657 344.4,-70.2023"/>
</g>
<!-- Node49 -->
<g id="node5" class="node"><title>Node49</title>
<g id="a_node5"><a xlink:href="namespacedriver__post.html#af527706d4e696d4e507443d2f74194ef" target="_top" xlink:title="Initializes the POST driver. ">
<polygon fill="white" stroke="black" points="376,-34 376,-55 525,-55 525,-34 376,-34"/>
<text text-anchor="middle" x="450.5" y="-41.4" font-family="Ubuntu Mono" font-size="12.00">driver_post::init_post</text>
</a>
</g>
</g>
<!-- Node46&#45;&gt;Node49 -->
<g id="edge4" class="edge"><title>Node46&#45;&gt;Node49</title>
<path fill="none" stroke="midnightblue" d="M344.189,-55.3011C354.775,-54.2154 365.483,-53.1171 375.812,-52.0577"/>
<polygon fill="midnightblue" stroke="midnightblue" points="343.686,-51.8343 334.095,-56.3364 344.4,-58.7977 343.686,-51.8343"/>
</g>
<!-- Node48 -->
<g id="node4" class="node"><title>Node48</title>
<g id="a_node4"><a xlink:href="PB3D_8f90.html#afaee01f014ab3398eecac996b2795fd2" target="_top" xlink:title="Peeling Ballooning in 3D. ">
<polygon fill="white" stroke="black" points="567,-74 567,-95 608,-95 608,-74 567,-74"/>
<text text-anchor="middle" x="587.5" y="-81.4" font-family="Ubuntu Mono" font-size="12.00">pb3d</text>
</a>
</g>
</g>
<!-- Node47&#45;&gt;Node48 -->
<g id="edge3" class="edge"><title>Node47&#45;&gt;Node48</title>
<path fill="none" stroke="midnightblue" d="M541.278,-84.5C550.755,-84.5 559.571,-84.5 566.856,-84.5"/>
<polygon fill="midnightblue" stroke="midnightblue" points="541.201,-81.0001 531.201,-84.5 541.201,-88.0001 541.201,-81.0001"/>
</g>
<!-- Node50 -->
<g id="node6" class="node"><title>Node50</title>
<g id="a_node6"><a xlink:href="POST_8f90.html#ac289b64ac4671fea0b4f2298ba1188a1" target="_top" xlink:title="Peeling Ballooning in 3D: postprocessing. ">
<polygon fill="white" stroke="black" points="567,-34 567,-55 608,-55 608,-34 567,-34"/>
<text text-anchor="middle" x="587.5" y="-41.4" font-family="Ubuntu Mono" font-size="12.00">post</text>
</a>
</g>
</g>
<!-- Node49&#45;&gt;Node50 -->
<g id="edge5" class="edge"><title>Node49&#45;&gt;Node50</title>
<path fill="none" stroke="midnightblue" d="M535.322,-44.5C547.072,-44.5 558.121,-44.5 566.924,-44.5"/>
<polygon fill="midnightblue" stroke="midnightblue" points="535.32,-41.0001 525.32,-44.5 535.32,-48.0001 535.32,-41.0001"/>
</g>
</g>
</svg>
