<?xml version="1.0" encoding="UTF-8" standalone="no"?>
<!DOCTYPE svg PUBLIC "-//W3C//DTD SVG 1.1//EN"
 "http://www.w3.org/Graphics/SVG/1.1/DTD/svg11.dtd">
<!-- Generated by graphviz version 2.38.0 (20140413.2041)
 -->
<!-- Title: grid_ops::magn_grid_plot Pages: 1 -->
<svg width="443pt" height="70pt"
 viewBox="0.00 0.00 443.00 70.00" xmlns="http://www.w3.org/2000/svg" xmlns:xlink="http://www.w3.org/1999/xlink">
<g id="graph0" class="graph" transform="scale(1 1) rotate(0) translate(4 66)">
<title>grid_ops::magn_grid_plot</title>
<polygon fill="white" stroke="none" points="-4,4 -4,-66 439,-66 439,4 -4,4"/>
<!-- Node59 -->
<g id="node1" class="node"><title>Node59</title>
<polygon fill="#bfbfbf" stroke="black" points="0,-20.5 0,-41.5 161,-41.5 161,-20.5 0,-20.5"/>
<text text-anchor="middle" x="80.5" y="-27.9" font-family="Ubuntu Mono" font-size="12.00">grid_ops::magn_grid_plot</text>
</g>
<!-- Node60 -->
<g id="node2" class="node"><title>Node60</title>
<g id="a_node2"><a xlink:href="namespacedriver__eq.html#ac8eca434f541966edc3556d72f261eff" target="_top" xlink:title="driver_eq::run_driver_eq">
<polygon fill="white" stroke="black" points="197,-40.5 197,-61.5 358,-61.5 358,-40.5 197,-40.5"/>
<text text-anchor="middle" x="277.5" y="-47.9" font-family="Ubuntu Mono" font-size="12.00">driver_eq::run_driver_eq</text>
</a>
</g>
</g>
<!-- Node59&#45;&gt;Node60 -->
<g id="edge1" class="edge"><title>Node59&#45;&gt;Node60</title>
<path fill="none" stroke="midnightblue" d="M171.117,-40.1915C179.7,-41.0718 188.365,-41.9605 196.843,-42.8301"/>
<polygon fill="midnightblue" stroke="midnightblue" points="171.4,-36.7023 161.095,-39.1636 170.686,-43.6657 171.4,-36.7023"/>
</g>
<!-- Node62 -->
<g id="node4" class="node"><title>Node62</title>
<g id="a_node4"><a xlink:href="namespacedriver__post.html#af527706d4e696d4e507443d2f74194ef" target="_top" xlink:title="driver_post::init_post">
<polygon fill="white" stroke="black" points="203,-0.5 203,-21.5 352,-21.5 352,-0.5 203,-0.5"/>
<text text-anchor="middle" x="277.5" y="-7.9" font-family="Ubuntu Mono" font-size="12.00">driver_post::init_post</text>
</a>
</g>
</g>
<!-- Node59&#45;&gt;Node62 -->
<g id="edge3" class="edge"><title>Node59&#45;&gt;Node62</title>
<path fill="none" stroke="midnightblue" d="M171.189,-21.8011C181.775,-20.7154 192.483,-19.6171 202.812,-18.5577"/>
<polygon fill="midnightblue" stroke="midnightblue" points="170.686,-18.3343 161.095,-22.8364 171.4,-25.2977 170.686,-18.3343"/>
</g>
<!-- Node61 -->
<g id="node3" class="node"><title>Node61</title>
<g id="a_node3"><a xlink:href="PB3D_8f90.html#afaee01f014ab3398eecac996b2795fd2" target="_top" xlink:title="pb3d">
<polygon fill="white" stroke="black" points="394,-40.5 394,-61.5 435,-61.5 435,-40.5 394,-40.5"/>
<text text-anchor="middle" x="414.5" y="-47.9" font-family="Ubuntu Mono" font-size="12.00">pb3d</text>
</a>
</g>
</g>
<!-- Node60&#45;&gt;Node61 -->
<g id="edge2" class="edge"><title>Node60&#45;&gt;Node61</title>
<path fill="none" stroke="midnightblue" d="M368.278,-51C377.755,-51 386.571,-51 393.856,-51"/>
<polygon fill="midnightblue" stroke="midnightblue" points="368.201,-47.5001 358.201,-51 368.201,-54.5001 368.201,-47.5001"/>
</g>
<!-- Node63 -->
<g id="node5" class="node"><title>Node63</title>
<g id="a_node5"><a xlink:href="POST_8f90.html#ac289b64ac4671fea0b4f2298ba1188a1" target="_top" xlink:title="post">
<polygon fill="white" stroke="black" points="394,-0.5 394,-21.5 435,-21.5 435,-0.5 394,-0.5"/>
<text text-anchor="middle" x="414.5" y="-7.9" font-family="Ubuntu Mono" font-size="12.00">post</text>
</a>
</g>
</g>
<!-- Node62&#45;&gt;Node63 -->
<g id="edge4" class="edge"><title>Node62&#45;&gt;Node63</title>
<path fill="none" stroke="midnightblue" d="M362.322,-11C374.072,-11 385.121,-11 393.924,-11"/>
<polygon fill="midnightblue" stroke="midnightblue" points="362.32,-7.5001 352.32,-11 362.32,-14.5001 362.32,-7.5001"/>
</g>
</g>
</svg>
