<?xml version="1.0" encoding="UTF-8" standalone="no"?>
<!DOCTYPE svg PUBLIC "-//W3C//DTD SVG 1.1//EN"
 "http://www.w3.org/Graphics/SVG/1.1/DTD/svg11.dtd">
<!-- Generated by graphviz version 2.38.0 (20140413.2041)
 -->
<!-- Title: x_ops::calc_res_surf Pages: 1 -->
<svg width="718pt" height="212pt"
 viewBox="0.00 0.00 718.00 211.66" xmlns="http://www.w3.org/2000/svg" xmlns:xlink="http://www.w3.org/1999/xlink">
<g id="graph0" class="graph" transform="scale(1 1) rotate(0) translate(4 207.66)">
<title>x_ops::calc_res_surf</title>
<polygon fill="white" stroke="none" points="-4,4 -4,-207.66 714,-207.66 714,4 -4,4"/>
<!-- Node21 -->
<g id="node1" class="node"><title>Node21</title>
<polygon fill="#bfbfbf" stroke="black" points="0,-86.5439 0,-107.544 137,-107.544 137,-86.5439 0,-86.5439"/>
<text text-anchor="middle" x="68.5" y="-93.9439" font-family="Ubuntu Mono" font-size="12.00">x_ops::calc_res_surf</text>
</g>
<!-- Node22 -->
<g id="node2" class="node"><title>Node22</title>
<g id="a_node2"><a xlink:href="namespacenum__ops.html#adcc4eacf15c931744316a004f4448b90" target="_top" xlink:title="Finds the zero of a function using Zhang&#39;s method, which is simpler than Brent&#39;s method. ">
<polygon fill="white" stroke="black" points="194,-104.044 194,-138.044 319,-138.044 319,-104.044 194,-104.044"/>
<text text-anchor="start" x="202" y="-124.444" font-family="Ubuntu Mono" font-size="12.00">num_ops::calc_zero</text>
<text text-anchor="middle" x="256.5" y="-111.444" font-family="Ubuntu Mono" font-size="12.00">_zhang</text>
</a>
</g>
</g>
<!-- Node21&#45;&gt;Node22 -->
<g id="edge1" class="edge"><title>Node21&#45;&gt;Node22</title>
<path fill="none" stroke="midnightblue" d="M137.176,-105.776C152.343,-107.733 168.483,-109.816 183.807,-111.793"/>
<polygon fill="midnightblue" stroke="midnightblue" points="183.375,-115.266 193.74,-113.075 184.27,-108.324 183.375,-115.266"/>
</g>
<!-- Node23 -->
<g id="node3" class="node"><title>Node23</title>
<g id="a_node3"><a xlink:href="namespacemessages.html#aa4a8d01563e92558e8a0875b075ec54c" target="_top" xlink:title="Write output to file identified by output_i. ">
<polygon fill="white" stroke="black" points="394,-157.544 394,-178.544 501,-178.544 501,-157.544 394,-157.544"/>
<text text-anchor="middle" x="447.5" y="-164.944" font-family="Ubuntu Mono" font-size="12.00">messages::writo</text>
</a>
</g>
</g>
<!-- Node21&#45;&gt;Node23 -->
<g id="edge8" class="edge"><title>Node21&#45;&gt;Node23</title>
<path fill="none" stroke="midnightblue" d="M77.1293,-107.589C92.5248,-127.851 129.568,-171.666 173,-188.044 251.213,-217.538 350.788,-197.169 405.636,-181.459"/>
<polygon fill="midnightblue" stroke="midnightblue" points="406.742,-184.782 415.341,-178.593 404.759,-178.069 406.742,-184.782"/>
</g>
<!-- Node26 -->
<g id="node6" class="node"><title>Node26</title>
<g id="a_node6"><a xlink:href="namespacestr__utilities.html#a92ac6c0af1979df094de1caddd28ade0" target="_top" xlink:title="Convert a real (double) to string. ">
<polygon fill="white" stroke="black" points="379,-27.5439 379,-48.5439 516,-48.5439 516,-27.5439 379,-27.5439"/>
<text text-anchor="middle" x="447.5" y="-34.9439" font-family="Ubuntu Mono" font-size="12.00">str_utilities::r2str</text>
</a>
</g>
</g>
<!-- Node21&#45;&gt;Node26 -->
<g id="edge12" class="edge"><title>Node21&#45;&gt;Node26</title>
<path fill="none" stroke="midnightblue" d="M78.1019,-86.5296C94.3097,-67.6535 131.496,-28.6303 173,-14.0439 252.376,13.8522 352.319,-8.13087 406.729,-24.4714"/>
<polygon fill="midnightblue" stroke="midnightblue" points="405.756,-27.834 416.344,-27.4436 407.824,-21.1462 405.756,-27.834"/>
</g>
<!-- Node28 -->
<g id="node8" class="node"><title>Node28</title>
<g id="a_node8"><a xlink:href="namespacegrid__utilities.html#a67001ff9bbcad707aacf17f90a748d90" target="_top" xlink:title="Trim a grid, removing any overlap between the different regions. ">
<polygon fill="white" stroke="black" points="173,-63.5439 173,-84.5439 340,-84.5439 340,-63.5439 173,-63.5439"/>
<text text-anchor="middle" x="256.5" y="-70.9439" font-family="Ubuntu Mono" font-size="12.00">grid_utilities::trim_grid</text>
</a>
</g>
</g>
<!-- Node21&#45;&gt;Node28 -->
<g id="edge7" class="edge"><title>Node21&#45;&gt;Node28</title>
<path fill="none" stroke="midnightblue" d="M137.176,-88.6753C145.538,-87.6414 154.195,-86.5709 162.849,-85.5008"/>
<polygon fill="midnightblue" stroke="midnightblue" points="163.492,-88.948 172.987,-84.2472 162.633,-82.0009 163.492,-88.948"/>
</g>
<!-- Node29 -->
<g id="node9" class="node"><title>Node29</title>
<g id="a_node9"><a xlink:href="namespacestr__utilities.html#a0b97e51770725a3e98ed393d26681414" target="_top" xlink:title="Convert an integer to string. ">
<polygon fill="white" stroke="black" points="188,-23.5439 188,-44.5439 325,-44.5439 325,-23.5439 188,-23.5439"/>
<text text-anchor="middle" x="256.5" y="-30.9439" font-family="Ubuntu Mono" font-size="12.00">str_utilities::i2str</text>
</a>
</g>
</g>
<!-- Node21&#45;&gt;Node29 -->
<g id="edge9" class="edge"><title>Node21&#45;&gt;Node29</title>
<path fill="none" stroke="midnightblue" d="M92.1339,-86.4369C112.848,-77.0207 144.517,-63.3504 173,-54.0439 180.486,-51.598 188.442,-49.3017 196.344,-47.1993"/>
<polygon fill="midnightblue" stroke="midnightblue" points="197.473,-50.5229 206.287,-44.643 195.73,-43.7433 197.473,-50.5229"/>
</g>
<!-- Node30 -->
<g id="node10" class="node"><title>Node30</title>
<g id="a_node10"><a xlink:href="namespacemessages.html#a6e6bfb084063e4cc91ee86e542043302" target="_top" xlink:title="Increases/decreases lvl of output. ">
<polygon fill="white" stroke="black" points="200,-157.544 200,-178.544 313,-178.544 313,-157.544 200,-157.544"/>
<text text-anchor="middle" x="256.5" y="-164.944" font-family="Ubuntu Mono" font-size="12.00">messages::lvl_ud</text>
</a>
</g>
</g>
<!-- Node21&#45;&gt;Node30 -->
<g id="edge10" class="edge"><title>Node21&#45;&gt;Node30</title>
<path fill="none" stroke="midnightblue" d="M88.0273,-107.731C108.325,-119.065 142.115,-136.846 173,-148.044 179.858,-150.531 187.149,-152.803 194.448,-154.852"/>
<polygon fill="midnightblue" stroke="midnightblue" points="193.802,-158.302 204.367,-157.506 195.612,-151.54 193.802,-158.302"/>
</g>
<!-- Node22&#45;&gt;Node23 -->
<g id="edge2" class="edge"><title>Node22&#45;&gt;Node23</title>
<path fill="none" stroke="midnightblue" d="M319.124,-136.368C343.334,-142.389 370.832,-149.227 394.068,-155.005"/>
<polygon fill="midnightblue" stroke="midnightblue" points="393.529,-158.478 404.078,-157.495 395.219,-151.685 393.529,-158.478"/>
</g>
<!-- Node22&#45;&gt;Node26 -->
<g id="edge5" class="edge"><title>Node22&#45;&gt;Node26</title>
<path fill="none" stroke="midnightblue" d="M313.884,-103.993C322.716,-100.921 331.672,-97.5667 340,-94.0439 367.988,-82.2046 398.557,-65.7377 419.737,-53.7256"/>
<polygon fill="midnightblue" stroke="midnightblue" points="421.546,-56.7226 428.484,-48.7149 418.067,-50.6487 421.546,-56.7226"/>
</g>
<!-- Node27 -->
<g id="node7" class="node"><title>Node27</title>
<g id="a_node7"><a xlink:href="namespacestr__utilities.html#ac778d706b2e021672618939ab58fdd32" target="_top" xlink:title="Convert a real (double) to string. ">
<polygon fill="white" stroke="black" points="376,-110.544 376,-131.544 519,-131.544 519,-110.544 376,-110.544"/>
<text text-anchor="middle" x="447.5" y="-117.944" font-family="Ubuntu Mono" font-size="12.00">str_utilities::r2strt</text>
</a>
</g>
</g>
<!-- Node22&#45;&gt;Node27 -->
<g id="edge6" class="edge"><title>Node22&#45;&gt;Node27</title>
<path fill="none" stroke="midnightblue" d="M319.124,-121.044C333.97,-121.044 350.052,-121.044 365.629,-121.044"/>
<polygon fill="midnightblue" stroke="midnightblue" points="365.775,-124.544 375.775,-121.044 365.775,-117.544 365.775,-124.544"/>
</g>
<!-- Node24 -->
<g id="node4" class="node"><title>Node24</title>
<g id="a_node4"><a xlink:href="namespacemessages.html#a82dddaab795b78b3d39e1ff1aab2f665" target="_top" xlink:title="Returns the memory usage in kilobytes. ">
<polygon fill="white" stroke="black" points="555,-177.544 555,-198.544 710,-198.544 710,-177.544 555,-177.544"/>
<text text-anchor="middle" x="632.5" y="-184.944" font-family="Ubuntu Mono" font-size="12.00">messages::get_mem_usage</text>
</a>
</g>
</g>
<!-- Node23&#45;&gt;Node24 -->
<g id="edge3" class="edge"><title>Node23&#45;&gt;Node24</title>
<path fill="none" stroke="midnightblue" d="M501.431,-173.829C514.982,-175.31 529.915,-176.942 544.685,-178.556"/>
<polygon fill="midnightblue" stroke="midnightblue" points="544.544,-182.061 554.865,-179.669 545.304,-175.103 544.544,-182.061"/>
</g>
<!-- Node25 -->
<g id="node5" class="node"><title>Node25</title>
<g id="a_node5"><a xlink:href="namespacemessages.html#a61fd0b51b5e37d58fdc993c01792a3fd" target="_top" xlink:title="Returns the time. ">
<polygon fill="white" stroke="black" points="567,-137.544 567,-158.544 698,-158.544 698,-137.544 567,-137.544"/>
<text text-anchor="middle" x="632.5" y="-144.944" font-family="Ubuntu Mono" font-size="12.00">messages::get_clock</text>
</a>
</g>
</g>
<!-- Node23&#45;&gt;Node25 -->
<g id="edge4" class="edge"><title>Node23&#45;&gt;Node25</title>
<path fill="none" stroke="midnightblue" d="M501.431,-162.259C518.621,-160.38 538.034,-158.259 556.517,-156.239"/>
<polygon fill="midnightblue" stroke="midnightblue" points="557.109,-159.695 566.669,-155.129 556.348,-152.737 557.109,-159.695"/>
</g>
<!-- Node30&#45;&gt;Node23 -->
<g id="edge11" class="edge"><title>Node30&#45;&gt;Node23</title>
<path fill="none" stroke="midnightblue" d="M313.184,-168.044C335.28,-168.044 360.802,-168.044 383.564,-168.044"/>
<polygon fill="midnightblue" stroke="midnightblue" points="383.806,-171.544 393.806,-168.044 383.806,-164.544 383.806,-171.544"/>
</g>
</g>
</svg>
