<?xml version="1.0" encoding="UTF-8" standalone="no"?>
<!DOCTYPE svg PUBLIC "-//W3C//DTD SVG 1.1//EN"
 "http://www.w3.org/Graphics/SVG/1.1/DTD/svg11.dtd">
<!-- Generated by graphviz version 2.38.0 (20140413.2041)
 -->
<!-- Title: x_ops::check_x_modes Pages: 1 -->
<svg width="992pt" height="234pt"
 viewBox="0.00 0.00 992.00 234.00" xmlns="http://www.w3.org/2000/svg" xmlns:xlink="http://www.w3.org/1999/xlink">
<g id="graph0" class="graph" transform="scale(1 1) rotate(0) translate(4 230.004)">
<title>x_ops::check_x_modes</title>
<polygon fill="white" stroke="none" points="-4,4 -4,-230.004 988,-230.004 988,4 -4,4"/>
<!-- Node77 -->
<g id="node1" class="node"><title>Node77</title>
<polygon fill="#bfbfbf" stroke="black" points="0,-57.7127 0,-78.7127 137,-78.7127 137,-57.7127 0,-57.7127"/>
<text text-anchor="middle" x="68.5" y="-65.1127" font-family="Ubuntu Mono" font-size="12.00">x_ops::check_x_modes</text>
</g>
<!-- Node78 -->
<g id="node2" class="node"><title>Node78</title>
<g id="a_node2"><a xlink:href="namespacemessages.html#aa4a8d01563e92558e8a0875b075ec54c" target="_top" xlink:title="messages::writo">
<polygon fill="white" stroke="black" points="519,-37.7127 519,-58.7127 626,-58.7127 626,-37.7127 519,-37.7127"/>
<text text-anchor="middle" x="572.5" y="-45.1127" font-family="Ubuntu Mono" font-size="12.00">messages::writo</text>
</a>
</g>
</g>
<!-- Node77&#45;&gt;Node78 -->
<g id="edge1" class="edge"><title>Node77&#45;&gt;Node78</title>
<path fill="none" stroke="midnightblue" d="M97.3029,-57.5949C164.212,-33.4828 339.308,21.0445 483,-9.21269 504.765,-13.7956 527.702,-24.0783 544.77,-32.9349"/>
<polygon fill="midnightblue" stroke="midnightblue" points="543.136,-36.0299 553.604,-37.6632 546.439,-29.8583 543.136,-36.0299"/>
</g>
<!-- Node82 -->
<g id="node6" class="node"><title>Node82</title>
<g id="a_node6"><a xlink:href="namespacemessages.html#a6e6bfb084063e4cc91ee86e542043302" target="_top" xlink:title="messages::lvl_ud">
<polygon fill="white" stroke="black" points="343,-18.7127 343,-39.7127 456,-39.7127 456,-18.7127 343,-18.7127"/>
<text text-anchor="middle" x="399.5" y="-26.1127" font-family="Ubuntu Mono" font-size="12.00">messages::lvl_ud</text>
</a>
</g>
</g>
<!-- Node77&#45;&gt;Node82 -->
<g id="edge5" class="edge"><title>Node77&#45;&gt;Node82</title>
<path fill="none" stroke="midnightblue" d="M137.27,-60.1791C194.587,-53.3847 276.204,-43.7098 332.897,-36.9893"/>
<polygon fill="midnightblue" stroke="midnightblue" points="333.31,-40.465 342.829,-35.812 332.486,-33.5136 333.31,-40.465"/>
</g>
<!-- Node83 -->
<g id="node7" class="node"><title>Node83</title>
<g id="a_node7"><a xlink:href="X__ops_8f90.html#a02770f90fcd38f73e7b6c7f267f17708" target="_top" xlink:title="check_x_modes_1">
<polygon fill="white" stroke="black" points="173,-156.713 173,-177.713 280,-177.713 280,-156.713 173,-156.713"/>
<text text-anchor="middle" x="226.5" y="-164.113" font-family="Ubuntu Mono" font-size="12.00">check_x_modes_1</text>
</a>
</g>
</g>
<!-- Node77&#45;&gt;Node83 -->
<g id="edge7" class="edge"><title>Node77&#45;&gt;Node83</title>
<path fill="none" stroke="midnightblue" d="M86.1947,-78.8074C113.523,-96.1502 167.973,-130.705 200.109,-151.099"/>
<polygon fill="midnightblue" stroke="midnightblue" points="198.607,-154.291 208.925,-156.694 202.357,-148.381 198.607,-154.291"/>
</g>
<!-- Node86 -->
<g id="node10" class="node"><title>Node86</title>
<g id="a_node10"><a xlink:href="X__ops_8f90.html#a9fba21ce7e69eeb679c06ac453ed41ce" target="_top" xlink:title="check_x_modes_2">
<polygon fill="white" stroke="black" points="173,-86.7127 173,-107.713 280,-107.713 280,-86.7127 173,-86.7127"/>
<text text-anchor="middle" x="226.5" y="-94.1127" font-family="Ubuntu Mono" font-size="12.00">check_x_modes_2</text>
</a>
</g>
</g>
<!-- Node77&#45;&gt;Node86 -->
<g id="edge11" class="edge"><title>Node77&#45;&gt;Node86</title>
<path fill="none" stroke="midnightblue" d="M126.261,-78.7644C138.171,-80.9785 150.797,-83.3257 162.907,-85.5768"/>
<polygon fill="midnightblue" stroke="midnightblue" points="162.46,-89.0536 172.931,-87.4402 163.739,-82.1715 162.46,-89.0536"/>
</g>
<!-- Node79 -->
<g id="node3" class="node"><title>Node79</title>
<g id="a_node3"><a xlink:href="namespacemessages.html#a82dddaab795b78b3d39e1ff1aab2f665" target="_top" xlink:title="messages::get_mem_usage">
<polygon fill="white" stroke="black" points="662,-57.7127 662,-78.7127 817,-78.7127 817,-57.7127 662,-57.7127"/>
<text text-anchor="middle" x="739.5" y="-65.1127" font-family="Ubuntu Mono" font-size="12.00">messages::get_mem_usage</text>
</a>
</g>
</g>
<!-- Node78&#45;&gt;Node79 -->
<g id="edge2" class="edge"><title>Node78&#45;&gt;Node79</title>
<path fill="none" stroke="midnightblue" d="M626.161,-54.5958C634.452,-55.6008 643.208,-56.6622 652.025,-57.7309"/>
<polygon fill="midnightblue" stroke="midnightblue" points="651.635,-61.2092 661.984,-58.938 652.478,-54.26 651.635,-61.2092"/>
</g>
<!-- Node80 -->
<g id="node4" class="node"><title>Node80</title>
<g id="a_node4"><a xlink:href="messages_8f90.html#a6d15f28783f95a7a4b2a44185619792f" target="_top" xlink:title="format_str">
<polygon fill="white" stroke="black" points="701,-17.7127 701,-38.7127 778,-38.7127 778,-17.7127 701,-17.7127"/>
<text text-anchor="middle" x="739.5" y="-25.1127" font-family="Ubuntu Mono" font-size="12.00">format_str</text>
</a>
</g>
</g>
<!-- Node78&#45;&gt;Node80 -->
<g id="edge3" class="edge"><title>Node78&#45;&gt;Node80</title>
<path fill="none" stroke="midnightblue" d="M626.161,-41.8296C646.977,-39.3064 670.722,-36.4282 691.002,-33.97"/>
<polygon fill="midnightblue" stroke="midnightblue" points="691.448,-37.4417 700.954,-32.7637 690.606,-30.4925 691.448,-37.4417"/>
</g>
<!-- Node81 -->
<g id="node5" class="node"><title>Node81</title>
<g id="a_node5"><a xlink:href="namespacemessages.html#a61fd0b51b5e37d58fdc993c01792a3fd" target="_top" xlink:title="messages::get_clock">
<polygon fill="white" stroke="black" points="853,-17.7127 853,-38.7127 984,-38.7127 984,-17.7127 853,-17.7127"/>
<text text-anchor="middle" x="918.5" y="-25.1127" font-family="Ubuntu Mono" font-size="12.00">messages::get_clock</text>
</a>
</g>
</g>
<!-- Node80&#45;&gt;Node81 -->
<g id="edge4" class="edge"><title>Node80&#45;&gt;Node81</title>
<path fill="none" stroke="midnightblue" d="M778.037,-28.2127C796.869,-28.2127 820.372,-28.2127 842.685,-28.2127"/>
<polygon fill="midnightblue" stroke="midnightblue" points="842.832,-31.7128 852.832,-28.2127 842.832,-24.7128 842.832,-31.7128"/>
</g>
<!-- Node82&#45;&gt;Node78 -->
<g id="edge6" class="edge"><title>Node82&#45;&gt;Node78</title>
<path fill="none" stroke="midnightblue" d="M456.019,-35.3814C472.894,-37.2564 491.553,-39.3297 508.863,-41.253"/>
<polygon fill="midnightblue" stroke="midnightblue" points="508.549,-44.7396 518.875,-42.3654 509.322,-37.7824 508.549,-44.7396"/>
</g>
<!-- Node83&#45;&gt;Node78 -->
<g id="edge8" class="edge"><title>Node83&#45;&gt;Node78</title>
<path fill="none" stroke="midnightblue" d="M246.043,-177.76C290.372,-201.443 404.622,-253.289 483,-207.213 534.584,-176.888 558.283,-104.399 567.122,-68.7369"/>
<polygon fill="midnightblue" stroke="midnightblue" points="570.544,-69.4724 569.402,-58.9392 563.726,-67.8854 570.544,-69.4724"/>
</g>
<!-- Node84 -->
<g id="node8" class="node"><title>Node84</title>
<g id="a_node8"><a xlink:href="namespacestr__utilities.html#ac778d706b2e021672618939ab58fdd32" target="_top" xlink:title="str_utilities::r2strt">
<polygon fill="white" stroke="black" points="328,-176.713 328,-197.713 471,-197.713 471,-176.713 328,-176.713"/>
<text text-anchor="middle" x="399.5" y="-184.113" font-family="Ubuntu Mono" font-size="12.00">str_utilities::r2strt</text>
</a>
</g>
</g>
<!-- Node83&#45;&gt;Node84 -->
<g id="edge9" class="edge"><title>Node83&#45;&gt;Node84</title>
<path fill="none" stroke="midnightblue" d="M280.201,-173.377C292.048,-174.762 304.886,-176.264 317.588,-177.749"/>
<polygon fill="midnightblue" stroke="midnightblue" points="317.385,-181.249 327.724,-178.935 318.198,-174.297 317.385,-181.249"/>
</g>
<!-- Node85 -->
<g id="node9" class="node"><title>Node85</title>
<g id="a_node9"><a xlink:href="namespacestr__utilities.html#a0b97e51770725a3e98ed393d26681414" target="_top" xlink:title="str_utilities::i2str">
<polygon fill="white" stroke="black" points="331,-136.713 331,-157.713 468,-157.713 468,-136.713 331,-136.713"/>
<text text-anchor="middle" x="399.5" y="-144.113" font-family="Ubuntu Mono" font-size="12.00">str_utilities::i2str</text>
</a>
</g>
</g>
<!-- Node83&#45;&gt;Node85 -->
<g id="edge10" class="edge"><title>Node83&#45;&gt;Node85</title>
<path fill="none" stroke="midnightblue" d="M280.201,-161.049C293.072,-159.543 307.113,-157.901 320.878,-156.291"/>
<polygon fill="midnightblue" stroke="midnightblue" points="321.307,-159.765 330.833,-155.127 320.494,-152.812 321.307,-159.765"/>
</g>
<!-- Node86&#45;&gt;Node78 -->
<g id="edge13" class="edge"><title>Node86&#45;&gt;Node78</title>
<path fill="none" stroke="midnightblue" d="M280.121,-89.7173C341.578,-80.9632 443.159,-66.4938 508.689,-57.1596"/>
<polygon fill="midnightblue" stroke="midnightblue" points="509.479,-60.5825 518.885,-55.7072 508.492,-53.6525 509.479,-60.5825"/>
</g>
<!-- Node86&#45;&gt;Node82 -->
<g id="edge14" class="edge"><title>Node86&#45;&gt;Node82</title>
<path fill="none" stroke="midnightblue" d="M247.132,-86.5598C264.805,-77.241 291.664,-63.7431 316,-54.2127 326.671,-50.0339 338.339,-46.1184 349.453,-42.6824"/>
<polygon fill="midnightblue" stroke="midnightblue" points="350.475,-46.03 359.038,-39.7918 348.453,-39.3281 350.475,-46.03"/>
</g>
<!-- Node86&#45;&gt;Node84 -->
<g id="edge16" class="edge"><title>Node86&#45;&gt;Node84</title>
<path fill="none" stroke="midnightblue" d="M237.63,-107.717C253.084,-123.118 284.127,-151.678 316,-167.213 320.885,-169.594 326.075,-171.704 331.38,-173.572"/>
<polygon fill="midnightblue" stroke="midnightblue" points="330.421,-176.94 341.012,-176.678 332.569,-170.278 330.421,-176.94"/>
</g>
<!-- Node86&#45;&gt;Node85 -->
<g id="edge15" class="edge"><title>Node86&#45;&gt;Node85</title>
<path fill="none" stroke="midnightblue" d="M256.391,-107.732C273.585,-113.81 295.9,-121.382 316,-127.213 324.33,-129.629 333.19,-131.991 341.896,-134.197"/>
<polygon fill="midnightblue" stroke="midnightblue" points="341.075,-137.599 351.624,-136.615 342.764,-130.806 341.075,-137.599"/>
</g>
<!-- Node87 -->
<g id="node11" class="node"><title>Node87</title>
<g id="a_node11"><a xlink:href="namespacegrid__utilities.html#a67001ff9bbcad707aacf17f90a748d90" target="_top" xlink:title="grid_utilities::trim_grid">
<polygon fill="white" stroke="black" points="316,-96.7127 316,-117.713 483,-117.713 483,-96.7127 316,-96.7127"/>
<text text-anchor="middle" x="399.5" y="-104.113" font-family="Ubuntu Mono" font-size="12.00">grid_utilities::trim_grid</text>
</a>
</g>
</g>
<!-- Node86&#45;&gt;Node87 -->
<g id="edge12" class="edge"><title>Node86&#45;&gt;Node87</title>
<path fill="none" stroke="midnightblue" d="M280.201,-100.295C288.312,-100.769 296.888,-101.27 305.566,-101.778"/>
<polygon fill="midnightblue" stroke="midnightblue" points="305.592,-105.285 315.779,-102.375 306.001,-98.2973 305.592,-105.285"/>
</g>
</g>
</svg>
