<?xml version="1.0" encoding="UTF-8" standalone="no"?>
<!DOCTYPE svg PUBLIC "-//W3C//DTD SVG 1.1//EN"
 "http://www.w3.org/Graphics/SVG/1.1/DTD/svg11.dtd">
<!-- Generated by graphviz version 14.1.2 (20260124.0452)
 -->
<!-- Title: x_ops::resonance_plot Pages: 1 -->
<svg width="946pt" height="613pt"
 viewBox="0.00 0.00 946.00 613.00" xmlns="http://www.w3.org/2000/svg" xmlns:xlink="http://www.w3.org/1999/xlink">
<g id="graph0" class="graph" transform="scale(1 1) rotate(0) translate(4 609.45)">
<title>x_ops::resonance_plot</title>
<!-- Node1 -->
<g id="Node000001" class="node">
<title>Node1</title>
<g id="a_Node000001"><a xlink:title="plot &#45;profile or &#45;profile in flux coordinates with &#160;or &#160;indicated if requested.">
<polygon fill="#999999" stroke="#666666" points="142,-310.45 0,-310.45 0,-289.7 142,-289.7 142,-310.45"/>
<text xml:space="preserve" text-anchor="middle" x="71" y="-295.05" font-family="Ubuntu Mono" font-size="12.00">x_ops::resonance_plot</text>
</a>
</g>
</g>
<!-- Node2 -->
<g id="Node000002" class="node">
<title>Node2</title>
<g id="a_Node000002"><a xlink:href="namespacenum__utilities.html#a5ee3fbd1fe67d0deefc7194631389f2a" target="_top" xlink:title="Convert 2&#45;D coordinates (i,j) to the storage convention used in matrices.">
<polygon fill="white" stroke="#666666" points="537,-587.45 425,-587.45 425,-566.7 537,-566.7 537,-587.45"/>
<text xml:space="preserve" text-anchor="middle" x="481" y="-572.05" font-family="Ubuntu Mono" font-size="12.00">num_utilities::c</text>
</a>
</g>
</g>
<!-- Node1&#45;&gt;Node2 -->
<g id="edge1_Node000001_Node000002" class="edge">
<title>Node1&#45;&gt;Node2</title>
<g id="a_edge1_Node000001_Node000002"><a xlink:title=" ">
<path fill="none" stroke="#63b8ff" d="M72.62,-310.76C75.61,-351.17 92.15,-495.41 178,-557.07 249.61,-608.51 357.09,-601.11 422.65,-589.91"/>
<polygon fill="#63b8ff" stroke="#63b8ff" points="422.88,-593.42 432.1,-588.2 421.64,-586.53 422.88,-593.42"/>
</a>
</g>
</g>
<!-- Node3 -->
<g id="Node000003" class="node">
<title>Node3</title>
<g id="a_Node000003"><a xlink:href="namespacex__ops.html#a1a90026bbbeddc25e82cfdd304df251f" target="_top" xlink:title="Calculates resonating flux surfaces for the perturbation modes.">
<polygon fill="white" stroke="#666666" points="335,-330.45 199,-330.45 199,-309.7 335,-309.7 335,-330.45"/>
<text xml:space="preserve" text-anchor="middle" x="267" y="-315.05" font-family="Ubuntu Mono" font-size="12.00">x_ops::calc_res_surf</text>
</a>
</g>
</g>
<!-- Node1&#45;&gt;Node3 -->
<g id="edge3_Node000001_Node000003" class="edge">
<title>Node1&#45;&gt;Node3</title>
<g id="a_edge3_Node000001_Node000003"><a xlink:title=" ">
<path fill="none" stroke="#63b8ff" d="M142.31,-307.32C156.92,-308.83 172.39,-310.42 187.28,-311.96"/>
<polygon fill="#63b8ff" stroke="#63b8ff" points="186.71,-315.42 197.01,-312.96 187.42,-308.45 186.71,-315.42"/>
</a>
</g>
</g>
<!-- Node11 -->
<g id="Node000011" class="node">
<title>Node11</title>
<g id="a_Node000011"><a xlink:href="namespacegrid__utilities.html#a67001ff9bbcad707aacf17f90a748d90" target="_top" xlink:title="Trim a grid, removing any overlap between the different regions.">
<polygon fill="white" stroke="#666666" points="564,-253.45 398,-253.45 398,-232.7 564,-232.7 564,-253.45"/>
<text xml:space="preserve" text-anchor="middle" x="481" y="-238.05" font-family="Ubuntu Mono" font-size="12.00">grid_utilities::trim_grid</text>
</a>
</g>
</g>
<!-- Node1&#45;&gt;Node11 -->
<g id="edge38_Node000001_Node000011" class="edge">
<title>Node1&#45;&gt;Node11</title>
<g id="a_edge38_Node000001_Node000011"><a xlink:title=" ">
<path fill="none" stroke="#63b8ff" d="M142.14,-290.28C211.05,-280.65 316.46,-265.92 391.19,-255.48"/>
<polygon fill="#63b8ff" stroke="#63b8ff" points="391.53,-258.97 400.95,-254.12 390.56,-252.04 391.53,-258.97"/>
</a>
</g>
</g>
<!-- Node12 -->
<g id="Node000012" class="node">
<title>Node12</title>
<g id="a_Node000012"><a xlink:href="namespacevmec__utilities.html#ac699116fc25fdea3e28e488513d97c87" target="_top" xlink:title="Calculate the trigonometric cosine and sine factors.">
<polygon fill="white" stroke="#666666" points="549,-509.82 413,-509.82 413,-476.32 549,-476.32 549,-509.82"/>
<text xml:space="preserve" text-anchor="start" x="421" y="-494.42" font-family="Ubuntu Mono" font-size="12.00">vmec_utilities::calc</text>
<text xml:space="preserve" text-anchor="middle" x="481" y="-481.67" font-family="Ubuntu Mono" font-size="12.00">_trigon_factors</text>
</a>
</g>
</g>
<!-- Node1&#45;&gt;Node12 -->
<g id="edge19_Node000001_Node000012" class="edge">
<title>Node1&#45;&gt;Node12</title>
<g id="a_edge19_Node000001_Node000012"><a xlink:title=" ">
<path fill="none" stroke="#63b8ff" d="M91.06,-310.83C140.03,-338.21 274.61,-411.93 392,-462.07 400.06,-465.52 408.65,-468.89 417.19,-472.07"/>
<polygon fill="#63b8ff" stroke="#63b8ff" points="415.9,-475.33 426.5,-475.47 418.3,-468.75 415.9,-475.33"/>
</a>
</g>
</g>
<!-- Node13 -->
<g id="Node000013" class="node">
<title>Node13</title>
<g id="a_Node000013"><a xlink:href="namespacegrid__utilities.html#a904387b563db02ccf082e549730fd89b" target="_top" xlink:title="Calculates , &#160;and &#160;on a grid grid_XYZ, determined through its E(quilibrium) coordinates.">
<polygon fill="white" stroke="#666666" points="335,-80.82 199,-80.82 199,-47.32 335,-47.32 335,-80.82"/>
<text xml:space="preserve" text-anchor="start" x="207" y="-65.42" font-family="Ubuntu Mono" font-size="12.00">grid_utilities::calc</text>
<text xml:space="preserve" text-anchor="middle" x="267" y="-52.67" font-family="Ubuntu Mono" font-size="12.00">_xyz_grid</text>
</a>
</g>
</g>
<!-- Node1&#45;&gt;Node13 -->
<g id="edge22_Node000001_Node000013" class="edge">
<title>Node1&#45;&gt;Node13</title>
<g id="a_edge22_Node000001_Node000013"><a xlink:title=" ">
<path fill="none" stroke="#63b8ff" d="M74.2,-289.49C81.91,-255.19 110.89,-146.06 178,-90.07 181.25,-87.36 184.77,-84.93 188.48,-82.76"/>
<polygon fill="#63b8ff" stroke="#63b8ff" points="189.98,-85.92 197.29,-78.26 186.79,-79.69 189.98,-85.92"/>
</a>
</g>
</g>
<!-- Node14 -->
<g id="Node000014" class="node">
<title>Node14</title>
<g id="a_Node000014"><a xlink:href="namespaceinput__utilities.html#ad9ce824c30b32041ab70f3fb191f06db" target="_top" xlink:title="Queries for a logical value yes or no, where the default answer is also to be provided.">
<polygon fill="white" stroke="#666666" points="347,-177.45 187,-177.45 187,-156.7 347,-156.7 347,-177.45"/>
<text xml:space="preserve" text-anchor="middle" x="267" y="-162.05" font-family="Ubuntu Mono" font-size="12.00">input_utilities::get_log</text>
</a>
</g>
</g>
<!-- Node1&#45;&gt;Node14 -->
<g id="edge23_Node000001_Node000014" class="edge">
<title>Node1&#45;&gt;Node14</title>
<g id="a_edge23_Node000001_Node000014"><a xlink:title=" ">
<path fill="none" stroke="#63b8ff" d="M87.55,-289.41C121.03,-266.46 200.23,-212.16 240.92,-184.27"/>
<polygon fill="#63b8ff" stroke="#63b8ff" points="242.86,-187.18 249.13,-178.64 238.9,-181.41 242.86,-187.18"/>
</a>
</g>
</g>
<!-- Node18 -->
<g id="Node000018" class="node">
<title>Node18</title>
<g id="a_Node000018"><a xlink:href="namespaceinput__utilities.html#a71bd36f063d55ab62c7a37864aef1185" target="_top" xlink:title="Pauses the running of the program.">
<polygon fill="white" stroke="#666666" points="356,-119.45 178,-119.45 178,-98.7 356,-98.7 356,-119.45"/>
<text xml:space="preserve" text-anchor="middle" x="267" y="-104.05" font-family="Ubuntu Mono" font-size="12.00">input_utilities::pause_prog</text>
</a>
</g>
</g>
<!-- Node1&#45;&gt;Node18 -->
<g id="edge30_Node000001_Node000018" class="edge">
<title>Node1&#45;&gt;Node18</title>
<g id="a_edge30_Node000001_Node000018"><a xlink:title=" ">
<path fill="none" stroke="#63b8ff" d="M76.89,-289.38C89.75,-262.26 127.11,-190.03 178,-148.07 190.12,-138.08 205.21,-130.16 219.46,-124.15"/>
<polygon fill="#63b8ff" stroke="#63b8ff" points="220.71,-127.42 228.71,-120.48 218.12,-120.91 220.71,-127.42"/>
</a>
</g>
</g>
<!-- Node20 -->
<g id="Node000020" class="node">
<title>Node20</title>
<g id="a_Node000020"><a xlink:href="X__ops_8f90.html#a60ad682c469a085ff3f744ce3191940f" target="_top" xlink:title=" ">
<polygon fill="white" stroke="#666666" points="296,-548.45 238,-548.45 238,-527.7 296,-527.7 296,-548.45"/>
<text xml:space="preserve" text-anchor="middle" x="267" y="-533.05" font-family="Ubuntu Mono" font-size="12.00">test_du</text>
</a>
</g>
</g>
<!-- Node1&#45;&gt;Node20 -->
<g id="edge35_Node000001_Node000020" class="edge">
<title>Node1&#45;&gt;Node20</title>
<g id="a_edge35_Node000001_Node000020"><a xlink:title=" ">
<path fill="none" stroke="#63b8ff" d="M79.68,-310.85C96.75,-334.64 139.39,-393.28 178,-440.07 201.37,-468.39 230.04,-499.74 248.17,-519.18"/>
<polygon fill="#63b8ff" stroke="#63b8ff" points="245.5,-521.45 254.9,-526.35 250.61,-516.66 245.5,-521.45"/>
</a>
</g>
</g>
<!-- Node2&#45;&gt;Node2 -->
<g id="edge2_Node000002_Node000002" class="edge">
<title>Node2&#45;&gt;Node2</title>
<g id="a_edge2_Node000002_Node000002"><a xlink:title=" ">
<path fill="none" stroke="#63b8ff" d="M449.42,-587.85C436.79,-596.51 447.31,-605.45 481,-605.45 499.42,-605.45 510.92,-602.77 515.49,-598.93"/>
<polygon fill="#63b8ff" stroke="#63b8ff" points="518.89,-598.1 512.97,-589.31 512.12,-599.87 518.89,-598.1"/>
</a>
</g>
</g>
<!-- Node4 -->
<g id="Node000004" class="node">
<title>Node4</title>
<g id="a_Node000004"><a xlink:href="namespacenum__ops.html#adcc4eacf15c931744316a004f4448b90" target="_top" xlink:title="Finds the zero of a function using Zhang&#39;s method, which is simpler than Brent&#39;s method.">
<polygon fill="white" stroke="#666666" points="543,-381.82 419,-381.82 419,-348.32 543,-348.32 543,-381.82"/>
<text xml:space="preserve" text-anchor="start" x="427" y="-366.42" font-family="Ubuntu Mono" font-size="12.00">num_ops::calc_zero</text>
<text xml:space="preserve" text-anchor="middle" x="481" y="-353.67" font-family="Ubuntu Mono" font-size="12.00">_zhang</text>
</a>
</g>
</g>
<!-- Node3&#45;&gt;Node4 -->
<g id="edge4_Node000003_Node000004" class="edge">
<title>Node3&#45;&gt;Node4</title>
<g id="a_edge4_Node000003_Node000004"><a xlink:title=" ">
<path fill="none" stroke="#63b8ff" d="M319.05,-330.91C345.67,-336.56 378.67,-343.57 407.85,-349.76"/>
<polygon fill="#63b8ff" stroke="#63b8ff" points="406.84,-353.12 417.35,-351.78 408.29,-346.28 406.84,-353.12"/>
</a>
</g>
</g>
<!-- Node5 -->
<g id="Node000005" class="node">
<title>Node5</title>
<g id="a_Node000005"><a xlink:href="namespacestr__utilities.html#a92ac6c0af1979df094de1caddd28ade0" target="_top" xlink:title="Convert a real (double) to string.">
<polygon fill="white" stroke="#666666" points="745,-402.45 609,-402.45 609,-381.7 745,-381.7 745,-402.45"/>
<text xml:space="preserve" text-anchor="middle" x="677" y="-387.05" font-family="Ubuntu Mono" font-size="12.00">str_utilities::r2str</text>
</a>
</g>
</g>
<!-- Node3&#45;&gt;Node5 -->
<g id="edge16_Node000003_Node000005" class="edge">
<title>Node3&#45;&gt;Node5</title>
<g id="a_edge16_Node000003_Node000005"><a xlink:title=" ">
<path fill="none" stroke="#63b8ff" d="M281.09,-330.69C302.65,-347.41 347.67,-379.2 392,-391.07 459.64,-409.2 539.65,-407.52 597.48,-402.43"/>
<polygon fill="#63b8ff" stroke="#63b8ff" points="597.6,-405.94 607.23,-401.51 596.94,-398.97 597.6,-405.94"/>
</a>
</g>
</g>
<!-- Node7 -->
<g id="Node000007" class="node">
<title>Node7</title>
<g id="a_Node000007"><a xlink:href="namespacemessages.html#aa4a8d01563e92558e8a0875b075ec54c" target="_top" xlink:title="Write output to file identified by output_i.">
<polygon fill="white" stroke="#666666" points="730,-292.45 624,-292.45 624,-271.7 730,-271.7 730,-292.45"/>
<text xml:space="preserve" text-anchor="middle" x="677" y="-277.05" font-family="Ubuntu Mono" font-size="12.00">messages::writo</text>
</a>
</g>
</g>
<!-- Node3&#45;&gt;Node7 -->
<g id="edge18_Node000003_Node000007" class="edge">
<title>Node3&#45;&gt;Node7</title>
<g id="a_edge18_Node000003_Node000007"><a xlink:title=" ">
<path fill="none" stroke="#63b8ff" d="M335.37,-318.04C396.71,-315.67 489.68,-310.77 570,-301.07 583.84,-299.4 598.61,-297.09 612.6,-294.66"/>
<polygon fill="#63b8ff" stroke="#63b8ff" points="612.89,-298.16 622.12,-292.96 611.66,-291.27 612.89,-298.16"/>
</a>
</g>
</g>
<!-- Node9 -->
<g id="Node000009" class="node">
<title>Node9</title>
<g id="a_Node000009"><a xlink:href="namespacestr__utilities.html#a0b97e51770725a3e98ed393d26681414" target="_top" xlink:title="Convert an integer to string.">
<polygon fill="white" stroke="#666666" points="929,-458.45 793,-458.45 793,-437.7 929,-437.7 929,-458.45"/>
<text xml:space="preserve" text-anchor="middle" x="861" y="-443.05" font-family="Ubuntu Mono" font-size="12.00">str_utilities::i2str</text>
</a>
</g>
</g>
<!-- Node3&#45;&gt;Node9 -->
<g id="edge13_Node000003_Node000009" class="edge">
<title>Node3&#45;&gt;Node9</title>
<g id="a_edge13_Node000003_Node000009"><a xlink:title=" ">
<path fill="none" stroke="#63b8ff" d="M307.11,-330.9C323.44,-336.78 341.87,-345.3 356,-357.07 378.45,-375.77 366.87,-397.17 392,-412.07 455.85,-449.94 665.84,-452.14 781.63,-450.26"/>
<polygon fill="#63b8ff" stroke="#63b8ff" points="781.43,-453.77 791.36,-450.09 781.3,-446.77 781.43,-453.77"/>
</a>
</g>
</g>
<!-- Node10 -->
<g id="Node000010" class="node">
<title>Node10</title>
<g id="a_Node000010"><a xlink:href="namespacemessages.html#a6e6bfb084063e4cc91ee86e542043302" target="_top" xlink:title="Increases/decreases lvl of output.">
<polygon fill="white" stroke="#666666" points="537,-292.45 425,-292.45 425,-271.7 537,-271.7 537,-292.45"/>
<text xml:space="preserve" text-anchor="middle" x="481" y="-277.05" font-family="Ubuntu Mono" font-size="12.00">messages::lvl_ud</text>
</a>
</g>
</g>
<!-- Node3&#45;&gt;Node10 -->
<g id="edge14_Node000003_Node000010" class="edge">
<title>Node3&#45;&gt;Node10</title>
<g id="a_edge14_Node000003_Node000010"><a xlink:title=" ">
<path fill="none" stroke="#63b8ff" d="M328.47,-309.24C355.04,-304.47 386.32,-298.87 413.54,-293.99"/>
<polygon fill="#63b8ff" stroke="#63b8ff" points="413.82,-297.49 423.04,-292.28 412.58,-290.6 413.82,-297.49"/>
</a>
</g>
</g>
<!-- Node3&#45;&gt;Node11 -->
<g id="edge17_Node000003_Node000011" class="edge">
<title>Node3&#45;&gt;Node11</title>
<g id="a_edge17_Node000003_Node000011"><a xlink:title=" ">
<path fill="none" stroke="#63b8ff" d="M288.09,-309.26C312.19,-296.66 354.08,-275.94 392,-263.07 398.8,-260.77 405.98,-258.64 413.2,-256.72"/>
<polygon fill="#63b8ff" stroke="#63b8ff" points="413.82,-260.17 422.65,-254.31 412.1,-253.38 413.82,-260.17"/>
</a>
</g>
</g>
<!-- Node4&#45;&gt;Node5 -->
<g id="edge5_Node000004_Node000005" class="edge">
<title>Node4&#45;&gt;Node5</title>
<g id="a_edge5_Node000004_Node000005"><a xlink:title=" ">
<path fill="none" stroke="#63b8ff" d="M543.38,-373.62C560.49,-376 579.32,-378.62 597.28,-381.12"/>
<polygon fill="#63b8ff" stroke="#63b8ff" points="596.74,-384.58 607.13,-382.49 597.7,-377.64 596.74,-384.58"/>
</a>
</g>
</g>
<!-- Node6 -->
<g id="Node000006" class="node">
<title>Node6</title>
<g id="a_Node000006"><a xlink:href="namespacestr__utilities.html#ac778d706b2e021672618939ab58fdd32" target="_top" xlink:title="Convert a real (double) to string.">
<polygon fill="white" stroke="#666666" points="748,-345.45 606,-345.45 606,-324.7 748,-324.7 748,-345.45"/>
<text xml:space="preserve" text-anchor="middle" x="677" y="-330.05" font-family="Ubuntu Mono" font-size="12.00">str_utilities::r2strt</text>
</a>
</g>
</g>
<!-- Node4&#45;&gt;Node6 -->
<g id="edge7_Node000004_Node000006" class="edge">
<title>Node4&#45;&gt;Node6</title>
<g id="a_edge7_Node000004_Node000006"><a xlink:title=" ">
<path fill="none" stroke="#63b8ff" d="M543.38,-355.58C559.68,-353.06 577.54,-350.3 594.72,-347.64"/>
<polygon fill="#63b8ff" stroke="#63b8ff" points="595.05,-351.13 604.4,-346.15 593.98,-344.22 595.05,-351.13"/>
</a>
</g>
</g>
<!-- Node4&#45;&gt;Node7 -->
<g id="edge9_Node000004_Node000007" class="edge">
<title>Node4&#45;&gt;Node7</title>
<g id="a_edge9_Node000004_Node000007"><a xlink:title=" ">
<path fill="none" stroke="#63b8ff" d="M534.06,-347.94C545.98,-343.69 558.52,-338.94 570,-334.07 586.47,-327.09 589.95,-323.98 606,-316.07 618.15,-310.08 631.53,-303.57 643.3,-297.86"/>
<polygon fill="#63b8ff" stroke="#63b8ff" points="644.75,-301.05 652.22,-293.54 641.7,-294.75 644.75,-301.05"/>
</a>
</g>
</g>
<!-- Node5&#45;&gt;Node5 -->
<g id="edge6_Node000005_Node000005" class="edge">
<title>Node5&#45;&gt;Node5</title>
<g id="a_edge6_Node000005_Node000005"><a xlink:title=" ">
<path fill="none" stroke="#63b8ff" d="M647.35,-402.85C635.49,-411.51 645.38,-420.45 677,-420.45 694.29,-420.45 705.09,-417.77 709.38,-413.93"/>
<polygon fill="#63b8ff" stroke="#63b8ff" points="712.8,-413.19 707.01,-404.32 706,-414.86 712.8,-413.19"/>
</a>
</g>
</g>
<!-- Node6&#45;&gt;Node6 -->
<g id="edge8_Node000006_Node000006" class="edge">
<title>Node6&#45;&gt;Node6</title>
<g id="a_edge8_Node000006_Node000006"><a xlink:title=" ">
<path fill="none" stroke="#63b8ff" d="M647.35,-345.85C635.49,-354.51 645.38,-363.45 677,-363.45 694.29,-363.45 705.09,-360.77 709.38,-356.93"/>
<polygon fill="#63b8ff" stroke="#63b8ff" points="712.8,-356.19 707.01,-347.32 706,-357.86 712.8,-356.19"/>
</a>
</g>
</g>
<!-- Node8 -->
<g id="Node000008" class="node">
<title>Node8</title>
<g id="a_Node000008"><a xlink:href="namespacemessages.html#a82dddaab795b78b3d39e1ff1aab2f665" target="_top" xlink:title="Returns the memory usage in kilobytes.">
<polygon fill="white" stroke="#666666" points="938,-292.45 784,-292.45 784,-271.7 938,-271.7 938,-292.45"/>
<text xml:space="preserve" text-anchor="middle" x="861" y="-277.05" font-family="Ubuntu Mono" font-size="12.00">messages::get_mem_usage</text>
</a>
</g>
</g>
<!-- Node7&#45;&gt;Node8 -->
<g id="edge10_Node000007_Node000008" class="edge">
<title>Node7&#45;&gt;Node8</title>
<g id="a_edge10_Node000007_Node000008"><a xlink:title=" ">
<path fill="none" stroke="#63b8ff" d="M730.15,-282.07C743.33,-282.07 757.85,-282.07 772.26,-282.07"/>
<polygon fill="#63b8ff" stroke="#63b8ff" points="772.25,-285.57 782.25,-282.07 772.25,-278.57 772.25,-285.57"/>
</a>
</g>
</g>
<!-- Node7&#45;&gt;Node9 -->
<g id="edge11_Node000007_Node000009" class="edge">
<title>Node7&#45;&gt;Node9</title>
<g id="a_edge11_Node000007_Node000009"><a xlink:title=" ">
<path fill="none" stroke="#63b8ff" d="M706.8,-292.84C720.08,-298.59 735.62,-306.47 748,-316.07 790.33,-348.9 828,-400 846.99,-428.02"/>
<polygon fill="#63b8ff" stroke="#63b8ff" points="844.03,-429.89 852.48,-436.28 849.86,-426.01 844.03,-429.89"/>
</a>
</g>
</g>
<!-- Node9&#45;&gt;Node9 -->
<g id="edge12_Node000009_Node000009" class="edge">
<title>Node9&#45;&gt;Node9</title>
<g id="a_edge12_Node000009_Node000009"><a xlink:title=" ">
<path fill="none" stroke="#63b8ff" d="M831.35,-458.85C819.49,-467.51 829.38,-476.45 861,-476.45 878.29,-476.45 889.09,-473.77 893.38,-469.93"/>
<polygon fill="#63b8ff" stroke="#63b8ff" points="896.8,-469.19 891.01,-460.32 890,-470.86 896.8,-469.19"/>
</a>
</g>
</g>
<!-- Node10&#45;&gt;Node7 -->
<g id="edge15_Node000010_Node000007" class="edge">
<title>Node10&#45;&gt;Node7</title>
<g id="a_edge15_Node000010_Node000007"><a xlink:title=" ">
<path fill="none" stroke="#63b8ff" d="M537.33,-282.07C560.73,-282.07 588.12,-282.07 612.35,-282.07"/>
<polygon fill="#63b8ff" stroke="#63b8ff" points="612.08,-285.57 622.08,-282.07 612.08,-278.57 612.08,-285.57"/>
</a>
</g>
</g>
<!-- Node12&#45;&gt;Node7 -->
<g id="edge21_Node000012_Node000007" class="edge">
<title>Node12&#45;&gt;Node7</title>
<g id="a_edge21_Node000012_Node000007"><a xlink:title=" ">
<path fill="none" stroke="#63b8ff" d="M499.1,-476.16C518.05,-456.8 548.73,-423.56 570,-391.07 590.25,-360.14 579.92,-342.28 606,-316.07 613.49,-308.55 622.98,-302.44 632.53,-297.59"/>
<polygon fill="#63b8ff" stroke="#63b8ff" points="633.86,-300.83 641.46,-293.44 630.91,-294.48 633.86,-300.83"/>
</a>
</g>
</g>
<!-- Node12&#45;&gt;Node9 -->
<g id="edge20_Node000012_Node000009" class="edge">
<title>Node12&#45;&gt;Node9</title>
<g id="a_edge20_Node000012_Node000009"><a xlink:title=" ">
<path fill="none" stroke="#63b8ff" d="M549.25,-485.39C603.04,-479.21 680.38,-470.24 748,-462.07 758.87,-460.76 770.33,-459.35 781.61,-457.96"/>
<polygon fill="#63b8ff" stroke="#63b8ff" points="781.8,-461.46 791.29,-456.75 780.93,-454.51 781.8,-461.46"/>
</a>
</g>
</g>
<!-- Node14&#45;&gt;Node7 -->
<g id="edge29_Node000014_Node000007" class="edge">
<title>Node14&#45;&gt;Node7</title>
<g id="a_edge29_Node000014_Node000007"><a xlink:title=" ">
<path fill="none" stroke="#63b8ff" d="M339.64,-177.94C415.08,-189.85 528.55,-209.24 570,-224.07 599.06,-234.47 629.73,-252.08 650.56,-265.17"/>
<polygon fill="#63b8ff" stroke="#63b8ff" points="648.64,-268.1 658.95,-270.55 652.42,-262.2 648.64,-268.1"/>
</a>
</g>
</g>
<!-- Node15 -->
<g id="Node000015" class="node">
<title>Node15</title>
<g id="a_Node000015"><a xlink:href="namespacemessages.html#a84d5988f3ea5ca8dc2834032f896ae90" target="_top" xlink:title="Start a timer.">
<polygon fill="white" stroke="#666666" points="549,-138.45 413,-138.45 413,-117.7 549,-117.7 549,-138.45"/>
<text xml:space="preserve" text-anchor="middle" x="481" y="-123.05" font-family="Ubuntu Mono" font-size="12.00">messages::start_time</text>
</a>
</g>
</g>
<!-- Node14&#45;&gt;Node15 -->
<g id="edge24_Node000014_Node000015" class="edge">
<title>Node14&#45;&gt;Node15</title>
<g id="a_edge24_Node000014_Node000015"><a xlink:title=" ">
<path fill="none" stroke="#63b8ff" d="M327.05,-156.21C352.68,-151.5 382.88,-145.94 409.66,-141.01"/>
<polygon fill="#63b8ff" stroke="#63b8ff" points="410.21,-144.47 419.41,-139.22 408.94,-137.59 410.21,-144.47"/>
</a>
</g>
</g>
<!-- Node16 -->
<g id="Node000016" class="node">
<title>Node16</title>
<g id="a_Node000016"><a xlink:href="namespacemessages.html#aed343894ae4a28ad6dfbd1d39aac64ff" target="_top" xlink:title="Stop a timer.">
<polygon fill="white" stroke="#666666" points="546,-99.45 416,-99.45 416,-78.7 546,-78.7 546,-99.45"/>
<text xml:space="preserve" text-anchor="middle" x="481" y="-84.05" font-family="Ubuntu Mono" font-size="12.00">messages::stop_time</text>
</a>
</g>
</g>
<!-- Node14&#45;&gt;Node16 -->
<g id="edge26_Node000014_Node000016" class="edge">
<title>Node14&#45;&gt;Node16</title>
<g id="a_edge26_Node000014_Node000016"><a xlink:title=" ">
<path fill="none" stroke="#63b8ff" d="M293.63,-156.27C311.3,-148.68 335.25,-138.13 356,-128.07 372.28,-120.18 375.03,-115.35 392,-109.07 398.36,-106.72 405.09,-104.59 411.88,-102.67"/>
<polygon fill="#63b8ff" stroke="#63b8ff" points="412.33,-106.18 421.09,-100.23 410.53,-99.41 412.33,-106.18"/>
</a>
</g>
</g>
<!-- Node17 -->
<g id="Node000017" class="node">
<title>Node17</title>
<g id="a_Node000017"><a xlink:href="namespacestr__utilities.html#a219964a283968cc6a968db0197d2187e" target="_top" xlink:title="Convert a string to lowercase.">
<polygon fill="white" stroke="#666666" points="552,-177.45 410,-177.45 410,-156.7 552,-156.7 552,-177.45"/>
<text xml:space="preserve" text-anchor="middle" x="481" y="-162.05" font-family="Ubuntu Mono" font-size="12.00">str_utilities::strh2l</text>
</a>
</g>
</g>
<!-- Node14&#45;&gt;Node17 -->
<g id="edge28_Node000014_Node000017" class="edge">
<title>Node14&#45;&gt;Node17</title>
<g id="a_edge28_Node000014_Node000017"><a xlink:title=" ">
<path fill="none" stroke="#63b8ff" d="M347.24,-167.07C363.87,-167.07 381.44,-167.07 398.16,-167.07"/>
<polygon fill="#63b8ff" stroke="#63b8ff" points="398.06,-170.57 408.06,-167.07 398.06,-163.57 398.06,-170.57"/>
</a>
</g>
</g>
<!-- Node15&#45;&gt;Node7 -->
<g id="edge25_Node000015_Node000007" class="edge">
<title>Node15&#45;&gt;Node7</title>
<g id="a_edge25_Node000015_Node000007"><a xlink:title=" ">
<path fill="none" stroke="#63b8ff" d="M549.28,-138.29C556.57,-140.85 563.64,-144.06 570,-148.07 615.17,-176.55 649.22,-231.23 665.46,-261.19"/>
<polygon fill="#63b8ff" stroke="#63b8ff" points="662.35,-262.78 670.1,-270.01 668.55,-259.53 662.35,-262.78"/>
</a>
</g>
</g>
<!-- Node16&#45;&gt;Node7 -->
<g id="edge27_Node000016_Node000007" class="edge">
<title>Node16&#45;&gt;Node7</title>
<g id="a_edge27_Node000016_Node000007"><a xlink:title=" ">
<path fill="none" stroke="#63b8ff" d="M546.16,-97.26C554.65,-100.13 562.87,-103.96 570,-109.07 624.24,-147.98 656.26,-224.08 669.24,-260.99"/>
<polygon fill="#63b8ff" stroke="#63b8ff" points="665.79,-261.71 672.3,-270.07 672.42,-259.47 665.79,-261.71"/>
</a>
</g>
</g>
<!-- Node18&#45;&gt;Node7 -->
<g id="edge34_Node000018_Node000007" class="edge">
<title>Node18&#45;&gt;Node7</title>
<g id="a_edge34_Node000018_Node000007"><a xlink:title=" ">
<path fill="none" stroke="#63b8ff" d="M341.11,-98.32C346.38,-96.05 351.41,-93.33 356,-90.07 381.04,-72.28 365.21,-46.11 392,-31.07 460.99,7.65 504.07,12.65 570,-31.07 649.59,-83.86 669.57,-209.5 674.46,-260.25"/>
<polygon fill="#63b8ff" stroke="#63b8ff" points="670.95,-260.27 675.28,-269.94 677.93,-259.68 670.95,-260.27"/>
</a>
</g>
</g>
<!-- Node18&#45;&gt;Node15 -->
<g id="edge31_Node000018_Node000015" class="edge">
<title>Node18&#45;&gt;Node15</title>
<g id="a_edge31_Node000018_Node000015"><a xlink:title=" ">
<path fill="none" stroke="#63b8ff" d="M356.37,-116.99C371.4,-118.34 386.92,-119.73 401.66,-121.05"/>
<polygon fill="#63b8ff" stroke="#63b8ff" points="400.99,-124.51 411.26,-121.91 401.62,-117.53 400.99,-124.51"/>
</a>
</g>
</g>
<!-- Node18&#45;&gt;Node16 -->
<g id="edge32_Node000018_Node000016" class="edge">
<title>Node18&#45;&gt;Node16</title>
<g id="a_edge32_Node000018_Node000016"><a xlink:title=" ">
<path fill="none" stroke="#63b8ff" d="M356.37,-100.74C372.37,-99.23 388.92,-97.67 404.51,-96.2"/>
<polygon fill="#63b8ff" stroke="#63b8ff" points="404.53,-99.71 414.16,-95.28 403.88,-92.74 404.53,-99.71"/>
</a>
</g>
</g>
<!-- Node19 -->
<g id="Node000019" class="node">
<title>Node19</title>
<g id="a_Node000019"><a xlink:href="namespacempi__utilities.html#a790ea24d32dd0e249541c1e57cd85536" target="_top" xlink:title="Wait for all processes, wrapper to MPI barrier.">
<polygon fill="white" stroke="#666666" points="558,-60.45 404,-60.45 404,-39.7 558,-39.7 558,-60.45"/>
<text xml:space="preserve" text-anchor="middle" x="481" y="-45.05" font-family="Ubuntu Mono" font-size="12.00">mpi_utilities::wait_mpi</text>
</a>
</g>
</g>
<!-- Node18&#45;&gt;Node19 -->
<g id="edge33_Node000018_Node000019" class="edge">
<title>Node18&#45;&gt;Node19</title>
<g id="a_edge33_Node000018_Node000019"><a xlink:title=" ">
<path fill="none" stroke="#63b8ff" d="M329.27,-98.29C338.36,-95.99 347.52,-93.27 356,-90.07 373.13,-83.63 374.9,-76.61 392,-70.07 398,-67.78 404.33,-65.71 410.74,-63.84"/>
<polygon fill="#63b8ff" stroke="#63b8ff" points="411.36,-67.3 420.09,-61.3 409.53,-60.55 411.36,-67.3"/>
</a>
</g>
</g>
<!-- Node20&#45;&gt;Node2 -->
<g id="edge36_Node000020_Node000002" class="edge">
<title>Node20&#45;&gt;Node2</title>
<g id="a_edge36_Node000020_Node000002"><a xlink:title=" ">
<path fill="none" stroke="#63b8ff" d="M296.15,-543.25C325.94,-548.73 374.02,-557.58 413.54,-564.85"/>
<polygon fill="#63b8ff" stroke="#63b8ff" points="412.75,-568.26 423.22,-566.63 414.01,-561.38 412.75,-568.26"/>
</a>
</g>
</g>
<!-- Node21 -->
<g id="Node000021" class="node">
<title>Node21</title>
<g id="a_Node000021"><a xlink:href="namespacex__utilities.html#a6bb9570c66954d37a27f04f12fa65cc9" target="_top" xlink:title="Determines whether a variable needs to be considered:">
<polygon fill="white" stroke="#666666" points="570,-548.45 392,-548.45 392,-527.7 570,-527.7 570,-548.45"/>
<text xml:space="preserve" text-anchor="middle" x="481" y="-533.05" font-family="Ubuntu Mono" font-size="12.00">x_utilities::is_necessary_x</text>
</a>
</g>
</g>
<!-- Node20&#45;&gt;Node21 -->
<g id="edge37_Node000020_Node000021" class="edge">
<title>Node20&#45;&gt;Node21</title>
<g id="a_edge37_Node000020_Node000021"><a xlink:title=" ">
<path fill="none" stroke="#63b8ff" d="M296.15,-538.07C317.92,-538.07 349.45,-538.07 380.27,-538.07"/>
<polygon fill="#63b8ff" stroke="#63b8ff" points="380.06,-541.57 390.06,-538.07 380.06,-534.57 380.06,-541.57"/>
</a>
</g>
</g>
</g>
</svg>
