<?xml version="1.0" encoding="UTF-8" standalone="no"?>
<!DOCTYPE svg PUBLIC "-//W3C//DTD SVG 1.1//EN"
 "http://www.w3.org/Graphics/SVG/1.1/DTD/svg11.dtd">
<!-- Generated by graphviz version 14.1.2 (20260124.0452)
 -->
<!-- Title: grid_utilities::untrim_grid Pages: 1 -->
<svg width="690pt" height="42pt"
 viewBox="0.00 0.00 690.00 42.00" xmlns="http://www.w3.org/2000/svg" xmlns:xlink="http://www.w3.org/1999/xlink">
<g id="graph0" class="graph" transform="scale(1 1) rotate(0) translate(4 37.5)">
<title>grid_utilities::untrim_grid</title>
<!-- Node1 -->
<g id="Node000001" class="node">
<title>Node1</title>
<g id="a_Node000001"><a xlink:title="Untrims a trimmed grid by introducing an asymmetric ghost regions at the right.">
<polygon fill="#999999" stroke="#666666" points="682,-27.12 504,-27.12 504,-6.38 682,-6.38 682,-27.12"/>
<text xml:space="preserve" text-anchor="middle" x="593" y="-11.72" font-family="Ubuntu Mono" font-size="12.00">grid_utilities::untrim_grid</text>
</a>
</g>
</g>
<!-- Node2 -->
<g id="Node000002" class="node">
<title>Node2</title>
<g id="a_Node000002"><a xlink:href="namespacesol__ops.html#a27e7b537dc63b771ff19a94cf0c0097d" target="_top" xlink:title="Decomposes the plasma potential and kinetic energy in its individual terms for an individual Eigenval...">
<polygon fill="white" stroke="#666666" points="468,-33.5 344,-33.5 344,0 468,0 468,-33.5"/>
<text xml:space="preserve" text-anchor="start" x="352" y="-18.1" font-family="Ubuntu Mono" font-size="12.00">sol_ops::decompose</text>
<text xml:space="preserve" text-anchor="middle" x="406" y="-5.35" font-family="Ubuntu Mono" font-size="12.00">_energy</text>
</a>
</g>
</g>
<!-- Node1&#45;&gt;Node2 -->
<g id="edge1_Node000001_Node000002" class="edge">
<title>Node1&#45;&gt;Node2</title>
<g id="a_edge1_Node000001_Node000002"><a xlink:title=" ">
<path fill="none" stroke="#63b8ff" d="M492.14,-16.75C484.07,-16.75 476.08,-16.75 468.41,-16.75"/>
<polygon fill="#63b8ff" stroke="#63b8ff" points="492.05,-20.25 502.05,-16.75 492.05,-13.25 492.05,-20.25"/>
</a>
</g>
</g>
<!-- Node3 -->
<g id="Node000003" class="node">
<title>Node3</title>
<g id="a_Node000003"><a xlink:href="namespacedriver__post.html#a33b3c6f9018a0ddc92dce77394b8ab37" target="_top" xlink:title="The main driver routine for postprocessing.">
<polygon fill="white" stroke="#666666" points="308,-27.12 124,-27.12 124,-6.38 308,-6.38 308,-27.12"/>
<text xml:space="preserve" text-anchor="middle" x="216" y="-11.72" font-family="Ubuntu Mono" font-size="12.00">driver_post::run_driver_post</text>
</a>
</g>
</g>
<!-- Node2&#45;&gt;Node3 -->
<g id="edge2_Node000002_Node000003" class="edge">
<title>Node2&#45;&gt;Node3</title>
<g id="a_edge2_Node000002_Node000003"><a xlink:title=" ">
<path fill="none" stroke="#63b8ff" d="M332.31,-16.75C324.42,-16.75 316.31,-16.75 308.23,-16.75"/>
<polygon fill="#63b8ff" stroke="#63b8ff" points="332.19,-20.25 342.19,-16.75 332.19,-13.25 332.19,-20.25"/>
</a>
</g>
</g>
<!-- Node4 -->
<g id="Node000004" class="node">
<title>Node4</title>
<g id="a_Node000004"><a xlink:href="POST_8f90.html#a28f8fd95cf9c74c0cfd8b386827a7a9b" target="_top" xlink:title="Peeling Ballooning in 3D: postprocessing.">
<polygon fill="white" stroke="#666666" points="88,-27.12 0,-27.12 0,-6.38 88,-6.38 88,-27.12"/>
<text xml:space="preserve" text-anchor="middle" x="44" y="-11.72" font-family="Ubuntu Mono" font-size="12.00">__post_f90__</text>
</a>
</g>
</g>
<!-- Node3&#45;&gt;Node4 -->
<g id="edge3_Node000003_Node000004" class="edge">
<title>Node3&#45;&gt;Node4</title>
<g id="a_edge3_Node000003_Node000004"><a xlink:title=" ">
<path fill="none" stroke="#63b8ff" d="M112.12,-16.75C103.84,-16.75 95.79,-16.75 88.32,-16.75"/>
<polygon fill="#63b8ff" stroke="#63b8ff" points="112.02,-20.25 122.02,-16.75 112.02,-13.25 112.02,-20.25"/>
</a>
</g>
</g>
</g>
</svg>
