<?xml version="1.0" encoding="UTF-8" standalone="no"?>
<!DOCTYPE svg PUBLIC "-//W3C//DTD SVG 1.1//EN"
 "http://www.w3.org/Graphics/SVG/1.1/DTD/svg11.dtd">
<!-- Generated by graphviz version 2.38.0 (20140413.2041)
 -->
<!-- Title: eq_ops::kappa_plot Pages: 1 -->
<svg width="1058pt" height="545pt"
 viewBox="0.00 0.00 1058.00 544.95" xmlns="http://www.w3.org/2000/svg" xmlns:xlink="http://www.w3.org/1999/xlink">
<g id="graph0" class="graph" transform="scale(1 1) rotate(0) translate(4 540.953)">
<title>eq_ops::kappa_plot</title>
<polygon fill="white" stroke="none" points="-4,4 -4,-540.953 1054,-540.953 1054,4 -4,4"/>
<!-- Node186 -->
<g id="node1" class="node"><title>Node186</title>
<polygon fill="#bfbfbf" stroke="black" points="0,-312.453 0,-333.453 125,-333.453 125,-312.453 0,-312.453"/>
<text text-anchor="middle" x="62.5" y="-319.853" font-family="Ubuntu Mono" font-size="12.00">eq_ops::kappa_plot</text>
</g>
<!-- Node187 -->
<g id="node2" class="node"><title>Node187</title>
<g id="a_node2"><a xlink:href="namespacegrid__utilities.html#a3076796477d38ffed189868b3b28efb1" target="_top" xlink:title="grid_utilities::calc\l_vec_comp">
<polygon fill="white" stroke="black" points="173,-305.953 173,-339.953 310,-339.953 310,-305.953 173,-305.953"/>
<text text-anchor="start" x="181" y="-326.353" font-family="Ubuntu Mono" font-size="12.00">grid_utilities::calc</text>
<text text-anchor="middle" x="241.5" y="-313.353" font-family="Ubuntu Mono" font-size="12.00">_vec_comp</text>
</a>
</g>
</g>
<!-- Node186&#45;&gt;Node187 -->
<g id="edge1" class="edge"><title>Node186&#45;&gt;Node187</title>
<path fill="none" stroke="midnightblue" d="M125.406,-322.953C137.4,-322.953 150.113,-322.953 162.543,-322.953"/>
<polygon fill="midnightblue" stroke="midnightblue" points="162.897,-326.453 172.897,-322.953 162.897,-319.453 162.897,-326.453"/>
</g>
<!-- Node188 -->
<g id="node3" class="node"><title>Node188</title>
<g id="a_node3"><a xlink:href="namespacenum__utilities.html#a5ee3fbd1fe67d0deefc7194631389f2a" target="_top" xlink:title="num_utilities::c">
<polygon fill="white" stroke="black" points="385,-487.453 385,-508.453 498,-508.453 498,-487.453 385,-487.453"/>
<text text-anchor="middle" x="441.5" y="-494.853" font-family="Ubuntu Mono" font-size="12.00">num_utilities::c</text>
</a>
</g>
</g>
<!-- Node186&#45;&gt;Node188 -->
<g id="edge21" class="edge"><title>Node186&#45;&gt;Node188</title>
<path fill="none" stroke="midnightblue" d="M71.6873,-333.637C87.0921,-353.025 122.336,-394.106 161,-416.953 228.122,-456.615 315.888,-477.894 375.016,-488.54"/>
<polygon fill="midnightblue" stroke="midnightblue" points="374.527,-492.008 384.981,-490.282 375.733,-485.112 374.527,-492.008"/>
</g>
<!-- Node189 -->
<g id="node4" class="node"><title>Node189</title>
<g id="a_node4"><a xlink:href="namespacevmec__utilities.html#ac699116fc25fdea3e28e488513d97c87" target="_top" xlink:title="vmec_utilities::calc\l_trigon_factors">
<polygon fill="white" stroke="black" points="373,-380.953 373,-414.953 510,-414.953 510,-380.953 373,-380.953"/>
<text text-anchor="start" x="381" y="-401.353" font-family="Ubuntu Mono" font-size="12.00">vmec_utilities::calc</text>
<text text-anchor="middle" x="441.5" y="-388.353" font-family="Ubuntu Mono" font-size="12.00">_trigon_factors</text>
</a>
</g>
</g>
<!-- Node186&#45;&gt;Node189 -->
<g id="edge22" class="edge"><title>Node186&#45;&gt;Node189</title>
<path fill="none" stroke="midnightblue" d="M99.8921,-333.464C118.143,-338.529 140.642,-344.463 161,-348.953 228.848,-363.917 306.768,-377.265 363.071,-386.236"/>
<polygon fill="midnightblue" stroke="midnightblue" points="362.547,-389.696 372.972,-387.803 363.642,-382.782 362.547,-389.696"/>
</g>
<!-- Node190 -->
<g id="node5" class="node"><title>Node190</title>
<g id="a_node5"><a xlink:href="namespacemessages.html#aa4a8d01563e92558e8a0875b075ec54c" target="_top" xlink:title="messages::writo">
<polygon fill="white" stroke="black" points="570,-146.453 570,-167.453 677,-167.453 677,-146.453 570,-146.453"/>
<text text-anchor="middle" x="623.5" y="-153.853" font-family="Ubuntu Mono" font-size="12.00">messages::writo</text>
</a>
</g>
</g>
<!-- Node186&#45;&gt;Node190 -->
<g id="edge33" class="edge"><title>Node186&#45;&gt;Node190</title>
<path fill="none" stroke="midnightblue" d="M65.1531,-312.399C71.215,-277.098 95.3935,-161.778 161,-97.9528 228.615,-32.1734 265.377,-36.8324 358,-18.9528 430.877,-4.88491 459.092,15.1801 525,-18.9528 573.211,-43.9204 602.673,-104.916 615.297,-136.795"/>
<polygon fill="midnightblue" stroke="midnightblue" points="612.119,-138.286 618.936,-146.397 618.665,-135.805 612.119,-138.286"/>
</g>
<!-- Node194 -->
<g id="node9" class="node"><title>Node194</title>
<g id="a_node9"><a xlink:href="namespacestr__utilities.html#a0b97e51770725a3e98ed393d26681414" target="_top" xlink:title="str_utilities::i2str">
<polygon fill="white" stroke="black" points="913,-396.453 913,-417.453 1050,-417.453 1050,-396.453 913,-396.453"/>
<text text-anchor="middle" x="981.5" y="-403.853" font-family="Ubuntu Mono" font-size="12.00">str_utilities::i2str</text>
</a>
</g>
</g>
<!-- Node186&#45;&gt;Node194 -->
<g id="edge32" class="edge"><title>Node186&#45;&gt;Node194</title>
<path fill="none" stroke="midnightblue" d="M68.0688,-333.808C79.6051,-359.878 112.488,-426.417 161,-460.953 265.872,-535.612 311.767,-536.953 440.5,-536.953 440.5,-536.953 440.5,-536.953 624.5,-536.953 756.011,-536.953 899.176,-457.708 955.631,-422.959"/>
<polygon fill="midnightblue" stroke="midnightblue" points="957.604,-425.854 964.236,-417.591 953.899,-419.915 957.604,-425.854"/>
</g>
<!-- Node195 -->
<g id="node10" class="node"><title>Node195</title>
<g id="a_node10"><a xlink:href="namespacegrid__utilities.html#a67001ff9bbcad707aacf17f90a748d90" target="_top" xlink:title="grid_utilities::trim_grid">
<polygon fill="white" stroke="black" points="358,-226.453 358,-247.453 525,-247.453 525,-226.453 358,-226.453"/>
<text text-anchor="middle" x="441.5" y="-233.853" font-family="Ubuntu Mono" font-size="12.00">grid_utilities::trim_grid</text>
</a>
</g>
</g>
<!-- Node186&#45;&gt;Node195 -->
<g id="edge30" class="edge"><title>Node186&#45;&gt;Node195</title>
<path fill="none" stroke="midnightblue" d="M99.4766,-312.415C117.819,-307.189 140.523,-300.944 161,-295.953 234.18,-278.114 318.908,-260.675 375.722,-249.441"/>
<polygon fill="midnightblue" stroke="midnightblue" points="376.51,-252.853 385.645,-247.485 375.157,-245.985 376.51,-252.853"/>
</g>
<!-- Node197 -->
<g id="node12" class="node"><title>Node197</title>
<g id="a_node12"><a xlink:href="namespacegrid__utilities.html#a39e7cd9b8f173994358dbdd6b57827e1" target="_top" xlink:title="grid_utilities::calc\l_xyz_grid">
<polygon fill="white" stroke="black" points="373,-433.953 373,-467.953 510,-467.953 510,-433.953 373,-433.953"/>
<text text-anchor="start" x="381" y="-454.353" font-family="Ubuntu Mono" font-size="12.00">grid_utilities::calc</text>
<text text-anchor="middle" x="441.5" y="-441.353" font-family="Ubuntu Mono" font-size="12.00">_xyz_grid</text>
</a>
</g>
</g>
<!-- Node186&#45;&gt;Node197 -->
<g id="edge31" class="edge"><title>Node186&#45;&gt;Node197</title>
<path fill="none" stroke="midnightblue" d="M79.0421,-333.649C97.7423,-346.091 130.447,-366.51 161,-378.953 226.888,-405.785 305.66,-425.001 362.761,-436.795"/>
<polygon fill="midnightblue" stroke="midnightblue" points="362.307,-440.274 372.804,-438.839 363.703,-433.415 362.307,-440.274"/>
</g>
<!-- Node200 -->
<g id="node15" class="node"><title>Node200</title>
<g id="a_node15"><a xlink:href="namespacemessages.html#a6e6bfb084063e4cc91ee86e542043302" target="_top" xlink:title="messages::lvl_ud">
<polygon fill="white" stroke="black" points="385,-186.453 385,-207.453 498,-207.453 498,-186.453 385,-186.453"/>
<text text-anchor="middle" x="441.5" y="-193.853" font-family="Ubuntu Mono" font-size="12.00">messages::lvl_ud</text>
</a>
</g>
</g>
<!-- Node186&#45;&gt;Node200 -->
<g id="edge34" class="edge"><title>Node186&#45;&gt;Node200</title>
<path fill="none" stroke="midnightblue" d="M75.8181,-312.282C93.4695,-297.562 127.534,-271.231 161,-256.953 230.655,-227.235 316.573,-211.627 374.621,-203.867"/>
<polygon fill="midnightblue" stroke="midnightblue" points="375.298,-207.308 384.766,-202.553 374.399,-200.366 375.298,-207.308"/>
</g>
<!-- Node201 -->
<g id="node16" class="node"><title>Node201</title>
<g id="a_node16"><a xlink:href="namespaceinput__utilities.html#ad9ce824c30b32041ab70f3fb191f06db" target="_top" xlink:title="input_utilities::get_log">
<polygon fill="white" stroke="black" points="161,-107.453 161,-128.453 322,-128.453 322,-107.453 161,-107.453"/>
<text text-anchor="middle" x="241.5" y="-114.853" font-family="Ubuntu Mono" font-size="12.00">input_utilities::get_log</text>
</a>
</g>
</g>
<!-- Node186&#45;&gt;Node201 -->
<g id="edge23" class="edge"><title>Node186&#45;&gt;Node201</title>
<path fill="none" stroke="midnightblue" d="M71.1422,-312.129C87.0231,-289.857 125.108,-237.582 161,-196.953 180.595,-174.771 204.971,-151.058 221.529,-135.465"/>
<polygon fill="midnightblue" stroke="midnightblue" points="224.06,-137.891 228.974,-128.505 219.279,-132.778 224.06,-137.891"/>
</g>
<!-- Node187&#45;&gt;Node188 -->
<g id="edge2" class="edge"><title>Node187&#45;&gt;Node188</title>
<path fill="none" stroke="midnightblue" d="M250.225,-340.004C265.76,-372.275 303.97,-442.235 358,-477.953 363.244,-481.42 369.031,-484.286 375.035,-486.657"/>
<polygon fill="midnightblue" stroke="midnightblue" points="374.005,-490.004 384.6,-489.988 376.308,-483.394 374.005,-490.004"/>
</g>
<!-- Node187&#45;&gt;Node189 -->
<g id="edge3" class="edge"><title>Node187&#45;&gt;Node189</title>
<path fill="none" stroke="midnightblue" d="M287.429,-339.971C316.692,-351.056 355.046,-365.584 386.042,-377.325"/>
<polygon fill="midnightblue" stroke="midnightblue" points="384.815,-380.603 395.406,-380.872 387.294,-374.056 384.815,-380.603"/>
</g>
<!-- Node187&#45;&gt;Node190 -->
<g id="edge17" class="edge"><title>Node187&#45;&gt;Node190</title>
<path fill="none" stroke="midnightblue" d="M310.071,-309.245C387.55,-293.201 506.331,-267.489 525,-256.953 561.166,-236.543 592.579,-198.685 609.412,-175.859"/>
<polygon fill="midnightblue" stroke="midnightblue" points="612.326,-177.802 615.322,-167.64 606.643,-173.716 612.326,-177.802"/>
</g>
<!-- Node187&#45;&gt;Node194 -->
<g id="edge20" class="edge"><title>Node187&#45;&gt;Node194</title>
<path fill="none" stroke="midnightblue" d="M310.135,-317.599C427.689,-310.26 676.338,-303.472 877,-356.953 905.092,-364.44 934.73,-379.599 955.057,-391.272"/>
<polygon fill="midnightblue" stroke="midnightblue" points="953.307,-394.303 963.702,-396.351 956.852,-388.268 953.307,-394.303"/>
</g>
<!-- Node187&#45;&gt;Node195 -->
<g id="edge9" class="edge"><title>Node187&#45;&gt;Node195</title>
<path fill="none" stroke="midnightblue" d="M271.188,-305.817C294.118,-292.612 327.379,-274.542 358,-261.953 368.28,-257.726 379.538,-253.848 390.342,-250.472"/>
<polygon fill="midnightblue" stroke="midnightblue" points="391.54,-253.766 400.096,-247.517 389.511,-247.067 391.54,-253.766"/>
</g>
<!-- Node196 -->
<g id="node11" class="node"><title>Node196</title>
<g id="a_node11"><a xlink:href="namespacegrid__utilities.html#a43206328f85253a6cc821cd46a498bb6" target="_top" xlink:title="grid_utilities::setup\l_interp_data">
<polygon fill="white" stroke="black" points="728,-366.953 728,-400.953 871,-400.953 871,-366.953 728,-366.953"/>
<text text-anchor="start" x="736" y="-387.353" font-family="Ubuntu Mono" font-size="12.00">grid_utilities::setup</text>
<text text-anchor="middle" x="799.5" y="-374.353" font-family="Ubuntu Mono" font-size="12.00">_interp_data</text>
</a>
</g>
</g>
<!-- Node187&#45;&gt;Node196 -->
<g id="edge10" class="edge"><title>Node187&#45;&gt;Node196</title>
<path fill="none" stroke="midnightblue" d="M310.14,-330.12C397.122,-339.371 552.849,-356.054 686,-370.953 696.291,-372.104 707.109,-373.332 717.802,-374.556"/>
<polygon fill="midnightblue" stroke="midnightblue" points="717.661,-378.063 727.995,-375.726 718.459,-371.109 717.661,-378.063"/>
</g>
<!-- Node187&#45;&gt;Node197 -->
<g id="edge12" class="edge"><title>Node187&#45;&gt;Node197</title>
<path fill="none" stroke="midnightblue" d="M257.704,-339.963C278.389,-362.165 317.486,-400.896 358,-423.953 361.684,-426.049 365.554,-428.011 369.525,-429.842"/>
<polygon fill="midnightblue" stroke="midnightblue" points="368.364,-433.153 378.934,-433.881 371.125,-426.72 368.364,-433.153"/>
</g>
<!-- Node187&#45;&gt;Node200 -->
<g id="edge18" class="edge"><title>Node187&#45;&gt;Node200</title>
<path fill="none" stroke="midnightblue" d="M256.23,-305.78C276.115,-282.098 315.259,-239.761 358,-216.953 363.461,-214.039 369.351,-211.542 375.381,-209.405"/>
<polygon fill="midnightblue" stroke="midnightblue" points="376.484,-212.727 384.933,-206.334 374.342,-206.063 376.484,-212.727"/>
</g>
<!-- Node189&#45;&gt;Node190 -->
<g id="edge4" class="edge"><title>Node189&#45;&gt;Node190</title>
<path fill="none" stroke="midnightblue" d="M455.75,-380.824C472.137,-359.591 500.826,-322.256 525,-289.953 555.23,-249.559 590.042,-201.754 608.803,-175.883"/>
<polygon fill="midnightblue" stroke="midnightblue" points="611.703,-177.846 614.736,-167.694 606.034,-173.738 611.703,-177.846"/>
</g>
<!-- Node189&#45;&gt;Node194 -->
<g id="edge8" class="edge"><title>Node189&#45;&gt;Node194</title>
<path fill="none" stroke="midnightblue" d="M510.073,-406.656C526.696,-408.44 544.468,-410.049 561,-410.953 680.152,-417.469 818.616,-414.006 902.869,-410.668"/>
<polygon fill="midnightblue" stroke="midnightblue" points="903.02,-414.165 912.87,-410.262 902.736,-407.171 903.02,-414.165"/>
</g>
<!-- Node191 -->
<g id="node6" class="node"><title>Node191</title>
<g id="a_node6"><a xlink:href="namespacemessages.html#a82dddaab795b78b3d39e1ff1aab2f665" target="_top" xlink:title="messages::get_mem_usage">
<polygon fill="white" stroke="black" points="722,-166.453 722,-187.453 877,-187.453 877,-166.453 722,-166.453"/>
<text text-anchor="middle" x="799.5" y="-173.853" font-family="Ubuntu Mono" font-size="12.00">messages::get_mem_usage</text>
</a>
</g>
</g>
<!-- Node190&#45;&gt;Node191 -->
<g id="edge5" class="edge"><title>Node190&#45;&gt;Node191</title>
<path fill="none" stroke="midnightblue" d="M677.178,-163.008C688.196,-164.274 700.089,-165.641 711.971,-167.007"/>
<polygon fill="midnightblue" stroke="midnightblue" points="711.595,-170.487 721.929,-168.151 712.394,-163.532 711.595,-170.487"/>
</g>
<!-- Node192 -->
<g id="node7" class="node"><title>Node192</title>
<g id="a_node7"><a xlink:href="messages_8f90.html#a6d15f28783f95a7a4b2a44185619792f" target="_top" xlink:title="format_str">
<polygon fill="white" stroke="black" points="761,-126.453 761,-147.453 838,-147.453 838,-126.453 761,-126.453"/>
<text text-anchor="middle" x="799.5" y="-133.853" font-family="Ubuntu Mono" font-size="12.00">format_str</text>
</a>
</g>
</g>
<!-- Node190&#45;&gt;Node192 -->
<g id="edge6" class="edge"><title>Node190&#45;&gt;Node192</title>
<path fill="none" stroke="midnightblue" d="M677.178,-150.898C700.598,-148.206 727.97,-145.06 750.781,-142.438"/>
<polygon fill="midnightblue" stroke="midnightblue" points="751.375,-145.893 760.91,-141.273 750.576,-138.938 751.375,-145.893"/>
</g>
<!-- Node193 -->
<g id="node8" class="node"><title>Node193</title>
<g id="a_node8"><a xlink:href="namespacemessages.html#a61fd0b51b5e37d58fdc993c01792a3fd" target="_top" xlink:title="messages::get_clock">
<polygon fill="white" stroke="black" points="916,-126.453 916,-147.453 1047,-147.453 1047,-126.453 916,-126.453"/>
<text text-anchor="middle" x="981.5" y="-133.853" font-family="Ubuntu Mono" font-size="12.00">messages::get_clock</text>
</a>
</g>
</g>
<!-- Node192&#45;&gt;Node193 -->
<g id="edge7" class="edge"><title>Node192&#45;&gt;Node193</title>
<path fill="none" stroke="midnightblue" d="M838.234,-136.953C857.81,-136.953 882.436,-136.953 905.672,-136.953"/>
<polygon fill="midnightblue" stroke="midnightblue" points="905.875,-140.453 915.875,-136.953 905.875,-133.453 905.875,-140.453"/>
</g>
<!-- Node196&#45;&gt;Node194 -->
<g id="edge11" class="edge"><title>Node196&#45;&gt;Node194</title>
<path fill="none" stroke="midnightblue" d="M871.124,-392.977C881.499,-394.303 892.234,-395.674 902.743,-397.017"/>
<polygon fill="midnightblue" stroke="midnightblue" points="902.366,-400.497 912.729,-398.293 903.254,-393.554 902.366,-400.497"/>
</g>
<!-- Node198 -->
<g id="node13" class="node"><title>Node198</title>
<g id="a_node13"><a xlink:href="grid__utilities_8f90.html#aaabf4a8fdce3679e99ff8f8a9a30fcaf" target="_top" xlink:title="calc_xyz_grid_vmec">
<polygon fill="white" stroke="black" points="561,-458.453 561,-479.453 686,-479.453 686,-458.453 561,-458.453"/>
<text text-anchor="middle" x="623.5" y="-465.853" font-family="Ubuntu Mono" font-size="12.00">calc_xyz_grid_vmec</text>
</a>
</g>
</g>
<!-- Node197&#45;&gt;Node198 -->
<g id="edge13" class="edge"><title>Node197&#45;&gt;Node198</title>
<path fill="none" stroke="midnightblue" d="M510.037,-457.707C523.313,-459.034 537.285,-460.431 550.695,-461.772"/>
<polygon fill="midnightblue" stroke="midnightblue" points="550.52,-465.272 560.819,-462.785 551.217,-458.307 550.52,-465.272"/>
</g>
<!-- Node199 -->
<g id="node14" class="node"><title>Node199</title>
<g id="a_node14"><a xlink:href="grid__utilities_8f90.html#ad39ac81f24bae991c679caf84a4ad757" target="_top" xlink:title="calc_xyz_grid_hel">
<polygon fill="white" stroke="black" points="564,-380.453 564,-401.453 683,-401.453 683,-380.453 564,-380.453"/>
<text text-anchor="middle" x="623.5" y="-387.853" font-family="Ubuntu Mono" font-size="12.00">calc_xyz_grid_hel</text>
</a>
</g>
</g>
<!-- Node197&#45;&gt;Node199 -->
<g id="edge15" class="edge"><title>Node197&#45;&gt;Node199</title>
<path fill="none" stroke="midnightblue" d="M494.898,-433.892C504.898,-430.611 515.277,-427.189 525,-423.953 543.568,-417.772 564.091,-410.841 581.499,-404.932"/>
<polygon fill="midnightblue" stroke="midnightblue" points="583.009,-408.116 591.351,-401.585 580.756,-401.488 583.009,-408.116"/>
</g>
<!-- Node198&#45;&gt;Node196 -->
<g id="edge14" class="edge"><title>Node198&#45;&gt;Node196</title>
<path fill="none" stroke="midnightblue" d="M646.185,-458.359C673.082,-445.22 719.607,-422.493 754.179,-405.604"/>
<polygon fill="midnightblue" stroke="midnightblue" points="756.138,-408.542 763.587,-401.008 753.065,-402.253 756.138,-408.542"/>
</g>
<!-- Node199&#45;&gt;Node196 -->
<g id="edge16" class="edge"><title>Node199&#45;&gt;Node196</title>
<path fill="none" stroke="midnightblue" d="M683.408,-388.583C694.465,-388.138 706.2,-387.666 717.786,-387.2"/>
<polygon fill="midnightblue" stroke="midnightblue" points="718.057,-390.692 727.908,-386.793 717.775,-383.698 718.057,-390.692"/>
</g>
<!-- Node200&#45;&gt;Node190 -->
<g id="edge19" class="edge"><title>Node200&#45;&gt;Node190</title>
<path fill="none" stroke="midnightblue" d="M489.793,-186.443C512.955,-181.296 541.029,-175.057 565.38,-169.646"/>
<polygon fill="midnightblue" stroke="midnightblue" points="566.208,-173.048 575.211,-167.461 564.69,-166.214 566.208,-173.048"/>
</g>
<!-- Node201&#45;&gt;Node190 -->
<g id="edge29" class="edge"><title>Node201&#45;&gt;Node190</title>
<path fill="none" stroke="midnightblue" d="M322.244,-120.44C378.99,-122.91 456.927,-127.725 525,-136.953 538.916,-138.839 553.824,-141.544 567.69,-144.357"/>
<polygon fill="midnightblue" stroke="midnightblue" points="567.07,-147.803 577.574,-146.414 568.497,-140.95 567.07,-147.803"/>
</g>
<!-- Node202 -->
<g id="node17" class="node"><title>Node202</title>
<g id="a_node17"><a xlink:href="namespacemessages.html#a2a1154de25763d4894275ff4307b6862" target="_top" xlink:title="messages::stop_time">
<polygon fill="white" stroke="black" points="376,-28.4528 376,-49.4528 507,-49.4528 507,-28.4528 376,-28.4528"/>
<text text-anchor="middle" x="441.5" y="-35.8528" font-family="Ubuntu Mono" font-size="12.00">messages::stop_time</text>
</a>
</g>
</g>
<!-- Node201&#45;&gt;Node202 -->
<g id="edge24" class="edge"><title>Node201&#45;&gt;Node202</title>
<path fill="none" stroke="midnightblue" d="M259.916,-107.413C282.031,-94.4219 321.687,-72.4165 358,-58.9528 364.745,-56.4519 371.918,-54.1776 379.109,-52.1344"/>
<polygon fill="midnightblue" stroke="midnightblue" points="380.148,-55.4792 388.889,-49.4919 378.322,-48.7216 380.148,-55.4792"/>
</g>
<!-- Node203 -->
<g id="node18" class="node"><title>Node203</title>
<g id="a_node18"><a xlink:href="namespacemessages.html#ad997c3dff64c512e0070ce8816c28e7f" target="_top" xlink:title="messages::start_time">
<polygon fill="white" stroke="black" points="373,-146.453 373,-167.453 510,-167.453 510,-146.453 373,-146.453"/>
<text text-anchor="middle" x="441.5" y="-153.853" font-family="Ubuntu Mono" font-size="12.00">messages::start_time</text>
</a>
</g>
</g>
<!-- Node201&#45;&gt;Node203 -->
<g id="edge26" class="edge"><title>Node201&#45;&gt;Node203</title>
<path fill="none" stroke="midnightblue" d="M295.821,-128.455C320.907,-133.397 351.006,-139.325 377.238,-144.492"/>
<polygon fill="midnightblue" stroke="midnightblue" points="376.596,-147.933 387.084,-146.431 377.949,-141.065 376.596,-147.933"/>
</g>
<!-- Node204 -->
<g id="node19" class="node"><title>Node204</title>
<g id="a_node19"><a xlink:href="namespacestr__utilities.html#a219964a283968cc6a968db0197d2187e" target="_top" xlink:title="str_utilities::strh2l">
<polygon fill="white" stroke="black" points="370,-68.4528 370,-89.4528 513,-89.4528 513,-68.4528 370,-68.4528"/>
<text text-anchor="middle" x="441.5" y="-75.8528" font-family="Ubuntu Mono" font-size="12.00">str_utilities::strh2l</text>
</a>
</g>
</g>
<!-- Node201&#45;&gt;Node204 -->
<g id="edge28" class="edge"><title>Node201&#45;&gt;Node204</title>
<path fill="none" stroke="midnightblue" d="M295.821,-107.45C320.907,-102.509 351.006,-96.5804 377.238,-91.4135"/>
<polygon fill="midnightblue" stroke="midnightblue" points="377.949,-94.8408 387.084,-89.4741 376.596,-87.9727 377.949,-94.8408"/>
</g>
<!-- Node202&#45;&gt;Node190 -->
<g id="edge25" class="edge"><title>Node202&#45;&gt;Node190</title>
<path fill="none" stroke="midnightblue" d="M503.017,-49.5056C510.67,-52.0168 518.194,-55.1199 525,-58.9528 560.63,-79.0185 592.022,-115.785 609.034,-138.134"/>
<polygon fill="midnightblue" stroke="midnightblue" points="606.252,-140.258 615.025,-146.198 611.871,-136.084 606.252,-140.258"/>
</g>
<!-- Node203&#45;&gt;Node190 -->
<g id="edge27" class="edge"><title>Node203&#45;&gt;Node190</title>
<path fill="none" stroke="midnightblue" d="M510.037,-156.953C526.24,-156.953 543.481,-156.953 559.47,-156.953"/>
<polygon fill="midnightblue" stroke="midnightblue" points="559.773,-160.453 569.773,-156.953 559.773,-153.453 559.773,-160.453"/>
</g>
</g>
</svg>
