<?xml version="1.0" encoding="UTF-8" standalone="no"?>
<!DOCTYPE svg PUBLIC "-//W3C//DTD SVG 1.1//EN"
 "http://www.w3.org/Graphics/SVG/1.1/DTD/svg11.dtd">
<!-- Generated by graphviz version 2.38.0 (20140413.2041)
 -->
<!-- Title: x_ops::calc_magn_ints Pages: 1 -->
<svg width="700pt" height="149pt"
 viewBox="0.00 0.00 700.00 149.00" xmlns="http://www.w3.org/2000/svg" xmlns:xlink="http://www.w3.org/1999/xlink">
<g id="graph0" class="graph" transform="scale(1 1) rotate(0) translate(4 145)">
<title>x_ops::calc_magn_ints</title>
<polygon fill="white" stroke="none" points="-4,4 -4,-145 696,-145 696,4 -4,4"/>
<!-- Node5 -->
<g id="node1" class="node"><title>Node5</title>
<polygon fill="#bfbfbf" stroke="black" points="0,-59.5 0,-80.5 143,-80.5 143,-59.5 0,-59.5"/>
<text text-anchor="middle" x="71.5" y="-66.9" font-family="Ubuntu Mono" font-size="12.00">x_ops::calc_magn_ints</text>
</g>
<!-- Node6 -->
<g id="node2" class="node"><title>Node6</title>
<g id="a_node2"><a xlink:href="namespacex__utilities.html#a689aca7fedb49c43c5a65a18d557259f" target="_top" xlink:title="Determines whether a variable needs to be considered: ">
<polygon fill="white" stroke="black" points="179,-119.5 179,-140.5 358,-140.5 358,-119.5 179,-119.5"/>
<text text-anchor="middle" x="268.5" y="-126.9" font-family="Ubuntu Mono" font-size="12.00">x_utilities::is_necessary_x</text>
</a>
</g>
</g>
<!-- Node5&#45;&gt;Node6 -->
<g id="edge1" class="edge"><title>Node5&#45;&gt;Node6</title>
<path fill="none" stroke="midnightblue" d="M97.5584,-80.526C118.932,-89.2334 150.618,-101.507 179,-110 187.443,-112.526 196.422,-114.904 205.3,-117.077"/>
<polygon fill="midnightblue" stroke="midnightblue" points="204.708,-120.533 215.246,-119.44 206.326,-113.723 204.708,-120.533"/>
</g>
<!-- Node7 -->
<g id="node3" class="node"><title>Node7</title>
<g id="a_node3"><a xlink:href="namespacenum__utilities.html#a5ee3fbd1fe67d0deefc7194631389f2a" target="_top" xlink:title="Convert 2&#45;D coordinates (i,j) to the storage convention used in matrices. ">
<polygon fill="white" stroke="black" points="212,-79.5 212,-100.5 325,-100.5 325,-79.5 212,-79.5"/>
<text text-anchor="middle" x="268.5" y="-86.9" font-family="Ubuntu Mono" font-size="12.00">num_utilities::c</text>
</a>
</g>
</g>
<!-- Node5&#45;&gt;Node7 -->
<g id="edge2" class="edge"><title>Node5&#45;&gt;Node7</title>
<path fill="none" stroke="midnightblue" d="M143.175,-77.2487C162.3,-79.2103 182.918,-81.3249 201.76,-83.2574"/>
<polygon fill="midnightblue" stroke="midnightblue" points="201.422,-86.7411 211.727,-84.2797 202.137,-79.7776 201.422,-86.7411"/>
</g>
<!-- Node8 -->
<g id="node4" class="node"><title>Node8</title>
<g id="a_node4"><a xlink:href="namespacemessages.html#aa4a8d01563e92558e8a0875b075ec54c" target="_top" xlink:title="Write output to file identified by output_i. ">
<polygon fill="white" stroke="black" points="394,-20.5 394,-41.5 501,-41.5 501,-20.5 394,-20.5"/>
<text text-anchor="middle" x="447.5" y="-27.9" font-family="Ubuntu Mono" font-size="12.00">messages::writo</text>
</a>
</g>
</g>
<!-- Node5&#45;&gt;Node8 -->
<g id="edge3" class="edge"><title>Node5&#45;&gt;Node8</title>
<path fill="none" stroke="midnightblue" d="M143.286,-62.6185C212.536,-55.3973 317.015,-44.5025 383.473,-37.5723"/>
<polygon fill="midnightblue" stroke="midnightblue" points="384.219,-41.0136 393.802,-36.4952 383.493,-34.0514 384.219,-41.0136"/>
</g>
<!-- Node11 -->
<g id="node7" class="node"><title>Node11</title>
<g id="a_node7"><a xlink:href="namespacemessages.html#a6e6bfb084063e4cc91ee86e542043302" target="_top" xlink:title="Increases/decreases lvl of output. ">
<polygon fill="white" stroke="black" points="212,-1.5 212,-22.5 325,-22.5 325,-1.5 212,-1.5"/>
<text text-anchor="middle" x="268.5" y="-8.9" font-family="Ubuntu Mono" font-size="12.00">messages::lvl_ud</text>
</a>
</g>
</g>
<!-- Node5&#45;&gt;Node11 -->
<g id="edge6" class="edge"><title>Node5&#45;&gt;Node11</title>
<path fill="none" stroke="midnightblue" d="M106.011,-59.3795C126.951,-52.8018 154.501,-44.2548 179,-37 192.053,-33.1347 206.229,-29.0708 219.331,-25.3695"/>
<polygon fill="midnightblue" stroke="midnightblue" points="220.427,-28.6971 229.105,-22.619 218.531,-21.9588 220.427,-28.6971"/>
</g>
<!-- Node9 -->
<g id="node5" class="node"><title>Node9</title>
<g id="a_node5"><a xlink:href="namespacemessages.html#a82dddaab795b78b3d39e1ff1aab2f665" target="_top" xlink:title="Returns the memory usage in kilobytes. ">
<polygon fill="white" stroke="black" points="537,-40.5 537,-61.5 692,-61.5 692,-40.5 537,-40.5"/>
<text text-anchor="middle" x="614.5" y="-47.9" font-family="Ubuntu Mono" font-size="12.00">messages::get_mem_usage</text>
</a>
</g>
</g>
<!-- Node8&#45;&gt;Node9 -->
<g id="edge4" class="edge"><title>Node8&#45;&gt;Node9</title>
<path fill="none" stroke="midnightblue" d="M501.161,-37.3831C509.452,-38.3881 518.208,-39.4495 527.025,-40.5182"/>
<polygon fill="midnightblue" stroke="midnightblue" points="526.635,-43.9965 536.984,-41.7253 527.478,-37.0474 526.635,-43.9965"/>
</g>
<!-- Node10 -->
<g id="node6" class="node"><title>Node10</title>
<g id="a_node6"><a xlink:href="namespacemessages.html#a61fd0b51b5e37d58fdc993c01792a3fd" target="_top" xlink:title="Returns the time. ">
<polygon fill="white" stroke="black" points="549,-0.5 549,-21.5 680,-21.5 680,-0.5 549,-0.5"/>
<text text-anchor="middle" x="614.5" y="-7.9" font-family="Ubuntu Mono" font-size="12.00">messages::get_clock</text>
</a>
</g>
</g>
<!-- Node8&#45;&gt;Node10 -->
<g id="edge5" class="edge"><title>Node8&#45;&gt;Node10</title>
<path fill="none" stroke="midnightblue" d="M501.161,-24.6169C513.142,-23.1646 526.094,-21.5947 538.797,-20.0549"/>
<polygon fill="midnightblue" stroke="midnightblue" points="539.402,-23.5073 548.908,-18.8293 538.56,-16.5581 539.402,-23.5073"/>
</g>
<!-- Node11&#45;&gt;Node8 -->
<g id="edge7" class="edge"><title>Node11&#45;&gt;Node8</title>
<path fill="none" stroke="midnightblue" d="M325.018,-17.9596C343.667,-19.9614 364.595,-22.208 383.759,-24.2651"/>
<polygon fill="midnightblue" stroke="midnightblue" points="383.58,-27.7659 393.897,-25.3533 384.327,-20.8059 383.58,-27.7659"/>
</g>
</g>
</svg>
