<?xml version="1.0" encoding="UTF-8" standalone="no"?>
<!DOCTYPE svg PUBLIC "-//W3C//DTD SVG 1.1//EN"
 "http://www.w3.org/Graphics/SVG/1.1/DTD/svg11.dtd">
<!-- Generated by graphviz version 2.38.0 (20140413.2041)
 -->
<!-- Title: eq_utilities::calc_memory_eq Pages: 1 -->
<svg width="783pt" height="70pt"
 viewBox="0.00 0.00 783.00 70.00" xmlns="http://www.w3.org/2000/svg" xmlns:xlink="http://www.w3.org/1999/xlink">
<g id="graph0" class="graph" transform="scale(1 1) rotate(0) translate(4 66)">
<title>eq_utilities::calc_memory_eq</title>
<polygon fill="white" stroke="none" points="-4,4 -4,-66 779,-66 779,4 -4,4"/>
<!-- Node27 -->
<g id="node1" class="node"><title>Node27</title>
<polygon fill="#bfbfbf" stroke="black" points="0,-14 0,-48 125,-48 125,-14 0,-14"/>
<text text-anchor="start" x="8" y="-34.4" font-family="Ubuntu Mono" font-size="12.00">eq_utilities::calc</text>
<text text-anchor="middle" x="62.5" y="-21.4" font-family="Ubuntu Mono" font-size="12.00">_memory_eq</text>
</g>
<!-- Node28 -->
<g id="node2" class="node"><title>Node28</title>
<g id="a_node2"><a xlink:href="namespacemessages.html#a6e6bfb084063e4cc91ee86e542043302" target="_top" xlink:title="messages::lvl_ud">
<polygon fill="white" stroke="black" points="161,-20.5 161,-41.5 274,-41.5 274,-20.5 161,-20.5"/>
<text text-anchor="middle" x="217.5" y="-27.9" font-family="Ubuntu Mono" font-size="12.00">messages::lvl_ud</text>
</a>
</g>
</g>
<!-- Node27&#45;&gt;Node28 -->
<g id="edge1" class="edge"><title>Node27&#45;&gt;Node28</title>
<path fill="none" stroke="midnightblue" d="M125.29,-31C133.663,-31 142.279,-31 150.719,-31"/>
<polygon fill="midnightblue" stroke="midnightblue" points="150.897,-34.5001 160.897,-31 150.897,-27.5001 150.897,-34.5001"/>
</g>
<!-- Node29 -->
<g id="node3" class="node"><title>Node29</title>
<g id="a_node3"><a xlink:href="namespacemessages.html#aa4a8d01563e92558e8a0875b075ec54c" target="_top" xlink:title="messages::writo">
<polygon fill="white" stroke="black" points="310,-20.5 310,-41.5 417,-41.5 417,-20.5 310,-20.5"/>
<text text-anchor="middle" x="363.5" y="-27.9" font-family="Ubuntu Mono" font-size="12.00">messages::writo</text>
</a>
</g>
</g>
<!-- Node28&#45;&gt;Node29 -->
<g id="edge2" class="edge"><title>Node28&#45;&gt;Node29</title>
<path fill="none" stroke="midnightblue" d="M274.174,-31C282.502,-31 291.137,-31 299.601,-31"/>
<polygon fill="midnightblue" stroke="midnightblue" points="299.809,-34.5001 309.809,-31 299.809,-27.5001 299.809,-34.5001"/>
</g>
<!-- Node30 -->
<g id="node4" class="node"><title>Node30</title>
<g id="a_node4"><a xlink:href="namespacemessages.html#a82dddaab795b78b3d39e1ff1aab2f665" target="_top" xlink:title="messages::get_mem_usage">
<polygon fill="white" stroke="black" points="453,-40.5 453,-61.5 608,-61.5 608,-40.5 453,-40.5"/>
<text text-anchor="middle" x="530.5" y="-47.9" font-family="Ubuntu Mono" font-size="12.00">messages::get_mem_usage</text>
</a>
</g>
</g>
<!-- Node29&#45;&gt;Node30 -->
<g id="edge3" class="edge"><title>Node29&#45;&gt;Node30</title>
<path fill="none" stroke="midnightblue" d="M417.161,-37.3831C425.452,-38.3881 434.208,-39.4495 443.025,-40.5182"/>
<polygon fill="midnightblue" stroke="midnightblue" points="442.635,-43.9965 452.984,-41.7253 443.478,-37.0474 442.635,-43.9965"/>
</g>
<!-- Node31 -->
<g id="node5" class="node"><title>Node31</title>
<g id="a_node5"><a xlink:href="messages_8f90.html#a6d15f28783f95a7a4b2a44185619792f" target="_top" xlink:title="format_str">
<polygon fill="white" stroke="black" points="492,-0.5 492,-21.5 569,-21.5 569,-0.5 492,-0.5"/>
<text text-anchor="middle" x="530.5" y="-7.9" font-family="Ubuntu Mono" font-size="12.00">format_str</text>
</a>
</g>
</g>
<!-- Node29&#45;&gt;Node31 -->
<g id="edge4" class="edge"><title>Node29&#45;&gt;Node31</title>
<path fill="none" stroke="midnightblue" d="M417.161,-24.6169C437.977,-22.0937 461.722,-19.2155 482.002,-16.7573"/>
<polygon fill="midnightblue" stroke="midnightblue" points="482.448,-20.229 491.954,-15.551 481.606,-13.2798 482.448,-20.229"/>
</g>
<!-- Node32 -->
<g id="node6" class="node"><title>Node32</title>
<g id="a_node6"><a xlink:href="namespacemessages.html#a61fd0b51b5e37d58fdc993c01792a3fd" target="_top" xlink:title="messages::get_clock">
<polygon fill="white" stroke="black" points="644,-0.5 644,-21.5 775,-21.5 775,-0.5 644,-0.5"/>
<text text-anchor="middle" x="709.5" y="-7.9" font-family="Ubuntu Mono" font-size="12.00">messages::get_clock</text>
</a>
</g>
</g>
<!-- Node31&#45;&gt;Node32 -->
<g id="edge5" class="edge"><title>Node31&#45;&gt;Node32</title>
<path fill="none" stroke="midnightblue" d="M569.037,-11C587.869,-11 611.372,-11 633.685,-11"/>
<polygon fill="midnightblue" stroke="midnightblue" points="633.832,-14.5001 643.832,-11 633.832,-7.5001 633.832,-14.5001"/>
</g>
</g>
</svg>
