<?xml version="1.0" encoding="UTF-8" standalone="no"?>
<!DOCTYPE svg PUBLIC "-//W3C//DTD SVG 1.1//EN"
 "http://www.w3.org/Graphics/SVG/1.1/DTD/svg11.dtd">
<!-- Generated by graphviz version 2.38.0 (20140413.2041)
 -->
<!-- Title: eq_ops::divide_eq_jobs Pages: 1 -->
<svg width="849pt" height="240pt"
 viewBox="0.00 0.00 849.00 239.50" xmlns="http://www.w3.org/2000/svg" xmlns:xlink="http://www.w3.org/1999/xlink">
<g id="graph0" class="graph" transform="scale(1 1) rotate(0) translate(4 235.5)">
<title>eq_ops::divide_eq_jobs</title>
<polygon fill="white" stroke="none" points="-4,4 -4,-235.5 845,-235.5 845,4 -4,4"/>
<!-- Node99 -->
<g id="node1" class="node"><title>Node99</title>
<polygon fill="#bfbfbf" stroke="black" points="0,-98.5 0,-119.5 149,-119.5 149,-98.5 0,-98.5"/>
<text text-anchor="middle" x="74.5" y="-105.9" font-family="Ubuntu Mono" font-size="12.00">eq_ops::divide_eq_jobs</text>
</g>
<!-- Node100 -->
<g id="node2" class="node"><title>Node100</title>
<g id="a_node2"><a xlink:href="namespaceeq__utilities.html#a5a9f230ed9a6e627e31e882e9f4a00a1" target="_top" xlink:title="Calculate memory in MB necessary for variables in equilibrium job. ">
<polygon fill="white" stroke="black" points="209,-197 209,-231 334,-231 334,-197 209,-197"/>
<text text-anchor="start" x="217" y="-217.4" font-family="Ubuntu Mono" font-size="12.00">eq_utilities::calc</text>
<text text-anchor="middle" x="271.5" y="-204.4" font-family="Ubuntu Mono" font-size="12.00">_memory_eq</text>
</a>
</g>
</g>
<!-- Node99&#45;&gt;Node100 -->
<g id="edge1" class="edge"><title>Node99&#45;&gt;Node100</title>
<path fill="none" stroke="midnightblue" d="M89.0425,-119.527C109.128,-134.784 148.391,-163.262 185,-182 192.791,-185.987 201.198,-189.744 209.595,-193.183"/>
<polygon fill="midnightblue" stroke="midnightblue" points="208.45,-196.494 219.036,-196.926 211.03,-189.987 208.45,-196.494"/>
</g>
<!-- Node101 -->
<g id="node3" class="node"><title>Node101</title>
<g id="a_node3"><a xlink:href="namespacemessages.html#a6e6bfb084063e4cc91ee86e542043302" target="_top" xlink:title="Increases/decreases lvl of output. ">
<polygon fill="white" stroke="black" points="394,-137.5 394,-158.5 507,-158.5 507,-137.5 394,-137.5"/>
<text text-anchor="middle" x="450.5" y="-144.9" font-family="Ubuntu Mono" font-size="12.00">messages::lvl_ud</text>
</a>
</g>
</g>
<!-- Node99&#45;&gt;Node101 -->
<g id="edge9" class="edge"><title>Node99&#45;&gt;Node101</title>
<path fill="none" stroke="midnightblue" d="M97.5108,-119.648C119.181,-129.498 153.511,-143.429 185,-149 251.907,-160.838 329.832,-158.657 383.687,-154.709"/>
<polygon fill="midnightblue" stroke="midnightblue" points="384.09,-158.188 393.79,-153.927 383.55,-151.209 384.09,-158.188"/>
</g>
<!-- Node102 -->
<g id="node4" class="node"><title>Node102</title>
<g id="a_node4"><a xlink:href="namespacemessages.html#aa4a8d01563e92558e8a0875b075ec54c" target="_top" xlink:title="Write output to file identified by output_i. ">
<polygon fill="white" stroke="black" points="543,-108.5 543,-129.5 650,-129.5 650,-108.5 543,-108.5"/>
<text text-anchor="middle" x="596.5" y="-115.9" font-family="Ubuntu Mono" font-size="12.00">messages::writo</text>
</a>
</g>
</g>
<!-- Node99&#45;&gt;Node102 -->
<g id="edge8" class="edge"><title>Node99&#45;&gt;Node102</title>
<path fill="none" stroke="midnightblue" d="M149.266,-108.151C206.272,-107.701 287.145,-107.509 358,-109 417.197,-110.246 484.638,-113.236 532.49,-115.624"/>
<polygon fill="midnightblue" stroke="midnightblue" points="532.532,-119.131 542.696,-116.139 532.885,-112.14 532.532,-119.131"/>
</g>
<!-- Node105 -->
<g id="node7" class="node"><title>Node105</title>
<g id="a_node7"><a xlink:href="namespacex__utilities.html#a4d18921da77463d069346f1c7322b451" target="_top" xlink:title="Calculate memory in MB necessary for X variables. ">
<polygon fill="white" stroke="black" points="185,-118.5 185,-139.5 358,-139.5 358,-118.5 185,-118.5"/>
<text text-anchor="middle" x="271.5" y="-125.9" font-family="Ubuntu Mono" font-size="12.00">x_utilities::calc_memory_x</text>
</a>
</g>
</g>
<!-- Node99&#45;&gt;Node105 -->
<g id="edge6" class="edge"><title>Node99&#45;&gt;Node105</title>
<path fill="none" stroke="midnightblue" d="M149.221,-116.561C157.593,-117.42 166.214,-118.304 174.817,-119.186"/>
<polygon fill="midnightblue" stroke="midnightblue" points="174.585,-122.681 184.89,-120.22 175.3,-115.717 174.585,-122.681"/>
</g>
<!-- Node106 -->
<g id="node8" class="node"><title>Node106</title>
<g id="a_node8"><a xlink:href="namespacestr__utilities.html#a0b97e51770725a3e98ed393d26681414" target="_top" xlink:title="Convert an integer to string. ">
<polygon fill="white" stroke="black" points="203,-40.5 203,-61.5 340,-61.5 340,-40.5 203,-40.5"/>
<text text-anchor="middle" x="271.5" y="-47.9" font-family="Ubuntu Mono" font-size="12.00">str_utilities::i2str</text>
</a>
</g>
</g>
<!-- Node99&#45;&gt;Node106 -->
<g id="edge10" class="edge"><title>Node99&#45;&gt;Node106</title>
<path fill="none" stroke="midnightblue" d="M110.491,-98.3746C131.977,-91.8702 160.066,-83.4025 185,-76 197.751,-72.2144 211.585,-68.1506 224.335,-64.4229"/>
<polygon fill="midnightblue" stroke="midnightblue" points="225.668,-67.6798 234.287,-61.5171 223.706,-60.9604 225.668,-67.6798"/>
</g>
<!-- Node107 -->
<g id="node9" class="node"><title>Node107</title>
<g id="a_node9"><a xlink:href="namespacestr__utilities.html#ac778d706b2e021672618939ab58fdd32" target="_top" xlink:title="Convert a real (double) to string. ">
<polygon fill="white" stroke="black" points="200,-0.5 200,-21.5 343,-21.5 343,-0.5 200,-0.5"/>
<text text-anchor="middle" x="271.5" y="-7.9" font-family="Ubuntu Mono" font-size="12.00">str_utilities::r2strt</text>
</a>
</g>
</g>
<!-- Node99&#45;&gt;Node107 -->
<g id="edge11" class="edge"><title>Node99&#45;&gt;Node107</title>
<path fill="none" stroke="midnightblue" d="M87.0159,-98.4315C105.989,-81.5959 145.65,-48.7791 185,-31 190.34,-28.5873 196.004,-26.4483 201.774,-24.5551"/>
<polygon fill="midnightblue" stroke="midnightblue" points="202.99,-27.8439 211.546,-21.5962 200.961,-21.1443 202.99,-27.8439"/>
</g>
<!-- Node100&#45;&gt;Node101 -->
<g id="edge2" class="edge"><title>Node100&#45;&gt;Node101</title>
<path fill="none" stroke="midnightblue" d="M318.543,-196.832C347.462,-186.048 384.307,-172.309 411.544,-162.153"/>
<polygon fill="midnightblue" stroke="midnightblue" points="412.965,-165.359 421.112,-158.585 410.519,-158.8 412.965,-165.359"/>
</g>
<!-- Node101&#45;&gt;Node102 -->
<g id="edge3" class="edge"><title>Node101&#45;&gt;Node102</title>
<path fill="none" stroke="midnightblue" d="M503.895,-137.448C513.325,-135.549 523.24,-133.552 532.925,-131.602"/>
<polygon fill="midnightblue" stroke="midnightblue" points="533.791,-134.998 542.903,-129.592 532.409,-128.136 533.791,-134.998"/>
</g>
<!-- Node103 -->
<g id="node5" class="node"><title>Node103</title>
<g id="a_node5"><a xlink:href="namespacemessages.html#a82dddaab795b78b3d39e1ff1aab2f665" target="_top" xlink:title="Returns the memory usage in kilobytes. ">
<polygon fill="white" stroke="black" points="686,-128.5 686,-149.5 841,-149.5 841,-128.5 686,-128.5"/>
<text text-anchor="middle" x="763.5" y="-135.9" font-family="Ubuntu Mono" font-size="12.00">messages::get_mem_usage</text>
</a>
</g>
</g>
<!-- Node102&#45;&gt;Node103 -->
<g id="edge4" class="edge"><title>Node102&#45;&gt;Node103</title>
<path fill="none" stroke="midnightblue" d="M650.161,-125.383C658.452,-126.388 667.208,-127.449 676.025,-128.518"/>
<polygon fill="midnightblue" stroke="midnightblue" points="675.635,-131.996 685.984,-129.725 676.478,-125.047 675.635,-131.996"/>
</g>
<!-- Node104 -->
<g id="node6" class="node"><title>Node104</title>
<g id="a_node6"><a xlink:href="namespacemessages.html#a61fd0b51b5e37d58fdc993c01792a3fd" target="_top" xlink:title="Returns the time. ">
<polygon fill="white" stroke="black" points="698,-88.5 698,-109.5 829,-109.5 829,-88.5 698,-88.5"/>
<text text-anchor="middle" x="763.5" y="-95.9" font-family="Ubuntu Mono" font-size="12.00">messages::get_clock</text>
</a>
</g>
</g>
<!-- Node102&#45;&gt;Node104 -->
<g id="edge5" class="edge"><title>Node102&#45;&gt;Node104</title>
<path fill="none" stroke="midnightblue" d="M650.161,-112.617C662.142,-111.165 675.094,-109.595 687.797,-108.055"/>
<polygon fill="midnightblue" stroke="midnightblue" points="688.402,-111.507 697.908,-106.829 687.56,-104.558 688.402,-111.507"/>
</g>
<!-- Node105&#45;&gt;Node101 -->
<g id="edge7" class="edge"><title>Node105&#45;&gt;Node101</title>
<path fill="none" stroke="midnightblue" d="M358.148,-138.194C366.806,-139.123 375.5,-140.056 383.898,-140.958"/>
<polygon fill="midnightblue" stroke="midnightblue" points="383.657,-144.452 393.973,-142.039 384.404,-137.492 383.657,-144.452"/>
</g>
</g>
</svg>
