<?xml version="1.0" encoding="UTF-8" standalone="no"?>
<!DOCTYPE svg PUBLIC "-//W3C//DTD SVG 1.1//EN"
 "http://www.w3.org/Graphics/SVG/1.1/DTD/svg11.dtd">
<!-- Generated by graphviz version 14.1.2 (20260124.0452)
 -->
<!-- Title: input_utilities::get_int Pages: 1 -->
<svg width="672pt" height="152pt"
 viewBox="0.00 0.00 672.00 152.00" xmlns="http://www.w3.org/2000/svg" xmlns:xlink="http://www.w3.org/1999/xlink">
<g id="graph0" class="graph" transform="scale(1 1) rotate(0) translate(4 147.75)">
<title>input_utilities::get_int</title>
<!-- Node1 -->
<g id="Node000001" class="node">
<title>Node1</title>
<g id="a_Node000001"><a xlink:title="Queries for user input for an integer value, where allowable range can be provided as well.">
<polygon fill="#999999" stroke="#666666" points="160,-77.75 0,-77.75 0,-57 160,-57 160,-77.75"/>
<text xml:space="preserve" text-anchor="middle" x="80" y="-62.35" font-family="Ubuntu Mono" font-size="12.00">input_utilities::get_int</text>
</a>
</g>
</g>
<!-- Node2 -->
<g id="Node000002" class="node">
<title>Node2</title>
<g id="a_Node000002"><a xlink:href="namespacestr__utilities.html#a0b97e51770725a3e98ed393d26681414" target="_top" xlink:title="Convert an integer to string.">
<polygon fill="white" stroke="#666666" points="655,-125.75 519,-125.75 519,-105 655,-105 655,-125.75"/>
<text xml:space="preserve" text-anchor="middle" x="587" y="-110.35" font-family="Ubuntu Mono" font-size="12.00">str_utilities::i2str</text>
</a>
</g>
</g>
<!-- Node1&#45;&gt;Node2 -->
<g id="edge1_Node000001_Node000002" class="edge">
<title>Node1&#45;&gt;Node2</title>
<g id="a_edge1_Node000001_Node000002"><a xlink:title=" ">
<path fill="none" stroke="#63b8ff" d="M106.48,-78.2C129.42,-87.36 164.31,-99.86 196,-105.38 302.69,-123.95 428.24,-123.22 507.47,-120.06"/>
<polygon fill="#63b8ff" stroke="#63b8ff" points="507.47,-123.56 517.31,-119.64 507.17,-116.57 507.47,-123.56"/>
</a>
</g>
</g>
<!-- Node3 -->
<g id="Node000003" class="node">
<title>Node3</title>
<g id="a_Node000003"><a xlink:href="namespacemessages.html#a84d5988f3ea5ca8dc2834032f896ae90" target="_top" xlink:title="Start a timer.">
<polygon fill="white" stroke="#666666" points="332,-96.75 196,-96.75 196,-76 332,-76 332,-96.75"/>
<text xml:space="preserve" text-anchor="middle" x="264" y="-81.35" font-family="Ubuntu Mono" font-size="12.00">messages::start_time</text>
</a>
</g>
</g>
<!-- Node1&#45;&gt;Node3 -->
<g id="edge3_Node000001_Node000003" class="edge">
<title>Node1&#45;&gt;Node3</title>
<g id="a_edge3_Node000001_Node000003"><a xlink:title=" ">
<path fill="none" stroke="#63b8ff" d="M160.3,-75.65C168.31,-76.49 176.44,-77.34 184.44,-78.17"/>
<polygon fill="#63b8ff" stroke="#63b8ff" points="183.82,-81.63 194.13,-79.19 184.55,-74.67 183.82,-81.63"/>
</a>
</g>
</g>
<!-- Node4 -->
<g id="Node000004" class="node">
<title>Node4</title>
<g id="a_Node000004"><a xlink:href="namespacemessages.html#aa4a8d01563e92558e8a0875b075ec54c" target="_top" xlink:title="Write output to file identified by output_i.">
<polygon fill="white" stroke="#666666" points="474,-76.75 368,-76.75 368,-56 474,-56 474,-76.75"/>
<text xml:space="preserve" text-anchor="middle" x="421" y="-61.35" font-family="Ubuntu Mono" font-size="12.00">messages::writo</text>
</a>
</g>
</g>
<!-- Node1&#45;&gt;Node4 -->
<g id="edge9_Node000001_Node000004" class="edge">
<title>Node1&#45;&gt;Node4</title>
<g id="a_edge9_Node000001_Node000004"><a xlink:title=" ">
<path fill="none" stroke="#63b8ff" d="M160.48,-67.14C220.13,-66.96 300.74,-66.73 356.21,-66.56"/>
<polygon fill="#63b8ff" stroke="#63b8ff" points="356.15,-70.06 366.14,-66.53 356.13,-63.06 356.15,-70.06"/>
</a>
</g>
</g>
<!-- Node6 -->
<g id="Node000006" class="node">
<title>Node6</title>
<g id="a_Node000006"><a xlink:href="namespacemessages.html#aed343894ae4a28ad6dfbd1d39aac64ff" target="_top" xlink:title="Stop a timer.">
<polygon fill="white" stroke="#666666" points="329,-20.75 199,-20.75 199,0 329,0 329,-20.75"/>
<text xml:space="preserve" text-anchor="middle" x="264" y="-5.35" font-family="Ubuntu Mono" font-size="12.00">messages::stop_time</text>
</a>
</g>
</g>
<!-- Node1&#45;&gt;Node6 -->
<g id="edge7_Node000001_Node000006" class="edge">
<title>Node1&#45;&gt;Node6</title>
<g id="a_edge7_Node000001_Node000006"><a xlink:title=" ">
<path fill="none" stroke="#63b8ff" d="M115.66,-56.52C144.63,-47.45 186.16,-34.44 217.75,-24.55"/>
<polygon fill="#63b8ff" stroke="#63b8ff" points="218.53,-27.97 227.02,-21.64 216.43,-21.29 218.53,-27.97"/>
</a>
</g>
</g>
<!-- Node2&#45;&gt;Node2 -->
<g id="edge2_Node000002_Node000002" class="edge">
<title>Node2&#45;&gt;Node2</title>
<g id="a_edge2_Node000002_Node000002"><a xlink:title=" ">
<path fill="none" stroke="#63b8ff" d="M560.25,-126.15C549.55,-134.81 558.47,-143.75 587,-143.75 602.6,-143.75 612.34,-141.08 616.21,-137.24"/>
<polygon fill="#63b8ff" stroke="#63b8ff" points="619.66,-136.63 614.08,-127.62 612.83,-138.15 619.66,-136.63"/>
</a>
</g>
</g>
<!-- Node3&#45;&gt;Node4 -->
<g id="edge4_Node000003_Node000004" class="edge">
<title>Node3&#45;&gt;Node4</title>
<g id="a_edge4_Node000003_Node000004"><a xlink:title=" ">
<path fill="none" stroke="#63b8ff" d="M332.08,-77.72C340.2,-76.67 348.48,-75.6 356.54,-74.56"/>
<polygon fill="#63b8ff" stroke="#63b8ff" points="356.79,-78.06 366.26,-73.31 355.9,-71.12 356.79,-78.06"/>
</a>
</g>
</g>
<!-- Node4&#45;&gt;Node2 -->
<g id="edge6_Node000004_Node000002" class="edge">
<title>Node4&#45;&gt;Node2</title>
<g id="a_edge6_Node000004_Node000002"><a xlink:title=" ">
<path fill="none" stroke="#63b8ff" d="M458.4,-77.25C482.07,-84.32 513.18,-93.62 538.76,-101.26"/>
<polygon fill="#63b8ff" stroke="#63b8ff" points="537.67,-104.59 548.25,-104.1 539.68,-97.88 537.67,-104.59"/>
</a>
</g>
</g>
<!-- Node5 -->
<g id="Node000005" class="node">
<title>Node5</title>
<g id="a_Node000005"><a xlink:href="namespacemessages.html#a82dddaab795b78b3d39e1ff1aab2f665" target="_top" xlink:title="Returns the memory usage in kilobytes.">
<polygon fill="white" stroke="#666666" points="664,-76.75 510,-76.75 510,-56 664,-56 664,-76.75"/>
<text xml:space="preserve" text-anchor="middle" x="587" y="-61.35" font-family="Ubuntu Mono" font-size="12.00">messages::get_mem_usage</text>
</a>
</g>
</g>
<!-- Node4&#45;&gt;Node5 -->
<g id="edge5_Node000004_Node000005" class="edge">
<title>Node4&#45;&gt;Node5</title>
<g id="a_edge5_Node000004_Node000005"><a xlink:title=" ">
<path fill="none" stroke="#63b8ff" d="M474.34,-66.38C481.99,-66.38 490.03,-66.38 498.15,-66.38"/>
<polygon fill="#63b8ff" stroke="#63b8ff" points="498.14,-69.88 508.14,-66.38 498.14,-62.88 498.14,-69.88"/>
</a>
</g>
</g>
<!-- Node6&#45;&gt;Node4 -->
<g id="edge8_Node000006_Node000004" class="edge">
<title>Node6&#45;&gt;Node4</title>
<g id="a_edge8_Node000006_Node000004"><a xlink:title=" ">
<path fill="none" stroke="#63b8ff" d="M295.36,-21.22C306.85,-25.33 320.03,-30.05 332,-34.38 347.63,-40.02 364.8,-46.25 379.8,-51.71"/>
<polygon fill="#63b8ff" stroke="#63b8ff" points="378.26,-54.88 388.86,-55.01 380.66,-48.3 378.26,-54.88"/>
</a>
</g>
</g>
</g>
</svg>
