<?xml version="1.0" encoding="UTF-8" standalone="no"?>
<!DOCTYPE svg PUBLIC "-//W3C//DTD SVG 1.1//EN"
 "http://www.w3.org/Graphics/SVG/1.1/DTD/svg11.dtd">
<!-- Generated by graphviz version 2.38.0 (20140413.2041)
 -->
<!-- Title: driver_post::stop_post Pages: 1 -->
<svg width="1100pt" height="105pt"
 viewBox="0.00 0.00 1100.00 104.58" xmlns="http://www.w3.org/2000/svg" xmlns:xlink="http://www.w3.org/1999/xlink">
<g id="graph0" class="graph" transform="scale(1 1) rotate(0) translate(4 100.585)">
<title>driver_post::stop_post</title>
<polygon fill="white" stroke="none" points="-4,4 -4,-100.585 1096,-100.585 1096,4 -4,4"/>
<!-- Node183 -->
<g id="node1" class="node"><title>Node183</title>
<polygon fill="#bfbfbf" stroke="black" points="0,-35.0846 0,-56.0846 149,-56.0846 149,-35.0846 0,-35.0846"/>
<text text-anchor="middle" x="74.5" y="-42.4846" font-family="Ubuntu Mono" font-size="12.00">driver_post::stop_post</text>
</g>
<!-- Node184 -->
<g id="node2" class="node"><title>Node184</title>
<g id="a_node2"><a xlink:href="namespaceinput__utilities.html#aa0cf7578f9c9ab6470f8bb8d025f1daf" target="_top" xlink:title="input_utilities::dealloc_in">
<polygon fill="white" stroke="black" points="185,-35.0846 185,-56.0846 364,-56.0846 364,-35.0846 185,-35.0846"/>
<text text-anchor="middle" x="274.5" y="-42.4846" font-family="Ubuntu Mono" font-size="12.00">input_utilities::dealloc_in</text>
</a>
</g>
</g>
<!-- Node183&#45;&gt;Node184 -->
<g id="edge1" class="edge"><title>Node183&#45;&gt;Node184</title>
<path fill="none" stroke="midnightblue" d="M149.228,-45.5846C157.605,-45.5846 166.24,-45.5846 174.872,-45.5846"/>
<polygon fill="midnightblue" stroke="midnightblue" points="174.987,-49.0847 184.987,-45.5846 174.987,-42.0847 174.987,-49.0847"/>
</g>
<!-- Node185 -->
<g id="node3" class="node"><title>Node185</title>
<g id="a_node3"><a xlink:href="namespacevmec__vars.html#ace63f2f143043b860f7705dff7089676" target="_top" xlink:title="vmec_vars::dealloc_vmec">
<polygon fill="white" stroke="black" points="403,-55.0846 403,-76.0846 558,-76.0846 558,-55.0846 403,-55.0846"/>
<text text-anchor="middle" x="480.5" y="-62.4846" font-family="Ubuntu Mono" font-size="12.00">vmec_vars::dealloc_vmec</text>
</a>
</g>
</g>
<!-- Node184&#45;&gt;Node185 -->
<g id="edge2" class="edge"><title>Node184&#45;&gt;Node185</title>
<path fill="none" stroke="midnightblue" d="M364.087,-54.2697C373.563,-55.1987 383.196,-56.1431 392.651,-57.0701"/>
<polygon fill="midnightblue" stroke="midnightblue" points="392.532,-60.5751 402.826,-58.0676 393.215,-53.6085 392.532,-60.5751"/>
</g>
<!-- Node191 -->
<g id="node9" class="node"><title>Node191</title>
<g id="a_node9"><a xlink:href="namespacehelena__vars.html#add7b3eea7306eca7fb45737ff915523f" target="_top" xlink:title="helena_vars::dealloc_hel">
<polygon fill="white" stroke="black" points="400,-15.0846 400,-36.0846 561,-36.0846 561,-15.0846 400,-15.0846"/>
<text text-anchor="middle" x="480.5" y="-22.4846" font-family="Ubuntu Mono" font-size="12.00">helena_vars::dealloc_hel</text>
</a>
</g>
</g>
<!-- Node184&#45;&gt;Node191 -->
<g id="edge9" class="edge"><title>Node184&#45;&gt;Node191</title>
<path fill="none" stroke="midnightblue" d="M364.087,-36.8996C372.666,-36.0585 381.373,-35.2049 389.961,-34.3629"/>
<polygon fill="midnightblue" stroke="midnightblue" points="390.362,-37.8405 399.973,-33.3814 389.679,-30.8739 390.362,-37.8405"/>
</g>
<!-- Node186 -->
<g id="node4" class="node"><title>Node186</title>
<g id="a_node4"><a xlink:href="namespacemessages.html#a82dddaab795b78b3d39e1ff1aab2f665" target="_top" xlink:title="messages::get_mem_usage">
<polygon fill="white" stroke="black" points="770,-35.0846 770,-56.0846 925,-56.0846 925,-35.0846 770,-35.0846"/>
<text text-anchor="middle" x="847.5" y="-42.4846" font-family="Ubuntu Mono" font-size="12.00">messages::get_mem_usage</text>
</a>
</g>
</g>
<!-- Node185&#45;&gt;Node186 -->
<g id="edge3" class="edge"><title>Node185&#45;&gt;Node186</title>
<path fill="none" stroke="midnightblue" d="M518.965,-76.1219C568.866,-88.4541 659.506,-104.888 734,-85.5846 751.718,-80.9934 753.012,-72.3976 770,-65.5846 775.937,-63.2038 782.246,-61.0271 788.597,-59.0591"/>
<polygon fill="midnightblue" stroke="midnightblue" points="789.95,-62.3099 798.562,-56.1389 787.981,-55.5924 789.95,-62.3099"/>
</g>
<!-- Node187 -->
<g id="node5" class="node"><title>Node187</title>
<g id="a_node5"><a xlink:href="namespacemessages.html#aa4a8d01563e92558e8a0875b075ec54c" target="_top" xlink:title="messages::writo">
<polygon fill="white" stroke="black" points="612,-55.0846 612,-76.0846 719,-76.0846 719,-55.0846 612,-55.0846"/>
<text text-anchor="middle" x="665.5" y="-62.4846" font-family="Ubuntu Mono" font-size="12.00">messages::writo</text>
</a>
</g>
</g>
<!-- Node185&#45;&gt;Node187 -->
<g id="edge4" class="edge"><title>Node185&#45;&gt;Node187</title>
<path fill="none" stroke="midnightblue" d="M558.048,-65.5846C572.629,-65.5846 587.73,-65.5846 601.816,-65.5846"/>
<polygon fill="midnightblue" stroke="midnightblue" points="601.872,-69.0847 611.872,-65.5846 601.872,-62.0847 601.872,-69.0847"/>
</g>
<!-- Node190 -->
<g id="node8" class="node"><title>Node190</title>
<g id="a_node8"><a xlink:href="namespacestr__utilities.html#a0b97e51770725a3e98ed393d26681414" target="_top" xlink:title="str_utilities::i2str">
<polygon fill="white" stroke="black" points="597,-15.0846 597,-36.0846 734,-36.0846 734,-15.0846 597,-15.0846"/>
<text text-anchor="middle" x="665.5" y="-22.4846" font-family="Ubuntu Mono" font-size="12.00">str_utilities::i2str</text>
</a>
</g>
</g>
<!-- Node185&#45;&gt;Node190 -->
<g id="edge8" class="edge"><title>Node185&#45;&gt;Node190</title>
<path fill="none" stroke="midnightblue" d="M529.581,-55.0751C553.129,-49.928 581.671,-43.6893 606.428,-38.2779"/>
<polygon fill="midnightblue" stroke="midnightblue" points="607.401,-41.6481 616.423,-36.0933 605.906,-34.8095 607.401,-41.6481"/>
</g>
<!-- Node187&#45;&gt;Node186 -->
<g id="edge5" class="edge"><title>Node187&#45;&gt;Node186</title>
<path fill="none" stroke="midnightblue" d="M719.047,-59.746C731.823,-58.3265 745.824,-56.7708 759.723,-55.2265"/>
<polygon fill="midnightblue" stroke="midnightblue" points="760.254,-58.6892 769.806,-54.1062 759.481,-51.732 760.254,-58.6892"/>
</g>
<!-- Node188 -->
<g id="node6" class="node"><title>Node188</title>
<g id="a_node6"><a xlink:href="messages_8f90.html#a6d15f28783f95a7a4b2a44185619792f" target="_top" xlink:title="format_str">
<polygon fill="white" stroke="black" points="809,-75.0846 809,-96.0846 886,-96.0846 886,-75.0846 809,-75.0846"/>
<text text-anchor="middle" x="847.5" y="-82.4846" font-family="Ubuntu Mono" font-size="12.00">format_str</text>
</a>
</g>
</g>
<!-- Node187&#45;&gt;Node188 -->
<g id="edge6" class="edge"><title>Node187&#45;&gt;Node188</title>
<path fill="none" stroke="midnightblue" d="M719.047,-71.4232C744.198,-74.2178 774.099,-77.54 798.615,-80.2641"/>
<polygon fill="midnightblue" stroke="midnightblue" points="798.438,-83.7659 808.764,-81.3917 799.211,-76.8087 798.438,-83.7659"/>
</g>
<!-- Node189 -->
<g id="node7" class="node"><title>Node189</title>
<g id="a_node7"><a xlink:href="namespacemessages.html#a61fd0b51b5e37d58fdc993c01792a3fd" target="_top" xlink:title="messages::get_clock">
<polygon fill="white" stroke="black" points="961,-75.0846 961,-96.0846 1092,-96.0846 1092,-75.0846 961,-75.0846"/>
<text text-anchor="middle" x="1026.5" y="-82.4846" font-family="Ubuntu Mono" font-size="12.00">messages::get_clock</text>
</a>
</g>
</g>
<!-- Node188&#45;&gt;Node189 -->
<g id="edge7" class="edge"><title>Node188&#45;&gt;Node189</title>
<path fill="none" stroke="midnightblue" d="M886.037,-85.5846C904.869,-85.5846 928.372,-85.5846 950.685,-85.5846"/>
<polygon fill="midnightblue" stroke="midnightblue" points="950.832,-89.0847 960.832,-85.5846 950.832,-82.0847 950.832,-89.0847"/>
</g>
<!-- Node191&#45;&gt;Node186 -->
<g id="edge10" class="edge"><title>Node191&#45;&gt;Node186</title>
<path fill="none" stroke="midnightblue" d="M527.892,-15.0337C578.784,-5.05318 662.715,6.71117 734,-5.58462 762.115,-10.4341 792.516,-21.6309 814.62,-30.9483"/>
<polygon fill="midnightblue" stroke="midnightblue" points="813.284,-34.1841 823.853,-34.9346 816.059,-27.7575 813.284,-34.1841"/>
</g>
<!-- Node191&#45;&gt;Node187 -->
<g id="edge11" class="edge"><title>Node191&#45;&gt;Node187</title>
<path fill="none" stroke="midnightblue" d="M529.581,-36.0942C553.129,-41.2412 581.671,-47.48 606.428,-52.8914"/>
<polygon fill="midnightblue" stroke="midnightblue" points="605.906,-56.3597 616.423,-55.0759 607.401,-49.5212 605.906,-56.3597"/>
</g>
<!-- Node191&#45;&gt;Node190 -->
<g id="edge12" class="edge"><title>Node191&#45;&gt;Node190</title>
<path fill="none" stroke="midnightblue" d="M561.234,-25.5846C569.657,-25.5846 578.214,-25.5846 586.616,-25.5846"/>
<polygon fill="midnightblue" stroke="midnightblue" points="586.766,-29.0847 596.766,-25.5846 586.766,-22.0847 586.766,-29.0847"/>
</g>
</g>
</svg>
