<?xml version="1.0" encoding="UTF-8" standalone="no"?>
<!DOCTYPE svg PUBLIC "-//W3C//DTD SVG 1.1//EN"
 "http://www.w3.org/Graphics/SVG/1.1/DTD/svg11.dtd">
<!-- Generated by graphviz version 2.43.0 (0)
 -->
<!-- Title: x_ops::calc_magn_ints Pages: 1 -->
<svg width="729pt" height="170pt"
 viewBox="0.00 0.00 729.00 170.00" xmlns="http://www.w3.org/2000/svg" xmlns:xlink="http://www.w3.org/1999/xlink">
<g id="graph0" class="graph" transform="scale(1 1) rotate(0) translate(4 166)">
<title>x_ops::calc_magn_ints</title>
<polygon fill="white" stroke="transparent" points="-4,4 -4,-166 725,-166 725,4 -4,4"/>
<!-- Node1 -->
<g id="node1" class="node">
<title>Node1</title>
<g id="a_node1"><a xlink:title="Calculate the magnetic integrals from &#160;and &#160;in an equidistant grid where the step size can vary depen...">
<polygon fill="#bfbfbf" stroke="black" points="0,-80.5 0,-101.5 149,-101.5 149,-80.5 0,-80.5"/>
<text text-anchor="middle" x="74.5" y="-87.9" font-family="Ubuntu Mono" font-size="12.00">x_ops::calc_magn_ints</text>
</a>
</g>
</g>
<!-- Node2 -->
<g id="node2" class="node">
<title>Node2</title>
<g id="a_node2"><a xlink:href="namespacenum__utilities.html#a5ee3fbd1fe67d0deefc7194631389f2a" target="_top" xlink:title="Convert 2&#45;D coordinates (i,j) to the storage convention used in matrices.">
<polygon fill="white" stroke="black" points="215.5,-140.5 215.5,-161.5 321.5,-161.5 321.5,-140.5 215.5,-140.5"/>
<text text-anchor="middle" x="268.5" y="-147.9" font-family="Ubuntu Mono" font-size="12.00">num_utilities::c</text>
</a>
</g>
</g>
<!-- Node1&#45;&gt;Node2 -->
<g id="edge1" class="edge">
<title>Node1&#45;&gt;Node2</title>
<path fill="none" stroke="midnightblue" d="M101.77,-101.54C123.78,-110.14 156.14,-122.26 185,-131 193.11,-133.46 201.74,-135.82 210.25,-138"/>
<polygon fill="midnightblue" stroke="midnightblue" points="209.58,-141.45 220.14,-140.48 211.29,-134.66 209.58,-141.45"/>
</g>
<!-- Node3 -->
<g id="node3" class="node">
<title>Node3</title>
<g id="a_node3"><a xlink:href="namespacex__utilities.html#a689aca7fedb49c43c5a65a18d557259f" target="_top" xlink:title="Determines whether a variable needs to be considered:">
<polygon fill="white" stroke="black" points="185,-100.5 185,-121.5 352,-121.5 352,-100.5 185,-100.5"/>
<text text-anchor="middle" x="268.5" y="-107.9" font-family="Ubuntu Mono" font-size="12.00">x_utilities::is_necessary_x</text>
</a>
</g>
</g>
<!-- Node1&#45;&gt;Node3 -->
<g id="edge2" class="edge">
<title>Node1&#45;&gt;Node3</title>
<path fill="none" stroke="midnightblue" d="M149.18,-98.68C157.54,-99.55 166.14,-100.44 174.71,-101.33"/>
<polygon fill="midnightblue" stroke="midnightblue" points="174.43,-104.82 184.73,-102.38 175.15,-97.86 174.43,-104.82"/>
</g>
<!-- Node4 -->
<g id="node4" class="node">
<title>Node4</title>
<g id="a_node4"><a xlink:href="namespacemessages.html#a6e6bfb084063e4cc91ee86e542043302" target="_top" xlink:title="Increases/decreases lvl of output.">
<polygon fill="white" stroke="black" points="209.5,-60.5 209.5,-81.5 327.5,-81.5 327.5,-60.5 209.5,-60.5"/>
<text text-anchor="middle" x="268.5" y="-67.9" font-family="Ubuntu Mono" font-size="12.00">messages::lvl_ud</text>
</a>
</g>
</g>
<!-- Node1&#45;&gt;Node4 -->
<g id="edge3" class="edge">
<title>Node1&#45;&gt;Node4</title>
<path fill="none" stroke="midnightblue" d="M149.18,-83.32C165.49,-81.63 182.71,-79.83 198.81,-78.16"/>
<polygon fill="midnightblue" stroke="midnightblue" points="199.63,-81.59 209.21,-77.07 198.9,-74.63 199.63,-81.59"/>
</g>
<!-- Node5 -->
<g id="node5" class="node">
<title>Node5</title>
<g id="a_node5"><a xlink:href="namespacemessages.html#aa4a8d01563e92558e8a0875b075ec54c" target="_top" xlink:title="Write output to file identified by output_i.">
<polygon fill="white" stroke="black" points="388,-40.5 388,-61.5 502,-61.5 502,-40.5 388,-40.5"/>
<text text-anchor="middle" x="445" y="-47.9" font-family="Ubuntu Mono" font-size="12.00">messages::writo</text>
</a>
</g>
</g>
<!-- Node1&#45;&gt;Node5 -->
<g id="edge8" class="edge">
<title>Node1&#45;&gt;Node5</title>
<path fill="none" stroke="midnightblue" d="M97.51,-80.35C119.18,-70.5 153.51,-56.57 185,-51 249.76,-39.54 325.05,-41.18 377.71,-44.68"/>
<polygon fill="midnightblue" stroke="midnightblue" points="377.71,-48.19 387.93,-45.41 378.21,-41.21 377.71,-48.19"/>
</g>
<!-- Node4&#45;&gt;Node5 -->
<g id="edge4" class="edge">
<title>Node4&#45;&gt;Node5</title>
<path fill="none" stroke="midnightblue" d="M327.61,-64.34C343.7,-62.5 361.29,-60.48 377.8,-58.59"/>
<polygon fill="midnightblue" stroke="midnightblue" points="378.39,-62.04 387.92,-57.43 377.59,-55.09 378.39,-62.04"/>
</g>
<!-- Node6 -->
<g id="node6" class="node">
<title>Node6</title>
<g id="a_node6"><a xlink:href="namespacemessages.html#a61fd0b51b5e37d58fdc993c01792a3fd" target="_top" xlink:title="Returns the time.">
<polygon fill="white" stroke="black" points="559.5,-80.5 559.5,-101.5 699.5,-101.5 699.5,-80.5 559.5,-80.5"/>
<text text-anchor="middle" x="629.5" y="-87.9" font-family="Ubuntu Mono" font-size="12.00">messages::get_clock</text>
</a>
</g>
</g>
<!-- Node5&#45;&gt;Node6 -->
<g id="edge5" class="edge">
<title>Node5&#45;&gt;Node6</title>
<path fill="none" stroke="midnightblue" d="M493.95,-61.51C517.43,-66.66 545.9,-72.9 570.59,-78.31"/>
<polygon fill="midnightblue" stroke="midnightblue" points="570.04,-81.77 580.55,-80.49 571.54,-74.93 570.04,-81.77"/>
</g>
<!-- Node7 -->
<g id="node7" class="node">
<title>Node7</title>
<g id="a_node7"><a xlink:href="namespacemessages.html#a82dddaab795b78b3d39e1ff1aab2f665" target="_top" xlink:title="Returns the memory usage in kilobytes.">
<polygon fill="white" stroke="black" points="538,-40.5 538,-61.5 721,-61.5 721,-40.5 538,-40.5"/>
<text text-anchor="middle" x="629.5" y="-47.9" font-family="Ubuntu Mono" font-size="12.00">messages::get_mem_usage</text>
</a>
</g>
</g>
<!-- Node5&#45;&gt;Node7 -->
<g id="edge6" class="edge">
<title>Node5&#45;&gt;Node7</title>
<path fill="none" stroke="midnightblue" d="M502.25,-51C510.37,-51 518.94,-51 527.63,-51"/>
<polygon fill="midnightblue" stroke="midnightblue" points="527.86,-54.5 537.86,-51 527.86,-47.5 527.86,-54.5"/>
</g>
<!-- Node8 -->
<g id="node8" class="node">
<title>Node8</title>
<g id="a_node8"><a xlink:href="namespacestr__utilities.html#a0b97e51770725a3e98ed393d26681414" target="_top" xlink:title="Convert an integer to string.">
<polygon fill="white" stroke="black" points="572.5,-0.5 572.5,-21.5 686.5,-21.5 686.5,-0.5 572.5,-0.5"/>
<text text-anchor="middle" x="629.5" y="-7.9" font-family="Ubuntu Mono" font-size="12.00">str_utilities::i2str</text>
</a>
</g>
</g>
<!-- Node5&#45;&gt;Node8 -->
<g id="edge7" class="edge">
<title>Node5&#45;&gt;Node8</title>
<path fill="none" stroke="midnightblue" d="M493.95,-40.49C517.43,-35.34 545.9,-29.1 570.59,-23.69"/>
<polygon fill="midnightblue" stroke="midnightblue" points="571.54,-27.07 580.55,-21.51 570.04,-20.23 571.54,-27.07"/>
</g>
</g>
</svg>
