<?xml version="1.0" encoding="UTF-8" standalone="no"?>
<!DOCTYPE svg PUBLIC "-//W3C//DTD SVG 1.1//EN"
 "http://www.w3.org/Graphics/SVG/1.1/DTD/svg11.dtd">
<!-- Generated by graphviz version 2.43.0 (0)
 -->
<!-- Title: slepc_ops::setup_solver Pages: 1 -->
<svg width="688pt" height="147pt"
 viewBox="0.00 0.00 688.00 147.00" xmlns="http://www.w3.org/2000/svg" xmlns:xlink="http://www.w3.org/1999/xlink">
<g id="graph0" class="graph" transform="scale(1 1) rotate(0) translate(4 143)">
<title>slepc_ops::setup_solver</title>
<polygon fill="white" stroke="transparent" points="-4,4 -4,-143 684,-143 684,4 -4,4"/>
<!-- Node1 -->
<g id="node1" class="node">
<title>Node1</title>
<g id="a_node1"><a xlink:title="Sets up EV solver.">
<polygon fill="#bfbfbf" stroke="black" points="0,-58.5 0,-79.5 157,-79.5 157,-58.5 0,-58.5"/>
<text text-anchor="middle" x="78.5" y="-65.9" font-family="Ubuntu Mono" font-size="12.00">slepc_ops::setup_solver</text>
</a>
</g>
</g>
<!-- Node2 -->
<g id="node2" class="node">
<title>Node2</title>
<g id="a_node2"><a xlink:href="namespacestr__utilities.html#a0b97e51770725a3e98ed393d26681414" target="_top" xlink:title="Convert an integer to string.">
<polygon fill="white" stroke="black" points="531.5,-117.5 531.5,-138.5 645.5,-138.5 645.5,-117.5 531.5,-117.5"/>
<text text-anchor="middle" x="588.5" y="-124.9" font-family="Ubuntu Mono" font-size="12.00">str_utilities::i2str</text>
</a>
</g>
</g>
<!-- Node1&#45;&gt;Node2 -->
<g id="edge1" class="edge">
<title>Node1&#45;&gt;Node2</title>
<path fill="none" stroke="midnightblue" d="M103.28,-79.67C125.87,-89.25 161.02,-102.73 193,-109 306.66,-131.27 442.08,-132.42 521.07,-130.63"/>
<polygon fill="midnightblue" stroke="midnightblue" points="521.45,-134.12 531.35,-130.37 521.27,-127.12 521.45,-134.12"/>
</g>
<!-- Node3 -->
<g id="node3" class="node">
<title>Node3</title>
<g id="a_node3"><a xlink:href="namespacemessages.html#a6e6bfb084063e4cc91ee86e542043302" target="_top" xlink:title="Increases/decreases lvl of output.">
<polygon fill="white" stroke="black" points="193,-78.5 193,-99.5 311,-99.5 311,-78.5 193,-78.5"/>
<text text-anchor="middle" x="252" y="-85.9" font-family="Ubuntu Mono" font-size="12.00">messages::lvl_ud</text>
</a>
</g>
</g>
<!-- Node1&#45;&gt;Node3 -->
<g id="edge2" class="edge">
<title>Node1&#45;&gt;Node3</title>
<path fill="none" stroke="midnightblue" d="M157.22,-78.06C165.73,-79.06 174.34,-80.06 182.72,-81.04"/>
<polygon fill="midnightblue" stroke="midnightblue" points="182.47,-84.53 192.8,-82.21 183.28,-77.58 182.47,-84.53"/>
</g>
<!-- Node4 -->
<g id="node4" class="node">
<title>Node4</title>
<g id="a_node4"><a xlink:href="namespacemessages.html#aa4a8d01563e92558e8a0875b075ec54c" target="_top" xlink:title="Write output to file identified by output_i.">
<polygon fill="white" stroke="black" points="347,-77.5 347,-98.5 461,-98.5 461,-77.5 347,-77.5"/>
<text text-anchor="middle" x="404" y="-84.9" font-family="Ubuntu Mono" font-size="12.00">messages::writo</text>
</a>
</g>
</g>
<!-- Node1&#45;&gt;Node4 -->
<g id="edge8" class="edge">
<title>Node1&#45;&gt;Node4</title>
<path fill="none" stroke="midnightblue" d="M157.13,-65.07C202.17,-63.77 259.92,-63.78 311,-69 324.06,-70.33 338,-72.71 350.98,-75.33"/>
<polygon fill="midnightblue" stroke="midnightblue" points="350.64,-78.84 361.14,-77.48 352.08,-71.99 350.64,-78.84"/>
</g>
<!-- Node7 -->
<g id="node7" class="node">
<title>Node7</title>
<g id="a_node7"><a xlink:href="namespacestr__utilities.html#a92ac6c0af1979df094de1caddd28ade0" target="_top" xlink:title="Convert a real (double) to string.">
<polygon fill="white" stroke="black" points="194,-0.5 194,-21.5 310,-21.5 310,-0.5 194,-0.5"/>
<text text-anchor="middle" x="252" y="-7.9" font-family="Ubuntu Mono" font-size="12.00">str_utilities::r2str</text>
</a>
</g>
</g>
<!-- Node1&#45;&gt;Node7 -->
<g id="edge7" class="edge">
<title>Node1&#45;&gt;Node7</title>
<path fill="none" stroke="midnightblue" d="M110.56,-58.5C138.52,-49.04 179.79,-35.08 210.36,-24.74"/>
<polygon fill="midnightblue" stroke="midnightblue" points="211.53,-28.04 219.88,-21.52 209.29,-21.41 211.53,-28.04"/>
</g>
<!-- Node3&#45;&gt;Node4 -->
<g id="edge3" class="edge">
<title>Node3&#45;&gt;Node4</title>
<path fill="none" stroke="midnightblue" d="M311.42,-88.61C319.73,-88.56 328.32,-88.5 336.76,-88.44"/>
<polygon fill="midnightblue" stroke="midnightblue" points="336.97,-91.94 346.95,-88.37 336.93,-84.94 336.97,-91.94"/>
</g>
<!-- Node4&#45;&gt;Node2 -->
<g id="edge6" class="edge">
<title>Node4&#45;&gt;Node2</title>
<path fill="none" stroke="midnightblue" d="M452.95,-98.51C476.43,-103.66 504.9,-109.9 529.59,-115.31"/>
<polygon fill="midnightblue" stroke="midnightblue" points="529.04,-118.77 539.55,-117.49 530.54,-111.93 529.04,-118.77"/>
</g>
<!-- Node5 -->
<g id="node5" class="node">
<title>Node5</title>
<g id="a_node5"><a xlink:href="namespacemessages.html#a61fd0b51b5e37d58fdc993c01792a3fd" target="_top" xlink:title="Returns the time.">
<polygon fill="white" stroke="black" points="518.5,-77.5 518.5,-98.5 658.5,-98.5 658.5,-77.5 518.5,-77.5"/>
<text text-anchor="middle" x="588.5" y="-84.9" font-family="Ubuntu Mono" font-size="12.00">messages::get_clock</text>
</a>
</g>
</g>
<!-- Node4&#45;&gt;Node5 -->
<g id="edge4" class="edge">
<title>Node4&#45;&gt;Node5</title>
<path fill="none" stroke="midnightblue" d="M461.25,-88C476.02,-88 492.24,-88 507.99,-88"/>
<polygon fill="midnightblue" stroke="midnightblue" points="508.25,-91.5 518.25,-88 508.25,-84.5 508.25,-91.5"/>
</g>
<!-- Node6 -->
<g id="node6" class="node">
<title>Node6</title>
<g id="a_node6"><a xlink:href="namespacemessages.html#a82dddaab795b78b3d39e1ff1aab2f665" target="_top" xlink:title="Returns the memory usage in kilobytes.">
<polygon fill="white" stroke="black" points="497,-37.5 497,-58.5 680,-58.5 680,-37.5 497,-37.5"/>
<text text-anchor="middle" x="588.5" y="-44.9" font-family="Ubuntu Mono" font-size="12.00">messages::get_mem_usage</text>
</a>
</g>
</g>
<!-- Node4&#45;&gt;Node6 -->
<g id="edge5" class="edge">
<title>Node4&#45;&gt;Node6</title>
<path fill="none" stroke="midnightblue" d="M452.95,-77.49C476.43,-72.34 504.9,-66.1 529.59,-60.69"/>
<polygon fill="midnightblue" stroke="midnightblue" points="530.54,-64.07 539.55,-58.51 529.04,-57.23 530.54,-64.07"/>
</g>
</g>
</svg>
