<?xml version="1.0" encoding="UTF-8" standalone="no"?>
<!DOCTYPE svg PUBLIC "-//W3C//DTD SVG 1.1//EN"
 "http://www.w3.org/Graphics/SVG/1.1/DTD/svg11.dtd">
<!-- Generated by graphviz version 2.43.0 (0)
 -->
<!-- Title: slepc_ops::setup_guess Pages: 1 -->
<svg width="686pt" height="110pt"
 viewBox="0.00 0.00 686.00 110.00" xmlns="http://www.w3.org/2000/svg" xmlns:xlink="http://www.w3.org/1999/xlink">
<g id="graph0" class="graph" transform="scale(1 1) rotate(0) translate(4 106)">
<title>slepc_ops::setup_guess</title>
<polygon fill="white" stroke="transparent" points="-4,4 -4,-106 682,-106 682,4 -4,4"/>
<!-- Node1 -->
<g id="node1" class="node">
<title>Node1</title>
<g id="a_node1"><a xlink:title="Sets up guess in solver.">
<polygon fill="#bfbfbf" stroke="black" points="0,-41.5 0,-62.5 155,-62.5 155,-41.5 0,-41.5"/>
<text text-anchor="middle" x="77.5" y="-48.9" font-family="Ubuntu Mono" font-size="12.00">slepc_ops::setup_guess</text>
</a>
</g>
</g>
<!-- Node2 -->
<g id="node2" class="node">
<title>Node2</title>
<g id="a_node2"><a xlink:href="namespacestr__utilities.html#a0b97e51770725a3e98ed393d26681414" target="_top" xlink:title="Convert an integer to string.">
<polygon fill="white" stroke="black" points="529.5,-80.5 529.5,-101.5 643.5,-101.5 643.5,-80.5 529.5,-80.5"/>
<text text-anchor="middle" x="586.5" y="-87.9" font-family="Ubuntu Mono" font-size="12.00">str_utilities::i2str</text>
</a>
</g>
</g>
<!-- Node1&#45;&gt;Node2 -->
<g id="edge1" class="edge">
<title>Node1&#45;&gt;Node2</title>
<path fill="none" stroke="midnightblue" d="M129.82,-62.55C148.95,-66.1 170.89,-69.74 191,-72 305.93,-84.93 440.68,-89.07 519.23,-90.39"/>
<polygon fill="midnightblue" stroke="midnightblue" points="519.41,-93.89 529.46,-90.55 519.52,-86.89 519.41,-93.89"/>
</g>
<!-- Node3 -->
<g id="node3" class="node">
<title>Node3</title>
<g id="a_node3"><a xlink:href="namespacemessages.html#a6e6bfb084063e4cc91ee86e542043302" target="_top" xlink:title="Increases/decreases lvl of output.">
<polygon fill="white" stroke="black" points="191,-41.5 191,-62.5 309,-62.5 309,-41.5 191,-41.5"/>
<text text-anchor="middle" x="250" y="-48.9" font-family="Ubuntu Mono" font-size="12.00">messages::lvl_ud</text>
</a>
</g>
</g>
<!-- Node1&#45;&gt;Node3 -->
<g id="edge2" class="edge">
<title>Node1&#45;&gt;Node3</title>
<path fill="none" stroke="midnightblue" d="M155.27,-52C163.75,-52 172.35,-52 180.72,-52"/>
<polygon fill="midnightblue" stroke="midnightblue" points="180.79,-55.5 190.79,-52 180.79,-48.5 180.79,-55.5"/>
</g>
<!-- Node4 -->
<g id="node4" class="node">
<title>Node4</title>
<g id="a_node4"><a xlink:href="namespacemessages.html#aa4a8d01563e92558e8a0875b075ec54c" target="_top" xlink:title="Write output to file identified by output_i.">
<polygon fill="white" stroke="black" points="345,-40.5 345,-61.5 459,-61.5 459,-40.5 345,-40.5"/>
<text text-anchor="middle" x="402" y="-47.9" font-family="Ubuntu Mono" font-size="12.00">messages::writo</text>
</a>
</g>
</g>
<!-- Node1&#45;&gt;Node4 -->
<g id="edge7" class="edge">
<title>Node1&#45;&gt;Node4</title>
<path fill="none" stroke="midnightblue" d="M126.98,-41.46C146.73,-37.66 169.86,-33.86 191,-32 243.24,-27.39 256.83,-26.67 309,-32 322.06,-33.33 336,-35.71 348.98,-38.33"/>
<polygon fill="midnightblue" stroke="midnightblue" points="348.64,-41.84 359.14,-40.48 350.08,-34.99 348.64,-41.84"/>
</g>
<!-- Node3&#45;&gt;Node4 -->
<g id="edge3" class="edge">
<title>Node3&#45;&gt;Node4</title>
<path fill="none" stroke="midnightblue" d="M309.42,-51.61C317.73,-51.56 326.32,-51.5 334.76,-51.44"/>
<polygon fill="midnightblue" stroke="midnightblue" points="334.97,-54.94 344.95,-51.37 334.93,-47.94 334.97,-54.94"/>
</g>
<!-- Node4&#45;&gt;Node2 -->
<g id="edge6" class="edge">
<title>Node4&#45;&gt;Node2</title>
<path fill="none" stroke="midnightblue" d="M450.95,-61.51C474.43,-66.66 502.9,-72.9 527.59,-78.31"/>
<polygon fill="midnightblue" stroke="midnightblue" points="527.04,-81.77 537.55,-80.49 528.54,-74.93 527.04,-81.77"/>
</g>
<!-- Node5 -->
<g id="node5" class="node">
<title>Node5</title>
<g id="a_node5"><a xlink:href="namespacemessages.html#a61fd0b51b5e37d58fdc993c01792a3fd" target="_top" xlink:title="Returns the time.">
<polygon fill="white" stroke="black" points="516.5,-40.5 516.5,-61.5 656.5,-61.5 656.5,-40.5 516.5,-40.5"/>
<text text-anchor="middle" x="586.5" y="-47.9" font-family="Ubuntu Mono" font-size="12.00">messages::get_clock</text>
</a>
</g>
</g>
<!-- Node4&#45;&gt;Node5 -->
<g id="edge4" class="edge">
<title>Node4&#45;&gt;Node5</title>
<path fill="none" stroke="midnightblue" d="M459.25,-51C474.02,-51 490.24,-51 505.99,-51"/>
<polygon fill="midnightblue" stroke="midnightblue" points="506.25,-54.5 516.25,-51 506.25,-47.5 506.25,-54.5"/>
</g>
<!-- Node6 -->
<g id="node6" class="node">
<title>Node6</title>
<g id="a_node6"><a xlink:href="namespacemessages.html#a82dddaab795b78b3d39e1ff1aab2f665" target="_top" xlink:title="Returns the memory usage in kilobytes.">
<polygon fill="white" stroke="black" points="495,-0.5 495,-21.5 678,-21.5 678,-0.5 495,-0.5"/>
<text text-anchor="middle" x="586.5" y="-7.9" font-family="Ubuntu Mono" font-size="12.00">messages::get_mem_usage</text>
</a>
</g>
</g>
<!-- Node4&#45;&gt;Node6 -->
<g id="edge5" class="edge">
<title>Node4&#45;&gt;Node6</title>
<path fill="none" stroke="midnightblue" d="M450.95,-40.49C474.43,-35.34 502.9,-29.1 527.59,-23.69"/>
<polygon fill="midnightblue" stroke="midnightblue" points="528.54,-27.07 537.55,-21.51 527.04,-20.23 528.54,-27.07"/>
</g>
</g>
</svg>
