<?xml version="1.0" encoding="UTF-8" standalone="no"?>
<!DOCTYPE svg PUBLIC "-//W3C//DTD SVG 1.1//EN"
 "http://www.w3.org/Graphics/SVG/1.1/DTD/svg11.dtd">
<!-- Generated by graphviz version 14.1.2 (20260124.0452)
 -->
<!-- Title: num_utilities::calc_aux_utilities Pages: 1 -->
<svg width="298pt" height="53pt"
 viewBox="0.00 0.00 298.00 53.00" xmlns="http://www.w3.org/2000/svg" xmlns:xlink="http://www.w3.org/1999/xlink">
<g id="graph0" class="graph" transform="scale(1 1) rotate(0) translate(4 49.12)">
<title>num_utilities::calc_aux_utilities</title>
<!-- Node1 -->
<g id="Node000001" class="node">
<title>Node1</title>
<g id="a_Node000001"><a xlink:title="Initialize utilities for fast future reference, depending on program style.">
<polygon fill="#999999" stroke="#666666" points="130,-33.5 0,-33.5 0,0 130,0 130,-33.5"/>
<text xml:space="preserve" text-anchor="start" x="8" y="-18.1" font-family="Ubuntu Mono" font-size="12.00">num_utilities::calc</text>
<text xml:space="preserve" text-anchor="middle" x="65" y="-5.35" font-family="Ubuntu Mono" font-size="12.00">_aux_utilities</text>
</a>
</g>
</g>
<!-- Node2 -->
<g id="Node000002" class="node">
<title>Node2</title>
<g id="a_Node000002"><a xlink:href="namespacenum__utilities.html#a43ab60f9e202b55221373286a5bbb954" target="_top" xlink:title="Calculate factorial.">
<polygon fill="white" stroke="#666666" points="290,-27.12 166,-27.12 166,-6.38 290,-6.38 290,-27.12"/>
<text xml:space="preserve" text-anchor="middle" x="228" y="-11.72" font-family="Ubuntu Mono" font-size="12.00">num_utilities::fac</text>
</a>
</g>
</g>
<!-- Node1&#45;&gt;Node2 -->
<g id="edge1_Node000001_Node000002" class="edge">
<title>Node1&#45;&gt;Node2</title>
<g id="a_edge1_Node000001_Node000002"><a xlink:title=" ">
<path fill="none" stroke="#63b8ff" d="M130.09,-16.75C138.08,-16.75 146.29,-16.75 154.4,-16.75"/>
<polygon fill="#63b8ff" stroke="#63b8ff" points="154.23,-20.25 164.23,-16.75 154.23,-13.25 154.23,-20.25"/>
</a>
</g>
</g>
<!-- Node2&#45;&gt;Node2 -->
<g id="edge2_Node000002_Node000002" class="edge">
<title>Node2&#45;&gt;Node2</title>
<g id="a_edge2_Node000002_Node000002"><a xlink:title=" ">
<path fill="none" stroke="#63b8ff" d="M201.74,-27.52C191.23,-36.18 199.98,-45.12 228,-45.12 243.32,-45.12 252.88,-42.45 256.68,-38.61"/>
<polygon fill="#63b8ff" stroke="#63b8ff" points="260.14,-38.03 254.59,-29 253.3,-39.52 260.14,-38.03"/>
</a>
</g>
</g>
</g>
</svg>
