<?xml version="1.0" encoding="UTF-8" standalone="no"?>
<!DOCTYPE svg PUBLIC "-//W3C//DTD SVG 1.1//EN"
 "http://www.w3.org/Graphics/SVG/1.1/DTD/svg11.dtd">
<!-- Generated by graphviz version 2.38.0 (20140413.2041)
 -->
<!-- Title: messages::passed_time Pages: 1 -->
<svg width="652pt" height="108pt"
 viewBox="0.00 0.00 652.00 108.00" xmlns="http://www.w3.org/2000/svg" xmlns:xlink="http://www.w3.org/1999/xlink">
<g id="graph0" class="graph" transform="scale(1 1) rotate(0) translate(4 104)">
<title>messages::passed_time</title>
<polygon fill="white" stroke="none" points="-4,4 -4,-104 648,-104 648,4 -4,4"/>
<!-- Node525 -->
<g id="node1" class="node"><title>Node525</title>
<polygon fill="#bfbfbf" stroke="black" points="0,-39.5 0,-60.5 143,-60.5 143,-39.5 0,-39.5"/>
<text text-anchor="middle" x="71.5" y="-46.9" font-family="Ubuntu Mono" font-size="12.00">messages::passed_time</text>
</g>
<!-- Node526 -->
<g id="node2" class="node"><title>Node526</title>
<g id="a_node2"><a xlink:href="namespacemessages.html#aed343894ae4a28ad6dfbd1d39aac64ff" target="_top" xlink:title="Stop a timer. ">
<polygon fill="white" stroke="black" points="179,-78.5 179,-99.5 310,-99.5 310,-78.5 179,-78.5"/>
<text text-anchor="middle" x="244.5" y="-85.9" font-family="Ubuntu Mono" font-size="12.00">messages::stop_time</text>
</a>
</g>
</g>
<!-- Node525&#45;&gt;Node526 -->
<g id="edge1" class="edge"><title>Node525&#45;&gt;Node526</title>
<path fill="none" stroke="midnightblue" d="M118.775,-60.554C139.876,-65.3664 165.045,-71.1068 187.23,-76.1665"/>
<polygon fill="midnightblue" stroke="midnightblue" points="186.66,-79.6263 197.188,-78.4376 188.217,-72.8015 186.66,-79.6263"/>
</g>
<!-- Node527 -->
<g id="node3" class="node"><title>Node527</title>
<g id="a_node3"><a xlink:href="namespacemessages.html#aa4a8d01563e92558e8a0875b075ec54c" target="_top" xlink:title="Write output to file identified by output_i. ">
<polygon fill="white" stroke="black" points="346,-58.5 346,-79.5 453,-79.5 453,-58.5 346,-58.5"/>
<text text-anchor="middle" x="399.5" y="-65.9" font-family="Ubuntu Mono" font-size="12.00">messages::writo</text>
</a>
</g>
</g>
<!-- Node525&#45;&gt;Node527 -->
<g id="edge5" class="edge"><title>Node525&#45;&gt;Node527</title>
<path fill="none" stroke="midnightblue" d="M143.237,-54.1227C200.62,-57.4671 280.75,-62.1373 335.845,-65.3483"/>
<polygon fill="midnightblue" stroke="midnightblue" points="335.643,-68.8424 345.83,-65.9303 336.05,-61.8543 335.643,-68.8424"/>
</g>
<!-- Node530 -->
<g id="node6" class="node"><title>Node530</title>
<g id="a_node6"><a xlink:href="namespacemessages.html#a8ed785522aec7ac549263cdd54a8619a" target="_top" xlink:title="Intialize the time passed to 0. ">
<polygon fill="white" stroke="black" points="179,-0.5 179,-21.5 310,-21.5 310,-0.5 179,-0.5"/>
<text text-anchor="middle" x="244.5" y="-7.9" font-family="Ubuntu Mono" font-size="12.00">messages::init_time</text>
</a>
</g>
</g>
<!-- Node525&#45;&gt;Node530 -->
<g id="edge6" class="edge"><title>Node525&#45;&gt;Node530</title>
<path fill="none" stroke="midnightblue" d="M118.775,-39.446C139.876,-34.6336 165.045,-28.8932 187.23,-23.8335"/>
<polygon fill="midnightblue" stroke="midnightblue" points="188.217,-27.1985 197.188,-21.5624 186.66,-20.3737 188.217,-27.1985"/>
</g>
<!-- Node526&#45;&gt;Node527 -->
<g id="edge2" class="edge"><title>Node526&#45;&gt;Node527</title>
<path fill="none" stroke="midnightblue" d="M310.386,-80.5182C318.724,-79.4283 327.25,-78.3137 335.556,-77.2279"/>
<polygon fill="midnightblue" stroke="midnightblue" points="336.089,-80.6881 345.551,-75.9214 335.182,-73.7472 336.089,-80.6881"/>
</g>
<!-- Node528 -->
<g id="node4" class="node"><title>Node528</title>
<g id="a_node4"><a xlink:href="namespacemessages.html#a82dddaab795b78b3d39e1ff1aab2f665" target="_top" xlink:title="Returns the memory usage in kilobytes. ">
<polygon fill="white" stroke="black" points="489,-78.5 489,-99.5 644,-99.5 644,-78.5 489,-78.5"/>
<text text-anchor="middle" x="566.5" y="-85.9" font-family="Ubuntu Mono" font-size="12.00">messages::get_mem_usage</text>
</a>
</g>
</g>
<!-- Node527&#45;&gt;Node528 -->
<g id="edge3" class="edge"><title>Node527&#45;&gt;Node528</title>
<path fill="none" stroke="midnightblue" d="M453.161,-75.3831C461.452,-76.3881 470.208,-77.4495 479.025,-78.5182"/>
<polygon fill="midnightblue" stroke="midnightblue" points="478.635,-81.9965 488.984,-79.7253 479.478,-75.0474 478.635,-81.9965"/>
</g>
<!-- Node529 -->
<g id="node5" class="node"><title>Node529</title>
<g id="a_node5"><a xlink:href="namespacemessages.html#a61fd0b51b5e37d58fdc993c01792a3fd" target="_top" xlink:title="Returns the time. ">
<polygon fill="white" stroke="black" points="501,-38.5 501,-59.5 632,-59.5 632,-38.5 501,-38.5"/>
<text text-anchor="middle" x="566.5" y="-45.9" font-family="Ubuntu Mono" font-size="12.00">messages::get_clock</text>
</a>
</g>
</g>
<!-- Node527&#45;&gt;Node529 -->
<g id="edge4" class="edge"><title>Node527&#45;&gt;Node529</title>
<path fill="none" stroke="midnightblue" d="M453.161,-62.6169C465.142,-61.1646 478.094,-59.5947 490.797,-58.0549"/>
<polygon fill="midnightblue" stroke="midnightblue" points="491.402,-61.5073 500.908,-56.8293 490.56,-54.5581 491.402,-61.5073"/>
</g>
</g>
</svg>
