<?xml version="1.0" encoding="UTF-8" standalone="no"?>
<!DOCTYPE svg PUBLIC "-//W3C//DTD SVG 1.1//EN"
 "http://www.w3.org/Graphics/SVG/1.1/DTD/svg11.dtd">
<!-- Generated by graphviz version 2.43.0 (0)
 -->
<!-- Title: num_ops::calc_zero_zhang Pages: 1 -->
<svg width="518pt" height="150pt"
 viewBox="0.00 0.00 518.00 150.00" xmlns="http://www.w3.org/2000/svg" xmlns:xlink="http://www.w3.org/1999/xlink">
<g id="graph0" class="graph" transform="scale(1 1) rotate(0) translate(4 146)">
<title>num_ops::calc_zero_zhang</title>
<polygon fill="white" stroke="transparent" points="-4,4 -4,-146 514,-146 514,4 -4,4"/>
<!-- Node1 -->
<g id="node1" class="node">
<title>Node1</title>
<g id="a_node1"><a xlink:title="Finds the zero of a function using Zhang&#39;s method, which is simpler than Brent&#39;s method.">
<polygon fill="#bfbfbf" stroke="black" points="0,-74 0,-108 134,-108 134,-74 0,-74"/>
<text text-anchor="start" x="8" y="-94.4" font-family="Ubuntu Mono" font-size="12.00">num_ops::calc_zero</text>
<text text-anchor="middle" x="67" y="-81.4" font-family="Ubuntu Mono" font-size="12.00">_zhang</text>
</a>
</g>
</g>
<!-- Node2 -->
<g id="node2" class="node">
<title>Node2</title>
<g id="a_node2"><a xlink:href="namespacestr__utilities.html#a92ac6c0af1979df094de1caddd28ade0" target="_top" xlink:title="Convert a real (double) to string.">
<polygon fill="white" stroke="black" points="172.5,-120.5 172.5,-141.5 288.5,-141.5 288.5,-120.5 172.5,-120.5"/>
<text text-anchor="middle" x="230.5" y="-127.9" font-family="Ubuntu Mono" font-size="12.00">str_utilities::r2str</text>
</a>
</g>
</g>
<!-- Node1&#45;&gt;Node2 -->
<g id="edge1" class="edge">
<title>Node1&#45;&gt;Node2</title>
<path fill="none" stroke="midnightblue" d="M134.15,-107.38C148.45,-110.93 163.39,-114.62 177.07,-118.02"/>
<polygon fill="midnightblue" stroke="midnightblue" points="176.25,-121.42 186.79,-120.42 177.93,-114.62 176.25,-121.42"/>
</g>
<!-- Node3 -->
<g id="node3" class="node">
<title>Node3</title>
<g id="a_node3"><a xlink:href="namespacestr__utilities.html#ac778d706b2e021672618939ab58fdd32" target="_top" xlink:title="Convert a real (double) to string.">
<polygon fill="white" stroke="black" points="170,-80.5 170,-101.5 291,-101.5 291,-80.5 170,-80.5"/>
<text text-anchor="middle" x="230.5" y="-87.9" font-family="Ubuntu Mono" font-size="12.00">str_utilities::r2strt</text>
</a>
</g>
</g>
<!-- Node1&#45;&gt;Node3 -->
<g id="edge2" class="edge">
<title>Node1&#45;&gt;Node3</title>
<path fill="none" stroke="midnightblue" d="M134.15,-91C142.58,-91 151.22,-91 159.7,-91"/>
<polygon fill="midnightblue" stroke="midnightblue" points="159.93,-94.5 169.93,-91 159.93,-87.5 159.93,-94.5"/>
</g>
<!-- Node4 -->
<g id="node4" class="node">
<title>Node4</title>
<g id="a_node4"><a xlink:href="namespacemessages.html#aa4a8d01563e92558e8a0875b075ec54c" target="_top" xlink:title="Write output to file identified by output_i.">
<polygon fill="white" stroke="black" points="173.5,-40.5 173.5,-61.5 287.5,-61.5 287.5,-40.5 173.5,-40.5"/>
<text text-anchor="middle" x="230.5" y="-47.9" font-family="Ubuntu Mono" font-size="12.00">messages::writo</text>
</a>
</g>
</g>
<!-- Node1&#45;&gt;Node4 -->
<g id="edge3" class="edge">
<title>Node1&#45;&gt;Node4</title>
<path fill="none" stroke="midnightblue" d="M134.15,-74.62C148.45,-71.07 163.39,-67.38 177.07,-63.98"/>
<polygon fill="midnightblue" stroke="midnightblue" points="177.93,-67.38 186.79,-61.58 176.25,-60.58 177.93,-67.38"/>
</g>
<!-- Node5 -->
<g id="node5" class="node">
<title>Node5</title>
<g id="a_node5"><a xlink:href="namespacemessages.html#a61fd0b51b5e37d58fdc993c01792a3fd" target="_top" xlink:title="Returns the time.">
<polygon fill="white" stroke="black" points="348.5,-80.5 348.5,-101.5 488.5,-101.5 488.5,-80.5 348.5,-80.5"/>
<text text-anchor="middle" x="418.5" y="-87.9" font-family="Ubuntu Mono" font-size="12.00">messages::get_clock</text>
</a>
</g>
</g>
<!-- Node4&#45;&gt;Node5 -->
<g id="edge4" class="edge">
<title>Node4&#45;&gt;Node5</title>
<path fill="none" stroke="midnightblue" d="M280.37,-61.51C304.41,-66.68 333.57,-72.95 358.81,-78.38"/>
<polygon fill="midnightblue" stroke="midnightblue" points="358.12,-81.81 368.63,-80.49 359.59,-74.97 358.12,-81.81"/>
</g>
<!-- Node6 -->
<g id="node6" class="node">
<title>Node6</title>
<g id="a_node6"><a xlink:href="namespacemessages.html#a82dddaab795b78b3d39e1ff1aab2f665" target="_top" xlink:title="Returns the memory usage in kilobytes.">
<polygon fill="white" stroke="black" points="327,-40.5 327,-61.5 510,-61.5 510,-40.5 327,-40.5"/>
<text text-anchor="middle" x="418.5" y="-47.9" font-family="Ubuntu Mono" font-size="12.00">messages::get_mem_usage</text>
</a>
</g>
</g>
<!-- Node4&#45;&gt;Node6 -->
<g id="edge5" class="edge">
<title>Node4&#45;&gt;Node6</title>
<path fill="none" stroke="midnightblue" d="M287.56,-51C296.86,-51 306.76,-51 316.78,-51"/>
<polygon fill="midnightblue" stroke="midnightblue" points="316.81,-54.5 326.81,-51 316.81,-47.5 316.81,-54.5"/>
</g>
<!-- Node7 -->
<g id="node7" class="node">
<title>Node7</title>
<g id="a_node7"><a xlink:href="namespacestr__utilities.html#a0b97e51770725a3e98ed393d26681414" target="_top" xlink:title="Convert an integer to string.">
<polygon fill="white" stroke="black" points="361.5,-0.5 361.5,-21.5 475.5,-21.5 475.5,-0.5 361.5,-0.5"/>
<text text-anchor="middle" x="418.5" y="-7.9" font-family="Ubuntu Mono" font-size="12.00">str_utilities::i2str</text>
</a>
</g>
</g>
<!-- Node4&#45;&gt;Node7 -->
<g id="edge6" class="edge">
<title>Node4&#45;&gt;Node7</title>
<path fill="none" stroke="midnightblue" d="M280.37,-40.49C304.41,-35.32 333.57,-29.05 358.81,-23.62"/>
<polygon fill="midnightblue" stroke="midnightblue" points="359.59,-27.03 368.63,-21.51 358.12,-20.19 359.59,-27.03"/>
</g>
</g>
</svg>
