<?xml version="1.0" encoding="UTF-8" standalone="no"?>
<!DOCTYPE svg PUBLIC "-//W3C//DTD SVG 1.1//EN"
 "http://www.w3.org/Graphics/SVG/1.1/DTD/svg11.dtd">
<!-- Generated by graphviz version 2.43.0 (0)
 -->
<!-- Title: x_utilities::get_sec_x_range Pages: 1 -->
<svg width="336pt" height="70pt"
 viewBox="0.00 0.00 336.00 70.00" xmlns="http://www.w3.org/2000/svg" xmlns:xlink="http://www.w3.org/1999/xlink">
<g id="graph0" class="graph" transform="scale(1 1) rotate(0) translate(4 66)">
<title>x_utilities::get_sec_x_range</title>
<polygon fill="white" stroke="transparent" points="-4,4 -4,-66 332,-66 332,4 -4,4"/>
<!-- Node1 -->
<g id="node1" class="node">
<title>Node1</title>
<g id="a_node1"><a xlink:title="Gets one of the the local ranges of contiguous tensorial perturbation variables to be printed or read...">
<polygon fill="#bfbfbf" stroke="black" points="0,-14 0,-48 125,-48 125,-14 0,-14"/>
<text text-anchor="start" x="8" y="-34.4" font-family="Ubuntu Mono" font-size="12.00">x_utilities::get_sec</text>
<text text-anchor="middle" x="62.5" y="-21.4" font-family="Ubuntu Mono" font-size="12.00">_x_range</text>
</a>
</g>
</g>
<!-- Node2 -->
<g id="node2" class="node">
<title>Node2</title>
<g id="a_node2"><a xlink:href="namespacenum__utilities.html#a5ee3fbd1fe67d0deefc7194631389f2a" target="_top" xlink:title="Convert 2&#45;D coordinates (i,j) to the storage convention used in matrices.">
<polygon fill="white" stroke="black" points="191.5,-40.5 191.5,-61.5 297.5,-61.5 297.5,-40.5 191.5,-40.5"/>
<text text-anchor="middle" x="244.5" y="-47.9" font-family="Ubuntu Mono" font-size="12.00">num_utilities::c</text>
</a>
</g>
</g>
<!-- Node1&#45;&gt;Node2 -->
<g id="edge1" class="edge">
<title>Node1&#45;&gt;Node2</title>
<path fill="none" stroke="midnightblue" d="M125.19,-37.85C143.31,-39.87 163.14,-42.07 181.29,-44.09"/>
<polygon fill="midnightblue" stroke="midnightblue" points="181.14,-47.59 191.47,-45.22 181.92,-40.64 181.14,-47.59"/>
</g>
<!-- Node3 -->
<g id="node3" class="node">
<title>Node3</title>
<g id="a_node3"><a xlink:href="namespacex__utilities.html#a689aca7fedb49c43c5a65a18d557259f" target="_top" xlink:title="Determines whether a variable needs to be considered:">
<polygon fill="white" stroke="black" points="161,-0.5 161,-21.5 328,-21.5 328,-0.5 161,-0.5"/>
<text text-anchor="middle" x="244.5" y="-7.9" font-family="Ubuntu Mono" font-size="12.00">x_utilities::is_necessary_x</text>
</a>
</g>
</g>
<!-- Node1&#45;&gt;Node3 -->
<g id="edge2" class="edge">
<title>Node1&#45;&gt;Node3</title>
<path fill="none" stroke="midnightblue" d="M125.19,-24.15C133.46,-23.23 142.08,-22.27 150.73,-21.31"/>
<polygon fill="midnightblue" stroke="midnightblue" points="151.34,-24.76 160.89,-20.18 150.56,-17.8 151.34,-24.76"/>
</g>
</g>
</svg>
