<?xml version="1.0" encoding="UTF-8" standalone="no"?>
<!DOCTYPE svg PUBLIC "-//W3C//DTD SVG 1.1//EN"
 "http://www.w3.org/Graphics/SVG/1.1/DTD/svg11.dtd">
<!-- Generated by graphviz version 2.43.0 (0)
 -->
<!-- Title: mpi_ops::broadcast_input_opts Pages: 1 -->
<svg width="224pt" height="70pt"
 viewBox="0.00 0.00 224.00 70.00" xmlns="http://www.w3.org/2000/svg" xmlns:xlink="http://www.w3.org/1999/xlink">
<g id="graph0" class="graph" transform="scale(1 1) rotate(0) translate(4 66)">
<title>mpi_ops::broadcast_input_opts</title>
<polygon fill="white" stroke="transparent" points="-4,4 -4,-66 220,-66 220,4 -4,4"/>
<!-- Node1 -->
<g id="node1" class="node">
<title>Node1</title>
<g id="a_node1"><a xlink:title="Broadcasts options (e.g. user&#45;prescribed) that are not passed through the HDF5 output file (i....">
<polygon fill="#bfbfbf" stroke="black" points="83,-14 83,-48 216,-48 216,-14 83,-14"/>
<text text-anchor="start" x="91" y="-34.4" font-family="Ubuntu Mono" font-size="12.00">mpi_ops::broadcast</text>
<text text-anchor="middle" x="149.5" y="-21.4" font-family="Ubuntu Mono" font-size="12.00">_input_opts</text>
</a>
</g>
</g>
<!-- Node2 -->
<g id="node2" class="node">
<title>Node2</title>
<g id="a_node2"><a xlink:href="PB3D_8f90.html#afaee01f014ab3398eecac996b2795fd2" target="_top" xlink:title="Peeling Ballooning in 3D.">
<polygon fill="white" stroke="black" points="0,-40.5 0,-61.5 47,-61.5 47,-40.5 0,-40.5"/>
<text text-anchor="middle" x="23.5" y="-47.9" font-family="Ubuntu Mono" font-size="12.00">pb3d</text>
</a>
</g>
</g>
<!-- Node1&#45;&gt;Node2 -->
<g id="edge1" class="edge">
<title>Node1&#45;&gt;Node2</title>
<path fill="none" stroke="midnightblue" d="M72.97,-43.18C63.59,-44.69 54.65,-46.14 47.05,-47.36"/>
<polygon fill="midnightblue" stroke="midnightblue" points="73.55,-46.63 82.87,-41.59 72.44,-39.72 73.55,-46.63"/>
</g>
<!-- Node3 -->
<g id="node3" class="node">
<title>Node3</title>
<g id="a_node3"><a xlink:href="POST_8f90.html#ac289b64ac4671fea0b4f2298ba1188a1" target="_top" xlink:title="Peeling Ballooning in 3D: postprocessing.">
<polygon fill="white" stroke="black" points="2.5,-0.5 2.5,-21.5 44.5,-21.5 44.5,-0.5 2.5,-0.5"/>
<text text-anchor="middle" x="23.5" y="-7.9" font-family="Ubuntu Mono" font-size="12.00">post</text>
</a>
</g>
</g>
<!-- Node1&#45;&gt;Node3 -->
<g id="edge2" class="edge">
<title>Node1&#45;&gt;Node3</title>
<path fill="none" stroke="midnightblue" d="M72.82,-18.79C62.47,-17.12 52.66,-15.54 44.61,-14.24"/>
<polygon fill="midnightblue" stroke="midnightblue" points="72.44,-22.28 82.87,-20.41 73.55,-15.37 72.44,-22.28"/>
</g>
</g>
</svg>
