<?xml version="1.0" encoding="UTF-8" standalone="no"?>
<!DOCTYPE svg PUBLIC "-//W3C//DTD SVG 1.1//EN"
 "http://www.w3.org/Graphics/SVG/1.1/DTD/svg11.dtd">
<!-- Generated by graphviz version 14.1.2 (20260124.0452)
 -->
<!-- Title: mpi_utilities::lock_header Pages: 1 -->
<svg width="316pt" height="104pt"
 viewBox="0.00 0.00 316.00 104.00" xmlns="http://www.w3.org/2000/svg" xmlns:xlink="http://www.w3.org/1999/xlink">
<g id="graph0" class="graph" transform="scale(1 1) rotate(0) translate(4 99.75)">
<title>mpi_utilities::lock_header</title>
<!-- Node1 -->
<g id="Node000001" class="node">
<title>Node1</title>
<g id="a_Node000001"><a xlink:title="Returns the header for lock debug messages.">
<polygon fill="#999999" stroke="#666666" points="130,-55.12 0,-55.12 0,-21.62 130,-21.62 130,-55.12"/>
<text xml:space="preserve" text-anchor="start" x="8" y="-39.73" font-family="Ubuntu Mono" font-size="12.00">mpi_utilities::lock</text>
<text xml:space="preserve" text-anchor="middle" x="65" y="-26.98" font-family="Ubuntu Mono" font-size="12.00">_header</text>
</a>
</g>
</g>
<!-- Node2 -->
<g id="Node000002" class="node">
<title>Node2</title>
<g id="a_Node000002"><a xlink:href="namespacestr__utilities.html#a0b97e51770725a3e98ed393d26681414" target="_top" xlink:title="Convert an integer to string.">
<polygon fill="white" stroke="#666666" points="305,-77.75 169,-77.75 169,-57 305,-57 305,-77.75"/>
<text xml:space="preserve" text-anchor="middle" x="237" y="-62.35" font-family="Ubuntu Mono" font-size="12.00">str_utilities::i2str</text>
</a>
</g>
</g>
<!-- Node1&#45;&gt;Node2 -->
<g id="edge1_Node000001_Node000002" class="edge">
<title>Node1&#45;&gt;Node2</title>
<g id="a_edge1_Node000001_Node000002"><a xlink:title=" ">
<path fill="none" stroke="#63b8ff" d="M130.27,-49.34C140.42,-51.07 150.99,-52.87 161.35,-54.64"/>
<polygon fill="#63b8ff" stroke="#63b8ff" points="160.55,-58.05 170.99,-56.29 161.72,-51.15 160.55,-58.05"/>
</a>
</g>
</g>
<!-- Node3 -->
<g id="Node000003" class="node">
<title>Node3</title>
<g id="a_Node000003"><a xlink:href="namespacestr__utilities.html#acb8c4e66aead51f178e47fdea8d7a7db" target="_top" xlink:title="Convert an integer to string.">
<polygon fill="white" stroke="#666666" points="308,-20.75 166,-20.75 166,0 308,0 308,-20.75"/>
<text xml:space="preserve" text-anchor="middle" x="237" y="-5.35" font-family="Ubuntu Mono" font-size="12.00">str_utilities::ii2str</text>
</a>
</g>
</g>
<!-- Node1&#45;&gt;Node3 -->
<g id="edge3_Node000001_Node000003" class="edge">
<title>Node1&#45;&gt;Node3</title>
<g id="a_edge3_Node000001_Node000003"><a xlink:title=" ">
<path fill="none" stroke="#63b8ff" d="M130.27,-27.79C139.66,-26.24 149.42,-24.64 159.03,-23.05"/>
<polygon fill="#63b8ff" stroke="#63b8ff" points="159.43,-26.53 168.73,-21.45 158.3,-19.63 159.43,-26.53"/>
</a>
</g>
</g>
<!-- Node2&#45;&gt;Node2 -->
<g id="edge2_Node000002_Node000002" class="edge">
<title>Node2&#45;&gt;Node2</title>
<g id="a_edge2_Node000002_Node000002"><a xlink:title=" ">
<path fill="none" stroke="#63b8ff" d="M209.29,-78.15C198.2,-86.81 207.44,-95.75 237,-95.75 253.17,-95.75 263.26,-93.08 267.27,-89.24"/>
<polygon fill="#63b8ff" stroke="#63b8ff" points="270.71,-88.58 265.05,-79.62 263.89,-90.15 270.71,-88.58"/>
</a>
</g>
</g>
<!-- Node3&#45;&gt;Node3 -->
<g id="edge4_Node000003_Node000003" class="edge">
<title>Node3&#45;&gt;Node3</title>
<g id="a_edge4_Node000003_Node000003"><a xlink:title=" ">
<path fill="none" stroke="#63b8ff" d="M209.29,-21.15C198.2,-29.81 207.44,-38.75 237,-38.75 253.17,-38.75 263.26,-36.08 267.27,-32.24"/>
<polygon fill="#63b8ff" stroke="#63b8ff" points="270.71,-31.58 265.05,-22.62 263.89,-33.15 270.71,-31.58"/>
</a>
</g>
</g>
</g>
</svg>
