<?xml version="1.0" encoding="UTF-8" standalone="no"?>
<!DOCTYPE svg PUBLIC "-//W3C//DTD SVG 1.1//EN"
 "http://www.w3.org/Graphics/SVG/1.1/DTD/svg11.dtd">
<!-- Generated by graphviz version 2.43.0 (0)
 -->
<!-- Title: eq_ops::kappa_plot Pages: 1 -->
<svg width="442pt" height="70pt"
 viewBox="0.00 0.00 442.00 70.00" xmlns="http://www.w3.org/2000/svg" xmlns:xlink="http://www.w3.org/1999/xlink">
<g id="graph0" class="graph" transform="scale(1 1) rotate(0) translate(4 66)">
<title>eq_ops::kappa_plot</title>
<polygon fill="white" stroke="transparent" points="-4,4 -4,-66 438,-66 438,4 -4,4"/>
<!-- Node1 -->
<g id="node1" class="node">
<title>Node1</title>
<g id="a_node1"><a xlink:title="Plots the curvature.">
<polygon fill="#bfbfbf" stroke="black" points="303,-20.5 303,-41.5 434,-41.5 434,-20.5 303,-20.5"/>
<text text-anchor="middle" x="368.5" y="-27.9" font-family="Ubuntu Mono" font-size="12.00">eq_ops::kappa_plot</text>
</a>
</g>
</g>
<!-- Node2 -->
<g id="node2" class="node">
<title>Node2</title>
<g id="a_node2"><a xlink:href="namespacedriver__eq.html#adc9d5dff288fa512e5ef885627d940cc" target="_top" xlink:title="Main driver of PB3D equilibrium part.">
<polygon fill="white" stroke="black" points="93.5,-40.5 93.5,-61.5 256.5,-61.5 256.5,-40.5 93.5,-40.5"/>
<text text-anchor="middle" x="175" y="-47.9" font-family="Ubuntu Mono" font-size="12.00">driver_eq::run_driver_eq</text>
</a>
</g>
</g>
<!-- Node1&#45;&gt;Node2 -->
<g id="edge1" class="edge">
<title>Node1&#45;&gt;Node2</title>
<path fill="none" stroke="midnightblue" d="M292.67,-38.82C280.83,-40.05 268.55,-41.33 256.59,-42.58"/>
<polygon fill="midnightblue" stroke="midnightblue" points="293.35,-42.26 302.93,-37.74 292.62,-35.3 293.35,-42.26"/>
</g>
<!-- Node4 -->
<g id="node4" class="node">
<title>Node4</title>
<g id="a_node4"><a xlink:href="namespacedriver__post.html#a33b3c6f9018a0ddc92dce77394b8ab37" target="_top" xlink:title="The main driver routine for postprocessing.">
<polygon fill="white" stroke="black" points="83,-0.5 83,-21.5 267,-21.5 267,-0.5 83,-0.5"/>
<text text-anchor="middle" x="175" y="-7.9" font-family="Ubuntu Mono" font-size="12.00">driver_post::run_driver_post</text>
</a>
</g>
</g>
<!-- Node1&#45;&gt;Node4 -->
<g id="edge3" class="edge">
<title>Node1&#45;&gt;Node4</title>
<path fill="none" stroke="midnightblue" d="M292.8,-23.2C284.39,-22.32 275.75,-21.42 267.15,-20.52"/>
<polygon fill="midnightblue" stroke="midnightblue" points="292.62,-26.7 302.93,-24.26 293.35,-19.74 292.62,-26.7"/>
</g>
<!-- Node3 -->
<g id="node3" class="node">
<title>Node3</title>
<g id="a_node3"><a xlink:href="PB3D_8f90.html#afaee01f014ab3398eecac996b2795fd2" target="_top" xlink:title="Peeling Ballooning in 3D.">
<polygon fill="white" stroke="black" points="0,-40.5 0,-61.5 47,-61.5 47,-40.5 0,-40.5"/>
<text text-anchor="middle" x="23.5" y="-47.9" font-family="Ubuntu Mono" font-size="12.00">pb3d</text>
</a>
</g>
</g>
<!-- Node2&#45;&gt;Node3 -->
<g id="edge2" class="edge">
<title>Node2&#45;&gt;Node3</title>
<path fill="none" stroke="midnightblue" d="M82.89,-51C69.66,-51 57.14,-51 47.12,-51"/>
<polygon fill="midnightblue" stroke="midnightblue" points="83.12,-54.5 93.12,-51 83.12,-47.5 83.12,-54.5"/>
</g>
<!-- Node5 -->
<g id="node5" class="node">
<title>Node5</title>
<g id="a_node5"><a xlink:href="POST_8f90.html#ac289b64ac4671fea0b4f2298ba1188a1" target="_top" xlink:title="Peeling Ballooning in 3D: postprocessing.">
<polygon fill="white" stroke="black" points="2.5,-0.5 2.5,-21.5 44.5,-21.5 44.5,-0.5 2.5,-0.5"/>
<text text-anchor="middle" x="23.5" y="-7.9" font-family="Ubuntu Mono" font-size="12.00">post</text>
</a>
</g>
</g>
<!-- Node4&#45;&gt;Node5 -->
<g id="edge4" class="edge">
<title>Node4&#45;&gt;Node5</title>
<path fill="none" stroke="midnightblue" d="M72.49,-11C62.03,-11 52.38,-11 44.51,-11"/>
<polygon fill="midnightblue" stroke="midnightblue" points="72.73,-14.5 82.73,-11 72.73,-7.5 72.73,-14.5"/>
</g>
</g>
</svg>
