<?xml version="1.0" encoding="UTF-8" standalone="no"?>
<!DOCTYPE svg PUBLIC "-//W3C//DTD SVG 1.1//EN"
 "http://www.w3.org/Graphics/SVG/1.1/DTD/svg11.dtd">
<!-- Generated by graphviz version 2.38.0 (20140413.2041)
 -->
<!-- Title: grid_utilities::calc_vec_comp Pages: 1 -->
<svg width="622pt" height="244pt"
 viewBox="0.00 0.00 622.00 243.50" xmlns="http://www.w3.org/2000/svg" xmlns:xlink="http://www.w3.org/1999/xlink">
<g id="graph0" class="graph" transform="scale(1 1) rotate(0) translate(4 239.5)">
<title>grid_utilities::calc_vec_comp</title>
<polygon fill="white" stroke="none" points="-4,4 -4,-239.5 618,-239.5 618,4 -4,4"/>
<!-- Node39 -->
<g id="node1" class="node"><title>Node39</title>
<polygon fill="#bfbfbf" stroke="black" points="0,-107.5 0,-141.5 137,-141.5 137,-107.5 0,-107.5"/>
<text text-anchor="start" x="8" y="-127.9" font-family="Ubuntu Mono" font-size="12.00">grid_utilities::calc</text>
<text text-anchor="middle" x="68.5" y="-114.9" font-family="Ubuntu Mono" font-size="12.00">_vec_comp</text>
</g>
<!-- Node40 -->
<g id="node2" class="node"><title>Node40</title>
<g id="a_node2"><a xlink:href="namespaceeq__ops.html#a5591339a686f1c8591c4b43f40b15065" target="_top" xlink:title="Plots the magnetic fields. ">
<polygon fill="white" stroke="black" points="194,-214 194,-235 295,-235 295,-214 194,-214"/>
<text text-anchor="middle" x="244.5" y="-221.4" font-family="Ubuntu Mono" font-size="12.00">eq_ops::b_plot</text>
</a>
</g>
</g>
<!-- Node39&#45;&gt;Node40 -->
<g id="edge1" class="edge"><title>Node39&#45;&gt;Node40</title>
<path fill="none" stroke="midnightblue" d="M94.773,-148.529C114.647,-166.253 143.773,-189.756 173,-204.5 180.383,-208.225 188.562,-211.347 196.657,-213.934"/>
<polygon fill="midnightblue" stroke="midnightblue" points="96.8656,-145.701 87.1094,-141.57 92.1599,-150.884 96.8656,-145.701"/>
</g>
<!-- Node45 -->
<g id="node7" class="node"><title>Node45</title>
<g id="a_node7"><a xlink:href="namespaceeq__ops.html#a3064af9c961507ba68e5647b7b1a8d9c" target="_top" xlink:title="Plots the current. ">
<polygon fill="white" stroke="black" points="194,-174 194,-195 295,-195 295,-174 194,-174"/>
<text text-anchor="middle" x="244.5" y="-181.4" font-family="Ubuntu Mono" font-size="12.00">eq_ops::j_plot</text>
</a>
</g>
</g>
<!-- Node39&#45;&gt;Node45 -->
<g id="edge6" class="edge"><title>Node39&#45;&gt;Node45</title>
<path fill="none" stroke="midnightblue" d="M120.509,-145.289C137.128,-151.773 155.742,-158.731 173,-164.5 182.894,-167.808 193.683,-171.048 203.779,-173.925"/>
<polygon fill="midnightblue" stroke="midnightblue" points="121.566,-141.944 110.979,-141.539 119.003,-148.458 121.566,-141.944"/>
</g>
<!-- Node46 -->
<g id="node8" class="node"><title>Node46</title>
<g id="a_node8"><a xlink:href="namespaceeq__ops.html#a6a073d160b1e0918ea4cde3b439a2277" target="_top" xlink:title="Plots the curvature. ">
<polygon fill="white" stroke="black" points="182,-134 182,-155 307,-155 307,-134 182,-134"/>
<text text-anchor="middle" x="244.5" y="-141.4" font-family="Ubuntu Mono" font-size="12.00">eq_ops::kappa_plot</text>
</a>
</g>
</g>
<!-- Node39&#45;&gt;Node46 -->
<g id="edge9" class="edge"><title>Node39&#45;&gt;Node46</title>
<path fill="none" stroke="midnightblue" d="M147.357,-133.449C158.922,-134.778 170.704,-136.133 181.875,-137.417"/>
<polygon fill="midnightblue" stroke="midnightblue" points="147.605,-129.955 137.271,-132.29 146.806,-136.909 147.605,-129.955"/>
</g>
<!-- Node47 -->
<g id="node9" class="node"><title>Node47</title>
<g id="a_node9"><a xlink:href="namespaceeq__ops.html#acbdf306f2951fb24a24ca87fe16f5953" target="_top" xlink:title="Plots HALF of the change in the position vectors for 2 different toroidal positions, which can correspond to a ripple. ">
<polygon fill="white" stroke="black" points="176,-94 176,-115 313,-115 313,-94 176,-94"/>
<text text-anchor="middle" x="244.5" y="-101.4" font-family="Ubuntu Mono" font-size="12.00">eq_ops::delta_r_plot</text>
</a>
</g>
</g>
<!-- Node39&#45;&gt;Node47 -->
<g id="edge12" class="edge"><title>Node39&#45;&gt;Node47</title>
<path fill="none" stroke="midnightblue" d="M147.484,-115.536C156.969,-114.446 166.598,-113.339 175.914,-112.269"/>
<polygon fill="midnightblue" stroke="midnightblue" points="146.806,-112.091 137.271,-116.71 147.605,-119.045 146.806,-112.091"/>
</g>
<!-- Node48 -->
<g id="node10" class="node"><title>Node48</title>
<g id="a_node10"><a xlink:href="interfaceeq__ops_1_1calc__t__hf.html#a603859a698b8288ea62ee6a77f9fc2ca" target="_top" xlink:title="array version ">
<polygon fill="white" stroke="black" points="179,-0.5 179,-34.5 310,-34.5 310,-0.5 179,-0.5"/>
<text text-anchor="start" x="187" y="-20.9" font-family="Ubuntu Mono" font-size="12.00">eq_ops::calc_t_hf::</text>
<text text-anchor="middle" x="244.5" y="-7.9" font-family="Ubuntu Mono" font-size="12.00">calc_t_hf_arr</text>
</a>
</g>
</g>
<!-- Node39&#45;&gt;Node48 -->
<g id="edge14" class="edge"><title>Node39&#45;&gt;Node48</title>
<path fill="none" stroke="midnightblue" d="M95.9054,-100.573C115.96,-83.3064 144.809,-60.339 173,-44.5 179.399,-40.9049 186.372,-37.5906 193.361,-34.6064"/>
<polygon fill="midnightblue" stroke="midnightblue" points="93.3726,-98.1383 88.1419,-107.352 97.9766,-103.411 93.3726,-98.1383"/>
</g>
<!-- Node49 -->
<g id="node11" class="node"><title>Node49</title>
<g id="a_node11"><a xlink:href="namespacesol__ops.html#a13b3cf2fb6437a3c93256368fa91c267" target="_top" xlink:title="Plots Eigenvectors. ">
<polygon fill="white" stroke="black" points="173,-54 173,-75 316,-75 316,-54 173,-54"/>
<text text-anchor="middle" x="244.5" y="-61.4" font-family="Ubuntu Mono" font-size="12.00">sol_ops::plot_sol_vec</text>
</a>
</g>
</g>
<!-- Node39&#45;&gt;Node49 -->
<g id="edge15" class="edge"><title>Node39&#45;&gt;Node49</title>
<path fill="none" stroke="midnightblue" d="M120.509,-103.711C137.128,-97.2269 155.742,-90.2692 173,-84.5 182.894,-81.1925 193.683,-77.9518 203.779,-75.0746"/>
<polygon fill="midnightblue" stroke="midnightblue" points="119.003,-100.542 110.979,-107.461 121.566,-107.056 119.003,-100.542"/>
</g>
<!-- Node41 -->
<g id="node3" class="node"><title>Node41</title>
<g id="a_node3"><a xlink:href="namespacedriver__eq.html#adc9d5dff288fa512e5ef885627d940cc" target="_top" xlink:title="Main driver of PB3D equilibrium part. ">
<polygon fill="white" stroke="black" points="364,-174 364,-195 525,-195 525,-174 364,-174"/>
<text text-anchor="middle" x="444.5" y="-181.4" font-family="Ubuntu Mono" font-size="12.00">driver_eq::run_driver_eq</text>
</a>
</g>
</g>
<!-- Node40&#45;&gt;Node41 -->
<g id="edge2" class="edge"><title>Node40&#45;&gt;Node41</title>
<path fill="none" stroke="midnightblue" d="M305.089,-212.462C332.556,-206.913 364.86,-200.387 391.348,-195.036"/>
<polygon fill="midnightblue" stroke="midnightblue" points="304.317,-209.047 295.208,-214.458 305.703,-215.908 304.317,-209.047"/>
</g>
<!-- Node43 -->
<g id="node5" class="node"><title>Node43</title>
<g id="a_node5"><a xlink:href="namespacedriver__post.html#a33b3c6f9018a0ddc92dce77394b8ab37" target="_top" xlink:title="The main driver routine for postprocessing. ">
<polygon fill="white" stroke="black" points="352,-134 352,-155 537,-155 537,-134 352,-134"/>
<text text-anchor="middle" x="444.5" y="-141.4" font-family="Ubuntu Mono" font-size="12.00">driver_post::run_driver_post</text>
</a>
</g>
</g>
<!-- Node40&#45;&gt;Node43 -->
<g id="edge4" class="edge"><title>Node40&#45;&gt;Node43</title>
<path fill="none" stroke="midnightblue" d="M304.609,-210.495C308.577,-208.723 312.416,-206.733 316,-204.5 336.3,-191.852 331.323,-176.521 352,-164.5 358.607,-160.659 365.872,-157.554 373.331,-155.045"/>
<polygon fill="midnightblue" stroke="midnightblue" points="303.172,-207.3 295.174,-214.249 305.759,-213.804 303.172,-207.3"/>
</g>
<!-- Node42 -->
<g id="node4" class="node"><title>Node42</title>
<g id="a_node4"><a xlink:href="PB3D_8f90.html#afaee01f014ab3398eecac996b2795fd2" target="_top" xlink:title="Peeling Ballooning in 3D. ">
<polygon fill="white" stroke="black" points="573,-174 573,-195 614,-195 614,-174 573,-174"/>
<text text-anchor="middle" x="593.5" y="-181.4" font-family="Ubuntu Mono" font-size="12.00">pb3d</text>
</a>
</g>
</g>
<!-- Node41&#45;&gt;Node42 -->
<g id="edge3" class="edge"><title>Node41&#45;&gt;Node42</title>
<path fill="none" stroke="midnightblue" d="M535.401,-184.5C549.492,-184.5 562.735,-184.5 572.913,-184.5"/>
<polygon fill="midnightblue" stroke="midnightblue" points="535.023,-181 525.023,-184.5 535.023,-188 535.023,-181"/>
</g>
<!-- Node44 -->
<g id="node6" class="node"><title>Node44</title>
<g id="a_node6"><a xlink:href="POST_8f90.html#ac289b64ac4671fea0b4f2298ba1188a1" target="_top" xlink:title="Peeling Ballooning in 3D: postprocessing. ">
<polygon fill="white" stroke="black" points="573,-134 573,-155 614,-155 614,-134 573,-134"/>
<text text-anchor="middle" x="593.5" y="-141.4" font-family="Ubuntu Mono" font-size="12.00">post</text>
</a>
</g>
</g>
<!-- Node43&#45;&gt;Node44 -->
<g id="edge5" class="edge"><title>Node43&#45;&gt;Node44</title>
<path fill="none" stroke="midnightblue" d="M547.464,-144.5C556.946,-144.5 565.681,-144.5 572.883,-144.5"/>
<polygon fill="midnightblue" stroke="midnightblue" points="547.344,-141 537.344,-144.5 547.344,-148 547.344,-141"/>
</g>
<!-- Node45&#45;&gt;Node41 -->
<g id="edge7" class="edge"><title>Node45&#45;&gt;Node41</title>
<path fill="none" stroke="midnightblue" d="M305.446,-184.5C323.787,-184.5 344.257,-184.5 363.7,-184.5"/>
<polygon fill="midnightblue" stroke="midnightblue" points="305.208,-181 295.208,-184.5 305.208,-188 305.208,-181"/>
</g>
<!-- Node45&#45;&gt;Node43 -->
<g id="edge8" class="edge"><title>Node45&#45;&gt;Node43</title>
<path fill="none" stroke="midnightblue" d="M305.089,-172.462C332.556,-166.913 364.86,-160.387 391.348,-155.036"/>
<polygon fill="midnightblue" stroke="midnightblue" points="304.317,-169.047 295.208,-174.458 305.703,-175.908 304.317,-169.047"/>
</g>
<!-- Node46&#45;&gt;Node41 -->
<g id="edge10" class="edge"><title>Node46&#45;&gt;Node41</title>
<path fill="none" stroke="midnightblue" d="M307.623,-157.05C334.573,-162.495 365.778,-168.799 391.482,-173.991"/>
<polygon fill="midnightblue" stroke="midnightblue" points="308.017,-153.559 297.522,-155.01 306.631,-160.42 308.017,-153.559"/>
</g>
<!-- Node46&#45;&gt;Node43 -->
<g id="edge11" class="edge"><title>Node46&#45;&gt;Node43</title>
<path fill="none" stroke="midnightblue" d="M317.22,-144.5C328.457,-144.5 340.201,-144.5 351.811,-144.5"/>
<polygon fill="midnightblue" stroke="midnightblue" points="317.063,-141 307.063,-144.5 317.063,-148 317.063,-141"/>
</g>
<!-- Node47&#45;&gt;Node43 -->
<g id="edge13" class="edge"><title>Node47&#45;&gt;Node43</title>
<path fill="none" stroke="midnightblue" d="M307.623,-117.05C334.573,-122.495 365.778,-128.799 391.482,-133.991"/>
<polygon fill="midnightblue" stroke="midnightblue" points="308.017,-113.559 297.522,-115.01 306.631,-120.42 308.017,-113.559"/>
</g>
<!-- Node49&#45;&gt;Node43 -->
<g id="edge16" class="edge"><title>Node49&#45;&gt;Node43</title>
<path fill="none" stroke="midnightblue" d="M296.498,-77.8942C303.113,-79.9445 309.756,-82.1629 316,-84.5 355.179,-99.1637 398.906,-121.009 423.623,-133.898"/>
<polygon fill="midnightblue" stroke="midnightblue" points="297.458,-74.5281 286.874,-75.0162 295.452,-81.2346 297.458,-74.5281"/>
</g>
</g>
</svg>
