<?xml version="1.0" encoding="UTF-8" standalone="no"?>
<!DOCTYPE svg PUBLIC "-//W3C//DTD SVG 1.1//EN"
 "http://www.w3.org/Graphics/SVG/1.1/DTD/svg11.dtd">
<!-- Generated by graphviz version 2.38.0 (20140413.2041)
 -->
<!-- Title: driver_sol::interp_v Pages: 1 -->
<svg width="1046pt" height="478pt"
 viewBox="0.00 0.00 1046.00 478.39" xmlns="http://www.w3.org/2000/svg" xmlns:xlink="http://www.w3.org/1999/xlink">
<g id="graph0" class="graph" transform="scale(1 1) rotate(0) translate(4 474.395)">
<title>driver_sol::interp_v</title>
<polygon fill="white" stroke="none" points="-4,4 -4,-474.395 1042,-474.395 1042,4 -4,4"/>
<!-- Node0 -->
<g id="node1" class="node"><title>Node0</title>
<polygon fill="#bfbfbf" stroke="black" points="0,-275.895 0,-296.895 137,-296.895 137,-275.895 0,-275.895"/>
<text text-anchor="middle" x="68.5" y="-283.295" font-family="Ubuntu Mono" font-size="12.00">driver_sol::interp_v</text>
</g>
<!-- Node1 -->
<g id="node2" class="node"><title>Node1</title>
<g id="a_node2"><a xlink:href="namespacex__utilities.html#a689aca7fedb49c43c5a65a18d557259f" target="_top" xlink:title="Determines whether a variable needs to be considered: ">
<polygon fill="white" stroke="black" points="173,-448.895 173,-469.895 352,-469.895 352,-448.895 173,-448.895"/>
<text text-anchor="middle" x="262.5" y="-456.295" font-family="Ubuntu Mono" font-size="12.00">x_utilities::is_necessary_x</text>
</a>
</g>
</g>
<!-- Node0&#45;&gt;Node1 -->
<g id="edge1" class="edge"><title>Node0&#45;&gt;Node1</title>
<path fill="none" stroke="midnightblue" d="M73.3987,-296.951C84.3432,-325.029 118.179,-401.959 173,-439.395 175.884,-441.364 178.933,-443.143 182.095,-444.748"/>
<polygon fill="midnightblue" stroke="midnightblue" points="180.71,-447.963 191.269,-448.831 183.556,-441.567 180.71,-447.963"/>
</g>
<!-- Node2 -->
<g id="node3" class="node"><title>Node2</title>
<g id="a_node3"><a xlink:href="namespacex__utilities.html#afde797341c5056abecc7a9221dbd345e" target="_top" xlink:title="Limit input mode range to output mode range. ">
<polygon fill="white" stroke="black" points="185,-408.895 185,-429.895 340,-429.895 340,-408.895 185,-408.895"/>
<text text-anchor="middle" x="262.5" y="-416.295" font-family="Ubuntu Mono" font-size="12.00">x_utilities::trim_modes</text>
</a>
</g>
</g>
<!-- Node0&#45;&gt;Node2 -->
<g id="edge2" class="edge"><title>Node0&#45;&gt;Node2</title>
<path fill="none" stroke="midnightblue" d="M76.0148,-297.097C90.4409,-319.819 127.439,-372.959 173,-399.395 176.679,-401.529 180.566,-403.436 184.577,-405.139"/>
<polygon fill="midnightblue" stroke="midnightblue" points="183.528,-408.485 194.119,-408.756 186.008,-401.939 183.528,-408.485"/>
</g>
<!-- Node3 -->
<g id="node4" class="node"><title>Node3</title>
<g id="a_node4"><a xlink:href="namespacenum__utilities.html#a5ee3fbd1fe67d0deefc7194631389f2a" target="_top" xlink:title="Convert 2&#45;D coordinates (i,j) to the storage convention used in matrices. ">
<polygon fill="white" stroke="black" points="206,-368.895 206,-389.895 319,-389.895 319,-368.895 206,-368.895"/>
<text text-anchor="middle" x="262.5" y="-376.295" font-family="Ubuntu Mono" font-size="12.00">num_utilities::c</text>
</a>
</g>
</g>
<!-- Node0&#45;&gt;Node3 -->
<g id="edge3" class="edge"><title>Node0&#45;&gt;Node3</title>
<path fill="none" stroke="midnightblue" d="M81.2779,-297.093C99.5462,-313.101 136.431,-343.14 173,-359.395 180.186,-362.589 187.935,-365.298 195.753,-367.589"/>
<polygon fill="midnightblue" stroke="midnightblue" points="195.09,-371.036 205.658,-370.274 196.921,-364.28 195.09,-371.036"/>
</g>
<!-- Node4 -->
<g id="node5" class="node"><title>Node4</title>
<g id="a_node5"><a xlink:href="namespacesol__utilities.html#a9af30f5bb948778dcafa7b80af6ea1fa" target="_top" xlink:title="Interpolation for a quantity V using splines. ">
<polygon fill="white" stroke="black" points="191,-315.395 191,-349.395 334,-349.395 334,-315.395 191,-315.395"/>
<text text-anchor="start" x="199" y="-335.795" font-family="Ubuntu Mono" font-size="12.00">sol_utilities::interp</text>
<text text-anchor="middle" x="262.5" y="-322.795" font-family="Ubuntu Mono" font-size="12.00">_v_spline</text>
</a>
</g>
</g>
<!-- Node0&#45;&gt;Node4 -->
<g id="edge4" class="edge"><title>Node0&#45;&gt;Node4</title>
<path fill="none" stroke="midnightblue" d="M113.549,-296.948C133.602,-301.753 157.982,-307.594 181.119,-313.137"/>
<polygon fill="midnightblue" stroke="midnightblue" points="180.402,-316.564 190.942,-315.49 182.033,-309.757 180.402,-316.564"/>
</g>
<!-- Node5 -->
<g id="node6" class="node"><title>Node5</title>
<g id="a_node6"><a xlink:href="namespacestr__utilities.html#a0b97e51770725a3e98ed393d26681414" target="_top" xlink:title="Convert an integer to string. ">
<polygon fill="white" stroke="black" points="403,-198.895 403,-219.895 540,-219.895 540,-198.895 403,-198.895"/>
<text text-anchor="middle" x="471.5" y="-206.295" font-family="Ubuntu Mono" font-size="12.00">str_utilities::i2str</text>
</a>
</g>
</g>
<!-- Node0&#45;&gt;Node5 -->
<g id="edge5" class="edge"><title>Node0&#45;&gt;Node5</title>
<path fill="none" stroke="midnightblue" d="M85.5535,-275.872C105.251,-263.556 140.096,-243.668 173,-234.395 245.508,-213.96 331.578,-208.67 392.438,-207.915"/>
<polygon fill="midnightblue" stroke="midnightblue" points="392.771,-211.413 402.74,-207.828 392.711,-204.413 392.771,-211.413"/>
</g>
<!-- Node6 -->
<g id="node7" class="node"><title>Node6</title>
<g id="a_node7"><a xlink:href="namespacemessages.html#aa4a8d01563e92558e8a0875b075ec54c" target="_top" xlink:title="Write output to file identified by output_i. ">
<polygon fill="white" stroke="black" points="740,-87.8949 740,-108.895 847,-108.895 847,-87.8949 740,-87.8949"/>
<text text-anchor="middle" x="793.5" y="-95.2949" font-family="Ubuntu Mono" font-size="12.00">messages::writo</text>
</a>
</g>
</g>
<!-- Node0&#45;&gt;Node6 -->
<g id="edge6" class="edge"><title>Node0&#45;&gt;Node6</title>
<path fill="none" stroke="midnightblue" d="M137.26,-293.744C233.165,-301.665 412.668,-307.282 555,-258.395 646.363,-227.014 735.856,-151.096 773.686,-116.326"/>
<polygon fill="midnightblue" stroke="midnightblue" points="776.427,-118.556 781.361,-109.181 771.657,-113.433 776.427,-118.556"/>
</g>
<!-- Node9 -->
<g id="node10" class="node"><title>Node9</title>
<g id="a_node10"><a xlink:href="namespacemessages.html#a6e6bfb084063e4cc91ee86e542043302" target="_top" xlink:title="Increases/decreases lvl of output. ">
<polygon fill="white" stroke="black" points="591,-98.8949 591,-119.895 704,-119.895 704,-98.8949 591,-98.8949"/>
<text text-anchor="middle" x="647.5" y="-106.295" font-family="Ubuntu Mono" font-size="12.00">messages::lvl_ud</text>
</a>
</g>
</g>
<!-- Node0&#45;&gt;Node9 -->
<g id="edge9" class="edge"><title>Node0&#45;&gt;Node9</title>
<path fill="none" stroke="midnightblue" d="M137.116,-277.027C149.065,-275.435 161.393,-273.833 173,-272.395 257.777,-261.891 480.685,-271.523 555,-229.395 595.8,-206.266 624.282,-156.805 637.722,-129.149"/>
<polygon fill="midnightblue" stroke="midnightblue" points="640.918,-130.576 641.988,-120.036 634.578,-127.608 640.918,-130.576"/>
</g>
<!-- Node10 -->
<g id="node11" class="node"><title>Node10</title>
<g id="a_node11"><a xlink:href="namespacestr__utilities.html#ac778d706b2e021672618939ab58fdd32" target="_top" xlink:title="Convert a real (double) to string. ">
<polygon fill="white" stroke="black" points="191,-160.895 191,-181.895 334,-181.895 334,-160.895 191,-160.895"/>
<text text-anchor="middle" x="262.5" y="-168.295" font-family="Ubuntu Mono" font-size="12.00">str_utilities::r2strt</text>
</a>
</g>
</g>
<!-- Node0&#45;&gt;Node10 -->
<g id="edge11" class="edge"><title>Node0&#45;&gt;Node10</title>
<path fill="none" stroke="midnightblue" d="M78.6545,-275.823C95.4654,-257.063 133.199,-217.908 173,-196.395 181.339,-191.887 190.571,-188.126 199.833,-185.007"/>
<polygon fill="midnightblue" stroke="midnightblue" points="200.966,-188.319 209.459,-181.985 198.87,-181.641 200.966,-188.319"/>
</g>
<!-- Node11 -->
<g id="node12" class="node"><title>Node11</title>
<g id="a_node12"><a xlink:href="namespaceoutput__ops.html#a50bfbb88cc91805469353c3ff47b3e2e" target="_top" xlink:title="Use external program to draw a plot. ">
<polygon fill="white" stroke="black" points="197,-119.895 197,-140.895 328,-140.895 328,-119.895 197,-119.895"/>
<text text-anchor="middle" x="262.5" y="-127.295" font-family="Ubuntu Mono" font-size="12.00">output_ops::draw_ex</text>
</a>
</g>
</g>
<!-- Node0&#45;&gt;Node11 -->
<g id="edge12" class="edge"><title>Node0&#45;&gt;Node11</title>
<path fill="none" stroke="midnightblue" d="M74.5018,-275.623C87.0853,-249.78 122.684,-183.991 173,-151.395 177.556,-148.443 182.484,-145.906 187.602,-143.725"/>
<polygon fill="midnightblue" stroke="midnightblue" points="188.87,-146.987 196.98,-140.17 186.389,-140.441 188.87,-146.987"/>
</g>
<!-- Node7 -->
<g id="node8" class="node"><title>Node7</title>
<g id="a_node8"><a xlink:href="namespacemessages.html#a82dddaab795b78b3d39e1ff1aab2f665" target="_top" xlink:title="Returns the memory usage in kilobytes. ">
<polygon fill="white" stroke="black" points="883,-107.895 883,-128.895 1038,-128.895 1038,-107.895 883,-107.895"/>
<text text-anchor="middle" x="960.5" y="-115.295" font-family="Ubuntu Mono" font-size="12.00">messages::get_mem_usage</text>
</a>
</g>
</g>
<!-- Node6&#45;&gt;Node7 -->
<g id="edge7" class="edge"><title>Node6&#45;&gt;Node7</title>
<path fill="none" stroke="midnightblue" d="M847.161,-104.778C855.452,-105.783 864.208,-106.844 873.025,-107.913"/>
<polygon fill="midnightblue" stroke="midnightblue" points="872.635,-111.391 882.984,-109.12 873.478,-104.442 872.635,-111.391"/>
</g>
<!-- Node8 -->
<g id="node9" class="node"><title>Node8</title>
<g id="a_node9"><a xlink:href="namespacemessages.html#a61fd0b51b5e37d58fdc993c01792a3fd" target="_top" xlink:title="Returns the time. ">
<polygon fill="white" stroke="black" points="895,-67.8949 895,-88.8949 1026,-88.8949 1026,-67.8949 895,-67.8949"/>
<text text-anchor="middle" x="960.5" y="-75.2949" font-family="Ubuntu Mono" font-size="12.00">messages::get_clock</text>
</a>
</g>
</g>
<!-- Node6&#45;&gt;Node8 -->
<g id="edge8" class="edge"><title>Node6&#45;&gt;Node8</title>
<path fill="none" stroke="midnightblue" d="M847.161,-92.0117C859.142,-90.5594 872.094,-88.9895 884.797,-87.4497"/>
<polygon fill="midnightblue" stroke="midnightblue" points="885.402,-90.9021 894.908,-86.2242 884.56,-83.953 885.402,-90.9021"/>
</g>
<!-- Node9&#45;&gt;Node6 -->
<g id="edge10" class="edge"><title>Node9&#45;&gt;Node6</title>
<path fill="none" stroke="midnightblue" d="M704.174,-105.142C712.502,-104.506 721.137,-103.846 729.601,-103.2"/>
<polygon fill="midnightblue" stroke="midnightblue" points="730.105,-106.671 739.809,-102.42 729.571,-99.6918 730.105,-106.671"/>
</g>
<!-- Node11&#45;&gt;Node5 -->
<g id="edge13" class="edge"><title>Node11&#45;&gt;Node5</title>
<path fill="none" stroke="midnightblue" d="M328.047,-141.034C336.402,-143.742 344.611,-147.138 352,-151.395 372.158,-163.009 367.87,-177.732 388,-189.395 391.73,-191.556 395.685,-193.484 399.764,-195.205"/>
<polygon fill="midnightblue" stroke="midnightblue" points="398.869,-198.608 409.461,-198.854 401.335,-192.056 398.869,-198.608"/>
</g>
<!-- Node11&#45;&gt;Node6 -->
<g id="edge14" class="edge"><title>Node11&#45;&gt;Node6</title>
<path fill="none" stroke="midnightblue" d="M270.948,-119.558C288.185,-95.5652 333.539,-38.4247 388,-17.3949 523.957,35.1044 699.356,-47.0388 765.588,-82.944"/>
<polygon fill="midnightblue" stroke="midnightblue" points="764.103,-86.1219 774.55,-87.8844 767.483,-79.9916 764.103,-86.1219"/>
</g>
<!-- Node11&#45;&gt;Node9 -->
<g id="edge19" class="edge"><title>Node11&#45;&gt;Node9</title>
<path fill="none" stroke="midnightblue" d="M328.038,-126.856C398.241,-123.007 509.878,-116.886 580.609,-113.008"/>
<polygon fill="midnightblue" stroke="midnightblue" points="580.944,-116.495 590.738,-112.452 580.561,-109.505 580.944,-116.495"/>
</g>
<!-- Node12 -->
<g id="node13" class="node"><title>Node12</title>
<g id="a_node13"><a xlink:href="namespacefiles__utilities.html#ac6066df405564ba2f5e3c4bba726c1f8" target="_top" xlink:title="Search for available new unit. ">
<polygon fill="white" stroke="black" points="388,-158.895 388,-179.895 555,-179.895 555,-158.895 388,-158.895"/>
<text text-anchor="middle" x="471.5" y="-166.295" font-family="Ubuntu Mono" font-size="12.00">files_utilities::nextunit</text>
</a>
</g>
</g>
<!-- Node11&#45;&gt;Node12 -->
<g id="edge15" class="edge"><title>Node11&#45;&gt;Node12</title>
<path fill="none" stroke="midnightblue" d="M319.245,-140.897C345.587,-145.861 377.215,-151.82 404.725,-157.002"/>
<polygon fill="midnightblue" stroke="midnightblue" points="404.181,-160.461 414.656,-158.874 405.477,-153.582 404.181,-160.461"/>
</g>
<!-- Node13 -->
<g id="node14" class="node"><title>Node13</title>
<g id="a_node14"><a xlink:href="namespaceoutput__ops.html#aa9e4855511b6ea16a08b3efb587bec51" target="_top" xlink:title="Executes command line, or displays a message if disabled. ">
<polygon fill="white" stroke="black" points="394,-27.3949 394,-61.3949 549,-61.3949 549,-27.3949 394,-27.3949"/>
<text text-anchor="start" x="402" y="-47.7949" font-family="Ubuntu Mono" font-size="12.00">output_ops::use_execute</text>
<text text-anchor="middle" x="471.5" y="-34.7949" font-family="Ubuntu Mono" font-size="12.00">_command_line</text>
</a>
</g>
</g>
<!-- Node11&#45;&gt;Node13 -->
<g id="edge16" class="edge"><title>Node11&#45;&gt;Node13</title>
<path fill="none" stroke="midnightblue" d="M283.854,-119.771C308.221,-107.284 350.452,-86.3666 388,-71.3949 393.696,-69.1238 399.665,-66.8926 405.677,-64.7459"/>
<polygon fill="midnightblue" stroke="midnightblue" points="406.837,-68.048 415.126,-61.4487 404.531,-61.4388 406.837,-68.048"/>
</g>
<!-- Node14 -->
<g id="node15" class="node"><title>Node14</title>
<g id="a_node15"><a xlink:href="namespacestr__utilities.html#a92ac6c0af1979df094de1caddd28ade0" target="_top" xlink:title="Convert a real (double) to string. ">
<polygon fill="white" stroke="black" points="403,-80.8949 403,-101.895 540,-101.895 540,-80.8949 403,-80.8949"/>
<text text-anchor="middle" x="471.5" y="-88.2949" font-family="Ubuntu Mono" font-size="12.00">str_utilities::r2str</text>
</a>
</g>
</g>
<!-- Node11&#45;&gt;Node14 -->
<g id="edge20" class="edge"><title>Node11&#45;&gt;Node14</title>
<path fill="none" stroke="midnightblue" d="M319.245,-119.892C345.587,-114.929 377.215,-108.97 404.725,-103.787"/>
<polygon fill="midnightblue" stroke="midnightblue" points="405.477,-107.207 414.656,-101.916 404.181,-100.328 405.477,-107.207"/>
</g>
<!-- Node13&#45;&gt;Node6 -->
<g id="edge17" class="edge"><title>Node13&#45;&gt;Node6</title>
<path fill="none" stroke="midnightblue" d="M549.148,-57.3292C604.445,-66.6605 678.17,-79.1017 729.929,-87.8361"/>
<polygon fill="midnightblue" stroke="midnightblue" points="729.533,-91.3186 739.976,-89.5315 730.698,-84.4162 729.533,-91.3186"/>
</g>
<!-- Node13&#45;&gt;Node9 -->
<g id="edge18" class="edge"><title>Node13&#45;&gt;Node9</title>
<path fill="none" stroke="midnightblue" d="M526.848,-61.5194C536.278,-64.6791 545.956,-68.0427 555,-71.3949 574.415,-78.5911 595.802,-87.4216 613.014,-94.7584"/>
<polygon fill="midnightblue" stroke="midnightblue" points="612.05,-98.1533 622.62,-98.882 614.811,-91.7209 612.05,-98.1533"/>
</g>
</g>
</svg>
