<?xml version="1.0" encoding="UTF-8" standalone="no"?>
<!DOCTYPE svg PUBLIC "-//W3C//DTD SVG 1.1//EN"
 "http://www.w3.org/Graphics/SVG/1.1/DTD/svg11.dtd">
<!-- Generated by graphviz version 2.43.0 (0)
 -->
<!-- Title: grid_utilities::calc_n_par_x_rich Pages: 1 -->
<svg width="779pt" height="84pt"
 viewBox="0.00 0.00 779.00 83.57" xmlns="http://www.w3.org/2000/svg" xmlns:xlink="http://www.w3.org/1999/xlink">
<g id="graph0" class="graph" transform="scale(1 1) rotate(0) translate(4 79.57)">
<title>grid_utilities::calc_n_par_x_rich</title>
<polygon fill="white" stroke="transparent" points="-4,4 -4,-79.57 775,-79.57 775,4 -4,4"/>
<!-- Node1 -->
<g id="node1" class="node">
<title>Node1</title>
<g id="a_node1"><a xlink:title="Calculates the local number of parallel grid points for this Richardson level, taking into account th...">
<polygon fill="#bfbfbf" stroke="black" points="652,-17 652,-51 771,-51 771,-17 652,-17"/>
<text text-anchor="start" x="660" y="-37.4" font-family="Ubuntu Mono" font-size="12.00">grid_utilities::calc</text>
<text text-anchor="middle" x="711.5" y="-24.4" font-family="Ubuntu Mono" font-size="12.00">_n_par_x_rich</text>
</a>
</g>
</g>
<!-- Node2 -->
<g id="node2" class="node">
<title>Node2</title>
<g id="a_node2"><a xlink:href="namespacegrid__ops.html#a06107dbdfd1dd62e372cc29ab0255bad" target="_top" xlink:title="Calculate equilibrium grid that follows magnetic field lines.">
<polygon fill="white" stroke="black" points="489,-40 489,-74 616,-74 616,-40 489,-40"/>
<text text-anchor="start" x="497" y="-60.4" font-family="Ubuntu Mono" font-size="12.00">grid_ops::calc_ang</text>
<text text-anchor="middle" x="552.5" y="-47.4" font-family="Ubuntu Mono" font-size="12.00">_grid_eq_b</text>
</a>
</g>
</g>
<!-- Node1&#45;&gt;Node2 -->
<g id="edge1" class="edge">
<title>Node1&#45;&gt;Node2</title>
<path fill="none" stroke="midnightblue" d="M641.43,-44.12C633.02,-45.35 624.46,-46.6 616.15,-47.82"/>
<polygon fill="midnightblue" stroke="midnightblue" points="642.21,-47.54 651.59,-42.63 641.19,-40.62 642.21,-47.54"/>
</g>
<!-- Node6 -->
<g id="node6" class="node">
<title>Node6</title>
<g id="a_node6"><a xlink:href="namespacerich__ops.html#a97206a15127960366fcb41d6889cb3b5" target="_top" xlink:title="Start a Richardson level.">
<polygon fill="white" stroke="black" points="293,-0.5 293,-21.5 442,-21.5 442,-0.5 293,-0.5"/>
<text text-anchor="middle" x="367.5" y="-7.9" font-family="Ubuntu Mono" font-size="12.00">rich_ops::start_rich_lvl</text>
</a>
</g>
</g>
<!-- Node1&#45;&gt;Node6 -->
<g id="edge6" class="edge">
<title>Node1&#45;&gt;Node6</title>
<path fill="none" stroke="midnightblue" d="M641.57,-29.36C583.77,-25.48 501.44,-19.94 442.31,-15.96"/>
<polygon fill="midnightblue" stroke="midnightblue" points="641.5,-32.87 651.71,-30.05 641.97,-25.88 641.5,-32.87"/>
</g>
<!-- Node3 -->
<g id="node3" class="node">
<title>Node3</title>
<g id="a_node3"><a xlink:href="namespacedriver__eq.html#adc9d5dff288fa512e5ef885627d940cc" target="_top" xlink:title="Main driver of PB3D equilibrium part.">
<polygon fill="white" stroke="black" points="83,-40.5 83,-61.5 246,-61.5 246,-40.5 83,-40.5"/>
<text text-anchor="middle" x="164.5" y="-47.9" font-family="Ubuntu Mono" font-size="12.00">driver_eq::run_driver_eq</text>
</a>
</g>
</g>
<!-- Node2&#45;&gt;Node3 -->
<g id="edge2" class="edge">
<title>Node2&#45;&gt;Node3</title>
<path fill="none" stroke="midnightblue" d="M478.74,-68.52C470.09,-69.54 461.36,-70.41 453,-71 377.19,-76.36 357.73,-77.45 282,-71 260.12,-69.14 236.18,-65.34 215.72,-61.54"/>
<polygon fill="midnightblue" stroke="midnightblue" points="479.36,-71.97 488.85,-67.26 478.49,-65.02 479.36,-71.97"/>
</g>
<!-- Node5 -->
<g id="node5" class="node">
<title>Node5</title>
<g id="a_node5"><a xlink:href="namespacegrid__ops.html#ad16495ddd320562451c2325bafecf2d8" target="_top" xlink:title="Sets up the field&#45;aligned equilibrium grid.">
<polygon fill="white" stroke="black" points="282,-40.5 282,-61.5 453,-61.5 453,-40.5 282,-40.5"/>
<text text-anchor="middle" x="367.5" y="-47.9" font-family="Ubuntu Mono" font-size="12.00">grid_ops::setup_grid_eq_b</text>
</a>
</g>
</g>
<!-- Node2&#45;&gt;Node5 -->
<g id="edge4" class="edge">
<title>Node2&#45;&gt;Node5</title>
<path fill="none" stroke="midnightblue" d="M478.67,-54.61C470.28,-54.34 461.67,-54.05 453.13,-53.77"/>
<polygon fill="midnightblue" stroke="midnightblue" points="478.67,-58.11 488.78,-54.94 478.9,-51.12 478.67,-58.11"/>
</g>
<!-- Node4 -->
<g id="node4" class="node">
<title>Node4</title>
<g id="a_node4"><a xlink:href="PB3D_8f90.html#afaee01f014ab3398eecac996b2795fd2" target="_top" xlink:title="Peeling Ballooning in 3D.">
<polygon fill="white" stroke="black" points="0,-20.5 0,-41.5 47,-41.5 47,-20.5 0,-20.5"/>
<text text-anchor="middle" x="23.5" y="-27.9" font-family="Ubuntu Mono" font-size="12.00">pb3d</text>
</a>
</g>
</g>
<!-- Node3&#45;&gt;Node4 -->
<g id="edge3" class="edge">
<title>Node3&#45;&gt;Node4</title>
<path fill="none" stroke="midnightblue" d="M80.1,-39C68.05,-37.27 56.57,-35.61 47.21,-34.27"/>
<polygon fill="midnightblue" stroke="midnightblue" points="79.94,-42.51 90.34,-40.47 80.94,-35.58 79.94,-42.51"/>
</g>
<!-- Node5&#45;&gt;Node3 -->
<g id="edge5" class="edge">
<title>Node5&#45;&gt;Node3</title>
<path fill="none" stroke="midnightblue" d="M271.83,-51C263.26,-51 254.64,-51 246.21,-51"/>
<polygon fill="midnightblue" stroke="midnightblue" points="271.84,-54.5 281.84,-51 271.84,-47.5 271.84,-54.5"/>
</g>
<!-- Node6&#45;&gt;Node4 -->
<g id="edge7" class="edge">
<title>Node6&#45;&gt;Node4</title>
<path fill="none" stroke="midnightblue" d="M282.45,-15.92C204.71,-20.46 94.32,-26.92 47.22,-29.67"/>
<polygon fill="midnightblue" stroke="midnightblue" points="282.93,-19.39 292.71,-15.32 282.52,-12.4 282.93,-19.39"/>
</g>
</g>
</svg>
