<?xml version="1.0" encoding="UTF-8" standalone="no"?>
<!DOCTYPE svg PUBLIC "-//W3C//DTD SVG 1.1//EN"
 "http://www.w3.org/Graphics/SVG/1.1/DTD/svg11.dtd">
<!-- Generated by graphviz version 2.38.0 (20140413.2041)
 -->
<!-- Title: grid_ops::setup_grid_eq_b Pages: 1 -->
<svg width="449pt" height="30pt"
 viewBox="0.00 0.00 449.00 30.00" xmlns="http://www.w3.org/2000/svg" xmlns:xlink="http://www.w3.org/1999/xlink">
<g id="graph0" class="graph" transform="scale(1 1) rotate(0) translate(4 26)">
<title>grid_ops::setup_grid_eq_b</title>
<polygon fill="white" stroke="none" points="-4,4 -4,-26 445,-26 445,4 -4,4"/>
<!-- Node126 -->
<g id="node1" class="node"><title>Node126</title>
<polygon fill="#bfbfbf" stroke="black" points="0,-0.5 0,-21.5 167,-21.5 167,-0.5 0,-0.5"/>
<text text-anchor="middle" x="83.5" y="-7.9" font-family="Ubuntu Mono" font-size="12.00">grid_ops::setup_grid_eq_b</text>
</g>
<!-- Node127 -->
<g id="node2" class="node"><title>Node127</title>
<g id="a_node2"><a xlink:href="namespacedriver__eq.html#ac8eca434f541966edc3556d72f261eff" target="_top" xlink:title="driver_eq::run_driver_eq">
<polygon fill="white" stroke="black" points="203,-0.5 203,-21.5 364,-21.5 364,-0.5 203,-0.5"/>
<text text-anchor="middle" x="283.5" y="-7.9" font-family="Ubuntu Mono" font-size="12.00">driver_eq::run_driver_eq</text>
</a>
</g>
</g>
<!-- Node126&#45;&gt;Node127 -->
<g id="edge1" class="edge"><title>Node126&#45;&gt;Node127</title>
<path fill="none" stroke="midnightblue" d="M177.125,-11C185.758,-11 194.456,-11 202.955,-11"/>
<polygon fill="midnightblue" stroke="midnightblue" points="177.036,-7.5001 167.036,-11 177.036,-14.5001 177.036,-7.5001"/>
</g>
<!-- Node128 -->
<g id="node3" class="node"><title>Node128</title>
<g id="a_node3"><a xlink:href="PB3D_8f90.html#afaee01f014ab3398eecac996b2795fd2" target="_top" xlink:title="pb3d">
<polygon fill="white" stroke="black" points="400,-0.5 400,-21.5 441,-21.5 441,-0.5 400,-0.5"/>
<text text-anchor="middle" x="420.5" y="-7.9" font-family="Ubuntu Mono" font-size="12.00">pb3d</text>
</a>
</g>
</g>
<!-- Node127&#45;&gt;Node128 -->
<g id="edge2" class="edge"><title>Node127&#45;&gt;Node128</title>
<path fill="none" stroke="midnightblue" d="M374.278,-11C383.755,-11 392.571,-11 399.856,-11"/>
<polygon fill="midnightblue" stroke="midnightblue" points="374.201,-7.5001 364.201,-11 374.201,-14.5001 374.201,-7.5001"/>
</g>
</g>
</svg>
