<?xml version="1.0" encoding="UTF-8" standalone="no"?>
<!DOCTYPE svg PUBLIC "-//W3C//DTD SVG 1.1//EN"
 "http://www.w3.org/Graphics/SVG/1.1/DTD/svg11.dtd">
<!-- Generated by graphviz version 14.1.2 (20260124.0452)
 -->
<!-- Title: dtorh::dtorh1 Pages: 1 -->
<svg width="748pt" height="105pt"
 viewBox="0.00 0.00 748.00 105.00" xmlns="http://www.w3.org/2000/svg" xmlns:xlink="http://www.w3.org/1999/xlink">
<g id="graph0" class="graph" transform="scale(1 1) rotate(0) translate(4 100.75)">
<title>dtorh::dtorh1</title>
<!-- Node1 -->
<g id="Node000001" class="node">
<title>Node1</title>
<g id="a_Node000001"><a xlink:title="Calculates toroidal harmonics of a fixed order m and degrees up to nmax.">
<polygon fill="#999999" stroke="#666666" points="740,-76.75 646,-76.75 646,-56 740,-56 740,-76.75"/>
<text xml:space="preserve" text-anchor="middle" x="693" y="-61.35" font-family="Ubuntu Mono" font-size="12.00">dtorh::dtorh1</text>
</a>
</g>
</g>
<!-- Node2 -->
<g id="Node000002" class="node">
<title>Node2</title>
<g id="a_Node000002"><a xlink:href="namespacevac__ops.html#a6fb02475c7ef2da9408952cf6f1cca8b" target="_top" xlink:title="Calculates matrices G and H in axisymmetric configurations.">
<polygon fill="white" stroke="#666666" points="610,-96.75 486,-96.75 486,-76 610,-76 610,-96.75"/>
<text xml:space="preserve" text-anchor="middle" x="548" y="-81.35" font-family="Ubuntu Mono" font-size="12.00">vac_ops::calc_gh_2</text>
</a>
</g>
</g>
<!-- Node1&#45;&gt;Node2 -->
<g id="edge1_Node000001_Node000002" class="edge">
<title>Node1&#45;&gt;Node2</title>
<g id="a_edge1_Node000001_Node000002"><a xlink:title=" ">
<path fill="none" stroke="#63b8ff" d="M634.23,-74.45C626.35,-75.56 618.24,-76.69 610.29,-77.8"/>
<polygon fill="#63b8ff" stroke="#63b8ff" points="634.65,-77.93 644.07,-73.08 633.68,-71 634.65,-77.93"/>
</a>
</g>
</g>
<!-- Node6 -->
<g id="Node000006" class="node">
<title>Node6</title>
<g id="a_Node000006"><a xlink:href="test_8f90.html#a197914f99b7e194fb4bca9ca3669e0e8" target="_top" xlink:title=" ">
<polygon fill="white" stroke="#666666" points="574,-57.75 522,-57.75 522,-37 574,-37 574,-57.75"/>
<text xml:space="preserve" text-anchor="middle" x="548" y="-42.35" font-family="Ubuntu Mono" font-size="12.00">plot_y</text>
</a>
</g>
</g>
<!-- Node1&#45;&gt;Node6 -->
<g id="edge5_Node000001_Node000006" class="edge">
<title>Node1&#45;&gt;Node6</title>
<g id="a_edge5_Node000001_Node000006"><a xlink:title=" ">
<path fill="none" stroke="#63b8ff" d="M634.23,-58.7C613.42,-55.93 591,-52.96 574.38,-50.75"/>
<polygon fill="#63b8ff" stroke="#63b8ff" points="633.7,-62.16 644.07,-60.01 634.62,-55.22 633.7,-62.16"/>
</a>
</g>
</g>
<!-- Node3 -->
<g id="Node000003" class="node">
<title>Node3</title>
<g id="a_Node000003"><a xlink:href="namespacevac__ops.html#a37220702fbf378626a0f2c12f446e0aa" target="_top" xlink:title="Stores calculation of the vacuum response by storing the necessary variables.">
<polygon fill="white" stroke="#666666" points="447,-96.75 323,-96.75 323,-76 447,-76 447,-96.75"/>
<text xml:space="preserve" text-anchor="middle" x="385" y="-81.35" font-family="Ubuntu Mono" font-size="12.00">vac_ops::store_vac</text>
</a>
</g>
</g>
<!-- Node2&#45;&gt;Node3 -->
<g id="edge2_Node000002_Node000003" class="edge">
<title>Node2&#45;&gt;Node3</title>
<g id="a_edge2_Node000002_Node000003"><a xlink:title=" ">
<path fill="none" stroke="#63b8ff" d="M474.37,-86.38C465.37,-86.38 456.23,-86.38 447.42,-86.38"/>
<polygon fill="#63b8ff" stroke="#63b8ff" points="474.16,-89.88 484.16,-86.38 474.16,-82.88 474.16,-89.88"/>
</a>
</g>
</g>
<!-- Node4 -->
<g id="Node000004" class="node">
<title>Node4</title>
<g id="a_Node000004"><a xlink:href="namespacedriver__eq.html#a40d652e15887ad4f788a3945e6253571" target="_top" xlink:title="Main driver of PB3D equilibrium part.">
<polygon fill="white" stroke="#666666" points="284,-96.75 124,-96.75 124,-76 284,-76 284,-96.75"/>
<text xml:space="preserve" text-anchor="middle" x="204" y="-81.35" font-family="Ubuntu Mono" font-size="12.00">driver_eq::run_driver_eq</text>
</a>
</g>
</g>
<!-- Node3&#45;&gt;Node4 -->
<g id="edge3_Node000003_Node000004" class="edge">
<title>Node3&#45;&gt;Node4</title>
<g id="a_edge3_Node000003_Node000004"><a xlink:title=" ">
<path fill="none" stroke="#63b8ff" d="M311.17,-86.38C302.32,-86.38 293.24,-86.38 284.3,-86.38"/>
<polygon fill="#63b8ff" stroke="#63b8ff" points="311.14,-89.88 321.14,-86.38 311.14,-82.88 311.14,-89.88"/>
</a>
</g>
</g>
<!-- Node5 -->
<g id="Node000005" class="node">
<title>Node5</title>
<g id="a_Node000005"><a xlink:href="PB3D_8f90.html#a36e5b0ce05c9783f58b43c4463b290a1" target="_top" xlink:title="Peeling Ballooning in 3D.">
<polygon fill="white" stroke="#666666" points="88,-77.75 0,-77.75 0,-57 88,-57 88,-77.75"/>
<text xml:space="preserve" text-anchor="middle" x="44" y="-62.35" font-family="Ubuntu Mono" font-size="12.00">__pb3d_f90__</text>
</a>
</g>
</g>
<!-- Node4&#45;&gt;Node5 -->
<g id="edge4_Node000004_Node000005" class="edge">
<title>Node4&#45;&gt;Node5</title>
<g id="a_edge4_Node000004_Node000005"><a xlink:title=" ">
<path fill="none" stroke="#63b8ff" d="M112.19,-75.46C103.93,-74.46 95.84,-73.49 88.3,-72.58"/>
<polygon fill="#63b8ff" stroke="#63b8ff" points="111.69,-78.92 122.03,-76.64 112.52,-71.97 111.69,-78.92"/>
</a>
</g>
</g>
<!-- Node7 -->
<g id="Node000007" class="node">
<title>Node7</title>
<g id="a_Node000007"><a xlink:href="namespacetest.html#aca21ee464c0b1f4b617177afdde110ec" target="_top" xlink:title="Performs generic tests.">
<polygon fill="white" stroke="#666666" points="450,-57.75 320,-57.75 320,-37 450,-37 450,-57.75"/>
<text xml:space="preserve" text-anchor="middle" x="385" y="-42.35" font-family="Ubuntu Mono" font-size="12.00">test::generic_tests</text>
</a>
</g>
</g>
<!-- Node6&#45;&gt;Node7 -->
<g id="edge6_Node000006_Node000007" class="edge">
<title>Node6&#45;&gt;Node7</title>
<g id="a_edge6_Node000006_Node000007"><a xlink:title=" ">
<path fill="none" stroke="#63b8ff" d="M510.51,-47.38C492.69,-47.38 470.72,-47.38 450.21,-47.38"/>
<polygon fill="#63b8ff" stroke="#63b8ff" points="510.33,-50.88 520.33,-47.38 510.33,-43.88 510.33,-50.88"/>
</a>
</g>
</g>
<!-- Node7&#45;&gt;Node5 -->
<g id="edge7_Node000007_Node000005" class="edge">
<title>Node7&#45;&gt;Node5</title>
<g id="a_edge7_Node000007_Node000005"><a xlink:title=" ">
<path fill="none" stroke="#63b8ff" d="M308.4,-51.84C240.74,-55.83 143.9,-61.54 88.45,-64.81"/>
<polygon fill="#63b8ff" stroke="#63b8ff" points="308.55,-55.33 318.33,-51.25 308.14,-48.34 308.55,-55.33"/>
</a>
</g>
</g>
<!-- Node8 -->
<g id="Node000008" class="node">
<title>Node8</title>
<g id="a_Node000008"><a xlink:href="POST_8f90.html#a28f8fd95cf9c74c0cfd8b386827a7a9b" target="_top" xlink:title="Peeling Ballooning in 3D: postprocessing.">
<polygon fill="white" stroke="#666666" points="248,-20.75 160,-20.75 160,0 248,0 248,-20.75"/>
<text xml:space="preserve" text-anchor="middle" x="204" y="-5.35" font-family="Ubuntu Mono" font-size="12.00">__post_f90__</text>
</a>
</g>
</g>
<!-- Node7&#45;&gt;Node8 -->
<g id="edge8_Node000007_Node000008" class="edge">
<title>Node7&#45;&gt;Node8</title>
<g id="a_edge8_Node000007_Node000008"><a xlink:title=" ">
<path fill="none" stroke="#63b8ff" d="M320.6,-34.27C296.65,-29.32 269.96,-23.8 248.27,-19.32"/>
<polygon fill="#63b8ff" stroke="#63b8ff" points="319.76,-37.67 330.26,-36.27 321.18,-30.82 319.76,-37.67"/>
</a>
</g>
</g>
</g>
</svg>
