<?xml version="1.0" encoding="UTF-8" standalone="no"?>
<!DOCTYPE svg PUBLIC "-//W3C//DTD SVG 1.1//EN"
 "http://www.w3.org/Graphics/SVG/1.1/DTD/svg11.dtd">
<!-- Generated by graphviz version 2.38.0 (20140413.2041)
 -->
<!-- Title: x_ops::print_debug_x_2 Pages: 1 -->
<svg width="640pt" height="70pt"
 viewBox="0.00 0.00 640.00 70.00" xmlns="http://www.w3.org/2000/svg" xmlns:xlink="http://www.w3.org/1999/xlink">
<g id="graph0" class="graph" transform="scale(1 1) rotate(0) translate(4 66)">
<title>x_ops::print_debug_x_2</title>
<polygon fill="white" stroke="none" points="-4,4 -4,-66 636,-66 636,4 -4,4"/>
<!-- Node108 -->
<g id="node1" class="node"><title>Node108</title>
<polygon fill="#bfbfbf" stroke="black" points="0,-19.5 0,-40.5 149,-40.5 149,-19.5 0,-19.5"/>
<text text-anchor="middle" x="74.5" y="-26.9" font-family="Ubuntu Mono" font-size="12.00">x_ops::print_debug_x_2</text>
</g>
<!-- Node109 -->
<g id="node2" class="node"><title>Node109</title>
<g id="a_node2"><a xlink:href="namespacedriver__sol.html#ad3b1765b3ecc5f82129bfc683ffc6c5c" target="_top" xlink:title="Main driver of PB3D solution part. ">
<polygon fill="white" stroke="black" points="382,-40.5 382,-61.5 555,-61.5 555,-40.5 382,-40.5"/>
<text text-anchor="middle" x="468.5" y="-47.9" font-family="Ubuntu Mono" font-size="12.00">driver_sol::run_driver_sol</text>
</a>
</g>
</g>
<!-- Node108&#45;&gt;Node109 -->
<g id="edge1" class="edge"><title>Node108&#45;&gt;Node109</title>
<path fill="none" stroke="midnightblue" d="M159.532,-34.5017C225.102,-38.0144 315.827,-42.8747 381.815,-46.4097"/>
<polygon fill="midnightblue" stroke="midnightblue" points="159.405,-30.99 149.232,-33.9499 159.031,-37.98 159.405,-30.99"/>
</g>
<!-- Node111 -->
<g id="node4" class="node"><title>Node111</title>
<g id="a_node4"><a xlink:href="namespacedriver__x.html#ad3924b3d66f336f0a9a9559eafffec8e" target="_top" xlink:title="Part 2 of driver_X: Tensorial jobs. ">
<polygon fill="white" stroke="black" points="185,-0.5 185,-21.5 346,-21.5 346,-0.5 185,-0.5"/>
<text text-anchor="middle" x="265.5" y="-7.9" font-family="Ubuntu Mono" font-size="12.00">driver_x::run_driver_x_2</text>
</a>
</g>
</g>
<!-- Node108&#45;&gt;Node111 -->
<g id="edge3" class="edge"><title>Node108&#45;&gt;Node111</title>
<path fill="none" stroke="midnightblue" d="M159.086,-21.5972C167.642,-20.737 176.32,-19.8647 184.833,-19.0089"/>
<polygon fill="midnightblue" stroke="midnightblue" points="158.713,-18.1169 149.114,-22.5997 159.413,-25.0818 158.713,-18.1169"/>
</g>
<!-- Node110 -->
<g id="node3" class="node"><title>Node110</title>
<g id="a_node3"><a xlink:href="PB3D_8f90.html#afaee01f014ab3398eecac996b2795fd2" target="_top" xlink:title="Peeling Ballooning in 3D. ">
<polygon fill="white" stroke="black" points="591,-20.5 591,-41.5 632,-41.5 632,-20.5 591,-20.5"/>
<text text-anchor="middle" x="611.5" y="-27.9" font-family="Ubuntu Mono" font-size="12.00">pb3d</text>
</a>
</g>
</g>
<!-- Node109&#45;&gt;Node110 -->
<g id="edge2" class="edge"><title>Node109&#45;&gt;Node110</title>
<path fill="none" stroke="midnightblue" d="M553.835,-39.0376C567.597,-37.0855 580.627,-35.2373 590.715,-33.8064"/>
<polygon fill="midnightblue" stroke="midnightblue" points="553.126,-35.6031 543.716,-40.4729 554.109,-42.5337 553.126,-35.6031"/>
</g>
<!-- Node112 -->
<g id="node5" class="node"><title>Node112</title>
<g id="a_node5"><a xlink:href="namespacedriver__x.html#ada3d72a0929daaa5e3da585246d62281" target="_top" xlink:title="Main driver of PB3D perturbation part. ">
<polygon fill="white" stroke="black" points="394,-0.5 394,-21.5 543,-21.5 543,-0.5 394,-0.5"/>
<text text-anchor="middle" x="468.5" y="-7.9" font-family="Ubuntu Mono" font-size="12.00">driver_x::run_driver_x</text>
</a>
</g>
</g>
<!-- Node111&#45;&gt;Node112 -->
<g id="edge4" class="edge"><title>Node111&#45;&gt;Node112</title>
<path fill="none" stroke="midnightblue" d="M356.599,-11C369.025,-11 381.664,-11 393.748,-11"/>
<polygon fill="midnightblue" stroke="midnightblue" points="356.229,-7.5001 346.229,-11 356.229,-14.5001 356.229,-7.5001"/>
</g>
<!-- Node112&#45;&gt;Node110 -->
<g id="edge5" class="edge"><title>Node112&#45;&gt;Node110</title>
<path fill="none" stroke="midnightblue" d="M553.546,-22.9215C567.48,-24.8979 580.68,-26.7702 590.857,-28.2138"/>
<polygon fill="midnightblue" stroke="midnightblue" points="553.696,-19.4077 543.304,-21.4686 552.713,-26.3384 553.696,-19.4077"/>
</g>
</g>
</svg>
