<?xml version="1.0" encoding="UTF-8" standalone="no"?>
<!DOCTYPE svg PUBLIC "-//W3C//DTD SVG 1.1//EN"
 "http://www.w3.org/Graphics/SVG/1.1/DTD/svg11.dtd">
<!-- Generated by graphviz version 2.43.0 (0)
 -->
<!-- Title: test::test_read_hdf5_subset Pages: 1 -->
<svg width="388pt" height="70pt"
 viewBox="0.00 0.00 388.00 70.00" xmlns="http://www.w3.org/2000/svg" xmlns:xlink="http://www.w3.org/1999/xlink">
<g id="graph0" class="graph" transform="scale(1 1) rotate(0) translate(4 66)">
<title>test::test_read_hdf5_subset</title>
<polygon fill="white" stroke="transparent" points="-4,4 -4,-66 384,-66 384,4 -4,4"/>
<!-- Node1 -->
<g id="node1" class="node">
<title>Node1</title>
<g id="a_node1"><a xlink:title="Tests reading of HDF5 subset.">
<polygon fill="#bfbfbf" stroke="black" points="245,-14 245,-48 380,-48 380,-14 245,-14"/>
<text text-anchor="start" x="253" y="-34.4" font-family="Ubuntu Mono" font-size="12.00">test::test_read_hdf5</text>
<text text-anchor="middle" x="312.5" y="-21.4" font-family="Ubuntu Mono" font-size="12.00">_subset</text>
</a>
</g>
</g>
<!-- Node2 -->
<g id="node2" class="node">
<title>Node2</title>
<g id="a_node2"><a xlink:href="namespacetest.html#aca21ee464c0b1f4b617177afdde110ec" target="_top" xlink:title="Performs generic tests.">
<polygon fill="white" stroke="black" points="83,-20.5 83,-41.5 209,-41.5 209,-20.5 83,-20.5"/>
<text text-anchor="middle" x="146" y="-27.9" font-family="Ubuntu Mono" font-size="12.00">test::generic_tests</text>
</a>
</g>
</g>
<!-- Node1&#45;&gt;Node2 -->
<g id="edge1" class="edge">
<title>Node1&#45;&gt;Node2</title>
<path fill="none" stroke="midnightblue" d="M234.33,-31C225.86,-31 217.32,-31 209.07,-31"/>
<polygon fill="midnightblue" stroke="midnightblue" points="234.59,-34.5 244.59,-31 234.59,-27.5 234.59,-34.5"/>
</g>
<!-- Node3 -->
<g id="node3" class="node">
<title>Node3</title>
<g id="a_node3"><a xlink:href="PB3D_8f90.html#afaee01f014ab3398eecac996b2795fd2" target="_top" xlink:title="Peeling Ballooning in 3D.">
<polygon fill="white" stroke="black" points="0,-40.5 0,-61.5 47,-61.5 47,-40.5 0,-40.5"/>
<text text-anchor="middle" x="23.5" y="-47.9" font-family="Ubuntu Mono" font-size="12.00">pb3d</text>
</a>
</g>
</g>
<!-- Node2&#45;&gt;Node3 -->
<g id="edge2" class="edge">
<title>Node2&#45;&gt;Node3</title>
<path fill="none" stroke="midnightblue" d="M72.85,-42.98C63.61,-44.51 54.76,-45.98 47.21,-47.23"/>
<polygon fill="midnightblue" stroke="midnightblue" points="73.69,-46.38 82.99,-41.29 72.55,-39.48 73.69,-46.38"/>
</g>
<!-- Node4 -->
<g id="node4" class="node">
<title>Node4</title>
<g id="a_node4"><a xlink:href="POST_8f90.html#ac289b64ac4671fea0b4f2298ba1188a1" target="_top" xlink:title="Peeling Ballooning in 3D: postprocessing.">
<polygon fill="white" stroke="black" points="2.5,-0.5 2.5,-21.5 44.5,-21.5 44.5,-0.5 2.5,-0.5"/>
<text text-anchor="middle" x="23.5" y="-7.9" font-family="Ubuntu Mono" font-size="12.00">post</text>
</a>
</g>
</g>
<!-- Node2&#45;&gt;Node4 -->
<g id="edge3" class="edge">
<title>Node2&#45;&gt;Node4</title>
<path fill="none" stroke="midnightblue" d="M72.99,-19.05C62.68,-17.34 52.85,-15.7 44.76,-14.36"/>
<polygon fill="midnightblue" stroke="midnightblue" points="72.55,-22.52 82.99,-20.71 73.69,-15.62 72.55,-22.52"/>
</g>
</g>
</svg>
