<?xml version="1.0" encoding="UTF-8" standalone="no"?>
<!DOCTYPE svg PUBLIC "-//W3C//DTD SVG 1.1//EN"
 "http://www.w3.org/Graphics/SVG/1.1/DTD/svg11.dtd">
<!-- Generated by graphviz version 2.38.0 (20140413.2041)
 -->
<!-- Title: num_utilities::calc_coeff_fin_diff Pages: 1 -->
<svg width="342pt" height="110pt"
 viewBox="0.00 0.00 342.00 110.00" xmlns="http://www.w3.org/2000/svg" xmlns:xlink="http://www.w3.org/1999/xlink">
<g id="graph0" class="graph" transform="scale(1 1) rotate(0) translate(4 106)">
<title>num_utilities::calc_coeff_fin_diff</title>
<polygon fill="white" stroke="none" points="-4,4 -4,-106 338,-106 338,4 -4,4"/>
<!-- Node68 -->
<g id="node1" class="node"><title>Node68</title>
<polygon fill="#bfbfbf" stroke="black" points="0,-34 0,-68 131,-68 131,-34 0,-34"/>
<text text-anchor="start" x="8" y="-54.4" font-family="Ubuntu Mono" font-size="12.00">num_utilities::calc</text>
<text text-anchor="middle" x="65.5" y="-41.4" font-family="Ubuntu Mono" font-size="12.00">_coeff_fin_diff</text>
</g>
<!-- Node69 -->
<g id="node2" class="node"><title>Node69</title>
<g id="a_node2"><a xlink:href="namespacestr__utilities.html#a0b97e51770725a3e98ed393d26681414" target="_top" xlink:title="Convert an integer to string. ">
<polygon fill="white" stroke="black" points="182,-80.5 182,-101.5 319,-101.5 319,-80.5 182,-80.5"/>
<text text-anchor="middle" x="250.5" y="-87.9" font-family="Ubuntu Mono" font-size="12.00">str_utilities::i2str</text>
</a>
</g>
</g>
<!-- Node68&#45;&gt;Node69 -->
<g id="edge1" class="edge"><title>Node68&#45;&gt;Node69</title>
<path fill="none" stroke="midnightblue" d="M131.019,-65.1025C150.736,-69.4121 172.288,-74.123 191.54,-78.3312"/>
<polygon fill="midnightblue" stroke="midnightblue" points="190.86,-81.7651 201.377,-80.4813 192.355,-74.9266 190.86,-81.7651"/>
</g>
<!-- Node70 -->
<g id="node3" class="node"><title>Node70</title>
<g id="a_node3"><a xlink:href="namespacenum__utilities.html#a54c65e345182e2e7e13ac14a0ba3647a" target="_top" xlink:title="Solve a Vandermonde system . ">
<polygon fill="white" stroke="black" points="167,-40.5 167,-61.5 334,-61.5 334,-40.5 167,-40.5"/>
<text text-anchor="middle" x="250.5" y="-47.9" font-family="Ubuntu Mono" font-size="12.00">num_utilities::solve_vand</text>
</a>
</g>
</g>
<!-- Node68&#45;&gt;Node70 -->
<g id="edge2" class="edge"><title>Node68&#45;&gt;Node70</title>
<path fill="none" stroke="midnightblue" d="M131.019,-51C139.377,-51 148.064,-51 156.767,-51"/>
<polygon fill="midnightblue" stroke="midnightblue" points="156.971,-54.5001 166.971,-51 156.971,-47.5001 156.971,-54.5001"/>
</g>
<!-- Node71 -->
<g id="node4" class="node"><title>Node71</title>
<g id="a_node4"><a xlink:href="namespacenum__utilities.html#a43ab60f9e202b55221373286a5bbb954" target="_top" xlink:title="Calculate factorial. ">
<polygon fill="white" stroke="black" points="188,-0.5 188,-21.5 313,-21.5 313,-0.5 188,-0.5"/>
<text text-anchor="middle" x="250.5" y="-7.9" font-family="Ubuntu Mono" font-size="12.00">num_utilities::fac</text>
</a>
</g>
</g>
<!-- Node68&#45;&gt;Node71 -->
<g id="edge3" class="edge"><title>Node68&#45;&gt;Node71</title>
<path fill="none" stroke="midnightblue" d="M131.019,-36.8975C150.736,-32.5879 172.288,-27.877 191.54,-23.6688"/>
<polygon fill="midnightblue" stroke="midnightblue" points="192.355,-27.0734 201.377,-21.5187 190.86,-20.2349 192.355,-27.0734"/>
</g>
</g>
</svg>
