<?xml version="1.0" encoding="UTF-8" standalone="no"?>
<!DOCTYPE svg PUBLIC "-//W3C//DTD SVG 1.1//EN"
 "http://www.w3.org/Graphics/SVG/1.1/DTD/svg11.dtd">
<!-- Generated by graphviz version 2.38.0 (20140413.2041)
 -->
<!-- Title: eq_ops::delta_r_plot Pages: 1 -->
<svg width="443pt" height="30pt"
 viewBox="0.00 0.00 443.00 30.00" xmlns="http://www.w3.org/2000/svg" xmlns:xlink="http://www.w3.org/1999/xlink">
<g id="graph0" class="graph" transform="scale(1 1) rotate(0) translate(4 26)">
<title>eq_ops::delta_r_plot</title>
<polygon fill="white" stroke="none" points="-4,4 -4,-26 439,-26 439,4 -4,4"/>
<!-- Node96 -->
<g id="node1" class="node"><title>Node96</title>
<polygon fill="#bfbfbf" stroke="black" points="0,-0.5 0,-21.5 137,-21.5 137,-0.5 0,-0.5"/>
<text text-anchor="middle" x="68.5" y="-7.9" font-family="Ubuntu Mono" font-size="12.00">eq_ops::delta_r_plot</text>
</g>
<!-- Node97 -->
<g id="node2" class="node"><title>Node97</title>
<g id="a_node2"><a xlink:href="namespacedriver__post.html#a33b3c6f9018a0ddc92dce77394b8ab37" target="_top" xlink:title="The main driver routine for postprocessing. ">
<polygon fill="white" stroke="black" points="173,-0.5 173,-21.5 358,-21.5 358,-0.5 173,-0.5"/>
<text text-anchor="middle" x="265.5" y="-7.9" font-family="Ubuntu Mono" font-size="12.00">driver_post::run_driver_post</text>
</a>
</g>
</g>
<!-- Node96&#45;&gt;Node97 -->
<g id="edge1" class="edge"><title>Node96&#45;&gt;Node97</title>
<path fill="none" stroke="midnightblue" d="M147.308,-11C155.729,-11 164.355,-11 172.921,-11"/>
<polygon fill="midnightblue" stroke="midnightblue" points="147.154,-7.5001 137.154,-11 147.154,-14.5001 147.154,-7.5001"/>
</g>
<!-- Node98 -->
<g id="node3" class="node"><title>Node98</title>
<g id="a_node3"><a xlink:href="POST_8f90.html#ac289b64ac4671fea0b4f2298ba1188a1" target="_top" xlink:title="Peeling Ballooning in 3D: postprocessing. ">
<polygon fill="white" stroke="black" points="394,-0.5 394,-21.5 435,-21.5 435,-0.5 394,-0.5"/>
<text text-anchor="middle" x="414.5" y="-7.9" font-family="Ubuntu Mono" font-size="12.00">post</text>
</a>
</g>
</g>
<!-- Node97&#45;&gt;Node98 -->
<g id="edge2" class="edge"><title>Node97&#45;&gt;Node98</title>
<path fill="none" stroke="midnightblue" d="M368.464,-11C377.946,-11 386.681,-11 393.883,-11"/>
<polygon fill="midnightblue" stroke="midnightblue" points="368.344,-7.5001 358.344,-11 368.344,-14.5001 368.344,-7.5001"/>
</g>
</g>
</svg>
