<?xml version="1.0" encoding="UTF-8" standalone="no"?>
<!DOCTYPE svg PUBLIC "-//W3C//DTD SVG 1.1//EN"
 "http://www.w3.org/Graphics/SVG/1.1/DTD/svg11.dtd">
<!-- Generated by graphviz version 2.38.0 (20140413.2041)
 -->
<!-- Title: eq_ops::test_p Pages: 1 -->
<svg width="831pt" height="226pt"
 viewBox="0.00 0.00 831.00 226.00" xmlns="http://www.w3.org/2000/svg" xmlns:xlink="http://www.w3.org/1999/xlink">
<g id="graph0" class="graph" transform="scale(1 1) rotate(0) translate(4 222)">
<title>eq_ops::test_p</title>
<polygon fill="white" stroke="none" points="-4,4 -4,-222 827,-222 827,4 -4,4"/>
<!-- Node235 -->
<g id="node1" class="node"><title>Node235</title>
<polygon fill="#bfbfbf" stroke="black" points="0,-117.5 0,-138.5 101,-138.5 101,-117.5 0,-117.5"/>
<text text-anchor="middle" x="50.5" y="-124.9" font-family="Ubuntu Mono" font-size="12.00">eq_ops::test_p</text>
</g>
<!-- Node236 -->
<g id="node2" class="node"><title>Node236</title>
<g id="a_node2"><a xlink:href="namespacenum__utilities.html#a5ee3fbd1fe67d0deefc7194631389f2a" target="_top" xlink:title="Convert 2&#45;D coordinates (i,j) to the storage convention used in matrices. ">
<polygon fill="white" stroke="black" points="167,-196.5 167,-217.5 280,-217.5 280,-196.5 167,-196.5"/>
<text text-anchor="middle" x="223.5" y="-203.9" font-family="Ubuntu Mono" font-size="12.00">num_utilities::c</text>
</a>
</g>
</g>
<!-- Node235&#45;&gt;Node236 -->
<g id="edge1" class="edge"><title>Node235&#45;&gt;Node236</title>
<path fill="none" stroke="midnightblue" d="M63.6385,-138.6C79.4552,-151.863 108.472,-174.366 137,-187 143.275,-189.779 149.986,-192.199 156.787,-194.3"/>
<polygon fill="midnightblue" stroke="midnightblue" points="156.198,-197.772 166.775,-197.156 158.122,-191.041 156.198,-197.772"/>
</g>
<!-- Node237 -->
<g id="node3" class="node"><title>Node237</title>
<g id="a_node3"><a xlink:href="namespacegrid__utilities.html#a67001ff9bbcad707aacf17f90a748d90" target="_top" xlink:title="Trim a grid, removing any overlap between the different regions. ">
<polygon fill="white" stroke="black" points="140,-156.5 140,-177.5 307,-177.5 307,-156.5 140,-156.5"/>
<text text-anchor="middle" x="223.5" y="-163.9" font-family="Ubuntu Mono" font-size="12.00">grid_utilities::trim_grid</text>
</a>
</g>
</g>
<!-- Node235&#45;&gt;Node237 -->
<g id="edge2" class="edge"><title>Node235&#45;&gt;Node237</title>
<path fill="none" stroke="midnightblue" d="M97.7751,-138.554C118.876,-143.366 144.045,-149.107 166.23,-154.167"/>
<polygon fill="midnightblue" stroke="midnightblue" points="165.66,-157.626 176.188,-156.438 167.217,-150.802 165.66,-157.626"/>
</g>
<!-- Node238 -->
<g id="node4" class="node"><title>Node238</title>
<g id="a_node4"><a xlink:href="namespacemessages.html#aa4a8d01563e92558e8a0875b075ec54c" target="_top" xlink:title="Write output to file identified by output_i. ">
<polygon fill="white" stroke="black" points="525,-78.5 525,-99.5 632,-99.5 632,-78.5 525,-78.5"/>
<text text-anchor="middle" x="578.5" y="-85.9" font-family="Ubuntu Mono" font-size="12.00">messages::writo</text>
</a>
</g>
</g>
<!-- Node235&#45;&gt;Node238 -->
<g id="edge3" class="edge"><title>Node235&#45;&gt;Node238</title>
<path fill="none" stroke="midnightblue" d="M101.29,-128.722C182.745,-129.259 349.402,-127.652 489,-109 501.689,-107.304 515.242,-104.67 527.83,-101.863"/>
<polygon fill="midnightblue" stroke="midnightblue" points="528.726,-105.248 537.684,-99.5899 527.153,-98.4273 528.726,-105.248"/>
</g>
<!-- Node241 -->
<g id="node7" class="node"><title>Node241</title>
<g id="a_node7"><a xlink:href="namespacemessages.html#a6e6bfb084063e4cc91ee86e542043302" target="_top" xlink:title="Increases/decreases lvl of output. ">
<polygon fill="white" stroke="black" points="361,-78.5 361,-99.5 474,-99.5 474,-78.5 361,-78.5"/>
<text text-anchor="middle" x="417.5" y="-85.9" font-family="Ubuntu Mono" font-size="12.00">messages::lvl_ud</text>
</a>
</g>
</g>
<!-- Node235&#45;&gt;Node241 -->
<g id="edge6" class="edge"><title>Node235&#45;&gt;Node241</title>
<path fill="none" stroke="midnightblue" d="M101.143,-119.241C112.876,-117.346 125.36,-115.472 137,-114 209.916,-104.782 293.956,-97.7463 350.688,-93.5223"/>
<polygon fill="midnightblue" stroke="midnightblue" points="351.238,-96.9913 360.954,-92.7664 350.724,-90.0102 351.238,-96.9913"/>
</g>
<!-- Node242 -->
<g id="node8" class="node"><title>Node242</title>
<g id="a_node8"><a xlink:href="namespaceoutput__ops.html#ab0d14194d01ab0534562eab50b37a57a" target="_top" xlink:title="Takes two input vectors and plots these as well as the relative and absolute difference in a HDF5 fil...">
<polygon fill="white" stroke="black" points="137,-39.5 137,-60.5 310,-60.5 310,-39.5 137,-39.5"/>
<text text-anchor="middle" x="223.5" y="-46.9" font-family="Ubuntu Mono" font-size="12.00">output_ops::plot_diff_hdf5</text>
</a>
</g>
</g>
<!-- Node235&#45;&gt;Node242 -->
<g id="edge8" class="edge"><title>Node235&#45;&gt;Node242</title>
<path fill="none" stroke="midnightblue" d="M66.3116,-117.398C82.8796,-105.927 110.835,-87.7102 137,-76 147.624,-71.2451 159.365,-67.0442 170.654,-63.4809"/>
<polygon fill="midnightblue" stroke="midnightblue" points="171.868,-66.7701 180.42,-60.5157 169.835,-60.072 171.868,-66.7701"/>
</g>
<!-- Node239 -->
<g id="node5" class="node"><title>Node239</title>
<g id="a_node5"><a xlink:href="namespacemessages.html#a82dddaab795b78b3d39e1ff1aab2f665" target="_top" xlink:title="Returns the memory usage in kilobytes. ">
<polygon fill="white" stroke="black" points="668,-98.5 668,-119.5 823,-119.5 823,-98.5 668,-98.5"/>
<text text-anchor="middle" x="745.5" y="-105.9" font-family="Ubuntu Mono" font-size="12.00">messages::get_mem_usage</text>
</a>
</g>
</g>
<!-- Node238&#45;&gt;Node239 -->
<g id="edge4" class="edge"><title>Node238&#45;&gt;Node239</title>
<path fill="none" stroke="midnightblue" d="M632.161,-95.3831C640.452,-96.3881 649.208,-97.4495 658.025,-98.5182"/>
<polygon fill="midnightblue" stroke="midnightblue" points="657.635,-101.996 667.984,-99.7253 658.478,-95.0474 657.635,-101.996"/>
</g>
<!-- Node240 -->
<g id="node6" class="node"><title>Node240</title>
<g id="a_node6"><a xlink:href="namespacemessages.html#a61fd0b51b5e37d58fdc993c01792a3fd" target="_top" xlink:title="Returns the time. ">
<polygon fill="white" stroke="black" points="680,-58.5 680,-79.5 811,-79.5 811,-58.5 680,-58.5"/>
<text text-anchor="middle" x="745.5" y="-65.9" font-family="Ubuntu Mono" font-size="12.00">messages::get_clock</text>
</a>
</g>
</g>
<!-- Node238&#45;&gt;Node240 -->
<g id="edge5" class="edge"><title>Node238&#45;&gt;Node240</title>
<path fill="none" stroke="midnightblue" d="M632.161,-82.6169C644.142,-81.1646 657.094,-79.5947 669.797,-78.0549"/>
<polygon fill="midnightblue" stroke="midnightblue" points="670.402,-81.5073 679.908,-76.8293 669.56,-74.5581 670.402,-81.5073"/>
</g>
<!-- Node241&#45;&gt;Node238 -->
<g id="edge7" class="edge"><title>Node241&#45;&gt;Node238</title>
<path fill="none" stroke="midnightblue" d="M474.11,-89C487.241,-89 501.33,-89 514.752,-89"/>
<polygon fill="midnightblue" stroke="midnightblue" points="514.859,-92.5001 524.859,-89 514.859,-85.5001 514.859,-92.5001"/>
</g>
<!-- Node242&#45;&gt;Node238 -->
<g id="edge9" class="edge"><title>Node242&#45;&gt;Node238</title>
<path fill="none" stroke="midnightblue" d="M310.026,-52.8777C361.995,-55.4355 429.568,-60.201 489,-69 501.295,-70.8203 514.419,-73.4186 526.692,-76.1423"/>
<polygon fill="midnightblue" stroke="midnightblue" points="526.236,-79.6283 536.765,-78.4454 527.797,-72.8044 526.236,-79.6283"/>
</g>
<!-- Node242&#45;&gt;Node241 -->
<g id="edge10" class="edge"><title>Node242&#45;&gt;Node241</title>
<path fill="none" stroke="midnightblue" d="M276.205,-60.5026C300.424,-65.4221 329.461,-71.3202 354.819,-76.471"/>
<polygon fill="midnightblue" stroke="midnightblue" points="354.206,-79.9179 364.703,-78.4787 355.599,-73.058 354.206,-79.9179"/>
</g>
<!-- Node243 -->
<g id="node9" class="node"><title>Node243</title>
<g id="a_node9"><a xlink:href="namespacestr__utilities.html#ac778d706b2e021672618939ab58fdd32" target="_top" xlink:title="Convert a real (double) to string. ">
<polygon fill="white" stroke="black" points="346,-0.5 346,-21.5 489,-21.5 489,-0.5 346,-0.5"/>
<text text-anchor="middle" x="417.5" y="-7.9" font-family="Ubuntu Mono" font-size="12.00">str_utilities::r2strt</text>
</a>
</g>
</g>
<!-- Node242&#45;&gt;Node243 -->
<g id="edge11" class="edge"><title>Node242&#45;&gt;Node243</title>
<path fill="none" stroke="midnightblue" d="M276.205,-39.4974C300.424,-34.5779 329.461,-28.6798 354.819,-23.529"/>
<polygon fill="midnightblue" stroke="midnightblue" points="355.599,-26.942 364.703,-21.5213 354.206,-20.0821 355.599,-26.942"/>
</g>
</g>
</svg>
