<?xml version="1.0" encoding="UTF-8" standalone="no"?>
<!DOCTYPE svg PUBLIC "-//W3C//DTD SVG 1.1//EN"
 "http://www.w3.org/Graphics/SVG/1.1/DTD/svg11.dtd">
<!-- Generated by graphviz version 2.43.0 (0)
 -->
<!-- Title: grid_utilities::find_compr_range Pages: 1 -->
<svg width="956pt" height="238pt"
 viewBox="0.00 0.00 956.00 237.50" xmlns="http://www.w3.org/2000/svg" xmlns:xlink="http://www.w3.org/1999/xlink">
<g id="graph0" class="graph" transform="scale(1 1) rotate(0) translate(4 233.5)">
<title>grid_utilities::find_compr_range</title>
<polygon fill="white" stroke="transparent" points="-4,4 -4,-233.5 952,-233.5 952,4 -4,4"/>
<!-- Node1 -->
<g id="node1" class="node">
<title>Node1</title>
<g id="a_node1"><a xlink:title="finds smallest range that comprises a minimum and maximum value.">
<polygon fill="#bfbfbf" stroke="black" points="830,-38.5 830,-72.5 948,-72.5 948,-38.5 830,-38.5"/>
<text text-anchor="start" x="838" y="-58.9" font-family="Ubuntu Mono" font-size="12.00">grid_utilities::find</text>
<text text-anchor="middle" x="889" y="-45.9" font-family="Ubuntu Mono" font-size="12.00">_compr_range</text>
</a>
</g>
</g>
<!-- Node2 -->
<g id="node2" class="node">
<title>Node2</title>
<g id="a_node2"><a xlink:href="grid__ops_8f90.html#aa3b47be0188da6dd19a745f796c1500f" target="_top" xlink:title="POST version.">
<polygon fill="white" stroke="black" points="643,-68 643,-89 794,-89 794,-68 643,-68"/>
<text text-anchor="middle" x="718.5" y="-75.4" font-family="Ubuntu Mono" font-size="12.00">calc_norm_range_post</text>
</a>
</g>
</g>
<!-- Node1&#45;&gt;Node2 -->
<g id="edge1" class="edge">
<title>Node1&#45;&gt;Node2</title>
<path fill="none" stroke="midnightblue" d="M819.5,-64.85C811.16,-65.99 802.6,-67.16 794.18,-68.31"/>
<polygon fill="midnightblue" stroke="midnightblue" points="820.11,-68.3 829.54,-63.48 819.16,-61.36 820.11,-68.3"/>
</g>
<!-- Node8 -->
<g id="node8" class="node">
<title>Node8</title>
<g id="a_node8"><a xlink:href="namespacegrid__ops.html#ab10ef5b486ee3861df2da4e53bc22630" target="_top" xlink:title="Redistribute a grid to match the normal distribution of solution grid.">
<polygon fill="white" stroke="black" points="290.5,-0.5 290.5,-34.5 433.5,-34.5 433.5,-0.5 290.5,-0.5"/>
<text text-anchor="start" x="298.5" y="-20.9" font-family="Ubuntu Mono" font-size="12.00">grid_ops::redistribute</text>
<text text-anchor="middle" x="362" y="-7.9" font-family="Ubuntu Mono" font-size="12.00">_output_grid</text>
</a>
</g>
</g>
<!-- Node1&#45;&gt;Node8 -->
<g id="edge16" class="edge">
<title>Node1&#45;&gt;Node8</title>
<path fill="none" stroke="midnightblue" d="M819.83,-50.57C719.95,-43.34 534.75,-29.93 433.54,-22.61"/>
<polygon fill="midnightblue" stroke="midnightblue" points="819.58,-54.06 829.81,-51.29 820.09,-47.08 819.58,-54.06"/>
</g>
<!-- Node3 -->
<g id="node3" class="node">
<title>Node3</title>
<g id="a_node3"><a xlink:href="namespacegrid__ops.html#a1c18f90f93f5fce7ebb4dba60b70e0f8" target="_top" xlink:title="Calculates normal range for the input grid, the equilibrium grid and/or the solution grid.">
<polygon fill="white" stroke="black" points="471,-84.5 471,-118.5 607,-118.5 607,-84.5 471,-84.5"/>
<text text-anchor="start" x="479" y="-104.9" font-family="Ubuntu Mono" font-size="12.00">grid_ops::calc_norm</text>
<text text-anchor="middle" x="539" y="-91.9" font-family="Ubuntu Mono" font-size="12.00">_range</text>
</a>
</g>
</g>
<!-- Node2&#45;&gt;Node3 -->
<g id="edge2" class="edge">
<title>Node2&#45;&gt;Node3</title>
<path fill="none" stroke="midnightblue" d="M632.93,-89.46C624.31,-90.58 615.64,-91.7 607.25,-92.79"/>
<polygon fill="midnightblue" stroke="midnightblue" points="633.53,-92.91 643,-88.15 632.63,-85.97 633.53,-92.91"/>
</g>
<!-- Node4 -->
<g id="node4" class="node">
<title>Node4</title>
<g id="a_node4"><a xlink:href="namespacedriver__post.html#af527706d4e696d4e507443d2f74194ef" target="_top" xlink:title="Initializes the POST driver.">
<polygon fill="white" stroke="black" points="292,-208 292,-229 432,-229 432,-208 292,-208"/>
<text text-anchor="middle" x="362" y="-215.4" font-family="Ubuntu Mono" font-size="12.00">driver_post::init_post</text>
</a>
</g>
</g>
<!-- Node3&#45;&gt;Node4 -->
<g id="edge3" class="edge">
<title>Node3&#45;&gt;Node4</title>
<path fill="none" stroke="midnightblue" d="M518.03,-126.17C498.92,-148.2 468.16,-179.81 435,-198.5 428.33,-202.26 420.91,-205.35 413.44,-207.87"/>
<polygon fill="midnightblue" stroke="midnightblue" points="520.72,-128.41 524.53,-118.52 515.38,-123.88 520.72,-128.41"/>
</g>
<!-- Node6 -->
<g id="node6" class="node">
<title>Node6</title>
<g id="a_node6"><a xlink:href="namespaceinput__ops.html#a6a1237ee3005ebd6f4978e7092ab2dc5" target="_top" xlink:title="Print input quantities to an output file.">
<polygon fill="white" stroke="black" points="83,-129 83,-150 253,-150 253,-129 83,-129"/>
<text text-anchor="middle" x="168" y="-136.4" font-family="Ubuntu Mono" font-size="12.00">input_ops::print_output_in</text>
</a>
</g>
</g>
<!-- Node3&#45;&gt;Node6 -->
<g id="edge5" class="edge">
<title>Node3&#45;&gt;Node6</title>
<path fill="none" stroke="midnightblue" d="M460.82,-111.51C452.12,-112.56 443.37,-113.58 435,-114.5 374.26,-121.19 305.58,-127.61 253.23,-132.27"/>
<polygon fill="midnightblue" stroke="midnightblue" points="461.49,-114.96 471,-110.27 460.65,-108.01 461.49,-114.96"/>
</g>
<!-- Node3&#45;&gt;Node8 -->
<g id="edge7" class="edge">
<title>Node3&#45;&gt;Node8</title>
<path fill="none" stroke="midnightblue" d="M496.17,-79.79C477.55,-70.28 455.28,-59.12 435,-49.5 424.49,-44.52 413.03,-39.32 402.4,-34.59"/>
<polygon fill="midnightblue" stroke="midnightblue" points="494.77,-83.01 505.27,-84.46 497.97,-76.78 494.77,-83.01"/>
</g>
<!-- Node9 -->
<g id="node9" class="node">
<title>Node9</title>
<g id="a_node9"><a xlink:href="namespacedriver__eq.html#adc9d5dff288fa512e5ef885627d940cc" target="_top" xlink:title="Main driver of PB3D equilibrium part.">
<polygon fill="white" stroke="black" points="86.5,-49 86.5,-70 249.5,-70 249.5,-49 86.5,-49"/>
<text text-anchor="middle" x="168" y="-56.4" font-family="Ubuntu Mono" font-size="12.00">driver_eq::run_driver_eq</text>
</a>
</g>
</g>
<!-- Node3&#45;&gt;Node9 -->
<g id="edge12" class="edge">
<title>Node3&#45;&gt;Node9</title>
<path fill="none" stroke="midnightblue" d="M460.65,-92.7C398.79,-85.65 312.33,-75.81 249.62,-68.68"/>
<polygon fill="midnightblue" stroke="midnightblue" points="460.42,-96.19 470.75,-93.85 461.21,-89.24 460.42,-96.19"/>
</g>
<!-- Node10 -->
<g id="node10" class="node">
<title>Node10</title>
<g id="a_node10"><a xlink:href="namespacedriver__sol.html#ad3b1765b3ecc5f82129bfc683ffc6c5c" target="_top" xlink:title="Main driver of PB3D solution part.">
<polygon fill="white" stroke="black" points="85,-89 85,-110 251,-110 251,-89 85,-89"/>
<text text-anchor="middle" x="168" y="-96.4" font-family="Ubuntu Mono" font-size="12.00">driver_sol::run_driver_sol</text>
</a>
</g>
</g>
<!-- Node3&#45;&gt;Node10 -->
<g id="edge13" class="edge">
<title>Node3&#45;&gt;Node10</title>
<path fill="none" stroke="midnightblue" d="M460.74,-101.08C399.41,-100.75 313.88,-100.29 251.28,-99.95"/>
<polygon fill="midnightblue" stroke="midnightblue" points="460.73,-104.58 470.75,-101.14 460.77,-97.58 460.73,-104.58"/>
</g>
<!-- Node11 -->
<g id="node11" class="node">
<title>Node11</title>
<g id="a_node11"><a xlink:href="namespacedriver__x.html#ada3d72a0929daaa5e3da585246d62281" target="_top" xlink:title="Main driver of PB3D perturbation part.">
<polygon fill="white" stroke="black" points="289,-168 289,-189 435,-189 435,-168 289,-168"/>
<text text-anchor="middle" x="362" y="-175.4" font-family="Ubuntu Mono" font-size="12.00">driver_x::run_driver_x</text>
</a>
</g>
</g>
<!-- Node3&#45;&gt;Node11 -->
<g id="edge14" class="edge">
<title>Node3&#45;&gt;Node11</title>
<path fill="none" stroke="midnightblue" d="M498.06,-123.23C479.21,-133.07 456.24,-144.5 435,-153.5 422.57,-158.77 408.62,-163.81 396.33,-167.96"/>
<polygon fill="midnightblue" stroke="midnightblue" points="499.74,-126.3 506.96,-118.54 496.48,-120.1 499.74,-126.3"/>
</g>
<!-- Node5 -->
<g id="node5" class="node">
<title>Node5</title>
<g id="a_node5"><a xlink:href="POST_8f90.html#ac289b64ac4671fea0b4f2298ba1188a1" target="_top" xlink:title="Peeling Ballooning in 3D: postprocessing.">
<polygon fill="white" stroke="black" points="147,-208 147,-229 189,-229 189,-208 147,-208"/>
<text text-anchor="middle" x="168" y="-215.4" font-family="Ubuntu Mono" font-size="12.00">post</text>
</a>
</g>
</g>
<!-- Node4&#45;&gt;Node5 -->
<g id="edge4" class="edge">
<title>Node4&#45;&gt;Node5</title>
<path fill="none" stroke="midnightblue" d="M281.61,-218.5C247.91,-218.5 211.39,-218.5 189.36,-218.5"/>
<polygon fill="midnightblue" stroke="midnightblue" points="281.95,-222 291.95,-218.5 281.95,-215 281.95,-222"/>
</g>
<!-- Node7 -->
<g id="node7" class="node">
<title>Node7</title>
<g id="a_node7"><a xlink:href="PB3D_8f90.html#afaee01f014ab3398eecac996b2795fd2" target="_top" xlink:title="Peeling Ballooning in 3D.">
<polygon fill="white" stroke="black" points="0,-109 0,-130 47,-130 47,-109 0,-109"/>
<text text-anchor="middle" x="23.5" y="-116.4" font-family="Ubuntu Mono" font-size="12.00">pb3d</text>
</a>
</g>
</g>
<!-- Node6&#45;&gt;Node7 -->
<g id="edge6" class="edge">
<title>Node6&#45;&gt;Node7</title>
<path fill="none" stroke="midnightblue" d="M82.09,-127.58C69.25,-125.78 57.03,-124.07 47.17,-122.68"/>
<polygon fill="midnightblue" stroke="midnightblue" points="81.6,-131.05 91.99,-128.97 82.58,-124.12 81.6,-131.05"/>
</g>
<!-- Node8&#45;&gt;Node9 -->
<g id="edge8" class="edge">
<title>Node8&#45;&gt;Node9</title>
<path fill="none" stroke="midnightblue" d="M280.5,-35.11C258.93,-39.83 236.28,-44.78 217.07,-48.98"/>
<polygon fill="midnightblue" stroke="midnightblue" points="281.3,-38.52 290.32,-32.96 279.81,-31.68 281.3,-38.52"/>
</g>
<!-- Node8&#45;&gt;Node10 -->
<g id="edge10" class="edge">
<title>Node8&#45;&gt;Node10</title>
<path fill="none" stroke="midnightblue" d="M327.43,-40.13C306.73,-53.22 279.2,-69.11 253,-79.5 243.66,-83.2 233.46,-86.34 223.48,-88.95"/>
<polygon fill="midnightblue" stroke="midnightblue" points="329.34,-43.07 335.86,-34.72 325.56,-37.18 329.34,-43.07"/>
</g>
<!-- Node9&#45;&gt;Node7 -->
<g id="edge9" class="edge">
<title>Node9&#45;&gt;Node7</title>
<path fill="none" stroke="midnightblue" d="M100.1,-73.04C94.22,-74.95 88.44,-77.09 83,-79.5 65.9,-87.07 48.48,-99.75 37.15,-108.81"/>
<polygon fill="midnightblue" stroke="midnightblue" points="101.46,-76.29 110.04,-70.07 99.45,-69.58 101.46,-76.29"/>
</g>
<!-- Node10&#45;&gt;Node7 -->
<g id="edge11" class="edge">
<title>Node10&#45;&gt;Node7</title>
<path fill="none" stroke="midnightblue" d="M82.09,-111.42C69.25,-113.22 57.03,-114.93 47.17,-116.32"/>
<polygon fill="midnightblue" stroke="midnightblue" points="82.58,-114.88 91.99,-110.03 81.6,-107.95 82.58,-114.88"/>
</g>
<!-- Node11&#45;&gt;Node7 -->
<g id="edge15" class="edge">
<title>Node11&#45;&gt;Node7</title>
<path fill="none" stroke="midnightblue" d="M278.64,-184.06C222.09,-185.2 146.14,-181.41 83,-159.5 64.87,-153.21 47.11,-139.73 36,-130.16"/>
<polygon fill="midnightblue" stroke="midnightblue" points="279.06,-187.55 288.97,-183.79 278.88,-180.55 279.06,-187.55"/>
</g>
</g>
</svg>
