<?xml version="1.0" encoding="UTF-8" standalone="no"?>
<!DOCTYPE svg PUBLIC "-//W3C//DTD SVG 1.1//EN"
 "http://www.w3.org/Graphics/SVG/1.1/DTD/svg11.dtd">
<!-- Generated by graphviz version 2.43.0 (0)
 -->
<!-- Title: grid_ops::calc_norm_range Pages: 1 -->
<svg width="1140pt" height="370pt"
 viewBox="0.00 0.00 1140.00 369.50" xmlns="http://www.w3.org/2000/svg" xmlns:xlink="http://www.w3.org/1999/xlink">
<g id="graph0" class="graph" transform="scale(1 1) rotate(0) translate(4 365.5)">
<title>grid_ops::calc_norm_range</title>
<polygon fill="white" stroke="transparent" points="-4,4 -4,-365.5 1136,-365.5 1136,4 -4,4"/>
<!-- Node1 -->
<g id="node1" class="node">
<title>Node1</title>
<g id="a_node1"><a xlink:title="Calculates normal range for the input grid, the equilibrium grid and/or the solution grid.">
<polygon fill="#bfbfbf" stroke="black" points="0,-182.5 0,-216.5 136,-216.5 136,-182.5 0,-182.5"/>
<text text-anchor="start" x="8" y="-202.9" font-family="Ubuntu Mono" font-size="12.00">grid_ops::calc_norm</text>
<text text-anchor="middle" x="68" y="-189.9" font-family="Ubuntu Mono" font-size="12.00">_range</text>
</a>
</g>
</g>
<!-- Node2 -->
<g id="node2" class="node">
<title>Node2</title>
<g id="a_node2"><a xlink:href="grid__ops_8f90.html#a868669b6df6c0fa6a8cedd993042f6ea" target="_top" xlink:title="PB3D equilibrium version.">
<polygon fill="white" stroke="black" points="172,-268 172,-289 348,-289 348,-268 172,-268"/>
<text text-anchor="middle" x="260" y="-275.4" font-family="Ubuntu Mono" font-size="12.00">calc_norm_range_pb3d_eq</text>
</a>
</g>
</g>
<!-- Node1&#45;&gt;Node2 -->
<g id="edge1" class="edge">
<title>Node1&#45;&gt;Node2</title>
<path fill="none" stroke="midnightblue" d="M94.19,-216.74C114.42,-229.89 143.98,-247.53 172,-258.5 178.4,-261 185.19,-263.24 192.05,-265.23"/>
<polygon fill="midnightblue" stroke="midnightblue" points="191.54,-268.72 202.11,-267.96 193.38,-261.96 191.54,-268.72"/>
</g>
<!-- Node3 -->
<g id="node3" class="node">
<title>Node3</title>
<g id="a_node3"><a xlink:href="grid__ops_8f90.html#aebe21d718069318bced62bc3d2d09393" target="_top" xlink:title="PB3D input version.">
<polygon fill="white" stroke="black" points="174,-228 174,-249 346,-249 346,-228 174,-228"/>
<text text-anchor="middle" x="260" y="-235.4" font-family="Ubuntu Mono" font-size="12.00">calc_norm_range_pb3d_in</text>
</a>
</g>
</g>
<!-- Node1&#45;&gt;Node3 -->
<g id="edge2" class="edge">
<title>Node1&#45;&gt;Node3</title>
<path fill="none" stroke="midnightblue" d="M136.25,-213.3C156.25,-217.41 178.05,-221.88 197.65,-225.91"/>
<polygon fill="midnightblue" stroke="midnightblue" points="197.18,-229.38 207.68,-227.97 198.59,-222.53 197.18,-229.38"/>
</g>
<!-- Node4 -->
<g id="node4" class="node">
<title>Node4</title>
<g id="a_node4"><a xlink:href="grid__ops_8f90.html#a9121423739548f1a1fa4e87055f49010" target="_top" xlink:title="PB3D solution version.">
<polygon fill="white" stroke="black" points="384,-340 384,-361 562,-361 562,-340 384,-340"/>
<text text-anchor="middle" x="473" y="-347.4" font-family="Ubuntu Mono" font-size="12.00">calc_norm_range_pb3d_sol</text>
</a>
</g>
</g>
<!-- Node1&#45;&gt;Node4 -->
<g id="edge3" class="edge">
<title>Node1&#45;&gt;Node4</title>
<path fill="none" stroke="midnightblue" d="M136.05,-195.78C207.93,-193.2 316.05,-193.85 348,-218.5 387.73,-249.15 347.68,-290.88 384,-325.5 388.1,-329.4 392.75,-332.71 397.74,-335.5"/>
<polygon fill="midnightblue" stroke="midnightblue" points="396.5,-338.78 407.02,-339.99 399.55,-332.48 396.5,-338.78"/>
</g>
<!-- Node5 -->
<g id="node5" class="node">
<title>Node5</title>
<g id="a_node5"><a xlink:href="grid__ops_8f90.html#a0bd0af6203161233f7687c029d6c4ca0" target="_top" xlink:title="PB3D perturbation version.">
<polygon fill="white" stroke="black" points="176,-150 176,-171 344,-171 344,-150 176,-150"/>
<text text-anchor="middle" x="260" y="-157.4" font-family="Ubuntu Mono" font-size="12.00">calc_norm_range_pb3d_x</text>
</a>
</g>
</g>
<!-- Node1&#45;&gt;Node5 -->
<g id="edge4" class="edge">
<title>Node1&#45;&gt;Node5</title>
<path fill="none" stroke="midnightblue" d="M136.25,-185.7C156.25,-181.59 178.05,-177.12 197.65,-173.09"/>
<polygon fill="midnightblue" stroke="midnightblue" points="198.59,-176.47 207.68,-171.03 197.18,-169.62 198.59,-176.47"/>
</g>
<!-- Node15 -->
<g id="node15" class="node">
<title>Node15</title>
<g id="a_node15"><a xlink:href="grid__ops_8f90.html#aa3b47be0188da6dd19a745f796c1500f" target="_top" xlink:title="POST version.">
<polygon fill="white" stroke="black" points="184.5,-68 184.5,-89 335.5,-89 335.5,-68 184.5,-68"/>
<text text-anchor="middle" x="260" y="-75.4" font-family="Ubuntu Mono" font-size="12.00">calc_norm_range_post</text>
</a>
</g>
</g>
<!-- Node1&#45;&gt;Node15 -->
<g id="edge20" class="edge">
<title>Node1&#45;&gt;Node15</title>
<path fill="none" stroke="midnightblue" d="M95.82,-182.42C132.44,-159.1 197.63,-117.58 233.53,-94.72"/>
<polygon fill="midnightblue" stroke="midnightblue" points="235.86,-97.39 242.42,-89.06 232.1,-91.48 235.86,-97.39"/>
</g>
<!-- Node5&#45;&gt;Node4 -->
<g id="edge5" class="edge">
<title>Node5&#45;&gt;Node4</title>
<path fill="none" stroke="midnightblue" d="M326.54,-171.07C334.52,-174.61 341.97,-179.3 348,-185.5 392.79,-231.56 339.14,-279.5 384,-325.5 387.65,-329.24 391.81,-332.43 396.3,-335.16"/>
<polygon fill="midnightblue" stroke="midnightblue" points="394.79,-338.32 405.28,-339.84 398.03,-332.11 394.79,-338.32"/>
</g>
<!-- Node6 -->
<g id="node6" class="node">
<title>Node6</title>
<g id="a_node6"><a xlink:href="namespaceoutput__ops.html#a50bfbb88cc91805469353c3ff47b3e2e" target="_top" xlink:title="Use external program to draw a plot.">
<polygon fill="white" stroke="black" points="403,-170 403,-191 543,-191 543,-170 403,-170"/>
<text text-anchor="middle" x="473" y="-177.4" font-family="Ubuntu Mono" font-size="12.00">output_ops::draw_ex</text>
</a>
</g>
</g>
<!-- Node5&#45;&gt;Node6 -->
<g id="edge6" class="edge">
<title>Node5&#45;&gt;Node6</title>
<path fill="none" stroke="midnightblue" d="M344.09,-168.38C360.08,-169.89 376.79,-171.47 392.65,-172.98"/>
<polygon fill="midnightblue" stroke="midnightblue" points="392.65,-176.49 402.94,-173.95 393.31,-169.53 392.65,-176.49"/>
</g>
<!-- Node7 -->
<g id="node7" class="node">
<title>Node7</title>
<g id="a_node7"><a xlink:href="namespacestr__utilities.html#a0b97e51770725a3e98ed393d26681414" target="_top" xlink:title="Convert an integer to string.">
<polygon fill="white" stroke="black" points="983.5,-169 983.5,-190 1097.5,-190 1097.5,-169 983.5,-169"/>
<text text-anchor="middle" x="1040.5" y="-176.4" font-family="Ubuntu Mono" font-size="12.00">str_utilities::i2str</text>
</a>
</g>
</g>
<!-- Node5&#45;&gt;Node7 -->
<g id="edge16" class="edge">
<title>Node5&#45;&gt;Node7</title>
<path fill="none" stroke="midnightblue" d="M292.97,-171.05C309.48,-176.62 329.91,-183.69 348,-190.5 525.78,-257.36 576.63,-329.11 763,-292.5 858.89,-273.66 963.42,-221.33 1011.93,-195.02"/>
<polygon fill="midnightblue" stroke="midnightblue" points="1013.77,-198 1020.86,-190.12 1010.41,-191.86 1013.77,-198"/>
</g>
<!-- Node8 -->
<g id="node8" class="node">
<title>Node8</title>
<g id="a_node8"><a xlink:href="namespacemessages.html#a6e6bfb084063e4cc91ee86e542043302" target="_top" xlink:title="Increases/decreases lvl of output.">
<polygon fill="white" stroke="black" points="621.5,-92 621.5,-113 739.5,-113 739.5,-92 621.5,-92"/>
<text text-anchor="middle" x="680.5" y="-99.4" font-family="Ubuntu Mono" font-size="12.00">messages::lvl_ud</text>
</a>
</g>
</g>
<!-- Node5&#45;&gt;Node8 -->
<g id="edge17" class="edge">
<title>Node5&#45;&gt;Node8</title>
<path fill="none" stroke="midnightblue" d="M344.18,-150.97C404.68,-143.81 488.53,-133.38 562,-122.5 578.02,-120.13 595.22,-117.34 611.39,-114.6"/>
<polygon fill="midnightblue" stroke="midnightblue" points="612.04,-118.04 621.31,-112.91 610.86,-111.14 612.04,-118.04"/>
</g>
<!-- Node9 -->
<g id="node9" class="node">
<title>Node9</title>
<g id="a_node9"><a xlink:href="namespacemessages.html#aa4a8d01563e92558e8a0875b075ec54c" target="_top" xlink:title="Write output to file identified by output_i.">
<polygon fill="white" stroke="black" points="799,-110 799,-131 913,-131 913,-110 799,-110"/>
<text text-anchor="middle" x="856" y="-117.4" font-family="Ubuntu Mono" font-size="12.00">messages::writo</text>
</a>
</g>
</g>
<!-- Node5&#45;&gt;Node9 -->
<g id="edge19" class="edge">
<title>Node5&#45;&gt;Node9</title>
<path fill="none" stroke="midnightblue" d="M275.42,-149.89C302.56,-130.18 360.57,-89.3 384,-82.5 545.76,-35.53 597.78,-49.72 763,-82.5 785.17,-86.9 808.7,-96.72 826.41,-105.28"/>
<polygon fill="midnightblue" stroke="midnightblue" points="825.1,-108.53 835.61,-109.86 828.22,-102.27 825.1,-108.53"/>
</g>
<!-- Node14 -->
<g id="node14" class="node">
<title>Node14</title>
<g id="a_node14"><a xlink:href="namespacestr__utilities.html#ac778d706b2e021672618939ab58fdd32" target="_top" xlink:title="Convert a real (double) to string.">
<polygon fill="white" stroke="black" points="412.5,-92 412.5,-113 533.5,-113 533.5,-92 412.5,-92"/>
<text text-anchor="middle" x="473" y="-99.4" font-family="Ubuntu Mono" font-size="12.00">str_utilities::r2strt</text>
</a>
</g>
</g>
<!-- Node5&#45;&gt;Node14 -->
<g id="edge18" class="edge">
<title>Node5&#45;&gt;Node14</title>
<path fill="none" stroke="midnightblue" d="M299.21,-150C334.2,-140.38 386.15,-126.1 423.95,-115.71"/>
<polygon fill="midnightblue" stroke="midnightblue" points="425,-119.05 433.72,-113.02 423.15,-112.3 425,-119.05"/>
</g>
<!-- Node6&#45;&gt;Node7 -->
<g id="edge7" class="edge">
<title>Node6&#45;&gt;Node7</title>
<path fill="none" stroke="midnightblue" d="M543.06,-180.38C652.66,-180.18 865.07,-179.81 973.03,-179.62"/>
<polygon fill="midnightblue" stroke="midnightblue" points="973.15,-183.12 983.15,-179.6 973.14,-176.12 973.15,-183.12"/>
</g>
<!-- Node6&#45;&gt;Node8 -->
<g id="edge8" class="edge">
<title>Node6&#45;&gt;Node8</title>
<path fill="none" stroke="midnightblue" d="M523.68,-169.97C536.53,-166.29 550.1,-161.53 562,-155.5 580.08,-146.34 580.01,-136.85 598,-127.5 606.48,-123.09 615.87,-119.32 625.16,-116.14"/>
<polygon fill="midnightblue" stroke="midnightblue" points="626.33,-119.44 634.78,-113.04 624.19,-112.78 626.33,-119.44"/>
</g>
<!-- Node6&#45;&gt;Node9 -->
<g id="edge15" class="edge">
<title>Node6&#45;&gt;Node9</title>
<path fill="none" stroke="midnightblue" d="M540.8,-169.98C610.57,-158.99 719.34,-141.86 788.86,-130.92"/>
<polygon fill="midnightblue" stroke="midnightblue" points="789.49,-134.36 798.83,-129.35 788.4,-127.44 789.49,-134.36"/>
</g>
<!-- Node12 -->
<g id="node12" class="node">
<title>Node12</title>
<g id="a_node12"><a xlink:href="namespacefiles__utilities.html#ac6066df405564ba2f5e3c4bba726c1f8" target="_top" xlink:title="Search for available new unit.">
<polygon fill="white" stroke="black" points="608,-262 608,-283 753,-283 753,-262 608,-262"/>
<text text-anchor="middle" x="680.5" y="-269.4" font-family="Ubuntu Mono" font-size="12.00">files_utilities::nextunit</text>
</a>
</g>
</g>
<!-- Node6&#45;&gt;Node12 -->
<g id="edge13" class="edge">
<title>Node6&#45;&gt;Node12</title>
<path fill="none" stroke="midnightblue" d="M488.93,-191.08C511.53,-206.63 556.21,-235.65 598,-252.5 604.17,-254.99 610.74,-257.23 617.36,-259.22"/>
<polygon fill="midnightblue" stroke="midnightblue" points="616.49,-262.61 627.06,-261.98 618.4,-255.88 616.49,-262.61"/>
</g>
<!-- Node13 -->
<g id="node13" class="node">
<title>Node13</title>
<g id="a_node13"><a xlink:href="namespaceoutput__ops.html#aa9e4855511b6ea16a08b3efb587bec51" target="_top" xlink:title="Executes command line, or displays a message if disabled.">
<polygon fill="white" stroke="black" points="598,-208.5 598,-242.5 763,-242.5 763,-208.5 598,-208.5"/>
<text text-anchor="start" x="606" y="-228.9" font-family="Ubuntu Mono" font-size="12.00">output_ops::use_execute</text>
<text text-anchor="middle" x="680.5" y="-215.9" font-family="Ubuntu Mono" font-size="12.00">_command_line</text>
</a>
</g>
</g>
<!-- Node6&#45;&gt;Node13 -->
<g id="edge14" class="edge">
<title>Node6&#45;&gt;Node13</title>
<path fill="none" stroke="midnightblue" d="M522.18,-191.05C542.93,-195.59 567.86,-201.05 591.7,-206.27"/>
<polygon fill="midnightblue" stroke="midnightblue" points="590.95,-209.69 601.47,-208.41 592.45,-202.86 590.95,-209.69"/>
</g>
<!-- Node8&#45;&gt;Node9 -->
<g id="edge9" class="edge">
<title>Node8&#45;&gt;Node9</title>
<path fill="none" stroke="midnightblue" d="M739.76,-108.54C755.42,-110.17 772.48,-111.94 788.56,-113.61"/>
<polygon fill="midnightblue" stroke="midnightblue" points="788.65,-117.13 798.96,-114.69 789.37,-110.17 788.65,-117.13"/>
</g>
<!-- Node9&#45;&gt;Node7 -->
<g id="edge12" class="edge">
<title>Node9&#45;&gt;Node7</title>
<path fill="none" stroke="midnightblue" d="M889.35,-131.09C906.97,-136.85 929.18,-144.09 949,-150.5 964.58,-155.54 981.69,-161.03 996.79,-165.86"/>
<polygon fill="midnightblue" stroke="midnightblue" points="995.8,-169.22 1006.39,-168.93 997.93,-162.55 995.8,-169.22"/>
</g>
<!-- Node10 -->
<g id="node10" class="node">
<title>Node10</title>
<g id="a_node10"><a xlink:href="namespacemessages.html#a61fd0b51b5e37d58fdc993c01792a3fd" target="_top" xlink:title="Returns the time.">
<polygon fill="white" stroke="black" points="970.5,-120 970.5,-141 1110.5,-141 1110.5,-120 970.5,-120"/>
<text text-anchor="middle" x="1040.5" y="-127.4" font-family="Ubuntu Mono" font-size="12.00">messages::get_clock</text>
</a>
</g>
</g>
<!-- Node9&#45;&gt;Node10 -->
<g id="edge10" class="edge">
<title>Node9&#45;&gt;Node10</title>
<path fill="none" stroke="midnightblue" d="M913.25,-123.58C928.02,-124.39 944.24,-125.28 959.99,-126.14"/>
<polygon fill="midnightblue" stroke="midnightblue" points="960.07,-129.65 970.25,-126.71 960.45,-122.66 960.07,-129.65"/>
</g>
<!-- Node11 -->
<g id="node11" class="node">
<title>Node11</title>
<g id="a_node11"><a xlink:href="namespacemessages.html#a82dddaab795b78b3d39e1ff1aab2f665" target="_top" xlink:title="Returns the memory usage in kilobytes.">
<polygon fill="white" stroke="black" points="949,-80 949,-101 1132,-101 1132,-80 949,-80"/>
<text text-anchor="middle" x="1040.5" y="-87.4" font-family="Ubuntu Mono" font-size="12.00">messages::get_mem_usage</text>
</a>
</g>
</g>
<!-- Node9&#45;&gt;Node11 -->
<g id="edge11" class="edge">
<title>Node9&#45;&gt;Node11</title>
<path fill="none" stroke="midnightblue" d="M913.25,-111.25C929.7,-108.55 947.95,-105.55 965.35,-102.69"/>
<polygon fill="midnightblue" stroke="midnightblue" points="966.17,-106.1 975.47,-101.03 965.03,-99.19 966.17,-106.1"/>
</g>
<!-- Node16 -->
<g id="node16" class="node">
<title>Node16</title>
<g id="a_node16"><a xlink:href="namespacegrid__utilities.html#ae08e1ff213071c9d411a9b9c76035e1e" target="_top" xlink:title="finds smallest range that comprises a minimum and maximum value.">
<polygon fill="white" stroke="black" points="414,-0.5 414,-34.5 532,-34.5 532,-0.5 414,-0.5"/>
<text text-anchor="start" x="422" y="-20.9" font-family="Ubuntu Mono" font-size="12.00">grid_utilities::find</text>
<text text-anchor="middle" x="473" y="-7.9" font-family="Ubuntu Mono" font-size="12.00">_compr_range</text>
</a>
</g>
</g>
<!-- Node15&#45;&gt;Node16 -->
<g id="edge21" class="edge">
<title>Node15&#45;&gt;Node16</title>
<path fill="none" stroke="midnightblue" d="M297.75,-67.87C327,-59.42 368.73,-47.35 404.03,-37.15"/>
<polygon fill="midnightblue" stroke="midnightblue" points="405.16,-40.47 413.79,-34.33 403.21,-33.74 405.16,-40.47"/>
</g>
</g>
</svg>
