<?xml version="1.0" encoding="UTF-8" standalone="no"?>
<!DOCTYPE svg PUBLIC "-//W3C//DTD SVG 1.1//EN"
 "http://www.w3.org/Graphics/SVG/1.1/DTD/svg11.dtd">
<!-- Generated by graphviz version 2.43.0 (0)
 -->
<!-- Title: output_ops::plot_diff_hdf5 Pages: 1 -->
<svg width="903pt" height="572pt"
 viewBox="0.00 0.00 903.00 571.51" xmlns="http://www.w3.org/2000/svg" xmlns:xlink="http://www.w3.org/1999/xlink">
<g id="graph0" class="graph" transform="scale(1 1) rotate(0) translate(4 567.51)">
<title>output_ops::plot_diff_hdf5</title>
<polygon fill="white" stroke="transparent" points="-4,4 -4,-567.51 899,-567.51 899,4 -4,4"/>
<!-- Node1 -->
<g id="node1" class="node">
<title>Node1</title>
<g id="a_node1"><a xlink:title="Takes two input vectors and plots these as well as the relative and absolute difference in a HDF5 fil...">
<polygon fill="#bfbfbf" stroke="black" points="725,-237.5 725,-258.5 895,-258.5 895,-237.5 725,-237.5"/>
<text text-anchor="middle" x="810" y="-244.9" font-family="Ubuntu Mono" font-size="12.00">output_ops::plot_diff_hdf5</text>
</a>
</g>
</g>
<!-- Node2 -->
<g id="node2" class="node">
<title>Node2</title>
<g id="a_node2"><a xlink:href="namespacegrid__ops.html#a06107dbdfd1dd62e372cc29ab0255bad" target="_top" xlink:title="Calculate equilibrium grid that follows magnetic field lines.">
<polygon fill="white" stroke="black" points="536,-522 536,-556 663,-556 663,-522 536,-522"/>
<text text-anchor="start" x="544" y="-542.4" font-family="Ubuntu Mono" font-size="12.00">grid_ops::calc_ang</text>
<text text-anchor="middle" x="599.5" y="-529.4" font-family="Ubuntu Mono" font-size="12.00">_grid_eq_b</text>
</a>
</g>
</g>
<!-- Node1&#45;&gt;Node2 -->
<g id="edge1" class="edge">
<title>Node1&#45;&gt;Node2</title>
<path fill="none" stroke="midnightblue" d="M802.31,-268.37C787.45,-311.26 748.26,-412.39 689,-479 673.45,-496.47 651.77,-511.28 633.76,-521.82"/>
<polygon fill="midnightblue" stroke="midnightblue" points="805.67,-269.37 805.56,-258.78 799.04,-267.13 805.67,-269.37"/>
</g>
<!-- Node6 -->
<g id="node6" class="node">
<title>Node6</title>
<g id="a_node6"><a xlink:href="eq__ops_8f90.html#a369b73b541213d572d7197e0d549c014" target="_top" xlink:title=" ">
<polygon fill="white" stroke="black" points="514.5,-314.5 514.5,-335.5 684.5,-335.5 684.5,-314.5 514.5,-314.5"/>
<text text-anchor="middle" x="599.5" y="-321.9" font-family="Ubuntu Mono" font-size="12.00">calc_derived_de_epar_hel</text>
</a>
</g>
</g>
<!-- Node1&#45;&gt;Node6 -->
<g id="edge6" class="edge">
<title>Node1&#45;&gt;Node6</title>
<path fill="none" stroke="midnightblue" d="M777.51,-263.02C753.57,-274.1 719.64,-289.09 689,-300 673.96,-305.36 657.17,-310.34 642.28,-314.43"/>
<polygon fill="midnightblue" stroke="midnightblue" points="779.22,-266.09 786.8,-258.69 776.26,-259.74 779.22,-266.09"/>
</g>
<!-- Node9 -->
<g id="node9" class="node">
<title>Node9</title>
<g id="a_node9"><a xlink:href="namespacesol__ops.html#ae094c2a5235324b4aadb53623978d191" target="_top" xlink:title="Calculate the energy terms in the energy decomposition.">
<polygon fill="white" stroke="black" points="547,-397.5 547,-418.5 652,-418.5 652,-397.5 547,-397.5"/>
<text text-anchor="middle" x="599.5" y="-404.9" font-family="Ubuntu Mono" font-size="12.00">sol_ops::calc_e</text>
</a>
</g>
</g>
<!-- Node1&#45;&gt;Node9 -->
<g id="edge9" class="edge">
<title>Node1&#45;&gt;Node9</title>
<path fill="none" stroke="midnightblue" d="M796.37,-267.12C776.69,-295.5 736.04,-348.66 689,-379 676.5,-387.06 661.55,-393.08 647.54,-397.47"/>
<polygon fill="midnightblue" stroke="midnightblue" points="799.49,-268.76 802.22,-258.52 793.71,-264.82 799.49,-268.76"/>
</g>
<!-- Node13 -->
<g id="node13" class="node">
<title>Node13</title>
<g id="a_node13"><a xlink:href="namespacevac__ops.html#a7e3f92fbe9fa6cf3de6ac301676b96d1" target="_top" xlink:title="Calculate the matrices G and H.">
<polygon fill="white" stroke="black" points="541,-448.5 541,-469.5 658,-469.5 658,-448.5 541,-448.5"/>
<text text-anchor="middle" x="599.5" y="-455.9" font-family="Ubuntu Mono" font-size="12.00">vac_ops::calc_gh</text>
</a>
</g>
</g>
<!-- Node1&#45;&gt;Node13 -->
<g id="edge13" class="edge">
<title>Node1&#45;&gt;Node13</title>
<path fill="none" stroke="midnightblue" d="M800.72,-268.34C784.63,-305.36 745.72,-384 689,-428 677.17,-437.18 662.41,-443.77 648.36,-448.44"/>
<polygon fill="midnightblue" stroke="midnightblue" points="804.13,-269.24 804.8,-258.66 797.69,-266.51 804.13,-269.24"/>
</g>
<!-- Node18 -->
<g id="node18" class="node">
<title>Node18</title>
<g id="a_node18"><a xlink:href="namespacesol__ops.html#a13b3cf2fb6437a3c93256368fa91c267" target="_top" xlink:title="Plots Eigenvectors.">
<polygon fill="white" stroke="black" points="318.5,-354.5 318.5,-375.5 458.5,-375.5 458.5,-354.5 318.5,-354.5"/>
<text text-anchor="middle" x="388.5" y="-361.9" font-family="Ubuntu Mono" font-size="12.00">sol_ops::plot_sol_vec</text>
</a>
</g>
</g>
<!-- Node1&#45;&gt;Node18 -->
<g id="edge20" class="edge">
<title>Node1&#45;&gt;Node18</title>
<path fill="none" stroke="midnightblue" d="M793.19,-266.38C772.09,-289.45 732.32,-328.04 689,-345 614.27,-374.26 521.07,-375.56 458.66,-371.94"/>
<polygon fill="midnightblue" stroke="midnightblue" points="796.04,-268.44 800.09,-258.65 790.82,-263.78 796.04,-268.44"/>
</g>
<!-- Node19 -->
<g id="node19" class="node">
<title>Node19</title>
<g id="a_node19"><a xlink:href="namespaceeq__ops.html#a8082c12510696bd8ffdd0deef41860c2" target="_top" xlink:title="Tests whether &#160;is calculated correctly.">
<polygon fill="white" stroke="black" points="332,-274.5 332,-295.5 445,-295.5 445,-274.5 332,-274.5"/>
<text text-anchor="middle" x="388.5" y="-281.9" font-family="Ubuntu Mono" font-size="12.00">eq_ops::test_b_f</text>
</a>
</g>
</g>
<!-- Node1&#45;&gt;Node19 -->
<g id="edge22" class="edge">
<title>Node1&#45;&gt;Node19</title>
<path fill="none" stroke="midnightblue" d="M714.61,-257.59C705.96,-258.42 697.32,-259.24 689,-260 604.05,-267.79 505.44,-275.83 445.27,-280.62"/>
<polygon fill="midnightblue" stroke="midnightblue" points="715.15,-261.05 724.77,-256.6 714.48,-254.08 715.15,-261.05"/>
</g>
<!-- Node20 -->
<g id="node20" class="node">
<title>Node20</title>
<g id="a_node20"><a xlink:href="namespaceeq__ops.html#a003df1e1ab90dc6f586c3eed3dd067e8" target="_top" xlink:title="Tests whether &#160;is calculated correctly.">
<polygon fill="white" stroke="black" points="319.5,-234.5 319.5,-255.5 457.5,-255.5 457.5,-234.5 319.5,-234.5"/>
<text text-anchor="middle" x="388.5" y="-241.9" font-family="Ubuntu Mono" font-size="12.00">eq_ops::test_d12h_h</text>
</a>
</g>
</g>
<!-- Node1&#45;&gt;Node20 -->
<g id="edge24" class="edge">
<title>Node1&#45;&gt;Node20</title>
<path fill="none" stroke="midnightblue" d="M714.54,-247.32C636.42,-246.77 527.36,-245.99 457.58,-245.49"/>
<polygon fill="midnightblue" stroke="midnightblue" points="714.84,-250.83 724.86,-247.4 714.89,-243.83 714.84,-250.83"/>
</g>
<!-- Node21 -->
<g id="node21" class="node">
<title>Node21</title>
<g id="a_node21"><a xlink:href="namespaceeq__ops.html#a9811c83477d9d85f7401fd7957a590fc" target="_top" xlink:title="Tests whether &#160;is calculated correctly.">
<polygon fill="white" stroke="black" points="331,-194.5 331,-215.5 446,-215.5 446,-194.5 331,-194.5"/>
<text text-anchor="middle" x="388.5" y="-201.9" font-family="Ubuntu Mono" font-size="12.00">eq_ops::test_g_v</text>
</a>
</g>
</g>
<!-- Node1&#45;&gt;Node21 -->
<g id="edge26" class="edge">
<title>Node1&#45;&gt;Node21</title>
<path fill="none" stroke="midnightblue" d="M714.73,-238.34C632.26,-229.88 515.17,-217.88 446.3,-210.82"/>
<polygon fill="midnightblue" stroke="midnightblue" points="714.56,-241.84 724.86,-239.38 715.27,-234.87 714.56,-241.84"/>
</g>
<!-- Node22 -->
<g id="node22" class="node">
<title>Node22</title>
<g id="a_node22"><a xlink:href="namespaceeq__ops.html#a05dcd4803b9c7845d3353614c9630c23" target="_top" xlink:title="Performs tests on .">
<polygon fill="white" stroke="black" points="538.5,-160.5 538.5,-181.5 660.5,-181.5 660.5,-160.5 538.5,-160.5"/>
<text text-anchor="middle" x="599.5" y="-167.9" font-family="Ubuntu Mono" font-size="12.00">eq_ops::test_jac_f</text>
</a>
</g>
</g>
<!-- Node1&#45;&gt;Node22 -->
<g id="edge28" class="edge">
<title>Node1&#45;&gt;Node22</title>
<path fill="none" stroke="midnightblue" d="M777.51,-232.98C753.57,-221.9 719.64,-206.91 689,-196 673.96,-190.64 657.17,-185.66 642.28,-181.57"/>
<polygon fill="midnightblue" stroke="midnightblue" points="776.26,-236.26 786.8,-237.31 779.22,-229.91 776.26,-236.26"/>
</g>
<!-- Node23 -->
<g id="node23" class="node">
<title>Node23</title>
<g id="a_node23"><a xlink:href="namespaceeq__ops.html#aef40d04e93f6a96576f8fe893fb086f8" target="_top" xlink:title="Tests whether &#160;is calculated correctly.">
<polygon fill="white" stroke="black" points="537,-120.5 537,-141.5 662,-141.5 662,-120.5 537,-120.5"/>
<text text-anchor="middle" x="599.5" y="-127.9" font-family="Ubuntu Mono" font-size="12.00">eq_ops::test_jac_v</text>
</a>
</g>
</g>
<!-- Node1&#45;&gt;Node23 -->
<g id="edge30" class="edge">
<title>Node1&#45;&gt;Node23</title>
<path fill="none" stroke="midnightblue" d="M792.07,-229.97C770.33,-207.92 730.44,-171.07 689,-151 680.64,-146.95 671.43,-143.7 662.2,-141.11"/>
<polygon fill="midnightblue" stroke="midnightblue" points="789.76,-232.61 799.23,-237.36 794.79,-227.74 789.76,-232.61"/>
</g>
<!-- Node24 -->
<g id="node24" class="node">
<title>Node24</title>
<g id="a_node24"><a xlink:href="namespacehelena__ops.html#a0f156b3653264fb016d6d311eb59114c" target="_top" xlink:title="Checks whether the metric elements provided by HELENA are consistent with a direct calculation using ...">
<polygon fill="white" stroke="black" points="510,-80.5 510,-101.5 689,-101.5 689,-80.5 510,-80.5"/>
<text text-anchor="middle" x="599.5" y="-87.9" font-family="Ubuntu Mono" font-size="12.00">helena_ops::test_metrics_h</text>
</a>
</g>
</g>
<!-- Node1&#45;&gt;Node24 -->
<g id="edge32" class="edge">
<title>Node1&#45;&gt;Node24</title>
<path fill="none" stroke="midnightblue" d="M797.75,-228.68C779.15,-198.56 739.02,-140.77 689,-111 682.64,-107.21 675.63,-104.14 668.43,-101.65"/>
<polygon fill="midnightblue" stroke="midnightblue" points="794.86,-230.67 803.02,-237.42 800.85,-227.05 794.86,-230.67"/>
</g>
<!-- Node25 -->
<g id="node25" class="node">
<title>Node25</title>
<g id="a_node25"><a xlink:href="namespaceeq__ops.html#a38b723f6ed5d2e2772c9c3ad14d5ffd4" target="_top" xlink:title="Performs tests on pressure balance.">
<polygon fill="white" stroke="black" points="548.5,-40.5 548.5,-61.5 650.5,-61.5 650.5,-40.5 548.5,-40.5"/>
<text text-anchor="middle" x="599.5" y="-47.9" font-family="Ubuntu Mono" font-size="12.00">eq_ops::test_p</text>
</a>
</g>
</g>
<!-- Node1&#45;&gt;Node25 -->
<g id="edge34" class="edge">
<title>Node1&#45;&gt;Node25</title>
<path fill="none" stroke="midnightblue" d="M801.28,-227.85C785.92,-190.61 747.87,-111.16 689,-71 677.81,-63.37 664.15,-58.6 650.94,-55.65"/>
<polygon fill="midnightblue" stroke="midnightblue" points="798.04,-229.18 805.01,-237.16 804.54,-226.58 798.04,-229.18"/>
</g>
<!-- Node26 -->
<g id="node26" class="node">
<title>Node26</title>
<g id="a_node26"><a xlink:href="namespaceeq__ops.html#a1f5049c3e309fa23ee46fd116c9344f1" target="_top" xlink:title="See if T_EF it complies with the theory of .">
<polygon fill="white" stroke="black" points="541,-0.5 541,-21.5 658,-21.5 658,-0.5 541,-0.5"/>
<text text-anchor="middle" x="599.5" y="-7.9" font-family="Ubuntu Mono" font-size="12.00">eq_ops::test_t_ef</text>
</a>
</g>
</g>
<!-- Node1&#45;&gt;Node26 -->
<g id="edge36" class="edge">
<title>Node1&#45;&gt;Node26</title>
<path fill="none" stroke="midnightblue" d="M803.85,-227.65C791.74,-184.21 757.24,-82.23 689,-31 680.06,-24.29 669.27,-19.76 658.34,-16.72"/>
<polygon fill="midnightblue" stroke="midnightblue" points="800.48,-228.61 806.45,-237.36 807.24,-226.8 800.48,-228.61"/>
</g>
<!-- Node3 -->
<g id="node3" class="node">
<title>Node3</title>
<g id="a_node3"><a xlink:href="namespacedriver__eq.html#adc9d5dff288fa512e5ef885627d940cc" target="_top" xlink:title="Main driver of PB3D equilibrium part.">
<polygon fill="white" stroke="black" points="93.5,-528.5 93.5,-549.5 256.5,-549.5 256.5,-528.5 93.5,-528.5"/>
<text text-anchor="middle" x="175" y="-535.9" font-family="Ubuntu Mono" font-size="12.00">driver_eq::run_driver_eq</text>
</a>
</g>
</g>
<!-- Node2&#45;&gt;Node3 -->
<g id="edge2" class="edge">
<title>Node2&#45;&gt;Node3</title>
<path fill="none" stroke="midnightblue" d="M525.4,-552.73C508.58,-555.34 490.72,-557.67 474,-559 398.24,-565.05 378.77,-564.93 303,-559 279.19,-557.14 253.1,-553.34 230.79,-549.55"/>
<polygon fill="midnightblue" stroke="midnightblue" points="526.4,-556.12 535.72,-551.08 525.29,-549.21 526.4,-556.12"/>
</g>
<!-- Node5 -->
<g id="node5" class="node">
<title>Node5</title>
<g id="a_node5"><a xlink:href="namespacegrid__ops.html#ad16495ddd320562451c2325bafecf2d8" target="_top" xlink:title="Sets up the field&#45;aligned equilibrium grid.">
<polygon fill="white" stroke="black" points="303,-528.5 303,-549.5 474,-549.5 474,-528.5 303,-528.5"/>
<text text-anchor="middle" x="388.5" y="-535.9" font-family="Ubuntu Mono" font-size="12.00">grid_ops::setup_grid_eq_b</text>
</a>
</g>
</g>
<!-- Node2&#45;&gt;Node5 -->
<g id="edge4" class="edge">
<title>Node2&#45;&gt;Node5</title>
<path fill="none" stroke="midnightblue" d="M525.63,-539C509.02,-539 491.25,-539 474.2,-539"/>
<polygon fill="midnightblue" stroke="midnightblue" points="525.79,-542.5 535.79,-539 525.79,-535.5 525.79,-542.5"/>
</g>
<!-- Node4 -->
<g id="node4" class="node">
<title>Node4</title>
<g id="a_node4"><a xlink:href="PB3D_8f90.html#afaee01f014ab3398eecac996b2795fd2" target="_top" xlink:title="Peeling Ballooning in 3D.">
<polygon fill="white" stroke="black" points="0,-499.5 0,-520.5 47,-520.5 47,-499.5 0,-499.5"/>
<text text-anchor="middle" x="23.5" y="-506.9" font-family="Ubuntu Mono" font-size="12.00">pb3d</text>
</a>
</g>
</g>
<!-- Node3&#45;&gt;Node4 -->
<g id="edge3" class="edge">
<title>Node3&#45;&gt;Node4</title>
<path fill="none" stroke="midnightblue" d="M109.78,-526.54C87.4,-522.2 63.74,-517.61 47.03,-514.37"/>
<polygon fill="midnightblue" stroke="midnightblue" points="109.12,-529.98 119.6,-528.45 110.45,-523.11 109.12,-529.98"/>
</g>
<!-- Node5&#45;&gt;Node3 -->
<g id="edge5" class="edge">
<title>Node5&#45;&gt;Node3</title>
<path fill="none" stroke="midnightblue" d="M292.88,-539C280.76,-539 268.45,-539 256.59,-539"/>
<polygon fill="midnightblue" stroke="midnightblue" points="293,-542.5 303,-539 293,-535.5 293,-542.5"/>
</g>
<!-- Node7 -->
<g id="node7" class="node">
<title>Node7</title>
<g id="a_node7"><a xlink:href="namespaceeq__ops.html#a087e08ce6d8ad381b5bac8fc51148d50" target="_top" xlink:title="Calculates derived equilibrium quantities system.">
<polygon fill="white" stroke="black" points="311,-314.5 311,-335.5 466,-335.5 466,-314.5 311,-314.5"/>
<text text-anchor="middle" x="388.5" y="-321.9" font-family="Ubuntu Mono" font-size="12.00">eq_ops::calc_derived_q</text>
</a>
</g>
</g>
<!-- Node6&#45;&gt;Node7 -->
<g id="edge7" class="edge">
<title>Node6&#45;&gt;Node7</title>
<path fill="none" stroke="midnightblue" d="M504.2,-325C491.42,-325 478.42,-325 466,-325"/>
<polygon fill="midnightblue" stroke="midnightblue" points="504.4,-328.5 514.4,-325 504.4,-321.5 504.4,-328.5"/>
</g>
<!-- Node8 -->
<g id="node8" class="node">
<title>Node8</title>
<g id="a_node8"><a xlink:href="interfaceeq__ops_1_1calc__eq.html#ae2f56ab19ce5c33e863f32e1c9263604" target="_top" xlink:title="metric version">
<polygon fill="white" stroke="black" points="86.5,-155.5 86.5,-176.5 263.5,-176.5 263.5,-155.5 86.5,-155.5"/>
<text text-anchor="middle" x="175" y="-162.9" font-family="Ubuntu Mono" font-size="12.00">eq_ops::calc_eq::calc_eq_2</text>
</a>
</g>
</g>
<!-- Node7&#45;&gt;Node8 -->
<g id="edge8" class="edge">
<title>Node7&#45;&gt;Node8</title>
<path fill="none" stroke="midnightblue" d="M314.52,-310.78C310.53,-309.07 306.66,-307.15 303,-305 245.51,-271.21 199,-203 182.48,-176.69"/>
<polygon fill="midnightblue" stroke="midnightblue" points="313.44,-314.11 324.03,-314.41 315.94,-307.57 313.44,-314.11"/>
</g>
<!-- Node10 -->
<g id="node10" class="node">
<title>Node10</title>
<g id="a_node10"><a xlink:href="namespacesol__ops.html#aee487ffbe5d0edff5e37a6500748941c" target="_top" xlink:title="Decomposes the plasma potential and kinetic energy in its individual terms for an individual Eigenval...">
<polygon fill="white" stroke="black" points="320,-395 320,-429 457,-429 457,-395 320,-395"/>
<text text-anchor="start" x="328" y="-415.4" font-family="Ubuntu Mono" font-size="12.00">sol_ops::decompose</text>
<text text-anchor="middle" x="388.5" y="-402.4" font-family="Ubuntu Mono" font-size="12.00">_energy</text>
</a>
</g>
</g>
<!-- Node9&#45;&gt;Node10 -->
<g id="edge10" class="edge">
<title>Node9&#45;&gt;Node10</title>
<path fill="none" stroke="midnightblue" d="M536.74,-409.18C511.71,-409.66 482.73,-410.22 457.14,-410.71"/>
<polygon fill="midnightblue" stroke="midnightblue" points="536.91,-412.68 546.84,-408.99 536.77,-405.68 536.91,-412.68"/>
</g>
<!-- Node11 -->
<g id="node11" class="node">
<title>Node11</title>
<g id="a_node11"><a xlink:href="namespacedriver__post.html#a33b3c6f9018a0ddc92dce77394b8ab37" target="_top" xlink:title="The main driver routine for postprocessing.">
<polygon fill="white" stroke="black" points="83,-401.5 83,-422.5 267,-422.5 267,-401.5 83,-401.5"/>
<text text-anchor="middle" x="175" y="-408.9" font-family="Ubuntu Mono" font-size="12.00">driver_post::run_driver_post</text>
</a>
</g>
</g>
<!-- Node10&#45;&gt;Node11 -->
<g id="edge11" class="edge">
<title>Node10&#45;&gt;Node11</title>
<path fill="none" stroke="midnightblue" d="M310,-412C296.07,-412 281.44,-412 267.17,-412"/>
<polygon fill="midnightblue" stroke="midnightblue" points="310,-415.5 320,-412 310,-408.5 310,-415.5"/>
</g>
<!-- Node12 -->
<g id="node12" class="node">
<title>Node12</title>
<g id="a_node12"><a xlink:href="POST_8f90.html#ac289b64ac4671fea0b4f2298ba1188a1" target="_top" xlink:title="Peeling Ballooning in 3D: postprocessing.">
<polygon fill="white" stroke="black" points="2.5,-436.5 2.5,-457.5 44.5,-457.5 44.5,-436.5 2.5,-436.5"/>
<text text-anchor="middle" x="23.5" y="-443.9" font-family="Ubuntu Mono" font-size="12.00">post</text>
</a>
</g>
</g>
<!-- Node11&#45;&gt;Node12 -->
<g id="edge12" class="edge">
<title>Node11&#45;&gt;Node12</title>
<path fill="none" stroke="midnightblue" d="M119.39,-424.79C93.4,-430.87 63.91,-437.77 44.8,-442.25"/>
<polygon fill="midnightblue" stroke="midnightblue" points="120.21,-428.19 129.15,-422.5 118.61,-421.37 120.21,-428.19"/>
</g>
<!-- Node14 -->
<g id="node14" class="node">
<title>Node14</title>
<g id="a_node14"><a xlink:href="namespacevac__ops.html#a5e5a8322b3aa2e3704b1050426f06d9d" target="_top" xlink:title="Calculates the vacuum response.">
<polygon fill="white" stroke="black" points="315,-488.5 315,-509.5 462,-509.5 462,-488.5 315,-488.5"/>
<text text-anchor="middle" x="388.5" y="-495.9" font-family="Ubuntu Mono" font-size="12.00">vac_ops::calc_vac_res</text>
</a>
</g>
</g>
<!-- Node13&#45;&gt;Node14 -->
<g id="edge14" class="edge">
<title>Node13&#45;&gt;Node14</title>
<path fill="none" stroke="midnightblue" d="M533.68,-471.41C505.06,-476.88 471.78,-483.25 444.41,-488.49"/>
<polygon fill="midnightblue" stroke="midnightblue" points="534.42,-474.83 543.59,-469.51 533.11,-467.95 534.42,-474.83"/>
</g>
<!-- Node16 -->
<g id="node16" class="node">
<title>Node16</title>
<g id="a_node16"><a xlink:href="namespacevac__ops.html#a3a2a3aed45951aecef42197b82a5a6da" target="_top" xlink:title="Calculate vacuum potential at some positions that are not resonant.">
<polygon fill="white" stroke="black" points="315,-448.5 315,-469.5 462,-469.5 462,-448.5 315,-448.5"/>
<text text-anchor="middle" x="388.5" y="-455.9" font-family="Ubuntu Mono" font-size="12.00">vac_ops::vac_pot_plot</text>
</a>
</g>
</g>
<!-- Node13&#45;&gt;Node16 -->
<g id="edge17" class="edge">
<title>Node13&#45;&gt;Node16</title>
<path fill="none" stroke="midnightblue" d="M530.66,-459C508.8,-459 484.49,-459 462.3,-459"/>
<polygon fill="midnightblue" stroke="midnightblue" points="530.84,-462.5 540.84,-459 530.84,-455.5 530.84,-462.5"/>
</g>
<!-- Node15 -->
<g id="node15" class="node">
<title>Node15</title>
<g id="a_node15"><a xlink:href="namespacedriver__sol.html#ad3b1765b3ecc5f82129bfc683ffc6c5c" target="_top" xlink:title="Main driver of PB3D solution part.">
<polygon fill="white" stroke="black" points="92,-488.5 92,-509.5 258,-509.5 258,-488.5 92,-488.5"/>
<text text-anchor="middle" x="175" y="-495.9" font-family="Ubuntu Mono" font-size="12.00">driver_sol::run_driver_sol</text>
</a>
</g>
</g>
<!-- Node14&#45;&gt;Node15 -->
<g id="edge15" class="edge">
<title>Node14&#45;&gt;Node15</title>
<path fill="none" stroke="midnightblue" d="M304.36,-499C289.24,-499 273.46,-499 258.36,-499"/>
<polygon fill="midnightblue" stroke="midnightblue" points="304.71,-502.5 314.71,-499 304.71,-495.5 304.71,-502.5"/>
</g>
<!-- Node15&#45;&gt;Node4 -->
<g id="edge16" class="edge">
<title>Node15&#45;&gt;Node4</title>
<path fill="none" stroke="midnightblue" d="M81.52,-505.8C68.84,-506.74 56.88,-507.62 47.22,-508.33"/>
<polygon fill="midnightblue" stroke="midnightblue" points="82.1,-509.27 91.82,-505.05 81.59,-502.29 82.1,-509.27"/>
</g>
<!-- Node17 -->
<g id="node17" class="node">
<title>Node17</title>
<g id="a_node17"><a xlink:href="namespacedriver__post.html#af527706d4e696d4e507443d2f74194ef" target="_top" xlink:title="Initializes the POST driver.">
<polygon fill="white" stroke="black" points="105,-445.5 105,-466.5 245,-466.5 245,-445.5 105,-445.5"/>
<text text-anchor="middle" x="175" y="-452.9" font-family="Ubuntu Mono" font-size="12.00">driver_post::init_post</text>
</a>
</g>
</g>
<!-- Node16&#45;&gt;Node17 -->
<g id="edge18" class="edge">
<title>Node16&#45;&gt;Node17</title>
<path fill="none" stroke="midnightblue" d="M304.58,-457.82C284.98,-457.55 264.28,-457.25 245.35,-456.98"/>
<polygon fill="midnightblue" stroke="midnightblue" points="304.67,-461.33 314.71,-457.97 304.76,-454.33 304.67,-461.33"/>
</g>
<!-- Node17&#45;&gt;Node12 -->
<g id="edge19" class="edge">
<title>Node17&#45;&gt;Node12</title>
<path fill="none" stroke="midnightblue" d="M94.85,-451.24C76.15,-450.11 57.82,-449.01 44.57,-448.21"/>
<polygon fill="midnightblue" stroke="midnightblue" points="94.75,-454.74 104.94,-451.84 95.17,-447.75 94.75,-454.74"/>
</g>
<!-- Node18&#45;&gt;Node11 -->
<g id="edge21" class="edge">
<title>Node18&#45;&gt;Node11</title>
<path fill="none" stroke="midnightblue" d="M329.94,-377.79C296.48,-385.23 254.84,-394.48 223.31,-401.49"/>
<polygon fill="midnightblue" stroke="midnightblue" points="331.03,-381.13 340.04,-375.55 329.51,-374.3 331.03,-381.13"/>
</g>
<!-- Node19&#45;&gt;Node8 -->
<g id="edge23" class="edge">
<title>Node19&#45;&gt;Node8</title>
<path fill="none" stroke="midnightblue" d="M322.09,-272.52C315.5,-270.38 309.03,-267.89 303,-265 254.35,-241.66 206.87,-197.25 186.45,-176.8"/>
<polygon fill="midnightblue" stroke="midnightblue" points="321.2,-275.91 331.78,-275.41 323.2,-269.2 321.2,-275.91"/>
</g>
<!-- Node20&#45;&gt;Node8 -->
<g id="edge25" class="edge">
<title>Node20&#45;&gt;Node8</title>
<path fill="none" stroke="midnightblue" d="M325.85,-231.95C318.09,-229.86 310.31,-227.53 303,-225 263.72,-211.38 220.25,-189.63 195.71,-176.69"/>
<polygon fill="midnightblue" stroke="midnightblue" points="325.08,-235.36 335.63,-234.48 326.83,-228.59 325.08,-235.36"/>
</g>
<!-- Node21&#45;&gt;Node8 -->
<g id="edge27" class="edge">
<title>Node21&#45;&gt;Node8</title>
<path fill="none" stroke="midnightblue" d="M320.68,-192.68C292.57,-187.49 260.19,-181.52 233.2,-176.55"/>
<polygon fill="midnightblue" stroke="midnightblue" points="320.35,-196.18 330.82,-194.55 321.62,-189.29 320.35,-196.18"/>
</g>
<!-- Node22&#45;&gt;Node8 -->
<g id="edge29" class="edge">
<title>Node22&#45;&gt;Node8</title>
<path fill="none" stroke="midnightblue" d="M528.01,-170.17C455.43,-169.31 342.16,-167.97 263.8,-167.04"/>
<polygon fill="midnightblue" stroke="midnightblue" points="528.37,-173.67 538.41,-170.29 528.46,-166.67 528.37,-173.67"/>
</g>
<!-- Node23&#45;&gt;Node8 -->
<g id="edge31" class="edge">
<title>Node23&#45;&gt;Node8</title>
<path fill="none" stroke="midnightblue" d="M526.63,-136.95C454,-142.97 341.65,-152.28 263.79,-158.73"/>
<polygon fill="midnightblue" stroke="midnightblue" points="526.94,-140.44 536.61,-136.13 526.36,-133.46 526.94,-140.44"/>
</g>
<!-- Node24&#45;&gt;Node8 -->
<g id="edge33" class="edge">
<title>Node24&#45;&gt;Node8</title>
<path fill="none" stroke="midnightblue" d="M511.07,-102.97C452.11,-111.44 372.65,-123.64 303,-137 274.79,-142.41 243.32,-149.59 218.76,-155.45"/>
<polygon fill="midnightblue" stroke="midnightblue" points="511.69,-106.42 521.09,-101.54 510.7,-99.49 511.69,-106.42"/>
</g>
<!-- Node25&#45;&gt;Node8 -->
<g id="edge35" class="edge">
<title>Node25&#45;&gt;Node8</title>
<path fill="none" stroke="midnightblue" d="M538.17,-56.87C477.59,-63.91 382.15,-78.14 303,-104 262.19,-117.34 217.83,-141.41 193.84,-155.31"/>
<polygon fill="midnightblue" stroke="midnightblue" points="538.78,-60.33 548.32,-55.72 537.99,-53.37 538.78,-60.33"/>
</g>
<!-- Node26&#45;&gt;Node8 -->
<g id="edge37" class="edge">
<title>Node26&#45;&gt;Node8</title>
<path fill="none" stroke="midnightblue" d="M530.93,-12.9C469.1,-16.86 376.34,-28.5 303,-62 252.19,-85.21 204.74,-133.84 185.29,-155.36"/>
<polygon fill="midnightblue" stroke="midnightblue" points="531.19,-16.39 540.96,-12.31 530.78,-9.41 531.19,-16.39"/>
</g>
</g>
</svg>
