<?xml version="1.0" encoding="UTF-8" standalone="no"?>
<!DOCTYPE svg PUBLIC "-//W3C//DTD SVG 1.1//EN"
 "http://www.w3.org/Graphics/SVG/1.1/DTD/svg11.dtd">
<!-- Generated by graphviz version 2.38.0 (20140413.2041)
 -->
<!-- Title: mpi_utilities::lock_header Pages: 1 -->
<svg width="318pt" height="70pt"
 viewBox="0.00 0.00 318.00 70.00" xmlns="http://www.w3.org/2000/svg" xmlns:xlink="http://www.w3.org/1999/xlink">
<g id="graph0" class="graph" transform="scale(1 1) rotate(0) translate(4 66)">
<title>mpi_utilities::lock_header</title>
<polygon fill="white" stroke="none" points="-4,4 -4,-66 314,-66 314,4 -4,4"/>
<!-- Node46 -->
<g id="node1" class="node"><title>Node46</title>
<polygon fill="#bfbfbf" stroke="black" points="0,-14 0,-48 131,-48 131,-14 0,-14"/>
<text text-anchor="start" x="8" y="-34.4" font-family="Ubuntu Mono" font-size="12.00">mpi_utilities::lock</text>
<text text-anchor="middle" x="65.5" y="-21.4" font-family="Ubuntu Mono" font-size="12.00">_header</text>
</g>
<!-- Node47 -->
<g id="node2" class="node"><title>Node47</title>
<g id="a_node2"><a xlink:href="namespacestr__utilities.html#acb8c4e66aead51f178e47fdea8d7a7db" target="_top" xlink:title="Convert an integer to string. ">
<polygon fill="white" stroke="black" points="167,-40.5 167,-61.5 310,-61.5 310,-40.5 167,-40.5"/>
<text text-anchor="middle" x="238.5" y="-47.9" font-family="Ubuntu Mono" font-size="12.00">str_utilities::ii2str</text>
</a>
</g>
</g>
<!-- Node46&#45;&gt;Node47 -->
<g id="edge1" class="edge"><title>Node46&#45;&gt;Node47</title>
<path fill="none" stroke="midnightblue" d="M131.148,-38.5611C139.509,-39.5391 148.154,-40.5502 156.735,-41.5538"/>
<polygon fill="midnightblue" stroke="midnightblue" points="156.419,-45.0406 166.758,-42.7261 157.232,-38.088 156.419,-45.0406"/>
</g>
<!-- Node48 -->
<g id="node3" class="node"><title>Node48</title>
<g id="a_node3"><a xlink:href="namespacestr__utilities.html#a0b97e51770725a3e98ed393d26681414" target="_top" xlink:title="Convert an integer to string. ">
<polygon fill="white" stroke="black" points="170,-0.5 170,-21.5 307,-21.5 307,-0.5 170,-0.5"/>
<text text-anchor="middle" x="238.5" y="-7.9" font-family="Ubuntu Mono" font-size="12.00">str_utilities::i2str</text>
</a>
</g>
</g>
<!-- Node46&#45;&gt;Node48 -->
<g id="edge2" class="edge"><title>Node46&#45;&gt;Node48</title>
<path fill="none" stroke="midnightblue" d="M131.148,-23.4389C140.554,-22.3387 150.319,-21.1967 159.948,-20.0704"/>
<polygon fill="midnightblue" stroke="midnightblue" points="160.387,-23.543 169.912,-18.905 159.574,-16.5904 160.387,-23.543"/>
</g>
</g>
</svg>
