<?xml version="1.0" encoding="UTF-8" standalone="no"?>
<!DOCTYPE svg PUBLIC "-//W3C//DTD SVG 1.1//EN"
 "http://www.w3.org/Graphics/SVG/1.1/DTD/svg11.dtd">
<!-- Generated by graphviz version 2.38.0 (20140413.2041)
 -->
<!-- Title: eq_ops::test_p Pages: 1 -->
<svg width="813pt" height="149pt"
 viewBox="0.00 0.00 813.00 149.00" xmlns="http://www.w3.org/2000/svg" xmlns:xlink="http://www.w3.org/1999/xlink">
<g id="graph0" class="graph" transform="scale(1 1) rotate(0) translate(4 145)">
<title>eq_ops::test_p</title>
<polygon fill="white" stroke="none" points="-4,4 -4,-145 809,-145 809,4 -4,4"/>
<!-- Node336 -->
<g id="node1" class="node"><title>Node336</title>
<polygon fill="#bfbfbf" stroke="black" points="0,-59.5 0,-80.5 101,-80.5 101,-59.5 0,-59.5"/>
<text text-anchor="middle" x="50.5" y="-66.9" font-family="Ubuntu Mono" font-size="12.00">eq_ops::test_p</text>
</g>
<!-- Node337 -->
<g id="node2" class="node"><title>Node337</title>
<g id="a_node2"><a xlink:href="namespacenum__utilities.html#a5ee3fbd1fe67d0deefc7194631389f2a" target="_top" xlink:title="num_utilities::c">
<polygon fill="white" stroke="black" points="164,-119.5 164,-140.5 277,-140.5 277,-119.5 164,-119.5"/>
<text text-anchor="middle" x="220.5" y="-126.9" font-family="Ubuntu Mono" font-size="12.00">num_utilities::c</text>
</a>
</g>
</g>
<!-- Node336&#45;&gt;Node337 -->
<g id="edge1" class="edge"><title>Node336&#45;&gt;Node337</title>
<path fill="none" stroke="midnightblue" d="M71.0682,-80.5295C88.1006,-89.3577 113.652,-101.801 137,-110 144.058,-112.479 151.56,-114.76 159.054,-116.826"/>
<polygon fill="midnightblue" stroke="midnightblue" points="158.298,-120.247 168.861,-119.416 160.086,-113.479 158.298,-120.247"/>
</g>
<!-- Node338 -->
<g id="node3" class="node"><title>Node338</title>
<g id="a_node3"><a xlink:href="namespacegrid__utilities.html#a67001ff9bbcad707aacf17f90a748d90" target="_top" xlink:title="grid_utilities::trim_grid">
<polygon fill="white" stroke="black" points="137,-79.5 137,-100.5 304,-100.5 304,-79.5 137,-79.5"/>
<text text-anchor="middle" x="220.5" y="-86.9" font-family="Ubuntu Mono" font-size="12.00">grid_utilities::trim_grid</text>
</a>
</g>
</g>
<!-- Node336&#45;&gt;Node338 -->
<g id="edge2" class="edge"><title>Node336&#45;&gt;Node338</title>
<path fill="none" stroke="midnightblue" d="M101.451,-75.9465C109.445,-76.8983 117.935,-77.909 126.552,-78.9348"/>
<polygon fill="midnightblue" stroke="midnightblue" points="126.361,-82.4366 136.704,-80.1434 127.188,-75.4857 126.361,-82.4366"/>
</g>
<!-- Node339 -->
<g id="node4" class="node"><title>Node339</title>
<g id="a_node4"><a xlink:href="namespacemessages.html#aa4a8d01563e92558e8a0875b075ec54c" target="_top" xlink:title="messages::writo">
<polygon fill="white" stroke="black" points="340,-20.5 340,-41.5 447,-41.5 447,-20.5 340,-20.5"/>
<text text-anchor="middle" x="393.5" y="-27.9" font-family="Ubuntu Mono" font-size="12.00">messages::writo</text>
</a>
</g>
</g>
<!-- Node336&#45;&gt;Node339 -->
<g id="edge3" class="edge"><title>Node336&#45;&gt;Node339</title>
<path fill="none" stroke="midnightblue" d="M101.084,-64.3291C161.488,-57.4207 263.607,-45.7414 329.516,-38.2034"/>
<polygon fill="midnightblue" stroke="midnightblue" points="330.234,-41.6442 339.772,-37.0305 329.439,-34.6896 330.234,-41.6442"/>
</g>
<!-- Node343 -->
<g id="node8" class="node"><title>Node343</title>
<g id="a_node8"><a xlink:href="namespacemessages.html#a6e6bfb084063e4cc91ee86e542043302" target="_top" xlink:title="messages::lvl_ud">
<polygon fill="white" stroke="black" points="164,-1.5 164,-22.5 277,-22.5 277,-1.5 164,-1.5"/>
<text text-anchor="middle" x="220.5" y="-8.9" font-family="Ubuntu Mono" font-size="12.00">messages::lvl_ud</text>
</a>
</g>
</g>
<!-- Node336&#45;&gt;Node343 -->
<g id="edge7" class="edge"><title>Node336&#45;&gt;Node343</title>
<path fill="none" stroke="midnightblue" d="M77.5097,-59.3843C94.3578,-52.6514 116.839,-43.9349 137,-37 148.499,-33.0448 161.009,-29.0819 172.73,-25.5147"/>
<polygon fill="midnightblue" stroke="midnightblue" points="173.783,-28.8529 182.351,-22.6201 171.766,-22.1497 173.783,-28.8529"/>
</g>
<!-- Node340 -->
<g id="node5" class="node"><title>Node340</title>
<g id="a_node5"><a xlink:href="namespacemessages.html#a82dddaab795b78b3d39e1ff1aab2f665" target="_top" xlink:title="messages::get_mem_usage">
<polygon fill="white" stroke="black" points="483,-40.5 483,-61.5 638,-61.5 638,-40.5 483,-40.5"/>
<text text-anchor="middle" x="560.5" y="-47.9" font-family="Ubuntu Mono" font-size="12.00">messages::get_mem_usage</text>
</a>
</g>
</g>
<!-- Node339&#45;&gt;Node340 -->
<g id="edge4" class="edge"><title>Node339&#45;&gt;Node340</title>
<path fill="none" stroke="midnightblue" d="M447.161,-37.3831C455.452,-38.3881 464.208,-39.4495 473.025,-40.5182"/>
<polygon fill="midnightblue" stroke="midnightblue" points="472.635,-43.9965 482.984,-41.7253 473.478,-37.0474 472.635,-43.9965"/>
</g>
<!-- Node341 -->
<g id="node6" class="node"><title>Node341</title>
<g id="a_node6"><a xlink:href="messages_8f90.html#a6d15f28783f95a7a4b2a44185619792f" target="_top" xlink:title="format_str">
<polygon fill="white" stroke="black" points="522,-0.5 522,-21.5 599,-21.5 599,-0.5 522,-0.5"/>
<text text-anchor="middle" x="560.5" y="-7.9" font-family="Ubuntu Mono" font-size="12.00">format_str</text>
</a>
</g>
</g>
<!-- Node339&#45;&gt;Node341 -->
<g id="edge5" class="edge"><title>Node339&#45;&gt;Node341</title>
<path fill="none" stroke="midnightblue" d="M447.161,-24.6169C467.977,-22.0937 491.722,-19.2155 512.002,-16.7573"/>
<polygon fill="midnightblue" stroke="midnightblue" points="512.448,-20.229 521.954,-15.551 511.606,-13.2798 512.448,-20.229"/>
</g>
<!-- Node342 -->
<g id="node7" class="node"><title>Node342</title>
<g id="a_node7"><a xlink:href="namespacemessages.html#a61fd0b51b5e37d58fdc993c01792a3fd" target="_top" xlink:title="messages::get_clock">
<polygon fill="white" stroke="black" points="674,-0.5 674,-21.5 805,-21.5 805,-0.5 674,-0.5"/>
<text text-anchor="middle" x="739.5" y="-7.9" font-family="Ubuntu Mono" font-size="12.00">messages::get_clock</text>
</a>
</g>
</g>
<!-- Node341&#45;&gt;Node342 -->
<g id="edge6" class="edge"><title>Node341&#45;&gt;Node342</title>
<path fill="none" stroke="midnightblue" d="M599.037,-11C617.869,-11 641.372,-11 663.685,-11"/>
<polygon fill="midnightblue" stroke="midnightblue" points="663.832,-14.5001 673.832,-11 663.832,-7.5001 663.832,-14.5001"/>
</g>
<!-- Node343&#45;&gt;Node339 -->
<g id="edge8" class="edge"><title>Node343&#45;&gt;Node339</title>
<path fill="none" stroke="midnightblue" d="M277.019,-18.1688C293.894,-20.0438 312.553,-22.117 329.863,-24.0403"/>
<polygon fill="midnightblue" stroke="midnightblue" points="329.549,-27.5269 339.875,-25.1527 330.322,-20.5697 329.549,-27.5269"/>
</g>
</g>
</svg>
