<?xml version="1.0" encoding="UTF-8" standalone="no"?>
<!DOCTYPE svg PUBLIC "-//W3C//DTD SVG 1.1//EN"
 "http://www.w3.org/Graphics/SVG/1.1/DTD/svg11.dtd">
<!-- Generated by graphviz version 14.1.2 (20260124.0452)
 -->
<!-- Title: eq_utilities::eq_info Pages: 1 -->
<svg width="274pt" height="68pt"
 viewBox="0.00 0.00 274.00 68.00" xmlns="http://www.w3.org/2000/svg" xmlns:xlink="http://www.w3.org/1999/xlink">
<g id="graph0" class="graph" transform="scale(1 1) rotate(0) translate(4 63.75)">
<title>eq_utilities::eq_info</title>
<!-- Node1 -->
<g id="Node000001" class="node">
<title>Node1</title>
<g id="a_Node000001"><a xlink:title="Returns string with possible extension with equilibrium job as well as parallel job,...">
<polygon fill="#999999" stroke="#666666" points="266,-39.75 124,-39.75 124,-19 266,-19 266,-39.75"/>
<text xml:space="preserve" text-anchor="middle" x="195" y="-24.35" font-family="Ubuntu Mono" font-size="12.00">eq_utilities::eq_info</text>
</a>
</g>
</g>
<!-- Node1&#45;&gt;Node1 -->
<g id="edge3_Node000001_Node000001" class="edge">
<title>Node1&#45;&gt;Node1</title>
<g id="a_edge3_Node000001_Node000001"><a xlink:title=" ">
<path fill="none" stroke="#63b8ff" d="M221.57,-51.24C218.05,-55.08 209.19,-57.75 195,-57.75 169.05,-57.75 160.94,-48.81 170.67,-40.15"/>
<polygon fill="#63b8ff" stroke="#63b8ff" points="225.04,-50.74 219.63,-41.63 218.18,-52.13 225.04,-50.74"/>
</a>
</g>
</g>
<!-- Node2 -->
<g id="Node000002" class="node">
<title>Node2</title>
<g id="a_Node000002"><a xlink:href="PB3D_8f90.html#a36e5b0ce05c9783f58b43c4463b290a1" target="_top" xlink:title="Peeling Ballooning in 3D.">
<polygon fill="white" stroke="#666666" points="88,-59.75 0,-59.75 0,-39 88,-39 88,-59.75"/>
<text xml:space="preserve" text-anchor="middle" x="44" y="-44.35" font-family="Ubuntu Mono" font-size="12.00">__pb3d_f90__</text>
</a>
</g>
</g>
<!-- Node1&#45;&gt;Node2 -->
<g id="edge1_Node000001_Node000002" class="edge">
<title>Node1&#45;&gt;Node2</title>
<g id="a_edge1_Node000001_Node000002"><a xlink:title=" ">
<path fill="none" stroke="#63b8ff" d="M112.53,-40.31C104.25,-41.42 96.08,-42.52 88.45,-43.54"/>
<polygon fill="#63b8ff" stroke="#63b8ff" points="112.92,-43.79 122.36,-38.99 111.99,-36.85 112.92,-43.79"/>
</a>
</g>
</g>
<!-- Node3 -->
<g id="Node000003" class="node">
<title>Node3</title>
<g id="a_Node000003"><a xlink:href="POST_8f90.html#a28f8fd95cf9c74c0cfd8b386827a7a9b" target="_top" xlink:title="Peeling Ballooning in 3D: postprocessing.">
<polygon fill="white" stroke="#666666" points="88,-20.75 0,-20.75 0,0 88,0 88,-20.75"/>
<text xml:space="preserve" text-anchor="middle" x="44" y="-5.35" font-family="Ubuntu Mono" font-size="12.00">__post_f90__</text>
</a>
</g>
</g>
<!-- Node1&#45;&gt;Node3 -->
<g id="edge2_Node000001_Node000003" class="edge">
<title>Node1&#45;&gt;Node3</title>
<g id="a_edge2_Node000001_Node000003"><a xlink:title=" ">
<path fill="none" stroke="#63b8ff" d="M112.53,-18.99C104.25,-17.93 96.08,-16.89 88.45,-15.92"/>
<polygon fill="#63b8ff" stroke="#63b8ff" points="112,-22.45 122.36,-20.24 112.88,-15.5 112,-22.45"/>
</a>
</g>
</g>
</g>
</svg>
