<?xml version="1.0" encoding="UTF-8" standalone="no"?>
<!DOCTYPE svg PUBLIC "-//W3C//DTD SVG 1.1//EN"
 "http://www.w3.org/Graphics/SVG/1.1/DTD/svg11.dtd">
<!-- Generated by graphviz version 2.43.0 (0)
 -->
<!-- Title: eq_ops::test_jac_f Pages: 1 -->
<svg width="705pt" height="168pt"
 viewBox="0.00 0.00 705.00 168.00" xmlns="http://www.w3.org/2000/svg" xmlns:xlink="http://www.w3.org/1999/xlink">
<g id="graph0" class="graph" transform="scale(1 1) rotate(0) translate(4 164)">
<title>eq_ops::test_jac_f</title>
<polygon fill="white" stroke="transparent" points="-4,4 -4,-164 701,-164 701,4 -4,4"/>
<!-- Node1 -->
<g id="node1" class="node">
<title>Node1</title>
<g id="a_node1"><a xlink:title="Performs tests on .">
<polygon fill="#bfbfbf" stroke="black" points="0,-59.5 0,-80.5 122,-80.5 122,-59.5 0,-59.5"/>
<text text-anchor="middle" x="61" y="-66.9" font-family="Ubuntu Mono" font-size="12.00">eq_ops::test_jac_f</text>
</a>
</g>
</g>
<!-- Node2 -->
<g id="node2" class="node">
<title>Node2</title>
<g id="a_node2"><a xlink:href="namespacemessages.html#a6e6bfb084063e4cc91ee86e542043302" target="_top" xlink:title="Increases/decreases lvl of output.">
<polygon fill="white" stroke="black" points="184,-118.5 184,-139.5 302,-139.5 302,-118.5 184,-118.5"/>
<text text-anchor="middle" x="243" y="-125.9" font-family="Ubuntu Mono" font-size="12.00">messages::lvl_ud</text>
</a>
</g>
</g>
<!-- Node1&#45;&gt;Node2 -->
<g id="edge1" class="edge">
<title>Node1&#45;&gt;Node2</title>
<path fill="none" stroke="midnightblue" d="M90.43,-80.5C109.47,-87.42 135.14,-96.55 158,-104 169.98,-107.9 183,-111.9 195.13,-115.51"/>
<polygon fill="midnightblue" stroke="midnightblue" points="194.49,-118.97 205.07,-118.45 196.48,-112.26 194.49,-118.97"/>
</g>
<!-- Node3 -->
<g id="node3" class="node">
<title>Node3</title>
<g id="a_node3"><a xlink:href="namespacemessages.html#aa4a8d01563e92558e8a0875b075ec54c" target="_top" xlink:title="Write output to file identified by output_i.">
<polygon fill="white" stroke="black" points="364,-98.5 364,-119.5 478,-119.5 478,-98.5 364,-98.5"/>
<text text-anchor="middle" x="421" y="-105.9" font-family="Ubuntu Mono" font-size="12.00">messages::writo</text>
</a>
</g>
</g>
<!-- Node1&#45;&gt;Node3 -->
<g id="edge8" class="edge">
<title>Node1&#45;&gt;Node3</title>
<path fill="none" stroke="midnightblue" d="M122.32,-76.57C186.35,-83.55 287.25,-94.54 353.53,-101.76"/>
<polygon fill="midnightblue" stroke="midnightblue" points="353.54,-105.28 363.86,-102.88 354.29,-98.32 353.54,-105.28"/>
</g>
<!-- Node7 -->
<g id="node7" class="node">
<title>Node7</title>
<g id="a_node7"><a xlink:href="namespaceoutput__ops.html#ab0d14194d01ab0534562eab50b37a57a" target="_top" xlink:title="Takes two input vectors and plots these as well as the relative and absolute difference in a HDF5 fil...">
<polygon fill="white" stroke="black" points="158,-40.5 158,-61.5 328,-61.5 328,-40.5 158,-40.5"/>
<text text-anchor="middle" x="243" y="-47.9" font-family="Ubuntu Mono" font-size="12.00">output_ops::plot_diff_hdf5</text>
</a>
</g>
</g>
<!-- Node1&#45;&gt;Node7 -->
<g id="edge6" class="edge">
<title>Node1&#45;&gt;Node7</title>
<path fill="none" stroke="midnightblue" d="M122.19,-63.65C130.41,-62.78 139.02,-61.87 147.67,-60.96"/>
<polygon fill="midnightblue" stroke="midnightblue" points="148.26,-64.41 157.84,-59.88 147.53,-57.45 148.26,-64.41"/>
</g>
<!-- Node8 -->
<g id="node8" class="node">
<title>Node8</title>
<g id="a_node8"><a xlink:href="namespacegrid__utilities.html#a67001ff9bbcad707aacf17f90a748d90" target="_top" xlink:title="Trim a grid, removing any overlap between the different regions.">
<polygon fill="white" stroke="black" points="168.5,-0.5 168.5,-21.5 317.5,-21.5 317.5,-0.5 168.5,-0.5"/>
<text text-anchor="middle" x="243" y="-7.9" font-family="Ubuntu Mono" font-size="12.00">grid_utilities::trim_grid</text>
</a>
</g>
</g>
<!-- Node1&#45;&gt;Node8 -->
<g id="edge7" class="edge">
<title>Node1&#45;&gt;Node8</title>
<path fill="none" stroke="midnightblue" d="M85.3,-59.37C104.52,-50.88 132.64,-39.12 158,-31 165.71,-28.53 173.91,-26.21 182.05,-24.09"/>
<polygon fill="midnightblue" stroke="midnightblue" points="183.07,-27.45 191.91,-21.61 181.36,-20.66 183.07,-27.45"/>
</g>
<!-- Node2&#45;&gt;Node3 -->
<g id="edge2" class="edge">
<title>Node2&#45;&gt;Node3</title>
<path fill="none" stroke="midnightblue" d="M302.12,-122.4C318.53,-120.53 336.53,-118.49 353.4,-116.57"/>
<polygon fill="midnightblue" stroke="midnightblue" points="354.2,-120 363.74,-115.39 353.41,-113.04 354.2,-120"/>
</g>
<!-- Node4 -->
<g id="node4" class="node">
<title>Node4</title>
<g id="a_node4"><a xlink:href="namespacemessages.html#a61fd0b51b5e37d58fdc993c01792a3fd" target="_top" xlink:title="Returns the time.">
<polygon fill="white" stroke="black" points="535.5,-138.5 535.5,-159.5 675.5,-159.5 675.5,-138.5 535.5,-138.5"/>
<text text-anchor="middle" x="605.5" y="-145.9" font-family="Ubuntu Mono" font-size="12.00">messages::get_clock</text>
</a>
</g>
</g>
<!-- Node3&#45;&gt;Node4 -->
<g id="edge3" class="edge">
<title>Node3&#45;&gt;Node4</title>
<path fill="none" stroke="midnightblue" d="M469.95,-119.51C493.43,-124.66 521.9,-130.9 546.59,-136.31"/>
<polygon fill="midnightblue" stroke="midnightblue" points="546.04,-139.77 556.55,-138.49 547.54,-132.93 546.04,-139.77"/>
</g>
<!-- Node5 -->
<g id="node5" class="node">
<title>Node5</title>
<g id="a_node5"><a xlink:href="namespacemessages.html#a82dddaab795b78b3d39e1ff1aab2f665" target="_top" xlink:title="Returns the memory usage in kilobytes.">
<polygon fill="white" stroke="black" points="514,-98.5 514,-119.5 697,-119.5 697,-98.5 514,-98.5"/>
<text text-anchor="middle" x="605.5" y="-105.9" font-family="Ubuntu Mono" font-size="12.00">messages::get_mem_usage</text>
</a>
</g>
</g>
<!-- Node3&#45;&gt;Node5 -->
<g id="edge4" class="edge">
<title>Node3&#45;&gt;Node5</title>
<path fill="none" stroke="midnightblue" d="M478.25,-109C486.37,-109 494.94,-109 503.63,-109"/>
<polygon fill="midnightblue" stroke="midnightblue" points="503.86,-112.5 513.86,-109 503.86,-105.5 503.86,-112.5"/>
</g>
<!-- Node6 -->
<g id="node6" class="node">
<title>Node6</title>
<g id="a_node6"><a xlink:href="namespacestr__utilities.html#a0b97e51770725a3e98ed393d26681414" target="_top" xlink:title="Convert an integer to string.">
<polygon fill="white" stroke="black" points="548.5,-58.5 548.5,-79.5 662.5,-79.5 662.5,-58.5 548.5,-58.5"/>
<text text-anchor="middle" x="605.5" y="-65.9" font-family="Ubuntu Mono" font-size="12.00">str_utilities::i2str</text>
</a>
</g>
</g>
<!-- Node3&#45;&gt;Node6 -->
<g id="edge5" class="edge">
<title>Node3&#45;&gt;Node6</title>
<path fill="none" stroke="midnightblue" d="M469.95,-98.49C493.43,-93.34 521.9,-87.1 546.59,-81.69"/>
<polygon fill="midnightblue" stroke="midnightblue" points="547.54,-85.07 556.55,-79.51 546.04,-78.23 547.54,-85.07"/>
</g>
</g>
</svg>
