<?xml version="1.0" encoding="UTF-8" standalone="no"?>
<!DOCTYPE svg PUBLIC "-//W3C//DTD SVG 1.1//EN"
 "http://www.w3.org/Graphics/SVG/1.1/DTD/svg11.dtd">
<!-- Generated by graphviz version 2.38.0 (20140413.2041)
 -->
<!-- Title: driver_x::run_driver_x_1 Pages: 1 -->
<svg width="1237pt" height="402pt"
 viewBox="0.00 0.00 1237.00 402.16" xmlns="http://www.w3.org/2000/svg" xmlns:xlink="http://www.w3.org/1999/xlink">
<g id="graph0" class="graph" transform="scale(1 1) rotate(0) translate(4 398.16)">
<title>driver_x::run_driver_x_1</title>
<polygon fill="white" stroke="none" points="-4,4 -4,-398.16 1233,-398.16 1233,4 -4,4"/>
<!-- Node123 -->
<g id="node1" class="node"><title>Node123</title>
<polygon fill="#bfbfbf" stroke="black" points="0,-332.5 0,-353.5 161,-353.5 161,-332.5 0,-332.5"/>
<text text-anchor="middle" x="80.5" y="-339.9" font-family="Ubuntu Mono" font-size="12.00">driver_x::run_driver_x_1</text>
</g>
<!-- Node124 -->
<g id="node2" class="node"><title>Node124</title>
<g id="a_node2"><a xlink:href="namespacemessages.html#aa4a8d01563e92558e8a0875b075ec54c" target="_top" xlink:title="messages::writo">
<polygon fill="white" stroke="black" points="764,-196.5 764,-217.5 871,-217.5 871,-196.5 764,-196.5"/>
<text text-anchor="middle" x="817.5" y="-203.9" font-family="Ubuntu Mono" font-size="12.00">messages::writo</text>
</a>
</g>
</g>
<!-- Node123&#45;&gt;Node124 -->
<g id="edge1" class="edge"><title>Node123&#45;&gt;Node124</title>
<path fill="none" stroke="midnightblue" d="M120.129,-353.559C225.165,-380.012 521.898,-439.545 728,-331 770.309,-308.718 796.999,-256.061 809.029,-227.047"/>
<polygon fill="midnightblue" stroke="midnightblue" points="812.371,-228.113 812.799,-217.527 805.863,-225.535 812.371,-228.113"/>
</g>
<!-- Node128 -->
<g id="node6" class="node"><title>Node128</title>
<g id="a_node6"><a xlink:href="namespacestr__utilities.html#a0b97e51770725a3e98ed393d26681414" target="_top" xlink:title="str_utilities::i2str">
<polygon fill="white" stroke="black" points="582,-274.5 582,-295.5 719,-295.5 719,-274.5 582,-274.5"/>
<text text-anchor="middle" x="650.5" y="-281.9" font-family="Ubuntu Mono" font-size="12.00">str_utilities::i2str</text>
</a>
</g>
</g>
<!-- Node123&#45;&gt;Node128 -->
<g id="edge5" class="edge"><title>Node123&#45;&gt;Node128</title>
<path fill="none" stroke="midnightblue" d="M161.076,-334.874C269.921,-323.76 463.988,-303.943 571.828,-292.931"/>
<polygon fill="midnightblue" stroke="midnightblue" points="572.397,-296.391 581.99,-291.894 571.686,-289.428 572.397,-296.391"/>
</g>
<!-- Node129 -->
<g id="node7" class="node"><title>Node129</title>
<g id="a_node7"><a xlink:href="driver__X_8f90.html#ae1cbf887791dfb7f7ccf42abb9a8aed6" target="_top" xlink:title="plot_info_for_vmec\l_hel_comparison">
<polygon fill="white" stroke="black" points="197,-210 197,-244 322,-244 322,-210 197,-210"/>
<text text-anchor="start" x="205" y="-230.4" font-family="Ubuntu Mono" font-size="12.00">plot_info_for_vmec</text>
<text text-anchor="middle" x="259.5" y="-217.4" font-family="Ubuntu Mono" font-size="12.00">_hel_comparison</text>
</a>
</g>
</g>
<!-- Node123&#45;&gt;Node129 -->
<g id="edge6" class="edge"><title>Node123&#45;&gt;Node129</title>
<path fill="none" stroke="midnightblue" d="M97.8345,-332.295C126.278,-313.654 185.494,-274.846 223.547,-249.907"/>
<polygon fill="midnightblue" stroke="midnightblue" points="225.819,-252.603 232.264,-244.194 221.982,-246.748 225.819,-252.603"/>
</g>
<!-- Node125 -->
<g id="node3" class="node"><title>Node125</title>
<g id="a_node3"><a xlink:href="namespacemessages.html#a82dddaab795b78b3d39e1ff1aab2f665" target="_top" xlink:title="messages::get_mem_usage">
<polygon fill="white" stroke="black" points="907,-216.5 907,-237.5 1062,-237.5 1062,-216.5 907,-216.5"/>
<text text-anchor="middle" x="984.5" y="-223.9" font-family="Ubuntu Mono" font-size="12.00">messages::get_mem_usage</text>
</a>
</g>
</g>
<!-- Node124&#45;&gt;Node125 -->
<g id="edge2" class="edge"><title>Node124&#45;&gt;Node125</title>
<path fill="none" stroke="midnightblue" d="M871.161,-213.383C879.452,-214.388 888.208,-215.449 897.025,-216.518"/>
<polygon fill="midnightblue" stroke="midnightblue" points="896.635,-219.996 906.984,-217.725 897.478,-213.047 896.635,-219.996"/>
</g>
<!-- Node126 -->
<g id="node4" class="node"><title>Node126</title>
<g id="a_node4"><a xlink:href="messages_8f90.html#a6d15f28783f95a7a4b2a44185619792f" target="_top" xlink:title="format_str">
<polygon fill="white" stroke="black" points="946,-176.5 946,-197.5 1023,-197.5 1023,-176.5 946,-176.5"/>
<text text-anchor="middle" x="984.5" y="-183.9" font-family="Ubuntu Mono" font-size="12.00">format_str</text>
</a>
</g>
</g>
<!-- Node124&#45;&gt;Node126 -->
<g id="edge3" class="edge"><title>Node124&#45;&gt;Node126</title>
<path fill="none" stroke="midnightblue" d="M871.161,-200.617C891.977,-198.094 915.722,-195.216 936.002,-192.757"/>
<polygon fill="midnightblue" stroke="midnightblue" points="936.448,-196.229 945.954,-191.551 935.606,-189.28 936.448,-196.229"/>
</g>
<!-- Node127 -->
<g id="node5" class="node"><title>Node127</title>
<g id="a_node5"><a xlink:href="namespacemessages.html#a61fd0b51b5e37d58fdc993c01792a3fd" target="_top" xlink:title="messages::get_clock">
<polygon fill="white" stroke="black" points="1098,-176.5 1098,-197.5 1229,-197.5 1229,-176.5 1098,-176.5"/>
<text text-anchor="middle" x="1163.5" y="-183.9" font-family="Ubuntu Mono" font-size="12.00">messages::get_clock</text>
</a>
</g>
</g>
<!-- Node126&#45;&gt;Node127 -->
<g id="edge4" class="edge"><title>Node126&#45;&gt;Node127</title>
<path fill="none" stroke="midnightblue" d="M1023.04,-187C1041.87,-187 1065.37,-187 1087.68,-187"/>
<polygon fill="midnightblue" stroke="midnightblue" points="1087.83,-190.5 1097.83,-187 1087.83,-183.5 1087.83,-190.5"/>
</g>
<!-- Node129&#45;&gt;Node124 -->
<g id="edge24" class="edge"><title>Node129&#45;&gt;Node124</title>
<path fill="none" stroke="midnightblue" d="M292.114,-244.075C369.823,-283.601 574.977,-372.996 728,-305 764.089,-288.964 791.682,-250.134 805.872,-226.448"/>
<polygon fill="midnightblue" stroke="midnightblue" points="808.999,-228.031 810.961,-217.62 802.935,-224.536 808.999,-228.031"/>
</g>
<!-- Node130 -->
<g id="node8" class="node"><title>Node130</title>
<g id="a_node8"><a xlink:href="namespaceinput__utilities.html#a71bd36f063d55ab62c7a37864aef1185" target="_top" xlink:title="input_utilities::pause_prog">
<polygon fill="white" stroke="black" points="358,-166.5 358,-187.5 537,-187.5 537,-166.5 358,-166.5"/>
<text text-anchor="middle" x="447.5" y="-173.9" font-family="Ubuntu Mono" font-size="12.00">input_utilities::pause_prog</text>
</a>
</g>
</g>
<!-- Node129&#45;&gt;Node130 -->
<g id="edge7" class="edge"><title>Node129&#45;&gt;Node130</title>
<path fill="none" stroke="midnightblue" d="M322.177,-210.42C346.588,-203.858 374.259,-196.42 397.288,-190.229"/>
<polygon fill="midnightblue" stroke="midnightblue" points="398.432,-193.546 407.181,-187.57 396.615,-186.786 398.432,-193.546"/>
</g>
<!-- Node134 -->
<g id="node12" class="node"><title>Node134</title>
<g id="a_node12"><a xlink:href="namespaceinput__utilities.html#a03e09af96ba6f7e187ea4a1d9b743148" target="_top" xlink:title="input_utilities::get_int">
<polygon fill="white" stroke="black" points="367,-216.5 367,-237.5 528,-237.5 528,-216.5 367,-216.5"/>
<text text-anchor="middle" x="447.5" y="-223.9" font-family="Ubuntu Mono" font-size="12.00">input_utilities::get_int</text>
</a>
</g>
</g>
<!-- Node129&#45;&gt;Node134 -->
<g id="edge14" class="edge"><title>Node129&#45;&gt;Node134</title>
<path fill="none" stroke="midnightblue" d="M322.177,-227C333.219,-227 344.927,-227 356.571,-227"/>
<polygon fill="midnightblue" stroke="midnightblue" points="356.769,-230.5 366.769,-227 356.769,-223.5 356.769,-230.5"/>
</g>
<!-- Node135 -->
<g id="node13" class="node"><title>Node135</title>
<g id="a_node13"><a xlink:href="namespaceinput__utilities.html#ad9ce824c30b32041ab70f3fb191f06db" target="_top" xlink:title="input_utilities::get_log">
<polygon fill="white" stroke="black" points="367,-126.5 367,-147.5 528,-147.5 528,-126.5 367,-126.5"/>
<text text-anchor="middle" x="447.5" y="-133.9" font-family="Ubuntu Mono" font-size="12.00">input_utilities::get_log</text>
</a>
</g>
</g>
<!-- Node129&#45;&gt;Node135 -->
<g id="edge19" class="edge"><title>Node129&#45;&gt;Node135</title>
<path fill="none" stroke="midnightblue" d="M279.579,-209.709C298.25,-193.703 328.161,-170.414 358,-157 363.43,-154.559 369.186,-152.403 375.053,-150.5"/>
<polygon fill="midnightblue" stroke="midnightblue" points="376.413,-153.747 384.995,-147.533 374.411,-147.04 376.413,-153.747"/>
</g>
<!-- Node130&#45;&gt;Node124 -->
<g id="edge13" class="edge"><title>Node130&#45;&gt;Node124</title>
<path fill="none" stroke="midnightblue" d="M497.291,-166.421C510.229,-163.494 524.169,-160.23 537,-157 553.103,-152.946 556.546,-149.243 573,-147 641.258,-137.696 662.145,-126.781 728,-147 754.898,-155.258 780.97,-174.772 797.764,-189.318"/>
<polygon fill="midnightblue" stroke="midnightblue" points="795.872,-192.321 805.656,-196.385 800.541,-187.106 795.872,-192.321"/>
</g>
<!-- Node131 -->
<g id="node9" class="node"><title>Node131</title>
<g id="a_node9"><a xlink:href="namespacempi__utilities.html#a790ea24d32dd0e249541c1e57cd85536" target="_top" xlink:title="mpi_utilities::wait_mpi">
<polygon fill="white" stroke="black" points="573,-78.5 573,-99.5 728,-99.5 728,-78.5 573,-78.5"/>
<text text-anchor="middle" x="650.5" y="-85.9" font-family="Ubuntu Mono" font-size="12.00">mpi_utilities::wait_mpi</text>
</a>
</g>
</g>
<!-- Node130&#45;&gt;Node131 -->
<g id="edge8" class="edge"><title>Node130&#45;&gt;Node131</title>
<path fill="none" stroke="midnightblue" d="M516.51,-166.487C523.699,-163.972 530.681,-160.857 537,-157 558.275,-144.014 552.356,-127.967 573,-114 579.206,-109.801 586.169,-106.265 593.299,-103.297"/>
<polygon fill="midnightblue" stroke="midnightblue" points="594.959,-106.411 603.07,-99.5942 592.479,-99.8651 594.959,-106.411"/>
</g>
<!-- Node132 -->
<g id="node10" class="node"><title>Node132</title>
<g id="a_node10"><a xlink:href="namespacemessages.html#a2a1154de25763d4894275ff4307b6862" target="_top" xlink:title="messages::stop_time">
<polygon fill="white" stroke="black" points="585,-156.5 585,-177.5 716,-177.5 716,-156.5 585,-156.5"/>
<text text-anchor="middle" x="650.5" y="-163.9" font-family="Ubuntu Mono" font-size="12.00">messages::stop_time</text>
</a>
</g>
</g>
<!-- Node130&#45;&gt;Node132 -->
<g id="edge9" class="edge"><title>Node130&#45;&gt;Node132</title>
<path fill="none" stroke="midnightblue" d="M537.247,-172.585C549.735,-171.963 562.469,-171.33 574.663,-170.723"/>
<polygon fill="midnightblue" stroke="midnightblue" points="574.948,-174.213 584.761,-170.221 574.6,-167.222 574.948,-174.213"/>
</g>
<!-- Node133 -->
<g id="node11" class="node"><title>Node133</title>
<g id="a_node11"><a xlink:href="namespacemessages.html#ad997c3dff64c512e0070ce8816c28e7f" target="_top" xlink:title="messages::start_time">
<polygon fill="white" stroke="black" points="582,-196.5 582,-217.5 719,-217.5 719,-196.5 582,-196.5"/>
<text text-anchor="middle" x="650.5" y="-203.9" font-family="Ubuntu Mono" font-size="12.00">messages::start_time</text>
</a>
</g>
</g>
<!-- Node130&#45;&gt;Node133 -->
<g id="edge11" class="edge"><title>Node130&#45;&gt;Node133</title>
<path fill="none" stroke="midnightblue" d="M519.082,-187.535C536.103,-190.075 554.383,-192.803 571.713,-195.39"/>
<polygon fill="midnightblue" stroke="midnightblue" points="571.383,-198.879 581.79,-196.894 572.416,-191.956 571.383,-198.879"/>
</g>
<!-- Node132&#45;&gt;Node124 -->
<g id="edge10" class="edge"><title>Node132&#45;&gt;Node124</title>
<path fill="none" stroke="midnightblue" d="M694.852,-177.51C715.8,-182.588 741.133,-188.729 763.246,-194.09"/>
<polygon fill="midnightblue" stroke="midnightblue" points="762.608,-197.537 773.152,-196.491 764.258,-190.734 762.608,-197.537"/>
</g>
<!-- Node133&#45;&gt;Node124 -->
<g id="edge12" class="edge"><title>Node133&#45;&gt;Node124</title>
<path fill="none" stroke="midnightblue" d="M719.088,-207C730.535,-207 742.379,-207 753.697,-207"/>
<polygon fill="midnightblue" stroke="midnightblue" points="753.917,-210.5 763.917,-207 753.917,-203.5 753.917,-210.5"/>
</g>
<!-- Node134&#45;&gt;Node124 -->
<g id="edge18" class="edge"><title>Node134&#45;&gt;Node124</title>
<path fill="none" stroke="midnightblue" d="M528.275,-231.687C584.327,-233.837 660.967,-234.48 728,-227 741.348,-225.511 755.622,-222.795 768.725,-219.834"/>
<polygon fill="midnightblue" stroke="midnightblue" points="769.549,-223.236 778.481,-217.539 767.946,-216.422 769.549,-223.236"/>
</g>
<!-- Node134&#45;&gt;Node128 -->
<g id="edge15" class="edge"><title>Node134&#45;&gt;Node128</title>
<path fill="none" stroke="midnightblue" d="M484.9,-237.503C518.094,-247.082 567.299,-261.28 603.264,-271.658"/>
<polygon fill="midnightblue" stroke="midnightblue" points="602.454,-275.067 613.032,-274.477 604.395,-268.342 602.454,-275.067"/>
</g>
<!-- Node134&#45;&gt;Node132 -->
<g id="edge16" class="edge"><title>Node134&#45;&gt;Node132</title>
<path fill="none" stroke="midnightblue" d="M479.564,-216.494C504.662,-208.133 540.957,-196.328 573,-187 580.871,-184.709 589.233,-182.398 597.428,-180.201"/>
<polygon fill="midnightblue" stroke="midnightblue" points="598.527,-183.531 607.298,-177.588 596.735,-176.764 598.527,-183.531"/>
</g>
<!-- Node134&#45;&gt;Node133 -->
<g id="edge17" class="edge"><title>Node134&#45;&gt;Node133</title>
<path fill="none" stroke="midnightblue" d="M528.229,-219.067C542.517,-217.645 557.391,-216.165 571.626,-214.749"/>
<polygon fill="midnightblue" stroke="midnightblue" points="572.257,-218.203 581.861,-213.73 571.564,-211.238 572.257,-218.203"/>
</g>
<!-- Node135&#45;&gt;Node124 -->
<g id="edge23" class="edge"><title>Node135&#45;&gt;Node124</title>
<path fill="none" stroke="midnightblue" d="M462.444,-126.285C484.475,-110.106 529.331,-80.1485 573,-69 639.748,-51.9596 667.554,-35.956 728,-69 774.221,-94.2674 799.867,-155.129 810.529,-186.912"/>
<polygon fill="midnightblue" stroke="midnightblue" points="807.207,-188.017 813.578,-196.482 813.877,-185.891 807.207,-188.017"/>
</g>
<!-- Node135&#45;&gt;Node132 -->
<g id="edge20" class="edge"><title>Node135&#45;&gt;Node132</title>
<path fill="none" stroke="midnightblue" d="M519.082,-147.535C537.121,-150.227 556.575,-153.131 574.812,-155.853"/>
<polygon fill="midnightblue" stroke="midnightblue" points="574.395,-159.329 584.802,-157.344 575.428,-152.406 574.395,-159.329"/>
</g>
<!-- Node135&#45;&gt;Node133 -->
<g id="edge21" class="edge"><title>Node135&#45;&gt;Node133</title>
<path fill="none" stroke="midnightblue" d="M512.133,-147.536C520.716,-150.055 529.231,-153.165 537,-157 555.676,-166.218 554.481,-177.471 573,-187 577.349,-189.238 581.968,-191.24 586.699,-193.029"/>
<polygon fill="midnightblue" stroke="midnightblue" points="585.922,-196.462 596.516,-196.408 588.2,-189.844 585.922,-196.462"/>
</g>
<!-- Node136 -->
<g id="node14" class="node"><title>Node136</title>
<g id="a_node14"><a xlink:href="namespacestr__utilities.html#a219964a283968cc6a968db0197d2187e" target="_top" xlink:title="str_utilities::strh2l">
<polygon fill="white" stroke="black" points="579,-0.5 579,-21.5 722,-21.5 722,-0.5 579,-0.5"/>
<text text-anchor="middle" x="650.5" y="-7.9" font-family="Ubuntu Mono" font-size="12.00">str_utilities::strh2l</text>
</a>
</g>
</g>
<!-- Node135&#45;&gt;Node136 -->
<g id="edge22" class="edge"><title>Node135&#45;&gt;Node136</title>
<path fill="none" stroke="midnightblue" d="M458.838,-126.328C479.019,-106.051 525.826,-61.6924 573,-36 580.846,-31.7271 589.544,-28.0291 598.18,-24.8854"/>
<polygon fill="midnightblue" stroke="midnightblue" points="599.529,-28.1229 607.855,-21.5705 597.26,-21.5008 599.529,-28.1229"/>
</g>
</g>
</svg>
