<?xml version="1.0" encoding="UTF-8" standalone="no"?>
<!DOCTYPE svg PUBLIC "-//W3C//DTD SVG 1.1//EN"
 "http://www.w3.org/Graphics/SVG/1.1/DTD/svg11.dtd">
<!-- Generated by graphviz version 2.38.0 (20140413.2041)
 -->
<!-- Title: messages::stop_time Pages: 1 -->
<svg width="1279pt" height="1158pt"
 viewBox="0.00 0.00 1279.00 1157.95" xmlns="http://www.w3.org/2000/svg" xmlns:xlink="http://www.w3.org/1999/xlink">
<g id="graph0" class="graph" transform="scale(1 1) rotate(0) translate(4 1153.95)">
<title>messages::stop_time</title>
<polygon fill="white" stroke="none" points="-4,4 -4,-1153.95 1275,-1153.95 1275,4 -4,4"/>
<!-- Node624 -->
<g id="node1" class="node"><title>Node624</title>
<polygon fill="#bfbfbf" stroke="black" points="0,-802.481 0,-823.481 131,-823.481 131,-802.481 0,-802.481"/>
<text text-anchor="middle" x="65.5" y="-809.881" font-family="Ubuntu Mono" font-size="12.00">messages::stop_time</text>
</g>
<!-- Node625 -->
<g id="node2" class="node"><title>Node625</title>
<g id="a_node2"><a xlink:href="namespaceinput__utilities.html#ad9ce824c30b32041ab70f3fb191f06db" target="_top" xlink:title="Queries for a logical value yes or no, where the default answer is also to be provided. ">
<polygon fill="white" stroke="black" points="176,-628.481 176,-649.481 337,-649.481 337,-628.481 176,-628.481"/>
<text text-anchor="middle" x="256.5" y="-635.881" font-family="Ubuntu Mono" font-size="12.00">input_utilities::get_log</text>
</a>
</g>
</g>
<!-- Node624&#45;&gt;Node625 -->
<g id="edge1" class="edge"><title>Node624&#45;&gt;Node625</title>
<path fill="none" stroke="midnightblue" d="M85.556,-795.437C124.414,-759.663 211.815,-679.199 243.63,-649.909"/>
<polygon fill="midnightblue" stroke="midnightblue" points="83.0247,-793.01 78.0383,-802.358 87.7659,-798.16 83.0247,-793.01"/>
</g>
<!-- Node627 -->
<g id="node4" class="node"><title>Node627</title>
<g id="a_node4"><a xlink:href="PB3D_8f90.html#afaee01f014ab3398eecac996b2795fd2" target="_top" xlink:title="Peeling Ballooning in 3D. ">
<polygon fill="white" stroke="black" points="1230,-607.481 1230,-628.481 1271,-628.481 1271,-607.481 1230,-607.481"/>
<text text-anchor="middle" x="1250.5" y="-614.881" font-family="Ubuntu Mono" font-size="12.00">pb3d</text>
</a>
</g>
</g>
<!-- Node624&#45;&gt;Node627 -->
<g id="edge72" class="edge"><title>Node624&#45;&gt;Node627</title>
<path fill="none" stroke="midnightblue" d="M66.8028,-833.84C68.8147,-887.693 82.2484,-1031.92 167,-1099.98 271.879,-1184.2 332.989,-1135.98 467.5,-1135.98 467.5,-1135.98 467.5,-1135.98 893.5,-1135.98 1036.66,-1135.98 1108.88,-1135.09 1194,-1019.98 1241.86,-955.261 1248.5,-685.805 1249.37,-628.66"/>
<polygon fill="midnightblue" stroke="midnightblue" points="70.2925,-833.412 66.5207,-823.511 63.2951,-833.603 70.2925,-833.412"/>
</g>
<!-- Node634 -->
<g id="node11" class="node"><title>Node634</title>
<g id="a_node11"><a xlink:href="POST_8f90.html#ac289b64ac4671fea0b4f2298ba1188a1" target="_top" xlink:title="Peeling Ballooning in 3D: postprocessing. ">
<polygon fill="white" stroke="black" points="1087,-918.481 1087,-939.481 1128,-939.481 1128,-918.481 1087,-918.481"/>
<text text-anchor="middle" x="1107.5" y="-925.881" font-family="Ubuntu Mono" font-size="12.00">post</text>
</a>
</g>
</g>
<!-- Node624&#45;&gt;Node634 -->
<g id="edge73" class="edge"><title>Node624&#45;&gt;Node634</title>
<path fill="none" stroke="midnightblue" d="M82.9659,-831.005C126.383,-877.017 249.768,-998.202 382,-1040.98 655.244,-1129.38 741.671,-1011.7 1021,-944.981 1043.33,-939.648 1069.28,-935.007 1086.69,-932.117"/>
<polygon fill="midnightblue" stroke="midnightblue" points="85.4057,-828.489 76.0256,-823.563 80.2864,-833.263 85.4057,-828.489"/>
</g>
<!-- Node648 -->
<g id="node25" class="node"><title>Node648</title>
<g id="a_node25"><a xlink:href="namespaceinput__utilities.html#a41fc0c806e12bc722771210cfa1edbd3" target="_top" xlink:title="Queries for user input for a real value, where allowable range can be provided as well...">
<polygon fill="white" stroke="black" points="173,-569.481 173,-590.481 340,-590.481 340,-569.481 173,-569.481"/>
<text text-anchor="middle" x="256.5" y="-576.881" font-family="Ubuntu Mono" font-size="12.00">input_utilities::get_real</text>
</a>
</g>
</g>
<!-- Node624&#45;&gt;Node648 -->
<g id="edge37" class="edge"><title>Node624&#45;&gt;Node648</title>
<path fill="none" stroke="midnightblue" d="M72.0914,-792.541C83.6525,-753.794 113.669,-669.059 167,-618.981 180.954,-605.879 200.03,-596.712 216.899,-590.573"/>
<polygon fill="midnightblue" stroke="midnightblue" points="68.7187,-791.606 69.3159,-802.184 75.4455,-793.542 68.7187,-791.606"/>
</g>
<!-- Node649 -->
<g id="node26" class="node"><title>Node649</title>
<g id="a_node26"><a xlink:href="namespaceinput__utilities.html#a03e09af96ba6f7e187ea4a1d9b743148" target="_top" xlink:title="Queries for user input for an integer value, where allowable range can be provided as well...">
<polygon fill="white" stroke="black" points="176,-802.481 176,-823.481 337,-823.481 337,-802.481 176,-802.481"/>
<text text-anchor="middle" x="256.5" y="-809.881" font-family="Ubuntu Mono" font-size="12.00">input_utilities::get_int</text>
</a>
</g>
</g>
<!-- Node624&#45;&gt;Node649 -->
<g id="edge44" class="edge"><title>Node624&#45;&gt;Node649</title>
<path fill="none" stroke="midnightblue" d="M141.317,-812.981C152.678,-812.981 164.437,-812.981 175.896,-812.981"/>
<polygon fill="midnightblue" stroke="midnightblue" points="141.014,-809.481 131.014,-812.981 141.014,-816.481 141.014,-809.481"/>
</g>
<!-- Node651 -->
<g id="node28" class="node"><title>Node651</title>
<g id="a_node28"><a xlink:href="namespaceinput__utilities.html#a71bd36f063d55ab62c7a37864aef1185" target="_top" xlink:title="Pauses the running of the program. ">
<polygon fill="white" stroke="black" points="167,-267.481 167,-288.481 346,-288.481 346,-267.481 167,-267.481"/>
<text text-anchor="middle" x="256.5" y="-274.881" font-family="Ubuntu Mono" font-size="12.00">input_utilities::pause_prog</text>
</a>
</g>
</g>
<!-- Node624&#45;&gt;Node651 -->
<g id="edge55" class="edge"><title>Node624&#45;&gt;Node651</title>
<path fill="none" stroke="midnightblue" d="M73.6907,-792.626C104.946,-704.152 228.466,-354.506 251.716,-288.693"/>
<polygon fill="midnightblue" stroke="midnightblue" points="70.3063,-791.699 70.2753,-802.294 76.9065,-794.031 70.3063,-791.699"/>
</g>
<!-- Node655 -->
<g id="node32" class="node"><title>Node655</title>
<g id="a_node32"><a xlink:href="namespacemessages.html#a34da9df28502ccd63e62674d51fe8de8" target="_top" xlink:title="Display the time that has passed between t1 and t2. ">
<polygon fill="white" stroke="black" points="821,-1086.48 821,-1107.48 964,-1107.48 964,-1086.48 821,-1086.48"/>
<text text-anchor="middle" x="892.5" y="-1093.88" font-family="Ubuntu Mono" font-size="12.00">messages::passed_time</text>
</a>
</g>
</g>
<!-- Node624&#45;&gt;Node655 -->
<g id="edge69" class="edge"><title>Node624&#45;&gt;Node655</title>
<path fill="none" stroke="midnightblue" d="M67.2556,-833.764C70.3616,-884.859 86.2117,-1016.61 167,-1073.98 219.361,-1111.16 648.849,-1103.67 820.759,-1099.11"/>
<polygon fill="midnightblue" stroke="midnightblue" points="70.7435,-833.434 66.7469,-823.622 63.7523,-833.785 70.7435,-833.434"/>
</g>
<!-- Node626 -->
<g id="node3" class="node"><title>Node626</title>
<g id="a_node3"><a xlink:href="namespacedriver__eq.html#adc9d5dff288fa512e5ef885627d940cc" target="_top" xlink:title="Main driver of PB3D equilibrium part. ">
<polygon fill="white" stroke="black" points="812,-607.481 812,-628.481 973,-628.481 973,-607.481 812,-607.481"/>
<text text-anchor="middle" x="892.5" y="-614.881" font-family="Ubuntu Mono" font-size="12.00">driver_eq::run_driver_eq</text>
</a>
</g>
</g>
<!-- Node625&#45;&gt;Node626 -->
<g id="edge2" class="edge"><title>Node625&#45;&gt;Node626</title>
<path fill="none" stroke="midnightblue" d="M347.38,-636.004C471.427,-631.895 693.177,-624.55 811.673,-620.625"/>
<polygon fill="midnightblue" stroke="midnightblue" points="347.033,-632.513 337.155,-636.343 347.265,-639.509 347.033,-632.513"/>
</g>
<!-- Node628 -->
<g id="node5" class="node"><title>Node628</title>
<g id="a_node5"><a xlink:href="namespacedriver__x.html#a454779cefa6da3714d32eedcec0ef7de" target="_top" xlink:title="Part 1 of driver_x: Vectorial jobs. ">
<polygon fill="white" stroke="black" points="388,-476.481 388,-497.481 549,-497.481 549,-476.481 388,-476.481"/>
<text text-anchor="middle" x="468.5" y="-483.881" font-family="Ubuntu Mono" font-size="12.00">driver_x::run_driver_x_1</text>
</a>
</g>
</g>
<!-- Node625&#45;&gt;Node628 -->
<g id="edge4" class="edge"><title>Node625&#45;&gt;Node628</title>
<path fill="none" stroke="midnightblue" d="M307.997,-624.713C321.72,-618.86 335.634,-610.832 346,-599.981 376.616,-567.932 348.551,-536.06 382,-506.981 386.372,-503.18 391.33,-500.067 396.603,-497.522"/>
<polygon fill="midnightblue" stroke="midnightblue" points="306.595,-621.504 298.574,-628.426 309.161,-628.017 306.595,-621.504"/>
</g>
<!-- Node630 -->
<g id="node7" class="node"><title>Node630</title>
<g id="a_node7"><a xlink:href="interfaceeq__ops_1_1calc__eq.html#ae2f56ab19ce5c33e863f32e1c9263604" target="_top" xlink:title="metric version ">
<polygon fill="white" stroke="black" points="591,-375.481 591,-396.481 764,-396.481 764,-375.481 591,-375.481"/>
<text text-anchor="middle" x="677.5" y="-382.881" font-family="Ubuntu Mono" font-size="12.00">eq_ops::calc_eq::calc_eq_2</text>
</a>
</g>
</g>
<!-- Node625&#45;&gt;Node630 -->
<g id="edge7" class="edge"><title>Node625&#45;&gt;Node630</title>
<path fill="none" stroke="midnightblue" d="M311.733,-624.554C324.58,-618.802 337.114,-610.866 346,-599.981 393.741,-541.501 327.249,-485.957 382,-433.981 411.399,-406.072 514.914,-394.348 590.94,-389.45"/>
<polygon fill="midnightblue" stroke="midnightblue" points="310.311,-621.353 302.37,-628.367 312.952,-627.836 310.311,-621.353"/>
</g>
<!-- Node631 -->
<g id="node8" class="node"><title>Node631</title>
<g id="a_node8"><a xlink:href="namespaceeq__ops.html#a9addef683b3d4a8c587510e4c994ec61" target="_top" xlink:title="Creates a VMEC input file. ">
<polygon fill="white" stroke="black" points="403,-346.981 403,-380.981 534,-380.981 534,-346.981 403,-346.981"/>
<text text-anchor="start" x="411" y="-367.381" font-family="Ubuntu Mono" font-size="12.00">eq_ops::create_vmec</text>
<text text-anchor="middle" x="468.5" y="-354.381" font-family="Ubuntu Mono" font-size="12.00">_input</text>
</a>
</g>
</g>
<!-- Node625&#45;&gt;Node631 -->
<g id="edge8" class="edge"><title>Node625&#45;&gt;Node631</title>
<path fill="none" stroke="midnightblue" d="M312.393,-624.619C325.106,-618.878 337.411,-610.93 346,-599.981 402.825,-527.543 323.135,-466.772 382,-395.981 387.675,-389.156 394.958,-383.786 402.875,-379.561"/>
<polygon fill="midnightblue" stroke="midnightblue" points="311.038,-621.392 303.111,-628.422 313.691,-627.87 311.038,-621.392"/>
</g>
<!-- Node632 -->
<g id="node9" class="node"><title>Node632</title>
<g id="a_node9"><a xlink:href="namespaceeq__ops.html#ad173efd111cb85c11bc2bc78a7555096" target="_top" xlink:title="Plots the curvature. ">
<polygon fill="white" stroke="black" points="615,-918.481 615,-939.481 740,-939.481 740,-918.481 615,-918.481"/>
<text text-anchor="middle" x="677.5" y="-925.881" font-family="Ubuntu Mono" font-size="12.00">eq_ops::kappa_plot</text>
</a>
</g>
</g>
<!-- Node625&#45;&gt;Node632 -->
<g id="edge10" class="edge"><title>Node625&#45;&gt;Node632</title>
<path fill="none" stroke="midnightblue" d="M267.929,-658.717C291.682,-703.019 350.199,-808.418 382,-832.981 451.053,-886.317 550.873,-910.607 614.723,-921.245"/>
<polygon fill="midnightblue" stroke="midnightblue" points="270.956,-656.953 263.163,-649.775 264.778,-660.246 270.956,-656.953"/>
</g>
<!-- Node635 -->
<g id="node12" class="node"><title>Node635</title>
<g id="a_node12"><a xlink:href="namespaceslepc__ops.html#a79c420987056c225931b51c8d30ece1f" target="_top" xlink:title="Solve the eigenvalue system using SLEPC. ">
<polygon fill="white" stroke="black" points="827,-421.981 827,-455.981 958,-455.981 958,-421.981 827,-421.981"/>
<text text-anchor="start" x="835" y="-442.381" font-family="Ubuntu Mono" font-size="12.00">slepc_ops::solve_ev</text>
<text text-anchor="middle" x="892.5" y="-429.381" font-family="Ubuntu Mono" font-size="12.00">_system_slepc</text>
</a>
</g>
</g>
<!-- Node625&#45;&gt;Node635 -->
<g id="edge14" class="edge"><title>Node625&#45;&gt;Node635</title>
<path fill="none" stroke="midnightblue" d="M310.619,-624.572C323.725,-618.795 336.664,-610.842 346,-599.981 385.919,-553.541 334.409,-505.519 382,-466.981 415.778,-439.628 697.189,-437.758 826.711,-438.375"/>
<polygon fill="midnightblue" stroke="midnightblue" points="309.067,-621.424 301.097,-628.404 311.68,-627.918 309.067,-621.424"/>
</g>
<!-- Node637 -->
<g id="node14" class="node"><title>Node637</title>
<g id="a_node14"><a xlink:href="namespaceslepc__ops.html#aac8202cb74cbb06013eb73f1fa0c3118" target="_top" xlink:title="Sets up the matrices &#160;and &#160;in the EV problem . ">
<polygon fill="white" stroke="black" points="606,-226.481 606,-247.481 749,-247.481 749,-226.481 606,-226.481"/>
<text text-anchor="middle" x="677.5" y="-233.881" font-family="Ubuntu Mono" font-size="12.00">slepc_ops::setup_mats</text>
</a>
</g>
</g>
<!-- Node625&#45;&gt;Node637 -->
<g id="edge17" class="edge"><title>Node625&#45;&gt;Node637</title>
<path fill="none" stroke="midnightblue" d="M313.923,-624.441C326.231,-618.732 337.962,-610.844 346,-599.981 426.66,-490.962 290.154,-396.758 382,-296.981 438.189,-235.941 538.186,-227.578 605.898,-230.005"/>
<polygon fill="midnightblue" stroke="midnightblue" points="312.33,-621.313 304.451,-628.395 315.027,-627.773 312.33,-621.313"/>
</g>
<!-- Node638 -->
<g id="node15" class="node"><title>Node638</title>
<g id="a_node15"><a xlink:href="namespacetest.html#aca21ee464c0b1f4b617177afdde110ec" target="_top" xlink:title="Performs generic tests. ">
<polygon fill="white" stroke="black" points="827,-705.481 827,-726.481 958,-726.481 958,-705.481 827,-705.481"/>
<text text-anchor="middle" x="892.5" y="-712.881" font-family="Ubuntu Mono" font-size="12.00">test::generic_tests</text>
</a>
</g>
</g>
<!-- Node625&#45;&gt;Node638 -->
<g id="edge19" class="edge"><title>Node625&#45;&gt;Node638</title>
<path fill="none" stroke="midnightblue" d="M295.323,-652.9C319.723,-661.284 352.332,-671.388 382,-676.981 540.011,-706.767 729.675,-713.925 826.965,-715.566"/>
<polygon fill="midnightblue" stroke="midnightblue" points="296.329,-649.544 285.734,-649.549 294.02,-656.153 296.329,-649.544"/>
</g>
<!-- Node639 -->
<g id="node16" class="node"><title>Node639</title>
<g id="a_node16"><a xlink:href="namespacetest.html#a1c04fcea513c8c2efb189049d810318a" target="_top" xlink:title="Test calc_d2_smooth(). ">
<polygon fill="white" stroke="black" points="406,-956.981 406,-990.981 531,-990.981 531,-956.981 406,-956.981"/>
<text text-anchor="start" x="414" y="-977.381" font-family="Ubuntu Mono" font-size="12.00">test::test_calc_d2</text>
<text text-anchor="middle" x="468.5" y="-964.381" font-family="Ubuntu Mono" font-size="12.00">_smooth</text>
</a>
</g>
</g>
<!-- Node625&#45;&gt;Node639 -->
<g id="edge22" class="edge"><title>Node625&#45;&gt;Node639</title>
<path fill="none" stroke="midnightblue" d="M270.934,-658.155C290.166,-686.424 325.482,-741.51 346,-792.981 371.227,-856.266 336.829,-890.981 382,-941.981 388.515,-949.337 396.89,-955.007 405.841,-959.376"/>
<polygon fill="midnightblue" stroke="midnightblue" points="273.626,-655.893 265.073,-649.64 267.86,-659.862 273.626,-655.893"/>
</g>
<!-- Node640 -->
<g id="node17" class="node"><title>Node640</title>
<g id="a_node17"><a xlink:href="namespacetest.html#a53c6b3d654d4577af301fe3b04473d6a" target="_top" xlink:title="Test spline(). ">
<polygon fill="white" stroke="black" points="615,-724.481 615,-745.481 740,-745.481 740,-724.481 615,-724.481"/>
<text text-anchor="middle" x="677.5" y="-731.881" font-family="Ubuntu Mono" font-size="12.00">test::test_splines</text>
</a>
</g>
</g>
<!-- Node625&#45;&gt;Node640 -->
<g id="edge24" class="edge"><title>Node625&#45;&gt;Node640</title>
<path fill="none" stroke="midnightblue" d="M270.623,-658.162C290.8,-685.745 332.358,-735.439 382,-754.981 472.362,-790.553 590.316,-762.503 645.5,-745.53"/>
<polygon fill="midnightblue" stroke="midnightblue" points="273.271,-655.847 264.62,-649.731 267.569,-659.907 273.271,-655.847"/>
</g>
<!-- Node641 -->
<g id="node18" class="node"><title>Node641</title>
<g id="a_node18"><a xlink:href="test_8f90.html#a197914f99b7e194fb4bca9ca3669e0e8" target="_top" xlink:title="plot_y">
<polygon fill="white" stroke="black" points="442,-724.481 442,-745.481 495,-745.481 495,-724.481 442,-724.481"/>
<text text-anchor="middle" x="468.5" y="-731.881" font-family="Ubuntu Mono" font-size="12.00">plot_y</text>
</a>
</g>
</g>
<!-- Node625&#45;&gt;Node641 -->
<g id="edge26" class="edge"><title>Node625&#45;&gt;Node641</title>
<path fill="none" stroke="midnightblue" d="M282.02,-655.262C306.511,-670.961 345.645,-694.551 382,-709.981 401.504,-718.259 424.619,-724.836 441.894,-729.163"/>
<polygon fill="midnightblue" stroke="midnightblue" points="283.682,-652.168 273.387,-649.664 279.874,-658.041 283.682,-652.168"/>
</g>
<!-- Node642 -->
<g id="node19" class="node"><title>Node642</title>
<g id="a_node19"><a xlink:href="namespacetest.html#ab595ec935321ea0b1168593fb88fad22" target="_top" xlink:title="Test calculation of toroidal functions. ">
<polygon fill="white" stroke="black" points="406,-646.481 406,-667.481 531,-667.481 531,-646.481 406,-646.481"/>
<text text-anchor="middle" x="468.5" y="-653.881" font-family="Ubuntu Mono" font-size="12.00">test::test_tor_fun</text>
</a>
</g>
</g>
<!-- Node625&#45;&gt;Node642 -->
<g id="edge28" class="edge"><title>Node625&#45;&gt;Node642</title>
<path fill="none" stroke="midnightblue" d="M347.415,-646.688C367.12,-648.377 387.549,-650.128 405.848,-651.696"/>
<polygon fill="midnightblue" stroke="midnightblue" points="347.454,-643.179 337.191,-645.812 346.856,-650.153 347.454,-643.179"/>
</g>
<!-- Node643 -->
<g id="node20" class="node"><title>Node643</title>
<g id="a_node20"><a xlink:href="namespacetest.html#a0d4cb791bf762b2e52260fea7644a3ee" target="_top" xlink:title="Tests calculation of volume integral. ">
<polygon fill="white" stroke="black" points="391,-1010.48 391,-1031.48 546,-1031.48 546,-1010.48 391,-1010.48"/>
<text text-anchor="middle" x="468.5" y="-1017.88" font-family="Ubuntu Mono" font-size="12.00">test::test_calc_int_vol</text>
</a>
</g>
</g>
<!-- Node625&#45;&gt;Node643 -->
<g id="edge30" class="edge"><title>Node625&#45;&gt;Node643</title>
<path fill="none" stroke="midnightblue" d="M271.388,-657.983C291.18,-686.038 327.183,-740.864 346,-792.981 377.86,-881.224 317.625,-932.732 382,-1000.98 385.556,-1004.75 389.676,-1007.87 394.147,-1010.45"/>
<polygon fill="midnightblue" stroke="midnightblue" points="274.011,-655.633 265.345,-649.537 268.318,-659.706 274.011,-655.633"/>
</g>
<!-- Node644 -->
<g id="node21" class="node"><title>Node644</title>
<g id="a_node21"><a xlink:href="namespacevac__utilities.html#a8e7889688701f6ac2fd2c60cdee2b96a" target="_top" xlink:title="Copies vacuum variables of a previous level into the appropriate, interlaced place of a next level...">
<polygon fill="white" stroke="black" points="385,-516.981 385,-550.981 552,-550.981 552,-516.981 385,-516.981"/>
<text text-anchor="start" x="393" y="-537.381" font-family="Ubuntu Mono" font-size="12.00">vac_utilities::interlaced</text>
<text text-anchor="middle" x="468.5" y="-524.381" font-family="Ubuntu Mono" font-size="12.00">_vac_copy</text>
</a>
</g>
</g>
<!-- Node625&#45;&gt;Node644 -->
<g id="edge32" class="edge"><title>Node625&#45;&gt;Node644</title>
<path fill="none" stroke="midnightblue" d="M292.185,-624.483C308.639,-617.406 328.487,-608.578 346,-599.981 377.676,-584.431 413.036,-564.977 437.405,-551.23"/>
<polygon fill="midnightblue" stroke="midnightblue" points="290.755,-621.288 282.932,-628.433 293.503,-627.726 290.755,-621.288"/>
</g>
<!-- Node646 -->
<g id="node23" class="node"><title>Node646</title>
<g id="a_node23"><a xlink:href="namespacex__ops.html#a4e39701da15ff952add5133db1897b52" target="_top" xlink:title="Calculate , &#160;or , . ">
<polygon fill="white" stroke="black" points="421,-306.481 421,-327.481 516,-327.481 516,-306.481 421,-306.481"/>
<text text-anchor="middle" x="468.5" y="-313.881" font-family="Ubuntu Mono" font-size="12.00">x_ops::calc_u</text>
</a>
</g>
</g>
<!-- Node625&#45;&gt;Node646 -->
<g id="edge35" class="edge"><title>Node625&#45;&gt;Node646</title>
<path fill="none" stroke="midnightblue" d="M313.422,-624.508C325.866,-618.789 337.786,-610.879 346,-599.981 417.012,-505.766 302.577,-424.222 382,-336.981 391.852,-326.159 406.338,-320.641 420.598,-317.971"/>
<polygon fill="midnightblue" stroke="midnightblue" points="311.757,-621.41 303.856,-628.469 314.434,-627.877 311.757,-621.41"/>
</g>
<!-- Node626&#45;&gt;Node627 -->
<g id="edge3" class="edge"><title>Node626&#45;&gt;Node627</title>
<path fill="none" stroke="midnightblue" d="M983.609,-617.981C1066.74,-617.981 1184,-617.981 1229.95,-617.981"/>
<polygon fill="midnightblue" stroke="midnightblue" points="983.393,-614.481 973.393,-617.981 983.393,-621.481 983.393,-614.481"/>
</g>
<!-- Node629 -->
<g id="node6" class="node"><title>Node629</title>
<g id="a_node6"><a xlink:href="namespacedriver__x.html#ada3d72a0929daaa5e3da585246d62281" target="_top" xlink:title="Main driver of PB3D perturbation part. ">
<polygon fill="white" stroke="black" points="1033,-556.481 1033,-577.481 1182,-577.481 1182,-556.481 1033,-556.481"/>
<text text-anchor="middle" x="1107.5" y="-563.881" font-family="Ubuntu Mono" font-size="12.00">driver_x::run_driver_x</text>
</a>
</g>
</g>
<!-- Node628&#45;&gt;Node629 -->
<g id="edge5" class="edge"><title>Node628&#45;&gt;Node629</title>
<path fill="none" stroke="midnightblue" d="M559.28,-498.256C686.052,-514.177 915.135,-542.948 1032.63,-557.703"/>
<polygon fill="midnightblue" stroke="midnightblue" points="559.568,-494.765 549.21,-496.992 558.696,-501.711 559.568,-494.765"/>
</g>
<!-- Node629&#45;&gt;Node627 -->
<g id="edge6" class="edge"><title>Node629&#45;&gt;Node627</title>
<path fill="none" stroke="midnightblue" d="M1147.2,-580.977C1173.99,-590.667 1208.53,-603.161 1229.84,-610.869"/>
<polygon fill="midnightblue" stroke="midnightblue" points="1148.31,-577.658 1137.72,-577.548 1145.93,-584.241 1148.31,-577.658"/>
</g>
<!-- Node631&#45;&gt;Node630 -->
<g id="edge9" class="edge"><title>Node631&#45;&gt;Node630</title>
<path fill="none" stroke="midnightblue" d="M544.395,-371.941C559.427,-373.538 575.333,-375.229 590.702,-376.862"/>
<polygon fill="midnightblue" stroke="midnightblue" points="544.459,-368.428 534.145,-370.851 543.719,-375.389 544.459,-368.428"/>
</g>
<!-- Node632&#45;&gt;Node626 -->
<g id="edge11" class="edge"><title>Node632&#45;&gt;Node626</title>
<path fill="none" stroke="midnightblue" d="M749.704,-915.411C755.029,-912.325 759.909,-908.563 764,-903.981 826.485,-833.998 753.536,-777.486 800,-695.981 817.368,-665.515 851.346,-641.444 872.654,-628.495"/>
<polygon fill="midnightblue" stroke="midnightblue" points="747.813,-912.44 740.382,-919.992 750.901,-918.723 747.813,-912.44"/>
</g>
<!-- Node633 -->
<g id="node10" class="node"><title>Node633</title>
<g id="a_node10"><a xlink:href="namespacedriver__post.html#a33b3c6f9018a0ddc92dce77394b8ab37" target="_top" xlink:title="The main driver routine for postprocessing. ">
<polygon fill="white" stroke="black" points="800,-918.481 800,-939.481 985,-939.481 985,-918.481 800,-918.481"/>
<text text-anchor="middle" x="892.5" y="-925.881" font-family="Ubuntu Mono" font-size="12.00">driver_post::run_driver_post</text>
</a>
</g>
</g>
<!-- Node632&#45;&gt;Node633 -->
<g id="edge12" class="edge"><title>Node632&#45;&gt;Node633</title>
<path fill="none" stroke="midnightblue" d="M750.377,-928.981C766.282,-928.981 783.343,-928.981 799.913,-928.981"/>
<polygon fill="midnightblue" stroke="midnightblue" points="750.108,-925.481 740.108,-928.981 750.108,-932.481 750.108,-925.481"/>
</g>
<!-- Node633&#45;&gt;Node634 -->
<g id="edge13" class="edge"><title>Node633&#45;&gt;Node634</title>
<path fill="none" stroke="midnightblue" d="M995.327,-928.981C1030.08,-928.981 1065.51,-928.981 1086.75,-928.981"/>
<polygon fill="midnightblue" stroke="midnightblue" points="995.067,-925.481 985.067,-928.981 995.067,-932.481 995.067,-925.481"/>
</g>
<!-- Node636 -->
<g id="node13" class="node"><title>Node636</title>
<g id="a_node13"><a xlink:href="namespacedriver__sol.html#ad3b1765b3ecc5f82129bfc683ffc6c5c" target="_top" xlink:title="Main driver of PB3D solution part. ">
<polygon fill="white" stroke="black" points="1021,-491.481 1021,-512.481 1194,-512.481 1194,-491.481 1021,-491.481"/>
<text text-anchor="middle" x="1107.5" y="-498.881" font-family="Ubuntu Mono" font-size="12.00">driver_sol::run_driver_sol</text>
</a>
</g>
</g>
<!-- Node635&#45;&gt;Node636 -->
<g id="edge15" class="edge"><title>Node635&#45;&gt;Node636</title>
<path fill="none" stroke="midnightblue" d="M960.741,-458.869C997.247,-469.667 1040.91,-482.581 1070.87,-491.442"/>
<polygon fill="midnightblue" stroke="midnightblue" points="961.723,-455.51 951.141,-456.03 959.737,-462.222 961.723,-455.51"/>
</g>
<!-- Node636&#45;&gt;Node627 -->
<g id="edge16" class="edge"><title>Node636&#45;&gt;Node627</title>
<path fill="none" stroke="midnightblue" d="M1144.47,-516.737C1160.59,-524.363 1179.26,-534.666 1194,-546.981 1215.49,-564.935 1234.06,-592.494 1243.29,-607.448"/>
<polygon fill="midnightblue" stroke="midnightblue" points="1145.87,-513.528 1135.32,-512.562 1142.96,-519.897 1145.87,-513.528"/>
</g>
<!-- Node637&#45;&gt;Node635 -->
<g id="edge18" class="edge"><title>Node637&#45;&gt;Node635</title>
<path fill="none" stroke="midnightblue" d="M710.374,-252.58C728.448,-262.904 750.15,-278.03 764,-296.981 795.602,-340.221 761.819,-374.423 800,-411.981 807.439,-419.298 816.758,-424.649 826.581,-428.559"/>
<polygon fill="midnightblue" stroke="midnightblue" points="711.768,-249.353 701.315,-247.624 708.408,-255.494 711.768,-249.353"/>
</g>
<!-- Node638&#45;&gt;Node627 -->
<g id="edge20" class="edge"><title>Node638&#45;&gt;Node627</title>
<path fill="none" stroke="midnightblue" d="M941.668,-702.721C1020.83,-680.93 1175.1,-638.461 1229.74,-623.421"/>
<polygon fill="midnightblue" stroke="midnightblue" points="940.649,-699.371 931.936,-705.4 942.507,-706.12 940.649,-699.371"/>
</g>
<!-- Node638&#45;&gt;Node634 -->
<g id="edge21" class="edge"><title>Node638&#45;&gt;Node634</title>
<path fill="none" stroke="midnightblue" d="M911.258,-733.739C954.009,-776.49 1061.64,-884.124 1095.87,-918.354"/>
<polygon fill="midnightblue" stroke="midnightblue" points="913.609,-731.14 904.063,-726.544 908.659,-736.09 913.609,-731.14"/>
</g>
<!-- Node639&#45;&gt;Node638 -->
<g id="edge23" class="edge"><title>Node639&#45;&gt;Node638</title>
<path fill="none" stroke="midnightblue" d="M541.25,-985.809C604.939,-992.398 697.887,-992.05 764,-948.981 806.597,-921.231 870.404,-768.425 887.282,-726.579"/>
<polygon fill="midnightblue" stroke="midnightblue" points="541.614,-982.328 531.288,-984.697 540.838,-989.285 541.614,-982.328"/>
</g>
<!-- Node640&#45;&gt;Node638 -->
<g id="edge25" class="edge"><title>Node640&#45;&gt;Node638</title>
<path fill="none" stroke="midnightblue" d="M750.166,-728.588C774.927,-726.379 802.512,-723.919 826.691,-721.762"/>
<polygon fill="midnightblue" stroke="midnightblue" points="749.758,-725.111 740.108,-729.485 750.38,-732.083 749.758,-725.111"/>
</g>
<!-- Node641&#45;&gt;Node640 -->
<g id="edge27" class="edge"><title>Node641&#45;&gt;Node640</title>
<path fill="none" stroke="midnightblue" d="M505.33,-734.981C535.39,-734.981 579.008,-734.981 614.689,-734.981"/>
<polygon fill="midnightblue" stroke="midnightblue" points="505.298,-731.481 495.298,-734.981 505.298,-738.481 505.298,-731.481"/>
</g>
<!-- Node642&#45;&gt;Node638 -->
<g id="edge29" class="edge"><title>Node642&#45;&gt;Node638</title>
<path fill="none" stroke="midnightblue" d="M541.215,-659.541C601.129,-662.522 688.619,-668.836 764,-681.981 796.498,-687.648 832.778,-697.697 858.302,-705.406"/>
<polygon fill="midnightblue" stroke="midnightblue" points="541.258,-656.04 531.102,-659.057 540.923,-663.032 541.258,-656.04"/>
</g>
<!-- Node643&#45;&gt;Node638 -->
<g id="edge31" class="edge"><title>Node643&#45;&gt;Node638</title>
<path fill="none" stroke="midnightblue" d="M556.674,-1030.23C619.93,-1032.35 704.491,-1025.16 764,-981.981 766.914,-979.866 863.197,-775.99 886.472,-726.645"/>
<polygon fill="midnightblue" stroke="midnightblue" points="556.454,-1026.72 546.316,-1029.8 556.16,-1033.71 556.454,-1026.72"/>
</g>
<!-- Node645 -->
<g id="node22" class="node"><title>Node645</title>
<g id="a_node22"><a xlink:href="namespacevac__ops.html#a37220702fbf378626a0f2c12f446e0aa" target="_top" xlink:title="Stores calculation of the vacuum response by storing the necessary variables. ">
<polygon fill="white" stroke="black" points="615,-546.481 615,-567.481 740,-567.481 740,-546.481 615,-546.481"/>
<text text-anchor="middle" x="677.5" y="-553.881" font-family="Ubuntu Mono" font-size="12.00">vac_ops::store_vac</text>
</a>
</g>
</g>
<!-- Node644&#45;&gt;Node645 -->
<g id="edge33" class="edge"><title>Node644&#45;&gt;Node645</title>
<path fill="none" stroke="midnightblue" d="M562.593,-544.325C580.346,-546.297 598.512,-548.316 614.972,-550.145"/>
<polygon fill="midnightblue" stroke="midnightblue" points="562.53,-540.796 552.204,-543.17 561.757,-547.753 562.53,-540.796"/>
</g>
<!-- Node645&#45;&gt;Node626 -->
<g id="edge34" class="edge"><title>Node645&#45;&gt;Node626</title>
<path fill="none" stroke="midnightblue" d="M725.644,-570.482C764.586,-581.635 819.084,-597.242 854.823,-607.477"/>
<polygon fill="midnightblue" stroke="midnightblue" points="726.179,-566.995 715.602,-567.606 724.252,-573.724 726.179,-566.995"/>
</g>
<!-- Node647 -->
<g id="node24" class="node"><title>Node647</title>
<g id="a_node24"><a xlink:href="interfacex__ops_1_1calc__x.html#a837126ca92e7f4d6821261c835b987d4" target="_top" xlink:title="vectorial version ">
<polygon fill="white" stroke="black" points="600,-306.481 600,-327.481 755,-327.481 755,-306.481 600,-306.481"/>
<text text-anchor="middle" x="677.5" y="-313.881" font-family="Ubuntu Mono" font-size="12.00">x_ops::calc_x::calc_x_1</text>
</a>
</g>
</g>
<!-- Node646&#45;&gt;Node647 -->
<g id="edge36" class="edge"><title>Node646&#45;&gt;Node647</title>
<path fill="none" stroke="midnightblue" d="M526.357,-316.981C549.06,-316.981 575.551,-316.981 599.905,-316.981"/>
<polygon fill="midnightblue" stroke="midnightblue" points="526.213,-313.481 516.213,-316.981 526.213,-320.481 526.213,-313.481"/>
</g>
<!-- Node648&#45;&gt;Node631 -->
<g id="edge38" class="edge"><title>Node648&#45;&gt;Node631</title>
<path fill="none" stroke="midnightblue" d="M266.056,-559.794C282.898,-522.349 323.833,-441.784 382,-395.981 389.596,-390 398.426,-385.052 407.472,-380.985"/>
<polygon fill="midnightblue" stroke="midnightblue" points="262.765,-558.583 261.951,-569.147 269.175,-561.397 262.765,-558.583"/>
</g>
<!-- Node648&#45;&gt;Node635 -->
<g id="edge39" class="edge"><title>Node648&#45;&gt;Node635</title>
<path fill="none" stroke="midnightblue" d="M264.003,-559.488C288.529,-482.331 374.427,-213.432 382,-207.981 406.192,-190.567 757.386,-211.231 764,-216.981 830.511,-274.804 741.018,-346.497 800,-411.981 807.205,-419.98 816.65,-425.658 826.733,-429.677"/>
<polygon fill="midnightblue" stroke="midnightblue" points="260.538,-558.836 260.846,-569.426 267.209,-560.955 260.538,-558.836"/>
</g>
<!-- Node648&#45;&gt;Node637 -->
<g id="edge40" class="edge"><title>Node648&#45;&gt;Node637</title>
<path fill="none" stroke="midnightblue" d="M264.016,-559.39C287.55,-485.318 367.525,-236.234 382,-225.981 418.375,-200.214 541.675,-214.621 616.713,-226.45"/>
<polygon fill="midnightblue" stroke="midnightblue" points="260.542,-558.768 260.855,-569.358 267.214,-560.884 260.542,-558.768"/>
</g>
<!-- Node648&#45;&gt;Node640 -->
<g id="edge41" class="edge"><title>Node648&#45;&gt;Node640</title>
<path fill="none" stroke="midnightblue" d="M350.331,-586.074C410.89,-592.82 490.389,-607.034 555,-636.981 602.7,-659.09 647.88,-703.969 666.966,-724.411"/>
<polygon fill="midnightblue" stroke="midnightblue" points="350.332,-582.554 340.018,-584.976 349.592,-589.515 350.332,-582.554"/>
</g>
<!-- Node648&#45;&gt;Node641 -->
<g id="edge42" class="edge"><title>Node648&#45;&gt;Node641</title>
<path fill="none" stroke="midnightblue" d="M303.748,-594.259C318.351,-600.288 333.834,-608.414 346,-618.981 368.906,-638.876 360.986,-655.097 382,-676.981 401.256,-697.035 428.538,-714.067 447.068,-724.385"/>
<polygon fill="midnightblue" stroke="midnightblue" points="304.911,-590.956 294.323,-590.595 302.375,-597.48 304.911,-590.956"/>
</g>
<!-- Node648&#45;&gt;Node642 -->
<g id="edge43" class="edge"><title>Node648&#45;&gt;Node642</title>
<path fill="none" stroke="midnightblue" d="M295.694,-593.985C336.915,-609.1 401.631,-632.829 438.752,-646.44"/>
<polygon fill="midnightblue" stroke="midnightblue" points="296.853,-590.683 286.259,-590.526 294.443,-597.255 296.853,-590.683"/>
</g>
<!-- Node649&#45;&gt;Node626 -->
<g id="edge45" class="edge"><title>Node649&#45;&gt;Node626</title>
<path fill="none" stroke="midnightblue" d="M290.493,-827.4C315.161,-837.363 350.006,-849.73 382,-854.981 457.874,-867.434 480.017,-871.996 555,-854.981 655.421,-832.194 687.583,-824.004 764,-754.981 786.796,-734.391 780.062,-719.349 800,-695.981 823.439,-668.51 856.985,-642.547 876.274,-628.599"/>
<polygon fill="midnightblue" stroke="midnightblue" points="291.817,-824.16 281.238,-823.582 289.147,-830.631 291.817,-824.16"/>
</g>
<!-- Node649&#45;&gt;Node628 -->
<g id="edge46" class="edge"><title>Node649&#45;&gt;Node628</title>
<path fill="none" stroke="midnightblue" d="M270.965,-793.819C290.235,-765.566 325.598,-710.498 346,-658.981 371.562,-594.434 332.842,-556.003 382,-506.981 385.778,-503.213 390.121,-500.102 394.804,-497.538"/>
<polygon fill="midnightblue" stroke="midnightblue" points="267.892,-792.111 265.092,-802.329 273.653,-796.087 267.892,-792.111"/>
</g>
<!-- Node649&#45;&gt;Node631 -->
<g id="edge47" class="edge"><title>Node649&#45;&gt;Node631</title>
<path fill="none" stroke="midnightblue" d="M271.291,-793.944C290.964,-765.844 326.82,-710.965 346,-658.981 376.053,-577.528 345.092,-545.566 382,-466.981 398.104,-432.693 428.363,-400.311 448.223,-381.309"/>
<polygon fill="midnightblue" stroke="midnightblue" points="268.22,-792.223 265.287,-802.404 273.929,-796.274 268.22,-792.223"/>
</g>
<!-- Node649&#45;&gt;Node639 -->
<g id="edge50" class="edge"><title>Node649&#45;&gt;Node639</title>
<path fill="none" stroke="midnightblue" d="M271.039,-831.583C291.988,-859.175 334.8,-911.014 382,-941.981 390.879,-947.806 400.966,-952.774 411.022,-956.934"/>
<polygon fill="midnightblue" stroke="midnightblue" points="273.815,-829.451 265.027,-823.533 268.207,-833.64 273.815,-829.451"/>
</g>
<!-- Node649&#45;&gt;Node640 -->
<g id="edge51" class="edge"><title>Node649&#45;&gt;Node640</title>
<path fill="none" stroke="midnightblue" d="M300.551,-826.295C359.737,-842.3 468.711,-863.444 555,-832.981 605.087,-815.299 649.699,-767.247 667.86,-745.694"/>
<polygon fill="midnightblue" stroke="midnightblue" points="301.365,-822.888 290.793,-823.58 299.489,-829.632 301.365,-822.888"/>
</g>
<!-- Node649&#45;&gt;Node641 -->
<g id="edge52" class="edge"><title>Node649&#45;&gt;Node641</title>
<path fill="none" stroke="midnightblue" d="M295.242,-798.962C337.637,-783.216 405.293,-758.086 441.925,-744.48"/>
<polygon fill="midnightblue" stroke="midnightblue" points="293.977,-795.699 285.822,-802.462 296.414,-802.261 293.977,-795.699"/>
</g>
<!-- Node649&#45;&gt;Node642 -->
<g id="edge53" class="edge"><title>Node649&#45;&gt;Node642</title>
<path fill="none" stroke="midnightblue" d="M278.222,-795.934C302.652,-776.01 344.66,-742.289 382,-714.981 405.599,-697.722 433.809,-678.927 451.191,-667.55"/>
<polygon fill="midnightblue" stroke="midnightblue" points="275.875,-793.332 270.351,-802.372 280.307,-798.75 275.875,-793.332"/>
</g>
<!-- Node649&#45;&gt;Node643 -->
<g id="edge54" class="edge"><title>Node649&#45;&gt;Node643</title>
<path fill="none" stroke="midnightblue" d="M264.953,-833.221C280.394,-872.201 319.728,-957.659 382,-1000.98 387.506,-1004.81 393.645,-1007.92 400.037,-1010.43"/>
<polygon fill="midnightblue" stroke="midnightblue" points="268.084,-831.613 261.232,-823.533 261.55,-834.123 268.084,-831.613"/>
</g>
<!-- Node650 -->
<g id="node27" class="node"><title>Node650</title>
<g id="a_node27"><a xlink:href="namespacehelena__ops.html#a0f156b3653264fb016d6d311eb59114c" target="_top" xlink:title="Checks whether the metric elements provided by HELENA are consistent with a direct calculation using ...">
<polygon fill="white" stroke="black" points="382,-802.481 382,-823.481 555,-823.481 555,-802.481 382,-802.481"/>
<text text-anchor="middle" x="468.5" y="-809.881" font-family="Ubuntu Mono" font-size="12.00">helena_ops::test_metrics_h</text>
</a>
</g>
</g>
<!-- Node649&#45;&gt;Node650 -->
<g id="edge48" class="edge"><title>Node649&#45;&gt;Node650</title>
<path fill="none" stroke="midnightblue" d="M347.221,-812.981C358.724,-812.981 370.477,-812.981 381.911,-812.981"/>
<polygon fill="midnightblue" stroke="midnightblue" points="347.191,-809.481 337.191,-812.981 347.191,-816.481 347.191,-809.481"/>
</g>
<!-- Node650&#45;&gt;Node630 -->
<g id="edge49" class="edge"><title>Node650&#45;&gt;Node630</title>
<path fill="none" stroke="midnightblue" d="M504.182,-797.839C522.189,-788.179 542.899,-773.894 555,-754.981 607.926,-672.263 558.303,-629.579 591,-536.981 610.961,-480.451 651.553,-420.564 668.64,-396.698"/>
<polygon fill="midnightblue" stroke="midnightblue" points="502.401,-794.819 495.073,-802.47 505.573,-801.059 502.401,-794.819"/>
</g>
<!-- Node651&#45;&gt;Node626 -->
<g id="edge56" class="edge"><title>Node651&#45;&gt;Node626</title>
<path fill="none" stroke="midnightblue" d="M261.583,-257.525C272.069,-211.15 304.74,-98.5294 382,-52.981 448.235,-13.9322 486.055,-18.9441 555,-52.981 578.594,-64.6288 570.499,-83.4865 591,-99.981 657.147,-153.202 714.017,-112.355 764,-180.981 838.906,-283.826 758.467,-344.719 800,-464.981 820.106,-523.198 864.243,-583.358 882.902,-607.262"/>
<polygon fill="midnightblue" stroke="midnightblue" points="258.155,-256.82 259.477,-267.332 264.999,-258.289 258.155,-256.82"/>
</g>
<!-- Node651&#45;&gt;Node628 -->
<g id="edge57" class="edge"><title>Node651&#45;&gt;Node628</title>
<path fill="none" stroke="midnightblue" d="M275.332,-295.728C317.614,-337.809 422.936,-442.629 456.819,-476.351"/>
<polygon fill="midnightblue" stroke="midnightblue" points="277.76,-293.206 268.203,-288.633 272.822,-298.168 277.76,-293.206"/>
</g>
<!-- Node651&#45;&gt;Node630 -->
<g id="edge58" class="edge"><title>Node651&#45;&gt;Node630</title>
<path fill="none" stroke="midnightblue" d="M344.652,-266.738C406.413,-262.669 489.583,-265.31 555,-296.981 576.527,-307.403 572.39,-321.957 591,-336.981 610.435,-352.672 635.512,-366.403 653.473,-375.306"/>
<polygon fill="midnightblue" stroke="midnightblue" points="344.262,-263.257 334.543,-267.476 344.772,-270.239 344.262,-263.257"/>
</g>
<!-- Node651&#45;&gt;Node631 -->
<g id="edge59" class="edge"><title>Node651&#45;&gt;Node631</title>
<path fill="none" stroke="midnightblue" d="M286.755,-293.241C311.672,-305.899 348.637,-323.879 382,-336.981 390.838,-340.452 400.319,-343.802 409.634,-346.891"/>
<polygon fill="midnightblue" stroke="midnightblue" points="288.324,-290.113 277.827,-288.672 285.134,-296.344 288.324,-290.113"/>
</g>
<!-- Node651&#45;&gt;Node638 -->
<g id="edge67" class="edge"><title>Node651&#45;&gt;Node638</title>
<path fill="none" stroke="midnightblue" d="M279.305,-261.082C303.041,-243.848 342.862,-218.229 382,-207.981 464.143,-186.472 702.702,-158.221 764,-216.981 831.783,-281.958 757.05,-554.483 800,-637.981 815.85,-668.794 849.618,-692.443 871.401,-705.263"/>
<polygon fill="midnightblue" stroke="midnightblue" points="276.972,-258.455 271.031,-267.227 281.146,-264.075 276.972,-258.455"/>
</g>
<!-- Node651&#45;&gt;Node646 -->
<g id="edge68" class="edge"><title>Node651&#45;&gt;Node646</title>
<path fill="none" stroke="midnightblue" d="M324.062,-290.343C355.524,-296.185 392.327,-303.02 420.777,-308.304"/>
<polygon fill="midnightblue" stroke="midnightblue" points="324.523,-286.868 314.052,-288.484 323.245,-293.751 324.523,-286.868"/>
</g>
<!-- Node652 -->
<g id="node29" class="node"><title>Node652</title>
<g id="a_node29"><a xlink:href="namespacempi__ops.html#a804ec65ff711509de1f8873f97bdf967" target="_top" xlink:title="Start MPI and gather information. ">
<polygon fill="white" stroke="black" points="830,-381.481 830,-402.481 955,-402.481 955,-381.481 830,-381.481"/>
<text text-anchor="middle" x="892.5" y="-388.881" font-family="Ubuntu Mono" font-size="12.00">mpi_ops::start_mpi</text>
</a>
</g>
</g>
<!-- Node651&#45;&gt;Node652 -->
<g id="edge60" class="edge"><title>Node651&#45;&gt;Node652</title>
<path fill="none" stroke="midnightblue" d="M260.18,-257.098C268.015,-205.814 296.044,-73.9429 382,-19.981 447.12,20.9004 478.455,-12.7219 555,-19.981 649.152,-28.9097 691.459,0.70054 764,-59.981 869.609,-148.324 887.975,-334.68 890.955,-381.257"/>
<polygon fill="midnightblue" stroke="midnightblue" points="256.674,-256.889 258.732,-267.282 263.605,-257.874 256.674,-256.889"/>
</g>
<!-- Node653 -->
<g id="node30" class="node"><title>Node653</title>
<g id="a_node30"><a xlink:href="namespaceslepc__utilities.html#aa34aa361f0bfff9621ecba179f9ed0c6" target="_top" xlink:title="Insert a block pertaining to 1 normal point into a matrix. ">
<polygon fill="white" stroke="black" points="391,-62.981 391,-96.981 546,-96.981 546,-62.981 391,-62.981"/>
<text text-anchor="start" x="399" y="-83.381" font-family="Ubuntu Mono" font-size="12.00">slepc_utilities::insert</text>
<text text-anchor="middle" x="468.5" y="-70.381" font-family="Ubuntu Mono" font-size="12.00">_block_mat</text>
</a>
</g>
</g>
<!-- Node651&#45;&gt;Node653 -->
<g id="edge63" class="edge"><title>Node651&#45;&gt;Node653</title>
<path fill="none" stroke="midnightblue" d="M267.33,-258.377C285.474,-224.057 327.409,-152.857 382,-111.981 389.866,-106.091 398.937,-101.177 408.168,-97.1122"/>
<polygon fill="midnightblue" stroke="midnightblue" points="264.15,-256.908 262.663,-267.398 270.367,-260.125 264.15,-256.908"/>
</g>
<!-- Node652&#45;&gt;Node627 -->
<g id="edge61" class="edge"><title>Node652&#45;&gt;Node627</title>
<path fill="none" stroke="midnightblue" d="M965.347,-395.685C1032.51,-402.849 1131.56,-423.428 1194,-481.981 1231.76,-517.391 1244.53,-582.16 1248.2,-607.46"/>
<polygon fill="midnightblue" stroke="midnightblue" points="965.562,-392.189 955.265,-394.685 964.871,-399.155 965.562,-392.189"/>
</g>
<!-- Node652&#45;&gt;Node634 -->
<g id="edge62" class="edge"><title>Node652&#45;&gt;Node634</title>
<path fill="none" stroke="midnightblue" d="M964.578,-398.664C972.181,-401.827 979.232,-406.142 985,-411.981 1040.8,-468.474 1003.37,-509.557 1021,-586.981 1050.9,-718.264 1092.55,-876.48 1103.68,-918.382"/>
<polygon fill="midnightblue" stroke="midnightblue" points="965.674,-395.339 955.079,-395.351 963.368,-401.949 965.674,-395.339"/>
</g>
<!-- Node653&#45;&gt;Node637 -->
<g id="edge64" class="edge"><title>Node653&#45;&gt;Node637</title>
<path fill="none" stroke="midnightblue" d="M500.087,-103.18C545.644,-137.733 629.503,-201.336 662.57,-226.416"/>
<polygon fill="midnightblue" stroke="midnightblue" points="502.129,-100.336 492.047,-97.0816 497.899,-105.913 502.129,-100.336"/>
</g>
<!-- Node654 -->
<g id="node31" class="node"><title>Node654</title>
<g id="a_node31"><a xlink:href="namespaceslepc__ops.html#a05f8a23335ed47ad1996cddf3bcfdc2e" target="_top" xlink:title="Sets the boundary conditions deep in the plasma (1) and at the edge (2). ">
<polygon fill="white" stroke="black" points="618,-69.481 618,-90.481 737,-90.481 737,-69.481 618,-69.481"/>
<text text-anchor="middle" x="677.5" y="-76.881" font-family="Ubuntu Mono" font-size="12.00">slepc_ops::set_bc</text>
</a>
</g>
</g>
<!-- Node653&#45;&gt;Node654 -->
<g id="edge65" class="edge"><title>Node653&#45;&gt;Node654</title>
<path fill="none" stroke="midnightblue" d="M556.388,-79.981C577.15,-79.981 598.827,-79.981 617.959,-79.981"/>
<polygon fill="midnightblue" stroke="midnightblue" points="556.285,-76.4811 546.285,-79.981 556.285,-83.4811 556.285,-76.4811"/>
</g>
<!-- Node654&#45;&gt;Node635 -->
<g id="edge66" class="edge"><title>Node654&#45;&gt;Node635</title>
<path fill="none" stroke="midnightblue" d="M746.57,-91.417C753.178,-94.8647 759.197,-99.2958 764,-104.981 852.663,-209.919 711.467,-306.933 800,-411.981 807.045,-420.34 816.539,-426.183 826.751,-430.252"/>
<polygon fill="midnightblue" stroke="midnightblue" points="747.815,-88.1406 737.253,-87.2997 744.985,-94.5432 747.815,-88.1406"/>
</g>
<!-- Node655&#45;&gt;Node627 -->
<g id="edge70" class="edge"><title>Node655&#45;&gt;Node627</title>
<path fill="none" stroke="midnightblue" d="M960.251,-1084.03C1030.97,-1066.51 1139.74,-1027.87 1194,-948.981 1231.23,-894.852 1245.93,-679.256 1248.91,-628.652"/>
<polygon fill="midnightblue" stroke="midnightblue" points="959.012,-1080.73 950.105,-1086.47 960.646,-1087.54 959.012,-1080.73"/>
</g>
<!-- Node655&#45;&gt;Node634 -->
<g id="edge71" class="edge"><title>Node655&#45;&gt;Node634</title>
<path fill="none" stroke="midnightblue" d="M965.37,-1082.75C972.327,-1079.81 979.012,-1076.26 985,-1071.98 1008.17,-1055.43 1003.13,-1041.15 1021,-1018.98 1045.61,-988.437 1078.44,-955.834 1095.37,-939.537"/>
<polygon fill="midnightblue" stroke="midnightblue" points="963.865,-1079.57 955.755,-1086.39 966.346,-1086.12 963.865,-1079.57"/>
</g>
</g>
</svg>
