<?xml version="1.0" encoding="UTF-8" standalone="no"?>
<!DOCTYPE svg PUBLIC "-//W3C//DTD SVG 1.1//EN"
 "http://www.w3.org/Graphics/SVG/1.1/DTD/svg11.dtd">
<!-- Generated by graphviz version 2.43.0 (0)
 -->
<!-- Title: eq_ops::test_t_ef Pages: 1 -->
<svg width="700pt" height="226pt"
 viewBox="0.00 0.00 700.00 226.00" xmlns="http://www.w3.org/2000/svg" xmlns:xlink="http://www.w3.org/1999/xlink">
<g id="graph0" class="graph" transform="scale(1 1) rotate(0) translate(4 222)">
<title>eq_ops::test_t_ef</title>
<polygon fill="white" stroke="transparent" points="-4,4 -4,-222 696,-222 696,4 -4,4"/>
<!-- Node1 -->
<g id="node1" class="node">
<title>Node1</title>
<g id="a_node1"><a xlink:title="See if T_EF it complies with the theory of .">
<polygon fill="#bfbfbf" stroke="black" points="0,-98.5 0,-119.5 117,-119.5 117,-98.5 0,-98.5"/>
<text text-anchor="middle" x="58.5" y="-105.9" font-family="Ubuntu Mono" font-size="12.00">eq_ops::test_t_ef</text>
</a>
</g>
</g>
<!-- Node2 -->
<g id="node2" class="node">
<title>Node2</title>
<g id="a_node2"><a xlink:href="namespacenum__utilities.html#a5ee3fbd1fe67d0deefc7194631389f2a" target="_top" xlink:title="Convert 2&#45;D coordinates (i,j) to the storage convention used in matrices.">
<polygon fill="white" stroke="black" points="185,-196.5 185,-217.5 291,-217.5 291,-196.5 185,-196.5"/>
<text text-anchor="middle" x="238" y="-203.9" font-family="Ubuntu Mono" font-size="12.00">num_utilities::c</text>
</a>
</g>
</g>
<!-- Node1&#45;&gt;Node2 -->
<g id="edge1" class="edge">
<title>Node1&#45;&gt;Node2</title>
<path fill="none" stroke="midnightblue" d="M70.34,-119.73C86.85,-135.5 119.87,-164.92 153,-182 161.53,-186.4 170.96,-190.15 180.32,-193.3"/>
<polygon fill="midnightblue" stroke="midnightblue" points="179.43,-196.69 190.02,-196.37 181.54,-190.02 179.43,-196.69"/>
</g>
<!-- Node3 -->
<g id="node3" class="node">
<title>Node3</title>
<g id="a_node3"><a xlink:href="namespacestr__utilities.html#a0b97e51770725a3e98ed393d26681414" target="_top" xlink:title="Convert an integer to string.">
<polygon fill="white" stroke="black" points="543.5,-157.5 543.5,-178.5 657.5,-178.5 657.5,-157.5 543.5,-157.5"/>
<text text-anchor="middle" x="600.5" y="-164.9" font-family="Ubuntu Mono" font-size="12.00">str_utilities::i2str</text>
</a>
</g>
</g>
<!-- Node1&#45;&gt;Node3 -->
<g id="edge2" class="edge">
<title>Node1&#45;&gt;Node3</title>
<path fill="none" stroke="midnightblue" d="M78.51,-119.56C96.93,-129.21 125.97,-142.86 153,-149 285.27,-179.05 445.12,-176.92 533.19,-172.54"/>
<polygon fill="midnightblue" stroke="midnightblue" points="533.51,-176.03 543.31,-172.02 533.14,-169.04 533.51,-176.03"/>
</g>
<!-- Node4 -->
<g id="node4" class="node">
<title>Node4</title>
<g id="a_node4"><a xlink:href="namespacemessages.html#a6e6bfb084063e4cc91ee86e542043302" target="_top" xlink:title="Increases/decreases lvl of output.">
<polygon fill="white" stroke="black" points="179,-118.5 179,-139.5 297,-139.5 297,-118.5 179,-118.5"/>
<text text-anchor="middle" x="238" y="-125.9" font-family="Ubuntu Mono" font-size="12.00">messages::lvl_ud</text>
</a>
</g>
</g>
<!-- Node1&#45;&gt;Node4 -->
<g id="edge3" class="edge">
<title>Node1&#45;&gt;Node4</title>
<path fill="none" stroke="midnightblue" d="M117.13,-115.49C133.48,-117.34 151.44,-119.36 168.36,-121.27"/>
<polygon fill="midnightblue" stroke="midnightblue" points="168.42,-124.79 178.75,-122.44 169.2,-117.84 168.42,-124.79"/>
</g>
<!-- Node5 -->
<g id="node5" class="node">
<title>Node5</title>
<g id="a_node5"><a xlink:href="namespacemessages.html#aa4a8d01563e92558e8a0875b075ec54c" target="_top" xlink:title="Write output to file identified by output_i.">
<polygon fill="white" stroke="black" points="359,-117.5 359,-138.5 473,-138.5 473,-117.5 359,-117.5"/>
<text text-anchor="middle" x="416" y="-124.9" font-family="Ubuntu Mono" font-size="12.00">messages::writo</text>
</a>
</g>
</g>
<!-- Node1&#45;&gt;Node5 -->
<g id="edge10" class="edge">
<title>Node1&#45;&gt;Node5</title>
<path fill="none" stroke="midnightblue" d="M117.24,-105.63C170.74,-103.31 252.46,-101.79 323,-109 336.06,-110.33 350,-112.71 362.98,-115.33"/>
<polygon fill="midnightblue" stroke="midnightblue" points="362.64,-118.84 373.14,-117.48 364.08,-111.99 362.64,-118.84"/>
</g>
<!-- Node8 -->
<g id="node8" class="node">
<title>Node8</title>
<g id="a_node8"><a xlink:href="namespaceoutput__ops.html#ab0d14194d01ab0534562eab50b37a57a" target="_top" xlink:title="Takes two input vectors and plots these as well as the relative and absolute difference in a HDF5 fil...">
<polygon fill="white" stroke="black" points="153,-40.5 153,-61.5 323,-61.5 323,-40.5 153,-40.5"/>
<text text-anchor="middle" x="238" y="-47.9" font-family="Ubuntu Mono" font-size="12.00">output_ops::plot_diff_hdf5</text>
</a>
</g>
</g>
<!-- Node1&#45;&gt;Node8 -->
<g id="edge8" class="edge">
<title>Node1&#45;&gt;Node8</title>
<path fill="none" stroke="midnightblue" d="M88.43,-98.37C106.84,-91.71 131.23,-83.08 153,-76 164.98,-72.1 178,-68.11 190.14,-64.5"/>
<polygon fill="midnightblue" stroke="midnightblue" points="191.48,-67.75 200.08,-61.56 189.49,-61.04 191.48,-67.75"/>
</g>
<!-- Node9 -->
<g id="node9" class="node">
<title>Node9</title>
<g id="a_node9"><a xlink:href="namespacegrid__utilities.html#a67001ff9bbcad707aacf17f90a748d90" target="_top" xlink:title="Trim a grid, removing any overlap between the different regions.">
<polygon fill="white" stroke="black" points="163.5,-0.5 163.5,-21.5 312.5,-21.5 312.5,-0.5 163.5,-0.5"/>
<text text-anchor="middle" x="238" y="-7.9" font-family="Ubuntu Mono" font-size="12.00">grid_utilities::trim_grid</text>
</a>
</g>
</g>
<!-- Node1&#45;&gt;Node9 -->
<g id="edge9" class="edge">
<title>Node1&#45;&gt;Node9</title>
<path fill="none" stroke="midnightblue" d="M69.02,-98.37C84.78,-81.45 118.04,-48.52 153,-31 157.66,-28.67 162.59,-26.6 167.65,-24.77"/>
<polygon fill="midnightblue" stroke="midnightblue" points="169.08,-27.98 177.49,-21.53 166.89,-21.33 169.08,-27.98"/>
</g>
<!-- Node4&#45;&gt;Node5 -->
<g id="edge4" class="edge">
<title>Node4&#45;&gt;Node5</title>
<path fill="none" stroke="midnightblue" d="M297.12,-128.67C313.53,-128.58 331.53,-128.47 348.4,-128.38"/>
<polygon fill="midnightblue" stroke="midnightblue" points="348.76,-131.88 358.74,-128.32 348.72,-124.88 348.76,-131.88"/>
</g>
<!-- Node5&#45;&gt;Node3 -->
<g id="edge7" class="edge">
<title>Node5&#45;&gt;Node3</title>
<path fill="none" stroke="midnightblue" d="M464.95,-138.51C488.43,-143.66 516.9,-149.9 541.59,-155.31"/>
<polygon fill="midnightblue" stroke="midnightblue" points="541.04,-158.77 551.55,-157.49 542.54,-151.93 541.04,-158.77"/>
</g>
<!-- Node6 -->
<g id="node6" class="node">
<title>Node6</title>
<g id="a_node6"><a xlink:href="namespacemessages.html#a61fd0b51b5e37d58fdc993c01792a3fd" target="_top" xlink:title="Returns the time.">
<polygon fill="white" stroke="black" points="530.5,-117.5 530.5,-138.5 670.5,-138.5 670.5,-117.5 530.5,-117.5"/>
<text text-anchor="middle" x="600.5" y="-124.9" font-family="Ubuntu Mono" font-size="12.00">messages::get_clock</text>
</a>
</g>
</g>
<!-- Node5&#45;&gt;Node6 -->
<g id="edge5" class="edge">
<title>Node5&#45;&gt;Node6</title>
<path fill="none" stroke="midnightblue" d="M473.25,-128C488.02,-128 504.24,-128 519.99,-128"/>
<polygon fill="midnightblue" stroke="midnightblue" points="520.25,-131.5 530.25,-128 520.25,-124.5 520.25,-131.5"/>
</g>
<!-- Node7 -->
<g id="node7" class="node">
<title>Node7</title>
<g id="a_node7"><a xlink:href="namespacemessages.html#a82dddaab795b78b3d39e1ff1aab2f665" target="_top" xlink:title="Returns the memory usage in kilobytes.">
<polygon fill="white" stroke="black" points="509,-77.5 509,-98.5 692,-98.5 692,-77.5 509,-77.5"/>
<text text-anchor="middle" x="600.5" y="-84.9" font-family="Ubuntu Mono" font-size="12.00">messages::get_mem_usage</text>
</a>
</g>
</g>
<!-- Node5&#45;&gt;Node7 -->
<g id="edge6" class="edge">
<title>Node5&#45;&gt;Node7</title>
<path fill="none" stroke="midnightblue" d="M464.95,-117.49C488.43,-112.34 516.9,-106.1 541.59,-100.69"/>
<polygon fill="midnightblue" stroke="midnightblue" points="542.54,-104.07 551.55,-98.51 541.04,-97.23 542.54,-104.07"/>
</g>
</g>
</svg>
