<?xml version="1.0" encoding="UTF-8" standalone="no"?>
<!DOCTYPE svg PUBLIC "-//W3C//DTD SVG 1.1//EN"
 "http://www.w3.org/Graphics/SVG/1.1/DTD/svg11.dtd">
<!-- Generated by graphviz version 2.43.0 (0)
 -->
<!-- Title: hdf5_ops::print_hdf5_grid Pages: 1 -->
<svg width="328pt" height="70pt"
 viewBox="0.00 0.00 328.00 70.00" xmlns="http://www.w3.org/2000/svg" xmlns:xlink="http://www.w3.org/1999/xlink">
<g id="graph0" class="graph" transform="scale(1 1) rotate(0) translate(4 66)">
<title>hdf5_ops::print_hdf5_grid</title>
<polygon fill="white" stroke="transparent" points="-4,4 -4,-66 324,-66 324,4 -4,4"/>
<!-- Node1 -->
<g id="node1" class="node">
<title>Node1</title>
<g id="a_node1"><a xlink:title="Prints an HDF5 grid.">
<polygon fill="#bfbfbf" stroke="black" points="0,-20.5 0,-41.5 168,-41.5 168,-20.5 0,-20.5"/>
<text text-anchor="middle" x="84" y="-27.9" font-family="Ubuntu Mono" font-size="12.00">hdf5_ops::print_hdf5_grid</text>
</a>
</g>
</g>
<!-- Node2 -->
<g id="node2" class="node">
<title>Node2</title>
<g id="a_node2"><a xlink:href="namespacestr__utilities.html#a0b97e51770725a3e98ed393d26681414" target="_top" xlink:title="Convert an integer to string.">
<polygon fill="white" stroke="black" points="205,-40.5 205,-61.5 319,-61.5 319,-40.5 205,-40.5"/>
<text text-anchor="middle" x="262" y="-47.9" font-family="Ubuntu Mono" font-size="12.00">str_utilities::i2str</text>
</a>
</g>
</g>
<!-- Node1&#45;&gt;Node2 -->
<g id="edge1" class="edge">
<title>Node1&#45;&gt;Node2</title>
<path fill="none" stroke="midnightblue" d="M168.1,-40.44C177.06,-41.46 186.08,-42.49 194.8,-43.48"/>
<polygon fill="midnightblue" stroke="midnightblue" points="194.54,-46.97 204.88,-44.62 195.34,-40.02 194.54,-46.97"/>
</g>
<!-- Node3 -->
<g id="node3" class="node">
<title>Node3</title>
<g id="a_node3"><a xlink:href="namespacestr__utilities.html#a92ac6c0af1979df094de1caddd28ade0" target="_top" xlink:title="Convert a real (double) to string.">
<polygon fill="white" stroke="black" points="204,-0.5 204,-21.5 320,-21.5 320,-0.5 204,-0.5"/>
<text text-anchor="middle" x="262" y="-7.9" font-family="Ubuntu Mono" font-size="12.00">str_utilities::r2str</text>
</a>
</g>
</g>
<!-- Node1&#45;&gt;Node3 -->
<g id="edge2" class="edge">
<title>Node1&#45;&gt;Node3</title>
<path fill="none" stroke="midnightblue" d="M168.1,-21.56C176.71,-20.58 185.38,-19.59 193.78,-18.64"/>
<polygon fill="midnightblue" stroke="midnightblue" points="194.33,-22.1 203.87,-17.49 193.54,-15.14 194.33,-22.1"/>
</g>
</g>
</svg>
