<?xml version="1.0" encoding="UTF-8" standalone="no"?>
<!DOCTYPE svg PUBLIC "-//W3C//DTD SVG 1.1//EN"
 "http://www.w3.org/Graphics/SVG/1.1/DTD/svg11.dtd">
<!-- Generated by graphviz version 2.43.0 (0)
 -->
<!-- Title: mpi_utilities::lock_wl_change Pages: 1 -->
<svg width="437pt" height="97pt"
 viewBox="0.00 0.00 437.00 97.00" xmlns="http://www.w3.org/2000/svg" xmlns:xlink="http://www.w3.org/1999/xlink">
<g id="graph0" class="graph" transform="scale(1 1) rotate(0) translate(4 93)">
<title>mpi_utilities::lock_wl_change</title>
<polygon fill="white" stroke="transparent" points="-4,4 -4,-93 433,-93 433,4 -4,4"/>
<!-- Node1 -->
<g id="node1" class="node">
<title>Node1</title>
<g id="a_node1"><a xlink:title="Adds, removes or sets to active a rank from the waiting list for a lock and returns the lock waiting ...">
<polygon fill="#bfbfbf" stroke="black" points="0,-17 0,-51 119,-51 119,-17 0,-17"/>
<text text-anchor="start" x="8" y="-37.4" font-family="Ubuntu Mono" font-size="12.00">mpi_utilities::lock</text>
<text text-anchor="middle" x="59.5" y="-24.4" font-family="Ubuntu Mono" font-size="12.00">_wl_change</text>
</a>
</g>
</g>
<!-- Node2 -->
<g id="node2" class="node">
<title>Node2</title>
<g id="a_node2"><a xlink:href="namespacempi__utilities.html#abe5bf3ae3b6a06eda18c2f4d62ac09c5" target="_top" xlink:title="Returns the header for lock debug messages.">
<polygon fill="white" stroke="black" points="156,-41 156,-75 275,-75 275,-41 156,-41"/>
<text text-anchor="start" x="164" y="-61.4" font-family="Ubuntu Mono" font-size="12.00">mpi_utilities::lock</text>
<text text-anchor="middle" x="215.5" y="-48.4" font-family="Ubuntu Mono" font-size="12.00">_header</text>
</a>
</g>
</g>
<!-- Node1&#45;&gt;Node2 -->
<g id="edge1" class="edge">
<title>Node1&#45;&gt;Node2</title>
<path fill="none" stroke="midnightblue" d="M119.16,-43.14C127.87,-44.5 136.91,-45.91 145.8,-47.29"/>
<polygon fill="midnightblue" stroke="midnightblue" points="145.33,-50.76 155.75,-48.84 146.41,-43.85 145.33,-50.76"/>
</g>
<!-- Node5 -->
<g id="node5" class="node">
<title>Node5</title>
<g id="a_node5"><a xlink:href="namespacestr__utilities.html#ac778d706b2e021672618939ab58fdd32" target="_top" xlink:title="Convert a real (double) to string.">
<polygon fill="white" stroke="black" points="155,-0.5 155,-21.5 276,-21.5 276,-0.5 155,-0.5"/>
<text text-anchor="middle" x="215.5" y="-7.9" font-family="Ubuntu Mono" font-size="12.00">str_utilities::r2strt</text>
</a>
</g>
</g>
<!-- Node1&#45;&gt;Node5 -->
<g id="edge4" class="edge">
<title>Node1&#45;&gt;Node5</title>
<path fill="none" stroke="midnightblue" d="M119.16,-25.24C127.59,-23.98 136.33,-22.67 144.95,-21.39"/>
<polygon fill="midnightblue" stroke="midnightblue" points="145.61,-24.83 154.98,-19.89 144.57,-17.9 145.61,-24.83"/>
</g>
<!-- Node3 -->
<g id="node3" class="node">
<title>Node3</title>
<g id="a_node3"><a xlink:href="namespacestr__utilities.html#a0b97e51770725a3e98ed393d26681414" target="_top" xlink:title="Convert an integer to string.">
<polygon fill="white" stroke="black" points="313.5,-67.5 313.5,-88.5 427.5,-88.5 427.5,-67.5 313.5,-67.5"/>
<text text-anchor="middle" x="370.5" y="-74.9" font-family="Ubuntu Mono" font-size="12.00">str_utilities::i2str</text>
</a>
</g>
</g>
<!-- Node2&#45;&gt;Node3 -->
<g id="edge2" class="edge">
<title>Node2&#45;&gt;Node3</title>
<path fill="none" stroke="midnightblue" d="M275.22,-65.68C284.44,-66.88 294.02,-68.13 303.4,-69.36"/>
<polygon fill="midnightblue" stroke="midnightblue" points="303.09,-72.85 313.46,-70.67 304,-65.91 303.09,-72.85"/>
</g>
<!-- Node4 -->
<g id="node4" class="node">
<title>Node4</title>
<g id="a_node4"><a xlink:href="namespacestr__utilities.html#acb8c4e66aead51f178e47fdea8d7a7db" target="_top" xlink:title="Convert an integer to string.">
<polygon fill="white" stroke="black" points="312,-27.5 312,-48.5 429,-48.5 429,-27.5 312,-27.5"/>
<text text-anchor="middle" x="370.5" y="-34.9" font-family="Ubuntu Mono" font-size="12.00">str_utilities::ii2str</text>
</a>
</g>
</g>
<!-- Node2&#45;&gt;Node4 -->
<g id="edge3" class="edge">
<title>Node2&#45;&gt;Node4</title>
<path fill="none" stroke="midnightblue" d="M275.22,-50.32C283.97,-49.18 293.06,-47.99 301.98,-46.83"/>
<polygon fill="midnightblue" stroke="midnightblue" points="302.49,-50.29 311.95,-45.52 301.58,-43.35 302.49,-50.29"/>
</g>
</g>
</svg>
