<?xml version="1.0" encoding="UTF-8" standalone="no"?>
<!DOCTYPE svg PUBLIC "-//W3C//DTD SVG 1.1//EN"
 "http://www.w3.org/Graphics/SVG/1.1/DTD/svg11.dtd">
<!-- Generated by graphviz version 2.43.0 (0)
 -->
<!-- Title: eq_ops::delta_r_plot Pages: 1 -->
<svg width="442pt" height="30pt"
 viewBox="0.00 0.00 442.00 30.00" xmlns="http://www.w3.org/2000/svg" xmlns:xlink="http://www.w3.org/1999/xlink">
<g id="graph0" class="graph" transform="scale(1 1) rotate(0) translate(4 26)">
<title>eq_ops::delta_r_plot</title>
<polygon fill="white" stroke="transparent" points="-4,4 -4,-26 438,-26 438,4 -4,4"/>
<!-- Node1 -->
<g id="node1" class="node">
<title>Node1</title>
<g id="a_node1"><a xlink:title="Plots HALF of the change in the position vectors for 2 different toroidal positions,...">
<polygon fill="#bfbfbf" stroke="black" points="298,-0.5 298,-21.5 434,-21.5 434,-0.5 298,-0.5"/>
<text text-anchor="middle" x="366" y="-7.9" font-family="Ubuntu Mono" font-size="12.00">eq_ops::delta_r_plot</text>
</a>
</g>
</g>
<!-- Node2 -->
<g id="node2" class="node">
<title>Node2</title>
<g id="a_node2"><a xlink:href="namespacedriver__post.html#a33b3c6f9018a0ddc92dce77394b8ab37" target="_top" xlink:title="The main driver routine for postprocessing.">
<polygon fill="white" stroke="black" points="78,-0.5 78,-21.5 262,-21.5 262,-0.5 78,-0.5"/>
<text text-anchor="middle" x="170" y="-7.9" font-family="Ubuntu Mono" font-size="12.00">driver_post::run_driver_post</text>
</a>
</g>
</g>
<!-- Node1&#45;&gt;Node2 -->
<g id="edge1" class="edge">
<title>Node1&#45;&gt;Node2</title>
<path fill="none" stroke="midnightblue" d="M287.85,-11C279.47,-11 270.87,-11 262.34,-11"/>
<polygon fill="midnightblue" stroke="midnightblue" points="287.96,-14.5 297.96,-11 287.96,-7.5 287.96,-14.5"/>
</g>
<!-- Node3 -->
<g id="node3" class="node">
<title>Node3</title>
<g id="a_node3"><a xlink:href="POST_8f90.html#ac289b64ac4671fea0b4f2298ba1188a1" target="_top" xlink:title="Peeling Ballooning in 3D: postprocessing.">
<polygon fill="white" stroke="black" points="0,-0.5 0,-21.5 42,-21.5 42,-0.5 0,-0.5"/>
<text text-anchor="middle" x="21" y="-7.9" font-family="Ubuntu Mono" font-size="12.00">post</text>
</a>
</g>
</g>
<!-- Node2&#45;&gt;Node3 -->
<g id="edge2" class="edge">
<title>Node2&#45;&gt;Node3</title>
<path fill="none" stroke="midnightblue" d="M67.83,-11C58.3,-11 49.5,-11 42.21,-11"/>
<polygon fill="midnightblue" stroke="midnightblue" points="67.99,-14.5 77.99,-11 67.99,-7.5 67.99,-14.5"/>
</g>
</g>
</svg>
