<?xml version="1.0" encoding="UTF-8" standalone="no"?>
<!DOCTYPE svg PUBLIC "-//W3C//DTD SVG 1.1//EN"
 "http://www.w3.org/Graphics/SVG/1.1/DTD/svg11.dtd">
<!-- Generated by graphviz version 14.1.2 (20260124.0452)
 -->
<!-- Title: str_utilities::c2strt Pages: 1 -->
<svg width="868pt" height="113pt"
 viewBox="0.00 0.00 868.00 113.00" xmlns="http://www.w3.org/2000/svg" xmlns:xlink="http://www.w3.org/1999/xlink">
<g id="graph0" class="graph" transform="scale(1 1) rotate(0) translate(4 109.12)">
<title>str_utilities::c2strt</title>
<!-- Node1 -->
<g id="Node000001" class="node">
<title>Node1</title>
<g id="a_Node000001"><a xlink:title="Convert a complex (double) to string.">
<polygon fill="#999999" stroke="#666666" points="860,-66.12 718,-66.12 718,-45.38 860,-45.38 860,-66.12"/>
<text xml:space="preserve" text-anchor="middle" x="789" y="-50.73" font-family="Ubuntu Mono" font-size="12.00">str_utilities::c2strt</text>
</a>
</g>
</g>
<!-- Node1&#45;&gt;Node1 -->
<g id="edge1_Node000001_Node000001" class="edge">
<title>Node1&#45;&gt;Node1</title>
<g id="a_edge1_Node000001_Node000001"><a xlink:title=" ">
<path fill="none" stroke="#63b8ff" d="M824.02,-77.61C819.38,-81.45 807.7,-84.12 789,-84.12 754.8,-84.12 744.11,-75.18 756.93,-66.52"/>
<polygon fill="#63b8ff" stroke="#63b8ff" points="827.41,-76.75 821.45,-67.98 820.64,-78.55 827.41,-76.75"/>
</a>
</g>
</g>
<!-- Node2 -->
<g id="Node000002" class="node">
<title>Node2</title>
<g id="a_Node000002"><a xlink:href="namespacedriver__post.html#af527706d4e696d4e507443d2f74194ef" target="_top" xlink:title="Initializes the POST driver.">
<polygon fill="white" stroke="#666666" points="664,-105.12 516,-105.12 516,-84.38 664,-84.38 664,-105.12"/>
<text xml:space="preserve" text-anchor="middle" x="590" y="-89.72" font-family="Ubuntu Mono" font-size="12.00">driver_post::init_post</text>
</a>
</g>
</g>
<!-- Node1&#45;&gt;Node2 -->
<g id="edge2_Node000001_Node000002" class="edge">
<title>Node1&#45;&gt;Node2</title>
<g id="a_edge2_Node000001_Node000002"><a xlink:title=" ">
<path fill="none" stroke="#63b8ff" d="M722.01,-68.81C697.31,-73.7 669.52,-79.2 645.92,-83.88"/>
<polygon fill="#63b8ff" stroke="#63b8ff" points="722.51,-72.28 731.64,-66.91 721.15,-65.42 722.51,-72.28"/>
</a>
</g>
</g>
<!-- Node4 -->
<g id="Node000004" class="node">
<title>Node4</title>
<g id="a_Node000004"><a xlink:href="namespacedriver__post.html#a33b3c6f9018a0ddc92dce77394b8ab37" target="_top" xlink:title="The main driver routine for postprocessing.">
<polygon fill="white" stroke="#666666" points="682,-66.12 498,-66.12 498,-45.38 682,-45.38 682,-66.12"/>
<text xml:space="preserve" text-anchor="middle" x="590" y="-50.73" font-family="Ubuntu Mono" font-size="12.00">driver_post::run_driver_post</text>
</a>
</g>
</g>
<!-- Node1&#45;&gt;Node4 -->
<g id="edge4_Node000001_Node000004" class="edge">
<title>Node1&#45;&gt;Node4</title>
<g id="a_edge4_Node000001_Node000004"><a xlink:title=" ">
<path fill="none" stroke="#63b8ff" d="M706.24,-55.75C698.33,-55.75 690.26,-55.75 682.26,-55.75"/>
<polygon fill="#63b8ff" stroke="#63b8ff" points="706.2,-59.25 716.2,-55.75 706.2,-52.25 706.2,-59.25"/>
</a>
</g>
</g>
<!-- Node5 -->
<g id="Node000005" class="node">
<title>Node5</title>
<g id="a_Node000005"><a xlink:href="namespaceslepc__ops.html#a0edf7e300f161391955a2b1c4c76d12c" target="_top" xlink:title="Stores the results.">
<polygon fill="white" stroke="#666666" points="670,-27.12 510,-27.12 510,-6.38 670,-6.38 670,-27.12"/>
<text xml:space="preserve" text-anchor="middle" x="590" y="-11.72" font-family="Ubuntu Mono" font-size="12.00">slepc_ops::store_results</text>
</a>
</g>
</g>
<!-- Node1&#45;&gt;Node5 -->
<g id="edge6_Node000001_Node000005" class="edge">
<title>Node1&#45;&gt;Node5</title>
<g id="a_edge6_Node000001_Node000005"><a xlink:title=" ">
<path fill="none" stroke="#63b8ff" d="M722.01,-42.69C697.31,-37.8 669.52,-32.3 645.92,-27.62"/>
<polygon fill="#63b8ff" stroke="#63b8ff" points="721.15,-46.08 731.64,-44.59 722.51,-39.22 721.15,-46.08"/>
</a>
</g>
</g>
<!-- Node3 -->
<g id="Node000003" class="node">
<title>Node3</title>
<g id="a_Node000003"><a xlink:href="POST_8f90.html#a28f8fd95cf9c74c0cfd8b386827a7a9b" target="_top" xlink:title="Peeling Ballooning in 3D: postprocessing.">
<polygon fill="white" stroke="#666666" points="441,-88.12 353,-88.12 353,-67.38 441,-67.38 441,-88.12"/>
<text xml:space="preserve" text-anchor="middle" x="397" y="-72.72" font-family="Ubuntu Mono" font-size="12.00">__post_f90__</text>
</a>
</g>
</g>
<!-- Node2&#45;&gt;Node3 -->
<g id="edge3_Node000002_Node000003" class="edge">
<title>Node2&#45;&gt;Node3</title>
<g id="a_edge3_Node000002_Node000003"><a xlink:title=" ">
<path fill="none" stroke="#63b8ff" d="M504.39,-87.22C482.57,-85.28 459.98,-83.27 441.26,-81.6"/>
<polygon fill="#63b8ff" stroke="#63b8ff" points="503.92,-90.69 514.19,-88.09 504.54,-83.72 503.92,-90.69"/>
</a>
</g>
</g>
<!-- Node4&#45;&gt;Node3 -->
<g id="edge5_Node000004_Node000003" class="edge">
<title>Node4&#45;&gt;Node3</title>
<g id="a_edge5_Node000004_Node000003"><a xlink:title=" ">
<path fill="none" stroke="#63b8ff" d="M486.58,-67.55C470.55,-69.39 454.78,-71.21 441.09,-72.79"/>
<polygon fill="#63b8ff" stroke="#63b8ff" points="486.66,-71.06 496.19,-66.44 485.86,-64.11 486.66,-71.06"/>
</a>
</g>
</g>
<!-- Node6 -->
<g id="Node000006" class="node">
<title>Node6</title>
<g id="a_Node000006"><a xlink:href="namespaceslepc__ops.html#ad5a8b4c450e66604733f3c04e7ef2bf9" target="_top" xlink:title="Solve the eigenvalue system using SLEPC.">
<polygon fill="white" stroke="#666666" points="462,-33.5 332,-33.5 332,0 462,0 462,-33.5"/>
<text xml:space="preserve" text-anchor="start" x="340" y="-18.1" font-family="Ubuntu Mono" font-size="12.00">slepc_ops::solve_ev</text>
<text xml:space="preserve" text-anchor="middle" x="397" y="-5.35" font-family="Ubuntu Mono" font-size="12.00">_system_slepc</text>
</a>
</g>
</g>
<!-- Node5&#45;&gt;Node6 -->
<g id="edge7_Node000005_Node000006" class="edge">
<title>Node5&#45;&gt;Node6</title>
<g id="a_edge7_Node000005_Node000006"><a xlink:title=" ">
<path fill="none" stroke="#63b8ff" d="M498.48,-16.75C486.26,-16.75 473.92,-16.75 462.28,-16.75"/>
<polygon fill="#63b8ff" stroke="#63b8ff" points="498.14,-20.25 508.14,-16.75 498.14,-13.25 498.14,-20.25"/>
</a>
</g>
</g>
<!-- Node7 -->
<g id="Node000007" class="node">
<title>Node7</title>
<g id="a_Node000007"><a xlink:href="namespacedriver__sol.html#a8dad197124fcba9c120e568f8f1b85c6" target="_top" xlink:title="Main driver of PB3D solution part.">
<polygon fill="white" stroke="#666666" points="296,-27.12 124,-27.12 124,-6.38 296,-6.38 296,-27.12"/>
<text xml:space="preserve" text-anchor="middle" x="210" y="-11.72" font-family="Ubuntu Mono" font-size="12.00">driver_sol::run_driver_sol</text>
</a>
</g>
</g>
<!-- Node6&#45;&gt;Node7 -->
<g id="edge8_Node000006_Node000007" class="edge">
<title>Node6&#45;&gt;Node7</title>
<g id="a_edge8_Node000006_Node000007"><a xlink:title=" ">
<path fill="none" stroke="#63b8ff" d="M320.19,-16.75C312.34,-16.75 304.32,-16.75 296.36,-16.75"/>
<polygon fill="#63b8ff" stroke="#63b8ff" points="320.04,-20.25 330.04,-16.75 320.04,-13.25 320.04,-20.25"/>
</a>
</g>
</g>
<!-- Node8 -->
<g id="Node000008" class="node">
<title>Node8</title>
<g id="a_Node000008"><a xlink:href="PB3D_8f90.html#a36e5b0ce05c9783f58b43c4463b290a1" target="_top" xlink:title="Peeling Ballooning in 3D.">
<polygon fill="white" stroke="#666666" points="88,-27.12 0,-27.12 0,-6.38 88,-6.38 88,-27.12"/>
<text xml:space="preserve" text-anchor="middle" x="44" y="-11.72" font-family="Ubuntu Mono" font-size="12.00">__pb3d_f90__</text>
</a>
</g>
</g>
<!-- Node7&#45;&gt;Node8 -->
<g id="edge9_Node000007_Node000008" class="edge">
<title>Node7&#45;&gt;Node8</title>
<g id="a_edge9_Node000007_Node000008"><a xlink:title=" ">
<path fill="none" stroke="#63b8ff" d="M112.17,-16.75C103.84,-16.75 95.71,-16.75 88.16,-16.75"/>
<polygon fill="#63b8ff" stroke="#63b8ff" points="112.12,-20.25 122.12,-16.75 112.12,-13.25 112.12,-20.25"/>
</a>
</g>
</g>
</g>
</svg>
