<?xml version="1.0" encoding="UTF-8" standalone="no"?>
<!DOCTYPE svg PUBLIC "-//W3C//DTD SVG 1.1//EN"
 "http://www.w3.org/Graphics/SVG/1.1/DTD/svg11.dtd">
<!-- Generated by graphviz version 14.1.2 (20260124.0452)
 -->
<!-- Title: x_utilities::trim_modes Pages: 1 -->
<svg width="666pt" height="80pt"
 viewBox="0.00 0.00 666.00 80.00" xmlns="http://www.w3.org/2000/svg" xmlns:xlink="http://www.w3.org/1999/xlink">
<g id="graph0" class="graph" transform="scale(1 1) rotate(0) translate(4 76.12)">
<title>x_utilities::trim_modes</title>
<!-- Node1 -->
<g id="Node000001" class="node">
<title>Node1</title>
<g id="a_Node000001"><a xlink:title="Limit input mode range to output mode range.">
<polygon fill="#999999" stroke="#666666" points="658,-42.75 504,-42.75 504,-22 658,-22 658,-42.75"/>
<text xml:space="preserve" text-anchor="middle" x="581" y="-27.35" font-family="Ubuntu Mono" font-size="12.00">x_utilities::trim_modes</text>
</a>
</g>
</g>
<!-- Node2 -->
<g id="Node000002" class="node">
<title>Node2</title>
<g id="a_Node000002"><a xlink:href="interfacesol__utilities_1_1calc__xuq.html#a4b43f8b6d93cfd1659f24da15adbcca0" target="_top" xlink:title="(time) array version">
<polygon fill="white" stroke="#666666" points="465,-72.12 335,-72.12 335,-38.62 465,-38.62 465,-72.12"/>
<text xml:space="preserve" text-anchor="start" x="343" y="-56.73" font-family="Ubuntu Mono" font-size="12.00">sol_utilities::calc</text>
<text xml:space="preserve" text-anchor="middle" x="400" y="-43.98" font-family="Ubuntu Mono" font-size="12.00">_xuq::calc_xuq_arr</text>
</a>
</g>
</g>
<!-- Node1&#45;&gt;Node2 -->
<g id="edge1_Node000001_Node000002" class="edge">
<title>Node1&#45;&gt;Node2</title>
<g id="a_edge1_Node000001_Node000002"><a xlink:title=" ">
<path fill="none" stroke="#63b8ff" d="M492.16,-43.66C483.12,-44.82 474.06,-45.99 465.35,-47.11"/>
<polygon fill="#63b8ff" stroke="#63b8ff" points="492.6,-47.13 502.07,-42.39 491.7,-40.19 492.6,-47.13"/>
</a>
</g>
</g>
<!-- Node3 -->
<g id="Node000003" class="node">
<title>Node3</title>
<g id="a_Node000003"><a xlink:href="namespacedriver__sol.html#a7e8f77792cb6ec5bc854ae07b4b44d9a" target="_top" xlink:title="Interpolate tensorial perturbation quantities in the third dimension.">
<polygon fill="white" stroke="#666666" points="468,-20.75 332,-20.75 332,0 468,0 468,-20.75"/>
<text xml:space="preserve" text-anchor="middle" x="400" y="-5.35" font-family="Ubuntu Mono" font-size="12.00">driver_sol::interp_v</text>
</a>
</g>
</g>
<!-- Node1&#45;&gt;Node3 -->
<g id="edge2_Node000001_Node000003" class="edge">
<title>Node1&#45;&gt;Node3</title>
<g id="a_edge2_Node000001_Node000003"><a xlink:title=" ">
<path fill="none" stroke="#63b8ff" d="M492.27,-21.59C484.25,-20.61 476.21,-19.62 468.41,-18.66"/>
<polygon fill="#63b8ff" stroke="#63b8ff" points="491.71,-25.05 502.07,-22.8 492.57,-18.1 491.71,-25.05"/>
</a>
</g>
</g>
<!-- Node4 -->
<g id="Node000004" class="node">
<title>Node4</title>
<g id="a_Node000004"><a xlink:href="namespacedriver__sol.html#a8dad197124fcba9c120e568f8f1b85c6" target="_top" xlink:title="Main driver of PB3D solution part.">
<polygon fill="white" stroke="#666666" points="296,-20.75 124,-20.75 124,0 296,0 296,-20.75"/>
<text xml:space="preserve" text-anchor="middle" x="210" y="-5.35" font-family="Ubuntu Mono" font-size="12.00">driver_sol::run_driver_sol</text>
</a>
</g>
</g>
<!-- Node3&#45;&gt;Node4 -->
<g id="edge3_Node000003_Node000004" class="edge">
<title>Node3&#45;&gt;Node4</title>
<g id="a_edge3_Node000003_Node000004"><a xlink:title=" ">
<path fill="none" stroke="#63b8ff" d="M320.19,-10.38C312.28,-10.38 304.21,-10.38 296.24,-10.38"/>
<polygon fill="#63b8ff" stroke="#63b8ff" points="320.15,-13.88 330.15,-10.38 320.15,-6.88 320.15,-13.88"/>
</a>
</g>
</g>
<!-- Node5 -->
<g id="Node000005" class="node">
<title>Node5</title>
<g id="a_Node000005"><a xlink:href="PB3D_8f90.html#a36e5b0ce05c9783f58b43c4463b290a1" target="_top" xlink:title="Peeling Ballooning in 3D.">
<polygon fill="white" stroke="#666666" points="88,-20.75 0,-20.75 0,0 88,0 88,-20.75"/>
<text xml:space="preserve" text-anchor="middle" x="44" y="-5.35" font-family="Ubuntu Mono" font-size="12.00">__pb3d_f90__</text>
</a>
</g>
</g>
<!-- Node4&#45;&gt;Node5 -->
<g id="edge4_Node000004_Node000005" class="edge">
<title>Node4&#45;&gt;Node5</title>
<g id="a_edge4_Node000004_Node000005"><a xlink:title=" ">
<path fill="none" stroke="#63b8ff" d="M112.17,-10.38C103.84,-10.38 95.71,-10.38 88.16,-10.38"/>
<polygon fill="#63b8ff" stroke="#63b8ff" points="112.12,-13.88 122.12,-10.38 112.12,-6.88 112.12,-13.88"/>
</a>
</g>
</g>
</g>
</svg>
