<?xml version="1.0" encoding="UTF-8" standalone="no"?>
<!DOCTYPE svg PUBLIC "-//W3C//DTD SVG 1.1//EN"
 "http://www.w3.org/Graphics/SVG/1.1/DTD/svg11.dtd">
<!-- Generated by graphviz version 2.43.0 (0)
 -->
<!-- Title: grid_ops::calc_ang_grid_eq_b Pages: 1 -->
<svg width="624pt" height="56pt"
 viewBox="0.00 0.00 624.00 55.50" xmlns="http://www.w3.org/2000/svg" xmlns:xlink="http://www.w3.org/1999/xlink">
<g id="graph0" class="graph" transform="scale(1 1) rotate(0) translate(4 51.5)">
<title>grid_ops::calc_ang_grid_eq_b</title>
<polygon fill="white" stroke="transparent" points="-4,4 -4,-51.5 620,-51.5 620,4 -4,4"/>
<!-- Node1 -->
<g id="node1" class="node">
<title>Node1</title>
<g id="a_node1"><a xlink:title="Calculate equilibrium grid that follows magnetic field lines.">
<polygon fill="#bfbfbf" stroke="black" points="489,-13 489,-47 616,-47 616,-13 489,-13"/>
<text text-anchor="start" x="497" y="-33.4" font-family="Ubuntu Mono" font-size="12.00">grid_ops::calc_ang</text>
<text text-anchor="middle" x="552.5" y="-20.4" font-family="Ubuntu Mono" font-size="12.00">_grid_eq_b</text>
</a>
</g>
</g>
<!-- Node2 -->
<g id="node2" class="node">
<title>Node2</title>
<g id="a_node2"><a xlink:href="namespacedriver__eq.html#adc9d5dff288fa512e5ef885627d940cc" target="_top" xlink:title="Main driver of PB3D equilibrium part.">
<polygon fill="white" stroke="black" points="83,-19.5 83,-40.5 246,-40.5 246,-19.5 83,-19.5"/>
<text text-anchor="middle" x="164.5" y="-26.9" font-family="Ubuntu Mono" font-size="12.00">driver_eq::run_driver_eq</text>
</a>
</g>
</g>
<!-- Node1&#45;&gt;Node2 -->
<g id="edge1" class="edge">
<title>Node1&#45;&gt;Node2</title>
<path fill="none" stroke="midnightblue" d="M478.81,-30.82C470.12,-30.89 461.36,-30.96 453,-31 377,-31.39 358,-31.33 282,-31 270.37,-30.95 258.09,-30.87 246.03,-30.78"/>
<polygon fill="midnightblue" stroke="midnightblue" points="479,-34.32 488.97,-30.73 478.94,-27.32 479,-34.32"/>
</g>
<!-- Node4 -->
<g id="node4" class="node">
<title>Node4</title>
<g id="a_node4"><a xlink:href="namespacegrid__ops.html#ad16495ddd320562451c2325bafecf2d8" target="_top" xlink:title="Sets up the field&#45;aligned equilibrium grid.">
<polygon fill="white" stroke="black" points="282,-0.5 282,-21.5 453,-21.5 453,-0.5 282,-0.5"/>
<text text-anchor="middle" x="367.5" y="-7.9" font-family="Ubuntu Mono" font-size="12.00">grid_ops::setup_grid_eq_b</text>
</a>
</g>
</g>
<!-- Node1&#45;&gt;Node4 -->
<g id="edge3" class="edge">
<title>Node1&#45;&gt;Node4</title>
<path fill="none" stroke="midnightblue" d="M478.67,-22.44C470.28,-21.57 461.67,-20.67 453.13,-19.79"/>
<polygon fill="midnightblue" stroke="midnightblue" points="478.47,-25.94 488.78,-23.49 479.19,-18.97 478.47,-25.94"/>
</g>
<!-- Node3 -->
<g id="node3" class="node">
<title>Node3</title>
<g id="a_node3"><a xlink:href="PB3D_8f90.html#afaee01f014ab3398eecac996b2795fd2" target="_top" xlink:title="Peeling Ballooning in 3D.">
<polygon fill="white" stroke="black" points="0,-19.5 0,-40.5 47,-40.5 47,-19.5 0,-19.5"/>
<text text-anchor="middle" x="23.5" y="-26.9" font-family="Ubuntu Mono" font-size="12.00">pb3d</text>
</a>
</g>
</g>
<!-- Node2&#45;&gt;Node3 -->
<g id="edge2" class="edge">
<title>Node2&#45;&gt;Node3</title>
<path fill="none" stroke="midnightblue" d="M72.42,-30C63.17,-30 54.49,-30 47.12,-30"/>
<polygon fill="midnightblue" stroke="midnightblue" points="72.64,-33.5 82.64,-30 72.64,-26.5 72.64,-33.5"/>
</g>
<!-- Node4&#45;&gt;Node2 -->
<g id="edge4" class="edge">
<title>Node4&#45;&gt;Node2</title>
<path fill="none" stroke="midnightblue" d="M271.83,-19.95C263.26,-20.76 254.64,-21.57 246.21,-22.37"/>
<polygon fill="midnightblue" stroke="midnightblue" points="272.21,-23.43 281.84,-19 271.56,-16.46 272.21,-23.43"/>
</g>
</g>
</svg>
