<?xml version="1.0" encoding="UTF-8" standalone="no"?>
<!DOCTYPE svg PUBLIC "-//W3C//DTD SVG 1.1//EN"
 "http://www.w3.org/Graphics/SVG/1.1/DTD/svg11.dtd">
<!-- Generated by graphviz version 2.38.0 (20140413.2041)
 -->
<!-- Title: eq_ops::delta_r_plot Pages: 1 -->
<svg width="1237pt" height="533pt"
 viewBox="0.00 0.00 1237.00 532.71" xmlns="http://www.w3.org/2000/svg" xmlns:xlink="http://www.w3.org/1999/xlink">
<g id="graph0" class="graph" transform="scale(1 1) rotate(0) translate(4 528.714)">
<title>eq_ops::delta_r_plot</title>
<polygon fill="white" stroke="none" points="-4,4 -4,-528.714 1233,-528.714 1233,4 -4,4"/>
<!-- Node79 -->
<g id="node1" class="node"><title>Node79</title>
<polygon fill="#bfbfbf" stroke="black" points="0,-306.214 0,-327.214 137,-327.214 137,-306.214 0,-306.214"/>
<text text-anchor="middle" x="68.5" y="-313.614" font-family="Ubuntu Mono" font-size="12.00">eq_ops::delta_r_plot</text>
</g>
<!-- Node80 -->
<g id="node2" class="node"><title>Node80</title>
<g id="a_node2"><a xlink:href="namespacegrid__utilities.html#ad3d9386b9abcb1a7e17369a1b3a3750d" target="_top" xlink:title="Calculates contra&#45; and covariant components of a vector in multiple coordinate systems. ">
<polygon fill="white" stroke="black" points="176,-299.714 176,-333.714 313,-333.714 313,-299.714 176,-299.714"/>
<text text-anchor="start" x="184" y="-320.114" font-family="Ubuntu Mono" font-size="12.00">grid_utilities::calc</text>
<text text-anchor="middle" x="244.5" y="-307.114" font-family="Ubuntu Mono" font-size="12.00">_vec_comp</text>
</a>
</g>
</g>
<!-- Node79&#45;&gt;Node80 -->
<g id="edge1" class="edge"><title>Node79&#45;&gt;Node80</title>
<path fill="none" stroke="midnightblue" d="M137.271,-316.714C146.591,-316.714 156.221,-316.714 165.704,-316.714"/>
<polygon fill="midnightblue" stroke="midnightblue" points="165.914,-320.214 175.914,-316.714 165.914,-313.214 165.914,-320.214"/>
</g>
<!-- Node81 -->
<g id="node3" class="node"><title>Node81</title>
<g id="a_node3"><a xlink:href="namespacenum__utilities.html#a5ee3fbd1fe67d0deefc7194631389f2a" target="_top" xlink:title="Convert 2&#45;D coordinates (i,j) to the storage convention used in matrices. ">
<polygon fill="white" stroke="black" points="379,-423.214 379,-444.214 492,-444.214 492,-423.214 379,-423.214"/>
<text text-anchor="middle" x="435.5" y="-430.614" font-family="Ubuntu Mono" font-size="12.00">num_utilities::c</text>
</a>
</g>
</g>
<!-- Node79&#45;&gt;Node81 -->
<g id="edge32" class="edge"><title>Node79&#45;&gt;Node81</title>
<path fill="none" stroke="midnightblue" d="M86.0875,-327.249C106.024,-339.497 140.823,-359.58 173,-371.714 237.699,-396.113 315.125,-413.041 368.86,-422.971"/>
<polygon fill="midnightblue" stroke="midnightblue" points="368.48,-426.459 378.945,-424.804 369.732,-419.572 368.48,-426.459"/>
</g>
<!-- Node83 -->
<g id="node5" class="node"><title>Node83</title>
<g id="a_node5"><a xlink:href="namespacemessages.html#aa4a8d01563e92558e8a0875b075ec54c" target="_top" xlink:title="Write output to file identified by output_i. ">
<polygon fill="white" stroke="black" points="931,-254.214 931,-275.214 1038,-275.214 1038,-254.214 931,-254.214"/>
<text text-anchor="middle" x="984.5" y="-261.614" font-family="Ubuntu Mono" font-size="12.00">messages::writo</text>
</a>
</g>
</g>
<!-- Node79&#45;&gt;Node83 -->
<g id="edge33" class="edge"><title>Node79&#45;&gt;Node83</title>
<path fill="none" stroke="midnightblue" d="M75.2474,-327.256C88.9268,-351.365 125.83,-410.892 173,-442.714 273.973,-510.834 312.698,-524.714 434.5,-524.714 434.5,-524.714 434.5,-524.714 639.5,-524.714 685.12,-524.714 864.023,-485.785 895,-459.714 950.12,-413.324 972.502,-325.433 980.126,-285.45"/>
<polygon fill="midnightblue" stroke="midnightblue" points="983.587,-285.977 981.9,-275.518 976.696,-284.747 983.587,-285.977"/>
</g>
<!-- Node86 -->
<g id="node8" class="node"><title>Node86</title>
<g id="a_node8"><a xlink:href="namespacestr__utilities.html#a0b97e51770725a3e98ed393d26681414" target="_top" xlink:title="Convert an integer to string. ">
<polygon fill="white" stroke="black" points="758,-389.214 758,-410.214 895,-410.214 895,-389.214 758,-389.214"/>
<text text-anchor="middle" x="826.5" y="-396.614" font-family="Ubuntu Mono" font-size="12.00">str_utilities::i2str</text>
</a>
</g>
</g>
<!-- Node79&#45;&gt;Node86 -->
<g id="edge35" class="edge"><title>Node79&#45;&gt;Node86</title>
<path fill="none" stroke="midnightblue" d="M78.6151,-327.36C95.3635,-346.237 133.001,-385.571 173,-406.714 245.718,-445.152 270.425,-443.183 352,-453.714 425.611,-463.217 445.06,-460.178 519,-453.714 607.718,-445.959 709.25,-425.805 770.319,-412.433"/>
<polygon fill="midnightblue" stroke="midnightblue" points="771.123,-415.84 780.133,-410.266 769.613,-409.005 771.123,-415.84"/>
</g>
<!-- Node87 -->
<g id="node9" class="node"><title>Node87</title>
<g id="a_node9"><a xlink:href="namespacemessages.html#a6e6bfb084063e4cc91ee86e542043302" target="_top" xlink:title="Increases/decreases lvl of output. ">
<polygon fill="white" stroke="black" points="770,-122.214 770,-143.214 883,-143.214 883,-122.214 770,-122.214"/>
<text text-anchor="middle" x="826.5" y="-129.614" font-family="Ubuntu Mono" font-size="12.00">messages::lvl_ud</text>
</a>
</g>
</g>
<!-- Node79&#45;&gt;Node87 -->
<g id="edge34" class="edge"><title>Node79&#45;&gt;Node87</title>
<path fill="none" stroke="midnightblue" d="M74.4588,-306.101C87.1984,-279.9 123.577,-211.47 173,-172.714 240.477,-119.8 268.063,-118.253 352,-100.714 512.989,-67.075 560.073,-65.9279 722,-94.7142 747.104,-99.177 774.104,-109.284 794.232,-117.953"/>
<polygon fill="midnightblue" stroke="midnightblue" points="792.961,-121.217 803.522,-122.062 795.792,-114.816 792.961,-121.217"/>
</g>
<!-- Node88 -->
<g id="node10" class="node"><title>Node88</title>
<g id="a_node10"><a xlink:href="namespacegrid__utilities.html#a67001ff9bbcad707aacf17f90a748d90" target="_top" xlink:title="Trim a grid, removing any overlap between the different regions. ">
<polygon fill="white" stroke="black" points="352,-383.214 352,-404.214 519,-404.214 519,-383.214 352,-383.214"/>
<text text-anchor="middle" x="435.5" y="-390.614" font-family="Ubuntu Mono" font-size="12.00">grid_utilities::trim_grid</text>
</a>
</g>
</g>
<!-- Node79&#45;&gt;Node88 -->
<g id="edge28" class="edge"><title>Node79&#45;&gt;Node88</title>
<path fill="none" stroke="midnightblue" d="M109.686,-327.341C128.806,-332.261 152.024,-338.038 173,-342.714 238.21,-357.253 313.081,-371.621 365.953,-381.383"/>
<polygon fill="midnightblue" stroke="midnightblue" points="365.425,-384.844 375.893,-383.212 366.691,-377.96 365.425,-384.844"/>
</g>
<!-- Node91 -->
<g id="node13" class="node"><title>Node91</title>
<g id="a_node13"><a xlink:href="namespacegrid__utilities.html#a39e7cd9b8f173994358dbdd6b57827e1" target="_top" xlink:title="Calculates , &#160;and &#160;on a grid grid_XYZ, determined through its E(quilibrium) coordinates. ">
<polygon fill="white" stroke="black" points="367,-253.714 367,-287.714 504,-287.714 504,-253.714 367,-253.714"/>
<text text-anchor="start" x="375" y="-274.114" font-family="Ubuntu Mono" font-size="12.00">grid_utilities::calc</text>
<text text-anchor="middle" x="435.5" y="-261.114" font-family="Ubuntu Mono" font-size="12.00">_xyz_grid</text>
</a>
</g>
</g>
<!-- Node79&#45;&gt;Node91 -->
<g id="edge27" class="edge"><title>Node79&#45;&gt;Node91</title>
<path fill="none" stroke="midnightblue" d="M103.661,-306.122C123.674,-300.342 149.549,-293.592 173,-289.714 234.259,-279.586 304.48,-274.857 356.72,-272.648"/>
<polygon fill="midnightblue" stroke="midnightblue" points="357.068,-276.137 366.92,-272.239 356.788,-269.143 357.068,-276.137"/>
</g>
<!-- Node92 -->
<g id="node14" class="node"><title>Node92</title>
<g id="a_node14"><a xlink:href="namespaceoutput__ops.html#a50bfbb88cc91805469353c3ff47b3e2e" target="_top" xlink:title="Use external program to draw a plot. ">
<polygon fill="white" stroke="black" points="370,-175.214 370,-196.214 501,-196.214 501,-175.214 370,-175.214"/>
<text text-anchor="middle" x="435.5" y="-182.614" font-family="Ubuntu Mono" font-size="12.00">output_ops::draw_ex</text>
</a>
</g>
</g>
<!-- Node79&#45;&gt;Node92 -->
<g id="edge36" class="edge"><title>Node79&#45;&gt;Node92</title>
<path fill="none" stroke="midnightblue" d="M75.548,-305.928C89.3189,-282.569 125.528,-227.568 173,-204.714 231.181,-176.705 305.179,-173.903 359.599,-176.973"/>
<polygon fill="midnightblue" stroke="midnightblue" points="359.663,-180.484 369.867,-177.634 360.113,-173.498 359.663,-180.484"/>
</g>
<!-- Node95 -->
<g id="node17" class="node"><title>Node95</title>
<g id="a_node17"><a xlink:href="namespacegrid__utilities.html#a0854b2d6cc61a31f68b4afe7304077a9" target="_top" xlink:title="calculates the cosine and sine mode numbers of a function defined on a non&#45;regular grid...">
<polygon fill="white" stroke="black" points="173,-214.214 173,-235.214 316,-235.214 316,-214.214 173,-214.214"/>
<text text-anchor="middle" x="244.5" y="-221.614" font-family="Ubuntu Mono" font-size="12.00">grid_utilities::nufft</text>
</a>
</g>
</g>
<!-- Node79&#45;&gt;Node95 -->
<g id="edge29" class="edge"><title>Node79&#45;&gt;Node95</title>
<path fill="none" stroke="midnightblue" d="M86.4248,-306.205C106.686,-293.789 141.797,-272.79 173,-256.714 184.669,-250.703 197.694,-244.621 209.343,-239.397"/>
<polygon fill="midnightblue" stroke="midnightblue" points="211.019,-242.483 218.744,-235.232 208.184,-236.083 211.019,-242.483"/>
</g>
<!-- Node80&#45;&gt;Node81 -->
<g id="edge2" class="edge"><title>Node80&#45;&gt;Node81</title>
<path fill="none" stroke="midnightblue" d="M259.452,-333.912C278.18,-355.825 313.569,-393.3 352,-413.714 357.466,-416.618 363.36,-419.107 369.393,-421.24"/>
<polygon fill="midnightblue" stroke="midnightblue" points="368.356,-424.583 378.947,-424.306 370.495,-417.918 368.356,-424.583"/>
</g>
<!-- Node82 -->
<g id="node4" class="node"><title>Node82</title>
<g id="a_node4"><a xlink:href="namespacevmec__utilities.html#ac699116fc25fdea3e28e488513d97c87" target="_top" xlink:title="Calculate the trigonometric cosine and sine factors. ">
<polygon fill="white" stroke="black" points="570,-461.714 570,-495.714 707,-495.714 707,-461.714 570,-461.714"/>
<text text-anchor="start" x="578" y="-482.114" font-family="Ubuntu Mono" font-size="12.00">vmec_utilities::calc</text>
<text text-anchor="middle" x="638.5" y="-469.114" font-family="Ubuntu Mono" font-size="12.00">_trigon_factors</text>
</a>
</g>
</g>
<!-- Node80&#45;&gt;Node82 -->
<g id="edge3" class="edge"><title>Node80&#45;&gt;Node82</title>
<path fill="none" stroke="midnightblue" d="M313.048,-332.22C325.966,-335.105 339.391,-338.048 352,-340.714 426.021,-356.365 452.979,-336.765 519,-373.714 539.585,-385.235 537.741,-396.634 555,-412.714 571.079,-427.695 590.178,-443.11 605.949,-455.271"/>
<polygon fill="midnightblue" stroke="midnightblue" points="604.256,-458.382 614.328,-461.669 608.504,-452.819 604.256,-458.382"/>
</g>
<!-- Node80&#45;&gt;Node83 -->
<g id="edge8" class="edge"><title>Node80&#45;&gt;Node83</title>
<path fill="none" stroke="midnightblue" d="M267.776,-299.496C283.509,-286.177 303.874,-266.396 316,-244.714 348.201,-187.137 300.608,-142.077 352,-100.714 540.051,50.6362 692.243,18.2809 895,-112.714 942.908,-143.666 968.02,-210.37 978.096,-244.177"/>
<polygon fill="midnightblue" stroke="midnightblue" points="974.76,-245.24 980.85,-253.91 981.496,-243.335 974.76,-245.24"/>
</g>
<!-- Node80&#45;&gt;Node87 -->
<g id="edge9" class="edge"><title>Node80&#45;&gt;Node87</title>
<path fill="none" stroke="midnightblue" d="M265.676,-299.642C280.939,-285.953 301.651,-265.633 316,-244.714 337.826,-212.896 321.391,-189.206 352,-165.714 477.831,-69.1439 682.132,-99.1393 775.761,-119.967"/>
<polygon fill="midnightblue" stroke="midnightblue" points="775.018,-123.388 785.546,-122.201 776.576,-116.563 775.018,-123.388"/>
</g>
<!-- Node80&#45;&gt;Node88 -->
<g id="edge11" class="edge"><title>Node80&#45;&gt;Node88</title>
<path fill="none" stroke="midnightblue" d="M277.058,-333.778C297.942,-344.655 326.145,-358.56 352,-368.714 362.666,-372.903 374.333,-376.823 385.447,-380.26"/>
<polygon fill="midnightblue" stroke="midnightblue" points="384.448,-383.614 395.032,-383.15 386.469,-376.912 384.448,-383.614"/>
</g>
<!-- Node89 -->
<g id="node11" class="node"><title>Node89</title>
<g id="a_node11"><a xlink:href="namespacegrid__utilities.html#ad059876fabae2c8445e5d3971ba28742" target="_top" xlink:title="Set up the factors for the interpolation calculation in a matrix A using a polynomial order ord...">
<polygon fill="white" stroke="black" points="567,-369.714 567,-403.714 710,-403.714 710,-369.714 567,-369.714"/>
<text text-anchor="start" x="575" y="-390.114" font-family="Ubuntu Mono" font-size="12.00">grid_utilities::setup</text>
<text text-anchor="middle" x="638.5" y="-377.114" font-family="Ubuntu Mono" font-size="12.00">_interp_data</text>
</a>
</g>
</g>
<!-- Node80&#45;&gt;Node89 -->
<g id="edge12" class="edge"><title>Node80&#45;&gt;Node89</title>
<path fill="none" stroke="midnightblue" d="M313.214,-317.348C369.078,-319.132 450.069,-324.632 519,-340.714 535.718,-344.615 538.997,-348.499 555,-354.714 564.344,-358.343 574.285,-362.201 583.91,-365.936"/>
<polygon fill="midnightblue" stroke="midnightblue" points="582.808,-369.262 593.397,-369.616 585.34,-362.736 582.808,-369.262"/>
</g>
<!-- Node80&#45;&gt;Node91 -->
<g id="edge16" class="edge"><title>Node80&#45;&gt;Node91</title>
<path fill="none" stroke="midnightblue" d="M313.2,-300.237C327.4,-296.781 342.48,-293.111 357.006,-289.575"/>
<polygon fill="midnightblue" stroke="midnightblue" points="358.067,-292.919 366.956,-287.154 356.412,-286.118 358.067,-292.919"/>
</g>
<!-- Node80&#45;&gt;Node92 -->
<g id="edge18" class="edge"><title>Node80&#45;&gt;Node92</title>
<path fill="none" stroke="midnightblue" d="M270.208,-299.588C306.737,-274.27 374.698,-227.164 410.698,-202.212"/>
<polygon fill="midnightblue" stroke="midnightblue" points="412.899,-204.945 419.123,-196.372 408.911,-199.192 412.899,-204.945"/>
</g>
<!-- Node82&#45;&gt;Node83 -->
<g id="edge4" class="edge"><title>Node82&#45;&gt;Node83</title>
<path fill="none" stroke="midnightblue" d="M707.011,-477.665C762.426,-473.629 840.388,-460.33 895,-419.714 941.443,-385.174 967.228,-318.521 977.775,-285.004"/>
<polygon fill="midnightblue" stroke="midnightblue" points="981.144,-285.953 980.671,-275.369 974.441,-283.938 981.144,-285.953"/>
</g>
<!-- Node82&#45;&gt;Node86 -->
<g id="edge7" class="edge"><title>Node82&#45;&gt;Node86</title>
<path fill="none" stroke="midnightblue" d="M685.073,-461.565C697.133,-456.883 710.105,-451.717 722,-446.714 746.341,-436.476 773.513,-424.1 793.907,-414.618"/>
<polygon fill="midnightblue" stroke="midnightblue" points="795.467,-417.753 803.048,-410.351 792.506,-411.41 795.467,-417.753"/>
</g>
<!-- Node84 -->
<g id="node6" class="node"><title>Node84</title>
<g id="a_node6"><a xlink:href="namespacemessages.html#a82dddaab795b78b3d39e1ff1aab2f665" target="_top" xlink:title="Returns the memory usage in kilobytes. ">
<polygon fill="white" stroke="black" points="1074,-274.214 1074,-295.214 1229,-295.214 1229,-274.214 1074,-274.214"/>
<text text-anchor="middle" x="1151.5" y="-281.614" font-family="Ubuntu Mono" font-size="12.00">messages::get_mem_usage</text>
</a>
</g>
</g>
<!-- Node83&#45;&gt;Node84 -->
<g id="edge5" class="edge"><title>Node83&#45;&gt;Node84</title>
<path fill="none" stroke="midnightblue" d="M1038.16,-271.097C1046.45,-272.102 1055.21,-273.164 1064.03,-274.232"/>
<polygon fill="midnightblue" stroke="midnightblue" points="1063.64,-277.711 1073.98,-275.44 1064.48,-270.762 1063.64,-277.711"/>
</g>
<!-- Node85 -->
<g id="node7" class="node"><title>Node85</title>
<g id="a_node7"><a xlink:href="namespacemessages.html#a61fd0b51b5e37d58fdc993c01792a3fd" target="_top" xlink:title="Returns the time. ">
<polygon fill="white" stroke="black" points="1086,-234.214 1086,-255.214 1217,-255.214 1217,-234.214 1086,-234.214"/>
<text text-anchor="middle" x="1151.5" y="-241.614" font-family="Ubuntu Mono" font-size="12.00">messages::get_clock</text>
</a>
</g>
</g>
<!-- Node83&#45;&gt;Node85 -->
<g id="edge6" class="edge"><title>Node83&#45;&gt;Node85</title>
<path fill="none" stroke="midnightblue" d="M1038.16,-258.331C1050.14,-256.879 1063.09,-255.309 1075.8,-253.769"/>
<polygon fill="midnightblue" stroke="midnightblue" points="1076.4,-257.222 1085.91,-252.544 1075.56,-250.272 1076.4,-257.222"/>
</g>
<!-- Node87&#45;&gt;Node83 -->
<g id="edge10" class="edge"><title>Node87&#45;&gt;Node83</title>
<path fill="none" stroke="midnightblue" d="M840.002,-143.293C866.816,-165.982 930.073,-219.507 962.911,-247.293"/>
<polygon fill="midnightblue" stroke="midnightblue" points="961.043,-250.297 970.938,-254.085 965.565,-244.954 961.043,-250.297"/>
</g>
<!-- Node89&#45;&gt;Node83 -->
<g id="edge13" class="edge"><title>Node89&#45;&gt;Node83</title>
<path fill="none" stroke="midnightblue" d="M710.227,-383.071C763.242,-378.097 836.431,-366.363 895,-338.714 923.639,-325.195 950.663,-300.144 967.142,-282.965"/>
<polygon fill="midnightblue" stroke="midnightblue" points="970.079,-284.947 974.344,-275.249 964.962,-280.171 970.079,-284.947"/>
</g>
<!-- Node89&#45;&gt;Node86 -->
<g id="edge14" class="edge"><title>Node89&#45;&gt;Node86</title>
<path fill="none" stroke="midnightblue" d="M710.084,-391.648C722.288,-392.5 735.039,-393.392 747.428,-394.258"/>
<polygon fill="midnightblue" stroke="midnightblue" points="747.509,-397.772 757.729,-394.978 747.997,-390.789 747.509,-397.772"/>
</g>
<!-- Node90 -->
<g id="node12" class="node"><title>Node90</title>
<g id="a_node12"><a xlink:href="namespacestr__utilities.html#a92ac6c0af1979df094de1caddd28ade0" target="_top" xlink:title="Convert a real (double) to string. ">
<polygon fill="white" stroke="black" points="758,-308.214 758,-329.214 895,-329.214 895,-308.214 758,-308.214"/>
<text text-anchor="middle" x="826.5" y="-315.614" font-family="Ubuntu Mono" font-size="12.00">str_utilities::r2str</text>
</a>
</g>
</g>
<!-- Node89&#45;&gt;Node90 -->
<g id="edge15" class="edge"><title>Node89&#45;&gt;Node90</title>
<path fill="none" stroke="midnightblue" d="M686.436,-369.555C717.57,-358.173 757.918,-343.422 787.128,-332.743"/>
<polygon fill="midnightblue" stroke="midnightblue" points="788.388,-336.009 796.578,-329.288 785.984,-329.434 788.388,-336.009"/>
</g>
<!-- Node91&#45;&gt;Node89 -->
<g id="edge17" class="edge"><title>Node91&#45;&gt;Node89</title>
<path fill="none" stroke="midnightblue" d="M493.94,-287.833C502.824,-291.9 511.52,-296.817 519,-302.714 541.074,-320.117 532.926,-337.311 555,-354.714 559.909,-358.584 565.341,-362.032 571.006,-365.095"/>
<polygon fill="midnightblue" stroke="midnightblue" points="569.547,-368.278 580.06,-369.596 572.663,-362.01 569.547,-368.278"/>
</g>
<!-- Node92&#45;&gt;Node83 -->
<g id="edge20" class="edge"><title>Node92&#45;&gt;Node83</title>
<path fill="none" stroke="midnightblue" d="M471.655,-196.301C486.701,-201.49 504.179,-208.42 519,-216.714 536.688,-226.614 535.986,-237.691 555,-244.714 678.185,-290.217 834.969,-282.524 920.622,-273.33"/>
<polygon fill="midnightblue" stroke="midnightblue" points="921.158,-276.792 930.708,-272.204 920.382,-269.835 921.158,-276.792"/>
</g>
<!-- Node92&#45;&gt;Node86 -->
<g id="edge19" class="edge"><title>Node92&#45;&gt;Node86</title>
<path fill="none" stroke="midnightblue" d="M485.53,-196.336C497.705,-200.926 509.868,-207.454 519,-216.714 552.169,-250.347 520.073,-284.911 555,-316.714 611.67,-368.316 649.02,-336.304 722,-359.714 745.488,-367.249 771.373,-377.253 791.382,-385.372"/>
<polygon fill="midnightblue" stroke="midnightblue" points="790.115,-388.635 800.695,-389.187 792.768,-382.157 790.115,-388.635"/>
</g>
<!-- Node92&#45;&gt;Node87 -->
<g id="edge25" class="edge"><title>Node92&#45;&gt;Node87</title>
<path fill="none" stroke="midnightblue" d="M466.779,-175.125C490.481,-167.302 524.438,-157.111 555,-151.714 624.141,-139.506 704.528,-135.074 759.591,-133.501"/>
<polygon fill="midnightblue" stroke="midnightblue" points="760.007,-136.991 769.913,-133.231 759.824,-129.993 760.007,-136.991"/>
</g>
<!-- Node92&#45;&gt;Node90 -->
<g id="edge26" class="edge"><title>Node92&#45;&gt;Node90</title>
<path fill="none" stroke="midnightblue" d="M493.206,-196.368C502.477,-199.873 511.492,-204.529 519,-210.714 545.394,-232.457 527.076,-258.975 555,-278.714 610.859,-318.202 689.538,-325.909 747.65,-325.102"/>
<polygon fill="midnightblue" stroke="midnightblue" points="747.967,-328.596 757.885,-324.87 747.808,-321.598 747.967,-328.596"/>
</g>
<!-- Node93 -->
<g id="node15" class="node"><title>Node93</title>
<g id="a_node15"><a xlink:href="namespacefiles__utilities.html#ac6066df405564ba2f5e3c4bba726c1f8" target="_top" xlink:title="Search for available new unit. ">
<polygon fill="white" stroke="black" points="555,-161.214 555,-182.214 722,-182.214 722,-161.214 555,-161.214"/>
<text text-anchor="middle" x="638.5" y="-168.614" font-family="Ubuntu Mono" font-size="12.00">files_utilities::nextunit</text>
</a>
</g>
</g>
<!-- Node92&#45;&gt;Node93 -->
<g id="edge21" class="edge"><title>Node92&#45;&gt;Node93</title>
<path fill="none" stroke="midnightblue" d="M501.204,-181.207C515.098,-180.24 530.041,-179.199 544.761,-178.174"/>
<polygon fill="midnightblue" stroke="midnightblue" points="545.168,-181.654 554.9,-177.467 544.681,-174.671 545.168,-181.654"/>
</g>
<!-- Node94 -->
<g id="node16" class="node"><title>Node94</title>
<g id="a_node16"><a xlink:href="namespaceoutput__ops.html#aa9e4855511b6ea16a08b3efb587bec51" target="_top" xlink:title="Executes command line, or displays a message if disabled. ">
<polygon fill="white" stroke="black" points="561,-201.714 561,-235.714 716,-235.714 716,-201.714 561,-201.714"/>
<text text-anchor="start" x="569" y="-222.114" font-family="Ubuntu Mono" font-size="12.00">output_ops::use_execute</text>
<text text-anchor="middle" x="638.5" y="-209.114" font-family="Ubuntu Mono" font-size="12.00">_command_line</text>
</a>
</g>
</g>
<!-- Node92&#45;&gt;Node94 -->
<g id="edge22" class="edge"><title>Node92&#45;&gt;Node94</title>
<path fill="none" stroke="midnightblue" d="M500.65,-196.246C516.689,-198.88 534.156,-201.747 551.079,-204.526"/>
<polygon fill="midnightblue" stroke="midnightblue" points="550.53,-207.982 560.965,-206.149 551.664,-201.075 550.53,-207.982"/>
</g>
<!-- Node94&#45;&gt;Node83 -->
<g id="edge23" class="edge"><title>Node94&#45;&gt;Node83</title>
<path fill="none" stroke="midnightblue" d="M716.17,-227.662C766.959,-233.75 835.025,-242.217 895,-250.714 903.303,-251.891 912.033,-253.192 920.642,-254.514"/>
<polygon fill="midnightblue" stroke="midnightblue" points="920.242,-257.994 930.661,-256.069 921.316,-251.077 920.242,-257.994"/>
</g>
<!-- Node94&#45;&gt;Node87 -->
<g id="edge24" class="edge"><title>Node94&#45;&gt;Node87</title>
<path fill="none" stroke="midnightblue" d="M696.874,-201.6C705.404,-198.579 714.009,-195.256 722,-191.714 749.876,-179.359 779.969,-161.668 800.482,-148.884"/>
<polygon fill="midnightblue" stroke="midnightblue" points="802.598,-151.687 809.19,-143.392 798.864,-145.766 802.598,-151.687"/>
</g>
<!-- Node95&#45;&gt;Node89 -->
<g id="edge30" class="edge"><title>Node95&#45;&gt;Node89</title>
<path fill="none" stroke="midnightblue" d="M316.106,-220.938C386.539,-218.666 488.527,-219.904 519,-243.714 559.867,-275.646 519.376,-317.022 555,-354.714 558.383,-358.294 562.213,-361.479 566.325,-364.312"/>
<polygon fill="midnightblue" stroke="midnightblue" points="564.744,-367.446 575.107,-369.647 568.378,-361.464 564.744,-367.446"/>
</g>
<!-- Node95&#45;&gt;Node92 -->
<g id="edge31" class="edge"><title>Node95&#45;&gt;Node92</title>
<path fill="none" stroke="midnightblue" d="M296.646,-214.16C320.283,-209.283 348.54,-203.452 373.299,-198.343"/>
<polygon fill="midnightblue" stroke="midnightblue" points="374.227,-201.725 383.313,-196.277 372.812,-194.87 374.227,-201.725"/>
</g>
</g>
</svg>
