<?xml version="1.0" encoding="UTF-8" standalone="no"?>
<!DOCTYPE svg PUBLIC "-//W3C//DTD SVG 1.1//EN"
 "http://www.w3.org/Graphics/SVG/1.1/DTD/svg11.dtd">
<!-- Generated by graphviz version 2.43.0 (0)
 -->
<!-- Title: grid_utilities::nufft Pages: 1 -->
<svg width="877pt" height="201pt"
 viewBox="0.00 0.00 877.00 200.85" xmlns="http://www.w3.org/2000/svg" xmlns:xlink="http://www.w3.org/1999/xlink">
<g id="graph0" class="graph" transform="scale(1 1) rotate(0) translate(4 196.85)">
<title>grid_utilities::nufft</title>
<polygon fill="white" stroke="transparent" points="-4,4 -4,-196.85 873,-196.85 873,4 -4,4"/>
<!-- Node1 -->
<g id="node1" class="node">
<title>Node1</title>
<g id="a_node1"><a xlink:title="calculates the cosine and sine mode numbers of a function defined on a non&#45;regular grid.">
<polygon fill="#bfbfbf" stroke="black" points="0,-93 0,-114 123,-114 123,-93 0,-93"/>
<text text-anchor="middle" x="61.5" y="-100.4" font-family="Ubuntu Mono" font-size="12.00">grid_utilities::nufft</text>
</a>
</g>
</g>
<!-- Node2 -->
<g id="node2" class="node">
<title>Node2</title>
<g id="a_node2"><a xlink:href="namespaceoutput__ops.html#a50bfbb88cc91805469353c3ff47b3e2e" target="_top" xlink:title="Use external program to draw a plot.">
<polygon fill="white" stroke="black" points="159,-93 159,-114 299,-114 299,-93 159,-93"/>
<text text-anchor="middle" x="229" y="-100.4" font-family="Ubuntu Mono" font-size="12.00">output_ops::draw_ex</text>
</a>
</g>
</g>
<!-- Node1&#45;&gt;Node2 -->
<g id="edge1" class="edge">
<title>Node1&#45;&gt;Node2</title>
<path fill="none" stroke="midnightblue" d="M123.19,-103.5C131.54,-103.5 140.22,-103.5 148.85,-103.5"/>
<polygon fill="midnightblue" stroke="midnightblue" points="148.93,-107 158.93,-103.5 148.93,-100 148.93,-107"/>
</g>
<!-- Node3 -->
<g id="node3" class="node">
<title>Node3</title>
<g id="a_node3"><a xlink:href="namespacestr__utilities.html#a0b97e51770725a3e98ed393d26681414" target="_top" xlink:title="Convert an integer to string.">
<polygon fill="white" stroke="black" points="720.5,-171 720.5,-192 834.5,-192 834.5,-171 720.5,-171"/>
<text text-anchor="middle" x="777.5" y="-178.4" font-family="Ubuntu Mono" font-size="12.00">str_utilities::i2str</text>
</a>
</g>
</g>
<!-- Node2&#45;&gt;Node3 -->
<g id="edge2" class="edge">
<title>Node2&#45;&gt;Node3</title>
<path fill="none" stroke="midnightblue" d="M243.98,-114.23C263.25,-128.31 299.61,-152.42 335,-162.5 464,-199.24 622.71,-194.66 710.39,-188.06"/>
<polygon fill="midnightblue" stroke="midnightblue" points="710.77,-191.54 720.47,-187.27 710.22,-184.57 710.77,-191.54"/>
</g>
<!-- Node4 -->
<g id="node4" class="node">
<title>Node4</title>
<g id="a_node4"><a xlink:href="namespacemessages.html#a6e6bfb084063e4cc91ee86e542043302" target="_top" xlink:title="Increases/decreases lvl of output.">
<polygon fill="white" stroke="black" points="358.5,-132 358.5,-153 476.5,-153 476.5,-132 358.5,-132"/>
<text text-anchor="middle" x="417.5" y="-139.4" font-family="Ubuntu Mono" font-size="12.00">messages::lvl_ud</text>
</a>
</g>
</g>
<!-- Node2&#45;&gt;Node4 -->
<g id="edge3" class="edge">
<title>Node2&#45;&gt;Node4</title>
<path fill="none" stroke="midnightblue" d="M280.47,-114.05C303.79,-118.93 331.68,-124.76 356.11,-129.87"/>
<polygon fill="midnightblue" stroke="midnightblue" points="355.49,-133.32 365.99,-131.94 356.92,-126.46 355.49,-133.32"/>
</g>
<!-- Node5 -->
<g id="node5" class="node">
<title>Node5</title>
<g id="a_node5"><a xlink:href="namespacemessages.html#aa4a8d01563e92558e8a0875b075ec54c" target="_top" xlink:title="Write output to file identified by output_i.">
<polygon fill="white" stroke="black" points="536,-131 536,-152 650,-152 650,-131 536,-131"/>
<text text-anchor="middle" x="593" y="-138.4" font-family="Ubuntu Mono" font-size="12.00">messages::writo</text>
</a>
</g>
</g>
<!-- Node2&#45;&gt;Node5 -->
<g id="edge10" class="edge">
<title>Node2&#45;&gt;Node5</title>
<path fill="none" stroke="midnightblue" d="M299.07,-105.82C353.77,-108.27 432.04,-113.13 500,-122.5 511.99,-124.15 524.76,-126.44 536.85,-128.86"/>
<polygon fill="midnightblue" stroke="midnightblue" points="536.32,-132.33 546.82,-130.92 537.73,-125.47 536.32,-132.33"/>
</g>
<!-- Node8 -->
<g id="node8" class="node">
<title>Node8</title>
<g id="a_node8"><a xlink:href="namespacefiles__utilities.html#ac6066df405564ba2f5e3c4bba726c1f8" target="_top" xlink:title="Search for available new unit.">
<polygon fill="white" stroke="black" points="345,-54 345,-75 490,-75 490,-54 345,-54"/>
<text text-anchor="middle" x="417.5" y="-61.4" font-family="Ubuntu Mono" font-size="12.00">files_utilities::nextunit</text>
</a>
</g>
</g>
<!-- Node2&#45;&gt;Node8 -->
<g id="edge8" class="edge">
<title>Node2&#45;&gt;Node8</title>
<path fill="none" stroke="midnightblue" d="M280.47,-92.95C303.79,-88.07 331.68,-82.24 356.11,-77.13"/>
<polygon fill="midnightblue" stroke="midnightblue" points="356.92,-80.54 365.99,-75.06 355.49,-73.68 356.92,-80.54"/>
</g>
<!-- Node9 -->
<g id="node9" class="node">
<title>Node9</title>
<g id="a_node9"><a xlink:href="namespaceoutput__ops.html#aa9e4855511b6ea16a08b3efb587bec51" target="_top" xlink:title="Executes command line, or displays a message if disabled.">
<polygon fill="white" stroke="black" points="335,-0.5 335,-34.5 500,-34.5 500,-0.5 335,-0.5"/>
<text text-anchor="start" x="343" y="-20.9" font-family="Ubuntu Mono" font-size="12.00">output_ops::use_execute</text>
<text text-anchor="middle" x="417.5" y="-7.9" font-family="Ubuntu Mono" font-size="12.00">_command_line</text>
</a>
</g>
</g>
<!-- Node2&#45;&gt;Node9 -->
<g id="edge9" class="edge">
<title>Node2&#45;&gt;Node9</title>
<path fill="none" stroke="midnightblue" d="M246.58,-92.86C266.85,-80.17 302.48,-58.86 335,-44.5 340.03,-42.28 345.3,-40.14 350.64,-38.1"/>
<polygon fill="midnightblue" stroke="midnightblue" points="352.11,-41.29 360.28,-34.55 349.69,-34.72 352.11,-41.29"/>
</g>
<!-- Node4&#45;&gt;Node5 -->
<g id="edge4" class="edge">
<title>Node4&#45;&gt;Node5</title>
<path fill="none" stroke="midnightblue" d="M476.76,-142.16C492.42,-142.07 509.48,-141.98 525.56,-141.88"/>
<polygon fill="midnightblue" stroke="midnightblue" points="525.98,-145.38 535.96,-141.82 525.94,-138.38 525.98,-145.38"/>
</g>
<!-- Node5&#45;&gt;Node3 -->
<g id="edge7" class="edge">
<title>Node5&#45;&gt;Node3</title>
<path fill="none" stroke="midnightblue" d="M641.95,-152.01C665.43,-157.16 693.9,-163.4 718.59,-168.81"/>
<polygon fill="midnightblue" stroke="midnightblue" points="718.04,-172.27 728.55,-170.99 719.54,-165.43 718.04,-172.27"/>
</g>
<!-- Node6 -->
<g id="node6" class="node">
<title>Node6</title>
<g id="a_node6"><a xlink:href="namespacemessages.html#a61fd0b51b5e37d58fdc993c01792a3fd" target="_top" xlink:title="Returns the time.">
<polygon fill="white" stroke="black" points="707.5,-131 707.5,-152 847.5,-152 847.5,-131 707.5,-131"/>
<text text-anchor="middle" x="777.5" y="-138.4" font-family="Ubuntu Mono" font-size="12.00">messages::get_clock</text>
</a>
</g>
</g>
<!-- Node5&#45;&gt;Node6 -->
<g id="edge5" class="edge">
<title>Node5&#45;&gt;Node6</title>
<path fill="none" stroke="midnightblue" d="M650.25,-141.5C665.02,-141.5 681.24,-141.5 696.99,-141.5"/>
<polygon fill="midnightblue" stroke="midnightblue" points="697.25,-145 707.25,-141.5 697.25,-138 697.25,-145"/>
</g>
<!-- Node7 -->
<g id="node7" class="node">
<title>Node7</title>
<g id="a_node7"><a xlink:href="namespacemessages.html#a82dddaab795b78b3d39e1ff1aab2f665" target="_top" xlink:title="Returns the memory usage in kilobytes.">
<polygon fill="white" stroke="black" points="686,-91 686,-112 869,-112 869,-91 686,-91"/>
<text text-anchor="middle" x="777.5" y="-98.4" font-family="Ubuntu Mono" font-size="12.00">messages::get_mem_usage</text>
</a>
</g>
</g>
<!-- Node5&#45;&gt;Node7 -->
<g id="edge6" class="edge">
<title>Node5&#45;&gt;Node7</title>
<path fill="none" stroke="midnightblue" d="M641.95,-130.99C665.43,-125.84 693.9,-119.6 718.59,-114.19"/>
<polygon fill="midnightblue" stroke="midnightblue" points="719.54,-117.57 728.55,-112.01 718.04,-110.73 719.54,-117.57"/>
</g>
</g>
</svg>
