<?xml version="1.0" encoding="UTF-8" standalone="no"?>
<!DOCTYPE svg PUBLIC "-//W3C//DTD SVG 1.1//EN"
 "http://www.w3.org/Graphics/SVG/1.1/DTD/svg11.dtd">
<!-- Generated by graphviz version 2.38.0 (20140413.2041)
 -->
<!-- Title: files_ops::parse_args Pages: 1 -->
<svg width="652pt" height="70pt"
 viewBox="0.00 0.00 652.00 70.00" xmlns="http://www.w3.org/2000/svg" xmlns:xlink="http://www.w3.org/1999/xlink">
<g id="graph0" class="graph" transform="scale(1 1) rotate(0) translate(4 66)">
<title>files_ops::parse_args</title>
<polygon fill="white" stroke="none" points="-4,4 -4,-66 648,-66 648,4 -4,4"/>
<!-- Node46 -->
<g id="node1" class="node"><title>Node46</title>
<polygon fill="#bfbfbf" stroke="black" points="0,-20.5 0,-41.5 143,-41.5 143,-20.5 0,-20.5"/>
<text text-anchor="middle" x="71.5" y="-27.9" font-family="Ubuntu Mono" font-size="12.00">files_ops::parse_args</text>
</g>
<!-- Node47 -->
<g id="node2" class="node"><title>Node47</title>
<g id="a_node2"><a xlink:href="namespacemessages.html#aa4a8d01563e92558e8a0875b075ec54c" target="_top" xlink:title="messages::writo">
<polygon fill="white" stroke="black" points="179,-20.5 179,-41.5 286,-41.5 286,-20.5 179,-20.5"/>
<text text-anchor="middle" x="232.5" y="-27.9" font-family="Ubuntu Mono" font-size="12.00">messages::writo</text>
</a>
</g>
</g>
<!-- Node46&#45;&gt;Node47 -->
<g id="edge1" class="edge"><title>Node46&#45;&gt;Node47</title>
<path fill="none" stroke="midnightblue" d="M143.166,-31C151.657,-31 160.284,-31 168.653,-31"/>
<polygon fill="midnightblue" stroke="midnightblue" points="168.707,-34.5001 178.707,-31 168.707,-27.5001 168.707,-34.5001"/>
</g>
<!-- Node48 -->
<g id="node3" class="node"><title>Node48</title>
<g id="a_node3"><a xlink:href="namespacemessages.html#a82dddaab795b78b3d39e1ff1aab2f665" target="_top" xlink:title="messages::get_mem_usage">
<polygon fill="white" stroke="black" points="322,-40.5 322,-61.5 477,-61.5 477,-40.5 322,-40.5"/>
<text text-anchor="middle" x="399.5" y="-47.9" font-family="Ubuntu Mono" font-size="12.00">messages::get_mem_usage</text>
</a>
</g>
</g>
<!-- Node47&#45;&gt;Node48 -->
<g id="edge2" class="edge"><title>Node47&#45;&gt;Node48</title>
<path fill="none" stroke="midnightblue" d="M286.161,-37.3831C294.452,-38.3881 303.208,-39.4495 312.025,-40.5182"/>
<polygon fill="midnightblue" stroke="midnightblue" points="311.635,-43.9965 321.984,-41.7253 312.478,-37.0474 311.635,-43.9965"/>
</g>
<!-- Node49 -->
<g id="node4" class="node"><title>Node49</title>
<g id="a_node4"><a xlink:href="messages_8f90.html#a6d15f28783f95a7a4b2a44185619792f" target="_top" xlink:title="format_str">
<polygon fill="white" stroke="black" points="361,-0.5 361,-21.5 438,-21.5 438,-0.5 361,-0.5"/>
<text text-anchor="middle" x="399.5" y="-7.9" font-family="Ubuntu Mono" font-size="12.00">format_str</text>
</a>
</g>
</g>
<!-- Node47&#45;&gt;Node49 -->
<g id="edge3" class="edge"><title>Node47&#45;&gt;Node49</title>
<path fill="none" stroke="midnightblue" d="M286.161,-24.6169C306.977,-22.0937 330.722,-19.2155 351.002,-16.7573"/>
<polygon fill="midnightblue" stroke="midnightblue" points="351.448,-20.229 360.954,-15.551 350.606,-13.2798 351.448,-20.229"/>
</g>
<!-- Node50 -->
<g id="node5" class="node"><title>Node50</title>
<g id="a_node5"><a xlink:href="namespacemessages.html#a61fd0b51b5e37d58fdc993c01792a3fd" target="_top" xlink:title="messages::get_clock">
<polygon fill="white" stroke="black" points="513,-0.5 513,-21.5 644,-21.5 644,-0.5 513,-0.5"/>
<text text-anchor="middle" x="578.5" y="-7.9" font-family="Ubuntu Mono" font-size="12.00">messages::get_clock</text>
</a>
</g>
</g>
<!-- Node49&#45;&gt;Node50 -->
<g id="edge4" class="edge"><title>Node49&#45;&gt;Node50</title>
<path fill="none" stroke="midnightblue" d="M438.037,-11C456.869,-11 480.372,-11 502.685,-11"/>
<polygon fill="midnightblue" stroke="midnightblue" points="502.832,-14.5001 512.832,-11 502.832,-7.5001 502.832,-14.5001"/>
</g>
</g>
</svg>
