<?xml version="1.0" encoding="UTF-8" standalone="no"?>
<!DOCTYPE svg PUBLIC "-//W3C//DTD SVG 1.1//EN"
 "http://www.w3.org/Graphics/SVG/1.1/DTD/svg11.dtd">
<!-- Generated by graphviz version 2.38.0 (20140413.2041)
 -->
<!-- Title: test::test_interp Pages: 1 -->
<svg width="371pt" height="70pt"
 viewBox="0.00 0.00 371.00 70.00" xmlns="http://www.w3.org/2000/svg" xmlns:xlink="http://www.w3.org/1999/xlink">
<g id="graph0" class="graph" transform="scale(1 1) rotate(0) translate(4 66)">
<title>test::test_interp</title>
<polygon fill="white" stroke="none" points="-4,4 -4,-66 367,-66 367,4 -4,4"/>
<!-- Node134 -->
<g id="node1" class="node"><title>Node134</title>
<polygon fill="#bfbfbf" stroke="black" points="0,-20.5 0,-41.5 119,-41.5 119,-20.5 0,-20.5"/>
<text text-anchor="middle" x="59.5" y="-27.9" font-family="Ubuntu Mono" font-size="12.00">test::test_interp</text>
</g>
<!-- Node135 -->
<g id="node2" class="node"><title>Node135</title>
<g id="a_node2"><a xlink:href="namespacetest.html#aca21ee464c0b1f4b617177afdde110ec" target="_top" xlink:title="test::generic_tests">
<polygon fill="white" stroke="black" points="155,-20.5 155,-41.5 286,-41.5 286,-20.5 155,-20.5"/>
<text text-anchor="middle" x="220.5" y="-27.9" font-family="Ubuntu Mono" font-size="12.00">test::generic_tests</text>
</a>
</g>
</g>
<!-- Node134&#45;&gt;Node135 -->
<g id="edge1" class="edge"><title>Node134&#45;&gt;Node135</title>
<path fill="none" stroke="midnightblue" d="M129.436,-31C137.87,-31 146.466,-31 154.835,-31"/>
<polygon fill="midnightblue" stroke="midnightblue" points="129.254,-27.5001 119.254,-31 129.254,-34.5001 129.254,-27.5001"/>
</g>
<!-- Node136 -->
<g id="node3" class="node"><title>Node136</title>
<g id="a_node3"><a xlink:href="PB3D_8f90.html#afaee01f014ab3398eecac996b2795fd2" target="_top" xlink:title="pb3d">
<polygon fill="white" stroke="black" points="322,-40.5 322,-61.5 363,-61.5 363,-40.5 322,-40.5"/>
<text text-anchor="middle" x="342.5" y="-47.9" font-family="Ubuntu Mono" font-size="12.00">pb3d</text>
</a>
</g>
</g>
<!-- Node135&#45;&gt;Node136 -->
<g id="edge2" class="edge"><title>Node135&#45;&gt;Node136</title>
<path fill="none" stroke="midnightblue" d="M294.742,-43.2071C304.695,-44.8658 314.136,-46.4393 321.894,-47.7324"/>
<polygon fill="midnightblue" stroke="midnightblue" points="295.102,-39.7188 284.663,-41.5271 293.951,-46.6236 295.102,-39.7188"/>
</g>
<!-- Node137 -->
<g id="node4" class="node"><title>Node137</title>
<g id="a_node4"><a xlink:href="POST_8f90.html#ac289b64ac4671fea0b4f2298ba1188a1" target="_top" xlink:title="post">
<polygon fill="white" stroke="black" points="322,-0.5 322,-21.5 363,-21.5 363,-0.5 322,-0.5"/>
<text text-anchor="middle" x="342.5" y="-7.9" font-family="Ubuntu Mono" font-size="12.00">post</text>
</a>
</g>
</g>
<!-- Node135&#45;&gt;Node137 -->
<g id="edge3" class="edge"><title>Node135&#45;&gt;Node137</title>
<path fill="none" stroke="midnightblue" d="M294.742,-18.7929C304.695,-17.1342 314.136,-15.5607 321.894,-14.2676"/>
<polygon fill="midnightblue" stroke="midnightblue" points="293.951,-15.3764 284.663,-20.4729 295.102,-22.2812 293.951,-15.3764"/>
</g>
</g>
</svg>
