<?xml version="1.0" encoding="UTF-8" standalone="no"?>
<!DOCTYPE svg PUBLIC "-//W3C//DTD SVG 1.1//EN"
 "http://www.w3.org/Graphics/SVG/1.1/DTD/svg11.dtd">
<!-- Generated by graphviz version 2.43.0 (0)
 -->
<!-- Title: sol_ops::calc_e Pages: 1 -->
<svg width="842pt" height="382pt"
 viewBox="0.00 0.00 842.00 382.00" xmlns="http://www.w3.org/2000/svg" xmlns:xlink="http://www.w3.org/1999/xlink">
<g id="graph0" class="graph" transform="scale(1 1) rotate(0) translate(4 378)">
<title>sol_ops::calc_e</title>
<polygon fill="white" stroke="transparent" points="-4,4 -4,-378 838,-378 838,4 -4,4"/>
<!-- Node1 -->
<g id="node1" class="node">
<title>Node1</title>
<g id="a_node1"><a xlink:title="Calculate the energy terms in the energy decomposition.">
<polygon fill="#bfbfbf" stroke="black" points="0,-138.5 0,-159.5 105,-159.5 105,-138.5 0,-138.5"/>
<text text-anchor="middle" x="52.5" y="-145.9" font-family="Ubuntu Mono" font-size="12.00">sol_ops::calc_e</text>
</a>
</g>
</g>
<!-- Node2 -->
<g id="node2" class="node">
<title>Node2</title>
<g id="a_node2"><a xlink:href="namespacenum__utilities.html#a5ee3fbd1fe67d0deefc7194631389f2a" target="_top" xlink:title="Convert 2&#45;D coordinates (i,j) to the storage convention used in matrices.">
<polygon fill="white" stroke="black" points="173,-352.5 173,-373.5 279,-373.5 279,-352.5 173,-352.5"/>
<text text-anchor="middle" x="226" y="-359.9" font-family="Ubuntu Mono" font-size="12.00">num_utilities::c</text>
</a>
</g>
</g>
<!-- Node1&#45;&gt;Node2 -->
<g id="edge1" class="edge">
<title>Node1&#45;&gt;Node2</title>
<path fill="none" stroke="midnightblue" d="M55.31,-159.84C61.27,-192.06 83.3,-288.08 141,-338 147.45,-343.58 155.1,-347.92 163.13,-351.28"/>
<polygon fill="midnightblue" stroke="midnightblue" points="162.07,-354.62 172.66,-354.81 164.49,-348.06 162.07,-354.62"/>
</g>
<!-- Node3 -->
<g id="node3" class="node">
<title>Node3</title>
<g id="a_node3"><a xlink:href="namespacegrid__utilities.html#a97e3106dbdc10b726af74afa113ba533" target="_top" xlink:title="Calculates volume integral on a 3D grid.">
<polygon fill="white" stroke="black" points="166.5,-197 166.5,-231 285.5,-231 285.5,-197 166.5,-197"/>
<text text-anchor="start" x="174.5" y="-217.4" font-family="Ubuntu Mono" font-size="12.00">grid_utilities::calc</text>
<text text-anchor="middle" x="226" y="-204.4" font-family="Ubuntu Mono" font-size="12.00">_int_vol</text>
</a>
</g>
</g>
<!-- Node1&#45;&gt;Node3 -->
<g id="edge2" class="edge">
<title>Node1&#45;&gt;Node3</title>
<path fill="none" stroke="midnightblue" d="M81.44,-159.59C105.5,-168.71 140.94,-182.14 170.59,-193.38"/>
<polygon fill="midnightblue" stroke="midnightblue" points="169.4,-196.67 179.99,-196.94 171.88,-190.12 169.4,-196.67"/>
</g>
<!-- Node5 -->
<g id="node5" class="node">
<title>Node5</title>
<g id="a_node5"><a xlink:href="namespacestr__utilities.html#a0b97e51770725a3e98ed393d26681414" target="_top" xlink:title="Convert an integer to string.">
<polygon fill="white" stroke="black" points="685.5,-235.5 685.5,-256.5 799.5,-256.5 799.5,-235.5 685.5,-235.5"/>
<text text-anchor="middle" x="742.5" y="-242.9" font-family="Ubuntu Mono" font-size="12.00">str_utilities::i2str</text>
</a>
</g>
</g>
<!-- Node1&#45;&gt;Node5 -->
<g id="edge11" class="edge">
<title>Node1&#45;&gt;Node5</title>
<path fill="none" stroke="midnightblue" d="M60.85,-159.79C74.46,-178.93 105.42,-218.9 141,-241 222.44,-291.59 252.21,-290.61 347,-305 476.86,-324.71 630.85,-282.83 701.93,-259.8"/>
<polygon fill="midnightblue" stroke="midnightblue" points="703.4,-263 711.8,-256.55 701.21,-256.35 703.4,-263"/>
</g>
<!-- Node6 -->
<g id="node6" class="node">
<title>Node6</title>
<g id="a_node6"><a xlink:href="namespacemessages.html#a6e6bfb084063e4cc91ee86e542043302" target="_top" xlink:title="Increases/decreases lvl of output.">
<polygon fill="white" stroke="black" points="347,-158.5 347,-179.5 465,-179.5 465,-158.5 347,-158.5"/>
<text text-anchor="middle" x="406" y="-165.9" font-family="Ubuntu Mono" font-size="12.00">messages::lvl_ud</text>
</a>
</g>
</g>
<!-- Node1&#45;&gt;Node6 -->
<g id="edge12" class="edge">
<title>Node1&#45;&gt;Node6</title>
<path fill="none" stroke="midnightblue" d="M105.37,-151.95C166.67,-155.44 268.89,-161.26 336.62,-165.11"/>
<polygon fill="midnightblue" stroke="midnightblue" points="336.59,-168.61 346.77,-165.69 336.98,-161.62 336.59,-168.61"/>
</g>
<!-- Node7 -->
<g id="node7" class="node">
<title>Node7</title>
<g id="a_node7"><a xlink:href="namespacemessages.html#aa4a8d01563e92558e8a0875b075ec54c" target="_top" xlink:title="Write output to file identified by output_i.">
<polygon fill="white" stroke="black" points="501,-176.5 501,-197.5 615,-197.5 615,-176.5 501,-176.5"/>
<text text-anchor="middle" x="558" y="-183.9" font-family="Ubuntu Mono" font-size="12.00">messages::writo</text>
</a>
</g>
</g>
<!-- Node1&#45;&gt;Node7 -->
<g id="edge16" class="edge">
<title>Node1&#45;&gt;Node7</title>
<path fill="none" stroke="midnightblue" d="M105.13,-142.62C183.71,-134.34 337.64,-123.73 465,-149 487.17,-153.4 510.7,-163.22 528.41,-171.78"/>
<polygon fill="midnightblue" stroke="midnightblue" points="527.1,-175.03 537.61,-176.36 530.22,-168.77 527.1,-175.03"/>
</g>
<!-- Node10 -->
<g id="node10" class="node">
<title>Node10</title>
<g id="a_node10"><a xlink:href="namespaceoutput__ops.html#ab0d14194d01ab0534562eab50b37a57a" target="_top" xlink:title="Takes two input vectors and plots these as well as the relative and absolute difference in a HDF5 fil...">
<polygon fill="white" stroke="black" points="141,-80.5 141,-101.5 311,-101.5 311,-80.5 141,-80.5"/>
<text text-anchor="middle" x="226" y="-87.9" font-family="Ubuntu Mono" font-size="12.00">output_ops::plot_diff_hdf5</text>
</a>
</g>
</g>
<!-- Node1&#45;&gt;Node10 -->
<g id="edge13" class="edge">
<title>Node1&#45;&gt;Node10</title>
<path fill="none" stroke="midnightblue" d="M80.13,-138.39C97.38,-131.66 120.38,-122.95 141,-116 152.83,-112.02 165.7,-108.02 177.73,-104.42"/>
<polygon fill="midnightblue" stroke="midnightblue" points="179,-107.7 187.6,-101.51 177.02,-100.98 179,-107.7"/>
</g>
<!-- Node11 -->
<g id="node11" class="node">
<title>Node11</title>
<g id="a_node11"><a xlink:href="namespacegrid__utilities.html#a67001ff9bbcad707aacf17f90a748d90" target="_top" xlink:title="Trim a grid, removing any overlap between the different regions.">
<polygon fill="white" stroke="black" points="151.5,-40.5 151.5,-61.5 300.5,-61.5 300.5,-40.5 151.5,-40.5"/>
<text text-anchor="middle" x="226" y="-47.9" font-family="Ubuntu Mono" font-size="12.00">grid_utilities::trim_grid</text>
</a>
</g>
</g>
<!-- Node1&#45;&gt;Node11 -->
<g id="edge14" class="edge">
<title>Node1&#45;&gt;Node11</title>
<path fill="none" stroke="midnightblue" d="M62.26,-138.35C76.79,-121.39 107.62,-88.42 141,-71 145.34,-68.74 149.94,-66.72 154.66,-64.94"/>
<polygon fill="midnightblue" stroke="midnightblue" points="156.16,-68.12 164.48,-61.57 153.89,-61.5 156.16,-68.12"/>
</g>
<!-- Node12 -->
<g id="node12" class="node">
<title>Node12</title>
<g id="a_node12"><a xlink:href="namespacegrid__utilities.html#a4679f24af8e02793070f4e27b43e00b6" target="_top" xlink:title="Untrims a trimmed grid by introducing an asymmetric ghost regions at the right.">
<polygon fill="white" stroke="black" points="144,-0.5 144,-21.5 308,-21.5 308,-0.5 144,-0.5"/>
<text text-anchor="middle" x="226" y="-7.9" font-family="Ubuntu Mono" font-size="12.00">grid_utilities::untrim_grid</text>
</a>
</g>
</g>
<!-- Node1&#45;&gt;Node12 -->
<g id="edge15" class="edge">
<title>Node1&#45;&gt;Node12</title>
<path fill="none" stroke="midnightblue" d="M58.28,-138.21C69.26,-114.75 98.64,-58.95 141,-31 143.97,-29.04 147.11,-27.27 150.36,-25.68"/>
<polygon fill="midnightblue" stroke="midnightblue" points="151.98,-28.79 159.78,-21.63 149.21,-22.36 151.98,-28.79"/>
</g>
<!-- Node4 -->
<g id="node4" class="node">
<title>Node4</title>
<g id="a_node4"><a xlink:href="namespacestr__utilities.html#a308e943e5e244e3e0f852f2ecb3e3183" target="_top" xlink:title="Convert a complex (double) to string.">
<polygon fill="white" stroke="black" points="347,-274.5 347,-295.5 465,-295.5 465,-274.5 347,-274.5"/>
<text text-anchor="middle" x="406" y="-281.9" font-family="Ubuntu Mono" font-size="12.00">str_utilities::c2str</text>
</a>
</g>
</g>
<!-- Node3&#45;&gt;Node4 -->
<g id="edge3" class="edge">
<title>Node3&#45;&gt;Node4</title>
<path fill="none" stroke="midnightblue" d="M269.64,-231.01C299.9,-243.08 340.1,-259.11 368.81,-270.56"/>
<polygon fill="midnightblue" stroke="midnightblue" points="367.87,-273.96 378.45,-274.41 370.46,-267.45 367.87,-273.96"/>
</g>
<!-- Node3&#45;&gt;Node5 -->
<g id="edge4" class="edge">
<title>Node3&#45;&gt;Node5</title>
<path fill="none" stroke="midnightblue" d="M285.52,-217.64C382.03,-223.64 573.94,-235.58 675.27,-241.88"/>
<polygon fill="midnightblue" stroke="midnightblue" points="675.19,-245.38 685.39,-242.51 675.62,-238.4 675.19,-245.38"/>
</g>
<!-- Node3&#45;&gt;Node6 -->
<g id="edge5" class="edge">
<title>Node3&#45;&gt;Node6</title>
<path fill="none" stroke="midnightblue" d="M285.78,-199.14C307.72,-193.59 332.44,-187.34 353.66,-181.98"/>
<polygon fill="midnightblue" stroke="midnightblue" points="354.62,-185.35 363.46,-179.5 352.9,-178.56 354.62,-185.35"/>
</g>
<!-- Node3&#45;&gt;Node7 -->
<g id="edge10" class="edge">
<title>Node3&#45;&gt;Node7</title>
<path fill="none" stroke="midnightblue" d="M285.62,-209.2C343.13,-204.5 430.71,-197.33 490.73,-192.42"/>
<polygon fill="midnightblue" stroke="midnightblue" points="491.17,-195.9 500.86,-191.59 490.6,-188.92 491.17,-195.9"/>
</g>
<!-- Node6&#45;&gt;Node7 -->
<g id="edge6" class="edge">
<title>Node6&#45;&gt;Node7</title>
<path fill="none" stroke="midnightblue" d="M465.42,-176.01C473.73,-177.01 482.32,-178.04 490.76,-179.05"/>
<polygon fill="midnightblue" stroke="midnightblue" points="490.6,-182.56 500.95,-180.27 491.44,-175.61 490.6,-182.56"/>
</g>
<!-- Node7&#45;&gt;Node5 -->
<g id="edge9" class="edge">
<title>Node7&#45;&gt;Node5</title>
<path fill="none" stroke="midnightblue" d="M591.35,-197.59C608.97,-203.35 631.18,-210.59 651,-217 666.58,-222.04 683.69,-227.53 698.79,-232.36"/>
<polygon fill="midnightblue" stroke="midnightblue" points="697.8,-235.72 708.39,-235.43 699.93,-229.05 697.8,-235.72"/>
</g>
<!-- Node8 -->
<g id="node8" class="node">
<title>Node8</title>
<g id="a_node8"><a xlink:href="namespacemessages.html#a61fd0b51b5e37d58fdc993c01792a3fd" target="_top" xlink:title="Returns the time.">
<polygon fill="white" stroke="black" points="672.5,-186.5 672.5,-207.5 812.5,-207.5 812.5,-186.5 672.5,-186.5"/>
<text text-anchor="middle" x="742.5" y="-193.9" font-family="Ubuntu Mono" font-size="12.00">messages::get_clock</text>
</a>
</g>
</g>
<!-- Node7&#45;&gt;Node8 -->
<g id="edge7" class="edge">
<title>Node7&#45;&gt;Node8</title>
<path fill="none" stroke="midnightblue" d="M615.25,-190.08C630.02,-190.89 646.24,-191.78 661.99,-192.64"/>
<polygon fill="midnightblue" stroke="midnightblue" points="662.07,-196.15 672.25,-193.21 662.45,-189.16 662.07,-196.15"/>
</g>
<!-- Node9 -->
<g id="node9" class="node">
<title>Node9</title>
<g id="a_node9"><a xlink:href="namespacemessages.html#a82dddaab795b78b3d39e1ff1aab2f665" target="_top" xlink:title="Returns the memory usage in kilobytes.">
<polygon fill="white" stroke="black" points="651,-146.5 651,-167.5 834,-167.5 834,-146.5 651,-146.5"/>
<text text-anchor="middle" x="742.5" y="-153.9" font-family="Ubuntu Mono" font-size="12.00">messages::get_mem_usage</text>
</a>
</g>
</g>
<!-- Node7&#45;&gt;Node9 -->
<g id="edge8" class="edge">
<title>Node7&#45;&gt;Node9</title>
<path fill="none" stroke="midnightblue" d="M615.25,-177.75C631.7,-175.05 649.95,-172.05 667.35,-169.19"/>
<polygon fill="midnightblue" stroke="midnightblue" points="668.17,-172.6 677.47,-167.53 667.03,-165.69 668.17,-172.6"/>
</g>
</g>
</svg>
