<?xml version="1.0" encoding="UTF-8" standalone="no"?>
<!DOCTYPE svg PUBLIC "-//W3C//DTD SVG 1.1//EN"
 "http://www.w3.org/Graphics/SVG/1.1/DTD/svg11.dtd">
<!-- Generated by graphviz version 2.38.0 (20140413.2041)
 -->
<!-- Title: num_ops::calc_zero_zhang Pages: 1 -->
<svg width="807pt" height="170pt"
 viewBox="0.00 0.00 807.00 170.00" xmlns="http://www.w3.org/2000/svg" xmlns:xlink="http://www.w3.org/1999/xlink">
<g id="graph0" class="graph" transform="scale(1 1) rotate(0) translate(4 166)">
<title>num_ops::calc_zero_zhang</title>
<polygon fill="white" stroke="none" points="-4,4 -4,-166 803,-166 803,4 -4,4"/>
<!-- Node0 -->
<g id="node1" class="node"><title>Node0</title>
<polygon fill="#bfbfbf" stroke="black" points="0,-54 0,-88 125,-88 125,-54 0,-54"/>
<text text-anchor="start" x="8" y="-74.4" font-family="Ubuntu Mono" font-size="12.00">num_ops::calc_zero</text>
<text text-anchor="middle" x="62.5" y="-61.4" font-family="Ubuntu Mono" font-size="12.00">_zhang</text>
</g>
<!-- Node1 -->
<g id="node2" class="node"><title>Node1</title>
<g id="a_node2"><a xlink:href="num__ops_8f90.html#a43693003de2d8d2713ff625bd461ead1" target="_top" xlink:title="plot_evolution">
<polygon fill="white" stroke="black" points="161,-60.5 161,-81.5 262,-81.5 262,-60.5 161,-60.5"/>
<text text-anchor="middle" x="211.5" y="-67.9" font-family="Ubuntu Mono" font-size="12.00">plot_evolution</text>
</a>
</g>
</g>
<!-- Node0&#45;&gt;Node1 -->
<g id="edge1" class="edge"><title>Node0&#45;&gt;Node1</title>
<path fill="none" stroke="midnightblue" d="M125.415,-71C133.783,-71 142.356,-71 150.686,-71"/>
<polygon fill="midnightblue" stroke="midnightblue" points="150.696,-74.5001 160.696,-71 150.696,-67.5001 150.696,-74.5001"/>
</g>
<!-- Node2 -->
<g id="node3" class="node"><title>Node2</title>
<g id="a_node3"><a xlink:href="namespacemessages.html#aa4a8d01563e92558e8a0875b075ec54c" target="_top" xlink:title="messages::writo">
<polygon fill="white" stroke="black" points="316,-120.5 316,-141.5 423,-141.5 423,-120.5 316,-120.5"/>
<text text-anchor="middle" x="369.5" y="-127.9" font-family="Ubuntu Mono" font-size="12.00">messages::writo</text>
</a>
</g>
</g>
<!-- Node1&#45;&gt;Node2 -->
<g id="edge2" class="edge"><title>Node1&#45;&gt;Node2</title>
<path fill="none" stroke="midnightblue" d="M232.834,-81.65C249.911,-90.3162 275.122,-102.467 298,-111 304.247,-113.33 310.891,-115.544 317.507,-117.592"/>
<polygon fill="midnightblue" stroke="midnightblue" points="316.548,-120.959 327.132,-120.469 318.552,-114.252 316.548,-120.959"/>
</g>
<!-- Node6 -->
<g id="node7" class="node"><title>Node6</title>
<g id="a_node7"><a xlink:href="namespacestr__utilities.html#a92ac6c0af1979df094de1caddd28ade0" target="_top" xlink:title="str_utilities::r2str">
<polygon fill="white" stroke="black" points="301,-80.5 301,-101.5 438,-101.5 438,-80.5 301,-80.5"/>
<text text-anchor="middle" x="369.5" y="-87.9" font-family="Ubuntu Mono" font-size="12.00">str_utilities::r2str</text>
</a>
</g>
</g>
<!-- Node1&#45;&gt;Node6 -->
<g id="edge6" class="edge"><title>Node1&#45;&gt;Node6</title>
<path fill="none" stroke="midnightblue" d="M262.288,-77.3831C271.421,-78.554 281.15,-79.8013 290.872,-81.0477"/>
<polygon fill="midnightblue" stroke="midnightblue" points="290.611,-84.5428 300.975,-82.3429 291.501,-77.5996 290.611,-84.5428"/>
</g>
<!-- Node7 -->
<g id="node8" class="node"><title>Node7</title>
<g id="a_node8"><a xlink:href="namespacestr__utilities.html#ac778d706b2e021672618939ab58fdd32" target="_top" xlink:title="str_utilities::r2strt">
<polygon fill="white" stroke="black" points="298,-40.5 298,-61.5 441,-61.5 441,-40.5 298,-40.5"/>
<text text-anchor="middle" x="369.5" y="-47.9" font-family="Ubuntu Mono" font-size="12.00">str_utilities::r2strt</text>
</a>
</g>
</g>
<!-- Node1&#45;&gt;Node7 -->
<g id="edge7" class="edge"><title>Node1&#45;&gt;Node7</title>
<path fill="none" stroke="midnightblue" d="M262.288,-64.6169C270.428,-63.5734 279.041,-62.4691 287.7,-61.359"/>
<polygon fill="midnightblue" stroke="midnightblue" points="288.387,-64.7996 297.861,-60.0563 287.497,-57.8565 288.387,-64.7996"/>
</g>
<!-- Node8 -->
<g id="node9" class="node"><title>Node8</title>
<g id="a_node9"><a xlink:href="namespacestr__utilities.html#a0b97e51770725a3e98ed393d26681414" target="_top" xlink:title="str_utilities::i2str">
<polygon fill="white" stroke="black" points="301,-0.5 301,-21.5 438,-21.5 438,-0.5 301,-0.5"/>
<text text-anchor="middle" x="369.5" y="-7.9" font-family="Ubuntu Mono" font-size="12.00">str_utilities::i2str</text>
</a>
</g>
</g>
<!-- Node1&#45;&gt;Node8 -->
<g id="edge8" class="edge"><title>Node1&#45;&gt;Node8</title>
<path fill="none" stroke="midnightblue" d="M232.834,-60.35C249.911,-51.6838 275.122,-39.5334 298,-31 304.247,-28.6699 310.891,-26.4557 317.507,-24.4075"/>
<polygon fill="midnightblue" stroke="midnightblue" points="318.552,-27.7482 327.132,-21.5314 316.548,-21.0412 318.552,-27.7482"/>
</g>
<!-- Node3 -->
<g id="node4" class="node"><title>Node3</title>
<g id="a_node4"><a xlink:href="namespacemessages.html#a82dddaab795b78b3d39e1ff1aab2f665" target="_top" xlink:title="messages::get_mem_usage">
<polygon fill="white" stroke="black" points="477,-140.5 477,-161.5 632,-161.5 632,-140.5 477,-140.5"/>
<text text-anchor="middle" x="554.5" y="-147.9" font-family="Ubuntu Mono" font-size="12.00">messages::get_mem_usage</text>
</a>
</g>
</g>
<!-- Node2&#45;&gt;Node3 -->
<g id="edge3" class="edge"><title>Node2&#45;&gt;Node3</title>
<path fill="none" stroke="midnightblue" d="M423.431,-136.785C436.982,-138.266 451.915,-139.898 466.685,-141.512"/>
<polygon fill="midnightblue" stroke="midnightblue" points="466.544,-145.017 476.865,-142.625 467.304,-138.059 466.544,-145.017"/>
</g>
<!-- Node4 -->
<g id="node5" class="node"><title>Node4</title>
<g id="a_node5"><a xlink:href="messages_8f90.html#a6d15f28783f95a7a4b2a44185619792f" target="_top" xlink:title="format_str">
<polygon fill="white" stroke="black" points="516,-100.5 516,-121.5 593,-121.5 593,-100.5 516,-100.5"/>
<text text-anchor="middle" x="554.5" y="-107.9" font-family="Ubuntu Mono" font-size="12.00">format_str</text>
</a>
</g>
</g>
<!-- Node2&#45;&gt;Node4 -->
<g id="edge4" class="edge"><title>Node2&#45;&gt;Node4</title>
<path fill="none" stroke="midnightblue" d="M423.431,-125.215C449.409,-122.376 480.463,-118.982 505.713,-116.223"/>
<polygon fill="midnightblue" stroke="midnightblue" points="506.23,-119.687 515.79,-115.121 505.469,-112.729 506.23,-119.687"/>
</g>
<!-- Node5 -->
<g id="node6" class="node"><title>Node5</title>
<g id="a_node6"><a xlink:href="namespacemessages.html#a61fd0b51b5e37d58fdc993c01792a3fd" target="_top" xlink:title="messages::get_clock">
<polygon fill="white" stroke="black" points="668,-100.5 668,-121.5 799,-121.5 799,-100.5 668,-100.5"/>
<text text-anchor="middle" x="733.5" y="-107.9" font-family="Ubuntu Mono" font-size="12.00">messages::get_clock</text>
</a>
</g>
</g>
<!-- Node4&#45;&gt;Node5 -->
<g id="edge5" class="edge"><title>Node4&#45;&gt;Node5</title>
<path fill="none" stroke="midnightblue" d="M593.037,-111C611.869,-111 635.372,-111 657.685,-111"/>
<polygon fill="midnightblue" stroke="midnightblue" points="657.832,-114.5 667.832,-111 657.832,-107.5 657.832,-114.5"/>
</g>
</g>
</svg>
