<?xml version="1.0" encoding="UTF-8" standalone="no"?>
<!DOCTYPE svg PUBLIC "-//W3C//DTD SVG 1.1//EN"
 "http://www.w3.org/Graphics/SVG/1.1/DTD/svg11.dtd">
<!-- Generated by graphviz version 2.38.0 (20140413.2041)
 -->
<!-- Title: eq_ops::flux_q_plot Pages: 1 -->
<svg width="1010pt" height="515pt"
 viewBox="0.00 0.00 1010.00 514.80" xmlns="http://www.w3.org/2000/svg" xmlns:xlink="http://www.w3.org/1999/xlink">
<g id="graph0" class="graph" transform="scale(1 1) rotate(0) translate(4 510.803)">
<title>eq_ops::flux_q_plot</title>
<polygon fill="white" stroke="none" points="-4,4 -4,-510.803 1006,-510.803 1006,4 -4,4"/>
<!-- Node107 -->
<g id="node1" class="node"><title>Node107</title>
<polygon fill="#bfbfbf" stroke="black" points="0,-271.5 0,-292.5 131,-292.5 131,-271.5 0,-271.5"/>
<text text-anchor="middle" x="65.5" y="-278.9" font-family="Ubuntu Mono" font-size="12.00">eq_ops::flux_q_plot</text>
</g>
<!-- Node108 -->
<g id="node2" class="node"><title>Node108</title>
<g id="a_node2"><a xlink:href="namespacegrid__utilities.html#a67001ff9bbcad707aacf17f90a748d90" target="_top" xlink:title="Trim a grid, removing any overlap between the different regions. ">
<polygon fill="white" stroke="black" points="352,-442.5 352,-463.5 519,-463.5 519,-442.5 352,-442.5"/>
<text text-anchor="middle" x="435.5" y="-449.9" font-family="Ubuntu Mono" font-size="12.00">grid_utilities::trim_grid</text>
</a>
</g>
</g>
<!-- Node107&#45;&gt;Node108 -->
<g id="edge1" class="edge"><title>Node107&#45;&gt;Node108</title>
<path fill="none" stroke="midnightblue" d="M72.1274,-292.662C85.2532,-316.391 120.357,-373.625 167,-401 219.802,-431.99 287.576,-444.937 341.693,-450.163"/>
<polygon fill="midnightblue" stroke="midnightblue" points="341.707,-453.678 351.979,-451.08 342.329,-446.706 341.707,-453.678"/>
</g>
<!-- Node109 -->
<g id="node3" class="node"><title>Node109</title>
<g id="a_node3"><a xlink:href="namespacemessages.html#aa4a8d01563e92558e8a0875b075ec54c" target="_top" xlink:title="Write output to file identified by output_i. ">
<polygon fill="white" stroke="black" points="704,-248.5 704,-269.5 811,-269.5 811,-248.5 704,-248.5"/>
<text text-anchor="middle" x="757.5" y="-255.9" font-family="Ubuntu Mono" font-size="12.00">messages::writo</text>
</a>
</g>
</g>
<!-- Node107&#45;&gt;Node109 -->
<g id="edge2" class="edge"><title>Node107&#45;&gt;Node109</title>
<path fill="none" stroke="midnightblue" d="M70.0891,-292.779C80.2282,-321.436 111.98,-399.851 167,-437 297.334,-524.999 369.089,-520.515 519,-473 626.658,-438.878 713.221,-323.797 744.207,-278.016"/>
<polygon fill="midnightblue" stroke="midnightblue" points="747.187,-279.855 749.809,-269.59 741.358,-275.98 747.187,-279.855"/>
</g>
<!-- Node112 -->
<g id="node6" class="node"><title>Node112</title>
<g id="a_node6"><a xlink:href="namespacemessages.html#a6e6bfb084063e4cc91ee86e542043302" target="_top" xlink:title="Increases/decreases lvl of output. ">
<polygon fill="white" stroke="black" points="555,-209.5 555,-230.5 668,-230.5 668,-209.5 555,-209.5"/>
<text text-anchor="middle" x="611.5" y="-216.9" font-family="Ubuntu Mono" font-size="12.00">messages::lvl_ud</text>
</a>
</g>
</g>
<!-- Node107&#45;&gt;Node112 -->
<g id="edge5" class="edge"><title>Node107&#45;&gt;Node112</title>
<path fill="none" stroke="midnightblue" d="M100.126,-271.374C119.493,-265.657 144.403,-258.981 167,-255 299.8,-231.607 457.737,-223.843 544.76,-221.27"/>
<polygon fill="midnightblue" stroke="midnightblue" points="544.86,-224.769 554.757,-220.988 544.663,-217.772 544.86,-224.769"/>
</g>
<!-- Node113 -->
<g id="node7" class="node"><title>Node113</title>
<g id="a_node7"><a xlink:href="namespacegrid__utilities.html#a414a1a11924bc935afca3a89fc31f2f5" target="_top" xlink:title="Extend a grid angularly. ">
<polygon fill="white" stroke="black" points="167,-358 167,-392 316,-392 316,-358 167,-358"/>
<text text-anchor="start" x="175" y="-378.4" font-family="Ubuntu Mono" font-size="12.00">grid_utilities::extend</text>
<text text-anchor="middle" x="241.5" y="-365.4" font-family="Ubuntu Mono" font-size="12.00">_grid_f</text>
</a>
</g>
</g>
<!-- Node107&#45;&gt;Node113 -->
<g id="edge7" class="edge"><title>Node107&#45;&gt;Node113</title>
<path fill="none" stroke="midnightblue" d="M86.46,-292.668C113.829,-307.297 163.658,-333.929 199.233,-352.943"/>
<polygon fill="midnightblue" stroke="midnightblue" points="197.933,-356.217 208.402,-357.844 201.232,-350.044 197.933,-356.217"/>
</g>
<!-- Node115 -->
<g id="node9" class="node"><title>Node115</title>
<g id="a_node9"><a xlink:href="namespacegrid__utilities.html#a39e7cd9b8f173994358dbdd6b57827e1" target="_top" xlink:title="Calculates , &#160;and &#160;on a grid grid_XYZ, determined through its E(quilibrium) coordinates. ">
<polygon fill="white" stroke="black" points="173,-95 173,-129 310,-129 310,-95 173,-95"/>
<text text-anchor="start" x="181" y="-115.4" font-family="Ubuntu Mono" font-size="12.00">grid_utilities::calc</text>
<text text-anchor="middle" x="241.5" y="-102.4" font-family="Ubuntu Mono" font-size="12.00">_xyz_grid</text>
</a>
</g>
</g>
<!-- Node107&#45;&gt;Node115 -->
<g id="edge12" class="edge"><title>Node107&#45;&gt;Node115</title>
<path fill="none" stroke="midnightblue" d="M71.1793,-271.365C83.2399,-245.128 117.913,-176.714 167,-139 169.324,-137.214 171.779,-135.538 174.324,-133.965"/>
<polygon fill="midnightblue" stroke="midnightblue" points="176.224,-136.913 183.277,-129.007 172.833,-130.79 176.224,-136.913"/>
</g>
<!-- Node116 -->
<g id="node10" class="node"><title>Node116</title>
<g id="a_node10"><a xlink:href="namespacevmec__utilities.html#ac699116fc25fdea3e28e488513d97c87" target="_top" xlink:title="Calculate the trigonometric cosine and sine factors. ">
<polygon fill="white" stroke="black" points="173,-265 173,-299 310,-299 310,-265 173,-265"/>
<text text-anchor="start" x="181" y="-285.4" font-family="Ubuntu Mono" font-size="12.00">vmec_utilities::calc</text>
<text text-anchor="middle" x="241.5" y="-272.4" font-family="Ubuntu Mono" font-size="12.00">_trigon_factors</text>
</a>
</g>
</g>
<!-- Node107&#45;&gt;Node116 -->
<g id="edge13" class="edge"><title>Node107&#45;&gt;Node116</title>
<path fill="none" stroke="midnightblue" d="M131.291,-282C141.542,-282 152.234,-282 162.744,-282"/>
<polygon fill="midnightblue" stroke="midnightblue" points="162.744,-285.5 172.744,-282 162.744,-278.5 162.744,-285.5"/>
</g>
<!-- Node118 -->
<g id="node12" class="node"><title>Node118</title>
<g id="a_node12"><a xlink:href="namespaceoutput__ops.html#a50bfbb88cc91805469353c3ff47b3e2e" target="_top" xlink:title="Use external program to draw a plot. ">
<polygon fill="white" stroke="black" points="176,-148.5 176,-169.5 307,-169.5 307,-148.5 176,-148.5"/>
<text text-anchor="middle" x="241.5" y="-155.9" font-family="Ubuntu Mono" font-size="12.00">output_ops::draw_ex</text>
</a>
</g>
</g>
<!-- Node107&#45;&gt;Node118 -->
<g id="edge16" class="edge"><title>Node107&#45;&gt;Node118</title>
<path fill="none" stroke="midnightblue" d="M79.9045,-271.329C98.9395,-256.301 135.045,-228.249 167,-206 182.397,-195.28 200.102,-183.93 214.276,-175.07"/>
<polygon fill="midnightblue" stroke="midnightblue" points="216.373,-177.888 223.021,-169.639 212.68,-171.942 216.373,-177.888"/>
</g>
<!-- Node110 -->
<g id="node4" class="node"><title>Node110</title>
<g id="a_node4"><a xlink:href="namespacemessages.html#a82dddaab795b78b3d39e1ff1aab2f665" target="_top" xlink:title="Returns the memory usage in kilobytes. ">
<polygon fill="white" stroke="black" points="847,-268.5 847,-289.5 1002,-289.5 1002,-268.5 847,-268.5"/>
<text text-anchor="middle" x="924.5" y="-275.9" font-family="Ubuntu Mono" font-size="12.00">messages::get_mem_usage</text>
</a>
</g>
</g>
<!-- Node109&#45;&gt;Node110 -->
<g id="edge3" class="edge"><title>Node109&#45;&gt;Node110</title>
<path fill="none" stroke="midnightblue" d="M811.161,-265.383C819.452,-266.388 828.208,-267.449 837.025,-268.518"/>
<polygon fill="midnightblue" stroke="midnightblue" points="836.635,-271.996 846.984,-269.725 837.478,-265.047 836.635,-271.996"/>
</g>
<!-- Node111 -->
<g id="node5" class="node"><title>Node111</title>
<g id="a_node5"><a xlink:href="namespacemessages.html#a61fd0b51b5e37d58fdc993c01792a3fd" target="_top" xlink:title="Returns the time. ">
<polygon fill="white" stroke="black" points="859,-228.5 859,-249.5 990,-249.5 990,-228.5 859,-228.5"/>
<text text-anchor="middle" x="924.5" y="-235.9" font-family="Ubuntu Mono" font-size="12.00">messages::get_clock</text>
</a>
</g>
</g>
<!-- Node109&#45;&gt;Node111 -->
<g id="edge4" class="edge"><title>Node109&#45;&gt;Node111</title>
<path fill="none" stroke="midnightblue" d="M811.161,-252.617C823.142,-251.165 836.094,-249.595 848.797,-248.055"/>
<polygon fill="midnightblue" stroke="midnightblue" points="849.402,-251.507 858.908,-246.829 848.56,-244.558 849.402,-251.507"/>
</g>
<!-- Node112&#45;&gt;Node109 -->
<g id="edge6" class="edge"><title>Node112&#45;&gt;Node109</title>
<path fill="none" stroke="midnightblue" d="M651.468,-230.554C668.757,-235.236 689.29,-240.797 707.595,-245.755"/>
<polygon fill="midnightblue" stroke="midnightblue" points="706.933,-249.202 717.5,-248.438 708.763,-242.445 706.933,-249.202"/>
</g>
<!-- Node113&#45;&gt;Node108 -->
<g id="edge11" class="edge"><title>Node113&#45;&gt;Node108</title>
<path fill="none" stroke="midnightblue" d="M274.489,-392.128C296.015,-403.241 325.246,-417.546 352,-428 362.674,-432.171 374.343,-436.083 385.457,-439.518"/>
<polygon fill="midnightblue" stroke="midnightblue" points="384.458,-442.873 395.043,-442.409 386.479,-436.171 384.458,-442.873"/>
</g>
<!-- Node113&#45;&gt;Node109 -->
<g id="edge8" class="edge"><title>Node113&#45;&gt;Node109</title>
<path fill="none" stroke="midnightblue" d="M309.858,-392.052C366.572,-403.538 449.35,-413.53 519,-395 606.938,-371.604 696.223,-307.099 735.623,-276.087"/>
<polygon fill="midnightblue" stroke="midnightblue" points="738.048,-278.629 743.684,-269.657 733.684,-273.156 738.048,-278.629"/>
</g>
<!-- Node113&#45;&gt;Node112 -->
<g id="edge10" class="edge"><title>Node113&#45;&gt;Node112</title>
<path fill="none" stroke="midnightblue" d="M304.87,-357.993C362.048,-341.328 448.311,-313.448 519,-279 543.969,-266.832 570.423,-249.192 588.429,-236.372"/>
<polygon fill="midnightblue" stroke="midnightblue" points="590.488,-239.203 596.546,-230.511 586.39,-233.528 590.488,-239.203"/>
</g>
<!-- Node114 -->
<g id="node8" class="node"><title>Node114</title>
<g id="a_node8"><a xlink:href="namespacestr__utilities.html#ac778d706b2e021672618939ab58fdd32" target="_top" xlink:title="Convert a real (double) to string. ">
<polygon fill="white" stroke="black" points="364,-364.5 364,-385.5 507,-385.5 507,-364.5 364,-364.5"/>
<text text-anchor="middle" x="435.5" y="-371.9" font-family="Ubuntu Mono" font-size="12.00">str_utilities::r2strt</text>
</a>
</g>
</g>
<!-- Node113&#45;&gt;Node114 -->
<g id="edge9" class="edge"><title>Node113&#45;&gt;Node114</title>
<path fill="none" stroke="midnightblue" d="M316.183,-375C328.411,-375 341.15,-375 353.545,-375"/>
<polygon fill="midnightblue" stroke="midnightblue" points="353.858,-378.5 363.858,-375 353.858,-371.5 353.858,-378.5"/>
</g>
<!-- Node116&#45;&gt;Node109 -->
<g id="edge14" class="edge"><title>Node116&#45;&gt;Node109</title>
<path fill="none" stroke="midnightblue" d="M310.152,-282.645C366.156,-282.848 447.791,-282.38 519,-279 578.3,-276.185 645.729,-270.244 693.55,-265.564"/>
<polygon fill="midnightblue" stroke="midnightblue" points="694.141,-269.023 703.748,-264.556 693.453,-262.057 694.141,-269.023"/>
</g>
<!-- Node117 -->
<g id="node11" class="node"><title>Node117</title>
<g id="a_node11"><a xlink:href="namespacestr__utilities.html#a0b97e51770725a3e98ed393d26681414" target="_top" xlink:title="Convert an integer to string. ">
<polygon fill="white" stroke="black" points="367,-248.5 367,-269.5 504,-269.5 504,-248.5 367,-248.5"/>
<text text-anchor="middle" x="435.5" y="-255.9" font-family="Ubuntu Mono" font-size="12.00">str_utilities::i2str</text>
</a>
</g>
</g>
<!-- Node116&#45;&gt;Node117 -->
<g id="edge15" class="edge"><title>Node116&#45;&gt;Node117</title>
<path fill="none" stroke="midnightblue" d="M310.192,-273.891C325.248,-272.087 341.324,-270.162 356.748,-268.314"/>
<polygon fill="midnightblue" stroke="midnightblue" points="357.259,-271.778 366.772,-267.113 356.427,-264.828 357.259,-271.778"/>
</g>
<!-- Node118&#45;&gt;Node109 -->
<g id="edge18" class="edge"><title>Node118&#45;&gt;Node109</title>
<path fill="none" stroke="midnightblue" d="M298.32,-148.397C304.682,-145.684 310.755,-142.277 316,-138 342.806,-116.14 322.421,-86.9306 352,-69 415.471,-30.5247 447.451,-49.2583 519,-69 593.358,-89.5168 608.748,-108.612 668,-158 698.063,-183.059 726.754,-218.683 742.945,-240.242"/>
<polygon fill="midnightblue" stroke="midnightblue" points="740.135,-242.329 748.896,-248.287 745.763,-238.166 740.135,-242.329"/>
</g>
<!-- Node118&#45;&gt;Node112 -->
<g id="edge23" class="edge"><title>Node118&#45;&gt;Node112</title>
<path fill="none" stroke="midnightblue" d="M306.181,-169.556C372.904,-180.616 477.218,-197.907 544.718,-209.096"/>
<polygon fill="midnightblue" stroke="midnightblue" points="544.375,-212.587 554.813,-210.769 545.52,-205.681 544.375,-212.587"/>
</g>
<!-- Node118&#45;&gt;Node117 -->
<g id="edge17" class="edge"><title>Node118&#45;&gt;Node117</title>
<path fill="none" stroke="midnightblue" d="M262.684,-169.513C296.679,-187.218 365.496,-223.06 404.941,-243.605"/>
<polygon fill="midnightblue" stroke="midnightblue" points="403.812,-246.963 414.298,-248.478 407.046,-240.754 403.812,-246.963"/>
</g>
<!-- Node119 -->
<g id="node13" class="node"><title>Node119</title>
<g id="a_node13"><a xlink:href="namespacefiles__utilities.html#ac6066df405564ba2f5e3c4bba726c1f8" target="_top" xlink:title="Search for available new unit. ">
<polygon fill="white" stroke="black" points="352,-0.5 352,-21.5 519,-21.5 519,-0.5 352,-0.5"/>
<text text-anchor="middle" x="435.5" y="-7.9" font-family="Ubuntu Mono" font-size="12.00">files_utilities::nextunit</text>
</a>
</g>
</g>
<!-- Node118&#45;&gt;Node119 -->
<g id="edge19" class="edge"><title>Node118&#45;&gt;Node119</title>
<path fill="none" stroke="midnightblue" d="M300.394,-148.41C306.105,-145.686 311.457,-142.274 316,-138 351.014,-105.059 317.249,-69.2191 352,-36 356.057,-32.1219 360.695,-28.8436 365.658,-26.0724"/>
<polygon fill="midnightblue" stroke="midnightblue" points="367.406,-29.1153 374.886,-21.6122 364.359,-22.8129 367.406,-29.1153"/>
</g>
<!-- Node120 -->
<g id="node14" class="node"><title>Node120</title>
<g id="a_node14"><a xlink:href="namespaceoutput__ops.html#aa9e4855511b6ea16a08b3efb587bec51" target="_top" xlink:title="Executes command line, or displays a message if disabled. ">
<polygon fill="white" stroke="black" points="358,-119 358,-153 513,-153 513,-119 358,-119"/>
<text text-anchor="start" x="366" y="-139.4" font-family="Ubuntu Mono" font-size="12.00">output_ops::use_execute</text>
<text text-anchor="middle" x="435.5" y="-126.4" font-family="Ubuntu Mono" font-size="12.00">_command_line</text>
</a>
</g>
</g>
<!-- Node118&#45;&gt;Node120 -->
<g id="edge20" class="edge"><title>Node118&#45;&gt;Node120</title>
<path fill="none" stroke="midnightblue" d="M307.235,-151.245C320.161,-149.697 333.936,-148.047 347.471,-146.425"/>
<polygon fill="midnightblue" stroke="midnightblue" points="348.244,-149.858 357.757,-145.193 347.412,-142.908 348.244,-149.858"/>
</g>
<!-- Node121 -->
<g id="node15" class="node"><title>Node121</title>
<g id="a_node15"><a xlink:href="namespacestr__utilities.html#a92ac6c0af1979df094de1caddd28ade0" target="_top" xlink:title="Convert a real (double) to string. ">
<polygon fill="white" stroke="black" points="367,-78.5 367,-99.5 504,-99.5 504,-78.5 367,-78.5"/>
<text text-anchor="middle" x="435.5" y="-85.9" font-family="Ubuntu Mono" font-size="12.00">str_utilities::r2str</text>
</a>
</g>
</g>
<!-- Node118&#45;&gt;Node121 -->
<g id="edge24" class="edge"><title>Node118&#45;&gt;Node121</title>
<path fill="none" stroke="midnightblue" d="M289.846,-148.5C298.783,-145.682 307.87,-142.214 316,-138 334.241,-128.545 333.572,-118.084 352,-109 356.672,-106.697 361.627,-104.649 366.697,-102.829"/>
<polygon fill="midnightblue" stroke="midnightblue" points="368.131,-106.042 376.545,-99.6029 365.952,-99.3895 368.131,-106.042"/>
</g>
<!-- Node120&#45;&gt;Node109 -->
<g id="edge21" class="edge"><title>Node120&#45;&gt;Node109</title>
<path fill="none" stroke="midnightblue" d="M513.179,-150.748C559.32,-161.182 618.511,-177.372 668,-200 692.597,-211.247 718.019,-228.938 735.269,-242.017"/>
<polygon fill="midnightblue" stroke="midnightblue" points="733.445,-245.031 743.498,-248.378 737.726,-239.493 733.445,-245.031"/>
</g>
<!-- Node120&#45;&gt;Node112 -->
<g id="edge22" class="edge"><title>Node120&#45;&gt;Node112</title>
<path fill="none" stroke="midnightblue" d="M484.124,-153.102C495.679,-157.625 507.898,-162.727 519,-168 541.909,-178.881 566.875,-193.249 584.933,-204.125"/>
<polygon fill="midnightblue" stroke="midnightblue" points="583.336,-207.25 593.698,-209.457 586.974,-201.27 583.336,-207.25"/>
</g>
</g>
</svg>
