<?xml version="1.0" encoding="UTF-8" standalone="no"?>
<!DOCTYPE svg PUBLIC "-//W3C//DTD SVG 1.1//EN"
 "http://www.w3.org/Graphics/SVG/1.1/DTD/svg11.dtd">
<!-- Generated by graphviz version 2.38.0 (20140413.2041)
 -->
<!-- Title: dtorh::dtorh1 Pages: 1 -->
<svg width="878pt" height="110pt"
 viewBox="0.00 0.00 878.00 110.00" xmlns="http://www.w3.org/2000/svg" xmlns:xlink="http://www.w3.org/1999/xlink">
<g id="graph0" class="graph" transform="scale(1 1) rotate(0) translate(4 106)">
<title>dtorh::dtorh1</title>
<polygon fill="white" stroke="none" points="-4,4 -4,-106 874,-106 874,4 -4,4"/>
<!-- Node2 -->
<g id="node1" class="node"><title>Node2</title>
<polygon fill="#bfbfbf" stroke="black" points="0,-60.5 0,-81.5 95,-81.5 95,-60.5 0,-60.5"/>
<text text-anchor="middle" x="47.5" y="-67.9" font-family="Ubuntu Mono" font-size="12.00">dtorh::dtorh1</text>
</g>
<!-- Node3 -->
<g id="node2" class="node"><title>Node3</title>
<g id="a_node2"><a xlink:href="namespacetest.html#ab595ec935321ea0b1168593fb88fad22" target="_top" xlink:title="Test calculation of toroidal functions. ">
<polygon fill="white" stroke="black" points="131,-80.5 131,-101.5 256,-101.5 256,-80.5 131,-80.5"/>
<text text-anchor="middle" x="193.5" y="-87.9" font-family="Ubuntu Mono" font-size="12.00">test::test_tor_fun</text>
</a>
</g>
</g>
<!-- Node2&#45;&gt;Node3 -->
<g id="edge1" class="edge"><title>Node2&#45;&gt;Node3</title>
<path fill="none" stroke="midnightblue" d="M105.288,-78.8872C113.658,-80.0497 122.316,-81.2522 130.78,-82.4278"/>
<polygon fill="midnightblue" stroke="midnightblue" points="105.639,-75.4025 95.2527,-77.4934 104.676,-82.3359 105.639,-75.4025"/>
</g>
<!-- Node7 -->
<g id="node6" class="node"><title>Node7</title>
<g id="a_node6"><a xlink:href="namespacevac__ops.html#ae4987d1f48f1f83b1f0d38ea85b4998b" target="_top" xlink:title="Calculates matrices G and H in axisymmetric configurations. ">
<polygon fill="white" stroke="black" points="131,-40.5 131,-61.5 256,-61.5 256,-40.5 131,-40.5"/>
<text text-anchor="middle" x="193.5" y="-47.9" font-family="Ubuntu Mono" font-size="12.00">vac_ops::calc_gh_2</text>
</a>
</g>
</g>
<!-- Node2&#45;&gt;Node7 -->
<g id="edge5" class="edge"><title>Node2&#45;&gt;Node7</title>
<path fill="none" stroke="midnightblue" d="M105.288,-63.1128C113.658,-61.9503 122.316,-60.7478 130.78,-59.5722"/>
<polygon fill="midnightblue" stroke="midnightblue" points="104.676,-59.6641 95.2527,-64.5066 105.639,-66.5975 104.676,-59.6641"/>
</g>
<!-- Node4 -->
<g id="node3" class="node"><title>Node4</title>
<g id="a_node3"><a xlink:href="namespacetest.html#aca21ee464c0b1f4b617177afdde110ec" target="_top" xlink:title="Performs generic tests. ">
<polygon fill="white" stroke="black" points="641,-80.5 641,-101.5 772,-101.5 772,-80.5 641,-80.5"/>
<text text-anchor="middle" x="706.5" y="-87.9" font-family="Ubuntu Mono" font-size="12.00">test::generic_tests</text>
</a>
</g>
</g>
<!-- Node3&#45;&gt;Node4 -->
<g id="edge2" class="edge"><title>Node3&#45;&gt;Node4</title>
<path fill="none" stroke="midnightblue" d="M266.426,-91C366.191,-91 545.074,-91 640.827,-91"/>
<polygon fill="midnightblue" stroke="midnightblue" points="266.139,-87.5001 256.139,-91 266.139,-94.5001 266.139,-87.5001"/>
</g>
<!-- Node5 -->
<g id="node4" class="node"><title>Node5</title>
<g id="a_node4"><a xlink:href="PB3D_8f90.html#afaee01f014ab3398eecac996b2795fd2" target="_top" xlink:title="Peeling Ballooning in 3D. ">
<polygon fill="white" stroke="black" points="829,-20.5 829,-41.5 870,-41.5 870,-20.5 829,-20.5"/>
<text text-anchor="middle" x="849.5" y="-27.9" font-family="Ubuntu Mono" font-size="12.00">pb3d</text>
</a>
</g>
</g>
<!-- Node4&#45;&gt;Node5 -->
<g id="edge3" class="edge"><title>Node4&#45;&gt;Node5</title>
<path fill="none" stroke="midnightblue" d="M776.241,-77.4769C782.008,-75.5768 787.667,-73.4275 793,-71 809.431,-63.5211 825.916,-50.8218 836.599,-41.738"/>
<polygon fill="midnightblue" stroke="midnightblue" points="775.023,-74.1889 766.472,-80.4444 777.058,-80.8867 775.023,-74.1889"/>
</g>
<!-- Node6 -->
<g id="node5" class="node"><title>Node6</title>
<g id="a_node5"><a xlink:href="POST_8f90.html#ac289b64ac4671fea0b4f2298ba1188a1" target="_top" xlink:title="Peeling Ballooning in 3D: postprocessing. ">
<polygon fill="white" stroke="black" points="829,-60.5 829,-81.5 870,-81.5 870,-60.5 829,-60.5"/>
<text text-anchor="middle" x="849.5" y="-67.9" font-family="Ubuntu Mono" font-size="12.00">post</text>
</a>
</g>
</g>
<!-- Node4&#45;&gt;Node6 -->
<g id="edge4" class="edge"><title>Node4&#45;&gt;Node6</title>
<path fill="none" stroke="midnightblue" d="M782.364,-80.381C799.574,-77.9399 816.435,-75.5483 828.825,-73.7908"/>
<polygon fill="midnightblue" stroke="midnightblue" points="781.632,-76.9497 772.223,-81.8195 782.615,-83.8803 781.632,-76.9497"/>
</g>
<!-- Node8 -->
<g id="node7" class="node"><title>Node8</title>
<g id="a_node7"><a xlink:href="namespacevac__ops.html#a7e3f92fbe9fa6cf3de6ac301676b96d1" target="_top" xlink:title="Calculate the matrices G and H. ">
<polygon fill="white" stroke="black" points="292,-40.5 292,-61.5 405,-61.5 405,-40.5 292,-40.5"/>
<text text-anchor="middle" x="348.5" y="-47.9" font-family="Ubuntu Mono" font-size="12.00">vac_ops::calc_gh</text>
</a>
</g>
</g>
<!-- Node7&#45;&gt;Node8 -->
<g id="edge6" class="edge"><title>Node7&#45;&gt;Node8</title>
<path fill="none" stroke="midnightblue" d="M266.315,-51C274.909,-51 283.581,-51 291.897,-51"/>
<polygon fill="midnightblue" stroke="midnightblue" points="266.29,-47.5001 256.29,-51 266.29,-54.5001 266.29,-47.5001"/>
</g>
<!-- Node9 -->
<g id="node8" class="node"><title>Node9</title>
<g id="a_node8"><a xlink:href="namespacevac__ops.html#a5e5a8322b3aa2e3704b1050426f06d9d" target="_top" xlink:title="Calculates the vacuum response. ">
<polygon fill="white" stroke="black" points="441,-0.5 441,-21.5 584,-21.5 584,-0.5 441,-0.5"/>
<text text-anchor="middle" x="512.5" y="-7.9" font-family="Ubuntu Mono" font-size="12.00">vac_ops::calc_vac_res</text>
</a>
</g>
</g>
<!-- Node8&#45;&gt;Node9 -->
<g id="edge7" class="edge"><title>Node8&#45;&gt;Node9</title>
<path fill="none" stroke="midnightblue" d="M401.79,-38.089C423.501,-32.7282 448.373,-26.587 468.94,-21.5087"/>
<polygon fill="midnightblue" stroke="midnightblue" points="400.933,-34.6953 392.064,-40.4905 402.611,-41.4912 400.933,-34.6953"/>
</g>
<!-- Node11 -->
<g id="node10" class="node"><title>Node11</title>
<g id="a_node10"><a xlink:href="namespacevac__ops.html#a3a2a3aed45951aecef42197b82a5a6da" target="_top" xlink:title="Calculate vacuum potential at some positions that are not resonant. ">
<polygon fill="white" stroke="black" points="441,-40.5 441,-61.5 584,-61.5 584,-40.5 441,-40.5"/>
<text text-anchor="middle" x="512.5" y="-47.9" font-family="Ubuntu Mono" font-size="12.00">vac_ops::vac_pot_plot</text>
</a>
</g>
</g>
<!-- Node8&#45;&gt;Node11 -->
<g id="edge10" class="edge"><title>Node8&#45;&gt;Node11</title>
<path fill="none" stroke="midnightblue" d="M415.334,-51C423.713,-51 432.315,-51 440.767,-51"/>
<polygon fill="midnightblue" stroke="midnightblue" points="415.251,-47.5001 405.251,-51 415.251,-54.5001 415.251,-47.5001"/>
</g>
<!-- Node10 -->
<g id="node9" class="node"><title>Node10</title>
<g id="a_node9"><a xlink:href="namespacedriver__sol.html#ad3b1765b3ecc5f82129bfc683ffc6c5c" target="_top" xlink:title="Main driver of PB3D solution part. ">
<polygon fill="white" stroke="black" points="620,-0.5 620,-21.5 793,-21.5 793,-0.5 620,-0.5"/>
<text text-anchor="middle" x="706.5" y="-7.9" font-family="Ubuntu Mono" font-size="12.00">driver_sol::run_driver_sol</text>
</a>
</g>
</g>
<!-- Node9&#45;&gt;Node10 -->
<g id="edge8" class="edge"><title>Node9&#45;&gt;Node10</title>
<path fill="none" stroke="midnightblue" d="M594.399,-11C602.86,-11 611.482,-11 619.993,-11"/>
<polygon fill="midnightblue" stroke="midnightblue" points="594.176,-7.5001 584.176,-11 594.176,-14.5001 594.176,-7.5001"/>
</g>
<!-- Node10&#45;&gt;Node5 -->
<g id="edge9" class="edge"><title>Node10&#45;&gt;Node5</title>
<path fill="none" stroke="midnightblue" d="M791.835,-22.9624C805.597,-24.9145 818.627,-26.7627 828.715,-28.1936"/>
<polygon fill="midnightblue" stroke="midnightblue" points="792.109,-19.4663 781.716,-21.5271 791.126,-26.3969 792.109,-19.4663"/>
</g>
<!-- Node12 -->
<g id="node11" class="node"><title>Node12</title>
<g id="a_node11"><a xlink:href="namespacedriver__post.html#af527706d4e696d4e507443d2f74194ef" target="_top" xlink:title="Initializes the POST driver. ">
<polygon fill="white" stroke="black" points="632,-40.5 632,-61.5 781,-61.5 781,-40.5 632,-40.5"/>
<text text-anchor="middle" x="706.5" y="-47.9" font-family="Ubuntu Mono" font-size="12.00">driver_post::init_post</text>
</a>
</g>
</g>
<!-- Node11&#45;&gt;Node12 -->
<g id="edge11" class="edge"><title>Node11&#45;&gt;Node12</title>
<path fill="none" stroke="midnightblue" d="M594.468,-51C606.838,-51 619.55,-51 631.754,-51"/>
<polygon fill="midnightblue" stroke="midnightblue" points="594.176,-47.5001 584.176,-51 594.176,-54.5001 594.176,-47.5001"/>
</g>
<!-- Node12&#45;&gt;Node6 -->
<g id="edge12" class="edge"><title>Node12&#45;&gt;Node6</title>
<path fill="none" stroke="midnightblue" d="M791.546,-62.9215C805.48,-64.8979 818.68,-66.7702 828.857,-68.2138"/>
<polygon fill="midnightblue" stroke="midnightblue" points="791.696,-59.4077 781.304,-61.4686 790.713,-66.3384 791.696,-59.4077"/>
</g>
</g>
</svg>
