<?xml version="1.0" encoding="UTF-8" standalone="no"?>
<!DOCTYPE svg PUBLIC "-//W3C//DTD SVG 1.1//EN"
 "http://www.w3.org/Graphics/SVG/1.1/DTD/svg11.dtd">
<!-- Generated by graphviz version 2.38.0 (20140413.2041)
 -->
<!-- Title: eq_ops::calc_g_c_arr Pages: 1 -->
<svg width="640pt" height="84pt"
 viewBox="0.00 0.00 640.00 83.50" xmlns="http://www.w3.org/2000/svg" xmlns:xlink="http://www.w3.org/1999/xlink">
<g id="graph0" class="graph" transform="scale(1 1) rotate(0) translate(4 79.5)">
<title>eq_ops::calc_g_c_arr</title>
<polygon fill="white" stroke="none" points="-4,4 -4,-79.5 636,-79.5 636,4 -4,4"/>
<!-- Node67 -->
<g id="node1" class="node"><title>Node67</title>
<polygon fill="#bfbfbf" stroke="black" points="0,-30 0,-51 137,-51 137,-30 0,-30"/>
<text text-anchor="middle" x="68.5" y="-37.4" font-family="Ubuntu Mono" font-size="12.00">eq_ops::calc_g_c_arr</text>
</g>
<!-- Node68 -->
<g id="node2" class="node"><title>Node68</title>
<g id="a_node2"><a xlink:href="namespaceeq__utilities.html#a1426f7226577f8719472265fd882fbf4" target="_top" xlink:title="eq_utilities::calc_g">
<polygon fill="white" stroke="black" points="173,-54 173,-75 310,-75 310,-54 173,-54"/>
<text text-anchor="middle" x="241.5" y="-61.4" font-family="Ubuntu Mono" font-size="12.00">eq_utilities::calc_g</text>
</a>
</g>
</g>
<!-- Node67&#45;&gt;Node68 -->
<g id="edge1" class="edge"><title>Node67&#45;&gt;Node68</title>
<path fill="none" stroke="midnightblue" d="M137.084,-49.9854C145.538,-51.172 154.237,-52.3929 162.83,-53.5989"/>
<polygon fill="midnightblue" stroke="midnightblue" points="162.458,-57.0809 172.847,-55.0049 163.431,-50.1489 162.458,-57.0809"/>
</g>
<!-- Node71 -->
<g id="node5" class="node"><title>Node71</title>
<g id="a_node5"><a xlink:href="namespacenum__utilities.html#a00f4cfe18a734eaa5d66f529e52f7c31" target="_top" xlink:title="num_utilities::check\l_deriv">
<polygon fill="white" stroke="black" points="173,-0.5 173,-34.5 310,-34.5 310,-0.5 173,-0.5"/>
<text text-anchor="start" x="181" y="-20.9" font-family="Ubuntu Mono" font-size="12.00">num_utilities::check</text>
<text text-anchor="middle" x="241.5" y="-7.9" font-family="Ubuntu Mono" font-size="12.00">_deriv</text>
</a>
</g>
</g>
<!-- Node67&#45;&gt;Node71 -->
<g id="edge4" class="edge"><title>Node67&#45;&gt;Node71</title>
<path fill="none" stroke="midnightblue" d="M137.084,-31.4098C145.538,-30.2726 154.237,-29.1026 162.83,-27.9468"/>
<polygon fill="midnightblue" stroke="midnightblue" points="163.403,-31.4014 172.847,-26.5995 162.47,-24.4638 163.403,-31.4014"/>
</g>
<!-- Node69 -->
<g id="node3" class="node"><title>Node69</title>
<g id="a_node3"><a xlink:href="eq__utilities_8f90.html#aea9f92b0bbcd253100a9d3bc727fd9b4" target="_top" xlink:title="calc_c">
<polygon fill="white" stroke="black" points="388,-54 388,-75 441,-75 441,-54 388,-54"/>
<text text-anchor="middle" x="414.5" y="-61.4" font-family="Ubuntu Mono" font-size="12.00">calc_c</text>
</a>
</g>
</g>
<!-- Node68&#45;&gt;Node69 -->
<g id="edge2" class="edge"><title>Node68&#45;&gt;Node69</title>
<path fill="none" stroke="midnightblue" d="M310.084,-64.5C333.19,-64.5 358.125,-64.5 377.72,-64.5"/>
<polygon fill="midnightblue" stroke="midnightblue" points="377.726,-68.0001 387.726,-64.5 377.726,-61.0001 377.726,-68.0001"/>
</g>
<!-- Node70 -->
<g id="node4" class="node"><title>Node70</title>
<g id="a_node4"><a xlink:href="namespacenum__utilities.html#a5ee3fbd1fe67d0deefc7194631389f2a" target="_top" xlink:title="num_utilities::c">
<polygon fill="white" stroke="black" points="519,-54 519,-75 632,-75 632,-54 519,-54"/>
<text text-anchor="middle" x="575.5" y="-61.4" font-family="Ubuntu Mono" font-size="12.00">num_utilities::c</text>
</a>
</g>
</g>
<!-- Node69&#45;&gt;Node70 -->
<g id="edge3" class="edge"><title>Node69&#45;&gt;Node70</title>
<path fill="none" stroke="midnightblue" d="M441.046,-64.5C459.327,-64.5 484.815,-64.5 508.623,-64.5"/>
<polygon fill="midnightblue" stroke="midnightblue" points="508.698,-68.0001 518.698,-64.5 508.698,-61.0001 508.698,-68.0001"/>
</g>
<!-- Node72 -->
<g id="node6" class="node"><title>Node72</title>
<g id="a_node6"><a xlink:href="namespacestr__utilities.html#a0b97e51770725a3e98ed393d26681414" target="_top" xlink:title="str_utilities::i2str">
<polygon fill="white" stroke="black" points="346,-7 346,-28 483,-28 483,-7 346,-7"/>
<text text-anchor="middle" x="414.5" y="-14.4" font-family="Ubuntu Mono" font-size="12.00">str_utilities::i2str</text>
</a>
</g>
</g>
<!-- Node71&#45;&gt;Node72 -->
<g id="edge5" class="edge"><title>Node71&#45;&gt;Node72</title>
<path fill="none" stroke="midnightblue" d="M310.084,-17.5C318.538,-17.5 327.237,-17.5 335.83,-17.5"/>
<polygon fill="midnightblue" stroke="midnightblue" points="335.847,-21.0001 345.847,-17.5 335.847,-14.0001 335.847,-21.0001"/>
</g>
</g>
</svg>
