<?xml version="1.0" encoding="UTF-8" standalone="no"?>
<!DOCTYPE svg PUBLIC "-//W3C//DTD SVG 1.1//EN"
 "http://www.w3.org/Graphics/SVG/1.1/DTD/svg11.dtd">
<!-- Generated by graphviz version 2.38.0 (20140413.2041)
 -->
<!-- Title: driver_post::open_decomp_log Pages: 1 -->
<svg width="867pt" height="109pt"
 viewBox="0.00 0.00 867.00 109.00" xmlns="http://www.w3.org/2000/svg" xmlns:xlink="http://www.w3.org/1999/xlink">
<g id="graph0" class="graph" transform="scale(1 1) rotate(0) translate(4 105)">
<title>driver_post::open_decomp_log</title>
<polygon fill="white" stroke="none" points="-4,4 -4,-105 863,-105 863,4 -4,4"/>
<!-- Node79 -->
<g id="node1" class="node"><title>Node79</title>
<polygon fill="#bfbfbf" stroke="black" points="0,-40.5 0,-61.5 185,-61.5 185,-40.5 0,-40.5"/>
<text text-anchor="middle" x="92.5" y="-47.9" font-family="Ubuntu Mono" font-size="12.00">driver_post::open_decomp_log</text>
</g>
<!-- Node80 -->
<g id="node2" class="node"><title>Node80</title>
<g id="a_node2"><a xlink:href="namespacemessages.html#aa4a8d01563e92558e8a0875b075ec54c" target="_top" xlink:title="messages::writo">
<polygon fill="white" stroke="black" points="394,-59.5 394,-80.5 501,-80.5 501,-59.5 394,-59.5"/>
<text text-anchor="middle" x="447.5" y="-66.9" font-family="Ubuntu Mono" font-size="12.00">messages::writo</text>
</a>
</g>
</g>
<!-- Node79&#45;&gt;Node80 -->
<g id="edge1" class="edge"><title>Node79&#45;&gt;Node80</title>
<path fill="none" stroke="midnightblue" d="M148.507,-61.5452C170.903,-65.3371 197.098,-69.1367 221,-71 281.705,-75.7322 297.112,-71.344 358,-71 366.283,-70.9532 375.002,-70.8818 383.605,-70.7982"/>
<polygon fill="midnightblue" stroke="midnightblue" points="383.656,-74.2979 393.62,-70.6952 383.584,-67.2983 383.656,-74.2979"/>
</g>
<!-- Node84 -->
<g id="node6" class="node"><title>Node84</title>
<g id="a_node6"><a xlink:href="namespacemessages.html#a6e6bfb084063e4cc91ee86e542043302" target="_top" xlink:title="messages::lvl_ud">
<polygon fill="white" stroke="black" points="233,-40.5 233,-61.5 346,-61.5 346,-40.5 233,-40.5"/>
<text text-anchor="middle" x="289.5" y="-47.9" font-family="Ubuntu Mono" font-size="12.00">messages::lvl_ud</text>
</a>
</g>
</g>
<!-- Node79&#45;&gt;Node84 -->
<g id="edge5" class="edge"><title>Node79&#45;&gt;Node84</title>
<path fill="none" stroke="midnightblue" d="M185.005,-51C197.761,-51 210.654,-51 222.806,-51"/>
<polygon fill="midnightblue" stroke="midnightblue" points="222.821,-54.5001 232.821,-51 222.821,-47.5001 222.821,-54.5001"/>
</g>
<!-- Node85 -->
<g id="node7" class="node"><title>Node85</title>
<g id="a_node7"><a xlink:href="namespacestr__utilities.html#a0b97e51770725a3e98ed393d26681414" target="_top" xlink:title="str_utilities::i2str">
<polygon fill="white" stroke="black" points="221,-0.5 221,-21.5 358,-21.5 358,-0.5 221,-0.5"/>
<text text-anchor="middle" x="289.5" y="-7.9" font-family="Ubuntu Mono" font-size="12.00">str_utilities::i2str</text>
</a>
</g>
</g>
<!-- Node79&#45;&gt;Node85 -->
<g id="edge7" class="edge"><title>Node79&#45;&gt;Node85</title>
<path fill="none" stroke="midnightblue" d="M144.734,-40.4905C170.049,-35.2977 200.781,-28.9936 227.323,-23.5492"/>
<polygon fill="midnightblue" stroke="midnightblue" points="228.177,-26.9468 237.27,-21.5087 226.771,-20.0896 228.177,-26.9468"/>
</g>
<!-- Node81 -->
<g id="node3" class="node"><title>Node81</title>
<g id="a_node3"><a xlink:href="namespacemessages.html#a82dddaab795b78b3d39e1ff1aab2f665" target="_top" xlink:title="messages::get_mem_usage">
<polygon fill="white" stroke="black" points="537,-79.5 537,-100.5 692,-100.5 692,-79.5 537,-79.5"/>
<text text-anchor="middle" x="614.5" y="-86.9" font-family="Ubuntu Mono" font-size="12.00">messages::get_mem_usage</text>
</a>
</g>
</g>
<!-- Node80&#45;&gt;Node81 -->
<g id="edge2" class="edge"><title>Node80&#45;&gt;Node81</title>
<path fill="none" stroke="midnightblue" d="M501.161,-76.3831C509.452,-77.3881 518.208,-78.4495 527.025,-79.5182"/>
<polygon fill="midnightblue" stroke="midnightblue" points="526.635,-82.9965 536.984,-80.7253 527.478,-76.0474 526.635,-82.9965"/>
</g>
<!-- Node82 -->
<g id="node4" class="node"><title>Node82</title>
<g id="a_node4"><a xlink:href="messages_8f90.html#a6d15f28783f95a7a4b2a44185619792f" target="_top" xlink:title="format_str">
<polygon fill="white" stroke="black" points="576,-39.5 576,-60.5 653,-60.5 653,-39.5 576,-39.5"/>
<text text-anchor="middle" x="614.5" y="-46.9" font-family="Ubuntu Mono" font-size="12.00">format_str</text>
</a>
</g>
</g>
<!-- Node80&#45;&gt;Node82 -->
<g id="edge3" class="edge"><title>Node80&#45;&gt;Node82</title>
<path fill="none" stroke="midnightblue" d="M501.161,-63.6169C521.977,-61.0937 545.722,-58.2155 566.002,-55.7573"/>
<polygon fill="midnightblue" stroke="midnightblue" points="566.448,-59.229 575.954,-54.551 565.606,-52.2798 566.448,-59.229"/>
</g>
<!-- Node83 -->
<g id="node5" class="node"><title>Node83</title>
<g id="a_node5"><a xlink:href="namespacemessages.html#a61fd0b51b5e37d58fdc993c01792a3fd" target="_top" xlink:title="messages::get_clock">
<polygon fill="white" stroke="black" points="728,-39.5 728,-60.5 859,-60.5 859,-39.5 728,-39.5"/>
<text text-anchor="middle" x="793.5" y="-46.9" font-family="Ubuntu Mono" font-size="12.00">messages::get_clock</text>
</a>
</g>
</g>
<!-- Node82&#45;&gt;Node83 -->
<g id="edge4" class="edge"><title>Node82&#45;&gt;Node83</title>
<path fill="none" stroke="midnightblue" d="M653.037,-50C671.869,-50 695.372,-50 717.685,-50"/>
<polygon fill="midnightblue" stroke="midnightblue" points="717.832,-53.5001 727.832,-50 717.832,-46.5001 717.832,-53.5001"/>
</g>
<!-- Node84&#45;&gt;Node80 -->
<g id="edge6" class="edge"><title>Node84&#45;&gt;Node80</title>
<path fill="none" stroke="midnightblue" d="M346.379,-57.8058C358.468,-59.2782 371.331,-60.8448 383.667,-62.3472"/>
<polygon fill="midnightblue" stroke="midnightblue" points="383.527,-65.856 393.877,-63.5907 384.373,-58.9073 383.527,-65.856"/>
</g>
</g>
</svg>
