<?xml version="1.0" encoding="UTF-8" standalone="no"?>
<!DOCTYPE svg PUBLIC "-//W3C//DTD SVG 1.1//EN"
 "http://www.w3.org/Graphics/SVG/1.1/DTD/svg11.dtd">
<!-- Generated by graphviz version 2.43.0 (0)
 -->
<!-- Title: messages::writo Pages: 1 -->
<svg width="341pt" height="110pt"
 viewBox="0.00 0.00 341.00 110.00" xmlns="http://www.w3.org/2000/svg" xmlns:xlink="http://www.w3.org/1999/xlink">
<g id="graph0" class="graph" transform="scale(1 1) rotate(0) translate(4 106)">
<title>messages::writo</title>
<polygon fill="white" stroke="transparent" points="-4,4 -4,-106 337,-106 337,4 -4,4"/>
<!-- Node1 -->
<g id="node1" class="node">
<title>Node1</title>
<g id="a_node1"><a xlink:title="Write output to file identified by output_i.">
<polygon fill="#bfbfbf" stroke="black" points="0,-40.5 0,-61.5 114,-61.5 114,-40.5 0,-40.5"/>
<text text-anchor="middle" x="57" y="-47.9" font-family="Ubuntu Mono" font-size="12.00">messages::writo</text>
</a>
</g>
</g>
<!-- Node2 -->
<g id="node2" class="node">
<title>Node2</title>
<g id="a_node2"><a xlink:href="namespacemessages.html#a61fd0b51b5e37d58fdc993c01792a3fd" target="_top" xlink:title="Returns the time.">
<polygon fill="white" stroke="black" points="171.5,-80.5 171.5,-101.5 311.5,-101.5 311.5,-80.5 171.5,-80.5"/>
<text text-anchor="middle" x="241.5" y="-87.9" font-family="Ubuntu Mono" font-size="12.00">messages::get_clock</text>
</a>
</g>
</g>
<!-- Node1&#45;&gt;Node2 -->
<g id="edge1" class="edge">
<title>Node1&#45;&gt;Node2</title>
<path fill="none" stroke="midnightblue" d="M105.95,-61.51C129.43,-66.66 157.9,-72.9 182.59,-78.31"/>
<polygon fill="midnightblue" stroke="midnightblue" points="182.04,-81.77 192.55,-80.49 183.54,-74.93 182.04,-81.77"/>
</g>
<!-- Node3 -->
<g id="node3" class="node">
<title>Node3</title>
<g id="a_node3"><a xlink:href="namespacemessages.html#a82dddaab795b78b3d39e1ff1aab2f665" target="_top" xlink:title="Returns the memory usage in kilobytes.">
<polygon fill="white" stroke="black" points="150,-40.5 150,-61.5 333,-61.5 333,-40.5 150,-40.5"/>
<text text-anchor="middle" x="241.5" y="-47.9" font-family="Ubuntu Mono" font-size="12.00">messages::get_mem_usage</text>
</a>
</g>
</g>
<!-- Node1&#45;&gt;Node3 -->
<g id="edge2" class="edge">
<title>Node1&#45;&gt;Node3</title>
<path fill="none" stroke="midnightblue" d="M114.25,-51C122.37,-51 130.94,-51 139.63,-51"/>
<polygon fill="midnightblue" stroke="midnightblue" points="139.86,-54.5 149.86,-51 139.86,-47.5 139.86,-54.5"/>
</g>
<!-- Node4 -->
<g id="node4" class="node">
<title>Node4</title>
<g id="a_node4"><a xlink:href="namespacestr__utilities.html#a0b97e51770725a3e98ed393d26681414" target="_top" xlink:title="Convert an integer to string.">
<polygon fill="white" stroke="black" points="184.5,-0.5 184.5,-21.5 298.5,-21.5 298.5,-0.5 184.5,-0.5"/>
<text text-anchor="middle" x="241.5" y="-7.9" font-family="Ubuntu Mono" font-size="12.00">str_utilities::i2str</text>
</a>
</g>
</g>
<!-- Node1&#45;&gt;Node4 -->
<g id="edge3" class="edge">
<title>Node1&#45;&gt;Node4</title>
<path fill="none" stroke="midnightblue" d="M105.95,-40.49C129.43,-35.34 157.9,-29.1 182.59,-23.69"/>
<polygon fill="midnightblue" stroke="midnightblue" points="183.54,-27.07 192.55,-21.51 182.04,-20.23 183.54,-27.07"/>
</g>
</g>
</svg>
