<?xml version="1.0" encoding="UTF-8" standalone="no"?>
<!DOCTYPE svg PUBLIC "-//W3C//DTD SVG 1.1//EN"
 "http://www.w3.org/Graphics/SVG/1.1/DTD/svg11.dtd">
<!-- Generated by graphviz version 2.38.0 (20140413.2041)
 -->
<!-- Title: x_utilities::calc_memory_x Pages: 1 -->
<svg width="837pt" height="124pt"
 viewBox="0.00 0.00 837.00 124.00" xmlns="http://www.w3.org/2000/svg" xmlns:xlink="http://www.w3.org/1999/xlink">
<g id="graph0" class="graph" transform="scale(1 1) rotate(0) translate(4 120)">
<title>x_utilities::calc_memory_x</title>
<polygon fill="white" stroke="none" points="-4,4 -4,-120 833,-120 833,4 -4,4"/>
<!-- Node5 -->
<g id="node1" class="node"><title>Node5</title>
<polygon fill="#bfbfbf" stroke="black" points="0,-47.5 0,-68.5 173,-68.5 173,-47.5 0,-47.5"/>
<text text-anchor="middle" x="86.5" y="-54.9" font-family="Ubuntu Mono" font-size="12.00">x_utilities::calc_memory_x</text>
</g>
<!-- Node6 -->
<g id="node2" class="node"><title>Node6</title>
<g id="a_node2"><a xlink:href="namespaceeq__ops.html#a576434bcf37c1647c6882429a8fa9243" target="_top" xlink:title="Divides the equilibrium jobs. ">
<polygon fill="white" stroke="black" points="209,-94.5 209,-115.5 358,-115.5 358,-94.5 209,-94.5"/>
<text text-anchor="middle" x="283.5" y="-101.9" font-family="Ubuntu Mono" font-size="12.00">eq_ops::divide_eq_jobs</text>
</a>
</g>
</g>
<!-- Node5&#45;&gt;Node6 -->
<g id="edge1" class="edge"><title>Node5&#45;&gt;Node6</title>
<path fill="none" stroke="midnightblue" d="M141.373,-70.9848C172.081,-78.3861 210.062,-87.5406 238.884,-94.4875"/>
<polygon fill="midnightblue" stroke="midnightblue" points="141.804,-67.4884 131.262,-68.5477 140.163,-74.2935 141.804,-67.4884"/>
</g>
<!-- Node11 -->
<g id="node7" class="node"><title>Node11</title>
<g id="a_node7"><a xlink:href="interfaceeq__ops_1_1calc__t__hf.html#a603859a698b8288ea62ee6a77f9fc2ca" target="_top" xlink:title="array version ">
<polygon fill="white" stroke="black" points="218,-41 218,-75 349,-75 349,-41 218,-41"/>
<text text-anchor="start" x="226" y="-61.4" font-family="Ubuntu Mono" font-size="12.00">eq_ops::calc_t_hf::</text>
<text text-anchor="middle" x="283.5" y="-48.4" font-family="Ubuntu Mono" font-size="12.00">calc_t_hf_arr</text>
</a>
</g>
</g>
<!-- Node5&#45;&gt;Node11 -->
<g id="edge6" class="edge"><title>Node5&#45;&gt;Node11</title>
<path fill="none" stroke="midnightblue" d="M183.297,-58C195.009,-58 206.753,-58 217.855,-58"/>
<polygon fill="midnightblue" stroke="midnightblue" points="183.03,-54.5001 173.03,-58 183.03,-61.5001 183.03,-54.5001"/>
</g>
<!-- Node12 -->
<g id="node8" class="node"><title>Node12</title>
<g id="a_node8"><a xlink:href="namespacex__ops.html#a677c88d85fe1bfbf3579a2421ce16f2f" target="_top" xlink:title="Divides the perturbation jobs. ">
<polygon fill="white" stroke="black" points="215,-0.5 215,-21.5 352,-21.5 352,-0.5 215,-0.5"/>
<text text-anchor="middle" x="283.5" y="-7.9" font-family="Ubuntu Mono" font-size="12.00">x_ops::divide_x_jobs</text>
</a>
</g>
</g>
<!-- Node5&#45;&gt;Node12 -->
<g id="edge7" class="edge"><title>Node5&#45;&gt;Node12</title>
<path fill="none" stroke="midnightblue" d="M141.373,-45.0152C172.081,-37.6139 210.062,-28.4594 238.884,-21.5125"/>
<polygon fill="midnightblue" stroke="midnightblue" points="140.163,-41.7065 131.262,-47.4523 141.804,-48.5116 140.163,-41.7065"/>
</g>
<!-- Node7 -->
<g id="node3" class="node"><title>Node7</title>
<g id="a_node3"><a xlink:href="namespacedriver__post.html#af527706d4e696d4e507443d2f74194ef" target="_top" xlink:title="Initializes the POST driver. ">
<polygon fill="white" stroke="black" points="400,-94.5 400,-115.5 549,-115.5 549,-94.5 400,-94.5"/>
<text text-anchor="middle" x="474.5" y="-101.9" font-family="Ubuntu Mono" font-size="12.00">driver_post::init_post</text>
</a>
</g>
</g>
<!-- Node6&#45;&gt;Node7 -->
<g id="edge2" class="edge"><title>Node6&#45;&gt;Node7</title>
<path fill="none" stroke="midnightblue" d="M368.145,-105C378.684,-105 389.406,-105 399.776,-105"/>
<polygon fill="midnightblue" stroke="midnightblue" points="368.114,-101.5 358.114,-105 368.113,-108.5 368.114,-101.5"/>
</g>
<!-- Node9 -->
<g id="node5" class="node"><title>Node9</title>
<g id="a_node5"><a xlink:href="namespacerich__ops.html#a97206a15127960366fcb41d6889cb3b5" target="_top" xlink:title="Start a Richardson level. ">
<polygon fill="white" stroke="black" points="591,-52.5 591,-73.5 752,-73.5 752,-52.5 591,-52.5"/>
<text text-anchor="middle" x="671.5" y="-59.9" font-family="Ubuntu Mono" font-size="12.00">rich_ops::start_rich_lvl</text>
</a>
</g>
</g>
<!-- Node6&#45;&gt;Node9 -->
<g id="edge4" class="edge"><title>Node6&#45;&gt;Node9</title>
<path fill="none" stroke="midnightblue" d="M346.17,-92.607C361.731,-89.7914 378.439,-87.0349 394,-85 460.013,-76.3678 535.365,-70.6429 590.718,-67.2028"/>
<polygon fill="midnightblue" stroke="midnightblue" points="345.332,-89.2024 336.133,-94.4587 346.602,-96.0862 345.332,-89.2024"/>
</g>
<!-- Node8 -->
<g id="node4" class="node"><title>Node8</title>
<g id="a_node4"><a xlink:href="POST_8f90.html#ac289b64ac4671fea0b4f2298ba1188a1" target="_top" xlink:title="Peeling Ballooning in 3D: postprocessing. ">
<polygon fill="white" stroke="black" points="651,-94.5 651,-115.5 692,-115.5 692,-94.5 651,-94.5"/>
<text text-anchor="middle" x="671.5" y="-101.9" font-family="Ubuntu Mono" font-size="12.00">post</text>
</a>
</g>
</g>
<!-- Node7&#45;&gt;Node8 -->
<g id="edge3" class="edge"><title>Node7&#45;&gt;Node8</title>
<path fill="none" stroke="midnightblue" d="M559.58,-105C593.243,-105 629.082,-105 650.63,-105"/>
<polygon fill="midnightblue" stroke="midnightblue" points="559.221,-101.5 549.221,-105 559.221,-108.5 559.221,-101.5"/>
</g>
<!-- Node10 -->
<g id="node6" class="node"><title>Node10</title>
<g id="a_node6"><a xlink:href="PB3D_8f90.html#afaee01f014ab3398eecac996b2795fd2" target="_top" xlink:title="Peeling Ballooning in 3D. ">
<polygon fill="white" stroke="black" points="788,-30.5 788,-51.5 829,-51.5 829,-30.5 788,-30.5"/>
<text text-anchor="middle" x="808.5" y="-37.9" font-family="Ubuntu Mono" font-size="12.00">pb3d</text>
</a>
</g>
</g>
<!-- Node9&#45;&gt;Node10 -->
<g id="edge5" class="edge"><title>Node9&#45;&gt;Node10</title>
<path fill="none" stroke="midnightblue" d="M747.149,-50.835C762.184,-48.3849 776.74,-46.0128 787.789,-44.2122"/>
<polygon fill="midnightblue" stroke="midnightblue" points="746.539,-47.3881 737.232,-52.4511 747.665,-54.297 746.539,-47.3881"/>
</g>
<!-- Node13 -->
<g id="node9" class="node"><title>Node13</title>
<g id="a_node9"><a xlink:href="namespacedriver__x.html#ad3924b3d66f336f0a9a9559eafffec8e" target="_top" xlink:title="Part 2 of driver_X: Tensorial jobs. ">
<polygon fill="white" stroke="black" points="394,-2.5 394,-23.5 555,-23.5 555,-2.5 394,-2.5"/>
<text text-anchor="middle" x="474.5" y="-9.9" font-family="Ubuntu Mono" font-size="12.00">driver_x::run_driver_x_2</text>
</a>
</g>
</g>
<!-- Node12&#45;&gt;Node13 -->
<g id="edge8" class="edge"><title>Node12&#45;&gt;Node13</title>
<path fill="none" stroke="midnightblue" d="M362.418,-11.8245C372.746,-11.9338 383.346,-12.046 393.705,-12.1556"/>
<polygon fill="midnightblue" stroke="midnightblue" points="362.236,-8.3225 352.2,-11.7164 362.162,-15.3221 362.236,-8.3225"/>
</g>
<!-- Node14 -->
<g id="node10" class="node"><title>Node14</title>
<g id="a_node10"><a xlink:href="namespacedriver__x.html#ada3d72a0929daaa5e3da585246d62281" target="_top" xlink:title="Main driver of PB3D perturbation part. ">
<polygon fill="white" stroke="black" points="597,-9.5 597,-30.5 746,-30.5 746,-9.5 597,-9.5"/>
<text text-anchor="middle" x="671.5" y="-16.9" font-family="Ubuntu Mono" font-size="12.00">driver_x::run_driver_x</text>
</a>
</g>
</g>
<!-- Node13&#45;&gt;Node14 -->
<g id="edge9" class="edge"><title>Node13&#45;&gt;Node14</title>
<path fill="none" stroke="midnightblue" d="M565.189,-16.2196C575.775,-16.5996 586.483,-16.984 596.812,-17.3548"/>
<polygon fill="midnightblue" stroke="midnightblue" points="565.214,-12.7184 555.095,-15.8573 564.963,-19.7138 565.214,-12.7184"/>
</g>
<!-- Node14&#45;&gt;Node10 -->
<g id="edge10" class="edge"><title>Node14&#45;&gt;Node10</title>
<path fill="none" stroke="midnightblue" d="M750.514,-32.1355C764.311,-34.2818 777.508,-36.3345 787.721,-37.9232"/>
<polygon fill="midnightblue" stroke="midnightblue" points="750.815,-28.6403 740.396,-30.5615 749.739,-35.5571 750.815,-28.6403"/>
</g>
</g>
</svg>
