<?xml version="1.0" encoding="UTF-8" standalone="no"?>
<!DOCTYPE svg PUBLIC "-//W3C//DTD SVG 1.1//EN"
 "http://www.w3.org/Graphics/SVG/1.1/DTD/svg11.dtd">
<!-- Generated by graphviz version 14.1.2 (20260124.0452)
 -->
<!-- Title: hdf5_ops::open_hdf5_file Pages: 1 -->
<svg width="370pt" height="104pt"
 viewBox="0.00 0.00 370.00 104.00" xmlns="http://www.w3.org/2000/svg" xmlns:xlink="http://www.w3.org/1999/xlink">
<g id="graph0" class="graph" transform="scale(1 1) rotate(0) translate(4 99.75)">
<title>hdf5_ops::open_hdf5_file</title>
<!-- Node1 -->
<g id="Node000001" class="node">
<title>Node1</title>
<g id="a_Node000001"><a xlink:title="Opens an HDF5 file and accompanying xmf file and returns the handles.">
<polygon fill="#999999" stroke="#666666" points="160,-48.75 0,-48.75 0,-28 160,-28 160,-48.75"/>
<text xml:space="preserve" text-anchor="middle" x="80" y="-33.35" font-family="Ubuntu Mono" font-size="12.00">hdf5_ops::open_hdf5_file</text>
</a>
</g>
</g>
<!-- Node2 -->
<g id="Node000002" class="node">
<title>Node2</title>
<g id="a_Node000002"><a xlink:href="namespacestr__utilities.html#a0b97e51770725a3e98ed393d26681414" target="_top" xlink:title="Convert an integer to string.">
<polygon fill="white" stroke="#666666" points="347,-77.75 211,-77.75 211,-57 347,-57 347,-77.75"/>
<text xml:space="preserve" text-anchor="middle" x="279" y="-62.35" font-family="Ubuntu Mono" font-size="12.00">str_utilities::i2str</text>
</a>
</g>
</g>
<!-- Node1&#45;&gt;Node2 -->
<g id="edge1_Node000001_Node000002" class="edge">
<title>Node1&#45;&gt;Node2</title>
<g id="a_edge1_Node000001_Node000002"><a xlink:title=" ">
<path fill="none" stroke="#63b8ff" d="M154.64,-49.21C169.27,-51.37 184.68,-53.64 199.47,-55.81"/>
<polygon fill="#63b8ff" stroke="#63b8ff" points="198.73,-59.24 209.13,-57.24 199.75,-52.32 198.73,-59.24"/>
</a>
</g>
</g>
<!-- Node3 -->
<g id="Node000003" class="node">
<title>Node3</title>
<g id="a_Node000003"><a xlink:href="namespacefiles__utilities.html#ac6066df405564ba2f5e3c4bba726c1f8" target="_top" xlink:title="Search for available new unit.">
<polygon fill="white" stroke="#666666" points="362,-20.75 196,-20.75 196,0 362,0 362,-20.75"/>
<text xml:space="preserve" text-anchor="middle" x="279" y="-5.35" font-family="Ubuntu Mono" font-size="12.00">files_utilities::nextunit</text>
</a>
</g>
</g>
<!-- Node1&#45;&gt;Node3 -->
<g id="edge3_Node000001_Node000003" class="edge">
<title>Node1&#45;&gt;Node3</title>
<g id="a_edge3_Node000001_Node000003"><a xlink:title=" ">
<path fill="none" stroke="#63b8ff" d="M157.45,-27.51C168.2,-25.98 179.33,-24.4 190.28,-22.84"/>
<polygon fill="#63b8ff" stroke="#63b8ff" points="190.69,-26.32 200.1,-21.45 189.7,-19.39 190.69,-26.32"/>
</a>
</g>
</g>
<!-- Node2&#45;&gt;Node2 -->
<g id="edge2_Node000002_Node000002" class="edge">
<title>Node2&#45;&gt;Node2</title>
<g id="a_edge2_Node000002_Node000002"><a xlink:title=" ">
<path fill="none" stroke="#63b8ff" d="M246.93,-78.15C234.11,-86.81 244.8,-95.75 279,-95.75 297.7,-95.75 309.38,-93.08 314.02,-89.24"/>
<polygon fill="#63b8ff" stroke="#63b8ff" points="317.41,-88.37 311.45,-79.61 310.64,-90.17 317.41,-88.37"/>
</a>
</g>
</g>
<!-- Node3&#45;&gt;Node3 -->
<g id="edge4_Node000003_Node000003" class="edge">
<title>Node3&#45;&gt;Node3</title>
<g id="a_edge4_Node000003_Node000003"><a xlink:title=" ">
<path fill="none" stroke="#63b8ff" d="M246.93,-21.15C234.11,-29.81 244.8,-38.75 279,-38.75 297.7,-38.75 309.38,-36.08 314.02,-32.24"/>
<polygon fill="#63b8ff" stroke="#63b8ff" points="317.41,-31.37 311.45,-22.61 310.64,-33.17 317.41,-31.37"/>
</a>
</g>
</g>
</g>
</svg>
