<?xml version="1.0" encoding="UTF-8" standalone="no"?>
<!DOCTYPE svg PUBLIC "-//W3C//DTD SVG 1.1//EN"
 "http://www.w3.org/Graphics/SVG/1.1/DTD/svg11.dtd">
<!-- Generated by graphviz version 2.43.0 (0)
 -->
<!-- Title: eq_utilities::do_eq Pages: 1 -->
<svg width="214pt" height="70pt"
 viewBox="0.00 0.00 214.00 70.00" xmlns="http://www.w3.org/2000/svg" xmlns:xlink="http://www.w3.org/1999/xlink">
<g id="graph0" class="graph" transform="scale(1 1) rotate(0) translate(4 66)">
<title>eq_utilities::do_eq</title>
<polygon fill="white" stroke="transparent" points="-4,4 -4,-66 210,-66 210,4 -4,4"/>
<!-- Node1 -->
<g id="node1" class="node">
<title>Node1</title>
<g id="a_node1"><a xlink:title="If this equilibrium job should be done, also increment eq_job_nr.">
<polygon fill="#bfbfbf" stroke="black" points="83,-20.5 83,-41.5 206,-41.5 206,-20.5 83,-20.5"/>
<text text-anchor="middle" x="144.5" y="-27.9" font-family="Ubuntu Mono" font-size="12.00">eq_utilities::do_eq</text>
</a>
</g>
</g>
<!-- Node2 -->
<g id="node2" class="node">
<title>Node2</title>
<g id="a_node2"><a xlink:href="PB3D_8f90.html#afaee01f014ab3398eecac996b2795fd2" target="_top" xlink:title="Peeling Ballooning in 3D.">
<polygon fill="white" stroke="black" points="0,-40.5 0,-61.5 47,-61.5 47,-40.5 0,-40.5"/>
<text text-anchor="middle" x="23.5" y="-47.9" font-family="Ubuntu Mono" font-size="12.00">pb3d</text>
</a>
</g>
</g>
<!-- Node1&#45;&gt;Node2 -->
<g id="edge1" class="edge">
<title>Node1&#45;&gt;Node2</title>
<path fill="none" stroke="midnightblue" d="M72.85,-42.87C63.64,-44.42 54.8,-45.91 47.25,-47.18"/>
<polygon fill="midnightblue" stroke="midnightblue" points="73.67,-46.28 82.95,-41.18 72.51,-39.38 73.67,-46.28"/>
</g>
<!-- Node3 -->
<g id="node3" class="node">
<title>Node3</title>
<g id="a_node3"><a xlink:href="POST_8f90.html#ac289b64ac4671fea0b4f2298ba1188a1" target="_top" xlink:title="Peeling Ballooning in 3D: postprocessing.">
<polygon fill="white" stroke="black" points="2.5,-0.5 2.5,-21.5 44.5,-21.5 44.5,-0.5 2.5,-0.5"/>
<text text-anchor="middle" x="23.5" y="-7.9" font-family="Ubuntu Mono" font-size="12.00">post</text>
</a>
</g>
</g>
<!-- Node1&#45;&gt;Node3 -->
<g id="edge2" class="edge">
<title>Node1&#45;&gt;Node3</title>
<path fill="none" stroke="midnightblue" d="M72.92,-19.14C62.55,-17.39 52.65,-15.73 44.53,-14.37"/>
<polygon fill="midnightblue" stroke="midnightblue" points="72.51,-22.62 82.95,-20.82 73.67,-15.72 72.51,-22.62"/>
</g>
</g>
</svg>
