<?xml version="1.0" encoding="UTF-8" standalone="no"?>
<!DOCTYPE svg PUBLIC "-//W3C//DTD SVG 1.1//EN"
 "http://www.w3.org/Graphics/SVG/1.1/DTD/svg11.dtd">
<!-- Generated by graphviz version 14.1.2 (20260124.0452)
 -->
<!-- Title: grid_utilities::extend_grid_f Pages: 1 -->
<svg width="672pt" height="107pt"
 viewBox="0.00 0.00 672.00 107.00" xmlns="http://www.w3.org/2000/svg" xmlns:xlink="http://www.w3.org/1999/xlink">
<g id="graph0" class="graph" transform="scale(1 1) rotate(0) translate(4 102.75)">
<title>grid_utilities::extend_grid_f</title>
<!-- Node1 -->
<g id="Node000001" class="node">
<title>Node1</title>
<g id="a_Node000001"><a xlink:title="Extend a grid angularly.">
<polygon fill="#999999" stroke="#666666" points="664,-66.12 516,-66.12 516,-32.62 664,-32.62 664,-66.12"/>
<text xml:space="preserve" text-anchor="start" x="524" y="-50.73" font-family="Ubuntu Mono" font-size="12.00">grid_utilities::extend</text>
<text xml:space="preserve" text-anchor="middle" x="590" y="-37.98" font-family="Ubuntu Mono" font-size="12.00">_grid_f</text>
</a>
</g>
</g>
<!-- Node2 -->
<g id="Node000002" class="node">
<title>Node2</title>
<g id="a_Node000002"><a xlink:href="namespaceeq__ops.html#af0effe20188d46a44680c2648e4572e9" target="_top" xlink:title="Plots the flux quantities in the solution grid.">
<polygon fill="white" stroke="#666666" points="465,-98.75 335,-98.75 335,-78 465,-78 465,-98.75"/>
<text xml:space="preserve" text-anchor="middle" x="400" y="-83.35" font-family="Ubuntu Mono" font-size="12.00">eq_ops::flux_q_plot</text>
</a>
</g>
</g>
<!-- Node1&#45;&gt;Node2 -->
<g id="edge1_Node000001_Node000002" class="edge">
<title>Node1&#45;&gt;Node2</title>
<g id="a_edge1_Node000001_Node000002"><a xlink:title=" ">
<path fill="none" stroke="#63b8ff" d="M504.68,-66.87C487.16,-70.5 469.18,-74.23 453.22,-77.54"/>
<polygon fill="#63b8ff" stroke="#63b8ff" points="504.94,-70.39 514.02,-64.93 503.52,-63.53 504.94,-70.39"/>
</a>
</g>
</g>
<!-- Node7 -->
<g id="Node000007" class="node">
<title>Node7</title>
<g id="a_Node000007"><a xlink:href="namespacegrid__ops.html#addd76b7b3be0b51e0863ae0cdfef41e6" target="_top" xlink:title="Plots the grid in real 3&#45;D space.">
<polygon fill="white" stroke="#666666" points="480,-59.75 320,-59.75 320,-39 480,-39 480,-59.75"/>
<text xml:space="preserve" text-anchor="middle" x="400" y="-44.35" font-family="Ubuntu Mono" font-size="12.00">grid_ops::magn_grid_plot</text>
</a>
</g>
</g>
<!-- Node1&#45;&gt;Node7 -->
<g id="edge6_Node000001_Node000007" class="edge">
<title>Node1&#45;&gt;Node7</title>
<g id="a_edge6_Node000001_Node000007"><a xlink:title=" ">
<path fill="none" stroke="#63b8ff" d="M504.04,-49.38C496.15,-49.38 488.18,-49.38 480.35,-49.38"/>
<polygon fill="#63b8ff" stroke="#63b8ff" points="503.99,-52.88 513.99,-49.38 503.99,-45.88 503.99,-52.88"/>
</a>
</g>
</g>
<!-- Node8 -->
<g id="Node000008" class="node">
<title>Node8</title>
<g id="a_Node000008"><a xlink:href="namespacedriver__post.html#a71f9fb1935222111e1c7cfc15c5d0269" target="_top" xlink:title="Cleans up main driver for postprocessing.">
<polygon fill="white" stroke="#666666" points="278,-20.75 130,-20.75 130,0 278,0 278,-20.75"/>
<text xml:space="preserve" text-anchor="middle" x="204" y="-5.35" font-family="Ubuntu Mono" font-size="12.00">driver_post::stop_post</text>
</a>
</g>
</g>
<!-- Node1&#45;&gt;Node8 -->
<g id="edge9_Node000001_Node000008" class="edge">
<title>Node1&#45;&gt;Node8</title>
<g id="a_edge9_Node000001_Node000008"><a xlink:title=" ">
<path fill="none" stroke="#63b8ff" d="M504.38,-33.77C496.16,-32.51 487.93,-31.35 480,-30.38 411.94,-21.99 333.94,-16.73 278.44,-13.72"/>
<polygon fill="#63b8ff" stroke="#63b8ff" points="503.65,-37.2 514.07,-35.31 504.74,-30.29 503.65,-37.2"/>
</a>
</g>
</g>
<!-- Node3 -->
<g id="Node000003" class="node">
<title>Node3</title>
<g id="a_Node000003"><a xlink:href="namespacedriver__post.html#af527706d4e696d4e507443d2f74194ef" target="_top" xlink:title="Initializes the POST driver.">
<polygon fill="white" stroke="#666666" points="278,-59.75 130,-59.75 130,-39 278,-39 278,-59.75"/>
<text xml:space="preserve" text-anchor="middle" x="204" y="-44.35" font-family="Ubuntu Mono" font-size="12.00">driver_post::init_post</text>
</a>
</g>
</g>
<!-- Node2&#45;&gt;Node3 -->
<g id="edge2_Node000002_Node000003" class="edge">
<title>Node2&#45;&gt;Node3</title>
<g id="a_edge2_Node000002_Node000003"><a xlink:title=" ">
<path fill="none" stroke="#63b8ff" d="M333.69,-75.25C309.44,-70.37 282.22,-64.9 259.09,-60.25"/>
<polygon fill="#63b8ff" stroke="#63b8ff" points="332.98,-78.67 343.48,-77.21 334.36,-71.81 332.98,-78.67"/>
</a>
</g>
</g>
<!-- Node5 -->
<g id="Node000005" class="node">
<title>Node5</title>
<g id="a_Node000005"><a xlink:href="namespacedriver__eq.html#a40d652e15887ad4f788a3945e6253571" target="_top" xlink:title="Main driver of PB3D equilibrium part.">
<polygon fill="white" stroke="#666666" points="284,-98.75 124,-98.75 124,-78 284,-78 284,-98.75"/>
<text xml:space="preserve" text-anchor="middle" x="204" y="-83.35" font-family="Ubuntu Mono" font-size="12.00">driver_eq::run_driver_eq</text>
</a>
</g>
</g>
<!-- Node2&#45;&gt;Node5 -->
<g id="edge4_Node000002_Node000005" class="edge">
<title>Node2&#45;&gt;Node5</title>
<g id="a_edge4_Node000002_Node000005"><a xlink:title=" ">
<path fill="none" stroke="#63b8ff" d="M323.54,-88.38C310.69,-88.38 297.31,-88.38 284.37,-88.38"/>
<polygon fill="#63b8ff" stroke="#63b8ff" points="323.16,-91.88 333.16,-88.38 323.16,-84.88 323.16,-91.88"/>
</a>
</g>
</g>
<!-- Node4 -->
<g id="Node000004" class="node">
<title>Node4</title>
<g id="a_Node000004"><a xlink:href="POST_8f90.html#a28f8fd95cf9c74c0cfd8b386827a7a9b" target="_top" xlink:title="Peeling Ballooning in 3D: postprocessing.">
<polygon fill="white" stroke="#666666" points="88,-40.75 0,-40.75 0,-20 88,-20 88,-40.75"/>
<text xml:space="preserve" text-anchor="middle" x="44" y="-25.35" font-family="Ubuntu Mono" font-size="12.00">__post_f90__</text>
</a>
</g>
</g>
<!-- Node3&#45;&gt;Node4 -->
<g id="edge3_Node000003_Node000004" class="edge">
<title>Node3&#45;&gt;Node4</title>
<g id="a_edge3_Node000003_Node000004"><a xlink:title=" ">
<path fill="none" stroke="#63b8ff" d="M118.23,-39.18C107.82,-37.93 97.54,-36.69 88.12,-35.56"/>
<polygon fill="#63b8ff" stroke="#63b8ff" points="117.7,-42.64 128.05,-40.36 118.54,-35.69 117.7,-42.64"/>
</a>
</g>
</g>
<!-- Node6 -->
<g id="Node000006" class="node">
<title>Node6</title>
<g id="a_Node000006"><a xlink:href="PB3D_8f90.html#a36e5b0ce05c9783f58b43c4463b290a1" target="_top" xlink:title="Peeling Ballooning in 3D.">
<polygon fill="white" stroke="#666666" points="88,-98.75 0,-98.75 0,-78 88,-78 88,-98.75"/>
<text xml:space="preserve" text-anchor="middle" x="44" y="-83.35" font-family="Ubuntu Mono" font-size="12.00">__pb3d_f90__</text>
</a>
</g>
</g>
<!-- Node5&#45;&gt;Node6 -->
<g id="edge5_Node000005_Node000006" class="edge">
<title>Node5&#45;&gt;Node6</title>
<g id="a_edge5_Node000005_Node000006"><a xlink:title=" ">
<path fill="none" stroke="#63b8ff" d="M112.19,-88.38C103.93,-88.38 95.84,-88.38 88.3,-88.38"/>
<polygon fill="#63b8ff" stroke="#63b8ff" points="112.02,-91.88 122.02,-88.38 112.02,-84.88 112.02,-91.88"/>
</a>
</g>
</g>
<!-- Node7&#45;&gt;Node3 -->
<g id="edge7_Node000007_Node000003" class="edge">
<title>Node7&#45;&gt;Node3</title>
<g id="a_edge7_Node000007_Node000003"><a xlink:title=" ">
<path fill="none" stroke="#63b8ff" d="M308.29,-49.38C298.28,-49.38 288.18,-49.38 278.41,-49.38"/>
<polygon fill="#63b8ff" stroke="#63b8ff" points="308.02,-52.88 318.02,-49.38 308.02,-45.88 308.02,-52.88"/>
</a>
</g>
</g>
<!-- Node7&#45;&gt;Node5 -->
<g id="edge8_Node000007_Node000005" class="edge">
<title>Node7&#45;&gt;Node5</title>
<g id="a_edge8_Node000007_Node000005"><a xlink:title=" ">
<path fill="none" stroke="#63b8ff" d="M333.69,-62.5C309.44,-67.38 282.22,-72.85 259.09,-77.5"/>
<polygon fill="#63b8ff" stroke="#63b8ff" points="334.36,-65.94 343.48,-60.54 332.98,-59.08 334.36,-65.94"/>
</a>
</g>
</g>
<!-- Node8&#45;&gt;Node4 -->
<g id="edge10_Node000008_Node000004" class="edge">
<title>Node8&#45;&gt;Node4</title>
<g id="a_edge10_Node000008_Node000004"><a xlink:title=" ">
<path fill="none" stroke="#63b8ff" d="M118.23,-21.11C107.82,-22.42 97.54,-23.72 88.12,-24.92"/>
<polygon fill="#63b8ff" stroke="#63b8ff" points="118.57,-24.59 128.05,-19.86 117.69,-17.65 118.57,-24.59"/>
</a>
</g>
</g>
</g>
</svg>
