<?xml version="1.0" encoding="UTF-8" standalone="no"?>
<!DOCTYPE svg PUBLIC "-//W3C//DTD SVG 1.1//EN"
 "http://www.w3.org/Graphics/SVG/1.1/DTD/svg11.dtd">
<!-- Generated by graphviz version 2.38.0 (20140413.2041)
 -->
<!-- Title: hdf5_ops::merge_hdf5_3d_data_items Pages: 1 -->
<svg width="324pt" height="43pt"
 viewBox="0.00 0.00 324.00 43.00" xmlns="http://www.w3.org/2000/svg" xmlns:xlink="http://www.w3.org/1999/xlink">
<g id="graph0" class="graph" transform="scale(1 1) rotate(0) translate(4 39)">
<title>hdf5_ops::merge_hdf5_3d_data_items</title>
<polygon fill="white" stroke="none" points="-4,4 -4,-39 320,-39 320,4 -4,4"/>
<!-- Node31 -->
<g id="node1" class="node"><title>Node31</title>
<polygon fill="#bfbfbf" stroke="black" points="0,-0.5 0,-34.5 137,-34.5 137,-0.5 0,-0.5"/>
<text text-anchor="start" x="8" y="-20.9" font-family="Ubuntu Mono" font-size="12.00">hdf5_ops::merge_hdf5</text>
<text text-anchor="middle" x="68.5" y="-7.9" font-family="Ubuntu Mono" font-size="12.00">_3d_data_items</text>
</g>
<!-- Node32 -->
<g id="node2" class="node"><title>Node32</title>
<g id="a_node2"><a xlink:href="interfaceoutput__ops_1_1plot__hdf5.html#aabeeacb6f9aab1fb21d226e6a315e3d1" target="_top" xlink:title="array version ">
<polygon fill="white" stroke="black" points="173,-0.5 173,-34.5 316,-34.5 316,-0.5 173,-0.5"/>
<text text-anchor="start" x="181" y="-20.9" font-family="Ubuntu Mono" font-size="12.00">output_ops::plot_hdf5</text>
<text text-anchor="middle" x="244.5" y="-7.9" font-family="Ubuntu Mono" font-size="12.00">::plot_hdf5_arr</text>
</a>
</g>
</g>
<!-- Node31&#45;&gt;Node32 -->
<g id="edge1" class="edge"><title>Node31&#45;&gt;Node32</title>
<path fill="none" stroke="midnightblue" d="M147.466,-17.5C155.888,-17.5 164.425,-17.5 172.755,-17.5"/>
<polygon fill="midnightblue" stroke="midnightblue" points="147.271,-14.0001 137.271,-17.5 147.271,-21.0001 147.271,-14.0001"/>
</g>
</g>
</svg>
