<?xml version="1.0" encoding="UTF-8" standalone="no"?>
<!DOCTYPE svg PUBLIC "-//W3C//DTD SVG 1.1//EN"
 "http://www.w3.org/Graphics/SVG/1.1/DTD/svg11.dtd">
<!-- Generated by graphviz version 2.38.0 (20140413.2041)
 -->
<!-- Title: vac_ops::calc_gh Pages: 1 -->
<svg width="628pt" height="109pt"
 viewBox="0.00 0.00 628.00 109.00" xmlns="http://www.w3.org/2000/svg" xmlns:xlink="http://www.w3.org/1999/xlink">
<g id="graph0" class="graph" transform="scale(1 1) rotate(0) translate(4 105)">
<title>vac_ops::calc_gh</title>
<polygon fill="white" stroke="none" points="-4,4 -4,-105 624,-105 624,4 -4,4"/>
<!-- Node0 -->
<g id="node1" class="node"><title>Node0</title>
<polygon fill="#bfbfbf" stroke="black" points="0,-40.5 0,-61.5 113,-61.5 113,-40.5 0,-40.5"/>
<text text-anchor="middle" x="56.5" y="-47.9" font-family="Ubuntu Mono" font-size="12.00">vac_ops::calc_gh</text>
</g>
<!-- Node1 -->
<g id="node2" class="node"><title>Node1</title>
<g id="a_node2"><a xlink:href="namespacemessages.html#aa4a8d01563e92558e8a0875b075ec54c" target="_top" xlink:title="Write output to file identified by output_i. ">
<polygon fill="white" stroke="black" points="322,-59.5 322,-80.5 429,-80.5 429,-59.5 322,-59.5"/>
<text text-anchor="middle" x="375.5" y="-66.9" font-family="Ubuntu Mono" font-size="12.00">messages::writo</text>
</a>
</g>
</g>
<!-- Node0&#45;&gt;Node1 -->
<g id="edge1" class="edge"><title>Node0&#45;&gt;Node1</title>
<path fill="none" stroke="midnightblue" d="M96.8281,-61.54C112.879,-65.3311 131.702,-69.1316 149,-71 203.707,-76.9092 266.316,-76.0283 311.659,-74.032"/>
<polygon fill="midnightblue" stroke="midnightblue" points="312.105,-77.515 321.929,-73.5479 311.776,-70.5227 312.105,-77.515"/>
</g>
<!-- Node4 -->
<g id="node5" class="node"><title>Node4</title>
<g id="a_node5"><a xlink:href="namespacemessages.html#a6e6bfb084063e4cc91ee86e542043302" target="_top" xlink:title="Increases/decreases lvl of output. ">
<polygon fill="white" stroke="black" points="161,-40.5 161,-61.5 274,-61.5 274,-40.5 161,-40.5"/>
<text text-anchor="middle" x="217.5" y="-47.9" font-family="Ubuntu Mono" font-size="12.00">messages::lvl_ud</text>
</a>
</g>
</g>
<!-- Node0&#45;&gt;Node4 -->
<g id="edge4" class="edge"><title>Node0&#45;&gt;Node4</title>
<path fill="none" stroke="midnightblue" d="M113.11,-51C125.214,-51 138.132,-51 150.591,-51"/>
<polygon fill="midnightblue" stroke="midnightblue" points="150.921,-54.5001 160.921,-51 150.921,-47.5001 150.921,-54.5001"/>
</g>
<!-- Node5 -->
<g id="node6" class="node"><title>Node5</title>
<g id="a_node6"><a xlink:href="namespacestr__utilities.html#a0b97e51770725a3e98ed393d26681414" target="_top" xlink:title="Convert an integer to string. ">
<polygon fill="white" stroke="black" points="149,-0.5 149,-21.5 286,-21.5 286,-0.5 149,-0.5"/>
<text text-anchor="middle" x="217.5" y="-7.9" font-family="Ubuntu Mono" font-size="12.00">str_utilities::i2str</text>
</a>
</g>
</g>
<!-- Node0&#45;&gt;Node5 -->
<g id="edge6" class="edge"><title>Node0&#45;&gt;Node5</title>
<path fill="none" stroke="midnightblue" d="M99.2754,-40.4905C119.371,-35.4349 143.654,-29.3261 164.894,-23.9827"/>
<polygon fill="midnightblue" stroke="midnightblue" points="165.884,-27.3427 174.728,-21.5087 164.176,-20.5543 165.884,-27.3427"/>
</g>
<!-- Node2 -->
<g id="node3" class="node"><title>Node2</title>
<g id="a_node3"><a xlink:href="namespacemessages.html#a82dddaab795b78b3d39e1ff1aab2f665" target="_top" xlink:title="Returns the memory usage in kilobytes. ">
<polygon fill="white" stroke="black" points="465,-79.5 465,-100.5 620,-100.5 620,-79.5 465,-79.5"/>
<text text-anchor="middle" x="542.5" y="-86.9" font-family="Ubuntu Mono" font-size="12.00">messages::get_mem_usage</text>
</a>
</g>
</g>
<!-- Node1&#45;&gt;Node2 -->
<g id="edge2" class="edge"><title>Node1&#45;&gt;Node2</title>
<path fill="none" stroke="midnightblue" d="M429.161,-76.3831C437.452,-77.3881 446.208,-78.4495 455.025,-79.5182"/>
<polygon fill="midnightblue" stroke="midnightblue" points="454.635,-82.9965 464.984,-80.7253 455.478,-76.0474 454.635,-82.9965"/>
</g>
<!-- Node3 -->
<g id="node4" class="node"><title>Node3</title>
<g id="a_node4"><a xlink:href="namespacemessages.html#a61fd0b51b5e37d58fdc993c01792a3fd" target="_top" xlink:title="Returns the time. ">
<polygon fill="white" stroke="black" points="477,-39.5 477,-60.5 608,-60.5 608,-39.5 477,-39.5"/>
<text text-anchor="middle" x="542.5" y="-46.9" font-family="Ubuntu Mono" font-size="12.00">messages::get_clock</text>
</a>
</g>
</g>
<!-- Node1&#45;&gt;Node3 -->
<g id="edge3" class="edge"><title>Node1&#45;&gt;Node3</title>
<path fill="none" stroke="midnightblue" d="M429.161,-63.6169C441.142,-62.1646 454.094,-60.5947 466.797,-59.0549"/>
<polygon fill="midnightblue" stroke="midnightblue" points="467.402,-62.5073 476.908,-57.8293 466.56,-55.5581 467.402,-62.5073"/>
</g>
<!-- Node4&#45;&gt;Node1 -->
<g id="edge5" class="edge"><title>Node4&#45;&gt;Node1</title>
<path fill="none" stroke="midnightblue" d="M274.379,-57.8058C286.468,-59.2782 299.331,-60.8448 311.667,-62.3472"/>
<polygon fill="midnightblue" stroke="midnightblue" points="311.527,-65.856 321.877,-63.5907 312.373,-58.9073 311.527,-65.856"/>
</g>
</g>
</svg>
