<?xml version="1.0" encoding="UTF-8" standalone="no"?>
<!DOCTYPE svg PUBLIC "-//W3C//DTD SVG 1.1//EN"
 "http://www.w3.org/Graphics/SVG/1.1/DTD/svg11.dtd">
<!-- Generated by graphviz version 2.38.0 (20140413.2041)
 -->
<!-- Title: num_utilities::gcd Pages: 1 -->
<svg width="795pt" height="122pt"
 viewBox="0.00 0.00 795.00 121.50" xmlns="http://www.w3.org/2000/svg" xmlns:xlink="http://www.w3.org/1999/xlink">
<g id="graph0" class="graph" transform="scale(1 1) rotate(0) translate(4 117.5)">
<title>num_utilities::gcd</title>
<polygon fill="white" stroke="none" points="-4,4 -4,-117.5 791,-117.5 791,4 -4,4"/>
<!-- Node137 -->
<g id="node1" class="node"><title>Node137</title>
<polygon fill="#bfbfbf" stroke="black" points="0,-39.5 0,-60.5 125,-60.5 125,-39.5 0,-39.5"/>
<text text-anchor="middle" x="62.5" y="-46.9" font-family="Ubuntu Mono" font-size="12.00">num_utilities::gcd</text>
</g>
<!-- Node138 -->
<g id="node2" class="node"><title>Node138</title>
<g id="a_node2"><a xlink:href="namespaceeq__ops.html#a9addef683b3d4a8c587510e4c994ec61" target="_top" xlink:title="Creates a VMEC input file. ">
<polygon fill="white" stroke="black" points="161,-79 161,-113 292,-113 292,-79 161,-79"/>
<text text-anchor="start" x="169" y="-99.4" font-family="Ubuntu Mono" font-size="12.00">eq_ops::create_vmec</text>
<text text-anchor="middle" x="226.5" y="-86.4" font-family="Ubuntu Mono" font-size="12.00">_input</text>
</a>
</g>
</g>
<!-- Node137&#45;&gt;Node138 -->
<g id="edge1" class="edge"><title>Node137&#45;&gt;Node138</title>
<path fill="none" stroke="midnightblue" d="M110.439,-63.3284C127.577,-68.1946 147.202,-73.7672 165.333,-78.9155"/>
<polygon fill="midnightblue" stroke="midnightblue" points="111.242,-59.918 100.666,-60.5533 109.33,-66.6518 111.242,-59.918"/>
</g>
<!-- Node139 -->
<g id="node3" class="node"><title>Node139</title>
<g id="a_node3"><a xlink:href="interfaceeq__ops_1_1calc__eq.html#ae2f56ab19ce5c33e863f32e1c9263604" target="_top" xlink:title="metric version ">
<polygon fill="white" stroke="black" points="328,-62.5 328,-83.5 501,-83.5 501,-62.5 328,-62.5"/>
<text text-anchor="middle" x="414.5" y="-69.9" font-family="Ubuntu Mono" font-size="12.00">eq_ops::calc_eq::calc_eq_2</text>
</a>
</g>
</g>
<!-- Node137&#45;&gt;Node139 -->
<g id="edge7" class="edge"><title>Node137&#45;&gt;Node139</title>
<path fill="none" stroke="midnightblue" d="M135.422,-54.7263C191.212,-58.3925 268.718,-63.4857 327.736,-67.3641"/>
<polygon fill="midnightblue" stroke="midnightblue" points="135.475,-51.2223 125.267,-54.059 135.016,-58.2073 135.475,-51.2223"/>
</g>
<!-- Node140 -->
<g id="node4" class="node"><title>Node140</title>
<g id="a_node4"><a xlink:href="namespacenum__utilities.html#a33fc1483c840d5d3f9b12acfce21cad1" target="_top" xlink:title="Returns common multiple using the Euclid&#39;s algorithm. ">
<polygon fill="white" stroke="black" points="164,-0.5 164,-21.5 289,-21.5 289,-0.5 164,-0.5"/>
<text text-anchor="middle" x="226.5" y="-7.9" font-family="Ubuntu Mono" font-size="12.00">num_utilities::lcm</text>
</a>
</g>
</g>
<!-- Node137&#45;&gt;Node140 -->
<g id="edge3" class="edge"><title>Node137&#45;&gt;Node140</title>
<path fill="none" stroke="midnightblue" d="M117.34,-37.0385C138.215,-32.0131 161.811,-26.3325 181.625,-21.5624"/>
<polygon fill="midnightblue" stroke="midnightblue" points="116.243,-33.7026 107.34,-39.446 117.881,-40.5082 116.243,-33.7026"/>
</g>
<!-- Node138&#45;&gt;Node139 -->
<g id="edge2" class="edge"><title>Node138&#45;&gt;Node139</title>
<path fill="none" stroke="midnightblue" d="M302.087,-86.7768C310.756,-85.7049 319.648,-84.6054 328.444,-83.5177"/>
<polygon fill="midnightblue" stroke="midnightblue" points="301.527,-83.3194 292.032,-88.0203 302.386,-90.2665 301.527,-83.3194"/>
</g>
<!-- Node141 -->
<g id="node5" class="node"><title>Node141</title>
<g id="a_node5"><a xlink:href="namespacevac__ops.html#a5e5a8322b3aa2e3704b1050426f06d9d" target="_top" xlink:title="Calculates the vacuum response. ">
<polygon fill="white" stroke="black" points="343,-0.5 343,-21.5 486,-21.5 486,-0.5 343,-0.5"/>
<text text-anchor="middle" x="414.5" y="-7.9" font-family="Ubuntu Mono" font-size="12.00">vac_ops::calc_vac_res</text>
</a>
</g>
</g>
<!-- Node140&#45;&gt;Node141 -->
<g id="edge4" class="edge"><title>Node140&#45;&gt;Node141</title>
<path fill="none" stroke="midnightblue" d="M299.442,-11C313.738,-11 328.734,-11 342.982,-11"/>
<polygon fill="midnightblue" stroke="midnightblue" points="299.177,-7.5001 289.177,-11 299.177,-14.5001 299.177,-7.5001"/>
</g>
<!-- Node142 -->
<g id="node6" class="node"><title>Node142</title>
<g id="a_node6"><a xlink:href="namespacedriver__sol.html#ad3b1765b3ecc5f82129bfc683ffc6c5c" target="_top" xlink:title="Main driver of PB3D solution part. ">
<polygon fill="white" stroke="black" points="537,-0.5 537,-21.5 710,-21.5 710,-0.5 537,-0.5"/>
<text text-anchor="middle" x="623.5" y="-7.9" font-family="Ubuntu Mono" font-size="12.00">driver_sol::run_driver_sol</text>
</a>
</g>
</g>
<!-- Node141&#45;&gt;Node142 -->
<g id="edge5" class="edge"><title>Node141&#45;&gt;Node142</title>
<path fill="none" stroke="midnightblue" d="M496.213,-11C509.517,-11 523.349,-11 536.77,-11"/>
<polygon fill="midnightblue" stroke="midnightblue" points="496.159,-7.5001 486.159,-11 496.159,-14.5001 496.159,-7.5001"/>
</g>
<!-- Node143 -->
<g id="node7" class="node"><title>Node143</title>
<g id="a_node7"><a xlink:href="PB3D_8f90.html#afaee01f014ab3398eecac996b2795fd2" target="_top" xlink:title="Peeling Ballooning in 3D. ">
<polygon fill="white" stroke="black" points="746,-0.5 746,-21.5 787,-21.5 787,-0.5 746,-0.5"/>
<text text-anchor="middle" x="766.5" y="-7.9" font-family="Ubuntu Mono" font-size="12.00">pb3d</text>
</a>
</g>
</g>
<!-- Node142&#45;&gt;Node143 -->
<g id="edge6" class="edge"><title>Node142&#45;&gt;Node143</title>
<path fill="none" stroke="midnightblue" d="M720.337,-11C729.873,-11 738.695,-11 745.964,-11"/>
<polygon fill="midnightblue" stroke="midnightblue" points="720.178,-7.5001 710.178,-11 720.178,-14.5001 720.178,-7.5001"/>
</g>
</g>
</svg>
