<?xml version="1.0" encoding="UTF-8" standalone="no"?>
<!DOCTYPE svg PUBLIC "-//W3C//DTD SVG 1.1//EN"
 "http://www.w3.org/Graphics/SVG/1.1/DTD/svg11.dtd">
<!-- Generated by graphviz version 14.1.2 (20260124.0452)
 -->
<!-- Title: grid_ops::redistribute_output_grid Pages: 1 -->
<svg width="1314pt" height="488pt"
 viewBox="0.00 0.00 1314.00 488.00" xmlns="http://www.w3.org/2000/svg" xmlns:xlink="http://www.w3.org/1999/xlink">
<g id="graph0" class="graph" transform="scale(1 1) rotate(0) translate(4 484.15)">
<title>grid_ops::redistribute_output_grid</title>
<!-- Node1 -->
<g id="Node000001" class="node">
<title>Node1</title>
<g id="a_Node000001"><a xlink:title="Redistribute a grid to match the normal distribution of solution grid.">
<polygon fill="#999999" stroke="#666666" points="148,-65.12 0,-65.12 0,-31.62 148,-31.62 148,-65.12"/>
<text xml:space="preserve" text-anchor="start" x="8" y="-49.73" font-family="Ubuntu Mono" font-size="12.00">grid_ops::redistribute</text>
<text xml:space="preserve" text-anchor="middle" x="74" y="-36.98" font-family="Ubuntu Mono" font-size="12.00">_output_grid</text>
</a>
</g>
</g>
<!-- Node2 -->
<g id="Node000002" class="node">
<title>Node2</title>
<g id="a_Node000002"><a xlink:href="namespacegrid__ops.html#a7dd21871a4e65190fe6235eb2af4b6c2" target="_top" xlink:title="Calculates normal range for the input grid, the equilibrium grid and/or the solution grid.">
<polygon fill="white" stroke="#666666" points="350,-161.12 220,-161.12 220,-127.62 350,-127.62 350,-161.12"/>
<text xml:space="preserve" text-anchor="start" x="228" y="-145.72" font-family="Ubuntu Mono" font-size="12.00">grid_ops::calc_norm</text>
<text xml:space="preserve" text-anchor="middle" x="285" y="-132.97" font-family="Ubuntu Mono" font-size="12.00">_range</text>
</a>
</g>
</g>
<!-- Node1&#45;&gt;Node2 -->
<g id="edge1_Node000001_Node000002" class="edge">
<title>Node1&#45;&gt;Node2</title>
<g id="a_edge1_Node000001_Node000002"><a xlink:title=" ">
<path fill="none" stroke="#63b8ff" d="M112.37,-65.54C147.03,-81.46 198.79,-105.23 236.4,-122.51"/>
<polygon fill="#63b8ff" stroke="#63b8ff" points="234.68,-125.57 245.23,-126.57 237.61,-119.21 234.68,-125.57"/>
</a>
</g>
</g>
<!-- Node16 -->
<g id="Node000016" class="node">
<title>Node16</title>
<g id="a_Node000016"><a xlink:href="namespacegrid__utilities.html#a169b137ec246579a2fa94fa4612104d1" target="_top" xlink:title="finds smallest range that comprises a minimum and maximum value.">
<polygon fill="white" stroke="#666666" points="760,-84.12 624,-84.12 624,-50.62 760,-50.62 760,-84.12"/>
<text xml:space="preserve" text-anchor="start" x="632" y="-68.72" font-family="Ubuntu Mono" font-size="12.00">grid_utilities::find</text>
<text xml:space="preserve" text-anchor="middle" x="692" y="-55.98" font-family="Ubuntu Mono" font-size="12.00">_compr_range</text>
</a>
</g>
</g>
<!-- Node1&#45;&gt;Node16 -->
<g id="edge26_Node000001_Node000016" class="edge">
<title>Node1&#45;&gt;Node16</title>
<g id="a_edge26_Node000001_Node000016"><a xlink:title=" ">
<path fill="none" stroke="#63b8ff" d="M148.39,-50.64C265.21,-54.24 492.49,-61.25 612.46,-64.95"/>
<polygon fill="#63b8ff" stroke="#63b8ff" points="612.12,-68.44 622.22,-65.25 612.33,-61.45 612.12,-68.44"/>
</a>
</g>
</g>
<!-- Node17 -->
<g id="Node000017" class="node">
<title>Node17</title>
<g id="a_Node000017"><a xlink:href="namespacempi__utilities.html#a128702990bd5fddc582e8fabcffc82b2" target="_top" xlink:title="Redistribute variables according to new limits.">
<polygon fill="white" stroke="#666666" points="386,-20.75 184,-20.75 184,0 386,0 386,-20.75"/>
<text xml:space="preserve" text-anchor="middle" x="285" y="-5.35" font-family="Ubuntu Mono" font-size="12.00">mpi_utilities::redistribute_var</text>
</a>
</g>
</g>
<!-- Node1&#45;&gt;Node17 -->
<g id="edge27_Node000001_Node000017" class="edge">
<title>Node1&#45;&gt;Node17</title>
<g id="a_edge27_Node000001_Node000017"><a xlink:title=" ">
<path fill="none" stroke="#63b8ff" d="M148.39,-35.03C169.43,-31.21 192.32,-27.04 213.19,-23.25"/>
<polygon fill="#63b8ff" stroke="#63b8ff" points="213.53,-26.74 222.75,-21.51 212.28,-19.86 213.53,-26.74"/>
</a>
</g>
</g>
<!-- Node3 -->
<g id="Node000003" class="node">
<title>Node3</title>
<g id="a_Node000003"><a xlink:href="grid__ops_8f90.html#a868669b6df6c0fa6a8cedd993042f6ea" target="_top" xlink:title="PB3D equilibrium version.">
<polygon fill="white" stroke="#666666" points="576,-174.75 422,-174.75 422,-154 576,-154 576,-174.75"/>
<text xml:space="preserve" text-anchor="middle" x="499" y="-159.35" font-family="Ubuntu Mono" font-size="12.00">calc_norm_range_pb3d_eq</text>
</a>
</g>
</g>
<!-- Node2&#45;&gt;Node3 -->
<g id="edge2_Node000002_Node000003" class="edge">
<title>Node2&#45;&gt;Node3</title>
<g id="a_edge2_Node000002_Node000003"><a xlink:title=" ">
<path fill="none" stroke="#63b8ff" d="M350.47,-150.46C369.3,-152.23 390.2,-154.2 410.2,-156.09"/>
<polygon fill="#63b8ff" stroke="#63b8ff" points="409.74,-159.56 420.03,-157.02 410.4,-152.6 409.74,-159.56"/>
</a>
</g>
</g>
<!-- Node4 -->
<g id="Node000004" class="node">
<title>Node4</title>
<g id="a_Node000004"><a xlink:href="grid__ops_8f90.html#aebe21d718069318bced62bc3d2d09393" target="_top" xlink:title="PB3D input version.">
<polygon fill="white" stroke="#666666" points="576,-135.75 422,-135.75 422,-115 576,-115 576,-135.75"/>
<text xml:space="preserve" text-anchor="middle" x="499" y="-120.35" font-family="Ubuntu Mono" font-size="12.00">calc_norm_range_pb3d_in</text>
</a>
</g>
</g>
<!-- Node2&#45;&gt;Node4 -->
<g id="edge3_Node000002_Node000004" class="edge">
<title>Node2&#45;&gt;Node4</title>
<g id="a_edge3_Node000002_Node000004"><a xlink:title=" ">
<path fill="none" stroke="#63b8ff" d="M350.47,-138.6C369.3,-136.91 390.2,-135.04 410.2,-133.24"/>
<polygon fill="#63b8ff" stroke="#63b8ff" points="410.38,-136.74 420.03,-132.36 409.75,-129.77 410.38,-136.74"/>
</a>
</g>
</g>
<!-- Node5 -->
<g id="Node000005" class="node">
<title>Node5</title>
<g id="a_Node000005"><a xlink:href="grid__ops_8f90.html#a6b55de41e75e249c934c4ab96cf10ee9" target="_top" xlink:title="PB3D solution version.">
<polygon fill="white" stroke="#666666" points="772,-193.75 612,-193.75 612,-173 772,-173 772,-193.75"/>
<text xml:space="preserve" text-anchor="middle" x="692" y="-178.35" font-family="Ubuntu Mono" font-size="12.00">calc_norm_range_pb3d_sol</text>
</a>
</g>
</g>
<!-- Node2&#45;&gt;Node5 -->
<g id="edge4_Node000002_Node000005" class="edge">
<title>Node2&#45;&gt;Node5</title>
<g id="a_edge4_Node000002_Node000005"><a xlink:title=" ">
<path fill="none" stroke="#63b8ff" d="M333.76,-161.61C359.52,-170 392.08,-179.17 422,-183.38 481.03,-191.67 548.06,-191.69 600.45,-189.63"/>
<polygon fill="#63b8ff" stroke="#63b8ff" points="600.38,-193.14 610.22,-189.21 600.08,-186.15 600.38,-193.14"/>
</a>
</g>
</g>
<!-- Node6 -->
<g id="Node000006" class="node">
<title>Node6</title>
<g id="a_Node000006"><a xlink:href="grid__ops_8f90.html#af80fd529f789cbf0338024afe3fe76ec" target="_top" xlink:title="PB3D perturbation version.">
<polygon fill="white" stroke="#666666" points="573,-269.75 425,-269.75 425,-249 573,-249 573,-269.75"/>
<text xml:space="preserve" text-anchor="middle" x="499" y="-254.35" font-family="Ubuntu Mono" font-size="12.00">calc_norm_range_pb3d_x</text>
</a>
</g>
</g>
<!-- Node2&#45;&gt;Node6 -->
<g id="edge5_Node000002_Node000006" class="edge">
<title>Node2&#45;&gt;Node6</title>
<g id="a_edge5_Node000002_Node000006"><a xlink:title=" ">
<path fill="none" stroke="#63b8ff" d="M317.74,-161.59C358.46,-183.68 428.55,-221.7 468.27,-243.25"/>
<polygon fill="#63b8ff" stroke="#63b8ff" points="466.36,-246.19 476.82,-247.89 469.7,-240.04 466.36,-246.19"/>
</a>
</g>
</g>
<!-- Node15 -->
<g id="Node000015" class="node">
<title>Node15</title>
<g id="a_Node000015"><a xlink:href="grid__ops_8f90.html#a504fe64a9f5061c867bef7bee7538450" target="_top" xlink:title="POST version.">
<polygon fill="white" stroke="#666666" points="567,-96.75 431,-96.75 431,-76 567,-76 567,-96.75"/>
<text xml:space="preserve" text-anchor="middle" x="499" y="-81.35" font-family="Ubuntu Mono" font-size="12.00">calc_norm_range_post</text>
</a>
</g>
</g>
<!-- Node2&#45;&gt;Node15 -->
<g id="edge24_Node000002_Node000015" class="edge">
<title>Node2&#45;&gt;Node15</title>
<g id="a_edge24_Node000002_Node000015"><a xlink:title=" ">
<path fill="none" stroke="#63b8ff" d="M346.88,-127.15C370.33,-120.57 397.39,-113.05 422,-106.38 429.61,-104.31 437.65,-102.16 445.55,-100.07"/>
<polygon fill="#63b8ff" stroke="#63b8ff" points="446.32,-103.48 455.09,-97.55 444.53,-96.72 446.32,-103.48"/>
</a>
</g>
</g>
<!-- Node6&#45;&gt;Node5 -->
<g id="edge6_Node000006_Node000005" class="edge">
<title>Node6&#45;&gt;Node5</title>
<g id="a_edge6_Node000006_Node000005"><a xlink:title=" ">
<path fill="none" stroke="#63b8ff" d="M521.09,-248.5C543.32,-237.3 579.56,-219.77 612,-207.38 621.24,-203.85 631.24,-200.47 640.92,-197.43"/>
<polygon fill="#63b8ff" stroke="#63b8ff" points="641.67,-200.86 650.21,-194.59 639.62,-194.17 641.67,-200.86"/>
</a>
</g>
</g>
<!-- Node7 -->
<g id="Node000007" class="node">
<title>Node7</title>
<g id="a_Node000007"><a xlink:href="namespaceoutput__ops.html#a50bfbb88cc91805469353c3ff47b3e2e" target="_top" xlink:title="Use external program to draw a plot.">
<polygon fill="white" stroke="#666666" points="757,-364.75 627,-364.75 627,-344 757,-344 757,-364.75"/>
<text xml:space="preserve" text-anchor="middle" x="692" y="-349.35" font-family="Ubuntu Mono" font-size="12.00">output_ops::draw_ex</text>
</a>
</g>
</g>
<!-- Node6&#45;&gt;Node7 -->
<g id="edge7_Node000006_Node000007" class="edge">
<title>Node6&#45;&gt;Node7</title>
<g id="a_edge7_Node000006_Node000007"><a xlink:title=" ">
<path fill="none" stroke="#63b8ff" d="M512.91,-270.21C532.9,-286.45 573.09,-317.05 612,-334.38 616.83,-336.53 621.94,-338.48 627.14,-340.24"/>
<polygon fill="#63b8ff" stroke="#63b8ff" points="625.85,-343.5 636.44,-343.14 627.94,-336.82 625.85,-343.5"/>
</a>
</g>
</g>
<!-- Node8 -->
<g id="Node000008" class="node">
<title>Node8</title>
<g id="a_Node000008"><a xlink:href="namespacestr__utilities.html#a0b97e51770725a3e98ed393d26681414" target="_top" xlink:title="Convert an integer to string.">
<polygon fill="white" stroke="#666666" points="1297,-345.75 1161,-345.75 1161,-325 1297,-325 1297,-345.75"/>
<text xml:space="preserve" text-anchor="middle" x="1229" y="-330.35" font-family="Ubuntu Mono" font-size="12.00">str_utilities::i2str</text>
</a>
</g>
</g>
<!-- Node6&#45;&gt;Node8 -->
<g id="edge19_Node000006_Node000008" class="edge">
<title>Node6&#45;&gt;Node8</title>
<g id="a_edge19_Node000006_Node000008"><a xlink:title=" ">
<path fill="none" stroke="#63b8ff" d="M508.28,-270.01C525.61,-291.72 567.76,-341.75 612,-373.38 690.59,-429.57 713.79,-445.95 808,-467.38 879.94,-483.73 902.33,-484.89 974,-467.38 1065.62,-444.99 1160.99,-383.25 1204.2,-352.81"/>
<polygon fill="#63b8ff" stroke="#63b8ff" points="1206.22,-355.66 1212.33,-347 1202.15,-349.97 1206.22,-355.66"/>
</a>
</g>
</g>
<!-- Node9 -->
<g id="Node000009" class="node">
<title>Node9</title>
<g id="a_Node000009"><a xlink:href="namespacemessages.html#a6e6bfb084063e4cc91ee86e542043302" target="_top" xlink:title="Increases/decreases lvl of output.">
<polygon fill="white" stroke="#666666" points="947,-269.75 835,-269.75 835,-249 947,-249 947,-269.75"/>
<text xml:space="preserve" text-anchor="middle" x="891" y="-254.35" font-family="Ubuntu Mono" font-size="12.00">messages::lvl_ud</text>
</a>
</g>
</g>
<!-- Node6&#45;&gt;Node9 -->
<g id="edge20_Node000006_Node000009" class="edge">
<title>Node6&#45;&gt;Node9</title>
<g id="a_edge20_Node000006_Node000009"><a xlink:title=" ">
<path fill="none" stroke="#63b8ff" d="M573.36,-259.38C645.26,-259.38 753.9,-259.38 823.39,-259.38"/>
<polygon fill="#63b8ff" stroke="#63b8ff" points="823.1,-262.88 833.1,-259.38 823.1,-255.88 823.1,-262.88"/>
</a>
</g>
</g>
<!-- Node10 -->
<g id="Node000010" class="node">
<title>Node10</title>
<g id="a_Node000010"><a xlink:href="namespacemessages.html#aa4a8d01563e92558e8a0875b075ec54c" target="_top" xlink:title="Write output to file identified by output_i.">
<polygon fill="white" stroke="#666666" points="1116,-288.75 1010,-288.75 1010,-268 1116,-268 1116,-288.75"/>
<text xml:space="preserve" text-anchor="middle" x="1063" y="-273.35" font-family="Ubuntu Mono" font-size="12.00">messages::writo</text>
</a>
</g>
</g>
<!-- Node6&#45;&gt;Node10 -->
<g id="edge23_Node000006_Node000010" class="edge">
<title>Node6&#45;&gt;Node10</title>
<g id="a_edge23_Node000006_Node000010"><a xlink:title=" ">
<path fill="none" stroke="#63b8ff" d="M555.45,-248.56C644.68,-233.06 825.2,-209.62 974,-240.38 994.59,-244.63 1016.29,-253.94 1032.98,-262.28"/>
<polygon fill="#63b8ff" stroke="#63b8ff" points="1031.34,-265.37 1041.83,-266.86 1034.56,-259.15 1031.34,-265.37"/>
</a>
</g>
</g>
<!-- Node14 -->
<g id="Node000014" class="node">
<title>Node14</title>
<g id="a_Node000014"><a xlink:href="namespacestr__utilities.html#ac778d706b2e021672618939ab58fdd32" target="_top" xlink:title="Convert a real (double) to string.">
<polygon fill="white" stroke="#666666" points="763,-307.75 621,-307.75 621,-287 763,-287 763,-307.75"/>
<text xml:space="preserve" text-anchor="middle" x="692" y="-292.35" font-family="Ubuntu Mono" font-size="12.00">str_utilities::r2strt</text>
</a>
</g>
</g>
<!-- Node6&#45;&gt;Node14 -->
<g id="edge21_Node000006_Node000014" class="edge">
<title>Node6&#45;&gt;Node14</title>
<g id="a_edge21_Node000006_Node000014"><a xlink:title=" ">
<path fill="none" stroke="#63b8ff" d="M554.48,-270.21C576.56,-274.61 602.25,-279.72 625.35,-284.31"/>
<polygon fill="#63b8ff" stroke="#63b8ff" points="624.48,-287.71 634.97,-286.23 625.84,-280.84 624.48,-287.71"/>
</a>
</g>
</g>
<!-- Node7&#45;&gt;Node8 -->
<g id="edge8_Node000007_Node000008" class="edge">
<title>Node7&#45;&gt;Node8</title>
<g id="a_edge8_Node000007_Node000008"><a xlink:title=" ">
<path fill="none" stroke="#63b8ff" d="M757.27,-352.09C855.58,-348.6 1043.06,-341.94 1149.35,-338.17"/>
<polygon fill="#63b8ff" stroke="#63b8ff" points="1149.26,-341.67 1159.12,-337.82 1149.01,-334.68 1149.26,-341.67"/>
</a>
</g>
</g>
<!-- Node7&#45;&gt;Node9 -->
<g id="edge10_Node000007_Node000009" class="edge">
<title>Node7&#45;&gt;Node9</title>
<g id="a_edge10_Node000007_Node000009"><a xlink:title=" ">
<path fill="none" stroke="#63b8ff" d="M754.44,-343.52C760.65,-341.07 766.64,-338.06 772,-334.38 794.87,-318.66 785.43,-299.51 808,-283.38 812.98,-279.82 818.48,-276.78 824.21,-274.2"/>
<polygon fill="#63b8ff" stroke="#63b8ff" points="825.31,-277.53 833.3,-270.57 822.71,-271.03 825.31,-277.53"/>
</a>
</g>
</g>
<!-- Node7&#45;&gt;Node10 -->
<g id="edge18_Node000007_Node000010" class="edge">
<title>Node7&#45;&gt;Node10</title>
<g id="a_edge18_Node000007_Node000010"><a xlink:title=" ">
<path fill="none" stroke="#63b8ff" d="M739.16,-343.5C749.99,-340.73 761.45,-337.61 772,-334.38 788.27,-329.39 791.55,-325.7 808,-321.38 871.94,-304.56 946.73,-292.83 998.52,-285.91"/>
<polygon fill="#63b8ff" stroke="#63b8ff" points="998.9,-289.39 1008.36,-284.63 997.99,-282.45 998.9,-289.39"/>
</a>
</g>
</g>
<!-- Node12 -->
<g id="Node000012" class="node">
<title>Node12</title>
<g id="a_Node000012"><a xlink:href="namespacefiles__utilities.html#ac6066df405564ba2f5e3c4bba726c1f8" target="_top" xlink:title="Search for available new unit.">
<polygon fill="white" stroke="#666666" points="974,-440.75 808,-440.75 808,-420 974,-420 974,-440.75"/>
<text xml:space="preserve" text-anchor="middle" x="891" y="-425.35" font-family="Ubuntu Mono" font-size="12.00">files_utilities::nextunit</text>
</a>
</g>
</g>
<!-- Node7&#45;&gt;Node12 -->
<g id="edge14_Node000007_Node000012" class="edge">
<title>Node7&#45;&gt;Node12</title>
<g id="a_edge14_Node000007_Node000012"><a xlink:title=" ">
<path fill="none" stroke="#63b8ff" d="M711.98,-365.19C734.35,-377.55 772.91,-397.72 808,-410.38 814.18,-412.6 820.71,-414.67 827.28,-416.55"/>
<polygon fill="#63b8ff" stroke="#63b8ff" points="826.29,-419.91 836.86,-419.16 828.13,-413.16 826.29,-419.91"/>
</a>
</g>
</g>
<!-- Node13 -->
<g id="Node000013" class="node">
<title>Node13</title>
<g id="a_Node000013"><a xlink:href="namespacestr__utilities.html#a92ac6c0af1979df094de1caddd28ade0" target="_top" xlink:title="Convert a real (double) to string.">
<polygon fill="white" stroke="#666666" points="959,-383.75 823,-383.75 823,-363 959,-363 959,-383.75"/>
<text xml:space="preserve" text-anchor="middle" x="891" y="-368.35" font-family="Ubuntu Mono" font-size="12.00">str_utilities::r2str</text>
</a>
</g>
</g>
<!-- Node7&#45;&gt;Node13 -->
<g id="edge16_Node000007_Node000013" class="edge">
<title>Node7&#45;&gt;Node13</title>
<g id="a_edge16_Node000007_Node000013"><a xlink:title=" ">
<path fill="none" stroke="#63b8ff" d="M757.23,-360.57C774.54,-362.24 793.46,-364.06 811.45,-365.8"/>
<polygon fill="#63b8ff" stroke="#63b8ff" points="811.01,-369.27 821.3,-366.75 811.68,-362.31 811.01,-369.27"/>
</a>
</g>
</g>
<!-- Node8&#45;&gt;Node8 -->
<g id="edge9_Node000008_Node000008" class="edge">
<title>Node8&#45;&gt;Node8</title>
<g id="a_edge9_Node000008_Node000008"><a xlink:title=" ">
<path fill="none" stroke="#63b8ff" d="M1202.25,-346.15C1191.55,-354.81 1200.47,-363.75 1229,-363.75 1244.6,-363.75 1254.34,-361.08 1258.21,-357.24"/>
<polygon fill="#63b8ff" stroke="#63b8ff" points="1261.66,-356.63 1256.08,-347.62 1254.83,-358.15 1261.66,-356.63"/>
</a>
</g>
</g>
<!-- Node9&#45;&gt;Node10 -->
<g id="edge11_Node000009_Node000010" class="edge">
<title>Node9&#45;&gt;Node10</title>
<g id="a_edge11_Node000009_Node000010"><a xlink:title=" ">
<path fill="none" stroke="#63b8ff" d="M947.19,-265.54C963.5,-267.37 981.48,-269.38 998.28,-271.25"/>
<polygon fill="#63b8ff" stroke="#63b8ff" points="997.85,-274.73 1008.18,-272.36 998.63,-267.77 997.85,-274.73"/>
</a>
</g>
</g>
<!-- Node10&#45;&gt;Node8 -->
<g id="edge13_Node000010_Node000008" class="edge">
<title>Node10&#45;&gt;Node8</title>
<g id="a_edge13_Node000010_Node000008"><a xlink:title=" ">
<path fill="none" stroke="#63b8ff" d="M1095.23,-289.23C1121,-298.18 1157.78,-310.97 1186.1,-320.81"/>
<polygon fill="#63b8ff" stroke="#63b8ff" points="1184.86,-324.09 1195.45,-324.06 1187.16,-317.47 1184.86,-324.09"/>
</a>
</g>
</g>
<!-- Node11 -->
<g id="Node000011" class="node">
<title>Node11</title>
<g id="a_Node000011"><a xlink:href="namespacemessages.html#a82dddaab795b78b3d39e1ff1aab2f665" target="_top" xlink:title="Returns the memory usage in kilobytes.">
<polygon fill="white" stroke="#666666" points="1306,-288.75 1152,-288.75 1152,-268 1306,-268 1306,-288.75"/>
<text xml:space="preserve" text-anchor="middle" x="1229" y="-273.35" font-family="Ubuntu Mono" font-size="12.00">messages::get_mem_usage</text>
</a>
</g>
</g>
<!-- Node10&#45;&gt;Node11 -->
<g id="edge12_Node000010_Node000011" class="edge">
<title>Node10&#45;&gt;Node11</title>
<g id="a_edge12_Node000010_Node000011"><a xlink:title=" ">
<path fill="none" stroke="#63b8ff" d="M1116.34,-278.38C1123.99,-278.38 1132.03,-278.38 1140.15,-278.38"/>
<polygon fill="#63b8ff" stroke="#63b8ff" points="1140.14,-281.88 1150.14,-278.38 1140.14,-274.88 1140.14,-281.88"/>
</a>
</g>
</g>
<!-- Node12&#45;&gt;Node12 -->
<g id="edge15_Node000012_Node000012" class="edge">
<title>Node12&#45;&gt;Node12</title>
<g id="a_edge15_Node000012_Node000012"><a xlink:title=" ">
<path fill="none" stroke="#63b8ff" d="M863.29,-441.15C852.2,-449.81 861.44,-458.75 891,-458.75 907.17,-458.75 917.26,-456.08 921.27,-452.24"/>
<polygon fill="#63b8ff" stroke="#63b8ff" points="924.71,-451.58 919.05,-442.62 917.89,-453.15 924.71,-451.58"/>
</a>
</g>
</g>
<!-- Node13&#45;&gt;Node13 -->
<g id="edge17_Node000013_Node000013" class="edge">
<title>Node13&#45;&gt;Node13</title>
<g id="a_edge17_Node000013_Node000013"><a xlink:title=" ">
<path fill="none" stroke="#63b8ff" d="M863.29,-384.15C852.2,-392.81 861.44,-401.75 891,-401.75 907.17,-401.75 917.26,-399.08 921.27,-395.24"/>
<polygon fill="#63b8ff" stroke="#63b8ff" points="924.71,-394.58 919.05,-385.62 917.89,-396.15 924.71,-394.58"/>
</a>
</g>
</g>
<!-- Node14&#45;&gt;Node14 -->
<g id="edge22_Node000014_Node000014" class="edge">
<title>Node14&#45;&gt;Node14</title>
<g id="a_edge22_Node000014_Node000014"><a xlink:title=" ">
<path fill="none" stroke="#63b8ff" d="M660.9,-308.15C648.46,-316.81 658.83,-325.75 692,-325.75 710.14,-325.75 721.46,-323.08 725.96,-319.24"/>
<polygon fill="#63b8ff" stroke="#63b8ff" points="729.37,-318.42 723.48,-309.61 722.59,-320.17 729.37,-318.42"/>
</a>
</g>
</g>
<!-- Node15&#45;&gt;Node16 -->
<g id="edge25_Node000015_Node000016" class="edge">
<title>Node15&#45;&gt;Node16</title>
<g id="a_edge25_Node000015_Node000016"><a xlink:title=" ">
<path fill="none" stroke="#63b8ff" d="M567.34,-79.68C581.89,-78.23 597.4,-76.69 612.34,-75.2"/>
<polygon fill="#63b8ff" stroke="#63b8ff" points="612.51,-78.7 622.12,-74.23 611.82,-71.73 612.51,-78.7"/>
</a>
</g>
</g>
</g>
</svg>
