<?xml version="1.0" encoding="UTF-8" standalone="no"?>
<!DOCTYPE svg PUBLIC "-//W3C//DTD SVG 1.1//EN"
 "http://www.w3.org/Graphics/SVG/1.1/DTD/svg11.dtd">
<!-- Generated by graphviz version 2.43.0 (0)
 -->
<!-- Title: mpi_vars::dealloc_lock Pages: 1 -->
<svg width="591pt" height="79pt"
 viewBox="0.00 0.00 591.00 79.00" xmlns="http://www.w3.org/2000/svg" xmlns:xlink="http://www.w3.org/1999/xlink">
<g id="graph0" class="graph" transform="scale(1 1) rotate(0) translate(4 75)">
<title>mpi_vars::dealloc_lock</title>
<polygon fill="white" stroke="transparent" points="-4,4 -4,-75 587,-75 587,4 -4,4"/>
<!-- Node1 -->
<g id="node1" class="node">
<title>Node1</title>
<g id="a_node1"><a xlink:title="Deallocates a lock.">
<polygon fill="#bfbfbf" stroke="black" points="432,-20.5 432,-41.5 583,-41.5 583,-20.5 432,-20.5"/>
<text text-anchor="middle" x="507.5" y="-27.9" font-family="Ubuntu Mono" font-size="12.00">mpi_vars::dealloc_lock</text>
</a>
</g>
</g>
<!-- Node2 -->
<g id="node2" class="node">
<title>Node2</title>
<g id="a_node2"><a xlink:href="namespacempi__ops.html#a9dcb5624e665c9e15a4203edb5f44b0f" target="_top" xlink:title="Stop MPI.">
<polygon fill="white" stroke="black" points="268,-20.5 268,-41.5 396,-41.5 396,-20.5 268,-20.5"/>
<text text-anchor="middle" x="332" y="-27.9" font-family="Ubuntu Mono" font-size="12.00">mpi_ops::stop_mpi</text>
</a>
</g>
</g>
<!-- Node1&#45;&gt;Node2 -->
<g id="edge1" class="edge">
<title>Node1&#45;&gt;Node2</title>
<path fill="none" stroke="midnightblue" d="M421.79,-31C413.13,-31 404.45,-31 396.08,-31"/>
<polygon fill="midnightblue" stroke="midnightblue" points="421.91,-34.5 431.91,-31 421.91,-27.5 421.91,-34.5"/>
</g>
<!-- Node3 -->
<g id="node3" class="node">
<title>Node3</title>
<g id="a_node3"><a xlink:href="PB3D_8f90.html#afaee01f014ab3398eecac996b2795fd2" target="_top" xlink:title="Peeling Ballooning in 3D.">
<polygon fill="white" stroke="black" points="0,-49.5 0,-70.5 47,-70.5 47,-49.5 0,-49.5"/>
<text text-anchor="middle" x="23.5" y="-56.9" font-family="Ubuntu Mono" font-size="12.00">pb3d</text>
</a>
</g>
</g>
<!-- Node2&#45;&gt;Node3 -->
<g id="edge2" class="edge">
<title>Node2&#45;&gt;Node3</title>
<path fill="none" stroke="midnightblue" d="M276.2,-43.65C261.89,-46.52 246.43,-49.24 232,-51 165.07,-59.16 85.2,-60.2 47.01,-60.17"/>
<polygon fill="midnightblue" stroke="midnightblue" points="277.31,-47 286.39,-41.55 275.89,-40.15 277.31,-47"/>
</g>
<!-- Node4 -->
<g id="node4" class="node">
<title>Node4</title>
<g id="a_node4"><a xlink:href="POST_8f90.html#ac289b64ac4671fea0b4f2298ba1188a1" target="_top" xlink:title="Peeling Ballooning in 3D: postprocessing.">
<polygon fill="white" stroke="black" points="2.5,-0.5 2.5,-21.5 44.5,-21.5 44.5,-0.5 2.5,-0.5"/>
<text text-anchor="middle" x="23.5" y="-7.9" font-family="Ubuntu Mono" font-size="12.00">post</text>
</a>
</g>
</g>
<!-- Node2&#45;&gt;Node4 -->
<g id="edge3" class="edge">
<title>Node2&#45;&gt;Node4</title>
<path fill="none" stroke="midnightblue" d="M278.34,-18.34C263.45,-15.31 247.17,-12.52 232,-11 163.54,-4.15 81.73,-7.52 44.6,-9.68"/>
<polygon fill="midnightblue" stroke="midnightblue" points="277.89,-21.82 288.4,-20.46 279.34,-14.97 277.89,-21.82"/>
</g>
<!-- Node5 -->
<g id="node5" class="node">
<title>Node5</title>
<g id="a_node5"><a xlink:href="namespacempi__ops.html#a40e8610357a9a5b075fef9dab1c3f24f" target="_top" xlink:title="Suddenly stops the computations, aborting MPI, etc.">
<polygon fill="white" stroke="black" points="83,-20.5 83,-41.5 232,-41.5 232,-20.5 83,-20.5"/>
<text text-anchor="middle" x="157.5" y="-27.9" font-family="Ubuntu Mono" font-size="12.00">mpi_ops::sudden_stop</text>
</a>
</g>
</g>
<!-- Node2&#45;&gt;Node5 -->
<g id="edge4" class="edge">
<title>Node2&#45;&gt;Node5</title>
<path fill="none" stroke="midnightblue" d="M257.61,-31C249.22,-31 240.66,-31 232.27,-31"/>
<polygon fill="midnightblue" stroke="midnightblue" points="257.75,-34.5 267.75,-31 257.75,-27.5 257.75,-34.5"/>
</g>
<!-- Node5&#45;&gt;Node3 -->
<g id="edge5" class="edge">
<title>Node5&#45;&gt;Node3</title>
<path fill="none" stroke="midnightblue" d="M98.5,-43.74C80.34,-47.73 61.36,-51.9 47.17,-55.02"/>
<polygon fill="midnightblue" stroke="midnightblue" points="99.46,-47.12 108.47,-41.55 97.95,-40.28 99.46,-47.12"/>
</g>
<!-- Node5&#45;&gt;Node4 -->
<g id="edge6" class="edge">
<title>Node5&#45;&gt;Node4</title>
<path fill="none" stroke="midnightblue" d="M76.9,-18.94C64.99,-17.13 53.69,-15.42 44.66,-14.05"/>
<polygon fill="midnightblue" stroke="midnightblue" points="76.61,-22.44 87.02,-20.47 77.66,-15.51 76.61,-22.44"/>
</g>
</g>
</svg>
