<?xml version="1.0" encoding="UTF-8" standalone="no"?>
<!DOCTYPE svg PUBLIC "-//W3C//DTD SVG 1.1//EN"
 "http://www.w3.org/Graphics/SVG/1.1/DTD/svg11.dtd">
<!-- Generated by graphviz version 2.38.0 (20140413.2041)
 -->
<!-- Title: vac_vars::init_vac Pages: 1 -->
<svg width="509pt" height="150pt"
 viewBox="0.00 0.00 509.00 150.00" xmlns="http://www.w3.org/2000/svg" xmlns:xlink="http://www.w3.org/1999/xlink">
<g id="graph0" class="graph" transform="scale(1 1) rotate(0) translate(4 146)">
<title>vac_vars::init_vac</title>
<polygon fill="white" stroke="none" points="-4,4 -4,-146 505,-146 505,4 -4,4"/>
<!-- Node29 -->
<g id="node1" class="node"><title>Node29</title>
<polygon fill="#bfbfbf" stroke="black" points="0,-60.5 0,-81.5 125,-81.5 125,-60.5 0,-60.5"/>
<text text-anchor="middle" x="62.5" y="-67.9" font-family="Ubuntu Mono" font-size="12.00">vac_vars::init_vac</text>
</g>
<!-- Node30 -->
<g id="node2" class="node"><title>Node30</title>
<g id="a_node2"><a xlink:href="namespacestr__utilities.html#a0b97e51770725a3e98ed393d26681414" target="_top" xlink:title="Convert an integer to string. ">
<polygon fill="white" stroke="black" points="167,-120.5 167,-141.5 304,-141.5 304,-120.5 167,-120.5"/>
<text text-anchor="middle" x="235.5" y="-127.9" font-family="Ubuntu Mono" font-size="12.00">str_utilities::i2str</text>
</a>
</g>
</g>
<!-- Node29&#45;&gt;Node30 -->
<g id="edge1" class="edge"><title>Node29&#45;&gt;Node30</title>
<path fill="none" stroke="midnightblue" d="M86.8324,-81.5264C106.393,-90.119 135.188,-102.231 161,-111 167.887,-113.34 175.207,-115.597 182.457,-117.7"/>
<polygon fill="midnightblue" stroke="midnightblue" points="181.676,-121.116 192.251,-120.464 183.578,-114.379 181.676,-121.116"/>
</g>
<!-- Node31 -->
<g id="node3" class="node"><title>Node31</title>
<g id="a_node3"><a xlink:href="namespacevac__vars.html#a5bfa31e3a61464281d70a4e1a8246510" target="_top" xlink:title="Calculates the limits in local index. ">
<polygon fill="white" stroke="black" points="161,-80.5 161,-101.5 310,-101.5 310,-80.5 161,-80.5"/>
<text text-anchor="middle" x="235.5" y="-87.9" font-family="Ubuntu Mono" font-size="12.00">vac_vars::set_loc_lims</text>
</a>
</g>
</g>
<!-- Node29&#45;&gt;Node31 -->
<g id="edge2" class="edge"><title>Node29&#45;&gt;Node31</title>
<path fill="none" stroke="midnightblue" d="M125.235,-78.2205C133.555,-79.1936 142.201,-80.2048 150.822,-81.2131"/>
<polygon fill="midnightblue" stroke="midnightblue" points="150.572,-84.7076 160.911,-82.3931 151.385,-77.755 150.572,-84.7076"/>
</g>
<!-- Node32 -->
<g id="node4" class="node"><title>Node32</title>
<g id="a_node4"><a xlink:href="namespacemessages.html#aa4a8d01563e92558e8a0875b075ec54c" target="_top" xlink:title="Write output to file identified by output_i. ">
<polygon fill="white" stroke="black" points="182,-40.5 182,-61.5 289,-61.5 289,-40.5 182,-40.5"/>
<text text-anchor="middle" x="235.5" y="-47.9" font-family="Ubuntu Mono" font-size="12.00">messages::writo</text>
</a>
</g>
</g>
<!-- Node29&#45;&gt;Node32 -->
<g id="edge3" class="edge"><title>Node29&#45;&gt;Node32</title>
<path fill="none" stroke="midnightblue" d="M125.235,-63.7795C140.314,-62.0159 156.465,-60.1269 171.598,-58.357"/>
<polygon fill="midnightblue" stroke="midnightblue" points="172.361,-61.7917 181.887,-57.1536 171.548,-54.8391 172.361,-61.7917"/>
</g>
<!-- Node35 -->
<g id="node7" class="node"><title>Node35</title>
<g id="a_node7"><a xlink:href="namespacestr__utilities.html#ac778d706b2e021672618939ab58fdd32" target="_top" xlink:title="Convert a real (double) to string. ">
<polygon fill="white" stroke="black" points="164,-0.5 164,-21.5 307,-21.5 307,-0.5 164,-0.5"/>
<text text-anchor="middle" x="235.5" y="-7.9" font-family="Ubuntu Mono" font-size="12.00">str_utilities::r2strt</text>
</a>
</g>
</g>
<!-- Node29&#45;&gt;Node35 -->
<g id="edge6" class="edge"><title>Node29&#45;&gt;Node35</title>
<path fill="none" stroke="midnightblue" d="M86.8324,-60.4736C106.393,-51.881 135.188,-39.7693 161,-31 167.887,-28.6603 175.207,-26.4028 182.457,-24.3002"/>
<polygon fill="midnightblue" stroke="midnightblue" points="183.578,-27.6205 192.251,-21.5358 181.676,-20.8837 183.578,-27.6205"/>
</g>
<!-- Node33 -->
<g id="node5" class="node"><title>Node33</title>
<g id="a_node5"><a xlink:href="namespacemessages.html#a82dddaab795b78b3d39e1ff1aab2f665" target="_top" xlink:title="Returns the memory usage in kilobytes. ">
<polygon fill="white" stroke="black" points="346,-60.5 346,-81.5 501,-81.5 501,-60.5 346,-60.5"/>
<text text-anchor="middle" x="423.5" y="-67.9" font-family="Ubuntu Mono" font-size="12.00">messages::get_mem_usage</text>
</a>
</g>
</g>
<!-- Node32&#45;&gt;Node33 -->
<g id="edge4" class="edge"><title>Node32&#45;&gt;Node33</title>
<path fill="none" stroke="midnightblue" d="M289.303,-56.6777C303.752,-58.2313 319.803,-59.9574 335.618,-61.6579"/>
<polygon fill="midnightblue" stroke="midnightblue" points="335.641,-65.1804 345.958,-62.7696 336.389,-58.2205 335.641,-65.1804"/>
</g>
<!-- Node34 -->
<g id="node6" class="node"><title>Node34</title>
<g id="a_node6"><a xlink:href="namespacemessages.html#a61fd0b51b5e37d58fdc993c01792a3fd" target="_top" xlink:title="Returns the time. ">
<polygon fill="white" stroke="black" points="358,-20.5 358,-41.5 489,-41.5 489,-20.5 358,-20.5"/>
<text text-anchor="middle" x="423.5" y="-27.9" font-family="Ubuntu Mono" font-size="12.00">messages::get_clock</text>
</a>
</g>
</g>
<!-- Node32&#45;&gt;Node34 -->
<g id="edge5" class="edge"><title>Node32&#45;&gt;Node34</title>
<path fill="none" stroke="midnightblue" d="M289.303,-45.3223C307.503,-43.3653 328.247,-41.1347 347.857,-39.0262"/>
<polygon fill="midnightblue" stroke="midnightblue" points="348.42,-42.4858 357.989,-37.9367 347.672,-35.526 348.42,-42.4858"/>
</g>
</g>
</svg>
