<?xml version="1.0" encoding="UTF-8" standalone="no"?>
<!DOCTYPE svg PUBLIC "-//W3C//DTD SVG 1.1//EN"
 "http://www.w3.org/Graphics/SVG/1.1/DTD/svg11.dtd">
<!-- Generated by graphviz version 2.38.0 (20140413.2041)
 -->
<!-- Title: hdf5_utilities::list_all_vars_in_group Pages: 1 -->
<svg width="1219pt" height="469pt"
 viewBox="0.00 0.00 1219.00 469.27" xmlns="http://www.w3.org/2000/svg" xmlns:xlink="http://www.w3.org/1999/xlink">
<g id="graph0" class="graph" transform="scale(1 1) rotate(0) translate(4 465.266)">
<title>hdf5_utilities::list_all_vars_in_group</title>
<polygon fill="white" stroke="none" points="-4,4 -4,-465.266 1215,-465.266 1215,4 -4,4"/>
<!-- Node6 -->
<g id="node1" class="node"><title>Node6</title>
<polygon fill="#bfbfbf" stroke="black" points="0,-237 0,-271 137,-271 137,-237 0,-237"/>
<text text-anchor="start" x="8" y="-257.4" font-family="Ubuntu Mono" font-size="12.00">hdf5_utilities::list</text>
<text text-anchor="middle" x="68.5" y="-244.4" font-family="Ubuntu Mono" font-size="12.00">_all_vars_in_group</text>
</g>
<!-- Node7 -->
<g id="node2" class="node"><title>Node7</title>
<g id="a_node2"><a xlink:href="namespacehdf5__ops.html#a5108e0d6f6b492cb981505ebceedd9ee" target="_top" xlink:title="hdf5_ops::read_hdf5_arr">
<polygon fill="white" stroke="black" points="173,-243.5 173,-264.5 328,-264.5 328,-243.5 173,-243.5"/>
<text text-anchor="middle" x="250.5" y="-250.9" font-family="Ubuntu Mono" font-size="12.00">hdf5_ops::read_hdf5_arr</text>
</a>
</g>
</g>
<!-- Node6&#45;&gt;Node7 -->
<g id="edge1" class="edge"><title>Node6&#45;&gt;Node7</title>
<path fill="none" stroke="midnightblue" d="M147.273,-254C155.742,-254 164.357,-254 172.812,-254"/>
<polygon fill="midnightblue" stroke="midnightblue" points="147.038,-250.5 137.037,-254 147.037,-257.5 147.038,-250.5"/>
</g>
<!-- Node8 -->
<g id="node3" class="node"><title>Node8</title>
<g id="a_node3"><a xlink:href="namespacepb3d__ops.html#a057fc02a2d90e9ac8a7e5764d83fd1df" target="_top" xlink:title="pb3d_ops::reconstruct\l_pb3d_in">
<polygon fill="white" stroke="black" points="552,-416 552,-450 695,-450 695,-416 552,-416"/>
<text text-anchor="start" x="560" y="-436.4" font-family="Ubuntu Mono" font-size="12.00">pb3d_ops::reconstruct</text>
<text text-anchor="middle" x="623.5" y="-423.4" font-family="Ubuntu Mono" font-size="12.00">_pb3d_in</text>
</a>
</g>
</g>
<!-- Node7&#45;&gt;Node8 -->
<g id="edge2" class="edge"><title>Node7&#45;&gt;Node8</title>
<path fill="none" stroke="midnightblue" d="M262.666,-273.587C280.252,-302.505 317.261,-356.094 364,-383 421.64,-416.182 497.263,-427.797 551.808,-431.642"/>
<polygon fill="midnightblue" stroke="midnightblue" points="265.569,-271.62 257.461,-264.8 259.546,-275.188 265.569,-271.62"/>
</g>
<!-- Node16 -->
<g id="node11" class="node"><title>Node16</title>
<g id="a_node11"><a xlink:href="namespacepb3d__ops.html#a279af758fa95e678f6485c50e5bc4ffb" target="_top" xlink:title="pb3d_ops::reconstruct\l_pb3d_grid">
<polygon fill="white" stroke="black" points="552,-165 552,-199 695,-199 695,-165 552,-165"/>
<text text-anchor="start" x="560" y="-185.4" font-family="Ubuntu Mono" font-size="12.00">pb3d_ops::reconstruct</text>
<text text-anchor="middle" x="623.5" y="-172.4" font-family="Ubuntu Mono" font-size="12.00">_pb3d_grid</text>
</a>
</g>
</g>
<!-- Node7&#45;&gt;Node16 -->
<g id="edge14" class="edge"><title>Node7&#45;&gt;Node16</title>
<path fill="none" stroke="midnightblue" d="M315.688,-241.543C381.533,-228.765 483.697,-208.937 551.817,-195.718"/>
<polygon fill="midnightblue" stroke="midnightblue" points="314.994,-238.112 305.844,-243.453 316.328,-244.984 314.994,-238.112"/>
</g>
<!-- Node22 -->
<g id="node17" class="node"><title>Node22</title>
<g id="a_node17"><a xlink:href="namespacepb3d__ops.html#a248d51dc98b7de287499ba3a4e6c1eaa" target="_top" xlink:title="pb3d_ops::reconstruct\l_pb3d_eq_1">
<polygon fill="white" stroke="black" points="552,-324 552,-358 695,-358 695,-324 552,-324"/>
<text text-anchor="start" x="560" y="-344.4" font-family="Ubuntu Mono" font-size="12.00">pb3d_ops::reconstruct</text>
<text text-anchor="middle" x="623.5" y="-331.4" font-family="Ubuntu Mono" font-size="12.00">_pb3d_eq_1</text>
</a>
</g>
</g>
<!-- Node7&#45;&gt;Node22 -->
<g id="edge28" class="edge"><title>Node7&#45;&gt;Node22</title>
<path fill="none" stroke="midnightblue" d="M297.48,-267.291C317.801,-273.004 342.021,-279.596 364,-285 427.208,-300.542 499.673,-316.042 551.764,-326.781"/>
<polygon fill="midnightblue" stroke="midnightblue" points="298.42,-263.92 287.845,-264.566 296.515,-270.656 298.42,-263.92"/>
</g>
<!-- Node23 -->
<g id="node18" class="node"><title>Node23</title>
<g id="a_node18"><a xlink:href="namespacepb3d__ops.html#a13280910f320a6835cd19e62fe238240" target="_top" xlink:title="pb3d_ops::reconstruct\l_pb3d_eq_2">
<polygon fill="white" stroke="black" points="552,-218 552,-252 695,-252 695,-218 552,-218"/>
<text text-anchor="start" x="560" y="-238.4" font-family="Ubuntu Mono" font-size="12.00">pb3d_ops::reconstruct</text>
<text text-anchor="middle" x="623.5" y="-225.4" font-family="Ubuntu Mono" font-size="12.00">_pb3d_eq_2</text>
</a>
</g>
</g>
<!-- Node7&#45;&gt;Node23 -->
<g id="edge33" class="edge"><title>Node7&#45;&gt;Node23</title>
<path fill="none" stroke="midnightblue" d="M338.588,-249.54C403.505,-246.215 491.054,-241.732 551.692,-238.626"/>
<polygon fill="midnightblue" stroke="midnightblue" points="338.179,-246.056 328.371,-250.063 338.537,-253.047 338.179,-246.056"/>
</g>
<!-- Node24 -->
<g id="node19" class="node"><title>Node24</title>
<g id="a_node19"><a xlink:href="namespacepb3d__ops.html#ababe805fcaaca1486c74ad7a8aecfb7e" target="_top" xlink:title="pb3d_ops::reconstruct\l_pb3d_x_1">
<polygon fill="white" stroke="black" points="552,-112 552,-146 695,-146 695,-112 552,-112"/>
<text text-anchor="start" x="560" y="-132.4" font-family="Ubuntu Mono" font-size="12.00">pb3d_ops::reconstruct</text>
<text text-anchor="middle" x="623.5" y="-119.4" font-family="Ubuntu Mono" font-size="12.00">_pb3d_x_1</text>
</a>
</g>
</g>
<!-- Node7&#45;&gt;Node24 -->
<g id="edge38" class="edge"><title>Node7&#45;&gt;Node24</title>
<path fill="none" stroke="midnightblue" d="M280.804,-238.902C303.197,-227.749 335.039,-212.706 364,-202 426.33,-178.958 499.365,-158.949 551.875,-145.736"/>
<polygon fill="midnightblue" stroke="midnightblue" points="279.182,-235.8 271.821,-243.42 282.328,-242.054 279.182,-235.8"/>
</g>
<!-- Node25 -->
<g id="node20" class="node"><title>Node25</title>
<g id="a_node20"><a xlink:href="namespacepb3d__ops.html#a50f211992fbe20a56749b2be81a521e6" target="_top" xlink:title="pb3d_ops::reconstruct\l_pb3d_x_2">
<polygon fill="white" stroke="black" points="364,-33 364,-67 507,-67 507,-33 364,-33"/>
<text text-anchor="start" x="372" y="-53.4" font-family="Ubuntu Mono" font-size="12.00">pb3d_ops::reconstruct</text>
<text text-anchor="middle" x="435.5" y="-40.4" font-family="Ubuntu Mono" font-size="12.00">_pb3d_x_2</text>
</a>
</g>
</g>
<!-- Node7&#45;&gt;Node25 -->
<g id="edge43" class="edge"><title>Node7&#45;&gt;Node25</title>
<path fill="none" stroke="midnightblue" d="M267.334,-235.675C288.973,-210.703 329.085,-164.667 364,-126 382.454,-105.563 404.032,-82.408 418.408,-67.0837"/>
<polygon fill="midnightblue" stroke="midnightblue" points="264.637,-233.443 260.738,-243.295 269.929,-238.024 264.637,-233.443"/>
</g>
<!-- Node27 -->
<g id="node22" class="node"><title>Node27</title>
<g id="a_node22"><a xlink:href="namespacepb3d__ops.html#a418960ddc3c8c0ec6ac0af970feedbe2" target="_top" xlink:title="pb3d_ops::reconstruct\l_pb3d_sol">
<polygon fill="white" stroke="black" points="552,-271 552,-305 695,-305 695,-271 552,-271"/>
<text text-anchor="start" x="560" y="-291.4" font-family="Ubuntu Mono" font-size="12.00">pb3d_ops::reconstruct</text>
<text text-anchor="middle" x="623.5" y="-278.4" font-family="Ubuntu Mono" font-size="12.00">_pb3d_sol</text>
</a>
</g>
</g>
<!-- Node7&#45;&gt;Node27 -->
<g id="edge47" class="edge"><title>Node7&#45;&gt;Node27</title>
<path fill="none" stroke="midnightblue" d="M338.588,-261.981C403.505,-267.93 491.054,-275.954 551.692,-281.511"/>
<polygon fill="midnightblue" stroke="midnightblue" points="338.649,-258.472 328.371,-261.045 338.01,-265.443 338.649,-258.472"/>
</g>
<!-- Node28 -->
<g id="node23" class="node"><title>Node28</title>
<g id="a_node23"><a xlink:href="namespacepb3d__ops.html#a0bd4c4c24d7cbd1494b31ea993946433" target="_top" xlink:title="pb3d_ops::get_pb3d\l_grid_size">
<polygon fill="white" stroke="black" points="373,-340 373,-374 498,-374 498,-340 373,-340"/>
<text text-anchor="start" x="381" y="-360.4" font-family="Ubuntu Mono" font-size="12.00">pb3d_ops::get_pb3d</text>
<text text-anchor="middle" x="435.5" y="-347.4" font-family="Ubuntu Mono" font-size="12.00">_grid_size</text>
</a>
</g>
</g>
<!-- Node7&#45;&gt;Node28 -->
<g id="edge52" class="edge"><title>Node7&#45;&gt;Node28</title>
<path fill="none" stroke="midnightblue" d="M275.257,-270.335C297.643,-285.401 332.376,-307.947 364,-325 373.701,-330.231 384.421,-335.394 394.511,-339.996"/>
<polygon fill="midnightblue" stroke="midnightblue" points="276.99,-267.281 266.748,-264.568 273.062,-273.076 276.99,-267.281"/>
</g>
<!-- Node9 -->
<g id="node4" class="node"><title>Node9</title>
<g id="a_node4"><a xlink:href="namespacedriver__post.html#af527706d4e696d4e507443d2f74194ef" target="_top" xlink:title="driver_post::init_post">
<polygon fill="white" stroke="black" points="752,-342.5 752,-363.5 901,-363.5 901,-342.5 752,-342.5"/>
<text text-anchor="middle" x="826.5" y="-349.9" font-family="Ubuntu Mono" font-size="12.00">driver_post::init_post</text>
</a>
</g>
</g>
<!-- Node8&#45;&gt;Node9 -->
<g id="edge3" class="edge"><title>Node8&#45;&gt;Node9</title>
<path fill="none" stroke="midnightblue" d="M682.405,-411.911C689.826,-408.569 697.198,-404.911 704,-401 721.572,-390.896 721.708,-381.733 740,-373 747.979,-369.191 756.731,-366.081 765.497,-363.549"/>
<polygon fill="midnightblue" stroke="midnightblue" points="680.808,-408.789 673.021,-415.972 683.588,-415.213 680.808,-408.789"/>
</g>
<!-- Node10 -->
<g id="node5" class="node"><title>Node10</title>
<g id="a_node5"><a xlink:href="POST_8f90.html#ac289b64ac4671fea0b4f2298ba1188a1" target="_top" xlink:title="post">
<polygon fill="white" stroke="black" points="1170,-322.5 1170,-343.5 1211,-343.5 1211,-322.5 1170,-322.5"/>
<text text-anchor="middle" x="1190.5" y="-329.9" font-family="Ubuntu Mono" font-size="12.00">post</text>
</a>
</g>
</g>
<!-- Node8&#45;&gt;Node10 -->
<g id="edge13" class="edge"><title>Node8&#45;&gt;Node10</title>
<path fill="none" stroke="midnightblue" d="M705.072,-450.225C763.376,-459.879 843.76,-467.377 913,-453 1017.01,-431.403 1129.93,-368.602 1172.23,-343.524"/>
<polygon fill="midnightblue" stroke="midnightblue" points="705.629,-446.77 695.182,-448.532 704.448,-453.669 705.629,-446.77"/>
</g>
<!-- Node11 -->
<g id="node6" class="node"><title>Node11</title>
<g id="a_node6"><a xlink:href="namespacerich__ops.html#a9fbbda93eab8973d33063e277c489e7b" target="_top" xlink:title="rich_ops::init_rich">
<polygon fill="white" stroke="black" points="761,-382.5 761,-403.5 892,-403.5 892,-382.5 761,-382.5"/>
<text text-anchor="middle" x="826.5" y="-389.9" font-family="Ubuntu Mono" font-size="12.00">rich_ops::init_rich</text>
</a>
</g>
</g>
<!-- Node8&#45;&gt;Node11 -->
<g id="edge5" class="edge"><title>Node8&#45;&gt;Node11</title>
<path fill="none" stroke="midnightblue" d="M705.05,-416.97C727.746,-412.454 751.856,-407.655 772.496,-403.548"/>
<polygon fill="midnightblue" stroke="midnightblue" points="704.207,-413.569 695.082,-418.954 705.573,-420.435 704.207,-413.569"/>
</g>
<!-- Node13 -->
<g id="node8" class="node"><title>Node13</title>
<g id="a_node8"><a xlink:href="namespacetest.html#a4a25e64af6b986091f9e49ba447fc5c4" target="_top" xlink:title="test::test_calc_rzl">
<polygon fill="white" stroke="black" points="761,-422.5 761,-443.5 892,-443.5 892,-422.5 761,-422.5"/>
<text text-anchor="middle" x="826.5" y="-429.9" font-family="Ubuntu Mono" font-size="12.00">test::test_calc_rzl</text>
</a>
</g>
</g>
<!-- Node8&#45;&gt;Node13 -->
<g id="edge7" class="edge"><title>Node8&#45;&gt;Node13</title>
<path fill="none" stroke="midnightblue" d="M705.233,-433C723.705,-433 743.105,-433 760.802,-433"/>
<polygon fill="midnightblue" stroke="midnightblue" points="705.082,-429.5 695.082,-433 705.082,-436.5 705.082,-429.5"/>
</g>
<!-- Node15 -->
<g id="node10" class="node"><title>Node15</title>
<g id="a_node10"><a xlink:href="namespacetest.html#ac574f08ba400cd61070a6a6f13f6f7ee" target="_top" xlink:title="test::test_read_hdf5\l_subset">
<polygon fill="white" stroke="black" points="758,-289 758,-323 895,-323 895,-289 758,-289"/>
<text text-anchor="start" x="766" y="-309.4" font-family="Ubuntu Mono" font-size="12.00">test::test_read_hdf5</text>
<text text-anchor="middle" x="826.5" y="-296.4" font-family="Ubuntu Mono" font-size="12.00">_subset</text>
</a>
</g>
</g>
<!-- Node8&#45;&gt;Node15 -->
<g id="edge11" class="edge"><title>Node8&#45;&gt;Node15</title>
<path fill="none" stroke="midnightblue" d="M653.764,-409.455C668.948,-397.052 687.684,-381.451 704,-367 720.475,-352.408 721.027,-344.151 740,-333 746.442,-329.214 753.473,-325.899 760.648,-323.01"/>
<polygon fill="midnightblue" stroke="midnightblue" points="651.28,-406.964 645.732,-415.99 655.698,-412.394 651.28,-406.964"/>
</g>
<!-- Node9&#45;&gt;Node10 -->
<g id="edge4" class="edge"><title>Node9&#45;&gt;Node10</title>
<path fill="none" stroke="midnightblue" d="M911.342,-348.368C996.282,-343.675 1121.79,-336.741 1169.82,-334.087"/>
<polygon fill="midnightblue" stroke="midnightblue" points="910.984,-344.882 901.192,-348.929 911.37,-351.872 910.984,-344.882"/>
</g>
<!-- Node12 -->
<g id="node7" class="node"><title>Node12</title>
<g id="a_node7"><a xlink:href="PB3D_8f90.html#afaee01f014ab3398eecac996b2795fd2" target="_top" xlink:title="pb3d">
<polygon fill="white" stroke="black" points="1170,-226.5 1170,-247.5 1211,-247.5 1211,-226.5 1170,-226.5"/>
<text text-anchor="middle" x="1190.5" y="-233.9" font-family="Ubuntu Mono" font-size="12.00">pb3d</text>
</a>
</g>
</g>
<!-- Node11&#45;&gt;Node12 -->
<g id="edge6" class="edge"><title>Node11&#45;&gt;Node12</title>
<path fill="none" stroke="midnightblue" d="M901.457,-380.55C905.564,-378.403 909.455,-375.905 913,-373 942.844,-348.544 918.577,-317.733 949,-294 1014.92,-242.58 1053.83,-283.69 1134,-260 1146.2,-256.394 1159.38,-251.002 1169.83,-246.344"/>
<polygon fill="midnightblue" stroke="midnightblue" points="899.864,-377.429 892.17,-384.712 902.726,-383.817 899.864,-377.429"/>
</g>
<!-- Node14 -->
<g id="node9" class="node"><title>Node14</title>
<g id="a_node9"><a xlink:href="namespacetest.html#aca21ee464c0b1f4b617177afdde110ec" target="_top" xlink:title="test::generic_tests">
<polygon fill="white" stroke="black" points="976,-303.5 976,-324.5 1107,-324.5 1107,-303.5 976,-303.5"/>
<text text-anchor="middle" x="1041.5" y="-310.9" font-family="Ubuntu Mono" font-size="12.00">test::generic_tests</text>
</a>
</g>
</g>
<!-- Node13&#45;&gt;Node14 -->
<g id="edge8" class="edge"><title>Node13&#45;&gt;Node14</title>
<path fill="none" stroke="midnightblue" d="M897.316,-419.348C902.722,-417.485 908.012,-415.379 913,-413 961.82,-389.717 1009.5,-345.271 1030.01,-324.806"/>
<polygon fill="midnightblue" stroke="midnightblue" points="895.984,-416.098 887.5,-422.445 898.09,-422.774 895.984,-416.098"/>
</g>
<!-- Node14&#45;&gt;Node10 -->
<g id="edge10" class="edge"><title>Node14&#45;&gt;Node10</title>
<path fill="none" stroke="midnightblue" d="M1117.52,-323.696C1136.89,-326.2 1156.12,-328.685 1169.82,-330.457"/>
<polygon fill="midnightblue" stroke="midnightblue" points="1117.77,-320.2 1107.4,-322.389 1116.87,-327.142 1117.77,-320.2"/>
</g>
<!-- Node14&#45;&gt;Node12 -->
<g id="edge9" class="edge"><title>Node14&#45;&gt;Node12</title>
<path fill="none" stroke="midnightblue" d="M1108.13,-300.275C1117.1,-297.203 1125.98,-293.485 1134,-289 1153.13,-278.304 1170.79,-259.615 1180.84,-247.796"/>
<polygon fill="midnightblue" stroke="midnightblue" points="1106.87,-297.003 1098.39,-303.36 1108.98,-303.676 1106.87,-297.003"/>
</g>
<!-- Node15&#45;&gt;Node14 -->
<g id="edge12" class="edge"><title>Node15&#45;&gt;Node14</title>
<path fill="none" stroke="midnightblue" d="M905.334,-308.923C928.516,-309.794 953.655,-310.738 975.895,-311.574"/>
<polygon fill="midnightblue" stroke="midnightblue" points="905.312,-305.42 895.187,-308.542 905.049,-312.415 905.312,-305.42"/>
</g>
<!-- Node16&#45;&gt;Node9 -->
<g id="edge17" class="edge"><title>Node16&#45;&gt;Node9</title>
<path fill="none" stroke="midnightblue" d="M701.175,-205.282C702.149,-206.155 703.091,-207.061 704,-208 743.893,-249.253 698.584,-292.276 740,-332 744.412,-336.232 749.533,-339.654 755.034,-342.417"/>
<polygon fill="midnightblue" stroke="midnightblue" points="703.248,-202.462 693.164,-199.21 699.02,-208.04 703.248,-202.462"/>
</g>
<!-- Node16&#45;&gt;Node11 -->
<g id="edge26" class="edge"><title>Node16&#45;&gt;Node11</title>
<path fill="none" stroke="midnightblue" d="M701.657,-205.574C702.464,-206.357 703.246,-207.165 704,-208 754.32,-263.692 687.324,-319.53 740,-373 745.777,-378.864 752.921,-383.145 760.599,-386.248"/>
<polygon fill="midnightblue" stroke="midnightblue" points="703.766,-202.778 693.791,-199.208 699.363,-208.22 703.766,-202.778"/>
</g>
<!-- Node16&#45;&gt;Node15 -->
<g id="edge27" class="edge"><title>Node16&#45;&gt;Node15</title>
<path fill="none" stroke="midnightblue" d="M699.754,-204.645C701.218,-205.713 702.636,-206.83 704,-208 730.858,-231.03 713.024,-256.107 740,-279 745.341,-283.532 751.446,-287.306 757.882,-290.447"/>
<polygon fill="midnightblue" stroke="midnightblue" points="701.255,-201.453 690.933,-199.063 697.511,-207.368 701.255,-201.453"/>
</g>
<!-- Node17 -->
<g id="node12" class="node"><title>Node17</title>
<g id="a_node12"><a xlink:href="namespacedriver__eq.html#ac8eca434f541966edc3556d72f261eff" target="_top" xlink:title="driver_eq::run_driver_eq">
<polygon fill="white" stroke="black" points="746,-248.5 746,-269.5 907,-269.5 907,-248.5 746,-248.5"/>
<text text-anchor="middle" x="826.5" y="-255.9" font-family="Ubuntu Mono" font-size="12.00">driver_eq::run_driver_eq</text>
</a>
</g>
</g>
<!-- Node16&#45;&gt;Node17 -->
<g id="edge15" class="edge"><title>Node16&#45;&gt;Node17</title>
<path fill="none" stroke="midnightblue" d="M688.23,-202.334C693.584,-204.196 698.897,-206.098 704,-208 738.512,-220.863 777.671,-237.718 801.981,-248.457"/>
<polygon fill="midnightblue" stroke="midnightblue" points="689.183,-198.96 678.589,-199.034 686.917,-205.583 689.183,-198.96"/>
</g>
<!-- Node18 -->
<g id="node13" class="node"><title>Node18</title>
<g id="a_node13"><a xlink:href="namespacedriver__post.html#a33b3c6f9018a0ddc92dce77394b8ab37" target="_top" xlink:title="driver_post::run_driver_post">
<polygon fill="white" stroke="black" points="949,-171.5 949,-192.5 1134,-192.5 1134,-171.5 949,-171.5"/>
<text text-anchor="middle" x="1041.5" y="-178.9" font-family="Ubuntu Mono" font-size="12.00">driver_post::run_driver_post</text>
</a>
</g>
</g>
<!-- Node16&#45;&gt;Node18 -->
<g id="edge18" class="edge"><title>Node16&#45;&gt;Node18</title>
<path fill="none" stroke="midnightblue" d="M705.137,-182C774.957,-182 875.905,-182 948.787,-182"/>
<polygon fill="midnightblue" stroke="midnightblue" points="705.069,-178.5 695.069,-182 705.069,-185.5 705.069,-178.5"/>
</g>
<!-- Node19 -->
<g id="node14" class="node"><title>Node19</title>
<g id="a_node14"><a xlink:href="namespacedriver__post.html#aba7a645f4dd2e08db109cefc6ce0df86" target="_top" xlink:title="driver_post::setup\l_out_grids">
<polygon fill="white" stroke="black" points="764,-119 764,-153 889,-153 889,-119 764,-119"/>
<text text-anchor="start" x="772" y="-139.4" font-family="Ubuntu Mono" font-size="12.00">driver_post::setup</text>
<text text-anchor="middle" x="826.5" y="-126.4" font-family="Ubuntu Mono" font-size="12.00">_out_grids</text>
</a>
</g>
</g>
<!-- Node16&#45;&gt;Node19 -->
<g id="edge20" class="edge"><title>Node16&#45;&gt;Node19</title>
<path fill="none" stroke="midnightblue" d="M704.915,-163.597C724.525,-159.109 745.198,-154.378 763.781,-150.125"/>
<polygon fill="midnightblue" stroke="midnightblue" points="704.05,-160.204 695.082,-165.847 705.611,-167.028 704.05,-160.204"/>
</g>
<!-- Node20 -->
<g id="node15" class="node"><title>Node20</title>
<g id="a_node15"><a xlink:href="namespacedriver__sol.html#a208ddea649ee160b7a55da8d0a5d4847" target="_top" xlink:title="driver_sol::run_driver_sol">
<polygon fill="white" stroke="black" points="740,-78.5 740,-99.5 913,-99.5 913,-78.5 740,-78.5"/>
<text text-anchor="middle" x="826.5" y="-85.9" font-family="Ubuntu Mono" font-size="12.00">driver_sol::run_driver_sol</text>
</a>
</g>
</g>
<!-- Node16&#45;&gt;Node20 -->
<g id="edge22" class="edge"><title>Node16&#45;&gt;Node20</title>
<path fill="none" stroke="midnightblue" d="M695.59,-160.326C698.506,-158.671 701.325,-156.898 704,-155 725.173,-139.978 718.119,-122.972 740,-109 746.039,-105.144 752.742,-102.03 759.663,-99.5149"/>
<polygon fill="midnightblue" stroke="midnightblue" points="693.889,-157.264 686.592,-164.945 697.086,-163.492 693.889,-157.264"/>
</g>
<!-- Node21 -->
<g id="node16" class="node"><title>Node21</title>
<g id="a_node16"><a xlink:href="namespacedriver__x.html#ada3d72a0929daaa5e3da585246d62281" target="_top" xlink:title="driver_x::run_driver_x">
<polygon fill="white" stroke="black" points="752,-0.5 752,-21.5 901,-21.5 901,-0.5 752,-0.5"/>
<text text-anchor="middle" x="826.5" y="-7.9" font-family="Ubuntu Mono" font-size="12.00">driver_x::run_driver_x</text>
</a>
</g>
</g>
<!-- Node16&#45;&gt;Node21 -->
<g id="edge24" class="edge"><title>Node16&#45;&gt;Node21</title>
<path fill="none" stroke="midnightblue" d="M699.226,-159.033C700.886,-157.76 702.481,-156.417 704,-155 734.293,-126.729 713.766,-101.073 740,-69 757.148,-48.0353 783.814,-31.6233 802.803,-21.6871"/>
<polygon fill="midnightblue" stroke="midnightblue" points="696.868,-156.396 690.455,-164.83 700.728,-162.236 696.868,-156.396"/>
</g>
<!-- Node17&#45;&gt;Node12 -->
<g id="edge16" class="edge"><title>Node17&#45;&gt;Node12</title>
<path fill="none" stroke="midnightblue" d="M917.539,-253.528C1002.27,-248.378 1122.95,-241.044 1169.82,-238.196"/>
<polygon fill="midnightblue" stroke="midnightblue" points="917.16,-250.045 907.391,-254.145 917.585,-257.032 917.16,-250.045"/>
</g>
<!-- Node18&#45;&gt;Node10 -->
<g id="edge19" class="edge"><title>Node18&#45;&gt;Node10</title>
<path fill="none" stroke="midnightblue" d="M1060.2,-200.186C1091.14,-231.965 1154.12,-296.655 1179.02,-322.239"/>
<polygon fill="midnightblue" stroke="midnightblue" points="1062.56,-197.583 1053.07,-192.86 1057.54,-202.466 1062.56,-197.583"/>
</g>
<!-- Node19&#45;&gt;Node18 -->
<g id="edge21" class="edge"><title>Node19&#45;&gt;Node18</title>
<path fill="none" stroke="midnightblue" d="M899.263,-151.498C929.738,-158.079 964.474,-165.581 991.871,-171.498"/>
<polygon fill="midnightblue" stroke="midnightblue" points="899.622,-147.995 889.108,-149.305 898.144,-154.837 899.622,-147.995"/>
</g>
<!-- Node20&#45;&gt;Node12 -->
<g id="edge23" class="edge"><title>Node20&#45;&gt;Node12</title>
<path fill="none" stroke="midnightblue" d="M923.21,-94.7418C987.343,-102.481 1071.21,-120.454 1134,-162 1158.86,-178.447 1176.65,-209.997 1184.7,-226.442"/>
<polygon fill="midnightblue" stroke="midnightblue" points="923.425,-91.2437 913.092,-93.5856 922.63,-98.1985 923.425,-91.2437"/>
</g>
<!-- Node21&#45;&gt;Node12 -->
<g id="edge25" class="edge"><title>Node21&#45;&gt;Node12</title>
<path fill="none" stroke="midnightblue" d="M911.544,-13.952C979.269,-20.6068 1072.95,-40.055 1134,-95 1174.13,-131.123 1185.55,-199.846 1188.53,-226.275"/>
<polygon fill="midnightblue" stroke="midnightblue" points="911.602,-10.4431 901.327,-13.0253 910.97,-17.4144 911.602,-10.4431"/>
</g>
<!-- Node22&#45;&gt;Node9 -->
<g id="edge30" class="edge"><title>Node22&#45;&gt;Node9</title>
<path fill="none" stroke="midnightblue" d="M705.086,-345.811C720.476,-346.73 736.515,-347.687 751.679,-348.593"/>
<polygon fill="midnightblue" stroke="midnightblue" points="705.273,-342.316 695.082,-345.214 704.856,-349.304 705.273,-342.316"/>
</g>
<!-- Node22&#45;&gt;Node11 -->
<g id="edge31" class="edge"><title>Node22&#45;&gt;Node11</title>
<path fill="none" stroke="midnightblue" d="M694.111,-360.776C709.211,-364.929 725.116,-369.199 740,-373 752.555,-376.206 766.198,-379.488 778.824,-382.442"/>
<polygon fill="midnightblue" stroke="midnightblue" points="694.895,-357.362 684.324,-358.071 693.03,-364.109 694.895,-357.362"/>
</g>
<!-- Node22&#45;&gt;Node15 -->
<g id="edge32" class="edge"><title>Node22&#45;&gt;Node15</title>
<path fill="none" stroke="midnightblue" d="M705.233,-326.942C722.663,-323.907 740.919,-320.728 757.79,-317.79"/>
<polygon fill="midnightblue" stroke="midnightblue" points="704.334,-323.546 695.082,-328.71 705.535,-330.442 704.334,-323.546"/>
</g>
<!-- Node22&#45;&gt;Node17 -->
<g id="edge29" class="edge"><title>Node22&#45;&gt;Node17</title>
<path fill="none" stroke="midnightblue" d="M693.558,-319.73C697.164,-317.948 700.669,-316.039 704,-314 723.032,-302.348 720.422,-289.709 740,-279 746.955,-275.196 754.612,-272.112 762.399,-269.612"/>
<polygon fill="midnightblue" stroke="midnightblue" points="692.068,-316.563 684.429,-323.904 694.979,-322.929 692.068,-316.563"/>
</g>
<!-- Node23&#45;&gt;Node9 -->
<g id="edge35" class="edge"><title>Node23&#45;&gt;Node9</title>
<path fill="none" stroke="midnightblue" d="M699.754,-257.645C701.218,-258.713 702.636,-259.83 704,-261 730.858,-284.03 712.294,-309.996 740,-332 745.386,-336.278 751.521,-339.7 757.974,-342.436"/>
<polygon fill="midnightblue" stroke="midnightblue" points="701.255,-254.453 690.933,-252.063 697.511,-260.368 701.255,-254.453"/>
</g>
<!-- Node23&#45;&gt;Node15 -->
<g id="edge37" class="edge"><title>Node23&#45;&gt;Node15</title>
<path fill="none" stroke="midnightblue" d="M689.551,-255.398C694.472,-257.208 699.335,-259.083 704,-261 720.546,-267.799 723.419,-272.286 740,-279 748.657,-282.506 757.953,-285.851 767.112,-288.919"/>
<polygon fill="midnightblue" stroke="midnightblue" points="690.647,-252.073 680.052,-252.004 688.292,-258.665 690.647,-252.073"/>
</g>
<!-- Node23&#45;&gt;Node17 -->
<g id="edge34" class="edge"><title>Node23&#45;&gt;Node17</title>
<path fill="none" stroke="midnightblue" d="M705.206,-244.636C718.59,-246.235 732.461,-247.891 745.82,-249.486"/>
<polygon fill="midnightblue" stroke="midnightblue" points="705.427,-241.138 695.082,-243.428 704.597,-248.089 705.427,-241.138"/>
</g>
<!-- Node23&#45;&gt;Node18 -->
<g id="edge36" class="edge"><title>Node23&#45;&gt;Node18</title>
<path fill="none" stroke="midnightblue" d="M705.101,-224.731C777.837,-215.464 884.378,-201.891 957.766,-192.541"/>
<polygon fill="midnightblue" stroke="midnightblue" points="704.546,-221.273 695.069,-226.009 705.431,-228.217 704.546,-221.273"/>
</g>
<!-- Node24&#45;&gt;Node9 -->
<g id="edge39" class="edge"><title>Node24&#45;&gt;Node9</title>
<path fill="none" stroke="midnightblue" d="M701.674,-152.559C702.475,-153.346 703.251,-154.16 704,-155 757.396,-214.944 684.388,-274.106 740,-332 744.024,-336.189 748.737,-339.597 753.846,-342.363"/>
<polygon fill="midnightblue" stroke="midnightblue" points="703.803,-149.779 693.846,-146.159 699.372,-155.198 703.803,-149.779"/>
</g>
<!-- Node24&#45;&gt;Node15 -->
<g id="edge42" class="edge"><title>Node24&#45;&gt;Node15</title>
<path fill="none" stroke="midnightblue" d="M701.175,-152.282C702.149,-153.155 703.091,-154.061 704,-155 743.893,-196.253 699.897,-237.951 740,-279 745.113,-284.233 751.23,-288.455 757.811,-291.86"/>
<polygon fill="midnightblue" stroke="midnightblue" points="703.248,-149.462 693.164,-146.21 699.02,-155.04 703.248,-149.462"/>
</g>
<!-- Node24&#45;&gt;Node18 -->
<g id="edge40" class="edge"><title>Node24&#45;&gt;Node18</title>
<path fill="none" stroke="midnightblue" d="M657.483,-106.417C679.708,-92.6125 710.289,-76.2568 740,-69 814.693,-50.7565 841.11,-41.7277 913,-69 968.309,-89.9823 1015.02,-147.149 1032.81,-171.156"/>
<polygon fill="midnightblue" stroke="midnightblue" points="655.353,-103.624 648.797,-111.947 659.112,-109.529 655.353,-103.624"/>
</g>
<!-- Node24&#45;&gt;Node21 -->
<g id="edge41" class="edge"><title>Node24&#45;&gt;Node21</title>
<path fill="none" stroke="midnightblue" d="M653.155,-105.463C685.759,-78.7529 735.148,-38.5333 740,-36 751.516,-29.9875 764.68,-25.229 777.17,-21.549"/>
<polygon fill="midnightblue" stroke="midnightblue" points="650.779,-102.885 645.265,-111.932 655.217,-108.298 650.779,-102.885"/>
</g>
<!-- Node25&#45;&gt;Node21 -->
<g id="edge44" class="edge"><title>Node25&#45;&gt;Node21</title>
<path fill="none" stroke="midnightblue" d="M517.12,-46.2156C570.305,-43.2415 641.447,-38.3541 704,-31 725.125,-28.5164 748.183,-24.9421 768.481,-21.5001"/>
<polygon fill="midnightblue" stroke="midnightblue" points="516.861,-42.7245 507.068,-46.767 517.245,-49.714 516.861,-42.7245"/>
</g>
<!-- Node26 -->
<g id="node21" class="node"><title>Node26</title>
<g id="a_node21"><a xlink:href="namespacedriver__x.html#ad3924b3d66f336f0a9a9559eafffec8e" target="_top" xlink:title="driver_x::run_driver_x_2">
<polygon fill="white" stroke="black" points="543,-0.5 543,-21.5 704,-21.5 704,-0.5 543,-0.5"/>
<text text-anchor="middle" x="623.5" y="-7.9" font-family="Ubuntu Mono" font-size="12.00">driver_x::run_driver_x_2</text>
</a>
</g>
</g>
<!-- Node25&#45;&gt;Node26 -->
<g id="edge45" class="edge"><title>Node25&#45;&gt;Node26</title>
<path fill="none" stroke="midnightblue" d="M517.097,-33.1007C535.824,-29.1741 555.234,-25.1042 572.216,-21.5434"/>
<polygon fill="midnightblue" stroke="midnightblue" points="516.153,-29.7224 507.084,-35.2002 517.589,-36.5734 516.153,-29.7224"/>
</g>
<!-- Node26&#45;&gt;Node21 -->
<g id="edge46" class="edge"><title>Node26&#45;&gt;Node21</title>
<path fill="none" stroke="midnightblue" d="M714.599,-11C727.025,-11 739.664,-11 751.748,-11"/>
<polygon fill="midnightblue" stroke="midnightblue" points="714.229,-7.5001 704.229,-11 714.229,-14.5001 714.229,-7.5001"/>
</g>
<!-- Node27&#45;&gt;Node9 -->
<g id="edge48" class="edge"><title>Node27&#45;&gt;Node9</title>
<path fill="none" stroke="midnightblue" d="M689.551,-308.398C694.472,-310.208 699.335,-312.083 704,-314 720.546,-320.799 723.21,-325.828 740,-332 750.903,-336.008 762.868,-339.487 774.304,-342.398"/>
<polygon fill="midnightblue" stroke="midnightblue" points="690.647,-305.073 680.052,-305.004 688.292,-311.665 690.647,-305.073"/>
</g>
<!-- Node27&#45;&gt;Node11 -->
<g id="edge50" class="edge"><title>Node27&#45;&gt;Node11</title>
<path fill="none" stroke="midnightblue" d="M698.511,-310.042C700.407,-311.291 702.242,-312.609 704,-314 728.087,-333.064 715.113,-354.993 740,-373 746.299,-377.558 753.481,-381.093 760.945,-383.833"/>
<polygon fill="midnightblue" stroke="midnightblue" points="700.255,-307.008 689.852,-305.001 696.733,-313.057 700.255,-307.008"/>
</g>
<!-- Node27&#45;&gt;Node15 -->
<g id="edge51" class="edge"><title>Node27&#45;&gt;Node15</title>
<path fill="none" stroke="midnightblue" d="M705.233,-295.23C722.663,-296.791 740.919,-298.426 757.79,-299.936"/>
<polygon fill="midnightblue" stroke="midnightblue" points="705.355,-291.727 695.082,-294.321 704.73,-298.699 705.355,-291.727"/>
</g>
<!-- Node27&#45;&gt;Node20 -->
<g id="edge49" class="edge"><title>Node27&#45;&gt;Node20</title>
<path fill="none" stroke="midnightblue" d="M700.275,-264.708C701.576,-263.533 702.82,-262.297 704,-261 750.708,-209.638 690.842,-158.022 740,-109 743.778,-105.232 748.121,-102.121 752.804,-99.5573"/>
<polygon fill="midnightblue" stroke="midnightblue" points="698.1,-261.965 692.274,-270.815 702.347,-267.53 698.1,-261.965"/>
</g>
<!-- Node28&#45;&gt;Node9 -->
<g id="edge53" class="edge"><title>Node28&#45;&gt;Node9</title>
<path fill="none" stroke="midnightblue" d="M508.208,-364.658C519.826,-365.633 531.737,-366.472 543,-367 614.477,-370.348 632.562,-371.102 704,-367 719.475,-366.111 736.004,-364.591 751.727,-362.872"/>
<polygon fill="midnightblue" stroke="midnightblue" points="508.365,-361.159 498.097,-363.772 507.753,-368.132 508.365,-361.159"/>
</g>
<!-- Node28&#45;&gt;Node16 -->
<g id="edge54" class="edge"><title>Node28&#45;&gt;Node16</title>
<path fill="none" stroke="midnightblue" d="M448.862,-330.392C465.635,-297.105 498.672,-240.535 543,-208 547.566,-204.649 552.585,-201.716 557.815,-199.15"/>
<polygon fill="midnightblue" stroke="midnightblue" points="445.644,-329.005 444.375,-339.524 451.926,-332.092 445.644,-329.005"/>
</g>
</g>
</svg>
