<?xml version="1.0" encoding="UTF-8" standalone="no"?>
<!DOCTYPE svg PUBLIC "-//W3C//DTD SVG 1.1//EN"
 "http://www.w3.org/Graphics/SVG/1.1/DTD/svg11.dtd">
<!-- Generated by graphviz version 2.38.0 (20140413.2041)
 -->
<!-- Title: x_ops::setup_nm_x Pages: 1 -->
<svg width="610pt" height="201pt"
 viewBox="0.00 0.00 610.00 201.00" xmlns="http://www.w3.org/2000/svg" xmlns:xlink="http://www.w3.org/1999/xlink">
<g id="graph0" class="graph" transform="scale(1 1) rotate(0) translate(4 197)">
<title>x_ops::setup_nm_x</title>
<polygon fill="white" stroke="none" points="-4,4 -4,-197 606,-197 606,4 -4,4"/>
<!-- Node131 -->
<g id="node1" class="node"><title>Node131</title>
<polygon fill="#bfbfbf" stroke="black" points="0,-87.5 0,-108.5 119,-108.5 119,-87.5 0,-87.5"/>
<text text-anchor="middle" x="59.5" y="-94.9" font-family="Ubuntu Mono" font-size="12.00">x_ops::setup_nm_x</text>
</g>
<!-- Node132 -->
<g id="node2" class="node"><title>Node132</title>
<g id="a_node2"><a xlink:href="namespacedriver__post.html#af527706d4e696d4e507443d2f74194ef" target="_top" xlink:title="Initializes the POST driver. ">
<polygon fill="white" stroke="black" points="358,-131.5 358,-152.5 507,-152.5 507,-131.5 358,-131.5"/>
<text text-anchor="middle" x="432.5" y="-138.9" font-family="Ubuntu Mono" font-size="12.00">driver_post::init_post</text>
</a>
</g>
</g>
<!-- Node131&#45;&gt;Node132 -->
<g id="edge1" class="edge"><title>Node131&#45;&gt;Node132</title>
<path fill="none" stroke="midnightblue" d="M102.266,-111.46C118.556,-116.189 137.491,-121.053 155,-124 223.192,-135.477 301.984,-139.741 357.97,-141.273"/>
<polygon fill="midnightblue" stroke="midnightblue" points="103.084,-108.052 92.501,-108.552 101.086,-114.761 103.084,-108.052"/>
</g>
<!-- Node134 -->
<g id="node4" class="node"><title>Node134</title>
<g id="a_node4"><a xlink:href="namespacedriver__post.html#a33b3c6f9018a0ddc92dce77394b8ab37" target="_top" xlink:title="The main driver routine for postprocessing. ">
<polygon fill="white" stroke="black" points="340,-171.5 340,-192.5 525,-192.5 525,-171.5 340,-171.5"/>
<text text-anchor="middle" x="432.5" y="-178.9" font-family="Ubuntu Mono" font-size="12.00">driver_post::run_driver_post</text>
</a>
</g>
</g>
<!-- Node131&#45;&gt;Node134 -->
<g id="edge3" class="edge"><title>Node131&#45;&gt;Node134</title>
<path fill="none" stroke="midnightblue" d="M85.8465,-113.881C104.322,-124.693 130.334,-138.378 155,-146 215.01,-164.545 285.218,-173.539 339.87,-177.9"/>
<polygon fill="midnightblue" stroke="midnightblue" points="87.549,-110.821 77.1707,-108.69 83.9547,-116.828 87.549,-110.821"/>
</g>
<!-- Node135 -->
<g id="node5" class="node"><title>Node135</title>
<g id="a_node5"><a xlink:href="namespacedriver__x.html#ada3d72a0929daaa5e3da585246d62281" target="_top" xlink:title="Main driver of PB3D perturbation part. ">
<polygon fill="white" stroke="black" points="155,-40.5 155,-61.5 304,-61.5 304,-40.5 155,-40.5"/>
<text text-anchor="middle" x="229.5" y="-47.9" font-family="Ubuntu Mono" font-size="12.00">driver_x::run_driver_x</text>
</a>
</g>
</g>
<!-- Node131&#45;&gt;Node135 -->
<g id="edge5" class="edge"><title>Node131&#45;&gt;Node135</title>
<path fill="none" stroke="midnightblue" d="M107.016,-84.5836C122.291,-80.2115 139.361,-75.3618 155,-71 166.082,-67.9092 178.121,-64.6092 189.186,-61.5993"/>
<polygon fill="midnightblue" stroke="midnightblue" points="105.918,-81.2573 97.2695,-87.3779 107.847,-87.9862 105.918,-81.2573"/>
</g>
<!-- Node137 -->
<g id="node7" class="node"><title>Node137</title>
<g id="a_node7"><a xlink:href="namespacerich__ops.html#a9fbbda93eab8973d33063e277c489e7b" target="_top" xlink:title="Initialize Richardson extrapolation system. ">
<polygon fill="white" stroke="black" points="164,-0.5 164,-21.5 295,-21.5 295,-0.5 164,-0.5"/>
<text text-anchor="middle" x="229.5" y="-7.9" font-family="Ubuntu Mono" font-size="12.00">rich_ops::init_rich</text>
</a>
</g>
</g>
<!-- Node131&#45;&gt;Node137 -->
<g id="edge7" class="edge"><title>Node131&#45;&gt;Node137</title>
<path fill="none" stroke="midnightblue" d="M80.5821,-80.5617C98.8674,-65.4967 127.182,-44.1372 155,-31 162.892,-27.2728 171.6,-24.1381 180.179,-21.5382"/>
<polygon fill="midnightblue" stroke="midnightblue" points="77.8623,-78.2755 72.4574,-87.388 82.3653,-83.6349 77.8623,-78.2755"/>
</g>
<!-- Node138 -->
<g id="node8" class="node"><title>Node138</title>
<g id="a_node8"><a xlink:href="namespacetest.html#ac574f08ba400cd61070a6a6f13f6f7ee" target="_top" xlink:title="Tests reading of HDF5 subset. ">
<polygon fill="white" stroke="black" points="161,-81 161,-115 298,-115 298,-81 161,-81"/>
<text text-anchor="start" x="169" y="-101.4" font-family="Ubuntu Mono" font-size="12.00">test::test_read_hdf5</text>
<text text-anchor="middle" x="229.5" y="-88.4" font-family="Ubuntu Mono" font-size="12.00">_subset</text>
</a>
</g>
</g>
<!-- Node131&#45;&gt;Node138 -->
<g id="edge9" class="edge"><title>Node131&#45;&gt;Node138</title>
<path fill="none" stroke="midnightblue" d="M129.489,-98C139.849,-98 150.525,-98 160.856,-98"/>
<polygon fill="midnightblue" stroke="midnightblue" points="129.258,-94.5001 119.258,-98 129.258,-101.5 129.258,-94.5001"/>
</g>
<!-- Node133 -->
<g id="node3" class="node"><title>Node133</title>
<g id="a_node3"><a xlink:href="POST_8f90.html#ac289b64ac4671fea0b4f2298ba1188a1" target="_top" xlink:title="Peeling Ballooning in 3D: postprocessing. ">
<polygon fill="white" stroke="black" points="561,-131.5 561,-152.5 602,-152.5 602,-131.5 561,-131.5"/>
<text text-anchor="middle" x="581.5" y="-138.9" font-family="Ubuntu Mono" font-size="12.00">post</text>
</a>
</g>
</g>
<!-- Node132&#45;&gt;Node133 -->
<g id="edge2" class="edge"><title>Node132&#45;&gt;Node133</title>
<path fill="none" stroke="midnightblue" d="M517.573,-142C533.763,-142 549.254,-142 560.816,-142"/>
<polygon fill="midnightblue" stroke="midnightblue" points="517.431,-138.5 507.431,-142 517.431,-145.5 517.431,-138.5"/>
</g>
<!-- Node134&#45;&gt;Node133 -->
<g id="edge4" class="edge"><title>Node134&#45;&gt;Node133</title>
<path fill="none" stroke="midnightblue" d="M497.49,-169.132C506.768,-166.943 516.165,-164.546 525,-162 537.105,-158.512 550.39,-153.759 560.927,-149.761"/>
<polygon fill="midnightblue" stroke="midnightblue" points="496.464,-165.777 487.5,-171.424 498.029,-172.599 496.464,-165.777"/>
</g>
<!-- Node136 -->
<g id="node6" class="node"><title>Node136</title>
<g id="a_node6"><a xlink:href="PB3D_8f90.html#afaee01f014ab3398eecac996b2795fd2" target="_top" xlink:title="Peeling Ballooning in 3D. ">
<polygon fill="white" stroke="black" points="561,-40.5 561,-61.5 602,-61.5 602,-40.5 561,-40.5"/>
<text text-anchor="middle" x="581.5" y="-47.9" font-family="Ubuntu Mono" font-size="12.00">pb3d</text>
</a>
</g>
</g>
<!-- Node135&#45;&gt;Node136 -->
<g id="edge6" class="edge"><title>Node135&#45;&gt;Node136</title>
<path fill="none" stroke="midnightblue" d="M314.56,-51C396.162,-51 514.296,-51 560.715,-51"/>
<polygon fill="midnightblue" stroke="midnightblue" points="314.298,-47.5001 304.298,-51 314.298,-54.5001 314.298,-47.5001"/>
</g>
<!-- Node137&#45;&gt;Node136 -->
<g id="edge8" class="edge"><title>Node137&#45;&gt;Node136</title>
<path fill="none" stroke="midnightblue" d="M305.328,-19.5517C386.962,-28.8813 512.444,-43.2221 560.675,-48.7343"/>
<polygon fill="midnightblue" stroke="midnightblue" points="305.436,-16.0414 295.103,-18.3832 304.641,-22.9961 305.436,-16.0414"/>
</g>
<!-- Node139 -->
<g id="node9" class="node"><title>Node139</title>
<g id="a_node9"><a xlink:href="namespacetest.html#aca21ee464c0b1f4b617177afdde110ec" target="_top" xlink:title="Performs generic tests. ">
<polygon fill="white" stroke="black" points="367,-87.5 367,-108.5 498,-108.5 498,-87.5 367,-87.5"/>
<text text-anchor="middle" x="432.5" y="-94.9" font-family="Ubuntu Mono" font-size="12.00">test::generic_tests</text>
</a>
</g>
</g>
<!-- Node138&#45;&gt;Node139 -->
<g id="edge10" class="edge"><title>Node138&#45;&gt;Node139</title>
<path fill="none" stroke="midnightblue" d="M308.522,-98C327.779,-98 348.196,-98 366.745,-98"/>
<polygon fill="midnightblue" stroke="midnightblue" points="308.269,-94.5001 298.269,-98 308.269,-101.5 308.269,-94.5001"/>
</g>
<!-- Node139&#45;&gt;Node133 -->
<g id="edge12" class="edge"><title>Node139&#45;&gt;Node133</title>
<path fill="none" stroke="midnightblue" d="M486.894,-111.147C499.454,-114.476 512.749,-118.194 525,-122 537.03,-125.737 550.313,-130.5 560.866,-134.441"/>
<polygon fill="midnightblue" stroke="midnightblue" points="487.572,-107.707 477.012,-108.566 485.803,-114.48 487.572,-107.707"/>
</g>
<!-- Node139&#45;&gt;Node136 -->
<g id="edge11" class="edge"><title>Node139&#45;&gt;Node136</title>
<path fill="none" stroke="midnightblue" d="M476.022,-84.4044C503.929,-75.4818 539.129,-64.2275 560.714,-57.326"/>
<polygon fill="midnightblue" stroke="midnightblue" points="474.949,-81.0731 466.49,-87.4523 477.081,-87.7406 474.949,-81.0731"/>
</g>
</g>
</svg>
