<?xml version="1.0" encoding="UTF-8" standalone="no"?>
<!DOCTYPE svg PUBLIC "-//W3C//DTD SVG 1.1//EN"
 "http://www.w3.org/Graphics/SVG/1.1/DTD/svg11.dtd">
<!-- Generated by graphviz version 2.38.0 (20140413.2041)
 -->
<!-- Title: helena_ops::test_metrics_h Pages: 1 -->
<svg width="903pt" height="294pt"
 viewBox="0.00 0.00 903.00 294.18" xmlns="http://www.w3.org/2000/svg" xmlns:xlink="http://www.w3.org/1999/xlink">
<g id="graph0" class="graph" transform="scale(1 1) rotate(0) translate(4 290.184)">
<title>helena_ops::test_metrics_h</title>
<polygon fill="white" stroke="none" points="-4,4 -4,-290.184 899,-290.184 899,4 -4,4"/>
<!-- Node51 -->
<g id="node1" class="node"><title>Node51</title>
<polygon fill="#bfbfbf" stroke="black" points="0,-176.5 0,-197.5 173,-197.5 173,-176.5 0,-176.5"/>
<text text-anchor="middle" x="86.5" y="-183.9" font-family="Ubuntu Mono" font-size="12.00">helena_ops::test_metrics_h</text>
</g>
<!-- Node52 -->
<g id="node2" class="node"><title>Node52</title>
<g id="a_node2"><a xlink:href="namespaceoutput__ops.html#ab0d14194d01ab0534562eab50b37a57a" target="_top" xlink:title="Takes two input vectors and plots these as well as the relative and absolute difference in a HDF5 fil...">
<polygon fill="white" stroke="black" points="209,-235.5 209,-256.5 382,-256.5 382,-235.5 209,-235.5"/>
<text text-anchor="middle" x="295.5" y="-242.9" font-family="Ubuntu Mono" font-size="12.00">output_ops::plot_diff_hdf5</text>
</a>
</g>
</g>
<!-- Node51&#45;&gt;Node52 -->
<g id="edge1" class="edge"><title>Node51&#45;&gt;Node52</title>
<path fill="none" stroke="midnightblue" d="M124.507,-197.548C158.988,-207.376 210.542,-222.07 247.832,-232.698"/>
<polygon fill="midnightblue" stroke="midnightblue" points="246.888,-236.069 257.465,-235.444 248.807,-229.337 246.888,-236.069"/>
</g>
<!-- Node53 -->
<g id="node3" class="node"><title>Node53</title>
<g id="a_node3"><a xlink:href="namespacemessages.html#aa4a8d01563e92558e8a0875b075ec54c" target="_top" xlink:title="Write output to file identified by output_i. ">
<polygon fill="white" stroke="black" points="597,-138.5 597,-159.5 704,-159.5 704,-138.5 597,-138.5"/>
<text text-anchor="middle" x="650.5" y="-145.9" font-family="Ubuntu Mono" font-size="12.00">messages::writo</text>
</a>
</g>
</g>
<!-- Node51&#45;&gt;Node53 -->
<g id="edge15" class="edge"><title>Node51&#45;&gt;Node53</title>
<path fill="none" stroke="midnightblue" d="M173.161,-181.208C287.089,-173.505 485.806,-160.068 586.767,-153.242"/>
<polygon fill="midnightblue" stroke="midnightblue" points="587.075,-156.729 596.816,-152.562 586.603,-149.745 587.075,-156.729"/>
</g>
<!-- Node56 -->
<g id="node6" class="node"><title>Node56</title>
<g id="a_node6"><a xlink:href="namespacemessages.html#a6e6bfb084063e4cc91ee86e542043302" target="_top" xlink:title="Increases/decreases lvl of output. ">
<polygon fill="white" stroke="black" points="433,-196.5 433,-217.5 546,-217.5 546,-196.5 433,-196.5"/>
<text text-anchor="middle" x="489.5" y="-203.9" font-family="Ubuntu Mono" font-size="12.00">messages::lvl_ud</text>
</a>
</g>
</g>
<!-- Node51&#45;&gt;Node56 -->
<g id="edge16" class="edge"><title>Node51&#45;&gt;Node56</title>
<path fill="none" stroke="midnightblue" d="M173.033,-191.266C247.748,-194.992 354.635,-200.323 422.8,-203.723"/>
<polygon fill="midnightblue" stroke="midnightblue" points="422.82,-207.228 432.982,-204.231 423.168,-200.237 422.82,-207.228"/>
</g>
<!-- Node58 -->
<g id="node8" class="node"><title>Node58</title>
<g id="a_node8"><a xlink:href="namespaceinput__utilities.html#a03e09af96ba6f7e187ea4a1d9b743148" target="_top" xlink:title="Queries for user input for an integer value, where allowable range can be provided as well...">
<polygon fill="white" stroke="black" points="215,-80.5 215,-101.5 376,-101.5 376,-80.5 215,-80.5"/>
<text text-anchor="middle" x="295.5" y="-87.9" font-family="Ubuntu Mono" font-size="12.00">input_utilities::get_int</text>
</a>
</g>
</g>
<!-- Node51&#45;&gt;Node58 -->
<g id="edge8" class="edge"><title>Node51&#45;&gt;Node58</title>
<path fill="none" stroke="midnightblue" d="M110.444,-176.36C147.455,-159.195 220.436,-125.349 262.527,-105.828"/>
<polygon fill="midnightblue" stroke="midnightblue" points="264.17,-108.924 271.769,-101.542 261.225,-102.574 264.17,-108.924"/>
</g>
<!-- Node52&#45;&gt;Node53 -->
<g id="edge2" class="edge"><title>Node52&#45;&gt;Node53</title>
<path fill="none" stroke="midnightblue" d="M322.609,-256.555C372.096,-274.799 481.687,-306.656 561,-267 602.002,-246.499 628.936,-196.969 641.427,-169.033"/>
<polygon fill="midnightblue" stroke="midnightblue" points="644.657,-170.383 645.375,-159.812 638.222,-167.627 644.657,-170.383"/>
</g>
<!-- Node52&#45;&gt;Node56 -->
<g id="edge5" class="edge"><title>Node52&#45;&gt;Node56</title>
<path fill="none" stroke="midnightblue" d="M348.205,-235.497C372.424,-230.578 401.461,-224.68 426.819,-219.529"/>
<polygon fill="midnightblue" stroke="midnightblue" points="427.599,-222.942 436.703,-217.521 426.206,-216.082 427.599,-222.942"/>
</g>
<!-- Node57 -->
<g id="node7" class="node"><title>Node57</title>
<g id="a_node7"><a xlink:href="namespacestr__utilities.html#ac778d706b2e021672618939ab58fdd32" target="_top" xlink:title="Convert a real (double) to string. ">
<polygon fill="white" stroke="black" points="418,-236.5 418,-257.5 561,-257.5 561,-236.5 418,-236.5"/>
<text text-anchor="middle" x="489.5" y="-243.9" font-family="Ubuntu Mono" font-size="12.00">str_utilities::r2strt</text>
</a>
</g>
</g>
<!-- Node52&#45;&gt;Node57 -->
<g id="edge7" class="edge"><title>Node52&#45;&gt;Node57</title>
<path fill="none" stroke="midnightblue" d="M382.112,-246.446C390.572,-246.49 399.141,-246.535 407.552,-246.578"/>
<polygon fill="midnightblue" stroke="midnightblue" points="407.697,-250.079 417.715,-246.631 407.734,-243.079 407.697,-250.079"/>
</g>
<!-- Node54 -->
<g id="node4" class="node"><title>Node54</title>
<g id="a_node4"><a xlink:href="namespacemessages.html#a82dddaab795b78b3d39e1ff1aab2f665" target="_top" xlink:title="Returns the memory usage in kilobytes. ">
<polygon fill="white" stroke="black" points="740,-158.5 740,-179.5 895,-179.5 895,-158.5 740,-158.5"/>
<text text-anchor="middle" x="817.5" y="-165.9" font-family="Ubuntu Mono" font-size="12.00">messages::get_mem_usage</text>
</a>
</g>
</g>
<!-- Node53&#45;&gt;Node54 -->
<g id="edge3" class="edge"><title>Node53&#45;&gt;Node54</title>
<path fill="none" stroke="midnightblue" d="M704.161,-155.383C712.452,-156.388 721.208,-157.449 730.025,-158.518"/>
<polygon fill="midnightblue" stroke="midnightblue" points="729.635,-161.996 739.984,-159.725 730.478,-155.047 729.635,-161.996"/>
</g>
<!-- Node55 -->
<g id="node5" class="node"><title>Node55</title>
<g id="a_node5"><a xlink:href="namespacemessages.html#a61fd0b51b5e37d58fdc993c01792a3fd" target="_top" xlink:title="Returns the time. ">
<polygon fill="white" stroke="black" points="752,-118.5 752,-139.5 883,-139.5 883,-118.5 752,-118.5"/>
<text text-anchor="middle" x="817.5" y="-125.9" font-family="Ubuntu Mono" font-size="12.00">messages::get_clock</text>
</a>
</g>
</g>
<!-- Node53&#45;&gt;Node55 -->
<g id="edge4" class="edge"><title>Node53&#45;&gt;Node55</title>
<path fill="none" stroke="midnightblue" d="M704.161,-142.617C716.142,-141.165 729.094,-139.595 741.797,-138.055"/>
<polygon fill="midnightblue" stroke="midnightblue" points="742.402,-141.507 751.908,-136.829 741.56,-134.558 742.402,-141.507"/>
</g>
<!-- Node56&#45;&gt;Node53 -->
<g id="edge6" class="edge"><title>Node56&#45;&gt;Node53</title>
<path fill="none" stroke="midnightblue" d="M520.729,-196.401C533.213,-191.993 547.819,-186.794 561,-182 577.845,-175.873 596.441,-168.962 612.221,-163.053"/>
<polygon fill="midnightblue" stroke="midnightblue" points="613.507,-166.308 621.641,-159.519 611.049,-159.754 613.507,-166.308"/>
</g>
<!-- Node58&#45;&gt;Node53 -->
<g id="edge14" class="edge"><title>Node58&#45;&gt;Node53</title>
<path fill="none" stroke="midnightblue" d="M360.502,-101.541C379.05,-104.594 399.331,-107.931 418,-111 475.099,-120.386 540.123,-131.058 586.689,-138.698"/>
<polygon fill="midnightblue" stroke="midnightblue" points="586.196,-142.164 596.631,-140.329 587.33,-135.256 586.196,-142.164"/>
</g>
<!-- Node59 -->
<g id="node9" class="node"><title>Node59</title>
<g id="a_node9"><a xlink:href="namespacestr__utilities.html#a0b97e51770725a3e98ed393d26681414" target="_top" xlink:title="Convert an integer to string. ">
<polygon fill="white" stroke="black" points="421,-80.5 421,-101.5 558,-101.5 558,-80.5 421,-80.5"/>
<text text-anchor="middle" x="489.5" y="-87.9" font-family="Ubuntu Mono" font-size="12.00">str_utilities::i2str</text>
</a>
</g>
</g>
<!-- Node58&#45;&gt;Node59 -->
<g id="edge9" class="edge"><title>Node58&#45;&gt;Node59</title>
<path fill="none" stroke="midnightblue" d="M376.257,-91C387.616,-91 399.288,-91 410.611,-91"/>
<polygon fill="midnightblue" stroke="midnightblue" points="410.892,-94.5001 420.892,-91 410.892,-87.5001 410.892,-94.5001"/>
</g>
<!-- Node60 -->
<g id="node10" class="node"><title>Node60</title>
<g id="a_node10"><a xlink:href="namespacemessages.html#aed343894ae4a28ad6dfbd1d39aac64ff" target="_top" xlink:title="Stop a timer. ">
<polygon fill="white" stroke="black" points="424,-40.5 424,-61.5 555,-61.5 555,-40.5 424,-40.5"/>
<text text-anchor="middle" x="489.5" y="-47.9" font-family="Ubuntu Mono" font-size="12.00">messages::stop_time</text>
</a>
</g>
</g>
<!-- Node58&#45;&gt;Node60 -->
<g id="edge10" class="edge"><title>Node58&#45;&gt;Node60</title>
<path fill="none" stroke="midnightblue" d="M346.946,-80.4905C371.871,-75.2977 402.13,-68.9936 428.264,-63.5492"/>
<polygon fill="midnightblue" stroke="midnightblue" points="428.982,-66.9748 438.058,-61.5087 427.555,-60.1219 428.982,-66.9748"/>
</g>
<!-- Node61 -->
<g id="node11" class="node"><title>Node61</title>
<g id="a_node11"><a xlink:href="namespacemessages.html#a84d5988f3ea5ca8dc2834032f896ae90" target="_top" xlink:title="Start a timer. ">
<polygon fill="white" stroke="black" points="421,-0.5 421,-21.5 558,-21.5 558,-0.5 421,-0.5"/>
<text text-anchor="middle" x="489.5" y="-7.9" font-family="Ubuntu Mono" font-size="12.00">messages::start_time</text>
</a>
</g>
</g>
<!-- Node58&#45;&gt;Node61 -->
<g id="edge12" class="edge"><title>Node58&#45;&gt;Node61</title>
<path fill="none" stroke="midnightblue" d="M315.373,-80.3295C338.859,-67.3705 380.458,-45.4558 418,-31 423.922,-28.7198 430.212,-26.569 436.502,-24.5837"/>
<polygon fill="midnightblue" stroke="midnightblue" points="437.778,-27.8542 446.334,-21.6053 435.749,-21.1548 437.778,-27.8542"/>
</g>
<!-- Node60&#45;&gt;Node53 -->
<g id="edge11" class="edge"><title>Node60&#45;&gt;Node53</title>
<path fill="none" stroke="midnightblue" d="M538.668,-61.5406C546.37,-64.1013 554.075,-67.2223 561,-71 589.688,-86.6506 616.995,-113.094 633.498,-130.796"/>
<polygon fill="midnightblue" stroke="midnightblue" points="630.964,-133.21 640.287,-138.244 636.137,-128.495 630.964,-133.21"/>
</g>
<!-- Node61&#45;&gt;Node53 -->
<g id="edge13" class="edge"><title>Node61&#45;&gt;Node53</title>
<path fill="none" stroke="midnightblue" d="M542.701,-21.5815C549.163,-24.0881 555.442,-27.1823 561,-31 598.246,-56.5835 626.194,-102.962 639.965,-129.313"/>
<polygon fill="midnightblue" stroke="midnightblue" points="636.899,-131.006 644.539,-138.346 643.144,-127.844 636.899,-131.006"/>
</g>
</g>
</svg>
