<?xml version="1.0" encoding="UTF-8" standalone="no"?>
<!DOCTYPE svg PUBLIC "-//W3C//DTD SVG 1.1//EN"
 "http://www.w3.org/Graphics/SVG/1.1/DTD/svg11.dtd">
<!-- Generated by graphviz version 2.38.0 (20140413.2041)
 -->
<!-- Title: str_utilities::strh2l Pages: 1 -->
<svg width="1058pt" height="602pt"
 viewBox="0.00 0.00 1058.00 602.00" xmlns="http://www.w3.org/2000/svg" xmlns:xlink="http://www.w3.org/1999/xlink">
<g id="graph0" class="graph" transform="scale(1 1) rotate(0) translate(4 598)">
<title>str_utilities::strh2l</title>
<polygon fill="white" stroke="none" points="-4,4 -4,-598 1054,-598 1054,4 -4,4"/>
<!-- Node432 -->
<g id="node1" class="node"><title>Node432</title>
<polygon fill="#bfbfbf" stroke="black" points="0,-293.5 0,-314.5 143,-314.5 143,-293.5 0,-293.5"/>
<text text-anchor="middle" x="71.5" y="-300.9" font-family="Ubuntu Mono" font-size="12.00">str_utilities::strh2l</text>
</g>
<!-- Node433 -->
<g id="node2" class="node"><title>Node433</title>
<g id="a_node2"><a xlink:href="namespaceinput__utilities.html#ad9ce824c30b32041ab70f3fb191f06db" target="_top" xlink:title="Queries for a logical value yes or no, where the default answer is also to be provided. ">
<polygon fill="white" stroke="black" points="179,-293.5 179,-314.5 340,-314.5 340,-293.5 179,-293.5"/>
<text text-anchor="middle" x="259.5" y="-300.9" font-family="Ubuntu Mono" font-size="12.00">input_utilities::get_log</text>
</a>
</g>
</g>
<!-- Node432&#45;&gt;Node433 -->
<g id="edge1" class="edge"><title>Node432&#45;&gt;Node433</title>
<path fill="none" stroke="midnightblue" d="M153.351,-304C161.839,-304 170.465,-304 178.94,-304"/>
<polygon fill="midnightblue" stroke="midnightblue" points="153.084,-300.5 143.084,-304 153.084,-307.5 153.084,-300.5"/>
</g>
<!-- Node434 -->
<g id="node3" class="node"><title>Node434</title>
<g id="a_node3"><a xlink:href="namespacedriver__eq.html#adc9d5dff288fa512e5ef885627d940cc" target="_top" xlink:title="Main driver of PB3D equilibrium part. ">
<polygon fill="white" stroke="black" points="800,-268.5 800,-289.5 961,-289.5 961,-268.5 800,-268.5"/>
<text text-anchor="middle" x="880.5" y="-275.9" font-family="Ubuntu Mono" font-size="12.00">driver_eq::run_driver_eq</text>
</a>
</g>
</g>
<!-- Node433&#45;&gt;Node434 -->
<g id="edge2" class="edge"><title>Node433&#45;&gt;Node434</title>
<path fill="none" stroke="midnightblue" d="M305.709,-290.893C326.859,-285.419 352.512,-279.709 376,-277 524.928,-259.824 700.284,-266.559 799.821,-272.876"/>
<polygon fill="midnightblue" stroke="midnightblue" points="304.792,-287.515 296.025,-293.464 306.588,-294.281 304.792,-287.515"/>
</g>
<!-- Node436 -->
<g id="node5" class="node"><title>Node436</title>
<g id="a_node5"><a xlink:href="namespacedriver__x.html#a454779cefa6da3714d32eedcec0ef7de" target="_top" xlink:title="Part 1 of driver_x: Vectorial jobs. ">
<polygon fill="white" stroke="black" points="585,-209.5 585,-230.5 746,-230.5 746,-209.5 585,-209.5"/>
<text text-anchor="middle" x="665.5" y="-216.9" font-family="Ubuntu Mono" font-size="12.00">driver_x::run_driver_x_1</text>
</a>
</g>
</g>
<!-- Node433&#45;&gt;Node436 -->
<g id="edge4" class="edge"><title>Node433&#45;&gt;Node436</title>
<path fill="none" stroke="midnightblue" d="M284.672,-287.802C307.249,-273.581 342.418,-253.695 376,-244 444.689,-224.17 526.12,-218.967 584.924,-218.259"/>
<polygon fill="midnightblue" stroke="midnightblue" points="282.614,-284.964 276.094,-293.316 286.399,-290.852 282.614,-284.964"/>
</g>
<!-- Node438 -->
<g id="node7" class="node"><title>Node438</title>
<g id="a_node7"><a xlink:href="interfaceeq__ops_1_1calc__eq.html#ae2f56ab19ce5c33e863f32e1c9263604" target="_top" xlink:title="metric version ">
<polygon fill="white" stroke="black" points="579,-70.5 579,-91.5 752,-91.5 752,-70.5 579,-70.5"/>
<text text-anchor="middle" x="665.5" y="-77.9" font-family="Ubuntu Mono" font-size="12.00">eq_ops::calc_eq::calc_eq_2</text>
</a>
</g>
</g>
<!-- Node433&#45;&gt;Node438 -->
<g id="edge7" class="edge"><title>Node433&#45;&gt;Node438</title>
<path fill="none" stroke="midnightblue" d="M268.292,-283.716C283.258,-247.675 319.625,-172.81 376,-136 408.821,-114.57 506.281,-99.0422 578.899,-90.0572"/>
<polygon fill="midnightblue" stroke="midnightblue" points="264.969,-282.597 264.486,-293.181 271.464,-285.208 264.969,-282.597"/>
</g>
<!-- Node439 -->
<g id="node8" class="node"><title>Node439</title>
<g id="a_node8"><a xlink:href="namespaceeq__ops.html#a9addef683b3d4a8c587510e4c994ec61" target="_top" xlink:title="Creates a VMEC input file. ">
<polygon fill="white" stroke="black" points="394,-41 394,-75 525,-75 525,-41 394,-41"/>
<text text-anchor="start" x="402" y="-61.4" font-family="Ubuntu Mono" font-size="12.00">eq_ops::create_vmec</text>
<text text-anchor="middle" x="459.5" y="-48.4" font-family="Ubuntu Mono" font-size="12.00">_input</text>
</a>
</g>
</g>
<!-- Node433&#45;&gt;Node439 -->
<g id="edge8" class="edge"><title>Node433&#45;&gt;Node439</title>
<path fill="none" stroke="midnightblue" d="M266.165,-283.82C278.905,-241.955 313.677,-144.987 376,-90 382.797,-84.0033 390.843,-79.071 399.201,-75.031"/>
<polygon fill="midnightblue" stroke="midnightblue" points="262.801,-282.855 263.336,-293.436 269.516,-284.831 262.801,-282.855"/>
</g>
<!-- Node440 -->
<g id="node9" class="node"><title>Node440</title>
<g id="a_node9"><a xlink:href="namespaceeq__ops.html#ad173efd111cb85c11bc2bc78a7555096" target="_top" xlink:title="Plots the curvature. ">
<polygon fill="white" stroke="black" points="603,-339.5 603,-360.5 728,-360.5 728,-339.5 603,-339.5"/>
<text text-anchor="middle" x="665.5" y="-346.9" font-family="Ubuntu Mono" font-size="12.00">eq_ops::kappa_plot</text>
</a>
</g>
</g>
<!-- Node433&#45;&gt;Node440 -->
<g id="edge10" class="edge"><title>Node433&#45;&gt;Node440</title>
<path fill="none" stroke="midnightblue" d="M310.257,-316.943C330.521,-321.757 354.253,-326.817 376,-330 453.746,-341.378 544.254,-346.319 602.865,-348.441"/>
<polygon fill="midnightblue" stroke="midnightblue" points="310.852,-313.486 300.31,-314.534 309.205,-320.289 310.852,-313.486"/>
</g>
<!-- Node443 -->
<g id="node12" class="node"><title>Node443</title>
<g id="a_node12"><a xlink:href="namespaceslepc__ops.html#a79c420987056c225931b51c8d30ece1f" target="_top" xlink:title="Solve the eigenvalue system using SLEPC. ">
<polygon fill="white" stroke="black" points="600,-156 600,-190 731,-190 731,-156 600,-156"/>
<text text-anchor="start" x="608" y="-176.4" font-family="Ubuntu Mono" font-size="12.00">slepc_ops::solve_ev</text>
<text text-anchor="middle" x="665.5" y="-163.4" font-family="Ubuntu Mono" font-size="12.00">_system_slepc</text>
</a>
</g>
</g>
<!-- Node433&#45;&gt;Node443 -->
<g id="edge14" class="edge"><title>Node433&#45;&gt;Node443</title>
<path fill="none" stroke="midnightblue" d="M269.262,-284.353C285.11,-251.58 321.982,-186.807 376,-161 450.521,-125.397 548.612,-140.589 609.071,-155.943"/>
<polygon fill="midnightblue" stroke="midnightblue" points="266.089,-282.877 265.023,-293.418 272.43,-285.843 266.089,-282.877"/>
</g>
<!-- Node445 -->
<g id="node14" class="node"><title>Node445</title>
<g id="a_node14"><a xlink:href="namespaceslepc__ops.html#aac8202cb74cbb06013eb73f1fa0c3118" target="_top" xlink:title="Sets up the matrices &#160;and &#160;in the EV problem . ">
<polygon fill="white" stroke="black" points="388,-170.5 388,-191.5 531,-191.5 531,-170.5 388,-170.5"/>
<text text-anchor="middle" x="459.5" y="-177.9" font-family="Ubuntu Mono" font-size="12.00">slepc_ops::setup_mats</text>
</a>
</g>
</g>
<!-- Node433&#45;&gt;Node445 -->
<g id="edge17" class="edge"><title>Node433&#45;&gt;Node445</title>
<path fill="none" stroke="midnightblue" d="M277.184,-285.879C298.244,-264.014 336.513,-227.517 376,-206 387.039,-199.985 399.716,-195.225 411.768,-191.545"/>
<polygon fill="midnightblue" stroke="midnightblue" points="274.569,-283.55 270.234,-293.217 279.652,-288.364 274.569,-283.55"/>
</g>
<!-- Node446 -->
<g id="node15" class="node"><title>Node446</title>
<g id="a_node15"><a xlink:href="namespacetest.html#aca21ee464c0b1f4b617177afdde110ec" target="_top" xlink:title="Performs generic tests. ">
<polygon fill="white" stroke="black" points="815,-447.5 815,-468.5 946,-468.5 946,-447.5 815,-447.5"/>
<text text-anchor="middle" x="880.5" y="-454.9" font-family="Ubuntu Mono" font-size="12.00">test::generic_tests</text>
</a>
</g>
</g>
<!-- Node433&#45;&gt;Node446 -->
<g id="edge19" class="edge"><title>Node433&#45;&gt;Node446</title>
<path fill="none" stroke="midnightblue" d="M268.232,-323.948C283.102,-359.3 319.322,-432.296 376,-465 532.93,-555.552 765.764,-494.9 848.751,-468.516"/>
<polygon fill="midnightblue" stroke="midnightblue" points="271.462,-322.599 264.453,-314.654 264.977,-325.236 271.462,-322.599"/>
</g>
<!-- Node447 -->
<g id="node16" class="node"><title>Node447</title>
<g id="a_node16"><a xlink:href="namespacetest.html#a1c04fcea513c8c2efb189049d810318a" target="_top" xlink:title="Test calc_d2_smooth(). ">
<polygon fill="white" stroke="black" points="603,-441 603,-475 728,-475 728,-441 603,-441"/>
<text text-anchor="start" x="611" y="-461.4" font-family="Ubuntu Mono" font-size="12.00">test::test_calc_d2</text>
<text text-anchor="middle" x="665.5" y="-448.4" font-family="Ubuntu Mono" font-size="12.00">_smooth</text>
</a>
</g>
</g>
<!-- Node433&#45;&gt;Node447 -->
<g id="edge22" class="edge"><title>Node433&#45;&gt;Node447</title>
<path fill="none" stroke="midnightblue" d="M271.184,-323.519C288.681,-353.306 326.509,-409.252 376,-434 447.7,-469.854 542.047,-470.347 602.988,-465.624"/>
<polygon fill="midnightblue" stroke="midnightblue" points="274.037,-321.455 266.042,-314.503 267.956,-324.923 274.037,-321.455"/>
</g>
<!-- Node448 -->
<g id="node17" class="node"><title>Node448</title>
<g id="a_node17"><a xlink:href="namespacetest.html#a53c6b3d654d4577af301fe3b04473d6a" target="_top" xlink:title="Test spline(). ">
<polygon fill="white" stroke="black" points="603,-400.5 603,-421.5 728,-421.5 728,-400.5 603,-400.5"/>
<text text-anchor="middle" x="665.5" y="-407.9" font-family="Ubuntu Mono" font-size="12.00">test::test_splines</text>
</a>
</g>
</g>
<!-- Node433&#45;&gt;Node448 -->
<g id="edge24" class="edge"><title>Node433&#45;&gt;Node448</title>
<path fill="none" stroke="midnightblue" d="M273.906,-322.79C293.16,-347.977 331.291,-391.537 376,-409 453.798,-439.388 552.65,-431.037 612.121,-421.521"/>
<polygon fill="midnightblue" stroke="midnightblue" points="276.68,-320.655 267.903,-314.721 271.064,-324.833 276.68,-320.655"/>
</g>
<!-- Node449 -->
<g id="node18" class="node"><title>Node449</title>
<g id="a_node18"><a xlink:href="test_8f90.html#a197914f99b7e194fb4bca9ca3669e0e8" target="_top" xlink:title="plot_y">
<polygon fill="white" stroke="black" points="433,-378.5 433,-399.5 486,-399.5 486,-378.5 433,-378.5"/>
<text text-anchor="middle" x="459.5" y="-385.9" font-family="Ubuntu Mono" font-size="12.00">plot_y</text>
</a>
</g>
</g>
<!-- Node433&#45;&gt;Node449 -->
<g id="edge26" class="edge"><title>Node433&#45;&gt;Node449</title>
<path fill="none" stroke="midnightblue" d="M287.227,-319.691C310.216,-332.744 344.547,-351.193 376,-364 394.574,-371.563 416.307,-378.058 432.803,-382.531"/>
<polygon fill="midnightblue" stroke="midnightblue" points="288.824,-316.572 278.408,-314.632 285.341,-322.644 288.824,-316.572"/>
</g>
<!-- Node450 -->
<g id="node19" class="node"><title>Node450</title>
<g id="a_node19"><a xlink:href="namespacetest.html#ab595ec935321ea0b1168593fb88fad22" target="_top" xlink:title="Test calculation of toroidal functions. ">
<polygon fill="white" stroke="black" points="397,-572.5 397,-593.5 522,-593.5 522,-572.5 397,-572.5"/>
<text text-anchor="middle" x="459.5" y="-579.9" font-family="Ubuntu Mono" font-size="12.00">test::test_tor_fun</text>
</a>
</g>
</g>
<!-- Node433&#45;&gt;Node450 -->
<g id="edge28" class="edge"><title>Node433&#45;&gt;Node450</title>
<path fill="none" stroke="midnightblue" d="M263.463,-324.693C271.657,-374.011 299.32,-499.121 376,-563 382.115,-568.094 389.32,-571.929 396.885,-574.809"/>
<polygon fill="midnightblue" stroke="midnightblue" points="266.89,-323.952 261.888,-314.612 259.974,-325.032 266.89,-323.952"/>
</g>
<!-- Node451 -->
<g id="node20" class="node"><title>Node451</title>
<g id="a_node20"><a xlink:href="namespacetest.html#a0d4cb791bf762b2e52260fea7644a3ee" target="_top" xlink:title="Tests calculation of volume integral. ">
<polygon fill="white" stroke="black" points="382,-532.5 382,-553.5 537,-553.5 537,-532.5 382,-532.5"/>
<text text-anchor="middle" x="459.5" y="-539.9" font-family="Ubuntu Mono" font-size="12.00">test::test_calc_int_vol</text>
</a>
</g>
</g>
<!-- Node433&#45;&gt;Node451 -->
<g id="edge30" class="edge"><title>Node433&#45;&gt;Node451</title>
<path fill="none" stroke="midnightblue" d="M265.839,-324.564C277.963,-367.154 311.639,-465.413 376,-518 383.649,-524.25 392.838,-528.939 402.263,-532.456"/>
<polygon fill="midnightblue" stroke="midnightblue" points="269.175,-323.494 263.157,-314.774 262.424,-325.344 269.175,-323.494"/>
</g>
<!-- Node452 -->
<g id="node21" class="node"><title>Node452</title>
<g id="a_node21"><a xlink:href="namespacevac__utilities.html#a8e7889688701f6ac2fd2c60cdee2b96a" target="_top" xlink:title="Copies vacuum variables of a previous level into the appropriate, interlaced place of a next level...">
<polygon fill="white" stroke="black" points="376,-287 376,-321 543,-321 543,-287 376,-287"/>
<text text-anchor="start" x="384" y="-307.4" font-family="Ubuntu Mono" font-size="12.00">vac_utilities::interlaced</text>
<text text-anchor="middle" x="459.5" y="-294.4" font-family="Ubuntu Mono" font-size="12.00">_vac_copy</text>
</a>
</g>
</g>
<!-- Node433&#45;&gt;Node452 -->
<g id="edge32" class="edge"><title>Node433&#45;&gt;Node452</title>
<path fill="none" stroke="midnightblue" d="M350.413,-304C358.854,-304 367.383,-304 375.753,-304"/>
<polygon fill="midnightblue" stroke="midnightblue" points="350.178,-300.5 340.178,-304 350.178,-307.5 350.178,-300.5"/>
</g>
<!-- Node454 -->
<g id="node23" class="node"><title>Node454</title>
<g id="a_node23"><a xlink:href="namespacex__ops.html#a4e39701da15ff952add5133db1897b52" target="_top" xlink:title="Calculate , &#160;or , . ">
<polygon fill="white" stroke="black" points="412,-0.5 412,-21.5 507,-21.5 507,-0.5 412,-0.5"/>
<text text-anchor="middle" x="459.5" y="-7.9" font-family="Ubuntu Mono" font-size="12.00">x_ops::calc_u</text>
</a>
</g>
</g>
<!-- Node433&#45;&gt;Node454 -->
<g id="edge35" class="edge"><title>Node433&#45;&gt;Node454</title>
<path fill="none" stroke="midnightblue" d="M262.95,-283.247C270.135,-232.057 295.962,-98.9915 376,-31 385.997,-22.508 399.014,-17.5033 411.743,-14.5875"/>
<polygon fill="midnightblue" stroke="midnightblue" points="259.449,-283.024 261.624,-293.394 266.39,-283.931 259.449,-283.024"/>
</g>
<!-- Node435 -->
<g id="node4" class="node"><title>Node435</title>
<g id="a_node4"><a xlink:href="PB3D_8f90.html#afaee01f014ab3398eecac996b2795fd2" target="_top" xlink:title="Peeling Ballooning in 3D. ">
<polygon fill="white" stroke="black" points="1009,-245.5 1009,-266.5 1050,-266.5 1050,-245.5 1009,-245.5"/>
<text text-anchor="middle" x="1029.5" y="-252.9" font-family="Ubuntu Mono" font-size="12.00">pb3d</text>
</a>
</g>
</g>
<!-- Node434&#45;&gt;Node435 -->
<g id="edge3" class="edge"><title>Node434&#45;&gt;Node435</title>
<path fill="none" stroke="midnightblue" d="M959.003,-266.874C977.587,-263.966 995.83,-261.112 1008.96,-259.058"/>
<polygon fill="midnightblue" stroke="midnightblue" points="958.315,-263.439 948.977,-268.442 959.398,-270.354 958.315,-263.439"/>
</g>
<!-- Node437 -->
<g id="node6" class="node"><title>Node437</title>
<g id="a_node6"><a xlink:href="namespacedriver__x.html#ada3d72a0929daaa5e3da585246d62281" target="_top" xlink:title="Main driver of PB3D perturbation part. ">
<polygon fill="white" stroke="black" points="806,-222.5 806,-243.5 955,-243.5 955,-222.5 806,-222.5"/>
<text text-anchor="middle" x="880.5" y="-229.9" font-family="Ubuntu Mono" font-size="12.00">driver_x::run_driver_x</text>
</a>
</g>
</g>
<!-- Node436&#45;&gt;Node437 -->
<g id="edge5" class="edge"><title>Node436&#45;&gt;Node437</title>
<path fill="none" stroke="midnightblue" d="M756.331,-225.483C772.874,-226.492 789.968,-227.536 805.961,-228.512"/>
<polygon fill="midnightblue" stroke="midnightblue" points="756.311,-221.975 746.116,-224.859 755.884,-228.962 756.311,-221.975"/>
</g>
<!-- Node437&#45;&gt;Node435 -->
<g id="edge6" class="edge"><title>Node437&#45;&gt;Node435</title>
<path fill="none" stroke="midnightblue" d="M959.003,-245.126C977.587,-248.034 995.83,-250.888 1008.96,-252.942"/>
<polygon fill="midnightblue" stroke="midnightblue" points="959.398,-241.646 948.977,-243.558 958.315,-248.561 959.398,-241.646"/>
</g>
<!-- Node439&#45;&gt;Node438 -->
<g id="edge9" class="edge"><title>Node439&#45;&gt;Node438</title>
<path fill="none" stroke="midnightblue" d="M535.201,-66.4222C549.353,-68.0178 564.262,-69.6987 578.725,-71.3292"/>
<polygon fill="midnightblue" stroke="midnightblue" points="535.376,-62.9198 525.047,-65.2773 534.592,-69.8757 535.376,-62.9198"/>
</g>
<!-- Node440&#45;&gt;Node434 -->
<g id="edge11" class="edge"><title>Node440&#45;&gt;Node434</title>
<path fill="none" stroke="midnightblue" d="M708.063,-336.146C748.985,-322.505 810.596,-301.968 847.742,-289.586"/>
<polygon fill="midnightblue" stroke="midnightblue" points="706.768,-332.888 698.388,-339.371 708.982,-339.529 706.768,-332.888"/>
</g>
<!-- Node441 -->
<g id="node10" class="node"><title>Node441</title>
<g id="a_node10"><a xlink:href="namespacedriver__post.html#a33b3c6f9018a0ddc92dce77394b8ab37" target="_top" xlink:title="The main driver routine for postprocessing. ">
<polygon fill="white" stroke="black" points="788,-373.5 788,-394.5 973,-394.5 973,-373.5 788,-373.5"/>
<text text-anchor="middle" x="880.5" y="-380.9" font-family="Ubuntu Mono" font-size="12.00">driver_post::run_driver_post</text>
</a>
</g>
</g>
<!-- Node440&#45;&gt;Node441 -->
<g id="edge12" class="edge"><title>Node440&#45;&gt;Node441</title>
<path fill="none" stroke="midnightblue" d="M738.027,-361.417C762.442,-365.315 789.615,-369.652 813.569,-373.476"/>
<polygon fill="midnightblue" stroke="midnightblue" points="738.535,-357.954 728.108,-359.834 737.432,-364.867 738.535,-357.954"/>
</g>
<!-- Node442 -->
<g id="node11" class="node"><title>Node442</title>
<g id="a_node11"><a xlink:href="POST_8f90.html#ac289b64ac4671fea0b4f2298ba1188a1" target="_top" xlink:title="Peeling Ballooning in 3D: postprocessing. ">
<polygon fill="white" stroke="black" points="1009,-410.5 1009,-431.5 1050,-431.5 1050,-410.5 1009,-410.5"/>
<text text-anchor="middle" x="1029.5" y="-417.9" font-family="Ubuntu Mono" font-size="12.00">post</text>
</a>
</g>
</g>
<!-- Node441&#45;&gt;Node442 -->
<g id="edge13" class="edge"><title>Node441&#45;&gt;Node442</title>
<path fill="none" stroke="midnightblue" d="M933.013,-396.966C959.138,-403.542 989.345,-411.145 1008.67,-416.009"/>
<polygon fill="midnightblue" stroke="midnightblue" points="933.783,-393.551 923.231,-394.504 932.074,-400.339 933.783,-393.551"/>
</g>
<!-- Node444 -->
<g id="node13" class="node"><title>Node444</title>
<g id="a_node13"><a xlink:href="namespacedriver__sol.html#ad3b1765b3ecc5f82129bfc683ffc6c5c" target="_top" xlink:title="Main driver of PB3D solution part. ">
<polygon fill="white" stroke="black" points="794,-169.5 794,-190.5 967,-190.5 967,-169.5 794,-169.5"/>
<text text-anchor="middle" x="880.5" y="-176.9" font-family="Ubuntu Mono" font-size="12.00">driver_sol::run_driver_sol</text>
</a>
</g>
</g>
<!-- Node443&#45;&gt;Node444 -->
<g id="edge15" class="edge"><title>Node443&#45;&gt;Node444</title>
<path fill="none" stroke="midnightblue" d="M741.619,-175.469C758.499,-176.023 776.535,-176.616 793.81,-177.184"/>
<polygon fill="midnightblue" stroke="midnightblue" points="741.384,-171.959 731.275,-175.129 741.154,-178.955 741.384,-171.959"/>
</g>
<!-- Node444&#45;&gt;Node435 -->
<g id="edge16" class="edge"><title>Node444&#45;&gt;Node435</title>
<path fill="none" stroke="midnightblue" d="M928.985,-193.959C943.527,-199.062 959.293,-205.465 973,-213 989.449,-222.043 1006.19,-235.767 1016.92,-245.267"/>
<polygon fill="midnightblue" stroke="midnightblue" points="929.749,-190.522 919.154,-190.636 927.507,-197.154 929.749,-190.522"/>
</g>
<!-- Node445&#45;&gt;Node443 -->
<g id="edge18" class="edge"><title>Node445&#45;&gt;Node443</title>
<path fill="none" stroke="midnightblue" d="M541.348,-177.829C560.827,-177.066 581.381,-176.26 599.999,-175.529"/>
<polygon fill="midnightblue" stroke="midnightblue" points="541.132,-174.335 531.277,-178.224 541.406,-181.33 541.132,-174.335"/>
</g>
<!-- Node446&#45;&gt;Node435 -->
<g id="edge20" class="edge"><title>Node446&#45;&gt;Node435</title>
<path fill="none" stroke="midnightblue" d="M919.065,-443.033C937.454,-434.078 958.662,-421.085 973,-404 1008.99,-361.119 1022.86,-292.598 1027.01,-266.531"/>
<polygon fill="midnightblue" stroke="midnightblue" points="917.358,-439.967 909.757,-447.348 920.302,-446.317 917.358,-439.967"/>
</g>
<!-- Node446&#45;&gt;Node442 -->
<g id="edge21" class="edge"><title>Node446&#45;&gt;Node442</title>
<path fill="none" stroke="midnightblue" d="M933.013,-445.034C959.138,-438.458 989.345,-430.855 1008.67,-425.991"/>
<polygon fill="midnightblue" stroke="midnightblue" points="932.074,-441.661 923.231,-447.496 933.783,-448.449 932.074,-441.661"/>
</g>
<!-- Node447&#45;&gt;Node446 -->
<g id="edge23" class="edge"><title>Node447&#45;&gt;Node446</title>
<path fill="none" stroke="midnightblue" d="M738.166,-458C762.927,-458 790.512,-458 814.691,-458"/>
<polygon fill="midnightblue" stroke="midnightblue" points="738.108,-454.5 728.108,-458 738.108,-461.5 738.108,-454.5"/>
</g>
<!-- Node448&#45;&gt;Node446 -->
<g id="edge25" class="edge"><title>Node448&#45;&gt;Node446</title>
<path fill="none" stroke="midnightblue" d="M724.473,-423.792C758.166,-431.227 800.101,-440.48 831.858,-447.487"/>
<polygon fill="midnightblue" stroke="midnightblue" points="724.821,-420.285 714.301,-421.548 723.312,-427.12 724.821,-420.285"/>
</g>
<!-- Node449&#45;&gt;Node448 -->
<g id="edge27" class="edge"><title>Node449&#45;&gt;Node448</title>
<path fill="none" stroke="midnightblue" d="M496.561,-392.889C525.987,-396.062 568.227,-400.618 602.982,-404.366"/>
<polygon fill="midnightblue" stroke="midnightblue" points="496.654,-389.379 486.337,-391.786 495.904,-396.338 496.654,-389.379"/>
</g>
<!-- Node450&#45;&gt;Node446 -->
<g id="edge29" class="edge"><title>Node450&#45;&gt;Node446</title>
<path fill="none" stroke="midnightblue" d="M532.424,-582.464C592.831,-579.903 680.489,-571.179 752,-544 799.421,-525.977 846.684,-487.334 867.902,-468.607"/>
<polygon fill="midnightblue" stroke="midnightblue" points="532.083,-578.975 522.222,-582.849 532.347,-585.97 532.083,-578.975"/>
</g>
<!-- Node451&#45;&gt;Node446 -->
<g id="edge31" class="edge"><title>Node451&#45;&gt;Node446</title>
<path fill="none" stroke="midnightblue" d="M547.616,-543.523C606.287,-541.942 684.905,-536.043 752,-518 793.579,-506.819 838.251,-482.652 862.11,-468.64"/>
<polygon fill="midnightblue" stroke="midnightblue" points="547.186,-540.032 537.27,-543.763 547.349,-547.03 547.186,-540.032"/>
</g>
<!-- Node453 -->
<g id="node22" class="node"><title>Node453</title>
<g id="a_node22"><a xlink:href="namespacevac__ops.html#a37220702fbf378626a0f2c12f446e0aa" target="_top" xlink:title="Stores calculation of the vacuum response by storing the necessary variables. ">
<polygon fill="white" stroke="black" points="603,-290.5 603,-311.5 728,-311.5 728,-290.5 603,-290.5"/>
<text text-anchor="middle" x="665.5" y="-297.9" font-family="Ubuntu Mono" font-size="12.00">vac_ops::store_vac</text>
</a>
</g>
</g>
<!-- Node452&#45;&gt;Node453 -->
<g id="edge33" class="edge"><title>Node452&#45;&gt;Node453</title>
<path fill="none" stroke="midnightblue" d="M553.505,-302.632C570.18,-302.387 587.178,-302.137 602.699,-301.909"/>
<polygon fill="midnightblue" stroke="midnightblue" points="553.128,-299.137 543.181,-302.784 553.231,-306.137 553.128,-299.137"/>
</g>
<!-- Node453&#45;&gt;Node434 -->
<g id="edge34" class="edge"><title>Node453&#45;&gt;Node434</title>
<path fill="none" stroke="midnightblue" d="M738.263,-293.588C758.026,-291.547 779.582,-289.32 799.765,-287.235"/>
<polygon fill="midnightblue" stroke="midnightblue" points="737.696,-290.128 728.108,-294.637 738.415,-297.091 737.696,-290.128"/>
</g>
<!-- Node455 -->
<g id="node24" class="node"><title>Node455</title>
<g id="a_node24"><a xlink:href="interfacex__ops_1_1calc__x.html#a837126ca92e7f4d6821261c835b987d4" target="_top" xlink:title="vectorial version ">
<polygon fill="white" stroke="black" points="588,-0.5 588,-21.5 743,-21.5 743,-0.5 588,-0.5"/>
<text text-anchor="middle" x="665.5" y="-7.9" font-family="Ubuntu Mono" font-size="12.00">x_ops::calc_x::calc_x_1</text>
</a>
</g>
</g>
<!-- Node454&#45;&gt;Node455 -->
<g id="edge36" class="edge"><title>Node454&#45;&gt;Node455</title>
<path fill="none" stroke="midnightblue" d="M517.142,-11C538.99,-11 564.323,-11 587.758,-11"/>
<polygon fill="midnightblue" stroke="midnightblue" points="517.046,-7.5001 507.046,-11 517.046,-14.5001 517.046,-7.5001"/>
</g>
</g>
</svg>
