<?xml version="1.0" encoding="UTF-8" standalone="no"?>
<!DOCTYPE svg PUBLIC "-//W3C//DTD SVG 1.1//EN"
 "http://www.w3.org/Graphics/SVG/1.1/DTD/svg11.dtd">
<!-- Generated by graphviz version 2.38.0 (20140413.2041)
 -->
<!-- Title: vac_ops::solve_phi_bem Pages: 1 -->
<svg width="622pt" height="70pt"
 viewBox="0.00 0.00 622.00 70.00" xmlns="http://www.w3.org/2000/svg" xmlns:xlink="http://www.w3.org/1999/xlink">
<g id="graph0" class="graph" transform="scale(1 1) rotate(0) translate(4 66)">
<title>vac_ops::solve_phi_bem</title>
<polygon fill="white" stroke="none" points="-4,4 -4,-66 618,-66 618,4 -4,4"/>
<!-- Node139 -->
<g id="node1" class="node"><title>Node139</title>
<polygon fill="#bfbfbf" stroke="black" points="0,-20.5 0,-41.5 149,-41.5 149,-20.5 0,-20.5"/>
<text text-anchor="middle" x="74.5" y="-27.9" font-family="Ubuntu Mono" font-size="12.00">vac_ops::solve_phi_bem</text>
</g>
<!-- Node140 -->
<g id="node2" class="node"><title>Node140</title>
<g id="a_node2"><a xlink:href="namespacevac__ops.html#a5e5a8322b3aa2e3704b1050426f06d9d" target="_top" xlink:title="Calculates the vacuum response. ">
<polygon fill="white" stroke="black" points="185,-40.5 185,-61.5 328,-61.5 328,-40.5 185,-40.5"/>
<text text-anchor="middle" x="256.5" y="-47.9" font-family="Ubuntu Mono" font-size="12.00">vac_ops::calc_vac_res</text>
</a>
</g>
</g>
<!-- Node139&#45;&gt;Node140 -->
<g id="edge1" class="edge"><title>Node139&#45;&gt;Node140</title>
<path fill="none" stroke="midnightblue" d="M159.217,-40.3018C167.767,-41.2519 176.394,-42.2105 184.786,-43.1429"/>
<polygon fill="midnightblue" stroke="midnightblue" points="159.558,-36.8183 149.232,-39.1925 158.785,-43.7755 159.558,-36.8183"/>
</g>
<!-- Node143 -->
<g id="node5" class="node"><title>Node143</title>
<g id="a_node5"><a xlink:href="namespacevac__ops.html#a3a2a3aed45951aecef42197b82a5a6da" target="_top" xlink:title="Calculate vacuum potential at some positions that are not resonant. ">
<polygon fill="white" stroke="black" points="185,-0.5 185,-21.5 328,-21.5 328,-0.5 185,-0.5"/>
<text text-anchor="middle" x="256.5" y="-7.9" font-family="Ubuntu Mono" font-size="12.00">vac_ops::vac_pot_plot</text>
</a>
</g>
</g>
<!-- Node139&#45;&gt;Node143 -->
<g id="edge4" class="edge"><title>Node139&#45;&gt;Node143</title>
<path fill="none" stroke="midnightblue" d="M159.217,-21.6982C167.767,-20.7481 176.394,-19.7895 184.786,-18.8571"/>
<polygon fill="midnightblue" stroke="midnightblue" points="158.785,-18.2245 149.232,-22.8075 159.558,-25.1817 158.785,-18.2245"/>
</g>
<!-- Node141 -->
<g id="node3" class="node"><title>Node141</title>
<g id="a_node3"><a xlink:href="namespacedriver__sol.html#ad3b1765b3ecc5f82129bfc683ffc6c5c" target="_top" xlink:title="Main driver of PB3D solution part. ">
<polygon fill="white" stroke="black" points="364,-40.5 364,-61.5 537,-61.5 537,-40.5 364,-40.5"/>
<text text-anchor="middle" x="450.5" y="-47.9" font-family="Ubuntu Mono" font-size="12.00">driver_sol::run_driver_sol</text>
</a>
</g>
</g>
<!-- Node140&#45;&gt;Node141 -->
<g id="edge2" class="edge"><title>Node140&#45;&gt;Node141</title>
<path fill="none" stroke="midnightblue" d="M338.399,-51C346.86,-51 355.482,-51 363.993,-51"/>
<polygon fill="midnightblue" stroke="midnightblue" points="338.176,-47.5001 328.176,-51 338.176,-54.5001 338.176,-47.5001"/>
</g>
<!-- Node142 -->
<g id="node4" class="node"><title>Node142</title>
<g id="a_node4"><a xlink:href="PB3D_8f90.html#afaee01f014ab3398eecac996b2795fd2" target="_top" xlink:title="Peeling Ballooning in 3D. ">
<polygon fill="white" stroke="black" points="573,-40.5 573,-61.5 614,-61.5 614,-40.5 573,-40.5"/>
<text text-anchor="middle" x="593.5" y="-47.9" font-family="Ubuntu Mono" font-size="12.00">pb3d</text>
</a>
</g>
</g>
<!-- Node141&#45;&gt;Node142 -->
<g id="edge3" class="edge"><title>Node141&#45;&gt;Node142</title>
<path fill="none" stroke="midnightblue" d="M547.337,-51C556.873,-51 565.695,-51 572.964,-51"/>
<polygon fill="midnightblue" stroke="midnightblue" points="547.178,-47.5001 537.178,-51 547.178,-54.5001 547.178,-47.5001"/>
</g>
<!-- Node144 -->
<g id="node6" class="node"><title>Node144</title>
<g id="a_node6"><a xlink:href="namespacedriver__post.html#af527706d4e696d4e507443d2f74194ef" target="_top" xlink:title="Initializes the POST driver. ">
<polygon fill="white" stroke="black" points="376,-0.5 376,-21.5 525,-21.5 525,-0.5 376,-0.5"/>
<text text-anchor="middle" x="450.5" y="-7.9" font-family="Ubuntu Mono" font-size="12.00">driver_post::init_post</text>
</a>
</g>
</g>
<!-- Node143&#45;&gt;Node144 -->
<g id="edge5" class="edge"><title>Node143&#45;&gt;Node144</title>
<path fill="none" stroke="midnightblue" d="M338.468,-11C350.838,-11 363.55,-11 375.754,-11"/>
<polygon fill="midnightblue" stroke="midnightblue" points="338.176,-7.5001 328.176,-11 338.176,-14.5001 338.176,-7.5001"/>
</g>
<!-- Node145 -->
<g id="node7" class="node"><title>Node145</title>
<g id="a_node7"><a xlink:href="POST_8f90.html#ac289b64ac4671fea0b4f2298ba1188a1" target="_top" xlink:title="Peeling Ballooning in 3D: postprocessing. ">
<polygon fill="white" stroke="black" points="573,-0.5 573,-21.5 614,-21.5 614,-0.5 573,-0.5"/>
<text text-anchor="middle" x="593.5" y="-7.9" font-family="Ubuntu Mono" font-size="12.00">post</text>
</a>
</g>
</g>
<!-- Node144&#45;&gt;Node145 -->
<g id="edge6" class="edge"><title>Node144&#45;&gt;Node145</title>
<path fill="none" stroke="midnightblue" d="M535.546,-11C549.48,-11 562.68,-11 572.857,-11"/>
<polygon fill="midnightblue" stroke="midnightblue" points="535.304,-7.5001 525.304,-11 535.304,-14.5001 535.304,-7.5001"/>
</g>
</g>
</svg>
