<?xml version="1.0" encoding="UTF-8" standalone="no"?>
<!DOCTYPE svg PUBLIC "-//W3C//DTD SVG 1.1//EN"
 "http://www.w3.org/Graphics/SVG/1.1/DTD/svg11.dtd">
<!-- Generated by graphviz version 2.43.0 (0)
 -->
<!-- Title: hdf5_ops::create_output_hdf5 Pages: 1 -->
<svg width="725pt" height="110pt"
 viewBox="0.00 0.00 725.00 110.00" xmlns="http://www.w3.org/2000/svg" xmlns:xlink="http://www.w3.org/1999/xlink">
<g id="graph0" class="graph" transform="scale(1 1) rotate(0) translate(4 106)">
<title>hdf5_ops::create_output_hdf5</title>
<polygon fill="white" stroke="transparent" points="-4,4 -4,-106 721,-106 721,4 -4,4"/>
<!-- Node1 -->
<g id="node1" class="node">
<title>Node1</title>
<g id="a_node1"><a xlink:title="Creates an HDF5 output file.">
<polygon fill="#bfbfbf" stroke="black" points="0,-40.5 0,-61.5 194,-61.5 194,-40.5 0,-40.5"/>
<text text-anchor="middle" x="97" y="-47.9" font-family="Ubuntu Mono" font-size="12.00">hdf5_ops::create_output_hdf5</text>
</a>
</g>
</g>
<!-- Node2 -->
<g id="node2" class="node">
<title>Node2</title>
<g id="a_node2"><a xlink:href="namespacemessages.html#a6e6bfb084063e4cc91ee86e542043302" target="_top" xlink:title="Increases/decreases lvl of output.">
<polygon fill="white" stroke="black" points="230,-60.5 230,-81.5 348,-81.5 348,-60.5 230,-60.5"/>
<text text-anchor="middle" x="289" y="-67.9" font-family="Ubuntu Mono" font-size="12.00">messages::lvl_ud</text>
</a>
</g>
</g>
<!-- Node1&#45;&gt;Node2 -->
<g id="edge1" class="edge">
<title>Node1&#45;&gt;Node2</title>
<path fill="none" stroke="midnightblue" d="M194.11,-61.12C202.82,-62.03 211.51,-62.95 219.89,-63.83"/>
<polygon fill="midnightblue" stroke="midnightblue" points="219.64,-67.32 229.95,-64.89 220.37,-60.36 219.64,-67.32"/>
</g>
<!-- Node3 -->
<g id="node3" class="node">
<title>Node3</title>
<g id="a_node3"><a xlink:href="namespacemessages.html#aa4a8d01563e92558e8a0875b075ec54c" target="_top" xlink:title="Write output to file identified by output_i.">
<polygon fill="white" stroke="black" points="384,-40.5 384,-61.5 498,-61.5 498,-40.5 384,-40.5"/>
<text text-anchor="middle" x="441" y="-47.9" font-family="Ubuntu Mono" font-size="12.00">messages::writo</text>
</a>
</g>
</g>
<!-- Node1&#45;&gt;Node3 -->
<g id="edge6" class="edge">
<title>Node1&#45;&gt;Node3</title>
<path fill="none" stroke="midnightblue" d="M194.18,-51C251.29,-51 322.28,-51 373.26,-51"/>
<polygon fill="midnightblue" stroke="midnightblue" points="373.5,-54.5 383.5,-51 373.5,-47.5 373.5,-54.5"/>
</g>
<!-- Node2&#45;&gt;Node3 -->
<g id="edge2" class="edge">
<title>Node2&#45;&gt;Node3</title>
<path fill="none" stroke="midnightblue" d="M348.42,-63.21C356.82,-62.09 365.51,-60.93 374.04,-59.8"/>
<polygon fill="midnightblue" stroke="midnightblue" points="374.5,-63.26 383.95,-58.47 373.57,-56.33 374.5,-63.26"/>
</g>
<!-- Node4 -->
<g id="node4" class="node">
<title>Node4</title>
<g id="a_node4"><a xlink:href="namespacemessages.html#a61fd0b51b5e37d58fdc993c01792a3fd" target="_top" xlink:title="Returns the time.">
<polygon fill="white" stroke="black" points="555.5,-80.5 555.5,-101.5 695.5,-101.5 695.5,-80.5 555.5,-80.5"/>
<text text-anchor="middle" x="625.5" y="-87.9" font-family="Ubuntu Mono" font-size="12.00">messages::get_clock</text>
</a>
</g>
</g>
<!-- Node3&#45;&gt;Node4 -->
<g id="edge3" class="edge">
<title>Node3&#45;&gt;Node4</title>
<path fill="none" stroke="midnightblue" d="M489.95,-61.51C513.43,-66.66 541.9,-72.9 566.59,-78.31"/>
<polygon fill="midnightblue" stroke="midnightblue" points="566.04,-81.77 576.55,-80.49 567.54,-74.93 566.04,-81.77"/>
</g>
<!-- Node5 -->
<g id="node5" class="node">
<title>Node5</title>
<g id="a_node5"><a xlink:href="namespacemessages.html#a82dddaab795b78b3d39e1ff1aab2f665" target="_top" xlink:title="Returns the memory usage in kilobytes.">
<polygon fill="white" stroke="black" points="534,-40.5 534,-61.5 717,-61.5 717,-40.5 534,-40.5"/>
<text text-anchor="middle" x="625.5" y="-47.9" font-family="Ubuntu Mono" font-size="12.00">messages::get_mem_usage</text>
</a>
</g>
</g>
<!-- Node3&#45;&gt;Node5 -->
<g id="edge4" class="edge">
<title>Node3&#45;&gt;Node5</title>
<path fill="none" stroke="midnightblue" d="M498.25,-51C506.37,-51 514.94,-51 523.63,-51"/>
<polygon fill="midnightblue" stroke="midnightblue" points="523.86,-54.5 533.86,-51 523.86,-47.5 523.86,-54.5"/>
</g>
<!-- Node6 -->
<g id="node6" class="node">
<title>Node6</title>
<g id="a_node6"><a xlink:href="namespacestr__utilities.html#a0b97e51770725a3e98ed393d26681414" target="_top" xlink:title="Convert an integer to string.">
<polygon fill="white" stroke="black" points="568.5,-0.5 568.5,-21.5 682.5,-21.5 682.5,-0.5 568.5,-0.5"/>
<text text-anchor="middle" x="625.5" y="-7.9" font-family="Ubuntu Mono" font-size="12.00">str_utilities::i2str</text>
</a>
</g>
</g>
<!-- Node3&#45;&gt;Node6 -->
<g id="edge5" class="edge">
<title>Node3&#45;&gt;Node6</title>
<path fill="none" stroke="midnightblue" d="M489.95,-40.49C513.43,-35.34 541.9,-29.1 566.59,-23.69"/>
<polygon fill="midnightblue" stroke="midnightblue" points="567.54,-27.07 576.55,-21.51 566.04,-20.23 567.54,-27.07"/>
</g>
</g>
</svg>
