<?xml version="1.0" encoding="UTF-8" standalone="no"?>
<!DOCTYPE svg PUBLIC "-//W3C//DTD SVG 1.1//EN"
 "http://www.w3.org/Graphics/SVG/1.1/DTD/svg11.dtd">
<!-- Generated by graphviz version 2.38.0 (20140413.2041)
 -->
<!-- Title: vmec_ops::normalize_vmec Pages: 1 -->
<svg width="437pt" height="30pt"
 viewBox="0.00 0.00 437.00 30.00" xmlns="http://www.w3.org/2000/svg" xmlns:xlink="http://www.w3.org/1999/xlink">
<g id="graph0" class="graph" transform="scale(1 1) rotate(0) translate(4 26)">
<title>vmec_ops::normalize_vmec</title>
<polygon fill="white" stroke="none" points="-4,4 -4,-26 433,-26 433,4 -4,4"/>
<!-- Node1 -->
<g id="node1" class="node"><title>Node1</title>
<polygon fill="#bfbfbf" stroke="black" points="0,-0.5 0,-21.5 161,-21.5 161,-0.5 0,-0.5"/>
<text text-anchor="middle" x="80.5" y="-7.9" font-family="Ubuntu Mono" font-size="12.00">vmec_ops::normalize_vmec</text>
</g>
<!-- Node2 -->
<g id="node2" class="node"><title>Node2</title>
<g id="a_node2"><a xlink:href="namespaceeq__ops.html#a1b4c764da73624722d7e76498a2b80a9" target="_top" xlink:title="eq_ops::normalize_input">
<polygon fill="white" stroke="black" points="197,-0.5 197,-21.5 352,-21.5 352,-0.5 197,-0.5"/>
<text text-anchor="middle" x="274.5" y="-7.9" font-family="Ubuntu Mono" font-size="12.00">eq_ops::normalize_input</text>
</a>
</g>
</g>
<!-- Node1&#45;&gt;Node2 -->
<g id="edge1" class="edge"><title>Node1&#45;&gt;Node2</title>
<path fill="none" stroke="midnightblue" d="M171.509,-11C179.953,-11 188.459,-11 196.765,-11"/>
<polygon fill="midnightblue" stroke="midnightblue" points="171.257,-7.5001 161.257,-11 171.257,-14.5001 171.257,-7.5001"/>
</g>
<!-- Node3 -->
<g id="node3" class="node"><title>Node3</title>
<g id="a_node3"><a xlink:href="PB3D_8f90.html#afaee01f014ab3398eecac996b2795fd2" target="_top" xlink:title="pb3d">
<polygon fill="white" stroke="black" points="388,-0.5 388,-21.5 429,-21.5 429,-0.5 388,-0.5"/>
<text text-anchor="middle" x="408.5" y="-7.9" font-family="Ubuntu Mono" font-size="12.00">pb3d</text>
</a>
</g>
</g>
<!-- Node2&#45;&gt;Node3 -->
<g id="edge2" class="edge"><title>Node2&#45;&gt;Node3</title>
<path fill="none" stroke="midnightblue" d="M362.308,-11C371.742,-11 380.544,-11 387.827,-11"/>
<polygon fill="midnightblue" stroke="midnightblue" points="362.285,-7.5001 352.285,-11 362.285,-14.5001 362.285,-7.5001"/>
</g>
</g>
</svg>
