<?xml version="1.0" encoding="UTF-8" standalone="no"?>
<!DOCTYPE svg PUBLIC "-//W3C//DTD SVG 1.1//EN"
 "http://www.w3.org/Graphics/SVG/1.1/DTD/svg11.dtd">
<!-- Generated by graphviz version 2.43.0 (0)
 -->
<!-- Title: grid_ops::setup_grid_x Pages: 1 -->
<svg width="618pt" height="30pt"
 viewBox="0.00 0.00 618.00 30.00" xmlns="http://www.w3.org/2000/svg" xmlns:xlink="http://www.w3.org/1999/xlink">
<g id="graph0" class="graph" transform="scale(1 1) rotate(0) translate(4 26)">
<title>grid_ops::setup_grid_x</title>
<polygon fill="white" stroke="transparent" points="-4,4 -4,-26 614,-26 614,4 -4,4"/>
<!-- Node1 -->
<g id="node1" class="node">
<title>Node1</title>
<g id="a_node1"><a xlink:title="Sets up the general perturbation grid, in which the perturbation variables are calculated.">
<polygon fill="#bfbfbf" stroke="black" points="461,-0.5 461,-21.5 610,-21.5 610,-0.5 461,-0.5"/>
<text text-anchor="middle" x="535.5" y="-7.9" font-family="Ubuntu Mono" font-size="12.00">grid_ops::setup_grid_x</text>
</a>
</g>
</g>
<!-- Node2 -->
<g id="node2" class="node">
<title>Node2</title>
<g id="a_node2"><a xlink:href="namespacedriver__x.html#a2b82a9bc6c0f4af9f3468d03fedc008e" target="_top" xlink:title="part 0 of driver_x: perturbation grid as well as reconstruction of variables.">
<polygon fill="white" stroke="black" points="265,-0.5 265,-21.5 425,-21.5 425,-0.5 265,-0.5"/>
<text text-anchor="middle" x="345" y="-7.9" font-family="Ubuntu Mono" font-size="12.00">driver_x::run_driver_x_0</text>
</a>
</g>
</g>
<!-- Node1&#45;&gt;Node2 -->
<g id="edge1" class="edge">
<title>Node1&#45;&gt;Node2</title>
<path fill="none" stroke="midnightblue" d="M450.6,-11C442.17,-11 433.62,-11 425.24,-11"/>
<polygon fill="midnightblue" stroke="midnightblue" points="450.81,-14.5 460.81,-11 450.81,-7.5 450.81,-14.5"/>
</g>
<!-- Node3 -->
<g id="node3" class="node">
<title>Node3</title>
<g id="a_node3"><a xlink:href="namespacedriver__x.html#ada3d72a0929daaa5e3da585246d62281" target="_top" xlink:title="Main driver of PB3D perturbation part.">
<polygon fill="white" stroke="black" points="83,-0.5 83,-21.5 229,-21.5 229,-0.5 83,-0.5"/>
<text text-anchor="middle" x="156" y="-7.9" font-family="Ubuntu Mono" font-size="12.00">driver_x::run_driver_x</text>
</a>
</g>
</g>
<!-- Node2&#45;&gt;Node3 -->
<g id="edge2" class="edge">
<title>Node2&#45;&gt;Node3</title>
<path fill="none" stroke="midnightblue" d="M254.9,-11C246.29,-11 237.63,-11 229.21,-11"/>
<polygon fill="midnightblue" stroke="midnightblue" points="254.97,-14.5 264.97,-11 254.97,-7.5 254.97,-14.5"/>
</g>
<!-- Node4 -->
<g id="node4" class="node">
<title>Node4</title>
<g id="a_node4"><a xlink:href="PB3D_8f90.html#afaee01f014ab3398eecac996b2795fd2" target="_top" xlink:title="Peeling Ballooning in 3D.">
<polygon fill="white" stroke="black" points="0,-0.5 0,-21.5 47,-21.5 47,-0.5 0,-0.5"/>
<text text-anchor="middle" x="23.5" y="-7.9" font-family="Ubuntu Mono" font-size="12.00">pb3d</text>
</a>
</g>
</g>
<!-- Node3&#45;&gt;Node4 -->
<g id="edge3" class="edge">
<title>Node3&#45;&gt;Node4</title>
<path fill="none" stroke="midnightblue" d="M72.66,-11C63.39,-11 54.61,-11 47.15,-11"/>
<polygon fill="midnightblue" stroke="midnightblue" points="72.88,-14.5 82.88,-11 72.88,-7.5 72.88,-14.5"/>
</g>
</g>
</svg>
