<?xml version="1.0" encoding="UTF-8" standalone="no"?>
<!DOCTYPE svg PUBLIC "-//W3C//DTD SVG 1.1//EN"
 "http://www.w3.org/Graphics/SVG/1.1/DTD/svg11.dtd">
<!-- Generated by graphviz version 2.43.0 (0)
 -->
<!-- Title: files_ops::parse_args Pages: 1 -->
<svg width="231pt" height="70pt"
 viewBox="0.00 0.00 231.00 70.00" xmlns="http://www.w3.org/2000/svg" xmlns:xlink="http://www.w3.org/1999/xlink">
<g id="graph0" class="graph" transform="scale(1 1) rotate(0) translate(4 66)">
<title>files_ops::parse_args</title>
<polygon fill="white" stroke="transparent" points="-4,4 -4,-66 227,-66 227,4 -4,4"/>
<!-- Node1 -->
<g id="node1" class="node">
<title>Node1</title>
<g id="a_node1"><a xlink:title="Parses the command line arguments.">
<polygon fill="#bfbfbf" stroke="black" points="83,-20.5 83,-41.5 223,-41.5 223,-20.5 83,-20.5"/>
<text text-anchor="middle" x="153" y="-27.9" font-family="Ubuntu Mono" font-size="12.00">files_ops::parse_args</text>
</a>
</g>
</g>
<!-- Node2 -->
<g id="node2" class="node">
<title>Node2</title>
<g id="a_node2"><a xlink:href="PB3D_8f90.html#afaee01f014ab3398eecac996b2795fd2" target="_top" xlink:title="Peeling Ballooning in 3D.">
<polygon fill="white" stroke="black" points="0,-40.5 0,-61.5 47,-61.5 47,-40.5 0,-40.5"/>
<text text-anchor="middle" x="23.5" y="-47.9" font-family="Ubuntu Mono" font-size="12.00">pb3d</text>
</a>
</g>
</g>
<!-- Node1&#45;&gt;Node2 -->
<g id="edge1" class="edge">
<title>Node1&#45;&gt;Node2</title>
<path fill="none" stroke="midnightblue" d="M74.71,-43.12C64.65,-44.7 55.06,-46.21 47,-47.47"/>
<polygon fill="midnightblue" stroke="midnightblue" points="75.55,-46.53 84.89,-41.53 74.47,-39.62 75.55,-46.53"/>
</g>
<!-- Node3 -->
<g id="node3" class="node">
<title>Node3</title>
<g id="a_node3"><a xlink:href="POST_8f90.html#ac289b64ac4671fea0b4f2298ba1188a1" target="_top" xlink:title="Peeling Ballooning in 3D: postprocessing.">
<polygon fill="white" stroke="black" points="2.5,-0.5 2.5,-21.5 44.5,-21.5 44.5,-0.5 2.5,-0.5"/>
<text text-anchor="middle" x="23.5" y="-7.9" font-family="Ubuntu Mono" font-size="12.00">post</text>
</a>
</g>
</g>
<!-- Node1&#45;&gt;Node3 -->
<g id="edge2" class="edge">
<title>Node1&#45;&gt;Node3</title>
<path fill="none" stroke="midnightblue" d="M74.93,-18.91C63.73,-17.15 53.1,-15.49 44.51,-14.14"/>
<polygon fill="midnightblue" stroke="midnightblue" points="74.47,-22.38 84.89,-20.47 75.55,-15.47 74.47,-22.38"/>
</g>
</g>
</svg>
