<?xml version="1.0" encoding="UTF-8" standalone="no"?>
<!DOCTYPE svg PUBLIC "-//W3C//DTD SVG 1.1//EN"
 "http://www.w3.org/Graphics/SVG/1.1/DTD/svg11.dtd">
<!-- Generated by graphviz version 2.43.0 (0)
 -->
<!-- Title: vmec_utilities::calc_trigon_factors Pages: 1 -->
<svg width="506pt" height="110pt"
 viewBox="0.00 0.00 506.00 110.00" xmlns="http://www.w3.org/2000/svg" xmlns:xlink="http://www.w3.org/1999/xlink">
<g id="graph0" class="graph" transform="scale(1 1) rotate(0) translate(4 106)">
<title>vmec_utilities::calc_trigon_factors</title>
<polygon fill="white" stroke="transparent" points="-4,4 -4,-106 502,-106 502,4 -4,4"/>
<!-- Node1 -->
<g id="node1" class="node">
<title>Node1</title>
<g id="a_node1"><a xlink:title="Calculate the trigonometric cosine and sine factors.">
<polygon fill="#bfbfbf" stroke="black" points="0,-53 0,-87 129,-87 129,-53 0,-53"/>
<text text-anchor="start" x="8" y="-73.4" font-family="Ubuntu Mono" font-size="12.00">vmec_utilities::calc</text>
<text text-anchor="middle" x="64.5" y="-60.4" font-family="Ubuntu Mono" font-size="12.00">_trigon_factors</text>
</a>
</g>
</g>
<!-- Node2 -->
<g id="node2" class="node">
<title>Node2</title>
<g id="a_node2"><a xlink:href="namespacestr__utilities.html#a0b97e51770725a3e98ed393d26681414" target="_top" xlink:title="Convert an integer to string.">
<polygon fill="white" stroke="black" points="349.5,-80.5 349.5,-101.5 463.5,-101.5 463.5,-80.5 349.5,-80.5"/>
<text text-anchor="middle" x="406.5" y="-87.9" font-family="Ubuntu Mono" font-size="12.00">str_utilities::i2str</text>
</a>
</g>
</g>
<!-- Node1&#45;&gt;Node2 -->
<g id="edge1" class="edge">
<title>Node1&#45;&gt;Node2</title>
<path fill="none" stroke="midnightblue" d="M129.05,-73.93C188.92,-77.62 278.26,-83.14 339.05,-86.9"/>
<polygon fill="midnightblue" stroke="midnightblue" points="339.11,-90.41 349.31,-87.53 339.54,-83.42 339.11,-90.41"/>
</g>
<!-- Node3 -->
<g id="node3" class="node">
<title>Node3</title>
<g id="a_node3"><a xlink:href="namespacemessages.html#aa4a8d01563e92558e8a0875b075ec54c" target="_top" xlink:title="Write output to file identified by output_i.">
<polygon fill="white" stroke="black" points="165,-40.5 165,-61.5 279,-61.5 279,-40.5 165,-40.5"/>
<text text-anchor="middle" x="222" y="-47.9" font-family="Ubuntu Mono" font-size="12.00">messages::writo</text>
</a>
</g>
</g>
<!-- Node1&#45;&gt;Node3 -->
<g id="edge2" class="edge">
<title>Node1&#45;&gt;Node3</title>
<path fill="none" stroke="midnightblue" d="M129.2,-62.22C137.54,-61.2 146.12,-60.15 154.51,-59.12"/>
<polygon fill="midnightblue" stroke="midnightblue" points="155.13,-62.57 164.63,-57.89 154.28,-55.63 155.13,-62.57"/>
</g>
<!-- Node3&#45;&gt;Node2 -->
<g id="edge5" class="edge">
<title>Node3&#45;&gt;Node2</title>
<path fill="none" stroke="midnightblue" d="M270.95,-61.51C294.43,-66.66 322.9,-72.9 347.59,-78.31"/>
<polygon fill="midnightblue" stroke="midnightblue" points="347.04,-81.77 357.55,-80.49 348.54,-74.93 347.04,-81.77"/>
</g>
<!-- Node4 -->
<g id="node4" class="node">
<title>Node4</title>
<g id="a_node4"><a xlink:href="namespacemessages.html#a61fd0b51b5e37d58fdc993c01792a3fd" target="_top" xlink:title="Returns the time.">
<polygon fill="white" stroke="black" points="336.5,-40.5 336.5,-61.5 476.5,-61.5 476.5,-40.5 336.5,-40.5"/>
<text text-anchor="middle" x="406.5" y="-47.9" font-family="Ubuntu Mono" font-size="12.00">messages::get_clock</text>
</a>
</g>
</g>
<!-- Node3&#45;&gt;Node4 -->
<g id="edge3" class="edge">
<title>Node3&#45;&gt;Node4</title>
<path fill="none" stroke="midnightblue" d="M279.25,-51C294.02,-51 310.24,-51 325.99,-51"/>
<polygon fill="midnightblue" stroke="midnightblue" points="326.25,-54.5 336.25,-51 326.25,-47.5 326.25,-54.5"/>
</g>
<!-- Node5 -->
<g id="node5" class="node">
<title>Node5</title>
<g id="a_node5"><a xlink:href="namespacemessages.html#a82dddaab795b78b3d39e1ff1aab2f665" target="_top" xlink:title="Returns the memory usage in kilobytes.">
<polygon fill="white" stroke="black" points="315,-0.5 315,-21.5 498,-21.5 498,-0.5 315,-0.5"/>
<text text-anchor="middle" x="406.5" y="-7.9" font-family="Ubuntu Mono" font-size="12.00">messages::get_mem_usage</text>
</a>
</g>
</g>
<!-- Node3&#45;&gt;Node5 -->
<g id="edge4" class="edge">
<title>Node3&#45;&gt;Node5</title>
<path fill="none" stroke="midnightblue" d="M270.95,-40.49C294.43,-35.34 322.9,-29.1 347.59,-23.69"/>
<polygon fill="midnightblue" stroke="midnightblue" points="348.54,-27.07 357.55,-21.51 347.04,-20.23 348.54,-27.07"/>
</g>
</g>
</svg>
