<?xml version="1.0" encoding="UTF-8" standalone="no"?>
<!DOCTYPE svg PUBLIC "-//W3C//DTD SVG 1.1//EN"
 "http://www.w3.org/Graphics/SVG/1.1/DTD/svg11.dtd">
<!-- Generated by graphviz version 14.1.2 (20260124.0452)
 -->
<!-- Title: x_ops::init_modes Pages: 1 -->
<svg width="660pt" height="115pt"
 viewBox="0.00 0.00 660.00 115.00" xmlns="http://www.w3.org/2000/svg" xmlns:xlink="http://www.w3.org/1999/xlink">
<g id="graph0" class="graph" transform="scale(1 1) rotate(0) translate(4 110.75)">
<title>x_ops::init_modes</title>
<!-- Node1 -->
<g id="Node000001" class="node">
<title>Node1</title>
<g id="a_Node000001"><a xlink:title="Initializes some variables concerning the mode numbers.">
<polygon fill="#999999" stroke="#666666" points="118,-58.75 0,-58.75 0,-38 118,-38 118,-58.75"/>
<text xml:space="preserve" text-anchor="middle" x="59" y="-43.35" font-family="Ubuntu Mono" font-size="12.00">x_ops::init_modes</text>
</a>
</g>
</g>
<!-- Node2 -->
<g id="Node000002" class="node">
<title>Node2</title>
<g id="a_Node000002"><a xlink:href="namespacemessages.html#a6e6bfb084063e4cc91ee86e542043302" target="_top" xlink:title="Increases/decreases lvl of output.">
<polygon fill="white" stroke="#666666" points="293,-96.75 181,-96.75 181,-76 293,-76 293,-96.75"/>
<text xml:space="preserve" text-anchor="middle" x="237" y="-81.35" font-family="Ubuntu Mono" font-size="12.00">messages::lvl_ud</text>
</a>
</g>
</g>
<!-- Node1&#45;&gt;Node2 -->
<g id="edge1_Node000001_Node000002" class="edge">
<title>Node1&#45;&gt;Node2</title>
<g id="a_edge1_Node000001_Node000002"><a xlink:title=" ">
<path fill="none" stroke="#63b8ff" d="M109.96,-59.16C130.12,-63.51 153.58,-68.58 174.75,-73.15"/>
<polygon fill="#63b8ff" stroke="#63b8ff" points="173.92,-76.55 184.43,-75.24 175.4,-69.71 173.92,-76.55"/>
</a>
</g>
</g>
<!-- Node3 -->
<g id="Node000003" class="node">
<title>Node3</title>
<g id="a_Node000003"><a xlink:href="namespacemessages.html#aa4a8d01563e92558e8a0875b075ec54c" target="_top" xlink:title="Write output to file identified by output_i.">
<polygon fill="white" stroke="#666666" points="462,-77.75 356,-77.75 356,-57 462,-57 462,-77.75"/>
<text xml:space="preserve" text-anchor="middle" x="409" y="-62.35" font-family="Ubuntu Mono" font-size="12.00">messages::writo</text>
</a>
</g>
</g>
<!-- Node1&#45;&gt;Node3 -->
<g id="edge7_Node000001_Node000003" class="edge">
<title>Node1&#45;&gt;Node3</title>
<g id="a_edge7_Node000001_Node000003"><a xlink:title=" ">
<path fill="none" stroke="#63b8ff" d="M118.25,-51.56C180.76,-54.97 279.77,-60.37 344.31,-63.9"/>
<polygon fill="#63b8ff" stroke="#63b8ff" points="343.86,-67.38 354.04,-64.43 344.24,-60.39 343.86,-67.38"/>
</a>
</g>
</g>
<!-- Node6 -->
<g id="Node000006" class="node">
<title>Node6</title>
<g id="a_Node000006"><a xlink:href="namespacegrid__utilities.html#a67001ff9bbcad707aacf17f90a748d90" target="_top" xlink:title="Trim a grid, removing any overlap between the different regions.">
<polygon fill="white" stroke="#666666" points="320,-20.75 154,-20.75 154,0 320,0 320,-20.75"/>
<text xml:space="preserve" text-anchor="middle" x="237" y="-5.35" font-family="Ubuntu Mono" font-size="12.00">grid_utilities::trim_grid</text>
</a>
</g>
</g>
<!-- Node1&#45;&gt;Node6 -->
<g id="edge6_Node000001_Node000006" class="edge">
<title>Node1&#45;&gt;Node6</title>
<g id="a_edge6_Node000001_Node000006"><a xlink:title=" ">
<path fill="none" stroke="#63b8ff" d="M109.96,-37.59C130.12,-33.24 153.58,-28.17 174.75,-23.6"/>
<polygon fill="#63b8ff" stroke="#63b8ff" points="175.4,-27.04 184.43,-21.51 173.92,-20.2 175.4,-27.04"/>
</a>
</g>
</g>
<!-- Node2&#45;&gt;Node3 -->
<g id="edge2_Node000002_Node000003" class="edge">
<title>Node2&#45;&gt;Node3</title>
<g id="a_edge2_Node000002_Node000003"><a xlink:title=" ">
<path fill="none" stroke="#63b8ff" d="M293.19,-80.21C309.5,-78.38 327.48,-76.37 344.28,-74.5"/>
<polygon fill="#63b8ff" stroke="#63b8ff" points="344.63,-77.98 354.18,-73.39 343.85,-71.02 344.63,-77.98"/>
</a>
</g>
</g>
<!-- Node4 -->
<g id="Node000004" class="node">
<title>Node4</title>
<g id="a_Node000004"><a xlink:href="namespacemessages.html#a82dddaab795b78b3d39e1ff1aab2f665" target="_top" xlink:title="Returns the memory usage in kilobytes.">
<polygon fill="white" stroke="#666666" points="652,-106.75 498,-106.75 498,-86 652,-86 652,-106.75"/>
<text xml:space="preserve" text-anchor="middle" x="575" y="-91.35" font-family="Ubuntu Mono" font-size="12.00">messages::get_mem_usage</text>
</a>
</g>
</g>
<!-- Node3&#45;&gt;Node4 -->
<g id="edge3_Node000003_Node000004" class="edge">
<title>Node3&#45;&gt;Node4</title>
<g id="a_edge3_Node000003_Node000004"><a xlink:title=" ">
<path fill="none" stroke="#63b8ff" d="M462.34,-76.63C474.86,-78.85 488.45,-81.25 501.7,-83.59"/>
<polygon fill="#63b8ff" stroke="#63b8ff" points="500.77,-86.98 511.23,-85.28 501.99,-80.09 500.77,-86.98"/>
</a>
</g>
</g>
<!-- Node5 -->
<g id="Node000005" class="node">
<title>Node5</title>
<g id="a_Node000005"><a xlink:href="namespacestr__utilities.html#a0b97e51770725a3e98ed393d26681414" target="_top" xlink:title="Convert an integer to string.">
<polygon fill="white" stroke="#666666" points="643,-49.75 507,-49.75 507,-29 643,-29 643,-49.75"/>
<text xml:space="preserve" text-anchor="middle" x="575" y="-34.35" font-family="Ubuntu Mono" font-size="12.00">str_utilities::i2str</text>
</a>
</g>
</g>
<!-- Node3&#45;&gt;Node5 -->
<g id="edge4_Node000003_Node000005" class="edge">
<title>Node3&#45;&gt;Node5</title>
<g id="a_edge4_Node000003_Node000005"><a xlink:title=" ">
<path fill="none" stroke="#63b8ff" d="M462.34,-58.44C474.04,-56.44 486.67,-54.29 499.08,-52.17"/>
<polygon fill="#63b8ff" stroke="#63b8ff" points="499.62,-55.62 508.89,-50.49 498.45,-48.72 499.62,-55.62"/>
</a>
</g>
</g>
<!-- Node5&#45;&gt;Node5 -->
<g id="edge5_Node000005_Node000005" class="edge">
<title>Node5&#45;&gt;Node5</title>
<g id="a_edge5_Node000005_Node000005"><a xlink:title=" ">
<path fill="none" stroke="#63b8ff" d="M548.25,-50.15C537.55,-58.81 546.47,-67.75 575,-67.75 590.6,-67.75 600.34,-65.08 604.21,-61.24"/>
<polygon fill="#63b8ff" stroke="#63b8ff" points="607.66,-60.63 602.08,-51.62 600.83,-62.15 607.66,-60.63"/>
</a>
</g>
</g>
</g>
</svg>
