<?xml version="1.0" encoding="UTF-8" standalone="no"?>
<!DOCTYPE svg PUBLIC "-//W3C//DTD SVG 1.1//EN"
 "http://www.w3.org/Graphics/SVG/1.1/DTD/svg11.dtd">
<!-- Generated by graphviz version 2.38.0 (20140413.2041)
 -->
<!-- Title: eq_utilities::transf_deriv_3_arr Pages: 1 -->
<svg width="324pt" height="70pt"
 viewBox="0.00 0.00 324.00 70.00" xmlns="http://www.w3.org/2000/svg" xmlns:xlink="http://www.w3.org/1999/xlink">
<g id="graph0" class="graph" transform="scale(1 1) rotate(0) translate(4 66)">
<title>eq_utilities::transf_deriv_3_arr</title>
<polygon fill="white" stroke="none" points="-4,4 -4,-66 320,-66 320,4 -4,4"/>
<!-- Node61 -->
<g id="node1" class="node"><title>Node61</title>
<polygon fill="#bfbfbf" stroke="black" points="0,-14 0,-48 137,-48 137,-14 0,-14"/>
<text text-anchor="start" x="8" y="-34.4" font-family="Ubuntu Mono" font-size="12.00">eq_utilities::transf</text>
<text text-anchor="middle" x="68.5" y="-21.4" font-family="Ubuntu Mono" font-size="12.00">_deriv_3_arr</text>
</g>
<!-- Node62 -->
<g id="node2" class="node"><title>Node62</title>
<g id="a_node2"><a xlink:href="namespacenum__utilities.html#a4e6994b5c92b3d16c8538b54db0beadd" target="_top" xlink:title="num_utilities::is_sym">
<polygon fill="white" stroke="black" points="173,-40.5 173,-61.5 316,-61.5 316,-40.5 173,-40.5"/>
<text text-anchor="middle" x="244.5" y="-47.9" font-family="Ubuntu Mono" font-size="12.00">num_utilities::is_sym</text>
</a>
</g>
</g>
<!-- Node61&#45;&gt;Node62 -->
<g id="edge1" class="edge"><title>Node61&#45;&gt;Node62</title>
<path fill="none" stroke="midnightblue" d="M137.271,-38.7898C145.639,-39.7516 154.256,-40.742 162.792,-41.7232"/>
<polygon fill="midnightblue" stroke="midnightblue" points="162.421,-45.2035 172.755,-42.8684 163.22,-38.2493 162.421,-45.2035"/>
</g>
<!-- Node63 -->
<g id="node3" class="node"><title>Node63</title>
<g id="a_node3"><a xlink:href="namespacenum__utilities.html#a5ee3fbd1fe67d0deefc7194631389f2a" target="_top" xlink:title="num_utilities::c">
<polygon fill="white" stroke="black" points="188,-0.5 188,-21.5 301,-21.5 301,-0.5 188,-0.5"/>
<text text-anchor="middle" x="244.5" y="-7.9" font-family="Ubuntu Mono" font-size="12.00">num_utilities::c</text>
</a>
</g>
</g>
<!-- Node61&#45;&gt;Node63 -->
<g id="edge2" class="edge"><title>Node61&#45;&gt;Node63</title>
<path fill="none" stroke="midnightblue" d="M137.271,-23.2102C150.654,-21.6719 164.676,-20.0602 177.983,-18.5307"/>
<polygon fill="midnightblue" stroke="midnightblue" points="178.462,-21.9988 187.997,-17.3797 177.663,-15.0446 178.462,-21.9988"/>
</g>
</g>
</svg>
