<?xml version="1.0" encoding="UTF-8" standalone="no"?>
<!DOCTYPE svg PUBLIC "-//W3C//DTD SVG 1.1//EN"
 "http://www.w3.org/Graphics/SVG/1.1/DTD/svg11.dtd">
<!-- Generated by graphviz version 2.43.0 (0)
 -->
<!-- Title: driver_post::write_decomp_log Pages: 1 -->
<svg width="427pt" height="43pt"
 viewBox="0.00 0.00 427.00 43.00" xmlns="http://www.w3.org/2000/svg" xmlns:xlink="http://www.w3.org/1999/xlink">
<g id="graph0" class="graph" transform="scale(1 1) rotate(0) translate(4 39)">
<title>driver_post::write_decomp_log</title>
<polygon fill="white" stroke="transparent" points="-4,4 -4,-39 423,-39 423,4 -4,4"/>
<!-- Node1 -->
<g id="node1" class="node">
<title>Node1</title>
<g id="a_node1"><a xlink:title="Write to decomposition log file.">
<polygon fill="#bfbfbf" stroke="black" points="298,-0.5 298,-34.5 419,-34.5 419,-0.5 298,-0.5"/>
<text text-anchor="start" x="306" y="-20.9" font-family="Ubuntu Mono" font-size="12.00">driver_post::write</text>
<text text-anchor="middle" x="358.5" y="-7.9" font-family="Ubuntu Mono" font-size="12.00">_decomp_log</text>
</a>
</g>
</g>
<!-- Node2 -->
<g id="node2" class="node">
<title>Node2</title>
<g id="a_node2"><a xlink:href="namespacedriver__post.html#a33b3c6f9018a0ddc92dce77394b8ab37" target="_top" xlink:title="The main driver routine for postprocessing.">
<polygon fill="white" stroke="black" points="78,-7 78,-28 262,-28 262,-7 78,-7"/>
<text text-anchor="middle" x="170" y="-14.4" font-family="Ubuntu Mono" font-size="12.00">driver_post::run_driver_post</text>
</a>
</g>
</g>
<!-- Node1&#45;&gt;Node2 -->
<g id="edge1" class="edge">
<title>Node1&#45;&gt;Node2</title>
<path fill="none" stroke="midnightblue" d="M287.91,-17.5C279.53,-17.5 270.88,-17.5 262.25,-17.5"/>
<polygon fill="midnightblue" stroke="midnightblue" points="287.98,-21 297.98,-17.5 287.98,-14 287.98,-21"/>
</g>
<!-- Node3 -->
<g id="node3" class="node">
<title>Node3</title>
<g id="a_node3"><a xlink:href="POST_8f90.html#ac289b64ac4671fea0b4f2298ba1188a1" target="_top" xlink:title="Peeling Ballooning in 3D: postprocessing.">
<polygon fill="white" stroke="black" points="0,-7 0,-28 42,-28 42,-7 0,-7"/>
<text text-anchor="middle" x="21" y="-14.4" font-family="Ubuntu Mono" font-size="12.00">post</text>
</a>
</g>
</g>
<!-- Node2&#45;&gt;Node3 -->
<g id="edge2" class="edge">
<title>Node2&#45;&gt;Node3</title>
<path fill="none" stroke="midnightblue" d="M67.83,-17.5C58.3,-17.5 49.5,-17.5 42.21,-17.5"/>
<polygon fill="midnightblue" stroke="midnightblue" points="67.99,-21 77.99,-17.5 67.99,-14 67.99,-21"/>
</g>
</g>
</svg>
