<?xml version="1.0" encoding="UTF-8" standalone="no"?>
<!DOCTYPE svg PUBLIC "-//W3C//DTD SVG 1.1//EN"
 "http://www.w3.org/Graphics/SVG/1.1/DTD/svg11.dtd">
<!-- Generated by graphviz version 14.1.2 (20260124.0452)
 -->
<!-- Title: rich_ops::init_rich Pages: 1 -->
<svg width="1432pt" height="839pt"
 viewBox="0.00 0.00 1432.00 839.00" xmlns="http://www.w3.org/2000/svg" xmlns:xlink="http://www.w3.org/1999/xlink">
<g id="graph0" class="graph" transform="scale(1 1) rotate(0) translate(4 835.03)">
<title>rich_ops::init_rich</title>
<!-- Node1 -->
<g id="Node000001" class="node">
<title>Node1</title>
<g id="a_Node000001"><a xlink:title="Initialize Richardson extrapolation system.">
<polygon fill="#999999" stroke="#666666" points="130,-395.38 0,-395.38 0,-374.62 130,-374.62 130,-395.38"/>
<text xml:space="preserve" text-anchor="middle" x="65" y="-379.98" font-family="Ubuntu Mono" font-size="12.00">rich_ops::init_rich</text>
</a>
</g>
</g>
<!-- Node2 -->
<g id="Node000002" class="node">
<title>Node2</title>
<g id="a_Node000002"><a xlink:href="namespacerich__ops.html#ad2717df0206a397d0d7845a96aa5da23" target="_top" xlink:title="Calculates the coefficients of the Eigenvalues in the Richardson extrapolation.">
<polygon fill="white" stroke="#666666" points="881,-685.38 733,-685.38 733,-664.62 881,-664.62 881,-685.38"/>
<text xml:space="preserve" text-anchor="middle" x="807" y="-669.98" font-family="Ubuntu Mono" font-size="12.00">rich_ops::calc_rich_ex</text>
</a>
</g>
</g>
<!-- Node1&#45;&gt;Node2 -->
<g id="edge1_Node000001_Node000002" class="edge">
<title>Node1&#45;&gt;Node2</title>
<g id="a_edge1_Node000001_Node000002"><a xlink:title=" ">
<path fill="none" stroke="#63b8ff" d="M65.88,-395.58C66.03,-438.36 72.96,-599.37 166,-666 252.6,-728.02 568.38,-702.2 721.55,-685.32"/>
<polygon fill="#63b8ff" stroke="#63b8ff" points="721.68,-688.83 731.23,-684.24 720.91,-681.87 721.68,-688.83"/>
</a>
</g>
</g>
<!-- Node3 -->
<g id="Node000003" class="node">
<title>Node3</title>
<g id="a_Node000003"><a xlink:href="namespacestr__utilities.html#a0b97e51770725a3e98ed393d26681414" target="_top" xlink:title="Convert an integer to string.">
<polygon fill="white" stroke="#666666" points="1421,-465.38 1285,-465.38 1285,-444.62 1421,-444.62 1421,-465.38"/>
<text xml:space="preserve" text-anchor="middle" x="1353" y="-449.98" font-family="Ubuntu Mono" font-size="12.00">str_utilities::i2str</text>
</a>
</g>
</g>
<!-- Node1&#45;&gt;Node3 -->
<g id="edge9_Node000001_Node000003" class="edge">
<title>Node1&#45;&gt;Node3</title>
<g id="a_edge9_Node000001_Node000003"><a xlink:title=" ">
<path fill="none" stroke="#63b8ff" d="M66.78,-374.25C70.29,-333.45 88.06,-186.37 166,-104 248.15,-17.19 294.48,0 414,0 414,0 414,0 992,0 1122.88,0 1163.01,-47.8 1246,-149 1318.61,-237.54 1342.78,-378.89 1349.63,-432.97"/>
<polygon fill="#63b8ff" stroke="#63b8ff" points="1346.13,-433.2 1350.78,-442.72 1353.08,-432.38 1346.13,-433.2"/>
</a>
</g>
</g>
<!-- Node4 -->
<g id="Node000004" class="node">
<title>Node4</title>
<g id="a_Node000004"><a xlink:href="namespacestr__utilities.html#ac778d706b2e021672618939ab58fdd32" target="_top" xlink:title="Convert a real (double) to string.">
<polygon fill="white" stroke="#666666" points="1240,-707.38 1098,-707.38 1098,-686.62 1240,-686.62 1240,-707.38"/>
<text xml:space="preserve" text-anchor="middle" x="1169" y="-691.98" font-family="Ubuntu Mono" font-size="12.00">str_utilities::r2strt</text>
</a>
</g>
</g>
<!-- Node1&#45;&gt;Node4 -->
<g id="edge16_Node000001_Node000004" class="edge">
<title>Node1&#45;&gt;Node4</title>
<g id="a_edge16_Node000001_Node000004"><a xlink:title=" ">
<path fill="none" stroke="#63b8ff" d="M65.65,-395.83C64.84,-441.22 68.29,-617.44 166,-698 236.13,-755.82 859.55,-718.57 1086.14,-702.94"/>
<polygon fill="#63b8ff" stroke="#63b8ff" points="1086.35,-706.43 1096.09,-702.25 1085.87,-699.45 1086.35,-706.43"/>
</a>
</g>
</g>
<!-- Node5 -->
<g id="Node000005" class="node">
<title>Node5</title>
<g id="a_Node000005"><a xlink:href="namespacemessages.html#aa4a8d01563e92558e8a0875b075ec54c" target="_top" xlink:title="Write output to file identified by output_i.">
<polygon fill="white" stroke="#666666" points="1044,-391.38 938,-391.38 938,-370.62 1044,-370.62 1044,-391.38"/>
<text xml:space="preserve" text-anchor="middle" x="991" y="-375.98" font-family="Ubuntu Mono" font-size="12.00">messages::writo</text>
</a>
</g>
</g>
<!-- Node1&#45;&gt;Node5 -->
<g id="edge62_Node000001_Node000005" class="edge">
<title>Node1&#45;&gt;Node5</title>
<g id="a_edge62_Node000001_Node000005"><a xlink:title=" ">
<path fill="none" stroke="#63b8ff" d="M71.14,-374.36C98.24,-320.03 230.19,-76 414,-76 414,-76 414,-76 606,-76 734.74,-76 790.94,-50.78 890,-133 961.32,-192.2 982.22,-309.91 987.96,-358.85"/>
<polygon fill="#63b8ff" stroke="#63b8ff" points="984.48,-359.15 989.01,-368.73 991.44,-358.42 984.48,-359.15"/>
</a>
</g>
</g>
<!-- Node7 -->
<g id="Node000007" class="node">
<title>Node7</title>
<g id="a_Node000007"><a xlink:href="namespacex__ops.html#a73a80c582379669f8e07b09dd7456878" target="_top" xlink:title="Initializes some variables concerning the mode numbers.">
<polygon fill="white" stroke="#666666" points="474,-312.38 356,-312.38 356,-291.62 474,-291.62 474,-312.38"/>
<text xml:space="preserve" text-anchor="middle" x="415" y="-296.98" font-family="Ubuntu Mono" font-size="12.00">x_ops::init_modes</text>
</a>
</g>
</g>
<!-- Node1&#45;&gt;Node7 -->
<g id="edge10_Node000001_Node000007" class="edge">
<title>Node1&#45;&gt;Node7</title>
<g id="a_edge10_Node000001_Node000007"><a xlink:title=" ">
<path fill="none" stroke="#63b8ff" d="M79.62,-374.3C98.04,-360.48 132.46,-336.92 166,-326 224.1,-307.08 293.58,-301.74 344.2,-300.74"/>
<polygon fill="#63b8ff" stroke="#63b8ff" points="344.21,-304.24 354.16,-300.61 344.11,-297.24 344.21,-304.24"/>
</a>
</g>
</g>
<!-- Node8 -->
<g id="Node000008" class="node">
<title>Node8</title>
<g id="a_Node000008"><a xlink:href="namespacemessages.html#a6e6bfb084063e4cc91ee86e542043302" target="_top" xlink:title="Increases/decreases lvl of output.">
<polygon fill="white" stroke="#666666" points="863,-389.38 751,-389.38 751,-368.62 863,-368.62 863,-389.38"/>
<text xml:space="preserve" text-anchor="middle" x="807" y="-373.98" font-family="Ubuntu Mono" font-size="12.00">messages::lvl_ud</text>
</a>
</g>
</g>
<!-- Node1&#45;&gt;Node8 -->
<g id="edge15_Node000001_Node000008" class="edge">
<title>Node1&#45;&gt;Node8</title>
<g id="a_edge15_Node000001_Node000008"><a xlink:title=" ">
<path fill="none" stroke="#63b8ff" d="M130.48,-377.25C186.75,-370.9 270.64,-362.42 344,-359 484.6,-352.44 649.3,-364.24 739.15,-372.34"/>
<polygon fill="#63b8ff" stroke="#63b8ff" points="738.74,-375.81 749.02,-373.24 739.38,-368.84 738.74,-375.81"/>
</a>
</g>
</g>
<!-- Node10 -->
<g id="Node000010" class="node">
<title>Node10</title>
<g id="a_Node000010"><a xlink:href="namespacepb3d__ops.html#a3142ca9965fa01b2777db762ed1a6eba" target="_top" xlink:title="Reconstructs the equilibrium variables from PB3D HDF5 output.">
<polygon fill="white" stroke="#666666" points="308,-573.75 166,-573.75 166,-540.25 308,-540.25 308,-573.75"/>
<text xml:space="preserve" text-anchor="start" x="174" y="-558.35" font-family="Ubuntu Mono" font-size="12.00">pb3d_ops::reconstruct</text>
<text xml:space="preserve" text-anchor="middle" x="237" y="-545.6" font-family="Ubuntu Mono" font-size="12.00">_pb3d_eq_1</text>
</a>
</g>
</g>
<!-- Node1&#45;&gt;Node10 -->
<g id="edge17_Node000001_Node000010" class="edge">
<title>Node1&#45;&gt;Node10</title>
<g id="a_edge17_Node000001_Node000010"><a xlink:title=" ">
<path fill="none" stroke="#63b8ff" d="M72.37,-395.86C86.73,-419.66 123.69,-477.31 166,-515 173.85,-521.99 183.03,-528.46 192.1,-534.12"/>
<polygon fill="#63b8ff" stroke="#63b8ff" points="190.16,-537.04 200.54,-539.15 193.75,-531.02 190.16,-537.04"/>
</a>
</g>
</g>
<!-- Node19 -->
<g id="Node000019" class="node">
<title>Node19</title>
<g id="a_Node000019"><a xlink:href="namespacepb3d__ops.html#a4218b582c5029ff05893265fa329877b" target="_top" xlink:title="Reconstructs grid variables from PB3D HDF5 output.">
<polygon fill="white" stroke="#666666" points="308,-505.75 166,-505.75 166,-472.25 308,-472.25 308,-505.75"/>
<text xml:space="preserve" text-anchor="start" x="174" y="-490.35" font-family="Ubuntu Mono" font-size="12.00">pb3d_ops::reconstruct</text>
<text xml:space="preserve" text-anchor="middle" x="237" y="-477.6" font-family="Ubuntu Mono" font-size="12.00">_pb3d_grid</text>
</a>
</g>
</g>
<!-- Node1&#45;&gt;Node19 -->
<g id="edge36_Node000001_Node000019" class="edge">
<title>Node1&#45;&gt;Node19</title>
<g id="a_edge36_Node000001_Node000019"><a xlink:title=" ">
<path fill="none" stroke="#63b8ff" d="M83.55,-395.74C110.46,-412.2 162.53,-444.06 198.27,-465.92"/>
<polygon fill="#63b8ff" stroke="#63b8ff" points="196.23,-468.77 206.59,-471.01 199.88,-462.8 196.23,-468.77"/>
</a>
</g>
</g>
<!-- Node23 -->
<g id="Node000023" class="node">
<title>Node23</title>
<g id="a_Node000023"><a xlink:href="namespacepb3d__ops.html#ad1481747b9b9832f816d4bf1dd2d6737" target="_top" xlink:title="Reconstructs the input variables from PB3D HDF5 output.">
<polygon fill="white" stroke="#666666" points="486,-401.75 344,-401.75 344,-368.25 486,-368.25 486,-401.75"/>
<text xml:space="preserve" text-anchor="start" x="352" y="-386.35" font-family="Ubuntu Mono" font-size="12.00">pb3d_ops::reconstruct</text>
<text xml:space="preserve" text-anchor="middle" x="415" y="-373.6" font-family="Ubuntu Mono" font-size="12.00">_pb3d_in</text>
</a>
</g>
</g>
<!-- Node1&#45;&gt;Node23 -->
<g id="edge42_Node000001_Node000023" class="edge">
<title>Node1&#45;&gt;Node23</title>
<g id="a_edge42_Node000001_Node000023"><a xlink:title=" ">
<path fill="none" stroke="#63b8ff" d="M130.23,-385C187.18,-385 270.63,-385 332.31,-385"/>
<polygon fill="#63b8ff" stroke="#63b8ff" points="332.05,-388.5 342.05,-385 332.05,-381.5 332.05,-388.5"/>
</a>
</g>
</g>
<!-- Node24 -->
<g id="Node000024" class="node">
<title>Node24</title>
<g id="a_Node000024"><a xlink:href="namespacepb3d__ops.html#ae7afc544227f34f2877eb5a14d620823" target="_top" xlink:title="Reconstructs the solution variables from PB3D HDF5 output.">
<polygon fill="white" stroke="#666666" points="308,-656.75 166,-656.75 166,-623.25 308,-623.25 308,-656.75"/>
<text xml:space="preserve" text-anchor="start" x="174" y="-641.35" font-family="Ubuntu Mono" font-size="12.00">pb3d_ops::reconstruct</text>
<text xml:space="preserve" text-anchor="middle" x="237" y="-628.6" font-family="Ubuntu Mono" font-size="12.00">_pb3d_sol</text>
</a>
</g>
</g>
<!-- Node1&#45;&gt;Node24 -->
<g id="edge47_Node000001_Node000024" class="edge">
<title>Node1&#45;&gt;Node24</title>
<g id="a_edge47_Node000001_Node000024"><a xlink:title=" ">
<path fill="none" stroke="#63b8ff" d="M69.62,-395.78C80.49,-427.12 115.3,-519.99 166,-583 175.94,-595.36 188.96,-606.85 201.08,-616.24"/>
<polygon fill="#63b8ff" stroke="#63b8ff" points="198.78,-618.89 208.88,-622.07 202.97,-613.28 198.78,-618.89"/>
</a>
</g>
</g>
<!-- Node25 -->
<g id="Node000025" class="node">
<title>Node25</title>
<g id="a_Node000025"><a xlink:href="namespacex__ops.html#a640d64aeae8a574eb05f164c1bdad3bd" target="_top" xlink:title="Sets up some variables concerning the mode numbers.">
<polygon fill="white" stroke="#666666" points="477,-219.38 353,-219.38 353,-198.62 477,-198.62 477,-219.38"/>
<text xml:space="preserve" text-anchor="middle" x="415" y="-203.97" font-family="Ubuntu Mono" font-size="12.00">x_ops::setup_modes</text>
</a>
</g>
</g>
<!-- Node1&#45;&gt;Node25 -->
<g id="edge49_Node000001_Node000025" class="edge">
<title>Node1&#45;&gt;Node25</title>
<g id="a_edge49_Node000001_Node000025"><a xlink:title=" ">
<path fill="none" stroke="#63b8ff" d="M75.79,-374.19C92.63,-356.15 128.88,-319.76 166,-298 227.4,-262 305.77,-236.89 357.8,-222.72"/>
<polygon fill="#63b8ff" stroke="#63b8ff" points="358.59,-226.13 367.35,-220.17 356.79,-219.37 358.59,-226.13"/>
</a>
</g>
</g>
<!-- Node2&#45;&gt;Node3 -->
<g id="edge2_Node000002_Node000003" class="edge">
<title>Node2&#45;&gt;Node3</title>
<g id="a_edge2_Node000002_Node000003"><a xlink:title=" ">
<path fill="none" stroke="#63b8ff" d="M863.44,-664.19C949.13,-646.01 1117.28,-604.46 1246,-536 1278.63,-518.65 1311.76,-491.46 1332.1,-473.44"/>
<polygon fill="#63b8ff" stroke="#63b8ff" points="1334.28,-476.18 1339.37,-466.88 1329.6,-470.98 1334.28,-476.18"/>
</a>
</g>
</g>
<!-- Node2&#45;&gt;Node4 -->
<g id="edge4_Node000002_Node000004" class="edge">
<title>Node2&#45;&gt;Node4</title>
<g id="a_edge4_Node000002_Node000004"><a xlink:title=" ">
<path fill="none" stroke="#63b8ff" d="M881.29,-679.48C940.8,-683.12 1024.67,-688.24 1086.33,-692.01"/>
<polygon fill="#63b8ff" stroke="#63b8ff" points="1085.87,-695.49 1096.06,-692.6 1086.29,-688.5 1085.87,-695.49"/>
</a>
</g>
</g>
<!-- Node2&#45;&gt;Node5 -->
<g id="edge6_Node000002_Node000005" class="edge">
<title>Node2&#45;&gt;Node5</title>
<g id="a_edge6_Node000002_Node000005"><a xlink:title=" ">
<path fill="none" stroke="#63b8ff" d="M878.05,-664.14C882.35,-661.89 886.39,-659.2 890,-656 929.59,-620.94 970.92,-461.03 984.98,-402.52"/>
<polygon fill="#63b8ff" stroke="#63b8ff" points="988.31,-403.67 987.21,-393.13 981.5,-402.05 988.31,-403.67"/>
</a>
</g>
</g>
<!-- Node3&#45;&gt;Node3 -->
<g id="edge3_Node000003_Node000003" class="edge">
<title>Node3&#45;&gt;Node3</title>
<g id="a_edge3_Node000003_Node000003"><a xlink:title=" ">
<path fill="none" stroke="#63b8ff" d="M1323.35,-465.77C1311.49,-474.43 1321.38,-483.38 1353,-483.38 1370.29,-483.38 1381.09,-480.7 1385.38,-476.86"/>
<polygon fill="#63b8ff" stroke="#63b8ff" points="1388.8,-476.12 1383.01,-467.24 1382,-477.79 1388.8,-476.12"/>
</a>
</g>
</g>
<!-- Node4&#45;&gt;Node4 -->
<g id="edge5_Node000004_Node000004" class="edge">
<title>Node4&#45;&gt;Node4</title>
<g id="a_edge5_Node000004_Node000004"><a xlink:title=" ">
<path fill="none" stroke="#63b8ff" d="M1140.32,-707.77C1128.85,-716.43 1138.41,-725.38 1169,-725.38 1185.73,-725.38 1196.17,-722.7 1200.32,-718.86"/>
<polygon fill="#63b8ff" stroke="#63b8ff" points="1203.75,-718.16 1198.03,-709.24 1196.94,-719.78 1203.75,-718.16"/>
</a>
</g>
</g>
<!-- Node5&#45;&gt;Node3 -->
<g id="edge8_Node000005_Node000003" class="edge">
<title>Node5&#45;&gt;Node3</title>
<g id="a_edge8_Node000005_Node000003"><a xlink:title=" ">
<path fill="none" stroke="#63b8ff" d="M1044.35,-391.76C1108.91,-405.03 1218.61,-427.58 1288.08,-441.86"/>
<polygon fill="#63b8ff" stroke="#63b8ff" points="1287.31,-445.28 1297.81,-443.86 1288.72,-438.42 1287.31,-445.28"/>
</a>
</g>
</g>
<!-- Node6 -->
<g id="Node000006" class="node">
<title>Node6</title>
<g id="a_Node000006"><a xlink:href="namespacemessages.html#a82dddaab795b78b3d39e1ff1aab2f665" target="_top" xlink:title="Returns the memory usage in kilobytes.">
<polygon fill="white" stroke="#666666" points="1246,-391.38 1092,-391.38 1092,-370.62 1246,-370.62 1246,-391.38"/>
<text xml:space="preserve" text-anchor="middle" x="1169" y="-375.98" font-family="Ubuntu Mono" font-size="12.00">messages::get_mem_usage</text>
</a>
</g>
</g>
<!-- Node5&#45;&gt;Node6 -->
<g id="edge7_Node000005_Node000006" class="edge">
<title>Node5&#45;&gt;Node6</title>
<g id="a_edge7_Node000005_Node000006"><a xlink:title=" ">
<path fill="none" stroke="#63b8ff" d="M1044.33,-381C1055.73,-381 1068.1,-381 1080.45,-381"/>
<polygon fill="#63b8ff" stroke="#63b8ff" points="1080.26,-384.5 1090.25,-381 1080.25,-377.5 1080.26,-384.5"/>
</a>
</g>
</g>
<!-- Node7&#45;&gt;Node5 -->
<g id="edge14_Node000007_Node000005" class="edge">
<title>Node7&#45;&gt;Node5</title>
<g id="a_edge14_Node000007_Node000005"><a xlink:title=" ">
<path fill="none" stroke="#63b8ff" d="M474.3,-304.03C529.52,-306.44 614.66,-311.39 688,-321 778.66,-332.87 800.37,-341.94 890,-360 902.37,-362.49 915.6,-365.22 928.24,-367.87"/>
<polygon fill="#63b8ff" stroke="#63b8ff" points="927.17,-371.22 937.68,-369.85 928.61,-364.37 927.17,-371.22"/>
</a>
</g>
</g>
<!-- Node7&#45;&gt;Node8 -->
<g id="edge11_Node000007_Node000008" class="edge">
<title>Node7&#45;&gt;Node8</title>
<g id="a_edge11_Node000007_Node000008"><a xlink:title=" ">
<path fill="none" stroke="#63b8ff" d="M471.05,-312.87C541.75,-326.83 664.32,-351.03 739.97,-365.96"/>
<polygon fill="#63b8ff" stroke="#63b8ff" points="739.26,-369.39 749.74,-367.89 740.61,-362.52 739.26,-369.39"/>
</a>
</g>
</g>
<!-- Node9 -->
<g id="Node000009" class="node">
<title>Node9</title>
<g id="a_Node000009"><a xlink:href="namespacegrid__utilities.html#a67001ff9bbcad707aacf17f90a748d90" target="_top" xlink:title="Trim a grid, removing any overlap between the different regions.">
<polygon fill="white" stroke="#666666" points="688,-276.38 522,-276.38 522,-255.62 688,-255.62 688,-276.38"/>
<text xml:space="preserve" text-anchor="middle" x="605" y="-260.98" font-family="Ubuntu Mono" font-size="12.00">grid_utilities::trim_grid</text>
</a>
</g>
</g>
<!-- Node7&#45;&gt;Node9 -->
<g id="edge13_Node000007_Node000009" class="edge">
<title>Node7&#45;&gt;Node9</title>
<g id="a_edge13_Node000007_Node000009"><a xlink:title=" ">
<path fill="none" stroke="#63b8ff" d="M472.66,-291.15C492.73,-287.31 515.51,-282.94 536.4,-278.94"/>
<polygon fill="#63b8ff" stroke="#63b8ff" points="536.81,-282.43 545.97,-277.11 535.49,-275.56 536.81,-282.43"/>
</a>
</g>
</g>
<!-- Node8&#45;&gt;Node5 -->
<g id="edge12_Node000008_Node000005" class="edge">
<title>Node8&#45;&gt;Node5</title>
<g id="a_edge12_Node000008_Node000005"><a xlink:title=" ">
<path fill="none" stroke="#63b8ff" d="M863.1,-379.61C882.96,-379.82 905.53,-380.07 926.08,-380.3"/>
<polygon fill="#63b8ff" stroke="#63b8ff" points="926.03,-383.8 936.07,-380.41 926.11,-376.8 926.03,-383.8"/>
</a>
</g>
</g>
<!-- Node11 -->
<g id="Node000011" class="node">
<title>Node11</title>
<g id="a_Node000011"><a xlink:href="namespacehdf5__ops.html#ad14fad6af31ce64338c421cb9a8b5ac7" target="_top" xlink:title="Reads a PB3D output file in HDF5 format.">
<polygon fill="white" stroke="#666666" points="682,-596.38 528,-596.38 528,-575.62 682,-575.62 682,-596.38"/>
<text xml:space="preserve" text-anchor="middle" x="605" y="-580.98" font-family="Ubuntu Mono" font-size="12.00">hdf5_ops::read_hdf5_arr</text>
</a>
</g>
</g>
<!-- Node10&#45;&gt;Node11 -->
<g id="edge18_Node000010_Node000011" class="edge">
<title>Node10&#45;&gt;Node11</title>
<g id="a_edge18_Node000010_Node000011"><a xlink:title=" ">
<path fill="none" stroke="#63b8ff" d="M270.87,-574.18C291.31,-583.87 318.47,-595.02 344,-600 408.69,-612.62 484.03,-606.32 536.91,-598.57"/>
<polygon fill="#63b8ff" stroke="#63b8ff" points="537.32,-602.04 546.67,-597.07 536.26,-595.12 537.32,-602.04"/>
</a>
</g>
</g>
<!-- Node11&#45;&gt;Node3 -->
<g id="edge19_Node000011_Node000003" class="edge">
<title>Node11&#45;&gt;Node3</title>
<g id="a_edge19_Node000011_Node000003"><a xlink:title=" ">
<path fill="none" stroke="#63b8ff" d="M682.36,-576.57C802.86,-561.08 1044.18,-527.55 1246,-484 1265.61,-479.77 1287,-474.12 1305.4,-468.93"/>
<polygon fill="#63b8ff" stroke="#63b8ff" points="1306.31,-472.31 1314.97,-466.19 1304.39,-465.58 1306.31,-472.31"/>
</a>
</g>
</g>
<!-- Node11&#45;&gt;Node5 -->
<g id="edge35_Node000011_Node000005" class="edge">
<title>Node11&#45;&gt;Node5</title>
<g id="a_edge35_Node000011_Node000005"><a xlink:title=" ">
<path fill="none" stroke="#63b8ff" d="M614.21,-575.39C631.83,-553.37 675.63,-502.54 724,-476 790.81,-439.33 818.85,-460.31 890,-433 915.4,-423.25 942.7,-408.76 962.35,-397.55"/>
<polygon fill="#63b8ff" stroke="#63b8ff" points="963.94,-400.67 970.84,-392.62 960.43,-394.61 963.94,-400.67"/>
</a>
</g>
</g>
<!-- Node12 -->
<g id="Node000012" class="node">
<title>Node12</title>
<g id="a_Node000012"><a xlink:href="namespacehdf5__utilities.html#aa9d76166f970a7052cd0d96c8f3ee0be" target="_top" xlink:title="Lists all variables in a HDF5 group.">
<polygon fill="white" stroke="#666666" points="875,-518.75 739,-518.75 739,-485.25 875,-485.25 875,-518.75"/>
<text xml:space="preserve" text-anchor="start" x="747" y="-503.35" font-family="Ubuntu Mono" font-size="12.00">hdf5_utilities::list</text>
<text xml:space="preserve" text-anchor="middle" x="807" y="-490.6" font-family="Ubuntu Mono" font-size="12.00">_all_vars_in_group</text>
</a>
</g>
</g>
<!-- Node11&#45;&gt;Node12 -->
<g id="edge20_Node000011_Node000012" class="edge">
<title>Node11&#45;&gt;Node12</title>
<g id="a_edge20_Node000011_Node000012"><a xlink:title=" ">
<path fill="none" stroke="#63b8ff" d="M631.74,-575.19C662.66,-562.2 715.3,-540.1 754.64,-523.57"/>
<polygon fill="#63b8ff" stroke="#63b8ff" points="755.84,-526.86 763.71,-519.76 753.13,-520.41 755.84,-526.86"/>
</a>
</g>
</g>
<!-- Node13 -->
<g id="Node000013" class="node">
<title>Node13</title>
<g id="a_Node000013"><a xlink:href="namespacempi__utilities.html#a5a789d05be41d6109c01f46cc98620c8" target="_top" xlink:title="Request access to lock of a BL (blocking) or optionally a NB (non&#45;blocking) type.">
<polygon fill="white" stroke="#666666" points="872,-774.75 742,-774.75 742,-741.25 872,-741.25 872,-774.75"/>
<text xml:space="preserve" text-anchor="start" x="750" y="-759.35" font-family="Ubuntu Mono" font-size="12.00">mpi_utilities::lock</text>
<text xml:space="preserve" text-anchor="middle" x="807" y="-746.6" font-family="Ubuntu Mono" font-size="12.00">_req_acc</text>
</a>
</g>
</g>
<!-- Node11&#45;&gt;Node13 -->
<g id="edge23_Node000011_Node000013" class="edge">
<title>Node11&#45;&gt;Node13</title>
<g id="a_edge23_Node000011_Node000013"><a xlink:title=" ">
<path fill="none" stroke="#63b8ff" d="M617.13,-596.73C637.75,-616.49 683.5,-659.75 724,-694 740.1,-707.62 758.57,-722.13 773.9,-733.88"/>
<polygon fill="#63b8ff" stroke="#63b8ff" points="771.72,-736.61 781.79,-739.89 775.96,-731.05 771.72,-736.61"/>
</a>
</g>
</g>
<!-- Node17 -->
<g id="Node000017" class="node">
<title>Node17</title>
<g id="a_Node000017"><a xlink:href="namespacempi__utilities.html#a86f9982a0f92b51a916f832d9a3d8ba9" target="_top" xlink:title="Returns access to a lock.">
<polygon fill="white" stroke="#666666" points="872,-826.75 742,-826.75 742,-793.25 872,-793.25 872,-826.75"/>
<text xml:space="preserve" text-anchor="start" x="750" y="-811.35" font-family="Ubuntu Mono" font-size="12.00">mpi_utilities::lock</text>
<text xml:space="preserve" text-anchor="middle" x="807" y="-798.6" font-family="Ubuntu Mono" font-size="12.00">_return_acc</text>
</a>
</g>
</g>
<!-- Node11&#45;&gt;Node17 -->
<g id="edge31_Node000011_Node000017" class="edge">
<title>Node11&#45;&gt;Node17</title>
<g id="a_edge31_Node000011_Node000017"><a xlink:title=" ">
<path fill="none" stroke="#63b8ff" d="M609.37,-596.87C620.22,-630.1 657.51,-731.31 724,-784 726.44,-785.93 729.03,-787.72 731.72,-789.38"/>
<polygon fill="#63b8ff" stroke="#63b8ff" points="730.06,-792.47 740.53,-794.11 733.37,-786.3 730.06,-792.47"/>
</a>
</g>
</g>
<!-- Node18 -->
<g id="Node000018" class="node">
<title>Node18</title>
<g id="a_Node000018"><a xlink:href="namespacehdf5__utilities.html#a7574320980affc30a584f7776d33a51c" target="_top" xlink:title="Sets up the chunk property list and/or the 1D hyperslabs that correspond to a local subset of lim_tot...">
<polygon fill="white" stroke="#666666" points="872,-646.75 742,-646.75 742,-613.25 872,-613.25 872,-646.75"/>
<text xml:space="preserve" text-anchor="start" x="750" y="-631.35" font-family="Ubuntu Mono" font-size="12.00">hdf5_utilities::set</text>
<text xml:space="preserve" text-anchor="middle" x="807" y="-618.6" font-family="Ubuntu Mono" font-size="12.00">_1d_vars</text>
</a>
</g>
</g>
<!-- Node11&#45;&gt;Node18 -->
<g id="edge34_Node000011_Node000018" class="edge">
<title>Node11&#45;&gt;Node18</title>
<g id="a_edge34_Node000011_Node000018"><a xlink:title=" ">
<path fill="none" stroke="#63b8ff" d="M655.18,-596.82C677.95,-601.83 705.51,-607.89 730.81,-613.46"/>
<polygon fill="#63b8ff" stroke="#63b8ff" points="729.87,-616.83 740.39,-615.56 731.37,-610 729.87,-616.83"/>
</a>
</g>
</g>
<!-- Node12&#45;&gt;Node3 -->
<g id="edge21_Node000012_Node000003" class="edge">
<title>Node12&#45;&gt;Node3</title>
<g id="a_edge21_Node000012_Node000003"><a xlink:title=" ">
<path fill="none" stroke="#63b8ff" d="M875.25,-496.19C976.19,-487.47 1166.4,-471.03 1273.53,-461.78"/>
<polygon fill="#63b8ff" stroke="#63b8ff" points="1273.73,-465.28 1283.4,-460.93 1273.13,-458.3 1273.73,-465.28"/>
</a>
</g>
</g>
<!-- Node12&#45;&gt;Node5 -->
<g id="edge22_Node000012_Node000005" class="edge">
<title>Node12&#45;&gt;Node5</title>
<g id="a_edge22_Node000012_Node000005"><a xlink:title=" ">
<path fill="none" stroke="#63b8ff" d="M862.28,-484.75C871.82,-480.82 881.42,-476.23 890,-471 922.52,-451.19 954.18,-420.11 972.88,-400.15"/>
<polygon fill="#63b8ff" stroke="#63b8ff" points="975.3,-402.69 979.49,-392.96 970.15,-397.95 975.3,-402.69"/>
</a>
</g>
</g>
<!-- Node14 -->
<g id="Node000014" class="node">
<title>Node14</title>
<g id="a_Node000014"><a xlink:href="namespacempi__utilities.html#abe5bf3ae3b6a06eda18c2f4d62ac09c5" target="_top" xlink:title="Returns the header for lock debug messages.">
<polygon fill="white" stroke="#666666" points="1234,-782.75 1104,-782.75 1104,-749.25 1234,-749.25 1234,-782.75"/>
<text xml:space="preserve" text-anchor="start" x="1112" y="-767.35" font-family="Ubuntu Mono" font-size="12.00">mpi_utilities::lock</text>
<text xml:space="preserve" text-anchor="middle" x="1169" y="-754.6" font-family="Ubuntu Mono" font-size="12.00">_header</text>
</a>
</g>
</g>
<!-- Node13&#45;&gt;Node14 -->
<g id="edge24_Node000013_Node000014" class="edge">
<title>Node13&#45;&gt;Node14</title>
<g id="a_edge24_Node000013_Node000014"><a xlink:title=" ">
<path fill="none" stroke="#63b8ff" d="M872.36,-759.43C933.99,-760.8 1026.97,-762.87 1092.16,-764.31"/>
<polygon fill="#63b8ff" stroke="#63b8ff" points="1092,-767.81 1102.08,-764.54 1092.16,-760.81 1092,-767.81"/>
</a>
</g>
</g>
<!-- Node16 -->
<g id="Node000016" class="node">
<title>Node16</title>
<g id="a_Node000016"><a xlink:href="namespacempi__utilities.html#a3b0349e5ec825e14083e3126c3e7ba65" target="_top" xlink:title="Adds, removes or sets to active a rank from the waiting list for a lock and returns the lock waiting ...">
<polygon fill="white" stroke="#666666" points="1056,-812.75 926,-812.75 926,-779.25 1056,-779.25 1056,-812.75"/>
<text xml:space="preserve" text-anchor="start" x="934" y="-797.35" font-family="Ubuntu Mono" font-size="12.00">mpi_utilities::lock</text>
<text xml:space="preserve" text-anchor="middle" x="991" y="-784.6" font-family="Ubuntu Mono" font-size="12.00">_wl_change</text>
</a>
</g>
</g>
<!-- Node13&#45;&gt;Node16 -->
<g id="edge28_Node000013_Node000016" class="edge">
<title>Node13&#45;&gt;Node16</title>
<g id="a_edge28_Node000013_Node000016"><a xlink:title=" ">
<path fill="none" stroke="#63b8ff" d="M872.42,-771.45C886.06,-774.3 900.57,-777.33 914.57,-780.25"/>
<polygon fill="#63b8ff" stroke="#63b8ff" points="913.68,-783.64 924.18,-782.26 915.11,-776.79 913.68,-783.64"/>
</a>
</g>
</g>
<!-- Node14&#45;&gt;Node3 -->
<g id="edge25_Node000014_Node000003" class="edge">
<title>Node14&#45;&gt;Node3</title>
<g id="a_edge25_Node000014_Node000003"><a xlink:title=" ">
<path fill="none" stroke="#63b8ff" d="M1225.72,-748.91C1233.18,-744.88 1240.23,-739.97 1246,-734 1318.65,-658.73 1342.64,-528.66 1349.53,-477.04"/>
<polygon fill="#63b8ff" stroke="#63b8ff" points="1353,-477.54 1350.75,-467.18 1346.05,-476.68 1353,-477.54"/>
</a>
</g>
</g>
<!-- Node15 -->
<g id="Node000015" class="node">
<title>Node15</title>
<g id="a_Node000015"><a xlink:href="namespacestr__utilities.html#acb8c4e66aead51f178e47fdea8d7a7db" target="_top" xlink:title="Convert an integer to string.">
<polygon fill="white" stroke="#666666" points="1424,-776.38 1282,-776.38 1282,-755.62 1424,-755.62 1424,-776.38"/>
<text xml:space="preserve" text-anchor="middle" x="1353" y="-760.98" font-family="Ubuntu Mono" font-size="12.00">str_utilities::ii2str</text>
</a>
</g>
</g>
<!-- Node14&#45;&gt;Node15 -->
<g id="edge26_Node000014_Node000015" class="edge">
<title>Node14&#45;&gt;Node15</title>
<g id="a_edge26_Node000014_Node000015"><a xlink:title=" ">
<path fill="none" stroke="#63b8ff" d="M1234.42,-766C1246.05,-766 1258.3,-766 1270.34,-766"/>
<polygon fill="#63b8ff" stroke="#63b8ff" points="1270.27,-769.5 1280.27,-766 1270.27,-762.5 1270.27,-769.5"/>
</a>
</g>
</g>
<!-- Node15&#45;&gt;Node15 -->
<g id="edge27_Node000015_Node000015" class="edge">
<title>Node15&#45;&gt;Node15</title>
<g id="a_edge27_Node000015_Node000015"><a xlink:title=" ">
<path fill="none" stroke="#63b8ff" d="M1323.35,-776.77C1311.49,-785.43 1321.38,-794.38 1353,-794.38 1370.29,-794.38 1381.09,-791.7 1385.38,-787.86"/>
<polygon fill="#63b8ff" stroke="#63b8ff" points="1388.8,-787.12 1383.01,-778.24 1382,-788.79 1388.8,-787.12"/>
</a>
</g>
</g>
<!-- Node16&#45;&gt;Node4 -->
<g id="edge30_Node000016_Node000004" class="edge">
<title>Node16&#45;&gt;Node4</title>
<g id="a_edge30_Node000016_Node000004"><a xlink:title=" ">
<path fill="none" stroke="#63b8ff" d="M1022.66,-778.76C1055.54,-760.26 1107.34,-731.12 1139.4,-713.09"/>
<polygon fill="#63b8ff" stroke="#63b8ff" points="1140.75,-716.34 1147.75,-708.39 1137.32,-710.24 1140.75,-716.34"/>
</a>
</g>
</g>
<!-- Node16&#45;&gt;Node14 -->
<g id="edge29_Node000016_Node000014" class="edge">
<title>Node16&#45;&gt;Node14</title>
<g id="a_edge29_Node000016_Node000014"><a xlink:title=" ">
<path fill="none" stroke="#63b8ff" d="M1056.04,-785.08C1067.93,-783.06 1080.45,-780.92 1092.64,-778.85"/>
<polygon fill="#63b8ff" stroke="#63b8ff" points="1092.95,-782.34 1102.22,-777.21 1091.78,-775.44 1092.95,-782.34"/>
</a>
</g>
</g>
<!-- Node17&#45;&gt;Node14 -->
<g id="edge32_Node000017_Node000014" class="edge">
<title>Node17&#45;&gt;Node14</title>
<g id="a_edge32_Node000017_Node000014"><a xlink:title=" ">
<path fill="none" stroke="#63b8ff" d="M872.35,-822.79C922.95,-830.54 994.85,-836.43 1056,-822 1083.27,-815.56 1111.48,-801.41 1132.76,-788.94"/>
<polygon fill="#63b8ff" stroke="#63b8ff" points="1134.57,-791.94 1141.32,-783.78 1130.95,-785.95 1134.57,-791.94"/>
</a>
</g>
</g>
<!-- Node17&#45;&gt;Node16 -->
<g id="edge33_Node000017_Node000016" class="edge">
<title>Node17&#45;&gt;Node16</title>
<g id="a_edge33_Node000017_Node000016"><a xlink:title=" ">
<path fill="none" stroke="#63b8ff" d="M872.42,-805.04C886.06,-804 900.57,-802.88 914.57,-801.8"/>
<polygon fill="#63b8ff" stroke="#63b8ff" points="914.45,-805.32 924.15,-801.07 913.92,-798.34 914.45,-805.32"/>
</a>
</g>
</g>
<!-- Node19&#45;&gt;Node11 -->
<g id="edge39_Node000019_Node000011" class="edge">
<title>Node19&#45;&gt;Node11</title>
<g id="a_edge39_Node000019_Node000011"><a xlink:title=" ">
<path fill="none" stroke="#63b8ff" d="M270.44,-506.24C282.65,-513.3 296.38,-521.93 308,-531 325.84,-544.93 323.42,-557.58 344,-567 397.68,-591.56 464.15,-596.03 516.45,-594.5"/>
<polygon fill="#63b8ff" stroke="#63b8ff" points="516.35,-598.01 526.21,-594.13 516.08,-591.01 516.35,-598.01"/>
</a>
</g>
</g>
<!-- Node20 -->
<g id="Node000020" class="node">
<title>Node20</title>
<g id="a_Node000020"><a xlink:href="namespacepb3d__ops.html#a528ae2857b7272d29d96f66ee60980a7" target="_top" xlink:title="get grid size">
<polygon fill="white" stroke="#666666" points="477,-453.75 353,-453.75 353,-420.25 477,-420.25 477,-453.75"/>
<text xml:space="preserve" text-anchor="start" x="361" y="-438.35" font-family="Ubuntu Mono" font-size="12.00">pb3d_ops::get_pb3d</text>
<text xml:space="preserve" text-anchor="middle" x="415" y="-425.6" font-family="Ubuntu Mono" font-size="12.00">_grid_size</text>
</a>
</g>
</g>
<!-- Node19&#45;&gt;Node20 -->
<g id="edge37_Node000019_Node000020" class="edge">
<title>Node19&#45;&gt;Node20</title>
<g id="a_edge37_Node000019_Node000020"><a xlink:title=" ">
<path fill="none" stroke="#63b8ff" d="M296.12,-471.83C311.66,-467.24 328.6,-462.23 344.68,-457.48"/>
<polygon fill="#63b8ff" stroke="#63b8ff" points="345.59,-460.86 354.19,-454.67 343.61,-454.15 345.59,-460.86"/>
</a>
</g>
</g>
<!-- Node21 -->
<g id="Node000021" class="node">
<title>Node21</title>
<g id="a_Node000021"><a xlink:href="namespacepb3d__utilities.html#ad047cd7b197aae821e2565933faccfa3" target="_top" xlink:title="Setup parallel id.">
<polygon fill="white" stroke="#666666" points="486,-557.75 344,-557.75 344,-524.25 486,-524.25 486,-557.75"/>
<text xml:space="preserve" text-anchor="start" x="352" y="-542.35" font-family="Ubuntu Mono" font-size="12.00">pb3d_utilities::setup</text>
<text xml:space="preserve" text-anchor="middle" x="415" y="-529.6" font-family="Ubuntu Mono" font-size="12.00">_par_id</text>
</a>
</g>
</g>
<!-- Node19&#45;&gt;Node21 -->
<g id="edge40_Node000019_Node000021" class="edge">
<title>Node19&#45;&gt;Node21</title>
<g id="a_edge40_Node000019_Node000021"><a xlink:title=" ">
<path fill="none" stroke="#63b8ff" d="M296.12,-506.17C311.66,-510.76 328.6,-515.77 344.68,-520.52"/>
<polygon fill="#63b8ff" stroke="#63b8ff" points="343.61,-523.85 354.19,-523.33 345.59,-517.14 343.61,-523.85"/>
</a>
</g>
</g>
<!-- Node22 -->
<g id="Node000022" class="node">
<title>Node22</title>
<g id="a_Node000022"><a xlink:href="namespacepb3d__utilities.html#ab461e756a85b3c6e8fa1ccaa6556c5b0" target="_top" xlink:title="Returns richardson id.">
<polygon fill="white" stroke="#666666" points="486,-505.75 344,-505.75 344,-472.25 486,-472.25 486,-505.75"/>
<text xml:space="preserve" text-anchor="start" x="352" y="-490.35" font-family="Ubuntu Mono" font-size="12.00">pb3d_utilities::setup</text>
<text xml:space="preserve" text-anchor="middle" x="415" y="-477.6" font-family="Ubuntu Mono" font-size="12.00">_rich_id</text>
</a>
</g>
</g>
<!-- Node19&#45;&gt;Node22 -->
<g id="edge41_Node000019_Node000022" class="edge">
<title>Node19&#45;&gt;Node22</title>
<g id="a_edge41_Node000019_Node000022"><a xlink:title=" ">
<path fill="none" stroke="#63b8ff" d="M308.32,-489C316.19,-489 324.26,-489 332.27,-489"/>
<polygon fill="#63b8ff" stroke="#63b8ff" points="331.99,-492.5 341.99,-489 331.99,-485.5 331.99,-492.5"/>
</a>
</g>
</g>
<!-- Node20&#45;&gt;Node11 -->
<g id="edge38_Node000020_Node000011" class="edge">
<title>Node20&#45;&gt;Node11</title>
<g id="a_edge38_Node000020_Node000011"><a xlink:title=" ">
<path fill="none" stroke="#63b8ff" d="M474.6,-454.07C478.75,-456.64 482.61,-459.6 486,-463 518.75,-495.87 488.28,-529.12 522,-561 525.75,-564.55 529.99,-567.59 534.52,-570.2"/>
<polygon fill="#63b8ff" stroke="#63b8ff" points="532.94,-573.33 543.45,-574.6 536.02,-567.04 532.94,-573.33"/>
</a>
</g>
</g>
<!-- Node23&#45;&gt;Node4 -->
<g id="edge44_Node000023_Node000004" class="edge">
<title>Node23&#45;&gt;Node4</title>
<g id="a_edge44_Node000023_Node000004"><a xlink:title=" ">
<path fill="none" stroke="#63b8ff" d="M464.08,-402.12C471.47,-404.97 478.97,-407.98 486,-411 513.07,-422.64 696.98,-516.25 724,-528 869.37,-591.24 1046.74,-654.78 1126.11,-682.53"/>
<polygon fill="#63b8ff" stroke="#63b8ff" points="1124.62,-685.72 1135.22,-685.7 1126.93,-679.11 1124.62,-685.72"/>
</a>
</g>
</g>
<!-- Node23&#45;&gt;Node5 -->
<g id="edge46_Node000023_Node000005" class="edge">
<title>Node23&#45;&gt;Node5</title>
<g id="a_edge46_Node000023_Node000005"><a xlink:title=" ">
<path fill="none" stroke="#63b8ff" d="M481.49,-402.21C494.8,-405.04 508.78,-407.52 522,-409 684.62,-427.18 727.39,-416.19 890,-398 901.93,-396.67 914.59,-394.84 926.75,-392.87"/>
<polygon fill="#63b8ff" stroke="#63b8ff" points="926.96,-396.39 936.25,-391.29 925.81,-389.48 926.96,-396.39"/>
</a>
</g>
</g>
<!-- Node23&#45;&gt;Node8 -->
<g id="edge43_Node000023_Node000008" class="edge">
<title>Node23&#45;&gt;Node8</title>
<g id="a_edge43_Node000023_Node000008"><a xlink:title=" ">
<path fill="none" stroke="#63b8ff" d="M486.36,-391.81C498.25,-392.72 510.47,-393.51 522,-394 595.71,-397.12 614.37,-398.66 688,-394 704.66,-392.95 722.57,-391.06 739.27,-388.98"/>
<polygon fill="#63b8ff" stroke="#63b8ff" points="739.64,-392.46 749.11,-387.7 738.74,-385.51 739.64,-392.46"/>
</a>
</g>
</g>
<!-- Node23&#45;&gt;Node11 -->
<g id="edge45_Node000023_Node000011" class="edge">
<title>Node23&#45;&gt;Node11</title>
<g id="a_edge45_Node000023_Node000011"><a xlink:title=" ">
<path fill="none" stroke="#63b8ff" d="M475.7,-402.08C479.49,-404.65 482.99,-407.6 486,-411 531.48,-462.3 475.01,-511.08 522,-561 525.12,-564.32 528.67,-567.2 532.5,-569.7"/>
<polygon fill="#63b8ff" stroke="#63b8ff" points="530.73,-572.73 541.19,-574.45 534.09,-566.58 530.73,-572.73"/>
</a>
</g>
</g>
<!-- Node24&#45;&gt;Node11 -->
<g id="edge48_Node000024_Node000011" class="edge">
<title>Node24&#45;&gt;Node11</title>
<g id="a_edge48_Node000024_Node000011"><a xlink:title=" ">
<path fill="none" stroke="#63b8ff" d="M308.45,-637.06C358.33,-634.18 426.64,-628.6 486,-618 510.56,-613.62 537.43,-606.51 559.32,-600.11"/>
<polygon fill="#63b8ff" stroke="#63b8ff" points="560.25,-603.49 568.83,-597.28 558.25,-596.78 560.25,-603.49"/>
</a>
</g>
</g>
<!-- Node25&#45;&gt;Node3 -->
<g id="edge58_Node000025_Node000003" class="edge">
<title>Node25&#45;&gt;Node3</title>
<g id="a_edge58_Node000025_Node000003"><a xlink:title=" ">
<path fill="none" stroke="#63b8ff" d="M426.57,-198.3C444.41,-181.03 482.44,-147.46 522,-133 744.93,-51.49 828.65,-73.76 1056,-142 1145.13,-168.75 1179.98,-164.41 1246,-230 1306.07,-289.68 1336.31,-389.96 1347.17,-433.61"/>
<polygon fill="#63b8ff" stroke="#63b8ff" points="1343.71,-434.18 1349.43,-443.1 1350.52,-432.56 1343.71,-434.18"/>
</a>
</g>
</g>
<!-- Node25&#45;&gt;Node5 -->
<g id="edge61_Node000025_Node000005" class="edge">
<title>Node25&#45;&gt;Node5</title>
<g id="a_edge61_Node000025_Node000005"><a xlink:title=" ">
<path fill="none" stroke="#63b8ff" d="M451.37,-198.2C506.54,-183.61 614.37,-164.31 688,-210 718.4,-228.87 696,-259.73 724,-282 783.4,-329.23 819.66,-293.52 890,-322 917.37,-333.08 946.15,-350.8 965.78,-363.93"/>
<polygon fill="#63b8ff" stroke="#63b8ff" points="963.66,-366.72 973.9,-369.46 967.6,-360.94 963.66,-366.72"/>
</a>
</g>
</g>
<!-- Node25&#45;&gt;Node8 -->
<g id="edge59_Node000025_Node000008" class="edge">
<title>Node25&#45;&gt;Node8</title>
<g id="a_edge59_Node000025_Node000008"><a xlink:title=" ">
<path fill="none" stroke="#63b8ff" d="M477.2,-211.09C546.81,-214.56 655.1,-223.64 688,-247 716.53,-267.25 701.48,-290.22 724,-317 739.17,-335.04 760.52,-350.97 777.62,-362.16"/>
<polygon fill="#63b8ff" stroke="#63b8ff" points="775.53,-364.98 785.85,-367.38 779.28,-359.07 775.53,-364.98"/>
</a>
</g>
</g>
<!-- Node25&#45;&gt;Node9 -->
<g id="edge60_Node000025_Node000009" class="edge">
<title>Node25&#45;&gt;Node9</title>
<g id="a_edge60_Node000025_Node000009"><a xlink:title=" ">
<path fill="none" stroke="#63b8ff" d="M450.33,-219.85C471.05,-226.36 498.01,-234.76 522,-242 532.86,-245.28 544.56,-248.74 555.61,-251.99"/>
<polygon fill="#63b8ff" stroke="#63b8ff" points="554.37,-255.27 564.95,-254.72 556.34,-248.55 554.37,-255.27"/>
</a>
</g>
</g>
<!-- Node26 -->
<g id="Node000026" class="node">
<title>Node26</title>
<g id="a_Node000026"><a xlink:href="namespaceoutput__ops.html#a50bfbb88cc91805469353c3ff47b3e2e" target="_top" xlink:title="Use external program to draw a plot.">
<polygon fill="white" stroke="#666666" points="670,-162.38 540,-162.38 540,-141.62 670,-141.62 670,-162.38"/>
<text xml:space="preserve" text-anchor="middle" x="605" y="-146.97" font-family="Ubuntu Mono" font-size="12.00">output_ops::draw_ex</text>
</a>
</g>
</g>
<!-- Node25&#45;&gt;Node26 -->
<g id="edge50_Node000025_Node000026" class="edge">
<title>Node25&#45;&gt;Node26</title>
<g id="a_edge50_Node000025_Node000026"><a xlink:title=" ">
<path fill="none" stroke="#63b8ff" d="M450.33,-198.15C471.05,-191.64 498.01,-183.24 522,-176 532.86,-172.72 544.56,-169.26 555.61,-166.01"/>
<polygon fill="#63b8ff" stroke="#63b8ff" points="556.34,-169.45 564.95,-163.28 554.37,-162.73 556.34,-169.45"/>
</a>
</g>
</g>
<!-- Node26&#45;&gt;Node3 -->
<g id="edge51_Node000026_Node000003" class="edge">
<title>Node26&#45;&gt;Node3</title>
<g id="a_edge51_Node000026_Node000003"><a xlink:title=" ">
<path fill="none" stroke="#63b8ff" d="M644.13,-141.22C699.51,-127.39 804.9,-107.99 890,-133 1090.3,-191.86 1277.9,-376.57 1334.62,-436.22"/>
<polygon fill="#63b8ff" stroke="#63b8ff" points="1331.86,-438.4 1341.26,-443.28 1336.96,-433.6 1331.86,-438.4"/>
</a>
</g>
</g>
<!-- Node26&#45;&gt;Node5 -->
<g id="edge57_Node000026_Node000005" class="edge">
<title>Node26&#45;&gt;Node5</title>
<g id="a_edge57_Node000026_Node000005"><a xlink:title=" ">
<path fill="none" stroke="#63b8ff" d="M664.95,-162.86C673.26,-166.15 681.25,-170.43 688,-176 714.98,-198.28 696.68,-224.15 724,-246 783.52,-293.6 823.07,-252.55 890,-289 924.32,-307.69 956.09,-340.7 974.24,-361.69"/>
<polygon fill="#63b8ff" stroke="#63b8ff" points="971.49,-363.85 980.61,-369.23 976.83,-359.33 971.49,-363.85"/>
</a>
</g>
</g>
<!-- Node26&#45;&gt;Node8 -->
<g id="edge52_Node000026_Node000008" class="edge">
<title>Node26&#45;&gt;Node8</title>
<g id="a_edge52_Node000026_Node000008"><a xlink:title=" ">
<path fill="none" stroke="#63b8ff" d="M624.39,-162.73C642.28,-173.84 669.4,-192.57 688,-214 709.64,-238.94 705.45,-251.68 724,-279 744.25,-308.83 771.35,-340.58 788.75,-360.11"/>
<polygon fill="#63b8ff" stroke="#63b8ff" points="785.92,-362.19 795.21,-367.28 791.12,-357.51 785.92,-362.19"/>
</a>
</g>
</g>
<!-- Node27 -->
<g id="Node000027" class="node">
<title>Node27</title>
<g id="a_Node000027"><a xlink:href="namespacefiles__utilities.html#ac6066df405564ba2f5e3c4bba726c1f8" target="_top" xlink:title="Search for available new unit.">
<polygon fill="white" stroke="#666666" points="890,-162.38 724,-162.38 724,-141.62 890,-141.62 890,-162.38"/>
<text xml:space="preserve" text-anchor="middle" x="807" y="-146.97" font-family="Ubuntu Mono" font-size="12.00">files_utilities::nextunit</text>
</a>
</g>
</g>
<!-- Node26&#45;&gt;Node27 -->
<g id="edge53_Node000026_Node000027" class="edge">
<title>Node26&#45;&gt;Node27</title>
<g id="a_edge53_Node000026_Node000027"><a xlink:title=" ">
<path fill="none" stroke="#63b8ff" d="M670.38,-152C683.81,-152 698.22,-152 712.45,-152"/>
<polygon fill="#63b8ff" stroke="#63b8ff" points="712.3,-155.5 722.3,-152 712.3,-148.5 712.3,-155.5"/>
</a>
</g>
</g>
<!-- Node28 -->
<g id="Node000028" class="node">
<title>Node28</title>
<g id="a_Node000028"><a xlink:href="namespacestr__utilities.html#a92ac6c0af1979df094de1caddd28ade0" target="_top" xlink:title="Convert a real (double) to string.">
<polygon fill="white" stroke="#666666" points="875,-219.38 739,-219.38 739,-198.62 875,-198.62 875,-219.38"/>
<text xml:space="preserve" text-anchor="middle" x="807" y="-203.97" font-family="Ubuntu Mono" font-size="12.00">str_utilities::r2str</text>
</a>
</g>
</g>
<!-- Node26&#45;&gt;Node28 -->
<g id="edge55_Node000026_Node000028" class="edge">
<title>Node26&#45;&gt;Node28</title>
<g id="a_edge55_Node000026_Node000028"><a xlink:title=" ">
<path fill="none" stroke="#63b8ff" d="M644.94,-162.86C658.61,-166.82 674.04,-171.44 688,-176 704.17,-181.28 707.71,-184.09 724,-189 731.44,-191.24 739.31,-193.41 747.12,-195.45"/>
<polygon fill="#63b8ff" stroke="#63b8ff" points="746.05,-198.79 756.6,-197.85 747.77,-192 746.05,-198.79"/>
</a>
</g>
</g>
<!-- Node27&#45;&gt;Node27 -->
<g id="edge54_Node000027_Node000027" class="edge">
<title>Node27&#45;&gt;Node27</title>
<g id="a_edge54_Node000027_Node000027"><a xlink:title=" ">
<path fill="none" stroke="#63b8ff" d="M777.35,-162.77C765.49,-171.43 775.38,-180.38 807,-180.38 824.29,-180.38 835.09,-177.7 839.38,-173.86"/>
<polygon fill="#63b8ff" stroke="#63b8ff" points="842.8,-173.12 837.01,-164.24 836,-174.79 842.8,-173.12"/>
</a>
</g>
</g>
<!-- Node28&#45;&gt;Node28 -->
<g id="edge56_Node000028_Node000028" class="edge">
<title>Node28&#45;&gt;Node28</title>
<g id="a_edge56_Node000028_Node000028"><a xlink:title=" ">
<path fill="none" stroke="#63b8ff" d="M777.35,-219.77C765.49,-228.43 775.38,-237.38 807,-237.38 824.29,-237.38 835.09,-234.7 839.38,-230.86"/>
<polygon fill="#63b8ff" stroke="#63b8ff" points="842.8,-230.12 837.01,-221.24 836,-231.79 842.8,-230.12"/>
</a>
</g>
</g>
</g>
</svg>
