<?xml version="1.0" encoding="UTF-8" standalone="no"?>
<!DOCTYPE svg PUBLIC "-//W3C//DTD SVG 1.1//EN"
 "http://www.w3.org/Graphics/SVG/1.1/DTD/svg11.dtd">
<!-- Generated by graphviz version 2.43.0 (0)
 -->
<!-- Title: sol_utilities::interp_v_spline Pages: 1 -->
<svg width="583pt" height="84pt"
 viewBox="0.00 0.00 583.00 83.50" xmlns="http://www.w3.org/2000/svg" xmlns:xlink="http://www.w3.org/1999/xlink">
<g id="graph0" class="graph" transform="scale(1 1) rotate(0) translate(4 79.5)">
<title>sol_utilities::interp_v_spline</title>
<polygon fill="white" stroke="transparent" points="-4,4 -4,-79.5 579,-79.5 579,4 -4,4"/>
<!-- Node1 -->
<g id="node1" class="node">
<title>Node1</title>
<g id="a_node1"><a xlink:title="Interpolation for a quantity V using splines.">
<polygon fill="#bfbfbf" stroke="black" points="451,-17 451,-51 575,-51 575,-17 451,-17"/>
<text text-anchor="start" x="459" y="-37.4" font-family="Ubuntu Mono" font-size="12.00">sol_utilities::interp</text>
<text text-anchor="middle" x="513" y="-24.4" font-family="Ubuntu Mono" font-size="12.00">_v_spline</text>
</a>
</g>
</g>
<!-- Node2 -->
<g id="node2" class="node">
<title>Node2</title>
<g id="a_node2"><a xlink:href="interfacesol__utilities_1_1calc__xuq.html#a17d7f9af7119c48b7203cf683f80d304" target="_top" xlink:title="(time) array version">
<polygon fill="white" stroke="black" points="286.5,-41 286.5,-75 413.5,-75 413.5,-41 286.5,-41"/>
<text text-anchor="start" x="294.5" y="-61.4" font-family="Ubuntu Mono" font-size="12.00">sol_utilities::calc</text>
<text text-anchor="middle" x="350" y="-48.4" font-family="Ubuntu Mono" font-size="12.00">_xuq::calc_xuq_arr</text>
</a>
</g>
</g>
<!-- Node1&#45;&gt;Node2 -->
<g id="edge1" class="edge">
<title>Node1&#45;&gt;Node2</title>
<path fill="none" stroke="midnightblue" d="M440.65,-44.64C431.69,-45.97 422.57,-47.33 413.76,-48.64"/>
<polygon fill="midnightblue" stroke="midnightblue" points="441.3,-48.08 450.67,-43.14 440.27,-41.15 441.3,-48.08"/>
</g>
<!-- Node3 -->
<g id="node3" class="node">
<title>Node3</title>
<g id="a_node3"><a xlink:href="namespacedriver__sol.html#af1c4ea0286ad714d3f91bb1608e4fc27" target="_top" xlink:title="Interpolate tensorial perturbation quantities in the third dimension.">
<polygon fill="white" stroke="black" points="285,-0.5 285,-21.5 415,-21.5 415,-0.5 285,-0.5"/>
<text text-anchor="middle" x="350" y="-7.9" font-family="Ubuntu Mono" font-size="12.00">driver_sol::interp_v</text>
</a>
</g>
</g>
<!-- Node1&#45;&gt;Node3 -->
<g id="edge2" class="edge">
<title>Node1&#45;&gt;Node3</title>
<path fill="none" stroke="midnightblue" d="M440.74,-23.82C432.2,-22.6 423.53,-21.36 415.1,-20.16"/>
<polygon fill="midnightblue" stroke="midnightblue" points="440.28,-27.29 450.67,-25.24 441.27,-20.36 440.28,-27.29"/>
</g>
<!-- Node4 -->
<g id="node4" class="node">
<title>Node4</title>
<g id="a_node4"><a xlink:href="namespacedriver__sol.html#ad3b1765b3ecc5f82129bfc683ffc6c5c" target="_top" xlink:title="Main driver of PB3D solution part.">
<polygon fill="white" stroke="black" points="83,-0.5 83,-21.5 249,-21.5 249,-0.5 83,-0.5"/>
<text text-anchor="middle" x="166" y="-7.9" font-family="Ubuntu Mono" font-size="12.00">driver_sol::run_driver_sol</text>
</a>
</g>
</g>
<!-- Node3&#45;&gt;Node4 -->
<g id="edge3" class="edge">
<title>Node3&#45;&gt;Node4</title>
<path fill="none" stroke="midnightblue" d="M274.67,-11C266.23,-11 257.6,-11 249.08,-11"/>
<polygon fill="midnightblue" stroke="midnightblue" points="274.83,-14.5 284.83,-11 274.83,-7.5 274.83,-14.5"/>
</g>
<!-- Node5 -->
<g id="node5" class="node">
<title>Node5</title>
<g id="a_node5"><a xlink:href="PB3D_8f90.html#afaee01f014ab3398eecac996b2795fd2" target="_top" xlink:title="Peeling Ballooning in 3D.">
<polygon fill="white" stroke="black" points="0,-0.5 0,-21.5 47,-21.5 47,-0.5 0,-0.5"/>
<text text-anchor="middle" x="23.5" y="-7.9" font-family="Ubuntu Mono" font-size="12.00">pb3d</text>
</a>
</g>
</g>
<!-- Node4&#45;&gt;Node5 -->
<g id="edge4" class="edge">
<title>Node4&#45;&gt;Node5</title>
<path fill="none" stroke="midnightblue" d="M72.59,-11C63.29,-11 54.57,-11 47.18,-11"/>
<polygon fill="midnightblue" stroke="midnightblue" points="72.86,-14.5 82.86,-11 72.86,-7.5 72.86,-14.5"/>
</g>
</g>
</svg>
