<?xml version="1.0" encoding="UTF-8" standalone="no"?>
<!DOCTYPE svg PUBLIC "-//W3C//DTD SVG 1.1//EN"
 "http://www.w3.org/Graphics/SVG/1.1/DTD/svg11.dtd">
<!-- Generated by graphviz version 2.43.0 (0)
 -->
<!-- Title: num_utilities::calc_derivs_1d_id Pages: 1 -->
<svg width="588pt" height="43pt"
 viewBox="0.00 0.00 588.00 43.00" xmlns="http://www.w3.org/2000/svg" xmlns:xlink="http://www.w3.org/1999/xlink">
<g id="graph0" class="graph" transform="scale(1 1) rotate(0) translate(4 39)">
<title>num_utilities::calc_derivs_1d_id</title>
<polygon fill="white" stroke="transparent" points="-4,4 -4,-39 584,-39 584,4 -4,4"/>
<!-- Node1 -->
<g id="node1" class="node">
<title>Node1</title>
<g id="a_node1"><a xlink:title="Returns the 1D indices for derivatives of a certain order in certain dimensions.">
<polygon fill="#bfbfbf" stroke="black" points="457,-0.5 457,-34.5 580,-34.5 580,-0.5 457,-0.5"/>
<text text-anchor="start" x="465" y="-20.9" font-family="Ubuntu Mono" font-size="12.00">num_utilities::calc</text>
<text text-anchor="middle" x="518.5" y="-7.9" font-family="Ubuntu Mono" font-size="12.00">_derivs_1d_id</text>
</a>
</g>
</g>
<!-- Node2 -->
<g id="node2" class="node">
<title>Node2</title>
<g id="a_node2"><a xlink:href="namespacenum__utilities.html#af461ae4c95a7a45da875dcf311e323f5" target="_top" xlink:title="Initialize utilities for fast future reference, depending on program style.">
<polygon fill="white" stroke="black" points="298,-0.5 298,-34.5 421,-34.5 421,-0.5 298,-0.5"/>
<text text-anchor="start" x="306" y="-20.9" font-family="Ubuntu Mono" font-size="12.00">num_utilities::calc</text>
<text text-anchor="middle" x="359.5" y="-7.9" font-family="Ubuntu Mono" font-size="12.00">_aux_utilities</text>
</a>
</g>
</g>
<!-- Node1&#45;&gt;Node2 -->
<g id="edge1" class="edge">
<title>Node1&#45;&gt;Node2</title>
<path fill="none" stroke="midnightblue" d="M446.79,-17.5C438.19,-17.5 429.47,-17.5 421.04,-17.5"/>
<polygon fill="midnightblue" stroke="midnightblue" points="446.8,-21 456.8,-17.5 446.8,-14 446.8,-21"/>
</g>
<!-- Node3 -->
<g id="node3" class="node">
<title>Node3</title>
<g id="a_node3"><a xlink:href="namespacedriver__post.html#a33b3c6f9018a0ddc92dce77394b8ab37" target="_top" xlink:title="The main driver routine for postprocessing.">
<polygon fill="white" stroke="black" points="78,-7 78,-28 262,-28 262,-7 78,-7"/>
<text text-anchor="middle" x="170" y="-14.4" font-family="Ubuntu Mono" font-size="12.00">driver_post::run_driver_post</text>
</a>
</g>
</g>
<!-- Node2&#45;&gt;Node3 -->
<g id="edge2" class="edge">
<title>Node2&#45;&gt;Node3</title>
<path fill="none" stroke="midnightblue" d="M287.79,-17.5C279.38,-17.5 270.72,-17.5 262.08,-17.5"/>
<polygon fill="midnightblue" stroke="midnightblue" points="287.88,-21 297.88,-17.5 287.88,-14 287.88,-21"/>
</g>
<!-- Node4 -->
<g id="node4" class="node">
<title>Node4</title>
<g id="a_node4"><a xlink:href="POST_8f90.html#ac289b64ac4671fea0b4f2298ba1188a1" target="_top" xlink:title="Peeling Ballooning in 3D: postprocessing.">
<polygon fill="white" stroke="black" points="0,-7 0,-28 42,-28 42,-7 0,-7"/>
<text text-anchor="middle" x="21" y="-14.4" font-family="Ubuntu Mono" font-size="12.00">post</text>
</a>
</g>
</g>
<!-- Node3&#45;&gt;Node4 -->
<g id="edge3" class="edge">
<title>Node3&#45;&gt;Node4</title>
<path fill="none" stroke="midnightblue" d="M67.83,-17.5C58.3,-17.5 49.5,-17.5 42.21,-17.5"/>
<polygon fill="midnightblue" stroke="midnightblue" points="67.99,-21 77.99,-17.5 67.99,-14 67.99,-21"/>
</g>
</g>
</svg>
