<?xml version="1.0" encoding="UTF-8" standalone="no"?>
<!DOCTYPE svg PUBLIC "-//W3C//DTD SVG 1.1//EN"
 "http://www.w3.org/Graphics/SVG/1.1/DTD/svg11.dtd">
<!-- Generated by graphviz version 2.43.0 (0)
 -->
<!-- Title: driver_x::print_info_x_2 Pages: 1 -->
<svg width="532pt" height="110pt"
 viewBox="0.00 0.00 532.00 110.00" xmlns="http://www.w3.org/2000/svg" xmlns:xlink="http://www.w3.org/1999/xlink">
<g id="graph0" class="graph" transform="scale(1 1) rotate(0) translate(4 106)">
<title>driver_x::print_info_x_2</title>
<polygon fill="white" stroke="transparent" points="-4,4 -4,-106 528,-106 528,4 -4,4"/>
<!-- Node1 -->
<g id="node1" class="node">
<title>Node1</title>
<g id="a_node1"><a xlink:title="Prints information for tensorial perturbation job.">
<polygon fill="#bfbfbf" stroke="black" points="0,-59.5 0,-80.5 155,-80.5 155,-59.5 0,-59.5"/>
<text text-anchor="middle" x="77.5" y="-66.9" font-family="Ubuntu Mono" font-size="12.00">driver_x::print_info_x_2</text>
</a>
</g>
</g>
<!-- Node2 -->
<g id="node2" class="node">
<title>Node2</title>
<g id="a_node2"><a xlink:href="namespacestr__utilities.html#a0b97e51770725a3e98ed393d26681414" target="_top" xlink:title="Convert an integer to string.">
<polygon fill="white" stroke="black" points="375.5,-80.5 375.5,-101.5 489.5,-101.5 489.5,-80.5 375.5,-80.5"/>
<text text-anchor="middle" x="432.5" y="-87.9" font-family="Ubuntu Mono" font-size="12.00">str_utilities::i2str</text>
</a>
</g>
</g>
<!-- Node1&#45;&gt;Node2 -->
<g id="edge1" class="edge">
<title>Node1&#45;&gt;Node2</title>
<path fill="none" stroke="midnightblue" d="M155.1,-74.56C217.78,-78.29 305.52,-83.51 365.22,-87.06"/>
<polygon fill="midnightblue" stroke="midnightblue" points="365.1,-90.56 375.29,-87.66 365.51,-83.57 365.1,-90.56"/>
</g>
<!-- Node3 -->
<g id="node3" class="node">
<title>Node3</title>
<g id="a_node3"><a xlink:href="namespacemessages.html#aa4a8d01563e92558e8a0875b075ec54c" target="_top" xlink:title="Write output to file identified by output_i.">
<polygon fill="white" stroke="black" points="191,-40.5 191,-61.5 305,-61.5 305,-40.5 191,-40.5"/>
<text text-anchor="middle" x="248" y="-47.9" font-family="Ubuntu Mono" font-size="12.00">messages::writo</text>
</a>
</g>
</g>
<!-- Node1&#45;&gt;Node3 -->
<g id="edge2" class="edge">
<title>Node1&#45;&gt;Node3</title>
<path fill="none" stroke="midnightblue" d="M155.35,-61.33C163.87,-60.37 172.49,-59.4 180.85,-58.46"/>
<polygon fill="midnightblue" stroke="midnightblue" points="181.37,-61.92 190.91,-57.32 180.58,-54.97 181.37,-61.92"/>
</g>
<!-- Node3&#45;&gt;Node2 -->
<g id="edge5" class="edge">
<title>Node3&#45;&gt;Node2</title>
<path fill="none" stroke="midnightblue" d="M296.95,-61.51C320.43,-66.66 348.9,-72.9 373.59,-78.31"/>
<polygon fill="midnightblue" stroke="midnightblue" points="373.04,-81.77 383.55,-80.49 374.54,-74.93 373.04,-81.77"/>
</g>
<!-- Node4 -->
<g id="node4" class="node">
<title>Node4</title>
<g id="a_node4"><a xlink:href="namespacemessages.html#a61fd0b51b5e37d58fdc993c01792a3fd" target="_top" xlink:title="Returns the time.">
<polygon fill="white" stroke="black" points="362.5,-40.5 362.5,-61.5 502.5,-61.5 502.5,-40.5 362.5,-40.5"/>
<text text-anchor="middle" x="432.5" y="-47.9" font-family="Ubuntu Mono" font-size="12.00">messages::get_clock</text>
</a>
</g>
</g>
<!-- Node3&#45;&gt;Node4 -->
<g id="edge3" class="edge">
<title>Node3&#45;&gt;Node4</title>
<path fill="none" stroke="midnightblue" d="M305.25,-51C320.02,-51 336.24,-51 351.99,-51"/>
<polygon fill="midnightblue" stroke="midnightblue" points="352.25,-54.5 362.25,-51 352.25,-47.5 352.25,-54.5"/>
</g>
<!-- Node5 -->
<g id="node5" class="node">
<title>Node5</title>
<g id="a_node5"><a xlink:href="namespacemessages.html#a82dddaab795b78b3d39e1ff1aab2f665" target="_top" xlink:title="Returns the memory usage in kilobytes.">
<polygon fill="white" stroke="black" points="341,-0.5 341,-21.5 524,-21.5 524,-0.5 341,-0.5"/>
<text text-anchor="middle" x="432.5" y="-7.9" font-family="Ubuntu Mono" font-size="12.00">messages::get_mem_usage</text>
</a>
</g>
</g>
<!-- Node3&#45;&gt;Node5 -->
<g id="edge4" class="edge">
<title>Node3&#45;&gt;Node5</title>
<path fill="none" stroke="midnightblue" d="M296.95,-40.49C320.43,-35.34 348.9,-29.1 373.59,-23.69"/>
<polygon fill="midnightblue" stroke="midnightblue" points="374.54,-27.07 383.55,-21.51 373.04,-20.23 374.54,-27.07"/>
</g>
</g>
</svg>
