<?xml version="1.0" encoding="UTF-8" standalone="no"?>
<!DOCTYPE svg PUBLIC "-//W3C//DTD SVG 1.1//EN"
 "http://www.w3.org/Graphics/SVG/1.1/DTD/svg11.dtd">
<!-- Generated by graphviz version 2.38.0 (20140413.2041)
 -->
<!-- Title: helena_vars::dealloc_hel Pages: 1 -->
<svg width="986pt" height="211pt"
 viewBox="0.00 0.00 986.00 210.86" xmlns="http://www.w3.org/2000/svg" xmlns:xlink="http://www.w3.org/1999/xlink">
<g id="graph0" class="graph" transform="scale(1 1) rotate(0) translate(4 206.86)">
<title>helena_vars::dealloc_hel</title>
<polygon fill="white" stroke="none" points="-4,4 -4,-206.86 982,-206.86 982,4 -4,4"/>
<!-- Node5 -->
<g id="node1" class="node"><title>Node5</title>
<polygon fill="#bfbfbf" stroke="black" points="0,-85.6244 0,-106.624 161,-106.624 161,-85.6244 0,-85.6244"/>
<text text-anchor="middle" x="80.5" y="-93.0244" font-family="Ubuntu Mono" font-size="12.00">helena_vars::dealloc_hel</text>
</g>
<!-- Node6 -->
<g id="node2" class="node"><title>Node6</title>
<g id="a_node2"><a xlink:href="namespaceinput__utilities.html#aa0cf7578f9c9ab6470f8bb8d025f1daf" target="_top" xlink:title="Cleans up input from equilibrium codes. ">
<polygon fill="white" stroke="black" points="197,-85.6244 197,-106.624 376,-106.624 376,-85.6244 197,-85.6244"/>
<text text-anchor="middle" x="286.5" y="-93.0244" font-family="Ubuntu Mono" font-size="12.00">input_utilities::dealloc_in</text>
</a>
</g>
</g>
<!-- Node5&#45;&gt;Node6 -->
<g id="edge1" class="edge"><title>Node5&#45;&gt;Node6</title>
<path fill="none" stroke="midnightblue" d="M171.413,-96.1244C179.803,-96.1244 188.305,-96.1244 196.686,-96.1244"/>
<polygon fill="midnightblue" stroke="midnightblue" points="171.248,-92.6245 161.248,-96.1244 171.248,-99.6245 171.248,-92.6245"/>
</g>
<!-- Node7 -->
<g id="node3" class="node"><title>Node7</title>
<g id="a_node3"><a xlink:href="namespacedriver__post.html#a71f9fb1935222111e1c7cfc15c5d0269" target="_top" xlink:title="Cleans up main driver for postprocessing. ">
<polygon fill="white" stroke="black" points="585,-147.624 585,-168.624 734,-168.624 734,-147.624 585,-147.624"/>
<text text-anchor="middle" x="659.5" y="-155.024" font-family="Ubuntu Mono" font-size="12.00">driver_post::stop_post</text>
</a>
</g>
</g>
<!-- Node6&#45;&gt;Node7 -->
<g id="edge2" class="edge"><title>Node6&#45;&gt;Node7</title>
<path fill="none" stroke="midnightblue" d="M320.553,-110.534C345.251,-120.624 380.107,-133.45 412,-140.124 469.329,-152.122 535.603,-156.443 584.985,-157.863"/>
<polygon fill="midnightblue" stroke="midnightblue" points="321.863,-107.288 311.285,-106.682 319.176,-113.752 321.863,-107.288"/>
</g>
<!-- Node8 -->
<g id="node4" class="node"><title>Node8</title>
<g id="a_node4"><a xlink:href="POST_8f90.html#ac289b64ac4671fea0b4f2298ba1188a1" target="_top" xlink:title="Peeling Ballooning in 3D: postprocessing. ">
<polygon fill="white" stroke="black" points="937,-147.624 937,-168.624 978,-168.624 978,-147.624 937,-147.624"/>
<text text-anchor="middle" x="957.5" y="-155.024" font-family="Ubuntu Mono" font-size="12.00">post</text>
</a>
</g>
</g>
<!-- Node6&#45;&gt;Node8 -->
<g id="edge14" class="edge"><title>Node6&#45;&gt;Node8</title>
<path fill="none" stroke="midnightblue" d="M310.793,-112.436C334.9,-128.382 374.251,-151.856 412,-163.124 620.288,-225.302 685.803,-202.781 901,-172.124 913.101,-170.401 926.386,-167.101 936.923,-164.139"/>
<polygon fill="midnightblue" stroke="midnightblue" points="312.583,-109.422 302.335,-106.735 308.67,-115.227 312.583,-109.422"/>
</g>
<!-- Node9 -->
<g id="node5" class="node"><title>Node9</title>
<g id="a_node5"><a xlink:href="namespacerich__ops.html#a3cf72a3ed0806ac9ddff262a00b2e33d" target="_top" xlink:title="Terminate the Richardson extrapolation system. ">
<polygon fill="white" stroke="black" points="770,-17.6244 770,-38.6244 901,-38.6244 901,-17.6244 770,-17.6244"/>
<text text-anchor="middle" x="835.5" y="-25.0244" font-family="Ubuntu Mono" font-size="12.00">rich_ops::term_rich</text>
</a>
</g>
</g>
<!-- Node6&#45;&gt;Node9 -->
<g id="edge4" class="edge"><title>Node6&#45;&gt;Node9</title>
<path fill="none" stroke="midnightblue" d="M316.69,-81.0997C341.367,-69.2149 378.028,-53.4446 412,-46.1244 536.521,-19.2927 686.322,-20.5627 769.941,-24.1679"/>
<polygon fill="midnightblue" stroke="midnightblue" points="314.964,-78.0482 307.531,-85.5983 318.05,-84.3313 314.964,-78.0482"/>
</g>
<!-- Node10 -->
<g id="node6" class="node"><title>Node10</title>
<g id="a_node6"><a xlink:href="PB3D_8f90.html#afaee01f014ab3398eecac996b2795fd2" target="_top" xlink:title="Peeling Ballooning in 3D. ">
<polygon fill="white" stroke="black" points="937,-17.6244 937,-38.6244 978,-38.6244 978,-17.6244 937,-17.6244"/>
<text text-anchor="middle" x="957.5" y="-25.0244" font-family="Ubuntu Mono" font-size="12.00">pb3d</text>
</a>
</g>
</g>
<!-- Node6&#45;&gt;Node10 -->
<g id="edge13" class="edge"><title>Node6&#45;&gt;Node10</title>
<path fill="none" stroke="midnightblue" d="M308.934,-79.3782C332.635,-61.9477 372.687,-35.6205 412,-24.1244 564.868,20.5779 610.77,-11.6808 770,-8.1244 828.208,-6.82432 843.646,1.89428 901,-8.1244 913.309,-10.2745 926.49,-14.9175 936.918,-19.1891"/>
<polygon fill="midnightblue" stroke="midnightblue" points="306.58,-76.769 300.687,-85.5735 310.784,-82.3658 306.58,-76.769"/>
</g>
<!-- Node11 -->
<g id="node7" class="node"><title>Node11</title>
<g id="a_node7"><a xlink:href="test_8f90.html#a197914f99b7e194fb4bca9ca3669e0e8" target="_top" xlink:title="plot_y">
<polygon fill="white" stroke="black" points="454,-109.624 454,-130.624 507,-130.624 507,-109.624 454,-109.624"/>
<text text-anchor="middle" x="480.5" y="-117.024" font-family="Ubuntu Mono" font-size="12.00">plot_y</text>
</a>
</g>
</g>
<!-- Node6&#45;&gt;Node11 -->
<g id="edge6" class="edge"><title>Node6&#45;&gt;Node11</title>
<path fill="none" stroke="midnightblue" d="M381.823,-107.915C408.264,-111.22 434.876,-114.546 453.629,-116.891"/>
<polygon fill="midnightblue" stroke="midnightblue" points="382.071,-104.419 371.714,-106.651 381.203,-111.365 382.071,-104.419"/>
</g>
<!-- Node14 -->
<g id="node10" class="node"><title>Node14</title>
<g id="a_node10"><a xlink:href="namespacetest.html#ac574f08ba400cd61070a6a6f13f6f7ee" target="_top" xlink:title="Tests reading of HDF5 subset. ">
<polygon fill="white" stroke="black" points="412,-56.1244 412,-90.1244 549,-90.1244 549,-56.1244 412,-56.1244"/>
<text text-anchor="start" x="420" y="-76.5244" font-family="Ubuntu Mono" font-size="12.00">test::test_read_hdf5</text>
<text text-anchor="middle" x="480.5" y="-63.5244" font-family="Ubuntu Mono" font-size="12.00">_subset</text>
</a>
</g>
</g>
<!-- Node6&#45;&gt;Node14 -->
<g id="edge11" class="edge"><title>Node6&#45;&gt;Node14</title>
<path fill="none" stroke="midnightblue" d="M385.42,-84.3944C394.343,-83.3255 403.244,-82.2592 411.814,-81.2326"/>
<polygon fill="midnightblue" stroke="midnightblue" points="384.865,-80.9357 375.352,-85.6004 385.698,-87.8861 384.865,-80.9357"/>
</g>
<!-- Node7&#45;&gt;Node8 -->
<g id="edge3" class="edge"><title>Node7&#45;&gt;Node8</title>
<path fill="none" stroke="midnightblue" d="M744.095,-158.124C810.491,-158.124 898.371,-158.124 936.94,-158.124"/>
<polygon fill="midnightblue" stroke="midnightblue" points="744.049,-154.624 734.049,-158.124 744.049,-161.624 744.049,-154.624"/>
</g>
<!-- Node9&#45;&gt;Node10 -->
<g id="edge5" class="edge"><title>Node9&#45;&gt;Node10</title>
<path fill="none" stroke="midnightblue" d="M911.091,-28.1244C920.572,-28.1244 929.536,-28.1244 936.955,-28.1244"/>
<polygon fill="midnightblue" stroke="midnightblue" points="911.066,-24.6245 901.066,-28.1244 911.066,-31.6245 911.066,-24.6245"/>
</g>
<!-- Node12 -->
<g id="node8" class="node"><title>Node12</title>
<g id="a_node8"><a xlink:href="namespacetest.html#a53c6b3d654d4577af301fe3b04473d6a" target="_top" xlink:title="Test spline(). ">
<polygon fill="white" stroke="black" points="597,-106.624 597,-127.624 722,-127.624 722,-106.624 597,-106.624"/>
<text text-anchor="middle" x="659.5" y="-114.024" font-family="Ubuntu Mono" font-size="12.00">test::test_splines</text>
</a>
</g>
</g>
<!-- Node11&#45;&gt;Node12 -->
<g id="edge7" class="edge"><title>Node11&#45;&gt;Node12</title>
<path fill="none" stroke="midnightblue" d="M517.466,-119.515C540.237,-119.129 570.28,-118.62 596.784,-118.17"/>
<polygon fill="midnightblue" stroke="midnightblue" points="517.177,-116.019 507.237,-119.688 517.295,-123.018 517.177,-116.019"/>
</g>
<!-- Node13 -->
<g id="node9" class="node"><title>Node13</title>
<g id="a_node9"><a xlink:href="namespacetest.html#aca21ee464c0b1f4b617177afdde110ec" target="_top" xlink:title="Performs generic tests. ">
<polygon fill="white" stroke="black" points="770,-85.6244 770,-106.624 901,-106.624 901,-85.6244 770,-85.6244"/>
<text text-anchor="middle" x="835.5" y="-93.0244" font-family="Ubuntu Mono" font-size="12.00">test::generic_tests</text>
</a>
</g>
</g>
<!-- Node12&#45;&gt;Node13 -->
<g id="edge8" class="edge"><title>Node12&#45;&gt;Node13</title>
<path fill="none" stroke="midnightblue" d="M732.607,-108.422C744.978,-106.929 757.763,-105.386 769.921,-103.918"/>
<polygon fill="midnightblue" stroke="midnightblue" points="731.844,-104.988 722.336,-109.661 732.683,-111.938 731.844,-104.988"/>
</g>
<!-- Node13&#45;&gt;Node8 -->
<g id="edge10" class="edge"><title>Node13&#45;&gt;Node8</title>
<path fill="none" stroke="midnightblue" d="M865.801,-111.263C887.878,-122.67 917.546,-137.998 936.842,-147.968"/>
<polygon fill="midnightblue" stroke="midnightblue" points="867.347,-108.123 856.856,-106.642 864.134,-114.342 867.347,-108.123"/>
</g>
<!-- Node13&#45;&gt;Node10 -->
<g id="edge9" class="edge"><title>Node13&#45;&gt;Node10</title>
<path fill="none" stroke="midnightblue" d="M864.049,-80.5135C886.679,-67.6895 918.119,-49.8734 937.882,-38.6748"/>
<polygon fill="midnightblue" stroke="midnightblue" points="862.225,-77.5241 855.25,-85.4994 865.676,-83.6143 862.225,-77.5241"/>
</g>
<!-- Node14&#45;&gt;Node13 -->
<g id="edge12" class="edge"><title>Node14&#45;&gt;Node13</title>
<path fill="none" stroke="midnightblue" d="M559.449,-78.2032C622.58,-82.3166 710.469,-88.0431 769.765,-91.9065"/>
<polygon fill="midnightblue" stroke="midnightblue" points="559.351,-74.6895 549.144,-77.5318 558.896,-81.6747 559.351,-74.6895"/>
</g>
</g>
</svg>
