<?xml version="1.0" encoding="UTF-8" standalone="no"?>
<!DOCTYPE svg PUBLIC "-//W3C//DTD SVG 1.1//EN"
 "http://www.w3.org/Graphics/SVG/1.1/DTD/svg11.dtd">
<!-- Generated by graphviz version 2.38.0 (20140413.2041)
 -->
<!-- Title: messages::print_ar_2 Pages: 1 -->
<svg width="1201pt" height="137pt"
 viewBox="0.00 0.00 1201.00 137.00" xmlns="http://www.w3.org/2000/svg" xmlns:xlink="http://www.w3.org/1999/xlink">
<g id="graph0" class="graph" transform="scale(1 1) rotate(0) translate(4 133)">
<title>messages::print_ar_2</title>
<polygon fill="white" stroke="none" points="-4,4 -4,-133 1197,-133 1197,4 -4,4"/>
<!-- Node556 -->
<g id="node1" class="node"><title>Node556</title>
<polygon fill="#bfbfbf" stroke="black" points="0,-54 0,-75 137,-75 137,-54 0,-54"/>
<text text-anchor="middle" x="68.5" y="-61.4" font-family="Ubuntu Mono" font-size="12.00">messages::print_ar_2</text>
</g>
<!-- Node557 -->
<g id="node2" class="node"><title>Node557</title>
<g id="a_node2"><a xlink:href="namespacenum__utilities.html#a2d5d9c66db19fb6edeeb50db6182397f" target="_top" xlink:title="Extrapolates a function. ">
<polygon fill="white" stroke="black" points="191,-94.5 191,-128.5 322,-128.5 322,-94.5 191,-94.5"/>
<text text-anchor="start" x="199" y="-114.9" font-family="Ubuntu Mono" font-size="12.00">num_utilities::calc</text>
<text text-anchor="middle" x="256.5" y="-101.9" font-family="Ubuntu Mono" font-size="12.00">_ext_var</text>
</a>
</g>
</g>
<!-- Node556&#45;&gt;Node557 -->
<g id="edge1" class="edge"><title>Node556&#45;&gt;Node557</title>
<path fill="none" stroke="midnightblue" d="M121.193,-77.5622C142.779,-83.0168 168.092,-89.413 190.888,-95.1732"/>
<polygon fill="midnightblue" stroke="midnightblue" points="121.795,-74.1043 111.242,-75.0477 120.08,-80.891 121.795,-74.1043"/>
</g>
<!-- Node558 -->
<g id="node3" class="node"><title>Node558</title>
<g id="a_node3"><a xlink:href="SLEPC__utilities_8f90.html#a711d6be49d3b1542ee3375bceb5b4e6d" target="_top" xlink:title="/private Set up local block, possibly translated for fast PB3D. ">
<polygon fill="white" stroke="black" points="197,-54 197,-75 316,-75 316,-54 197,-54"/>
<text text-anchor="middle" x="256.5" y="-61.4" font-family="Ubuntu Mono" font-size="12.00">setup_local_block</text>
</a>
</g>
</g>
<!-- Node556&#45;&gt;Node558 -->
<g id="edge2" class="edge"><title>Node556&#45;&gt;Node558</title>
<path fill="none" stroke="midnightblue" d="M147.369,-64.5C163.906,-64.5 181.099,-64.5 196.78,-64.5"/>
<polygon fill="midnightblue" stroke="midnightblue" points="147.176,-61.0001 137.176,-64.5 147.176,-68.0001 147.176,-61.0001"/>
</g>
<!-- Node565 -->
<g id="node10" class="node"><title>Node565</title>
<g id="a_node10"><a xlink:href="namespacevac__utilities.html#a8e7889688701f6ac2fd2c60cdee2b96a" target="_top" xlink:title="Copies vacuum variables of a previous level into the appropriate, interlaced place of a next level...">
<polygon fill="white" stroke="black" points="173,-0.5 173,-34.5 340,-34.5 340,-0.5 173,-0.5"/>
<text text-anchor="start" x="181" y="-20.9" font-family="Ubuntu Mono" font-size="12.00">vac_utilities::interlaced</text>
<text text-anchor="middle" x="256.5" y="-7.9" font-family="Ubuntu Mono" font-size="12.00">_vac_copy</text>
</a>
</g>
</g>
<!-- Node556&#45;&gt;Node565 -->
<g id="edge10" class="edge"><title>Node556&#45;&gt;Node565</title>
<path fill="none" stroke="midnightblue" d="M121.101,-51.4612C141.794,-46.2321 165.924,-40.1349 187.981,-34.5613"/>
<polygon fill="midnightblue" stroke="midnightblue" points="120.08,-48.109 111.242,-53.9523 121.795,-54.8957 120.08,-48.109"/>
</g>
<!-- Node559 -->
<g id="node4" class="node"><title>Node559</title>
<g id="a_node4"><a xlink:href="namespaceslepc__utilities.html#aa34aa361f0bfff9621ecba179f9ed0c6" target="_top" xlink:title="Insert a block pertaining to 1 normal point into a matrix. ">
<polygon fill="white" stroke="black" points="376,-47.5 376,-81.5 531,-81.5 531,-47.5 376,-47.5"/>
<text text-anchor="start" x="384" y="-67.9" font-family="Ubuntu Mono" font-size="12.00">slepc_utilities::insert</text>
<text text-anchor="middle" x="453.5" y="-54.9" font-family="Ubuntu Mono" font-size="12.00">_block_mat</text>
</a>
</g>
</g>
<!-- Node558&#45;&gt;Node559 -->
<g id="edge3" class="edge"><title>Node558&#45;&gt;Node559</title>
<path fill="none" stroke="midnightblue" d="M326.371,-64.5C342.423,-64.5 359.612,-64.5 375.973,-64.5"/>
<polygon fill="midnightblue" stroke="midnightblue" points="326.006,-61.0001 316.006,-64.5 326.006,-68.0001 326.006,-61.0001"/>
</g>
<!-- Node560 -->
<g id="node5" class="node"><title>Node560</title>
<g id="a_node5"><a xlink:href="namespaceslepc__ops.html#aac8202cb74cbb06013eb73f1fa0c3118" target="_top" xlink:title="Sets up the matrices &#160;and &#160;in the EV problem . ">
<polygon fill="white" stroke="black" points="567,-90 567,-111 710,-111 710,-90 567,-90"/>
<text text-anchor="middle" x="638.5" y="-97.4" font-family="Ubuntu Mono" font-size="12.00">slepc_ops::setup_mats</text>
</a>
</g>
</g>
<!-- Node559&#45;&gt;Node560 -->
<g id="edge4" class="edge"><title>Node559&#45;&gt;Node560</title>
<path fill="none" stroke="midnightblue" d="M541.139,-81.5437C555.779,-84.4237 570.586,-87.3365 584.054,-89.986"/>
<polygon fill="midnightblue" stroke="midnightblue" points="541.536,-78.0548 531.048,-79.5587 540.184,-84.9231 541.536,-78.0548"/>
</g>
<!-- Node564 -->
<g id="node9" class="node"><title>Node564</title>
<g id="a_node9"><a xlink:href="namespaceslepc__ops.html#a05f8a23335ed47ad1996cddf3bcfdc2e" target="_top" xlink:title="Sets the boundary conditions deep in the plasma (1) and at the edge (2). ">
<polygon fill="white" stroke="black" points="579,-50 579,-71 698,-71 698,-50 579,-50"/>
<text text-anchor="middle" x="638.5" y="-57.4" font-family="Ubuntu Mono" font-size="12.00">slepc_ops::set_bc</text>
</a>
</g>
</g>
<!-- Node559&#45;&gt;Node564 -->
<g id="edge8" class="edge"><title>Node559&#45;&gt;Node564</title>
<path fill="none" stroke="midnightblue" d="M541.215,-62.6046C553.949,-62.3262 566.807,-62.0452 578.799,-61.7831"/>
<polygon fill="midnightblue" stroke="midnightblue" points="540.969,-59.109 531.048,-62.8268 541.122,-66.1074 540.969,-59.109"/>
</g>
<!-- Node561 -->
<g id="node6" class="node"><title>Node561</title>
<g id="a_node6"><a xlink:href="namespaceslepc__ops.html#a79c420987056c225931b51c8d30ece1f" target="_top" xlink:title="Solve the eigenvalue system using SLEPC. ">
<polygon fill="white" stroke="black" points="761,-47.5 761,-81.5 892,-81.5 892,-47.5 761,-47.5"/>
<text text-anchor="start" x="769" y="-67.9" font-family="Ubuntu Mono" font-size="12.00">slepc_ops::solve_ev</text>
<text text-anchor="middle" x="826.5" y="-54.9" font-family="Ubuntu Mono" font-size="12.00">_system_slepc</text>
</a>
</g>
</g>
<!-- Node560&#45;&gt;Node561 -->
<g id="edge5" class="edge"><title>Node560&#45;&gt;Node561</title>
<path fill="none" stroke="midnightblue" d="M703.864,-88.0424C722.329,-84.4685 742.463,-80.5717 760.94,-76.9955"/>
<polygon fill="midnightblue" stroke="midnightblue" points="702.952,-84.654 693.799,-89.9905 704.282,-91.5265 702.952,-84.654"/>
</g>
<!-- Node562 -->
<g id="node7" class="node"><title>Node562</title>
<g id="a_node7"><a xlink:href="namespacedriver__sol.html#ad3b1765b3ecc5f82129bfc683ffc6c5c" target="_top" xlink:title="Main driver of PB3D solution part. ">
<polygon fill="white" stroke="black" points="943,-52 943,-73 1116,-73 1116,-52 943,-52"/>
<text text-anchor="middle" x="1029.5" y="-59.4" font-family="Ubuntu Mono" font-size="12.00">driver_sol::run_driver_sol</text>
</a>
</g>
</g>
<!-- Node561&#45;&gt;Node562 -->
<g id="edge6" class="edge"><title>Node561&#45;&gt;Node562</title>
<path fill="none" stroke="midnightblue" d="M902.54,-63.7533C915.616,-63.6232 929.308,-63.487 942.648,-63.3543"/>
<polygon fill="midnightblue" stroke="midnightblue" points="902.169,-60.2568 892.204,-63.8562 902.238,-67.2564 902.169,-60.2568"/>
</g>
<!-- Node563 -->
<g id="node8" class="node"><title>Node563</title>
<g id="a_node8"><a xlink:href="PB3D_8f90.html#afaee01f014ab3398eecac996b2795fd2" target="_top" xlink:title="Peeling Ballooning in 3D. ">
<polygon fill="white" stroke="black" points="1152,-31 1152,-52 1193,-52 1193,-31 1152,-31"/>
<text text-anchor="middle" x="1172.5" y="-38.4" font-family="Ubuntu Mono" font-size="12.00">pb3d</text>
</a>
</g>
</g>
<!-- Node562&#45;&gt;Node563 -->
<g id="edge7" class="edge"><title>Node562&#45;&gt;Node563</title>
<path fill="none" stroke="midnightblue" d="M1111.36,-50.4569C1126.4,-48.2165 1140.8,-46.072 1151.74,-44.4433"/>
<polygon fill="midnightblue" stroke="midnightblue" points="1110.79,-47.0035 1101.41,-51.9385 1111.82,-53.9271 1110.79,-47.0035"/>
</g>
<!-- Node564&#45;&gt;Node561 -->
<g id="edge9" class="edge"><title>Node564&#45;&gt;Node561</title>
<path fill="none" stroke="midnightblue" d="M708.558,-61.9851C725.637,-62.3524 743.872,-62.7446 760.737,-63.1073"/>
<polygon fill="midnightblue" stroke="midnightblue" points="708.169,-58.476 698.096,-61.7601 708.019,-65.4744 708.169,-58.476"/>
</g>
<!-- Node566 -->
<g id="node11" class="node"><title>Node566</title>
<g id="a_node11"><a xlink:href="namespacevac__ops.html#a37220702fbf378626a0f2c12f446e0aa" target="_top" xlink:title="Stores calculation of the vacuum response by storing the necessary variables. ">
<polygon fill="white" stroke="black" points="391,-7 391,-28 516,-28 516,-7 391,-7"/>
<text text-anchor="middle" x="453.5" y="-14.4" font-family="Ubuntu Mono" font-size="12.00">vac_ops::store_vac</text>
</a>
</g>
</g>
<!-- Node565&#45;&gt;Node566 -->
<g id="edge11" class="edge"><title>Node565&#45;&gt;Node566</title>
<path fill="none" stroke="midnightblue" d="M350.227,-17.5C364.054,-17.5 378.009,-17.5 390.976,-17.5"/>
<polygon fill="midnightblue" stroke="midnightblue" points="350.198,-14.0001 340.198,-17.5 350.198,-21.0001 350.198,-14.0001"/>
</g>
<!-- Node567 -->
<g id="node12" class="node"><title>Node567</title>
<g id="a_node12"><a xlink:href="namespacedriver__eq.html#adc9d5dff288fa512e5ef885627d940cc" target="_top" xlink:title="Main driver of PB3D equilibrium part. ">
<polygon fill="white" stroke="black" points="746,-7 746,-28 907,-28 907,-7 746,-7"/>
<text text-anchor="middle" x="826.5" y="-14.4" font-family="Ubuntu Mono" font-size="12.00">driver_eq::run_driver_eq</text>
</a>
</g>
</g>
<!-- Node566&#45;&gt;Node567 -->
<g id="edge12" class="edge"><title>Node566&#45;&gt;Node567</title>
<path fill="none" stroke="midnightblue" d="M526.421,-17.5C589.377,-17.5 680.708,-17.5 745.856,-17.5"/>
<polygon fill="midnightblue" stroke="midnightblue" points="526.18,-14.0001 516.18,-17.5 526.18,-21.0001 526.18,-14.0001"/>
</g>
<!-- Node567&#45;&gt;Node563 -->
<g id="edge13" class="edge"><title>Node567&#45;&gt;Node563</title>
<path fill="none" stroke="midnightblue" d="M917.336,-23.7676C997.041,-29.3285 1107.52,-37.0361 1151.89,-40.1322"/>
<polygon fill="midnightblue" stroke="midnightblue" points="917.505,-20.271 907.285,-23.0664 917.017,-27.254 917.505,-20.271"/>
</g>
</g>
</svg>
