<?xml version="1.0" encoding="UTF-8" standalone="no"?>
<!DOCTYPE svg PUBLIC "-//W3C//DTD SVG 1.1//EN"
 "http://www.w3.org/Graphics/SVG/1.1/DTD/svg11.dtd">
<!-- Generated by graphviz version 2.38.0 (20140413.2041)
 -->
<!-- Title: input_utilities::get_int Pages: 1 -->
<svg width="1040pt" height="434pt"
 viewBox="0.00 0.00 1040.00 434.05" xmlns="http://www.w3.org/2000/svg" xmlns:xlink="http://www.w3.org/1999/xlink">
<g id="graph0" class="graph" transform="scale(1 1) rotate(0) translate(4 430.055)">
<title>input_utilities::get_int</title>
<polygon fill="white" stroke="none" points="-4,4 -4,-430.055 1036,-430.055 1036,4 -4,4"/>
<!-- Node24 -->
<g id="node1" class="node"><title>Node24</title>
<polygon fill="#bfbfbf" stroke="black" points="0,-185.055 0,-206.055 161,-206.055 161,-185.055 0,-185.055"/>
<text text-anchor="middle" x="80.5" y="-192.455" font-family="Ubuntu Mono" font-size="12.00">input_utilities::get_int</text>
</g>
<!-- Node25 -->
<g id="node2" class="node"><title>Node25</title>
<g id="a_node2"><a xlink:href="driver__eq_8f90.html#ad281a6a457fca3e46dd9e1ba4de9a632" target="_top" xlink:title="plot_info_for_vmec\l_hel_comparision">
<polygon fill="white" stroke="black" points="221,-391.555 221,-425.555 346,-425.555 346,-391.555 221,-391.555"/>
<text text-anchor="start" x="229" y="-411.955" font-family="Ubuntu Mono" font-size="12.00">plot_info_for_vmec</text>
<text text-anchor="middle" x="283.5" y="-398.955" font-family="Ubuntu Mono" font-size="12.00">_hel_comparision</text>
</a>
</g>
</g>
<!-- Node24&#45;&gt;Node25 -->
<g id="edge1" class="edge"><title>Node24&#45;&gt;Node25</title>
<path fill="none" stroke="midnightblue" d="M88.471,-215.87C102.686,-254.264 138.696,-337.644 197,-382.555 204.129,-388.046 212.416,-392.384 220.971,-395.809"/>
<polygon fill="midnightblue" stroke="midnightblue" points="91.7102,-214.534 85.0391,-206.303 85.1213,-216.898 91.7102,-214.534"/>
</g>
<!-- Node28 -->
<g id="node5" class="node"><title>Node28</title>
<g id="a_node5"><a xlink:href="driver__X_8f90.html#ae1cbf887791dfb7f7ccf42abb9a8aed6" target="_top" xlink:title="plot_info_for_vmec\l_hel_comparison">
<polygon fill="white" stroke="black" points="221,-338.555 221,-372.555 346,-372.555 346,-338.555 221,-338.555"/>
<text text-anchor="start" x="229" y="-358.955" font-family="Ubuntu Mono" font-size="12.00">plot_info_for_vmec</text>
<text text-anchor="middle" x="283.5" y="-345.955" font-family="Ubuntu Mono" font-size="12.00">_hel_comparison</text>
</a>
</g>
</g>
<!-- Node24&#45;&gt;Node28 -->
<g id="edge4" class="edge"><title>Node24&#45;&gt;Node28</title>
<path fill="none" stroke="midnightblue" d="M93.289,-215.273C111.763,-244.5 150.294,-299.134 197,-329.555 204.28,-334.297 212.467,-338.208 220.815,-341.426"/>
<polygon fill="midnightblue" stroke="midnightblue" points="96.0443,-213.073 87.81,-206.407 90.0895,-216.753 96.0443,-213.073"/>
</g>
<!-- Node31 -->
<g id="node8" class="node"><title>Node31</title>
<g id="a_node8"><a xlink:href="eq__ops_8f90.html#aecc1d4103aa82217d3014ebb09d7f1e5" target="_top" xlink:title="write_flux_q_in_file\l_for_vmec">
<polygon fill="white" stroke="black" points="215,-285.555 215,-319.555 352,-319.555 352,-285.555 215,-285.555"/>
<text text-anchor="start" x="223" y="-305.955" font-family="Ubuntu Mono" font-size="12.00">write_flux_q_in_file</text>
<text text-anchor="middle" x="283.5" y="-292.955" font-family="Ubuntu Mono" font-size="12.00">_for_vmec</text>
</a>
</g>
</g>
<!-- Node24&#45;&gt;Node31 -->
<g id="edge8" class="edge"><title>Node24&#45;&gt;Node31</title>
<path fill="none" stroke="midnightblue" d="M102.25,-212.812C124.493,-230.596 161.423,-258.113 197,-275.555 204.408,-279.187 212.413,-282.472 220.451,-285.398"/>
<polygon fill="midnightblue" stroke="midnightblue" points="104.178,-209.87 94.2063,-206.291 99.77,-215.308 104.178,-209.87"/>
</g>
<!-- Node32 -->
<g id="node9" class="node"><title>Node32</title>
<g id="a_node9"><a xlink:href="namespaceeq__ops.html#aef40d04e93f6a96576f8fe893fb086f8" target="_top" xlink:title="eq_ops::test_jac_v">
<polygon fill="white" stroke="black" points="221,-245.055 221,-266.055 346,-266.055 346,-245.055 221,-245.055"/>
<text text-anchor="middle" x="283.5" y="-252.455" font-family="Ubuntu Mono" font-size="12.00">eq_ops::test_jac_v</text>
</a>
</g>
</g>
<!-- Node24&#45;&gt;Node32 -->
<g id="edge9" class="edge"><title>Node24&#45;&gt;Node32</title>
<path fill="none" stroke="midnightblue" d="M118.745,-209.554C141.223,-217.726 170.542,-227.901 197,-235.555 208.715,-238.944 221.458,-242.168 233.442,-244.999"/>
<polygon fill="midnightblue" stroke="midnightblue" points="119.841,-206.228 109.247,-206.072 117.432,-212.8 119.841,-206.228"/>
</g>
<!-- Node34 -->
<g id="node11" class="node"><title>Node34</title>
<g id="a_node11"><a xlink:href="namespacehelena__ops.html#a0f156b3653264fb016d6d311eb59114c" target="_top" xlink:title="helena_ops::test_metrics_h">
<polygon fill="white" stroke="black" points="197,-205.055 197,-226.055 370,-226.055 370,-205.055 197,-205.055"/>
<text text-anchor="middle" x="283.5" y="-212.455" font-family="Ubuntu Mono" font-size="12.00">helena_ops::test_metrics_h</text>
</a>
</g>
</g>
<!-- Node24&#45;&gt;Node34 -->
<g id="edge11" class="edge"><title>Node24&#45;&gt;Node34</title>
<path fill="none" stroke="midnightblue" d="M171.203,-204.48C179.753,-205.331 188.409,-206.193 196.919,-207.039"/>
<polygon fill="midnightblue" stroke="midnightblue" points="171.527,-200.995 161.229,-203.488 170.833,-207.961 171.527,-200.995"/>
</g>
<!-- Node35 -->
<g id="node12" class="node"><title>Node35</title>
<g id="a_node12"><a xlink:href="namespacetest.html#af72aaa5773b5bef2ac8d25fd05378439" target="_top" xlink:title="test::test_interp">
<polygon fill="white" stroke="black" points="621,-110.055 621,-131.055 740,-131.055 740,-110.055 621,-110.055"/>
<text text-anchor="middle" x="680.5" y="-117.455" font-family="Ubuntu Mono" font-size="12.00">test::test_interp</text>
</a>
</g>
</g>
<!-- Node24&#45;&gt;Node35 -->
<g id="edge13" class="edge"><title>Node24&#45;&gt;Node35</title>
<path fill="none" stroke="midnightblue" d="M171.293,-187.096C268.902,-177.502 429.374,-160.563 567,-140.555 585.748,-137.829 606.164,-134.354 624.395,-131.067"/>
<polygon fill="midnightblue" stroke="midnightblue" points="170.781,-183.629 161.17,-188.087 171.463,-190.596 170.781,-183.629"/>
</g>
<!-- Node38 -->
<g id="node15" class="node"><title>Node38</title>
<g id="a_node15"><a xlink:href="test_8f90.html#ac59a32c8a4039263eb65c3990732d878" target="_top" xlink:title="setup_x">
<polygon fill="white" stroke="black" points="457,-110.055 457,-131.055 516,-131.055 516,-110.055 457,-110.055"/>
<text text-anchor="middle" x="486.5" y="-117.455" font-family="Ubuntu Mono" font-size="12.00">setup_x</text>
</a>
</g>
</g>
<!-- Node24&#45;&gt;Node38 -->
<g id="edge17" class="edge"><title>Node24&#45;&gt;Node38</title>
<path fill="none" stroke="midnightblue" d="M123.648,-182.045C145.382,-175.454 172.422,-167.83 197,-162.555 291.027,-142.373 404.4,-129.013 456.609,-123.466"/>
<polygon fill="midnightblue" stroke="midnightblue" points="122.596,-178.707 114.064,-184.989 124.651,-185.399 122.596,-178.707"/>
</g>
<!-- Node39 -->
<g id="node16" class="node"><title>Node39</title>
<g id="a_node16"><a xlink:href="test_8f90.html#a2da760282029987928d286425c000648" target="_top" xlink:title="random_int">
<polygon fill="white" stroke="black" points="245,-89.0548 245,-110.055 322,-110.055 322,-89.0548 245,-89.0548"/>
<text text-anchor="middle" x="283.5" y="-96.4548" font-family="Ubuntu Mono" font-size="12.00">random_int</text>
</a>
</g>
</g>
<!-- Node24&#45;&gt;Node39 -->
<g id="edge19" class="edge"><title>Node24&#45;&gt;Node39</title>
<path fill="none" stroke="midnightblue" d="M103.988,-179.212C126.566,-163.424 162.815,-139.732 197,-124.555 212.124,-117.84 229.542,-112.371 244.694,-108.279"/>
<polygon fill="midnightblue" stroke="midnightblue" points="101.893,-176.407 95.756,-185.043 105.939,-182.119 101.893,-176.407"/>
</g>
<!-- Node40 -->
<g id="node17" class="node"><title>Node40</title>
<g id="a_node17"><a xlink:href="test_8f90.html#aeb10d95d96ba86499fee37a84048e43c" target="_top" xlink:title="test_calc_rzl_vmec">
<polygon fill="white" stroke="black" points="424,-60.0548 424,-81.0548 549,-81.0548 549,-60.0548 424,-60.0548"/>
<text text-anchor="middle" x="486.5" y="-67.4548" font-family="Ubuntu Mono" font-size="12.00">test_calc_rzl_vmec</text>
</a>
</g>
</g>
<!-- Node24&#45;&gt;Node40 -->
<g id="edge21" class="edge"><title>Node24&#45;&gt;Node40</title>
<path fill="none" stroke="midnightblue" d="M93.6479,-176.247C112.119,-148.884 150.124,-99.8936 197,-79.5548 270.898,-47.4918 365.745,-52.1467 426.094,-60.0494"/>
<polygon fill="midnightblue" stroke="midnightblue" points="90.5036,-174.659 87.9465,-184.941 96.3572,-178.498 90.5036,-174.659"/>
</g>
<!-- Node42 -->
<g id="node19" class="node"><title>Node42</title>
<g id="a_node19"><a xlink:href="namespacetest.html#a0d4cb791bf762b2e52260fea7644a3ee" target="_top" xlink:title="test::test_calc_int_vol">
<polygon fill="white" stroke="black" points="603,-17.0548 603,-38.0548 758,-38.0548 758,-17.0548 603,-17.0548"/>
<text text-anchor="middle" x="680.5" y="-24.4548" font-family="Ubuntu Mono" font-size="12.00">test::test_calc_int_vol</text>
</a>
</g>
</g>
<!-- Node24&#45;&gt;Node42 -->
<g id="edge24" class="edge"><title>Node24&#45;&gt;Node42</title>
<path fill="none" stroke="midnightblue" d="M90.3201,-175.918C106.254,-143.113 143.251,-78.0535 197,-50.5548 339.225,22.2097 536.961,-0.583683 628.836,-17.011"/>
<polygon fill="midnightblue" stroke="midnightblue" points="87.144,-174.448 86.056,-184.987 93.4787,-177.427 87.144,-174.448"/>
</g>
<!-- Node26 -->
<g id="node3" class="node"><title>Node26</title>
<g id="a_node3"><a xlink:href="namespacedriver__eq.html#ac8eca434f541966edc3556d72f261eff" target="_top" xlink:title="driver_eq::run_driver_eq">
<polygon fill="white" stroke="black" points="794,-391.055 794,-412.055 955,-412.055 955,-391.055 794,-391.055"/>
<text text-anchor="middle" x="874.5" y="-398.455" font-family="Ubuntu Mono" font-size="12.00">driver_eq::run_driver_eq</text>
</a>
</g>
</g>
<!-- Node25&#45;&gt;Node26 -->
<g id="edge2" class="edge"><title>Node25&#45;&gt;Node26</title>
<path fill="none" stroke="midnightblue" d="M356.202,-407.703C466.825,-406.388 678.366,-403.874 793.699,-402.503"/>
<polygon fill="midnightblue" stroke="midnightblue" points="356.101,-404.204 346.143,-407.822 356.184,-411.203 356.101,-404.204"/>
</g>
<!-- Node27 -->
<g id="node4" class="node"><title>Node27</title>
<g id="a_node4"><a xlink:href="PB3D_8f90.html#afaee01f014ab3398eecac996b2795fd2" target="_top" xlink:title="pb3d">
<polygon fill="white" stroke="black" points="991,-345.055 991,-366.055 1032,-366.055 1032,-345.055 991,-345.055"/>
<text text-anchor="middle" x="1011.5" y="-352.455" font-family="Ubuntu Mono" font-size="12.00">pb3d</text>
</a>
</g>
</g>
<!-- Node26&#45;&gt;Node27 -->
<g id="edge3" class="edge"><title>Node26&#45;&gt;Node27</title>
<path fill="none" stroke="midnightblue" d="M915.999,-387.755C940.796,-379.306 971.413,-368.873 990.95,-362.216"/>
<polygon fill="midnightblue" stroke="midnightblue" points="914.808,-384.463 906.472,-391.001 917.066,-391.089 914.808,-384.463"/>
</g>
<!-- Node29 -->
<g id="node6" class="node"><title>Node29</title>
<g id="a_node6"><a xlink:href="namespacedriver__x.html#a454779cefa6da3714d32eedcec0ef7de" target="_top" xlink:title="driver_x::run_driver_x_1">
<polygon fill="white" stroke="black" points="406,-345.055 406,-366.055 567,-366.055 567,-345.055 406,-345.055"/>
<text text-anchor="middle" x="486.5" y="-352.455" font-family="Ubuntu Mono" font-size="12.00">driver_x::run_driver_x_1</text>
</a>
</g>
</g>
<!-- Node28&#45;&gt;Node29 -->
<g id="edge5" class="edge"><title>Node28&#45;&gt;Node29</title>
<path fill="none" stroke="midnightblue" d="M356.501,-355.555C372.477,-355.555 389.5,-355.555 405.765,-355.555"/>
<polygon fill="midnightblue" stroke="midnightblue" points="356.173,-352.055 346.173,-355.555 356.173,-359.055 356.173,-352.055"/>
</g>
<!-- Node30 -->
<g id="node7" class="node"><title>Node30</title>
<g id="a_node7"><a xlink:href="namespacedriver__x.html#ada3d72a0929daaa5e3da585246d62281" target="_top" xlink:title="driver_x::run_driver_x">
<polygon fill="white" stroke="black" points="606,-345.055 606,-366.055 755,-366.055 755,-345.055 606,-345.055"/>
<text text-anchor="middle" x="680.5" y="-352.455" font-family="Ubuntu Mono" font-size="12.00">driver_x::run_driver_x</text>
</a>
</g>
</g>
<!-- Node29&#45;&gt;Node30 -->
<g id="edge6" class="edge"><title>Node29&#45;&gt;Node30</title>
<path fill="none" stroke="midnightblue" d="M577.504,-355.555C586.992,-355.555 596.558,-355.555 605.83,-355.555"/>
<polygon fill="midnightblue" stroke="midnightblue" points="577.257,-352.055 567.257,-355.555 577.257,-359.055 577.257,-352.055"/>
</g>
<!-- Node30&#45;&gt;Node27 -->
<g id="edge7" class="edge"><title>Node30&#45;&gt;Node27</title>
<path fill="none" stroke="midnightblue" d="M765.352,-355.555C841.153,-355.555 947.313,-355.555 990.773,-355.555"/>
<polygon fill="midnightblue" stroke="midnightblue" points="765.334,-352.055 755.334,-355.555 765.334,-359.055 765.334,-352.055"/>
</g>
<!-- Node33 -->
<g id="node10" class="node"><title>Node33</title>
<g id="a_node10"><a xlink:href="namespaceeq__ops.html#a91256e08dadab2ccbabd66cf369c43a5" target="_top" xlink:title="eq_ops::calc_eq_2">
<polygon fill="white" stroke="black" points="427,-225.055 427,-246.055 546,-246.055 546,-225.055 427,-225.055"/>
<text text-anchor="middle" x="486.5" y="-232.455" font-family="Ubuntu Mono" font-size="12.00">eq_ops::calc_eq_2</text>
</a>
</g>
</g>
<!-- Node32&#45;&gt;Node33 -->
<g id="edge10" class="edge"><title>Node32&#45;&gt;Node33</title>
<path fill="none" stroke="midnightblue" d="M356.26,-248.414C379.351,-246.117 404.65,-243.6 426.696,-241.406"/>
<polygon fill="midnightblue" stroke="midnightblue" points="355.777,-244.945 346.173,-249.418 356.47,-251.911 355.777,-244.945"/>
</g>
<!-- Node34&#45;&gt;Node33 -->
<g id="edge12" class="edge"><title>Node34&#45;&gt;Node33</title>
<path fill="none" stroke="midnightblue" d="M380.399,-225.097C396.231,-226.672 412.215,-228.263 426.776,-229.712"/>
<polygon fill="midnightblue" stroke="midnightblue" points="380.331,-221.573 370.034,-224.066 379.638,-228.539 380.331,-221.573"/>
</g>
<!-- Node36 -->
<g id="node13" class="node"><title>Node36</title>
<g id="a_node13"><a xlink:href="namespacetest.html#aca21ee464c0b1f4b617177afdde110ec" target="_top" xlink:title="test::generic_tests">
<polygon fill="white" stroke="black" points="809,-88.0548 809,-109.055 940,-109.055 940,-88.0548 809,-88.0548"/>
<text text-anchor="middle" x="874.5" y="-95.4548" font-family="Ubuntu Mono" font-size="12.00">test::generic_tests</text>
</a>
</g>
</g>
<!-- Node35&#45;&gt;Node36 -->
<g id="edge14" class="edge"><title>Node35&#45;&gt;Node36</title>
<path fill="none" stroke="midnightblue" d="M750.27,-112.675C769.357,-110.488 790.01,-108.121 808.853,-105.962"/>
<polygon fill="midnightblue" stroke="midnightblue" points="749.686,-109.219 740.15,-113.835 750.483,-116.173 749.686,-109.219"/>
</g>
<!-- Node36&#45;&gt;Node27 -->
<g id="edge15" class="edge"><title>Node36&#45;&gt;Node27</title>
<path fill="none" stroke="midnightblue" d="M885.895,-118.344C912.83,-169.621 984.223,-305.531 1004.85,-344.793"/>
<polygon fill="midnightblue" stroke="midnightblue" points="888.878,-116.496 881.129,-109.271 882.681,-119.751 888.878,-116.496"/>
</g>
<!-- Node37 -->
<g id="node14" class="node"><title>Node37</title>
<g id="a_node14"><a xlink:href="POST_8f90.html#ac289b64ac4671fea0b4f2298ba1188a1" target="_top" xlink:title="post">
<polygon fill="white" stroke="black" points="991,-88.0548 991,-109.055 1032,-109.055 1032,-88.0548 991,-88.0548"/>
<text text-anchor="middle" x="1011.5" y="-95.4548" font-family="Ubuntu Mono" font-size="12.00">post</text>
</a>
</g>
</g>
<!-- Node36&#45;&gt;Node37 -->
<g id="edge16" class="edge"><title>Node36&#45;&gt;Node37</title>
<path fill="none" stroke="midnightblue" d="M950.578,-98.5548C965.46,-98.5548 979.845,-98.5548 990.789,-98.5548"/>
<polygon fill="midnightblue" stroke="midnightblue" points="950.232,-95.0549 940.232,-98.5548 950.232,-102.055 950.232,-95.0549"/>
</g>
<!-- Node38&#45;&gt;Node35 -->
<g id="edge18" class="edge"><title>Node38&#45;&gt;Node35</title>
<path fill="none" stroke="midnightblue" d="M526.491,-120.555C553.572,-120.555 590.143,-120.555 620.741,-120.555"/>
<polygon fill="midnightblue" stroke="midnightblue" points="526.244,-117.055 516.244,-120.555 526.244,-124.055 526.244,-117.055"/>
</g>
<!-- Node39&#45;&gt;Node38 -->
<g id="edge20" class="edge"><title>Node39&#45;&gt;Node38</title>
<path fill="none" stroke="midnightblue" d="M332.334,-104.552C371.139,-108.607 424.543,-114.186 456.955,-117.572"/>
<polygon fill="midnightblue" stroke="midnightblue" points="332.616,-101.063 322.307,-103.505 331.889,-108.025 332.616,-101.063"/>
</g>
<!-- Node41 -->
<g id="node18" class="node"><title>Node41</title>
<g id="a_node18"><a xlink:href="namespacetest.html#a4a25e64af6b986091f9e49ba447fc5c4" target="_top" xlink:title="test::test_calc_rzl">
<polygon fill="white" stroke="black" points="615,-66.0548 615,-87.0548 746,-87.0548 746,-66.0548 615,-66.0548"/>
<text text-anchor="middle" x="680.5" y="-73.4548" font-family="Ubuntu Mono" font-size="12.00">test::test_calc_rzl</text>
</a>
</g>
</g>
<!-- Node40&#45;&gt;Node41 -->
<g id="edge22" class="edge"><title>Node40&#45;&gt;Node41</title>
<path fill="none" stroke="midnightblue" d="M559.082,-72.7917C577.424,-73.3649 597.039,-73.9779 614.999,-74.5392"/>
<polygon fill="midnightblue" stroke="midnightblue" points="559.147,-69.2921 549.042,-72.478 558.928,-76.2887 559.147,-69.2921"/>
</g>
<!-- Node41&#45;&gt;Node36 -->
<g id="edge23" class="edge"><title>Node41&#45;&gt;Node36</title>
<path fill="none" stroke="midnightblue" d="M756.296,-85.1252C773.604,-87.1084 791.881,-89.2026 808.72,-91.1321"/>
<polygon fill="midnightblue" stroke="midnightblue" points="756.568,-81.6336 746.235,-83.9723 755.771,-88.588 756.568,-81.6336"/>
</g>
<!-- Node42&#45;&gt;Node36 -->
<g id="edge25" class="edge"><title>Node42&#45;&gt;Node36</title>
<path fill="none" stroke="midnightblue" d="M719.67,-41.6696C756.557,-55.3101 811.602,-75.6653 844.873,-87.9688"/>
<polygon fill="midnightblue" stroke="midnightblue" points="720.838,-38.3699 710.244,-38.1842 718.41,-44.9354 720.838,-38.3699"/>
</g>
</g>
</svg>
