<?xml version="1.0" encoding="UTF-8" standalone="no"?>
<!DOCTYPE svg PUBLIC "-//W3C//DTD SVG 1.1//EN"
 "http://www.w3.org/Graphics/SVG/1.1/DTD/svg11.dtd">
<!-- Generated by graphviz version 14.1.2 (20260124.0452)
 -->
<!-- Title: x_ops::init_modes Pages: 1 -->
<svg width="618pt" height="144pt"
 viewBox="0.00 0.00 618.00 144.00" xmlns="http://www.w3.org/2000/svg" xmlns:xlink="http://www.w3.org/1999/xlink">
<g id="graph0" class="graph" transform="scale(1 1) rotate(0) translate(4 139.75)">
<title>x_ops::init_modes</title>
<!-- Node1 -->
<g id="Node000001" class="node">
<title>Node1</title>
<g id="a_Node000001"><a xlink:title="Initializes some variables concerning the mode numbers.">
<polygon fill="#999999" stroke="#666666" points="610,-77.75 492,-77.75 492,-57 610,-57 610,-77.75"/>
<text xml:space="preserve" text-anchor="middle" x="551" y="-62.35" font-family="Ubuntu Mono" font-size="12.00">x_ops::init_modes</text>
</a>
</g>
</g>
<!-- Node2 -->
<g id="Node000002" class="node">
<title>Node2</title>
<g id="a_Node000002"><a xlink:href="namespacedriver__post.html#af527706d4e696d4e507443d2f74194ef" target="_top" xlink:title="Initializes the POST driver.">
<polygon fill="white" stroke="#666666" points="272,-135.75 124,-135.75 124,-115 272,-115 272,-135.75"/>
<text xml:space="preserve" text-anchor="middle" x="198" y="-120.35" font-family="Ubuntu Mono" font-size="12.00">driver_post::init_post</text>
</a>
</g>
</g>
<!-- Node1&#45;&gt;Node2 -->
<g id="edge1_Node000001_Node000002" class="edge">
<title>Node1&#45;&gt;Node2</title>
<g id="a_edge1_Node000001_Node000002"><a xlink:title=" ">
<path fill="none" stroke="#63b8ff" d="M519.21,-83.09C501.24,-91.5 477.88,-101.17 456,-106.38 395.17,-120.84 324.17,-125.18 272.23,-126.13"/>
<polygon fill="#63b8ff" stroke="#63b8ff" points="520.51,-86.34 528,-78.85 517.47,-80.04 520.51,-86.34"/>
</a>
</g>
</g>
<!-- Node4 -->
<g id="Node000004" class="node">
<title>Node4</title>
<g id="a_Node000004"><a xlink:href="namespacerich__ops.html#a9fbbda93eab8973d33063e277c489e7b" target="_top" xlink:title="Initialize Richardson extrapolation system.">
<polygon fill="white" stroke="#666666" points="263,-20.75 133,-20.75 133,0 263,0 263,-20.75"/>
<text xml:space="preserve" text-anchor="middle" x="198" y="-5.35" font-family="Ubuntu Mono" font-size="12.00">rich_ops::init_rich</text>
</a>
</g>
</g>
<!-- Node1&#45;&gt;Node4 -->
<g id="edge3_Node000001_Node000004" class="edge">
<title>Node1&#45;&gt;Node4</title>
<g id="a_edge3_Node000001_Node000004"><a xlink:title=" ">
<path fill="none" stroke="#63b8ff" d="M518.56,-51.8C500.66,-43.68 477.58,-34.4 456,-29.38 391.62,-14.37 315.95,-10.36 263.46,-9.65"/>
<polygon fill="#63b8ff" stroke="#63b8ff" points="517.05,-54.96 527.59,-56.02 520.02,-48.62 517.05,-54.96"/>
</a>
</g>
</g>
<!-- Node6 -->
<g id="Node000006" class="node">
<title>Node6</title>
<g id="a_Node000006"><a xlink:href="test_8f90.html#a197914f99b7e194fb4bca9ca3669e0e8" target="_top" xlink:title=" ">
<polygon fill="white" stroke="#666666" points="408,-97.75 356,-97.75 356,-77 408,-77 408,-97.75"/>
<text xml:space="preserve" text-anchor="middle" x="382" y="-82.35" font-family="Ubuntu Mono" font-size="12.00">plot_y</text>
</a>
</g>
</g>
<!-- Node1&#45;&gt;Node6 -->
<g id="edge5_Node000001_Node000006" class="edge">
<title>Node1&#45;&gt;Node6</title>
<g id="a_edge5_Node000001_Node000006"><a xlink:title=" ">
<path fill="none" stroke="#63b8ff" d="M480.43,-75.71C454.94,-78.76 427.67,-82.03 408.48,-84.32"/>
<polygon fill="#63b8ff" stroke="#63b8ff" points="480.58,-79.21 490.09,-74.55 479.74,-72.26 480.58,-79.21"/>
</a>
</g>
</g>
<!-- Node8 -->
<g id="Node000008" class="node">
<title>Node8</title>
<g id="a_Node000008"><a xlink:href="namespacedriver__x.html#a0dafd879836a65efc2ec726d04368532" target="_top" xlink:title="Main driver of PB3D perturbation part.">
<polygon fill="white" stroke="#666666" points="456,-58.75 308,-58.75 308,-38 456,-38 456,-58.75"/>
<text xml:space="preserve" text-anchor="middle" x="382" y="-43.35" font-family="Ubuntu Mono" font-size="12.00">driver_x::run_driver_x</text>
</a>
</g>
</g>
<!-- Node1&#45;&gt;Node8 -->
<g id="edge9_Node000001_Node000008" class="edge">
<title>Node1&#45;&gt;Node8</title>
<g id="a_edge9_Node000001_Node000008"><a xlink:title=" ">
<path fill="none" stroke="#63b8ff" d="M480.2,-59.43C472.32,-58.54 464.27,-57.62 456.35,-56.72"/>
<polygon fill="#63b8ff" stroke="#63b8ff" points="479.76,-62.91 490.09,-60.56 480.55,-55.95 479.76,-62.91"/>
</a>
</g>
</g>
<!-- Node3 -->
<g id="Node000003" class="node">
<title>Node3</title>
<g id="a_Node000003"><a xlink:href="POST_8f90.html#a28f8fd95cf9c74c0cfd8b386827a7a9b" target="_top" xlink:title="Peeling Ballooning in 3D: postprocessing.">
<polygon fill="white" stroke="#666666" points="88,-116.75 0,-116.75 0,-96 88,-96 88,-116.75"/>
<text xml:space="preserve" text-anchor="middle" x="44" y="-101.35" font-family="Ubuntu Mono" font-size="12.00">__post_f90__</text>
</a>
</g>
</g>
<!-- Node2&#45;&gt;Node3 -->
<g id="edge2_Node000002_Node000003" class="edge">
<title>Node2&#45;&gt;Node3</title>
<g id="a_edge2_Node000002_Node000003"><a xlink:title=" ">
<path fill="none" stroke="#63b8ff" d="M112.3,-114.79C103.99,-113.75 95.82,-112.73 88.2,-111.78"/>
<polygon fill="#63b8ff" stroke="#63b8ff" points="111.81,-118.25 122.17,-116.02 112.68,-111.31 111.81,-118.25"/>
</a>
</g>
</g>
<!-- Node5 -->
<g id="Node000005" class="node">
<title>Node5</title>
<g id="a_Node000005"><a xlink:href="PB3D_8f90.html#a36e5b0ce05c9783f58b43c4463b290a1" target="_top" xlink:title="Peeling Ballooning in 3D.">
<polygon fill="white" stroke="#666666" points="88,-58.75 0,-58.75 0,-38 88,-38 88,-58.75"/>
<text xml:space="preserve" text-anchor="middle" x="44" y="-43.35" font-family="Ubuntu Mono" font-size="12.00">__pb3d_f90__</text>
</a>
</g>
</g>
<!-- Node4&#45;&gt;Node5 -->
<g id="edge4_Node000004_Node000005" class="edge">
<title>Node4&#45;&gt;Node5</title>
<g id="a_edge4_Node000004_Node000005"><a xlink:title=" ">
<path fill="none" stroke="#63b8ff" d="M142.69,-23.95C124.82,-28.42 105.2,-33.33 88.26,-37.56"/>
<polygon fill="#63b8ff" stroke="#63b8ff" points="143.53,-27.35 152.38,-21.53 141.83,-20.56 143.53,-27.35"/>
</a>
</g>
</g>
<!-- Node7 -->
<g id="Node000007" class="node">
<title>Node7</title>
<g id="a_Node000007"><a xlink:href="namespacetest.html#aca21ee464c0b1f4b617177afdde110ec" target="_top" xlink:title="Performs generic tests.">
<polygon fill="white" stroke="#666666" points="263,-96.75 133,-96.75 133,-76 263,-76 263,-96.75"/>
<text xml:space="preserve" text-anchor="middle" x="198" y="-81.35" font-family="Ubuntu Mono" font-size="12.00">test::generic_tests</text>
</a>
</g>
</g>
<!-- Node6&#45;&gt;Node7 -->
<g id="edge6_Node000006_Node000007" class="edge">
<title>Node6&#45;&gt;Node7</title>
<g id="a_edge6_Node000006_Node000007"><a xlink:title=" ">
<path fill="none" stroke="#63b8ff" d="M344.29,-87.17C321.07,-87.05 290.42,-86.88 263.26,-86.73"/>
<polygon fill="#63b8ff" stroke="#63b8ff" points="344.16,-90.67 354.18,-87.23 344.2,-83.67 344.16,-90.67"/>
</a>
</g>
</g>
<!-- Node7&#45;&gt;Node3 -->
<g id="edge8_Node000007_Node000003" class="edge">
<title>Node7&#45;&gt;Node3</title>
<g id="a_edge8_Node000007_Node000003"><a xlink:title=" ">
<path fill="none" stroke="#63b8ff" d="M121.3,-96.34C110.01,-97.82 98.72,-99.31 88.42,-100.66"/>
<polygon fill="#63b8ff" stroke="#63b8ff" points="121.58,-99.83 131.04,-95.05 120.67,-92.89 121.58,-99.83"/>
</a>
</g>
</g>
<!-- Node7&#45;&gt;Node5 -->
<g id="edge7_Node000007_Node000005" class="edge">
<title>Node7&#45;&gt;Node5</title>
<g id="a_edge7_Node000007_Node000005"><a xlink:title=" ">
<path fill="none" stroke="#63b8ff" d="M142.69,-72.8C124.82,-68.33 105.2,-63.42 88.26,-59.19"/>
<polygon fill="#63b8ff" stroke="#63b8ff" points="141.83,-76.19 152.38,-75.22 143.53,-69.4 141.83,-76.19"/>
</a>
</g>
</g>
<!-- Node8&#45;&gt;Node5 -->
<g id="edge10_Node000008_Node000005" class="edge">
<title>Node8&#45;&gt;Node5</title>
<g id="a_edge10_Node000008_Node000005"><a xlink:title=" ">
<path fill="none" stroke="#63b8ff" d="M296.43,-48.38C230.21,-48.38 140.81,-48.38 88.38,-48.38"/>
<polygon fill="#63b8ff" stroke="#63b8ff" points="296.17,-51.88 306.17,-48.38 296.16,-44.88 296.17,-51.88"/>
</a>
</g>
</g>
</g>
</svg>
