<?xml version="1.0" encoding="UTF-8" standalone="no"?>
<!DOCTYPE svg PUBLIC "-//W3C//DTD SVG 1.1//EN"
 "http://www.w3.org/Graphics/SVG/1.1/DTD/svg11.dtd">
<!-- Generated by graphviz version 2.38.0 (20140413.2041)
 -->
<!-- Title: grid_utilities::setup_interp_data Pages: 1 -->
<svg width="515pt" height="130pt"
 viewBox="0.00 0.00 515.00 130.00" xmlns="http://www.w3.org/2000/svg" xmlns:xlink="http://www.w3.org/1999/xlink">
<g id="graph0" class="graph" transform="scale(1 1) rotate(0) translate(4 126)">
<title>grid_utilities::setup_interp_data</title>
<polygon fill="white" stroke="none" points="-4,4 -4,-126 511,-126 511,4 -4,4"/>
<!-- Node177 -->
<g id="node1" class="node"><title>Node177</title>
<polygon fill="#bfbfbf" stroke="black" points="0,-34 0,-68 143,-68 143,-34 0,-34"/>
<text text-anchor="start" x="8" y="-54.4" font-family="Ubuntu Mono" font-size="12.00">grid_utilities::setup</text>
<text text-anchor="middle" x="71.5" y="-41.4" font-family="Ubuntu Mono" font-size="12.00">_interp_data</text>
</g>
<!-- Node178 -->
<g id="node2" class="node"><title>Node178</title>
<g id="a_node2"><a xlink:href="namespacemessages.html#aa4a8d01563e92558e8a0875b075ec54c" target="_top" xlink:title="Write output to file identified by output_i. ">
<polygon fill="white" stroke="black" points="194,-80.5 194,-101.5 301,-101.5 301,-80.5 194,-80.5"/>
<text text-anchor="middle" x="247.5" y="-87.9" font-family="Ubuntu Mono" font-size="12.00">messages::writo</text>
</a>
</g>
</g>
<!-- Node177&#45;&gt;Node178 -->
<g id="edge1" class="edge"><title>Node177&#45;&gt;Node178</title>
<path fill="none" stroke="midnightblue" d="M143.022,-67.2119C158.941,-70.8714 175.624,-74.7066 190.832,-78.2028"/>
<polygon fill="midnightblue" stroke="midnightblue" points="190.061,-81.6167 200.591,-80.4461 191.629,-74.7946 190.061,-81.6167"/>
</g>
<!-- Node181 -->
<g id="node5" class="node"><title>Node181</title>
<g id="a_node5"><a xlink:href="namespacestr__utilities.html#a0b97e51770725a3e98ed393d26681414" target="_top" xlink:title="Convert an integer to string. ">
<polygon fill="white" stroke="black" points="179,-40.5 179,-61.5 316,-61.5 316,-40.5 179,-40.5"/>
<text text-anchor="middle" x="247.5" y="-47.9" font-family="Ubuntu Mono" font-size="12.00">str_utilities::i2str</text>
</a>
</g>
</g>
<!-- Node177&#45;&gt;Node181 -->
<g id="edge4" class="edge"><title>Node177&#45;&gt;Node181</title>
<path fill="none" stroke="midnightblue" d="M143.022,-51C151.553,-51 160.304,-51 168.929,-51"/>
<polygon fill="midnightblue" stroke="midnightblue" points="168.977,-54.5001 178.977,-51 168.977,-47.5001 168.977,-54.5001"/>
</g>
<!-- Node182 -->
<g id="node6" class="node"><title>Node182</title>
<g id="a_node6"><a xlink:href="namespacestr__utilities.html#a92ac6c0af1979df094de1caddd28ade0" target="_top" xlink:title="Convert a real (double) to string. ">
<polygon fill="white" stroke="black" points="179,-0.5 179,-21.5 316,-21.5 316,-0.5 179,-0.5"/>
<text text-anchor="middle" x="247.5" y="-7.9" font-family="Ubuntu Mono" font-size="12.00">str_utilities::r2str</text>
</a>
</g>
</g>
<!-- Node177&#45;&gt;Node182 -->
<g id="edge5" class="edge"><title>Node177&#45;&gt;Node182</title>
<path fill="none" stroke="midnightblue" d="M143.022,-34.7881C158.941,-31.1286 175.624,-27.2934 190.832,-23.7972"/>
<polygon fill="midnightblue" stroke="midnightblue" points="191.629,-27.2054 200.591,-21.5539 190.061,-20.3833 191.629,-27.2054"/>
</g>
<!-- Node179 -->
<g id="node3" class="node"><title>Node179</title>
<g id="a_node3"><a xlink:href="namespacemessages.html#a82dddaab795b78b3d39e1ff1aab2f665" target="_top" xlink:title="Returns the memory usage in kilobytes. ">
<polygon fill="white" stroke="black" points="352,-100.5 352,-121.5 507,-121.5 507,-100.5 352,-100.5"/>
<text text-anchor="middle" x="429.5" y="-107.9" font-family="Ubuntu Mono" font-size="12.00">messages::get_mem_usage</text>
</a>
</g>
</g>
<!-- Node178&#45;&gt;Node179 -->
<g id="edge2" class="edge"><title>Node178&#45;&gt;Node179</title>
<path fill="none" stroke="midnightblue" d="M301.047,-96.8386C313.823,-98.2581 327.824,-99.8138 341.723,-101.358"/>
<polygon fill="midnightblue" stroke="midnightblue" points="341.481,-104.853 351.806,-102.478 342.254,-97.8954 341.481,-104.853"/>
</g>
<!-- Node180 -->
<g id="node4" class="node"><title>Node180</title>
<g id="a_node4"><a xlink:href="namespacemessages.html#a61fd0b51b5e37d58fdc993c01792a3fd" target="_top" xlink:title="Returns the time. ">
<polygon fill="white" stroke="black" points="364,-60.5 364,-81.5 495,-81.5 495,-60.5 364,-60.5"/>
<text text-anchor="middle" x="429.5" y="-67.9" font-family="Ubuntu Mono" font-size="12.00">messages::get_clock</text>
</a>
</g>
</g>
<!-- Node178&#45;&gt;Node180 -->
<g id="edge3" class="edge"><title>Node178&#45;&gt;Node180</title>
<path fill="none" stroke="midnightblue" d="M301.047,-85.1614C317.442,-83.3398 335.855,-81.2939 353.479,-79.3357"/>
<polygon fill="midnightblue" stroke="midnightblue" points="354.191,-82.7782 363.743,-78.1952 353.418,-75.821 354.191,-82.7782"/>
</g>
</g>
</svg>
