<?xml version="1.0" encoding="UTF-8" standalone="no"?>
<!DOCTYPE svg PUBLIC "-//W3C//DTD SVG 1.1//EN"
 "http://www.w3.org/Graphics/SVG/1.1/DTD/svg11.dtd">
<!-- Generated by graphviz version 2.38.0 (20140413.2041)
 -->
<!-- Title: eq_utilities::calc_g Pages: 1 -->
<svg width="330pt" height="96pt"
 viewBox="0.00 0.00 330.00 96.00" xmlns="http://www.w3.org/2000/svg" xmlns:xlink="http://www.w3.org/1999/xlink">
<g id="graph0" class="graph" transform="scale(1 1) rotate(0) translate(4 92)">
<title>eq_utilities::calc_g</title>
<polygon fill="white" stroke="none" points="-4,4 -4,-92 326,-92 326,4 -4,4"/>
<!-- Node1 -->
<g id="node1" class="node"><title>Node1</title>
<polygon fill="#bfbfbf" stroke="black" points="0,-33 0,-54 137,-54 137,-33 0,-33"/>
<text text-anchor="middle" x="68.5" y="-40.4" font-family="Ubuntu Mono" font-size="12.00">eq_utilities::calc_g</text>
</g>
<!-- Node2 -->
<g id="node2" class="node"><title>Node2</title>
<g id="a_node2"><a xlink:href="interfaceeq__ops_1_1calc__g__v.html#a16fcebfd6f70491ec6d66534cd50c7a4" target="_top" xlink:title="individual version ">
<polygon fill="white" stroke="black" points="173,-53.5 173,-87.5 322,-87.5 322,-53.5 173,-53.5"/>
<text text-anchor="start" x="181" y="-73.9" font-family="Ubuntu Mono" font-size="12.00">eq_ops::calc_g_v::calc</text>
<text text-anchor="middle" x="247.5" y="-60.9" font-family="Ubuntu Mono" font-size="12.00">_g_v_ind</text>
</a>
</g>
</g>
<!-- Node1&#45;&gt;Node2 -->
<g id="edge1" class="edge"><title>Node1&#45;&gt;Node2</title>
<path fill="none" stroke="midnightblue" d="M147.158,-55.3461C155.733,-56.6543 164.447,-57.9834 172.97,-59.2835"/>
<polygon fill="midnightblue" stroke="midnightblue" points="147.587,-51.8712 137.174,-53.8231 146.532,-58.7912 147.587,-51.8712"/>
</g>
<!-- Node3 -->
<g id="node3" class="node"><title>Node3</title>
<g id="a_node3"><a xlink:href="interfaceeq__ops_1_1calc__g__f.html#a2c6ba8f85bc6ab16e69d4ec2ccaa317a" target="_top" xlink:title="individual version ">
<polygon fill="white" stroke="black" points="173,-0.5 173,-34.5 322,-34.5 322,-0.5 173,-0.5"/>
<text text-anchor="start" x="181" y="-20.9" font-family="Ubuntu Mono" font-size="12.00">eq_ops::calc_g_f::calc</text>
<text text-anchor="middle" x="247.5" y="-7.9" font-family="Ubuntu Mono" font-size="12.00">_g_f_ind</text>
</a>
</g>
</g>
<!-- Node1&#45;&gt;Node3 -->
<g id="edge2" class="edge"><title>Node1&#45;&gt;Node3</title>
<path fill="none" stroke="midnightblue" d="M147.158,-32.0926C155.733,-30.8329 164.447,-29.553 172.97,-28.3011"/>
<polygon fill="midnightblue" stroke="midnightblue" points="146.559,-28.643 137.174,-33.5592 147.576,-35.5686 146.559,-28.643"/>
</g>
</g>
</svg>
