<?xml version="1.0" encoding="UTF-8" standalone="no"?>
<!DOCTYPE svg PUBLIC "-//W3C//DTD SVG 1.1//EN"
 "http://www.w3.org/Graphics/SVG/1.1/DTD/svg11.dtd">
<!-- Generated by graphviz version 2.38.0 (20140413.2041)
 -->
<!-- Title: pb3d_ops::reconstruct_pb3d_in Pages: 1 -->
<svg width="1076pt" height="495pt"
 viewBox="0.00 0.00 1076.00 495.14" xmlns="http://www.w3.org/2000/svg" xmlns:xlink="http://www.w3.org/1999/xlink">
<g id="graph0" class="graph" transform="scale(1 1) rotate(0) translate(4 491.142)">
<title>pb3d_ops::reconstruct_pb3d_in</title>
<polygon fill="white" stroke="none" points="-4,4 -4,-491.142 1072,-491.142 1072,4 -4,4"/>
<!-- Node114 -->
<g id="node1" class="node"><title>Node114</title>
<polygon fill="#bfbfbf" stroke="black" points="0,-98 0,-132 143,-132 143,-98 0,-98"/>
<text text-anchor="start" x="8" y="-118.4" font-family="Ubuntu Mono" font-size="12.00">pb3d_ops::reconstruct</text>
<text text-anchor="middle" x="71.5" y="-105.4" font-family="Ubuntu Mono" font-size="12.00">_pb3d_in</text>
</g>
<!-- Node115 -->
<g id="node2" class="node"><title>Node115</title>
<g id="a_node2"><a xlink:href="namespacehdf5__ops.html#a5108e0d6f6b492cb981505ebceedd9ee" target="_top" xlink:title="hdf5_ops::read_hdf5_arr">
<polygon fill="white" stroke="black" points="179,-169.5 179,-190.5 334,-190.5 334,-169.5 179,-169.5"/>
<text text-anchor="middle" x="256.5" y="-176.9" font-family="Ubuntu Mono" font-size="12.00">hdf5_ops::read_hdf5_arr</text>
</a>
</g>
</g>
<!-- Node114&#45;&gt;Node115 -->
<g id="edge1" class="edge"><title>Node114&#45;&gt;Node115</title>
<path fill="none" stroke="midnightblue" d="M120.581,-132.078C150.421,-142.677 188.28,-156.124 216.295,-166.075"/>
<polygon fill="midnightblue" stroke="midnightblue" points="215.169,-169.389 225.764,-169.438 217.512,-162.793 215.169,-169.389"/>
</g>
<!-- Node122 -->
<g id="node9" class="node"><title>Node122</title>
<g id="a_node9"><a xlink:href="namespacestr__utilities.html#ac778d706b2e021672618939ab58fdd32" target="_top" xlink:title="str_utilities::r2strt">
<polygon fill="white" stroke="black" points="740,-460.5 740,-481.5 883,-481.5 883,-460.5 740,-460.5"/>
<text text-anchor="middle" x="811.5" y="-467.9" font-family="Ubuntu Mono" font-size="12.00">str_utilities::r2strt</text>
</a>
</g>
</g>
<!-- Node114&#45;&gt;Node122 -->
<g id="edge31" class="edge"><title>Node114&#45;&gt;Node122</title>
<path fill="none" stroke="midnightblue" d="M85.8008,-132.379C136.399,-196.67 325.068,-420.136 543,-475 605.518,-490.739 678.882,-488.235 732.951,-482.643"/>
<polygon fill="midnightblue" stroke="midnightblue" points="733.597,-486.093 743.157,-481.528 732.836,-479.135 733.597,-486.093"/>
</g>
<!-- Node128 -->
<g id="node15" class="node"><title>Node128</title>
<g id="a_node15"><a xlink:href="namespacemessages.html#aa4a8d01563e92558e8a0875b075ec54c" target="_top" xlink:title="messages::writo">
<polygon fill="white" stroke="black" points="567,-51.5 567,-72.5 674,-72.5 674,-51.5 567,-51.5"/>
<text text-anchor="middle" x="620.5" y="-58.9" font-family="Ubuntu Mono" font-size="12.00">messages::writo</text>
</a>
</g>
</g>
<!-- Node114&#45;&gt;Node128 -->
<g id="edge28" class="edge"><title>Node114&#45;&gt;Node128</title>
<path fill="none" stroke="midnightblue" d="M143.144,-101.91C203.243,-91.3519 291.97,-77.1273 370,-70 433.392,-64.2098 506.175,-62.4303 556.704,-61.9654"/>
<polygon fill="midnightblue" stroke="midnightblue" points="556.848,-65.4645 566.82,-61.8871 556.794,-58.4647 556.848,-65.4645"/>
</g>
<!-- Node132 -->
<g id="node19" class="node"><title>Node132</title>
<g id="a_node19"><a xlink:href="namespacemessages.html#a6e6bfb084063e4cc91ee86e542043302" target="_top" xlink:title="messages::lvl_ud">
<polygon fill="white" stroke="black" points="200,-0.5 200,-21.5 313,-21.5 313,-0.5 200,-0.5"/>
<text text-anchor="middle" x="256.5" y="-7.9" font-family="Ubuntu Mono" font-size="12.00">messages::lvl_ud</text>
</a>
</g>
</g>
<!-- Node114&#45;&gt;Node132 -->
<g id="edge29" class="edge"><title>Node114&#45;&gt;Node132</title>
<path fill="none" stroke="midnightblue" d="M91.6315,-97.7943C112.022,-80.2109 145.869,-53.1237 179,-36 187.204,-31.7598 196.271,-28.0426 205.208,-24.8611"/>
<polygon fill="midnightblue" stroke="midnightblue" points="206.454,-28.1347 214.809,-21.6196 204.215,-21.5025 206.454,-28.1347"/>
</g>
<!-- Node116 -->
<g id="node3" class="node"><title>Node116</title>
<g id="a_node3"><a xlink:href="namespacehdf5__utilities.html#a7574320980affc30a584f7776d33a51c" target="_top" xlink:title="hdf5_utilities::set\l_1d_vars">
<polygon fill="white" stroke="black" points="373,-209 373,-243 504,-243 504,-209 373,-209"/>
<text text-anchor="start" x="381" y="-229.4" font-family="Ubuntu Mono" font-size="12.00">hdf5_utilities::set</text>
<text text-anchor="middle" x="438.5" y="-216.4" font-family="Ubuntu Mono" font-size="12.00">_1d_vars</text>
</a>
</g>
</g>
<!-- Node115&#45;&gt;Node116 -->
<g id="edge2" class="edge"><title>Node115&#45;&gt;Node116</title>
<path fill="none" stroke="midnightblue" d="M298.796,-190.553C317.787,-195.407 340.92,-201.318 362.808,-206.912"/>
<polygon fill="midnightblue" stroke="midnightblue" points="362.202,-210.37 372.757,-209.455 363.935,-203.588 362.202,-210.37"/>
</g>
<!-- Node117 -->
<g id="node4" class="node"><title>Node117</title>
<g id="a_node4"><a xlink:href="namespacempi__utilities.html#a5a789d05be41d6109c01f46cc98620c8" target="_top" xlink:title="mpi_utilities::lock\l_req_acc">
<polygon fill="white" stroke="black" points="373,-275 373,-309 504,-309 504,-275 373,-275"/>
<text text-anchor="start" x="381" y="-295.4" font-family="Ubuntu Mono" font-size="12.00">mpi_utilities::lock</text>
<text text-anchor="middle" x="438.5" y="-282.4" font-family="Ubuntu Mono" font-size="12.00">_req_acc</text>
</a>
</g>
</g>
<!-- Node115&#45;&gt;Node117 -->
<g id="edge3" class="edge"><title>Node115&#45;&gt;Node117</title>
<path fill="none" stroke="midnightblue" d="M273.784,-190.67C295.565,-204.885 335.45,-230.715 370,-252 379.501,-257.853 389.834,-264.056 399.493,-269.786"/>
<polygon fill="midnightblue" stroke="midnightblue" points="397.741,-272.816 408.13,-274.892 401.303,-266.79 397.741,-272.816"/>
</g>
<!-- Node120 -->
<g id="node7" class="node"><title>Node120</title>
<g id="a_node7"><a xlink:href="namespacestr__utilities.html#a0b97e51770725a3e98ed393d26681414" target="_top" xlink:title="str_utilities::i2str">
<polygon fill="white" stroke="black" points="928,-167.5 928,-188.5 1065,-188.5 1065,-167.5 928,-167.5"/>
<text text-anchor="middle" x="996.5" y="-174.9" font-family="Ubuntu Mono" font-size="12.00">str_utilities::i2str</text>
</a>
</g>
</g>
<!-- Node115&#45;&gt;Node120 -->
<g id="edge26" class="edge"><title>Node115&#45;&gt;Node120</title>
<path fill="none" stroke="midnightblue" d="M334.045,-179.793C475.237,-179.41 775.212,-178.597 917.493,-178.211"/>
<polygon fill="midnightblue" stroke="midnightblue" points="917.883,-181.71 927.874,-178.183 917.864,-174.71 917.883,-181.71"/>
</g>
<!-- Node126 -->
<g id="node13" class="node"><title>Node126</title>
<g id="a_node13"><a xlink:href="namespacempi__utilities.html#a86f9982a0f92b51a916f832d9a3d8ba9" target="_top" xlink:title="mpi_utilities::lock\l_return_acc">
<polygon fill="white" stroke="black" points="373,-339 373,-373 504,-373 504,-339 373,-339"/>
<text text-anchor="start" x="381" y="-359.4" font-family="Ubuntu Mono" font-size="12.00">mpi_utilities::lock</text>
<text text-anchor="middle" x="438.5" y="-346.4" font-family="Ubuntu Mono" font-size="12.00">_return_acc</text>
</a>
</g>
</g>
<!-- Node115&#45;&gt;Node126 -->
<g id="edge15" class="edge"><title>Node115&#45;&gt;Node126</title>
<path fill="none" stroke="midnightblue" d="M264.266,-190.831C280.225,-215.733 322.472,-277.984 370,-318 376.802,-323.727 384.593,-329.03 392.408,-333.747"/>
<polygon fill="midnightblue" stroke="midnightblue" points="390.78,-336.848 401.191,-338.814 394.278,-330.785 390.78,-336.848"/>
</g>
<!-- Node127 -->
<g id="node14" class="node"><title>Node127</title>
<g id="a_node14"><a xlink:href="namespacehdf5__utilities.html#aa9d76166f970a7052cd0d96c8f3ee0be" target="_top" xlink:title="hdf5_utilities::list\l_all_vars_in_group">
<polygon fill="white" stroke="black" points="370,-117 370,-151 507,-151 507,-117 370,-117"/>
<text text-anchor="start" x="378" y="-137.4" font-family="Ubuntu Mono" font-size="12.00">hdf5_utilities::list</text>
<text text-anchor="middle" x="438.5" y="-124.4" font-family="Ubuntu Mono" font-size="12.00">_all_vars_in_group</text>
</a>
</g>
</g>
<!-- Node115&#45;&gt;Node127 -->
<g id="edge20" class="edge"><title>Node115&#45;&gt;Node127</title>
<path fill="none" stroke="midnightblue" d="M298.796,-169.447C317.247,-164.731 339.607,-159.017 360.937,-153.566"/>
<polygon fill="midnightblue" stroke="midnightblue" points="361.826,-156.952 370.648,-151.085 360.092,-150.17 361.826,-156.952"/>
</g>
<!-- Node115&#45;&gt;Node128 -->
<g id="edge27" class="edge"><title>Node115&#45;&gt;Node128</title>
<path fill="none" stroke="midnightblue" d="M270.063,-169.404C289.919,-153.249 330.385,-122.686 370,-107 430.81,-82.9218 505.087,-71.6345 556.709,-66.4016"/>
<polygon fill="midnightblue" stroke="midnightblue" points="557.104,-69.8798 566.721,-65.4338 556.43,-62.9123 557.104,-69.8798"/>
</g>
<!-- Node118 -->
<g id="node5" class="node"><title>Node118</title>
<g id="a_node5"><a xlink:href="namespacempi__utilities.html#a4c5de9472574b63c69212948d8a3f4e1" target="_top" xlink:title="mpi_utilities::lock\l_header">
<polygon fill="white" stroke="black" points="746,-292 746,-326 877,-326 877,-292 746,-292"/>
<text text-anchor="start" x="754" y="-312.4" font-family="Ubuntu Mono" font-size="12.00">mpi_utilities::lock</text>
<text text-anchor="middle" x="811.5" y="-299.4" font-family="Ubuntu Mono" font-size="12.00">_header</text>
</a>
</g>
</g>
<!-- Node117&#45;&gt;Node118 -->
<g id="edge4" class="edge"><title>Node117&#45;&gt;Node118</title>
<path fill="none" stroke="midnightblue" d="M468.636,-274.977C496.37,-258.934 535.028,-237.05 543,-235 609.718,-217.843 632.006,-215.241 698,-235 730.767,-244.811 762.826,-267.578 784.284,-285.288"/>
<polygon fill="midnightblue" stroke="midnightblue" points="782.073,-288.002 791.968,-291.79 786.595,-282.659 782.073,-288.002"/>
</g>
<!-- Node121 -->
<g id="node8" class="node"><title>Node121</title>
<g id="a_node8"><a xlink:href="namespacempi__utilities.html#a0417983d618bfc9f892d6d2af5d27b1d" target="_top" xlink:title="mpi_utilities::lock\l_wl_change">
<polygon fill="white" stroke="black" points="555,-431 555,-465 686,-465 686,-431 555,-431"/>
<text text-anchor="start" x="563" y="-451.4" font-family="Ubuntu Mono" font-size="12.00">mpi_utilities::lock</text>
<text text-anchor="middle" x="620.5" y="-438.4" font-family="Ubuntu Mono" font-size="12.00">_wl_change</text>
</a>
</g>
</g>
<!-- Node117&#45;&gt;Node121 -->
<g id="edge7" class="edge"><title>Node117&#45;&gt;Node121</title>
<path fill="none" stroke="midnightblue" d="M478.014,-309.052C488.088,-314.557 498.496,-321.269 507,-329 528.071,-348.154 524.057,-360.739 543,-382 556.784,-397.47 574.135,-412.716 588.827,-424.651"/>
<polygon fill="midnightblue" stroke="midnightblue" points="586.678,-427.414 596.676,-430.921 591.047,-421.945 586.678,-427.414"/>
</g>
<!-- Node123 -->
<g id="node10" class="node"><title>Node123</title>
<g id="a_node10"><a xlink:href="namespacempi__utilities.html#a74e2e82b561f403ca8087c3925f76e29" target="_top" xlink:title="mpi_utilities::wl_empty">
<polygon fill="white" stroke="black" points="543,-298.5 543,-319.5 698,-319.5 698,-298.5 543,-298.5"/>
<text text-anchor="middle" x="620.5" y="-305.9" font-family="Ubuntu Mono" font-size="12.00">mpi_utilities::wl_empty</text>
</a>
</g>
</g>
<!-- Node117&#45;&gt;Node123 -->
<g id="edge10" class="edge"><title>Node117&#45;&gt;Node123</title>
<path fill="none" stroke="midnightblue" d="M504.23,-298.113C513.506,-298.989 523.171,-299.902 532.787,-300.81"/>
<polygon fill="midnightblue" stroke="midnightblue" points="532.485,-304.297 542.77,-301.753 533.144,-297.328 532.485,-304.297"/>
</g>
<!-- Node124 -->
<g id="node11" class="node"><title>Node124</title>
<g id="a_node11"><a xlink:href="namespacempi__utilities.html#a5d2dbf8ffba124237c362f06c3d3ac32" target="_top" xlink:title="mpi_utilities::lock\l_notify">
<polygon fill="white" stroke="black" points="555,-339 555,-373 686,-373 686,-339 555,-339"/>
<text text-anchor="start" x="563" y="-359.4" font-family="Ubuntu Mono" font-size="12.00">mpi_utilities::lock</text>
<text text-anchor="middle" x="620.5" y="-346.4" font-family="Ubuntu Mono" font-size="12.00">_notify</text>
</a>
</g>
</g>
<!-- Node117&#45;&gt;Node124 -->
<g id="edge11" class="edge"><title>Node117&#45;&gt;Node124</title>
<path fill="none" stroke="midnightblue" d="M487.148,-309.079C504.7,-315.358 524.749,-322.517 543,-329 548.923,-331.104 555.105,-333.295 561.276,-335.478"/>
<polygon fill="midnightblue" stroke="midnightblue" points="560.332,-338.856 570.927,-338.89 562.665,-332.257 560.332,-338.856"/>
</g>
<!-- Node125 -->
<g id="node12" class="node"><title>Node125</title>
<g id="a_node12"><a xlink:href="namespacempi__utilities.html#a9ec02d2ade63716189369640f0da3c5f" target="_top" xlink:title="mpi_utilities::lock\l_get_notified">
<polygon fill="white" stroke="black" points="555,-245 555,-279 686,-279 686,-245 555,-245"/>
<text text-anchor="start" x="563" y="-265.4" font-family="Ubuntu Mono" font-size="12.00">mpi_utilities::lock</text>
<text text-anchor="middle" x="620.5" y="-252.4" font-family="Ubuntu Mono" font-size="12.00">_get_notified</text>
</a>
</g>
</g>
<!-- Node117&#45;&gt;Node125 -->
<g id="edge13" class="edge"><title>Node117&#45;&gt;Node125</title>
<path fill="none" stroke="midnightblue" d="M504.23,-281.212C517.321,-279.03 531.189,-276.718 544.597,-274.484"/>
<polygon fill="midnightblue" stroke="midnightblue" points="545.451,-277.89 554.74,-272.793 544.301,-270.985 545.451,-277.89"/>
</g>
<!-- Node119 -->
<g id="node6" class="node"><title>Node119</title>
<g id="a_node6"><a xlink:href="namespacestr__utilities.html#acb8c4e66aead51f178e47fdea8d7a7db" target="_top" xlink:title="str_utilities::ii2str">
<polygon fill="white" stroke="black" points="925,-298.5 925,-319.5 1068,-319.5 1068,-298.5 925,-298.5"/>
<text text-anchor="middle" x="996.5" y="-305.9" font-family="Ubuntu Mono" font-size="12.00">str_utilities::ii2str</text>
</a>
</g>
</g>
<!-- Node118&#45;&gt;Node119 -->
<g id="edge5" class="edge"><title>Node118&#45;&gt;Node119</title>
<path fill="none" stroke="midnightblue" d="M877.019,-309C889.199,-309 902.079,-309 914.685,-309"/>
<polygon fill="midnightblue" stroke="midnightblue" points="914.717,-312.5 924.717,-309 914.717,-305.5 914.717,-312.5"/>
</g>
<!-- Node118&#45;&gt;Node120 -->
<g id="edge6" class="edge"><title>Node118&#45;&gt;Node120</title>
<path fill="none" stroke="midnightblue" d="M836.424,-291.874C871.793,-266.556 937.597,-219.45 972.454,-194.498"/>
<polygon fill="midnightblue" stroke="midnightblue" points="974.518,-197.325 980.612,-188.658 970.443,-191.633 974.518,-197.325"/>
</g>
<!-- Node121&#45;&gt;Node118 -->
<g id="edge8" class="edge"><title>Node121&#45;&gt;Node118</title>
<path fill="none" stroke="midnightblue" d="M669.798,-430.95C679.471,-426.675 689.32,-421.665 698,-416 733.692,-392.704 768.213,-357.364 789.393,-333.746"/>
<polygon fill="midnightblue" stroke="midnightblue" points="792.045,-336.031 796.046,-326.22 786.8,-331.394 792.045,-336.031"/>
</g>
<!-- Node121&#45;&gt;Node122 -->
<g id="edge9" class="edge"><title>Node121&#45;&gt;Node122</title>
<path fill="none" stroke="midnightblue" d="M686.014,-455.851C700.09,-457.564 715.156,-459.397 729.772,-461.176"/>
<polygon fill="midnightblue" stroke="midnightblue" points="729.452,-464.663 739.802,-462.397 730.298,-457.714 729.452,-464.663"/>
</g>
<!-- Node124&#45;&gt;Node118 -->
<g id="edge12" class="edge"><title>Node124&#45;&gt;Node118</title>
<path fill="none" stroke="midnightblue" d="M686.014,-339.957C702.043,-335.971 719.356,-331.665 735.828,-327.569"/>
<polygon fill="midnightblue" stroke="midnightblue" points="737.096,-330.861 745.956,-325.051 735.407,-324.068 737.096,-330.861"/>
</g>
<!-- Node125&#45;&gt;Node118 -->
<g id="edge14" class="edge"><title>Node125&#45;&gt;Node118</title>
<path fill="none" stroke="midnightblue" d="M686.014,-278.043C702.043,-282.029 719.356,-286.335 735.828,-290.431"/>
<polygon fill="midnightblue" stroke="midnightblue" points="735.407,-293.932 745.956,-292.949 737.096,-287.139 735.407,-293.932"/>
</g>
<!-- Node126&#45;&gt;Node118 -->
<g id="edge16" class="edge"><title>Node126&#45;&gt;Node118</title>
<path fill="none" stroke="midnightblue" d="M492.595,-373.003C545.647,-387.302 629.017,-402.42 698,-382 730.466,-372.39 762.349,-350.142 783.835,-332.715"/>
<polygon fill="midnightblue" stroke="midnightblue" points="786.089,-335.393 791.541,-326.308 781.614,-330.01 786.089,-335.393"/>
</g>
<!-- Node126&#45;&gt;Node121 -->
<g id="edge17" class="edge"><title>Node126&#45;&gt;Node121</title>
<path fill="none" stroke="midnightblue" d="M466.645,-373.031C487.22,-385.62 516.397,-402.794 543,-416 550.507,-419.727 558.556,-423.413 566.513,-426.885"/>
<polygon fill="midnightblue" stroke="midnightblue" points="565.202,-430.132 575.772,-430.852 567.959,-423.697 565.202,-430.132"/>
</g>
<!-- Node126&#45;&gt;Node123 -->
<g id="edge18" class="edge"><title>Node126&#45;&gt;Node123</title>
<path fill="none" stroke="midnightblue" d="M504.23,-339.098C525.613,-333.515 549.067,-327.391 569.204,-322.133"/>
<polygon fill="midnightblue" stroke="midnightblue" points="570.31,-325.462 579.101,-319.549 568.541,-318.689 570.31,-325.462"/>
</g>
<!-- Node126&#45;&gt;Node124 -->
<g id="edge19" class="edge"><title>Node126&#45;&gt;Node124</title>
<path fill="none" stroke="midnightblue" d="M504.23,-356C517.321,-356 531.189,-356 544.597,-356"/>
<polygon fill="midnightblue" stroke="midnightblue" points="544.74,-359.5 554.74,-356 544.74,-352.5 544.74,-359.5"/>
</g>
<!-- Node127&#45;&gt;Node120 -->
<g id="edge25" class="edge"><title>Node127&#45;&gt;Node120</title>
<path fill="none" stroke="midnightblue" d="M507.007,-137.155C595.041,-141.578 753.768,-150.613 889,-164 898.366,-164.927 908.178,-166.033 917.897,-167.211"/>
<polygon fill="midnightblue" stroke="midnightblue" points="917.613,-170.702 927.968,-168.46 918.475,-163.756 917.613,-170.702"/>
</g>
<!-- Node127&#45;&gt;Node128 -->
<g id="edge21" class="edge"><title>Node127&#45;&gt;Node128</title>
<path fill="none" stroke="midnightblue" d="M482.157,-116.937C513.074,-104.57 554.41,-88.036 583.632,-76.3473"/>
<polygon fill="midnightblue" stroke="midnightblue" points="585.06,-79.5458 593.045,-72.5821 582.46,-73.0464 585.06,-79.5458"/>
</g>
<!-- Node129 -->
<g id="node16" class="node"><title>Node129</title>
<g id="a_node16"><a xlink:href="namespacemessages.html#a82dddaab795b78b3d39e1ff1aab2f665" target="_top" xlink:title="messages::get_mem_usage">
<polygon fill="white" stroke="black" points="734,-71.5 734,-92.5 889,-92.5 889,-71.5 734,-71.5"/>
<text text-anchor="middle" x="811.5" y="-78.9" font-family="Ubuntu Mono" font-size="12.00">messages::get_mem_usage</text>
</a>
</g>
</g>
<!-- Node128&#45;&gt;Node129 -->
<g id="edge22" class="edge"><title>Node128&#45;&gt;Node129</title>
<path fill="none" stroke="midnightblue" d="M674.147,-67.5711C689.434,-69.1887 706.551,-71.0001 723.356,-72.7785"/>
<polygon fill="midnightblue" stroke="midnightblue" points="723.448,-76.3076 733.761,-73.8794 724.184,-69.3464 723.448,-76.3076"/>
</g>
<!-- Node130 -->
<g id="node17" class="node"><title>Node130</title>
<g id="a_node17"><a xlink:href="messages_8f90.html#a6d15f28783f95a7a4b2a44185619792f" target="_top" xlink:title="format_str">
<polygon fill="white" stroke="black" points="773,-31.5 773,-52.5 850,-52.5 850,-31.5 773,-31.5"/>
<text text-anchor="middle" x="811.5" y="-38.9" font-family="Ubuntu Mono" font-size="12.00">format_str</text>
</a>
</g>
</g>
<!-- Node128&#45;&gt;Node130 -->
<g id="edge23" class="edge"><title>Node128&#45;&gt;Node130</title>
<path fill="none" stroke="midnightblue" d="M674.147,-56.4289C701.944,-53.4874 735.795,-49.9053 762.814,-47.0461"/>
<polygon fill="midnightblue" stroke="midnightblue" points="763.232,-50.5215 772.808,-45.9886 762.495,-43.5604 763.232,-50.5215"/>
</g>
<!-- Node131 -->
<g id="node18" class="node"><title>Node131</title>
<g id="a_node18"><a xlink:href="namespacemessages.html#a61fd0b51b5e37d58fdc993c01792a3fd" target="_top" xlink:title="messages::get_clock">
<polygon fill="white" stroke="black" points="931,-31.5 931,-52.5 1062,-52.5 1062,-31.5 931,-31.5"/>
<text text-anchor="middle" x="996.5" y="-38.9" font-family="Ubuntu Mono" font-size="12.00">messages::get_clock</text>
</a>
</g>
</g>
<!-- Node130&#45;&gt;Node131 -->
<g id="edge24" class="edge"><title>Node130&#45;&gt;Node131</title>
<path fill="none" stroke="midnightblue" d="M850.418,-42C870.754,-42 896.542,-42 920.719,-42"/>
<polygon fill="midnightblue" stroke="midnightblue" points="920.961,-45.5001 930.961,-42 920.961,-38.5001 920.961,-45.5001"/>
</g>
<!-- Node132&#45;&gt;Node128 -->
<g id="edge30" class="edge"><title>Node132&#45;&gt;Node128</title>
<path fill="none" stroke="midnightblue" d="M313.26,-14.5468C364.001,-18.2575 440.853,-25.0879 507,-36 527.717,-39.4176 550.314,-44.391 569.785,-49.0751"/>
<polygon fill="midnightblue" stroke="midnightblue" points="569.11,-52.5132 579.655,-51.4884 570.772,-45.7134 569.11,-52.5132"/>
</g>
</g>
</svg>
