<?xml version="1.0" encoding="UTF-8" standalone="no"?>
<!DOCTYPE svg PUBLIC "-//W3C//DTD SVG 1.1//EN"
 "http://www.w3.org/Graphics/SVG/1.1/DTD/svg11.dtd">
<!-- Generated by graphviz version 2.38.0 (20140413.2041)
 -->
<!-- Title: files_ops::open_input Pages: 1 -->
<svg width="932pt" height="168pt"
 viewBox="0.00 0.00 932.00 168.37" xmlns="http://www.w3.org/2000/svg" xmlns:xlink="http://www.w3.org/1999/xlink">
<g id="graph0" class="graph" transform="scale(1 1) rotate(0) translate(4 164.366)">
<title>files_ops::open_input</title>
<polygon fill="white" stroke="none" points="-4,4 -4,-164.366 928,-164.366 928,4 -4,4"/>
<!-- Node13 -->
<g id="node1" class="node"><title>Node13</title>
<polygon fill="#bfbfbf" stroke="black" points="0,-118.5 0,-139.5 143,-139.5 143,-118.5 0,-118.5"/>
<text text-anchor="middle" x="71.5" y="-125.9" font-family="Ubuntu Mono" font-size="12.00">files_ops::open_input</text>
</g>
<!-- Node14 -->
<g id="node2" class="node"><title>Node14</title>
<g id="a_node2"><a xlink:href="namespacemessages.html#aa4a8d01563e92558e8a0875b075ec54c" target="_top" xlink:title="messages::writo">
<polygon fill="white" stroke="black" points="459,-98.5 459,-119.5 566,-119.5 566,-98.5 459,-98.5"/>
<text text-anchor="middle" x="512.5" y="-105.9" font-family="Ubuntu Mono" font-size="12.00">messages::writo</text>
</a>
</g>
</g>
<!-- Node13&#45;&gt;Node14 -->
<g id="edge1" class="edge"><title>Node13&#45;&gt;Node14</title>
<path fill="none" stroke="midnightblue" d="M119.323,-139.521C187.12,-152.994 316.199,-172.015 423,-149 444.974,-144.265 468.061,-133.614 485.144,-124.493"/>
<polygon fill="midnightblue" stroke="midnightblue" points="486.901,-127.521 493.971,-119.63 483.523,-121.39 486.901,-127.521"/>
</g>
<!-- Node18 -->
<g id="node6" class="node"><title>Node18</title>
<g id="a_node6"><a xlink:href="namespacemessages.html#a6e6bfb084063e4cc91ee86e542043302" target="_top" xlink:title="messages::lvl_ud">
<polygon fill="white" stroke="black" points="298,-118.5 298,-139.5 411,-139.5 411,-118.5 298,-118.5"/>
<text text-anchor="middle" x="354.5" y="-125.9" font-family="Ubuntu Mono" font-size="12.00">messages::lvl_ud</text>
</a>
</g>
</g>
<!-- Node13&#45;&gt;Node18 -->
<g id="edge5" class="edge"><title>Node13&#45;&gt;Node18</title>
<path fill="none" stroke="midnightblue" d="M143.045,-129C187.445,-129 244.358,-129 287.802,-129"/>
<polygon fill="midnightblue" stroke="midnightblue" points="287.978,-132.5 297.978,-129 287.978,-125.5 287.978,-132.5"/>
</g>
<!-- Node19 -->
<g id="node7" class="node"><title>Node19</title>
<g id="a_node7"><a xlink:href="files__ops_8f90.html#ab06139d4caa922a90cef467aa6cf2cba" target="_top" xlink:title="read_opts">
<polygon fill="white" stroke="black" points="179,-79.5 179,-100.5 250,-100.5 250,-79.5 179,-79.5"/>
<text text-anchor="middle" x="214.5" y="-86.9" font-family="Ubuntu Mono" font-size="12.00">read_opts</text>
</a>
</g>
</g>
<!-- Node13&#45;&gt;Node19 -->
<g id="edge7" class="edge"><title>Node13&#45;&gt;Node19</title>
<path fill="none" stroke="midnightblue" d="M110.657,-118.446C128.631,-113.474 150.187,-107.512 168.911,-102.333"/>
<polygon fill="midnightblue" stroke="midnightblue" points="169.989,-105.666 178.694,-99.6272 168.123,-98.9197 169.989,-105.666"/>
</g>
<!-- Node15 -->
<g id="node3" class="node"><title>Node15</title>
<g id="a_node3"><a xlink:href="namespacemessages.html#a82dddaab795b78b3d39e1ff1aab2f665" target="_top" xlink:title="messages::get_mem_usage">
<polygon fill="white" stroke="black" points="602,-118.5 602,-139.5 757,-139.5 757,-118.5 602,-118.5"/>
<text text-anchor="middle" x="679.5" y="-125.9" font-family="Ubuntu Mono" font-size="12.00">messages::get_mem_usage</text>
</a>
</g>
</g>
<!-- Node14&#45;&gt;Node15 -->
<g id="edge2" class="edge"><title>Node14&#45;&gt;Node15</title>
<path fill="none" stroke="midnightblue" d="M566.161,-115.383C574.452,-116.388 583.208,-117.449 592.025,-118.518"/>
<polygon fill="midnightblue" stroke="midnightblue" points="591.635,-121.996 601.984,-119.725 592.478,-115.047 591.635,-121.996"/>
</g>
<!-- Node16 -->
<g id="node4" class="node"><title>Node16</title>
<g id="a_node4"><a xlink:href="messages_8f90.html#a6d15f28783f95a7a4b2a44185619792f" target="_top" xlink:title="format_str">
<polygon fill="white" stroke="black" points="641,-78.5 641,-99.5 718,-99.5 718,-78.5 641,-78.5"/>
<text text-anchor="middle" x="679.5" y="-85.9" font-family="Ubuntu Mono" font-size="12.00">format_str</text>
</a>
</g>
</g>
<!-- Node14&#45;&gt;Node16 -->
<g id="edge3" class="edge"><title>Node14&#45;&gt;Node16</title>
<path fill="none" stroke="midnightblue" d="M566.161,-102.617C586.977,-100.094 610.722,-97.2155 631.002,-94.7573"/>
<polygon fill="midnightblue" stroke="midnightblue" points="631.448,-98.229 640.954,-93.551 630.606,-91.2798 631.448,-98.229"/>
</g>
<!-- Node17 -->
<g id="node5" class="node"><title>Node17</title>
<g id="a_node5"><a xlink:href="namespacemessages.html#a61fd0b51b5e37d58fdc993c01792a3fd" target="_top" xlink:title="messages::get_clock">
<polygon fill="white" stroke="black" points="793,-78.5 793,-99.5 924,-99.5 924,-78.5 793,-78.5"/>
<text text-anchor="middle" x="858.5" y="-85.9" font-family="Ubuntu Mono" font-size="12.00">messages::get_clock</text>
</a>
</g>
</g>
<!-- Node16&#45;&gt;Node17 -->
<g id="edge4" class="edge"><title>Node16&#45;&gt;Node17</title>
<path fill="none" stroke="midnightblue" d="M718.037,-89C736.869,-89 760.372,-89 782.685,-89"/>
<polygon fill="midnightblue" stroke="midnightblue" points="782.832,-92.5001 792.832,-89 782.832,-85.5001 782.832,-92.5001"/>
</g>
<!-- Node18&#45;&gt;Node14 -->
<g id="edge6" class="edge"><title>Node18&#45;&gt;Node14</title>
<path fill="none" stroke="midnightblue" d="M411.379,-121.836C423.468,-120.286 436.331,-118.637 448.667,-117.056"/>
<polygon fill="midnightblue" stroke="midnightblue" points="449.403,-120.49 458.877,-115.747 448.513,-113.547 449.403,-120.49"/>
</g>
<!-- Node19&#45;&gt;Node14 -->
<g id="edge8" class="edge"><title>Node19&#45;&gt;Node14</title>
<path fill="none" stroke="midnightblue" d="M250.034,-92.2167C298.617,-95.3352 387.967,-101.071 448.545,-104.959"/>
<polygon fill="midnightblue" stroke="midnightblue" points="448.552,-108.467 458.756,-105.614 449.001,-101.481 448.552,-108.467"/>
</g>
<!-- Node19&#45;&gt;Node18 -->
<g id="edge9" class="edge"><title>Node19&#45;&gt;Node18</title>
<path fill="none" stroke="midnightblue" d="M250.323,-99.8413C267.379,-104.662 288.162,-110.535 306.594,-115.744"/>
<polygon fill="midnightblue" stroke="midnightblue" points="305.694,-119.127 316.269,-118.478 307.598,-112.39 305.694,-119.127"/>
</g>
<!-- Node20 -->
<g id="node8" class="node"><title>Node20</title>
<g id="a_node8"><a xlink:href="namespacestr__utilities.html#a0b97e51770725a3e98ed393d26681414" target="_top" xlink:title="str_utilities::i2str">
<polygon fill="white" stroke="black" points="286,-40.5 286,-61.5 423,-61.5 423,-40.5 286,-40.5"/>
<text text-anchor="middle" x="354.5" y="-47.9" font-family="Ubuntu Mono" font-size="12.00">str_utilities::i2str</text>
</a>
</g>
</g>
<!-- Node19&#45;&gt;Node20 -->
<g id="edge10" class="edge"><title>Node19&#45;&gt;Node20</title>
<path fill="none" stroke="midnightblue" d="M250.323,-80.1587C267.379,-75.3385 288.162,-69.465 306.594,-64.256"/>
<polygon fill="midnightblue" stroke="midnightblue" points="307.598,-67.6096 316.269,-61.5218 305.694,-60.8734 307.598,-67.6096"/>
</g>
<!-- Node21 -->
<g id="node9" class="node"><title>Node21</title>
<g id="a_node9"><a xlink:href="files__ops_8f90.html#a0aab73e3be6acf8b28310674ffabb246" target="_top" xlink:title="apply_opt_pb3d">
<polygon fill="white" stroke="black" points="304,-0.5 304,-21.5 405,-21.5 405,-0.5 304,-0.5"/>
<text text-anchor="middle" x="354.5" y="-7.9" font-family="Ubuntu Mono" font-size="12.00">apply_opt_pb3d</text>
</a>
</g>
</g>
<!-- Node19&#45;&gt;Node21 -->
<g id="edge11" class="edge"><title>Node19&#45;&gt;Node21</title>
<path fill="none" stroke="midnightblue" d="M225.477,-79.3038C238.301,-66.1507 261.81,-43.9785 286,-31 290.157,-28.7699 294.594,-26.7576 299.133,-24.9482"/>
<polygon fill="midnightblue" stroke="midnightblue" points="300.343,-28.2324 308.536,-21.5143 297.942,-21.6572 300.343,-28.2324"/>
</g>
<!-- Node21&#45;&gt;Node14 -->
<g id="edge12" class="edge"><title>Node21&#45;&gt;Node14</title>
<path fill="none" stroke="midnightblue" d="M401.259,-21.6075C408.752,-24.1692 416.262,-27.2731 423,-31 451.596,-46.8171 478.926,-73.2193 495.459,-90.8665"/>
<polygon fill="midnightblue" stroke="midnightblue" points="492.925,-93.2814 502.262,-98.2892 498.086,-88.552 492.925,-93.2814"/>
</g>
</g>
</svg>
