<?xml version="1.0" encoding="UTF-8" standalone="no"?>
<!DOCTYPE svg PUBLIC "-//W3C//DTD SVG 1.1//EN"
 "http://www.w3.org/Graphics/SVG/1.1/DTD/svg11.dtd">
<!-- Generated by graphviz version 2.38.0 (20140413.2041)
 -->
<!-- Title: hdf5_ops::print_hdf5_grid Pages: 1 -->
<svg width="813pt" height="70pt"
 viewBox="0.00 0.00 813.00 70.00" xmlns="http://www.w3.org/2000/svg" xmlns:xlink="http://www.w3.org/1999/xlink">
<g id="graph0" class="graph" transform="scale(1 1) rotate(0) translate(4 66)">
<title>hdf5_ops::print_hdf5_grid</title>
<polygon fill="white" stroke="none" points="-4,4 -4,-66 809,-66 809,4 -4,4"/>
<!-- Node100 -->
<g id="node1" class="node"><title>Node100</title>
<polygon fill="#bfbfbf" stroke="black" points="0,-20.5 0,-41.5 167,-41.5 167,-20.5 0,-20.5"/>
<text text-anchor="middle" x="83.5" y="-27.9" font-family="Ubuntu Mono" font-size="12.00">hdf5_ops::print_hdf5_grid</text>
</g>
<!-- Node101 -->
<g id="node2" class="node"><title>Node101</title>
<g id="a_node2"><a xlink:href="grid__ops_8f90.html#a7bfbb51880742066ae3add67ee03df2d" target="_top" xlink:title="magn_grid_plot_hdf5">
<polygon fill="white" stroke="black" points="203,-20.5 203,-41.5 334,-41.5 334,-20.5 203,-20.5"/>
<text text-anchor="middle" x="268.5" y="-27.9" font-family="Ubuntu Mono" font-size="12.00">magn_grid_plot_hdf5</text>
</a>
</g>
</g>
<!-- Node100&#45;&gt;Node101 -->
<g id="edge1" class="edge"><title>Node100&#45;&gt;Node101</title>
<path fill="none" stroke="midnightblue" d="M177.266,-31C185.879,-31 194.477,-31 202.755,-31"/>
<polygon fill="midnightblue" stroke="midnightblue" points="177.166,-27.5001 167.166,-31 177.166,-34.5001 177.166,-27.5001"/>
</g>
<!-- Node102 -->
<g id="node3" class="node"><title>Node102</title>
<g id="a_node3"><a xlink:href="namespacegrid__ops.html#addd76b7b3be0b51e0863ae0cdfef41e6" target="_top" xlink:title="grid_ops::magn_grid_plot">
<polygon fill="white" stroke="black" points="370,-20.5 370,-41.5 531,-41.5 531,-20.5 370,-20.5"/>
<text text-anchor="middle" x="450.5" y="-27.9" font-family="Ubuntu Mono" font-size="12.00">grid_ops::magn_grid_plot</text>
</a>
</g>
</g>
<!-- Node101&#45;&gt;Node102 -->
<g id="edge2" class="edge"><title>Node101&#45;&gt;Node102</title>
<path fill="none" stroke="midnightblue" d="M344.413,-31C352.852,-31 361.474,-31 369.97,-31"/>
<polygon fill="midnightblue" stroke="midnightblue" points="344.23,-27.5001 334.23,-31 344.23,-34.5001 344.23,-27.5001"/>
</g>
<!-- Node103 -->
<g id="node4" class="node"><title>Node103</title>
<g id="a_node4"><a xlink:href="namespacedriver__eq.html#ac8eca434f541966edc3556d72f261eff" target="_top" xlink:title="driver_eq::run_driver_eq">
<polygon fill="white" stroke="black" points="567,-40.5 567,-61.5 728,-61.5 728,-40.5 567,-40.5"/>
<text text-anchor="middle" x="647.5" y="-47.9" font-family="Ubuntu Mono" font-size="12.00">driver_eq::run_driver_eq</text>
</a>
</g>
</g>
<!-- Node102&#45;&gt;Node103 -->
<g id="edge3" class="edge"><title>Node102&#45;&gt;Node103</title>
<path fill="none" stroke="midnightblue" d="M541.117,-40.1915C549.7,-41.0718 558.365,-41.9605 566.843,-42.8301"/>
<polygon fill="midnightblue" stroke="midnightblue" points="541.4,-36.7023 531.095,-39.1636 540.686,-43.6657 541.4,-36.7023"/>
</g>
<!-- Node105 -->
<g id="node6" class="node"><title>Node105</title>
<g id="a_node6"><a xlink:href="namespacedriver__post.html#af527706d4e696d4e507443d2f74194ef" target="_top" xlink:title="driver_post::init_post">
<polygon fill="white" stroke="black" points="573,-0.5 573,-21.5 722,-21.5 722,-0.5 573,-0.5"/>
<text text-anchor="middle" x="647.5" y="-7.9" font-family="Ubuntu Mono" font-size="12.00">driver_post::init_post</text>
</a>
</g>
</g>
<!-- Node102&#45;&gt;Node105 -->
<g id="edge5" class="edge"><title>Node102&#45;&gt;Node105</title>
<path fill="none" stroke="midnightblue" d="M541.189,-21.8011C551.775,-20.7154 562.483,-19.6171 572.812,-18.5577"/>
<polygon fill="midnightblue" stroke="midnightblue" points="540.686,-18.3343 531.095,-22.8364 541.4,-25.2977 540.686,-18.3343"/>
</g>
<!-- Node104 -->
<g id="node5" class="node"><title>Node104</title>
<g id="a_node5"><a xlink:href="PB3D_8f90.html#afaee01f014ab3398eecac996b2795fd2" target="_top" xlink:title="pb3d">
<polygon fill="white" stroke="black" points="764,-40.5 764,-61.5 805,-61.5 805,-40.5 764,-40.5"/>
<text text-anchor="middle" x="784.5" y="-47.9" font-family="Ubuntu Mono" font-size="12.00">pb3d</text>
</a>
</g>
</g>
<!-- Node103&#45;&gt;Node104 -->
<g id="edge4" class="edge"><title>Node103&#45;&gt;Node104</title>
<path fill="none" stroke="midnightblue" d="M738.278,-51C747.755,-51 756.571,-51 763.856,-51"/>
<polygon fill="midnightblue" stroke="midnightblue" points="738.201,-47.5001 728.201,-51 738.201,-54.5001 738.201,-47.5001"/>
</g>
<!-- Node106 -->
<g id="node7" class="node"><title>Node106</title>
<g id="a_node7"><a xlink:href="POST_8f90.html#ac289b64ac4671fea0b4f2298ba1188a1" target="_top" xlink:title="post">
<polygon fill="white" stroke="black" points="764,-0.5 764,-21.5 805,-21.5 805,-0.5 764,-0.5"/>
<text text-anchor="middle" x="784.5" y="-7.9" font-family="Ubuntu Mono" font-size="12.00">post</text>
</a>
</g>
</g>
<!-- Node105&#45;&gt;Node106 -->
<g id="edge6" class="edge"><title>Node105&#45;&gt;Node106</title>
<path fill="none" stroke="midnightblue" d="M732.322,-11C744.072,-11 755.121,-11 763.924,-11"/>
<polygon fill="midnightblue" stroke="midnightblue" points="732.32,-7.5001 722.32,-11 732.32,-14.5001 732.32,-7.5001"/>
</g>
</g>
</svg>
