<?xml version="1.0" encoding="UTF-8" standalone="no"?>
<!DOCTYPE svg PUBLIC "-//W3C//DTD SVG 1.1//EN"
 "http://www.w3.org/Graphics/SVG/1.1/DTD/svg11.dtd">
<!-- Generated by graphviz version 2.43.0 (0)
 -->
<!-- Title: pb3d_ops::reconstruct_pb3d_vac Pages: 1 -->
<svg width="625pt" height="110pt"
 viewBox="0.00 0.00 625.00 110.00" xmlns="http://www.w3.org/2000/svg" xmlns:xlink="http://www.w3.org/1999/xlink">
<g id="graph0" class="graph" transform="scale(1 1) rotate(0) translate(4 106)">
<title>pb3d_ops::reconstruct_pb3d_vac</title>
<polygon fill="white" stroke="transparent" points="-4,4 -4,-106 621,-106 621,4 -4,4"/>
<!-- Node1 -->
<g id="node1" class="node">
<title>Node1</title>
<g id="a_node1"><a xlink:title="Reconstructs the vacuum variables from PB3D HDF5 output.">
<polygon fill="#bfbfbf" stroke="black" points="468,-34 468,-68 617,-68 617,-34 468,-34"/>
<text text-anchor="start" x="476" y="-54.4" font-family="Ubuntu Mono" font-size="12.00">pb3d_ops::reconstruct</text>
<text text-anchor="middle" x="542.5" y="-41.4" font-family="Ubuntu Mono" font-size="12.00">_pb3d_vac</text>
</a>
</g>
</g>
<!-- Node2 -->
<g id="node2" class="node">
<title>Node2</title>
<g id="a_node2"><a xlink:href="namespacevac__ops.html#a5e5a8322b3aa2e3704b1050426f06d9d" target="_top" xlink:title="Calculates the vacuum response.">
<polygon fill="white" stroke="black" points="285,-80.5 285,-101.5 432,-101.5 432,-80.5 285,-80.5"/>
<text text-anchor="middle" x="358.5" y="-87.9" font-family="Ubuntu Mono" font-size="12.00">vac_ops::calc_vac_res</text>
</a>
</g>
</g>
<!-- Node1&#45;&gt;Node2 -->
<g id="edge1" class="edge">
<title>Node1&#45;&gt;Node2</title>
<path fill="none" stroke="midnightblue" d="M457.87,-69.38C440.56,-73.18 422.89,-77.07 407.39,-80.47"/>
<polygon fill="midnightblue" stroke="midnightblue" points="458.98,-72.72 468,-67.15 457.48,-65.88 458.98,-72.72"/>
</g>
<!-- Node5 -->
<g id="node5" class="node">
<title>Node5</title>
<g id="a_node5"><a xlink:href="namespacedriver__post.html#af527706d4e696d4e507443d2f74194ef" target="_top" xlink:title="Initializes the POST driver.">
<polygon fill="white" stroke="black" points="288.5,-40.5 288.5,-61.5 428.5,-61.5 428.5,-40.5 288.5,-40.5"/>
<text text-anchor="middle" x="358.5" y="-47.9" font-family="Ubuntu Mono" font-size="12.00">driver_post::init_post</text>
</a>
</g>
</g>
<!-- Node1&#45;&gt;Node5 -->
<g id="edge4" class="edge">
<title>Node1&#45;&gt;Node5</title>
<path fill="none" stroke="midnightblue" d="M457.85,-51C448.05,-51 438.13,-51 428.56,-51"/>
<polygon fill="midnightblue" stroke="midnightblue" points="458,-54.5 468,-51 458,-47.5 458,-54.5"/>
</g>
<!-- Node7 -->
<g id="node7" class="node">
<title>Node7</title>
<g id="a_node7"><a xlink:href="namespacevac__ops.html#a37220702fbf378626a0f2c12f446e0aa" target="_top" xlink:title="Stores calculation of the vacuum response by storing the necessary variables.">
<polygon fill="white" stroke="black" points="294,-0.5 294,-21.5 423,-21.5 423,-0.5 294,-0.5"/>
<text text-anchor="middle" x="358.5" y="-7.9" font-family="Ubuntu Mono" font-size="12.00">vac_ops::store_vac</text>
</a>
</g>
</g>
<!-- Node1&#45;&gt;Node7 -->
<g id="edge6" class="edge">
<title>Node1&#45;&gt;Node7</title>
<path fill="none" stroke="midnightblue" d="M457.87,-32.62C440.56,-28.82 422.89,-24.93 407.39,-21.53"/>
<polygon fill="midnightblue" stroke="midnightblue" points="457.48,-36.12 468,-34.85 458.98,-29.28 457.48,-36.12"/>
</g>
<!-- Node3 -->
<g id="node3" class="node">
<title>Node3</title>
<g id="a_node3"><a xlink:href="namespacedriver__sol.html#ad3b1765b3ecc5f82129bfc683ffc6c5c" target="_top" xlink:title="Main driver of PB3D solution part.">
<polygon fill="white" stroke="black" points="83,-80.5 83,-101.5 249,-101.5 249,-80.5 83,-80.5"/>
<text text-anchor="middle" x="166" y="-87.9" font-family="Ubuntu Mono" font-size="12.00">driver_sol::run_driver_sol</text>
</a>
</g>
</g>
<!-- Node2&#45;&gt;Node3 -->
<g id="edge2" class="edge">
<title>Node2&#45;&gt;Node3</title>
<path fill="none" stroke="midnightblue" d="M274.71,-91C266.26,-91 257.68,-91 249.23,-91"/>
<polygon fill="midnightblue" stroke="midnightblue" points="274.94,-94.5 284.94,-91 274.94,-87.5 274.94,-94.5"/>
</g>
<!-- Node4 -->
<g id="node4" class="node">
<title>Node4</title>
<g id="a_node4"><a xlink:href="PB3D_8f90.html#afaee01f014ab3398eecac996b2795fd2" target="_top" xlink:title="Peeling Ballooning in 3D.">
<polygon fill="white" stroke="black" points="0,-40.5 0,-61.5 47,-61.5 47,-40.5 0,-40.5"/>
<text text-anchor="middle" x="23.5" y="-47.9" font-family="Ubuntu Mono" font-size="12.00">pb3d</text>
</a>
</g>
</g>
<!-- Node3&#45;&gt;Node4 -->
<g id="edge3" class="edge">
<title>Node3&#45;&gt;Node4</title>
<path fill="none" stroke="midnightblue" d="M108.46,-77.92C99.89,-75.73 91.19,-73.39 83,-71 71.05,-67.51 57.92,-63.07 47.13,-59.27"/>
<polygon fill="midnightblue" stroke="midnightblue" points="107.85,-81.37 118.4,-80.41 109.55,-74.58 107.85,-81.37"/>
</g>
<!-- Node6 -->
<g id="node6" class="node">
<title>Node6</title>
<g id="a_node6"><a xlink:href="POST_8f90.html#ac289b64ac4671fea0b4f2298ba1188a1" target="_top" xlink:title="Peeling Ballooning in 3D: postprocessing.">
<polygon fill="white" stroke="black" points="145,-40.5 145,-61.5 187,-61.5 187,-40.5 145,-40.5"/>
<text text-anchor="middle" x="166" y="-47.9" font-family="Ubuntu Mono" font-size="12.00">post</text>
</a>
</g>
</g>
<!-- Node5&#45;&gt;Node6 -->
<g id="edge5" class="edge">
<title>Node5&#45;&gt;Node6</title>
<path fill="none" stroke="midnightblue" d="M278.21,-51C244.86,-51 208.81,-51 187.08,-51"/>
<polygon fill="midnightblue" stroke="midnightblue" points="278.46,-54.5 288.46,-51 278.46,-47.5 278.46,-54.5"/>
</g>
<!-- Node8 -->
<g id="node8" class="node">
<title>Node8</title>
<g id="a_node8"><a xlink:href="namespacedriver__eq.html#adc9d5dff288fa512e5ef885627d940cc" target="_top" xlink:title="Main driver of PB3D equilibrium part.">
<polygon fill="white" stroke="black" points="84.5,-0.5 84.5,-21.5 247.5,-21.5 247.5,-0.5 84.5,-0.5"/>
<text text-anchor="middle" x="166" y="-7.9" font-family="Ubuntu Mono" font-size="12.00">driver_eq::run_driver_eq</text>
</a>
</g>
</g>
<!-- Node7&#45;&gt;Node8 -->
<g id="edge7" class="edge">
<title>Node7&#45;&gt;Node8</title>
<path fill="none" stroke="midnightblue" d="M283.57,-11C271.78,-11 259.52,-11 247.58,-11"/>
<polygon fill="midnightblue" stroke="midnightblue" points="283.8,-14.5 293.8,-11 283.8,-7.5 283.8,-14.5"/>
</g>
<!-- Node8&#45;&gt;Node4 -->
<g id="edge8" class="edge">
<title>Node8&#45;&gt;Node4</title>
<path fill="none" stroke="midnightblue" d="M108.46,-24.08C99.89,-26.27 91.19,-28.61 83,-31 71.05,-34.49 57.92,-38.93 47.13,-42.73"/>
<polygon fill="midnightblue" stroke="midnightblue" points="109.55,-27.42 118.4,-21.59 107.85,-20.63 109.55,-27.42"/>
</g>
</g>
</svg>
