<?xml version="1.0" encoding="UTF-8" standalone="no"?>
<!DOCTYPE svg PUBLIC "-//W3C//DTD SVG 1.1//EN"
 "http://www.w3.org/Graphics/SVG/1.1/DTD/svg11.dtd">
<!-- Generated by graphviz version 2.38.0 (20140413.2041)
 -->
<!-- Title: input_utilities::get_log Pages: 1 -->
<svg width="682pt" height="148pt"
 viewBox="0.00 0.00 682.00 148.00" xmlns="http://www.w3.org/2000/svg" xmlns:xlink="http://www.w3.org/1999/xlink">
<g id="graph0" class="graph" transform="scale(1 1) rotate(0) translate(4 144)">
<title>input_utilities::get_log</title>
<polygon fill="white" stroke="none" points="-4,4 -4,-144 678,-144 678,4 -4,4"/>
<!-- Node38 -->
<g id="node1" class="node"><title>Node38</title>
<polygon fill="#bfbfbf" stroke="black" points="0,-59.5 0,-80.5 161,-80.5 161,-59.5 0,-59.5"/>
<text text-anchor="middle" x="80.5" y="-66.9" font-family="Ubuntu Mono" font-size="12.00">input_utilities::get_log</text>
</g>
<!-- Node39 -->
<g id="node2" class="node"><title>Node39</title>
<g id="a_node2"><a xlink:href="namespacemessages.html#aed343894ae4a28ad6dfbd1d39aac64ff" target="_top" xlink:title="Stop a timer. ">
<polygon fill="white" stroke="black" points="203,-118.5 203,-139.5 334,-139.5 334,-118.5 203,-118.5"/>
<text text-anchor="middle" x="268.5" y="-125.9" font-family="Ubuntu Mono" font-size="12.00">messages::stop_time</text>
</a>
</g>
</g>
<!-- Node38&#45;&gt;Node39 -->
<g id="edge1" class="edge"><title>Node38&#45;&gt;Node39</title>
<path fill="none" stroke="midnightblue" d="M114.753,-80.548C145.34,-90.2503 190.88,-104.696 224.277,-115.289"/>
<polygon fill="midnightblue" stroke="midnightblue" points="223.632,-118.757 234.222,-118.444 225.748,-112.084 223.632,-118.757"/>
</g>
<!-- Node40 -->
<g id="node3" class="node"><title>Node40</title>
<g id="a_node3"><a xlink:href="namespacemessages.html#aa4a8d01563e92558e8a0875b075ec54c" target="_top" xlink:title="Write output to file identified by output_i. ">
<polygon fill="white" stroke="black" points="376,-79.5 376,-100.5 483,-100.5 483,-79.5 376,-79.5"/>
<text text-anchor="middle" x="429.5" y="-86.9" font-family="Ubuntu Mono" font-size="12.00">messages::writo</text>
</a>
</g>
</g>
<!-- Node38&#45;&gt;Node40 -->
<g id="edge8" class="edge"><title>Node38&#45;&gt;Node40</title>
<path fill="none" stroke="midnightblue" d="M161.109,-74.5884C223.304,-78.1732 308.535,-83.0856 365.908,-86.3924"/>
<polygon fill="midnightblue" stroke="midnightblue" points="365.745,-89.8887 375.93,-86.97 366.148,-82.9003 365.745,-89.8887"/>
</g>
<!-- Node43 -->
<g id="node6" class="node"><title>Node43</title>
<g id="a_node6"><a xlink:href="namespacemessages.html#a84d5988f3ea5ca8dc2834032f896ae90" target="_top" xlink:title="Start a timer. ">
<polygon fill="white" stroke="black" points="200,-40.5 200,-61.5 337,-61.5 337,-40.5 200,-40.5"/>
<text text-anchor="middle" x="268.5" y="-47.9" font-family="Ubuntu Mono" font-size="12.00">messages::start_time</text>
</a>
</g>
</g>
<!-- Node38&#45;&gt;Node43 -->
<g id="edge5" class="edge"><title>Node38&#45;&gt;Node43</title>
<path fill="none" stroke="midnightblue" d="M161.19,-61.8596C170.676,-60.8906 180.35,-59.9024 189.807,-58.9363"/>
<polygon fill="midnightblue" stroke="midnightblue" points="190.372,-62.3969 199.965,-57.8987 189.661,-55.4332 190.372,-62.3969"/>
</g>
<!-- Node44 -->
<g id="node7" class="node"><title>Node44</title>
<g id="a_node7"><a xlink:href="namespacestr__utilities.html#a219964a283968cc6a968db0197d2187e" target="_top" xlink:title="Convert a string to lowercase. ">
<polygon fill="white" stroke="black" points="197,-0.5 197,-21.5 340,-21.5 340,-0.5 197,-0.5"/>
<text text-anchor="middle" x="268.5" y="-7.9" font-family="Ubuntu Mono" font-size="12.00">str_utilities::strh2l</text>
</a>
</g>
</g>
<!-- Node38&#45;&gt;Node44 -->
<g id="edge7" class="edge"><title>Node38&#45;&gt;Node44</title>
<path fill="none" stroke="midnightblue" d="M111.283,-59.494C134.53,-51.4026 167.692,-40.0993 197,-31 204.181,-28.7705 211.804,-26.5044 219.282,-24.3375"/>
<polygon fill="midnightblue" stroke="midnightblue" points="220.332,-27.6777 228.98,-21.5575 218.403,-20.9488 220.332,-27.6777"/>
</g>
<!-- Node39&#45;&gt;Node40 -->
<g id="edge2" class="edge"><title>Node39&#45;&gt;Node40</title>
<path fill="none" stroke="midnightblue" d="M312.528,-118.446C331.971,-113.677 355.13,-107.997 375.621,-102.97"/>
<polygon fill="midnightblue" stroke="midnightblue" points="376.56,-106.344 385.438,-100.562 374.892,-99.5454 376.56,-106.344"/>
</g>
<!-- Node41 -->
<g id="node4" class="node"><title>Node41</title>
<g id="a_node4"><a xlink:href="namespacemessages.html#a82dddaab795b78b3d39e1ff1aab2f665" target="_top" xlink:title="Returns the memory usage in kilobytes. ">
<polygon fill="white" stroke="black" points="519,-99.5 519,-120.5 674,-120.5 674,-99.5 519,-99.5"/>
<text text-anchor="middle" x="596.5" y="-106.9" font-family="Ubuntu Mono" font-size="12.00">messages::get_mem_usage</text>
</a>
</g>
</g>
<!-- Node40&#45;&gt;Node41 -->
<g id="edge3" class="edge"><title>Node40&#45;&gt;Node41</title>
<path fill="none" stroke="midnightblue" d="M483.161,-96.3831C491.452,-97.3881 500.208,-98.4495 509.025,-99.5182"/>
<polygon fill="midnightblue" stroke="midnightblue" points="508.635,-102.996 518.984,-100.725 509.478,-96.0474 508.635,-102.996"/>
</g>
<!-- Node42 -->
<g id="node5" class="node"><title>Node42</title>
<g id="a_node5"><a xlink:href="namespacemessages.html#a61fd0b51b5e37d58fdc993c01792a3fd" target="_top" xlink:title="Returns the time. ">
<polygon fill="white" stroke="black" points="531,-59.5 531,-80.5 662,-80.5 662,-59.5 531,-59.5"/>
<text text-anchor="middle" x="596.5" y="-66.9" font-family="Ubuntu Mono" font-size="12.00">messages::get_clock</text>
</a>
</g>
</g>
<!-- Node40&#45;&gt;Node42 -->
<g id="edge4" class="edge"><title>Node40&#45;&gt;Node42</title>
<path fill="none" stroke="midnightblue" d="M483.161,-83.6169C495.142,-82.1646 508.094,-80.5947 520.797,-79.0549"/>
<polygon fill="midnightblue" stroke="midnightblue" points="521.402,-82.5073 530.908,-77.8293 520.56,-75.5581 521.402,-82.5073"/>
</g>
<!-- Node43&#45;&gt;Node40 -->
<g id="edge6" class="edge"><title>Node43&#45;&gt;Node40</title>
<path fill="none" stroke="midnightblue" d="M312.528,-61.554C331.971,-66.323 355.13,-72.0035 375.621,-77.0296"/>
<polygon fill="midnightblue" stroke="midnightblue" points="374.892,-80.4546 385.438,-79.4376 376.56,-73.6561 374.892,-80.4546"/>
</g>
</g>
</svg>
