<?xml version="1.0" encoding="UTF-8" standalone="no"?>
<!DOCTYPE svg PUBLIC "-//W3C//DTD SVG 1.1//EN"
 "http://www.w3.org/Graphics/SVG/1.1/DTD/svg11.dtd">
<!-- Generated by graphviz version 2.38.0 (20140413.2041)
 -->
<!-- Title: messages::passed_time Pages: 1 -->
<svg width="819pt" height="108pt"
 viewBox="0.00 0.00 819.00 108.00" xmlns="http://www.w3.org/2000/svg" xmlns:xlink="http://www.w3.org/1999/xlink">
<g id="graph0" class="graph" transform="scale(1 1) rotate(0) translate(4 104)">
<title>messages::passed_time</title>
<polygon fill="white" stroke="none" points="-4,4 -4,-104 815,-104 815,4 -4,4"/>
<!-- Node459 -->
<g id="node1" class="node"><title>Node459</title>
<polygon fill="#bfbfbf" stroke="black" points="0,-39.5 0,-60.5 143,-60.5 143,-39.5 0,-39.5"/>
<text text-anchor="middle" x="71.5" y="-46.9" font-family="Ubuntu Mono" font-size="12.00">messages::passed_time</text>
</g>
<!-- Node460 -->
<g id="node2" class="node"><title>Node460</title>
<g id="a_node2"><a xlink:href="namespacemessages.html#a2a1154de25763d4894275ff4307b6862" target="_top" xlink:title="messages::stop_time">
<polygon fill="white" stroke="black" points="179,-78.5 179,-99.5 310,-99.5 310,-78.5 179,-78.5"/>
<text text-anchor="middle" x="244.5" y="-85.9" font-family="Ubuntu Mono" font-size="12.00">messages::stop_time</text>
</a>
</g>
</g>
<!-- Node459&#45;&gt;Node460 -->
<g id="edge1" class="edge"><title>Node459&#45;&gt;Node460</title>
<path fill="none" stroke="midnightblue" d="M118.775,-60.554C139.876,-65.3664 165.045,-71.1068 187.23,-76.1665"/>
<polygon fill="midnightblue" stroke="midnightblue" points="186.66,-79.6263 197.188,-78.4376 188.217,-72.8015 186.66,-79.6263"/>
</g>
<!-- Node461 -->
<g id="node3" class="node"><title>Node461</title>
<g id="a_node3"><a xlink:href="namespacemessages.html#aa4a8d01563e92558e8a0875b075ec54c" target="_top" xlink:title="messages::writo">
<polygon fill="white" stroke="black" points="346,-58.5 346,-79.5 453,-79.5 453,-58.5 346,-58.5"/>
<text text-anchor="middle" x="399.5" y="-65.9" font-family="Ubuntu Mono" font-size="12.00">messages::writo</text>
</a>
</g>
</g>
<!-- Node459&#45;&gt;Node461 -->
<g id="edge6" class="edge"><title>Node459&#45;&gt;Node461</title>
<path fill="none" stroke="midnightblue" d="M143.237,-54.1227C200.62,-57.4671 280.75,-62.1373 335.845,-65.3483"/>
<polygon fill="midnightblue" stroke="midnightblue" points="335.643,-68.8424 345.83,-65.9303 336.05,-61.8543 335.643,-68.8424"/>
</g>
<!-- Node465 -->
<g id="node7" class="node"><title>Node465</title>
<g id="a_node7"><a xlink:href="namespacemessages.html#a16a1008834c161135f444d8e8e6d78d7" target="_top" xlink:title="messages::init_time">
<polygon fill="white" stroke="black" points="179,-0.5 179,-21.5 310,-21.5 310,-0.5 179,-0.5"/>
<text text-anchor="middle" x="244.5" y="-7.9" font-family="Ubuntu Mono" font-size="12.00">messages::init_time</text>
</a>
</g>
</g>
<!-- Node459&#45;&gt;Node465 -->
<g id="edge7" class="edge"><title>Node459&#45;&gt;Node465</title>
<path fill="none" stroke="midnightblue" d="M118.775,-39.446C139.876,-34.6336 165.045,-28.8932 187.23,-23.8335"/>
<polygon fill="midnightblue" stroke="midnightblue" points="188.217,-27.1985 197.188,-21.5624 186.66,-20.3737 188.217,-27.1985"/>
</g>
<!-- Node460&#45;&gt;Node461 -->
<g id="edge2" class="edge"><title>Node460&#45;&gt;Node461</title>
<path fill="none" stroke="midnightblue" d="M310.386,-80.5182C318.724,-79.4283 327.25,-78.3137 335.556,-77.2279"/>
<polygon fill="midnightblue" stroke="midnightblue" points="336.089,-80.6881 345.551,-75.9214 335.182,-73.7472 336.089,-80.6881"/>
</g>
<!-- Node462 -->
<g id="node4" class="node"><title>Node462</title>
<g id="a_node4"><a xlink:href="namespacemessages.html#a82dddaab795b78b3d39e1ff1aab2f665" target="_top" xlink:title="messages::get_mem_usage">
<polygon fill="white" stroke="black" points="489,-78.5 489,-99.5 644,-99.5 644,-78.5 489,-78.5"/>
<text text-anchor="middle" x="566.5" y="-85.9" font-family="Ubuntu Mono" font-size="12.00">messages::get_mem_usage</text>
</a>
</g>
</g>
<!-- Node461&#45;&gt;Node462 -->
<g id="edge3" class="edge"><title>Node461&#45;&gt;Node462</title>
<path fill="none" stroke="midnightblue" d="M453.161,-75.3831C461.452,-76.3881 470.208,-77.4495 479.025,-78.5182"/>
<polygon fill="midnightblue" stroke="midnightblue" points="478.635,-81.9965 488.984,-79.7253 479.478,-75.0474 478.635,-81.9965"/>
</g>
<!-- Node463 -->
<g id="node5" class="node"><title>Node463</title>
<g id="a_node5"><a xlink:href="messages_8f90.html#a6d15f28783f95a7a4b2a44185619792f" target="_top" xlink:title="format_str">
<polygon fill="white" stroke="black" points="528,-38.5 528,-59.5 605,-59.5 605,-38.5 528,-38.5"/>
<text text-anchor="middle" x="566.5" y="-45.9" font-family="Ubuntu Mono" font-size="12.00">format_str</text>
</a>
</g>
</g>
<!-- Node461&#45;&gt;Node463 -->
<g id="edge4" class="edge"><title>Node461&#45;&gt;Node463</title>
<path fill="none" stroke="midnightblue" d="M453.161,-62.6169C473.977,-60.0937 497.722,-57.2155 518.002,-54.7573"/>
<polygon fill="midnightblue" stroke="midnightblue" points="518.448,-58.229 527.954,-53.551 517.606,-51.2798 518.448,-58.229"/>
</g>
<!-- Node464 -->
<g id="node6" class="node"><title>Node464</title>
<g id="a_node6"><a xlink:href="namespacemessages.html#a61fd0b51b5e37d58fdc993c01792a3fd" target="_top" xlink:title="messages::get_clock">
<polygon fill="white" stroke="black" points="680,-38.5 680,-59.5 811,-59.5 811,-38.5 680,-38.5"/>
<text text-anchor="middle" x="745.5" y="-45.9" font-family="Ubuntu Mono" font-size="12.00">messages::get_clock</text>
</a>
</g>
</g>
<!-- Node463&#45;&gt;Node464 -->
<g id="edge5" class="edge"><title>Node463&#45;&gt;Node464</title>
<path fill="none" stroke="midnightblue" d="M605.037,-49C623.869,-49 647.372,-49 669.685,-49"/>
<polygon fill="midnightblue" stroke="midnightblue" points="669.832,-52.5001 679.832,-49 669.832,-45.5001 669.832,-52.5001"/>
</g>
</g>
</svg>
