<?xml version="1.0" encoding="UTF-8" standalone="no"?>
<!DOCTYPE svg PUBLIC "-//W3C//DTD SVG 1.1//EN"
 "http://www.w3.org/Graphics/SVG/1.1/DTD/svg11.dtd">
<!-- Generated by graphviz version 2.38.0 (20140413.2041)
 -->
<!-- Title: mpi_ops::broadcast_input_opts Pages: 1 -->
<svg width="807pt" height="109pt"
 viewBox="0.00 0.00 807.00 109.00" xmlns="http://www.w3.org/2000/svg" xmlns:xlink="http://www.w3.org/1999/xlink">
<g id="graph0" class="graph" transform="scale(1 1) rotate(0) translate(4 105)">
<title>mpi_ops::broadcast_input_opts</title>
<polygon fill="white" stroke="none" points="-4,4 -4,-105 803,-105 803,4 -4,4"/>
<!-- Node5 -->
<g id="node1" class="node"><title>Node5</title>
<polygon fill="#bfbfbf" stroke="black" points="0,-34 0,-68 125,-68 125,-34 0,-34"/>
<text text-anchor="start" x="8" y="-54.4" font-family="Ubuntu Mono" font-size="12.00">mpi_ops::broadcast</text>
<text text-anchor="middle" x="62.5" y="-41.4" font-family="Ubuntu Mono" font-size="12.00">_input_opts</text>
</g>
<!-- Node6 -->
<g id="node2" class="node"><title>Node6</title>
<g id="a_node2"><a xlink:href="namespacemessages.html#aa4a8d01563e92558e8a0875b075ec54c" target="_top" xlink:title="messages::writo">
<polygon fill="white" stroke="black" points="334,-59.5 334,-80.5 441,-80.5 441,-59.5 334,-59.5"/>
<text text-anchor="middle" x="387.5" y="-66.9" font-family="Ubuntu Mono" font-size="12.00">messages::writo</text>
</a>
</g>
</g>
<!-- Node5&#45;&gt;Node6 -->
<g id="edge1" class="edge"><title>Node5&#45;&gt;Node6</title>
<path fill="none" stroke="midnightblue" d="M125.103,-65.5964C136.951,-67.846 149.31,-69.8134 161,-71 221.578,-77.1491 237.112,-71.344 298,-71 306.283,-70.9532 315.002,-70.8818 323.605,-70.7982"/>
<polygon fill="midnightblue" stroke="midnightblue" points="323.656,-74.2979 333.62,-70.6952 323.584,-67.2983 323.656,-74.2979"/>
</g>
<!-- Node10 -->
<g id="node6" class="node"><title>Node10</title>
<g id="a_node6"><a xlink:href="namespacemessages.html#a6e6bfb084063e4cc91ee86e542043302" target="_top" xlink:title="messages::lvl_ud">
<polygon fill="white" stroke="black" points="173,-40.5 173,-61.5 286,-61.5 286,-40.5 173,-40.5"/>
<text text-anchor="middle" x="229.5" y="-47.9" font-family="Ubuntu Mono" font-size="12.00">messages::lvl_ud</text>
</a>
</g>
</g>
<!-- Node5&#45;&gt;Node10 -->
<g id="edge5" class="edge"><title>Node5&#45;&gt;Node10</title>
<path fill="none" stroke="midnightblue" d="M125.409,-51C137.554,-51 150.335,-51 162.605,-51"/>
<polygon fill="midnightblue" stroke="midnightblue" points="162.766,-54.5001 172.766,-51 162.766,-47.5001 162.766,-54.5001"/>
</g>
<!-- Node11 -->
<g id="node7" class="node"><title>Node11</title>
<g id="a_node7"><a xlink:href="namespacestr__utilities.html#a0b97e51770725a3e98ed393d26681414" target="_top" xlink:title="str_utilities::i2str">
<polygon fill="white" stroke="black" points="161,-0.5 161,-21.5 298,-21.5 298,-0.5 161,-0.5"/>
<text text-anchor="middle" x="229.5" y="-7.9" font-family="Ubuntu Mono" font-size="12.00">str_utilities::i2str</text>
</a>
</g>
</g>
<!-- Node5&#45;&gt;Node11 -->
<g id="edge7" class="edge"><title>Node5&#45;&gt;Node11</title>
<path fill="none" stroke="midnightblue" d="M125.409,-35.9917C141.687,-32.0455 159.107,-27.8224 174.908,-23.992"/>
<polygon fill="midnightblue" stroke="midnightblue" points="176.135,-27.2959 185.029,-21.5383 174.486,-20.4929 176.135,-27.2959"/>
</g>
<!-- Node7 -->
<g id="node3" class="node"><title>Node7</title>
<g id="a_node3"><a xlink:href="namespacemessages.html#a82dddaab795b78b3d39e1ff1aab2f665" target="_top" xlink:title="messages::get_mem_usage">
<polygon fill="white" stroke="black" points="477,-79.5 477,-100.5 632,-100.5 632,-79.5 477,-79.5"/>
<text text-anchor="middle" x="554.5" y="-86.9" font-family="Ubuntu Mono" font-size="12.00">messages::get_mem_usage</text>
</a>
</g>
</g>
<!-- Node6&#45;&gt;Node7 -->
<g id="edge2" class="edge"><title>Node6&#45;&gt;Node7</title>
<path fill="none" stroke="midnightblue" d="M441.161,-76.3831C449.452,-77.3881 458.208,-78.4495 467.025,-79.5182"/>
<polygon fill="midnightblue" stroke="midnightblue" points="466.635,-82.9965 476.984,-80.7253 467.478,-76.0474 466.635,-82.9965"/>
</g>
<!-- Node8 -->
<g id="node4" class="node"><title>Node8</title>
<g id="a_node4"><a xlink:href="messages_8f90.html#a6d15f28783f95a7a4b2a44185619792f" target="_top" xlink:title="format_str">
<polygon fill="white" stroke="black" points="516,-39.5 516,-60.5 593,-60.5 593,-39.5 516,-39.5"/>
<text text-anchor="middle" x="554.5" y="-46.9" font-family="Ubuntu Mono" font-size="12.00">format_str</text>
</a>
</g>
</g>
<!-- Node6&#45;&gt;Node8 -->
<g id="edge3" class="edge"><title>Node6&#45;&gt;Node8</title>
<path fill="none" stroke="midnightblue" d="M441.161,-63.6169C461.977,-61.0937 485.722,-58.2155 506.002,-55.7573"/>
<polygon fill="midnightblue" stroke="midnightblue" points="506.448,-59.229 515.954,-54.551 505.606,-52.2798 506.448,-59.229"/>
</g>
<!-- Node9 -->
<g id="node5" class="node"><title>Node9</title>
<g id="a_node5"><a xlink:href="namespacemessages.html#a61fd0b51b5e37d58fdc993c01792a3fd" target="_top" xlink:title="messages::get_clock">
<polygon fill="white" stroke="black" points="668,-39.5 668,-60.5 799,-60.5 799,-39.5 668,-39.5"/>
<text text-anchor="middle" x="733.5" y="-46.9" font-family="Ubuntu Mono" font-size="12.00">messages::get_clock</text>
</a>
</g>
</g>
<!-- Node8&#45;&gt;Node9 -->
<g id="edge4" class="edge"><title>Node8&#45;&gt;Node9</title>
<path fill="none" stroke="midnightblue" d="M593.037,-50C611.869,-50 635.372,-50 657.685,-50"/>
<polygon fill="midnightblue" stroke="midnightblue" points="657.832,-53.5001 667.832,-50 657.832,-46.5001 657.832,-53.5001"/>
</g>
<!-- Node10&#45;&gt;Node6 -->
<g id="edge6" class="edge"><title>Node10&#45;&gt;Node6</title>
<path fill="none" stroke="midnightblue" d="M286.379,-57.8058C298.468,-59.2782 311.331,-60.8448 323.667,-62.3472"/>
<polygon fill="midnightblue" stroke="midnightblue" points="323.527,-65.856 333.877,-63.5907 324.373,-58.9073 323.527,-65.856"/>
</g>
</g>
</svg>
