<?xml version="1.0" encoding="UTF-8" standalone="no"?>
<!DOCTYPE svg PUBLIC "-//W3C//DTD SVG 1.1//EN"
 "http://www.w3.org/Graphics/SVG/1.1/DTD/svg11.dtd">
<!-- Generated by graphviz version 2.38.0 (20140413.2041)
 -->
<!-- Title: sol_vars::dealloc_sol Pages: 1 -->
<svg width="682pt" height="129pt"
 viewBox="0.00 0.00 682.00 129.00" xmlns="http://www.w3.org/2000/svg" xmlns:xlink="http://www.w3.org/1999/xlink">
<g id="graph0" class="graph" transform="scale(1 1) rotate(0) translate(4 125)">
<title>sol_vars::dealloc_sol</title>
<polygon fill="white" stroke="none" points="-4,4 -4,-125 678,-125 678,4 -4,4"/>
<!-- Node0 -->
<g id="node1" class="node"><title>Node0</title>
<polygon fill="#bfbfbf" stroke="black" points="0,-60.5 0,-81.5 143,-81.5 143,-60.5 0,-60.5"/>
<text text-anchor="middle" x="71.5" y="-67.9" font-family="Ubuntu Mono" font-size="12.00">sol_vars::dealloc_sol</text>
</g>
<!-- Node1 -->
<g id="node2" class="node"><title>Node1</title>
<g id="a_node2"><a xlink:href="namespacemessages.html#a82dddaab795b78b3d39e1ff1aab2f665" target="_top" xlink:title="messages::get_mem_usage">
<polygon fill="white" stroke="black" points="352,-99.5 352,-120.5 507,-120.5 507,-99.5 352,-99.5"/>
<text text-anchor="middle" x="429.5" y="-106.9" font-family="Ubuntu Mono" font-size="12.00">messages::get_mem_usage</text>
</a>
</g>
</g>
<!-- Node0&#45;&gt;Node1 -->
<g id="edge1" class="edge"><title>Node0&#45;&gt;Node1</title>
<path fill="none" stroke="midnightblue" d="M93.8735,-81.6462C114.924,-91.4942 148.296,-105.424 179,-111 232.516,-120.719 293.561,-120.663 341.872,-118.083"/>
<polygon fill="midnightblue" stroke="midnightblue" points="342.2,-121.57 351.981,-117.497 341.795,-114.581 342.2,-121.57"/>
</g>
<!-- Node2 -->
<g id="node3" class="node"><title>Node2</title>
<g id="a_node3"><a xlink:href="sol__vars_8f90.html#aaf387ea01074131d40eb2a8aada68fc3" target="_top" xlink:title="dealloc_sol_final">
<polygon fill="white" stroke="black" points="188,-80.5 188,-101.5 307,-101.5 307,-80.5 188,-80.5"/>
<text text-anchor="middle" x="247.5" y="-87.9" font-family="Ubuntu Mono" font-size="12.00">dealloc_sol_final</text>
</a>
</g>
</g>
<!-- Node0&#45;&gt;Node2 -->
<g id="edge2" class="edge"><title>Node0&#45;&gt;Node2</title>
<path fill="none" stroke="midnightblue" d="M143.022,-79.1059C154.534,-80.4292 166.445,-81.7983 177.91,-83.1161"/>
<polygon fill="midnightblue" stroke="midnightblue" points="177.514,-86.5935 187.848,-84.2584 178.313,-79.6393 177.514,-86.5935"/>
</g>
<!-- Node3 -->
<g id="node4" class="node"><title>Node3</title>
<g id="a_node4"><a xlink:href="namespacemessages.html#aa4a8d01563e92558e8a0875b075ec54c" target="_top" xlink:title="messages::writo">
<polygon fill="white" stroke="black" points="194,-40.5 194,-61.5 301,-61.5 301,-40.5 194,-40.5"/>
<text text-anchor="middle" x="247.5" y="-47.9" font-family="Ubuntu Mono" font-size="12.00">messages::writo</text>
</a>
</g>
</g>
<!-- Node0&#45;&gt;Node3 -->
<g id="edge3" class="edge"><title>Node0&#45;&gt;Node3</title>
<path fill="none" stroke="midnightblue" d="M143.022,-62.8941C156.534,-61.3409 170.597,-59.7245 183.841,-58.2022"/>
<polygon fill="midnightblue" stroke="midnightblue" points="184.252,-61.6781 193.787,-57.059 183.453,-54.7239 184.252,-61.6781"/>
</g>
<!-- Node6 -->
<g id="node7" class="node"><title>Node6</title>
<g id="a_node7"><a xlink:href="namespacestr__utilities.html#a0b97e51770725a3e98ed393d26681414" target="_top" xlink:title="str_utilities::i2str">
<polygon fill="white" stroke="black" points="179,-0.5 179,-21.5 316,-21.5 316,-0.5 179,-0.5"/>
<text text-anchor="middle" x="247.5" y="-7.9" font-family="Ubuntu Mono" font-size="12.00">str_utilities::i2str</text>
</a>
</g>
</g>
<!-- Node0&#45;&gt;Node6 -->
<g id="edge7" class="edge"><title>Node0&#45;&gt;Node6</title>
<path fill="none" stroke="midnightblue" d="M99.0101,-60.4425C120.444,-52.0525 151.474,-40.2341 179,-31 185.54,-28.8061 192.477,-26.6075 199.318,-24.5129"/>
<polygon fill="midnightblue" stroke="midnightblue" points="200.65,-27.7671 209.215,-21.5311 198.63,-21.0647 200.65,-27.7671"/>
</g>
<!-- Node3&#45;&gt;Node1 -->
<g id="edge4" class="edge"><title>Node3&#45;&gt;Node1</title>
<path fill="none" stroke="midnightblue" d="M285.378,-61.5957C295.345,-64.5496 306.109,-67.8221 316,-71 340.576,-78.8963 367.945,-88.3688 389.534,-96.0009"/>
<polygon fill="midnightblue" stroke="midnightblue" points="388.421,-99.3198 399.015,-99.3658 390.762,-92.7229 388.421,-99.3198"/>
</g>
<!-- Node4 -->
<g id="node5" class="node"><title>Node4</title>
<g id="a_node5"><a xlink:href="messages_8f90.html#a6d15f28783f95a7a4b2a44185619792f" target="_top" xlink:title="format_str">
<polygon fill="white" stroke="black" points="391,-40.5 391,-61.5 468,-61.5 468,-40.5 391,-40.5"/>
<text text-anchor="middle" x="429.5" y="-47.9" font-family="Ubuntu Mono" font-size="12.00">format_str</text>
</a>
</g>
</g>
<!-- Node3&#45;&gt;Node4 -->
<g id="edge5" class="edge"><title>Node3&#45;&gt;Node4</title>
<path fill="none" stroke="midnightblue" d="M301.047,-51C326.198,-51 356.099,-51 380.615,-51"/>
<polygon fill="midnightblue" stroke="midnightblue" points="380.764,-54.5001 390.764,-51 380.763,-47.5001 380.764,-54.5001"/>
</g>
<!-- Node5 -->
<g id="node6" class="node"><title>Node5</title>
<g id="a_node6"><a xlink:href="namespacemessages.html#a61fd0b51b5e37d58fdc993c01792a3fd" target="_top" xlink:title="messages::get_clock">
<polygon fill="white" stroke="black" points="543,-40.5 543,-61.5 674,-61.5 674,-40.5 543,-40.5"/>
<text text-anchor="middle" x="608.5" y="-47.9" font-family="Ubuntu Mono" font-size="12.00">messages::get_clock</text>
</a>
</g>
</g>
<!-- Node4&#45;&gt;Node5 -->
<g id="edge6" class="edge"><title>Node4&#45;&gt;Node5</title>
<path fill="none" stroke="midnightblue" d="M468.037,-51C486.869,-51 510.372,-51 532.685,-51"/>
<polygon fill="midnightblue" stroke="midnightblue" points="532.832,-54.5001 542.832,-51 532.832,-47.5001 532.832,-54.5001"/>
</g>
</g>
</svg>
