<?xml version="1.0" encoding="UTF-8" standalone="no"?>
<!DOCTYPE svg PUBLIC "-//W3C//DTD SVG 1.1//EN"
 "http://www.w3.org/Graphics/SVG/1.1/DTD/svg11.dtd">
<!-- Generated by graphviz version 2.43.0 (0)
 -->
<!-- Title: sol_ops::print_output_sol Pages: 1 -->
<svg width="456pt" height="30pt"
 viewBox="0.00 0.00 456.00 30.00" xmlns="http://www.w3.org/2000/svg" xmlns:xlink="http://www.w3.org/1999/xlink">
<g id="graph0" class="graph" transform="scale(1 1) rotate(0) translate(4 26)">
<title>sol_ops::print_output_sol</title>
<polygon fill="white" stroke="transparent" points="-4,4 -4,-26 452,-26 452,4 -4,4"/>
<!-- Node1 -->
<g id="node1" class="node">
<title>Node1</title>
<g id="a_node1"><a xlink:title="Print solution quantities to an output file:">
<polygon fill="#bfbfbf" stroke="black" points="285,-0.5 285,-21.5 448,-21.5 448,-0.5 285,-0.5"/>
<text text-anchor="middle" x="366.5" y="-7.9" font-family="Ubuntu Mono" font-size="12.00">sol_ops::print_output_sol</text>
</a>
</g>
</g>
<!-- Node2 -->
<g id="node2" class="node">
<title>Node2</title>
<g id="a_node2"><a xlink:href="namespacedriver__sol.html#ad3b1765b3ecc5f82129bfc683ffc6c5c" target="_top" xlink:title="Main driver of PB3D solution part.">
<polygon fill="white" stroke="black" points="83,-0.5 83,-21.5 249,-21.5 249,-0.5 83,-0.5"/>
<text text-anchor="middle" x="166" y="-7.9" font-family="Ubuntu Mono" font-size="12.00">driver_sol::run_driver_sol</text>
</a>
</g>
</g>
<!-- Node1&#45;&gt;Node2 -->
<g id="edge1" class="edge">
<title>Node1&#45;&gt;Node2</title>
<path fill="none" stroke="midnightblue" d="M274.54,-11C266.12,-11 257.62,-11 249.28,-11"/>
<polygon fill="midnightblue" stroke="midnightblue" points="274.76,-14.5 284.76,-11 274.76,-7.5 274.76,-14.5"/>
</g>
<!-- Node3 -->
<g id="node3" class="node">
<title>Node3</title>
<g id="a_node3"><a xlink:href="PB3D_8f90.html#afaee01f014ab3398eecac996b2795fd2" target="_top" xlink:title="Peeling Ballooning in 3D.">
<polygon fill="white" stroke="black" points="0,-0.5 0,-21.5 47,-21.5 47,-0.5 0,-0.5"/>
<text text-anchor="middle" x="23.5" y="-7.9" font-family="Ubuntu Mono" font-size="12.00">pb3d</text>
</a>
</g>
</g>
<!-- Node2&#45;&gt;Node3 -->
<g id="edge2" class="edge">
<title>Node2&#45;&gt;Node3</title>
<path fill="none" stroke="midnightblue" d="M72.59,-11C63.29,-11 54.57,-11 47.18,-11"/>
<polygon fill="midnightblue" stroke="midnightblue" points="72.86,-14.5 82.86,-11 72.86,-7.5 72.86,-14.5"/>
</g>
</g>
</svg>
