<?xml version="1.0" encoding="UTF-8" standalone="no"?>
<!DOCTYPE svg PUBLIC "-//W3C//DTD SVG 1.1//EN"
 "http://www.w3.org/Graphics/SVG/1.1/DTD/svg11.dtd">
<!-- Generated by graphviz version 2.38.0 (20140413.2041)
 -->
<!-- Title: mpi_ops::stop_mpi Pages: 1 -->
<svg width="300pt" height="110pt"
 viewBox="0.00 0.00 300.00 110.00" xmlns="http://www.w3.org/2000/svg" xmlns:xlink="http://www.w3.org/1999/xlink">
<g id="graph0" class="graph" transform="scale(1 1) rotate(0) translate(4 106)">
<title>mpi_ops::stop_mpi</title>
<polygon fill="white" stroke="none" points="-4,4 -4,-106 296,-106 296,4 -4,4"/>
<!-- Node35 -->
<g id="node1" class="node"><title>Node35</title>
<polygon fill="#bfbfbf" stroke="black" points="0,-40.5 0,-61.5 119,-61.5 119,-40.5 0,-40.5"/>
<text text-anchor="middle" x="59.5" y="-47.9" font-family="Ubuntu Mono" font-size="12.00">mpi_ops::stop_mpi</text>
</g>
<!-- Node36 -->
<g id="node2" class="node"><title>Node36</title>
<g id="a_node2"><a xlink:href="namespacempi__ops.html#a40e8610357a9a5b075fef9dab1c3f24f" target="_top" xlink:title="mpi_ops::sudden_stop">
<polygon fill="white" stroke="black" points="155,-80.5 155,-101.5 292,-101.5 292,-80.5 155,-80.5"/>
<text text-anchor="middle" x="223.5" y="-87.9" font-family="Ubuntu Mono" font-size="12.00">mpi_ops::sudden_stop</text>
</a>
</g>
</g>
<!-- Node35&#45;&gt;Node36 -->
<g id="edge1" class="edge"><title>Node35&#45;&gt;Node36</title>
<path fill="none" stroke="midnightblue" d="M112.79,-63.911C134.501,-69.2718 159.373,-75.413 179.94,-80.4913"/>
<polygon fill="midnightblue" stroke="midnightblue" points="113.611,-60.5088 103.064,-61.5095 111.933,-67.3047 113.611,-60.5088"/>
</g>
<!-- Node37 -->
<g id="node3" class="node"><title>Node37</title>
<g id="a_node3"><a xlink:href="PB3D_8f90.html#afaee01f014ab3398eecac996b2795fd2" target="_top" xlink:title="pb3d">
<polygon fill="white" stroke="black" points="203,-40.5 203,-61.5 244,-61.5 244,-40.5 203,-40.5"/>
<text text-anchor="middle" x="223.5" y="-47.9" font-family="Ubuntu Mono" font-size="12.00">pb3d</text>
</a>
</g>
</g>
<!-- Node35&#45;&gt;Node37 -->
<g id="edge2" class="edge"><title>Node35&#45;&gt;Node37</title>
<path fill="none" stroke="midnightblue" d="M129.541,-51C156.177,-51 184.577,-51 202.876,-51"/>
<polygon fill="midnightblue" stroke="midnightblue" points="129.444,-47.5001 119.444,-51 129.444,-54.5001 129.444,-47.5001"/>
</g>
<!-- Node38 -->
<g id="node4" class="node"><title>Node38</title>
<g id="a_node4"><a xlink:href="POST_8f90.html#ac289b64ac4671fea0b4f2298ba1188a1" target="_top" xlink:title="post">
<polygon fill="white" stroke="black" points="203,-0.5 203,-21.5 244,-21.5 244,-0.5 203,-0.5"/>
<text text-anchor="middle" x="223.5" y="-7.9" font-family="Ubuntu Mono" font-size="12.00">post</text>
</a>
</g>
</g>
<!-- Node35&#45;&gt;Node38 -->
<g id="edge3" class="edge"><title>Node35&#45;&gt;Node38</title>
<path fill="none" stroke="midnightblue" d="M112.787,-38.0895C143.504,-30.5052 180.548,-21.3585 202.777,-15.8698"/>
<polygon fill="midnightblue" stroke="midnightblue" points="111.933,-34.6953 103.064,-40.4905 113.611,-41.4912 111.933,-34.6953"/>
</g>
</g>
</svg>
