<?xml version="1.0" encoding="UTF-8" standalone="no"?>
<!DOCTYPE svg PUBLIC "-//W3C//DTD SVG 1.1//EN"
 "http://www.w3.org/Graphics/SVG/1.1/DTD/svg11.dtd">
<!-- Generated by graphviz version 2.43.0 (0)
 -->
<!-- Title: pb3d_ops::reconstruct_pb3d_in Pages: 1 -->
<svg width="1075pt" height="461pt"
 viewBox="0.00 0.00 1075.00 460.81" xmlns="http://www.w3.org/2000/svg" xmlns:xlink="http://www.w3.org/1999/xlink">
<g id="graph0" class="graph" transform="scale(1 1) rotate(0) translate(4 456.81)">
<title>pb3d_ops::reconstruct_pb3d_in</title>
<polygon fill="white" stroke="transparent" points="-4,4 -4,-456.81 1071,-456.81 1071,4 -4,4"/>
<!-- Node1 -->
<g id="node1" class="node">
<title>Node1</title>
<g id="a_node1"><a xlink:title="Reconstructs the input variables from PB3D HDF5 output.">
<polygon fill="#bfbfbf" stroke="black" points="0,-333.64 0,-367.64 149,-367.64 149,-333.64 0,-333.64"/>
<text text-anchor="start" x="8" y="-354.04" font-family="Ubuntu Mono" font-size="12.00">pb3d_ops::reconstruct</text>
<text text-anchor="middle" x="74.5" y="-341.04" font-family="Ubuntu Mono" font-size="12.00">_pb3d_in</text>
</a>
</g>
</g>
<!-- Node2 -->
<g id="node2" class="node">
<title>Node2</title>
<g id="a_node2"><a xlink:href="namespacemessages.html#a6e6bfb084063e4cc91ee86e542043302" target="_top" xlink:title="Increases/decreases lvl of output.">
<polygon fill="white" stroke="black" points="206.5,-373.14 206.5,-394.14 324.5,-394.14 324.5,-373.14 206.5,-373.14"/>
<text text-anchor="middle" x="265.5" y="-380.54" font-family="Ubuntu Mono" font-size="12.00">messages::lvl_ud</text>
</a>
</g>
</g>
<!-- Node1&#45;&gt;Node2 -->
<g id="edge1" class="edge">
<title>Node1&#45;&gt;Node2</title>
<path fill="none" stroke="midnightblue" d="M149.11,-363.49C164.67,-366.21 181.03,-369.06 196.37,-371.74"/>
<polygon fill="midnightblue" stroke="midnightblue" points="195.84,-375.2 206.29,-373.47 197.04,-368.31 195.84,-375.2"/>
</g>
<!-- Node3 -->
<g id="node3" class="node">
<title>Node3</title>
<g id="a_node3"><a xlink:href="namespacemessages.html#aa4a8d01563e92558e8a0875b075ec54c" target="_top" xlink:title="Write output to file identified by output_i.">
<polygon fill="white" stroke="black" points="562,-401.14 562,-422.14 676,-422.14 676,-401.14 562,-401.14"/>
<text text-anchor="middle" x="619" y="-408.54" font-family="Ubuntu Mono" font-size="12.00">messages::writo</text>
</a>
</g>
</g>
<!-- Node1&#45;&gt;Node3 -->
<g id="edge31" class="edge">
<title>Node1&#45;&gt;Node3</title>
<path fill="none" stroke="midnightblue" d="M102.66,-367.65C124.13,-380.11 155.31,-396.11 185,-403.64 311.59,-435.72 465.72,-427.95 551.76,-419.64"/>
<polygon fill="midnightblue" stroke="midnightblue" points="552.3,-423.1 561.9,-418.62 551.6,-416.14 552.3,-423.1"/>
</g>
<!-- Node7 -->
<g id="node7" class="node">
<title>Node7</title>
<g id="a_node7"><a xlink:href="namespacestr__utilities.html#ac778d706b2e021672618939ab58fdd32" target="_top" xlink:title="Convert a real (double) to string.">
<polygon fill="white" stroke="black" points="762,-11.14 762,-32.14 883,-32.14 883,-11.14 762,-11.14"/>
<text text-anchor="middle" x="822.5" y="-18.54" font-family="Ubuntu Mono" font-size="12.00">str_utilities::r2strt</text>
</a>
</g>
</g>
<!-- Node1&#45;&gt;Node7 -->
<g id="edge6" class="edge">
<title>Node1&#45;&gt;Node7</title>
<path fill="none" stroke="midnightblue" d="M87.94,-333.38C125.82,-282.11 245.58,-129.53 382,-52.64 499.74,13.73 664.32,3.25 754.99,-9.61"/>
<polygon fill="midnightblue" stroke="midnightblue" points="754.73,-13.11 765.14,-11.1 755.75,-6.19 754.73,-13.11"/>
</g>
<!-- Node8 -->
<g id="node8" class="node">
<title>Node8</title>
<g id="a_node8"><a xlink:href="namespacehdf5__ops.html#a5108e0d6f6b492cb981505ebceedd9ee" target="_top" xlink:title="Reads a PB3D output file in HDF5 format.">
<polygon fill="white" stroke="black" points="185,-276.14 185,-297.14 346,-297.14 346,-276.14 185,-276.14"/>
<text text-anchor="middle" x="265.5" y="-283.54" font-family="Ubuntu Mono" font-size="12.00">hdf5_ops::read_hdf5_arr</text>
</a>
</g>
</g>
<!-- Node1&#45;&gt;Node8 -->
<g id="edge7" class="edge">
<title>Node1&#45;&gt;Node8</title>
<path fill="none" stroke="midnightblue" d="M126.15,-333.49C156.67,-323.15 195.02,-310.16 223.6,-300.49"/>
<polygon fill="midnightblue" stroke="midnightblue" points="224.93,-303.73 233.28,-297.21 222.68,-297.1 224.93,-303.73"/>
</g>
<!-- Node2&#45;&gt;Node3 -->
<g id="edge2" class="edge">
<title>Node2&#45;&gt;Node3</title>
<path fill="none" stroke="midnightblue" d="M324.54,-388.26C387.01,-393.24 486.2,-401.14 551.69,-406.36"/>
<polygon fill="midnightblue" stroke="midnightblue" points="551.66,-409.86 561.91,-407.17 552.22,-402.89 551.66,-409.86"/>
</g>
<!-- Node4 -->
<g id="node4" class="node">
<title>Node4</title>
<g id="a_node4"><a xlink:href="namespacemessages.html#a61fd0b51b5e37d58fdc993c01792a3fd" target="_top" xlink:title="Returns the time.">
<polygon fill="white" stroke="black" points="752.5,-401.14 752.5,-422.14 892.5,-422.14 892.5,-401.14 752.5,-401.14"/>
<text text-anchor="middle" x="822.5" y="-408.54" font-family="Ubuntu Mono" font-size="12.00">messages::get_clock</text>
</a>
</g>
</g>
<!-- Node3&#45;&gt;Node4 -->
<g id="edge3" class="edge">
<title>Node3&#45;&gt;Node4</title>
<path fill="none" stroke="midnightblue" d="M676.13,-411.64C696.63,-411.64 720.22,-411.64 742.35,-411.64"/>
<polygon fill="midnightblue" stroke="midnightblue" points="742.4,-415.14 752.4,-411.64 742.4,-408.14 742.4,-415.14"/>
</g>
<!-- Node5 -->
<g id="node5" class="node">
<title>Node5</title>
<g id="a_node5"><a xlink:href="namespacemessages.html#a82dddaab795b78b3d39e1ff1aab2f665" target="_top" xlink:title="Returns the memory usage in kilobytes.">
<polygon fill="white" stroke="black" points="731,-361.14 731,-382.14 914,-382.14 914,-361.14 731,-361.14"/>
<text text-anchor="middle" x="822.5" y="-368.54" font-family="Ubuntu Mono" font-size="12.00">messages::get_mem_usage</text>
</a>
</g>
</g>
<!-- Node3&#45;&gt;Node5 -->
<g id="edge4" class="edge">
<title>Node3&#45;&gt;Node5</title>
<path fill="none" stroke="midnightblue" d="M672.94,-401.13C699.22,-395.91 731.14,-389.58 758.65,-384.11"/>
<polygon fill="midnightblue" stroke="midnightblue" points="759.44,-387.53 768.56,-382.15 758.07,-380.66 759.44,-387.53"/>
</g>
<!-- Node6 -->
<g id="node6" class="node">
<title>Node6</title>
<g id="a_node6"><a xlink:href="namespacestr__utilities.html#a0b97e51770725a3e98ed393d26681414" target="_top" xlink:title="Convert an integer to string.">
<polygon fill="white" stroke="black" points="951.5,-303.14 951.5,-324.14 1065.5,-324.14 1065.5,-303.14 951.5,-303.14"/>
<text text-anchor="middle" x="1008.5" y="-310.54" font-family="Ubuntu Mono" font-size="12.00">str_utilities::i2str</text>
</a>
</g>
</g>
<!-- Node3&#45;&gt;Node6 -->
<g id="edge5" class="edge">
<title>Node3&#45;&gt;Node6</title>
<path fill="none" stroke="midnightblue" d="M647.66,-422.19C701.88,-441.08 824.65,-474.84 914,-431.64 956.13,-411.27 985.06,-361.69 998.65,-333.71"/>
<polygon fill="midnightblue" stroke="midnightblue" points="1001.9,-335.01 1002.96,-324.47 995.56,-332.05 1001.9,-335.01"/>
</g>
<!-- Node8&#45;&gt;Node3 -->
<g id="edge30" class="edge">
<title>Node8&#45;&gt;Node3</title>
<path fill="none" stroke="midnightblue" d="M280.24,-297.38C301.08,-313.14 342.43,-342.41 382,-358.64 412.3,-371.06 493.29,-388.02 551.95,-399.38"/>
<polygon fill="midnightblue" stroke="midnightblue" points="551.41,-402.84 561.89,-401.29 552.73,-395.96 551.41,-402.84"/>
</g>
<!-- Node8&#45;&gt;Node6 -->
<g id="edge8" class="edge">
<title>Node8&#45;&gt;Node6</title>
<path fill="none" stroke="midnightblue" d="M346.15,-289.54C493.15,-294.9 804.49,-306.24 941,-311.21"/>
<polygon fill="midnightblue" stroke="midnightblue" points="941.19,-314.72 951.31,-311.59 941.44,-307.73 941.19,-314.72"/>
</g>
<!-- Node9 -->
<g id="node9" class="node">
<title>Node9</title>
<g id="a_node9"><a xlink:href="namespacehdf5__utilities.html#aa9d76166f970a7052cd0d96c8f3ee0be" target="_top" xlink:title="Lists all variables in a HDF5 group.">
<polygon fill="white" stroke="black" points="382,-315.64 382,-349.64 507,-349.64 507,-315.64 382,-315.64"/>
<text text-anchor="start" x="390" y="-336.04" font-family="Ubuntu Mono" font-size="12.00">hdf5_utilities::list</text>
<text text-anchor="middle" x="444.5" y="-323.04" font-family="Ubuntu Mono" font-size="12.00">_all_vars_in_group</text>
</a>
</g>
</g>
<!-- Node8&#45;&gt;Node9 -->
<g id="edge9" class="edge">
<title>Node8&#45;&gt;Node9</title>
<path fill="none" stroke="midnightblue" d="M307.11,-297.19C326.4,-302.2 350.04,-308.35 372.18,-314.1"/>
<polygon fill="midnightblue" stroke="midnightblue" points="371.34,-317.5 381.9,-316.63 373.1,-310.72 371.34,-317.5"/>
</g>
<!-- Node10 -->
<g id="node10" class="node">
<title>Node10</title>
<g id="a_node10"><a xlink:href="namespacempi__utilities.html#a5a789d05be41d6109c01f46cc98620c8" target="_top" xlink:title="Request access to lock of a BL (blocking) or optionally a NB (non&#45;blocking) type.">
<polygon fill="white" stroke="black" points="385,-177.64 385,-211.64 504,-211.64 504,-177.64 385,-177.64"/>
<text text-anchor="start" x="393" y="-198.04" font-family="Ubuntu Mono" font-size="12.00">mpi_utilities::lock</text>
<text text-anchor="middle" x="444.5" y="-185.04" font-family="Ubuntu Mono" font-size="12.00">_req_acc</text>
</a>
</g>
</g>
<!-- Node8&#45;&gt;Node10 -->
<g id="edge12" class="edge">
<title>Node8&#45;&gt;Node10</title>
<path fill="none" stroke="midnightblue" d="M286.8,-276.08C314.56,-261.66 365.03,-235.42 401.2,-216.63"/>
<polygon fill="midnightblue" stroke="midnightblue" points="403.26,-219.5 410.52,-211.78 400.03,-213.28 403.26,-219.5"/>
</g>
<!-- Node17 -->
<g id="node17" class="node">
<title>Node17</title>
<g id="a_node17"><a xlink:href="namespacempi__utilities.html#a86f9982a0f92b51a916f832d9a3d8ba9" target="_top" xlink:title="Returns access to a lock.">
<polygon fill="white" stroke="black" points="385,-115.64 385,-149.64 504,-149.64 504,-115.64 385,-115.64"/>
<text text-anchor="start" x="393" y="-136.04" font-family="Ubuntu Mono" font-size="12.00">mpi_utilities::lock</text>
<text text-anchor="middle" x="444.5" y="-123.04" font-family="Ubuntu Mono" font-size="12.00">_return_acc</text>
</a>
</g>
</g>
<!-- Node8&#45;&gt;Node17 -->
<g id="edge24" class="edge">
<title>Node8&#45;&gt;Node17</title>
<path fill="none" stroke="midnightblue" d="M274.93,-276.12C292.93,-254.11 337.15,-202.36 382,-167.64 387.81,-163.14 394.26,-158.83 400.74,-154.87"/>
<polygon fill="midnightblue" stroke="midnightblue" points="402.68,-157.79 409.53,-149.7 399.14,-151.76 402.68,-157.79"/>
</g>
<!-- Node18 -->
<g id="node18" class="node">
<title>Node18</title>
<g id="a_node18"><a xlink:href="namespacehdf5__utilities.html#a7574320980affc30a584f7776d33a51c" target="_top" xlink:title="Sets up the chunk property list and/or the 1D hyperslabs that correspond to a local subset of lim_tot...">
<polygon fill="white" stroke="black" points="386,-62.64 386,-96.64 503,-96.64 503,-62.64 386,-62.64"/>
<text text-anchor="start" x="394" y="-83.04" font-family="Ubuntu Mono" font-size="12.00">hdf5_utilities::set</text>
<text text-anchor="middle" x="444.5" y="-70.04" font-family="Ubuntu Mono" font-size="12.00">_1d_vars</text>
</a>
</g>
</g>
<!-- Node8&#45;&gt;Node18 -->
<g id="edge29" class="edge">
<title>Node8&#45;&gt;Node18</title>
<path fill="none" stroke="midnightblue" d="M270.55,-276.1C282.79,-245.59 322.2,-156.15 382,-105.64 383.49,-104.37 385.06,-103.17 386.68,-102.01"/>
<polygon fill="midnightblue" stroke="midnightblue" points="388.57,-104.95 395.15,-96.65 384.83,-99.04 388.57,-104.95"/>
</g>
<!-- Node9&#45;&gt;Node3 -->
<g id="edge11" class="edge">
<title>Node9&#45;&gt;Node3</title>
<path fill="none" stroke="midnightblue" d="M482.93,-349.78C513.55,-363.8 556.42,-383.44 585.6,-396.8"/>
<polygon fill="midnightblue" stroke="midnightblue" points="584.38,-400.09 594.93,-401.07 587.29,-393.72 584.38,-400.09"/>
</g>
<!-- Node9&#45;&gt;Node6 -->
<g id="edge10" class="edge">
<title>Node9&#45;&gt;Node6</title>
<path fill="none" stroke="midnightblue" d="M507.25,-330.55C613.74,-326.95 831.03,-319.6 940.83,-315.89"/>
<polygon fill="midnightblue" stroke="midnightblue" points="941.23,-319.38 951.11,-315.54 941,-312.38 941.23,-319.38"/>
</g>
<!-- Node11 -->
<g id="node11" class="node">
<title>Node11</title>
<g id="a_node11"><a xlink:href="namespacempi__utilities.html#a17c39b0498528e2532c8347b0b7dec86" target="_top" xlink:title="Get notified that the rank can get the lock.">
<polygon fill="white" stroke="black" points="559.5,-231.64 559.5,-265.64 678.5,-265.64 678.5,-231.64 559.5,-231.64"/>
<text text-anchor="start" x="567.5" y="-252.04" font-family="Ubuntu Mono" font-size="12.00">mpi_utilities::lock</text>
<text text-anchor="middle" x="619" y="-239.04" font-family="Ubuntu Mono" font-size="12.00">_get_notified</text>
</a>
</g>
</g>
<!-- Node10&#45;&gt;Node11 -->
<g id="edge13" class="edge">
<title>Node10&#45;&gt;Node11</title>
<path fill="none" stroke="midnightblue" d="M500.08,-211.72C517.15,-217.07 536.15,-223.01 553.82,-228.55"/>
<polygon fill="midnightblue" stroke="midnightblue" points="552.89,-231.92 563.48,-231.57 554.98,-225.24 552.89,-231.92"/>
</g>
<!-- Node12 -->
<g id="node12" class="node">
<title>Node12</title>
<g id="a_node12"><a xlink:href="namespacempi__utilities.html#abe5bf3ae3b6a06eda18c2f4d62ac09c5" target="_top" xlink:title="Returns the header for lock debug messages.">
<polygon fill="white" stroke="black" points="763,-142.64 763,-176.64 882,-176.64 882,-142.64 763,-142.64"/>
<text text-anchor="start" x="771" y="-163.04" font-family="Ubuntu Mono" font-size="12.00">mpi_utilities::lock</text>
<text text-anchor="middle" x="822.5" y="-150.04" font-family="Ubuntu Mono" font-size="12.00">_header</text>
</a>
</g>
</g>
<!-- Node10&#45;&gt;Node12 -->
<g id="edge17" class="edge">
<title>Node10&#45;&gt;Node12</title>
<path fill="none" stroke="midnightblue" d="M504.17,-194.42C554.85,-193.67 629.97,-191.2 695,-183.64 713.92,-181.44 734.25,-178.04 752.96,-174.49"/>
<polygon fill="midnightblue" stroke="midnightblue" points="753.73,-177.91 762.88,-172.57 752.4,-171.04 753.73,-177.91"/>
</g>
<!-- Node14 -->
<g id="node14" class="node">
<title>Node14</title>
<g id="a_node14"><a xlink:href="namespacempi__utilities.html#a263a30c79639d97f5faffdb566b5a811" target="_top" xlink:title="Notifies a rank that they can get the lock.">
<polygon fill="white" stroke="black" points="559.5,-99.64 559.5,-133.64 678.5,-133.64 678.5,-99.64 559.5,-99.64"/>
<text text-anchor="start" x="567.5" y="-120.04" font-family="Ubuntu Mono" font-size="12.00">mpi_utilities::lock</text>
<text text-anchor="middle" x="619" y="-107.04" font-family="Ubuntu Mono" font-size="12.00">_notify</text>
</a>
</g>
</g>
<!-- Node10&#45;&gt;Node14 -->
<g id="edge18" class="edge">
<title>Node10&#45;&gt;Node14</title>
<path fill="none" stroke="midnightblue" d="M475.71,-177.47C494.71,-167.02 519.91,-153.78 543,-143.64 547.91,-141.48 553.05,-139.36 558.24,-137.31"/>
<polygon fill="midnightblue" stroke="midnightblue" points="559.53,-140.57 567.6,-133.71 557.01,-134.03 559.53,-140.57"/>
</g>
<!-- Node15 -->
<g id="node15" class="node">
<title>Node15</title>
<g id="a_node15"><a xlink:href="namespacempi__utilities.html#a3b0349e5ec825e14083e3126c3e7ba65" target="_top" xlink:title="Adds, removes or sets to active a rank from the waiting list for a lock and returns the lock waiting ...">
<polygon fill="white" stroke="black" points="559.5,-46.64 559.5,-80.64 678.5,-80.64 678.5,-46.64 559.5,-46.64"/>
<text text-anchor="start" x="567.5" y="-67.04" font-family="Ubuntu Mono" font-size="12.00">mpi_utilities::lock</text>
<text text-anchor="middle" x="619" y="-54.04" font-family="Ubuntu Mono" font-size="12.00">_wl_change</text>
</a>
</g>
</g>
<!-- Node10&#45;&gt;Node15 -->
<g id="edge20" class="edge">
<title>Node10&#45;&gt;Node15</title>
<path fill="none" stroke="midnightblue" d="M482.42,-177.53C491.18,-172.32 500,-165.98 507,-158.64 530.86,-133.59 516.81,-112.23 543,-89.64 545.38,-87.59 547.92,-85.7 550.59,-83.95"/>
<polygon fill="midnightblue" stroke="midnightblue" points="552.53,-86.88 559.46,-78.87 549.05,-80.8 552.53,-86.88"/>
</g>
<!-- Node16 -->
<g id="node16" class="node">
<title>Node16</title>
<g id="a_node16"><a xlink:href="namespacempi__utilities.html#a74e2e82b561f403ca8087c3925f76e29" target="_top" xlink:title="Decides whether a waiting list is empty.">
<polygon fill="white" stroke="black" points="543,-153.14 543,-174.14 695,-174.14 695,-153.14 543,-153.14"/>
<text text-anchor="middle" x="619" y="-160.54" font-family="Ubuntu Mono" font-size="12.00">mpi_utilities::wl_empty</text>
</a>
</g>
</g>
<!-- Node10&#45;&gt;Node16 -->
<g id="edge23" class="edge">
<title>Node10&#45;&gt;Node16</title>
<path fill="none" stroke="midnightblue" d="M504.38,-184.06C518.82,-181.46 534.39,-178.66 549.24,-175.99"/>
<polygon fill="midnightblue" stroke="midnightblue" points="550.16,-179.38 559.38,-174.17 548.92,-172.5 550.16,-179.38"/>
</g>
<!-- Node11&#45;&gt;Node12 -->
<g id="edge14" class="edge">
<title>Node11&#45;&gt;Node12</title>
<path fill="none" stroke="midnightblue" d="M660.54,-231.51C671.73,-226.74 683.85,-221.53 695,-216.64 721.58,-204.98 751.17,-191.67 775.04,-180.84"/>
<polygon fill="midnightblue" stroke="midnightblue" points="776.57,-183.99 784.23,-176.67 773.67,-177.62 776.57,-183.99"/>
</g>
<!-- Node12&#45;&gt;Node6 -->
<g id="edge15" class="edge">
<title>Node12&#45;&gt;Node6</title>
<path fill="none" stroke="midnightblue" d="M843.89,-176.71C879.24,-206.29 951.47,-266.75 986.94,-296.43"/>
<polygon fill="midnightblue" stroke="midnightblue" points="984.8,-299.2 994.72,-302.94 989.29,-293.84 984.8,-299.2"/>
</g>
<!-- Node13 -->
<g id="node13" class="node">
<title>Node13</title>
<g id="a_node13"><a xlink:href="namespacestr__utilities.html#acb8c4e66aead51f178e47fdea8d7a7db" target="_top" xlink:title="Convert an integer to string.">
<polygon fill="white" stroke="black" points="950,-149.14 950,-170.14 1067,-170.14 1067,-149.14 950,-149.14"/>
<text text-anchor="middle" x="1008.5" y="-156.54" font-family="Ubuntu Mono" font-size="12.00">str_utilities::ii2str</text>
</a>
</g>
</g>
<!-- Node12&#45;&gt;Node13 -->
<g id="edge16" class="edge">
<title>Node12&#45;&gt;Node13</title>
<path fill="none" stroke="midnightblue" d="M882.22,-159.64C900.59,-159.64 921,-159.64 939.92,-159.64"/>
<polygon fill="midnightblue" stroke="midnightblue" points="939.96,-163.14 949.96,-159.64 939.96,-156.14 939.96,-163.14"/>
</g>
<!-- Node14&#45;&gt;Node12 -->
<g id="edge19" class="edge">
<title>Node14&#45;&gt;Node12</title>
<path fill="none" stroke="midnightblue" d="M678.55,-129.13C701.84,-134.1 728.79,-139.85 752.98,-145.01"/>
<polygon fill="midnightblue" stroke="midnightblue" points="752.29,-148.45 762.8,-147.11 753.75,-141.6 752.29,-148.45"/>
</g>
<!-- Node15&#45;&gt;Node7 -->
<g id="edge22" class="edge">
<title>Node15&#45;&gt;Node7</title>
<path fill="none" stroke="midnightblue" d="M678.55,-51.43C704.52,-46.02 735.05,-39.66 761.21,-34.2"/>
<polygon fill="midnightblue" stroke="midnightblue" points="761.93,-37.63 771,-32.16 760.5,-30.78 761.93,-37.63"/>
</g>
<!-- Node15&#45;&gt;Node12 -->
<g id="edge21" class="edge">
<title>Node15&#45;&gt;Node12</title>
<path fill="none" stroke="midnightblue" d="M672.9,-80.69C680.4,-83.48 687.95,-86.49 695,-89.64 726.24,-103.57 760.06,-122.5 784.87,-137.17"/>
<polygon fill="midnightblue" stroke="midnightblue" points="783.2,-140.24 793.58,-142.36 786.78,-134.23 783.2,-140.24"/>
</g>
<!-- Node17&#45;&gt;Node12 -->
<g id="edge25" class="edge">
<title>Node17&#45;&gt;Node12</title>
<path fill="none" stroke="midnightblue" d="M493.54,-115.52C498.39,-112.66 503,-109.38 507,-105.64 532.27,-82.01 513.42,-54.57 543,-36.64 600.77,-1.62 632.41,-11.22 695,-36.64 743.31,-56.25 783.29,-104.15 804.67,-134.06"/>
<polygon fill="midnightblue" stroke="midnightblue" points="801.86,-136.14 810.45,-142.34 807.6,-132.14 801.86,-136.14"/>
</g>
<!-- Node17&#45;&gt;Node14 -->
<g id="edge26" class="edge">
<title>Node17&#45;&gt;Node14</title>
<path fill="none" stroke="midnightblue" d="M504.38,-127.18C518.82,-125.84 534.39,-124.39 549.24,-123.01"/>
<polygon fill="midnightblue" stroke="midnightblue" points="549.75,-126.48 559.38,-122.07 549.1,-119.51 549.75,-126.48"/>
</g>
<!-- Node17&#45;&gt;Node15 -->
<g id="edge27" class="edge">
<title>Node17&#45;&gt;Node15</title>
<path fill="none" stroke="midnightblue" d="M484.55,-115.52C492.01,-112.25 499.75,-108.84 507,-105.64 523.02,-98.56 526.71,-96.07 543,-89.64 547.69,-87.79 552.56,-85.94 557.48,-84.12"/>
<polygon fill="midnightblue" stroke="midnightblue" points="558.75,-87.38 566.95,-80.68 556.36,-80.8 558.75,-87.38"/>
</g>
<!-- Node17&#45;&gt;Node16 -->
<g id="edge28" class="edge">
<title>Node17&#45;&gt;Node16</title>
<path fill="none" stroke="midnightblue" d="M504.38,-143.22C518.82,-145.81 534.39,-148.61 549.24,-151.28"/>
<polygon fill="midnightblue" stroke="midnightblue" points="548.92,-154.78 559.38,-153.1 550.16,-147.89 548.92,-154.78"/>
</g>
</g>
</svg>
