<?xml version="1.0" encoding="UTF-8" standalone="no"?>
<!DOCTYPE svg PUBLIC "-//W3C//DTD SVG 1.1//EN"
 "http://www.w3.org/Graphics/SVG/1.1/DTD/svg11.dtd">
<!-- Generated by graphviz version 2.43.0 (0)
 -->
<!-- Title: pb3d_ops::reconstruct_pb3d_in Pages: 1 -->
<svg width="749pt" height="197pt"
 viewBox="0.00 0.00 749.00 196.72" xmlns="http://www.w3.org/2000/svg" xmlns:xlink="http://www.w3.org/1999/xlink">
<g id="graph0" class="graph" transform="scale(1 1) rotate(0) translate(4 192.72)">
<title>pb3d_ops::reconstruct_pb3d_in</title>
<polygon fill="white" stroke="transparent" points="-4,4 -4,-192.72 745,-192.72 745,4 -4,4"/>
<!-- Node1 -->
<g id="node1" class="node">
<title>Node1</title>
<g id="a_node1"><a xlink:title="Reconstructs the input variables from PB3D HDF5 output.">
<polygon fill="#bfbfbf" stroke="black" points="592,-75.72 592,-109.72 741,-109.72 741,-75.72 592,-75.72"/>
<text text-anchor="start" x="600" y="-96.12" font-family="Ubuntu Mono" font-size="12.00">pb3d_ops::reconstruct</text>
<text text-anchor="middle" x="666.5" y="-83.12" font-family="Ubuntu Mono" font-size="12.00">_pb3d_in</text>
</a>
</g>
</g>
<!-- Node2 -->
<g id="node2" class="node">
<title>Node2</title>
<g id="a_node2"><a xlink:href="namespacedriver__post.html#af527706d4e696d4e507443d2f74194ef" target="_top" xlink:title="Initializes the POST driver.">
<polygon fill="white" stroke="black" points="245,-167.22 245,-188.22 385,-188.22 385,-167.22 245,-167.22"/>
<text text-anchor="middle" x="315" y="-174.62" font-family="Ubuntu Mono" font-size="12.00">driver_post::init_post</text>
</a>
</g>
</g>
<!-- Node1&#45;&gt;Node2 -->
<g id="edge1" class="edge">
<title>Node1&#45;&gt;Node2</title>
<path fill="none" stroke="midnightblue" d="M632.6,-115.27C611.63,-128.48 583.34,-144.18 556,-152.72 500.21,-170.13 433.96,-175.99 385.21,-177.72"/>
<polygon fill="midnightblue" stroke="midnightblue" points="634.6,-118.15 641.12,-109.8 630.81,-112.26 634.6,-118.15"/>
</g>
<!-- Node3 -->
<g id="node3" class="node">
<title>Node3</title>
<g id="a_node3"><a xlink:href="POST_8f90.html#ac289b64ac4671fea0b4f2298ba1188a1" target="_top" xlink:title="Peeling Ballooning in 3D: postprocessing.">
<polygon fill="white" stroke="black" points="2.5,-128.22 2.5,-149.22 44.5,-149.22 44.5,-128.22 2.5,-128.22"/>
<text text-anchor="middle" x="23.5" y="-135.62" font-family="Ubuntu Mono" font-size="12.00">post</text>
</a>
</g>
</g>
<!-- Node1&#45;&gt;Node3 -->
<g id="edge10" class="edge">
<title>Node1&#45;&gt;Node3</title>
<path fill="none" stroke="midnightblue" d="M596.02,-112.13C582.82,-115.16 569.06,-117.89 556,-119.72 358.48,-147.3 115.89,-141.86 44.91,-139.49"/>
<polygon fill="midnightblue" stroke="midnightblue" points="597.06,-115.48 605.98,-109.75 595.44,-108.67 597.06,-115.48"/>
</g>
<!-- Node4 -->
<g id="node4" class="node">
<title>Node4</title>
<g id="a_node4"><a xlink:href="namespacerich__ops.html#a9fbbda93eab8973d33063e277c489e7b" target="_top" xlink:title="Initialize Richardson extrapolation system.">
<polygon fill="white" stroke="black" points="86,-6.22 86,-27.22 206,-27.22 206,-6.22 86,-6.22"/>
<text text-anchor="middle" x="146" y="-13.62" font-family="Ubuntu Mono" font-size="12.00">rich_ops::init_rich</text>
</a>
</g>
</g>
<!-- Node1&#45;&gt;Node4 -->
<g id="edge3" class="edge">
<title>Node1&#45;&gt;Node4</title>
<path fill="none" stroke="midnightblue" d="M636.75,-69.24C615.77,-53.65 585.88,-34.49 556,-25.72 435.72,9.59 286.88,0.49 206.03,-8.57"/>
<polygon fill="midnightblue" stroke="midnightblue" points="634.82,-72.17 644.9,-75.45 639.06,-66.6 634.82,-72.17"/>
</g>
<!-- Node6 -->
<g id="node6" class="node">
<title>Node6</title>
<g id="a_node6"><a xlink:href="test_8f90.html#a197914f99b7e194fb4bca9ca3669e0e8" target="_top" xlink:title=" ">
<polygon fill="white" stroke="black" points="462.5,-35.22 462.5,-56.22 514.5,-56.22 514.5,-35.22 462.5,-35.22"/>
<text text-anchor="middle" x="488.5" y="-42.62" font-family="Ubuntu Mono" font-size="12.00">plot_y</text>
</a>
</g>
</g>
<!-- Node1&#45;&gt;Node6 -->
<g id="edge5" class="edge">
<title>Node1&#45;&gt;Node6</title>
<path fill="none" stroke="midnightblue" d="M591.47,-72.95C564.06,-65.63 534.8,-57.81 514.68,-52.44"/>
<polygon fill="midnightblue" stroke="midnightblue" points="590.9,-76.42 601.46,-75.62 592.7,-69.66 590.9,-76.42"/>
</g>
<!-- Node9 -->
<g id="node9" class="node">
<title>Node9</title>
<g id="a_node9"><a xlink:href="namespacetest.html#ac574f08ba400cd61070a6a6f13f6f7ee" target="_top" xlink:title="Tests reading of HDF5 subset.">
<polygon fill="white" stroke="black" points="421,-75.72 421,-109.72 556,-109.72 556,-75.72 421,-75.72"/>
<text text-anchor="start" x="429" y="-96.12" font-family="Ubuntu Mono" font-size="12.00">test::test_read_hdf5</text>
<text text-anchor="middle" x="488.5" y="-83.12" font-family="Ubuntu Mono" font-size="12.00">_subset</text>
</a>
</g>
</g>
<!-- Node1&#45;&gt;Node9 -->
<g id="edge11" class="edge">
<title>Node1&#45;&gt;Node9</title>
<path fill="none" stroke="midnightblue" d="M581.8,-92.72C573.18,-92.72 564.5,-92.72 556.09,-92.72"/>
<polygon fill="midnightblue" stroke="midnightblue" points="581.88,-96.22 591.88,-92.72 581.88,-89.22 581.88,-96.22"/>
</g>
<!-- Node2&#45;&gt;Node3 -->
<g id="edge2" class="edge">
<title>Node2&#45;&gt;Node3</title>
<path fill="none" stroke="midnightblue" d="M234.72,-171.65C189.98,-167.59 133.15,-161.4 83,-152.72 70.14,-150.49 55.89,-147.1 44.67,-144.22"/>
<polygon fill="midnightblue" stroke="midnightblue" points="234.68,-175.16 244.95,-172.55 235.3,-168.18 234.68,-175.16"/>
</g>
<!-- Node5 -->
<g id="node5" class="node">
<title>Node5</title>
<g id="a_node5"><a xlink:href="PB3D_8f90.html#afaee01f014ab3398eecac996b2795fd2" target="_top" xlink:title="Peeling Ballooning in 3D.">
<polygon fill="white" stroke="black" points="0,-49.22 0,-70.22 47,-70.22 47,-49.22 0,-49.22"/>
<text text-anchor="middle" x="23.5" y="-56.62" font-family="Ubuntu Mono" font-size="12.00">pb3d</text>
</a>
</g>
</g>
<!-- Node4&#45;&gt;Node5 -->
<g id="edge4" class="edge">
<title>Node4&#45;&gt;Node5</title>
<path fill="none" stroke="midnightblue" d="M106.02,-30.63C86.6,-37.56 63.8,-45.69 47.26,-51.6"/>
<polygon fill="midnightblue" stroke="midnightblue" points="107.28,-33.89 115.52,-27.24 104.93,-27.3 107.28,-33.89"/>
</g>
<!-- Node7 -->
<g id="node7" class="node">
<title>Node7</title>
<g id="a_node7"><a xlink:href="namespacetest.html#a53c6b3d654d4577af301fe3b04473d6a" target="_top" xlink:title="Test spline().">
<polygon fill="white" stroke="black" points="257,-37.22 257,-58.22 373,-58.22 373,-37.22 257,-37.22"/>
<text text-anchor="middle" x="315" y="-44.62" font-family="Ubuntu Mono" font-size="12.00">test::test_splines</text>
</a>
</g>
</g>
<!-- Node6&#45;&gt;Node7 -->
<g id="edge6" class="edge">
<title>Node6&#45;&gt;Node7</title>
<path fill="none" stroke="midnightblue" d="M451.96,-46.13C429.18,-46.4 399.09,-46.75 373.01,-47.05"/>
<polygon fill="midnightblue" stroke="midnightblue" points="452.24,-49.63 462.19,-46.01 452.15,-42.63 452.24,-49.63"/>
</g>
<!-- Node8 -->
<g id="node8" class="node">
<title>Node8</title>
<g id="a_node8"><a xlink:href="namespacetest.html#aca21ee464c0b1f4b617177afdde110ec" target="_top" xlink:title="Performs generic tests.">
<polygon fill="white" stroke="black" points="83,-69.22 83,-90.22 209,-90.22 209,-69.22 83,-69.22"/>
<text text-anchor="middle" x="146" y="-76.62" font-family="Ubuntu Mono" font-size="12.00">test::generic_tests</text>
</a>
</g>
</g>
<!-- Node7&#45;&gt;Node8 -->
<g id="edge7" class="edge">
<title>Node7&#45;&gt;Node8</title>
<path fill="none" stroke="midnightblue" d="M248.79,-60.21C233.25,-63.19 216.82,-66.34 201.8,-69.22"/>
<polygon fill="midnightblue" stroke="midnightblue" points="249.69,-63.6 258.86,-58.28 248.38,-56.73 249.69,-63.6"/>
</g>
<!-- Node8&#45;&gt;Node3 -->
<g id="edge9" class="edge">
<title>Node8&#45;&gt;Node3</title>
<path fill="none" stroke="midnightblue" d="M114.26,-94.77C92.4,-105.47 63.65,-119.55 44.65,-128.85"/>
<polygon fill="midnightblue" stroke="midnightblue" points="116.01,-97.81 123.46,-90.27 112.94,-91.52 116.01,-97.81"/>
</g>
<!-- Node8&#45;&gt;Node5 -->
<g id="edge8" class="edge">
<title>Node8&#45;&gt;Node5</title>
<path fill="none" stroke="midnightblue" d="M72.85,-67.74C63.61,-66.21 54.76,-64.74 47.21,-63.49"/>
<polygon fill="midnightblue" stroke="midnightblue" points="72.55,-71.24 82.99,-69.42 73.69,-64.33 72.55,-71.24"/>
</g>
<!-- Node9&#45;&gt;Node8 -->
<g id="edge12" class="edge">
<title>Node9&#45;&gt;Node8</title>
<path fill="none" stroke="midnightblue" d="M410.31,-89.77C349.46,-87.45 265.7,-84.25 209.12,-82.09"/>
<polygon fill="midnightblue" stroke="midnightblue" points="410.51,-93.28 420.63,-90.16 410.78,-86.29 410.51,-93.28"/>
</g>
</g>
</svg>
