<?xml version="1.0" encoding="UTF-8" standalone="no"?>
<!DOCTYPE svg PUBLIC "-//W3C//DTD SVG 1.1//EN"
 "http://www.w3.org/Graphics/SVG/1.1/DTD/svg11.dtd">
<!-- Generated by graphviz version 2.38.0 (20140413.2041)
 -->
<!-- Title: test::test_calc_rzl Pages: 1 -->
<svg width="383pt" height="70pt"
 viewBox="0.00 0.00 383.00 70.00" xmlns="http://www.w3.org/2000/svg" xmlns:xlink="http://www.w3.org/1999/xlink">
<g id="graph0" class="graph" transform="scale(1 1) rotate(0) translate(4 66)">
<title>test::test_calc_rzl</title>
<polygon fill="white" stroke="none" points="-4,4 -4,-66 379,-66 379,4 -4,4"/>
<!-- Node104 -->
<g id="node1" class="node"><title>Node104</title>
<polygon fill="#bfbfbf" stroke="black" points="0,-20.5 0,-41.5 131,-41.5 131,-20.5 0,-20.5"/>
<text text-anchor="middle" x="65.5" y="-27.9" font-family="Ubuntu Mono" font-size="12.00">test::test_calc_rzl</text>
</g>
<!-- Node105 -->
<g id="node2" class="node"><title>Node105</title>
<g id="a_node2"><a xlink:href="namespacetest.html#aca21ee464c0b1f4b617177afdde110ec" target="_top" xlink:title="test::generic_tests">
<polygon fill="white" stroke="black" points="167,-20.5 167,-41.5 298,-41.5 298,-20.5 167,-20.5"/>
<text text-anchor="middle" x="232.5" y="-27.9" font-family="Ubuntu Mono" font-size="12.00">test::generic_tests</text>
</a>
</g>
</g>
<!-- Node104&#45;&gt;Node105 -->
<g id="edge1" class="edge"><title>Node104&#45;&gt;Node105</title>
<path fill="none" stroke="midnightblue" d="M141.239,-31C149.821,-31 158.516,-31 166.948,-31"/>
<polygon fill="midnightblue" stroke="midnightblue" points="141.239,-27.5001 131.239,-31 141.239,-34.5001 141.239,-27.5001"/>
</g>
<!-- Node106 -->
<g id="node3" class="node"><title>Node106</title>
<g id="a_node3"><a xlink:href="PB3D_8f90.html#afaee01f014ab3398eecac996b2795fd2" target="_top" xlink:title="pb3d">
<polygon fill="white" stroke="black" points="334,-40.5 334,-61.5 375,-61.5 375,-40.5 334,-40.5"/>
<text text-anchor="middle" x="354.5" y="-47.9" font-family="Ubuntu Mono" font-size="12.00">pb3d</text>
</a>
</g>
</g>
<!-- Node105&#45;&gt;Node106 -->
<g id="edge2" class="edge"><title>Node105&#45;&gt;Node106</title>
<path fill="none" stroke="midnightblue" d="M306.742,-43.2071C316.695,-44.8658 326.136,-46.4393 333.894,-47.7324"/>
<polygon fill="midnightblue" stroke="midnightblue" points="307.102,-39.7188 296.663,-41.5271 305.951,-46.6236 307.102,-39.7188"/>
</g>
<!-- Node107 -->
<g id="node4" class="node"><title>Node107</title>
<g id="a_node4"><a xlink:href="POST_8f90.html#ac289b64ac4671fea0b4f2298ba1188a1" target="_top" xlink:title="post">
<polygon fill="white" stroke="black" points="334,-0.5 334,-21.5 375,-21.5 375,-0.5 334,-0.5"/>
<text text-anchor="middle" x="354.5" y="-7.9" font-family="Ubuntu Mono" font-size="12.00">post</text>
</a>
</g>
</g>
<!-- Node105&#45;&gt;Node107 -->
<g id="edge3" class="edge"><title>Node105&#45;&gt;Node107</title>
<path fill="none" stroke="midnightblue" d="M306.742,-18.7929C316.695,-17.1342 326.136,-15.5607 333.894,-14.2676"/>
<polygon fill="midnightblue" stroke="midnightblue" points="305.951,-15.3764 296.663,-20.4729 307.102,-22.2812 305.951,-15.3764"/>
</g>
</g>
</svg>
