<?xml version="1.0" encoding="UTF-8" standalone="no"?>
<!DOCTYPE svg PUBLIC "-//W3C//DTD SVG 1.1//EN"
 "http://www.w3.org/Graphics/SVG/1.1/DTD/svg11.dtd">
<!-- Generated by graphviz version 2.38.0 (20140413.2041)
 -->
<!-- Title: mpi_ops::sudden_stop Pages: 1 -->
<svg width="992pt" height="168pt"
 viewBox="0.00 0.00 992.00 168.00" xmlns="http://www.w3.org/2000/svg" xmlns:xlink="http://www.w3.org/1999/xlink">
<g id="graph0" class="graph" transform="scale(1 1) rotate(0) translate(4 164)">
<title>mpi_ops::sudden_stop</title>
<polygon fill="white" stroke="none" points="-4,4 -4,-164 988,-164 988,4 -4,4"/>
<!-- Node39 -->
<g id="node1" class="node"><title>Node39</title>
<polygon fill="#bfbfbf" stroke="black" points="0,-79.5 0,-100.5 137,-100.5 137,-79.5 0,-79.5"/>
<text text-anchor="middle" x="68.5" y="-86.9" font-family="Ubuntu Mono" font-size="12.00">mpi_ops::sudden_stop</text>
</g>
<!-- Node40 -->
<g id="node2" class="node"><title>Node40</title>
<g id="a_node2"><a xlink:href="namespacemessages.html#aa4a8d01563e92558e8a0875b075ec54c" target="_top" xlink:title="messages::writo">
<polygon fill="white" stroke="black" points="519,-118.5 519,-139.5 626,-139.5 626,-118.5 519,-118.5"/>
<text text-anchor="middle" x="572.5" y="-125.9" font-family="Ubuntu Mono" font-size="12.00">messages::writo</text>
</a>
</g>
</g>
<!-- Node39&#45;&gt;Node40 -->
<g id="edge1" class="edge"><title>Node39&#45;&gt;Node40</title>
<path fill="none" stroke="midnightblue" d="M91.9859,-100.589C112.6,-109.834 144.206,-122.858 173,-130 306.977,-163.231 345.815,-164.308 483,-149 496.348,-147.511 510.622,-144.795 523.725,-141.834"/>
<polygon fill="midnightblue" stroke="midnightblue" points="524.549,-145.236 533.481,-139.539 522.946,-138.422 524.549,-145.236"/>
</g>
<!-- Node44 -->
<g id="node6" class="node"><title>Node44</title>
<g id="a_node6"><a xlink:href="namespacestr__utilities.html#a0b97e51770725a3e98ed393d26681414" target="_top" xlink:title="str_utilities::i2str">
<polygon fill="white" stroke="black" points="340,-0.5 340,-21.5 477,-21.5 477,-0.5 340,-0.5"/>
<text text-anchor="middle" x="408.5" y="-7.9" font-family="Ubuntu Mono" font-size="12.00">str_utilities::i2str</text>
</a>
</g>
</g>
<!-- Node39&#45;&gt;Node44 -->
<g id="edge5" class="edge"><title>Node39&#45;&gt;Node44</title>
<path fill="none" stroke="midnightblue" d="M114.733,-79.4277C176.331,-65.0307 286.486,-39.2843 352.697,-23.8089"/>
<polygon fill="midnightblue" stroke="midnightblue" points="353.593,-27.1939 362.534,-21.5097 352,-20.3776 353.593,-27.1939"/>
</g>
<!-- Node45 -->
<g id="node7" class="node"><title>Node45</title>
<g id="a_node7"><a xlink:href="namespacemessages.html#a6e6bfb084063e4cc91ee86e542043302" target="_top" xlink:title="messages::lvl_ud">
<polygon fill="white" stroke="black" points="352,-118.5 352,-139.5 465,-139.5 465,-118.5 352,-118.5"/>
<text text-anchor="middle" x="408.5" y="-125.9" font-family="Ubuntu Mono" font-size="12.00">messages::lvl_ud</text>
</a>
</g>
</g>
<!-- Node39&#45;&gt;Node45 -->
<g id="edge6" class="edge"><title>Node39&#45;&gt;Node45</title>
<path fill="none" stroke="midnightblue" d="M118.02,-100.519C135.306,-103.963 154.958,-107.534 173,-110 229.742,-117.757 294.674,-122.717 341.802,-125.616"/>
<polygon fill="midnightblue" stroke="midnightblue" points="341.687,-129.115 351.879,-126.221 342.107,-122.128 341.687,-129.115"/>
</g>
<!-- Node46 -->
<g id="node8" class="node"><title>Node46</title>
<g id="a_node8"><a xlink:href="namespacempi__ops.html#a54d9258ef985728345579e8e57dc8dfe" target="_top" xlink:title="mpi_ops::abort_mpi">
<polygon fill="white" stroke="black" points="173,-1.5 173,-22.5 298,-22.5 298,-1.5 173,-1.5"/>
<text text-anchor="middle" x="235.5" y="-8.9" font-family="Ubuntu Mono" font-size="12.00">mpi_ops::abort_mpi</text>
</a>
</g>
</g>
<!-- Node39&#45;&gt;Node46 -->
<g id="edge8" class="edge"><title>Node39&#45;&gt;Node46</title>
<path fill="none" stroke="midnightblue" d="M89.0901,-79.3209C109.719,-68.229 143.269,-50.6239 173,-37 180.908,-33.3765 189.498,-29.7167 197.68,-26.357"/>
<polygon fill="midnightblue" stroke="midnightblue" points="199.078,-29.5673 207.034,-22.5709 196.451,-23.0786 199.078,-29.5673"/>
</g>
<!-- Node47 -->
<g id="node9" class="node"><title>Node47</title>
<g id="a_node9"><a xlink:href="namespacempi__ops.html#abaf1ff6b3a25463476a767e196b4a73c" target="_top" xlink:title="mpi_ops::stop_mpi">
<polygon fill="white" stroke="black" points="176,-79.5 176,-100.5 295,-100.5 295,-79.5 176,-79.5"/>
<text text-anchor="middle" x="235.5" y="-86.9" font-family="Ubuntu Mono" font-size="12.00">mpi_ops::stop_mpi</text>
</a>
</g>
</g>
<!-- Node39&#45;&gt;Node47 -->
<g id="edge9" class="edge"><title>Node39&#45;&gt;Node47</title>
<path fill="none" stroke="midnightblue" d="M137.088,-90C146.565,-90 156.313,-90 165.81,-90"/>
<polygon fill="midnightblue" stroke="midnightblue" points="165.992,-93.5001 175.992,-90 165.992,-86.5001 165.992,-93.5001"/>
</g>
<!-- Node41 -->
<g id="node3" class="node"><title>Node41</title>
<g id="a_node3"><a xlink:href="namespacemessages.html#a82dddaab795b78b3d39e1ff1aab2f665" target="_top" xlink:title="messages::get_mem_usage">
<polygon fill="white" stroke="black" points="662,-138.5 662,-159.5 817,-159.5 817,-138.5 662,-138.5"/>
<text text-anchor="middle" x="739.5" y="-145.9" font-family="Ubuntu Mono" font-size="12.00">messages::get_mem_usage</text>
</a>
</g>
</g>
<!-- Node40&#45;&gt;Node41 -->
<g id="edge2" class="edge"><title>Node40&#45;&gt;Node41</title>
<path fill="none" stroke="midnightblue" d="M626.161,-135.383C634.452,-136.388 643.208,-137.449 652.025,-138.518"/>
<polygon fill="midnightblue" stroke="midnightblue" points="651.635,-141.996 661.984,-139.725 652.478,-135.047 651.635,-141.996"/>
</g>
<!-- Node42 -->
<g id="node4" class="node"><title>Node42</title>
<g id="a_node4"><a xlink:href="messages_8f90.html#a6d15f28783f95a7a4b2a44185619792f" target="_top" xlink:title="format_str">
<polygon fill="white" stroke="black" points="701,-98.5 701,-119.5 778,-119.5 778,-98.5 701,-98.5"/>
<text text-anchor="middle" x="739.5" y="-105.9" font-family="Ubuntu Mono" font-size="12.00">format_str</text>
</a>
</g>
</g>
<!-- Node40&#45;&gt;Node42 -->
<g id="edge3" class="edge"><title>Node40&#45;&gt;Node42</title>
<path fill="none" stroke="midnightblue" d="M626.161,-122.617C646.977,-120.094 670.722,-117.216 691.002,-114.757"/>
<polygon fill="midnightblue" stroke="midnightblue" points="691.448,-118.229 700.954,-113.551 690.606,-111.28 691.448,-118.229"/>
</g>
<!-- Node43 -->
<g id="node5" class="node"><title>Node43</title>
<g id="a_node5"><a xlink:href="namespacemessages.html#a61fd0b51b5e37d58fdc993c01792a3fd" target="_top" xlink:title="messages::get_clock">
<polygon fill="white" stroke="black" points="853,-98.5 853,-119.5 984,-119.5 984,-98.5 853,-98.5"/>
<text text-anchor="middle" x="918.5" y="-105.9" font-family="Ubuntu Mono" font-size="12.00">messages::get_clock</text>
</a>
</g>
</g>
<!-- Node42&#45;&gt;Node43 -->
<g id="edge4" class="edge"><title>Node42&#45;&gt;Node43</title>
<path fill="none" stroke="midnightblue" d="M778.037,-109C796.869,-109 820.372,-109 842.685,-109"/>
<polygon fill="midnightblue" stroke="midnightblue" points="842.832,-112.5 852.832,-109 842.832,-105.5 842.832,-112.5"/>
</g>
<!-- Node45&#45;&gt;Node40 -->
<g id="edge7" class="edge"><title>Node45&#45;&gt;Node40</title>
<path fill="none" stroke="midnightblue" d="M465.251,-129C479.245,-129 494.355,-129 508.667,-129"/>
<polygon fill="midnightblue" stroke="midnightblue" points="508.921,-132.5 518.921,-129 508.921,-125.5 508.921,-132.5"/>
</g>
<!-- Node47&#45;&gt;Node40 -->
<g id="edge11" class="edge"><title>Node47&#45;&gt;Node40</title>
<path fill="none" stroke="midnightblue" d="M295.042,-92.1158C345.158,-94.4983 419.124,-99.3728 483,-109 495.291,-110.852 508.412,-113.463 520.685,-116.188"/>
<polygon fill="midnightblue" stroke="midnightblue" points="520.23,-119.674 530.758,-118.491 521.789,-112.85 520.23,-119.674"/>
</g>
<!-- Node47&#45;&gt;Node44 -->
<g id="edge12" class="edge"><title>Node47&#45;&gt;Node44</title>
<path fill="none" stroke="midnightblue" d="M268.9,-79.4266C278.63,-75.5768 289.081,-70.7351 298,-65 316.511,-53.0967 314.806,-41.7678 334,-31 337.934,-28.793 342.124,-26.8191 346.433,-25.0553"/>
<polygon fill="midnightblue" stroke="midnightblue" points="347.834,-28.2692 356.001,-21.5208 345.408,-21.7029 347.834,-28.2692"/>
</g>
<!-- Node47&#45;&gt;Node45 -->
<g id="edge13" class="edge"><title>Node47&#45;&gt;Node45</title>
<path fill="none" stroke="midnightblue" d="M282.775,-100.554C303.876,-105.366 329.045,-111.107 351.23,-116.167"/>
<polygon fill="midnightblue" stroke="midnightblue" points="350.66,-119.626 361.188,-118.438 352.217,-112.802 350.66,-119.626"/>
</g>
<!-- Node48 -->
<g id="node10" class="node"><title>Node48</title>
<g id="a_node10"><a xlink:href="namespacempi__vars.html#a91e7fdacc759ddeb3f14b4241549175c" target="_top" xlink:title="mpi_vars::dealloc_lock">
<polygon fill="white" stroke="black" points="334,-40.5 334,-61.5 483,-61.5 483,-40.5 334,-40.5"/>
<text text-anchor="middle" x="408.5" y="-47.9" font-family="Ubuntu Mono" font-size="12.00">mpi_vars::dealloc_lock</text>
</a>
</g>
</g>
<!-- Node47&#45;&gt;Node48 -->
<g id="edge10" class="edge"><title>Node47&#45;&gt;Node48</title>
<path fill="none" stroke="midnightblue" d="M282.775,-79.446C303.876,-74.6336 329.045,-68.8932 351.23,-63.8335"/>
<polygon fill="midnightblue" stroke="midnightblue" points="352.217,-67.1985 361.188,-61.5624 350.66,-60.3737 352.217,-67.1985"/>
</g>
</g>
</svg>
