<?xml version="1.0" encoding="UTF-8" standalone="no"?>
<!DOCTYPE svg PUBLIC "-//W3C//DTD SVG 1.1//EN"
 "http://www.w3.org/Graphics/SVG/1.1/DTD/svg11.dtd">
<!-- Generated by graphviz version 2.38.0 (20140413.2041)
 -->
<!-- Title: str_utilities::strh2l Pages: 1 -->
<svg width="1058pt" height="655pt"
 viewBox="0.00 0.00 1058.00 655.00" xmlns="http://www.w3.org/2000/svg" xmlns:xlink="http://www.w3.org/1999/xlink">
<g id="graph0" class="graph" transform="scale(1 1) rotate(0) translate(4 651)">
<title>str_utilities::strh2l</title>
<polygon fill="white" stroke="none" points="-4,4 -4,-651 1054,-651 1054,4 -4,4"/>
<!-- Node435 -->
<g id="node1" class="node"><title>Node435</title>
<polygon fill="#bfbfbf" stroke="black" points="0,-323.5 0,-344.5 143,-344.5 143,-323.5 0,-323.5"/>
<text text-anchor="middle" x="71.5" y="-330.9" font-family="Ubuntu Mono" font-size="12.00">str_utilities::strh2l</text>
</g>
<!-- Node436 -->
<g id="node2" class="node"><title>Node436</title>
<g id="a_node2"><a xlink:href="namespaceinput__utilities.html#ad9ce824c30b32041ab70f3fb191f06db" target="_top" xlink:title="Queries for a logical value yes or no, where the default answer is also to be provided. ">
<polygon fill="white" stroke="black" points="179,-323.5 179,-344.5 340,-344.5 340,-323.5 179,-323.5"/>
<text text-anchor="middle" x="259.5" y="-330.9" font-family="Ubuntu Mono" font-size="12.00">input_utilities::get_log</text>
</a>
</g>
</g>
<!-- Node435&#45;&gt;Node436 -->
<g id="edge1" class="edge"><title>Node435&#45;&gt;Node436</title>
<path fill="none" stroke="midnightblue" d="M153.351,-334C161.839,-334 170.465,-334 178.94,-334"/>
<polygon fill="midnightblue" stroke="midnightblue" points="153.084,-330.5 143.084,-334 153.084,-337.5 153.084,-330.5"/>
</g>
<!-- Node437 -->
<g id="node3" class="node"><title>Node437</title>
<g id="a_node3"><a xlink:href="namespacedriver__eq.html#adc9d5dff288fa512e5ef885627d940cc" target="_top" xlink:title="Main driver of PB3D equilibrium part. ">
<polygon fill="white" stroke="black" points="800,-321.5 800,-342.5 961,-342.5 961,-321.5 800,-321.5"/>
<text text-anchor="middle" x="880.5" y="-328.9" font-family="Ubuntu Mono" font-size="12.00">driver_eq::run_driver_eq</text>
</a>
</g>
</g>
<!-- Node436&#45;&gt;Node437 -->
<g id="edge2" class="edge"><title>Node436&#45;&gt;Node437</title>
<path fill="none" stroke="midnightblue" d="M350.226,-330.588C358.935,-330.348 367.637,-330.145 376,-330 525.674,-327.409 700.411,-329.179 799.702,-330.636"/>
<polygon fill="midnightblue" stroke="midnightblue" points="349.913,-327.096 340.019,-330.884 350.117,-334.093 349.913,-327.096"/>
</g>
<!-- Node439 -->
<g id="node5" class="node"><title>Node439</title>
<g id="a_node5"><a xlink:href="namespacedriver__x.html#a454779cefa6da3714d32eedcec0ef7de" target="_top" xlink:title="Part 1 of driver_x: Vectorial jobs. ">
<polygon fill="white" stroke="black" points="585,-262.5 585,-283.5 746,-283.5 746,-262.5 585,-262.5"/>
<text text-anchor="middle" x="665.5" y="-269.9" font-family="Ubuntu Mono" font-size="12.00">driver_x::run_driver_x_1</text>
</a>
</g>
</g>
<!-- Node436&#45;&gt;Node439 -->
<g id="edge4" class="edge"><title>Node436&#45;&gt;Node439</title>
<path fill="none" stroke="midnightblue" d="M297.044,-319.94C319.489,-311.899 349.017,-302.372 376,-297 445.749,-283.115 526.534,-277.247 584.845,-274.775"/>
<polygon fill="midnightblue" stroke="midnightblue" points="295.771,-316.679 287.576,-323.394 298.17,-323.255 295.771,-316.679"/>
</g>
<!-- Node441 -->
<g id="node7" class="node"><title>Node441</title>
<g id="a_node7"><a xlink:href="interfaceeq__ops_1_1calc__eq.html#ae2f56ab19ce5c33e863f32e1c9263604" target="_top" xlink:title="metric version ">
<polygon fill="white" stroke="black" points="579,-123.5 579,-144.5 752,-144.5 752,-123.5 579,-123.5"/>
<text text-anchor="middle" x="665.5" y="-130.9" font-family="Ubuntu Mono" font-size="12.00">eq_ops::calc_eq::calc_eq_2</text>
</a>
</g>
</g>
<!-- Node436&#45;&gt;Node441 -->
<g id="edge7" class="edge"><title>Node436&#45;&gt;Node441</title>
<path fill="none" stroke="midnightblue" d="M270.568,-314.135C287.656,-282.594 325.465,-221.514 376,-191 437.406,-153.922 518.309,-140.374 578.812,-135.696"/>
<polygon fill="midnightblue" stroke="midnightblue" points="267.324,-312.783 265.757,-323.261 273.516,-316.047 267.324,-312.783"/>
</g>
<!-- Node442 -->
<g id="node8" class="node"><title>Node442</title>
<g id="a_node8"><a xlink:href="namespaceeq__ops.html#a9addef683b3d4a8c587510e4c994ec61" target="_top" xlink:title="Creates a VMEC input file. ">
<polygon fill="white" stroke="black" points="394,-94 394,-128 525,-128 525,-94 394,-94"/>
<text text-anchor="start" x="402" y="-114.4" font-family="Ubuntu Mono" font-size="12.00">eq_ops::create_vmec</text>
<text text-anchor="middle" x="459.5" y="-101.4" font-family="Ubuntu Mono" font-size="12.00">_input</text>
</a>
</g>
</g>
<!-- Node436&#45;&gt;Node442 -->
<g id="edge8" class="edge"><title>Node436&#45;&gt;Node442</title>
<path fill="none" stroke="midnightblue" d="M267.666,-313.65C282.212,-275.115 318.763,-191.06 376,-143 383.059,-137.073 391.341,-132.166 399.885,-128.127"/>
<polygon fill="midnightblue" stroke="midnightblue" points="264.304,-312.65 264.147,-323.244 270.876,-315.06 264.304,-312.65"/>
</g>
<!-- Node443 -->
<g id="node9" class="node"><title>Node443</title>
<g id="a_node9"><a xlink:href="namespaceeq__ops.html#a6a073d160b1e0918ea4cde3b439a2277" target="_top" xlink:title="Plots the curvature. ">
<polygon fill="white" stroke="black" points="603,-392.5 603,-413.5 728,-413.5 728,-392.5 603,-392.5"/>
<text text-anchor="middle" x="665.5" y="-399.9" font-family="Ubuntu Mono" font-size="12.00">eq_ops::kappa_plot</text>
</a>
</g>
</g>
<!-- Node436&#45;&gt;Node443 -->
<g id="edge10" class="edge"><title>Node436&#45;&gt;Node443</title>
<path fill="none" stroke="midnightblue" d="M288.96,-349.231C311.799,-360.668 345.048,-375.582 376,-383 452.654,-401.371 543.796,-404.731 602.825,-404.582"/>
<polygon fill="midnightblue" stroke="midnightblue" points="290.344,-346.008 279.847,-344.575 287.159,-352.242 290.344,-346.008"/>
</g>
<!-- Node446 -->
<g id="node12" class="node"><title>Node446</title>
<g id="a_node12"><a xlink:href="interfaceeq__ops_1_1calc__t__hf.html#a603859a698b8288ea62ee6a77f9fc2ca" target="_top" xlink:title="array version ">
<polygon fill="white" stroke="black" points="394,-41 394,-75 525,-75 525,-41 394,-41"/>
<text text-anchor="start" x="402" y="-61.4" font-family="Ubuntu Mono" font-size="12.00">eq_ops::calc_t_hf::</text>
<text text-anchor="middle" x="459.5" y="-48.4" font-family="Ubuntu Mono" font-size="12.00">calc_t_hf_arr</text>
</a>
</g>
</g>
<!-- Node436&#45;&gt;Node446 -->
<g id="edge14" class="edge"><title>Node436&#45;&gt;Node446</title>
<path fill="none" stroke="midnightblue" d="M264.162,-313.385C273.692,-265.816 303.728,-147.599 376,-84 381.299,-79.3372 387.433,-75.5101 393.916,-72.3691"/>
<polygon fill="midnightblue" stroke="midnightblue" points="260.688,-312.921 262.254,-323.399 267.564,-314.231 260.688,-312.921"/>
</g>
<!-- Node447 -->
<g id="node13" class="node"><title>Node447</title>
<g id="a_node13"><a xlink:href="namespaceslepc__ops.html#a79c420987056c225931b51c8d30ece1f" target="_top" xlink:title="Solve the eigenvalue system using SLEPC. ">
<polygon fill="white" stroke="black" points="600,-209 600,-243 731,-243 731,-209 600,-209"/>
<text text-anchor="start" x="608" y="-229.4" font-family="Ubuntu Mono" font-size="12.00">slepc_ops::solve_ev</text>
<text text-anchor="middle" x="665.5" y="-216.4" font-family="Ubuntu Mono" font-size="12.00">_system_slepc</text>
</a>
</g>
</g>
<!-- Node436&#45;&gt;Node447 -->
<g id="edge15" class="edge"><title>Node436&#45;&gt;Node447</title>
<path fill="none" stroke="midnightblue" d="M271.887,-314.639C289.841,-286.269 327.711,-234.544 376,-214 449.806,-182.599 544.05,-195.137 604.354,-208.956"/>
<polygon fill="midnightblue" stroke="midnightblue" points="268.827,-312.934 266.575,-323.287 274.791,-316.598 268.827,-312.934"/>
</g>
<!-- Node449 -->
<g id="node15" class="node"><title>Node449</title>
<g id="a_node15"><a xlink:href="namespaceslepc__ops.html#aac8202cb74cbb06013eb73f1fa0c3118" target="_top" xlink:title="Sets up the matrices &#160;and &#160;in the EV problem . ">
<polygon fill="white" stroke="black" points="388,-223.5 388,-244.5 531,-244.5 531,-223.5 388,-223.5"/>
<text text-anchor="middle" x="459.5" y="-230.9" font-family="Ubuntu Mono" font-size="12.00">slepc_ops::setup_mats</text>
</a>
</g>
</g>
<!-- Node436&#45;&gt;Node449 -->
<g id="edge18" class="edge"><title>Node436&#45;&gt;Node449</title>
<path fill="none" stroke="midnightblue" d="M282.128,-317.281C304.559,-300.602 341.164,-275.191 376,-259 388.35,-253.26 402.345,-248.442 415.254,-244.615"/>
<polygon fill="midnightblue" stroke="midnightblue" points="279.862,-314.607 273.982,-323.42 284.074,-320.197 279.862,-314.607"/>
</g>
<!-- Node450 -->
<g id="node16" class="node"><title>Node450</title>
<g id="a_node16"><a xlink:href="namespacetest.html#aca21ee464c0b1f4b617177afdde110ec" target="_top" xlink:title="Performs generic tests. ">
<polygon fill="white" stroke="black" points="815,-500.5 815,-521.5 946,-521.5 946,-500.5 815,-500.5"/>
<text text-anchor="middle" x="880.5" y="-507.9" font-family="Ubuntu Mono" font-size="12.00">test::generic_tests</text>
</a>
</g>
</g>
<!-- Node436&#45;&gt;Node450 -->
<g id="edge20" class="edge"><title>Node436&#45;&gt;Node450</title>
<path fill="none" stroke="midnightblue" d="M266.555,-354.255C279.465,-393.507 313.72,-479.453 376,-518 530.989,-613.928 767.504,-548.955 849.937,-521.541"/>
<polygon fill="midnightblue" stroke="midnightblue" points="269.889,-353.189 263.538,-344.709 263.215,-355.299 269.889,-353.189"/>
</g>
<!-- Node451 -->
<g id="node17" class="node"><title>Node451</title>
<g id="a_node17"><a xlink:href="namespacetest.html#a1c04fcea513c8c2efb189049d810318a" target="_top" xlink:title="Test calc_d2_smooth(). ">
<polygon fill="white" stroke="black" points="603,-494 603,-528 728,-528 728,-494 603,-494"/>
<text text-anchor="start" x="611" y="-514.4" font-family="Ubuntu Mono" font-size="12.00">test::test_calc_d2</text>
<text text-anchor="middle" x="665.5" y="-501.4" font-family="Ubuntu Mono" font-size="12.00">_smooth</text>
</a>
</g>
</g>
<!-- Node436&#45;&gt;Node451 -->
<g id="edge23" class="edge"><title>Node436&#45;&gt;Node451</title>
<path fill="none" stroke="midnightblue" d="M268.895,-353.987C284.402,-388.082 321.053,-456.726 376,-487 446.433,-525.806 541.52,-525.479 602.931,-519.777"/>
<polygon fill="midnightblue" stroke="midnightblue" points="271.994,-352.341 264.764,-344.596 265.587,-355.159 271.994,-352.341"/>
</g>
<!-- Node452 -->
<g id="node18" class="node"><title>Node452</title>
<g id="a_node18"><a xlink:href="namespacetest.html#a53c6b3d654d4577af301fe3b04473d6a" target="_top" xlink:title="Test spline(). ">
<polygon fill="white" stroke="black" points="603,-453.5 603,-474.5 728,-474.5 728,-453.5 603,-453.5"/>
<text text-anchor="middle" x="665.5" y="-460.9" font-family="Ubuntu Mono" font-size="12.00">test::test_splines</text>
</a>
</g>
</g>
<!-- Node436&#45;&gt;Node452 -->
<g id="edge25" class="edge"><title>Node436&#45;&gt;Node452</title>
<path fill="none" stroke="midnightblue" d="M271.048,-353.68C288.363,-383.631 325.949,-439.54 376,-462 455.4,-497.63 559.918,-485.817 618.882,-474.547"/>
<polygon fill="midnightblue" stroke="midnightblue" points="273.905,-351.618 265.965,-344.604 267.798,-355.039 273.905,-351.618"/>
</g>
<!-- Node453 -->
<g id="node19" class="node"><title>Node453</title>
<g id="a_node19"><a xlink:href="test_8f90.html#a197914f99b7e194fb4bca9ca3669e0e8" target="_top" xlink:title="plot_y">
<polygon fill="white" stroke="black" points="433,-431.5 433,-452.5 486,-452.5 486,-431.5 433,-431.5"/>
<text text-anchor="middle" x="459.5" y="-438.9" font-family="Ubuntu Mono" font-size="12.00">plot_y</text>
</a>
</g>
</g>
<!-- Node436&#45;&gt;Node453 -->
<g id="edge27" class="edge"><title>Node436&#45;&gt;Node453</title>
<path fill="none" stroke="midnightblue" d="M280.087,-351.193C302.079,-369.72 339.484,-398.968 376,-417 394.116,-425.946 416.068,-432.409 432.772,-436.52"/>
<polygon fill="midnightblue" stroke="midnightblue" points="282.323,-348.499 272.447,-344.662 277.775,-353.82 282.323,-348.499"/>
</g>
<!-- Node454 -->
<g id="node20" class="node"><title>Node454</title>
<g id="a_node20"><a xlink:href="namespacetest.html#ab595ec935321ea0b1168593fb88fad22" target="_top" xlink:title="Test calculation of toroidal functions. ">
<polygon fill="white" stroke="black" points="397,-625.5 397,-646.5 522,-646.5 522,-625.5 397,-625.5"/>
<text text-anchor="middle" x="459.5" y="-632.9" font-family="Ubuntu Mono" font-size="12.00">test::test_tor_fun</text>
</a>
</g>
</g>
<!-- Node436&#45;&gt;Node454 -->
<g id="edge29" class="edge"><title>Node436&#45;&gt;Node454</title>
<path fill="none" stroke="midnightblue" d="M262.636,-354.73C269.172,-407.054 293.763,-545.322 376,-616 382.036,-621.187 389.196,-625.076 396.737,-627.983"/>
<polygon fill="midnightblue" stroke="midnightblue" points="266.097,-354.193 261.473,-344.661 259.143,-354.996 266.097,-354.193"/>
</g>
<!-- Node455 -->
<g id="node21" class="node"><title>Node455</title>
<g id="a_node21"><a xlink:href="namespacetest.html#a0d4cb791bf762b2e52260fea7644a3ee" target="_top" xlink:title="Tests calculation of volume integral. ">
<polygon fill="white" stroke="black" points="382,-585.5 382,-606.5 537,-606.5 537,-585.5 382,-585.5"/>
<text text-anchor="middle" x="459.5" y="-592.9" font-family="Ubuntu Mono" font-size="12.00">test::test_calc_int_vol</text>
</a>
</g>
</g>
<!-- Node436&#45;&gt;Node455 -->
<g id="edge31" class="edge"><title>Node436&#45;&gt;Node455</title>
<path fill="none" stroke="midnightblue" d="M264.659,-354.531C275.019,-400.359 306.322,-511.62 376,-571 383.29,-577.213 392.091,-581.882 401.193,-585.39"/>
<polygon fill="midnightblue" stroke="midnightblue" points="268.046,-353.631 262.514,-344.595 261.203,-355.109 268.046,-353.631"/>
</g>
<!-- Node456 -->
<g id="node22" class="node"><title>Node456</title>
<g id="a_node22"><a xlink:href="namespacevac__utilities.html#a8e7889688701f6ac2fd2c60cdee2b96a" target="_top" xlink:title="Copies vacuum variables of a previous level into the appropriate, interlaced place of a next level...">
<polygon fill="white" stroke="black" points="376,-340 376,-374 543,-374 543,-340 376,-340"/>
<text text-anchor="start" x="384" y="-360.4" font-family="Ubuntu Mono" font-size="12.00">vac_utilities::interlaced</text>
<text text-anchor="middle" x="459.5" y="-347.4" font-family="Ubuntu Mono" font-size="12.00">_vac_copy</text>
</a>
</g>
</g>
<!-- Node436&#45;&gt;Node456 -->
<g id="edge33" class="edge"><title>Node436&#45;&gt;Node456</title>
<path fill="none" stroke="midnightblue" d="M350.135,-344.412C358.666,-345.403 367.291,-346.405 375.753,-347.388"/>
<polygon fill="midnightblue" stroke="midnightblue" points="350.515,-340.933 340.178,-343.256 349.708,-347.886 350.515,-340.933"/>
</g>
<!-- Node458 -->
<g id="node24" class="node"><title>Node458</title>
<g id="a_node24"><a xlink:href="namespacex__ops.html#a4e39701da15ff952add5133db1897b52" target="_top" xlink:title="Calculate , &#160;or , . ">
<polygon fill="white" stroke="black" points="412,-0.5 412,-21.5 507,-21.5 507,-0.5 412,-0.5"/>
<text text-anchor="middle" x="459.5" y="-7.9" font-family="Ubuntu Mono" font-size="12.00">x_ops::calc_u</text>
</a>
</g>
</g>
<!-- Node436&#45;&gt;Node458 -->
<g id="edge36" class="edge"><title>Node436&#45;&gt;Node458</title>
<path fill="none" stroke="midnightblue" d="M261.98,-313.248C267.054,-258.295 288.649,-107.957 376,-31 385.952,-22.2318 399.104,-17.1568 411.975,-14.2619"/>
<polygon fill="midnightblue" stroke="midnightblue" points="258.471,-313.21 261.13,-323.465 265.447,-313.79 258.471,-313.21"/>
</g>
<!-- Node438 -->
<g id="node4" class="node"><title>Node438</title>
<g id="a_node4"><a xlink:href="PB3D_8f90.html#afaee01f014ab3398eecac996b2795fd2" target="_top" xlink:title="Peeling Ballooning in 3D. ">
<polygon fill="white" stroke="black" points="1009,-298.5 1009,-319.5 1050,-319.5 1050,-298.5 1009,-298.5"/>
<text text-anchor="middle" x="1029.5" y="-305.9" font-family="Ubuntu Mono" font-size="12.00">pb3d</text>
</a>
</g>
</g>
<!-- Node437&#45;&gt;Node438 -->
<g id="edge3" class="edge"><title>Node437&#45;&gt;Node438</title>
<path fill="none" stroke="midnightblue" d="M959.003,-319.874C977.587,-316.966 995.83,-314.112 1008.96,-312.058"/>
<polygon fill="midnightblue" stroke="midnightblue" points="958.315,-316.439 948.977,-321.442 959.398,-323.354 958.315,-316.439"/>
</g>
<!-- Node440 -->
<g id="node6" class="node"><title>Node440</title>
<g id="a_node6"><a xlink:href="namespacedriver__x.html#ada3d72a0929daaa5e3da585246d62281" target="_top" xlink:title="Main driver of PB3D perturbation part. ">
<polygon fill="white" stroke="black" points="806,-275.5 806,-296.5 955,-296.5 955,-275.5 806,-275.5"/>
<text text-anchor="middle" x="880.5" y="-282.9" font-family="Ubuntu Mono" font-size="12.00">driver_x::run_driver_x</text>
</a>
</g>
</g>
<!-- Node439&#45;&gt;Node440 -->
<g id="edge5" class="edge"><title>Node439&#45;&gt;Node440</title>
<path fill="none" stroke="midnightblue" d="M756.331,-278.483C772.874,-279.492 789.968,-280.536 805.961,-281.512"/>
<polygon fill="midnightblue" stroke="midnightblue" points="756.311,-274.975 746.116,-277.859 755.884,-281.962 756.311,-274.975"/>
</g>
<!-- Node440&#45;&gt;Node438 -->
<g id="edge6" class="edge"><title>Node440&#45;&gt;Node438</title>
<path fill="none" stroke="midnightblue" d="M959.003,-298.126C977.587,-301.034 995.83,-303.888 1008.96,-305.942"/>
<polygon fill="midnightblue" stroke="midnightblue" points="959.398,-294.646 948.977,-296.558 958.315,-301.561 959.398,-294.646"/>
</g>
<!-- Node442&#45;&gt;Node441 -->
<g id="edge9" class="edge"><title>Node442&#45;&gt;Node441</title>
<path fill="none" stroke="midnightblue" d="M535.201,-119.422C549.353,-121.018 564.262,-122.699 578.725,-124.329"/>
<polygon fill="midnightblue" stroke="midnightblue" points="535.376,-115.92 525.047,-118.277 534.592,-122.876 535.376,-115.92"/>
</g>
<!-- Node443&#45;&gt;Node437 -->
<g id="edge11" class="edge"><title>Node443&#45;&gt;Node437</title>
<path fill="none" stroke="midnightblue" d="M708.063,-389.146C748.985,-375.505 810.596,-354.968 847.742,-342.586"/>
<polygon fill="midnightblue" stroke="midnightblue" points="706.768,-385.888 698.388,-392.371 708.982,-392.529 706.768,-385.888"/>
</g>
<!-- Node444 -->
<g id="node10" class="node"><title>Node444</title>
<g id="a_node10"><a xlink:href="namespacedriver__post.html#a33b3c6f9018a0ddc92dce77394b8ab37" target="_top" xlink:title="The main driver routine for postprocessing. ">
<polygon fill="white" stroke="black" points="788,-426.5 788,-447.5 973,-447.5 973,-426.5 788,-426.5"/>
<text text-anchor="middle" x="880.5" y="-433.9" font-family="Ubuntu Mono" font-size="12.00">driver_post::run_driver_post</text>
</a>
</g>
</g>
<!-- Node443&#45;&gt;Node444 -->
<g id="edge12" class="edge"><title>Node443&#45;&gt;Node444</title>
<path fill="none" stroke="midnightblue" d="M738.027,-414.417C762.442,-418.315 789.615,-422.652 813.569,-426.476"/>
<polygon fill="midnightblue" stroke="midnightblue" points="738.535,-410.954 728.108,-412.834 737.432,-417.867 738.535,-410.954"/>
</g>
<!-- Node445 -->
<g id="node11" class="node"><title>Node445</title>
<g id="a_node11"><a xlink:href="POST_8f90.html#ac289b64ac4671fea0b4f2298ba1188a1" target="_top" xlink:title="Peeling Ballooning in 3D: postprocessing. ">
<polygon fill="white" stroke="black" points="1009,-463.5 1009,-484.5 1050,-484.5 1050,-463.5 1009,-463.5"/>
<text text-anchor="middle" x="1029.5" y="-470.9" font-family="Ubuntu Mono" font-size="12.00">post</text>
</a>
</g>
</g>
<!-- Node444&#45;&gt;Node445 -->
<g id="edge13" class="edge"><title>Node444&#45;&gt;Node445</title>
<path fill="none" stroke="midnightblue" d="M933.013,-449.966C959.138,-456.542 989.345,-464.145 1008.67,-469.009"/>
<polygon fill="midnightblue" stroke="midnightblue" points="933.783,-446.551 923.231,-447.504 932.074,-453.339 933.783,-446.551"/>
</g>
<!-- Node448 -->
<g id="node14" class="node"><title>Node448</title>
<g id="a_node14"><a xlink:href="namespacedriver__sol.html#ad3b1765b3ecc5f82129bfc683ffc6c5c" target="_top" xlink:title="Main driver of PB3D solution part. ">
<polygon fill="white" stroke="black" points="794,-222.5 794,-243.5 967,-243.5 967,-222.5 794,-222.5"/>
<text text-anchor="middle" x="880.5" y="-229.9" font-family="Ubuntu Mono" font-size="12.00">driver_sol::run_driver_sol</text>
</a>
</g>
</g>
<!-- Node447&#45;&gt;Node448 -->
<g id="edge16" class="edge"><title>Node447&#45;&gt;Node448</title>
<path fill="none" stroke="midnightblue" d="M741.619,-228.469C758.499,-229.023 776.535,-229.616 793.81,-230.184"/>
<polygon fill="midnightblue" stroke="midnightblue" points="741.384,-224.959 731.275,-228.129 741.154,-231.955 741.384,-224.959"/>
</g>
<!-- Node448&#45;&gt;Node438 -->
<g id="edge17" class="edge"><title>Node448&#45;&gt;Node438</title>
<path fill="none" stroke="midnightblue" d="M928.985,-246.959C943.527,-252.062 959.293,-258.465 973,-266 989.449,-275.043 1006.19,-288.767 1016.92,-298.267"/>
<polygon fill="midnightblue" stroke="midnightblue" points="929.749,-243.522 919.154,-243.636 927.507,-250.154 929.749,-243.522"/>
</g>
<!-- Node449&#45;&gt;Node447 -->
<g id="edge19" class="edge"><title>Node449&#45;&gt;Node447</title>
<path fill="none" stroke="midnightblue" d="M541.348,-230.829C560.827,-230.066 581.381,-229.26 599.999,-228.529"/>
<polygon fill="midnightblue" stroke="midnightblue" points="541.132,-227.335 531.277,-231.224 541.406,-234.33 541.132,-227.335"/>
</g>
<!-- Node450&#45;&gt;Node438 -->
<g id="edge21" class="edge"><title>Node450&#45;&gt;Node438</title>
<path fill="none" stroke="midnightblue" d="M919.065,-496.033C937.454,-487.078 958.662,-474.085 973,-457 1008.99,-414.119 1022.86,-345.598 1027.01,-319.531"/>
<polygon fill="midnightblue" stroke="midnightblue" points="917.358,-492.967 909.757,-500.348 920.302,-499.317 917.358,-492.967"/>
</g>
<!-- Node450&#45;&gt;Node445 -->
<g id="edge22" class="edge"><title>Node450&#45;&gt;Node445</title>
<path fill="none" stroke="midnightblue" d="M933.013,-498.034C959.138,-491.458 989.345,-483.855 1008.67,-478.991"/>
<polygon fill="midnightblue" stroke="midnightblue" points="932.074,-494.661 923.231,-500.496 933.783,-501.449 932.074,-494.661"/>
</g>
<!-- Node451&#45;&gt;Node450 -->
<g id="edge24" class="edge"><title>Node451&#45;&gt;Node450</title>
<path fill="none" stroke="midnightblue" d="M738.166,-511C762.927,-511 790.512,-511 814.691,-511"/>
<polygon fill="midnightblue" stroke="midnightblue" points="738.108,-507.5 728.108,-511 738.108,-514.5 738.108,-507.5"/>
</g>
<!-- Node452&#45;&gt;Node450 -->
<g id="edge26" class="edge"><title>Node452&#45;&gt;Node450</title>
<path fill="none" stroke="midnightblue" d="M724.473,-476.792C758.166,-484.227 800.101,-493.48 831.858,-500.487"/>
<polygon fill="midnightblue" stroke="midnightblue" points="724.821,-473.285 714.301,-474.548 723.312,-480.12 724.821,-473.285"/>
</g>
<!-- Node453&#45;&gt;Node452 -->
<g id="edge28" class="edge"><title>Node453&#45;&gt;Node452</title>
<path fill="none" stroke="midnightblue" d="M496.561,-445.889C525.987,-449.062 568.227,-453.618 602.982,-457.366"/>
<polygon fill="midnightblue" stroke="midnightblue" points="496.654,-442.379 486.337,-444.786 495.904,-449.338 496.654,-442.379"/>
</g>
<!-- Node454&#45;&gt;Node450 -->
<g id="edge30" class="edge"><title>Node454&#45;&gt;Node450</title>
<path fill="none" stroke="midnightblue" d="M532.424,-635.464C592.831,-632.903 680.489,-624.179 752,-597 799.421,-578.977 846.684,-540.334 867.902,-521.607"/>
<polygon fill="midnightblue" stroke="midnightblue" points="532.083,-631.975 522.222,-635.849 532.347,-638.97 532.083,-631.975"/>
</g>
<!-- Node455&#45;&gt;Node450 -->
<g id="edge32" class="edge"><title>Node455&#45;&gt;Node450</title>
<path fill="none" stroke="midnightblue" d="M547.616,-596.523C606.287,-594.942 684.905,-589.043 752,-571 793.579,-559.819 838.251,-535.652 862.11,-521.64"/>
<polygon fill="midnightblue" stroke="midnightblue" points="547.186,-593.032 537.27,-596.763 547.349,-600.03 547.186,-593.032"/>
</g>
<!-- Node457 -->
<g id="node23" class="node"><title>Node457</title>
<g id="a_node23"><a xlink:href="namespacevac__ops.html#a37220702fbf378626a0f2c12f446e0aa" target="_top" xlink:title="Stores calculation of the vacuum response by storing the necessary variables. ">
<polygon fill="white" stroke="black" points="603,-343.5 603,-364.5 728,-364.5 728,-343.5 603,-343.5"/>
<text text-anchor="middle" x="665.5" y="-350.9" font-family="Ubuntu Mono" font-size="12.00">vac_ops::store_vac</text>
</a>
</g>
</g>
<!-- Node456&#45;&gt;Node457 -->
<g id="edge34" class="edge"><title>Node456&#45;&gt;Node457</title>
<path fill="none" stroke="midnightblue" d="M553.505,-355.632C570.18,-355.387 587.178,-355.137 602.699,-354.909"/>
<polygon fill="midnightblue" stroke="midnightblue" points="553.128,-352.137 543.181,-355.784 553.231,-359.137 553.128,-352.137"/>
</g>
<!-- Node457&#45;&gt;Node437 -->
<g id="edge35" class="edge"><title>Node457&#45;&gt;Node437</title>
<path fill="none" stroke="midnightblue" d="M738.263,-346.588C758.026,-344.547 779.582,-342.32 799.765,-340.235"/>
<polygon fill="midnightblue" stroke="midnightblue" points="737.696,-343.128 728.108,-347.637 738.415,-350.091 737.696,-343.128"/>
</g>
<!-- Node459 -->
<g id="node25" class="node"><title>Node459</title>
<g id="a_node25"><a xlink:href="interfacex__ops_1_1calc__x.html#a837126ca92e7f4d6821261c835b987d4" target="_top" xlink:title="vectorial version ">
<polygon fill="white" stroke="black" points="588,-0.5 588,-21.5 743,-21.5 743,-0.5 588,-0.5"/>
<text text-anchor="middle" x="665.5" y="-7.9" font-family="Ubuntu Mono" font-size="12.00">x_ops::calc_x::calc_x_1</text>
</a>
</g>
</g>
<!-- Node458&#45;&gt;Node459 -->
<g id="edge37" class="edge"><title>Node458&#45;&gt;Node459</title>
<path fill="none" stroke="midnightblue" d="M517.142,-11C538.99,-11 564.323,-11 587.758,-11"/>
<polygon fill="midnightblue" stroke="midnightblue" points="517.046,-7.5001 507.046,-11 517.046,-14.5001 517.046,-7.5001"/>
</g>
</g>
</svg>
