<?xml version="1.0" encoding="UTF-8" standalone="no"?>
<!DOCTYPE svg PUBLIC "-//W3C//DTD SVG 1.1//EN"
 "http://www.w3.org/Graphics/SVG/1.1/DTD/svg11.dtd">
<!-- Generated by graphviz version 2.38.0 (20140413.2041)
 -->
<!-- Title: grid_ops::redistribute_output_grid Pages: 1 -->
<svg width="957pt" height="221pt"
 viewBox="0.00 0.00 957.00 220.50" xmlns="http://www.w3.org/2000/svg" xmlns:xlink="http://www.w3.org/1999/xlink">
<g id="graph0" class="graph" transform="scale(1 1) rotate(0) translate(4 216.5)">
<title>grid_ops::redistribute_output_grid</title>
<polygon fill="white" stroke="none" points="-4,4 -4,-216.5 953,-216.5 953,4 -4,4"/>
<!-- Node90 -->
<g id="node1" class="node"><title>Node90</title>
<polygon fill="#bfbfbf" stroke="black" points="0,-92 0,-126 149,-126 149,-92 0,-92"/>
<text text-anchor="start" x="8" y="-112.4" font-family="Ubuntu Mono" font-size="12.00">grid_ops::redistribute</text>
<text text-anchor="middle" x="74.5" y="-99.4" font-family="Ubuntu Mono" font-size="12.00">_output_grid</text>
</g>
<!-- Node91 -->
<g id="node2" class="node"><title>Node91</title>
<g id="a_node2"><a xlink:href="namespacegrid__utilities.html#ae08e1ff213071c9d411a9b9c76035e1e" target="_top" xlink:title="grid_utilities::find\l_compr_range">
<polygon fill="white" stroke="black" points="627,-178 627,-212 764,-212 764,-178 627,-178"/>
<text text-anchor="start" x="635" y="-198.4" font-family="Ubuntu Mono" font-size="12.00">grid_utilities::find</text>
<text text-anchor="middle" x="695.5" y="-185.4" font-family="Ubuntu Mono" font-size="12.00">_compr_range</text>
</a>
</g>
</g>
<!-- Node90&#45;&gt;Node91 -->
<g id="edge1" class="edge"><title>Node90&#45;&gt;Node91</title>
<path fill="none" stroke="midnightblue" d="M146.745,-126.036C159.478,-129.046 172.627,-132.133 185,-135 291.09,-159.579 315.912,-175.726 424,-189 488.605,-196.934 562.525,-198.037 616.746,-197.379"/>
<polygon fill="midnightblue" stroke="midnightblue" points="617.028,-200.875 626.977,-197.231 616.927,-193.876 617.028,-200.875"/>
</g>
<!-- Node92 -->
<g id="node3" class="node"><title>Node92</title>
<g id="a_node3"><a xlink:href="namespacempi__utilities.html#a128702990bd5fddc582e8fabcffc82b2" target="_top" xlink:title="mpi_utilities::redistribute_var">
<polygon fill="white" stroke="black" points="185,-51.5 185,-72.5 388,-72.5 388,-51.5 185,-51.5"/>
<text text-anchor="middle" x="286.5" y="-58.9" font-family="Ubuntu Mono" font-size="12.00">mpi_utilities::redistribute_var</text>
</a>
</g>
</g>
<!-- Node90&#45;&gt;Node92 -->
<g id="edge2" class="edge"><title>Node90&#45;&gt;Node92</title>
<path fill="none" stroke="midnightblue" d="M142.561,-91.9545C156.558,-88.5403 171.24,-85.064 185,-82 196.463,-79.4474 208.698,-76.8814 220.543,-74.4785"/>
<polygon fill="midnightblue" stroke="midnightblue" points="221.262,-77.9041 230.376,-72.5024 219.883,-71.0413 221.262,-77.9041"/>
</g>
<!-- Node93 -->
<g id="node4" class="node"><title>Node93</title>
<g id="a_node4"><a xlink:href="namespacegrid__ops.html#a596695cab6971ec6b9d32d13a50708b6" target="_top" xlink:title="grid_ops::calc_norm\l_range">
<polygon fill="white" stroke="black" points="221,-92 221,-126 352,-126 352,-92 221,-92"/>
<text text-anchor="start" x="229" y="-112.4" font-family="Ubuntu Mono" font-size="12.00">grid_ops::calc_norm</text>
<text text-anchor="middle" x="286.5" y="-99.4" font-family="Ubuntu Mono" font-size="12.00">_range</text>
</a>
</g>
</g>
<!-- Node90&#45;&gt;Node93 -->
<g id="edge3" class="edge"><title>Node90&#45;&gt;Node93</title>
<path fill="none" stroke="midnightblue" d="M149.243,-109C169.069,-109 190.531,-109 210.428,-109"/>
<polygon fill="midnightblue" stroke="midnightblue" points="210.674,-112.5 220.674,-109 210.674,-105.5 210.674,-112.5"/>
</g>
<!-- Node94 -->
<g id="node5" class="node"><title>Node94</title>
<g id="a_node5"><a xlink:href="grid__ops_8f90.html#aebe21d718069318bced62bc3d2d09393" target="_top" xlink:title="calc_norm_range_pb3d_in">
<polygon fill="white" stroke="black" points="424,-118.5 424,-139.5 579,-139.5 579,-118.5 424,-118.5"/>
<text text-anchor="middle" x="501.5" y="-125.9" font-family="Ubuntu Mono" font-size="12.00">calc_norm_range_pb3d_in</text>
</a>
</g>
</g>
<!-- Node93&#45;&gt;Node94 -->
<g id="edge4" class="edge"><title>Node93&#45;&gt;Node94</title>
<path fill="none" stroke="midnightblue" d="M352.275,-115.082C371.628,-116.899 393.165,-118.922 413.691,-120.849"/>
<polygon fill="midnightblue" stroke="midnightblue" points="413.389,-124.336 423.673,-121.786 414.044,-117.367 413.389,-124.336"/>
</g>
<!-- Node97 -->
<g id="node8" class="node"><title>Node97</title>
<g id="a_node8"><a xlink:href="grid__ops_8f90.html#a868669b6df6c0fa6a8cedd993042f6ea" target="_top" xlink:title="calc_norm_range_pb3d_eq">
<polygon fill="white" stroke="black" points="424,-78.5 424,-99.5 579,-99.5 579,-78.5 424,-78.5"/>
<text text-anchor="middle" x="501.5" y="-85.9" font-family="Ubuntu Mono" font-size="12.00">calc_norm_range_pb3d_eq</text>
</a>
</g>
</g>
<!-- Node93&#45;&gt;Node97 -->
<g id="edge7" class="edge"><title>Node93&#45;&gt;Node97</title>
<path fill="none" stroke="midnightblue" d="M352.275,-102.918C371.628,-101.101 393.165,-99.0784 413.691,-97.151"/>
<polygon fill="midnightblue" stroke="midnightblue" points="414.044,-100.633 423.673,-96.2138 413.389,-93.6641 414.044,-100.633"/>
</g>
<!-- Node98 -->
<g id="node9" class="node"><title>Node98</title>
<g id="a_node9"><a xlink:href="grid__ops_8f90.html#a242e1c26e16f9cd4b7604de7a90a7472" target="_top" xlink:title="calc_norm_range_pb3d_x">
<polygon fill="white" stroke="black" points="427,-0.5 427,-21.5 576,-21.5 576,-0.5 427,-0.5"/>
<text text-anchor="middle" x="501.5" y="-7.9" font-family="Ubuntu Mono" font-size="12.00">calc_norm_range_pb3d_x</text>
</a>
</g>
</g>
<!-- Node93&#45;&gt;Node98 -->
<g id="edge8" class="edge"><title>Node93&#45;&gt;Node98</title>
<path fill="none" stroke="midnightblue" d="M352.074,-98.2505C364.633,-94.3817 377.228,-89.1288 388,-82 409.65,-67.6729 402.74,-50.9 424,-36 430.057,-31.7548 436.88,-28.1963 443.894,-25.222"/>
<polygon fill="midnightblue" stroke="midnightblue" points="445.445,-28.3754 453.522,-21.5186 442.932,-21.8421 445.445,-28.3754"/>
</g>
<!-- Node99 -->
<g id="node10" class="node"><title>Node99</title>
<g id="a_node10"><a xlink:href="grid__ops_8f90.html#a9121423739548f1a1fa4e87055f49010" target="_top" xlink:title="calc_norm_range_pb3d_sol">
<polygon fill="white" stroke="black" points="615,-19.5 615,-40.5 776,-40.5 776,-19.5 615,-19.5"/>
<text text-anchor="middle" x="695.5" y="-26.9" font-family="Ubuntu Mono" font-size="12.00">calc_norm_range_pb3d_sol</text>
</a>
</g>
</g>
<!-- Node93&#45;&gt;Node99 -->
<g id="edge10" class="edge"><title>Node93&#45;&gt;Node99</title>
<path fill="none" stroke="midnightblue" d="M352.069,-92.5145C364.065,-89.2081 376.452,-85.6292 388,-82 404.229,-76.8998 407.496,-73.124 424,-69 483.462,-54.1417 551.788,-44.3483 604.893,-38.2915"/>
<polygon fill="midnightblue" stroke="midnightblue" points="605.415,-41.755 614.965,-37.1666 604.638,-34.7983 605.415,-41.755"/>
</g>
<!-- Node100 -->
<g id="node11" class="node"><title>Node100</title>
<g id="a_node11"><a xlink:href="grid__ops_8f90.html#ad037c191ae770bd79529506953f0e307" target="_top" xlink:title="calc_norm_range_post">
<polygon fill="white" stroke="black" points="433,-158.5 433,-179.5 570,-179.5 570,-158.5 433,-158.5"/>
<text text-anchor="middle" x="501.5" y="-165.9" font-family="Ubuntu Mono" font-size="12.00">calc_norm_range_post</text>
</a>
</g>
</g>
<!-- Node93&#45;&gt;Node100 -->
<g id="edge11" class="edge"><title>Node93&#45;&gt;Node100</title>
<path fill="none" stroke="midnightblue" d="M344.176,-126.013C368.677,-133.262 397.704,-141.711 424,-149 432.177,-151.266 440.865,-153.604 449.341,-155.847"/>
<polygon fill="midnightblue" stroke="midnightblue" points="448.589,-159.268 459.15,-158.426 450.369,-152.499 448.589,-159.268"/>
</g>
<!-- Node95 -->
<g id="node6" class="node"><title>Node95</title>
<g id="a_node6"><a xlink:href="namespacegrid__utilities.html#a43206328f85253a6cc821cd46a498bb6" target="_top" xlink:title="grid_utilities::setup\l_interp_data">
<polygon fill="white" stroke="black" points="624,-112 624,-146 767,-146 767,-112 624,-112"/>
<text text-anchor="start" x="632" y="-132.4" font-family="Ubuntu Mono" font-size="12.00">grid_utilities::setup</text>
<text text-anchor="middle" x="695.5" y="-119.4" font-family="Ubuntu Mono" font-size="12.00">_interp_data</text>
</a>
</g>
</g>
<!-- Node94&#45;&gt;Node95 -->
<g id="edge5" class="edge"><title>Node94&#45;&gt;Node95</title>
<path fill="none" stroke="midnightblue" d="M579.211,-129C590.487,-129 602.133,-129 613.493,-129"/>
<polygon fill="midnightblue" stroke="midnightblue" points="613.825,-132.5 623.825,-129 613.825,-125.5 613.825,-132.5"/>
</g>
<!-- Node96 -->
<g id="node7" class="node"><title>Node96</title>
<g id="a_node7"><a xlink:href="namespacestr__utilities.html#a0b97e51770725a3e98ed393d26681414" target="_top" xlink:title="str_utilities::i2str">
<polygon fill="white" stroke="black" points="812,-118.5 812,-139.5 949,-139.5 949,-118.5 812,-118.5"/>
<text text-anchor="middle" x="880.5" y="-125.9" font-family="Ubuntu Mono" font-size="12.00">str_utilities::i2str</text>
</a>
</g>
</g>
<!-- Node95&#45;&gt;Node96 -->
<g id="edge6" class="edge"><title>Node95&#45;&gt;Node96</title>
<path fill="none" stroke="midnightblue" d="M767.253,-129C778.61,-129 790.418,-129 801.925,-129"/>
<polygon fill="midnightblue" stroke="midnightblue" points="801.94,-132.5 811.94,-129 801.94,-125.5 801.94,-132.5"/>
</g>
<!-- Node98&#45;&gt;Node99 -->
<g id="edge9" class="edge"><title>Node98&#45;&gt;Node99</title>
<path fill="none" stroke="midnightblue" d="M576.183,-18.2916C585.602,-19.2236 595.324,-20.1857 604.958,-21.1391"/>
<polygon fill="midnightblue" stroke="midnightblue" points="604.655,-24.6261 614.951,-22.128 605.344,-17.6601 604.655,-24.6261"/>
</g>
<!-- Node100&#45;&gt;Node91 -->
<g id="edge12" class="edge"><title>Node100&#45;&gt;Node91</title>
<path fill="none" stroke="midnightblue" d="M570.192,-178.167C585.248,-180.205 601.324,-182.382 616.748,-184.471"/>
<polygon fill="midnightblue" stroke="midnightblue" points="616.393,-187.955 626.772,-185.829 617.332,-181.018 616.393,-187.955"/>
</g>
</g>
</svg>
