<?xml version="1.0" encoding="UTF-8" standalone="no"?>
<!DOCTYPE svg PUBLIC "-//W3C//DTD SVG 1.1//EN"
 "http://www.w3.org/Graphics/SVG/1.1/DTD/svg11.dtd">
<!-- Generated by graphviz version 2.38.0 (20140413.2041)
 -->
<!-- Title: pb3d_ops::reconstruct_pb3d_in Pages: 1 -->
<svg width="586pt" height="189pt"
 viewBox="0.00 0.00 586.00 189.00" xmlns="http://www.w3.org/2000/svg" xmlns:xlink="http://www.w3.org/1999/xlink">
<g id="graph0" class="graph" transform="scale(1 1) rotate(0) translate(4 185)">
<title>pb3d_ops::reconstruct_pb3d_in</title>
<polygon fill="white" stroke="none" points="-4,4 -4,-185 582,-185 582,4 -4,4"/>
<!-- Node133 -->
<g id="node1" class="node"><title>Node133</title>
<polygon fill="#bfbfbf" stroke="black" points="0,-68 0,-102 143,-102 143,-68 0,-68"/>
<text text-anchor="start" x="8" y="-88.4" font-family="Ubuntu Mono" font-size="12.00">pb3d_ops::reconstruct</text>
<text text-anchor="middle" x="71.5" y="-75.4" font-family="Ubuntu Mono" font-size="12.00">_pb3d_in</text>
</g>
<!-- Node134 -->
<g id="node2" class="node"><title>Node134</title>
<g id="a_node2"><a xlink:href="namespacedriver__post.html#af527706d4e696d4e507443d2f74194ef" target="_top" xlink:title="driver_post::init_post">
<polygon fill="white" stroke="black" points="352,-159.5 352,-180.5 501,-180.5 501,-159.5 352,-159.5"/>
<text text-anchor="middle" x="426.5" y="-166.9" font-family="Ubuntu Mono" font-size="12.00">driver_post::init_post</text>
</a>
</g>
</g>
<!-- Node133&#45;&gt;Node134 -->
<g id="edge1" class="edge"><title>Node133&#45;&gt;Node134</title>
<path fill="none" stroke="midnightblue" d="M104.675,-107.774C125.01,-120.956 152.391,-136.563 179,-145 235.276,-162.845 302.063,-168.741 351.914,-170.372"/>
<polygon fill="midnightblue" stroke="midnightblue" points="106.404,-104.721 96.1357,-102.113 102.536,-110.556 106.404,-104.721"/>
</g>
<!-- Node135 -->
<g id="node3" class="node"><title>Node135</title>
<g id="a_node3"><a xlink:href="POST_8f90.html#ac289b64ac4671fea0b4f2298ba1188a1" target="_top" xlink:title="post">
<polygon fill="white" stroke="black" points="537,-120.5 537,-141.5 578,-141.5 578,-120.5 537,-120.5"/>
<text text-anchor="middle" x="557.5" y="-127.9" font-family="Ubuntu Mono" font-size="12.00">post</text>
</a>
</g>
</g>
<!-- Node133&#45;&gt;Node135 -->
<g id="edge11" class="edge"><title>Node133&#45;&gt;Node135</title>
<path fill="none" stroke="midnightblue" d="M143.559,-104.289C155.325,-106.922 167.452,-109.3 179,-111 314.704,-130.981 480.44,-131.667 536.722,-131.246"/>
<polygon fill="midnightblue" stroke="midnightblue" points="144.313,-100.871 133.781,-102.026 142.735,-107.691 144.313,-100.871"/>
</g>
<!-- Node136 -->
<g id="node4" class="node"><title>Node136</title>
<g id="a_node4"><a xlink:href="namespacerich__ops.html#a9fbbda93eab8973d33063e277c489e7b" target="_top" xlink:title="rich_ops::init_rich">
<polygon fill="white" stroke="black" points="361,-0.5 361,-21.5 492,-21.5 492,-0.5 361,-0.5"/>
<text text-anchor="middle" x="426.5" y="-7.9" font-family="Ubuntu Mono" font-size="12.00">rich_ops::init_rich</text>
</a>
</g>
</g>
<!-- Node133&#45;&gt;Node136 -->
<g id="edge3" class="edge"><title>Node133&#45;&gt;Node136</title>
<path fill="none" stroke="midnightblue" d="M100.371,-61.5886C120.737,-46.0252 149.792,-26.8743 179,-18 238.704,0.140038 310.326,-0.106471 360.943,-3.68326"/>
<polygon fill="midnightblue" stroke="midnightblue" points="98.1816,-58.8574 92.4701,-67.7809 102.5,-64.3668 98.1816,-58.8574"/>
</g>
<!-- Node138 -->
<g id="node6" class="node"><title>Node138</title>
<g id="a_node6"><a xlink:href="namespacetest.html#a4a25e64af6b986091f9e49ba447fc5c4" target="_top" xlink:title="test::test_calc_rzl">
<polygon fill="white" stroke="black" points="182,-27.5 182,-48.5 313,-48.5 313,-27.5 182,-27.5"/>
<text text-anchor="middle" x="247.5" y="-34.9" font-family="Ubuntu Mono" font-size="12.00">test::test_calc_rzl</text>
</a>
</g>
</g>
<!-- Node133&#45;&gt;Node138 -->
<g id="edge5" class="edge"><title>Node133&#45;&gt;Node138</title>
<path fill="none" stroke="midnightblue" d="M145.492,-65.2838C166.781,-59.5333 189.22,-53.4723 207.526,-48.5274"/>
<polygon fill="midnightblue" stroke="midnightblue" points="144.552,-61.9123 135.81,-67.899 146.377,-68.6701 144.552,-61.9123"/>
</g>
<!-- Node140 -->
<g id="node8" class="node"><title>Node140</title>
<g id="a_node8"><a xlink:href="namespacetest.html#ac574f08ba400cd61070a6a6f13f6f7ee" target="_top" xlink:title="test::test_read_hdf5\l_subset">
<polygon fill="white" stroke="black" points="179,-68 179,-102 316,-102 316,-68 179,-68"/>
<text text-anchor="start" x="187" y="-88.4" font-family="Ubuntu Mono" font-size="12.00">test::test_read_hdf5</text>
<text text-anchor="middle" x="247.5" y="-75.4" font-family="Ubuntu Mono" font-size="12.00">_subset</text>
</a>
</g>
</g>
<!-- Node133&#45;&gt;Node140 -->
<g id="edge9" class="edge"><title>Node133&#45;&gt;Node140</title>
<path fill="none" stroke="midnightblue" d="M153.117,-85C161.767,-85 170.502,-85 178.977,-85"/>
<polygon fill="midnightblue" stroke="midnightblue" points="153.022,-81.5001 143.022,-85 153.022,-88.5001 153.022,-81.5001"/>
</g>
<!-- Node134&#45;&gt;Node135 -->
<g id="edge2" class="edge"><title>Node134&#45;&gt;Node135</title>
<path fill="none" stroke="midnightblue" d="M472.246,-156.472C494.269,-149.814 519.692,-142.128 536.802,-136.955"/>
<polygon fill="midnightblue" stroke="midnightblue" points="470.968,-153.202 462.409,-159.446 472.994,-159.902 470.968,-153.202"/>
</g>
<!-- Node137 -->
<g id="node5" class="node"><title>Node137</title>
<g id="a_node5"><a xlink:href="PB3D_8f90.html#afaee01f014ab3398eecac996b2795fd2" target="_top" xlink:title="pb3d">
<polygon fill="white" stroke="black" points="537,-32.5 537,-53.5 578,-53.5 578,-32.5 537,-32.5"/>
<text text-anchor="middle" x="557.5" y="-39.9" font-family="Ubuntu Mono" font-size="12.00">pb3d</text>
</a>
</g>
</g>
<!-- Node136&#45;&gt;Node137 -->
<g id="edge4" class="edge"><title>Node136&#45;&gt;Node137</title>
<path fill="none" stroke="midnightblue" d="M480.047,-24.035C500.023,-28.9902 521.584,-34.3387 536.7,-38.0884"/>
<polygon fill="midnightblue" stroke="midnightblue" points="480.645,-20.5774 470.097,-21.5667 478.96,-27.3714 480.645,-20.5774"/>
</g>
<!-- Node139 -->
<g id="node7" class="node"><title>Node139</title>
<g id="a_node7"><a xlink:href="namespacetest.html#aca21ee464c0b1f4b617177afdde110ec" target="_top" xlink:title="test::generic_tests">
<polygon fill="white" stroke="black" points="361,-63.5 361,-84.5 492,-84.5 492,-63.5 361,-63.5"/>
<text text-anchor="middle" x="426.5" y="-70.9" font-family="Ubuntu Mono" font-size="12.00">test::generic_tests</text>
</a>
</g>
</g>
<!-- Node138&#45;&gt;Node139 -->
<g id="edge6" class="edge"><title>Node138&#45;&gt;Node139</title>
<path fill="none" stroke="midnightblue" d="M310.164,-50.5418C330.92,-54.7634 353.852,-59.4276 373.764,-63.4775"/>
<polygon fill="midnightblue" stroke="midnightblue" points="310.669,-47.0729 300.172,-48.5095 309.273,-53.9324 310.669,-47.0729"/>
</g>
<!-- Node139&#45;&gt;Node135 -->
<g id="edge8" class="edge"><title>Node139&#45;&gt;Node135</title>
<path fill="none" stroke="midnightblue" d="M460.621,-88.6347C484.764,-99.3025 516.662,-113.397 536.885,-122.333"/>
<polygon fill="midnightblue" stroke="midnightblue" points="462.023,-85.428 451.462,-84.5877 459.194,-91.8308 462.023,-85.428"/>
</g>
<!-- Node139&#45;&gt;Node137 -->
<g id="edge7" class="edge"><title>Node139&#45;&gt;Node137</title>
<path fill="none" stroke="midnightblue" d="M481.344,-61.0608C501.001,-56.337 522.016,-51.287 536.811,-47.7314"/>
<polygon fill="midnightblue" stroke="midnightblue" points="480.439,-57.6785 471.534,-63.4183 482.075,-64.4847 480.439,-57.6785"/>
</g>
<!-- Node140&#45;&gt;Node139 -->
<g id="edge10" class="edge"><title>Node140&#45;&gt;Node139</title>
<path fill="none" stroke="midnightblue" d="M326.228,-80.1695C337.764,-79.4525 349.548,-78.7202 360.78,-78.0221"/>
<polygon fill="midnightblue" stroke="midnightblue" points="325.937,-76.6807 316.174,-80.7943 326.372,-83.6672 325.937,-76.6807"/>
</g>
</g>
</svg>
