<?xml version="1.0" encoding="UTF-8" standalone="no"?>
<!DOCTYPE svg PUBLIC "-//W3C//DTD SVG 1.1//EN"
 "http://www.w3.org/Graphics/SVG/1.1/DTD/svg11.dtd">
<!-- Generated by graphviz version 2.38.0 (20140413.2041)
 -->
<!-- Title: messages::start_time Pages: 1 -->
<svg width="479pt" height="70pt"
 viewBox="0.00 0.00 479.00 70.00" xmlns="http://www.w3.org/2000/svg" xmlns:xlink="http://www.w3.org/1999/xlink">
<g id="graph0" class="graph" transform="scale(1 1) rotate(0) translate(4 66)">
<title>messages::start_time</title>
<polygon fill="white" stroke="none" points="-4,4 -4,-66 475,-66 475,4 -4,4"/>
<!-- Node587 -->
<g id="node1" class="node"><title>Node587</title>
<polygon fill="#bfbfbf" stroke="black" points="0,-20.5 0,-41.5 137,-41.5 137,-20.5 0,-20.5"/>
<text text-anchor="middle" x="68.5" y="-27.9" font-family="Ubuntu Mono" font-size="12.00">messages::start_time</text>
</g>
<!-- Node588 -->
<g id="node2" class="node"><title>Node588</title>
<g id="a_node2"><a xlink:href="namespacemessages.html#aa4a8d01563e92558e8a0875b075ec54c" target="_top" xlink:title="Write output to file identified by output_i. ">
<polygon fill="white" stroke="black" points="173,-20.5 173,-41.5 280,-41.5 280,-20.5 173,-20.5"/>
<text text-anchor="middle" x="226.5" y="-27.9" font-family="Ubuntu Mono" font-size="12.00">messages::writo</text>
</a>
</g>
</g>
<!-- Node587&#45;&gt;Node588 -->
<g id="edge1" class="edge"><title>Node587&#45;&gt;Node588</title>
<path fill="none" stroke="midnightblue" d="M137.017,-31C145.564,-31 154.282,-31 162.751,-31"/>
<polygon fill="midnightblue" stroke="midnightblue" points="162.929,-34.5001 172.928,-31 162.928,-27.5001 162.929,-34.5001"/>
</g>
<!-- Node589 -->
<g id="node3" class="node"><title>Node589</title>
<g id="a_node3"><a xlink:href="namespacemessages.html#a82dddaab795b78b3d39e1ff1aab2f665" target="_top" xlink:title="Returns the memory usage in kilobytes. ">
<polygon fill="white" stroke="black" points="316,-40.5 316,-61.5 471,-61.5 471,-40.5 316,-40.5"/>
<text text-anchor="middle" x="393.5" y="-47.9" font-family="Ubuntu Mono" font-size="12.00">messages::get_mem_usage</text>
</a>
</g>
</g>
<!-- Node588&#45;&gt;Node589 -->
<g id="edge2" class="edge"><title>Node588&#45;&gt;Node589</title>
<path fill="none" stroke="midnightblue" d="M280.161,-37.3831C288.452,-38.3881 297.208,-39.4495 306.025,-40.5182"/>
<polygon fill="midnightblue" stroke="midnightblue" points="305.635,-43.9965 315.984,-41.7253 306.478,-37.0474 305.635,-43.9965"/>
</g>
<!-- Node590 -->
<g id="node4" class="node"><title>Node590</title>
<g id="a_node4"><a xlink:href="namespacemessages.html#a61fd0b51b5e37d58fdc993c01792a3fd" target="_top" xlink:title="Returns the time. ">
<polygon fill="white" stroke="black" points="328,-0.5 328,-21.5 459,-21.5 459,-0.5 328,-0.5"/>
<text text-anchor="middle" x="393.5" y="-7.9" font-family="Ubuntu Mono" font-size="12.00">messages::get_clock</text>
</a>
</g>
</g>
<!-- Node588&#45;&gt;Node590 -->
<g id="edge3" class="edge"><title>Node588&#45;&gt;Node590</title>
<path fill="none" stroke="midnightblue" d="M280.161,-24.6169C292.142,-23.1646 305.094,-21.5947 317.797,-20.0549"/>
<polygon fill="midnightblue" stroke="midnightblue" points="318.402,-23.5073 327.908,-18.8293 317.56,-16.5581 318.402,-23.5073"/>
</g>
</g>
</svg>
