<?xml version="1.0" encoding="UTF-8" standalone="no"?>
<!DOCTYPE svg PUBLIC "-//W3C//DTD SVG 1.1//EN"
 "http://www.w3.org/Graphics/SVG/1.1/DTD/svg11.dtd">
<!-- Generated by graphviz version 2.38.0 (20140413.2041)
 -->
<!-- Title: hdf5_utilities::list_all_vars_in_group Pages: 1 -->
<svg width="1219pt" height="667pt"
 viewBox="0.00 0.00 1219.00 667.23" xmlns="http://www.w3.org/2000/svg" xmlns:xlink="http://www.w3.org/1999/xlink">
<g id="graph0" class="graph" transform="scale(1 1) rotate(0) translate(4 663.233)">
<title>hdf5_utilities::list_all_vars_in_group</title>
<polygon fill="white" stroke="none" points="-4,4 -4,-663.233 1215,-663.233 1215,4 -4,4"/>
<!-- Node5 -->
<g id="node1" class="node"><title>Node5</title>
<polygon fill="#bfbfbf" stroke="black" points="0,-300 0,-334 137,-334 137,-300 0,-300"/>
<text text-anchor="start" x="8" y="-320.4" font-family="Ubuntu Mono" font-size="12.00">hdf5_utilities::list</text>
<text text-anchor="middle" x="68.5" y="-307.4" font-family="Ubuntu Mono" font-size="12.00">_all_vars_in_group</text>
</g>
<!-- Node6 -->
<g id="node2" class="node"><title>Node6</title>
<g id="a_node2"><a xlink:href="namespacehdf5__ops.html#a5108e0d6f6b492cb981505ebceedd9ee" target="_top" xlink:title="Reads a PB3D output file in HDF5 format. ">
<polygon fill="white" stroke="black" points="173,-306.5 173,-327.5 328,-327.5 328,-306.5 173,-306.5"/>
<text text-anchor="middle" x="250.5" y="-313.9" font-family="Ubuntu Mono" font-size="12.00">hdf5_ops::read_hdf5_arr</text>
</a>
</g>
</g>
<!-- Node5&#45;&gt;Node6 -->
<g id="edge1" class="edge"><title>Node5&#45;&gt;Node6</title>
<path fill="none" stroke="midnightblue" d="M147.273,-317C155.742,-317 164.357,-317 172.812,-317"/>
<polygon fill="midnightblue" stroke="midnightblue" points="147.038,-313.5 137.037,-317 147.037,-320.5 147.038,-313.5"/>
</g>
<!-- Node7 -->
<g id="node3" class="node"><title>Node7</title>
<g id="a_node3"><a xlink:href="namespacepb3d__ops.html#ad1481747b9b9832f816d4bf1dd2d6737" target="_top" xlink:title="Reconstructs the input variables from PB3D HDF5 output. ">
<polygon fill="white" stroke="black" points="364,-551 364,-585 507,-585 507,-551 364,-551"/>
<text text-anchor="start" x="372" y="-571.4" font-family="Ubuntu Mono" font-size="12.00">pb3d_ops::reconstruct</text>
<text text-anchor="middle" x="435.5" y="-558.4" font-family="Ubuntu Mono" font-size="12.00">_pb3d_in</text>
</a>
</g>
</g>
<!-- Node6&#45;&gt;Node7 -->
<g id="edge2" class="edge"><title>Node6&#45;&gt;Node7</title>
<path fill="none" stroke="midnightblue" d="M265.314,-335.947C299.787,-383.229 389.189,-505.852 422.101,-550.994"/>
<polygon fill="midnightblue" stroke="midnightblue" points="268.083,-333.804 259.363,-327.785 262.426,-337.928 268.083,-333.804"/>
</g>
<!-- Node16 -->
<g id="node12" class="node"><title>Node16</title>
<g id="a_node12"><a xlink:href="namespacepb3d__ops.html#a4218b582c5029ff05893265fa329877b" target="_top" xlink:title="Reconstructs grid variables from PB3D HDF5 output. ">
<polygon fill="white" stroke="black" points="552,-119 552,-153 695,-153 695,-119 552,-119"/>
<text text-anchor="start" x="560" y="-139.4" font-family="Ubuntu Mono" font-size="12.00">pb3d_ops::reconstruct</text>
<text text-anchor="middle" x="623.5" y="-126.4" font-family="Ubuntu Mono" font-size="12.00">_pb3d_grid</text>
</a>
</g>
</g>
<!-- Node6&#45;&gt;Node16 -->
<g id="edge15" class="edge"><title>Node6&#45;&gt;Node16</title>
<path fill="none" stroke="midnightblue" d="M262.743,-297.631C280.428,-269.023 317.565,-215.958 364,-189 421.646,-155.534 497.269,-142.988 551.812,-138.394"/>
<polygon fill="midnightblue" stroke="midnightblue" points="259.67,-295.95 257.506,-306.322 265.665,-299.563 259.67,-295.95"/>
</g>
<!-- Node22 -->
<g id="node18" class="node"><title>Node22</title>
<g id="a_node18"><a xlink:href="namespacepb3d__ops.html#a3142ca9965fa01b2777db762ed1a6eba" target="_top" xlink:title="Reconstructs the equilibrium variables from PB3D HDF5 output. ">
<polygon fill="white" stroke="black" points="552,-304 552,-338 695,-338 695,-304 552,-304"/>
<text text-anchor="start" x="560" y="-324.4" font-family="Ubuntu Mono" font-size="12.00">pb3d_ops::reconstruct</text>
<text text-anchor="middle" x="623.5" y="-311.4" font-family="Ubuntu Mono" font-size="12.00">_pb3d_eq_1</text>
</a>
</g>
</g>
<!-- Node6&#45;&gt;Node22 -->
<g id="edge29" class="edge"><title>Node6&#45;&gt;Node22</title>
<path fill="none" stroke="midnightblue" d="M338.588,-317.939C403.505,-318.639 491.054,-319.583 551.692,-320.237"/>
<polygon fill="midnightblue" stroke="midnightblue" points="338.409,-314.437 328.371,-317.829 338.333,-321.437 338.409,-314.437"/>
</g>
<!-- Node23 -->
<g id="node19" class="node"><title>Node23</title>
<g id="a_node19"><a xlink:href="namespacepb3d__ops.html#aaf99ae865680f4cf0a0a9932786689bf" target="_top" xlink:title="Reconstructs the equilibrium variables from PB3D HDF5 output. ">
<polygon fill="white" stroke="black" points="552,-410 552,-444 695,-444 695,-410 552,-410"/>
<text text-anchor="start" x="560" y="-430.4" font-family="Ubuntu Mono" font-size="12.00">pb3d_ops::reconstruct</text>
<text text-anchor="middle" x="623.5" y="-417.4" font-family="Ubuntu Mono" font-size="12.00">_pb3d_eq_2</text>
</a>
</g>
</g>
<!-- Node6&#45;&gt;Node23 -->
<g id="edge34" class="edge"><title>Node6&#45;&gt;Node23</title>
<path fill="none" stroke="midnightblue" d="M285.973,-331.322C308.058,-340.211 337.455,-351.516 364,-360 426.819,-380.077 499.64,-398.529 551.952,-410.963"/>
<polygon fill="midnightblue" stroke="midnightblue" points="287.263,-328.069 276.681,-327.551 284.631,-334.555 287.263,-328.069"/>
</g>
<!-- Node24 -->
<g id="node20" class="node"><title>Node24</title>
<g id="a_node20"><a xlink:href="namespacepb3d__ops.html#a8e87e553956f0dc4371d85b008e5e131" target="_top" xlink:title="Reconstructs the vectorial perturbation variables from PB3D HDF5 output. ">
<polygon fill="white" stroke="black" points="552,-357 552,-391 695,-391 695,-357 552,-357"/>
<text text-anchor="start" x="560" y="-377.4" font-family="Ubuntu Mono" font-size="12.00">pb3d_ops::reconstruct</text>
<text text-anchor="middle" x="623.5" y="-364.4" font-family="Ubuntu Mono" font-size="12.00">_pb3d_x_1</text>
</a>
</g>
</g>
<!-- Node6&#45;&gt;Node24 -->
<g id="edge39" class="edge"><title>Node6&#45;&gt;Node24</title>
<path fill="none" stroke="midnightblue" d="M329.871,-329.041C395.552,-339.132 488.494,-353.412 551.897,-363.153"/>
<polygon fill="midnightblue" stroke="midnightblue" points="330.395,-325.58 319.979,-327.521 329.332,-332.499 330.395,-325.58"/>
</g>
<!-- Node25 -->
<g id="node21" class="node"><title>Node25</title>
<g id="a_node21"><a xlink:href="namespacepb3d__ops.html#aff64b6722845a07139e2832c0be36145" target="_top" xlink:title="Reconstructs the tensorial perturbation variables from PB3D HDF5 output. ">
<polygon fill="white" stroke="black" points="364,-33 364,-67 507,-67 507,-33 364,-33"/>
<text text-anchor="start" x="372" y="-53.4" font-family="Ubuntu Mono" font-size="12.00">pb3d_ops::reconstruct</text>
<text text-anchor="middle" x="435.5" y="-40.4" font-family="Ubuntu Mono" font-size="12.00">_pb3d_x_2</text>
</a>
</g>
</g>
<!-- Node6&#45;&gt;Node25 -->
<g id="edge44" class="edge"><title>Node6&#45;&gt;Node25</title>
<path fill="none" stroke="midnightblue" d="M262.401,-297.66C281.637,-263.964 323.419,-192.676 364,-136 381.758,-111.198 404.451,-84.2521 419.223,-67.2559"/>
<polygon fill="midnightblue" stroke="midnightblue" points="259.282,-296.065 257.386,-306.489 265.368,-299.522 259.282,-296.065"/>
</g>
<!-- Node27 -->
<g id="node23" class="node"><title>Node27</title>
<g id="a_node23"><a xlink:href="namespacepb3d__ops.html#a281c496a42c4ea46606e929e10d51582" target="_top" xlink:title="Reconstructs the vacuum variables from PB3D HDF5 output. ">
<polygon fill="white" stroke="black" points="364,-199 364,-233 507,-233 507,-199 364,-199"/>
<text text-anchor="start" x="372" y="-219.4" font-family="Ubuntu Mono" font-size="12.00">pb3d_ops::reconstruct</text>
<text text-anchor="middle" x="435.5" y="-206.4" font-family="Ubuntu Mono" font-size="12.00">_pb3d_vac</text>
</a>
</g>
</g>
<!-- Node6&#45;&gt;Node27 -->
<g id="edge48" class="edge"><title>Node6&#45;&gt;Node27</title>
<path fill="none" stroke="midnightblue" d="M279.539,-301.525C312.962,-283.079 368.644,-252.347 403.372,-233.18"/>
<polygon fill="midnightblue" stroke="midnightblue" points="277.802,-298.486 270.738,-306.382 281.185,-304.614 277.802,-298.486"/>
</g>
<!-- Node30 -->
<g id="node26" class="node"><title>Node30</title>
<g id="a_node26"><a xlink:href="namespacepb3d__ops.html#ae7afc544227f34f2877eb5a14d620823" target="_top" xlink:title="Reconstructs the solution variables from PB3D HDF5 output. ">
<polygon fill="white" stroke="black" points="552,-251 552,-285 695,-285 695,-251 552,-251"/>
<text text-anchor="start" x="560" y="-271.4" font-family="Ubuntu Mono" font-size="12.00">pb3d_ops::reconstruct</text>
<text text-anchor="middle" x="623.5" y="-258.4" font-family="Ubuntu Mono" font-size="12.00">_pb3d_sol</text>
</a>
</g>
</g>
<!-- Node6&#45;&gt;Node30 -->
<g id="edge54" class="edge"><title>Node6&#45;&gt;Node30</title>
<path fill="none" stroke="midnightblue" d="M338.588,-305.498C403.505,-296.924 491.054,-285.361 551.692,-277.352"/>
<polygon fill="midnightblue" stroke="midnightblue" points="337.827,-302.068 328.371,-306.847 338.744,-309.008 337.827,-302.068"/>
</g>
<!-- Node31 -->
<g id="node27" class="node"><title>Node31</title>
<g id="a_node27"><a xlink:href="namespacepb3d__ops.html#a528ae2857b7272d29d96f66ee60980a7" target="_top" xlink:title="get grid size ">
<polygon fill="white" stroke="black" points="373,-422 373,-456 498,-456 498,-422 373,-422"/>
<text text-anchor="start" x="381" y="-442.4" font-family="Ubuntu Mono" font-size="12.00">pb3d_ops::get_pb3d</text>
<text text-anchor="middle" x="435.5" y="-429.4" font-family="Ubuntu Mono" font-size="12.00">_grid_size</text>
</a>
</g>
</g>
<!-- Node6&#45;&gt;Node31 -->
<g id="edge59" class="edge"><title>Node6&#45;&gt;Node31</title>
<path fill="none" stroke="midnightblue" d="M270.387,-334.562C291.896,-353.957 328.651,-385.307 364,-407 372.821,-412.413 382.714,-417.465 392.236,-421.884"/>
<polygon fill="midnightblue" stroke="midnightblue" points="272.673,-331.909 262.925,-327.758 267.957,-337.082 272.673,-331.909"/>
</g>
<!-- Node8 -->
<g id="node4" class="node"><title>Node8</title>
<g id="a_node4"><a xlink:href="namespacedriver__post.html#af527706d4e696d4e507443d2f74194ef" target="_top" xlink:title="Initializes the POST driver. ">
<polygon fill="white" stroke="black" points="752,-402.5 752,-423.5 901,-423.5 901,-402.5 752,-402.5"/>
<text text-anchor="middle" x="826.5" y="-409.9" font-family="Ubuntu Mono" font-size="12.00">driver_post::init_post</text>
</a>
</g>
</g>
<!-- Node7&#45;&gt;Node8 -->
<g id="edge3" class="edge"><title>Node7&#45;&gt;Node8</title>
<path fill="none" stroke="midnightblue" d="M517.15,-583.633C572.51,-590.379 646.143,-591.258 704,-563 735.769,-547.483 797.708,-455.644 818.502,-423.837"/>
<polygon fill="midnightblue" stroke="midnightblue" points="517.403,-580.136 507.034,-582.31 516.496,-587.077 517.403,-580.136"/>
</g>
<!-- Node9 -->
<g id="node5" class="node"><title>Node9</title>
<g id="a_node5"><a xlink:href="POST_8f90.html#ac289b64ac4671fea0b4f2298ba1188a1" target="_top" xlink:title="Peeling Ballooning in 3D: postprocessing. ">
<polygon fill="white" stroke="black" points="1170,-382.5 1170,-403.5 1211,-403.5 1211,-382.5 1170,-382.5"/>
<text text-anchor="middle" x="1190.5" y="-389.9" font-family="Ubuntu Mono" font-size="12.00">post</text>
</a>
</g>
</g>
<!-- Node7&#45;&gt;Node9 -->
<g id="edge14" class="edge"><title>Node7&#45;&gt;Node9</title>
<path fill="none" stroke="midnightblue" d="M460.031,-592.186C480.074,-610.931 510.693,-635.435 543,-646 611.011,-668.242 633.328,-657.208 704,-646 800.476,-630.7 825.133,-620.674 913,-578 1022.1,-525.012 1138.27,-434.469 1176.49,-403.64"/>
<polygon fill="midnightblue" stroke="midnightblue" points="462.264,-589.478 452.629,-585.071 457.413,-594.524 462.264,-589.478"/>
</g>
<!-- Node10 -->
<g id="node6" class="node"><title>Node10</title>
<g id="a_node6"><a xlink:href="namespacerich__ops.html#a9fbbda93eab8973d33063e277c489e7b" target="_top" xlink:title="Initialize Richardson extrapolation system. ">
<polygon fill="white" stroke="black" points="761,-230.5 761,-251.5 892,-251.5 892,-230.5 761,-230.5"/>
<text text-anchor="middle" x="826.5" y="-237.9" font-family="Ubuntu Mono" font-size="12.00">rich_ops::init_rich</text>
</a>
</g>
</g>
<!-- Node7&#45;&gt;Node10 -->
<g id="edge5" class="edge"><title>Node7&#45;&gt;Node10</title>
<path fill="none" stroke="midnightblue" d="M458.407,-542.902C474.463,-523.099 495.402,-494.056 507,-465 544.381,-371.352 466.252,-306.399 543,-241 574.544,-214.121 687.555,-222.73 760.725,-231.687"/>
<polygon fill="midnightblue" stroke="midnightblue" points="455.551,-540.863 451.867,-550.796 460.942,-545.328 455.551,-540.863"/>
</g>
<!-- Node12 -->
<g id="node8" class="node"><title>Node12</title>
<g id="a_node8"><a xlink:href="test_8f90.html#a197914f99b7e194fb4bca9ca3669e0e8" target="_top" xlink:title="plot_y">
<polygon fill="white" stroke="black" points="597,-615.5 597,-636.5 650,-636.5 650,-615.5 597,-615.5"/>
<text text-anchor="middle" x="623.5" y="-622.9" font-family="Ubuntu Mono" font-size="12.00">plot_y</text>
</a>
</g>
</g>
<!-- Node7&#45;&gt;Node12 -->
<g id="edge7" class="edge"><title>Node7&#45;&gt;Node12</title>
<path fill="none" stroke="midnightblue" d="M500.663,-588.008C533.72,-598.316 572.171,-610.306 596.896,-618.016"/>
<polygon fill="midnightblue" stroke="midnightblue" points="501.638,-584.646 491.049,-585.01 499.554,-591.328 501.638,-584.646"/>
</g>
<!-- Node15 -->
<g id="node11" class="node"><title>Node15</title>
<g id="a_node11"><a xlink:href="namespacetest.html#ac574f08ba400cd61070a6a6f13f6f7ee" target="_top" xlink:title="Tests reading of HDF5 subset. ">
<polygon fill="white" stroke="black" points="758,-311 758,-345 895,-345 895,-311 758,-311"/>
<text text-anchor="start" x="766" y="-331.4" font-family="Ubuntu Mono" font-size="12.00">test::test_read_hdf5</text>
<text text-anchor="middle" x="826.5" y="-318.4" font-family="Ubuntu Mono" font-size="12.00">_subset</text>
</a>
</g>
</g>
<!-- Node7&#45;&gt;Node15 -->
<g id="edge12" class="edge"><title>Node7&#45;&gt;Node15</title>
<path fill="none" stroke="midnightblue" d="M516.198,-548.009C573.521,-530.465 649.936,-500.246 704,-453 727.417,-432.536 719.248,-416.161 740,-393 756.922,-374.113 779.995,-356.949 797.907,-345.007"/>
<polygon fill="midnightblue" stroke="midnightblue" points="515.026,-544.706 506.449,-550.927 517.033,-551.412 515.026,-544.706"/>
</g>
<!-- Node8&#45;&gt;Node9 -->
<g id="edge4" class="edge"><title>Node8&#45;&gt;Node9</title>
<path fill="none" stroke="midnightblue" d="M911.342,-408.368C996.282,-403.675 1121.79,-396.741 1169.82,-394.087"/>
<polygon fill="midnightblue" stroke="midnightblue" points="910.984,-404.882 901.192,-408.929 911.37,-411.872 910.984,-404.882"/>
</g>
<!-- Node11 -->
<g id="node7" class="node"><title>Node11</title>
<g id="a_node7"><a xlink:href="PB3D_8f90.html#afaee01f014ab3398eecac996b2795fd2" target="_top" xlink:title="Peeling Ballooning in 3D. ">
<polygon fill="white" stroke="black" points="1170,-230.5 1170,-251.5 1211,-251.5 1211,-230.5 1170,-230.5"/>
<text text-anchor="middle" x="1190.5" y="-237.9" font-family="Ubuntu Mono" font-size="12.00">pb3d</text>
</a>
</g>
</g>
<!-- Node10&#45;&gt;Node11 -->
<g id="edge6" class="edge"><title>Node10&#45;&gt;Node11</title>
<path fill="none" stroke="midnightblue" d="M902.317,-241C987.159,-241 1120.15,-241 1169.87,-241"/>
<polygon fill="midnightblue" stroke="midnightblue" points="902.218,-237.5 892.218,-241 902.218,-244.5 902.218,-237.5"/>
</g>
<!-- Node13 -->
<g id="node9" class="node"><title>Node13</title>
<g id="a_node9"><a xlink:href="namespacetest.html#a53c6b3d654d4577af301fe3b04473d6a" target="_top" xlink:title="Test spline(). ">
<polygon fill="white" stroke="black" points="764,-547.5 764,-568.5 889,-568.5 889,-547.5 764,-547.5"/>
<text text-anchor="middle" x="826.5" y="-554.9" font-family="Ubuntu Mono" font-size="12.00">test::test_splines</text>
</a>
</g>
</g>
<!-- Node12&#45;&gt;Node13 -->
<g id="edge8" class="edge"><title>Node12&#45;&gt;Node13</title>
<path fill="none" stroke="midnightblue" d="M659.963,-615.143C673.746,-610.847 689.645,-605.796 704,-601 735.834,-590.365 772.076,-577.43 796.632,-568.542"/>
<polygon fill="midnightblue" stroke="midnightblue" points="658.868,-611.819 650.353,-618.124 660.941,-618.504 658.868,-611.819"/>
</g>
<!-- Node14 -->
<g id="node10" class="node"><title>Node14</title>
<g id="a_node10"><a xlink:href="namespacetest.html#aca21ee464c0b1f4b617177afdde110ec" target="_top" xlink:title="Performs generic tests. ">
<polygon fill="white" stroke="black" points="976,-363.5 976,-384.5 1107,-384.5 1107,-363.5 976,-363.5"/>
<text text-anchor="middle" x="1041.5" y="-370.9" font-family="Ubuntu Mono" font-size="12.00">test::generic_tests</text>
</a>
</g>
</g>
<!-- Node13&#45;&gt;Node14 -->
<g id="edge9" class="edge"><title>Node13&#45;&gt;Node14</title>
<path fill="none" stroke="midnightblue" d="M847.505,-540.719C890.912,-503.221 992.684,-415.306 1028.09,-384.717"/>
<polygon fill="midnightblue" stroke="midnightblue" points="845.152,-538.126 839.872,-547.312 849.728,-543.424 845.152,-538.126"/>
</g>
<!-- Node14&#45;&gt;Node9 -->
<g id="edge11" class="edge"><title>Node14&#45;&gt;Node9</title>
<path fill="none" stroke="midnightblue" d="M1117.52,-383.696C1136.89,-386.2 1156.12,-388.685 1169.82,-390.457"/>
<polygon fill="midnightblue" stroke="midnightblue" points="1117.77,-380.2 1107.4,-382.389 1116.87,-387.142 1117.77,-380.2"/>
</g>
<!-- Node14&#45;&gt;Node11 -->
<g id="edge10" class="edge"><title>Node14&#45;&gt;Node11</title>
<path fill="none" stroke="midnightblue" d="M1117.05,-363.887C1123.12,-361.264 1128.88,-358.015 1134,-354 1168.06,-327.306 1182.63,-274.307 1187.49,-251.662"/>
<polygon fill="midnightblue" stroke="midnightblue" points="1115.45,-360.747 1107.3,-367.515 1117.89,-367.307 1115.45,-360.747"/>
</g>
<!-- Node15&#45;&gt;Node14 -->
<g id="edge13" class="edge"><title>Node15&#45;&gt;Node14</title>
<path fill="none" stroke="midnightblue" d="M905.25,-344.791C934.103,-351.022 965.999,-357.91 991.566,-363.432"/>
<polygon fill="midnightblue" stroke="midnightblue" points="905.701,-341.308 895.187,-342.618 904.223,-348.15 905.701,-341.308"/>
</g>
<!-- Node16&#45;&gt;Node8 -->
<g id="edge18" class="edge"><title>Node16&#45;&gt;Node8</title>
<path fill="none" stroke="midnightblue" d="M700.358,-159.218C701.633,-160.416 702.85,-161.676 704,-163 760.625,-228.236 692.91,-281.58 740,-354 754.55,-376.377 780.853,-392.6 800.457,-402.306"/>
<polygon fill="midnightblue" stroke="midnightblue" points="702.494,-156.446 692.471,-153.01 698.164,-161.946 702.494,-156.446"/>
</g>
<!-- Node16&#45;&gt;Node10 -->
<g id="edge27" class="edge"><title>Node16&#45;&gt;Node10</title>
<path fill="none" stroke="midnightblue" d="M697.393,-158.317C699.685,-159.783 701.896,-161.342 704,-163 727.533,-181.546 715.687,-202.489 740,-220 746.326,-224.556 753.524,-228.13 760.997,-230.932"/>
<polygon fill="midnightblue" stroke="midnightblue" points="698.629,-154.995 688.203,-153.114 695.18,-161.087 698.629,-154.995"/>
</g>
<!-- Node16&#45;&gt;Node15 -->
<g id="edge28" class="edge"><title>Node16&#45;&gt;Node15</title>
<path fill="none" stroke="midnightblue" d="M700.123,-159.228C701.476,-160.423 702.771,-161.679 704,-163 747.173,-209.409 696.33,-255.058 740,-301 745.041,-306.303 751.112,-310.568 757.666,-313.999"/>
<polygon fill="midnightblue" stroke="midnightblue" points="701.918,-156.202 691.807,-153.036 697.737,-161.816 701.918,-156.202"/>
</g>
<!-- Node17 -->
<g id="node13" class="node"><title>Node17</title>
<g id="a_node13"><a xlink:href="namespacedriver__eq.html#adc9d5dff288fa512e5ef885627d940cc" target="_top" xlink:title="Main driver of PB3D equilibrium part. ">
<polygon fill="white" stroke="black" points="746,-270.5 746,-291.5 907,-291.5 907,-270.5 746,-270.5"/>
<text text-anchor="middle" x="826.5" y="-277.9" font-family="Ubuntu Mono" font-size="12.00">driver_eq::run_driver_eq</text>
</a>
</g>
</g>
<!-- Node16&#45;&gt;Node17 -->
<g id="edge16" class="edge"><title>Node16&#45;&gt;Node17</title>
<path fill="none" stroke="midnightblue" d="M699.44,-158.98C701.028,-160.249 702.552,-161.588 704,-163 737.213,-195.404 705.246,-230.255 740,-261 744.225,-264.737 749.014,-267.812 754.117,-270.338"/>
<polygon fill="midnightblue" stroke="midnightblue" points="701.248,-155.976 691.023,-153.202 697.286,-161.747 701.248,-155.976"/>
</g>
<!-- Node18 -->
<g id="node14" class="node"><title>Node18</title>
<g id="a_node14"><a xlink:href="namespacedriver__post.html#a33b3c6f9018a0ddc92dce77394b8ab37" target="_top" xlink:title="The main driver routine for postprocessing. ">
<polygon fill="white" stroke="black" points="949,-323.5 949,-344.5 1134,-344.5 1134,-323.5 949,-323.5"/>
<text text-anchor="middle" x="1041.5" y="-330.9" font-family="Ubuntu Mono" font-size="12.00">driver_post::run_driver_post</text>
</a>
</g>
</g>
<!-- Node16&#45;&gt;Node18 -->
<g id="edge19" class="edge"><title>Node16&#45;&gt;Node18</title>
<path fill="none" stroke="midnightblue" d="M705.286,-137.623C778.006,-140.344 878.572,-147.612 913,-167 946.85,-186.062 1012.64,-289.014 1033.78,-323.061"/>
<polygon fill="midnightblue" stroke="midnightblue" points="705.336,-134.123 695.219,-137.269 705.09,-141.119 705.336,-134.123"/>
</g>
<!-- Node19 -->
<g id="node15" class="node"><title>Node19</title>
<g id="a_node15"><a xlink:href="namespacedriver__post.html#a3438685c5fb7302f756c368fb5f940ee" target="_top" xlink:title="Sets up the output grids for a particular parallel job. ">
<polygon fill="white" stroke="black" points="764,-177 764,-211 889,-211 889,-177 764,-177"/>
<text text-anchor="start" x="772" y="-197.4" font-family="Ubuntu Mono" font-size="12.00">driver_post::setup</text>
<text text-anchor="middle" x="826.5" y="-184.4" font-family="Ubuntu Mono" font-size="12.00">_out_grids</text>
</a>
</g>
</g>
<!-- Node16&#45;&gt;Node19 -->
<g id="edge21" class="edge"><title>Node16&#45;&gt;Node19</title>
<path fill="none" stroke="midnightblue" d="M693.144,-155.808C717.007,-162.694 743.543,-170.351 766.553,-176.99"/>
<polygon fill="midnightblue" stroke="midnightblue" points="694.027,-152.42 683.449,-153.01 692.086,-159.145 694.027,-152.42"/>
</g>
<!-- Node20 -->
<g id="node16" class="node"><title>Node20</title>
<g id="a_node16"><a xlink:href="namespacedriver__sol.html#ad3b1765b3ecc5f82129bfc683ffc6c5c" target="_top" xlink:title="Main driver of PB3D solution part. ">
<polygon fill="white" stroke="black" points="740,-98.5 740,-119.5 913,-119.5 913,-98.5 740,-98.5"/>
<text text-anchor="middle" x="826.5" y="-105.9" font-family="Ubuntu Mono" font-size="12.00">driver_sol::run_driver_sol</text>
</a>
</g>
</g>
<!-- Node16&#45;&gt;Node20 -->
<g id="edge23" class="edge"><title>Node16&#45;&gt;Node20</title>
<path fill="none" stroke="midnightblue" d="M705.084,-125.175C718.968,-123.31 733.382,-121.374 747.205,-119.517"/>
<polygon fill="midnightblue" stroke="midnightblue" points="704.527,-121.719 695.082,-126.519 705.459,-128.656 704.527,-121.719"/>
</g>
<!-- Node21 -->
<g id="node17" class="node"><title>Node21</title>
<g id="a_node17"><a xlink:href="namespacedriver__x.html#ada3d72a0929daaa5e3da585246d62281" target="_top" xlink:title="Main driver of PB3D perturbation part. ">
<polygon fill="white" stroke="black" points="752,-58.5 752,-79.5 901,-79.5 901,-58.5 752,-58.5"/>
<text text-anchor="middle" x="826.5" y="-65.9" font-family="Ubuntu Mono" font-size="12.00">driver_x::run_driver_x</text>
</a>
</g>
</g>
<!-- Node16&#45;&gt;Node21 -->
<g id="edge25" class="edge"><title>Node16&#45;&gt;Node21</title>
<path fill="none" stroke="midnightblue" d="M688.461,-115.409C693.764,-113.361 699.003,-111.215 704,-109 720.733,-101.583 722.925,-95.5922 740,-89 749.528,-85.3214 759.926,-82.1983 770.084,-79.5921"/>
<polygon fill="midnightblue" stroke="midnightblue" points="687.028,-112.208 678.885,-118.987 689.478,-118.766 687.028,-112.208"/>
</g>
<!-- Node17&#45;&gt;Node11 -->
<g id="edge17" class="edge"><title>Node17&#45;&gt;Node11</title>
<path fill="none" stroke="midnightblue" d="M917.047,-277.244C978.423,-273.733 1061.53,-267.131 1134,-255 1146.06,-252.982 1159.34,-249.671 1169.89,-246.776"/>
<polygon fill="midnightblue" stroke="midnightblue" points="916.794,-273.753 907.004,-277.803 917.183,-280.742 916.794,-273.753"/>
</g>
<!-- Node18&#45;&gt;Node9 -->
<g id="edge20" class="edge"><title>Node18&#45;&gt;Node9</title>
<path fill="none" stroke="midnightblue" d="M1116.21,-347.393C1122.33,-349.32 1128.33,-351.511 1134,-354 1150.39,-361.199 1166.88,-373.598 1177.58,-382.484"/>
<polygon fill="midnightblue" stroke="midnightblue" points="1117.12,-344.013 1106.54,-344.579 1115.17,-350.734 1117.12,-344.013"/>
</g>
<!-- Node19&#45;&gt;Node18 -->
<g id="edge22" class="edge"><title>Node19&#45;&gt;Node18</title>
<path fill="none" stroke="midnightblue" d="M898.702,-213.905C903.645,-216.067 908.461,-218.428 913,-221 963.695,-249.726 1011.87,-301.157 1031.38,-323.338"/>
<polygon fill="midnightblue" stroke="midnightblue" points="899.662,-210.517 889.08,-209.991 897.025,-217.001 899.662,-210.517"/>
</g>
<!-- Node20&#45;&gt;Node11 -->
<g id="edge24" class="edge"><title>Node20&#45;&gt;Node11</title>
<path fill="none" stroke="midnightblue" d="M875.63,-122.297C887.881,-125.894 900.981,-129.925 913,-134 1010.74,-167.134 1124.99,-214.001 1169.93,-232.765"/>
<polygon fill="midnightblue" stroke="midnightblue" points="876.602,-118.935 866.023,-119.513 874.653,-125.658 876.602,-118.935"/>
</g>
<!-- Node21&#45;&gt;Node11 -->
<g id="edge26" class="edge"><title>Node21&#45;&gt;Node11</title>
<path fill="none" stroke="midnightblue" d="M911.042,-71.7105C977.409,-77.7469 1069.48,-95.2038 1134,-144 1163.87,-166.587 1180.24,-210.249 1186.5,-230.372"/>
<polygon fill="midnightblue" stroke="midnightblue" points="911.29,-68.219 901.032,-70.8684 910.703,-75.1944 911.29,-68.219"/>
</g>
<!-- Node22&#45;&gt;Node8 -->
<g id="edge31" class="edge"><title>Node22&#45;&gt;Node8</title>
<path fill="none" stroke="midnightblue" d="M690.505,-341.554C695.107,-343.303 699.645,-345.123 704,-347 742.58,-363.624 785.191,-388.361 808.293,-402.352"/>
<polygon fill="midnightblue" stroke="midnightblue" points="691.597,-338.226 681.003,-338.07 689.187,-344.799 691.597,-338.226"/>
</g>
<!-- Node22&#45;&gt;Node10 -->
<g id="edge32" class="edge"><title>Node22&#45;&gt;Node10</title>
<path fill="none" stroke="midnightblue" d="M693.265,-299.719C696.967,-297.936 700.571,-296.031 704,-294 722.676,-282.94 720.807,-271.136 740,-261 747.279,-257.156 755.292,-254.044 763.405,-251.525"/>
<polygon fill="midnightblue" stroke="midnightblue" points="691.607,-296.626 683.905,-303.902 694.463,-303.017 691.607,-296.626"/>
</g>
<!-- Node22&#45;&gt;Node15 -->
<g id="edge33" class="edge"><title>Node22&#45;&gt;Node15</title>
<path fill="none" stroke="midnightblue" d="M705.233,-323.812C722.663,-324.419 740.919,-325.054 757.79,-325.642"/>
<polygon fill="midnightblue" stroke="midnightblue" points="705.198,-320.308 695.082,-323.458 704.955,-327.304 705.198,-320.308"/>
</g>
<!-- Node22&#45;&gt;Node17 -->
<g id="edge30" class="edge"><title>Node22&#45;&gt;Node17</title>
<path fill="none" stroke="midnightblue" d="M705.05,-304.97C727.746,-300.454 751.856,-295.655 772.496,-291.548"/>
<polygon fill="midnightblue" stroke="midnightblue" points="704.207,-301.569 695.082,-306.954 705.573,-308.435 704.207,-301.569"/>
</g>
<!-- Node23&#45;&gt;Node8 -->
<g id="edge36" class="edge"><title>Node23&#45;&gt;Node8</title>
<path fill="none" stroke="midnightblue" d="M705.086,-421.387C720.476,-420.315 736.515,-419.198 751.679,-418.142"/>
<polygon fill="midnightblue" stroke="midnightblue" points="704.815,-417.897 695.082,-422.084 705.302,-424.88 704.815,-417.897"/>
</g>
<!-- Node23&#45;&gt;Node15 -->
<g id="edge38" class="edge"><title>Node23&#45;&gt;Node15</title>
<path fill="none" stroke="midnightblue" d="M689.441,-406.201C694.416,-404.226 699.32,-402.153 704,-400 738.749,-384.014 776.265,-360.774 800.273,-345.058"/>
<polygon fill="midnightblue" stroke="midnightblue" points="687.918,-403.036 679.823,-409.871 690.414,-409.576 687.918,-403.036"/>
</g>
<!-- Node23&#45;&gt;Node17 -->
<g id="edge35" class="edge"><title>Node23&#45;&gt;Node17</title>
<path fill="none" stroke="midnightblue" d="M699.446,-404.026C701.033,-402.755 702.555,-401.415 704,-400 737.458,-367.25 704.984,-332.079 740,-301 744.218,-297.256 749.004,-294.176 754.103,-291.647"/>
<polygon fill="midnightblue" stroke="midnightblue" points="697.291,-401.26 691.036,-409.812 701.259,-407.027 697.291,-401.26"/>
</g>
<!-- Node23&#45;&gt;Node18 -->
<g id="edge37" class="edge"><title>Node23&#45;&gt;Node18</title>
<path fill="none" stroke="midnightblue" d="M685.201,-446.639C747.534,-462.868 844.81,-476.862 913,-433 945.451,-412.126 918.978,-378.238 949,-354 953.681,-350.221 958.921,-347.116 964.459,-344.57"/>
<polygon fill="midnightblue" stroke="midnightblue" points="686.074,-443.25 675.507,-444.024 684.25,-450.008 686.074,-443.25"/>
</g>
<!-- Node24&#45;&gt;Node8 -->
<g id="edge40" class="edge"><title>Node24&#45;&gt;Node8</title>
<path fill="none" stroke="midnightblue" d="M705.17,-389.652C727.368,-393.959 750.91,-398.527 771.228,-402.47"/>
<polygon fill="midnightblue" stroke="midnightblue" points="705.566,-386.164 695.082,-387.695 704.233,-393.036 705.566,-386.164"/>
</g>
<!-- Node24&#45;&gt;Node15 -->
<g id="edge43" class="edge"><title>Node24&#45;&gt;Node15</title>
<path fill="none" stroke="midnightblue" d="M705.233,-355.524C722.663,-351.535 740.919,-347.357 757.79,-343.496"/>
<polygon fill="midnightblue" stroke="midnightblue" points="704.05,-352.204 695.082,-357.847 705.611,-359.028 704.05,-352.204"/>
</g>
<!-- Node24&#45;&gt;Node18 -->
<g id="edge41" class="edge"><title>Node24&#45;&gt;Node18</title>
<path fill="none" stroke="midnightblue" d="M705.391,-370.265C763.318,-367.133 843.109,-361.889 913,-354 935.042,-351.512 959.104,-347.957 980.327,-344.533"/>
<polygon fill="midnightblue" stroke="midnightblue" points="705.001,-366.78 695.2,-370.806 705.372,-373.77 705.001,-366.78"/>
</g>
<!-- Node24&#45;&gt;Node21 -->
<g id="edge42" class="edge"><title>Node24&#45;&gt;Node21</title>
<path fill="none" stroke="midnightblue" d="M700.88,-350.425C701.971,-349.334 703.013,-348.193 704,-347 777.788,-257.782 661.948,-174.512 740,-89 743.391,-85.2844 747.329,-82.1944 751.616,-79.6305"/>
<polygon fill="midnightblue" stroke="midnightblue" points="698.509,-347.844 693.04,-356.918 702.974,-353.235 698.509,-347.844"/>
</g>
<!-- Node25&#45;&gt;Node21 -->
<g id="edge45" class="edge"><title>Node25&#45;&gt;Node21</title>
<path fill="none" stroke="midnightblue" d="M517.787,-53.9703C586.811,-57.3417 685.015,-62.1383 751.785,-65.3995"/>
<polygon fill="midnightblue" stroke="midnightblue" points="517.555,-50.4549 507.396,-53.4628 517.214,-57.4466 517.555,-50.4549"/>
</g>
<!-- Node26 -->
<g id="node22" class="node"><title>Node26</title>
<g id="a_node22"><a xlink:href="namespacedriver__x.html#ad3924b3d66f336f0a9a9559eafffec8e" target="_top" xlink:title="Part 2 of driver_X: Tensorial jobs. ">
<polygon fill="white" stroke="black" points="543,-0.5 543,-21.5 704,-21.5 704,-0.5 543,-0.5"/>
<text text-anchor="middle" x="623.5" y="-7.9" font-family="Ubuntu Mono" font-size="12.00">driver_x::run_driver_x_2</text>
</a>
</g>
</g>
<!-- Node25&#45;&gt;Node26 -->
<g id="edge46" class="edge"><title>Node25&#45;&gt;Node26</title>
<path fill="none" stroke="midnightblue" d="M517.097,-33.1007C535.824,-29.1741 555.234,-25.1042 572.216,-21.5434"/>
<polygon fill="midnightblue" stroke="midnightblue" points="516.153,-29.7224 507.084,-35.2002 517.589,-36.5734 516.153,-29.7224"/>
</g>
<!-- Node26&#45;&gt;Node21 -->
<g id="edge47" class="edge"><title>Node26&#45;&gt;Node21</title>
<path fill="none" stroke="midnightblue" d="M670.662,-24.3205C706.608,-34.693 755.816,-48.8922 789.032,-58.4769"/>
<polygon fill="midnightblue" stroke="midnightblue" points="671.478,-20.9131 660.9,-21.5034 669.537,-27.6387 671.478,-20.9131"/>
</g>
<!-- Node27&#45;&gt;Node8 -->
<g id="edge49" class="edge"><title>Node27&#45;&gt;Node8</title>
<path fill="none" stroke="midnightblue" d="M444.605,-243.105C462.229,-300.018 505.473,-428.722 543,-453 628.466,-508.293 758.757,-449.04 806.835,-423.511"/>
<polygon fill="midnightblue" stroke="midnightblue" points="447.894,-241.892 441.619,-233.355 441.2,-243.941 447.894,-241.892"/>
</g>
<!-- Node28 -->
<g id="node24" class="node"><title>Node28</title>
<g id="a_node24"><a xlink:href="namespacevac__ops.html#a37220702fbf378626a0f2c12f446e0aa" target="_top" xlink:title="Stores calculation of the vacuum response by storing the necessary variables. ">
<polygon fill="white" stroke="black" points="561,-172.5 561,-193.5 686,-193.5 686,-172.5 561,-172.5"/>
<text text-anchor="middle" x="623.5" y="-179.9" font-family="Ubuntu Mono" font-size="12.00">vac_ops::store_vac</text>
</a>
</g>
</g>
<!-- Node27&#45;&gt;Node28 -->
<g id="edge50" class="edge"><title>Node27&#45;&gt;Node28</title>
<path fill="none" stroke="midnightblue" d="M517.159,-201.69C532.621,-198.946 548.545,-196.121 563.183,-193.524"/>
<polygon fill="midnightblue" stroke="midnightblue" points="516.319,-198.284 507.084,-203.477 517.542,-205.176 516.319,-198.284"/>
</g>
<!-- Node29 -->
<g id="node25" class="node"><title>Node29</title>
<g id="a_node25"><a xlink:href="namespacevac__ops.html#a5e5a8322b3aa2e3704b1050426f06d9d" target="_top" xlink:title="Calculates the vacuum response. ">
<polygon fill="white" stroke="black" points="552,-78.5 552,-99.5 695,-99.5 695,-78.5 552,-78.5"/>
<text text-anchor="middle" x="623.5" y="-85.9" font-family="Ubuntu Mono" font-size="12.00">vac_ops::calc_vac_res</text>
</a>
</g>
</g>
<!-- Node27&#45;&gt;Node29 -->
<g id="edge52" class="edge"><title>Node27&#45;&gt;Node29</title>
<path fill="none" stroke="midnightblue" d="M455.099,-190.534C474.373,-165.992 506.724,-129.631 543,-109 549.681,-105.201 557.08,-102.114 564.598,-99.6091"/>
<polygon fill="midnightblue" stroke="midnightblue" points="452.159,-188.615 448.841,-198.676 457.71,-192.88 452.159,-188.615"/>
</g>
<!-- Node28&#45;&gt;Node17 -->
<g id="edge51" class="edge"><title>Node28&#45;&gt;Node17</title>
<path fill="none" stroke="midnightblue" d="M647.318,-199.869C675.163,-220.192 720.893,-252.653 740,-261 748.661,-264.784 758.142,-267.908 767.538,-270.47"/>
<polygon fill="midnightblue" stroke="midnightblue" points="649.096,-196.833 638.962,-193.743 644.957,-202.478 649.096,-196.833"/>
</g>
<!-- Node29&#45;&gt;Node20 -->
<g id="edge53" class="edge"><title>Node29&#45;&gt;Node20</title>
<path fill="none" stroke="midnightblue" d="M705.048,-97.0147C716.512,-98.1555 728.337,-99.3321 739.894,-100.482"/>
<polygon fill="midnightblue" stroke="midnightblue" points="705.38,-93.5306 695.082,-96.0231 704.687,-100.496 705.38,-93.5306"/>
</g>
<!-- Node30&#45;&gt;Node8 -->
<g id="edge55" class="edge"><title>Node30&#45;&gt;Node8</title>
<path fill="none" stroke="midnightblue" d="M699.097,-290.408C700.787,-291.547 702.425,-292.744 704,-294 728.313,-313.39 718.72,-331.322 740,-354 759.251,-374.517 786.79,-391.937 805.366,-402.417"/>
<polygon fill="midnightblue" stroke="midnightblue" points="700.661,-287.266 690.276,-285.173 697.089,-293.286 700.661,-287.266"/>
</g>
<!-- Node30&#45;&gt;Node10 -->
<g id="edge57" class="edge"><title>Node30&#45;&gt;Node10</title>
<path fill="none" stroke="midnightblue" d="M705.233,-257.155C723.705,-254.674 743.105,-252.068 760.802,-249.691"/>
<polygon fill="midnightblue" stroke="midnightblue" points="704.527,-253.719 695.082,-258.519 705.459,-260.656 704.527,-253.719"/>
</g>
<!-- Node30&#45;&gt;Node15 -->
<g id="edge58" class="edge"><title>Node30&#45;&gt;Node15</title>
<path fill="none" stroke="midnightblue" d="M691.308,-287.943C716.242,-295.386 744.304,-303.762 768.296,-310.924"/>
<polygon fill="midnightblue" stroke="midnightblue" points="692.144,-284.54 681.561,-285.033 690.142,-291.247 692.144,-284.54"/>
</g>
<!-- Node30&#45;&gt;Node20 -->
<g id="edge56" class="edge"><title>Node30&#45;&gt;Node20</title>
<path fill="none" stroke="midnightblue" d="M654.61,-244.553C669.733,-232.484 688.16,-217.33 704,-203 720.78,-187.82 722.559,-181.416 740,-167 762.121,-148.716 789.989,-130.631 807.779,-119.638"/>
<polygon fill="midnightblue" stroke="midnightblue" points="652.247,-241.959 646.586,-250.915 656.596,-247.444 652.247,-241.959"/>
</g>
<!-- Node31&#45;&gt;Node8 -->
<g id="edge60" class="edge"><title>Node31&#45;&gt;Node8</title>
<path fill="none" stroke="midnightblue" d="M474.592,-460.918C494.32,-471.02 519.207,-481.886 543,-487 612.958,-502.037 635.105,-506.329 704,-487 748.469,-474.524 792.802,-440.789 813.47,-423.511"/>
<polygon fill="midnightblue" stroke="midnightblue" points="476.111,-457.762 465.632,-456.202 472.851,-463.957 476.111,-457.762"/>
</g>
<!-- Node31&#45;&gt;Node16 -->
<g id="edge61" class="edge"><title>Node31&#45;&gt;Node16</title>
<path fill="none" stroke="midnightblue" d="M446.204,-412.037C470.647,-344.376 533.485,-172.134 543,-163 546.996,-159.164 551.557,-155.872 556.428,-153.047"/>
<polygon fill="midnightblue" stroke="midnightblue" points="442.857,-411 442.755,-421.594 449.441,-413.376 442.857,-411"/>
</g>
</g>
</svg>
