<?xml version="1.0" encoding="UTF-8" standalone="no"?>
<!DOCTYPE svg PUBLIC "-//W3C//DTD SVG 1.1//EN"
 "http://www.w3.org/Graphics/SVG/1.1/DTD/svg11.dtd">
<!-- Generated by graphviz version 2.38.0 (20140413.2041)
 -->
<!-- Title: pb3d_ops::reconstruct_pb3d_x_2 Pages: 1 -->
<svg width="1118pt" height="464pt"
 viewBox="0.00 0.00 1118.00 463.50" xmlns="http://www.w3.org/2000/svg" xmlns:xlink="http://www.w3.org/1999/xlink">
<g id="graph0" class="graph" transform="scale(1 1) rotate(0) translate(4 459.5)">
<title>pb3d_ops::reconstruct_pb3d_x_2</title>
<polygon fill="white" stroke="none" points="-4,4 -4,-459.5 1114,-459.5 1114,4 -4,4"/>
<!-- Node215 -->
<g id="node1" class="node"><title>Node215</title>
<polygon fill="#bfbfbf" stroke="black" points="0,-99 0,-133 143,-133 143,-99 0,-99"/>
<text text-anchor="start" x="8" y="-119.4" font-family="Ubuntu Mono" font-size="12.00">pb3d_ops::reconstruct</text>
<text text-anchor="middle" x="71.5" y="-106.4" font-family="Ubuntu Mono" font-size="12.00">_pb3d_x_2</text>
</g>
<!-- Node216 -->
<g id="node2" class="node"><title>Node216</title>
<g id="a_node2"><a xlink:href="namespacehdf5__ops.html#a5108e0d6f6b492cb981505ebceedd9ee" target="_top" xlink:title="Reads a PB3D output file in HDF5 format. ">
<polygon fill="white" stroke="black" points="179,-171.5 179,-192.5 334,-192.5 334,-171.5 179,-171.5"/>
<text text-anchor="middle" x="256.5" y="-178.9" font-family="Ubuntu Mono" font-size="12.00">hdf5_ops::read_hdf5_arr</text>
</a>
</g>
</g>
<!-- Node215&#45;&gt;Node216 -->
<g id="edge1" class="edge"><title>Node215&#45;&gt;Node216</title>
<path fill="none" stroke="midnightblue" d="M120.103,-133.168C150.134,-143.999 188.432,-157.811 216.628,-167.98"/>
<polygon fill="midnightblue" stroke="midnightblue" points="215.555,-171.314 226.149,-171.415 217.93,-164.729 215.555,-171.314"/>
</g>
<!-- Node232 -->
<g id="node18" class="node"><title>Node232</title>
<g id="a_node18"><a xlink:href="namespacex__utilities.html#a6072ddd1fd230758795ff320c75a1f6a" target="_top" xlink:title="Gets one of the the local ranges of contiguous tensorial perturbation variables to be printed or read...">
<polygon fill="white" stroke="black" points="188,-34 188,-68 325,-68 325,-34 188,-34"/>
<text text-anchor="start" x="196" y="-54.4" font-family="Ubuntu Mono" font-size="12.00">x_utilities::get_sec</text>
<text text-anchor="middle" x="256.5" y="-41.4" font-family="Ubuntu Mono" font-size="12.00">_x_range</text>
</a>
</g>
</g>
<!-- Node215&#45;&gt;Node232 -->
<g id="edge27" class="edge"><title>Node215&#45;&gt;Node232</title>
<path fill="none" stroke="midnightblue" d="M120.581,-98.922C144.234,-90.5209 172.925,-80.3299 197.758,-71.5094"/>
<polygon fill="midnightblue" stroke="midnightblue" points="199.171,-74.7219 207.423,-68.0767 196.828,-68.1256 199.171,-74.7219"/>
</g>
<!-- Node217 -->
<g id="node3" class="node"><title>Node217</title>
<g id="a_node3"><a xlink:href="namespacehdf5__utilities.html#a7574320980affc30a584f7776d33a51c" target="_top" xlink:title="Sets up the chunk property list and/or the 1D hyperslabs that correspond to a local subset of lim_tot...">
<polygon fill="white" stroke="black" points="394,-211 394,-245 525,-245 525,-211 394,-211"/>
<text text-anchor="start" x="402" y="-231.4" font-family="Ubuntu Mono" font-size="12.00">hdf5_utilities::set</text>
<text text-anchor="middle" x="459.5" y="-218.4" font-family="Ubuntu Mono" font-size="12.00">_1d_vars</text>
</a>
</g>
</g>
<!-- Node216&#45;&gt;Node217 -->
<g id="edge2" class="edge"><title>Node216&#45;&gt;Node217</title>
<path fill="none" stroke="midnightblue" d="M303.613,-192.553C327.459,-198.01 357.149,-204.805 384.137,-210.982"/>
<polygon fill="midnightblue" stroke="midnightblue" points="383.413,-214.406 393.942,-213.226 384.975,-207.583 383.413,-214.406"/>
</g>
<!-- Node218 -->
<g id="node4" class="node"><title>Node218</title>
<g id="a_node4"><a xlink:href="namespacempi__utilities.html#a5a789d05be41d6109c01f46cc98620c8" target="_top" xlink:title="Request access to lock of a BL (blocking) or optionally a NB (non&#45;blocking) type. ...">
<polygon fill="white" stroke="black" points="394,-323 394,-357 525,-357 525,-323 394,-323"/>
<text text-anchor="start" x="402" y="-343.4" font-family="Ubuntu Mono" font-size="12.00">mpi_utilities::lock</text>
<text text-anchor="middle" x="459.5" y="-330.4" font-family="Ubuntu Mono" font-size="12.00">_req_acc</text>
</a>
</g>
</g>
<!-- Node216&#45;&gt;Node218 -->
<g id="edge3" class="edge"><title>Node216&#45;&gt;Node218</title>
<path fill="none" stroke="midnightblue" d="M264.364,-192.612C280.214,-216.335 321.723,-274.152 370,-307 376.482,-311.41 383.63,-315.325 390.969,-318.774"/>
<polygon fill="midnightblue" stroke="midnightblue" points="389.769,-322.07 400.331,-322.897 392.59,-315.663 389.769,-322.07"/>
</g>
<!-- Node221 -->
<g id="node7" class="node"><title>Node221</title>
<g id="a_node7"><a xlink:href="namespacestr__utilities.html#a0b97e51770725a3e98ed393d26681414" target="_top" xlink:title="Convert an integer to string. ">
<polygon fill="white" stroke="black" points="970,-117.5 970,-138.5 1107,-138.5 1107,-117.5 970,-117.5"/>
<text text-anchor="middle" x="1038.5" y="-124.9" font-family="Ubuntu Mono" font-size="12.00">str_utilities::i2str</text>
</a>
</g>
</g>
<!-- Node216&#45;&gt;Node221 -->
<g id="edge25" class="edge"><title>Node216&#45;&gt;Node221</title>
<path fill="none" stroke="midnightblue" d="M268.82,-171.368C287.903,-154.258 328.475,-121.292 370,-109 589.592,-43.9976 867.736,-90.6241 983.322,-115.31"/>
<polygon fill="midnightblue" stroke="midnightblue" points="982.823,-118.783 993.337,-117.482 984.306,-111.942 982.823,-118.783"/>
</g>
<!-- Node227 -->
<g id="node13" class="node"><title>Node227</title>
<g id="a_node13"><a xlink:href="namespacempi__utilities.html#a86f9982a0f92b51a916f832d9a3d8ba9" target="_top" xlink:title="Returns access to a lock. ">
<polygon fill="white" stroke="black" points="394,-264 394,-298 525,-298 525,-264 394,-264"/>
<text text-anchor="start" x="402" y="-284.4" font-family="Ubuntu Mono" font-size="12.00">mpi_utilities::lock</text>
<text text-anchor="middle" x="459.5" y="-271.4" font-family="Ubuntu Mono" font-size="12.00">_return_acc</text>
</a>
</g>
</g>
<!-- Node216&#45;&gt;Node227 -->
<g id="edge15" class="edge"><title>Node216&#45;&gt;Node227</title>
<path fill="none" stroke="midnightblue" d="M271.339,-192.641C291.883,-208.012 332.107,-236.497 370,-254 374.922,-256.273 380.084,-258.417 385.338,-260.425"/>
<polygon fill="midnightblue" stroke="midnightblue" points="384.267,-263.76 394.861,-263.892 386.662,-257.182 384.267,-263.76"/>
</g>
<!-- Node228 -->
<g id="node14" class="node"><title>Node228</title>
<g id="a_node14"><a xlink:href="namespacehdf5__utilities.html#aa9d76166f970a7052cd0d96c8f3ee0be" target="_top" xlink:title="Lists all variables in a HDF5 group. ">
<polygon fill="white" stroke="black" points="391,-119 391,-153 528,-153 528,-119 391,-119"/>
<text text-anchor="start" x="399" y="-139.4" font-family="Ubuntu Mono" font-size="12.00">hdf5_utilities::list</text>
<text text-anchor="middle" x="459.5" y="-126.4" font-family="Ubuntu Mono" font-size="12.00">_all_vars_in_group</text>
</a>
</g>
</g>
<!-- Node216&#45;&gt;Node228 -->
<g id="edge20" class="edge"><title>Node216&#45;&gt;Node228</title>
<path fill="none" stroke="midnightblue" d="M303.613,-171.447C326.532,-166.202 354.85,-159.721 380.979,-153.741"/>
<polygon fill="midnightblue" stroke="midnightblue" points="381.903,-157.12 390.87,-151.478 380.341,-150.297 381.903,-157.12"/>
</g>
<!-- Node229 -->
<g id="node15" class="node"><title>Node229</title>
<g id="a_node15"><a xlink:href="namespacemessages.html#aa4a8d01563e92558e8a0875b075ec54c" target="_top" xlink:title="Write output to file identified by output_i. ">
<polygon fill="white" stroke="black" points="609,-156.5 609,-177.5 716,-177.5 716,-156.5 609,-156.5"/>
<text text-anchor="middle" x="662.5" y="-163.9" font-family="Ubuntu Mono" font-size="12.00">messages::writo</text>
</a>
</g>
</g>
<!-- Node216&#45;&gt;Node229 -->
<g id="edge26" class="edge"><title>Node216&#45;&gt;Node229</title>
<path fill="none" stroke="midnightblue" d="M334.44,-179.143C411.14,-176.296 527.499,-171.975 598.776,-169.329"/>
<polygon fill="midnightblue" stroke="midnightblue" points="599.092,-172.82 608.955,-168.951 598.832,-165.824 599.092,-172.82"/>
</g>
<!-- Node219 -->
<g id="node5" class="node"><title>Node219</title>
<g id="a_node5"><a xlink:href="namespacempi__utilities.html#abe5bf3ae3b6a06eda18c2f4d62ac09c5" target="_top" xlink:title="Returns the header for lock debug messages. ">
<polygon fill="white" stroke="black" points="788,-305 788,-339 919,-339 919,-305 788,-305"/>
<text text-anchor="start" x="796" y="-325.4" font-family="Ubuntu Mono" font-size="12.00">mpi_utilities::lock</text>
<text text-anchor="middle" x="853.5" y="-312.4" font-family="Ubuntu Mono" font-size="12.00">_header</text>
</a>
</g>
</g>
<!-- Node218&#45;&gt;Node219 -->
<g id="edge4" class="edge"><title>Node218&#45;&gt;Node219</title>
<path fill="none" stroke="midnightblue" d="M512.601,-357.032C534.673,-363.401 560.831,-369.851 585,-373 653.312,-381.9 672.665,-387.55 740,-373 766.11,-367.358 793.447,-355.132 814.634,-344.064"/>
<polygon fill="midnightblue" stroke="midnightblue" points="816.452,-347.061 823.613,-339.252 813.145,-340.891 816.452,-347.061"/>
</g>
<!-- Node222 -->
<g id="node8" class="node"><title>Node222</title>
<g id="a_node8"><a xlink:href="namespacempi__utilities.html#a3b0349e5ec825e14083e3126c3e7ba65" target="_top" xlink:title="Adds, removes or sets to active a rank from the waiting list for a lock and returns the lock waiting ...">
<polygon fill="white" stroke="black" points="597,-235 597,-269 728,-269 728,-235 597,-235"/>
<text text-anchor="start" x="605" y="-255.4" font-family="Ubuntu Mono" font-size="12.00">mpi_utilities::lock</text>
<text text-anchor="middle" x="662.5" y="-242.4" font-family="Ubuntu Mono" font-size="12.00">_wl_change</text>
</a>
</g>
</g>
<!-- Node218&#45;&gt;Node222 -->
<g id="edge7" class="edge"><title>Node218&#45;&gt;Node222</title>
<path fill="none" stroke="midnightblue" d="M514.557,-322.825C526.218,-318.307 538.26,-312.993 549,-307 566.7,-297.123 567.213,-288.721 585,-279 588.754,-276.948 592.694,-275.003 596.723,-273.169"/>
<polygon fill="midnightblue" stroke="midnightblue" points="598.428,-276.246 606.241,-269.09 595.671,-269.812 598.428,-276.246"/>
</g>
<!-- Node224 -->
<g id="node10" class="node"><title>Node224</title>
<g id="a_node10"><a xlink:href="namespacempi__utilities.html#a74e2e82b561f403ca8087c3925f76e29" target="_top" xlink:title="Decides whether a waiting list is empty. ">
<polygon fill="white" stroke="black" points="585,-288.5 585,-309.5 740,-309.5 740,-288.5 585,-288.5"/>
<text text-anchor="middle" x="662.5" y="-295.9" font-family="Ubuntu Mono" font-size="12.00">mpi_utilities::wl_empty</text>
</a>
</g>
</g>
<!-- Node218&#45;&gt;Node224 -->
<g id="edge10" class="edge"><title>Node218&#45;&gt;Node224</title>
<path fill="none" stroke="midnightblue" d="M525.204,-326.802C549.204,-321.906 576.337,-316.372 600.039,-311.537"/>
<polygon fill="midnightblue" stroke="midnightblue" points="600.869,-314.94 609.968,-309.512 599.47,-308.081 600.869,-314.94"/>
</g>
<!-- Node225 -->
<g id="node11" class="node"><title>Node225</title>
<g id="a_node11"><a xlink:href="namespacempi__utilities.html#a263a30c79639d97f5faffdb566b5a811" target="_top" xlink:title="Notifies a rank that they can get the lock. ">
<polygon fill="white" stroke="black" points="597,-329 597,-363 728,-363 728,-329 597,-329"/>
<text text-anchor="start" x="605" y="-349.4" font-family="Ubuntu Mono" font-size="12.00">mpi_utilities::lock</text>
<text text-anchor="middle" x="662.5" y="-336.4" font-family="Ubuntu Mono" font-size="12.00">_notify</text>
</a>
</g>
</g>
<!-- Node218&#45;&gt;Node225 -->
<g id="edge11" class="edge"><title>Node218&#45;&gt;Node225</title>
<path fill="none" stroke="midnightblue" d="M525.204,-341.931C544.839,-342.518 566.572,-343.166 586.807,-343.77"/>
<polygon fill="midnightblue" stroke="midnightblue" points="586.817,-347.272 596.917,-344.072 587.026,-340.275 586.817,-347.272"/>
</g>
<!-- Node226 -->
<g id="node12" class="node"><title>Node226</title>
<g id="a_node12"><a xlink:href="namespacempi__utilities.html#a17c39b0498528e2532c8347b0b7dec86" target="_top" xlink:title="Get notified that the rank can get the lock. ">
<polygon fill="white" stroke="black" points="597,-421 597,-455 728,-455 728,-421 597,-421"/>
<text text-anchor="start" x="605" y="-441.4" font-family="Ubuntu Mono" font-size="12.00">mpi_utilities::lock</text>
<text text-anchor="middle" x="662.5" y="-428.4" font-family="Ubuntu Mono" font-size="12.00">_get_notified</text>
</a>
</g>
</g>
<!-- Node218&#45;&gt;Node226 -->
<g id="edge13" class="edge"><title>Node218&#45;&gt;Node226</title>
<path fill="none" stroke="midnightblue" d="M490.803,-357.063C515.773,-370.879 552.27,-390.519 585,-406 592.848,-409.712 601.244,-413.451 609.493,-416.998"/>
<polygon fill="midnightblue" stroke="midnightblue" points="608.136,-420.224 618.709,-420.91 610.871,-413.781 608.136,-420.224"/>
</g>
<!-- Node220 -->
<g id="node6" class="node"><title>Node220</title>
<g id="a_node6"><a xlink:href="namespacestr__utilities.html#acb8c4e66aead51f178e47fdea8d7a7db" target="_top" xlink:title="Convert an integer to string. ">
<polygon fill="white" stroke="black" points="967,-311.5 967,-332.5 1110,-332.5 1110,-311.5 967,-311.5"/>
<text text-anchor="middle" x="1038.5" y="-318.9" font-family="Ubuntu Mono" font-size="12.00">str_utilities::ii2str</text>
</a>
</g>
</g>
<!-- Node219&#45;&gt;Node220 -->
<g id="edge5" class="edge"><title>Node219&#45;&gt;Node220</title>
<path fill="none" stroke="midnightblue" d="M919.019,-322C931.199,-322 944.079,-322 956.685,-322"/>
<polygon fill="midnightblue" stroke="midnightblue" points="956.717,-325.5 966.717,-322 956.717,-318.5 956.717,-325.5"/>
</g>
<!-- Node219&#45;&gt;Node221 -->
<g id="edge6" class="edge"><title>Node219&#45;&gt;Node221</title>
<path fill="none" stroke="midnightblue" d="M886.103,-304.828C900.652,-296.083 917.614,-284.632 931,-272 972.042,-233.269 1008.42,-177.082 1026.11,-147.654"/>
<polygon fill="midnightblue" stroke="midnightblue" points="1029.3,-149.152 1031.38,-138.764 1023.27,-145.584 1029.3,-149.152"/>
</g>
<!-- Node222&#45;&gt;Node219 -->
<g id="edge8" class="edge"><title>Node222&#45;&gt;Node219</title>
<path fill="none" stroke="midnightblue" d="M712.54,-269.097C721.682,-272.344 731.143,-275.745 740,-279 759.387,-286.125 780.562,-294.154 799.26,-301.328"/>
<polygon fill="midnightblue" stroke="midnightblue" points="798.199,-304.67 808.789,-304.992 800.712,-298.136 798.199,-304.67"/>
</g>
<!-- Node223 -->
<g id="node9" class="node"><title>Node223</title>
<g id="a_node9"><a xlink:href="namespacestr__utilities.html#ac778d706b2e021672618939ab58fdd32" target="_top" xlink:title="Convert a real (double) to string. ">
<polygon fill="white" stroke="black" points="782,-241.5 782,-262.5 925,-262.5 925,-241.5 782,-241.5"/>
<text text-anchor="middle" x="853.5" y="-248.9" font-family="Ubuntu Mono" font-size="12.00">str_utilities::r2strt</text>
</a>
</g>
</g>
<!-- Node222&#45;&gt;Node223 -->
<g id="edge9" class="edge"><title>Node222&#45;&gt;Node223</title>
<path fill="none" stroke="midnightblue" d="M728.014,-252C742.09,-252 757.156,-252 771.772,-252"/>
<polygon fill="midnightblue" stroke="midnightblue" points="771.802,-255.5 781.802,-252 771.802,-248.5 771.802,-255.5"/>
</g>
<!-- Node225&#45;&gt;Node219 -->
<g id="edge12" class="edge"><title>Node225&#45;&gt;Node219</title>
<path fill="none" stroke="midnightblue" d="M728.014,-337.808C744.043,-335.772 761.356,-333.574 777.828,-331.482"/>
<polygon fill="midnightblue" stroke="midnightblue" points="778.476,-334.928 787.956,-330.196 777.594,-327.984 778.476,-334.928"/>
</g>
<!-- Node226&#45;&gt;Node219 -->
<g id="edge14" class="edge"><title>Node226&#45;&gt;Node219</title>
<path fill="none" stroke="midnightblue" d="M709.684,-420.832C719.896,-416.449 730.498,-411.425 740,-406 770.783,-388.425 802.895,-363.712 824.893,-345.641"/>
<polygon fill="midnightblue" stroke="midnightblue" points="827.349,-348.151 832.805,-339.069 822.876,-342.766 827.349,-348.151"/>
</g>
<!-- Node227&#45;&gt;Node219 -->
<g id="edge16" class="edge"><title>Node227&#45;&gt;Node219</title>
<path fill="none" stroke="midnightblue" d="M525.467,-264.338C533.584,-261.345 541.618,-257.91 549,-254 567.156,-244.383 565.624,-231.833 585,-225 649.967,-202.088 678.229,-194.505 740,-225 763.594,-236.648 756.712,-254.102 776,-272 786.95,-282.161 800.193,-291.611 812.561,-299.498"/>
<polygon fill="midnightblue" stroke="midnightblue" points="811.023,-302.662 821.367,-304.953 814.709,-296.712 811.023,-302.662"/>
</g>
<!-- Node227&#45;&gt;Node222 -->
<g id="edge17" class="edge"><title>Node227&#45;&gt;Node222</title>
<path fill="none" stroke="midnightblue" d="M525.204,-271.665C544.839,-268.832 566.572,-265.696 586.807,-262.777"/>
<polygon fill="midnightblue" stroke="midnightblue" points="587.519,-266.21 596.917,-261.318 586.52,-259.282 587.519,-266.21"/>
</g>
<!-- Node227&#45;&gt;Node224 -->
<g id="edge18" class="edge"><title>Node227&#45;&gt;Node224</title>
<path fill="none" stroke="midnightblue" d="M525.204,-286.794C540.98,-288.207 558.11,-289.741 574.73,-291.23"/>
<polygon fill="midnightblue" stroke="midnightblue" points="574.723,-294.743 584.995,-292.149 575.347,-287.771 574.723,-294.743"/>
</g>
<!-- Node227&#45;&gt;Node225 -->
<g id="edge19" class="edge"><title>Node227&#45;&gt;Node225</title>
<path fill="none" stroke="midnightblue" d="M513.31,-298.078C539.634,-306.591 571.641,-316.941 599.163,-325.841"/>
<polygon fill="midnightblue" stroke="midnightblue" points="598.102,-329.177 608.694,-328.923 600.256,-322.516 598.102,-329.177"/>
</g>
<!-- Node228&#45;&gt;Node221 -->
<g id="edge24" class="edge"><title>Node228&#45;&gt;Node221</title>
<path fill="none" stroke="midnightblue" d="M528.102,-135.063C635.851,-133.569 845.952,-130.656 959.76,-129.078"/>
<polygon fill="midnightblue" stroke="midnightblue" points="959.845,-132.577 969.795,-128.939 959.748,-125.578 959.845,-132.577"/>
</g>
<!-- Node228&#45;&gt;Node229 -->
<g id="edge21" class="edge"><title>Node228&#45;&gt;Node229</title>
<path fill="none" stroke="midnightblue" d="M528.269,-146.452C551.1,-149.973 576.46,-153.884 598.875,-157.341"/>
<polygon fill="midnightblue" stroke="midnightblue" points="598.531,-160.83 608.948,-158.895 599.598,-153.911 598.531,-160.83"/>
</g>
<!-- Node230 -->
<g id="node16" class="node"><title>Node230</title>
<g id="a_node16"><a xlink:href="namespacemessages.html#a82dddaab795b78b3d39e1ff1aab2f665" target="_top" xlink:title="Returns the memory usage in kilobytes. ">
<polygon fill="white" stroke="black" points="776,-196.5 776,-217.5 931,-217.5 931,-196.5 776,-196.5"/>
<text text-anchor="middle" x="853.5" y="-203.9" font-family="Ubuntu Mono" font-size="12.00">messages::get_mem_usage</text>
</a>
</g>
</g>
<!-- Node229&#45;&gt;Node230 -->
<g id="edge22" class="edge"><title>Node229&#45;&gt;Node230</title>
<path fill="none" stroke="midnightblue" d="M713.158,-177.51C737.585,-182.679 767.218,-188.951 792.865,-194.379"/>
<polygon fill="midnightblue" stroke="midnightblue" points="792.338,-197.845 802.846,-196.491 793.788,-190.997 792.338,-197.845"/>
</g>
<!-- Node231 -->
<g id="node17" class="node"><title>Node231</title>
<g id="a_node17"><a xlink:href="namespacemessages.html#a61fd0b51b5e37d58fdc993c01792a3fd" target="_top" xlink:title="Returns the time. ">
<polygon fill="white" stroke="black" points="788,-156.5 788,-177.5 919,-177.5 919,-156.5 788,-156.5"/>
<text text-anchor="middle" x="853.5" y="-163.9" font-family="Ubuntu Mono" font-size="12.00">messages::get_clock</text>
</a>
</g>
</g>
<!-- Node229&#45;&gt;Node231 -->
<g id="edge23" class="edge"><title>Node229&#45;&gt;Node231</title>
<path fill="none" stroke="midnightblue" d="M716.147,-167C735.115,-167 756.903,-167 777.415,-167"/>
<polygon fill="midnightblue" stroke="midnightblue" points="777.682,-170.5 787.682,-167 777.682,-163.5 777.682,-170.5"/>
</g>
<!-- Node233 -->
<g id="node19" class="node"><title>Node233</title>
<g id="a_node19"><a xlink:href="namespacenum__utilities.html#a5ee3fbd1fe67d0deefc7194631389f2a" target="_top" xlink:title="Convert 2&#45;D coordinates (i,j) to the storage convention used in matrices. ">
<polygon fill="white" stroke="black" points="403,-40.5 403,-61.5 516,-61.5 516,-40.5 403,-40.5"/>
<text text-anchor="middle" x="459.5" y="-47.9" font-family="Ubuntu Mono" font-size="12.00">num_utilities::c</text>
</a>
</g>
</g>
<!-- Node232&#45;&gt;Node233 -->
<g id="edge28" class="edge"><title>Node232&#45;&gt;Node233</title>
<path fill="none" stroke="midnightblue" d="M325.269,-51C347.013,-51 371.051,-51 392.655,-51"/>
<polygon fill="midnightblue" stroke="midnightblue" points="392.717,-54.5001 402.717,-51 392.717,-47.5001 392.717,-54.5001"/>
</g>
<!-- Node234 -->
<g id="node20" class="node"><title>Node234</title>
<g id="a_node20"><a xlink:href="namespacex__utilities.html#a689aca7fedb49c43c5a65a18d557259f" target="_top" xlink:title="Determines whether a variable needs to be considered: ">
<polygon fill="white" stroke="black" points="370,-0.5 370,-21.5 549,-21.5 549,-0.5 370,-0.5"/>
<text text-anchor="middle" x="459.5" y="-7.9" font-family="Ubuntu Mono" font-size="12.00">x_utilities::is_necessary_x</text>
</a>
</g>
</g>
<!-- Node232&#45;&gt;Node234 -->
<g id="edge29" class="edge"><title>Node232&#45;&gt;Node234</title>
<path fill="none" stroke="midnightblue" d="M325.269,-37.5136C348.001,-32.9899 373.24,-27.9671 395.584,-23.5206"/>
<polygon fill="midnightblue" stroke="midnightblue" points="396.502,-26.9065 405.627,-21.522 395.136,-20.0412 396.502,-26.9065"/>
</g>
</g>
</svg>
