<?xml version="1.0" encoding="UTF-8" standalone="no"?>
<!DOCTYPE svg PUBLIC "-//W3C//DTD SVG 1.1//EN"
 "http://www.w3.org/Graphics/SVG/1.1/DTD/svg11.dtd">
<!-- Generated by graphviz version 2.38.0 (20140413.2041)
 -->
<!-- Title: num_utilities::lcm Pages: 1 -->
<svg width="598pt" height="30pt"
 viewBox="0.00 0.00 598.00 30.00" xmlns="http://www.w3.org/2000/svg" xmlns:xlink="http://www.w3.org/1999/xlink">
<g id="graph0" class="graph" transform="scale(1 1) rotate(0) translate(4 26)">
<title>num_utilities::lcm</title>
<polygon fill="white" stroke="none" points="-4,4 -4,-26 594,-26 594,4 -4,4"/>
<!-- Node147 -->
<g id="node1" class="node"><title>Node147</title>
<polygon fill="#bfbfbf" stroke="black" points="0,-0.5 0,-21.5 125,-21.5 125,-0.5 0,-0.5"/>
<text text-anchor="middle" x="62.5" y="-7.9" font-family="Ubuntu Mono" font-size="12.00">num_utilities::lcm</text>
</g>
<!-- Node148 -->
<g id="node2" class="node"><title>Node148</title>
<g id="a_node2"><a xlink:href="namespacevac__ops.html#a5e5a8322b3aa2e3704b1050426f06d9d" target="_top" xlink:title="Calculates the vacuum response. ">
<polygon fill="white" stroke="black" points="161,-0.5 161,-21.5 304,-21.5 304,-0.5 161,-0.5"/>
<text text-anchor="middle" x="232.5" y="-7.9" font-family="Ubuntu Mono" font-size="12.00">vac_ops::calc_vac_res</text>
</a>
</g>
</g>
<!-- Node147&#45;&gt;Node148 -->
<g id="edge1" class="edge"><title>Node147&#45;&gt;Node148</title>
<path fill="none" stroke="midnightblue" d="M135.304,-11C143.754,-11 152.373,-11 160.808,-11"/>
<polygon fill="midnightblue" stroke="midnightblue" points="135.103,-7.5001 125.103,-11 135.103,-14.5001 135.103,-7.5001"/>
</g>
<!-- Node149 -->
<g id="node3" class="node"><title>Node149</title>
<g id="a_node3"><a xlink:href="namespacedriver__sol.html#ad3b1765b3ecc5f82129bfc683ffc6c5c" target="_top" xlink:title="Main driver of PB3D solution part. ">
<polygon fill="white" stroke="black" points="340,-0.5 340,-21.5 513,-21.5 513,-0.5 340,-0.5"/>
<text text-anchor="middle" x="426.5" y="-7.9" font-family="Ubuntu Mono" font-size="12.00">driver_sol::run_driver_sol</text>
</a>
</g>
</g>
<!-- Node148&#45;&gt;Node149 -->
<g id="edge2" class="edge"><title>Node148&#45;&gt;Node149</title>
<path fill="none" stroke="midnightblue" d="M314.399,-11C322.86,-11 331.482,-11 339.993,-11"/>
<polygon fill="midnightblue" stroke="midnightblue" points="314.176,-7.5001 304.176,-11 314.176,-14.5001 314.176,-7.5001"/>
</g>
<!-- Node150 -->
<g id="node4" class="node"><title>Node150</title>
<g id="a_node4"><a xlink:href="PB3D_8f90.html#afaee01f014ab3398eecac996b2795fd2" target="_top" xlink:title="Peeling Ballooning in 3D. ">
<polygon fill="white" stroke="black" points="549,-0.5 549,-21.5 590,-21.5 590,-0.5 549,-0.5"/>
<text text-anchor="middle" x="569.5" y="-7.9" font-family="Ubuntu Mono" font-size="12.00">pb3d</text>
</a>
</g>
</g>
<!-- Node149&#45;&gt;Node150 -->
<g id="edge3" class="edge"><title>Node149&#45;&gt;Node150</title>
<path fill="none" stroke="midnightblue" d="M523.337,-11C532.873,-11 541.695,-11 548.964,-11"/>
<polygon fill="midnightblue" stroke="midnightblue" points="523.178,-7.5001 513.178,-11 523.178,-14.5001 523.178,-7.5001"/>
</g>
</g>
</svg>
