<?xml version="1.0" encoding="UTF-8" standalone="no"?>
<!DOCTYPE svg PUBLIC "-//W3C//DTD SVG 1.1//EN"
 "http://www.w3.org/Graphics/SVG/1.1/DTD/svg11.dtd">
<!-- Generated by graphviz version 2.38.0 (20140413.2041)
 -->
<!-- Title: vac_ops::solve_phi_bem Pages: 1 -->
<svg width="1016pt" height="259pt"
 viewBox="0.00 0.00 1016.00 259.00" xmlns="http://www.w3.org/2000/svg" xmlns:xlink="http://www.w3.org/1999/xlink">
<g id="graph0" class="graph" transform="scale(1 1) rotate(0) translate(4 255)">
<title>vac_ops::solve_phi_bem</title>
<polygon fill="white" stroke="none" points="-4,4 -4,-255 1012,-255 1012,4 -4,4"/>
<!-- Node128 -->
<g id="node1" class="node"><title>Node128</title>
<polygon fill="#bfbfbf" stroke="black" points="0,-190.5 0,-211.5 149,-211.5 149,-190.5 0,-190.5"/>
<text text-anchor="middle" x="74.5" y="-197.9" font-family="Ubuntu Mono" font-size="12.00">vac_ops::solve_phi_bem</text>
</g>
<!-- Node129 -->
<g id="node2" class="node"><title>Node129</title>
<g id="a_node2"><a xlink:href="namespacevac__vars.html#af0fd2f819434bf7adc494753df4af19c" target="_top" xlink:title="Indicates whether current process is in the context. ">
<polygon fill="white" stroke="black" points="185,-229.5 185,-250.5 322,-250.5 322,-229.5 185,-229.5"/>
<text text-anchor="middle" x="253.5" y="-236.9" font-family="Ubuntu Mono" font-size="12.00">vac_vars::in_context</text>
</a>
</g>
</g>
<!-- Node128&#45;&gt;Node129 -->
<g id="edge1" class="edge"><title>Node128&#45;&gt;Node129</title>
<path fill="none" stroke="midnightblue" d="M123.399,-211.554C145.338,-216.388 171.527,-222.159 194.566,-227.235"/>
<polygon fill="midnightblue" stroke="midnightblue" points="194.044,-230.704 204.563,-229.438 195.55,-223.868 194.044,-230.704"/>
</g>
<!-- Node130 -->
<g id="node3" class="node"><title>Node130</title>
<g id="a_node3"><a xlink:href="namespacestr__utilities.html#a0b97e51770725a3e98ed393d26681414" target="_top" xlink:title="Convert an integer to string. ">
<polygon fill="white" stroke="black" points="373,-210.5 373,-231.5 510,-231.5 510,-210.5 373,-210.5"/>
<text text-anchor="middle" x="441.5" y="-217.9" font-family="Ubuntu Mono" font-size="12.00">str_utilities::i2str</text>
</a>
</g>
</g>
<!-- Node128&#45;&gt;Node130 -->
<g id="edge2" class="edge"><title>Node128&#45;&gt;Node130</title>
<path fill="none" stroke="midnightblue" d="M149.363,-205.047C211.323,-208.442 299.549,-213.277 362.612,-216.732"/>
<polygon fill="midnightblue" stroke="midnightblue" points="362.725,-220.244 372.902,-217.296 363.108,-213.254 362.725,-220.244"/>
</g>
<!-- Node131 -->
<g id="node4" class="node"><title>Node131</title>
<g id="a_node4"><a xlink:href="namespaceoutput__ops.html#a50bfbb88cc91805469353c3ff47b3e2e" target="_top" xlink:title="Use external program to draw a plot. ">
<polygon fill="white" stroke="black" points="188,-132.5 188,-153.5 319,-153.5 319,-132.5 188,-132.5"/>
<text text-anchor="middle" x="253.5" y="-139.9" font-family="Ubuntu Mono" font-size="12.00">output_ops::draw_ex</text>
</a>
</g>
</g>
<!-- Node128&#45;&gt;Node131 -->
<g id="edge3" class="edge"><title>Node128&#45;&gt;Node131</title>
<path fill="none" stroke="midnightblue" d="M107.553,-190.497C136.409,-181.041 179.006,-167.083 210.561,-156.743"/>
<polygon fill="midnightblue" stroke="midnightblue" points="211.974,-159.963 220.387,-153.523 209.794,-153.311 211.974,-159.963"/>
</g>
<!-- Node131&#45;&gt;Node130 -->
<g id="edge4" class="edge"><title>Node131&#45;&gt;Node130</title>
<path fill="none" stroke="midnightblue" d="M272.728,-153.602C293.045,-165.117 327.113,-183.529 358,-196 368.413,-200.204 379.808,-204.092 390.717,-207.487"/>
<polygon fill="midnightblue" stroke="midnightblue" points="389.97,-210.917 400.555,-210.461 391.996,-204.217 389.97,-210.917"/>
</g>
<!-- Node132 -->
<g id="node5" class="node"><title>Node132</title>
<g id="a_node5"><a xlink:href="namespacemessages.html#aa4a8d01563e92558e8a0875b075ec54c" target="_top" xlink:title="Write output to file identified by output_i. ">
<polygon fill="white" stroke="black" points="710,-104.5 710,-125.5 817,-125.5 817,-104.5 710,-104.5"/>
<text text-anchor="middle" x="763.5" y="-111.9" font-family="Ubuntu Mono" font-size="12.00">messages::writo</text>
</a>
</g>
</g>
<!-- Node131&#45;&gt;Node132 -->
<g id="edge5" class="edge"><title>Node131&#45;&gt;Node132</title>
<path fill="none" stroke="midnightblue" d="M299.061,-153.542C317.228,-157.334 338.507,-161.134 358,-163 431.884,-170.073 451.146,-170.388 525,-163 590.846,-156.413 665.449,-139.796 713.183,-127.964"/>
<polygon fill="midnightblue" stroke="midnightblue" points="714.099,-131.342 722.948,-125.517 712.397,-124.552 714.099,-131.342"/>
</g>
<!-- Node135 -->
<g id="node8" class="node"><title>Node135</title>
<g id="a_node8"><a xlink:href="namespacefiles__utilities.html#ac6066df405564ba2f5e3c4bba726c1f8" target="_top" xlink:title="Search for available new unit. ">
<polygon fill="white" stroke="black" points="358,-132.5 358,-153.5 525,-153.5 525,-132.5 358,-132.5"/>
<text text-anchor="middle" x="441.5" y="-139.9" font-family="Ubuntu Mono" font-size="12.00">files_utilities::nextunit</text>
</a>
</g>
</g>
<!-- Node131&#45;&gt;Node135 -->
<g id="edge8" class="edge"><title>Node131&#45;&gt;Node135</title>
<path fill="none" stroke="midnightblue" d="M319.032,-143C328.299,-143 337.983,-143 347.665,-143"/>
<polygon fill="midnightblue" stroke="midnightblue" points="347.736,-146.5 357.736,-143 347.736,-139.5 347.736,-146.5"/>
</g>
<!-- Node136 -->
<g id="node9" class="node"><title>Node136</title>
<g id="a_node9"><a xlink:href="namespaceoutput__ops.html#aa9e4855511b6ea16a08b3efb587bec51" target="_top" xlink:title="Executes command line, or displays a message if disabled. ">
<polygon fill="white" stroke="black" points="364,-79 364,-113 519,-113 519,-79 364,-79"/>
<text text-anchor="start" x="372" y="-99.4" font-family="Ubuntu Mono" font-size="12.00">output_ops::use_execute</text>
<text text-anchor="middle" x="441.5" y="-86.4" font-family="Ubuntu Mono" font-size="12.00">_command_line</text>
</a>
</g>
</g>
<!-- Node131&#45;&gt;Node136 -->
<g id="edge9" class="edge"><title>Node131&#45;&gt;Node136</title>
<path fill="none" stroke="midnightblue" d="M296.242,-132.452C316.017,-127.455 340.288,-121.322 363.241,-115.522"/>
<polygon fill="midnightblue" stroke="midnightblue" points="364.143,-118.905 372.981,-113.061 362.428,-112.118 364.143,-118.905"/>
</g>
<!-- Node137 -->
<g id="node10" class="node"><title>Node137</title>
<g id="a_node10"><a xlink:href="namespacemessages.html#a6e6bfb084063e4cc91ee86e542043302" target="_top" xlink:title="Increases/decreases lvl of output. ">
<polygon fill="white" stroke="black" points="561,-65.5 561,-86.5 674,-86.5 674,-65.5 561,-65.5"/>
<text text-anchor="middle" x="617.5" y="-72.9" font-family="Ubuntu Mono" font-size="12.00">messages::lvl_ud</text>
</a>
</g>
</g>
<!-- Node131&#45;&gt;Node137 -->
<g id="edge13" class="edge"><title>Node131&#45;&gt;Node137</title>
<path fill="none" stroke="midnightblue" d="M264.708,-132.242C281.968,-114.926 318.877,-81.5474 358,-69 424.468,-47.6827 505.549,-54.8412 558.976,-63.7496"/>
<polygon fill="midnightblue" stroke="midnightblue" points="558.498,-67.219 568.95,-65.4867 559.699,-60.3228 558.498,-67.219"/>
</g>
<!-- Node138 -->
<g id="node11" class="node"><title>Node138</title>
<g id="a_node11"><a xlink:href="namespacestr__utilities.html#a92ac6c0af1979df094de1caddd28ade0" target="_top" xlink:title="Convert a real (double) to string. ">
<polygon fill="white" stroke="black" points="373,-0.5 373,-21.5 510,-21.5 510,-0.5 373,-0.5"/>
<text text-anchor="middle" x="441.5" y="-7.9" font-family="Ubuntu Mono" font-size="12.00">str_utilities::r2str</text>
</a>
</g>
</g>
<!-- Node131&#45;&gt;Node138 -->
<g id="edge14" class="edge"><title>Node131&#45;&gt;Node138</title>
<path fill="none" stroke="midnightblue" d="M261.766,-132.472C277.064,-111.095 314.765,-62.3964 358,-36 365.161,-31.6279 373.142,-27.9717 381.241,-24.9276"/>
<polygon fill="midnightblue" stroke="midnightblue" points="382.457,-28.2104 390.76,-21.6291 380.165,-21.5963 382.457,-28.2104"/>
</g>
<!-- Node133 -->
<g id="node6" class="node"><title>Node133</title>
<g id="a_node6"><a xlink:href="namespacemessages.html#a82dddaab795b78b3d39e1ff1aab2f665" target="_top" xlink:title="Returns the memory usage in kilobytes. ">
<polygon fill="white" stroke="black" points="853,-124.5 853,-145.5 1008,-145.5 1008,-124.5 853,-124.5"/>
<text text-anchor="middle" x="930.5" y="-131.9" font-family="Ubuntu Mono" font-size="12.00">messages::get_mem_usage</text>
</a>
</g>
</g>
<!-- Node132&#45;&gt;Node133 -->
<g id="edge6" class="edge"><title>Node132&#45;&gt;Node133</title>
<path fill="none" stroke="midnightblue" d="M817.161,-121.383C825.452,-122.388 834.208,-123.449 843.025,-124.518"/>
<polygon fill="midnightblue" stroke="midnightblue" points="842.635,-127.996 852.984,-125.725 843.478,-121.047 842.635,-127.996"/>
</g>
<!-- Node134 -->
<g id="node7" class="node"><title>Node134</title>
<g id="a_node7"><a xlink:href="namespacemessages.html#a61fd0b51b5e37d58fdc993c01792a3fd" target="_top" xlink:title="Returns the time. ">
<polygon fill="white" stroke="black" points="865,-84.5 865,-105.5 996,-105.5 996,-84.5 865,-84.5"/>
<text text-anchor="middle" x="930.5" y="-91.9" font-family="Ubuntu Mono" font-size="12.00">messages::get_clock</text>
</a>
</g>
</g>
<!-- Node132&#45;&gt;Node134 -->
<g id="edge7" class="edge"><title>Node132&#45;&gt;Node134</title>
<path fill="none" stroke="midnightblue" d="M817.161,-108.617C829.142,-107.165 842.094,-105.595 854.797,-104.055"/>
<polygon fill="midnightblue" stroke="midnightblue" points="855.402,-107.507 864.908,-102.829 854.56,-100.558 855.402,-107.507"/>
</g>
<!-- Node136&#45;&gt;Node132 -->
<g id="edge10" class="edge"><title>Node136&#45;&gt;Node132</title>
<path fill="none" stroke="midnightblue" d="M519.148,-100.551C574.445,-103.834 648.17,-108.212 699.929,-111.285"/>
<polygon fill="midnightblue" stroke="midnightblue" points="699.786,-114.782 709.976,-111.881 700.201,-107.795 699.786,-114.782"/>
</g>
<!-- Node136&#45;&gt;Node137 -->
<g id="edge11" class="edge"><title>Node136&#45;&gt;Node137</title>
<path fill="none" stroke="midnightblue" d="M519.072,-87.1986C529.603,-85.9882 540.341,-84.754 550.656,-83.5683"/>
<polygon fill="midnightblue" stroke="midnightblue" points="551.272,-87.0206 560.807,-82.4015 550.473,-80.0664 551.272,-87.0206"/>
</g>
<!-- Node137&#45;&gt;Node132 -->
<g id="edge12" class="edge"><title>Node137&#45;&gt;Node132</title>
<path fill="none" stroke="midnightblue" d="M657.468,-86.554C674.757,-91.2363 695.29,-96.7972 713.595,-101.755"/>
<polygon fill="midnightblue" stroke="midnightblue" points="712.933,-105.202 723.5,-104.438 714.763,-98.4451 712.933,-105.202"/>
</g>
</g>
</svg>
