<?xml version="1.0" encoding="UTF-8" standalone="no"?>
<!DOCTYPE svg PUBLIC "-//W3C//DTD SVG 1.1//EN"
 "http://www.w3.org/Graphics/SVG/1.1/DTD/svg11.dtd">
<!-- Generated by graphviz version 2.43.0 (0)
 -->
<!-- Title: vac_ops::store_vac Pages: 1 -->
<svg width="1286pt" height="918pt"
 viewBox="0.00 0.00 1286.00 918.00" xmlns="http://www.w3.org/2000/svg" xmlns:xlink="http://www.w3.org/1999/xlink">
<g id="graph0" class="graph" transform="scale(1 1) rotate(0) translate(4 914)">
<title>vac_ops::store_vac</title>
<polygon fill="white" stroke="transparent" points="-4,4 -4,-914 1282,-914 1282,4 -4,4"/>
<!-- Node1 -->
<g id="node1" class="node">
<title>Node1</title>
<g id="a_node1"><a xlink:title="Stores calculation of the vacuum response by storing the necessary variables.">
<polygon fill="#bfbfbf" stroke="black" points="0,-328 0,-349 129,-349 129,-328 0,-328"/>
<text text-anchor="middle" x="64.5" y="-335.4" font-family="Ubuntu Mono" font-size="12.00">vac_ops::store_vac</text>
</a>
</g>
</g>
<!-- Node2 -->
<g id="node2" class="node">
<title>Node2</title>
<g id="a_node2"><a xlink:href="namespacenum__utilities.html#a5ee3fbd1fe67d0deefc7194631389f2a" target="_top" xlink:title="Convert 2&#45;D coordinates (i,j) to the storage convention used in matrices.">
<polygon fill="white" stroke="black" points="581.5,-872 581.5,-893 687.5,-893 687.5,-872 581.5,-872"/>
<text text-anchor="middle" x="634.5" y="-879.4" font-family="Ubuntu Mono" font-size="12.00">num_utilities::c</text>
</a>
</g>
</g>
<!-- Node1&#45;&gt;Node2 -->
<g id="edge1" class="edge">
<title>Node1&#45;&gt;Node2</title>
<path fill="none" stroke="midnightblue" d="M66.37,-349.16C70.43,-394.1 90.68,-571.26 165,-691.5 224.71,-788.11 249.53,-818.95 354,-863.5 423.95,-893.33 512.72,-893.81 571.23,-889.66"/>
<polygon fill="midnightblue" stroke="midnightblue" points="571.73,-893.14 581.43,-888.87 571.19,-886.16 571.73,-893.14"/>
</g>
<!-- Node3 -->
<g id="node3" class="node">
<title>Node3</title>
<g id="a_node3"><a xlink:href="namespacevac__vars.html#a8da702035bfcc208bd810258f9944f6a" target="_top" xlink:title="Copy a vacuum type.">
<polygon fill="white" stroke="black" points="175.5,-95 175.5,-116 307.5,-116 307.5,-95 175.5,-95"/>
<text text-anchor="middle" x="241.5" y="-102.4" font-family="Ubuntu Mono" font-size="12.00">vac_vars::copy_vac</text>
</a>
</g>
</g>
<!-- Node1&#45;&gt;Node3 -->
<g id="edge2" class="edge">
<title>Node1&#45;&gt;Node3</title>
<path fill="none" stroke="midnightblue" d="M67.24,-327.71C73.48,-292.73 97.99,-181.53 165,-125.5 167,-123.83 169.13,-122.29 171.35,-120.88"/>
<polygon fill="midnightblue" stroke="midnightblue" points="173.19,-123.87 180.34,-116.06 169.88,-117.7 173.19,-123.87"/>
</g>
<!-- Node4 -->
<g id="node4" class="node">
<title>Node4</title>
<g id="a_node4"><a xlink:href="namespacevac__utilities.html#a8e7889688701f6ac2fd2c60cdee2b96a" target="_top" xlink:title="Copies vacuum variables of a previous level into the appropriate, interlaced place of a next level.">
<polygon fill="white" stroke="black" points="165,-135.5 165,-169.5 318,-169.5 318,-135.5 165,-135.5"/>
<text text-anchor="start" x="173" y="-155.9" font-family="Ubuntu Mono" font-size="12.00">vac_utilities::interlaced</text>
<text text-anchor="middle" x="241.5" y="-142.9" font-family="Ubuntu Mono" font-size="12.00">_vac_copy</text>
</a>
</g>
</g>
<!-- Node1&#45;&gt;Node4 -->
<g id="edge3" class="edge">
<title>Node1&#45;&gt;Node4</title>
<path fill="none" stroke="midnightblue" d="M75.41,-327.97C102.58,-299.09 178.8,-218.08 217.43,-177.02"/>
<polygon fill="midnightblue" stroke="midnightblue" points="220.11,-179.28 224.41,-169.6 215.01,-174.49 220.11,-179.28"/>
</g>
<!-- Node7 -->
<g id="node7" class="node">
<title>Node7</title>
<g id="a_node7"><a xlink:href="namespacemessages.html#aa4a8d01563e92558e8a0875b075ec54c" target="_top" xlink:title="Write output to file identified by output_i.">
<polygon fill="white" stroke="black" points="773,-289 773,-310 887,-310 887,-289 773,-289"/>
<text text-anchor="middle" x="830" y="-296.4" font-family="Ubuntu Mono" font-size="12.00">messages::writo</text>
</a>
</g>
</g>
<!-- Node1&#45;&gt;Node7 -->
<g id="edge57" class="edge">
<title>Node1&#45;&gt;Node7</title>
<path fill="none" stroke="midnightblue" d="M129.28,-335.24C272.34,-327.93 617.64,-310.3 762.88,-302.88"/>
<polygon fill="midnightblue" stroke="midnightblue" points="763.17,-306.37 772.98,-302.36 762.82,-299.38 763.17,-306.37"/>
</g>
<!-- Node17 -->
<g id="node17" class="node">
<title>Node17</title>
<g id="a_node17"><a xlink:href="namespacemessages.html#a6e6bfb084063e4cc91ee86e542043302" target="_top" xlink:title="Increases/decreases lvl of output.">
<polygon fill="white" stroke="black" points="575.5,-328 575.5,-349 693.5,-349 693.5,-328 575.5,-328"/>
<text text-anchor="middle" x="634.5" y="-335.4" font-family="Ubuntu Mono" font-size="12.00">messages::lvl_ud</text>
</a>
</g>
</g>
<!-- Node1&#45;&gt;Node17 -->
<g id="edge20" class="edge">
<title>Node1&#45;&gt;Node17</title>
<path fill="none" stroke="midnightblue" d="M129,-338.5C236.66,-338.5 454.09,-338.5 565.02,-338.5"/>
<polygon fill="midnightblue" stroke="midnightblue" points="565.1,-342 575.1,-338.5 565.1,-335 565.1,-342"/>
</g>
<!-- Node18 -->
<g id="node18" class="node">
<title>Node18</title>
<g id="a_node18"><a xlink:href="namespacegrid__utilities.html#a0854b2d6cc61a31f68b4afe7304077a9" target="_top" xlink:title="calculates the cosine and sine mode numbers of a function defined on a non&#45;regular grid.">
<polygon fill="white" stroke="black" points="180,-379 180,-400 303,-400 303,-379 180,-379"/>
<text text-anchor="middle" x="241.5" y="-386.4" font-family="Ubuntu Mono" font-size="12.00">grid_utilities::nufft</text>
</a>
</g>
</g>
<!-- Node1&#45;&gt;Node18 -->
<g id="edge22" class="edge">
<title>Node1&#45;&gt;Node18</title>
<path fill="none" stroke="midnightblue" d="M101.76,-349.07C128.63,-356.9 165.44,-367.63 194.4,-376.07"/>
<polygon fill="midnightblue" stroke="midnightblue" points="193.71,-379.51 204.29,-378.95 195.67,-372.79 193.71,-379.51"/>
</g>
<!-- Node22 -->
<g id="node22" class="node">
<title>Node22</title>
<g id="a_node22"><a xlink:href="namespacepb3d__ops.html#a281c496a42c4ea46606e929e10d51582" target="_top" xlink:title="Reconstructs the vacuum variables from PB3D HDF5 output.">
<polygon fill="white" stroke="black" points="167,-647.5 167,-681.5 316,-681.5 316,-647.5 167,-647.5"/>
<text text-anchor="start" x="175" y="-667.9" font-family="Ubuntu Mono" font-size="12.00">pb3d_ops::reconstruct</text>
<text text-anchor="middle" x="241.5" y="-654.9" font-family="Ubuntu Mono" font-size="12.00">_pb3d_vac</text>
</a>
</g>
</g>
<!-- Node1&#45;&gt;Node22 -->
<g id="edge29" class="edge">
<title>Node1&#45;&gt;Node22</title>
<path fill="none" stroke="midnightblue" d="M71.32,-349.35C95.74,-394.84 190.3,-570.98 226.39,-638.22"/>
<polygon fill="midnightblue" stroke="midnightblue" points="223.46,-640.16 231.28,-647.32 229.63,-636.85 223.46,-640.16"/>
</g>
<!-- Node5 -->
<g id="node5" class="node">
<title>Node5</title>
<g id="a_node5"><a xlink:href="namespaceinput__utilities.html#ad9ce824c30b32041ab70f3fb191f06db" target="_top" xlink:title="Queries for a logical value yes or no, where the default answer is also to be provided.">
<polygon fill="white" stroke="black" points="361.5,-171 361.5,-192 507.5,-192 507.5,-171 361.5,-171"/>
<text text-anchor="middle" x="434.5" y="-178.4" font-family="Ubuntu Mono" font-size="12.00">input_utilities::get_log</text>
</a>
</g>
</g>
<!-- Node4&#45;&gt;Node5 -->
<g id="edge4" class="edge">
<title>Node4&#45;&gt;Node5</title>
<path fill="none" stroke="midnightblue" d="M318.26,-164C330.14,-165.81 342.45,-167.68 354.4,-169.49"/>
<polygon fill="midnightblue" stroke="midnightblue" points="353.93,-172.96 364.34,-171 354.98,-166.04 353.93,-172.96"/>
</g>
<!-- Node4&#45;&gt;Node7 -->
<g id="edge19" class="edge">
<title>Node4&#45;&gt;Node7</title>
<path fill="none" stroke="midnightblue" d="M295.12,-135.41C302.91,-132.39 310.75,-129.06 318,-125.5 335.05,-117.14 336.07,-108.74 354,-102.5 507.02,-49.26 579.79,2.05 718,-82.5 789.88,-126.47 817.1,-233.33 825.64,-278.64"/>
<polygon fill="midnightblue" stroke="midnightblue" points="822.24,-279.52 827.43,-288.76 829.14,-278.3 822.24,-279.52"/>
</g>
<!-- Node13 -->
<g id="node13" class="node">
<title>Node13</title>
<g id="a_node13"><a xlink:href="namespacevac__utilities.html#ae70e8a1fc132ba79a9a4f49f4944a352" target="_top" xlink:title="Gathers a distributed vector on a single process.">
<polygon fill="white" stroke="black" points="376,-0.5 376,-34.5 493,-34.5 493,-0.5 376,-0.5"/>
<text text-anchor="start" x="384" y="-20.9" font-family="Ubuntu Mono" font-size="12.00">vac_utilities::mat</text>
<text text-anchor="middle" x="434.5" y="-7.9" font-family="Ubuntu Mono" font-size="12.00">_dis2loc</text>
</a>
</g>
</g>
<!-- Node4&#45;&gt;Node13 -->
<g id="edge14" class="edge">
<title>Node4&#45;&gt;Node13</title>
<path fill="none" stroke="midnightblue" d="M303.86,-135.46C308.96,-132.63 313.77,-129.33 318,-125.5 345.7,-100.41 326.79,-75.13 354,-49.5 357.83,-45.89 362.11,-42.67 366.66,-39.8"/>
<polygon fill="midnightblue" stroke="midnightblue" points="368.69,-42.67 375.67,-34.7 365.24,-36.58 368.69,-42.67"/>
</g>
<!-- Node15 -->
<g id="node15" class="node">
<title>Node15</title>
<g id="a_node15"><a xlink:href="namespacemessages.html#a80797cedef6112b8dccaeda431f0c610" target="_top" xlink:title="Print an array of dimension 2 on the screen.">
<polygon fill="white" stroke="black" points="362.5,-112 362.5,-133 506.5,-133 506.5,-112 362.5,-112"/>
<text text-anchor="middle" x="434.5" y="-119.4" font-family="Ubuntu Mono" font-size="12.00">messages::print_ar_2</text>
</a>
</g>
</g>
<!-- Node4&#45;&gt;Node15 -->
<g id="edge16" class="edge">
<title>Node4&#45;&gt;Node15</title>
<path fill="none" stroke="midnightblue" d="M318.26,-140.6C330.84,-138.63 343.89,-136.58 356.49,-134.6"/>
<polygon fill="midnightblue" stroke="midnightblue" points="357.15,-138.03 366.49,-133.03 356.07,-131.12 357.15,-138.03"/>
</g>
<!-- Node6 -->
<g id="node6" class="node">
<title>Node6</title>
<g id="a_node6"><a xlink:href="namespacemessages.html#a84d5988f3ea5ca8dc2834032f896ae90" target="_top" xlink:title="Start a timer.">
<polygon fill="white" stroke="black" points="562,-250 562,-271 707,-271 707,-250 562,-250"/>
<text text-anchor="middle" x="634.5" y="-257.4" font-family="Ubuntu Mono" font-size="12.00">messages::start_time</text>
</a>
</g>
</g>
<!-- Node5&#45;&gt;Node6 -->
<g id="edge5" class="edge">
<title>Node5&#45;&gt;Node6</title>
<path fill="none" stroke="midnightblue" d="M452.92,-192.04C475.03,-205.03 514.69,-227.04 551,-240.5 557.75,-243 564.92,-245.28 572.11,-247.32"/>
<polygon fill="midnightblue" stroke="midnightblue" points="571.32,-250.73 581.89,-249.96 573.15,-243.97 571.32,-250.73"/>
</g>
<!-- Node5&#45;&gt;Node7 -->
<g id="edge13" class="edge">
<title>Node5&#45;&gt;Node7</title>
<path fill="none" stroke="midnightblue" d="M507.51,-173.78C566.42,-170.36 650.7,-172.23 718,-200.5 759.37,-217.88 795.73,-257.29 814.81,-280.81"/>
<polygon fill="midnightblue" stroke="midnightblue" points="812.31,-283.29 821.26,-288.97 817.8,-278.95 812.31,-283.29"/>
</g>
<!-- Node11 -->
<g id="node11" class="node">
<title>Node11</title>
<g id="a_node11"><a xlink:href="namespacemessages.html#aed343894ae4a28ad6dfbd1d39aac64ff" target="_top" xlink:title="Stop a timer.">
<polygon fill="white" stroke="black" points="563,-210 563,-231 706,-231 706,-210 563,-210"/>
<text text-anchor="middle" x="634.5" y="-217.4" font-family="Ubuntu Mono" font-size="12.00">messages::stop_time</text>
</a>
</g>
</g>
<!-- Node5&#45;&gt;Node11 -->
<g id="edge10" class="edge">
<title>Node5&#45;&gt;Node11</title>
<path fill="none" stroke="midnightblue" d="M488.82,-192C513.91,-196.94 544.01,-202.87 570.24,-208.04"/>
<polygon fill="midnightblue" stroke="midnightblue" points="569.6,-211.48 580.08,-209.98 570.95,-204.61 569.6,-211.48"/>
</g>
<!-- Node12 -->
<g id="node12" class="node">
<title>Node12</title>
<g id="a_node12"><a xlink:href="namespacestr__utilities.html#a219964a283968cc6a968db0197d2187e" target="_top" xlink:title="Convert a string to lowercase.">
<polygon fill="white" stroke="black" points="574,-132 574,-153 695,-153 695,-132 574,-132"/>
<text text-anchor="middle" x="634.5" y="-139.4" font-family="Ubuntu Mono" font-size="12.00">str_utilities::strh2l</text>
</a>
</g>
</g>
<!-- Node5&#45;&gt;Node12 -->
<g id="edge12" class="edge">
<title>Node5&#45;&gt;Node12</title>
<path fill="none" stroke="midnightblue" d="M488.82,-171C513.91,-166.06 544.01,-160.13 570.24,-154.96"/>
<polygon fill="midnightblue" stroke="midnightblue" points="570.95,-158.39 580.08,-153.02 569.6,-151.52 570.95,-158.39"/>
</g>
<!-- Node6&#45;&gt;Node7 -->
<g id="edge6" class="edge">
<title>Node6&#45;&gt;Node7</title>
<path fill="none" stroke="midnightblue" d="M687.61,-271C712.02,-275.92 741.28,-281.82 766.84,-286.97"/>
<polygon fill="midnightblue" stroke="midnightblue" points="766.3,-290.43 776.8,-288.98 767.69,-283.57 766.3,-290.43"/>
</g>
<!-- Node8 -->
<g id="node8" class="node">
<title>Node8</title>
<g id="a_node8"><a xlink:href="namespacemessages.html#a61fd0b51b5e37d58fdc993c01792a3fd" target="_top" xlink:title="Returns the time.">
<polygon fill="white" stroke="black" points="963.5,-269 963.5,-290 1103.5,-290 1103.5,-269 963.5,-269"/>
<text text-anchor="middle" x="1033.5" y="-276.4" font-family="Ubuntu Mono" font-size="12.00">messages::get_clock</text>
</a>
</g>
</g>
<!-- Node7&#45;&gt;Node8 -->
<g id="edge7" class="edge">
<title>Node7&#45;&gt;Node8</title>
<path fill="none" stroke="midnightblue" d="M887.13,-293.93C907.63,-291.89 931.22,-289.55 953.35,-287.36"/>
<polygon fill="midnightblue" stroke="midnightblue" points="953.79,-290.83 963.4,-286.36 953.1,-283.86 953.79,-290.83"/>
</g>
<!-- Node9 -->
<g id="node9" class="node">
<title>Node9</title>
<g id="a_node9"><a xlink:href="namespacemessages.html#a82dddaab795b78b3d39e1ff1aab2f665" target="_top" xlink:title="Returns the memory usage in kilobytes.">
<polygon fill="white" stroke="black" points="942,-309 942,-330 1125,-330 1125,-309 942,-309"/>
<text text-anchor="middle" x="1033.5" y="-316.4" font-family="Ubuntu Mono" font-size="12.00">messages::get_mem_usage</text>
</a>
</g>
</g>
<!-- Node7&#45;&gt;Node9 -->
<g id="edge8" class="edge">
<title>Node7&#45;&gt;Node9</title>
<path fill="none" stroke="midnightblue" d="M887.13,-305.07C901.08,-306.46 916.45,-307.98 931.83,-309.51"/>
<polygon fill="midnightblue" stroke="midnightblue" points="931.62,-313 941.91,-310.51 932.31,-306.04 931.62,-313"/>
</g>
<!-- Node10 -->
<g id="node10" class="node">
<title>Node10</title>
<g id="a_node10"><a xlink:href="namespacestr__utilities.html#a0b97e51770725a3e98ed393d26681414" target="_top" xlink:title="Convert an integer to string.">
<polygon fill="white" stroke="black" points="1162.5,-575 1162.5,-596 1276.5,-596 1276.5,-575 1162.5,-575"/>
<text text-anchor="middle" x="1219.5" y="-582.4" font-family="Ubuntu Mono" font-size="12.00">str_utilities::i2str</text>
</a>
</g>
</g>
<!-- Node7&#45;&gt;Node10 -->
<g id="edge9" class="edge">
<title>Node7&#45;&gt;Node10</title>
<path fill="none" stroke="midnightblue" d="M845.25,-310.02C903.52,-353.02 1123.96,-515.72 1195.75,-568.71"/>
<polygon fill="midnightblue" stroke="midnightblue" points="1194,-571.76 1204.12,-574.89 1198.15,-566.13 1194,-571.76"/>
</g>
<!-- Node11&#45;&gt;Node7 -->
<g id="edge11" class="edge">
<title>Node11&#45;&gt;Node7</title>
<path fill="none" stroke="midnightblue" d="M687.6,-231.03C697.82,-233.68 708.36,-236.83 718,-240.5 748.7,-252.17 781.67,-270.51 803.63,-283.64"/>
<polygon fill="midnightblue" stroke="midnightblue" points="801.96,-286.73 812.32,-288.92 805.59,-280.74 801.96,-286.73"/>
</g>
<!-- Node14 -->
<g id="node14" class="node">
<title>Node14</title>
<g id="a_node14"><a xlink:href="namespacevac__vars.html#af0fd2f819434bf7adc494753df4af19c" target="_top" xlink:title="Indicates whether current process is in the context.">
<polygon fill="white" stroke="black" points="565.5,-7 565.5,-28 703.5,-28 703.5,-7 565.5,-7"/>
<text text-anchor="middle" x="634.5" y="-14.4" font-family="Ubuntu Mono" font-size="12.00">vac_vars::in_context</text>
</a>
</g>
</g>
<!-- Node13&#45;&gt;Node14 -->
<g id="edge15" class="edge">
<title>Node13&#45;&gt;Node14</title>
<path fill="none" stroke="midnightblue" d="M493.04,-17.5C512.46,-17.5 534.49,-17.5 555.25,-17.5"/>
<polygon fill="midnightblue" stroke="midnightblue" points="555.32,-21 565.32,-17.5 555.32,-14 555.32,-21"/>
</g>
<!-- Node16 -->
<g id="node16" class="node">
<title>Node16</title>
<g id="a_node16"><a xlink:href="namespacemessages.html#a5686118397930f505259225f3688216b" target="_top" xlink:title="Print an array of dimension 1 on the screen.">
<polygon fill="white" stroke="black" points="562.5,-92 562.5,-113 706.5,-113 706.5,-92 562.5,-92"/>
<text text-anchor="middle" x="634.5" y="-99.4" font-family="Ubuntu Mono" font-size="12.00">messages::print_ar_1</text>
</a>
</g>
</g>
<!-- Node15&#45;&gt;Node16 -->
<g id="edge17" class="edge">
<title>Node15&#45;&gt;Node16</title>
<path fill="none" stroke="midnightblue" d="M506.7,-115.31C521.39,-113.82 536.96,-112.25 551.97,-110.73"/>
<polygon fill="midnightblue" stroke="midnightblue" points="552.67,-114.18 562.26,-109.7 551.96,-107.22 552.67,-114.18"/>
</g>
<!-- Node16&#45;&gt;Node7 -->
<g id="edge18" class="edge">
<title>Node16&#45;&gt;Node7</title>
<path fill="none" stroke="midnightblue" d="M700.7,-113.13C706.85,-115.63 712.74,-118.71 718,-122.5 774.25,-163.02 808.38,-241.7 822.07,-278.97"/>
<polygon fill="midnightblue" stroke="midnightblue" points="818.88,-280.47 825.52,-288.72 825.48,-278.13 818.88,-280.47"/>
</g>
<!-- Node17&#45;&gt;Node7 -->
<g id="edge21" class="edge">
<title>Node17&#45;&gt;Node7</title>
<path fill="none" stroke="midnightblue" d="M687.61,-328C712.02,-323.08 741.28,-317.18 766.84,-312.03"/>
<polygon fill="midnightblue" stroke="midnightblue" points="767.69,-315.43 776.8,-310.02 766.3,-308.57 767.69,-315.43"/>
</g>
<!-- Node19 -->
<g id="node19" class="node">
<title>Node19</title>
<g id="a_node19"><a xlink:href="namespaceoutput__ops.html#a50bfbb88cc91805469353c3ff47b3e2e" target="_top" xlink:title="Use external program to draw a plot.">
<polygon fill="white" stroke="black" points="364.5,-390 364.5,-411 504.5,-411 504.5,-390 364.5,-390"/>
<text text-anchor="middle" x="434.5" y="-397.4" font-family="Ubuntu Mono" font-size="12.00">output_ops::draw_ex</text>
</a>
</g>
</g>
<!-- Node18&#45;&gt;Node19 -->
<g id="edge23" class="edge">
<title>Node18&#45;&gt;Node19</title>
<path fill="none" stroke="midnightblue" d="M303.2,-393C319.3,-393.92 336.93,-394.94 353.87,-395.91"/>
<polygon fill="midnightblue" stroke="midnightblue" points="354.13,-399.43 364.32,-396.52 354.53,-392.45 354.13,-399.43"/>
</g>
<!-- Node19&#45;&gt;Node7 -->
<g id="edge28" class="edge">
<title>Node19&#45;&gt;Node7</title>
<path fill="none" stroke="midnightblue" d="M504.65,-396.8C562.79,-392.15 647.47,-381.72 718,-358.5 749.56,-348.11 782.84,-329.21 804.63,-315.6"/>
<polygon fill="midnightblue" stroke="midnightblue" points="806.67,-318.45 813.23,-310.13 802.92,-312.54 806.67,-318.45"/>
</g>
<!-- Node19&#45;&gt;Node10 -->
<g id="edge24" class="edge">
<title>Node19&#45;&gt;Node10</title>
<path fill="none" stroke="midnightblue" d="M445.41,-411.29C464.01,-430.76 506.31,-471.52 551,-490.5 658.78,-536.28 1005.8,-568.53 1152.28,-580.43"/>
<polygon fill="midnightblue" stroke="midnightblue" points="1152.22,-583.94 1162.47,-581.26 1152.79,-576.96 1152.22,-583.94"/>
</g>
<!-- Node19&#45;&gt;Node17 -->
<g id="edge25" class="edge">
<title>Node19&#45;&gt;Node17</title>
<path fill="none" stroke="midnightblue" d="M467.82,-390C490.95,-382.51 522.86,-372.27 551,-363.5 563.06,-359.74 576.13,-355.75 588.23,-352.08"/>
<polygon fill="midnightblue" stroke="midnightblue" points="589.57,-355.33 598.13,-349.08 587.55,-348.63 589.57,-355.33"/>
</g>
<!-- Node20 -->
<g id="node20" class="node">
<title>Node20</title>
<g id="a_node20"><a xlink:href="namespacefiles__utilities.html#ac6066df405564ba2f5e3c4bba726c1f8" target="_top" xlink:title="Search for available new unit.">
<polygon fill="white" stroke="black" points="562,-460 562,-481 707,-481 707,-460 562,-460"/>
<text text-anchor="middle" x="634.5" y="-467.4" font-family="Ubuntu Mono" font-size="12.00">files_utilities::nextunit</text>
</a>
</g>
</g>
<!-- Node19&#45;&gt;Node20 -->
<g id="edge26" class="edge">
<title>Node19&#45;&gt;Node20</title>
<path fill="none" stroke="midnightblue" d="M456.78,-411.02C479.64,-422.01 517.23,-439.19 551,-450.5 558.37,-452.97 566.2,-455.27 574,-457.36"/>
<polygon fill="midnightblue" stroke="midnightblue" points="573.25,-460.79 583.81,-459.91 575.01,-454.01 573.25,-460.79"/>
</g>
<!-- Node21 -->
<g id="node21" class="node">
<title>Node21</title>
<g id="a_node21"><a xlink:href="namespaceoutput__ops.html#aa9e4855511b6ea16a08b3efb587bec51" target="_top" xlink:title="Executes command line, or displays a message if disabled.">
<polygon fill="white" stroke="black" points="552,-406.5 552,-440.5 717,-440.5 717,-406.5 552,-406.5"/>
<text text-anchor="start" x="560" y="-426.9" font-family="Ubuntu Mono" font-size="12.00">output_ops::use_execute</text>
<text text-anchor="middle" x="634.5" y="-413.9" font-family="Ubuntu Mono" font-size="12.00">_command_line</text>
</a>
</g>
</g>
<!-- Node19&#45;&gt;Node21 -->
<g id="edge27" class="edge">
<title>Node19&#45;&gt;Node21</title>
<path fill="none" stroke="midnightblue" d="M504.75,-408.54C516.72,-409.93 529.32,-411.4 541.78,-412.85"/>
<polygon fill="midnightblue" stroke="midnightblue" points="541.38,-416.32 551.72,-414 542.19,-409.37 541.38,-416.32"/>
</g>
<!-- Node23 -->
<g id="node23" class="node">
<title>Node23</title>
<g id="a_node23"><a xlink:href="namespacex__utilities.html#a6072ddd1fd230758795ff320c75a1f6a" target="_top" xlink:title="Gets one of the the local ranges of contiguous tensorial perturbation variables to be printed or read...">
<polygon fill="white" stroke="black" points="372,-819.5 372,-853.5 497,-853.5 497,-819.5 372,-819.5"/>
<text text-anchor="start" x="380" y="-839.9" font-family="Ubuntu Mono" font-size="12.00">x_utilities::get_sec</text>
<text text-anchor="middle" x="434.5" y="-826.9" font-family="Ubuntu Mono" font-size="12.00">_x_range</text>
</a>
</g>
</g>
<!-- Node22&#45;&gt;Node23 -->
<g id="edge30" class="edge">
<title>Node22&#45;&gt;Node23</title>
<path fill="none" stroke="midnightblue" d="M261.51,-681.62C295.69,-712.4 367.59,-777.15 406.74,-812.4"/>
<polygon fill="midnightblue" stroke="midnightblue" points="404.79,-815.36 414.56,-819.45 409.48,-810.16 404.79,-815.36"/>
</g>
<!-- Node25 -->
<g id="node25" class="node">
<title>Node25</title>
<g id="a_node25"><a xlink:href="namespacehdf5__ops.html#a5108e0d6f6b492cb981505ebceedd9ee" target="_top" xlink:title="Reads a PB3D output file in HDF5 format.">
<polygon fill="white" stroke="black" points="354,-654 354,-675 515,-675 515,-654 354,-654"/>
<text text-anchor="middle" x="434.5" y="-661.4" font-family="Ubuntu Mono" font-size="12.00">hdf5_ops::read_hdf5_arr</text>
</a>
</g>
</g>
<!-- Node22&#45;&gt;Node25 -->
<g id="edge33" class="edge">
<title>Node22&#45;&gt;Node25</title>
<path fill="none" stroke="midnightblue" d="M316.07,-664.5C325.18,-664.5 334.57,-664.5 343.88,-664.5"/>
<polygon fill="midnightblue" stroke="midnightblue" points="343.94,-668 353.94,-664.5 343.94,-661 343.94,-668"/>
</g>
<!-- Node23&#45;&gt;Node2 -->
<g id="edge31" class="edge">
<title>Node23&#45;&gt;Node2</title>
<path fill="none" stroke="midnightblue" d="M497.06,-850.8C523.02,-856.83 553,-863.8 578.24,-869.66"/>
<polygon fill="midnightblue" stroke="midnightblue" points="577.49,-873.08 588.02,-871.93 579.07,-866.26 577.49,-873.08"/>
</g>
<!-- Node24 -->
<g id="node24" class="node">
<title>Node24</title>
<g id="a_node24"><a xlink:href="namespacex__utilities.html#a689aca7fedb49c43c5a65a18d557259f" target="_top" xlink:title="Determines whether a variable needs to be considered:">
<polygon fill="white" stroke="black" points="551,-832 551,-853 718,-853 718,-832 551,-832"/>
<text text-anchor="middle" x="634.5" y="-839.4" font-family="Ubuntu Mono" font-size="12.00">x_utilities::is_necessary_x</text>
</a>
</g>
</g>
<!-- Node23&#45;&gt;Node24 -->
<g id="edge32" class="edge">
<title>Node23&#45;&gt;Node24</title>
<path fill="none" stroke="midnightblue" d="M497.06,-838.37C510.9,-838.78 525.88,-839.24 540.67,-839.69"/>
<polygon fill="midnightblue" stroke="midnightblue" points="540.77,-843.19 550.87,-840 540.98,-836.19 540.77,-843.19"/>
</g>
<!-- Node25&#45;&gt;Node7 -->
<g id="edge56" class="edge">
<title>Node25&#45;&gt;Node7</title>
<path fill="none" stroke="midnightblue" d="M446.2,-653.8C465.71,-634.67 508.99,-594.15 551,-567.5 620.02,-523.72 657.54,-545.5 718,-490.5 772.71,-440.72 807.99,-357.54 822.06,-319.54"/>
<polygon fill="midnightblue" stroke="midnightblue" points="825.37,-320.68 825.47,-310.08 818.78,-318.3 825.37,-320.68"/>
</g>
<!-- Node25&#45;&gt;Node10 -->
<g id="edge34" class="edge">
<title>Node25&#45;&gt;Node10</title>
<path fill="none" stroke="midnightblue" d="M515.09,-659.26C643.68,-650.35 904.96,-630.34 1125,-601.5 1133.87,-600.34 1143.19,-598.95 1152.37,-597.48"/>
<polygon fill="midnightblue" stroke="midnightblue" points="1152.94,-600.93 1162.24,-595.86 1151.81,-594.02 1152.94,-600.93"/>
</g>
<!-- Node26 -->
<g id="node26" class="node">
<title>Node26</title>
<g id="a_node26"><a xlink:href="namespacehdf5__utilities.html#aa9d76166f970a7052cd0d96c8f3ee0be" target="_top" xlink:title="Lists all variables in a HDF5 group.">
<polygon fill="white" stroke="black" points="572,-576.5 572,-610.5 697,-610.5 697,-576.5 572,-576.5"/>
<text text-anchor="start" x="580" y="-596.9" font-family="Ubuntu Mono" font-size="12.00">hdf5_utilities::list</text>
<text text-anchor="middle" x="634.5" y="-583.9" font-family="Ubuntu Mono" font-size="12.00">_all_vars_in_group</text>
</a>
</g>
</g>
<!-- Node25&#45;&gt;Node26 -->
<g id="edge35" class="edge">
<title>Node25&#45;&gt;Node26</title>
<path fill="none" stroke="midnightblue" d="M465.14,-653.87C494.46,-643.36 540.07,-627 576.43,-613.96"/>
<polygon fill="midnightblue" stroke="midnightblue" points="577.71,-617.22 585.94,-610.55 575.35,-610.64 577.71,-617.22"/>
</g>
<!-- Node27 -->
<g id="node27" class="node">
<title>Node27</title>
<g id="a_node27"><a xlink:href="namespacempi__utilities.html#a5a789d05be41d6109c01f46cc98620c8" target="_top" xlink:title="Request access to lock of a BL (blocking) or optionally a NB (non&#45;blocking) type.">
<polygon fill="white" stroke="black" points="575,-725.5 575,-759.5 694,-759.5 694,-725.5 575,-725.5"/>
<text text-anchor="start" x="583" y="-745.9" font-family="Ubuntu Mono" font-size="12.00">mpi_utilities::lock</text>
<text text-anchor="middle" x="634.5" y="-732.9" font-family="Ubuntu Mono" font-size="12.00">_req_acc</text>
</a>
</g>
</g>
<!-- Node25&#45;&gt;Node27 -->
<g id="edge38" class="edge">
<title>Node25&#45;&gt;Node27</title>
<path fill="none" stroke="midnightblue" d="M456.89,-675.05C479.84,-686.14 517.51,-703.73 551,-716.5 556.09,-718.44 561.39,-720.35 566.74,-722.2"/>
<polygon fill="midnightblue" stroke="midnightblue" points="565.8,-725.58 576.39,-725.47 568.04,-718.95 565.8,-725.58"/>
</g>
<!-- Node35 -->
<g id="node35" class="node">
<title>Node35</title>
<g id="a_node35"><a xlink:href="namespacempi__utilities.html#a86f9982a0f92b51a916f832d9a3d8ba9" target="_top" xlink:title="Returns access to a lock.">
<polygon fill="white" stroke="black" points="575,-672.5 575,-706.5 694,-706.5 694,-672.5 575,-672.5"/>
<text text-anchor="start" x="583" y="-692.9" font-family="Ubuntu Mono" font-size="12.00">mpi_utilities::lock</text>
<text text-anchor="middle" x="634.5" y="-679.9" font-family="Ubuntu Mono" font-size="12.00">_return_acc</text>
</a>
</g>
</g>
<!-- Node25&#45;&gt;Node35 -->
<g id="edge50" class="edge">
<title>Node25&#45;&gt;Node35</title>
<path fill="none" stroke="midnightblue" d="M515.18,-674.56C531.57,-676.63 548.71,-678.79 564.68,-680.81"/>
<polygon fill="midnightblue" stroke="midnightblue" points="564.63,-684.33 574.99,-682.11 565.51,-677.39 564.63,-684.33"/>
</g>
<!-- Node36 -->
<g id="node36" class="node">
<title>Node36</title>
<g id="a_node36"><a xlink:href="namespacehdf5__utilities.html#a7574320980affc30a584f7776d33a51c" target="_top" xlink:title="Sets up the chunk property list and/or the 1D hyperslabs that correspond to a local subset of lim_tot...">
<polygon fill="white" stroke="black" points="576,-778.5 576,-812.5 693,-812.5 693,-778.5 576,-778.5"/>
<text text-anchor="start" x="584" y="-798.9" font-family="Ubuntu Mono" font-size="12.00">hdf5_utilities::set</text>
<text text-anchor="middle" x="634.5" y="-785.9" font-family="Ubuntu Mono" font-size="12.00">_1d_vars</text>
</a>
</g>
</g>
<!-- Node25&#45;&gt;Node36 -->
<g id="edge55" class="edge">
<title>Node25&#45;&gt;Node36</title>
<path fill="none" stroke="midnightblue" d="M444.24,-675.06C462.15,-696.03 505.18,-743.17 551,-769.5 555.8,-772.26 560.93,-774.76 566.2,-777.03"/>
<polygon fill="midnightblue" stroke="midnightblue" points="565.19,-780.39 575.77,-780.85 567.78,-773.89 565.19,-780.39"/>
</g>
<!-- Node26&#45;&gt;Node7 -->
<g id="edge37" class="edge">
<title>Node26&#45;&gt;Node7</title>
<path fill="none" stroke="midnightblue" d="M660.61,-576.44C678.32,-563.48 701.69,-544.36 718,-523.5 770.38,-456.51 807.61,-360.84 822.19,-319.64"/>
<polygon fill="midnightblue" stroke="midnightblue" points="825.5,-320.77 825.48,-310.17 818.89,-318.47 825.5,-320.77"/>
</g>
<!-- Node26&#45;&gt;Node10 -->
<g id="edge36" class="edge">
<title>Node26&#45;&gt;Node10</title>
<path fill="none" stroke="midnightblue" d="M697.06,-592.66C807.48,-591.14 1038.24,-587.97 1152.08,-586.41"/>
<polygon fill="midnightblue" stroke="midnightblue" points="1152.44,-589.91 1162.39,-586.27 1152.35,-582.91 1152.44,-589.91"/>
</g>
<!-- Node28 -->
<g id="node28" class="node">
<title>Node28</title>
<g id="a_node28"><a xlink:href="namespacempi__utilities.html#a17c39b0498528e2532c8347b0b7dec86" target="_top" xlink:title="Get notified that the rank can get the lock.">
<polygon fill="white" stroke="black" points="770.5,-875.5 770.5,-909.5 889.5,-909.5 889.5,-875.5 770.5,-875.5"/>
<text text-anchor="start" x="778.5" y="-895.9" font-family="Ubuntu Mono" font-size="12.00">mpi_utilities::lock</text>
<text text-anchor="middle" x="830" y="-882.9" font-family="Ubuntu Mono" font-size="12.00">_get_notified</text>
</a>
</g>
</g>
<!-- Node27&#45;&gt;Node28 -->
<g id="edge39" class="edge">
<title>Node27&#45;&gt;Node28</title>
<path fill="none" stroke="midnightblue" d="M694.11,-754.48C702.85,-758.21 711.2,-763.1 718,-769.5 749.67,-799.31 723.66,-829.34 754,-860.5 757.55,-864.15 761.58,-867.4 765.89,-870.3"/>
<polygon fill="midnightblue" stroke="midnightblue" points="764.09,-873.3 774.47,-875.45 767.69,-867.3 764.09,-873.3"/>
</g>
<!-- Node29 -->
<g id="node29" class="node">
<title>Node29</title>
<g id="a_node29"><a xlink:href="namespacempi__utilities.html#abe5bf3ae3b6a06eda18c2f4d62ac09c5" target="_top" xlink:title="Returns the header for lock debug messages.">
<polygon fill="white" stroke="black" points="974,-780.5 974,-814.5 1093,-814.5 1093,-780.5 974,-780.5"/>
<text text-anchor="start" x="982" y="-800.9" font-family="Ubuntu Mono" font-size="12.00">mpi_utilities::lock</text>
<text text-anchor="middle" x="1033.5" y="-787.9" font-family="Ubuntu Mono" font-size="12.00">_header</text>
</a>
</g>
</g>
<!-- Node27&#45;&gt;Node29 -->
<g id="edge43" class="edge">
<title>Node27&#45;&gt;Node29</title>
<path fill="none" stroke="midnightblue" d="M694.02,-755.92C702.58,-759.46 710.89,-763.91 718,-769.5 741.86,-788.24 727.49,-812.75 754,-827.5 827.07,-868.14 927.61,-840.66 985.76,-818.23"/>
<polygon fill="midnightblue" stroke="midnightblue" points="987.06,-821.48 995.07,-814.54 984.48,-814.97 987.06,-821.48"/>
</g>
<!-- Node31 -->
<g id="node31" class="node">
<title>Node31</title>
<g id="a_node31"><a xlink:href="namespacempi__utilities.html#a263a30c79639d97f5faffdb566b5a811" target="_top" xlink:title="Notifies a rank that they can get the lock.">
<polygon fill="white" stroke="black" points="770.5,-783.5 770.5,-817.5 889.5,-817.5 889.5,-783.5 770.5,-783.5"/>
<text text-anchor="start" x="778.5" y="-803.9" font-family="Ubuntu Mono" font-size="12.00">mpi_utilities::lock</text>
<text text-anchor="middle" x="830" y="-790.9" font-family="Ubuntu Mono" font-size="12.00">_notify</text>
</a>
</g>
</g>
<!-- Node27&#45;&gt;Node31 -->
<g id="edge44" class="edge">
<title>Node27&#45;&gt;Node31</title>
<path fill="none" stroke="midnightblue" d="M692.25,-759.51C714.3,-766.12 739.72,-773.74 762.61,-780.6"/>
<polygon fill="midnightblue" stroke="midnightblue" points="761.67,-783.97 772.25,-783.49 763.68,-777.27 761.67,-783.97"/>
</g>
<!-- Node32 -->
<g id="node32" class="node">
<title>Node32</title>
<g id="a_node32"><a xlink:href="namespacempi__utilities.html#a3b0349e5ec825e14083e3126c3e7ba65" target="_top" xlink:title="Adds, removes or sets to active a rank from the waiting list for a lock and returns the lock waiting ...">
<polygon fill="white" stroke="black" points="770.5,-730.5 770.5,-764.5 889.5,-764.5 889.5,-730.5 770.5,-730.5"/>
<text text-anchor="start" x="778.5" y="-750.9" font-family="Ubuntu Mono" font-size="12.00">mpi_utilities::lock</text>
<text text-anchor="middle" x="830" y="-737.9" font-family="Ubuntu Mono" font-size="12.00">_wl_change</text>
</a>
</g>
</g>
<!-- Node27&#45;&gt;Node32 -->
<g id="edge46" class="edge">
<title>Node27&#45;&gt;Node32</title>
<path fill="none" stroke="midnightblue" d="M694.08,-744.01C714.92,-744.55 738.57,-745.16 760.19,-745.72"/>
<polygon fill="midnightblue" stroke="midnightblue" points="760.2,-749.22 770.28,-745.98 760.38,-742.23 760.2,-749.22"/>
</g>
<!-- Node34 -->
<g id="node34" class="node">
<title>Node34</title>
<g id="a_node34"><a xlink:href="namespacempi__utilities.html#a74e2e82b561f403ca8087c3925f76e29" target="_top" xlink:title="Decides whether a waiting list is empty.">
<polygon fill="white" stroke="black" points="754,-690 754,-711 906,-711 906,-690 754,-690"/>
<text text-anchor="middle" x="830" y="-697.4" font-family="Ubuntu Mono" font-size="12.00">mpi_utilities::wl_empty</text>
</a>
</g>
</g>
<!-- Node27&#45;&gt;Node34 -->
<g id="edge49" class="edge">
<title>Node27&#45;&gt;Node34</title>
<path fill="none" stroke="midnightblue" d="M694.08,-729.78C718.33,-724.52 746.38,-718.43 770.61,-713.17"/>
<polygon fill="midnightblue" stroke="midnightblue" points="771.35,-716.59 780.38,-711.05 769.87,-709.75 771.35,-716.59"/>
</g>
<!-- Node28&#45;&gt;Node29 -->
<g id="edge40" class="edge">
<title>Node28&#45;&gt;Node29</title>
<path fill="none" stroke="midnightblue" d="M872.06,-875.49C883.14,-870.77 895.08,-865.55 906,-860.5 934.44,-847.36 965.98,-831.66 990.45,-819.22"/>
<polygon fill="midnightblue" stroke="midnightblue" points="992.15,-822.28 999.47,-814.62 988.97,-816.04 992.15,-822.28"/>
</g>
<!-- Node29&#45;&gt;Node10 -->
<g id="edge41" class="edge">
<title>Node29&#45;&gt;Node10</title>
<path fill="none" stroke="midnightblue" d="M1093.05,-785.48C1104.52,-781.18 1115.82,-775.36 1125,-767.5 1176.57,-723.34 1203.25,-643.67 1213.47,-606.13"/>
<polygon fill="midnightblue" stroke="midnightblue" points="1216.89,-606.88 1216.02,-596.32 1210.11,-605.11 1216.89,-606.88"/>
</g>
<!-- Node30 -->
<g id="node30" class="node">
<title>Node30</title>
<g id="a_node30"><a xlink:href="namespacestr__utilities.html#acb8c4e66aead51f178e47fdea8d7a7db" target="_top" xlink:title="Convert an integer to string.">
<polygon fill="white" stroke="black" points="1161,-787 1161,-808 1278,-808 1278,-787 1161,-787"/>
<text text-anchor="middle" x="1219.5" y="-794.4" font-family="Ubuntu Mono" font-size="12.00">str_utilities::ii2str</text>
</a>
</g>
</g>
<!-- Node29&#45;&gt;Node30 -->
<g id="edge42" class="edge">
<title>Node29&#45;&gt;Node30</title>
<path fill="none" stroke="midnightblue" d="M1093.22,-797.5C1111.59,-797.5 1132,-797.5 1150.92,-797.5"/>
<polygon fill="midnightblue" stroke="midnightblue" points="1150.96,-801 1160.96,-797.5 1150.96,-794 1150.96,-801"/>
</g>
<!-- Node31&#45;&gt;Node29 -->
<g id="edge45" class="edge">
<title>Node31&#45;&gt;Node29</title>
<path fill="none" stroke="midnightblue" d="M889.55,-799.63C912.73,-799.28 939.55,-798.88 963.66,-798.52"/>
<polygon fill="midnightblue" stroke="midnightblue" points="963.85,-802.02 973.8,-798.37 963.75,-795.02 963.85,-802.02"/>
</g>
<!-- Node32&#45;&gt;Node29 -->
<g id="edge47" class="edge">
<title>Node32&#45;&gt;Node29</title>
<path fill="none" stroke="midnightblue" d="M889.55,-762.03C912.84,-767.81 939.79,-774.5 963.98,-780.5"/>
<polygon fill="midnightblue" stroke="midnightblue" points="963.25,-783.92 973.8,-782.93 964.94,-777.13 963.25,-783.92"/>
</g>
<!-- Node33 -->
<g id="node33" class="node">
<title>Node33</title>
<g id="a_node33"><a xlink:href="namespacestr__utilities.html#ac778d706b2e021672618939ab58fdd32" target="_top" xlink:title="Convert a real (double) to string.">
<polygon fill="white" stroke="black" points="973,-737 973,-758 1094,-758 1094,-737 973,-737"/>
<text text-anchor="middle" x="1033.5" y="-744.4" font-family="Ubuntu Mono" font-size="12.00">str_utilities::r2strt</text>
</a>
</g>
</g>
<!-- Node32&#45;&gt;Node33 -->
<g id="edge48" class="edge">
<title>Node32&#45;&gt;Node33</title>
<path fill="none" stroke="midnightblue" d="M889.55,-747.5C912.43,-747.5 938.85,-747.5 962.7,-747.5"/>
<polygon fill="midnightblue" stroke="midnightblue" points="962.75,-751 972.75,-747.5 962.75,-744 962.75,-751"/>
</g>
<!-- Node35&#45;&gt;Node29 -->
<g id="edge51" class="edge">
<title>Node35&#45;&gt;Node29</title>
<path fill="none" stroke="midnightblue" d="M682.81,-672.49C740.66,-654.92 839.1,-635.78 906,-680.5 940.79,-703.75 911.36,-739 942,-767.5 948.52,-773.56 956.29,-778.4 964.5,-782.26"/>
<polygon fill="midnightblue" stroke="midnightblue" points="963.34,-785.57 973.91,-786.22 966.05,-779.12 963.34,-785.57"/>
</g>
<!-- Node35&#45;&gt;Node31 -->
<g id="edge52" class="edge">
<title>Node35&#45;&gt;Node31</title>
<path fill="none" stroke="midnightblue" d="M694.02,-702.92C702.58,-706.46 710.89,-710.91 718,-716.5 741.86,-735.24 730.3,-755.55 754,-774.5 756.4,-776.42 758.95,-778.2 761.6,-779.85"/>
<polygon fill="midnightblue" stroke="midnightblue" points="759.94,-782.93 770.39,-784.71 763.33,-776.81 759.94,-782.93"/>
</g>
<!-- Node35&#45;&gt;Node32 -->
<g id="edge53" class="edge">
<title>Node35&#45;&gt;Node32</title>
<path fill="none" stroke="midnightblue" d="M692.25,-706.51C714.3,-713.12 739.72,-720.74 762.61,-727.6"/>
<polygon fill="midnightblue" stroke="midnightblue" points="761.67,-730.97 772.25,-730.49 763.68,-724.27 761.67,-730.97"/>
</g>
<!-- Node35&#45;&gt;Node34 -->
<g id="edge54" class="edge">
<title>Node35&#45;&gt;Node34</title>
<path fill="none" stroke="midnightblue" d="M694.08,-692.83C709.65,-693.72 726.79,-694.69 743.47,-695.64"/>
<polygon fill="midnightblue" stroke="midnightblue" points="743.6,-699.15 753.79,-696.22 744,-692.16 743.6,-699.15"/>
</g>
</g>
</svg>
