<?xml version="1.0" encoding="UTF-8" standalone="no"?>
<!DOCTYPE svg PUBLIC "-//W3C//DTD SVG 1.1//EN"
 "http://www.w3.org/Graphics/SVG/1.1/DTD/svg11.dtd">
<!-- Generated by graphviz version 14.1.2 (20260124.0452)
 -->
<!-- Title: mpi_utilities::lock_wl_change Pages: 1 -->
<svg width="494pt" height="138pt"
 viewBox="0.00 0.00 494.00 138.00" xmlns="http://www.w3.org/2000/svg" xmlns:xlink="http://www.w3.org/1999/xlink">
<g id="graph0" class="graph" transform="scale(1 1) rotate(0) translate(4 133.75)">
<title>mpi_utilities::lock_wl_change</title>
<!-- Node1 -->
<g id="Node000001" class="node">
<title>Node1</title>
<g id="a_Node000001"><a xlink:title="Adds, removes or sets to active a rank from the waiting list for a lock and returns the lock waiting ...">
<polygon fill="#999999" stroke="#666666" points="130,-58.12 0,-58.12 0,-24.62 130,-24.62 130,-58.12"/>
<text xml:space="preserve" text-anchor="start" x="8" y="-42.73" font-family="Ubuntu Mono" font-size="12.00">mpi_utilities::lock</text>
<text xml:space="preserve" text-anchor="middle" x="65" y="-29.98" font-family="Ubuntu Mono" font-size="12.00">_wl_change</text>
</a>
</g>
</g>
<!-- Node2 -->
<g id="Node000002" class="node">
<title>Node2</title>
<g id="a_Node000002"><a xlink:href="namespacempi__utilities.html#abe5bf3ae3b6a06eda18c2f4d62ac09c5" target="_top" xlink:title="Returns the header for lock debug messages.">
<polygon fill="white" stroke="#666666" points="302,-90.12 172,-90.12 172,-56.62 302,-56.62 302,-90.12"/>
<text xml:space="preserve" text-anchor="start" x="180" y="-74.72" font-family="Ubuntu Mono" font-size="12.00">mpi_utilities::lock</text>
<text xml:space="preserve" text-anchor="middle" x="237" y="-61.98" font-family="Ubuntu Mono" font-size="12.00">_header</text>
</a>
</g>
</g>
<!-- Node1&#45;&gt;Node2 -->
<g id="edge1_Node000001_Node000002" class="edge">
<title>Node1&#45;&gt;Node2</title>
<g id="a_edge1_Node000001_Node000002"><a xlink:title=" ">
<path fill="none" stroke="#63b8ff" d="M130.27,-53.47C140.11,-55.32 150.34,-57.25 160.39,-59.14"/>
<polygon fill="#63b8ff" stroke="#63b8ff" points="159.68,-62.57 170.15,-60.98 160.97,-55.69 159.68,-62.57"/>
</a>
</g>
</g>
<!-- Node5 -->
<g id="Node000005" class="node">
<title>Node5</title>
<g id="a_Node000005"><a xlink:href="namespacestr__utilities.html#ac778d706b2e021672618939ab58fdd32" target="_top" xlink:title="Convert a real (double) to string.">
<polygon fill="white" stroke="#666666" points="308,-20.75 166,-20.75 166,0 308,0 308,-20.75"/>
<text xml:space="preserve" text-anchor="middle" x="237" y="-5.35" font-family="Ubuntu Mono" font-size="12.00">str_utilities::r2strt</text>
</a>
</g>
</g>
<!-- Node1&#45;&gt;Node5 -->
<g id="edge6_Node000001_Node000005" class="edge">
<title>Node1&#45;&gt;Node5</title>
<g id="a_edge6_Node000001_Node000005"><a xlink:title=" ">
<path fill="none" stroke="#63b8ff" d="M130.27,-29.66C141.74,-27.56 153.75,-25.37 165.39,-23.25"/>
<polygon fill="#63b8ff" stroke="#63b8ff" points="165.7,-26.75 174.91,-21.51 164.45,-19.87 165.7,-26.75"/>
</a>
</g>
</g>
<!-- Node3 -->
<g id="Node000003" class="node">
<title>Node3</title>
<g id="a_Node000003"><a xlink:href="namespacestr__utilities.html#a0b97e51770725a3e98ed393d26681414" target="_top" xlink:title="Convert an integer to string.">
<polygon fill="white" stroke="#666666" points="483,-111.75 347,-111.75 347,-91 483,-91 483,-111.75"/>
<text xml:space="preserve" text-anchor="middle" x="415" y="-96.35" font-family="Ubuntu Mono" font-size="12.00">str_utilities::i2str</text>
</a>
</g>
</g>
<!-- Node2&#45;&gt;Node3 -->
<g id="edge2_Node000002_Node000003" class="edge">
<title>Node2&#45;&gt;Node3</title>
<g id="a_edge2_Node000002_Node000003"><a xlink:title=" ">
<path fill="none" stroke="#63b8ff" d="M302.04,-83.56C312.95,-85.3 324.39,-87.12 335.62,-88.91"/>
<polygon fill="#63b8ff" stroke="#63b8ff" points="334.83,-92.32 345.26,-90.44 335.93,-85.41 334.83,-92.32"/>
</a>
</g>
</g>
<!-- Node4 -->
<g id="Node000004" class="node">
<title>Node4</title>
<g id="a_Node000004"><a xlink:href="namespacestr__utilities.html#acb8c4e66aead51f178e47fdea8d7a7db" target="_top" xlink:title="Convert an integer to string.">
<polygon fill="white" stroke="#666666" points="486,-54.75 344,-54.75 344,-34 486,-34 486,-54.75"/>
<text xml:space="preserve" text-anchor="middle" x="415" y="-39.35" font-family="Ubuntu Mono" font-size="12.00">str_utilities::ii2str</text>
</a>
</g>
</g>
<!-- Node2&#45;&gt;Node4 -->
<g id="edge4_Node000002_Node000004" class="edge">
<title>Node2&#45;&gt;Node4</title>
<g id="a_edge4_Node000002_Node000004"><a xlink:title=" ">
<path fill="none" stroke="#63b8ff" d="M302.04,-62.82C313.43,-60.95 325.41,-58.97 337.12,-57.04"/>
<polygon fill="#63b8ff" stroke="#63b8ff" points="337.45,-60.54 346.74,-55.46 336.31,-53.63 337.45,-60.54"/>
</a>
</g>
</g>
<!-- Node3&#45;&gt;Node3 -->
<g id="edge3_Node000003_Node000003" class="edge">
<title>Node3&#45;&gt;Node3</title>
<g id="a_edge3_Node000003_Node000003"><a xlink:title=" ">
<path fill="none" stroke="#63b8ff" d="M386.32,-112.15C374.85,-120.81 384.41,-129.75 415,-129.75 431.73,-129.75 442.17,-127.08 446.32,-123.24"/>
<polygon fill="#63b8ff" stroke="#63b8ff" points="449.75,-122.54 444.03,-113.62 442.94,-124.16 449.75,-122.54"/>
</a>
</g>
</g>
<!-- Node4&#45;&gt;Node4 -->
<g id="edge5_Node000004_Node000004" class="edge">
<title>Node4&#45;&gt;Node4</title>
<g id="a_edge5_Node000004_Node000004"><a xlink:title=" ">
<path fill="none" stroke="#63b8ff" d="M386.32,-55.15C374.85,-63.81 384.41,-72.75 415,-72.75 431.73,-72.75 442.17,-70.08 446.32,-66.24"/>
<polygon fill="#63b8ff" stroke="#63b8ff" points="449.75,-65.54 444.03,-56.62 442.94,-67.16 449.75,-65.54"/>
</a>
</g>
</g>
<!-- Node5&#45;&gt;Node5 -->
<g id="edge7_Node000005_Node000005" class="edge">
<title>Node5&#45;&gt;Node5</title>
<g id="a_edge7_Node000005_Node000005"><a xlink:title=" ">
<path fill="none" stroke="#63b8ff" d="M209.29,-21.15C198.2,-29.81 207.44,-38.75 237,-38.75 253.17,-38.75 263.26,-36.08 267.27,-32.24"/>
<polygon fill="#63b8ff" stroke="#63b8ff" points="270.71,-31.58 265.05,-22.62 263.89,-33.15 270.71,-31.58"/>
</a>
</g>
</g>
</g>
</svg>
