<?xml version="1.0" encoding="UTF-8" standalone="no"?>
<!DOCTYPE svg PUBLIC "-//W3C//DTD SVG 1.1//EN"
 "http://www.w3.org/Graphics/SVG/1.1/DTD/svg11.dtd">
<!-- Generated by graphviz version 14.1.2 (20260124.0452)
 -->
<!-- Title: pb3d_ops::reconstruct_pb3d_grid Pages: 1 -->
<svg width="1224pt" height="277pt"
 viewBox="0.00 0.00 1224.00 277.00" xmlns="http://www.w3.org/2000/svg" xmlns:xlink="http://www.w3.org/1999/xlink">
<g id="graph0" class="graph" transform="scale(1 1) rotate(0) translate(4 273.02)">
<title>pb3d_ops::reconstruct_pb3d_grid</title>
<!-- Node1 -->
<g id="Node000001" class="node">
<title>Node1</title>
<g id="a_Node000001"><a xlink:title="Reconstructs grid variables from PB3D HDF5 output.">
<polygon fill="#999999" stroke="#666666" points="142,-111.5 0,-111.5 0,-78 142,-78 142,-111.5"/>
<text xml:space="preserve" text-anchor="start" x="8" y="-96.1" font-family="Ubuntu Mono" font-size="12.00">pb3d_ops::reconstruct</text>
<text xml:space="preserve" text-anchor="middle" x="71" y="-83.35" font-family="Ubuntu Mono" font-size="12.00">_pb3d_grid</text>
</a>
</g>
</g>
<!-- Node2 -->
<g id="Node000002" class="node">
<title>Node2</title>
<g id="a_Node000002"><a xlink:href="namespacepb3d__ops.html#a528ae2857b7272d29d96f66ee60980a7" target="_top" xlink:title="get grid size">
<polygon fill="white" stroke="#666666" points="311,-137.5 187,-137.5 187,-104 311,-104 311,-137.5"/>
<text xml:space="preserve" text-anchor="start" x="195" y="-122.1" font-family="Ubuntu Mono" font-size="12.00">pb3d_ops::get_pb3d</text>
<text xml:space="preserve" text-anchor="middle" x="249" y="-109.35" font-family="Ubuntu Mono" font-size="12.00">_grid_size</text>
</a>
</g>
</g>
<!-- Node1&#45;&gt;Node2 -->
<g id="edge1_Node000001_Node000002" class="edge">
<title>Node1&#45;&gt;Node2</title>
<g id="a_edge1_Node000001_Node000002"><a xlink:title=" ">
<path fill="none" stroke="#63b8ff" d="M142.32,-105.14C153.19,-106.74 164.44,-108.41 175.36,-110.02"/>
<polygon fill="#63b8ff" stroke="#63b8ff" points="174.7,-113.46 185.1,-111.46 175.72,-106.53 174.7,-113.46"/>
</a>
</g>
</g>
<!-- Node3 -->
<g id="Node000003" class="node">
<title>Node3</title>
<g id="a_Node000003"><a xlink:href="namespacehdf5__ops.html#ad14fad6af31ce64338c421cb9a8b5ac7" target="_top" xlink:title="Reads a PB3D output file in HDF5 format.">
<polygon fill="white" stroke="#666666" points="510,-153.12 356,-153.12 356,-132.38 510,-132.38 510,-153.12"/>
<text xml:space="preserve" text-anchor="middle" x="433" y="-137.72" font-family="Ubuntu Mono" font-size="12.00">hdf5_ops::read_hdf5_arr</text>
</a>
</g>
</g>
<!-- Node1&#45;&gt;Node3 -->
<g id="edge24_Node000001_Node000003" class="edge">
<title>Node1&#45;&gt;Node3</title>
<g id="a_edge24_Node000001_Node000003"><a xlink:title=" ">
<path fill="none" stroke="#63b8ff" d="M98.17,-111.81C118.89,-124.24 149.05,-140.03 178,-146.75 232.3,-159.35 294.91,-158.53 344.37,-154.48"/>
<polygon fill="#63b8ff" stroke="#63b8ff" points="344.53,-157.98 354.18,-153.61 343.91,-151 344.53,-157.98"/>
</a>
</g>
</g>
<!-- Node15 -->
<g id="Node000015" class="node">
<title>Node15</title>
<g id="a_Node000015"><a xlink:href="namespacepb3d__utilities.html#ad047cd7b197aae821e2565933faccfa3" target="_top" xlink:title="Setup parallel id.">
<polygon fill="white" stroke="#666666" points="320,-85.5 178,-85.5 178,-52 320,-52 320,-85.5"/>
<text xml:space="preserve" text-anchor="start" x="186" y="-70.1" font-family="Ubuntu Mono" font-size="12.00">pb3d_utilities::setup</text>
<text xml:space="preserve" text-anchor="middle" x="249" y="-57.35" font-family="Ubuntu Mono" font-size="12.00">_par_id</text>
</a>
</g>
</g>
<!-- Node1&#45;&gt;Node15 -->
<g id="edge25_Node000001_Node000015" class="edge">
<title>Node1&#45;&gt;Node15</title>
<g id="a_edge25_Node000001_Node000015"><a xlink:title=" ">
<path fill="none" stroke="#63b8ff" d="M142.32,-84.36C150.19,-83.2 158.26,-82.01 166.27,-80.82"/>
<polygon fill="#63b8ff" stroke="#63b8ff" points="166.63,-84.31 176.01,-79.39 165.6,-77.38 166.63,-84.31"/>
</a>
</g>
</g>
<!-- Node16 -->
<g id="Node000016" class="node">
<title>Node16</title>
<g id="a_Node000016"><a xlink:href="namespacepb3d__utilities.html#ab461e756a85b3c6e8fa1ccaa6556c5b0" target="_top" xlink:title="Returns richardson id.">
<polygon fill="white" stroke="#666666" points="320,-33.5 178,-33.5 178,0 320,0 320,-33.5"/>
<text xml:space="preserve" text-anchor="start" x="186" y="-18.1" font-family="Ubuntu Mono" font-size="12.00">pb3d_utilities::setup</text>
<text xml:space="preserve" text-anchor="middle" x="249" y="-5.35" font-family="Ubuntu Mono" font-size="12.00">_rich_id</text>
</a>
</g>
</g>
<!-- Node1&#45;&gt;Node16 -->
<g id="edge26_Node000001_Node000016" class="edge">
<title>Node1&#45;&gt;Node16</title>
<g id="a_edge26_Node000001_Node000016"><a xlink:title=" ">
<path fill="none" stroke="#63b8ff" d="M104.55,-77.73C125.32,-67.13 152.95,-53.51 178,-42.75 181.73,-41.15 185.6,-39.54 189.52,-37.97"/>
<polygon fill="#63b8ff" stroke="#63b8ff" points="190.49,-41.35 198.52,-34.43 187.93,-34.83 190.49,-41.35"/>
</a>
</g>
</g>
<!-- Node2&#45;&gt;Node3 -->
<g id="edge2_Node000002_Node000003" class="edge">
<title>Node2&#45;&gt;Node3</title>
<g id="a_edge2_Node000002_Node000003"><a xlink:title=" ">
<path fill="none" stroke="#63b8ff" d="M311.36,-128.17C322.04,-129.46 333.34,-130.82 344.56,-132.18"/>
<polygon fill="#63b8ff" stroke="#63b8ff" points="343.88,-135.62 354.22,-133.35 344.72,-128.67 343.88,-135.62"/>
</a>
</g>
</g>
<!-- Node4 -->
<g id="Node000004" class="node">
<title>Node4</title>
<g id="a_Node000004"><a xlink:href="namespacestr__utilities.html#a0b97e51770725a3e98ed393d26681414" target="_top" xlink:title="Convert an integer to string.">
<polygon fill="white" stroke="#666666" points="1213,-205.12 1077,-205.12 1077,-184.38 1213,-184.38 1213,-205.12"/>
<text xml:space="preserve" text-anchor="middle" x="1145" y="-189.72" font-family="Ubuntu Mono" font-size="12.00">str_utilities::i2str</text>
</a>
</g>
</g>
<!-- Node3&#45;&gt;Node4 -->
<g id="edge3_Node000003_Node000004" class="edge">
<title>Node3&#45;&gt;Node4</title>
<g id="a_edge3_Node000003_Node000004"><a xlink:title=" ">
<path fill="none" stroke="#63b8ff" d="M442.12,-153.33C458.85,-174.14 499.48,-219.82 546,-236.75 743.75,-308.74 1002.2,-240.8 1102.08,-209.07"/>
<polygon fill="#63b8ff" stroke="#63b8ff" points="1103.03,-212.44 1111.47,-206.04 1100.88,-205.78 1103.03,-212.44"/>
</a>
</g>
</g>
<!-- Node5 -->
<g id="Node000005" class="node">
<title>Node5</title>
<g id="a_Node000005"><a xlink:href="namespacehdf5__utilities.html#aa9d76166f970a7052cd0d96c8f3ee0be" target="_top" xlink:title="Lists all variables in a HDF5 group.">
<polygon fill="white" stroke="#666666" points="682,-227.5 546,-227.5 546,-194 682,-194 682,-227.5"/>
<text xml:space="preserve" text-anchor="start" x="554" y="-212.1" font-family="Ubuntu Mono" font-size="12.00">hdf5_utilities::list</text>
<text xml:space="preserve" text-anchor="middle" x="614" y="-199.35" font-family="Ubuntu Mono" font-size="12.00">_all_vars_in_group</text>
</a>
</g>
</g>
<!-- Node3&#45;&gt;Node5 -->
<g id="edge5_Node000003_Node000005" class="edge">
<title>Node3&#45;&gt;Node5</title>
<g id="a_edge5_Node000003_Node000005"><a xlink:title=" ">
<path fill="none" stroke="#63b8ff" d="M462.36,-153.52C487.78,-163.18 525.8,-177.63 557.29,-189.59"/>
<polygon fill="#63b8ff" stroke="#63b8ff" points="555.68,-192.72 566.27,-193 558.17,-186.18 555.68,-192.72"/>
</a>
</g>
</g>
<!-- Node6 -->
<g id="Node000006" class="node">
<title>Node6</title>
<g id="a_Node000006"><a xlink:href="namespacemessages.html#aa4a8d01563e92558e8a0875b075ec54c" target="_top" xlink:title="Write output to file identified by output_i.">
<polygon fill="white" stroke="#666666" points="836,-181.12 730,-181.12 730,-160.38 836,-160.38 836,-181.12"/>
<text xml:space="preserve" text-anchor="middle" x="783" y="-165.72" font-family="Ubuntu Mono" font-size="12.00">messages::writo</text>
</a>
</g>
</g>
<!-- Node3&#45;&gt;Node6 -->
<g id="edge23_Node000003_Node000006" class="edge">
<title>Node3&#45;&gt;Node6</title>
<g id="a_edge23_Node000003_Node000006"><a xlink:title=" ">
<path fill="none" stroke="#63b8ff" d="M510.37,-148.89C572.64,-153.91 659.59,-160.9 718.19,-165.62"/>
<polygon fill="#63b8ff" stroke="#63b8ff" points="717.76,-169.09 728.01,-166.41 718.32,-162.12 717.76,-169.09"/>
</a>
</g>
</g>
<!-- Node8 -->
<g id="Node000008" class="node">
<title>Node8</title>
<g id="a_Node000008"><a xlink:href="namespacempi__utilities.html#a5a789d05be41d6109c01f46cc98620c8" target="_top" xlink:title="Request access to lock of a BL (blocking) or optionally a NB (non&#45;blocking) type.">
<polygon fill="white" stroke="#666666" points="679,-85.5 549,-85.5 549,-52 679,-52 679,-85.5"/>
<text xml:space="preserve" text-anchor="start" x="557" y="-70.1" font-family="Ubuntu Mono" font-size="12.00">mpi_utilities::lock</text>
<text xml:space="preserve" text-anchor="middle" x="614" y="-57.35" font-family="Ubuntu Mono" font-size="12.00">_req_acc</text>
</a>
</g>
</g>
<!-- Node3&#45;&gt;Node8 -->
<g id="edge10_Node000003_Node000008" class="edge">
<title>Node3&#45;&gt;Node8</title>
<g id="a_edge10_Node000003_Node000008"><a xlink:title=" ">
<path fill="none" stroke="#63b8ff" d="M458.37,-132.02C480.99,-122.12 515.64,-107.14 546,-94.75 549.8,-93.2 553.74,-91.61 557.71,-90.03"/>
<polygon fill="#63b8ff" stroke="#63b8ff" points="558.8,-93.36 566.82,-86.43 556.23,-86.85 558.8,-93.36"/>
</a>
</g>
</g>
<!-- Node13 -->
<g id="Node000013" class="node">
<title>Node13</title>
<g id="a_Node000013"><a xlink:href="namespacempi__utilities.html#a86f9982a0f92b51a916f832d9a3d8ba9" target="_top" xlink:title="Returns access to a lock.">
<polygon fill="white" stroke="#666666" points="679,-137.5 549,-137.5 549,-104 679,-104 679,-137.5"/>
<text xml:space="preserve" text-anchor="start" x="557" y="-122.1" font-family="Ubuntu Mono" font-size="12.00">mpi_utilities::lock</text>
<text xml:space="preserve" text-anchor="middle" x="614" y="-109.35" font-family="Ubuntu Mono" font-size="12.00">_return_acc</text>
</a>
</g>
</g>
<!-- Node3&#45;&gt;Node13 -->
<g id="edge19_Node000003_Node000013" class="edge">
<title>Node3&#45;&gt;Node13</title>
<g id="a_edge19_Node000003_Node000013"><a xlink:title=" ">
<path fill="none" stroke="#63b8ff" d="M510.43,-133.36C519.38,-132.26 528.52,-131.13 537.46,-130.03"/>
<polygon fill="#63b8ff" stroke="#63b8ff" points="537.65,-133.54 547.15,-128.84 536.8,-126.59 537.65,-133.54"/>
</a>
</g>
</g>
<!-- Node14 -->
<g id="Node000014" class="node">
<title>Node14</title>
<g id="a_Node000014"><a xlink:href="namespacehdf5__utilities.html#a7574320980affc30a584f7776d33a51c" target="_top" xlink:title="Sets up the chunk property list and/or the 1D hyperslabs that correspond to a local subset of lim_tot...">
<polygon fill="white" stroke="#666666" points="679,-33.5 549,-33.5 549,0 679,0 679,-33.5"/>
<text xml:space="preserve" text-anchor="start" x="557" y="-18.1" font-family="Ubuntu Mono" font-size="12.00">hdf5_utilities::set</text>
<text xml:space="preserve" text-anchor="middle" x="614" y="-5.35" font-family="Ubuntu Mono" font-size="12.00">_1d_vars</text>
</a>
</g>
</g>
<!-- Node3&#45;&gt;Node14 -->
<g id="edge22_Node000003_Node000014" class="edge">
<title>Node3&#45;&gt;Node14</title>
<g id="a_edge22_Node000003_Node000014"><a xlink:title=" ">
<path fill="none" stroke="#63b8ff" d="M443.5,-132.03C461.66,-112.07 503.32,-68.89 546,-42.75 548.12,-41.45 550.31,-40.2 552.56,-38.99"/>
<polygon fill="#63b8ff" stroke="#63b8ff" points="553.89,-42.24 561.29,-34.67 550.78,-35.97 553.89,-42.24"/>
</a>
</g>
</g>
<!-- Node4&#45;&gt;Node4 -->
<g id="edge4_Node000004_Node000004" class="edge">
<title>Node4&#45;&gt;Node4</title>
<g id="a_edge4_Node000004_Node000004"><a xlink:title=" ">
<path fill="none" stroke="#63b8ff" d="M1115.35,-205.52C1103.49,-214.18 1113.38,-223.12 1145,-223.12 1162.29,-223.12 1173.09,-220.45 1177.38,-216.61"/>
<polygon fill="#63b8ff" stroke="#63b8ff" points="1180.8,-215.87 1175.01,-206.99 1174,-217.54 1180.8,-215.87"/>
</a>
</g>
</g>
<!-- Node5&#45;&gt;Node4 -->
<g id="edge6_Node000005_Node000004" class="edge">
<title>Node5&#45;&gt;Node4</title>
<g id="a_edge6_Node000005_Node000004"><a xlink:title=" ">
<path fill="none" stroke="#63b8ff" d="M682.27,-208.72C780.17,-205.75 961.54,-200.27 1065.44,-197.13"/>
<polygon fill="#63b8ff" stroke="#63b8ff" points="1065.39,-200.63 1075.28,-196.83 1065.18,-193.63 1065.39,-200.63"/>
</a>
</g>
</g>
<!-- Node5&#45;&gt;Node6 -->
<g id="edge7_Node000005_Node000006" class="edge">
<title>Node5&#45;&gt;Node6</title>
<g id="a_edge7_Node000005_Node000006"><a xlink:title=" ">
<path fill="none" stroke="#63b8ff" d="M682.44,-194.6C696.87,-191.14 711.97,-187.52 725.91,-184.18"/>
<polygon fill="#63b8ff" stroke="#63b8ff" points="726.43,-187.66 735.34,-181.93 724.8,-180.85 726.43,-187.66"/>
</a>
</g>
</g>
<!-- Node6&#45;&gt;Node4 -->
<g id="edge9_Node000006_Node000004" class="edge">
<title>Node6&#45;&gt;Node4</title>
<g id="a_edge9_Node000006_Node000004"><a xlink:title=" ">
<path fill="none" stroke="#63b8ff" d="M836.35,-174.24C896.48,-178.25 995.76,-184.87 1065.23,-189.5"/>
<polygon fill="#63b8ff" stroke="#63b8ff" points="1064.82,-192.98 1075.03,-190.15 1065.29,-185.99 1064.82,-192.98"/>
</a>
</g>
</g>
<!-- Node7 -->
<g id="Node000007" class="node">
<title>Node7</title>
<g id="a_Node000007"><a xlink:href="namespacemessages.html#a82dddaab795b78b3d39e1ff1aab2f665" target="_top" xlink:title="Returns the memory usage in kilobytes.">
<polygon fill="white" stroke="#666666" points="1038,-148.12 884,-148.12 884,-127.38 1038,-127.38 1038,-148.12"/>
<text xml:space="preserve" text-anchor="middle" x="961" y="-132.72" font-family="Ubuntu Mono" font-size="12.00">messages::get_mem_usage</text>
</a>
</g>
</g>
<!-- Node6&#45;&gt;Node7 -->
<g id="edge8_Node000006_Node000007" class="edge">
<title>Node6&#45;&gt;Node7</title>
<g id="a_edge8_Node000006_Node000007"><a xlink:title=" ">
<path fill="none" stroke="#63b8ff" d="M836.33,-160.94C853.45,-157.73 872.73,-154.11 890.89,-150.71"/>
<polygon fill="#63b8ff" stroke="#63b8ff" points="891.35,-154.18 900.54,-148.9 890.06,-147.3 891.35,-154.18"/>
</a>
</g>
</g>
<!-- Node9 -->
<g id="Node000009" class="node">
<title>Node9</title>
<g id="a_Node000009"><a xlink:href="namespacempi__utilities.html#abe5bf3ae3b6a06eda18c2f4d62ac09c5" target="_top" xlink:title="Returns the header for lock debug messages.">
<polygon fill="white" stroke="#666666" points="1026,-52.5 896,-52.5 896,-19 1026,-19 1026,-52.5"/>
<text xml:space="preserve" text-anchor="start" x="904" y="-37.1" font-family="Ubuntu Mono" font-size="12.00">mpi_utilities::lock</text>
<text xml:space="preserve" text-anchor="middle" x="961" y="-24.35" font-family="Ubuntu Mono" font-size="12.00">_header</text>
</a>
</g>
</g>
<!-- Node8&#45;&gt;Node9 -->
<g id="edge11_Node000008_Node000009" class="edge">
<title>Node8&#45;&gt;Node9</title>
<g id="a_edge11_Node000008_Node000009"><a xlink:title=" ">
<path fill="none" stroke="#63b8ff" d="M679.4,-56.36C692.15,-54.23 705.47,-52.23 718,-50.75 773.42,-44.21 836.34,-40.42 884.13,-38.29"/>
<polygon fill="#63b8ff" stroke="#63b8ff" points="884.27,-41.78 894.11,-37.86 883.97,-34.79 884.27,-41.78"/>
</a>
</g>
</g>
<!-- Node11 -->
<g id="Node000011" class="node">
<title>Node11</title>
<g id="a_Node000011"><a xlink:href="namespacempi__utilities.html#a3b0349e5ec825e14083e3126c3e7ba65" target="_top" xlink:title="Adds, removes or sets to active a rank from the waiting list for a lock and returns the lock waiting ...">
<polygon fill="white" stroke="#666666" points="848,-93.5 718,-93.5 718,-60 848,-60 848,-93.5"/>
<text xml:space="preserve" text-anchor="start" x="726" y="-78.1" font-family="Ubuntu Mono" font-size="12.00">mpi_utilities::lock</text>
<text xml:space="preserve" text-anchor="middle" x="783" y="-65.35" font-family="Ubuntu Mono" font-size="12.00">_wl_change</text>
</a>
</g>
</g>
<!-- Node8&#45;&gt;Node11 -->
<g id="edge15_Node000008_Node000011" class="edge">
<title>Node8&#45;&gt;Node11</title>
<g id="a_edge15_Node000008_Node000011"><a xlink:title=" ">
<path fill="none" stroke="#63b8ff" d="M679.09,-71.82C687.95,-72.24 697.12,-72.68 706.17,-73.12"/>
<polygon fill="#63b8ff" stroke="#63b8ff" points="705.86,-76.61 716.02,-73.59 706.2,-69.61 705.86,-76.61"/>
</a>
</g>
</g>
<!-- Node9&#45;&gt;Node4 -->
<g id="edge12_Node000009_Node000004" class="edge">
<title>Node9&#45;&gt;Node4</title>
<g id="a_edge12_Node000009_Node000004"><a xlink:title=" ">
<path fill="none" stroke="#63b8ff" d="M1022.89,-52.99C1028.2,-55.55 1033.33,-58.46 1038,-61.75 1081.23,-92.21 1115.86,-145.16 1132.76,-174.21"/>
<polygon fill="#63b8ff" stroke="#63b8ff" points="1129.63,-175.79 1137.6,-182.76 1135.72,-172.34 1129.63,-175.79"/>
</a>
</g>
</g>
<!-- Node10 -->
<g id="Node000010" class="node">
<title>Node10</title>
<g id="a_Node000010"><a xlink:href="namespacestr__utilities.html#acb8c4e66aead51f178e47fdea8d7a7db" target="_top" xlink:title="Convert an integer to string.">
<polygon fill="white" stroke="#666666" points="1216,-46.12 1074,-46.12 1074,-25.38 1216,-25.38 1216,-46.12"/>
<text xml:space="preserve" text-anchor="middle" x="1145" y="-30.73" font-family="Ubuntu Mono" font-size="12.00">str_utilities::ii2str</text>
</a>
</g>
</g>
<!-- Node9&#45;&gt;Node10 -->
<g id="edge13_Node000009_Node000010" class="edge">
<title>Node9&#45;&gt;Node10</title>
<g id="a_edge13_Node000009_Node000010"><a xlink:title=" ">
<path fill="none" stroke="#63b8ff" d="M1026.42,-35.75C1038.05,-35.75 1050.3,-35.75 1062.34,-35.75"/>
<polygon fill="#63b8ff" stroke="#63b8ff" points="1062.27,-39.25 1072.27,-35.75 1062.27,-32.25 1062.27,-39.25"/>
</a>
</g>
</g>
<!-- Node10&#45;&gt;Node10 -->
<g id="edge14_Node000010_Node000010" class="edge">
<title>Node10&#45;&gt;Node10</title>
<g id="a_edge14_Node000010_Node000010"><a xlink:title=" ">
<path fill="none" stroke="#63b8ff" d="M1115.35,-46.52C1103.49,-55.18 1113.38,-64.12 1145,-64.12 1162.29,-64.12 1173.09,-61.45 1177.38,-57.61"/>
<polygon fill="#63b8ff" stroke="#63b8ff" points="1180.8,-56.87 1175.01,-47.99 1174,-58.54 1180.8,-56.87"/>
</a>
</g>
</g>
<!-- Node11&#45;&gt;Node9 -->
<g id="edge16_Node000011_Node000009" class="edge">
<title>Node11&#45;&gt;Node9</title>
<g id="a_edge16_Node000011_Node000009"><a xlink:title=" ">
<path fill="none" stroke="#63b8ff" d="M848.04,-61.83C859.93,-59.06 872.45,-56.15 884.64,-53.31"/>
<polygon fill="#63b8ff" stroke="#63b8ff" points="885.3,-56.75 894.24,-51.07 883.71,-49.93 885.3,-56.75"/>
</a>
</g>
</g>
<!-- Node12 -->
<g id="Node000012" class="node">
<title>Node12</title>
<g id="a_Node000012"><a xlink:href="namespacestr__utilities.html#ac778d706b2e021672618939ab58fdd32" target="_top" xlink:title="Convert a real (double) to string.">
<polygon fill="white" stroke="#666666" points="1032,-91.12 890,-91.12 890,-70.38 1032,-70.38 1032,-91.12"/>
<text xml:space="preserve" text-anchor="middle" x="961" y="-75.72" font-family="Ubuntu Mono" font-size="12.00">str_utilities::r2strt</text>
</a>
</g>
</g>
<!-- Node11&#45;&gt;Node12 -->
<g id="edge17_Node000011_Node000012" class="edge">
<title>Node11&#45;&gt;Node12</title>
<g id="a_edge17_Node000011_Node000012"><a xlink:title=" ">
<path fill="none" stroke="#63b8ff" d="M848.04,-78.21C857.89,-78.43 868.18,-78.66 878.36,-78.89"/>
<polygon fill="#63b8ff" stroke="#63b8ff" points="878.18,-82.39 888.25,-79.12 878.34,-75.39 878.18,-82.39"/>
</a>
</g>
</g>
<!-- Node12&#45;&gt;Node12 -->
<g id="edge18_Node000012_Node000012" class="edge">
<title>Node12&#45;&gt;Node12</title>
<g id="a_edge18_Node000012_Node000012"><a xlink:title=" ">
<path fill="none" stroke="#63b8ff" d="M932.32,-91.52C920.85,-100.18 930.41,-109.12 961,-109.12 977.73,-109.12 988.17,-106.45 992.32,-102.61"/>
<polygon fill="#63b8ff" stroke="#63b8ff" points="995.75,-101.91 990.03,-92.99 988.94,-103.53 995.75,-101.91"/>
</a>
</g>
</g>
<!-- Node13&#45;&gt;Node9 -->
<g id="edge20_Node000013_Node000009" class="edge">
<title>Node13&#45;&gt;Node9</title>
<g id="a_edge20_Node000013_Node000009"><a xlink:title=" ">
<path fill="none" stroke="#63b8ff" d="M679.26,-128.4C728.09,-131.32 795.56,-128.97 848,-102.75 869.69,-91.9 863.85,-75.24 884,-61.75 886.02,-60.39 888.13,-59.1 890.29,-57.87"/>
<polygon fill="#63b8ff" stroke="#63b8ff" points="891.41,-61.23 898.71,-53.56 888.22,-55 891.41,-61.23"/>
</a>
</g>
</g>
<!-- Node13&#45;&gt;Node11 -->
<g id="edge21_Node000013_Node000011" class="edge">
<title>Node13&#45;&gt;Node11</title>
<g id="a_edge21_Node000013_Node000011"><a xlink:title=" ">
<path fill="none" stroke="#63b8ff" d="M679.09,-103.86C688.05,-101.5 697.32,-99.06 706.47,-96.65"/>
<polygon fill="#63b8ff" stroke="#63b8ff" points="707.29,-100.05 716.07,-94.12 705.51,-93.28 707.29,-100.05"/>
</a>
</g>
</g>
</g>
</svg>
