<?xml version="1.0" encoding="UTF-8" standalone="no"?>
<!DOCTYPE svg PUBLIC "-//W3C//DTD SVG 1.1//EN"
 "http://www.w3.org/Graphics/SVG/1.1/DTD/svg11.dtd">
<!-- Generated by graphviz version 2.43.0 (0)
 -->
<!-- Title: rich_ops::calc_rich_ex Pages: 1 -->
<svg width="439pt" height="70pt"
 viewBox="0.00 0.00 439.00 70.00" xmlns="http://www.w3.org/2000/svg" xmlns:xlink="http://www.w3.org/1999/xlink">
<g id="graph0" class="graph" transform="scale(1 1) rotate(0) translate(4 66)">
<title>rich_ops::calc_rich_ex</title>
<polygon fill="white" stroke="transparent" points="-4,4 -4,-66 435,-66 435,4 -4,4"/>
<!-- Node1 -->
<g id="node1" class="node">
<title>Node1</title>
<g id="a_node1"><a xlink:title="Calculates the coefficients of the Eigenvalues in the Richardson extrapolation.">
<polygon fill="#bfbfbf" stroke="black" points="285,-20.5 285,-41.5 431,-41.5 431,-20.5 285,-20.5"/>
<text text-anchor="middle" x="358" y="-27.9" font-family="Ubuntu Mono" font-size="12.00">rich_ops::calc_rich_ex</text>
</a>
</g>
</g>
<!-- Node2 -->
<g id="node2" class="node">
<title>Node2</title>
<g id="a_node2"><a xlink:href="namespacerich__ops.html#a9fbbda93eab8973d33063e277c489e7b" target="_top" xlink:title="Initialize Richardson extrapolation system.">
<polygon fill="white" stroke="black" points="106,-40.5 106,-61.5 226,-61.5 226,-40.5 106,-40.5"/>
<text text-anchor="middle" x="166" y="-47.9" font-family="Ubuntu Mono" font-size="12.00">rich_ops::init_rich</text>
</a>
</g>
</g>
<!-- Node1&#45;&gt;Node2 -->
<g id="edge1" class="edge">
<title>Node1&#45;&gt;Node2</title>
<path fill="none" stroke="midnightblue" d="M274.78,-39.65C258.4,-41.38 241.5,-43.16 226.08,-44.78"/>
<polygon fill="midnightblue" stroke="midnightblue" points="275.32,-43.12 284.9,-38.59 274.59,-36.16 275.32,-43.12"/>
</g>
<!-- Node4 -->
<g id="node4" class="node">
<title>Node4</title>
<g id="a_node4"><a xlink:href="namespacedriver__sol.html#ad3b1765b3ecc5f82129bfc683ffc6c5c" target="_top" xlink:title="Main driver of PB3D solution part.">
<polygon fill="white" stroke="black" points="83,-0.5 83,-21.5 249,-21.5 249,-0.5 83,-0.5"/>
<text text-anchor="middle" x="166" y="-7.9" font-family="Ubuntu Mono" font-size="12.00">driver_sol::run_driver_sol</text>
</a>
</g>
</g>
<!-- Node1&#45;&gt;Node4 -->
<g id="edge3" class="edge">
<title>Node1&#45;&gt;Node4</title>
<path fill="none" stroke="midnightblue" d="M274.69,-22.34C266.25,-21.45 257.67,-20.54 249.23,-19.66"/>
<polygon fill="midnightblue" stroke="midnightblue" points="274.59,-25.84 284.9,-23.41 275.32,-18.88 274.59,-25.84"/>
</g>
<!-- Node3 -->
<g id="node3" class="node">
<title>Node3</title>
<g id="a_node3"><a xlink:href="PB3D_8f90.html#afaee01f014ab3398eecac996b2795fd2" target="_top" xlink:title="Peeling Ballooning in 3D.">
<polygon fill="white" stroke="black" points="0,-20.5 0,-41.5 47,-41.5 47,-20.5 0,-20.5"/>
<text text-anchor="middle" x="23.5" y="-27.9" font-family="Ubuntu Mono" font-size="12.00">pb3d</text>
</a>
</g>
</g>
<!-- Node2&#45;&gt;Node3 -->
<g id="edge2" class="edge">
<title>Node2&#45;&gt;Node3</title>
<path fill="none" stroke="midnightblue" d="M95.56,-41.12C78.07,-38.62 60.5,-36.12 47.21,-34.23"/>
<polygon fill="midnightblue" stroke="midnightblue" points="95.43,-44.63 105.82,-42.58 96.42,-37.7 95.43,-44.63"/>
</g>
<!-- Node4&#45;&gt;Node3 -->
<g id="edge4" class="edge">
<title>Node4&#45;&gt;Node3</title>
<path fill="none" stroke="midnightblue" d="M80.99,-22.96C68.57,-24.73 56.74,-26.41 47.15,-27.78"/>
<polygon fill="midnightblue" stroke="midnightblue" points="81.64,-26.4 91.05,-21.53 80.65,-19.47 81.64,-26.4"/>
</g>
</g>
</svg>
