<?xml version="1.0" encoding="UTF-8" standalone="no"?>
<!DOCTYPE svg PUBLIC "-//W3C//DTD SVG 1.1//EN"
 "http://www.w3.org/Graphics/SVG/1.1/DTD/svg11.dtd">
<!-- Generated by graphviz version 2.38.0 (20140413.2041)
 -->
<!-- Title: x_utilities::get_sec_x_range Pages: 1 -->
<svg width="360pt" height="70pt"
 viewBox="0.00 0.00 360.00 70.00" xmlns="http://www.w3.org/2000/svg" xmlns:xlink="http://www.w3.org/1999/xlink">
<g id="graph0" class="graph" transform="scale(1 1) rotate(0) translate(4 66)">
<title>x_utilities::get_sec_x_range</title>
<polygon fill="white" stroke="none" points="-4,4 -4,-66 356,-66 356,4 -4,4"/>
<!-- Node20 -->
<g id="node1" class="node"><title>Node20</title>
<polygon fill="#bfbfbf" stroke="black" points="0,-14 0,-48 137,-48 137,-14 0,-14"/>
<text text-anchor="start" x="8" y="-34.4" font-family="Ubuntu Mono" font-size="12.00">x_utilities::get_sec</text>
<text text-anchor="middle" x="68.5" y="-21.4" font-family="Ubuntu Mono" font-size="12.00">_x_range</text>
</g>
<!-- Node21 -->
<g id="node2" class="node"><title>Node21</title>
<g id="a_node2"><a xlink:href="namespacenum__utilities.html#a5ee3fbd1fe67d0deefc7194631389f2a" target="_top" xlink:title="Convert 2&#45;D coordinates (i,j) to the storage convention used in matrices. ">
<polygon fill="white" stroke="black" points="206,-40.5 206,-61.5 319,-61.5 319,-40.5 206,-40.5"/>
<text text-anchor="middle" x="262.5" y="-47.9" font-family="Ubuntu Mono" font-size="12.00">num_utilities::c</text>
</a>
</g>
</g>
<!-- Node20&#45;&gt;Node21 -->
<g id="edge1" class="edge"><title>Node20&#45;&gt;Node21</title>
<path fill="none" stroke="midnightblue" d="M137.192,-38.0513C156.228,-40.0341 176.894,-42.1869 195.81,-44.1573"/>
<polygon fill="midnightblue" stroke="midnightblue" points="195.512,-47.6451 205.821,-45.2001 196.237,-40.6827 195.512,-47.6451"/>
</g>
<!-- Node22 -->
<g id="node3" class="node"><title>Node22</title>
<g id="a_node3"><a xlink:href="namespacex__utilities.html#a689aca7fedb49c43c5a65a18d557259f" target="_top" xlink:title="Determines whether a variable needs to be considered: ">
<polygon fill="white" stroke="black" points="173,-0.5 173,-21.5 352,-21.5 352,-0.5 173,-0.5"/>
<text text-anchor="middle" x="262.5" y="-7.9" font-family="Ubuntu Mono" font-size="12.00">x_utilities::is_necessary_x</text>
</a>
</g>
</g>
<!-- Node20&#45;&gt;Node22 -->
<g id="edge2" class="edge"><title>Node20&#45;&gt;Node22</title>
<path fill="none" stroke="midnightblue" d="M137.192,-23.9487C145.495,-23.0838 154.109,-22.1866 162.752,-21.2863"/>
<polygon fill="midnightblue" stroke="midnightblue" points="163.311,-24.747 172.895,-20.2297 162.586,-17.7847 163.311,-24.747"/>
</g>
</g>
</svg>
