<?xml version="1.0" encoding="UTF-8" standalone="no"?>
<!DOCTYPE svg PUBLIC "-//W3C//DTD SVG 1.1//EN"
 "http://www.w3.org/Graphics/SVG/1.1/DTD/svg11.dtd">
<!-- Generated by graphviz version 2.38.0 (20140413.2041)
 -->
<!-- Title: eq_ops::normalize_input Pages: 1 -->
<svg width="861pt" height="109pt"
 viewBox="0.00 0.00 861.00 109.00" xmlns="http://www.w3.org/2000/svg" xmlns:xlink="http://www.w3.org/1999/xlink">
<g id="graph0" class="graph" transform="scale(1 1) rotate(0) translate(4 105)">
<title>eq_ops::normalize_input</title>
<polygon fill="white" stroke="none" points="-4,4 -4,-105 857,-105 857,4 -4,4"/>
<!-- Node210 -->
<g id="node1" class="node"><title>Node210</title>
<polygon fill="#bfbfbf" stroke="black" points="0,-40.5 0,-61.5 155,-61.5 155,-40.5 0,-40.5"/>
<text text-anchor="middle" x="77.5" y="-47.9" font-family="Ubuntu Mono" font-size="12.00">eq_ops::normalize_input</text>
</g>
<!-- Node211 -->
<g id="node2" class="node"><title>Node211</title>
<g id="a_node2"><a xlink:href="namespacevmec__ops.html#a95f04a642fd732a538aef30052a12863" target="_top" xlink:title="vmec_ops::normalize_vmec">
<polygon fill="white" stroke="black" points="191,-79.5 191,-100.5 352,-100.5 352,-79.5 191,-79.5"/>
<text text-anchor="middle" x="271.5" y="-86.9" font-family="Ubuntu Mono" font-size="12.00">vmec_ops::normalize_vmec</text>
</a>
</g>
</g>
<!-- Node210&#45;&gt;Node211 -->
<g id="edge1" class="edge"><title>Node210&#45;&gt;Node211</title>
<path fill="none" stroke="midnightblue" d="M130.205,-61.5026C154.424,-66.4221 183.461,-72.3202 208.819,-77.471"/>
<polygon fill="midnightblue" stroke="midnightblue" points="208.206,-80.9179 218.703,-79.4787 209.599,-74.058 208.206,-80.9179"/>
</g>
<!-- Node212 -->
<g id="node3" class="node"><title>Node212</title>
<g id="a_node3"><a xlink:href="namespacemessages.html#aa4a8d01563e92558e8a0875b075ec54c" target="_top" xlink:title="messages::writo">
<polygon fill="white" stroke="black" points="388,-20.5 388,-41.5 495,-41.5 495,-20.5 388,-20.5"/>
<text text-anchor="middle" x="441.5" y="-27.9" font-family="Ubuntu Mono" font-size="12.00">messages::writo</text>
</a>
</g>
</g>
<!-- Node210&#45;&gt;Node212 -->
<g id="edge2" class="edge"><title>Node210&#45;&gt;Node212</title>
<path fill="none" stroke="midnightblue" d="M155.271,-46.7585C221.524,-43.0981 316.042,-37.8761 377.823,-34.4628"/>
<polygon fill="midnightblue" stroke="midnightblue" points="378.034,-37.9566 387.826,-33.9102 377.648,-30.9672 378.034,-37.9566"/>
</g>
<!-- Node216 -->
<g id="node7" class="node"><title>Node216</title>
<g id="a_node7"><a xlink:href="namespacemessages.html#a6e6bfb084063e4cc91ee86e542043302" target="_top" xlink:title="messages::lvl_ud">
<polygon fill="white" stroke="black" points="215,-1.5 215,-22.5 328,-22.5 328,-1.5 215,-1.5"/>
<text text-anchor="middle" x="271.5" y="-8.9" font-family="Ubuntu Mono" font-size="12.00">messages::lvl_ud</text>
</a>
</g>
</g>
<!-- Node210&#45;&gt;Node216 -->
<g id="edge6" class="edge"><title>Node210&#45;&gt;Node216</title>
<path fill="none" stroke="midnightblue" d="M130.205,-40.4974C154.424,-35.5779 183.461,-29.6798 208.819,-24.529"/>
<polygon fill="midnightblue" stroke="midnightblue" points="209.599,-27.942 218.703,-22.5213 208.206,-21.0821 209.599,-27.942"/>
</g>
<!-- Node213 -->
<g id="node4" class="node"><title>Node213</title>
<g id="a_node4"><a xlink:href="namespacemessages.html#a82dddaab795b78b3d39e1ff1aab2f665" target="_top" xlink:title="messages::get_mem_usage">
<polygon fill="white" stroke="black" points="531,-40.5 531,-61.5 686,-61.5 686,-40.5 531,-40.5"/>
<text text-anchor="middle" x="608.5" y="-47.9" font-family="Ubuntu Mono" font-size="12.00">messages::get_mem_usage</text>
</a>
</g>
</g>
<!-- Node212&#45;&gt;Node213 -->
<g id="edge3" class="edge"><title>Node212&#45;&gt;Node213</title>
<path fill="none" stroke="midnightblue" d="M495.161,-37.3831C503.452,-38.3881 512.208,-39.4495 521.025,-40.5182"/>
<polygon fill="midnightblue" stroke="midnightblue" points="520.635,-43.9965 530.984,-41.7253 521.478,-37.0474 520.635,-43.9965"/>
</g>
<!-- Node214 -->
<g id="node5" class="node"><title>Node214</title>
<g id="a_node5"><a xlink:href="messages_8f90.html#a6d15f28783f95a7a4b2a44185619792f" target="_top" xlink:title="format_str">
<polygon fill="white" stroke="black" points="570,-0.5 570,-21.5 647,-21.5 647,-0.5 570,-0.5"/>
<text text-anchor="middle" x="608.5" y="-7.9" font-family="Ubuntu Mono" font-size="12.00">format_str</text>
</a>
</g>
</g>
<!-- Node212&#45;&gt;Node214 -->
<g id="edge4" class="edge"><title>Node212&#45;&gt;Node214</title>
<path fill="none" stroke="midnightblue" d="M495.161,-24.6169C515.977,-22.0937 539.722,-19.2155 560.002,-16.7573"/>
<polygon fill="midnightblue" stroke="midnightblue" points="560.448,-20.229 569.954,-15.551 559.606,-13.2798 560.448,-20.229"/>
</g>
<!-- Node215 -->
<g id="node6" class="node"><title>Node215</title>
<g id="a_node6"><a xlink:href="namespacemessages.html#a61fd0b51b5e37d58fdc993c01792a3fd" target="_top" xlink:title="messages::get_clock">
<polygon fill="white" stroke="black" points="722,-0.5 722,-21.5 853,-21.5 853,-0.5 722,-0.5"/>
<text text-anchor="middle" x="787.5" y="-7.9" font-family="Ubuntu Mono" font-size="12.00">messages::get_clock</text>
</a>
</g>
</g>
<!-- Node214&#45;&gt;Node215 -->
<g id="edge5" class="edge"><title>Node214&#45;&gt;Node215</title>
<path fill="none" stroke="midnightblue" d="M647.037,-11C665.869,-11 689.372,-11 711.685,-11"/>
<polygon fill="midnightblue" stroke="midnightblue" points="711.832,-14.5001 721.832,-11 711.832,-7.5001 711.832,-14.5001"/>
</g>
<!-- Node216&#45;&gt;Node212 -->
<g id="edge7" class="edge"><title>Node216&#45;&gt;Node212</title>
<path fill="none" stroke="midnightblue" d="M328.442,-18.3267C344.33,-20.1236 361.731,-22.0916 377.982,-23.9296"/>
<polygon fill="midnightblue" stroke="midnightblue" points="377.599,-27.4084 387.929,-25.0544 378.385,-20.4527 377.599,-27.4084"/>
</g>
</g>
</svg>
