<?xml version="1.0" encoding="UTF-8" standalone="no"?>
<!DOCTYPE svg PUBLIC "-//W3C//DTD SVG 1.1//EN"
 "http://www.w3.org/Graphics/SVG/1.1/DTD/svg11.dtd">
<!-- Generated by graphviz version 2.43.0 (0)
 -->
<!-- Title: messages::start_time Pages: 1 -->
<svg width="522pt" height="110pt"
 viewBox="0.00 0.00 522.00 110.00" xmlns="http://www.w3.org/2000/svg" xmlns:xlink="http://www.w3.org/1999/xlink">
<g id="graph0" class="graph" transform="scale(1 1) rotate(0) translate(4 106)">
<title>messages::start_time</title>
<polygon fill="white" stroke="transparent" points="-4,4 -4,-106 518,-106 518,4 -4,4"/>
<!-- Node1 -->
<g id="node1" class="node">
<title>Node1</title>
<g id="a_node1"><a xlink:title="Start a timer.">
<polygon fill="#bfbfbf" stroke="black" points="0,-40.5 0,-61.5 145,-61.5 145,-40.5 0,-40.5"/>
<text text-anchor="middle" x="72.5" y="-47.9" font-family="Ubuntu Mono" font-size="12.00">messages::start_time</text>
</a>
</g>
</g>
<!-- Node2 -->
<g id="node2" class="node">
<title>Node2</title>
<g id="a_node2"><a xlink:href="namespacemessages.html#aa4a8d01563e92558e8a0875b075ec54c" target="_top" xlink:title="Write output to file identified by output_i.">
<polygon fill="white" stroke="black" points="181,-40.5 181,-61.5 295,-61.5 295,-40.5 181,-40.5"/>
<text text-anchor="middle" x="238" y="-47.9" font-family="Ubuntu Mono" font-size="12.00">messages::writo</text>
</a>
</g>
</g>
<!-- Node1&#45;&gt;Node2 -->
<g id="edge1" class="edge">
<title>Node1&#45;&gt;Node2</title>
<path fill="none" stroke="midnightblue" d="M145.21,-51C153.63,-51 162.19,-51 170.54,-51"/>
<polygon fill="midnightblue" stroke="midnightblue" points="170.58,-54.5 180.58,-51 170.58,-47.5 170.58,-54.5"/>
</g>
<!-- Node3 -->
<g id="node3" class="node">
<title>Node3</title>
<g id="a_node3"><a xlink:href="namespacemessages.html#a61fd0b51b5e37d58fdc993c01792a3fd" target="_top" xlink:title="Returns the time.">
<polygon fill="white" stroke="black" points="352.5,-80.5 352.5,-101.5 492.5,-101.5 492.5,-80.5 352.5,-80.5"/>
<text text-anchor="middle" x="422.5" y="-87.9" font-family="Ubuntu Mono" font-size="12.00">messages::get_clock</text>
</a>
</g>
</g>
<!-- Node2&#45;&gt;Node3 -->
<g id="edge2" class="edge">
<title>Node2&#45;&gt;Node3</title>
<path fill="none" stroke="midnightblue" d="M286.95,-61.51C310.43,-66.66 338.9,-72.9 363.59,-78.31"/>
<polygon fill="midnightblue" stroke="midnightblue" points="363.04,-81.77 373.55,-80.49 364.54,-74.93 363.04,-81.77"/>
</g>
<!-- Node4 -->
<g id="node4" class="node">
<title>Node4</title>
<g id="a_node4"><a xlink:href="namespacemessages.html#a82dddaab795b78b3d39e1ff1aab2f665" target="_top" xlink:title="Returns the memory usage in kilobytes.">
<polygon fill="white" stroke="black" points="331,-40.5 331,-61.5 514,-61.5 514,-40.5 331,-40.5"/>
<text text-anchor="middle" x="422.5" y="-47.9" font-family="Ubuntu Mono" font-size="12.00">messages::get_mem_usage</text>
</a>
</g>
</g>
<!-- Node2&#45;&gt;Node4 -->
<g id="edge3" class="edge">
<title>Node2&#45;&gt;Node4</title>
<path fill="none" stroke="midnightblue" d="M295.25,-51C303.37,-51 311.94,-51 320.63,-51"/>
<polygon fill="midnightblue" stroke="midnightblue" points="320.86,-54.5 330.86,-51 320.86,-47.5 320.86,-54.5"/>
</g>
<!-- Node5 -->
<g id="node5" class="node">
<title>Node5</title>
<g id="a_node5"><a xlink:href="namespacestr__utilities.html#a0b97e51770725a3e98ed393d26681414" target="_top" xlink:title="Convert an integer to string.">
<polygon fill="white" stroke="black" points="365.5,-0.5 365.5,-21.5 479.5,-21.5 479.5,-0.5 365.5,-0.5"/>
<text text-anchor="middle" x="422.5" y="-7.9" font-family="Ubuntu Mono" font-size="12.00">str_utilities::i2str</text>
</a>
</g>
</g>
<!-- Node2&#45;&gt;Node5 -->
<g id="edge4" class="edge">
<title>Node2&#45;&gt;Node5</title>
<path fill="none" stroke="midnightblue" d="M286.95,-40.49C310.43,-35.34 338.9,-29.1 363.59,-23.69"/>
<polygon fill="midnightblue" stroke="midnightblue" points="364.54,-27.07 373.55,-21.51 363.04,-20.23 364.54,-27.07"/>
</g>
</g>
</svg>
