<?xml version="1.0" encoding="UTF-8" standalone="no"?>
<!DOCTYPE svg PUBLIC "-//W3C//DTD SVG 1.1//EN"
 "http://www.w3.org/Graphics/SVG/1.1/DTD/svg11.dtd">
<!-- Generated by graphviz version 2.38.0 (20140413.2041)
 -->
<!-- Title: str_utilities::merge_strings Pages: 1 -->
<svg width="318pt" height="96pt"
 viewBox="0.00 0.00 318.00 96.00" xmlns="http://www.w3.org/2000/svg" xmlns:xlink="http://www.w3.org/1999/xlink">
<g id="graph0" class="graph" transform="scale(1 1) rotate(0) translate(4 92)">
<title>str_utilities::merge_strings</title>
<polygon fill="white" stroke="none" points="-4,4 -4,-92 314,-92 314,4 -4,4"/>
<!-- Node257 -->
<g id="node1" class="node"><title>Node257</title>
<polygon fill="#bfbfbf" stroke="black" points="0,-26.5 0,-60.5 137,-60.5 137,-26.5 0,-26.5"/>
<text text-anchor="start" x="8" y="-46.9" font-family="Ubuntu Mono" font-size="12.00">str_utilities::merge</text>
<text text-anchor="middle" x="68.5" y="-33.9" font-family="Ubuntu Mono" font-size="12.00">_strings</text>
</g>
<!-- Node258 -->
<g id="node2" class="node"><title>Node258</title>
<g id="a_node2"><a xlink:href="interfaceoutput__ops_1_1print__ex__2d.html#ade45a02083c437f9264ed1500b1d1ea0" target="_top" xlink:title="array version ">
<polygon fill="white" stroke="black" points="173,-53.5 173,-87.5 310,-87.5 310,-53.5 173,-53.5"/>
<text text-anchor="start" x="181" y="-73.9" font-family="Ubuntu Mono" font-size="12.00">output_ops::print_ex</text>
<text text-anchor="middle" x="241.5" y="-60.9" font-family="Ubuntu Mono" font-size="12.00">_2d::print_ex_2d_arr</text>
</a>
</g>
</g>
<!-- Node257&#45;&gt;Node258 -->
<g id="edge1" class="edge"><title>Node257&#45;&gt;Node258</title>
<path fill="none" stroke="midnightblue" d="M147.1,-55.7526C155.692,-57.1093 164.391,-58.4829 172.847,-59.818"/>
<polygon fill="midnightblue" stroke="midnightblue" points="147.507,-52.2737 137.084,-54.1711 146.415,-59.188 147.507,-52.2737"/>
</g>
<!-- Node259 -->
<g id="node3" class="node"><title>Node259</title>
<g id="a_node3"><a xlink:href="interfaceoutput__ops_1_1print__ex__3d.html#af4a49d03579403f42201d7ce503fa465" target="_top" xlink:title="array version ">
<polygon fill="white" stroke="black" points="173,-0.5 173,-34.5 310,-34.5 310,-0.5 173,-0.5"/>
<text text-anchor="start" x="181" y="-20.9" font-family="Ubuntu Mono" font-size="12.00">output_ops::print_ex</text>
<text text-anchor="middle" x="241.5" y="-7.9" font-family="Ubuntu Mono" font-size="12.00">_3d::print_ex_3d_arr</text>
</a>
</g>
</g>
<!-- Node257&#45;&gt;Node259 -->
<g id="edge2" class="edge"><title>Node257&#45;&gt;Node259</title>
<path fill="none" stroke="midnightblue" d="M147.1,-31.7012C155.692,-30.3948 164.391,-29.0721 172.847,-27.7864"/>
<polygon fill="midnightblue" stroke="midnightblue" points="146.444,-28.2606 137.084,-33.2241 147.496,-35.1811 146.444,-28.2606"/>
</g>
</g>
</svg>
