<?xml version="1.0" encoding="UTF-8" standalone="no"?>
<!DOCTYPE svg PUBLIC "-//W3C//DTD SVG 1.1//EN"
 "http://www.w3.org/Graphics/SVG/1.1/DTD/svg11.dtd">
<!-- Generated by graphviz version 2.38.0 (20140413.2041)
 -->
<!-- Title: eq_ops::test_g_v Pages: 1 -->
<svg width="825pt" height="188pt"
 viewBox="0.00 0.00 825.00 188.00" xmlns="http://www.w3.org/2000/svg" xmlns:xlink="http://www.w3.org/1999/xlink">
<g id="graph0" class="graph" transform="scale(1 1) rotate(0) translate(4 184)">
<title>eq_ops::test_g_v</title>
<polygon fill="white" stroke="none" points="-4,4 -4,-184 821,-184 821,4 -4,4"/>
<!-- Node299 -->
<g id="node1" class="node"><title>Node299</title>
<polygon fill="#bfbfbf" stroke="black" points="0,-79.5 0,-100.5 113,-100.5 113,-79.5 0,-79.5"/>
<text text-anchor="middle" x="56.5" y="-86.9" font-family="Ubuntu Mono" font-size="12.00">eq_ops::test_g_v</text>
</g>
<!-- Node300 -->
<g id="node2" class="node"><title>Node300</title>
<g id="a_node2"><a xlink:href="namespacegrid__utilities.html#a67001ff9bbcad707aacf17f90a748d90" target="_top" xlink:title="grid_utilities::trim_grid">
<polygon fill="white" stroke="black" points="149,-158.5 149,-179.5 316,-179.5 316,-158.5 149,-158.5"/>
<text text-anchor="middle" x="232.5" y="-165.9" font-family="Ubuntu Mono" font-size="12.00">grid_utilities::trim_grid</text>
</a>
</g>
</g>
<!-- Node299&#45;&gt;Node300 -->
<g id="edge1" class="edge"><title>Node299&#45;&gt;Node300</title>
<path fill="none" stroke="midnightblue" d="M70.6414,-100.519C87.7277,-113.696 118.949,-136.107 149,-149 154.688,-151.44 160.731,-153.619 166.858,-155.555"/>
<polygon fill="midnightblue" stroke="midnightblue" points="165.937,-158.932 176.518,-158.401 167.915,-152.217 165.937,-158.932"/>
</g>
<!-- Node301 -->
<g id="node3" class="node"><title>Node301</title>
<g id="a_node3"><a xlink:href="namespacenum__utilities.html#a5ee3fbd1fe67d0deefc7194631389f2a" target="_top" xlink:title="num_utilities::c">
<polygon fill="white" stroke="black" points="176,-118.5 176,-139.5 289,-139.5 289,-118.5 176,-118.5"/>
<text text-anchor="middle" x="232.5" y="-125.9" font-family="Ubuntu Mono" font-size="12.00">num_utilities::c</text>
</a>
</g>
</g>
<!-- Node299&#45;&gt;Node301 -->
<g id="edge2" class="edge"><title>Node299&#45;&gt;Node301</title>
<path fill="none" stroke="midnightblue" d="M104.587,-100.554C126.154,-105.388 151.9,-111.159 174.548,-116.235"/>
<polygon fill="midnightblue" stroke="midnightblue" points="173.852,-119.666 184.375,-118.438 175.383,-112.835 173.852,-119.666"/>
</g>
<!-- Node302 -->
<g id="node4" class="node"><title>Node302</title>
<g id="a_node4"><a xlink:href="namespacemessages.html#aa4a8d01563e92558e8a0875b075ec54c" target="_top" xlink:title="messages::writo">
<polygon fill="white" stroke="black" points="352,-59.5 352,-80.5 459,-80.5 459,-59.5 352,-59.5"/>
<text text-anchor="middle" x="405.5" y="-66.9" font-family="Ubuntu Mono" font-size="12.00">messages::writo</text>
</a>
</g>
</g>
<!-- Node299&#45;&gt;Node302 -->
<g id="edge3" class="edge"><title>Node299&#45;&gt;Node302</title>
<path fill="none" stroke="midnightblue" d="M113.252,-86.7867C175.626,-83.1916 276.445,-77.3807 341.592,-73.6258"/>
<polygon fill="midnightblue" stroke="midnightblue" points="341.948,-77.1112 351.73,-73.0415 341.546,-70.1228 341.948,-77.1112"/>
</g>
<!-- Node306 -->
<g id="node8" class="node"><title>Node306</title>
<g id="a_node8"><a xlink:href="namespacemessages.html#a6e6bfb084063e4cc91ee86e542043302" target="_top" xlink:title="messages::lvl_ud">
<polygon fill="white" stroke="black" points="176,-40.5 176,-61.5 289,-61.5 289,-40.5 176,-40.5"/>
<text text-anchor="middle" x="232.5" y="-47.9" font-family="Ubuntu Mono" font-size="12.00">messages::lvl_ud</text>
</a>
</g>
</g>
<!-- Node299&#45;&gt;Node306 -->
<g id="edge7" class="edge"><title>Node299&#45;&gt;Node306</title>
<path fill="none" stroke="midnightblue" d="M104.587,-79.446C126.154,-74.612 151.9,-68.8414 174.548,-63.7651"/>
<polygon fill="midnightblue" stroke="midnightblue" points="175.383,-67.1649 184.375,-61.5624 173.852,-60.3343 175.383,-67.1649"/>
</g>
<!-- Node307 -->
<g id="node9" class="node"><title>Node307</title>
<g id="a_node9"><a xlink:href="namespacestr__utilities.html#a0b97e51770725a3e98ed393d26681414" target="_top" xlink:title="str_utilities::i2str">
<polygon fill="white" stroke="black" points="164,-0.5 164,-21.5 301,-21.5 301,-0.5 164,-0.5"/>
<text text-anchor="middle" x="232.5" y="-7.9" font-family="Ubuntu Mono" font-size="12.00">str_utilities::i2str</text>
</a>
</g>
</g>
<!-- Node299&#45;&gt;Node307 -->
<g id="edge9" class="edge"><title>Node299&#45;&gt;Node307</title>
<path fill="none" stroke="midnightblue" d="M70.6414,-79.4814C87.7277,-66.3042 118.949,-43.8926 149,-31 154.688,-28.5595 160.731,-26.3815 166.858,-24.4455"/>
<polygon fill="midnightblue" stroke="midnightblue" points="167.915,-27.783 176.518,-21.5994 165.937,-21.0683 167.915,-27.783"/>
</g>
<!-- Node303 -->
<g id="node5" class="node"><title>Node303</title>
<g id="a_node5"><a xlink:href="namespacemessages.html#a82dddaab795b78b3d39e1ff1aab2f665" target="_top" xlink:title="messages::get_mem_usage">
<polygon fill="white" stroke="black" points="495,-79.5 495,-100.5 650,-100.5 650,-79.5 495,-79.5"/>
<text text-anchor="middle" x="572.5" y="-86.9" font-family="Ubuntu Mono" font-size="12.00">messages::get_mem_usage</text>
</a>
</g>
</g>
<!-- Node302&#45;&gt;Node303 -->
<g id="edge4" class="edge"><title>Node302&#45;&gt;Node303</title>
<path fill="none" stroke="midnightblue" d="M459.161,-76.3831C467.452,-77.3881 476.208,-78.4495 485.025,-79.5182"/>
<polygon fill="midnightblue" stroke="midnightblue" points="484.635,-82.9965 494.984,-80.7253 485.478,-76.0474 484.635,-82.9965"/>
</g>
<!-- Node304 -->
<g id="node6" class="node"><title>Node304</title>
<g id="a_node6"><a xlink:href="messages_8f90.html#a6d15f28783f95a7a4b2a44185619792f" target="_top" xlink:title="format_str">
<polygon fill="white" stroke="black" points="534,-39.5 534,-60.5 611,-60.5 611,-39.5 534,-39.5"/>
<text text-anchor="middle" x="572.5" y="-46.9" font-family="Ubuntu Mono" font-size="12.00">format_str</text>
</a>
</g>
</g>
<!-- Node302&#45;&gt;Node304 -->
<g id="edge5" class="edge"><title>Node302&#45;&gt;Node304</title>
<path fill="none" stroke="midnightblue" d="M459.161,-63.6169C479.977,-61.0937 503.722,-58.2155 524.002,-55.7573"/>
<polygon fill="midnightblue" stroke="midnightblue" points="524.448,-59.229 533.954,-54.551 523.606,-52.2798 524.448,-59.229"/>
</g>
<!-- Node305 -->
<g id="node7" class="node"><title>Node305</title>
<g id="a_node7"><a xlink:href="namespacemessages.html#a61fd0b51b5e37d58fdc993c01792a3fd" target="_top" xlink:title="messages::get_clock">
<polygon fill="white" stroke="black" points="686,-39.5 686,-60.5 817,-60.5 817,-39.5 686,-39.5"/>
<text text-anchor="middle" x="751.5" y="-46.9" font-family="Ubuntu Mono" font-size="12.00">messages::get_clock</text>
</a>
</g>
</g>
<!-- Node304&#45;&gt;Node305 -->
<g id="edge6" class="edge"><title>Node304&#45;&gt;Node305</title>
<path fill="none" stroke="midnightblue" d="M611.037,-50C629.869,-50 653.372,-50 675.685,-50"/>
<polygon fill="midnightblue" stroke="midnightblue" points="675.832,-53.5001 685.832,-50 675.832,-46.5001 675.832,-53.5001"/>
</g>
<!-- Node306&#45;&gt;Node302 -->
<g id="edge8" class="edge"><title>Node306&#45;&gt;Node302</title>
<path fill="none" stroke="midnightblue" d="M289.019,-57.1688C305.894,-59.0438 324.553,-61.117 341.863,-63.0403"/>
<polygon fill="midnightblue" stroke="midnightblue" points="341.549,-66.5269 351.875,-64.1527 342.322,-59.5697 341.549,-66.5269"/>
</g>
</g>
</svg>
