<?xml version="1.0" encoding="UTF-8" standalone="no"?>
<!DOCTYPE svg PUBLIC "-//W3C//DTD SVG 1.1//EN"
 "http://www.w3.org/Graphics/SVG/1.1/DTD/svg11.dtd">
<!-- Generated by graphviz version 2.38.0 (20140413.2041)
 -->
<!-- Title: driver_x::run_driver_x_2 Pages: 1 -->
<svg width="1333pt" height="978pt"
 viewBox="0.00 0.00 1333.00 978.46" xmlns="http://www.w3.org/2000/svg" xmlns:xlink="http://www.w3.org/1999/xlink">
<g id="graph0" class="graph" transform="scale(1 1) rotate(0) translate(4 974.458)">
<title>driver_x::run_driver_x_2</title>
<polygon fill="white" stroke="none" points="-4,4 -4,-974.458 1329,-974.458 1329,4 -4,4"/>
<!-- Node125 -->
<g id="node1" class="node"><title>Node125</title>
<polygon fill="#bfbfbf" stroke="black" points="0,-292.533 0,-313.533 161,-313.533 161,-292.533 0,-292.533"/>
<text text-anchor="middle" x="80.5" y="-299.933" font-family="Ubuntu Mono" font-size="12.00">driver_x::run_driver_x_2</text>
</g>
<!-- Node126 -->
<g id="node2" class="node"><title>Node126</title>
<g id="a_node2"><a xlink:href="namespacepb3d__ops.html#aff64b6722845a07139e2832c0be36145" target="_top" xlink:title="Reconstructs the tensorial perturbation variables from PB3D HDF5 output. ">
<polygon fill="white" stroke="black" points="197,-579.033 197,-613.033 340,-613.033 340,-579.033 197,-579.033"/>
<text text-anchor="start" x="205" y="-599.433" font-family="Ubuntu Mono" font-size="12.00">pb3d_ops::reconstruct</text>
<text text-anchor="middle" x="268.5" y="-586.433" font-family="Ubuntu Mono" font-size="12.00">_pb3d_x_2</text>
</a>
</g>
</g>
<!-- Node125&#45;&gt;Node126 -->
<g id="edge1" class="edge"><title>Node125&#45;&gt;Node126</title>
<path fill="none" stroke="midnightblue" d="M83.4049,-313.771C90.815,-352.604 121.154,-487.465 197,-564.033 200.574,-567.641 204.628,-570.881 208.944,-573.783"/>
<polygon fill="midnightblue" stroke="midnightblue" points="207.137,-576.78 217.507,-578.955 210.757,-570.789 207.137,-576.78"/>
</g>
<!-- Node140 -->
<g id="node16" class="node"><title>Node140</title>
<g id="a_node16"><a xlink:href="namespacemessages.html#aa4a8d01563e92558e8a0875b075ec54c" target="_top" xlink:title="Write output to file identified by output_i. ">
<polygon fill="white" stroke="black" points="824,-455.533 824,-476.533 931,-476.533 931,-455.533 824,-455.533"/>
<text text-anchor="middle" x="877.5" y="-462.933" font-family="Ubuntu Mono" font-size="12.00">messages::writo</text>
</a>
</g>
</g>
<!-- Node125&#45;&gt;Node140 -->
<g id="edge56" class="edge"><title>Node125&#45;&gt;Node140</title>
<path fill="none" stroke="midnightblue" d="M88.0557,-313.638C103.932,-338.567 146.854,-401.605 197,-439.033 266.688,-491.047 290.955,-499.888 376,-518.033 544.649,-554.016 595.716,-556.688 764,-519.033 795.893,-511.896 829.404,-494.668 851.468,-481.779"/>
<polygon fill="midnightblue" stroke="midnightblue" points="853.402,-484.7 860.186,-476.562 849.807,-478.694 853.402,-484.7"/>
</g>
<!-- Node146 -->
<g id="node22" class="node"><title>Node146</title>
<g id="a_node22"><a xlink:href="namespacex__ops.html#a6df79622d1b95d54ab3e542751a5881d" target="_top" xlink:title="Calculate the magnetic integrals from &#160;and &#160;in an equidistant grid where the step size can vary depen...">
<polygon fill="white" stroke="black" points="391,-292.533 391,-313.533 534,-313.533 534,-292.533 391,-292.533"/>
<text text-anchor="middle" x="462.5" y="-299.933" font-family="Ubuntu Mono" font-size="12.00">x_ops::calc_magn_ints</text>
</a>
</g>
</g>
<!-- Node125&#45;&gt;Node146 -->
<g id="edge31" class="edge"><title>Node125&#45;&gt;Node146</title>
<path fill="none" stroke="midnightblue" d="M161.16,-303.033C225.614,-303.033 315.992,-303.033 380.738,-303.033"/>
<polygon fill="midnightblue" stroke="midnightblue" points="380.902,-306.533 390.902,-303.033 380.902,-299.533 380.902,-306.533"/>
</g>
<!-- Node147 -->
<g id="node23" class="node"><title>Node147</title>
<g id="a_node23"><a xlink:href="namespacemessages.html#a6e6bfb084063e4cc91ee86e542043302" target="_top" xlink:title="Increases/decreases lvl of output. ">
<polygon fill="white" stroke="black" points="618,-415.533 618,-436.533 731,-436.533 731,-415.533 618,-415.533"/>
<text text-anchor="middle" x="674.5" y="-422.933" font-family="Ubuntu Mono" font-size="12.00">messages::lvl_ud</text>
</a>
</g>
</g>
<!-- Node125&#45;&gt;Node147 -->
<g id="edge57" class="edge"><title>Node125&#45;&gt;Node147</title>
<path fill="none" stroke="midnightblue" d="M151.724,-313.572C243.645,-327.942 409.478,-355.85 549,-390.033 565.25,-394.014 568.949,-396.314 585,-401.033 598.183,-404.908 612.504,-409.004 625.708,-412.733"/>
<polygon fill="midnightblue" stroke="midnightblue" points="624.976,-416.163 635.551,-415.503 626.873,-409.425 624.976,-416.163"/>
</g>
<!-- Node148 -->
<g id="node24" class="node"><title>Node148</title>
<g id="a_node24"><a xlink:href="namespacex__ops.html#a677c88d85fe1bfbf3579a2421ce16f2f" target="_top" xlink:title="Divides the perturbation jobs. ">
<polygon fill="white" stroke="black" points="200,-408.533 200,-429.533 337,-429.533 337,-408.533 200,-408.533"/>
<text text-anchor="middle" x="268.5" y="-415.933" font-family="Ubuntu Mono" font-size="12.00">x_ops::divide_x_jobs</text>
</a>
</g>
</g>
<!-- Node125&#45;&gt;Node148 -->
<g id="edge37" class="edge"><title>Node125&#45;&gt;Node148</title>
<path fill="none" stroke="midnightblue" d="M98.665,-313.738C131.552,-334.248 203.587,-379.173 242.073,-403.175"/>
<polygon fill="midnightblue" stroke="midnightblue" points="240.308,-406.199 250.645,-408.521 244.012,-400.26 240.308,-406.199"/>
</g>
<!-- Node150 -->
<g id="node26" class="node"><title>Node150</title>
<g id="a_node26"><a xlink:href="namespacehelena__ops.html#a7796861de18ae7ac9c3aa07a8628be38" target="_top" xlink:title="Interpolate variables resulting from HELENA equilibria to another grid (angularly). ">
<polygon fill="white" stroke="black" points="400,-239.033 400,-273.033 525,-273.033 525,-239.033 400,-239.033"/>
<text text-anchor="start" x="408" y="-259.433" font-family="Ubuntu Mono" font-size="12.00">helena_ops::interp</text>
<text text-anchor="middle" x="462.5" y="-246.433" font-family="Ubuntu Mono" font-size="12.00">_hel_on_grid</text>
</a>
</g>
</g>
<!-- Node125&#45;&gt;Node150 -->
<g id="edge43" class="edge"><title>Node125&#45;&gt;Node150</title>
<path fill="none" stroke="midnightblue" d="M161.16,-293.18C228.609,-284.838 324.448,-272.984 389.594,-264.927"/>
<polygon fill="midnightblue" stroke="midnightblue" points="390.282,-268.368 399.777,-263.667 389.423,-261.421 390.282,-268.368"/>
</g>
<!-- Node153 -->
<g id="node29" class="node"><title>Node153</title>
<g id="a_node29"><a xlink:href="namespacex__utilities.html#adef8eab82f0fd670a7795c754cf9a8f9" target="_top" xlink:title="Tests whether this perturbatino job should be done. ">
<polygon fill="white" stroke="black" points="209,-215.533 209,-236.533 328,-236.533 328,-215.533 209,-215.533"/>
<text text-anchor="middle" x="268.5" y="-222.933" font-family="Ubuntu Mono" font-size="12.00">x_utilities::do_x</text>
</a>
</g>
</g>
<!-- Node125&#45;&gt;Node153 -->
<g id="edge50" class="edge"><title>Node125&#45;&gt;Node153</title>
<path fill="none" stroke="midnightblue" d="M103.41,-292.519C126.471,-281.607 163.942,-264.31 197,-251.033 206.49,-247.221 216.813,-243.389 226.558,-239.91"/>
<polygon fill="midnightblue" stroke="midnightblue" points="227.79,-243.187 236.058,-236.562 225.463,-236.585 227.79,-243.187"/>
</g>
<!-- Node154 -->
<g id="node30" class="node"><title>Node154</title>
<g id="a_node30"><a xlink:href="namespacex__ops.html#a8879ea26ad86818e981546c3ab2d6165" target="_top" xlink:title="Prints debug information for X_2 driver. ">
<polygon fill="white" stroke="black" points="388,-128.533 388,-149.533 537,-149.533 537,-128.533 388,-128.533"/>
<text text-anchor="middle" x="462.5" y="-135.933" font-family="Ubuntu Mono" font-size="12.00">x_ops::print_debug_x_2</text>
</a>
</g>
</g>
<!-- Node125&#45;&gt;Node154 -->
<g id="edge51" class="edge"><title>Node125&#45;&gt;Node154</title>
<path fill="none" stroke="midnightblue" d="M90.8694,-292.486C109.213,-272.504 152.018,-229.071 197,-206.033 253.859,-176.912 324.212,-159.88 378.064,-150.281"/>
<polygon fill="midnightblue" stroke="midnightblue" points="378.664,-153.729 387.92,-148.573 377.47,-146.831 378.664,-153.729"/>
</g>
<!-- Node156 -->
<g id="node32" class="node"><title>Node156</title>
<g id="a_node32"><a xlink:href="namespacedriver__x.html#aca49d362e21df044e21d5ba4b2599cf4" target="_top" xlink:title="Prints information for tensorial perturbation job. ">
<polygon fill="white" stroke="black" points="594,-11.5329 594,-32.5329 755,-32.5329 755,-11.5329 594,-11.5329"/>
<text text-anchor="middle" x="674.5" y="-18.9329" font-family="Ubuntu Mono" font-size="12.00">driver_x::print_info_x_2</text>
</a>
</g>
</g>
<!-- Node125&#45;&gt;Node156 -->
<g id="edge58" class="edge"><title>Node125&#45;&gt;Node156</title>
<path fill="none" stroke="midnightblue" d="M86.8407,-292.216C100.9,-264.876 141.695,-192.525 197,-155.033 315.561,-74.6573 481.871,-42.5595 583.401,-29.9488"/>
<polygon fill="midnightblue" stroke="midnightblue" points="584.118,-33.3878 593.628,-28.7173 583.281,-26.438 584.118,-33.3878"/>
</g>
<!-- Node127 -->
<g id="node3" class="node"><title>Node127</title>
<g id="a_node3"><a xlink:href="namespacehdf5__ops.html#a5108e0d6f6b492cb981505ebceedd9ee" target="_top" xlink:title="Reads a PB3D output file in HDF5 format. ">
<polygon fill="white" stroke="black" points="385,-700.533 385,-721.533 540,-721.533 540,-700.533 385,-700.533"/>
<text text-anchor="middle" x="462.5" y="-707.933" font-family="Ubuntu Mono" font-size="12.00">hdf5_ops::read_hdf5_arr</text>
</a>
</g>
</g>
<!-- Node126&#45;&gt;Node127 -->
<g id="edge2" class="edge"><title>Node126&#45;&gt;Node127</title>
<path fill="none" stroke="midnightblue" d="M298.244,-613.25C335.216,-635.394 398.934,-673.558 434.857,-695.075"/>
<polygon fill="midnightblue" stroke="midnightblue" points="433.406,-698.285 443.783,-700.421 437.003,-692.28 433.406,-698.285"/>
</g>
<!-- Node143 -->
<g id="node19" class="node"><title>Node143</title>
<g id="a_node19"><a xlink:href="namespacex__utilities.html#a6072ddd1fd230758795ff320c75a1f6a" target="_top" xlink:title="Gets one of the the local ranges of contiguous tensorial perturbation variables to be printed or read...">
<polygon fill="white" stroke="black" points="394,-449.033 394,-483.033 531,-483.033 531,-449.033 394,-449.033"/>
<text text-anchor="start" x="402" y="-469.433" font-family="Ubuntu Mono" font-size="12.00">x_utilities::get_sec</text>
<text text-anchor="middle" x="462.5" y="-456.433" font-family="Ubuntu Mono" font-size="12.00">_x_range</text>
</a>
</g>
</g>
<!-- Node126&#45;&gt;Node143 -->
<g id="edge28" class="edge"><title>Node126&#45;&gt;Node143</title>
<path fill="none" stroke="midnightblue" d="M294.996,-578.77C329.088,-555.687 389.617,-514.704 427.544,-489.024"/>
<polygon fill="midnightblue" stroke="midnightblue" points="429.886,-491.665 436.204,-483.16 425.961,-485.869 429.886,-491.665"/>
</g>
<!-- Node128 -->
<g id="node4" class="node"><title>Node128</title>
<g id="a_node4"><a xlink:href="namespacehdf5__utilities.html#a7574320980affc30a584f7776d33a51c" target="_top" xlink:title="Sets up the chunk property list and/or the 1D hyperslabs that correspond to a local subset of lim_tot...">
<polygon fill="white" stroke="black" points="609,-740.033 609,-774.033 740,-774.033 740,-740.033 609,-740.033"/>
<text text-anchor="start" x="617" y="-760.433" font-family="Ubuntu Mono" font-size="12.00">hdf5_utilities::set</text>
<text text-anchor="middle" x="674.5" y="-747.433" font-family="Ubuntu Mono" font-size="12.00">_1d_vars</text>
</a>
</g>
</g>
<!-- Node127&#45;&gt;Node128 -->
<g id="edge3" class="edge"><title>Node127&#45;&gt;Node128</title>
<path fill="none" stroke="midnightblue" d="M511.678,-721.586C537.459,-727.233 569.779,-734.313 598.742,-740.657"/>
<polygon fill="midnightblue" stroke="midnightblue" points="598.314,-744.146 608.831,-742.867 599.812,-737.309 598.314,-744.146"/>
</g>
<!-- Node129 -->
<g id="node5" class="node"><title>Node129</title>
<g id="a_node5"><a xlink:href="namespacempi__utilities.html#a5a789d05be41d6109c01f46cc98620c8" target="_top" xlink:title="Request access to lock of a BL (blocking) or optionally a NB (non&#45;blocking) type. ...">
<polygon fill="white" stroke="black" points="609,-801.033 609,-835.033 740,-835.033 740,-801.033 609,-801.033"/>
<text text-anchor="start" x="617" y="-821.433" font-family="Ubuntu Mono" font-size="12.00">mpi_utilities::lock</text>
<text text-anchor="middle" x="674.5" y="-808.433" font-family="Ubuntu Mono" font-size="12.00">_req_acc</text>
</a>
</g>
</g>
<!-- Node127&#45;&gt;Node129 -->
<g id="edge4" class="edge"><title>Node127&#45;&gt;Node129</title>
<path fill="none" stroke="midnightblue" d="M479.55,-721.662C502.379,-736.517 545.811,-763.822 585,-783.033 595.098,-787.983 606.082,-792.775 616.767,-797.143"/>
<polygon fill="midnightblue" stroke="midnightblue" points="615.466,-800.392 626.051,-800.865 618.072,-793.895 615.466,-800.392"/>
</g>
<!-- Node132 -->
<g id="node8" class="node"><title>Node132</title>
<g id="a_node8"><a xlink:href="namespacestr__utilities.html#a0b97e51770725a3e98ed393d26681414" target="_top" xlink:title="Convert an integer to string. ">
<polygon fill="white" stroke="black" points="1185,-608.533 1185,-629.533 1322,-629.533 1322,-608.533 1185,-608.533"/>
<text text-anchor="middle" x="1253.5" y="-615.933" font-family="Ubuntu Mono" font-size="12.00">str_utilities::i2str</text>
</a>
</g>
</g>
<!-- Node127&#45;&gt;Node132 -->
<g id="edge26" class="edge"><title>Node127&#45;&gt;Node132</title>
<path fill="none" stroke="midnightblue" d="M540.134,-710.775C667.35,-708.985 929.565,-699.495 1146,-654.033 1169.9,-649.013 1195.95,-640.507 1216.31,-633.137"/>
<polygon fill="midnightblue" stroke="midnightblue" points="1217.64,-636.376 1225.81,-629.63 1215.22,-629.809 1217.64,-636.376"/>
</g>
<!-- Node138 -->
<g id="node14" class="node"><title>Node138</title>
<g id="a_node14"><a xlink:href="namespacempi__utilities.html#a86f9982a0f92b51a916f832d9a3d8ba9" target="_top" xlink:title="Returns access to a lock. ">
<polygon fill="white" stroke="black" points="609,-862.033 609,-896.033 740,-896.033 740,-862.033 609,-862.033"/>
<text text-anchor="start" x="617" y="-882.433" font-family="Ubuntu Mono" font-size="12.00">mpi_utilities::lock</text>
<text text-anchor="middle" x="674.5" y="-869.433" font-family="Ubuntu Mono" font-size="12.00">_return_acc</text>
</a>
</g>
</g>
<!-- Node127&#45;&gt;Node138 -->
<g id="edge16" class="edge"><title>Node127&#45;&gt;Node138</title>
<path fill="none" stroke="midnightblue" d="M470.748,-721.871C487.86,-746.711 533.245,-808.353 585,-844.033 592.592,-849.267 601.081,-853.882 609.713,-857.9"/>
<polygon fill="midnightblue" stroke="midnightblue" points="608.539,-861.207 619.102,-862.026 611.355,-854.799 608.539,-861.207"/>
</g>
<!-- Node139 -->
<g id="node15" class="node"><title>Node139</title>
<g id="a_node15"><a xlink:href="namespacehdf5__utilities.html#aa9d76166f970a7052cd0d96c8f3ee0be" target="_top" xlink:title="Lists all variables in a HDF5 group. ">
<polygon fill="white" stroke="black" points="606,-648.033 606,-682.033 743,-682.033 743,-648.033 606,-648.033"/>
<text text-anchor="start" x="614" y="-668.433" font-family="Ubuntu Mono" font-size="12.00">hdf5_utilities::list</text>
<text text-anchor="middle" x="674.5" y="-655.433" font-family="Ubuntu Mono" font-size="12.00">_all_vars_in_group</text>
</a>
</g>
</g>
<!-- Node127&#45;&gt;Node139 -->
<g id="edge21" class="edge"><title>Node127&#45;&gt;Node139</title>
<path fill="none" stroke="midnightblue" d="M511.678,-700.48C536.592,-695.022 567.613,-688.227 595.811,-682.051"/>
<polygon fill="midnightblue" stroke="midnightblue" points="596.633,-685.454 605.652,-679.895 595.135,-678.616 596.633,-685.454"/>
</g>
<!-- Node127&#45;&gt;Node140 -->
<g id="edge27" class="edge"><title>Node127&#45;&gt;Node140</title>
<path fill="none" stroke="midnightblue" d="M479.661,-700.497C502.621,-685.722 546.208,-658.376 585,-638.033 662.333,-597.479 689.672,-602.864 764,-557.033 799.646,-535.053 836.572,-503.112 857.996,-483.502"/>
<polygon fill="midnightblue" stroke="midnightblue" points="860.452,-485.999 865.413,-476.637 855.697,-480.861 860.452,-485.999"/>
</g>
<!-- Node130 -->
<g id="node6" class="node"><title>Node130</title>
<g id="a_node6"><a xlink:href="namespacempi__utilities.html#abe5bf3ae3b6a06eda18c2f4d62ac09c5" target="_top" xlink:title="Returns the header for lock debug messages. ">
<polygon fill="white" stroke="black" points="1003,-800.033 1003,-834.033 1134,-834.033 1134,-800.033 1003,-800.033"/>
<text text-anchor="start" x="1011" y="-820.433" font-family="Ubuntu Mono" font-size="12.00">mpi_utilities::lock</text>
<text text-anchor="middle" x="1068.5" y="-807.433" font-family="Ubuntu Mono" font-size="12.00">_header</text>
</a>
</g>
</g>
<!-- Node129&#45;&gt;Node130 -->
<g id="edge5" class="edge"><title>Node129&#45;&gt;Node130</title>
<path fill="none" stroke="midnightblue" d="M740.116,-819.268C759.382,-819.583 780.545,-819.877 800,-820.033 868.887,-820.586 886.117,-820.951 955,-820.033 967.255,-819.869 980.26,-819.606 992.91,-819.301"/>
<polygon fill="midnightblue" stroke="midnightblue" points="993.049,-822.799 1002.96,-819.049 992.874,-815.801 993.049,-822.799"/>
</g>
<!-- Node133 -->
<g id="node9" class="node"><title>Node133</title>
<g id="a_node9"><a xlink:href="namespacempi__utilities.html#a3b0349e5ec825e14083e3126c3e7ba65" target="_top" xlink:title="Adds, removes or sets to active a rank from the waiting list for a lock and returns the lock waiting ...">
<polygon fill="white" stroke="black" points="812,-777.033 812,-811.033 943,-811.033 943,-777.033 812,-777.033"/>
<text text-anchor="start" x="820" y="-797.433" font-family="Ubuntu Mono" font-size="12.00">mpi_utilities::lock</text>
<text text-anchor="middle" x="877.5" y="-784.433" font-family="Ubuntu Mono" font-size="12.00">_wl_change</text>
</a>
</g>
</g>
<!-- Node129&#45;&gt;Node133 -->
<g id="edge8" class="edge"><title>Node129&#45;&gt;Node133</title>
<path fill="none" stroke="midnightblue" d="M740.204,-810.307C759.839,-807.963 781.572,-805.368 801.807,-802.951"/>
<polygon fill="midnightblue" stroke="midnightblue" points="802.403,-806.405 811.917,-801.744 801.573,-799.455 802.403,-806.405"/>
</g>
<!-- Node135 -->
<g id="node11" class="node"><title>Node135</title>
<g id="a_node11"><a xlink:href="namespacempi__utilities.html#a74e2e82b561f403ca8087c3925f76e29" target="_top" xlink:title="Decides whether a waiting list is empty. ">
<polygon fill="white" stroke="black" points="800,-868.533 800,-889.533 955,-889.533 955,-868.533 800,-868.533"/>
<text text-anchor="middle" x="877.5" y="-875.933" font-family="Ubuntu Mono" font-size="12.00">mpi_utilities::wl_empty</text>
</a>
</g>
</g>
<!-- Node129&#45;&gt;Node135 -->
<g id="edge11" class="edge"><title>Node129&#45;&gt;Node135</title>
<path fill="none" stroke="midnightblue" d="M731.757,-835.106C763.477,-844.732 802.544,-856.589 832.093,-865.556"/>
<polygon fill="midnightblue" stroke="midnightblue" points="831.14,-868.924 841.725,-868.479 833.172,-862.226 831.14,-868.924"/>
</g>
<!-- Node136 -->
<g id="node12" class="node"><title>Node136</title>
<g id="a_node12"><a xlink:href="namespacempi__utilities.html#a263a30c79639d97f5faffdb566b5a811" target="_top" xlink:title="Notifies a rank that they can get the lock. ">
<polygon fill="white" stroke="black" points="812,-909.033 812,-943.033 943,-943.033 943,-909.033 812,-909.033"/>
<text text-anchor="start" x="820" y="-929.433" font-family="Ubuntu Mono" font-size="12.00">mpi_utilities::lock</text>
<text text-anchor="middle" x="877.5" y="-916.433" font-family="Ubuntu Mono" font-size="12.00">_notify</text>
</a>
</g>
</g>
<!-- Node129&#45;&gt;Node136 -->
<g id="edge12" class="edge"><title>Node129&#45;&gt;Node136</title>
<path fill="none" stroke="midnightblue" d="M733.618,-835.069C744.282,-839.628 754.904,-845.233 764,-852.033 785.074,-867.788 778.711,-883.569 800,-899.033 802.539,-900.877 805.215,-902.605 807.986,-904.223"/>
<polygon fill="midnightblue" stroke="midnightblue" points="806.625,-907.461 817.104,-909.021 809.885,-901.267 806.625,-907.461"/>
</g>
<!-- Node137 -->
<g id="node13" class="node"><title>Node137</title>
<g id="a_node13"><a xlink:href="namespacempi__utilities.html#a17c39b0498528e2532c8347b0b7dec86" target="_top" xlink:title="Get notified that the rank can get the lock. ">
<polygon fill="white" stroke="black" points="812,-724.033 812,-758.033 943,-758.033 943,-724.033 812,-724.033"/>
<text text-anchor="start" x="820" y="-744.433" font-family="Ubuntu Mono" font-size="12.00">mpi_utilities::lock</text>
<text text-anchor="middle" x="877.5" y="-731.433" font-family="Ubuntu Mono" font-size="12.00">_get_notified</text>
</a>
</g>
</g>
<!-- Node129&#45;&gt;Node137 -->
<g id="edge14" class="edge"><title>Node129&#45;&gt;Node137</title>
<path fill="none" stroke="midnightblue" d="M719.762,-800.946C733.943,-795.36 749.679,-789.044 764,-783.033 780.145,-776.256 783.694,-773.412 800,-767.033 804.697,-765.195 809.583,-763.361 814.513,-761.566"/>
<polygon fill="midnightblue" stroke="midnightblue" points="815.772,-764.833 824.009,-758.17 813.415,-758.241 815.772,-764.833"/>
</g>
<!-- Node131 -->
<g id="node7" class="node"><title>Node131</title>
<g id="a_node7"><a xlink:href="namespacestr__utilities.html#acb8c4e66aead51f178e47fdea8d7a7db" target="_top" xlink:title="Convert an integer to string. ">
<polygon fill="white" stroke="black" points="1182,-806.533 1182,-827.533 1325,-827.533 1325,-806.533 1182,-806.533"/>
<text text-anchor="middle" x="1253.5" y="-813.933" font-family="Ubuntu Mono" font-size="12.00">str_utilities::ii2str</text>
</a>
</g>
</g>
<!-- Node130&#45;&gt;Node131 -->
<g id="edge6" class="edge"><title>Node130&#45;&gt;Node131</title>
<path fill="none" stroke="midnightblue" d="M1134.02,-817.033C1146.2,-817.033 1159.08,-817.033 1171.68,-817.033"/>
<polygon fill="midnightblue" stroke="midnightblue" points="1171.72,-820.533 1181.72,-817.033 1171.72,-813.533 1171.72,-820.533"/>
</g>
<!-- Node130&#45;&gt;Node132 -->
<g id="edge7" class="edge"><title>Node130&#45;&gt;Node132</title>
<path fill="none" stroke="midnightblue" d="M1120.93,-799.869C1129.84,-795.538 1138.6,-790.294 1146,-784.033 1194.82,-742.71 1229.28,-673.347 1244.21,-639.229"/>
<polygon fill="midnightblue" stroke="midnightblue" points="1247.51,-640.414 1248.21,-629.842 1241.07,-637.669 1247.51,-640.414"/>
</g>
<!-- Node133&#45;&gt;Node130 -->
<g id="edge9" class="edge"><title>Node133&#45;&gt;Node130</title>
<path fill="none" stroke="midnightblue" d="M943.014,-801.884C959.043,-803.834 976.356,-805.941 992.828,-807.946"/>
<polygon fill="midnightblue" stroke="midnightblue" points="992.606,-811.445 1002.96,-809.178 993.452,-804.496 992.606,-811.445"/>
</g>
<!-- Node134 -->
<g id="node10" class="node"><title>Node134</title>
<g id="a_node10"><a xlink:href="namespacestr__utilities.html#ac778d706b2e021672618939ab58fdd32" target="_top" xlink:title="Convert a real (double) to string. ">
<polygon fill="white" stroke="black" points="997,-753.533 997,-774.533 1140,-774.533 1140,-753.533 997,-753.533"/>
<text text-anchor="middle" x="1068.5" y="-760.933" font-family="Ubuntu Mono" font-size="12.00">str_utilities::r2strt</text>
</a>
</g>
</g>
<!-- Node133&#45;&gt;Node134 -->
<g id="edge10" class="edge"><title>Node133&#45;&gt;Node134</title>
<path fill="none" stroke="midnightblue" d="M943.014,-783.792C958.601,-781.318 975.401,-778.652 991.461,-776.103"/>
<polygon fill="midnightblue" stroke="midnightblue" points="992.02,-779.558 1001.35,-774.533 990.922,-772.644 992.02,-779.558"/>
</g>
<!-- Node136&#45;&gt;Node130 -->
<g id="edge13" class="edge"><title>Node136&#45;&gt;Node130</title>
<path fill="none" stroke="midnightblue" d="M933.247,-908.91C940.705,-905.946 948.145,-902.641 955,-899.033 986.101,-882.66 1018.17,-858.429 1040.07,-840.55"/>
<polygon fill="midnightblue" stroke="midnightblue" points="1042.47,-843.109 1047.94,-834.038 1038.01,-837.714 1042.47,-843.109"/>
</g>
<!-- Node137&#45;&gt;Node130 -->
<g id="edge15" class="edge"><title>Node137&#45;&gt;Node130</title>
<path fill="none" stroke="midnightblue" d="M931.464,-758.158C939.406,-760.979 947.458,-763.982 955,-767.033 971.403,-773.668 974.874,-776.75 991,-784.033 999.707,-787.966 1009.01,-792.066 1018.03,-795.985"/>
<polygon fill="midnightblue" stroke="midnightblue" points="1016.72,-799.231 1027.29,-799.99 1019.5,-792.807 1016.72,-799.231"/>
</g>
<!-- Node138&#45;&gt;Node130 -->
<g id="edge17" class="edge"><title>Node138&#45;&gt;Node130</title>
<path fill="none" stroke="midnightblue" d="M696.386,-896.04C719.915,-914.005 760.102,-941.198 800,-952.033 866.481,-970.086 892.615,-981.252 955,-952.033 1002.78,-929.655 1037.34,-875.908 1054.74,-843.384"/>
<polygon fill="midnightblue" stroke="midnightblue" points="1057.89,-844.911 1059.39,-834.423 1051.68,-841.688 1057.89,-844.911"/>
</g>
<!-- Node138&#45;&gt;Node133 -->
<g id="edge18" class="edge"><title>Node138&#45;&gt;Node133</title>
<path fill="none" stroke="midnightblue" d="M719.762,-861.946C733.943,-856.36 749.679,-850.044 764,-844.033 785.777,-834.892 809.715,-824.327 829.89,-815.27"/>
<polygon fill="midnightblue" stroke="midnightblue" points="831.488,-818.389 839.169,-811.092 828.614,-812.006 831.488,-818.389"/>
</g>
<!-- Node138&#45;&gt;Node135 -->
<g id="edge19" class="edge"><title>Node138&#45;&gt;Node135</title>
<path fill="none" stroke="midnightblue" d="M740.204,-879.033C755.98,-879.033 773.11,-879.033 789.73,-879.033"/>
<polygon fill="midnightblue" stroke="midnightblue" points="789.995,-882.533 799.995,-879.033 789.995,-875.533 789.995,-882.533"/>
</g>
<!-- Node138&#45;&gt;Node136 -->
<g id="edge20" class="edge"><title>Node138&#45;&gt;Node136</title>
<path fill="none" stroke="midnightblue" d="M740.204,-894.163C759.929,-898.775 781.77,-903.882 802.084,-908.632"/>
<polygon fill="midnightblue" stroke="midnightblue" points="801.383,-912.063 811.917,-910.931 802.977,-905.246 801.383,-912.063"/>
</g>
<!-- Node139&#45;&gt;Node132 -->
<g id="edge25" class="edge"><title>Node139&#45;&gt;Node132</title>
<path fill="none" stroke="midnightblue" d="M743.007,-661.776C834.478,-657.059 1002.82,-647.299 1146,-633.033 1155.37,-632.1 1165.18,-630.99 1174.9,-629.811"/>
<polygon fill="midnightblue" stroke="midnightblue" points="1175.47,-633.266 1184.97,-628.56 1174.61,-626.319 1175.47,-633.266"/>
</g>
<!-- Node139&#45;&gt;Node140 -->
<g id="edge22" class="edge"><title>Node139&#45;&gt;Node140</title>
<path fill="none" stroke="midnightblue" d="M699.389,-648.018C717.777,-634.485 743.438,-614.631 764,-595.033 802.265,-558.561 841.673,-510.487 862.158,-484.546"/>
<polygon fill="midnightblue" stroke="midnightblue" points="864.936,-486.676 868.351,-476.646 859.427,-482.357 864.936,-486.676"/>
</g>
<!-- Node141 -->
<g id="node17" class="node"><title>Node141</title>
<g id="a_node17"><a xlink:href="namespacemessages.html#a82dddaab795b78b3d39e1ff1aab2f665" target="_top" xlink:title="Returns the memory usage in kilobytes. ">
<polygon fill="white" stroke="black" points="991,-475.533 991,-496.533 1146,-496.533 1146,-475.533 991,-475.533"/>
<text text-anchor="middle" x="1068.5" y="-482.933" font-family="Ubuntu Mono" font-size="12.00">messages::get_mem_usage</text>
</a>
</g>
</g>
<!-- Node140&#45;&gt;Node141 -->
<g id="edge23" class="edge"><title>Node140&#45;&gt;Node141</title>
<path fill="none" stroke="midnightblue" d="M931.147,-471.604C946.434,-473.222 963.551,-475.033 980.356,-476.811"/>
<polygon fill="midnightblue" stroke="midnightblue" points="980.448,-480.34 990.761,-477.912 981.184,-473.379 980.448,-480.34"/>
</g>
<!-- Node142 -->
<g id="node18" class="node"><title>Node142</title>
<g id="a_node18"><a xlink:href="namespacemessages.html#a61fd0b51b5e37d58fdc993c01792a3fd" target="_top" xlink:title="Returns the time. ">
<polygon fill="white" stroke="black" points="1003,-435.533 1003,-456.533 1134,-456.533 1134,-435.533 1003,-435.533"/>
<text text-anchor="middle" x="1068.5" y="-442.933" font-family="Ubuntu Mono" font-size="12.00">messages::get_clock</text>
</a>
</g>
</g>
<!-- Node140&#45;&gt;Node142 -->
<g id="edge24" class="edge"><title>Node140&#45;&gt;Node142</title>
<path fill="none" stroke="midnightblue" d="M931.147,-460.462C950.202,-458.445 972.102,-456.128 992.695,-453.949"/>
<polygon fill="midnightblue" stroke="midnightblue" points="993.106,-457.425 1002.68,-452.892 992.369,-450.464 993.106,-457.425"/>
</g>
<!-- Node144 -->
<g id="node20" class="node"><title>Node144</title>
<g id="a_node20"><a xlink:href="namespacenum__utilities.html#a5ee3fbd1fe67d0deefc7194631389f2a" target="_top" xlink:title="Convert 2&#45;D coordinates (i,j) to the storage convention used in matrices. ">
<polygon fill="white" stroke="black" points="618,-337.533 618,-358.533 731,-358.533 731,-337.533 618,-337.533"/>
<text text-anchor="middle" x="674.5" y="-344.933" font-family="Ubuntu Mono" font-size="12.00">num_utilities::c</text>
</a>
</g>
</g>
<!-- Node143&#45;&gt;Node144 -->
<g id="edge29" class="edge"><title>Node143&#45;&gt;Node144</title>
<path fill="none" stroke="midnightblue" d="M528.297,-448.927C535.481,-446.056 542.53,-442.771 549,-439.033 567.794,-428.174 567.867,-419.359 585,-406.033 604.88,-390.57 628.85,-375.034 646.827,-363.939"/>
<polygon fill="midnightblue" stroke="midnightblue" points="648.917,-366.763 655.628,-358.565 645.269,-360.789 648.917,-366.763"/>
</g>
<!-- Node145 -->
<g id="node21" class="node"><title>Node145</title>
<g id="a_node21"><a xlink:href="namespacex__utilities.html#a689aca7fedb49c43c5a65a18d557259f" target="_top" xlink:title="Determines whether a variable needs to be considered: ">
<polygon fill="white" stroke="black" points="585,-455.533 585,-476.533 764,-476.533 764,-455.533 585,-455.533"/>
<text text-anchor="middle" x="674.5" y="-462.933" font-family="Ubuntu Mono" font-size="12.00">x_utilities::is_necessary_x</text>
</a>
</g>
</g>
<!-- Node143&#45;&gt;Node145 -->
<g id="edge30" class="edge"><title>Node143&#45;&gt;Node145</title>
<path fill="none" stroke="midnightblue" d="M531.101,-466.033C545.032,-466.033 559.974,-466.033 574.75,-466.033"/>
<polygon fill="midnightblue" stroke="midnightblue" points="574.938,-469.533 584.938,-466.033 574.938,-462.533 574.938,-469.533"/>
</g>
<!-- Node146&#45;&gt;Node140 -->
<g id="edge34" class="edge"><title>Node146&#45;&gt;Node140</title>
<path fill="none" stroke="midnightblue" d="M516.558,-313.595C527.776,-317.158 539.18,-321.86 549,-328.033 569.249,-340.762 564.287,-356.074 585,-368.033 655.433,-408.696 687.59,-378.178 764,-406.033 795.481,-417.509 829.067,-436.392 851.262,-449.91"/>
<polygon fill="midnightblue" stroke="midnightblue" points="849.691,-453.054 860.037,-455.337 853.373,-447.1 849.691,-453.054"/>
</g>
<!-- Node146&#45;&gt;Node144 -->
<g id="edge33" class="edge"><title>Node146&#45;&gt;Node144</title>
<path fill="none" stroke="midnightblue" d="M512.736,-313.583C543.037,-320.077 582.067,-328.44 614.081,-335.3"/>
<polygon fill="midnightblue" stroke="midnightblue" points="613.698,-338.798 624.209,-337.471 615.165,-331.953 613.698,-338.798"/>
</g>
<!-- Node146&#45;&gt;Node145 -->
<g id="edge32" class="edge"><title>Node146&#45;&gt;Node145</title>
<path fill="none" stroke="midnightblue" d="M473.512,-313.745C489.76,-331.244 522.698,-367.205 549,-399.033 565.762,-419.316 562.843,-431.84 585,-446.033 588.171,-448.064 591.521,-449.89 594.99,-451.532"/>
<polygon fill="midnightblue" stroke="midnightblue" points="593.83,-454.841 604.407,-455.462 596.526,-448.38 593.83,-454.841"/>
</g>
<!-- Node146&#45;&gt;Node147 -->
<g id="edge35" class="edge"><title>Node146&#45;&gt;Node147</title>
<path fill="none" stroke="midnightblue" d="M523.292,-313.552C532.572,-317.071 541.539,-321.767 549,-328.033 576.702,-351.298 557.192,-377.895 585,-401.033 591.777,-406.672 599.748,-411.041 608.083,-414.426"/>
<polygon fill="midnightblue" stroke="midnightblue" points="607.008,-417.759 617.603,-417.845 609.374,-411.171 607.008,-417.759"/>
</g>
<!-- Node147&#45;&gt;Node140 -->
<g id="edge36" class="edge"><title>Node147&#45;&gt;Node140</title>
<path fill="none" stroke="midnightblue" d="M728.31,-436.542C754.519,-441.758 786.361,-448.095 813.802,-453.556"/>
<polygon fill="midnightblue" stroke="midnightblue" points="813.203,-457.005 823.694,-455.524 814.569,-450.14 813.203,-457.005"/>
</g>
<!-- Node148&#45;&gt;Node132 -->
<g id="edge42" class="edge"><title>Node148&#45;&gt;Node132</title>
<path fill="none" stroke="midnightblue" d="M278.337,-429.844C295.284,-449.925 334.38,-493.192 376,-518.033 495.902,-589.596 533.866,-619.033 673.5,-619.033 673.5,-619.033 673.5,-619.033 878.5,-619.033 980.823,-619.033 1098.89,-619.033 1174.55,-619.033"/>
<polygon fill="midnightblue" stroke="midnightblue" points="1174.94,-622.533 1184.94,-619.033 1174.94,-615.533 1174.94,-622.533"/>
</g>
<!-- Node148&#45;&gt;Node140 -->
<g id="edge40" class="edge"><title>Node148&#45;&gt;Node140</title>
<path fill="none" stroke="midnightblue" d="M280.101,-429.654C297.999,-446.749 336.174,-479.694 376,-492.033 536.055,-541.622 738.534,-501.89 829.035,-479.16"/>
<polygon fill="midnightblue" stroke="midnightblue" points="830.17,-482.483 838.991,-476.614 828.436,-475.701 830.17,-482.483"/>
</g>
<!-- Node148&#45;&gt;Node147 -->
<g id="edge41" class="edge"><title>Node148&#45;&gt;Node147</title>
<path fill="none" stroke="midnightblue" d="M315.368,-408.49C334.063,-404.699 355.957,-400.899 376,-399.033 452.558,-391.907 472.549,-390.838 549,-399.033 574.478,-401.764 602.394,-407.553 625.324,-413.073"/>
<polygon fill="midnightblue" stroke="midnightblue" points="624.604,-416.5 635.151,-415.495 626.279,-409.703 624.604,-416.5"/>
</g>
<!-- Node149 -->
<g id="node25" class="node"><title>Node149</title>
<g id="a_node25"><a xlink:href="namespacex__utilities.html#a4d18921da77463d069346f1c7322b451" target="_top" xlink:title="Calculate memory in MB necessary for X variables. ">
<polygon fill="white" stroke="black" points="376,-408.533 376,-429.533 549,-429.533 549,-408.533 376,-408.533"/>
<text text-anchor="middle" x="462.5" y="-415.933" font-family="Ubuntu Mono" font-size="12.00">x_utilities::calc_memory_x</text>
</a>
</g>
</g>
<!-- Node148&#45;&gt;Node149 -->
<g id="edge38" class="edge"><title>Node148&#45;&gt;Node149</title>
<path fill="none" stroke="midnightblue" d="M337.192,-419.033C346.487,-419.033 356.171,-419.033 365.85,-419.033"/>
<polygon fill="midnightblue" stroke="midnightblue" points="365.919,-422.533 375.919,-419.033 365.919,-415.533 365.919,-422.533"/>
</g>
<!-- Node149&#45;&gt;Node147 -->
<g id="edge39" class="edge"><title>Node149&#45;&gt;Node147</title>
<path fill="none" stroke="midnightblue" d="M549.218,-421.89C568.739,-422.541 589.181,-423.222 607.718,-423.84"/>
<polygon fill="midnightblue" stroke="midnightblue" points="607.692,-427.341 617.803,-424.176 607.925,-420.345 607.692,-427.341"/>
</g>
<!-- Node150&#45;&gt;Node132 -->
<g id="edge47" class="edge"><title>Node150&#45;&gt;Node132</title>
<path fill="none" stroke="midnightblue" d="M523.909,-273.088C543.359,-278.406 565.042,-284.152 585,-289.033 834.312,-350.008 943.059,-268.904 1146,-426.033 1204.64,-471.434 1235.53,-558.688 1247.08,-598.419"/>
<polygon fill="midnightblue" stroke="midnightblue" points="1243.77,-599.598 1249.83,-608.29 1250.51,-597.718 1243.77,-599.598"/>
</g>
<!-- Node150&#45;&gt;Node140 -->
<g id="edge44" class="edge"><title>Node150&#45;&gt;Node140</title>
<path fill="none" stroke="midnightblue" d="M501.937,-238.948C563.869,-214.311 686.611,-177.787 764,-236.033 810.192,-270.799 774.592,-309.102 800,-361.033 816.219,-394.182 842.957,-427.851 860.142,-447.833"/>
<polygon fill="midnightblue" stroke="midnightblue" points="857.645,-450.295 866.863,-455.518 862.914,-445.686 857.645,-450.295"/>
</g>
<!-- Node150&#45;&gt;Node144 -->
<g id="edge48" class="edge"><title>Node150&#45;&gt;Node144</title>
<path fill="none" stroke="midnightblue" d="M525.095,-271.083C533.456,-274.369 541.67,-278.315 549,-283.033 569.111,-295.978 564.693,-310.396 585,-323.033 592.112,-327.459 600.027,-331.121 608.116,-334.146"/>
<polygon fill="midnightblue" stroke="midnightblue" points="607.06,-337.484 617.655,-337.412 609.328,-330.861 607.06,-337.484"/>
</g>
<!-- Node150&#45;&gt;Node147 -->
<g id="edge45" class="edge"><title>Node150&#45;&gt;Node147</title>
<path fill="none" stroke="midnightblue" d="M525.399,-268.414C534.002,-272.088 542.206,-276.854 549,-283.033 579.351,-310.637 558.707,-336.539 585,-368.033 600.208,-386.249 622.602,-400.849 641.057,-410.845"/>
<polygon fill="midnightblue" stroke="midnightblue" points="639.534,-413.998 650.02,-415.512 642.767,-407.789 639.534,-413.998"/>
</g>
<!-- Node151 -->
<g id="node27" class="node"><title>Node151</title>
<g id="a_node27"><a xlink:href="namespacehelena__ops.html#ab1329afe5af2ff92d96f4be15a096b38" target="_top" xlink:title="Calculate interpolation factors for angular interpolation in grid_out of quantities defined on grid_i...">
<polygon fill="white" stroke="black" points="609,-246.033 609,-280.033 740,-280.033 740,-246.033 609,-246.033"/>
<text text-anchor="start" x="617" y="-266.433" font-family="Ubuntu Mono" font-size="12.00">helena_ops::get_ang</text>
<text text-anchor="middle" x="674.5" y="-253.433" font-family="Ubuntu Mono" font-size="12.00">_interp_data_hel</text>
</a>
</g>
</g>
<!-- Node150&#45;&gt;Node151 -->
<g id="edge46" class="edge"><title>Node150&#45;&gt;Node151</title>
<path fill="none" stroke="midnightblue" d="M525.088,-258.086C548.174,-258.855 574.657,-259.738 598.803,-260.543"/>
<polygon fill="midnightblue" stroke="midnightblue" points="598.88,-264.047 608.991,-260.883 599.113,-257.051 598.88,-264.047"/>
</g>
<!-- Node152 -->
<g id="node28" class="node"><title>Node152</title>
<g id="a_node28"><a xlink:href="namespacenum__utilities.html#ac827c18dd05a9b5a06675eac942f3b51" target="_top" xlink:title="Returns derivatives of certain order. ">
<polygon fill="white" stroke="black" points="603,-167.533 603,-188.533 746,-188.533 746,-167.533 603,-167.533"/>
<text text-anchor="middle" x="674.5" y="-174.933" font-family="Ubuntu Mono" font-size="12.00">num_utilities::derivs</text>
</a>
</g>
</g>
<!-- Node150&#45;&gt;Node152 -->
<g id="edge49" class="edge"><title>Node150&#45;&gt;Node152</title>
<path fill="none" stroke="midnightblue" d="M499.135,-238.959C523.08,-227.868 555.528,-213.568 585,-203.033 596.863,-198.792 609.821,-194.791 622.071,-191.284"/>
<polygon fill="midnightblue" stroke="midnightblue" points="623.026,-194.651 631.71,-188.582 621.137,-187.911 623.026,-194.651"/>
</g>
<!-- Node154&#45;&gt;Node132 -->
<g id="edge55" class="edge"><title>Node154&#45;&gt;Node132</title>
<path fill="none" stroke="midnightblue" d="M502.704,-128.479C560.833,-114.597 672.827,-94.6558 764,-119.033 953.272,-169.639 1018.91,-189.927 1146,-339.033 1214.53,-419.437 1241.36,-548.54 1249.52,-598.431"/>
<polygon fill="midnightblue" stroke="midnightblue" points="1246.06,-598.993 1251.06,-608.336 1252.98,-597.917 1246.06,-598.993"/>
</g>
<!-- Node154&#45;&gt;Node134 -->
<g id="edge54" class="edge"><title>Node154&#45;&gt;Node134</title>
<path fill="none" stroke="midnightblue" d="M519.516,-128.523C583.258,-119.583 688.31,-114.275 764,-158.033 896.969,-234.905 886.427,-308.6 955,-446.033 1008.47,-553.19 1048.3,-692.065 1062.16,-743.609"/>
<polygon fill="midnightblue" stroke="midnightblue" points="1058.84,-744.732 1064.79,-753.497 1065.61,-742.934 1058.84,-744.732"/>
</g>
<!-- Node154&#45;&gt;Node144 -->
<g id="edge52" class="edge"><title>Node154&#45;&gt;Node144</title>
<path fill="none" stroke="midnightblue" d="M475.136,-149.685C492.425,-165.848 525.39,-197.981 549,-229.033 567.823,-253.788 563.539,-266.526 585,-289.033 601.897,-306.754 625.033,-321.946 643.412,-332.475"/>
<polygon fill="midnightblue" stroke="midnightblue" points="641.827,-335.598 652.267,-337.401 645.23,-329.481 641.827,-335.598"/>
</g>
<!-- Node155 -->
<g id="node31" class="node"><title>Node155</title>
<g id="a_node31"><a xlink:href="namespacegrid__utilities.html#a67001ff9bbcad707aacf17f90a748d90" target="_top" xlink:title="Trim a grid, removing any overlap between the different regions. ">
<polygon fill="white" stroke="black" points="591,-51.5329 591,-72.5329 758,-72.5329 758,-51.5329 591,-51.5329"/>
<text text-anchor="middle" x="674.5" y="-58.9329" font-family="Ubuntu Mono" font-size="12.00">grid_utilities::trim_grid</text>
</a>
</g>
</g>
<!-- Node154&#45;&gt;Node155 -->
<g id="edge53" class="edge"><title>Node154&#45;&gt;Node155</title>
<path fill="none" stroke="midnightblue" d="M485.994,-128.367C510.124,-117.172 549.74,-99.4999 585,-87.0329 596.877,-82.8333 609.841,-78.8475 622.092,-75.3426"/>
<polygon fill="midnightblue" stroke="midnightblue" points="623.047,-78.71 631.731,-72.64 621.157,-71.9699 623.047,-78.71"/>
</g>
<!-- Node156&#45;&gt;Node132 -->
<g id="edge60" class="edge"><title>Node156&#45;&gt;Node132</title>
<path fill="none" stroke="midnightblue" d="M729.679,-11.4738C826.935,4.0614 1031.63,20.6451 1146,-87.0329 1222.38,-158.94 1246.47,-508.451 1251.44,-598.064"/>
<polygon fill="midnightblue" stroke="midnightblue" points="1247.96,-598.505 1251.99,-608.304 1254.95,-598.132 1247.96,-598.505"/>
</g>
<!-- Node156&#45;&gt;Node140 -->
<g id="edge59" class="edge"><title>Node156&#45;&gt;Node140</title>
<path fill="none" stroke="midnightblue" d="M751.031,-32.6844C755.75,-35.2349 760.143,-38.3167 764,-42.0329 823.981,-99.8287 863.596,-368.42 873.856,-445.377"/>
<polygon fill="midnightblue" stroke="midnightblue" points="870.386,-445.832 875.156,-455.293 877.327,-444.923 870.386,-445.832"/>
</g>
</g>
</svg>
