<?xml version="1.0" encoding="UTF-8" standalone="no"?>
<!DOCTYPE svg PUBLIC "-//W3C//DTD SVG 1.1//EN"
 "http://www.w3.org/Graphics/SVG/1.1/DTD/svg11.dtd">
<!-- Generated by graphviz version 2.38.0 (20140413.2041)
 -->
<!-- Title: helena_vars::dealloc_hel Pages: 1 -->
<svg width="700pt" height="109pt"
 viewBox="0.00 0.00 700.00 109.00" xmlns="http://www.w3.org/2000/svg" xmlns:xlink="http://www.w3.org/1999/xlink">
<g id="graph0" class="graph" transform="scale(1 1) rotate(0) translate(4 105)">
<title>helena_vars::dealloc_hel</title>
<polygon fill="white" stroke="none" points="-4,4 -4,-105 696,-105 696,4 -4,4"/>
<!-- Node0 -->
<g id="node1" class="node"><title>Node0</title>
<polygon fill="#bfbfbf" stroke="black" points="0,-40.5 0,-61.5 161,-61.5 161,-40.5 0,-40.5"/>
<text text-anchor="middle" x="80.5" y="-47.9" font-family="Ubuntu Mono" font-size="12.00">helena_vars::dealloc_hel</text>
</g>
<!-- Node1 -->
<g id="node2" class="node"><title>Node1</title>
<g id="a_node2"><a xlink:href="namespacemessages.html#a82dddaab795b78b3d39e1ff1aab2f665" target="_top" xlink:title="messages::get_mem_usage">
<polygon fill="white" stroke="black" points="370,-79.5 370,-100.5 525,-100.5 525,-79.5 370,-79.5"/>
<text text-anchor="middle" x="447.5" y="-86.9" font-family="Ubuntu Mono" font-size="12.00">messages::get_mem_usage</text>
</a>
</g>
</g>
<!-- Node0&#45;&gt;Node1 -->
<g id="edge1" class="edge"><title>Node0&#45;&gt;Node1</title>
<path fill="none" stroke="midnightblue" d="M135.981,-61.5347C155.204,-64.9591 177.007,-68.5135 197,-71 250.93,-77.7072 311.734,-82.3964 359.814,-85.4382"/>
<polygon fill="midnightblue" stroke="midnightblue" points="359.676,-88.9363 369.873,-86.0624 360.109,-81.9497 359.676,-88.9363"/>
</g>
<!-- Node2 -->
<g id="node3" class="node"><title>Node2</title>
<g id="a_node3"><a xlink:href="namespacemessages.html#aa4a8d01563e92558e8a0875b075ec54c" target="_top" xlink:title="messages::writo">
<polygon fill="white" stroke="black" points="212,-40.5 212,-61.5 319,-61.5 319,-40.5 212,-40.5"/>
<text text-anchor="middle" x="265.5" y="-47.9" font-family="Ubuntu Mono" font-size="12.00">messages::writo</text>
</a>
</g>
</g>
<!-- Node0&#45;&gt;Node2 -->
<g id="edge2" class="edge"><title>Node0&#45;&gt;Node2</title>
<path fill="none" stroke="midnightblue" d="M161.234,-51C174.762,-51 188.639,-51 201.656,-51"/>
<polygon fill="midnightblue" stroke="midnightblue" points="201.887,-54.5001 211.887,-51 201.887,-47.5001 201.887,-54.5001"/>
</g>
<!-- Node5 -->
<g id="node6" class="node"><title>Node5</title>
<g id="a_node6"><a xlink:href="namespacestr__utilities.html#a0b97e51770725a3e98ed393d26681414" target="_top" xlink:title="str_utilities::i2str">
<polygon fill="white" stroke="black" points="197,-0.5 197,-21.5 334,-21.5 334,-0.5 197,-0.5"/>
<text text-anchor="middle" x="265.5" y="-7.9" font-family="Ubuntu Mono" font-size="12.00">str_utilities::i2str</text>
</a>
</g>
</g>
<!-- Node0&#45;&gt;Node5 -->
<g id="edge6" class="edge"><title>Node0&#45;&gt;Node5</title>
<path fill="none" stroke="midnightblue" d="M129.581,-40.4905C153.129,-35.3434 181.671,-29.1046 206.428,-23.6933"/>
<polygon fill="midnightblue" stroke="midnightblue" points="207.401,-27.0634 216.423,-21.5087 205.906,-20.2249 207.401,-27.0634"/>
</g>
<!-- Node2&#45;&gt;Node1 -->
<g id="edge3" class="edge"><title>Node2&#45;&gt;Node1</title>
<path fill="none" stroke="midnightblue" d="M315.211,-61.554C337.622,-66.4097 364.394,-72.2103 387.899,-77.3031"/>
<polygon fill="midnightblue" stroke="midnightblue" points="387.236,-80.7406 397.75,-79.4376 388.718,-73.8994 387.236,-80.7406"/>
</g>
<!-- Node3 -->
<g id="node4" class="node"><title>Node3</title>
<g id="a_node4"><a xlink:href="messages_8f90.html#a6d15f28783f95a7a4b2a44185619792f" target="_top" xlink:title="format_str">
<polygon fill="white" stroke="black" points="409,-39.5 409,-60.5 486,-60.5 486,-39.5 409,-39.5"/>
<text text-anchor="middle" x="447.5" y="-46.9" font-family="Ubuntu Mono" font-size="12.00">format_str</text>
</a>
</g>
</g>
<!-- Node2&#45;&gt;Node3 -->
<g id="edge4" class="edge"><title>Node2&#45;&gt;Node3</title>
<path fill="none" stroke="midnightblue" d="M319.047,-50.7081C344.198,-50.5683 374.099,-50.4022 398.615,-50.266"/>
<polygon fill="midnightblue" stroke="midnightblue" points="398.783,-53.7652 408.764,-50.2096 398.744,-46.7654 398.783,-53.7652"/>
</g>
<!-- Node4 -->
<g id="node5" class="node"><title>Node4</title>
<g id="a_node5"><a xlink:href="namespacemessages.html#a61fd0b51b5e37d58fdc993c01792a3fd" target="_top" xlink:title="messages::get_clock">
<polygon fill="white" stroke="black" points="561,-39.5 561,-60.5 692,-60.5 692,-39.5 561,-39.5"/>
<text text-anchor="middle" x="626.5" y="-46.9" font-family="Ubuntu Mono" font-size="12.00">messages::get_clock</text>
</a>
</g>
</g>
<!-- Node3&#45;&gt;Node4 -->
<g id="edge5" class="edge"><title>Node3&#45;&gt;Node4</title>
<path fill="none" stroke="midnightblue" d="M486.037,-50C504.869,-50 528.372,-50 550.685,-50"/>
<polygon fill="midnightblue" stroke="midnightblue" points="550.832,-53.5001 560.832,-50 550.832,-46.5001 550.832,-53.5001"/>
</g>
</g>
</svg>
