<?xml version="1.0" encoding="UTF-8" standalone="no"?>
<!DOCTYPE svg PUBLIC "-//W3C//DTD SVG 1.1//EN"
 "http://www.w3.org/Graphics/SVG/1.1/DTD/svg11.dtd">
<!-- Generated by graphviz version 2.43.0 (0)
 -->
<!-- Title: rich_ops::check_conv Pages: 1 -->
<svg width="416pt" height="70pt"
 viewBox="0.00 0.00 416.00 70.00" xmlns="http://www.w3.org/2000/svg" xmlns:xlink="http://www.w3.org/1999/xlink">
<g id="graph0" class="graph" transform="scale(1 1) rotate(0) translate(4 66)">
<title>rich_ops::check_conv</title>
<polygon fill="white" stroke="transparent" points="-4,4 -4,-66 412,-66 412,4 -4,4"/>
<!-- Node1 -->
<g id="node1" class="node">
<title>Node1</title>
<g id="a_node1"><a xlink:title="Decides whether convergence has been reached for the Richardson extrapolation.">
<polygon fill="#bfbfbf" stroke="black" points="265,-20.5 265,-41.5 408,-41.5 408,-20.5 265,-20.5"/>
<text text-anchor="middle" x="336.5" y="-27.9" font-family="Ubuntu Mono" font-size="12.00">rich_ops::check_conv</text>
</a>
</g>
</g>
<!-- Node2 -->
<g id="node2" class="node">
<title>Node2</title>
<g id="a_node2"><a xlink:href="namespacerich__ops.html#a9fbbda93eab8973d33063e277c489e7b" target="_top" xlink:title="Initialize Richardson extrapolation system.">
<polygon fill="white" stroke="black" points="96,-40.5 96,-61.5 216,-61.5 216,-40.5 96,-40.5"/>
<text text-anchor="middle" x="156" y="-47.9" font-family="Ubuntu Mono" font-size="12.00">rich_ops::init_rich</text>
</a>
</g>
</g>
<!-- Node1&#45;&gt;Node2 -->
<g id="edge1" class="edge">
<title>Node1&#45;&gt;Node2</title>
<path fill="none" stroke="midnightblue" d="M255.01,-40.02C241.91,-41.49 228.56,-42.98 216.1,-44.38"/>
<polygon fill="midnightblue" stroke="midnightblue" points="255.4,-43.5 264.95,-38.9 254.62,-36.54 255.4,-43.5"/>
</g>
<!-- Node4 -->
<g id="node4" class="node">
<title>Node4</title>
<g id="a_node4"><a xlink:href="namespacerich__ops.html#a0cce16b835e18b025d366a038b22efe1" target="_top" xlink:title="Stop a Richardson level.">
<polygon fill="white" stroke="black" points="83,-0.5 83,-21.5 229,-21.5 229,-0.5 83,-0.5"/>
<text text-anchor="middle" x="156" y="-7.9" font-family="Ubuntu Mono" font-size="12.00">rich_ops::stop_rich_lvl</text>
</a>
</g>
</g>
<!-- Node1&#45;&gt;Node4 -->
<g id="edge3" class="edge">
<title>Node1&#45;&gt;Node4</title>
<path fill="none" stroke="midnightblue" d="M254.91,-21.97C246.3,-21.01 237.59,-20.03 229.08,-19.08"/>
<polygon fill="midnightblue" stroke="midnightblue" points="254.62,-25.46 264.95,-23.1 255.4,-18.5 254.62,-25.46"/>
</g>
<!-- Node3 -->
<g id="node3" class="node">
<title>Node3</title>
<g id="a_node3"><a xlink:href="PB3D_8f90.html#afaee01f014ab3398eecac996b2795fd2" target="_top" xlink:title="Peeling Ballooning in 3D.">
<polygon fill="white" stroke="black" points="0,-20.5 0,-41.5 47,-41.5 47,-20.5 0,-20.5"/>
<text text-anchor="middle" x="23.5" y="-27.9" font-family="Ubuntu Mono" font-size="12.00">pb3d</text>
</a>
</g>
</g>
<!-- Node2&#45;&gt;Node3 -->
<g id="edge2" class="edge">
<title>Node2&#45;&gt;Node3</title>
<path fill="none" stroke="midnightblue" d="M85.71,-40.38C71.79,-38.25 58.11,-36.15 47.23,-34.48"/>
<polygon fill="midnightblue" stroke="midnightblue" points="85.44,-43.88 95.86,-41.94 86.5,-36.96 85.44,-43.88"/>
</g>
<!-- Node4&#45;&gt;Node3 -->
<g id="edge4" class="edge">
<title>Node4&#45;&gt;Node3</title>
<path fill="none" stroke="midnightblue" d="M76.12,-23.09C65.62,-24.7 55.61,-26.23 47.24,-27.51"/>
<polygon fill="midnightblue" stroke="midnightblue" points="76.96,-26.5 86.31,-21.53 75.9,-19.58 76.96,-26.5"/>
</g>
</g>
</svg>
