<?xml version="1.0" encoding="UTF-8" standalone="no"?>
<!DOCTYPE svg PUBLIC "-//W3C//DTD SVG 1.1//EN"
 "http://www.w3.org/Graphics/SVG/1.1/DTD/svg11.dtd">
<!-- Generated by graphviz version 2.38.0 (20140413.2041)
 -->
<!-- Title: rich_ops::check_conv Pages: 1 -->
<svg width="413pt" height="70pt"
 viewBox="0.00 0.00 413.00 70.00" xmlns="http://www.w3.org/2000/svg" xmlns:xlink="http://www.w3.org/1999/xlink">
<g id="graph0" class="graph" transform="scale(1 1) rotate(0) translate(4 66)">
<title>rich_ops::check_conv</title>
<polygon fill="white" stroke="none" points="-4,4 -4,-66 409,-66 409,4 -4,4"/>
<!-- Node12 -->
<g id="node1" class="node"><title>Node12</title>
<polygon fill="#bfbfbf" stroke="black" points="0,-20.5 0,-41.5 137,-41.5 137,-20.5 0,-20.5"/>
<text text-anchor="middle" x="68.5" y="-27.9" font-family="Ubuntu Mono" font-size="12.00">rich_ops::check_conv</text>
</g>
<!-- Node13 -->
<g id="node2" class="node"><title>Node13</title>
<g id="a_node2"><a xlink:href="namespacerich__ops.html#a9fbbda93eab8973d33063e277c489e7b" target="_top" xlink:title="rich_ops::init_rich">
<polygon fill="white" stroke="black" points="185,-40.5 185,-61.5 316,-61.5 316,-40.5 185,-40.5"/>
<text text-anchor="middle" x="250.5" y="-47.9" font-family="Ubuntu Mono" font-size="12.00">rich_ops::init_rich</text>
</a>
</g>
</g>
<!-- Node12&#45;&gt;Node13 -->
<g id="edge1" class="edge"><title>Node12&#45;&gt;Node13</title>
<path fill="none" stroke="midnightblue" d="M147.059,-39.6176C159.667,-41.0185 172.607,-42.4564 184.864,-43.8183"/>
<polygon fill="midnightblue" stroke="midnightblue" points="147.363,-36.13 137.037,-38.5042 146.59,-43.0872 147.363,-36.13"/>
</g>
<!-- Node15 -->
<g id="node4" class="node"><title>Node15</title>
<g id="a_node4"><a xlink:href="namespacerich__ops.html#a56eae87ecc82010895d63b45a16e6106" target="_top" xlink:title="rich_ops::stop_rich_lvl">
<polygon fill="white" stroke="black" points="173,-0.5 173,-21.5 328,-21.5 328,-0.5 173,-0.5"/>
<text text-anchor="middle" x="250.5" y="-7.9" font-family="Ubuntu Mono" font-size="12.00">rich_ops::stop_rich_lvl</text>
</a>
</g>
</g>
<!-- Node12&#45;&gt;Node15 -->
<g id="edge3" class="edge"><title>Node12&#45;&gt;Node15</title>
<path fill="none" stroke="midnightblue" d="M146.994,-22.3895C155.552,-21.4387 164.264,-20.4707 172.812,-19.5209"/>
<polygon fill="midnightblue" stroke="midnightblue" points="146.59,-18.9128 137.037,-23.4958 147.363,-25.87 146.59,-18.9128"/>
</g>
<!-- Node14 -->
<g id="node3" class="node"><title>Node14</title>
<g id="a_node3"><a xlink:href="PB3D_8f90.html#afaee01f014ab3398eecac996b2795fd2" target="_top" xlink:title="pb3d">
<polygon fill="white" stroke="black" points="364,-20.5 364,-41.5 405,-41.5 405,-20.5 364,-20.5"/>
<text text-anchor="middle" x="384.5" y="-27.9" font-family="Ubuntu Mono" font-size="12.00">pb3d</text>
</a>
</g>
</g>
<!-- Node13&#45;&gt;Node14 -->
<g id="edge2" class="edge"><title>Node13&#45;&gt;Node14</title>
<path fill="none" stroke="midnightblue" d="M326.478,-39.6396C340.321,-37.5423 353.626,-35.5264 363.897,-33.9701"/>
<polygon fill="midnightblue" stroke="midnightblue" points="325.703,-36.2171 316.34,-41.1758 326.751,-43.1381 325.703,-36.2171"/>
</g>
<!-- Node15&#45;&gt;Node14 -->
<g id="edge4" class="edge"><title>Node15&#45;&gt;Node14</title>
<path fill="none" stroke="midnightblue" d="M330.893,-23.0292C343.126,-24.8827 354.718,-26.639 363.891,-28.0289"/>
<polygon fill="midnightblue" stroke="midnightblue" points="331.391,-19.5648 320.979,-21.5271 330.342,-26.4858 331.391,-19.5648"/>
</g>
</g>
</svg>
