<?xml version="1.0" encoding="UTF-8" standalone="no"?>
<!DOCTYPE svg PUBLIC "-//W3C//DTD SVG 1.1//EN"
 "http://www.w3.org/Graphics/SVG/1.1/DTD/svg11.dtd">
<!-- Generated by graphviz version 14.1.2 (20260124.0452)
 -->
<!-- Title: x_ops::resonance_plot Pages: 1 -->
<svg width="458pt" height="68pt"
 viewBox="0.00 0.00 458.00 68.00" xmlns="http://www.w3.org/2000/svg" xmlns:xlink="http://www.w3.org/1999/xlink">
<g id="graph0" class="graph" transform="scale(1 1) rotate(0) translate(4 63.75)">
<title>x_ops::resonance_plot</title>
<!-- Node1 -->
<g id="Node000001" class="node">
<title>Node1</title>
<g id="a_Node000001"><a xlink:title="plot &#45;profile or &#45;profile in flux coordinates with &#160;or &#160;indicated if requested.">
<polygon fill="#999999" stroke="#666666" points="450,-39.75 308,-39.75 308,-19 450,-19 450,-39.75"/>
<text xml:space="preserve" text-anchor="middle" x="379" y="-24.35" font-family="Ubuntu Mono" font-size="12.00">x_ops::resonance_plot</text>
</a>
</g>
</g>
<!-- Node2 -->
<g id="Node000002" class="node">
<title>Node2</title>
<g id="a_Node000002"><a xlink:href="namespacedriver__post.html#af527706d4e696d4e507443d2f74194ef" target="_top" xlink:title="Initializes the POST driver.">
<polygon fill="white" stroke="#666666" points="272,-59.75 124,-59.75 124,-39 272,-39 272,-59.75"/>
<text xml:space="preserve" text-anchor="middle" x="198" y="-44.35" font-family="Ubuntu Mono" font-size="12.00">driver_post::init_post</text>
</a>
</g>
</g>
<!-- Node1&#45;&gt;Node2 -->
<g id="edge1_Node000001_Node000002" class="edge">
<title>Node1&#45;&gt;Node2</title>
<g id="a_edge1_Node000001_Node000002"><a xlink:title=" ">
<path fill="none" stroke="#63b8ff" d="M296.31,-38.5C288.33,-39.39 280.26,-40.3 272.37,-41.18"/>
<polygon fill="#63b8ff" stroke="#63b8ff" points="296.46,-42.01 306.01,-37.42 295.68,-35.05 296.46,-42.01"/>
</a>
</g>
</g>
<!-- Node4 -->
<g id="Node000004" class="node">
<title>Node4</title>
<g id="a_Node000004"><a xlink:href="namespacedriver__x.html#a0dafd879836a65efc2ec726d04368532" target="_top" xlink:title="Main driver of PB3D perturbation part.">
<polygon fill="white" stroke="#666666" points="272,-20.75 124,-20.75 124,0 272,0 272,-20.75"/>
<text xml:space="preserve" text-anchor="middle" x="198" y="-5.35" font-family="Ubuntu Mono" font-size="12.00">driver_x::run_driver_x</text>
</a>
</g>
</g>
<!-- Node1&#45;&gt;Node4 -->
<g id="edge3_Node000001_Node000004" class="edge">
<title>Node1&#45;&gt;Node4</title>
<g id="a_edge3_Node000001_Node000004"><a xlink:title=" ">
<path fill="none" stroke="#63b8ff" d="M296.31,-20.7C288.33,-19.86 280.26,-19 272.37,-18.16"/>
<polygon fill="#63b8ff" stroke="#63b8ff" points="295.69,-24.16 306.01,-21.73 296.43,-17.2 295.69,-24.16"/>
</a>
</g>
</g>
<!-- Node3 -->
<g id="Node000003" class="node">
<title>Node3</title>
<g id="a_Node000003"><a xlink:href="POST_8f90.html#a28f8fd95cf9c74c0cfd8b386827a7a9b" target="_top" xlink:title="Peeling Ballooning in 3D: postprocessing.">
<polygon fill="white" stroke="#666666" points="88,-59.75 0,-59.75 0,-39 88,-39 88,-59.75"/>
<text xml:space="preserve" text-anchor="middle" x="44" y="-44.35" font-family="Ubuntu Mono" font-size="12.00">__post_f90__</text>
</a>
</g>
</g>
<!-- Node2&#45;&gt;Node3 -->
<g id="edge2_Node000002_Node000003" class="edge">
<title>Node2&#45;&gt;Node3</title>
<g id="a_edge2_Node000002_Node000003"><a xlink:title=" ">
<path fill="none" stroke="#63b8ff" d="M112.3,-49.38C103.99,-49.38 95.82,-49.38 88.2,-49.38"/>
<polygon fill="#63b8ff" stroke="#63b8ff" points="112.16,-52.88 122.16,-49.38 112.16,-45.88 112.16,-52.88"/>
</a>
</g>
</g>
<!-- Node5 -->
<g id="Node000005" class="node">
<title>Node5</title>
<g id="a_Node000005"><a xlink:href="PB3D_8f90.html#a36e5b0ce05c9783f58b43c4463b290a1" target="_top" xlink:title="Peeling Ballooning in 3D.">
<polygon fill="white" stroke="#666666" points="88,-20.75 0,-20.75 0,0 88,0 88,-20.75"/>
<text xml:space="preserve" text-anchor="middle" x="44" y="-5.35" font-family="Ubuntu Mono" font-size="12.00">__pb3d_f90__</text>
</a>
</g>
</g>
<!-- Node4&#45;&gt;Node5 -->
<g id="edge4_Node000004_Node000005" class="edge">
<title>Node4&#45;&gt;Node5</title>
<g id="a_edge4_Node000004_Node000005"><a xlink:title=" ">
<path fill="none" stroke="#63b8ff" d="M112.3,-10.38C103.99,-10.38 95.82,-10.38 88.2,-10.38"/>
<polygon fill="#63b8ff" stroke="#63b8ff" points="112.16,-13.88 122.16,-10.38 112.16,-6.88 112.16,-13.88"/>
</a>
</g>
</g>
</g>
</svg>
