<?xml version="1.0" encoding="UTF-8" standalone="no"?>
<!DOCTYPE svg PUBLIC "-//W3C//DTD SVG 1.1//EN"
 "http://www.w3.org/Graphics/SVG/1.1/DTD/svg11.dtd">
<!-- Generated by graphviz version 2.38.0 (20140413.2041)
 -->
<!-- Title: grid_utilities::nufft Pages: 1 -->
<svg width="479pt" height="84pt"
 viewBox="0.00 0.00 479.00 83.50" xmlns="http://www.w3.org/2000/svg" xmlns:xlink="http://www.w3.org/1999/xlink">
<g id="graph0" class="graph" transform="scale(1 1) rotate(0) translate(4 79.5)">
<title>grid_utilities::nufft</title>
<polygon fill="white" stroke="none" points="-4,4 -4,-79.5 475,-79.5 475,4 -4,4"/>
<!-- Node167 -->
<g id="node1" class="node"><title>Node167</title>
<polygon fill="#bfbfbf" stroke="black" points="0,-23.5 0,-44.5 143,-44.5 143,-23.5 0,-23.5"/>
<text text-anchor="middle" x="71.5" y="-30.9" font-family="Ubuntu Mono" font-size="12.00">grid_utilities::nufft</text>
</g>
<!-- Node168 -->
<g id="node2" class="node"><title>Node168</title>
<g id="a_node2"><a xlink:href="eq__ops_8f90.html#aecc1d4103aa82217d3014ebb09d7f1e5" target="_top" xlink:title="write_flux_q_in_file\l_for_vmec">
<polygon fill="white" stroke="black" points="179,-41 179,-75 316,-75 316,-41 179,-41"/>
<text text-anchor="start" x="187" y="-61.4" font-family="Ubuntu Mono" font-size="12.00">write_flux_q_in_file</text>
<text text-anchor="middle" x="247.5" y="-48.4" font-family="Ubuntu Mono" font-size="12.00">_for_vmec</text>
</a>
</g>
</g>
<!-- Node167&#45;&gt;Node168 -->
<g id="edge1" class="edge"><title>Node167&#45;&gt;Node168</title>
<path fill="none" stroke="midnightblue" d="M153.117,-45.1196C161.767,-46.3127 170.502,-47.5175 178.977,-48.6865"/>
<polygon fill="midnightblue" stroke="midnightblue" points="153.406,-41.6264 143.022,-43.7271 152.45,-48.5608 153.406,-41.6264"/>
</g>
<!-- Node169 -->
<g id="node3" class="node"><title>Node169</title>
<g id="a_node3"><a xlink:href="namespaceeq__ops.html#aef40d04e93f6a96576f8fe893fb086f8" target="_top" xlink:title="eq_ops::test_jac_v">
<polygon fill="white" stroke="black" points="185,-0.5 185,-21.5 310,-21.5 310,-0.5 185,-0.5"/>
<text text-anchor="middle" x="247.5" y="-7.9" font-family="Ubuntu Mono" font-size="12.00">eq_ops::test_jac_v</text>
</a>
</g>
</g>
<!-- Node167&#45;&gt;Node169 -->
<g id="edge2" class="edge"><title>Node167&#45;&gt;Node169</title>
<path fill="none" stroke="midnightblue" d="M153.164,-23.3375C163.805,-21.931 174.573,-20.5076 184.826,-19.1522"/>
<polygon fill="midnightblue" stroke="midnightblue" points="152.477,-19.8978 143.022,-24.6782 153.394,-26.8375 152.477,-19.8978"/>
</g>
<!-- Node170 -->
<g id="node4" class="node"><title>Node170</title>
<g id="a_node4"><a xlink:href="namespaceeq__ops.html#a91256e08dadab2ccbabd66cf369c43a5" target="_top" xlink:title="eq_ops::calc_eq_2">
<polygon fill="white" stroke="black" points="352,-0.5 352,-21.5 471,-21.5 471,-0.5 352,-0.5"/>
<text text-anchor="middle" x="411.5" y="-7.9" font-family="Ubuntu Mono" font-size="12.00">eq_ops::calc_eq_2</text>
</a>
</g>
</g>
<!-- Node169&#45;&gt;Node170 -->
<g id="edge3" class="edge"><title>Node169&#45;&gt;Node170</title>
<path fill="none" stroke="midnightblue" d="M320.26,-11C330.839,-11 341.631,-11 351.901,-11"/>
<polygon fill="midnightblue" stroke="midnightblue" points="320.207,-7.5001 310.207,-11 320.207,-14.5001 320.207,-7.5001"/>
</g>
</g>
</svg>
