<?xml version="1.0" encoding="UTF-8" standalone="no"?>
<!DOCTYPE svg PUBLIC "-//W3C//DTD SVG 1.1//EN"
 "http://www.w3.org/Graphics/SVG/1.1/DTD/svg11.dtd">
<!-- Generated by graphviz version 2.38.0 (20140413.2041)
 -->
<!-- Title: sol_ops::plot_sol_vals Pages: 1 -->
<svg width="419pt" height="30pt"
 viewBox="0.00 0.00 419.00 30.00" xmlns="http://www.w3.org/2000/svg" xmlns:xlink="http://www.w3.org/1999/xlink">
<g id="graph0" class="graph" transform="scale(1 1) rotate(0) translate(4 26)">
<title>sol_ops::plot_sol_vals</title>
<polygon fill="white" stroke="none" points="-4,4 -4,-26 415,-26 415,4 -4,4"/>
<!-- Node41 -->
<g id="node1" class="node"><title>Node41</title>
<polygon fill="#bfbfbf" stroke="black" points="0,-0.5 0,-21.5 149,-21.5 149,-0.5 0,-0.5"/>
<text text-anchor="middle" x="74.5" y="-7.9" font-family="Ubuntu Mono" font-size="12.00">sol_ops::plot_sol_vals</text>
</g>
<!-- Node42 -->
<g id="node2" class="node"><title>Node42</title>
<g id="a_node2"><a xlink:href="namespacedriver__post.html#af527706d4e696d4e507443d2f74194ef" target="_top" xlink:title="driver_post::init_post">
<polygon fill="white" stroke="black" points="185,-0.5 185,-21.5 334,-21.5 334,-0.5 185,-0.5"/>
<text text-anchor="middle" x="259.5" y="-7.9" font-family="Ubuntu Mono" font-size="12.00">driver_post::init_post</text>
</a>
</g>
</g>
<!-- Node41&#45;&gt;Node42 -->
<g id="edge1" class="edge"><title>Node41&#45;&gt;Node42</title>
<path fill="none" stroke="midnightblue" d="M159.387,-11C167.838,-11 176.376,-11 184.711,-11"/>
<polygon fill="midnightblue" stroke="midnightblue" points="159.142,-7.5001 149.142,-11 159.142,-14.5001 159.142,-7.5001"/>
</g>
<!-- Node43 -->
<g id="node3" class="node"><title>Node43</title>
<g id="a_node3"><a xlink:href="POST_8f90.html#ac289b64ac4671fea0b4f2298ba1188a1" target="_top" xlink:title="post">
<polygon fill="white" stroke="black" points="370,-0.5 370,-21.5 411,-21.5 411,-0.5 370,-0.5"/>
<text text-anchor="middle" x="390.5" y="-7.9" font-family="Ubuntu Mono" font-size="12.00">post</text>
</a>
</g>
</g>
<!-- Node42&#45;&gt;Node43 -->
<g id="edge2" class="edge"><title>Node42&#45;&gt;Node43</title>
<path fill="none" stroke="midnightblue" d="M344.141,-11C353.656,-11 362.56,-11 369.916,-11"/>
<polygon fill="midnightblue" stroke="midnightblue" points="344.044,-7.5001 334.044,-11 344.044,-14.5001 344.044,-7.5001"/>
</g>
</g>
</svg>
