<?xml version="1.0" encoding="UTF-8" standalone="no"?>
<!DOCTYPE svg PUBLIC "-//W3C//DTD SVG 1.1//EN"
 "http://www.w3.org/Graphics/SVG/1.1/DTD/svg11.dtd">
<!-- Generated by graphviz version 2.43.0 (0)
 -->
<!-- Title: messages::print_ar_2 Pages: 1 -->
<svg width="701pt" height="110pt"
 viewBox="0.00 0.00 701.00 110.00" xmlns="http://www.w3.org/2000/svg" xmlns:xlink="http://www.w3.org/1999/xlink">
<g id="graph0" class="graph" transform="scale(1 1) rotate(0) translate(4 106)">
<title>messages::print_ar_2</title>
<polygon fill="white" stroke="transparent" points="-4,4 -4,-106 697,-106 697,4 -4,4"/>
<!-- Node1 -->
<g id="node1" class="node">
<title>Node1</title>
<g id="a_node1"><a xlink:title="Print an array of dimension 2 on the screen.">
<polygon fill="#bfbfbf" stroke="black" points="0,-40.5 0,-61.5 144,-61.5 144,-40.5 0,-40.5"/>
<text text-anchor="middle" x="72" y="-47.9" font-family="Ubuntu Mono" font-size="12.00">messages::print_ar_2</text>
</a>
</g>
</g>
<!-- Node2 -->
<g id="node2" class="node">
<title>Node2</title>
<g id="a_node2"><a xlink:href="namespacemessages.html#a5686118397930f505259225f3688216b" target="_top" xlink:title="Print an array of dimension 1 on the screen.">
<polygon fill="white" stroke="black" points="180,-40.5 180,-61.5 324,-61.5 324,-40.5 180,-40.5"/>
<text text-anchor="middle" x="252" y="-47.9" font-family="Ubuntu Mono" font-size="12.00">messages::print_ar_1</text>
</a>
</g>
</g>
<!-- Node1&#45;&gt;Node2 -->
<g id="edge1" class="edge">
<title>Node1&#45;&gt;Node2</title>
<path fill="none" stroke="midnightblue" d="M144.12,-51C152.61,-51 161.33,-51 169.94,-51"/>
<polygon fill="midnightblue" stroke="midnightblue" points="170,-54.5 180,-51 170,-47.5 170,-54.5"/>
</g>
<!-- Node3 -->
<g id="node3" class="node">
<title>Node3</title>
<g id="a_node3"><a xlink:href="namespacemessages.html#aa4a8d01563e92558e8a0875b075ec54c" target="_top" xlink:title="Write output to file identified by output_i.">
<polygon fill="white" stroke="black" points="360,-40.5 360,-61.5 474,-61.5 474,-40.5 360,-40.5"/>
<text text-anchor="middle" x="417" y="-47.9" font-family="Ubuntu Mono" font-size="12.00">messages::writo</text>
</a>
</g>
</g>
<!-- Node2&#45;&gt;Node3 -->
<g id="edge2" class="edge">
<title>Node2&#45;&gt;Node3</title>
<path fill="none" stroke="midnightblue" d="M324.02,-51C332.56,-51 341.25,-51 349.72,-51"/>
<polygon fill="midnightblue" stroke="midnightblue" points="349.91,-54.5 359.91,-51 349.91,-47.5 349.91,-54.5"/>
</g>
<!-- Node4 -->
<g id="node4" class="node">
<title>Node4</title>
<g id="a_node4"><a xlink:href="namespacemessages.html#a61fd0b51b5e37d58fdc993c01792a3fd" target="_top" xlink:title="Returns the time.">
<polygon fill="white" stroke="black" points="531.5,-80.5 531.5,-101.5 671.5,-101.5 671.5,-80.5 531.5,-80.5"/>
<text text-anchor="middle" x="601.5" y="-87.9" font-family="Ubuntu Mono" font-size="12.00">messages::get_clock</text>
</a>
</g>
</g>
<!-- Node3&#45;&gt;Node4 -->
<g id="edge3" class="edge">
<title>Node3&#45;&gt;Node4</title>
<path fill="none" stroke="midnightblue" d="M465.95,-61.51C489.43,-66.66 517.9,-72.9 542.59,-78.31"/>
<polygon fill="midnightblue" stroke="midnightblue" points="542.04,-81.77 552.55,-80.49 543.54,-74.93 542.04,-81.77"/>
</g>
<!-- Node5 -->
<g id="node5" class="node">
<title>Node5</title>
<g id="a_node5"><a xlink:href="namespacemessages.html#a82dddaab795b78b3d39e1ff1aab2f665" target="_top" xlink:title="Returns the memory usage in kilobytes.">
<polygon fill="white" stroke="black" points="510,-40.5 510,-61.5 693,-61.5 693,-40.5 510,-40.5"/>
<text text-anchor="middle" x="601.5" y="-47.9" font-family="Ubuntu Mono" font-size="12.00">messages::get_mem_usage</text>
</a>
</g>
</g>
<!-- Node3&#45;&gt;Node5 -->
<g id="edge4" class="edge">
<title>Node3&#45;&gt;Node5</title>
<path fill="none" stroke="midnightblue" d="M474.25,-51C482.37,-51 490.94,-51 499.63,-51"/>
<polygon fill="midnightblue" stroke="midnightblue" points="499.86,-54.5 509.86,-51 499.86,-47.5 499.86,-54.5"/>
</g>
<!-- Node6 -->
<g id="node6" class="node">
<title>Node6</title>
<g id="a_node6"><a xlink:href="namespacestr__utilities.html#a0b97e51770725a3e98ed393d26681414" target="_top" xlink:title="Convert an integer to string.">
<polygon fill="white" stroke="black" points="544.5,-0.5 544.5,-21.5 658.5,-21.5 658.5,-0.5 544.5,-0.5"/>
<text text-anchor="middle" x="601.5" y="-7.9" font-family="Ubuntu Mono" font-size="12.00">str_utilities::i2str</text>
</a>
</g>
</g>
<!-- Node3&#45;&gt;Node6 -->
<g id="edge5" class="edge">
<title>Node3&#45;&gt;Node6</title>
<path fill="none" stroke="midnightblue" d="M465.95,-40.49C489.43,-35.34 517.9,-29.1 542.59,-23.69"/>
<polygon fill="midnightblue" stroke="midnightblue" points="543.54,-27.07 552.55,-21.51 542.04,-20.23 543.54,-27.07"/>
</g>
</g>
</svg>
