<?xml version="1.0" encoding="UTF-8" standalone="no"?>
<!DOCTYPE svg PUBLIC "-//W3C//DTD SVG 1.1//EN"
 "http://www.w3.org/Graphics/SVG/1.1/DTD/svg11.dtd">
<!-- Generated by graphviz version 2.38.0 (20140413.2041)
 -->
<!-- Title: helena_ops::test_metrics_h Pages: 1 -->
<svg width="1052pt" height="226pt"
 viewBox="0.00 0.00 1052.00 226.00" xmlns="http://www.w3.org/2000/svg" xmlns:xlink="http://www.w3.org/1999/xlink">
<g id="graph0" class="graph" transform="scale(1 1) rotate(0) translate(4 222)">
<title>helena_ops::test_metrics_h</title>
<polygon fill="white" stroke="none" points="-4,4 -4,-222 1048,-222 1048,4 -4,4"/>
<!-- Node38 -->
<g id="node1" class="node"><title>Node38</title>
<polygon fill="#bfbfbf" stroke="black" points="0,-39.5 0,-60.5 173,-60.5 173,-39.5 0,-39.5"/>
<text text-anchor="middle" x="86.5" y="-46.9" font-family="Ubuntu Mono" font-size="12.00">helena_ops::test_metrics_h</text>
</g>
<!-- Node39 -->
<g id="node2" class="node"><title>Node39</title>
<g id="a_node2"><a xlink:href="namespaceinput__utilities.html#a03e09af96ba6f7e187ea4a1d9b743148" target="_top" xlink:title="input_utilities::get_int">
<polygon fill="white" stroke="black" points="209,-117.5 209,-138.5 370,-138.5 370,-117.5 209,-117.5"/>
<text text-anchor="middle" x="289.5" y="-124.9" font-family="Ubuntu Mono" font-size="12.00">input_utilities::get_int</text>
</a>
</g>
</g>
<!-- Node38&#45;&gt;Node39 -->
<g id="edge1" class="edge"><title>Node38&#45;&gt;Node39</title>
<path fill="none" stroke="midnightblue" d="M114.608,-60.5194C149.973,-74.2432 211.998,-98.3126 251.619,-113.688"/>
<polygon fill="midnightblue" stroke="midnightblue" points="250.591,-117.043 261.18,-117.398 253.123,-110.517 250.591,-117.043"/>
</g>
<!-- Node42 -->
<g id="node5" class="node"><title>Node42</title>
<g id="a_node5"><a xlink:href="namespacemessages.html#aa4a8d01563e92558e8a0875b075ec54c" target="_top" xlink:title="messages::writo">
<polygon fill="white" stroke="black" points="579,-78.5 579,-99.5 686,-99.5 686,-78.5 579,-78.5"/>
<text text-anchor="middle" x="632.5" y="-85.9" font-family="Ubuntu Mono" font-size="12.00">messages::writo</text>
</a>
</g>
</g>
<!-- Node38&#45;&gt;Node42 -->
<g id="edge11" class="edge"><title>Node38&#45;&gt;Node42</title>
<path fill="none" stroke="midnightblue" d="M173.108,-48.9794C264.956,-48.9533 414.913,-51.9974 543,-69 555.691,-70.6846 569.244,-73.3154 581.832,-76.1218"/>
<polygon fill="midnightblue" stroke="midnightblue" points="581.155,-79.5575 591.686,-78.3954 582.729,-72.7367 581.155,-79.5575"/>
</g>
<!-- Node47 -->
<g id="node10" class="node"><title>Node47</title>
<g id="a_node10"><a xlink:href="namespacemessages.html#a6e6bfb084063e4cc91ee86e542043302" target="_top" xlink:title="messages::lvl_ud">
<polygon fill="white" stroke="black" points="233,-0.5 233,-21.5 346,-21.5 346,-0.5 233,-0.5"/>
<text text-anchor="middle" x="289.5" y="-7.9" font-family="Ubuntu Mono" font-size="12.00">messages::lvl_ud</text>
</a>
</g>
</g>
<!-- Node38&#45;&gt;Node47 -->
<g id="edge12" class="edge"><title>Node38&#45;&gt;Node47</title>
<path fill="none" stroke="midnightblue" d="M141.629,-39.4974C167.095,-34.5561 197.65,-28.6276 224.28,-23.4607"/>
<polygon fill="midnightblue" stroke="midnightblue" points="225.124,-26.8621 234.275,-21.5213 223.791,-19.9903 225.124,-26.8621"/>
</g>
<!-- Node40 -->
<g id="node3" class="node"><title>Node40</title>
<g id="a_node3"><a xlink:href="namespacestr__utilities.html#a0b97e51770725a3e98ed393d26681414" target="_top" xlink:title="str_utilities::i2str">
<polygon fill="white" stroke="black" points="406,-196.5 406,-217.5 543,-217.5 543,-196.5 406,-196.5"/>
<text text-anchor="middle" x="474.5" y="-203.9" font-family="Ubuntu Mono" font-size="12.00">str_utilities::i2str</text>
</a>
</g>
</g>
<!-- Node39&#45;&gt;Node40 -->
<g id="edge2" class="edge"><title>Node39&#45;&gt;Node40</title>
<path fill="none" stroke="midnightblue" d="M308.812,-138.693C331.185,-151.439 370.454,-172.796 406,-187 411.599,-189.237 417.546,-191.355 423.499,-193.316"/>
<polygon fill="midnightblue" stroke="midnightblue" points="422.875,-196.789 433.465,-196.462 424.982,-190.114 422.875,-196.789"/>
</g>
<!-- Node41 -->
<g id="node4" class="node"><title>Node41</title>
<g id="a_node4"><a xlink:href="namespacemessages.html#a2a1154de25763d4894275ff4307b6862" target="_top" xlink:title="messages::stop_time">
<polygon fill="white" stroke="black" points="409,-156.5 409,-177.5 540,-177.5 540,-156.5 409,-156.5"/>
<text text-anchor="middle" x="474.5" y="-163.9" font-family="Ubuntu Mono" font-size="12.00">messages::stop_time</text>
</a>
</g>
</g>
<!-- Node39&#45;&gt;Node41 -->
<g id="edge3" class="edge"><title>Node39&#45;&gt;Node41</title>
<path fill="none" stroke="midnightblue" d="M340.022,-138.554C362.807,-143.41 390.025,-149.21 413.922,-154.303"/>
<polygon fill="midnightblue" stroke="midnightblue" points="413.428,-157.776 423.938,-156.438 414.887,-150.93 413.428,-157.776"/>
</g>
<!-- Node39&#45;&gt;Node42 -->
<g id="edge10" class="edge"><title>Node39&#45;&gt;Node42</title>
<path fill="none" stroke="midnightblue" d="M370.158,-125.01C420.026,-122.397 485.503,-117.612 543,-109 555.292,-107.159 568.415,-104.553 580.688,-101.828"/>
<polygon fill="midnightblue" stroke="midnightblue" points="581.792,-105.166 590.761,-99.5252 580.232,-98.3417 581.792,-105.166"/>
</g>
<!-- Node46 -->
<g id="node9" class="node"><title>Node46</title>
<g id="a_node9"><a xlink:href="namespacemessages.html#ad997c3dff64c512e0070ce8816c28e7f" target="_top" xlink:title="messages::start_time">
<polygon fill="white" stroke="black" points="406,-78.5 406,-99.5 543,-99.5 543,-78.5 406,-78.5"/>
<text text-anchor="middle" x="474.5" y="-85.9" font-family="Ubuntu Mono" font-size="12.00">messages::start_time</text>
</a>
</g>
</g>
<!-- Node39&#45;&gt;Node46 -->
<g id="edge8" class="edge"><title>Node39&#45;&gt;Node46</title>
<path fill="none" stroke="midnightblue" d="M340.022,-117.446C362.807,-112.59 390.025,-106.79 413.922,-101.697"/>
<polygon fill="midnightblue" stroke="midnightblue" points="414.887,-105.07 423.938,-99.5624 413.428,-98.2237 414.887,-105.07"/>
</g>
<!-- Node41&#45;&gt;Node42 -->
<g id="edge4" class="edge"><title>Node41&#45;&gt;Node42</title>
<path fill="none" stroke="midnightblue" d="M507.595,-156.483C518.967,-152.4 531.732,-147.404 543,-142 565.552,-131.185 589.837,-116.397 607.252,-105.189"/>
<polygon fill="midnightblue" stroke="midnightblue" points="609.218,-108.085 615.687,-99.6945 605.397,-102.22 609.218,-108.085"/>
</g>
<!-- Node43 -->
<g id="node6" class="node"><title>Node43</title>
<g id="a_node6"><a xlink:href="namespacemessages.html#a82dddaab795b78b3d39e1ff1aab2f665" target="_top" xlink:title="messages::get_mem_usage">
<polygon fill="white" stroke="black" points="722,-98.5 722,-119.5 877,-119.5 877,-98.5 722,-98.5"/>
<text text-anchor="middle" x="799.5" y="-105.9" font-family="Ubuntu Mono" font-size="12.00">messages::get_mem_usage</text>
</a>
</g>
</g>
<!-- Node42&#45;&gt;Node43 -->
<g id="edge5" class="edge"><title>Node42&#45;&gt;Node43</title>
<path fill="none" stroke="midnightblue" d="M686.161,-95.3831C694.452,-96.3881 703.208,-97.4495 712.025,-98.5182"/>
<polygon fill="midnightblue" stroke="midnightblue" points="711.635,-101.996 721.984,-99.7253 712.478,-95.0474 711.635,-101.996"/>
</g>
<!-- Node44 -->
<g id="node7" class="node"><title>Node44</title>
<g id="a_node7"><a xlink:href="messages_8f90.html#a6d15f28783f95a7a4b2a44185619792f" target="_top" xlink:title="format_str">
<polygon fill="white" stroke="black" points="761,-58.5 761,-79.5 838,-79.5 838,-58.5 761,-58.5"/>
<text text-anchor="middle" x="799.5" y="-65.9" font-family="Ubuntu Mono" font-size="12.00">format_str</text>
</a>
</g>
</g>
<!-- Node42&#45;&gt;Node44 -->
<g id="edge6" class="edge"><title>Node42&#45;&gt;Node44</title>
<path fill="none" stroke="midnightblue" d="M686.161,-82.6169C706.977,-80.0937 730.722,-77.2155 751.002,-74.7573"/>
<polygon fill="midnightblue" stroke="midnightblue" points="751.448,-78.229 760.954,-73.551 750.606,-71.2798 751.448,-78.229"/>
</g>
<!-- Node45 -->
<g id="node8" class="node"><title>Node45</title>
<g id="a_node8"><a xlink:href="namespacemessages.html#a61fd0b51b5e37d58fdc993c01792a3fd" target="_top" xlink:title="messages::get_clock">
<polygon fill="white" stroke="black" points="913,-58.5 913,-79.5 1044,-79.5 1044,-58.5 913,-58.5"/>
<text text-anchor="middle" x="978.5" y="-65.9" font-family="Ubuntu Mono" font-size="12.00">messages::get_clock</text>
</a>
</g>
</g>
<!-- Node44&#45;&gt;Node45 -->
<g id="edge7" class="edge"><title>Node44&#45;&gt;Node45</title>
<path fill="none" stroke="midnightblue" d="M838.037,-69C856.869,-69 880.372,-69 902.685,-69"/>
<polygon fill="midnightblue" stroke="midnightblue" points="902.832,-72.5001 912.832,-69 902.832,-65.5001 902.832,-72.5001"/>
</g>
<!-- Node46&#45;&gt;Node42 -->
<g id="edge9" class="edge"><title>Node46&#45;&gt;Node42</title>
<path fill="none" stroke="midnightblue" d="M543.017,-89C551.564,-89 560.282,-89 568.751,-89"/>
<polygon fill="midnightblue" stroke="midnightblue" points="568.929,-92.5001 578.928,-89 568.928,-85.5001 568.929,-92.5001"/>
</g>
<!-- Node47&#45;&gt;Node42 -->
<g id="edge13" class="edge"><title>Node47&#45;&gt;Node42</title>
<path fill="none" stroke="midnightblue" d="M346.116,-9.59414C398.261,-9.87223 477.75,-14.4393 543,-36 567.617,-44.1343 592.693,-60.0172 609.837,-72.284"/>
<polygon fill="midnightblue" stroke="midnightblue" points="607.904,-75.207 618.035,-78.3089 612.05,-69.5665 607.904,-75.207"/>
</g>
</g>
</svg>
