<?xml version="1.0" encoding="UTF-8" standalone="no"?>
<!DOCTYPE svg PUBLIC "-//W3C//DTD SVG 1.1//EN"
 "http://www.w3.org/Graphics/SVG/1.1/DTD/svg11.dtd">
<!-- Generated by graphviz version 2.38.0 (20140413.2041)
 -->
<!-- Title: pb3d_ops::reconstruct_pb3d_in Pages: 1 -->
<svg width="753pt" height="198pt"
 viewBox="0.00 0.00 753.00 197.96" xmlns="http://www.w3.org/2000/svg" xmlns:xlink="http://www.w3.org/1999/xlink">
<g id="graph0" class="graph" transform="scale(1 1) rotate(0) translate(4 193.957)">
<title>pb3d_ops::reconstruct_pb3d_in</title>
<polygon fill="white" stroke="none" points="-4,4 -4,-193.957 749,-193.957 749,4 -4,4"/>
<!-- Node128 -->
<g id="node1" class="node"><title>Node128</title>
<polygon fill="#bfbfbf" stroke="black" points="0,-76.9569 0,-110.957 143,-110.957 143,-76.9569 0,-76.9569"/>
<text text-anchor="start" x="8" y="-97.3569" font-family="Ubuntu Mono" font-size="12.00">pb3d_ops::reconstruct</text>
<text text-anchor="middle" x="71.5" y="-84.3569" font-family="Ubuntu Mono" font-size="12.00">_pb3d_in</text>
</g>
<!-- Node129 -->
<g id="node2" class="node"><title>Node129</title>
<g id="a_node2"><a xlink:href="namespacedriver__post.html#af527706d4e696d4e507443d2f74194ef" target="_top" xlink:title="Initializes the POST driver. ">
<polygon fill="white" stroke="black" points="352,-168.457 352,-189.457 501,-189.457 501,-168.457 352,-168.457"/>
<text text-anchor="middle" x="426.5" y="-175.857" font-family="Ubuntu Mono" font-size="12.00">driver_post::init_post</text>
</a>
</g>
</g>
<!-- Node128&#45;&gt;Node129 -->
<g id="edge1" class="edge"><title>Node128&#45;&gt;Node129</title>
<path fill="none" stroke="midnightblue" d="M104.675,-116.731C125.01,-129.912 152.391,-145.519 179,-153.957 235.276,-171.802 302.063,-177.698 351.914,-179.329"/>
<polygon fill="midnightblue" stroke="midnightblue" points="106.404,-113.678 96.1357,-111.07 102.536,-119.512 106.404,-113.678"/>
</g>
<!-- Node130 -->
<g id="node3" class="node"><title>Node130</title>
<g id="a_node3"><a xlink:href="POST_8f90.html#ac289b64ac4671fea0b4f2298ba1188a1" target="_top" xlink:title="Peeling Ballooning in 3D: postprocessing. ">
<polygon fill="white" stroke="black" points="704,-129.457 704,-150.457 745,-150.457 745,-129.457 704,-129.457"/>
<text text-anchor="middle" x="724.5" y="-136.857" font-family="Ubuntu Mono" font-size="12.00">post</text>
</a>
</g>
</g>
<!-- Node128&#45;&gt;Node130 -->
<g id="edge12" class="edge"><title>Node128&#45;&gt;Node130</title>
<path fill="none" stroke="midnightblue" d="M143.086,-113.308C154.995,-115.962 167.291,-118.33 179,-119.957 382.317,-148.211 632.183,-142.936 703.595,-140.673"/>
<polygon fill="midnightblue" stroke="midnightblue" points="143.726,-109.864 133.195,-111.022 142.15,-116.684 143.726,-109.864"/>
</g>
<!-- Node131 -->
<g id="node4" class="node"><title>Node131</title>
<g id="a_node4"><a xlink:href="namespacerich__ops.html#a9fbbda93eab8973d33063e277c489e7b" target="_top" xlink:title="Initialize Richardson extrapolation system. ">
<polygon fill="white" stroke="black" points="537,-7.45687 537,-28.4569 668,-28.4569 668,-7.45687 537,-7.45687"/>
<text text-anchor="middle" x="602.5" y="-14.8569" font-family="Ubuntu Mono" font-size="12.00">rich_ops::init_rich</text>
</a>
</g>
</g>
<!-- Node128&#45;&gt;Node131 -->
<g id="edge3" class="edge"><title>Node128&#45;&gt;Node131</title>
<path fill="none" stroke="midnightblue" d="M100.351,-70.4813C120.708,-54.8879 149.761,-35.7276 179,-26.9569 301.277,9.72161 452.518,0.698059 536.861,-8.84587"/>
<polygon fill="midnightblue" stroke="midnightblue" points="98.1548,-67.7561 92.4547,-76.687 102.48,-73.26 98.1548,-67.7561"/>
</g>
<!-- Node133 -->
<g id="node6" class="node"><title>Node133</title>
<g id="a_node6"><a xlink:href="test_8f90.html#a197914f99b7e194fb4bca9ca3669e0e8" target="_top" xlink:title="plot_y">
<polygon fill="white" stroke="black" points="221,-36.4569 221,-57.4569 274,-57.4569 274,-36.4569 221,-36.4569"/>
<text text-anchor="middle" x="247.5" y="-43.8569" font-family="Ubuntu Mono" font-size="12.00">plot_y</text>
</a>
</g>
</g>
<!-- Node128&#45;&gt;Node133 -->
<g id="edge5" class="edge"><title>Node128&#45;&gt;Node133</title>
<path fill="none" stroke="midnightblue" d="M145.559,-74.2224C172.296,-67.0006 200.835,-59.2916 220.722,-53.9199"/>
<polygon fill="midnightblue" stroke="midnightblue" points="144.552,-70.8692 135.81,-76.8558 146.377,-77.627 144.552,-70.8692"/>
</g>
<!-- Node136 -->
<g id="node9" class="node"><title>Node136</title>
<g id="a_node9"><a xlink:href="namespacetest.html#ac574f08ba400cd61070a6a6f13f6f7ee" target="_top" xlink:title="Tests reading of HDF5 subset. ">
<polygon fill="white" stroke="black" points="179,-76.9569 179,-110.957 316,-110.957 316,-76.9569 179,-76.9569"/>
<text text-anchor="start" x="187" y="-97.3569" font-family="Ubuntu Mono" font-size="12.00">test::test_read_hdf5</text>
<text text-anchor="middle" x="247.5" y="-84.3569" font-family="Ubuntu Mono" font-size="12.00">_subset</text>
</a>
</g>
</g>
<!-- Node128&#45;&gt;Node136 -->
<g id="edge10" class="edge"><title>Node128&#45;&gt;Node136</title>
<path fill="none" stroke="midnightblue" d="M153.117,-93.9569C161.767,-93.9569 170.502,-93.9569 178.977,-93.9569"/>
<polygon fill="midnightblue" stroke="midnightblue" points="153.022,-90.457 143.022,-93.9569 153.022,-97.457 153.022,-90.457"/>
</g>
<!-- Node129&#45;&gt;Node130 -->
<g id="edge2" class="edge"><title>Node129&#45;&gt;Node130</title>
<path fill="none" stroke="midnightblue" d="M511.047,-173.237C557.494,-169.315 616.205,-163.133 668,-153.957 680.035,-151.825 693.318,-148.51 703.87,-145.64"/>
<polygon fill="midnightblue" stroke="midnightblue" points="510.707,-169.753 501.029,-174.064 511.283,-176.729 510.707,-169.753"/>
</g>
<!-- Node132 -->
<g id="node5" class="node"><title>Node132</title>
<g id="a_node5"><a xlink:href="PB3D_8f90.html#afaee01f014ab3398eecac996b2795fd2" target="_top" xlink:title="Peeling Ballooning in 3D. ">
<polygon fill="white" stroke="black" points="704,-31.4569 704,-52.4569 745,-52.4569 745,-31.4569 704,-31.4569"/>
<text text-anchor="middle" x="724.5" y="-38.8569" font-family="Ubuntu Mono" font-size="12.00">pb3d</text>
</a>
</g>
</g>
<!-- Node131&#45;&gt;Node132 -->
<g id="edge4" class="edge"><title>Node131&#45;&gt;Node132</title>
<path fill="none" stroke="midnightblue" d="M666.147,-30.4862C679.909,-33.2387 693.486,-35.9541 703.973,-38.0514"/>
<polygon fill="midnightblue" stroke="midnightblue" points="666.626,-27.0128 656.134,-28.4836 665.253,-33.8769 666.626,-27.0128"/>
</g>
<!-- Node134 -->
<g id="node7" class="node"><title>Node134</title>
<g id="a_node7"><a xlink:href="namespacetest.html#a53c6b3d654d4577af301fe3b04473d6a" target="_top" xlink:title="Test splines. ">
<polygon fill="white" stroke="black" points="364,-38.4569 364,-59.4569 489,-59.4569 489,-38.4569 364,-38.4569"/>
<text text-anchor="middle" x="426.5" y="-45.8569" font-family="Ubuntu Mono" font-size="12.00">test::test_splines</text>
</a>
</g>
</g>
<!-- Node133&#45;&gt;Node134 -->
<g id="edge6" class="edge"><title>Node133&#45;&gt;Node134</title>
<path fill="none" stroke="midnightblue" d="M284.466,-47.3633C307.237,-47.6206 337.28,-47.96 363.784,-48.2595"/>
<polygon fill="midnightblue" stroke="midnightblue" points="284.276,-43.861 274.237,-47.2477 284.197,-50.8605 284.276,-43.861"/>
</g>
<!-- Node135 -->
<g id="node8" class="node"><title>Node135</title>
<g id="a_node8"><a xlink:href="namespacetest.html#aca21ee464c0b1f4b617177afdde110ec" target="_top" xlink:title="Performs generic tests. ">
<polygon fill="white" stroke="black" points="537,-56.4569 537,-77.4569 668,-77.4569 668,-56.4569 537,-56.4569"/>
<text text-anchor="middle" x="602.5" y="-63.8569" font-family="Ubuntu Mono" font-size="12.00">test::generic_tests</text>
</a>
</g>
</g>
<!-- Node134&#45;&gt;Node135 -->
<g id="edge7" class="edge"><title>Node134&#45;&gt;Node135</title>
<path fill="none" stroke="midnightblue" d="M499.607,-56.4162C511.978,-57.696 524.763,-59.0186 536.921,-60.2763"/>
<polygon fill="midnightblue" stroke="midnightblue" points="499.643,-52.9013 489.336,-55.3537 498.923,-59.8642 499.643,-52.9013"/>
</g>
<!-- Node135&#45;&gt;Node130 -->
<g id="edge9" class="edge"><title>Node135&#45;&gt;Node130</title>
<path fill="none" stroke="midnightblue" d="M629.586,-82.826C652.743,-96.9131 685.936,-117.105 706.03,-129.329"/>
<polygon fill="midnightblue" stroke="midnightblue" points="631.311,-79.7788 620.949,-77.5717 627.673,-85.7591 631.311,-79.7788"/>
</g>
<!-- Node135&#45;&gt;Node132 -->
<g id="edge8" class="edge"><title>Node135&#45;&gt;Node132</title>
<path fill="none" stroke="midnightblue" d="M663.991,-54.3546C678.411,-51.3505 692.793,-48.3542 703.805,-46.06"/>
<polygon fill="midnightblue" stroke="midnightblue" points="663.119,-50.961 654.043,-56.4271 664.547,-57.8139 663.119,-50.961"/>
</g>
<!-- Node136&#45;&gt;Node135 -->
<g id="edge11" class="edge"><title>Node136&#45;&gt;Node135</title>
<path fill="none" stroke="midnightblue" d="M326.449,-87.9948C389.58,-83.166 477.469,-76.4436 536.765,-71.9083"/>
<polygon fill="midnightblue" stroke="midnightblue" points="325.848,-84.5304 316.144,-88.7829 326.382,-91.51 325.848,-84.5304"/>
</g>
</g>
</svg>
