<?xml version="1.0" encoding="UTF-8" standalone="no"?>
<!DOCTYPE svg PUBLIC "-//W3C//DTD SVG 1.1//EN"
 "http://www.w3.org/Graphics/SVG/1.1/DTD/svg11.dtd">
<!-- Generated by graphviz version 2.38.0 (20140413.2041)
 -->
<!-- Title: eq_ops::j_plot Pages: 1 -->
<svg width="407pt" height="70pt"
 viewBox="0.00 0.00 407.00 70.00" xmlns="http://www.w3.org/2000/svg" xmlns:xlink="http://www.w3.org/1999/xlink">
<g id="graph0" class="graph" transform="scale(1 1) rotate(0) translate(4 66)">
<title>eq_ops::j_plot</title>
<polygon fill="white" stroke="none" points="-4,4 -4,-66 403,-66 403,4 -4,4"/>
<!-- Node150 -->
<g id="node1" class="node"><title>Node150</title>
<polygon fill="#bfbfbf" stroke="black" points="0,-20.5 0,-41.5 101,-41.5 101,-20.5 0,-20.5"/>
<text text-anchor="middle" x="50.5" y="-27.9" font-family="Ubuntu Mono" font-size="12.00">eq_ops::j_plot</text>
</g>
<!-- Node151 -->
<g id="node2" class="node"><title>Node151</title>
<g id="a_node2"><a xlink:href="namespacedriver__eq.html#adc9d5dff288fa512e5ef885627d940cc" target="_top" xlink:title="Main driver of PB3D equilibrium part. ">
<polygon fill="white" stroke="black" points="149,-40.5 149,-61.5 310,-61.5 310,-40.5 149,-40.5"/>
<text text-anchor="middle" x="229.5" y="-47.9" font-family="Ubuntu Mono" font-size="12.00">driver_eq::run_driver_eq</text>
</a>
</g>
</g>
<!-- Node150&#45;&gt;Node151 -->
<g id="edge1" class="edge"><title>Node150&#45;&gt;Node151</title>
<path fill="none" stroke="midnightblue" d="M111.241,-37.7504C123.359,-39.1197 136.284,-40.5801 148.961,-42.0125"/>
<polygon fill="midnightblue" stroke="midnightblue" points="111.605,-34.2694 101.275,-36.6243 110.819,-41.2251 111.605,-34.2694"/>
</g>
<!-- Node153 -->
<g id="node4" class="node"><title>Node153</title>
<g id="a_node4"><a xlink:href="namespacedriver__post.html#a33b3c6f9018a0ddc92dce77394b8ab37" target="_top" xlink:title="The main driver routine for postprocessing. ">
<polygon fill="white" stroke="black" points="137,-0.5 137,-21.5 322,-21.5 322,-0.5 137,-0.5"/>
<text text-anchor="middle" x="229.5" y="-7.9" font-family="Ubuntu Mono" font-size="12.00">driver_post::run_driver_post</text>
</a>
</g>
</g>
<!-- Node150&#45;&gt;Node153 -->
<g id="edge3" class="edge"><title>Node150&#45;&gt;Node153</title>
<path fill="none" stroke="midnightblue" d="M111.447,-24.2263C119.651,-23.2993 128.222,-22.3308 136.834,-21.3578"/>
<polygon fill="midnightblue" stroke="midnightblue" points="110.819,-20.7749 101.275,-25.3757 111.605,-27.7306 110.819,-20.7749"/>
</g>
<!-- Node152 -->
<g id="node3" class="node"><title>Node152</title>
<g id="a_node3"><a xlink:href="PB3D_8f90.html#afaee01f014ab3398eecac996b2795fd2" target="_top" xlink:title="Peeling Ballooning in 3D. ">
<polygon fill="white" stroke="black" points="358,-40.5 358,-61.5 399,-61.5 399,-40.5 358,-40.5"/>
<text text-anchor="middle" x="378.5" y="-47.9" font-family="Ubuntu Mono" font-size="12.00">pb3d</text>
</a>
</g>
</g>
<!-- Node151&#45;&gt;Node152 -->
<g id="edge2" class="edge"><title>Node151&#45;&gt;Node152</title>
<path fill="none" stroke="midnightblue" d="M320.401,-51C334.492,-51 347.735,-51 357.913,-51"/>
<polygon fill="midnightblue" stroke="midnightblue" points="320.023,-47.5001 310.023,-51 320.023,-54.5001 320.023,-47.5001"/>
</g>
<!-- Node154 -->
<g id="node5" class="node"><title>Node154</title>
<g id="a_node5"><a xlink:href="POST_8f90.html#ac289b64ac4671fea0b4f2298ba1188a1" target="_top" xlink:title="Peeling Ballooning in 3D: postprocessing. ">
<polygon fill="white" stroke="black" points="358,-0.5 358,-21.5 399,-21.5 399,-0.5 358,-0.5"/>
<text text-anchor="middle" x="378.5" y="-7.9" font-family="Ubuntu Mono" font-size="12.00">post</text>
</a>
</g>
</g>
<!-- Node153&#45;&gt;Node154 -->
<g id="edge4" class="edge"><title>Node153&#45;&gt;Node154</title>
<path fill="none" stroke="midnightblue" d="M332.464,-11C341.946,-11 350.681,-11 357.883,-11"/>
<polygon fill="midnightblue" stroke="midnightblue" points="332.344,-7.5001 322.344,-11 332.344,-14.5001 332.344,-7.5001"/>
</g>
</g>
</svg>
