<?xml version="1.0" encoding="UTF-8" standalone="no"?>
<!DOCTYPE svg PUBLIC "-//W3C//DTD SVG 1.1//EN"
 "http://www.w3.org/Graphics/SVG/1.1/DTD/svg11.dtd">
<!-- Generated by graphviz version 2.43.0 (0)
 -->
<!-- Title: eq_ops::test_p Pages: 1 -->
<svg width="685pt" height="188pt"
 viewBox="0.00 0.00 685.00 188.00" xmlns="http://www.w3.org/2000/svg" xmlns:xlink="http://www.w3.org/1999/xlink">
<g id="graph0" class="graph" transform="scale(1 1) rotate(0) translate(4 184)">
<title>eq_ops::test_p</title>
<polygon fill="white" stroke="transparent" points="-4,4 -4,-184 681,-184 681,4 -4,4"/>
<!-- Node1 -->
<g id="node1" class="node">
<title>Node1</title>
<g id="a_node1"><a xlink:title="Performs tests on pressure balance.">
<polygon fill="#bfbfbf" stroke="black" points="0,-79.5 0,-100.5 102,-100.5 102,-79.5 0,-79.5"/>
<text text-anchor="middle" x="51" y="-86.9" font-family="Ubuntu Mono" font-size="12.00">eq_ops::test_p</text>
</a>
</g>
</g>
<!-- Node2 -->
<g id="node2" class="node">
<title>Node2</title>
<g id="a_node2"><a xlink:href="namespacenum__utilities.html#a5ee3fbd1fe67d0deefc7194631389f2a" target="_top" xlink:title="Convert 2&#45;D coordinates (i,j) to the storage convention used in matrices.">
<polygon fill="white" stroke="black" points="170,-158.5 170,-179.5 276,-179.5 276,-158.5 170,-158.5"/>
<text text-anchor="middle" x="223" y="-165.9" font-family="Ubuntu Mono" font-size="12.00">num_utilities::c</text>
</a>
</g>
</g>
<!-- Node1&#45;&gt;Node2 -->
<g id="edge1" class="edge">
<title>Node1&#45;&gt;Node2</title>
<path fill="none" stroke="midnightblue" d="M64.23,-100.58C80.16,-113.82 109.37,-136.3 138,-149 145.03,-152.12 152.62,-154.79 160.26,-157.07"/>
<polygon fill="midnightblue" stroke="midnightblue" points="159.36,-160.45 169.93,-159.75 161.23,-153.71 159.36,-160.45"/>
</g>
<!-- Node3 -->
<g id="node3" class="node">
<title>Node3</title>
<g id="a_node3"><a xlink:href="namespacemessages.html#a6e6bfb084063e4cc91ee86e542043302" target="_top" xlink:title="Increases/decreases lvl of output.">
<polygon fill="white" stroke="black" points="164,-118.5 164,-139.5 282,-139.5 282,-118.5 164,-118.5"/>
<text text-anchor="middle" x="223" y="-125.9" font-family="Ubuntu Mono" font-size="12.00">messages::lvl_ud</text>
</a>
</g>
</g>
<!-- Node1&#45;&gt;Node3 -->
<g id="edge2" class="edge">
<title>Node1&#45;&gt;Node3</title>
<path fill="none" stroke="midnightblue" d="M98,-100.55C118.98,-105.37 144,-111.11 166.06,-116.17"/>
<polygon fill="midnightblue" stroke="midnightblue" points="165.43,-119.61 175.96,-118.44 166.99,-112.79 165.43,-119.61"/>
</g>
<!-- Node4 -->
<g id="node4" class="node">
<title>Node4</title>
<g id="a_node4"><a xlink:href="namespacemessages.html#aa4a8d01563e92558e8a0875b075ec54c" target="_top" xlink:title="Write output to file identified by output_i.">
<polygon fill="white" stroke="black" points="344,-98.5 344,-119.5 458,-119.5 458,-98.5 344,-98.5"/>
<text text-anchor="middle" x="401" y="-105.9" font-family="Ubuntu Mono" font-size="12.00">messages::writo</text>
</a>
</g>
</g>
<!-- Node1&#45;&gt;Node4 -->
<g id="edge9" class="edge">
<title>Node1&#45;&gt;Node4</title>
<path fill="none" stroke="midnightblue" d="M102.23,-92.74C163.19,-96.07 266.18,-101.69 333.63,-105.38"/>
<polygon fill="midnightblue" stroke="midnightblue" points="333.55,-108.88 343.73,-105.93 333.93,-101.89 333.55,-108.88"/>
</g>
<!-- Node8 -->
<g id="node8" class="node">
<title>Node8</title>
<g id="a_node8"><a xlink:href="namespaceoutput__ops.html#ab0d14194d01ab0534562eab50b37a57a" target="_top" xlink:title="Takes two input vectors and plots these as well as the relative and absolute difference in a HDF5 fil...">
<polygon fill="white" stroke="black" points="138,-40.5 138,-61.5 308,-61.5 308,-40.5 138,-40.5"/>
<text text-anchor="middle" x="223" y="-47.9" font-family="Ubuntu Mono" font-size="12.00">output_ops::plot_diff_hdf5</text>
</a>
</g>
</g>
<!-- Node1&#45;&gt;Node8 -->
<g id="edge7" class="edge">
<title>Node1&#45;&gt;Node8</title>
<path fill="none" stroke="midnightblue" d="M98,-79.45C118.98,-74.63 144,-68.89 166.06,-63.83"/>
<polygon fill="midnightblue" stroke="midnightblue" points="166.99,-67.21 175.96,-61.56 165.43,-60.39 166.99,-67.21"/>
</g>
<!-- Node9 -->
<g id="node9" class="node">
<title>Node9</title>
<g id="a_node9"><a xlink:href="namespacegrid__utilities.html#a67001ff9bbcad707aacf17f90a748d90" target="_top" xlink:title="Trim a grid, removing any overlap between the different regions.">
<polygon fill="white" stroke="black" points="148.5,-0.5 148.5,-21.5 297.5,-21.5 297.5,-0.5 148.5,-0.5"/>
<text text-anchor="middle" x="223" y="-7.9" font-family="Ubuntu Mono" font-size="12.00">grid_utilities::trim_grid</text>
</a>
</g>
</g>
<!-- Node1&#45;&gt;Node9 -->
<g id="edge8" class="edge">
<title>Node1&#45;&gt;Node9</title>
<path fill="none" stroke="midnightblue" d="M64.23,-79.42C80.16,-66.18 109.37,-43.7 138,-31 143.44,-28.59 149.22,-26.44 155.09,-24.54"/>
<polygon fill="midnightblue" stroke="midnightblue" points="156.46,-27.78 165.03,-21.56 154.45,-21.07 156.46,-27.78"/>
</g>
<!-- Node3&#45;&gt;Node4 -->
<g id="edge3" class="edge">
<title>Node3&#45;&gt;Node4</title>
<path fill="none" stroke="midnightblue" d="M282.12,-122.4C298.53,-120.53 316.53,-118.49 333.4,-116.57"/>
<polygon fill="midnightblue" stroke="midnightblue" points="334.2,-120 343.74,-115.39 333.41,-113.04 334.2,-120"/>
</g>
<!-- Node5 -->
<g id="node5" class="node">
<title>Node5</title>
<g id="a_node5"><a xlink:href="namespacemessages.html#a61fd0b51b5e37d58fdc993c01792a3fd" target="_top" xlink:title="Returns the time.">
<polygon fill="white" stroke="black" points="515.5,-138.5 515.5,-159.5 655.5,-159.5 655.5,-138.5 515.5,-138.5"/>
<text text-anchor="middle" x="585.5" y="-145.9" font-family="Ubuntu Mono" font-size="12.00">messages::get_clock</text>
</a>
</g>
</g>
<!-- Node4&#45;&gt;Node5 -->
<g id="edge4" class="edge">
<title>Node4&#45;&gt;Node5</title>
<path fill="none" stroke="midnightblue" d="M449.95,-119.51C473.43,-124.66 501.9,-130.9 526.59,-136.31"/>
<polygon fill="midnightblue" stroke="midnightblue" points="526.04,-139.77 536.55,-138.49 527.54,-132.93 526.04,-139.77"/>
</g>
<!-- Node6 -->
<g id="node6" class="node">
<title>Node6</title>
<g id="a_node6"><a xlink:href="namespacemessages.html#a82dddaab795b78b3d39e1ff1aab2f665" target="_top" xlink:title="Returns the memory usage in kilobytes.">
<polygon fill="white" stroke="black" points="494,-98.5 494,-119.5 677,-119.5 677,-98.5 494,-98.5"/>
<text text-anchor="middle" x="585.5" y="-105.9" font-family="Ubuntu Mono" font-size="12.00">messages::get_mem_usage</text>
</a>
</g>
</g>
<!-- Node4&#45;&gt;Node6 -->
<g id="edge5" class="edge">
<title>Node4&#45;&gt;Node6</title>
<path fill="none" stroke="midnightblue" d="M458.25,-109C466.37,-109 474.94,-109 483.63,-109"/>
<polygon fill="midnightblue" stroke="midnightblue" points="483.86,-112.5 493.86,-109 483.86,-105.5 483.86,-112.5"/>
</g>
<!-- Node7 -->
<g id="node7" class="node">
<title>Node7</title>
<g id="a_node7"><a xlink:href="namespacestr__utilities.html#a0b97e51770725a3e98ed393d26681414" target="_top" xlink:title="Convert an integer to string.">
<polygon fill="white" stroke="black" points="528.5,-58.5 528.5,-79.5 642.5,-79.5 642.5,-58.5 528.5,-58.5"/>
<text text-anchor="middle" x="585.5" y="-65.9" font-family="Ubuntu Mono" font-size="12.00">str_utilities::i2str</text>
</a>
</g>
</g>
<!-- Node4&#45;&gt;Node7 -->
<g id="edge6" class="edge">
<title>Node4&#45;&gt;Node7</title>
<path fill="none" stroke="midnightblue" d="M449.95,-98.49C473.43,-93.34 501.9,-87.1 526.59,-81.69"/>
<polygon fill="midnightblue" stroke="midnightblue" points="527.54,-85.07 536.55,-79.51 526.04,-78.23 527.54,-85.07"/>
</g>
</g>
</svg>
