<?xml version="1.0" encoding="UTF-8" standalone="no"?>
<!DOCTYPE svg PUBLIC "-//W3C//DTD SVG 1.1//EN"
 "http://www.w3.org/Graphics/SVG/1.1/DTD/svg11.dtd">
<!-- Generated by graphviz version 2.43.0 (0)
 -->
<!-- Title: input_utilities::dealloc_in Pages: 1 -->
<svg width="691pt" height="240pt"
 viewBox="0.00 0.00 691.00 240.00" xmlns="http://www.w3.org/2000/svg" xmlns:xlink="http://www.w3.org/1999/xlink">
<g id="graph0" class="graph" transform="scale(1 1) rotate(0) translate(4 236)">
<title>input_utilities::dealloc_in</title>
<polygon fill="white" stroke="transparent" points="-4,4 -4,-236 687,-236 687,4 -4,4"/>
<!-- Node1 -->
<g id="node1" class="node">
<title>Node1</title>
<g id="a_node1"><a xlink:title="Cleans up input from equilibrium codes.">
<polygon fill="#bfbfbf" stroke="black" points="522,-103.5 522,-124.5 683,-124.5 683,-103.5 522,-103.5"/>
<text text-anchor="middle" x="602.5" y="-110.9" font-family="Ubuntu Mono" font-size="12.00">input_utilities::dealloc_in</text>
</a>
</g>
</g>
<!-- Node2 -->
<g id="node2" class="node">
<title>Node2</title>
<g id="a_node2"><a xlink:href="PB3D_8f90.html#afaee01f014ab3398eecac996b2795fd2" target="_top" xlink:title="Peeling Ballooning in 3D.">
<polygon fill="white" stroke="black" points="0,-171.5 0,-192.5 47,-192.5 47,-171.5 0,-171.5"/>
<text text-anchor="middle" x="23.5" y="-178.9" font-family="Ubuntu Mono" font-size="12.00">pb3d</text>
</a>
</g>
</g>
<!-- Node1&#45;&gt;Node2 -->
<g id="edge1" class="edge">
<title>Node1&#45;&gt;Node2</title>
<path fill="none" stroke="midnightblue" d="M555.79,-127.25C514.84,-138.53 452.94,-154.11 398,-162 266.23,-180.91 105.99,-182.36 47.38,-182.19"/>
<polygon fill="midnightblue" stroke="midnightblue" points="556.78,-130.61 565.48,-124.55 554.91,-123.86 556.78,-130.61"/>
</g>
<!-- Node3 -->
<g id="node3" class="node">
<title>Node3</title>
<g id="a_node3"><a xlink:href="test_8f90.html#a197914f99b7e194fb4bca9ca3669e0e8" target="_top" xlink:title=" ">
<polygon fill="white" stroke="black" points="434,-80.5 434,-101.5 486,-101.5 486,-80.5 434,-80.5"/>
<text text-anchor="middle" x="460" y="-87.9" font-family="Ubuntu Mono" font-size="12.00">plot_y</text>
</a>
</g>
</g>
<!-- Node1&#45;&gt;Node3 -->
<g id="edge2" class="edge">
<title>Node1&#45;&gt;Node3</title>
<path fill="none" stroke="midnightblue" d="M526.84,-101.78C512.17,-99.38 497.76,-97.02 486.17,-95.12"/>
<polygon fill="midnightblue" stroke="midnightblue" points="526.57,-105.28 537.01,-103.44 527.7,-98.37 526.57,-105.28"/>
</g>
<!-- Node6 -->
<g id="node6" class="node">
<title>Node6</title>
<g id="a_node6"><a xlink:href="POST_8f90.html#ac289b64ac4671fea0b4f2298ba1188a1" target="_top" xlink:title="Peeling Ballooning in 3D: postprocessing.">
<polygon fill="white" stroke="black" points="2.5,-39.5 2.5,-60.5 44.5,-60.5 44.5,-39.5 2.5,-39.5"/>
<text text-anchor="middle" x="23.5" y="-46.9" font-family="Ubuntu Mono" font-size="12.00">post</text>
</a>
</g>
</g>
<!-- Node1&#45;&gt;Node6 -->
<g id="edge7" class="edge">
<title>Node1&#45;&gt;Node6</title>
<path fill="none" stroke="midnightblue" d="M570.35,-99.38C547.54,-89.43 515.54,-77.02 486,-71 318.21,-36.82 109.3,-45.05 44.56,-48.72"/>
<polygon fill="midnightblue" stroke="midnightblue" points="568.97,-102.6 579.53,-103.47 571.82,-96.21 568.97,-102.6"/>
</g>
<!-- Node7 -->
<g id="node7" class="node">
<title>Node7</title>
<g id="a_node7"><a xlink:href="namespacedriver__post.html#a71f9fb1935222111e1c7cfc15c5d0269" target="_top" xlink:title="Cleans up main driver for postprocessing.">
<polygon fill="white" stroke="black" points="250,-0.5 250,-21.5 398,-21.5 398,-0.5 250,-0.5"/>
<text text-anchor="middle" x="324" y="-7.9" font-family="Ubuntu Mono" font-size="12.00">driver_post::stop_post</text>
</a>
</g>
</g>
<!-- Node1&#45;&gt;Node7 -->
<g id="edge8" class="edge">
<title>Node1&#45;&gt;Node7</title>
<path fill="none" stroke="midnightblue" d="M581.86,-96.7C560.04,-78.5 522.98,-50.52 486,-36 458.35,-25.15 426.3,-18.99 398.11,-15.51"/>
<polygon fill="midnightblue" stroke="midnightblue" points="579.83,-99.57 589.71,-103.38 584.36,-94.24 579.83,-99.57"/>
</g>
<!-- Node8 -->
<g id="node8" class="node">
<title>Node8</title>
<g id="a_node8"><a xlink:href="namespacerich__ops.html#a3cf72a3ed0806ac9ddff262a00b2e33d" target="_top" xlink:title="Terminate the Richardson extrapolation system.">
<polygon fill="white" stroke="black" points="83,-210.5 83,-231.5 214,-231.5 214,-210.5 83,-210.5"/>
<text text-anchor="middle" x="148.5" y="-217.9" font-family="Ubuntu Mono" font-size="12.00">rich_ops::term_rich</text>
</a>
</g>
</g>
<!-- Node1&#45;&gt;Node8 -->
<g id="edge10" class="edge">
<title>Node1&#45;&gt;Node8</title>
<path fill="none" stroke="midnightblue" d="M583.56,-131.59C562.28,-151.21 524.77,-182.03 486,-196 395.89,-228.46 283.62,-229.66 214.26,-226.28"/>
<polygon fill="midnightblue" stroke="midnightblue" points="586.02,-134.08 590.89,-124.67 581.22,-128.99 586.02,-134.08"/>
</g>
<!-- Node9 -->
<g id="node9" class="node">
<title>Node9</title>
<g id="a_node9"><a xlink:href="namespacetest.html#ac574f08ba400cd61070a6a6f13f6f7ee" target="_top" xlink:title="Tests reading of HDF5 subset.">
<polygon fill="white" stroke="black" points="256.5,-119 256.5,-153 391.5,-153 391.5,-119 256.5,-119"/>
<text text-anchor="start" x="264.5" y="-139.4" font-family="Ubuntu Mono" font-size="12.00">test::test_read_hdf5</text>
<text text-anchor="middle" x="324" y="-126.4" font-family="Ubuntu Mono" font-size="12.00">_subset</text>
</a>
</g>
</g>
<!-- Node1&#45;&gt;Node9 -->
<g id="edge12" class="edge">
<title>Node1&#45;&gt;Node9</title>
<path fill="none" stroke="midnightblue" d="M511.6,-121.15C472.66,-124.25 427.85,-127.82 391.9,-130.68"/>
<polygon fill="midnightblue" stroke="midnightblue" points="512.2,-124.62 521.9,-120.33 511.65,-117.64 512.2,-124.62"/>
</g>
<!-- Node4 -->
<g id="node4" class="node">
<title>Node4</title>
<g id="a_node4"><a xlink:href="namespacetest.html#a53c6b3d654d4577af301fe3b04473d6a" target="_top" xlink:title="Test spline().">
<polygon fill="white" stroke="black" points="266,-78.5 266,-99.5 382,-99.5 382,-78.5 266,-78.5"/>
<text text-anchor="middle" x="324" y="-85.9" font-family="Ubuntu Mono" font-size="12.00">test::test_splines</text>
</a>
</g>
</g>
<!-- Node3&#45;&gt;Node4 -->
<g id="edge3" class="edge">
<title>Node3&#45;&gt;Node4</title>
<path fill="none" stroke="midnightblue" d="M423.61,-90.47C410.87,-90.28 396.15,-90.06 382.03,-89.85"/>
<polygon fill="midnightblue" stroke="midnightblue" points="423.74,-93.97 433.8,-90.62 423.85,-86.97 423.74,-93.97"/>
</g>
<!-- Node5 -->
<g id="node5" class="node">
<title>Node5</title>
<g id="a_node5"><a xlink:href="namespacetest.html#aca21ee464c0b1f4b617177afdde110ec" target="_top" xlink:title="Performs generic tests.">
<polygon fill="white" stroke="black" points="85.5,-102.5 85.5,-123.5 211.5,-123.5 211.5,-102.5 85.5,-102.5"/>
<text text-anchor="middle" x="148.5" y="-109.9" font-family="Ubuntu Mono" font-size="12.00">test::generic_tests</text>
</a>
</g>
</g>
<!-- Node4&#45;&gt;Node5 -->
<g id="edge4" class="edge">
<title>Node4&#45;&gt;Node5</title>
<path fill="none" stroke="midnightblue" d="M255.77,-98.3C241.2,-100.31 225.86,-102.44 211.51,-104.42"/>
<polygon fill="midnightblue" stroke="midnightblue" points="256.28,-101.76 265.71,-96.93 255.32,-94.83 256.28,-101.76"/>
</g>
<!-- Node5&#45;&gt;Node2 -->
<g id="edge5" class="edge">
<title>Node5&#45;&gt;Node2</title>
<path fill="none" stroke="midnightblue" d="M119.8,-128.54C96.45,-141.64 63.66,-160.03 43.27,-171.47"/>
<polygon fill="midnightblue" stroke="midnightblue" points="121.54,-131.58 128.55,-123.63 118.12,-125.47 121.54,-131.58"/>
</g>
<!-- Node5&#45;&gt;Node6 -->
<g id="edge6" class="edge">
<title>Node5&#45;&gt;Node6</title>
<path fill="none" stroke="midnightblue" d="M117.76,-97.76C95.13,-86.18 64.61,-70.54 44.75,-60.37"/>
<polygon fill="midnightblue" stroke="midnightblue" points="116.42,-101.01 126.91,-102.46 119.61,-94.78 116.42,-101.01"/>
</g>
<!-- Node7&#45;&gt;Node6 -->
<g id="edge9" class="edge">
<title>Node7&#45;&gt;Node6</title>
<path fill="none" stroke="midnightblue" d="M239.93,-16.95C193.55,-20.95 134.84,-27.14 83,-36 70.13,-38.2 55.88,-41.59 44.67,-44.48"/>
<polygon fill="midnightblue" stroke="midnightblue" points="240.26,-20.44 249.93,-16.11 239.67,-13.46 240.26,-20.44"/>
</g>
<!-- Node8&#45;&gt;Node2 -->
<g id="edge11" class="edge">
<title>Node8&#45;&gt;Node2</title>
<path fill="none" stroke="midnightblue" d="M104.44,-207.35C85.2,-201.25 63.31,-194.31 47.31,-189.23"/>
<polygon fill="midnightblue" stroke="midnightblue" points="103.62,-210.76 114.21,-210.45 105.74,-204.09 103.62,-210.76"/>
</g>
<!-- Node9&#45;&gt;Node5 -->
<g id="edge13" class="edge">
<title>Node9&#45;&gt;Node5</title>
<path fill="none" stroke="midnightblue" d="M246.31,-125.83C234.71,-124.3 222.87,-122.73 211.63,-121.24"/>
<polygon fill="midnightblue" stroke="midnightblue" points="246.04,-129.33 256.42,-127.17 246.96,-122.39 246.04,-129.33"/>
</g>
</g>
</svg>
