<?xml version="1.0" encoding="UTF-8" standalone="no"?>
<!DOCTYPE svg PUBLIC "-//W3C//DTD SVG 1.1//EN"
 "http://www.w3.org/Graphics/SVG/1.1/DTD/svg11.dtd">
<!-- Generated by graphviz version 2.38.0 (20140413.2041)
 -->
<!-- Title: grid_utilities::calc_vec_comp Pages: 1 -->
<svg width="1034pt" height="389pt"
 viewBox="0.00 0.00 1034.00 389.06" xmlns="http://www.w3.org/2000/svg" xmlns:xlink="http://www.w3.org/1999/xlink">
<g id="graph0" class="graph" transform="scale(1 1) rotate(0) translate(4 385.063)">
<title>grid_utilities::calc_vec_comp</title>
<polygon fill="white" stroke="none" points="-4,4 -4,-385.063 1030,-385.063 1030,4 -4,4"/>
<!-- Node25 -->
<g id="node1" class="node"><title>Node25</title>
<polygon fill="#bfbfbf" stroke="black" points="0,-218.063 0,-252.063 137,-252.063 137,-218.063 0,-218.063"/>
<text text-anchor="start" x="8" y="-238.463" font-family="Ubuntu Mono" font-size="12.00">grid_utilities::calc</text>
<text text-anchor="middle" x="68.5" y="-225.463" font-family="Ubuntu Mono" font-size="12.00">_vec_comp</text>
</g>
<!-- Node26 -->
<g id="node2" class="node"><title>Node26</title>
<g id="a_node2"><a xlink:href="namespacenum__utilities.html#a5ee3fbd1fe67d0deefc7194631389f2a" target="_top" xlink:title="Convert 2&#45;D coordinates (i,j) to the storage convention used in matrices. ">
<polygon fill="white" stroke="black" points="200,-359.563 200,-380.563 313,-380.563 313,-359.563 200,-359.563"/>
<text text-anchor="middle" x="256.5" y="-366.963" font-family="Ubuntu Mono" font-size="12.00">num_utilities::c</text>
</a>
</g>
</g>
<!-- Node25&#45;&gt;Node26 -->
<g id="edge1" class="edge"><title>Node25&#45;&gt;Node26</title>
<path fill="none" stroke="midnightblue" d="M81.1313,-252.219C98.4013,-276.404 133.109,-320.329 173,-345.063 180.131,-349.485 188.095,-353.169 196.186,-356.226"/>
<polygon fill="midnightblue" stroke="midnightblue" points="195.104,-359.556 205.699,-359.534 197.403,-352.944 195.104,-359.556"/>
</g>
<!-- Node27 -->
<g id="node3" class="node"><title>Node27</title>
<g id="a_node3"><a xlink:href="namespacevmec__utilities.html#ac699116fc25fdea3e28e488513d97c87" target="_top" xlink:title="Calculate the trigonometric cosine and sine factors. ">
<polygon fill="white" stroke="black" points="188,-218.063 188,-252.063 325,-252.063 325,-218.063 188,-218.063"/>
<text text-anchor="start" x="196" y="-238.463" font-family="Ubuntu Mono" font-size="12.00">vmec_utilities::calc</text>
<text text-anchor="middle" x="256.5" y="-225.463" font-family="Ubuntu Mono" font-size="12.00">_trigon_factors</text>
</a>
</g>
</g>
<!-- Node25&#45;&gt;Node27 -->
<g id="edge2" class="edge"><title>Node25&#45;&gt;Node27</title>
<path fill="none" stroke="midnightblue" d="M137.176,-235.063C150.337,-235.063 164.23,-235.063 177.688,-235.063"/>
<polygon fill="midnightblue" stroke="midnightblue" points="177.874,-238.564 187.874,-235.063 177.874,-231.564 177.874,-238.564"/>
</g>
<!-- Node28 -->
<g id="node4" class="node"><title>Node28</title>
<g id="a_node4"><a xlink:href="namespacemessages.html#aa4a8d01563e92558e8a0875b075ec54c" target="_top" xlink:title="Write output to file identified by output_i. ">
<polygon fill="white" stroke="black" points="728,-166.563 728,-187.563 835,-187.563 835,-166.563 728,-166.563"/>
<text text-anchor="middle" x="781.5" y="-173.963" font-family="Ubuntu Mono" font-size="12.00">messages::writo</text>
</a>
</g>
</g>
<!-- Node25&#45;&gt;Node28 -->
<g id="edge7" class="edge"><title>Node25&#45;&gt;Node28</title>
<path fill="none" stroke="midnightblue" d="M96.8361,-252.123C117.03,-263.676 145.65,-277.916 173,-284.063 333.557,-320.15 380.604,-296.676 543,-270.063 610.552,-258.994 629.002,-257.842 692,-231.063 715.698,-220.99 740.548,-205.311 757.861,-193.438"/>
<polygon fill="midnightblue" stroke="midnightblue" points="759.988,-196.222 766.182,-187.626 755.98,-190.483 759.988,-196.222"/>
</g>
<!-- Node32 -->
<g id="node8" class="node"><title>Node32</title>
<g id="a_node8"><a xlink:href="namespacemessages.html#a6e6bfb084063e4cc91ee86e542043302" target="_top" xlink:title="Increases/decreases lvl of output. ">
<polygon fill="white" stroke="black" points="579,-166.563 579,-187.563 692,-187.563 692,-166.563 579,-166.563"/>
<text text-anchor="middle" x="635.5" y="-173.963" font-family="Ubuntu Mono" font-size="12.00">messages::lvl_ud</text>
</a>
</g>
</g>
<!-- Node25&#45;&gt;Node32 -->
<g id="edge8" class="edge"><title>Node25&#45;&gt;Node32</title>
<path fill="none" stroke="midnightblue" d="M124.045,-252.07C139.692,-256.187 156.883,-259.996 173,-262.063 336.51,-283.04 388.147,-292.598 543,-236.063 569.702,-226.315 596.609,-207.658 614.265,-193.925"/>
<polygon fill="midnightblue" stroke="midnightblue" points="616.511,-196.61 622.148,-187.639 612.147,-191.137 616.511,-196.61"/>
</g>
<!-- Node33 -->
<g id="node9" class="node"><title>Node33</title>
<g id="a_node9"><a xlink:href="namespacegrid__utilities.html#a67001ff9bbcad707aacf17f90a748d90" target="_top" xlink:title="Trim a grid, removing any overlap between the different regions. ">
<polygon fill="white" stroke="black" points="173,-126.563 173,-147.563 340,-147.563 340,-126.563 173,-126.563"/>
<text text-anchor="middle" x="256.5" y="-133.963" font-family="Ubuntu Mono" font-size="12.00">grid_utilities::trim_grid</text>
</a>
</g>
</g>
<!-- Node25&#45;&gt;Node33 -->
<g id="edge10" class="edge"><title>Node25&#45;&gt;Node33</title>
<path fill="none" stroke="midnightblue" d="M87.4274,-217.87C106.952,-200.079 139.847,-172.745 173,-157.063 177.996,-154.7 183.299,-152.6 188.711,-150.737"/>
<polygon fill="midnightblue" stroke="midnightblue" points="190.048,-153.985 198.528,-147.633 187.938,-147.311 190.048,-153.985"/>
</g>
<!-- Node34 -->
<g id="node10" class="node"><title>Node34</title>
<g id="a_node10"><a xlink:href="namespacegrid__utilities.html#a39e7cd9b8f173994358dbdd6b57827e1" target="_top" xlink:title="Calculates , &#160;and &#160;on a grid grid_XYZ, determined through its E(quilibrium) coordinates. ">
<polygon fill="white" stroke="black" points="188,-73.0635 188,-107.063 325,-107.063 325,-73.0635 188,-73.0635"/>
<text text-anchor="start" x="196" y="-93.4635" font-family="Ubuntu Mono" font-size="12.00">grid_utilities::calc</text>
<text text-anchor="middle" x="256.5" y="-80.4635" font-family="Ubuntu Mono" font-size="12.00">_xyz_grid</text>
</a>
</g>
</g>
<!-- Node25&#45;&gt;Node34 -->
<g id="edge11" class="edge"><title>Node25&#45;&gt;Node34</title>
<path fill="none" stroke="midnightblue" d="M80.07,-218.034C96.7603,-192.502 131.612,-144.389 173,-117.063 175.918,-115.137 178.985,-113.338 182.15,-111.659"/>
<polygon fill="midnightblue" stroke="midnightblue" points="183.808,-114.745 191.285,-107.239 180.759,-108.443 183.808,-114.745"/>
</g>
<!-- Node35 -->
<g id="node11" class="node"><title>Node35</title>
<g id="a_node11"><a xlink:href="namespaceoutput__ops.html#a50bfbb88cc91805469353c3ff47b3e2e" target="_top" xlink:title="Use external program to draw a plot. ">
<polygon fill="white" stroke="black" points="191,-166.563 191,-187.563 322,-187.563 322,-166.563 191,-166.563"/>
<text text-anchor="middle" x="256.5" y="-173.963" font-family="Ubuntu Mono" font-size="12.00">output_ops::draw_ex</text>
</a>
</g>
</g>
<!-- Node25&#45;&gt;Node35 -->
<g id="edge12" class="edge"><title>Node25&#45;&gt;Node35</title>
<path fill="none" stroke="midnightblue" d="M124.049,-218.053C152.089,-209.31 185.789,-198.801 212.047,-190.613"/>
<polygon fill="midnightblue" stroke="midnightblue" points="213.214,-193.916 221.719,-187.597 211.13,-187.233 213.214,-193.916"/>
</g>
<!-- Node27&#45;&gt;Node28 -->
<g id="edge3" class="edge"><title>Node27&#45;&gt;Node28</title>
<path fill="none" stroke="midnightblue" d="M325.178,-235.733C341.797,-235.87 359.541,-235.994 376,-236.063 450.222,-236.377 469.327,-245.077 543,-236.063 612.934,-227.507 691.924,-205.278 738.892,-190.681"/>
<polygon fill="midnightblue" stroke="midnightblue" points="740.206,-193.937 748.697,-187.6 738.108,-187.259 740.206,-193.937"/>
</g>
<!-- Node31 -->
<g id="node7" class="node"><title>Node31</title>
<g id="a_node7"><a xlink:href="namespacestr__utilities.html#a0b97e51770725a3e98ed393d26681414" target="_top" xlink:title="Convert an integer to string. ">
<polygon fill="white" stroke="black" points="391,-205.563 391,-226.563 528,-226.563 528,-205.563 391,-205.563"/>
<text text-anchor="middle" x="459.5" y="-212.963" font-family="Ubuntu Mono" font-size="12.00">str_utilities::i2str</text>
</a>
</g>
</g>
<!-- Node27&#45;&gt;Node31 -->
<g id="edge6" class="edge"><title>Node27&#45;&gt;Node31</title>
<path fill="none" stroke="midnightblue" d="M325.269,-228.657C343.059,-226.976 362.385,-225.149 380.657,-223.422"/>
<polygon fill="midnightblue" stroke="midnightblue" points="381.057,-226.9 390.683,-222.474 380.398,-219.931 381.057,-226.9"/>
</g>
<!-- Node29 -->
<g id="node5" class="node"><title>Node29</title>
<g id="a_node5"><a xlink:href="namespacemessages.html#a82dddaab795b78b3d39e1ff1aab2f665" target="_top" xlink:title="Returns the memory usage in kilobytes. ">
<polygon fill="white" stroke="black" points="871,-186.563 871,-207.563 1026,-207.563 1026,-186.563 871,-186.563"/>
<text text-anchor="middle" x="948.5" y="-193.963" font-family="Ubuntu Mono" font-size="12.00">messages::get_mem_usage</text>
</a>
</g>
</g>
<!-- Node28&#45;&gt;Node29 -->
<g id="edge4" class="edge"><title>Node28&#45;&gt;Node29</title>
<path fill="none" stroke="midnightblue" d="M835.161,-183.447C843.452,-184.452 852.208,-185.513 861.025,-186.582"/>
<polygon fill="midnightblue" stroke="midnightblue" points="860.635,-190.06 870.984,-187.789 861.478,-183.111 860.635,-190.06"/>
</g>
<!-- Node30 -->
<g id="node6" class="node"><title>Node30</title>
<g id="a_node6"><a xlink:href="namespacemessages.html#a61fd0b51b5e37d58fdc993c01792a3fd" target="_top" xlink:title="Returns the time. ">
<polygon fill="white" stroke="black" points="883,-146.563 883,-167.563 1014,-167.563 1014,-146.563 883,-146.563"/>
<text text-anchor="middle" x="948.5" y="-153.963" font-family="Ubuntu Mono" font-size="12.00">messages::get_clock</text>
</a>
</g>
</g>
<!-- Node28&#45;&gt;Node30 -->
<g id="edge5" class="edge"><title>Node28&#45;&gt;Node30</title>
<path fill="none" stroke="midnightblue" d="M835.161,-170.68C847.142,-169.228 860.094,-167.658 872.797,-166.118"/>
<polygon fill="midnightblue" stroke="midnightblue" points="873.402,-169.571 882.908,-164.893 872.56,-162.622 873.402,-169.571"/>
</g>
<!-- Node32&#45;&gt;Node28 -->
<g id="edge9" class="edge"><title>Node32&#45;&gt;Node28</title>
<path fill="none" stroke="midnightblue" d="M692.174,-177.063C700.502,-177.063 709.137,-177.063 717.601,-177.063"/>
<polygon fill="midnightblue" stroke="midnightblue" points="717.809,-180.564 727.809,-177.063 717.809,-173.564 717.809,-180.564"/>
</g>
<!-- Node35&#45;&gt;Node28 -->
<g id="edge14" class="edge"><title>Node35&#45;&gt;Node28</title>
<path fill="none" stroke="midnightblue" d="M322.349,-168.684C328.864,-165.787 334.932,-161.999 340,-157.063 383.872,-114.339 327.369,-61.2811 376,-24.0635 434.942,21.0453 470.385,-8.7008 543,-24.0635 613.86,-39.0548 632.097,-49.3521 692,-90.0635 721.027,-109.791 748.946,-139.638 765.415,-158.739"/>
<polygon fill="midnightblue" stroke="midnightblue" points="762.807,-161.075 771.94,-166.445 768.149,-156.552 762.807,-161.075"/>
</g>
<!-- Node35&#45;&gt;Node31 -->
<g id="edge13" class="edge"><title>Node35&#45;&gt;Node31</title>
<path fill="none" stroke="midnightblue" d="M311.629,-187.566C337.095,-192.507 367.65,-198.436 394.28,-203.603"/>
<polygon fill="midnightblue" stroke="midnightblue" points="393.791,-207.073 404.275,-205.542 395.124,-200.201 393.791,-207.073"/>
</g>
<!-- Node35&#45;&gt;Node32 -->
<g id="edge19" class="edge"><title>Node35&#45;&gt;Node32</title>
<path fill="none" stroke="midnightblue" d="M322.309,-177.063C391.094,-177.063 499.221,-177.063 568.468,-177.063"/>
<polygon fill="midnightblue" stroke="midnightblue" points="568.815,-180.564 578.815,-177.063 568.815,-173.564 568.815,-180.564"/>
</g>
<!-- Node36 -->
<g id="node12" class="node"><title>Node36</title>
<g id="a_node12"><a xlink:href="namespacefiles__utilities.html#ac6066df405564ba2f5e3c4bba726c1f8" target="_top" xlink:title="Search for available new unit. ">
<polygon fill="white" stroke="black" points="376,-127.563 376,-148.563 543,-148.563 543,-127.563 376,-127.563"/>
<text text-anchor="middle" x="459.5" y="-134.963" font-family="Ubuntu Mono" font-size="12.00">files_utilities::nextunit</text>
</a>
</g>
</g>
<!-- Node35&#45;&gt;Node36 -->
<g id="edge15" class="edge"><title>Node35&#45;&gt;Node36</title>
<path fill="none" stroke="midnightblue" d="M311.629,-166.561C337.095,-161.62 367.65,-155.691 394.28,-150.524"/>
<polygon fill="midnightblue" stroke="midnightblue" points="395.124,-153.926 404.275,-148.585 393.791,-147.054 395.124,-153.926"/>
</g>
<!-- Node37 -->
<g id="node13" class="node"><title>Node37</title>
<g id="a_node13"><a xlink:href="namespaceoutput__ops.html#aa9e4855511b6ea16a08b3efb587bec51" target="_top" xlink:title="Executes command line, or displays a message if disabled. ">
<polygon fill="white" stroke="black" points="382,-34.0635 382,-68.0635 537,-68.0635 537,-34.0635 382,-34.0635"/>
<text text-anchor="start" x="390" y="-54.4635" font-family="Ubuntu Mono" font-size="12.00">output_ops::use_execute</text>
<text text-anchor="middle" x="459.5" y="-41.4635" font-family="Ubuntu Mono" font-size="12.00">_command_line</text>
</a>
</g>
</g>
<!-- Node35&#45;&gt;Node37 -->
<g id="edge16" class="edge"><title>Node35&#45;&gt;Node37</title>
<path fill="none" stroke="midnightblue" d="M322.001,-167.66C328.5,-164.941 334.66,-161.475 340,-157.063 369.745,-132.487 347.241,-103.787 376,-78.0635 377.734,-76.5124 379.559,-75.0503 381.457,-73.6719"/>
<polygon fill="midnightblue" stroke="midnightblue" points="383.614,-76.4493 390.199,-68.1495 379.876,-70.5312 383.614,-76.4493"/>
</g>
<!-- Node38 -->
<g id="node14" class="node"><title>Node38</title>
<g id="a_node14"><a xlink:href="namespacestr__utilities.html#a92ac6c0af1979df094de1caddd28ade0" target="_top" xlink:title="Convert a real (double) to string. ">
<polygon fill="white" stroke="black" points="391,-87.5635 391,-108.563 528,-108.563 528,-87.5635 391,-87.5635"/>
<text text-anchor="middle" x="459.5" y="-94.9635" font-family="Ubuntu Mono" font-size="12.00">str_utilities::r2str</text>
</a>
</g>
</g>
<!-- Node35&#45;&gt;Node38 -->
<g id="edge20" class="edge"><title>Node35&#45;&gt;Node38</title>
<path fill="none" stroke="midnightblue" d="M319.018,-166.458C326.349,-163.959 333.521,-160.874 340,-157.063 360.334,-145.106 355.666,-130.021 376,-118.063 379.644,-115.92 383.508,-114.006 387.496,-112.297"/>
<polygon fill="midnightblue" stroke="midnightblue" points="388.892,-115.51 396.982,-108.669 386.392,-108.972 388.892,-115.51"/>
</g>
<!-- Node37&#45;&gt;Node28 -->
<g id="edge17" class="edge"><title>Node37&#45;&gt;Node28</title>
<path fill="none" stroke="midnightblue" d="M514.852,-68.1779C524.281,-71.3388 533.958,-74.7054 543,-78.0635 616.931,-105.522 701.845,-142.191 747.432,-162.309"/>
<polygon fill="midnightblue" stroke="midnightblue" points="746.251,-165.613 756.812,-166.459 749.084,-159.212 746.251,-165.613"/>
</g>
<!-- Node37&#45;&gt;Node32 -->
<g id="edge18" class="edge"><title>Node37&#45;&gt;Node32</title>
<path fill="none" stroke="midnightblue" d="M524.188,-68.2034C530.764,-71.0493 537.166,-74.3195 543,-78.0635 560.608,-89.3628 598.251,-133.167 619.356,-158.562"/>
<polygon fill="midnightblue" stroke="midnightblue" points="616.759,-160.915 625.826,-166.396 622.156,-156.457 616.759,-160.915"/>
</g>
</g>
</svg>
