<?xml version="1.0" encoding="UTF-8" standalone="no"?>
<!DOCTYPE svg PUBLIC "-//W3C//DTD SVG 1.1//EN"
 "http://www.w3.org/Graphics/SVG/1.1/DTD/svg11.dtd">
<!-- Generated by graphviz version 2.38.0 (20140413.2041)
 -->
<!-- Title: hdf5_vars::init_hdf5 Pages: 1 -->
<svg width="222pt" height="70pt"
 viewBox="0.00 0.00 222.00 70.00" xmlns="http://www.w3.org/2000/svg" xmlns:xlink="http://www.w3.org/1999/xlink">
<g id="graph0" class="graph" transform="scale(1 1) rotate(0) translate(4 66)">
<title>hdf5_vars::init_hdf5</title>
<polygon fill="white" stroke="none" points="-4,4 -4,-66 218,-66 218,4 -4,4"/>
<!-- Node1 -->
<g id="node1" class="node"><title>Node1</title>
<polygon fill="#bfbfbf" stroke="black" points="0,-20.5 0,-41.5 137,-41.5 137,-20.5 0,-20.5"/>
<text text-anchor="middle" x="68.5" y="-27.9" font-family="Ubuntu Mono" font-size="12.00">hdf5_vars::init_hdf5</text>
</g>
<!-- Node2 -->
<g id="node2" class="node"><title>Node2</title>
<g id="a_node2"><a xlink:href="PB3D_8f90.html#afaee01f014ab3398eecac996b2795fd2" target="_top" xlink:title="Peeling Ballooning in 3D. ">
<polygon fill="white" stroke="black" points="173,-40.5 173,-61.5 214,-61.5 214,-40.5 173,-40.5"/>
<text text-anchor="middle" x="193.5" y="-47.9" font-family="Ubuntu Mono" font-size="12.00">pb3d</text>
</a>
</g>
</g>
<!-- Node1&#45;&gt;Node2 -->
<g id="edge1" class="edge"><title>Node1&#45;&gt;Node2</title>
<path fill="none" stroke="midnightblue" d="M144.419,-43.182C154.904,-44.8869 164.842,-46.5028 172.932,-47.8182"/>
<polygon fill="midnightblue" stroke="midnightblue" points="144.674,-39.6775 134.242,-41.5271 143.55,-46.5868 144.674,-39.6775"/>
</g>
<!-- Node3 -->
<g id="node3" class="node"><title>Node3</title>
<g id="a_node3"><a xlink:href="POST_8f90.html#ac289b64ac4671fea0b4f2298ba1188a1" target="_top" xlink:title="Peeling Ballooning in 3D: postprocessing. ">
<polygon fill="white" stroke="black" points="173,-0.5 173,-21.5 214,-21.5 214,-0.5 173,-0.5"/>
<text text-anchor="middle" x="193.5" y="-7.9" font-family="Ubuntu Mono" font-size="12.00">post</text>
</a>
</g>
</g>
<!-- Node1&#45;&gt;Node3 -->
<g id="edge2" class="edge"><title>Node1&#45;&gt;Node3</title>
<path fill="none" stroke="midnightblue" d="M144.419,-18.818C154.904,-17.1131 164.842,-15.4972 172.932,-14.1818"/>
<polygon fill="midnightblue" stroke="midnightblue" points="143.55,-15.4132 134.242,-20.4729 144.674,-22.3225 143.55,-15.4132"/>
</g>
</g>
</svg>
