<?xml version="1.0" encoding="UTF-8" standalone="no"?>
<!DOCTYPE svg PUBLIC "-//W3C//DTD SVG 1.1//EN"
 "http://www.w3.org/Graphics/SVG/1.1/DTD/svg11.dtd">
<!-- Generated by graphviz version 2.38.0 (20140413.2041)
 -->
<!-- Title: eq_ops::kappa_plot Pages: 1 -->
<svg width="1225pt" height="670pt"
 viewBox="0.00 0.00 1225.00 670.08" xmlns="http://www.w3.org/2000/svg" xmlns:xlink="http://www.w3.org/1999/xlink">
<g id="graph0" class="graph" transform="scale(1 1) rotate(0) translate(4 666.08)">
<title>eq_ops::kappa_plot</title>
<polygon fill="white" stroke="none" points="-4,4 -4,-666.08 1221,-666.08 1221,4 -4,4"/>
<!-- Node155 -->
<g id="node1" class="node"><title>Node155</title>
<polygon fill="#bfbfbf" stroke="black" points="0,-386.58 0,-407.58 125,-407.58 125,-386.58 0,-386.58"/>
<text text-anchor="middle" x="62.5" y="-393.98" font-family="Ubuntu Mono" font-size="12.00">eq_ops::kappa_plot</text>
</g>
<!-- Node156 -->
<g id="node2" class="node"><title>Node156</title>
<g id="a_node2"><a xlink:href="namespacegrid__utilities.html#ad3d9386b9abcb1a7e17369a1b3a3750d" target="_top" xlink:title="Calculates contra&#45; and covariant components of a vector in multiple coordinate systems. ">
<polygon fill="white" stroke="black" points="161,-249.08 161,-283.08 298,-283.08 298,-249.08 161,-249.08"/>
<text text-anchor="start" x="169" y="-269.48" font-family="Ubuntu Mono" font-size="12.00">grid_utilities::calc</text>
<text text-anchor="middle" x="229.5" y="-256.48" font-family="Ubuntu Mono" font-size="12.00">_vec_comp</text>
</a>
</g>
</g>
<!-- Node155&#45;&gt;Node156 -->
<g id="edge1" class="edge"><title>Node155&#45;&gt;Node156</title>
<path fill="none" stroke="midnightblue" d="M77.0026,-386.36C103.438,-365.372 162.582,-318.416 198.654,-289.776"/>
<polygon fill="midnightblue" stroke="midnightblue" points="201.201,-292.223 206.856,-283.264 196.848,-286.741 201.201,-292.223"/>
</g>
<!-- Node157 -->
<g id="node3" class="node"><title>Node157</title>
<g id="a_node3"><a xlink:href="namespacenum__utilities.html#a5ee3fbd1fe67d0deefc7194631389f2a" target="_top" xlink:title="Convert 2&#45;D coordinates (i,j) to the storage convention used in matrices. ">
<polygon fill="white" stroke="black" points="361,-386.58 361,-407.58 474,-407.58 474,-386.58 361,-386.58"/>
<text text-anchor="middle" x="417.5" y="-393.98" font-family="Ubuntu Mono" font-size="12.00">num_utilities::c</text>
</a>
</g>
</g>
<!-- Node155&#45;&gt;Node157 -->
<g id="edge27" class="edge"><title>Node155&#45;&gt;Node157</title>
<path fill="none" stroke="midnightblue" d="M125.392,-397.08C188.55,-397.08 286.202,-397.08 350.729,-397.08"/>
<polygon fill="midnightblue" stroke="midnightblue" points="350.791,-400.581 360.791,-397.08 350.791,-393.581 350.791,-400.581"/>
</g>
<!-- Node158 -->
<g id="node4" class="node"><title>Node158</title>
<g id="a_node4"><a xlink:href="namespacevmec__utilities.html#ac699116fc25fdea3e28e488513d97c87" target="_top" xlink:title="Calculate the trigonometric cosine and sine factors. ">
<polygon fill="white" stroke="black" points="552,-453.08 552,-487.08 689,-487.08 689,-453.08 552,-453.08"/>
<text text-anchor="start" x="560" y="-473.48" font-family="Ubuntu Mono" font-size="12.00">vmec_utilities::calc</text>
<text text-anchor="middle" x="620.5" y="-460.48" font-family="Ubuntu Mono" font-size="12.00">_trigon_factors</text>
</a>
</g>
</g>
<!-- Node155&#45;&gt;Node158 -->
<g id="edge28" class="edge"><title>Node155&#45;&gt;Node158</title>
<path fill="none" stroke="midnightblue" d="M77.7898,-407.592C96.0323,-420.339 129.069,-441.218 161,-450.08 290.87,-486.128 449.302,-483.269 541.846,-477.182"/>
<polygon fill="midnightblue" stroke="midnightblue" points="542.235,-480.663 551.971,-476.485 541.755,-473.68 542.235,-480.663"/>
</g>
<!-- Node159 -->
<g id="node5" class="node"><title>Node159</title>
<g id="a_node5"><a xlink:href="namespacemessages.html#aa4a8d01563e92558e8a0875b075ec54c" target="_top" xlink:title="Write output to file identified by output_i. ">
<polygon fill="white" stroke="black" points="919,-406.58 919,-427.58 1026,-427.58 1026,-406.58 919,-406.58"/>
<text text-anchor="middle" x="972.5" y="-413.98" font-family="Ubuntu Mono" font-size="12.00">messages::writo</text>
</a>
</g>
</g>
<!-- Node155&#45;&gt;Node159 -->
<g id="edge39" class="edge"><title>Node155&#45;&gt;Node159</title>
<path fill="none" stroke="midnightblue" d="M72.4327,-407.682C88.2124,-425.571 122.967,-461.334 161,-477.08 384.129,-569.461 463.628,-520.36 704,-497.08 784.685,-489.266 806.358,-488.482 883,-462.08 904.863,-454.549 928.116,-442.553 945.298,-432.84"/>
<polygon fill="midnightblue" stroke="midnightblue" points="947.258,-435.75 954.171,-427.722 943.76,-429.687 947.258,-435.75"/>
</g>
<!-- Node162 -->
<g id="node8" class="node"><title>Node162</title>
<g id="a_node8"><a xlink:href="namespacestr__utilities.html#a0b97e51770725a3e98ed393d26681414" target="_top" xlink:title="Convert an integer to string. ">
<polygon fill="white" stroke="black" points="743,-406.58 743,-427.58 880,-427.58 880,-406.58 743,-406.58"/>
<text text-anchor="middle" x="811.5" y="-413.98" font-family="Ubuntu Mono" font-size="12.00">str_utilities::i2str</text>
</a>
</g>
</g>
<!-- Node155&#45;&gt;Node162 -->
<g id="edge38" class="edge"><title>Node155&#45;&gt;Node162</title>
<path fill="none" stroke="midnightblue" d="M125.016,-406.941C136.927,-408.559 149.332,-410.044 161,-411.08 366.665,-429.359 610.396,-424.56 732.527,-420.344"/>
<polygon fill="midnightblue" stroke="midnightblue" points="732.666,-423.842 742.536,-419.991 732.418,-416.846 732.666,-423.842"/>
</g>
<!-- Node163 -->
<g id="node9" class="node"><title>Node163</title>
<g id="a_node9"><a xlink:href="namespacemessages.html#a6e6bfb084063e4cc91ee86e542043302" target="_top" xlink:title="Increases/decreases lvl of output. ">
<polygon fill="white" stroke="black" points="755,-75.5805 755,-96.5805 868,-96.5805 868,-75.5805 755,-75.5805"/>
<text text-anchor="middle" x="811.5" y="-82.9805" font-family="Ubuntu Mono" font-size="12.00">messages::lvl_ud</text>
</a>
</g>
</g>
<!-- Node155&#45;&gt;Node163 -->
<g id="edge40" class="edge"><title>Node155&#45;&gt;Node163</title>
<path fill="none" stroke="midnightblue" d="M63.8048,-386.399C65.5901,-343.8 77.7966,-184.1 161,-96.0805 325.71,78.1633 664.83,-30.1204 775.048,-71.8298"/>
<polygon fill="midnightblue" stroke="midnightblue" points="774.099,-75.2144 784.689,-75.5308 776.608,-68.6794 774.099,-75.2144"/>
</g>
<!-- Node164 -->
<g id="node10" class="node"><title>Node164</title>
<g id="a_node10"><a xlink:href="namespacegrid__utilities.html#a67001ff9bbcad707aacf17f90a748d90" target="_top" xlink:title="Trim a grid, removing any overlap between the different regions. ">
<polygon fill="white" stroke="black" points="334,-38.5805 334,-59.5805 501,-59.5805 501,-38.5805 334,-38.5805"/>
<text text-anchor="middle" x="417.5" y="-45.9805" font-family="Ubuntu Mono" font-size="12.00">grid_utilities::trim_grid</text>
</a>
</g>
</g>
<!-- Node155&#45;&gt;Node164 -->
<g id="edge36" class="edge"><title>Node155&#45;&gt;Node164</title>
<path fill="none" stroke="midnightblue" d="M68.8019,-386.459C92.4181,-340.36 193.102,-156.254 334,-74.0805 341.608,-69.6432 350.079,-65.9248 358.612,-62.8294"/>
<polygon fill="midnightblue" stroke="midnightblue" points="359.869,-66.0994 368.232,-59.5941 357.638,-59.4646 359.869,-66.0994"/>
</g>
<!-- Node167 -->
<g id="node13" class="node"><title>Node167</title>
<g id="a_node13"><a xlink:href="namespacegrid__utilities.html#a39e7cd9b8f173994358dbdd6b57827e1" target="_top" xlink:title="Calculates , &#160;and &#160;on a grid grid_XYZ, determined through its E(quilibrium) coordinates. ">
<polygon fill="white" stroke="black" points="349,-295.08 349,-329.08 486,-329.08 486,-295.08 349,-295.08"/>
<text text-anchor="start" x="357" y="-315.48" font-family="Ubuntu Mono" font-size="12.00">grid_utilities::calc</text>
<text text-anchor="middle" x="417.5" y="-302.48" font-family="Ubuntu Mono" font-size="12.00">_xyz_grid</text>
</a>
</g>
</g>
<!-- Node155&#45;&gt;Node167 -->
<g id="edge37" class="edge"><title>Node155&#45;&gt;Node167</title>
<path fill="none" stroke="midnightblue" d="M107.139,-386.573C164.925,-372.658 267.81,-347.884 338.974,-330.748"/>
<polygon fill="midnightblue" stroke="midnightblue" points="339.894,-334.127 348.797,-328.383 338.256,-327.321 339.894,-334.127"/>
</g>
<!-- Node171 -->
<g id="node17" class="node"><title>Node171</title>
<g id="a_node17"><a xlink:href="namespaceinput__utilities.html#ad9ce824c30b32041ab70f3fb191f06db" target="_top" xlink:title="Queries for a logical value yes or no, where the default answer is also to be provided. ">
<polygon fill="white" stroke="black" points="540,-561.58 540,-582.58 701,-582.58 701,-561.58 540,-561.58"/>
<text text-anchor="middle" x="620.5" y="-568.98" font-family="Ubuntu Mono" font-size="12.00">input_utilities::get_log</text>
</a>
</g>
</g>
<!-- Node155&#45;&gt;Node171 -->
<g id="edge29" class="edge"><title>Node155&#45;&gt;Node171</title>
<path fill="none" stroke="midnightblue" d="M67.6417,-407.754C78.4343,-433.942 110.164,-501.325 161,-530.08 279.434,-597.073 443.09,-593.543 539.462,-583.657"/>
<polygon fill="midnightblue" stroke="midnightblue" points="539.867,-587.134 549.436,-582.586 539.12,-580.174 539.867,-587.134"/>
</g>
<!-- Node156&#45;&gt;Node157 -->
<g id="edge2" class="edge"><title>Node156&#45;&gt;Node157</title>
<path fill="none" stroke="midnightblue" d="M242.869,-283.382C260.507,-306.823 295.089,-348.449 334,-372.08 341.263,-376.492 349.363,-380.176 357.571,-383.239"/>
<polygon fill="midnightblue" stroke="midnightblue" points="356.618,-386.612 367.213,-386.555 358.895,-379.993 356.618,-386.612"/>
</g>
<!-- Node156&#45;&gt;Node158 -->
<g id="edge3" class="edge"><title>Node156&#45;&gt;Node158</title>
<path fill="none" stroke="midnightblue" d="M250.122,-283.165C269.977,-299.585 302.202,-323.933 334,-338.08 403.638,-369.063 432.283,-344.105 501,-377.08 506.013,-379.486 556.673,-419.748 590.113,-446.5"/>
<polygon fill="midnightblue" stroke="midnightblue" points="588.211,-449.462 598.205,-452.98 592.586,-443.997 588.211,-449.462"/>
</g>
<!-- Node156&#45;&gt;Node159 -->
<g id="edge8" class="edge"><title>Node156&#45;&gt;Node159</title>
<path fill="none" stroke="midnightblue" d="M298.179,-251.838C310.065,-249.858 322.356,-248.14 334,-247.08 407.917,-240.352 427.802,-234.79 501,-247.08 506.536,-248.01 877.765,-377.055 883,-379.08 901.642,-386.292 922.171,-395.055 938.76,-402.347"/>
<polygon fill="midnightblue" stroke="midnightblue" points="937.467,-405.602 948.028,-406.448 940.299,-399.201 937.467,-405.602"/>
</g>
<!-- Node156&#45;&gt;Node163 -->
<g id="edge9" class="edge"><title>Node156&#45;&gt;Node163</title>
<path fill="none" stroke="midnightblue" d="M245.575,-248.841C264.572,-227.901 298.99,-192.484 334,-169.08 416.35,-114.032 440.178,-97.9965 537,-77.0805 606.727,-62.0176 688.751,-67.7209 744.658,-75.0121"/>
<polygon fill="midnightblue" stroke="midnightblue" points="744.404,-78.5097 754.784,-76.3874 745.346,-71.5734 744.404,-78.5097"/>
</g>
<!-- Node156&#45;&gt;Node164 -->
<g id="edge11" class="edge"><title>Node156&#45;&gt;Node164</title>
<path fill="none" stroke="midnightblue" d="M240.606,-248.739C254.046,-225.537 278.387,-183.028 298,-146.08 314.775,-114.48 306.652,-97.1476 334,-74.0805 338.88,-69.9644 344.424,-66.526 350.276,-63.6536"/>
<polygon fill="midnightblue" stroke="midnightblue" points="351.884,-66.7715 359.673,-59.5897 349.105,-60.3465 351.884,-66.7715"/>
</g>
<!-- Node165 -->
<g id="node11" class="node"><title>Node165</title>
<g id="a_node11"><a xlink:href="namespacegrid__utilities.html#ad059876fabae2c8445e5d3971ba28742" target="_top" xlink:title="Set up the factors for the interpolation calculation in a matrix A using a polynomial order ord...">
<polygon fill="white" stroke="black" points="549,-361.08 549,-395.08 692,-395.08 692,-361.08 549,-361.08"/>
<text text-anchor="start" x="557" y="-381.48" font-family="Ubuntu Mono" font-size="12.00">grid_utilities::setup</text>
<text text-anchor="middle" x="620.5" y="-368.48" font-family="Ubuntu Mono" font-size="12.00">_interp_data</text>
</a>
</g>
</g>
<!-- Node156&#45;&gt;Node165 -->
<g id="edge12" class="edge"><title>Node156&#45;&gt;Node165</title>
<path fill="none" stroke="midnightblue" d="M298.024,-254.304C356.19,-247.801 440.141,-247.442 501,-285.08 527.774,-301.639 513,-325.708 537,-346.08 541.502,-349.902 546.512,-353.297 551.775,-356.308"/>
<polygon fill="midnightblue" stroke="midnightblue" points="550.343,-359.508 560.829,-361.02 553.574,-353.298 550.343,-359.508"/>
</g>
<!-- Node156&#45;&gt;Node167 -->
<g id="edge16" class="edge"><title>Node156&#45;&gt;Node167</title>
<path fill="none" stroke="midnightblue" d="M298.176,-282.818C311.466,-286.104 325.503,-289.576 339.083,-292.934"/>
<polygon fill="midnightblue" stroke="midnightblue" points="338.326,-296.353 348.874,-295.356 340.007,-289.557 338.326,-296.353"/>
</g>
<!-- Node168 -->
<g id="node14" class="node"><title>Node168</title>
<g id="a_node14"><a xlink:href="namespaceoutput__ops.html#a50bfbb88cc91805469353c3ff47b3e2e" target="_top" xlink:title="Use external program to draw a plot. ">
<polygon fill="white" stroke="black" points="352,-178.58 352,-199.58 483,-199.58 483,-178.58 352,-178.58"/>
<text text-anchor="middle" x="417.5" y="-185.98" font-family="Ubuntu Mono" font-size="12.00">output_ops::draw_ex</text>
</a>
</g>
</g>
<!-- Node156&#45;&gt;Node168 -->
<g id="edge18" class="edge"><title>Node156&#45;&gt;Node168</title>
<path fill="none" stroke="midnightblue" d="M261.112,-248.958C281.385,-238.058 308.788,-224.148 334,-214.08 344.429,-209.916 355.831,-206.046 366.741,-202.654"/>
<polygon fill="midnightblue" stroke="midnightblue" points="368.02,-205.924 376.579,-199.679 365.994,-199.223 368.02,-205.924"/>
</g>
<!-- Node158&#45;&gt;Node159 -->
<g id="edge4" class="edge"><title>Node158&#45;&gt;Node159</title>
<path fill="none" stroke="midnightblue" d="M689.223,-463.353C742.176,-457.654 817.537,-448.58 883,-437.08 894.639,-435.036 907.058,-432.472 918.798,-429.869"/>
<polygon fill="midnightblue" stroke="midnightblue" points="919.923,-433.203 928.905,-427.583 918.379,-426.375 919.923,-433.203"/>
</g>
<!-- Node158&#45;&gt;Node162 -->
<g id="edge7" class="edge"><title>Node158&#45;&gt;Node162</title>
<path fill="none" stroke="midnightblue" d="M682.341,-453.019C708.518,-445.679 738.659,-437.226 763.131,-430.364"/>
<polygon fill="midnightblue" stroke="midnightblue" points="764.215,-433.695 772.898,-427.625 762.325,-426.955 764.215,-433.695"/>
</g>
<!-- Node160 -->
<g id="node6" class="node"><title>Node160</title>
<g id="a_node6"><a xlink:href="namespacemessages.html#a82dddaab795b78b3d39e1ff1aab2f665" target="_top" xlink:title="Returns the memory usage in kilobytes. ">
<polygon fill="white" stroke="black" points="1062,-426.58 1062,-447.58 1217,-447.58 1217,-426.58 1062,-426.58"/>
<text text-anchor="middle" x="1139.5" y="-433.98" font-family="Ubuntu Mono" font-size="12.00">messages::get_mem_usage</text>
</a>
</g>
</g>
<!-- Node159&#45;&gt;Node160 -->
<g id="edge5" class="edge"><title>Node159&#45;&gt;Node160</title>
<path fill="none" stroke="midnightblue" d="M1026.16,-423.464C1034.45,-424.469 1043.21,-425.53 1052.03,-426.599"/>
<polygon fill="midnightblue" stroke="midnightblue" points="1051.64,-430.077 1061.98,-427.806 1052.48,-423.128 1051.64,-430.077"/>
</g>
<!-- Node161 -->
<g id="node7" class="node"><title>Node161</title>
<g id="a_node7"><a xlink:href="namespacemessages.html#a61fd0b51b5e37d58fdc993c01792a3fd" target="_top" xlink:title="Returns the time. ">
<polygon fill="white" stroke="black" points="1074,-386.58 1074,-407.58 1205,-407.58 1205,-386.58 1074,-386.58"/>
<text text-anchor="middle" x="1139.5" y="-393.98" font-family="Ubuntu Mono" font-size="12.00">messages::get_clock</text>
</a>
</g>
</g>
<!-- Node159&#45;&gt;Node161 -->
<g id="edge6" class="edge"><title>Node159&#45;&gt;Node161</title>
<path fill="none" stroke="midnightblue" d="M1026.16,-410.697C1038.14,-409.245 1051.09,-407.675 1063.8,-406.135"/>
<polygon fill="midnightblue" stroke="midnightblue" points="1064.4,-409.588 1073.91,-404.91 1063.56,-402.639 1064.4,-409.588"/>
</g>
<!-- Node163&#45;&gt;Node159 -->
<g id="edge10" class="edge"><title>Node163&#45;&gt;Node159</title>
<path fill="none" stroke="midnightblue" d="M831.257,-96.6251C847.159,-106.465 869.478,-122.544 883,-142.08 940.476,-225.12 962.288,-347.662 968.981,-396.192"/>
<polygon fill="midnightblue" stroke="midnightblue" points="965.545,-396.915 970.31,-406.378 972.487,-396.009 965.545,-396.915"/>
</g>
<!-- Node165&#45;&gt;Node159 -->
<g id="edge13" class="edge"><title>Node165&#45;&gt;Node159</title>
<path fill="none" stroke="midnightblue" d="M692.014,-380.343C744.823,-382.73 818.726,-387.538 883,-397.08 895.295,-398.906 908.418,-401.506 920.691,-404.23"/>
<polygon fill="midnightblue" stroke="midnightblue" points="920.235,-407.716 930.764,-406.533 921.796,-400.892 920.235,-407.716"/>
</g>
<!-- Node165&#45;&gt;Node162 -->
<g id="edge14" class="edge"><title>Node165&#45;&gt;Node162</title>
<path fill="none" stroke="midnightblue" d="M692.145,-392.658C710.989,-396.546 731.186,-400.714 749.465,-404.486"/>
<polygon fill="midnightblue" stroke="midnightblue" points="748.901,-407.943 759.402,-406.536 750.316,-401.088 748.901,-407.943"/>
</g>
<!-- Node166 -->
<g id="node12" class="node"><title>Node166</title>
<g id="a_node12"><a xlink:href="namespacestr__utilities.html#a92ac6c0af1979df094de1caddd28ade0" target="_top" xlink:title="Convert a real (double) to string. ">
<polygon fill="white" stroke="black" points="743,-246.58 743,-267.58 880,-267.58 880,-246.58 743,-246.58"/>
<text text-anchor="middle" x="811.5" y="-253.98" font-family="Ubuntu Mono" font-size="12.00">str_utilities::r2str</text>
</a>
</g>
</g>
<!-- Node165&#45;&gt;Node166 -->
<g id="edge15" class="edge"><title>Node165&#45;&gt;Node166</title>
<path fill="none" stroke="midnightblue" d="M648.178,-361.001C684.607,-337.679 749.455,-296.162 785.168,-273.298"/>
<polygon fill="midnightblue" stroke="midnightblue" points="787.468,-275.982 794.003,-267.642 783.694,-270.086 787.468,-275.982"/>
</g>
<!-- Node167&#45;&gt;Node165 -->
<g id="edge17" class="edge"><title>Node167&#45;&gt;Node165</title>
<path fill="none" stroke="midnightblue" d="M470.524,-329.163C497.265,-337.944 530.027,-348.701 558.012,-357.891"/>
<polygon fill="midnightblue" stroke="midnightblue" points="557.101,-361.275 567.694,-361.07 559.285,-354.625 557.101,-361.275"/>
</g>
<!-- Node168&#45;&gt;Node159 -->
<g id="edge20" class="edge"><title>Node168&#45;&gt;Node159</title>
<path fill="none" stroke="midnightblue" d="M483.187,-194.951C608.946,-206.475 874.882,-231.426 883,-237.08 937.875,-275.303 960.223,-357.474 967.964,-396.147"/>
<polygon fill="midnightblue" stroke="midnightblue" points="964.573,-397.054 969.847,-406.243 971.454,-395.771 964.573,-397.054"/>
</g>
<!-- Node168&#45;&gt;Node162 -->
<g id="edge19" class="edge"><title>Node168&#45;&gt;Node162</title>
<path fill="none" stroke="midnightblue" d="M436.071,-199.683C459.123,-213.542 500.89,-238.475 537,-259.08 610.6,-301.079 630.85,-308.303 704,-351.08 732.26,-367.606 764.1,-387.512 785.544,-401.112"/>
<polygon fill="midnightblue" stroke="midnightblue" points="783.741,-404.113 794.057,-406.526 787.498,-398.206 783.741,-404.113"/>
</g>
<!-- Node168&#45;&gt;Node163 -->
<g id="edge25" class="edge"><title>Node168&#45;&gt;Node163</title>
<path fill="none" stroke="midnightblue" d="M429.07,-178.423C448.459,-159.66 491.878,-121.194 537,-105.08 604.728,-80.8935 687.783,-78.6389 744.479,-80.8527"/>
<polygon fill="midnightblue" stroke="midnightblue" points="744.602,-84.3616 754.749,-81.3137 744.916,-77.3687 744.602,-84.3616"/>
</g>
<!-- Node168&#45;&gt;Node166 -->
<g id="edge26" class="edge"><title>Node168&#45;&gt;Node166</title>
<path fill="none" stroke="midnightblue" d="M458.415,-199.694C472.09,-203.719 487.374,-208.655 501,-214.08 517.619,-220.698 519.795,-227.182 537,-232.08 601.325,-250.396 677.27,-256.146 732.79,-257.602"/>
<polygon fill="midnightblue" stroke="midnightblue" points="732.837,-261.104 742.912,-257.826 732.992,-254.105 732.837,-261.104"/>
</g>
<!-- Node169 -->
<g id="node15" class="node"><title>Node169</title>
<g id="a_node15"><a xlink:href="namespacefiles__utilities.html#ac6066df405564ba2f5e3c4bba726c1f8" target="_top" xlink:title="Search for available new unit. ">
<polygon fill="white" stroke="black" points="537,-168.58 537,-189.58 704,-189.58 704,-168.58 537,-168.58"/>
<text text-anchor="middle" x="620.5" y="-175.98" font-family="Ubuntu Mono" font-size="12.00">files_utilities::nextunit</text>
</a>
</g>
</g>
<!-- Node168&#45;&gt;Node169 -->
<g id="edge21" class="edge"><title>Node168&#45;&gt;Node169</title>
<path fill="none" stroke="midnightblue" d="M483.204,-185.861C497.098,-185.17 512.041,-184.427 526.761,-183.694"/>
<polygon fill="midnightblue" stroke="midnightblue" points="527.087,-187.183 536.9,-183.19 526.739,-180.191 527.087,-187.183"/>
</g>
<!-- Node170 -->
<g id="node16" class="node"><title>Node170</title>
<g id="a_node16"><a xlink:href="namespaceoutput__ops.html#aa9e4855511b6ea16a08b3efb587bec51" target="_top" xlink:title="Executes command line, or displays a message if disabled. ">
<polygon fill="white" stroke="black" points="543,-115.08 543,-149.08 698,-149.08 698,-115.08 543,-115.08"/>
<text text-anchor="start" x="551" y="-135.48" font-family="Ubuntu Mono" font-size="12.00">output_ops::use_execute</text>
<text text-anchor="middle" x="620.5" y="-122.48" font-family="Ubuntu Mono" font-size="12.00">_command_line</text>
</a>
</g>
</g>
<!-- Node168&#45;&gt;Node170 -->
<g id="edge22" class="edge"><title>Node168&#45;&gt;Node170</title>
<path fill="none" stroke="midnightblue" d="M455.835,-178.493C482.175,-171.024 518.248,-160.794 549.826,-151.839"/>
<polygon fill="midnightblue" stroke="midnightblue" points="550.8,-155.201 559.466,-149.105 548.89,-148.466 550.8,-155.201"/>
</g>
<!-- Node170&#45;&gt;Node159 -->
<g id="edge23" class="edge"><title>Node170&#45;&gt;Node159</title>
<path fill="none" stroke="midnightblue" d="M698.068,-135.542C755.234,-141.931 831.972,-159.069 883,-204.08 941.993,-256.119 962.561,-353.717 968.938,-396.31"/>
<polygon fill="midnightblue" stroke="midnightblue" points="965.488,-396.913 970.325,-406.34 972.422,-395.954 965.488,-396.913"/>
</g>
<!-- Node170&#45;&gt;Node163 -->
<g id="edge24" class="edge"><title>Node170&#45;&gt;Node163</title>
<path fill="none" stroke="midnightblue" d="M691.608,-115.017C713.366,-109.722 736.975,-103.975 757.378,-99.0097"/>
<polygon fill="midnightblue" stroke="midnightblue" points="758.225,-102.406 767.114,-96.64 756.57,-95.6042 758.225,-102.406"/>
</g>
<!-- Node171&#45;&gt;Node159 -->
<g id="edge35" class="edge"><title>Node171&#45;&gt;Node159</title>
<path fill="none" stroke="midnightblue" d="M686.13,-582.606C742.133,-588.354 823.318,-588.307 883,-553.08 927.487,-526.822 953.651,-468.399 964.915,-437.365"/>
<polygon fill="midnightblue" stroke="midnightblue" points="968.322,-438.222 968.284,-427.628 961.706,-435.934 968.322,-438.222"/>
</g>
<!-- Node172 -->
<g id="node18" class="node"><title>Node172</title>
<g id="a_node18"><a xlink:href="namespacemessages.html#aed343894ae4a28ad6dfbd1d39aac64ff" target="_top" xlink:title="Stop a timer. ">
<polygon fill="white" stroke="black" points="746,-640.58 746,-661.58 877,-661.58 877,-640.58 746,-640.58"/>
<text text-anchor="middle" x="811.5" y="-647.98" font-family="Ubuntu Mono" font-size="12.00">messages::stop_time</text>
</a>
</g>
</g>
<!-- Node171&#45;&gt;Node172 -->
<g id="edge30" class="edge"><title>Node171&#45;&gt;Node172</title>
<path fill="none" stroke="midnightblue" d="M639.895,-582.584C662.789,-595.338 703.349,-616.899 740,-631.08 745.918,-633.37 752.206,-635.527 758.495,-637.516"/>
<polygon fill="midnightblue" stroke="midnightblue" points="757.74,-640.944 768.326,-640.497 759.772,-634.245 757.74,-640.944"/>
</g>
<!-- Node173 -->
<g id="node19" class="node"><title>Node173</title>
<g id="a_node19"><a xlink:href="namespacemessages.html#a84d5988f3ea5ca8dc2834032f896ae90" target="_top" xlink:title="Start a timer. ">
<polygon fill="white" stroke="black" points="743,-600.58 743,-621.58 880,-621.58 880,-600.58 743,-600.58"/>
<text text-anchor="middle" x="811.5" y="-607.98" font-family="Ubuntu Mono" font-size="12.00">messages::start_time</text>
</a>
</g>
</g>
<!-- Node171&#45;&gt;Node173 -->
<g id="edge32" class="edge"><title>Node171&#45;&gt;Node173</title>
<path fill="none" stroke="midnightblue" d="M672.646,-582.634C696.283,-587.512 724.54,-593.343 749.299,-598.452"/>
<polygon fill="midnightblue" stroke="midnightblue" points="748.812,-601.925 759.313,-600.518 750.227,-595.069 748.812,-601.925"/>
</g>
<!-- Node174 -->
<g id="node20" class="node"><title>Node174</title>
<g id="a_node20"><a xlink:href="namespacestr__utilities.html#a219964a283968cc6a968db0197d2187e" target="_top" xlink:title="Convert a string to lowercase. ">
<polygon fill="white" stroke="black" points="740,-522.58 740,-543.58 883,-543.58 883,-522.58 740,-522.58"/>
<text text-anchor="middle" x="811.5" y="-529.98" font-family="Ubuntu Mono" font-size="12.00">str_utilities::strh2l</text>
</a>
</g>
</g>
<!-- Node171&#45;&gt;Node174 -->
<g id="edge34" class="edge"><title>Node171&#45;&gt;Node174</title>
<path fill="none" stroke="midnightblue" d="M672.646,-561.527C696.283,-556.649 724.54,-550.818 749.299,-545.709"/>
<polygon fill="midnightblue" stroke="midnightblue" points="750.227,-549.092 759.313,-543.643 748.812,-542.236 750.227,-549.092"/>
</g>
<!-- Node172&#45;&gt;Node159 -->
<g id="edge31" class="edge"><title>Node172&#45;&gt;Node159</title>
<path fill="none" stroke="midnightblue" d="M868.517,-640.477C873.774,-637.975 878.724,-634.888 883,-631.08 941.983,-578.556 962.556,-480.629 968.936,-437.909"/>
<polygon fill="midnightblue" stroke="midnightblue" points="972.424,-438.235 970.324,-427.85 965.49,-437.278 972.424,-438.235"/>
</g>
<!-- Node173&#45;&gt;Node159 -->
<g id="edge33" class="edge"><title>Node173&#45;&gt;Node159</title>
<path fill="none" stroke="midnightblue" d="M858.094,-600.543C867.03,-596.995 875.839,-592.293 883,-586.08 930.158,-545.169 955.851,-472.878 966.122,-437.6"/>
<polygon fill="midnightblue" stroke="midnightblue" points="969.508,-438.488 968.821,-427.915 962.765,-436.609 969.508,-438.488"/>
</g>
</g>
</svg>
