<?xml version="1.0" encoding="UTF-8" standalone="no"?>
<!DOCTYPE svg PUBLIC "-//W3C//DTD SVG 1.1//EN"
 "http://www.w3.org/Graphics/SVG/1.1/DTD/svg11.dtd">
<!-- Generated by graphviz version 14.1.2 (20260124.0452)
 -->
<!-- Title: x_ops::calc_res_surf Pages: 1 -->
<svg width="714pt" height="251pt"
 viewBox="0.00 0.00 714.00 251.00" xmlns="http://www.w3.org/2000/svg" xmlns:xlink="http://www.w3.org/1999/xlink">
<g id="graph0" class="graph" transform="scale(1 1) rotate(0) translate(4 246.75)">
<title>x_ops::calc_res_surf</title>
<!-- Node1 -->
<g id="Node000001" class="node">
<title>Node1</title>
<g id="a_Node000001"><a xlink:title="Calculates resonating flux surfaces for the perturbation modes.">
<polygon fill="#999999" stroke="#666666" points="136,-115.75 0,-115.75 0,-95 136,-95 136,-115.75"/>
<text xml:space="preserve" text-anchor="middle" x="68" y="-100.35" font-family="Ubuntu Mono" font-size="12.00">x_ops::calc_res_surf</text>
</a>
</g>
</g>
<!-- Node2 -->
<g id="Node000002" class="node">
<title>Node2</title>
<g id="a_Node000002"><a xlink:href="namespacenum__ops.html#adcc4eacf15c931744316a004f4448b90" target="_top" xlink:title="Finds the zero of a function using Zhang&#39;s method, which is simpler than Brent&#39;s method.">
<polygon fill="white" stroke="#666666" points="317,-186.12 193,-186.12 193,-152.62 317,-152.62 317,-186.12"/>
<text xml:space="preserve" text-anchor="start" x="201" y="-170.72" font-family="Ubuntu Mono" font-size="12.00">num_ops::calc_zero</text>
<text xml:space="preserve" text-anchor="middle" x="255" y="-157.97" font-family="Ubuntu Mono" font-size="12.00">_zhang</text>
</a>
</g>
</g>
<!-- Node1&#45;&gt;Node2 -->
<g id="edge1_Node000001_Node000002" class="edge">
<title>Node1&#45;&gt;Node2</title>
<g id="a_edge1_Node000001_Node000002"><a xlink:title=" ">
<path fill="none" stroke="#63b8ff" d="M100.38,-116.23C125.83,-125.04 162.46,-137.71 193.56,-148.47"/>
<polygon fill="#63b8ff" stroke="#63b8ff" points="192.28,-151.73 202.88,-151.69 194.57,-145.11 192.28,-151.73"/>
</a>
</g>
</g>
<!-- Node3 -->
<g id="Node000003" class="node">
<title>Node3</title>
<g id="a_Node000003"><a xlink:href="namespacestr__utilities.html#a92ac6c0af1979df094de1caddd28ade0" target="_top" xlink:title="Convert a real (double) to string.">
<polygon fill="white" stroke="#666666" points="513,-224.75 377,-224.75 377,-204 513,-204 513,-224.75"/>
<text xml:space="preserve" text-anchor="middle" x="445" y="-209.35" font-family="Ubuntu Mono" font-size="12.00">str_utilities::r2str</text>
</a>
</g>
</g>
<!-- Node1&#45;&gt;Node3 -->
<g id="edge13_Node000001_Node000003" class="edge">
<title>Node1&#45;&gt;Node3</title>
<g id="a_edge13_Node000001_Node000003"><a xlink:title=" ">
<path fill="none" stroke="#63b8ff" d="M77.2,-116.16C93.01,-136 129.9,-177.87 172,-195.38 233.44,-220.92 309.42,-224.14 365.44,-221.85"/>
<polygon fill="#63b8ff" stroke="#63b8ff" points="365.39,-225.35 375.21,-221.38 365.06,-218.36 365.39,-225.35"/>
</a>
</g>
</g>
<!-- Node5 -->
<g id="Node000005" class="node">
<title>Node5</title>
<g id="a_Node000005"><a xlink:href="namespacemessages.html#aa4a8d01563e92558e8a0875b075ec54c" target="_top" xlink:title="Write output to file identified by output_i.">
<polygon fill="white" stroke="#666666" points="498,-125.75 392,-125.75 392,-105 498,-105 498,-125.75"/>
<text xml:space="preserve" text-anchor="middle" x="445" y="-110.35" font-family="Ubuntu Mono" font-size="12.00">messages::writo</text>
</a>
</g>
</g>
<!-- Node1&#45;&gt;Node5 -->
<g id="edge15_Node000001_Node000005" class="edge">
<title>Node1&#45;&gt;Node5</title>
<g id="a_edge15_Node000001_Node000005"><a xlink:title=" ">
<path fill="none" stroke="#63b8ff" d="M136.48,-107.17C205.65,-109.02 312.41,-111.87 380.21,-113.67"/>
<polygon fill="#63b8ff" stroke="#63b8ff" points="379.97,-117.17 390.06,-113.94 380.15,-110.17 379.97,-117.17"/>
</a>
</g>
</g>
<!-- Node7 -->
<g id="Node000007" class="node">
<title>Node7</title>
<g id="a_Node000007"><a xlink:href="namespacestr__utilities.html#a0b97e51770725a3e98ed393d26681414" target="_top" xlink:title="Convert an integer to string.">
<polygon fill="white" stroke="#666666" points="697,-62.75 561,-62.75 561,-42 697,-42 697,-62.75"/>
<text xml:space="preserve" text-anchor="middle" x="629" y="-47.35" font-family="Ubuntu Mono" font-size="12.00">str_utilities::i2str</text>
</a>
</g>
</g>
<!-- Node1&#45;&gt;Node7 -->
<g id="edge10_Node000001_Node000007" class="edge">
<title>Node1&#45;&gt;Node7</title>
<g id="a_edge10_Node000001_Node000007"><a xlink:title=" ">
<path fill="none" stroke="#63b8ff" d="M91.71,-94.59C112.18,-85.45 143.38,-72.97 172,-67.38 302.46,-41.86 457.84,-43.35 549.4,-47.41"/>
<polygon fill="#63b8ff" stroke="#63b8ff" points="549.13,-50.9 559.28,-47.87 549.45,-43.9 549.13,-50.9"/>
</a>
</g>
</g>
<!-- Node8 -->
<g id="Node000008" class="node">
<title>Node8</title>
<g id="a_Node000008"><a xlink:href="namespacemessages.html#a6e6bfb084063e4cc91ee86e542043302" target="_top" xlink:title="Increases/decreases lvl of output.">
<polygon fill="white" stroke="#666666" points="311,-96.75 199,-96.75 199,-76 311,-76 311,-96.75"/>
<text xml:space="preserve" text-anchor="middle" x="255" y="-81.35" font-family="Ubuntu Mono" font-size="12.00">messages::lvl_ud</text>
</a>
</g>
</g>
<!-- Node1&#45;&gt;Node8 -->
<g id="edge11_Node000001_Node000008" class="edge">
<title>Node1&#45;&gt;Node8</title>
<g id="a_edge11_Node000001_Node000008"><a xlink:title=" ">
<path fill="none" stroke="#63b8ff" d="M136.31,-98.46C152.93,-96.75 170.73,-94.93 187.32,-93.22"/>
<polygon fill="#63b8ff" stroke="#63b8ff" points="187.49,-96.72 197.08,-92.22 186.77,-89.76 187.49,-96.72"/>
</a>
</g>
</g>
<!-- Node9 -->
<g id="Node000009" class="node">
<title>Node9</title>
<g id="a_Node000009"><a xlink:href="namespacegrid__utilities.html#a67001ff9bbcad707aacf17f90a748d90" target="_top" xlink:title="Trim a grid, removing any overlap between the different regions.">
<polygon fill="white" stroke="#666666" points="338,-20.75 172,-20.75 172,0 338,0 338,-20.75"/>
<text xml:space="preserve" text-anchor="middle" x="255" y="-5.35" font-family="Ubuntu Mono" font-size="12.00">grid_utilities::trim_grid</text>
</a>
</g>
</g>
<!-- Node1&#45;&gt;Node9 -->
<g id="edge14_Node000001_Node000009" class="edge">
<title>Node1&#45;&gt;Node9</title>
<g id="a_edge14_Node000001_Node000009"><a xlink:title=" ">
<path fill="none" stroke="#63b8ff" d="M81.82,-94.5C100.52,-79.14 136.9,-51.08 172,-34.38 179.73,-30.7 188.14,-27.46 196.54,-24.65"/>
<polygon fill="#63b8ff" stroke="#63b8ff" points="197.57,-27.99 206.06,-21.65 195.47,-21.31 197.57,-27.99"/>
</a>
</g>
</g>
<!-- Node2&#45;&gt;Node3 -->
<g id="edge2_Node000002_Node000003" class="edge">
<title>Node2&#45;&gt;Node3</title>
<g id="a_edge2_Node000002_Node000003"><a xlink:title=" ">
<path fill="none" stroke="#63b8ff" d="M317.3,-184.05C339.94,-189.47 365.47,-195.58 387.65,-200.89"/>
<polygon fill="#63b8ff" stroke="#63b8ff" points="386.57,-204.23 397.11,-203.15 388.2,-197.42 386.57,-204.23"/>
</a>
</g>
</g>
<!-- Node4 -->
<g id="Node000004" class="node">
<title>Node4</title>
<g id="a_Node000004"><a xlink:href="namespacestr__utilities.html#ac778d706b2e021672618939ab58fdd32" target="_top" xlink:title="Convert a real (double) to string.">
<polygon fill="white" stroke="#666666" points="516,-167.75 374,-167.75 374,-147 516,-147 516,-167.75"/>
<text xml:space="preserve" text-anchor="middle" x="445" y="-152.35" font-family="Ubuntu Mono" font-size="12.00">str_utilities::r2strt</text>
</a>
</g>
</g>
<!-- Node2&#45;&gt;Node4 -->
<g id="edge4_Node000002_Node000004" class="edge">
<title>Node2&#45;&gt;Node4</title>
<g id="a_edge4_Node000002_Node000004"><a xlink:title=" ">
<path fill="none" stroke="#63b8ff" d="M317.3,-165.46C331.64,-164.55 347.15,-163.56 362.23,-162.59"/>
<polygon fill="#63b8ff" stroke="#63b8ff" points="362.38,-166.09 372.14,-161.96 361.94,-159.11 362.38,-166.09"/>
</a>
</g>
</g>
<!-- Node2&#45;&gt;Node5 -->
<g id="edge6_Node000002_Node000005" class="edge">
<title>Node2&#45;&gt;Node5</title>
<g id="a_edge6_Node000002_Node000005"><a xlink:title=" ">
<path fill="none" stroke="#63b8ff" d="M316,-152.14C341.72,-144.75 371.37,-136.24 395.65,-129.26"/>
<polygon fill="#63b8ff" stroke="#63b8ff" points="396.29,-132.72 404.93,-126.6 394.36,-125.99 396.29,-132.72"/>
</a>
</g>
</g>
<!-- Node3&#45;&gt;Node3 -->
<g id="edge3_Node000003_Node000003" class="edge">
<title>Node3&#45;&gt;Node3</title>
<g id="a_edge3_Node000003_Node000003"><a xlink:title=" ">
<path fill="none" stroke="#63b8ff" d="M415.35,-225.15C403.49,-233.81 413.38,-242.75 445,-242.75 462.29,-242.75 473.09,-240.08 477.38,-236.24"/>
<polygon fill="#63b8ff" stroke="#63b8ff" points="480.8,-235.49 475.01,-226.62 474,-237.16 480.8,-235.49"/>
</a>
</g>
</g>
<!-- Node4&#45;&gt;Node4 -->
<g id="edge5_Node000004_Node000004" class="edge">
<title>Node4&#45;&gt;Node4</title>
<g id="a_edge5_Node000004_Node000004"><a xlink:title=" ">
<path fill="none" stroke="#63b8ff" d="M415.35,-168.15C403.49,-176.81 413.38,-185.75 445,-185.75 462.29,-185.75 473.09,-183.08 477.38,-179.24"/>
<polygon fill="#63b8ff" stroke="#63b8ff" points="480.8,-178.49 475.01,-169.62 474,-180.16 480.8,-178.49"/>
</a>
</g>
</g>
<!-- Node6 -->
<g id="Node000006" class="node">
<title>Node6</title>
<g id="a_Node000006"><a xlink:href="namespacemessages.html#a82dddaab795b78b3d39e1ff1aab2f665" target="_top" xlink:title="Returns the memory usage in kilobytes.">
<polygon fill="white" stroke="#666666" points="706,-125.75 552,-125.75 552,-105 706,-105 706,-125.75"/>
<text xml:space="preserve" text-anchor="middle" x="629" y="-110.35" font-family="Ubuntu Mono" font-size="12.00">messages::get_mem_usage</text>
</a>
</g>
</g>
<!-- Node5&#45;&gt;Node6 -->
<g id="edge7_Node000005_Node000006" class="edge">
<title>Node5&#45;&gt;Node6</title>
<g id="a_edge7_Node000005_Node000006"><a xlink:title=" ">
<path fill="none" stroke="#63b8ff" d="M498.15,-115.38C511.33,-115.38 525.85,-115.38 540.26,-115.38"/>
<polygon fill="#63b8ff" stroke="#63b8ff" points="540.25,-118.88 550.25,-115.38 540.25,-111.88 540.25,-118.88"/>
</a>
</g>
</g>
<!-- Node5&#45;&gt;Node7 -->
<g id="edge8_Node000005_Node000007" class="edge">
<title>Node5&#45;&gt;Node7</title>
<g id="a_edge8_Node000005_Node000007"><a xlink:title=" ">
<path fill="none" stroke="#63b8ff" d="M477.29,-104.54C507.33,-94.15 552.91,-78.37 586.08,-66.88"/>
<polygon fill="#63b8ff" stroke="#63b8ff" points="587.08,-70.24 595.39,-63.66 584.79,-63.63 587.08,-70.24"/>
</a>
</g>
</g>
<!-- Node7&#45;&gt;Node7 -->
<g id="edge9_Node000007_Node000007" class="edge">
<title>Node7&#45;&gt;Node7</title>
<g id="a_edge9_Node000007_Node000007"><a xlink:title=" ">
<path fill="none" stroke="#63b8ff" d="M599.35,-63.15C587.49,-71.81 597.38,-80.75 629,-80.75 646.29,-80.75 657.09,-78.08 661.38,-74.24"/>
<polygon fill="#63b8ff" stroke="#63b8ff" points="664.8,-73.49 659.01,-64.62 658,-75.16 664.8,-73.49"/>
</a>
</g>
</g>
<!-- Node8&#45;&gt;Node5 -->
<g id="edge12_Node000008_Node000005" class="edge">
<title>Node8&#45;&gt;Node5</title>
<g id="a_edge12_Node000008_Node000005"><a xlink:title=" ">
<path fill="none" stroke="#63b8ff" d="M311.39,-94.92C333.07,-98.26 358.07,-102.12 380.48,-105.58"/>
<polygon fill="#63b8ff" stroke="#63b8ff" points="379.67,-108.99 390.09,-107.06 380.74,-102.08 379.67,-108.99"/>
</a>
</g>
</g>
</g>
</svg>
