<?xml version="1.0" encoding="UTF-8" standalone="no"?>
<!DOCTYPE svg PUBLIC "-//W3C//DTD SVG 1.1//EN"
 "http://www.w3.org/Graphics/SVG/1.1/DTD/svg11.dtd">
<!-- Generated by graphviz version 2.43.0 (0)
 -->
<!-- Title: input_utilities::get_log Pages: 1 -->
<svg width="704pt" height="149pt"
 viewBox="0.00 0.00 704.00 149.00" xmlns="http://www.w3.org/2000/svg" xmlns:xlink="http://www.w3.org/1999/xlink">
<g id="graph0" class="graph" transform="scale(1 1) rotate(0) translate(4 145)">
<title>input_utilities::get_log</title>
<polygon fill="white" stroke="transparent" points="-4,4 -4,-145 700,-145 700,4 -4,4"/>
<!-- Node1 -->
<g id="node1" class="node">
<title>Node1</title>
<g id="a_node1"><a xlink:title="Queries for a logical value yes or no, where the default answer is also to be provided.">
<polygon fill="#bfbfbf" stroke="black" points="0,-59.5 0,-80.5 146,-80.5 146,-59.5 0,-59.5"/>
<text text-anchor="middle" x="73" y="-66.9" font-family="Ubuntu Mono" font-size="12.00">input_utilities::get_log</text>
</a>
</g>
</g>
<!-- Node2 -->
<g id="node2" class="node">
<title>Node2</title>
<g id="a_node2"><a xlink:href="namespacemessages.html#a84d5988f3ea5ca8dc2834032f896ae90" target="_top" xlink:title="Start a timer.">
<polygon fill="white" stroke="black" points="182,-118.5 182,-139.5 327,-139.5 327,-118.5 182,-118.5"/>
<text text-anchor="middle" x="254.5" y="-125.9" font-family="Ubuntu Mono" font-size="12.00">messages::start_time</text>
</a>
</g>
</g>
<!-- Node1&#45;&gt;Node2 -->
<g id="edge1" class="edge">
<title>Node1&#45;&gt;Node2</title>
<path fill="none" stroke="midnightblue" d="M106.09,-80.55C135.61,-90.25 179.56,-104.7 211.79,-115.29"/>
<polygon fill="midnightblue" stroke="midnightblue" points="210.79,-118.65 221.38,-118.44 212.98,-112 210.79,-118.65"/>
</g>
<!-- Node3 -->
<g id="node3" class="node">
<title>Node3</title>
<g id="a_node3"><a xlink:href="namespacemessages.html#aa4a8d01563e92558e8a0875b075ec54c" target="_top" xlink:title="Write output to file identified by output_i.">
<polygon fill="white" stroke="black" points="363,-79.5 363,-100.5 477,-100.5 477,-79.5 363,-79.5"/>
<text text-anchor="middle" x="420" y="-86.9" font-family="Ubuntu Mono" font-size="12.00">messages::writo</text>
</a>
</g>
</g>
<!-- Node1&#45;&gt;Node3 -->
<g id="edge9" class="edge">
<title>Node1&#45;&gt;Node3</title>
<path fill="none" stroke="midnightblue" d="M146.32,-74.19C207.18,-77.72 293.5,-82.72 352.62,-86.15"/>
<polygon fill="midnightblue" stroke="midnightblue" points="352.78,-89.67 362.96,-86.75 353.18,-82.68 352.78,-89.67"/>
</g>
<!-- Node7 -->
<g id="node7" class="node">
<title>Node7</title>
<g id="a_node7"><a xlink:href="namespacemessages.html#aed343894ae4a28ad6dfbd1d39aac64ff" target="_top" xlink:title="Stop a timer.">
<polygon fill="white" stroke="black" points="183,-40.5 183,-61.5 326,-61.5 326,-40.5 183,-40.5"/>
<text text-anchor="middle" x="254.5" y="-47.9" font-family="Ubuntu Mono" font-size="12.00">messages::stop_time</text>
</a>
</g>
</g>
<!-- Node1&#45;&gt;Node7 -->
<g id="edge6" class="edge">
<title>Node1&#45;&gt;Node7</title>
<path fill="none" stroke="midnightblue" d="M146.23,-62.35C155.01,-61.43 164.02,-60.47 172.91,-59.53"/>
<polygon fill="midnightblue" stroke="midnightblue" points="173.3,-63.01 182.87,-58.48 172.56,-56.05 173.3,-63.01"/>
</g>
<!-- Node8 -->
<g id="node8" class="node">
<title>Node8</title>
<g id="a_node8"><a xlink:href="namespacestr__utilities.html#a219964a283968cc6a968db0197d2187e" target="_top" xlink:title="Convert a string to lowercase.">
<polygon fill="white" stroke="black" points="194,-0.5 194,-21.5 315,-21.5 315,-0.5 194,-0.5"/>
<text text-anchor="middle" x="254.5" y="-7.9" font-family="Ubuntu Mono" font-size="12.00">str_utilities::strh2l</text>
</a>
</g>
</g>
<!-- Node1&#45;&gt;Node8 -->
<g id="edge8" class="edge">
<title>Node1&#45;&gt;Node8</title>
<path fill="none" stroke="midnightblue" d="M101.33,-59.5C123.05,-51.31 154.28,-39.87 182,-31 189.01,-28.76 196.44,-26.52 203.76,-24.4"/>
<polygon fill="midnightblue" stroke="midnightblue" points="204.98,-27.7 213.63,-21.59 203.06,-20.96 204.98,-27.7"/>
</g>
<!-- Node2&#45;&gt;Node3 -->
<g id="edge2" class="edge">
<title>Node2&#45;&gt;Node3</title>
<path fill="none" stroke="midnightblue" d="M299.75,-118.45C319.83,-113.66 343.77,-107.94 364.91,-102.9"/>
<polygon fill="midnightblue" stroke="midnightblue" points="365.8,-106.29 374.72,-100.56 364.18,-99.48 365.8,-106.29"/>
</g>
<!-- Node4 -->
<g id="node4" class="node">
<title>Node4</title>
<g id="a_node4"><a xlink:href="namespacemessages.html#a61fd0b51b5e37d58fdc993c01792a3fd" target="_top" xlink:title="Returns the time.">
<polygon fill="white" stroke="black" points="534.5,-119.5 534.5,-140.5 674.5,-140.5 674.5,-119.5 534.5,-119.5"/>
<text text-anchor="middle" x="604.5" y="-126.9" font-family="Ubuntu Mono" font-size="12.00">messages::get_clock</text>
</a>
</g>
</g>
<!-- Node3&#45;&gt;Node4 -->
<g id="edge3" class="edge">
<title>Node3&#45;&gt;Node4</title>
<path fill="none" stroke="midnightblue" d="M468.95,-100.51C492.43,-105.66 520.9,-111.9 545.59,-117.31"/>
<polygon fill="midnightblue" stroke="midnightblue" points="545.04,-120.77 555.55,-119.49 546.54,-113.93 545.04,-120.77"/>
</g>
<!-- Node5 -->
<g id="node5" class="node">
<title>Node5</title>
<g id="a_node5"><a xlink:href="namespacemessages.html#a82dddaab795b78b3d39e1ff1aab2f665" target="_top" xlink:title="Returns the memory usage in kilobytes.">
<polygon fill="white" stroke="black" points="513,-79.5 513,-100.5 696,-100.5 696,-79.5 513,-79.5"/>
<text text-anchor="middle" x="604.5" y="-86.9" font-family="Ubuntu Mono" font-size="12.00">messages::get_mem_usage</text>
</a>
</g>
</g>
<!-- Node3&#45;&gt;Node5 -->
<g id="edge4" class="edge">
<title>Node3&#45;&gt;Node5</title>
<path fill="none" stroke="midnightblue" d="M477.25,-90C485.37,-90 493.94,-90 502.63,-90"/>
<polygon fill="midnightblue" stroke="midnightblue" points="502.86,-93.5 512.86,-90 502.86,-86.5 502.86,-93.5"/>
</g>
<!-- Node6 -->
<g id="node6" class="node">
<title>Node6</title>
<g id="a_node6"><a xlink:href="namespacestr__utilities.html#a0b97e51770725a3e98ed393d26681414" target="_top" xlink:title="Convert an integer to string.">
<polygon fill="white" stroke="black" points="547.5,-39.5 547.5,-60.5 661.5,-60.5 661.5,-39.5 547.5,-39.5"/>
<text text-anchor="middle" x="604.5" y="-46.9" font-family="Ubuntu Mono" font-size="12.00">str_utilities::i2str</text>
</a>
</g>
</g>
<!-- Node3&#45;&gt;Node6 -->
<g id="edge5" class="edge">
<title>Node3&#45;&gt;Node6</title>
<path fill="none" stroke="midnightblue" d="M468.95,-79.49C492.43,-74.34 520.9,-68.1 545.59,-62.69"/>
<polygon fill="midnightblue" stroke="midnightblue" points="546.54,-66.07 555.55,-60.51 545.04,-59.23 546.54,-66.07"/>
</g>
<!-- Node7&#45;&gt;Node3 -->
<g id="edge7" class="edge">
<title>Node7&#45;&gt;Node3</title>
<path fill="none" stroke="midnightblue" d="M299.75,-61.55C319.83,-66.34 343.77,-72.06 364.91,-77.1"/>
<polygon fill="midnightblue" stroke="midnightblue" points="364.18,-80.52 374.72,-79.44 365.8,-73.71 364.18,-80.52"/>
</g>
</g>
</svg>
