<?xml version="1.0" encoding="UTF-8" standalone="no"?>
<!DOCTYPE svg PUBLIC "-//W3C//DTD SVG 1.1//EN"
 "http://www.w3.org/Graphics/SVG/1.1/DTD/svg11.dtd">
<!-- Generated by graphviz version 2.43.0 (0)
 -->
<!-- Title: eq_ops::kappa_plot Pages: 1 -->
<svg width="1049pt" height="531pt"
 viewBox="0.00 0.00 1049.00 530.90" xmlns="http://www.w3.org/2000/svg" xmlns:xlink="http://www.w3.org/1999/xlink">
<g id="graph0" class="graph" transform="scale(1 1) rotate(0) translate(4 526.9)">
<title>eq_ops::kappa_plot</title>
<polygon fill="white" stroke="transparent" points="-4,4 -4,-526.9 1045,-526.9 1045,4 -4,4"/>
<!-- Node1 -->
<g id="node1" class="node">
<title>Node1</title>
<g id="a_node1"><a xlink:title="Plots the curvature.">
<polygon fill="#bfbfbf" stroke="black" points="0,-263.4 0,-284.4 131,-284.4 131,-263.4 0,-263.4"/>
<text text-anchor="middle" x="65.5" y="-270.8" font-family="Ubuntu Mono" font-size="12.00">eq_ops::kappa_plot</text>
</a>
</g>
</g>
<!-- Node2 -->
<g id="node2" class="node">
<title>Node2</title>
<g id="a_node2"><a xlink:href="namespacenum__utilities.html#a5ee3fbd1fe67d0deefc7194631389f2a" target="_top" xlink:title="Convert 2&#45;D coordinates (i,j) to the storage convention used in matrices.">
<polygon fill="white" stroke="black" points="343.5,-434.4 343.5,-455.4 449.5,-455.4 449.5,-434.4 343.5,-434.4"/>
<text text-anchor="middle" x="396.5" y="-441.8" font-family="Ubuntu Mono" font-size="12.00">num_utilities::c</text>
</a>
</g>
</g>
<!-- Node1&#45;&gt;Node2 -->
<g id="edge1" class="edge">
<title>Node1&#45;&gt;Node2</title>
<path fill="none" stroke="midnightblue" d="M79.29,-284.4C97.88,-299.38 133.78,-327.24 167,-346.9 232.54,-385.67 251.4,-391.37 322,-419.9 331.65,-423.8 342.17,-427.62 352.16,-431.06"/>
<polygon fill="midnightblue" stroke="midnightblue" points="351.32,-434.47 361.91,-434.35 353.56,-427.84 351.32,-434.47"/>
</g>
<!-- Node3 -->
<g id="node3" class="node">
<title>Node3</title>
<g id="a_node3"><a xlink:href="namespacevmec__utilities.html#ac699116fc25fdea3e28e488513d97c87" target="_top" xlink:title="Calculate the trigonometric cosine and sine factors.">
<polygon fill="white" stroke="black" points="332,-302.9 332,-336.9 461,-336.9 461,-302.9 332,-302.9"/>
<text text-anchor="start" x="340" y="-323.3" font-family="Ubuntu Mono" font-size="12.00">vmec_utilities::calc</text>
<text text-anchor="middle" x="396.5" y="-310.3" font-family="Ubuntu Mono" font-size="12.00">_trigon_factors</text>
</a>
</g>
</g>
<!-- Node1&#45;&gt;Node3 -->
<g id="edge2" class="edge">
<title>Node1&#45;&gt;Node3</title>
<path fill="none" stroke="midnightblue" d="M131.16,-277.36C175.04,-280.31 234.26,-285.44 286,-293.9 297.68,-295.8 309.95,-298.26 321.9,-300.91"/>
<polygon fill="midnightblue" stroke="midnightblue" points="321.3,-304.36 331.83,-303.16 322.85,-297.54 321.3,-304.36"/>
</g>
<!-- Node4 -->
<g id="node4" class="node">
<title>Node4</title>
<g id="a_node4"><a xlink:href="namespacestr__utilities.html#a0b97e51770725a3e98ed393d26681414" target="_top" xlink:title="Convert an integer to string.">
<polygon fill="white" stroke="black" points="892.5,-349.4 892.5,-370.4 1006.5,-370.4 1006.5,-349.4 892.5,-349.4"/>
<text text-anchor="middle" x="949.5" y="-356.8" font-family="Ubuntu Mono" font-size="12.00">str_utilities::i2str</text>
</a>
</g>
</g>
<!-- Node1&#45;&gt;Node4 -->
<g id="edge30" class="edge">
<title>Node1&#45;&gt;Node4</title>
<path fill="none" stroke="midnightblue" d="M70.33,-284.64C81.06,-313.29 114.15,-392.3 167,-435.9 250.83,-505.04 286.83,-522.9 395.5,-522.9 395.5,-522.9 395.5,-522.9 590.5,-522.9 730.23,-522.9 875.29,-418.77 927.9,-376.97"/>
<polygon fill="midnightblue" stroke="midnightblue" points="930.22,-379.59 935.81,-370.59 925.83,-374.14 930.22,-379.59"/>
</g>
<!-- Node5 -->
<g id="node5" class="node">
<title>Node5</title>
<g id="a_node5"><a xlink:href="namespacemessages.html#aa4a8d01563e92558e8a0875b075ec54c" target="_top" xlink:title="Write output to file identified by output_i.">
<polygon fill="white" stroke="black" points="708,-188.4 708,-209.4 822,-209.4 822,-188.4 708,-188.4"/>
<text text-anchor="middle" x="765" y="-195.8" font-family="Ubuntu Mono" font-size="12.00">messages::writo</text>
</a>
</g>
</g>
<!-- Node1&#45;&gt;Node5 -->
<g id="edge33" class="edge">
<title>Node1&#45;&gt;Node5</title>
<path fill="none" stroke="midnightblue" d="M78.66,-263.36C96.75,-248.17 132.36,-220.18 167,-203.9 231.7,-173.48 251.16,-170.54 322,-160.9 460.42,-142.05 624.57,-168.99 708.51,-186.29"/>
<polygon fill="midnightblue" stroke="midnightblue" points="707.84,-189.72 718.34,-188.35 709.27,-182.87 707.84,-189.72"/>
</g>
<!-- Node8 -->
<g id="node8" class="node">
<title>Node8</title>
<g id="a_node8"><a xlink:href="namespacegrid__utilities.html#ad3d9386b9abcb1a7e17369a1b3a3750d" target="_top" xlink:title="Calculates contra&#45; and covariant components of a vector in multiple coordinate systems.">
<polygon fill="white" stroke="black" points="167,-302.9 167,-336.9 286,-336.9 286,-302.9 167,-302.9"/>
<text text-anchor="start" x="175" y="-323.3" font-family="Ubuntu Mono" font-size="12.00">grid_utilities::calc</text>
<text text-anchor="middle" x="226.5" y="-310.3" font-family="Ubuntu Mono" font-size="12.00">_vec_comp</text>
</a>
</g>
</g>
<!-- Node1&#45;&gt;Node8 -->
<g id="edge8" class="edge">
<title>Node1&#45;&gt;Node8</title>
<path fill="none" stroke="midnightblue" d="M102.98,-284.45C119.06,-289.1 138.51,-294.73 157.12,-300.11"/>
<polygon fill="midnightblue" stroke="midnightblue" points="156.18,-303.49 166.76,-302.9 158.13,-296.76 156.18,-303.49"/>
</g>
<!-- Node9 -->
<g id="node9" class="node">
<title>Node9</title>
<g id="a_node9"><a xlink:href="namespacegrid__utilities.html#a39e7cd9b8f173994358dbdd6b57827e1" target="_top" xlink:title="Calculates , &#160;and &#160;on a grid grid_XYZ, determined through its E(quilibrium) coordinates.">
<polygon fill="white" stroke="black" points="337,-210.9 337,-244.9 456,-244.9 456,-210.9 337,-210.9"/>
<text text-anchor="start" x="345" y="-231.3" font-family="Ubuntu Mono" font-size="12.00">grid_utilities::calc</text>
<text text-anchor="middle" x="396.5" y="-218.3" font-family="Ubuntu Mono" font-size="12.00">_xyz_grid</text>
</a>
</g>
</g>
<!-- Node1&#45;&gt;Node9 -->
<g id="edge22" class="edge">
<title>Node1&#45;&gt;Node9</title>
<path fill="none" stroke="midnightblue" d="M131.11,-264.86C187.51,-256.98 269.13,-245.57 326.73,-237.51"/>
<polygon fill="midnightblue" stroke="midnightblue" points="327.42,-240.95 336.84,-236.1 326.45,-234.02 327.42,-240.95"/>
</g>
<!-- Node11 -->
<g id="node11" class="node">
<title>Node11</title>
<g id="a_node11"><a xlink:href="namespacemessages.html#a6e6bfb084063e4cc91ee86e542043302" target="_top" xlink:title="Increases/decreases lvl of output.">
<polygon fill="white" stroke="black" points="530.5,-473.4 530.5,-494.4 648.5,-494.4 648.5,-473.4 530.5,-473.4"/>
<text text-anchor="middle" x="589.5" y="-480.8" font-family="Ubuntu Mono" font-size="12.00">messages::lvl_ud</text>
</a>
</g>
</g>
<!-- Node1&#45;&gt;Node11 -->
<g id="edge31" class="edge">
<title>Node1&#45;&gt;Node11</title>
<path fill="none" stroke="midnightblue" d="M73.41,-284.45C88.28,-306.49 125.33,-357.97 167,-389.9 227.75,-436.44 248.06,-445.15 322,-464.9 387.68,-482.43 465.5,-486.12 520.03,-486.06"/>
<polygon fill="midnightblue" stroke="midnightblue" points="520.3,-489.56 530.28,-486.01 520.26,-482.56 520.3,-489.56"/>
</g>
<!-- Node14 -->
<g id="node14" class="node">
<title>Node14</title>
<g id="a_node14"><a xlink:href="namespacegrid__utilities.html#a67001ff9bbcad707aacf17f90a748d90" target="_top" xlink:title="Trim a grid, removing any overlap between the different regions.">
<polygon fill="white" stroke="black" points="322,-170.4 322,-191.4 471,-191.4 471,-170.4 322,-170.4"/>
<text text-anchor="middle" x="396.5" y="-177.8" font-family="Ubuntu Mono" font-size="12.00">grid_utilities::trim_grid</text>
</a>
</g>
</g>
<!-- Node1&#45;&gt;Node14 -->
<g id="edge32" class="edge">
<title>Node1&#45;&gt;Node14</title>
<path fill="none" stroke="midnightblue" d="M95.78,-263.36C115.73,-256.33 142.82,-247.1 167,-239.9 225.9,-222.36 294.22,-205.12 340.7,-193.85"/>
<polygon fill="midnightblue" stroke="midnightblue" points="341.67,-197.21 350.57,-191.46 340.03,-190.41 341.67,-197.21"/>
</g>
<!-- Node15 -->
<g id="node15" class="node">
<title>Node15</title>
<g id="a_node15"><a xlink:href="namespaceinput__utilities.html#ad9ce824c30b32041ab70f3fb191f06db" target="_top" xlink:title="Queries for a logical value yes or no, where the default answer is also to be provided.">
<polygon fill="white" stroke="black" points="323.5,-71.4 323.5,-92.4 469.5,-92.4 469.5,-71.4 323.5,-71.4"/>
<text text-anchor="middle" x="396.5" y="-78.8" font-family="Ubuntu Mono" font-size="12.00">input_utilities::get_log</text>
</a>
</g>
</g>
<!-- Node1&#45;&gt;Node15 -->
<g id="edge23" class="edge">
<title>Node1&#45;&gt;Node15</title>
<path fill="none" stroke="midnightblue" d="M70.45,-263.36C81.26,-236.07 114.09,-162.81 167,-127.9 210.11,-99.45 267.03,-87.93 313.28,-83.54"/>
<polygon fill="midnightblue" stroke="midnightblue" points="313.61,-87.02 323.28,-82.68 313.01,-80.05 313.61,-87.02"/>
</g>
<!-- Node3&#45;&gt;Node4 -->
<g id="edge3" class="edge">
<title>Node3&#45;&gt;Node4</title>
<path fill="none" stroke="midnightblue" d="M461.06,-322.01C516.73,-324.07 599.79,-327.66 672,-332.9 744.01,-338.11 826.34,-346.46 882.3,-352.49"/>
<polygon fill="midnightblue" stroke="midnightblue" points="882.12,-355.99 892.44,-353.59 882.87,-349.04 882.12,-355.99"/>
</g>
<!-- Node3&#45;&gt;Node5 -->
<g id="edge4" class="edge">
<title>Node3&#45;&gt;Node5</title>
<path fill="none" stroke="midnightblue" d="M441.47,-302.75C451.4,-298.33 461.74,-293.29 471,-287.9 488.29,-277.84 488.91,-269.42 507,-260.9 540.6,-245.07 634.43,-224.48 698.91,-211.47"/>
<polygon fill="midnightblue" stroke="midnightblue" points="699.88,-214.84 708.99,-209.45 698.5,-207.98 699.88,-214.84"/>
</g>
<!-- Node5&#45;&gt;Node4 -->
<g id="edge7" class="edge">
<title>Node5&#45;&gt;Node4</title>
<path fill="none" stroke="midnightblue" d="M777.97,-209.46C808.64,-236.52 890.28,-308.53 928.38,-342.15"/>
<polygon fill="midnightblue" stroke="midnightblue" points="926.43,-345.09 936.24,-349.08 931.06,-339.84 926.43,-345.09"/>
</g>
<!-- Node6 -->
<g id="node6" class="node">
<title>Node6</title>
<g id="a_node6"><a xlink:href="namespacemessages.html#a61fd0b51b5e37d58fdc993c01792a3fd" target="_top" xlink:title="Returns the time.">
<polygon fill="white" stroke="black" points="879.5,-168.4 879.5,-189.4 1019.5,-189.4 1019.5,-168.4 879.5,-168.4"/>
<text text-anchor="middle" x="949.5" y="-175.8" font-family="Ubuntu Mono" font-size="12.00">messages::get_clock</text>
</a>
</g>
</g>
<!-- Node5&#45;&gt;Node6 -->
<g id="edge5" class="edge">
<title>Node5&#45;&gt;Node6</title>
<path fill="none" stroke="midnightblue" d="M822.25,-192.73C837.02,-191.11 853.24,-189.34 868.99,-187.61"/>
<polygon fill="midnightblue" stroke="midnightblue" points="869.69,-191.05 879.25,-186.49 868.93,-184.1 869.69,-191.05"/>
</g>
<!-- Node7 -->
<g id="node7" class="node">
<title>Node7</title>
<g id="a_node7"><a xlink:href="namespacemessages.html#a82dddaab795b78b3d39e1ff1aab2f665" target="_top" xlink:title="Returns the memory usage in kilobytes.">
<polygon fill="white" stroke="black" points="858,-208.4 858,-229.4 1041,-229.4 1041,-208.4 858,-208.4"/>
<text text-anchor="middle" x="949.5" y="-215.8" font-family="Ubuntu Mono" font-size="12.00">messages::get_mem_usage</text>
</a>
</g>
</g>
<!-- Node5&#45;&gt;Node7 -->
<g id="edge6" class="edge">
<title>Node5&#45;&gt;Node7</title>
<path fill="none" stroke="midnightblue" d="M822.25,-205.06C830.46,-205.96 839.13,-206.91 847.91,-207.87"/>
<polygon fill="midnightblue" stroke="midnightblue" points="847.53,-211.35 857.86,-208.96 848.3,-204.39 847.53,-211.35"/>
</g>
<!-- Node8&#45;&gt;Node2 -->
<g id="edge9" class="edge">
<title>Node8&#45;&gt;Node2</title>
<path fill="none" stroke="midnightblue" d="M239.61,-337.19C255.94,-359.31 287.03,-397.44 322,-419.9 328.62,-424.15 336.04,-427.76 343.55,-430.8"/>
<polygon fill="midnightblue" stroke="midnightblue" points="342.47,-434.13 353.07,-434.36 344.92,-427.58 342.47,-434.13"/>
</g>
<!-- Node8&#45;&gt;Node3 -->
<g id="edge10" class="edge">
<title>Node8&#45;&gt;Node3</title>
<path fill="none" stroke="midnightblue" d="M286.26,-319.9C297.67,-319.9 309.78,-319.9 321.61,-319.9"/>
<polygon fill="midnightblue" stroke="midnightblue" points="321.91,-323.4 331.91,-319.9 321.91,-316.4 321.91,-323.4"/>
</g>
<!-- Node8&#45;&gt;Node5 -->
<g id="edge21" class="edge">
<title>Node8&#45;&gt;Node5</title>
<path fill="none" stroke="midnightblue" d="M286.2,-303.63C298.04,-300.38 310.41,-297.01 322,-293.9 388.11,-276.15 412.75,-290.86 471,-254.9 491.63,-242.16 485.21,-224.54 507,-213.9 566.61,-184.79 643.5,-184.39 697.58,-189.2"/>
<polygon fill="midnightblue" stroke="midnightblue" points="697.45,-192.7 707.75,-190.19 698.13,-185.73 697.45,-192.7"/>
</g>
<!-- Node8&#45;&gt;Node9 -->
<g id="edge11" class="edge">
<title>Node8&#45;&gt;Node9</title>
<path fill="none" stroke="midnightblue" d="M252.14,-302.76C270.85,-290.12 297.46,-272.93 322,-259.9 329,-256.18 336.52,-252.53 343.99,-249.11"/>
<polygon fill="midnightblue" stroke="midnightblue" points="345.68,-252.19 353.38,-244.9 342.82,-245.8 345.68,-252.19"/>
</g>
<!-- Node10 -->
<g id="node10" class="node">
<title>Node10</title>
<g id="a_node10"><a xlink:href="namespaceoutput__ops.html#a50bfbb88cc91805469353c3ff47b3e2e" target="_top" xlink:title="Use external program to draw a plot.">
<polygon fill="white" stroke="black" points="326.5,-356.4 326.5,-377.4 466.5,-377.4 466.5,-356.4 326.5,-356.4"/>
<text text-anchor="middle" x="396.5" y="-363.8" font-family="Ubuntu Mono" font-size="12.00">output_ops::draw_ex</text>
</a>
</g>
</g>
<!-- Node8&#45;&gt;Node10 -->
<g id="edge12" class="edge">
<title>Node8&#45;&gt;Node10</title>
<path fill="none" stroke="midnightblue" d="M286.2,-336.79C298.04,-340.17 310.41,-343.67 322,-346.9 329.88,-349.09 338.24,-351.4 346.39,-353.63"/>
<polygon fill="midnightblue" stroke="midnightblue" points="345.62,-357.04 356.19,-356.3 347.46,-350.29 345.62,-357.04"/>
</g>
<!-- Node8&#45;&gt;Node11 -->
<g id="edge19" class="edge">
<title>Node8&#45;&gt;Node11</title>
<path fill="none" stroke="midnightblue" d="M247.16,-337.14C265.4,-352.29 293.89,-373.89 322,-386.9 384.03,-415.59 411.13,-391.94 471,-424.9 490.28,-435.51 487.98,-447.82 507,-458.9 514.53,-463.28 522.9,-466.97 531.33,-470.05"/>
<polygon fill="midnightblue" stroke="midnightblue" points="530.24,-473.38 540.84,-473.28 532.49,-466.75 530.24,-473.38"/>
</g>
<!-- Node8&#45;&gt;Node14 -->
<g id="edge20" class="edge">
<title>Node8&#45;&gt;Node14</title>
<path fill="none" stroke="midnightblue" d="M236.34,-302.87C250.72,-276.86 281.69,-227.46 322,-200.9 325.11,-198.85 328.42,-197.01 331.86,-195.36"/>
<polygon fill="midnightblue" stroke="midnightblue" points="333.34,-198.53 341.19,-191.4 330.61,-192.08 333.34,-198.53"/>
</g>
<!-- Node10&#45;&gt;Node4 -->
<g id="edge13" class="edge">
<title>Node10&#45;&gt;Node4</title>
<path fill="none" stroke="midnightblue" d="M460.37,-377.55C464.07,-379.1 467.65,-380.87 471,-382.9 492.33,-395.8 484.42,-415.35 507,-425.9 650.48,-492.9 846.18,-410.9 919.33,-375.07"/>
<polygon fill="midnightblue" stroke="midnightblue" points="921.04,-378.13 928.43,-370.54 917.92,-371.86 921.04,-378.13"/>
</g>
<!-- Node10&#45;&gt;Node5 -->
<g id="edge18" class="edge">
<title>Node10&#45;&gt;Node5</title>
<path fill="none" stroke="midnightblue" d="M441.03,-356.38C450.98,-353.61 461.44,-350.4 471,-346.9 517.29,-329.92 628.36,-275.85 672,-252.9 694.86,-240.88 720.11,-225.93 738.37,-214.81"/>
<polygon fill="midnightblue" stroke="midnightblue" points="740.28,-217.74 746.98,-209.54 736.62,-211.78 740.28,-217.74"/>
</g>
<!-- Node10&#45;&gt;Node11 -->
<g id="edge14" class="edge">
<title>Node10&#45;&gt;Node11</title>
<path fill="none" stroke="midnightblue" d="M445.74,-377.5C454.79,-381.03 463.7,-385.71 471,-391.9 496.79,-413.75 480.88,-437.44 507,-458.9 511.95,-462.97 517.56,-466.37 523.47,-469.23"/>
<polygon fill="midnightblue" stroke="midnightblue" points="522.36,-472.56 532.93,-473.27 525.11,-466.12 522.36,-472.56"/>
</g>
<!-- Node12 -->
<g id="node12" class="node">
<title>Node12</title>
<g id="a_node12"><a xlink:href="namespacefiles__utilities.html#ac6066df405564ba2f5e3c4bba726c1f8" target="_top" xlink:title="Search for available new unit.">
<polygon fill="white" stroke="black" points="517,-395.4 517,-416.4 662,-416.4 662,-395.4 517,-395.4"/>
<text text-anchor="middle" x="589.5" y="-402.8" font-family="Ubuntu Mono" font-size="12.00">files_utilities::nextunit</text>
</a>
</g>
</g>
<!-- Node10&#45;&gt;Node12 -->
<g id="edge16" class="edge">
<title>Node10&#45;&gt;Node12</title>
<path fill="none" stroke="midnightblue" d="M448.94,-377.4C473.03,-382.32 501.91,-388.22 527.14,-393.37"/>
<polygon fill="midnightblue" stroke="midnightblue" points="526.47,-396.8 536.97,-395.38 527.87,-389.95 526.47,-396.8"/>
</g>
<!-- Node13 -->
<g id="node13" class="node">
<title>Node13</title>
<g id="a_node13"><a xlink:href="namespaceoutput__ops.html#aa9e4855511b6ea16a08b3efb587bec51" target="_top" xlink:title="Executes command line, or displays a message if disabled.">
<polygon fill="white" stroke="black" points="507,-341.9 507,-375.9 672,-375.9 672,-341.9 507,-341.9"/>
<text text-anchor="start" x="515" y="-362.3" font-family="Ubuntu Mono" font-size="12.00">output_ops::use_execute</text>
<text text-anchor="middle" x="589.5" y="-349.3" font-family="Ubuntu Mono" font-size="12.00">_command_line</text>
</a>
</g>
</g>
<!-- Node10&#45;&gt;Node13 -->
<g id="edge17" class="edge">
<title>Node10&#45;&gt;Node13</title>
<path fill="none" stroke="midnightblue" d="M466.73,-364C476.49,-363.59 486.66,-363.16 496.77,-362.74"/>
<polygon fill="midnightblue" stroke="midnightblue" points="497,-366.23 506.84,-362.32 496.71,-359.24 497,-366.23"/>
</g>
<!-- Node11&#45;&gt;Node5 -->
<g id="edge15" class="edge">
<title>Node11&#45;&gt;Node5</title>
<path fill="none" stroke="midnightblue" d="M611.82,-473.21C629.97,-463.17 655.64,-446.61 672,-425.9 723.79,-360.35 750.27,-261.73 759.79,-219.39"/>
<polygon fill="midnightblue" stroke="midnightblue" points="763.24,-219.97 761.94,-209.46 756.4,-218.49 763.24,-219.97"/>
</g>
<!-- Node15&#45;&gt;Node5 -->
<g id="edge29" class="edge">
<title>Node15&#45;&gt;Node5</title>
<path fill="none" stroke="midnightblue" d="M411.39,-71.25C431.28,-56.74 469.62,-31.47 507,-21.9 578.04,-3.71 609.32,16.17 672,-21.9 729.12,-56.58 752.4,-139.53 760.4,-178.29"/>
<polygon fill="midnightblue" stroke="midnightblue" points="757.02,-179.23 762.34,-188.39 763.89,-177.9 757.02,-179.23"/>
</g>
<!-- Node16 -->
<g id="node16" class="node">
<title>Node16</title>
<g id="a_node16"><a xlink:href="namespacemessages.html#a84d5988f3ea5ca8dc2834032f896ae90" target="_top" xlink:title="Start a timer.">
<polygon fill="white" stroke="black" points="517,-111.4 517,-132.4 662,-132.4 662,-111.4 517,-111.4"/>
<text text-anchor="middle" x="589.5" y="-118.8" font-family="Ubuntu Mono" font-size="12.00">messages::start_time</text>
</a>
</g>
</g>
<!-- Node15&#45;&gt;Node16 -->
<g id="edge24" class="edge">
<title>Node15&#45;&gt;Node16</title>
<path fill="none" stroke="midnightblue" d="M447.68,-92.41C472.37,-97.58 502.32,-103.85 528.23,-109.28"/>
<polygon fill="midnightblue" stroke="midnightblue" points="527.82,-112.76 538.32,-111.39 529.25,-105.91 527.82,-112.76"/>
</g>
<!-- Node17 -->
<g id="node17" class="node">
<title>Node17</title>
<g id="a_node17"><a xlink:href="namespacemessages.html#aed343894ae4a28ad6dfbd1d39aac64ff" target="_top" xlink:title="Stop a timer.">
<polygon fill="white" stroke="black" points="518,-71.4 518,-92.4 661,-92.4 661,-71.4 518,-71.4"/>
<text text-anchor="middle" x="589.5" y="-78.8" font-family="Ubuntu Mono" font-size="12.00">messages::stop_time</text>
</a>
</g>
</g>
<!-- Node15&#45;&gt;Node17 -->
<g id="edge26" class="edge">
<title>Node15&#45;&gt;Node17</title>
<path fill="none" stroke="midnightblue" d="M469.71,-81.9C482.13,-81.9 495.11,-81.9 507.74,-81.9"/>
<polygon fill="midnightblue" stroke="midnightblue" points="507.77,-85.4 517.77,-81.9 507.77,-78.4 507.77,-85.4"/>
</g>
<!-- Node18 -->
<g id="node18" class="node">
<title>Node18</title>
<g id="a_node18"><a xlink:href="namespacestr__utilities.html#a219964a283968cc6a968db0197d2187e" target="_top" xlink:title="Convert a string to lowercase.">
<polygon fill="white" stroke="black" points="529,-31.4 529,-52.4 650,-52.4 650,-31.4 529,-31.4"/>
<text text-anchor="middle" x="589.5" y="-38.8" font-family="Ubuntu Mono" font-size="12.00">str_utilities::strh2l</text>
</a>
</g>
</g>
<!-- Node15&#45;&gt;Node18 -->
<g id="edge28" class="edge">
<title>Node15&#45;&gt;Node18</title>
<path fill="none" stroke="midnightblue" d="M447.68,-71.39C472.37,-66.22 502.32,-59.95 528.23,-54.52"/>
<polygon fill="midnightblue" stroke="midnightblue" points="529.25,-57.88 538.32,-52.41 527.82,-51.03 529.25,-57.88"/>
</g>
<!-- Node16&#45;&gt;Node5 -->
<g id="edge25" class="edge">
<title>Node16&#45;&gt;Node5</title>
<path fill="none" stroke="midnightblue" d="M630.92,-132.41C644.22,-136.37 658.95,-141.28 672,-146.9 695.68,-157.08 721.08,-171.75 739.18,-182.91"/>
<polygon fill="midnightblue" stroke="midnightblue" points="737.6,-186.05 747.93,-188.39 741.31,-180.12 737.6,-186.05"/>
</g>
<!-- Node17&#45;&gt;Node5 -->
<g id="edge27" class="edge">
<title>Node17&#45;&gt;Node5</title>
<path fill="none" stroke="midnightblue" d="M650.8,-92.51C658.2,-95.01 665.45,-98.09 672,-101.9 706.04,-121.67 735.37,-157.83 751.28,-179.98"/>
<polygon fill="midnightblue" stroke="midnightblue" points="748.46,-182.06 757.06,-188.25 754.2,-178.05 748.46,-182.06"/>
</g>
</g>
</svg>
