<?xml version="1.0" encoding="UTF-8" standalone="no"?>
<!DOCTYPE svg PUBLIC "-//W3C//DTD SVG 1.1//EN"
 "http://www.w3.org/Graphics/SVG/1.1/DTD/svg11.dtd">
<!-- Generated by graphviz version 2.43.0 (0)
 -->
<!-- Title: eq_ops::test_d12h_h Pages: 1 -->
<svg width="721pt" height="226pt"
 viewBox="0.00 0.00 721.00 226.00" xmlns="http://www.w3.org/2000/svg" xmlns:xlink="http://www.w3.org/1999/xlink">
<g id="graph0" class="graph" transform="scale(1 1) rotate(0) translate(4 222)">
<title>eq_ops::test_d12h_h</title>
<polygon fill="white" stroke="transparent" points="-4,4 -4,-222 717,-222 717,4 -4,4"/>
<!-- Node1 -->
<g id="node1" class="node">
<title>Node1</title>
<g id="a_node1"><a xlink:title="Tests whether &#160;is calculated correctly.">
<polygon fill="#bfbfbf" stroke="black" points="0,-98.5 0,-119.5 138,-119.5 138,-98.5 0,-98.5"/>
<text text-anchor="middle" x="69" y="-105.9" font-family="Ubuntu Mono" font-size="12.00">eq_ops::test_d12h_h</text>
</a>
</g>
</g>
<!-- Node2 -->
<g id="node2" class="node">
<title>Node2</title>
<g id="a_node2"><a xlink:href="namespacenum__utilities.html#a5ee3fbd1fe67d0deefc7194631389f2a" target="_top" xlink:title="Convert 2&#45;D coordinates (i,j) to the storage convention used in matrices.">
<polygon fill="white" stroke="black" points="206,-196.5 206,-217.5 312,-217.5 312,-196.5 206,-196.5"/>
<text text-anchor="middle" x="259" y="-203.9" font-family="Ubuntu Mono" font-size="12.00">num_utilities::c</text>
</a>
</g>
</g>
<!-- Node1&#45;&gt;Node2 -->
<g id="edge1" class="edge">
<title>Node1&#45;&gt;Node2</title>
<path fill="none" stroke="midnightblue" d="M82.29,-119.65C100.95,-135.32 138.06,-164.61 174,-182 183.14,-186.42 193.23,-190.24 203.14,-193.47"/>
<polygon fill="midnightblue" stroke="midnightblue" points="202.37,-196.89 212.96,-196.49 204.44,-190.2 202.37,-196.89"/>
</g>
<!-- Node3 -->
<g id="node3" class="node">
<title>Node3</title>
<g id="a_node3"><a xlink:href="namespacestr__utilities.html#a0b97e51770725a3e98ed393d26681414" target="_top" xlink:title="Convert an integer to string.">
<polygon fill="white" stroke="black" points="564.5,-157.5 564.5,-178.5 678.5,-178.5 678.5,-157.5 564.5,-157.5"/>
<text text-anchor="middle" x="621.5" y="-164.9" font-family="Ubuntu Mono" font-size="12.00">str_utilities::i2str</text>
</a>
</g>
</g>
<!-- Node1&#45;&gt;Node3 -->
<g id="edge2" class="edge">
<title>Node1&#45;&gt;Node3</title>
<path fill="none" stroke="midnightblue" d="M91.29,-119.55C111.88,-129.18 144.26,-142.82 174,-149 306.81,-176.59 466.46,-175.36 554.35,-171.8"/>
<polygon fill="midnightblue" stroke="midnightblue" points="554.61,-175.3 564.45,-171.37 554.31,-168.3 554.61,-175.3"/>
</g>
<!-- Node4 -->
<g id="node4" class="node">
<title>Node4</title>
<g id="a_node4"><a xlink:href="namespacemessages.html#a6e6bfb084063e4cc91ee86e542043302" target="_top" xlink:title="Increases/decreases lvl of output.">
<polygon fill="white" stroke="black" points="200,-118.5 200,-139.5 318,-139.5 318,-118.5 200,-118.5"/>
<text text-anchor="middle" x="259" y="-125.9" font-family="Ubuntu Mono" font-size="12.00">messages::lvl_ud</text>
</a>
</g>
</g>
<!-- Node1&#45;&gt;Node4 -->
<g id="edge3" class="edge">
<title>Node1&#45;&gt;Node4</title>
<path fill="none" stroke="midnightblue" d="M138.14,-116.25C154.85,-118.03 172.74,-119.93 189.46,-121.71"/>
<polygon fill="midnightblue" stroke="midnightblue" points="189.39,-125.22 199.71,-122.8 190.13,-118.26 189.39,-125.22"/>
</g>
<!-- Node5 -->
<g id="node5" class="node">
<title>Node5</title>
<g id="a_node5"><a xlink:href="namespacemessages.html#aa4a8d01563e92558e8a0875b075ec54c" target="_top" xlink:title="Write output to file identified by output_i.">
<polygon fill="white" stroke="black" points="380,-117.5 380,-138.5 494,-138.5 494,-117.5 380,-117.5"/>
<text text-anchor="middle" x="437" y="-124.9" font-family="Ubuntu Mono" font-size="12.00">messages::writo</text>
</a>
</g>
</g>
<!-- Node1&#45;&gt;Node5 -->
<g id="edge10" class="edge">
<title>Node1&#45;&gt;Node5</title>
<path fill="none" stroke="midnightblue" d="M138.04,-105.17C193.6,-102.96 274.08,-101.86 344,-109 357.06,-110.33 371,-112.71 383.98,-115.33"/>
<polygon fill="midnightblue" stroke="midnightblue" points="383.64,-118.84 394.14,-117.48 385.08,-111.99 383.64,-118.84"/>
</g>
<!-- Node8 -->
<g id="node8" class="node">
<title>Node8</title>
<g id="a_node8"><a xlink:href="namespaceoutput__ops.html#ab0d14194d01ab0534562eab50b37a57a" target="_top" xlink:title="Takes two input vectors and plots these as well as the relative and absolute difference in a HDF5 fil...">
<polygon fill="white" stroke="black" points="174,-40.5 174,-61.5 344,-61.5 344,-40.5 174,-40.5"/>
<text text-anchor="middle" x="259" y="-47.9" font-family="Ubuntu Mono" font-size="12.00">output_ops::plot_diff_hdf5</text>
</a>
</g>
</g>
<!-- Node1&#45;&gt;Node8 -->
<g id="edge8" class="edge">
<title>Node1&#45;&gt;Node8</title>
<path fill="none" stroke="midnightblue" d="M102.74,-98.45C123.2,-91.89 150.1,-83.35 174,-76 186.39,-72.19 199.84,-68.15 212.28,-64.45"/>
<polygon fill="midnightblue" stroke="midnightblue" points="213.4,-67.76 221.99,-61.56 211.4,-61.05 213.4,-67.76"/>
</g>
<!-- Node9 -->
<g id="node9" class="node">
<title>Node9</title>
<g id="a_node9"><a xlink:href="namespacegrid__utilities.html#a67001ff9bbcad707aacf17f90a748d90" target="_top" xlink:title="Trim a grid, removing any overlap between the different regions.">
<polygon fill="white" stroke="black" points="184.5,-0.5 184.5,-21.5 333.5,-21.5 333.5,-0.5 184.5,-0.5"/>
<text text-anchor="middle" x="259" y="-7.9" font-family="Ubuntu Mono" font-size="12.00">grid_utilities::trim_grid</text>
</a>
</g>
</g>
<!-- Node1&#45;&gt;Node9 -->
<g id="edge9" class="edge">
<title>Node1&#45;&gt;Node9</title>
<path fill="none" stroke="midnightblue" d="M80.84,-98.42C98.72,-81.57 136.2,-48.73 174,-31 179.22,-28.55 184.76,-26.39 190.42,-24.48"/>
<polygon fill="midnightblue" stroke="midnightblue" points="191.49,-27.81 200,-21.5 189.41,-21.13 191.49,-27.81"/>
</g>
<!-- Node4&#45;&gt;Node5 -->
<g id="edge4" class="edge">
<title>Node4&#45;&gt;Node5</title>
<path fill="none" stroke="midnightblue" d="M318.12,-128.67C334.53,-128.58 352.53,-128.47 369.4,-128.38"/>
<polygon fill="midnightblue" stroke="midnightblue" points="369.76,-131.88 379.74,-128.32 369.72,-124.88 369.76,-131.88"/>
</g>
<!-- Node5&#45;&gt;Node3 -->
<g id="edge7" class="edge">
<title>Node5&#45;&gt;Node3</title>
<path fill="none" stroke="midnightblue" d="M485.95,-138.51C509.43,-143.66 537.9,-149.9 562.59,-155.31"/>
<polygon fill="midnightblue" stroke="midnightblue" points="562.04,-158.77 572.55,-157.49 563.54,-151.93 562.04,-158.77"/>
</g>
<!-- Node6 -->
<g id="node6" class="node">
<title>Node6</title>
<g id="a_node6"><a xlink:href="namespacemessages.html#a61fd0b51b5e37d58fdc993c01792a3fd" target="_top" xlink:title="Returns the time.">
<polygon fill="white" stroke="black" points="551.5,-117.5 551.5,-138.5 691.5,-138.5 691.5,-117.5 551.5,-117.5"/>
<text text-anchor="middle" x="621.5" y="-124.9" font-family="Ubuntu Mono" font-size="12.00">messages::get_clock</text>
</a>
</g>
</g>
<!-- Node5&#45;&gt;Node6 -->
<g id="edge5" class="edge">
<title>Node5&#45;&gt;Node6</title>
<path fill="none" stroke="midnightblue" d="M494.25,-128C509.02,-128 525.24,-128 540.99,-128"/>
<polygon fill="midnightblue" stroke="midnightblue" points="541.25,-131.5 551.25,-128 541.25,-124.5 541.25,-131.5"/>
</g>
<!-- Node7 -->
<g id="node7" class="node">
<title>Node7</title>
<g id="a_node7"><a xlink:href="namespacemessages.html#a82dddaab795b78b3d39e1ff1aab2f665" target="_top" xlink:title="Returns the memory usage in kilobytes.">
<polygon fill="white" stroke="black" points="530,-77.5 530,-98.5 713,-98.5 713,-77.5 530,-77.5"/>
<text text-anchor="middle" x="621.5" y="-84.9" font-family="Ubuntu Mono" font-size="12.00">messages::get_mem_usage</text>
</a>
</g>
</g>
<!-- Node5&#45;&gt;Node7 -->
<g id="edge6" class="edge">
<title>Node5&#45;&gt;Node7</title>
<path fill="none" stroke="midnightblue" d="M485.95,-117.49C509.43,-112.34 537.9,-106.1 562.59,-100.69"/>
<polygon fill="midnightblue" stroke="midnightblue" points="563.54,-104.07 572.55,-98.51 562.04,-97.23 563.54,-104.07"/>
</g>
</g>
</svg>
