<?xml version="1.0" encoding="UTF-8" standalone="no"?>
<!DOCTYPE svg PUBLIC "-//W3C//DTD SVG 1.1//EN"
 "http://www.w3.org/Graphics/SVG/1.1/DTD/svg11.dtd">
<!-- Generated by graphviz version 2.38.0 (20140413.2041)
 -->
<!-- Title: x_utilities::get_sec_x_range Pages: 1 -->
<svg width="807pt" height="169pt"
 viewBox="0.00 0.00 807.00 169.27" xmlns="http://www.w3.org/2000/svg" xmlns:xlink="http://www.w3.org/1999/xlink">
<g id="graph0" class="graph" transform="scale(1 1) rotate(0) translate(4 165.274)">
<title>x_utilities::get_sec_x_range</title>
<polygon fill="white" stroke="none" points="-4,4 -4,-165.274 803,-165.274 803,4 -4,4"/>
<!-- Node22 -->
<g id="node1" class="node"><title>Node22</title>
<polygon fill="#bfbfbf" stroke="black" points="0,-53.5 0,-87.5 137,-87.5 137,-53.5 0,-53.5"/>
<text text-anchor="start" x="8" y="-73.9" font-family="Ubuntu Mono" font-size="12.00">x_utilities::get_sec</text>
<text text-anchor="middle" x="68.5" y="-60.9" font-family="Ubuntu Mono" font-size="12.00">_x_range</text>
</g>
<!-- Node23 -->
<g id="node2" class="node"><title>Node23</title>
<g id="a_node2"><a xlink:href="namespacepb3d__ops.html#aff64b6722845a07139e2832c0be36145" target="_top" xlink:title="Reconstructs the tensorial perturbation variables from PB3D HDF5 output. ">
<polygon fill="white" stroke="black" points="173,-119.5 173,-153.5 316,-153.5 316,-119.5 173,-119.5"/>
<text text-anchor="start" x="181" y="-139.9" font-family="Ubuntu Mono" font-size="12.00">pb3d_ops::reconstruct</text>
<text text-anchor="middle" x="244.5" y="-126.9" font-family="Ubuntu Mono" font-size="12.00">_pb3d_x_2</text>
</a>
</g>
</g>
<!-- Node22&#45;&gt;Node23 -->
<g id="edge1" class="edge"><title>Node22&#45;&gt;Node23</title>
<path fill="none" stroke="midnightblue" d="M124.386,-91.3188C148.24,-100.367 175.841,-110.836 198.464,-119.418"/>
<polygon fill="midnightblue" stroke="midnightblue" points="125.354,-87.9425 114.762,-87.6684 122.871,-94.4875 125.354,-87.9425"/>
</g>
<!-- Node27 -->
<g id="node6" class="node"><title>Node27</title>
<g id="a_node6"><a xlink:href="namespacepb3d__ops.html#a281c496a42c4ea46606e929e10d51582" target="_top" xlink:title="Reconstructs the vacuum variables from PB3D HDF5 output. ">
<polygon fill="white" stroke="black" points="173,-53.5 173,-87.5 316,-87.5 316,-53.5 173,-53.5"/>
<text text-anchor="start" x="181" y="-73.9" font-family="Ubuntu Mono" font-size="12.00">pb3d_ops::reconstruct</text>
<text text-anchor="middle" x="244.5" y="-60.9" font-family="Ubuntu Mono" font-size="12.00">_pb3d_vac</text>
</a>
</g>
</g>
<!-- Node22&#45;&gt;Node27 -->
<g id="edge6" class="edge"><title>Node22&#45;&gt;Node27</title>
<path fill="none" stroke="midnightblue" d="M147.466,-70.5C155.888,-70.5 164.425,-70.5 172.755,-70.5"/>
<polygon fill="midnightblue" stroke="midnightblue" points="147.271,-67.0001 137.271,-70.5 147.271,-74.0001 147.271,-67.0001"/>
</g>
<!-- Node34 -->
<g id="node13" class="node"><title>Node34</title>
<g id="a_node13"><a xlink:href="interfacex__ops_1_1print__output__x.html#a0600bd1f9ed6ec2ba0c748d52a932bc6" target="_top" xlink:title="tensorial version ">
<polygon fill="white" stroke="black" points="176,-0.5 176,-34.5 313,-34.5 313,-0.5 176,-0.5"/>
<text text-anchor="start" x="184" y="-20.9" font-family="Ubuntu Mono" font-size="12.00">x_ops::print_output</text>
<text text-anchor="middle" x="244.5" y="-7.9" font-family="Ubuntu Mono" font-size="12.00">_x::print_output_x_2</text>
</a>
</g>
</g>
<!-- Node22&#45;&gt;Node34 -->
<g id="edge15" class="edge"><title>Node22&#45;&gt;Node34</title>
<path fill="none" stroke="midnightblue" d="M135.47,-50.4056C152.648,-45.1732 170.99,-39.5863 187.592,-34.5293"/>
<polygon fill="midnightblue" stroke="midnightblue" points="134.059,-47.1767 125.512,-53.4387 136.098,-53.873 134.059,-47.1767"/>
</g>
<!-- Node24 -->
<g id="node3" class="node"><title>Node24</title>
<g id="a_node3"><a xlink:href="namespacedriver__x.html#ada3d72a0929daaa5e3da585246d62281" target="_top" xlink:title="Main driver of PB3D perturbation part. ">
<polygon fill="white" stroke="black" points="561,-126 561,-147 710,-147 710,-126 561,-126"/>
<text text-anchor="middle" x="635.5" y="-133.4" font-family="Ubuntu Mono" font-size="12.00">driver_x::run_driver_x</text>
</a>
</g>
</g>
<!-- Node23&#45;&gt;Node24 -->
<g id="edge2" class="edge"><title>Node23&#45;&gt;Node24</title>
<path fill="none" stroke="midnightblue" d="M326.36,-153.303C334.984,-154.61 343.653,-155.723 352,-156.5 423.248,-163.132 441.682,-162.331 513,-156.5 535.798,-154.636 560.764,-150.836 582.103,-147.045"/>
<polygon fill="midnightblue" stroke="midnightblue" points="326.705,-149.814 316.277,-151.686 325.597,-156.725 326.705,-149.814"/>
</g>
<!-- Node26 -->
<g id="node5" class="node"><title>Node26</title>
<g id="a_node5"><a xlink:href="namespacedriver__x.html#ad3924b3d66f336f0a9a9559eafffec8e" target="_top" xlink:title="Part 2 of driver_X: Tensorial jobs. ">
<polygon fill="white" stroke="black" points="352,-126 352,-147 513,-147 513,-126 352,-126"/>
<text text-anchor="middle" x="432.5" y="-133.4" font-family="Ubuntu Mono" font-size="12.00">driver_x::run_driver_x_2</text>
</a>
</g>
</g>
<!-- Node23&#45;&gt;Node26 -->
<g id="edge4" class="edge"><title>Node23&#45;&gt;Node26</title>
<path fill="none" stroke="midnightblue" d="M326.351,-136.5C334.839,-136.5 343.465,-136.5 351.94,-136.5"/>
<polygon fill="midnightblue" stroke="midnightblue" points="326.084,-133 316.084,-136.5 326.084,-140 326.084,-133"/>
</g>
<!-- Node25 -->
<g id="node4" class="node"><title>Node25</title>
<g id="a_node4"><a xlink:href="PB3D_8f90.html#afaee01f014ab3398eecac996b2795fd2" target="_top" xlink:title="Peeling Ballooning in 3D. ">
<polygon fill="white" stroke="black" points="758,-46 758,-67 799,-67 799,-46 758,-46"/>
<text text-anchor="middle" x="778.5" y="-53.4" font-family="Ubuntu Mono" font-size="12.00">pb3d</text>
</a>
</g>
</g>
<!-- Node24&#45;&gt;Node25 -->
<g id="edge3" class="edge"><title>Node24&#45;&gt;Node25</title>
<path fill="none" stroke="midnightblue" d="M710.322,-122.297C714.371,-120.581 718.294,-118.657 722,-116.5 743.339,-104.081 761.31,-80.8255 770.633,-67.2017"/>
<polygon fill="midnightblue" stroke="midnightblue" points="708.808,-119.128 700.692,-125.939 711.284,-125.676 708.808,-119.128"/>
</g>
<!-- Node26&#45;&gt;Node24 -->
<g id="edge5" class="edge"><title>Node26&#45;&gt;Node24</title>
<path fill="none" stroke="midnightblue" d="M523.599,-136.5C536.025,-136.5 548.664,-136.5 560.748,-136.5"/>
<polygon fill="midnightblue" stroke="midnightblue" points="523.229,-133 513.229,-136.5 523.229,-140 523.229,-133"/>
</g>
<!-- Node28 -->
<g id="node7" class="node"><title>Node28</title>
<g id="a_node7"><a xlink:href="namespacedriver__post.html#af527706d4e696d4e507443d2f74194ef" target="_top" xlink:title="Initializes the POST driver. ">
<polygon fill="white" stroke="black" points="358,-86 358,-107 507,-107 507,-86 358,-86"/>
<text text-anchor="middle" x="432.5" y="-93.4" font-family="Ubuntu Mono" font-size="12.00">driver_post::init_post</text>
</a>
</g>
</g>
<!-- Node27&#45;&gt;Node28 -->
<g id="edge7" class="edge"><title>Node27&#45;&gt;Node28</title>
<path fill="none" stroke="midnightblue" d="M326.117,-81.7691C336.671,-83.2443 347.441,-84.7498 357.87,-86.2077"/>
<polygon fill="midnightblue" stroke="midnightblue" points="326.472,-78.2847 316.084,-80.3666 325.503,-85.2173 326.472,-78.2847"/>
</g>
<!-- Node30 -->
<g id="node9" class="node"><title>Node30</title>
<g id="a_node9"><a xlink:href="namespacevac__ops.html#a37220702fbf378626a0f2c12f446e0aa" target="_top" xlink:title="Stores calculation of the vacuum response by storing the necessary variables. ">
<polygon fill="white" stroke="black" points="370,-46 370,-67 495,-67 495,-46 370,-46"/>
<text text-anchor="middle" x="432.5" y="-53.4" font-family="Ubuntu Mono" font-size="12.00">vac_ops::store_vac</text>
</a>
</g>
</g>
<!-- Node27&#45;&gt;Node30 -->
<g id="edge9" class="edge"><title>Node27&#45;&gt;Node30</title>
<path fill="none" stroke="midnightblue" d="M326.13,-64.4311C340.763,-63.3297 355.812,-62.197 369.793,-61.1446"/>
<polygon fill="midnightblue" stroke="midnightblue" points="325.793,-60.9465 316.084,-65.1872 326.318,-67.9267 325.793,-60.9465"/>
</g>
<!-- Node32 -->
<g id="node11" class="node"><title>Node32</title>
<g id="a_node11"><a xlink:href="namespacevac__ops.html#a5e5a8322b3aa2e3704b1050426f06d9d" target="_top" xlink:title="Calculates the vacuum response. ">
<polygon fill="white" stroke="black" points="361,-6 361,-27 504,-27 504,-6 361,-6"/>
<text text-anchor="middle" x="432.5" y="-13.4" font-family="Ubuntu Mono" font-size="12.00">vac_ops::calc_vac_res</text>
</a>
</g>
</g>
<!-- Node27&#45;&gt;Node32 -->
<g id="edge12" class="edge"><title>Node27&#45;&gt;Node32</title>
<path fill="none" stroke="midnightblue" d="M306.367,-50.3459C321.24,-45.6213 337.148,-40.7344 352,-36.5 363.497,-33.2221 376.008,-29.9421 387.631,-27.0141"/>
<polygon fill="midnightblue" stroke="midnightblue" points="305.221,-47.0375 296.764,-53.4187 307.355,-53.7045 305.221,-47.0375"/>
</g>
<!-- Node29 -->
<g id="node8" class="node"><title>Node29</title>
<g id="a_node8"><a xlink:href="POST_8f90.html#ac289b64ac4671fea0b4f2298ba1188a1" target="_top" xlink:title="Peeling Ballooning in 3D: postprocessing. ">
<polygon fill="white" stroke="black" points="615,-86 615,-107 656,-107 656,-86 615,-86"/>
<text text-anchor="middle" x="635.5" y="-93.4" font-family="Ubuntu Mono" font-size="12.00">post</text>
</a>
</g>
</g>
<!-- Node28&#45;&gt;Node29 -->
<g id="edge8" class="edge"><title>Node28&#45;&gt;Node29</title>
<path fill="none" stroke="midnightblue" d="M517.25,-96.5C553.202,-96.5 592.098,-96.5 614.827,-96.5"/>
<polygon fill="midnightblue" stroke="midnightblue" points="517.204,-93.0001 507.204,-96.5 517.204,-100 517.204,-93.0001"/>
</g>
<!-- Node31 -->
<g id="node10" class="node"><title>Node31</title>
<g id="a_node10"><a xlink:href="namespacedriver__eq.html#adc9d5dff288fa512e5ef885627d940cc" target="_top" xlink:title="Main driver of PB3D equilibrium part. ">
<polygon fill="white" stroke="black" points="555,-46 555,-67 716,-67 716,-46 555,-46"/>
<text text-anchor="middle" x="635.5" y="-53.4" font-family="Ubuntu Mono" font-size="12.00">driver_eq::run_driver_eq</text>
</a>
</g>
</g>
<!-- Node30&#45;&gt;Node31 -->
<g id="edge10" class="edge"><title>Node30&#45;&gt;Node31</title>
<path fill="none" stroke="midnightblue" d="M505.501,-56.5C521.477,-56.5 538.5,-56.5 554.765,-56.5"/>
<polygon fill="midnightblue" stroke="midnightblue" points="505.173,-53.0001 495.173,-56.5 505.173,-60.0001 505.173,-53.0001"/>
</g>
<!-- Node31&#45;&gt;Node25 -->
<g id="edge11" class="edge"><title>Node31&#45;&gt;Node25</title>
<path fill="none" stroke="midnightblue" d="M726.194,-56.5C738.071,-56.5 749.162,-56.5 757.971,-56.5"/>
<polygon fill="midnightblue" stroke="midnightblue" points="726.066,-53.0001 716.066,-56.5 726.065,-60.0001 726.066,-53.0001"/>
</g>
<!-- Node33 -->
<g id="node12" class="node"><title>Node33</title>
<g id="a_node12"><a xlink:href="namespacedriver__sol.html#ad3b1765b3ecc5f82129bfc683ffc6c5c" target="_top" xlink:title="Main driver of PB3D solution part. ">
<polygon fill="white" stroke="black" points="549,-6 549,-27 722,-27 722,-6 549,-6"/>
<text text-anchor="middle" x="635.5" y="-13.4" font-family="Ubuntu Mono" font-size="12.00">driver_sol::run_driver_sol</text>
</a>
</g>
</g>
<!-- Node32&#45;&gt;Node33 -->
<g id="edge13" class="edge"><title>Node32&#45;&gt;Node33</title>
<path fill="none" stroke="midnightblue" d="M514.396,-16.5C525.751,-16.5 537.454,-16.5 548.894,-16.5"/>
<polygon fill="midnightblue" stroke="midnightblue" points="514.082,-13.0001 504.082,-16.5 514.082,-20.0001 514.082,-13.0001"/>
</g>
<!-- Node33&#45;&gt;Node25 -->
<g id="edge14" class="edge"><title>Node33&#45;&gt;Node25</title>
<path fill="none" stroke="midnightblue" d="M695.884,-29.4498C704.684,-31.6406 713.61,-34.0161 722,-36.5 734.079,-40.0761 747.363,-44.8328 757.906,-48.8101"/>
<polygon fill="midnightblue" stroke="midnightblue" points="696.581,-26.0175 686.038,-27.0588 694.93,-32.8198 696.581,-26.0175"/>
</g>
</g>
</svg>
