<?xml version="1.0" encoding="UTF-8" standalone="no"?>
<!DOCTYPE svg PUBLIC "-//W3C//DTD SVG 1.1//EN"
 "http://www.w3.org/Graphics/SVG/1.1/DTD/svg11.dtd">
<!-- Generated by graphviz version 2.38.0 (20140413.2041)
 -->
<!-- Title: x_utilities::do_x Pages: 1 -->
<svg width="586pt" height="30pt"
 viewBox="0.00 0.00 586.00 30.00" xmlns="http://www.w3.org/2000/svg" xmlns:xlink="http://www.w3.org/1999/xlink">
<g id="graph0" class="graph" transform="scale(1 1) rotate(0) translate(4 26)">
<title>x_utilities::do_x</title>
<polygon fill="white" stroke="none" points="-4,4 -4,-26 582,-26 582,4 -4,4"/>
<!-- Node15 -->
<g id="node1" class="node"><title>Node15</title>
<polygon fill="#bfbfbf" stroke="black" points="0,-0.5 0,-21.5 119,-21.5 119,-0.5 0,-0.5"/>
<text text-anchor="middle" x="59.5" y="-7.9" font-family="Ubuntu Mono" font-size="12.00">x_utilities::do_x</text>
</g>
<!-- Node16 -->
<g id="node2" class="node"><title>Node16</title>
<g id="a_node2"><a xlink:href="namespacedriver__x.html#ad3924b3d66f336f0a9a9559eafffec8e" target="_top" xlink:title="Part 2 of driver_X: Tensorial jobs. ">
<polygon fill="white" stroke="black" points="155,-0.5 155,-21.5 316,-21.5 316,-0.5 155,-0.5"/>
<text text-anchor="middle" x="235.5" y="-7.9" font-family="Ubuntu Mono" font-size="12.00">driver_x::run_driver_x_2</text>
</a>
</g>
</g>
<!-- Node15&#45;&gt;Node16 -->
<g id="edge1" class="edge"><title>Node15&#45;&gt;Node16</title>
<path fill="none" stroke="midnightblue" d="M129.486,-11C137.86,-11 146.468,-11 154.979,-11"/>
<polygon fill="midnightblue" stroke="midnightblue" points="129.408,-7.5001 119.408,-11 129.408,-14.5001 129.408,-7.5001"/>
</g>
<!-- Node17 -->
<g id="node3" class="node"><title>Node17</title>
<g id="a_node3"><a xlink:href="namespacedriver__x.html#ada3d72a0929daaa5e3da585246d62281" target="_top" xlink:title="Main driver of PB3D perturbation part. ">
<polygon fill="white" stroke="black" points="352,-0.5 352,-21.5 501,-21.5 501,-0.5 352,-0.5"/>
<text text-anchor="middle" x="426.5" y="-7.9" font-family="Ubuntu Mono" font-size="12.00">driver_x::run_driver_x</text>
</a>
</g>
</g>
<!-- Node16&#45;&gt;Node17 -->
<g id="edge2" class="edge"><title>Node16&#45;&gt;Node17</title>
<path fill="none" stroke="midnightblue" d="M326.123,-11C334.692,-11 343.314,-11 351.708,-11"/>
<polygon fill="midnightblue" stroke="midnightblue" points="326.105,-7.5001 316.105,-11 326.105,-14.5001 326.105,-7.5001"/>
</g>
<!-- Node18 -->
<g id="node4" class="node"><title>Node18</title>
<g id="a_node4"><a xlink:href="PB3D_8f90.html#afaee01f014ab3398eecac996b2795fd2" target="_top" xlink:title="Peeling Ballooning in 3D. ">
<polygon fill="white" stroke="black" points="537,-0.5 537,-21.5 578,-21.5 578,-0.5 537,-0.5"/>
<text text-anchor="middle" x="557.5" y="-7.9" font-family="Ubuntu Mono" font-size="12.00">pb3d</text>
</a>
</g>
</g>
<!-- Node17&#45;&gt;Node18 -->
<g id="edge3" class="edge"><title>Node17&#45;&gt;Node18</title>
<path fill="none" stroke="midnightblue" d="M511.141,-11C520.656,-11 529.56,-11 536.916,-11"/>
<polygon fill="midnightblue" stroke="midnightblue" points="511.044,-7.5001 501.044,-11 511.044,-14.5001 511.044,-7.5001"/>
</g>
</g>
</svg>
