<?xml version="1.0" encoding="UTF-8" standalone="no"?>
<!DOCTYPE svg PUBLIC "-//W3C//DTD SVG 1.1//EN"
 "http://www.w3.org/Graphics/SVG/1.1/DTD/svg11.dtd">
<!-- Generated by graphviz version 2.38.0 (20140413.2041)
 -->
<!-- Title: eq_vars::dealloc_eq_1 Pages: 1 -->
<svg width="843pt" height="186pt"
 viewBox="0.00 0.00 843.00 186.00" xmlns="http://www.w3.org/2000/svg" xmlns:xlink="http://www.w3.org/1999/xlink">
<g id="graph0" class="graph" transform="scale(1 1) rotate(0) translate(4 182)">
<title>eq_vars::dealloc_eq_1</title>
<polygon fill="white" stroke="none" points="-4,4 -4,-182 839,-182 839,4 -4,4"/>
<!-- Node0 -->
<g id="node1" class="node"><title>Node0</title>
<polygon fill="#bfbfbf" stroke="black" points="0,-97.5 0,-118.5 143,-118.5 143,-97.5 0,-97.5"/>
<text text-anchor="middle" x="71.5" y="-104.9" font-family="Ubuntu Mono" font-size="12.00">eq_vars::dealloc_eq_1</text>
</g>
<!-- Node1 -->
<g id="node2" class="node"><title>Node1</title>
<g id="a_node2"><a xlink:href="namespacemessages.html#a82dddaab795b78b3d39e1ff1aab2f665" target="_top" xlink:title="messages::get_mem_usage">
<polygon fill="white" stroke="black" points="513,-116.5 513,-137.5 668,-137.5 668,-116.5 513,-116.5"/>
<text text-anchor="middle" x="590.5" y="-123.9" font-family="Ubuntu Mono" font-size="12.00">messages::get_mem_usage</text>
</a>
</g>
</g>
<!-- Node0&#45;&gt;Node1 -->
<g id="edge1" class="edge"><title>Node0&#45;&gt;Node1</title>
<path fill="none" stroke="midnightblue" d="M143.033,-110.592C236.533,-114.028 401.455,-120.089 502.555,-123.805"/>
<polygon fill="midnightblue" stroke="midnightblue" points="502.618,-127.309 512.74,-124.179 502.875,-120.314 502.618,-127.309"/>
</g>
<!-- Node2 -->
<g id="node3" class="node"><title>Node2</title>
<g id="a_node3"><a xlink:href="eq__vars_8f90.html#aeb2dafd97b9ec2443da5f6de043d56ff" target="_top" xlink:title="dealloc_eq_1_final">
<polygon fill="white" stroke="black" points="179,-78.5 179,-99.5 304,-99.5 304,-78.5 179,-78.5"/>
<text text-anchor="middle" x="241.5" y="-85.9" font-family="Ubuntu Mono" font-size="12.00">dealloc_eq_1_final</text>
</a>
</g>
</g>
<!-- Node0&#45;&gt;Node2 -->
<g id="edge2" class="edge"><title>Node0&#45;&gt;Node2</title>
<path fill="none" stroke="midnightblue" d="M143.26,-99.9974C151.676,-99.0456 160.273,-98.0733 168.703,-97.12"/>
<polygon fill="midnightblue" stroke="midnightblue" points="169.335,-100.571 178.878,-95.9691 168.548,-93.6152 169.335,-100.571"/>
</g>
<!-- Node4 -->
<g id="node5" class="node"><title>Node4</title>
<g id="a_node5"><a xlink:href="namespacemessages.html#aa4a8d01563e92558e8a0875b075ec54c" target="_top" xlink:title="messages::writo">
<polygon fill="white" stroke="black" points="355,-156.5 355,-177.5 462,-177.5 462,-156.5 355,-156.5"/>
<text text-anchor="middle" x="408.5" y="-163.9" font-family="Ubuntu Mono" font-size="12.00">messages::writo</text>
</a>
</g>
</g>
<!-- Node0&#45;&gt;Node4 -->
<g id="edge10" class="edge"><title>Node0&#45;&gt;Node4</title>
<path fill="none" stroke="midnightblue" d="M100.562,-118.659C121.8,-126.307 151.849,-136.241 179,-142 234.348,-153.739 298.474,-160.143 344.68,-163.521"/>
<polygon fill="midnightblue" stroke="midnightblue" points="344.624,-167.026 354.845,-164.237 345.116,-160.043 344.624,-167.026"/>
</g>
<!-- Node7 -->
<g id="node8" class="node"><title>Node7</title>
<g id="a_node8"><a xlink:href="namespacestr__utilities.html#a0b97e51770725a3e98ed393d26681414" target="_top" xlink:title="str_utilities::i2str">
<polygon fill="white" stroke="black" points="340,-0.5 340,-21.5 477,-21.5 477,-0.5 340,-0.5"/>
<text text-anchor="middle" x="408.5" y="-7.9" font-family="Ubuntu Mono" font-size="12.00">str_utilities::i2str</text>
</a>
</g>
</g>
<!-- Node0&#45;&gt;Node7 -->
<g id="edge11" class="edge"><title>Node0&#45;&gt;Node7</title>
<path fill="none" stroke="midnightblue" d="M98.9407,-97.4591C120.335,-89.1388 151.346,-77.5484 179,-69 236.559,-51.2073 303.472,-34.7001 349.952,-23.8827"/>
<polygon fill="midnightblue" stroke="midnightblue" points="350.888,-27.2587 359.842,-21.5951 349.311,-20.4388 350.888,-27.2587"/>
</g>
<!-- Node2&#45;&gt;Node1 -->
<g id="edge3" class="edge"><title>Node2&#45;&gt;Node1</title>
<path fill="none" stroke="midnightblue" d="M304.233,-95.4309C351.531,-100.395 418.403,-107.491 477,-114 485.357,-114.928 494.061,-115.909 502.764,-116.899"/>
<polygon fill="midnightblue" stroke="midnightblue" points="502.625,-120.406 512.958,-118.063 503.419,-113.451 502.625,-120.406"/>
</g>
<!-- Node3 -->
<g id="node4" class="node"><title>Node3</title>
<g id="a_node4"><a xlink:href="eq__vars_8f90.html#a0485e4116f0b0004f9a06ed86ac624aa" target="_top" xlink:title="dealloc_eq_2_final">
<polygon fill="white" stroke="black" points="346,-40.5 346,-61.5 471,-61.5 471,-40.5 346,-40.5"/>
<text text-anchor="middle" x="408.5" y="-47.9" font-family="Ubuntu Mono" font-size="12.00">dealloc_eq_2_final</text>
</a>
</g>
</g>
<!-- Node2&#45;&gt;Node3 -->
<g id="edge4" class="edge"><title>Node2&#45;&gt;Node3</title>
<path fill="none" stroke="midnightblue" d="M288.462,-78.4149C308.129,-73.8855 331.268,-68.5565 351.89,-63.8072"/>
<polygon fill="midnightblue" stroke="midnightblue" points="352.825,-67.1834 361.785,-61.5284 351.254,-60.362 352.825,-67.1834"/>
</g>
<!-- Node2&#45;&gt;Node4 -->
<g id="edge5" class="edge"><title>Node2&#45;&gt;Node4</title>
<path fill="none" stroke="midnightblue" d="M264.753,-99.5194C293.415,-113.069 343.409,-136.702 375.975,-152.098"/>
<polygon fill="midnightblue" stroke="midnightblue" points="374.536,-155.289 385.073,-156.398 377.528,-148.96 374.536,-155.289"/>
</g>
<!-- Node2&#45;&gt;Node7 -->
<g id="edge9" class="edge"><title>Node2&#45;&gt;Node7</title>
<path fill="none" stroke="midnightblue" d="M257.731,-78.3042C276.394,-65.5924 309.324,-44.4186 340,-31 345.109,-28.7652 350.541,-26.6917 356.019,-24.793"/>
<polygon fill="midnightblue" stroke="midnightblue" points="357.454,-28.006 365.867,-21.5671 355.275,-21.3537 357.454,-28.006"/>
</g>
<!-- Node4&#45;&gt;Node1 -->
<g id="edge6" class="edge"><title>Node4&#45;&gt;Node1</title>
<path fill="none" stroke="midnightblue" d="M456.793,-156.49C479.955,-151.343 508.029,-145.105 532.38,-139.693"/>
<polygon fill="midnightblue" stroke="midnightblue" points="533.208,-143.095 542.211,-137.509 531.69,-136.261 533.208,-143.095"/>
</g>
<!-- Node5 -->
<g id="node6" class="node"><title>Node5</title>
<g id="a_node6"><a xlink:href="messages_8f90.html#a6d15f28783f95a7a4b2a44185619792f" target="_top" xlink:title="format_str">
<polygon fill="white" stroke="black" points="552,-156.5 552,-177.5 629,-177.5 629,-156.5 552,-156.5"/>
<text text-anchor="middle" x="590.5" y="-163.9" font-family="Ubuntu Mono" font-size="12.00">format_str</text>
</a>
</g>
</g>
<!-- Node4&#45;&gt;Node5 -->
<g id="edge7" class="edge"><title>Node4&#45;&gt;Node5</title>
<path fill="none" stroke="midnightblue" d="M462.047,-167C487.198,-167 517.099,-167 541.615,-167"/>
<polygon fill="midnightblue" stroke="midnightblue" points="541.764,-170.5 551.764,-167 541.763,-163.5 541.764,-170.5"/>
</g>
<!-- Node6 -->
<g id="node7" class="node"><title>Node6</title>
<g id="a_node7"><a xlink:href="namespacemessages.html#a61fd0b51b5e37d58fdc993c01792a3fd" target="_top" xlink:title="messages::get_clock">
<polygon fill="white" stroke="black" points="704,-156.5 704,-177.5 835,-177.5 835,-156.5 704,-156.5"/>
<text text-anchor="middle" x="769.5" y="-163.9" font-family="Ubuntu Mono" font-size="12.00">messages::get_clock</text>
</a>
</g>
</g>
<!-- Node5&#45;&gt;Node6 -->
<g id="edge8" class="edge"><title>Node5&#45;&gt;Node6</title>
<path fill="none" stroke="midnightblue" d="M629.037,-167C647.869,-167 671.372,-167 693.685,-167"/>
<polygon fill="midnightblue" stroke="midnightblue" points="693.832,-170.5 703.832,-167 693.832,-163.5 693.832,-170.5"/>
</g>
</g>
</svg>
