<?xml version="1.0" encoding="UTF-8" standalone="no"?>
<!DOCTYPE svg PUBLIC "-//W3C//DTD SVG 1.1//EN"
 "http://www.w3.org/Graphics/SVG/1.1/DTD/svg11.dtd">
<!-- Generated by graphviz version 2.43.0 (0)
 -->
<!-- Title: num_utilities::shift_f Pages: 1 -->
<svg width="534pt" height="43pt"
 viewBox="0.00 0.00 534.00 43.00" xmlns="http://www.w3.org/2000/svg" xmlns:xlink="http://www.w3.org/1999/xlink">
<g id="graph0" class="graph" transform="scale(1 1) rotate(0) translate(4 39)">
<title>num_utilities::shift_f</title>
<polygon fill="white" stroke="transparent" points="-4,4 -4,-39 530,-39 530,4 -4,4"/>
<!-- Node1 -->
<g id="node1" class="node">
<title>Node1</title>
<g id="a_node1"><a xlink:title="Calculate multiplication through shifting of fourier modes A and B into C.">
<polygon fill="#bfbfbf" stroke="black" points="392,-7 392,-28 526,-28 526,-7 392,-7"/>
<text text-anchor="middle" x="459" y="-14.4" font-family="Ubuntu Mono" font-size="12.00">num_utilities::shift_f</text>
</a>
</g>
</g>
<!-- Node2 -->
<g id="node2" class="node">
<title>Node2</title>
<g id="a_node2"><a xlink:href="namespaceeq__ops.html#a9addef683b3d4a8c587510e4c994ec61" target="_top" xlink:title="Creates a VMEC input file.">
<polygon fill="white" stroke="black" points="213,-0.5 213,-34.5 356,-34.5 356,-0.5 213,-0.5"/>
<text text-anchor="start" x="221" y="-20.9" font-family="Ubuntu Mono" font-size="12.00">eq_ops::create_vmec</text>
<text text-anchor="middle" x="284.5" y="-7.9" font-family="Ubuntu Mono" font-size="12.00">_input</text>
</a>
</g>
</g>
<!-- Node1&#45;&gt;Node2 -->
<g id="edge1" class="edge">
<title>Node1&#45;&gt;Node2</title>
<path fill="none" stroke="midnightblue" d="M381.56,-17.5C373.09,-17.5 364.5,-17.5 356.11,-17.5"/>
<polygon fill="midnightblue" stroke="midnightblue" points="381.8,-21 391.8,-17.5 381.8,-14 381.8,-21"/>
</g>
<!-- Node3 -->
<g id="node3" class="node">
<title>Node3</title>
<g id="a_node3"><a xlink:href="interfaceeq__ops_1_1calc__eq.html#ae2f56ab19ce5c33e863f32e1c9263604" target="_top" xlink:title="metric version">
<polygon fill="white" stroke="black" points="0,-7 0,-28 177,-28 177,-7 0,-7"/>
<text text-anchor="middle" x="88.5" y="-14.4" font-family="Ubuntu Mono" font-size="12.00">eq_ops::calc_eq::calc_eq_2</text>
</a>
</g>
</g>
<!-- Node2&#45;&gt;Node3 -->
<g id="edge2" class="edge">
<title>Node2&#45;&gt;Node3</title>
<path fill="none" stroke="midnightblue" d="M202.74,-17.5C194.32,-17.5 185.73,-17.5 177.24,-17.5"/>
<polygon fill="midnightblue" stroke="midnightblue" points="202.91,-21 212.91,-17.5 202.91,-14 202.91,-21"/>
</g>
</g>
</svg>
