<?xml version="1.0" encoding="UTF-8" standalone="no"?>
<!DOCTYPE svg PUBLIC "-//W3C//DTD SVG 1.1//EN"
 "http://www.w3.org/Graphics/SVG/1.1/DTD/svg11.dtd">
<!-- Generated by graphviz version 2.43.0 (0)
 -->
<!-- Title: grid_utilities::calc_int_vol Pages: 1 -->
<svg width="777pt" height="115pt"
 viewBox="0.00 0.00 777.00 114.50" xmlns="http://www.w3.org/2000/svg" xmlns:xlink="http://www.w3.org/1999/xlink">
<g id="graph0" class="graph" transform="scale(1 1) rotate(0) translate(4 110.5)">
<title>grid_utilities::calc_int_vol</title>
<polygon fill="white" stroke="transparent" points="-4,4 -4,-110.5 773,-110.5 773,4 -4,4"/>
<!-- Node1 -->
<g id="node1" class="node">
<title>Node1</title>
<g id="a_node1"><a xlink:title="Calculates volume integral on a 3D grid.">
<polygon fill="#bfbfbf" stroke="black" points="650,-48 650,-82 769,-82 769,-48 650,-48"/>
<text text-anchor="start" x="658" y="-68.4" font-family="Ubuntu Mono" font-size="12.00">grid_utilities::calc</text>
<text text-anchor="middle" x="709.5" y="-55.4" font-family="Ubuntu Mono" font-size="12.00">_int_vol</text>
</a>
</g>
</g>
<!-- Node2 -->
<g id="node2" class="node">
<title>Node2</title>
<g id="a_node2"><a xlink:href="namespacesol__ops.html#ae094c2a5235324b4aadb53623978d191" target="_top" xlink:title="Calculate the energy terms in the energy decomposition.">
<polygon fill="white" stroke="black" points="490,-76.5 490,-97.5 595,-97.5 595,-76.5 490,-76.5"/>
<text text-anchor="middle" x="542.5" y="-83.9" font-family="Ubuntu Mono" font-size="12.00">sol_ops::calc_e</text>
</a>
</g>
</g>
<!-- Node1&#45;&gt;Node2 -->
<g id="edge1" class="edge">
<title>Node1&#45;&gt;Node2</title>
<path fill="none" stroke="midnightblue" d="M639.66,-74.18C624.74,-76.17 609.21,-78.24 595.1,-80.12"/>
<polygon fill="midnightblue" stroke="midnightblue" points="640.41,-77.61 649.86,-72.82 639.49,-70.67 640.41,-77.61"/>
</g>
<!-- Node6 -->
<g id="node6" class="node">
<title>Node6</title>
<g id="a_node6"><a xlink:href="namespacetest.html#a0d4cb791bf762b2e52260fea7644a3ee" target="_top" xlink:title="Tests calculation of volume integral.">
<polygon fill="white" stroke="black" points="471,-34.5 471,-55.5 614,-55.5 614,-34.5 471,-34.5"/>
<text text-anchor="middle" x="542.5" y="-41.9" font-family="Ubuntu Mono" font-size="12.00">test::test_calc_int_vol</text>
</a>
</g>
</g>
<!-- Node1&#45;&gt;Node6 -->
<g id="edge5" class="edge">
<title>Node1&#45;&gt;Node6</title>
<path fill="none" stroke="midnightblue" d="M639.67,-56.66C631.22,-55.63 622.57,-54.58 614.09,-53.56"/>
<polygon fill="midnightblue" stroke="midnightblue" points="639.51,-60.16 649.86,-57.89 640.36,-53.21 639.51,-60.16"/>
</g>
<!-- Node3 -->
<g id="node3" class="node">
<title>Node3</title>
<g id="a_node3"><a xlink:href="namespacesol__ops.html#aee487ffbe5d0edff5e37a6500748941c" target="_top" xlink:title="Decomposes the plasma potential and kinetic energy in its individual terms for an individual Eigenval...">
<polygon fill="white" stroke="black" points="298,-72 298,-106 435,-106 435,-72 298,-72"/>
<text text-anchor="start" x="306" y="-92.4" font-family="Ubuntu Mono" font-size="12.00">sol_ops::decompose</text>
<text text-anchor="middle" x="366.5" y="-79.4" font-family="Ubuntu Mono" font-size="12.00">_energy</text>
</a>
</g>
</g>
<!-- Node2&#45;&gt;Node3 -->
<g id="edge2" class="edge">
<title>Node2&#45;&gt;Node3</title>
<path fill="none" stroke="midnightblue" d="M479.5,-87.71C465.13,-87.88 449.77,-88.05 435.17,-88.22"/>
<polygon fill="midnightblue" stroke="midnightblue" points="479.81,-91.21 489.77,-87.59 479.73,-84.21 479.81,-91.21"/>
</g>
<!-- Node4 -->
<g id="node4" class="node">
<title>Node4</title>
<g id="a_node4"><a xlink:href="namespacedriver__post.html#a33b3c6f9018a0ddc92dce77394b8ab37" target="_top" xlink:title="The main driver routine for postprocessing.">
<polygon fill="white" stroke="black" points="78,-78.5 78,-99.5 262,-99.5 262,-78.5 78,-78.5"/>
<text text-anchor="middle" x="170" y="-85.9" font-family="Ubuntu Mono" font-size="12.00">driver_post::run_driver_post</text>
</a>
</g>
</g>
<!-- Node3&#45;&gt;Node4 -->
<g id="edge3" class="edge">
<title>Node3&#45;&gt;Node4</title>
<path fill="none" stroke="midnightblue" d="M287.63,-89C279.24,-89 270.65,-89 262.12,-89"/>
<polygon fill="midnightblue" stroke="midnightblue" points="287.75,-92.5 297.75,-89 287.75,-85.5 287.75,-92.5"/>
</g>
<!-- Node5 -->
<g id="node5" class="node">
<title>Node5</title>
<g id="a_node5"><a xlink:href="POST_8f90.html#ac289b64ac4671fea0b4f2298ba1188a1" target="_top" xlink:title="Peeling Ballooning in 3D: postprocessing.">
<polygon fill="white" stroke="black" points="0,-58.5 0,-79.5 42,-79.5 42,-58.5 0,-58.5"/>
<text text-anchor="middle" x="21" y="-65.9" font-family="Ubuntu Mono" font-size="12.00">post</text>
</a>
</g>
</g>
<!-- Node4&#45;&gt;Node5 -->
<g id="edge4" class="edge">
<title>Node4&#45;&gt;Node5</title>
<path fill="none" stroke="midnightblue" d="M81.34,-77.07C66.62,-75.07 52.69,-73.18 42.03,-71.73"/>
<polygon fill="midnightblue" stroke="midnightblue" points="81.25,-80.59 91.63,-78.47 82.19,-73.66 81.25,-80.59"/>
</g>
<!-- Node7 -->
<g id="node7" class="node">
<title>Node7</title>
<g id="a_node7"><a xlink:href="namespacetest.html#aca21ee464c0b1f4b617177afdde110ec" target="_top" xlink:title="Performs generic tests.">
<polygon fill="white" stroke="black" points="303.5,-31.5 303.5,-52.5 429.5,-52.5 429.5,-31.5 303.5,-31.5"/>
<text text-anchor="middle" x="366.5" y="-38.9" font-family="Ubuntu Mono" font-size="12.00">test::generic_tests</text>
</a>
</g>
</g>
<!-- Node6&#45;&gt;Node7 -->
<g id="edge6" class="edge">
<title>Node6&#45;&gt;Node7</title>
<path fill="none" stroke="midnightblue" d="M460.97,-43.61C450.48,-43.43 439.86,-43.25 429.73,-43.07"/>
<polygon fill="midnightblue" stroke="midnightblue" points="460.92,-47.11 470.98,-43.78 461.04,-40.11 460.92,-47.11"/>
</g>
<!-- Node7&#45;&gt;Node5 -->
<g id="edge8" class="edge">
<title>Node7&#45;&gt;Node5</title>
<path fill="none" stroke="midnightblue" d="M292.84,-47.71C213.24,-53.97 90.46,-63.62 42.34,-67.4"/>
<polygon fill="midnightblue" stroke="midnightblue" points="293.6,-51.16 303.29,-46.89 293.05,-44.18 293.6,-51.16"/>
</g>
<!-- Node8 -->
<g id="node8" class="node">
<title>Node8</title>
<g id="a_node8"><a xlink:href="PB3D_8f90.html#afaee01f014ab3398eecac996b2795fd2" target="_top" xlink:title="Peeling Ballooning in 3D.">
<polygon fill="white" stroke="black" points="146.5,-0.5 146.5,-21.5 193.5,-21.5 193.5,-0.5 146.5,-0.5"/>
<text text-anchor="middle" x="170" y="-7.9" font-family="Ubuntu Mono" font-size="12.00">pb3d</text>
</a>
</g>
</g>
<!-- Node7&#45;&gt;Node8 -->
<g id="edge7" class="edge">
<title>Node7&#45;&gt;Node8</title>
<path fill="none" stroke="midnightblue" d="M293.18,-30.47C258.07,-24.88 218.31,-18.54 193.94,-14.66"/>
<polygon fill="midnightblue" stroke="midnightblue" points="293,-33.99 303.42,-32.11 294.1,-27.08 293,-33.99"/>
</g>
</g>
</svg>
