<?xml version="1.0" encoding="UTF-8" standalone="no"?>
<!DOCTYPE svg PUBLIC "-//W3C//DTD SVG 1.1//EN"
 "http://www.w3.org/Graphics/SVG/1.1/DTD/svg11.dtd">
<!-- Generated by graphviz version 2.38.0 (20140413.2041)
 -->
<!-- Title: eq_ops::b_plot Pages: 1 -->
<svg width="1195pt" height="497pt"
 viewBox="0.00 0.00 1195.00 496.99" xmlns="http://www.w3.org/2000/svg" xmlns:xlink="http://www.w3.org/1999/xlink">
<g id="graph0" class="graph" transform="scale(1 1) rotate(0) translate(4 492.987)">
<title>eq_ops::b_plot</title>
<polygon fill="white" stroke="none" points="-4,4 -4,-492.987 1191,-492.987 1191,4 -4,4"/>
<!-- Node0 -->
<g id="node1" class="node"><title>Node0</title>
<polygon fill="#bfbfbf" stroke="black" points="0,-260.487 0,-281.487 101,-281.487 101,-260.487 0,-260.487"/>
<text text-anchor="middle" x="50.5" y="-267.887" font-family="Ubuntu Mono" font-size="12.00">eq_ops::b_plot</text>
</g>
<!-- Node1 -->
<g id="node2" class="node"><title>Node1</title>
<g id="a_node2"><a xlink:href="namespacegrid__utilities.html#ad3d9386b9abcb1a7e17369a1b3a3750d" target="_top" xlink:title="Calculates contra&#45; and covariant components of a vector in multiple coordinate systems. ">
<polygon fill="white" stroke="black" points="137,-253.987 137,-287.987 274,-287.987 274,-253.987 137,-253.987"/>
<text text-anchor="start" x="145" y="-274.387" font-family="Ubuntu Mono" font-size="12.00">grid_utilities::calc</text>
<text text-anchor="middle" x="205.5" y="-261.387" font-family="Ubuntu Mono" font-size="12.00">_vec_comp</text>
</a>
</g>
</g>
<!-- Node0&#45;&gt;Node1 -->
<g id="edge1" class="edge"><title>Node0&#45;&gt;Node1</title>
<path fill="none" stroke="midnightblue" d="M101.175,-270.987C109.39,-270.987 118.079,-270.987 126.788,-270.987"/>
<polygon fill="midnightblue" stroke="midnightblue" points="126.994,-274.487 136.994,-270.987 126.994,-267.487 126.994,-274.487"/>
</g>
<!-- Node2 -->
<g id="node3" class="node"><title>Node2</title>
<g id="a_node3"><a xlink:href="namespacenum__utilities.html#a5ee3fbd1fe67d0deefc7194631389f2a" target="_top" xlink:title="Convert 2&#45;D coordinates (i,j) to the storage convention used in matrices. ">
<polygon fill="white" stroke="black" points="337,-467.487 337,-488.487 450,-488.487 450,-467.487 337,-467.487"/>
<text text-anchor="middle" x="393.5" y="-474.887" font-family="Ubuntu Mono" font-size="12.00">num_utilities::c</text>
</a>
</g>
</g>
<!-- Node0&#45;&gt;Node2 -->
<g id="edge27" class="edge"><title>Node0&#45;&gt;Node2</title>
<path fill="none" stroke="midnightblue" d="M63.5053,-281.61C98.8235,-312.357 206.407,-402.455 310,-452.987 318.979,-457.367 328.884,-461.162 338.622,-464.381"/>
<polygon fill="midnightblue" stroke="midnightblue" points="337.675,-467.752 348.264,-467.406 339.771,-461.073 337.675,-467.752"/>
</g>
<!-- Node7 -->
<g id="node8" class="node"><title>Node7</title>
<g id="a_node8"><a xlink:href="namespacestr__utilities.html#a0b97e51770725a3e98ed393d26681414" target="_top" xlink:title="Convert an integer to string. ">
<polygon fill="white" stroke="black" points="716,-88.4873 716,-109.487 853,-109.487 853,-88.4873 716,-88.4873"/>
<text text-anchor="middle" x="784.5" y="-95.8873" font-family="Ubuntu Mono" font-size="12.00">str_utilities::i2str</text>
</a>
</g>
</g>
<!-- Node0&#45;&gt;Node7 -->
<g id="edge28" class="edge"><title>Node0&#45;&gt;Node7</title>
<path fill="none" stroke="midnightblue" d="M61.0628,-260.275C92.6776,-225.611 198.199,-115.798 310,-64.9873 460.455,3.3909 522.148,20.9513 680,-27.9873 713.691,-38.4324 746.158,-64.0563 765.477,-81.4869"/>
<polygon fill="midnightblue" stroke="midnightblue" points="763.205,-84.1535 772.918,-88.3874 767.966,-79.021 763.205,-84.1535"/>
</g>
<!-- Node1&#45;&gt;Node2 -->
<g id="edge2" class="edge"><title>Node1&#45;&gt;Node2</title>
<path fill="none" stroke="midnightblue" d="M216.02,-288.116C240.923,-332.868 306.326,-450.052 310,-452.987 315.264,-457.192 321.228,-460.691 327.482,-463.602"/>
<polygon fill="midnightblue" stroke="midnightblue" points="326.228,-466.871 336.806,-467.461 328.905,-460.403 326.228,-466.871"/>
</g>
<!-- Node3 -->
<g id="node4" class="node"><title>Node3</title>
<g id="a_node4"><a xlink:href="namespacevmec__utilities.html#ac699116fc25fdea3e28e488513d97c87" target="_top" xlink:title="Calculate the trigonometric cosine and sine factors. ">
<polygon fill="white" stroke="black" points="528,-37.9873 528,-71.9873 665,-71.9873 665,-37.9873 528,-37.9873"/>
<text text-anchor="start" x="536" y="-58.3873" font-family="Ubuntu Mono" font-size="12.00">vmec_utilities::calc</text>
<text text-anchor="middle" x="596.5" y="-45.3873" font-family="Ubuntu Mono" font-size="12.00">_trigon_factors</text>
</a>
</g>
</g>
<!-- Node1&#45;&gt;Node3 -->
<g id="edge3" class="edge"><title>Node1&#45;&gt;Node3</title>
<path fill="none" stroke="midnightblue" d="M214.261,-253.562C228.632,-223.359 262.325,-161.413 310,-128.987 372.164,-86.7058 456.936,-68.5824 517.933,-60.8142"/>
<polygon fill="midnightblue" stroke="midnightblue" points="518.384,-64.2854 527.892,-59.6108 517.544,-57.3359 518.384,-64.2854"/>
</g>
<!-- Node4 -->
<g id="node5" class="node"><title>Node4</title>
<g id="a_node5"><a xlink:href="namespacemessages.html#aa4a8d01563e92558e8a0875b075ec54c" target="_top" xlink:title="Write output to file identified by output_i. ">
<polygon fill="white" stroke="black" points="889,-281.487 889,-302.487 996,-302.487 996,-281.487 889,-281.487"/>
<text text-anchor="middle" x="942.5" y="-288.887" font-family="Ubuntu Mono" font-size="12.00">messages::writo</text>
</a>
</g>
</g>
<!-- Node1&#45;&gt;Node4 -->
<g id="edge8" class="edge"><title>Node1&#45;&gt;Node4</title>
<path fill="none" stroke="midnightblue" d="M222.656,-288.287C241.65,-307.505 275.044,-337.935 310,-353.987 393.415,-392.292 421.603,-383.507 513,-391.987 663.592,-405.961 715.272,-440.472 853,-377.987 885.461,-363.26 913.11,-331.35 928.49,-310.813"/>
<polygon fill="midnightblue" stroke="midnightblue" points="931.455,-312.686 934.488,-302.535 925.786,-308.579 931.455,-312.686"/>
</g>
<!-- Node8 -->
<g id="node9" class="node"><title>Node8</title>
<g id="a_node9"><a xlink:href="namespacemessages.html#a6e6bfb084063e4cc91ee86e542043302" target="_top" xlink:title="Increases/decreases lvl of output. ">
<polygon fill="white" stroke="black" points="728,-347.487 728,-368.487 841,-368.487 841,-347.487 728,-347.487"/>
<text text-anchor="middle" x="784.5" y="-354.887" font-family="Ubuntu Mono" font-size="12.00">messages::lvl_ud</text>
</a>
</g>
</g>
<!-- Node1&#45;&gt;Node8 -->
<g id="edge9" class="edge"><title>Node1&#45;&gt;Node8</title>
<path fill="none" stroke="midnightblue" d="M248.56,-287.987C267.265,-295.354 289.623,-303.897 310,-310.987 399.22,-342.032 419.6,-359.827 513,-373.987 586.384,-385.113 605.996,-379.674 680,-373.987 692.302,-373.042 705.355,-371.474 717.895,-369.679"/>
<polygon fill="midnightblue" stroke="midnightblue" points="718.445,-373.136 727.819,-368.199 717.412,-366.212 718.445,-373.136"/>
</g>
<!-- Node9 -->
<g id="node10" class="node"><title>Node9</title>
<g id="a_node10"><a xlink:href="namespacegrid__utilities.html#a67001ff9bbcad707aacf17f90a748d90" target="_top" xlink:title="Trim a grid, removing any overlap between the different regions. ">
<polygon fill="white" stroke="black" points="310,-280.487 310,-301.487 477,-301.487 477,-280.487 310,-280.487"/>
<text text-anchor="middle" x="393.5" y="-287.887" font-family="Ubuntu Mono" font-size="12.00">grid_utilities::trim_grid</text>
</a>
</g>
</g>
<!-- Node1&#45;&gt;Node9 -->
<g id="edge11" class="edge"><title>Node1&#45;&gt;Node9</title>
<path fill="none" stroke="midnightblue" d="M274.176,-278.264C282.538,-279.163 291.195,-280.094 299.849,-281.025"/>
<polygon fill="midnightblue" stroke="midnightblue" points="299.67,-284.526 309.987,-282.115 300.418,-277.566 299.67,-284.526"/>
</g>
<!-- Node10 -->
<g id="node11" class="node"><title>Node10</title>
<g id="a_node11"><a xlink:href="namespacegrid__utilities.html#ad059876fabae2c8445e5d3971ba28742" target="_top" xlink:title="Set up the factors for the interpolation calculation in a matrix A using a polynomial order ord...">
<polygon fill="white" stroke="black" points="525,-129.987 525,-163.987 668,-163.987 668,-129.987 525,-129.987"/>
<text text-anchor="start" x="533" y="-150.387" font-family="Ubuntu Mono" font-size="12.00">grid_utilities::setup</text>
<text text-anchor="middle" x="596.5" y="-137.387" font-family="Ubuntu Mono" font-size="12.00">_interp_data</text>
</a>
</g>
</g>
<!-- Node1&#45;&gt;Node10 -->
<g id="edge12" class="edge"><title>Node1&#45;&gt;Node10</title>
<path fill="none" stroke="midnightblue" d="M248.508,-253.837C267.204,-246.442 289.568,-237.919 310,-230.987 383.25,-206.135 402.797,-203.831 477,-181.987 493.6,-177.1 511.505,-171.818 528.244,-166.875"/>
<polygon fill="midnightblue" stroke="midnightblue" points="529.347,-170.198 537.946,-164.009 527.364,-163.485 529.347,-170.198"/>
</g>
<!-- Node12 -->
<g id="node13" class="node"><title>Node12</title>
<g id="a_node13"><a xlink:href="namespacegrid__utilities.html#a39e7cd9b8f173994358dbdd6b57827e1" target="_top" xlink:title="Calculates , &#160;and &#160;on a grid grid_XYZ, determined through its E(quilibrium) coordinates. ">
<polygon fill="white" stroke="black" points="325,-138.987 325,-172.987 462,-172.987 462,-138.987 325,-138.987"/>
<text text-anchor="start" x="333" y="-159.387" font-family="Ubuntu Mono" font-size="12.00">grid_utilities::calc</text>
<text text-anchor="middle" x="393.5" y="-146.387" font-family="Ubuntu Mono" font-size="12.00">_xyz_grid</text>
</a>
</g>
</g>
<!-- Node1&#45;&gt;Node12 -->
<g id="edge16" class="edge"><title>Node1&#45;&gt;Node12</title>
<path fill="none" stroke="midnightblue" d="M228.888,-253.783C249.437,-238.338 281.001,-215.472 310,-197.987 321.736,-190.911 334.806,-183.889 347.02,-177.671"/>
<polygon fill="midnightblue" stroke="midnightblue" points="348.79,-180.699 356.157,-173.084 345.649,-174.443 348.79,-180.699"/>
</g>
<!-- Node13 -->
<g id="node14" class="node"><title>Node13</title>
<g id="a_node14"><a xlink:href="namespaceoutput__ops.html#a50bfbb88cc91805469353c3ff47b3e2e" target="_top" xlink:title="Use external program to draw a plot. ">
<polygon fill="white" stroke="black" points="328,-240.487 328,-261.487 459,-261.487 459,-240.487 328,-240.487"/>
<text text-anchor="middle" x="393.5" y="-247.887" font-family="Ubuntu Mono" font-size="12.00">output_ops::draw_ex</text>
</a>
</g>
</g>
<!-- Node1&#45;&gt;Node13 -->
<g id="edge18" class="edge"><title>Node1&#45;&gt;Node13</title>
<path fill="none" stroke="midnightblue" d="M274.176,-263.71C288.302,-262.191 303.271,-260.582 317.64,-259.037"/>
<polygon fill="midnightblue" stroke="midnightblue" points="318.407,-262.475 327.975,-257.925 317.658,-255.515 318.407,-262.475"/>
</g>
<!-- Node3&#45;&gt;Node4 -->
<g id="edge4" class="edge"><title>Node3&#45;&gt;Node4</title>
<path fill="none" stroke="midnightblue" d="M665.252,-43.4973C720.998,-37.9093 799.3,-39.3938 853,-78.9873 916.746,-125.988 934.818,-227.503 939.741,-271.243"/>
<polygon fill="midnightblue" stroke="midnightblue" points="936.267,-271.678 940.749,-281.279 943.232,-270.979 936.267,-271.678"/>
</g>
<!-- Node3&#45;&gt;Node7 -->
<g id="edge7" class="edge"><title>Node3&#45;&gt;Node7</title>
<path fill="none" stroke="midnightblue" d="M665.176,-70.9968C686.236,-75.9786 709.171,-81.404 729.193,-86.1405"/>
<polygon fill="midnightblue" stroke="midnightblue" points="728.532,-89.5807 739.069,-88.4768 730.144,-82.7687 728.532,-89.5807"/>
</g>
<!-- Node5 -->
<g id="node6" class="node"><title>Node5</title>
<g id="a_node6"><a xlink:href="namespacemessages.html#a82dddaab795b78b3d39e1ff1aab2f665" target="_top" xlink:title="Returns the memory usage in kilobytes. ">
<polygon fill="white" stroke="black" points="1032,-301.487 1032,-322.487 1187,-322.487 1187,-301.487 1032,-301.487"/>
<text text-anchor="middle" x="1109.5" y="-308.887" font-family="Ubuntu Mono" font-size="12.00">messages::get_mem_usage</text>
</a>
</g>
</g>
<!-- Node4&#45;&gt;Node5 -->
<g id="edge5" class="edge"><title>Node4&#45;&gt;Node5</title>
<path fill="none" stroke="midnightblue" d="M996.161,-298.37C1004.45,-299.375 1013.21,-300.437 1022.03,-301.505"/>
<polygon fill="midnightblue" stroke="midnightblue" points="1021.64,-304.984 1031.98,-302.713 1022.48,-298.035 1021.64,-304.984"/>
</g>
<!-- Node6 -->
<g id="node7" class="node"><title>Node6</title>
<g id="a_node7"><a xlink:href="namespacemessages.html#a61fd0b51b5e37d58fdc993c01792a3fd" target="_top" xlink:title="Returns the time. ">
<polygon fill="white" stroke="black" points="1044,-261.487 1044,-282.487 1175,-282.487 1175,-261.487 1044,-261.487"/>
<text text-anchor="middle" x="1109.5" y="-268.887" font-family="Ubuntu Mono" font-size="12.00">messages::get_clock</text>
</a>
</g>
</g>
<!-- Node4&#45;&gt;Node6 -->
<g id="edge6" class="edge"><title>Node4&#45;&gt;Node6</title>
<path fill="none" stroke="midnightblue" d="M996.161,-285.604C1008.14,-284.152 1021.09,-282.582 1033.8,-281.042"/>
<polygon fill="midnightblue" stroke="midnightblue" points="1034.4,-284.495 1043.91,-279.817 1033.56,-277.545 1034.4,-284.495"/>
</g>
<!-- Node8&#45;&gt;Node4 -->
<g id="edge10" class="edge"><title>Node8&#45;&gt;Node4</title>
<path fill="none" stroke="midnightblue" d="M810.564,-347.383C836.719,-336.318 877.909,-318.891 907.098,-306.542"/>
<polygon fill="midnightblue" stroke="midnightblue" points="908.652,-309.685 916.498,-302.565 905.925,-303.238 908.652,-309.685"/>
</g>
<!-- Node10&#45;&gt;Node4 -->
<g id="edge13" class="edge"><title>Node10&#45;&gt;Node4</title>
<path fill="none" stroke="midnightblue" d="M668.278,-138.223C722.335,-134.953 796.845,-138.096 853,-169.987 893.934,-193.235 921.042,-244.06 933.541,-272.22"/>
<polygon fill="midnightblue" stroke="midnightblue" points="930.344,-273.648 937.483,-281.477 936.785,-270.905 930.344,-273.648"/>
</g>
<!-- Node10&#45;&gt;Node7 -->
<g id="edge14" class="edge"><title>Node10&#45;&gt;Node7</title>
<path fill="none" stroke="midnightblue" d="M663.6,-129.929C686.406,-124.044 711.573,-117.549 732.937,-112.036"/>
<polygon fill="midnightblue" stroke="midnightblue" points="733.969,-115.384 742.777,-109.497 732.219,-108.606 733.969,-115.384"/>
</g>
<!-- Node11 -->
<g id="node12" class="node"><title>Node11</title>
<g id="a_node12"><a xlink:href="namespacestr__utilities.html#a92ac6c0af1979df094de1caddd28ade0" target="_top" xlink:title="Convert a real (double) to string. ">
<polygon fill="white" stroke="black" points="716,-179.487 716,-200.487 853,-200.487 853,-179.487 716,-179.487"/>
<text text-anchor="middle" x="784.5" y="-186.887" font-family="Ubuntu Mono" font-size="12.00">str_utilities::r2str</text>
</a>
</g>
</g>
<!-- Node10&#45;&gt;Node11 -->
<g id="edge15" class="edge"><title>Node10&#45;&gt;Node11</title>
<path fill="none" stroke="midnightblue" d="M668.084,-163.305C687.946,-167.897 709.258,-172.824 728.096,-177.179"/>
<polygon fill="midnightblue" stroke="midnightblue" points="727.459,-180.624 737.99,-179.466 729.035,-173.804 727.459,-180.624"/>
</g>
<!-- Node12&#45;&gt;Node10 -->
<g id="edge17" class="edge"><title>Node12&#45;&gt;Node10</title>
<path fill="none" stroke="midnightblue" d="M462.269,-152.953C479.132,-152.198 497.375,-151.381 514.793,-150.601"/>
<polygon fill="midnightblue" stroke="midnightblue" points="515.102,-154.091 524.936,-150.147 514.789,-147.098 515.102,-154.091"/>
</g>
<!-- Node13&#45;&gt;Node4 -->
<g id="edge20" class="edge"><title>Node13&#45;&gt;Node4</title>
<path fill="none" stroke="midnightblue" d="M459.126,-255.831C565.007,-263.768 774.099,-279.44 878.748,-287.284"/>
<polygon fill="midnightblue" stroke="midnightblue" points="878.614,-290.783 888.847,-288.041 879.137,-283.803 878.614,-290.783"/>
</g>
<!-- Node13&#45;&gt;Node7 -->
<g id="edge19" class="edge"><title>Node13&#45;&gt;Node7</title>
<path fill="none" stroke="midnightblue" d="M410.196,-240.413C427.922,-227.931 456.908,-205.833 477,-181.987 497.531,-157.62 486.022,-136.943 513,-119.987 572.537,-82.5692 654.623,-81.6506 712.713,-87.3865"/>
<polygon fill="midnightblue" stroke="midnightblue" points="712.59,-90.8934 722.907,-88.4852 713.34,-83.9337 712.59,-90.8934"/>
</g>
<!-- Node13&#45;&gt;Node8 -->
<g id="edge25" class="edge"><title>Node13&#45;&gt;Node8</title>
<path fill="none" stroke="midnightblue" d="M459.26,-260.757C465.636,-263.413 471.697,-266.764 477,-270.987 504.987,-293.274 483.099,-323.343 513,-342.987 576.782,-384.892 668.379,-379.702 726.908,-370.283"/>
<polygon fill="midnightblue" stroke="midnightblue" points="727.81,-373.68 737.08,-368.55 726.634,-366.779 727.81,-373.68"/>
</g>
<!-- Node13&#45;&gt;Node11 -->
<g id="edge26" class="edge"><title>Node13&#45;&gt;Node11</title>
<path fill="none" stroke="midnightblue" d="M431.656,-240.387C445.914,-236.147 462.288,-231.069 477,-225.987 493.227,-220.383 496.269,-215.835 513,-211.987 576.845,-197.306 651.131,-192.083 705.684,-190.374"/>
<polygon fill="midnightblue" stroke="midnightblue" points="706.079,-193.865 715.977,-190.086 705.883,-186.867 706.079,-193.865"/>
</g>
<!-- Node14 -->
<g id="node15" class="node"><title>Node14</title>
<g id="a_node15"><a xlink:href="namespacefiles__utilities.html#ac6066df405564ba2f5e3c4bba726c1f8" target="_top" xlink:title="Search for available new unit. ">
<polygon fill="white" stroke="black" points="513,-221.487 513,-242.487 680,-242.487 680,-221.487 513,-221.487"/>
<text text-anchor="middle" x="596.5" y="-228.887" font-family="Ubuntu Mono" font-size="12.00">files_utilities::nextunit</text>
</a>
</g>
</g>
<!-- Node13&#45;&gt;Node14 -->
<g id="edge21" class="edge"><title>Node13&#45;&gt;Node14</title>
<path fill="none" stroke="midnightblue" d="M459.204,-244.871C473.098,-243.558 488.041,-242.145 502.761,-240.754"/>
<polygon fill="midnightblue" stroke="midnightblue" points="503.274,-244.221 512.9,-239.795 502.615,-237.252 503.274,-244.221"/>
</g>
<!-- Node15 -->
<g id="node16" class="node"><title>Node15</title>
<g id="a_node16"><a xlink:href="namespaceoutput__ops.html#aa9e4855511b6ea16a08b3efb587bec51" target="_top" xlink:title="Executes command line, or displays a message if disabled. ">
<polygon fill="white" stroke="black" points="519,-299.987 519,-333.987 674,-333.987 674,-299.987 519,-299.987"/>
<text text-anchor="start" x="527" y="-320.387" font-family="Ubuntu Mono" font-size="12.00">output_ops::use_execute</text>
<text text-anchor="middle" x="596.5" y="-307.387" font-family="Ubuntu Mono" font-size="12.00">_command_line</text>
</a>
</g>
</g>
<!-- Node13&#45;&gt;Node15 -->
<g id="edge22" class="edge"><title>Node13&#45;&gt;Node15</title>
<path fill="none" stroke="midnightblue" d="M442.784,-261.552C454.09,-264.34 466.033,-267.542 477,-270.987 493.378,-276.132 496.997,-278.772 513,-284.987 522.344,-288.616 532.285,-292.474 541.91,-296.209"/>
<polygon fill="midnightblue" stroke="midnightblue" points="540.808,-299.535 551.397,-299.889 543.34,-293.009 540.808,-299.535"/>
</g>
<!-- Node15&#45;&gt;Node4 -->
<g id="edge23" class="edge"><title>Node15&#45;&gt;Node4</title>
<path fill="none" stroke="midnightblue" d="M674.272,-311.408C735.916,-306.928 821.391,-300.716 878.927,-296.535"/>
<polygon fill="midnightblue" stroke="midnightblue" points="879.257,-300.02 888.977,-295.804 878.75,-293.038 879.257,-300.02"/>
</g>
<!-- Node15&#45;&gt;Node8 -->
<g id="edge24" class="edge"><title>Node15&#45;&gt;Node8</title>
<path fill="none" stroke="midnightblue" d="M674.227,-333.9C691.464,-337.7 709.471,-341.669 725.779,-345.264"/>
<polygon fill="midnightblue" stroke="midnightblue" points="725.172,-348.714 735.691,-347.449 726.679,-341.878 725.172,-348.714"/>
</g>
</g>
</svg>
