<?xml version="1.0" encoding="UTF-8" standalone="no"?>
<!DOCTYPE svg PUBLIC "-//W3C//DTD SVG 1.1//EN"
 "http://www.w3.org/Graphics/SVG/1.1/DTD/svg11.dtd">
<!-- Generated by graphviz version 2.43.0 (0)
 -->
<!-- Title: eq_ops::b_plot Pages: 1 -->
<svg width="1020pt" height="327pt"
 viewBox="0.00 0.00 1020.00 326.90" xmlns="http://www.w3.org/2000/svg" xmlns:xlink="http://www.w3.org/1999/xlink">
<g id="graph0" class="graph" transform="scale(1 1) rotate(0) translate(4 322.9)">
<title>eq_ops::b_plot</title>
<polygon fill="white" stroke="transparent" points="-4,4 -4,-322.9 1016,-322.9 1016,4 -4,4"/>
<!-- Node1 -->
<g id="node1" class="node">
<title>Node1</title>
<g id="a_node1"><a xlink:title="Plots the magnetic fields.">
<polygon fill="#bfbfbf" stroke="black" points="0,-269.4 0,-290.4 102,-290.4 102,-269.4 0,-269.4"/>
<text text-anchor="middle" x="51" y="-276.8" font-family="Ubuntu Mono" font-size="12.00">eq_ops::b_plot</text>
</a>
</g>
</g>
<!-- Node2 -->
<g id="node2" class="node">
<title>Node2</title>
<g id="a_node2"><a xlink:href="namespacenum__utilities.html#a5ee3fbd1fe67d0deefc7194631389f2a" target="_top" xlink:title="Convert 2&#45;D coordinates (i,j) to the storage convention used in matrices.">
<polygon fill="white" stroke="black" points="314.5,-269.4 314.5,-290.4 420.5,-290.4 420.5,-269.4 314.5,-269.4"/>
<text text-anchor="middle" x="367.5" y="-276.8" font-family="Ubuntu Mono" font-size="12.00">num_utilities::c</text>
</a>
</g>
</g>
<!-- Node1&#45;&gt;Node2 -->
<g id="edge1" class="edge">
<title>Node1&#45;&gt;Node2</title>
<path fill="none" stroke="midnightblue" d="M102.18,-279.9C156.99,-279.9 244.84,-279.9 304.06,-279.9"/>
<polygon fill="midnightblue" stroke="midnightblue" points="304.4,-283.4 314.4,-279.9 304.4,-276.4 304.4,-283.4"/>
</g>
<!-- Node3 -->
<g id="node3" class="node">
<title>Node3</title>
<g id="a_node3"><a xlink:href="namespacegrid__utilities.html#ad3d9386b9abcb1a7e17369a1b3a3750d" target="_top" xlink:title="Calculates contra&#45; and covariant components of a vector in multiple coordinate systems.">
<polygon fill="white" stroke="black" points="138,-149.9 138,-183.9 257,-183.9 257,-149.9 138,-149.9"/>
<text text-anchor="start" x="146" y="-170.3" font-family="Ubuntu Mono" font-size="12.00">grid_utilities::calc</text>
<text text-anchor="middle" x="197.5" y="-157.3" font-family="Ubuntu Mono" font-size="12.00">_vec_comp</text>
</a>
</g>
</g>
<!-- Node1&#45;&gt;Node3 -->
<g id="edge2" class="edge">
<title>Node1&#45;&gt;Node3</title>
<path fill="none" stroke="midnightblue" d="M65.59,-269.27C88.62,-251.26 135.8,-214.37 166.78,-190.14"/>
<polygon fill="midnightblue" stroke="midnightblue" points="168.95,-192.89 174.67,-183.97 164.63,-187.38 168.95,-192.89"/>
</g>
<!-- Node5 -->
<g id="node5" class="node">
<title>Node5</title>
<g id="a_node5"><a xlink:href="namespacestr__utilities.html#a0b97e51770725a3e98ed393d26681414" target="_top" xlink:title="Convert an integer to string.">
<polygon fill="white" stroke="black" points="863.5,-177.4 863.5,-198.4 977.5,-198.4 977.5,-177.4 863.5,-177.4"/>
<text text-anchor="middle" x="920.5" y="-184.8" font-family="Ubuntu Mono" font-size="12.00">str_utilities::i2str</text>
</a>
</g>
</g>
<!-- Node1&#45;&gt;Node5 -->
<g id="edge21" class="edge">
<title>Node1&#45;&gt;Node5</title>
<path fill="none" stroke="midnightblue" d="M102.15,-289.99C164.02,-301.55 272.56,-318.9 366.5,-318.9 366.5,-318.9 366.5,-318.9 561.5,-318.9 693.78,-318.9 837.73,-239.05 894.5,-204.03"/>
<polygon fill="midnightblue" stroke="midnightblue" points="896.52,-206.89 903.15,-198.62 892.81,-200.95 896.52,-206.89"/>
</g>
<!-- Node3&#45;&gt;Node2 -->
<g id="edge3" class="edge">
<title>Node3&#45;&gt;Node2</title>
<path fill="none" stroke="midnightblue" d="M211.26,-184C227.81,-204.97 258.67,-240.18 293,-259.9 296.84,-262.11 300.94,-264.08 305.16,-265.85"/>
<polygon fill="midnightblue" stroke="midnightblue" points="303.95,-269.13 314.54,-269.37 306.42,-262.58 303.95,-269.13"/>
</g>
<!-- Node4 -->
<g id="node4" class="node">
<title>Node4</title>
<g id="a_node4"><a xlink:href="namespacevmec__utilities.html#ac699116fc25fdea3e28e488513d97c87" target="_top" xlink:title="Calculate the trigonometric cosine and sine factors.">
<polygon fill="white" stroke="black" points="496,-255.9 496,-289.9 625,-289.9 625,-255.9 496,-255.9"/>
<text text-anchor="start" x="504" y="-276.3" font-family="Ubuntu Mono" font-size="12.00">vmec_utilities::calc</text>
<text text-anchor="middle" x="560.5" y="-263.3" font-family="Ubuntu Mono" font-size="12.00">_trigon_factors</text>
</a>
</g>
</g>
<!-- Node3&#45;&gt;Node4 -->
<g id="edge4" class="edge">
<title>Node3&#45;&gt;Node4</title>
<path fill="none" stroke="midnightblue" d="M256.86,-149.89C309.57,-138.17 387.06,-130.38 442,-165.9 474.74,-187.07 449.05,-219.79 478,-245.9 480.76,-248.39 483.76,-250.66 486.93,-252.71"/>
<polygon fill="midnightblue" stroke="midnightblue" points="485.21,-255.76 495.63,-257.68 488.68,-249.68 485.21,-255.76"/>
</g>
<!-- Node6 -->
<g id="node6" class="node">
<title>Node6</title>
<g id="a_node6"><a xlink:href="namespacemessages.html#aa4a8d01563e92558e8a0875b075ec54c" target="_top" xlink:title="Write output to file identified by output_i.">
<polygon fill="white" stroke="black" points="679,-83.4 679,-104.4 793,-104.4 793,-83.4 679,-83.4"/>
<text text-anchor="middle" x="736" y="-90.8" font-family="Ubuntu Mono" font-size="12.00">messages::writo</text>
</a>
</g>
</g>
<!-- Node3&#45;&gt;Node6 -->
<g id="edge20" class="edge">
<title>Node3&#45;&gt;Node6</title>
<path fill="none" stroke="midnightblue" d="M206.68,-149.81C220.38,-123.34 250.7,-73.14 293,-50.9 430.81,21.56 493.42,7.31 643,-35.9 670.59,-43.87 697.88,-62.85 715.48,-76.94"/>
<polygon fill="midnightblue" stroke="midnightblue" points="713.36,-79.72 723.3,-83.39 717.81,-74.33 713.36,-79.72"/>
</g>
<!-- Node9 -->
<g id="node9" class="node">
<title>Node9</title>
<g id="a_node9"><a xlink:href="namespacegrid__utilities.html#a39e7cd9b8f173994358dbdd6b57827e1" target="_top" xlink:title="Calculates , &#160;and &#160;on a grid grid_XYZ, determined through its E(quilibrium) coordinates.">
<polygon fill="white" stroke="black" points="308,-215.9 308,-249.9 427,-249.9 427,-215.9 308,-215.9"/>
<text text-anchor="start" x="316" y="-236.3" font-family="Ubuntu Mono" font-size="12.00">grid_utilities::calc</text>
<text text-anchor="middle" x="367.5" y="-223.3" font-family="Ubuntu Mono" font-size="12.00">_xyz_grid</text>
</a>
</g>
</g>
<!-- Node3&#45;&gt;Node9 -->
<g id="edge10" class="edge">
<title>Node3&#45;&gt;Node9</title>
<path fill="none" stroke="midnightblue" d="M238.83,-183.95C255.53,-190.91 275.14,-198.94 293,-205.9 298.44,-208.02 304.12,-210.19 309.8,-212.33"/>
<polygon fill="midnightblue" stroke="midnightblue" points="308.75,-215.67 319.34,-215.89 311.2,-209.11 308.75,-215.67"/>
</g>
<!-- Node10 -->
<g id="node10" class="node">
<title>Node10</title>
<g id="a_node10"><a xlink:href="namespaceoutput__ops.html#a50bfbb88cc91805469353c3ff47b3e2e" target="_top" xlink:title="Use external program to draw a plot.">
<polygon fill="white" stroke="black" points="297.5,-97.4 297.5,-118.4 437.5,-118.4 437.5,-97.4 297.5,-97.4"/>
<text text-anchor="middle" x="367.5" y="-104.8" font-family="Ubuntu Mono" font-size="12.00">output_ops::draw_ex</text>
</a>
</g>
</g>
<!-- Node3&#45;&gt;Node10 -->
<g id="edge11" class="edge">
<title>Node3&#45;&gt;Node10</title>
<path fill="none" stroke="midnightblue" d="M245.55,-149.79C260.68,-144.34 277.53,-138.31 293,-132.9 303.41,-129.26 314.68,-125.39 325.19,-121.81"/>
<polygon fill="midnightblue" stroke="midnightblue" points="326.64,-125.01 334.98,-118.49 324.39,-118.39 326.64,-125.01"/>
</g>
<!-- Node11 -->
<g id="node11" class="node">
<title>Node11</title>
<g id="a_node11"><a xlink:href="namespacemessages.html#a6e6bfb084063e4cc91ee86e542043302" target="_top" xlink:title="Increases/decreases lvl of output.">
<polygon fill="white" stroke="black" points="501.5,-45.4 501.5,-66.4 619.5,-66.4 619.5,-45.4 501.5,-45.4"/>
<text text-anchor="middle" x="560.5" y="-52.8" font-family="Ubuntu Mono" font-size="12.00">messages::lvl_ud</text>
</a>
</g>
</g>
<!-- Node3&#45;&gt;Node11 -->
<g id="edge18" class="edge">
<title>Node3&#45;&gt;Node11</title>
<path fill="none" stroke="midnightblue" d="M213.24,-149.69C230.35,-131.02 260.41,-101.98 293,-87.9 356.43,-60.49 435.78,-54.1 491.33,-53.57"/>
<polygon fill="midnightblue" stroke="midnightblue" points="491.43,-57.07 501.42,-53.54 491.41,-50.07 491.43,-57.07"/>
</g>
<!-- Node14 -->
<g id="node14" class="node">
<title>Node14</title>
<g id="a_node14"><a xlink:href="namespacegrid__utilities.html#a67001ff9bbcad707aacf17f90a748d90" target="_top" xlink:title="Trim a grid, removing any overlap between the different regions.">
<polygon fill="white" stroke="black" points="293,-175.4 293,-196.4 442,-196.4 442,-175.4 293,-175.4"/>
<text text-anchor="middle" x="367.5" y="-182.8" font-family="Ubuntu Mono" font-size="12.00">grid_utilities::trim_grid</text>
</a>
</g>
</g>
<!-- Node3&#45;&gt;Node14 -->
<g id="edge19" class="edge">
<title>Node3&#45;&gt;Node14</title>
<path fill="none" stroke="midnightblue" d="M257.26,-173.55C265.49,-174.48 274.07,-175.45 282.66,-176.42"/>
<polygon fill="midnightblue" stroke="midnightblue" points="282.38,-179.91 292.71,-177.56 283.17,-172.95 282.38,-179.91"/>
</g>
<!-- Node4&#45;&gt;Node5 -->
<g id="edge5" class="edge">
<title>Node4&#45;&gt;Node5</title>
<path fill="none" stroke="midnightblue" d="M625.09,-257.8C693.37,-241.59 800.7,-216.11 865.17,-200.8"/>
<polygon fill="midnightblue" stroke="midnightblue" points="866.22,-204.15 875.14,-198.43 864.6,-197.34 866.22,-204.15"/>
</g>
<!-- Node4&#45;&gt;Node6 -->
<g id="edge6" class="edge">
<title>Node4&#45;&gt;Node6</title>
<path fill="none" stroke="midnightblue" d="M625.23,-256.83C631.57,-253.79 637.64,-250.18 643,-245.9 687.63,-210.31 715.82,-146.73 728.01,-114.24"/>
<polygon fill="midnightblue" stroke="midnightblue" points="731.42,-115.09 731.53,-104.5 724.84,-112.71 731.42,-115.09"/>
</g>
<!-- Node6&#45;&gt;Node5 -->
<g id="edge9" class="edge">
<title>Node6&#45;&gt;Node5</title>
<path fill="none" stroke="midnightblue" d="M761.73,-104.43C771.55,-108.75 782.89,-113.89 793,-118.9 827.94,-136.2 867.23,-158.01 892.61,-172.43"/>
<polygon fill="midnightblue" stroke="midnightblue" points="890.88,-175.47 901.31,-177.38 894.35,-169.39 890.88,-175.47"/>
</g>
<!-- Node7 -->
<g id="node7" class="node">
<title>Node7</title>
<g id="a_node7"><a xlink:href="namespacemessages.html#a61fd0b51b5e37d58fdc993c01792a3fd" target="_top" xlink:title="Returns the time.">
<polygon fill="white" stroke="black" points="850.5,-103.4 850.5,-124.4 990.5,-124.4 990.5,-103.4 850.5,-103.4"/>
<text text-anchor="middle" x="920.5" y="-110.8" font-family="Ubuntu Mono" font-size="12.00">messages::get_clock</text>
</a>
</g>
</g>
<!-- Node6&#45;&gt;Node7 -->
<g id="edge7" class="edge">
<title>Node6&#45;&gt;Node7</title>
<path fill="none" stroke="midnightblue" d="M793.25,-100.06C808.02,-101.68 824.24,-103.46 839.99,-105.19"/>
<polygon fill="midnightblue" stroke="midnightblue" points="839.93,-108.7 850.25,-106.31 840.69,-101.74 839.93,-108.7"/>
</g>
<!-- Node8 -->
<g id="node8" class="node">
<title>Node8</title>
<g id="a_node8"><a xlink:href="namespacemessages.html#a82dddaab795b78b3d39e1ff1aab2f665" target="_top" xlink:title="Returns the memory usage in kilobytes.">
<polygon fill="white" stroke="black" points="829,-63.4 829,-84.4 1012,-84.4 1012,-63.4 829,-63.4"/>
<text text-anchor="middle" x="920.5" y="-70.8" font-family="Ubuntu Mono" font-size="12.00">messages::get_mem_usage</text>
</a>
</g>
</g>
<!-- Node6&#45;&gt;Node8 -->
<g id="edge8" class="edge">
<title>Node6&#45;&gt;Node8</title>
<path fill="none" stroke="midnightblue" d="M793.25,-87.74C801.46,-86.84 810.13,-85.89 818.91,-84.92"/>
<polygon fill="midnightblue" stroke="midnightblue" points="819.3,-88.4 828.86,-83.83 818.53,-81.44 819.3,-88.4"/>
</g>
<!-- Node10&#45;&gt;Node5 -->
<g id="edge12" class="edge">
<title>Node10&#45;&gt;Node5</title>
<path fill="none" stroke="midnightblue" d="M437.73,-117.95C544.58,-133.47 748.3,-163.04 853.3,-178.29"/>
<polygon fill="midnightblue" stroke="midnightblue" points="853.05,-181.79 863.45,-179.76 854.06,-174.86 853.05,-181.79"/>
</g>
<!-- Node10&#45;&gt;Node6 -->
<g id="edge17" class="edge">
<title>Node10&#45;&gt;Node6</title>
<path fill="none" stroke="midnightblue" d="M437.87,-105.25C504.15,-102.72 603.37,-98.93 668.64,-96.44"/>
<polygon fill="midnightblue" stroke="midnightblue" points="668.95,-99.93 678.81,-96.05 668.69,-92.93 668.95,-99.93"/>
</g>
<!-- Node10&#45;&gt;Node11 -->
<g id="edge13" class="edge">
<title>Node10&#45;&gt;Node11</title>
<path fill="none" stroke="midnightblue" d="M407.15,-97.38C437.18,-89.2 479.01,-77.82 511.24,-69.04"/>
<polygon fill="midnightblue" stroke="midnightblue" points="512.18,-72.41 520.91,-66.41 510.34,-65.66 512.18,-72.41"/>
</g>
<!-- Node12 -->
<g id="node12" class="node">
<title>Node12</title>
<g id="a_node12"><a xlink:href="namespacefiles__utilities.html#ac6066df405564ba2f5e3c4bba726c1f8" target="_top" xlink:title="Search for available new unit.">
<polygon fill="white" stroke="black" points="488,-215.4 488,-236.4 633,-236.4 633,-215.4 488,-215.4"/>
<text text-anchor="middle" x="560.5" y="-222.8" font-family="Ubuntu Mono" font-size="12.00">files_utilities::nextunit</text>
</a>
</g>
</g>
<!-- Node10&#45;&gt;Node12 -->
<g id="edge15" class="edge">
<title>Node10&#45;&gt;Node12</title>
<path fill="none" stroke="midnightblue" d="M417.29,-118.46C426.2,-121.99 434.91,-126.68 442,-132.9 469.19,-156.76 449.79,-183.25 478,-205.9 480.09,-207.58 482.29,-209.12 484.59,-210.53"/>
<polygon fill="midnightblue" stroke="midnightblue" points="483.38,-213.84 493.86,-215.37 486.62,-207.64 483.38,-213.84"/>
</g>
<!-- Node13 -->
<g id="node13" class="node">
<title>Node13</title>
<g id="a_node13"><a xlink:href="namespaceoutput__ops.html#aa9e4855511b6ea16a08b3efb587bec51" target="_top" xlink:title="Executes command line, or displays a message if disabled.">
<polygon fill="white" stroke="black" points="478,-161.9 478,-195.9 643,-195.9 643,-161.9 478,-161.9"/>
<text text-anchor="start" x="486" y="-182.3" font-family="Ubuntu Mono" font-size="12.00">output_ops::use_execute</text>
<text text-anchor="middle" x="560.5" y="-169.3" font-family="Ubuntu Mono" font-size="12.00">_command_line</text>
</a>
</g>
</g>
<!-- Node10&#45;&gt;Node13 -->
<g id="edge16" class="edge">
<title>Node10&#45;&gt;Node13</title>
<path fill="none" stroke="midnightblue" d="M400.45,-118.42C413.39,-122.77 428.46,-127.95 442,-132.9 445.42,-134.15 477.05,-146.54 506.62,-158.14"/>
<polygon fill="midnightblue" stroke="midnightblue" points="505.53,-161.47 516.12,-161.86 508.09,-154.95 505.53,-161.47"/>
</g>
<!-- Node11&#45;&gt;Node6 -->
<g id="edge14" class="edge">
<title>Node11&#45;&gt;Node6</title>
<path fill="none" stroke="midnightblue" d="M609.83,-66.49C630.7,-71.06 655.28,-76.44 677.12,-81.22"/>
<polygon fill="midnightblue" stroke="midnightblue" points="676.41,-84.65 686.93,-83.37 677.91,-77.81 676.41,-84.65"/>
</g>
</g>
</svg>
