<?xml version="1.0" encoding="UTF-8" standalone="no"?>
<!DOCTYPE svg PUBLIC "-//W3C//DTD SVG 1.1//EN"
 "http://www.w3.org/Graphics/SVG/1.1/DTD/svg11.dtd">
<!-- Generated by graphviz version 2.38.0 (20140413.2041)
 -->
<!-- Title: mpi_ops::start_mpi Pages: 1 -->
<svg width="873pt" height="148pt"
 viewBox="0.00 0.00 873.00 148.00" xmlns="http://www.w3.org/2000/svg" xmlns:xlink="http://www.w3.org/1999/xlink">
<g id="graph0" class="graph" transform="scale(1 1) rotate(0) translate(4 144)">
<title>mpi_ops::start_mpi</title>
<polygon fill="white" stroke="none" points="-4,4 -4,-144 869,-144 869,4 -4,4"/>
<!-- Node14 -->
<g id="node1" class="node"><title>Node14</title>
<polygon fill="#bfbfbf" stroke="black" points="0,-58.5 0,-79.5 125,-79.5 125,-58.5 0,-58.5"/>
<text text-anchor="middle" x="62.5" y="-65.9" font-family="Ubuntu Mono" font-size="12.00">mpi_ops::start_mpi</text>
</g>
<!-- Node15 -->
<g id="node2" class="node"><title>Node15</title>
<g id="a_node2"><a xlink:href="namespaceinput__utilities.html#a71bd36f063d55ab62c7a37864aef1185" target="_top" xlink:title="Pauses the running of the program. ">
<polygon fill="white" stroke="black" points="161,-58.5 161,-79.5 340,-79.5 340,-58.5 161,-58.5"/>
<text text-anchor="middle" x="250.5" y="-65.9" font-family="Ubuntu Mono" font-size="12.00">input_utilities::pause_prog</text>
</a>
</g>
</g>
<!-- Node14&#45;&gt;Node15 -->
<g id="edge1" class="edge"><title>Node14&#45;&gt;Node15</title>
<path fill="none" stroke="midnightblue" d="M125.177,-69C133.386,-69 141.963,-69 150.608,-69"/>
<polygon fill="midnightblue" stroke="midnightblue" points="150.771,-72.5001 160.771,-69 150.771,-65.5001 150.771,-72.5001"/>
</g>
<!-- Node16 -->
<g id="node3" class="node"><title>Node16</title>
<g id="a_node3"><a xlink:href="namespacempi__utilities.html#a790ea24d32dd0e249541c1e57cd85536" target="_top" xlink:title="Wait for all processes, wrapper to MPI barrier. ">
<polygon fill="white" stroke="black" points="376,-118.5 376,-139.5 531,-139.5 531,-118.5 376,-118.5"/>
<text text-anchor="middle" x="453.5" y="-125.9" font-family="Ubuntu Mono" font-size="12.00">mpi_utilities::wait_mpi</text>
</a>
</g>
</g>
<!-- Node15&#45;&gt;Node16 -->
<g id="edge2" class="edge"><title>Node15&#45;&gt;Node16</title>
<path fill="none" stroke="midnightblue" d="M282.564,-79.5062C307.662,-87.8672 343.957,-99.6717 376,-109 383.871,-111.291 392.233,-113.602 400.428,-115.799"/>
<polygon fill="midnightblue" stroke="midnightblue" points="399.735,-119.236 410.298,-118.412 401.527,-112.469 399.735,-119.236"/>
</g>
<!-- Node17 -->
<g id="node4" class="node"><title>Node17</title>
<g id="a_node4"><a xlink:href="namespacemessages.html#aed343894ae4a28ad6dfbd1d39aac64ff" target="_top" xlink:title="Stop a timer. ">
<polygon fill="white" stroke="black" points="388,-78.5 388,-99.5 519,-99.5 519,-78.5 388,-78.5"/>
<text text-anchor="middle" x="453.5" y="-85.9" font-family="Ubuntu Mono" font-size="12.00">messages::stop_time</text>
</a>
</g>
</g>
<!-- Node15&#45;&gt;Node17 -->
<g id="edge3" class="edge"><title>Node15&#45;&gt;Node17</title>
<path fill="none" stroke="midnightblue" d="M340.247,-77.8305C352.735,-79.0731 365.469,-80.3402 377.663,-81.5535"/>
<polygon fill="midnightblue" stroke="midnightblue" points="377.464,-85.0509 387.761,-82.5583 378.157,-78.0853 377.464,-85.0509"/>
</g>
<!-- Node18 -->
<g id="node5" class="node"><title>Node18</title>
<g id="a_node5"><a xlink:href="namespacemessages.html#aa4a8d01563e92558e8a0875b075ec54c" target="_top" xlink:title="Write output to file identified by output_i. ">
<polygon fill="white" stroke="black" points="567,-39.5 567,-60.5 674,-60.5 674,-39.5 567,-39.5"/>
<text text-anchor="middle" x="620.5" y="-46.9" font-family="Ubuntu Mono" font-size="12.00">messages::writo</text>
</a>
</g>
</g>
<!-- Node15&#45;&gt;Node18 -->
<g id="edge9" class="edge"><title>Node15&#45;&gt;Node18</title>
<path fill="none" stroke="midnightblue" d="M340.113,-64.4248C407.062,-60.9683 497.298,-56.3094 556.878,-53.2332"/>
<polygon fill="midnightblue" stroke="midnightblue" points="557.094,-56.7268 566.901,-52.7157 556.733,-49.7361 557.094,-56.7268"/>
</g>
<!-- Node21 -->
<g id="node8" class="node"><title>Node21</title>
<g id="a_node8"><a xlink:href="namespacemessages.html#a84d5988f3ea5ca8dc2834032f896ae90" target="_top" xlink:title="Start a timer. ">
<polygon fill="white" stroke="black" points="385,-0.5 385,-21.5 522,-21.5 522,-0.5 385,-0.5"/>
<text text-anchor="middle" x="453.5" y="-7.9" font-family="Ubuntu Mono" font-size="12.00">messages::start_time</text>
</a>
</g>
</g>
<!-- Node15&#45;&gt;Node21 -->
<g id="edge7" class="edge"><title>Node15&#45;&gt;Node21</title>
<path fill="none" stroke="midnightblue" d="M287.9,-58.4966C321.094,-48.9183 370.299,-34.7196 406.264,-24.3418"/>
<polygon fill="midnightblue" stroke="midnightblue" points="407.395,-27.6584 416.032,-21.5231 405.454,-20.9328 407.395,-27.6584"/>
</g>
<!-- Node17&#45;&gt;Node18 -->
<g id="edge4" class="edge"><title>Node17&#45;&gt;Node18</title>
<path fill="none" stroke="midnightblue" d="M499.151,-78.446C519.42,-73.6553 543.579,-67.9449 564.915,-62.9019"/>
<polygon fill="midnightblue" stroke="midnightblue" points="565.886,-66.2689 574.813,-60.5624 564.276,-59.4566 565.886,-66.2689"/>
</g>
<!-- Node19 -->
<g id="node6" class="node"><title>Node19</title>
<g id="a_node6"><a xlink:href="namespacemessages.html#a82dddaab795b78b3d39e1ff1aab2f665" target="_top" xlink:title="Returns the memory usage in kilobytes. ">
<polygon fill="white" stroke="black" points="710,-59.5 710,-80.5 865,-80.5 865,-59.5 710,-59.5"/>
<text text-anchor="middle" x="787.5" y="-66.9" font-family="Ubuntu Mono" font-size="12.00">messages::get_mem_usage</text>
</a>
</g>
</g>
<!-- Node18&#45;&gt;Node19 -->
<g id="edge5" class="edge"><title>Node18&#45;&gt;Node19</title>
<path fill="none" stroke="midnightblue" d="M674.161,-56.3831C682.452,-57.3881 691.208,-58.4495 700.025,-59.5182"/>
<polygon fill="midnightblue" stroke="midnightblue" points="699.635,-62.9965 709.984,-60.7253 700.478,-56.0474 699.635,-62.9965"/>
</g>
<!-- Node20 -->
<g id="node7" class="node"><title>Node20</title>
<g id="a_node7"><a xlink:href="namespacemessages.html#a61fd0b51b5e37d58fdc993c01792a3fd" target="_top" xlink:title="Returns the time. ">
<polygon fill="white" stroke="black" points="722,-19.5 722,-40.5 853,-40.5 853,-19.5 722,-19.5"/>
<text text-anchor="middle" x="787.5" y="-26.9" font-family="Ubuntu Mono" font-size="12.00">messages::get_clock</text>
</a>
</g>
</g>
<!-- Node18&#45;&gt;Node20 -->
<g id="edge6" class="edge"><title>Node18&#45;&gt;Node20</title>
<path fill="none" stroke="midnightblue" d="M674.161,-43.6169C686.142,-42.1646 699.094,-40.5947 711.797,-39.0549"/>
<polygon fill="midnightblue" stroke="midnightblue" points="712.402,-42.5073 721.908,-37.8293 711.56,-35.5581 712.402,-42.5073"/>
</g>
<!-- Node21&#45;&gt;Node18 -->
<g id="edge8" class="edge"><title>Node21&#45;&gt;Node18</title>
<path fill="none" stroke="midnightblue" d="M499.151,-21.554C519.42,-26.3447 543.579,-32.0551 564.915,-37.0981"/>
<polygon fill="midnightblue" stroke="midnightblue" points="564.276,-40.5434 574.813,-39.4376 565.886,-33.7311 564.276,-40.5434"/>
</g>
</g>
</svg>
