<?xml version="1.0" encoding="UTF-8" standalone="no"?>
<!DOCTYPE svg PUBLIC "-//W3C//DTD SVG 1.1//EN"
 "http://www.w3.org/Graphics/SVG/1.1/DTD/svg11.dtd">
<!-- Generated by graphviz version 2.38.0 (20140413.2041)
 -->
<!-- Title: helena_ops::read_hel Pages: 1 -->
<svg width="998pt" height="271pt"
 viewBox="0.00 0.00 998.00 270.57" xmlns="http://www.w3.org/2000/svg" xmlns:xlink="http://www.w3.org/1999/xlink">
<g id="graph0" class="graph" transform="scale(1 1) rotate(0) translate(4 266.572)">
<title>helena_ops::read_hel</title>
<polygon fill="white" stroke="none" points="-4,4 -4,-266.572 994,-266.572 994,4 -4,4"/>
<!-- Node25 -->
<g id="node1" class="node"><title>Node25</title>
<polygon fill="#bfbfbf" stroke="black" points="0,-99.5 0,-120.5 137,-120.5 137,-99.5 0,-99.5"/>
<text text-anchor="middle" x="68.5" y="-106.9" font-family="Ubuntu Mono" font-size="12.00">helena_ops::read_hel</text>
</g>
<!-- Node26 -->
<g id="node2" class="node"><title>Node26</title>
<g id="a_node2"><a xlink:href="namespacemessages.html#aa4a8d01563e92558e8a0875b075ec54c" target="_top" xlink:title="Write output to file identified by output_i. ">
<polygon fill="white" stroke="black" points="692,-187.5 692,-208.5 799,-208.5 799,-187.5 692,-187.5"/>
<text text-anchor="middle" x="745.5" y="-194.9" font-family="Ubuntu Mono" font-size="12.00">messages::writo</text>
</a>
</g>
</g>
<!-- Node25&#45;&gt;Node26 -->
<g id="edge1" class="edge"><title>Node25&#45;&gt;Node26</title>
<path fill="none" stroke="midnightblue" d="M77.5904,-120.75C93.5062,-141.1 131.01,-185.246 173,-208 240.103,-244.363 264.205,-239.049 340,-248 479.532,-264.477 519.766,-273.364 656,-239 677.889,-233.479 700.98,-222.59 718.085,-213.42"/>
<polygon fill="midnightblue" stroke="midnightblue" points="719.858,-216.44 726.927,-208.548 716.479,-210.309 719.858,-216.44"/>
</g>
<!-- Node29 -->
<g id="node5" class="node"><title>Node29</title>
<g id="a_node5"><a xlink:href="namespacemessages.html#a6e6bfb084063e4cc91ee86e542043302" target="_top" xlink:title="Increases/decreases lvl of output. ">
<polygon fill="white" stroke="black" points="543,-208.5 543,-229.5 656,-229.5 656,-208.5 543,-208.5"/>
<text text-anchor="middle" x="599.5" y="-215.9" font-family="Ubuntu Mono" font-size="12.00">messages::lvl_ud</text>
</a>
</g>
</g>
<!-- Node25&#45;&gt;Node29 -->
<g id="edge4" class="edge"><title>Node25&#45;&gt;Node29</title>
<path fill="none" stroke="midnightblue" d="M86.6827,-120.619C128.251,-145.607 238.329,-207.625 340,-229 404.485,-242.557 479.963,-237.29 532.653,-230.323"/>
<polygon fill="midnightblue" stroke="midnightblue" points="533.449,-233.746 542.877,-228.911 532.492,-226.812 533.449,-233.746"/>
</g>
<!-- Node30 -->
<g id="node6" class="node"><title>Node30</title>
<g id="a_node6"><a xlink:href="namespaceoutput__ops.html#a50bfbb88cc91805469353c3ff47b3e2e" target="_top" xlink:title="Use external program to draw a plot. ">
<polygon fill="white" stroke="black" points="173,-99.5 173,-120.5 304,-120.5 304,-99.5 173,-99.5"/>
<text text-anchor="middle" x="238.5" y="-106.9" font-family="Ubuntu Mono" font-size="12.00">output_ops::draw_ex</text>
</a>
</g>
</g>
<!-- Node25&#45;&gt;Node30 -->
<g id="edge6" class="edge"><title>Node25&#45;&gt;Node30</title>
<path fill="none" stroke="midnightblue" d="M137.348,-110C145.7,-110 154.273,-110 162.72,-110"/>
<polygon fill="midnightblue" stroke="midnightblue" points="162.938,-113.5 172.938,-110 162.938,-106.5 162.938,-113.5"/>
</g>
<!-- Node31 -->
<g id="node7" class="node"><title>Node31</title>
<g id="a_node7"><a xlink:href="namespacestr__utilities.html#a0b97e51770725a3e98ed393d26681414" target="_top" xlink:title="Convert an integer to string. ">
<polygon fill="white" stroke="black" points="355,-40.5 355,-61.5 492,-61.5 492,-40.5 355,-40.5"/>
<text text-anchor="middle" x="423.5" y="-47.9" font-family="Ubuntu Mono" font-size="12.00">str_utilities::i2str</text>
</a>
</g>
</g>
<!-- Node25&#45;&gt;Node31 -->
<g id="edge16" class="edge"><title>Node25&#45;&gt;Node31</title>
<path fill="none" stroke="midnightblue" d="M122.086,-99.4603C138.382,-96.2958 156.414,-92.8978 173,-90 230.475,-79.9582 295.619,-69.8173 344.926,-62.3941"/>
<polygon fill="midnightblue" stroke="midnightblue" points="345.514,-65.8452 354.884,-60.8995 344.475,-58.9227 345.514,-65.8452"/>
</g>
<!-- Node34 -->
<g id="node10" class="node"><title>Node34</title>
<g id="a_node10"><a xlink:href="namespacestr__utilities.html#a92ac6c0af1979df094de1caddd28ade0" target="_top" xlink:title="Convert a real (double) to string. ">
<polygon fill="white" stroke="black" points="355,-0.5 355,-21.5 492,-21.5 492,-0.5 355,-0.5"/>
<text text-anchor="middle" x="423.5" y="-7.9" font-family="Ubuntu Mono" font-size="12.00">str_utilities::r2str</text>
</a>
</g>
</g>
<!-- Node25&#45;&gt;Node34 -->
<g id="edge15" class="edge"><title>Node25&#45;&gt;Node34</title>
<path fill="none" stroke="midnightblue" d="M90.4351,-99.4384C111.014,-89.4089 143.533,-74.4922 173,-65 230.225,-46.5661 296.861,-32.5055 346.866,-23.3596"/>
<polygon fill="midnightblue" stroke="midnightblue" points="347.736,-26.7593 356.955,-21.5395 346.493,-19.8705 347.736,-26.7593"/>
</g>
<!-- Node27 -->
<g id="node3" class="node"><title>Node27</title>
<g id="a_node3"><a xlink:href="namespacemessages.html#a82dddaab795b78b3d39e1ff1aab2f665" target="_top" xlink:title="Returns the memory usage in kilobytes. ">
<polygon fill="white" stroke="black" points="835,-207.5 835,-228.5 990,-228.5 990,-207.5 835,-207.5"/>
<text text-anchor="middle" x="912.5" y="-214.9" font-family="Ubuntu Mono" font-size="12.00">messages::get_mem_usage</text>
</a>
</g>
</g>
<!-- Node26&#45;&gt;Node27 -->
<g id="edge2" class="edge"><title>Node26&#45;&gt;Node27</title>
<path fill="none" stroke="midnightblue" d="M799.161,-204.383C807.452,-205.388 816.208,-206.449 825.025,-207.518"/>
<polygon fill="midnightblue" stroke="midnightblue" points="824.635,-210.996 834.984,-208.725 825.478,-204.047 824.635,-210.996"/>
</g>
<!-- Node28 -->
<g id="node4" class="node"><title>Node28</title>
<g id="a_node4"><a xlink:href="namespacemessages.html#a61fd0b51b5e37d58fdc993c01792a3fd" target="_top" xlink:title="Returns the time. ">
<polygon fill="white" stroke="black" points="847,-167.5 847,-188.5 978,-188.5 978,-167.5 847,-167.5"/>
<text text-anchor="middle" x="912.5" y="-174.9" font-family="Ubuntu Mono" font-size="12.00">messages::get_clock</text>
</a>
</g>
</g>
<!-- Node26&#45;&gt;Node28 -->
<g id="edge3" class="edge"><title>Node26&#45;&gt;Node28</title>
<path fill="none" stroke="midnightblue" d="M799.161,-191.617C811.142,-190.165 824.094,-188.595 836.797,-187.055"/>
<polygon fill="midnightblue" stroke="midnightblue" points="837.402,-190.507 846.908,-185.829 836.56,-183.558 837.402,-190.507"/>
</g>
<!-- Node29&#45;&gt;Node26 -->
<g id="edge5" class="edge"><title>Node29&#45;&gt;Node26</title>
<path fill="none" stroke="midnightblue" d="M656.174,-210.881C664.593,-209.653 673.326,-208.379 681.88,-207.132"/>
<polygon fill="midnightblue" stroke="midnightblue" points="682.419,-210.591 691.809,-205.684 681.409,-203.664 682.419,-210.591"/>
</g>
<!-- Node30&#45;&gt;Node26 -->
<g id="edge8" class="edge"><title>Node30&#45;&gt;Node26</title>
<path fill="none" stroke="midnightblue" d="M304.262,-118.359C358.543,-125.624 438.013,-136.865 507,-149 568.938,-159.895 639.456,-174.758 687.453,-185.25"/>
<polygon fill="midnightblue" stroke="midnightblue" points="686.824,-188.695 697.342,-187.419 688.324,-181.858 686.824,-188.695"/>
</g>
<!-- Node30&#45;&gt;Node29 -->
<g id="edge13" class="edge"><title>Node30&#45;&gt;Node29</title>
<path fill="none" stroke="midnightblue" d="M247.135,-120.716C262.213,-140.888 298.012,-184.076 340,-202 401.495,-228.252 478.746,-229.746 532.713,-226.385"/>
<polygon fill="midnightblue" stroke="midnightblue" points="533.114,-229.865 542.846,-225.68 532.628,-222.882 533.114,-229.865"/>
</g>
<!-- Node30&#45;&gt;Node31 -->
<g id="edge7" class="edge"><title>Node30&#45;&gt;Node31</title>
<path fill="none" stroke="midnightblue" d="M266.807,-99.4237C278.292,-94.9733 291.797,-89.7378 304,-85 320.003,-78.7868 323.622,-76.1448 340,-71 347.797,-68.5508 356.087,-66.2242 364.291,-64.0821"/>
<polygon fill="midnightblue" stroke="midnightblue" points="365.383,-67.4159 374.216,-61.5648 363.662,-60.6307 365.383,-67.4159"/>
</g>
<!-- Node32 -->
<g id="node8" class="node"><title>Node32</title>
<g id="a_node8"><a xlink:href="namespacefiles__utilities.html#ac6066df405564ba2f5e3c4bba726c1f8" target="_top" xlink:title="Search for available new unit. ">
<polygon fill="white" stroke="black" points="340,-80.5 340,-101.5 507,-101.5 507,-80.5 340,-80.5"/>
<text text-anchor="middle" x="423.5" y="-87.9" font-family="Ubuntu Mono" font-size="12.00">files_utilities::nextunit</text>
</a>
</g>
</g>
<!-- Node30&#45;&gt;Node32 -->
<g id="edge9" class="edge"><title>Node30&#45;&gt;Node32</title>
<path fill="none" stroke="midnightblue" d="M304.019,-103.301C312.377,-102.434 321.064,-101.532 329.767,-100.628"/>
<polygon fill="midnightblue" stroke="midnightblue" points="330.385,-104.083 339.971,-99.5686 329.663,-97.1201 330.385,-104.083"/>
</g>
<!-- Node33 -->
<g id="node9" class="node"><title>Node33</title>
<g id="a_node9"><a xlink:href="namespaceoutput__ops.html#aa9e4855511b6ea16a08b3efb587bec51" target="_top" xlink:title="Executes command line, or displays a message if disabled. ">
<polygon fill="white" stroke="black" points="346,-159 346,-193 501,-193 501,-159 346,-159"/>
<text text-anchor="start" x="354" y="-179.4" font-family="Ubuntu Mono" font-size="12.00">output_ops::use_execute</text>
<text text-anchor="middle" x="423.5" y="-166.4" font-family="Ubuntu Mono" font-size="12.00">_command_line</text>
</a>
</g>
</g>
<!-- Node30&#45;&gt;Node33 -->
<g id="edge10" class="edge"><title>Node30&#45;&gt;Node33</title>
<path fill="none" stroke="midnightblue" d="M268.902,-120.604C294.906,-129.982 333.579,-143.93 365.614,-155.484"/>
<polygon fill="midnightblue" stroke="midnightblue" points="364.727,-158.884 375.321,-158.985 367.101,-152.299 364.727,-158.884"/>
</g>
<!-- Node30&#45;&gt;Node34 -->
<g id="edge14" class="edge"><title>Node30&#45;&gt;Node34</title>
<path fill="none" stroke="midnightblue" d="M249.88,-99.2789C267.029,-82.2035 303.066,-48.9329 340,-31 344.889,-28.6263 350.081,-26.5215 355.388,-24.6573"/>
<polygon fill="midnightblue" stroke="midnightblue" points="356.576,-27.9517 365.022,-21.5556 354.431,-21.2884 356.576,-27.9517"/>
</g>
<!-- Node33&#45;&gt;Node26 -->
<g id="edge11" class="edge"><title>Node33&#45;&gt;Node26</title>
<path fill="none" stroke="midnightblue" d="M501.148,-181.27C556.445,-185.071 630.17,-190.14 681.929,-193.698"/>
<polygon fill="midnightblue" stroke="midnightblue" points="681.76,-197.195 691.976,-194.389 682.24,-190.211 681.76,-197.195"/>
</g>
<!-- Node33&#45;&gt;Node29 -->
<g id="edge12" class="edge"><title>Node33&#45;&gt;Node29</title>
<path fill="none" stroke="midnightblue" d="M493.519,-193.056C510.963,-197.367 529.415,-201.927 545.902,-206.002"/>
<polygon fill="midnightblue" stroke="midnightblue" points="545.339,-209.468 555.887,-208.469 547.019,-202.672 545.339,-209.468"/>
</g>
</g>
</svg>
