<?xml version="1.0" encoding="UTF-8" standalone="no"?>
<!DOCTYPE svg PUBLIC "-//W3C//DTD SVG 1.1//EN"
 "http://www.w3.org/Graphics/SVG/1.1/DTD/svg11.dtd">
<!-- Generated by graphviz version 2.38.0 (20140413.2041)
 -->
<!-- Title: driver_x::print_info_x_2 Pages: 1 -->
<svg width="700pt" height="90pt"
 viewBox="0.00 0.00 700.00 90.00" xmlns="http://www.w3.org/2000/svg" xmlns:xlink="http://www.w3.org/1999/xlink">
<g id="graph0" class="graph" transform="scale(1 1) rotate(0) translate(4 86)">
<title>driver_x::print_info_x_2</title>
<polygon fill="white" stroke="none" points="-4,4 -4,-86 696,-86 696,4 -4,4"/>
<!-- Node0 -->
<g id="node1" class="node"><title>Node0</title>
<polygon fill="#bfbfbf" stroke="black" points="0,-20.5 0,-41.5 161,-41.5 161,-20.5 0,-20.5"/>
<text text-anchor="middle" x="80.5" y="-27.9" font-family="Ubuntu Mono" font-size="12.00">driver_x::print_info_x_2</text>
</g>
<!-- Node1 -->
<g id="node2" class="node"><title>Node1</title>
<g id="a_node2"><a xlink:href="namespacemessages.html#aa4a8d01563e92558e8a0875b075ec54c" target="_top" xlink:title="messages::writo">
<polygon fill="white" stroke="black" points="212,-40.5 212,-61.5 319,-61.5 319,-40.5 212,-40.5"/>
<text text-anchor="middle" x="265.5" y="-47.9" font-family="Ubuntu Mono" font-size="12.00">messages::writo</text>
</a>
</g>
</g>
<!-- Node0&#45;&gt;Node1 -->
<g id="edge1" class="edge"><title>Node0&#45;&gt;Node1</title>
<path fill="none" stroke="midnightblue" d="M161.234,-39.7141C174.762,-41.1926 188.639,-42.7092 201.656,-44.1318"/>
<polygon fill="midnightblue" stroke="midnightblue" points="201.566,-47.6427 211.887,-45.25 202.327,-40.6842 201.566,-47.6427"/>
</g>
<!-- Node5 -->
<g id="node6" class="node"><title>Node5</title>
<g id="a_node6"><a xlink:href="namespacestr__utilities.html#a0b97e51770725a3e98ed393d26681414" target="_top" xlink:title="str_utilities::i2str">
<polygon fill="white" stroke="black" points="197,-0.5 197,-21.5 334,-21.5 334,-0.5 197,-0.5"/>
<text text-anchor="middle" x="265.5" y="-7.9" font-family="Ubuntu Mono" font-size="12.00">str_utilities::i2str</text>
</a>
</g>
</g>
<!-- Node0&#45;&gt;Node5 -->
<g id="edge5" class="edge"><title>Node0&#45;&gt;Node5</title>
<path fill="none" stroke="midnightblue" d="M161.234,-22.2859C169.657,-21.3654 178.214,-20.4301 186.616,-19.512"/>
<polygon fill="midnightblue" stroke="midnightblue" points="187.205,-22.9684 196.766,-18.4026 186.445,-16.0099 187.205,-22.9684"/>
</g>
<!-- Node2 -->
<g id="node3" class="node"><title>Node2</title>
<g id="a_node3"><a xlink:href="namespacemessages.html#a82dddaab795b78b3d39e1ff1aab2f665" target="_top" xlink:title="messages::get_mem_usage">
<polygon fill="white" stroke="black" points="370,-60.5 370,-81.5 525,-81.5 525,-60.5 370,-60.5"/>
<text text-anchor="middle" x="447.5" y="-67.9" font-family="Ubuntu Mono" font-size="12.00">messages::get_mem_usage</text>
</a>
</g>
</g>
<!-- Node1&#45;&gt;Node2 -->
<g id="edge2" class="edge"><title>Node1&#45;&gt;Node2</title>
<path fill="none" stroke="midnightblue" d="M319.047,-56.8386C331.823,-58.2581 345.824,-59.8138 359.723,-61.3581"/>
<polygon fill="midnightblue" stroke="midnightblue" points="359.481,-64.8526 369.806,-62.4784 360.254,-57.8954 359.481,-64.8526"/>
</g>
<!-- Node3 -->
<g id="node4" class="node"><title>Node3</title>
<g id="a_node4"><a xlink:href="messages_8f90.html#a6d15f28783f95a7a4b2a44185619792f" target="_top" xlink:title="format_str">
<polygon fill="white" stroke="black" points="409,-20.5 409,-41.5 486,-41.5 486,-20.5 409,-20.5"/>
<text text-anchor="middle" x="447.5" y="-27.9" font-family="Ubuntu Mono" font-size="12.00">format_str</text>
</a>
</g>
</g>
<!-- Node1&#45;&gt;Node3 -->
<g id="edge3" class="edge"><title>Node1&#45;&gt;Node3</title>
<path fill="none" stroke="midnightblue" d="M319.047,-45.1614C344.198,-42.3669 374.099,-39.0446 398.615,-36.3205"/>
<polygon fill="midnightblue" stroke="midnightblue" points="399.211,-39.7759 408.764,-35.1929 398.438,-32.8188 399.211,-39.7759"/>
</g>
<!-- Node4 -->
<g id="node5" class="node"><title>Node4</title>
<g id="a_node5"><a xlink:href="namespacemessages.html#a61fd0b51b5e37d58fdc993c01792a3fd" target="_top" xlink:title="messages::get_clock">
<polygon fill="white" stroke="black" points="561,-20.5 561,-41.5 692,-41.5 692,-20.5 561,-20.5"/>
<text text-anchor="middle" x="626.5" y="-27.9" font-family="Ubuntu Mono" font-size="12.00">messages::get_clock</text>
</a>
</g>
</g>
<!-- Node3&#45;&gt;Node4 -->
<g id="edge4" class="edge"><title>Node3&#45;&gt;Node4</title>
<path fill="none" stroke="midnightblue" d="M486.037,-31C504.869,-31 528.372,-31 550.685,-31"/>
<polygon fill="midnightblue" stroke="midnightblue" points="550.832,-34.5001 560.832,-31 550.832,-27.5001 550.832,-34.5001"/>
</g>
</g>
</svg>
