<?xml version="1.0" encoding="UTF-8" standalone="no"?>
<!DOCTYPE svg PUBLIC "-//W3C//DTD SVG 1.1//EN"
 "http://www.w3.org/Graphics/SVG/1.1/DTD/svg11.dtd">
<!-- Generated by graphviz version 14.1.2 (20260124.0452)
 -->
<!-- Title: grid_ops::calc_ang_grid_eq_b Pages: 1 -->
<svg width="654pt" height="54pt"
 viewBox="0.00 0.00 654.00 54.00" xmlns="http://www.w3.org/2000/svg" xmlns:xlink="http://www.w3.org/1999/xlink">
<g id="graph0" class="graph" transform="scale(1 1) rotate(0) translate(4 50.12)">
<title>grid_ops::calc_ang_grid_eq_b</title>
<!-- Node1 -->
<g id="Node000001" class="node">
<title>Node1</title>
<g id="a_Node000001"><a xlink:title="Calculate equilibrium grid that follows magnetic field lines.">
<polygon fill="#999999" stroke="#666666" points="646,-46.12 522,-46.12 522,-12.62 646,-12.62 646,-46.12"/>
<text xml:space="preserve" text-anchor="start" x="530" y="-30.73" font-family="Ubuntu Mono" font-size="12.00">grid_ops::calc_ang</text>
<text xml:space="preserve" text-anchor="middle" x="584" y="-17.98" font-family="Ubuntu Mono" font-size="12.00">_grid_eq_b</text>
</a>
</g>
</g>
<!-- Node2 -->
<g id="Node000002" class="node">
<title>Node2</title>
<g id="a_Node000002"><a xlink:href="namespacedriver__eq.html#a40d652e15887ad4f788a3945e6253571" target="_top" xlink:title="Main driver of PB3D equilibrium part.">
<polygon fill="white" stroke="#666666" points="284,-39.75 124,-39.75 124,-19 284,-19 284,-39.75"/>
<text xml:space="preserve" text-anchor="middle" x="204" y="-24.35" font-family="Ubuntu Mono" font-size="12.00">driver_eq::run_driver_eq</text>
</a>
</g>
</g>
<!-- Node1&#45;&gt;Node2 -->
<g id="edge1_Node000001_Node000002" class="edge">
<title>Node1&#45;&gt;Node2</title>
<g id="a_edge1_Node000001_Node000002"><a xlink:title=" ">
<path fill="none" stroke="#63b8ff" d="M510.53,-29.38C445.82,-29.38 351.24,-29.38 284.48,-29.38"/>
<polygon fill="#63b8ff" stroke="#63b8ff" points="510.33,-32.88 520.33,-29.38 510.33,-25.88 510.33,-32.88"/>
</a>
</g>
</g>
<!-- Node4 -->
<g id="Node000004" class="node">
<title>Node4</title>
<g id="a_Node000004"><a xlink:href="namespacegrid__ops.html#addd35a4585f818ae0a7d94ee2156f1bd" target="_top" xlink:title="Sets up the field&#45;aligned equilibrium grid.">
<polygon fill="white" stroke="#666666" points="486,-20.75 320,-20.75 320,0 486,0 486,-20.75"/>
<text xml:space="preserve" text-anchor="middle" x="403" y="-5.35" font-family="Ubuntu Mono" font-size="12.00">grid_ops::setup_grid_eq_b</text>
</a>
</g>
</g>
<!-- Node1&#45;&gt;Node4 -->
<g id="edge3_Node000001_Node000004" class="edge">
<title>Node1&#45;&gt;Node4</title>
<g id="a_edge3_Node000001_Node000004"><a xlink:title=" ">
<path fill="none" stroke="#63b8ff" d="M510.3,-21.66C502.45,-20.83 494.42,-19.97 486.47,-19.13"/>
<polygon fill="#63b8ff" stroke="#63b8ff" points="509.83,-25.13 520.14,-22.7 510.57,-18.17 509.83,-25.13"/>
</a>
</g>
</g>
<!-- Node3 -->
<g id="Node000003" class="node">
<title>Node3</title>
<g id="a_Node000003"><a xlink:href="PB3D_8f90.html#a36e5b0ce05c9783f58b43c4463b290a1" target="_top" xlink:title="Peeling Ballooning in 3D.">
<polygon fill="white" stroke="#666666" points="88,-39.75 0,-39.75 0,-19 88,-19 88,-39.75"/>
<text xml:space="preserve" text-anchor="middle" x="44" y="-24.35" font-family="Ubuntu Mono" font-size="12.00">__pb3d_f90__</text>
</a>
</g>
</g>
<!-- Node2&#45;&gt;Node3 -->
<g id="edge2_Node000002_Node000003" class="edge">
<title>Node2&#45;&gt;Node3</title>
<g id="a_edge2_Node000002_Node000003"><a xlink:title=" ">
<path fill="none" stroke="#63b8ff" d="M112.19,-29.38C103.93,-29.38 95.84,-29.38 88.3,-29.38"/>
<polygon fill="#63b8ff" stroke="#63b8ff" points="112.02,-32.88 122.02,-29.38 112.02,-25.88 112.02,-32.88"/>
</a>
</g>
</g>
<!-- Node4&#45;&gt;Node2 -->
<g id="edge4_Node000004_Node000002" class="edge">
<title>Node4&#45;&gt;Node2</title>
<g id="a_edge4_Node000004_Node000002"><a xlink:title=" ">
<path fill="none" stroke="#63b8ff" d="M308.28,-19.41C300.23,-20.19 292.15,-20.97 284.24,-21.73"/>
<polygon fill="#63b8ff" stroke="#63b8ff" points="308.47,-22.91 318.09,-18.47 307.8,-15.94 308.47,-22.91"/>
</a>
</g>
</g>
</g>
</svg>
