<?xml version="1.0" encoding="UTF-8" standalone="no"?>
<!DOCTYPE svg PUBLIC "-//W3C//DTD SVG 1.1//EN"
 "http://www.w3.org/Graphics/SVG/1.1/DTD/svg11.dtd">
<!-- Generated by graphviz version 2.38.0 (20140413.2041)
 -->
<!-- Title: mpi_ops::abort_mpi Pages: 1 -->
<svg width="383pt" height="70pt"
 viewBox="0.00 0.00 383.00 70.00" xmlns="http://www.w3.org/2000/svg" xmlns:xlink="http://www.w3.org/1999/xlink">
<g id="graph0" class="graph" transform="scale(1 1) rotate(0) translate(4 66)">
<title>mpi_ops::abort_mpi</title>
<polygon fill="white" stroke="none" points="-4,4 -4,-66 379,-66 379,4 -4,4"/>
<!-- Node1 -->
<g id="node1" class="node"><title>Node1</title>
<polygon fill="#bfbfbf" stroke="black" points="0,-20.5 0,-41.5 125,-41.5 125,-20.5 0,-20.5"/>
<text text-anchor="middle" x="62.5" y="-27.9" font-family="Ubuntu Mono" font-size="12.00">mpi_ops::abort_mpi</text>
</g>
<!-- Node2 -->
<g id="node2" class="node"><title>Node2</title>
<g id="a_node2"><a xlink:href="namespacempi__ops.html#a40e8610357a9a5b075fef9dab1c3f24f" target="_top" xlink:title="mpi_ops::sudden_stop">
<polygon fill="white" stroke="black" points="161,-40.5 161,-61.5 298,-61.5 298,-40.5 161,-40.5"/>
<text text-anchor="middle" x="229.5" y="-47.9" font-family="Ubuntu Mono" font-size="12.00">mpi_ops::sudden_stop</text>
</a>
</g>
</g>
<!-- Node1&#45;&gt;Node2 -->
<g id="edge1" class="edge"><title>Node1&#45;&gt;Node2</title>
<path fill="none" stroke="midnightblue" d="M135.602,-39.7396C144.038,-40.7622 152.621,-41.8025 160.991,-42.8171"/>
<polygon fill="midnightblue" stroke="midnightblue" points="135.758,-36.233 125.409,-38.5042 134.915,-43.1821 135.758,-36.233"/>
</g>
<!-- Node3 -->
<g id="node3" class="node"><title>Node3</title>
<g id="a_node3"><a xlink:href="POST_8f90.html#aaee67c546b34b4095587a626df7b98c2" target="_top" xlink:title="sudden_stop">
<polygon fill="white" stroke="black" points="188,-0.5 188,-21.5 271,-21.5 271,-0.5 188,-0.5"/>
<text text-anchor="middle" x="229.5" y="-7.9" font-family="Ubuntu Mono" font-size="12.00">sudden_stop</text>
</a>
</g>
</g>
<!-- Node1&#45;&gt;Node3 -->
<g id="edge2" class="edge"><title>Node1&#45;&gt;Node3</title>
<path fill="none" stroke="midnightblue" d="M135.797,-22.2367C153.609,-20.0777 172.066,-17.8405 187.776,-15.9362"/>
<polygon fill="midnightblue" stroke="midnightblue" points="134.915,-18.8179 125.409,-23.4958 135.758,-25.767 134.915,-18.8179"/>
</g>
<!-- Node4 -->
<g id="node4" class="node"><title>Node4</title>
<g id="a_node4"><a xlink:href="PB3D_8f90.html#afaee01f014ab3398eecac996b2795fd2" target="_top" xlink:title="pb3d">
<polygon fill="white" stroke="black" points="334,-0.5 334,-21.5 375,-21.5 375,-0.5 334,-0.5"/>
<text text-anchor="middle" x="354.5" y="-7.9" font-family="Ubuntu Mono" font-size="12.00">pb3d</text>
</a>
</g>
</g>
<!-- Node3&#45;&gt;Node4 -->
<g id="edge3" class="edge"><title>Node3&#45;&gt;Node4</title>
<path fill="none" stroke="midnightblue" d="M281.25,-11C299.823,-11 319.745,-11 333.956,-11"/>
<polygon fill="midnightblue" stroke="midnightblue" points="281.116,-7.5001 271.116,-11 281.116,-14.5001 281.116,-7.5001"/>
</g>
</g>
</svg>
