<?xml version="1.0" encoding="UTF-8" standalone="no"?>
<!DOCTYPE svg PUBLIC "-//W3C//DTD SVG 1.1//EN"
 "http://www.w3.org/Graphics/SVG/1.1/DTD/svg11.dtd">
<!-- Generated by graphviz version 14.1.2 (20260124.0452)
 -->
<!-- Title: input_utilities::get_real Pages: 1 -->
<svg width="684pt" height="162pt"
 viewBox="0.00 0.00 684.00 162.00" xmlns="http://www.w3.org/2000/svg" xmlns:xlink="http://www.w3.org/1999/xlink">
<g id="graph0" class="graph" transform="scale(1 1) rotate(0) translate(4 157.75)">
<title>input_utilities::get_real</title>
<!-- Node1 -->
<g id="Node000001" class="node">
<title>Node1</title>
<g id="a_Node000001"><a xlink:title="Queries for user input for a real value, where allowable range can be provided as well.">
<polygon fill="#999999" stroke="#666666" points="166,-77.75 0,-77.75 0,-57 166,-57 166,-77.75"/>
<text xml:space="preserve" text-anchor="middle" x="83" y="-62.35" font-family="Ubuntu Mono" font-size="12.00">input_utilities::get_real</text>
</a>
</g>
</g>
<!-- Node2 -->
<g id="Node000002" class="node">
<title>Node2</title>
<g id="a_Node000002"><a xlink:href="namespacestr__utilities.html#ac778d706b2e021672618939ab58fdd32" target="_top" xlink:title="Convert a real (double) to string.">
<polygon fill="white" stroke="#666666" points="344,-135.75 202,-135.75 202,-115 344,-115 344,-135.75"/>
<text xml:space="preserve" text-anchor="middle" x="273" y="-120.35" font-family="Ubuntu Mono" font-size="12.00">str_utilities::r2strt</text>
</a>
</g>
</g>
<!-- Node1&#45;&gt;Node2 -->
<g id="edge1_Node000001_Node000002" class="edge">
<title>Node1&#45;&gt;Node2</title>
<g id="a_edge1_Node000001_Node000002"><a xlink:title=" ">
<path fill="none" stroke="#63b8ff" d="M116.72,-78.23C140.35,-86 173.07,-96.59 202,-105.38 208.67,-107.4 215.71,-109.48 222.65,-111.5"/>
<polygon fill="#63b8ff" stroke="#63b8ff" points="221.39,-114.78 231.97,-114.18 223.33,-108.05 221.39,-114.78"/>
</a>
</g>
</g>
<!-- Node3 -->
<g id="Node000003" class="node">
<title>Node3</title>
<g id="a_Node000003"><a xlink:href="namespacemessages.html#a84d5988f3ea5ca8dc2834032f896ae90" target="_top" xlink:title="Start a timer.">
<polygon fill="white" stroke="#666666" points="341,-96.75 205,-96.75 205,-76 341,-76 341,-96.75"/>
<text xml:space="preserve" text-anchor="middle" x="273" y="-81.35" font-family="Ubuntu Mono" font-size="12.00">messages::start_time</text>
</a>
</g>
</g>
<!-- Node1&#45;&gt;Node3 -->
<g id="edge3_Node000001_Node000003" class="edge">
<title>Node1&#45;&gt;Node3</title>
<g id="a_edge3_Node000001_Node000003"><a xlink:title=" ">
<path fill="none" stroke="#63b8ff" d="M166.46,-75.71C175.31,-76.6 184.3,-77.51 193.1,-78.4"/>
<polygon fill="#63b8ff" stroke="#63b8ff" points="192.74,-81.88 203.04,-79.41 193.44,-74.92 192.74,-81.88"/>
</a>
</g>
</g>
<!-- Node4 -->
<g id="Node000004" class="node">
<title>Node4</title>
<g id="a_Node000004"><a xlink:href="namespacemessages.html#aa4a8d01563e92558e8a0875b075ec54c" target="_top" xlink:title="Write output to file identified by output_i.">
<polygon fill="white" stroke="#666666" points="486,-58.75 380,-58.75 380,-38 486,-38 486,-58.75"/>
<text xml:space="preserve" text-anchor="middle" x="433" y="-43.35" font-family="Ubuntu Mono" font-size="12.00">messages::writo</text>
</a>
</g>
</g>
<!-- Node1&#45;&gt;Node4 -->
<g id="edge10_Node000001_Node000004" class="edge">
<title>Node1&#45;&gt;Node4</title>
<g id="a_edge10_Node000001_Node000004"><a xlink:title=" ">
<path fill="none" stroke="#63b8ff" d="M166.47,-62.87C228.24,-59.5 311.53,-54.95 368.24,-51.86"/>
<polygon fill="#63b8ff" stroke="#63b8ff" points="368.26,-55.36 378.06,-51.32 367.88,-48.37 368.26,-55.36"/>
</a>
</g>
</g>
<!-- Node7 -->
<g id="Node000007" class="node">
<title>Node7</title>
<g id="a_Node000007"><a xlink:href="namespacemessages.html#aed343894ae4a28ad6dfbd1d39aac64ff" target="_top" xlink:title="Stop a timer.">
<polygon fill="white" stroke="#666666" points="338,-20.75 208,-20.75 208,0 338,0 338,-20.75"/>
<text xml:space="preserve" text-anchor="middle" x="273" y="-5.35" font-family="Ubuntu Mono" font-size="12.00">messages::stop_time</text>
</a>
</g>
</g>
<!-- Node1&#45;&gt;Node7 -->
<g id="edge8_Node000001_Node000007" class="edge">
<title>Node1&#45;&gt;Node7</title>
<g id="a_edge8_Node000001_Node000007"><a xlink:title=" ">
<path fill="none" stroke="#63b8ff" d="M119.8,-56.52C149.86,-47.41 193,-34.33 225.68,-24.42"/>
<polygon fill="#63b8ff" stroke="#63b8ff" points="226.33,-27.88 234.88,-21.63 224.3,-21.18 226.33,-27.88"/>
</a>
</g>
</g>
<!-- Node2&#45;&gt;Node2 -->
<g id="edge2_Node000002_Node000002" class="edge">
<title>Node2&#45;&gt;Node2</title>
<g id="a_edge2_Node000002_Node000002"><a xlink:title=" ">
<path fill="none" stroke="#63b8ff" d="M247.22,-136.15C236.91,-144.81 245.5,-153.75 273,-153.75 288.04,-153.75 297.42,-151.08 301.15,-147.24"/>
<polygon fill="#63b8ff" stroke="#63b8ff" points="304.61,-146.67 299.1,-137.63 297.77,-148.14 304.61,-146.67"/>
</a>
</g>
</g>
<!-- Node3&#45;&gt;Node4 -->
<g id="edge4_Node000003_Node000004" class="edge">
<title>Node3&#45;&gt;Node4</title>
<g id="a_edge4_Node000003_Node000004"><a xlink:title=" ">
<path fill="none" stroke="#63b8ff" d="M318.85,-75.59C336.62,-71.32 357.23,-66.36 375.96,-61.85"/>
<polygon fill="#63b8ff" stroke="#63b8ff" points="376.66,-65.28 385.56,-59.54 375.02,-58.48 376.66,-65.28"/>
</a>
</g>
</g>
<!-- Node5 -->
<g id="Node000005" class="node">
<title>Node5</title>
<g id="a_Node000005"><a xlink:href="namespacemessages.html#a82dddaab795b78b3d39e1ff1aab2f665" target="_top" xlink:title="Returns the memory usage in kilobytes.">
<polygon fill="white" stroke="#666666" points="676,-87.75 522,-87.75 522,-67 676,-67 676,-87.75"/>
<text xml:space="preserve" text-anchor="middle" x="599" y="-72.35" font-family="Ubuntu Mono" font-size="12.00">messages::get_mem_usage</text>
</a>
</g>
</g>
<!-- Node4&#45;&gt;Node5 -->
<g id="edge5_Node000004_Node000005" class="edge">
<title>Node4&#45;&gt;Node5</title>
<g id="a_edge5_Node000004_Node000005"><a xlink:title=" ">
<path fill="none" stroke="#63b8ff" d="M486.34,-57.63C498.86,-59.85 512.45,-62.25 525.7,-64.59"/>
<polygon fill="#63b8ff" stroke="#63b8ff" points="524.77,-67.98 535.23,-66.28 525.99,-61.09 524.77,-67.98"/>
</a>
</g>
</g>
<!-- Node6 -->
<g id="Node000006" class="node">
<title>Node6</title>
<g id="a_Node000006"><a xlink:href="namespacestr__utilities.html#a0b97e51770725a3e98ed393d26681414" target="_top" xlink:title="Convert an integer to string.">
<polygon fill="white" stroke="#666666" points="667,-30.75 531,-30.75 531,-10 667,-10 667,-30.75"/>
<text xml:space="preserve" text-anchor="middle" x="599" y="-15.35" font-family="Ubuntu Mono" font-size="12.00">str_utilities::i2str</text>
</a>
</g>
</g>
<!-- Node4&#45;&gt;Node6 -->
<g id="edge6_Node000004_Node000006" class="edge">
<title>Node4&#45;&gt;Node6</title>
<g id="a_edge6_Node000004_Node000006"><a xlink:title=" ">
<path fill="none" stroke="#63b8ff" d="M486.34,-39.44C498.04,-37.44 510.67,-35.29 523.08,-33.17"/>
<polygon fill="#63b8ff" stroke="#63b8ff" points="523.62,-36.62 532.89,-31.49 522.45,-29.72 523.62,-36.62"/>
</a>
</g>
</g>
<!-- Node6&#45;&gt;Node6 -->
<g id="edge7_Node000006_Node000006" class="edge">
<title>Node6&#45;&gt;Node6</title>
<g id="a_edge7_Node000006_Node000006"><a xlink:title=" ">
<path fill="none" stroke="#63b8ff" d="M572.25,-31.15C561.55,-39.81 570.47,-48.75 599,-48.75 614.6,-48.75 624.34,-46.08 628.21,-42.24"/>
<polygon fill="#63b8ff" stroke="#63b8ff" points="631.66,-41.63 626.08,-32.62 624.83,-43.15 631.66,-41.63"/>
</a>
</g>
</g>
<!-- Node7&#45;&gt;Node4 -->
<g id="edge9_Node000007_Node000004" class="edge">
<title>Node7&#45;&gt;Node4</title>
<g id="a_edge9_Node000007_Node000004"><a xlink:title=" ">
<path fill="none" stroke="#63b8ff" d="M318.85,-21.16C336.62,-25.43 357.23,-30.39 375.96,-34.9"/>
<polygon fill="#63b8ff" stroke="#63b8ff" points="375.02,-38.27 385.56,-37.21 376.66,-31.47 375.02,-38.27"/>
</a>
</g>
</g>
</g>
</svg>
