<?xml version="1.0" encoding="UTF-8" standalone="no"?>
<!DOCTYPE svg PUBLIC "-//W3C//DTD SVG 1.1//EN"
 "http://www.w3.org/Graphics/SVG/1.1/DTD/svg11.dtd">
<!-- Generated by graphviz version 2.38.0 (20140413.2041)
 -->
<!-- Title: slepc_ops::stop_slepc Pages: 1 -->
<svg width="604pt" height="43pt"
 viewBox="0.00 0.00 604.00 43.00" xmlns="http://www.w3.org/2000/svg" xmlns:xlink="http://www.w3.org/1999/xlink">
<g id="graph0" class="graph" transform="scale(1 1) rotate(0) translate(4 39)">
<title>slepc_ops::stop_slepc</title>
<polygon fill="white" stroke="none" points="-4,4 -4,-39 600,-39 600,4 -4,4"/>
<!-- Node96 -->
<g id="node1" class="node"><title>Node96</title>
<polygon fill="#bfbfbf" stroke="black" points="0,-7 0,-28 143,-28 143,-7 0,-7"/>
<text text-anchor="middle" x="71.5" y="-14.4" font-family="Ubuntu Mono" font-size="12.00">slepc_ops::stop_slepc</text>
</g>
<!-- Node97 -->
<g id="node2" class="node"><title>Node97</title>
<g id="a_node2"><a xlink:href="namespaceslepc__ops.html#ad9d4a9b7275ac5a6b9b35e481a7c1710" target="_top" xlink:title="slepc_ops::solve_ev\l_system_slepc">
<polygon fill="white" stroke="black" points="179,-0.5 179,-34.5 310,-34.5 310,-0.5 179,-0.5"/>
<text text-anchor="start" x="187" y="-20.9" font-family="Ubuntu Mono" font-size="12.00">slepc_ops::solve_ev</text>
<text text-anchor="middle" x="244.5" y="-7.9" font-family="Ubuntu Mono" font-size="12.00">_system_slepc</text>
</a>
</g>
</g>
<!-- Node96&#45;&gt;Node97 -->
<g id="edge1" class="edge"><title>Node96&#45;&gt;Node97</title>
<path fill="none" stroke="midnightblue" d="M153.126,-17.5C161.762,-17.5 170.465,-17.5 178.881,-17.5"/>
<polygon fill="midnightblue" stroke="midnightblue" points="153.04,-14.0001 143.04,-17.5 153.039,-21.0001 153.04,-14.0001"/>
</g>
<!-- Node98 -->
<g id="node3" class="node"><title>Node98</title>
<g id="a_node3"><a xlink:href="namespacedriver__sol.html#a208ddea649ee160b7a55da8d0a5d4847" target="_top" xlink:title="driver_sol::run_driver_sol">
<polygon fill="white" stroke="black" points="346,-7 346,-28 519,-28 519,-7 346,-7"/>
<text text-anchor="middle" x="432.5" y="-14.4" font-family="Ubuntu Mono" font-size="12.00">driver_sol::run_driver_sol</text>
</a>
</g>
</g>
<!-- Node97&#45;&gt;Node98 -->
<g id="edge2" class="edge"><title>Node97&#45;&gt;Node98</title>
<path fill="none" stroke="midnightblue" d="M320.183,-17.5C328.607,-17.5 337.239,-17.5 345.788,-17.5"/>
<polygon fill="midnightblue" stroke="midnightblue" points="320.032,-14.0001 310.032,-17.5 320.032,-21.0001 320.032,-14.0001"/>
</g>
<!-- Node99 -->
<g id="node4" class="node"><title>Node99</title>
<g id="a_node4"><a xlink:href="PB3D_8f90.html#afaee01f014ab3398eecac996b2795fd2" target="_top" xlink:title="pb3d">
<polygon fill="white" stroke="black" points="555,-7 555,-28 596,-28 596,-7 555,-7"/>
<text text-anchor="middle" x="575.5" y="-14.4" font-family="Ubuntu Mono" font-size="12.00">pb3d</text>
</a>
</g>
</g>
<!-- Node98&#45;&gt;Node99 -->
<g id="edge3" class="edge"><title>Node98&#45;&gt;Node99</title>
<path fill="none" stroke="midnightblue" d="M529.337,-17.5C538.873,-17.5 547.695,-17.5 554.964,-17.5"/>
<polygon fill="midnightblue" stroke="midnightblue" points="529.178,-14.0001 519.178,-17.5 529.178,-21.0001 529.178,-14.0001"/>
</g>
</g>
</svg>
