<?xml version="1.0" encoding="UTF-8" standalone="no"?>
<!DOCTYPE svg PUBLIC "-//W3C//DTD SVG 1.1//EN"
 "http://www.w3.org/Graphics/SVG/1.1/DTD/svg11.dtd">
<!-- Generated by graphviz version 2.43.0 (0)
 -->
<!-- Title: test::test_calc_d2_smooth Pages: 1 -->
<svg width="860pt" height="356pt"
 viewBox="0.00 0.00 860.00 355.50" xmlns="http://www.w3.org/2000/svg" xmlns:xlink="http://www.w3.org/1999/xlink">
<g id="graph0" class="graph" transform="scale(1 1) rotate(0) translate(4 351.5)">
<title>test::test_calc_d2_smooth</title>
<polygon fill="white" stroke="transparent" points="-4,4 -4,-351.5 856,-351.5 856,4 -4,4"/>
<!-- Node1 -->
<g id="node1" class="node">
<title>Node1</title>
<g id="a_node1"><a xlink:title="Test calc_d2_smooth().">
<polygon fill="#bfbfbf" stroke="black" points="0,-171 0,-205 120,-205 120,-171 0,-171"/>
<text text-anchor="start" x="8" y="-191.4" font-family="Ubuntu Mono" font-size="12.00">test::test_calc_d2</text>
<text text-anchor="middle" x="60" y="-178.4" font-family="Ubuntu Mono" font-size="12.00">_smooth</text>
</a>
</g>
</g>
<!-- Node2 -->
<g id="node2" class="node">
<title>Node2</title>
<g id="a_node2"><a xlink:href="namespacenum__utilities.html#ab4c91a6478c4dd6f519f8ccbccc4094f" target="_top" xlink:title="Calculate second derivative with smoothing formula by Holoborodko, .">
<polygon fill="white" stroke="black" points="167.5,-313 167.5,-347 290.5,-347 290.5,-313 167.5,-313"/>
<text text-anchor="start" x="175.5" y="-333.4" font-family="Ubuntu Mono" font-size="12.00">num_utilities::calc</text>
<text text-anchor="middle" x="229" y="-320.4" font-family="Ubuntu Mono" font-size="12.00">_d2_smooth</text>
</a>
</g>
</g>
<!-- Node1&#45;&gt;Node2 -->
<g id="edge1" class="edge">
<title>Node1&#45;&gt;Node2</title>
<path fill="none" stroke="midnightblue" d="M72.31,-205.36C88.45,-228.99 120.13,-271.39 156,-298 161.05,-301.74 166.6,-305.18 172.32,-308.28"/>
<polygon fill="midnightblue" stroke="midnightblue" points="170.89,-311.48 181.38,-312.9 174.06,-305.25 170.89,-311.48"/>
</g>
<!-- Node3 -->
<g id="node3" class="node">
<title>Node3</title>
<g id="a_node3"><a xlink:href="namespaceinput__utilities.html#a03e09af96ba6f7e187ea4a1d9b743148" target="_top" xlink:title="Queries for user input for an integer value, where allowable range can be provided as well.">
<polygon fill="white" stroke="black" points="157.5,-177.5 157.5,-198.5 300.5,-198.5 300.5,-177.5 157.5,-177.5"/>
<text text-anchor="middle" x="229" y="-184.9" font-family="Ubuntu Mono" font-size="12.00">input_utilities::get_int</text>
</a>
</g>
</g>
<!-- Node1&#45;&gt;Node3 -->
<g id="edge2" class="edge">
<title>Node1&#45;&gt;Node3</title>
<path fill="none" stroke="midnightblue" d="M120.35,-188C129.07,-188 138.17,-188 147.23,-188"/>
<polygon fill="midnightblue" stroke="midnightblue" points="147.42,-191.5 157.42,-188 147.42,-184.5 147.42,-191.5"/>
</g>
<!-- Node6 -->
<g id="node6" class="node">
<title>Node6</title>
<g id="a_node6"><a xlink:href="namespacemessages.html#aa4a8d01563e92558e8a0875b075ec54c" target="_top" xlink:title="Write output to file identified by output_i.">
<polygon fill="white" stroke="black" points="519,-158.5 519,-179.5 633,-179.5 633,-158.5 519,-158.5"/>
<text text-anchor="middle" x="576" y="-165.9" font-family="Ubuntu Mono" font-size="12.00">messages::writo</text>
</a>
</g>
</g>
<!-- Node1&#45;&gt;Node6 -->
<g id="edge19" class="edge">
<title>Node1&#45;&gt;Node6</title>
<path fill="none" stroke="midnightblue" d="M120.25,-202.45C132.02,-204.76 144.35,-206.79 156,-208 300.56,-223.05 340.41,-233.13 483,-205 504.44,-200.77 527.33,-191.83 544.91,-183.92"/>
<polygon fill="midnightblue" stroke="midnightblue" points="546.49,-187.05 554.09,-179.67 543.54,-180.7 546.49,-187.05"/>
</g>
<!-- Node10 -->
<g id="node10" class="node">
<title>Node10</title>
<g id="a_node10"><a xlink:href="namespaceinput__utilities.html#ad9ce824c30b32041ab70f3fb191f06db" target="_top" xlink:title="Queries for a logical value yes or no, where the default answer is also to be provided.">
<polygon fill="white" stroke="black" points="156,-118.5 156,-139.5 302,-139.5 302,-118.5 156,-118.5"/>
<text text-anchor="middle" x="229" y="-125.9" font-family="Ubuntu Mono" font-size="12.00">input_utilities::get_log</text>
</a>
</g>
</g>
<!-- Node1&#45;&gt;Node10 -->
<g id="edge12" class="edge">
<title>Node1&#45;&gt;Node10</title>
<path fill="none" stroke="midnightblue" d="M109.3,-170.93C134.42,-162.06 164.74,-151.35 188.45,-142.97"/>
<polygon fill="midnightblue" stroke="midnightblue" points="189.91,-146.17 198.17,-139.54 187.58,-139.57 189.91,-146.17"/>
</g>
<!-- Node12 -->
<g id="node12" class="node">
<title>Node12</title>
<g id="a_node12"><a xlink:href="namespacemessages.html#a6e6bfb084063e4cc91ee86e542043302" target="_top" xlink:title="Increases/decreases lvl of output.">
<polygon fill="white" stroke="black" points="351.5,-0.5 351.5,-21.5 469.5,-21.5 469.5,-0.5 351.5,-0.5"/>
<text text-anchor="middle" x="410.5" y="-7.9" font-family="Ubuntu Mono" font-size="12.00">messages::lvl_ud</text>
</a>
</g>
</g>
<!-- Node1&#45;&gt;Node12 -->
<g id="edge17" class="edge">
<title>Node1&#45;&gt;Node12</title>
<path fill="none" stroke="midnightblue" d="M78.37,-170.89C96.56,-153.63 126.54,-127.03 156,-109 231.06,-63.05 255,-60.25 338,-31 344.53,-28.7 351.48,-26.48 358.37,-24.41"/>
<polygon fill="midnightblue" stroke="midnightblue" points="359.75,-27.66 368.37,-21.5 357.79,-20.94 359.75,-27.66"/>
</g>
<!-- Node4 -->
<g id="node4" class="node">
<title>Node4</title>
<g id="a_node4"><a xlink:href="namespacestr__utilities.html#a0b97e51770725a3e98ed393d26681414" target="_top" xlink:title="Convert an integer to string.">
<polygon fill="white" stroke="black" points="703.5,-226.5 703.5,-247.5 817.5,-247.5 817.5,-226.5 703.5,-226.5"/>
<text text-anchor="middle" x="760.5" y="-233.9" font-family="Ubuntu Mono" font-size="12.00">str_utilities::i2str</text>
</a>
</g>
</g>
<!-- Node3&#45;&gt;Node4 -->
<g id="edge3" class="edge">
<title>Node3&#45;&gt;Node4</title>
<path fill="none" stroke="midnightblue" d="M291.28,-198.52C306.51,-200.9 322.82,-203.23 338,-205 463.26,-219.59 610.27,-229.01 693.39,-233.63"/>
<polygon fill="midnightblue" stroke="midnightblue" points="693.28,-237.13 703.45,-234.18 693.66,-230.14 693.28,-237.13"/>
</g>
<!-- Node5 -->
<g id="node5" class="node">
<title>Node5</title>
<g id="a_node5"><a xlink:href="namespacemessages.html#a84d5988f3ea5ca8dc2834032f896ae90" target="_top" xlink:title="Start a timer.">
<polygon fill="white" stroke="black" points="338,-118.5 338,-139.5 483,-139.5 483,-118.5 338,-118.5"/>
<text text-anchor="middle" x="410.5" y="-125.9" font-family="Ubuntu Mono" font-size="12.00">messages::start_time</text>
</a>
</g>
</g>
<!-- Node3&#45;&gt;Node5 -->
<g id="edge4" class="edge">
<title>Node3&#45;&gt;Node5</title>
<path fill="none" stroke="midnightblue" d="M257.33,-177.5C279.05,-169.31 310.28,-157.87 338,-149 345.01,-146.76 352.44,-144.52 359.76,-142.4"/>
<polygon fill="midnightblue" stroke="midnightblue" points="360.98,-145.7 369.63,-139.59 359.06,-138.96 360.98,-145.7"/>
</g>
<!-- Node3&#45;&gt;Node6 -->
<g id="edge11" class="edge">
<title>Node3&#45;&gt;Node6</title>
<path fill="none" stroke="midnightblue" d="M300.56,-192.45C351.43,-194.65 421.64,-195.59 483,-189 496.86,-187.51 511.69,-184.8 525.31,-181.84"/>
<polygon fill="midnightblue" stroke="midnightblue" points="526.47,-185.16 535.45,-179.54 524.93,-178.33 526.47,-185.16"/>
</g>
<!-- Node9 -->
<g id="node9" class="node">
<title>Node9</title>
<g id="a_node9"><a xlink:href="namespacemessages.html#aed343894ae4a28ad6dfbd1d39aac64ff" target="_top" xlink:title="Stop a timer.">
<polygon fill="white" stroke="black" points="339,-158.5 339,-179.5 482,-179.5 482,-158.5 339,-158.5"/>
<text text-anchor="middle" x="410.5" y="-165.9" font-family="Ubuntu Mono" font-size="12.00">messages::stop_time</text>
</a>
</g>
</g>
<!-- Node3&#45;&gt;Node9 -->
<g id="edge9" class="edge">
<title>Node3&#45;&gt;Node9</title>
<path fill="none" stroke="midnightblue" d="M300.69,-180.52C309.91,-179.54 319.41,-178.54 328.78,-177.54"/>
<polygon fill="midnightblue" stroke="midnightblue" points="329.3,-181.01 338.88,-176.48 328.57,-174.05 329.3,-181.01"/>
</g>
<!-- Node5&#45;&gt;Node6 -->
<g id="edge5" class="edge">
<title>Node5&#45;&gt;Node6</title>
<path fill="none" stroke="midnightblue" d="M454.46,-139.51C475.22,-144.59 500.32,-150.73 522.23,-156.09"/>
<polygon fill="midnightblue" stroke="midnightblue" points="521.5,-159.51 532.05,-158.49 523.16,-152.72 521.5,-159.51"/>
</g>
<!-- Node6&#45;&gt;Node4 -->
<g id="edge8" class="edge">
<title>Node6&#45;&gt;Node4</title>
<path fill="none" stroke="midnightblue" d="M605.52,-179.62C636.72,-191.25 686.9,-209.95 721.44,-222.82"/>
<polygon fill="midnightblue" stroke="midnightblue" points="720.59,-226.24 731.18,-226.45 723.04,-219.68 720.59,-226.24"/>
</g>
<!-- Node7 -->
<g id="node7" class="node">
<title>Node7</title>
<g id="a_node7"><a xlink:href="namespacemessages.html#a61fd0b51b5e37d58fdc993c01792a3fd" target="_top" xlink:title="Returns the time.">
<polygon fill="white" stroke="black" points="690.5,-128.5 690.5,-149.5 830.5,-149.5 830.5,-128.5 690.5,-128.5"/>
<text text-anchor="middle" x="760.5" y="-135.9" font-family="Ubuntu Mono" font-size="12.00">messages::get_clock</text>
</a>
</g>
</g>
<!-- Node6&#45;&gt;Node7 -->
<g id="edge6" class="edge">
<title>Node6&#45;&gt;Node7</title>
<path fill="none" stroke="midnightblue" d="M633.25,-159.75C649.7,-157.05 667.95,-154.05 685.35,-151.19"/>
<polygon fill="midnightblue" stroke="midnightblue" points="686.17,-154.6 695.47,-149.53 685.03,-147.69 686.17,-154.6"/>
</g>
<!-- Node8 -->
<g id="node8" class="node">
<title>Node8</title>
<g id="a_node8"><a xlink:href="namespacemessages.html#a82dddaab795b78b3d39e1ff1aab2f665" target="_top" xlink:title="Returns the memory usage in kilobytes.">
<polygon fill="white" stroke="black" points="669,-168.5 669,-189.5 852,-189.5 852,-168.5 669,-168.5"/>
<text text-anchor="middle" x="760.5" y="-175.9" font-family="Ubuntu Mono" font-size="12.00">messages::get_mem_usage</text>
</a>
</g>
</g>
<!-- Node6&#45;&gt;Node8 -->
<g id="edge7" class="edge">
<title>Node6&#45;&gt;Node8</title>
<path fill="none" stroke="midnightblue" d="M633.25,-172.08C641.37,-172.53 649.94,-173 658.63,-173.47"/>
<polygon fill="midnightblue" stroke="midnightblue" points="658.68,-176.98 668.86,-174.03 659.06,-169.99 658.68,-176.98"/>
</g>
<!-- Node9&#45;&gt;Node6 -->
<g id="edge10" class="edge">
<title>Node9&#45;&gt;Node6</title>
<path fill="none" stroke="midnightblue" d="M482.26,-169C491.07,-169 500.05,-169 508.79,-169"/>
<polygon fill="midnightblue" stroke="midnightblue" points="508.91,-172.5 518.91,-169 508.91,-165.5 508.91,-172.5"/>
</g>
<!-- Node10&#45;&gt;Node5 -->
<g id="edge13" class="edge">
<title>Node10&#45;&gt;Node5</title>
<path fill="none" stroke="midnightblue" d="M302.23,-129C310.71,-129 319.4,-129 327.98,-129"/>
<polygon fill="midnightblue" stroke="midnightblue" points="328,-132.5 338,-129 328,-125.5 328,-132.5"/>
</g>
<!-- Node10&#45;&gt;Node6 -->
<g id="edge16" class="edge">
<title>Node10&#45;&gt;Node6</title>
<path fill="none" stroke="midnightblue" d="M264.79,-118.45C314.35,-105.15 407.61,-86.59 483,-109 510.96,-117.31 538.35,-137.11 555.88,-151.71"/>
<polygon fill="midnightblue" stroke="midnightblue" points="553.78,-154.52 563.64,-158.38 558.34,-149.21 553.78,-154.52"/>
</g>
<!-- Node10&#45;&gt;Node9 -->
<g id="edge14" class="edge">
<title>Node10&#45;&gt;Node9</title>
<path fill="none" stroke="midnightblue" d="M277.16,-139.51C300.26,-144.66 328.26,-150.9 352.54,-156.31"/>
<polygon fill="midnightblue" stroke="midnightblue" points="351.82,-159.73 362.34,-158.49 353.34,-152.9 351.82,-159.73"/>
</g>
<!-- Node11 -->
<g id="node11" class="node">
<title>Node11</title>
<g id="a_node11"><a xlink:href="namespacestr__utilities.html#a219964a283968cc6a968db0197d2187e" target="_top" xlink:title="Convert a string to lowercase.">
<polygon fill="white" stroke="black" points="350,-40.5 350,-61.5 471,-61.5 471,-40.5 350,-40.5"/>
<text text-anchor="middle" x="410.5" y="-47.9" font-family="Ubuntu Mono" font-size="12.00">str_utilities::strh2l</text>
</a>
</g>
</g>
<!-- Node10&#45;&gt;Node11 -->
<g id="edge15" class="edge">
<title>Node10&#45;&gt;Node11</title>
<path fill="none" stroke="midnightblue" d="M249.97,-118.3C271.4,-107.03 306.59,-89.14 338,-76 347.37,-72.08 357.6,-68.25 367.31,-64.81"/>
<polygon fill="midnightblue" stroke="midnightblue" points="368.5,-68.1 376.8,-61.51 366.2,-61.49 368.5,-68.1"/>
</g>
<!-- Node12&#45;&gt;Node6 -->
<g id="edge18" class="edge">
<title>Node12&#45;&gt;Node6</title>
<path fill="none" stroke="midnightblue" d="M465.38,-21.51C471.64,-24.02 477.68,-27.14 483,-31 525.32,-61.71 553.89,-118.29 566.93,-148.58"/>
<polygon fill="midnightblue" stroke="midnightblue" points="563.82,-150.23 570.89,-158.12 570.28,-147.54 563.82,-150.23"/>
</g>
</g>
</svg>
