<?xml version="1.0" encoding="UTF-8" standalone="no"?>
<!DOCTYPE svg PUBLIC "-//W3C//DTD SVG 1.1//EN"
 "http://www.w3.org/Graphics/SVG/1.1/DTD/svg11.dtd">
<!-- Generated by graphviz version 2.38.0 (20140413.2041)
 -->
<!-- Title: test::test_tor_fun Pages: 1 -->
<svg width="1022pt" height="627pt"
 viewBox="0.00 0.00 1022.00 627.01" xmlns="http://www.w3.org/2000/svg" xmlns:xlink="http://www.w3.org/1999/xlink">
<g id="graph0" class="graph" transform="scale(1 1) rotate(0) translate(4 623.007)">
<title>test::test_tor_fun</title>
<polygon fill="white" stroke="none" points="-4,4 -4,-623.007 1018,-623.007 1018,4 -4,4"/>
<!-- Node170 -->
<g id="node1" class="node"><title>Node170</title>
<polygon fill="#bfbfbf" stroke="black" points="0,-313.5 0,-334.5 125,-334.5 125,-313.5 0,-313.5"/>
<text text-anchor="middle" x="62.5" y="-320.9" font-family="Ubuntu Mono" font-size="12.00">test::test_tor_fun</text>
</g>
<!-- Node171 -->
<g id="node2" class="node"><title>Node171</title>
<g id="a_node2"><a xlink:href="namespacedtorh.html#af3f58b6705da916bfbaf7cc4ea05f610" target="_top" xlink:title="Calculates toroidal harmonics of a fixed order m and degrees up to nmax. ">
<polygon fill="white" stroke="black" points="197,-560.5 197,-581.5 292,-581.5 292,-560.5 197,-560.5"/>
<text text-anchor="middle" x="244.5" y="-567.9" font-family="Ubuntu Mono" font-size="12.00">dtorh::dtorh1</text>
</a>
</g>
</g>
<!-- Node170&#45;&gt;Node171 -->
<g id="edge1" class="edge"><title>Node170&#45;&gt;Node171</title>
<path fill="none" stroke="midnightblue" d="M64.9916,-334.638C70.5425,-370.178 93.2938,-485.943 161,-546 168.473,-552.629 177.658,-557.501 187.154,-561.081"/>
<polygon fill="midnightblue" stroke="midnightblue" points="186.109,-564.422 196.702,-564.248 188.313,-557.778 186.109,-564.422"/>
</g>
<!-- Node172 -->
<g id="node3" class="node"><title>Node172</title>
<g id="a_node3"><a xlink:href="namespacestr__utilities.html#a92ac6c0af1979df094de1caddd28ade0" target="_top" xlink:title="Convert a real (double) to string. ">
<polygon fill="white" stroke="black" points="379,-560.5 379,-581.5 516,-581.5 516,-560.5 379,-560.5"/>
<text text-anchor="middle" x="447.5" y="-567.9" font-family="Ubuntu Mono" font-size="12.00">str_utilities::r2str</text>
</a>
</g>
</g>
<!-- Node170&#45;&gt;Node172 -->
<g id="edge26" class="edge"><title>Node170&#45;&gt;Node172</title>
<path fill="none" stroke="midnightblue" d="M63.4641,-334.664C63.9724,-376.313 72.0352,-528.776 161,-591 237.821,-644.73 356.482,-608.399 413.585,-585.572"/>
<polygon fill="midnightblue" stroke="midnightblue" points="415.263,-588.667 423.182,-581.629 412.602,-582.192 415.263,-588.667"/>
</g>
<!-- Node173 -->
<g id="node4" class="node"><title>Node173</title>
<g id="a_node4"><a xlink:href="namespacemessages.html#a6e6bfb084063e4cc91ee86e542043302" target="_top" xlink:title="Increases/decreases lvl of output. ">
<polygon fill="white" stroke="black" points="567,-333.5 567,-354.5 680,-354.5 680,-333.5 567,-333.5"/>
<text text-anchor="middle" x="623.5" y="-340.9" font-family="Ubuntu Mono" font-size="12.00">messages::lvl_ud</text>
</a>
</g>
</g>
<!-- Node170&#45;&gt;Node173 -->
<g id="edge3" class="edge"><title>Node170&#45;&gt;Node173</title>
<path fill="none" stroke="midnightblue" d="M125.19,-326.207C231.366,-330.006 447.72,-337.747 556.68,-341.645"/>
<polygon fill="midnightblue" stroke="midnightblue" points="556.764,-345.15 566.882,-342.01 557.014,-338.155 556.764,-345.15"/>
</g>
<!-- Node174 -->
<g id="node5" class="node"><title>Node174</title>
<g id="a_node5"><a xlink:href="namespacemessages.html#aa4a8d01563e92558e8a0875b075ec54c" target="_top" xlink:title="Write output to file identified by output_i. ">
<polygon fill="white" stroke="black" points="716,-275.5 716,-296.5 823,-296.5 823,-275.5 716,-275.5"/>
<text text-anchor="middle" x="769.5" y="-282.9" font-family="Ubuntu Mono" font-size="12.00">messages::writo</text>
</a>
</g>
</g>
<!-- Node170&#45;&gt;Node174 -->
<g id="edge7" class="edge"><title>Node170&#45;&gt;Node174</title>
<path fill="none" stroke="midnightblue" d="M70.9475,-334.526C85.9068,-355.007 121.566,-400.609 161,-428 299.578,-524.256 367.691,-555.417 531,-513 604.369,-493.944 625.263,-482.441 680,-430 718.477,-393.137 746.897,-336.116 760.168,-306.082"/>
<polygon fill="midnightblue" stroke="midnightblue" points="763.484,-307.231 764.222,-296.662 757.054,-304.464 763.484,-307.231"/>
</g>
<!-- Node177 -->
<g id="node8" class="node"><title>Node177</title>
<g id="a_node8"><a xlink:href="namespaceinput__utilities.html#ad9ce824c30b32041ab70f3fb191f06db" target="_top" xlink:title="Queries for a logical value yes or no, where the default answer is also to be provided. ">
<polygon fill="white" stroke="black" points="164,-236.5 164,-257.5 325,-257.5 325,-236.5 164,-236.5"/>
<text text-anchor="middle" x="244.5" y="-243.9" font-family="Ubuntu Mono" font-size="12.00">input_utilities::get_log</text>
</a>
</g>
</g>
<!-- Node170&#45;&gt;Node177 -->
<g id="edge8" class="edge"><title>Node170&#45;&gt;Node177</title>
<path fill="none" stroke="midnightblue" d="M88.1508,-313.455C119.57,-300.014 174.044,-276.712 209.422,-261.578"/>
<polygon fill="midnightblue" stroke="midnightblue" points="211.041,-264.692 218.859,-257.541 208.288,-258.256 211.041,-264.692"/>
</g>
<!-- Node181 -->
<g id="node12" class="node"><title>Node181</title>
<g id="a_node12"><a xlink:href="namespaceinput__utilities.html#a41fc0c806e12bc722771210cfa1edbd3" target="_top" xlink:title="Queries for user input for a real value, where allowable range can be provided as well...">
<polygon fill="white" stroke="black" points="161,-176.5 161,-197.5 328,-197.5 328,-176.5 161,-176.5"/>
<text text-anchor="middle" x="244.5" y="-183.9" font-family="Ubuntu Mono" font-size="12.00">input_utilities::get_real</text>
</a>
</g>
</g>
<!-- Node170&#45;&gt;Node181 -->
<g id="edge15" class="edge"><title>Node170&#45;&gt;Node181</title>
<path fill="none" stroke="midnightblue" d="M72.2226,-313.218C88.2157,-293.969 124.002,-253.254 161,-227 175.056,-217.026 191.982,-208.333 206.834,-201.622"/>
<polygon fill="midnightblue" stroke="midnightblue" points="208.486,-204.72 216.244,-197.504 205.679,-198.307 208.486,-204.72"/>
</g>
<!-- Node183 -->
<g id="node14" class="node"><title>Node183</title>
<g id="a_node14"><a xlink:href="namespaceinput__utilities.html#a03e09af96ba6f7e187ea4a1d9b743148" target="_top" xlink:title="Queries for user input for an integer value, where allowable range can be provided as well...">
<polygon fill="white" stroke="black" points="164,-136.5 164,-157.5 325,-157.5 325,-136.5 164,-136.5"/>
<text text-anchor="middle" x="244.5" y="-143.9" font-family="Ubuntu Mono" font-size="12.00">input_utilities::get_int</text>
</a>
</g>
</g>
<!-- Node170&#45;&gt;Node183 -->
<g id="edge20" class="edge"><title>Node170&#45;&gt;Node183</title>
<path fill="none" stroke="midnightblue" d="M66.9351,-313.226C76.655,-284.556 107.195,-205.938 161,-167 163.545,-165.159 166.237,-163.485 169.036,-161.964"/>
<polygon fill="midnightblue" stroke="midnightblue" points="170.727,-165.037 178.282,-157.609 167.744,-158.704 170.727,-165.037"/>
</g>
<!-- Node184 -->
<g id="node15" class="node"><title>Node184</title>
<g id="a_node15"><a xlink:href="namespacestr__utilities.html#a0b97e51770725a3e98ed393d26681414" target="_top" xlink:title="Convert an integer to string. ">
<polygon fill="white" stroke="black" points="379,-0.5 379,-21.5 516,-21.5 516,-0.5 379,-0.5"/>
<text text-anchor="middle" x="447.5" y="-7.9" font-family="Ubuntu Mono" font-size="12.00">str_utilities::i2str</text>
</a>
</g>
</g>
<!-- Node170&#45;&gt;Node184 -->
<g id="edge25" class="edge"><title>Node170&#45;&gt;Node184</title>
<path fill="none" stroke="midnightblue" d="M66.1013,-313.055C74.3699,-280.46 102.988,-182.839 161,-127 221.096,-69.1541 313.887,-38.7418 377.258,-23.8032"/>
<polygon fill="midnightblue" stroke="midnightblue" points="378.199,-27.1785 387.167,-21.5367 376.638,-20.3547 378.199,-27.1785"/>
</g>
<!-- Node185 -->
<g id="node16" class="node"><title>Node185</title>
<g id="a_node16"><a xlink:href="namespaceoutput__ops.html#a50bfbb88cc91805469353c3ff47b3e2e" target="_top" xlink:title="Use external program to draw a plot. ">
<polygon fill="white" stroke="black" points="179,-397.5 179,-418.5 310,-418.5 310,-397.5 179,-397.5"/>
<text text-anchor="middle" x="244.5" y="-404.9" font-family="Ubuntu Mono" font-size="12.00">output_ops::draw_ex</text>
</a>
</g>
</g>
<!-- Node170&#45;&gt;Node185 -->
<g id="edge27" class="edge"><title>Node170&#45;&gt;Node185</title>
<path fill="none" stroke="midnightblue" d="M86.2971,-334.639C118.081,-349.471 175.843,-376.427 211.804,-393.208"/>
<polygon fill="midnightblue" stroke="midnightblue" points="210.346,-396.39 220.888,-397.448 213.306,-390.047 210.346,-396.39"/>
</g>
<!-- Node171&#45;&gt;Node172 -->
<g id="edge2" class="edge"><title>Node171&#45;&gt;Node172</title>
<path fill="none" stroke="midnightblue" d="M292.119,-571C314.847,-571 342.796,-571 368.638,-571"/>
<polygon fill="midnightblue" stroke="midnightblue" points="368.801,-574.5 378.801,-571 368.801,-567.5 368.801,-574.5"/>
</g>
<!-- Node173&#45;&gt;Node174 -->
<g id="edge4" class="edge"><title>Node173&#45;&gt;Node174</title>
<path fill="none" stroke="midnightblue" d="M650.577,-333.497C673.575,-324.234 707.3,-310.65 732.8,-300.379"/>
<polygon fill="midnightblue" stroke="midnightblue" points="734.162,-303.604 742.13,-296.621 731.547,-297.111 734.162,-303.604"/>
</g>
<!-- Node175 -->
<g id="node6" class="node"><title>Node175</title>
<g id="a_node6"><a xlink:href="namespacemessages.html#a82dddaab795b78b3d39e1ff1aab2f665" target="_top" xlink:title="Returns the memory usage in kilobytes. ">
<polygon fill="white" stroke="black" points="859,-295.5 859,-316.5 1014,-316.5 1014,-295.5 859,-295.5"/>
<text text-anchor="middle" x="936.5" y="-302.9" font-family="Ubuntu Mono" font-size="12.00">messages::get_mem_usage</text>
</a>
</g>
</g>
<!-- Node174&#45;&gt;Node175 -->
<g id="edge5" class="edge"><title>Node174&#45;&gt;Node175</title>
<path fill="none" stroke="midnightblue" d="M823.161,-292.383C831.452,-293.388 840.208,-294.449 849.025,-295.518"/>
<polygon fill="midnightblue" stroke="midnightblue" points="848.635,-298.996 858.984,-296.725 849.478,-292.047 848.635,-298.996"/>
</g>
<!-- Node176 -->
<g id="node7" class="node"><title>Node176</title>
<g id="a_node7"><a xlink:href="namespacemessages.html#a61fd0b51b5e37d58fdc993c01792a3fd" target="_top" xlink:title="Returns the time. ">
<polygon fill="white" stroke="black" points="871,-255.5 871,-276.5 1002,-276.5 1002,-255.5 871,-255.5"/>
<text text-anchor="middle" x="936.5" y="-262.9" font-family="Ubuntu Mono" font-size="12.00">messages::get_clock</text>
</a>
</g>
</g>
<!-- Node174&#45;&gt;Node176 -->
<g id="edge6" class="edge"><title>Node174&#45;&gt;Node176</title>
<path fill="none" stroke="midnightblue" d="M823.161,-279.617C835.142,-278.165 848.094,-276.595 860.797,-275.055"/>
<polygon fill="midnightblue" stroke="midnightblue" points="861.402,-278.507 870.908,-273.829 860.56,-271.558 861.402,-278.507"/>
</g>
<!-- Node177&#45;&gt;Node174 -->
<g id="edge14" class="edge"><title>Node177&#45;&gt;Node174</title>
<path fill="none" stroke="midnightblue" d="M299.583,-257.536C319.731,-261.089 342.841,-264.726 364,-267 484.415,-279.942 625.934,-284.07 705.63,-285.385"/>
<polygon fill="midnightblue" stroke="midnightblue" points="705.93,-288.89 715.984,-285.546 706.039,-281.891 705.93,-288.89"/>
</g>
<!-- Node178 -->
<g id="node9" class="node"><title>Node178</title>
<g id="a_node9"><a xlink:href="namespacemessages.html#aed343894ae4a28ad6dfbd1d39aac64ff" target="_top" xlink:title="Stop a timer. ">
<polygon fill="white" stroke="black" points="382,-196.5 382,-217.5 513,-217.5 513,-196.5 382,-196.5"/>
<text text-anchor="middle" x="447.5" y="-203.9" font-family="Ubuntu Mono" font-size="12.00">messages::stop_time</text>
</a>
</g>
</g>
<!-- Node177&#45;&gt;Node178 -->
<g id="edge9" class="edge"><title>Node177&#45;&gt;Node178</title>
<path fill="none" stroke="midnightblue" d="M298.31,-236.49C324.519,-231.275 356.361,-224.938 383.802,-219.477"/>
<polygon fill="midnightblue" stroke="midnightblue" points="384.569,-222.893 393.694,-217.509 383.203,-216.028 384.569,-222.893"/>
</g>
<!-- Node179 -->
<g id="node10" class="node"><title>Node179</title>
<g id="a_node10"><a xlink:href="namespacemessages.html#a84d5988f3ea5ca8dc2834032f896ae90" target="_top" xlink:title="Start a timer. ">
<polygon fill="white" stroke="black" points="379,-156.5 379,-177.5 516,-177.5 516,-156.5 379,-156.5"/>
<text text-anchor="middle" x="447.5" y="-163.9" font-family="Ubuntu Mono" font-size="12.00">messages::start_time</text>
</a>
</g>
</g>
<!-- Node177&#45;&gt;Node179 -->
<g id="edge11" class="edge"><title>Node177&#45;&gt;Node179</title>
<path fill="none" stroke="midnightblue" d="M268.078,-236.469C284.754,-228.59 307.944,-217.423 328,-207 344.241,-198.56 346.952,-193.661 364,-187 370.364,-184.514 377.128,-182.272 383.94,-180.268"/>
<polygon fill="midnightblue" stroke="midnightblue" points="385.211,-183.547 393.911,-177.501 383.34,-176.802 385.211,-183.547"/>
</g>
<!-- Node180 -->
<g id="node11" class="node"><title>Node180</title>
<g id="a_node11"><a xlink:href="namespacestr__utilities.html#a219964a283968cc6a968db0197d2187e" target="_top" xlink:title="Convert a string to lowercase. ">
<polygon fill="white" stroke="black" points="376,-236.5 376,-257.5 519,-257.5 519,-236.5 376,-236.5"/>
<text text-anchor="middle" x="447.5" y="-243.9" font-family="Ubuntu Mono" font-size="12.00">str_utilities::strh2l</text>
</a>
</g>
</g>
<!-- Node177&#45;&gt;Node180 -->
<g id="edge13" class="edge"><title>Node177&#45;&gt;Node180</title>
<path fill="none" stroke="midnightblue" d="M325.229,-247C338.593,-247 352.468,-247 365.854,-247"/>
<polygon fill="midnightblue" stroke="midnightblue" points="365.979,-250.5 375.979,-247 365.979,-243.5 365.979,-250.5"/>
</g>
<!-- Node178&#45;&gt;Node174 -->
<g id="edge10" class="edge"><title>Node178&#45;&gt;Node174</title>
<path fill="none" stroke="midnightblue" d="M492.183,-217.541C504.72,-220.58 518.405,-223.909 531,-227 594.946,-242.694 668.508,-261.008 716.609,-273.02"/>
<polygon fill="midnightblue" stroke="midnightblue" points="715.924,-276.456 726.474,-275.484 717.62,-269.665 715.924,-276.456"/>
</g>
<!-- Node179&#45;&gt;Node174 -->
<g id="edge12" class="edge"><title>Node179&#45;&gt;Node174</title>
<path fill="none" stroke="midnightblue" d="M494.018,-177.503C506.079,-180.431 519.064,-183.714 531,-187 597.82,-205.395 616.704,-204.77 680,-233 703.121,-243.312 727.692,-258.396 745.062,-269.837"/>
<polygon fill="midnightblue" stroke="midnightblue" points="743.186,-272.793 753.444,-275.444 747.078,-266.975 743.186,-272.793"/>
</g>
<!-- Node181&#45;&gt;Node174 -->
<g id="edge19" class="edge"><title>Node181&#45;&gt;Node174</title>
<path fill="none" stroke="midnightblue" d="M310.779,-176.474C316.911,-173.954 322.776,-170.842 328,-167 353.053,-148.576 336.938,-122.322 364,-107 428.588,-70.4308 459.306,-87.7944 531,-107 604.857,-126.785 619.918,-145.709 680,-193 708.81,-215.677 737.137,-247.61 753.706,-267.541"/>
<polygon fill="midnightblue" stroke="midnightblue" points="751.008,-269.771 760.054,-275.286 756.422,-265.334 751.008,-269.771"/>
</g>
<!-- Node181&#45;&gt;Node178 -->
<g id="edge17" class="edge"><title>Node181&#45;&gt;Node178</title>
<path fill="none" stroke="midnightblue" d="M328.125,-195.221C342.501,-196.652 357.382,-198.133 371.538,-199.541"/>
<polygon fill="midnightblue" stroke="midnightblue" points="371.404,-203.045 381.701,-200.552 372.097,-196.079 371.404,-203.045"/>
</g>
<!-- Node181&#45;&gt;Node179 -->
<g id="edge18" class="edge"><title>Node181&#45;&gt;Node179</title>
<path fill="none" stroke="midnightblue" d="M328.125,-178.779C341.585,-177.439 355.487,-176.056 368.824,-174.729"/>
<polygon fill="midnightblue" stroke="midnightblue" points="369.291,-178.2 378.895,-173.727 368.597,-171.234 369.291,-178.2"/>
</g>
<!-- Node182 -->
<g id="node13" class="node"><title>Node182</title>
<g id="a_node13"><a xlink:href="namespacestr__utilities.html#ac778d706b2e021672618939ab58fdd32" target="_top" xlink:title="Convert a real (double) to string. ">
<polygon fill="white" stroke="black" points="376,-116.5 376,-137.5 519,-137.5 519,-116.5 376,-116.5"/>
<text text-anchor="middle" x="447.5" y="-123.9" font-family="Ubuntu Mono" font-size="12.00">str_utilities::r2strt</text>
</a>
</g>
</g>
<!-- Node181&#45;&gt;Node182 -->
<g id="edge16" class="edge"><title>Node181&#45;&gt;Node182</title>
<path fill="none" stroke="midnightblue" d="M298.089,-176.499C308.169,-173.859 318.528,-170.701 328,-167 345.048,-160.339 346.952,-153.661 364,-147 370.364,-144.514 377.128,-142.272 383.94,-140.268"/>
<polygon fill="midnightblue" stroke="midnightblue" points="385.211,-143.547 393.911,-137.501 383.34,-136.802 385.211,-143.547"/>
</g>
<!-- Node183&#45;&gt;Node174 -->
<g id="edge24" class="edge"><title>Node183&#45;&gt;Node174</title>
<path fill="none" stroke="midnightblue" d="M262.493,-136.293C289.884,-119.275 342.861,-87.4169 364,-82 500.834,-46.936 568.2,-29.6644 680,-116 729.881,-154.52 754.396,-229.099 763.776,-265.294"/>
<polygon fill="midnightblue" stroke="midnightblue" points="760.427,-266.335 766.212,-275.212 767.225,-264.665 760.427,-266.335"/>
</g>
<!-- Node183&#45;&gt;Node178 -->
<g id="edge22" class="edge"><title>Node183&#45;&gt;Node178</title>
<path fill="none" stroke="midnightblue" d="M298.089,-157.501C308.169,-160.141 318.528,-163.299 328,-167 345.048,-173.661 346.952,-180.339 364,-187 370.364,-189.486 377.128,-191.728 383.94,-193.732"/>
<polygon fill="midnightblue" stroke="midnightblue" points="383.34,-197.198 393.911,-196.499 385.211,-190.453 383.34,-197.198"/>
</g>
<!-- Node183&#45;&gt;Node179 -->
<g id="edge23" class="edge"><title>Node183&#45;&gt;Node179</title>
<path fill="none" stroke="midnightblue" d="M325.229,-154.933C339.517,-156.355 354.391,-157.835 368.626,-159.251"/>
<polygon fill="midnightblue" stroke="midnightblue" points="368.564,-162.762 378.861,-160.27 369.257,-155.797 368.564,-162.762"/>
</g>
<!-- Node183&#45;&gt;Node184 -->
<g id="edge21" class="edge"><title>Node183&#45;&gt;Node184</title>
<path fill="none" stroke="midnightblue" d="M255.802,-136.167C279.817,-111.115 339.342,-50.2325 364,-36 371.628,-31.597 380.109,-27.8972 388.648,-24.8099"/>
<polygon fill="midnightblue" stroke="midnightblue" points="389.904,-28.0803 398.27,-21.5798 387.676,-21.4442 389.904,-28.0803"/>
</g>
<!-- Node185&#45;&gt;Node172 -->
<g id="edge35" class="edge"><title>Node185&#45;&gt;Node172</title>
<path fill="none" stroke="midnightblue" d="M256.573,-418.573C277.121,-438.018 322.813,-480.443 364,-513 382.774,-527.841 405.02,-543.369 421.677,-554.619"/>
<polygon fill="midnightblue" stroke="midnightblue" points="420.044,-557.737 430.299,-560.397 423.941,-551.922 420.044,-557.737"/>
</g>
<!-- Node185&#45;&gt;Node173 -->
<g id="edge34" class="edge"><title>Node185&#45;&gt;Node173</title>
<path fill="none" stroke="midnightblue" d="M287.831,-397.47C310.358,-392.091 338.584,-385.706 364,-381 429.195,-368.928 504.267,-358.573 556.652,-351.914"/>
<polygon fill="midnightblue" stroke="midnightblue" points="557.334,-355.356 566.817,-350.632 556.458,-348.411 557.334,-355.356"/>
</g>
<!-- Node185&#45;&gt;Node174 -->
<g id="edge29" class="edge"><title>Node185&#45;&gt;Node174</title>
<path fill="none" stroke="midnightblue" d="M282.054,-418.53C361.714,-439.174 553.917,-476.245 680,-395 715.635,-372.037 743.697,-329.969 758.029,-305.351"/>
<polygon fill="midnightblue" stroke="midnightblue" points="761.127,-306.984 762.997,-296.555 755.031,-303.542 761.127,-306.984"/>
</g>
<!-- Node185&#45;&gt;Node184 -->
<g id="edge28" class="edge"><title>Node185&#45;&gt;Node184</title>
<path fill="none" stroke="midnightblue" d="M253.362,-397.267C269.704,-374.458 307.517,-318.982 328,-267 354.721,-199.186 331.275,-172.13 364,-107 379.626,-75.9012 407.493,-46.539 426.475,-28.6671"/>
<polygon fill="midnightblue" stroke="midnightblue" points="429.015,-31.0861 434.004,-21.7396 424.275,-25.9347 429.015,-31.0861"/>
</g>
<!-- Node186 -->
<g id="node17" class="node"><title>Node186</title>
<g id="a_node17"><a xlink:href="namespacefiles__utilities.html#ac6066df405564ba2f5e3c4bba726c1f8" target="_top" xlink:title="Search for available new unit. ">
<polygon fill="white" stroke="black" points="364,-482.5 364,-503.5 531,-503.5 531,-482.5 364,-482.5"/>
<text text-anchor="middle" x="447.5" y="-489.9" font-family="Ubuntu Mono" font-size="12.00">files_utilities::nextunit</text>
</a>
</g>
</g>
<!-- Node185&#45;&gt;Node186 -->
<g id="edge30" class="edge"><title>Node185&#45;&gt;Node186</title>
<path fill="none" stroke="midnightblue" d="M263.913,-418.596C286.824,-431.481 327.402,-453.32 364,-468 374.422,-472.18 385.822,-476.058 396.731,-479.451"/>
<polygon fill="midnightblue" stroke="midnightblue" points="395.984,-482.882 406.569,-482.426 398.01,-476.181 395.984,-482.882"/>
</g>
<!-- Node187 -->
<g id="node18" class="node"><title>Node187</title>
<g id="a_node18"><a xlink:href="namespaceoutput__ops.html#aa9e4855511b6ea16a08b3efb587bec51" target="_top" xlink:title="Executes command line, or displays a message if disabled. ">
<polygon fill="white" stroke="black" points="370,-391 370,-425 525,-425 525,-391 370,-391"/>
<text text-anchor="start" x="378" y="-411.4" font-family="Ubuntu Mono" font-size="12.00">output_ops::use_execute</text>
<text text-anchor="middle" x="447.5" y="-398.4" font-family="Ubuntu Mono" font-size="12.00">_command_line</text>
</a>
</g>
</g>
<!-- Node185&#45;&gt;Node187 -->
<g id="edge31" class="edge"><title>Node185&#45;&gt;Node187</title>
<path fill="none" stroke="midnightblue" d="M310.204,-408C325.98,-408 343.11,-408 359.73,-408"/>
<polygon fill="midnightblue" stroke="midnightblue" points="359.995,-411.5 369.995,-408 359.995,-404.5 359.995,-411.5"/>
</g>
<!-- Node187&#45;&gt;Node173 -->
<g id="edge33" class="edge"><title>Node187&#45;&gt;Node173</title>
<path fill="none" stroke="midnightblue" d="M495.129,-390.849C522.979,-380.606 557.92,-367.753 584.158,-358.103"/>
<polygon fill="midnightblue" stroke="midnightblue" points="585.578,-361.31 593.755,-354.573 583.162,-354.74 585.578,-361.31"/>
</g>
<!-- Node187&#45;&gt;Node174 -->
<g id="edge32" class="edge"><title>Node187&#45;&gt;Node174</title>
<path fill="none" stroke="midnightblue" d="M525.218,-403.681C571.917,-398.611 631.679,-387.648 680,-364 709.672,-349.479 737.086,-322.292 753.309,-304.164"/>
<polygon fill="midnightblue" stroke="midnightblue" points="756.012,-306.389 759.943,-296.55 750.734,-301.791 756.012,-306.389"/>
</g>
</g>
</svg>
