<?xml version="1.0" encoding="UTF-8" standalone="no"?>
<!DOCTYPE svg PUBLIC "-//W3C//DTD SVG 1.1//EN"
 "http://www.w3.org/Graphics/SVG/1.1/DTD/svg11.dtd">
<!-- Generated by graphviz version 2.38.0 (20140413.2041)
 -->
<!-- Title: hdf5_ops::open_hdf5_file Pages: 1 -->
<svg width="640pt" height="104pt"
 viewBox="0.00 0.00 640.00 103.50" xmlns="http://www.w3.org/2000/svg" xmlns:xlink="http://www.w3.org/1999/xlink">
<g id="graph0" class="graph" transform="scale(1 1) rotate(0) translate(4 99.5)">
<title>hdf5_ops::open_hdf5_file</title>
<polygon fill="white" stroke="none" points="-4,4 -4,-99.5 636,-99.5 636,4 -4,4"/>
<!-- Node36 -->
<g id="node1" class="node"><title>Node36</title>
<polygon fill="#bfbfbf" stroke="black" points="0,-30 0,-51 161,-51 161,-30 0,-30"/>
<text text-anchor="middle" x="80.5" y="-37.4" font-family="Ubuntu Mono" font-size="12.00">hdf5_ops::open_hdf5_file</text>
</g>
<!-- Node37 -->
<g id="node2" class="node"><title>Node37</title>
<g id="a_node2"><a xlink:href="namespacegrid__ops.html#addd76b7b3be0b51e0863ae0cdfef41e6" target="_top" xlink:title="Plots the grid in real 3&#45;D space. ">
<polygon fill="white" stroke="black" points="197,-54 197,-75 358,-75 358,-54 197,-54"/>
<text text-anchor="middle" x="277.5" y="-61.4" font-family="Ubuntu Mono" font-size="12.00">grid_ops::magn_grid_plot</text>
</a>
</g>
</g>
<!-- Node36&#45;&gt;Node37 -->
<g id="edge1" class="edge"><title>Node36&#45;&gt;Node37</title>
<path fill="none" stroke="midnightblue" d="M171.117,-51.5298C179.7,-52.5861 188.365,-53.6526 196.843,-54.6961"/>
<polygon fill="midnightblue" stroke="midnightblue" points="171.448,-48.0442 161.095,-50.2963 170.593,-54.9918 171.448,-48.0442"/>
</g>
<!-- Node42 -->
<g id="node7" class="node"><title>Node42</title>
<g id="a_node7"><a xlink:href="interfaceoutput__ops_1_1plot__hdf5.html#aabeeacb6f9aab1fb21d226e6a315e3d1" target="_top" xlink:title="array version ">
<polygon fill="white" stroke="black" points="206,-0.5 206,-34.5 349,-34.5 349,-0.5 206,-0.5"/>
<text text-anchor="start" x="214" y="-20.9" font-family="Ubuntu Mono" font-size="12.00">output_ops::plot_hdf5</text>
<text text-anchor="middle" x="277.5" y="-7.9" font-family="Ubuntu Mono" font-size="12.00">::plot_hdf5_arr</text>
</a>
</g>
</g>
<!-- Node36&#45;&gt;Node42 -->
<g id="edge6" class="edge"><title>Node36&#45;&gt;Node42</title>
<path fill="none" stroke="midnightblue" d="M171.259,-29.913C182.888,-28.5414 194.664,-27.1524 205.921,-25.8247"/>
<polygon fill="midnightblue" stroke="midnightblue" points="170.616,-26.4645 161.095,-31.1118 171.436,-33.4163 170.616,-26.4645"/>
</g>
<!-- Node38 -->
<g id="node3" class="node"><title>Node38</title>
<g id="a_node3"><a xlink:href="namespacedriver__eq.html#adc9d5dff288fa512e5ef885627d940cc" target="_top" xlink:title="Main driver of PB3D equilibrium part. ">
<polygon fill="white" stroke="black" points="394,-74 394,-95 555,-95 555,-74 394,-74"/>
<text text-anchor="middle" x="474.5" y="-81.4" font-family="Ubuntu Mono" font-size="12.00">driver_eq::run_driver_eq</text>
</a>
</g>
</g>
<!-- Node37&#45;&gt;Node38 -->
<g id="edge2" class="edge"><title>Node37&#45;&gt;Node38</title>
<path fill="none" stroke="midnightblue" d="M368.117,-73.6915C376.7,-74.5718 385.365,-75.4605 393.843,-76.3301"/>
<polygon fill="midnightblue" stroke="midnightblue" points="368.4,-70.2023 358.095,-72.6636 367.686,-77.1657 368.4,-70.2023"/>
</g>
<!-- Node40 -->
<g id="node5" class="node"><title>Node40</title>
<g id="a_node5"><a xlink:href="namespacedriver__post.html#af527706d4e696d4e507443d2f74194ef" target="_top" xlink:title="Initializes the POST driver. ">
<polygon fill="white" stroke="black" points="400,-34 400,-55 549,-55 549,-34 400,-34"/>
<text text-anchor="middle" x="474.5" y="-41.4" font-family="Ubuntu Mono" font-size="12.00">driver_post::init_post</text>
</a>
</g>
</g>
<!-- Node37&#45;&gt;Node40 -->
<g id="edge4" class="edge"><title>Node37&#45;&gt;Node40</title>
<path fill="none" stroke="midnightblue" d="M368.189,-55.3011C378.775,-54.2154 389.483,-53.1171 399.812,-52.0577"/>
<polygon fill="midnightblue" stroke="midnightblue" points="367.686,-51.8343 358.095,-56.3364 368.4,-58.7977 367.686,-51.8343"/>
</g>
<!-- Node39 -->
<g id="node4" class="node"><title>Node39</title>
<g id="a_node4"><a xlink:href="PB3D_8f90.html#afaee01f014ab3398eecac996b2795fd2" target="_top" xlink:title="Peeling Ballooning in 3D. ">
<polygon fill="white" stroke="black" points="591,-74 591,-95 632,-95 632,-74 591,-74"/>
<text text-anchor="middle" x="611.5" y="-81.4" font-family="Ubuntu Mono" font-size="12.00">pb3d</text>
</a>
</g>
</g>
<!-- Node38&#45;&gt;Node39 -->
<g id="edge3" class="edge"><title>Node38&#45;&gt;Node39</title>
<path fill="none" stroke="midnightblue" d="M565.278,-84.5C574.755,-84.5 583.571,-84.5 590.856,-84.5"/>
<polygon fill="midnightblue" stroke="midnightblue" points="565.201,-81.0001 555.201,-84.5 565.201,-88.0001 565.201,-81.0001"/>
</g>
<!-- Node41 -->
<g id="node6" class="node"><title>Node41</title>
<g id="a_node6"><a xlink:href="POST_8f90.html#ac289b64ac4671fea0b4f2298ba1188a1" target="_top" xlink:title="Peeling Ballooning in 3D: postprocessing. ">
<polygon fill="white" stroke="black" points="591,-34 591,-55 632,-55 632,-34 591,-34"/>
<text text-anchor="middle" x="611.5" y="-41.4" font-family="Ubuntu Mono" font-size="12.00">post</text>
</a>
</g>
</g>
<!-- Node40&#45;&gt;Node41 -->
<g id="edge5" class="edge"><title>Node40&#45;&gt;Node41</title>
<path fill="none" stroke="midnightblue" d="M559.322,-44.5C571.072,-44.5 582.121,-44.5 590.924,-44.5"/>
<polygon fill="midnightblue" stroke="midnightblue" points="559.32,-41.0001 549.32,-44.5 559.32,-48.0001 559.32,-41.0001"/>
</g>
</g>
</svg>
