<?xml version="1.0" encoding="UTF-8" standalone="no"?>
<!DOCTYPE svg PUBLIC "-//W3C//DTD SVG 1.1//EN"
 "http://www.w3.org/Graphics/SVG/1.1/DTD/svg11.dtd">
<!-- Generated by graphviz version 2.38.0 (20140413.2041)
 -->
<!-- Title: files_ops::open_output Pages: 1 -->
<svg width="234pt" height="70pt"
 viewBox="0.00 0.00 234.00 70.00" xmlns="http://www.w3.org/2000/svg" xmlns:xlink="http://www.w3.org/1999/xlink">
<g id="graph0" class="graph" transform="scale(1 1) rotate(0) translate(4 66)">
<title>files_ops::open_output</title>
<polygon fill="white" stroke="none" points="-4,4 -4,-66 230,-66 230,4 -4,4"/>
<!-- Node43 -->
<g id="node1" class="node"><title>Node43</title>
<polygon fill="#bfbfbf" stroke="black" points="0,-20.5 0,-41.5 149,-41.5 149,-20.5 0,-20.5"/>
<text text-anchor="middle" x="74.5" y="-27.9" font-family="Ubuntu Mono" font-size="12.00">files_ops::open_output</text>
</g>
<!-- Node44 -->
<g id="node2" class="node"><title>Node44</title>
<g id="a_node2"><a xlink:href="PB3D_8f90.html#afaee01f014ab3398eecac996b2795fd2" target="_top" xlink:title="pb3d">
<polygon fill="white" stroke="black" points="185,-40.5 185,-61.5 226,-61.5 226,-40.5 185,-40.5"/>
<text text-anchor="middle" x="205.5" y="-47.9" font-family="Ubuntu Mono" font-size="12.00">pb3d</text>
</a>
</g>
</g>
<!-- Node43&#45;&gt;Node44 -->
<g id="edge1" class="edge"><title>Node43&#45;&gt;Node44</title>
<path fill="none" stroke="midnightblue" d="M153.287,-43.06C164.93,-44.8651 175.969,-46.5767 184.797,-47.9453"/>
<polygon fill="midnightblue" stroke="midnightblue" points="153.818,-39.6006 143.4,-41.5271 152.746,-46.518 153.818,-39.6006"/>
</g>
<!-- Node45 -->
<g id="node3" class="node"><title>Node45</title>
<g id="a_node3"><a xlink:href="POST_8f90.html#ac289b64ac4671fea0b4f2298ba1188a1" target="_top" xlink:title="post">
<polygon fill="white" stroke="black" points="185,-0.5 185,-21.5 226,-21.5 226,-0.5 185,-0.5"/>
<text text-anchor="middle" x="205.5" y="-7.9" font-family="Ubuntu Mono" font-size="12.00">post</text>
</a>
</g>
</g>
<!-- Node43&#45;&gt;Node45 -->
<g id="edge2" class="edge"><title>Node43&#45;&gt;Node45</title>
<path fill="none" stroke="midnightblue" d="M153.287,-18.94C164.93,-17.1349 175.969,-15.4233 184.797,-14.0547"/>
<polygon fill="midnightblue" stroke="midnightblue" points="152.746,-15.482 143.4,-20.4729 153.818,-22.3994 152.746,-15.482"/>
</g>
</g>
</svg>
