<?xml version="1.0" encoding="UTF-8" standalone="no"?>
<!DOCTYPE svg PUBLIC "-//W3C//DTD SVG 1.1//EN"
 "http://www.w3.org/Graphics/SVG/1.1/DTD/svg11.dtd">
<!-- Generated by graphviz version 2.38.0 (20140413.2041)
 -->
<!-- Title: vac_ops::calc_vac Pages: 1 -->
<svg width="1273pt" height="862pt"
 viewBox="0.00 0.00 1273.00 861.50" xmlns="http://www.w3.org/2000/svg" xmlns:xlink="http://www.w3.org/1999/xlink">
<g id="graph0" class="graph" transform="scale(1 1) rotate(0) translate(4 857.5)">
<title>vac_ops::calc_vac</title>
<polygon fill="white" stroke="none" points="-4,4 -4,-857.5 1269,-857.5 1269,4 -4,4"/>
<!-- Node42 -->
<g id="node1" class="node"><title>Node42</title>
<polygon fill="#bfbfbf" stroke="black" points="0,-384.5 0,-405.5 119,-405.5 119,-384.5 0,-384.5"/>
<text text-anchor="middle" x="59.5" y="-391.9" font-family="Ubuntu Mono" font-size="12.00">vac_ops::calc_vac</text>
</g>
<!-- Node43 -->
<g id="node2" class="node"><title>Node43</title>
<g id="a_node2"><a xlink:href="namespacepb3d__ops.html#a281c496a42c4ea46606e929e10d51582" target="_top" xlink:title="Reconstructs the vacuum variables from PB3D HDF5 output. ">
<polygon fill="white" stroke="black" points="155,-558 155,-592 298,-592 298,-558 155,-558"/>
<text text-anchor="start" x="163" y="-578.4" font-family="Ubuntu Mono" font-size="12.00">pb3d_ops::reconstruct</text>
<text text-anchor="middle" x="226.5" y="-565.4" font-family="Ubuntu Mono" font-size="12.00">_pb3d_vac</text>
</a>
</g>
</g>
<!-- Node42&#45;&gt;Node43 -->
<g id="edge1" class="edge"><title>Node42&#45;&gt;Node43</title>
<path fill="none" stroke="midnightblue" d="M70.3274,-405.721C96.1489,-433.89 166.427,-510.556 202.883,-550.327"/>
<polygon fill="midnightblue" stroke="midnightblue" points="200.363,-552.757 209.7,-557.764 205.523,-548.027 200.363,-552.757"/>
</g>
<!-- Node57 -->
<g id="node16" class="node"><title>Node57</title>
<g id="a_node16"><a xlink:href="namespacemessages.html#aa4a8d01563e92558e8a0875b075ec54c" target="_top" xlink:title="Write output to file identified by output_i. ">
<polygon fill="white" stroke="black" points="764,-346.5 764,-367.5 871,-367.5 871,-346.5 764,-346.5"/>
<text text-anchor="middle" x="817.5" y="-353.9" font-family="Ubuntu Mono" font-size="12.00">messages::writo</text>
</a>
</g>
</g>
<!-- Node42&#45;&gt;Node57 -->
<g id="edge31" class="edge"><title>Node42&#45;&gt;Node57</title>
<path fill="none" stroke="midnightblue" d="M119.209,-398.589C131.053,-399.177 143.421,-399.694 155,-400 399.061,-406.452 462.24,-415.049 704,-381 723.78,-378.214 745.278,-373.941 764.131,-369.769"/>
<polygon fill="midnightblue" stroke="midnightblue" points="765.03,-373.154 774.014,-367.538 763.489,-366.326 765.03,-373.154"/>
</g>
<!-- Node63 -->
<g id="node22" class="node"><title>Node63</title>
<g id="a_node22"><a xlink:href="namespacemessages.html#a6e6bfb084063e4cc91ee86e542043302" target="_top" xlink:title="Increases/decreases lvl of output. ">
<polygon fill="white" stroke="black" points="355,-365.5 355,-386.5 468,-386.5 468,-365.5 355,-365.5"/>
<text text-anchor="middle" x="411.5" y="-372.9" font-family="Ubuntu Mono" font-size="12.00">messages::lvl_ud</text>
</a>
</g>
</g>
<!-- Node42&#45;&gt;Node63 -->
<g id="edge32" class="edge"><title>Node42&#45;&gt;Node63</title>
<path fill="none" stroke="midnightblue" d="M119.082,-391.82C181.425,-388.435 279.844,-383.093 344.785,-379.567"/>
<polygon fill="midnightblue" stroke="midnightblue" points="345.114,-383.055 354.909,-379.018 344.734,-376.065 345.114,-383.055"/>
</g>
<!-- Node64 -->
<g id="node23" class="node"><title>Node64</title>
<g id="a_node23"><a xlink:href="namespacevac__ops.html#a4937d8dc73b1673937957507f8be0638" target="_top" xlink:title="Calculate the matrices G and H. ">
<polygon fill="white" stroke="black" points="170,-287.5 170,-308.5 283,-308.5 283,-287.5 170,-287.5"/>
<text text-anchor="middle" x="226.5" y="-294.9" font-family="Ubuntu Mono" font-size="12.00">vac_ops::calc_gh</text>
</a>
</g>
</g>
<!-- Node42&#45;&gt;Node64 -->
<g id="edge34" class="edge"><title>Node42&#45;&gt;Node64</title>
<path fill="none" stroke="midnightblue" d="M78.472,-384.435C107.484,-367.379 164.799,-333.685 198.664,-313.777"/>
<polygon fill="midnightblue" stroke="midnightblue" points="200.703,-316.638 207.55,-308.552 197.156,-310.603 200.703,-316.638"/>
</g>
<!-- Node44 -->
<g id="node3" class="node"><title>Node44</title>
<g id="a_node3"><a xlink:href="namespacehdf5__ops.html#a5108e0d6f6b492cb981505ebceedd9ee" target="_top" xlink:title="Reads a PB3D output file in HDF5 format. ">
<polygon fill="white" stroke="black" points="334,-564.5 334,-585.5 489,-585.5 489,-564.5 334,-564.5"/>
<text text-anchor="middle" x="411.5" y="-571.9" font-family="Ubuntu Mono" font-size="12.00">hdf5_ops::read_hdf5_arr</text>
</a>
</g>
</g>
<!-- Node43&#45;&gt;Node44 -->
<g id="edge2" class="edge"><title>Node43&#45;&gt;Node44</title>
<path fill="none" stroke="midnightblue" d="M298.253,-575C306.638,-575 315.269,-575 323.844,-575"/>
<polygon fill="midnightblue" stroke="midnightblue" points="323.865,-578.5 333.865,-575 323.865,-571.5 323.865,-578.5"/>
</g>
<!-- Node60 -->
<g id="node19" class="node"><title>Node60</title>
<g id="a_node19"><a xlink:href="namespacex__utilities.html#a6072ddd1fd230758795ff320c75a1f6a" target="_top" xlink:title="Gets one of the the local ranges of contiguous tensorial perturbation variables to be printed or read...">
<polygon fill="white" stroke="black" points="343,-727 343,-761 480,-761 480,-727 343,-727"/>
<text text-anchor="start" x="351" y="-747.4" font-family="Ubuntu Mono" font-size="12.00">x_utilities::get_sec</text>
<text text-anchor="middle" x="411.5" y="-734.4" font-family="Ubuntu Mono" font-size="12.00">_x_range</text>
</a>
</g>
</g>
<!-- Node43&#45;&gt;Node60 -->
<g id="edge28" class="edge"><title>Node43&#45;&gt;Node60</title>
<path fill="none" stroke="midnightblue" d="M246.054,-592.135C278.8,-622.375 346.915,-685.28 384.389,-719.887"/>
<polygon fill="midnightblue" stroke="midnightblue" points="382.176,-722.607 391.897,-726.82 386.925,-717.464 382.176,-722.607"/>
</g>
<!-- Node45 -->
<g id="node4" class="node"><title>Node45</title>
<g id="a_node4"><a xlink:href="namespacehdf5__utilities.html#a7574320980affc30a584f7776d33a51c" target="_top" xlink:title="Sets up the chunk property list and/or the 1D hyperslabs that correspond to a local subset of lim_tot...">
<polygon fill="white" stroke="black" points="549,-443 549,-477 680,-477 680,-443 549,-443"/>
<text text-anchor="start" x="557" y="-463.4" font-family="Ubuntu Mono" font-size="12.00">hdf5_utilities::set</text>
<text text-anchor="middle" x="614.5" y="-450.4" font-family="Ubuntu Mono" font-size="12.00">_1d_vars</text>
</a>
</g>
</g>
<!-- Node44&#45;&gt;Node45 -->
<g id="edge3" class="edge"><title>Node44&#45;&gt;Node45</title>
<path fill="none" stroke="midnightblue" d="M424.524,-564.277C444.288,-547.095 485.408,-513.183 525,-492 532.641,-487.912 540.914,-484.144 549.23,-480.739"/>
<polygon fill="midnightblue" stroke="midnightblue" points="550.581,-483.969 558.606,-477.052 548.019,-477.455 550.581,-483.969"/>
</g>
<!-- Node46 -->
<g id="node5" class="node"><title>Node46</title>
<g id="a_node5"><a xlink:href="namespacempi__utilities.html#a5a789d05be41d6109c01f46cc98620c8" target="_top" xlink:title="Request access to lock of a BL (blocking) or optionally a NB (non&#45;blocking) type. ...">
<polygon fill="white" stroke="black" points="549,-680 549,-714 680,-714 680,-680 549,-680"/>
<text text-anchor="start" x="557" y="-700.4" font-family="Ubuntu Mono" font-size="12.00">mpi_utilities::lock</text>
<text text-anchor="middle" x="614.5" y="-687.4" font-family="Ubuntu Mono" font-size="12.00">_req_acc</text>
</a>
</g>
</g>
<!-- Node44&#45;&gt;Node46 -->
<g id="edge4" class="edge"><title>Node44&#45;&gt;Node46</title>
<path fill="none" stroke="midnightblue" d="M422.282,-585.747C440.601,-605.259 482.12,-646.648 525,-670 529.556,-672.481 534.371,-674.766 539.308,-676.865"/>
<polygon fill="midnightblue" stroke="midnightblue" points="538.328,-680.241 548.914,-680.674 540.908,-673.734 538.328,-680.241"/>
</g>
<!-- Node49 -->
<g id="node8" class="node"><title>Node49</title>
<g id="a_node8"><a xlink:href="namespacestr__utilities.html#a0b97e51770725a3e98ed393d26681414" target="_top" xlink:title="Convert an integer to string. ">
<polygon fill="white" stroke="black" points="1125,-518.5 1125,-539.5 1262,-539.5 1262,-518.5 1125,-518.5"/>
<text text-anchor="middle" x="1193.5" y="-525.9" font-family="Ubuntu Mono" font-size="12.00">str_utilities::i2str</text>
</a>
</g>
</g>
<!-- Node44&#45;&gt;Node49 -->
<g id="edge26" class="edge"><title>Node44&#45;&gt;Node49</title>
<path fill="none" stroke="midnightblue" d="M489.047,-577.315C501.078,-577.6 513.376,-577.845 525,-578 774.6,-581.327 838.722,-585.125 1086,-551 1103.04,-548.649 1121.43,-545.185 1138.07,-541.699"/>
<polygon fill="midnightblue" stroke="midnightblue" points="1139.12,-545.052 1148.17,-539.535 1137.65,-538.208 1139.12,-545.052"/>
</g>
<!-- Node55 -->
<g id="node14" class="node"><title>Node55</title>
<g id="a_node14"><a xlink:href="namespacempi__utilities.html#a86f9982a0f92b51a916f832d9a3d8ba9" target="_top" xlink:title="Returns access to a lock. ">
<polygon fill="white" stroke="black" points="549,-627 549,-661 680,-661 680,-627 549,-627"/>
<text text-anchor="start" x="557" y="-647.4" font-family="Ubuntu Mono" font-size="12.00">mpi_utilities::lock</text>
<text text-anchor="middle" x="614.5" y="-634.4" font-family="Ubuntu Mono" font-size="12.00">_return_acc</text>
</a>
</g>
</g>
<!-- Node44&#45;&gt;Node55 -->
<g id="edge16" class="edge"><title>Node44&#45;&gt;Node55</title>
<path fill="none" stroke="midnightblue" d="M443.466,-585.63C472.882,-595.728 517.888,-611.178 554.209,-623.646"/>
<polygon fill="midnightblue" stroke="midnightblue" points="553.126,-626.975 563.721,-626.912 555.399,-620.354 553.126,-626.975"/>
</g>
<!-- Node56 -->
<g id="node15" class="node"><title>Node56</title>
<g id="a_node15"><a xlink:href="namespacehdf5__utilities.html#aa9d76166f970a7052cd0d96c8f3ee0be" target="_top" xlink:title="Lists all variables in a HDF5 group. ">
<polygon fill="white" stroke="black" points="546,-535 546,-569 683,-569 683,-535 546,-535"/>
<text text-anchor="start" x="554" y="-555.4" font-family="Ubuntu Mono" font-size="12.00">hdf5_utilities::list</text>
<text text-anchor="middle" x="614.5" y="-542.4" font-family="Ubuntu Mono" font-size="12.00">_all_vars_in_group</text>
</a>
</g>
</g>
<!-- Node44&#45;&gt;Node56 -->
<g id="edge21" class="edge"><title>Node44&#45;&gt;Node56</title>
<path fill="none" stroke="midnightblue" d="M489.063,-566.239C504.352,-564.49 520.426,-562.65 535.755,-560.896"/>
<polygon fill="midnightblue" stroke="midnightblue" points="536.167,-564.372 545.705,-559.758 535.371,-557.417 536.167,-564.372"/>
</g>
<!-- Node44&#45;&gt;Node57 -->
<g id="edge27" class="edge"><title>Node44&#45;&gt;Node57</title>
<path fill="none" stroke="midnightblue" d="M432.738,-564.494C454.886,-553.358 491.687,-535.906 525,-525 602.381,-499.668 633.917,-527.447 704,-486 750.42,-458.547 787.563,-405.187 805.253,-376.448"/>
<polygon fill="midnightblue" stroke="midnightblue" points="808.347,-378.095 810.492,-367.719 802.345,-374.493 808.347,-378.095"/>
</g>
<!-- Node47 -->
<g id="node6" class="node"><title>Node47</title>
<g id="a_node6"><a xlink:href="namespacempi__utilities.html#abe5bf3ae3b6a06eda18c2f4d62ac09c5" target="_top" xlink:title="Returns the header for lock debug messages. ">
<polygon fill="white" stroke="black" points="943,-700 943,-734 1074,-734 1074,-700 943,-700"/>
<text text-anchor="start" x="951" y="-720.4" font-family="Ubuntu Mono" font-size="12.00">mpi_utilities::lock</text>
<text text-anchor="middle" x="1008.5" y="-707.4" font-family="Ubuntu Mono" font-size="12.00">_header</text>
</a>
</g>
</g>
<!-- Node46&#45;&gt;Node47 -->
<g id="edge5" class="edge"><title>Node46&#45;&gt;Node47</title>
<path fill="none" stroke="midnightblue" d="M680.028,-711.551C688.476,-714.904 696.715,-719.001 704,-724 725.406,-738.689 716.662,-758.629 740,-770 815.884,-806.972 915.821,-766.737 969.499,-738.904"/>
<polygon fill="midnightblue" stroke="midnightblue" points="971.461,-741.825 978.652,-734.044 968.178,-735.643 971.461,-741.825"/>
</g>
<!-- Node50 -->
<g id="node9" class="node"><title>Node50</title>
<g id="a_node9"><a xlink:href="namespacempi__utilities.html#a3b0349e5ec825e14083e3126c3e7ba65" target="_top" xlink:title="Adds, removes or sets to active a rank from the waiting list for a lock and returns the lock waiting ...">
<polygon fill="white" stroke="black" points="752,-674 752,-708 883,-708 883,-674 752,-674"/>
<text text-anchor="start" x="760" y="-694.4" font-family="Ubuntu Mono" font-size="12.00">mpi_utilities::lock</text>
<text text-anchor="middle" x="817.5" y="-681.4" font-family="Ubuntu Mono" font-size="12.00">_wl_change</text>
</a>
</g>
</g>
<!-- Node46&#45;&gt;Node50 -->
<g id="edge8" class="edge"><title>Node46&#45;&gt;Node50</title>
<path fill="none" stroke="midnightblue" d="M680.204,-695.069C699.839,-694.482 721.572,-693.834 741.807,-693.23"/>
<polygon fill="midnightblue" stroke="midnightblue" points="742.026,-696.725 751.917,-692.928 741.817,-689.728 742.026,-696.725"/>
</g>
<!-- Node52 -->
<g id="node11" class="node"><title>Node52</title>
<g id="a_node11"><a xlink:href="namespacempi__utilities.html#a74e2e82b561f403ca8087c3925f76e29" target="_top" xlink:title="Decides whether a waiting list is empty. ">
<polygon fill="white" stroke="black" points="740,-633.5 740,-654.5 895,-654.5 895,-633.5 740,-633.5"/>
<text text-anchor="middle" x="817.5" y="-640.9" font-family="Ubuntu Mono" font-size="12.00">mpi_utilities::wl_empty</text>
</a>
</g>
</g>
<!-- Node46&#45;&gt;Node52 -->
<g id="edge11" class="edge"><title>Node46&#45;&gt;Node52</title>
<path fill="none" stroke="midnightblue" d="M679.786,-679.916C699.137,-674.785 720.43,-669.152 740,-664 748.488,-661.766 757.508,-659.4 766.265,-657.107"/>
<polygon fill="midnightblue" stroke="midnightblue" points="767.209,-660.478 775.997,-654.562 765.437,-653.706 767.209,-660.478"/>
</g>
<!-- Node53 -->
<g id="node12" class="node"><title>Node53</title>
<g id="a_node12"><a xlink:href="namespacempi__utilities.html#a263a30c79639d97f5faffdb566b5a811" target="_top" xlink:title="Notifies a rank that they can get the lock. ">
<polygon fill="white" stroke="black" points="752,-727 752,-761 883,-761 883,-727 752,-727"/>
<text text-anchor="start" x="760" y="-747.4" font-family="Ubuntu Mono" font-size="12.00">mpi_utilities::lock</text>
<text text-anchor="middle" x="817.5" y="-734.4" font-family="Ubuntu Mono" font-size="12.00">_notify</text>
</a>
</g>
</g>
<!-- Node46&#45;&gt;Node53 -->
<g id="edge12" class="edge"><title>Node46&#45;&gt;Node53</title>
<path fill="none" stroke="midnightblue" d="M680.204,-712.13C699.929,-716.742 721.77,-721.849 742.084,-726.599"/>
<polygon fill="midnightblue" stroke="midnightblue" points="741.383,-730.03 751.917,-728.899 742.977,-723.214 741.383,-730.03"/>
</g>
<!-- Node54 -->
<g id="node13" class="node"><title>Node54</title>
<g id="a_node13"><a xlink:href="namespacempi__utilities.html#a17c39b0498528e2532c8347b0b7dec86" target="_top" xlink:title="Get notified that the rank can get the lock. ">
<polygon fill="white" stroke="black" points="752,-819 752,-853 883,-853 883,-819 752,-819"/>
<text text-anchor="start" x="760" y="-839.4" font-family="Ubuntu Mono" font-size="12.00">mpi_utilities::lock</text>
<text text-anchor="middle" x="817.5" y="-826.4" font-family="Ubuntu Mono" font-size="12.00">_get_notified</text>
</a>
</g>
</g>
<!-- Node46&#45;&gt;Node54 -->
<g id="edge14" class="edge"><title>Node46&#45;&gt;Node54</title>
<path fill="none" stroke="midnightblue" d="M680.335,-709.61C688.929,-713.253 697.128,-717.949 704,-724 733.26,-749.769 712.065,-776.8 740,-804 743.708,-807.611 747.884,-810.839 752.323,-813.72"/>
<polygon fill="midnightblue" stroke="midnightblue" points="750.725,-816.839 761.128,-818.842 754.245,-810.789 750.725,-816.839"/>
</g>
<!-- Node48 -->
<g id="node7" class="node"><title>Node48</title>
<g id="a_node7"><a xlink:href="namespacestr__utilities.html#acb8c4e66aead51f178e47fdea8d7a7db" target="_top" xlink:title="Convert an integer to string. ">
<polygon fill="white" stroke="black" points="1122,-706.5 1122,-727.5 1265,-727.5 1265,-706.5 1122,-706.5"/>
<text text-anchor="middle" x="1193.5" y="-713.9" font-family="Ubuntu Mono" font-size="12.00">str_utilities::ii2str</text>
</a>
</g>
</g>
<!-- Node47&#45;&gt;Node48 -->
<g id="edge6" class="edge"><title>Node47&#45;&gt;Node48</title>
<path fill="none" stroke="midnightblue" d="M1074.02,-717C1086.2,-717 1099.08,-717 1111.68,-717"/>
<polygon fill="midnightblue" stroke="midnightblue" points="1111.72,-720.5 1121.72,-717 1111.72,-713.5 1111.72,-720.5"/>
</g>
<!-- Node47&#45;&gt;Node49 -->
<g id="edge7" class="edge"><title>Node47&#45;&gt;Node49</title>
<path fill="none" stroke="midnightblue" d="M1044.18,-699.899C1058.02,-692.155 1073.58,-682.216 1086,-671 1127.51,-633.524 1163.69,-577.818 1181.23,-548.564"/>
<polygon fill="midnightblue" stroke="midnightblue" points="1184.38,-550.113 1186.45,-539.721 1178.36,-546.556 1184.38,-550.113"/>
</g>
<!-- Node50&#45;&gt;Node47 -->
<g id="edge9" class="edge"><title>Node50&#45;&gt;Node47</title>
<path fill="none" stroke="midnightblue" d="M883.014,-699.875C899.043,-702.08 916.356,-704.462 932.828,-706.728"/>
<polygon fill="midnightblue" stroke="midnightblue" points="932.572,-710.225 942.956,-708.121 933.526,-703.291 932.572,-710.225"/>
</g>
<!-- Node51 -->
<g id="node10" class="node"><title>Node51</title>
<g id="a_node10"><a xlink:href="namespacestr__utilities.html#ac778d706b2e021672618939ab58fdd32" target="_top" xlink:title="Convert a real (double) to string. ">
<polygon fill="white" stroke="black" points="937,-640.5 937,-661.5 1080,-661.5 1080,-640.5 937,-640.5"/>
<text text-anchor="middle" x="1008.5" y="-647.9" font-family="Ubuntu Mono" font-size="12.00">str_utilities::r2strt</text>
</a>
</g>
</g>
<!-- Node50&#45;&gt;Node51 -->
<g id="edge10" class="edge"><title>Node50&#45;&gt;Node51</title>
<path fill="none" stroke="midnightblue" d="M883.014,-677.346C903.967,-672.912 927.115,-668.013 947.708,-663.654"/>
<polygon fill="midnightblue" stroke="midnightblue" points="948.533,-667.057 957.591,-661.563 947.083,-660.209 948.533,-667.057"/>
</g>
<!-- Node53&#45;&gt;Node47 -->
<g id="edge13" class="edge"><title>Node53&#45;&gt;Node47</title>
<path fill="none" stroke="midnightblue" d="M883.014,-734.784C899.043,-732.494 916.356,-730.021 932.828,-727.667"/>
<polygon fill="midnightblue" stroke="midnightblue" points="933.551,-731.1 942.956,-726.221 932.561,-724.17 933.551,-731.1"/>
</g>
<!-- Node54&#45;&gt;Node47 -->
<g id="edge15" class="edge"><title>Node54&#45;&gt;Node47</title>
<path fill="none" stroke="midnightblue" d="M864.752,-818.951C874.961,-814.562 885.545,-809.505 895,-804 926.546,-785.634 959.177,-759.465 981.118,-740.631"/>
<polygon fill="midnightblue" stroke="midnightblue" points="983.439,-743.25 988.696,-734.052 978.85,-737.965 983.439,-743.25"/>
</g>
<!-- Node55&#45;&gt;Node47 -->
<g id="edge17" class="edge"><title>Node55&#45;&gt;Node47</title>
<path fill="none" stroke="midnightblue" d="M661.795,-626.989C719.591,-608.72 819.97,-586.959 895,-624 918.594,-635.648 911.38,-653.467 931,-671 940.848,-679.8 952.616,-687.839 963.936,-694.648"/>
<polygon fill="midnightblue" stroke="midnightblue" points="962.466,-697.842 972.872,-699.836 965.981,-691.788 962.466,-697.842"/>
</g>
<!-- Node55&#45;&gt;Node50 -->
<g id="edge18" class="edge"><title>Node55&#45;&gt;Node50</title>
<path fill="none" stroke="midnightblue" d="M680.204,-659.13C699.929,-663.742 721.77,-668.849 742.084,-673.599"/>
<polygon fill="midnightblue" stroke="midnightblue" points="741.383,-677.03 751.917,-675.899 742.977,-670.214 741.383,-677.03"/>
</g>
<!-- Node55&#45;&gt;Node52 -->
<g id="edge19" class="edge"><title>Node55&#45;&gt;Node52</title>
<path fill="none" stroke="midnightblue" d="M680.204,-644C695.98,-644 713.11,-644 729.73,-644"/>
<polygon fill="midnightblue" stroke="midnightblue" points="729.995,-647.5 739.995,-644 729.995,-640.5 729.995,-647.5"/>
</g>
<!-- Node55&#45;&gt;Node53 -->
<g id="edge20" class="edge"><title>Node55&#45;&gt;Node53</title>
<path fill="none" stroke="midnightblue" d="M680.07,-657.698C688.511,-660.974 696.738,-665.016 704,-670 725.695,-684.889 718.711,-701.536 740,-717 742.539,-718.844 745.215,-720.572 747.986,-722.19"/>
<polygon fill="midnightblue" stroke="midnightblue" points="746.625,-725.428 757.104,-726.989 749.885,-719.234 746.625,-725.428"/>
</g>
<!-- Node56&#45;&gt;Node49 -->
<g id="edge25" class="edge"><title>Node56&#45;&gt;Node49</title>
<path fill="none" stroke="midnightblue" d="M683.102,-549.305C790.851,-545.01 1000.95,-536.635 1114.76,-532.099"/>
<polygon fill="midnightblue" stroke="midnightblue" points="1114.94,-535.594 1124.8,-531.699 1114.66,-528.6 1114.94,-535.594"/>
</g>
<!-- Node56&#45;&gt;Node57 -->
<g id="edge22" class="edge"><title>Node56&#45;&gt;Node57</title>
<path fill="none" stroke="midnightblue" d="M678.042,-534.976C687.251,-530.923 696.237,-525.986 704,-520 755.082,-480.614 791.71,-411.424 807.637,-377.259"/>
<polygon fill="midnightblue" stroke="midnightblue" points="810.96,-378.405 811.908,-367.852 804.587,-375.511 810.96,-378.405"/>
</g>
<!-- Node58 -->
<g id="node17" class="node"><title>Node58</title>
<g id="a_node17"><a xlink:href="namespacemessages.html#a82dddaab795b78b3d39e1ff1aab2f665" target="_top" xlink:title="Returns the memory usage in kilobytes. ">
<polygon fill="white" stroke="black" points="931,-366.5 931,-387.5 1086,-387.5 1086,-366.5 931,-366.5"/>
<text text-anchor="middle" x="1008.5" y="-373.9" font-family="Ubuntu Mono" font-size="12.00">messages::get_mem_usage</text>
</a>
</g>
</g>
<!-- Node57&#45;&gt;Node58 -->
<g id="edge23" class="edge"><title>Node57&#45;&gt;Node58</title>
<path fill="none" stroke="midnightblue" d="M871.147,-362.571C886.434,-364.189 903.551,-366 920.356,-367.778"/>
<polygon fill="midnightblue" stroke="midnightblue" points="920.448,-371.308 930.761,-368.879 921.184,-364.346 920.448,-371.308"/>
</g>
<!-- Node59 -->
<g id="node18" class="node"><title>Node59</title>
<g id="a_node18"><a xlink:href="namespacemessages.html#a61fd0b51b5e37d58fdc993c01792a3fd" target="_top" xlink:title="Returns the time. ">
<polygon fill="white" stroke="black" points="943,-326.5 943,-347.5 1074,-347.5 1074,-326.5 943,-326.5"/>
<text text-anchor="middle" x="1008.5" y="-333.9" font-family="Ubuntu Mono" font-size="12.00">messages::get_clock</text>
</a>
</g>
</g>
<!-- Node57&#45;&gt;Node59 -->
<g id="edge24" class="edge"><title>Node57&#45;&gt;Node59</title>
<path fill="none" stroke="midnightblue" d="M871.147,-351.429C890.202,-349.413 912.102,-347.095 932.695,-344.916"/>
<polygon fill="midnightblue" stroke="midnightblue" points="933.106,-348.392 942.682,-343.859 932.369,-341.431 933.106,-348.392"/>
</g>
<!-- Node61 -->
<g id="node20" class="node"><title>Node61</title>
<g id="a_node20"><a xlink:href="namespacenum__utilities.html#a5ee3fbd1fe67d0deefc7194631389f2a" target="_top" xlink:title="Convert 2&#45;D coordinates (i,j) to the storage convention used in matrices. ">
<polygon fill="white" stroke="black" points="558,-733.5 558,-754.5 671,-754.5 671,-733.5 558,-733.5"/>
<text text-anchor="middle" x="614.5" y="-740.9" font-family="Ubuntu Mono" font-size="12.00">num_utilities::c</text>
</a>
</g>
</g>
<!-- Node60&#45;&gt;Node61 -->
<g id="edge29" class="edge"><title>Node60&#45;&gt;Node61</title>
<path fill="none" stroke="midnightblue" d="M480.269,-744C502.013,-744 526.051,-744 547.655,-744"/>
<polygon fill="midnightblue" stroke="midnightblue" points="547.717,-747.5 557.717,-744 547.717,-740.5 547.717,-747.5"/>
</g>
<!-- Node62 -->
<g id="node21" class="node"><title>Node62</title>
<g id="a_node21"><a xlink:href="namespacex__utilities.html#a689aca7fedb49c43c5a65a18d557259f" target="_top" xlink:title="Determines whether a variable needs to be considered: ">
<polygon fill="white" stroke="black" points="525,-773.5 525,-794.5 704,-794.5 704,-773.5 525,-773.5"/>
<text text-anchor="middle" x="614.5" y="-780.9" font-family="Ubuntu Mono" font-size="12.00">x_utilities::is_necessary_x</text>
</a>
</g>
</g>
<!-- Node60&#45;&gt;Node62 -->
<g id="edge30" class="edge"><title>Node60&#45;&gt;Node62</title>
<path fill="none" stroke="midnightblue" d="M480.269,-757.486C503.001,-762.01 528.24,-767.033 550.584,-771.479"/>
<polygon fill="midnightblue" stroke="midnightblue" points="550.136,-774.959 560.627,-773.478 551.502,-768.093 550.136,-774.959"/>
</g>
<!-- Node63&#45;&gt;Node57 -->
<g id="edge33" class="edge"><title>Node63&#45;&gt;Node57</title>
<path fill="none" stroke="midnightblue" d="M468.25,-373.378C543.035,-369.861 675.462,-363.633 753.687,-359.954"/>
<polygon fill="midnightblue" stroke="midnightblue" points="754.061,-363.44 763.886,-359.474 753.732,-356.448 754.061,-363.44"/>
</g>
<!-- Node64&#45;&gt;Node49 -->
<g id="edge51" class="edge"><title>Node64&#45;&gt;Node49</title>
<path fill="none" stroke="midnightblue" d="M233.396,-287.372C248.007,-261.663 288.051,-194.923 334,-150 434.808,-51.4433 472.519,-0 613.5,-0 613.5,-0 613.5,-0 818.5,-0 1072.21,-0 1169.19,-410.709 1188.66,-508.352"/>
<polygon fill="midnightblue" stroke="midnightblue" points="1185.27,-509.281 1190.61,-518.433 1192.14,-507.95 1185.27,-509.281"/>
</g>
<!-- Node64&#45;&gt;Node57 -->
<g id="edge36" class="edge"><title>Node64&#45;&gt;Node57</title>
<path fill="none" stroke="midnightblue" d="M277.708,-308.551C295.431,-311.976 315.54,-315.528 334,-318 483.936,-338.082 661.568,-349.205 753.821,-354.039"/>
<polygon fill="midnightblue" stroke="midnightblue" points="753.662,-357.535 763.83,-354.556 754.024,-350.545 753.662,-357.535"/>
</g>
<!-- Node64&#45;&gt;Node63 -->
<g id="edge37" class="edge"><title>Node64&#45;&gt;Node63</title>
<path fill="none" stroke="midnightblue" d="M246.734,-308.64C267.765,-320.02 302.658,-338.16 334,-351 343.896,-355.054 354.713,-358.919 365.016,-362.345"/>
<polygon fill="midnightblue" stroke="midnightblue" points="364.097,-365.726 374.689,-365.487 366.259,-359.069 364.097,-365.726"/>
</g>
<!-- Node65 -->
<g id="node24" class="node"><title>Node65</title>
<g id="a_node24"><a xlink:href="namespacempi__utilities.html#a790ea24d32dd0e249541c1e57cd85536" target="_top" xlink:title="Wait for all processes, wrapper to MPI barrier. ">
<polygon fill="white" stroke="black" points="334,-287.5 334,-308.5 489,-308.5 489,-287.5 334,-287.5"/>
<text text-anchor="middle" x="411.5" y="-294.9" font-family="Ubuntu Mono" font-size="12.00">mpi_utilities::wait_mpi</text>
</a>
</g>
</g>
<!-- Node64&#45;&gt;Node65 -->
<g id="edge35" class="edge"><title>Node64&#45;&gt;Node65</title>
<path fill="none" stroke="midnightblue" d="M283.4,-298C296.048,-298 309.771,-298 323.365,-298"/>
<polygon fill="midnightblue" stroke="midnightblue" points="323.716,-301.5 333.716,-298 323.716,-294.5 323.716,-301.5"/>
</g>
<!-- Node66 -->
<g id="node25" class="node"><title>Node66</title>
<g id="a_node25"><a xlink:href="namespacevac__ops.html#a95e28ef321b64104e0ec46a1f1bf70b3" target="_top" xlink:title="Calculates matrices G and H in 3&#45;D configuration. ">
<polygon fill="white" stroke="black" points="349,-247.5 349,-268.5 474,-268.5 474,-247.5 349,-247.5"/>
<text text-anchor="middle" x="411.5" y="-254.9" font-family="Ubuntu Mono" font-size="12.00">vac_ops::calc_gh_1</text>
</a>
</g>
</g>
<!-- Node64&#45;&gt;Node66 -->
<g id="edge38" class="edge"><title>Node64&#45;&gt;Node66</title>
<path fill="none" stroke="midnightblue" d="M275.581,-287.49C299.129,-282.343 327.671,-276.105 352.428,-270.693"/>
<polygon fill="midnightblue" stroke="midnightblue" points="353.401,-274.063 362.423,-268.509 351.906,-267.225 353.401,-274.063"/>
</g>
<!-- Node67 -->
<g id="node26" class="node"><title>Node67</title>
<g id="a_node26"><a xlink:href="namespacevac__ops.html#a401123f67daed9f575ab9dc5ed80b600" target="_top" xlink:title="Calculates matrices G and H in axisymmetric configurations. ">
<polygon fill="white" stroke="black" points="349,-159.5 349,-180.5 474,-180.5 474,-159.5 349,-159.5"/>
<text text-anchor="middle" x="411.5" y="-166.9" font-family="Ubuntu Mono" font-size="12.00">vac_ops::calc_gh_2</text>
</a>
</g>
</g>
<!-- Node64&#45;&gt;Node67 -->
<g id="edge40" class="edge"><title>Node64&#45;&gt;Node67</title>
<path fill="none" stroke="midnightblue" d="M242.788,-287.307C274.758,-264.945 348.863,-213.112 386.957,-186.467"/>
<polygon fill="midnightblue" stroke="midnightblue" points="389.196,-189.172 395.384,-180.573 385.184,-183.436 389.196,-189.172"/>
</g>
<!-- Node66&#45;&gt;Node57 -->
<g id="edge39" class="edge"><title>Node66&#45;&gt;Node57</title>
<path fill="none" stroke="midnightblue" d="M463.549,-268.545C521.928,-280.838 620.252,-302.259 704,-324 726.856,-329.934 752.101,-337.267 772.876,-343.512"/>
<polygon fill="midnightblue" stroke="midnightblue" points="772.1,-346.934 782.685,-346.48 774.127,-340.234 772.1,-346.934"/>
</g>
<!-- Node67&#45;&gt;Node49 -->
<g id="edge50" class="edge"><title>Node67&#45;&gt;Node49</title>
<path fill="none" stroke="midnightblue" d="M474.088,-164.59C604.57,-156.686 911.184,-157.468 1086,-317 1145.49,-371.287 1176.23,-466.319 1187.44,-508.187"/>
<polygon fill="midnightblue" stroke="midnightblue" points="1184.1,-509.258 1189.98,-518.071 1190.88,-507.514 1184.1,-509.258"/>
</g>
<!-- Node67&#45;&gt;Node57 -->
<g id="edge48" class="edge"><title>Node67&#45;&gt;Node57</title>
<path fill="none" stroke="midnightblue" d="M425.478,-180.556C445.565,-196.35 485.953,-225.984 525,-242 600.245,-272.864 629.241,-247.978 704,-280 739.532,-295.22 775.516,-322.36 796.913,-340.015"/>
<polygon fill="midnightblue" stroke="midnightblue" points="794.719,-342.744 804.627,-346.495 799.221,-337.384 794.719,-342.744"/>
</g>
<!-- Node68 -->
<g id="node27" class="node"><title>Node68</title>
<g id="a_node27"><a xlink:href="namespacedtorh.html#af3f58b6705da916bfbaf7cc4ea05f610" target="_top" xlink:title="Calculates toroidal harmonics of a fixed order m and degrees up to nmax. ">
<polygon fill="white" stroke="black" points="567,-120.5 567,-141.5 662,-141.5 662,-120.5 567,-120.5"/>
<text text-anchor="middle" x="614.5" y="-127.9" font-family="Ubuntu Mono" font-size="12.00">dtorh::dtorh1</text>
</a>
</g>
</g>
<!-- Node67&#45;&gt;Node68 -->
<g id="edge41" class="edge"><title>Node67&#45;&gt;Node68</title>
<path fill="none" stroke="midnightblue" d="M466.629,-159.497C494.486,-154.092 528.431,-147.506 556.667,-142.027"/>
<polygon fill="midnightblue" stroke="midnightblue" points="557.64,-145.404 566.79,-140.063 556.306,-138.532 557.64,-145.404"/>
</g>
<!-- Node69 -->
<g id="node28" class="node"><title>Node69</title>
<g id="a_node28"><a xlink:href="namespacestr__utilities.html#a92ac6c0af1979df094de1caddd28ade0" target="_top" xlink:title="Convert a real (double) to string. ">
<polygon fill="white" stroke="black" points="749,-120.5 749,-141.5 886,-141.5 886,-120.5 749,-120.5"/>
<text text-anchor="middle" x="817.5" y="-127.9" font-family="Ubuntu Mono" font-size="12.00">str_utilities::r2str</text>
</a>
</g>
</g>
<!-- Node67&#45;&gt;Node69 -->
<g id="edge49" class="edge"><title>Node67&#45;&gt;Node69</title>
<path fill="none" stroke="midnightblue" d="M427.199,-159.279C447.827,-144.967 487.097,-120.336 525,-111 607.646,-90.6433 707.182,-105.564 765.962,-118.263"/>
<polygon fill="midnightblue" stroke="midnightblue" points="765.222,-121.684 775.744,-120.437 766.741,-114.85 765.222,-121.684"/>
</g>
<!-- Node70 -->
<g id="node29" class="node"><title>Node70</title>
<g id="a_node29"><a xlink:href="namespacevac__utilities.html#af387fcaa54ec681e55d6eb685ad622bd" target="_top" xlink:title="Calculate G_ij and H_ij on an interval for axisymmetric configurations. ">
<polygon fill="white" stroke="black" points="549,-29 549,-63 680,-63 680,-29 549,-29"/>
<text text-anchor="start" x="557" y="-49.4" font-family="Ubuntu Mono" font-size="12.00">vac_utilities::calc</text>
<text text-anchor="middle" x="614.5" y="-36.4" font-family="Ubuntu Mono" font-size="12.00">_gh_int_2</text>
</a>
</g>
</g>
<!-- Node67&#45;&gt;Node70 -->
<g id="edge43" class="edge"><title>Node67&#45;&gt;Node70</title>
<path fill="none" stroke="midnightblue" d="M423.062,-159.23C441.973,-140.466 483.528,-101.538 525,-78 532.251,-73.8846 540.128,-70.1384 548.093,-66.7776"/>
<polygon fill="midnightblue" stroke="midnightblue" points="549.482,-69.9915 557.452,-63.0105 546.868,-63.4979 549.482,-69.9915"/>
</g>
<!-- Node71 -->
<g id="node30" class="node"><title>Node71</title>
<g id="a_node30"><a xlink:href="namespacenum__ops.html#adcc4eacf15c931744316a004f4448b90" target="_top" xlink:title="Finds the zero of a function using Zhang&#39;s method, which is simpler than Brent&#39;s method. ">
<polygon fill="white" stroke="black" points="552,-199 552,-233 677,-233 677,-199 552,-199"/>
<text text-anchor="start" x="560" y="-219.4" font-family="Ubuntu Mono" font-size="12.00">num_ops::calc_zero</text>
<text text-anchor="middle" x="614.5" y="-206.4" font-family="Ubuntu Mono" font-size="12.00">_zhang</text>
</a>
</g>
</g>
<!-- Node67&#45;&gt;Node71 -->
<g id="edge44" class="edge"><title>Node67&#45;&gt;Node71</title>
<path fill="none" stroke="midnightblue" d="M458.613,-180.553C483.284,-186.199 514.213,-193.278 541.931,-199.621"/>
<polygon fill="midnightblue" stroke="midnightblue" points="541.452,-203.102 551.98,-201.921 543.013,-196.278 541.452,-203.102"/>
</g>
<!-- Node68&#45;&gt;Node69 -->
<g id="edge42" class="edge"><title>Node68&#45;&gt;Node69</title>
<path fill="none" stroke="midnightblue" d="M662.119,-131C684.847,-131 712.796,-131 738.638,-131"/>
<polygon fill="midnightblue" stroke="midnightblue" points="738.801,-134.5 748.801,-131 738.801,-127.5 738.801,-134.5"/>
</g>
<!-- Node71&#45;&gt;Node51 -->
<g id="edge47" class="edge"><title>Node71&#45;&gt;Node51</title>
<path fill="none" stroke="midnightblue" d="M677.195,-226.677C740.776,-240.893 838.365,-272.207 895,-337 935.445,-383.271 986.16,-568.672 1002.31,-630.681"/>
<polygon fill="midnightblue" stroke="midnightblue" points="998.947,-631.653 1004.84,-640.46 1005.72,-629.902 998.947,-631.653"/>
</g>
<!-- Node71&#45;&gt;Node57 -->
<g id="edge45" class="edge"><title>Node71&#45;&gt;Node57</title>
<path fill="none" stroke="midnightblue" d="M673.805,-233.09C684.229,-237.246 694.715,-242.201 704,-248 709.426,-251.389 767.665,-308.695 798.141,-338.818"/>
<polygon fill="midnightblue" stroke="midnightblue" points="796.017,-341.641 805.588,-346.185 800.94,-336.664 796.017,-341.641"/>
</g>
<!-- Node71&#45;&gt;Node69 -->
<g id="edge46" class="edge"><title>Node71&#45;&gt;Node69</title>
<path fill="none" stroke="midnightblue" d="M656.175,-198.799C693.189,-183.146 747.224,-160.296 782.127,-145.536"/>
<polygon fill="midnightblue" stroke="midnightblue" points="783.587,-148.719 791.434,-141.6 780.86,-142.271 783.587,-148.719"/>
</g>
</g>
</svg>
