<?xml version="1.0" encoding="UTF-8" standalone="no"?>
<!DOCTYPE svg PUBLIC "-//W3C//DTD SVG 1.1//EN"
 "http://www.w3.org/Graphics/SVG/1.1/DTD/svg11.dtd">
<!-- Generated by graphviz version 2.38.0 (20140413.2041)
 -->
<!-- Title: grid_ops::setup_grid_eq_b Pages: 1 -->
<svg width="1058pt" height="299pt"
 viewBox="0.00 0.00 1058.00 299.19" xmlns="http://www.w3.org/2000/svg" xmlns:xlink="http://www.w3.org/1999/xlink">
<g id="graph0" class="graph" transform="scale(1 1) rotate(0) translate(4 295.186)">
<title>grid_ops::setup_grid_eq_b</title>
<polygon fill="white" stroke="none" points="-4,4 -4,-295.186 1054,-295.186 1054,4 -4,4"/>
<!-- Node121 -->
<g id="node1" class="node"><title>Node121</title>
<polygon fill="#bfbfbf" stroke="black" points="0,-125.186 0,-146.186 167,-146.186 167,-125.186 0,-125.186"/>
<text text-anchor="middle" x="83.5" y="-132.586" font-family="Ubuntu Mono" font-size="12.00">grid_ops::setup_grid_eq_b</text>
</g>
<!-- Node122 -->
<g id="node2" class="node"><title>Node122</title>
<g id="a_node2"><a xlink:href="namespacegrid__ops.html#a06107dbdfd1dd62e372cc29ab0255bad" target="_top" xlink:title="Calculate equilibrium grid that follows magnetic field lines. ">
<polygon fill="white" stroke="black" points="203,-118.686 203,-152.686 328,-152.686 328,-118.686 203,-118.686"/>
<text text-anchor="start" x="211" y="-139.086" font-family="Ubuntu Mono" font-size="12.00">grid_ops::calc_ang</text>
<text text-anchor="middle" x="265.5" y="-126.086" font-family="Ubuntu Mono" font-size="12.00">_grid_eq_b</text>
</a>
</g>
</g>
<!-- Node121&#45;&gt;Node122 -->
<g id="edge1" class="edge"><title>Node121&#45;&gt;Node122</title>
<path fill="none" stroke="midnightblue" d="M167.125,-135.686C175.666,-135.686 184.297,-135.686 192.706,-135.686"/>
<polygon fill="midnightblue" stroke="midnightblue" points="192.834,-139.186 202.834,-135.686 192.834,-132.186 192.834,-139.186"/>
</g>
<!-- Node123 -->
<g id="node3" class="node"><title>Node123</title>
<g id="a_node3"><a xlink:href="namespacegrid__utilities.html#adeb8c22db4d419a278d6fcc68a34100c" target="_top" xlink:title="Calculates the local number of parallel grid points for this Richardson level, taking into account th...">
<polygon fill="white" stroke="black" points="382,-256.686 382,-290.686 519,-290.686 519,-256.686 382,-256.686"/>
<text text-anchor="start" x="390" y="-277.086" font-family="Ubuntu Mono" font-size="12.00">grid_utilities::calc</text>
<text text-anchor="middle" x="450.5" y="-264.086" font-family="Ubuntu Mono" font-size="12.00">_n_par_x_rich</text>
</a>
</g>
</g>
<!-- Node122&#45;&gt;Node123 -->
<g id="edge2" class="edge"><title>Node122&#45;&gt;Node123</title>
<path fill="none" stroke="midnightblue" d="M278.42,-153.069C295.102,-176.222 327.498,-217.106 364,-241.686 369.965,-245.702 376.502,-249.301 383.22,-252.503"/>
<polygon fill="midnightblue" stroke="midnightblue" points="381.899,-255.746 392.457,-256.625 384.752,-249.353 381.899,-255.746"/>
</g>
<!-- Node124 -->
<g id="node4" class="node"><title>Node124</title>
<g id="a_node4"><a xlink:href="namespaceeq__utilities.html#a40f397d20b45432117744ca16870ddbb" target="_top" xlink:title="Prints information for equilibrium parallel job. ">
<polygon fill="white" stroke="black" points="385,-164.686 385,-198.686 516,-198.686 516,-164.686 385,-164.686"/>
<text text-anchor="start" x="393" y="-185.086" font-family="Ubuntu Mono" font-size="12.00">eq_utilities::print</text>
<text text-anchor="middle" x="450.5" y="-172.086" font-family="Ubuntu Mono" font-size="12.00">_info_eq</text>
</a>
</g>
</g>
<!-- Node122&#45;&gt;Node124 -->
<g id="edge3" class="edge"><title>Node122&#45;&gt;Node124</title>
<path fill="none" stroke="midnightblue" d="M328.2,-151.195C343.181,-154.961 359.358,-159.027 374.866,-162.925"/>
<polygon fill="midnightblue" stroke="midnightblue" points="374.389,-166.414 384.941,-165.458 376.096,-159.625 374.389,-166.414"/>
</g>
<!-- Node125 -->
<g id="node5" class="node"><title>Node125</title>
<g id="a_node5"><a xlink:href="namespacemessages.html#aa4a8d01563e92558e8a0875b075ec54c" target="_top" xlink:title="Write output to file identified by output_i. ">
<polygon fill="white" stroke="black" points="752,-105.186 752,-126.186 859,-126.186 859,-105.186 752,-105.186"/>
<text text-anchor="middle" x="805.5" y="-112.586" font-family="Ubuntu Mono" font-size="12.00">messages::writo</text>
</a>
</g>
</g>
<!-- Node122&#45;&gt;Node125 -->
<g id="edge10" class="edge"><title>Node122&#45;&gt;Node125</title>
<path fill="none" stroke="midnightblue" d="M279.802,-118.393C296.792,-97.8035 328.303,-64.3623 364,-49.6856 508.776,9.83915 569.566,17.6349 716,-37.6856 747.235,-49.4856 774.579,-77.8903 790.32,-96.9649"/>
<polygon fill="midnightblue" stroke="midnightblue" points="787.738,-99.3411 796.709,-104.979 793.212,-94.9779 787.738,-99.3411"/>
</g>
<!-- Node128 -->
<g id="node8" class="node"><title>Node128</title>
<g id="a_node8"><a xlink:href="namespacestr__utilities.html#a0b97e51770725a3e98ed393d26681414" target="_top" xlink:title="Convert an integer to string. ">
<polygon fill="white" stroke="black" points="576,-213.186 576,-234.186 713,-234.186 713,-213.186 576,-213.186"/>
<text text-anchor="middle" x="644.5" y="-220.586" font-family="Ubuntu Mono" font-size="12.00">str_utilities::i2str</text>
</a>
</g>
</g>
<!-- Node122&#45;&gt;Node128 -->
<g id="edge11" class="edge"><title>Node122&#45;&gt;Node128</title>
<path fill="none" stroke="midnightblue" d="M283.315,-152.995C301.411,-170.348 331.939,-196.105 364,-207.686 429.117,-231.207 508.306,-233.506 565.745,-230.918"/>
<polygon fill="midnightblue" stroke="midnightblue" points="566.04,-234.407 575.848,-230.402 565.683,-227.416 566.04,-234.407"/>
</g>
<!-- Node129 -->
<g id="node9" class="node"><title>Node129</title>
<g id="a_node9"><a xlink:href="namespacemessages.html#a6e6bfb084063e4cc91ee86e542043302" target="_top" xlink:title="Increases/decreases lvl of output. ">
<polygon fill="white" stroke="black" points="588,-125.186 588,-146.186 701,-146.186 701,-125.186 588,-125.186"/>
<text text-anchor="middle" x="644.5" y="-132.586" font-family="Ubuntu Mono" font-size="12.00">messages::lvl_ud</text>
</a>
</g>
</g>
<!-- Node122&#45;&gt;Node129 -->
<g id="edge8" class="edge"><title>Node122&#45;&gt;Node129</title>
<path fill="none" stroke="midnightblue" d="M328.332,-135.686C397.022,-135.686 507.48,-135.686 577.722,-135.686"/>
<polygon fill="midnightblue" stroke="midnightblue" points="577.784,-139.186 587.784,-135.686 577.784,-132.186 577.784,-139.186"/>
</g>
<!-- Node130 -->
<g id="node10" class="node"><title>Node130</title>
<g id="a_node10"><a xlink:href="namespacestr__utilities.html#ac778d706b2e021672618939ab58fdd32" target="_top" xlink:title="Convert a real (double) to string. ">
<polygon fill="white" stroke="black" points="573,-47.1856 573,-68.1856 716,-68.1856 716,-47.1856 573,-47.1856"/>
<text text-anchor="middle" x="644.5" y="-54.5856" font-family="Ubuntu Mono" font-size="12.00">str_utilities::r2strt</text>
</a>
</g>
</g>
<!-- Node122&#45;&gt;Node130 -->
<g id="edge12" class="edge"><title>Node122&#45;&gt;Node130</title>
<path fill="none" stroke="midnightblue" d="M287.875,-118.594C306.71,-104.596 335.513,-85.6862 364,-76.6856 428.75,-56.2277 506.007,-52.4331 562.87,-53.2111"/>
<polygon fill="midnightblue" stroke="midnightblue" points="562.822,-56.7107 572.885,-53.3981 562.952,-49.7119 562.822,-56.7107"/>
</g>
<!-- Node131 -->
<g id="node11" class="node"><title>Node131</title>
<g id="a_node11"><a xlink:href="namespaceoutput__ops.html#ab0d14194d01ab0534562eab50b37a57a" target="_top" xlink:title="Takes two input vectors and plots these as well as the relative and absolute difference in a HDF5 fil...">
<polygon fill="white" stroke="black" points="364,-86.1856 364,-107.186 537,-107.186 537,-86.1856 364,-86.1856"/>
<text text-anchor="middle" x="450.5" y="-93.5856" font-family="Ubuntu Mono" font-size="12.00">output_ops::plot_diff_hdf5</text>
</a>
</g>
</g>
<!-- Node122&#45;&gt;Node131 -->
<g id="edge13" class="edge"><title>Node122&#45;&gt;Node131</title>
<path fill="none" stroke="midnightblue" d="M328.2,-122.536C348.262,-118.261 370.468,-113.528 390.339,-109.294"/>
<polygon fill="midnightblue" stroke="midnightblue" points="391.139,-112.702 400.189,-107.194 389.68,-105.856 391.139,-112.702"/>
</g>
<!-- Node124&#45;&gt;Node125 -->
<g id="edge4" class="edge"><title>Node124&#45;&gt;Node125</title>
<path fill="none" stroke="midnightblue" d="M516.142,-181.181C570.348,-179.376 649.359,-173.502 716,-155.686 737.106,-150.043 759.518,-139.865 776.508,-131.189"/>
<polygon fill="midnightblue" stroke="midnightblue" points="778.602,-134.043 785.833,-126.299 775.351,-127.843 778.602,-134.043"/>
</g>
<!-- Node124&#45;&gt;Node128 -->
<g id="edge7" class="edge"><title>Node124&#45;&gt;Node128</title>
<path fill="none" stroke="midnightblue" d="M516.235,-195.846C538.704,-200.761 563.738,-206.238 585.618,-211.024"/>
<polygon fill="midnightblue" stroke="midnightblue" points="584.912,-214.452 595.429,-213.17 586.408,-207.614 584.912,-214.452"/>
</g>
<!-- Node126 -->
<g id="node6" class="node"><title>Node126</title>
<g id="a_node6"><a xlink:href="namespacemessages.html#a82dddaab795b78b3d39e1ff1aab2f665" target="_top" xlink:title="Returns the memory usage in kilobytes. ">
<polygon fill="white" stroke="black" points="895,-125.186 895,-146.186 1050,-146.186 1050,-125.186 895,-125.186"/>
<text text-anchor="middle" x="972.5" y="-132.586" font-family="Ubuntu Mono" font-size="12.00">messages::get_mem_usage</text>
</a>
</g>
</g>
<!-- Node125&#45;&gt;Node126 -->
<g id="edge5" class="edge"><title>Node125&#45;&gt;Node126</title>
<path fill="none" stroke="midnightblue" d="M859.161,-122.069C867.452,-123.074 876.208,-124.135 885.025,-125.204"/>
<polygon fill="midnightblue" stroke="midnightblue" points="884.635,-128.682 894.984,-126.411 885.478,-121.733 884.635,-128.682"/>
</g>
<!-- Node127 -->
<g id="node7" class="node"><title>Node127</title>
<g id="a_node7"><a xlink:href="namespacemessages.html#a61fd0b51b5e37d58fdc993c01792a3fd" target="_top" xlink:title="Returns the time. ">
<polygon fill="white" stroke="black" points="907,-85.1856 907,-106.186 1038,-106.186 1038,-85.1856 907,-85.1856"/>
<text text-anchor="middle" x="972.5" y="-92.5856" font-family="Ubuntu Mono" font-size="12.00">messages::get_clock</text>
</a>
</g>
</g>
<!-- Node125&#45;&gt;Node127 -->
<g id="edge6" class="edge"><title>Node125&#45;&gt;Node127</title>
<path fill="none" stroke="midnightblue" d="M859.161,-109.302C871.142,-107.85 884.094,-106.28 896.797,-104.74"/>
<polygon fill="midnightblue" stroke="midnightblue" points="897.402,-108.193 906.908,-103.515 896.56,-101.244 897.402,-108.193"/>
</g>
<!-- Node129&#45;&gt;Node125 -->
<g id="edge9" class="edge"><title>Node129&#45;&gt;Node125</title>
<path fill="none" stroke="midnightblue" d="M701.11,-128.691C714.241,-127.039 728.33,-125.267 741.752,-123.578"/>
<polygon fill="midnightblue" stroke="midnightblue" points="742.374,-127.028 751.859,-122.307 741.5,-120.083 742.374,-127.028"/>
</g>
<!-- Node131&#45;&gt;Node125 -->
<g id="edge14" class="edge"><title>Node131&#45;&gt;Node125</title>
<path fill="none" stroke="midnightblue" d="M537.402,-101.309C600.418,-104.701 684.573,-109.231 741.45,-112.292"/>
<polygon fill="midnightblue" stroke="midnightblue" points="741.568,-115.803 751.742,-112.846 741.944,-108.813 741.568,-115.803"/>
</g>
<!-- Node131&#45;&gt;Node129 -->
<g id="edge15" class="edge"><title>Node131&#45;&gt;Node129</title>
<path fill="none" stroke="midnightblue" d="M503.205,-107.188C527.424,-112.108 556.461,-118.006 581.819,-123.157"/>
<polygon fill="midnightblue" stroke="midnightblue" points="581.206,-126.604 591.703,-125.164 582.599,-119.744 581.206,-126.604"/>
</g>
<!-- Node131&#45;&gt;Node130 -->
<g id="edge16" class="edge"><title>Node131&#45;&gt;Node130</title>
<path fill="none" stroke="midnightblue" d="M503.205,-86.183C527.424,-81.2635 556.461,-75.3654 581.819,-70.2146"/>
<polygon fill="midnightblue" stroke="midnightblue" points="582.599,-73.6275 591.703,-68.2069 581.206,-66.7676 582.599,-73.6275"/>
</g>
</g>
</svg>
