<?xml version="1.0" encoding="UTF-8" standalone="no"?>
<!DOCTYPE svg PUBLIC "-//W3C//DTD SVG 1.1//EN"
 "http://www.w3.org/Graphics/SVG/1.1/DTD/svg11.dtd">
<!-- Generated by graphviz version 2.38.0 (20140413.2041)
 -->
<!-- Title: driver_post::open_decomp_log Pages: 1 -->
<svg width="491pt" height="30pt"
 viewBox="0.00 0.00 491.00 30.00" xmlns="http://www.w3.org/2000/svg" xmlns:xlink="http://www.w3.org/1999/xlink">
<g id="graph0" class="graph" transform="scale(1 1) rotate(0) translate(4 26)">
<title>driver_post::open_decomp_log</title>
<polygon fill="white" stroke="none" points="-4,4 -4,-26 487,-26 487,4 -4,4"/>
<!-- Node86 -->
<g id="node1" class="node"><title>Node86</title>
<polygon fill="#bfbfbf" stroke="black" points="0,-0.5 0,-21.5 185,-21.5 185,-0.5 0,-0.5"/>
<text text-anchor="middle" x="92.5" y="-7.9" font-family="Ubuntu Mono" font-size="12.00">driver_post::open_decomp_log</text>
</g>
<!-- Node87 -->
<g id="node2" class="node"><title>Node87</title>
<g id="a_node2"><a xlink:href="namespacedriver__post.html#a33b3c6f9018a0ddc92dce77394b8ab37" target="_top" xlink:title="driver_post::run_driver_post">
<polygon fill="white" stroke="black" points="221,-0.5 221,-21.5 406,-21.5 406,-0.5 221,-0.5"/>
<text text-anchor="middle" x="313.5" y="-7.9" font-family="Ubuntu Mono" font-size="12.00">driver_post::run_driver_post</text>
</a>
</g>
</g>
<!-- Node86&#45;&gt;Node87 -->
<g id="edge1" class="edge"><title>Node86&#45;&gt;Node87</title>
<path fill="none" stroke="midnightblue" d="M195.151,-11C203.743,-11 212.4,-11 220.908,-11"/>
<polygon fill="midnightblue" stroke="midnightblue" points="195.107,-7.5001 185.107,-11 195.107,-14.5001 195.107,-7.5001"/>
</g>
<!-- Node88 -->
<g id="node3" class="node"><title>Node88</title>
<g id="a_node3"><a xlink:href="POST_8f90.html#ac289b64ac4671fea0b4f2298ba1188a1" target="_top" xlink:title="post">
<polygon fill="white" stroke="black" points="442,-0.5 442,-21.5 483,-21.5 483,-0.5 442,-0.5"/>
<text text-anchor="middle" x="462.5" y="-7.9" font-family="Ubuntu Mono" font-size="12.00">post</text>
</a>
</g>
</g>
<!-- Node87&#45;&gt;Node88 -->
<g id="edge2" class="edge"><title>Node87&#45;&gt;Node88</title>
<path fill="none" stroke="midnightblue" d="M416.464,-11C425.946,-11 434.681,-11 441.883,-11"/>
<polygon fill="midnightblue" stroke="midnightblue" points="416.344,-7.5001 406.344,-11 416.344,-14.5001 416.344,-7.5001"/>
</g>
</g>
</svg>
