<?xml version="1.0" encoding="UTF-8" standalone="no"?>
<!DOCTYPE svg PUBLIC "-//W3C//DTD SVG 1.1//EN"
 "http://www.w3.org/Graphics/SVG/1.1/DTD/svg11.dtd">
<!-- Generated by graphviz version 2.43.0 (0)
 -->
<!-- Title: slepc_ops::setup_mats Pages: 1 -->
<svg width="1305pt" height="704pt"
 viewBox="0.00 0.00 1305.00 704.00" xmlns="http://www.w3.org/2000/svg" xmlns:xlink="http://www.w3.org/1999/xlink">
<g id="graph0" class="graph" transform="scale(1 1) rotate(0) translate(4 700)">
<title>slepc_ops::setup_mats</title>
<polygon fill="white" stroke="transparent" points="-4,4 -4,-700 1301,-700 1301,4 -4,4"/>
<!-- Node1 -->
<g id="node1" class="node">
<title>Node1</title>
<g id="a_node1"><a xlink:title="Sets up the matrices &#160;and &#160;in the EV problem .">
<polygon fill="#bfbfbf" stroke="black" points="0,-406.5 0,-427.5 151,-427.5 151,-406.5 0,-406.5"/>
<text text-anchor="middle" x="75.5" y="-413.9" font-family="Ubuntu Mono" font-size="12.00">slepc_ops::setup_mats</text>
</a>
</g>
</g>
<!-- Node2 -->
<g id="node2" class="node">
<title>Node2</title>
<g id="a_node2"><a xlink:href="namespacenum__utilities.html#a5ee3fbd1fe67d0deefc7194631389f2a" target="_top" xlink:title="Convert 2&#45;D coordinates (i,j) to the storage convention used in matrices.">
<polygon fill="white" stroke="black" points="208.5,-674.5 208.5,-695.5 314.5,-695.5 314.5,-674.5 208.5,-674.5"/>
<text text-anchor="middle" x="261.5" y="-681.9" font-family="Ubuntu Mono" font-size="12.00">num_utilities::c</text>
</a>
</g>
</g>
<!-- Node1&#45;&gt;Node2 -->
<g id="edge1" class="edge">
<title>Node1&#45;&gt;Node2</title>
<path fill="none" stroke="midnightblue" d="M77.96,-427.61C83.83,-465.92 109.16,-598.28 187,-665 190.54,-668.04 194.5,-670.61 198.7,-672.8"/>
<polygon fill="midnightblue" stroke="midnightblue" points="197.63,-676.16 208.19,-677 200.46,-669.76 197.63,-676.16"/>
</g>
<!-- Node3 -->
<g id="node3" class="node">
<title>Node3</title>
<g id="a_node3"><a xlink:href="namespacenum__utilities.html#a4dffe3beba7165dd17cff19a99a9e2ac" target="_top" xlink:title="Calculate the coefficients for finite differences.">
<polygon fill="white" stroke="black" points="200,-621 200,-655 323,-655 323,-621 200,-621"/>
<text text-anchor="start" x="208" y="-641.4" font-family="Ubuntu Mono" font-size="12.00">num_utilities::calc</text>
<text text-anchor="middle" x="261.5" y="-628.4" font-family="Ubuntu Mono" font-size="12.00">_coeff_fin_diff</text>
</a>
</g>
</g>
<!-- Node1&#45;&gt;Node3 -->
<g id="edge2" class="edge">
<title>Node1&#45;&gt;Node3</title>
<path fill="none" stroke="midnightblue" d="M79.98,-427.53C90.85,-458.88 127.03,-552.75 187,-606 191.16,-609.7 195.82,-613.02 200.71,-615.99"/>
<polygon fill="midnightblue" stroke="midnightblue" points="199.28,-619.2 209.72,-620.98 202.67,-613.08 199.28,-619.2"/>
</g>
<!-- Node6 -->
<g id="node6" class="node">
<title>Node6</title>
<g id="a_node6"><a xlink:href="namespaceinput__utilities.html#ad9ce824c30b32041ab70f3fb191f06db" target="_top" xlink:title="Queries for a logical value yes or no, where the default answer is also to be provided.">
<polygon fill="white" stroke="black" points="585.5,-156.5 585.5,-177.5 731.5,-177.5 731.5,-156.5 585.5,-156.5"/>
<text text-anchor="middle" x="658.5" y="-163.9" font-family="Ubuntu Mono" font-size="12.00">input_utilities::get_log</text>
</a>
</g>
</g>
<!-- Node1&#45;&gt;Node6 -->
<g id="edge5" class="edge">
<title>Node1&#45;&gt;Node6</title>
<path fill="none" stroke="midnightblue" d="M83.09,-406.23C98.36,-382.19 138.55,-323.76 187,-292 307.44,-213.04 476,-183.82 575.26,-173.1"/>
<polygon fill="midnightblue" stroke="midnightblue" points="575.65,-176.58 585.24,-172.06 574.93,-169.61 575.65,-176.58"/>
</g>
<!-- Node8 -->
<g id="node8" class="node">
<title>Node8</title>
<g id="a_node8"><a xlink:href="namespacemessages.html#aa4a8d01563e92558e8a0875b075ec54c" target="_top" xlink:title="Write output to file identified by output_i.">
<polygon fill="white" stroke="black" points="964,-314.5 964,-335.5 1078,-335.5 1078,-314.5 964,-314.5"/>
<text text-anchor="middle" x="1021" y="-321.9" font-family="Ubuntu Mono" font-size="12.00">messages::writo</text>
</a>
</g>
</g>
<!-- Node1&#45;&gt;Node8 -->
<g id="edge40" class="edge">
<title>Node1&#45;&gt;Node8</title>
<path fill="none" stroke="midnightblue" d="M151.17,-424.25C227.17,-430.99 348.42,-440 453.5,-440 453.5,-440 453.5,-440 659.5,-440 780.8,-440 816.34,-438.4 928,-391 955.83,-379.19 983.44,-357.74 1001.04,-342.5"/>
<polygon fill="midnightblue" stroke="midnightblue" points="1003.67,-344.84 1008.83,-335.59 999.02,-339.61 1003.67,-344.84"/>
</g>
<!-- Node11 -->
<g id="node11" class="node">
<title>Node11</title>
<g id="a_node11"><a xlink:href="namespacestr__utilities.html#a0b97e51770725a3e98ed393d26681414" target="_top" xlink:title="Convert an integer to string.">
<polygon fill="white" stroke="black" points="1148.5,-524.5 1148.5,-545.5 1262.5,-545.5 1262.5,-524.5 1148.5,-524.5"/>
<text text-anchor="middle" x="1205.5" y="-531.9" font-family="Ubuntu Mono" font-size="12.00">str_utilities::i2str</text>
</a>
</g>
</g>
<!-- Node1&#45;&gt;Node11 -->
<g id="edge20" class="edge">
<title>Node1&#45;&gt;Node11</title>
<path fill="none" stroke="midnightblue" d="M88.87,-427.68C134.16,-465.68 296.55,-592 453.5,-592 453.5,-592 453.5,-592 855,-592 963.62,-592 1088.78,-564.85 1155.92,-548.03"/>
<polygon fill="midnightblue" stroke="midnightblue" points="1156.96,-551.37 1165.79,-545.52 1155.23,-544.59 1156.96,-551.37"/>
</g>
<!-- Node14 -->
<g id="node14" class="node">
<title>Node14</title>
<g id="a_node14"><a xlink:href="namespaceinput__utilities.html#a41fc0c806e12bc722771210cfa1edbd3" target="_top" xlink:title="Queries for user input for a real value, where allowable range can be provided as well.">
<polygon fill="white" stroke="black" points="583.5,-196.5 583.5,-217.5 733.5,-217.5 733.5,-196.5 583.5,-196.5"/>
<text text-anchor="middle" x="658.5" y="-203.9" font-family="Ubuntu Mono" font-size="12.00">input_utilities::get_real</text>
</a>
</g>
</g>
<!-- Node1&#45;&gt;Node14 -->
<g id="edge15" class="edge">
<title>Node1&#45;&gt;Node14</title>
<path fill="none" stroke="midnightblue" d="M96.43,-406.39C143.36,-381.73 264.98,-319.69 372,-281 458.99,-249.55 483.32,-249.66 573,-227 582.33,-224.64 592.26,-222.22 601.91,-219.91"/>
<polygon fill="midnightblue" stroke="midnightblue" points="602.91,-223.27 611.83,-217.54 601.29,-216.46 602.91,-223.27"/>
</g>
<!-- Node15 -->
<g id="node15" class="node">
<title>Node15</title>
<g id="a_node15"><a xlink:href="namespacestr__utilities.html#ac778d706b2e021672618939ab58fdd32" target="_top" xlink:title="Convert a real (double) to string.">
<polygon fill="white" stroke="black" points="793.5,-78.5 793.5,-99.5 914.5,-99.5 914.5,-78.5 793.5,-78.5"/>
<text text-anchor="middle" x="854" y="-85.9" font-family="Ubuntu Mono" font-size="12.00">str_utilities::r2strt</text>
</a>
</g>
</g>
<!-- Node1&#45;&gt;Node15 -->
<g id="edge38" class="edge">
<title>Node1&#45;&gt;Node15</title>
<path fill="none" stroke="midnightblue" d="M79.16,-406.41C88.08,-373.12 120.26,-269.76 187,-219 367.09,-82.04 651.79,-77.41 782.8,-83.64"/>
<polygon fill="midnightblue" stroke="midnightblue" points="782.93,-87.16 793.1,-84.17 783.29,-80.17 782.93,-87.16"/>
</g>
<!-- Node16 -->
<g id="node16" class="node">
<title>Node16</title>
<g id="a_node16"><a xlink:href="namespaceslepc__utilities.html#aa34aa361f0bfff9621ecba179f9ed0c6" target="_top" xlink:title="Insert a block pertaining to 1 normal point into a matrix.">
<polygon fill="white" stroke="black" points="193,-377 193,-411 330,-411 330,-377 193,-377"/>
<text text-anchor="start" x="201" y="-397.4" font-family="Ubuntu Mono" font-size="12.00">slepc_utilities::insert</text>
<text text-anchor="middle" x="261.5" y="-384.4" font-family="Ubuntu Mono" font-size="12.00">_block_mat</text>
</a>
</g>
</g>
<!-- Node1&#45;&gt;Node16 -->
<g id="edge21" class="edge">
<title>Node1&#45;&gt;Node16</title>
<path fill="none" stroke="midnightblue" d="M151.07,-407.68C161.57,-406.37 172.38,-405.02 182.92,-403.7"/>
<polygon fill="midnightblue" stroke="midnightblue" points="183.45,-407.16 192.94,-402.45 182.58,-400.21 183.45,-407.16"/>
</g>
<!-- Node17 -->
<g id="node17" class="node">
<title>Node17</title>
<g id="a_node17"><a xlink:href="namespacemessages.html#a6e6bfb084063e4cc91ee86e542043302" target="_top" xlink:title="Increases/decreases lvl of output.">
<polygon fill="white" stroke="black" points="395.5,-468.5 395.5,-489.5 513.5,-489.5 513.5,-468.5 395.5,-468.5"/>
<text text-anchor="middle" x="454.5" y="-475.9" font-family="Ubuntu Mono" font-size="12.00">messages::lvl_ud</text>
</a>
</g>
</g>
<!-- Node1&#45;&gt;Node17 -->
<g id="edge37" class="edge">
<title>Node1&#45;&gt;Node17</title>
<path fill="none" stroke="midnightblue" d="M102.38,-427.55C124.48,-436.1 157.31,-447.72 187,-454 253.53,-468.06 331.07,-474.22 385.3,-476.91"/>
<polygon fill="midnightblue" stroke="midnightblue" points="385.33,-480.41 395.48,-477.39 385.66,-473.42 385.33,-480.41"/>
</g>
<!-- Node23 -->
<g id="node23" class="node">
<title>Node23</title>
<g id="a_node23"><a xlink:href="namespacegrid__utilities.html#a67001ff9bbcad707aacf17f90a748d90" target="_top" xlink:title="Trim a grid, removing any overlap between the different regions.">
<polygon fill="white" stroke="black" points="187,-78.5 187,-99.5 336,-99.5 336,-78.5 187,-78.5"/>
<text text-anchor="middle" x="261.5" y="-85.9" font-family="Ubuntu Mono" font-size="12.00">grid_utilities::trim_grid</text>
</a>
</g>
</g>
<!-- Node1&#45;&gt;Node23 -->
<g id="edge39" class="edge">
<title>Node1&#45;&gt;Node23</title>
<path fill="none" stroke="midnightblue" d="M77.17,-406.41C80.46,-363.48 98.55,-200.54 187,-114 190.97,-110.11 195.58,-106.83 200.5,-104.05"/>
<polygon fill="midnightblue" stroke="midnightblue" points="202.19,-107.12 209.64,-99.59 199.12,-100.83 202.19,-107.12"/>
</g>
<!-- Node4 -->
<g id="node4" class="node">
<title>Node4</title>
<g id="a_node4"><a xlink:href="namespacenum__utilities.html#a43ab60f9e202b55221373286a5bbb954" target="_top" xlink:title="Calculate factorial.">
<polygon fill="white" stroke="black" points="395.5,-663.5 395.5,-684.5 513.5,-684.5 513.5,-663.5 395.5,-663.5"/>
<text text-anchor="middle" x="454.5" y="-670.9" font-family="Ubuntu Mono" font-size="12.00">num_utilities::fac</text>
</a>
</g>
</g>
<!-- Node3&#45;&gt;Node4 -->
<g id="edge3" class="edge">
<title>Node3&#45;&gt;Node4</title>
<path fill="none" stroke="midnightblue" d="M323.2,-649.44C343.66,-653.3 366.59,-657.62 387.45,-661.55"/>
<polygon fill="midnightblue" stroke="midnightblue" points="387.03,-665.03 397.5,-663.45 388.32,-658.15 387.03,-665.03"/>
</g>
<!-- Node5 -->
<g id="node5" class="node">
<title>Node5</title>
<g id="a_node5"><a xlink:href="namespacenum__utilities.html#a54c65e345182e2e7e13ac14a0ba3647a" target="_top" xlink:title="Solve a Vandermonde system .">
<polygon fill="white" stroke="black" points="372,-623.5 372,-644.5 537,-644.5 537,-623.5 372,-623.5"/>
<text text-anchor="middle" x="454.5" y="-630.9" font-family="Ubuntu Mono" font-size="12.00">num_utilities::solve_vand</text>
</a>
</g>
</g>
<!-- Node3&#45;&gt;Node5 -->
<g id="edge4" class="edge">
<title>Node3&#45;&gt;Node5</title>
<path fill="none" stroke="midnightblue" d="M323.2,-636.73C335.35,-636.47 348.37,-636.2 361.32,-635.93"/>
<polygon fill="midnightblue" stroke="midnightblue" points="361.74,-639.42 371.66,-635.71 361.59,-632.42 361.74,-639.42"/>
</g>
<!-- Node7 -->
<g id="node7" class="node">
<title>Node7</title>
<g id="a_node7"><a xlink:href="namespacemessages.html#a84d5988f3ea5ca8dc2834032f896ae90" target="_top" xlink:title="Start a timer.">
<polygon fill="white" stroke="black" points="781.5,-196.5 781.5,-217.5 926.5,-217.5 926.5,-196.5 781.5,-196.5"/>
<text text-anchor="middle" x="854" y="-203.9" font-family="Ubuntu Mono" font-size="12.00">messages::start_time</text>
</a>
</g>
</g>
<!-- Node6&#45;&gt;Node7 -->
<g id="edge6" class="edge">
<title>Node6&#45;&gt;Node7</title>
<path fill="none" stroke="midnightblue" d="M710.34,-177.51C735.46,-182.7 765.96,-189.01 792.29,-194.45"/>
<polygon fill="midnightblue" stroke="midnightblue" points="791.66,-197.89 802.16,-196.49 793.08,-191.04 791.66,-197.89"/>
</g>
<!-- Node6&#45;&gt;Node8 -->
<g id="edge14" class="edge">
<title>Node6&#45;&gt;Node8</title>
<path fill="none" stroke="midnightblue" d="M668.05,-156.29C686.02,-134.74 730.2,-86.69 780,-69 841.98,-46.98 874.19,-31.16 928,-69 1006.65,-124.31 1018.39,-253.57 1019.9,-304.17"/>
<polygon fill="midnightblue" stroke="midnightblue" points="1016.4,-304.3 1020.09,-314.23 1023.4,-304.17 1016.4,-304.3"/>
</g>
<!-- Node12 -->
<g id="node12" class="node">
<title>Node12</title>
<g id="a_node12"><a xlink:href="namespacemessages.html#aed343894ae4a28ad6dfbd1d39aac64ff" target="_top" xlink:title="Stop a timer.">
<polygon fill="white" stroke="black" points="782.5,-156.5 782.5,-177.5 925.5,-177.5 925.5,-156.5 782.5,-156.5"/>
<text text-anchor="middle" x="854" y="-163.9" font-family="Ubuntu Mono" font-size="12.00">messages::stop_time</text>
</a>
</g>
</g>
<!-- Node6&#45;&gt;Node12 -->
<g id="edge11" class="edge">
<title>Node6&#45;&gt;Node12</title>
<path fill="none" stroke="midnightblue" d="M731.55,-167C744.82,-167 758.76,-167 772.27,-167"/>
<polygon fill="midnightblue" stroke="midnightblue" points="772.5,-170.5 782.5,-167 772.5,-163.5 772.5,-170.5"/>
</g>
<!-- Node13 -->
<g id="node13" class="node">
<title>Node13</title>
<g id="a_node13"><a xlink:href="namespacestr__utilities.html#a219964a283968cc6a968db0197d2187e" target="_top" xlink:title="Convert a string to lowercase.">
<polygon fill="white" stroke="black" points="793.5,-0.5 793.5,-21.5 914.5,-21.5 914.5,-0.5 793.5,-0.5"/>
<text text-anchor="middle" x="854" y="-7.9" font-family="Ubuntu Mono" font-size="12.00">str_utilities::strh2l</text>
</a>
</g>
</g>
<!-- Node6&#45;&gt;Node13 -->
<g id="edge13" class="edge">
<title>Node6&#45;&gt;Node13</title>
<path fill="none" stroke="midnightblue" d="M666.59,-156.16C683.37,-131.35 728,-69.96 780,-36 786.32,-31.87 793.4,-28.35 800.6,-25.36"/>
<polygon fill="midnightblue" stroke="midnightblue" points="802.32,-28.45 810.42,-21.62 799.83,-21.91 802.32,-28.45"/>
</g>
<!-- Node7&#45;&gt;Node8 -->
<g id="edge7" class="edge">
<title>Node7&#45;&gt;Node8</title>
<path fill="none" stroke="midnightblue" d="M896.67,-217.59C907.33,-221.27 918.47,-226.02 928,-232 959.98,-252.07 989.23,-285.29 1005.8,-306.12"/>
<polygon fill="midnightblue" stroke="midnightblue" points="1003.19,-308.47 1012.1,-314.22 1008.72,-304.17 1003.19,-308.47"/>
</g>
<!-- Node9 -->
<g id="node9" class="node">
<title>Node9</title>
<g id="a_node9"><a xlink:href="namespacemessages.html#a61fd0b51b5e37d58fdc993c01792a3fd" target="_top" xlink:title="Returns the time.">
<polygon fill="white" stroke="black" points="1135.5,-334.5 1135.5,-355.5 1275.5,-355.5 1275.5,-334.5 1135.5,-334.5"/>
<text text-anchor="middle" x="1205.5" y="-341.9" font-family="Ubuntu Mono" font-size="12.00">messages::get_clock</text>
</a>
</g>
</g>
<!-- Node8&#45;&gt;Node9 -->
<g id="edge8" class="edge">
<title>Node8&#45;&gt;Node9</title>
<path fill="none" stroke="midnightblue" d="M1078.25,-331.16C1093.02,-332.78 1109.24,-334.56 1124.99,-336.29"/>
<polygon fill="midnightblue" stroke="midnightblue" points="1124.93,-339.8 1135.25,-337.41 1125.69,-332.84 1124.93,-339.8"/>
</g>
<!-- Node10 -->
<g id="node10" class="node">
<title>Node10</title>
<g id="a_node10"><a xlink:href="namespacemessages.html#a82dddaab795b78b3d39e1ff1aab2f665" target="_top" xlink:title="Returns the memory usage in kilobytes.">
<polygon fill="white" stroke="black" points="1114,-294.5 1114,-315.5 1297,-315.5 1297,-294.5 1114,-294.5"/>
<text text-anchor="middle" x="1205.5" y="-301.9" font-family="Ubuntu Mono" font-size="12.00">messages::get_mem_usage</text>
</a>
</g>
</g>
<!-- Node8&#45;&gt;Node10 -->
<g id="edge9" class="edge">
<title>Node8&#45;&gt;Node10</title>
<path fill="none" stroke="midnightblue" d="M1078.25,-318.84C1086.46,-317.94 1095.13,-316.99 1103.91,-316.02"/>
<polygon fill="midnightblue" stroke="midnightblue" points="1104.3,-319.5 1113.86,-314.93 1103.53,-312.54 1104.3,-319.5"/>
</g>
<!-- Node8&#45;&gt;Node11 -->
<g id="edge10" class="edge">
<title>Node8&#45;&gt;Node11</title>
<path fill="none" stroke="midnightblue" d="M1031.3,-335.7C1060.65,-369.47 1151.55,-474.07 1188.57,-516.67"/>
<polygon fill="midnightblue" stroke="midnightblue" points="1186.02,-519.07 1195.22,-524.32 1191.3,-514.48 1186.02,-519.07"/>
</g>
<!-- Node12&#45;&gt;Node8 -->
<g id="edge12" class="edge">
<title>Node12&#45;&gt;Node8</title>
<path fill="none" stroke="midnightblue" d="M910.38,-177.54C916.64,-180.05 922.67,-183.16 928,-187 970.61,-217.75 999.22,-274.78 1012.14,-305"/>
<polygon fill="midnightblue" stroke="midnightblue" points="1009,-306.58 1016.05,-314.49 1015.47,-303.91 1009,-306.58"/>
</g>
<!-- Node14&#45;&gt;Node7 -->
<g id="edge17" class="edge">
<title>Node14&#45;&gt;Node7</title>
<path fill="none" stroke="midnightblue" d="M733.76,-207C746,-207 758.75,-207 771.16,-207"/>
<polygon fill="midnightblue" stroke="midnightblue" points="771.49,-210.5 781.49,-207 771.49,-203.5 771.49,-210.5"/>
</g>
<!-- Node14&#45;&gt;Node8 -->
<g id="edge19" class="edge">
<title>Node14&#45;&gt;Node8</title>
<path fill="none" stroke="midnightblue" d="M722.99,-196.46C730.34,-193.95 737.52,-190.84 744,-187 764.57,-174.8 758.15,-156.73 780,-147 840.09,-120.24 871.82,-112.79 928,-147 985.33,-181.9 1008.5,-265.31 1016.44,-304.28"/>
<polygon fill="midnightblue" stroke="midnightblue" points="1013.06,-305.26 1018.36,-314.43 1019.94,-303.95 1013.06,-305.26"/>
</g>
<!-- Node14&#45;&gt;Node12 -->
<g id="edge18" class="edge">
<title>Node14&#45;&gt;Node12</title>
<path fill="none" stroke="midnightblue" d="M710.34,-196.49C735.46,-191.3 765.96,-184.99 792.29,-179.55"/>
<polygon fill="midnightblue" stroke="midnightblue" points="793.08,-182.96 802.16,-177.51 791.66,-176.11 793.08,-182.96"/>
</g>
<!-- Node14&#45;&gt;Node15 -->
<g id="edge16" class="edge">
<title>Node14&#45;&gt;Node15</title>
<path fill="none" stroke="midnightblue" d="M728.38,-196.34C733.98,-193.83 739.28,-190.76 744,-187 772.3,-164.46 752.83,-137.89 780,-114 784.51,-110.03 789.68,-106.69 795.14,-103.87"/>
<polygon fill="midnightblue" stroke="midnightblue" points="796.88,-106.93 804.54,-99.61 793.99,-100.55 796.88,-106.93"/>
</g>
<!-- Node16&#45;&gt;Node8 -->
<g id="edge36" class="edge">
<title>Node16&#45;&gt;Node8</title>
<path fill="none" stroke="midnightblue" d="M330.26,-399.44C451.92,-407.37 714.59,-416.08 928,-365 950.29,-359.66 973.98,-349.24 991.74,-340.37"/>
<polygon fill="midnightblue" stroke="midnightblue" points="993.65,-343.33 1000.95,-335.65 990.45,-337.1 993.65,-343.33"/>
</g>
<!-- Node16&#45;&gt;Node11 -->
<g id="edge22" class="edge">
<title>Node16&#45;&gt;Node11</title>
<path fill="none" stroke="midnightblue" d="M275.2,-411.3C293.69,-435.11 330.36,-477.46 372,-499 486.78,-558.37 528.28,-554 657.5,-554 657.5,-554 657.5,-554 855,-554 953.75,-554 1067.96,-546.34 1138.22,-540.75"/>
<polygon fill="midnightblue" stroke="midnightblue" points="1138.57,-544.23 1148.26,-539.94 1138.01,-537.26 1138.57,-544.23"/>
</g>
<!-- Node16&#45;&gt;Node17 -->
<g id="edge23" class="edge">
<title>Node16&#45;&gt;Node17</title>
<path fill="none" stroke="midnightblue" d="M301.15,-411.2C336.17,-426.79 387.23,-449.51 420.41,-464.27"/>
<polygon fill="midnightblue" stroke="midnightblue" points="419.12,-467.53 429.68,-468.4 421.97,-461.14 419.12,-467.53"/>
</g>
<!-- Node18 -->
<g id="node18" class="node">
<title>Node18</title>
<g id="a_node18"><a xlink:href="namespaceinput__utilities.html#a71bd36f063d55ab62c7a37864aef1185" target="_top" xlink:title="Pauses the running of the program.">
<polygon fill="white" stroke="black" points="573,-236.5 573,-257.5 744,-257.5 744,-236.5 573,-236.5"/>
<text text-anchor="middle" x="658.5" y="-243.9" font-family="Ubuntu Mono" font-size="12.00">input_utilities::pause_prog</text>
</a>
</g>
</g>
<!-- Node16&#45;&gt;Node18 -->
<g id="edge25" class="edge">
<title>Node16&#45;&gt;Node18</title>
<path fill="none" stroke="midnightblue" d="M296.59,-376.92C317.98,-366.51 346.29,-353.27 372,-343 455.37,-309.69 555.33,-277.88 612.13,-260.54"/>
<polygon fill="midnightblue" stroke="midnightblue" points="613.33,-263.83 621.88,-257.58 611.29,-257.13 613.33,-263.83"/>
</g>
<!-- Node20 -->
<g id="node20" class="node">
<title>Node20</title>
<g id="a_node20"><a xlink:href="SLEPC__utilities_8f90.html#a711d6be49d3b1542ee3375bceb5b4e6d" target="_top" xlink:title="/private Set up local block, possibly translated for fast PB3D.">
<polygon fill="white" stroke="black" points="394,-352.5 394,-373.5 515,-373.5 515,-352.5 394,-352.5"/>
<text text-anchor="middle" x="454.5" y="-359.9" font-family="Ubuntu Mono" font-size="12.00">setup_local_block</text>
</a>
</g>
</g>
<!-- Node16&#45;&gt;Node20 -->
<g id="edge30" class="edge">
<title>Node16&#45;&gt;Node20</title>
<path fill="none" stroke="midnightblue" d="M330.11,-383.03C347.51,-380.2 366.27,-377.16 383.78,-374.32"/>
<polygon fill="midnightblue" stroke="midnightblue" points="384.61,-377.73 393.92,-372.67 383.49,-370.82 384.61,-377.73"/>
</g>
<!-- Node17&#45;&gt;Node8 -->
<g id="edge24" class="edge">
<title>Node17&#45;&gt;Node8</title>
<path fill="none" stroke="midnightblue" d="M504.46,-489.52C594.63,-506.2 790.28,-529.61 928,-454 971.79,-429.96 999.75,-375.12 1012.3,-345.27"/>
<polygon fill="midnightblue" stroke="midnightblue" points="1015.61,-346.43 1016.1,-335.84 1009.11,-343.81 1015.61,-346.43"/>
</g>
<!-- Node18&#45;&gt;Node7 -->
<g id="edge26" class="edge">
<title>Node18&#45;&gt;Node7</title>
<path fill="none" stroke="midnightblue" d="M710.34,-236.49C735.46,-231.3 765.96,-224.99 792.29,-219.55"/>
<polygon fill="midnightblue" stroke="midnightblue" points="793.08,-222.96 802.16,-217.51 791.66,-216.11 793.08,-222.96"/>
</g>
<!-- Node18&#45;&gt;Node8 -->
<g id="edge29" class="edge">
<title>Node18&#45;&gt;Node8</title>
<path fill="none" stroke="midnightblue" d="M744.16,-241.85C798.1,-241.18 868.73,-245.2 928,-265 955.51,-274.19 982.81,-293.64 1000.44,-307.92"/>
<polygon fill="midnightblue" stroke="midnightblue" points="998.35,-310.73 1008.27,-314.44 1002.82,-305.35 998.35,-310.73"/>
</g>
<!-- Node18&#45;&gt;Node12 -->
<g id="edge27" class="edge">
<title>Node18&#45;&gt;Node12</title>
<path fill="none" stroke="midnightblue" d="M722.99,-236.46C730.34,-233.95 737.52,-230.84 744,-227 764.57,-214.8 759.64,-199.56 780,-187 783.36,-184.93 786.95,-183.06 790.65,-181.39"/>
<polygon fill="midnightblue" stroke="midnightblue" points="792.07,-184.59 800.04,-177.61 789.45,-178.1 792.07,-184.59"/>
</g>
<!-- Node19 -->
<g id="node19" class="node">
<title>Node19</title>
<g id="a_node19"><a xlink:href="namespacempi__utilities.html#a790ea24d32dd0e249541c1e57cd85536" target="_top" xlink:title="Wait for all processes, wrapper to MPI barrier.">
<polygon fill="white" stroke="black" points="780,-274.5 780,-295.5 928,-295.5 928,-274.5 780,-274.5"/>
<text text-anchor="middle" x="854" y="-281.9" font-family="Ubuntu Mono" font-size="12.00">mpi_utilities::wait_mpi</text>
</a>
</g>
</g>
<!-- Node18&#45;&gt;Node19 -->
<g id="edge28" class="edge">
<title>Node18&#45;&gt;Node19</title>
<path fill="none" stroke="midnightblue" d="M713.14,-257.53C736.74,-262.17 764.63,-267.65 789.27,-272.48"/>
<polygon fill="midnightblue" stroke="midnightblue" points="788.77,-275.95 799.25,-274.44 790.11,-269.08 788.77,-275.95"/>
</g>
<!-- Node20&#45;&gt;Node8 -->
<g id="edge35" class="edge">
<title>Node20&#45;&gt;Node8</title>
<path fill="none" stroke="midnightblue" d="M515.07,-364.08C604.95,-364.95 780.39,-363.71 928,-345 941.44,-343.3 955.82,-340.6 969.12,-337.73"/>
<polygon fill="midnightblue" stroke="midnightblue" points="970.05,-341.11 979.05,-335.52 968.53,-334.28 970.05,-341.11"/>
</g>
<!-- Node20&#45;&gt;Node11 -->
<g id="edge31" class="edge">
<title>Node20&#45;&gt;Node11</title>
<path fill="none" stroke="midnightblue" d="M501.23,-373.5C631.81,-403.49 1006.15,-489.45 1148.57,-522.16"/>
<polygon fill="midnightblue" stroke="midnightblue" points="1147.89,-525.59 1158.42,-524.42 1149.46,-518.77 1147.89,-525.59"/>
</g>
<!-- Node21 -->
<g id="node21" class="node">
<title>Node21</title>
<g id="a_node21"><a xlink:href="namespacemessages.html#a80797cedef6112b8dccaeda431f0c610" target="_top" xlink:title="Print an array of dimension 2 on the screen.">
<polygon fill="white" stroke="black" points="586.5,-314.5 586.5,-335.5 730.5,-335.5 730.5,-314.5 586.5,-314.5"/>
<text text-anchor="middle" x="658.5" y="-321.9" font-family="Ubuntu Mono" font-size="12.00">messages::print_ar_2</text>
</a>
</g>
</g>
<!-- Node20&#45;&gt;Node21 -->
<g id="edge32" class="edge">
<title>Node20&#45;&gt;Node21</title>
<path fill="none" stroke="midnightblue" d="M511.5,-352.47C536.24,-347.81 565.5,-342.31 591.31,-337.45"/>
<polygon fill="midnightblue" stroke="midnightblue" points="592.21,-340.84 601.39,-335.56 590.92,-333.96 592.21,-340.84"/>
</g>
<!-- Node22 -->
<g id="node22" class="node">
<title>Node22</title>
<g id="a_node22"><a xlink:href="namespacemessages.html#a5686118397930f505259225f3688216b" target="_top" xlink:title="Print an array of dimension 1 on the screen.">
<polygon fill="white" stroke="black" points="782,-314.5 782,-335.5 926,-335.5 926,-314.5 782,-314.5"/>
<text text-anchor="middle" x="854" y="-321.9" font-family="Ubuntu Mono" font-size="12.00">messages::print_ar_1</text>
</a>
</g>
</g>
<!-- Node21&#45;&gt;Node22 -->
<g id="edge33" class="edge">
<title>Node21&#45;&gt;Node22</title>
<path fill="none" stroke="midnightblue" d="M730.73,-325C744.04,-325 758.04,-325 771.63,-325"/>
<polygon fill="midnightblue" stroke="midnightblue" points="771.92,-328.5 781.92,-325 771.92,-321.5 771.92,-328.5"/>
</g>
<!-- Node22&#45;&gt;Node8 -->
<g id="edge34" class="edge">
<title>Node22&#45;&gt;Node8</title>
<path fill="none" stroke="midnightblue" d="M926.41,-325C935.52,-325 944.82,-325 953.84,-325"/>
<polygon fill="midnightblue" stroke="midnightblue" points="953.89,-328.5 963.89,-325 953.89,-321.5 953.89,-328.5"/>
</g>
</g>
</svg>
