<?xml version="1.0" encoding="UTF-8" standalone="no"?>
<!DOCTYPE svg PUBLIC "-//W3C//DTD SVG 1.1//EN"
 "http://www.w3.org/Graphics/SVG/1.1/DTD/svg11.dtd">
<!-- Generated by graphviz version 2.43.0 (0)
 -->
<!-- Title: mpi_utilities::wait_mpi Pages: 1 -->
<svg width="1250pt" height="532pt"
 viewBox="0.00 0.00 1250.00 531.57" xmlns="http://www.w3.org/2000/svg" xmlns:xlink="http://www.w3.org/1999/xlink">
<g id="graph0" class="graph" transform="scale(1 1) rotate(0) translate(4 527.57)">
<title>mpi_utilities::wait_mpi</title>
<polygon fill="white" stroke="transparent" points="-4,4 -4,-527.57 1246,-527.57 1246,4 -4,4"/>
<!-- Node1 -->
<g id="node1" class="node">
<title>Node1</title>
<g id="a_node1"><a xlink:title="Wait for all processes, wrapper to MPI barrier.">
<polygon fill="#bfbfbf" stroke="black" points="1094,-141.5 1094,-162.5 1242,-162.5 1242,-141.5 1094,-141.5"/>
<text text-anchor="middle" x="1168" y="-148.9" font-family="Ubuntu Mono" font-size="12.00">mpi_utilities::wait_mpi</text>
</a>
</g>
</g>
<!-- Node2 -->
<g id="node2" class="node">
<title>Node2</title>
<g id="a_node2"><a xlink:href="namespacedriver__post.html#af527706d4e696d4e507443d2f74194ef" target="_top" xlink:title="Initializes the POST driver.">
<polygon fill="white" stroke="black" points="902.5,-94.5 902.5,-115.5 1042.5,-115.5 1042.5,-94.5 902.5,-94.5"/>
<text text-anchor="middle" x="972.5" y="-101.9" font-family="Ubuntu Mono" font-size="12.00">driver_post::init_post</text>
</a>
</g>
</g>
<!-- Node1&#45;&gt;Node2 -->
<g id="edge1" class="edge">
<title>Node1&#45;&gt;Node2</title>
<path fill="none" stroke="midnightblue" d="M1113.54,-139.02C1083.07,-131.61 1045.38,-122.46 1016.78,-115.51"/>
<polygon fill="midnightblue" stroke="midnightblue" points="1113.03,-142.49 1123.57,-141.45 1114.68,-135.69 1113.03,-142.49"/>
</g>
<!-- Node4 -->
<g id="node4" class="node">
<title>Node4</title>
<g id="a_node4"><a xlink:href="namespaceinput__utilities.html#a71bd36f063d55ab62c7a37864aef1185" target="_top" xlink:title="Pauses the running of the program.">
<polygon fill="white" stroke="black" points="887,-281.5 887,-302.5 1058,-302.5 1058,-281.5 887,-281.5"/>
<text text-anchor="middle" x="972.5" y="-288.9" font-family="Ubuntu Mono" font-size="12.00">input_utilities::pause_prog</text>
</a>
</g>
</g>
<!-- Node1&#45;&gt;Node4 -->
<g id="edge3" class="edge">
<title>Node1&#45;&gt;Node4</title>
<path fill="none" stroke="midnightblue" d="M1144.35,-168.39C1104.23,-197.41 1021.79,-257.06 988.21,-281.36"/>
<polygon fill="midnightblue" stroke="midnightblue" points="1146.41,-171.22 1152.46,-162.52 1142.3,-165.55 1146.41,-171.22"/>
</g>
<!-- Node12 -->
<g id="node12" class="node">
<title>Node12</title>
<g id="a_node12"><a xlink:href="namespaceslepc__ops.html#a05f8a23335ed47ad1996cddf3bcfdc2e" target="_top" xlink:title="Sets the boundary conditions deep in the plasma (1) and at the edge (2).">
<polygon fill="white" stroke="black" points="482.5,-496.5 482.5,-517.5 602.5,-517.5 602.5,-496.5 482.5,-496.5"/>
<text text-anchor="middle" x="542.5" y="-503.9" font-family="Ubuntu Mono" font-size="12.00">slepc_ops::set_bc</text>
</a>
</g>
</g>
<!-- Node1&#45;&gt;Node12 -->
<g id="edge31" class="edge">
<title>Node1&#45;&gt;Node12</title>
<path fill="none" stroke="midnightblue" d="M1157.35,-171.62C1124.9,-234.91 1012.67,-433.31 851,-498 769.68,-530.54 666.35,-525.08 602.59,-516.96"/>
<polygon fill="midnightblue" stroke="midnightblue" points="1160.49,-173.17 1161.87,-162.66 1154.24,-170.01 1160.49,-173.17"/>
</g>
<!-- Node16 -->
<g id="node16" class="node">
<title>Node16</title>
<g id="a_node16"><a xlink:href="namespacedriver__eq.html#adc9d5dff288fa512e5ef885627d940cc" target="_top" xlink:title="Main driver of PB3D equilibrium part.">
<polygon fill="white" stroke="black" points="677.5,-165.5 677.5,-186.5 840.5,-186.5 840.5,-165.5 677.5,-165.5"/>
<text text-anchor="middle" x="759" y="-172.9" font-family="Ubuntu Mono" font-size="12.00">driver_eq::run_driver_eq</text>
</a>
</g>
</g>
<!-- Node1&#45;&gt;Node16 -->
<g id="edge30" class="edge">
<title>Node1&#45;&gt;Node16</title>
<path fill="none" stroke="midnightblue" d="M1123.84,-165.25C1104,-170.68 1080.02,-176.31 1058,-179 984.82,-187.93 900.77,-185.99 840.63,-182.51"/>
<polygon fill="midnightblue" stroke="midnightblue" points="1124.84,-168.61 1133.52,-162.53 1122.94,-161.87 1124.84,-168.61"/>
</g>
<!-- Node20 -->
<g id="node20" class="node">
<title>Node20</title>
<g id="a_node20"><a xlink:href="test_8f90.html#a197914f99b7e194fb4bca9ca3669e0e8" target="_top" xlink:title=" ">
<polygon fill="white" stroke="black" points="946.5,-0.5 946.5,-21.5 998.5,-21.5 998.5,-0.5 946.5,-0.5"/>
<text text-anchor="middle" x="972.5" y="-7.9" font-family="Ubuntu Mono" font-size="12.00">plot_y</text>
</a>
</g>
</g>
<!-- Node1&#45;&gt;Node20 -->
<g id="edge27" class="edge">
<title>Node1&#45;&gt;Node20</title>
<path fill="none" stroke="midnightblue" d="M1155.14,-132.7C1137.44,-105.63 1101.52,-56.79 1058,-31 1039.84,-20.24 1016.27,-15.27 998.64,-12.97"/>
<polygon fill="midnightblue" stroke="midnightblue" points="1152.29,-134.75 1160.62,-141.3 1158.19,-130.99 1152.29,-134.75"/>
</g>
<!-- Node22 -->
<g id="node22" class="node">
<title>Node22</title>
<g id="a_node22"><a xlink:href="namespacedriver__post.html#a3438685c5fb7302f756c368fb5f940ee" target="_top" xlink:title="Sets up the output grids for a particular parallel job.">
<polygon fill="white" stroke="black" points="910.5,-135 910.5,-169 1034.5,-169 1034.5,-135 910.5,-135"/>
<text text-anchor="start" x="918.5" y="-155.4" font-family="Ubuntu Mono" font-size="12.00">driver_post::setup</text>
<text text-anchor="middle" x="972.5" y="-142.4" font-family="Ubuntu Mono" font-size="12.00">_out_grids</text>
</a>
</g>
</g>
<!-- Node1&#45;&gt;Node22 -->
<g id="edge32" class="edge">
<title>Node1&#45;&gt;Node22</title>
<path fill="none" stroke="midnightblue" d="M1083.7,-152C1067.27,-152 1050.3,-152 1034.76,-152"/>
<polygon fill="midnightblue" stroke="midnightblue" points="1083.85,-155.5 1093.85,-152 1083.85,-148.5 1083.85,-155.5"/>
</g>
<!-- Node24 -->
<g id="node24" class="node">
<title>Node24</title>
<g id="a_node24"><a xlink:href="namespacetest.html#ac574f08ba400cd61070a6a6f13f6f7ee" target="_top" xlink:title="Tests reading of HDF5 subset.">
<polygon fill="white" stroke="black" points="905,-41 905,-75 1040,-75 1040,-41 905,-41"/>
<text text-anchor="start" x="913" y="-61.4" font-family="Ubuntu Mono" font-size="12.00">test::test_read_hdf5</text>
<text text-anchor="middle" x="972.5" y="-48.4" font-family="Ubuntu Mono" font-size="12.00">_subset</text>
</a>
</g>
</g>
<!-- Node1&#45;&gt;Node24 -->
<g id="edge35" class="edge">
<title>Node1&#45;&gt;Node24</title>
<path fill="none" stroke="midnightblue" d="M1144.05,-135.61C1122.6,-120.86 1089.27,-99.35 1058,-85 1050.16,-81.4 1041.71,-78.09 1033.29,-75.1"/>
<polygon fill="midnightblue" stroke="midnightblue" points="1142.27,-138.64 1152.48,-141.48 1146.27,-132.89 1142.27,-138.64"/>
</g>
<!-- Node3 -->
<g id="node3" class="node">
<title>Node3</title>
<g id="a_node3"><a xlink:href="POST_8f90.html#ac289b64ac4671fea0b4f2298ba1188a1" target="_top" xlink:title="Peeling Ballooning in 3D: postprocessing.">
<polygon fill="white" stroke="black" points="330.5,-115.5 330.5,-136.5 372.5,-136.5 372.5,-115.5 330.5,-115.5"/>
<text text-anchor="middle" x="351.5" y="-122.9" font-family="Ubuntu Mono" font-size="12.00">post</text>
</a>
</g>
</g>
<!-- Node2&#45;&gt;Node3 -->
<g id="edge2" class="edge">
<title>Node2&#45;&gt;Node3</title>
<path fill="none" stroke="midnightblue" d="M892.22,-107.69C748.52,-112.56 452.51,-122.61 372.7,-125.31"/>
<polygon fill="midnightblue" stroke="midnightblue" points="892.42,-111.18 902.29,-107.35 892.18,-104.19 892.42,-111.18"/>
</g>
<!-- Node5 -->
<g id="node5" class="node">
<title>Node5</title>
<g id="a_node5"><a xlink:href="interfaceeq__ops_1_1calc__eq.html#ae2f56ab19ce5c33e863f32e1c9263604" target="_top" xlink:title="metric version">
<polygon fill="white" stroke="black" points="454,-350.5 454,-371.5 631,-371.5 631,-350.5 454,-350.5"/>
<text text-anchor="middle" x="542.5" y="-357.9" font-family="Ubuntu Mono" font-size="12.00">eq_ops::calc_eq::calc_eq_2</text>
</a>
</g>
</g>
<!-- Node4&#45;&gt;Node5 -->
<g id="edge4" class="edge">
<title>Node4&#45;&gt;Node5</title>
<path fill="none" stroke="midnightblue" d="M951.76,-308.96C929.16,-327.16 890.17,-354.93 851,-366 766.22,-389.95 662.99,-380.95 600.3,-371.53"/>
<polygon fill="midnightblue" stroke="midnightblue" points="954.09,-311.57 959.59,-302.51 949.64,-306.17 954.09,-311.57"/>
</g>
<!-- Node6 -->
<g id="node6" class="node">
<title>Node6</title>
<g id="a_node6"><a xlink:href="namespacex__ops.html#a4e39701da15ff952add5133db1897b52" target="_top" xlink:title="Calculate , &#160;or , .">
<polygon fill="white" stroke="black" points="711.5,-413.5 711.5,-434.5 806.5,-434.5 806.5,-413.5 711.5,-413.5"/>
<text text-anchor="middle" x="759" y="-420.9" font-family="Ubuntu Mono" font-size="12.00">x_ops::calc_u</text>
</a>
</g>
</g>
<!-- Node4&#45;&gt;Node6 -->
<g id="edge5" class="edge">
<title>Node4&#45;&gt;Node6</title>
<path fill="none" stroke="midnightblue" d="M955.99,-310.21C934.69,-334.07 894.11,-375.61 851,-399 837.46,-406.34 821.6,-411.67 806.94,-415.46"/>
<polygon fill="midnightblue" stroke="midnightblue" points="958.73,-312.4 962.69,-302.57 953.46,-307.78 958.73,-312.4"/>
</g>
<!-- Node8 -->
<g id="node8" class="node">
<title>Node8</title>
<g id="a_node8"><a xlink:href="namespaceeq__ops.html#a9addef683b3d4a8c587510e4c994ec61" target="_top" xlink:title="Creates a VMEC input file.">
<polygon fill="white" stroke="black" points="687.5,-322 687.5,-356 830.5,-356 830.5,-322 687.5,-322"/>
<text text-anchor="start" x="695.5" y="-342.4" font-family="Ubuntu Mono" font-size="12.00">eq_ops::create_vmec</text>
<text text-anchor="middle" x="759" y="-329.4" font-family="Ubuntu Mono" font-size="12.00">_input</text>
</a>
</g>
</g>
<!-- Node4&#45;&gt;Node8 -->
<g id="edge7" class="edge">
<title>Node4&#45;&gt;Node8</title>
<path fill="none" stroke="midnightblue" d="M914.06,-304.76C888.32,-310.48 857.72,-317.28 830.6,-323.31"/>
<polygon fill="midnightblue" stroke="midnightblue" points="915.03,-308.13 924.04,-302.55 913.51,-301.3 915.03,-308.13"/>
</g>
<!-- Node9 -->
<g id="node9" class="node">
<title>Node9</title>
<g id="a_node9"><a xlink:href="namespacetest.html#aca21ee464c0b1f4b617177afdde110ec" target="_top" xlink:title="Performs generic tests.">
<polygon fill="white" stroke="black" points="479.5,-47.5 479.5,-68.5 605.5,-68.5 605.5,-47.5 479.5,-47.5"/>
<text text-anchor="middle" x="542.5" y="-54.9" font-family="Ubuntu Mono" font-size="12.00">test::generic_tests</text>
</a>
</g>
</g>
<!-- Node4&#45;&gt;Node9 -->
<g id="edge9" class="edge">
<title>Node4&#45;&gt;Node9</title>
<path fill="none" stroke="midnightblue" d="M940.87,-277.03C916.85,-265.73 882.35,-250.43 851,-240 771.21,-213.47 739.22,-239.07 667,-196 610.67,-162.4 565.69,-94.72 549.74,-68.61"/>
<polygon fill="midnightblue" stroke="midnightblue" points="939.64,-280.32 950.17,-281.46 942.64,-274 939.64,-280.32"/>
</g>
<!-- Node11 -->
<g id="node11" class="node">
<title>Node11</title>
<g id="a_node11"><a xlink:href="namespaceslepc__utilities.html#aa34aa361f0bfff9621ecba179f9ed0c6" target="_top" xlink:title="Insert a block pertaining to 1 normal point into a matrix.">
<polygon fill="white" stroke="black" points="690.5,-454 690.5,-488 827.5,-488 827.5,-454 690.5,-454"/>
<text text-anchor="start" x="698.5" y="-474.4" font-family="Ubuntu Mono" font-size="12.00">slepc_utilities::insert</text>
<text text-anchor="middle" x="759" y="-461.4" font-family="Ubuntu Mono" font-size="12.00">_block_mat</text>
</a>
</g>
</g>
<!-- Node4&#45;&gt;Node11 -->
<g id="edge12" class="edge">
<title>Node4&#45;&gt;Node11</title>
<path fill="none" stroke="midnightblue" d="M961.24,-311.65C943.29,-344.1 903.08,-408.79 851,-444 843.9,-448.8 835.93,-452.76 827.74,-456.03"/>
<polygon fill="midnightblue" stroke="midnightblue" points="964.41,-313.15 966.08,-302.68 958.25,-309.82 964.41,-313.15"/>
</g>
<!-- Node4&#45;&gt;Node16 -->
<g id="edge19" class="edge">
<title>Node4&#45;&gt;Node16</title>
<path fill="none" stroke="midnightblue" d="M953.07,-274.47C930.63,-254.04 890.8,-220.59 851,-201 838.8,-194.99 824.94,-190.25 811.79,-186.59"/>
<polygon fill="midnightblue" stroke="midnightblue" points="950.8,-277.14 960.51,-281.36 955.55,-272 950.8,-277.14"/>
</g>
<!-- Node17 -->
<g id="node17" class="node">
<title>Node17</title>
<g id="a_node17"><a xlink:href="namespacedriver__x.html#a454779cefa6da3714d32eedcec0ef7de" target="_top" xlink:title="Part 1 of driver_x: Vectorial jobs.">
<polygon fill="white" stroke="black" points="679,-281.5 679,-302.5 839,-302.5 839,-281.5 679,-281.5"/>
<text text-anchor="middle" x="759" y="-288.9" font-family="Ubuntu Mono" font-size="12.00">driver_x::run_driver_x_1</text>
</a>
</g>
</g>
<!-- Node4&#45;&gt;Node17 -->
<g id="edge21" class="edge">
<title>Node4&#45;&gt;Node17</title>
<path fill="none" stroke="midnightblue" d="M876.95,-292C864.34,-292 851.52,-292 839.22,-292"/>
<polygon fill="midnightblue" stroke="midnightblue" points="877,-295.5 887,-292 877,-288.5 877,-295.5"/>
</g>
<!-- Node19 -->
<g id="node19" class="node">
<title>Node19</title>
<g id="a_node19"><a xlink:href="namespacempi__ops.html#a804ec65ff711509de1f8873f97bdf967" target="_top" xlink:title="Start MPI and gather information.">
<polygon fill="white" stroke="black" points="477.5,-215.5 477.5,-236.5 607.5,-236.5 607.5,-215.5 477.5,-215.5"/>
<text text-anchor="middle" x="542.5" y="-222.9" font-family="Ubuntu Mono" font-size="12.00">mpi_ops::start_mpi</text>
</a>
</g>
</g>
<!-- Node4&#45;&gt;Node19 -->
<g id="edge24" class="edge">
<title>Node4&#45;&gt;Node19</title>
<path fill="none" stroke="midnightblue" d="M899.04,-279.78C883.22,-277.17 866.55,-274.45 851,-272 767.02,-258.75 669.98,-244.39 607.74,-235.3"/>
<polygon fill="midnightblue" stroke="midnightblue" points="898.86,-283.3 909.3,-281.48 900.01,-276.39 898.86,-283.3"/>
</g>
<!-- Node7 -->
<g id="node7" class="node">
<title>Node7</title>
<g id="a_node7"><a xlink:href="interfacex__ops_1_1calc__x.html#a837126ca92e7f4d6821261c835b987d4" target="_top" xlink:title="vectorial version">
<polygon fill="white" stroke="black" points="466.5,-413.5 466.5,-434.5 618.5,-434.5 618.5,-413.5 466.5,-413.5"/>
<text text-anchor="middle" x="542.5" y="-420.9" font-family="Ubuntu Mono" font-size="12.00">x_ops::calc_x::calc_x_1</text>
</a>
</g>
</g>
<!-- Node6&#45;&gt;Node7 -->
<g id="edge6" class="edge">
<title>Node6&#45;&gt;Node7</title>
<path fill="none" stroke="midnightblue" d="M701.29,-424C675.97,-424 645.79,-424 618.63,-424"/>
<polygon fill="midnightblue" stroke="midnightblue" points="701.46,-427.5 711.46,-424 701.46,-420.5 701.46,-427.5"/>
</g>
<!-- Node8&#45;&gt;Node5 -->
<g id="edge8" class="edge">
<title>Node8&#45;&gt;Node5</title>
<path fill="none" stroke="midnightblue" d="M677.22,-347.28C662.23,-348.82 646.5,-350.44 631.31,-351.99"/>
<polygon fill="midnightblue" stroke="midnightblue" points="677.88,-350.74 687.47,-346.23 677.16,-343.77 677.88,-350.74"/>
</g>
<!-- Node9&#45;&gt;Node3 -->
<g id="edge11" class="edge">
<title>Node9&#45;&gt;Node3</title>
<path fill="none" stroke="midnightblue" d="M490.69,-71.38C478.58,-74.88 465.75,-78.85 454,-83 425.31,-93.13 393.1,-107.27 372.82,-116.52"/>
<polygon fill="midnightblue" stroke="midnightblue" points="491.99,-74.65 500.66,-68.55 490.08,-67.91 491.99,-74.65"/>
</g>
<!-- Node10 -->
<g id="node10" class="node">
<title>Node10</title>
<g id="a_node10"><a xlink:href="PB3D_8f90.html#afaee01f014ab3398eecac996b2795fd2" target="_top" xlink:title="Peeling Ballooning in 3D.">
<polygon fill="white" stroke="black" points="0,-215.5 0,-236.5 47,-236.5 47,-215.5 0,-215.5"/>
<text text-anchor="middle" x="23.5" y="-222.9" font-family="Ubuntu Mono" font-size="12.00">pb3d</text>
</a>
</g>
</g>
<!-- Node9&#45;&gt;Node10 -->
<g id="edge10" class="edge">
<title>Node9&#45;&gt;Node10</title>
<path fill="none" stroke="midnightblue" d="M469.32,-60.8C374.3,-67.44 205.03,-89.68 83,-164 61.01,-177.39 41.89,-201.22 31.89,-215.11"/>
<polygon fill="midnightblue" stroke="midnightblue" points="469.66,-64.28 479.4,-60.13 469.19,-57.3 469.66,-64.28"/>
</g>
<!-- Node11&#45;&gt;Node12 -->
<g id="edge13" class="edge">
<title>Node11&#45;&gt;Node12</title>
<path fill="none" stroke="midnightblue" d="M680.38,-484.03C654.79,-488.32 626.76,-493.03 602.77,-497.05"/>
<polygon fill="midnightblue" stroke="midnightblue" points="681.14,-487.45 690.43,-482.34 679.98,-480.54 681.14,-487.45"/>
</g>
<!-- Node15 -->
<g id="node15" class="node">
<title>Node15</title>
<g id="a_node15"><a xlink:href="namespaceslepc__ops.html#aac8202cb74cbb06013eb73f1fa0c3118" target="_top" xlink:title="Sets up the matrices &#160;and &#160;in the EV problem .">
<polygon fill="white" stroke="black" points="467,-456.5 467,-477.5 618,-477.5 618,-456.5 467,-456.5"/>
<text text-anchor="middle" x="542.5" y="-463.9" font-family="Ubuntu Mono" font-size="12.00">slepc_ops::setup_mats</text>
</a>
</g>
</g>
<!-- Node11&#45;&gt;Node15 -->
<g id="edge17" class="edge">
<title>Node11&#45;&gt;Node15</title>
<path fill="none" stroke="midnightblue" d="M680.31,-469.55C660.05,-469.17 638.28,-468.77 618.19,-468.39"/>
<polygon fill="midnightblue" stroke="midnightblue" points="680.36,-473.05 690.43,-469.74 680.49,-466.05 680.36,-473.05"/>
</g>
<!-- Node13 -->
<g id="node13" class="node">
<title>Node13</title>
<g id="a_node13"><a xlink:href="namespaceslepc__ops.html#a79c420987056c225931b51c8d30ece1f" target="_top" xlink:title="Solve the eigenvalue system using SLEPC.">
<polygon fill="white" stroke="black" points="285,-450 285,-484 418,-484 418,-450 285,-450"/>
<text text-anchor="start" x="293" y="-470.4" font-family="Ubuntu Mono" font-size="12.00">slepc_ops::solve_ev</text>
<text text-anchor="middle" x="351.5" y="-457.4" font-family="Ubuntu Mono" font-size="12.00">_system_slepc</text>
</a>
</g>
</g>
<!-- Node12&#45;&gt;Node13 -->
<g id="edge14" class="edge">
<title>Node12&#45;&gt;Node13</title>
<path fill="none" stroke="midnightblue" d="M481.82,-494.37C461.58,-490.09 438.86,-485.28 418.18,-480.9"/>
<polygon fill="midnightblue" stroke="midnightblue" points="481.33,-497.84 491.84,-496.49 482.78,-491 481.33,-497.84"/>
</g>
<!-- Node14 -->
<g id="node14" class="node">
<title>Node14</title>
<g id="a_node14"><a xlink:href="namespacedriver__sol.html#ad3b1765b3ecc5f82129bfc683ffc6c5c" target="_top" xlink:title="Main driver of PB3D solution part.">
<polygon fill="white" stroke="black" points="83,-388.5 83,-409.5 249,-409.5 249,-388.5 83,-388.5"/>
<text text-anchor="middle" x="166" y="-395.9" font-family="Ubuntu Mono" font-size="12.00">driver_sol::run_driver_sol</text>
</a>
</g>
</g>
<!-- Node13&#45;&gt;Node14 -->
<g id="edge15" class="edge">
<title>Node13&#45;&gt;Node14</title>
<path fill="none" stroke="midnightblue" d="M294.73,-446.33C261.97,-434.19 221.95,-419.36 195.53,-409.57"/>
<polygon fill="midnightblue" stroke="midnightblue" points="293.6,-449.65 304.2,-449.84 296.03,-443.08 293.6,-449.65"/>
</g>
<!-- Node14&#45;&gt;Node10 -->
<g id="edge16" class="edge">
<title>Node14&#45;&gt;Node10</title>
<path fill="none" stroke="midnightblue" d="M148.64,-380.8C131.81,-361.91 105.02,-331.35 83,-304 64,-280.4 42.97,-251.67 32.04,-236.52"/>
<polygon fill="midnightblue" stroke="midnightblue" points="146.13,-383.25 155.41,-388.38 151.35,-378.59 146.13,-383.25"/>
</g>
<!-- Node15&#45;&gt;Node13 -->
<g id="edge18" class="edge">
<title>Node15&#45;&gt;Node13</title>
<path fill="none" stroke="midnightblue" d="M456.53,-467C443.63,-467 430.49,-467 418.09,-467"/>
<polygon fill="midnightblue" stroke="midnightblue" points="456.8,-470.5 466.8,-467 456.8,-463.5 456.8,-470.5"/>
</g>
<!-- Node16&#45;&gt;Node10 -->
<g id="edge20" class="edge">
<title>Node16&#45;&gt;Node10</title>
<path fill="none" stroke="midnightblue" d="M667.2,-182.18C537.6,-191.01 292.08,-207.73 83,-222 71.12,-222.81 57.88,-223.72 47,-224.46"/>
<polygon fill="midnightblue" stroke="midnightblue" points="667.74,-185.65 677.47,-181.48 667.26,-178.67 667.74,-185.65"/>
</g>
<!-- Node18 -->
<g id="node18" class="node">
<title>Node18</title>
<g id="a_node18"><a xlink:href="namespacedriver__x.html#ada3d72a0929daaa5e3da585246d62281" target="_top" xlink:title="Main driver of PB3D perturbation part.">
<polygon fill="white" stroke="black" points="93,-273.5 93,-294.5 239,-294.5 239,-273.5 93,-273.5"/>
<text text-anchor="middle" x="166" y="-280.9" font-family="Ubuntu Mono" font-size="12.00">driver_x::run_driver_x</text>
</a>
</g>
</g>
<!-- Node17&#45;&gt;Node18 -->
<g id="edge22" class="edge">
<title>Node17&#45;&gt;Node18</title>
<path fill="none" stroke="midnightblue" d="M668.87,-290.79C551.49,-289.2 347.35,-286.44 239.14,-284.98"/>
<polygon fill="midnightblue" stroke="midnightblue" points="668.86,-294.29 678.91,-290.93 668.96,-287.29 668.86,-294.29"/>
</g>
<!-- Node18&#45;&gt;Node10 -->
<g id="edge23" class="edge">
<title>Node18&#45;&gt;Node10</title>
<path fill="none" stroke="midnightblue" d="M130.13,-269.6C104.3,-258.94 69.85,-244.72 47.43,-235.46"/>
<polygon fill="midnightblue" stroke="midnightblue" points="128.98,-272.92 139.56,-273.5 131.65,-266.45 128.98,-272.92"/>
</g>
<!-- Node19&#45;&gt;Node3 -->
<g id="edge26" class="edge">
<title>Node19&#45;&gt;Node3</title>
<path fill="none" stroke="midnightblue" d="M512.42,-210.62C473.6,-190.08 405.86,-154.23 372.39,-136.52"/>
<polygon fill="midnightblue" stroke="midnightblue" points="511.16,-213.9 521.63,-215.49 514.43,-207.72 511.16,-213.9"/>
</g>
<!-- Node19&#45;&gt;Node10 -->
<g id="edge25" class="edge">
<title>Node19&#45;&gt;Node10</title>
<path fill="none" stroke="midnightblue" d="M467.18,-226C347.88,-226 119.69,-226 47.2,-226"/>
<polygon fill="midnightblue" stroke="midnightblue" points="467.33,-229.5 477.33,-226 467.33,-222.5 467.33,-229.5"/>
</g>
<!-- Node21 -->
<g id="node21" class="node">
<title>Node21</title>
<g id="a_node21"><a xlink:href="namespacetest.html#a53c6b3d654d4577af301fe3b04473d6a" target="_top" xlink:title="Test spline().">
<polygon fill="white" stroke="black" points="701,-4.5 701,-25.5 817,-25.5 817,-4.5 701,-4.5"/>
<text text-anchor="middle" x="759" y="-11.9" font-family="Ubuntu Mono" font-size="12.00">test::test_splines</text>
</a>
</g>
</g>
<!-- Node20&#45;&gt;Node21 -->
<g id="edge28" class="edge">
<title>Node20&#45;&gt;Node21</title>
<path fill="none" stroke="midnightblue" d="M936.08,-11.67C903.68,-12.28 855.19,-13.2 817.29,-13.92"/>
<polygon fill="midnightblue" stroke="midnightblue" points="936.48,-15.16 946.41,-11.47 936.34,-8.16 936.48,-15.16"/>
</g>
<!-- Node21&#45;&gt;Node9 -->
<g id="edge29" class="edge">
<title>Node21&#45;&gt;Node9</title>
<path fill="none" stroke="midnightblue" d="M695.53,-27.52C664.01,-33.84 626.2,-41.42 596.17,-47.44"/>
<polygon fill="midnightblue" stroke="midnightblue" points="696.41,-30.92 705.53,-25.52 695.03,-24.05 696.41,-30.92"/>
</g>
<!-- Node23 -->
<g id="node23" class="node">
<title>Node23</title>
<g id="a_node23"><a xlink:href="namespacedriver__post.html#a33b3c6f9018a0ddc92dce77394b8ab37" target="_top" xlink:title="The main driver routine for postprocessing.">
<polygon fill="white" stroke="black" points="667,-125.5 667,-146.5 851,-146.5 851,-125.5 667,-125.5"/>
<text text-anchor="middle" x="759" y="-132.9" font-family="Ubuntu Mono" font-size="12.00">driver_post::run_driver_post</text>
</a>
</g>
</g>
<!-- Node22&#45;&gt;Node23 -->
<g id="edge33" class="edge">
<title>Node22&#45;&gt;Node23</title>
<path fill="none" stroke="midnightblue" d="M900.2,-146.61C884.51,-145.42 867.69,-144.15 851.34,-142.91"/>
<polygon fill="midnightblue" stroke="midnightblue" points="900.09,-150.11 910.33,-147.37 900.62,-143.13 900.09,-150.11"/>
</g>
<!-- Node23&#45;&gt;Node3 -->
<g id="edge34" class="edge">
<title>Node23&#45;&gt;Node3</title>
<path fill="none" stroke="midnightblue" d="M656.97,-133.51C560.99,-131.14 423.96,-127.76 372.8,-126.5"/>
<polygon fill="midnightblue" stroke="midnightblue" points="656.91,-137.01 667,-133.76 657.09,-130.01 656.91,-137.01"/>
</g>
<!-- Node24&#45;&gt;Node9 -->
<g id="edge36" class="edge">
<title>Node24&#45;&gt;Node9</title>
<path fill="none" stroke="midnightblue" d="M894.54,-58C811.9,-58 682.19,-58 605.73,-58"/>
<polygon fill="midnightblue" stroke="midnightblue" points="894.63,-61.5 904.62,-58 894.62,-54.5 894.63,-61.5"/>
</g>
</g>
</svg>
