<?xml version="1.0" encoding="UTF-8" standalone="no"?>
<!DOCTYPE svg PUBLIC "-//W3C//DTD SVG 1.1//EN"
 "http://www.w3.org/Graphics/SVG/1.1/DTD/svg11.dtd">
<!-- Generated by graphviz version 2.38.0 (20140413.2041)
 -->
<!-- Title: vmec_vars::dealloc_vmec Pages: 1 -->
<svg width="980pt" height="211pt"
 viewBox="0.00 0.00 980.00 210.86" xmlns="http://www.w3.org/2000/svg" xmlns:xlink="http://www.w3.org/1999/xlink">
<g id="graph0" class="graph" transform="scale(1 1) rotate(0) translate(4 206.86)">
<title>vmec_vars::dealloc_vmec</title>
<polygon fill="white" stroke="none" points="-4,4 -4,-206.86 976,-206.86 976,4 -4,4"/>
<!-- Node5 -->
<g id="node1" class="node"><title>Node5</title>
<polygon fill="#bfbfbf" stroke="black" points="0,-85.6244 0,-106.624 155,-106.624 155,-85.6244 0,-85.6244"/>
<text text-anchor="middle" x="77.5" y="-93.0244" font-family="Ubuntu Mono" font-size="12.00">vmec_vars::dealloc_vmec</text>
</g>
<!-- Node6 -->
<g id="node2" class="node"><title>Node6</title>
<g id="a_node2"><a xlink:href="namespaceinput__utilities.html#aa0cf7578f9c9ab6470f8bb8d025f1daf" target="_top" xlink:title="Cleans up input from equilibrium codes. ">
<polygon fill="white" stroke="black" points="191,-85.6244 191,-106.624 370,-106.624 370,-85.6244 191,-85.6244"/>
<text text-anchor="middle" x="280.5" y="-93.0244" font-family="Ubuntu Mono" font-size="12.00">input_utilities::dealloc_in</text>
</a>
</g>
</g>
<!-- Node5&#45;&gt;Node6 -->
<g id="edge1" class="edge"><title>Node5&#45;&gt;Node6</title>
<path fill="none" stroke="midnightblue" d="M165.263,-96.1244C173.691,-96.1244 182.251,-96.1244 190.7,-96.1244"/>
<polygon fill="midnightblue" stroke="midnightblue" points="165.063,-92.6245 155.063,-96.1244 165.063,-99.6245 165.063,-92.6245"/>
</g>
<!-- Node7 -->
<g id="node3" class="node"><title>Node7</title>
<g id="a_node3"><a xlink:href="namespacedriver__post.html#a71f9fb1935222111e1c7cfc15c5d0269" target="_top" xlink:title="Cleans up main driver for postprocessing. ">
<polygon fill="white" stroke="black" points="579,-147.624 579,-168.624 728,-168.624 728,-147.624 579,-147.624"/>
<text text-anchor="middle" x="653.5" y="-155.024" font-family="Ubuntu Mono" font-size="12.00">driver_post::stop_post</text>
</a>
</g>
</g>
<!-- Node6&#45;&gt;Node7 -->
<g id="edge2" class="edge"><title>Node6&#45;&gt;Node7</title>
<path fill="none" stroke="midnightblue" d="M314.553,-110.534C339.251,-120.624 374.107,-133.45 406,-140.124 463.329,-152.122 529.603,-156.443 578.985,-157.863"/>
<polygon fill="midnightblue" stroke="midnightblue" points="315.863,-107.288 305.285,-106.682 313.176,-113.752 315.863,-107.288"/>
</g>
<!-- Node8 -->
<g id="node4" class="node"><title>Node8</title>
<g id="a_node4"><a xlink:href="POST_8f90.html#ac289b64ac4671fea0b4f2298ba1188a1" target="_top" xlink:title="Peeling Ballooning in 3D: postprocessing. ">
<polygon fill="white" stroke="black" points="931,-147.624 931,-168.624 972,-168.624 972,-147.624 931,-147.624"/>
<text text-anchor="middle" x="951.5" y="-155.024" font-family="Ubuntu Mono" font-size="12.00">post</text>
</a>
</g>
</g>
<!-- Node6&#45;&gt;Node8 -->
<g id="edge14" class="edge"><title>Node6&#45;&gt;Node8</title>
<path fill="none" stroke="midnightblue" d="M304.793,-112.436C328.9,-128.382 368.251,-151.856 406,-163.124 614.288,-225.302 679.803,-202.781 895,-172.124 907.101,-170.401 920.386,-167.101 930.923,-164.139"/>
<polygon fill="midnightblue" stroke="midnightblue" points="306.583,-109.422 296.335,-106.735 302.67,-115.227 306.583,-109.422"/>
</g>
<!-- Node9 -->
<g id="node5" class="node"><title>Node9</title>
<g id="a_node5"><a xlink:href="namespacerich__ops.html#a3cf72a3ed0806ac9ddff262a00b2e33d" target="_top" xlink:title="Terminate the Richardson extrapolation system. ">
<polygon fill="white" stroke="black" points="764,-17.6244 764,-38.6244 895,-38.6244 895,-17.6244 764,-17.6244"/>
<text text-anchor="middle" x="829.5" y="-25.0244" font-family="Ubuntu Mono" font-size="12.00">rich_ops::term_rich</text>
</a>
</g>
</g>
<!-- Node6&#45;&gt;Node9 -->
<g id="edge4" class="edge"><title>Node6&#45;&gt;Node9</title>
<path fill="none" stroke="midnightblue" d="M310.69,-81.0997C335.367,-69.2149 372.028,-53.4446 406,-46.1244 530.521,-19.2927 680.322,-20.5627 763.941,-24.1679"/>
<polygon fill="midnightblue" stroke="midnightblue" points="308.964,-78.0482 301.531,-85.5983 312.05,-84.3313 308.964,-78.0482"/>
</g>
<!-- Node10 -->
<g id="node6" class="node"><title>Node10</title>
<g id="a_node6"><a xlink:href="PB3D_8f90.html#afaee01f014ab3398eecac996b2795fd2" target="_top" xlink:title="Peeling Ballooning in 3D. ">
<polygon fill="white" stroke="black" points="931,-17.6244 931,-38.6244 972,-38.6244 972,-17.6244 931,-17.6244"/>
<text text-anchor="middle" x="951.5" y="-25.0244" font-family="Ubuntu Mono" font-size="12.00">pb3d</text>
</a>
</g>
</g>
<!-- Node6&#45;&gt;Node10 -->
<g id="edge13" class="edge"><title>Node6&#45;&gt;Node10</title>
<path fill="none" stroke="midnightblue" d="M302.934,-79.3782C326.635,-61.9477 366.687,-35.6205 406,-24.1244 558.868,20.5779 604.77,-11.6808 764,-8.1244 822.208,-6.82432 837.646,1.89428 895,-8.1244 907.309,-10.2745 920.49,-14.9175 930.918,-19.1891"/>
<polygon fill="midnightblue" stroke="midnightblue" points="300.58,-76.769 294.687,-85.5735 304.784,-82.3658 300.58,-76.769"/>
</g>
<!-- Node11 -->
<g id="node7" class="node"><title>Node11</title>
<g id="a_node7"><a xlink:href="test_8f90.html#a197914f99b7e194fb4bca9ca3669e0e8" target="_top" xlink:title="plot_y">
<polygon fill="white" stroke="black" points="448,-109.624 448,-130.624 501,-130.624 501,-109.624 448,-109.624"/>
<text text-anchor="middle" x="474.5" y="-117.024" font-family="Ubuntu Mono" font-size="12.00">plot_y</text>
</a>
</g>
</g>
<!-- Node6&#45;&gt;Node11 -->
<g id="edge6" class="edge"><title>Node6&#45;&gt;Node11</title>
<path fill="none" stroke="midnightblue" d="M375.823,-107.915C402.264,-111.22 428.876,-114.546 447.629,-116.891"/>
<polygon fill="midnightblue" stroke="midnightblue" points="376.071,-104.419 365.714,-106.651 375.203,-111.365 376.071,-104.419"/>
</g>
<!-- Node14 -->
<g id="node10" class="node"><title>Node14</title>
<g id="a_node10"><a xlink:href="namespacetest.html#ac574f08ba400cd61070a6a6f13f6f7ee" target="_top" xlink:title="Tests reading of HDF5 subset. ">
<polygon fill="white" stroke="black" points="406,-56.1244 406,-90.1244 543,-90.1244 543,-56.1244 406,-56.1244"/>
<text text-anchor="start" x="414" y="-76.5244" font-family="Ubuntu Mono" font-size="12.00">test::test_read_hdf5</text>
<text text-anchor="middle" x="474.5" y="-63.5244" font-family="Ubuntu Mono" font-size="12.00">_subset</text>
</a>
</g>
</g>
<!-- Node6&#45;&gt;Node14 -->
<g id="edge11" class="edge"><title>Node6&#45;&gt;Node14</title>
<path fill="none" stroke="midnightblue" d="M379.42,-84.3944C388.343,-83.3255 397.244,-82.2592 405.814,-81.2326"/>
<polygon fill="midnightblue" stroke="midnightblue" points="378.865,-80.9357 369.352,-85.6004 379.698,-87.8861 378.865,-80.9357"/>
</g>
<!-- Node7&#45;&gt;Node8 -->
<g id="edge3" class="edge"><title>Node7&#45;&gt;Node8</title>
<path fill="none" stroke="midnightblue" d="M738.095,-158.124C804.491,-158.124 892.371,-158.124 930.94,-158.124"/>
<polygon fill="midnightblue" stroke="midnightblue" points="738.049,-154.624 728.049,-158.124 738.049,-161.624 738.049,-154.624"/>
</g>
<!-- Node9&#45;&gt;Node10 -->
<g id="edge5" class="edge"><title>Node9&#45;&gt;Node10</title>
<path fill="none" stroke="midnightblue" d="M905.091,-28.1244C914.572,-28.1244 923.536,-28.1244 930.955,-28.1244"/>
<polygon fill="midnightblue" stroke="midnightblue" points="905.066,-24.6245 895.066,-28.1244 905.066,-31.6245 905.066,-24.6245"/>
</g>
<!-- Node12 -->
<g id="node8" class="node"><title>Node12</title>
<g id="a_node8"><a xlink:href="namespacetest.html#a53c6b3d654d4577af301fe3b04473d6a" target="_top" xlink:title="Test spline(). ">
<polygon fill="white" stroke="black" points="591,-106.624 591,-127.624 716,-127.624 716,-106.624 591,-106.624"/>
<text text-anchor="middle" x="653.5" y="-114.024" font-family="Ubuntu Mono" font-size="12.00">test::test_splines</text>
</a>
</g>
</g>
<!-- Node11&#45;&gt;Node12 -->
<g id="edge7" class="edge"><title>Node11&#45;&gt;Node12</title>
<path fill="none" stroke="midnightblue" d="M511.466,-119.515C534.237,-119.129 564.28,-118.62 590.784,-118.17"/>
<polygon fill="midnightblue" stroke="midnightblue" points="511.177,-116.019 501.237,-119.688 511.295,-123.018 511.177,-116.019"/>
</g>
<!-- Node13 -->
<g id="node9" class="node"><title>Node13</title>
<g id="a_node9"><a xlink:href="namespacetest.html#aca21ee464c0b1f4b617177afdde110ec" target="_top" xlink:title="Performs generic tests. ">
<polygon fill="white" stroke="black" points="764,-85.6244 764,-106.624 895,-106.624 895,-85.6244 764,-85.6244"/>
<text text-anchor="middle" x="829.5" y="-93.0244" font-family="Ubuntu Mono" font-size="12.00">test::generic_tests</text>
</a>
</g>
</g>
<!-- Node12&#45;&gt;Node13 -->
<g id="edge8" class="edge"><title>Node12&#45;&gt;Node13</title>
<path fill="none" stroke="midnightblue" d="M726.607,-108.422C738.978,-106.929 751.763,-105.386 763.921,-103.918"/>
<polygon fill="midnightblue" stroke="midnightblue" points="725.844,-104.988 716.336,-109.661 726.683,-111.938 725.844,-104.988"/>
</g>
<!-- Node13&#45;&gt;Node8 -->
<g id="edge10" class="edge"><title>Node13&#45;&gt;Node8</title>
<path fill="none" stroke="midnightblue" d="M859.801,-111.263C881.878,-122.67 911.546,-137.998 930.842,-147.968"/>
<polygon fill="midnightblue" stroke="midnightblue" points="861.347,-108.123 850.856,-106.642 858.134,-114.342 861.347,-108.123"/>
</g>
<!-- Node13&#45;&gt;Node10 -->
<g id="edge9" class="edge"><title>Node13&#45;&gt;Node10</title>
<path fill="none" stroke="midnightblue" d="M858.049,-80.5135C880.679,-67.6895 912.119,-49.8734 931.882,-38.6748"/>
<polygon fill="midnightblue" stroke="midnightblue" points="856.225,-77.5241 849.25,-85.4994 859.676,-83.6143 856.225,-77.5241"/>
</g>
<!-- Node14&#45;&gt;Node13 -->
<g id="edge12" class="edge"><title>Node14&#45;&gt;Node13</title>
<path fill="none" stroke="midnightblue" d="M553.449,-78.2032C616.58,-82.3166 704.469,-88.0431 763.765,-91.9065"/>
<polygon fill="midnightblue" stroke="midnightblue" points="553.351,-74.6895 543.144,-77.5318 552.896,-81.6747 553.351,-74.6895"/>
</g>
</g>
</svg>
