<?xml version="1.0" encoding="UTF-8" standalone="no"?>
<!DOCTYPE svg PUBLIC "-//W3C//DTD SVG 1.1//EN"
 "http://www.w3.org/Graphics/SVG/1.1/DTD/svg11.dtd">
<!-- Generated by graphviz version 2.38.0 (20140413.2041)
 -->
<!-- Title: driver_sol::interp_v_spline Pages: 1 -->
<svg width="419pt" height="43pt"
 viewBox="0.00 0.00 419.00 43.00" xmlns="http://www.w3.org/2000/svg" xmlns:xlink="http://www.w3.org/1999/xlink">
<g id="graph0" class="graph" transform="scale(1 1) rotate(0) translate(4 39)">
<title>driver_sol::interp_v_spline</title>
<polygon fill="white" stroke="none" points="-4,4 -4,-39 415,-39 415,4 -4,4"/>
<!-- Node1 -->
<g id="node1" class="node"><title>Node1</title>
<polygon fill="#bfbfbf" stroke="black" points="0,-0.5 0,-34.5 125,-34.5 125,-0.5 0,-0.5"/>
<text text-anchor="start" x="8" y="-20.9" font-family="Ubuntu Mono" font-size="12.00">driver_sol::interp</text>
<text text-anchor="middle" x="62.5" y="-7.9" font-family="Ubuntu Mono" font-size="12.00">_v_spline</text>
</g>
<!-- Node2 -->
<g id="node2" class="node"><title>Node2</title>
<g id="a_node2"><a xlink:href="namespacedriver__sol.html#ad3b1765b3ecc5f82129bfc683ffc6c5c" target="_top" xlink:title="Main driver of PB3D solution part. ">
<polygon fill="white" stroke="black" points="161,-7 161,-28 334,-28 334,-7 161,-7"/>
<text text-anchor="middle" x="247.5" y="-14.4" font-family="Ubuntu Mono" font-size="12.00">driver_sol::run_driver_sol</text>
</a>
</g>
</g>
<!-- Node1&#45;&gt;Node2 -->
<g id="edge1" class="edge"><title>Node1&#45;&gt;Node2</title>
<path fill="none" stroke="midnightblue" d="M135.253,-17.5C143.604,-17.5 152.185,-17.5 160.7,-17.5"/>
<polygon fill="midnightblue" stroke="midnightblue" points="135.2,-14.0001 125.2,-17.5 135.2,-21.0001 135.2,-14.0001"/>
</g>
<!-- Node3 -->
<g id="node3" class="node"><title>Node3</title>
<g id="a_node3"><a xlink:href="PB3D_8f90.html#afaee01f014ab3398eecac996b2795fd2" target="_top" xlink:title="Peeling Ballooning in 3D. ">
<polygon fill="white" stroke="black" points="370,-7 370,-28 411,-28 411,-7 370,-7"/>
<text text-anchor="middle" x="390.5" y="-14.4" font-family="Ubuntu Mono" font-size="12.00">pb3d</text>
</a>
</g>
</g>
<!-- Node2&#45;&gt;Node3 -->
<g id="edge2" class="edge"><title>Node2&#45;&gt;Node3</title>
<path fill="none" stroke="midnightblue" d="M344.337,-17.5C353.873,-17.5 362.695,-17.5 369.964,-17.5"/>
<polygon fill="midnightblue" stroke="midnightblue" points="344.178,-14.0001 334.178,-17.5 344.178,-21.0001 344.178,-14.0001"/>
</g>
</g>
</svg>
