<?xml version="1.0" encoding="UTF-8" standalone="no"?>
<!DOCTYPE svg PUBLIC "-//W3C//DTD SVG 1.1//EN"
 "http://www.w3.org/Graphics/SVG/1.1/DTD/svg11.dtd">
<!-- Generated by graphviz version 2.43.0 (0)
 -->
<!-- Title: messages::init_time Pages: 1 -->
<svg width="421pt" height="79pt"
 viewBox="0.00 0.00 421.00 79.00" xmlns="http://www.w3.org/2000/svg" xmlns:xlink="http://www.w3.org/1999/xlink">
<g id="graph0" class="graph" transform="scale(1 1) rotate(0) translate(4 75)">
<title>messages::init_time</title>
<polygon fill="white" stroke="transparent" points="-4,4 -4,-75 417,-75 417,4 -4,4"/>
<!-- Node1 -->
<g id="node1" class="node">
<title>Node1</title>
<g id="a_node1"><a xlink:title="Intialize the time passed to 0.">
<polygon fill="#bfbfbf" stroke="black" points="278,-20.5 278,-41.5 413,-41.5 413,-20.5 278,-20.5"/>
<text text-anchor="middle" x="345.5" y="-27.9" font-family="Ubuntu Mono" font-size="12.00">messages::init_time</text>
</a>
</g>
</g>
<!-- Node2 -->
<g id="node2" class="node">
<title>Node2</title>
<g id="a_node2"><a xlink:href="namespacemessages.html#a34da9df28502ccd63e62674d51fe8de8" target="_top" xlink:title="Display the time that has passed between t1 and t2.">
<polygon fill="white" stroke="black" points="83,-20.5 83,-41.5 242,-41.5 242,-20.5 83,-20.5"/>
<text text-anchor="middle" x="162.5" y="-27.9" font-family="Ubuntu Mono" font-size="12.00">messages::passed_time</text>
</a>
</g>
</g>
<!-- Node1&#45;&gt;Node2 -->
<g id="edge1" class="edge">
<title>Node1&#45;&gt;Node2</title>
<path fill="none" stroke="midnightblue" d="M267.7,-31C259.28,-31 250.69,-31 242.25,-31"/>
<polygon fill="midnightblue" stroke="midnightblue" points="267.87,-34.5 277.87,-31 267.87,-27.5 267.87,-34.5"/>
</g>
<!-- Node3 -->
<g id="node3" class="node">
<title>Node3</title>
<g id="a_node3"><a xlink:href="PB3D_8f90.html#afaee01f014ab3398eecac996b2795fd2" target="_top" xlink:title="Peeling Ballooning in 3D.">
<polygon fill="white" stroke="black" points="0,-49.5 0,-70.5 47,-70.5 47,-49.5 0,-49.5"/>
<text text-anchor="middle" x="23.5" y="-56.9" font-family="Ubuntu Mono" font-size="12.00">pb3d</text>
</a>
</g>
</g>
<!-- Node1&#45;&gt;Node3 -->
<g id="edge4" class="edge">
<title>Node1&#45;&gt;Node3</title>
<path fill="none" stroke="midnightblue" d="M288.4,-43.54C273.4,-46.45 257.14,-49.22 242,-51 171.25,-59.32 86.77,-60.27 47.13,-60.19"/>
<polygon fill="midnightblue" stroke="midnightblue" points="289.44,-46.9 298.56,-41.5 288.06,-40.03 289.44,-46.9"/>
</g>
<!-- Node4 -->
<g id="node4" class="node">
<title>Node4</title>
<g id="a_node4"><a xlink:href="POST_8f90.html#ac289b64ac4671fea0b4f2298ba1188a1" target="_top" xlink:title="Peeling Ballooning in 3D: postprocessing.">
<polygon fill="white" stroke="black" points="2.5,-0.5 2.5,-21.5 44.5,-21.5 44.5,-0.5 2.5,-0.5"/>
<text text-anchor="middle" x="23.5" y="-7.9" font-family="Ubuntu Mono" font-size="12.00">post</text>
</a>
</g>
</g>
<!-- Node1&#45;&gt;Node4 -->
<g id="edge5" class="edge">
<title>Node1&#45;&gt;Node4</title>
<path fill="none" stroke="midnightblue" d="M290.41,-18.42C274.87,-15.36 257.84,-12.53 242,-11 169.65,-4.01 83.13,-7.53 44.65,-9.71"/>
<polygon fill="midnightblue" stroke="midnightblue" points="289.88,-21.89 300.38,-20.46 291.28,-15.03 289.88,-21.89"/>
</g>
<!-- Node2&#45;&gt;Node3 -->
<g id="edge2" class="edge">
<title>Node2&#45;&gt;Node3</title>
<path fill="none" stroke="midnightblue" d="M101.69,-43.66C82.41,-47.74 62.2,-52.02 47.3,-55.17"/>
<polygon fill="midnightblue" stroke="midnightblue" points="102.59,-47.05 111.65,-41.55 101.14,-40.2 102.59,-47.05"/>
</g>
<!-- Node2&#45;&gt;Node4 -->
<g id="edge3" class="edge">
<title>Node2&#45;&gt;Node4</title>
<path fill="none" stroke="midnightblue" d="M79.4,-19.01C66.47,-17.13 54.21,-15.34 44.57,-13.93"/>
<polygon fill="midnightblue" stroke="midnightblue" points="78.99,-22.49 89.39,-20.47 80,-15.56 78.99,-22.49"/>
</g>
</g>
</svg>
