<?xml version="1.0" encoding="UTF-8" standalone="no"?>
<!DOCTYPE svg PUBLIC "-//W3C//DTD SVG 1.1//EN"
 "http://www.w3.org/Graphics/SVG/1.1/DTD/svg11.dtd">
<!-- Generated by graphviz version 2.38.0 (20140413.2041)
 -->
<!-- Title: driver_x::run_driver_x_0 Pages: 1 -->
<svg width="1327pt" height="615pt"
 viewBox="0.00 0.00 1327.00 614.60" xmlns="http://www.w3.org/2000/svg" xmlns:xlink="http://www.w3.org/1999/xlink">
<g id="graph0" class="graph" transform="scale(1 1) rotate(0) translate(4 610.601)">
<title>driver_x::run_driver_x_0</title>
<polygon fill="white" stroke="none" points="-4,4 -4,-610.601 1323,-610.601 1323,4 -4,4"/>
<!-- Node91 -->
<g id="node1" class="node"><title>Node91</title>
<polygon fill="#bfbfbf" stroke="black" points="0,-209 0,-230 161,-230 161,-209 0,-209"/>
<text text-anchor="middle" x="80.5" y="-216.4" font-family="Ubuntu Mono" font-size="12.00">driver_x::run_driver_x_0</text>
</g>
<!-- Node92 -->
<g id="node2" class="node"><title>Node92</title>
<g id="a_node2"><a xlink:href="namespacegrid__ops.html#a1047889ec84da6e56aae619570a16988" target="_top" xlink:title="grid_ops::setup_grid_x">
<polygon fill="white" stroke="black" points="212,-369 212,-390 361,-390 361,-369 212,-369"/>
<text text-anchor="middle" x="286.5" y="-376.4" font-family="Ubuntu Mono" font-size="12.00">grid_ops::setup_grid_x</text>
</a>
</g>
</g>
<!-- Node91&#45;&gt;Node92 -->
<g id="edge1" class="edge"><title>Node91&#45;&gt;Node92</title>
<path fill="none" stroke="midnightblue" d="M93.3345,-230.176C113.919,-248.6 157.863,-287.291 197,-317.5 217.993,-333.704 242.786,-350.917 260.782,-363.084"/>
<polygon fill="midnightblue" stroke="midnightblue" points="259.265,-366.281 269.517,-368.955 263.169,-360.472 259.265,-366.281"/>
</g>
<!-- Node95 -->
<g id="node5" class="node"><title>Node95</title>
<g id="a_node5"><a xlink:href="namespacegrid__ops.html#ab2a8efa54d36500efcabeb9f1aabbcc6" target="_top" xlink:title="grid_ops::print_output_grid">
<polygon fill="white" stroke="black" points="197,-287 197,-308 376,-308 376,-287 197,-287"/>
<text text-anchor="middle" x="286.5" y="-294.4" font-family="Ubuntu Mono" font-size="12.00">grid_ops::print_output_grid</text>
</a>
</g>
</g>
<!-- Node91&#45;&gt;Node95 -->
<g id="edge4" class="edge"><title>Node91&#45;&gt;Node95</title>
<path fill="none" stroke="midnightblue" d="M109.012,-230.019C144.981,-243.772 208.123,-267.915 248.324,-283.286"/>
<polygon fill="midnightblue" stroke="midnightblue" points="247.181,-286.596 257.772,-286.898 249.682,-280.058 247.181,-286.596"/>
</g>
<!-- Node108 -->
<g id="node18" class="node"><title>Node108</title>
<g id="a_node18"><a xlink:href="namespacemessages.html#aa4a8d01563e92558e8a0875b075ec54c" target="_top" xlink:title="messages::writo">
<polygon fill="white" stroke="black" points="818,-210 818,-231 925,-231 925,-210 818,-210"/>
<text text-anchor="middle" x="871.5" y="-217.4" font-family="Ubuntu Mono" font-size="12.00">messages::writo</text>
</a>
</g>
</g>
<!-- Node91&#45;&gt;Node108 -->
<g id="edge44" class="edge"><title>Node91&#45;&gt;Node108</title>
<path fill="none" stroke="midnightblue" d="M161.09,-211.305C287.73,-199.607 542.793,-181.519 758,-200.5 775.675,-202.059 794.733,-204.97 812.049,-208.098"/>
<polygon fill="midnightblue" stroke="midnightblue" points="811.548,-211.565 822.02,-209.956 812.83,-204.683 811.548,-211.565"/>
</g>
<!-- Node112 -->
<g id="node22" class="node"><title>Node112</title>
<g id="a_node22"><a xlink:href="namespacemessages.html#a6e6bfb084063e4cc91ee86e542043302" target="_top" xlink:title="messages::lvl_ud">
<polygon fill="white" stroke="black" points="630,-210 630,-231 743,-231 743,-210 630,-210"/>
<text text-anchor="middle" x="686.5" y="-217.4" font-family="Ubuntu Mono" font-size="12.00">messages::lvl_ud</text>
</a>
</g>
</g>
<!-- Node91&#45;&gt;Node112 -->
<g id="edge45" class="edge"><title>Node91&#45;&gt;Node112</title>
<path fill="none" stroke="midnightblue" d="M161.084,-219.632C281.611,-219.831 508.198,-220.206 619.875,-220.391"/>
<polygon fill="midnightblue" stroke="midnightblue" points="619.985,-223.891 629.991,-220.408 619.997,-216.891 619.985,-223.891"/>
</g>
<!-- Node114 -->
<g id="node24" class="node"><title>Node114</title>
<g id="a_node24"><a xlink:href="namespacehelena__ops.html#a7796861de18ae7ac9c3aa07a8628be38" target="_top" xlink:title="helena_ops::interp\l_hel_on_grid">
<polygon fill="white" stroke="black" points="433,-97.5 433,-131.5 558,-131.5 558,-97.5 433,-97.5"/>
<text text-anchor="start" x="441" y="-117.9" font-family="Ubuntu Mono" font-size="12.00">helena_ops::interp</text>
<text text-anchor="middle" x="495.5" y="-104.9" font-family="Ubuntu Mono" font-size="12.00">_hel_on_grid</text>
</a>
</g>
</g>
<!-- Node91&#45;&gt;Node114 -->
<g id="edge35" class="edge"><title>Node91&#45;&gt;Node114</title>
<path fill="none" stroke="midnightblue" d="M100.951,-208.946C123.452,-197.167 161.912,-178.341 197,-167.5 272.221,-144.259 361.484,-130.053 422.477,-122.276"/>
<polygon fill="midnightblue" stroke="midnightblue" points="423.282,-125.703 432.771,-120.99 422.414,-118.757 423.282,-125.703"/>
</g>
<!-- Node93 -->
<g id="node3" class="node"><title>Node93</title>
<g id="a_node3"><a xlink:href="namespacegrid__utilities.html#a43206328f85253a6cc821cd46a498bb6" target="_top" xlink:title="grid_utilities::setup\l_interp_data">
<polygon fill="white" stroke="black" points="424,-482.5 424,-516.5 567,-516.5 567,-482.5 424,-482.5"/>
<text text-anchor="start" x="432" y="-502.9" font-family="Ubuntu Mono" font-size="12.00">grid_utilities::setup</text>
<text text-anchor="middle" x="495.5" y="-489.9" font-family="Ubuntu Mono" font-size="12.00">_interp_data</text>
</a>
</g>
</g>
<!-- Node92&#45;&gt;Node93 -->
<g id="edge2" class="edge"><title>Node92&#45;&gt;Node93</title>
<path fill="none" stroke="midnightblue" d="M305.87,-390.149C339.472,-409.629 411.487,-451.376 456.173,-477.282"/>
<polygon fill="midnightblue" stroke="midnightblue" points="454.592,-480.41 464.998,-482.398 458.102,-474.354 454.592,-480.41"/>
</g>
<!-- Node94 -->
<g id="node4" class="node"><title>Node94</title>
<g id="a_node4"><a xlink:href="namespacestr__utilities.html#a0b97e51770725a3e98ed393d26681414" target="_top" xlink:title="str_utilities::i2str">
<polygon fill="white" stroke="black" points="1179,-490 1179,-511 1316,-511 1316,-490 1179,-490"/>
<text text-anchor="middle" x="1247.5" y="-497.4" font-family="Ubuntu Mono" font-size="12.00">str_utilities::i2str</text>
</a>
</g>
</g>
<!-- Node93&#45;&gt;Node94 -->
<g id="edge3" class="edge"><title>Node93&#45;&gt;Node94</title>
<path fill="none" stroke="midnightblue" d="M520.034,-516.508C542.978,-531.961 579.506,-553.651 615,-562.5 841.404,-618.943 914.726,-623.297 1140,-562.5 1172.35,-553.769 1204.98,-532.514 1225.44,-517.327"/>
<polygon fill="midnightblue" stroke="midnightblue" points="1227.59,-520.088 1233.43,-511.245 1223.35,-514.52 1227.59,-520.088"/>
</g>
<!-- Node96 -->
<g id="node6" class="node"><title>Node96</title>
<g id="a_node6"><a xlink:href="namespacehdf5__ops.html#a18a07099350020b44d6fbe93ed36e804" target="_top" xlink:title="hdf5_ops::print_hdf5_arrs">
<polygon fill="white" stroke="black" points="412,-368 412,-389 579,-389 579,-368 412,-368"/>
<text text-anchor="middle" x="495.5" y="-375.4" font-family="Ubuntu Mono" font-size="12.00">hdf5_ops::print_hdf5_arrs</text>
</a>
</g>
</g>
<!-- Node95&#45;&gt;Node96 -->
<g id="edge5" class="edge"><title>Node95&#45;&gt;Node96</title>
<path fill="none" stroke="midnightblue" d="M311.666,-308.08C336.63,-318.894 376.796,-335.974 412,-349.5 425.326,-354.62 439.993,-359.892 453.218,-364.512"/>
<polygon fill="midnightblue" stroke="midnightblue" points="452.409,-367.936 463.004,-367.906 454.703,-361.323 452.409,-367.936"/>
</g>
<!-- Node95&#45;&gt;Node108 -->
<g id="edge33" class="edge"><title>Node95&#45;&gt;Node108</title>
<path fill="none" stroke="midnightblue" d="M376.201,-305.5C388.224,-306.328 400.408,-307.035 412,-307.5 486.163,-310.474 510.029,-334.921 579,-307.5 599.451,-299.369 595.486,-283.676 615,-273.5 631.965,-264.653 737.81,-244.401 807.838,-231.65"/>
<polygon fill="midnightblue" stroke="midnightblue" points="808.681,-235.054 817.895,-229.825 807.431,-228.167 808.681,-235.054"/>
</g>
<!-- Node95&#45;&gt;Node112 -->
<g id="edge34" class="edge"><title>Node95&#45;&gt;Node112</title>
<path fill="none" stroke="midnightblue" d="M376.155,-306.671C435.822,-309.318 514.984,-305.831 579,-278.5 598.962,-269.977 596.399,-256.685 615,-245.5 621.963,-241.313 629.733,-237.68 637.5,-234.579"/>
<polygon fill="midnightblue" stroke="midnightblue" points="638.776,-237.839 646.918,-231.06 636.326,-231.282 638.776,-237.839"/>
</g>
<!-- Node113 -->
<g id="node23" class="node"><title>Node113</title>
<g id="a_node23"><a xlink:href="namespacegrid__utilities.html#a67001ff9bbcad707aacf17f90a748d90" target="_top" xlink:title="grid_utilities::trim_grid">
<polygon fill="white" stroke="black" points="412,-248 412,-269 579,-269 579,-248 412,-248"/>
<text text-anchor="middle" x="495.5" y="-255.4" font-family="Ubuntu Mono" font-size="12.00">grid_utilities::trim_grid</text>
</a>
</g>
</g>
<!-- Node95&#45;&gt;Node113 -->
<g id="edge32" class="edge"><title>Node95&#45;&gt;Node113</title>
<path fill="none" stroke="midnightblue" d="M343.245,-286.997C369.587,-282.034 401.215,-276.075 428.725,-270.892"/>
<polygon fill="midnightblue" stroke="midnightblue" points="429.477,-274.312 438.656,-269.021 428.181,-267.433 429.477,-274.312"/>
</g>
<!-- Node96&#45;&gt;Node94 -->
<g id="edge24" class="edge"><title>Node96&#45;&gt;Node94</title>
<path fill="none" stroke="midnightblue" d="M505.985,-389.143C521.414,-406.493 552.856,-442.002 579,-472.5 595.222,-491.423 592.814,-504.142 615,-515.5 815.485,-618.132 1100.73,-546.438 1205.7,-514.069"/>
<polygon fill="midnightblue" stroke="midnightblue" points="1206.79,-517.395 1215.29,-511.066 1204.7,-510.715 1206.79,-517.395"/>
</g>
<!-- Node97 -->
<g id="node7" class="node"><title>Node97</title>
<g id="a_node7"><a xlink:href="namespacempi__utilities.html#a5a789d05be41d6109c01f46cc98620c8" target="_top" xlink:title="mpi_utilities::lock\l_req_acc">
<polygon fill="white" stroke="black" points="621,-366.5 621,-400.5 752,-400.5 752,-366.5 621,-366.5"/>
<text text-anchor="start" x="629" y="-386.9" font-family="Ubuntu Mono" font-size="12.00">mpi_utilities::lock</text>
<text text-anchor="middle" x="686.5" y="-373.9" font-family="Ubuntu Mono" font-size="12.00">_req_acc</text>
</a>
</g>
</g>
<!-- Node96&#45;&gt;Node97 -->
<g id="edge6" class="edge"><title>Node96&#45;&gt;Node97</title>
<path fill="none" stroke="midnightblue" d="M579.123,-380.686C589.627,-380.964 600.33,-381.247 610.702,-381.521"/>
<polygon fill="midnightblue" stroke="midnightblue" points="610.855,-385.026 620.944,-381.792 611.04,-378.029 610.855,-385.026"/>
</g>
<!-- Node105 -->
<g id="node15" class="node"><title>Node105</title>
<g id="a_node15"><a xlink:href="namespacempi__utilities.html#a86f9982a0f92b51a916f832d9a3d8ba9" target="_top" xlink:title="mpi_utilities::lock\l_return_acc">
<polygon fill="white" stroke="black" points="621,-472.5 621,-506.5 752,-506.5 752,-472.5 621,-472.5"/>
<text text-anchor="start" x="629" y="-492.9" font-family="Ubuntu Mono" font-size="12.00">mpi_utilities::lock</text>
<text text-anchor="middle" x="686.5" y="-479.9" font-family="Ubuntu Mono" font-size="12.00">_return_acc</text>
</a>
</g>
</g>
<!-- Node96&#45;&gt;Node105 -->
<g id="edge18" class="edge"><title>Node96&#45;&gt;Node105</title>
<path fill="none" stroke="midnightblue" d="M509.296,-389.222C530.298,-406.427 573.864,-440.495 615,-462.5 618.77,-464.517 622.725,-466.458 626.755,-468.311"/>
<polygon fill="midnightblue" stroke="midnightblue" points="625.682,-471.661 636.246,-472.465 628.488,-465.249 625.682,-471.661"/>
</g>
<!-- Node106 -->
<g id="node16" class="node"><title>Node106</title>
<g id="a_node16"><a xlink:href="namespacehdf5__utilities.html#a7574320980affc30a584f7776d33a51c" target="_top" xlink:title="hdf5_utilities::set\l_1d_vars">
<polygon fill="white" stroke="black" points="621,-419.5 621,-453.5 752,-453.5 752,-419.5 621,-419.5"/>
<text text-anchor="start" x="629" y="-439.9" font-family="Ubuntu Mono" font-size="12.00">hdf5_utilities::set</text>
<text text-anchor="middle" x="686.5" y="-426.9" font-family="Ubuntu Mono" font-size="12.00">_1d_vars</text>
</a>
</g>
</g>
<!-- Node96&#45;&gt;Node106 -->
<g id="edge23" class="edge"><title>Node96&#45;&gt;Node106</title>
<path fill="none" stroke="midnightblue" d="M530.726,-389.003C555.683,-396.662 590.266,-407.275 620.413,-416.526"/>
<polygon fill="midnightblue" stroke="midnightblue" points="619.44,-419.889 630.027,-419.477 621.494,-413.197 619.44,-419.889"/>
</g>
<!-- Node107 -->
<g id="node17" class="node"><title>Node107</title>
<g id="a_node17"><a xlink:href="HDF5__ops_8f90.html#a9ce89bbcdaf88002bfab4d531536c989" target="_top" xlink:title="detect_ind_print">
<polygon fill="white" stroke="black" points="630,-326 630,-347 743,-347 743,-326 630,-326"/>
<text text-anchor="middle" x="686.5" y="-333.4" font-family="Ubuntu Mono" font-size="12.00">detect_ind_print</text>
</a>
</g>
</g>
<!-- Node96&#45;&gt;Node107 -->
<g id="edge25" class="edge"><title>Node96&#45;&gt;Node107</title>
<path fill="none" stroke="midnightblue" d="M544.193,-367.902C569.695,-362.234 601.282,-355.215 628.12,-349.251"/>
<polygon fill="midnightblue" stroke="midnightblue" points="629.148,-352.608 638.15,-347.022 627.629,-345.775 629.148,-352.608"/>
</g>
<!-- Node96&#45;&gt;Node108 -->
<g id="edge26" class="edge"><title>Node96&#45;&gt;Node108</title>
<path fill="none" stroke="midnightblue" d="M536.982,-367.876C550.85,-363.315 566.108,-357.227 579,-349.5 597.617,-338.341 596.132,-327.229 615,-316.5 672.692,-283.695 696.033,-297.263 758,-273.5 786.928,-262.407 818.774,-247.097 841.177,-235.783"/>
<polygon fill="midnightblue" stroke="midnightblue" points="842.844,-238.862 850.164,-231.203 839.665,-232.625 842.844,-238.862"/>
</g>
<!-- Node96&#45;&gt;Node112 -->
<g id="edge30" class="edge"><title>Node96&#45;&gt;Node112</title>
<path fill="none" stroke="midnightblue" d="M509.728,-367.925C526.092,-354.805 554.758,-331.695 579,-311.5 609.352,-286.214 644.065,-256.379 665.384,-237.948"/>
<polygon fill="midnightblue" stroke="midnightblue" points="667.854,-240.44 673.125,-231.249 663.273,-235.147 667.854,-240.44"/>
</g>
<!-- Node98 -->
<g id="node8" class="node"><title>Node98</title>
<g id="a_node8"><a xlink:href="namespacempi__utilities.html#a4c5de9472574b63c69212948d8a3f4e1" target="_top" xlink:title="mpi_utilities::lock\l_header">
<polygon fill="white" stroke="black" points="997,-395.5 997,-429.5 1128,-429.5 1128,-395.5 997,-395.5"/>
<text text-anchor="start" x="1005" y="-415.9" font-family="Ubuntu Mono" font-size="12.00">mpi_utilities::lock</text>
<text text-anchor="middle" x="1062.5" y="-402.9" font-family="Ubuntu Mono" font-size="12.00">_header</text>
</a>
</g>
</g>
<!-- Node97&#45;&gt;Node98 -->
<g id="edge7" class="edge"><title>Node97&#45;&gt;Node98</title>
<path fill="none" stroke="midnightblue" d="M743.537,-366.429C748.728,-363.586 753.659,-360.296 758,-356.5 783.151,-334.503 765.268,-307.556 794,-290.5 853.237,-255.335 885.902,-262.854 949,-290.5 993.722,-310.094 1028.53,-357.21 1046.96,-386.823"/>
<polygon fill="midnightblue" stroke="midnightblue" points="1043.97,-388.653 1052.14,-395.401 1049.97,-385.032 1043.97,-388.653"/>
</g>
<!-- Node100 -->
<g id="node10" class="node"><title>Node100</title>
<g id="a_node10"><a xlink:href="namespacempi__utilities.html#a0417983d618bfc9f892d6d2af5d27b1d" target="_top" xlink:title="mpi_utilities::lock\l_wl_change">
<polygon fill="white" stroke="black" points="806,-485.5 806,-519.5 937,-519.5 937,-485.5 806,-485.5"/>
<text text-anchor="start" x="814" y="-505.9" font-family="Ubuntu Mono" font-size="12.00">mpi_utilities::lock</text>
<text text-anchor="middle" x="871.5" y="-492.9" font-family="Ubuntu Mono" font-size="12.00">_wl_change</text>
</a>
</g>
</g>
<!-- Node97&#45;&gt;Node100 -->
<g id="edge10" class="edge"><title>Node97&#45;&gt;Node100</title>
<path fill="none" stroke="midnightblue" d="M739.999,-400.594C746.211,-403.273 752.346,-406.247 758,-409.5 767.174,-414.778 812.289,-452.777 842.526,-478.54"/>
<polygon fill="midnightblue" stroke="midnightblue" points="840.36,-481.293 850.239,-485.121 844.904,-475.968 840.36,-481.293"/>
</g>
<!-- Node102 -->
<g id="node12" class="node"><title>Node102</title>
<g id="a_node12"><a xlink:href="namespacempi__utilities.html#a74e2e82b561f403ca8087c3925f76e29" target="_top" xlink:title="mpi_utilities::wl_empty">
<polygon fill="white" stroke="black" points="794,-407 794,-428 949,-428 949,-407 794,-407"/>
<text text-anchor="middle" x="871.5" y="-414.4" font-family="Ubuntu Mono" font-size="12.00">mpi_utilities::wl_empty</text>
</a>
</g>
</g>
<!-- Node97&#45;&gt;Node102 -->
<g id="edge13" class="edge"><title>Node97&#45;&gt;Node102</title>
<path fill="none" stroke="midnightblue" d="M752.019,-395.487C768.722,-398.59 786.741,-401.938 803.565,-405.064"/>
<polygon fill="midnightblue" stroke="midnightblue" points="803.392,-408.592 813.863,-406.977 804.67,-401.709 803.392,-408.592"/>
</g>
<!-- Node103 -->
<g id="node13" class="node"><title>Node103</title>
<g id="a_node13"><a xlink:href="namespacempi__utilities.html#a5d2dbf8ffba124237c362f06c3d3ac32" target="_top" xlink:title="mpi_utilities::lock\l_notify">
<polygon fill="white" stroke="black" points="806,-353.5 806,-387.5 937,-387.5 937,-353.5 806,-353.5"/>
<text text-anchor="start" x="814" y="-373.9" font-family="Ubuntu Mono" font-size="12.00">mpi_utilities::lock</text>
<text text-anchor="middle" x="871.5" y="-360.9" font-family="Ubuntu Mono" font-size="12.00">_notify</text>
</a>
</g>
</g>
<!-- Node97&#45;&gt;Node103 -->
<g id="edge14" class="edge"><title>Node97&#45;&gt;Node103</title>
<path fill="none" stroke="midnightblue" d="M752.019,-378.917C766.096,-377.917 781.109,-376.85 795.552,-375.824"/>
<polygon fill="midnightblue" stroke="midnightblue" points="796.22,-379.286 805.947,-375.086 795.724,-372.303 796.22,-379.286"/>
</g>
<!-- Node104 -->
<g id="node14" class="node"><title>Node104</title>
<g id="a_node14"><a xlink:href="namespacempi__utilities.html#a9ec02d2ade63716189369640f0da3c5f" target="_top" xlink:title="mpi_utilities::lock\l_get_notified">
<polygon fill="white" stroke="black" points="806,-300.5 806,-334.5 937,-334.5 937,-300.5 806,-300.5"/>
<text text-anchor="start" x="814" y="-320.9" font-family="Ubuntu Mono" font-size="12.00">mpi_utilities::lock</text>
<text text-anchor="middle" x="871.5" y="-307.9" font-family="Ubuntu Mono" font-size="12.00">_get_notified</text>
</a>
</g>
</g>
<!-- Node97&#45;&gt;Node104 -->
<g id="edge16" class="edge"><title>Node97&#45;&gt;Node104</title>
<path fill="none" stroke="midnightblue" d="M731.947,-366.448C751.003,-359.23 773.543,-350.816 794,-343.5 799.118,-341.67 804.44,-339.798 809.786,-337.939"/>
<polygon fill="midnightblue" stroke="midnightblue" points="811.087,-341.192 819.396,-334.618 808.801,-334.576 811.087,-341.192"/>
</g>
<!-- Node98&#45;&gt;Node94 -->
<g id="edge9" class="edge"><title>Node98&#45;&gt;Node94</title>
<path fill="none" stroke="midnightblue" d="M1099.22,-429.676C1132.97,-445.904 1183.08,-470.004 1215.27,-485.483"/>
<polygon fill="midnightblue" stroke="midnightblue" points="1214.12,-488.813 1224.65,-489.992 1217.15,-482.504 1214.12,-488.813"/>
</g>
<!-- Node99 -->
<g id="node9" class="node"><title>Node99</title>
<g id="a_node9"><a xlink:href="namespacestr__utilities.html#acb8c4e66aead51f178e47fdea8d7a7db" target="_top" xlink:title="str_utilities::ii2str">
<polygon fill="white" stroke="black" points="1176,-402 1176,-423 1319,-423 1319,-402 1176,-402"/>
<text text-anchor="middle" x="1247.5" y="-409.4" font-family="Ubuntu Mono" font-size="12.00">str_utilities::ii2str</text>
</a>
</g>
</g>
<!-- Node98&#45;&gt;Node99 -->
<g id="edge8" class="edge"><title>Node98&#45;&gt;Node99</title>
<path fill="none" stroke="midnightblue" d="M1128.02,-412.5C1140.2,-412.5 1153.08,-412.5 1165.68,-412.5"/>
<polygon fill="midnightblue" stroke="midnightblue" points="1165.72,-416 1175.72,-412.5 1165.72,-409 1165.72,-416"/>
</g>
<!-- Node100&#45;&gt;Node98 -->
<g id="edge11" class="edge"><title>Node100&#45;&gt;Node98</title>
<path fill="none" stroke="midnightblue" d="M914.852,-485.493C926.035,-480.809 938.039,-475.608 949,-470.5 973.117,-459.261 999.587,-445.679 1020.79,-434.484"/>
<polygon fill="midnightblue" stroke="midnightblue" points="1022.64,-437.465 1029.83,-429.686 1019.36,-431.282 1022.64,-437.465"/>
</g>
<!-- Node101 -->
<g id="node11" class="node"><title>Node101</title>
<g id="a_node11"><a xlink:href="namespacestr__utilities.html#ac778d706b2e021672618939ab58fdd32" target="_top" xlink:title="str_utilities::r2strt">
<polygon fill="white" stroke="black" points="991,-492 991,-513 1134,-513 1134,-492 991,-492"/>
<text text-anchor="middle" x="1062.5" y="-499.4" font-family="Ubuntu Mono" font-size="12.00">str_utilities::r2strt</text>
</a>
</g>
</g>
<!-- Node100&#45;&gt;Node101 -->
<g id="edge12" class="edge"><title>Node100&#45;&gt;Node101</title>
<path fill="none" stroke="midnightblue" d="M937.014,-502.5C951.09,-502.5 966.156,-502.5 980.772,-502.5"/>
<polygon fill="midnightblue" stroke="midnightblue" points="980.802,-506 990.802,-502.5 980.802,-499 980.802,-506"/>
</g>
<!-- Node103&#45;&gt;Node98 -->
<g id="edge15" class="edge"><title>Node103&#45;&gt;Node98</title>
<path fill="none" stroke="midnightblue" d="M937.014,-384.837C953.043,-388.399 970.356,-392.246 986.828,-395.906"/>
<polygon fill="midnightblue" stroke="midnightblue" points="986.434,-399.404 996.956,-398.157 987.953,-392.571 986.434,-399.404"/>
</g>
<!-- Node104&#45;&gt;Node98 -->
<g id="edge17" class="edge"><title>Node104&#45;&gt;Node98</title>
<path fill="none" stroke="midnightblue" d="M927.417,-334.505C934.775,-337.263 942.143,-340.281 949,-343.5 976.891,-356.593 1006.52,-374.969 1028.37,-389.466"/>
<polygon fill="midnightblue" stroke="midnightblue" points="1026.68,-392.546 1036.93,-395.213 1030.58,-386.734 1026.68,-392.546"/>
</g>
<!-- Node105&#45;&gt;Node98 -->
<g id="edge19" class="edge"><title>Node105&#45;&gt;Node98</title>
<path fill="none" stroke="midnightblue" d="M752.061,-477.079C805.037,-466.787 881.963,-451.612 949,-437.5 961.204,-434.931 974.136,-432.131 986.716,-429.364"/>
<polygon fill="midnightblue" stroke="midnightblue" points="987.7,-432.731 996.71,-427.158 986.19,-425.896 987.7,-432.731"/>
</g>
<!-- Node105&#45;&gt;Node100 -->
<g id="edge20" class="edge"><title>Node105&#45;&gt;Node100</title>
<path fill="none" stroke="midnightblue" d="M752.019,-494.083C766.096,-495.083 781.109,-496.15 795.552,-497.176"/>
<polygon fill="midnightblue" stroke="midnightblue" points="795.724,-500.697 805.947,-497.914 796.22,-493.714 795.724,-500.697"/>
</g>
<!-- Node105&#45;&gt;Node102 -->
<g id="edge21" class="edge"><title>Node105&#45;&gt;Node102</title>
<path fill="none" stroke="midnightblue" d="M734.91,-472.402C742.703,-469.29 750.636,-465.935 758,-462.5 774.588,-454.763 777.224,-449.821 794,-442.5 803.413,-438.392 813.726,-434.583 823.648,-431.238"/>
<polygon fill="midnightblue" stroke="midnightblue" points="824.972,-434.488 833.391,-428.055 822.798,-427.834 824.972,-434.488"/>
</g>
<!-- Node105&#45;&gt;Node103 -->
<g id="edge22" class="edge"><title>Node105&#45;&gt;Node103</title>
<path fill="none" stroke="midnightblue" d="M743.512,-472.401C748.708,-469.562 753.647,-466.282 758,-462.5 782.928,-440.84 768.788,-418.829 794,-397.5 795.976,-395.829 798.062,-394.258 800.233,-392.782"/>
<polygon fill="midnightblue" stroke="midnightblue" points="802.189,-395.69 808.969,-387.549 798.592,-389.685 802.189,-395.69"/>
</g>
<!-- Node109 -->
<g id="node19" class="node"><title>Node109</title>
<g id="a_node19"><a xlink:href="namespacemessages.html#a82dddaab795b78b3d39e1ff1aab2f665" target="_top" xlink:title="messages::get_mem_usage">
<polygon fill="white" stroke="black" points="985,-230 985,-251 1140,-251 1140,-230 985,-230"/>
<text text-anchor="middle" x="1062.5" y="-237.4" font-family="Ubuntu Mono" font-size="12.00">messages::get_mem_usage</text>
</a>
</g>
</g>
<!-- Node108&#45;&gt;Node109 -->
<g id="edge27" class="edge"><title>Node108&#45;&gt;Node109</title>
<path fill="none" stroke="midnightblue" d="M925.147,-226.071C940.434,-227.689 957.551,-229.5 974.356,-231.278"/>
<polygon fill="midnightblue" stroke="midnightblue" points="974.448,-234.808 984.761,-232.379 975.184,-227.846 974.448,-234.808"/>
</g>
<!-- Node110 -->
<g id="node20" class="node"><title>Node110</title>
<g id="a_node20"><a xlink:href="messages_8f90.html#a6d15f28783f95a7a4b2a44185619792f" target="_top" xlink:title="format_str">
<polygon fill="white" stroke="black" points="1024,-190 1024,-211 1101,-211 1101,-190 1024,-190"/>
<text text-anchor="middle" x="1062.5" y="-197.4" font-family="Ubuntu Mono" font-size="12.00">format_str</text>
</a>
</g>
</g>
<!-- Node108&#45;&gt;Node110 -->
<g id="edge28" class="edge"><title>Node108&#45;&gt;Node110</title>
<path fill="none" stroke="midnightblue" d="M925.147,-214.929C952.944,-211.987 986.795,-208.405 1013.81,-205.546"/>
<polygon fill="midnightblue" stroke="midnightblue" points="1014.23,-209.022 1023.81,-204.489 1013.5,-202.06 1014.23,-209.022"/>
</g>
<!-- Node111 -->
<g id="node21" class="node"><title>Node111</title>
<g id="a_node21"><a xlink:href="namespacemessages.html#a61fd0b51b5e37d58fdc993c01792a3fd" target="_top" xlink:title="messages::get_clock">
<polygon fill="white" stroke="black" points="1182,-190 1182,-211 1313,-211 1313,-190 1182,-190"/>
<text text-anchor="middle" x="1247.5" y="-197.4" font-family="Ubuntu Mono" font-size="12.00">messages::get_clock</text>
</a>
</g>
</g>
<!-- Node110&#45;&gt;Node111 -->
<g id="edge29" class="edge"><title>Node110&#45;&gt;Node111</title>
<path fill="none" stroke="midnightblue" d="M1101.42,-200.5C1121.75,-200.5 1147.54,-200.5 1171.72,-200.5"/>
<polygon fill="midnightblue" stroke="midnightblue" points="1171.96,-204 1181.96,-200.5 1171.96,-197 1171.96,-204"/>
</g>
<!-- Node112&#45;&gt;Node108 -->
<g id="edge31" class="edge"><title>Node112&#45;&gt;Node108</title>
<path fill="none" stroke="midnightblue" d="M743.4,-220.5C763.725,-220.5 786.825,-220.5 807.706,-220.5"/>
<polygon fill="midnightblue" stroke="midnightblue" points="807.757,-224 817.757,-220.5 807.757,-217 807.757,-224"/>
</g>
<!-- Node114&#45;&gt;Node108 -->
<g id="edge36" class="edge"><title>Node114&#45;&gt;Node108</title>
<path fill="none" stroke="midnightblue" d="M558.082,-122.704C611.771,-130.861 691.277,-145.38 758,-167.5 787.946,-177.428 820.36,-193.29 842.667,-205.077"/>
<polygon fill="midnightblue" stroke="midnightblue" points="841.105,-208.211 851.572,-209.851 844.412,-202.041 841.105,-208.211"/>
</g>
<!-- Node114&#45;&gt;Node112 -->
<g id="edge37" class="edge"><title>Node114&#45;&gt;Node112</title>
<path fill="none" stroke="midnightblue" d="M526.866,-131.531C563.074,-151.838 623.065,-185.484 657.973,-205.061"/>
<polygon fill="midnightblue" stroke="midnightblue" points="656.261,-208.114 666.695,-209.953 659.685,-202.009 656.261,-208.114"/>
</g>
<!-- Node115 -->
<g id="node25" class="node"><title>Node115</title>
<g id="a_node25"><a xlink:href="namespacehelena__ops.html#ab1329afe5af2ff92d96f4be15a096b38" target="_top" xlink:title="helena_ops::get_ang\l_interp_data_hel">
<polygon fill="white" stroke="black" points="621,-0.5 621,-34.5 752,-34.5 752,-0.5 621,-0.5"/>
<text text-anchor="start" x="629" y="-20.9" font-family="Ubuntu Mono" font-size="12.00">helena_ops::get_ang</text>
<text text-anchor="middle" x="686.5" y="-7.9" font-family="Ubuntu Mono" font-size="12.00">_interp_data_hel</text>
</a>
</g>
</g>
<!-- Node114&#45;&gt;Node115 -->
<g id="edge38" class="edge"><title>Node114&#45;&gt;Node115</title>
<path fill="none" stroke="midnightblue" d="M522.623,-97.3405C546.179,-82.2902 582.076,-60.3903 615,-44.5 619.275,-42.4367 623.752,-40.4168 628.287,-38.4692"/>
<polygon fill="midnightblue" stroke="midnightblue" points="629.744,-41.654 637.634,-34.5827 627.057,-35.1905 629.744,-41.654"/>
</g>
<!-- Node116 -->
<g id="node26" class="node"><title>Node116</title>
<g id="a_node26"><a xlink:href="HELENA__ops_8f90.html#a0480c2cb24b13d76286e1f2b0fe100a1" target="_top" xlink:title="interp_var_3d_real">
<polygon fill="white" stroke="black" points="624,-54 624,-75 749,-75 749,-54 624,-54"/>
<text text-anchor="middle" x="686.5" y="-61.4" font-family="Ubuntu Mono" font-size="12.00">interp_var_3d_real</text>
</a>
</g>
</g>
<!-- Node114&#45;&gt;Node116 -->
<g id="edge39" class="edge"><title>Node114&#45;&gt;Node116</title>
<path fill="none" stroke="midnightblue" d="M558.124,-98.1973C583.291,-91.5395 612.011,-83.9415 635.802,-77.6476"/>
<polygon fill="midnightblue" stroke="midnightblue" points="636.9,-80.9777 645.672,-75.0365 635.109,-74.2105 636.9,-80.9777"/>
</g>
<!-- Node119 -->
<g id="node29" class="node"><title>Node119</title>
<g id="a_node29"><a xlink:href="HELENA__ops_8f90.html#a8229f4b89831a39793047106375555cf" target="_top" xlink:title="interp_var_7d_real_ow">
<polygon fill="white" stroke="black" points="615,-94 615,-115 758,-115 758,-94 615,-94"/>
<text text-anchor="middle" x="686.5" y="-101.4" font-family="Ubuntu Mono" font-size="12.00">interp_var_7d_real_ow</text>
</a>
</g>
</g>
<!-- Node114&#45;&gt;Node119 -->
<g id="edge43" class="edge"><title>Node114&#45;&gt;Node119</title>
<path fill="none" stroke="midnightblue" d="M558.124,-111.239C572.97,-110.454 589.052,-109.603 604.629,-108.779"/>
<polygon fill="midnightblue" stroke="midnightblue" points="604.974,-112.266 614.775,-108.242 604.604,-105.275 604.974,-112.266"/>
</g>
<!-- Node116&#45;&gt;Node94 -->
<g id="edge40" class="edge"><title>Node116&#45;&gt;Node94</title>
<path fill="none" stroke="midnightblue" d="M730.539,-75.0021C739.737,-77.7176 749.299,-80.9053 758,-84.5 774.917,-91.4885 776.881,-98.0238 794,-104.5 941.259,-160.208 1032.88,-65.1111 1140,-180.5 1216.97,-263.417 1124.49,-331.768 1176,-432.5 1186.65,-453.323 1206.2,-471.399 1222.02,-483.669"/>
<polygon fill="midnightblue" stroke="midnightblue" points="1220.23,-486.702 1230.34,-489.869 1224.42,-481.088 1220.23,-486.702"/>
</g>
<!-- Node117 -->
<g id="node27" class="node"><title>Node117</title>
<g id="a_node27"><a xlink:href="namespacenum__utilities.html#a5ee3fbd1fe67d0deefc7194631389f2a" target="_top" xlink:title="num_utilities::c">
<polygon fill="white" stroke="black" points="815,-74 815,-95 928,-95 928,-74 815,-74"/>
<text text-anchor="middle" x="871.5" y="-81.4" font-family="Ubuntu Mono" font-size="12.00">num_utilities::c</text>
</a>
</g>
</g>
<!-- Node116&#45;&gt;Node117 -->
<g id="edge41" class="edge"><title>Node116&#45;&gt;Node117</title>
<path fill="none" stroke="midnightblue" d="M749.2,-71.2432C767.065,-73.1956 786.631,-75.334 804.734,-77.3125"/>
<polygon fill="midnightblue" stroke="midnightblue" points="804.588,-80.8173 814.909,-78.4245 805.349,-73.8587 804.588,-80.8173"/>
</g>
<!-- Node118 -->
<g id="node28" class="node"><title>Node118</title>
<g id="a_node28"><a xlink:href="namespacenum__utilities.html#ac827c18dd05a9b5a06675eac942f3b51" target="_top" xlink:title="num_utilities::derivs">
<polygon fill="white" stroke="black" points="800,-34 800,-55 943,-55 943,-34 800,-34"/>
<text text-anchor="middle" x="871.5" y="-41.4" font-family="Ubuntu Mono" font-size="12.00">num_utilities::derivs</text>
</a>
</g>
</g>
<!-- Node116&#45;&gt;Node118 -->
<g id="edge42" class="edge"><title>Node116&#45;&gt;Node118</title>
<path fill="none" stroke="midnightblue" d="M749.2,-57.7568C762.182,-56.338 776.062,-54.8211 789.627,-53.3386"/>
<polygon fill="midnightblue" stroke="midnightblue" points="790.357,-56.7797 799.918,-52.2139 789.597,-49.8211 790.357,-56.7797"/>
</g>
</g>
</svg>
