<?xml version="1.0" encoding="UTF-8" standalone="no"?>
<!DOCTYPE svg PUBLIC "-//W3C//DTD SVG 1.1//EN"
 "http://www.w3.org/Graphics/SVG/1.1/DTD/svg11.dtd">
<!-- Generated by graphviz version 2.38.0 (20140413.2041)
 -->
<!-- Title: slepc_ops::solve_ev_system_slepc Pages: 1 -->
<svg width="1738pt" height="1289pt"
 viewBox="0.00 0.00 1738.00 1289.00" xmlns="http://www.w3.org/2000/svg" xmlns:xlink="http://www.w3.org/1999/xlink">
<g id="graph0" class="graph" transform="scale(1 1) rotate(0) translate(4 1285)">
<title>slepc_ops::solve_ev_system_slepc</title>
<polygon fill="white" stroke="none" points="-4,4 -4,-1285 1734,-1285 1734,4 -4,4"/>
<!-- Node41 -->
<g id="node1" class="node"><title>Node41</title>
<polygon fill="#bfbfbf" stroke="black" points="0,-835 0,-869 131,-869 131,-835 0,-835"/>
<text text-anchor="start" x="8" y="-855.4" font-family="Ubuntu Mono" font-size="12.00">slepc_ops::solve_ev</text>
<text text-anchor="middle" x="65.5" y="-842.4" font-family="Ubuntu Mono" font-size="12.00">_system_slepc</text>
</g>
<!-- Node42 -->
<g id="node2" class="node"><title>Node42</title>
<g id="a_node2"><a xlink:href="namespacenum__utilities.html#a87132bd5006387bcc2afe5ca375f0830" target="_top" xlink:title="num_utilities::calc\l_coeff_fin_diff">
<polygon fill="white" stroke="black" points="674,-463 674,-497 805,-497 805,-463 674,-463"/>
<text text-anchor="start" x="682" y="-483.4" font-family="Ubuntu Mono" font-size="12.00">num_utilities::calc</text>
<text text-anchor="middle" x="739.5" y="-470.4" font-family="Ubuntu Mono" font-size="12.00">_coeff_fin_diff</text>
</a>
</g>
</g>
<!-- Node41&#45;&gt;Node42 -->
<g id="edge1" class="edge"><title>Node41&#45;&gt;Node42</title>
<path fill="none" stroke="midnightblue" d="M67.585,-834.785C74.0141,-749.8 115.207,-374.618 346,-263 493.177,-191.821 662.962,-383.374 719.266,-454.567"/>
<polygon fill="midnightblue" stroke="midnightblue" points="716.647,-456.9 725.56,-462.627 722.164,-452.591 716.647,-456.9"/>
</g>
<!-- Node43 -->
<g id="node3" class="node"><title>Node43</title>
<g id="a_node3"><a xlink:href="namespacestr__utilities.html#a0b97e51770725a3e98ed393d26681414" target="_top" xlink:title="str_utilities::i2str">
<polygon fill="white" stroke="black" points="880,-688.5 880,-709.5 1017,-709.5 1017,-688.5 880,-688.5"/>
<text text-anchor="middle" x="948.5" y="-695.9" font-family="Ubuntu Mono" font-size="12.00">str_utilities::i2str</text>
</a>
</g>
</g>
<!-- Node41&#45;&gt;Node43 -->
<g id="edge68" class="edge"><title>Node41&#45;&gt;Node43</title>
<path fill="none" stroke="midnightblue" d="M131.282,-840.75C292.405,-812.768 710.223,-740.207 877.12,-711.223"/>
<polygon fill="midnightblue" stroke="midnightblue" points="877.776,-714.661 887.03,-709.502 876.579,-707.764 877.776,-714.661"/>
</g>
<!-- Node46 -->
<g id="node6" class="node"><title>Node46</title>
<g id="a_node6"><a xlink:href="namespacemessages.html#aa4a8d01563e92558e8a0875b075ec54c" target="_top" xlink:title="messages::writo">
<polygon fill="white" stroke="black" points="1265,-368.5 1265,-389.5 1372,-389.5 1372,-368.5 1265,-368.5"/>
<text text-anchor="middle" x="1318.5" y="-375.9" font-family="Ubuntu Mono" font-size="12.00">messages::writo</text>
</a>
</g>
</g>
<!-- Node41&#45;&gt;Node46 -->
<g id="edge22" class="edge"><title>Node41&#45;&gt;Node46</title>
<path fill="none" stroke="midnightblue" d="M90.4454,-869.261C110.066,-882.531 139.055,-900.2 167,-910 272.848,-947.119 304.332,-948 416.5,-948 416.5,-948 416.5,-948 573.5,-948 879.149,-948 1064.6,-997.669 1229,-740 1301.4,-626.525 1314.57,-458.294 1316.97,-399.879"/>
<polygon fill="midnightblue" stroke="midnightblue" points="1320.47,-399.824 1317.32,-389.709 1313.48,-399.583 1320.47,-399.824"/>
</g>
<!-- Node50 -->
<g id="node10" class="node"><title>Node50</title>
<g id="a_node10"><a xlink:href="namespaceinput__utilities.html#a41fc0c806e12bc722771210cfa1edbd3" target="_top" xlink:title="input_utilities::get_real">
<polygon fill="white" stroke="black" points="656,-138.5 656,-159.5 823,-159.5 823,-138.5 656,-138.5"/>
<text text-anchor="middle" x="739.5" y="-145.9" font-family="Ubuntu Mono" font-size="12.00">input_utilities::get_real</text>
</a>
</g>
</g>
<!-- Node41&#45;&gt;Node50 -->
<g id="edge10" class="edge"><title>Node41&#45;&gt;Node50</title>
<path fill="none" stroke="midnightblue" d="M67.7578,-834.915C74.2218,-750.641 105.795,-379.479 167,-284 268.144,-126.216 518.734,-125.427 651.976,-137.521"/>
<polygon fill="midnightblue" stroke="midnightblue" points="651.859,-141.025 662.146,-138.489 652.523,-134.057 651.859,-141.025"/>
</g>
<!-- Node54 -->
<g id="node14" class="node"><title>Node54</title>
<g id="a_node14"><a xlink:href="namespaceinput__utilities.html#ad9ce824c30b32041ab70f3fb191f06db" target="_top" xlink:title="input_utilities::get_log">
<polygon fill="white" stroke="black" points="868,-42.5 868,-63.5 1029,-63.5 1029,-42.5 868,-42.5"/>
<text text-anchor="middle" x="948.5" y="-49.9" font-family="Ubuntu Mono" font-size="12.00">input_utilities::get_log</text>
</a>
</g>
</g>
<!-- Node41&#45;&gt;Node54 -->
<g id="edge17" class="edge"><title>Node41&#45;&gt;Node54</title>
<path fill="none" stroke="midnightblue" d="M66.885,-834.848C69.3224,-740.09 85.256,-280.926 167,-171 240.084,-72.7197 294.024,-54 416.5,-54 416.5,-54 416.5,-54 573.5,-54 670.552,-54 781.77,-53.6591 857.526,-53.3754"/>
<polygon fill="midnightblue" stroke="midnightblue" points="857.989,-56.8737 867.975,-53.3358 857.962,-49.8738 857.989,-56.8737"/>
</g>
<!-- Node56 -->
<g id="node16" class="node"><title>Node56</title>
<g id="a_node16"><a xlink:href="namespaceslepc__ops.html#a5f69f9325197c270c7975f01360a9648" target="_top" xlink:title="slepc_ops::start_slepc">
<polygon fill="white" stroke="black" points="665,-898.5 665,-919.5 814,-919.5 814,-898.5 665,-898.5"/>
<text text-anchor="middle" x="739.5" y="-905.9" font-family="Ubuntu Mono" font-size="12.00">slepc_ops::start_slepc</text>
</a>
</g>
</g>
<!-- Node41&#45;&gt;Node56 -->
<g id="edge23" class="edge"><title>Node41&#45;&gt;Node56</title>
<path fill="none" stroke="midnightblue" d="M108.329,-869.139C126.109,-875.635 147.259,-882.342 167,-886 337.899,-917.668 542.271,-916.783 654.448,-913.056"/>
<polygon fill="midnightblue" stroke="midnightblue" points="654.809,-916.546 664.681,-912.7 654.565,-909.55 654.809,-916.546"/>
</g>
<!-- Node57 -->
<g id="node17" class="node"><title>Node57</title>
<g id="a_node17"><a xlink:href="namespacemessages.html#a6e6bfb084063e4cc91ee86e542043302" target="_top" xlink:title="messages::lvl_ud">
<polygon fill="white" stroke="black" points="892,-821.5 892,-842.5 1005,-842.5 1005,-821.5 892,-821.5"/>
<text text-anchor="middle" x="948.5" y="-828.9" font-family="Ubuntu Mono" font-size="12.00">messages::lvl_ud</text>
</a>
</g>
</g>
<!-- Node41&#45;&gt;Node57 -->
<g id="edge28" class="edge"><title>Node41&#45;&gt;Node57</title>
<path fill="none" stroke="midnightblue" d="M131.088,-855.689C143.025,-856.235 155.386,-856.711 167,-857 230.536,-858.58 246.447,-857.619 310,-857 538.032,-854.778 595.51,-862.881 823,-847 842.146,-845.663 862.869,-843.469 881.813,-841.165"/>
<polygon fill="midnightblue" stroke="midnightblue" points="882.345,-844.626 891.836,-839.917 881.48,-837.68 882.345,-844.626"/>
</g>
<!-- Node58 -->
<g id="node18" class="node"><title>Node58</title>
<g id="a_node18"><a xlink:href="namespaceslepc__ops.html#af8aa2b9b7c5154ebd595afce3f5ebcd0" target="_top" xlink:title="slepc_ops::setup_mats">
<polygon fill="white" stroke="black" points="167,-498.5 167,-519.5 310,-519.5 310,-498.5 167,-498.5"/>
<text text-anchor="middle" x="238.5" y="-505.9" font-family="Ubuntu Mono" font-size="12.00">slepc_ops::setup_mats</text>
</a>
</g>
</g>
<!-- Node41&#45;&gt;Node58 -->
<g id="edge29" class="edge"><title>Node41&#45;&gt;Node58</title>
<path fill="none" stroke="midnightblue" d="M74.9799,-834.991C103.707,-777.369 197.251,-589.733 227.772,-528.512"/>
<polygon fill="midnightblue" stroke="midnightblue" points="230.932,-530.018 232.262,-519.507 224.668,-526.895 230.932,-530.018"/>
</g>
<!-- Node69 -->
<g id="node29" class="node"><title>Node69</title>
<g id="a_node29"><a xlink:href="SLEPC__ops_8f90.html#a07b637672a3e89fa9562a693995f857d" target="_top" xlink:title="test_mat_hermiticity">
<polygon fill="white" stroke="black" points="170,-1210.5 170,-1231.5 307,-1231.5 307,-1210.5 170,-1210.5"/>
<text text-anchor="middle" x="238.5" y="-1217.9" font-family="Ubuntu Mono" font-size="12.00">test_mat_hermiticity</text>
</a>
</g>
</g>
<!-- Node41&#45;&gt;Node69 -->
<g id="edge66" class="edge"><title>Node41&#45;&gt;Node69</title>
<path fill="none" stroke="midnightblue" d="M69.2143,-869.29C77.4056,-917.587 105.212,-1056.76 167,-1154 179.531,-1173.72 199.113,-1191.7 214.463,-1204.05"/>
<polygon fill="midnightblue" stroke="midnightblue" points="212.447,-1206.92 222.483,-1210.32 216.755,-1201.4 212.447,-1206.92"/>
</g>
<!-- Node70 -->
<g id="node30" class="node"><title>Node70</title>
<g id="a_node30"><a xlink:href="namespaceslepc__ops.html#a6f6de293e91e94dc92eb6eab0525a96e" target="_top" xlink:title="slepc_ops::setup_guess">
<polygon fill="white" stroke="black" points="665,-976.5 665,-997.5 814,-997.5 814,-976.5 665,-976.5"/>
<text text-anchor="middle" x="739.5" y="-983.9" font-family="Ubuntu Mono" font-size="12.00">slepc_ops::setup_guess</text>
</a>
</g>
</g>
<!-- Node41&#45;&gt;Node70 -->
<g id="edge69" class="edge"><title>Node41&#45;&gt;Node70</title>
<path fill="none" stroke="midnightblue" d="M76.1459,-869.264C91.5455,-894.881 124.347,-942.07 167,-962 336.706,-1041.3 566.568,-1017.32 675.824,-999.199"/>
<polygon fill="midnightblue" stroke="midnightblue" points="676.426,-1002.65 685.699,-997.522 675.254,-995.746 676.426,-1002.65"/>
</g>
<!-- Node71 -->
<g id="node31" class="node"><title>Node71</title>
<g id="a_node31"><a xlink:href="namespaceslepc__ops.html#a66241540803bca208b2f3bd6b0448491" target="_top" xlink:title="slepc_ops::store_results">
<polygon fill="white" stroke="black" points="659,-1130.5 659,-1151.5 820,-1151.5 820,-1130.5 659,-1130.5"/>
<text text-anchor="middle" x="739.5" y="-1137.9" font-family="Ubuntu Mono" font-size="12.00">slepc_ops::store_results</text>
</a>
</g>
</g>
<!-- Node41&#45;&gt;Node71 -->
<g id="edge74" class="edge"><title>Node41&#45;&gt;Node71</title>
<path fill="none" stroke="midnightblue" d="M75.5111,-869.323C91.2219,-898.383 125.905,-957.72 167,-998 235.049,-1064.7 255.648,-1085.74 346,-1116 445.653,-1149.38 567.36,-1151.66 648.577,-1148.17"/>
<polygon fill="midnightblue" stroke="midnightblue" points="648.946,-1151.65 658.771,-1147.69 648.618,-1144.66 648.946,-1151.65"/>
</g>
<!-- Node75 -->
<g id="node35" class="node"><title>Node75</title>
<g id="a_node35"><a xlink:href="namespaceslepc__ops.html#ae65ae217581e4b5986da87bc9a23acb8" target="_top" xlink:title="slepc_ops::stop_slepc">
<polygon fill="white" stroke="black" points="346,-822.5 346,-843.5 489,-843.5 489,-822.5 346,-822.5"/>
<text text-anchor="middle" x="417.5" y="-829.9" font-family="Ubuntu Mono" font-size="12.00">slepc_ops::stop_slepc</text>
</a>
</g>
</g>
<!-- Node41&#45;&gt;Node75 -->
<g id="edge84" class="edge"><title>Node41&#45;&gt;Node75</title>
<path fill="none" stroke="midnightblue" d="M131.103,-848.493C188.825,-845.36 273.63,-840.756 335.798,-837.381"/>
<polygon fill="midnightblue" stroke="midnightblue" points="336.166,-840.866 345.961,-836.829 335.786,-833.877 336.166,-840.866"/>
</g>
<!-- Node42&#45;&gt;Node43 -->
<g id="edge2" class="edge"><title>Node42&#45;&gt;Node43</title>
<path fill="none" stroke="midnightblue" d="M798.033,-497.002C806.906,-501.083 815.574,-506.035 823,-512 881.646,-559.107 922.591,-641.374 939.219,-679.085"/>
<polygon fill="midnightblue" stroke="midnightblue" points="936.092,-680.672 943.259,-688.474 942.522,-677.905 936.092,-680.672"/>
</g>
<!-- Node44 -->
<g id="node4" class="node"><title>Node44</title>
<g id="a_node4"><a xlink:href="namespacemessages.html#a80797cedef6112b8dccaeda431f0c610" target="_top" xlink:title="messages::print_ar_2">
<polygon fill="white" stroke="black" points="880,-426.5 880,-447.5 1017,-447.5 1017,-426.5 880,-426.5"/>
<text text-anchor="middle" x="948.5" y="-433.9" font-family="Ubuntu Mono" font-size="12.00">messages::print_ar_2</text>
</a>
</g>
</g>
<!-- Node42&#45;&gt;Node44 -->
<g id="edge3" class="edge"><title>Node42&#45;&gt;Node44</title>
<path fill="none" stroke="midnightblue" d="M805.145,-466.571C831.221,-461.155 861.147,-454.938 886.81,-449.607"/>
<polygon fill="midnightblue" stroke="midnightblue" points="887.706,-452.996 896.785,-447.535 886.282,-446.142 887.706,-452.996"/>
</g>
<!-- Node45 -->
<g id="node5" class="node"><title>Node45</title>
<g id="a_node5"><a xlink:href="namespacemessages.html#a5686118397930f505259225f3688216b" target="_top" xlink:title="messages::print_ar_1">
<polygon fill="white" stroke="black" points="1083,-426.5 1083,-447.5 1220,-447.5 1220,-426.5 1083,-426.5"/>
<text text-anchor="middle" x="1151.5" y="-433.9" font-family="Ubuntu Mono" font-size="12.00">messages::print_ar_1</text>
</a>
</g>
</g>
<!-- Node42&#45;&gt;Node45 -->
<g id="edge9" class="edge"><title>Node42&#45;&gt;Node45</title>
<path fill="none" stroke="midnightblue" d="M805.104,-476.85C865.492,-473.469 958.09,-467.167 1038,-457 1054.13,-454.947 1071.47,-452.158 1087.59,-449.315"/>
<polygon fill="midnightblue" stroke="midnightblue" points="1088.22,-452.757 1097.44,-447.543 1086.98,-445.868 1088.22,-452.757"/>
</g>
<!-- Node44&#45;&gt;Node45 -->
<g id="edge4" class="edge"><title>Node44&#45;&gt;Node45</title>
<path fill="none" stroke="midnightblue" d="M1017.27,-437C1035.06,-437 1054.39,-437 1072.66,-437"/>
<polygon fill="midnightblue" stroke="midnightblue" points="1072.68,-440.5 1082.68,-437 1072.68,-433.5 1072.68,-440.5"/>
</g>
<!-- Node45&#45;&gt;Node46 -->
<g id="edge5" class="edge"><title>Node45&#45;&gt;Node46</title>
<path fill="none" stroke="midnightblue" d="M1185.74,-426.467C1199.21,-422.112 1214.89,-416.935 1229,-412 1246.05,-406.039 1264.81,-399.098 1280.65,-393.125"/>
<polygon fill="midnightblue" stroke="midnightblue" points="1281.99,-396.363 1290.1,-389.548 1279.51,-389.816 1281.99,-396.363"/>
</g>
<!-- Node47 -->
<g id="node7" class="node"><title>Node47</title>
<g id="a_node7"><a xlink:href="namespacemessages.html#a82dddaab795b78b3d39e1ff1aab2f665" target="_top" xlink:title="messages::get_mem_usage">
<polygon fill="white" stroke="black" points="1408,-388.5 1408,-409.5 1563,-409.5 1563,-388.5 1408,-388.5"/>
<text text-anchor="middle" x="1485.5" y="-395.9" font-family="Ubuntu Mono" font-size="12.00">messages::get_mem_usage</text>
</a>
</g>
</g>
<!-- Node46&#45;&gt;Node47 -->
<g id="edge6" class="edge"><title>Node46&#45;&gt;Node47</title>
<path fill="none" stroke="midnightblue" d="M1372.16,-385.383C1380.45,-386.388 1389.21,-387.449 1398.03,-388.518"/>
<polygon fill="midnightblue" stroke="midnightblue" points="1397.64,-391.996 1407.98,-389.725 1398.48,-385.047 1397.64,-391.996"/>
</g>
<!-- Node48 -->
<g id="node8" class="node"><title>Node48</title>
<g id="a_node8"><a xlink:href="messages_8f90.html#a6d15f28783f95a7a4b2a44185619792f" target="_top" xlink:title="format_str">
<polygon fill="white" stroke="black" points="1447,-348.5 1447,-369.5 1524,-369.5 1524,-348.5 1447,-348.5"/>
<text text-anchor="middle" x="1485.5" y="-355.9" font-family="Ubuntu Mono" font-size="12.00">format_str</text>
</a>
</g>
</g>
<!-- Node46&#45;&gt;Node48 -->
<g id="edge7" class="edge"><title>Node46&#45;&gt;Node48</title>
<path fill="none" stroke="midnightblue" d="M1372.16,-372.617C1392.98,-370.094 1416.72,-367.216 1437,-364.757"/>
<polygon fill="midnightblue" stroke="midnightblue" points="1437.45,-368.229 1446.95,-363.551 1436.61,-361.28 1437.45,-368.229"/>
</g>
<!-- Node49 -->
<g id="node9" class="node"><title>Node49</title>
<g id="a_node9"><a xlink:href="namespacemessages.html#a61fd0b51b5e37d58fdc993c01792a3fd" target="_top" xlink:title="messages::get_clock">
<polygon fill="white" stroke="black" points="1599,-348.5 1599,-369.5 1730,-369.5 1730,-348.5 1599,-348.5"/>
<text text-anchor="middle" x="1664.5" y="-355.9" font-family="Ubuntu Mono" font-size="12.00">messages::get_clock</text>
</a>
</g>
</g>
<!-- Node48&#45;&gt;Node49 -->
<g id="edge8" class="edge"><title>Node48&#45;&gt;Node49</title>
<path fill="none" stroke="midnightblue" d="M1524.04,-359C1542.87,-359 1566.37,-359 1588.68,-359"/>
<polygon fill="midnightblue" stroke="midnightblue" points="1588.83,-362.5 1598.83,-359 1588.83,-355.5 1588.83,-362.5"/>
</g>
<!-- Node50&#45;&gt;Node46 -->
<g id="edge16" class="edge"><title>Node50&#45;&gt;Node46</title>
<path fill="none" stroke="midnightblue" d="M823.075,-151.823C953.684,-156.945 1196.53,-169.392 1229,-192 1286.12,-231.774 1307.47,-318.482 1314.48,-358.28"/>
<polygon fill="midnightblue" stroke="midnightblue" points="1311.03,-358.876 1316.09,-368.183 1317.94,-357.75 1311.03,-358.876"/>
</g>
<!-- Node51 -->
<g id="node11" class="node"><title>Node51</title>
<g id="a_node11"><a xlink:href="namespacestr__utilities.html#ac778d706b2e021672618939ab58fdd32" target="_top" xlink:title="str_utilities::r2strt">
<polygon fill="white" stroke="black" points="877,-993.5 877,-1014.5 1020,-1014.5 1020,-993.5 877,-993.5"/>
<text text-anchor="middle" x="948.5" y="-1000.9" font-family="Ubuntu Mono" font-size="12.00">str_utilities::r2strt</text>
</a>
</g>
</g>
<!-- Node50&#45;&gt;Node51 -->
<g id="edge11" class="edge"><title>Node50&#45;&gt;Node51</title>
<path fill="none" stroke="midnightblue" d="M747.44,-159.842C764.026,-186.399 805.858,-257.334 823,-323 882.522,-551.014 789.899,-626.704 859,-852 875.078,-904.422 912.144,-958.088 932.843,-985.461"/>
<polygon fill="midnightblue" stroke="midnightblue" points="930.07,-987.597 938.942,-993.389 935.619,-983.329 930.07,-987.597"/>
</g>
<!-- Node52 -->
<g id="node12" class="node"><title>Node52</title>
<g id="a_node12"><a xlink:href="namespacemessages.html#a2a1154de25763d4894275ff4307b6862" target="_top" xlink:title="messages::stop_time">
<polygon fill="white" stroke="black" points="1086,-78.5 1086,-99.5 1217,-99.5 1217,-78.5 1086,-78.5"/>
<text text-anchor="middle" x="1151.5" y="-85.9" font-family="Ubuntu Mono" font-size="12.00">messages::stop_time</text>
</a>
</g>
</g>
<!-- Node50&#45;&gt;Node52 -->
<g id="edge12" class="edge"><title>Node50&#45;&gt;Node52</title>
<path fill="none" stroke="midnightblue" d="M809.101,-138.488C825.45,-136.009 842.841,-133.391 859,-131 932.752,-120.086 1017.06,-107.979 1075.97,-99.5784"/>
<polygon fill="midnightblue" stroke="midnightblue" points="1076.53,-103.035 1085.93,-98.1587 1075.54,-96.1046 1076.53,-103.035"/>
</g>
<!-- Node53 -->
<g id="node13" class="node"><title>Node53</title>
<g id="a_node13"><a xlink:href="namespacemessages.html#ad997c3dff64c512e0070ce8816c28e7f" target="_top" xlink:title="messages::start_time">
<polygon fill="white" stroke="black" points="1083,-118.5 1083,-139.5 1220,-139.5 1220,-118.5 1083,-118.5"/>
<text text-anchor="middle" x="1151.5" y="-125.9" font-family="Ubuntu Mono" font-size="12.00">messages::start_time</text>
</a>
</g>
</g>
<!-- Node50&#45;&gt;Node53 -->
<g id="edge14" class="edge"><title>Node50&#45;&gt;Node53</title>
<path fill="none" stroke="midnightblue" d="M823.47,-144.953C896.286,-141.401 1001.4,-136.273 1072.65,-132.798"/>
<polygon fill="midnightblue" stroke="midnightblue" points="1073.09,-136.28 1082.91,-132.297 1072.75,-129.289 1073.09,-136.28"/>
</g>
<!-- Node52&#45;&gt;Node46 -->
<g id="edge13" class="edge"><title>Node52&#45;&gt;Node46</title>
<path fill="none" stroke="midnightblue" d="M1215.44,-99.652C1220.38,-102.163 1225,-105.238 1229,-109 1302.15,-177.818 1314.92,-307.955 1317.09,-358.345"/>
<polygon fill="midnightblue" stroke="midnightblue" points="1313.59,-358.47 1317.42,-368.349 1320.59,-358.239 1313.59,-358.47"/>
</g>
<!-- Node53&#45;&gt;Node46 -->
<g id="edge15" class="edge"><title>Node53&#45;&gt;Node46</title>
<path fill="none" stroke="midnightblue" d="M1205.67,-139.579C1214.21,-143.092 1222.39,-147.77 1229,-154 1289.41,-210.951 1309.3,-314.204 1315.22,-358.22"/>
<polygon fill="midnightblue" stroke="midnightblue" points="1311.77,-358.804 1316.47,-368.299 1318.72,-357.945 1311.77,-358.804"/>
</g>
<!-- Node54&#45;&gt;Node46 -->
<g id="edge21" class="edge"><title>Node54&#45;&gt;Node46</title>
<path fill="none" stroke="midnightblue" d="M1029.2,-47.6315C1100.84,-44.5429 1199.21,-45.1593 1229,-69 1275.38,-106.116 1305.69,-294.793 1314.69,-358.19"/>
<polygon fill="midnightblue" stroke="midnightblue" points="1311.24,-358.772 1316.08,-368.194 1318.17,-357.808 1311.24,-358.772"/>
</g>
<!-- Node54&#45;&gt;Node52 -->
<g id="edge18" class="edge"><title>Node54&#45;&gt;Node52</title>
<path fill="none" stroke="midnightblue" d="M1008.18,-63.5095C1031.19,-67.6317 1057.77,-72.3918 1081.68,-76.6745"/>
<polygon fill="midnightblue" stroke="midnightblue" points="1081.29,-80.1596 1091.75,-78.4775 1082.52,-73.2692 1081.29,-80.1596"/>
</g>
<!-- Node54&#45;&gt;Node53 -->
<g id="edge19" class="edge"><title>Node54&#45;&gt;Node53</title>
<path fill="none" stroke="midnightblue" d="M970.21,-63.6058C994.568,-75.7746 1036.45,-95.7516 1074,-109 1080.85,-111.418 1088.14,-113.691 1095.4,-115.776"/>
<polygon fill="midnightblue" stroke="midnightblue" points="1094.65,-119.201 1105.22,-118.498 1096.52,-112.455 1094.65,-119.201"/>
</g>
<!-- Node55 -->
<g id="node15" class="node"><title>Node55</title>
<g id="a_node15"><a xlink:href="namespacestr__utilities.html#a219964a283968cc6a968db0197d2187e" target="_top" xlink:title="str_utilities::strh2l">
<polygon fill="white" stroke="black" points="1080,-0.5 1080,-21.5 1223,-21.5 1223,-0.5 1080,-0.5"/>
<text text-anchor="middle" x="1151.5" y="-7.9" font-family="Ubuntu Mono" font-size="12.00">str_utilities::strh2l</text>
</a>
</g>
</g>
<!-- Node54&#45;&gt;Node55 -->
<g id="edge20" class="edge"><title>Node54&#45;&gt;Node55</title>
<path fill="none" stroke="midnightblue" d="M999.961,-42.4558C1027.32,-36.7392 1061.32,-29.6346 1090.08,-23.6246"/>
<polygon fill="midnightblue" stroke="midnightblue" points="1090.95,-27.02 1100.02,-21.5485 1089.51,-20.1679 1090.95,-27.02"/>
</g>
<!-- Node56&#45;&gt;Node43 -->
<g id="edge27" class="edge"><title>Node56&#45;&gt;Node43</title>
<path fill="none" stroke="midnightblue" d="M751.05,-898.297C784.478,-864.384 888.298,-759.06 929.949,-716.806"/>
<polygon fill="midnightblue" stroke="midnightblue" points="932.444,-719.26 936.971,-709.681 927.459,-714.346 932.444,-719.26"/>
</g>
<!-- Node56&#45;&gt;Node46 -->
<g id="edge24" class="edge"><title>Node56&#45;&gt;Node46</title>
<path fill="none" stroke="midnightblue" d="M814.068,-909.475C877.806,-906.66 970.184,-894.563 1038,-852 1214.34,-741.327 1293.16,-475.537 1312.57,-399.587"/>
<polygon fill="midnightblue" stroke="midnightblue" points="1315.98,-400.349 1315,-389.8 1309.19,-398.658 1315.98,-400.349"/>
</g>
<!-- Node56&#45;&gt;Node57 -->
<g id="edge25" class="edge"><title>Node56&#45;&gt;Node57</title>
<path fill="none" stroke="midnightblue" d="M780.415,-898.386C794.09,-894.361 809.374,-889.426 823,-884 839.619,-877.382 842.631,-873.216 859,-866 874.814,-859.028 892.544,-852.056 907.957,-846.256"/>
<polygon fill="midnightblue" stroke="midnightblue" points="909.558,-849.395 917.708,-842.626 907.116,-842.835 909.558,-849.395"/>
</g>
<!-- Node57&#45;&gt;Node46 -->
<g id="edge26" class="edge"><title>Node57&#45;&gt;Node46</title>
<path fill="none" stroke="midnightblue" d="M958.234,-821.249C1006.44,-761.904 1240.11,-474.261 1302.28,-397.734"/>
<polygon fill="midnightblue" stroke="midnightblue" points="1305.1,-399.82 1308.68,-389.851 1299.66,-395.406 1305.1,-399.82"/>
</g>
<!-- Node58&#45;&gt;Node43 -->
<g id="edge45" class="edge"><title>Node58&#45;&gt;Node43</title>
<path fill="none" stroke="midnightblue" d="M255.097,-519.728C275.304,-533.232 311.98,-556.421 346,-571 477.868,-627.512 515.569,-631.641 656,-661 727.78,-676.006 810.816,-686.139 869.858,-692.141"/>
<polygon fill="midnightblue" stroke="midnightblue" points="869.559,-695.628 879.857,-693.141 870.256,-688.663 869.559,-695.628"/>
</g>
<!-- Node58&#45;&gt;Node46 -->
<g id="edge44" class="edge"><title>Node58&#45;&gt;Node46</title>
<path fill="none" stroke="midnightblue" d="M240.517,-498.424C244.852,-459.694 265.432,-324.659 346,-263 415.992,-209.435 650.363,-206 738.5,-206 738.5,-206 738.5,-206 949.5,-206 1011.8,-206 1176.2,-194.926 1229,-228 1277.1,-258.129 1302.12,-324.678 1312.14,-358.462"/>
<polygon fill="midnightblue" stroke="midnightblue" points="1308.8,-359.511 1314.87,-368.191 1315.54,-357.617 1308.8,-359.511"/>
</g>
<!-- Node58&#45;&gt;Node50 -->
<g id="edge41" class="edge"><title>Node58&#45;&gt;Node50</title>
<path fill="none" stroke="midnightblue" d="M240.084,-498.399C242.97,-456.903 259.326,-304.148 346,-230 429.152,-158.865 558.274,-144.562 645.5,-144.11"/>
<polygon fill="midnightblue" stroke="midnightblue" points="645.655,-147.61 655.658,-144.119 645.661,-140.61 645.655,-147.61"/>
</g>
<!-- Node58&#45;&gt;Node54 -->
<g id="edge42" class="edge"><title>Node58&#45;&gt;Node54</title>
<path fill="none" stroke="midnightblue" d="M239.099,-498.416C237.916,-450.737 239.818,-254.135 346,-160 383.86,-126.435 699.447,-83.4616 857.717,-63.752"/>
<polygon fill="midnightblue" stroke="midnightblue" points="858.417,-67.1921 867.91,-62.4877 857.555,-60.2453 858.417,-67.1921"/>
</g>
<!-- Node59 -->
<g id="node19" class="node"><title>Node59</title>
<g id="a_node19"><a xlink:href="namespacegrid__utilities.html#a67001ff9bbcad707aacf17f90a748d90" target="_top" xlink:title="grid_utilities::trim_grid">
<polygon fill="white" stroke="black" points="865,-1073.5 865,-1094.5 1032,-1094.5 1032,-1073.5 865,-1073.5"/>
<text text-anchor="middle" x="948.5" y="-1080.9" font-family="Ubuntu Mono" font-size="12.00">grid_utilities::trim_grid</text>
</a>
</g>
</g>
<!-- Node58&#45;&gt;Node59 -->
<g id="edge30" class="edge"><title>Node58&#45;&gt;Node59</title>
<path fill="none" stroke="midnightblue" d="M240.015,-519.562C242.733,-564.771 258.821,-744.603 346,-853 472.575,-1010.38 719.794,-1060.67 854.529,-1076.64"/>
<polygon fill="midnightblue" stroke="midnightblue" points="854.493,-1080.16 864.827,-1077.82 855.29,-1073.21 854.493,-1080.16"/>
</g>
<!-- Node60 -->
<g id="node20" class="node"><title>Node60</title>
<g id="a_node20"><a xlink:href="namespaceslepc__utilities.html#ae6568f825f3fa8a6e3d45f67f3daf412" target="_top" xlink:title="slepc_utilities::insert\l_block_mat">
<polygon fill="white" stroke="black" points="662,-333 662,-367 817,-367 817,-333 662,-333"/>
<text text-anchor="start" x="670" y="-353.4" font-family="Ubuntu Mono" font-size="12.00">slepc_utilities::insert</text>
<text text-anchor="middle" x="739.5" y="-340.4" font-family="Ubuntu Mono" font-size="12.00">_block_mat</text>
</a>
</g>
</g>
<!-- Node58&#45;&gt;Node60 -->
<g id="edge31" class="edge"><title>Node58&#45;&gt;Node60</title>
<path fill="none" stroke="midnightblue" d="M262.744,-498.431C310.845,-476.887 425.159,-427.367 525,-397 565.999,-384.53 612.364,-373.917 651.387,-365.949"/>
<polygon fill="midnightblue" stroke="midnightblue" points="652.553,-369.284 661.663,-363.876 651.169,-362.422 652.553,-369.284"/>
</g>
<!-- Node63 -->
<g id="node23" class="node"><title>Node63</title>
<g id="a_node23"><a xlink:href="namespacenum__utilities.html#a5ee3fbd1fe67d0deefc7194631389f2a" target="_top" xlink:title="num_utilities::c">
<polygon fill="white" stroke="black" points="683,-630.5 683,-651.5 796,-651.5 796,-630.5 683,-630.5"/>
<text text-anchor="middle" x="739.5" y="-637.9" font-family="Ubuntu Mono" font-size="12.00">num_utilities::c</text>
</a>
</g>
</g>
<!-- Node58&#45;&gt;Node63 -->
<g id="edge43" class="edge"><title>Node58&#45;&gt;Node63</title>
<path fill="none" stroke="midnightblue" d="M279.492,-519.579C369.935,-543.504 590.002,-601.718 688.913,-627.883"/>
<polygon fill="midnightblue" stroke="midnightblue" points="688.102,-631.289 698.665,-630.462 689.892,-624.521 688.102,-631.289"/>
</g>
<!-- Node64 -->
<g id="node24" class="node"><title>Node64</title>
<g id="a_node24"><a xlink:href="SLEPC__ops_8f90.html#aad0c37f65f398c2aa88ea11b21eb2006" target="_top" xlink:title="set_bulk_lims">
<polygon fill="white" stroke="black" points="525,-670.5 525,-691.5 620,-691.5 620,-670.5 525,-670.5"/>
<text text-anchor="middle" x="572.5" y="-677.9" font-family="Ubuntu Mono" font-size="12.00">set_bulk_lims</text>
</a>
</g>
</g>
<!-- Node58&#45;&gt;Node64 -->
<g id="edge46" class="edge"><title>Node58&#45;&gt;Node64</title>
<path fill="none" stroke="midnightblue" d="M243.68,-519.895C255.122,-548.057 289.892,-623.342 346,-656 397.379,-685.905 466.554,-689.238 514.684,-686.936"/>
<polygon fill="midnightblue" stroke="midnightblue" points="515.142,-690.416 524.924,-686.347 514.739,-683.428 515.142,-690.416"/>
</g>
<!-- Node65 -->
<g id="node25" class="node"><title>Node65</title>
<g id="a_node25"><a xlink:href="SLEPC__ops_8f90.html#a2304e2ffd00378a9252c04507d5a1a7e" target="_top" xlink:title="fill_mat">
<polygon fill="white" stroke="black" points="385,-272.5 385,-293.5 450,-293.5 450,-272.5 385,-272.5"/>
<text text-anchor="middle" x="417.5" y="-279.9" font-family="Ubuntu Mono" font-size="12.00">fill_mat</text>
</a>
</g>
</g>
<!-- Node58&#45;&gt;Node65 -->
<g id="edge48" class="edge"><title>Node58&#45;&gt;Node65</title>
<path fill="none" stroke="midnightblue" d="M242.241,-498.076C251.179,-464.651 282.627,-362.71 346,-308 354.269,-300.862 364.715,-295.715 375.015,-292.022"/>
<polygon fill="midnightblue" stroke="midnightblue" points="376.308,-295.284 384.77,-288.91 374.18,-288.615 376.308,-295.284"/>
</g>
<!-- Node66 -->
<g id="node26" class="node"><title>Node66</title>
<g id="a_node26"><a xlink:href="SLEPC__ops_8f90.html#a1d58436fdcad8037090c9ce1e50a9ae1" target="_top" xlink:title="disp_mat_info">
<polygon fill="white" stroke="black" points="370,-498.5 370,-519.5 465,-519.5 465,-498.5 370,-498.5"/>
<text text-anchor="middle" x="417.5" y="-505.9" font-family="Ubuntu Mono" font-size="12.00">disp_mat_info</text>
</a>
</g>
</g>
<!-- Node58&#45;&gt;Node66 -->
<g id="edge50" class="edge"><title>Node58&#45;&gt;Node66</title>
<path fill="none" stroke="midnightblue" d="M310.218,-509C326.648,-509 343.931,-509 359.673,-509"/>
<polygon fill="midnightblue" stroke="midnightblue" points="359.771,-512.5 369.771,-509 359.771,-505.5 359.771,-512.5"/>
</g>
<!-- Node60&#45;&gt;Node43 -->
<g id="edge38" class="edge"><title>Node60&#45;&gt;Node43</title>
<path fill="none" stroke="midnightblue" d="M755.972,-367.026C773.493,-386.798 802.291,-420.828 823,-453 874.219,-532.572 920.58,-635.955 939.039,-678.916"/>
<polygon fill="midnightblue" stroke="midnightblue" points="935.882,-680.437 943.023,-688.263 942.322,-677.692 935.882,-680.437"/>
</g>
<!-- Node60&#45;&gt;Node44 -->
<g id="edge40" class="edge"><title>Node60&#45;&gt;Node44</title>
<path fill="none" stroke="midnightblue" d="M781.397,-367.188C819.737,-383.303 876.438,-407.133 912.673,-422.363"/>
<polygon fill="midnightblue" stroke="midnightblue" points="911.743,-425.768 922.318,-426.416 914.455,-419.315 911.743,-425.768"/>
</g>
<!-- Node60&#45;&gt;Node46 -->
<g id="edge37" class="edge"><title>Node60&#45;&gt;Node46</title>
<path fill="none" stroke="midnightblue" d="M817.121,-353.851C932.379,-359.644 1148.19,-370.49 1254.72,-375.845"/>
<polygon fill="midnightblue" stroke="midnightblue" points="1254.83,-379.355 1264.99,-376.361 1255.18,-372.363 1254.83,-379.355"/>
</g>
<!-- Node60&#45;&gt;Node57 -->
<g id="edge39" class="edge"><title>Node60&#45;&gt;Node57</title>
<path fill="none" stroke="midnightblue" d="M759.428,-367.314C778.864,-386.304 808.288,-418.675 823,-453 869.998,-562.652 812.601,-609.092 859,-719 875.156,-757.27 907.798,-793.615 928.605,-814.314"/>
<polygon fill="midnightblue" stroke="midnightblue" points="926.333,-816.987 935.941,-821.452 931.215,-811.97 926.333,-816.987"/>
</g>
<!-- Node61 -->
<g id="node21" class="node"><title>Node61</title>
<g id="a_node21"><a xlink:href="namespaceinput__utilities.html#a71bd36f063d55ab62c7a37864aef1185" target="_top" xlink:title="input_utilities::pause_prog">
<polygon fill="white" stroke="black" points="859,-234.5 859,-255.5 1038,-255.5 1038,-234.5 859,-234.5"/>
<text text-anchor="middle" x="948.5" y="-241.9" font-family="Ubuntu Mono" font-size="12.00">input_utilities::pause_prog</text>
</a>
</g>
</g>
<!-- Node60&#45;&gt;Node61 -->
<g id="edge32" class="edge"><title>Node60&#45;&gt;Node61</title>
<path fill="none" stroke="midnightblue" d="M774.219,-332.896C814.035,-312.7 879.64,-279.422 917.676,-260.128"/>
<polygon fill="midnightblue" stroke="midnightblue" points="919.385,-263.186 926.72,-255.541 916.218,-256.943 919.385,-263.186"/>
</g>
<!-- Node61&#45;&gt;Node46 -->
<g id="edge36" class="edge"><title>Node61&#45;&gt;Node46</title>
<path fill="none" stroke="midnightblue" d="M1015.53,-234.488C1074.97,-228.316 1162.88,-227.589 1229,-263 1268.6,-284.209 1295.81,-331.701 1308.79,-358.883"/>
<polygon fill="midnightblue" stroke="midnightblue" points="1305.71,-360.577 1313.06,-368.21 1312.07,-357.661 1305.71,-360.577"/>
</g>
<!-- Node61&#45;&gt;Node52 -->
<g id="edge34" class="edge"><title>Node61&#45;&gt;Node52</title>
<path fill="none" stroke="midnightblue" d="M956.144,-234.241C972.673,-208.411 1018.35,-142.555 1074,-109 1077.57,-106.847 1081.37,-104.923 1085.3,-103.205"/>
<polygon fill="midnightblue" stroke="midnightblue" points="1086.59,-106.456 1094.63,-99.5558 1084.04,-99.936 1086.59,-106.456"/>
</g>
<!-- Node61&#45;&gt;Node53 -->
<g id="edge35" class="edge"><title>Node61&#45;&gt;Node53</title>
<path fill="none" stroke="midnightblue" d="M968.049,-234.295C1003.74,-213.698 1082.09,-168.48 1123.55,-144.555"/>
<polygon fill="midnightblue" stroke="midnightblue" points="1125.37,-147.542 1132.29,-139.512 1121.88,-141.479 1125.37,-147.542"/>
</g>
<!-- Node62 -->
<g id="node22" class="node"><title>Node62</title>
<g id="a_node22"><a xlink:href="namespacempi__utilities.html#a790ea24d32dd0e249541c1e57cd85536" target="_top" xlink:title="mpi_utilities::wait_mpi">
<polygon fill="white" stroke="black" points="1074,-272.5 1074,-293.5 1229,-293.5 1229,-272.5 1074,-272.5"/>
<text text-anchor="middle" x="1151.5" y="-279.9" font-family="Ubuntu Mono" font-size="12.00">mpi_utilities::wait_mpi</text>
</a>
</g>
</g>
<!-- Node61&#45;&gt;Node62 -->
<g id="edge33" class="edge"><title>Node61&#45;&gt;Node62</title>
<path fill="none" stroke="midnightblue" d="M1005.22,-255.535C1029.84,-260.188 1058.96,-265.694 1084.64,-270.549"/>
<polygon fill="midnightblue" stroke="midnightblue" points="1084.19,-274.026 1094.67,-272.445 1085.49,-267.148 1084.19,-274.026"/>
</g>
<!-- Node64&#45;&gt;Node43 -->
<g id="edge47" class="edge"><title>Node64&#45;&gt;Node43</title>
<path fill="none" stroke="midnightblue" d="M620.046,-689.493C631.744,-691.308 644.299,-692.983 656,-694 728.186,-700.276 810.792,-701.096 869.592,-700.6"/>
<polygon fill="midnightblue" stroke="midnightblue" points="869.954,-704.097 879.918,-700.497 869.884,-697.097 869.954,-704.097"/>
</g>
<!-- Node65&#45;&gt;Node60 -->
<g id="edge49" class="edge"><title>Node65&#45;&gt;Node60</title>
<path fill="none" stroke="midnightblue" d="M450.041,-273.588C490.416,-263.121 562.071,-249.911 620,-268 656.157,-279.29 690.996,-305.909 713.428,-325.775"/>
<polygon fill="midnightblue" stroke="midnightblue" points="711.353,-328.618 721.11,-332.747 716.058,-323.435 711.353,-328.618"/>
</g>
<!-- Node66&#45;&gt;Node43 -->
<g id="edge57" class="edge"><title>Node66&#45;&gt;Node43</title>
<path fill="none" stroke="midnightblue" d="M465.068,-514.525C506.266,-520.017 567.775,-529.7 620,-544 713.069,-569.483 736.583,-578.065 823,-621 860.026,-639.396 900.078,-665.767 924.479,-682.639"/>
<polygon fill="midnightblue" stroke="midnightblue" points="922.523,-685.542 932.727,-688.393 926.528,-679.801 922.523,-685.542"/>
</g>
<!-- Node66&#45;&gt;Node46 -->
<g id="edge52" class="edge"><title>Node66&#45;&gt;Node46</title>
<path fill="none" stroke="midnightblue" d="M426.444,-498.419C453.6,-463.364 547.1,-351.632 656,-323 883.304,-263.238 1168.22,-334.218 1274.73,-365.571"/>
<polygon fill="midnightblue" stroke="midnightblue" points="1273.89,-368.972 1284.47,-368.475 1275.89,-362.264 1273.89,-368.972"/>
</g>
<!-- Node66&#45;&gt;Node51 -->
<g id="edge53" class="edge"><title>Node66&#45;&gt;Node51</title>
<path fill="none" stroke="midnightblue" d="M419.582,-519.736C426.418,-581.184 469.54,-889.657 656,-1007 689.802,-1028.27 792.72,-1022.17 866.685,-1014.37"/>
<polygon fill="midnightblue" stroke="midnightblue" points="867.355,-1017.82 876.92,-1013.26 866.601,-1010.86 867.355,-1017.82"/>
</g>
<!-- Node66&#45;&gt;Node57 -->
<g id="edge51" class="edge"><title>Node66&#45;&gt;Node57</title>
<path fill="none" stroke="midnightblue" d="M421.3,-519.549C430.407,-551.807 462.292,-650.03 525,-701 554.587,-725.049 792.529,-790.621 897.755,-818.82"/>
<polygon fill="midnightblue" stroke="midnightblue" points="896.948,-822.227 907.513,-821.43 898.757,-815.465 896.948,-822.227"/>
</g>
<!-- Node66&#45;&gt;Node60 -->
<g id="edge56" class="edge"><title>Node66&#45;&gt;Node60</title>
<path fill="none" stroke="midnightblue" d="M436.593,-498.347C475.804,-475.48 571.868,-420.639 656,-382 664.304,-378.186 673.204,-374.417 681.974,-370.877"/>
<polygon fill="midnightblue" stroke="midnightblue" points="683.4,-374.077 691.404,-367.136 680.818,-367.57 683.4,-374.077"/>
</g>
<!-- Node66&#45;&gt;Node62 -->
<g id="edge54" class="edge"><title>Node66&#45;&gt;Node62</title>
<path fill="none" stroke="midnightblue" d="M422.75,-498.142C434.605,-469.168 470.763,-389.158 525,-344 573.396,-303.705 594.313,-302.67 656,-290 796.465,-261.15 964.123,-266.964 1063.71,-274.492"/>
<polygon fill="midnightblue" stroke="midnightblue" points="1063.48,-277.985 1073.72,-275.272 1064.02,-271.006 1063.48,-277.985"/>
</g>
<!-- Node66&#45;&gt;Node63 -->
<g id="edge55" class="edge"><title>Node66&#45;&gt;Node63</title>
<path fill="none" stroke="midnightblue" d="M451.718,-519.565C492.601,-533.189 563.539,-558.873 620,-590 637.284,-599.529 638.314,-607.24 656,-616 664.851,-620.384 674.622,-624.169 684.251,-627.373"/>
<polygon fill="midnightblue" stroke="midnightblue" points="683.202,-630.712 693.792,-630.383 685.308,-624.036 683.202,-630.712"/>
</g>
<!-- Node67 -->
<g id="node27" class="node"><title>Node67</title>
<g id="a_node27"><a xlink:href="SLEPC__ops_8f90.html#abdaf8a38000d4b3d52de078affcd853d" target="_top" xlink:title="set_bc_1">
<polygon fill="white" stroke="black" points="540,-478.5 540,-499.5 605,-499.5 605,-478.5 540,-478.5"/>
<text text-anchor="middle" x="572.5" y="-485.9" font-family="Ubuntu Mono" font-size="12.00">set_bc_1</text>
</a>
</g>
</g>
<!-- Node66&#45;&gt;Node67 -->
<g id="edge58" class="edge"><title>Node66&#45;&gt;Node67</title>
<path fill="none" stroke="midnightblue" d="M465.236,-502.891C485.741,-500.21 509.626,-497.088 529.552,-494.483"/>
<polygon fill="midnightblue" stroke="midnightblue" points="530.11,-497.94 539.572,-493.174 529.202,-490.999 530.11,-497.94"/>
</g>
<!-- Node67&#45;&gt;Node43 -->
<g id="edge60" class="edge"><title>Node67&#45;&gt;Node43</title>
<path fill="none" stroke="midnightblue" d="M605.136,-495.577C668.055,-508.826 804.456,-538.444 823,-550 876.411,-583.282 918.132,-647.261 936.808,-679.466"/>
<polygon fill="midnightblue" stroke="midnightblue" points="933.878,-681.395 941.852,-688.371 939.969,-677.945 933.878,-681.395"/>
</g>
<!-- Node67&#45;&gt;Node44 -->
<g id="edge63" class="edge"><title>Node67&#45;&gt;Node44</title>
<path fill="none" stroke="midnightblue" d="M592.49,-478.38C608.789,-469.845 633.193,-458.416 656,-453 727.089,-436.119 810.552,-433.176 869.909,-433.827"/>
<polygon fill="midnightblue" stroke="midnightblue" points="869.911,-437.328 879.962,-433.974 870.014,-430.328 869.911,-437.328"/>
</g>
<!-- Node67&#45;&gt;Node46 -->
<g id="edge59" class="edge"><title>Node67&#45;&gt;Node46</title>
<path fill="none" stroke="midnightblue" d="M584.393,-478.372C599.205,-464.672 627.172,-441.38 656,-431 683.906,-420.952 1095.15,-393.41 1254.8,-383.029"/>
<polygon fill="midnightblue" stroke="midnightblue" points="1255.19,-386.511 1264.94,-382.371 1254.74,-379.526 1255.19,-386.511"/>
</g>
<!-- Node67&#45;&gt;Node57 -->
<g id="edge64" class="edge"><title>Node67&#45;&gt;Node57</title>
<path fill="none" stroke="midnightblue" d="M588.304,-499.616C604.514,-511.019 631.475,-529.338 656,-543 727.564,-582.866 767.585,-560.668 823,-621 854.389,-655.174 836.42,-678.463 859,-719 879.322,-755.483 910.964,-792.627 930.396,-813.931"/>
<polygon fill="midnightblue" stroke="midnightblue" points="927.838,-816.319 937.197,-821.286 932.978,-811.567 927.838,-816.319"/>
</g>
<!-- Node67&#45;&gt;Node60 -->
<g id="edge61" class="edge"><title>Node67&#45;&gt;Node60</title>
<path fill="none" stroke="midnightblue" d="M594.343,-478.414C603.107,-473.184 612.895,-466.223 620,-458 644.436,-429.719 628.633,-407.455 656,-382 660.007,-378.273 664.497,-374.963 669.257,-372.027"/>
<polygon fill="midnightblue" stroke="midnightblue" points="671.026,-375.048 678.072,-367.136 667.63,-368.927 671.026,-375.048"/>
</g>
<!-- Node67&#45;&gt;Node63 -->
<g id="edge62" class="edge"><title>Node67&#45;&gt;Node63</title>
<path fill="none" stroke="midnightblue" d="M582.362,-499.691C596.917,-516.979 627.157,-551.784 656,-578 674.738,-595.032 697.76,-612.346 714.718,-624.502"/>
<polygon fill="midnightblue" stroke="midnightblue" points="712.797,-627.43 722.979,-630.359 716.846,-621.72 712.797,-627.43"/>
</g>
<!-- Node68 -->
<g id="node28" class="node"><title>Node68</title>
<g id="a_node28"><a xlink:href="namespacestr__utilities.html#a92ac6c0af1979df094de1caddd28ade0" target="_top" xlink:title="str_utilities::r2str">
<polygon fill="white" stroke="black" points="880,-1033.5 880,-1054.5 1017,-1054.5 1017,-1033.5 880,-1033.5"/>
<text text-anchor="middle" x="948.5" y="-1040.9" font-family="Ubuntu Mono" font-size="12.00">str_utilities::r2str</text>
</a>
</g>
</g>
<!-- Node67&#45;&gt;Node68 -->
<g id="edge65" class="edge"><title>Node67&#45;&gt;Node68</title>
<path fill="none" stroke="midnightblue" d="M577.048,-499.728C585.785,-526.575 608.463,-598.96 620,-661 634.133,-737.001 601.958,-951.724 656,-1007 715.108,-1067.46 819.866,-1065.14 886.387,-1055.99"/>
<polygon fill="midnightblue" stroke="midnightblue" points="886.932,-1059.45 896.318,-1054.54 885.917,-1052.52 886.932,-1059.45"/>
</g>
<!-- Node69&#45;&gt;Node46 -->
<g id="edge67" class="edge"><title>Node69&#45;&gt;Node46</title>
<path fill="none" stroke="midnightblue" d="M274.501,-1231.59C334.629,-1248.81 461.676,-1281 571.5,-1281 571.5,-1281 571.5,-1281 949.5,-1281 1101.73,-1281 1159.86,-1218.63 1229,-1083 1292.36,-958.707 1312.88,-503.222 1316.77,-399.927"/>
<polygon fill="midnightblue" stroke="midnightblue" points="1320.27,-399.953 1317.14,-389.831 1313.28,-399.697 1320.27,-399.953"/>
</g>
<!-- Node70&#45;&gt;Node43 -->
<g id="edge73" class="edge"><title>Node70&#45;&gt;Node43</title>
<path fill="none" stroke="midnightblue" d="M763.281,-976.331C781.893,-966.508 807.564,-950.247 823,-929 854.977,-884.983 833.806,-860.221 859,-812 878.338,-774.986 910.285,-738.007 930.044,-716.879"/>
<polygon fill="midnightblue" stroke="midnightblue" points="932.618,-719.252 936.969,-709.591 927.543,-714.43 932.618,-719.252"/>
</g>
<!-- Node70&#45;&gt;Node46 -->
<g id="edge71" class="edge"><title>Node70&#45;&gt;Node46</title>
<path fill="none" stroke="midnightblue" d="M814.013,-984.971C943.03,-980.703 1199.41,-968.797 1229,-941 1309.5,-865.362 1316.89,-492.878 1317.47,-400.006"/>
<polygon fill="midnightblue" stroke="midnightblue" points="1320.97,-399.901 1317.52,-389.886 1313.97,-399.871 1320.97,-399.901"/>
</g>
<!-- Node70&#45;&gt;Node51 -->
<g id="edge72" class="edge"><title>Node70&#45;&gt;Node51</title>
<path fill="none" stroke="midnightblue" d="M814.063,-993.041C831.16,-994.446 849.45,-995.948 866.834,-997.375"/>
<polygon fill="midnightblue" stroke="midnightblue" points="866.697,-1000.88 876.95,-998.206 867.27,-993.899 866.697,-1000.88"/>
</g>
<!-- Node70&#45;&gt;Node57 -->
<g id="edge70" class="edge"><title>Node70&#45;&gt;Node57</title>
<path fill="none" stroke="midnightblue" d="M756.172,-976.321C772.889,-964.852 800.064,-945.982 823,-929 859.837,-901.726 901.691,-868.68 926.277,-849.049"/>
<polygon fill="midnightblue" stroke="midnightblue" points="928.595,-851.677 934.217,-842.697 924.222,-846.211 928.595,-851.677"/>
</g>
<!-- Node71&#45;&gt;Node43 -->
<g id="edge77" class="edge"><title>Node71&#45;&gt;Node43</title>
<path fill="none" stroke="midnightblue" d="M749.062,-1130.27C766.018,-1108.44 803.874,-1056.72 823,-1007 854.64,-924.744 822.784,-892.346 859,-812 876.07,-774.129 908.436,-737.664 928.939,-716.832"/>
<polygon fill="midnightblue" stroke="midnightblue" points="931.542,-719.179 936.159,-709.643 926.603,-714.218 931.542,-719.179"/>
</g>
<!-- Node71&#45;&gt;Node46 -->
<g id="edge81" class="edge"><title>Node71&#45;&gt;Node46</title>
<path fill="none" stroke="midnightblue" d="M761.412,-1151.51C811.541,-1175.15 941.554,-1227.19 1038,-1184 1154.35,-1131.89 1174.85,-1085.41 1229,-970 1278.28,-864.958 1309.01,-492.314 1315.98,-399.87"/>
<polygon fill="midnightblue" stroke="midnightblue" points="1319.48,-400.037 1316.73,-389.805 1312.5,-399.517 1319.48,-400.037"/>
</g>
<!-- Node71&#45;&gt;Node51 -->
<g id="edge80" class="edge"><title>Node71&#45;&gt;Node51</title>
<path fill="none" stroke="midnightblue" d="M757.623,-1130.37C775.297,-1118.87 803.029,-1099.3 823,-1078 842.731,-1056.96 835.235,-1040.35 859,-1024 861.878,-1022.02 864.92,-1020.23 868.079,-1018.62"/>
<polygon fill="midnightblue" stroke="midnightblue" points="869.542,-1021.8 877.242,-1014.52 866.684,-1015.41 869.542,-1021.8"/>
</g>
<!-- Node71&#45;&gt;Node57 -->
<g id="edge76" class="edge"><title>Node71&#45;&gt;Node57</title>
<path fill="none" stroke="midnightblue" d="M747.625,-1130.36C777.857,-1085.24 895.752,-909.248 934.834,-850.907"/>
<polygon fill="midnightblue" stroke="midnightblue" points="937.747,-852.848 940.405,-842.592 931.931,-848.952 937.747,-852.848"/>
</g>
<!-- Node71&#45;&gt;Node59 -->
<g id="edge75" class="edge"><title>Node71&#45;&gt;Node59</title>
<path fill="none" stroke="midnightblue" d="M776.302,-1130.38C790.824,-1126.02 807.74,-1120.85 823,-1116 839.072,-1110.89 842.755,-1108.53 859,-1104 867.914,-1101.51 877.398,-1099.12 886.72,-1096.9"/>
<polygon fill="midnightblue" stroke="midnightblue" points="887.793,-1100.24 896.738,-1094.56 886.204,-1093.42 887.793,-1100.24"/>
</g>
<!-- Node71&#45;&gt;Node68 -->
<g id="edge78" class="edge"><title>Node71&#45;&gt;Node68</title>
<path fill="none" stroke="midnightblue" d="M753.478,-1130.32C774.386,-1113.65 817.406,-1081.55 859,-1064 864.905,-1061.51 871.169,-1059.3 877.528,-1057.36"/>
<polygon fill="midnightblue" stroke="midnightblue" points="878.898,-1060.61 887.561,-1054.51 876.985,-1053.87 878.898,-1060.61"/>
</g>
<!-- Node72 -->
<g id="node32" class="node"><title>Node72</title>
<g id="a_node32"><a xlink:href="SLEPC__ops_8f90.html#a3200b53f49d7eeb22c2625ac965f9f7c" target="_top" xlink:title="remove_ev">
<polygon fill="white" stroke="black" points="913,-1153.5 913,-1174.5 984,-1174.5 984,-1153.5 913,-1153.5"/>
<text text-anchor="middle" x="948.5" y="-1160.9" font-family="Ubuntu Mono" font-size="12.00">remove_ev</text>
</a>
</g>
</g>
<!-- Node71&#45;&gt;Node72 -->
<g id="edge79" class="edge"><title>Node71&#45;&gt;Node72</title>
<path fill="none" stroke="midnightblue" d="M820.236,-1149.86C848.213,-1152.97 878.639,-1156.35 902.725,-1159.02"/>
<polygon fill="midnightblue" stroke="midnightblue" points="902.647,-1162.54 912.972,-1160.16 903.42,-1155.58 902.647,-1162.54"/>
</g>
<!-- Node73 -->
<g id="node33" class="node"><title>Node73</title>
<g id="a_node33"><a xlink:href="namespacestr__utilities.html#abca28d6272d447dc1c0c100624c6ed75" target="_top" xlink:title="str_utilities::c2strt">
<polygon fill="white" stroke="black" points="877,-1113.5 877,-1134.5 1020,-1134.5 1020,-1113.5 877,-1113.5"/>
<text text-anchor="middle" x="948.5" y="-1120.9" font-family="Ubuntu Mono" font-size="12.00">str_utilities::c2strt</text>
</a>
</g>
</g>
<!-- Node71&#45;&gt;Node73 -->
<g id="edge82" class="edge"><title>Node71&#45;&gt;Node73</title>
<path fill="none" stroke="midnightblue" d="M820.236,-1134.45C835.558,-1133.19 851.614,-1131.87 866.961,-1130.61"/>
<polygon fill="midnightblue" stroke="midnightblue" points="867.249,-1134.1 876.929,-1129.8 866.676,-1127.13 867.249,-1134.1"/>
</g>
<!-- Node74 -->
<g id="node34" class="node"><title>Node74</title>
<g id="a_node34"><a xlink:href="namespacestr__utilities.html#a308e943e5e244e3e0f852f2ecb3e3183" target="_top" xlink:title="str_utilities::c2str">
<polygon fill="white" stroke="black" points="880,-1231.5 880,-1252.5 1017,-1252.5 1017,-1231.5 880,-1231.5"/>
<text text-anchor="middle" x="948.5" y="-1238.9" font-family="Ubuntu Mono" font-size="12.00">str_utilities::c2str</text>
</a>
</g>
</g>
<!-- Node71&#45;&gt;Node74 -->
<g id="edge83" class="edge"><title>Node71&#45;&gt;Node74</title>
<path fill="none" stroke="midnightblue" d="M753.962,-1151.54C775.184,-1167.7 818.212,-1198.65 859,-1217 868.921,-1221.46 879.831,-1225.32 890.5,-1228.58"/>
<polygon fill="midnightblue" stroke="midnightblue" points="889.616,-1231.97 900.196,-1231.41 891.574,-1225.25 889.616,-1231.97"/>
</g>
<!-- Node75&#45;&gt;Node57 -->
<g id="edge85" class="edge"><title>Node75&#45;&gt;Node57</title>
<path fill="none" stroke="midnightblue" d="M489.021,-832.867C591.852,-832.672 781.567,-832.314 881.675,-832.124"/>
<polygon fill="midnightblue" stroke="midnightblue" points="881.966,-835.624 891.959,-832.105 881.953,-828.624 881.966,-835.624"/>
</g>
</g>
</svg>
