<?xml version="1.0" encoding="UTF-8" standalone="no"?>
<!DOCTYPE svg PUBLIC "-//W3C//DTD SVG 1.1//EN"
 "http://www.w3.org/Graphics/SVG/1.1/DTD/svg11.dtd">
<!-- Generated by graphviz version 2.38.0 (20140413.2041)
 -->
<!-- Title: x_ops::resonance_plot Pages: 1 -->
<svg width="1040pt" height="601pt"
 viewBox="0.00 0.00 1040.00 601.38" xmlns="http://www.w3.org/2000/svg" xmlns:xlink="http://www.w3.org/1999/xlink">
<g id="graph0" class="graph" transform="scale(1 1) rotate(0) translate(4 597.378)">
<title>x_ops::resonance_plot</title>
<polygon fill="white" stroke="none" points="-4,4 -4,-597.378 1036,-597.378 1036,4 -4,4"/>
<!-- Node113 -->
<g id="node1" class="node"><title>Node113</title>
<polygon fill="#bfbfbf" stroke="black" points="0,-316.378 0,-337.378 143,-337.378 143,-316.378 0,-316.378"/>
<text text-anchor="middle" x="71.5" y="-323.778" font-family="Ubuntu Mono" font-size="12.00">x_ops::resonance_plot</text>
</g>
<!-- Node114 -->
<g id="node2" class="node"><title>Node114</title>
<g id="a_node2"><a xlink:href="namespacegrid__utilities.html#a39e7cd9b8f173994358dbdd6b57827e1" target="_top" xlink:title="Calculates , &#160;and &#160;on a grid grid_XYZ, determined through its E(quilibrium) coordinates. ">
<polygon fill="white" stroke="black" points="179,-558.878 179,-592.878 316,-592.878 316,-558.878 179,-558.878"/>
<text text-anchor="start" x="187" y="-579.278" font-family="Ubuntu Mono" font-size="12.00">grid_utilities::calc</text>
<text text-anchor="middle" x="247.5" y="-566.278" font-family="Ubuntu Mono" font-size="12.00">_xyz_grid</text>
</a>
</g>
</g>
<!-- Node113&#45;&gt;Node114 -->
<g id="edge1" class="edge"><title>Node113&#45;&gt;Node114</title>
<path fill="none" stroke="midnightblue" d="M74.9967,-337.391C83.6008,-371.545 115.067,-480.806 179,-543.878 182.508,-547.339 186.462,-550.478 190.653,-553.314"/>
<polygon fill="midnightblue" stroke="midnightblue" points="189.157,-556.501 199.518,-558.715 192.799,-550.523 189.157,-556.501"/>
</g>
<!-- Node115 -->
<g id="node3" class="node"><title>Node115</title>
<g id="a_node3"><a xlink:href="namespacegrid__utilities.html#a67001ff9bbcad707aacf17f90a748d90" target="_top" xlink:title="Trim a grid, removing any overlap between the different regions. ">
<polygon fill="white" stroke="black" points="352,-520.378 352,-541.378 519,-541.378 519,-520.378 352,-520.378"/>
<text text-anchor="middle" x="435.5" y="-527.778" font-family="Ubuntu Mono" font-size="12.00">grid_utilities::trim_grid</text>
</a>
</g>
</g>
<!-- Node113&#45;&gt;Node115 -->
<g id="edge2" class="edge"><title>Node113&#45;&gt;Node115</title>
<path fill="none" stroke="midnightblue" d="M75.2449,-337.735C84.007,-369.897 114.592,-464.974 179,-505.878 226.794,-536.231 290.067,-542.616 341.69,-541.346"/>
<polygon fill="midnightblue" stroke="midnightblue" points="341.978,-544.839 351.851,-540.995 341.736,-537.843 341.978,-544.839"/>
</g>
<!-- Node116 -->
<g id="node4" class="node"><title>Node116</title>
<g id="a_node4"><a xlink:href="namespacevmec__utilities.html#ac699116fc25fdea3e28e488513d97c87" target="_top" xlink:title="Calculate the trigonometric cosine and sine factors. ">
<polygon fill="white" stroke="black" points="179,-275.878 179,-309.878 316,-309.878 316,-275.878 179,-275.878"/>
<text text-anchor="start" x="187" y="-296.278" font-family="Ubuntu Mono" font-size="12.00">vmec_utilities::calc</text>
<text text-anchor="middle" x="247.5" y="-283.278" font-family="Ubuntu Mono" font-size="12.00">_trigon_factors</text>
</a>
</g>
</g>
<!-- Node113&#45;&gt;Node116 -->
<g id="edge3" class="edge"><title>Node113&#45;&gt;Node116</title>
<path fill="none" stroke="midnightblue" d="M126.601,-316.307C140.056,-313.677 154.743,-310.808 169.078,-308.006"/>
<polygon fill="midnightblue" stroke="midnightblue" points="169.784,-311.435 178.927,-306.082 168.442,-304.565 169.784,-311.435"/>
</g>
<!-- Node117 -->
<g id="node5" class="node"><title>Node117</title>
<g id="a_node5"><a xlink:href="namespacemessages.html#aa4a8d01563e92558e8a0875b075ec54c" target="_top" xlink:title="Write output to file identified by output_i. ">
<polygon fill="white" stroke="black" points="734,-275.378 734,-296.378 841,-296.378 841,-275.378 734,-275.378"/>
<text text-anchor="middle" x="787.5" y="-282.778" font-family="Ubuntu Mono" font-size="12.00">messages::writo</text>
</a>
</g>
</g>
<!-- Node113&#45;&gt;Node117 -->
<g id="edge8" class="edge"><title>Node113&#45;&gt;Node117</title>
<path fill="none" stroke="midnightblue" d="M86.6502,-337.389C126.087,-365.948 241.602,-444.658 352,-471.878 426.653,-490.285 633.035,-514.006 698,-472.878 757.085,-435.473 777.487,-346.802 783.87,-306.478"/>
<polygon fill="midnightblue" stroke="midnightblue" points="787.35,-306.868 785.319,-296.47 780.422,-305.865 787.35,-306.868"/>
</g>
<!-- Node120 -->
<g id="node8" class="node"><title>Node120</title>
<g id="a_node8"><a xlink:href="namespacestr__utilities.html#a0b97e51770725a3e98ed393d26681414" target="_top" xlink:title="Convert an integer to string. ">
<polygon fill="white" stroke="black" points="367,-236.378 367,-257.378 504,-257.378 504,-236.378 367,-236.378"/>
<text text-anchor="middle" x="435.5" y="-243.778" font-family="Ubuntu Mono" font-size="12.00">str_utilities::i2str</text>
</a>
</g>
</g>
<!-- Node113&#45;&gt;Node120 -->
<g id="edge21" class="edge"><title>Node113&#45;&gt;Node120</title>
<path fill="none" stroke="midnightblue" d="M86.3641,-316.192C105.832,-301.855 142.939,-276.922 179,-265.878 236.815,-248.172 305.272,-243.912 356.768,-243.812"/>
<polygon fill="midnightblue" stroke="midnightblue" points="356.821,-247.312 366.832,-243.844 356.844,-240.312 356.821,-247.312"/>
</g>
<!-- Node121 -->
<g id="node9" class="node"><title>Node121</title>
<g id="a_node9"><a xlink:href="namespacemessages.html#a6e6bfb084063e4cc91ee86e542043302" target="_top" xlink:title="Increases/decreases lvl of output. ">
<polygon fill="white" stroke="black" points="570,-197.378 570,-218.378 683,-218.378 683,-197.378 570,-197.378"/>
<text text-anchor="middle" x="626.5" y="-204.778" font-family="Ubuntu Mono" font-size="12.00">messages::lvl_ud</text>
</a>
</g>
</g>
<!-- Node113&#45;&gt;Node121 -->
<g id="edge9" class="edge"><title>Node113&#45;&gt;Node121</title>
<path fill="none" stroke="midnightblue" d="M81.4584,-316.317C98.3103,-297.301 136.847,-257.716 179,-240.878 306.367,-190.002 470.278,-193.582 559.847,-200.719"/>
<polygon fill="midnightblue" stroke="midnightblue" points="559.609,-204.212 569.866,-201.558 560.192,-197.236 559.609,-204.212"/>
</g>
<!-- Node122 -->
<g id="node10" class="node"><title>Node122</title>
<g id="a_node10"><a xlink:href="namespacex__ops.html#a1a90026bbbeddc25e82cfdd304df251f" target="_top" xlink:title="Calculates resonating flux surfaces for the perturbation modes. ">
<polygon fill="white" stroke="black" points="179,-351.378 179,-372.378 316,-372.378 316,-351.378 179,-351.378"/>
<text text-anchor="middle" x="247.5" y="-358.778" font-family="Ubuntu Mono" font-size="12.00">x_ops::calc_res_surf</text>
</a>
</g>
</g>
<!-- Node113&#45;&gt;Node122 -->
<g id="edge11" class="edge"><title>Node113&#45;&gt;Node122</title>
<path fill="none" stroke="midnightblue" d="M124.706,-337.379C143.374,-341.134 164.602,-345.404 184.047,-349.316"/>
<polygon fill="midnightblue" stroke="midnightblue" points="183.537,-352.783 194.031,-351.324 184.917,-345.921 183.537,-352.783"/>
</g>
<!-- Node126 -->
<g id="node14" class="node"><title>Node126</title>
<g id="a_node14"><a xlink:href="namespaceoutput__ops.html#a50bfbb88cc91805469353c3ff47b3e2e" target="_top" xlink:title="Use external program to draw a plot. ">
<polygon fill="white" stroke="black" points="182,-121.378 182,-142.378 313,-142.378 313,-121.378 182,-121.378"/>
<text text-anchor="middle" x="247.5" y="-128.778" font-family="Ubuntu Mono" font-size="12.00">output_ops::draw_ex</text>
</a>
</g>
</g>
<!-- Node113&#45;&gt;Node126 -->
<g id="edge22" class="edge"><title>Node113&#45;&gt;Node126</title>
<path fill="none" stroke="midnightblue" d="M80.2651,-316.081C97.1712,-292.831 139.011,-236.672 179,-193.878 193.845,-177.992 212.073,-161.401 225.843,-149.384"/>
<polygon fill="midnightblue" stroke="midnightblue" points="228.489,-151.723 233.771,-142.539 223.915,-146.425 228.489,-151.723"/>
</g>
<!-- Node116&#45;&gt;Node117 -->
<g id="edge4" class="edge"><title>Node116&#45;&gt;Node117</title>
<path fill="none" stroke="midnightblue" d="M316.093,-291.999C421.003,-290.634 621.544,-288.024 723.549,-286.697"/>
<polygon fill="midnightblue" stroke="midnightblue" points="723.749,-290.195 733.703,-286.565 723.658,-283.196 723.749,-290.195"/>
</g>
<!-- Node116&#45;&gt;Node120 -->
<g id="edge7" class="edge"><title>Node116&#45;&gt;Node120</title>
<path fill="none" stroke="midnightblue" d="M316.176,-276.141C337.957,-270.754 361.743,-264.872 382.239,-259.803"/>
<polygon fill="midnightblue" stroke="midnightblue" points="383.146,-263.184 392.014,-257.386 381.466,-256.389 383.146,-263.184"/>
</g>
<!-- Node118 -->
<g id="node6" class="node"><title>Node118</title>
<g id="a_node6"><a xlink:href="namespacemessages.html#a82dddaab795b78b3d39e1ff1aab2f665" target="_top" xlink:title="Returns the memory usage in kilobytes. ">
<polygon fill="white" stroke="black" points="877,-295.378 877,-316.378 1032,-316.378 1032,-295.378 877,-295.378"/>
<text text-anchor="middle" x="954.5" y="-302.778" font-family="Ubuntu Mono" font-size="12.00">messages::get_mem_usage</text>
</a>
</g>
</g>
<!-- Node117&#45;&gt;Node118 -->
<g id="edge5" class="edge"><title>Node117&#45;&gt;Node118</title>
<path fill="none" stroke="midnightblue" d="M841.161,-292.261C849.452,-293.266 858.208,-294.328 867.025,-295.396"/>
<polygon fill="midnightblue" stroke="midnightblue" points="866.635,-298.875 876.984,-296.603 867.478,-291.925 866.635,-298.875"/>
</g>
<!-- Node119 -->
<g id="node7" class="node"><title>Node119</title>
<g id="a_node7"><a xlink:href="namespacemessages.html#a61fd0b51b5e37d58fdc993c01792a3fd" target="_top" xlink:title="Returns the time. ">
<polygon fill="white" stroke="black" points="889,-255.378 889,-276.378 1020,-276.378 1020,-255.378 889,-255.378"/>
<text text-anchor="middle" x="954.5" y="-262.778" font-family="Ubuntu Mono" font-size="12.00">messages::get_clock</text>
</a>
</g>
</g>
<!-- Node117&#45;&gt;Node119 -->
<g id="edge6" class="edge"><title>Node117&#45;&gt;Node119</title>
<path fill="none" stroke="midnightblue" d="M841.161,-279.495C853.142,-278.043 866.094,-276.473 878.797,-274.933"/>
<polygon fill="midnightblue" stroke="midnightblue" points="879.402,-278.385 888.908,-273.707 878.56,-271.436 879.402,-278.385"/>
</g>
<!-- Node121&#45;&gt;Node117 -->
<g id="edge10" class="edge"><title>Node121&#45;&gt;Node117</title>
<path fill="none" stroke="midnightblue" d="M648.943,-218.398C676.445,-231.889 724.326,-255.378 755.717,-270.777"/>
<polygon fill="midnightblue" stroke="midnightblue" points="754.369,-274.014 764.888,-275.276 757.452,-267.73 754.369,-274.014"/>
</g>
<!-- Node122&#45;&gt;Node115 -->
<g id="edge16" class="edge"><title>Node122&#45;&gt;Node115</title>
<path fill="none" stroke="midnightblue" d="M257.297,-372.533C274.419,-392.964 313.897,-438.572 352,-471.878 370.01,-487.621 392.136,-503.269 408.94,-514.491"/>
<polygon fill="midnightblue" stroke="midnightblue" points="407.391,-517.662 417.667,-520.242 411.243,-511.817 407.391,-517.662"/>
</g>
<!-- Node122&#45;&gt;Node117 -->
<g id="edge17" class="edge"><title>Node122&#45;&gt;Node117</title>
<path fill="none" stroke="midnightblue" d="M316.077,-354.274C404.188,-344.069 562.995,-324.685 698,-302.878 706.529,-301.501 715.496,-299.926 724.315,-298.304"/>
<polygon fill="midnightblue" stroke="midnightblue" points="724.992,-301.738 734.178,-296.461 723.706,-294.858 724.992,-301.738"/>
</g>
<!-- Node122&#45;&gt;Node120 -->
<g id="edge18" class="edge"><title>Node122&#45;&gt;Node120</title>
<path fill="none" stroke="midnightblue" d="M265.665,-351.265C298.469,-330.983 370.223,-286.619 408.78,-262.78"/>
<polygon fill="midnightblue" stroke="midnightblue" points="410.711,-265.701 417.376,-257.465 407.03,-259.747 410.711,-265.701"/>
</g>
<!-- Node122&#45;&gt;Node121 -->
<g id="edge19" class="edge"><title>Node122&#45;&gt;Node121</title>
<path fill="none" stroke="midnightblue" d="M284.692,-351.298C337.294,-335.446 437.488,-303.458 519,-266.878 547.558,-254.063 578.713,-236.331 599.905,-223.66"/>
<polygon fill="midnightblue" stroke="midnightblue" points="601.866,-226.564 608.618,-218.399 598.248,-220.571 601.866,-226.564"/>
</g>
<!-- Node123 -->
<g id="node11" class="node"><title>Node123</title>
<g id="a_node11"><a xlink:href="namespacenum__ops.html#adcc4eacf15c931744316a004f4448b90" target="_top" xlink:title="Finds the zero of a function using Zhang&#39;s method, which is simpler than Brent&#39;s method. ">
<polygon fill="white" stroke="black" points="373,-428.878 373,-462.878 498,-462.878 498,-428.878 373,-428.878"/>
<text text-anchor="start" x="381" y="-449.278" font-family="Ubuntu Mono" font-size="12.00">num_ops::calc_zero</text>
<text text-anchor="middle" x="435.5" y="-436.278" font-family="Ubuntu Mono" font-size="12.00">_zhang</text>
</a>
</g>
</g>
<!-- Node122&#45;&gt;Node123 -->
<g id="edge12" class="edge"><title>Node122&#45;&gt;Node123</title>
<path fill="none" stroke="midnightblue" d="M268.073,-372.416C288.687,-383.348 322.225,-400.66 352,-413.878 360.65,-417.718 369.914,-421.563 378.995,-425.188"/>
<polygon fill="midnightblue" stroke="midnightblue" points="377.773,-428.468 388.36,-428.876 380.338,-421.955 377.773,-428.468"/>
</g>
<!-- Node124 -->
<g id="node12" class="node"><title>Node124</title>
<g id="a_node12"><a xlink:href="namespacestr__utilities.html#a92ac6c0af1979df094de1caddd28ade0" target="_top" xlink:title="Convert a real (double) to string. ">
<polygon fill="white" stroke="black" points="558,-364.378 558,-385.378 695,-385.378 695,-364.378 558,-364.378"/>
<text text-anchor="middle" x="626.5" y="-371.778" font-family="Ubuntu Mono" font-size="12.00">str_utilities::r2str</text>
</a>
</g>
</g>
<!-- Node122&#45;&gt;Node124 -->
<g id="edge20" class="edge"><title>Node122&#45;&gt;Node124</title>
<path fill="none" stroke="midnightblue" d="M316.011,-372.341C327.972,-373.814 340.331,-375.092 352,-375.878 417.871,-380.313 492.867,-379.636 547.646,-378.091"/>
<polygon fill="midnightblue" stroke="midnightblue" points="548.086,-381.579 557.977,-377.782 547.877,-374.582 548.086,-381.579"/>
</g>
<!-- Node123&#45;&gt;Node117 -->
<g id="edge13" class="edge"><title>Node123&#45;&gt;Node117</title>
<path fill="none" stroke="midnightblue" d="M498.232,-438.766C564.602,-430.264 665.036,-414.67 698,-394.878 734.345,-373.056 762.152,-330.578 776.248,-305.581"/>
<polygon fill="midnightblue" stroke="midnightblue" points="779.409,-307.095 781.125,-296.64 773.264,-303.743 779.409,-307.095"/>
</g>
<!-- Node123&#45;&gt;Node124 -->
<g id="edge14" class="edge"><title>Node123&#45;&gt;Node124</title>
<path fill="none" stroke="midnightblue" d="M480.603,-428.78C493.022,-423.963 506.541,-418.717 519,-413.878 535.003,-407.663 538.908,-405.859 555,-399.878 564.86,-396.214 575.538,-392.365 585.53,-388.816"/>
<polygon fill="midnightblue" stroke="midnightblue" points="586.976,-392.018 595.237,-385.385 584.643,-385.418 586.976,-392.018"/>
</g>
<!-- Node125 -->
<g id="node13" class="node"><title>Node125</title>
<g id="a_node13"><a xlink:href="namespacestr__utilities.html#ac778d706b2e021672618939ab58fdd32" target="_top" xlink:title="Convert a real (double) to string. ">
<polygon fill="white" stroke="black" points="555,-442.378 555,-463.378 698,-463.378 698,-442.378 555,-442.378"/>
<text text-anchor="middle" x="626.5" y="-449.778" font-family="Ubuntu Mono" font-size="12.00">str_utilities::r2strt</text>
</a>
</g>
</g>
<!-- Node123&#45;&gt;Node125 -->
<g id="edge15" class="edge"><title>Node123&#45;&gt;Node125</title>
<path fill="none" stroke="midnightblue" d="M498.124,-448.161C512.97,-448.71 529.052,-449.306 544.629,-449.883"/>
<polygon fill="midnightblue" stroke="midnightblue" points="544.652,-453.386 554.775,-450.259 544.911,-446.391 544.652,-453.386"/>
</g>
<!-- Node126&#45;&gt;Node117 -->
<g id="edge24" class="edge"><title>Node126&#45;&gt;Node117</title>
<path fill="none" stroke="midnightblue" d="M254.2,-121.099C267.523,-97.2253 303.301,-40.3124 352,-18.8781 419.933,11.0221 447.133,-0.328369 519,-18.8781 607.028,-41.5992 634.373,-52.9424 698,-117.878 741.095,-161.86 768.417,-231.097 780.041,-265.322"/>
<polygon fill="midnightblue" stroke="midnightblue" points="776.816,-266.719 783.263,-275.127 783.466,-264.534 776.816,-266.719"/>
</g>
<!-- Node126&#45;&gt;Node120 -->
<g id="edge23" class="edge"><title>Node126&#45;&gt;Node120</title>
<path fill="none" stroke="midnightblue" d="M265.665,-142.491C298.469,-162.773 370.223,-207.137 408.78,-230.976"/>
<polygon fill="midnightblue" stroke="midnightblue" points="407.03,-234.009 417.376,-236.291 410.711,-228.055 407.03,-234.009"/>
</g>
<!-- Node126&#45;&gt;Node121 -->
<g id="edge29" class="edge"><title>Node126&#45;&gt;Node121</title>
<path fill="none" stroke="midnightblue" d="M313.074,-131.048C368.627,-131.875 450.414,-136.796 519,-155.878 548.051,-163.961 578.744,-179.831 599.677,-191.924"/>
<polygon fill="midnightblue" stroke="midnightblue" points="598.177,-195.102 608.567,-197.172 601.735,-189.075 598.177,-195.102"/>
</g>
<!-- Node126&#45;&gt;Node124 -->
<g id="edge30" class="edge"><title>Node126&#45;&gt;Node124</title>
<path fill="none" stroke="midnightblue" d="M287.427,-142.42C352.875,-160.651 481.489,-198.81 519,-226.878 565.884,-261.96 600.619,-323.617 616.283,-355.127"/>
<polygon fill="midnightblue" stroke="midnightblue" points="613.181,-356.752 620.69,-364.226 619.481,-353.7 613.181,-356.752"/>
</g>
<!-- Node127 -->
<g id="node15" class="node"><title>Node127</title>
<g id="a_node15"><a xlink:href="namespacefiles__utilities.html#ac6066df405564ba2f5e3c4bba726c1f8" target="_top" xlink:title="Search for available new unit. ">
<polygon fill="white" stroke="black" points="352,-28.3781 352,-49.3781 519,-49.3781 519,-28.3781 352,-28.3781"/>
<text text-anchor="middle" x="435.5" y="-35.7781" font-family="Ubuntu Mono" font-size="12.00">files_utilities::nextunit</text>
</a>
</g>
</g>
<!-- Node126&#45;&gt;Node127 -->
<g id="edge25" class="edge"><title>Node126&#45;&gt;Node127</title>
<path fill="none" stroke="midnightblue" d="M260.31,-121.251C278.62,-105.336 315.558,-75.4175 352,-58.8781 357.33,-56.4589 362.993,-54.3089 368.755,-52.4029"/>
<polygon fill="midnightblue" stroke="midnightblue" points="369.969,-55.692 378.508,-49.421 367.922,-48.9979 369.969,-55.692"/>
</g>
<!-- Node128 -->
<g id="node16" class="node"><title>Node128</title>
<g id="a_node16"><a xlink:href="namespaceoutput__ops.html#aa9e4855511b6ea16a08b3efb587bec51" target="_top" xlink:title="Executes command line, or displays a message if disabled. ">
<polygon fill="white" stroke="black" points="358,-68.8781 358,-102.878 513,-102.878 513,-68.8781 358,-68.8781"/>
<text text-anchor="start" x="366" y="-89.2781" font-family="Ubuntu Mono" font-size="12.00">output_ops::use_execute</text>
<text text-anchor="middle" x="435.5" y="-76.2781" font-family="Ubuntu Mono" font-size="12.00">_command_line</text>
</a>
</g>
</g>
<!-- Node126&#45;&gt;Node128 -->
<g id="edge26" class="edge"><title>Node126&#45;&gt;Node128</title>
<path fill="none" stroke="midnightblue" d="M291.172,-121.325C310.325,-116.588 333.553,-110.844 355.683,-105.37"/>
<polygon fill="midnightblue" stroke="midnightblue" points="356.552,-108.761 365.419,-102.963 354.871,-101.966 356.552,-108.761"/>
</g>
<!-- Node128&#45;&gt;Node117 -->
<g id="edge27" class="edge"><title>Node128&#45;&gt;Node117</title>
<path fill="none" stroke="midnightblue" d="M504.322,-102.905C559.724,-118.941 638.342,-146.704 698,-187.878 729.697,-209.755 757.906,-245.123 773.553,-266.854"/>
<polygon fill="midnightblue" stroke="midnightblue" points="770.847,-269.09 779.464,-275.253 776.571,-265.061 770.847,-269.09"/>
</g>
<!-- Node128&#45;&gt;Node121 -->
<g id="edge28" class="edge"><title>Node128&#45;&gt;Node121</title>
<path fill="none" stroke="midnightblue" d="M488.353,-102.956C498.802,-107.229 509.489,-112.231 519,-117.878 553.546,-138.39 588.062,-170.134 608.067,-189.924"/>
<polygon fill="midnightblue" stroke="midnightblue" points="605.696,-192.504 615.232,-197.119 610.656,-187.564 605.696,-192.504"/>
</g>
</g>
</svg>
