<?xml version="1.0" encoding="UTF-8" standalone="no"?>
<!DOCTYPE svg PUBLIC "-//W3C//DTD SVG 1.1//EN"
 "http://www.w3.org/Graphics/SVG/1.1/DTD/svg11.dtd">
<!-- Generated by graphviz version 2.38.0 (20140413.2041)
 -->
<!-- Title: x_ops::setup_modes Pages: 1 -->
<svg width="1022pt" height="345pt"
 viewBox="0.00 0.00 1022.00 345.13" xmlns="http://www.w3.org/2000/svg" xmlns:xlink="http://www.w3.org/1999/xlink">
<g id="graph0" class="graph" transform="scale(1 1) rotate(0) translate(4 341.132)">
<title>x_ops::setup_modes</title>
<polygon fill="white" stroke="none" points="-4,4 -4,-341.132 1018,-341.132 1018,4 -4,4"/>
<!-- Node134 -->
<g id="node1" class="node"><title>Node134</title>
<polygon fill="#bfbfbf" stroke="black" points="0,-238.632 0,-259.632 125,-259.632 125,-238.632 0,-238.632"/>
<text text-anchor="middle" x="62.5" y="-246.032" font-family="Ubuntu Mono" font-size="12.00">x_ops::setup_modes</text>
</g>
<!-- Node135 -->
<g id="node2" class="node"><title>Node135</title>
<g id="a_node2"><a xlink:href="namespacegrid__utilities.html#a67001ff9bbcad707aacf17f90a748d90" target="_top" xlink:title="Trim a grid, removing any overlap between the different regions. ">
<polygon fill="white" stroke="black" points="161,-315.632 161,-336.632 328,-336.632 328,-315.632 161,-315.632"/>
<text text-anchor="middle" x="244.5" y="-323.032" font-family="Ubuntu Mono" font-size="12.00">grid_utilities::trim_grid</text>
</a>
</g>
</g>
<!-- Node134&#45;&gt;Node135 -->
<g id="edge1" class="edge"><title>Node134&#45;&gt;Node135</title>
<path fill="none" stroke="midnightblue" d="M80.961,-259.794C100.089,-271.15 131.926,-289.109 161,-301.132 171.271,-305.379 182.526,-309.266 193.329,-312.644"/>
<polygon fill="midnightblue" stroke="midnightblue" points="192.498,-316.049 203.083,-315.599 194.527,-309.35 192.498,-316.049"/>
</g>
<!-- Node136 -->
<g id="node3" class="node"><title>Node136</title>
<g id="a_node3"><a xlink:href="namespacemessages.html#aa4a8d01563e92558e8a0875b075ec54c" target="_top" xlink:title="Write output to file identified by output_i. ">
<polygon fill="white" stroke="black" points="716,-88.6316 716,-109.632 823,-109.632 823,-88.6316 716,-88.6316"/>
<text text-anchor="middle" x="769.5" y="-96.0316" font-family="Ubuntu Mono" font-size="12.00">messages::writo</text>
</a>
</g>
</g>
<!-- Node134&#45;&gt;Node136 -->
<g id="edge2" class="edge"><title>Node134&#45;&gt;Node136</title>
<path fill="none" stroke="midnightblue" d="M103.038,-259.641C120.643,-263.802 141.716,-268.078 161,-270.132 324.621,-287.553 375.094,-309.749 531,-257.132 622.174,-226.361 711.765,-151.279 749.653,-116.877"/>
<polygon fill="midnightblue" stroke="midnightblue" points="752.349,-119.152 757.34,-109.806 747.611,-114 752.349,-119.152"/>
</g>
<!-- Node139 -->
<g id="node6" class="node"><title>Node139</title>
<g id="a_node6"><a xlink:href="namespacemessages.html#a6e6bfb084063e4cc91ee86e542043302" target="_top" xlink:title="Increases/decreases lvl of output. ">
<polygon fill="white" stroke="black" points="567,-99.6316 567,-120.632 680,-120.632 680,-99.6316 567,-99.6316"/>
<text text-anchor="middle" x="623.5" y="-107.032" font-family="Ubuntu Mono" font-size="12.00">messages::lvl_ud</text>
</a>
</g>
</g>
<!-- Node134&#45;&gt;Node139 -->
<g id="edge5" class="edge"><title>Node134&#45;&gt;Node139</title>
<path fill="none" stroke="midnightblue" d="M125.304,-253.007C235.821,-258.898 462.191,-265.953 531,-230.132 572.807,-208.367 601.043,-157.929 614.135,-129.867"/>
<polygon fill="midnightblue" stroke="midnightblue" points="617.376,-131.192 618.27,-120.635 610.987,-128.331 617.376,-131.192"/>
</g>
<!-- Node140 -->
<g id="node7" class="node"><title>Node140</title>
<g id="a_node7"><a xlink:href="namespacestr__utilities.html#a0b97e51770725a3e98ed393d26681414" target="_top" xlink:title="Convert an integer to string. ">
<polygon fill="white" stroke="black" points="379,-199.632 379,-220.632 516,-220.632 516,-199.632 379,-199.632"/>
<text text-anchor="middle" x="447.5" y="-207.032" font-family="Ubuntu Mono" font-size="12.00">str_utilities::i2str</text>
</a>
</g>
</g>
<!-- Node134&#45;&gt;Node140 -->
<g id="edge7" class="edge"><title>Node134&#45;&gt;Node140</title>
<path fill="none" stroke="midnightblue" d="M125.066,-239.765C136.973,-238.103 149.363,-236.475 161,-235.132 231.174,-227.027 311.324,-220.223 368.802,-215.769"/>
<polygon fill="midnightblue" stroke="midnightblue" points="369.2,-219.249 378.902,-214.993 368.663,-212.269 369.2,-219.249"/>
</g>
<!-- Node141 -->
<g id="node8" class="node"><title>Node141</title>
<g id="a_node8"><a xlink:href="namespaceoutput__ops.html#a50bfbb88cc91805469353c3ff47b3e2e" target="_top" xlink:title="Use external program to draw a plot. ">
<polygon fill="white" stroke="black" points="179,-120.632 179,-141.632 310,-141.632 310,-120.632 179,-120.632"/>
<text text-anchor="middle" x="244.5" y="-128.032" font-family="Ubuntu Mono" font-size="12.00">output_ops::draw_ex</text>
</a>
</g>
</g>
<!-- Node134&#45;&gt;Node141 -->
<g id="edge8" class="edge"><title>Node134&#45;&gt;Node141</title>
<path fill="none" stroke="midnightblue" d="M79.7913,-238.452C111.384,-217.741 181.152,-172.004 218.595,-147.458"/>
<polygon fill="midnightblue" stroke="midnightblue" points="220.931,-150.112 227.375,-141.702 217.093,-144.258 220.931,-150.112"/>
</g>
<!-- Node137 -->
<g id="node4" class="node"><title>Node137</title>
<g id="a_node4"><a xlink:href="namespacemessages.html#a82dddaab795b78b3d39e1ff1aab2f665" target="_top" xlink:title="Returns the memory usage in kilobytes. ">
<polygon fill="white" stroke="black" points="859,-108.632 859,-129.632 1014,-129.632 1014,-108.632 859,-108.632"/>
<text text-anchor="middle" x="936.5" y="-116.032" font-family="Ubuntu Mono" font-size="12.00">messages::get_mem_usage</text>
</a>
</g>
</g>
<!-- Node136&#45;&gt;Node137 -->
<g id="edge3" class="edge"><title>Node136&#45;&gt;Node137</title>
<path fill="none" stroke="midnightblue" d="M823.161,-105.515C831.452,-106.52 840.208,-107.581 849.025,-108.65"/>
<polygon fill="midnightblue" stroke="midnightblue" points="848.635,-112.128 858.984,-109.857 849.478,-105.179 848.635,-112.128"/>
</g>
<!-- Node138 -->
<g id="node5" class="node"><title>Node138</title>
<g id="a_node5"><a xlink:href="namespacemessages.html#a61fd0b51b5e37d58fdc993c01792a3fd" target="_top" xlink:title="Returns the time. ">
<polygon fill="white" stroke="black" points="871,-68.6316 871,-89.6316 1002,-89.6316 1002,-68.6316 871,-68.6316"/>
<text text-anchor="middle" x="936.5" y="-76.0316" font-family="Ubuntu Mono" font-size="12.00">messages::get_clock</text>
</a>
</g>
</g>
<!-- Node136&#45;&gt;Node138 -->
<g id="edge4" class="edge"><title>Node136&#45;&gt;Node138</title>
<path fill="none" stroke="midnightblue" d="M823.161,-92.7485C835.142,-91.2962 848.094,-89.7262 860.797,-88.1865"/>
<polygon fill="midnightblue" stroke="midnightblue" points="861.402,-91.6389 870.908,-86.9609 860.56,-84.6897 861.402,-91.6389"/>
</g>
<!-- Node139&#45;&gt;Node136 -->
<g id="edge6" class="edge"><title>Node139&#45;&gt;Node136</title>
<path fill="none" stroke="midnightblue" d="M680.174,-105.879C688.502,-105.243 697.137,-104.583 705.601,-103.936"/>
<polygon fill="midnightblue" stroke="midnightblue" points="706.105,-107.408 715.809,-103.157 705.571,-100.429 706.105,-107.408"/>
</g>
<!-- Node141&#45;&gt;Node136 -->
<g id="edge10" class="edge"><title>Node141&#45;&gt;Node136</title>
<path fill="none" stroke="midnightblue" d="M252.453,-120.309C268.581,-96.3465 311.218,-39.2635 364,-18.1316 499.3,36.0379 675.087,-47.0903 741.505,-83.4699"/>
<polygon fill="midnightblue" stroke="midnightblue" points="740.054,-86.6678 750.493,-88.4763 743.46,-80.5525 740.054,-86.6678"/>
</g>
<!-- Node141&#45;&gt;Node139 -->
<g id="edge15" class="edge"><title>Node141&#45;&gt;Node139</title>
<path fill="none" stroke="midnightblue" d="M310.309,-127.522C379.094,-123.69 487.221,-117.667 556.468,-113.81"/>
<polygon fill="midnightblue" stroke="midnightblue" points="557.025,-117.284 566.815,-113.233 556.635,-110.295 557.025,-117.284"/>
</g>
<!-- Node141&#45;&gt;Node140 -->
<g id="edge9" class="edge"><title>Node141&#45;&gt;Node140</title>
<path fill="none" stroke="midnightblue" d="M263.408,-141.643C286.138,-154.606 326.866,-176.581 364,-190.132 370.853,-192.632 378.141,-194.914 385.438,-196.967"/>
<polygon fill="midnightblue" stroke="midnightblue" points="384.79,-200.417 395.356,-199.625 386.603,-193.656 384.79,-200.417"/>
</g>
<!-- Node142 -->
<g id="node9" class="node"><title>Node142</title>
<g id="a_node9"><a xlink:href="namespacefiles__utilities.html#ac6066df405564ba2f5e3c4bba726c1f8" target="_top" xlink:title="Search for available new unit. ">
<polygon fill="white" stroke="black" points="364,-159.632 364,-180.632 531,-180.632 531,-159.632 364,-159.632"/>
<text text-anchor="middle" x="447.5" y="-167.032" font-family="Ubuntu Mono" font-size="12.00">files_utilities::nextunit</text>
</a>
</g>
</g>
<!-- Node141&#45;&gt;Node142 -->
<g id="edge11" class="edge"><title>Node141&#45;&gt;Node142</title>
<path fill="none" stroke="midnightblue" d="M299.629,-141.634C325.095,-146.575 355.65,-152.504 382.28,-157.671"/>
<polygon fill="midnightblue" stroke="midnightblue" points="381.791,-161.141 392.275,-159.61 383.124,-154.269 381.791,-161.141"/>
</g>
<!-- Node143 -->
<g id="node10" class="node"><title>Node143</title>
<g id="a_node10"><a xlink:href="namespaceoutput__ops.html#aa9e4855511b6ea16a08b3efb587bec51" target="_top" xlink:title="Executes command line, or displays a message if disabled. ">
<polygon fill="white" stroke="black" points="370,-28.1316 370,-62.1316 525,-62.1316 525,-28.1316 370,-28.1316"/>
<text text-anchor="start" x="378" y="-48.5316" font-family="Ubuntu Mono" font-size="12.00">output_ops::use_execute</text>
<text text-anchor="middle" x="447.5" y="-35.5316" font-family="Ubuntu Mono" font-size="12.00">_command_line</text>
</a>
</g>
</g>
<!-- Node141&#45;&gt;Node143 -->
<g id="edge12" class="edge"><title>Node141&#45;&gt;Node143</title>
<path fill="none" stroke="midnightblue" d="M264.805,-120.426C287.932,-107.859 328.064,-86.8663 364,-72.1316 369.449,-69.8973 375.157,-67.7161 380.917,-65.6236"/>
<polygon fill="midnightblue" stroke="midnightblue" points="382.364,-68.8248 390.626,-62.1925 380.031,-62.2248 382.364,-68.8248"/>
</g>
<!-- Node144 -->
<g id="node11" class="node"><title>Node144</title>
<g id="a_node11"><a xlink:href="namespacestr__utilities.html#a92ac6c0af1979df094de1caddd28ade0" target="_top" xlink:title="Convert a real (double) to string. ">
<polygon fill="white" stroke="black" points="379,-81.6316 379,-102.632 516,-102.632 516,-81.6316 379,-81.6316"/>
<text text-anchor="middle" x="447.5" y="-89.0316" font-family="Ubuntu Mono" font-size="12.00">str_utilities::r2str</text>
</a>
</g>
</g>
<!-- Node141&#45;&gt;Node144 -->
<g id="edge16" class="edge"><title>Node141&#45;&gt;Node144</title>
<path fill="none" stroke="midnightblue" d="M299.629,-120.629C325.095,-115.688 355.65,-109.759 382.28,-104.592"/>
<polygon fill="midnightblue" stroke="midnightblue" points="383.124,-107.994 392.275,-102.653 381.791,-101.122 383.124,-107.994"/>
</g>
<!-- Node143&#45;&gt;Node136 -->
<g id="edge13" class="edge"><title>Node143&#45;&gt;Node136</title>
<path fill="none" stroke="midnightblue" d="M525.148,-58.0659C580.445,-67.3973 654.17,-79.8384 705.929,-88.5728"/>
<polygon fill="midnightblue" stroke="midnightblue" points="705.533,-92.0554 715.976,-90.2682 706.698,-85.1529 705.533,-92.0554"/>
</g>
<!-- Node143&#45;&gt;Node139 -->
<g id="edge14" class="edge"><title>Node143&#45;&gt;Node139</title>
<path fill="none" stroke="midnightblue" d="M502.848,-62.2561C512.278,-65.4159 521.956,-68.7794 531,-72.1316 550.415,-79.3278 571.802,-88.1583 589.014,-95.4952"/>
<polygon fill="midnightblue" stroke="midnightblue" points="588.05,-98.89 598.62,-99.6187 590.811,-92.4577 588.05,-98.89"/>
</g>
</g>
</svg>
