<?xml version="1.0" encoding="UTF-8" standalone="no"?>
<!DOCTYPE svg PUBLIC "-//W3C//DTD SVG 1.1//EN"
 "http://www.w3.org/Graphics/SVG/1.1/DTD/svg11.dtd">
<!-- Generated by graphviz version 2.38.0 (20140413.2041)
 -->
<!-- Title: pb3d_ops::reconstruct_pb3d_x_1 Pages: 1 -->
<svg width="634pt" height="161pt"
 viewBox="0.00 0.00 634.00 161.00" xmlns="http://www.w3.org/2000/svg" xmlns:xlink="http://www.w3.org/1999/xlink">
<g id="graph0" class="graph" transform="scale(1 1) rotate(0) translate(4 157)">
<title>pb3d_ops::reconstruct_pb3d_x_1</title>
<polygon fill="white" stroke="none" points="-4,4 -4,-157 630,-157 630,4 -4,4"/>
<!-- Node206 -->
<g id="node1" class="node"><title>Node206</title>
<polygon fill="#bfbfbf" stroke="black" points="0,-64 0,-98 143,-98 143,-64 0,-64"/>
<text text-anchor="start" x="8" y="-84.4" font-family="Ubuntu Mono" font-size="12.00">pb3d_ops::reconstruct</text>
<text text-anchor="middle" x="71.5" y="-71.4" font-family="Ubuntu Mono" font-size="12.00">_pb3d_x_1</text>
</g>
<!-- Node207 -->
<g id="node2" class="node"><title>Node207</title>
<g id="a_node2"><a xlink:href="namespacedriver__post.html#af527706d4e696d4e507443d2f74194ef" target="_top" xlink:title="Initializes the POST driver. ">
<polygon fill="white" stroke="black" points="382,-131.5 382,-152.5 531,-152.5 531,-131.5 382,-131.5"/>
<text text-anchor="middle" x="456.5" y="-138.9" font-family="Ubuntu Mono" font-size="12.00">driver_post::init_post</text>
</a>
</g>
</g>
<!-- Node206&#45;&gt;Node207 -->
<g id="edge1" class="edge"><title>Node206&#45;&gt;Node207</title>
<path fill="none" stroke="midnightblue" d="M152.937,-99.9201C161.711,-101.747 170.528,-103.482 179,-105 247.409,-117.26 326.005,-127.402 381.872,-133.947"/>
<polygon fill="midnightblue" stroke="midnightblue" points="153.58,-96.4786 143.071,-97.8253 152.126,-103.326 153.58,-96.4786"/>
</g>
<!-- Node209 -->
<g id="node4" class="node"><title>Node209</title>
<g id="a_node4"><a xlink:href="namespacedriver__post.html#a33b3c6f9018a0ddc92dce77394b8ab37" target="_top" xlink:title="The main driver routine for postprocessing. ">
<polygon fill="white" stroke="black" points="364,-91.5 364,-112.5 549,-112.5 549,-91.5 364,-91.5"/>
<text text-anchor="middle" x="456.5" y="-98.9" font-family="Ubuntu Mono" font-size="12.00">driver_post::run_driver_post</text>
</a>
</g>
</g>
<!-- Node206&#45;&gt;Node209 -->
<g id="edge3" class="edge"><title>Node206&#45;&gt;Node209</title>
<path fill="none" stroke="midnightblue" d="M153.257,-85.4279C214.851,-88.8051 299.732,-93.4592 363.865,-96.9756"/>
<polygon fill="midnightblue" stroke="midnightblue" points="153.371,-81.929 143.194,-84.8762 152.988,-88.9185 153.371,-81.929"/>
</g>
<!-- Node210 -->
<g id="node5" class="node"><title>Node210</title>
<g id="a_node5"><a xlink:href="namespacedriver__x.html#ada3d72a0929daaa5e3da585246d62281" target="_top" xlink:title="Main driver of PB3D perturbation part. ">
<polygon fill="white" stroke="black" points="179,-0.5 179,-21.5 328,-21.5 328,-0.5 179,-0.5"/>
<text text-anchor="middle" x="253.5" y="-7.9" font-family="Ubuntu Mono" font-size="12.00">driver_x::run_driver_x</text>
</a>
</g>
</g>
<!-- Node206&#45;&gt;Node210 -->
<g id="edge5" class="edge"><title>Node206&#45;&gt;Node210</title>
<path fill="none" stroke="midnightblue" d="M114.127,-59.4056C133.513,-49.8852 157.088,-39.0559 179,-31 188.557,-27.4863 199.015,-24.2769 208.966,-21.5067"/>
<polygon fill="midnightblue" stroke="midnightblue" points="112.37,-56.3706 104.973,-63.9562 115.486,-62.6389 112.37,-56.3706"/>
</g>
<!-- Node212 -->
<g id="node7" class="node"><title>Node212</title>
<g id="a_node7"><a xlink:href="namespacetest.html#ac574f08ba400cd61070a6a6f13f6f7ee" target="_top" xlink:title="Tests reading of HDF5 subset. ">
<polygon fill="white" stroke="black" points="185,-41 185,-75 322,-75 322,-41 185,-41"/>
<text text-anchor="start" x="193" y="-61.4" font-family="Ubuntu Mono" font-size="12.00">test::test_read_hdf5</text>
<text text-anchor="middle" x="253.5" y="-48.4" font-family="Ubuntu Mono" font-size="12.00">_subset</text>
</a>
</g>
</g>
<!-- Node206&#45;&gt;Node212 -->
<g id="edge7" class="edge"><title>Node206&#45;&gt;Node212</title>
<path fill="none" stroke="midnightblue" d="M153.162,-70.6931C163.708,-69.3457 174.426,-67.9761 184.729,-66.6596"/>
<polygon fill="midnightblue" stroke="midnightblue" points="152.6,-67.2365 143.124,-71.9758 153.487,-74.18 152.6,-67.2365"/>
</g>
<!-- Node208 -->
<g id="node3" class="node"><title>Node208</title>
<g id="a_node3"><a xlink:href="POST_8f90.html#ac289b64ac4671fea0b4f2298ba1188a1" target="_top" xlink:title="Peeling Ballooning in 3D: postprocessing. ">
<polygon fill="white" stroke="black" points="585,-91.5 585,-112.5 626,-112.5 626,-91.5 585,-91.5"/>
<text text-anchor="middle" x="605.5" y="-98.9" font-family="Ubuntu Mono" font-size="12.00">post</text>
</a>
</g>
</g>
<!-- Node207&#45;&gt;Node208 -->
<g id="edge2" class="edge"><title>Node207&#45;&gt;Node208</title>
<path fill="none" stroke="midnightblue" d="M521.49,-129.132C530.768,-126.943 540.165,-124.546 549,-122 561.105,-118.512 574.39,-113.759 584.927,-109.761"/>
<polygon fill="midnightblue" stroke="midnightblue" points="520.464,-125.777 511.5,-131.424 522.029,-132.599 520.464,-125.777"/>
</g>
<!-- Node209&#45;&gt;Node208 -->
<g id="edge4" class="edge"><title>Node209&#45;&gt;Node208</title>
<path fill="none" stroke="midnightblue" d="M559.464,-102C568.946,-102 577.681,-102 584.883,-102"/>
<polygon fill="midnightblue" stroke="midnightblue" points="559.344,-98.5001 549.344,-102 559.344,-105.5 559.344,-98.5001"/>
</g>
<!-- Node211 -->
<g id="node6" class="node"><title>Node211</title>
<g id="a_node6"><a xlink:href="PB3D_8f90.html#afaee01f014ab3398eecac996b2795fd2" target="_top" xlink:title="Peeling Ballooning in 3D. ">
<polygon fill="white" stroke="black" points="585,-28.5 585,-49.5 626,-49.5 626,-28.5 585,-28.5"/>
<text text-anchor="middle" x="605.5" y="-35.9" font-family="Ubuntu Mono" font-size="12.00">pb3d</text>
</a>
</g>
</g>
<!-- Node210&#45;&gt;Node211 -->
<g id="edge6" class="edge"><title>Node210&#45;&gt;Node211</title>
<path fill="none" stroke="midnightblue" d="M338.56,-17.7248C420.162,-24.253 538.296,-33.7037 584.715,-37.4172"/>
<polygon fill="midnightblue" stroke="midnightblue" points="338.546,-14.2126 328.298,-16.9039 337.987,-21.1903 338.546,-14.2126"/>
</g>
<!-- Node213 -->
<g id="node8" class="node"><title>Node213</title>
<g id="a_node8"><a xlink:href="namespacetest.html#aca21ee464c0b1f4b617177afdde110ec" target="_top" xlink:title="Performs generic tests. ">
<polygon fill="white" stroke="black" points="391,-47.5 391,-68.5 522,-68.5 522,-47.5 391,-47.5"/>
<text text-anchor="middle" x="456.5" y="-54.9" font-family="Ubuntu Mono" font-size="12.00">test::generic_tests</text>
</a>
</g>
</g>
<!-- Node212&#45;&gt;Node213 -->
<g id="edge8" class="edge"><title>Node212&#45;&gt;Node213</title>
<path fill="none" stroke="midnightblue" d="M332.522,-58C351.779,-58 372.196,-58 390.745,-58"/>
<polygon fill="midnightblue" stroke="midnightblue" points="332.269,-54.5001 322.269,-58 332.269,-61.5001 332.269,-54.5001"/>
</g>
<!-- Node213&#45;&gt;Node208 -->
<g id="edge10" class="edge"><title>Node213&#45;&gt;Node208</title>
<path fill="none" stroke="midnightblue" d="M510.894,-71.1469C523.454,-74.4762 536.749,-78.1941 549,-82 561.03,-85.7372 574.313,-90.5002 584.866,-94.4405"/>
<polygon fill="midnightblue" stroke="midnightblue" points="511.572,-67.7068 501.012,-68.566 509.803,-74.4796 511.572,-67.7068"/>
</g>
<!-- Node213&#45;&gt;Node211 -->
<g id="edge9" class="edge"><title>Node213&#45;&gt;Node211</title>
<path fill="none" stroke="midnightblue" d="M532.518,-48.3038C551.888,-45.8001 571.118,-43.3147 584.823,-41.5433"/>
<polygon fill="midnightblue" stroke="midnightblue" points="531.873,-44.858 522.404,-49.611 532.77,-51.8002 531.873,-44.858"/>
</g>
</g>
</svg>
