<?xml version="1.0" encoding="UTF-8" standalone="no"?>
<!DOCTYPE svg PUBLIC "-//W3C//DTD SVG 1.1//EN"
 "http://www.w3.org/Graphics/SVG/1.1/DTD/svg11.dtd">
<!-- Generated by graphviz version 14.1.2 (20260124.0452)
 -->
<!-- Title: x_ops::setup_modes Pages: 1 -->
<svg width="648pt" height="182pt"
 viewBox="0.00 0.00 648.00 182.00" xmlns="http://www.w3.org/2000/svg" xmlns:xlink="http://www.w3.org/1999/xlink">
<g id="graph0" class="graph" transform="scale(1 1) rotate(0) translate(4 177.75)">
<title>x_ops::setup_modes</title>
<!-- Node1 -->
<g id="Node000001" class="node">
<title>Node1</title>
<g id="a_Node000001"><a xlink:title="Sets up some variables concerning the mode numbers.">
<polygon fill="#999999" stroke="#666666" points="640,-96.75 516,-96.75 516,-76 640,-76 640,-96.75"/>
<text xml:space="preserve" text-anchor="middle" x="578" y="-81.35" font-family="Ubuntu Mono" font-size="12.00">x_ops::setup_modes</text>
</a>
</g>
</g>
<!-- Node2 -->
<g id="Node000002" class="node">
<title>Node2</title>
<g id="a_Node000002"><a xlink:href="namespacedriver__post.html#af527706d4e696d4e507443d2f74194ef" target="_top" xlink:title="Initializes the POST driver.">
<polygon fill="white" stroke="#666666" points="272,-173.75 124,-173.75 124,-153 272,-153 272,-173.75"/>
<text xml:space="preserve" text-anchor="middle" x="198" y="-158.35" font-family="Ubuntu Mono" font-size="12.00">driver_post::init_post</text>
</a>
</g>
</g>
<!-- Node1&#45;&gt;Node2 -->
<g id="edge1_Node000001_Node000002" class="edge">
<title>Node1&#45;&gt;Node2</title>
<g id="a_edge1_Node000001_Node000002"><a xlink:title=" ">
<path fill="none" stroke="#63b8ff" d="M554.7,-103.91C535.93,-117.59 507.78,-135.68 480,-144.38 411.87,-165.69 330.05,-168.87 272.32,-167.67"/>
<polygon fill="#63b8ff" stroke="#63b8ff" points="556.75,-106.75 562.64,-97.95 552.54,-101.15 556.75,-106.75"/>
</a>
</g>
</g>
<!-- Node4 -->
<g id="Node000004" class="node">
<title>Node4</title>
<g id="a_Node000004"><a xlink:href="namespacerich__ops.html#a9fbbda93eab8973d33063e277c489e7b" target="_top" xlink:title="Initialize Richardson extrapolation system.">
<polygon fill="white" stroke="#666666" points="263,-58.75 133,-58.75 133,-38 263,-38 263,-58.75"/>
<text xml:space="preserve" text-anchor="middle" x="198" y="-43.35" font-family="Ubuntu Mono" font-size="12.00">rich_ops::init_rich</text>
</a>
</g>
</g>
<!-- Node1&#45;&gt;Node4 -->
<g id="edge3_Node000001_Node000004" class="edge">
<title>Node1&#45;&gt;Node4</title>
<g id="a_edge3_Node000001_Node000004"><a xlink:title=" ">
<path fill="none" stroke="#63b8ff" d="M516.88,-73.38C504.72,-71.09 491.98,-68.95 480,-67.38 406.07,-57.67 320.5,-52.79 263.4,-50.42"/>
<polygon fill="#63b8ff" stroke="#63b8ff" points="515.88,-76.75 526.36,-75.21 517.21,-69.88 515.88,-76.75"/>
</a>
</g>
</g>
<!-- Node6 -->
<g id="Node000006" class="node">
<title>Node6</title>
<g id="a_Node000006"><a xlink:href="test_8f90.html#a197914f99b7e194fb4bca9ca3669e0e8" target="_top" xlink:title=" ">
<polygon fill="white" stroke="#666666" points="420,-135.75 368,-135.75 368,-115 420,-115 420,-135.75"/>
<text xml:space="preserve" text-anchor="middle" x="394" y="-120.35" font-family="Ubuntu Mono" font-size="12.00">plot_y</text>
</a>
</g>
</g>
<!-- Node1&#45;&gt;Node6 -->
<g id="edge5_Node000001_Node000006" class="edge">
<title>Node1&#45;&gt;Node6</title>
<g id="a_edge5_Node000001_Node000006"><a xlink:title=" ">
<path fill="none" stroke="#63b8ff" d="M515.1,-99.64C482.67,-106.59 444.74,-114.72 420.32,-119.95"/>
<polygon fill="#63b8ff" stroke="#63b8ff" points="515.78,-103.07 524.82,-97.56 514.31,-96.23 515.78,-103.07"/>
</a>
</g>
</g>
<!-- Node8 -->
<g id="Node000008" class="node">
<title>Node8</title>
<g id="a_Node000008"><a xlink:href="namespacedriver__sol.html#a8dad197124fcba9c120e568f8f1b85c6" target="_top" xlink:title="Main driver of PB3D solution part.">
<polygon fill="white" stroke="#666666" points="480,-96.75 308,-96.75 308,-76 480,-76 480,-96.75"/>
<text xml:space="preserve" text-anchor="middle" x="394" y="-81.35" font-family="Ubuntu Mono" font-size="12.00">driver_sol::run_driver_sol</text>
</a>
</g>
</g>
<!-- Node1&#45;&gt;Node8 -->
<g id="edge9_Node000001_Node000008" class="edge">
<title>Node1&#45;&gt;Node8</title>
<g id="a_edge9_Node000001_Node000008"><a xlink:title=" ">
<path fill="none" stroke="#63b8ff" d="M504.27,-86.38C496.4,-86.38 488.33,-86.38 480.33,-86.38"/>
<polygon fill="#63b8ff" stroke="#63b8ff" points="504.12,-89.88 514.12,-86.38 504.12,-82.88 504.12,-89.88"/>
</a>
</g>
</g>
<!-- Node9 -->
<g id="Node000009" class="node">
<title>Node9</title>
<g id="a_Node000009"><a xlink:href="namespacedriver__x.html#a0dafd879836a65efc2ec726d04368532" target="_top" xlink:title="Main driver of PB3D perturbation part.">
<polygon fill="white" stroke="#666666" points="468,-20.75 320,-20.75 320,0 468,0 468,-20.75"/>
<text xml:space="preserve" text-anchor="middle" x="394" y="-5.35" font-family="Ubuntu Mono" font-size="12.00">driver_x::run_driver_x</text>
</a>
</g>
</g>
<!-- Node1&#45;&gt;Node9 -->
<g id="edge11_Node000001_Node000009" class="edge">
<title>Node1&#45;&gt;Node9</title>
<g id="a_edge11_Node000001_Node000009"><a xlink:title=" ">
<path fill="none" stroke="#63b8ff" d="M549.91,-69.8C530.87,-58.66 504.52,-44.27 480,-34.38 467.34,-29.27 453.22,-24.81 440.17,-21.17"/>
<polygon fill="#63b8ff" stroke="#63b8ff" points="547.99,-72.73 558.38,-74.83 551.57,-66.71 547.99,-72.73"/>
</a>
</g>
</g>
<!-- Node3 -->
<g id="Node000003" class="node">
<title>Node3</title>
<g id="a_Node000003"><a xlink:href="POST_8f90.html#a28f8fd95cf9c74c0cfd8b386827a7a9b" target="_top" xlink:title="Peeling Ballooning in 3D: postprocessing.">
<polygon fill="white" stroke="#666666" points="88,-143.75 0,-143.75 0,-123 88,-123 88,-143.75"/>
<text xml:space="preserve" text-anchor="middle" x="44" y="-128.35" font-family="Ubuntu Mono" font-size="12.00">__post_f90__</text>
</a>
</g>
</g>
<!-- Node2&#45;&gt;Node3 -->
<g id="edge2_Node000002_Node000003" class="edge">
<title>Node2&#45;&gt;Node3</title>
<g id="a_edge2_Node000002_Node000003"><a xlink:title=" ">
<path fill="none" stroke="#63b8ff" d="M131.18,-150.38C116.69,-147.52 101.69,-144.56 88.35,-141.93"/>
<polygon fill="#63b8ff" stroke="#63b8ff" points="130.15,-153.75 140.64,-152.25 131.51,-146.88 130.15,-153.75"/>
</a>
</g>
</g>
<!-- Node5 -->
<g id="Node000005" class="node">
<title>Node5</title>
<g id="a_Node000005"><a xlink:href="PB3D_8f90.html#a36e5b0ce05c9783f58b43c4463b290a1" target="_top" xlink:title="Peeling Ballooning in 3D.">
<polygon fill="white" stroke="#666666" points="88,-86.75 0,-86.75 0,-66 88,-66 88,-86.75"/>
<text xml:space="preserve" text-anchor="middle" x="44" y="-71.35" font-family="Ubuntu Mono" font-size="12.00">__pb3d_f90__</text>
</a>
</g>
</g>
<!-- Node4&#45;&gt;Node5 -->
<g id="edge4_Node000004_Node000005" class="edge">
<title>Node4&#45;&gt;Node5</title>
<g id="a_edge4_Node000004_Node000005"><a xlink:title=" ">
<path fill="none" stroke="#63b8ff" d="M127.14,-61.24C113.81,-63.7 100.23,-66.2 88.06,-68.44"/>
<polygon fill="#63b8ff" stroke="#63b8ff" points="127.54,-64.73 136.74,-59.47 126.28,-57.84 127.54,-64.73"/>
</a>
</g>
</g>
<!-- Node7 -->
<g id="Node000007" class="node">
<title>Node7</title>
<g id="a_Node000007"><a xlink:href="namespacetest.html#aca21ee464c0b1f4b617177afdde110ec" target="_top" xlink:title="Performs generic tests.">
<polygon fill="white" stroke="#666666" points="263,-134.75 133,-134.75 133,-114 263,-114 263,-134.75"/>
<text xml:space="preserve" text-anchor="middle" x="198" y="-119.35" font-family="Ubuntu Mono" font-size="12.00">test::generic_tests</text>
</a>
</g>
</g>
<!-- Node6&#45;&gt;Node7 -->
<g id="edge6_Node000006_Node000007" class="edge">
<title>Node6&#45;&gt;Node7</title>
<g id="a_edge6_Node000006_Node000007"><a xlink:title=" ">
<path fill="none" stroke="#63b8ff" d="M356.33,-125.19C330.1,-125.05 294.12,-124.87 263.18,-124.71"/>
<polygon fill="#63b8ff" stroke="#63b8ff" points="356.11,-128.68 366.12,-125.24 356.14,-121.68 356.11,-128.68"/>
</a>
</g>
</g>
<!-- Node7&#45;&gt;Node3 -->
<g id="edge8_Node000007_Node000003" class="edge">
<title>Node7&#45;&gt;Node3</title>
<g id="a_edge8_Node000007_Node000003"><a xlink:title=" ">
<path fill="none" stroke="#63b8ff" d="M121.3,-128.86C110.01,-129.53 98.72,-130.19 88.42,-130.8"/>
<polygon fill="#63b8ff" stroke="#63b8ff" points="121.25,-132.37 131.03,-128.28 120.84,-125.38 121.25,-132.37"/>
</a>
</g>
</g>
<!-- Node7&#45;&gt;Node5 -->
<g id="edge7_Node000007_Node000005" class="edge">
<title>Node7&#45;&gt;Node5</title>
<g id="a_edge7_Node000007_Node000005"><a xlink:title=" ">
<path fill="none" stroke="#63b8ff" d="M152.21,-110.23C128.89,-102.87 100.83,-94 79.26,-87.19"/>
<polygon fill="#63b8ff" stroke="#63b8ff" points="150.86,-113.47 161.44,-113.15 152.96,-106.8 150.86,-113.47"/>
</a>
</g>
</g>
<!-- Node8&#45;&gt;Node5 -->
<g id="edge10_Node000008_Node000005" class="edge">
<title>Node8&#45;&gt;Node5</title>
<g id="a_edge10_Node000008_Node000005"><a xlink:title=" ">
<path fill="none" stroke="#63b8ff" d="M296.68,-83.61C228.52,-81.65 140.34,-79.11 88.5,-77.62"/>
<polygon fill="#63b8ff" stroke="#63b8ff" points="296.26,-87.1 306.36,-83.89 296.46,-80.1 296.26,-87.1"/>
</a>
</g>
</g>
<!-- Node9&#45;&gt;Node5 -->
<g id="edge12_Node000009_Node000005" class="edge">
<title>Node9&#45;&gt;Node5</title>
<g id="a_edge12_Node000009_Node000005"><a xlink:title=" ">
<path fill="none" stroke="#63b8ff" d="M308.42,-6.43C254.48,-6.31 183.75,-10.66 124,-29.38 99.02,-37.2 73.63,-54.29 58.6,-65.56"/>
<polygon fill="#63b8ff" stroke="#63b8ff" points="308.13,-9.93 318.15,-6.51 308.18,-2.93 308.13,-9.93"/>
</a>
</g>
</g>
</g>
</svg>
