<?xml version="1.0" encoding="UTF-8" standalone="no"?>
<!DOCTYPE svg PUBLIC "-//W3C//DTD SVG 1.1//EN"
 "http://www.w3.org/Graphics/SVG/1.1/DTD/svg11.dtd">
<!-- Generated by graphviz version 14.1.2 (20260124.0452)
 -->
<!-- Title: files_ops::open_input Pages: 1 -->
<svg width="654pt" height="179pt"
 viewBox="0.00 0.00 654.00 179.00" xmlns="http://www.w3.org/2000/svg" xmlns:xlink="http://www.w3.org/1999/xlink">
<g id="graph0" class="graph" transform="scale(1 1) rotate(0) translate(4 174.75)">
<title>files_ops::open_input</title>
<!-- Node1 -->
<g id="Node000001" class="node">
<title>Node1</title>
<g id="a_Node000001"><a xlink:title="Open the input files.">
<polygon fill="#999999" stroke="#666666" points="142,-95.75 0,-95.75 0,-75 142,-75 142,-95.75"/>
<text xml:space="preserve" text-anchor="middle" x="71" y="-80.35" font-family="Ubuntu Mono" font-size="12.00">files_ops::open_input</text>
</a>
</g>
</g>
<!-- Node2 -->
<g id="Node000002" class="node">
<title>Node2</title>
<g id="a_Node000002"><a xlink:href="namespacestr__utilities.html#a0b97e51770725a3e98ed393d26681414" target="_top" xlink:title="Convert an integer to string.">
<polygon fill="white" stroke="#666666" points="637,-152.75 501,-152.75 501,-132 637,-132 637,-152.75"/>
<text xml:space="preserve" text-anchor="middle" x="569" y="-137.35" font-family="Ubuntu Mono" font-size="12.00">str_utilities::i2str</text>
</a>
</g>
</g>
<!-- Node1&#45;&gt;Node2 -->
<g id="edge1_Node000001_Node000002" class="edge">
<title>Node1&#45;&gt;Node2</title>
<g id="a_edge1_Node000001_Node000002"><a xlink:title=" ">
<path fill="none" stroke="#63b8ff" d="M95.84,-96.22C116.95,-105.27 148.86,-117.57 178,-123.38 284.3,-144.53 409.95,-146.67 489.31,-145.3"/>
<polygon fill="#63b8ff" stroke="#63b8ff" points="489.23,-148.8 499.16,-145.1 489.09,-141.8 489.23,-148.8"/>
</a>
</g>
</g>
<!-- Node3 -->
<g id="Node000003" class="node">
<title>Node3</title>
<g id="a_Node000003"><a xlink:href="namespacemessages.html#a6e6bfb084063e4cc91ee86e542043302" target="_top" xlink:title="Increases/decreases lvl of output.">
<polygon fill="white" stroke="#666666" points="302,-114.75 190,-114.75 190,-94 302,-94 302,-114.75"/>
<text xml:space="preserve" text-anchor="middle" x="246" y="-99.35" font-family="Ubuntu Mono" font-size="12.00">messages::lvl_ud</text>
</a>
</g>
</g>
<!-- Node1&#45;&gt;Node3 -->
<g id="edge3_Node000001_Node000003" class="edge">
<title>Node1&#45;&gt;Node3</title>
<g id="a_edge3_Node000001_Node000003"><a xlink:title=" ">
<path fill="none" stroke="#63b8ff" d="M142.37,-93.1C154.28,-94.41 166.61,-95.77 178.42,-97.06"/>
<polygon fill="#63b8ff" stroke="#63b8ff" points="177.72,-100.51 188.04,-98.12 178.49,-93.55 177.72,-100.51"/>
</a>
</g>
</g>
<!-- Node4 -->
<g id="Node000004" class="node">
<title>Node4</title>
<g id="a_Node000004"><a xlink:href="namespacemessages.html#aa4a8d01563e92558e8a0875b075ec54c" target="_top" xlink:title="Write output to file identified by output_i.">
<polygon fill="white" stroke="#666666" points="456,-113.75 350,-113.75 350,-93 456,-93 456,-113.75"/>
<text xml:space="preserve" text-anchor="middle" x="403" y="-98.35" font-family="Ubuntu Mono" font-size="12.00">messages::writo</text>
</a>
</g>
</g>
<!-- Node1&#45;&gt;Node4 -->
<g id="edge9_Node000001_Node000004" class="edge">
<title>Node1&#45;&gt;Node4</title>
<g id="a_edge9_Node000001_Node000004"><a xlink:title=" ">
<path fill="none" stroke="#63b8ff" d="M142.35,-81.64C190.74,-79.99 256.42,-79.55 314,-85.38 324.71,-86.46 336.04,-88.27 346.88,-90.33"/>
<polygon fill="#63b8ff" stroke="#63b8ff" points="345.97,-93.72 356.47,-92.25 347.35,-86.85 345.97,-93.72"/>
</a>
</g>
</g>
<!-- Node6 -->
<g id="Node000006" class="node">
<title>Node6</title>
<g id="a_Node000006"><a xlink:href="namespacestr__utilities.html#a92ac6c0af1979df094de1caddd28ade0" target="_top" xlink:title="Convert a real (double) to string.">
<polygon fill="white" stroke="#666666" points="314,-20.75 178,-20.75 178,0 314,0 314,-20.75"/>
<text xml:space="preserve" text-anchor="middle" x="246" y="-5.35" font-family="Ubuntu Mono" font-size="12.00">str_utilities::r2str</text>
</a>
</g>
</g>
<!-- Node1&#45;&gt;Node6 -->
<g id="edge7_Node000001_Node000006" class="edge">
<title>Node1&#45;&gt;Node6</title>
<g id="a_edge7_Node000001_Node000006"><a xlink:title=" ">
<path fill="none" stroke="#63b8ff" d="M96.79,-74.63C126.38,-61.8 176.08,-40.26 209.68,-25.69"/>
<polygon fill="#63b8ff" stroke="#63b8ff" points="210.81,-29.01 218.59,-21.82 208.02,-22.59 210.81,-29.01"/>
</a>
</g>
</g>
<!-- Node2&#45;&gt;Node2 -->
<g id="edge2_Node000002_Node000002" class="edge">
<title>Node2&#45;&gt;Node2</title>
<g id="a_edge2_Node000002_Node000002"><a xlink:title=" ">
<path fill="none" stroke="#63b8ff" d="M542.25,-153.15C531.55,-161.81 540.47,-170.75 569,-170.75 584.6,-170.75 594.34,-168.08 598.21,-164.24"/>
<polygon fill="#63b8ff" stroke="#63b8ff" points="601.66,-163.63 596.08,-154.62 594.83,-165.15 601.66,-163.63"/>
</a>
</g>
</g>
<!-- Node3&#45;&gt;Node4 -->
<g id="edge4_Node000003_Node000004" class="edge">
<title>Node3&#45;&gt;Node4</title>
<g id="a_edge4_Node000003_Node000004"><a xlink:title=" ">
<path fill="none" stroke="#63b8ff" d="M302.08,-104.02C313.82,-103.94 326.31,-103.86 338.34,-103.79"/>
<polygon fill="#63b8ff" stroke="#63b8ff" points="338.2,-107.29 348.18,-103.72 338.15,-100.29 338.2,-107.29"/>
</a>
</g>
</g>
<!-- Node4&#45;&gt;Node2 -->
<g id="edge6_Node000004_Node000002" class="edge">
<title>Node4&#45;&gt;Node2</title>
<g id="a_edge6_Node000004_Node000002"><a xlink:title=" ">
<path fill="none" stroke="#63b8ff" d="M449.68,-114.24C468.8,-118.78 491.21,-124.11 511.35,-128.9"/>
<polygon fill="#63b8ff" stroke="#63b8ff" points="510.27,-132.24 520.81,-131.15 511.89,-125.43 510.27,-132.24"/>
</a>
</g>
</g>
<!-- Node5 -->
<g id="Node000005" class="node">
<title>Node5</title>
<g id="a_Node000005"><a xlink:href="namespacemessages.html#a82dddaab795b78b3d39e1ff1aab2f665" target="_top" xlink:title="Returns the memory usage in kilobytes.">
<polygon fill="white" stroke="#666666" points="646,-113.75 492,-113.75 492,-93 646,-93 646,-113.75"/>
<text xml:space="preserve" text-anchor="middle" x="569" y="-98.35" font-family="Ubuntu Mono" font-size="12.00">messages::get_mem_usage</text>
</a>
</g>
</g>
<!-- Node4&#45;&gt;Node5 -->
<g id="edge5_Node000004_Node000005" class="edge">
<title>Node4&#45;&gt;Node5</title>
<g id="a_edge5_Node000004_Node000005"><a xlink:title=" ">
<path fill="none" stroke="#63b8ff" d="M456.34,-103.38C463.99,-103.38 472.03,-103.38 480.15,-103.38"/>
<polygon fill="#63b8ff" stroke="#63b8ff" points="480.14,-106.88 490.14,-103.38 480.14,-99.88 480.14,-106.88"/>
</a>
</g>
</g>
<!-- Node6&#45;&gt;Node6 -->
<g id="edge8_Node000006_Node000006" class="edge">
<title>Node6&#45;&gt;Node6</title>
<g id="a_edge8_Node000006_Node000006"><a xlink:title=" ">
<path fill="none" stroke="#63b8ff" d="M220.7,-21.15C210.58,-29.81 219.02,-38.75 246,-38.75 260.76,-38.75 269.97,-36.08 273.63,-32.24"/>
<polygon fill="#63b8ff" stroke="#63b8ff" points="277.09,-31.7 271.61,-22.63 270.24,-33.13 277.09,-31.7"/>
</a>
</g>
</g>
</g>
</svg>
