<?xml version="1.0" encoding="UTF-8" standalone="no"?>
<!DOCTYPE svg PUBLIC "-//W3C//DTD SVG 1.1//EN"
 "http://www.w3.org/Graphics/SVG/1.1/DTD/svg11.dtd">
<!-- Generated by graphviz version 2.38.0 (20140413.2041)
 -->
<!-- Title: grid_utilities::copy_grid Pages: 1 -->
<svg width="592pt" height="70pt"
 viewBox="0.00 0.00 592.00 70.00" xmlns="http://www.w3.org/2000/svg" xmlns:xlink="http://www.w3.org/1999/xlink">
<g id="graph0" class="graph" transform="scale(1 1) rotate(0) translate(4 66)">
<title>grid_utilities::copy_grid</title>
<polygon fill="white" stroke="none" points="-4,4 -4,-66 588,-66 588,4 -4,4"/>
<!-- Node81 -->
<g id="node1" class="node"><title>Node81</title>
<polygon fill="#bfbfbf" stroke="black" points="0,-20.5 0,-41.5 167,-41.5 167,-20.5 0,-20.5"/>
<text text-anchor="middle" x="83.5" y="-27.9" font-family="Ubuntu Mono" font-size="12.00">grid_utilities::copy_grid</text>
</g>
<!-- Node82 -->
<g id="node2" class="node"><title>Node82</title>
<g id="a_node2"><a xlink:href="namespacetest.html#ac574f08ba400cd61070a6a6f13f6f7ee" target="_top" xlink:title="Tests reading of HDF5 subset. ">
<polygon fill="white" stroke="black" points="203,-14 203,-48 340,-48 340,-14 203,-14"/>
<text text-anchor="start" x="211" y="-34.4" font-family="Ubuntu Mono" font-size="12.00">test::test_read_hdf5</text>
<text text-anchor="middle" x="271.5" y="-21.4" font-family="Ubuntu Mono" font-size="12.00">_subset</text>
</a>
</g>
</g>
<!-- Node81&#45;&gt;Node82 -->
<g id="edge1" class="edge"><title>Node81&#45;&gt;Node82</title>
<path fill="none" stroke="midnightblue" d="M177.271,-31C185.896,-31 194.524,-31 202.858,-31"/>
<polygon fill="midnightblue" stroke="midnightblue" points="177.166,-27.5001 167.165,-31 177.165,-34.5001 177.166,-27.5001"/>
</g>
<!-- Node83 -->
<g id="node3" class="node"><title>Node83</title>
<g id="a_node3"><a xlink:href="namespacetest.html#aca21ee464c0b1f4b617177afdde110ec" target="_top" xlink:title="Performs generic tests. ">
<polygon fill="white" stroke="black" points="376,-20.5 376,-41.5 507,-41.5 507,-20.5 376,-20.5"/>
<text text-anchor="middle" x="441.5" y="-27.9" font-family="Ubuntu Mono" font-size="12.00">test::generic_tests</text>
</a>
</g>
</g>
<!-- Node82&#45;&gt;Node83 -->
<g id="edge2" class="edge"><title>Node82&#45;&gt;Node83</title>
<path fill="none" stroke="midnightblue" d="M350.622,-31C359.096,-31 367.651,-31 375.938,-31"/>
<polygon fill="midnightblue" stroke="midnightblue" points="350.348,-27.5001 340.348,-31 350.348,-34.5001 350.348,-27.5001"/>
</g>
<!-- Node84 -->
<g id="node4" class="node"><title>Node84</title>
<g id="a_node4"><a xlink:href="PB3D_8f90.html#afaee01f014ab3398eecac996b2795fd2" target="_top" xlink:title="Peeling Ballooning in 3D. ">
<polygon fill="white" stroke="black" points="543,-40.5 543,-61.5 584,-61.5 584,-40.5 543,-40.5"/>
<text text-anchor="middle" x="563.5" y="-47.9" font-family="Ubuntu Mono" font-size="12.00">pb3d</text>
</a>
</g>
</g>
<!-- Node83&#45;&gt;Node84 -->
<g id="edge3" class="edge"><title>Node83&#45;&gt;Node84</title>
<path fill="none" stroke="midnightblue" d="M515.742,-43.2071C525.695,-44.8658 535.136,-46.4393 542.894,-47.7324"/>
<polygon fill="midnightblue" stroke="midnightblue" points="516.102,-39.7188 505.663,-41.5271 514.951,-46.6236 516.102,-39.7188"/>
</g>
<!-- Node85 -->
<g id="node5" class="node"><title>Node85</title>
<g id="a_node5"><a xlink:href="POST_8f90.html#ac289b64ac4671fea0b4f2298ba1188a1" target="_top" xlink:title="Peeling Ballooning in 3D: postprocessing. ">
<polygon fill="white" stroke="black" points="543,-0.5 543,-21.5 584,-21.5 584,-0.5 543,-0.5"/>
<text text-anchor="middle" x="563.5" y="-7.9" font-family="Ubuntu Mono" font-size="12.00">post</text>
</a>
</g>
</g>
<!-- Node83&#45;&gt;Node85 -->
<g id="edge4" class="edge"><title>Node83&#45;&gt;Node85</title>
<path fill="none" stroke="midnightblue" d="M515.742,-18.7929C525.695,-17.1342 535.136,-15.5607 542.894,-14.2676"/>
<polygon fill="midnightblue" stroke="midnightblue" points="514.951,-15.3764 505.663,-20.4729 516.102,-22.2812 514.951,-15.3764"/>
</g>
</g>
</svg>
