<?xml version="1.0" encoding="UTF-8" standalone="no"?>
<!DOCTYPE svg PUBLIC "-//W3C//DTD SVG 1.1//EN"
 "http://www.w3.org/Graphics/SVG/1.1/DTD/svg11.dtd">
<!-- Generated by graphviz version 2.38.0 (20140413.2041)
 -->
<!-- Title: messages::stop_time Pages: 1 -->
<svg width="1279pt" height="1141pt"
 viewBox="0.00 0.00 1279.00 1141.23" xmlns="http://www.w3.org/2000/svg" xmlns:xlink="http://www.w3.org/1999/xlink">
<g id="graph0" class="graph" transform="scale(1 1) rotate(0) translate(4 1137.23)">
<title>messages::stop_time</title>
<polygon fill="white" stroke="none" points="-4,4 -4,-1137.23 1275,-1137.23 1275,4 -4,4"/>
<!-- Node620 -->
<g id="node1" class="node"><title>Node620</title>
<polygon fill="#bfbfbf" stroke="black" points="0,-805.83 0,-826.83 131,-826.83 131,-805.83 0,-805.83"/>
<text text-anchor="middle" x="65.5" y="-813.23" font-family="Ubuntu Mono" font-size="12.00">messages::stop_time</text>
</g>
<!-- Node621 -->
<g id="node2" class="node"><title>Node621</title>
<g id="a_node2"><a xlink:href="namespaceinput__utilities.html#ad9ce824c30b32041ab70f3fb191f06db" target="_top" xlink:title="Queries for a logical value yes or no, where the default answer is also to be provided. ">
<polygon fill="white" stroke="black" points="176,-402.83 176,-423.83 337,-423.83 337,-402.83 176,-402.83"/>
<text text-anchor="middle" x="256.5" y="-410.23" font-family="Ubuntu Mono" font-size="12.00">input_utilities::get_log</text>
</a>
</g>
</g>
<!-- Node620&#45;&gt;Node621 -->
<g id="edge1" class="edge"><title>Node620&#45;&gt;Node621</title>
<path fill="none" stroke="midnightblue" d="M75.9579,-796.164C109.93,-723.726 225.116,-478.117 250.517,-423.956"/>
<polygon fill="midnightblue" stroke="midnightblue" points="72.6326,-795.011 71.5553,-805.551 78.9702,-797.984 72.6326,-795.011"/>
</g>
<!-- Node623 -->
<g id="node4" class="node"><title>Node623</title>
<g id="a_node4"><a xlink:href="PB3D_8f90.html#afaee01f014ab3398eecac996b2795fd2" target="_top" xlink:title="Peeling Ballooning in 3D. ">
<polygon fill="white" stroke="black" points="1230,-703.83 1230,-724.83 1271,-724.83 1271,-703.83 1230,-703.83"/>
<text text-anchor="middle" x="1250.5" y="-711.23" font-family="Ubuntu Mono" font-size="12.00">pb3d</text>
</a>
</g>
</g>
<!-- Node620&#45;&gt;Node623 -->
<g id="edge69" class="edge"><title>Node620&#45;&gt;Node623</title>
<path fill="none" stroke="midnightblue" d="M68.957,-837.079C75.5916,-883.322 98.2745,-995.176 167,-1051.33 272.6,-1137.61 331.131,-1113.33 467.5,-1113.33 467.5,-1113.33 467.5,-1113.33 893.5,-1113.33 1027.81,-1113.33 1096.96,-1174.19 1194,-1081.33 1246.96,-1030.65 1249.62,-780.213 1249.56,-725.079"/>
<polygon fill="midnightblue" stroke="midnightblue" points="72.4109,-836.5 67.6263,-827.047 65.4716,-837.42 72.4109,-836.5"/>
</g>
<!-- Node630 -->
<g id="node11" class="node"><title>Node630</title>
<g id="a_node11"><a xlink:href="POST_8f90.html#ac289b64ac4671fea0b4f2298ba1188a1" target="_top" xlink:title="Peeling Ballooning in 3D: postprocessing. ">
<polygon fill="white" stroke="black" points="1087,-984.83 1087,-1005.83 1128,-1005.83 1128,-984.83 1087,-984.83"/>
<text text-anchor="middle" x="1107.5" y="-992.23" font-family="Ubuntu Mono" font-size="12.00">post</text>
</a>
</g>
</g>
<!-- Node620&#45;&gt;Node630 -->
<g id="edge70" class="edge"><title>Node620&#45;&gt;Node630</title>
<path fill="none" stroke="midnightblue" d="M92.448,-832.211C144.875,-863.344 268.14,-931.756 382,-959.33 654.642,-1025.36 1001.34,-1003.74 1086.81,-997.008"/>
<polygon fill="midnightblue" stroke="midnightblue" points="94.1654,-829.16 83.7882,-827.024 90.5682,-835.165 94.1654,-829.16"/>
</g>
<!-- Node643 -->
<g id="node24" class="node"><title>Node643</title>
<g id="a_node24"><a xlink:href="namespaceinput__utilities.html#a41fc0c806e12bc722771210cfa1edbd3" target="_top" xlink:title="Queries for user input for a real value, where allowable range can be provided as well...">
<polygon fill="white" stroke="black" points="173,-245.83 173,-266.83 340,-266.83 340,-245.83 173,-245.83"/>
<text text-anchor="middle" x="256.5" y="-253.23" font-family="Ubuntu Mono" font-size="12.00">input_utilities::get_real</text>
</a>
</g>
</g>
<!-- Node620&#45;&gt;Node643 -->
<g id="edge35" class="edge"><title>Node620&#45;&gt;Node643</title>
<path fill="none" stroke="midnightblue" d="M68.8906,-795.602C76.656,-732.818 104.377,-540.053 167,-393.33 188.786,-342.286 229.089,-289.097 246.785,-266.968"/>
<polygon fill="midnightblue" stroke="midnightblue" points="65.3866,-795.426 67.6689,-805.772 72.3367,-796.261 65.3866,-795.426"/>
</g>
<!-- Node644 -->
<g id="node25" class="node"><title>Node644</title>
<g id="a_node25"><a xlink:href="namespaceinput__utilities.html#a03e09af96ba6f7e187ea4a1d9b743148" target="_top" xlink:title="Queries for user input for an integer value, where allowable range can be provided as well...">
<polygon fill="white" stroke="black" points="176,-616.83 176,-637.83 337,-637.83 337,-616.83 176,-616.83"/>
<text text-anchor="middle" x="256.5" y="-624.23" font-family="Ubuntu Mono" font-size="12.00">input_utilities::get_int</text>
</a>
</g>
</g>
<!-- Node620&#45;&gt;Node644 -->
<g id="edge42" class="edge"><title>Node620&#45;&gt;Node644</title>
<path fill="none" stroke="midnightblue" d="M84.6909,-798.14C123.627,-759.203 214.007,-668.823 244.914,-637.916"/>
<polygon fill="midnightblue" stroke="midnightblue" points="81.7992,-796.081 77.203,-805.627 86.749,-801.031 81.7992,-796.081"/>
</g>
<!-- Node646 -->
<g id="node27" class="node"><title>Node646</title>
<g id="a_node27"><a xlink:href="namespaceinput__utilities.html#a71bd36f063d55ab62c7a37864aef1185" target="_top" xlink:title="Pauses the running of the program. ">
<polygon fill="white" stroke="black" points="167,-805.83 167,-826.83 346,-826.83 346,-805.83 167,-805.83"/>
<text text-anchor="middle" x="256.5" y="-813.23" font-family="Ubuntu Mono" font-size="12.00">input_utilities::pause_prog</text>
</a>
</g>
</g>
<!-- Node620&#45;&gt;Node646 -->
<g id="edge52" class="edge"><title>Node620&#45;&gt;Node646</title>
<path fill="none" stroke="midnightblue" d="M141.178,-816.33C149.615,-816.33 158.274,-816.33 166.867,-816.33"/>
<polygon fill="midnightblue" stroke="midnightblue" points="141.014,-812.831 131.014,-816.33 141.014,-819.831 141.014,-812.831"/>
</g>
<!-- Node650 -->
<g id="node31" class="node"><title>Node650</title>
<g id="a_node31"><a xlink:href="namespacemessages.html#a34da9df28502ccd63e62674d51fe8de8" target="_top" xlink:title="Display the time that has passed between t1 and t2. ">
<polygon fill="white" stroke="black" points="821,-1063.83 821,-1084.83 964,-1084.83 964,-1063.83 821,-1063.83"/>
<text text-anchor="middle" x="892.5" y="-1071.23" font-family="Ubuntu Mono" font-size="12.00">messages::passed_time</text>
</a>
</g>
</g>
<!-- Node620&#45;&gt;Node650 -->
<g id="edge66" class="edge"><title>Node620&#45;&gt;Node650</title>
<path fill="none" stroke="midnightblue" d="M70.2425,-837.107C78.9314,-878.631 104.683,-971.468 167,-1013.33 272.434,-1084.16 659.842,-1081.32 820.728,-1076.87"/>
<polygon fill="midnightblue" stroke="midnightblue" points="73.6732,-836.413 68.308,-827.278 66.8049,-837.765 73.6732,-836.413"/>
</g>
<!-- Node622 -->
<g id="node3" class="node"><title>Node622</title>
<g id="a_node3"><a xlink:href="namespacedriver__eq.html#adc9d5dff288fa512e5ef885627d940cc" target="_top" xlink:title="Main driver of PB3D equilibrium part. ">
<polygon fill="white" stroke="black" points="812,-598.83 812,-619.83 973,-619.83 973,-598.83 812,-598.83"/>
<text text-anchor="middle" x="892.5" y="-606.23" font-family="Ubuntu Mono" font-size="12.00">driver_eq::run_driver_eq</text>
</a>
</g>
</g>
<!-- Node621&#45;&gt;Node622 -->
<g id="edge2" class="edge"><title>Node621&#45;&gt;Node622</title>
<path fill="none" stroke="midnightblue" d="M281.025,-429.686C305.315,-445.898 344.808,-470.409 382,-485.33 533.028,-545.921 721.55,-582.353 821.574,-598.823"/>
<polygon fill="midnightblue" stroke="midnightblue" points="282.74,-426.621 272.496,-423.916 278.818,-432.418 282.74,-426.621"/>
</g>
<!-- Node624 -->
<g id="node5" class="node"><title>Node624</title>
<g id="a_node5"><a xlink:href="namespacedriver__x.html#a454779cefa6da3714d32eedcec0ef7de" target="_top" xlink:title="Part 1 of driver_x: Vectorial jobs. ">
<polygon fill="white" stroke="black" points="388,-703.83 388,-724.83 549,-724.83 549,-703.83 388,-703.83"/>
<text text-anchor="middle" x="468.5" y="-711.23" font-family="Ubuntu Mono" font-size="12.00">driver_x::run_driver_x_1</text>
</a>
</g>
</g>
<!-- Node621&#45;&gt;Node624 -->
<g id="edge4" class="edge"><title>Node621&#45;&gt;Node624</title>
<path fill="none" stroke="midnightblue" d="M266.936,-433.388C283.379,-468.479 318.188,-543.37 346,-607.33 362.687,-645.706 350.106,-667.241 382,-694.33 386.415,-698.081 391.404,-701.158 396.698,-703.68"/>
<polygon fill="midnightblue" stroke="midnightblue" points="270.044,-431.774 262.627,-424.208 263.708,-434.748 270.044,-431.774"/>
</g>
<!-- Node626 -->
<g id="node7" class="node"><title>Node626</title>
<g id="a_node7"><a xlink:href="interfaceeq__ops_1_1calc__eq.html#ae2f56ab19ce5c33e863f32e1c9263604" target="_top" xlink:title="metric version ">
<polygon fill="white" stroke="black" points="591,-639.83 591,-660.83 764,-660.83 764,-639.83 591,-639.83"/>
<text text-anchor="middle" x="677.5" y="-647.23" font-family="Ubuntu Mono" font-size="12.00">eq_ops::calc_eq::calc_eq_2</text>
</a>
</g>
</g>
<!-- Node621&#45;&gt;Node626 -->
<g id="edge7" class="edge"><title>Node621&#45;&gt;Node626</title>
<path fill="none" stroke="midnightblue" d="M268.653,-432.637C287.731,-463.866 329.681,-525.199 382,-557.33 449.513,-598.793 479.719,-575.633 555,-600.33 590.111,-611.849 629.44,-628.812 653.588,-639.716"/>
<polygon fill="midnightblue" stroke="midnightblue" points="271.614,-430.768 263.481,-423.977 265.604,-434.357 271.614,-430.768"/>
</g>
<!-- Node627 -->
<g id="node8" class="node"><title>Node627</title>
<g id="a_node8"><a xlink:href="namespaceeq__ops.html#a9addef683b3d4a8c587510e4c994ec61" target="_top" xlink:title="Creates a VMEC input file. ">
<polygon fill="white" stroke="black" points="403,-610.33 403,-644.33 534,-644.33 534,-610.33 403,-610.33"/>
<text text-anchor="start" x="411" y="-630.73" font-family="Ubuntu Mono" font-size="12.00">eq_ops::create_vmec</text>
<text text-anchor="middle" x="468.5" y="-617.73" font-family="Ubuntu Mono" font-size="12.00">_input</text>
</a>
</g>
</g>
<!-- Node621&#45;&gt;Node627 -->
<g id="edge8" class="edge"><title>Node621&#45;&gt;Node627</title>
<path fill="none" stroke="midnightblue" d="M266.116,-433.296C283.057,-470.331 324.15,-550.015 382,-595.33 389.611,-601.292 398.449,-606.23 407.498,-610.293"/>
<polygon fill="midnightblue" stroke="midnightblue" points="269.258,-431.749 261.984,-424.046 262.867,-434.604 269.258,-431.749"/>
</g>
<!-- Node628 -->
<g id="node9" class="node"><title>Node628</title>
<g id="a_node9"><a xlink:href="namespaceeq__ops.html#ad173efd111cb85c11bc2bc78a7555096" target="_top" xlink:title="Plots the curvature. ">
<polygon fill="white" stroke="black" points="615,-453.83 615,-474.83 740,-474.83 740,-453.83 615,-453.83"/>
<text text-anchor="middle" x="677.5" y="-461.23" font-family="Ubuntu Mono" font-size="12.00">eq_ops::kappa_plot</text>
</a>
</g>
</g>
<!-- Node621&#45;&gt;Node628 -->
<g id="edge10" class="edge"><title>Node621&#45;&gt;Node628</title>
<path fill="none" stroke="midnightblue" d="M347.289,-414.544C406.584,-416.453 485.819,-421.12 555,-432.33 585.468,-437.268 619.375,-446.524 643.61,-453.815"/>
<polygon fill="midnightblue" stroke="midnightblue" points="347.305,-411.043 337.204,-414.239 347.094,-418.04 347.305,-411.043"/>
</g>
<!-- Node631 -->
<g id="node12" class="node"><title>Node631</title>
<g id="a_node12"><a xlink:href="namespaceslepc__ops.html#a79c420987056c225931b51c8d30ece1f" target="_top" xlink:title="Solve the eigenvalue system using SLEPC. ">
<polygon fill="white" stroke="black" points="827,-123.33 827,-157.33 958,-157.33 958,-123.33 827,-123.33"/>
<text text-anchor="start" x="835" y="-143.73" font-family="Ubuntu Mono" font-size="12.00">slepc_ops::solve_ev</text>
<text text-anchor="middle" x="892.5" y="-130.73" font-family="Ubuntu Mono" font-size="12.00">_system_slepc</text>
</a>
</g>
</g>
<!-- Node621&#45;&gt;Node631 -->
<g id="edge14" class="edge"><title>Node621&#45;&gt;Node631</title>
<path fill="none" stroke="midnightblue" d="M272.418,-394.65C291.99,-369.275 326.169,-321.843 346,-276.33 372.007,-216.643 331.981,-176.009 382,-134.33 517.75,-21.2151 751.853,-88.2745 848.176,-123.205"/>
<polygon fill="midnightblue" stroke="midnightblue" points="269.553,-392.632 266.152,-402.666 275.068,-396.943 269.553,-392.632"/>
</g>
<!-- Node633 -->
<g id="node14" class="node"><title>Node633</title>
<g id="a_node14"><a xlink:href="namespaceslepc__ops.html#aac8202cb74cbb06013eb73f1fa0c3118" target="_top" xlink:title="Sets up the matrices &#160;and &#160;in the EV problem . ">
<polygon fill="white" stroke="black" points="606,-129.83 606,-150.83 749,-150.83 749,-129.83 606,-129.83"/>
<text text-anchor="middle" x="677.5" y="-137.23" font-family="Ubuntu Mono" font-size="12.00">slepc_ops::setup_mats</text>
</a>
</g>
</g>
<!-- Node621&#45;&gt;Node633 -->
<g id="edge17" class="edge"><title>Node621&#45;&gt;Node633</title>
<path fill="none" stroke="midnightblue" d="M271.979,-394.45C291.06,-368.852 324.693,-321.171 346,-276.33 368.259,-229.487 341.379,-197.575 382,-165.33 415.458,-138.772 529.97,-136.185 605.95,-137.623"/>
<polygon fill="midnightblue" stroke="midnightblue" points="269.103,-392.449 265.88,-402.542 274.694,-396.662 269.103,-392.449"/>
</g>
<!-- Node634 -->
<g id="node15" class="node"><title>Node634</title>
<g id="a_node15"><a xlink:href="namespacetest.html#aca21ee464c0b1f4b617177afdde110ec" target="_top" xlink:title="Performs generic tests. ">
<polygon fill="white" stroke="black" points="827,-363.83 827,-384.83 958,-384.83 958,-363.83 827,-363.83"/>
<text text-anchor="middle" x="892.5" y="-371.23" font-family="Ubuntu Mono" font-size="12.00">test::generic_tests</text>
</a>
</g>
</g>
<!-- Node621&#45;&gt;Node634 -->
<g id="edge19" class="edge"><title>Node621&#45;&gt;Node634</title>
<path fill="none" stroke="midnightblue" d="M269.852,-393.691C297.893,-349.427 365.226,-245.04 382,-236.33 533.309,-157.769 608.518,-201.389 764,-271.33 814.864,-294.211 862.581,-342.432 882.154,-363.779"/>
<polygon fill="midnightblue" stroke="midnightblue" points="266.731,-392.078 264.35,-402.402 272.65,-395.816 266.731,-392.078"/>
</g>
<!-- Node635 -->
<g id="node16" class="node"><title>Node635</title>
<g id="a_node16"><a xlink:href="namespacetest.html#a53c6b3d654d4577af301fe3b04473d6a" target="_top" xlink:title="Test splines. ">
<polygon fill="white" stroke="black" points="615,-324.83 615,-345.83 740,-345.83 740,-324.83 615,-324.83"/>
<text text-anchor="middle" x="677.5" y="-332.23" font-family="Ubuntu Mono" font-size="12.00">test::test_splines</text>
</a>
</g>
</g>
<!-- Node621&#45;&gt;Node635 -->
<g id="edge22" class="edge"><title>Node621&#45;&gt;Node635</title>
<path fill="none" stroke="midnightblue" d="M283.086,-397.656C307.518,-383.566 345.865,-363.692 382,-354.33 460.488,-333.997 554.475,-331.542 614.808,-332.632"/>
<polygon fill="midnightblue" stroke="midnightblue" points="281.285,-394.655 274.437,-402.739 284.831,-400.69 281.285,-394.655"/>
</g>
<!-- Node636 -->
<g id="node17" class="node"><title>Node636</title>
<g id="a_node17"><a xlink:href="test_8f90.html#a197914f99b7e194fb4bca9ca3669e0e8" target="_top" xlink:title="plot_y">
<polygon fill="white" stroke="black" points="442,-285.83 442,-306.83 495,-306.83 495,-285.83 442,-285.83"/>
<text text-anchor="middle" x="468.5" y="-293.23" font-family="Ubuntu Mono" font-size="12.00">plot_y</text>
</a>
</g>
</g>
<!-- Node621&#45;&gt;Node636 -->
<g id="edge24" class="edge"><title>Node621&#45;&gt;Node636</title>
<path fill="none" stroke="midnightblue" d="M276.675,-395.748C299.979,-375.229 341.257,-341.538 382,-321.33 401.12,-311.847 424.471,-305.324 441.936,-301.324"/>
<polygon fill="midnightblue" stroke="midnightblue" points="274.062,-393.39 268.937,-402.663 278.726,-398.61 274.062,-393.39"/>
</g>
<!-- Node637 -->
<g id="node18" class="node"><title>Node637</title>
<g id="a_node18"><a xlink:href="namespacetest.html#ab595ec935321ea0b1168593fb88fad22" target="_top" xlink:title="Test calculation of toroidal functions. ">
<polygon fill="white" stroke="black" points="406,-245.83 406,-266.83 531,-266.83 531,-245.83 406,-245.83"/>
<text text-anchor="middle" x="468.5" y="-253.23" font-family="Ubuntu Mono" font-size="12.00">test::test_tor_fun</text>
</a>
</g>
</g>
<!-- Node621&#45;&gt;Node637 -->
<g id="edge26" class="edge"><title>Node621&#45;&gt;Node637</title>
<path fill="none" stroke="midnightblue" d="M269.383,-394.066C288.972,-364.012 331,-306.313 382,-276.33 389.359,-272.004 397.59,-268.613 405.959,-265.956"/>
<polygon fill="midnightblue" stroke="midnightblue" points="266.251,-392.468 263.828,-402.782 272.154,-396.23 266.251,-392.468"/>
</g>
<!-- Node638 -->
<g id="node19" class="node"><title>Node638</title>
<g id="a_node19"><a xlink:href="namespacetest.html#a0d4cb791bf762b2e52260fea7644a3ee" target="_top" xlink:title="Tests calculation of volume integral. ">
<polygon fill="white" stroke="black" points="391,-363.83 391,-384.83 546,-384.83 546,-363.83 391,-363.83"/>
<text text-anchor="middle" x="468.5" y="-371.23" font-family="Ubuntu Mono" font-size="12.00">test::test_calc_int_vol</text>
</a>
</g>
</g>
<!-- Node621&#45;&gt;Node638 -->
<g id="edge28" class="edge"><title>Node621&#45;&gt;Node638</title>
<path fill="none" stroke="midnightblue" d="M324.123,-400.958C352.021,-395.777 384.109,-389.817 410.847,-384.852"/>
<polygon fill="midnightblue" stroke="midnightblue" points="323.245,-397.561 314.052,-402.828 324.523,-404.443 323.245,-397.561"/>
</g>
<!-- Node639 -->
<g id="node20" class="node"><title>Node639</title>
<g id="a_node20"><a xlink:href="namespacevac__utilities.html#a8e7889688701f6ac2fd2c60cdee2b96a" target="_top" xlink:title="Copies vacuum variables of a previous level into the appropriate, interlaced place of a next level...">
<polygon fill="white" stroke="black" points="385,-442.33 385,-476.33 552,-476.33 552,-442.33 385,-442.33"/>
<text text-anchor="start" x="393" y="-462.73" font-family="Ubuntu Mono" font-size="12.00">vac_utilities::interlaced</text>
<text text-anchor="middle" x="468.5" y="-449.73" font-family="Ubuntu Mono" font-size="12.00">_vac_copy</text>
</a>
</g>
</g>
<!-- Node621&#45;&gt;Node639 -->
<g id="edge30" class="edge"><title>Node621&#45;&gt;Node639</title>
<path fill="none" stroke="midnightblue" d="M315.561,-426.049C338.419,-431.056 365.014,-436.881 389.505,-442.246"/>
<polygon fill="midnightblue" stroke="midnightblue" points="316.196,-422.605 305.678,-423.884 314.698,-429.443 316.196,-422.605"/>
</g>
<!-- Node641 -->
<g id="node22" class="node"><title>Node641</title>
<g id="a_node22"><a xlink:href="namespacex__ops.html#a4e39701da15ff952add5133db1897b52" target="_top" xlink:title="Calculate , &#160;or , . ">
<polygon fill="white" stroke="black" points="421,-743.83 421,-764.83 516,-764.83 516,-743.83 421,-743.83"/>
<text text-anchor="middle" x="468.5" y="-751.23" font-family="Ubuntu Mono" font-size="12.00">x_ops::calc_u</text>
</a>
</g>
</g>
<!-- Node621&#45;&gt;Node641 -->
<g id="edge33" class="edge"><title>Node621&#45;&gt;Node641</title>
<path fill="none" stroke="midnightblue" d="M267.722,-433.073C285.364,-467.683 321.947,-541.864 346,-607.33 366.233,-662.399 339.563,-693.82 382,-734.33 392.365,-744.225 406.646,-749.55 420.57,-752.327"/>
<polygon fill="midnightblue" stroke="midnightblue" points="270.76,-431.326 263.081,-424.026 264.531,-434.521 270.76,-431.326"/>
</g>
<!-- Node622&#45;&gt;Node623 -->
<g id="edge3" class="edge"><title>Node622&#45;&gt;Node623</title>
<path fill="none" stroke="midnightblue" d="M944.081,-622.475C1004.06,-638.33 1106.9,-666.355 1194,-694.33 1205.99,-698.183 1219.27,-702.95 1229.84,-706.864"/>
<polygon fill="midnightblue" stroke="midnightblue" points="944.674,-619.012 934.112,-619.847 942.89,-625.78 944.674,-619.012"/>
</g>
<!-- Node625 -->
<g id="node6" class="node"><title>Node625</title>
<g id="a_node6"><a xlink:href="namespacedriver__x.html#ada3d72a0929daaa5e3da585246d62281" target="_top" xlink:title="Main driver of PB3D perturbation part. ">
<polygon fill="white" stroke="black" points="1033,-703.83 1033,-724.83 1182,-724.83 1182,-703.83 1033,-703.83"/>
<text text-anchor="middle" x="1107.5" y="-711.23" font-family="Ubuntu Mono" font-size="12.00">driver_x::run_driver_x</text>
</a>
</g>
</g>
<!-- Node624&#45;&gt;Node625 -->
<g id="edge5" class="edge"><title>Node624&#45;&gt;Node625</title>
<path fill="none" stroke="midnightblue" d="M559.28,-714.33C686.052,-714.33 915.135,-714.33 1032.63,-714.33"/>
<polygon fill="midnightblue" stroke="midnightblue" points="559.21,-710.831 549.21,-714.33 559.21,-717.831 559.21,-710.831"/>
</g>
<!-- Node625&#45;&gt;Node623 -->
<g id="edge6" class="edge"><title>Node625&#45;&gt;Node623</title>
<path fill="none" stroke="midnightblue" d="M1192.55,-714.33C1206.48,-714.33 1219.68,-714.33 1229.86,-714.33"/>
<polygon fill="midnightblue" stroke="midnightblue" points="1192.3,-710.831 1182.3,-714.33 1192.3,-717.831 1192.3,-710.831"/>
</g>
<!-- Node627&#45;&gt;Node626 -->
<g id="edge9" class="edge"><title>Node627&#45;&gt;Node626</title>
<path fill="none" stroke="midnightblue" d="M544.395,-635.652C559.427,-637.322 575.333,-639.09 590.702,-640.797"/>
<polygon fill="midnightblue" stroke="midnightblue" points="544.47,-632.139 534.145,-634.513 543.697,-639.096 544.47,-632.139"/>
</g>
<!-- Node628&#45;&gt;Node622 -->
<g id="edge11" class="edge"><title>Node628&#45;&gt;Node622</title>
<path fill="none" stroke="midnightblue" d="M749.755,-475.226C754.879,-477.701 759.708,-480.7 764,-484.33 795.637,-511.09 770.795,-540.936 800,-570.33 813.266,-583.683 831.823,-592.735 848.761,-598.728"/>
<polygon fill="midnightblue" stroke="midnightblue" points="750.849,-471.891 740.269,-471.314 748.18,-478.362 750.849,-471.891"/>
</g>
<!-- Node629 -->
<g id="node10" class="node"><title>Node629</title>
<g id="a_node10"><a xlink:href="namespacedriver__post.html#a33b3c6f9018a0ddc92dce77394b8ab37" target="_top" xlink:title="The main driver routine for postprocessing. ">
<polygon fill="white" stroke="black" points="800,-539.83 800,-560.83 985,-560.83 985,-539.83 800,-539.83"/>
<text text-anchor="middle" x="892.5" y="-547.23" font-family="Ubuntu Mono" font-size="12.00">driver_post::run_driver_post</text>
</a>
</g>
</g>
<!-- Node628&#45;&gt;Node629 -->
<g id="edge12" class="edge"><title>Node628&#45;&gt;Node629</title>
<path fill="none" stroke="midnightblue" d="M742.773,-477.537C750.011,-479.562 757.216,-481.825 764,-484.33 805.386,-499.613 850.494,-525.313 874.392,-539.72"/>
<polygon fill="midnightblue" stroke="midnightblue" points="743.482,-474.104 732.919,-474.922 741.687,-480.87 743.482,-474.104"/>
</g>
<!-- Node629&#45;&gt;Node630 -->
<g id="edge13" class="edge"><title>Node629&#45;&gt;Node630</title>
<path fill="none" stroke="midnightblue" d="M949.704,-564.767C962.856,-570.508 975.718,-578.436 985,-589.33 1028.06,-639.876 1002.65,-670.515 1021,-734.33 1049.2,-832.397 1090,-948.893 1102.63,-984.479"/>
<polygon fill="midnightblue" stroke="midnightblue" points="950.709,-561.4 940.123,-560.963 948.125,-567.906 950.709,-561.4"/>
</g>
<!-- Node632 -->
<g id="node13" class="node"><title>Node632</title>
<g id="a_node13"><a xlink:href="namespacedriver__sol.html#ad3b1765b3ecc5f82129bfc683ffc6c5c" target="_top" xlink:title="Main driver of PB3D solution part. ">
<polygon fill="white" stroke="black" points="1021,-211.83 1021,-232.83 1194,-232.83 1194,-211.83 1021,-211.83"/>
<text text-anchor="middle" x="1107.5" y="-219.23" font-family="Ubuntu Mono" font-size="12.00">driver_sol::run_driver_sol</text>
</a>
</g>
</g>
<!-- Node631&#45;&gt;Node632 -->
<g id="edge15" class="edge"><title>Node631&#45;&gt;Node632</title>
<path fill="none" stroke="midnightblue" d="M947.418,-161.088C989.39,-177.246 1045.91,-199.004 1079.05,-211.764"/>
<polygon fill="midnightblue" stroke="midnightblue" points="948.482,-157.747 937.893,-157.421 945.967,-164.28 948.482,-157.747"/>
</g>
<!-- Node632&#45;&gt;Node623 -->
<g id="edge16" class="edge"><title>Node632&#45;&gt;Node623</title>
<path fill="none" stroke="midnightblue" d="M1115.97,-242.354C1131.71,-284.983 1168.91,-388.035 1194,-476.33 1218.71,-563.26 1240.72,-670.295 1247.42,-703.8"/>
<polygon fill="midnightblue" stroke="midnightblue" points="1119.21,-241.022 1112.45,-232.863 1112.65,-243.457 1119.21,-241.022"/>
</g>
<!-- Node633&#45;&gt;Node631 -->
<g id="edge18" class="edge"><title>Node633&#45;&gt;Node631</title>
<path fill="none" stroke="midnightblue" d="M759.261,-140.33C781.591,-140.33 805.527,-140.33 826.813,-140.33"/>
<polygon fill="midnightblue" stroke="midnightblue" points="759.13,-136.831 749.13,-140.33 759.13,-143.831 759.13,-136.831"/>
</g>
<!-- Node634&#45;&gt;Node623 -->
<g id="edge20" class="edge"><title>Node634&#45;&gt;Node623</title>
<path fill="none" stroke="midnightblue" d="M915.371,-391.137C966.884,-431.247 1098.68,-536.951 1194,-640.33 1213.38,-661.346 1232.64,-688.913 1242.58,-703.76"/>
<polygon fill="midnightblue" stroke="midnightblue" points="917.307,-388.209 907.259,-384.848 913.017,-393.741 917.307,-388.209"/>
</g>
<!-- Node634&#45;&gt;Node630 -->
<g id="edge21" class="edge"><title>Node634&#45;&gt;Node630</title>
<path fill="none" stroke="midnightblue" d="M907.585,-393.169C927.982,-421.424 965.433,-477.152 985,-530.33 1016.79,-616.735 998.613,-645.026 1021,-734.33 1045.81,-833.307 1088.89,-949.192 1102.35,-984.552"/>
<polygon fill="midnightblue" stroke="midnightblue" points="910.337,-391.002 901.607,-384.999 904.688,-395.136 910.337,-391.002"/>
</g>
<!-- Node635&#45;&gt;Node634 -->
<g id="edge23" class="edge"><title>Node635&#45;&gt;Node634</title>
<path fill="none" stroke="midnightblue" d="M745.703,-347.635C774.085,-352.832 806.799,-358.822 834.037,-363.809"/>
<polygon fill="midnightblue" stroke="midnightblue" points="746.327,-344.191 735.86,-345.833 745.066,-351.077 746.327,-344.191"/>
</g>
<!-- Node636&#45;&gt;Node635 -->
<g id="edge25" class="edge"><title>Node636&#45;&gt;Node635</title>
<path fill="none" stroke="midnightblue" d="M505.459,-303.105C537.234,-309.092 584.085,-317.919 620.721,-324.821"/>
<polygon fill="midnightblue" stroke="midnightblue" points="505.773,-299.603 495.298,-301.191 504.477,-306.482 505.773,-299.603"/>
</g>
<!-- Node637&#45;&gt;Node634 -->
<g id="edge27" class="edge"><title>Node637&#45;&gt;Node634</title>
<path fill="none" stroke="midnightblue" d="M541.406,-265.889C601.793,-275.059 689.846,-291.121 764,-315.33 803.88,-328.35 847.727,-350.508 872.208,-363.648"/>
<polygon fill="midnightblue" stroke="midnightblue" points="541.619,-262.382 531.212,-264.366 540.585,-269.305 541.619,-262.382"/>
</g>
<!-- Node638&#45;&gt;Node634 -->
<g id="edge29" class="edge"><title>Node638&#45;&gt;Node634</title>
<path fill="none" stroke="midnightblue" d="M556.515,-374.33C636.907,-374.33 754.513,-374.33 826.863,-374.33"/>
<polygon fill="midnightblue" stroke="midnightblue" points="556.411,-370.831 546.411,-374.33 556.411,-377.831 556.411,-370.831"/>
</g>
<!-- Node640 -->
<g id="node21" class="node"><title>Node640</title>
<g id="a_node21"><a xlink:href="namespacevac__ops.html#a37220702fbf378626a0f2c12f446e0aa" target="_top" xlink:title="Stores calculation of the vacuum response by storing the necessary variables. ">
<polygon fill="white" stroke="black" points="615,-493.83 615,-514.83 740,-514.83 740,-493.83 615,-493.83"/>
<text text-anchor="middle" x="677.5" y="-501.23" font-family="Ubuntu Mono" font-size="12.00">vac_ops::store_vac</text>
</a>
</g>
</g>
<!-- Node639&#45;&gt;Node640 -->
<g id="edge31" class="edge"><title>Node639&#45;&gt;Node640</title>
<path fill="none" stroke="midnightblue" d="M557.667,-478.497C581.832,-483.75 607.137,-489.252 628.156,-493.821"/>
<polygon fill="midnightblue" stroke="midnightblue" points="558.273,-475.047 547.758,-476.343 556.786,-481.888 558.273,-475.047"/>
</g>
<!-- Node640&#45;&gt;Node622 -->
<g id="edge32" class="edge"><title>Node640&#45;&gt;Node622</title>
<path fill="none" stroke="midnightblue" d="M741.658,-518.317C749.486,-521.327 757.139,-524.958 764,-529.33 784.45,-542.362 780.357,-556.111 800,-570.33 817.205,-582.785 839,-592.275 857.002,-598.773"/>
<polygon fill="midnightblue" stroke="midnightblue" points="742.658,-514.959 732.064,-514.946 740.338,-521.563 742.658,-514.959"/>
</g>
<!-- Node642 -->
<g id="node23" class="node"><title>Node642</title>
<g id="a_node23"><a xlink:href="interfacex__ops_1_1calc__x.html#a837126ca92e7f4d6821261c835b987d4" target="_top" xlink:title="vectorial version ">
<polygon fill="white" stroke="black" points="600,-743.83 600,-764.83 755,-764.83 755,-743.83 600,-743.83"/>
<text text-anchor="middle" x="677.5" y="-751.23" font-family="Ubuntu Mono" font-size="12.00">x_ops::calc_x::calc_x_1</text>
</a>
</g>
</g>
<!-- Node641&#45;&gt;Node642 -->
<g id="edge34" class="edge"><title>Node641&#45;&gt;Node642</title>
<path fill="none" stroke="midnightblue" d="M526.357,-754.33C549.06,-754.33 575.551,-754.33 599.905,-754.33"/>
<polygon fill="midnightblue" stroke="midnightblue" points="526.213,-750.831 516.213,-754.33 526.213,-757.831 526.213,-750.831"/>
</g>
<!-- Node643&#45;&gt;Node627 -->
<g id="edge36" class="edge"><title>Node643&#45;&gt;Node627</title>
<path fill="none" stroke="midnightblue" d="M271.301,-275.012C289.889,-300.731 323.256,-348.916 346,-393.33 366.013,-432.412 362.606,-445.938 382,-485.33 405.006,-532.06 438.221,-583.696 455.708,-609.94"/>
<polygon fill="midnightblue" stroke="midnightblue" points="274.103,-272.915 265.384,-266.895 268.446,-277.038 274.103,-272.915"/>
</g>
<!-- Node643&#45;&gt;Node631 -->
<g id="edge37" class="edge"><title>Node643&#45;&gt;Node631</title>
<path fill="none" stroke="midnightblue" d="M262.674,-235.89C274.893,-192.488 310.073,-91.8007 382,-51.3305 529.964,31.9224 602.043,-0.395225 764,-51.3305 808.807,-65.4223 851.607,-101.474 874.428,-123.124"/>
<polygon fill="midnightblue" stroke="midnightblue" points="259.275,-235.052 260.054,-245.618 266.034,-236.872 259.275,-235.052"/>
</g>
<!-- Node643&#45;&gt;Node633 -->
<g id="edge38" class="edge"><title>Node643&#45;&gt;Node633</title>
<path fill="none" stroke="midnightblue" d="M268.971,-236.808C287.996,-206.612 329.264,-149.725 382,-127.33 469.854,-90.0231 586.004,-113.973 642.594,-129.727"/>
<polygon fill="midnightblue" stroke="midnightblue" points="265.827,-235.241 263.59,-245.597 271.797,-238.897 265.827,-235.241"/>
</g>
<!-- Node643&#45;&gt;Node635 -->
<g id="edge39" class="edge"><title>Node643&#45;&gt;Node635</title>
<path fill="none" stroke="midnightblue" d="M300.099,-243.084C359.201,-226.993 468.556,-205.572 555,-236.33 605.245,-254.209 649.773,-302.743 667.886,-324.511"/>
<polygon fill="midnightblue" stroke="midnightblue" points="299.046,-239.744 290.36,-245.812 300.934,-246.485 299.046,-239.744"/>
</g>
<!-- Node643&#45;&gt;Node636 -->
<g id="edge40" class="edge"><title>Node643&#45;&gt;Node636</title>
<path fill="none" stroke="midnightblue" d="M322.706,-268.751C363.01,-276.428 412.494,-285.853 441.934,-291.461"/>
<polygon fill="midnightblue" stroke="midnightblue" points="323.153,-265.273 312.675,-266.84 321.843,-272.149 323.153,-265.273"/>
</g>
<!-- Node643&#45;&gt;Node637 -->
<g id="edge41" class="edge"><title>Node643&#45;&gt;Node637</title>
<path fill="none" stroke="midnightblue" d="M350.296,-256.33C369.15,-256.33 388.536,-256.33 405.978,-256.33"/>
<polygon fill="midnightblue" stroke="midnightblue" points="350.196,-252.831 340.196,-256.33 350.196,-259.831 350.196,-252.831"/>
</g>
<!-- Node644&#45;&gt;Node622 -->
<g id="edge43" class="edge"><title>Node644&#45;&gt;Node622</title>
<path fill="none" stroke="midnightblue" d="M267.844,-647.059C284.373,-678.591 317.758,-742.3 346,-796.33 362.023,-826.985 352.421,-847.4 382,-865.33 447.752,-905.188 478.525,-873.293 555,-865.33 649.415,-855.5 686.655,-876.363 764,-821.33 838.889,-768.045 877.669,-655.703 888.378,-620.274"/>
<polygon fill="midnightblue" stroke="midnightblue" points="270.84,-645.236 263.097,-638.005 264.64,-648.487 270.84,-645.236"/>
</g>
<!-- Node644&#45;&gt;Node624 -->
<g id="edge44" class="edge"><title>Node644&#45;&gt;Node624</title>
<path fill="none" stroke="midnightblue" d="M282.396,-643.282C306.885,-658.347 345.765,-680.619 382,-694.33 391.695,-697.999 402.273,-701.13 412.579,-703.75"/>
<polygon fill="midnightblue" stroke="midnightblue" points="284.088,-640.212 273.75,-637.894 280.386,-646.153 284.088,-640.212"/>
</g>
<!-- Node644&#45;&gt;Node627 -->
<g id="edge45" class="edge"><title>Node644&#45;&gt;Node627</title>
<path fill="none" stroke="midnightblue" d="M347.2,-627.33C365.91,-627.33 385.281,-627.33 402.87,-627.33"/>
<polygon fill="midnightblue" stroke="midnightblue" points="347.191,-623.831 337.191,-627.33 347.191,-630.831 347.191,-623.831"/>
</g>
<!-- Node644&#45;&gt;Node635 -->
<g id="edge48" class="edge"><title>Node644&#45;&gt;Node635</title>
<path fill="none" stroke="midnightblue" d="M301.157,-613.413C362.314,-592.46 474.964,-548.435 555,-485.33 568.948,-474.333 643.118,-378.682 668.202,-346.126"/>
<polygon fill="midnightblue" stroke="midnightblue" points="299.79,-610.18 291.436,-616.697 302.031,-616.812 299.79,-610.18"/>
</g>
<!-- Node644&#45;&gt;Node636 -->
<g id="edge49" class="edge"><title>Node644&#45;&gt;Node636</title>
<path fill="none" stroke="midnightblue" d="M266.469,-607.677C282.455,-572.644 316.926,-497.098 346,-433.33 362.007,-398.223 357.109,-383.813 382,-354.33 399.588,-333.498 426.432,-316.957 445.341,-306.955"/>
<polygon fill="midnightblue" stroke="midnightblue" points="263.266,-606.266 262.298,-616.816 269.634,-609.172 263.266,-606.266"/>
</g>
<!-- Node644&#45;&gt;Node637 -->
<g id="edge50" class="edge"><title>Node644&#45;&gt;Node637</title>
<path fill="none" stroke="midnightblue" d="M268.071,-607.712C286.247,-573.289 323.618,-499.387 346,-433.33 368.974,-365.528 331.49,-327.062 382,-276.33 388.561,-269.741 396.85,-265.156 405.671,-261.994"/>
<polygon fill="midnightblue" stroke="midnightblue" points="264.893,-606.234 263.283,-616.706 271.072,-609.524 264.893,-606.234"/>
</g>
<!-- Node644&#45;&gt;Node638 -->
<g id="edge51" class="edge"><title>Node644&#45;&gt;Node638</title>
<path fill="none" stroke="midnightblue" d="M266.885,-607.2C285.106,-569.62 328.246,-487.602 382,-432.33 401.384,-412.4 428.638,-395.341 447.127,-384.984"/>
<polygon fill="midnightblue" stroke="midnightblue" points="263.566,-606.029 262.419,-616.562 269.884,-609.044 263.566,-606.029"/>
</g>
<!-- Node645 -->
<g id="node26" class="node"><title>Node645</title>
<g id="a_node26"><a xlink:href="namespacehelena__ops.html#a0f156b3653264fb016d6d311eb59114c" target="_top" xlink:title="Checks whether the metric elements provided by HELENA are consistent with a direct calculation using ...">
<polygon fill="white" stroke="black" points="382,-663.83 382,-684.83 555,-684.83 555,-663.83 382,-663.83"/>
<text text-anchor="middle" x="468.5" y="-671.23" font-family="Ubuntu Mono" font-size="12.00">helena_ops::test_metrics_h</text>
</a>
</g>
</g>
<!-- Node644&#45;&gt;Node645 -->
<g id="edge46" class="edge"><title>Node644&#45;&gt;Node645</title>
<path fill="none" stroke="midnightblue" d="M314.656,-640.123C347.875,-647.557 389.22,-656.811 420.529,-663.818"/>
<polygon fill="midnightblue" stroke="midnightblue" points="315.151,-636.647 304.628,-637.878 313.622,-643.478 315.151,-636.647"/>
</g>
<!-- Node645&#45;&gt;Node626 -->
<g id="edge47" class="edge"><title>Node645&#45;&gt;Node626</title>
<path fill="none" stroke="midnightblue" d="M565.198,-663.235C573.764,-662.242 582.402,-661.24 590.875,-660.258"/>
<polygon fill="midnightblue" stroke="midnightblue" points="564.719,-659.767 555.189,-664.395 565.526,-666.72 564.719,-659.767"/>
</g>
<!-- Node646&#45;&gt;Node622 -->
<g id="edge53" class="edge"><title>Node646&#45;&gt;Node622</title>
<path fill="none" stroke="midnightblue" d="M269.864,-835.516C289.563,-864.088 331.094,-916.668 382,-937.33 453.244,-966.247 479.421,-951.464 555,-937.33 652.924,-919.018 689.898,-922.914 764,-856.33 841.894,-786.339 879.345,-657.53 888.948,-619.908"/>
<polygon fill="midnightblue" stroke="midnightblue" points="272.731,-833.506 264.251,-827.154 266.918,-837.408 272.731,-833.506"/>
</g>
<!-- Node646&#45;&gt;Node624 -->
<g id="edge54" class="edge"><title>Node646&#45;&gt;Node624</title>
<path fill="none" stroke="midnightblue" d="M278.356,-799.229C302.068,-780.621 342.613,-751.267 382,-734.33 390.683,-730.597 400.175,-727.499 409.575,-724.947"/>
<polygon fill="midnightblue" stroke="midnightblue" points="276.056,-796.587 270.415,-805.556 280.418,-802.062 276.056,-796.587"/>
</g>
<!-- Node646&#45;&gt;Node626 -->
<g id="edge55" class="edge"><title>Node646&#45;&gt;Node626</title>
<path fill="none" stroke="midnightblue" d="M356.272,-809.657C429.19,-803.385 521.358,-792.237 555,-774.33 576.113,-763.093 574.462,-751.608 591,-734.33 616.9,-707.272 648.648,-676.736 665.216,-660.99"/>
<polygon fill="midnightblue" stroke="midnightblue" points="355.79,-806.185 346.118,-810.51 356.376,-813.16 355.79,-806.185"/>
</g>
<!-- Node646&#45;&gt;Node627 -->
<g id="edge56" class="edge"><title>Node646&#45;&gt;Node627</title>
<path fill="none" stroke="midnightblue" d="M267.506,-796.426C285.656,-762.311 327.251,-692.653 382,-654.33 388.376,-649.867 395.523,-646.117 402.897,-642.973"/>
<polygon fill="midnightblue" stroke="midnightblue" points="264.334,-794.938 262.826,-805.425 270.545,-798.168 264.334,-794.938"/>
</g>
<!-- Node646&#45;&gt;Node634 -->
<g id="edge64" class="edge"><title>Node646&#45;&gt;Node634</title>
<path fill="none" stroke="midnightblue" d="M286.65,-831.428C311.303,-843.298 347.952,-858.871 382,-865.33 457.542,-879.661 478.525,-873.293 555,-865.33 578.604,-862.873 747.942,-838.804 764,-821.33 808.09,-773.353 779.084,-592.042 800,-530.33 820.157,-470.857 864.666,-409.096 883.174,-384.921"/>
<polygon fill="midnightblue" stroke="midnightblue" points="288.019,-828.201 277.501,-826.927 284.928,-834.482 288.019,-828.201"/>
</g>
<!-- Node646&#45;&gt;Node641 -->
<g id="edge65" class="edge"><title>Node646&#45;&gt;Node641</title>
<path fill="none" stroke="midnightblue" d="M302.653,-802.859C326.282,-795.823 355.694,-787.085 382,-779.33 398.169,-774.564 416.07,-769.324 431.296,-764.878"/>
<polygon fill="midnightblue" stroke="midnightblue" points="301.491,-799.554 292.906,-805.763 303.489,-806.262 301.491,-799.554"/>
</g>
<!-- Node647 -->
<g id="node28" class="node"><title>Node647</title>
<g id="a_node28"><a xlink:href="namespacempi__ops.html#a804ec65ff711509de1f8873f97bdf967" target="_top" xlink:title="Start MPI and gather information. ">
<polygon fill="white" stroke="black" points="830,-1023.83 830,-1044.83 955,-1044.83 955,-1023.83 830,-1023.83"/>
<text text-anchor="middle" x="892.5" y="-1031.23" font-family="Ubuntu Mono" font-size="12.00">mpi_ops::start_mpi</text>
</a>
</g>
</g>
<!-- Node646&#45;&gt;Node647 -->
<g id="edge57" class="edge"><title>Node646&#45;&gt;Node647</title>
<path fill="none" stroke="midnightblue" d="M268.08,-835.62C286.592,-867.32 328.079,-929.852 382,-959.33 527.525,-1038.89 729.67,-1042.53 829.971,-1038.5"/>
<polygon fill="midnightblue" stroke="midnightblue" points="271.072,-833.802 263.084,-826.842 264.989,-837.264 271.072,-833.802"/>
</g>
<!-- Node648 -->
<g id="node29" class="node"><title>Node648</title>
<g id="a_node29"><a xlink:href="namespaceslepc__utilities.html#aa34aa361f0bfff9621ecba179f9ed0c6" target="_top" xlink:title="Insert a block pertaining to 1 normal point into a matrix. ">
<polygon fill="white" stroke="black" points="391,-822.33 391,-856.33 546,-856.33 546,-822.33 391,-822.33"/>
<text text-anchor="start" x="399" y="-842.73" font-family="Ubuntu Mono" font-size="12.00">slepc_utilities::insert</text>
<text text-anchor="middle" x="468.5" y="-829.73" font-family="Ubuntu Mono" font-size="12.00">_block_mat</text>
</a>
</g>
</g>
<!-- Node646&#45;&gt;Node648 -->
<g id="edge60" class="edge"><title>Node646&#45;&gt;Node648</title>
<path fill="none" stroke="midnightblue" d="M356.351,-827.157C367.886,-828.42 379.52,-829.695 390.694,-830.918"/>
<polygon fill="midnightblue" stroke="midnightblue" points="356.576,-823.661 346.255,-826.051 355.814,-830.619 356.576,-823.661"/>
</g>
<!-- Node647&#45;&gt;Node623 -->
<g id="edge58" class="edge"><title>Node647&#45;&gt;Node623</title>
<path fill="none" stroke="midnightblue" d="M965.365,-1039.54C1043.42,-1043.56 1161.35,-1044.3 1194,-1015.33 1238.61,-975.741 1247.66,-774.105 1249.21,-725.083"/>
<polygon fill="midnightblue" stroke="midnightblue" points="965.28,-1036.03 955.105,-1038.98 964.899,-1043.02 965.28,-1036.03"/>
</g>
<!-- Node647&#45;&gt;Node630 -->
<g id="edge59" class="edge"><title>Node647&#45;&gt;Node630</title>
<path fill="none" stroke="midnightblue" d="M960.856,-1022C1004.5,-1014.01 1058.33,-1004.15 1086.75,-998.946"/>
<polygon fill="midnightblue" stroke="midnightblue" points="960.066,-1018.58 950.86,-1023.83 961.327,-1025.47 960.066,-1018.58"/>
</g>
<!-- Node648&#45;&gt;Node633 -->
<g id="edge61" class="edge"><title>Node648&#45;&gt;Node633</title>
<path fill="none" stroke="midnightblue" d="M512.894,-816.749C528.89,-806.114 545.429,-791.87 555,-774.33 604.009,-684.519 564.068,-414.035 591,-315.33 609.069,-249.108 652.244,-177.871 669.347,-151.212"/>
<polygon fill="midnightblue" stroke="midnightblue" points="510.704,-813.992 504.11,-822.285 514.436,-819.914 510.704,-813.992"/>
</g>
<!-- Node649 -->
<g id="node30" class="node"><title>Node649</title>
<g id="a_node30"><a xlink:href="namespaceslepc__ops.html#a05f8a23335ed47ad1996cddf3bcfdc2e" target="_top" xlink:title="Sets the boundary conditions deep in the plasma (1) and at the edge (2). ">
<polygon fill="white" stroke="black" points="618,-790.83 618,-811.83 737,-811.83 737,-790.83 618,-790.83"/>
<text text-anchor="middle" x="677.5" y="-798.23" font-family="Ubuntu Mono" font-size="12.00">slepc_ops::set_bc</text>
</a>
</g>
</g>
<!-- Node648&#45;&gt;Node649 -->
<g id="edge62" class="edge"><title>Node648&#45;&gt;Node649</title>
<path fill="none" stroke="midnightblue" d="M556.298,-823.397C577.555,-819.494 599.779,-815.415 619.252,-811.84"/>
<polygon fill="midnightblue" stroke="midnightblue" points="555.489,-819.987 546.285,-825.235 556.753,-826.871 555.489,-819.987"/>
</g>
<!-- Node649&#45;&gt;Node631 -->
<g id="edge63" class="edge"><title>Node649&#45;&gt;Node631</title>
<path fill="none" stroke="midnightblue" d="M746.527,-788.556C753.204,-784.912 759.251,-780.261 764,-774.33 822.553,-701.21 777.299,-445.214 800,-354.33 819.192,-277.495 862.632,-192.871 881.94,-157.424"/>
<polygon fill="midnightblue" stroke="midnightblue" points="744.698,-785.546 737.095,-792.925 747.64,-791.897 744.698,-785.546"/>
</g>
<!-- Node650&#45;&gt;Node623 -->
<g id="edge67" class="edge"><title>Node650&#45;&gt;Node623</title>
<path fill="none" stroke="midnightblue" d="M950.145,-1086.56C1017.49,-1097.47 1128.92,-1103.52 1194,-1042.33 1241.54,-997.625 1248.4,-776.223 1249.35,-724.946"/>
<polygon fill="midnightblue" stroke="midnightblue" points="950.582,-1083.08 940.135,-1084.85 949.402,-1089.98 950.582,-1083.08"/>
</g>
<!-- Node650&#45;&gt;Node630 -->
<g id="edge68" class="edge"><title>Node650&#45;&gt;Node630</title>
<path fill="none" stroke="midnightblue" d="M961.433,-1061.37C969.455,-1059.29 977.463,-1056.94 985,-1054.33 1023.11,-1041.12 1064.86,-1019.03 1088.15,-1005.95"/>
<polygon fill="midnightblue" stroke="midnightblue" points="960.539,-1057.99 951.672,-1063.79 962.22,-1064.78 960.539,-1057.99"/>
</g>
</g>
</svg>
