<?xml version="1.0" encoding="UTF-8" standalone="no"?>
<!DOCTYPE svg PUBLIC "-//W3C//DTD SVG 1.1//EN"
 "http://www.w3.org/Graphics/SVG/1.1/DTD/svg11.dtd">
<!-- Generated by graphviz version 2.43.0 (0)
 -->
<!-- Title: rich_ops::start_rich_lvl Pages: 1 -->
<svg width="1096pt" height="356pt"
 viewBox="0.00 0.00 1096.00 356.28" xmlns="http://www.w3.org/2000/svg" xmlns:xlink="http://www.w3.org/1999/xlink">
<g id="graph0" class="graph" transform="scale(1 1) rotate(0) translate(4 352.28)">
<title>rich_ops::start_rich_lvl</title>
<polygon fill="white" stroke="transparent" points="-4,4 -4,-352.28 1092,-352.28 1092,4 -4,4"/>
<!-- Node1 -->
<g id="node1" class="node">
<title>Node1</title>
<g id="a_node1"><a xlink:title="Start a Richardson level.">
<polygon fill="#bfbfbf" stroke="black" points="0,-256.78 0,-277.78 149,-277.78 149,-256.78 0,-256.78"/>
<text text-anchor="middle" x="74.5" y="-264.18" font-family="Ubuntu Mono" font-size="12.00">rich_ops::start_rich_lvl</text>
</a>
</g>
</g>
<!-- Node2 -->
<g id="node2" class="node">
<title>Node2</title>
<g id="a_node2"><a xlink:href="namespaceeq__ops.html#a4e20b8725fce149449f83754244dc84e" target="_top" xlink:title="Calculate eq_jobs_lims.">
<polygon fill="white" stroke="black" points="185,-326.78 185,-347.78 356,-347.78 356,-326.78 185,-326.78"/>
<text text-anchor="middle" x="270.5" y="-334.18" font-family="Ubuntu Mono" font-size="12.00">eq_ops::calc_eq_jobs_lims</text>
</a>
</g>
</g>
<!-- Node1&#45;&gt;Node2 -->
<g id="edge1" class="edge">
<title>Node1&#45;&gt;Node2</title>
<path fill="none" stroke="midnightblue" d="M95.6,-277.9C117.2,-288.98 152.78,-306.23 185,-317.28 192.32,-319.79 200.1,-322.09 207.86,-324.18"/>
<polygon fill="midnightblue" stroke="midnightblue" points="207.1,-327.6 217.65,-326.7 208.84,-320.82 207.1,-327.6"/>
</g>
<!-- Node3 -->
<g id="node3" class="node">
<title>Node3</title>
<g id="a_node3"><a xlink:href="namespacegrid__utilities.html#adeb8c22db4d419a278d6fcc68a34100c" target="_top" xlink:title="Calculates the local number of parallel grid points for this Richardson level, taking into account th...">
<polygon fill="white" stroke="black" points="211,-273.28 211,-307.28 330,-307.28 330,-273.28 211,-273.28"/>
<text text-anchor="start" x="219" y="-293.68" font-family="Ubuntu Mono" font-size="12.00">grid_utilities::calc</text>
<text text-anchor="middle" x="270.5" y="-280.68" font-family="Ubuntu Mono" font-size="12.00">_n_par_x_rich</text>
</a>
</g>
</g>
<!-- Node1&#45;&gt;Node3 -->
<g id="edge2" class="edge">
<title>Node1&#45;&gt;Node3</title>
<path fill="none" stroke="midnightblue" d="M149.12,-276.01C165.99,-278 183.85,-280.12 200.52,-282.1"/>
<polygon fill="midnightblue" stroke="midnightblue" points="200.37,-285.61 210.71,-283.31 201.2,-278.65 200.37,-285.61"/>
</g>
<!-- Node4 -->
<g id="node4" class="node">
<title>Node4</title>
<g id="a_node4"><a xlink:href="namespaceeq__ops.html#a8fae749abe55865d8135fef536a8e8f1" target="_top" xlink:title="Divides the equilibrium jobs.">
<polygon fill="white" stroke="black" points="194.5,-100.78 194.5,-121.78 346.5,-121.78 346.5,-100.78 194.5,-100.78"/>
<text text-anchor="middle" x="270.5" y="-108.18" font-family="Ubuntu Mono" font-size="12.00">eq_ops::divide_eq_jobs</text>
</a>
</g>
</g>
<!-- Node1&#45;&gt;Node4 -->
<g id="edge3" class="edge">
<title>Node1&#45;&gt;Node4</title>
<path fill="none" stroke="midnightblue" d="M88.83,-256.55C122,-229.88 208.43,-160.39 248.51,-128.15"/>
<polygon fill="midnightblue" stroke="midnightblue" points="250.73,-130.86 256.33,-121.87 246.34,-125.41 250.73,-130.86"/>
</g>
<!-- Node8 -->
<g id="node8" class="node">
<title>Node8</title>
<g id="a_node8"><a xlink:href="namespacemessages.html#aa4a8d01563e92558e8a0875b075ec54c" target="_top" xlink:title="Write output to file identified by output_i.">
<polygon fill="white" stroke="black" points="755,-57.78 755,-78.78 869,-78.78 869,-57.78 755,-57.78"/>
<text text-anchor="middle" x="812" y="-65.18" font-family="Ubuntu Mono" font-size="12.00">messages::writo</text>
</a>
</g>
</g>
<!-- Node1&#45;&gt;Node8 -->
<g id="edge15" class="edge">
<title>Node1&#45;&gt;Node8</title>
<path fill="none" stroke="midnightblue" d="M149.38,-265.25C266.72,-261.32 490.08,-250.67 565,-225.28 658.18,-193.69 751.54,-119.69 791.2,-85.79"/>
<polygon fill="midnightblue" stroke="midnightblue" points="793.55,-88.39 798.82,-79.2 788.97,-83.09 793.55,-88.39"/>
</g>
<!-- Node5 -->
<g id="node5" class="node">
<title>Node5</title>
<g id="a_node5"><a xlink:href="namespaceeq__utilities.html#a5a9f230ed9a6e627e31e882e9f4a00a1" target="_top" xlink:title="Calculate memory in MB necessary for variables in equilibrium job.">
<polygon fill="white" stroke="black" points="423,-141.28 423,-175.28 534,-175.28 534,-141.28 423,-141.28"/>
<text text-anchor="start" x="431" y="-161.68" font-family="Ubuntu Mono" font-size="12.00">eq_utilities::calc</text>
<text text-anchor="middle" x="478.5" y="-148.68" font-family="Ubuntu Mono" font-size="12.00">_memory_eq</text>
</a>
</g>
</g>
<!-- Node4&#45;&gt;Node5 -->
<g id="edge4" class="edge">
<title>Node4&#45;&gt;Node5</title>
<path fill="none" stroke="midnightblue" d="M317.73,-121.82C345.77,-128.22 381.98,-136.48 412.84,-143.52"/>
<polygon fill="midnightblue" stroke="midnightblue" points="412.12,-146.95 422.65,-145.76 413.68,-140.13 412.12,-146.95"/>
</g>
<!-- Node6 -->
<g id="node6" class="node">
<title>Node6</title>
<g id="a_node6"><a xlink:href="namespacex__utilities.html#a4d18921da77463d069346f1c7322b451" target="_top" xlink:title="Calculate memory in MB necessary for X variables.">
<polygon fill="white" stroke="black" points="392,-100.78 392,-121.78 565,-121.78 565,-100.78 392,-100.78"/>
<text text-anchor="middle" x="478.5" y="-108.18" font-family="Ubuntu Mono" font-size="12.00">x_utilities::calc_memory_x</text>
</a>
</g>
</g>
<!-- Node4&#45;&gt;Node6 -->
<g id="edge5" class="edge">
<title>Node4&#45;&gt;Node6</title>
<path fill="none" stroke="midnightblue" d="M346.75,-111.28C358.03,-111.28 369.81,-111.28 381.46,-111.28"/>
<polygon fill="midnightblue" stroke="midnightblue" points="381.65,-114.78 391.65,-111.28 381.65,-107.78 381.65,-114.78"/>
</g>
<!-- Node7 -->
<g id="node7" class="node">
<title>Node7</title>
<g id="a_node7"><a xlink:href="namespacemessages.html#a6e6bfb084063e4cc91ee86e542043302" target="_top" xlink:title="Increases/decreases lvl of output.">
<polygon fill="white" stroke="black" points="601,-62.78 601,-83.78 719,-83.78 719,-62.78 601,-62.78"/>
<text text-anchor="middle" x="660" y="-70.18" font-family="Ubuntu Mono" font-size="12.00">messages::lvl_ud</text>
</a>
</g>
</g>
<!-- Node4&#45;&gt;Node7 -->
<g id="edge12" class="edge">
<title>Node4&#45;&gt;Node7</title>
<path fill="none" stroke="midnightblue" d="M328.04,-100.73C348.17,-97.28 371.04,-93.72 392,-91.28 459.31,-83.44 536.59,-78.69 590.63,-76.05"/>
<polygon fill="midnightblue" stroke="midnightblue" points="590.96,-79.54 600.78,-75.57 590.62,-72.55 590.96,-79.54"/>
</g>
<!-- Node4&#45;&gt;Node8 -->
<g id="edge14" class="edge">
<title>Node4&#45;&gt;Node8</title>
<path fill="none" stroke="midnightblue" d="M299.3,-100.67C323.45,-91.91 359.54,-79.87 392,-73.28 534.69,-44.29 573.87,-41.52 719,-53.28 727.46,-53.96 736.32,-55 745.06,-56.21"/>
<polygon fill="midnightblue" stroke="midnightblue" points="744.83,-59.71 755.23,-57.7 745.84,-52.79 744.83,-59.71"/>
</g>
<!-- Node11 -->
<g id="node11" class="node">
<title>Node11</title>
<g id="a_node11"><a xlink:href="namespacestr__utilities.html#a0b97e51770725a3e98ed393d26681414" target="_top" xlink:title="Convert an integer to string.">
<polygon fill="white" stroke="black" points="939.5,-3.78 939.5,-24.78 1053.5,-24.78 1053.5,-3.78 939.5,-3.78"/>
<text text-anchor="middle" x="996.5" y="-11.18" font-family="Ubuntu Mono" font-size="12.00">str_utilities::i2str</text>
</a>
</g>
</g>
<!-- Node4&#45;&gt;Node11 -->
<g id="edge11" class="edge">
<title>Node4&#45;&gt;Node11</title>
<path fill="none" stroke="midnightblue" d="M285.36,-100.55C306.81,-84.65 349.99,-55.4 392,-43.28 580.62,11.15 816.01,1.49 928.97,-7.63"/>
<polygon fill="midnightblue" stroke="midnightblue" points="928.93,-11.14 939.18,-8.48 929.51,-4.17 928.93,-11.14"/>
</g>
<!-- Node12 -->
<g id="node12" class="node">
<title>Node12</title>
<g id="a_node12"><a xlink:href="namespacestr__utilities.html#ac778d706b2e021672618939ab58fdd32" target="_top" xlink:title="Convert a real (double) to string.">
<polygon fill="white" stroke="black" points="418,-194.78 418,-215.78 539,-215.78 539,-194.78 418,-194.78"/>
<text text-anchor="middle" x="478.5" y="-202.18" font-family="Ubuntu Mono" font-size="12.00">str_utilities::r2strt</text>
</a>
</g>
</g>
<!-- Node4&#45;&gt;Node12 -->
<g id="edge13" class="edge">
<title>Node4&#45;&gt;Node12</title>
<path fill="none" stroke="midnightblue" d="M285.53,-121.99C307.21,-138.05 350.68,-168.28 392,-185.28 397.92,-187.71 404.2,-189.89 410.56,-191.82"/>
<polygon fill="midnightblue" stroke="midnightblue" points="410.01,-195.3 420.59,-194.67 411.92,-188.57 410.01,-195.3"/>
</g>
<!-- Node6&#45;&gt;Node7 -->
<g id="edge6" class="edge">
<title>Node6&#45;&gt;Node7</title>
<path fill="none" stroke="midnightblue" d="M529.5,-100.69C551.19,-96.1 576.76,-90.69 599.42,-85.89"/>
<polygon fill="midnightblue" stroke="midnightblue" points="600.21,-89.3 609.27,-83.81 598.76,-82.45 600.21,-89.3"/>
</g>
<!-- Node7&#45;&gt;Node8 -->
<g id="edge7" class="edge">
<title>Node7&#45;&gt;Node8</title>
<path fill="none" stroke="midnightblue" d="M719.42,-71.33C727.73,-71.05 736.32,-70.77 744.76,-70.48"/>
<polygon fill="midnightblue" stroke="midnightblue" points="745.07,-73.98 754.95,-70.15 744.84,-66.98 745.07,-73.98"/>
</g>
<!-- Node9 -->
<g id="node9" class="node">
<title>Node9</title>
<g id="a_node9"><a xlink:href="namespacemessages.html#a61fd0b51b5e37d58fdc993c01792a3fd" target="_top" xlink:title="Returns the time.">
<polygon fill="white" stroke="black" points="926.5,-52.78 926.5,-73.78 1066.5,-73.78 1066.5,-52.78 926.5,-52.78"/>
<text text-anchor="middle" x="996.5" y="-60.18" font-family="Ubuntu Mono" font-size="12.00">messages::get_clock</text>
</a>
</g>
</g>
<!-- Node8&#45;&gt;Node9 -->
<g id="edge8" class="edge">
<title>Node8&#45;&gt;Node9</title>
<path fill="none" stroke="midnightblue" d="M869.25,-66.74C884.02,-66.33 900.24,-65.89 915.99,-65.46"/>
<polygon fill="midnightblue" stroke="midnightblue" points="916.35,-68.95 926.25,-65.17 916.16,-61.95 916.35,-68.95"/>
</g>
<!-- Node10 -->
<g id="node10" class="node">
<title>Node10</title>
<g id="a_node10"><a xlink:href="namespacemessages.html#a82dddaab795b78b3d39e1ff1aab2f665" target="_top" xlink:title="Returns the memory usage in kilobytes.">
<polygon fill="white" stroke="black" points="905,-92.78 905,-113.78 1088,-113.78 1088,-92.78 905,-92.78"/>
<text text-anchor="middle" x="996.5" y="-100.18" font-family="Ubuntu Mono" font-size="12.00">messages::get_mem_usage</text>
</a>
</g>
</g>
<!-- Node8&#45;&gt;Node10 -->
<g id="edge9" class="edge">
<title>Node8&#45;&gt;Node10</title>
<path fill="none" stroke="midnightblue" d="M867.76,-78.78C887.52,-82.57 910.01,-86.88 930.56,-90.82"/>
<polygon fill="midnightblue" stroke="midnightblue" points="929.99,-94.28 940.47,-92.72 931.31,-87.4 929.99,-94.28"/>
</g>
<!-- Node8&#45;&gt;Node11 -->
<g id="edge10" class="edge">
<title>Node8&#45;&gt;Node11</title>
<path fill="none" stroke="midnightblue" d="M848.62,-57.74C877.64,-49.15 918.79,-36.97 950.16,-27.69"/>
<polygon fill="midnightblue" stroke="midnightblue" points="951.37,-30.98 959.97,-24.79 949.39,-24.27 951.37,-30.98"/>
</g>
</g>
</svg>
