<?xml version="1.0" encoding="UTF-8" standalone="no"?>
<!DOCTYPE svg PUBLIC "-//W3C//DTD SVG 1.1//EN"
 "http://www.w3.org/Graphics/SVG/1.1/DTD/svg11.dtd">
<!-- Generated by graphviz version 2.38.0 (20140413.2041)
 -->
<!-- Title: messages::stop_time Pages: 1 -->
<svg width="1613pt" height="1160pt"
 viewBox="0.00 0.00 1613.00 1159.78" xmlns="http://www.w3.org/2000/svg" xmlns:xlink="http://www.w3.org/1999/xlink">
<g id="graph0" class="graph" transform="scale(1 1) rotate(0) translate(4 1155.78)">
<title>messages::stop_time</title>
<polygon fill="white" stroke="none" points="-4,4 -4,-1155.78 1609,-1155.78 1609,4 -4,4"/>
<!-- Node565 -->
<g id="node1" class="node"><title>Node565</title>
<polygon fill="#bfbfbf" stroke="black" points="0,-378.28 0,-399.28 131,-399.28 131,-378.28 0,-378.28"/>
<text text-anchor="middle" x="65.5" y="-385.68" font-family="Ubuntu Mono" font-size="12.00">messages::stop_time</text>
</g>
<!-- Node566 -->
<g id="node2" class="node"><title>Node566</title>
<g id="a_node2"><a xlink:href="namespaceinput__utilities.html#ad9ce824c30b32041ab70f3fb191f06db" target="_top" xlink:title="input_utilities::get_log">
<polygon fill="white" stroke="black" points="176,-607.28 176,-628.28 337,-628.28 337,-607.28 176,-607.28"/>
<text text-anchor="middle" x="256.5" y="-614.68" font-family="Ubuntu Mono" font-size="12.00">input_utilities::get_log</text>
</a>
</g>
</g>
<!-- Node565&#45;&gt;Node566 -->
<g id="edge1" class="edge"><title>Node565&#45;&gt;Node566</title>
<path fill="none" stroke="midnightblue" d="M81.9318,-407.478C119.888,-453.467 216.861,-570.964 246.657,-607.066"/>
<polygon fill="midnightblue" stroke="midnightblue" points="84.4271,-405.003 75.3624,-399.518 79.0284,-409.459 84.4271,-405.003"/>
</g>
<!-- Node569 -->
<g id="node5" class="node"><title>Node569</title>
<g id="a_node5"><a xlink:href="PB3D_8f90.html#afaee01f014ab3398eecac996b2795fd2" target="_top" xlink:title="pb3d">
<polygon fill="white" stroke="black" points="1564,-788.28 1564,-809.28 1605,-809.28 1605,-788.28 1564,-788.28"/>
<text text-anchor="middle" x="1584.5" y="-795.68" font-family="Ubuntu Mono" font-size="12.00">pb3d</text>
</a>
</g>
</g>
<!-- Node565&#45;&gt;Node569 -->
<g id="edge76" class="edge"><title>Node565&#45;&gt;Node569</title>
<path fill="none" stroke="midnightblue" d="M68.3192,-409.502C76.3994,-498.189 111.123,-845.462 167,-937.78 251.899,-1078.05 303.539,-1151.78 467.5,-1151.78 467.5,-1151.78 467.5,-1151.78 1254.5,-1151.78 1446.76,-1151.78 1558.72,-868.08 1579.83,-809.345"/>
<polygon fill="midnightblue" stroke="midnightblue" points="71.7902,-409.021 67.4107,-399.374 64.8182,-409.646 71.7902,-409.021"/>
</g>
<!-- Node577 -->
<g id="node13" class="node"><title>Node577</title>
<g id="a_node13"><a xlink:href="POST_8f90.html#ac289b64ac4671fea0b4f2298ba1188a1" target="_top" xlink:title="post">
<polygon fill="white" stroke="black" points="1233,-548.28 1233,-569.28 1274,-569.28 1274,-548.28 1233,-548.28"/>
<text text-anchor="middle" x="1253.5" y="-555.68" font-family="Ubuntu Mono" font-size="12.00">post</text>
</a>
</g>
</g>
<!-- Node565&#45;&gt;Node577 -->
<g id="edge77" class="edge"><title>Node565&#45;&gt;Node577</title>
<path fill="none" stroke="midnightblue" d="M72.2786,-368.461C84.1586,-329.898 114.695,-245.354 167,-193.78 271.128,-91.1096 321.267,-59.7804 467.5,-59.7804 467.5,-59.7804 467.5,-59.7804 881.5,-59.7804 942.202,-59.7804 1143.7,-137.619 1152,-146.78 1208.58,-209.271 1244.35,-489.639 1251.27,-548.084"/>
<polygon fill="midnightblue" stroke="midnightblue" points="68.922,-367.47 69.4199,-378.053 75.6304,-369.469 68.922,-367.47"/>
</g>
<!-- Node588 -->
<g id="node24" class="node"><title>Node588</title>
<g id="a_node24"><a xlink:href="namespaceinput__utilities.html#a41fc0c806e12bc722771210cfa1edbd3" target="_top" xlink:title="input_utilities::get_real">
<polygon fill="white" stroke="black" points="173,-203.28 173,-224.28 340,-224.28 340,-203.28 173,-203.28"/>
<text text-anchor="middle" x="256.5" y="-210.68" font-family="Ubuntu Mono" font-size="12.00">input_utilities::get_real</text>
</a>
</g>
</g>
<!-- Node565&#45;&gt;Node588 -->
<g id="edge34" class="edge"><title>Node565&#45;&gt;Node588</title>
<path fill="none" stroke="midnightblue" d="M85.5955,-371.099C124.672,-334.918 212.718,-253.393 244.113,-224.324"/>
<polygon fill="midnightblue" stroke="midnightblue" points="82.998,-368.735 78.0383,-378.097 87.7539,-373.871 82.998,-368.735"/>
</g>
<!-- Node591 -->
<g id="node27" class="node"><title>Node591</title>
<g id="a_node27"><a xlink:href="namespaceinput__utilities.html#a03e09af96ba6f7e187ea4a1d9b743148" target="_top" xlink:title="input_utilities::get_int">
<polygon fill="white" stroke="black" points="176,-378.28 176,-399.28 337,-399.28 337,-378.28 176,-378.28"/>
<text text-anchor="middle" x="256.5" y="-385.68" font-family="Ubuntu Mono" font-size="12.00">input_utilities::get_int</text>
</a>
</g>
</g>
<!-- Node565&#45;&gt;Node591 -->
<g id="edge43" class="edge"><title>Node565&#45;&gt;Node591</title>
<path fill="none" stroke="midnightblue" d="M141.317,-388.78C152.678,-388.78 164.437,-388.78 175.896,-388.78"/>
<polygon fill="midnightblue" stroke="midnightblue" points="141.014,-385.281 131.014,-388.78 141.014,-392.281 141.014,-385.281"/>
</g>
<!-- Node593 -->
<g id="node29" class="node"><title>Node593</title>
<g id="a_node29"><a xlink:href="namespaceinput__utilities.html#a71bd36f063d55ab62c7a37864aef1185" target="_top" xlink:title="input_utilities::pause_prog">
<polygon fill="white" stroke="black" points="167,-907.28 167,-928.28 346,-928.28 346,-907.28 167,-907.28"/>
<text text-anchor="middle" x="256.5" y="-914.68" font-family="Ubuntu Mono" font-size="12.00">input_utilities::pause_prog</text>
</a>
</g>
</g>
<!-- Node565&#45;&gt;Node593 -->
<g id="edge55" class="edge"><title>Node565&#45;&gt;Node593</title>
<path fill="none" stroke="midnightblue" d="M73.6907,-408.907C104.946,-496.389 228.466,-842.114 251.716,-907.188"/>
<polygon fill="midnightblue" stroke="midnightblue" points="76.9359,-407.587 70.2753,-399.347 70.3439,-409.942 76.9359,-407.587"/>
</g>
<!-- Node599 -->
<g id="node35" class="node"><title>Node599</title>
<g id="a_node35"><a xlink:href="namespacemessages.html#aced7e14a8b4fbed8eae60217b71ca546" target="_top" xlink:title="messages::passed_time">
<polygon fill="white" stroke="black" points="1009,-10.2804 1009,-31.2804 1152,-31.2804 1152,-10.2804 1009,-10.2804"/>
<text text-anchor="middle" x="1080.5" y="-17.6804" font-family="Ubuntu Mono" font-size="12.00">messages::passed_time</text>
</a>
</g>
</g>
<!-- Node565&#45;&gt;Node599 -->
<g id="edge73" class="edge"><title>Node565&#45;&gt;Node599</title>
<path fill="none" stroke="midnightblue" d="M69.4938,-368.031C79.7063,-300.338 115.423,-87.8647 167,-45.7804 270.837,38.9449 333.483,-20.7804 467.5,-20.7804 467.5,-20.7804 467.5,-20.7804 672.5,-20.7804 790.502,-20.7804 927.748,-20.7804 1008.91,-20.7804"/>
<polygon fill="midnightblue" stroke="midnightblue" points="66.0297,-367.531 68.027,-377.936 72.9542,-368.557 66.0297,-367.531"/>
</g>
<!-- Node567 -->
<g id="node3" class="node"><title>Node567</title>
<g id="a_node3"><a xlink:href="driver__eq_8f90.html#ad281a6a457fca3e46dd9e1ba4de9a632" target="_top" xlink:title="plot_info_for_vmec\l_hel_comparision">
<polygon fill="white" stroke="black" points="406,-724.78 406,-758.78 531,-758.78 531,-724.78 406,-724.78"/>
<text text-anchor="start" x="414" y="-745.18" font-family="Ubuntu Mono" font-size="12.00">plot_info_for_vmec</text>
<text text-anchor="middle" x="468.5" y="-732.18" font-family="Ubuntu Mono" font-size="12.00">_hel_comparision</text>
</a>
</g>
</g>
<!-- Node566&#45;&gt;Node567 -->
<g id="edge2" class="edge"><title>Node566&#45;&gt;Node567</title>
<path fill="none" stroke="midnightblue" d="M275.542,-635.269C298.543,-656.71 340.342,-692.887 382,-714.78 389.441,-718.691 397.547,-722.153 405.706,-725.182"/>
<polygon fill="midnightblue" stroke="midnightblue" points="277.892,-632.675 268.221,-628.348 273.083,-637.761 277.892,-632.675"/>
</g>
<!-- Node570 -->
<g id="node6" class="node"><title>Node570</title>
<g id="a_node6"><a xlink:href="driver__X_8f90.html#ae1cbf887791dfb7f7ccf42abb9a8aed6" target="_top" xlink:title="plot_info_for_vmec\l_hel_comparison">
<polygon fill="white" stroke="black" points="406,-777.78 406,-811.78 531,-811.78 531,-777.78 406,-777.78"/>
<text text-anchor="start" x="414" y="-798.18" font-family="Ubuntu Mono" font-size="12.00">plot_info_for_vmec</text>
<text text-anchor="middle" x="468.5" y="-785.18" font-family="Ubuntu Mono" font-size="12.00">_hel_comparison</text>
</a>
</g>
</g>
<!-- Node566&#45;&gt;Node570 -->
<g id="edge5" class="edge"><title>Node566&#45;&gt;Node570</title>
<path fill="none" stroke="midnightblue" d="M268.686,-637.527C287.809,-669.537 329.824,-732.698 382,-767.78 389.234,-772.644 397.394,-776.672 405.73,-779.997"/>
<polygon fill="midnightblue" stroke="midnightblue" points="271.569,-635.525 263.5,-628.659 265.526,-639.058 271.569,-635.525"/>
</g>
<!-- Node573 -->
<g id="node9" class="node"><title>Node573</title>
<g id="a_node9"><a xlink:href="eq__ops_8f90.html#aecc1d4103aa82217d3014ebb09d7f1e5" target="_top" xlink:title="write_flux_q_in_file\l_for_vmec">
<polygon fill="white" stroke="black" points="400,-478.78 400,-512.78 537,-512.78 537,-478.78 400,-478.78"/>
<text text-anchor="start" x="408" y="-499.18" font-family="Ubuntu Mono" font-size="12.00">write_flux_q_in_file</text>
<text text-anchor="middle" x="468.5" y="-486.18" font-family="Ubuntu Mono" font-size="12.00">_for_vmec</text>
</a>
</g>
</g>
<!-- Node566&#45;&gt;Node573 -->
<g id="edge9" class="edge"><title>Node566&#45;&gt;Node573</title>
<path fill="none" stroke="midnightblue" d="M277.759,-600.494C301.508,-580.878 342.64,-548.877 382,-527.78 392.337,-522.24 403.842,-517.228 414.977,-512.903"/>
<polygon fill="midnightblue" stroke="midnightblue" points="275.262,-598.02 269.832,-607.117 279.75,-603.392 275.262,-598.02"/>
</g>
<!-- Node574 -->
<g id="node10" class="node"><title>Node574</title>
<g id="a_node10"><a xlink:href="namespaceeq__ops.html#a91256e08dadab2ccbabd66cf369c43a5" target="_top" xlink:title="eq_ops::calc_eq_2">
<polygon fill="white" stroke="black" points="612,-535.28 612,-556.28 731,-556.28 731,-535.28 612,-535.28"/>
<text text-anchor="middle" x="671.5" y="-542.68" font-family="Ubuntu Mono" font-size="12.00">eq_ops::calc_eq_2</text>
</a>
</g>
</g>
<!-- Node566&#45;&gt;Node574 -->
<g id="edge10" class="edge"><title>Node566&#45;&gt;Node574</title>
<path fill="none" stroke="midnightblue" d="M327.986,-605.492C408.004,-591.542 537.098,-569.037 611.848,-556.005"/>
<polygon fill="midnightblue" stroke="midnightblue" points="327.246,-602.068 317.996,-607.234 328.449,-608.964 327.246,-602.068"/>
</g>
<!-- Node575 -->
<g id="node11" class="node"><title>Node575</title>
<g id="a_node11"><a xlink:href="namespaceeq__ops.html#a9ecb744b3812fe838f13c9886307da24" target="_top" xlink:title="eq_ops::kappa_plot">
<polygon fill="white" stroke="black" points="406,-684.28 406,-705.28 531,-705.28 531,-684.28 406,-684.28"/>
<text text-anchor="middle" x="468.5" y="-691.68" font-family="Ubuntu Mono" font-size="12.00">eq_ops::kappa_plot</text>
</a>
</g>
</g>
<!-- Node566&#45;&gt;Node575 -->
<g id="edge11" class="edge"><title>Node566&#45;&gt;Node575</title>
<path fill="none" stroke="midnightblue" d="M289.932,-632.494C314.833,-643.504 350.223,-658.538 382,-669.78 396.871,-675.042 413.465,-680.079 428.048,-684.236"/>
<polygon fill="midnightblue" stroke="midnightblue" points="291.162,-629.21 280.603,-628.34 288.315,-635.605 291.162,-629.21"/>
</g>
<!-- Node578 -->
<g id="node14" class="node"><title>Node578</title>
<g id="a_node14"><a xlink:href="namespaceeq__ops.html#aef40d04e93f6a96576f8fe893fb086f8" target="_top" xlink:title="eq_ops::test_jac_v">
<polygon fill="white" stroke="black" points="406,-438.28 406,-459.28 531,-459.28 531,-438.28 406,-438.28"/>
<text text-anchor="middle" x="468.5" y="-445.68" font-family="Ubuntu Mono" font-size="12.00">eq_ops::test_jac_v</text>
</a>
</g>
</g>
<!-- Node566&#45;&gt;Node578 -->
<g id="edge15" class="edge"><title>Node566&#45;&gt;Node578</title>
<path fill="none" stroke="midnightblue" d="M268.155,-598.188C286.779,-565.897 328.424,-501.795 382,-468.78 389.268,-464.302 397.447,-460.826 405.792,-458.127"/>
<polygon fill="midnightblue" stroke="midnightblue" points="264.984,-596.687 263.127,-607.118 271.083,-600.122 264.984,-596.687"/>
</g>
<!-- Node579 -->
<g id="node15" class="node"><title>Node579</title>
<g id="a_node15"><a xlink:href="namespaceslepc__ops.html#ad9d4a9b7275ac5a6b9b35e481a7c1710" target="_top" xlink:title="slepc_ops::solve_ev\l_system_slepc">
<polygon fill="white" stroke="black" points="1188,-826.78 1188,-860.78 1319,-860.78 1319,-826.78 1188,-826.78"/>
<text text-anchor="start" x="1196" y="-847.18" font-family="Ubuntu Mono" font-size="12.00">slepc_ops::solve_ev</text>
<text text-anchor="middle" x="1253.5" y="-834.18" font-family="Ubuntu Mono" font-size="12.00">_system_slepc</text>
</a>
</g>
</g>
<!-- Node566&#45;&gt;Node579 -->
<g id="edge17" class="edge"><title>Node566&#45;&gt;Node579</title>
<path fill="none" stroke="midnightblue" d="M263.219,-638.519C276.22,-681.243 312.399,-778.591 382,-820.78 436.957,-854.093 606.235,-840.78 670.5,-840.78 670.5,-840.78 670.5,-840.78 881.5,-840.78 988.907,-840.78 1113.8,-842.053 1187.83,-842.941"/>
<polygon fill="midnightblue" stroke="midnightblue" points="266.508,-637.294 260.344,-628.676 259.788,-639.257 266.508,-637.294"/>
</g>
<!-- Node581 -->
<g id="node17" class="node"><title>Node581</title>
<g id="a_node17"><a xlink:href="namespaceslepc__ops.html#af8aa2b9b7c5154ebd595afce3f5ebcd0" target="_top" xlink:title="slepc_ops::setup_mats">
<polygon fill="white" stroke="black" points="1009,-953.28 1009,-974.28 1152,-974.28 1152,-953.28 1009,-953.28"/>
<text text-anchor="middle" x="1080.5" y="-960.68" font-family="Ubuntu Mono" font-size="12.00">slepc_ops::setup_mats</text>
</a>
</g>
</g>
<!-- Node566&#45;&gt;Node581 -->
<g id="edge20" class="edge"><title>Node566&#45;&gt;Node581</title>
<path fill="none" stroke="midnightblue" d="M261.767,-638.445C272.639,-685.44 306.065,-800.448 382,-854.78 432.586,-890.975 841.533,-938.306 1008.69,-956.353"/>
<polygon fill="midnightblue" stroke="midnightblue" points="265.15,-637.53 259.577,-628.52 258.314,-639.039 265.15,-637.53"/>
</g>
<!-- Node582 -->
<g id="node18" class="node"><title>Node582</title>
<g id="a_node18"><a xlink:href="namespacetest.html#aca21ee464c0b1f4b617177afdde110ec" target="_top" xlink:title="test::generic_tests">
<polygon fill="white" stroke="black" points="1015,-548.28 1015,-569.28 1146,-569.28 1146,-548.28 1015,-548.28"/>
<text text-anchor="middle" x="1080.5" y="-555.68" font-family="Ubuntu Mono" font-size="12.00">test::generic_tests</text>
</a>
</g>
</g>
<!-- Node566&#45;&gt;Node582 -->
<g id="edge22" class="edge"><title>Node566&#45;&gt;Node582</title>
<path fill="none" stroke="midnightblue" d="M311.339,-630.48C333.141,-635.014 358.638,-639.549 382,-641.78 633.289,-665.78 934.239,-596.7 1040.24,-569.377"/>
<polygon fill="midnightblue" stroke="midnightblue" points="311.792,-626.998 301.282,-628.336 310.333,-633.844 311.792,-626.998"/>
</g>
<!-- Node583 -->
<g id="node19" class="node"><title>Node583</title>
<g id="a_node19"><a xlink:href="namespacetest.html#af72aaa5773b5bef2ac8d25fd05378439" target="_top" xlink:title="test::test_interp">
<polygon fill="white" stroke="black" points="821,-372.28 821,-393.28 940,-393.28 940,-372.28 821,-372.28"/>
<text text-anchor="middle" x="880.5" y="-379.68" font-family="Ubuntu Mono" font-size="12.00">test::test_interp</text>
</a>
</g>
</g>
<!-- Node566&#45;&gt;Node583 -->
<g id="edge25" class="edge"><title>Node566&#45;&gt;Node583</title>
<path fill="none" stroke="midnightblue" d="M337.104,-629.441C440.806,-640.421 623.956,-645.03 752,-565.78 821.802,-522.578 863.433,-425.43 875.681,-393.311"/>
<polygon fill="midnightblue" stroke="midnightblue" points="337.337,-625.945 327.013,-628.325 336.568,-632.903 337.337,-625.945"/>
</g>
<!-- Node584 -->
<g id="node20" class="node"><title>Node584</title>
<g id="a_node20"><a xlink:href="test_8f90.html#ac59a32c8a4039263eb65c3990732d878" target="_top" xlink:title="setup_x">
<polygon fill="white" stroke="black" points="642,-280.28 642,-301.28 701,-301.28 701,-280.28 642,-280.28"/>
<text text-anchor="middle" x="671.5" y="-287.68" font-family="Ubuntu Mono" font-size="12.00">setup_x</text>
</a>
</g>
</g>
<!-- Node566&#45;&gt;Node584 -->
<g id="edge27" class="edge"><title>Node566&#45;&gt;Node584</title>
<path fill="none" stroke="midnightblue" d="M287.916,-602.843C312.777,-591.061 349.069,-574.829 382,-563.78 457.013,-538.613 493.113,-571.079 555,-521.78 630.753,-461.437 660.899,-338.471 668.47,-301.517"/>
<polygon fill="midnightblue" stroke="midnightblue" points="286.163,-599.801 278.655,-607.276 289.186,-606.115 286.163,-599.801"/>
</g>
<!-- Node585 -->
<g id="node21" class="node"><title>Node585</title>
<g id="a_node21"><a xlink:href="test_8f90.html#a2da760282029987928d286425c000648" target="_top" xlink:title="random_int">
<polygon fill="white" stroke="black" points="430,-242.28 430,-263.28 507,-263.28 507,-242.28 430,-242.28"/>
<text text-anchor="middle" x="468.5" y="-249.68" font-family="Ubuntu Mono" font-size="12.00">random_int</text>
</a>
</g>
</g>
<!-- Node566&#45;&gt;Node585 -->
<g id="edge29" class="edge"><title>Node566&#45;&gt;Node585</title>
<path fill="none" stroke="midnightblue" d="M264.451,-597.743C280.937,-551.606 325.309,-435.208 382,-348.78 404.401,-314.629 438.466,-280.247 456.073,-263.416"/>
<polygon fill="midnightblue" stroke="midnightblue" points="261.141,-596.603 261.113,-607.198 267.742,-598.933 261.141,-596.603"/>
</g>
<!-- Node586 -->
<g id="node22" class="node"><title>Node586</title>
<g id="a_node22"><a xlink:href="namespacetest.html#a0d4cb791bf762b2e52260fea7644a3ee" target="_top" xlink:title="test::test_calc_int_vol">
<polygon fill="white" stroke="black" points="391,-398.28 391,-419.28 546,-419.28 546,-398.28 391,-398.28"/>
<text text-anchor="middle" x="468.5" y="-405.68" font-family="Ubuntu Mono" font-size="12.00">test::test_calc_int_vol</text>
</a>
</g>
</g>
<!-- Node566&#45;&gt;Node586 -->
<g id="edge31" class="edge"><title>Node566&#45;&gt;Node586</title>
<path fill="none" stroke="midnightblue" d="M264.921,-597.434C280.307,-558.248 319.55,-472.339 382,-428.78 387.501,-424.943 393.638,-421.834 400.028,-419.316"/>
<polygon fill="midnightblue" stroke="midnightblue" points="261.5,-596.582 261.214,-607.173 268.043,-599.072 261.5,-596.582"/>
</g>
<!-- Node587 -->
<g id="node23" class="node"><title>Node587</title>
<g id="a_node23"><a xlink:href="namespacex__ops.html#a4e39701da15ff952add5133db1897b52" target="_top" xlink:title="x_ops::calc_u">
<polygon fill="white" stroke="black" points="421,-907.28 421,-928.28 516,-928.28 516,-907.28 421,-907.28"/>
<text text-anchor="middle" x="468.5" y="-914.68" font-family="Ubuntu Mono" font-size="12.00">x_ops::calc_u</text>
</a>
</g>
</g>
<!-- Node566&#45;&gt;Node587 -->
<g id="edge33" class="edge"><title>Node566&#45;&gt;Node587</title>
<path fill="none" stroke="midnightblue" d="M260.823,-638.483C270.127,-689.588 301.25,-822.658 382,-892.78 392.86,-902.211 407.113,-908.089 420.861,-911.751"/>
<polygon fill="midnightblue" stroke="midnightblue" points="264.225,-637.616 259.074,-628.357 257.327,-638.807 264.225,-637.616"/>
</g>
<!-- Node568 -->
<g id="node4" class="node"><title>Node568</title>
<g id="a_node4"><a xlink:href="namespacedriver__eq.html#ac8eca434f541966edc3556d72f261eff" target="_top" xlink:title="driver_eq::run_driver_eq">
<polygon fill="white" stroke="black" points="591,-731.28 591,-752.28 752,-752.28 752,-731.28 591,-731.28"/>
<text text-anchor="middle" x="671.5" y="-738.68" font-family="Ubuntu Mono" font-size="12.00">driver_eq::run_driver_eq</text>
</a>
</g>
</g>
<!-- Node567&#45;&gt;Node568 -->
<g id="edge3" class="edge"><title>Node567&#45;&gt;Node568</title>
<path fill="none" stroke="midnightblue" d="M541.501,-741.78C557.477,-741.78 574.5,-741.78 590.765,-741.78"/>
<polygon fill="midnightblue" stroke="midnightblue" points="541.173,-738.281 531.173,-741.78 541.173,-745.281 541.173,-738.281"/>
</g>
<!-- Node568&#45;&gt;Node569 -->
<g id="edge4" class="edge"><title>Node568&#45;&gt;Node569</title>
<path fill="none" stroke="midnightblue" d="M762.086,-748.02C844.518,-753.22 970.186,-759.78 1079.5,-759.78 1079.5,-759.78 1079.5,-759.78 1254.5,-759.78 1376.35,-759.78 1408.77,-753.664 1528,-778.78 1540.23,-781.356 1553.4,-786.019 1563.85,-790.195"/>
<polygon fill="midnightblue" stroke="midnightblue" points="762.204,-744.52 752.002,-747.377 761.759,-751.506 762.204,-744.52"/>
</g>
<!-- Node571 -->
<g id="node7" class="node"><title>Node571</title>
<g id="a_node7"><a xlink:href="namespacedriver__x.html#a454779cefa6da3714d32eedcec0ef7de" target="_top" xlink:title="driver_x::run_driver_x_1">
<polygon fill="white" stroke="black" points="800,-788.28 800,-809.28 961,-809.28 961,-788.28 800,-788.28"/>
<text text-anchor="middle" x="880.5" y="-795.68" font-family="Ubuntu Mono" font-size="12.00">driver_x::run_driver_x_1</text>
</a>
</g>
</g>
<!-- Node570&#45;&gt;Node571 -->
<g id="edge6" class="edge"><title>Node570&#45;&gt;Node571</title>
<path fill="none" stroke="midnightblue" d="M541.706,-795.485C614.032,-796.19 725.07,-797.274 799.903,-798.004"/>
<polygon fill="midnightblue" stroke="midnightblue" points="541.359,-791.981 531.325,-795.384 541.29,-798.981 541.359,-791.981"/>
</g>
<!-- Node572 -->
<g id="node8" class="node"><title>Node572</title>
<g id="a_node8"><a xlink:href="namespacedriver__x.html#ada3d72a0929daaa5e3da585246d62281" target="_top" xlink:title="driver_x::run_driver_x">
<polygon fill="white" stroke="black" points="1367,-788.28 1367,-809.28 1516,-809.28 1516,-788.28 1367,-788.28"/>
<text text-anchor="middle" x="1441.5" y="-795.68" font-family="Ubuntu Mono" font-size="12.00">driver_x::run_driver_x</text>
</a>
</g>
</g>
<!-- Node571&#45;&gt;Node572 -->
<g id="edge7" class="edge"><title>Node571&#45;&gt;Node572</title>
<path fill="none" stroke="midnightblue" d="M971.355,-798.78C1081.14,-798.78 1264.8,-798.78 1366.71,-798.78"/>
<polygon fill="midnightblue" stroke="midnightblue" points="971.294,-795.281 961.294,-798.78 971.294,-802.281 971.294,-795.281"/>
</g>
<!-- Node572&#45;&gt;Node569 -->
<g id="edge8" class="edge"><title>Node572&#45;&gt;Node569</title>
<path fill="none" stroke="midnightblue" d="M1526.55,-798.78C1540.48,-798.78 1553.68,-798.78 1563.86,-798.78"/>
<polygon fill="midnightblue" stroke="midnightblue" points="1526.3,-795.281 1516.3,-798.78 1526.3,-802.281 1526.3,-795.281"/>
</g>
<!-- Node575&#45;&gt;Node568 -->
<g id="edge12" class="edge"><title>Node575&#45;&gt;Node568</title>
<path fill="none" stroke="midnightblue" d="M524.618,-707.669C556.343,-715.087 595.704,-724.291 625.542,-731.268"/>
<polygon fill="midnightblue" stroke="midnightblue" points="525.143,-704.197 514.608,-705.328 523.549,-711.013 525.143,-704.197"/>
</g>
<!-- Node576 -->
<g id="node12" class="node"><title>Node576</title>
<g id="a_node12"><a xlink:href="namespacedriver__post.html#a33b3c6f9018a0ddc92dce77394b8ab37" target="_top" xlink:title="driver_post::run_driver_post">
<polygon fill="white" stroke="black" points="788,-710.28 788,-731.28 973,-731.28 973,-710.28 788,-710.28"/>
<text text-anchor="middle" x="880.5" y="-717.68" font-family="Ubuntu Mono" font-size="12.00">driver_post::run_driver_post</text>
</a>
</g>
</g>
<!-- Node575&#45;&gt;Node576 -->
<g id="edge13" class="edge"><title>Node575&#45;&gt;Node576</title>
<path fill="none" stroke="midnightblue" d="M541.596,-699.352C610.133,-703.699 713.504,-710.254 787.857,-714.969"/>
<polygon fill="midnightblue" stroke="midnightblue" points="541.527,-695.841 531.325,-698.701 541.083,-702.827 541.527,-695.841"/>
</g>
<!-- Node576&#45;&gt;Node577 -->
<g id="edge14" class="edge"><title>Node576&#45;&gt;Node577</title>
<path fill="none" stroke="midnightblue" d="M936.714,-707.507C948.809,-704.099 961.446,-700.145 973,-695.78 1075.12,-657.2 1190.1,-594.206 1234.07,-569.346"/>
<polygon fill="midnightblue" stroke="midnightblue" points="935.442,-704.226 926.718,-710.238 937.287,-710.978 935.442,-704.226"/>
</g>
<!-- Node578&#45;&gt;Node574 -->
<g id="edge16" class="edge"><title>Node578&#45;&gt;Node574</title>
<path fill="none" stroke="midnightblue" d="M537.129,-462.192C543.267,-464.127 549.309,-466.314 555,-468.78 576.118,-477.931 630.018,-516.29 656.027,-535.179"/>
<polygon fill="midnightblue" stroke="midnightblue" points="538.024,-458.807 527.443,-459.355 536.056,-465.525 538.024,-458.807"/>
</g>
<!-- Node580 -->
<g id="node16" class="node"><title>Node580</title>
<g id="a_node16"><a xlink:href="namespacedriver__sol.html#a208ddea649ee160b7a55da8d0a5d4847" target="_top" xlink:title="driver_sol::run_driver_sol">
<polygon fill="white" stroke="black" points="1355,-831.28 1355,-852.28 1528,-852.28 1528,-831.28 1355,-831.28"/>
<text text-anchor="middle" x="1441.5" y="-838.68" font-family="Ubuntu Mono" font-size="12.00">driver_sol::run_driver_sol</text>
</a>
</g>
</g>
<!-- Node579&#45;&gt;Node580 -->
<g id="edge18" class="edge"><title>Node579&#45;&gt;Node580</title>
<path fill="none" stroke="midnightblue" d="M1329.18,-842.977C1337.61,-842.887 1346.24,-842.794 1354.79,-842.702"/>
<polygon fill="midnightblue" stroke="midnightblue" points="1328.99,-839.479 1319.03,-843.087 1329.07,-846.479 1328.99,-839.479"/>
</g>
<!-- Node580&#45;&gt;Node569 -->
<g id="edge19" class="edge"><title>Node580&#45;&gt;Node569</title>
<path fill="none" stroke="midnightblue" d="M1494.13,-828.634C1505.35,-825.571 1517.11,-822.2 1528,-818.78 1540.02,-815.005 1553.3,-810.241 1563.86,-806.309"/>
<polygon fill="midnightblue" stroke="midnightblue" points="1493.2,-825.261 1484.45,-831.24 1495.02,-832.02 1493.2,-825.261"/>
</g>
<!-- Node581&#45;&gt;Node579 -->
<g id="edge21" class="edge"><title>Node581&#45;&gt;Node579</title>
<path fill="none" stroke="midnightblue" d="M1105.09,-947.229C1137.46,-924.514 1195.35,-883.884 1228.13,-860.883"/>
<polygon fill="midnightblue" stroke="midnightblue" points="1102.85,-944.522 1096.68,-953.131 1106.87,-950.252 1102.85,-944.522"/>
</g>
<!-- Node582&#45;&gt;Node569 -->
<g id="edge23" class="edge"><title>Node582&#45;&gt;Node569</title>
<path fill="none" stroke="midnightblue" d="M1128.55,-572.214C1213.11,-597.671 1394.37,-658.329 1528,-745.78 1546.51,-757.891 1564.35,-776.581 1574.61,-788.225"/>
<polygon fill="midnightblue" stroke="midnightblue" points="1129.32,-568.789 1118.73,-569.284 1127.31,-575.497 1129.32,-568.789"/>
</g>
<!-- Node582&#45;&gt;Node577 -->
<g id="edge24" class="edge"><title>Node582&#45;&gt;Node577</title>
<path fill="none" stroke="midnightblue" d="M1156.38,-558.78C1184.41,-558.78 1213.98,-558.78 1232.8,-558.78"/>
<polygon fill="midnightblue" stroke="midnightblue" points="1156.15,-555.281 1146.15,-558.78 1156.15,-562.281 1156.15,-555.281"/>
</g>
<!-- Node583&#45;&gt;Node582 -->
<g id="edge26" class="edge"><title>Node583&#45;&gt;Node582</title>
<path fill="none" stroke="midnightblue" d="M902.282,-399.775C920.991,-415.19 949.131,-438.666 973,-459.78 1008.55,-491.225 1049.32,-529.877 1068.47,-548.192"/>
<polygon fill="midnightblue" stroke="midnightblue" points="904.347,-396.942 894.399,-393.297 899.903,-402.35 904.347,-396.942"/>
</g>
<!-- Node584&#45;&gt;Node583 -->
<g id="edge28" class="edge"><title>Node584&#45;&gt;Node583</title>
<path fill="none" stroke="midnightblue" d="M711.002,-301.369C724.185,-305.392 738.907,-310.333 752,-315.78 792.634,-332.685 837.66,-358.014 861.833,-372.193"/>
<polygon fill="midnightblue" stroke="midnightblue" points="711.856,-297.971 701.273,-298.477 709.862,-304.681 711.856,-297.971"/>
</g>
<!-- Node585&#45;&gt;Node584 -->
<g id="edge30" class="edge"><title>Node585&#45;&gt;Node584</title>
<path fill="none" stroke="midnightblue" d="M517.334,-261.824C556.139,-269.16 609.543,-279.256 641.955,-285.384"/>
<polygon fill="midnightblue" stroke="midnightblue" points="517.783,-258.347 507.307,-259.928 516.482,-265.225 517.783,-258.347"/>
</g>
<!-- Node586&#45;&gt;Node582 -->
<g id="edge32" class="edge"><title>Node586&#45;&gt;Node582</title>
<path fill="none" stroke="midnightblue" d="M525.061,-421.665C535.034,-424.01 545.33,-426.451 555,-428.78 734.903,-472.115 948.959,-525.849 1037.73,-548.23"/>
<polygon fill="midnightblue" stroke="midnightblue" points="525.765,-418.235 515.23,-419.36 524.167,-425.05 525.765,-418.235"/>
</g>
<!-- Node588&#45;&gt;Node573 -->
<g id="edge35" class="edge"><title>Node588&#45;&gt;Node573</title>
<path fill="none" stroke="midnightblue" d="M269.913,-232.98C288.153,-261.713 322.562,-317.967 346,-368.78 365.785,-411.674 347.943,-436.048 382,-468.78 387.163,-473.742 393.231,-477.793 399.712,-481.099"/>
<polygon fill="midnightblue" stroke="midnightblue" points="272.723,-230.877 264.387,-224.338 266.826,-234.648 272.723,-230.877"/>
</g>
<!-- Node588&#45;&gt;Node579 -->
<g id="edge36" class="edge"><title>Node588&#45;&gt;Node579</title>
<path fill="none" stroke="midnightblue" d="M273.759,-195.694C295.734,-172.654 337.333,-133.788 382,-116.78 502.089,-71.0541 542,-97.7804 670.5,-97.7804 670.5,-97.7804 670.5,-97.7804 881.5,-97.7804 922.709,-97.7804 940.642,-87.2627 973,-112.78 1134.26,-239.949 1080.03,-346.436 1152,-538.78 1192.54,-647.129 1233.39,-780.215 1247.41,-826.753"/>
<polygon fill="midnightblue" stroke="midnightblue" points="271.093,-193.421 266.832,-203.121 276.212,-198.195 271.093,-193.421"/>
</g>
<!-- Node588&#45;&gt;Node581 -->
<g id="edge37" class="edge"><title>Node588&#45;&gt;Node581</title>
<path fill="none" stroke="midnightblue" d="M328.36,-201.819C478.485,-181.082 826.763,-158.383 973,-362.78 1043.88,-461.853 951.514,-802.379 1009,-909.78 1019.55,-929.49 1040.77,-944.196 1057.18,-953.244"/>
<polygon fill="midnightblue" stroke="midnightblue" points="327.74,-198.372 318.331,-203.243 328.723,-205.302 327.74,-198.372"/>
</g>
<!-- Node588&#45;&gt;Node584 -->
<g id="edge38" class="edge"><title>Node588&#45;&gt;Node584</title>
<path fill="none" stroke="midnightblue" d="M350.194,-210.257C409.691,-210.289 488.063,-214.645 555,-232.78 592.901,-243.049 632.957,-266.382 654.511,-280.119"/>
<polygon fill="midnightblue" stroke="midnightblue" points="350.051,-206.757 340.064,-210.292 350.076,-213.757 350.051,-206.757"/>
</g>
<!-- Node588&#45;&gt;Node585 -->
<g id="edge39" class="edge"><title>Node588&#45;&gt;Node585</title>
<path fill="none" stroke="midnightblue" d="M324.168,-226.162C359.031,-232.636 400.429,-240.324 429.749,-245.769"/>
<polygon fill="midnightblue" stroke="midnightblue" points="324.523,-222.668 314.052,-224.283 323.245,-229.55 324.523,-222.668"/>
</g>
<!-- Node589 -->
<g id="node25" class="node"><title>Node589</title>
<g id="a_node25"><a xlink:href="test_8f90.html#aeb10d95d96ba86499fee37a84048e43c" target="_top" xlink:title="test_calc_rzl_vmec">
<polygon fill="white" stroke="black" points="406,-126.28 406,-147.28 531,-147.28 531,-126.28 406,-126.28"/>
<text text-anchor="middle" x="468.5" y="-133.68" font-family="Ubuntu Mono" font-size="12.00">test_calc_rzl_vmec</text>
</a>
</g>
</g>
<!-- Node588&#45;&gt;Node589 -->
<g id="edge40" class="edge"><title>Node588&#45;&gt;Node589</title>
<path fill="none" stroke="midnightblue" d="M289.932,-199.067C314.833,-188.057 350.223,-173.023 382,-161.78 396.871,-156.519 413.465,-151.481 428.048,-147.325"/>
<polygon fill="midnightblue" stroke="midnightblue" points="288.315,-195.956 280.603,-203.221 291.162,-202.351 288.315,-195.956"/>
</g>
<!-- Node590 -->
<g id="node26" class="node"><title>Node590</title>
<g id="a_node26"><a xlink:href="namespacetest.html#a4a25e64af6b986091f9e49ba447fc5c4" target="_top" xlink:title="test::test_calc_rzl">
<polygon fill="white" stroke="black" points="606,-126.28 606,-147.28 737,-147.28 737,-126.28 606,-126.28"/>
<text text-anchor="middle" x="671.5" y="-133.68" font-family="Ubuntu Mono" font-size="12.00">test::test_calc_rzl</text>
</a>
</g>
</g>
<!-- Node589&#45;&gt;Node590 -->
<g id="edge41" class="edge"><title>Node589&#45;&gt;Node590</title>
<path fill="none" stroke="midnightblue" d="M541.336,-136.78C562.375,-136.78 585.244,-136.78 605.811,-136.78"/>
<polygon fill="midnightblue" stroke="midnightblue" points="541.173,-133.281 531.173,-136.78 541.173,-140.281 541.173,-133.281"/>
</g>
<!-- Node590&#45;&gt;Node582 -->
<g id="edge42" class="edge"><title>Node590&#45;&gt;Node582</title>
<path fill="none" stroke="midnightblue" d="M726.501,-124.357C792.555,-112.573 904.064,-104.203 973,-161.78 1035.71,-214.159 1071.45,-490.503 1078.29,-548.212"/>
<polygon fill="midnightblue" stroke="midnightblue" points="725.488,-120.986 716.304,-126.268 726.777,-127.866 725.488,-120.986"/>
</g>
<!-- Node591&#45;&gt;Node567 -->
<g id="edge44" class="edge"><title>Node591&#45;&gt;Node567</title>
<path fill="none" stroke="midnightblue" d="M266.724,-408.662C283.633,-445.498 320.221,-527.056 346,-597.78 364.631,-648.897 343.671,-676.168 382,-714.78 388.689,-721.519 397.046,-726.58 405.894,-730.379"/>
<polygon fill="midnightblue" stroke="midnightblue" points="269.867,-407.12 262.502,-399.504 263.51,-410.05 269.867,-407.12"/>
</g>
<!-- Node591&#45;&gt;Node570 -->
<g id="edge45" class="edge"><title>Node591&#45;&gt;Node570</title>
<path fill="none" stroke="midnightblue" d="M267.342,-408.452C285.258,-444.947 323.422,-525.97 346,-597.78 369.164,-671.456 330.107,-710.581 382,-767.78 388.485,-774.928 396.843,-780.198 405.788,-784.079"/>
<polygon fill="midnightblue" stroke="midnightblue" points="270.428,-406.795 262.856,-399.384 264.153,-409.899 270.428,-406.795"/>
</g>
<!-- Node591&#45;&gt;Node573 -->
<g id="edge46" class="edge"><title>Node591&#45;&gt;Node573</title>
<path fill="none" stroke="midnightblue" d="M279.455,-405.459C303.547,-423.132 343.88,-450.904 382,-468.78 389.751,-472.415 398.119,-475.735 406.479,-478.706"/>
<polygon fill="midnightblue" stroke="midnightblue" points="281.464,-402.592 271.348,-399.442 277.292,-408.212 281.464,-402.592"/>
</g>
<!-- Node591&#45;&gt;Node578 -->
<g id="edge47" class="edge"><title>Node591&#45;&gt;Node578</title>
<path fill="none" stroke="midnightblue" d="M297.577,-402.569C321.859,-410.695 353.541,-420.894 382,-428.78 394.046,-432.119 407.148,-435.37 419.393,-438.248"/>
<polygon fill="midnightblue" stroke="midnightblue" points="298.584,-399.215 287.99,-399.34 296.35,-405.849 298.584,-399.215"/>
</g>
<!-- Node591&#45;&gt;Node583 -->
<g id="edge50" class="edge"><title>Node591&#45;&gt;Node583</title>
<path fill="none" stroke="midnightblue" d="M292.28,-374.387C316.863,-365.017 350.853,-353.661 382,-348.78 544.933,-323.249 740.864,-354.543 830.46,-372.228"/>
<polygon fill="midnightblue" stroke="midnightblue" points="290.733,-371.233 282.686,-378.124 293.275,-377.755 290.733,-371.233"/>
</g>
<!-- Node591&#45;&gt;Node584 -->
<g id="edge51" class="edge"><title>Node591&#45;&gt;Node584</title>
<path fill="none" stroke="midnightblue" d="M279.379,-371.836C303.176,-354.432 343.048,-328.188 382,-315.78 473.495,-286.636 589.057,-287.064 641.843,-289.16"/>
<polygon fill="midnightblue" stroke="midnightblue" points="277.003,-369.241 271.08,-378.026 281.189,-374.852 277.003,-369.241"/>
</g>
<!-- Node591&#45;&gt;Node585 -->
<g id="edge52" class="edge"><title>Node591&#45;&gt;Node585</title>
<path fill="none" stroke="midnightblue" d="M272.948,-370.691C294.822,-346.18 337.177,-302.635 382,-277.78 396.742,-269.606 414.431,-263.86 429.884,-259.957"/>
<polygon fill="midnightblue" stroke="midnightblue" points="270.307,-368.394 266.341,-378.219 275.568,-373.012 270.307,-368.394"/>
</g>
<!-- Node591&#45;&gt;Node586 -->
<g id="edge54" class="edge"><title>Node591&#45;&gt;Node586</title>
<path fill="none" stroke="midnightblue" d="M347.205,-397.324C361.781,-398.712 376.76,-400.139 390.984,-401.493"/>
<polygon fill="midnightblue" stroke="midnightblue" points="347.478,-393.834 337.191,-396.37 346.815,-400.802 347.478,-393.834"/>
</g>
<!-- Node591&#45;&gt;Node589 -->
<g id="edge53" class="edge"><title>Node591&#45;&gt;Node589</title>
<path fill="none" stroke="midnightblue" d="M272.101,-369.815C295.035,-340.183 341.107,-281.273 382,-232.78 408.618,-201.216 441.415,-165.138 457.56,-147.554"/>
<polygon fill="midnightblue" stroke="midnightblue" points="269.101,-367.974 265.758,-378.028 274.641,-372.253 269.101,-367.974"/>
</g>
<!-- Node592 -->
<g id="node28" class="node"><title>Node592</title>
<g id="a_node28"><a xlink:href="namespacehelena__ops.html#a0f156b3653264fb016d6d311eb59114c" target="_top" xlink:title="helena_ops::test_metrics_h">
<polygon fill="white" stroke="black" points="382,-358.28 382,-379.28 555,-379.28 555,-358.28 382,-358.28"/>
<text text-anchor="middle" x="468.5" y="-365.68" font-family="Ubuntu Mono" font-size="12.00">helena_ops::test_metrics_h</text>
</a>
</g>
</g>
<!-- Node591&#45;&gt;Node592 -->
<g id="edge48" class="edge"><title>Node591&#45;&gt;Node592</title>
<path fill="none" stroke="midnightblue" d="M347.221,-380.236C358.724,-379.14 370.477,-378.021 381.911,-376.932"/>
<polygon fill="midnightblue" stroke="midnightblue" points="346.815,-376.758 337.191,-381.191 347.478,-383.727 346.815,-376.758"/>
</g>
<!-- Node592&#45;&gt;Node574 -->
<g id="edge49" class="edge"><title>Node592&#45;&gt;Node574</title>
<path fill="none" stroke="midnightblue" d="M545.695,-383.485C548.928,-385.074 552.047,-386.833 555,-388.78 613.469,-427.352 652.899,-506.196 665.852,-534.966"/>
<polygon fill="midnightblue" stroke="midnightblue" points="546.901,-380.194 536.333,-379.445 544.128,-386.621 546.901,-380.194"/>
</g>
<!-- Node593&#45;&gt;Node567 -->
<g id="edge56" class="edge"><title>Node593&#45;&gt;Node567</title>
<path fill="none" stroke="midnightblue" d="M268.366,-898.438C287.298,-866.489 329.382,-802.754 382,-767.78 389.236,-762.971 397.397,-759.022 405.733,-755.786"/>
<polygon fill="midnightblue" stroke="midnightblue" points="265.236,-896.859 263.248,-907.266 271.292,-900.37 265.236,-896.859"/>
</g>
<!-- Node593&#45;&gt;Node570 -->
<g id="edge57" class="edge"><title>Node593&#45;&gt;Node570</title>
<path fill="none" stroke="midnightblue" d="M284.596,-901.91C324.145,-878.746 397.393,-835.843 438.168,-811.96"/>
<polygon fill="midnightblue" stroke="midnightblue" points="282.629,-899.006 275.769,-907.08 286.167,-905.046 282.629,-899.006"/>
</g>
<!-- Node593&#45;&gt;Node573 -->
<g id="edge58" class="edge"><title>Node593&#45;&gt;Node573</title>
<path fill="none" stroke="midnightblue" d="M267.566,-897.553C303.54,-825.261 425.384,-580.413 458.904,-513.055"/>
<polygon fill="midnightblue" stroke="midnightblue" points="264.224,-896.413 262.902,-906.925 270.491,-899.531 264.224,-896.413"/>
</g>
<!-- Node593&#45;&gt;Node574 -->
<g id="edge59" class="edge"><title>Node593&#45;&gt;Node574</title>
<path fill="none" stroke="midnightblue" d="M288.61,-932.454C348.061,-958.086 478.672,-1002.44 555,-937.78 592.13,-906.326 576.866,-768.345 591,-721.78 610.867,-656.332 649.554,-583.43 664.451,-556.514"/>
<polygon fill="midnightblue" stroke="midnightblue" points="289.925,-929.209 279.364,-928.37 287.097,-935.612 289.925,-929.209"/>
</g>
<!-- Node593&#45;&gt;Node582 -->
<g id="edge71" class="edge"><title>Node593&#45;&gt;Node582</title>
<path fill="none" stroke="midnightblue" d="M286.332,-932.97C341.036,-959.596 462.671,-1008.2 555,-967.78 576.609,-958.319 574.813,-945.939 591,-928.78 661.746,-853.787 689.596,-843.847 752,-761.78 771.055,-736.722 764.488,-721.713 788,-700.78 855.173,-640.976 892.618,-659.121 973,-618.78 1005.05,-602.693 1041.2,-581.698 1062.07,-569.285"/>
<polygon fill="midnightblue" stroke="midnightblue" points="287.735,-929.759 277.223,-928.435 284.616,-936.025 287.735,-929.759"/>
</g>
<!-- Node593&#45;&gt;Node587 -->
<g id="edge72" class="edge"><title>Node593&#45;&gt;Node587</title>
<path fill="none" stroke="midnightblue" d="M356.524,-917.78C378.962,-917.78 401.765,-917.78 420.817,-917.78"/>
<polygon fill="midnightblue" stroke="midnightblue" points="356.255,-914.281 346.255,-917.78 356.254,-921.281 356.255,-914.281"/>
</g>
<!-- Node594 -->
<g id="node30" class="node"><title>Node594</title>
<g id="a_node30"><a xlink:href="namespacempi__ops.html#a804ec65ff711509de1f8873f97bdf967" target="_top" xlink:title="mpi_ops::start_mpi">
<polygon fill="white" stroke="black" points="1018,-879.28 1018,-900.28 1143,-900.28 1143,-879.28 1018,-879.28"/>
<text text-anchor="middle" x="1080.5" y="-886.68" font-family="Ubuntu Mono" font-size="12.00">mpi_ops::start_mpi</text>
</a>
</g>
</g>
<!-- Node593&#45;&gt;Node594 -->
<g id="edge60" class="edge"><title>Node593&#45;&gt;Node594</title>
<path fill="none" stroke="midnightblue" d="M274.183,-935.535C296.335,-957.673 337.833,-994.36 382,-1008.78 455.092,-1032.64 481.625,-1031.76 555,-1008.78 573.589,-1002.96 573.047,-991.34 591,-983.78 736.263,-922.613 922.675,-900.885 1017.74,-893.45"/>
<polygon fill="midnightblue" stroke="midnightblue" points="276.675,-933.076 267.182,-928.371 271.669,-937.969 276.675,-933.076"/>
</g>
<!-- Node595 -->
<g id="node31" class="node"><title>Node595</title>
<g id="a_node31"><a xlink:href="namespaceslepc__utilities.html#ae6568f825f3fa8a6e3d45f67f3daf412" target="_top" xlink:title="slepc_utilities::insert\l_block_mat">
<polygon fill="white" stroke="black" points="391,-1061.78 391,-1095.78 546,-1095.78 546,-1061.78 391,-1061.78"/>
<text text-anchor="start" x="399" y="-1082.18" font-family="Ubuntu Mono" font-size="12.00">slepc_utilities::insert</text>
<text text-anchor="middle" x="468.5" y="-1069.18" font-family="Ubuntu Mono" font-size="12.00">_block_mat</text>
</a>
</g>
</g>
<!-- Node593&#45;&gt;Node595 -->
<g id="edge63" class="edge"><title>Node593&#45;&gt;Node595</title>
<path fill="none" stroke="midnightblue" d="M271.039,-936.382C291.988,-963.975 334.8,-1015.81 382,-1046.78 390.879,-1052.61 400.966,-1057.57 411.022,-1061.73"/>
<polygon fill="midnightblue" stroke="midnightblue" points="273.815,-934.251 265.027,-928.333 268.207,-938.439 273.815,-934.251"/>
</g>
<!-- Node594&#45;&gt;Node569 -->
<g id="edge61" class="edge"><title>Node594&#45;&gt;Node569</title>
<path fill="none" stroke="midnightblue" d="M1153.41,-901.454C1245.37,-912.882 1407.16,-920.992 1528,-861.78 1551.3,-850.364 1569.03,-824.365 1577.67,-809.583"/>
<polygon fill="midnightblue" stroke="midnightblue" points="1153.74,-897.966 1143.37,-900.158 1152.84,-904.909 1153.74,-897.966"/>
</g>
<!-- Node594&#45;&gt;Node577 -->
<g id="edge62" class="edge"><title>Node594&#45;&gt;Node577</title>
<path fill="none" stroke="midnightblue" d="M1091.73,-869.977C1123.92,-807.671 1222.44,-616.97 1246.94,-569.545"/>
<polygon fill="midnightblue" stroke="midnightblue" points="1088.48,-868.651 1087,-879.142 1094.7,-871.864 1088.48,-868.651"/>
</g>
<!-- Node595&#45;&gt;Node581 -->
<g id="edge64" class="edge"><title>Node595&#45;&gt;Node581</title>
<path fill="none" stroke="midnightblue" d="M556.456,-1078.62C658.659,-1076.09 832.183,-1064.41 973,-1017.78 1006.26,-1006.77 1042.02,-986.761 1062.48,-974.436"/>
<polygon fill="midnightblue" stroke="midnightblue" points="556.102,-1075.12 546.182,-1078.85 556.258,-1082.12 556.102,-1075.12"/>
</g>
<!-- Node596 -->
<g id="node32" class="node"><title>Node596</title>
<g id="a_node32"><a xlink:href="SLEPC__ops_8f90.html#a2304e2ffd00378a9252c04507d5a1a7e" target="_top" xlink:title="fill_mat">
<polygon fill="white" stroke="black" points="848,-1102.28 848,-1123.28 913,-1123.28 913,-1102.28 848,-1102.28"/>
<text text-anchor="middle" x="880.5" y="-1109.68" font-family="Ubuntu Mono" font-size="12.00">fill_mat</text>
</a>
</g>
</g>
<!-- Node595&#45;&gt;Node596 -->
<g id="edge65" class="edge"><title>Node595&#45;&gt;Node596</title>
<path fill="none" stroke="midnightblue" d="M556.173,-1085.97C647.249,-1093.52 785.708,-1105 847.629,-1110.14"/>
<polygon fill="midnightblue" stroke="midnightblue" points="556.392,-1082.47 546.137,-1085.14 555.813,-1089.45 556.392,-1082.47"/>
</g>
<!-- Node597 -->
<g id="node33" class="node"><title>Node597</title>
<g id="a_node33"><a xlink:href="SLEPC__ops_8f90.html#a1d58436fdcad8037090c9ce1e50a9ae1" target="_top" xlink:title="disp_mat_info">
<polygon fill="white" stroke="black" points="833,-987.28 833,-1008.28 928,-1008.28 928,-987.28 833,-987.28"/>
<text text-anchor="middle" x="880.5" y="-994.68" font-family="Ubuntu Mono" font-size="12.00">disp_mat_info</text>
</a>
</g>
</g>
<!-- Node595&#45;&gt;Node597 -->
<g id="edge67" class="edge"><title>Node595&#45;&gt;Node597</title>
<path fill="none" stroke="midnightblue" d="M533.595,-1057.65C540.995,-1054.38 548.287,-1050.75 555,-1046.78 573.169,-1036.02 571.444,-1023.74 591,-1015.78 671.062,-983.187 773.997,-986.306 832.778,-991.834"/>
<polygon fill="midnightblue" stroke="midnightblue" points="532.062,-1054.5 524.199,-1061.6 534.774,-1060.95 532.062,-1054.5"/>
</g>
<!-- Node598 -->
<g id="node34" class="node"><title>Node598</title>
<g id="a_node34"><a xlink:href="SLEPC__ops_8f90.html#abdaf8a38000d4b3d52de078affcd853d" target="_top" xlink:title="set_bc_1">
<polygon fill="white" stroke="black" points="639,-1025.28 639,-1046.28 704,-1046.28 704,-1025.28 639,-1025.28"/>
<text text-anchor="middle" x="671.5" y="-1032.68" font-family="Ubuntu Mono" font-size="12.00">set_bc_1</text>
</a>
</g>
</g>
<!-- Node595&#45;&gt;Node598 -->
<g id="edge69" class="edge"><title>Node595&#45;&gt;Node598</title>
<path fill="none" stroke="midnightblue" d="M555.958,-1060.28C585.366,-1053.99 616.41,-1047.35 638.75,-1042.57"/>
<polygon fill="midnightblue" stroke="midnightblue" points="555.109,-1056.89 546.063,-1062.4 556.574,-1063.73 555.109,-1056.89"/>
</g>
<!-- Node596&#45;&gt;Node581 -->
<g id="edge66" class="edge"><title>Node596&#45;&gt;Node581</title>
<path fill="none" stroke="midnightblue" d="M922.972,-1106.87C939.454,-1103.18 958.017,-1097.26 973,-1087.78 1020.97,-1057.44 1058.99,-998.824 1073.33,-974.63"/>
<polygon fill="midnightblue" stroke="midnightblue" points="922.133,-1103.47 913.029,-1108.89 923.525,-1110.33 922.133,-1103.47"/>
</g>
<!-- Node597&#45;&gt;Node581 -->
<g id="edge68" class="edge"><title>Node597&#45;&gt;Node581</title>
<path fill="none" stroke="midnightblue" d="M938.229,-988.039C963.221,-983.748 992.638,-978.696 1018.14,-974.317"/>
<polygon fill="midnightblue" stroke="midnightblue" points="937.436,-984.624 928.173,-989.766 938.621,-991.523 937.436,-984.624"/>
</g>
<!-- Node598&#45;&gt;Node597 -->
<g id="edge70" class="edge"><title>Node598&#45;&gt;Node597</title>
<path fill="none" stroke="midnightblue" d="M714.569,-1028.06C748.93,-1021.75 797.446,-1012.84 832.964,-1006.32"/>
<polygon fill="midnightblue" stroke="midnightblue" points="713.594,-1024.68 704.39,-1029.93 714.858,-1031.56 713.594,-1024.68"/>
</g>
<!-- Node599&#45;&gt;Node569 -->
<g id="edge74" class="edge"><title>Node599&#45;&gt;Node569</title>
<path fill="none" stroke="midnightblue" d="M1135.21,-35.3936C1141.21,-38.2823 1146.96,-41.7135 1152,-45.7804 1399.28,-245.279 1387.03,-369.045 1528,-653.78 1551.92,-702.093 1572.34,-763.418 1580.13,-787.936"/>
<polygon fill="midnightblue" stroke="midnightblue" points="1136.23,-32.0202 1125.66,-31.2872 1133.46,-38.4514 1136.23,-32.0202"/>
</g>
<!-- Node599&#45;&gt;Node577 -->
<g id="edge75" class="edge"><title>Node599&#45;&gt;Node577</title>
<path fill="none" stroke="midnightblue" d="M1141.67,-36.4806C1145.52,-39.1144 1149.04,-42.1897 1152,-45.7804 1186.18,-87.2123 1177.84,-232.04 1188,-284.78 1207.93,-388.192 1240.01,-511.663 1249.66,-548.142"/>
<polygon fill="midnightblue" stroke="midnightblue" points="1143.19,-33.3178 1132.77,-31.3911 1139.71,-39.3942 1143.19,-33.3178"/>
</g>
</g>
</svg>
