<?xml version="1.0" encoding="UTF-8" standalone="no"?>
<!DOCTYPE svg PUBLIC "-//W3C//DTD SVG 1.1//EN"
 "http://www.w3.org/Graphics/SVG/1.1/DTD/svg11.dtd">
<!-- Generated by graphviz version 2.43.0 (0)
 -->
<!-- Title: input_utilities::get_real Pages: 1 -->
<svg width="708pt" height="149pt"
 viewBox="0.00 0.00 708.00 149.00" xmlns="http://www.w3.org/2000/svg" xmlns:xlink="http://www.w3.org/1999/xlink">
<g id="graph0" class="graph" transform="scale(1 1) rotate(0) translate(4 145)">
<title>input_utilities::get_real</title>
<polygon fill="white" stroke="transparent" points="-4,4 -4,-145 704,-145 704,4 -4,4"/>
<!-- Node1 -->
<g id="node1" class="node">
<title>Node1</title>
<g id="a_node1"><a xlink:title="Queries for user input for a real value, where allowable range can be provided as well.">
<polygon fill="#bfbfbf" stroke="black" points="0,-59.5 0,-80.5 150,-80.5 150,-59.5 0,-59.5"/>
<text text-anchor="middle" x="75" y="-66.9" font-family="Ubuntu Mono" font-size="12.00">input_utilities::get_real</text>
</a>
</g>
</g>
<!-- Node2 -->
<g id="node2" class="node">
<title>Node2</title>
<g id="a_node2"><a xlink:href="namespacestr__utilities.html#ac778d706b2e021672618939ab58fdd32" target="_top" xlink:title="Convert a real (double) to string.">
<polygon fill="white" stroke="black" points="198,-119.5 198,-140.5 319,-140.5 319,-119.5 198,-119.5"/>
<text text-anchor="middle" x="258.5" y="-126.9" font-family="Ubuntu Mono" font-size="12.00">str_utilities::r2strt</text>
</a>
</g>
</g>
<!-- Node1&#45;&gt;Node2 -->
<g id="edge1" class="edge">
<title>Node1&#45;&gt;Node2</title>
<path fill="none" stroke="midnightblue" d="M103.38,-80.61C125.51,-89.03 157.56,-100.87 186,-110 193,-112.25 200.44,-114.49 207.76,-116.61"/>
<polygon fill="midnightblue" stroke="midnightblue" points="207.05,-120.05 217.63,-119.43 208.97,-113.32 207.05,-120.05"/>
</g>
<!-- Node3 -->
<g id="node3" class="node">
<title>Node3</title>
<g id="a_node3"><a xlink:href="namespacemessages.html#a84d5988f3ea5ca8dc2834032f896ae90" target="_top" xlink:title="Start a timer.">
<polygon fill="white" stroke="black" points="186,-79.5 186,-100.5 331,-100.5 331,-79.5 186,-79.5"/>
<text text-anchor="middle" x="258.5" y="-86.9" font-family="Ubuntu Mono" font-size="12.00">messages::start_time</text>
</a>
</g>
</g>
<!-- Node1&#45;&gt;Node3 -->
<g id="edge2" class="edge">
<title>Node1&#45;&gt;Node3</title>
<path fill="none" stroke="midnightblue" d="M150.08,-78.16C158.61,-79.1 167.34,-80.06 175.95,-81.01"/>
<polygon fill="midnightblue" stroke="midnightblue" points="175.67,-84.5 186,-82.12 176.44,-77.55 175.67,-84.5"/>
</g>
<!-- Node4 -->
<g id="node4" class="node">
<title>Node4</title>
<g id="a_node4"><a xlink:href="namespacemessages.html#aa4a8d01563e92558e8a0875b075ec54c" target="_top" xlink:title="Write output to file identified by output_i.">
<polygon fill="white" stroke="black" points="367,-40.5 367,-61.5 481,-61.5 481,-40.5 367,-40.5"/>
<text text-anchor="middle" x="424" y="-47.9" font-family="Ubuntu Mono" font-size="12.00">messages::writo</text>
</a>
</g>
</g>
<!-- Node1&#45;&gt;Node4 -->
<g id="edge9" class="edge">
<title>Node1&#45;&gt;Node4</title>
<path fill="none" stroke="midnightblue" d="M150.01,-65.95C211.23,-62.6 297.39,-57.88 356.45,-54.64"/>
<polygon fill="midnightblue" stroke="midnightblue" points="356.99,-58.12 366.79,-54.08 356.61,-51.13 356.99,-58.12"/>
</g>
<!-- Node8 -->
<g id="node8" class="node">
<title>Node8</title>
<g id="a_node8"><a xlink:href="namespacemessages.html#aed343894ae4a28ad6dfbd1d39aac64ff" target="_top" xlink:title="Stop a timer.">
<polygon fill="white" stroke="black" points="187,-1.5 187,-22.5 330,-22.5 330,-1.5 187,-1.5"/>
<text text-anchor="middle" x="258.5" y="-8.9" font-family="Ubuntu Mono" font-size="12.00">messages::stop_time</text>
</a>
</g>
</g>
<!-- Node1&#45;&gt;Node8 -->
<g id="edge7" class="edge">
<title>Node1&#45;&gt;Node8</title>
<path fill="none" stroke="midnightblue" d="M108.87,-59.5C138.59,-50 182.52,-35.96 214.91,-25.61"/>
<polygon fill="midnightblue" stroke="midnightblue" points="216.11,-28.9 224.57,-22.52 213.98,-22.23 216.11,-28.9"/>
</g>
<!-- Node3&#45;&gt;Node4 -->
<g id="edge3" class="edge">
<title>Node3&#45;&gt;Node4</title>
<path fill="none" stroke="midnightblue" d="M303.75,-79.45C323.83,-74.66 347.77,-68.94 368.91,-63.9"/>
<polygon fill="midnightblue" stroke="midnightblue" points="369.8,-67.29 378.72,-61.56 368.18,-60.48 369.8,-67.29"/>
</g>
<!-- Node5 -->
<g id="node5" class="node">
<title>Node5</title>
<g id="a_node5"><a xlink:href="namespacemessages.html#a61fd0b51b5e37d58fdc993c01792a3fd" target="_top" xlink:title="Returns the time.">
<polygon fill="white" stroke="black" points="538.5,-80.5 538.5,-101.5 678.5,-101.5 678.5,-80.5 538.5,-80.5"/>
<text text-anchor="middle" x="608.5" y="-87.9" font-family="Ubuntu Mono" font-size="12.00">messages::get_clock</text>
</a>
</g>
</g>
<!-- Node4&#45;&gt;Node5 -->
<g id="edge4" class="edge">
<title>Node4&#45;&gt;Node5</title>
<path fill="none" stroke="midnightblue" d="M472.95,-61.51C496.43,-66.66 524.9,-72.9 549.59,-78.31"/>
<polygon fill="midnightblue" stroke="midnightblue" points="549.04,-81.77 559.55,-80.49 550.54,-74.93 549.04,-81.77"/>
</g>
<!-- Node6 -->
<g id="node6" class="node">
<title>Node6</title>
<g id="a_node6"><a xlink:href="namespacemessages.html#a82dddaab795b78b3d39e1ff1aab2f665" target="_top" xlink:title="Returns the memory usage in kilobytes.">
<polygon fill="white" stroke="black" points="517,-40.5 517,-61.5 700,-61.5 700,-40.5 517,-40.5"/>
<text text-anchor="middle" x="608.5" y="-47.9" font-family="Ubuntu Mono" font-size="12.00">messages::get_mem_usage</text>
</a>
</g>
</g>
<!-- Node4&#45;&gt;Node6 -->
<g id="edge5" class="edge">
<title>Node4&#45;&gt;Node6</title>
<path fill="none" stroke="midnightblue" d="M481.25,-51C489.37,-51 497.94,-51 506.63,-51"/>
<polygon fill="midnightblue" stroke="midnightblue" points="506.86,-54.5 516.86,-51 506.86,-47.5 506.86,-54.5"/>
</g>
<!-- Node7 -->
<g id="node7" class="node">
<title>Node7</title>
<g id="a_node7"><a xlink:href="namespacestr__utilities.html#a0b97e51770725a3e98ed393d26681414" target="_top" xlink:title="Convert an integer to string.">
<polygon fill="white" stroke="black" points="551.5,-0.5 551.5,-21.5 665.5,-21.5 665.5,-0.5 551.5,-0.5"/>
<text text-anchor="middle" x="608.5" y="-7.9" font-family="Ubuntu Mono" font-size="12.00">str_utilities::i2str</text>
</a>
</g>
</g>
<!-- Node4&#45;&gt;Node7 -->
<g id="edge6" class="edge">
<title>Node4&#45;&gt;Node7</title>
<path fill="none" stroke="midnightblue" d="M472.95,-40.49C496.43,-35.34 524.9,-29.1 549.59,-23.69"/>
<polygon fill="midnightblue" stroke="midnightblue" points="550.54,-27.07 559.55,-21.51 549.04,-20.23 550.54,-27.07"/>
</g>
<!-- Node8&#45;&gt;Node4 -->
<g id="edge8" class="edge">
<title>Node8&#45;&gt;Node4</title>
<path fill="none" stroke="midnightblue" d="M303.75,-22.55C323.83,-27.34 347.77,-33.06 368.91,-38.1"/>
<polygon fill="midnightblue" stroke="midnightblue" points="368.18,-41.52 378.72,-40.44 369.8,-34.71 368.18,-41.52"/>
</g>
</g>
</svg>
