<?xml version="1.0" encoding="UTF-8" standalone="no"?>
<!DOCTYPE svg PUBLIC "-//W3C//DTD SVG 1.1//EN"
 "http://www.w3.org/Graphics/SVG/1.1/DTD/svg11.dtd">
<!-- Generated by graphviz version 2.38.0 (20140413.2041)
 -->
<!-- Title: slepc_utilities::insert_block_mat Pages: 1 -->
<svg width="1058pt" height="361pt"
 viewBox="0.00 0.00 1058.00 361.03" xmlns="http://www.w3.org/2000/svg" xmlns:xlink="http://www.w3.org/1999/xlink">
<g id="graph0" class="graph" transform="scale(1 1) rotate(0) translate(4 357.031)">
<title>slepc_utilities::insert_block_mat</title>
<polygon fill="white" stroke="none" points="-4,4 -4,-357.031 1054,-357.031 1054,4 -4,4"/>
<!-- Node0 -->
<g id="node1" class="node"><title>Node0</title>
<polygon fill="#bfbfbf" stroke="black" points="0,-89.0311 0,-123.031 155,-123.031 155,-89.0311 0,-89.0311"/>
<text text-anchor="start" x="8" y="-109.431" font-family="Ubuntu Mono" font-size="12.00">slepc_utilities::insert</text>
<text text-anchor="middle" x="77.5" y="-96.4311" font-family="Ubuntu Mono" font-size="12.00">_block_mat</text>
</g>
<!-- Node1 -->
<g id="node2" class="node"><title>Node1</title>
<g id="a_node2"><a xlink:href="namespaceinput__utilities.html#a71bd36f063d55ab62c7a37864aef1185" target="_top" xlink:title="Pauses the running of the program. ">
<polygon fill="white" stroke="black" points="346,-252.531 346,-273.531 525,-273.531 525,-252.531 346,-252.531"/>
<text text-anchor="middle" x="435.5" y="-259.931" font-family="Ubuntu Mono" font-size="12.00">input_utilities::pause_prog</text>
</a>
</g>
</g>
<!-- Node0&#45;&gt;Node1 -->
<g id="edge1" class="edge"><title>Node0&#45;&gt;Node1</title>
<path fill="none" stroke="midnightblue" d="M109.121,-123.156C131.51,-135.415 162.771,-151.988 191,-165.031 262.21,-197.933 347.753,-230.898 396.155,-248.964"/>
<polygon fill="midnightblue" stroke="midnightblue" points="395.021,-252.277 405.613,-252.481 397.46,-245.716 395.021,-252.277"/>
</g>
<!-- Node4 -->
<g id="node5" class="node"><title>Node4</title>
<g id="a_node5"><a xlink:href="namespacemessages.html#aa4a8d01563e92558e8a0875b075ec54c" target="_top" xlink:title="Write output to file identified by output_i. ">
<polygon fill="white" stroke="black" points="752,-173.531 752,-194.531 859,-194.531 859,-173.531 752,-173.531"/>
<text text-anchor="middle" x="805.5" y="-180.931" font-family="Ubuntu Mono" font-size="12.00">messages::writo</text>
</a>
</g>
</g>
<!-- Node0&#45;&gt;Node4 -->
<g id="edge10" class="edge"><title>Node0&#45;&gt;Node4</title>
<path fill="none" stroke="midnightblue" d="M155.23,-93.5045C244.574,-81.0137 396.339,-66.2979 525,-86.0311 619.304,-100.495 723.73,-145.472 774.069,-169.134"/>
<polygon fill="midnightblue" stroke="midnightblue" points="772.576,-172.3 783.11,-173.429 775.58,-165.977 772.576,-172.3"/>
</g>
<!-- Node8 -->
<g id="node9" class="node"><title>Node8</title>
<g id="a_node9"><a xlink:href="namespacestr__utilities.html#a0b97e51770725a3e98ed393d26681414" target="_top" xlink:title="Convert an integer to string. ">
<polygon fill="white" stroke="black" points="367,-95.5311 367,-116.531 504,-116.531 504,-95.5311 367,-95.5311"/>
<text text-anchor="middle" x="435.5" y="-102.931" font-family="Ubuntu Mono" font-size="12.00">str_utilities::i2str</text>
</a>
</g>
</g>
<!-- Node0&#45;&gt;Node8 -->
<g id="edge11" class="edge"><title>Node0&#45;&gt;Node8</title>
<path fill="none" stroke="midnightblue" d="M155.308,-106.031C214.822,-106.031 296.933,-106.031 356.697,-106.031"/>
<polygon fill="midnightblue" stroke="midnightblue" points="356.836,-109.531 366.836,-106.031 356.836,-102.531 356.836,-109.531"/>
</g>
<!-- Node9 -->
<g id="node10" class="node"><title>Node9</title>
<g id="a_node10"><a xlink:href="namespacemessages.html#a6e6bfb084063e4cc91ee86e542043302" target="_top" xlink:title="Increases/decreases lvl of output. ">
<polygon fill="white" stroke="black" points="194,-17.5311 194,-38.5311 307,-38.5311 307,-17.5311 194,-17.5311"/>
<text text-anchor="middle" x="250.5" y="-24.9311" font-family="Ubuntu Mono" font-size="12.00">messages::lvl_ud</text>
</a>
</g>
</g>
<!-- Node0&#45;&gt;Node9 -->
<g id="edge12" class="edge"><title>Node0&#45;&gt;Node9</title>
<path fill="none" stroke="midnightblue" d="M113.815,-88.9901C135.904,-78.4319 165.002,-64.7056 191,-53.0311 198.736,-49.5572 207.094,-45.9182 215.005,-42.5257"/>
<polygon fill="midnightblue" stroke="midnightblue" points="216.535,-45.6785 224.361,-38.5375 213.79,-39.2392 216.535,-45.6785"/>
</g>
<!-- Node10 -->
<g id="node11" class="node"><title>Node10</title>
<g id="a_node11"><a xlink:href="SLEPC__utilities_8f90.html#a711d6be49d3b1542ee3375bceb5b4e6d" target="_top" xlink:title="/private Set up local block, possibly translated for fast PB3D. ">
<polygon fill="white" stroke="black" points="191,-134.531 191,-155.531 310,-155.531 310,-134.531 191,-134.531"/>
<text text-anchor="middle" x="250.5" y="-141.931" font-family="Ubuntu Mono" font-size="12.00">setup_local_block</text>
</a>
</g>
</g>
<!-- Node0&#45;&gt;Node10 -->
<g id="edge14" class="edge"><title>Node0&#45;&gt;Node10</title>
<path fill="none" stroke="midnightblue" d="M153.503,-123.137C166.815,-126.173 180.472,-129.288 193.156,-132.181"/>
<polygon fill="midnightblue" stroke="midnightblue" points="192.567,-135.636 203.095,-134.447 194.123,-128.811 192.567,-135.636"/>
</g>
<!-- Node2 -->
<g id="node3" class="node"><title>Node2</title>
<g id="a_node3"><a xlink:href="namespacempi__utilities.html#a790ea24d32dd0e249541c1e57cd85536" target="_top" xlink:title="Wait for all processes, wrapper to MPI barrier. ">
<polygon fill="white" stroke="black" points="561,-331.531 561,-352.531 716,-352.531 716,-331.531 561,-331.531"/>
<text text-anchor="middle" x="638.5" y="-338.931" font-family="Ubuntu Mono" font-size="12.00">mpi_utilities::wait_mpi</text>
</a>
</g>
</g>
<!-- Node1&#45;&gt;Node2 -->
<g id="edge2" class="edge"><title>Node1&#45;&gt;Node2</title>
<path fill="none" stroke="midnightblue" d="M455.851,-273.598C479.928,-286.415 522.566,-308.04 561,-322.031 567.5,-324.397 574.405,-326.607 581.304,-328.63"/>
<polygon fill="midnightblue" stroke="midnightblue" points="580.786,-332.12 591.36,-331.457 582.68,-325.381 580.786,-332.12"/>
</g>
<!-- Node3 -->
<g id="node4" class="node"><title>Node3</title>
<g id="a_node4"><a xlink:href="namespacemessages.html#aed343894ae4a28ad6dfbd1d39aac64ff" target="_top" xlink:title="Stop a timer. ">
<polygon fill="white" stroke="black" points="573,-291.531 573,-312.531 704,-312.531 704,-291.531 573,-291.531"/>
<text text-anchor="middle" x="638.5" y="-298.931" font-family="Ubuntu Mono" font-size="12.00">messages::stop_time</text>
</a>
</g>
</g>
<!-- Node1&#45;&gt;Node3 -->
<g id="edge3" class="edge"><title>Node1&#45;&gt;Node3</title>
<path fill="none" stroke="midnightblue" d="M490.629,-273.534C516.095,-278.475 546.65,-284.404 573.28,-289.57"/>
<polygon fill="midnightblue" stroke="midnightblue" points="572.791,-293.041 583.275,-291.51 574.124,-286.169 572.791,-293.041"/>
</g>
<!-- Node1&#45;&gt;Node4 -->
<g id="edge9" class="edge"><title>Node1&#45;&gt;Node4</title>
<path fill="none" stroke="midnightblue" d="M525.079,-268.673C581.241,-269.442 654.613,-265.183 716,-244.031 742.453,-234.916 768.435,-215.735 785.331,-201.501"/>
<polygon fill="midnightblue" stroke="midnightblue" points="788.037,-203.787 793.293,-194.588 783.447,-198.502 788.037,-203.787"/>
</g>
<!-- Node7 -->
<g id="node8" class="node"><title>Node7</title>
<g id="a_node8"><a xlink:href="namespacemessages.html#a84d5988f3ea5ca8dc2834032f896ae90" target="_top" xlink:title="Start a timer. ">
<polygon fill="white" stroke="black" points="570,-213.531 570,-234.531 707,-234.531 707,-213.531 570,-213.531"/>
<text text-anchor="middle" x="638.5" y="-220.931" font-family="Ubuntu Mono" font-size="12.00">messages::start_time</text>
</a>
</g>
</g>
<!-- Node1&#45;&gt;Node7 -->
<g id="edge7" class="edge"><title>Node1&#45;&gt;Node7</title>
<path fill="none" stroke="midnightblue" d="M490.629,-252.529C516.095,-247.587 546.65,-241.659 573.28,-236.492"/>
<polygon fill="midnightblue" stroke="midnightblue" points="574.124,-239.893 583.275,-234.552 572.791,-233.021 574.124,-239.893"/>
</g>
<!-- Node3&#45;&gt;Node4 -->
<g id="edge4" class="edge"><title>Node3&#45;&gt;Node4</title>
<path fill="none" stroke="midnightblue" d="M684.453,-291.424C695.256,-287.793 706.429,-283.072 716,-277.031 747.499,-257.15 775.589,-223.591 791.296,-202.686"/>
<polygon fill="midnightblue" stroke="midnightblue" points="794.151,-204.712 797.243,-194.579 788.506,-200.572 794.151,-204.712"/>
</g>
<!-- Node5 -->
<g id="node6" class="node"><title>Node5</title>
<g id="a_node6"><a xlink:href="namespacemessages.html#a82dddaab795b78b3d39e1ff1aab2f665" target="_top" xlink:title="Returns the memory usage in kilobytes. ">
<polygon fill="white" stroke="black" points="895,-193.531 895,-214.531 1050,-214.531 1050,-193.531 895,-193.531"/>
<text text-anchor="middle" x="972.5" y="-200.931" font-family="Ubuntu Mono" font-size="12.00">messages::get_mem_usage</text>
</a>
</g>
</g>
<!-- Node4&#45;&gt;Node5 -->
<g id="edge5" class="edge"><title>Node4&#45;&gt;Node5</title>
<path fill="none" stroke="midnightblue" d="M859.161,-190.414C867.452,-191.419 876.208,-192.481 885.025,-193.549"/>
<polygon fill="midnightblue" stroke="midnightblue" points="884.635,-197.028 894.984,-194.756 885.478,-190.079 884.635,-197.028"/>
</g>
<!-- Node6 -->
<g id="node7" class="node"><title>Node6</title>
<g id="a_node7"><a xlink:href="namespacemessages.html#a61fd0b51b5e37d58fdc993c01792a3fd" target="_top" xlink:title="Returns the time. ">
<polygon fill="white" stroke="black" points="907,-153.531 907,-174.531 1038,-174.531 1038,-153.531 907,-153.531"/>
<text text-anchor="middle" x="972.5" y="-160.931" font-family="Ubuntu Mono" font-size="12.00">messages::get_clock</text>
</a>
</g>
</g>
<!-- Node4&#45;&gt;Node6 -->
<g id="edge6" class="edge"><title>Node4&#45;&gt;Node6</title>
<path fill="none" stroke="midnightblue" d="M859.161,-177.648C871.142,-176.196 884.094,-174.626 896.797,-173.086"/>
<polygon fill="midnightblue" stroke="midnightblue" points="897.402,-176.538 906.908,-171.86 896.56,-169.589 897.402,-176.538"/>
</g>
<!-- Node7&#45;&gt;Node4 -->
<g id="edge8" class="edge"><title>Node7&#45;&gt;Node4</title>
<path fill="none" stroke="midnightblue" d="M682.852,-213.522C703.8,-208.443 729.133,-202.302 751.246,-196.941"/>
<polygon fill="midnightblue" stroke="midnightblue" points="752.258,-200.297 761.152,-194.54 750.608,-193.494 752.258,-200.297"/>
</g>
<!-- Node9&#45;&gt;Node4 -->
<g id="edge13" class="edge"><title>Node9&#45;&gt;Node4</title>
<path fill="none" stroke="midnightblue" d="M299.472,-17.4807C388.263,-0.643752 581.422,23.1696 716,-53.0311 759.584,-77.7094 786.001,-133.769 797.579,-163.932"/>
<polygon fill="midnightblue" stroke="midnightblue" points="794.332,-165.242 801.06,-173.427 800.904,-162.833 794.332,-165.242"/>
</g>
<!-- Node10&#45;&gt;Node4 -->
<g id="edge15" class="edge"><title>Node10&#45;&gt;Node4</title>
<path fill="none" stroke="midnightblue" d="M310.088,-144.036C398.467,-143.3 570.978,-144.84 716,-164.031 728.815,-165.727 742.508,-168.391 755.199,-171.228"/>
<polygon fill="midnightblue" stroke="midnightblue" points="754.595,-174.68 765.127,-173.525 756.173,-167.86 754.595,-174.68"/>
</g>
<!-- Node10&#45;&gt;Node8 -->
<g id="edge16" class="edge"><title>Node10&#45;&gt;Node8</title>
<path fill="none" stroke="midnightblue" d="M301.022,-134.477C323.807,-129.621 351.025,-123.821 374.922,-118.728"/>
<polygon fill="midnightblue" stroke="midnightblue" points="375.887,-122.101 384.938,-116.594 374.428,-115.255 375.887,-122.101"/>
</g>
<!-- Node11 -->
<g id="node12" class="node"><title>Node11</title>
<g id="a_node12"><a xlink:href="namespacemessages.html#a80797cedef6112b8dccaeda431f0c610" target="_top" xlink:title="Print an array of dimension 2 on the screen. ">
<polygon fill="white" stroke="black" points="367,-173.531 367,-194.531 504,-194.531 504,-173.531 367,-173.531"/>
<text text-anchor="middle" x="435.5" y="-180.931" font-family="Ubuntu Mono" font-size="12.00">messages::print_ar_2</text>
</a>
</g>
</g>
<!-- Node10&#45;&gt;Node11 -->
<g id="edge17" class="edge"><title>Node10&#45;&gt;Node11</title>
<path fill="none" stroke="midnightblue" d="M301.022,-155.585C323.807,-160.441 351.025,-166.241 374.922,-171.334"/>
<polygon fill="midnightblue" stroke="midnightblue" points="374.428,-174.807 384.938,-173.469 375.887,-167.961 374.428,-174.807"/>
</g>
<!-- Node12 -->
<g id="node13" class="node"><title>Node12</title>
<g id="a_node13"><a xlink:href="namespacemessages.html#a5686118397930f505259225f3688216b" target="_top" xlink:title="Print an array of dimension 1 on the screen. ">
<polygon fill="white" stroke="black" points="570,-173.531 570,-194.531 707,-194.531 707,-173.531 570,-173.531"/>
<text text-anchor="middle" x="638.5" y="-180.931" font-family="Ubuntu Mono" font-size="12.00">messages::print_ar_1</text>
</a>
</g>
</g>
<!-- Node11&#45;&gt;Node12 -->
<g id="edge18" class="edge"><title>Node11&#45;&gt;Node12</title>
<path fill="none" stroke="midnightblue" d="M504.269,-184.031C522.059,-184.031 541.385,-184.031 559.657,-184.031"/>
<polygon fill="midnightblue" stroke="midnightblue" points="559.683,-187.531 569.683,-184.031 559.683,-180.531 559.683,-187.531"/>
</g>
<!-- Node12&#45;&gt;Node4 -->
<g id="edge19" class="edge"><title>Node12&#45;&gt;Node4</title>
<path fill="none" stroke="midnightblue" d="M707.088,-184.031C718.535,-184.031 730.379,-184.031 741.697,-184.031"/>
<polygon fill="midnightblue" stroke="midnightblue" points="741.917,-187.531 751.917,-184.031 741.917,-180.531 741.917,-187.531"/>
</g>
</g>
</svg>
