<?xml version="1.0" encoding="UTF-8" standalone="no"?>
<!DOCTYPE svg PUBLIC "-//W3C//DTD SVG 1.1//EN"
 "http://www.w3.org/Graphics/SVG/1.1/DTD/svg11.dtd">
<!-- Generated by graphviz version 2.38.0 (20140413.2041)
 -->
<!-- Title: grid_vars::dealloc_grid Pages: 1 -->
<svg width="694pt" height="129pt"
 viewBox="0.00 0.00 694.00 129.00" xmlns="http://www.w3.org/2000/svg" xmlns:xlink="http://www.w3.org/1999/xlink">
<g id="graph0" class="graph" transform="scale(1 1) rotate(0) translate(4 125)">
<title>grid_vars::dealloc_grid</title>
<polygon fill="white" stroke="none" points="-4,4 -4,-125 690,-125 690,4 -4,4"/>
<!-- Node0 -->
<g id="node1" class="node"><title>Node0</title>
<polygon fill="#bfbfbf" stroke="black" points="0,-60.5 0,-81.5 155,-81.5 155,-60.5 0,-60.5"/>
<text text-anchor="middle" x="77.5" y="-67.9" font-family="Ubuntu Mono" font-size="12.00">grid_vars::dealloc_grid</text>
</g>
<!-- Node1 -->
<g id="node2" class="node"><title>Node1</title>
<g id="a_node2"><a xlink:href="namespacemessages.html#a82dddaab795b78b3d39e1ff1aab2f665" target="_top" xlink:title="messages::get_mem_usage">
<polygon fill="white" stroke="black" points="364,-99.5 364,-120.5 519,-120.5 519,-99.5 364,-99.5"/>
<text text-anchor="middle" x="441.5" y="-106.9" font-family="Ubuntu Mono" font-size="12.00">messages::get_mem_usage</text>
</a>
</g>
</g>
<!-- Node0&#45;&gt;Node1 -->
<g id="edge1" class="edge"><title>Node0&#45;&gt;Node1</title>
<path fill="none" stroke="midnightblue" d="M101.147,-81.65C123.436,-91.5009 158.725,-105.433 191,-111 244.5,-120.228 305.419,-120.181 353.668,-117.728"/>
<polygon fill="midnightblue" stroke="midnightblue" points="353.973,-121.217 363.764,-117.171 353.587,-114.227 353.973,-121.217"/>
</g>
<!-- Node2 -->
<g id="node3" class="node"><title>Node2</title>
<g id="a_node3"><a xlink:href="grid__vars_8f90.html#ad8906f7cbf740b674a5036d6b952ae48" target="_top" xlink:title="dealloc_grid_final">
<polygon fill="white" stroke="black" points="197,-80.5 197,-101.5 322,-101.5 322,-80.5 197,-80.5"/>
<text text-anchor="middle" x="259.5" y="-87.9" font-family="Ubuntu Mono" font-size="12.00">dealloc_grid_final</text>
</a>
</g>
</g>
<!-- Node0&#45;&gt;Node2 -->
<g id="edge2" class="edge"><title>Node0&#45;&gt;Node2</title>
<path fill="none" stroke="midnightblue" d="M155.097,-79.5108C165.575,-80.675 176.3,-81.8667 186.689,-83.021"/>
<polygon fill="midnightblue" stroke="midnightblue" points="186.617,-86.5345 196.943,-84.1603 187.39,-79.5773 186.617,-86.5345"/>
</g>
<!-- Node3 -->
<g id="node4" class="node"><title>Node3</title>
<g id="a_node4"><a xlink:href="namespacemessages.html#aa4a8d01563e92558e8a0875b075ec54c" target="_top" xlink:title="messages::writo">
<polygon fill="white" stroke="black" points="206,-40.5 206,-61.5 313,-61.5 313,-40.5 206,-40.5"/>
<text text-anchor="middle" x="259.5" y="-47.9" font-family="Ubuntu Mono" font-size="12.00">messages::writo</text>
</a>
</g>
</g>
<!-- Node0&#45;&gt;Node3 -->
<g id="edge3" class="edge"><title>Node0&#45;&gt;Node3</title>
<path fill="none" stroke="midnightblue" d="M155.097,-62.4892C168.612,-60.9875 182.54,-59.44 195.623,-57.9863"/>
<polygon fill="midnightblue" stroke="midnightblue" points="196.359,-61.4262 205.912,-56.8432 195.586,-54.469 196.359,-61.4262"/>
</g>
<!-- Node6 -->
<g id="node7" class="node"><title>Node6</title>
<g id="a_node7"><a xlink:href="namespacestr__utilities.html#a0b97e51770725a3e98ed393d26681414" target="_top" xlink:title="str_utilities::i2str">
<polygon fill="white" stroke="black" points="191,-0.5 191,-21.5 328,-21.5 328,-0.5 191,-0.5"/>
<text text-anchor="middle" x="259.5" y="-7.9" font-family="Ubuntu Mono" font-size="12.00">str_utilities::i2str</text>
</a>
</g>
</g>
<!-- Node0&#45;&gt;Node6 -->
<g id="edge7" class="edge"><title>Node0&#45;&gt;Node6</title>
<path fill="none" stroke="midnightblue" d="M107.024,-60.3819C129.679,-52.0641 162.223,-40.3717 191,-31 197.637,-28.8385 204.672,-26.6461 211.597,-24.5441"/>
<polygon fill="midnightblue" stroke="midnightblue" points="213.032,-27.7679 221.606,-21.5433 211.022,-21.0628 213.032,-27.7679"/>
</g>
<!-- Node3&#45;&gt;Node1 -->
<g id="edge4" class="edge"><title>Node3&#45;&gt;Node1</title>
<path fill="none" stroke="midnightblue" d="M297.378,-61.5957C307.345,-64.5496 318.109,-67.8221 328,-71 352.576,-78.8963 379.945,-88.3688 401.534,-96.0009"/>
<polygon fill="midnightblue" stroke="midnightblue" points="400.421,-99.3198 411.015,-99.3658 402.762,-92.7229 400.421,-99.3198"/>
</g>
<!-- Node4 -->
<g id="node5" class="node"><title>Node4</title>
<g id="a_node5"><a xlink:href="messages_8f90.html#a6d15f28783f95a7a4b2a44185619792f" target="_top" xlink:title="format_str">
<polygon fill="white" stroke="black" points="403,-40.5 403,-61.5 480,-61.5 480,-40.5 403,-40.5"/>
<text text-anchor="middle" x="441.5" y="-47.9" font-family="Ubuntu Mono" font-size="12.00">format_str</text>
</a>
</g>
</g>
<!-- Node3&#45;&gt;Node4 -->
<g id="edge5" class="edge"><title>Node3&#45;&gt;Node4</title>
<path fill="none" stroke="midnightblue" d="M313.047,-51C338.198,-51 368.099,-51 392.615,-51"/>
<polygon fill="midnightblue" stroke="midnightblue" points="392.764,-54.5001 402.764,-51 392.763,-47.5001 392.764,-54.5001"/>
</g>
<!-- Node5 -->
<g id="node6" class="node"><title>Node5</title>
<g id="a_node6"><a xlink:href="namespacemessages.html#a61fd0b51b5e37d58fdc993c01792a3fd" target="_top" xlink:title="messages::get_clock">
<polygon fill="white" stroke="black" points="555,-40.5 555,-61.5 686,-61.5 686,-40.5 555,-40.5"/>
<text text-anchor="middle" x="620.5" y="-47.9" font-family="Ubuntu Mono" font-size="12.00">messages::get_clock</text>
</a>
</g>
</g>
<!-- Node4&#45;&gt;Node5 -->
<g id="edge6" class="edge"><title>Node4&#45;&gt;Node5</title>
<path fill="none" stroke="midnightblue" d="M480.037,-51C498.869,-51 522.372,-51 544.685,-51"/>
<polygon fill="midnightblue" stroke="midnightblue" points="544.832,-54.5001 554.832,-51 544.832,-47.5001 544.832,-54.5001"/>
</g>
</g>
</svg>
