<?xml version="1.0" encoding="UTF-8" standalone="no"?>
<!DOCTYPE svg PUBLIC "-//W3C//DTD SVG 1.1//EN"
 "http://www.w3.org/Graphics/SVG/1.1/DTD/svg11.dtd">
<!-- Generated by graphviz version 2.38.0 (20140413.2041)
 -->
<!-- Title: hdf5_utilities::set_1d_vars Pages: 1 -->
<svg width="1267pt" height="804pt"
 viewBox="0.00 0.00 1267.00 804.25" xmlns="http://www.w3.org/2000/svg" xmlns:xlink="http://www.w3.org/1999/xlink">
<g id="graph0" class="graph" transform="scale(1 1) rotate(0) translate(4 800.254)">
<title>hdf5_utilities::set_1d_vars</title>
<polygon fill="white" stroke="none" points="-4,4 -4,-800.254 1263,-800.254 1263,4 -4,4"/>
<!-- Node48 -->
<g id="node1" class="node"><title>Node48</title>
<polygon fill="#bfbfbf" stroke="black" points="0,-442.254 0,-476.254 131,-476.254 131,-442.254 0,-442.254"/>
<text text-anchor="start" x="8" y="-462.654" font-family="Ubuntu Mono" font-size="12.00">hdf5_utilities::set</text>
<text text-anchor="middle" x="65.5" y="-449.654" font-family="Ubuntu Mono" font-size="12.00">_1d_vars</text>
</g>
<!-- Node49 -->
<g id="node2" class="node"><title>Node49</title>
<g id="a_node2"><a xlink:href="namespacehdf5__ops.html#a18a07099350020b44d6fbe93ed36e804" target="_top" xlink:title="hdf5_ops::print_hdf5_arrs">
<polygon fill="white" stroke="black" points="167,-634.754 167,-655.754 334,-655.754 334,-634.754 167,-634.754"/>
<text text-anchor="middle" x="250.5" y="-642.154" font-family="Ubuntu Mono" font-size="12.00">hdf5_ops::print_hdf5_arrs</text>
</a>
</g>
</g>
<!-- Node48&#45;&gt;Node49 -->
<g id="edge1" class="edge"><title>Node48&#45;&gt;Node49</title>
<path fill="none" stroke="midnightblue" d="M90.4222,-483.569C130.663,-524.469 210.304,-605.416 238.937,-634.518"/>
<polygon fill="midnightblue" stroke="midnightblue" points="92.8965,-481.093 83.3882,-476.419 87.9066,-486.002 92.8965,-481.093"/>
</g>
<!-- Node64 -->
<g id="node17" class="node"><title>Node64</title>
<g id="a_node17"><a xlink:href="namespacehdf5__ops.html#a5108e0d6f6b492cb981505ebceedd9ee" target="_top" xlink:title="hdf5_ops::read_hdf5_arr">
<polygon fill="white" stroke="black" points="173,-262.754 173,-283.754 328,-283.754 328,-262.754 173,-262.754"/>
<text text-anchor="middle" x="250.5" y="-270.154" font-family="Ubuntu Mono" font-size="12.00">hdf5_ops::read_hdf5_arr</text>
</a>
</g>
</g>
<!-- Node48&#45;&gt;Node64 -->
<g id="edge21" class="edge"><title>Node48&#45;&gt;Node64</title>
<path fill="none" stroke="midnightblue" d="M90.4222,-434.94C130.663,-394.04 210.304,-313.092 238.937,-283.99"/>
<polygon fill="midnightblue" stroke="midnightblue" points="87.9066,-432.506 83.3882,-442.089 92.8965,-437.415 87.9066,-432.506"/>
</g>
<!-- Node50 -->
<g id="node3" class="node"><title>Node50</title>
<g id="a_node3"><a xlink:href="namespaceeq__ops.html#ad7c123990ab1ff23dbd71bb47c3181b8" target="_top" xlink:title="eq_ops::print_output_eq_1">
<polygon fill="white" stroke="black" points="370,-694.754 370,-715.754 537,-715.754 537,-694.754 370,-694.754"/>
<text text-anchor="middle" x="453.5" y="-702.154" font-family="Ubuntu Mono" font-size="12.00">eq_ops::print_output_eq_1</text>
</a>
</g>
</g>
<!-- Node49&#45;&gt;Node50 -->
<g id="edge2" class="edge"><title>Node49&#45;&gt;Node50</title>
<path fill="none" stroke="midnightblue" d="M289.923,-659.177C312.983,-667.294 342.989,-677.438 370,-685.254 381.609,-688.614 394.245,-691.873 406.06,-694.751"/>
<polygon fill="midnightblue" stroke="midnightblue" points="291.089,-655.877 280.494,-655.835 288.75,-662.475 291.089,-655.877"/>
</g>
<!-- Node51 -->
<g id="node4" class="node"><title>Node51</title>
<g id="a_node4"><a xlink:href="namespaceeq__ops.html#a479e914bb96e5269af860cae149e1a73" target="_top" xlink:title="eq_ops::print_output_eq_2">
<polygon fill="white" stroke="black" points="370,-654.754 370,-675.754 537,-675.754 537,-654.754 370,-654.754"/>
<text text-anchor="middle" x="453.5" y="-662.154" font-family="Ubuntu Mono" font-size="12.00">eq_ops::print_output_eq_2</text>
</a>
</g>
</g>
<!-- Node49&#45;&gt;Node51 -->
<g id="edge3" class="edge"><title>Node49&#45;&gt;Node51</title>
<path fill="none" stroke="midnightblue" d="M344.148,-654.473C352.73,-655.327 361.389,-656.188 369.872,-657.032"/>
<polygon fill="midnightblue" stroke="midnightblue" points="344.422,-650.983 334.125,-653.476 343.729,-657.949 344.422,-650.983"/>
</g>
<!-- Node52 -->
<g id="node5" class="node"><title>Node52</title>
<g id="a_node5"><a xlink:href="namespacegrid__ops.html#ab2a8efa54d36500efcabeb9f1aabbcc6" target="_top" xlink:title="grid_ops::print_output_grid">
<polygon fill="white" stroke="black" points="573,-444.754 573,-465.754 752,-465.754 752,-444.754 573,-444.754"/>
<text text-anchor="middle" x="662.5" y="-452.154" font-family="Ubuntu Mono" font-size="12.00">grid_ops::print_output_grid</text>
</a>
</g>
</g>
<!-- Node49&#45;&gt;Node52 -->
<g id="edge4" class="edge"><title>Node49&#45;&gt;Node52</title>
<path fill="none" stroke="midnightblue" d="M274.136,-628.605C297.449,-611.884 335.187,-585.98 370,-567.254 456.446,-520.754 480.464,-512.998 573,-480.254 588.051,-474.928 604.848,-469.948 619.729,-465.857"/>
<polygon fill="midnightblue" stroke="midnightblue" points="271.996,-625.834 265.944,-634.53 276.098,-631.506 271.996,-625.834"/>
</g>
<!-- Node58 -->
<g id="node11" class="node"><title>Node58</title>
<g id="a_node11"><a xlink:href="namespaceinput__ops.html#a84ec7b3833da80ebb36ae0d5ff1a9e0a" target="_top" xlink:title="input_ops::print_output_in">
<polygon fill="white" stroke="black" points="1003,-576.754 1003,-597.754 1176,-597.754 1176,-576.754 1003,-576.754"/>
<text text-anchor="middle" x="1089.5" y="-584.154" font-family="Ubuntu Mono" font-size="12.00">input_ops::print_output_in</text>
</a>
</g>
</g>
<!-- Node49&#45;&gt;Node58 -->
<g id="edge12" class="edge"><title>Node49&#45;&gt;Node58</title>
<path fill="none" stroke="midnightblue" d="M344.549,-643.297C480.362,-639.754 740.701,-630.371 961,-607.254 983.507,-604.892 1008.1,-601.281 1029.63,-597.774"/>
<polygon fill="midnightblue" stroke="midnightblue" points="344.098,-639.807 334.191,-643.562 344.278,-646.805 344.098,-639.807"/>
</g>
<!-- Node59 -->
<g id="node12" class="node"><title>Node59</title>
<g id="a_node12"><a xlink:href="namespacesol__ops.html#abd5b3b2d7008f482dd38f898a3300357" target="_top" xlink:title="sol_ops::print_output_sol">
<polygon fill="white" stroke="black" points="370,-774.754 370,-795.754 537,-795.754 537,-774.754 370,-774.754"/>
<text text-anchor="middle" x="453.5" y="-782.154" font-family="Ubuntu Mono" font-size="12.00">sol_ops::print_output_sol</text>
</a>
</g>
</g>
<!-- Node49&#45;&gt;Node59 -->
<g id="edge14" class="edge"><title>Node49&#45;&gt;Node59</title>
<path fill="none" stroke="midnightblue" d="M264.604,-663.982C284.317,-690.691 324.207,-739.352 370,-765.254 376.799,-769.1 384.319,-772.21 391.969,-774.725"/>
<polygon fill="midnightblue" stroke="midnightblue" points="267.408,-661.885 258.713,-655.83 261.734,-665.985 267.408,-661.885"/>
</g>
<!-- Node60 -->
<g id="node13" class="node"><title>Node60</title>
<g id="a_node13"><a xlink:href="X__ops_8f90.html#a319069f9962e6d8964d1186afcea89e4" target="_top" xlink:title="calc_magn_int_loc">
<polygon fill="white" stroke="black" points="394,-576.754 394,-597.754 513,-597.754 513,-576.754 394,-576.754"/>
<text text-anchor="middle" x="453.5" y="-584.154" font-family="Ubuntu Mono" font-size="12.00">calc_magn_int_loc</text>
</a>
</g>
</g>
<!-- Node49&#45;&gt;Node60 -->
<g id="edge16" class="edge"><title>Node49&#45;&gt;Node60</title>
<path fill="none" stroke="midnightblue" d="M297.662,-631.934C333.608,-621.561 382.816,-607.362 416.032,-597.777"/>
<polygon fill="midnightblue" stroke="midnightblue" points="296.537,-628.615 287.9,-634.751 298.478,-635.341 296.537,-628.615"/>
</g>
<!-- Node63 -->
<g id="node16" class="node"><title>Node63</title>
<g id="a_node16"><a xlink:href="namespacex__ops.html#a28615c2a15bf15a2d2acd71038386135" target="_top" xlink:title="x_ops::print_output_x_2">
<polygon fill="white" stroke="black" points="376,-734.754 376,-755.754 531,-755.754 531,-734.754 376,-734.754"/>
<text text-anchor="middle" x="453.5" y="-742.154" font-family="Ubuntu Mono" font-size="12.00">x_ops::print_output_x_2</text>
</a>
</g>
</g>
<!-- Node49&#45;&gt;Node63 -->
<g id="edge20" class="edge"><title>Node49&#45;&gt;Node63</title>
<path fill="none" stroke="midnightblue" d="M271.967,-662.439C294.582,-680.588 332.751,-708.806 370,-725.254 378.494,-729.005 387.803,-732.121 397.013,-734.687"/>
<polygon fill="midnightblue" stroke="midnightblue" points="274.057,-659.627 264.095,-656.021 269.634,-665.053 274.057,-659.627"/>
</g>
<!-- Node53 -->
<g id="node6" class="node"><title>Node53</title>
<g id="a_node6"><a xlink:href="namespacedriver__eq.html#ac8eca434f541966edc3556d72f261eff" target="_top" xlink:title="driver_eq::run_driver_eq">
<polygon fill="white" stroke="black" points="794,-380.754 794,-401.754 955,-401.754 955,-380.754 794,-380.754"/>
<text text-anchor="middle" x="874.5" y="-388.154" font-family="Ubuntu Mono" font-size="12.00">driver_eq::run_driver_eq</text>
</a>
</g>
</g>
<!-- Node52&#45;&gt;Node53 -->
<g id="edge5" class="edge"><title>Node52&#45;&gt;Node53</title>
<path fill="none" stroke="midnightblue" d="M708.208,-441.629C747.222,-429.739 803.034,-412.729 838.771,-401.838"/>
<polygon fill="midnightblue" stroke="midnightblue" points="706.723,-438.423 698.177,-444.686 708.763,-445.119 706.723,-438.423"/>
</g>
<!-- Node55 -->
<g id="node8" class="node"><title>Node55</title>
<g id="a_node8"><a xlink:href="namespacedriver__sol.html#a208ddea649ee160b7a55da8d0a5d4847" target="_top" xlink:title="driver_sol::run_driver_sol">
<polygon fill="white" stroke="black" points="788,-458.754 788,-479.754 961,-479.754 961,-458.754 788,-458.754"/>
<text text-anchor="middle" x="874.5" y="-466.154" font-family="Ubuntu Mono" font-size="12.00">driver_sol::run_driver_sol</text>
</a>
</g>
</g>
<!-- Node52&#45;&gt;Node55 -->
<g id="edge7" class="edge"><title>Node52&#45;&gt;Node55</title>
<path fill="none" stroke="midnightblue" d="M762.502,-461.854C770.937,-462.417 779.423,-462.982 787.742,-463.537"/>
<polygon fill="midnightblue" stroke="midnightblue" points="762.465,-458.344 752.255,-461.171 762,-465.329 762.465,-458.344"/>
</g>
<!-- Node56 -->
<g id="node9" class="node"><title>Node56</title>
<g id="a_node9"><a xlink:href="namespacedriver__x.html#a2b82a9bc6c0f4af9f3468d03fedc008e" target="_top" xlink:title="driver_x::run_driver_x_0">
<polygon fill="white" stroke="black" points="794,-498.754 794,-519.754 955,-519.754 955,-498.754 794,-498.754"/>
<text text-anchor="middle" x="874.5" y="-506.154" font-family="Ubuntu Mono" font-size="12.00">driver_x::run_driver_x_0</text>
</a>
</g>
</g>
<!-- Node52&#45;&gt;Node56 -->
<g id="edge9" class="edge"><title>Node52&#45;&gt;Node56</title>
<path fill="none" stroke="midnightblue" d="M710.668,-468.575C733.901,-475.024 762.364,-482.758 788,-489.254 800.561,-492.437 814.206,-495.711 826.832,-498.665"/>
<polygon fill="midnightblue" stroke="midnightblue" points="711.296,-465.117 700.723,-465.805 709.417,-471.86 711.296,-465.117"/>
</g>
<!-- Node54 -->
<g id="node7" class="node"><title>Node54</title>
<g id="a_node7"><a xlink:href="PB3D_8f90.html#afaee01f014ab3398eecac996b2795fd2" target="_top" xlink:title="pb3d">
<polygon fill="white" stroke="black" points="1218,-414.754 1218,-435.754 1259,-435.754 1259,-414.754 1218,-414.754"/>
<text text-anchor="middle" x="1238.5" y="-422.154" font-family="Ubuntu Mono" font-size="12.00">pb3d</text>
</a>
</g>
</g>
<!-- Node53&#45;&gt;Node54 -->
<g id="edge6" class="edge"><title>Node53&#45;&gt;Node54</title>
<path fill="none" stroke="midnightblue" d="M965.539,-399.711C1050.27,-407.669 1170.95,-419.004 1217.82,-423.406"/>
<polygon fill="midnightblue" stroke="midnightblue" points="965.674,-396.208 955.391,-398.758 965.019,-403.178 965.674,-396.208"/>
</g>
<!-- Node55&#45;&gt;Node54 -->
<g id="edge8" class="edge"><title>Node55&#45;&gt;Node54</title>
<path fill="none" stroke="midnightblue" d="M971.408,-457.597C1055.74,-447.346 1171.98,-433.218 1217.8,-427.649"/>
<polygon fill="midnightblue" stroke="midnightblue" points="970.794,-454.146 961.289,-458.827 971.638,-461.095 970.794,-454.146"/>
</g>
<!-- Node57 -->
<g id="node10" class="node"><title>Node57</title>
<g id="a_node10"><a xlink:href="namespacedriver__x.html#ada3d72a0929daaa5e3da585246d62281" target="_top" xlink:title="driver_x::run_driver_x">
<polygon fill="white" stroke="black" points="1015,-492.754 1015,-513.754 1164,-513.754 1164,-492.754 1015,-492.754"/>
<text text-anchor="middle" x="1089.5" y="-500.154" font-family="Ubuntu Mono" font-size="12.00">driver_x::run_driver_x</text>
</a>
</g>
</g>
<!-- Node56&#45;&gt;Node57 -->
<g id="edge10" class="edge"><title>Node56&#45;&gt;Node57</title>
<path fill="none" stroke="midnightblue" d="M965.331,-506.724C981.874,-506.258 998.968,-505.776 1014.96,-505.326"/>
<polygon fill="midnightblue" stroke="midnightblue" points="965.014,-503.231 955.116,-507.011 965.211,-510.228 965.014,-503.231"/>
</g>
<!-- Node57&#45;&gt;Node54 -->
<g id="edge11" class="edge"><title>Node57&#45;&gt;Node54</title>
<path fill="none" stroke="midnightblue" d="M1134.85,-489.265C1150.23,-483.648 1167.29,-476.529 1182,-468.254 1198.36,-459.054 1215.12,-445.362 1225.88,-435.912"/>
<polygon fill="midnightblue" stroke="midnightblue" points="1133.3,-486.102 1125.03,-492.735 1135.63,-492.702 1133.3,-486.102"/>
</g>
<!-- Node58&#45;&gt;Node54 -->
<g id="edge13" class="edge"><title>Node58&#45;&gt;Node54</title>
<path fill="none" stroke="midnightblue" d="M1119.38,-571.644C1138.78,-560.13 1163.99,-543.066 1182,-523.254 1206.99,-495.766 1225.46,-455.098 1233.32,-435.956"/>
<polygon fill="midnightblue" stroke="midnightblue" points="1117.56,-568.653 1110.65,-576.686 1121.06,-574.715 1117.56,-568.653"/>
</g>
<!-- Node59&#45;&gt;Node55 -->
<g id="edge15" class="edge"><title>Node59&#45;&gt;Node55</title>
<path fill="none" stroke="midnightblue" d="M533.684,-768.549C534.84,-767.511 535.947,-766.413 537,-765.254 613.072,-681.51 493.14,-593.394 573,-513.254 588.073,-498.128 704.405,-484.526 787.804,-476.577"/>
<polygon fill="midnightblue" stroke="midnightblue" points="531.43,-765.861 525.42,-774.587 535.559,-771.514 531.43,-765.861"/>
</g>
<!-- Node61 -->
<g id="node14" class="node"><title>Node61</title>
<g id="a_node14"><a xlink:href="namespacex__ops.html#a6df79622d1b95d54ab3e542751a5881d" target="_top" xlink:title="x_ops::calc_magn_ints">
<polygon fill="white" stroke="black" points="591,-576.754 591,-597.754 734,-597.754 734,-576.754 591,-576.754"/>
<text text-anchor="middle" x="662.5" y="-584.154" font-family="Ubuntu Mono" font-size="12.00">x_ops::calc_magn_ints</text>
</a>
</g>
</g>
<!-- Node60&#45;&gt;Node61 -->
<g id="edge17" class="edge"><title>Node60&#45;&gt;Node61</title>
<path fill="none" stroke="midnightblue" d="M523.375,-587.254C545.056,-587.254 569.029,-587.254 590.832,-587.254"/>
<polygon fill="midnightblue" stroke="midnightblue" points="523.264,-583.754 513.264,-587.254 523.264,-590.754 523.264,-583.754"/>
</g>
<!-- Node62 -->
<g id="node15" class="node"><title>Node62</title>
<g id="a_node15"><a xlink:href="namespacedriver__x.html#ad3924b3d66f336f0a9a9559eafffec8e" target="_top" xlink:title="driver_x::run_driver_x_2">
<polygon fill="white" stroke="black" points="794,-576.754 794,-597.754 955,-597.754 955,-576.754 794,-576.754"/>
<text text-anchor="middle" x="874.5" y="-584.154" font-family="Ubuntu Mono" font-size="12.00">driver_x::run_driver_x_2</text>
</a>
</g>
</g>
<!-- Node61&#45;&gt;Node62 -->
<g id="edge18" class="edge"><title>Node61&#45;&gt;Node62</title>
<path fill="none" stroke="midnightblue" d="M744.041,-587.254C760.346,-587.254 777.485,-587.254 793.763,-587.254"/>
<polygon fill="midnightblue" stroke="midnightblue" points="744.011,-583.754 734.011,-587.254 744.011,-590.754 744.011,-583.754"/>
</g>
<!-- Node62&#45;&gt;Node57 -->
<g id="edge19" class="edge"><title>Node62&#45;&gt;Node57</title>
<path fill="none" stroke="midnightblue" d="M926.289,-573.756C937.809,-570.322 949.913,-566.414 961,-562.254 999.821,-547.689 1043.31,-526.45 1068.14,-513.824"/>
<polygon fill="midnightblue" stroke="midnightblue" points="924.979,-570.492 916.355,-576.647 926.935,-577.214 924.979,-570.492"/>
</g>
<!-- Node65 -->
<g id="node18" class="node"><title>Node65</title>
<g id="a_node18"><a xlink:href="namespacepb3d__ops.html#a057fc02a2d90e9ac8a7e5764d83fd1df" target="_top" xlink:title="pb3d_ops::reconstruct\l_pb3d_in">
<polygon fill="white" stroke="black" points="591,-80.2542 591,-114.254 734,-114.254 734,-80.2542 591,-80.2542"/>
<text text-anchor="start" x="599" y="-100.654" font-family="Ubuntu Mono" font-size="12.00">pb3d_ops::reconstruct</text>
<text text-anchor="middle" x="662.5" y="-87.6542" font-family="Ubuntu Mono" font-size="12.00">_pb3d_in</text>
</a>
</g>
</g>
<!-- Node64&#45;&gt;Node65 -->
<g id="edge22" class="edge"><title>Node64&#45;&gt;Node65</title>
<path fill="none" stroke="midnightblue" d="M280.266,-257.912C304.079,-245.401 338.92,-227.527 370,-213.254 458.731,-172.504 481.954,-164.531 573,-129.254 585.949,-124.237 600.056,-119.023 613.124,-114.297"/>
<polygon fill="midnightblue" stroke="midnightblue" points="278.611,-254.828 271.401,-262.59 281.878,-261.019 278.611,-254.828"/>
</g>
<!-- Node72 -->
<g id="node25" class="node"><title>Node72</title>
<g id="a_node25"><a xlink:href="namespacepb3d__ops.html#a279af758fa95e678f6485c50e5bc4ffb" target="_top" xlink:title="pb3d_ops::reconstruct\l_pb3d_grid">
<polygon fill="white" stroke="black" points="591,-331.254 591,-365.254 734,-365.254 734,-331.254 591,-331.254"/>
<text text-anchor="start" x="599" y="-351.654" font-family="Ubuntu Mono" font-size="12.00">pb3d_ops::reconstruct</text>
<text text-anchor="middle" x="662.5" y="-338.654" font-family="Ubuntu Mono" font-size="12.00">_pb3d_grid</text>
</a>
</g>
</g>
<!-- Node64&#45;&gt;Node72 -->
<g id="edge34" class="edge"><title>Node64&#45;&gt;Node72</title>
<path fill="none" stroke="midnightblue" d="M271.984,-290.487C294.397,-308.134 332.195,-334.459 370,-345.254 443.12,-366.133 530.822,-363.537 590.802,-357.829"/>
<polygon fill="midnightblue" stroke="midnightblue" points="273.889,-287.527 263.907,-283.975 269.495,-292.977 273.889,-287.527"/>
</g>
<!-- Node75 -->
<g id="node28" class="node"><title>Node75</title>
<g id="a_node28"><a xlink:href="namespacepb3d__ops.html#a248d51dc98b7de287499ba3a4e6c1eaa" target="_top" xlink:title="pb3d_ops::reconstruct\l_pb3d_eq_1">
<polygon fill="white" stroke="black" points="591,-225.254 591,-259.254 734,-259.254 734,-225.254 591,-225.254"/>
<text text-anchor="start" x="599" y="-245.654" font-family="Ubuntu Mono" font-size="12.00">pb3d_ops::reconstruct</text>
<text text-anchor="middle" x="662.5" y="-232.654" font-family="Ubuntu Mono" font-size="12.00">_pb3d_eq_1</text>
</a>
</g>
</g>
<!-- Node64&#45;&gt;Node75 -->
<g id="edge45" class="edge"><title>Node64&#45;&gt;Node75</title>
<path fill="none" stroke="midnightblue" d="M338.515,-266.675C413.625,-260.996 520.772,-252.895 590.72,-247.606"/>
<polygon fill="midnightblue" stroke="midnightblue" points="337.845,-263.216 328.137,-267.46 338.372,-270.196 337.845,-263.216"/>
</g>
<!-- Node76 -->
<g id="node29" class="node"><title>Node76</title>
<g id="a_node29"><a xlink:href="namespacepb3d__ops.html#a13280910f320a6835cd19e62fe238240" target="_top" xlink:title="pb3d_ops::reconstruct\l_pb3d_eq_2">
<polygon fill="white" stroke="black" points="591,-172.254 591,-206.254 734,-206.254 734,-172.254 591,-172.254"/>
<text text-anchor="start" x="599" y="-192.654" font-family="Ubuntu Mono" font-size="12.00">pb3d_ops::reconstruct</text>
<text text-anchor="middle" x="662.5" y="-179.654" font-family="Ubuntu Mono" font-size="12.00">_pb3d_eq_2</text>
</a>
</g>
</g>
<!-- Node64&#45;&gt;Node76 -->
<g id="edge50" class="edge"><title>Node64&#45;&gt;Node76</title>
<path fill="none" stroke="midnightblue" d="M313.179,-260.618C387.681,-245.354 512.727,-219.734 590.983,-203.702"/>
<polygon fill="midnightblue" stroke="midnightblue" points="312.106,-257.265 303.012,-262.701 313.511,-264.122 312.106,-257.265"/>
</g>
<!-- Node77 -->
<g id="node30" class="node"><title>Node77</title>
<g id="a_node30"><a xlink:href="namespacepb3d__ops.html#ababe805fcaaca1486c74ad7a8aecfb7e" target="_top" xlink:title="pb3d_ops::reconstruct\l_pb3d_x_1">
<polygon fill="white" stroke="black" points="591,-27.2542 591,-61.2542 734,-61.2542 734,-27.2542 591,-27.2542"/>
<text text-anchor="start" x="599" y="-47.6542" font-family="Ubuntu Mono" font-size="12.00">pb3d_ops::reconstruct</text>
<text text-anchor="middle" x="662.5" y="-34.6542" font-family="Ubuntu Mono" font-size="12.00">_pb3d_x_1</text>
</a>
</g>
</g>
<!-- Node64&#45;&gt;Node77 -->
<g id="edge55" class="edge"><title>Node64&#45;&gt;Node77</title>
<path fill="none" stroke="midnightblue" d="M263.954,-254.092C283.37,-225.638 323.491,-172.249 370,-141.254 437.906,-95.999 528.765,-70.1902 590.885,-56.7481"/>
<polygon fill="midnightblue" stroke="midnightblue" points="260.835,-252.459 258.184,-262.717 266.653,-256.352 260.835,-252.459"/>
</g>
<!-- Node78 -->
<g id="node31" class="node"><title>Node78</title>
<g id="a_node31"><a xlink:href="namespacepb3d__ops.html#a50f211992fbe20a56749b2be81a521e6" target="_top" xlink:title="pb3d_ops::reconstruct\l_pb3d_x_2">
<polygon fill="white" stroke="black" points="591,-523.254 591,-557.254 734,-557.254 734,-523.254 591,-523.254"/>
<text text-anchor="start" x="599" y="-543.654" font-family="Ubuntu Mono" font-size="12.00">pb3d_ops::reconstruct</text>
<text text-anchor="middle" x="662.5" y="-530.654" font-family="Ubuntu Mono" font-size="12.00">_pb3d_x_2</text>
</a>
</g>
</g>
<!-- Node64&#45;&gt;Node78 -->
<g id="edge60" class="edge"><title>Node64&#45;&gt;Node78</title>
<path fill="none" stroke="midnightblue" d="M271.191,-290.488C294.172,-310.255 333.672,-343.165 370,-368.254 460.415,-430.699 574.279,-493.692 629.091,-523.113"/>
<polygon fill="midnightblue" stroke="midnightblue" points="273.359,-287.736 263.507,-283.839 268.779,-293.029 273.359,-287.736"/>
</g>
<!-- Node79 -->
<g id="node32" class="node"><title>Node79</title>
<g id="a_node32"><a xlink:href="namespacepb3d__ops.html#a418960ddc3c8c0ec6ac0af970feedbe2" target="_top" xlink:title="pb3d_ops::reconstruct\l_pb3d_sol">
<polygon fill="white" stroke="black" points="591,-278.254 591,-312.254 734,-312.254 734,-278.254 591,-278.254"/>
<text text-anchor="start" x="599" y="-298.654" font-family="Ubuntu Mono" font-size="12.00">pb3d_ops::reconstruct</text>
<text text-anchor="middle" x="662.5" y="-285.654" font-family="Ubuntu Mono" font-size="12.00">_pb3d_sol</text>
</a>
</g>
</g>
<!-- Node64&#45;&gt;Node79 -->
<g id="edge63" class="edge"><title>Node64&#45;&gt;Node79</title>
<path fill="none" stroke="midnightblue" d="M338.515,-277.923C413.625,-281.954 520.772,-287.703 590.72,-291.456"/>
<polygon fill="midnightblue" stroke="midnightblue" points="338.31,-274.407 328.137,-277.366 337.935,-281.397 338.31,-274.407"/>
</g>
<!-- Node80 -->
<g id="node33" class="node"><title>Node80</title>
<g id="a_node33"><a xlink:href="namespacepb3d__ops.html#a0bd4c4c24d7cbd1494b31ea993946433" target="_top" xlink:title="pb3d_ops::get_pb3d\l_grid_size">
<polygon fill="white" stroke="black" points="391,-302.254 391,-336.254 516,-336.254 516,-302.254 391,-302.254"/>
<text text-anchor="start" x="399" y="-322.654" font-family="Ubuntu Mono" font-size="12.00">pb3d_ops::get_pb3d</text>
<text text-anchor="middle" x="453.5" y="-309.654" font-family="Ubuntu Mono" font-size="12.00">_grid_size</text>
</a>
</g>
</g>
<!-- Node64&#45;&gt;Node80 -->
<g id="edge68" class="edge"><title>Node64&#45;&gt;Node80</title>
<path fill="none" stroke="midnightblue" d="M307.655,-286.106C333.58,-292.039 364.428,-299.098 390.98,-305.175"/>
<polygon fill="midnightblue" stroke="midnightblue" points="308.142,-282.627 297.613,-283.808 306.581,-289.45 308.142,-282.627"/>
</g>
<!-- Node66 -->
<g id="node19" class="node"><title>Node66</title>
<g id="a_node19"><a xlink:href="namespacedriver__post.html#af527706d4e696d4e507443d2f74194ef" target="_top" xlink:title="driver_post::init_post">
<polygon fill="white" stroke="black" points="800,-116.754 800,-137.754 949,-137.754 949,-116.754 800,-116.754"/>
<text text-anchor="middle" x="874.5" y="-124.154" font-family="Ubuntu Mono" font-size="12.00">driver_post::init_post</text>
</a>
</g>
</g>
<!-- Node65&#45;&gt;Node66 -->
<g id="edge23" class="edge"><title>Node65&#45;&gt;Node66</title>
<path fill="none" stroke="midnightblue" d="M744.092,-108.767C762.462,-111.392 781.886,-114.167 799.944,-116.746"/>
<polygon fill="midnightblue" stroke="midnightblue" points="744.406,-105.277 734.011,-107.327 743.416,-112.206 744.406,-105.277"/>
</g>
<!-- Node67 -->
<g id="node20" class="node"><title>Node67</title>
<g id="a_node20"><a xlink:href="POST_8f90.html#ac289b64ac4671fea0b4f2298ba1188a1" target="_top" xlink:title="post">
<polygon fill="white" stroke="black" points="1218,-135.754 1218,-156.754 1259,-156.754 1259,-135.754 1218,-135.754"/>
<text text-anchor="middle" x="1238.5" y="-143.154" font-family="Ubuntu Mono" font-size="12.00">post</text>
</a>
</g>
</g>
<!-- Node65&#45;&gt;Node67 -->
<g id="edge33" class="edge"><title>Node65&#45;&gt;Node67</title>
<path fill="none" stroke="midnightblue" d="M731.499,-77.8004C749.697,-73.4398 769.465,-69.4558 788,-67.2542 864.352,-58.1849 884.851,-56.6124 961,-67.2542 1062.15,-81.3902 1083.82,-102.108 1182,-130.254 1193.95,-133.681 1207.35,-137.542 1217.98,-140.612"/>
<polygon fill="midnightblue" stroke="midnightblue" points="730.437,-74.4574 721.568,-80.2527 732.115,-81.2532 730.437,-74.4574"/>
</g>
<!-- Node68 -->
<g id="node21" class="node"><title>Node68</title>
<g id="a_node21"><a xlink:href="namespacerich__ops.html#a9fbbda93eab8973d33063e277c489e7b" target="_top" xlink:title="rich_ops::init_rich">
<polygon fill="white" stroke="black" points="809,-248.754 809,-269.754 940,-269.754 940,-248.754 809,-248.754"/>
<text text-anchor="middle" x="874.5" y="-256.154" font-family="Ubuntu Mono" font-size="12.00">rich_ops::init_rich</text>
</a>
</g>
</g>
<!-- Node65&#45;&gt;Node68 -->
<g id="edge25" class="edge"><title>Node65&#45;&gt;Node68</title>
<path fill="none" stroke="midnightblue" d="M702.545,-119.811C719.355,-130.96 738.259,-145.6 752,-162.254 775.786,-191.084 759.047,-214.618 788,-238.254 794.157,-243.281 801.341,-247.131 808.879,-250.077"/>
<polygon fill="midnightblue" stroke="midnightblue" points="704.288,-116.771 693.984,-114.307 700.502,-122.659 704.288,-116.771"/>
</g>
<!-- Node69 -->
<g id="node22" class="node"><title>Node69</title>
<g id="a_node22"><a xlink:href="namespacetest.html#a4a25e64af6b986091f9e49ba447fc5c4" target="_top" xlink:title="test::test_calc_rzl">
<polygon fill="white" stroke="black" points="809,-76.7542 809,-97.7542 940,-97.7542 940,-76.7542 809,-76.7542"/>
<text text-anchor="middle" x="874.5" y="-84.1542" font-family="Ubuntu Mono" font-size="12.00">test::test_calc_rzl</text>
</a>
</g>
</g>
<!-- Node65&#45;&gt;Node69 -->
<g id="edge27" class="edge"><title>Node65&#45;&gt;Node69</title>
<path fill="none" stroke="midnightblue" d="M744.071,-93.4175C765.504,-92.3968 788.375,-91.3077 808.837,-90.3334"/>
<polygon fill="midnightblue" stroke="midnightblue" points="743.833,-89.9247 734.011,-93.8965 744.166,-96.9168 743.833,-89.9247"/>
</g>
<!-- Node71 -->
<g id="node24" class="node"><title>Node71</title>
<g id="a_node24"><a xlink:href="namespacetest.html#ac574f08ba400cd61070a6a6f13f6f7ee" target="_top" xlink:title="test::test_read_hdf5\l_subset">
<polygon fill="white" stroke="black" points="806,-195.254 806,-229.254 943,-229.254 943,-195.254 806,-195.254"/>
<text text-anchor="start" x="814" y="-215.654" font-family="Ubuntu Mono" font-size="12.00">test::test_read_hdf5</text>
<text text-anchor="middle" x="874.5" y="-202.654" font-family="Ubuntu Mono" font-size="12.00">_subset</text>
</a>
</g>
</g>
<!-- Node65&#45;&gt;Node71 -->
<g id="edge31" class="edge"><title>Node65&#45;&gt;Node71</title>
<path fill="none" stroke="midnightblue" d="M703.713,-119.275C744.052,-141.366 805.334,-174.925 842.189,-195.108"/>
<polygon fill="midnightblue" stroke="midnightblue" points="705.391,-116.204 694.939,-114.471 702.029,-122.344 705.391,-116.204"/>
</g>
<!-- Node66&#45;&gt;Node67 -->
<g id="edge24" class="edge"><title>Node66&#45;&gt;Node67</title>
<path fill="none" stroke="midnightblue" d="M959.342,-131.655C1044.28,-136.113 1169.79,-142.7 1217.82,-145.221"/>
<polygon fill="midnightblue" stroke="midnightblue" points="959.362,-128.151 949.192,-131.122 958.995,-135.141 959.362,-128.151"/>
</g>
<!-- Node68&#45;&gt;Node54 -->
<g id="edge26" class="edge"><title>Node68&#45;&gt;Node54</title>
<path fill="none" stroke="midnightblue" d="M908.426,-274.168C964.611,-299.646 1082.58,-353.261 1182,-399.254 1193.88,-404.749 1207.15,-410.966 1217.74,-415.942"/>
<polygon fill="midnightblue" stroke="midnightblue" points="909.544,-270.832 898.991,-269.891 906.654,-277.208 909.544,-270.832"/>
</g>
<!-- Node70 -->
<g id="node23" class="node"><title>Node70</title>
<g id="a_node23"><a xlink:href="namespacetest.html#aca21ee464c0b1f4b617177afdde110ec" target="_top" xlink:title="test::generic_tests">
<polygon fill="white" stroke="black" points="1024,-155.754 1024,-176.754 1155,-176.754 1155,-155.754 1024,-155.754"/>
<text text-anchor="middle" x="1089.5" y="-163.154" font-family="Ubuntu Mono" font-size="12.00">test::generic_tests</text>
</a>
</g>
</g>
<!-- Node69&#45;&gt;Node70 -->
<g id="edge28" class="edge"><title>Node69&#45;&gt;Node70</title>
<path fill="none" stroke="midnightblue" d="M938.202,-100.366C945.948,-102.441 953.703,-104.742 961,-107.254 1000.44,-120.832 1044.08,-142.596 1068.71,-155.551"/>
<polygon fill="midnightblue" stroke="midnightblue" points="938.987,-96.9541 928.431,-97.8601 937.248,-103.735 938.987,-96.9541"/>
</g>
<!-- Node70&#45;&gt;Node54 -->
<g id="edge29" class="edge"><title>Node70&#45;&gt;Node54</title>
<path fill="none" stroke="midnightblue" d="M1164.79,-174.55C1171.14,-177.516 1177.02,-181.342 1182,-186.254 1215.42,-219.246 1232.44,-372.715 1236.52,-414.644"/>
<polygon fill="midnightblue" stroke="midnightblue" points="1165.79,-171.184 1155.21,-170.792 1163.24,-177.701 1165.79,-171.184"/>
</g>
<!-- Node70&#45;&gt;Node67 -->
<g id="edge30" class="edge"><title>Node70&#45;&gt;Node67</title>
<path fill="none" stroke="midnightblue" d="M1165.52,-156.048C1184.89,-153.412 1204.12,-150.796 1217.82,-148.931"/>
<polygon fill="midnightblue" stroke="midnightblue" points="1164.84,-152.607 1155.4,-157.424 1165.78,-159.544 1164.84,-152.607"/>
</g>
<!-- Node71&#45;&gt;Node70 -->
<g id="edge32" class="edge"><title>Node71&#45;&gt;Node70</title>
<path fill="none" stroke="midnightblue" d="M953.25,-195.463C982.103,-189.232 1014,-182.344 1039.57,-176.822"/>
<polygon fill="midnightblue" stroke="midnightblue" points="952.223,-192.104 943.187,-197.636 953.701,-198.946 952.223,-192.104"/>
</g>
<!-- Node72&#45;&gt;Node53 -->
<g id="edge35" class="edge"><title>Node72&#45;&gt;Node53</title>
<path fill="none" stroke="midnightblue" d="M743.946,-364.727C770.184,-370.099 798.589,-375.915 822.097,-380.729"/>
<polygon fill="midnightblue" stroke="midnightblue" points="744.51,-361.269 734.011,-362.692 743.106,-368.127 744.51,-361.269"/>
</g>
<!-- Node72&#45;&gt;Node55 -->
<g id="edge41" class="edge"><title>Node72&#45;&gt;Node55</title>
<path fill="none" stroke="midnightblue" d="M688.955,-372.529C712.835,-394.112 750.408,-425.127 788,-444.254 799.716,-450.215 813.078,-454.974 825.701,-458.672"/>
<polygon fill="midnightblue" stroke="midnightblue" points="691.138,-369.782 681.402,-365.603 686.407,-374.941 691.138,-369.782"/>
</g>
<!-- Node72&#45;&gt;Node57 -->
<g id="edge42" class="edge"><title>Node72&#45;&gt;Node57</title>
<path fill="none" stroke="midnightblue" d="M701.082,-370.417C725.229,-383.855 757.649,-400.438 788,-411.254 862.154,-437.68 885.993,-425.358 961,-449.254 999.251,-461.44 1041.85,-480.707 1066.85,-492.631"/>
<polygon fill="midnightblue" stroke="midnightblue" points="702.684,-367.302 692.254,-365.439 699.246,-373.4 702.684,-367.302"/>
</g>
<!-- Node72&#45;&gt;Node66 -->
<g id="edge36" class="edge"><title>Node72&#45;&gt;Node66</title>
<path fill="none" stroke="midnightblue" d="M742.765,-329.084C746.089,-326.764 749.196,-324.164 752,-321.254 795.38,-276.224 751.835,-236.261 788,-185.254 803.458,-163.452 829.886,-147.381 849.278,-137.755"/>
<polygon fill="midnightblue" stroke="midnightblue" points="740.866,-326.142 734.105,-334.299 744.478,-332.139 740.866,-326.142"/>
</g>
<!-- Node72&#45;&gt;Node68 -->
<g id="edge43" class="edge"><title>Node72&#45;&gt;Node68</title>
<path fill="none" stroke="midnightblue" d="M741.432,-326.999C745.081,-325.224 748.625,-323.312 752,-321.254 771.589,-309.309 768.342,-296.085 788,-284.254 798.203,-278.114 810.003,-273.405 821.517,-269.823"/>
<polygon fill="midnightblue" stroke="midnightblue" points="739.881,-323.858 732.18,-331.134 742.738,-330.249 739.881,-323.858"/>
</g>
<!-- Node72&#45;&gt;Node71 -->
<g id="edge44" class="edge"><title>Node72&#45;&gt;Node71</title>
<path fill="none" stroke="midnightblue" d="M742.969,-328.068C746.162,-326.013 749.193,-323.749 752,-321.254 781.749,-294.812 758.38,-265.841 788,-239.254 793.213,-234.575 799.235,-230.707 805.621,-227.509"/>
<polygon fill="midnightblue" stroke="midnightblue" points="741.169,-325.065 734.187,-333.033 744.614,-331.158 741.169,-325.065"/>
</g>
<!-- Node73 -->
<g id="node26" class="node"><title>Node73</title>
<g id="a_node26"><a xlink:href="namespacedriver__post.html#a33b3c6f9018a0ddc92dce77394b8ab37" target="_top" xlink:title="driver_post::run_driver_post">
<polygon fill="white" stroke="black" points="997,-195.754 997,-216.754 1182,-216.754 1182,-195.754 997,-195.754"/>
<text text-anchor="middle" x="1089.5" y="-203.154" font-family="Ubuntu Mono" font-size="12.00">driver_post::run_driver_post</text>
</a>
</g>
</g>
<!-- Node72&#45;&gt;Node73 -->
<g id="edge37" class="edge"><title>Node72&#45;&gt;Node73</title>
<path fill="none" stroke="midnightblue" d="M740.759,-328.662C756.378,-324.802 772.7,-320.839 788,-317.254 864.647,-299.298 887.552,-307.582 961,-279.254 1004.31,-262.549 1050.48,-232.7 1073.56,-216.839"/>
<polygon fill="midnightblue" stroke="midnightblue" points="739.478,-325.374 730.615,-331.18 741.163,-332.168 739.478,-325.374"/>
</g>
<!-- Node74 -->
<g id="node27" class="node"><title>Node74</title>
<g id="a_node27"><a xlink:href="namespacedriver__post.html#aba7a645f4dd2e08db109cefc6ce0df86" target="_top" xlink:title="driver_post::setup\l_out_grids">
<polygon fill="white" stroke="black" points="812,-327.254 812,-361.254 937,-361.254 937,-327.254 812,-327.254"/>
<text text-anchor="start" x="820" y="-347.654" font-family="Ubuntu Mono" font-size="12.00">driver_post::setup</text>
<text text-anchor="middle" x="874.5" y="-334.654" font-family="Ubuntu Mono" font-size="12.00">_out_grids</text>
</a>
</g>
</g>
<!-- Node72&#45;&gt;Node74 -->
<g id="edge39" class="edge"><title>Node72&#45;&gt;Node74</title>
<path fill="none" stroke="midnightblue" d="M744.219,-346.717C766.71,-346.288 790.775,-345.83 811.969,-345.426"/>
<polygon fill="midnightblue" stroke="midnightblue" points="743.943,-343.221 734.011,-346.911 744.076,-350.22 743.943,-343.221"/>
</g>
<!-- Node73&#45;&gt;Node67 -->
<g id="edge38" class="edge"><title>Node73&#45;&gt;Node67</title>
<path fill="none" stroke="midnightblue" d="M1164.99,-192.696C1170.84,-190.811 1176.58,-188.674 1182,-186.254 1198.49,-178.895 1214.96,-166.174 1225.63,-157.052"/>
<polygon fill="midnightblue" stroke="midnightblue" points="1163.66,-189.439 1155.07,-195.636 1165.65,-196.15 1163.66,-189.439"/>
</g>
<!-- Node74&#45;&gt;Node73 -->
<g id="edge40" class="edge"><title>Node74&#45;&gt;Node73</title>
<path fill="none" stroke="midnightblue" d="M938.96,-323.261C946.566,-319.946 954.081,-316.27 961,-312.254 1009.3,-284.223 1057.62,-237.803 1078.19,-216.962"/>
<polygon fill="midnightblue" stroke="midnightblue" points="937.56,-320.052 929.67,-327.123 940.247,-326.516 937.56,-320.052"/>
</g>
<!-- Node75&#45;&gt;Node53 -->
<g id="edge46" class="edge"><title>Node75&#45;&gt;Node53</title>
<path fill="none" stroke="midnightblue" d="M742.977,-261.122C746.19,-263.252 749.221,-265.621 752,-268.254 786.891,-301.325 752.375,-337.974 788,-370.254 792.644,-374.462 797.994,-377.861 803.703,-380.602"/>
<polygon fill="midnightblue" stroke="midnightblue" points="744.513,-257.968 734.099,-256.023 741.027,-264.039 744.513,-257.968"/>
</g>
<!-- Node75&#45;&gt;Node66 -->
<g id="edge47" class="edge"><title>Node75&#45;&gt;Node66</title>
<path fill="none" stroke="midnightblue" d="M739.49,-221.306C743.795,-219.433 747.997,-217.418 752,-215.254 770.323,-205.353 771.362,-197.782 788,-185.254 811.213,-167.776 839.286,-149.192 856.772,-137.901"/>
<polygon fill="midnightblue" stroke="midnightblue" points="737.883,-218.181 729.931,-225.183 740.514,-224.668 737.883,-218.181"/>
</g>
<!-- Node75&#45;&gt;Node68 -->
<g id="edge48" class="edge"><title>Node75&#45;&gt;Node68</title>
<path fill="none" stroke="midnightblue" d="M744.071,-248.777C765.504,-250.512 788.375,-252.363 808.837,-254.02"/>
<polygon fill="midnightblue" stroke="midnightblue" points="744.261,-245.281 734.011,-247.962 743.696,-252.258 744.261,-245.281"/>
</g>
<!-- Node75&#45;&gt;Node71 -->
<g id="edge49" class="edge"><title>Node75&#45;&gt;Node71</title>
<path fill="none" stroke="midnightblue" d="M744.176,-230.729C764.478,-227.829 786.064,-224.745 805.666,-221.945"/>
<polygon fill="midnightblue" stroke="midnightblue" points="743.416,-227.302 734.011,-232.181 744.406,-234.232 743.416,-227.302"/>
</g>
<!-- Node76&#45;&gt;Node53 -->
<g id="edge51" class="edge"><title>Node76&#45;&gt;Node53</title>
<path fill="none" stroke="midnightblue" d="M742.858,-207.405C746.158,-209.72 749.235,-212.325 752,-215.254 800.549,-266.68 738.309,-319.931 788,-370.254 792.188,-374.496 797.085,-377.933 802.377,-380.711"/>
<polygon fill="midnightblue" stroke="midnightblue" points="744.619,-204.38 734.246,-202.224 741.011,-210.378 744.619,-204.38"/>
</g>
<!-- Node76&#45;&gt;Node66 -->
<g id="edge52" class="edge"><title>Node76&#45;&gt;Node66</title>
<path fill="none" stroke="midnightblue" d="M730.658,-169.237C749.228,-163.717 769.391,-157.74 788,-152.254 804.169,-147.488 822.07,-142.248 837.296,-137.802"/>
<polygon fill="midnightblue" stroke="midnightblue" points="729.405,-165.958 720.817,-172.163 731.4,-172.667 729.405,-165.958"/>
</g>
<!-- Node76&#45;&gt;Node71 -->
<g id="edge54" class="edge"><title>Node76&#45;&gt;Node71</title>
<path fill="none" stroke="midnightblue" d="M744.176,-198.09C764.478,-200.314 786.064,-202.678 805.666,-204.825"/>
<polygon fill="midnightblue" stroke="midnightblue" points="744.333,-194.586 734.011,-196.977 743.571,-201.545 744.333,-194.586"/>
</g>
<!-- Node76&#45;&gt;Node73 -->
<g id="edge53" class="edge"><title>Node76&#45;&gt;Node73</title>
<path fill="none" stroke="midnightblue" d="M744.41,-184.025C804.318,-181.16 887.878,-179.273 961,-185.254 986.042,-187.303 1013.58,-191.578 1036.63,-195.74"/>
<polygon fill="midnightblue" stroke="midnightblue" points="744.071,-180.538 734.257,-184.531 744.419,-187.529 744.071,-180.538"/>
</g>
<!-- Node77&#45;&gt;Node57 -->
<g id="edge58" class="edge"><title>Node77&#45;&gt;Node57</title>
<path fill="none" stroke="midnightblue" d="M744.311,-40.1026C821.185,-37.9454 929.631,-40.1466 961,-67.2542 1015.82,-114.628 977.614,-156.44 997,-226.254 1026.2,-331.417 1071.08,-455.817 1084.55,-492.545"/>
<polygon fill="midnightblue" stroke="midnightblue" points="744.043,-36.6091 734.157,-40.4177 744.261,-43.6057 744.043,-36.6091"/>
</g>
<!-- Node77&#45;&gt;Node66 -->
<g id="edge56" class="edge"><title>Node77&#45;&gt;Node66</title>
<path fill="none" stroke="midnightblue" d="M743.25,-65.4784C746.26,-66.9696 749.188,-68.5595 752,-70.2542 771.651,-82.098 768.026,-95.9647 788,-107.254 794.768,-111.08 802.233,-114.175 809.849,-116.679"/>
<polygon fill="midnightblue" stroke="midnightblue" points="744.571,-62.2345 734.018,-61.2953 741.682,-68.6105 744.571,-62.2345"/>
</g>
<!-- Node77&#45;&gt;Node71 -->
<g id="edge59" class="edge"><title>Node77&#45;&gt;Node71</title>
<path fill="none" stroke="midnightblue" d="M742.887,-63.602C746.101,-65.6051 749.16,-67.8153 752,-70.2542 780.659,-94.8676 764.273,-117.857 788,-147.254 803.576,-166.552 826.045,-183.343 844.04,-195.022"/>
<polygon fill="midnightblue" stroke="midnightblue" points="744.511,-60.5008 734.058,-58.7691 741.149,-66.641 744.511,-60.5008"/>
</g>
<!-- Node77&#45;&gt;Node73 -->
<g id="edge57" class="edge"><title>Node77&#45;&gt;Node73</title>
<path fill="none" stroke="midnightblue" d="M715.869,-23.9822C780.742,-2.6295 891.214,20.934 961,-34.2542 1015.45,-77.3179 947.485,-137.592 997,-186.254 1000.83,-190.015 1005.19,-193.139 1009.88,-195.728"/>
<polygon fill="midnightblue" stroke="midnightblue" points="714.598,-20.7174 706.25,-27.2422 716.845,-27.347 714.598,-20.7174"/>
</g>
<!-- Node78&#45;&gt;Node57 -->
<g id="edge61" class="edge"><title>Node78&#45;&gt;Node57</title>
<path fill="none" stroke="midnightblue" d="M744.249,-540.842C804.246,-540.412 887.989,-537.988 961,-529.254 989.487,-525.846 1021.09,-519.421 1045.7,-513.811"/>
<polygon fill="midnightblue" stroke="midnightblue" points="744.062,-537.342 734.082,-540.897 744.1,-544.342 744.062,-537.342"/>
</g>
<!-- Node78&#45;&gt;Node62 -->
<g id="edge62" class="edge"><title>Node78&#45;&gt;Node62</title>
<path fill="none" stroke="midnightblue" d="M744.121,-558.298C771.9,-564.515 802.089,-571.272 826.314,-576.693"/>
<polygon fill="midnightblue" stroke="midnightblue" points="744.534,-554.804 734.011,-556.035 743.005,-561.635 744.534,-554.804"/>
</g>
<!-- Node79&#45;&gt;Node55 -->
<g id="edge65" class="edge"><title>Node79&#45;&gt;Node55</title>
<path fill="none" stroke="midnightblue" d="M743.061,-314.405C746.229,-316.46 749.231,-318.736 752,-321.254 783.872,-350.24 760.99,-377.691 788,-411.254 804.981,-432.355 831.676,-448.742 850.718,-458.636"/>
<polygon fill="midnightblue" stroke="midnightblue" points="744.757,-311.343 734.331,-309.46 741.308,-317.434 744.757,-311.343"/>
</g>
<!-- Node79&#45;&gt;Node66 -->
<g id="edge64" class="edge"><title>Node79&#45;&gt;Node66</title>
<path fill="none" stroke="midnightblue" d="M742.983,-275.083C746.172,-273.024 749.199,-270.755 752,-268.254 781.994,-241.475 762.344,-216.214 788,-185.254 805.396,-164.262 832.277,-147.75 851.246,-137.8"/>
<polygon fill="midnightblue" stroke="midnightblue" points="741.181,-272.081 734.208,-280.058 744.634,-278.171 741.181,-272.081"/>
</g>
<!-- Node79&#45;&gt;Node68 -->
<g id="edge66" class="edge"><title>Node79&#45;&gt;Node68</title>
<path fill="none" stroke="midnightblue" d="M743.915,-281.469C766.493,-277.598 790.679,-273.452 811.969,-269.802"/>
<polygon fill="midnightblue" stroke="midnightblue" points="743.276,-278.027 734.011,-283.167 744.459,-284.927 743.276,-278.027"/>
</g>
<!-- Node79&#45;&gt;Node71 -->
<g id="edge67" class="edge"><title>Node79&#45;&gt;Node71</title>
<path fill="none" stroke="midnightblue" d="M738.825,-274.493C743.359,-272.564 747.786,-270.486 752,-268.254 770.156,-258.637 769.891,-248.96 788,-239.254 794.86,-235.578 802.302,-232.307 809.837,-229.424"/>
<polygon fill="midnightblue" stroke="midnightblue" points="737.399,-271.294 729.403,-278.245 739.988,-277.797 737.399,-271.294"/>
</g>
<!-- Node80&#45;&gt;Node66 -->
<g id="edge69" class="edge"><title>Node80&#45;&gt;Node66</title>
<path fill="none" stroke="midnightblue" d="M470.269,-293.655C495.657,-253.336 545.519,-177.993 573,-162.254 610.431,-140.818 723.532,-132.481 799.794,-129.258"/>
<polygon fill="midnightblue" stroke="midnightblue" points="467.284,-291.827 464.949,-302.161 473.219,-295.539 467.284,-291.827"/>
</g>
<!-- Node80&#45;&gt;Node72 -->
<g id="edge70" class="edge"><title>Node80&#45;&gt;Node72</title>
<path fill="none" stroke="midnightblue" d="M526.14,-329.291C547.049,-332.22 569.881,-335.419 590.736,-338.34"/>
<polygon fill="midnightblue" stroke="midnightblue" points="526.435,-325.798 516.046,-327.877 525.464,-332.73 526.435,-325.798"/>
</g>
</g>
</svg>
