<?xml version="1.0" encoding="UTF-8" standalone="no"?>
<!DOCTYPE svg PUBLIC "-//W3C//DTD SVG 1.1//EN"
 "http://www.w3.org/Graphics/SVG/1.1/DTD/svg11.dtd">
<!-- Generated by graphviz version 2.43.0 (0)
 -->
<!-- Title: slepc_utilities::insert_block_mat Pages: 1 -->
<svg width="1062pt" height="368pt"
 viewBox="0.00 0.00 1062.00 368.00" xmlns="http://www.w3.org/2000/svg" xmlns:xlink="http://www.w3.org/1999/xlink">
<g id="graph0" class="graph" transform="scale(1 1) rotate(0) translate(4 364)">
<title>slepc_utilities::insert_block_mat</title>
<polygon fill="white" stroke="transparent" points="-4,4 -4,-364 1058,-364 1058,4 -4,4"/>
<!-- Node1 -->
<g id="node1" class="node">
<title>Node1</title>
<g id="a_node1"><a xlink:title="Insert a block pertaining to 1 normal point into a matrix.">
<polygon fill="#bfbfbf" stroke="black" points="0,-190 0,-224 137,-224 137,-190 0,-190"/>
<text text-anchor="start" x="8" y="-210.4" font-family="Ubuntu Mono" font-size="12.00">slepc_utilities::insert</text>
<text text-anchor="middle" x="68.5" y="-197.4" font-family="Ubuntu Mono" font-size="12.00">_block_mat</text>
</a>
</g>
</g>
<!-- Node2 -->
<g id="node2" class="node">
<title>Node2</title>
<g id="a_node2"><a xlink:href="namespacestr__utilities.html#a0b97e51770725a3e98ed393d26681414" target="_top" xlink:title="Convert an integer to string.">
<polygon fill="white" stroke="black" points="905.5,-311.5 905.5,-332.5 1019.5,-332.5 1019.5,-311.5 905.5,-311.5"/>
<text text-anchor="middle" x="962.5" y="-318.9" font-family="Ubuntu Mono" font-size="12.00">str_utilities::i2str</text>
</a>
</g>
</g>
<!-- Node1&#45;&gt;Node2 -->
<g id="edge1" class="edge">
<title>Node1&#45;&gt;Node2</title>
<path fill="none" stroke="midnightblue" d="M87.99,-224.1C107.73,-241.56 140.56,-268.38 173,-285 273.03,-336.25 302.11,-360 414.5,-360 414.5,-360 414.5,-360 612,-360 711.31,-360 736.47,-358.39 835,-346 857.59,-343.16 882.24,-338.78 903.72,-334.53"/>
<polygon fill="midnightblue" stroke="midnightblue" points="904.55,-337.94 913.67,-332.53 903.17,-331.07 904.55,-337.94"/>
</g>
<!-- Node3 -->
<g id="node3" class="node">
<title>Node3</title>
<g id="a_node3"><a xlink:href="namespacemessages.html#a6e6bfb084063e4cc91ee86e542043302" target="_top" xlink:title="Increases/decreases lvl of output.">
<polygon fill="white" stroke="black" points="174.5,-196.5 174.5,-217.5 292.5,-217.5 292.5,-196.5 174.5,-196.5"/>
<text text-anchor="middle" x="233.5" y="-203.9" font-family="Ubuntu Mono" font-size="12.00">messages::lvl_ud</text>
</a>
</g>
</g>
<!-- Node1&#45;&gt;Node3 -->
<g id="edge2" class="edge">
<title>Node1&#45;&gt;Node3</title>
<path fill="none" stroke="midnightblue" d="M137.21,-207C146.17,-207 155.36,-207 164.33,-207"/>
<polygon fill="midnightblue" stroke="midnightblue" points="164.34,-210.5 174.34,-207 164.34,-203.5 164.34,-210.5"/>
</g>
<!-- Node4 -->
<g id="node4" class="node">
<title>Node4</title>
<g id="a_node4"><a xlink:href="namespacemessages.html#aa4a8d01563e92558e8a0875b075ec54c" target="_top" xlink:title="Write output to file identified by output_i.">
<polygon fill="white" stroke="black" points="721,-176.5 721,-197.5 835,-197.5 835,-176.5 721,-176.5"/>
<text text-anchor="middle" x="778" y="-183.9" font-family="Ubuntu Mono" font-size="12.00">messages::writo</text>
</a>
</g>
</g>
<!-- Node1&#45;&gt;Node4 -->
<g id="edge20" class="edge">
<title>Node1&#45;&gt;Node4</title>
<path fill="none" stroke="midnightblue" d="M137.16,-192.04C149.04,-189.95 161.34,-188.13 173,-187 367.58,-168.1 599.08,-176.73 710.53,-182.81"/>
<polygon fill="midnightblue" stroke="midnightblue" points="710.44,-186.31 720.62,-183.37 710.83,-179.32 710.44,-186.31"/>
</g>
<!-- Node7 -->
<g id="node7" class="node">
<title>Node7</title>
<g id="a_node7"><a xlink:href="namespaceinput__utilities.html#a71bd36f063d55ab62c7a37864aef1185" target="_top" xlink:title="Pauses the running of the program.">
<polygon fill="white" stroke="black" points="330,-78.5 330,-99.5 501,-99.5 501,-78.5 330,-78.5"/>
<text text-anchor="middle" x="415.5" y="-85.9" font-family="Ubuntu Mono" font-size="12.00">input_utilities::pause_prog</text>
</a>
</g>
</g>
<!-- Node1&#45;&gt;Node7 -->
<g id="edge7" class="edge">
<title>Node1&#45;&gt;Node7</title>
<path fill="none" stroke="midnightblue" d="M98.63,-189.99C118.96,-178.64 147.01,-164.02 173,-154 232.69,-130.98 303.68,-112.92 353.18,-101.75"/>
<polygon fill="midnightblue" stroke="midnightblue" points="354.09,-105.13 363.09,-99.53 352.57,-98.3 354.09,-105.13"/>
</g>
<!-- Node11 -->
<g id="node11" class="node">
<title>Node11</title>
<g id="a_node11"><a xlink:href="SLEPC__utilities_8f90.html#a711d6be49d3b1542ee3375bceb5b4e6d" target="_top" xlink:title="/private Set up local block, possibly translated for fast PB3D.">
<polygon fill="white" stroke="black" points="173,-254.5 173,-275.5 294,-275.5 294,-254.5 173,-254.5"/>
<text text-anchor="middle" x="233.5" y="-261.9" font-family="Ubuntu Mono" font-size="12.00">setup_local_block</text>
</a>
</g>
</g>
<!-- Node1&#45;&gt;Node11 -->
<g id="edge14" class="edge">
<title>Node1&#45;&gt;Node11</title>
<path fill="none" stroke="midnightblue" d="M117.52,-224.09C141.57,-232.65 170.33,-242.88 193.07,-250.97"/>
<polygon fill="midnightblue" stroke="midnightblue" points="192.14,-254.35 202.73,-254.41 194.49,-247.76 192.14,-254.35"/>
</g>
<!-- Node3&#45;&gt;Node4 -->
<g id="edge3" class="edge">
<title>Node3&#45;&gt;Node4</title>
<path fill="none" stroke="midnightblue" d="M292.56,-204.86C394.24,-201.11 603.9,-193.38 710.95,-189.43"/>
<polygon fill="midnightblue" stroke="midnightblue" points="711.12,-192.93 720.99,-189.07 710.86,-185.94 711.12,-192.93"/>
</g>
<!-- Node4&#45;&gt;Node2 -->
<g id="edge6" class="edge">
<title>Node4&#45;&gt;Node2</title>
<path fill="none" stroke="midnightblue" d="M793.32,-197.59C824.9,-220.96 900.75,-277.06 938.85,-305.25"/>
<polygon fill="midnightblue" stroke="midnightblue" points="937.13,-308.32 947.25,-311.46 941.29,-302.7 937.13,-308.32"/>
</g>
<!-- Node5 -->
<g id="node5" class="node">
<title>Node5</title>
<g id="a_node5"><a xlink:href="namespacemessages.html#a61fd0b51b5e37d58fdc993c01792a3fd" target="_top" xlink:title="Returns the time.">
<polygon fill="white" stroke="black" points="892.5,-196.5 892.5,-217.5 1032.5,-217.5 1032.5,-196.5 892.5,-196.5"/>
<text text-anchor="middle" x="962.5" y="-203.9" font-family="Ubuntu Mono" font-size="12.00">messages::get_clock</text>
</a>
</g>
</g>
<!-- Node4&#45;&gt;Node5 -->
<g id="edge4" class="edge">
<title>Node4&#45;&gt;Node5</title>
<path fill="none" stroke="midnightblue" d="M835.25,-193.16C850.02,-194.78 866.24,-196.56 881.99,-198.29"/>
<polygon fill="midnightblue" stroke="midnightblue" points="881.93,-201.8 892.25,-199.41 882.69,-194.84 881.93,-201.8"/>
</g>
<!-- Node6 -->
<g id="node6" class="node">
<title>Node6</title>
<g id="a_node6"><a xlink:href="namespacemessages.html#a82dddaab795b78b3d39e1ff1aab2f665" target="_top" xlink:title="Returns the memory usage in kilobytes.">
<polygon fill="white" stroke="black" points="871,-156.5 871,-177.5 1054,-177.5 1054,-156.5 871,-156.5"/>
<text text-anchor="middle" x="962.5" y="-163.9" font-family="Ubuntu Mono" font-size="12.00">messages::get_mem_usage</text>
</a>
</g>
</g>
<!-- Node4&#45;&gt;Node6 -->
<g id="edge5" class="edge">
<title>Node4&#45;&gt;Node6</title>
<path fill="none" stroke="midnightblue" d="M835.25,-180.84C843.46,-179.94 852.13,-178.99 860.91,-178.02"/>
<polygon fill="midnightblue" stroke="midnightblue" points="861.3,-181.5 870.86,-176.93 860.53,-174.54 861.3,-181.5"/>
</g>
<!-- Node7&#45;&gt;Node4 -->
<g id="edge13" class="edge">
<title>Node7&#45;&gt;Node4</title>
<path fill="none" stroke="midnightblue" d="M443.33,-78.49C493.65,-60.56 604.35,-29.62 685,-69 726.79,-89.41 755.12,-138.97 768.38,-166.94"/>
<polygon fill="midnightblue" stroke="midnightblue" points="765.25,-168.52 772.58,-176.17 771.63,-165.62 765.25,-168.52"/>
</g>
<!-- Node8 -->
<g id="node8" class="node">
<title>Node8</title>
<g id="a_node8"><a xlink:href="namespacemessages.html#a84d5988f3ea5ca8dc2834032f896ae90" target="_top" xlink:title="Start a timer.">
<polygon fill="white" stroke="black" points="538.5,-0.5 538.5,-21.5 683.5,-21.5 683.5,-0.5 538.5,-0.5"/>
<text text-anchor="middle" x="611" y="-7.9" font-family="Ubuntu Mono" font-size="12.00">messages::start_time</text>
</a>
</g>
</g>
<!-- Node7&#45;&gt;Node8 -->
<g id="edge8" class="edge">
<title>Node7&#45;&gt;Node8</title>
<path fill="none" stroke="midnightblue" d="M438.91,-78.46C462.93,-67.33 502.3,-49.55 537,-36 546.73,-32.2 557.31,-28.4 567.32,-24.94"/>
<polygon fill="midnightblue" stroke="midnightblue" points="568.74,-28.15 577.08,-21.62 566.49,-21.53 568.74,-28.15"/>
</g>
<!-- Node9 -->
<g id="node9" class="node">
<title>Node9</title>
<g id="a_node9"><a xlink:href="namespacemessages.html#aed343894ae4a28ad6dfbd1d39aac64ff" target="_top" xlink:title="Stop a timer.">
<polygon fill="white" stroke="black" points="539.5,-78.5 539.5,-99.5 682.5,-99.5 682.5,-78.5 539.5,-78.5"/>
<text text-anchor="middle" x="611" y="-85.9" font-family="Ubuntu Mono" font-size="12.00">messages::stop_time</text>
</a>
</g>
</g>
<!-- Node7&#45;&gt;Node9 -->
<g id="edge10" class="edge">
<title>Node7&#45;&gt;Node9</title>
<path fill="none" stroke="midnightblue" d="M501.09,-89C510.5,-89 520.07,-89 529.42,-89"/>
<polygon fill="midnightblue" stroke="midnightblue" points="529.48,-92.5 539.48,-89 529.48,-85.5 529.48,-92.5"/>
</g>
<!-- Node10 -->
<g id="node10" class="node">
<title>Node10</title>
<g id="a_node10"><a xlink:href="namespacempi__utilities.html#a790ea24d32dd0e249541c1e57cd85536" target="_top" xlink:title="Wait for all processes, wrapper to MPI barrier.">
<polygon fill="white" stroke="black" points="537,-118.5 537,-139.5 685,-139.5 685,-118.5 537,-118.5"/>
<text text-anchor="middle" x="611" y="-125.9" font-family="Ubuntu Mono" font-size="12.00">mpi_utilities::wait_mpi</text>
</a>
</g>
</g>
<!-- Node7&#45;&gt;Node10 -->
<g id="edge12" class="edge">
<title>Node7&#45;&gt;Node10</title>
<path fill="none" stroke="midnightblue" d="M467.34,-99.51C492.46,-104.7 522.96,-111.01 549.29,-116.45"/>
<polygon fill="midnightblue" stroke="midnightblue" points="548.66,-119.89 559.16,-118.49 550.08,-113.04 548.66,-119.89"/>
</g>
<!-- Node8&#45;&gt;Node4 -->
<g id="edge9" class="edge">
<title>Node8&#45;&gt;Node4</title>
<path fill="none" stroke="midnightblue" d="M658.51,-21.53C667.91,-25.08 677.27,-29.79 685,-36 729.08,-71.41 757.35,-134.03 769.75,-166.37"/>
<polygon fill="midnightblue" stroke="midnightblue" points="766.59,-167.94 773.34,-176.1 773.16,-165.51 766.59,-167.94"/>
</g>
<!-- Node9&#45;&gt;Node4 -->
<g id="edge11" class="edge">
<title>Node9&#45;&gt;Node4</title>
<path fill="none" stroke="midnightblue" d="M661.81,-99.5C669.8,-102.07 677.79,-105.2 685,-109 714.71,-124.67 743.32,-151.33 760.53,-169.06"/>
<polygon fill="midnightblue" stroke="midnightblue" points="758.18,-171.66 767.6,-176.5 763.25,-166.84 758.18,-171.66"/>
</g>
<!-- Node11&#45;&gt;Node2 -->
<g id="edge15" class="edge">
<title>Node11&#45;&gt;Node2</title>
<path fill="none" stroke="midnightblue" d="M255.09,-275.63C274,-284.8 303.09,-297.42 330,-303 532.52,-344.98 779.3,-335.43 895.28,-327.48"/>
<polygon fill="midnightblue" stroke="midnightblue" points="895.68,-330.96 905.41,-326.77 895.19,-323.98 895.68,-330.96"/>
</g>
<!-- Node11&#45;&gt;Node4 -->
<g id="edge19" class="edge">
<title>Node11&#45;&gt;Node4</title>
<path fill="none" stroke="midnightblue" d="M294.14,-258.97C380.61,-249.86 545.71,-231.06 685,-207 697.08,-204.91 709.98,-202.33 722.18,-199.73"/>
<polygon fill="midnightblue" stroke="midnightblue" points="723.2,-203.09 732.23,-197.54 721.71,-196.25 723.2,-203.09"/>
</g>
<!-- Node12 -->
<g id="node12" class="node">
<title>Node12</title>
<g id="a_node12"><a xlink:href="namespacemessages.html#a80797cedef6112b8dccaeda431f0c610" target="_top" xlink:title="Print an array of dimension 2 on the screen.">
<polygon fill="white" stroke="black" points="343.5,-272.5 343.5,-293.5 487.5,-293.5 487.5,-272.5 343.5,-272.5"/>
<text text-anchor="middle" x="415.5" y="-279.9" font-family="Ubuntu Mono" font-size="12.00">messages::print_ar_2</text>
</a>
</g>
</g>
<!-- Node11&#45;&gt;Node12 -->
<g id="edge16" class="edge">
<title>Node11&#45;&gt;Node12</title>
<path fill="none" stroke="midnightblue" d="M294.44,-270.99C306.78,-272.23 319.98,-273.55 332.95,-274.84"/>
<polygon fill="midnightblue" stroke="midnightblue" points="332.97,-278.36 343.27,-275.88 333.67,-271.4 332.97,-278.36"/>
</g>
<!-- Node13 -->
<g id="node13" class="node">
<title>Node13</title>
<g id="a_node13"><a xlink:href="namespacemessages.html#a5686118397930f505259225f3688216b" target="_top" xlink:title="Print an array of dimension 1 on the screen.">
<polygon fill="white" stroke="black" points="539,-272.5 539,-293.5 683,-293.5 683,-272.5 539,-272.5"/>
<text text-anchor="middle" x="611" y="-279.9" font-family="Ubuntu Mono" font-size="12.00">messages::print_ar_1</text>
</a>
</g>
</g>
<!-- Node12&#45;&gt;Node13 -->
<g id="edge17" class="edge">
<title>Node12&#45;&gt;Node13</title>
<path fill="none" stroke="midnightblue" d="M487.73,-283C501.04,-283 515.04,-283 528.63,-283"/>
<polygon fill="midnightblue" stroke="midnightblue" points="528.92,-286.5 538.92,-283 528.92,-279.5 528.92,-286.5"/>
</g>
<!-- Node13&#45;&gt;Node4 -->
<g id="edge18" class="edge">
<title>Node13&#45;&gt;Node4</title>
<path fill="none" stroke="midnightblue" d="M650.51,-272.43C661.94,-268.6 674.26,-263.78 685,-258 712.48,-243.21 740.34,-220.37 758.09,-204.61"/>
<polygon fill="midnightblue" stroke="midnightblue" points="760.88,-206.81 765.95,-197.51 756.18,-201.62 760.88,-206.81"/>
</g>
</g>
</svg>
