<?xml version="1.0" encoding="UTF-8" standalone="no"?>
<!DOCTYPE svg PUBLIC "-//W3C//DTD SVG 1.1//EN"
 "http://www.w3.org/Graphics/SVG/1.1/DTD/svg11.dtd">
<!-- Generated by graphviz version 2.43.0 (0)
 -->
<!-- Title: grid_ops::setup_grid_eq_b Pages: 1 -->
<svg width="917pt" height="294pt"
 viewBox="0.00 0.00 917.00 293.50" xmlns="http://www.w3.org/2000/svg" xmlns:xlink="http://www.w3.org/1999/xlink">
<g id="graph0" class="graph" transform="scale(1 1) rotate(0) translate(4 289.5)">
<title>grid_ops::setup_grid_eq_b</title>
<polygon fill="white" stroke="transparent" points="-4,4 -4,-289.5 913,-289.5 913,4 -4,4"/>
<!-- Node1 -->
<g id="node1" class="node">
<title>Node1</title>
<g id="a_node1"><a xlink:title="Sets up the field&#45;aligned equilibrium grid.">
<polygon fill="#bfbfbf" stroke="black" points="0,-133.5 0,-154.5 171,-154.5 171,-133.5 0,-133.5"/>
<text text-anchor="middle" x="85.5" y="-140.9" font-family="Ubuntu Mono" font-size="12.00">grid_ops::setup_grid_eq_b</text>
</a>
</g>
</g>
<!-- Node2 -->
<g id="node2" class="node">
<title>Node2</title>
<g id="a_node2"><a xlink:href="namespacegrid__ops.html#a06107dbdfd1dd62e372cc29ab0255bad" target="_top" xlink:title="Calculate equilibrium grid that follows magnetic field lines.">
<polygon fill="white" stroke="black" points="207,-127 207,-161 334,-161 334,-127 207,-127"/>
<text text-anchor="start" x="215" y="-147.4" font-family="Ubuntu Mono" font-size="12.00">grid_ops::calc_ang</text>
<text text-anchor="middle" x="270.5" y="-134.4" font-family="Ubuntu Mono" font-size="12.00">_grid_eq_b</text>
</a>
</g>
</g>
<!-- Node1&#45;&gt;Node2 -->
<g id="edge1" class="edge">
<title>Node1&#45;&gt;Node2</title>
<path fill="none" stroke="midnightblue" d="M171.04,-144C179.63,-144 188.3,-144 196.74,-144"/>
<polygon fill="midnightblue" stroke="midnightblue" points="196.92,-147.5 206.92,-144 196.92,-140.5 196.92,-147.5"/>
</g>
<!-- Node3 -->
<g id="node3" class="node">
<title>Node3</title>
<g id="a_node3"><a xlink:href="namespacegrid__utilities.html#adeb8c22db4d419a278d6fcc68a34100c" target="_top" xlink:title="Calculates the local number of parallel grid points for this Richardson level, taking into account th...">
<polygon fill="white" stroke="black" points="395.5,-251 395.5,-285 514.5,-285 514.5,-251 395.5,-251"/>
<text text-anchor="start" x="403.5" y="-271.4" font-family="Ubuntu Mono" font-size="12.00">grid_utilities::calc</text>
<text text-anchor="middle" x="455" y="-258.4" font-family="Ubuntu Mono" font-size="12.00">_n_par_x_rich</text>
</a>
</g>
</g>
<!-- Node2&#45;&gt;Node3 -->
<g id="edge2" class="edge">
<title>Node2&#45;&gt;Node3</title>
<path fill="none" stroke="midnightblue" d="M285.95,-161.05C303.89,-181.29 336.25,-214.95 370,-236 376.28,-239.92 383.12,-243.48 390.09,-246.69"/>
<polygon fill="midnightblue" stroke="midnightblue" points="389.08,-250.06 399.64,-250.84 391.87,-243.65 389.08,-250.06"/>
</g>
<!-- Node4 -->
<g id="node4" class="node">
<title>Node4</title>
<g id="a_node4"><a xlink:href="namespacestr__utilities.html#a0b97e51770725a3e98ed393d26681414" target="_top" xlink:title="Convert an integer to string.">
<polygon fill="white" stroke="black" points="760.5,-211.5 760.5,-232.5 874.5,-232.5 874.5,-211.5 760.5,-211.5"/>
<text text-anchor="middle" x="817.5" y="-218.9" font-family="Ubuntu Mono" font-size="12.00">str_utilities::i2str</text>
</a>
</g>
</g>
<!-- Node2&#45;&gt;Node4 -->
<g id="edge3" class="edge">
<title>Node2&#45;&gt;Node4</title>
<path fill="none" stroke="midnightblue" d="M293.07,-161.27C312.08,-175.39 341.17,-194.36 370,-203 500.3,-242.04 661.52,-236.52 750.22,-229.16"/>
<polygon fill="midnightblue" stroke="midnightblue" points="750.74,-232.63 760.41,-228.28 750.14,-225.66 750.74,-232.63"/>
</g>
<!-- Node5 -->
<g id="node5" class="node">
<title>Node5</title>
<g id="a_node5"><a xlink:href="namespacemessages.html#a6e6bfb084063e4cc91ee86e542043302" target="_top" xlink:title="Increases/decreases lvl of output.">
<polygon fill="white" stroke="black" points="396,-172.5 396,-193.5 514,-193.5 514,-172.5 396,-172.5"/>
<text text-anchor="middle" x="455" y="-179.9" font-family="Ubuntu Mono" font-size="12.00">messages::lvl_ud</text>
</a>
</g>
</g>
<!-- Node2&#45;&gt;Node5 -->
<g id="edge4" class="edge">
<title>Node2&#45;&gt;Node5</title>
<path fill="none" stroke="midnightblue" d="M334.05,-157.37C353.73,-161.57 375.4,-166.2 394.84,-170.36"/>
<polygon fill="midnightblue" stroke="midnightblue" points="394.27,-173.81 404.78,-172.48 395.73,-166.97 394.27,-173.81"/>
</g>
<!-- Node6 -->
<g id="node6" class="node">
<title>Node6</title>
<g id="a_node6"><a xlink:href="namespacemessages.html#aa4a8d01563e92558e8a0875b075ec54c" target="_top" xlink:title="Write output to file identified by output_i.">
<polygon fill="white" stroke="black" points="576,-171.5 576,-192.5 690,-192.5 690,-171.5 576,-171.5"/>
<text text-anchor="middle" x="633" y="-178.9" font-family="Ubuntu Mono" font-size="12.00">messages::writo</text>
</a>
</g>
</g>
<!-- Node2&#45;&gt;Node6 -->
<g id="edge12" class="edge">
<title>Node2&#45;&gt;Node6</title>
<path fill="none" stroke="midnightblue" d="M334.14,-146.07C388.71,-148.44 469.87,-153.32 540,-163 551.99,-164.65 564.76,-166.95 576.85,-169.37"/>
<polygon fill="midnightblue" stroke="midnightblue" points="576.32,-172.83 586.82,-171.42 577.73,-165.98 576.32,-172.83"/>
</g>
<!-- Node9 -->
<g id="node9" class="node">
<title>Node9</title>
<g id="a_node9"><a xlink:href="namespaceoutput__ops.html#ab0d14194d01ab0534562eab50b37a57a" target="_top" xlink:title="Takes two input vectors and plots these as well as the relative and absolute difference in a HDF5 fil...">
<polygon fill="white" stroke="black" points="370,-94.5 370,-115.5 540,-115.5 540,-94.5 370,-94.5"/>
<text text-anchor="middle" x="455" y="-101.9" font-family="Ubuntu Mono" font-size="12.00">output_ops::plot_diff_hdf5</text>
</a>
</g>
</g>
<!-- Node2&#45;&gt;Node9 -->
<g id="edge9" class="edge">
<title>Node2&#45;&gt;Node9</title>
<path fill="none" stroke="midnightblue" d="M334.05,-130.63C353.73,-126.43 375.4,-121.8 394.84,-117.64"/>
<polygon fill="midnightblue" stroke="midnightblue" points="395.73,-121.03 404.78,-115.52 394.27,-114.19 395.73,-121.03"/>
</g>
<!-- Node10 -->
<g id="node10" class="node">
<title>Node10</title>
<g id="a_node10"><a xlink:href="namespaceeq__utilities.html#a40f397d20b45432117744ca16870ddbb" target="_top" xlink:title="Prints information for equilibrium parallel job.">
<polygon fill="white" stroke="black" points="397.5,-41 397.5,-75 512.5,-75 512.5,-41 397.5,-41"/>
<text text-anchor="start" x="405.5" y="-61.4" font-family="Ubuntu Mono" font-size="12.00">eq_utilities::print</text>
<text text-anchor="middle" x="455" y="-48.4" font-family="Ubuntu Mono" font-size="12.00">_info_eq</text>
</a>
</g>
</g>
<!-- Node2&#45;&gt;Node10 -->
<g id="edge10" class="edge">
<title>Node2&#45;&gt;Node10</title>
<path fill="none" stroke="midnightblue" d="M296.55,-126.8C315.96,-114.03 343.85,-96.84 370,-85 375.68,-82.43 381.67,-79.99 387.74,-77.71"/>
<polygon fill="midnightblue" stroke="midnightblue" points="389.08,-80.95 397.3,-74.26 386.7,-74.37 389.08,-80.95"/>
</g>
<!-- Node11 -->
<g id="node11" class="node">
<title>Node11</title>
<g id="a_node11"><a xlink:href="namespacestr__utilities.html#ac778d706b2e021672618939ab58fdd32" target="_top" xlink:title="Convert a real (double) to string.">
<polygon fill="white" stroke="black" points="394.5,-0.5 394.5,-21.5 515.5,-21.5 515.5,-0.5 394.5,-0.5"/>
<text text-anchor="middle" x="455" y="-7.9" font-family="Ubuntu Mono" font-size="12.00">str_utilities::r2strt</text>
</a>
</g>
</g>
<!-- Node2&#45;&gt;Node11 -->
<g id="edge11" class="edge">
<title>Node2&#45;&gt;Node11</title>
<path fill="none" stroke="midnightblue" d="M281.53,-126.86C297.14,-101.77 329.69,-55.37 370,-31 374.65,-28.19 379.67,-25.77 384.86,-23.7"/>
<polygon fill="midnightblue" stroke="midnightblue" points="386.09,-26.97 394.33,-20.31 383.74,-20.38 386.09,-26.97"/>
</g>
<!-- Node5&#45;&gt;Node6 -->
<g id="edge5" class="edge">
<title>Node5&#45;&gt;Node6</title>
<path fill="none" stroke="midnightblue" d="M514.12,-182.67C530.53,-182.58 548.53,-182.47 565.4,-182.38"/>
<polygon fill="midnightblue" stroke="midnightblue" points="565.76,-185.88 575.74,-182.32 565.72,-178.88 565.76,-185.88"/>
</g>
<!-- Node6&#45;&gt;Node4 -->
<g id="edge8" class="edge">
<title>Node6&#45;&gt;Node4</title>
<path fill="none" stroke="midnightblue" d="M681.95,-192.51C705.43,-197.66 733.9,-203.9 758.59,-209.31"/>
<polygon fill="midnightblue" stroke="midnightblue" points="758.04,-212.77 768.55,-211.49 759.54,-205.93 758.04,-212.77"/>
</g>
<!-- Node7 -->
<g id="node7" class="node">
<title>Node7</title>
<g id="a_node7"><a xlink:href="namespacemessages.html#a61fd0b51b5e37d58fdc993c01792a3fd" target="_top" xlink:title="Returns the time.">
<polygon fill="white" stroke="black" points="747.5,-171.5 747.5,-192.5 887.5,-192.5 887.5,-171.5 747.5,-171.5"/>
<text text-anchor="middle" x="817.5" y="-178.9" font-family="Ubuntu Mono" font-size="12.00">messages::get_clock</text>
</a>
</g>
</g>
<!-- Node6&#45;&gt;Node7 -->
<g id="edge6" class="edge">
<title>Node6&#45;&gt;Node7</title>
<path fill="none" stroke="midnightblue" d="M690.25,-182C705.02,-182 721.24,-182 736.99,-182"/>
<polygon fill="midnightblue" stroke="midnightblue" points="737.25,-185.5 747.25,-182 737.25,-178.5 737.25,-185.5"/>
</g>
<!-- Node8 -->
<g id="node8" class="node">
<title>Node8</title>
<g id="a_node8"><a xlink:href="namespacemessages.html#a82dddaab795b78b3d39e1ff1aab2f665" target="_top" xlink:title="Returns the memory usage in kilobytes.">
<polygon fill="white" stroke="black" points="726,-131.5 726,-152.5 909,-152.5 909,-131.5 726,-131.5"/>
<text text-anchor="middle" x="817.5" y="-138.9" font-family="Ubuntu Mono" font-size="12.00">messages::get_mem_usage</text>
</a>
</g>
</g>
<!-- Node6&#45;&gt;Node8 -->
<g id="edge7" class="edge">
<title>Node6&#45;&gt;Node8</title>
<path fill="none" stroke="midnightblue" d="M681.95,-171.49C705.43,-166.34 733.9,-160.1 758.59,-154.69"/>
<polygon fill="midnightblue" stroke="midnightblue" points="759.54,-158.07 768.55,-152.51 758.04,-151.23 759.54,-158.07"/>
</g>
</g>
</svg>
