<?xml version="1.0" encoding="UTF-8" standalone="no"?>
<!DOCTYPE svg PUBLIC "-//W3C//DTD SVG 1.1//EN"
 "http://www.w3.org/Graphics/SVG/1.1/DTD/svg11.dtd">
<!-- Generated by graphviz version 2.43.0 (0)
 -->
<!-- Title: x_ops::setup_modes Pages: 1 -->
<svg width="900pt" height="299pt"
 viewBox="0.00 0.00 900.00 298.93" xmlns="http://www.w3.org/2000/svg" xmlns:xlink="http://www.w3.org/1999/xlink">
<g id="graph0" class="graph" transform="scale(1 1) rotate(0) translate(4 294.93)">
<title>x_ops::setup_modes</title>
<polygon fill="white" stroke="transparent" points="-4,4 -4,-294.93 896,-294.93 896,4 -4,4"/>
<!-- Node1 -->
<g id="node1" class="node">
<title>Node1</title>
<g id="a_node1"><a xlink:title="Sets up some variables concerning the mode numbers.">
<polygon fill="#bfbfbf" stroke="black" points="0,-169.5 0,-190.5 137,-190.5 137,-169.5 0,-169.5"/>
<text text-anchor="middle" x="68.5" y="-176.9" font-family="Ubuntu Mono" font-size="12.00">x_ops::setup_modes</text>
</a>
</g>
</g>
<!-- Node2 -->
<g id="node2" class="node">
<title>Node2</title>
<g id="a_node2"><a xlink:href="namespaceoutput__ops.html#a50bfbb88cc91805469353c3ff47b3e2e" target="_top" xlink:title="Use external program to draw a plot.">
<polygon fill="white" stroke="black" points="177.5,-169.5 177.5,-190.5 317.5,-190.5 317.5,-169.5 177.5,-169.5"/>
<text text-anchor="middle" x="247.5" y="-176.9" font-family="Ubuntu Mono" font-size="12.00">output_ops::draw_ex</text>
</a>
</g>
</g>
<!-- Node1&#45;&gt;Node2 -->
<g id="edge1" class="edge">
<title>Node1&#45;&gt;Node2</title>
<path fill="none" stroke="midnightblue" d="M137.17,-180C147.06,-180 157.3,-180 167.39,-180"/>
<polygon fill="midnightblue" stroke="midnightblue" points="167.4,-183.5 177.4,-180 167.4,-176.5 167.4,-183.5"/>
</g>
<!-- Node3 -->
<g id="node3" class="node">
<title>Node3</title>
<g id="a_node3"><a xlink:href="namespacestr__utilities.html#a0b97e51770725a3e98ed393d26681414" target="_top" xlink:title="Convert an integer to string.">
<polygon fill="white" stroke="black" points="743.5,-77.5 743.5,-98.5 857.5,-98.5 857.5,-77.5 743.5,-77.5"/>
<text text-anchor="middle" x="800.5" y="-84.9" font-family="Ubuntu Mono" font-size="12.00">str_utilities::i2str</text>
</a>
</g>
</g>
<!-- Node1&#45;&gt;Node3 -->
<g id="edge11" class="edge">
<title>Node1&#45;&gt;Node3</title>
<path fill="none" stroke="midnightblue" d="M90.52,-169.5C137.2,-146.8 253.64,-93.64 358,-74 489.4,-49.27 646.6,-64.72 733.51,-77.09"/>
<polygon fill="midnightblue" stroke="midnightblue" points="733.1,-80.57 743.5,-78.54 734.1,-73.64 733.1,-80.57"/>
</g>
<!-- Node4 -->
<g id="node4" class="node">
<title>Node4</title>
<g id="a_node4"><a xlink:href="namespacemessages.html#a6e6bfb084063e4cc91ee86e542043302" target="_top" xlink:title="Increases/decreases lvl of output.">
<polygon fill="white" stroke="black" points="381.5,-248.5 381.5,-269.5 499.5,-269.5 499.5,-248.5 381.5,-248.5"/>
<text text-anchor="middle" x="440.5" y="-255.9" font-family="Ubuntu Mono" font-size="12.00">messages::lvl_ud</text>
</a>
</g>
</g>
<!-- Node1&#45;&gt;Node4 -->
<g id="edge12" class="edge">
<title>Node1&#45;&gt;Node4</title>
<path fill="none" stroke="midnightblue" d="M119.02,-190.57C186.72,-205.03 308.02,-230.93 380.4,-246.38"/>
<polygon fill="midnightblue" stroke="midnightblue" points="379.77,-249.82 390.28,-248.49 381.23,-242.98 379.77,-249.82"/>
</g>
<!-- Node5 -->
<g id="node5" class="node">
<title>Node5</title>
<g id="a_node5"><a xlink:href="namespacemessages.html#aa4a8d01563e92558e8a0875b075ec54c" target="_top" xlink:title="Write output to file identified by output_i.">
<polygon fill="white" stroke="black" points="559,-208.5 559,-229.5 673,-229.5 673,-208.5 559,-208.5"/>
<text text-anchor="middle" x="616" y="-215.9" font-family="Ubuntu Mono" font-size="12.00">messages::writo</text>
</a>
</g>
</g>
<!-- Node1&#45;&gt;Node5 -->
<g id="edge14" class="edge">
<title>Node1&#45;&gt;Node5</title>
<path fill="none" stroke="midnightblue" d="M87.25,-190.69C107.42,-202.45 141.62,-221.24 173,-233 252.34,-262.73 273.9,-268.7 358,-279 430.79,-287.91 452.71,-299.9 523,-279 550.96,-270.69 578.35,-250.89 595.88,-236.29"/>
<polygon fill="midnightblue" stroke="midnightblue" points="598.34,-238.79 603.64,-229.62 593.78,-233.48 598.34,-238.79"/>
</g>
<!-- Node10 -->
<g id="node10" class="node">
<title>Node10</title>
<g id="a_node10"><a xlink:href="namespacegrid__utilities.html#a67001ff9bbcad707aacf17f90a748d90" target="_top" xlink:title="Trim a grid, removing any overlap between the different regions.">
<polygon fill="white" stroke="black" points="173,-0.5 173,-21.5 322,-21.5 322,-0.5 173,-0.5"/>
<text text-anchor="middle" x="247.5" y="-7.9" font-family="Ubuntu Mono" font-size="12.00">grid_utilities::trim_grid</text>
</a>
</g>
</g>
<!-- Node1&#45;&gt;Node10 -->
<g id="edge13" class="edge">
<title>Node1&#45;&gt;Node10</title>
<path fill="none" stroke="midnightblue" d="M74.33,-169.22C86.78,-142.63 122.54,-73.39 173,-36 178.6,-31.85 184.94,-28.35 191.49,-25.42"/>
<polygon fill="midnightblue" stroke="midnightblue" points="193.21,-28.5 201.18,-21.51 190.6,-22.01 193.21,-28.5"/>
</g>
<!-- Node2&#45;&gt;Node3 -->
<g id="edge2" class="edge">
<title>Node2&#45;&gt;Node3</title>
<path fill="none" stroke="midnightblue" d="M259.82,-169.3C278.53,-152.4 317.82,-120.12 358,-107 485.68,-65.32 645.21,-71.76 733.31,-80"/>
<polygon fill="midnightblue" stroke="midnightblue" points="733.14,-83.5 743.43,-80.98 733.82,-76.53 733.14,-83.5"/>
</g>
<!-- Node2&#45;&gt;Node4 -->
<g id="edge3" class="edge">
<title>Node2&#45;&gt;Node4</title>
<path fill="none" stroke="midnightblue" d="M264.94,-190.58C285.82,-203.61 323.34,-225.66 358,-239 364.39,-241.46 371.19,-243.69 378.02,-245.7"/>
<polygon fill="midnightblue" stroke="midnightblue" points="377.45,-249.17 388.02,-248.47 379.32,-242.42 377.45,-249.17"/>
</g>
<!-- Node2&#45;&gt;Node5 -->
<g id="edge10" class="edge">
<title>Node2&#45;&gt;Node5</title>
<path fill="none" stroke="midnightblue" d="M317.61,-182.01C373.29,-184.3 453.48,-189.09 523,-199 535.9,-200.84 549.68,-203.47 562.55,-206.22"/>
<polygon fill="midnightblue" stroke="midnightblue" points="562.12,-209.71 572.64,-208.44 563.62,-202.88 562.12,-209.71"/>
</g>
<!-- Node8 -->
<g id="node8" class="node">
<title>Node8</title>
<g id="a_node8"><a xlink:href="namespacefiles__utilities.html#ac6066df405564ba2f5e3c4bba726c1f8" target="_top" xlink:title="Search for available new unit.">
<polygon fill="white" stroke="black" points="368,-208.5 368,-229.5 513,-229.5 513,-208.5 368,-208.5"/>
<text text-anchor="middle" x="440.5" y="-215.9" font-family="Ubuntu Mono" font-size="12.00">files_utilities::nextunit</text>
</a>
</g>
</g>
<!-- Node2&#45;&gt;Node8 -->
<g id="edge8" class="edge">
<title>Node2&#45;&gt;Node8</title>
<path fill="none" stroke="midnightblue" d="M299.94,-190.5C324.03,-195.42 352.91,-201.32 378.14,-206.47"/>
<polygon fill="midnightblue" stroke="midnightblue" points="377.47,-209.91 387.97,-208.48 378.87,-203.05 377.47,-209.91"/>
</g>
<!-- Node9 -->
<g id="node9" class="node">
<title>Node9</title>
<g id="a_node9"><a xlink:href="namespaceoutput__ops.html#aa9e4855511b6ea16a08b3efb587bec51" target="_top" xlink:title="Executes command line, or displays a message if disabled.">
<polygon fill="white" stroke="black" points="358,-117 358,-151 523,-151 523,-117 358,-117"/>
<text text-anchor="start" x="366" y="-137.4" font-family="Ubuntu Mono" font-size="12.00">output_ops::use_execute</text>
<text text-anchor="middle" x="440.5" y="-124.4" font-family="Ubuntu Mono" font-size="12.00">_command_line</text>
</a>
</g>
</g>
<!-- Node2&#45;&gt;Node9 -->
<g id="edge9" class="edge">
<title>Node2&#45;&gt;Node9</title>
<path fill="none" stroke="midnightblue" d="M292.32,-169.45C311.99,-164.71 335.84,-158.97 358.56,-153.49"/>
<polygon fill="midnightblue" stroke="midnightblue" points="359.66,-156.83 368.56,-151.08 358.02,-150.02 359.66,-156.83"/>
</g>
<!-- Node4&#45;&gt;Node5 -->
<g id="edge4" class="edge">
<title>Node4&#45;&gt;Node5</title>
<path fill="none" stroke="midnightblue" d="M487.09,-248.49C509.31,-243.37 536.23,-237.16 559.63,-231.77"/>
<polygon fill="midnightblue" stroke="midnightblue" points="560.46,-235.17 569.42,-229.51 558.89,-228.34 560.46,-235.17"/>
</g>
<!-- Node5&#45;&gt;Node3 -->
<g id="edge7" class="edge">
<title>Node5&#45;&gt;Node3</title>
<path fill="none" stroke="midnightblue" d="M631.93,-208.28C663.77,-185.42 738.51,-131.78 776.49,-104.52"/>
<polygon fill="midnightblue" stroke="midnightblue" points="778.79,-107.18 784.87,-98.5 774.7,-101.49 778.79,-107.18"/>
</g>
<!-- Node6 -->
<g id="node6" class="node">
<title>Node6</title>
<g id="a_node6"><a xlink:href="namespacemessages.html#a61fd0b51b5e37d58fdc993c01792a3fd" target="_top" xlink:title="Returns the time.">
<polygon fill="white" stroke="black" points="730.5,-188.5 730.5,-209.5 870.5,-209.5 870.5,-188.5 730.5,-188.5"/>
<text text-anchor="middle" x="800.5" y="-195.9" font-family="Ubuntu Mono" font-size="12.00">messages::get_clock</text>
</a>
</g>
</g>
<!-- Node5&#45;&gt;Node6 -->
<g id="edge5" class="edge">
<title>Node5&#45;&gt;Node6</title>
<path fill="none" stroke="midnightblue" d="M673.25,-212.84C688.02,-211.22 704.24,-209.44 719.99,-207.71"/>
<polygon fill="midnightblue" stroke="midnightblue" points="720.69,-211.16 730.25,-206.59 719.93,-204.2 720.69,-211.16"/>
</g>
<!-- Node7 -->
<g id="node7" class="node">
<title>Node7</title>
<g id="a_node7"><a xlink:href="namespacemessages.html#a82dddaab795b78b3d39e1ff1aab2f665" target="_top" xlink:title="Returns the memory usage in kilobytes.">
<polygon fill="white" stroke="black" points="709,-228.5 709,-249.5 892,-249.5 892,-228.5 709,-228.5"/>
<text text-anchor="middle" x="800.5" y="-235.9" font-family="Ubuntu Mono" font-size="12.00">messages::get_mem_usage</text>
</a>
</g>
</g>
<!-- Node5&#45;&gt;Node7 -->
<g id="edge6" class="edge">
<title>Node5&#45;&gt;Node7</title>
<path fill="none" stroke="midnightblue" d="M673.25,-225.16C681.46,-226.06 690.13,-227.01 698.91,-227.98"/>
<polygon fill="midnightblue" stroke="midnightblue" points="698.53,-231.46 708.86,-229.07 699.3,-224.5 698.53,-231.46"/>
</g>
</g>
</svg>
