<?xml version="1.0" encoding="UTF-8" standalone="no"?>
<!DOCTYPE svg PUBLIC "-//W3C//DTD SVG 1.1//EN"
 "http://www.w3.org/Graphics/SVG/1.1/DTD/svg11.dtd">
<!-- Generated by graphviz version 2.38.0 (20140413.2041)
 -->
<!-- Title: slepc_utilities::insert_block_mat Pages: 1 -->
<svg width="1070pt" height="306pt"
 viewBox="0.00 0.00 1070.00 306.00" xmlns="http://www.w3.org/2000/svg" xmlns:xlink="http://www.w3.org/1999/xlink">
<g id="graph0" class="graph" transform="scale(1 1) rotate(0) translate(4 302)">
<title>slepc_utilities::insert_block_mat</title>
<polygon fill="white" stroke="none" points="-4,4 -4,-302 1066,-302 1066,4 -4,4"/>
<!-- Node0 -->
<g id="node1" class="node"><title>Node0</title>
<polygon fill="#bfbfbf" stroke="black" points="0,-74 0,-108 155,-108 155,-74 0,-74"/>
<text text-anchor="start" x="8" y="-94.4" font-family="Ubuntu Mono" font-size="12.00">slepc_utilities::insert</text>
<text text-anchor="middle" x="77.5" y="-81.4" font-family="Ubuntu Mono" font-size="12.00">_block_mat</text>
</g>
<!-- Node1 -->
<g id="node2" class="node"><title>Node1</title>
<g id="a_node2"><a xlink:href="namespaceinput__utilities.html#a71bd36f063d55ab62c7a37864aef1185" target="_top" xlink:title="input_utilities::pause_prog">
<polygon fill="white" stroke="black" points="191,-197.5 191,-218.5 370,-218.5 370,-197.5 191,-197.5"/>
<text text-anchor="middle" x="280.5" y="-204.9" font-family="Ubuntu Mono" font-size="12.00">input_utilities::pause_prog</text>
</a>
</g>
</g>
<!-- Node0&#45;&gt;Node1 -->
<g id="edge1" class="edge"><title>Node0&#45;&gt;Node1</title>
<path fill="none" stroke="midnightblue" d="M107.727,-108.013C146.572,-130.624 214.685,-170.272 252.417,-192.235"/>
<polygon fill="midnightblue" stroke="midnightblue" points="250.915,-195.411 261.319,-197.417 254.437,-189.361 250.915,-195.411"/>
</g>
<!-- Node4 -->
<g id="node5" class="node"><title>Node4</title>
<g id="a_node5"><a xlink:href="namespacemessages.html#aa4a8d01563e92558e8a0875b075ec54c" target="_top" xlink:title="messages::writo">
<polygon fill="white" stroke="black" points="597,-138.5 597,-159.5 704,-159.5 704,-138.5 597,-138.5"/>
<text text-anchor="middle" x="650.5" y="-145.9" font-family="Ubuntu Mono" font-size="12.00">messages::writo</text>
</a>
</g>
</g>
<!-- Node0&#45;&gt;Node4 -->
<g id="edge11" class="edge"><title>Node0&#45;&gt;Node4</title>
<path fill="none" stroke="midnightblue" d="M155.209,-105.621C167.161,-107.615 179.394,-109.491 191,-111 331.761,-129.305 498.045,-140.508 586.582,-145.648"/>
<polygon fill="midnightblue" stroke="midnightblue" points="586.543,-149.151 596.727,-146.23 586.944,-142.163 586.543,-149.151"/>
</g>
<!-- Node9 -->
<g id="node10" class="node"><title>Node9</title>
<g id="a_node10"><a xlink:href="namespacestr__utilities.html#a0b97e51770725a3e98ed393d26681414" target="_top" xlink:title="str_utilities::i2str">
<polygon fill="white" stroke="black" points="212,-80.5 212,-101.5 349,-101.5 349,-80.5 212,-80.5"/>
<text text-anchor="middle" x="280.5" y="-87.9" font-family="Ubuntu Mono" font-size="12.00">str_utilities::i2str</text>
</a>
</g>
</g>
<!-- Node0&#45;&gt;Node9 -->
<g id="edge12" class="edge"><title>Node0&#45;&gt;Node9</title>
<path fill="none" stroke="midnightblue" d="M155.063,-91C170.207,-91 186.12,-91 201.317,-91"/>
<polygon fill="midnightblue" stroke="midnightblue" points="201.705,-94.5001 211.705,-91 201.704,-87.5001 201.705,-94.5001"/>
</g>
<!-- Node10 -->
<g id="node11" class="node"><title>Node10</title>
<g id="a_node11"><a xlink:href="namespacemessages.html#a6e6bfb084063e4cc91ee86e542043302" target="_top" xlink:title="messages::lvl_ud">
<polygon fill="white" stroke="black" points="224,-40.5 224,-61.5 337,-61.5 337,-40.5 224,-40.5"/>
<text text-anchor="middle" x="280.5" y="-47.9" font-family="Ubuntu Mono" font-size="12.00">messages::lvl_ud</text>
</a>
</g>
</g>
<!-- Node0&#45;&gt;Node10 -->
<g id="edge13" class="edge"><title>Node0&#45;&gt;Node10</title>
<path fill="none" stroke="midnightblue" d="M155.063,-75.7636C175.375,-71.7214 197.072,-67.4036 216.566,-63.5241"/>
<polygon fill="midnightblue" stroke="midnightblue" points="217.416,-66.9237 226.541,-61.5392 216.05,-60.0583 217.416,-66.9237"/>
</g>
<!-- Node11 -->
<g id="node12" class="node"><title>Node11</title>
<g id="a_node12"><a xlink:href="namespacemessages.html#a80797cedef6112b8dccaeda431f0c610" target="_top" xlink:title="messages::print_ar_2">
<polygon fill="white" stroke="black" points="212,-0.5 212,-21.5 349,-21.5 349,-0.5 212,-0.5"/>
<text text-anchor="middle" x="280.5" y="-7.9" font-family="Ubuntu Mono" font-size="12.00">messages::print_ar_2</text>
</a>
</g>
</g>
<!-- Node0&#45;&gt;Node11 -->
<g id="edge15" class="edge"><title>Node0&#45;&gt;Node11</title>
<path fill="none" stroke="midnightblue" d="M105.731,-73.8003C127.935,-60.4438 160.502,-42.344 191,-31 197.801,-28.4704 205.019,-26.2037 212.285,-24.187"/>
<polygon fill="midnightblue" stroke="midnightblue" points="213.402,-27.5125 222.188,-21.5909 211.627,-20.7413 213.402,-27.5125"/>
</g>
<!-- Node2 -->
<g id="node3" class="node"><title>Node2</title>
<g id="a_node3"><a xlink:href="namespacempi__utilities.html#a790ea24d32dd0e249541c1e57cd85536" target="_top" xlink:title="mpi_utilities::wait_mpi">
<polygon fill="white" stroke="black" points="406,-276.5 406,-297.5 561,-297.5 561,-276.5 406,-276.5"/>
<text text-anchor="middle" x="483.5" y="-283.9" font-family="Ubuntu Mono" font-size="12.00">mpi_utilities::wait_mpi</text>
</a>
</g>
</g>
<!-- Node1&#45;&gt;Node2 -->
<g id="edge2" class="edge"><title>Node1&#45;&gt;Node2</title>
<path fill="none" stroke="midnightblue" d="M300.851,-218.566C324.928,-231.384 367.566,-253.008 406,-267 412.5,-269.366 419.405,-271.576 426.304,-273.599"/>
<polygon fill="midnightblue" stroke="midnightblue" points="425.786,-277.089 436.36,-276.426 427.68,-270.35 425.786,-277.089"/>
</g>
<!-- Node3 -->
<g id="node4" class="node"><title>Node3</title>
<g id="a_node4"><a xlink:href="namespacemessages.html#a2a1154de25763d4894275ff4307b6862" target="_top" xlink:title="messages::stop_time">
<polygon fill="white" stroke="black" points="418,-236.5 418,-257.5 549,-257.5 549,-236.5 418,-236.5"/>
<text text-anchor="middle" x="483.5" y="-243.9" font-family="Ubuntu Mono" font-size="12.00">messages::stop_time</text>
</a>
</g>
</g>
<!-- Node1&#45;&gt;Node3 -->
<g id="edge3" class="edge"><title>Node1&#45;&gt;Node3</title>
<path fill="none" stroke="midnightblue" d="M335.629,-218.503C361.095,-223.444 391.65,-229.372 418.28,-234.539"/>
<polygon fill="midnightblue" stroke="midnightblue" points="417.791,-238.01 428.275,-236.479 419.124,-231.138 417.791,-238.01"/>
</g>
<!-- Node1&#45;&gt;Node4 -->
<g id="edge10" class="edge"><title>Node1&#45;&gt;Node4</title>
<path fill="none" stroke="midnightblue" d="M370.246,-209.966C425.823,-209.243 498.5,-204.705 561,-189 582.524,-183.591 605.311,-173.17 622.371,-164.321"/>
<polygon fill="midnightblue" stroke="midnightblue" points="624.036,-167.399 631.216,-159.608 620.744,-161.222 624.036,-167.399"/>
</g>
<!-- Node8 -->
<g id="node9" class="node"><title>Node8</title>
<g id="a_node9"><a xlink:href="namespacemessages.html#ad997c3dff64c512e0070ce8816c28e7f" target="_top" xlink:title="messages::start_time">
<polygon fill="white" stroke="black" points="415,-158.5 415,-179.5 552,-179.5 552,-158.5 415,-158.5"/>
<text text-anchor="middle" x="483.5" y="-165.9" font-family="Ubuntu Mono" font-size="12.00">messages::start_time</text>
</a>
</g>
</g>
<!-- Node1&#45;&gt;Node8 -->
<g id="edge8" class="edge"><title>Node1&#45;&gt;Node8</title>
<path fill="none" stroke="midnightblue" d="M335.629,-197.497C361.095,-192.556 391.65,-186.628 418.28,-181.461"/>
<polygon fill="midnightblue" stroke="midnightblue" points="419.124,-184.862 428.275,-179.521 417.791,-177.99 419.124,-184.862"/>
</g>
<!-- Node3&#45;&gt;Node4 -->
<g id="edge4" class="edge"><title>Node3&#45;&gt;Node4</title>
<path fill="none" stroke="midnightblue" d="M526.176,-236.486C537.819,-232.731 550.226,-227.925 561,-222 588.146,-207.071 614.977,-183.334 631.854,-167.003"/>
<polygon fill="midnightblue" stroke="midnightblue" points="634.641,-169.17 639.297,-159.653 629.722,-164.189 634.641,-169.17"/>
</g>
<!-- Node5 -->
<g id="node6" class="node"><title>Node5</title>
<g id="a_node6"><a xlink:href="namespacemessages.html#a82dddaab795b78b3d39e1ff1aab2f665" target="_top" xlink:title="messages::get_mem_usage">
<polygon fill="white" stroke="black" points="740,-158.5 740,-179.5 895,-179.5 895,-158.5 740,-158.5"/>
<text text-anchor="middle" x="817.5" y="-165.9" font-family="Ubuntu Mono" font-size="12.00">messages::get_mem_usage</text>
</a>
</g>
</g>
<!-- Node4&#45;&gt;Node5 -->
<g id="edge5" class="edge"><title>Node4&#45;&gt;Node5</title>
<path fill="none" stroke="midnightblue" d="M704.161,-155.383C712.452,-156.388 721.208,-157.449 730.025,-158.518"/>
<polygon fill="midnightblue" stroke="midnightblue" points="729.635,-161.996 739.984,-159.725 730.478,-155.047 729.635,-161.996"/>
</g>
<!-- Node6 -->
<g id="node7" class="node"><title>Node6</title>
<g id="a_node7"><a xlink:href="messages_8f90.html#a6d15f28783f95a7a4b2a44185619792f" target="_top" xlink:title="format_str">
<polygon fill="white" stroke="black" points="779,-118.5 779,-139.5 856,-139.5 856,-118.5 779,-118.5"/>
<text text-anchor="middle" x="817.5" y="-125.9" font-family="Ubuntu Mono" font-size="12.00">format_str</text>
</a>
</g>
</g>
<!-- Node4&#45;&gt;Node6 -->
<g id="edge6" class="edge"><title>Node4&#45;&gt;Node6</title>
<path fill="none" stroke="midnightblue" d="M704.161,-142.617C724.977,-140.094 748.722,-137.216 769.002,-134.757"/>
<polygon fill="midnightblue" stroke="midnightblue" points="769.448,-138.229 778.954,-133.551 768.606,-131.28 769.448,-138.229"/>
</g>
<!-- Node7 -->
<g id="node8" class="node"><title>Node7</title>
<g id="a_node8"><a xlink:href="namespacemessages.html#a61fd0b51b5e37d58fdc993c01792a3fd" target="_top" xlink:title="messages::get_clock">
<polygon fill="white" stroke="black" points="931,-118.5 931,-139.5 1062,-139.5 1062,-118.5 931,-118.5"/>
<text text-anchor="middle" x="996.5" y="-125.9" font-family="Ubuntu Mono" font-size="12.00">messages::get_clock</text>
</a>
</g>
</g>
<!-- Node6&#45;&gt;Node7 -->
<g id="edge7" class="edge"><title>Node6&#45;&gt;Node7</title>
<path fill="none" stroke="midnightblue" d="M856.037,-129C874.869,-129 898.372,-129 920.685,-129"/>
<polygon fill="midnightblue" stroke="midnightblue" points="920.832,-132.5 930.832,-129 920.832,-125.5 920.832,-132.5"/>
</g>
<!-- Node8&#45;&gt;Node4 -->
<g id="edge9" class="edge"><title>Node8&#45;&gt;Node4</title>
<path fill="none" stroke="midnightblue" d="M552.088,-160.808C563.535,-159.42 575.379,-157.984 586.697,-156.612"/>
<polygon fill="midnightblue" stroke="midnightblue" points="587.411,-160.052 596.917,-155.374 586.569,-153.102 587.411,-160.052"/>
</g>
<!-- Node10&#45;&gt;Node4 -->
<g id="edge14" class="edge"><title>Node10&#45;&gt;Node4</title>
<path fill="none" stroke="midnightblue" d="M336.426,-61.5498C393.196,-72.9706 484.117,-92.7094 561,-116 578.805,-121.394 598.21,-128.488 614.301,-134.716"/>
<polygon fill="midnightblue" stroke="midnightblue" points="613.259,-138.067 623.847,-138.459 615.814,-131.55 613.259,-138.067"/>
</g>
<!-- Node12 -->
<g id="node13" class="node"><title>Node12</title>
<g id="a_node13"><a xlink:href="namespacemessages.html#a5686118397930f505259225f3688216b" target="_top" xlink:title="messages::print_ar_1">
<polygon fill="white" stroke="black" points="415,-11.5 415,-32.5 552,-32.5 552,-11.5 415,-11.5"/>
<text text-anchor="middle" x="483.5" y="-18.9" font-family="Ubuntu Mono" font-size="12.00">messages::print_ar_1</text>
</a>
</g>
</g>
<!-- Node11&#45;&gt;Node12 -->
<g id="edge16" class="edge"><title>Node11&#45;&gt;Node12</title>
<path fill="none" stroke="midnightblue" d="M349.269,-14.7088C367.059,-15.6823 386.385,-16.74 404.657,-17.7399"/>
<polygon fill="midnightblue" stroke="midnightblue" points="404.507,-21.2369 414.683,-18.2886 404.889,-14.2473 404.507,-21.2369"/>
</g>
<!-- Node12&#45;&gt;Node4 -->
<g id="edge17" class="edge"><title>Node12&#45;&gt;Node4</title>
<path fill="none" stroke="midnightblue" d="M504.367,-32.5046C520.23,-41.2273 542.745,-54.3718 561,-68 587.342,-87.6654 614.842,-113.87 632.059,-131.076"/>
<polygon fill="midnightblue" stroke="midnightblue" points="629.682,-133.65 639.205,-138.293 634.656,-128.725 629.682,-133.65"/>
</g>
</g>
</svg>
