<?xml version="1.0" encoding="UTF-8" standalone="no"?>
<!DOCTYPE svg PUBLIC "-//W3C//DTD SVG 1.1//EN"
 "http://www.w3.org/Graphics/SVG/1.1/DTD/svg11.dtd">
<!-- Generated by graphviz version 2.38.0 (20140413.2041)
 -->
<!-- Title: slepc_ops::setup_guess Pages: 1 -->
<svg width="837pt" height="148pt"
 viewBox="0.00 0.00 837.00 148.00" xmlns="http://www.w3.org/2000/svg" xmlns:xlink="http://www.w3.org/1999/xlink">
<g id="graph0" class="graph" transform="scale(1 1) rotate(0) translate(4 144)">
<title>slepc_ops::setup_guess</title>
<polygon fill="white" stroke="none" points="-4,4 -4,-144 833,-144 833,4 -4,4"/>
<!-- Node0 -->
<g id="node1" class="node"><title>Node0</title>
<polygon fill="#bfbfbf" stroke="black" points="0,-59.5 0,-80.5 149,-80.5 149,-59.5 0,-59.5"/>
<text text-anchor="middle" x="74.5" y="-66.9" font-family="Ubuntu Mono" font-size="12.00">slepc_ops::setup_guess</text>
</g>
<!-- Node1 -->
<g id="node2" class="node"><title>Node1</title>
<g id="a_node2"><a xlink:href="namespacemessages.html#a6e6bfb084063e4cc91ee86e542043302" target="_top" xlink:title="messages::lvl_ud">
<polygon fill="white" stroke="black" points="200,-118.5 200,-139.5 313,-139.5 313,-118.5 200,-118.5"/>
<text text-anchor="middle" x="256.5" y="-125.9" font-family="Ubuntu Mono" font-size="12.00">messages::lvl_ud</text>
</a>
</g>
</g>
<!-- Node0&#45;&gt;Node1 -->
<g id="edge1" class="edge"><title>Node0&#45;&gt;Node1</title>
<path fill="none" stroke="midnightblue" d="M107.68,-80.548C137.281,-90.2503 181.351,-104.696 213.671,-115.289"/>
<polygon fill="midnightblue" stroke="midnightblue" points="212.703,-118.655 223.295,-118.444 214.883,-112.003 212.703,-118.655"/>
</g>
<!-- Node2 -->
<g id="node3" class="node"><title>Node2</title>
<g id="a_node3"><a xlink:href="namespacemessages.html#aa4a8d01563e92558e8a0875b075ec54c" target="_top" xlink:title="messages::writo">
<polygon fill="white" stroke="black" points="364,-98.5 364,-119.5 471,-119.5 471,-98.5 364,-98.5"/>
<text text-anchor="middle" x="417.5" y="-105.9" font-family="Ubuntu Mono" font-size="12.00">messages::writo</text>
</a>
</g>
</g>
<!-- Node0&#45;&gt;Node2 -->
<g id="edge6" class="edge"><title>Node0&#45;&gt;Node2</title>
<path fill="none" stroke="midnightblue" d="M149.072,-78.4144C210.116,-85.3959 295.981,-95.2163 353.802,-101.829"/>
<polygon fill="midnightblue" stroke="midnightblue" points="353.569,-105.325 363.902,-102.984 354.365,-98.3707 353.569,-105.325"/>
</g>
<!-- Node6 -->
<g id="node7" class="node"><title>Node6</title>
<g id="a_node7"><a xlink:href="namespacestr__utilities.html#ac778d706b2e021672618939ab58fdd32" target="_top" xlink:title="str_utilities::r2strt">
<polygon fill="white" stroke="black" points="185,-40.5 185,-61.5 328,-61.5 328,-40.5 185,-40.5"/>
<text text-anchor="middle" x="256.5" y="-47.9" font-family="Ubuntu Mono" font-size="12.00">str_utilities::r2strt</text>
</a>
</g>
</g>
<!-- Node0&#45;&gt;Node6 -->
<g id="edge7" class="edge"><title>Node0&#45;&gt;Node6</title>
<path fill="none" stroke="midnightblue" d="M149.232,-62.2172C157.584,-61.3356 166.129,-60.4336 174.567,-59.5429"/>
<polygon fill="midnightblue" stroke="midnightblue" points="175.209,-62.9947 184.786,-58.4642 174.474,-56.0334 175.209,-62.9947"/>
</g>
<!-- Node7 -->
<g id="node8" class="node"><title>Node7</title>
<g id="a_node8"><a xlink:href="namespacestr__utilities.html#a0b97e51770725a3e98ed393d26681414" target="_top" xlink:title="str_utilities::i2str">
<polygon fill="white" stroke="black" points="188,-0.5 188,-21.5 325,-21.5 325,-0.5 188,-0.5"/>
<text text-anchor="middle" x="256.5" y="-7.9" font-family="Ubuntu Mono" font-size="12.00">str_utilities::i2str</text>
</a>
</g>
</g>
<!-- Node0&#45;&gt;Node7 -->
<g id="edge8" class="edge"><title>Node0&#45;&gt;Node7</title>
<path fill="none" stroke="midnightblue" d="M103.686,-59.3854C125.7,-51.2355 157.127,-39.9066 185,-31 191.999,-28.7636 199.427,-26.5184 206.736,-24.3823"/>
<polygon fill="midnightblue" stroke="midnightblue" points="207.936,-27.6791 216.576,-21.5479 205.998,-20.9526 207.936,-27.6791"/>
</g>
<!-- Node1&#45;&gt;Node2 -->
<g id="edge2" class="edge"><title>Node1&#45;&gt;Node2</title>
<path fill="none" stroke="midnightblue" d="M313.11,-122.005C326.241,-120.353 340.33,-118.581 353.752,-116.893"/>
<polygon fill="midnightblue" stroke="midnightblue" points="354.374,-120.342 363.859,-115.622 353.5,-113.397 354.374,-120.342"/>
</g>
<!-- Node3 -->
<g id="node4" class="node"><title>Node3</title>
<g id="a_node4"><a xlink:href="namespacemessages.html#a82dddaab795b78b3d39e1ff1aab2f665" target="_top" xlink:title="messages::get_mem_usage">
<polygon fill="white" stroke="black" points="507,-118.5 507,-139.5 662,-139.5 662,-118.5 507,-118.5"/>
<text text-anchor="middle" x="584.5" y="-125.9" font-family="Ubuntu Mono" font-size="12.00">messages::get_mem_usage</text>
</a>
</g>
</g>
<!-- Node2&#45;&gt;Node3 -->
<g id="edge3" class="edge"><title>Node2&#45;&gt;Node3</title>
<path fill="none" stroke="midnightblue" d="M471.161,-115.383C479.452,-116.388 488.208,-117.449 497.025,-118.518"/>
<polygon fill="midnightblue" stroke="midnightblue" points="496.635,-121.996 506.984,-119.725 497.478,-115.047 496.635,-121.996"/>
</g>
<!-- Node4 -->
<g id="node5" class="node"><title>Node4</title>
<g id="a_node5"><a xlink:href="messages_8f90.html#a6d15f28783f95a7a4b2a44185619792f" target="_top" xlink:title="format_str">
<polygon fill="white" stroke="black" points="546,-78.5 546,-99.5 623,-99.5 623,-78.5 546,-78.5"/>
<text text-anchor="middle" x="584.5" y="-85.9" font-family="Ubuntu Mono" font-size="12.00">format_str</text>
</a>
</g>
</g>
<!-- Node2&#45;&gt;Node4 -->
<g id="edge4" class="edge"><title>Node2&#45;&gt;Node4</title>
<path fill="none" stroke="midnightblue" d="M471.161,-102.617C491.977,-100.094 515.722,-97.2155 536.002,-94.7573"/>
<polygon fill="midnightblue" stroke="midnightblue" points="536.448,-98.229 545.954,-93.551 535.606,-91.2798 536.448,-98.229"/>
</g>
<!-- Node5 -->
<g id="node6" class="node"><title>Node5</title>
<g id="a_node6"><a xlink:href="namespacemessages.html#a61fd0b51b5e37d58fdc993c01792a3fd" target="_top" xlink:title="messages::get_clock">
<polygon fill="white" stroke="black" points="698,-78.5 698,-99.5 829,-99.5 829,-78.5 698,-78.5"/>
<text text-anchor="middle" x="763.5" y="-85.9" font-family="Ubuntu Mono" font-size="12.00">messages::get_clock</text>
</a>
</g>
</g>
<!-- Node4&#45;&gt;Node5 -->
<g id="edge5" class="edge"><title>Node4&#45;&gt;Node5</title>
<path fill="none" stroke="midnightblue" d="M623.037,-89C641.869,-89 665.372,-89 687.685,-89"/>
<polygon fill="midnightblue" stroke="midnightblue" points="687.832,-92.5001 697.832,-89 687.832,-85.5001 687.832,-92.5001"/>
</g>
</g>
</svg>
