<?xml version="1.0" encoding="UTF-8" standalone="no"?>
<!DOCTYPE svg PUBLIC "-//W3C//DTD SVG 1.1//EN"
 "http://www.w3.org/Graphics/SVG/1.1/DTD/svg11.dtd">
<!-- Generated by graphviz version 14.1.2 (20260124.0452)
 -->
<!-- Title: eq_utilities::calc_memory_eq Pages: 1 -->
<svg width="636pt" height="68pt"
 viewBox="0.00 0.00 636.00 68.00" xmlns="http://www.w3.org/2000/svg" xmlns:xlink="http://www.w3.org/1999/xlink">
<g id="graph0" class="graph" transform="scale(1 1) rotate(0) translate(4 63.75)">
<title>eq_utilities::calc_memory_eq</title>
<!-- Node1 -->
<g id="Node000001" class="node">
<title>Node1</title>
<g id="a_Node000001"><a xlink:title="Calculate memory in MB necessary for variables in equilibrium job.">
<polygon fill="#999999" stroke="#666666" points="628,-46.12 504,-46.12 504,-12.62 628,-12.62 628,-46.12"/>
<text xml:space="preserve" text-anchor="start" x="512" y="-30.73" font-family="Ubuntu Mono" font-size="12.00">eq_utilities::calc</text>
<text xml:space="preserve" text-anchor="middle" x="566" y="-17.98" font-family="Ubuntu Mono" font-size="12.00">_memory_eq</text>
</a>
</g>
</g>
<!-- Node2 -->
<g id="Node000002" class="node">
<title>Node2</title>
<g id="a_Node000002"><a xlink:href="namespaceeq__ops.html#a6811942aeb421cf1495a65e639199975" target="_top" xlink:title="Divides the equilibrium jobs.">
<polygon fill="white" stroke="#666666" points="468,-39.75 320,-39.75 320,-19 468,-19 468,-39.75"/>
<text xml:space="preserve" text-anchor="middle" x="394" y="-24.35" font-family="Ubuntu Mono" font-size="12.00">eq_ops::divide_eq_jobs</text>
</a>
</g>
</g>
<!-- Node1&#45;&gt;Node2 -->
<g id="edge1_Node000001_Node000002" class="edge">
<title>Node1&#45;&gt;Node2</title>
<g id="a_edge1_Node000001_Node000002"><a xlink:title=" ">
<path fill="none" stroke="#63b8ff" d="M492.22,-29.38C484.35,-29.38 476.33,-29.38 468.45,-29.38"/>
<polygon fill="#63b8ff" stroke="#63b8ff" points="492.11,-32.88 502.11,-29.38 492.11,-25.88 492.11,-32.88"/>
</a>
</g>
</g>
<!-- Node3 -->
<g id="Node000003" class="node">
<title>Node3</title>
<g id="a_Node000003"><a xlink:href="namespacedriver__post.html#af527706d4e696d4e507443d2f74194ef" target="_top" xlink:title="Initializes the POST driver.">
<polygon fill="white" stroke="#666666" points="278,-59.75 130,-59.75 130,-39 278,-39 278,-59.75"/>
<text xml:space="preserve" text-anchor="middle" x="204" y="-44.35" font-family="Ubuntu Mono" font-size="12.00">driver_post::init_post</text>
</a>
</g>
</g>
<!-- Node2&#45;&gt;Node3 -->
<g id="edge2_Node000002_Node000003" class="edge">
<title>Node2&#45;&gt;Node3</title>
<g id="a_edge2_Node000002_Node000003"><a xlink:title=" ">
<path fill="none" stroke="#63b8ff" d="M308.33,-38.38C298.36,-39.44 288.24,-40.52 278.44,-41.56"/>
<polygon fill="#63b8ff" stroke="#63b8ff" points="308.43,-41.89 318,-37.35 307.69,-34.93 308.43,-41.89"/>
</a>
</g>
</g>
<!-- Node5 -->
<g id="Node000005" class="node">
<title>Node5</title>
<g id="a_Node000005"><a xlink:href="namespacerich__ops.html#a97206a15127960366fcb41d6889cb3b5" target="_top" xlink:title="Start a Richardson level.">
<polygon fill="white" stroke="#666666" points="284,-20.75 124,-20.75 124,0 284,0 284,-20.75"/>
<text xml:space="preserve" text-anchor="middle" x="204" y="-5.35" font-family="Ubuntu Mono" font-size="12.00">rich_ops::start_rich_lvl</text>
</a>
</g>
</g>
<!-- Node2&#45;&gt;Node5 -->
<g id="edge4_Node000002_Node000005" class="edge">
<title>Node2&#45;&gt;Node5</title>
<g id="a_edge4_Node000002_Node000005"><a xlink:title=" ">
<path fill="none" stroke="#63b8ff" d="M308.31,-20.82C300.34,-20.01 292.27,-19.19 284.35,-18.39"/>
<polygon fill="#63b8ff" stroke="#63b8ff" points="307.7,-24.27 318,-21.8 308.4,-17.31 307.7,-24.27"/>
</a>
</g>
</g>
<!-- Node4 -->
<g id="Node000004" class="node">
<title>Node4</title>
<g id="a_Node000004"><a xlink:href="POST_8f90.html#a28f8fd95cf9c74c0cfd8b386827a7a9b" target="_top" xlink:title="Peeling Ballooning in 3D: postprocessing.">
<polygon fill="white" stroke="#666666" points="88,-59.75 0,-59.75 0,-39 88,-39 88,-59.75"/>
<text xml:space="preserve" text-anchor="middle" x="44" y="-44.35" font-family="Ubuntu Mono" font-size="12.00">__post_f90__</text>
</a>
</g>
</g>
<!-- Node3&#45;&gt;Node4 -->
<g id="edge3_Node000003_Node000004" class="edge">
<title>Node3&#45;&gt;Node4</title>
<g id="a_edge3_Node000003_Node000004"><a xlink:title=" ">
<path fill="none" stroke="#63b8ff" d="M118.23,-49.38C107.82,-49.38 97.54,-49.38 88.12,-49.38"/>
<polygon fill="#63b8ff" stroke="#63b8ff" points="118.04,-52.88 128.04,-49.38 118.04,-45.88 118.04,-52.88"/>
</a>
</g>
</g>
<!-- Node6 -->
<g id="Node000006" class="node">
<title>Node6</title>
<g id="a_Node000006"><a xlink:href="PB3D_8f90.html#a36e5b0ce05c9783f58b43c4463b290a1" target="_top" xlink:title="Peeling Ballooning in 3D.">
<polygon fill="white" stroke="#666666" points="88,-20.75 0,-20.75 0,0 88,0 88,-20.75"/>
<text xml:space="preserve" text-anchor="middle" x="44" y="-5.35" font-family="Ubuntu Mono" font-size="12.00">__pb3d_f90__</text>
</a>
</g>
</g>
<!-- Node5&#45;&gt;Node6 -->
<g id="edge5_Node000005_Node000006" class="edge">
<title>Node5&#45;&gt;Node6</title>
<g id="a_edge5_Node000005_Node000006"><a xlink:title=" ">
<path fill="none" stroke="#63b8ff" d="M112.19,-10.38C103.93,-10.38 95.84,-10.38 88.3,-10.38"/>
<polygon fill="#63b8ff" stroke="#63b8ff" points="112.02,-13.88 122.02,-10.38 112.02,-6.88 112.02,-13.88"/>
</a>
</g>
</g>
</g>
</svg>
