<?xml version="1.0" encoding="UTF-8" standalone="no"?>
<!DOCTYPE svg PUBLIC "-//W3C//DTD SVG 1.1//EN"
 "http://www.w3.org/Graphics/SVG/1.1/DTD/svg11.dtd">
<!-- Generated by graphviz version 14.1.2 (20260124.0452)
 -->
<!-- Title: input_utilities::dealloc_in Pages: 1 -->
<svg width="714pt" height="127pt"
 viewBox="0.00 0.00 714.00 127.00" xmlns="http://www.w3.org/2000/svg" xmlns:xlink="http://www.w3.org/1999/xlink">
<g id="graph0" class="graph" transform="scale(1 1) rotate(0) translate(4 122.6)">
<title>input_utilities::dealloc_in</title>
<!-- Node1 -->
<g id="Node000001" class="node">
<title>Node1</title>
<g id="a_Node000001"><a xlink:title="Cleans up input from equilibrium codes.">
<polygon fill="#999999" stroke="#666666" points="178,-71.33 0,-71.33 0,-50.58 178,-50.58 178,-71.33"/>
<text xml:space="preserve" text-anchor="middle" x="89" y="-55.93" font-family="Ubuntu Mono" font-size="12.00">input_utilities::dealloc_in</text>
</a>
</g>
</g>
<!-- Node2 -->
<g id="Node000002" class="node">
<title>Node2</title>
<g id="a_Node000002"><a xlink:href="namespacehelena__vars.html#add7b3eea7306eca7fb45737ff915523f" target="_top" xlink:title="Deallocates HELENA quantities that are not used any more.">
<polygon fill="white" stroke="#666666" points="374,-52.33 214,-52.33 214,-31.58 374,-31.58 374,-52.33"/>
<text xml:space="preserve" text-anchor="middle" x="294" y="-36.93" font-family="Ubuntu Mono" font-size="12.00">helena_vars::dealloc_hel</text>
</a>
</g>
</g>
<!-- Node1&#45;&gt;Node2 -->
<g id="edge1_Node000001_Node000002" class="edge">
<title>Node1&#45;&gt;Node2</title>
<g id="a_edge1_Node000001_Node000002"><a xlink:title=" ">
<path fill="none" stroke="#63b8ff" d="M178.45,-52.68C186.44,-51.93 194.53,-51.17 202.54,-50.42"/>
<polygon fill="#63b8ff" stroke="#63b8ff" points="202.64,-53.93 212.27,-49.51 201.98,-46.96 202.64,-53.93"/>
</a>
</g>
</g>
<!-- Node6 -->
<g id="Node000006" class="node">
<title>Node6</title>
<g id="a_Node000006"><a xlink:href="namespacevmec__vars.html#afe14ec328664d93b93c6dbda69df9175" target="_top" xlink:title="Deallocates VMEC quantities that are not used anymore.">
<polygon fill="white" stroke="#666666" points="371,-100.33 217,-100.33 217,-79.58 371,-79.58 371,-100.33"/>
<text xml:space="preserve" text-anchor="middle" x="294" y="-84.93" font-family="Ubuntu Mono" font-size="12.00">vmec_vars::dealloc_vmec</text>
</a>
</g>
</g>
<!-- Node1&#45;&gt;Node6 -->
<g id="edge8_Node000001_Node000006" class="edge">
<title>Node1&#45;&gt;Node6</title>
<g id="a_edge8_Node000001_Node000006"><a xlink:title=" ">
<path fill="none" stroke="#63b8ff" d="M165.88,-71.79C178.9,-73.65 192.52,-75.6 205.81,-77.5"/>
<polygon fill="#63b8ff" stroke="#63b8ff" points="204.98,-80.92 215.38,-78.86 205.97,-73.99 204.98,-80.92"/>
</a>
</g>
</g>
<!-- Node3 -->
<g id="Node000003" class="node">
<title>Node3</title>
<g id="a_Node000003"><a xlink:href="namespacemessages.html#a82dddaab795b78b3d39e1ff1aab2f665" target="_top" xlink:title="Returns the memory usage in kilobytes.">
<polygon fill="white" stroke="#666666" points="706,-81.33 552,-81.33 552,-60.58 706,-60.58 706,-81.33"/>
<text xml:space="preserve" text-anchor="middle" x="629" y="-65.93" font-family="Ubuntu Mono" font-size="12.00">messages::get_mem_usage</text>
</a>
</g>
</g>
<!-- Node2&#45;&gt;Node3 -->
<g id="edge2_Node000002_Node000003" class="edge">
<title>Node2&#45;&gt;Node3</title>
<g id="a_edge2_Node000002_Node000003"><a xlink:title=" ">
<path fill="none" stroke="#63b8ff" d="M374.34,-48.86C424.24,-53.21 488.68,-58.82 540.12,-63.3"/>
<polygon fill="#63b8ff" stroke="#63b8ff" points="539.79,-66.78 550.05,-64.17 540.4,-59.81 539.79,-66.78"/>
</a>
</g>
</g>
<!-- Node4 -->
<g id="Node000004" class="node">
<title>Node4</title>
<g id="a_Node000004"><a xlink:href="namespacestr__utilities.html#a0b97e51770725a3e98ed393d26681414" target="_top" xlink:title="Convert an integer to string.">
<polygon fill="white" stroke="#666666" points="697,-24.33 561,-24.33 561,-3.58 697,-3.58 697,-24.33"/>
<text xml:space="preserve" text-anchor="middle" x="629" y="-8.93" font-family="Ubuntu Mono" font-size="12.00">str_utilities::i2str</text>
</a>
</g>
</g>
<!-- Node2&#45;&gt;Node4 -->
<g id="edge3_Node000002_Node000004" class="edge">
<title>Node2&#45;&gt;Node4</title>
<g id="a_edge3_Node000002_Node000004"><a xlink:title=" ">
<path fill="none" stroke="#63b8ff" d="M320.47,-31.22C343.41,-22.17 378.3,-9.93 410,-4.95 455.93,2.25 507.94,0.48 549.63,-3.32"/>
<polygon fill="#63b8ff" stroke="#63b8ff" points="549.03,-6.78 559.32,-4.26 549.7,0.19 549.03,-6.78"/>
</a>
</g>
</g>
<!-- Node5 -->
<g id="Node000005" class="node">
<title>Node5</title>
<g id="a_Node000005"><a xlink:href="namespacemessages.html#aa4a8d01563e92558e8a0875b075ec54c" target="_top" xlink:title="Write output to file identified by output_i.">
<polygon fill="white" stroke="#666666" points="516,-34.33 410,-34.33 410,-13.58 516,-13.58 516,-34.33"/>
<text xml:space="preserve" text-anchor="middle" x="463" y="-18.93" font-family="Ubuntu Mono" font-size="12.00">messages::writo</text>
</a>
</g>
</g>
<!-- Node2&#45;&gt;Node5 -->
<g id="edge5_Node000002_Node000005" class="edge">
<title>Node2&#45;&gt;Node5</title>
<g id="a_edge5_Node000002_Node000005"><a xlink:title=" ">
<path fill="none" stroke="#63b8ff" d="M374.1,-33.43C382.26,-32.55 390.47,-31.66 398.42,-30.81"/>
<polygon fill="#63b8ff" stroke="#63b8ff" points="398.79,-34.29 408.36,-29.74 398.04,-27.33 398.79,-34.29"/>
</a>
</g>
</g>
<!-- Node4&#45;&gt;Node4 -->
<g id="edge4_Node000004_Node000004" class="edge">
<title>Node4&#45;&gt;Node4</title>
<g id="a_edge4_Node000004_Node000004"><a xlink:title=" ">
<path fill="none" stroke="#63b8ff" d="M602.25,-24.73C591.55,-33.39 600.47,-42.33 629,-42.33 644.6,-42.33 654.34,-39.65 658.21,-35.81"/>
<polygon fill="#63b8ff" stroke="#63b8ff" points="661.66,-35.21 656.08,-26.2 654.83,-36.72 661.66,-35.21"/>
</a>
</g>
</g>
<!-- Node5&#45;&gt;Node3 -->
<g id="edge6_Node000005_Node000003" class="edge">
<title>Node5&#45;&gt;Node3</title>
<g id="a_edge6_Node000005_Node000003"><a xlink:title=" ">
<path fill="none" stroke="#63b8ff" d="M498.17,-34.79C514.43,-39.86 534.17,-45.87 552,-50.95 559.32,-53.04 567.05,-55.16 574.68,-57.21"/>
<polygon fill="#63b8ff" stroke="#63b8ff" points="573.68,-60.57 584.24,-59.76 575.48,-53.8 573.68,-60.57"/>
</a>
</g>
</g>
<!-- Node5&#45;&gt;Node4 -->
<g id="edge7_Node000005_Node000004" class="edge">
<title>Node5&#45;&gt;Node4</title>
<g id="a_edge7_Node000005_Node000004"><a xlink:title=" ">
<path fill="none" stroke="#63b8ff" d="M516.34,-20.76C526.89,-20.12 538.19,-19.43 549.41,-18.75"/>
<polygon fill="#63b8ff" stroke="#63b8ff" points="549.29,-22.26 559.05,-18.16 548.86,-15.27 549.29,-22.26"/>
</a>
</g>
</g>
<!-- Node6&#45;&gt;Node3 -->
<g id="edge9_Node000006_Node000003" class="edge">
<title>Node6&#45;&gt;Node3</title>
<g id="a_edge9_Node000006_Node000003"><a xlink:title=" ">
<path fill="none" stroke="#63b8ff" d="M333.19,-100.8C377.44,-111.83 452.44,-125.74 516,-113.95 544.21,-108.73 574.48,-96.68 596.43,-86.66"/>
<polygon fill="#63b8ff" stroke="#63b8ff" points="597.86,-89.86 605.43,-82.44 594.89,-83.52 597.86,-89.86"/>
</a>
</g>
</g>
<!-- Node6&#45;&gt;Node4 -->
<g id="edge10_Node000006_Node000004" class="edge">
<title>Node6&#45;&gt;Node4</title>
<g id="a_edge10_Node000006_Node000004"><a xlink:title=" ">
<path fill="none" stroke="#63b8ff" d="M349.19,-79.12C394.02,-69.99 459.3,-56.32 516,-42.95 536.02,-38.24 557.94,-32.65 577.05,-27.65"/>
<polygon fill="#63b8ff" stroke="#63b8ff" points="577.69,-31.1 586.47,-25.17 575.91,-24.33 577.69,-31.1"/>
</a>
</g>
</g>
<!-- Node6&#45;&gt;Node5 -->
<g id="edge11_Node000006_Node000005" class="edge">
<title>Node6&#45;&gt;Node5</title>
<g id="a_edge11_Node000006_Node000005"><a xlink:title=" ">
<path fill="none" stroke="#63b8ff" d="M325.51,-79.13C340.23,-73.81 358.09,-67.21 374,-60.95 391.42,-54.1 410.59,-46.09 426.59,-39.28"/>
<polygon fill="#63b8ff" stroke="#63b8ff" points="427.88,-42.54 435.7,-35.38 425.13,-36.1 427.88,-42.54"/>
</a>
</g>
</g>
</g>
</svg>
