<?xml version="1.0" encoding="UTF-8" standalone="no"?>
<!DOCTYPE svg PUBLIC "-//W3C//DTD SVG 1.1//EN"
 "http://www.w3.org/Graphics/SVG/1.1/DTD/svg11.dtd">
<!-- Generated by graphviz version 2.43.0 (0)
 -->
<!-- Title: grid_utilities::calc_int_vol Pages: 1 -->
<svg width="650pt" height="149pt"
 viewBox="0.00 0.00 650.00 149.00" xmlns="http://www.w3.org/2000/svg" xmlns:xlink="http://www.w3.org/1999/xlink">
<g id="graph0" class="graph" transform="scale(1 1) rotate(0) translate(4 145)">
<title>grid_utilities::calc_int_vol</title>
<polygon fill="white" stroke="transparent" points="-4,4 -4,-145 646,-145 646,4 -4,4"/>
<!-- Node1 -->
<g id="node1" class="node">
<title>Node1</title>
<g id="a_node1"><a xlink:title="Calculates volume integral on a 3D grid.">
<polygon fill="#bfbfbf" stroke="black" points="0,-54 0,-88 119,-88 119,-54 0,-54"/>
<text text-anchor="start" x="8" y="-74.4" font-family="Ubuntu Mono" font-size="12.00">grid_utilities::calc</text>
<text text-anchor="middle" x="59.5" y="-61.4" font-family="Ubuntu Mono" font-size="12.00">_int_vol</text>
</a>
</g>
</g>
<!-- Node2 -->
<g id="node2" class="node">
<title>Node2</title>
<g id="a_node2"><a xlink:href="namespacestr__utilities.html#a308e943e5e244e3e0f852f2ecb3e3183" target="_top" xlink:title="Convert a complex (double) to string.">
<polygon fill="white" stroke="black" points="155,-119.5 155,-140.5 273,-140.5 273,-119.5 155,-119.5"/>
<text text-anchor="middle" x="214" y="-126.9" font-family="Ubuntu Mono" font-size="12.00">str_utilities::c2str</text>
</a>
</g>
</g>
<!-- Node1&#45;&gt;Node2 -->
<g id="edge1" class="edge">
<title>Node1&#45;&gt;Node2</title>
<path fill="none" stroke="midnightblue" d="M104.61,-88.07C127.34,-96.86 154.74,-107.46 176.3,-115.8"/>
<polygon fill="midnightblue" stroke="midnightblue" points="175.17,-119.12 185.76,-119.46 177.7,-112.59 175.17,-119.12"/>
</g>
<!-- Node3 -->
<g id="node3" class="node">
<title>Node3</title>
<g id="a_node3"><a xlink:href="namespacestr__utilities.html#a0b97e51770725a3e98ed393d26681414" target="_top" xlink:title="Convert an integer to string.">
<polygon fill="white" stroke="black" points="493.5,-80.5 493.5,-101.5 607.5,-101.5 607.5,-80.5 493.5,-80.5"/>
<text text-anchor="middle" x="550.5" y="-87.9" font-family="Ubuntu Mono" font-size="12.00">str_utilities::i2str</text>
</a>
</g>
</g>
<!-- Node1&#45;&gt;Node3 -->
<g id="edge2" class="edge">
<title>Node1&#45;&gt;Node3</title>
<path fill="none" stroke="midnightblue" d="M119.48,-73.41C211.15,-77.16 387.21,-84.36 483.16,-88.29"/>
<polygon fill="midnightblue" stroke="midnightblue" points="483.19,-91.79 493.33,-88.7 483.48,-84.8 483.19,-91.79"/>
</g>
<!-- Node4 -->
<g id="node4" class="node">
<title>Node4</title>
<g id="a_node4"><a xlink:href="namespacemessages.html#a6e6bfb084063e4cc91ee86e542043302" target="_top" xlink:title="Increases/decreases lvl of output.">
<polygon fill="white" stroke="black" points="155,-41.5 155,-62.5 273,-62.5 273,-41.5 155,-41.5"/>
<text text-anchor="middle" x="214" y="-48.9" font-family="Ubuntu Mono" font-size="12.00">messages::lvl_ud</text>
</a>
</g>
</g>
<!-- Node1&#45;&gt;Node4 -->
<g id="edge3" class="edge">
<title>Node1&#45;&gt;Node4</title>
<path fill="none" stroke="midnightblue" d="M119.02,-63.71C127.48,-62.66 136.24,-61.56 144.86,-60.49"/>
<polygon fill="midnightblue" stroke="midnightblue" points="145.39,-63.95 154.88,-59.24 144.53,-57 145.39,-63.95"/>
</g>
<!-- Node5 -->
<g id="node5" class="node">
<title>Node5</title>
<g id="a_node5"><a xlink:href="namespacemessages.html#aa4a8d01563e92558e8a0875b075ec54c" target="_top" xlink:title="Write output to file identified by output_i.">
<polygon fill="white" stroke="black" points="309,-40.5 309,-61.5 423,-61.5 423,-40.5 309,-40.5"/>
<text text-anchor="middle" x="366" y="-47.9" font-family="Ubuntu Mono" font-size="12.00">messages::writo</text>
</a>
</g>
</g>
<!-- Node1&#45;&gt;Node5 -->
<g id="edge8" class="edge">
<title>Node1&#45;&gt;Node5</title>
<path fill="none" stroke="midnightblue" d="M92.75,-54C110.57,-45.56 133.41,-36.28 155,-32 208.69,-21.36 271.3,-29.63 314.09,-38.35"/>
<polygon fill="midnightblue" stroke="midnightblue" points="313.48,-41.8 323.99,-40.44 314.93,-34.95 313.48,-41.8"/>
</g>
<!-- Node4&#45;&gt;Node5 -->
<g id="edge4" class="edge">
<title>Node4&#45;&gt;Node5</title>
<path fill="none" stroke="midnightblue" d="M273.42,-51.61C281.73,-51.56 290.32,-51.5 298.76,-51.44"/>
<polygon fill="midnightblue" stroke="midnightblue" points="298.97,-54.94 308.95,-51.37 298.93,-47.94 298.97,-54.94"/>
</g>
<!-- Node5&#45;&gt;Node3 -->
<g id="edge7" class="edge">
<title>Node5&#45;&gt;Node3</title>
<path fill="none" stroke="midnightblue" d="M414.95,-61.51C438.43,-66.66 466.9,-72.9 491.59,-78.31"/>
<polygon fill="midnightblue" stroke="midnightblue" points="491.04,-81.77 501.55,-80.49 492.54,-74.93 491.04,-81.77"/>
</g>
<!-- Node6 -->
<g id="node6" class="node">
<title>Node6</title>
<g id="a_node6"><a xlink:href="namespacemessages.html#a61fd0b51b5e37d58fdc993c01792a3fd" target="_top" xlink:title="Returns the time.">
<polygon fill="white" stroke="black" points="480.5,-40.5 480.5,-61.5 620.5,-61.5 620.5,-40.5 480.5,-40.5"/>
<text text-anchor="middle" x="550.5" y="-47.9" font-family="Ubuntu Mono" font-size="12.00">messages::get_clock</text>
</a>
</g>
</g>
<!-- Node5&#45;&gt;Node6 -->
<g id="edge5" class="edge">
<title>Node5&#45;&gt;Node6</title>
<path fill="none" stroke="midnightblue" d="M423.25,-51C438.02,-51 454.24,-51 469.99,-51"/>
<polygon fill="midnightblue" stroke="midnightblue" points="470.25,-54.5 480.25,-51 470.25,-47.5 470.25,-54.5"/>
</g>
<!-- Node7 -->
<g id="node7" class="node">
<title>Node7</title>
<g id="a_node7"><a xlink:href="namespacemessages.html#a82dddaab795b78b3d39e1ff1aab2f665" target="_top" xlink:title="Returns the memory usage in kilobytes.">
<polygon fill="white" stroke="black" points="459,-0.5 459,-21.5 642,-21.5 642,-0.5 459,-0.5"/>
<text text-anchor="middle" x="550.5" y="-7.9" font-family="Ubuntu Mono" font-size="12.00">messages::get_mem_usage</text>
</a>
</g>
</g>
<!-- Node5&#45;&gt;Node7 -->
<g id="edge6" class="edge">
<title>Node5&#45;&gt;Node7</title>
<path fill="none" stroke="midnightblue" d="M414.95,-40.49C438.43,-35.34 466.9,-29.1 491.59,-23.69"/>
<polygon fill="midnightblue" stroke="midnightblue" points="492.54,-27.07 501.55,-21.51 491.04,-20.23 492.54,-27.07"/>
</g>
</g>
</svg>
