<?xml version="1.0" encoding="UTF-8" standalone="no"?>
<!DOCTYPE svg PUBLIC "-//W3C//DTD SVG 1.1//EN"
 "http://www.w3.org/Graphics/SVG/1.1/DTD/svg11.dtd">
<!-- Generated by graphviz version 2.38.0 (20140413.2041)
 -->
<!-- Title: pb3d_ops::reconstruct_pb3d_eq_2 Pages: 1 -->
<svg width="1076pt" height="431pt"
 viewBox="0.00 0.00 1076.00 430.50" xmlns="http://www.w3.org/2000/svg" xmlns:xlink="http://www.w3.org/1999/xlink">
<g id="graph0" class="graph" transform="scale(1 1) rotate(0) translate(4 426.5)">
<title>pb3d_ops::reconstruct_pb3d_eq_2</title>
<polygon fill="white" stroke="none" points="-4,4 -4,-426.5 1072,-426.5 1072,4 -4,4"/>
<!-- Node55 -->
<g id="node1" class="node"><title>Node55</title>
<polygon fill="#bfbfbf" stroke="black" points="0,-159 0,-193 143,-193 143,-159 0,-159"/>
<text text-anchor="start" x="8" y="-179.4" font-family="Ubuntu Mono" font-size="12.00">pb3d_ops::reconstruct</text>
<text text-anchor="middle" x="71.5" y="-166.4" font-family="Ubuntu Mono" font-size="12.00">_pb3d_eq_2</text>
</g>
<!-- Node56 -->
<g id="node2" class="node"><title>Node56</title>
<g id="a_node2"><a xlink:href="namespacehdf5__ops.html#a5108e0d6f6b492cb981505ebceedd9ee" target="_top" xlink:title="Reads a PB3D output file in HDF5 format. ">
<polygon fill="white" stroke="black" points="179,-165.5 179,-186.5 334,-186.5 334,-165.5 179,-165.5"/>
<text text-anchor="middle" x="256.5" y="-172.9" font-family="Ubuntu Mono" font-size="12.00">hdf5_ops::read_hdf5_arr</text>
</a>
</g>
</g>
<!-- Node55&#45;&gt;Node56 -->
<g id="edge1" class="edge"><title>Node55&#45;&gt;Node56</title>
<path fill="none" stroke="midnightblue" d="M143.253,-176C151.638,-176 160.269,-176 168.844,-176"/>
<polygon fill="midnightblue" stroke="midnightblue" points="168.865,-179.5 178.865,-176 168.865,-172.5 168.865,-179.5"/>
</g>
<!-- Node57 -->
<g id="node3" class="node"><title>Node57</title>
<g id="a_node3"><a xlink:href="namespacehdf5__utilities.html#a7574320980affc30a584f7776d33a51c" target="_top" xlink:title="Sets up the chunk property list and/or the 1D hyperslabs that correspond to a local subset of lim_tot...">
<polygon fill="white" stroke="black" points="373,-305 373,-339 504,-339 504,-305 373,-305"/>
<text text-anchor="start" x="381" y="-325.4" font-family="Ubuntu Mono" font-size="12.00">hdf5_utilities::set</text>
<text text-anchor="middle" x="438.5" y="-312.4" font-family="Ubuntu Mono" font-size="12.00">_1d_vars</text>
</a>
</g>
</g>
<!-- Node56&#45;&gt;Node57 -->
<g id="edge2" class="edge"><title>Node56&#45;&gt;Node57</title>
<path fill="none" stroke="midnightblue" d="M264.985,-186.824C281.45,-209.904 323.1,-264.417 370,-296 372.142,-297.442 374.375,-298.821 376.671,-300.136"/>
<polygon fill="midnightblue" stroke="midnightblue" points="375.296,-303.367 385.779,-304.9 378.54,-297.164 375.296,-303.367"/>
</g>
<!-- Node58 -->
<g id="node4" class="node"><title>Node58</title>
<g id="a_node4"><a xlink:href="namespacempi__utilities.html#a5a789d05be41d6109c01f46cc98620c8" target="_top" xlink:title="Request access to lock of a BL (blocking) or optionally a NB (non&#45;blocking) type. ...">
<polygon fill="white" stroke="black" points="373,-252 373,-286 504,-286 504,-252 373,-252"/>
<text text-anchor="start" x="381" y="-272.4" font-family="Ubuntu Mono" font-size="12.00">mpi_utilities::lock</text>
<text text-anchor="middle" x="438.5" y="-259.4" font-family="Ubuntu Mono" font-size="12.00">_req_acc</text>
</a>
</g>
</g>
<!-- Node56&#45;&gt;Node58 -->
<g id="edge3" class="edge"><title>Node56&#45;&gt;Node58</title>
<path fill="none" stroke="midnightblue" d="M273.842,-186.641C295.36,-200.405 334.617,-224.666 370,-242 374.063,-243.99 378.311,-245.953 382.613,-247.856"/>
<polygon fill="midnightblue" stroke="midnightblue" points="381.497,-251.185 392.067,-251.915 384.259,-244.753 381.497,-251.185"/>
</g>
<!-- Node61 -->
<g id="node7" class="node"><title>Node61</title>
<g id="a_node7"><a xlink:href="namespacestr__utilities.html#a0b97e51770725a3e98ed393d26681414" target="_top" xlink:title="Convert an integer to string. ">
<polygon fill="white" stroke="black" points="928,-124.5 928,-145.5 1065,-145.5 1065,-124.5 928,-124.5"/>
<text text-anchor="middle" x="996.5" y="-131.9" font-family="Ubuntu Mono" font-size="12.00">str_utilities::i2str</text>
</a>
</g>
</g>
<!-- Node56&#45;&gt;Node61 -->
<g id="edge25" class="edge"><title>Node56&#45;&gt;Node61</title>
<path fill="none" stroke="midnightblue" d="M334.045,-171.748C475.237,-163.903 775.212,-147.238 917.493,-139.334"/>
<polygon fill="midnightblue" stroke="midnightblue" points="918.083,-142.806 927.874,-138.757 917.695,-135.817 918.083,-142.806"/>
</g>
<!-- Node67 -->
<g id="node13" class="node"><title>Node67</title>
<g id="a_node13"><a xlink:href="namespacempi__utilities.html#a86f9982a0f92b51a916f832d9a3d8ba9" target="_top" xlink:title="Returns access to a lock. ">
<polygon fill="white" stroke="black" points="373,-199 373,-233 504,-233 504,-199 373,-199"/>
<text text-anchor="start" x="381" y="-219.4" font-family="Ubuntu Mono" font-size="12.00">mpi_utilities::lock</text>
<text text-anchor="middle" x="438.5" y="-206.4" font-family="Ubuntu Mono" font-size="12.00">_return_acc</text>
</a>
</g>
</g>
<!-- Node56&#45;&gt;Node67 -->
<g id="edge15" class="edge"><title>Node56&#45;&gt;Node67</title>
<path fill="none" stroke="midnightblue" d="M304.793,-186.51C322.614,-190.47 343.344,-195.076 363.049,-199.455"/>
<polygon fill="midnightblue" stroke="midnightblue" points="362.408,-202.898 372.929,-201.651 363.926,-196.065 362.408,-202.898"/>
</g>
<!-- Node68 -->
<g id="node14" class="node"><title>Node68</title>
<g id="a_node14"><a xlink:href="namespacehdf5__utilities.html#aa9d76166f970a7052cd0d96c8f3ee0be" target="_top" xlink:title="Lists all variables in a HDF5 group. ">
<polygon fill="white" stroke="black" points="370,-74 370,-108 507,-108 507,-74 370,-74"/>
<text text-anchor="start" x="378" y="-94.4" font-family="Ubuntu Mono" font-size="12.00">hdf5_utilities::list</text>
<text text-anchor="middle" x="438.5" y="-81.4" font-family="Ubuntu Mono" font-size="12.00">_all_vars_in_group</text>
</a>
</g>
</g>
<!-- Node56&#45;&gt;Node68 -->
<g id="edge20" class="edge"><title>Node56&#45;&gt;Node68</title>
<path fill="none" stroke="midnightblue" d="M279.933,-165.407C307.876,-152.211 356.298,-129.345 392.108,-112.435"/>
<polygon fill="midnightblue" stroke="midnightblue" points="393.835,-115.49 401.383,-108.055 390.846,-109.161 393.835,-115.49"/>
</g>
<!-- Node69 -->
<g id="node15" class="node"><title>Node69</title>
<g id="a_node15"><a xlink:href="namespacemessages.html#aa4a8d01563e92558e8a0875b075ec54c" target="_top" xlink:title="Write output to file identified by output_i. ">
<polygon fill="white" stroke="black" points="567,-37.5 567,-58.5 674,-58.5 674,-37.5 567,-37.5"/>
<text text-anchor="middle" x="620.5" y="-44.9" font-family="Ubuntu Mono" font-size="12.00">messages::writo</text>
</a>
</g>
</g>
<!-- Node56&#45;&gt;Node69 -->
<g id="edge26" class="edge"><title>Node56&#45;&gt;Node69</title>
<path fill="none" stroke="midnightblue" d="M264.312,-165.168C279.756,-141.717 320.003,-86.5438 370,-64 429.167,-37.3212 504.339,-36.35 556.632,-40.1568"/>
<polygon fill="midnightblue" stroke="midnightblue" points="556.525,-43.6594 566.774,-40.9757 557.088,-36.6821 556.525,-43.6594"/>
</g>
<!-- Node59 -->
<g id="node5" class="node"><title>Node59</title>
<g id="a_node5"><a xlink:href="namespacempi__utilities.html#abe5bf3ae3b6a06eda18c2f4d62ac09c5" target="_top" xlink:title="Returns the header for lock debug messages. ">
<polygon fill="white" stroke="black" points="746,-272 746,-306 877,-306 877,-272 746,-272"/>
<text text-anchor="start" x="754" y="-292.4" font-family="Ubuntu Mono" font-size="12.00">mpi_utilities::lock</text>
<text text-anchor="middle" x="811.5" y="-279.4" font-family="Ubuntu Mono" font-size="12.00">_header</text>
</a>
</g>
</g>
<!-- Node58&#45;&gt;Node59 -->
<g id="edge4" class="edge"><title>Node58&#45;&gt;Node59</title>
<path fill="none" stroke="midnightblue" d="M490.396,-286.063C496.235,-288.964 501.911,-292.268 507,-296 527.375,-310.943 520.167,-329.18 543,-340 618.569,-375.81 717.414,-337.788 771.294,-310.865"/>
<polygon fill="midnightblue" stroke="midnightblue" points="773.191,-313.826 780.498,-306.154 770.002,-307.595 773.191,-313.826"/>
</g>
<!-- Node62 -->
<g id="node8" class="node"><title>Node62</title>
<g id="a_node8"><a xlink:href="namespacempi__utilities.html#a3b0349e5ec825e14083e3126c3e7ba65" target="_top" xlink:title="Adds, removes or sets to active a rank from the waiting list for a lock and returns the lock waiting ...">
<polygon fill="white" stroke="black" points="555,-202 555,-236 686,-236 686,-202 555,-202"/>
<text text-anchor="start" x="563" y="-222.4" font-family="Ubuntu Mono" font-size="12.00">mpi_utilities::lock</text>
<text text-anchor="middle" x="620.5" y="-209.4" font-family="Ubuntu Mono" font-size="12.00">_wl_change</text>
</a>
</g>
</g>
<!-- Node58&#45;&gt;Node62 -->
<g id="edge7" class="edge"><title>Node58&#45;&gt;Node62</title>
<path fill="none" stroke="midnightblue" d="M500.942,-251.933C516.208,-247.692 532.696,-243.112 548.383,-238.755"/>
<polygon fill="midnightblue" stroke="midnightblue" points="549.331,-242.124 558.029,-236.075 547.457,-235.379 549.331,-242.124"/>
</g>
<!-- Node64 -->
<g id="node10" class="node"><title>Node64</title>
<g id="a_node10"><a xlink:href="namespacempi__utilities.html#a74e2e82b561f403ca8087c3925f76e29" target="_top" xlink:title="Decides whether a waiting list is empty. ">
<polygon fill="white" stroke="black" points="543,-255.5 543,-276.5 698,-276.5 698,-255.5 543,-255.5"/>
<text text-anchor="middle" x="620.5" y="-262.9" font-family="Ubuntu Mono" font-size="12.00">mpi_utilities::wl_empty</text>
</a>
</g>
</g>
<!-- Node58&#45;&gt;Node64 -->
<g id="edge10" class="edge"><title>Node58&#45;&gt;Node64</title>
<path fill="none" stroke="midnightblue" d="M504.23,-267.921C513.408,-267.768 522.968,-267.609 532.483,-267.45"/>
<polygon fill="midnightblue" stroke="midnightblue" points="532.83,-270.945 542.77,-267.279 532.713,-263.946 532.83,-270.945"/>
</g>
<!-- Node65 -->
<g id="node11" class="node"><title>Node65</title>
<g id="a_node11"><a xlink:href="namespacempi__utilities.html#a263a30c79639d97f5faffdb566b5a811" target="_top" xlink:title="Notifies a rank that they can get the lock. ">
<polygon fill="white" stroke="black" points="555,-296 555,-330 686,-330 686,-296 555,-296"/>
<text text-anchor="start" x="563" y="-316.4" font-family="Ubuntu Mono" font-size="12.00">mpi_utilities::lock</text>
<text text-anchor="middle" x="620.5" y="-303.4" font-family="Ubuntu Mono" font-size="12.00">_notify</text>
</a>
</g>
</g>
<!-- Node58&#45;&gt;Node65 -->
<g id="edge11" class="edge"><title>Node58&#45;&gt;Node65</title>
<path fill="none" stroke="midnightblue" d="M504.23,-284.823C517.45,-288.054 531.461,-291.479 544.991,-294.787"/>
<polygon fill="midnightblue" stroke="midnightblue" points="544.195,-298.195 554.74,-297.17 545.857,-291.395 544.195,-298.195"/>
</g>
<!-- Node66 -->
<g id="node12" class="node"><title>Node66</title>
<g id="a_node12"><a xlink:href="namespacempi__utilities.html#a17c39b0498528e2532c8347b0b7dec86" target="_top" xlink:title="Get notified that the rank can get the lock. ">
<polygon fill="white" stroke="black" points="555,-388 555,-422 686,-422 686,-388 555,-388"/>
<text text-anchor="start" x="563" y="-408.4" font-family="Ubuntu Mono" font-size="12.00">mpi_utilities::lock</text>
<text text-anchor="middle" x="620.5" y="-395.4" font-family="Ubuntu Mono" font-size="12.00">_get_notified</text>
</a>
</g>
</g>
<!-- Node58&#45;&gt;Node66 -->
<g id="edge13" class="edge"><title>Node58&#45;&gt;Node66</title>
<path fill="none" stroke="midnightblue" d="M493.398,-286.035C498.32,-288.886 502.963,-292.186 507,-296 534.461,-321.943 515.743,-346.842 543,-373 546.798,-376.645 551.071,-379.901 555.607,-382.805"/>
<polygon fill="midnightblue" stroke="midnightblue" points="554.182,-386.023 564.597,-387.967 557.667,-379.952 554.182,-386.023"/>
</g>
<!-- Node60 -->
<g id="node6" class="node"><title>Node60</title>
<g id="a_node6"><a xlink:href="namespacestr__utilities.html#acb8c4e66aead51f178e47fdea8d7a7db" target="_top" xlink:title="Convert an integer to string. ">
<polygon fill="white" stroke="black" points="925,-278.5 925,-299.5 1068,-299.5 1068,-278.5 925,-278.5"/>
<text text-anchor="middle" x="996.5" y="-285.9" font-family="Ubuntu Mono" font-size="12.00">str_utilities::ii2str</text>
</a>
</g>
</g>
<!-- Node59&#45;&gt;Node60 -->
<g id="edge5" class="edge"><title>Node59&#45;&gt;Node60</title>
<path fill="none" stroke="midnightblue" d="M877.019,-289C889.199,-289 902.079,-289 914.685,-289"/>
<polygon fill="midnightblue" stroke="midnightblue" points="914.717,-292.5 924.717,-289 914.717,-285.5 914.717,-292.5"/>
</g>
<!-- Node59&#45;&gt;Node61 -->
<g id="edge6" class="edge"><title>Node59&#45;&gt;Node61</title>
<path fill="none" stroke="midnightblue" d="M841.392,-271.975C856.117,-262.842 874.026,-251.015 889,-239 923.137,-211.608 958.719,-174.941 978.893,-153.26"/>
<polygon fill="midnightblue" stroke="midnightblue" points="981.627,-155.458 985.835,-145.735 976.482,-150.712 981.627,-155.458"/>
</g>
<!-- Node62&#45;&gt;Node59 -->
<g id="edge8" class="edge"><title>Node62&#45;&gt;Node59</title>
<path fill="none" stroke="midnightblue" d="M670.54,-236.097C679.682,-239.344 689.143,-242.745 698,-246 717.387,-253.125 738.562,-261.154 757.26,-268.328"/>
<polygon fill="midnightblue" stroke="midnightblue" points="756.199,-271.67 766.789,-271.992 758.712,-265.136 756.199,-271.67"/>
</g>
<!-- Node63 -->
<g id="node9" class="node"><title>Node63</title>
<g id="a_node9"><a xlink:href="namespacestr__utilities.html#ac778d706b2e021672618939ab58fdd32" target="_top" xlink:title="Convert a real (double) to string. ">
<polygon fill="white" stroke="black" points="740,-208.5 740,-229.5 883,-229.5 883,-208.5 740,-208.5"/>
<text text-anchor="middle" x="811.5" y="-215.9" font-family="Ubuntu Mono" font-size="12.00">str_utilities::r2strt</text>
</a>
</g>
</g>
<!-- Node62&#45;&gt;Node63 -->
<g id="edge9" class="edge"><title>Node62&#45;&gt;Node63</title>
<path fill="none" stroke="midnightblue" d="M686.014,-219C700.09,-219 715.156,-219 729.772,-219"/>
<polygon fill="midnightblue" stroke="midnightblue" points="729.802,-222.5 739.802,-219 729.802,-215.5 729.802,-222.5"/>
</g>
<!-- Node65&#45;&gt;Node59 -->
<g id="edge12" class="edge"><title>Node65&#45;&gt;Node59</title>
<path fill="none" stroke="midnightblue" d="M686.014,-304.808C702.043,-302.772 719.356,-300.574 735.828,-298.482"/>
<polygon fill="midnightblue" stroke="midnightblue" points="736.476,-301.928 745.956,-297.196 735.594,-294.984 736.476,-301.928"/>
</g>
<!-- Node66&#45;&gt;Node59 -->
<g id="edge14" class="edge"><title>Node66&#45;&gt;Node59</title>
<path fill="none" stroke="midnightblue" d="M667.684,-387.832C677.896,-383.449 688.498,-378.425 698,-373 728.783,-355.425 760.895,-330.712 782.893,-312.641"/>
<polygon fill="midnightblue" stroke="midnightblue" points="785.349,-315.151 790.805,-306.069 780.876,-309.766 785.349,-315.151"/>
</g>
<!-- Node67&#45;&gt;Node59 -->
<g id="edge16" class="edge"><title>Node67&#45;&gt;Node59</title>
<path fill="none" stroke="midnightblue" d="M482.278,-198.859C535.691,-180.313 628.487,-157.682 698,-192 721.594,-203.648 714.712,-221.102 734,-239 744.95,-249.161 758.193,-258.611 770.561,-266.498"/>
<polygon fill="midnightblue" stroke="midnightblue" points="769.023,-269.662 779.367,-271.953 772.709,-263.712 769.023,-269.662"/>
</g>
<!-- Node67&#45;&gt;Node62 -->
<g id="edge17" class="edge"><title>Node67&#45;&gt;Node62</title>
<path fill="none" stroke="midnightblue" d="M504.23,-217.079C517.321,-217.297 531.189,-217.528 544.597,-217.752"/>
<polygon fill="midnightblue" stroke="midnightblue" points="544.683,-221.253 554.74,-217.921 544.8,-214.254 544.683,-221.253"/>
</g>
<!-- Node67&#45;&gt;Node64 -->
<g id="edge18" class="edge"><title>Node67&#45;&gt;Node64</title>
<path fill="none" stroke="midnightblue" d="M500.234,-233.075C514.273,-237.006 529.154,-241.16 543,-245 552.064,-247.514 561.737,-250.181 571.048,-252.741"/>
<polygon fill="midnightblue" stroke="midnightblue" points="570.394,-256.191 580.964,-255.464 572.248,-249.441 570.394,-256.191"/>
</g>
<!-- Node67&#45;&gt;Node65 -->
<g id="edge19" class="edge"><title>Node67&#45;&gt;Node65</title>
<path fill="none" stroke="midnightblue" d="M492.146,-233.121C497.367,-235.736 502.422,-238.687 507,-242 527.47,-256.812 522.322,-271.48 543,-286 545.651,-287.862 548.443,-289.606 551.33,-291.241"/>
<polygon fill="midnightblue" stroke="midnightblue" points="549.733,-294.355 560.226,-295.818 552.935,-288.131 549.733,-294.355"/>
</g>
<!-- Node68&#45;&gt;Node61 -->
<g id="edge24" class="edge"><title>Node68&#45;&gt;Node61</title>
<path fill="none" stroke="midnightblue" d="M507.007,-94.1547C595.041,-98.5781 753.768,-107.613 889,-121 898.366,-121.927 908.178,-123.033 917.897,-124.211"/>
<polygon fill="midnightblue" stroke="midnightblue" points="917.613,-127.702 927.968,-125.46 918.475,-120.756 917.613,-127.702"/>
</g>
<!-- Node68&#45;&gt;Node69 -->
<g id="edge21" class="edge"><title>Node68&#45;&gt;Node69</title>
<path fill="none" stroke="midnightblue" d="M507.037,-74.866C526.312,-70.2615 547.056,-65.3061 565.414,-60.9205"/>
<polygon fill="midnightblue" stroke="midnightblue" points="566.431,-64.2762 575.344,-58.5484 564.804,-57.4678 566.431,-64.2762"/>
</g>
<!-- Node70 -->
<g id="node16" class="node"><title>Node70</title>
<g id="a_node16"><a xlink:href="namespacemessages.html#a82dddaab795b78b3d39e1ff1aab2f665" target="_top" xlink:title="Returns the memory usage in kilobytes. ">
<polygon fill="white" stroke="black" points="734,-40.5 734,-61.5 889,-61.5 889,-40.5 734,-40.5"/>
<text text-anchor="middle" x="811.5" y="-47.9" font-family="Ubuntu Mono" font-size="12.00">messages::get_mem_usage</text>
</a>
</g>
</g>
<!-- Node69&#45;&gt;Node70 -->
<g id="edge22" class="edge"><title>Node69&#45;&gt;Node70</title>
<path fill="none" stroke="midnightblue" d="M674.147,-48.8357C689.434,-49.0783 706.551,-49.35 723.356,-49.6168"/>
<polygon fill="midnightblue" stroke="midnightblue" points="723.706,-53.1227 733.761,-49.7819 723.817,-46.1236 723.706,-53.1227"/>
</g>
<!-- Node71 -->
<g id="node17" class="node"><title>Node71</title>
<g id="a_node17"><a xlink:href="namespacemessages.html#a61fd0b51b5e37d58fdc993c01792a3fd" target="_top" xlink:title="Returns the time. ">
<polygon fill="white" stroke="black" points="746,-0.5 746,-21.5 877,-21.5 877,-0.5 746,-0.5"/>
<text text-anchor="middle" x="811.5" y="-7.9" font-family="Ubuntu Mono" font-size="12.00">messages::get_clock</text>
</a>
</g>
</g>
<!-- Node69&#45;&gt;Node71 -->
<g id="edge23" class="edge"><title>Node69&#45;&gt;Node71</title>
<path fill="none" stroke="midnightblue" d="M674.147,-37.6934C696.702,-33.2779 723.244,-28.0819 746.887,-23.4534"/>
<polygon fill="midnightblue" stroke="midnightblue" points="747.681,-26.8645 756.822,-21.5084 746.336,-19.9949 747.681,-26.8645"/>
</g>
</g>
</svg>
