<?xml version="1.0" encoding="UTF-8" standalone="no"?>
<!DOCTYPE svg PUBLIC "-//W3C//DTD SVG 1.1//EN"
 "http://www.w3.org/Graphics/SVG/1.1/DTD/svg11.dtd">
<!-- Generated by graphviz version 2.38.0 (20140413.2041)
 -->
<!-- Title: messages::print_hello Pages: 1 -->
<svg width="330pt" height="110pt"
 viewBox="0.00 0.00 330.00 110.00" xmlns="http://www.w3.org/2000/svg" xmlns:xlink="http://www.w3.org/1999/xlink">
<g id="graph0" class="graph" transform="scale(1 1) rotate(0) translate(4 106)">
<title>messages::print_hello</title>
<polygon fill="white" stroke="none" points="-4,4 -4,-106 326,-106 326,4 -4,4"/>
<!-- Node583 -->
<g id="node1" class="node"><title>Node583</title>
<polygon fill="#bfbfbf" stroke="black" points="0,-40.5 0,-61.5 143,-61.5 143,-40.5 0,-40.5"/>
<text text-anchor="middle" x="71.5" y="-47.9" font-family="Ubuntu Mono" font-size="12.00">messages::print_hello</text>
</g>
<!-- Node584 -->
<g id="node2" class="node"><title>Node584</title>
<g id="a_node2"><a xlink:href="namespacemessages.html#a61fd0b51b5e37d58fdc993c01792a3fd" target="_top" xlink:title="Returns the time. ">
<polygon fill="white" stroke="black" points="185,-80.5 185,-101.5 316,-101.5 316,-80.5 185,-80.5"/>
<text text-anchor="middle" x="250.5" y="-87.9" font-family="Ubuntu Mono" font-size="12.00">messages::get_clock</text>
</a>
</g>
</g>
<!-- Node583&#45;&gt;Node584 -->
<g id="edge1" class="edge"><title>Node583&#45;&gt;Node584</title>
<path fill="none" stroke="midnightblue" d="M119.005,-61.5095C141.679,-66.6337 169.142,-72.8399 193.013,-78.2345"/>
<polygon fill="midnightblue" stroke="midnightblue" points="192.473,-81.7008 202.999,-80.4913 194.016,-74.873 192.473,-81.7008"/>
</g>
<!-- Node585 -->
<g id="node3" class="node"><title>Node585</title>
<g id="a_node3"><a xlink:href="namespacestr__utilities.html#ac778d706b2e021672618939ab58fdd32" target="_top" xlink:title="Convert a real (double) to string. ">
<polygon fill="white" stroke="black" points="179,-40.5 179,-61.5 322,-61.5 322,-40.5 179,-40.5"/>
<text text-anchor="middle" x="250.5" y="-47.9" font-family="Ubuntu Mono" font-size="12.00">str_utilities::r2strt</text>
</a>
</g>
</g>
<!-- Node583&#45;&gt;Node585 -->
<g id="edge2" class="edge"><title>Node583&#45;&gt;Node585</title>
<path fill="none" stroke="midnightblue" d="M143.218,-51C151.57,-51 160.142,-51 168.62,-51"/>
<polygon fill="midnightblue" stroke="midnightblue" points="168.894,-54.5001 178.894,-51 168.894,-47.5001 168.894,-54.5001"/>
</g>
<!-- Node586 -->
<g id="node4" class="node"><title>Node586</title>
<g id="a_node4"><a xlink:href="namespacestr__utilities.html#a0b97e51770725a3e98ed393d26681414" target="_top" xlink:title="Convert an integer to string. ">
<polygon fill="white" stroke="black" points="182,-0.5 182,-21.5 319,-21.5 319,-0.5 182,-0.5"/>
<text text-anchor="middle" x="250.5" y="-7.9" font-family="Ubuntu Mono" font-size="12.00">str_utilities::i2str</text>
</a>
</g>
</g>
<!-- Node583&#45;&gt;Node586 -->
<g id="edge3" class="edge"><title>Node583&#45;&gt;Node586</title>
<path fill="none" stroke="midnightblue" d="M119.005,-40.4905C141.679,-35.3663 169.142,-29.1601 193.013,-23.7655"/>
<polygon fill="midnightblue" stroke="midnightblue" points="194.016,-27.127 202.999,-21.5087 192.473,-20.2992 194.016,-27.127"/>
</g>
</g>
</svg>
