<?xml version="1.0" encoding="UTF-8" standalone="no"?>
<!DOCTYPE svg PUBLIC "-//W3C//DTD SVG 1.1//EN"
 "http://www.w3.org/Graphics/SVG/1.1/DTD/svg11.dtd">
<!-- Generated by graphviz version 2.43.0 (0)
 -->
<!-- Title: x_vars::set_nn_mod Pages: 1 -->
<svg width="314pt" height="84pt"
 viewBox="0.00 0.00 314.00 83.50" xmlns="http://www.w3.org/2000/svg" xmlns:xlink="http://www.w3.org/1999/xlink">
<g id="graph0" class="graph" transform="scale(1 1) rotate(0) translate(4 79.5)">
<title>x_vars::set_nn_mod</title>
<polygon fill="white" stroke="transparent" points="-4,4 -4,-79.5 310,-79.5 310,4 -4,4"/>
<!-- Node1 -->
<g id="node1" class="node">
<title>Node1</title>
<g id="a_node1"><a xlink:title="Sets number of entries for tensorial perturbation variables.">
<polygon fill="#bfbfbf" stroke="black" points="172,-30 172,-51 306,-51 306,-30 172,-30"/>
<text text-anchor="middle" x="239" y="-37.4" font-family="Ubuntu Mono" font-size="12.00">x_vars::set_nn_mod</text>
</a>
</g>
</g>
<!-- Node2 -->
<g id="node2" class="node">
<title>Node2</title>
<g id="a_node2"><a xlink:href="namespacex__vars.html#a5cb61bfd7fbdae7bae2ec10b63160d74" target="_top" xlink:title="Initializes a tensorial perturbation.">
<polygon fill="white" stroke="black" points="14.5,-54 14.5,-75 121.5,-75 121.5,-54 14.5,-54"/>
<text text-anchor="middle" x="68" y="-61.4" font-family="Ubuntu Mono" font-size="12.00">x_vars::init_x_2</text>
</a>
</g>
</g>
<!-- Node1&#45;&gt;Node2 -->
<g id="edge1" class="edge">
<title>Node1&#45;&gt;Node2</title>
<path fill="none" stroke="midnightblue" d="M161.45,-51.37C147.96,-53.29 134.19,-55.24 121.54,-57.04"/>
<polygon fill="midnightblue" stroke="midnightblue" points="162.28,-54.79 171.69,-49.92 161.3,-47.86 162.28,-54.79"/>
</g>
<!-- Node3 -->
<g id="node3" class="node">
<title>Node3</title>
<g id="a_node3"><a xlink:href="interfacex__ops_1_1print__output__x.html#a0600bd1f9ed6ec2ba0c748d52a932bc6" target="_top" xlink:title="tensorial version">
<polygon fill="white" stroke="black" points="0,-0.5 0,-34.5 136,-34.5 136,-0.5 0,-0.5"/>
<text text-anchor="start" x="8" y="-20.9" font-family="Ubuntu Mono" font-size="12.00">x_ops::print_output</text>
<text text-anchor="middle" x="68" y="-7.9" font-family="Ubuntu Mono" font-size="12.00">_x::print_output_x_2</text>
</a>
</g>
</g>
<!-- Node1&#45;&gt;Node3 -->
<g id="edge2" class="edge">
<title>Node1&#45;&gt;Node3</title>
<path fill="none" stroke="midnightblue" d="M161.77,-30.13C153.25,-28.97 144.62,-27.79 136.23,-26.65"/>
<polygon fill="midnightblue" stroke="midnightblue" points="161.31,-33.6 171.69,-31.48 162.26,-26.66 161.31,-33.6"/>
</g>
</g>
</svg>
