<?xml version="1.0" encoding="UTF-8" standalone="no"?>
<!DOCTYPE svg PUBLIC "-//W3C//DTD SVG 1.1//EN"
 "http://www.w3.org/Graphics/SVG/1.1/DTD/svg11.dtd">
<!-- Generated by graphviz version 2.38.0 (20140413.2041)
 -->
<!-- Title: eq_ops::calc_derived_q Pages: 1 -->
<svg width="1076pt" height="280pt"
 viewBox="0.00 0.00 1076.00 280.00" xmlns="http://www.w3.org/2000/svg" xmlns:xlink="http://www.w3.org/1999/xlink">
<g id="graph0" class="graph" transform="scale(1 1) rotate(0) translate(4 275.995)">
<title>eq_ops::calc_derived_q</title>
<polygon fill="white" stroke="none" points="-4,4 -4,-275.995 1072,-275.995 1072,4 -4,4"/>
<!-- Node20 -->
<g id="node1" class="node"><title>Node20</title>
<polygon fill="#bfbfbf" stroke="black" points="0,-176.279 0,-197.279 149,-197.279 149,-176.279 0,-176.279"/>
<text text-anchor="middle" x="74.5" y="-183.679" font-family="Ubuntu Mono" font-size="12.00">eq_ops::calc_derived_q</text>
</g>
<!-- Node21 -->
<g id="node2" class="node"><title>Node21</title>
<g id="a_node2"><a xlink:href="namespacemessages.html#aa4a8d01563e92558e8a0875b075ec54c" target="_top" xlink:title="Write output to file identified by output_i. ">
<polygon fill="white" stroke="black" points="770,-119.279 770,-140.279 877,-140.279 877,-119.279 770,-119.279"/>
<text text-anchor="middle" x="823.5" y="-126.679" font-family="Ubuntu Mono" font-size="12.00">messages::writo</text>
</a>
</g>
</g>
<!-- Node20&#45;&gt;Node21 -->
<g id="edge1" class="edge"><title>Node20&#45;&gt;Node21</title>
<path fill="none" stroke="midnightblue" d="M101.653,-197.333C123.591,-205.825 155.913,-217.505 185,-224.779 345.09,-264.814 393.53,-289.826 555,-255.779 651.101,-235.515 752.965,-175.166 798.304,-145.964"/>
<polygon fill="midnightblue" stroke="midnightblue" points="800.383,-148.787 806.85,-140.395 796.561,-142.922 800.383,-148.787"/>
</g>
<!-- Node24 -->
<g id="node5" class="node"><title>Node24</title>
<g id="a_node5"><a xlink:href="namespacemessages.html#a6e6bfb084063e4cc91ee86e542043302" target="_top" xlink:title="Increases/decreases lvl of output. ">
<polygon fill="white" stroke="black" points="606,-14.2787 606,-35.2787 719,-35.2787 719,-14.2787 606,-14.2787"/>
<text text-anchor="middle" x="662.5" y="-21.6787" font-family="Ubuntu Mono" font-size="12.00">messages::lvl_ud</text>
</a>
</g>
</g>
<!-- Node20&#45;&gt;Node24 -->
<g id="edge4" class="edge"><title>Node20&#45;&gt;Node24</title>
<path fill="none" stroke="midnightblue" d="M88.1403,-176.23C128.042,-143.709 256.148,-45.1769 382,-11.7787 457.297,8.20325 547.941,-1.95189 605.155,-12.3271"/>
<polygon fill="midnightblue" stroke="midnightblue" points="604.614,-15.7866 615.088,-14.1918 605.905,-8.90682 604.614,-15.7866"/>
</g>
<!-- Node25 -->
<g id="node6" class="node"><title>Node25</title>
<g id="a_node6"><a xlink:href="eq__ops_8f90.html#a369b73b541213d572d7197e0d549c014" target="_top" xlink:title="calc_derived_de_epar_hel">
<polygon fill="white" stroke="black" points="185,-147.279 185,-168.279 346,-168.279 346,-147.279 185,-147.279"/>
<text text-anchor="middle" x="265.5" y="-154.679" font-family="Ubuntu Mono" font-size="12.00">calc_derived_de_epar_hel</text>
</a>
</g>
</g>
<!-- Node20&#45;&gt;Node25 -->
<g id="edge6" class="edge"><title>Node20&#45;&gt;Node25</title>
<path fill="none" stroke="midnightblue" d="M144.001,-176.268C157.602,-174.181 171.982,-171.975 185.89,-169.841"/>
<polygon fill="midnightblue" stroke="midnightblue" points="186.562,-173.278 195.916,-168.302 185.501,-166.359 186.562,-173.278"/>
</g>
<!-- Node26 -->
<g id="node7" class="node"><title>Node26</title>
<g id="a_node7"><a xlink:href="namespacenum__utilities.html#a5ee3fbd1fe67d0deefc7194631389f2a" target="_top" xlink:title="Convert 2&#45;D coordinates (i,j) to the storage convention used in matrices. ">
<polygon fill="white" stroke="black" points="412,-225.279 412,-246.279 525,-246.279 525,-225.279 412,-225.279"/>
<text text-anchor="middle" x="468.5" y="-232.679" font-family="Ubuntu Mono" font-size="12.00">num_utilities::c</text>
</a>
</g>
</g>
<!-- Node20&#45;&gt;Node26 -->
<g id="edge16" class="edge"><title>Node20&#45;&gt;Node26</title>
<path fill="none" stroke="midnightblue" d="M149.232,-195.995C221.949,-205.085 332.051,-218.848 401.836,-227.571"/>
<polygon fill="midnightblue" stroke="midnightblue" points="401.473,-231.053 411.83,-228.82 402.342,-224.107 401.473,-231.053"/>
</g>
<!-- Node22 -->
<g id="node3" class="node"><title>Node22</title>
<g id="a_node3"><a xlink:href="namespacemessages.html#a82dddaab795b78b3d39e1ff1aab2f665" target="_top" xlink:title="Returns the memory usage in kilobytes. ">
<polygon fill="white" stroke="black" points="913,-139.279 913,-160.279 1068,-160.279 1068,-139.279 913,-139.279"/>
<text text-anchor="middle" x="990.5" y="-146.679" font-family="Ubuntu Mono" font-size="12.00">messages::get_mem_usage</text>
</a>
</g>
</g>
<!-- Node21&#45;&gt;Node22 -->
<g id="edge2" class="edge"><title>Node21&#45;&gt;Node22</title>
<path fill="none" stroke="midnightblue" d="M877.161,-136.162C885.452,-137.167 894.208,-138.228 903.025,-139.297"/>
<polygon fill="midnightblue" stroke="midnightblue" points="902.635,-142.775 912.984,-140.504 903.478,-135.826 902.635,-142.775"/>
</g>
<!-- Node23 -->
<g id="node4" class="node"><title>Node23</title>
<g id="a_node4"><a xlink:href="namespacemessages.html#a61fd0b51b5e37d58fdc993c01792a3fd" target="_top" xlink:title="Returns the time. ">
<polygon fill="white" stroke="black" points="925,-99.2787 925,-120.279 1056,-120.279 1056,-99.2787 925,-99.2787"/>
<text text-anchor="middle" x="990.5" y="-106.679" font-family="Ubuntu Mono" font-size="12.00">messages::get_clock</text>
</a>
</g>
</g>
<!-- Node21&#45;&gt;Node23 -->
<g id="edge3" class="edge"><title>Node21&#45;&gt;Node23</title>
<path fill="none" stroke="midnightblue" d="M877.161,-123.396C889.142,-121.943 902.094,-120.373 914.797,-118.834"/>
<polygon fill="midnightblue" stroke="midnightblue" points="915.402,-122.286 924.908,-117.608 914.56,-115.337 915.402,-122.286"/>
</g>
<!-- Node24&#45;&gt;Node21 -->
<g id="edge5" class="edge"><title>Node24&#45;&gt;Node21</title>
<path fill="none" stroke="midnightblue" d="M702.056,-35.383C712.788,-39.1402 724.186,-43.9239 734,-49.7787 762.536,-66.802 790.062,-93.9071 806.638,-111.772"/>
<polygon fill="midnightblue" stroke="midnightblue" points="804.13,-114.217 813.447,-119.261 809.309,-109.508 804.13,-114.217"/>
</g>
<!-- Node25&#45;&gt;Node21 -->
<g id="edge10" class="edge"><title>Node25&#45;&gt;Node21</title>
<path fill="none" stroke="midnightblue" d="M316.286,-168.323C336.568,-172.114 360.305,-175.914 382,-177.779 458.607,-184.362 478.414,-184.596 555,-177.779 629.395,-171.157 714.066,-154.371 767.86,-142.523"/>
<polygon fill="midnightblue" stroke="midnightblue" points="768.863,-145.886 777.865,-140.298 767.343,-139.052 768.863,-145.886"/>
</g>
<!-- Node25&#45;&gt;Node24 -->
<g id="edge11" class="edge"><title>Node25&#45;&gt;Node24</title>
<path fill="none" stroke="midnightblue" d="M273.288,-147.123C289.028,-123.487 330.626,-66.9287 382,-43.7787 450.079,-13.1009 537.03,-12.3862 595.73,-16.729"/>
<polygon fill="midnightblue" stroke="midnightblue" points="595.738,-20.241 605.988,-17.5606 596.303,-13.2639 595.738,-20.241"/>
</g>
<!-- Node25&#45;&gt;Node26 -->
<g id="edge7" class="edge"><title>Node25&#45;&gt;Node26</title>
<path fill="none" stroke="midnightblue" d="M286.98,-168.282C309.773,-179.709 347.897,-198.046 382,-210.779 393.319,-215.005 405.692,-218.98 417.422,-222.463"/>
<polygon fill="midnightblue" stroke="midnightblue" points="416.507,-225.842 427.087,-225.269 418.459,-219.12 416.507,-225.842"/>
</g>
<!-- Node27 -->
<g id="node8" class="node"><title>Node27</title>
<g id="a_node8"><a xlink:href="namespacegrid__utilities.html#a67001ff9bbcad707aacf17f90a748d90" target="_top" xlink:title="Trim a grid, removing any overlap between the different regions. ">
<polygon fill="white" stroke="black" points="385,-147.279 385,-168.279 552,-168.279 552,-147.279 385,-147.279"/>
<text text-anchor="middle" x="468.5" y="-154.679" font-family="Ubuntu Mono" font-size="12.00">grid_utilities::trim_grid</text>
</a>
</g>
</g>
<!-- Node25&#45;&gt;Node27 -->
<g id="edge8" class="edge"><title>Node25&#45;&gt;Node27</title>
<path fill="none" stroke="midnightblue" d="M346.229,-157.779C355.566,-157.779 365.153,-157.779 374.649,-157.779"/>
<polygon fill="midnightblue" stroke="midnightblue" points="374.9,-161.279 384.9,-157.779 374.9,-154.279 374.9,-161.279"/>
</g>
<!-- Node28 -->
<g id="node9" class="node"><title>Node28</title>
<g id="a_node9"><a xlink:href="namespacegrid__utilities.html#a39e7cd9b8f173994358dbdd6b57827e1" target="_top" xlink:title="Calculates , &#160;and &#160;on a grid grid_XYZ, determined through its E(quilibrium) coordinates. ">
<polygon fill="white" stroke="black" points="400,-93.7787 400,-127.779 537,-127.779 537,-93.7787 400,-93.7787"/>
<text text-anchor="start" x="408" y="-114.179" font-family="Ubuntu Mono" font-size="12.00">grid_utilities::calc</text>
<text text-anchor="middle" x="468.5" y="-101.179" font-family="Ubuntu Mono" font-size="12.00">_xyz_grid</text>
</a>
</g>
</g>
<!-- Node25&#45;&gt;Node28 -->
<g id="edge9" class="edge"><title>Node25&#45;&gt;Node28</title>
<path fill="none" stroke="midnightblue" d="M311.608,-147.231C334.598,-141.855 363.212,-135.165 389.626,-128.988"/>
<polygon fill="midnightblue" stroke="midnightblue" points="390.685,-132.335 399.626,-126.65 389.091,-125.519 390.685,-132.335"/>
</g>
<!-- Node29 -->
<g id="node10" class="node"><title>Node29</title>
<g id="a_node10"><a xlink:href="namespaceoutput__ops.html#ab0d14194d01ab0534562eab50b37a57a" target="_top" xlink:title="Takes two input vectors and plots these as well as the relative and absolute difference in a HDF5 fil...">
<polygon fill="white" stroke="black" points="382,-53.2787 382,-74.2787 555,-74.2787 555,-53.2787 382,-53.2787"/>
<text text-anchor="middle" x="468.5" y="-60.6787" font-family="Ubuntu Mono" font-size="12.00">output_ops::plot_diff_hdf5</text>
</a>
</g>
</g>
<!-- Node25&#45;&gt;Node29 -->
<g id="edge12" class="edge"><title>Node25&#45;&gt;Node29</title>
<path fill="none" stroke="midnightblue" d="M279.865,-147.033C300.541,-130.934 342.075,-100.649 382,-83.7787 387.806,-81.3256 393.966,-79.1431 400.215,-77.208"/>
<polygon fill="midnightblue" stroke="midnightblue" points="401.431,-80.5001 410.07,-74.3671 399.492,-73.774 401.431,-80.5001"/>
</g>
<!-- Node29&#45;&gt;Node21 -->
<g id="edge13" class="edge"><title>Node29&#45;&gt;Node21</title>
<path fill="none" stroke="midnightblue" d="M555.043,-61.0199C607.617,-61.4948 675.816,-66.0507 734,-82.7787 757.277,-89.4709 781.41,-102.784 798.584,-113.538"/>
<polygon fill="midnightblue" stroke="midnightblue" points="797.058,-116.718 807.36,-119.191 800.848,-110.833 797.058,-116.718"/>
</g>
<!-- Node29&#45;&gt;Node24 -->
<g id="edge14" class="edge"><title>Node29&#45;&gt;Node24</title>
<path fill="none" stroke="midnightblue" d="M521.205,-53.2762C545.424,-48.3566 574.461,-42.4586 599.819,-37.3078"/>
<polygon fill="midnightblue" stroke="midnightblue" points="600.599,-40.7207 609.703,-35.3001 599.206,-33.8608 600.599,-40.7207"/>
</g>
<!-- Node30 -->
<g id="node11" class="node"><title>Node30</title>
<g id="a_node11"><a xlink:href="namespacestr__utilities.html#ac778d706b2e021672618939ab58fdd32" target="_top" xlink:title="Convert a real (double) to string. ">
<polygon fill="white" stroke="black" points="591,-92.2787 591,-113.279 734,-113.279 734,-92.2787 591,-92.2787"/>
<text text-anchor="middle" x="662.5" y="-99.6787" font-family="Ubuntu Mono" font-size="12.00">str_utilities::r2strt</text>
</a>
</g>
</g>
<!-- Node29&#45;&gt;Node30 -->
<g id="edge15" class="edge"><title>Node29&#45;&gt;Node30</title>
<path fill="none" stroke="midnightblue" d="M521.205,-74.2813C545.424,-79.2009 574.461,-85.0989 599.819,-90.2497"/>
<polygon fill="midnightblue" stroke="midnightblue" points="599.206,-93.6967 609.703,-92.2574 600.599,-86.8368 599.206,-93.6967"/>
</g>
</g>
</svg>
