<?xml version="1.0" encoding="UTF-8" standalone="no"?>
<!DOCTYPE svg PUBLIC "-//W3C//DTD SVG 1.1//EN"
 "http://www.w3.org/Graphics/SVG/1.1/DTD/svg11.dtd">
<!-- Generated by graphviz version 2.38.0 (20140413.2041)
 -->
<!-- Title: eq_ops::delta_r_plot Pages: 1 -->
<svg width="1213pt" height="450pt"
 viewBox="0.00 0.00 1213.00 450.43" xmlns="http://www.w3.org/2000/svg" xmlns:xlink="http://www.w3.org/1999/xlink">
<g id="graph0" class="graph" transform="scale(1 1) rotate(0) translate(4 446.431)">
<title>eq_ops::delta_r_plot</title>
<polygon fill="white" stroke="none" points="-4,4 -4,-446.431 1209,-446.431 1209,4 -4,4"/>
<!-- Node80 -->
<g id="node1" class="node"><title>Node80</title>
<polygon fill="#bfbfbf" stroke="black" points="0,-198.5 0,-219.5 137,-219.5 137,-198.5 0,-198.5"/>
<text text-anchor="middle" x="68.5" y="-205.9" font-family="Ubuntu Mono" font-size="12.00">eq_ops::delta_r_plot</text>
</g>
<!-- Node81 -->
<g id="node2" class="node"><title>Node81</title>
<g id="a_node2"><a xlink:href="namespacegrid__utilities.html#ad3d9386b9abcb1a7e17369a1b3a3750d" target="_top" xlink:title="Calculates contra&#45; and covariant components of a vector in multiple coordinate systems. ">
<polygon fill="white" stroke="black" points="176,-238 176,-272 313,-272 313,-238 176,-238"/>
<text text-anchor="start" x="184" y="-258.4" font-family="Ubuntu Mono" font-size="12.00">grid_utilities::calc</text>
<text text-anchor="middle" x="244.5" y="-245.4" font-family="Ubuntu Mono" font-size="12.00">_vec_comp</text>
</a>
</g>
</g>
<!-- Node80&#45;&gt;Node81 -->
<g id="edge1" class="edge"><title>Node80&#45;&gt;Node81</title>
<path fill="none" stroke="midnightblue" d="M109.419,-219.553C127.095,-224.226 148.481,-229.88 168.932,-235.287"/>
<polygon fill="midnightblue" stroke="midnightblue" points="168.313,-238.743 178.876,-237.915 170.103,-231.976 168.313,-238.743"/>
</g>
<!-- Node82 -->
<g id="node3" class="node"><title>Node82</title>
<g id="a_node3"><a xlink:href="namespacenum__utilities.html#a5ee3fbd1fe67d0deefc7194631389f2a" target="_top" xlink:title="Convert 2&#45;D coordinates (i,j) to the storage convention used in matrices. ">
<polygon fill="white" stroke="black" points="379,-368.5 379,-389.5 492,-389.5 492,-368.5 379,-368.5"/>
<text text-anchor="middle" x="435.5" y="-375.9" font-family="Ubuntu Mono" font-size="12.00">num_utilities::c</text>
</a>
</g>
</g>
<!-- Node80&#45;&gt;Node82 -->
<g id="edge26" class="edge"><title>Node80&#45;&gt;Node82</title>
<path fill="none" stroke="midnightblue" d="M82.984,-219.71C102.206,-234.662 138.939,-262.081 173,-281 248.709,-323.053 270.006,-330.121 352,-358 360.337,-360.835 369.261,-363.487 378.049,-365.889"/>
<polygon fill="midnightblue" stroke="midnightblue" points="377.311,-369.314 387.873,-368.49 379.102,-362.547 377.311,-369.314"/>
</g>
<!-- Node84 -->
<g id="node5" class="node"><title>Node84</title>
<g id="a_node5"><a xlink:href="namespacemessages.html#aa4a8d01563e92558e8a0875b075ec54c" target="_top" xlink:title="Write output to file identified by output_i. ">
<polygon fill="white" stroke="black" points="907,-167.5 907,-188.5 1014,-188.5 1014,-167.5 907,-167.5"/>
<text text-anchor="middle" x="960.5" y="-174.9" font-family="Ubuntu Mono" font-size="12.00">messages::writo</text>
</a>
</g>
</g>
<!-- Node80&#45;&gt;Node84 -->
<g id="edge27" class="edge"><title>Node80&#45;&gt;Node84</title>
<path fill="none" stroke="midnightblue" d="M74.593,-198.366C87.3788,-172.827 123.393,-107.665 173,-74 272.945,-6.17404 313.714,-0 434.5,-0 434.5,-0 434.5,-0 639.5,-0 770.237,-0 897.433,-114.87 942.407,-160.053"/>
<polygon fill="midnightblue" stroke="midnightblue" points="940.104,-162.704 949.602,-167.398 945.104,-157.805 940.104,-162.704"/>
</g>
<!-- Node87 -->
<g id="node8" class="node"><title>Node87</title>
<g id="a_node8"><a xlink:href="namespacestr__utilities.html#a0b97e51770725a3e98ed393d26681414" target="_top" xlink:title="Convert an integer to string. ">
<polygon fill="white" stroke="black" points="570,-314.5 570,-335.5 707,-335.5 707,-314.5 570,-314.5"/>
<text text-anchor="middle" x="638.5" y="-321.9" font-family="Ubuntu Mono" font-size="12.00">str_utilities::i2str</text>
</a>
</g>
</g>
<!-- Node80&#45;&gt;Node87 -->
<g id="edge29" class="edge"><title>Node80&#45;&gt;Node87</title>
<path fill="none" stroke="midnightblue" d="M76.2523,-219.622C91.1396,-242.274 128.981,-295.8 173,-327 242.959,-376.586 267.813,-382.703 352,-399 424.869,-413.106 447.65,-419.448 519,-399 557.662,-387.92 595.955,-360.147 618.137,-341.955"/>
<polygon fill="midnightblue" stroke="midnightblue" points="620.409,-344.617 625.817,-335.506 615.908,-339.257 620.409,-344.617"/>
</g>
<!-- Node88 -->
<g id="node9" class="node"><title>Node88</title>
<g id="a_node9"><a xlink:href="namespacemessages.html#a6e6bfb084063e4cc91ee86e542043302" target="_top" xlink:title="Increases/decreases lvl of output. ">
<polygon fill="white" stroke="black" points="758,-199.5 758,-220.5 871,-220.5 871,-199.5 758,-199.5"/>
<text text-anchor="middle" x="814.5" y="-206.9" font-family="Ubuntu Mono" font-size="12.00">messages::lvl_ud</text>
</a>
</g>
</g>
<!-- Node80&#45;&gt;Node88 -->
<g id="edge28" class="edge"><title>Node80&#45;&gt;Node88</title>
<path fill="none" stroke="midnightblue" d="M73.062,-219.85C83.3778,-249.513 116.211,-332.503 173,-374 298.254,-465.526 366.292,-447.308 519,-420 613.681,-403.069 646.284,-404.314 722,-345 762.275,-313.45 791.281,-259.18 804.861,-229.982"/>
<polygon fill="midnightblue" stroke="midnightblue" points="808.091,-231.333 809.014,-220.778 801.71,-228.454 808.091,-231.333"/>
</g>
<!-- Node89 -->
<g id="node10" class="node"><title>Node89</title>
<g id="a_node10"><a xlink:href="namespacegrid__utilities.html#a67001ff9bbcad707aacf17f90a748d90" target="_top" xlink:title="Trim a grid, removing any overlap between the different regions. ">
<polygon fill="white" stroke="black" points="352,-198.5 352,-219.5 519,-219.5 519,-198.5 352,-198.5"/>
<text text-anchor="middle" x="435.5" y="-205.9" font-family="Ubuntu Mono" font-size="12.00">grid_utilities::trim_grid</text>
</a>
</g>
</g>
<!-- Node80&#45;&gt;Node89 -->
<g id="edge23" class="edge"><title>Node80&#45;&gt;Node89</title>
<path fill="none" stroke="midnightblue" d="M137.298,-209C194.832,-209 277.943,-209 341.656,-209"/>
<polygon fill="midnightblue" stroke="midnightblue" points="341.708,-212.5 351.708,-209 341.708,-205.5 341.708,-212.5"/>
</g>
<!-- Node90 -->
<g id="node11" class="node"><title>Node90</title>
<g id="a_node11"><a xlink:href="namespacegrid__utilities.html#a39e7cd9b8f173994358dbdd6b57827e1" target="_top" xlink:title="Calculates , &#160;and &#160;on a grid grid_XYZ, determined through its E(quilibrium) coordinates. ">
<polygon fill="white" stroke="black" points="367,-145 367,-179 504,-179 504,-145 367,-145"/>
<text text-anchor="start" x="375" y="-165.4" font-family="Ubuntu Mono" font-size="12.00">grid_utilities::calc</text>
<text text-anchor="middle" x="435.5" y="-152.4" font-family="Ubuntu Mono" font-size="12.00">_xyz_grid</text>
</a>
</g>
</g>
<!-- Node80&#45;&gt;Node90 -->
<g id="edge22" class="edge"><title>Node80&#45;&gt;Node90</title>
<path fill="none" stroke="midnightblue" d="M137.298,-200.27C199.431,-192.269 291.393,-180.428 356.539,-172.039"/>
<polygon fill="midnightblue" stroke="midnightblue" points="357.285,-175.472 366.756,-170.723 356.391,-168.529 357.285,-175.472"/>
</g>
<!-- Node91 -->
<g id="node12" class="node"><title>Node91</title>
<g id="a_node12"><a xlink:href="namespaceoutput__ops.html#a50bfbb88cc91805469353c3ff47b3e2e" target="_top" xlink:title="Use external program to draw a plot. ">
<polygon fill="white" stroke="black" points="370,-104.5 370,-125.5 501,-125.5 501,-104.5 370,-104.5"/>
<text text-anchor="middle" x="435.5" y="-111.9" font-family="Ubuntu Mono" font-size="12.00">output_ops::draw_ex</text>
</a>
</g>
</g>
<!-- Node80&#45;&gt;Node91 -->
<g id="edge30" class="edge"><title>Node80&#45;&gt;Node91</title>
<path fill="none" stroke="midnightblue" d="M99.1709,-198.449C119.744,-191.332 147.855,-181.999 173,-175 240.45,-156.226 318.846,-138.813 372.08,-127.636"/>
<polygon fill="midnightblue" stroke="midnightblue" points="372.976,-131.024 382.049,-125.554 371.545,-124.172 372.976,-131.024"/>
</g>
<!-- Node95 -->
<g id="node16" class="node"><title>Node95</title>
<g id="a_node16"><a xlink:href="namespacegrid__utilities.html#a0854b2d6cc61a31f68b4afe7304077a9" target="_top" xlink:title="calculates the cosine and sine mode numbers of a function defined on a non&#45;regular grid...">
<polygon fill="white" stroke="black" points="173,-83.5 173,-104.5 316,-104.5 316,-83.5 173,-83.5"/>
<text text-anchor="middle" x="244.5" y="-90.9" font-family="Ubuntu Mono" font-size="12.00">grid_utilities::nufft</text>
</a>
</g>
</g>
<!-- Node80&#45;&gt;Node95 -->
<g id="edge24" class="edge"><title>Node80&#45;&gt;Node95</title>
<path fill="none" stroke="midnightblue" d="M79.0699,-198.394C96.2403,-179.929 134.13,-141.684 173,-119 180.097,-114.858 187.992,-111.237 195.858,-108.131"/>
<polygon fill="midnightblue" stroke="midnightblue" points="197.223,-111.358 205.382,-104.599 194.789,-104.795 197.223,-111.358"/>
</g>
<!-- Node81&#45;&gt;Node82 -->
<g id="edge2" class="edge"><title>Node81&#45;&gt;Node82</title>
<path fill="none" stroke="midnightblue" d="M262.251,-272.137C289.513,-299.882 341.499,-352.14 352,-358 357.421,-361.025 363.283,-363.622 369.297,-365.851"/>
<polygon fill="midnightblue" stroke="midnightblue" points="368.235,-369.187 378.829,-369.059 370.468,-362.552 368.235,-369.187"/>
</g>
<!-- Node83 -->
<g id="node4" class="node"><title>Node83</title>
<g id="a_node4"><a xlink:href="namespacevmec__utilities.html#ac699116fc25fdea3e28e488513d97c87" target="_top" xlink:title="Calculate the trigonometric cosine and sine factors. ">
<polygon fill="white" stroke="black" points="367,-315 367,-349 504,-349 504,-315 367,-315"/>
<text text-anchor="start" x="375" y="-335.4" font-family="Ubuntu Mono" font-size="12.00">vmec_utilities::calc</text>
<text text-anchor="middle" x="435.5" y="-322.4" font-family="Ubuntu Mono" font-size="12.00">_trigon_factors</text>
</a>
</g>
</g>
<!-- Node81&#45;&gt;Node83 -->
<g id="edge3" class="edge"><title>Node81&#45;&gt;Node83</title>
<path fill="none" stroke="midnightblue" d="M285.085,-272.056C305.086,-280.59 329.768,-290.994 352,-300 361.184,-303.72 370.977,-307.597 380.49,-311.316"/>
<polygon fill="midnightblue" stroke="midnightblue" points="379.287,-314.604 389.876,-314.97 381.827,-308.081 379.287,-314.604"/>
</g>
<!-- Node81&#45;&gt;Node84 -->
<g id="edge8" class="edge"><title>Node81&#45;&gt;Node84</title>
<path fill="none" stroke="midnightblue" d="M313.256,-263.803C430.264,-276.505 676.366,-292.16 871,-230 895.575,-222.151 920.657,-206.551 937.813,-194.476"/>
<polygon fill="midnightblue" stroke="midnightblue" points="939.966,-197.238 946.018,-188.542 935.864,-191.566 939.966,-197.238"/>
</g>
<!-- Node81&#45;&gt;Node88 -->
<g id="edge9" class="edge"><title>Node81&#45;&gt;Node88</title>
<path fill="none" stroke="midnightblue" d="M313.078,-251.626C405.532,-246.712 576.574,-236.558 722,-222 730.364,-221.163 739.144,-220.164 747.817,-219.107"/>
<polygon fill="midnightblue" stroke="midnightblue" points="748.429,-222.557 757.918,-217.843 747.561,-215.611 748.429,-222.557"/>
</g>
<!-- Node81&#45;&gt;Node89 -->
<g id="edge11" class="edge"><title>Node81&#45;&gt;Node89</title>
<path fill="none" stroke="midnightblue" d="M313.2,-238.523C335.602,-233.07 360.196,-227.085 381.347,-221.937"/>
<polygon fill="midnightblue" stroke="midnightblue" points="382.226,-225.325 391.115,-219.559 380.57,-218.524 382.226,-225.325"/>
</g>
<!-- Node81&#45;&gt;Node90 -->
<g id="edge12" class="edge"><title>Node81&#45;&gt;Node90</title>
<path fill="none" stroke="midnightblue" d="M269.523,-237.793C290.519,-223.33 322.221,-202.858 352,-189 356.868,-186.735 361.978,-184.577 367.17,-182.541"/>
<polygon fill="midnightblue" stroke="midnightblue" points="368.437,-185.804 376.567,-179.011 365.975,-179.251 368.437,-185.804"/>
</g>
<!-- Node81&#45;&gt;Node91 -->
<g id="edge13" class="edge"><title>Node81&#45;&gt;Node91</title>
<path fill="none" stroke="midnightblue" d="M255.884,-237.7C272.664,-211.301 308.315,-161.268 352,-135 355.454,-132.923 359.111,-131.062 362.888,-129.394"/>
<polygon fill="midnightblue" stroke="midnightblue" points="364.448,-132.542 372.48,-125.633 361.892,-126.025 364.448,-132.542"/>
</g>
<!-- Node83&#45;&gt;Node84 -->
<g id="edge4" class="edge"><title>Node83&#45;&gt;Node84</title>
<path fill="none" stroke="midnightblue" d="M504.317,-346.977C596.426,-363.231 762.057,-377.49 871,-300 908.815,-273.103 936.708,-224.924 950.279,-197.857"/>
<polygon fill="midnightblue" stroke="midnightblue" points="953.552,-199.13 954.77,-188.605 947.255,-196.073 953.552,-199.13"/>
</g>
<!-- Node83&#45;&gt;Node87 -->
<g id="edge7" class="edge"><title>Node83&#45;&gt;Node87</title>
<path fill="none" stroke="midnightblue" d="M504.269,-329.64C522.059,-329.02 541.385,-328.347 559.657,-327.711"/>
<polygon fill="midnightblue" stroke="midnightblue" points="559.811,-331.208 569.683,-327.362 559.567,-324.212 559.811,-331.208"/>
</g>
<!-- Node85 -->
<g id="node6" class="node"><title>Node85</title>
<g id="a_node6"><a xlink:href="namespacemessages.html#a82dddaab795b78b3d39e1ff1aab2f665" target="_top" xlink:title="Returns the memory usage in kilobytes. ">
<polygon fill="white" stroke="black" points="1050,-187.5 1050,-208.5 1205,-208.5 1205,-187.5 1050,-187.5"/>
<text text-anchor="middle" x="1127.5" y="-194.9" font-family="Ubuntu Mono" font-size="12.00">messages::get_mem_usage</text>
</a>
</g>
</g>
<!-- Node84&#45;&gt;Node85 -->
<g id="edge5" class="edge"><title>Node84&#45;&gt;Node85</title>
<path fill="none" stroke="midnightblue" d="M1014.16,-184.383C1022.45,-185.388 1031.21,-186.449 1040.03,-187.518"/>
<polygon fill="midnightblue" stroke="midnightblue" points="1039.64,-190.996 1049.98,-188.725 1040.48,-184.047 1039.64,-190.996"/>
</g>
<!-- Node86 -->
<g id="node7" class="node"><title>Node86</title>
<g id="a_node7"><a xlink:href="namespacemessages.html#a61fd0b51b5e37d58fdc993c01792a3fd" target="_top" xlink:title="Returns the time. ">
<polygon fill="white" stroke="black" points="1062,-147.5 1062,-168.5 1193,-168.5 1193,-147.5 1062,-147.5"/>
<text text-anchor="middle" x="1127.5" y="-154.9" font-family="Ubuntu Mono" font-size="12.00">messages::get_clock</text>
</a>
</g>
</g>
<!-- Node84&#45;&gt;Node86 -->
<g id="edge6" class="edge"><title>Node84&#45;&gt;Node86</title>
<path fill="none" stroke="midnightblue" d="M1014.16,-171.617C1026.14,-170.165 1039.09,-168.595 1051.8,-167.055"/>
<polygon fill="midnightblue" stroke="midnightblue" points="1052.4,-170.507 1061.91,-165.829 1051.56,-163.558 1052.4,-170.507"/>
</g>
<!-- Node88&#45;&gt;Node84 -->
<g id="edge10" class="edge"><title>Node88&#45;&gt;Node84</title>
<path fill="none" stroke="midnightblue" d="M863.05,-199.433C875.584,-196.648 889.24,-193.613 902.228,-190.727"/>
<polygon fill="midnightblue" stroke="midnightblue" points="902.997,-194.142 912,-188.556 901.479,-187.308 902.997,-194.142"/>
</g>
<!-- Node91&#45;&gt;Node84 -->
<g id="edge15" class="edge"><title>Node91&#45;&gt;Node84</title>
<path fill="none" stroke="midnightblue" d="M494.162,-104.458C513.436,-101.412 535.08,-98.5043 555,-97 629.011,-91.4109 648.541,-86.3804 722,-97 790.339,-106.879 805.94,-117.871 871,-141 889.757,-147.668 910.294,-156.177 926.858,-163.353"/>
<polygon fill="midnightblue" stroke="midnightblue" points="925.544,-166.598 936.108,-167.4 928.35,-160.185 925.544,-166.598"/>
</g>
<!-- Node91&#45;&gt;Node87 -->
<g id="edge14" class="edge"><title>Node91&#45;&gt;Node87</title>
<path fill="none" stroke="midnightblue" d="M501.194,-124.175C507.658,-126.935 513.757,-130.474 519,-135 551.299,-162.882 533.259,-187.286 555,-224 573.675,-255.535 601.719,-287.573 619.816,-306.869"/>
<polygon fill="midnightblue" stroke="midnightblue" points="617.478,-309.488 626.907,-314.319 622.549,-304.663 617.478,-309.488"/>
</g>
<!-- Node91&#45;&gt;Node88 -->
<g id="edge20" class="edge"><title>Node91&#45;&gt;Node88</title>
<path fill="none" stroke="midnightblue" d="M501.238,-125.525C507.545,-128.042 513.597,-131.154 519,-135 543.104,-152.159 529.568,-175.879 555,-191 613.261,-225.64 692.453,-226.094 747.776,-220.6"/>
<polygon fill="midnightblue" stroke="midnightblue" points="748.253,-224.069 757.817,-219.511 747.499,-217.109 748.253,-224.069"/>
</g>
<!-- Node92 -->
<g id="node13" class="node"><title>Node92</title>
<g id="a_node13"><a xlink:href="namespacefiles__utilities.html#ac6066df405564ba2f5e3c4bba726c1f8" target="_top" xlink:title="Search for available new unit. ">
<polygon fill="white" stroke="black" points="555,-28.5 555,-49.5 722,-49.5 722,-28.5 555,-28.5"/>
<text text-anchor="middle" x="638.5" y="-35.9" font-family="Ubuntu Mono" font-size="12.00">files_utilities::nextunit</text>
</a>
</g>
</g>
<!-- Node91&#45;&gt;Node92 -->
<g id="edge16" class="edge"><title>Node91&#45;&gt;Node92</title>
<path fill="none" stroke="midnightblue" d="M458.913,-104.458C482.519,-93.568 520.92,-76.4527 555,-64 566.09,-59.9478 578.179,-56.019 589.599,-52.5223"/>
<polygon fill="midnightblue" stroke="midnightblue" points="590.852,-55.8003 599.421,-49.5684 588.836,-49.0969 590.852,-55.8003"/>
</g>
<!-- Node93 -->
<g id="node14" class="node"><title>Node93</title>
<g id="a_node14"><a xlink:href="namespaceoutput__ops.html#aa9e4855511b6ea16a08b3efb587bec51" target="_top" xlink:title="Executes command line, or displays a message if disabled. ">
<polygon fill="white" stroke="black" points="561,-107 561,-141 716,-141 716,-107 561,-107"/>
<text text-anchor="start" x="569" y="-127.4" font-family="Ubuntu Mono" font-size="12.00">output_ops::use_execute</text>
<text text-anchor="middle" x="638.5" y="-114.4" font-family="Ubuntu Mono" font-size="12.00">_command_line</text>
</a>
</g>
</g>
<!-- Node91&#45;&gt;Node93 -->
<g id="edge17" class="edge"><title>Node91&#45;&gt;Node93</title>
<path fill="none" stroke="midnightblue" d="M501.204,-117.897C516.98,-118.604 534.11,-119.371 550.73,-120.115"/>
<polygon fill="midnightblue" stroke="midnightblue" points="550.849,-123.624 560.995,-120.574 551.162,-116.631 550.849,-123.624"/>
</g>
<!-- Node94 -->
<g id="node15" class="node"><title>Node94</title>
<g id="a_node15"><a xlink:href="namespacestr__utilities.html#a92ac6c0af1979df094de1caddd28ade0" target="_top" xlink:title="Convert a real (double) to string. ">
<polygon fill="white" stroke="black" points="570,-160.5 570,-181.5 707,-181.5 707,-160.5 570,-160.5"/>
<text text-anchor="middle" x="638.5" y="-167.9" font-family="Ubuntu Mono" font-size="12.00">str_utilities::r2str</text>
</a>
</g>
</g>
<!-- Node91&#45;&gt;Node94 -->
<g id="edge21" class="edge"><title>Node91&#45;&gt;Node94</title>
<path fill="none" stroke="midnightblue" d="M485.716,-125.591C496.759,-128.338 508.355,-131.516 519,-135 535.473,-140.392 538.558,-144.514 555,-150 563.353,-152.787 572.286,-155.414 581.077,-157.805"/>
<polygon fill="midnightblue" stroke="midnightblue" points="580.342,-161.23 590.904,-160.399 582.129,-154.462 580.342,-161.23"/>
</g>
<!-- Node93&#45;&gt;Node84 -->
<g id="edge18" class="edge"><title>Node93&#45;&gt;Node84</title>
<path fill="none" stroke="midnightblue" d="M716.148,-136.934C771.445,-146.266 845.17,-158.707 896.929,-167.441"/>
<polygon fill="midnightblue" stroke="midnightblue" points="896.533,-170.924 906.976,-169.137 897.698,-164.021 896.533,-170.924"/>
</g>
<!-- Node93&#45;&gt;Node88 -->
<g id="edge19" class="edge"><title>Node93&#45;&gt;Node88</title>
<path fill="none" stroke="midnightblue" d="M697.932,-141.044C706.147,-144.038 714.381,-147.371 722,-151 747.077,-162.944 773.515,-180.617 791.488,-193.506"/>
<polygon fill="midnightblue" stroke="midnightblue" points="789.443,-196.347 799.588,-199.403 793.563,-190.687 789.443,-196.347"/>
</g>
<!-- Node95&#45;&gt;Node91 -->
<g id="edge25" class="edge"><title>Node95&#45;&gt;Node91</title>
<path fill="none" stroke="midnightblue" d="M316.145,-101.849C330.32,-103.424 345.26,-105.084 359.574,-106.675"/>
<polygon fill="midnightblue" stroke="midnightblue" points="359.54,-110.193 369.866,-107.818 360.314,-103.235 359.54,-110.193"/>
</g>
</g>
</svg>
