<?xml version="1.0" encoding="UTF-8" standalone="no"?>
<!DOCTYPE svg PUBLIC "-//W3C//DTD SVG 1.1//EN"
 "http://www.w3.org/Graphics/SVG/1.1/DTD/svg11.dtd">
<!-- Generated by graphviz version 2.43.0 (0)
 -->
<!-- Title: helena_ops::read_hel Pages: 1 -->
<svg width="897pt" height="299pt"
 viewBox="0.00 0.00 897.00 299.06" xmlns="http://www.w3.org/2000/svg" xmlns:xlink="http://www.w3.org/1999/xlink">
<g id="graph0" class="graph" transform="scale(1 1) rotate(0) translate(4 295.06)">
<title>helena_ops::read_hel</title>
<polygon fill="white" stroke="transparent" points="-4,4 -4,-295.06 893,-295.06 893,4 -4,4"/>
<!-- Node1 -->
<g id="node1" class="node">
<title>Node1</title>
<g id="a_node1"><a xlink:title="Reads the HELENA equilibrium data.">
<polygon fill="#bfbfbf" stroke="black" points="0,-169.5 0,-190.5 143,-190.5 143,-169.5 0,-169.5"/>
<text text-anchor="middle" x="71.5" y="-176.9" font-family="Ubuntu Mono" font-size="12.00">helena_ops::read_hel</text>
</a>
</g>
</g>
<!-- Node2 -->
<g id="node2" class="node">
<title>Node2</title>
<g id="a_node2"><a xlink:href="namespaceoutput__ops.html#a50bfbb88cc91805469353c3ff47b3e2e" target="_top" xlink:title="Use external program to draw a plot.">
<polygon fill="white" stroke="black" points="179,-169.5 179,-190.5 319,-190.5 319,-169.5 179,-169.5"/>
<text text-anchor="middle" x="249" y="-176.9" font-family="Ubuntu Mono" font-size="12.00">output_ops::draw_ex</text>
</a>
</g>
</g>
<!-- Node1&#45;&gt;Node2 -->
<g id="edge1" class="edge">
<title>Node1&#45;&gt;Node2</title>
<path fill="none" stroke="midnightblue" d="M143.12,-180C151.61,-180 160.32,-180 168.92,-180"/>
<polygon fill="midnightblue" stroke="midnightblue" points="168.95,-183.5 178.95,-180 168.95,-176.5 168.95,-183.5"/>
</g>
<!-- Node3 -->
<g id="node3" class="node">
<title>Node3</title>
<g id="a_node3"><a xlink:href="namespacestr__utilities.html#a0b97e51770725a3e98ed393d26681414" target="_top" xlink:title="Convert an integer to string.">
<polygon fill="white" stroke="black" points="740.5,-77.5 740.5,-98.5 854.5,-98.5 854.5,-77.5 740.5,-77.5"/>
<text text-anchor="middle" x="797.5" y="-84.9" font-family="Ubuntu Mono" font-size="12.00">str_utilities::i2str</text>
</a>
</g>
</g>
<!-- Node1&#45;&gt;Node3 -->
<g id="edge11" class="edge">
<title>Node1&#45;&gt;Node3</title>
<path fill="none" stroke="midnightblue" d="M93.03,-169.36C138.64,-146.36 252.48,-92.56 355,-73 486.34,-47.94 643.56,-63.97 730.49,-76.75"/>
<polygon fill="midnightblue" stroke="midnightblue" points="730.07,-80.22 740.48,-78.25 731.11,-73.3 730.07,-80.22"/>
</g>
<!-- Node4 -->
<g id="node4" class="node">
<title>Node4</title>
<g id="a_node4"><a xlink:href="namespacemessages.html#a6e6bfb084063e4cc91ee86e542043302" target="_top" xlink:title="Increases/decreases lvl of output.">
<polygon fill="white" stroke="black" points="378.5,-248.5 378.5,-269.5 496.5,-269.5 496.5,-248.5 378.5,-248.5"/>
<text text-anchor="middle" x="437.5" y="-255.9" font-family="Ubuntu Mono" font-size="12.00">messages::lvl_ud</text>
</a>
</g>
</g>
<!-- Node1&#45;&gt;Node4 -->
<g id="edge12" class="edge">
<title>Node1&#45;&gt;Node4</title>
<path fill="none" stroke="midnightblue" d="M121.21,-190.57C187.68,-205 306.66,-230.82 377.92,-246.29"/>
<polygon fill="midnightblue" stroke="midnightblue" points="377.56,-249.79 388.08,-248.49 379.05,-242.95 377.56,-249.79"/>
</g>
<!-- Node5 -->
<g id="node5" class="node">
<title>Node5</title>
<g id="a_node5"><a xlink:href="namespacemessages.html#aa4a8d01563e92558e8a0875b075ec54c" target="_top" xlink:title="Write output to file identified by output_i.">
<polygon fill="white" stroke="black" points="556,-208.5 556,-229.5 670,-229.5 670,-208.5 556,-208.5"/>
<text text-anchor="middle" x="613" y="-215.9" font-family="Ubuntu Mono" font-size="12.00">messages::writo</text>
</a>
</g>
</g>
<!-- Node1&#45;&gt;Node5 -->
<g id="edge14" class="edge">
<title>Node1&#45;&gt;Node5</title>
<path fill="none" stroke="midnightblue" d="M90.83,-190.58C111.65,-202.25 146.9,-220.96 179,-233 254.7,-261.38 274.81,-268.69 355,-279 427.74,-288.35 449.71,-299.9 520,-279 547.96,-270.69 575.35,-250.89 592.88,-236.29"/>
<polygon fill="midnightblue" stroke="midnightblue" points="595.34,-238.79 600.64,-229.62 590.78,-233.48 595.34,-238.79"/>
</g>
<!-- Node10 -->
<g id="node10" class="node">
<title>Node10</title>
<g id="a_node10"><a xlink:href="namespacestr__utilities.html#a92ac6c0af1979df094de1caddd28ade0" target="_top" xlink:title="Convert a real (double) to string.">
<polygon fill="white" stroke="black" points="191,-0.5 191,-21.5 307,-21.5 307,-0.5 191,-0.5"/>
<text text-anchor="middle" x="249" y="-7.9" font-family="Ubuntu Mono" font-size="12.00">str_utilities::r2str</text>
</a>
</g>
</g>
<!-- Node1&#45;&gt;Node10 -->
<g id="edge13" class="edge">
<title>Node1&#45;&gt;Node10</title>
<path fill="none" stroke="midnightblue" d="M77.6,-169.28C90.71,-142.85 128.15,-73.92 179,-36 184.49,-31.91 190.72,-28.43 197.13,-25.49"/>
<polygon fill="midnightblue" stroke="midnightblue" points="198.7,-28.63 206.59,-21.56 196.01,-22.16 198.7,-28.63"/>
</g>
<!-- Node2&#45;&gt;Node3 -->
<g id="edge2" class="edge">
<title>Node2&#45;&gt;Node3</title>
<path fill="none" stroke="midnightblue" d="M260.77,-169.3C278.58,-152.4 316.08,-120.13 355,-107 482.27,-64.08 641.94,-70.98 730.18,-79.63"/>
<polygon fill="midnightblue" stroke="midnightblue" points="730.02,-83.13 740.32,-80.66 730.73,-76.16 730.02,-83.13"/>
</g>
<!-- Node2&#45;&gt;Node4 -->
<g id="edge3" class="edge">
<title>Node2&#45;&gt;Node4</title>
<path fill="none" stroke="midnightblue" d="M265.69,-190.62C285.65,-203.69 321.55,-225.78 355,-239 361.28,-241.48 367.96,-243.72 374.69,-245.72"/>
<polygon fill="midnightblue" stroke="midnightblue" points="373.96,-249.16 384.54,-248.49 375.86,-242.42 373.96,-249.16"/>
</g>
<!-- Node2&#45;&gt;Node5 -->
<g id="edge10" class="edge">
<title>Node2&#45;&gt;Node5</title>
<path fill="none" stroke="midnightblue" d="M319.09,-182.13C373.82,-184.47 452.09,-189.28 520,-199 532.9,-200.85 546.68,-203.48 559.54,-206.23"/>
<polygon fill="midnightblue" stroke="midnightblue" points="559.12,-209.72 569.63,-208.46 560.62,-202.89 559.12,-209.72"/>
</g>
<!-- Node8 -->
<g id="node8" class="node">
<title>Node8</title>
<g id="a_node8"><a xlink:href="namespacefiles__utilities.html#ac6066df405564ba2f5e3c4bba726c1f8" target="_top" xlink:title="Search for available new unit.">
<polygon fill="white" stroke="black" points="365,-208.5 365,-229.5 510,-229.5 510,-208.5 365,-208.5"/>
<text text-anchor="middle" x="437.5" y="-215.9" font-family="Ubuntu Mono" font-size="12.00">files_utilities::nextunit</text>
</a>
</g>
</g>
<!-- Node2&#45;&gt;Node8 -->
<g id="edge8" class="edge">
<title>Node2&#45;&gt;Node8</title>
<path fill="none" stroke="midnightblue" d="M300.47,-190.55C323.79,-195.43 351.68,-201.26 376.11,-206.37"/>
<polygon fill="midnightblue" stroke="midnightblue" points="375.49,-209.82 385.99,-208.44 376.92,-202.96 375.49,-209.82"/>
</g>
<!-- Node9 -->
<g id="node9" class="node">
<title>Node9</title>
<g id="a_node9"><a xlink:href="namespaceoutput__ops.html#aa9e4855511b6ea16a08b3efb587bec51" target="_top" xlink:title="Executes command line, or displays a message if disabled.">
<polygon fill="white" stroke="black" points="355,-117 355,-151 520,-151 520,-117 355,-117"/>
<text text-anchor="start" x="363" y="-137.4" font-family="Ubuntu Mono" font-size="12.00">output_ops::use_execute</text>
<text text-anchor="middle" x="437.5" y="-124.4" font-family="Ubuntu Mono" font-size="12.00">_command_line</text>
</a>
</g>
</g>
<!-- Node2&#45;&gt;Node9 -->
<g id="edge9" class="edge">
<title>Node2&#45;&gt;Node9</title>
<path fill="none" stroke="midnightblue" d="M292.79,-169.45C311.99,-164.71 335.28,-158.97 357.47,-153.49"/>
<polygon fill="midnightblue" stroke="midnightblue" points="358.36,-156.88 367.23,-151.08 356.69,-150.08 358.36,-156.88"/>
</g>
<!-- Node4&#45;&gt;Node5 -->
<g id="edge4" class="edge">
<title>Node4&#45;&gt;Node5</title>
<path fill="none" stroke="midnightblue" d="M484.09,-248.49C506.31,-243.37 533.23,-237.16 556.63,-231.77"/>
<polygon fill="midnightblue" stroke="midnightblue" points="557.46,-235.17 566.42,-229.51 555.89,-228.34 557.46,-235.17"/>
</g>
<!-- Node5&#45;&gt;Node3 -->
<g id="edge7" class="edge">
<title>Node5&#45;&gt;Node3</title>
<path fill="none" stroke="midnightblue" d="M628.93,-208.28C660.77,-185.42 735.51,-131.78 773.49,-104.52"/>
<polygon fill="midnightblue" stroke="midnightblue" points="775.79,-107.18 781.87,-98.5 771.7,-101.49 775.79,-107.18"/>
</g>
<!-- Node6 -->
<g id="node6" class="node">
<title>Node6</title>
<g id="a_node6"><a xlink:href="namespacemessages.html#a61fd0b51b5e37d58fdc993c01792a3fd" target="_top" xlink:title="Returns the time.">
<polygon fill="white" stroke="black" points="727.5,-188.5 727.5,-209.5 867.5,-209.5 867.5,-188.5 727.5,-188.5"/>
<text text-anchor="middle" x="797.5" y="-195.9" font-family="Ubuntu Mono" font-size="12.00">messages::get_clock</text>
</a>
</g>
</g>
<!-- Node5&#45;&gt;Node6 -->
<g id="edge5" class="edge">
<title>Node5&#45;&gt;Node6</title>
<path fill="none" stroke="midnightblue" d="M670.25,-212.84C685.02,-211.22 701.24,-209.44 716.99,-207.71"/>
<polygon fill="midnightblue" stroke="midnightblue" points="717.69,-211.16 727.25,-206.59 716.93,-204.2 717.69,-211.16"/>
</g>
<!-- Node7 -->
<g id="node7" class="node">
<title>Node7</title>
<g id="a_node7"><a xlink:href="namespacemessages.html#a82dddaab795b78b3d39e1ff1aab2f665" target="_top" xlink:title="Returns the memory usage in kilobytes.">
<polygon fill="white" stroke="black" points="706,-228.5 706,-249.5 889,-249.5 889,-228.5 706,-228.5"/>
<text text-anchor="middle" x="797.5" y="-235.9" font-family="Ubuntu Mono" font-size="12.00">messages::get_mem_usage</text>
</a>
</g>
</g>
<!-- Node5&#45;&gt;Node7 -->
<g id="edge6" class="edge">
<title>Node5&#45;&gt;Node7</title>
<path fill="none" stroke="midnightblue" d="M670.25,-225.16C678.46,-226.06 687.13,-227.01 695.91,-227.98"/>
<polygon fill="midnightblue" stroke="midnightblue" points="695.53,-231.46 705.86,-229.07 696.3,-224.5 695.53,-231.46"/>
</g>
</g>
</svg>
