<?xml version="1.0" encoding="UTF-8" standalone="no"?>
<!DOCTYPE svg PUBLIC "-//W3C//DTD SVG 1.1//EN"
 "http://www.w3.org/Graphics/SVG/1.1/DTD/svg11.dtd">
<!-- Generated by graphviz version 2.38.0 (20140413.2041)
 -->
<!-- Title: vac_ops::calc_vac_res Pages: 1 -->
<svg width="437pt" height="30pt"
 viewBox="0.00 0.00 437.00 30.00" xmlns="http://www.w3.org/2000/svg" xmlns:xlink="http://www.w3.org/1999/xlink">
<g id="graph0" class="graph" transform="scale(1 1) rotate(0) translate(4 26)">
<title>vac_ops::calc_vac_res</title>
<polygon fill="white" stroke="none" points="-4,4 -4,-26 433,-26 433,4 -4,4"/>
<!-- Node105 -->
<g id="node1" class="node"><title>Node105</title>
<polygon fill="#bfbfbf" stroke="black" points="0,-0.5 0,-21.5 143,-21.5 143,-0.5 0,-0.5"/>
<text text-anchor="middle" x="71.5" y="-7.9" font-family="Ubuntu Mono" font-size="12.00">vac_ops::calc_vac_res</text>
</g>
<!-- Node106 -->
<g id="node2" class="node"><title>Node106</title>
<g id="a_node2"><a xlink:href="namespacedriver__sol.html#a4fee58764d695ec5cacf3d70df6281e6" target="_top" xlink:title="Main driver of PB3D solution part. ">
<polygon fill="white" stroke="black" points="179,-0.5 179,-21.5 352,-21.5 352,-0.5 179,-0.5"/>
<text text-anchor="middle" x="265.5" y="-7.9" font-family="Ubuntu Mono" font-size="12.00">driver_sol::run_driver_sol</text>
</a>
</g>
</g>
<!-- Node105&#45;&gt;Node106 -->
<g id="edge1" class="edge"><title>Node105&#45;&gt;Node106</title>
<path fill="none" stroke="midnightblue" d="M153.399,-11C161.86,-11 170.482,-11 178.993,-11"/>
<polygon fill="midnightblue" stroke="midnightblue" points="153.176,-7.5001 143.176,-11 153.176,-14.5001 153.176,-7.5001"/>
</g>
<!-- Node107 -->
<g id="node3" class="node"><title>Node107</title>
<g id="a_node3"><a xlink:href="PB3D_8f90.html#afaee01f014ab3398eecac996b2795fd2" target="_top" xlink:title="Peeling Ballooning in 3D. ">
<polygon fill="white" stroke="black" points="388,-0.5 388,-21.5 429,-21.5 429,-0.5 388,-0.5"/>
<text text-anchor="middle" x="408.5" y="-7.9" font-family="Ubuntu Mono" font-size="12.00">pb3d</text>
</a>
</g>
</g>
<!-- Node106&#45;&gt;Node107 -->
<g id="edge2" class="edge"><title>Node106&#45;&gt;Node107</title>
<path fill="none" stroke="midnightblue" d="M362.337,-11C371.873,-11 380.695,-11 387.964,-11"/>
<polygon fill="midnightblue" stroke="midnightblue" points="362.178,-7.5001 352.178,-11 362.178,-14.5001 362.178,-7.5001"/>
</g>
</g>
</svg>
