<?xml version="1.0" encoding="UTF-8" standalone="no"?>
<!DOCTYPE svg PUBLIC "-//W3C//DTD SVG 1.1//EN"
 "http://www.w3.org/Graphics/SVG/1.1/DTD/svg11.dtd">
<!-- Generated by graphviz version 2.43.0 (0)
 -->
<!-- Title: driver_post::stop_post Pages: 1 -->
<svg width="928pt" height="123pt"
 viewBox="0.00 0.00 928.00 122.59" xmlns="http://www.w3.org/2000/svg" xmlns:xlink="http://www.w3.org/1999/xlink">
<g id="graph0" class="graph" transform="scale(1 1) rotate(0) translate(4 118.59)">
<title>driver_post::stop_post</title>
<polygon fill="white" stroke="transparent" points="-4,4 -4,-118.59 924,-118.59 924,4 -4,4"/>
<!-- Node1 -->
<g id="node1" class="node">
<title>Node1</title>
<g id="a_node1"><a xlink:title="Cleans up main driver for postprocessing.">
<polygon fill="#bfbfbf" stroke="black" points="0,-46.8 0,-67.8 148,-67.8 148,-46.8 0,-46.8"/>
<text text-anchor="middle" x="74" y="-54.2" font-family="Ubuntu Mono" font-size="12.00">driver_post::stop_post</text>
</a>
</g>
</g>
<!-- Node2 -->
<g id="node2" class="node">
<title>Node2</title>
<g id="a_node2"><a xlink:href="namespaceinput__utilities.html#aa0cf7578f9c9ab6470f8bb8d025f1daf" target="_top" xlink:title="Cleans up input from equilibrium codes.">
<polygon fill="white" stroke="black" points="184,-46.8 184,-67.8 345,-67.8 345,-46.8 184,-46.8"/>
<text text-anchor="middle" x="264.5" y="-54.2" font-family="Ubuntu Mono" font-size="12.00">input_utilities::dealloc_in</text>
</a>
</g>
</g>
<!-- Node1&#45;&gt;Node2 -->
<g id="edge1" class="edge">
<title>Node1&#45;&gt;Node2</title>
<path fill="none" stroke="midnightblue" d="M148.15,-57.3C156.55,-57.3 165.2,-57.3 173.79,-57.3"/>
<polygon fill="midnightblue" stroke="midnightblue" points="173.83,-60.8 183.83,-57.3 173.83,-53.8 173.83,-60.8"/>
</g>
<!-- Node3 -->
<g id="node3" class="node">
<title>Node3</title>
<g id="a_node3"><a xlink:href="namespacehelena__vars.html#add7b3eea7306eca7fb45737ff915523f" target="_top" xlink:title="Deallocates HELENA quantities that are not used any more.">
<polygon fill="white" stroke="black" points="384.5,-26.8 384.5,-47.8 547.5,-47.8 547.5,-26.8 384.5,-26.8"/>
<text text-anchor="middle" x="466" y="-34.2" font-family="Ubuntu Mono" font-size="12.00">helena_vars::dealloc_hel</text>
</a>
</g>
</g>
<!-- Node2&#45;&gt;Node3 -->
<g id="edge2" class="edge">
<title>Node2&#45;&gt;Node3</title>
<path fill="none" stroke="midnightblue" d="M345.21,-49.31C354.79,-48.35 364.64,-47.36 374.36,-46.39"/>
<polygon fill="midnightblue" stroke="midnightblue" points="374.84,-49.86 384.44,-45.38 374.14,-42.89 374.84,-49.86"/>
</g>
<!-- Node8 -->
<g id="node8" class="node">
<title>Node8</title>
<g id="a_node8"><a xlink:href="namespacevmec__vars.html#afe14ec328664d93b93c6dbda69df9175" target="_top" xlink:title="Deallocates VMEC quantities that are not used anymore.">
<polygon fill="white" stroke="black" points="381,-66.8 381,-87.8 551,-87.8 551,-66.8 381,-66.8"/>
<text text-anchor="middle" x="466" y="-74.2" font-family="Ubuntu Mono" font-size="12.00">vmec_vars::dealloc_vmec</text>
</a>
</g>
</g>
<!-- Node2&#45;&gt;Node8 -->
<g id="edge9" class="edge">
<title>Node2&#45;&gt;Node8</title>
<path fill="none" stroke="midnightblue" d="M345.21,-65.29C353.63,-66.14 362.26,-67 370.83,-67.86"/>
<polygon fill="midnightblue" stroke="midnightblue" points="370.54,-71.35 380.84,-68.87 371.24,-64.39 370.54,-71.35"/>
</g>
<!-- Node4 -->
<g id="node4" class="node">
<title>Node4</title>
<g id="a_node4"><a xlink:href="namespacemessages.html#a82dddaab795b78b3d39e1ff1aab2f665" target="_top" xlink:title="Returns the memory usage in kilobytes.">
<polygon fill="white" stroke="black" points="737,-86.8 737,-107.8 920,-107.8 920,-86.8 737,-86.8"/>
<text text-anchor="middle" x="828.5" y="-94.2" font-family="Ubuntu Mono" font-size="12.00">messages::get_mem_usage</text>
</a>
</g>
</g>
<!-- Node3&#45;&gt;Node4 -->
<g id="edge3" class="edge">
<title>Node3&#45;&gt;Node4</title>
<path fill="none" stroke="midnightblue" d="M520.99,-47.85C531.12,-50.47 541.5,-53.61 551,-57.3 568.06,-63.93 569.49,-71.98 587,-77.3 631.63,-90.87 682.92,-96.41 726.65,-98.36"/>
<polygon fill="midnightblue" stroke="midnightblue" points="726.59,-101.86 736.72,-98.74 726.86,-94.86 726.59,-101.86"/>
</g>
<!-- Node5 -->
<g id="node5" class="node">
<title>Node5</title>
<g id="a_node5"><a xlink:href="namespacestr__utilities.html#a0b97e51770725a3e98ed393d26681414" target="_top" xlink:title="Convert an integer to string.">
<polygon fill="white" stroke="black" points="771.5,-6.8 771.5,-27.8 885.5,-27.8 885.5,-6.8 771.5,-6.8"/>
<text text-anchor="middle" x="828.5" y="-14.2" font-family="Ubuntu Mono" font-size="12.00">str_utilities::i2str</text>
</a>
</g>
</g>
<!-- Node3&#45;&gt;Node5 -->
<g id="edge4" class="edge">
<title>Node3&#45;&gt;Node5</title>
<path fill="none" stroke="midnightblue" d="M496.62,-26.76C520.63,-18.8 555.52,-8.55 587,-4.3 645.61,3.61 712.87,-1.19 761.33,-7.07"/>
<polygon fill="midnightblue" stroke="midnightblue" points="761.02,-10.56 771.38,-8.34 761.89,-3.61 761.02,-10.56"/>
</g>
<!-- Node6 -->
<g id="node6" class="node">
<title>Node6</title>
<g id="a_node6"><a xlink:href="namespacemessages.html#aa4a8d01563e92558e8a0875b075ec54c" target="_top" xlink:title="Write output to file identified by output_i.">
<polygon fill="white" stroke="black" points="587,-46.8 587,-67.8 701,-67.8 701,-46.8 587,-46.8"/>
<text text-anchor="middle" x="644" y="-54.2" font-family="Ubuntu Mono" font-size="12.00">messages::writo</text>
</a>
</g>
</g>
<!-- Node3&#45;&gt;Node6 -->
<g id="edge5" class="edge">
<title>Node3&#45;&gt;Node6</title>
<path fill="none" stroke="midnightblue" d="M547.53,-46.45C557.3,-47.56 567.2,-48.69 576.73,-49.77"/>
<polygon fill="midnightblue" stroke="midnightblue" points="576.58,-53.28 586.91,-50.93 577.37,-46.32 576.58,-53.28"/>
</g>
<!-- Node6&#45;&gt;Node4 -->
<g id="edge7" class="edge">
<title>Node6&#45;&gt;Node4</title>
<path fill="none" stroke="midnightblue" d="M692.95,-67.81C716.43,-72.96 744.9,-79.2 769.59,-84.61"/>
<polygon fill="midnightblue" stroke="midnightblue" points="769.04,-88.07 779.55,-86.79 770.54,-81.23 769.04,-88.07"/>
</g>
<!-- Node6&#45;&gt;Node5 -->
<g id="edge8" class="edge">
<title>Node6&#45;&gt;Node5</title>
<path fill="none" stroke="midnightblue" d="M692.95,-46.79C716.43,-41.65 744.9,-35.41 769.59,-30"/>
<polygon fill="midnightblue" stroke="midnightblue" points="770.54,-33.37 779.55,-27.81 769.04,-26.53 770.54,-33.37"/>
</g>
<!-- Node7 -->
<g id="node7" class="node">
<title>Node7</title>
<g id="a_node7"><a xlink:href="namespacemessages.html#a61fd0b51b5e37d58fdc993c01792a3fd" target="_top" xlink:title="Returns the time.">
<polygon fill="white" stroke="black" points="758.5,-46.8 758.5,-67.8 898.5,-67.8 898.5,-46.8 758.5,-46.8"/>
<text text-anchor="middle" x="828.5" y="-54.2" font-family="Ubuntu Mono" font-size="12.00">messages::get_clock</text>
</a>
</g>
</g>
<!-- Node6&#45;&gt;Node7 -->
<g id="edge6" class="edge">
<title>Node6&#45;&gt;Node7</title>
<path fill="none" stroke="midnightblue" d="M701.25,-57.3C716.02,-57.3 732.24,-57.3 747.99,-57.3"/>
<polygon fill="midnightblue" stroke="midnightblue" points="748.25,-60.8 758.25,-57.3 748.25,-53.8 748.25,-60.8"/>
</g>
<!-- Node8&#45;&gt;Node4 -->
<g id="edge10" class="edge">
<title>Node8&#45;&gt;Node4</title>
<path fill="none" stroke="midnightblue" d="M496.62,-87.85C520.63,-95.8 555.52,-106.05 587,-110.3 640.76,-117.56 701.79,-114.12 748.92,-108.97"/>
<polygon fill="midnightblue" stroke="midnightblue" points="749.53,-112.42 759.07,-107.81 748.73,-105.47 749.53,-112.42"/>
</g>
<!-- Node8&#45;&gt;Node5 -->
<g id="edge11" class="edge">
<title>Node8&#45;&gt;Node5</title>
<path fill="none" stroke="midnightblue" d="M520.99,-66.76C531.12,-64.13 541.5,-60.99 551,-57.3 568.06,-50.68 569.49,-42.63 587,-37.3 644.07,-19.96 712.05,-15.72 761.15,-15.37"/>
<polygon fill="midnightblue" stroke="midnightblue" points="761.34,-18.87 771.33,-15.36 761.32,-11.87 761.34,-18.87"/>
</g>
<!-- Node8&#45;&gt;Node6 -->
<g id="edge12" class="edge">
<title>Node8&#45;&gt;Node6</title>
<path fill="none" stroke="midnightblue" d="M551.13,-67.74C559.68,-66.77 568.27,-65.8 576.59,-64.85"/>
<polygon fill="midnightblue" stroke="midnightblue" points="577.04,-68.32 586.58,-63.71 576.25,-61.37 577.04,-68.32"/>
</g>
</g>
</svg>
