<?xml version="1.0" encoding="UTF-8" standalone="no"?>
<!DOCTYPE svg PUBLIC "-//W3C//DTD SVG 1.1//EN"
 "http://www.w3.org/Graphics/SVG/1.1/DTD/svg11.dtd">
<!-- Generated by graphviz version 14.1.2 (20260124.0452)
 -->
<!-- Title: mpi_utilities::redistribute_var Pages: 1 -->
<svg width="738pt" height="298pt"
 viewBox="0.00 0.00 738.00 298.00" xmlns="http://www.w3.org/2000/svg" xmlns:xlink="http://www.w3.org/1999/xlink">
<g id="graph0" class="graph" transform="scale(1 1) rotate(0) translate(4 294.25)">
<title>mpi_utilities::redistribute_var</title>
<!-- Node1 -->
<g id="Node000001" class="node">
<title>Node1</title>
<g id="a_Node000001"><a xlink:title="Redistribute variables according to new limits.">
<polygon fill="#999999" stroke="#666666" points="730,-155.5 528,-155.5 528,-134.75 730,-134.75 730,-155.5"/>
<text xml:space="preserve" text-anchor="middle" x="629" y="-140.1" font-family="Ubuntu Mono" font-size="12.00">mpi_utilities::redistribute_var</text>
</a>
</g>
</g>
<!-- Node2 -->
<g id="Node000002" class="node">
<title>Node2</title>
<g id="a_Node000002"><a xlink:href="interfaceeq__ops_1_1redistribute__output__eq.html#ac77911cf8c4631896ad2d0fff66e6893" target="_top" xlink:title="flux version">
<polygon fill="white" stroke="#666666" points="492,-290.25 332,-290.25 332,-244 492,-244 492,-290.25"/>
<text xml:space="preserve" text-anchor="start" x="340" y="-274.85" font-family="Ubuntu Mono" font-size="12.00">eq_ops::redistribute</text>
<text xml:space="preserve" text-anchor="start" x="340" y="-262.1" font-family="Ubuntu Mono" font-size="12.00">_output_eq::redistribute</text>
<text xml:space="preserve" text-anchor="middle" x="412" y="-249.35" font-family="Ubuntu Mono" font-size="12.00">_output_eq_1</text>
</a>
</g>
</g>
<!-- Node1&#45;&gt;Node2 -->
<g id="edge1_Node000001_Node000002" class="edge">
<title>Node1&#45;&gt;Node2</title>
<g id="a_edge1_Node000001_Node000002"><a xlink:title=" ">
<path fill="none" stroke="#63b8ff" d="M604.72,-162.62C578.32,-181.95 533.54,-213.25 492,-235.12 486.37,-238.09 480.4,-240.96 474.37,-243.69"/>
<polygon fill="#63b8ff" stroke="#63b8ff" points="606.72,-165.5 612.68,-156.74 602.56,-159.87 606.72,-165.5"/>
</a>
</g>
</g>
<!-- Node3 -->
<g id="Node000003" class="node">
<title>Node3</title>
<g id="a_Node000003"><a xlink:href="interfaceeq__ops_1_1redistribute__output__eq.html#afdbe3be15436f6abd965bd301ffd819d" target="_top" xlink:title="metric version">
<polygon fill="white" stroke="#666666" points="492,-226.25 332,-226.25 332,-180 492,-180 492,-226.25"/>
<text xml:space="preserve" text-anchor="start" x="340" y="-210.85" font-family="Ubuntu Mono" font-size="12.00">eq_ops::redistribute</text>
<text xml:space="preserve" text-anchor="start" x="340" y="-198.1" font-family="Ubuntu Mono" font-size="12.00">_output_eq::redistribute</text>
<text xml:space="preserve" text-anchor="middle" x="412" y="-185.35" font-family="Ubuntu Mono" font-size="12.00">_output_eq_2</text>
</a>
</g>
</g>
<!-- Node1&#45;&gt;Node3 -->
<g id="edge2_Node000001_Node000003" class="edge">
<title>Node1&#45;&gt;Node3</title>
<g id="a_edge2_Node000001_Node000003"><a xlink:title=" ">
<path fill="none" stroke="#63b8ff" d="M576.99,-158.89C551.67,-165.72 520.52,-174.12 492.19,-181.76"/>
<polygon fill="#63b8ff" stroke="#63b8ff" points="577.61,-162.34 586.35,-156.36 575.78,-155.59 577.61,-162.34"/>
</a>
</g>
</g>
<!-- Node4 -->
<g id="Node000004" class="node">
<title>Node4</title>
<g id="a_Node000004"><a xlink:href="namespacegrid__ops.html#ab10ef5b486ee3861df2da4e53bc22630" target="_top" xlink:title="Redistribute a grid to match the normal distribution of solution grid.">
<polygon fill="white" stroke="#666666" points="486,-161.88 338,-161.88 338,-128.38 486,-128.38 486,-161.88"/>
<text xml:space="preserve" text-anchor="start" x="346" y="-146.47" font-family="Ubuntu Mono" font-size="12.00">grid_ops::redistribute</text>
<text xml:space="preserve" text-anchor="middle" x="412" y="-133.72" font-family="Ubuntu Mono" font-size="12.00">_output_grid</text>
</a>
</g>
</g>
<!-- Node1&#45;&gt;Node4 -->
<g id="edge3_Node000001_Node000004" class="edge">
<title>Node1&#45;&gt;Node4</title>
<g id="a_edge3_Node000001_Node000004"><a xlink:title=" ">
<path fill="none" stroke="#63b8ff" d="M516.32,-145.12C506.2,-145.12 496.14,-145.12 486.48,-145.12"/>
<polygon fill="#63b8ff" stroke="#63b8ff" points="516.23,-148.63 526.23,-145.13 516.23,-141.63 516.23,-148.63"/>
</a>
</g>
</g>
<!-- Node8 -->
<g id="Node000008" class="node">
<title>Node8</title>
<g id="a_Node000008"><a xlink:href="interfacex__ops_1_1redistribute__output__x.html#a627e5c0bd430749768728355a14318a8" target="_top" xlink:title="flux version">
<polygon fill="white" stroke="#666666" points="489,-110.25 335,-110.25 335,-64 489,-64 489,-110.25"/>
<text xml:space="preserve" text-anchor="start" x="343" y="-94.85" font-family="Ubuntu Mono" font-size="12.00">x_ops::redistribute</text>
<text xml:space="preserve" text-anchor="start" x="343" y="-82.1" font-family="Ubuntu Mono" font-size="12.00">_output_x::redistribute</text>
<text xml:space="preserve" text-anchor="middle" x="412" y="-69.35" font-family="Ubuntu Mono" font-size="12.00">_output_x_1</text>
</a>
</g>
</g>
<!-- Node1&#45;&gt;Node8 -->
<g id="edge8_Node000001_Node000008" class="edge">
<title>Node1&#45;&gt;Node8</title>
<g id="a_edge8_Node000001_Node000008"><a xlink:title=" ">
<path fill="none" stroke="#63b8ff" d="M576.98,-131.36C550.75,-124.28 518.24,-115.52 489.11,-107.66"/>
<polygon fill="#63b8ff" stroke="#63b8ff" points="575.78,-134.66 586.35,-133.89 577.61,-127.91 575.78,-134.66"/>
</a>
</g>
</g>
<!-- Node9 -->
<g id="Node000009" class="node">
<title>Node9</title>
<g id="a_Node000009"><a xlink:href="interfacex__ops_1_1redistribute__output__x.html#ae0bed5670933b25584534cc2a2bc7c19" target="_top" xlink:title="metric version">
<polygon fill="white" stroke="#666666" points="489,-46.25 335,-46.25 335,0 489,0 489,-46.25"/>
<text xml:space="preserve" text-anchor="start" x="343" y="-30.85" font-family="Ubuntu Mono" font-size="12.00">x_ops::redistribute</text>
<text xml:space="preserve" text-anchor="start" x="343" y="-18.1" font-family="Ubuntu Mono" font-size="12.00">_output_x::redistribute</text>
<text xml:space="preserve" text-anchor="middle" x="412" y="-5.35" font-family="Ubuntu Mono" font-size="12.00">_output_x_2</text>
</a>
</g>
</g>
<!-- Node1&#45;&gt;Node9 -->
<g id="edge9_Node000001_Node000009" class="edge">
<title>Node1&#45;&gt;Node9</title>
<g id="a_edge9_Node000001_Node000009"><a xlink:title=" ">
<path fill="none" stroke="#63b8ff" d="M604.72,-127.63C578.32,-108.3 533.54,-77 492,-55.12 486.37,-52.16 480.4,-49.29 474.37,-46.56"/>
<polygon fill="#63b8ff" stroke="#63b8ff" points="602.56,-130.38 612.68,-133.51 606.72,-124.75 602.56,-130.38"/>
</a>
</g>
</g>
<!-- Node5 -->
<g id="Node000005" class="node">
<title>Node5</title>
<g id="a_Node000005"><a xlink:href="namespacedriver__eq.html#a40d652e15887ad4f788a3945e6253571" target="_top" xlink:title="Main driver of PB3D equilibrium part.">
<polygon fill="white" stroke="#666666" points="290,-174.5 130,-174.5 130,-153.75 290,-153.75 290,-174.5"/>
<text xml:space="preserve" text-anchor="middle" x="210" y="-159.1" font-family="Ubuntu Mono" font-size="12.00">driver_eq::run_driver_eq</text>
</a>
</g>
</g>
<!-- Node4&#45;&gt;Node5 -->
<g id="edge4_Node000004_Node000005" class="edge">
<title>Node4&#45;&gt;Node5</title>
<g id="a_edge4_Node000004_Node000005"><a xlink:title=" ">
<path fill="none" stroke="#63b8ff" d="M326.35,-153.17C314.43,-154.3 302.21,-155.46 290.39,-156.58"/>
<polygon fill="#63b8ff" stroke="#63b8ff" points="326.53,-156.67 336.16,-152.24 325.87,-149.7 326.53,-156.67"/>
</a>
</g>
</g>
<!-- Node7 -->
<g id="Node000007" class="node">
<title>Node7</title>
<g id="a_Node000007"><a xlink:href="namespacedriver__sol.html#a8dad197124fcba9c120e568f8f1b85c6" target="_top" xlink:title="Main driver of PB3D solution part.">
<polygon fill="white" stroke="#666666" points="296,-135.5 124,-135.5 124,-114.75 296,-114.75 296,-135.5"/>
<text xml:space="preserve" text-anchor="middle" x="210" y="-120.1" font-family="Ubuntu Mono" font-size="12.00">driver_sol::run_driver_sol</text>
</a>
</g>
</g>
<!-- Node4&#45;&gt;Node7 -->
<g id="edge6_Node000004_Node000007" class="edge">
<title>Node4&#45;&gt;Node7</title>
<g id="a_edge6_Node000004_Node000007"><a xlink:title=" ">
<path fill="none" stroke="#63b8ff" d="M326.46,-136.67C316.44,-135.67 306.21,-134.65 296.18,-133.64"/>
<polygon fill="#63b8ff" stroke="#63b8ff" points="325.86,-140.13 336.16,-137.64 326.55,-133.16 325.86,-140.13"/>
</a>
</g>
</g>
<!-- Node6 -->
<g id="Node000006" class="node">
<title>Node6</title>
<g id="a_Node000006"><a xlink:href="PB3D_8f90.html#a36e5b0ce05c9783f58b43c4463b290a1" target="_top" xlink:title="Peeling Ballooning in 3D.">
<polygon fill="white" stroke="#666666" points="88,-154.5 0,-154.5 0,-133.75 88,-133.75 88,-154.5"/>
<text xml:space="preserve" text-anchor="middle" x="44" y="-139.1" font-family="Ubuntu Mono" font-size="12.00">__pb3d_f90__</text>
</a>
</g>
</g>
<!-- Node5&#45;&gt;Node6 -->
<g id="edge5_Node000005_Node000006" class="edge">
<title>Node5&#45;&gt;Node6</title>
<g id="a_edge5_Node000005_Node000006"><a xlink:title=" ">
<path fill="none" stroke="#63b8ff" d="M118.74,-153.12C108.08,-151.82 97.61,-150.54 88.06,-149.38"/>
<polygon fill="#63b8ff" stroke="#63b8ff" points="118.03,-156.56 128.38,-154.29 118.88,-149.61 118.03,-156.56"/>
</a>
</g>
</g>
<!-- Node7&#45;&gt;Node6 -->
<g id="edge7_Node000007_Node000006" class="edge">
<title>Node7&#45;&gt;Node6</title>
<g id="a_edge7_Node000007_Node000006"><a xlink:title=" ">
<path fill="none" stroke="#63b8ff" d="M112.46,-136.31C104.02,-137.29 95.8,-138.24 88.16,-139.13"/>
<polygon fill="#63b8ff" stroke="#63b8ff" points="112.6,-139.82 122.13,-135.19 111.8,-132.86 112.6,-139.82"/>
</a>
</g>
</g>
</g>
</svg>
