<?xml version="1.0" encoding="UTF-8" standalone="no"?>
<!DOCTYPE svg PUBLIC "-//W3C//DTD SVG 1.1//EN"
 "http://www.w3.org/Graphics/SVG/1.1/DTD/svg11.dtd">
<!-- Generated by graphviz version 14.1.2 (20260124.0452)
 -->
<!-- Title: x_utilities::do_x Pages: 1 -->
<svg width="434pt" height="47pt"
 viewBox="0.00 0.00 434.00 47.00" xmlns="http://www.w3.org/2000/svg" xmlns:xlink="http://www.w3.org/1999/xlink">
<g id="graph0" class="graph" transform="scale(1 1) rotate(0) translate(4 42.75)">
<title>x_utilities::do_x</title>
<!-- Node1 -->
<g id="Node000001" class="node">
<title>Node1</title>
<g id="a_Node000001"><a xlink:title="Tests whether this perturbatino job should be done.">
<polygon fill="#999999" stroke="#666666" points="426,-20.75 308,-20.75 308,0 426,0 426,-20.75"/>
<text xml:space="preserve" text-anchor="middle" x="367" y="-5.35" font-family="Ubuntu Mono" font-size="12.00">x_utilities::do_x</text>
</a>
</g>
</g>
<!-- Node1&#45;&gt;Node1 -->
<g id="edge1_Node000001_Node000001" class="edge">
<title>Node1&#45;&gt;Node1</title>
<g id="a_edge1_Node000001_Node000001"><a xlink:title=" ">
<path fill="none" stroke="#63b8ff" d="M396.74,-32.24C392.8,-36.08 382.89,-38.75 367,-38.75 337.95,-38.75 328.88,-29.81 339.77,-21.15"/>
<polygon fill="#63b8ff" stroke="#63b8ff" points="400.18,-31.61 394.57,-22.62 393.36,-33.15 400.18,-31.61"/>
</a>
</g>
</g>
<!-- Node2 -->
<g id="Node000002" class="node">
<title>Node2</title>
<g id="a_Node000002"><a xlink:href="namespacedriver__x.html#a0dafd879836a65efc2ec726d04368532" target="_top" xlink:title="Main driver of PB3D perturbation part.">
<polygon fill="white" stroke="#666666" points="272,-20.75 124,-20.75 124,0 272,0 272,-20.75"/>
<text xml:space="preserve" text-anchor="middle" x="198" y="-5.35" font-family="Ubuntu Mono" font-size="12.00">driver_x::run_driver_x</text>
</a>
</g>
</g>
<!-- Node1&#45;&gt;Node2 -->
<g id="edge2_Node000001_Node000002" class="edge">
<title>Node1&#45;&gt;Node2</title>
<g id="a_edge2_Node000001_Node000002"><a xlink:title=" ">
<path fill="none" stroke="#63b8ff" d="M296.2,-10.38C288.32,-10.38 280.27,-10.38 272.35,-10.38"/>
<polygon fill="#63b8ff" stroke="#63b8ff" points="296.08,-13.88 306.08,-10.38 296.08,-6.88 296.08,-13.88"/>
</a>
</g>
</g>
<!-- Node3 -->
<g id="Node000003" class="node">
<title>Node3</title>
<g id="a_Node000003"><a xlink:href="PB3D_8f90.html#a36e5b0ce05c9783f58b43c4463b290a1" target="_top" xlink:title="Peeling Ballooning in 3D.">
<polygon fill="white" stroke="#666666" points="88,-20.75 0,-20.75 0,0 88,0 88,-20.75"/>
<text xml:space="preserve" text-anchor="middle" x="44" y="-5.35" font-family="Ubuntu Mono" font-size="12.00">__pb3d_f90__</text>
</a>
</g>
</g>
<!-- Node2&#45;&gt;Node3 -->
<g id="edge3_Node000002_Node000003" class="edge">
<title>Node2&#45;&gt;Node3</title>
<g id="a_edge3_Node000002_Node000003"><a xlink:title=" ">
<path fill="none" stroke="#63b8ff" d="M112.3,-10.38C103.99,-10.38 95.82,-10.38 88.2,-10.38"/>
<polygon fill="#63b8ff" stroke="#63b8ff" points="112.16,-13.88 122.16,-10.38 112.16,-6.88 112.16,-13.88"/>
</a>
</g>
</g>
</g>
</svg>
