<?xml version="1.0" encoding="UTF-8" standalone="no"?>
<!DOCTYPE svg PUBLIC "-//W3C//DTD SVG 1.1//EN"
 "http://www.w3.org/Graphics/SVG/1.1/DTD/svg11.dtd">
<!-- Generated by graphviz version 14.1.2 (20260124.0452)
 -->
<!-- Title: rich_ops::find_max_rich_lvl Pages: 1 -->
<svg width="464pt" height="68pt"
 viewBox="0.00 0.00 464.00 68.00" xmlns="http://www.w3.org/2000/svg" xmlns:xlink="http://www.w3.org/1999/xlink">
<g id="graph0" class="graph" transform="scale(1 1) rotate(0) translate(4 63.75)">
<title>rich_ops::find_max_rich_lvl</title>
<!-- Node1 -->
<g id="Node000001" class="node">
<title>Node1</title>
<g id="a_Node000001"><a xlink:title="Probe to find out which Richardson levels are available.">
<polygon fill="#999999" stroke="#666666" points="456,-46.12 332,-46.12 332,-12.62 456,-12.62 456,-46.12"/>
<text xml:space="preserve" text-anchor="start" x="340" y="-30.73" font-family="Ubuntu Mono" font-size="12.00">rich_ops::find_max</text>
<text xml:space="preserve" text-anchor="middle" x="394" y="-17.98" font-family="Ubuntu Mono" font-size="12.00">_rich_lvl</text>
</a>
</g>
</g>
<!-- Node2 -->
<g id="Node000002" class="node">
<title>Node2</title>
<g id="a_Node000002"><a xlink:href="namespaceinput__ops.html#a434acca4f59f9dc1d91e04f846133684" target="_top" xlink:title="Reads input options from user&#45;provided input file.">
<polygon fill="white" stroke="#666666" points="296,-39.75 124,-39.75 124,-19 296,-19 296,-39.75"/>
<text xml:space="preserve" text-anchor="middle" x="210" y="-24.35" font-family="Ubuntu Mono" font-size="12.00">input_ops::read_input_opts</text>
</a>
</g>
</g>
<!-- Node1&#45;&gt;Node2 -->
<g id="edge1_Node000001_Node000002" class="edge">
<title>Node1&#45;&gt;Node2</title>
<g id="a_edge1_Node000001_Node000002"><a xlink:title=" ">
<path fill="none" stroke="#63b8ff" d="M320.27,-29.38C312.4,-29.38 304.33,-29.38 296.33,-29.38"/>
<polygon fill="#63b8ff" stroke="#63b8ff" points="320.12,-32.88 330.12,-29.38 320.12,-25.88 320.12,-32.88"/>
</a>
</g>
</g>
<!-- Node3 -->
<g id="Node000003" class="node">
<title>Node3</title>
<g id="a_Node000003"><a xlink:href="PB3D_8f90.html#a36e5b0ce05c9783f58b43c4463b290a1" target="_top" xlink:title="Peeling Ballooning in 3D.">
<polygon fill="white" stroke="#666666" points="88,-59.75 0,-59.75 0,-39 88,-39 88,-59.75"/>
<text xml:space="preserve" text-anchor="middle" x="44" y="-44.35" font-family="Ubuntu Mono" font-size="12.00">__pb3d_f90__</text>
</a>
</g>
</g>
<!-- Node2&#45;&gt;Node3 -->
<g id="edge2_Node000002_Node000003" class="edge">
<title>Node2&#45;&gt;Node3</title>
<g id="a_edge2_Node000002_Node000003"><a xlink:title=" ">
<path fill="none" stroke="#63b8ff" d="M112.46,-41.15C104.02,-42.18 95.8,-43.18 88.16,-44.11"/>
<polygon fill="#63b8ff" stroke="#63b8ff" points="112.63,-44.65 122.14,-39.97 111.78,-37.7 112.63,-44.65"/>
</a>
</g>
</g>
<!-- Node4 -->
<g id="Node000004" class="node">
<title>Node4</title>
<g id="a_Node000004"><a xlink:href="POST_8f90.html#a28f8fd95cf9c74c0cfd8b386827a7a9b" target="_top" xlink:title="Peeling Ballooning in 3D: postprocessing.">
<polygon fill="white" stroke="#666666" points="88,-20.75 0,-20.75 0,0 88,0 88,-20.75"/>
<text xml:space="preserve" text-anchor="middle" x="44" y="-5.35" font-family="Ubuntu Mono" font-size="12.00">__post_f90__</text>
</a>
</g>
</g>
<!-- Node2&#45;&gt;Node4 -->
<g id="edge3_Node000002_Node000004" class="edge">
<title>Node2&#45;&gt;Node4</title>
<g id="a_edge3_Node000002_Node000004"><a xlink:title=" ">
<path fill="none" stroke="#63b8ff" d="M112.46,-18.19C104.02,-17.21 95.8,-16.26 88.16,-15.37"/>
<polygon fill="#63b8ff" stroke="#63b8ff" points="111.8,-21.64 122.13,-19.31 112.6,-14.68 111.8,-21.64"/>
</a>
</g>
</g>
</g>
</svg>
