<?xml version="1.0" encoding="UTF-8" standalone="no"?>
<!DOCTYPE svg PUBLIC "-//W3C//DTD SVG 1.1//EN"
 "http://www.w3.org/Graphics/SVG/1.1/DTD/svg11.dtd">
<!-- Generated by graphviz version 2.43.0 (0)
 -->
<!-- Title: messages::print_ar_1 Pages: 1 -->
<svg width="1365pt" height="120pt"
 viewBox="0.00 0.00 1365.00 119.50" xmlns="http://www.w3.org/2000/svg" xmlns:xlink="http://www.w3.org/1999/xlink">
<g id="graph0" class="graph" transform="scale(1 1) rotate(0) translate(4 115.5)">
<title>messages::print_ar_1</title>
<polygon fill="white" stroke="transparent" points="-4,4 -4,-115.5 1361,-115.5 1361,4 -4,4"/>
<!-- Node1 -->
<g id="node1" class="node">
<title>Node1</title>
<g id="a_node1"><a xlink:title="Print an array of dimension 1 on the screen.">
<polygon fill="#bfbfbf" stroke="black" points="1213,-59.5 1213,-80.5 1357,-80.5 1357,-59.5 1213,-59.5"/>
<text text-anchor="middle" x="1285" y="-66.9" font-family="Ubuntu Mono" font-size="12.00">messages::print_ar_1</text>
</a>
</g>
</g>
<!-- Node2 -->
<g id="node2" class="node">
<title>Node2</title>
<g id="a_node2"><a xlink:href="namespacemessages.html#a80797cedef6112b8dccaeda431f0c610" target="_top" xlink:title="Print an array of dimension 2 on the screen.">
<polygon fill="white" stroke="black" points="1033,-59.5 1033,-80.5 1177,-80.5 1177,-59.5 1033,-59.5"/>
<text text-anchor="middle" x="1105" y="-66.9" font-family="Ubuntu Mono" font-size="12.00">messages::print_ar_2</text>
</a>
</g>
</g>
<!-- Node1&#45;&gt;Node2 -->
<g id="edge1" class="edge">
<title>Node1&#45;&gt;Node2</title>
<path fill="none" stroke="midnightblue" d="M1202.83,-70C1194.21,-70 1185.49,-70 1177,-70"/>
<polygon fill="midnightblue" stroke="midnightblue" points="1202.88,-73.5 1212.88,-70 1202.88,-66.5 1202.88,-73.5"/>
</g>
<!-- Node3 -->
<g id="node3" class="node">
<title>Node3</title>
<g id="a_node3"><a xlink:href="namespacevac__utilities.html#a8e7889688701f6ac2fd2c60cdee2b96a" target="_top" xlink:title="Copies vacuum variables of a previous level into the appropriate, interlaced place of a next level.">
<polygon fill="white" stroke="black" points="844,-77 844,-111 997,-111 997,-77 844,-77"/>
<text text-anchor="start" x="852" y="-97.4" font-family="Ubuntu Mono" font-size="12.00">vac_utilities::interlaced</text>
<text text-anchor="middle" x="920.5" y="-84.4" font-family="Ubuntu Mono" font-size="12.00">_vac_copy</text>
</a>
</g>
</g>
<!-- Node2&#45;&gt;Node3 -->
<g id="edge2" class="edge">
<title>Node2&#45;&gt;Node3</title>
<path fill="none" stroke="midnightblue" d="M1022.95,-80.66C1014.39,-81.78 1005.71,-82.93 997.21,-84.04"/>
<polygon fill="midnightblue" stroke="midnightblue" points="1023.46,-84.12 1032.92,-79.35 1022.55,-77.18 1023.46,-84.12"/>
</g>
<!-- Node7 -->
<g id="node7" class="node">
<title>Node7</title>
<g id="a_node7"><a xlink:href="SLEPC__utilities_8f90.html#a711d6be49d3b1542ee3375bceb5b4e6d" target="_top" xlink:title="/private Set up local block, possibly translated for fast PB3D.">
<polygon fill="white" stroke="black" points="860,-36.5 860,-57.5 981,-57.5 981,-36.5 860,-36.5"/>
<text text-anchor="middle" x="920.5" y="-43.9" font-family="Ubuntu Mono" font-size="12.00">setup_local_block</text>
</a>
</g>
</g>
<!-- Node2&#45;&gt;Node7 -->
<g id="edge6" class="edge">
<title>Node2&#45;&gt;Node7</title>
<path fill="none" stroke="midnightblue" d="M1022.8,-59.77C1008.79,-58 994.46,-56.2 981.16,-54.52"/>
<polygon fill="midnightblue" stroke="midnightblue" points="1022.56,-63.26 1032.92,-61.04 1023.43,-56.32 1022.56,-63.26"/>
</g>
<!-- Node4 -->
<g id="node4" class="node">
<title>Node4</title>
<g id="a_node4"><a xlink:href="namespacevac__ops.html#a37220702fbf378626a0f2c12f446e0aa" target="_top" xlink:title="Stores calculation of the vacuum response by storing the necessary variables.">
<polygon fill="white" stroke="black" points="675,-83.5 675,-104.5 804,-104.5 804,-83.5 675,-83.5"/>
<text text-anchor="middle" x="739.5" y="-90.9" font-family="Ubuntu Mono" font-size="12.00">vac_ops::store_vac</text>
</a>
</g>
</g>
<!-- Node3&#45;&gt;Node4 -->
<g id="edge3" class="edge">
<title>Node3&#45;&gt;Node4</title>
<path fill="none" stroke="midnightblue" d="M833.84,-94C823.79,-94 813.68,-94 804.01,-94"/>
<polygon fill="midnightblue" stroke="midnightblue" points="833.85,-97.5 843.85,-94 833.85,-90.5 833.85,-97.5"/>
</g>
<!-- Node5 -->
<g id="node5" class="node">
<title>Node5</title>
<g id="a_node5"><a xlink:href="namespacedriver__eq.html#adc9d5dff288fa512e5ef885627d940cc" target="_top" xlink:title="Main driver of PB3D equilibrium part.">
<polygon fill="white" stroke="black" points="285,-83.5 285,-104.5 448,-104.5 448,-83.5 285,-83.5"/>
<text text-anchor="middle" x="366.5" y="-90.9" font-family="Ubuntu Mono" font-size="12.00">driver_eq::run_driver_eq</text>
</a>
</g>
</g>
<!-- Node4&#45;&gt;Node5 -->
<g id="edge4" class="edge">
<title>Node4&#45;&gt;Node5</title>
<path fill="none" stroke="midnightblue" d="M664.54,-94C602.02,-94 512.61,-94 448.24,-94"/>
<polygon fill="midnightblue" stroke="midnightblue" points="664.72,-97.5 674.72,-94 664.72,-90.5 664.72,-97.5"/>
</g>
<!-- Node6 -->
<g id="node6" class="node">
<title>Node6</title>
<g id="a_node6"><a xlink:href="PB3D_8f90.html#afaee01f014ab3398eecac996b2795fd2" target="_top" xlink:title="Peeling Ballooning in 3D.">
<polygon fill="white" stroke="black" points="0,-59.5 0,-80.5 47,-80.5 47,-59.5 0,-59.5"/>
<text text-anchor="middle" x="23.5" y="-66.9" font-family="Ubuntu Mono" font-size="12.00">pb3d</text>
</a>
</g>
</g>
<!-- Node5&#45;&gt;Node6 -->
<g id="edge5" class="edge">
<title>Node5&#45;&gt;Node6</title>
<path fill="none" stroke="midnightblue" d="M274.5,-87.6C197.56,-82.18 92.8,-74.81 47.22,-71.6"/>
<polygon fill="midnightblue" stroke="midnightblue" points="274.47,-91.1 284.69,-88.31 274.96,-84.12 274.47,-91.1"/>
</g>
<!-- Node8 -->
<g id="node8" class="node">
<title>Node8</title>
<g id="a_node8"><a xlink:href="namespaceslepc__utilities.html#aa34aa361f0bfff9621ecba179f9ed0c6" target="_top" xlink:title="Insert a block pertaining to 1 normal point into a matrix.">
<polygon fill="white" stroke="black" points="671,-30 671,-64 808,-64 808,-30 671,-30"/>
<text text-anchor="start" x="679" y="-50.4" font-family="Ubuntu Mono" font-size="12.00">slepc_utilities::insert</text>
<text text-anchor="middle" x="739.5" y="-37.4" font-family="Ubuntu Mono" font-size="12.00">_block_mat</text>
</a>
</g>
</g>
<!-- Node7&#45;&gt;Node8 -->
<g id="edge7" class="edge">
<title>Node7&#45;&gt;Node8</title>
<path fill="none" stroke="midnightblue" d="M849.62,-47C836,-47 821.74,-47 808.19,-47"/>
<polygon fill="midnightblue" stroke="midnightblue" points="849.9,-50.5 859.9,-47 849.9,-43.5 849.9,-50.5"/>
</g>
<!-- Node9 -->
<g id="node9" class="node">
<title>Node9</title>
<g id="a_node9"><a xlink:href="namespaceslepc__ops.html#a05f8a23335ed47ad1996cddf3bcfdc2e" target="_top" xlink:title="Sets the boundary conditions deep in the plasma (1) and at the edge (2).">
<polygon fill="white" stroke="black" points="499.5,-40.5 499.5,-61.5 619.5,-61.5 619.5,-40.5 499.5,-40.5"/>
<text text-anchor="middle" x="559.5" y="-47.9" font-family="Ubuntu Mono" font-size="12.00">slepc_ops::set_bc</text>
</a>
</g>
</g>
<!-- Node8&#45;&gt;Node9 -->
<g id="edge8" class="edge">
<title>Node8&#45;&gt;Node9</title>
<path fill="none" stroke="midnightblue" d="M660.93,-48.74C647.06,-49.05 632.8,-49.38 619.55,-49.67"/>
<polygon fill="midnightblue" stroke="midnightblue" points="661.03,-52.24 670.95,-48.52 660.88,-45.24 661.03,-52.24"/>
</g>
<!-- Node12 -->
<g id="node12" class="node">
<title>Node12</title>
<g id="a_node12"><a xlink:href="namespaceslepc__ops.html#aac8202cb74cbb06013eb73f1fa0c3118" target="_top" xlink:title="Sets up the matrices &#160;and &#160;in the EV problem .">
<polygon fill="white" stroke="black" points="484,-0.5 484,-21.5 635,-21.5 635,-0.5 484,-0.5"/>
<text text-anchor="middle" x="559.5" y="-7.9" font-family="Ubuntu Mono" font-size="12.00">slepc_ops::setup_mats</text>
</a>
</g>
</g>
<!-- Node8&#45;&gt;Node12 -->
<g id="edge12" class="edge">
<title>Node8&#45;&gt;Node12</title>
<path fill="none" stroke="midnightblue" d="M660.85,-31.3C644.5,-27.99 627.62,-24.57 612.48,-21.51"/>
<polygon fill="midnightblue" stroke="midnightblue" points="660.46,-34.79 670.95,-33.34 661.84,-27.93 660.46,-34.79"/>
</g>
<!-- Node10 -->
<g id="node10" class="node">
<title>Node10</title>
<g id="a_node10"><a xlink:href="namespaceslepc__ops.html#a79c420987056c225931b51c8d30ece1f" target="_top" xlink:title="Solve the eigenvalue system using SLEPC.">
<polygon fill="white" stroke="black" points="300,-30 300,-64 433,-64 433,-30 300,-30"/>
<text text-anchor="start" x="308" y="-50.4" font-family="Ubuntu Mono" font-size="12.00">slepc_ops::solve_ev</text>
<text text-anchor="middle" x="366.5" y="-37.4" font-family="Ubuntu Mono" font-size="12.00">_system_slepc</text>
</a>
</g>
</g>
<!-- Node9&#45;&gt;Node10 -->
<g id="edge9" class="edge">
<title>Node9&#45;&gt;Node10</title>
<path fill="none" stroke="midnightblue" d="M489.13,-49.55C470.93,-49.17 451.35,-48.76 433.33,-48.38"/>
<polygon fill="midnightblue" stroke="midnightblue" points="489.3,-53.05 499.37,-49.76 489.45,-46.05 489.3,-53.05"/>
</g>
<!-- Node11 -->
<g id="node11" class="node">
<title>Node11</title>
<g id="a_node11"><a xlink:href="namespacedriver__sol.html#ad3b1765b3ecc5f82129bfc683ffc6c5c" target="_top" xlink:title="Main driver of PB3D solution part.">
<polygon fill="white" stroke="black" points="83,-40.5 83,-61.5 249,-61.5 249,-40.5 83,-40.5"/>
<text text-anchor="middle" x="166" y="-47.9" font-family="Ubuntu Mono" font-size="12.00">driver_sol::run_driver_sol</text>
</a>
</g>
</g>
<!-- Node10&#45;&gt;Node11 -->
<g id="edge10" class="edge">
<title>Node10&#45;&gt;Node11</title>
<path fill="none" stroke="midnightblue" d="M289.89,-48.52C276.56,-48.79 262.62,-49.07 249.12,-49.35"/>
<polygon fill="midnightblue" stroke="midnightblue" points="290.03,-52.02 299.95,-48.32 289.89,-45.02 290.03,-52.02"/>
</g>
<!-- Node11&#45;&gt;Node6 -->
<g id="edge11" class="edge">
<title>Node11&#45;&gt;Node6</title>
<path fill="none" stroke="midnightblue" d="M77.11,-62.89C66.1,-64.37 55.71,-65.78 47.12,-66.94"/>
<polygon fill="midnightblue" stroke="midnightblue" points="77.91,-66.31 87.35,-61.5 76.97,-59.37 77.91,-66.31"/>
</g>
<!-- Node12&#45;&gt;Node10 -->
<g id="edge13" class="edge">
<title>Node12&#45;&gt;Node10</title>
<path fill="none" stroke="midnightblue" d="M492.83,-23.38C473.52,-27.02 452.41,-31 433.11,-34.63"/>
<polygon fill="midnightblue" stroke="midnightblue" points="493.56,-26.8 502.74,-21.51 492.27,-19.92 493.56,-26.8"/>
</g>
</g>
</svg>
