<?xml version="1.0" encoding="UTF-8" standalone="no"?>
<!DOCTYPE svg PUBLIC "-//W3C//DTD SVG 1.1//EN"
 "http://www.w3.org/Graphics/SVG/1.1/DTD/svg11.dtd">
<!-- Generated by graphviz version 2.38.0 (20140413.2041)
 -->
<!-- Title: vac_utilities::in_context Pages: 1 -->
<svg width="986pt" height="196pt"
 viewBox="0.00 0.00 986.00 195.92" xmlns="http://www.w3.org/2000/svg" xmlns:xlink="http://www.w3.org/1999/xlink">
<g id="graph0" class="graph" transform="scale(1 1) rotate(0) translate(4 191.924)">
<title>vac_utilities::in_context</title>
<polygon fill="white" stroke="none" points="-4,4 -4,-191.924 982,-191.924 982,4 -4,4"/>
<!-- Node11 -->
<g id="node1" class="node"><title>Node11</title>
<polygon fill="#bfbfbf" stroke="black" points="0,-54.2072 0,-75.2072 167,-75.2072 167,-54.2072 0,-54.2072"/>
<text text-anchor="middle" x="83.5" y="-61.6072" font-family="Ubuntu Mono" font-size="12.00">vac_utilities::in_context</text>
</g>
<!-- Node12 -->
<g id="node2" class="node"><title>Node12</title>
<g id="a_node2"><a xlink:href="namespacevac__ops.html#a4937d8dc73b1673937957507f8be0638" target="_top" xlink:title="Calculate the matrices G and H. ">
<polygon fill="white" stroke="black" points="382,-57.2072 382,-78.2072 495,-78.2072 495,-57.2072 382,-57.2072"/>
<text text-anchor="middle" x="438.5" y="-64.6072" font-family="Ubuntu Mono" font-size="12.00">vac_ops::calc_gh</text>
</a>
</g>
</g>
<!-- Node11&#45;&gt;Node12 -->
<g id="edge1" class="edge"><title>Node11&#45;&gt;Node12</title>
<path fill="none" stroke="midnightblue" d="M177.206,-61.0801C222.657,-59.8384 278.204,-59.1171 328,-60.7072 345.516,-61.2665 364.585,-62.3278 381.828,-63.4582"/>
<polygon fill="midnightblue" stroke="midnightblue" points="176.969,-57.5853 167.073,-61.37 177.169,-64.5825 176.969,-57.5853"/>
</g>
<!-- Node13 -->
<g id="node3" class="node"><title>Node13</title>
<g id="a_node3"><a xlink:href="namespacevac__ops.html#aec1cc772d419de7fe49ac2ee0baf2eb6" target="_top" xlink:title="Calculates the vacuum response. ">
<polygon fill="white" stroke="black" points="549,-114.207 549,-135.207 692,-135.207 692,-114.207 549,-114.207"/>
<text text-anchor="middle" x="620.5" y="-121.607" font-family="Ubuntu Mono" font-size="12.00">vac_ops::calc_vac_res</text>
</a>
</g>
</g>
<!-- Node11&#45;&gt;Node13 -->
<g id="edge8" class="edge"><title>Node11&#45;&gt;Node13</title>
<path fill="none" stroke="midnightblue" d="M98.7858,-83.4014C118.897,-108.001 158.154,-150.064 203,-166.707 342.677,-218.542 525.734,-160.428 593.126,-135.215"/>
<polygon fill="midnightblue" stroke="midnightblue" points="101.46,-81.1411 92.4927,-75.4987 95.9842,-85.5017 101.46,-81.1411"/>
</g>
<!-- Node16 -->
<g id="node6" class="node"><title>Node16</title>
<g id="a_node6"><a xlink:href="namespacevac__ops.html#a3a2a3aed45951aecef42197b82a5a6da" target="_top" xlink:title="Calculate vacuum potential at some positions that are not resonant. ">
<polygon fill="white" stroke="black" points="549,-36.2072 549,-57.2072 692,-57.2072 692,-36.2072 549,-36.2072"/>
<text text-anchor="middle" x="620.5" y="-43.6072" font-family="Ubuntu Mono" font-size="12.00">vac_ops::vac_pot_plot</text>
</a>
</g>
</g>
<!-- Node11&#45;&gt;Node16 -->
<g id="edge9" class="edge"><title>Node11&#45;&gt;Node16</title>
<path fill="none" stroke="midnightblue" d="M124.988,-51.0403C201.234,-27.1358 371.207,17.4384 513,-7.70717 543.439,-13.1052 576.599,-26.5507 597.694,-36.1426"/>
<polygon fill="midnightblue" stroke="midnightblue" points="123.763,-47.7573 115.296,-54.1269 125.887,-54.4272 123.763,-47.7573"/>
</g>
<!-- Node19 -->
<g id="node9" class="node"><title>Node19</title>
<g id="a_node9"><a xlink:href="namespacevac__ops.html#ace79efa50ae5a120e515164c99ce9582" target="_top" xlink:title="Calculates potential Phi on boundary of BEM in terms of some right&#45;hand side . ">
<polygon fill="white" stroke="black" points="364,-17.2072 364,-38.2072 513,-38.2072 513,-17.2072 364,-17.2072"/>
<text text-anchor="middle" x="438.5" y="-24.6072" font-family="Ubuntu Mono" font-size="12.00">vac_ops::solve_phi_bem</text>
</a>
</g>
</g>
<!-- Node11&#45;&gt;Node19 -->
<g id="edge10" class="edge"><title>Node11&#45;&gt;Node19</title>
<path fill="none" stroke="midnightblue" d="M177.215,-54.9891C235.519,-48.8779 309.706,-41.102 363.949,-35.4165"/>
<polygon fill="midnightblue" stroke="midnightblue" points="176.843,-51.5088 167.263,-56.0323 177.573,-58.4707 176.843,-51.5088"/>
</g>
<!-- Node20 -->
<g id="node10" class="node"><title>Node20</title>
<g id="a_node10"><a xlink:href="namespacevac__utilities.html#a05e8e1f24569b4bff05e61a867268fc3" target="_top" xlink:title="Gathers a distributed vector on a single process. ">
<polygon fill="white" stroke="black" points="203,-70.7072 203,-104.707 328,-104.707 328,-70.7072 203,-70.7072"/>
<text text-anchor="start" x="211" y="-91.1072" font-family="Ubuntu Mono" font-size="12.00">vac_utilities::vec</text>
<text text-anchor="middle" x="265.5" y="-78.1072" font-family="Ubuntu Mono" font-size="12.00">_dis2loc</text>
</a>
</g>
</g>
<!-- Node11&#45;&gt;Node20 -->
<g id="edge13" class="edge"><title>Node11&#45;&gt;Node20</title>
<path fill="none" stroke="midnightblue" d="M176.833,-76.5053C185.67,-77.6344 194.476,-78.7597 202.912,-79.8376"/>
<polygon fill="midnightblue" stroke="midnightblue" points="177.225,-73.0269 166.862,-75.2312 176.337,-79.9705 177.225,-73.0269"/>
</g>
<!-- Node21 -->
<g id="node11" class="node"><title>Node21</title>
<g id="a_node11"><a xlink:href="namespacevac__utilities.html#ae70e8a1fc132ba79a9a4f49f4944a352" target="_top" xlink:title="Gathers a distributed vector on a single process. ">
<polygon fill="white" stroke="black" points="203,-123.707 203,-157.707 328,-157.707 328,-123.707 203,-123.707"/>
<text text-anchor="start" x="211" y="-144.107" font-family="Ubuntu Mono" font-size="12.00">vac_utilities::mat</text>
<text text-anchor="middle" x="265.5" y="-131.107" font-family="Ubuntu Mono" font-size="12.00">_dis2loc</text>
</a>
</g>
</g>
<!-- Node11&#45;&gt;Node21 -->
<g id="edge15" class="edge"><title>Node11&#45;&gt;Node21</title>
<path fill="none" stroke="midnightblue" d="M118.761,-79.1728C148.773,-91.8445 192.424,-110.275 224.126,-123.66"/>
<polygon fill="midnightblue" stroke="midnightblue" points="120.102,-75.94 109.528,-75.2746 117.379,-82.3888 120.102,-75.94"/>
</g>
<!-- Node12&#45;&gt;Node13 -->
<g id="edge2" class="edge"><title>Node12&#45;&gt;Node13</title>
<path fill="none" stroke="midnightblue" d="M482.845,-81.433C514.622,-91.4959 557.125,-104.955 586.244,-114.176"/>
<polygon fill="midnightblue" stroke="midnightblue" points="483.525,-77.9771 472.935,-78.2948 481.412,-84.6505 483.525,-77.9771"/>
</g>
<!-- Node12&#45;&gt;Node16 -->
<g id="edge5" class="edge"><title>Node12&#45;&gt;Node16</title>
<path fill="none" stroke="midnightblue" d="M505.577,-59.9982C519.698,-58.3507 534.666,-56.6044 548.948,-54.9382"/>
<polygon fill="midnightblue" stroke="midnightblue" points="504.993,-56.5424 495.466,-61.1777 505.805,-63.4953 504.993,-56.5424"/>
</g>
<!-- Node14 -->
<g id="node4" class="node"><title>Node14</title>
<g id="a_node4"><a xlink:href="namespacedriver__sol.html#a3a2250322c6ca75132ebf585732d3fc2" target="_top" xlink:title="Main driver of PB3D solution part. ">
<polygon fill="white" stroke="black" points="728,-114.207 728,-135.207 901,-135.207 901,-114.207 728,-114.207"/>
<text text-anchor="middle" x="814.5" y="-121.607" font-family="Ubuntu Mono" font-size="12.00">driver_sol::run_driver_sol</text>
</a>
</g>
</g>
<!-- Node13&#45;&gt;Node14 -->
<g id="edge3" class="edge"><title>Node13&#45;&gt;Node14</title>
<path fill="none" stroke="midnightblue" d="M702.399,-124.707C710.86,-124.707 719.482,-124.707 727.993,-124.707"/>
<polygon fill="midnightblue" stroke="midnightblue" points="702.176,-121.207 692.176,-124.707 702.176,-128.207 702.176,-121.207"/>
</g>
<!-- Node15 -->
<g id="node5" class="node"><title>Node15</title>
<g id="a_node5"><a xlink:href="PB3D_8f90.html#afaee01f014ab3398eecac996b2795fd2" target="_top" xlink:title="Peeling Ballooning in 3D. ">
<polygon fill="white" stroke="black" points="937,-114.207 937,-135.207 978,-135.207 978,-114.207 937,-114.207"/>
<text text-anchor="middle" x="957.5" y="-121.607" font-family="Ubuntu Mono" font-size="12.00">pb3d</text>
</a>
</g>
</g>
<!-- Node14&#45;&gt;Node15 -->
<g id="edge4" class="edge"><title>Node14&#45;&gt;Node15</title>
<path fill="none" stroke="midnightblue" d="M911.337,-124.707C920.873,-124.707 929.695,-124.707 936.964,-124.707"/>
<polygon fill="midnightblue" stroke="midnightblue" points="911.178,-121.207 901.178,-124.707 911.178,-128.207 911.178,-121.207"/>
</g>
<!-- Node17 -->
<g id="node7" class="node"><title>Node17</title>
<g id="a_node7"><a xlink:href="namespacedriver__post.html#af527706d4e696d4e507443d2f74194ef" target="_top" xlink:title="Initializes the POST driver. ">
<polygon fill="white" stroke="black" points="740,-36.2072 740,-57.2072 889,-57.2072 889,-36.2072 740,-36.2072"/>
<text text-anchor="middle" x="814.5" y="-43.6072" font-family="Ubuntu Mono" font-size="12.00">driver_post::init_post</text>
</a>
</g>
</g>
<!-- Node16&#45;&gt;Node17 -->
<g id="edge6" class="edge"><title>Node16&#45;&gt;Node17</title>
<path fill="none" stroke="midnightblue" d="M702.468,-46.7072C714.838,-46.7072 727.55,-46.7072 739.754,-46.7072"/>
<polygon fill="midnightblue" stroke="midnightblue" points="702.176,-43.2073 692.176,-46.7072 702.176,-50.2073 702.176,-43.2073"/>
</g>
<!-- Node18 -->
<g id="node8" class="node"><title>Node18</title>
<g id="a_node8"><a xlink:href="POST_8f90.html#ac289b64ac4671fea0b4f2298ba1188a1" target="_top" xlink:title="Peeling Ballooning in 3D: postprocessing. ">
<polygon fill="white" stroke="black" points="937,-36.2072 937,-57.2072 978,-57.2072 978,-36.2072 937,-36.2072"/>
<text text-anchor="middle" x="957.5" y="-43.6072" font-family="Ubuntu Mono" font-size="12.00">post</text>
</a>
</g>
</g>
<!-- Node17&#45;&gt;Node18 -->
<g id="edge7" class="edge"><title>Node17&#45;&gt;Node18</title>
<path fill="none" stroke="midnightblue" d="M899.546,-46.7072C913.48,-46.7072 926.68,-46.7072 936.857,-46.7072"/>
<polygon fill="midnightblue" stroke="midnightblue" points="899.304,-43.2073 889.304,-46.7072 899.304,-50.2073 899.304,-43.2073"/>
</g>
<!-- Node19&#45;&gt;Node13 -->
<g id="edge11" class="edge"><title>Node19&#45;&gt;Node13</title>
<path fill="none" stroke="midnightblue" d="M497.742,-41.4368C502.993,-43.3055 508.153,-45.3905 513,-47.7072 550.878,-65.8101 589.324,-97.6684 607.954,-114.157"/>
<polygon fill="midnightblue" stroke="midnightblue" points="498.832,-38.1111 488.239,-38.3038 496.641,-44.7591 498.832,-38.1111"/>
</g>
<!-- Node19&#45;&gt;Node16 -->
<g id="edge12" class="edge"><title>Node19&#45;&gt;Node16</title>
<path fill="none" stroke="midnightblue" d="M523.217,-36.5439C531.767,-37.4465 540.394,-38.3571 548.786,-39.2429"/>
<polygon fill="midnightblue" stroke="midnightblue" points="523.544,-33.0592 513.232,-35.49 522.81,-40.0205 523.544,-33.0592"/>
</g>
<!-- Node20&#45;&gt;Node12 -->
<g id="edge14" class="edge"><title>Node20&#45;&gt;Node12</title>
<path fill="none" stroke="midnightblue" d="M338.213,-79.3196C352.784,-77.6154 367.904,-75.8471 381.819,-74.2196"/>
<polygon fill="midnightblue" stroke="midnightblue" points="337.761,-75.8486 328.235,-80.4867 338.574,-82.8013 337.761,-75.8486"/>
</g>
<!-- Node21&#45;&gt;Node12 -->
<g id="edge16" class="edge"><title>Node21&#45;&gt;Node12</title>
<path fill="none" stroke="midnightblue" d="M316.405,-119.378C320.354,-117.514 324.259,-115.612 328,-113.707 344.507,-105.304 347.147,-100.395 364,-92.7072 376.018,-87.2252 389.605,-82.2768 401.8,-78.2567"/>
<polygon fill="midnightblue" stroke="midnightblue" points="314.782,-116.272 307.168,-123.639 317.714,-122.629 314.782,-116.272"/>
</g>
<!-- Node21&#45;&gt;Node13 -->
<g id="edge17" class="edge"><title>Node21&#45;&gt;Node13</title>
<path fill="none" stroke="midnightblue" d="M338.401,-137.448C399.859,-134.663 487.786,-130.677 548.874,-127.908"/>
<polygon fill="midnightblue" stroke="midnightblue" points="338.223,-133.953 328.392,-137.902 338.54,-140.945 338.223,-133.953"/>
</g>
<!-- Node21&#45;&gt;Node16 -->
<g id="edge18" class="edge"><title>Node21&#45;&gt;Node16</title>
<path fill="none" stroke="midnightblue" d="M338.192,-128.349C387.781,-119.059 455.014,-104.988 513,-87.7072 541.86,-79.1062 573.995,-66.2648 595.34,-57.2506"/>
<polygon fill="midnightblue" stroke="midnightblue" points="337.398,-124.936 328.204,-130.2 338.674,-131.819 337.398,-124.936"/>
</g>
</g>
</svg>
