<?xml version="1.0" encoding="UTF-8" standalone="no"?>
<!DOCTYPE svg PUBLIC "-//W3C//DTD SVG 1.1//EN"
 "http://www.w3.org/Graphics/SVG/1.1/DTD/svg11.dtd">
<!-- Generated by graphviz version 2.38.0 (20140413.2041)
 -->
<!-- Title: vac_ops::store_vac Pages: 1 -->
<svg width="1279pt" height="784pt"
 viewBox="0.00 0.00 1279.00 783.50" xmlns="http://www.w3.org/2000/svg" xmlns:xlink="http://www.w3.org/1999/xlink">
<g id="graph0" class="graph" transform="scale(1 1) rotate(0) translate(4 779.5)">
<title>vac_ops::store_vac</title>
<polygon fill="white" stroke="none" points="-4,4 -4,-779.5 1275,-779.5 1275,4 -4,4"/>
<!-- Node93 -->
<g id="node1" class="node"><title>Node93</title>
<polygon fill="#bfbfbf" stroke="black" points="0,-158.5 0,-179.5 125,-179.5 125,-158.5 0,-158.5"/>
<text text-anchor="middle" x="62.5" y="-165.9" font-family="Ubuntu Mono" font-size="12.00">vac_ops::store_vac</text>
</g>
<!-- Node94 -->
<g id="node2" class="node"><title>Node94</title>
<g id="a_node2"><a xlink:href="namespacepb3d__ops.html#a281c496a42c4ea46606e929e10d51582" target="_top" xlink:title="Reconstructs the vacuum variables from PB3D HDF5 output. ">
<polygon fill="white" stroke="black" points="161,-494 161,-528 304,-528 304,-494 161,-494"/>
<text text-anchor="start" x="169" y="-514.4" font-family="Ubuntu Mono" font-size="12.00">pb3d_ops::reconstruct</text>
<text text-anchor="middle" x="232.5" y="-501.4" font-family="Ubuntu Mono" font-size="12.00">_pb3d_vac</text>
</a>
</g>
</g>
<!-- Node93&#45;&gt;Node94 -->
<g id="edge1" class="edge"><title>Node93&#45;&gt;Node94</title>
<path fill="none" stroke="midnightblue" d="M68.7121,-179.61C91.669,-226.344 184.149,-414.607 218.537,-484.611"/>
<polygon fill="midnightblue" stroke="midnightblue" points="215.44,-486.245 222.99,-493.677 221.723,-483.158 215.44,-486.245"/>
</g>
<!-- Node108 -->
<g id="node16" class="node"><title>Node108</title>
<g id="a_node16"><a xlink:href="namespacemessages.html#aa4a8d01563e92558e8a0875b075ec54c" target="_top" xlink:title="Write output to file identified by output_i. ">
<polygon fill="white" stroke="black" points="955,-197.5 955,-218.5 1062,-218.5 1062,-197.5 955,-197.5"/>
<text text-anchor="middle" x="1008.5" y="-204.9" font-family="Ubuntu Mono" font-size="12.00">messages::writo</text>
</a>
</g>
</g>
<!-- Node93&#45;&gt;Node108 -->
<g id="edge32" class="edge"><title>Node93&#45;&gt;Node108</title>
<path fill="none" stroke="midnightblue" d="M81.1583,-158.44C131.587,-129.316 281.333,-50 416.5,-50 416.5,-50 416.5,-50 621.5,-50 750.469,-50 785.334,-70.9528 901,-128 934.722,-144.632 968.571,-172.409 988.781,-190.465"/>
<polygon fill="midnightblue" stroke="midnightblue" points="986.568,-193.183 996.322,-197.319 991.276,-188.003 986.568,-193.183"/>
</g>
<!-- Node112 -->
<g id="node20" class="node"><title>Node112</title>
<g id="a_node20"><a xlink:href="namespacenum__utilities.html#a5ee3fbd1fe67d0deefc7194631389f2a" target="_top" xlink:title="Convert 2&#45;D coordinates (i,j) to the storage convention used in matrices. ">
<polygon fill="white" stroke="black" points="564,-716.5 564,-737.5 677,-737.5 677,-716.5 564,-716.5"/>
<text text-anchor="middle" x="620.5" y="-723.9" font-family="Ubuntu Mono" font-size="12.00">num_utilities::c</text>
</a>
</g>
</g>
<!-- Node93&#45;&gt;Node112 -->
<g id="edge31" class="edge"><title>Node93&#45;&gt;Node112</title>
<path fill="none" stroke="midnightblue" d="M64.212,-179.786C67.6838,-226.057 85.8651,-411.151 161,-538 216.915,-632.4 239.541,-663.889 340,-708 408.266,-737.975 494.997,-738.864 553.6,-734.753"/>
<polygon fill="midnightblue" stroke="midnightblue" points="554.141,-738.222 563.842,-733.964 553.603,-731.243 554.141,-738.222"/>
</g>
<!-- Node114 -->
<g id="node22" class="node"><title>Node114</title>
<g id="a_node22"><a xlink:href="namespacemessages.html#a6e6bfb084063e4cc91ee86e542043302" target="_top" xlink:title="Increases/decreases lvl of output. ">
<polygon fill="white" stroke="black" points="767,-166.5 767,-187.5 880,-187.5 880,-166.5 767,-166.5"/>
<text text-anchor="middle" x="823.5" y="-173.9" font-family="Ubuntu Mono" font-size="12.00">messages::lvl_ud</text>
</a>
</g>
</g>
<!-- Node93&#45;&gt;Node114 -->
<g id="edge33" class="edge"><title>Node93&#45;&gt;Node114</title>
<path fill="none" stroke="midnightblue" d="M125.055,-166.531C240.054,-162.402 495.314,-155.529 710,-166 725.05,-166.734 741.192,-168.017 756.418,-169.454"/>
<polygon fill="midnightblue" stroke="midnightblue" points="756.494,-172.978 766.787,-170.469 757.176,-166.012 756.494,-172.978"/>
</g>
<!-- Node115 -->
<g id="node23" class="node"><title>Node115</title>
<g id="a_node23"><a xlink:href="namespacevac__vars.html#a8da702035bfcc208bd810258f9944f6a" target="_top" xlink:title="Copy a vacuum type. ">
<polygon fill="white" stroke="black" points="170,-0.5 170,-21.5 295,-21.5 295,-0.5 170,-0.5"/>
<text text-anchor="middle" x="232.5" y="-7.9" font-family="Ubuntu Mono" font-size="12.00">vac_vars::copy_vac</text>
</a>
</g>
</g>
<!-- Node93&#45;&gt;Node115 -->
<g id="edge35" class="edge"><title>Node93&#45;&gt;Node115</title>
<path fill="none" stroke="midnightblue" d="M68.4902,-158.35C80.7174,-133.369 114.595,-70.5141 161,-36 166.531,-31.8864 172.799,-28.4039 179.261,-25.4676"/>
<polygon fill="midnightblue" stroke="midnightblue" points="180.884,-28.5846 188.803,-21.5465 178.223,-22.1099 180.884,-28.5846"/>
</g>
<!-- Node116 -->
<g id="node24" class="node"><title>Node116</title>
<g id="a_node24"><a xlink:href="namespacegrid__utilities.html#a0854b2d6cc61a31f68b4afe7304077a9" target="_top" xlink:title="calculates the cosine and sine mode numbers of a function defined on a non&#45;regular grid...">
<polygon fill="white" stroke="black" points="161,-216.5 161,-237.5 304,-237.5 304,-216.5 161,-216.5"/>
<text text-anchor="middle" x="232.5" y="-223.9" font-family="Ubuntu Mono" font-size="12.00">grid_utilities::nufft</text>
</a>
</g>
</g>
<!-- Node93&#45;&gt;Node116 -->
<g id="edge36" class="edge"><title>Node93&#45;&gt;Node116</title>
<path fill="none" stroke="midnightblue" d="M93.9235,-179.503C121.194,-188.918 161.393,-202.796 191.304,-213.123"/>
<polygon fill="midnightblue" stroke="midnightblue" points="190.425,-216.522 201.019,-216.477 192.709,-209.905 190.425,-216.522"/>
</g>
<!-- Node95 -->
<g id="node3" class="node"><title>Node95</title>
<g id="a_node3"><a xlink:href="namespacehdf5__ops.html#a5108e0d6f6b492cb981505ebceedd9ee" target="_top" xlink:title="Reads a PB3D output file in HDF5 format. ">
<polygon fill="white" stroke="black" points="340,-500.5 340,-521.5 495,-521.5 495,-500.5 340,-500.5"/>
<text text-anchor="middle" x="417.5" y="-507.9" font-family="Ubuntu Mono" font-size="12.00">hdf5_ops::read_hdf5_arr</text>
</a>
</g>
</g>
<!-- Node94&#45;&gt;Node95 -->
<g id="edge2" class="edge"><title>Node94&#45;&gt;Node95</title>
<path fill="none" stroke="midnightblue" d="M304.253,-511C312.638,-511 321.269,-511 329.844,-511"/>
<polygon fill="midnightblue" stroke="midnightblue" points="329.865,-514.5 339.865,-511 329.865,-507.5 329.865,-514.5"/>
</g>
<!-- Node111 -->
<g id="node19" class="node"><title>Node111</title>
<g id="a_node19"><a xlink:href="namespacex__utilities.html#a6072ddd1fd230758795ff320c75a1f6a" target="_top" xlink:title="Gets one of the the local ranges of contiguous tensorial perturbation variables to be printed or read...">
<polygon fill="white" stroke="black" points="349,-664 349,-698 486,-698 486,-664 349,-664"/>
<text text-anchor="start" x="357" y="-684.4" font-family="Ubuntu Mono" font-size="12.00">x_utilities::get_sec</text>
<text text-anchor="middle" x="417.5" y="-671.4" font-family="Ubuntu Mono" font-size="12.00">_x_range</text>
</a>
</g>
</g>
<!-- Node94&#45;&gt;Node111 -->
<g id="edge28" class="edge"><title>Node94&#45;&gt;Node111</title>
<path fill="none" stroke="midnightblue" d="M252.054,-528.236C284.884,-558.734 353.268,-622.26 390.68,-657.014"/>
<polygon fill="midnightblue" stroke="midnightblue" points="388.46,-659.729 398.169,-663.971 393.224,-654.601 388.46,-659.729"/>
</g>
<!-- Node96 -->
<g id="node4" class="node"><title>Node96</title>
<g id="a_node4"><a xlink:href="namespacehdf5__utilities.html#a7574320980affc30a584f7776d33a51c" target="_top" xlink:title="Sets up the chunk property list and/or the 1D hyperslabs that correspond to a local subset of lim_tot...">
<polygon fill="white" stroke="black" points="555,-517 555,-551 686,-551 686,-517 555,-517"/>
<text text-anchor="start" x="563" y="-537.4" font-family="Ubuntu Mono" font-size="12.00">hdf5_utilities::set</text>
<text text-anchor="middle" x="620.5" y="-524.4" font-family="Ubuntu Mono" font-size="12.00">_1d_vars</text>
</a>
</g>
</g>
<!-- Node95&#45;&gt;Node96 -->
<g id="edge3" class="edge"><title>Node95&#45;&gt;Node96</title>
<path fill="none" stroke="midnightblue" d="M495.063,-519.761C511.416,-521.632 528.668,-523.606 544.945,-525.469"/>
<polygon fill="midnightblue" stroke="midnightblue" points="544.604,-528.953 554.937,-526.612 545.399,-521.998 544.604,-528.953"/>
</g>
<!-- Node97 -->
<g id="node5" class="node"><title>Node97</title>
<g id="a_node5"><a xlink:href="namespacempi__utilities.html#a5a789d05be41d6109c01f46cc98620c8" target="_top" xlink:title="Request access to lock of a BL (blocking) or optionally a NB (non&#45;blocking) type. ...">
<polygon fill="white" stroke="black" points="555,-623 555,-657 686,-657 686,-623 555,-623"/>
<text text-anchor="start" x="563" y="-643.4" font-family="Ubuntu Mono" font-size="12.00">mpi_utilities::lock</text>
<text text-anchor="middle" x="620.5" y="-630.4" font-family="Ubuntu Mono" font-size="12.00">_req_acc</text>
</a>
</g>
</g>
<!-- Node95&#45;&gt;Node97 -->
<g id="edge4" class="edge"><title>Node95&#45;&gt;Node97</title>
<path fill="none" stroke="midnightblue" d="M427.226,-521.757C444.72,-542.625 486.254,-588.762 531,-614 535.505,-616.541 540.282,-618.854 545.19,-620.958"/>
<polygon fill="midnightblue" stroke="midnightblue" points="544.168,-624.317 554.755,-624.747 546.747,-617.81 544.168,-624.317"/>
</g>
<!-- Node100 -->
<g id="node8" class="node"><title>Node100</title>
<g id="a_node8"><a xlink:href="namespacestr__utilities.html#a0b97e51770725a3e98ed393d26681414" target="_top" xlink:title="Convert an integer to string. ">
<polygon fill="white" stroke="black" points="1125,-431.5 1125,-452.5 1262,-452.5 1262,-431.5 1125,-431.5"/>
<text text-anchor="middle" x="1193.5" y="-438.9" font-family="Ubuntu Mono" font-size="12.00">str_utilities::i2str</text>
</a>
</g>
</g>
<!-- Node95&#45;&gt;Node100 -->
<g id="edge26" class="edge"><title>Node95&#45;&gt;Node100</title>
<path fill="none" stroke="midnightblue" d="M495.24,-505.642C618.614,-496.798 868.661,-477.927 1080,-456 1091.2,-454.838 1103.02,-453.495 1114.62,-452.111"/>
<polygon fill="midnightblue" stroke="midnightblue" points="1115.23,-455.563 1124.73,-450.888 1114.38,-448.614 1115.23,-455.563"/>
</g>
<!-- Node106 -->
<g id="node14" class="node"><title>Node106</title>
<g id="a_node14"><a xlink:href="namespacempi__utilities.html#a86f9982a0f92b51a916f832d9a3d8ba9" target="_top" xlink:title="Returns access to a lock. ">
<polygon fill="white" stroke="black" points="555,-570 555,-604 686,-604 686,-570 555,-570"/>
<text text-anchor="start" x="563" y="-590.4" font-family="Ubuntu Mono" font-size="12.00">mpi_utilities::lock</text>
<text text-anchor="middle" x="620.5" y="-577.4" font-family="Ubuntu Mono" font-size="12.00">_return_acc</text>
</a>
</g>
</g>
<!-- Node95&#45;&gt;Node106 -->
<g id="edge16" class="edge"><title>Node95&#45;&gt;Node106</title>
<path fill="none" stroke="midnightblue" d="M440.134,-521.645C462.53,-532.419 498.699,-549.136 531,-561 536.489,-563.016 542.213,-564.986 547.993,-566.882"/>
<polygon fill="midnightblue" stroke="midnightblue" points="547.15,-570.287 557.741,-569.998 549.281,-563.619 547.15,-570.287"/>
</g>
<!-- Node107 -->
<g id="node15" class="node"><title>Node107</title>
<g id="a_node15"><a xlink:href="namespacehdf5__utilities.html#aa9d76166f970a7052cd0d96c8f3ee0be" target="_top" xlink:title="Lists all variables in a HDF5 group. ">
<polygon fill="white" stroke="black" points="755,-425 755,-459 892,-459 892,-425 755,-425"/>
<text text-anchor="start" x="763" y="-445.4" font-family="Ubuntu Mono" font-size="12.00">hdf5_utilities::list</text>
<text text-anchor="middle" x="823.5" y="-432.4" font-family="Ubuntu Mono" font-size="12.00">_all_vars_in_group</text>
</a>
</g>
</g>
<!-- Node95&#45;&gt;Node107 -->
<g id="edge21" class="edge"><title>Node95&#45;&gt;Node107</title>
<path fill="none" stroke="midnightblue" d="M445.34,-500.414C467.862,-491.961 501.061,-480.492 531,-474 602.61,-458.472 685.836,-450.289 744.983,-446.101"/>
<polygon fill="midnightblue" stroke="midnightblue" points="745.263,-449.59 755,-445.413 744.784,-442.606 745.263,-449.59"/>
</g>
<!-- Node95&#45;&gt;Node108 -->
<g id="edge27" class="edge"><title>Node95&#45;&gt;Node108</title>
<path fill="none" stroke="midnightblue" d="M436.237,-500.305C458.247,-487.137 497.031,-464.275 531,-446 696.169,-357.141 898.723,-259.689 975.743,-223.038"/>
<polygon fill="midnightblue" stroke="midnightblue" points="977.395,-226.129 984.924,-218.675 974.39,-219.806 977.395,-226.129"/>
</g>
<!-- Node98 -->
<g id="node6" class="node"><title>Node98</title>
<g id="a_node6"><a xlink:href="namespacempi__utilities.html#abe5bf3ae3b6a06eda18c2f4d62ac09c5" target="_top" xlink:title="Returns the header for lock debug messages. ">
<polygon fill="white" stroke="black" points="943,-606 943,-640 1074,-640 1074,-606 943,-606"/>
<text text-anchor="start" x="951" y="-626.4" font-family="Ubuntu Mono" font-size="12.00">mpi_utilities::lock</text>
<text text-anchor="middle" x="1008.5" y="-613.4" font-family="Ubuntu Mono" font-size="12.00">_header</text>
</a>
</g>
</g>
<!-- Node97&#45;&gt;Node98 -->
<g id="edge5" class="edge"><title>Node97&#45;&gt;Node98</title>
<path fill="none" stroke="midnightblue" d="M686.276,-657.035C694.424,-659.966 702.518,-663.286 710,-667 727.678,-675.776 727.221,-686.928 746,-693 811.547,-714.195 835.002,-712.748 901,-693 931.181,-683.969 960.735,-663.33 981.022,-646.789"/>
<polygon fill="midnightblue" stroke="midnightblue" points="983.439,-649.331 988.858,-640.227 978.944,-643.964 983.439,-649.331"/>
</g>
<!-- Node101 -->
<g id="node9" class="node"><title>Node101</title>
<g id="a_node9"><a xlink:href="namespacempi__utilities.html#a3b0349e5ec825e14083e3126c3e7ba65" target="_top" xlink:title="Adds, removes or sets to active a rank from the waiting list for a lock and returns the lock waiting ...">
<polygon fill="white" stroke="black" points="758,-517 758,-551 889,-551 889,-517 758,-517"/>
<text text-anchor="start" x="766" y="-537.4" font-family="Ubuntu Mono" font-size="12.00">mpi_utilities::lock</text>
<text text-anchor="middle" x="823.5" y="-524.4" font-family="Ubuntu Mono" font-size="12.00">_wl_change</text>
</a>
</g>
</g>
<!-- Node97&#45;&gt;Node101 -->
<g id="edge8" class="edge"><title>Node97&#45;&gt;Node101</title>
<path fill="none" stroke="midnightblue" d="M686.258,-623.71C694.409,-620.869 702.509,-617.637 710,-614 741.162,-598.872 772.997,-575.326 794.812,-557.689"/>
<polygon fill="midnightblue" stroke="midnightblue" points="797.15,-560.298 802.66,-551.248 792.709,-554.886 797.15,-560.298"/>
</g>
<!-- Node103 -->
<g id="node11" class="node"><title>Node103</title>
<g id="a_node11"><a xlink:href="namespacempi__utilities.html#a74e2e82b561f403ca8087c3925f76e29" target="_top" xlink:title="Decides whether a waiting list is empty. ">
<polygon fill="white" stroke="black" points="746,-608.5 746,-629.5 901,-629.5 901,-608.5 746,-608.5"/>
<text text-anchor="middle" x="823.5" y="-615.9" font-family="Ubuntu Mono" font-size="12.00">mpi_utilities::wl_empty</text>
</a>
</g>
</g>
<!-- Node97&#45;&gt;Node103 -->
<g id="edge11" class="edge"><title>Node97&#45;&gt;Node103</title>
<path fill="none" stroke="midnightblue" d="M686.204,-633.24C701.98,-631.592 719.11,-629.802 735.73,-628.066"/>
<polygon fill="midnightblue" stroke="midnightblue" points="736.413,-631.513 745.995,-626.993 735.686,-624.551 736.413,-631.513"/>
</g>
<!-- Node104 -->
<g id="node12" class="node"><title>Node104</title>
<g id="a_node12"><a xlink:href="namespacempi__utilities.html#a263a30c79639d97f5faffdb566b5a811" target="_top" xlink:title="Notifies a rank that they can get the lock. ">
<polygon fill="white" stroke="black" points="758,-649 758,-683 889,-683 889,-649 758,-649"/>
<text text-anchor="start" x="766" y="-669.4" font-family="Ubuntu Mono" font-size="12.00">mpi_utilities::lock</text>
<text text-anchor="middle" x="823.5" y="-656.4" font-family="Ubuntu Mono" font-size="12.00">_notify</text>
</a>
</g>
</g>
<!-- Node97&#45;&gt;Node104 -->
<g id="edge12" class="edge"><title>Node97&#45;&gt;Node104</title>
<path fill="none" stroke="midnightblue" d="M686.204,-648.37C705.839,-650.91 727.572,-653.721 747.807,-656.338"/>
<polygon fill="midnightblue" stroke="midnightblue" points="747.551,-659.834 757.917,-657.646 748.449,-652.892 747.551,-659.834"/>
</g>
<!-- Node105 -->
<g id="node13" class="node"><title>Node105</title>
<g id="a_node13"><a xlink:href="namespacempi__utilities.html#a17c39b0498528e2532c8347b0b7dec86" target="_top" xlink:title="Get notified that the rank can get the lock. ">
<polygon fill="white" stroke="black" points="758,-741 758,-775 889,-775 889,-741 758,-741"/>
<text text-anchor="start" x="766" y="-761.4" font-family="Ubuntu Mono" font-size="12.00">mpi_utilities::lock</text>
<text text-anchor="middle" x="823.5" y="-748.4" font-family="Ubuntu Mono" font-size="12.00">_get_notified</text>
</a>
</g>
</g>
<!-- Node97&#45;&gt;Node105 -->
<g id="edge14" class="edge"><title>Node97&#45;&gt;Node105</title>
<path fill="none" stroke="midnightblue" d="M686.131,-653.596C694.657,-657.095 702.891,-661.488 710,-667 734.276,-685.822 722.696,-705.987 746,-726 750.408,-729.785 755.327,-733.173 760.488,-736.193"/>
<polygon fill="midnightblue" stroke="midnightblue" points="758.883,-739.304 769.351,-740.936 762.185,-733.132 758.883,-739.304"/>
</g>
<!-- Node99 -->
<g id="node7" class="node"><title>Node99</title>
<g id="a_node7"><a xlink:href="namespacestr__utilities.html#acb8c4e66aead51f178e47fdea8d7a7db" target="_top" xlink:title="Convert an integer to string. ">
<polygon fill="white" stroke="black" points="1122,-612.5 1122,-633.5 1265,-633.5 1265,-612.5 1122,-612.5"/>
<text text-anchor="middle" x="1193.5" y="-619.9" font-family="Ubuntu Mono" font-size="12.00">str_utilities::ii2str</text>
</a>
</g>
</g>
<!-- Node98&#45;&gt;Node99 -->
<g id="edge6" class="edge"><title>Node98&#45;&gt;Node99</title>
<path fill="none" stroke="midnightblue" d="M1074.02,-623C1086.2,-623 1099.08,-623 1111.68,-623"/>
<polygon fill="midnightblue" stroke="midnightblue" points="1111.72,-626.5 1121.72,-623 1111.72,-619.5 1111.72,-626.5"/>
</g>
<!-- Node98&#45;&gt;Node100 -->
<g id="edge7" class="edge"><title>Node98&#45;&gt;Node100</title>
<path fill="none" stroke="midnightblue" d="M1027.21,-605.744C1041.5,-591.812 1062.08,-571.686 1080,-554 1113.69,-520.747 1152.81,-481.701 1174.91,-459.603"/>
<polygon fill="midnightblue" stroke="midnightblue" points="1177.39,-462.076 1181.98,-452.53 1172.44,-457.127 1177.39,-462.076"/>
</g>
<!-- Node101&#45;&gt;Node98 -->
<g id="edge9" class="edge"><title>Node101&#45;&gt;Node98</title>
<path fill="none" stroke="midnightblue" d="M867.305,-551.061C878.373,-555.702 890.209,-560.869 901,-566 923.665,-576.776 948.413,-589.933 968.343,-600.89"/>
<polygon fill="midnightblue" stroke="midnightblue" points="966.692,-603.977 977.137,-605.753 970.08,-597.851 966.692,-603.977"/>
</g>
<!-- Node102 -->
<g id="node10" class="node"><title>Node102</title>
<g id="a_node10"><a xlink:href="namespacestr__utilities.html#ac778d706b2e021672618939ab58fdd32" target="_top" xlink:title="Convert a real (double) to string. ">
<polygon fill="white" stroke="black" points="937,-523.5 937,-544.5 1080,-544.5 1080,-523.5 937,-523.5"/>
<text text-anchor="middle" x="1008.5" y="-530.9" font-family="Ubuntu Mono" font-size="12.00">str_utilities::r2strt</text>
</a>
</g>
</g>
<!-- Node101&#45;&gt;Node102 -->
<g id="edge10" class="edge"><title>Node101&#45;&gt;Node102</title>
<path fill="none" stroke="midnightblue" d="M889.019,-534C901.199,-534 914.079,-534 926.685,-534"/>
<polygon fill="midnightblue" stroke="midnightblue" points="926.717,-537.5 936.717,-534 926.717,-530.5 926.717,-537.5"/>
</g>
<!-- Node104&#45;&gt;Node98 -->
<g id="edge13" class="edge"><title>Node104&#45;&gt;Node98</title>
<path fill="none" stroke="midnightblue" d="M889.019,-650.84C903.233,-647.5 918.4,-643.936 932.972,-640.512"/>
<polygon fill="midnightblue" stroke="midnightblue" points="934.013,-643.863 942.947,-638.168 932.411,-637.049 934.013,-643.863"/>
</g>
<!-- Node105&#45;&gt;Node98 -->
<g id="edge15" class="edge"><title>Node105&#45;&gt;Node98</title>
<path fill="none" stroke="midnightblue" d="M873.237,-740.828C882.778,-736.588 892.464,-731.622 901,-726 934.435,-703.978 966.582,-670.659 986.648,-647.921"/>
<polygon fill="midnightblue" stroke="midnightblue" points="989.305,-650.199 993.224,-640.356 984.022,-645.607 989.305,-650.199"/>
</g>
<!-- Node106&#45;&gt;Node98 -->
<g id="edge17" class="edge"><title>Node106&#45;&gt;Node98</title>
<path fill="none" stroke="midnightblue" d="M686.173,-586.511C743.007,-586.858 827.82,-589.263 901,-599 911.322,-600.373 922.119,-602.263 932.712,-604.383"/>
<polygon fill="midnightblue" stroke="midnightblue" points="932.279,-607.868 942.783,-606.478 933.705,-601.015 932.279,-607.868"/>
</g>
<!-- Node106&#45;&gt;Node101 -->
<g id="edge18" class="edge"><title>Node106&#45;&gt;Node101</title>
<path fill="none" stroke="midnightblue" d="M686.204,-569.939C705.929,-564.738 727.77,-558.979 748.084,-553.622"/>
<polygon fill="midnightblue" stroke="midnightblue" points="749.14,-556.963 757.917,-551.029 747.355,-550.195 749.14,-556.963"/>
</g>
<!-- Node106&#45;&gt;Node103 -->
<g id="edge19" class="edge"><title>Node106&#45;&gt;Node103</title>
<path fill="none" stroke="midnightblue" d="M686.204,-597.301C705.447,-600.365 726.703,-603.749 746.591,-606.915"/>
<polygon fill="midnightblue" stroke="midnightblue" points="746.111,-610.383 756.537,-608.498 747.212,-603.47 746.111,-610.383"/>
</g>
<!-- Node106&#45;&gt;Node104 -->
<g id="edge20" class="edge"><title>Node106&#45;&gt;Node104</title>
<path fill="none" stroke="midnightblue" d="M686.211,-604.167C694.37,-607.077 702.484,-610.355 710,-614 727.527,-622.5 728.66,-630.123 746,-639 750.059,-641.078 754.315,-643.062 758.652,-644.943"/>
<polygon fill="midnightblue" stroke="midnightblue" points="757.656,-648.318 768.236,-648.892 760.323,-641.846 757.656,-648.318"/>
</g>
<!-- Node107&#45;&gt;Node100 -->
<g id="edge25" class="edge"><title>Node107&#45;&gt;Node100</title>
<path fill="none" stroke="midnightblue" d="M892.426,-442C955.311,-442 1048.77,-442 1114.64,-442"/>
<polygon fill="midnightblue" stroke="midnightblue" points="1114.97,-445.5 1124.97,-442 1114.97,-438.5 1114.97,-445.5"/>
</g>
<!-- Node107&#45;&gt;Node108 -->
<g id="edge22" class="edge"><title>Node107&#45;&gt;Node108</title>
<path fill="none" stroke="midnightblue" d="M837.956,-424.793C871.463,-381.948 958.415,-270.765 993.001,-226.539"/>
<polygon fill="midnightblue" stroke="midnightblue" points="995.786,-228.66 999.189,-218.627 990.272,-224.348 995.786,-228.66"/>
</g>
<!-- Node109 -->
<g id="node17" class="node"><title>Node109</title>
<g id="a_node17"><a xlink:href="namespacemessages.html#a82dddaab795b78b3d39e1ff1aab2f665" target="_top" xlink:title="Returns the memory usage in kilobytes. ">
<polygon fill="white" stroke="black" points="1116,-217.5 1116,-238.5 1271,-238.5 1271,-217.5 1116,-217.5"/>
<text text-anchor="middle" x="1193.5" y="-224.9" font-family="Ubuntu Mono" font-size="12.00">messages::get_mem_usage</text>
</a>
</g>
</g>
<!-- Node108&#45;&gt;Node109 -->
<g id="edge23" class="edge"><title>Node108&#45;&gt;Node109</title>
<path fill="none" stroke="midnightblue" d="M1062.43,-213.785C1075.98,-215.266 1090.92,-216.898 1105.68,-218.512"/>
<polygon fill="midnightblue" stroke="midnightblue" points="1105.54,-222.017 1115.86,-219.625 1106.3,-215.059 1105.54,-222.017"/>
</g>
<!-- Node110 -->
<g id="node18" class="node"><title>Node110</title>
<g id="a_node18"><a xlink:href="namespacemessages.html#a61fd0b51b5e37d58fdc993c01792a3fd" target="_top" xlink:title="Returns the time. ">
<polygon fill="white" stroke="black" points="1128,-177.5 1128,-198.5 1259,-198.5 1259,-177.5 1128,-177.5"/>
<text text-anchor="middle" x="1193.5" y="-184.9" font-family="Ubuntu Mono" font-size="12.00">messages::get_clock</text>
</a>
</g>
</g>
<!-- Node108&#45;&gt;Node110 -->
<g id="edge24" class="edge"><title>Node108&#45;&gt;Node110</title>
<path fill="none" stroke="midnightblue" d="M1062.43,-202.215C1079.62,-200.337 1099.03,-198.215 1117.52,-196.195"/>
<polygon fill="midnightblue" stroke="midnightblue" points="1118.11,-199.651 1127.67,-195.085 1117.35,-192.693 1118.11,-199.651"/>
</g>
<!-- Node111&#45;&gt;Node112 -->
<g id="edge29" class="edge"><title>Node111&#45;&gt;Node112</title>
<path fill="none" stroke="midnightblue" d="M486.008,-696.658C500.828,-700.08 516.441,-703.673 531,-707 541.241,-709.34 552.151,-711.819 562.688,-714.204"/>
<polygon fill="midnightblue" stroke="midnightblue" points="562.116,-717.663 572.642,-716.455 563.661,-710.836 562.116,-717.663"/>
</g>
<!-- Node113 -->
<g id="node21" class="node"><title>Node113</title>
<g id="a_node21"><a xlink:href="namespacex__utilities.html#a689aca7fedb49c43c5a65a18d557259f" target="_top" xlink:title="Determines whether a variable needs to be considered: ">
<polygon fill="white" stroke="black" points="531,-676.5 531,-697.5 710,-697.5 710,-676.5 531,-676.5"/>
<text text-anchor="middle" x="620.5" y="-683.9" font-family="Ubuntu Mono" font-size="12.00">x_utilities::is_necessary_x</text>
</a>
</g>
</g>
<!-- Node111&#45;&gt;Node113 -->
<g id="edge30" class="edge"><title>Node111&#45;&gt;Node113</title>
<path fill="none" stroke="midnightblue" d="M486.269,-683.023C497.376,-683.355 509.081,-683.704 520.755,-684.052"/>
<polygon fill="midnightblue" stroke="midnightblue" points="520.89,-687.558 530.99,-684.358 521.099,-680.561 520.89,-687.558"/>
</g>
<!-- Node114&#45;&gt;Node108 -->
<g id="edge34" class="edge"><title>Node114&#45;&gt;Node108</title>
<path fill="none" stroke="midnightblue" d="M880.4,-186.469C900.725,-189.912 923.825,-193.826 944.706,-197.363"/>
<polygon fill="midnightblue" stroke="midnightblue" points="944.313,-200.846 954.757,-199.065 945.482,-193.944 944.313,-200.846"/>
</g>
<!-- Node117 -->
<g id="node25" class="node"><title>Node117</title>
<g id="a_node25"><a xlink:href="namespacegrid__utilities.html#af8493f3dc2f6438d1fe98214dc20b884" target="_top" xlink:title="Set up the factors for the interpolation calculation in a matrix A using a polynomial order ord...">
<polygon fill="white" stroke="black" points="937,-379 937,-413 1080,-413 1080,-379 937,-379"/>
<text text-anchor="start" x="945" y="-399.4" font-family="Ubuntu Mono" font-size="12.00">grid_utilities::setup</text>
<text text-anchor="middle" x="1008.5" y="-386.4" font-family="Ubuntu Mono" font-size="12.00">_interp_data</text>
</a>
</g>
</g>
<!-- Node116&#45;&gt;Node117 -->
<g id="edge37" class="edge"><title>Node116&#45;&gt;Node117</title>
<path fill="none" stroke="midnightblue" d="M253.351,-237.649C300.158,-262.206 421.722,-322.778 531,-350 667.168,-383.921 831.001,-393.107 926.77,-395.43"/>
<polygon fill="midnightblue" stroke="midnightblue" points="926.887,-398.934 936.963,-395.658 927.044,-391.935 926.887,-398.934"/>
</g>
<!-- Node118 -->
<g id="node26" class="node"><title>Node118</title>
<g id="a_node26"><a xlink:href="namespaceoutput__ops.html#a50bfbb88cc91805469353c3ff47b3e2e" target="_top" xlink:title="Use external program to draw a plot. ">
<polygon fill="white" stroke="black" points="352,-216.5 352,-237.5 483,-237.5 483,-216.5 352,-216.5"/>
<text text-anchor="middle" x="417.5" y="-223.9" font-family="Ubuntu Mono" font-size="12.00">output_ops::draw_ex</text>
</a>
</g>
</g>
<!-- Node116&#45;&gt;Node118 -->
<g id="edge39" class="edge"><title>Node116&#45;&gt;Node118</title>
<path fill="none" stroke="midnightblue" d="M304.253,-227C316.511,-227 329.293,-227 341.656,-227"/>
<polygon fill="midnightblue" stroke="midnightblue" points="341.921,-230.5 351.921,-227 341.921,-223.5 341.921,-230.5"/>
</g>
<!-- Node117&#45;&gt;Node100 -->
<g id="edge38" class="edge"><title>Node117&#45;&gt;Node100</title>
<path fill="none" stroke="midnightblue" d="M1077.38,-413.063C1098.26,-418.311 1120.89,-424.001 1140.52,-428.935"/>
<polygon fill="midnightblue" stroke="midnightblue" points="1139.94,-432.397 1150.49,-431.44 1141.65,-425.608 1139.94,-432.397"/>
</g>
<!-- Node118&#45;&gt;Node100 -->
<g id="edge40" class="edge"><title>Node118&#45;&gt;Node100</title>
<path fill="none" stroke="midnightblue" d="M437.69,-237.653C453.769,-247.01 476.927,-261.515 495,-277 513.162,-292.562 509.635,-306.249 531,-317 640.468,-372.085 964.267,-328.709 1080,-369 1115.72,-381.435 1151.4,-407.48 1172.72,-424.858"/>
<polygon fill="midnightblue" stroke="midnightblue" points="1170.49,-427.556 1180.41,-431.267 1174.97,-422.178 1170.49,-427.556"/>
</g>
<!-- Node118&#45;&gt;Node108 -->
<g id="edge41" class="edge"><title>Node118&#45;&gt;Node108</title>
<path fill="none" stroke="midnightblue" d="M432.85,-216.393C453.38,-201.904 492.878,-176.524 531,-166 689.562,-122.229 740.591,-120.573 901,-157 930.645,-163.732 961.68,-179.777 982.549,-192.087"/>
<polygon fill="midnightblue" stroke="midnightblue" points="981.013,-195.249 991.38,-197.434 984.638,-189.261 981.013,-195.249"/>
</g>
<!-- Node118&#45;&gt;Node114 -->
<g id="edge46" class="edge"><title>Node118&#45;&gt;Node114</title>
<path fill="none" stroke="midnightblue" d="M438.98,-216.444C461.033,-205.692 497.475,-189.681 531,-183 607.374,-167.78 697.232,-168.687 756.782,-171.834"/>
<polygon fill="midnightblue" stroke="midnightblue" points="756.623,-175.33 766.805,-172.4 757.018,-168.341 756.623,-175.33"/>
</g>
<!-- Node119 -->
<g id="node27" class="node"><title>Node119</title>
<g id="a_node27"><a xlink:href="namespacefiles__utilities.html#ac6066df405564ba2f5e3c4bba726c1f8" target="_top" xlink:title="Search for available new unit. ">
<polygon fill="white" stroke="black" points="537,-192.5 537,-213.5 704,-213.5 704,-192.5 537,-192.5"/>
<text text-anchor="middle" x="620.5" y="-199.9" font-family="Ubuntu Mono" font-size="12.00">files_utilities::nextunit</text>
</a>
</g>
</g>
<!-- Node118&#45;&gt;Node119 -->
<g id="edge42" class="edge"><title>Node118&#45;&gt;Node119</title>
<path fill="none" stroke="midnightblue" d="M483.204,-219.274C497.098,-217.615 512.041,-215.831 526.761,-214.073"/>
<polygon fill="midnightblue" stroke="midnightblue" points="527.386,-217.524 536.9,-212.863 526.556,-210.573 527.386,-217.524"/>
</g>
<!-- Node120 -->
<g id="node28" class="node"><title>Node120</title>
<g id="a_node28"><a xlink:href="namespaceoutput__ops.html#aa9e4855511b6ea16a08b3efb587bec51" target="_top" xlink:title="Executes command line, or displays a message if disabled. ">
<polygon fill="white" stroke="black" points="543,-233 543,-267 698,-267 698,-233 543,-233"/>
<text text-anchor="start" x="551" y="-253.4" font-family="Ubuntu Mono" font-size="12.00">output_ops::use_execute</text>
<text text-anchor="middle" x="620.5" y="-240.4" font-family="Ubuntu Mono" font-size="12.00">_command_line</text>
</a>
</g>
</g>
<!-- Node118&#45;&gt;Node120 -->
<g id="edge43" class="edge"><title>Node118&#45;&gt;Node120</title>
<path fill="none" stroke="midnightblue" d="M483.204,-234.404C498.98,-236.209 516.11,-238.169 532.73,-240.071"/>
<polygon fill="midnightblue" stroke="midnightblue" points="532.662,-243.586 542.995,-241.246 533.458,-236.631 532.662,-243.586"/>
</g>
<!-- Node121 -->
<g id="node29" class="node"><title>Node121</title>
<g id="a_node29"><a xlink:href="namespacestr__utilities.html#a92ac6c0af1979df094de1caddd28ade0" target="_top" xlink:title="Convert a real (double) to string. ">
<polygon fill="white" stroke="black" points="552,-286.5 552,-307.5 689,-307.5 689,-286.5 552,-286.5"/>
<text text-anchor="middle" x="620.5" y="-293.9" font-family="Ubuntu Mono" font-size="12.00">str_utilities::r2str</text>
</a>
</g>
</g>
<!-- Node118&#45;&gt;Node121 -->
<g id="edge47" class="edge"><title>Node118&#45;&gt;Node121</title>
<path fill="none" stroke="midnightblue" d="M439.623,-237.552C461.906,-248.36 498.261,-265.082 531,-276 539.691,-278.898 548.988,-281.561 558.17,-283.947"/>
<polygon fill="midnightblue" stroke="midnightblue" points="557.503,-287.388 568.054,-286.425 559.205,-280.598 557.503,-287.388"/>
</g>
<!-- Node120&#45;&gt;Node108 -->
<g id="edge44" class="edge"><title>Node120&#45;&gt;Node108</title>
<path fill="none" stroke="midnightblue" d="M698.223,-241.652C770.476,-233.79 877.392,-222.157 944.708,-214.832"/>
<polygon fill="midnightblue" stroke="midnightblue" points="945.189,-218.301 954.752,-213.739 944.432,-211.342 945.189,-218.301"/>
</g>
<!-- Node120&#45;&gt;Node114 -->
<g id="edge45" class="edge"><title>Node120&#45;&gt;Node114</title>
<path fill="none" stroke="midnightblue" d="M680.303,-232.89C690.265,-229.755 700.466,-226.395 710,-223 737.012,-213.38 767.046,-201.011 789.283,-191.523"/>
<polygon fill="midnightblue" stroke="midnightblue" points="790.801,-194.681 798.608,-187.518 788.038,-188.249 790.801,-194.681"/>
</g>
</g>
</svg>
