<?xml version="1.0" encoding="UTF-8" standalone="no"?>
<!DOCTYPE svg PUBLIC "-//W3C//DTD SVG 1.1//EN"
 "http://www.w3.org/Graphics/SVG/1.1/DTD/svg11.dtd">
<!-- Generated by graphviz version 2.43.0 (0)
 -->
<!-- Title: str_utilities::c2str Pages: 1 -->
<svg width="998pt" height="167pt"
 viewBox="0.00 0.00 998.00 166.50" xmlns="http://www.w3.org/2000/svg" xmlns:xlink="http://www.w3.org/1999/xlink">
<g id="graph0" class="graph" transform="scale(1 1) rotate(0) translate(4 162.5)">
<title>str_utilities::c2str</title>
<polygon fill="white" stroke="transparent" points="-4,4 -4,-162.5 994,-162.5 994,4 -4,4"/>
<!-- Node1 -->
<g id="node1" class="node">
<title>Node1</title>
<g id="a_node1"><a xlink:title="Convert a complex (double) to string.">
<polygon fill="#bfbfbf" stroke="black" points="872,-62.5 872,-83.5 990,-83.5 990,-62.5 872,-62.5"/>
<text text-anchor="middle" x="931" y="-69.9" font-family="Ubuntu Mono" font-size="12.00">str_utilities::c2str</text>
</a>
</g>
</g>
<!-- Node2 -->
<g id="node2" class="node">
<title>Node2</title>
<g id="a_node2"><a xlink:href="namespacegrid__utilities.html#a97e3106dbdc10b726af74afa113ba533" target="_top" xlink:title="Calculates volume integral on a 3D grid.">
<polygon fill="white" stroke="black" points="698,-122 698,-156 817,-156 817,-122 698,-122"/>
<text text-anchor="start" x="706" y="-142.4" font-family="Ubuntu Mono" font-size="12.00">grid_utilities::calc</text>
<text text-anchor="middle" x="757.5" y="-129.4" font-family="Ubuntu Mono" font-size="12.00">_int_vol</text>
</a>
</g>
</g>
<!-- Node1&#45;&gt;Node2 -->
<g id="edge1" class="edge">
<title>Node1&#45;&gt;Node2</title>
<path fill="none" stroke="midnightblue" d="M892.79,-87.32C866.31,-97.51 830.64,-111.24 802.71,-121.98"/>
<polygon fill="midnightblue" stroke="midnightblue" points="894.37,-90.46 902.45,-83.6 891.86,-83.93 894.37,-90.46"/>
</g>
<!-- Node7 -->
<g id="node7" class="node">
<title>Node7</title>
<g id="a_node7"><a xlink:href="namespacetest.html#a0d4cb791bf762b2e52260fea7644a3ee" target="_top" xlink:title="Tests calculation of volume integral.">
<polygon fill="white" stroke="black" points="500,-90.5 500,-111.5 643,-111.5 643,-90.5 500,-90.5"/>
<text text-anchor="middle" x="571.5" y="-97.9" font-family="Ubuntu Mono" font-size="12.00">test::test_calc_int_vol</text>
</a>
</g>
</g>
<!-- Node1&#45;&gt;Node7 -->
<g id="edge16" class="edge">
<title>Node1&#45;&gt;Node7</title>
<path fill="none" stroke="midnightblue" d="M861.58,-78.36C798.86,-83.27 706.37,-90.51 643,-95.48"/>
<polygon fill="midnightblue" stroke="midnightblue" points="862.07,-81.83 871.77,-77.56 861.52,-74.85 862.07,-81.83"/>
</g>
<!-- Node10 -->
<g id="node10" class="node">
<title>Node10</title>
<g id="a_node10"><a xlink:href="namespaceslepc__ops.html#a24d97496000ed55f1d11e4d436e084a6" target="_top" xlink:title="Stores the results.">
<polygon fill="white" stroke="black" points="679,-43.5 679,-64.5 836,-64.5 836,-43.5 679,-43.5"/>
<text text-anchor="middle" x="757.5" y="-50.9" font-family="Ubuntu Mono" font-size="12.00">slepc_ops::store_results</text>
</a>
</g>
</g>
<!-- Node1&#45;&gt;Node10 -->
<g id="edge10" class="edge">
<title>Node1&#45;&gt;Node10</title>
<path fill="none" stroke="midnightblue" d="M861.83,-65.45C853.43,-64.52 844.8,-63.56 836.27,-62.62"/>
<polygon fill="midnightblue" stroke="midnightblue" points="861.61,-68.94 871.94,-66.57 862.38,-61.99 861.61,-68.94"/>
</g>
<!-- Node13 -->
<g id="node13" class="node">
<title>Node13</title>
<g id="a_node13"><a xlink:href="namespacerich__ops.html#a3cf72a3ed0806ac9ddff262a00b2e33d" target="_top" xlink:title="Terminate the Richardson extrapolation system.">
<polygon fill="white" stroke="black" points="692,-0.5 692,-21.5 823,-21.5 823,-0.5 692,-0.5"/>
<text text-anchor="middle" x="757.5" y="-7.9" font-family="Ubuntu Mono" font-size="12.00">rich_ops::term_rich</text>
</a>
</g>
</g>
<!-- Node1&#45;&gt;Node13 -->
<g id="edge14" class="edge">
<title>Node1&#45;&gt;Node13</title>
<path fill="none" stroke="midnightblue" d="M896.91,-58.28C879.05,-50.58 856.51,-41.28 836,-34 823.43,-29.54 809.52,-25.23 796.99,-21.56"/>
<polygon fill="midnightblue" stroke="midnightblue" points="895.75,-61.59 906.31,-62.36 898.54,-55.17 895.75,-61.59"/>
</g>
<!-- Node3 -->
<g id="node3" class="node">
<title>Node3</title>
<g id="a_node3"><a xlink:href="namespacesol__ops.html#ae094c2a5235324b4aadb53623978d191" target="_top" xlink:title="Calculate the energy terms in the energy decomposition.">
<polygon fill="white" stroke="black" points="519,-130.5 519,-151.5 624,-151.5 624,-130.5 519,-130.5"/>
<text text-anchor="middle" x="571.5" y="-137.9" font-family="Ubuntu Mono" font-size="12.00">sol_ops::calc_e</text>
</a>
</g>
</g>
<!-- Node2&#45;&gt;Node3 -->
<g id="edge2" class="edge">
<title>Node2&#45;&gt;Node3</title>
<path fill="none" stroke="midnightblue" d="M687.61,-139.75C666.58,-139.98 643.83,-140.22 624.15,-140.44"/>
<polygon fill="midnightblue" stroke="midnightblue" points="687.81,-143.25 697.78,-139.64 687.74,-136.25 687.81,-143.25"/>
</g>
<!-- Node2&#45;&gt;Node7 -->
<g id="edge6" class="edge">
<title>Node2&#45;&gt;Node7</title>
<path fill="none" stroke="midnightblue" d="M687.81,-124.81C666.51,-120.41 643.42,-115.65 623.54,-111.54"/>
<polygon fill="midnightblue" stroke="midnightblue" points="687.27,-128.28 697.78,-126.87 688.69,-121.42 687.27,-128.28"/>
</g>
<!-- Node4 -->
<g id="node4" class="node">
<title>Node4</title>
<g id="a_node4"><a xlink:href="namespacesol__ops.html#aee487ffbe5d0edff5e37a6500748941c" target="_top" xlink:title="Decomposes the plasma potential and kinetic energy in its individual terms for an individual Eigenval...">
<polygon fill="white" stroke="black" points="312.5,-124 312.5,-158 449.5,-158 449.5,-124 312.5,-124"/>
<text text-anchor="start" x="320.5" y="-144.4" font-family="Ubuntu Mono" font-size="12.00">sol_ops::decompose</text>
<text text-anchor="middle" x="381" y="-131.4" font-family="Ubuntu Mono" font-size="12.00">_energy</text>
</a>
</g>
</g>
<!-- Node3&#45;&gt;Node4 -->
<g id="edge3" class="edge">
<title>Node3&#45;&gt;Node4</title>
<path fill="none" stroke="midnightblue" d="M508.99,-141C490.04,-141 469.07,-141 449.72,-141"/>
<polygon fill="midnightblue" stroke="midnightblue" points="508.99,-144.5 518.99,-141 508.99,-137.5 508.99,-144.5"/>
</g>
<!-- Node5 -->
<g id="node5" class="node">
<title>Node5</title>
<g id="a_node5"><a xlink:href="namespacedriver__post.html#a33b3c6f9018a0ddc92dce77394b8ab37" target="_top" xlink:title="The main driver routine for postprocessing.">
<polygon fill="white" stroke="black" points="78,-128.5 78,-149.5 262,-149.5 262,-128.5 78,-128.5"/>
<text text-anchor="middle" x="170" y="-135.9" font-family="Ubuntu Mono" font-size="12.00">driver_post::run_driver_post</text>
</a>
</g>
</g>
<!-- Node4&#45;&gt;Node5 -->
<g id="edge4" class="edge">
<title>Node4&#45;&gt;Node5</title>
<path fill="none" stroke="midnightblue" d="M302.16,-140.26C289.17,-140.13 275.6,-140 262.31,-139.87"/>
<polygon fill="midnightblue" stroke="midnightblue" points="302.4,-143.76 312.43,-140.35 302.47,-136.76 302.4,-143.76"/>
</g>
<!-- Node6 -->
<g id="node6" class="node">
<title>Node6</title>
<g id="a_node6"><a xlink:href="POST_8f90.html#ac289b64ac4671fea0b4f2298ba1188a1" target="_top" xlink:title="Peeling Ballooning in 3D: postprocessing.">
<polygon fill="white" stroke="black" points="0,-106.5 0,-127.5 42,-127.5 42,-106.5 0,-106.5"/>
<text text-anchor="middle" x="21" y="-113.9" font-family="Ubuntu Mono" font-size="12.00">post</text>
</a>
</g>
</g>
<!-- Node5&#45;&gt;Node6 -->
<g id="edge5" class="edge">
<title>Node5&#45;&gt;Node6</title>
<path fill="none" stroke="midnightblue" d="M88.36,-126.93C71.18,-124.36 54.51,-121.87 42.18,-120.02"/>
<polygon fill="midnightblue" stroke="midnightblue" points="88.11,-130.43 98.51,-128.45 89.14,-123.51 88.11,-130.43"/>
</g>
<!-- Node8 -->
<g id="node8" class="node">
<title>Node8</title>
<g id="a_node8"><a xlink:href="namespacetest.html#aca21ee464c0b1f4b617177afdde110ec" target="_top" xlink:title="Performs generic tests.">
<polygon fill="white" stroke="black" points="318,-83.5 318,-104.5 444,-104.5 444,-83.5 318,-83.5"/>
<text text-anchor="middle" x="381" y="-90.9" font-family="Ubuntu Mono" font-size="12.00">test::generic_tests</text>
</a>
</g>
</g>
<!-- Node7&#45;&gt;Node8 -->
<g id="edge7" class="edge">
<title>Node7&#45;&gt;Node8</title>
<path fill="none" stroke="midnightblue" d="M489.38,-97.99C474.22,-97.42 458.61,-96.84 444.14,-96.31"/>
<polygon fill="midnightblue" stroke="midnightblue" points="489.65,-101.5 499.77,-98.37 489.91,-94.5 489.65,-101.5"/>
</g>
<!-- Node8&#45;&gt;Node6 -->
<g id="edge9" class="edge">
<title>Node8&#45;&gt;Node6</title>
<path fill="none" stroke="midnightblue" d="M307.48,-98.66C224.18,-104.01 92.56,-112.47 42.36,-115.69"/>
<polygon fill="midnightblue" stroke="midnightblue" points="307.89,-102.14 317.64,-98.01 307.44,-95.15 307.89,-102.14"/>
</g>
<!-- Node9 -->
<g id="node9" class="node">
<title>Node9</title>
<g id="a_node9"><a xlink:href="PB3D_8f90.html#afaee01f014ab3398eecac996b2795fd2" target="_top" xlink:title="Peeling Ballooning in 3D.">
<polygon fill="white" stroke="black" points="146.5,-43.5 146.5,-64.5 193.5,-64.5 193.5,-43.5 146.5,-43.5"/>
<text text-anchor="middle" x="170" y="-50.9" font-family="Ubuntu Mono" font-size="12.00">pb3d</text>
</a>
</g>
</g>
<!-- Node8&#45;&gt;Node9 -->
<g id="edge8" class="edge">
<title>Node8&#45;&gt;Node9</title>
<path fill="none" stroke="midnightblue" d="M315.07,-81.57C273.7,-73.66 222.62,-63.88 193.73,-58.35"/>
<polygon fill="midnightblue" stroke="midnightblue" points="314.61,-85.05 325.09,-83.49 315.92,-78.17 314.61,-85.05"/>
</g>
<!-- Node11 -->
<g id="node11" class="node">
<title>Node11</title>
<g id="a_node11"><a xlink:href="namespaceslepc__ops.html#a79c420987056c225931b51c8d30ece1f" target="_top" xlink:title="Solve the eigenvalue system using SLEPC.">
<polygon fill="white" stroke="black" points="505,-37 505,-71 638,-71 638,-37 505,-37"/>
<text text-anchor="start" x="513" y="-57.4" font-family="Ubuntu Mono" font-size="12.00">slepc_ops::solve_ev</text>
<text text-anchor="middle" x="571.5" y="-44.4" font-family="Ubuntu Mono" font-size="12.00">_system_slepc</text>
</a>
</g>
</g>
<!-- Node10&#45;&gt;Node11 -->
<g id="edge11" class="edge">
<title>Node10&#45;&gt;Node11</title>
<path fill="none" stroke="midnightblue" d="M668.52,-54C658.27,-54 647.95,-54 638.07,-54"/>
<polygon fill="midnightblue" stroke="midnightblue" points="668.73,-57.5 678.73,-54 668.73,-50.5 668.73,-57.5"/>
</g>
<!-- Node12 -->
<g id="node12" class="node">
<title>Node12</title>
<g id="a_node12"><a xlink:href="namespacedriver__sol.html#ad3b1765b3ecc5f82129bfc683ffc6c5c" target="_top" xlink:title="Main driver of PB3D solution part.">
<polygon fill="white" stroke="black" points="298,-43.5 298,-64.5 464,-64.5 464,-43.5 298,-43.5"/>
<text text-anchor="middle" x="381" y="-50.9" font-family="Ubuntu Mono" font-size="12.00">driver_sol::run_driver_sol</text>
</a>
</g>
</g>
<!-- Node11&#45;&gt;Node12 -->
<g id="edge12" class="edge">
<title>Node11&#45;&gt;Node12</title>
<path fill="none" stroke="midnightblue" d="M494.82,-54C484.68,-54 474.25,-54 464.01,-54"/>
<polygon fill="midnightblue" stroke="midnightblue" points="494.84,-57.5 504.84,-54 494.84,-50.5 494.84,-57.5"/>
</g>
<!-- Node12&#45;&gt;Node9 -->
<g id="edge13" class="edge">
<title>Node12&#45;&gt;Node9</title>
<path fill="none" stroke="midnightblue" d="M287.8,-54C253.15,-54 216.67,-54 193.88,-54"/>
<polygon fill="midnightblue" stroke="midnightblue" points="288,-57.5 298,-54 288,-50.5 288,-57.5"/>
</g>
<!-- Node13&#45;&gt;Node9 -->
<g id="edge15" class="edge">
<title>Node13&#45;&gt;Node9</title>
<path fill="none" stroke="midnightblue" d="M681.58,-12.32C590.65,-14.49 432.73,-20.05 298,-34 261.37,-37.79 219.2,-45 193.85,-49.65"/>
<polygon fill="midnightblue" stroke="midnightblue" points="681.88,-15.82 691.79,-12.09 681.72,-8.82 681.88,-15.82"/>
</g>
</g>
</svg>
