<?xml version="1.0" encoding="UTF-8" standalone="no"?>
<!DOCTYPE svg PUBLIC "-//W3C//DTD SVG 1.1//EN"
 "http://www.w3.org/Graphics/SVG/1.1/DTD/svg11.dtd">
<!-- Generated by graphviz version 2.43.0 (0)
 -->
<!-- Title: grid_ops::redistribute_output_grid Pages: 1 -->
<svg width="1371pt" height="476pt"
 viewBox="0.00 0.00 1371.00 475.89" xmlns="http://www.w3.org/2000/svg" xmlns:xlink="http://www.w3.org/1999/xlink">
<g id="graph0" class="graph" transform="scale(1 1) rotate(0) translate(4 471.89)">
<title>grid_ops::redistribute_output_grid</title>
<polygon fill="white" stroke="transparent" points="-4,4 -4,-471.89 1367,-471.89 1367,4 -4,4"/>
<!-- Node1 -->
<g id="node1" class="node">
<title>Node1</title>
<g id="a_node1"><a xlink:title="Redistribute a grid to match the normal distribution of solution grid.">
<polygon fill="#bfbfbf" stroke="black" points="0,-33 0,-67 143,-67 143,-33 0,-33"/>
<text text-anchor="start" x="8" y="-53.4" font-family="Ubuntu Mono" font-size="12.00">grid_ops::redistribute</text>
<text text-anchor="middle" x="71.5" y="-40.4" font-family="Ubuntu Mono" font-size="12.00">_output_grid</text>
</a>
</g>
</g>
<!-- Node2 -->
<g id="node2" class="node">
<title>Node2</title>
<g id="a_node2"><a xlink:href="namespacegrid__ops.html#a1c18f90f93f5fce7ebb4dba60b70e0f8" target="_top" xlink:title="Calculates normal range for the input grid, the equilibrium grid and/or the solution grid.">
<polygon fill="white" stroke="black" points="205,-132 205,-166 341,-166 341,-132 205,-132"/>
<text text-anchor="start" x="213" y="-152.4" font-family="Ubuntu Mono" font-size="12.00">grid_ops::calc_norm</text>
<text text-anchor="middle" x="273" y="-139.4" font-family="Ubuntu Mono" font-size="12.00">_range</text>
</a>
</g>
</g>
<!-- Node1&#45;&gt;Node2 -->
<g id="edge1" class="edge">
<title>Node1&#45;&gt;Node2</title>
<path fill="none" stroke="midnightblue" d="M106.8,-67.02C140.34,-83.66 191.56,-109.08 228.07,-127.2"/>
<polygon fill="midnightblue" stroke="midnightblue" points="226.97,-130.56 237.48,-131.87 230.08,-124.29 226.97,-130.56"/>
</g>
<!-- Node17 -->
<g id="node17" class="node">
<title>Node17</title>
<g id="a_node17"><a xlink:href="namespacegrid__utilities.html#ae08e1ff213071c9d411a9b9c76035e1e" target="_top" xlink:title="finds smallest range that comprises a minimum and maximum value.">
<polygon fill="white" stroke="black" points="645,-53 645,-87 763,-87 763,-53 645,-53"/>
<text text-anchor="start" x="653" y="-73.4" font-family="Ubuntu Mono" font-size="12.00">grid_utilities::find</text>
<text text-anchor="middle" x="704" y="-60.4" font-family="Ubuntu Mono" font-size="12.00">_compr_range</text>
</a>
</g>
</g>
<!-- Node1&#45;&gt;Node17 -->
<g id="edge23" class="edge">
<title>Node1&#45;&gt;Node17</title>
<path fill="none" stroke="midnightblue" d="M143.3,-52.25C265.36,-56.12 513.9,-64 634.42,-67.82"/>
<polygon fill="midnightblue" stroke="midnightblue" points="634.52,-71.33 644.63,-68.15 634.74,-64.33 634.52,-71.33"/>
</g>
<!-- Node18 -->
<g id="node18" class="node">
<title>Node18</title>
<g id="a_node18"><a xlink:href="namespacempi__utilities.html#a128702990bd5fddc582e8fabcffc82b2" target="_top" xlink:title="Redistribute variables according to new limits.">
<polygon fill="white" stroke="black" points="179,-0.5 179,-21.5 367,-21.5 367,-0.5 179,-0.5"/>
<text text-anchor="middle" x="273" y="-7.9" font-family="Ubuntu Mono" font-size="12.00">mpi_utilities::redistribute_var</text>
</a>
</g>
</g>
<!-- Node1&#45;&gt;Node18 -->
<g id="edge24" class="edge">
<title>Node1&#45;&gt;Node18</title>
<path fill="none" stroke="midnightblue" d="M143.12,-36.2C164.31,-32.05 187.42,-27.53 208.15,-23.48"/>
<polygon fill="midnightblue" stroke="midnightblue" points="208.97,-26.89 218.12,-21.53 207.63,-20.02 208.97,-26.89"/>
</g>
<!-- Node3 -->
<g id="node3" class="node">
<title>Node3</title>
<g id="a_node3"><a xlink:href="grid__ops_8f90.html#a868669b6df6c0fa6a8cedd993042f6ea" target="_top" xlink:title="PB3D equilibrium version.">
<polygon fill="white" stroke="black" points="403,-158.5 403,-179.5 579,-179.5 579,-158.5 403,-158.5"/>
<text text-anchor="middle" x="491" y="-165.9" font-family="Ubuntu Mono" font-size="12.00">calc_norm_range_pb3d_eq</text>
</a>
</g>
</g>
<!-- Node2&#45;&gt;Node3 -->
<g id="edge2" class="edge">
<title>Node2&#45;&gt;Node3</title>
<path fill="none" stroke="midnightblue" d="M341.16,-155.22C357.52,-156.73 375.34,-158.38 392.78,-160"/>
<polygon fill="midnightblue" stroke="midnightblue" points="392.72,-163.51 403,-160.94 393.36,-156.54 392.72,-163.51"/>
</g>
<!-- Node4 -->
<g id="node4" class="node">
<title>Node4</title>
<g id="a_node4"><a xlink:href="grid__ops_8f90.html#aebe21d718069318bced62bc3d2d09393" target="_top" xlink:title="PB3D input version.">
<polygon fill="white" stroke="black" points="405,-118.5 405,-139.5 577,-139.5 577,-118.5 405,-118.5"/>
<text text-anchor="middle" x="491" y="-125.9" font-family="Ubuntu Mono" font-size="12.00">calc_norm_range_pb3d_in</text>
</a>
</g>
</g>
<!-- Node2&#45;&gt;Node4 -->
<g id="edge3" class="edge">
<title>Node2&#45;&gt;Node4</title>
<path fill="none" stroke="midnightblue" d="M341.16,-142.78C358.19,-141.2 376.81,-139.48 394.94,-137.8"/>
<polygon fill="midnightblue" stroke="midnightblue" points="395.31,-141.28 404.95,-136.88 394.67,-134.31 395.31,-141.28"/>
</g>
<!-- Node5 -->
<g id="node5" class="node">
<title>Node5</title>
<g id="a_node5"><a xlink:href="grid__ops_8f90.html#a9121423739548f1a1fa4e87055f49010" target="_top" xlink:title="PB3D solution version.">
<polygon fill="white" stroke="black" points="615,-178.5 615,-199.5 793,-199.5 793,-178.5 615,-178.5"/>
<text text-anchor="middle" x="704" y="-185.9" font-family="Ubuntu Mono" font-size="12.00">calc_norm_range_pb3d_sol</text>
</a>
</g>
</g>
<!-- Node2&#45;&gt;Node5 -->
<g id="edge4" class="edge">
<title>Node2&#45;&gt;Node5</title>
<path fill="none" stroke="midnightblue" d="M317.41,-166.05C342.08,-174.82 373.79,-184.58 403,-189 469.81,-199.12 545.96,-198.98 604.82,-196.39"/>
<polygon fill="midnightblue" stroke="midnightblue" points="605.03,-199.88 614.86,-195.91 604.7,-192.89 605.03,-199.88"/>
</g>
<!-- Node6 -->
<g id="node6" class="node">
<title>Node6</title>
<g id="a_node6"><a xlink:href="grid__ops_8f90.html#a0bd0af6203161233f7687c029d6c4ca0" target="_top" xlink:title="PB3D perturbation version.">
<polygon fill="white" stroke="black" points="407,-255.5 407,-276.5 575,-276.5 575,-255.5 407,-255.5"/>
<text text-anchor="middle" x="491" y="-262.9" font-family="Ubuntu Mono" font-size="12.00">calc_norm_range_pb3d_x</text>
</a>
</g>
</g>
<!-- Node2&#45;&gt;Node6 -->
<g id="edge5" class="edge">
<title>Node2&#45;&gt;Node6</title>
<path fill="none" stroke="midnightblue" d="M303.24,-166.06C329.25,-181.12 368.4,-203.48 403,-222 421.46,-231.88 442.4,-242.49 459.11,-250.81"/>
<polygon fill="midnightblue" stroke="midnightblue" points="457.89,-254.12 468.4,-255.43 461,-247.85 457.89,-254.12"/>
</g>
<!-- Node16 -->
<g id="node16" class="node">
<title>Node16</title>
<g id="a_node16"><a xlink:href="grid__ops_8f90.html#aa3b47be0188da6dd19a745f796c1500f" target="_top" xlink:title="POST version.">
<polygon fill="white" stroke="black" points="415.5,-78.5 415.5,-99.5 566.5,-99.5 566.5,-78.5 415.5,-78.5"/>
<text text-anchor="middle" x="491" y="-85.9" font-family="Ubuntu Mono" font-size="12.00">calc_norm_range_post</text>
</a>
</g>
</g>
<!-- Node2&#45;&gt;Node16 -->
<g id="edge21" class="edge">
<title>Node2&#45;&gt;Node16</title>
<path fill="none" stroke="midnightblue" d="M325.84,-131.96C349.29,-124.5 377.42,-115.9 403,-109 412.11,-106.54 421.8,-104.13 431.29,-101.87"/>
<polygon fill="midnightblue" stroke="midnightblue" points="432.13,-105.26 441.07,-99.57 430.53,-98.45 432.13,-105.26"/>
</g>
<!-- Node6&#45;&gt;Node5 -->
<g id="edge6" class="edge">
<title>Node6&#45;&gt;Node5</title>
<path fill="none" stroke="midnightblue" d="M514.79,-255.37C539.23,-244.2 579.35,-226.54 615,-214 626.94,-209.8 639.97,-205.79 652.26,-202.26"/>
<polygon fill="midnightblue" stroke="midnightblue" points="653.25,-205.62 661.93,-199.54 651.35,-198.88 653.25,-205.62"/>
</g>
<!-- Node7 -->
<g id="node7" class="node">
<title>Node7</title>
<g id="a_node7"><a xlink:href="namespaceoutput__ops.html#a50bfbb88cc91805469353c3ff47b3e2e" target="_top" xlink:title="Use external program to draw a plot.">
<polygon fill="white" stroke="black" points="634,-334.5 634,-355.5 774,-355.5 774,-334.5 634,-334.5"/>
<text text-anchor="middle" x="704" y="-341.9" font-family="Ubuntu Mono" font-size="12.00">output_ops::draw_ex</text>
</a>
</g>
</g>
<!-- Node6&#45;&gt;Node7 -->
<g id="edge7" class="edge">
<title>Node6&#45;&gt;Node7</title>
<path fill="none" stroke="midnightblue" d="M510.61,-276.56C534.23,-289.57 576.53,-311.59 615,-325 622.39,-327.57 630.24,-329.9 638.09,-331.99"/>
<polygon fill="midnightblue" stroke="midnightblue" points="637.46,-335.44 648.01,-334.5 639.17,-328.65 637.46,-335.44"/>
</g>
<!-- Node8 -->
<g id="node8" class="node">
<title>Node8</title>
<g id="a_node8"><a xlink:href="namespacestr__utilities.html#a0b97e51770725a3e98ed393d26681414" target="_top" xlink:title="Convert an integer to string.">
<polygon fill="white" stroke="black" points="1214.5,-333.5 1214.5,-354.5 1328.5,-354.5 1328.5,-333.5 1214.5,-333.5"/>
<text text-anchor="middle" x="1271.5" y="-340.9" font-family="Ubuntu Mono" font-size="12.00">str_utilities::i2str</text>
</a>
</g>
</g>
<!-- Node6&#45;&gt;Node8 -->
<g id="edge17" class="edge">
<title>Node6&#45;&gt;Node8</title>
<path fill="none" stroke="midnightblue" d="M503.09,-276.68C523.75,-296.18 570.14,-338 615,-365 703.7,-418.39 727.6,-436.13 829,-457 900.83,-471.79 922.04,-471.14 994,-457 1089.89,-438.16 1194.42,-385.83 1242.93,-359.52"/>
<polygon fill="midnightblue" stroke="midnightblue" points="1244.77,-362.5 1251.86,-354.62 1241.41,-356.36 1244.77,-362.5"/>
</g>
<!-- Node9 -->
<g id="node9" class="node">
<title>Node9</title>
<g id="a_node9"><a xlink:href="namespacemessages.html#a6e6bfb084063e4cc91ee86e542043302" target="_top" xlink:title="Increases/decreases lvl of output.">
<polygon fill="white" stroke="black" points="852.5,-256.5 852.5,-277.5 970.5,-277.5 970.5,-256.5 852.5,-256.5"/>
<text text-anchor="middle" x="911.5" y="-263.9" font-family="Ubuntu Mono" font-size="12.00">messages::lvl_ud</text>
</a>
</g>
</g>
<!-- Node6&#45;&gt;Node9 -->
<g id="edge18" class="edge">
<title>Node6&#45;&gt;Node9</title>
<path fill="none" stroke="midnightblue" d="M575.18,-266.2C653.5,-266.39 769.38,-266.66 842.37,-266.84"/>
<polygon fill="midnightblue" stroke="midnightblue" points="842.36,-270.34 852.37,-266.86 842.38,-263.34 842.36,-270.34"/>
</g>
<!-- Node10 -->
<g id="node10" class="node">
<title>Node10</title>
<g id="a_node10"><a xlink:href="namespacemessages.html#aa4a8d01563e92558e8a0875b075ec54c" target="_top" xlink:title="Write output to file identified by output_i.">
<polygon fill="white" stroke="black" points="1030,-274.5 1030,-295.5 1144,-295.5 1144,-274.5 1030,-274.5"/>
<text text-anchor="middle" x="1087" y="-281.9" font-family="Ubuntu Mono" font-size="12.00">messages::writo</text>
</a>
</g>
</g>
<!-- Node6&#45;&gt;Node10 -->
<g id="edge20" class="edge">
<title>Node6&#45;&gt;Node10</title>
<path fill="none" stroke="midnightblue" d="M548.01,-255.5C641.46,-239.83 834.67,-215.39 994,-247 1016.17,-251.4 1039.7,-261.22 1057.41,-269.78"/>
<polygon fill="midnightblue" stroke="midnightblue" points="1056.1,-273.03 1066.61,-274.36 1059.22,-266.77 1056.1,-273.03"/>
</g>
<!-- Node15 -->
<g id="node15" class="node">
<title>Node15</title>
<g id="a_node15"><a xlink:href="namespacestr__utilities.html#ac778d706b2e021672618939ab58fdd32" target="_top" xlink:title="Convert a real (double) to string.">
<polygon fill="white" stroke="black" points="643.5,-294.5 643.5,-315.5 764.5,-315.5 764.5,-294.5 643.5,-294.5"/>
<text text-anchor="middle" x="704" y="-301.9" font-family="Ubuntu Mono" font-size="12.00">str_utilities::r2strt</text>
</a>
</g>
</g>
<!-- Node6&#45;&gt;Node15 -->
<g id="edge19" class="edge">
<title>Node6&#45;&gt;Node15</title>
<path fill="none" stroke="midnightblue" d="M548.82,-276.5C575.67,-281.47 607.91,-287.42 635.95,-292.61"/>
<polygon fill="midnightblue" stroke="midnightblue" points="635.61,-296.1 646.08,-294.48 636.88,-289.22 635.61,-296.1"/>
</g>
<!-- Node7&#45;&gt;Node8 -->
<g id="edge8" class="edge">
<title>Node7&#45;&gt;Node8</title>
<path fill="none" stroke="midnightblue" d="M774.06,-344.88C883.66,-344.68 1096.07,-344.31 1204.03,-344.12"/>
<polygon fill="midnightblue" stroke="midnightblue" points="1204.15,-347.62 1214.15,-344.1 1204.14,-340.62 1204.15,-347.62"/>
</g>
<!-- Node7&#45;&gt;Node9 -->
<g id="edge9" class="edge">
<title>Node7&#45;&gt;Node9</title>
<path fill="none" stroke="midnightblue" d="M769.37,-334.49C777.56,-331.97 785.65,-328.85 793,-325 812.23,-314.92 810.16,-302.78 829,-292 836.65,-287.62 845.16,-283.93 853.7,-280.83"/>
<polygon fill="midnightblue" stroke="midnightblue" points="854.97,-284.1 863.33,-277.59 852.73,-277.47 854.97,-284.1"/>
</g>
<!-- Node7&#45;&gt;Node10 -->
<g id="edge16" class="edge">
<title>Node7&#45;&gt;Node10</title>
<path fill="none" stroke="midnightblue" d="M771.8,-334.48C841.57,-323.49 950.34,-306.36 1019.86,-295.42"/>
<polygon fill="midnightblue" stroke="midnightblue" points="1020.49,-298.86 1029.83,-293.85 1019.4,-291.94 1020.49,-298.86"/>
</g>
<!-- Node13 -->
<g id="node13" class="node">
<title>Node13</title>
<g id="a_node13"><a xlink:href="namespacefiles__utilities.html#ac6066df405564ba2f5e3c4bba726c1f8" target="_top" xlink:title="Search for available new unit.">
<polygon fill="white" stroke="black" points="839,-426.5 839,-447.5 984,-447.5 984,-426.5 839,-426.5"/>
<text text-anchor="middle" x="911.5" y="-433.9" font-family="Ubuntu Mono" font-size="12.00">files_utilities::nextunit</text>
</a>
</g>
</g>
<!-- Node7&#45;&gt;Node13 -->
<g id="edge14" class="edge">
<title>Node7&#45;&gt;Node13</title>
<path fill="none" stroke="midnightblue" d="M719.93,-355.58C742.53,-371.13 787.21,-400.15 829,-417 835.17,-419.49 841.74,-421.73 848.36,-423.72"/>
<polygon fill="midnightblue" stroke="midnightblue" points="847.49,-427.11 858.06,-426.48 849.4,-420.38 847.49,-427.11"/>
</g>
<!-- Node14 -->
<g id="node14" class="node">
<title>Node14</title>
<g id="a_node14"><a xlink:href="namespaceoutput__ops.html#aa9e4855511b6ea16a08b3efb587bec51" target="_top" xlink:title="Executes command line, or displays a message if disabled.">
<polygon fill="white" stroke="black" points="829,-373 829,-407 994,-407 994,-373 829,-373"/>
<text text-anchor="start" x="837" y="-393.4" font-family="Ubuntu Mono" font-size="12.00">output_ops::use_execute</text>
<text text-anchor="middle" x="911.5" y="-380.4" font-family="Ubuntu Mono" font-size="12.00">_command_line</text>
</a>
</g>
</g>
<!-- Node7&#45;&gt;Node14 -->
<g id="edge15" class="edge">
<title>Node7&#45;&gt;Node14</title>
<path fill="none" stroke="midnightblue" d="M753.18,-355.55C773.93,-360.09 798.86,-365.55 822.7,-370.77"/>
<polygon fill="midnightblue" stroke="midnightblue" points="821.95,-374.19 832.47,-372.91 823.45,-367.36 821.95,-374.19"/>
</g>
<!-- Node9&#45;&gt;Node10 -->
<g id="edge10" class="edge">
<title>Node9&#45;&gt;Node10</title>
<path fill="none" stroke="midnightblue" d="M970.76,-273.04C986.42,-274.67 1003.48,-276.44 1019.56,-278.11"/>
<polygon fill="midnightblue" stroke="midnightblue" points="1019.65,-281.63 1029.96,-279.19 1020.37,-274.67 1019.65,-281.63"/>
</g>
<!-- Node10&#45;&gt;Node8 -->
<g id="edge13" class="edge">
<title>Node10&#45;&gt;Node8</title>
<path fill="none" stroke="midnightblue" d="M1120.35,-295.59C1137.97,-301.35 1160.18,-308.59 1180,-315 1195.58,-320.04 1212.69,-325.53 1227.79,-330.36"/>
<polygon fill="midnightblue" stroke="midnightblue" points="1226.8,-333.72 1237.39,-333.43 1228.93,-327.05 1226.8,-333.72"/>
</g>
<!-- Node11 -->
<g id="node11" class="node">
<title>Node11</title>
<g id="a_node11"><a xlink:href="namespacemessages.html#a61fd0b51b5e37d58fdc993c01792a3fd" target="_top" xlink:title="Returns the time.">
<polygon fill="white" stroke="black" points="1201.5,-284.5 1201.5,-305.5 1341.5,-305.5 1341.5,-284.5 1201.5,-284.5"/>
<text text-anchor="middle" x="1271.5" y="-291.9" font-family="Ubuntu Mono" font-size="12.00">messages::get_clock</text>
</a>
</g>
</g>
<!-- Node10&#45;&gt;Node11 -->
<g id="edge11" class="edge">
<title>Node10&#45;&gt;Node11</title>
<path fill="none" stroke="midnightblue" d="M1144.25,-288.08C1159.02,-288.89 1175.24,-289.78 1190.99,-290.64"/>
<polygon fill="midnightblue" stroke="midnightblue" points="1191.07,-294.15 1201.25,-291.21 1191.45,-287.16 1191.07,-294.15"/>
</g>
<!-- Node12 -->
<g id="node12" class="node">
<title>Node12</title>
<g id="a_node12"><a xlink:href="namespacemessages.html#a82dddaab795b78b3d39e1ff1aab2f665" target="_top" xlink:title="Returns the memory usage in kilobytes.">
<polygon fill="white" stroke="black" points="1180,-244.5 1180,-265.5 1363,-265.5 1363,-244.5 1180,-244.5"/>
<text text-anchor="middle" x="1271.5" y="-251.9" font-family="Ubuntu Mono" font-size="12.00">messages::get_mem_usage</text>
</a>
</g>
</g>
<!-- Node10&#45;&gt;Node12 -->
<g id="edge12" class="edge">
<title>Node10&#45;&gt;Node12</title>
<path fill="none" stroke="midnightblue" d="M1144.25,-275.75C1160.7,-273.05 1178.95,-270.05 1196.35,-267.19"/>
<polygon fill="midnightblue" stroke="midnightblue" points="1197.17,-270.6 1206.47,-265.53 1196.03,-263.69 1197.17,-270.6"/>
</g>
<!-- Node16&#45;&gt;Node17 -->
<g id="edge22" class="edge">
<title>Node16&#45;&gt;Node17</title>
<path fill="none" stroke="midnightblue" d="M566.69,-82.27C588.79,-80.28 612.88,-78.12 634.57,-76.16"/>
<polygon fill="midnightblue" stroke="midnightblue" points="635.03,-79.63 644.68,-75.25 634.4,-72.66 635.03,-79.63"/>
</g>
</g>
</svg>
