<?xml version="1.0" encoding="UTF-8" standalone="no"?>
<!DOCTYPE svg PUBLIC "-//W3C//DTD SVG 1.1//EN"
 "http://www.w3.org/Graphics/SVG/1.1/DTD/svg11.dtd">
<!-- Generated by graphviz version 2.38.0 (20140413.2041)
 -->
<!-- Title: input_utilities::dealloc_in Pages: 1 -->
<svg width="789pt" height="211pt"
 viewBox="0.00 0.00 789.00 210.86" xmlns="http://www.w3.org/2000/svg" xmlns:xlink="http://www.w3.org/1999/xlink">
<g id="graph0" class="graph" transform="scale(1 1) rotate(0) translate(4 206.86)">
<title>input_utilities::dealloc_in</title>
<polygon fill="white" stroke="none" points="-4,4 -4,-206.86 785,-206.86 785,4 -4,4"/>
<!-- Node7 -->
<g id="node1" class="node"><title>Node7</title>
<polygon fill="#bfbfbf" stroke="black" points="0,-85.6244 0,-106.624 179,-106.624 179,-85.6244 0,-85.6244"/>
<text text-anchor="middle" x="89.5" y="-93.0244" font-family="Ubuntu Mono" font-size="12.00">input_utilities::dealloc_in</text>
</g>
<!-- Node8 -->
<g id="node2" class="node"><title>Node8</title>
<g id="a_node2"><a xlink:href="namespacedriver__post.html#a71f9fb1935222111e1c7cfc15c5d0269" target="_top" xlink:title="Cleans up main driver for postprocessing. ">
<polygon fill="white" stroke="black" points="388,-147.624 388,-168.624 537,-168.624 537,-147.624 388,-147.624"/>
<text text-anchor="middle" x="462.5" y="-155.024" font-family="Ubuntu Mono" font-size="12.00">driver_post::stop_post</text>
</a>
</g>
</g>
<!-- Node7&#45;&gt;Node8 -->
<g id="edge1" class="edge"><title>Node7&#45;&gt;Node8</title>
<path fill="none" stroke="midnightblue" d="M123.553,-110.534C148.251,-120.624 183.107,-133.45 215,-140.124 272.329,-152.122 338.603,-156.443 387.985,-157.863"/>
<polygon fill="midnightblue" stroke="midnightblue" points="124.863,-107.288 114.285,-106.682 122.176,-113.752 124.863,-107.288"/>
</g>
<!-- Node9 -->
<g id="node3" class="node"><title>Node9</title>
<g id="a_node3"><a xlink:href="POST_8f90.html#ac289b64ac4671fea0b4f2298ba1188a1" target="_top" xlink:title="Peeling Ballooning in 3D: postprocessing. ">
<polygon fill="white" stroke="black" points="740,-147.624 740,-168.624 781,-168.624 781,-147.624 740,-147.624"/>
<text text-anchor="middle" x="760.5" y="-155.024" font-family="Ubuntu Mono" font-size="12.00">post</text>
</a>
</g>
</g>
<!-- Node7&#45;&gt;Node9 -->
<g id="edge13" class="edge"><title>Node7&#45;&gt;Node9</title>
<path fill="none" stroke="midnightblue" d="M113.793,-112.436C137.9,-128.382 177.251,-151.856 215,-163.124 423.288,-225.302 488.803,-202.781 704,-172.124 716.101,-170.401 729.386,-167.101 739.923,-164.139"/>
<polygon fill="midnightblue" stroke="midnightblue" points="115.583,-109.422 105.335,-106.735 111.67,-115.227 115.583,-109.422"/>
</g>
<!-- Node10 -->
<g id="node4" class="node"><title>Node10</title>
<g id="a_node4"><a xlink:href="namespacerich__ops.html#a3cf72a3ed0806ac9ddff262a00b2e33d" target="_top" xlink:title="Terminate the Richardson extrapolation system. ">
<polygon fill="white" stroke="black" points="573,-17.6244 573,-38.6244 704,-38.6244 704,-17.6244 573,-17.6244"/>
<text text-anchor="middle" x="638.5" y="-25.0244" font-family="Ubuntu Mono" font-size="12.00">rich_ops::term_rich</text>
</a>
</g>
</g>
<!-- Node7&#45;&gt;Node10 -->
<g id="edge3" class="edge"><title>Node7&#45;&gt;Node10</title>
<path fill="none" stroke="midnightblue" d="M119.69,-81.0997C144.367,-69.2149 181.028,-53.4446 215,-46.1244 339.521,-19.2927 489.322,-20.5627 572.941,-24.1679"/>
<polygon fill="midnightblue" stroke="midnightblue" points="117.964,-78.0482 110.531,-85.5983 121.05,-84.3313 117.964,-78.0482"/>
</g>
<!-- Node11 -->
<g id="node5" class="node"><title>Node11</title>
<g id="a_node5"><a xlink:href="PB3D_8f90.html#afaee01f014ab3398eecac996b2795fd2" target="_top" xlink:title="Peeling Ballooning in 3D. ">
<polygon fill="white" stroke="black" points="740,-17.6244 740,-38.6244 781,-38.6244 781,-17.6244 740,-17.6244"/>
<text text-anchor="middle" x="760.5" y="-25.0244" font-family="Ubuntu Mono" font-size="12.00">pb3d</text>
</a>
</g>
</g>
<!-- Node7&#45;&gt;Node11 -->
<g id="edge12" class="edge"><title>Node7&#45;&gt;Node11</title>
<path fill="none" stroke="midnightblue" d="M111.934,-79.3782C135.635,-61.9477 175.687,-35.6205 215,-24.1244 367.868,20.5779 413.77,-11.6808 573,-8.1244 631.208,-6.82432 646.646,1.89428 704,-8.1244 716.309,-10.2745 729.49,-14.9175 739.918,-19.1891"/>
<polygon fill="midnightblue" stroke="midnightblue" points="109.58,-76.769 103.687,-85.5735 113.784,-82.3658 109.58,-76.769"/>
</g>
<!-- Node12 -->
<g id="node6" class="node"><title>Node12</title>
<g id="a_node6"><a xlink:href="test_8f90.html#a197914f99b7e194fb4bca9ca3669e0e8" target="_top" xlink:title="plot_y">
<polygon fill="white" stroke="black" points="257,-109.624 257,-130.624 310,-130.624 310,-109.624 257,-109.624"/>
<text text-anchor="middle" x="283.5" y="-117.024" font-family="Ubuntu Mono" font-size="12.00">plot_y</text>
</a>
</g>
</g>
<!-- Node7&#45;&gt;Node12 -->
<g id="edge5" class="edge"><title>Node7&#45;&gt;Node12</title>
<path fill="none" stroke="midnightblue" d="M184.823,-107.915C211.264,-111.22 237.876,-114.546 256.629,-116.891"/>
<polygon fill="midnightblue" stroke="midnightblue" points="185.071,-104.419 174.714,-106.651 184.203,-111.365 185.071,-104.419"/>
</g>
<!-- Node15 -->
<g id="node9" class="node"><title>Node15</title>
<g id="a_node9"><a xlink:href="namespacetest.html#ac574f08ba400cd61070a6a6f13f6f7ee" target="_top" xlink:title="Tests reading of HDF5 subset. ">
<polygon fill="white" stroke="black" points="215,-56.1244 215,-90.1244 352,-90.1244 352,-56.1244 215,-56.1244"/>
<text text-anchor="start" x="223" y="-76.5244" font-family="Ubuntu Mono" font-size="12.00">test::test_read_hdf5</text>
<text text-anchor="middle" x="283.5" y="-63.5244" font-family="Ubuntu Mono" font-size="12.00">_subset</text>
</a>
</g>
</g>
<!-- Node7&#45;&gt;Node15 -->
<g id="edge10" class="edge"><title>Node7&#45;&gt;Node15</title>
<path fill="none" stroke="midnightblue" d="M188.42,-84.3944C197.343,-83.3255 206.244,-82.2592 214.814,-81.2326"/>
<polygon fill="midnightblue" stroke="midnightblue" points="187.865,-80.9357 178.352,-85.6004 188.698,-87.8861 187.865,-80.9357"/>
</g>
<!-- Node8&#45;&gt;Node9 -->
<g id="edge2" class="edge"><title>Node8&#45;&gt;Node9</title>
<path fill="none" stroke="midnightblue" d="M547.095,-158.124C613.491,-158.124 701.371,-158.124 739.94,-158.124"/>
<polygon fill="midnightblue" stroke="midnightblue" points="547.049,-154.624 537.049,-158.124 547.049,-161.624 547.049,-154.624"/>
</g>
<!-- Node10&#45;&gt;Node11 -->
<g id="edge4" class="edge"><title>Node10&#45;&gt;Node11</title>
<path fill="none" stroke="midnightblue" d="M714.091,-28.1244C723.572,-28.1244 732.536,-28.1244 739.955,-28.1244"/>
<polygon fill="midnightblue" stroke="midnightblue" points="714.066,-24.6245 704.066,-28.1244 714.066,-31.6245 714.066,-24.6245"/>
</g>
<!-- Node13 -->
<g id="node7" class="node"><title>Node13</title>
<g id="a_node7"><a xlink:href="namespacetest.html#a53c6b3d654d4577af301fe3b04473d6a" target="_top" xlink:title="Test spline(). ">
<polygon fill="white" stroke="black" points="400,-106.624 400,-127.624 525,-127.624 525,-106.624 400,-106.624"/>
<text text-anchor="middle" x="462.5" y="-114.024" font-family="Ubuntu Mono" font-size="12.00">test::test_splines</text>
</a>
</g>
</g>
<!-- Node12&#45;&gt;Node13 -->
<g id="edge6" class="edge"><title>Node12&#45;&gt;Node13</title>
<path fill="none" stroke="midnightblue" d="M320.466,-119.515C343.237,-119.129 373.28,-118.62 399.784,-118.17"/>
<polygon fill="midnightblue" stroke="midnightblue" points="320.177,-116.019 310.237,-119.688 320.295,-123.018 320.177,-116.019"/>
</g>
<!-- Node14 -->
<g id="node8" class="node"><title>Node14</title>
<g id="a_node8"><a xlink:href="namespacetest.html#aca21ee464c0b1f4b617177afdde110ec" target="_top" xlink:title="Performs generic tests. ">
<polygon fill="white" stroke="black" points="573,-85.6244 573,-106.624 704,-106.624 704,-85.6244 573,-85.6244"/>
<text text-anchor="middle" x="638.5" y="-93.0244" font-family="Ubuntu Mono" font-size="12.00">test::generic_tests</text>
</a>
</g>
</g>
<!-- Node13&#45;&gt;Node14 -->
<g id="edge7" class="edge"><title>Node13&#45;&gt;Node14</title>
<path fill="none" stroke="midnightblue" d="M535.607,-108.422C547.978,-106.929 560.763,-105.386 572.921,-103.918"/>
<polygon fill="midnightblue" stroke="midnightblue" points="534.844,-104.988 525.336,-109.661 535.683,-111.938 534.844,-104.988"/>
</g>
<!-- Node14&#45;&gt;Node9 -->
<g id="edge9" class="edge"><title>Node14&#45;&gt;Node9</title>
<path fill="none" stroke="midnightblue" d="M668.801,-111.263C690.878,-122.67 720.546,-137.998 739.842,-147.968"/>
<polygon fill="midnightblue" stroke="midnightblue" points="670.347,-108.123 659.856,-106.642 667.134,-114.342 670.347,-108.123"/>
</g>
<!-- Node14&#45;&gt;Node11 -->
<g id="edge8" class="edge"><title>Node14&#45;&gt;Node11</title>
<path fill="none" stroke="midnightblue" d="M667.049,-80.5135C689.679,-67.6895 721.119,-49.8734 740.882,-38.6748"/>
<polygon fill="midnightblue" stroke="midnightblue" points="665.225,-77.5241 658.25,-85.4994 668.676,-83.6143 665.225,-77.5241"/>
</g>
<!-- Node15&#45;&gt;Node14 -->
<g id="edge11" class="edge"><title>Node15&#45;&gt;Node14</title>
<path fill="none" stroke="midnightblue" d="M362.449,-78.2032C425.58,-82.3166 513.469,-88.0431 572.765,-91.9065"/>
<polygon fill="midnightblue" stroke="midnightblue" points="362.351,-74.6895 352.144,-77.5318 361.896,-81.6747 362.351,-74.6895"/>
</g>
</g>
</svg>
