<?xml version="1.0" encoding="UTF-8" standalone="no"?>
<!DOCTYPE svg PUBLIC "-//W3C//DTD SVG 1.1//EN"
 "http://www.w3.org/Graphics/SVG/1.1/DTD/svg11.dtd">
<!-- Generated by graphviz version 2.38.0 (20140413.2041)
 -->
<!-- Title: x_ops::setup_modes Pages: 1 -->
<svg width="604pt" height="198pt"
 viewBox="0.00 0.00 604.00 198.00" xmlns="http://www.w3.org/2000/svg" xmlns:xlink="http://www.w3.org/1999/xlink">
<g id="graph0" class="graph" transform="scale(1 1) rotate(0) translate(4 194)">
<title>x_ops::setup_modes</title>
<polygon fill="white" stroke="none" points="-4,4 -4,-194 600,-194 600,4 -4,4"/>
<!-- Node145 -->
<g id="node1" class="node"><title>Node145</title>
<polygon fill="#bfbfbf" stroke="black" points="0,-78.5 0,-99.5 125,-99.5 125,-78.5 0,-78.5"/>
<text text-anchor="middle" x="62.5" y="-85.9" font-family="Ubuntu Mono" font-size="12.00">x_ops::setup_modes</text>
</g>
<!-- Node146 -->
<g id="node2" class="node"><title>Node146</title>
<g id="a_node2"><a xlink:href="namespacedriver__post.html#af527706d4e696d4e507443d2f74194ef" target="_top" xlink:title="Initializes the POST driver. ">
<polygon fill="white" stroke="black" points="358,-168.5 358,-189.5 507,-189.5 507,-168.5 358,-168.5"/>
<text text-anchor="middle" x="432.5" y="-175.9" font-family="Ubuntu Mono" font-size="12.00">driver_post::init_post</text>
</a>
</g>
</g>
<!-- Node145&#45;&gt;Node146 -->
<g id="edge1" class="edge"><title>Node145&#45;&gt;Node146</title>
<path fill="none" stroke="midnightblue" d="M80.809,-107.026C98.9393,-124.581 129.164,-150.281 161,-162 224.587,-185.407 302.226,-187.86 357.99,-185.526"/>
<polygon fill="midnightblue" stroke="midnightblue" points="82.9222,-104.19 73.3675,-99.6123 77.9818,-109.15 82.9222,-104.19"/>
</g>
<!-- Node148 -->
<g id="node4" class="node"><title>Node148</title>
<g id="a_node4"><a xlink:href="namespacedriver__sol.html#ad3b1765b3ecc5f82129bfc683ffc6c5c" target="_top" xlink:title="Main driver of PB3D solution part. ">
<polygon fill="white" stroke="black" points="346,-39.5 346,-60.5 519,-60.5 519,-39.5 346,-39.5"/>
<text text-anchor="middle" x="432.5" y="-46.9" font-family="Ubuntu Mono" font-size="12.00">driver_sol::run_driver_sol</text>
</a>
</g>
</g>
<!-- Node145&#45;&gt;Node148 -->
<g id="edge3" class="edge"><title>Node145&#45;&gt;Node148</title>
<path fill="none" stroke="midnightblue" d="M118.314,-76.4328C132.18,-73.6192 147.086,-70.9072 161,-69 222.567,-60.5609 292.56,-55.7731 345.922,-53.1149"/>
<polygon fill="midnightblue" stroke="midnightblue" points="117.507,-73.0256 108.43,-78.4894 118.933,-79.8788 117.507,-73.0256"/>
</g>
<!-- Node150 -->
<g id="node6" class="node"><title>Node150</title>
<g id="a_node6"><a xlink:href="namespacedriver__x.html#ada3d72a0929daaa5e3da585246d62281" target="_top" xlink:title="Main driver of PB3D perturbation part. ">
<polygon fill="white" stroke="black" points="161,-0.5 161,-21.5 310,-21.5 310,-0.5 161,-0.5"/>
<text text-anchor="middle" x="235.5" y="-7.9" font-family="Ubuntu Mono" font-size="12.00">driver_x::run_driver_x</text>
</a>
</g>
</g>
<!-- Node145&#45;&gt;Node150 -->
<g id="edge5" class="edge"><title>Node145&#45;&gt;Node150</title>
<path fill="none" stroke="midnightblue" d="M89.8106,-73.1072C109.091,-61.858 136.128,-46.8954 161,-36 173.346,-30.5918 187.262,-25.594 199.637,-21.5113"/>
<polygon fill="midnightblue" stroke="midnightblue" points="87.8473,-70.2017 81.0124,-78.2971 91.4038,-76.2309 87.8473,-70.2017"/>
</g>
<!-- Node151 -->
<g id="node7" class="node"><title>Node151</title>
<g id="a_node7"><a xlink:href="namespacerich__ops.html#a9fbbda93eab8973d33063e277c489e7b" target="_top" xlink:title="Initialize Richardson extrapolation system. ">
<polygon fill="white" stroke="black" points="170,-78.5 170,-99.5 301,-99.5 301,-78.5 170,-78.5"/>
<text text-anchor="middle" x="235.5" y="-85.9" font-family="Ubuntu Mono" font-size="12.00">rich_ops::init_rich</text>
</a>
</g>
</g>
<!-- Node145&#45;&gt;Node151 -->
<g id="edge7" class="edge"><title>Node145&#45;&gt;Node151</title>
<path fill="none" stroke="midnightblue" d="M135.25,-89C146.772,-89 158.635,-89 169.974,-89"/>
<polygon fill="midnightblue" stroke="midnightblue" points="135.235,-85.5001 125.235,-89 135.235,-92.5001 135.235,-85.5001"/>
</g>
<!-- Node152 -->
<g id="node8" class="node"><title>Node152</title>
<g id="a_node8"><a xlink:href="namespacetest.html#ac574f08ba400cd61070a6a6f13f6f7ee" target="_top" xlink:title="Tests reading of HDF5 subset. ">
<polygon fill="white" stroke="black" points="167,-119 167,-153 304,-153 304,-119 167,-119"/>
<text text-anchor="start" x="175" y="-139.4" font-family="Ubuntu Mono" font-size="12.00">test::test_read_hdf5</text>
<text text-anchor="middle" x="235.5" y="-126.4" font-family="Ubuntu Mono" font-size="12.00">_subset</text>
</a>
</g>
</g>
<!-- Node145&#45;&gt;Node152 -->
<g id="edge9" class="edge"><title>Node145&#45;&gt;Node152</title>
<path fill="none" stroke="midnightblue" d="M111.719,-102.253C130.569,-107.434 152.424,-113.441 172.426,-118.939"/>
<polygon fill="midnightblue" stroke="midnightblue" points="112.446,-98.8232 101.876,-99.5477 110.591,-105.573 112.446,-98.8232"/>
</g>
<!-- Node147 -->
<g id="node3" class="node"><title>Node147</title>
<g id="a_node3"><a xlink:href="POST_8f90.html#ac289b64ac4671fea0b4f2298ba1188a1" target="_top" xlink:title="Peeling Ballooning in 3D: postprocessing. ">
<polygon fill="white" stroke="black" points="555,-146.5 555,-167.5 596,-167.5 596,-146.5 555,-146.5"/>
<text text-anchor="middle" x="575.5" y="-153.9" font-family="Ubuntu Mono" font-size="12.00">post</text>
</a>
</g>
</g>
<!-- Node146&#45;&gt;Node147 -->
<g id="edge2" class="edge"><title>Node146&#45;&gt;Node147</title>
<path fill="none" stroke="midnightblue" d="M511.236,-166.871C527.443,-164.342 543.134,-161.894 554.835,-160.068"/>
<polygon fill="midnightblue" stroke="midnightblue" points="510.45,-163.451 501.109,-168.451 511.529,-170.368 510.45,-163.451"/>
</g>
<!-- Node149 -->
<g id="node5" class="node"><title>Node149</title>
<g id="a_node5"><a xlink:href="PB3D_8f90.html#afaee01f014ab3398eecac996b2795fd2" target="_top" xlink:title="Peeling Ballooning in 3D. ">
<polygon fill="white" stroke="black" points="555,-58.5 555,-79.5 596,-79.5 596,-58.5 555,-58.5"/>
<text text-anchor="middle" x="575.5" y="-65.9" font-family="Ubuntu Mono" font-size="12.00">pb3d</text>
</a>
</g>
</g>
<!-- Node148&#45;&gt;Node149 -->
<g id="edge4" class="edge"><title>Node148&#45;&gt;Node149</title>
<path fill="none" stroke="midnightblue" d="M521.558,-61.8659C534.026,-63.546 545.711,-65.1207 554.915,-66.3609"/>
<polygon fill="midnightblue" stroke="midnightblue" points="521.801,-58.3672 511.423,-60.5003 520.866,-65.3045 521.801,-58.3672"/>
</g>
<!-- Node150&#45;&gt;Node149 -->
<g id="edge6" class="edge"><title>Node150&#45;&gt;Node149</title>
<path fill="none" stroke="midnightblue" d="M320.214,-4.98203C377.724,-3.6221 454.951,-7.35453 519,-30 536.099,-36.0454 552.71,-48.9307 563.232,-58.2389"/>
<polygon fill="midnightblue" stroke="midnightblue" points="319.968,-1.48762 310.075,-5.27907 320.174,-8.48462 319.968,-1.48762"/>
</g>
<!-- Node151&#45;&gt;Node149 -->
<g id="edge8" class="edge"><title>Node151&#45;&gt;Node149</title>
<path fill="none" stroke="midnightblue" d="M311.612,-84.5555C390.253,-79.9022 508.625,-72.8979 554.94,-70.1574"/>
<polygon fill="midnightblue" stroke="midnightblue" points="311.046,-81.0828 301.27,-85.1675 311.459,-88.0706 311.046,-81.0828"/>
</g>
<!-- Node153 -->
<g id="node9" class="node"><title>Node153</title>
<g id="a_node9"><a xlink:href="namespacetest.html#aca21ee464c0b1f4b617177afdde110ec" target="_top" xlink:title="Performs generic tests. ">
<polygon fill="white" stroke="black" points="367,-125.5 367,-146.5 498,-146.5 498,-125.5 367,-125.5"/>
<text text-anchor="middle" x="432.5" y="-132.9" font-family="Ubuntu Mono" font-size="12.00">test::generic_tests</text>
</a>
</g>
</g>
<!-- Node152&#45;&gt;Node153 -->
<g id="edge10" class="edge"><title>Node152&#45;&gt;Node153</title>
<path fill="none" stroke="midnightblue" d="M314.308,-136C331.755,-136 350.08,-136 366.92,-136"/>
<polygon fill="midnightblue" stroke="midnightblue" points="314.154,-132.5 304.154,-136 314.154,-139.5 314.154,-132.5"/>
</g>
<!-- Node153&#45;&gt;Node147 -->
<g id="edge12" class="edge"><title>Node153&#45;&gt;Node147</title>
<path fill="none" stroke="midnightblue" d="M508.364,-147.15C525.574,-149.713 542.435,-152.224 554.825,-154.07"/>
<polygon fill="midnightblue" stroke="midnightblue" points="508.629,-143.651 498.223,-145.64 507.598,-150.575 508.629,-143.651"/>
</g>
<!-- Node153&#45;&gt;Node149 -->
<g id="edge11" class="edge"><title>Node153&#45;&gt;Node149</title>
<path fill="none" stroke="midnightblue" d="M474.542,-121.883C488.852,-116.512 504.861,-109.988 519,-103 532.98,-96.0913 548.015,-86.751 558.906,-79.6083"/>
<polygon fill="midnightblue" stroke="midnightblue" points="473.128,-118.674 464.95,-125.41 475.543,-125.244 473.128,-118.674"/>
</g>
</g>
</svg>
