<?xml version="1.0" encoding="UTF-8" standalone="no"?>
<!DOCTYPE svg PUBLIC "-//W3C//DTD SVG 1.1//EN"
 "http://www.w3.org/Graphics/SVG/1.1/DTD/svg11.dtd">
<!-- Generated by graphviz version 2.43.0 (0)
 -->
<!-- Title: x_ops::init_modes Pages: 1 -->
<svg width="684pt" height="128pt"
 viewBox="0.00 0.00 684.00 128.00" xmlns="http://www.w3.org/2000/svg" xmlns:xlink="http://www.w3.org/1999/xlink">
<g id="graph0" class="graph" transform="scale(1 1) rotate(0) translate(4 124)">
<title>x_ops::init_modes</title>
<polygon fill="white" stroke="transparent" points="-4,4 -4,-124 680,-124 680,4 -4,4"/>
<!-- Node1 -->
<g id="node1" class="node">
<title>Node1</title>
<g id="a_node1"><a xlink:title="Initializes some variables concerning the mode numbers.">
<polygon fill="#bfbfbf" stroke="black" points="0,-39.5 0,-60.5 122,-60.5 122,-39.5 0,-39.5"/>
<text text-anchor="middle" x="61" y="-46.9" font-family="Ubuntu Mono" font-size="12.00">x_ops::init_modes</text>
</a>
</g>
</g>
<!-- Node2 -->
<g id="node2" class="node">
<title>Node2</title>
<g id="a_node2"><a xlink:href="namespacemessages.html#a6e6bfb084063e4cc91ee86e542043302" target="_top" xlink:title="Increases/decreases lvl of output.">
<polygon fill="white" stroke="black" points="173.5,-78.5 173.5,-99.5 291.5,-99.5 291.5,-78.5 173.5,-78.5"/>
<text text-anchor="middle" x="232.5" y="-85.9" font-family="Ubuntu Mono" font-size="12.00">messages::lvl_ud</text>
</a>
</g>
</g>
<!-- Node1&#45;&gt;Node2 -->
<g id="edge1" class="edge">
<title>Node1&#45;&gt;Node2</title>
<path fill="none" stroke="midnightblue" d="M107.87,-60.55C128.78,-65.37 153.73,-71.11 175.72,-76.17"/>
<polygon fill="midnightblue" stroke="midnightblue" points="175.06,-79.61 185.59,-78.44 176.63,-72.78 175.06,-79.61"/>
</g>
<!-- Node3 -->
<g id="node3" class="node">
<title>Node3</title>
<g id="a_node3"><a xlink:href="namespacemessages.html#aa4a8d01563e92558e8a0875b075ec54c" target="_top" xlink:title="Write output to file identified by output_i.">
<polygon fill="white" stroke="black" points="343,-58.5 343,-79.5 457,-79.5 457,-58.5 343,-58.5"/>
<text text-anchor="middle" x="400" y="-65.9" font-family="Ubuntu Mono" font-size="12.00">messages::writo</text>
</a>
</g>
</g>
<!-- Node1&#45;&gt;Node3 -->
<g id="edge7" class="edge">
<title>Node1&#45;&gt;Node3</title>
<path fill="none" stroke="midnightblue" d="M122.25,-53.4C181.4,-56.73 271.41,-61.81 332.59,-65.26"/>
<polygon fill="midnightblue" stroke="midnightblue" points="332.73,-68.77 342.91,-65.84 333.13,-61.78 332.73,-68.77"/>
</g>
<!-- Node7 -->
<g id="node7" class="node">
<title>Node7</title>
<g id="a_node7"><a xlink:href="namespacegrid__utilities.html#a67001ff9bbcad707aacf17f90a748d90" target="_top" xlink:title="Trim a grid, removing any overlap between the different regions.">
<polygon fill="white" stroke="black" points="158,-0.5 158,-21.5 307,-21.5 307,-0.5 158,-0.5"/>
<text text-anchor="middle" x="232.5" y="-7.9" font-family="Ubuntu Mono" font-size="12.00">grid_utilities::trim_grid</text>
</a>
</g>
</g>
<!-- Node1&#45;&gt;Node7 -->
<g id="edge6" class="edge">
<title>Node1&#45;&gt;Node7</title>
<path fill="none" stroke="midnightblue" d="M107.87,-39.45C128.78,-34.63 153.73,-28.89 175.72,-23.83"/>
<polygon fill="midnightblue" stroke="midnightblue" points="176.63,-27.22 185.59,-21.56 175.06,-20.39 176.63,-27.22"/>
</g>
<!-- Node2&#45;&gt;Node3 -->
<g id="edge2" class="edge">
<title>Node2&#45;&gt;Node3</title>
<path fill="none" stroke="midnightblue" d="M291.85,-81.95C305.05,-80.35 319.16,-78.65 332.66,-77.02"/>
<polygon fill="midnightblue" stroke="midnightblue" points="333.34,-80.46 342.84,-75.79 332.5,-73.51 333.34,-80.46"/>
</g>
<!-- Node4 -->
<g id="node4" class="node">
<title>Node4</title>
<g id="a_node4"><a xlink:href="namespacemessages.html#a61fd0b51b5e37d58fdc993c01792a3fd" target="_top" xlink:title="Returns the time.">
<polygon fill="white" stroke="black" points="514.5,-98.5 514.5,-119.5 654.5,-119.5 654.5,-98.5 514.5,-98.5"/>
<text text-anchor="middle" x="584.5" y="-105.9" font-family="Ubuntu Mono" font-size="12.00">messages::get_clock</text>
</a>
</g>
</g>
<!-- Node3&#45;&gt;Node4 -->
<g id="edge3" class="edge">
<title>Node3&#45;&gt;Node4</title>
<path fill="none" stroke="midnightblue" d="M448.95,-79.51C472.43,-84.66 500.9,-90.9 525.59,-96.31"/>
<polygon fill="midnightblue" stroke="midnightblue" points="525.04,-99.77 535.55,-98.49 526.54,-92.93 525.04,-99.77"/>
</g>
<!-- Node5 -->
<g id="node5" class="node">
<title>Node5</title>
<g id="a_node5"><a xlink:href="namespacemessages.html#a82dddaab795b78b3d39e1ff1aab2f665" target="_top" xlink:title="Returns the memory usage in kilobytes.">
<polygon fill="white" stroke="black" points="493,-58.5 493,-79.5 676,-79.5 676,-58.5 493,-58.5"/>
<text text-anchor="middle" x="584.5" y="-65.9" font-family="Ubuntu Mono" font-size="12.00">messages::get_mem_usage</text>
</a>
</g>
</g>
<!-- Node3&#45;&gt;Node5 -->
<g id="edge4" class="edge">
<title>Node3&#45;&gt;Node5</title>
<path fill="none" stroke="midnightblue" d="M457.25,-69C465.37,-69 473.94,-69 482.63,-69"/>
<polygon fill="midnightblue" stroke="midnightblue" points="482.86,-72.5 492.86,-69 482.86,-65.5 482.86,-72.5"/>
</g>
<!-- Node6 -->
<g id="node6" class="node">
<title>Node6</title>
<g id="a_node6"><a xlink:href="namespacestr__utilities.html#a0b97e51770725a3e98ed393d26681414" target="_top" xlink:title="Convert an integer to string.">
<polygon fill="white" stroke="black" points="527.5,-18.5 527.5,-39.5 641.5,-39.5 641.5,-18.5 527.5,-18.5"/>
<text text-anchor="middle" x="584.5" y="-25.9" font-family="Ubuntu Mono" font-size="12.00">str_utilities::i2str</text>
</a>
</g>
</g>
<!-- Node3&#45;&gt;Node6 -->
<g id="edge5" class="edge">
<title>Node3&#45;&gt;Node6</title>
<path fill="none" stroke="midnightblue" d="M448.95,-58.49C472.43,-53.34 500.9,-47.1 525.59,-41.69"/>
<polygon fill="midnightblue" stroke="midnightblue" points="526.54,-45.07 535.55,-39.51 525.04,-38.23 526.54,-45.07"/>
</g>
</g>
</svg>
