<?xml version="1.0" encoding="UTF-8" standalone="no"?>
<!DOCTYPE svg PUBLIC "-//W3C//DTD SVG 1.1//EN"
 "http://www.w3.org/Graphics/SVG/1.1/DTD/svg11.dtd">
<!-- Generated by graphviz version 2.43.0 (0)
 -->
<!-- Title: messages::lvl_ud Pages: 1 -->
<svg width="495pt" height="110pt"
 viewBox="0.00 0.00 495.00 110.00" xmlns="http://www.w3.org/2000/svg" xmlns:xlink="http://www.w3.org/1999/xlink">
<g id="graph0" class="graph" transform="scale(1 1) rotate(0) translate(4 106)">
<title>messages::lvl_ud</title>
<polygon fill="white" stroke="transparent" points="-4,4 -4,-106 491,-106 491,4 -4,4"/>
<!-- Node1 -->
<g id="node1" class="node">
<title>Node1</title>
<g id="a_node1"><a xlink:title="Increases/decreases lvl of output.">
<polygon fill="#bfbfbf" stroke="black" points="0,-40.5 0,-61.5 118,-61.5 118,-40.5 0,-40.5"/>
<text text-anchor="middle" x="59" y="-47.9" font-family="Ubuntu Mono" font-size="12.00">messages::lvl_ud</text>
</a>
</g>
</g>
<!-- Node2 -->
<g id="node2" class="node">
<title>Node2</title>
<g id="a_node2"><a xlink:href="namespacemessages.html#aa4a8d01563e92558e8a0875b075ec54c" target="_top" xlink:title="Write output to file identified by output_i.">
<polygon fill="white" stroke="black" points="154,-40.5 154,-61.5 268,-61.5 268,-40.5 154,-40.5"/>
<text text-anchor="middle" x="211" y="-47.9" font-family="Ubuntu Mono" font-size="12.00">messages::writo</text>
</a>
</g>
</g>
<!-- Node1&#45;&gt;Node2 -->
<g id="edge1" class="edge">
<title>Node1&#45;&gt;Node2</title>
<path fill="none" stroke="midnightblue" d="M118.42,-51C126.73,-51 135.32,-51 143.76,-51"/>
<polygon fill="midnightblue" stroke="midnightblue" points="143.95,-54.5 153.95,-51 143.95,-47.5 143.95,-54.5"/>
</g>
<!-- Node3 -->
<g id="node3" class="node">
<title>Node3</title>
<g id="a_node3"><a xlink:href="namespacemessages.html#a61fd0b51b5e37d58fdc993c01792a3fd" target="_top" xlink:title="Returns the time.">
<polygon fill="white" stroke="black" points="325.5,-80.5 325.5,-101.5 465.5,-101.5 465.5,-80.5 325.5,-80.5"/>
<text text-anchor="middle" x="395.5" y="-87.9" font-family="Ubuntu Mono" font-size="12.00">messages::get_clock</text>
</a>
</g>
</g>
<!-- Node2&#45;&gt;Node3 -->
<g id="edge2" class="edge">
<title>Node2&#45;&gt;Node3</title>
<path fill="none" stroke="midnightblue" d="M259.95,-61.51C283.43,-66.66 311.9,-72.9 336.59,-78.31"/>
<polygon fill="midnightblue" stroke="midnightblue" points="336.04,-81.77 346.55,-80.49 337.54,-74.93 336.04,-81.77"/>
</g>
<!-- Node4 -->
<g id="node4" class="node">
<title>Node4</title>
<g id="a_node4"><a xlink:href="namespacemessages.html#a82dddaab795b78b3d39e1ff1aab2f665" target="_top" xlink:title="Returns the memory usage in kilobytes.">
<polygon fill="white" stroke="black" points="304,-40.5 304,-61.5 487,-61.5 487,-40.5 304,-40.5"/>
<text text-anchor="middle" x="395.5" y="-47.9" font-family="Ubuntu Mono" font-size="12.00">messages::get_mem_usage</text>
</a>
</g>
</g>
<!-- Node2&#45;&gt;Node4 -->
<g id="edge3" class="edge">
<title>Node2&#45;&gt;Node4</title>
<path fill="none" stroke="midnightblue" d="M268.25,-51C276.37,-51 284.94,-51 293.63,-51"/>
<polygon fill="midnightblue" stroke="midnightblue" points="293.86,-54.5 303.86,-51 293.86,-47.5 293.86,-54.5"/>
</g>
<!-- Node5 -->
<g id="node5" class="node">
<title>Node5</title>
<g id="a_node5"><a xlink:href="namespacestr__utilities.html#a0b97e51770725a3e98ed393d26681414" target="_top" xlink:title="Convert an integer to string.">
<polygon fill="white" stroke="black" points="338.5,-0.5 338.5,-21.5 452.5,-21.5 452.5,-0.5 338.5,-0.5"/>
<text text-anchor="middle" x="395.5" y="-7.9" font-family="Ubuntu Mono" font-size="12.00">str_utilities::i2str</text>
</a>
</g>
</g>
<!-- Node2&#45;&gt;Node5 -->
<g id="edge4" class="edge">
<title>Node2&#45;&gt;Node5</title>
<path fill="none" stroke="midnightblue" d="M259.95,-40.49C283.43,-35.34 311.9,-29.1 336.59,-23.69"/>
<polygon fill="midnightblue" stroke="midnightblue" points="337.54,-27.07 346.55,-21.51 336.04,-20.23 337.54,-27.07"/>
</g>
</g>
</svg>
