<?xml version="1.0" encoding="UTF-8" standalone="no"?>
<!DOCTYPE svg PUBLIC "-//W3C//DTD SVG 1.1//EN"
 "http://www.w3.org/Graphics/SVG/1.1/DTD/svg11.dtd">
<!-- Generated by graphviz version 2.38.0 (20140413.2041)
 -->
<!-- Title: sol_ops::decompose_energy Pages: 1 -->
<svg width="431pt" height="43pt"
 viewBox="0.00 0.00 431.00 43.00" xmlns="http://www.w3.org/2000/svg" xmlns:xlink="http://www.w3.org/1999/xlink">
<g id="graph0" class="graph" transform="scale(1 1) rotate(0) translate(4 39)">
<title>sol_ops::decompose_energy</title>
<polygon fill="white" stroke="none" points="-4,4 -4,-39 427,-39 427,4 -4,4"/>
<!-- Node56 -->
<g id="node1" class="node"><title>Node56</title>
<polygon fill="#bfbfbf" stroke="black" points="0,-0.5 0,-34.5 125,-34.5 125,-0.5 0,-0.5"/>
<text text-anchor="start" x="8" y="-20.9" font-family="Ubuntu Mono" font-size="12.00">sol_ops::decompose</text>
<text text-anchor="middle" x="62.5" y="-7.9" font-family="Ubuntu Mono" font-size="12.00">_energy</text>
</g>
<!-- Node57 -->
<g id="node2" class="node"><title>Node57</title>
<g id="a_node2"><a xlink:href="namespacedriver__post.html#a1d9c6d7e46d9e49cdc84c4c21772039c" target="_top" xlink:title="The main driver routine for postprocessing. ">
<polygon fill="white" stroke="black" points="161,-7 161,-28 346,-28 346,-7 161,-7"/>
<text text-anchor="middle" x="253.5" y="-14.4" font-family="Ubuntu Mono" font-size="12.00">driver_post::run_driver_post</text>
</a>
</g>
</g>
<!-- Node56&#45;&gt;Node57 -->
<g id="edge1" class="edge"><title>Node56&#45;&gt;Node57</title>
<path fill="none" stroke="midnightblue" d="M135.19,-17.5C143.562,-17.5 152.187,-17.5 160.782,-17.5"/>
<polygon fill="midnightblue" stroke="midnightblue" points="135.124,-14.0001 125.124,-17.5 135.124,-21.0001 135.124,-14.0001"/>
</g>
<!-- Node58 -->
<g id="node3" class="node"><title>Node58</title>
<g id="a_node3"><a xlink:href="POST_8f90.html#ac289b64ac4671fea0b4f2298ba1188a1" target="_top" xlink:title="Peeling Ballooning in 3D: postprocessing. ">
<polygon fill="white" stroke="black" points="382,-7 382,-28 423,-28 423,-7 382,-7"/>
<text text-anchor="middle" x="402.5" y="-14.4" font-family="Ubuntu Mono" font-size="12.00">post</text>
</a>
</g>
</g>
<!-- Node57&#45;&gt;Node58 -->
<g id="edge2" class="edge"><title>Node57&#45;&gt;Node58</title>
<path fill="none" stroke="midnightblue" d="M356.464,-17.5C365.946,-17.5 374.681,-17.5 381.883,-17.5"/>
<polygon fill="midnightblue" stroke="midnightblue" points="356.344,-14.0001 346.344,-17.5 356.344,-21.0001 356.344,-14.0001"/>
</g>
</g>
</svg>
