<?xml version="1.0" encoding="UTF-8" standalone="no"?>
<!DOCTYPE svg PUBLIC "-//W3C//DTD SVG 1.1//EN"
 "http://www.w3.org/Graphics/SVG/1.1/DTD/svg11.dtd">
<!-- Generated by graphviz version 14.1.2 (20260124.0452)
 -->
<!-- Title: messages::writo Pages: 1 -->
<svg width="304pt" height="86pt"
 viewBox="0.00 0.00 304.00 86.00" xmlns="http://www.w3.org/2000/svg" xmlns:xlink="http://www.w3.org/1999/xlink">
<g id="graph0" class="graph" transform="scale(1 1) rotate(0) translate(4 81.75)">
<title>messages::writo</title>
<!-- Node1 -->
<g id="Node000001" class="node">
<title>Node1</title>
<g id="a_Node000001"><a xlink:title="Write output to file identified by output_i.">
<polygon fill="#999999" stroke="#666666" points="106,-48.75 0,-48.75 0,-28 106,-28 106,-48.75"/>
<text xml:space="preserve" text-anchor="middle" x="53" y="-33.35" font-family="Ubuntu Mono" font-size="12.00">messages::writo</text>
</a>
</g>
</g>
<!-- Node2 -->
<g id="Node000002" class="node">
<title>Node2</title>
<g id="a_Node000002"><a xlink:href="namespacemessages.html#a82dddaab795b78b3d39e1ff1aab2f665" target="_top" xlink:title="Returns the memory usage in kilobytes.">
<polygon fill="white" stroke="#666666" points="296,-77.75 142,-77.75 142,-57 296,-57 296,-77.75"/>
<text xml:space="preserve" text-anchor="middle" x="219" y="-62.35" font-family="Ubuntu Mono" font-size="12.00">messages::get_mem_usage</text>
</a>
</g>
</g>
<!-- Node1&#45;&gt;Node2 -->
<g id="edge1_Node000001_Node000002" class="edge">
<title>Node1&#45;&gt;Node2</title>
<g id="a_edge1_Node000001_Node000002"><a xlink:title=" ">
<path fill="none" stroke="#63b8ff" d="M106.34,-47.63C118.86,-49.85 132.45,-52.25 145.7,-54.59"/>
<polygon fill="#63b8ff" stroke="#63b8ff" points="144.77,-57.98 155.23,-56.28 145.99,-51.09 144.77,-57.98"/>
</a>
</g>
</g>
<!-- Node3 -->
<g id="Node000003" class="node">
<title>Node3</title>
<g id="a_Node000003"><a xlink:href="namespacestr__utilities.html#a0b97e51770725a3e98ed393d26681414" target="_top" xlink:title="Convert an integer to string.">
<polygon fill="white" stroke="#666666" points="287,-20.75 151,-20.75 151,0 287,0 287,-20.75"/>
<text xml:space="preserve" text-anchor="middle" x="219" y="-5.35" font-family="Ubuntu Mono" font-size="12.00">str_utilities::i2str</text>
</a>
</g>
</g>
<!-- Node1&#45;&gt;Node3 -->
<g id="edge2_Node000001_Node000003" class="edge">
<title>Node1&#45;&gt;Node3</title>
<g id="a_edge2_Node000001_Node000003"><a xlink:title=" ">
<path fill="none" stroke="#63b8ff" d="M106.34,-29.44C118.04,-27.44 130.67,-25.29 143.08,-23.17"/>
<polygon fill="#63b8ff" stroke="#63b8ff" points="143.62,-26.62 152.89,-21.49 142.45,-19.72 143.62,-26.62"/>
</a>
</g>
</g>
<!-- Node3&#45;&gt;Node3 -->
<g id="edge3_Node000003_Node000003" class="edge">
<title>Node3&#45;&gt;Node3</title>
<g id="a_edge3_Node000003_Node000003"><a xlink:title=" ">
<path fill="none" stroke="#63b8ff" d="M192.25,-21.15C181.55,-29.81 190.47,-38.75 219,-38.75 234.6,-38.75 244.34,-36.08 248.21,-32.24"/>
<polygon fill="#63b8ff" stroke="#63b8ff" points="251.66,-31.63 246.08,-22.62 244.83,-33.15 251.66,-31.63"/>
</a>
</g>
</g>
</g>
</svg>
