<?xml version="1.0" encoding="UTF-8" standalone="no"?>
<!DOCTYPE svg PUBLIC "-//W3C//DTD SVG 1.1//EN"
 "http://www.w3.org/Graphics/SVG/1.1/DTD/svg11.dtd">
<!-- Generated by graphviz version 2.38.0 (20140413.2041)
 -->
<!-- Title: mpi_utilities::wait_mpi Pages: 1 -->
<svg width="1291pt" height="540pt"
 viewBox="0.00 0.00 1291.00 540.43" xmlns="http://www.w3.org/2000/svg" xmlns:xlink="http://www.w3.org/1999/xlink">
<g id="graph0" class="graph" transform="scale(1 1) rotate(0) translate(4 536.426)">
<title>mpi_utilities::wait_mpi</title>
<polygon fill="white" stroke="none" points="-4,4 -4,-536.426 1287,-536.426 1287,4 -4,4"/>
<!-- Node300 -->
<g id="node1" class="node"><title>Node300</title>
<polygon fill="#bfbfbf" stroke="black" points="0,-141 0,-162 155,-162 155,-141 0,-141"/>
<text text-anchor="middle" x="77.5" y="-148.4" font-family="Ubuntu Mono" font-size="12.00">mpi_utilities::wait_mpi</text>
</g>
<!-- Node301 -->
<g id="node2" class="node"><title>Node301</title>
<g id="a_node2"><a xlink:href="namespacedriver__eq.html#adc9d5dff288fa512e5ef885627d940cc" target="_top" xlink:title="Main driver of PB3D equilibrium part. ">
<polygon fill="white" stroke="black" points="418,-501 418,-522 579,-522 579,-501 418,-501"/>
<text text-anchor="middle" x="498.5" y="-508.4" font-family="Ubuntu Mono" font-size="12.00">driver_eq::run_driver_eq</text>
</a>
</g>
</g>
<!-- Node300&#45;&gt;Node301 -->
<g id="edge1" class="edge"><title>Node300&#45;&gt;Node301</title>
<path fill="none" stroke="midnightblue" d="M78.2646,-172.398C78.8396,-232.59 89.5587,-407.103 191,-486.5 266.36,-545.484 386.456,-534.124 451.692,-522.011"/>
<polygon fill="midnightblue" stroke="midnightblue" points="81.7646,-172.238 78.2582,-162.24 74.7646,-172.243 81.7646,-172.238"/>
</g>
<!-- Node303 -->
<g id="node4" class="node"><title>Node303</title>
<g id="a_node4"><a xlink:href="namespacedriver__post.html#af527706d4e696d4e507443d2f74194ef" target="_top" xlink:title="Initializes the POST driver. ">
<polygon fill="white" stroke="black" points="206,-54 206,-75 355,-75 355,-54 206,-54"/>
<text text-anchor="middle" x="280.5" y="-61.4" font-family="Ubuntu Mono" font-size="12.00">driver_post::init_post</text>
</a>
</g>
</g>
<!-- Node300&#45;&gt;Node303 -->
<g id="edge3" class="edge"><title>Node300&#45;&gt;Node303</title>
<path fill="none" stroke="midnightblue" d="M101.322,-134.964C123.295,-119.774 157.969,-97.6816 191,-84.5 200.363,-80.7634 210.576,-77.6452 220.629,-75.0696"/>
<polygon fill="midnightblue" stroke="midnightblue" points="99.1728,-132.196 93.0007,-140.807 103.196,-137.925 99.1728,-132.196"/>
</g>
<!-- Node305 -->
<g id="node6" class="node"><title>Node305</title>
<g id="a_node6"><a xlink:href="namespacedriver__post.html#a3438685c5fb7302f756c368fb5f940ee" target="_top" xlink:title="Sets up the output grids for a particular parallel job. ">
<polygon fill="white" stroke="black" points="218,-0.5 218,-34.5 343,-34.5 343,-0.5 218,-0.5"/>
<text text-anchor="start" x="226" y="-20.9" font-family="Ubuntu Mono" font-size="12.00">driver_post::setup</text>
<text text-anchor="middle" x="280.5" y="-7.9" font-family="Ubuntu Mono" font-size="12.00">_out_grids</text>
</a>
</g>
</g>
<!-- Node300&#45;&gt;Node305 -->
<g id="edge5" class="edge"><title>Node300&#45;&gt;Node305</title>
<path fill="none" stroke="midnightblue" d="M93.3769,-132.739C113.218,-108.92 150.568,-68.0938 191,-44.5 199.325,-39.6423 208.608,-35.5785 217.945,-32.2032"/>
<polygon fill="midnightblue" stroke="midnightblue" points="90.5038,-130.724 86.8858,-140.682 95.924,-135.154 90.5038,-130.724"/>
</g>
<!-- Node307 -->
<g id="node8" class="node"><title>Node307</title>
<g id="a_node8"><a xlink:href="namespaceinput__utilities.html#a71bd36f063d55ab62c7a37864aef1185" target="_top" xlink:title="Pauses the running of the program. ">
<polygon fill="white" stroke="black" points="191,-278 191,-299 370,-299 370,-278 191,-278"/>
<text text-anchor="middle" x="280.5" y="-285.4" font-family="Ubuntu Mono" font-size="12.00">input_utilities::pause_prog</text>
</a>
</g>
</g>
<!-- Node300&#45;&gt;Node307 -->
<g id="edge8" class="edge"><title>Node300&#45;&gt;Node307</title>
<path fill="none" stroke="midnightblue" d="M102.384,-167.779C144.097,-196.21 229.102,-254.149 264.009,-277.941"/>
<polygon fill="midnightblue" stroke="midnightblue" points="104.173,-164.763 93.9384,-162.023 100.23,-170.547 104.173,-164.763"/>
</g>
<!-- Node317 -->
<g id="node18" class="node"><title>Node317</title>
<g id="a_node18"><a xlink:href="namespaceslepc__ops.html#a05f8a23335ed47ad1996cddf3bcfdc2e" target="_top" xlink:title="Sets the boundary conditions deep in the plasma (1) and at the edge (2). ">
<polygon fill="white" stroke="black" points="654,-427 654,-448 773,-448 773,-427 654,-427"/>
<text text-anchor="middle" x="713.5" y="-434.4" font-family="Ubuntu Mono" font-size="12.00">slepc_ops::set_bc</text>
</a>
</g>
</g>
<!-- Node300&#45;&gt;Node317 -->
<g id="edge31" class="edge"><title>Node300&#45;&gt;Node317</title>
<path fill="none" stroke="midnightblue" d="M89.4012,-171.063C107.583,-202.539 146.521,-265.267 191,-308.5 273.647,-388.833 295.779,-419.806 406,-453.5 498.231,-481.695 613.259,-462.022 672.742,-448.075"/>
<polygon fill="midnightblue" stroke="midnightblue" points="92.2348,-168.966 84.2467,-162.006 86.151,-172.428 92.2348,-168.966"/>
</g>
<!-- Node321 -->
<g id="node22" class="node"><title>Node321</title>
<g id="a_node22"><a xlink:href="test_8f90.html#a197914f99b7e194fb4bca9ca3669e0e8" target="_top" xlink:title="plot_y">
<polygon fill="white" stroke="black" points="254,-94 254,-115 307,-115 307,-94 254,-94"/>
<text text-anchor="middle" x="280.5" y="-101.4" font-family="Ubuntu Mono" font-size="12.00">plot_y</text>
</a>
</g>
</g>
<!-- Node300&#45;&gt;Node321 -->
<g id="edge32" class="edge"><title>Node300&#45;&gt;Node321</title>
<path fill="none" stroke="midnightblue" d="M131.588,-138.606C150.346,-134.09 171.599,-129.02 191,-124.5 212.171,-119.568 236.234,-114.141 253.919,-110.187"/>
<polygon fill="midnightblue" stroke="midnightblue" points="130.641,-135.234 121.74,-140.98 132.282,-142.038 130.641,-135.234"/>
</g>
<!-- Node323 -->
<g id="node24" class="node"><title>Node323</title>
<g id="a_node24"><a xlink:href="namespacetest.html#ac574f08ba400cd61070a6a6f13f6f7ee" target="_top" xlink:title="Tests reading of HDF5 subset. ">
<polygon fill="white" stroke="black" points="212,-134.5 212,-168.5 349,-168.5 349,-134.5 212,-134.5"/>
<text text-anchor="start" x="220" y="-154.9" font-family="Ubuntu Mono" font-size="12.00">test::test_read_hdf5</text>
<text text-anchor="middle" x="280.5" y="-141.9" font-family="Ubuntu Mono" font-size="12.00">_subset</text>
</a>
</g>
</g>
<!-- Node300&#45;&gt;Node323 -->
<g id="edge35" class="edge"><title>Node300&#45;&gt;Node323</title>
<path fill="none" stroke="midnightblue" d="M165.207,-151.5C180.767,-151.5 196.776,-151.5 211.705,-151.5"/>
<polygon fill="midnightblue" stroke="midnightblue" points="165.063,-148 155.063,-151.5 165.063,-155 165.063,-148"/>
</g>
<!-- Node302 -->
<g id="node3" class="node"><title>Node302</title>
<g id="a_node3"><a xlink:href="PB3D_8f90.html#afaee01f014ab3398eecac996b2795fd2" target="_top" xlink:title="Peeling Ballooning in 3D. ">
<polygon fill="white" stroke="black" points="1242,-278 1242,-299 1283,-299 1283,-278 1242,-278"/>
<text text-anchor="middle" x="1262.5" y="-285.4" font-family="Ubuntu Mono" font-size="12.00">pb3d</text>
</a>
</g>
</g>
<!-- Node301&#45;&gt;Node302 -->
<g id="edge2" class="edge"><title>Node301&#45;&gt;Node302</title>
<path fill="none" stroke="midnightblue" d="M589.373,-518.17C733.18,-524.193 1017.91,-516.528 1206,-383.5 1236.1,-362.212 1252.36,-319.027 1258.54,-299.061"/>
<polygon fill="midnightblue" stroke="midnightblue" points="589.414,-514.669 579.266,-517.715 589.098,-521.662 589.414,-514.669"/>
</g>
<!-- Node304 -->
<g id="node5" class="node"><title>Node304</title>
<g id="a_node5"><a xlink:href="POST_8f90.html#ac289b64ac4671fea0b4f2298ba1188a1" target="_top" xlink:title="Peeling Ballooning in 3D: postprocessing. ">
<polygon fill="white" stroke="black" points="896,-75 896,-96 937,-96 937,-75 896,-75"/>
<text text-anchor="middle" x="916.5" y="-82.4" font-family="Ubuntu Mono" font-size="12.00">post</text>
</a>
</g>
</g>
<!-- Node303&#45;&gt;Node304 -->
<g id="edge4" class="edge"><title>Node303&#45;&gt;Node304</title>
<path fill="none" stroke="midnightblue" d="M365.161,-67.2711C513.88,-72.1971 816.149,-82.2092 895.865,-84.8496"/>
<polygon fill="midnightblue" stroke="midnightblue" points="365.268,-63.7728 355.158,-66.9398 365.036,-70.769 365.268,-63.7728"/>
</g>
<!-- Node306 -->
<g id="node7" class="node"><title>Node306</title>
<g id="a_node7"><a xlink:href="namespacedriver__post.html#a33b3c6f9018a0ddc92dce77394b8ab37" target="_top" xlink:title="The main driver routine for postprocessing. ">
<polygon fill="white" stroke="black" points="406,-7 406,-28 591,-28 591,-7 406,-7"/>
<text text-anchor="middle" x="498.5" y="-14.4" font-family="Ubuntu Mono" font-size="12.00">driver_post::run_driver_post</text>
</a>
</g>
</g>
<!-- Node305&#45;&gt;Node306 -->
<g id="edge6" class="edge"><title>Node305&#45;&gt;Node306</title>
<path fill="none" stroke="midnightblue" d="M353.408,-17.5C370.252,-17.5 388.42,-17.5 405.991,-17.5"/>
<polygon fill="midnightblue" stroke="midnightblue" points="353.108,-14.0001 343.108,-17.5 353.108,-21.0001 353.108,-14.0001"/>
</g>
<!-- Node306&#45;&gt;Node304 -->
<g id="edge7" class="edge"><title>Node306&#45;&gt;Node304</title>
<path fill="none" stroke="midnightblue" d="M601.229,-19.0707C659.926,-21.6838 734.798,-27.9401 800,-42.5 834.873,-50.2874 873.399,-66.2134 895.972,-76.3458"/>
<polygon fill="midnightblue" stroke="midnightblue" points="601.347,-15.5727 591.21,-18.6529 601.055,-22.5666 601.347,-15.5727"/>
</g>
<!-- Node307&#45;&gt;Node301 -->
<g id="edge9" class="edge"><title>Node307&#45;&gt;Node301</title>
<path fill="none" stroke="midnightblue" d="M292.847,-307.828C312.74,-340.589 356.527,-407.9 406,-453.5 427.574,-473.385 456.832,-490.573 476.398,-500.966"/>
<polygon fill="midnightblue" stroke="midnightblue" points="295.814,-305.97 287.672,-299.19 289.809,-309.568 295.814,-305.97"/>
</g>
<!-- Node308 -->
<g id="node9" class="node"><title>Node308</title>
<g id="a_node9"><a xlink:href="namespacedriver__x.html#a454779cefa6da3714d32eedcec0ef7de" target="_top" xlink:title="Part 1 of driver_x: Vectorial jobs. ">
<polygon fill="white" stroke="black" points="836,-278 836,-299 997,-299 997,-278 836,-278"/>
<text text-anchor="middle" x="916.5" y="-285.4" font-family="Ubuntu Mono" font-size="12.00">driver_x::run_driver_x_1</text>
</a>
</g>
</g>
<!-- Node307&#45;&gt;Node308 -->
<g id="edge10" class="edge"><title>Node307&#45;&gt;Node308</title>
<path fill="none" stroke="midnightblue" d="M380.324,-288.5C505.876,-288.5 720.108,-288.5 835.781,-288.5"/>
<polygon fill="midnightblue" stroke="midnightblue" points="380.323,-285 370.323,-288.5 380.323,-292 380.323,-285"/>
</g>
<!-- Node310 -->
<g id="node11" class="node"><title>Node310</title>
<g id="a_node11"><a xlink:href="interfaceeq__ops_1_1calc__eq.html#ae2f56ab19ce5c33e863f32e1c9263604" target="_top" xlink:title="metric version ">
<polygon fill="white" stroke="black" points="627,-335 627,-356 800,-356 800,-335 627,-335"/>
<text text-anchor="middle" x="713.5" y="-342.4" font-family="Ubuntu Mono" font-size="12.00">eq_ops::calc_eq::calc_eq_2</text>
</a>
</g>
</g>
<!-- Node307&#45;&gt;Node310 -->
<g id="edge13" class="edge"><title>Node307&#45;&gt;Node310</title>
<path fill="none" stroke="midnightblue" d="M302.457,-305.301C326.026,-323.022 366.226,-349.827 406,-360.5 496.69,-384.835 607.785,-368.552 668.201,-356.045"/>
<polygon fill="midnightblue" stroke="midnightblue" points="304.334,-302.329 294.274,-299.006 300.066,-307.877 304.334,-302.329"/>
</g>
<!-- Node311 -->
<g id="node12" class="node"><title>Node311</title>
<g id="a_node12"><a xlink:href="namespaceeq__ops.html#a9addef683b3d4a8c587510e4c994ec61" target="_top" xlink:title="Creates a VMEC input file. ">
<polygon fill="white" stroke="black" points="433,-317.5 433,-351.5 564,-351.5 564,-317.5 433,-317.5"/>
<text text-anchor="start" x="441" y="-337.9" font-family="Ubuntu Mono" font-size="12.00">eq_ops::create_vmec</text>
<text text-anchor="middle" x="498.5" y="-324.9" font-family="Ubuntu Mono" font-size="12.00">_input</text>
</a>
</g>
</g>
<!-- Node307&#45;&gt;Node311 -->
<g id="edge14" class="edge"><title>Node307&#45;&gt;Node311</title>
<path fill="none" stroke="midnightblue" d="M340.864,-301.142C369.318,-307.202 403.465,-314.474 432.604,-320.679"/>
<polygon fill="midnightblue" stroke="midnightblue" points="341.564,-297.713 331.055,-299.053 340.106,-304.56 341.564,-297.713"/>
</g>
<!-- Node312 -->
<g id="node13" class="node"><title>Node312</title>
<g id="a_node13"><a xlink:href="namespacempi__ops.html#a804ec65ff711509de1f8873f97bdf967" target="_top" xlink:title="Start MPI and gather information. ">
<polygon fill="white" stroke="black" points="651,-199 651,-220 776,-220 776,-199 651,-199"/>
<text text-anchor="middle" x="713.5" y="-206.4" font-family="Ubuntu Mono" font-size="12.00">mpi_ops::start_mpi</text>
</a>
</g>
</g>
<!-- Node307&#45;&gt;Node312 -->
<g id="edge16" class="edge"><title>Node307&#45;&gt;Node312</title>
<path fill="none" stroke="midnightblue" d="M307.087,-272.832C331.521,-258.746 369.868,-238.874 406,-229.5 488.844,-208.006 588.285,-205.602 650.949,-206.8"/>
<polygon fill="midnightblue" stroke="midnightblue" points="305.287,-269.83 298.438,-277.913 308.833,-275.866 305.287,-269.83"/>
</g>
<!-- Node313 -->
<g id="node14" class="node"><title>Node313</title>
<g id="a_node14"><a xlink:href="namespaceslepc__utilities.html#aa34aa361f0bfff9621ecba179f9ed0c6" target="_top" xlink:title="Insert a block pertaining to 1 normal point into a matrix. ">
<polygon fill="white" stroke="black" points="421,-409.5 421,-443.5 576,-443.5 576,-409.5 421,-409.5"/>
<text text-anchor="start" x="429" y="-429.9" font-family="Ubuntu Mono" font-size="12.00">slepc_utilities::insert</text>
<text text-anchor="middle" x="498.5" y="-416.9" font-family="Ubuntu Mono" font-size="12.00">_block_mat</text>
</a>
</g>
</g>
<!-- Node307&#45;&gt;Node313 -->
<g id="edge19" class="edge"><title>Node307&#45;&gt;Node313</title>
<path fill="none" stroke="midnightblue" d="M298.631,-306.778C321.26,-329.996 363.27,-369.985 406,-394.5 416.072,-400.278 427.362,-405.267 438.481,-409.471"/>
<polygon fill="midnightblue" stroke="midnightblue" points="300.916,-304.106 291.465,-299.318 295.868,-308.955 300.916,-304.106"/>
</g>
<!-- Node318 -->
<g id="node19" class="node"><title>Node318</title>
<g id="a_node19"><a xlink:href="namespacetest.html#aca21ee464c0b1f4b617177afdde110ec" target="_top" xlink:title="Performs generic tests. ">
<polygon fill="white" stroke="black" points="648,-124 648,-145 779,-145 779,-124 648,-124"/>
<text text-anchor="middle" x="713.5" y="-131.4" font-family="Ubuntu Mono" font-size="12.00">test::generic_tests</text>
</a>
</g>
</g>
<!-- Node307&#45;&gt;Node318 -->
<g id="edge26" class="edge"><title>Node307&#45;&gt;Node318</title>
<path fill="none" stroke="midnightblue" d="M301.463,-271.295C324.937,-251.954 365.815,-220.977 406,-203.5 429.196,-193.412 579.706,-161.715 660.846,-145.021"/>
<polygon fill="midnightblue" stroke="midnightblue" points="299.057,-268.745 293.636,-277.848 303.55,-274.112 299.057,-268.745"/>
</g>
<!-- Node319 -->
<g id="node20" class="node"><title>Node319</title>
<g id="a_node20"><a xlink:href="namespacex__ops.html#a4e39701da15ff952add5133db1897b52" target="_top" xlink:title="Calculate , &#160;or , . ">
<polygon fill="white" stroke="black" points="451,-239 451,-260 546,-260 546,-239 451,-239"/>
<text text-anchor="middle" x="498.5" y="-246.4" font-family="Ubuntu Mono" font-size="12.00">x_ops::calc_u</text>
</a>
</g>
</g>
<!-- Node307&#45;&gt;Node319 -->
<g id="edge29" class="edge"><title>Node307&#45;&gt;Node319</title>
<path fill="none" stroke="midnightblue" d="M349.691,-276.188C382.632,-270.24 421.319,-263.255 450.85,-257.923"/>
<polygon fill="midnightblue" stroke="midnightblue" points="348.887,-272.776 339.668,-277.997 350.131,-279.665 348.887,-272.776"/>
</g>
<!-- Node309 -->
<g id="node10" class="node"><title>Node309</title>
<g id="a_node10"><a xlink:href="namespacedriver__x.html#ada3d72a0929daaa5e3da585246d62281" target="_top" xlink:title="Main driver of PB3D perturbation part. ">
<polygon fill="white" stroke="black" points="1045,-278 1045,-299 1194,-299 1194,-278 1045,-278"/>
<text text-anchor="middle" x="1119.5" y="-285.4" font-family="Ubuntu Mono" font-size="12.00">driver_x::run_driver_x</text>
</a>
</g>
</g>
<!-- Node308&#45;&gt;Node309 -->
<g id="edge11" class="edge"><title>Node308&#45;&gt;Node309</title>
<path fill="none" stroke="midnightblue" d="M1007.6,-288.5C1020.02,-288.5 1032.66,-288.5 1044.75,-288.5"/>
<polygon fill="midnightblue" stroke="midnightblue" points="1007.23,-285 997.229,-288.5 1007.23,-292 1007.23,-285"/>
</g>
<!-- Node309&#45;&gt;Node302 -->
<g id="edge12" class="edge"><title>Node309&#45;&gt;Node302</title>
<path fill="none" stroke="midnightblue" d="M1204.55,-288.5C1218.48,-288.5 1231.68,-288.5 1241.86,-288.5"/>
<polygon fill="midnightblue" stroke="midnightblue" points="1204.3,-285 1194.3,-288.5 1204.3,-292 1204.3,-285"/>
</g>
<!-- Node311&#45;&gt;Node310 -->
<g id="edge15" class="edge"><title>Node311&#45;&gt;Node310</title>
<path fill="none" stroke="midnightblue" d="M574.619,-338.379C591.499,-339.251 609.535,-340.183 626.81,-341.075"/>
<polygon fill="midnightblue" stroke="midnightblue" points="574.442,-334.866 564.275,-337.845 574.081,-341.856 574.442,-334.866"/>
</g>
<!-- Node312&#45;&gt;Node302 -->
<g id="edge17" class="edge"><title>Node312&#45;&gt;Node302</title>
<path fill="none" stroke="midnightblue" d="M786.429,-213.03C882.987,-218.923 1059.35,-233.75 1206,-268.5 1218.16,-271.381 1231.33,-276.058 1241.79,-280.166"/>
<polygon fill="midnightblue" stroke="midnightblue" points="786.387,-209.522 776.197,-212.421 785.971,-216.509 786.387,-209.522"/>
</g>
<!-- Node312&#45;&gt;Node304 -->
<g id="edge18" class="edge"><title>Node312&#45;&gt;Node304</title>
<path fill="none" stroke="midnightblue" d="M740.395,-193.525C782.127,-167.78 863.139,-117.802 898.406,-96.0454"/>
<polygon fill="midnightblue" stroke="midnightblue" points="738.31,-190.699 731.637,-198.928 741.986,-196.656 738.31,-190.699"/>
</g>
<!-- Node314 -->
<g id="node15" class="node"><title>Node314</title>
<g id="a_node15"><a xlink:href="namespaceslepc__ops.html#aac8202cb74cbb06013eb73f1fa0c3118" target="_top" xlink:title="Sets up the matrices &#160;and &#160;in the EV problem . ">
<polygon fill="white" stroke="black" points="642,-387 642,-408 785,-408 785,-387 642,-387"/>
<text text-anchor="middle" x="713.5" y="-394.4" font-family="Ubuntu Mono" font-size="12.00">slepc_ops::setup_mats</text>
</a>
</g>
</g>
<!-- Node313&#45;&gt;Node314 -->
<g id="edge20" class="edge"><title>Node313&#45;&gt;Node314</title>
<path fill="none" stroke="midnightblue" d="M586.018,-414.721C604.594,-412.191 624.012,-409.548 641.9,-407.112"/>
<polygon fill="midnightblue" stroke="midnightblue" points="585.533,-411.254 576.097,-416.071 586.478,-418.19 585.533,-411.254"/>
</g>
<!-- Node313&#45;&gt;Node317 -->
<g id="edge24" class="edge"><title>Node313&#45;&gt;Node317</title>
<path fill="none" stroke="midnightblue" d="M586.125,-430.974C608.931,-432.151 632.998,-433.394 653.94,-434.476"/>
<polygon fill="midnightblue" stroke="midnightblue" points="586.264,-427.476 576.097,-430.456 585.903,-434.467 586.264,-427.476"/>
</g>
<!-- Node315 -->
<g id="node16" class="node"><title>Node315</title>
<g id="a_node16"><a xlink:href="namespaceslepc__ops.html#a79c420987056c225931b51c8d30ece1f" target="_top" xlink:title="Solve the eigenvalue system using SLEPC. ">
<polygon fill="white" stroke="black" points="851,-380.5 851,-414.5 982,-414.5 982,-380.5 851,-380.5"/>
<text text-anchor="start" x="859" y="-400.9" font-family="Ubuntu Mono" font-size="12.00">slepc_ops::solve_ev</text>
<text text-anchor="middle" x="916.5" y="-387.9" font-family="Ubuntu Mono" font-size="12.00">_system_slepc</text>
</a>
</g>
</g>
<!-- Node314&#45;&gt;Node315 -->
<g id="edge21" class="edge"><title>Node314&#45;&gt;Node315</title>
<path fill="none" stroke="midnightblue" d="M795.233,-397.5C813.705,-397.5 833.105,-397.5 850.802,-397.5"/>
<polygon fill="midnightblue" stroke="midnightblue" points="795.082,-394 785.082,-397.5 795.082,-401 795.082,-394"/>
</g>
<!-- Node316 -->
<g id="node17" class="node"><title>Node316</title>
<g id="a_node17"><a xlink:href="namespacedriver__sol.html#ad3b1765b3ecc5f82129bfc683ffc6c5c" target="_top" xlink:title="Main driver of PB3D solution part. ">
<polygon fill="white" stroke="black" points="1033,-353 1033,-374 1206,-374 1206,-353 1033,-353"/>
<text text-anchor="middle" x="1119.5" y="-360.4" font-family="Ubuntu Mono" font-size="12.00">driver_sol::run_driver_sol</text>
</a>
</g>
</g>
<!-- Node315&#45;&gt;Node316 -->
<g id="edge22" class="edge"><title>Node315&#45;&gt;Node316</title>
<path fill="none" stroke="midnightblue" d="M992.104,-384.88C1013.23,-381.306 1036,-377.455 1056.32,-374.019"/>
<polygon fill="midnightblue" stroke="midnightblue" points="991.48,-381.436 982.204,-386.555 992.648,-388.338 991.48,-381.436"/>
</g>
<!-- Node316&#45;&gt;Node302 -->
<g id="edge23" class="edge"><title>Node316&#45;&gt;Node302</title>
<path fill="none" stroke="midnightblue" d="M1149.55,-348.049C1177.09,-333.401 1217.71,-311.794 1241.7,-299.033"/>
<polygon fill="midnightblue" stroke="midnightblue" points="1147.59,-345.127 1140.4,-352.913 1150.88,-351.307 1147.59,-345.127"/>
</g>
<!-- Node317&#45;&gt;Node315 -->
<g id="edge25" class="edge"><title>Node317&#45;&gt;Node315</title>
<path fill="none" stroke="midnightblue" d="M777.14,-425.034C800.577,-420.37 827.232,-415.066 850.848,-410.366"/>
<polygon fill="midnightblue" stroke="midnightblue" points="776.435,-421.606 767.31,-426.99 777.801,-428.471 776.435,-421.606"/>
</g>
<!-- Node318&#45;&gt;Node302 -->
<g id="edge27" class="edge"><title>Node318&#45;&gt;Node302</title>
<path fill="none" stroke="midnightblue" d="M789.378,-136.372C889.787,-141.725 1071.04,-161.543 1206,-233.5 1226.35,-244.349 1244.15,-265.043 1253.81,-277.723"/>
<polygon fill="midnightblue" stroke="midnightblue" points="789.486,-132.873 779.324,-135.87 789.137,-139.864 789.486,-132.873"/>
</g>
<!-- Node318&#45;&gt;Node304 -->
<g id="edge28" class="edge"><title>Node318&#45;&gt;Node304</title>
<path fill="none" stroke="midnightblue" d="M767.472,-121.586C809.691,-111.294 866.449,-97.4577 895.911,-90.2755"/>
<polygon fill="midnightblue" stroke="midnightblue" points="766.506,-118.219 757.62,-123.988 768.164,-125.02 766.506,-118.219"/>
</g>
<!-- Node320 -->
<g id="node21" class="node"><title>Node320</title>
<g id="a_node21"><a xlink:href="interfacex__ops_1_1calc__x.html#a837126ca92e7f4d6821261c835b987d4" target="_top" xlink:title="vectorial version ">
<polygon fill="white" stroke="black" points="636,-239 636,-260 791,-260 791,-239 636,-239"/>
<text text-anchor="middle" x="713.5" y="-246.4" font-family="Ubuntu Mono" font-size="12.00">x_ops::calc_x::calc_x_1</text>
</a>
</g>
</g>
<!-- Node319&#45;&gt;Node320 -->
<g id="edge30" class="edge"><title>Node319&#45;&gt;Node320</title>
<path fill="none" stroke="midnightblue" d="M556.385,-249.5C580.733,-249.5 609.537,-249.5 635.731,-249.5"/>
<polygon fill="midnightblue" stroke="midnightblue" points="556.244,-246 546.244,-249.5 556.244,-253 556.244,-246"/>
</g>
<!-- Node322 -->
<g id="node23" class="node"><title>Node322</title>
<g id="a_node23"><a xlink:href="namespacetest.html#a53c6b3d654d4577af301fe3b04473d6a" target="_top" xlink:title="Test spline(). ">
<polygon fill="white" stroke="black" points="436,-85 436,-106 561,-106 561,-85 436,-85"/>
<text text-anchor="middle" x="498.5" y="-92.4" font-family="Ubuntu Mono" font-size="12.00">test::test_splines</text>
</a>
</g>
</g>
<!-- Node321&#45;&gt;Node322 -->
<g id="edge33" class="edge"><title>Node321&#45;&gt;Node322</title>
<path fill="none" stroke="midnightblue" d="M317.404,-103.004C349.598,-101.663 397.523,-99.6657 435.842,-98.0691"/>
<polygon fill="midnightblue" stroke="midnightblue" points="316.972,-99.5189 307.126,-103.432 317.263,-106.513 316.972,-99.5189"/>
</g>
<!-- Node322&#45;&gt;Node318 -->
<g id="edge34" class="edge"><title>Node322&#45;&gt;Node318</title>
<path fill="none" stroke="midnightblue" d="M566.703,-107.805C595.085,-113.002 627.799,-118.991 655.037,-123.979"/>
<polygon fill="midnightblue" stroke="midnightblue" points="567.327,-104.361 556.86,-106.003 566.066,-111.246 567.327,-104.361"/>
</g>
<!-- Node323&#45;&gt;Node318 -->
<g id="edge36" class="edge"><title>Node323&#45;&gt;Node318</title>
<path fill="none" stroke="midnightblue" d="M359.398,-148.427C441.942,-145.172 570.787,-140.09 647.894,-137.048"/>
<polygon fill="midnightblue" stroke="midnightblue" points="359.172,-144.934 349.318,-148.825 359.448,-151.928 359.172,-144.934"/>
</g>
</g>
</svg>
