<?xml version="1.0" encoding="UTF-8" standalone="no"?>
<!DOCTYPE svg PUBLIC "-//W3C//DTD SVG 1.1//EN"
 "http://www.w3.org/Graphics/SVG/1.1/DTD/svg11.dtd">
<!-- Generated by graphviz version 2.38.0 (20140413.2041)
 -->
<!-- Title: x_ops::print_output_x_2 Pages: 1 -->
<svg width="1142pt" height="657pt"
 viewBox="0.00 0.00 1142.00 657.41" xmlns="http://www.w3.org/2000/svg" xmlns:xlink="http://www.w3.org/1999/xlink">
<g id="graph0" class="graph" transform="scale(1 1) rotate(0) translate(4 653.415)">
<title>x_ops::print_output_x_2</title>
<polygon fill="white" stroke="none" points="-4,4 -4,-653.415 1138,-653.415 1138,4 -4,4"/>
<!-- Node104 -->
<g id="node1" class="node"><title>Node104</title>
<polygon fill="#bfbfbf" stroke="black" points="0,-195.415 0,-216.415 155,-216.415 155,-195.415 0,-195.415"/>
<text text-anchor="middle" x="77.5" y="-202.815" font-family="Ubuntu Mono" font-size="12.00">x_ops::print_output_x_2</text>
</g>
<!-- Node105 -->
<g id="node2" class="node"><title>Node105</title>
<g id="a_node2"><a xlink:href="namespacegrid__utilities.html#a67001ff9bbcad707aacf17f90a748d90" target="_top" xlink:title="grid_utilities::trim_grid">
<polygon fill="white" stroke="black" points="191,-385.415 191,-406.415 358,-406.415 358,-385.415 191,-385.415"/>
<text text-anchor="middle" x="274.5" y="-392.815" font-family="Ubuntu Mono" font-size="12.00">grid_utilities::trim_grid</text>
</a>
</g>
</g>
<!-- Node104&#45;&gt;Node105 -->
<g id="edge1" class="edge"><title>Node104&#45;&gt;Node105</title>
<path fill="none" stroke="midnightblue" d="M82.3616,-216.704C93.7864,-247.003 130.458,-333.419 191,-375.915 193.714,-377.82 196.588,-379.545 199.574,-381.106"/>
<polygon fill="midnightblue" stroke="midnightblue" points="198.263,-384.355 208.814,-385.317 201.166,-377.985 198.263,-384.355"/>
</g>
<!-- Node106 -->
<g id="node3" class="node"><title>Node106</title>
<g id="a_node3"><a xlink:href="namespacehdf5__ops.html#a18a07099350020b44d6fbe93ed36e804" target="_top" xlink:title="hdf5_ops::print_hdf5_arrs">
<polygon fill="white" stroke="black" points="191,-345.415 191,-366.415 358,-366.415 358,-345.415 191,-345.415"/>
<text text-anchor="middle" x="274.5" y="-352.815" font-family="Ubuntu Mono" font-size="12.00">hdf5_ops::print_hdf5_arrs</text>
</a>
</g>
</g>
<!-- Node104&#45;&gt;Node106 -->
<g id="edge2" class="edge"><title>Node104&#45;&gt;Node106</title>
<path fill="none" stroke="midnightblue" d="M92.212,-216.463C125.568,-242.121 211.173,-307.971 251.658,-339.114"/>
<polygon fill="midnightblue" stroke="midnightblue" points="249.743,-342.056 259.803,-345.379 254.011,-336.508 249.743,-342.056"/>
</g>
<!-- Node119 -->
<g id="node16" class="node"><title>Node119</title>
<g id="a_node16"><a xlink:href="namespacemessages.html#aa4a8d01563e92558e8a0875b075ec54c" target="_top" xlink:title="messages::writo">
<polygon fill="white" stroke="black" points="633,-175.415 633,-196.415 740,-196.415 740,-175.415 633,-175.415"/>
<text text-anchor="middle" x="686.5" y="-182.815" font-family="Ubuntu Mono" font-size="12.00">messages::writo</text>
</a>
</g>
</g>
<!-- Node104&#45;&gt;Node119 -->
<g id="edge43" class="edge"><title>Node104&#45;&gt;Node119</title>
<path fill="none" stroke="midnightblue" d="M155.38,-210.181C252.808,-214.573 425.793,-218.984 573,-204.915 589.247,-203.362 606.691,-200.841 622.877,-198.135"/>
<polygon fill="midnightblue" stroke="midnightblue" points="623.508,-201.578 632.77,-196.433 622.322,-194.679 623.508,-201.578"/>
</g>
<!-- Node123 -->
<g id="node20" class="node"><title>Node123</title>
<g id="a_node20"><a xlink:href="namespacemessages.html#a6e6bfb084063e4cc91ee86e542043302" target="_top" xlink:title="messages::lvl_ud">
<polygon fill="white" stroke="black" points="427,-252.415 427,-273.415 540,-273.415 540,-252.415 427,-252.415"/>
<text text-anchor="middle" x="483.5" y="-259.815" font-family="Ubuntu Mono" font-size="12.00">messages::lvl_ud</text>
</a>
</g>
</g>
<!-- Node104&#45;&gt;Node123 -->
<g id="edge44" class="edge"><title>Node104&#45;&gt;Node123</title>
<path fill="none" stroke="midnightblue" d="M108.181,-216.419C130.634,-223.923 162.383,-233.597 191,-238.915 267.808,-253.189 357.578,-258.974 416.989,-261.319"/>
<polygon fill="midnightblue" stroke="midnightblue" points="416.864,-264.816 426.987,-261.692 417.125,-257.821 416.864,-264.816"/>
</g>
<!-- Node124 -->
<g id="node21" class="node"><title>Node124</title>
<g id="a_node21"><a xlink:href="namespacex__utilities.html#a689aca7fedb49c43c5a65a18d557259f" target="_top" xlink:title="x_utilities::is_necessary_x">
<polygon fill="white" stroke="black" points="394,-174.415 394,-195.415 573,-195.415 573,-174.415 394,-174.415"/>
<text text-anchor="middle" x="483.5" y="-181.815" font-family="Ubuntu Mono" font-size="12.00">x_utilities::is_necessary_x</text>
</a>
</g>
</g>
<!-- Node104&#45;&gt;Node124 -->
<g id="edge29" class="edge"><title>Node104&#45;&gt;Node124</title>
<path fill="none" stroke="midnightblue" d="M155.44,-201.916C220.248,-198.547 313.37,-193.706 383.686,-190.051"/>
<polygon fill="midnightblue" stroke="midnightblue" points="384.084,-193.535 393.889,-189.521 383.721,-186.545 384.084,-193.535"/>
</g>
<!-- Node125 -->
<g id="node22" class="node"><title>Node125</title>
<g id="a_node22"><a xlink:href="namespacex__utilities.html#a6072ddd1fd230758795ff320c75a1f6a" target="_top" xlink:title="x_utilities::get_sec\l_x_range">
<polygon fill="white" stroke="black" points="206,-123.915 206,-157.915 343,-157.915 343,-123.915 206,-123.915"/>
<text text-anchor="start" x="214" y="-144.315" font-family="Ubuntu Mono" font-size="12.00">x_utilities::get_sec</text>
<text text-anchor="middle" x="274.5" y="-131.315" font-family="Ubuntu Mono" font-size="12.00">_x_range</text>
</a>
</g>
</g>
<!-- Node104&#45;&gt;Node125 -->
<g id="edge30" class="edge"><title>Node104&#45;&gt;Node125</title>
<path fill="none" stroke="midnightblue" d="M110.264,-195.327C137.865,-186.127 178.622,-172.541 212.505,-161.247"/>
<polygon fill="midnightblue" stroke="midnightblue" points="213.939,-164.458 222.319,-157.975 211.725,-157.817 213.939,-164.458"/>
</g>
<!-- Node126 -->
<g id="node23" class="node"><title>Node126</title>
<g id="a_node23"><a xlink:href="namespacenum__utilities.html#a5ee3fbd1fe67d0deefc7194631389f2a" target="_top" xlink:title="num_utilities::c">
<polygon fill="white" stroke="black" points="427,-134.415 427,-155.415 540,-155.415 540,-134.415 427,-134.415"/>
<text text-anchor="middle" x="483.5" y="-141.815" font-family="Ubuntu Mono" font-size="12.00">num_utilities::c</text>
</a>
</g>
</g>
<!-- Node104&#45;&gt;Node126 -->
<g id="edge42" class="edge"><title>Node104&#45;&gt;Node126</title>
<path fill="none" stroke="midnightblue" d="M86.9877,-195.235C104.064,-174.717 144.9,-130.365 191,-113.915 260.905,-88.9709 284.33,-104.881 358,-113.915 385.664,-117.307 416.028,-124.789 439.843,-131.553"/>
<polygon fill="midnightblue" stroke="midnightblue" points="439.043,-134.965 449.622,-134.393 440.996,-128.243 439.043,-134.965"/>
</g>
<!-- Node127 -->
<g id="node24" class="node"><title>Node127</title>
<g id="a_node24"><a xlink:href="namespacex__vars.html#a90d744aee4358a8cc35d29304d1bb120" target="_top" xlink:title="x_vars::set_nn_mod">
<polygon fill="white" stroke="black" points="212,-45.415 212,-66.415 337,-66.415 337,-45.415 212,-45.415"/>
<text text-anchor="middle" x="274.5" y="-52.815" font-family="Ubuntu Mono" font-size="12.00">x_vars::set_nn_mod</text>
</a>
</g>
</g>
<!-- Node104&#45;&gt;Node127 -->
<g id="edge33" class="edge"><title>Node104&#45;&gt;Node127</title>
<path fill="none" stroke="midnightblue" d="M85.2199,-195.083C100.774,-170.911 141.717,-112.234 191,-80.915 197.915,-76.5208 205.644,-72.8627 213.525,-69.8269"/>
<polygon fill="midnightblue" stroke="midnightblue" points="214.901,-73.0528 223.167,-66.4248 212.572,-66.4516 214.901,-73.0528"/>
</g>
<!-- Node107 -->
<g id="node4" class="node"><title>Node107</title>
<g id="a_node4"><a xlink:href="namespacempi__utilities.html#a5a789d05be41d6109c01f46cc98620c8" target="_top" xlink:title="mpi_utilities::lock\l_req_acc">
<polygon fill="white" stroke="black" points="418,-475.915 418,-509.915 549,-509.915 549,-475.915 418,-475.915"/>
<text text-anchor="start" x="426" y="-496.315" font-family="Ubuntu Mono" font-size="12.00">mpi_utilities::lock</text>
<text text-anchor="middle" x="483.5" y="-483.315" font-family="Ubuntu Mono" font-size="12.00">_req_acc</text>
</a>
</g>
</g>
<!-- Node106&#45;&gt;Node107 -->
<g id="edge3" class="edge"><title>Node106&#45;&gt;Node107</title>
<path fill="none" stroke="midnightblue" d="M343.476,-366.55C348.722,-369.069 353.656,-372.151 358,-375.915 390.557,-404.129 362.279,-436.764 394,-465.915 398.395,-469.954 403.378,-473.389 408.687,-476.31"/>
<polygon fill="midnightblue" stroke="midnightblue" points="407.355,-479.554 417.881,-480.759 410.403,-473.253 407.355,-479.554"/>
</g>
<!-- Node110 -->
<g id="node7" class="node"><title>Node110</title>
<g id="a_node7"><a xlink:href="namespacestr__utilities.html#a0b97e51770725a3e98ed393d26681414" target="_top" xlink:title="str_utilities::i2str">
<polygon fill="white" stroke="black" points="994,-57.415 994,-78.415 1131,-78.415 1131,-57.415 994,-57.415"/>
<text text-anchor="middle" x="1062.5" y="-64.815" font-family="Ubuntu Mono" font-size="12.00">str_utilities::i2str</text>
</a>
</g>
</g>
<!-- Node106&#45;&gt;Node110 -->
<g id="edge21" class="edge"><title>Node106&#45;&gt;Node110</title>
<path fill="none" stroke="midnightblue" d="M334.026,-366.453C394.503,-375.445 491.318,-384.519 573,-367.915 753.718,-331.179 809.011,-318.59 955,-205.915 966.595,-196.966 1021.56,-122.633 1047.67,-86.9236"/>
<polygon fill="midnightblue" stroke="midnightblue" points="1050.57,-88.8814 1053.64,-78.7405 1044.92,-84.7549 1050.57,-88.8814"/>
</g>
<!-- Node116 -->
<g id="node13" class="node"><title>Node116</title>
<g id="a_node13"><a xlink:href="namespacempi__utilities.html#a86f9982a0f92b51a916f832d9a3d8ba9" target="_top" xlink:title="mpi_utilities::lock\l_return_acc">
<polygon fill="white" stroke="black" points="418,-422.915 418,-456.915 549,-456.915 549,-422.915 418,-422.915"/>
<text text-anchor="start" x="426" y="-443.315" font-family="Ubuntu Mono" font-size="12.00">mpi_utilities::lock</text>
<text text-anchor="middle" x="483.5" y="-430.315" font-family="Ubuntu Mono" font-size="12.00">_return_acc</text>
</a>
</g>
</g>
<!-- Node106&#45;&gt;Node116 -->
<g id="edge15" class="edge"><title>Node106&#45;&gt;Node116</title>
<path fill="none" stroke="midnightblue" d="M334.495,-366.454C342.627,-368.977 350.688,-372.087 358,-375.915 376.966,-385.843 375.604,-396.968 394,-407.915 400.887,-412.014 408.385,-415.716 416.006,-419.025"/>
<polygon fill="midnightblue" stroke="midnightblue" points="414.75,-422.293 425.33,-422.864 417.416,-415.82 414.75,-422.293"/>
</g>
<!-- Node117 -->
<g id="node14" class="node"><title>Node117</title>
<g id="a_node14"><a xlink:href="namespacehdf5__utilities.html#a7574320980affc30a584f7776d33a51c" target="_top" xlink:title="hdf5_utilities::set\l_1d_vars">
<polygon fill="white" stroke="black" points="418,-292.915 418,-326.915 549,-326.915 549,-292.915 418,-292.915"/>
<text text-anchor="start" x="426" y="-313.315" font-family="Ubuntu Mono" font-size="12.00">hdf5_utilities::set</text>
<text text-anchor="middle" x="483.5" y="-300.315" font-family="Ubuntu Mono" font-size="12.00">_1d_vars</text>
</a>
</g>
</g>
<!-- Node106&#45;&gt;Node117 -->
<g id="edge20" class="edge"><title>Node106&#45;&gt;Node117</title>
<path fill="none" stroke="midnightblue" d="M322.99,-345.362C348.188,-339.762 379.725,-332.754 408.09,-326.451"/>
<polygon fill="midnightblue" stroke="midnightblue" points="408.972,-329.84 417.975,-324.254 407.454,-323.007 408.972,-329.84"/>
</g>
<!-- Node118 -->
<g id="node15" class="node"><title>Node118</title>
<g id="a_node15"><a xlink:href="HDF5__ops_8f90.html#a9ce89bbcdaf88002bfab4d531536c989" target="_top" xlink:title="detect_ind_print">
<polygon fill="white" stroke="black" points="427,-529.415 427,-550.415 540,-550.415 540,-529.415 427,-529.415"/>
<text text-anchor="middle" x="483.5" y="-536.815" font-family="Ubuntu Mono" font-size="12.00">detect_ind_print</text>
</a>
</g>
</g>
<!-- Node106&#45;&gt;Node118 -->
<g id="edge22" class="edge"><title>Node106&#45;&gt;Node118</title>
<path fill="none" stroke="midnightblue" d="M345.216,-366.564C349.892,-369.1 354.232,-372.18 358,-375.915 404.546,-422.054 347.342,-472.889 394,-518.915 400.522,-525.349 408.633,-529.945 417.278,-533.206"/>
<polygon fill="midnightblue" stroke="midnightblue" points="416.228,-536.545 426.819,-536.244 418.352,-529.875 416.228,-536.545"/>
</g>
<!-- Node106&#45;&gt;Node119 -->
<g id="edge23" class="edge"><title>Node106&#45;&gt;Node119</title>
<path fill="none" stroke="midnightblue" d="M340.409,-366.419C403.721,-373.386 500.772,-375.112 573,-335.915 626.672,-306.788 662.093,-239.802 677.191,-206.083"/>
<polygon fill="midnightblue" stroke="midnightblue" points="680.464,-207.333 681.222,-196.765 674.04,-204.554 680.464,-207.333"/>
</g>
<!-- Node106&#45;&gt;Node123 -->
<g id="edge27" class="edge"><title>Node106&#45;&gt;Node123</title>
<path fill="none" stroke="midnightblue" d="M289.272,-345.305C310.564,-329.411 353.278,-299.52 394,-282.915 401.282,-279.946 409.089,-277.374 416.94,-275.158"/>
<polygon fill="midnightblue" stroke="midnightblue" points="418.095,-278.473 426.871,-272.537 416.309,-271.704 418.095,-278.473"/>
</g>
<!-- Node108 -->
<g id="node5" class="node"><title>Node108</title>
<g id="a_node5"><a xlink:href="namespacempi__utilities.html#a4c5de9472574b63c69212948d8a3f4e1" target="_top" xlink:title="mpi_utilities::lock\l_header">
<polygon fill="white" stroke="black" points="812,-519.915 812,-553.915 943,-553.915 943,-519.915 812,-519.915"/>
<text text-anchor="start" x="820" y="-540.315" font-family="Ubuntu Mono" font-size="12.00">mpi_utilities::lock</text>
<text text-anchor="middle" x="877.5" y="-527.315" font-family="Ubuntu Mono" font-size="12.00">_header</text>
</a>
</g>
</g>
<!-- Node107&#45;&gt;Node108 -->
<g id="edge4" class="edge"><title>Node107&#45;&gt;Node108</title>
<path fill="none" stroke="midnightblue" d="M549.076,-507.396C557.517,-510.759 565.741,-514.878 573,-519.915 594.618,-534.916 585.406,-555.267 609,-566.915 679.166,-601.555 771.987,-578.045 827.808,-557.635"/>
<polygon fill="midnightblue" stroke="midnightblue" points="829.323,-560.804 837.449,-554.006 826.857,-554.253 829.323,-560.804"/>
</g>
<!-- Node111 -->
<g id="node8" class="node"><title>Node111</title>
<g id="a_node8"><a xlink:href="namespacempi__utilities.html#a0417983d618bfc9f892d6d2af5d27b1d" target="_top" xlink:title="mpi_utilities::lock\l_wl_change">
<polygon fill="white" stroke="black" points="621,-469.915 621,-503.915 752,-503.915 752,-469.915 621,-469.915"/>
<text text-anchor="start" x="629" y="-490.315" font-family="Ubuntu Mono" font-size="12.00">mpi_utilities::lock</text>
<text text-anchor="middle" x="686.5" y="-477.315" font-family="Ubuntu Mono" font-size="12.00">_wl_change</text>
</a>
</g>
</g>
<!-- Node107&#45;&gt;Node111 -->
<g id="edge7" class="edge"><title>Node107&#45;&gt;Node111</title>
<path fill="none" stroke="midnightblue" d="M549.204,-490.984C568.839,-490.397 590.572,-489.749 610.807,-489.145"/>
<polygon fill="midnightblue" stroke="midnightblue" points="611.026,-492.64 620.917,-488.843 610.817,-485.643 611.026,-492.64"/>
</g>
<!-- Node113 -->
<g id="node10" class="node"><title>Node113</title>
<g id="a_node10"><a xlink:href="namespacempi__utilities.html#a74e2e82b561f403ca8087c3925f76e29" target="_top" xlink:title="mpi_utilities::wl_empty">
<polygon fill="white" stroke="black" points="609,-429.415 609,-450.415 764,-450.415 764,-429.415 609,-429.415"/>
<text text-anchor="middle" x="686.5" y="-436.815" font-family="Ubuntu Mono" font-size="12.00">mpi_utilities::wl_empty</text>
</a>
</g>
</g>
<!-- Node107&#45;&gt;Node113 -->
<g id="edge10" class="edge"><title>Node107&#45;&gt;Node113</title>
<path fill="none" stroke="midnightblue" d="M548.786,-475.831C568.137,-470.7 589.43,-465.067 609,-459.915 617.488,-457.681 626.508,-455.315 635.265,-453.022"/>
<polygon fill="midnightblue" stroke="midnightblue" points="636.209,-456.393 644.997,-450.477 634.437,-449.621 636.209,-456.393"/>
</g>
<!-- Node114 -->
<g id="node11" class="node"><title>Node114</title>
<g id="a_node11"><a xlink:href="namespacempi__utilities.html#a5d2dbf8ffba124237c362f06c3d3ac32" target="_top" xlink:title="mpi_utilities::lock\l_notify">
<polygon fill="white" stroke="black" points="621,-522.915 621,-556.915 752,-556.915 752,-522.915 621,-522.915"/>
<text text-anchor="start" x="629" y="-543.315" font-family="Ubuntu Mono" font-size="12.00">mpi_utilities::lock</text>
<text text-anchor="middle" x="686.5" y="-530.315" font-family="Ubuntu Mono" font-size="12.00">_notify</text>
</a>
</g>
</g>
<!-- Node107&#45;&gt;Node114 -->
<g id="edge11" class="edge"><title>Node107&#45;&gt;Node114</title>
<path fill="none" stroke="midnightblue" d="M549.204,-508.045C568.929,-512.657 590.77,-517.764 611.084,-522.514"/>
<polygon fill="midnightblue" stroke="midnightblue" points="610.383,-525.945 620.917,-524.814 611.977,-519.128 610.383,-525.945"/>
</g>
<!-- Node115 -->
<g id="node12" class="node"><title>Node115</title>
<g id="a_node12"><a xlink:href="namespacempi__utilities.html#a9ec02d2ade63716189369640f0da3c5f" target="_top" xlink:title="mpi_utilities::lock\l_get_notified">
<polygon fill="white" stroke="black" points="621,-614.915 621,-648.915 752,-648.915 752,-614.915 621,-614.915"/>
<text text-anchor="start" x="629" y="-635.315" font-family="Ubuntu Mono" font-size="12.00">mpi_utilities::lock</text>
<text text-anchor="middle" x="686.5" y="-622.315" font-family="Ubuntu Mono" font-size="12.00">_get_notified</text>
</a>
</g>
</g>
<!-- Node107&#45;&gt;Node115 -->
<g id="edge13" class="edge"><title>Node107&#45;&gt;Node115</title>
<path fill="none" stroke="midnightblue" d="M549.335,-505.525C557.929,-509.168 566.128,-513.863 573,-519.915 602.26,-545.684 581.065,-572.715 609,-599.915 612.708,-603.526 616.884,-606.754 621.323,-609.635"/>
<polygon fill="midnightblue" stroke="midnightblue" points="619.725,-612.754 630.128,-614.757 623.245,-606.704 619.725,-612.754"/>
</g>
<!-- Node109 -->
<g id="node6" class="node"><title>Node109</title>
<g id="a_node6"><a xlink:href="namespacestr__utilities.html#acb8c4e66aead51f178e47fdea8d7a7db" target="_top" xlink:title="str_utilities::ii2str">
<polygon fill="white" stroke="black" points="991,-526.415 991,-547.415 1134,-547.415 1134,-526.415 991,-526.415"/>
<text text-anchor="middle" x="1062.5" y="-533.815" font-family="Ubuntu Mono" font-size="12.00">str_utilities::ii2str</text>
</a>
</g>
</g>
<!-- Node108&#45;&gt;Node109 -->
<g id="edge5" class="edge"><title>Node108&#45;&gt;Node109</title>
<path fill="none" stroke="midnightblue" d="M943.019,-536.915C955.199,-536.915 968.079,-536.915 980.685,-536.915"/>
<polygon fill="midnightblue" stroke="midnightblue" points="980.717,-540.415 990.717,-536.915 980.717,-533.415 980.717,-540.415"/>
</g>
<!-- Node108&#45;&gt;Node110 -->
<g id="edge6" class="edge"><title>Node108&#45;&gt;Node110</title>
<path fill="none" stroke="midnightblue" d="M940.81,-519.777C946.222,-516.259 951.109,-512.021 955,-506.915 1001.18,-446.306 963.844,-237.11 991,-165.915 1002.91,-134.698 1027.32,-104.359 1044.05,-85.9087"/>
<polygon fill="midnightblue" stroke="midnightblue" points="1046.66,-88.2415 1050.91,-78.5346 1041.53,-83.4751 1046.66,-88.2415"/>
</g>
<!-- Node111&#45;&gt;Node108 -->
<g id="edge8" class="edge"><title>Node111&#45;&gt;Node108</title>
<path fill="none" stroke="midnightblue" d="M752.014,-503.982C768.043,-508.223 785.356,-512.803 801.828,-517.16"/>
<polygon fill="midnightblue" stroke="midnightblue" points="801.393,-520.666 811.956,-519.84 803.183,-513.899 801.393,-520.666"/>
</g>
<!-- Node112 -->
<g id="node9" class="node"><title>Node112</title>
<g id="a_node9"><a xlink:href="namespacestr__utilities.html#ac778d706b2e021672618939ab58fdd32" target="_top" xlink:title="str_utilities::r2strt">
<polygon fill="white" stroke="black" points="806,-476.415 806,-497.415 949,-497.415 949,-476.415 806,-476.415"/>
<text text-anchor="middle" x="877.5" y="-483.815" font-family="Ubuntu Mono" font-size="12.00">str_utilities::r2strt</text>
</a>
</g>
</g>
<!-- Node111&#45;&gt;Node112 -->
<g id="edge9" class="edge"><title>Node111&#45;&gt;Node112</title>
<path fill="none" stroke="midnightblue" d="M752.014,-486.915C766.09,-486.915 781.156,-486.915 795.772,-486.915"/>
<polygon fill="midnightblue" stroke="midnightblue" points="795.802,-490.415 805.802,-486.915 795.802,-483.415 795.802,-490.415"/>
</g>
<!-- Node114&#45;&gt;Node108 -->
<g id="edge12" class="edge"><title>Node114&#45;&gt;Node108</title>
<path fill="none" stroke="midnightblue" d="M752.014,-538.891C768.043,-538.637 785.356,-538.362 801.828,-538.1"/>
<polygon fill="midnightblue" stroke="midnightblue" points="802.012,-541.598 811.956,-537.939 801.901,-534.599 802.012,-541.598"/>
</g>
<!-- Node115&#45;&gt;Node108 -->
<g id="edge14" class="edge"><title>Node115&#45;&gt;Node108</title>
<path fill="none" stroke="midnightblue" d="M730.773,-614.827C741.725,-610.226 753.387,-605.085 764,-599.915 789.532,-587.476 817.39,-571.892 838.996,-559.336"/>
<polygon fill="midnightblue" stroke="midnightblue" points="840.983,-562.229 847.848,-554.159 837.449,-556.186 840.983,-562.229"/>
</g>
<!-- Node116&#45;&gt;Node108 -->
<g id="edge16" class="edge"><title>Node116&#45;&gt;Node108</title>
<path fill="none" stroke="midnightblue" d="M549.15,-426.339C620.599,-412.869 730.077,-397.239 764,-419.915 798.79,-443.17 770.136,-477.602 800,-506.915 802.84,-509.702 805.968,-512.238 809.29,-514.544"/>
<polygon fill="midnightblue" stroke="midnightblue" points="807.533,-517.573 817.887,-519.817 811.192,-511.606 807.533,-517.573"/>
</g>
<!-- Node116&#45;&gt;Node111 -->
<g id="edge17" class="edge"><title>Node116&#45;&gt;Node111</title>
<path fill="none" stroke="midnightblue" d="M549.204,-455.045C568.929,-459.657 590.77,-464.764 611.084,-469.514"/>
<polygon fill="midnightblue" stroke="midnightblue" points="610.383,-472.945 620.917,-471.814 611.977,-466.128 610.383,-472.945"/>
</g>
<!-- Node116&#45;&gt;Node113 -->
<g id="edge18" class="edge"><title>Node116&#45;&gt;Node113</title>
<path fill="none" stroke="midnightblue" d="M549.204,-439.915C564.98,-439.915 582.11,-439.915 598.73,-439.915"/>
<polygon fill="midnightblue" stroke="midnightblue" points="598.995,-443.415 608.995,-439.915 598.995,-436.415 598.995,-443.415"/>
</g>
<!-- Node116&#45;&gt;Node114 -->
<g id="edge19" class="edge"><title>Node116&#45;&gt;Node114</title>
<path fill="none" stroke="midnightblue" d="M549.07,-453.613C557.511,-456.889 565.738,-460.931 573,-465.915 594.695,-480.804 587.711,-497.451 609,-512.915 611.539,-514.759 614.215,-516.487 616.986,-518.105"/>
<polygon fill="midnightblue" stroke="midnightblue" points="615.625,-521.343 626.104,-522.904 618.885,-515.149 615.625,-521.343"/>
</g>
<!-- Node120 -->
<g id="node17" class="node"><title>Node120</title>
<g id="a_node17"><a xlink:href="namespacemessages.html#a82dddaab795b78b3d39e1ff1aab2f665" target="_top" xlink:title="messages::get_mem_usage">
<polygon fill="white" stroke="black" points="800,-96.415 800,-117.415 955,-117.415 955,-96.415 800,-96.415"/>
<text text-anchor="middle" x="877.5" y="-103.815" font-family="Ubuntu Mono" font-size="12.00">messages::get_mem_usage</text>
</a>
</g>
</g>
<!-- Node119&#45;&gt;Node120 -->
<g id="edge24" class="edge"><title>Node119&#45;&gt;Node120</title>
<path fill="none" stroke="midnightblue" d="M712.989,-175.261C746.195,-161.381 804.395,-137.054 841.658,-121.478"/>
<polygon fill="midnightblue" stroke="midnightblue" points="843.237,-124.612 851.113,-117.526 840.537,-118.154 843.237,-124.612"/>
</g>
<!-- Node121 -->
<g id="node18" class="node"><title>Node121</title>
<g id="a_node18"><a xlink:href="messages_8f90.html#a6d15f28783f95a7a4b2a44185619792f" target="_top" xlink:title="format_str">
<polygon fill="white" stroke="black" points="839,-175.415 839,-196.415 916,-196.415 916,-175.415 839,-175.415"/>
<text text-anchor="middle" x="877.5" y="-182.815" font-family="Ubuntu Mono" font-size="12.00">format_str</text>
</a>
</g>
</g>
<!-- Node119&#45;&gt;Node121 -->
<g id="edge25" class="edge"><title>Node119&#45;&gt;Node121</title>
<path fill="none" stroke="midnightblue" d="M740.147,-185.915C767.821,-185.915 801.497,-185.915 828.457,-185.915"/>
<polygon fill="midnightblue" stroke="midnightblue" points="828.808,-189.415 838.808,-185.915 828.808,-182.415 828.808,-189.415"/>
</g>
<!-- Node122 -->
<g id="node19" class="node"><title>Node122</title>
<g id="a_node19"><a xlink:href="namespacemessages.html#a61fd0b51b5e37d58fdc993c01792a3fd" target="_top" xlink:title="messages::get_clock">
<polygon fill="white" stroke="black" points="997,-175.415 997,-196.415 1128,-196.415 1128,-175.415 997,-175.415"/>
<text text-anchor="middle" x="1062.5" y="-182.815" font-family="Ubuntu Mono" font-size="12.00">messages::get_clock</text>
</a>
</g>
</g>
<!-- Node121&#45;&gt;Node122 -->
<g id="edge26" class="edge"><title>Node121&#45;&gt;Node122</title>
<path fill="none" stroke="midnightblue" d="M916.418,-185.915C936.754,-185.915 962.542,-185.915 986.719,-185.915"/>
<polygon fill="midnightblue" stroke="midnightblue" points="986.961,-189.415 996.961,-185.915 986.961,-182.415 986.961,-189.415"/>
</g>
<!-- Node123&#45;&gt;Node119 -->
<g id="edge28" class="edge"><title>Node123&#45;&gt;Node119</title>
<path fill="none" stroke="midnightblue" d="M527.251,-252.302C541.916,-248.276 558.324,-243.341 573,-237.915 601.96,-227.207 633.802,-212.165 656.196,-201.012"/>
<polygon fill="midnightblue" stroke="midnightblue" points="657.817,-204.114 665.178,-196.494 654.672,-197.861 657.817,-204.114"/>
</g>
<!-- Node125&#45;&gt;Node124 -->
<g id="edge32" class="edge"><title>Node125&#45;&gt;Node124</title>
<path fill="none" stroke="midnightblue" d="M343.28,-155.322C368.98,-160.785 398.03,-166.96 422.92,-172.251"/>
<polygon fill="midnightblue" stroke="midnightblue" points="422.442,-175.727 432.951,-174.383 423.897,-168.88 422.442,-175.727"/>
</g>
<!-- Node125&#45;&gt;Node126 -->
<g id="edge31" class="edge"><title>Node125&#45;&gt;Node126</title>
<path fill="none" stroke="midnightblue" d="M343.28,-142.225C366.8,-142.679 393.126,-143.188 416.501,-143.64"/>
<polygon fill="midnightblue" stroke="midnightblue" points="416.6,-147.142 426.666,-143.836 416.736,-140.143 416.6,-147.142"/>
</g>
<!-- Node127&#45;&gt;Node110 -->
<g id="edge41" class="edge"><title>Node127&#45;&gt;Node110</title>
<path fill="none" stroke="midnightblue" d="M295.345,-45.338C318.33,-33.7391 357.696,-15.8516 394,-8.91497 489.825,9.39447 875.989,-5.39533 955,-22.915 982.7,-29.0571 1012.28,-42.1357 1033.22,-52.6183"/>
<polygon fill="midnightblue" stroke="midnightblue" points="1031.7,-55.7716 1042.19,-57.2177 1034.89,-49.542 1031.7,-55.7716"/>
</g>
<!-- Node127&#45;&gt;Node119 -->
<g id="edge40" class="edge"><title>Node127&#45;&gt;Node119</title>
<path fill="none" stroke="midnightblue" d="M322.278,-66.4188C403.053,-84.6051 561.225,-120.451 573,-124.915 604.63,-136.906 638.428,-156.21 660.629,-169.887"/>
<polygon fill="midnightblue" stroke="midnightblue" points="659.059,-173.033 669.393,-175.367 662.769,-167.098 659.059,-173.033"/>
</g>
<!-- Node127&#45;&gt;Node120 -->
<g id="edge34" class="edge"><title>Node127&#45;&gt;Node120</title>
<path fill="none" stroke="midnightblue" d="M337.185,-59.8969C397.457,-64.1195 491.734,-71.6076 573,-81.915 589.092,-83.956 592.892,-86.0049 609,-87.915 669.14,-95.0464 737.228,-99.8361 789.66,-102.823"/>
<polygon fill="midnightblue" stroke="midnightblue" points="789.75,-106.333 799.93,-103.396 790.141,-99.3439 789.75,-106.333"/>
</g>
<!-- Node128 -->
<g id="node25" class="node"><title>Node128</title>
<g id="a_node25"><a xlink:href="X__vars_8f90.html#a0dacd775e322b824c05e804ad5291aa4" target="_top" xlink:title="dealloc_x_1_final">
<polygon fill="white" stroke="black" points="424,-18.415 424,-39.415 543,-39.415 543,-18.415 424,-18.415"/>
<text text-anchor="middle" x="483.5" y="-25.815" font-family="Ubuntu Mono" font-size="12.00">dealloc_x_1_final</text>
</a>
</g>
</g>
<!-- Node127&#45;&gt;Node128 -->
<g id="edge35" class="edge"><title>Node127&#45;&gt;Node128</title>
<path fill="none" stroke="midnightblue" d="M337.046,-47.8872C361.138,-44.7449 388.879,-41.1264 413.633,-37.8976"/>
<polygon fill="midnightblue" stroke="midnightblue" points="414.214,-41.3516 423.677,-36.5875 413.309,-34.4103 414.214,-41.3516"/>
</g>
<!-- Node128&#45;&gt;Node110 -->
<g id="edge39" class="edge"><title>Node128&#45;&gt;Node110</title>
<path fill="none" stroke="midnightblue" d="M543.064,-25.5108C563.874,-24.4552 587.475,-23.4333 609,-22.915 677.869,-21.2564 695.305,-17.7489 764,-22.915 845.371,-29.0343 938.21,-44.4413 998.223,-55.5227"/>
<polygon fill="midnightblue" stroke="midnightblue" points="997.829,-59.0094 1008.3,-57.3999 999.111,-52.1277 997.829,-59.0094"/>
</g>
<!-- Node128&#45;&gt;Node119 -->
<g id="edge38" class="edge"><title>Node128&#45;&gt;Node119</title>
<path fill="none" stroke="midnightblue" d="M500.112,-39.4859C518.002,-51.7241 548.067,-72.6702 573,-91.915 606.23,-117.564 643.338,-149.18 665.534,-168.429"/>
<polygon fill="midnightblue" stroke="midnightblue" points="663.43,-171.238 673.272,-175.162 668.026,-165.957 663.43,-171.238"/>
</g>
<!-- Node128&#45;&gt;Node120 -->
<g id="edge36" class="edge"><title>Node128&#45;&gt;Node120</title>
<path fill="none" stroke="midnightblue" d="M543.236,-25.954C600.634,-24.6687 689.934,-26.982 764,-47.915 796.683,-57.1521 830.756,-76.6266 852.719,-90.6789"/>
<polygon fill="midnightblue" stroke="midnightblue" points="851.066,-93.7798 861.351,-96.3237 854.897,-87.9213 851.066,-93.7798"/>
</g>
<!-- Node129 -->
<g id="node26" class="node"><title>Node129</title>
<g id="a_node26"><a xlink:href="X__vars_8f90.html#ad33ba3e63c71fe167351af3317dc22ec" target="_top" xlink:title="dealloc_x_2_final">
<polygon fill="white" stroke="black" points="627,-57.415 627,-78.415 746,-78.415 746,-57.415 627,-57.415"/>
<text text-anchor="middle" x="686.5" y="-64.815" font-family="Ubuntu Mono" font-size="12.00">dealloc_x_2_final</text>
</a>
</g>
</g>
<!-- Node128&#45;&gt;Node129 -->
<g id="edge37" class="edge"><title>Node128&#45;&gt;Node129</title>
<path fill="none" stroke="midnightblue" d="M538.629,-39.4176C564.095,-44.3588 594.65,-50.2874 621.28,-55.4543"/>
<polygon fill="midnightblue" stroke="midnightblue" points="620.791,-58.9247 631.275,-57.3936 622.124,-52.0529 620.791,-58.9247"/>
</g>
</g>
</svg>
