<?xml version="1.0" encoding="UTF-8" standalone="no"?>
<!DOCTYPE svg PUBLIC "-//W3C//DTD SVG 1.1//EN"
 "http://www.w3.org/Graphics/SVG/1.1/DTD/svg11.dtd">
<!-- Generated by graphviz version 2.38.0 (20140413.2041)
 -->
<!-- Title: grid_utilities::calc_xyz_grid Pages: 1 -->
<svg width="837pt" height="483pt"
 viewBox="0.00 0.00 837.00 482.50" xmlns="http://www.w3.org/2000/svg" xmlns:xlink="http://www.w3.org/1999/xlink">
<g id="graph0" class="graph" transform="scale(1 1) rotate(0) translate(4 478.5)">
<title>grid_utilities::calc_xyz_grid</title>
<polygon fill="white" stroke="none" points="-4,4 -4,-478.5 833,-478.5 833,4 -4,4"/>
<!-- Node50 -->
<g id="node1" class="node"><title>Node50</title>
<polygon fill="#bfbfbf" stroke="black" points="0,-198 0,-232 137,-232 137,-198 0,-198"/>
<text text-anchor="start" x="8" y="-218.4" font-family="Ubuntu Mono" font-size="12.00">grid_utilities::calc</text>
<text text-anchor="middle" x="68.5" y="-205.4" font-family="Ubuntu Mono" font-size="12.00">_xyz_grid</text>
</g>
<!-- Node51 -->
<g id="node2" class="node"><title>Node51</title>
<g id="a_node2"><a xlink:href="namespacedriver__post.html#a3438685c5fb7302f756c368fb5f940ee" target="_top" xlink:title="Sets up the output grids for a particular parallel job. ">
<polygon fill="white" stroke="black" points="185,-440 185,-474 310,-474 310,-440 185,-440"/>
<text text-anchor="start" x="193" y="-460.4" font-family="Ubuntu Mono" font-size="12.00">driver_post::setup</text>
<text text-anchor="middle" x="247.5" y="-447.4" font-family="Ubuntu Mono" font-size="12.00">_out_grids</text>
</a>
</g>
</g>
<!-- Node50&#45;&gt;Node51 -->
<g id="edge1" class="edge"><title>Node50&#45;&gt;Node51</title>
<path fill="none" stroke="midnightblue" d="M78.2705,-241.644C92.7151,-282.303 124.798,-360.526 173,-412 183.432,-423.14 197.219,-432.546 210.032,-439.832"/>
<polygon fill="midnightblue" stroke="midnightblue" points="81.5631,-240.457 74.979,-232.156 74.9497,-242.751 81.5631,-240.457"/>
</g>
<!-- Node54 -->
<g id="node5" class="node"><title>Node54</title>
<g id="a_node5"><a xlink:href="namespaceeq__ops.html#a9addef683b3d4a8c587510e4c994ec61" target="_top" xlink:title="Creates a VMEC input file. ">
<polygon fill="white" stroke="black" points="182,-41 182,-75 313,-75 313,-41 182,-41"/>
<text text-anchor="start" x="190" y="-61.4" font-family="Ubuntu Mono" font-size="12.00">eq_ops::create_vmec</text>
<text text-anchor="middle" x="247.5" y="-48.4" font-family="Ubuntu Mono" font-size="12.00">_input</text>
</a>
</g>
</g>
<!-- Node50&#45;&gt;Node54 -->
<g id="edge4" class="edge"><title>Node50&#45;&gt;Node54</title>
<path fill="none" stroke="midnightblue" d="M85.5482,-189.143C103.821,-161.484 135.981,-117.847 173,-90 180.674,-84.2273 189.551,-79.2418 198.425,-75.0384"/>
<polygon fill="midnightblue" stroke="midnightblue" points="82.3975,-187.569 79.8968,-197.865 88.2721,-191.376 82.3975,-187.569"/>
</g>
<!-- Node56 -->
<g id="node7" class="node"><title>Node56</title>
<g id="a_node7"><a xlink:href="namespaceeq__ops.html#af0effe20188d46a44680c2648e4572e9" target="_top" xlink:title="Plots the flux quantities in the solution grid. ">
<polygon fill="white" stroke="black" points="379,-214.5 379,-235.5 510,-235.5 510,-214.5 379,-214.5"/>
<text text-anchor="middle" x="444.5" y="-221.9" font-family="Ubuntu Mono" font-size="12.00">eq_ops::flux_q_plot</text>
</a>
</g>
</g>
<!-- Node50&#45;&gt;Node56 -->
<g id="edge6" class="edge"><title>Node50&#45;&gt;Node56</title>
<path fill="none" stroke="midnightblue" d="M147.535,-217.087C216.055,-218.919 314.551,-221.552 378.778,-223.269"/>
<polygon fill="midnightblue" stroke="midnightblue" points="147.319,-213.58 137.229,-216.811 147.131,-220.577 147.319,-213.58"/>
</g>
<!-- Node60 -->
<g id="node11" class="node"><title>Node60</title>
<g id="a_node11"><a xlink:href="namespaceeq__ops.html#a087e08ce6d8ad381b5bac8fc51148d50" target="_top" xlink:title="Calculates derived equilibrium quantities system. ">
<polygon fill="white" stroke="black" points="173,-0.5 173,-21.5 322,-21.5 322,-0.5 173,-0.5"/>
<text text-anchor="middle" x="247.5" y="-7.9" font-family="Ubuntu Mono" font-size="12.00">eq_ops::calc_derived_q</text>
</a>
</g>
</g>
<!-- Node50&#45;&gt;Node60 -->
<g id="edge11" class="edge"><title>Node50&#45;&gt;Node60</title>
<path fill="none" stroke="midnightblue" d="M77.2252,-188.14C90.2229,-147.826 120.345,-72.0383 173,-31 177.902,-27.1792 183.482,-24.0872 189.325,-21.5852"/>
<polygon fill="midnightblue" stroke="midnightblue" points="73.8439,-187.227 74.2166,-197.815 80.5282,-189.305 73.8439,-187.227"/>
</g>
<!-- Node61 -->
<g id="node12" class="node"><title>Node61</title>
<g id="a_node12"><a xlink:href="namespaceeq__ops.html#ad173efd111cb85c11bc2bc78a7555096" target="_top" xlink:title="Plots the curvature. ">
<polygon fill="white" stroke="black" points="382,-254.5 382,-275.5 507,-275.5 507,-254.5 382,-254.5"/>
<text text-anchor="middle" x="444.5" y="-261.9" font-family="Ubuntu Mono" font-size="12.00">eq_ops::kappa_plot</text>
</a>
</g>
</g>
<!-- Node50&#45;&gt;Node61 -->
<g id="edge13" class="edge"><title>Node50&#45;&gt;Node61</title>
<path fill="none" stroke="midnightblue" d="M146.91,-229.798C155.696,-231.303 164.532,-232.739 173,-234 244.416,-244.635 326.912,-253.615 381.84,-259.129"/>
<polygon fill="midnightblue" stroke="midnightblue" points="147.487,-226.346 137.035,-228.076 146.285,-233.242 147.487,-226.346"/>
</g>
<!-- Node62 -->
<g id="node13" class="node"><title>Node62</title>
<g id="a_node13"><a xlink:href="namespaceeq__ops.html#ac0a79893900631d25b170be0abd2c131" target="_top" xlink:title="Plots HALF of the change in the position vectors for 2 different toroidal positions, which can correspond to a ripple. ">
<polygon fill="white" stroke="black" points="376,-414.5 376,-435.5 513,-435.5 513,-414.5 376,-414.5"/>
<text text-anchor="middle" x="444.5" y="-421.9" font-family="Ubuntu Mono" font-size="12.00">eq_ops::delta_r_plot</text>
</a>
</g>
</g>
<!-- Node50&#45;&gt;Node62 -->
<g id="edge16" class="edge"><title>Node50&#45;&gt;Node62</title>
<path fill="none" stroke="midnightblue" d="M81.4064,-241.634C97.4427,-274.379 129.117,-329.257 173,-359 233.822,-400.224 317.78,-415.762 375.957,-421.583"/>
<polygon fill="midnightblue" stroke="midnightblue" points="84.3916,-239.761 76.9354,-232.234 78.0702,-242.768 84.3916,-239.761"/>
</g>
<!-- Node63 -->
<g id="node14" class="node"><title>Node63</title>
<g id="a_node14"><a xlink:href="namespacegrid__ops.html#addd76b7b3be0b51e0863ae0cdfef41e6" target="_top" xlink:title="Plots the grid in real 3&#45;D space. ">
<polygon fill="white" stroke="black" points="364,-174.5 364,-195.5 525,-195.5 525,-174.5 364,-174.5"/>
<text text-anchor="middle" x="444.5" y="-181.9" font-family="Ubuntu Mono" font-size="12.00">grid_ops::magn_grid_plot</text>
</a>
</g>
</g>
<!-- Node50&#45;&gt;Node63 -->
<g id="edge18" class="edge"><title>Node50&#45;&gt;Node63</title>
<path fill="none" stroke="midnightblue" d="M147.575,-208.737C211.01,-203.649 300.117,-196.501 363.946,-191.381"/>
<polygon fill="midnightblue" stroke="midnightblue" points="146.917,-205.279 137.229,-209.567 147.476,-212.256 146.917,-205.279"/>
</g>
<!-- Node64 -->
<g id="node15" class="node"><title>Node64</title>
<g id="a_node15"><a xlink:href="namespacegrid__utilities.html#ad3d9386b9abcb1a7e17369a1b3a3750d" target="_top" xlink:title="Calculates contra&#45; and covariant components of a vector in multiple coordinate systems. ">
<polygon fill="white" stroke="black" points="179,-316 179,-350 316,-350 316,-316 179,-316"/>
<text text-anchor="start" x="187" y="-336.4" font-family="Ubuntu Mono" font-size="12.00">grid_utilities::calc</text>
<text text-anchor="middle" x="247.5" y="-323.4" font-family="Ubuntu Mono" font-size="12.00">_vec_comp</text>
</a>
</g>
</g>
<!-- Node50&#45;&gt;Node64 -->
<g id="edge21" class="edge"><title>Node50&#45;&gt;Node64</title>
<path fill="none" stroke="midnightblue" d="M102.294,-237.896C122.557,-251.943 149.158,-270.205 173,-286 188.152,-296.038 205.249,-306.992 219.138,-315.799"/>
<polygon fill="midnightblue" stroke="midnightblue" points="104.235,-234.982 94.0245,-232.153 100.242,-240.732 104.235,-234.982"/>
</g>
<!-- Node68 -->
<g id="node19" class="node"><title>Node68</title>
<g id="a_node19"><a xlink:href="namespacetest.html#ac574f08ba400cd61070a6a6f13f6f7ee" target="_top" xlink:title="Tests reading of HDF5 subset. ">
<polygon fill="white" stroke="black" points="179,-133 179,-167 316,-167 316,-133 179,-133"/>
<text text-anchor="start" x="187" y="-153.4" font-family="Ubuntu Mono" font-size="12.00">test::test_read_hdf5</text>
<text text-anchor="middle" x="247.5" y="-140.4" font-family="Ubuntu Mono" font-size="12.00">_subset</text>
</a>
</g>
</g>
<!-- Node50&#45;&gt;Node68 -->
<g id="edge32" class="edge"><title>Node50&#45;&gt;Node68</title>
<path fill="none" stroke="midnightblue" d="M125.672,-194.372C149.617,-185.578 177.224,-175.44 199.999,-167.077"/>
<polygon fill="midnightblue" stroke="midnightblue" points="124.185,-191.189 116.005,-197.922 126.598,-197.76 124.185,-191.189"/>
</g>
<!-- Node70 -->
<g id="node21" class="node"><title>Node70</title>
<g id="a_node21"><a xlink:href="namespacex__ops.html#abdaf1308e13cede3a153e8c6cf35a637" target="_top" xlink:title="plot &#45;profile or &#45;profile in flux coordinates with &#160;or &#160;indicated if requested. ">
<polygon fill="white" stroke="black" points="373,-96.5 373,-117.5 516,-117.5 516,-96.5 373,-96.5"/>
<text text-anchor="middle" x="444.5" y="-103.9" font-family="Ubuntu Mono" font-size="12.00">x_ops::resonance_plot</text>
</a>
</g>
</g>
<!-- Node50&#45;&gt;Node70 -->
<g id="edge36" class="edge"><title>Node50&#45;&gt;Node70</title>
<path fill="none" stroke="midnightblue" d="M89.3036,-189.697C108.176,-167.702 138.733,-137.201 173,-123 236.886,-96.5253 316.594,-95.1795 372.889,-98.8331"/>
<polygon fill="midnightblue" stroke="midnightblue" points="86.3795,-187.738 82.6595,-197.659 91.7539,-192.223 86.3795,-187.738"/>
</g>
<!-- Node52 -->
<g id="node3" class="node"><title>Node52</title>
<g id="a_node3"><a xlink:href="namespacedriver__post.html#a33b3c6f9018a0ddc92dce77394b8ab37" target="_top" xlink:title="The main driver routine for postprocessing. ">
<polygon fill="white" stroke="black" points="567,-334.5 567,-355.5 752,-355.5 752,-334.5 567,-334.5"/>
<text text-anchor="middle" x="659.5" y="-341.9" font-family="Ubuntu Mono" font-size="12.00">driver_post::run_driver_post</text>
</a>
</g>
</g>
<!-- Node51&#45;&gt;Node52 -->
<g id="edge2" class="edge"><title>Node51&#45;&gt;Node52</title>
<path fill="none" stroke="midnightblue" d="M320.397,-465.824C378.955,-470.248 462.798,-470.188 531,-445 582.723,-425.898 629.983,-377.428 649.295,-355.757"/>
<polygon fill="midnightblue" stroke="midnightblue" points="320.384,-462.312 310.132,-464.983 319.813,-469.288 320.384,-462.312"/>
</g>
<!-- Node53 -->
<g id="node4" class="node"><title>Node53</title>
<g id="a_node4"><a xlink:href="POST_8f90.html#ac289b64ac4671fea0b4f2298ba1188a1" target="_top" xlink:title="Peeling Ballooning in 3D: postprocessing. ">
<polygon fill="white" stroke="black" points="788,-176.5 788,-197.5 829,-197.5 829,-176.5 788,-176.5"/>
<text text-anchor="middle" x="808.5" y="-183.9" font-family="Ubuntu Mono" font-size="12.00">post</text>
</a>
</g>
</g>
<!-- Node52&#45;&gt;Node53 -->
<g id="edge3" class="edge"><title>Node52&#45;&gt;Node53</title>
<path fill="none" stroke="midnightblue" d="M682.767,-328.322C702.188,-313.205 730.534,-289.723 752,-266 772.356,-243.504 791.671,-213.327 801.242,-197.576"/>
<polygon fill="midnightblue" stroke="midnightblue" points="680.58,-325.589 674.783,-334.457 684.845,-331.139 680.58,-325.589"/>
</g>
<!-- Node55 -->
<g id="node6" class="node"><title>Node55</title>
<g id="a_node6"><a xlink:href="interfaceeq__ops_1_1calc__eq.html#ae2f56ab19ce5c33e863f32e1c9263604" target="_top" xlink:title="metric version ">
<polygon fill="white" stroke="black" points="358,-24.5 358,-45.5 531,-45.5 531,-24.5 358,-24.5"/>
<text text-anchor="middle" x="444.5" y="-31.9" font-family="Ubuntu Mono" font-size="12.00">eq_ops::calc_eq::calc_eq_2</text>
</a>
</g>
</g>
<!-- Node54&#45;&gt;Node55 -->
<g id="edge5" class="edge"><title>Node54&#45;&gt;Node55</title>
<path fill="none" stroke="midnightblue" d="M323.374,-49.1687C334.646,-47.8392 346.345,-46.4593 357.822,-45.1056"/>
<polygon fill="midnightblue" stroke="midnightblue" points="322.682,-45.7259 313.161,-50.3733 323.502,-52.6777 322.682,-45.7259"/>
</g>
<!-- Node57 -->
<g id="node8" class="node"><title>Node57</title>
<g id="a_node8"><a xlink:href="namespacedriver__eq.html#adc9d5dff288fa512e5ef885627d940cc" target="_top" xlink:title="Main driver of PB3D equilibrium part. ">
<polygon fill="white" stroke="black" points="579,-235.5 579,-256.5 740,-256.5 740,-235.5 579,-235.5"/>
<text text-anchor="middle" x="659.5" y="-242.9" font-family="Ubuntu Mono" font-size="12.00">driver_eq::run_driver_eq</text>
</a>
</g>
</g>
<!-- Node56&#45;&gt;Node57 -->
<g id="edge7" class="edge"><title>Node56&#45;&gt;Node57</title>
<path fill="none" stroke="midnightblue" d="M520.35,-232.38C539.332,-234.251 559.789,-236.268 578.993,-238.161"/>
<polygon fill="midnightblue" stroke="midnightblue" points="520.57,-228.884 510.275,-231.386 519.883,-235.851 520.57,-228.884"/>
</g>
<!-- Node59 -->
<g id="node10" class="node"><title>Node59</title>
<g id="a_node10"><a xlink:href="namespacedriver__post.html#af527706d4e696d4e507443d2f74194ef" target="_top" xlink:title="Initializes the POST driver. ">
<polygon fill="white" stroke="black" points="585,-176.5 585,-197.5 734,-197.5 734,-176.5 585,-176.5"/>
<text text-anchor="middle" x="659.5" y="-183.9" font-family="Ubuntu Mono" font-size="12.00">driver_post::init_post</text>
</a>
</g>
</g>
<!-- Node56&#45;&gt;Node59 -->
<g id="edge9" class="edge"><title>Node56&#45;&gt;Node59</title>
<path fill="none" stroke="midnightblue" d="M514.449,-212.699C541.828,-207.815 573.005,-202.253 599.336,-197.555"/>
<polygon fill="midnightblue" stroke="midnightblue" points="513.779,-209.263 504.55,-214.465 515.009,-216.155 513.779,-209.263"/>
</g>
<!-- Node58 -->
<g id="node9" class="node"><title>Node58</title>
<g id="a_node9"><a xlink:href="PB3D_8f90.html#afaee01f014ab3398eecac996b2795fd2" target="_top" xlink:title="Peeling Ballooning in 3D. ">
<polygon fill="white" stroke="black" points="788,-136.5 788,-157.5 829,-157.5 829,-136.5 788,-136.5"/>
<text text-anchor="middle" x="808.5" y="-143.9" font-family="Ubuntu Mono" font-size="12.00">pb3d</text>
</a>
</g>
</g>
<!-- Node57&#45;&gt;Node58 -->
<g id="edge8" class="edge"><title>Node57&#45;&gt;Node58</title>
<path fill="none" stroke="midnightblue" d="M704.505,-231.732C720.281,-225.489 737.689,-217.226 752,-207 771.46,-193.094 771.648,-184.455 788,-167 790.918,-163.886 794.134,-160.549 797.098,-157.511"/>
<polygon fill="midnightblue" stroke="midnightblue" points="703.047,-228.541 694.936,-235.357 705.527,-235.087 703.047,-228.541"/>
</g>
<!-- Node59&#45;&gt;Node53 -->
<g id="edge10" class="edge"><title>Node59&#45;&gt;Node53</title>
<path fill="none" stroke="midnightblue" d="M744.573,-187C760.763,-187 776.254,-187 787.816,-187"/>
<polygon fill="midnightblue" stroke="midnightblue" points="744.431,-183.5 734.431,-187 744.431,-190.5 744.431,-183.5"/>
</g>
<!-- Node60&#45;&gt;Node55 -->
<g id="edge12" class="edge"><title>Node60&#45;&gt;Node55</title>
<path fill="none" stroke="midnightblue" d="M332.148,-21.2951C340.674,-22.3444 349.344,-23.4115 357.89,-24.4634"/>
<polygon fill="midnightblue" stroke="midnightblue" points="332.574,-17.8212 322.221,-20.0734 331.719,-24.7688 332.574,-17.8212"/>
</g>
<!-- Node61&#45;&gt;Node52 -->
<g id="edge15" class="edge"><title>Node61&#45;&gt;Node52</title>
<path fill="none" stroke="midnightblue" d="M508.218,-278.067C515.961,-280.149 523.711,-282.464 531,-285 570.741,-298.827 614.636,-321.159 639.163,-334.325"/>
<polygon fill="midnightblue" stroke="midnightblue" points="509.005,-274.655 498.449,-275.554 507.262,-281.435 509.005,-274.655"/>
</g>
<!-- Node61&#45;&gt;Node57 -->
<g id="edge14" class="edge"><title>Node61&#45;&gt;Node57</title>
<path fill="none" stroke="midnightblue" d="M517.263,-258.599C537.026,-256.836 558.582,-254.913 578.765,-253.112"/>
<polygon fill="midnightblue" stroke="midnightblue" points="516.758,-255.13 507.108,-259.504 517.38,-262.102 516.758,-255.13"/>
</g>
<!-- Node62&#45;&gt;Node52 -->
<g id="edge17" class="edge"><title>Node62&#45;&gt;Node52</title>
<path fill="none" stroke="midnightblue" d="M508.218,-411.933C515.961,-409.851 523.711,-407.536 531,-405 570.741,-391.173 614.636,-368.841 639.163,-355.675"/>
<polygon fill="midnightblue" stroke="midnightblue" points="507.262,-408.565 498.449,-414.446 509.005,-415.345 507.262,-408.565"/>
</g>
<!-- Node63&#45;&gt;Node57 -->
<g id="edge19" class="edge"><title>Node63&#45;&gt;Node57</title>
<path fill="none" stroke="midnightblue" d="M503.511,-197.897C512.738,-200.142 522.154,-202.547 531,-205 564.498,-214.287 602.353,-226.71 628.053,-235.438"/>
<polygon fill="midnightblue" stroke="midnightblue" points="504.148,-194.451 493.608,-195.53 502.52,-201.259 504.148,-194.451"/>
</g>
<!-- Node63&#45;&gt;Node59 -->
<g id="edge20" class="edge"><title>Node63&#45;&gt;Node59</title>
<path fill="none" stroke="midnightblue" d="M535.331,-185.843C551.874,-185.999 568.968,-186.159 584.961,-186.309"/>
<polygon fill="midnightblue" stroke="midnightblue" points="535.149,-182.342 525.116,-185.748 535.083,-189.341 535.149,-182.342"/>
</g>
<!-- Node64&#45;&gt;Node61 -->
<g id="edge28" class="edge"><title>Node64&#45;&gt;Node61</title>
<path fill="none" stroke="midnightblue" d="M291.952,-311.759C311.766,-302.648 335.729,-292.417 358,-285 368.703,-281.436 380.363,-278.261 391.531,-275.548"/>
<polygon fill="midnightblue" stroke="midnightblue" points="290.46,-308.593 282.873,-315.988 293.416,-314.938 290.46,-308.593"/>
</g>
<!-- Node64&#45;&gt;Node62 -->
<g id="edge29" class="edge"><title>Node64&#45;&gt;Node62</title>
<path fill="none" stroke="midnightblue" d="M281.788,-355.738C310.923,-375.497 349.842,-401.496 358,-405 366.684,-408.73 376.177,-411.827 385.577,-414.378"/>
<polygon fill="midnightblue" stroke="midnightblue" points="283.724,-352.822 273.485,-350.097 279.79,-358.612 283.724,-352.822"/>
</g>
<!-- Node65 -->
<g id="node16" class="node"><title>Node65</title>
<g id="a_node16"><a xlink:href="namespaceeq__ops.html#a73a8c3cea1e8a636b4978bc626e0fab0" target="_top" xlink:title="Plots the magnetic fields. ">
<polygon fill="white" stroke="black" points="394,-334.5 394,-355.5 495,-355.5 495,-334.5 394,-334.5"/>
<text text-anchor="middle" x="444.5" y="-341.9" font-family="Ubuntu Mono" font-size="12.00">eq_ops::b_plot</text>
</a>
</g>
</g>
<!-- Node64&#45;&gt;Node65 -->
<g id="edge22" class="edge"><title>Node64&#45;&gt;Node65</title>
<path fill="none" stroke="midnightblue" d="M326.157,-337.779C348.95,-339.182 373.254,-340.677 393.797,-341.941"/>
<polygon fill="midnightblue" stroke="midnightblue" points="326.35,-334.284 316.154,-337.163 325.92,-341.271 326.35,-334.284"/>
</g>
<!-- Node66 -->
<g id="node17" class="node"><title>Node66</title>
<g id="a_node17"><a xlink:href="namespaceeq__ops.html#afabdf28e5c26ceb87e6eb8cf3809919d" target="_top" xlink:title="Plots the current. ">
<polygon fill="white" stroke="black" points="394,-294.5 394,-315.5 495,-315.5 495,-294.5 394,-294.5"/>
<text text-anchor="middle" x="444.5" y="-301.9" font-family="Ubuntu Mono" font-size="12.00">eq_ops::j_plot</text>
</a>
</g>
</g>
<!-- Node64&#45;&gt;Node66 -->
<g id="edge25" class="edge"><title>Node64&#45;&gt;Node66</title>
<path fill="none" stroke="midnightblue" d="M326.157,-321.849C348.95,-318.576 373.254,-315.087 393.797,-312.137"/>
<polygon fill="midnightblue" stroke="midnightblue" points="325.555,-318.4 316.154,-323.286 326.55,-325.329 325.555,-318.4"/>
</g>
<!-- Node67 -->
<g id="node18" class="node"><title>Node67</title>
<g id="a_node18"><a xlink:href="namespacesol__ops.html#a13b3cf2fb6437a3c93256368fa91c267" target="_top" xlink:title="Plots Eigenvectors. ">
<polygon fill="white" stroke="black" points="373,-374.5 373,-395.5 516,-395.5 516,-374.5 373,-374.5"/>
<text text-anchor="middle" x="444.5" y="-381.9" font-family="Ubuntu Mono" font-size="12.00">sol_ops::plot_sol_vec</text>
</a>
</g>
</g>
<!-- Node64&#45;&gt;Node67 -->
<g id="edge30" class="edge"><title>Node64&#45;&gt;Node67</title>
<path fill="none" stroke="midnightblue" d="M314.385,-352.885C328.722,-357.035 343.837,-361.277 358,-365 370.385,-368.256 383.847,-371.528 396.347,-374.456"/>
<polygon fill="midnightblue" stroke="midnightblue" points="315.185,-349.473 304.605,-350.034 313.225,-356.193 315.185,-349.473"/>
</g>
<!-- Node65&#45;&gt;Node52 -->
<g id="edge24" class="edge"><title>Node65&#45;&gt;Node52</title>
<path fill="none" stroke="midnightblue" d="M505.228,-345C524.37,-345 546.027,-345 566.905,-345"/>
<polygon fill="midnightblue" stroke="midnightblue" points="505.17,-341.5 495.17,-345 505.17,-348.5 505.17,-341.5"/>
</g>
<!-- Node65&#45;&gt;Node57 -->
<g id="edge23" class="edge"><title>Node65&#45;&gt;Node57</title>
<path fill="none" stroke="midnightblue" d="M505.103,-333.696C513.935,-331.267 522.812,-328.387 531,-325 575.515,-306.585 622.277,-273.529 644.791,-256.61"/>
<polygon fill="midnightblue" stroke="midnightblue" points="504.001,-330.365 495.19,-336.249 505.747,-337.144 504.001,-330.365"/>
</g>
<!-- Node66&#45;&gt;Node52 -->
<g id="edge27" class="edge"><title>Node66&#45;&gt;Node52</title>
<path fill="none" stroke="midnightblue" d="M505.228,-316.217C535.661,-321.932 572.452,-328.841 602.36,-334.457"/>
<polygon fill="midnightblue" stroke="midnightblue" points="505.644,-312.734 495.17,-314.328 504.352,-319.613 505.644,-312.734"/>
</g>
<!-- Node66&#45;&gt;Node57 -->
<g id="edge26" class="edge"><title>Node66&#45;&gt;Node57</title>
<path fill="none" stroke="midnightblue" d="M503.143,-292.073C512.482,-289.819 522.028,-287.419 531,-285 563.631,-276.204 600.512,-264.756 626.183,-256.542"/>
<polygon fill="midnightblue" stroke="midnightblue" points="502.046,-288.737 493.128,-294.456 503.666,-295.546 502.046,-288.737"/>
</g>
<!-- Node67&#45;&gt;Node52 -->
<g id="edge31" class="edge"><title>Node67&#45;&gt;Node52</title>
<path fill="none" stroke="midnightblue" d="M511.564,-372.594C540.729,-367.117 574.646,-360.747 602.541,-355.509"/>
<polygon fill="midnightblue" stroke="midnightblue" points="510.645,-369.205 501.463,-374.49 511.937,-376.085 510.645,-369.205"/>
</g>
<!-- Node69 -->
<g id="node20" class="node"><title>Node69</title>
<g id="a_node20"><a xlink:href="namespacetest.html#aca21ee464c0b1f4b617177afdde110ec" target="_top" xlink:title="Performs generic tests. ">
<polygon fill="white" stroke="black" points="594,-136.5 594,-157.5 725,-157.5 725,-136.5 594,-136.5"/>
<text text-anchor="middle" x="659.5" y="-143.9" font-family="Ubuntu Mono" font-size="12.00">test::generic_tests</text>
</a>
</g>
</g>
<!-- Node68&#45;&gt;Node69 -->
<g id="edge33" class="edge"><title>Node68&#45;&gt;Node69</title>
<path fill="none" stroke="midnightblue" d="M326.385,-149.43C403.828,-148.863 521.253,-148.004 593.743,-147.474"/>
<polygon fill="midnightblue" stroke="midnightblue" points="326.177,-145.931 316.203,-149.505 326.229,-152.931 326.177,-145.931"/>
</g>
<!-- Node69&#45;&gt;Node53 -->
<g id="edge35" class="edge"><title>Node69&#45;&gt;Node53</title>
<path fill="none" stroke="midnightblue" d="M724.49,-159.868C733.768,-162.057 743.165,-164.454 752,-167 764.105,-170.488 777.39,-175.241 787.927,-179.239"/>
<polygon fill="midnightblue" stroke="midnightblue" points="725.029,-156.401 714.5,-157.576 723.464,-163.223 725.029,-156.401"/>
</g>
<!-- Node69&#45;&gt;Node58 -->
<g id="edge34" class="edge"><title>Node69&#45;&gt;Node58</title>
<path fill="none" stroke="midnightblue" d="M735.518,-147C754.888,-147 774.118,-147 787.823,-147"/>
<polygon fill="midnightblue" stroke="midnightblue" points="735.404,-143.5 725.404,-147 735.404,-150.5 735.404,-143.5"/>
</g>
<!-- Node70&#45;&gt;Node59 -->
<g id="edge37" class="edge"><title>Node70&#45;&gt;Node59</title>
<path fill="none" stroke="midnightblue" d="M472.31,-122.616C496.397,-136.061 533.091,-155.121 567,-167 577.435,-170.656 588.783,-173.78 599.822,-176.398"/>
<polygon fill="midnightblue" stroke="midnightblue" points="473.848,-119.465 463.421,-117.588 470.402,-125.558 473.848,-119.465"/>
</g>
<!-- Node71 -->
<g id="node22" class="node"><title>Node71</title>
<g id="a_node22"><a xlink:href="namespacedriver__x.html#ada3d72a0929daaa5e3da585246d62281" target="_top" xlink:title="Main driver of PB3D perturbation part. ">
<polygon fill="white" stroke="black" points="585,-96.5 585,-117.5 734,-117.5 734,-96.5 585,-96.5"/>
<text text-anchor="middle" x="659.5" y="-103.9" font-family="Ubuntu Mono" font-size="12.00">driver_x::run_driver_x</text>
</a>
</g>
</g>
<!-- Node70&#45;&gt;Node71 -->
<g id="edge38" class="edge"><title>Node70&#45;&gt;Node71</title>
<path fill="none" stroke="midnightblue" d="M526.349,-107C545.543,-107 565.92,-107 584.777,-107"/>
<polygon fill="midnightblue" stroke="midnightblue" points="526.13,-103.5 516.13,-107 526.13,-110.5 526.13,-103.5"/>
</g>
<!-- Node71&#45;&gt;Node58 -->
<g id="edge39" class="edge"><title>Node71&#45;&gt;Node58</title>
<path fill="none" stroke="midnightblue" d="M724.49,-119.868C733.768,-122.057 743.165,-124.454 752,-127 764.105,-130.488 777.39,-135.241 787.927,-139.239"/>
<polygon fill="midnightblue" stroke="midnightblue" points="725.029,-116.401 714.5,-117.576 723.464,-123.223 725.029,-116.401"/>
</g>
</g>
</svg>
