<?xml version="1.0" encoding="UTF-8" standalone="no"?>
<!DOCTYPE svg PUBLIC "-//W3C//DTD SVG 1.1//EN"
 "http://www.w3.org/Graphics/SVG/1.1/DTD/svg11.dtd">
<!-- Generated by graphviz version 2.38.0 (20140413.2041)
 -->
<!-- Title: driver_x::run_driver_x_1 Pages: 1 -->
<svg width="921pt" height="413pt"
 viewBox="0.00 0.00 921.00 412.68" xmlns="http://www.w3.org/2000/svg" xmlns:xlink="http://www.w3.org/1999/xlink">
<g id="graph0" class="graph" transform="scale(1 1) rotate(0) translate(4 408.683)">
<title>driver_x::run_driver_x_1</title>
<polygon fill="white" stroke="none" points="-4,4 -4,-408.683 917,-408.683 917,4 -4,4"/>
<!-- Node107 -->
<g id="node1" class="node"><title>Node107</title>
<polygon fill="#bfbfbf" stroke="black" points="0,-205.183 0,-226.183 161,-226.183 161,-205.183 0,-205.183"/>
<text text-anchor="middle" x="80.5" y="-212.583" font-family="Ubuntu Mono" font-size="12.00">driver_x::run_driver_x_1</text>
</g>
<!-- Node108 -->
<g id="node2" class="node"><title>Node108</title>
<g id="a_node2"><a xlink:href="namespacex__ops.html#a8bdd87db80570a01cf35ca50184ae879" target="_top" xlink:title="Prints debug information for X_1 driver. ">
<polygon fill="white" stroke="black" points="212,-332.183 212,-353.183 361,-353.183 361,-332.183 212,-332.183"/>
<text text-anchor="middle" x="286.5" y="-339.583" font-family="Ubuntu Mono" font-size="12.00">x_ops::print_debug_x_1</text>
</a>
</g>
</g>
<!-- Node107&#45;&gt;Node108 -->
<g id="edge1" class="edge"><title>Node107&#45;&gt;Node108</title>
<path fill="none" stroke="midnightblue" d="M92.4756,-226.303C112.095,-244.834 155.064,-283.414 197,-307.683 211.194,-315.897 227.686,-323.003 242.56,-328.626"/>
<polygon fill="midnightblue" stroke="midnightblue" points="241.466,-331.952 252.06,-332.103 243.872,-325.379 241.466,-331.952"/>
</g>
<!-- Node111 -->
<g id="node5" class="node"><title>Node111</title>
<g id="a_node5"><a xlink:href="namespacestr__utilities.html#a0b97e51770725a3e98ed393d26681414" target="_top" xlink:title="Convert an integer to string. ">
<polygon fill="white" stroke="black" points="427,-303.183 427,-324.183 564,-324.183 564,-303.183 427,-303.183"/>
<text text-anchor="middle" x="495.5" y="-310.583" font-family="Ubuntu Mono" font-size="12.00">str_utilities::i2str</text>
</a>
</g>
</g>
<!-- Node107&#45;&gt;Node111 -->
<g id="edge8" class="edge"><title>Node107&#45;&gt;Node111</title>
<path fill="none" stroke="midnightblue" d="M108.699,-226.322C131.893,-235.098 166.263,-247.409 197,-255.683 270.612,-275.499 356.181,-291.462 416.601,-301.586"/>
<polygon fill="midnightblue" stroke="midnightblue" points="416.389,-305.098 426.828,-303.284 417.536,-298.193 416.389,-305.098"/>
</g>
<!-- Node112 -->
<g id="node6" class="node"><title>Node112</title>
<g id="a_node6"><a xlink:href="namespacemessages.html#aa4a8d01563e92558e8a0875b075ec54c" target="_top" xlink:title="Write output to file identified by output_i. ">
<polygon fill="white" stroke="black" points="615,-125.183 615,-146.183 722,-146.183 722,-125.183 615,-125.183"/>
<text text-anchor="middle" x="668.5" y="-132.583" font-family="Ubuntu Mono" font-size="12.00">messages::writo</text>
</a>
</g>
</g>
<!-- Node107&#45;&gt;Node112 -->
<g id="edge5" class="edge"><title>Node107&#45;&gt;Node112</title>
<path fill="none" stroke="midnightblue" d="M93.2327,-205.162C133.699,-169.711 272.617,-54.8854 412,-19.6829 483.963,-1.50806 512.478,13.237 579,-19.6829 619.463,-39.7071 646.482,-88.0757 659.163,-115.615"/>
<polygon fill="midnightblue" stroke="midnightblue" points="656.084,-117.308 663.319,-125.048 662.49,-114.485 656.084,-117.308"/>
</g>
<!-- Node115 -->
<g id="node9" class="node"><title>Node115</title>
<g id="a_node9"><a xlink:href="namespaceinput__utilities.html#a71bd36f063d55ab62c7a37864aef1185" target="_top" xlink:title="Pauses the running of the program. ">
<polygon fill="white" stroke="black" points="197,-185.183 197,-206.183 376,-206.183 376,-185.183 197,-185.183"/>
<text text-anchor="middle" x="286.5" y="-192.583" font-family="Ubuntu Mono" font-size="12.00">input_utilities::pause_prog</text>
</a>
</g>
</g>
<!-- Node107&#45;&gt;Node115 -->
<g id="edge9" class="edge"><title>Node107&#45;&gt;Node115</title>
<path fill="none" stroke="midnightblue" d="M161.248,-207.864C169.602,-207.046 178.164,-206.206 186.697,-205.37"/>
<polygon fill="midnightblue" stroke="midnightblue" points="187.075,-208.849 196.686,-204.39 186.392,-201.883 187.075,-208.849"/>
</g>
<!-- Node119 -->
<g id="node13" class="node"><title>Node119</title>
<g id="a_node13"><a xlink:href="namespaceinput__utilities.html#a03e09af96ba6f7e187ea4a1d9b743148" target="_top" xlink:title="Queries for user input for an integer value, where allowable range can be provided as well...">
<polygon fill="white" stroke="black" points="206,-225.183 206,-246.183 367,-246.183 367,-225.183 206,-225.183"/>
<text text-anchor="middle" x="286.5" y="-232.583" font-family="Ubuntu Mono" font-size="12.00">input_utilities::get_int</text>
</a>
</g>
</g>
<!-- Node107&#45;&gt;Node119 -->
<g id="edge16" class="edge"><title>Node107&#45;&gt;Node119</title>
<path fill="none" stroke="midnightblue" d="M161.248,-223.501C172.571,-224.611 184.278,-225.759 195.774,-226.886"/>
<polygon fill="midnightblue" stroke="midnightblue" points="195.513,-230.377 205.807,-227.87 196.196,-223.411 195.513,-230.377"/>
</g>
<!-- Node120 -->
<g id="node14" class="node"><title>Node120</title>
<g id="a_node14"><a xlink:href="namespaceinput__utilities.html#ad9ce824c30b32041ab70f3fb191f06db" target="_top" xlink:title="Queries for a logical value yes or no, where the default answer is also to be provided. ">
<polygon fill="white" stroke="black" points="206,-145.183 206,-166.183 367,-166.183 367,-145.183 206,-145.183"/>
<text text-anchor="middle" x="286.5" y="-152.583" font-family="Ubuntu Mono" font-size="12.00">input_utilities::get_log</text>
</a>
</g>
</g>
<!-- Node107&#45;&gt;Node120 -->
<g id="edge21" class="edge"><title>Node107&#45;&gt;Node120</title>
<path fill="none" stroke="midnightblue" d="M109.23,-205.105C132.456,-196.482 166.594,-184.355 197,-175.683 205.788,-173.177 215.138,-170.779 224.345,-168.57"/>
<polygon fill="midnightblue" stroke="midnightblue" points="225.306,-171.939 234.244,-166.25 223.709,-165.124 225.306,-171.939"/>
</g>
<!-- Node109 -->
<g id="node3" class="node"><title>Node109</title>
<g id="a_node3"><a xlink:href="namespacegrid__utilities.html#a67001ff9bbcad707aacf17f90a748d90" target="_top" xlink:title="Trim a grid, removing any overlap between the different regions. ">
<polygon fill="white" stroke="black" points="412,-343.183 412,-364.183 579,-364.183 579,-343.183 412,-343.183"/>
<text text-anchor="middle" x="495.5" y="-350.583" font-family="Ubuntu Mono" font-size="12.00">grid_utilities::trim_grid</text>
</a>
</g>
</g>
<!-- Node108&#45;&gt;Node109 -->
<g id="edge2" class="edge"><title>Node108&#45;&gt;Node109</title>
<path fill="none" stroke="midnightblue" d="M361.063,-346.592C374.12,-347.286 387.873,-348.017 401.386,-348.735"/>
<polygon fill="midnightblue" stroke="midnightblue" points="401.487,-352.245 411.658,-349.281 401.858,-345.255 401.487,-352.245"/>
</g>
<!-- Node110 -->
<g id="node4" class="node"><title>Node110</title>
<g id="a_node4"><a xlink:href="namespacestr__utilities.html#ac778d706b2e021672618939ab58fdd32" target="_top" xlink:title="Convert a real (double) to string. ">
<polygon fill="white" stroke="black" points="424,-383.183 424,-404.183 567,-404.183 567,-383.183 424,-383.183"/>
<text text-anchor="middle" x="495.5" y="-390.583" font-family="Ubuntu Mono" font-size="12.00">str_utilities::r2strt</text>
</a>
</g>
</g>
<!-- Node108&#45;&gt;Node110 -->
<g id="edge3" class="edge"><title>Node108&#45;&gt;Node110</title>
<path fill="none" stroke="midnightblue" d="M329.553,-353.223C353.673,-359.251 384.528,-366.933 412,-373.683 421.348,-375.98 431.295,-378.406 440.929,-380.747"/>
<polygon fill="midnightblue" stroke="midnightblue" points="440.272,-384.189 450.816,-383.146 441.923,-377.387 440.272,-384.189"/>
</g>
<!-- Node108&#45;&gt;Node111 -->
<g id="edge4" class="edge"><title>Node108&#45;&gt;Node111</title>
<path fill="none" stroke="midnightblue" d="M361.063,-332.377C379.104,-329.849 398.473,-327.136 416.706,-324.582"/>
<polygon fill="midnightblue" stroke="midnightblue" points="417.285,-328.035 426.703,-323.181 416.314,-321.102 417.285,-328.035"/>
</g>
<!-- Node113 -->
<g id="node7" class="node"><title>Node113</title>
<g id="a_node7"><a xlink:href="namespacemessages.html#a82dddaab795b78b3d39e1ff1aab2f665" target="_top" xlink:title="Returns the memory usage in kilobytes. ">
<polygon fill="white" stroke="black" points="758,-145.183 758,-166.183 913,-166.183 913,-145.183 758,-145.183"/>
<text text-anchor="middle" x="835.5" y="-152.583" font-family="Ubuntu Mono" font-size="12.00">messages::get_mem_usage</text>
</a>
</g>
</g>
<!-- Node112&#45;&gt;Node113 -->
<g id="edge6" class="edge"><title>Node112&#45;&gt;Node113</title>
<path fill="none" stroke="midnightblue" d="M722.161,-142.066C730.452,-143.071 739.208,-144.132 748.025,-145.201"/>
<polygon fill="midnightblue" stroke="midnightblue" points="747.635,-148.679 757.984,-146.408 748.478,-141.73 747.635,-148.679"/>
</g>
<!-- Node114 -->
<g id="node8" class="node"><title>Node114</title>
<g id="a_node8"><a xlink:href="namespacemessages.html#a61fd0b51b5e37d58fdc993c01792a3fd" target="_top" xlink:title="Returns the time. ">
<polygon fill="white" stroke="black" points="770,-105.183 770,-126.183 901,-126.183 901,-105.183 770,-105.183"/>
<text text-anchor="middle" x="835.5" y="-112.583" font-family="Ubuntu Mono" font-size="12.00">messages::get_clock</text>
</a>
</g>
</g>
<!-- Node112&#45;&gt;Node114 -->
<g id="edge7" class="edge"><title>Node112&#45;&gt;Node114</title>
<path fill="none" stroke="midnightblue" d="M722.161,-129.3C734.142,-127.848 747.094,-126.278 759.797,-124.738"/>
<polygon fill="midnightblue" stroke="midnightblue" points="760.402,-128.19 769.908,-123.512 759.56,-121.241 760.402,-128.19"/>
</g>
<!-- Node115&#45;&gt;Node112 -->
<g id="edge15" class="edge"><title>Node115&#45;&gt;Node112</title>
<path fill="none" stroke="midnightblue" d="M354.914,-185.1C362.288,-182.599 369.477,-179.506 376,-175.683 396.635,-163.589 390.151,-145.414 412,-135.683 476.334,-107.031 559.143,-113.918 612.766,-123.283"/>
<polygon fill="midnightblue" stroke="midnightblue" points="612.29,-126.754 622.758,-125.116 613.553,-119.869 612.29,-126.754"/>
</g>
<!-- Node116 -->
<g id="node10" class="node"><title>Node116</title>
<g id="a_node10"><a xlink:href="namespacempi__utilities.html#a790ea24d32dd0e249541c1e57cd85536" target="_top" xlink:title="Wait for all processes, wrapper to MPI barrier. ">
<polygon fill="white" stroke="black" points="418,-225.183 418,-246.183 573,-246.183 573,-225.183 418,-225.183"/>
<text text-anchor="middle" x="495.5" y="-232.583" font-family="Ubuntu Mono" font-size="12.00">mpi_utilities::wait_mpi</text>
</a>
</g>
</g>
<!-- Node115&#45;&gt;Node116 -->
<g id="edge10" class="edge"><title>Node115&#45;&gt;Node116</title>
<path fill="none" stroke="midnightblue" d="M341.887,-206.192C368.878,-211.408 401.67,-217.745 429.93,-223.206"/>
<polygon fill="midnightblue" stroke="midnightblue" points="429.635,-226.713 440.117,-225.174 430.963,-219.84 429.635,-226.713"/>
</g>
<!-- Node117 -->
<g id="node11" class="node"><title>Node117</title>
<g id="a_node11"><a xlink:href="namespacemessages.html#aed343894ae4a28ad6dfbd1d39aac64ff" target="_top" xlink:title="Stop a timer. ">
<polygon fill="white" stroke="black" points="430,-145.183 430,-166.183 561,-166.183 561,-145.183 430,-145.183"/>
<text text-anchor="middle" x="495.5" y="-152.583" font-family="Ubuntu Mono" font-size="12.00">messages::stop_time</text>
</a>
</g>
</g>
<!-- Node115&#45;&gt;Node117 -->
<g id="edge11" class="edge"><title>Node115&#45;&gt;Node117</title>
<path fill="none" stroke="midnightblue" d="M341.887,-185.173C368.878,-179.958 401.67,-173.621 429.93,-168.16"/>
<polygon fill="midnightblue" stroke="midnightblue" points="430.963,-171.525 440.117,-166.192 429.635,-164.653 430.963,-171.525"/>
</g>
<!-- Node118 -->
<g id="node12" class="node"><title>Node118</title>
<g id="a_node12"><a xlink:href="namespacemessages.html#a84d5988f3ea5ca8dc2834032f896ae90" target="_top" xlink:title="Start a timer. ">
<polygon fill="white" stroke="black" points="427,-185.183 427,-206.183 564,-206.183 564,-185.183 427,-185.183"/>
<text text-anchor="middle" x="495.5" y="-192.583" font-family="Ubuntu Mono" font-size="12.00">messages::start_time</text>
</a>
</g>
</g>
<!-- Node115&#45;&gt;Node118 -->
<g id="edge13" class="edge"><title>Node115&#45;&gt;Node118</title>
<path fill="none" stroke="midnightblue" d="M376.187,-195.683C389.741,-195.683 403.641,-195.683 416.931,-195.683"/>
<polygon fill="midnightblue" stroke="midnightblue" points="416.959,-199.183 426.959,-195.683 416.959,-192.183 416.959,-199.183"/>
</g>
<!-- Node117&#45;&gt;Node112 -->
<g id="edge12" class="edge"><title>Node117&#45;&gt;Node112</title>
<path fill="none" stroke="midnightblue" d="M561.148,-148.122C575.456,-146.448 590.593,-144.678 604.821,-143.014"/>
<polygon fill="midnightblue" stroke="midnightblue" points="605.47,-146.462 614.996,-141.824 604.657,-139.509 605.47,-146.462"/>
</g>
<!-- Node118&#45;&gt;Node112 -->
<g id="edge14" class="edge"><title>Node118&#45;&gt;Node112</title>
<path fill="none" stroke="midnightblue" d="M546.667,-185.107C557.442,-182.396 568.687,-179.229 579,-175.683 598.993,-168.809 620.633,-159.072 637.51,-150.926"/>
<polygon fill="midnightblue" stroke="midnightblue" points="639.41,-153.893 646.848,-146.348 636.328,-147.608 639.41,-153.893"/>
</g>
<!-- Node119&#45;&gt;Node111 -->
<g id="edge17" class="edge"><title>Node119&#45;&gt;Node111</title>
<path fill="none" stroke="midnightblue" d="M310.15,-246.203C334.878,-257.48 375.788,-275.532 412,-288.683 423.098,-292.713 435.19,-296.634 446.611,-300.129"/>
<polygon fill="midnightblue" stroke="midnightblue" points="445.847,-303.554 456.432,-303.084 447.864,-296.851 445.847,-303.554"/>
</g>
<!-- Node119&#45;&gt;Node112 -->
<g id="edge20" class="edge"><title>Node119&#45;&gt;Node112</title>
<path fill="none" stroke="midnightblue" d="M343.435,-246.217C416.317,-258.807 539.154,-275.807 579,-255.683 620.57,-234.688 647.42,-183.938 659.709,-155.622"/>
<polygon fill="midnightblue" stroke="midnightblue" points="662.977,-156.88 663.578,-146.302 656.512,-154.196 662.977,-156.88"/>
</g>
<!-- Node119&#45;&gt;Node117 -->
<g id="edge18" class="edge"><title>Node119&#45;&gt;Node117</title>
<path fill="none" stroke="midnightblue" d="M354.914,-225.1C362.288,-222.599 369.477,-219.506 376,-215.683 396.635,-203.589 391.46,-187.937 412,-175.683 415.631,-173.517 419.484,-171.585 423.464,-169.862"/>
<polygon fill="midnightblue" stroke="midnightblue" points="424.865,-173.073 432.936,-166.21 422.346,-166.542 424.865,-173.073"/>
</g>
<!-- Node119&#45;&gt;Node118 -->
<g id="edge19" class="edge"><title>Node119&#45;&gt;Node118</title>
<path fill="none" stroke="midnightblue" d="M341.887,-225.173C368.878,-219.958 401.67,-213.621 429.93,-208.16"/>
<polygon fill="midnightblue" stroke="midnightblue" points="430.963,-211.525 440.117,-206.192 429.635,-204.653 430.963,-211.525"/>
</g>
<!-- Node120&#45;&gt;Node112 -->
<g id="edge25" class="edge"><title>Node120&#45;&gt;Node112</title>
<path fill="none" stroke="midnightblue" d="M305.718,-145.143C329.322,-132.154 372.18,-110.806 412,-102.683 484.724,-87.8476 505.957,-89.5077 579,-102.683 598.83,-106.26 620.014,-114.006 636.684,-121.095"/>
<polygon fill="midnightblue" stroke="midnightblue" points="635.369,-124.341 645.932,-125.157 638.183,-117.931 635.369,-124.341"/>
</g>
<!-- Node120&#45;&gt;Node117 -->
<g id="edge22" class="edge"><title>Node120&#45;&gt;Node117</title>
<path fill="none" stroke="midnightblue" d="M367.236,-155.683C384.401,-155.683 402.489,-155.683 419.468,-155.683"/>
<polygon fill="midnightblue" stroke="midnightblue" points="419.879,-159.183 429.879,-155.683 419.879,-152.183 419.879,-159.183"/>
</g>
<!-- Node120&#45;&gt;Node118 -->
<g id="edge23" class="edge"><title>Node120&#45;&gt;Node118</title>
<path fill="none" stroke="midnightblue" d="M341.887,-166.192C368.878,-171.408 401.67,-177.745 429.93,-183.206"/>
<polygon fill="midnightblue" stroke="midnightblue" points="429.635,-186.713 440.117,-185.174 430.963,-179.84 429.635,-186.713"/>
</g>
<!-- Node121 -->
<g id="node15" class="node"><title>Node121</title>
<g id="a_node15"><a xlink:href="namespacestr__utilities.html#a219964a283968cc6a968db0197d2187e" target="_top" xlink:title="Convert a string to lowercase. ">
<polygon fill="white" stroke="black" points="424,-29.1829 424,-50.1829 567,-50.1829 567,-29.1829 424,-29.1829"/>
<text text-anchor="middle" x="495.5" y="-36.5829" font-family="Ubuntu Mono" font-size="12.00">str_utilities::strh2l</text>
</a>
</g>
</g>
<!-- Node120&#45;&gt;Node121 -->
<g id="edge24" class="edge"><title>Node120&#45;&gt;Node121</title>
<path fill="none" stroke="midnightblue" d="M299.315,-144.887C320.439,-126.106 366.72,-87.2697 412,-64.6829 420.839,-60.2738 430.604,-56.4765 440.23,-53.2685"/>
<polygon fill="midnightblue" stroke="midnightblue" points="441.288,-56.6048 449.77,-50.2562 439.18,-49.9297 441.288,-56.6048"/>
</g>
</g>
</svg>
