<?xml version="1.0" encoding="UTF-8" standalone="no"?>
<!DOCTYPE svg PUBLIC "-//W3C//DTD SVG 1.1//EN"
 "http://www.w3.org/Graphics/SVG/1.1/DTD/svg11.dtd">
<!-- Generated by graphviz version 2.38.0 (20140413.2041)
 -->
<!-- Title: x_ops::divide_x_jobs Pages: 1 -->
<svg width="604pt" height="30pt"
 viewBox="0.00 0.00 604.00 30.00" xmlns="http://www.w3.org/2000/svg" xmlns:xlink="http://www.w3.org/1999/xlink">
<g id="graph0" class="graph" transform="scale(1 1) rotate(0) translate(4 26)">
<title>x_ops::divide_x_jobs</title>
<polygon fill="white" stroke="none" points="-4,4 -4,-26 600,-26 600,4 -4,4"/>
<!-- Node77 -->
<g id="node1" class="node"><title>Node77</title>
<polygon fill="#bfbfbf" stroke="black" points="0,-0.5 0,-21.5 137,-21.5 137,-0.5 0,-0.5"/>
<text text-anchor="middle" x="68.5" y="-7.9" font-family="Ubuntu Mono" font-size="12.00">x_ops::divide_x_jobs</text>
</g>
<!-- Node78 -->
<g id="node2" class="node"><title>Node78</title>
<g id="a_node2"><a xlink:href="namespacedriver__x.html#ad3924b3d66f336f0a9a9559eafffec8e" target="_top" xlink:title="Part 2 of driver_X: Tensorial jobs. ">
<polygon fill="white" stroke="black" points="173,-0.5 173,-21.5 334,-21.5 334,-0.5 173,-0.5"/>
<text text-anchor="middle" x="253.5" y="-7.9" font-family="Ubuntu Mono" font-size="12.00">driver_x::run_driver_x_2</text>
</a>
</g>
</g>
<!-- Node77&#45;&gt;Node78 -->
<g id="edge1" class="edge"><title>Node77&#45;&gt;Node78</title>
<path fill="none" stroke="midnightblue" d="M147.306,-11C155.736,-11 164.324,-11 172.776,-11"/>
<polygon fill="midnightblue" stroke="midnightblue" points="147.123,-7.5001 137.123,-11 147.122,-14.5001 147.123,-7.5001"/>
</g>
<!-- Node79 -->
<g id="node3" class="node"><title>Node79</title>
<g id="a_node3"><a xlink:href="namespacedriver__x.html#ada3d72a0929daaa5e3da585246d62281" target="_top" xlink:title="Main driver of PB3D perturbation part. ">
<polygon fill="white" stroke="black" points="370,-0.5 370,-21.5 519,-21.5 519,-0.5 370,-0.5"/>
<text text-anchor="middle" x="444.5" y="-7.9" font-family="Ubuntu Mono" font-size="12.00">driver_x::run_driver_x</text>
</a>
</g>
</g>
<!-- Node78&#45;&gt;Node79 -->
<g id="edge2" class="edge"><title>Node78&#45;&gt;Node79</title>
<path fill="none" stroke="midnightblue" d="M344.123,-11C352.692,-11 361.314,-11 369.708,-11"/>
<polygon fill="midnightblue" stroke="midnightblue" points="344.105,-7.5001 334.105,-11 344.105,-14.5001 344.105,-7.5001"/>
</g>
<!-- Node80 -->
<g id="node4" class="node"><title>Node80</title>
<g id="a_node4"><a xlink:href="PB3D_8f90.html#afaee01f014ab3398eecac996b2795fd2" target="_top" xlink:title="Peeling Ballooning in 3D. ">
<polygon fill="white" stroke="black" points="555,-0.5 555,-21.5 596,-21.5 596,-0.5 555,-0.5"/>
<text text-anchor="middle" x="575.5" y="-7.9" font-family="Ubuntu Mono" font-size="12.00">pb3d</text>
</a>
</g>
</g>
<!-- Node79&#45;&gt;Node80 -->
<g id="edge3" class="edge"><title>Node79&#45;&gt;Node80</title>
<path fill="none" stroke="midnightblue" d="M529.141,-11C538.656,-11 547.56,-11 554.916,-11"/>
<polygon fill="midnightblue" stroke="midnightblue" points="529.044,-7.5001 519.044,-11 529.044,-14.5001 529.044,-7.5001"/>
</g>
</g>
</svg>
