<?xml version="1.0" encoding="UTF-8" standalone="no"?>
<!DOCTYPE svg PUBLIC "-//W3C//DTD SVG 1.1//EN"
 "http://www.w3.org/Graphics/SVG/1.1/DTD/svg11.dtd">
<!-- Generated by graphviz version 2.38.0 (20140413.2041)
 -->
<!-- Title: test::test_interp Pages: 1 -->
<svg width="1416pt" height="880pt"
 viewBox="0.00 0.00 1416.00 880.29" xmlns="http://www.w3.org/2000/svg" xmlns:xlink="http://www.w3.org/1999/xlink">
<g id="graph0" class="graph" transform="scale(1 1) rotate(0) translate(4 876.286)">
<title>test::test_interp</title>
<polygon fill="white" stroke="none" points="-4,4 -4,-876.286 1412,-876.286 1412,4 -4,4"/>
<!-- Node108 -->
<g id="node1" class="node"><title>Node108</title>
<polygon fill="#bfbfbf" stroke="black" points="0,-344.786 0,-365.786 119,-365.786 119,-344.786 0,-344.786"/>
<text text-anchor="middle" x="59.5" y="-352.186" font-family="Ubuntu Mono" font-size="12.00">test::test_interp</text>
</g>
<!-- Node109 -->
<g id="node2" class="node"><title>Node109</title>
<g id="a_node2"><a xlink:href="namespacempi__utilities.html#a790ea24d32dd0e249541c1e57cd85536" target="_top" xlink:title="mpi_utilities::wait_mpi">
<polygon fill="white" stroke="black" points="334,-850.786 334,-871.786 489,-871.786 489,-850.786 334,-850.786"/>
<text text-anchor="middle" x="411.5" y="-858.186" font-family="Ubuntu Mono" font-size="12.00">mpi_utilities::wait_mpi</text>
</a>
</g>
</g>
<!-- Node108&#45;&gt;Node109 -->
<g id="edge1" class="edge"><title>Node108&#45;&gt;Node109</title>
<path fill="none" stroke="midnightblue" d="M63.351,-366.005C79.2455,-423.657 162.442,-699.358 334,-836.286 339.088,-840.347 344.859,-843.758 350.894,-846.621"/>
<polygon fill="midnightblue" stroke="midnightblue" points="349.962,-850.027 360.537,-850.684 352.68,-843.576 349.962,-850.027"/>
</g>
<!-- Node110 -->
<g id="node3" class="node"><title>Node110</title>
<g id="a_node3"><a xlink:href="namespacegrid__utilities.html#a43206328f85253a6cc821cd46a498bb6" target="_top" xlink:title="grid_utilities::setup\l_interp_data">
<polygon fill="white" stroke="black" points="155,-494.286 155,-528.286 298,-528.286 298,-494.286 155,-494.286"/>
<text text-anchor="start" x="163" y="-514.686" font-family="Ubuntu Mono" font-size="12.00">grid_utilities::setup</text>
<text text-anchor="middle" x="226.5" y="-501.686" font-family="Ubuntu Mono" font-size="12.00">_interp_data</text>
</a>
</g>
</g>
<!-- Node108&#45;&gt;Node110 -->
<g id="edge2" class="edge"><title>Node108&#45;&gt;Node110</title>
<path fill="none" stroke="midnightblue" d="M70.4155,-365.958C87.3137,-384.006 122.977,-421.502 155,-451.286 168.352,-463.705 183.716,-476.9 196.686,-487.745"/>
<polygon fill="midnightblue" stroke="midnightblue" points="194.485,-490.467 204.413,-494.166 198.959,-485.083 194.485,-490.467"/>
</g>
<!-- Node112 -->
<g id="node5" class="node"><title>Node112</title>
<g id="a_node5"><a xlink:href="namespacemessages.html#a6e6bfb084063e4cc91ee86e542043302" target="_top" xlink:title="messages::lvl_ud">
<polygon fill="white" stroke="black" points="552,-381.786 552,-402.786 665,-402.786 665,-381.786 552,-381.786"/>
<text text-anchor="middle" x="608.5" y="-389.186" font-family="Ubuntu Mono" font-size="12.00">messages::lvl_ud</text>
</a>
</g>
</g>
<!-- Node108&#45;&gt;Node112 -->
<g id="edge4" class="edge"><title>Node108&#45;&gt;Node112</title>
<path fill="none" stroke="midnightblue" d="M119.039,-359.246C221.832,-366.199 434.065,-380.555 541.747,-387.838"/>
<polygon fill="midnightblue" stroke="midnightblue" points="541.621,-391.338 551.834,-388.521 542.093,-384.354 541.621,-391.338"/>
</g>
<!-- Node113 -->
<g id="node6" class="node"><title>Node113</title>
<g id="a_node6"><a xlink:href="namespacemessages.html#aa4a8d01563e92558e8a0875b075ec54c" target="_top" xlink:title="messages::writo">
<polygon fill="white" stroke="black" points="925,-190.786 925,-211.786 1032,-211.786 1032,-190.786 925,-190.786"/>
<text text-anchor="middle" x="978.5" y="-198.186" font-family="Ubuntu Mono" font-size="12.00">messages::writo</text>
</a>
</g>
</g>
<!-- Node108&#45;&gt;Node113 -->
<g id="edge9" class="edge"><title>Node108&#45;&gt;Node113</title>
<path fill="none" stroke="midnightblue" d="M63.5623,-344.759C72.8786,-314.206 103.435,-224.084 155,-167.286 245.219,-67.9105 276.28,-6.28611 410.5,-6.28611 410.5,-6.28611 410.5,-6.28611 609.5,-6.28611 726.759,-6.28611 771.545,20.8295 871,-41.2861 924.35,-74.6062 956.876,-145.606 970.319,-180.731"/>
<polygon fill="midnightblue" stroke="midnightblue" points="967.139,-182.225 973.88,-190.398 973.708,-179.805 967.139,-182.225"/>
</g>
<!-- Node117 -->
<g id="node10" class="node"><title>Node117</title>
<g id="a_node10"><a xlink:href="namespaceinput__utilities.html#a03e09af96ba6f7e187ea4a1d9b743148" target="_top" xlink:title="input_utilities::get_int">
<polygon fill="white" stroke="black" points="528,-190.786 528,-211.786 689,-211.786 689,-190.786 528,-190.786"/>
<text text-anchor="middle" x="608.5" y="-198.186" font-family="Ubuntu Mono" font-size="12.00">input_utilities::get_int</text>
</a>
</g>
</g>
<!-- Node108&#45;&gt;Node117 -->
<g id="edge10" class="edge"><title>Node108&#45;&gt;Node117</title>
<path fill="none" stroke="midnightblue" d="M75.5976,-344.708C115.511,-317.414 228.037,-244.758 334,-216.286 393.755,-200.23 463.42,-196.62 517.486,-196.953"/>
<polygon fill="midnightblue" stroke="midnightblue" points="517.701,-200.455 527.738,-197.064 517.777,-193.456 517.701,-200.455"/>
</g>
<!-- Node120 -->
<g id="node13" class="node"><title>Node120</title>
<g id="a_node13"><a xlink:href="test_8f90.html#ac59a32c8a4039263eb65c3990732d878" target="_top" xlink:title="setup_x">
<polygon fill="white" stroke="black" points="197,-420.786 197,-441.786 256,-441.786 256,-420.786 197,-420.786"/>
<text text-anchor="middle" x="226.5" y="-428.186" font-family="Ubuntu Mono" font-size="12.00">setup_x</text>
</a>
</g>
</g>
<!-- Node108&#45;&gt;Node120 -->
<g id="edge17" class="edge"><title>Node108&#45;&gt;Node120</title>
<path fill="none" stroke="midnightblue" d="M83.4425,-365.854C111.931,-378.975 160.706,-401.442 193.026,-416.328"/>
<polygon fill="midnightblue" stroke="midnightblue" points="191.94,-419.681 202.487,-420.686 194.868,-413.324 191.94,-419.681"/>
</g>
<!-- Node122 -->
<g id="node15" class="node"><title>Node122</title>
<g id="a_node15"><a xlink:href="namespaceinput__utilities.html#ad9ce824c30b32041ab70f3fb191f06db" target="_top" xlink:title="input_utilities::get_log">
<polygon fill="white" stroke="black" points="528,-150.786 528,-171.786 689,-171.786 689,-150.786 528,-150.786"/>
<text text-anchor="middle" x="608.5" y="-158.186" font-family="Ubuntu Mono" font-size="12.00">input_utilities::get_log</text>
</a>
</g>
</g>
<!-- Node108&#45;&gt;Node122 -->
<g id="edge59" class="edge"><title>Node108&#45;&gt;Node122</title>
<path fill="none" stroke="midnightblue" d="M64.8017,-344.743C75.7021,-319.479 106.997,-255.353 155,-225.286 265.564,-156.035 420.779,-149.341 517.671,-153.413"/>
<polygon fill="midnightblue" stroke="midnightblue" points="517.582,-156.912 527.734,-153.883 517.909,-149.92 517.582,-156.912"/>
</g>
<!-- Node111 -->
<g id="node4" class="node"><title>Node111</title>
<g id="a_node4"><a xlink:href="namespacestr__utilities.html#a0b97e51770725a3e98ed393d26681414" target="_top" xlink:title="str_utilities::i2str">
<polygon fill="white" stroke="black" points="910,-458.786 910,-479.786 1047,-479.786 1047,-458.786 910,-458.786"/>
<text text-anchor="middle" x="978.5" y="-466.186" font-family="Ubuntu Mono" font-size="12.00">str_utilities::i2str</text>
</a>
</g>
</g>
<!-- Node110&#45;&gt;Node111 -->
<g id="edge3" class="edge"><title>Node110&#45;&gt;Node111</title>
<path fill="none" stroke="midnightblue" d="M298.214,-512.358C416.958,-513.378 663.781,-512.152 871,-489.286 886.953,-487.526 904.101,-484.718 919.875,-481.755"/>
<polygon fill="midnightblue" stroke="midnightblue" points="920.862,-485.129 930.017,-479.796 919.534,-478.257 920.862,-485.129"/>
</g>
<!-- Node112&#45;&gt;Node113 -->
<g id="edge5" class="edge"><title>Node112&#45;&gt;Node113</title>
<path fill="none" stroke="midnightblue" d="M665.062,-383.391C731.216,-372.068 837.033,-351.427 871,-330.286 915.553,-302.557 950.271,-249.703 966.841,-221.008"/>
<polygon fill="midnightblue" stroke="midnightblue" points="970.085,-222.379 971.931,-211.946 963.982,-218.95 970.085,-222.379"/>
</g>
<!-- Node114 -->
<g id="node7" class="node"><title>Node114</title>
<g id="a_node7"><a xlink:href="namespacemessages.html#a82dddaab795b78b3d39e1ff1aab2f665" target="_top" xlink:title="messages::get_mem_usage">
<polygon fill="white" stroke="black" points="1086,-210.786 1086,-231.786 1241,-231.786 1241,-210.786 1086,-210.786"/>
<text text-anchor="middle" x="1163.5" y="-218.186" font-family="Ubuntu Mono" font-size="12.00">messages::get_mem_usage</text>
</a>
</g>
</g>
<!-- Node113&#45;&gt;Node114 -->
<g id="edge6" class="edge"><title>Node113&#45;&gt;Node114</title>
<path fill="none" stroke="midnightblue" d="M1032.43,-207.071C1045.98,-208.552 1060.92,-210.184 1075.68,-211.798"/>
<polygon fill="midnightblue" stroke="midnightblue" points="1075.54,-215.303 1085.86,-212.911 1076.3,-208.345 1075.54,-215.303"/>
</g>
<!-- Node115 -->
<g id="node8" class="node"><title>Node115</title>
<g id="a_node8"><a xlink:href="messages_8f90.html#a6d15f28783f95a7a4b2a44185619792f" target="_top" xlink:title="format_str">
<polygon fill="white" stroke="black" points="1125,-170.786 1125,-191.786 1202,-191.786 1202,-170.786 1125,-170.786"/>
<text text-anchor="middle" x="1163.5" y="-178.186" font-family="Ubuntu Mono" font-size="12.00">format_str</text>
</a>
</g>
</g>
<!-- Node113&#45;&gt;Node115 -->
<g id="edge7" class="edge"><title>Node113&#45;&gt;Node115</title>
<path fill="none" stroke="midnightblue" d="M1032.43,-195.501C1058.41,-192.662 1089.46,-189.268 1114.71,-186.509"/>
<polygon fill="midnightblue" stroke="midnightblue" points="1115.23,-189.973 1124.79,-185.407 1114.47,-183.015 1115.23,-189.973"/>
</g>
<!-- Node116 -->
<g id="node9" class="node"><title>Node116</title>
<g id="a_node9"><a xlink:href="namespacemessages.html#a61fd0b51b5e37d58fdc993c01792a3fd" target="_top" xlink:title="messages::get_clock">
<polygon fill="white" stroke="black" points="1277,-170.786 1277,-191.786 1408,-191.786 1408,-170.786 1277,-170.786"/>
<text text-anchor="middle" x="1342.5" y="-178.186" font-family="Ubuntu Mono" font-size="12.00">messages::get_clock</text>
</a>
</g>
</g>
<!-- Node115&#45;&gt;Node116 -->
<g id="edge8" class="edge"><title>Node115&#45;&gt;Node116</title>
<path fill="none" stroke="midnightblue" d="M1202.04,-181.286C1220.87,-181.286 1244.37,-181.286 1266.68,-181.286"/>
<polygon fill="midnightblue" stroke="midnightblue" points="1266.83,-184.786 1276.83,-181.286 1266.83,-177.786 1266.83,-184.786"/>
</g>
<!-- Node117&#45;&gt;Node111 -->
<g id="edge11" class="edge"><title>Node117&#45;&gt;Node111</title>
<path fill="none" stroke="midnightblue" d="M636.741,-211.834C653.25,-218.707 674.442,-228.403 692,-239.286 801.243,-307.002 915.783,-410.995 959.293,-451.903"/>
<polygon fill="midnightblue" stroke="midnightblue" points="956.901,-454.458 966.573,-458.784 961.709,-449.371 956.901,-454.458"/>
</g>
<!-- Node117&#45;&gt;Node113 -->
<g id="edge16" class="edge"><title>Node117&#45;&gt;Node113</title>
<path fill="none" stroke="midnightblue" d="M671.064,-190.759C678.388,-188.247 685.545,-185.137 692,-181.286 712.54,-169.032 706.151,-151.017 728,-141.286 786.058,-115.429 809.524,-125.161 871,-141.286 902.829,-149.635 935.171,-169.881 955.728,-184.55"/>
<polygon fill="midnightblue" stroke="midnightblue" points="953.905,-187.553 964.04,-190.639 958.042,-181.906 953.905,-187.553"/>
</g>
<!-- Node118 -->
<g id="node11" class="node"><title>Node118</title>
<g id="a_node11"><a xlink:href="namespacemessages.html#a2a1154de25763d4894275ff4307b6862" target="_top" xlink:title="messages::stop_time">
<polygon fill="white" stroke="black" points="734,-150.786 734,-171.786 865,-171.786 865,-150.786 734,-150.786"/>
<text text-anchor="middle" x="799.5" y="-158.186" font-family="Ubuntu Mono" font-size="12.00">messages::stop_time</text>
</a>
</g>
</g>
<!-- Node117&#45;&gt;Node118 -->
<g id="edge12" class="edge"><title>Node117&#45;&gt;Node118</title>
<path fill="none" stroke="midnightblue" d="M659.158,-190.777C683.585,-185.607 713.218,-179.335 738.865,-173.907"/>
<polygon fill="midnightblue" stroke="midnightblue" points="739.788,-177.29 748.846,-171.795 738.338,-170.441 739.788,-177.29"/>
</g>
<!-- Node119 -->
<g id="node12" class="node"><title>Node119</title>
<g id="a_node12"><a xlink:href="namespacemessages.html#ad997c3dff64c512e0070ce8816c28e7f" target="_top" xlink:title="messages::start_time">
<polygon fill="white" stroke="black" points="731,-190.786 731,-211.786 868,-211.786 868,-190.786 731,-190.786"/>
<text text-anchor="middle" x="799.5" y="-198.186" font-family="Ubuntu Mono" font-size="12.00">messages::start_time</text>
</a>
</g>
</g>
<!-- Node117&#45;&gt;Node119 -->
<g id="edge14" class="edge"><title>Node117&#45;&gt;Node119</title>
<path fill="none" stroke="midnightblue" d="M689.105,-201.286C699.547,-201.286 710.237,-201.286 720.649,-201.286"/>
<polygon fill="midnightblue" stroke="midnightblue" points="720.948,-204.786 730.948,-201.286 720.948,-197.786 720.948,-204.786"/>
</g>
<!-- Node118&#45;&gt;Node113 -->
<g id="edge13" class="edge"><title>Node118&#45;&gt;Node113</title>
<path fill="none" stroke="midnightblue" d="M847.005,-171.796C869.679,-176.92 897.142,-183.126 921.013,-188.521"/>
<polygon fill="midnightblue" stroke="midnightblue" points="920.473,-191.987 930.999,-190.777 922.016,-185.159 920.473,-191.987"/>
</g>
<!-- Node119&#45;&gt;Node113 -->
<g id="edge15" class="edge"><title>Node119&#45;&gt;Node113</title>
<path fill="none" stroke="midnightblue" d="M868.174,-201.286C883.398,-201.286 899.495,-201.286 914.518,-201.286"/>
<polygon fill="midnightblue" stroke="midnightblue" points="914.724,-204.786 924.724,-201.286 914.724,-197.786 914.724,-204.786"/>
</g>
<!-- Node120&#45;&gt;Node109 -->
<g id="edge49" class="edge"><title>Node120&#45;&gt;Node109</title>
<path fill="none" stroke="midnightblue" d="M249.949,-441.818C266.207,-450.716 287.158,-465.086 298,-484.286 336.662,-552.755 284.654,-775.068 334,-836.286 336.89,-839.871 340.303,-842.947 344.057,-845.586"/>
<polygon fill="midnightblue" stroke="midnightblue" points="342.354,-848.645 352.749,-850.693 345.9,-842.61 342.354,-848.645"/>
</g>
<!-- Node120&#45;&gt;Node112 -->
<g id="edge20" class="edge"><title>Node120&#45;&gt;Node112</title>
<path fill="none" stroke="midnightblue" d="M256.391,-427.174C277.793,-424.205 307.682,-420.218 334,-417.286 404.931,-409.385 486.418,-402.177 541.868,-397.552"/>
<polygon fill="midnightblue" stroke="midnightblue" points="542.233,-401.034 551.91,-396.719 541.655,-394.058 542.233,-401.034"/>
</g>
<!-- Node120&#45;&gt;Node113 -->
<g id="edge18" class="edge"><title>Node120&#45;&gt;Node113</title>
<path fill="none" stroke="midnightblue" d="M256.157,-432.031C367.599,-434.38 770.876,-437.648 871,-365.286 922.866,-327.801 956.093,-256.601 970.01,-221.661"/>
<polygon fill="midnightblue" stroke="midnightblue" points="973.38,-222.648 973.708,-212.058 966.848,-220.132 973.38,-222.648"/>
</g>
<!-- Node120&#45;&gt;Node117 -->
<g id="edge19" class="edge"><title>Node120&#45;&gt;Node117</title>
<path fill="none" stroke="midnightblue" d="M230.441,-420.753C239.751,-389.506 271.708,-296.8 334,-253.286 349.737,-242.293 451.271,-224.918 526.054,-213.316"/>
<polygon fill="midnightblue" stroke="midnightblue" points="526.605,-216.772 535.955,-211.789 525.538,-209.854 526.605,-216.772"/>
</g>
<!-- Node121 -->
<g id="node14" class="node"><title>Node121</title>
<g id="a_node14"><a xlink:href="namespacestr__utilities.html#ac778d706b2e021672618939ab58fdd32" target="_top" xlink:title="str_utilities::r2strt">
<polygon fill="white" stroke="black" points="728,-458.786 728,-479.786 871,-479.786 871,-458.786 728,-458.786"/>
<text text-anchor="middle" x="799.5" y="-466.186" font-family="Ubuntu Mono" font-size="12.00">str_utilities::r2strt</text>
</a>
</g>
</g>
<!-- Node120&#45;&gt;Node121 -->
<g id="edge21" class="edge"><title>Node120&#45;&gt;Node121</title>
<path fill="none" stroke="midnightblue" d="M256.36,-435.708C277.745,-438.832 307.629,-442.875 334,-445.286 468.284,-457.562 625.025,-464.035 717.788,-467.052"/>
<polygon fill="midnightblue" stroke="midnightblue" points="717.839,-470.555 727.946,-467.377 718.063,-463.559 717.839,-470.555"/>
</g>
<!-- Node120&#45;&gt;Node122 -->
<g id="edge22" class="edge"><title>Node120&#45;&gt;Node122</title>
<path fill="none" stroke="midnightblue" d="M229.353,-420.704C236.126,-385.401 262.958,-270.817 334,-216.286 386.1,-176.295 459.748,-163.238 517.496,-159.803"/>
<polygon fill="midnightblue" stroke="midnightblue" points="517.908,-163.287 527.718,-159.285 517.553,-156.296 517.908,-163.287"/>
</g>
<!-- Node124 -->
<g id="node17" class="node"><title>Node124</title>
<g id="a_node17"><a xlink:href="namespaceinput__utilities.html#a41fc0c806e12bc722771210cfa1edbd3" target="_top" xlink:title="input_utilities::get_real">
<polygon fill="white" stroke="black" points="525,-248.786 525,-269.786 692,-269.786 692,-248.786 525,-248.786"/>
<text text-anchor="middle" x="608.5" y="-256.186" font-family="Ubuntu Mono" font-size="12.00">input_utilities::get_real</text>
</a>
</g>
</g>
<!-- Node120&#45;&gt;Node124 -->
<g id="edge27" class="edge"><title>Node120&#45;&gt;Node124</title>
<path fill="none" stroke="midnightblue" d="M232.351,-420.576C244.885,-394.277 281.11,-326.475 334,-296.286 388.551,-265.149 458.951,-256.198 514.664,-254.877"/>
<polygon fill="midnightblue" stroke="midnightblue" points="514.945,-258.373 524.888,-254.716 514.834,-251.374 514.945,-258.373"/>
</g>
<!-- Node125 -->
<g id="node18" class="node"><title>Node125</title>
<g id="a_node18"><a xlink:href="namespacempi__utilities.html#a5a789d05be41d6109c01f46cc98620c8" target="_top" xlink:title="mpi_utilities::lock\l_req_acc">
<polygon fill="white" stroke="black" points="346,-609.286 346,-643.286 477,-643.286 477,-609.286 346,-609.286"/>
<text text-anchor="start" x="354" y="-629.686" font-family="Ubuntu Mono" font-size="12.00">mpi_utilities::lock</text>
<text text-anchor="middle" x="411.5" y="-616.686" font-family="Ubuntu Mono" font-size="12.00">_req_acc</text>
</a>
</g>
</g>
<!-- Node120&#45;&gt;Node125 -->
<g id="edge32" class="edge"><title>Node120&#45;&gt;Node125</title>
<path fill="none" stroke="midnightblue" d="M243.826,-441.789C258.746,-451.783 281.006,-467.718 298,-484.286 335.757,-521.097 372.311,-570.597 393.043,-600.377"/>
<polygon fill="midnightblue" stroke="midnightblue" points="390.396,-602.703 398.954,-608.95 396.159,-598.73 390.396,-602.703"/>
</g>
<!-- Node126 -->
<g id="node19" class="node"><title>Node126</title>
<g id="a_node19"><a xlink:href="namespacempi__utilities.html#a4c5de9472574b63c69212948d8a3f4e1" target="_top" xlink:title="mpi_utilities::lock\l_header">
<polygon fill="white" stroke="black" points="734,-635.286 734,-669.286 865,-669.286 865,-635.286 734,-635.286"/>
<text text-anchor="start" x="742" y="-655.686" font-family="Ubuntu Mono" font-size="12.00">mpi_utilities::lock</text>
<text text-anchor="middle" x="799.5" y="-642.686" font-family="Ubuntu Mono" font-size="12.00">_header</text>
</a>
</g>
</g>
<!-- Node120&#45;&gt;Node126 -->
<g id="edge50" class="edge"><title>Node120&#45;&gt;Node126</title>
<path fill="none" stroke="midnightblue" d="M249.692,-441.967C265.815,-450.944 286.71,-465.346 298,-484.286 353.226,-576.935 264.859,-641.501 334,-724.286 437.662,-848.404 546.74,-860.353 692,-789.286 738.841,-766.37 771.028,-711.81 786.963,-678.875"/>
<polygon fill="midnightblue" stroke="midnightblue" points="790.325,-679.949 791.385,-669.407 783.983,-676.986 790.325,-679.949"/>
</g>
<!-- Node128 -->
<g id="node21" class="node"><title>Node128</title>
<g id="a_node21"><a xlink:href="namespacempi__utilities.html#a0417983d618bfc9f892d6d2af5d27b1d" target="_top" xlink:title="mpi_utilities::lock\l_wl_change">
<polygon fill="white" stroke="black" points="543,-536.286 543,-570.286 674,-570.286 674,-536.286 543,-536.286"/>
<text text-anchor="start" x="551" y="-556.686" font-family="Ubuntu Mono" font-size="12.00">mpi_utilities::lock</text>
<text text-anchor="middle" x="608.5" y="-543.686" font-family="Ubuntu Mono" font-size="12.00">_wl_change</text>
</a>
</g>
</g>
<!-- Node120&#45;&gt;Node128 -->
<g id="edge51" class="edge"><title>Node120&#45;&gt;Node128</title>
<path fill="none" stroke="midnightblue" d="M246.225,-441.885C267.104,-453.354 302.136,-471.569 334,-483.286 399.745,-507.463 477.325,-526.462 533.034,-538.53"/>
<polygon fill="midnightblue" stroke="midnightblue" points="532.313,-541.955 542.825,-540.628 533.78,-535.11 532.313,-541.955"/>
</g>
<!-- Node132 -->
<g id="node25" class="node"><title>Node132</title>
<g id="a_node25"><a xlink:href="namespacempi__utilities.html#a86f9982a0f92b51a916f832d9a3d8ba9" target="_top" xlink:title="mpi_utilities::lock\l_return_acc">
<polygon fill="white" stroke="black" points="346,-681.286 346,-715.286 477,-715.286 477,-681.286 346,-681.286"/>
<text text-anchor="start" x="354" y="-701.686" font-family="Ubuntu Mono" font-size="12.00">mpi_utilities::lock</text>
<text text-anchor="middle" x="411.5" y="-688.686" font-family="Ubuntu Mono" font-size="12.00">_return_acc</text>
</a>
</g>
</g>
<!-- Node120&#45;&gt;Node132 -->
<g id="edge44" class="edge"><title>Node120&#45;&gt;Node132</title>
<path fill="none" stroke="midnightblue" d="M248.696,-441.799C264.724,-450.858 285.962,-465.448 298,-484.286 339.119,-548.632 289.615,-590.148 334,-652.286 340.758,-661.747 350.125,-669.613 359.992,-676.007"/>
<polygon fill="midnightblue" stroke="midnightblue" points="358.361,-679.111 368.738,-681.25 361.96,-673.107 358.361,-679.111"/>
</g>
<!-- Node133 -->
<g id="node26" class="node"><title>Node133</title>
<g id="a_node26"><a xlink:href="test_8f90.html#a2da760282029987928d286425c000648" target="_top" xlink:title="random_int">
<polygon fill="white" stroke="black" points="373,-305.786 373,-326.786 450,-326.786 450,-305.786 373,-305.786"/>
<text text-anchor="middle" x="411.5" y="-313.186" font-family="Ubuntu Mono" font-size="12.00">random_int</text>
</a>
</g>
</g>
<!-- Node120&#45;&gt;Node133 -->
<g id="edge52" class="edge"><title>Node120&#45;&gt;Node133</title>
<path fill="none" stroke="midnightblue" d="M244.388,-420.673C276.527,-400.477 346.665,-356.401 384.713,-332.491"/>
<polygon fill="midnightblue" stroke="midnightblue" points="387.048,-335.158 393.653,-326.873 383.323,-329.231 387.048,-335.158"/>
</g>
<!-- Node122&#45;&gt;Node113 -->
<g id="edge26" class="edge"><title>Node122&#45;&gt;Node113</title>
<path fill="none" stroke="midnightblue" d="M617.863,-150.58C635.459,-129.039 678.766,-81.0069 728,-63.2861 787.8,-41.7622 813.96,-35.2552 871,-63.2861 921.487,-88.0968 954.806,-149.635 969.271,-181.483"/>
<polygon fill="midnightblue" stroke="midnightblue" points="966.087,-182.938 973.302,-190.696 972.5,-180.132 966.087,-182.938"/>
</g>
<!-- Node122&#45;&gt;Node118 -->
<g id="edge23" class="edge"><title>Node122&#45;&gt;Node118</title>
<path fill="none" stroke="midnightblue" d="M689.105,-161.286C700.537,-161.286 712.266,-161.286 723.602,-161.286"/>
<polygon fill="midnightblue" stroke="midnightblue" points="723.882,-164.786 733.882,-161.286 723.882,-157.786 723.882,-164.786"/>
</g>
<!-- Node122&#45;&gt;Node119 -->
<g id="edge24" class="edge"><title>Node122&#45;&gt;Node119</title>
<path fill="none" stroke="midnightblue" d="M659.158,-171.796C683.585,-176.966 713.218,-183.237 738.865,-188.665"/>
<polygon fill="midnightblue" stroke="midnightblue" points="738.338,-192.131 748.846,-190.777 739.788,-185.283 738.338,-192.131"/>
</g>
<!-- Node123 -->
<g id="node16" class="node"><title>Node123</title>
<g id="a_node16"><a xlink:href="namespacestr__utilities.html#a219964a283968cc6a968db0197d2187e" target="_top" xlink:title="str_utilities::strh2l">
<polygon fill="white" stroke="black" points="728,-72.7861 728,-93.7861 871,-93.7861 871,-72.7861 728,-72.7861"/>
<text text-anchor="middle" x="799.5" y="-80.1861" font-family="Ubuntu Mono" font-size="12.00">str_utilities::strh2l</text>
</a>
</g>
</g>
<!-- Node122&#45;&gt;Node123 -->
<g id="edge25" class="edge"><title>Node122&#45;&gt;Node123</title>
<path fill="none" stroke="midnightblue" d="M631.987,-150.583C655.654,-139.472 694.104,-121.851 728,-108.286 737.495,-104.486 747.819,-100.659 757.565,-97.1798"/>
<polygon fill="midnightblue" stroke="midnightblue" points="758.797,-100.457 767.065,-93.8311 756.47,-93.8546 758.797,-100.457"/>
</g>
<!-- Node124&#45;&gt;Node113 -->
<g id="edge31" class="edge"><title>Node124&#45;&gt;Node113</title>
<path fill="none" stroke="midnightblue" d="M687.727,-248.779C739.757,-241.579 809.569,-231.513 871,-221.286 885.112,-218.937 900.237,-216.218 914.528,-213.558"/>
<polygon fill="midnightblue" stroke="midnightblue" points="915.578,-216.922 924.76,-211.636 914.286,-210.042 915.578,-216.922"/>
</g>
<!-- Node124&#45;&gt;Node118 -->
<g id="edge29" class="edge"><title>Node124&#45;&gt;Node118</title>
<path fill="none" stroke="midnightblue" d="M640.125,-248.645C656.407,-242.16 676.256,-232.882 692,-221.286 711.258,-207.102 707.7,-193.934 728,-181.286 731.366,-179.189 734.958,-177.306 738.67,-175.616"/>
<polygon fill="midnightblue" stroke="midnightblue" points="740.132,-178.8 748.086,-171.801 737.504,-172.312 740.132,-178.8"/>
</g>
<!-- Node124&#45;&gt;Node119 -->
<g id="edge30" class="edge"><title>Node124&#45;&gt;Node119</title>
<path fill="none" stroke="midnightblue" d="M643.726,-248.783C674.805,-239.245 720.812,-225.127 754.59,-214.761"/>
<polygon fill="midnightblue" stroke="midnightblue" points="755.676,-218.089 764.209,-211.809 753.623,-211.397 755.676,-218.089"/>
</g>
<!-- Node124&#45;&gt;Node121 -->
<g id="edge28" class="edge"><title>Node124&#45;&gt;Node121</title>
<path fill="none" stroke="midnightblue" d="M619.132,-269.989C649.527,-303.761 743.66,-408.353 781.999,-450.951"/>
<polygon fill="midnightblue" stroke="midnightblue" points="779.596,-453.513 788.887,-458.605 784.799,-448.831 779.596,-453.513"/>
</g>
<!-- Node125&#45;&gt;Node126 -->
<g id="edge33" class="edge"><title>Node125&#45;&gt;Node126</title>
<path fill="none" stroke="midnightblue" d="M477.108,-630.638C545.021,-635.212 651.752,-642.402 723.377,-647.226"/>
<polygon fill="midnightblue" stroke="midnightblue" points="723.469,-650.74 733.681,-647.92 723.939,-643.756 723.469,-650.74"/>
</g>
<!-- Node125&#45;&gt;Node128 -->
<g id="edge36" class="edge"><title>Node125&#45;&gt;Node128</title>
<path fill="none" stroke="midnightblue" d="M450.947,-609.209C472.526,-599.882 500.05,-588.408 525,-579.286 530.201,-577.385 535.615,-575.491 541.074,-573.644"/>
<polygon fill="midnightblue" stroke="midnightblue" points="542.524,-576.85 550.91,-570.375 540.316,-570.207 542.524,-576.85"/>
</g>
<!-- Node129 -->
<g id="node22" class="node"><title>Node129</title>
<g id="a_node22"><a xlink:href="namespacempi__utilities.html#a74e2e82b561f403ca8087c3925f76e29" target="_top" xlink:title="mpi_utilities::wl_empty">
<polygon fill="white" stroke="black" points="531,-734.786 531,-755.786 686,-755.786 686,-734.786 531,-734.786"/>
<text text-anchor="middle" x="608.5" y="-742.186" font-family="Ubuntu Mono" font-size="12.00">mpi_utilities::wl_empty</text>
</a>
</g>
</g>
<!-- Node125&#45;&gt;Node129 -->
<g id="edge39" class="edge"><title>Node125&#45;&gt;Node129</title>
<path fill="none" stroke="midnightblue" d="M449.015,-643.451C462.489,-650.847 477.307,-660.329 489,-671.286 509.778,-690.757 501.688,-707.934 525,-724.286 528.471,-726.721 532.2,-728.874 536.086,-730.777"/>
<polygon fill="midnightblue" stroke="midnightblue" points="534.82,-734.043 545.389,-734.781 537.588,-727.613 534.82,-734.043"/>
</g>
<!-- Node130 -->
<g id="node23" class="node"><title>Node130</title>
<g id="a_node23"><a xlink:href="namespacempi__utilities.html#a5d2dbf8ffba124237c362f06c3d3ac32" target="_top" xlink:title="mpi_utilities::lock\l_notify">
<polygon fill="white" stroke="black" points="543,-681.286 543,-715.286 674,-715.286 674,-681.286 543,-681.286"/>
<text text-anchor="start" x="551" y="-701.686" font-family="Ubuntu Mono" font-size="12.00">mpi_utilities::lock</text>
<text text-anchor="middle" x="608.5" y="-688.686" font-family="Ubuntu Mono" font-size="12.00">_notify</text>
</a>
</g>
</g>
<!-- Node125&#45;&gt;Node130 -->
<g id="edge40" class="edge"><title>Node125&#45;&gt;Node130</title>
<path fill="none" stroke="midnightblue" d="M458.712,-643.349C486.539,-653.623 522.156,-666.775 551.566,-677.634"/>
<polygon fill="midnightblue" stroke="midnightblue" points="550.689,-681.041 561.282,-681.221 553.113,-674.474 550.689,-681.041"/>
</g>
<!-- Node131 -->
<g id="node24" class="node"><title>Node131</title>
<g id="a_node24"><a xlink:href="namespacempi__utilities.html#a9ec02d2ade63716189369640f0da3c5f" target="_top" xlink:title="mpi_utilities::lock\l_get_notified">
<polygon fill="white" stroke="black" points="543,-589.286 543,-623.286 674,-623.286 674,-589.286 543,-589.286"/>
<text text-anchor="start" x="551" y="-609.686" font-family="Ubuntu Mono" font-size="12.00">mpi_utilities::lock</text>
<text text-anchor="middle" x="608.5" y="-596.686" font-family="Ubuntu Mono" font-size="12.00">_get_notified</text>
</a>
</g>
</g>
<!-- Node125&#45;&gt;Node131 -->
<g id="edge42" class="edge"><title>Node125&#45;&gt;Node131</title>
<path fill="none" stroke="midnightblue" d="M477.161,-619.654C494.934,-617.831 514.356,-615.839 532.651,-613.963"/>
<polygon fill="midnightblue" stroke="midnightblue" points="533.09,-617.436 542.681,-612.934 532.376,-610.473 533.09,-617.436"/>
</g>
<!-- Node126&#45;&gt;Node111 -->
<g id="edge35" class="edge"><title>Node126&#45;&gt;Node111</title>
<path fill="none" stroke="midnightblue" d="M817.152,-635.07C850.755,-600.328 926.364,-522.155 960.365,-487.001"/>
<polygon fill="midnightblue" stroke="midnightblue" points="962.893,-489.422 967.33,-479.801 957.862,-484.556 962.893,-489.422"/>
</g>
<!-- Node127 -->
<g id="node20" class="node"><title>Node127</title>
<g id="a_node20"><a xlink:href="namespacestr__utilities.html#acb8c4e66aead51f178e47fdea8d7a7db" target="_top" xlink:title="str_utilities::ii2str">
<polygon fill="white" stroke="black" points="907,-641.786 907,-662.786 1050,-662.786 1050,-641.786 907,-641.786"/>
<text text-anchor="middle" x="978.5" y="-649.186" font-family="Ubuntu Mono" font-size="12.00">str_utilities::ii2str</text>
</a>
</g>
</g>
<!-- Node126&#45;&gt;Node127 -->
<g id="edge34" class="edge"><title>Node126&#45;&gt;Node127</title>
<path fill="none" stroke="midnightblue" d="M865.152,-652.286C875.405,-652.286 886.119,-652.286 896.686,-652.286"/>
<polygon fill="midnightblue" stroke="midnightblue" points="896.753,-655.786 906.752,-652.286 896.752,-648.786 896.753,-655.786"/>
</g>
<!-- Node128&#45;&gt;Node121 -->
<g id="edge38" class="edge"><title>Node128&#45;&gt;Node121</title>
<path fill="none" stroke="midnightblue" d="M648.203,-536.085C682.803,-520.707 732.949,-498.42 765.64,-483.891"/>
<polygon fill="midnightblue" stroke="midnightblue" points="767.062,-487.089 774.778,-479.829 764.219,-480.692 767.062,-487.089"/>
</g>
<!-- Node128&#45;&gt;Node126 -->
<g id="edge37" class="edge"><title>Node128&#45;&gt;Node126</title>
<path fill="none" stroke="midnightblue" d="M670.674,-570.313C677.988,-573.004 685.249,-575.999 692,-579.286 719.988,-592.913 748.949,-613.236 769.593,-628.981"/>
<polygon fill="midnightblue" stroke="midnightblue" points="767.577,-631.847 777.628,-635.199 771.861,-626.311 767.577,-631.847"/>
</g>
<!-- Node130&#45;&gt;Node126 -->
<g id="edge41" class="edge"><title>Node130&#45;&gt;Node126</title>
<path fill="none" stroke="midnightblue" d="M674.014,-682.584C690.043,-678.683 707.356,-674.469 723.828,-670.46"/>
<polygon fill="midnightblue" stroke="midnightblue" points="725.067,-673.761 733.956,-667.995 723.412,-666.96 725.067,-673.761"/>
</g>
<!-- Node131&#45;&gt;Node126 -->
<g id="edge43" class="edge"><title>Node131&#45;&gt;Node126</title>
<path fill="none" stroke="midnightblue" d="M674.014,-621.988C690.043,-625.889 707.356,-630.103 723.828,-634.112"/>
<polygon fill="midnightblue" stroke="midnightblue" points="723.412,-637.613 733.956,-636.577 725.067,-630.811 723.412,-637.613"/>
</g>
<!-- Node132&#45;&gt;Node126 -->
<g id="edge45" class="edge"><title>Node132&#45;&gt;Node126</title>
<path fill="none" stroke="midnightblue" d="M433.301,-715.414C454.753,-731.876 489.932,-755.635 525,-765.286 596.561,-784.981 623.856,-794.702 692,-765.286 732.916,-747.624 765.399,-705.652 783.278,-678.132"/>
<polygon fill="midnightblue" stroke="midnightblue" points="786.404,-679.735 788.773,-669.409 780.481,-676.004 786.404,-679.735"/>
</g>
<!-- Node132&#45;&gt;Node128 -->
<g id="edge46" class="edge"><title>Node132&#45;&gt;Node128</title>
<path fill="none" stroke="midnightblue" d="M450.232,-681.221C463.698,-673.774 478.192,-664.033 489,-652.286 513.493,-625.664 497.542,-602.838 525,-579.286 527.704,-576.967 530.614,-574.855 533.671,-572.93"/>
<polygon fill="midnightblue" stroke="midnightblue" points="535.556,-575.888 542.619,-567.99 532.173,-569.759 535.556,-575.888"/>
</g>
<!-- Node132&#45;&gt;Node129 -->
<g id="edge47" class="edge"><title>Node132&#45;&gt;Node129</title>
<path fill="none" stroke="midnightblue" d="M477.161,-713.871C502.092,-719.88 530.266,-726.671 554.025,-732.397"/>
<polygon fill="midnightblue" stroke="midnightblue" points="553.373,-735.84 563.915,-734.781 555.014,-729.035 553.373,-735.84"/>
</g>
<!-- Node132&#45;&gt;Node130 -->
<g id="edge48" class="edge"><title>Node132&#45;&gt;Node130</title>
<path fill="none" stroke="midnightblue" d="M477.161,-698.286C494.934,-698.286 514.356,-698.286 532.651,-698.286"/>
<polygon fill="midnightblue" stroke="midnightblue" points="532.681,-701.786 542.681,-698.286 532.681,-694.786 532.681,-701.786"/>
</g>
<!-- Node133&#45;&gt;Node111 -->
<g id="edge58" class="edge"><title>Node133&#45;&gt;Node111</title>
<path fill="none" stroke="midnightblue" d="M450.382,-322.27C504.461,-331.174 606.692,-349.352 692,-372.286 782.9,-396.723 886.955,-434.686 940.841,-455.118"/>
<polygon fill="midnightblue" stroke="midnightblue" points="939.713,-458.434 950.304,-458.722 942.205,-451.892 939.713,-458.434"/>
</g>
<!-- Node133&#45;&gt;Node112 -->
<g id="edge54" class="edge"><title>Node133&#45;&gt;Node112</title>
<path fill="none" stroke="midnightblue" d="M450.005,-326.004C462.725,-329.958 476.796,-335.077 489,-341.286 506.59,-350.236 507.314,-358.527 525,-367.286 533.851,-371.67 543.622,-375.455 553.251,-378.659"/>
<polygon fill="midnightblue" stroke="midnightblue" points="552.202,-381.998 562.792,-381.669 554.308,-375.322 552.202,-381.998"/>
</g>
<!-- Node133&#45;&gt;Node113 -->
<g id="edge53" class="edge"><title>Node133&#45;&gt;Node113</title>
<path fill="none" stroke="midnightblue" d="M450.121,-314.099C529.443,-308.72 719.041,-291.806 871,-246.286 897.512,-238.344 926.361,-225.903 947.337,-216.113"/>
<polygon fill="midnightblue" stroke="midnightblue" points="948.846,-219.272 956.385,-211.828 945.849,-212.946 948.846,-219.272"/>
</g>
<!-- Node133&#45;&gt;Node117 -->
<g id="edge55" class="edge"><title>Node133&#45;&gt;Node117</title>
<path fill="none" stroke="midnightblue" d="M426.215,-305.774C446.928,-290.161 487.737,-260.42 525,-239.286 540.078,-230.735 557.418,-222.521 572.297,-215.931"/>
<polygon fill="midnightblue" stroke="midnightblue" points="573.901,-219.051 581.671,-211.848 571.106,-212.633 573.901,-219.051"/>
</g>
<!-- Node133&#45;&gt;Node122 -->
<g id="edge57" class="edge"><title>Node133&#45;&gt;Node122</title>
<path fill="none" stroke="midnightblue" d="M420.041,-305.597C440.632,-276.697 498.066,-198.058 525,-181.286 528.352,-179.199 531.907,-177.329 535.585,-175.654"/>
<polygon fill="midnightblue" stroke="midnightblue" points="536.971,-178.869 544.935,-171.881 534.351,-172.378 536.971,-178.869"/>
</g>
<!-- Node133&#45;&gt;Node124 -->
<g id="edge56" class="edge"><title>Node133&#45;&gt;Node124</title>
<path fill="none" stroke="midnightblue" d="M448.721,-305.698C480.599,-296.38 527.175,-282.766 561.645,-272.69"/>
<polygon fill="midnightblue" stroke="midnightblue" points="562.857,-275.982 571.473,-269.817 560.893,-269.263 562.857,-275.982"/>
</g>
</g>
</svg>
