<?xml version="1.0" encoding="UTF-8" standalone="no"?>
<!DOCTYPE svg PUBLIC "-//W3C//DTD SVG 1.1//EN"
 "http://www.w3.org/Graphics/SVG/1.1/DTD/svg11.dtd">
<!-- Generated by graphviz version 2.38.0 (20140413.2041)
 -->
<!-- Title: input_ops::read_input_opts Pages: 1 -->
<svg width="1273pt" height="490pt"
 viewBox="0.00 0.00 1273.00 490.00" xmlns="http://www.w3.org/2000/svg" xmlns:xlink="http://www.w3.org/1999/xlink">
<g id="graph0" class="graph" transform="scale(1 1) rotate(0) translate(4 486)">
<title>input_ops::read_input_opts</title>
<polygon fill="white" stroke="none" points="-4,4 -4,-486 1269,-486 1269,4 -4,4"/>
<!-- Node44 -->
<g id="node1" class="node"><title>Node44</title>
<polygon fill="#bfbfbf" stroke="black" points="0,-98.5 0,-119.5 173,-119.5 173,-98.5 0,-98.5"/>
<text text-anchor="middle" x="86.5" y="-105.9" font-family="Ubuntu Mono" font-size="12.00">input_ops::read_input_opts</text>
</g>
<!-- Node45 -->
<g id="node2" class="node"><title>Node45</title>
<g id="a_node2"><a xlink:href="namespacerich__ops.html#a58e1bed1bed5c2d0b91cc7dc5e3099d9" target="_top" xlink:title="Probe to find out which Richardson levels are available. ">
<polygon fill="white" stroke="black" points="215,-269 215,-303 340,-303 340,-269 215,-269"/>
<text text-anchor="start" x="223" y="-289.4" font-family="Ubuntu Mono" font-size="12.00">rich_ops::find_max</text>
<text text-anchor="middle" x="277.5" y="-276.4" font-family="Ubuntu Mono" font-size="12.00">_rich_lvl</text>
</a>
</g>
</g>
<!-- Node44&#45;&gt;Node45 -->
<g id="edge1" class="edge"><title>Node44&#45;&gt;Node45</title>
<path fill="none" stroke="midnightblue" d="M98.7568,-119.542C128.383,-147.287 209.098,-222.878 250.798,-261.93"/>
<polygon fill="midnightblue" stroke="midnightblue" points="248.418,-264.496 258.109,-268.777 253.203,-259.387 248.418,-264.496"/>
</g>
<!-- Node50 -->
<g id="node7" class="node"><title>Node50</title>
<g id="a_node7"><a xlink:href="namespacestr__utilities.html#a0b97e51770725a3e98ed393d26681414" target="_top" xlink:title="Convert an integer to string. ">
<polygon fill="white" stroke="black" points="1125,-433.5 1125,-454.5 1262,-454.5 1262,-433.5 1125,-433.5"/>
<text text-anchor="middle" x="1193.5" y="-440.9" font-family="Ubuntu Mono" font-size="12.00">str_utilities::i2str</text>
</a>
</g>
</g>
<!-- Node44&#45;&gt;Node50 -->
<g id="edge26" class="edge"><title>Node44&#45;&gt;Node50</title>
<path fill="none" stroke="midnightblue" d="M91.5816,-119.761C115.547,-180.918 244.112,-482 452.5,-482 452.5,-482 452.5,-482 830.5,-482 931.442,-482 1047.36,-467.205 1120.26,-456.078"/>
<polygon fill="midnightblue" stroke="midnightblue" points="1120.9,-459.52 1130.25,-454.535 1119.83,-452.602 1120.9,-459.52"/>
</g>
<!-- Node52 -->
<g id="node9" class="node"><title>Node52</title>
<g id="a_node9"><a xlink:href="namespacestr__utilities.html#ac778d706b2e021672618939ab58fdd32" target="_top" xlink:title="Convert a real (double) to string. ">
<polygon fill="white" stroke="black" points="943,-140.5 943,-161.5 1086,-161.5 1086,-140.5 943,-140.5"/>
<text text-anchor="middle" x="1014.5" y="-147.9" font-family="Ubuntu Mono" font-size="12.00">str_utilities::r2strt</text>
</a>
</g>
</g>
<!-- Node44&#45;&gt;Node52 -->
<g id="edge27" class="edge"><title>Node44&#45;&gt;Node52</title>
<path fill="none" stroke="midnightblue" d="M173.351,-115.994C247.276,-121.411 356.843,-128 452.5,-128 452.5,-128 452.5,-128 639.5,-128 740.618,-128 856.825,-136.479 932.518,-143.141"/>
<polygon fill="midnightblue" stroke="midnightblue" points="932.653,-146.667 942.924,-144.068 933.274,-139.695 932.653,-146.667"/>
</g>
<!-- Node57 -->
<g id="node14" class="node"><title>Node57</title>
<g id="a_node14"><a xlink:href="namespacemessages.html#aa4a8d01563e92558e8a0875b075ec54c" target="_top" xlink:title="Write output to file identified by output_i. ">
<polygon fill="white" stroke="black" points="400,-50.5 400,-71.5 507,-71.5 507,-50.5 400,-50.5"/>
<text text-anchor="middle" x="453.5" y="-57.9" font-family="Ubuntu Mono" font-size="12.00">messages::writo</text>
</a>
</g>
</g>
<!-- Node44&#45;&gt;Node57 -->
<g id="edge21" class="edge"><title>Node44&#45;&gt;Node57</title>
<path fill="none" stroke="midnightblue" d="M167.601,-98.4662C234.492,-89.6696 328.519,-77.3044 389.967,-69.2235"/>
<polygon fill="midnightblue" stroke="midnightblue" points="390.458,-72.6891 399.917,-67.9151 389.546,-65.7489 390.458,-72.6891"/>
</g>
<!-- Node60 -->
<g id="node17" class="node"><title>Node60</title>
<g id="a_node17"><a xlink:href="namespacemessages.html#a6e6bfb084063e4cc91ee86e542043302" target="_top" xlink:title="Increases/decreases lvl of output. ">
<polygon fill="white" stroke="black" points="221,-40.5 221,-61.5 334,-61.5 334,-40.5 221,-40.5"/>
<text text-anchor="middle" x="277.5" y="-47.9" font-family="Ubuntu Mono" font-size="12.00">messages::lvl_ud</text>
</a>
</g>
</g>
<!-- Node44&#45;&gt;Node60 -->
<g id="edge24" class="edge"><title>Node44&#45;&gt;Node60</title>
<path fill="none" stroke="midnightblue" d="M121.726,-98.4966C152.805,-88.9592 198.812,-74.8408 232.59,-64.475"/>
<polygon fill="midnightblue" stroke="midnightblue" points="233.676,-67.8029 242.209,-61.5231 231.623,-61.1109 233.676,-67.8029"/>
</g>
<!-- Node61 -->
<g id="node18" class="node"><title>Node61</title>
<g id="a_node18"><a xlink:href="namespacestr__utilities.html#a92ac6c0af1979df094de1caddd28ade0" target="_top" xlink:title="Convert a real (double) to string. ">
<polygon fill="white" stroke="black" points="209,-0.5 209,-21.5 346,-21.5 346,-0.5 209,-0.5"/>
<text text-anchor="middle" x="277.5" y="-7.9" font-family="Ubuntu Mono" font-size="12.00">str_utilities::r2str</text>
</a>
</g>
</g>
<!-- Node44&#45;&gt;Node61 -->
<g id="edge28" class="edge"><title>Node44&#45;&gt;Node61</title>
<path fill="none" stroke="midnightblue" d="M101.33,-98.2482C123.127,-81.7493 167.293,-50.0968 209,-31 213.931,-28.7421 219.181,-26.666 224.491,-24.7765"/>
<polygon fill="midnightblue" stroke="midnightblue" points="225.683,-28.0684 234.058,-21.5782 223.464,-21.4296 225.683,-28.0684"/>
</g>
<!-- Node46 -->
<g id="node3" class="node"><title>Node46</title>
<g id="a_node3"><a xlink:href="namespacehdf5__utilities.html#ae4e6c96512460a0ede8dc5b1a43681e8" target="_top" xlink:title="Probe HDF5 file for group existence. ">
<polygon fill="white" stroke="black" points="382,-269 382,-303 525,-303 525,-269 382,-269"/>
<text text-anchor="start" x="390" y="-289.4" font-family="Ubuntu Mono" font-size="12.00">hdf5_utilities::probe</text>
<text text-anchor="middle" x="453.5" y="-276.4" font-family="Ubuntu Mono" font-size="12.00">_hdf5_group</text>
</a>
</g>
</g>
<!-- Node45&#45;&gt;Node46 -->
<g id="edge2" class="edge"><title>Node45&#45;&gt;Node46</title>
<path fill="none" stroke="midnightblue" d="M340.336,-286C350.551,-286 361.273,-286 371.868,-286"/>
<polygon fill="midnightblue" stroke="midnightblue" points="371.967,-289.5 381.967,-286 371.967,-282.5 371.967,-289.5"/>
</g>
<!-- Node45&#45;&gt;Node50 -->
<g id="edge20" class="edge"><title>Node45&#45;&gt;Node50</title>
<path fill="none" stroke="midnightblue" d="M300.119,-303.21C353.81,-344.16 498.925,-444 637.5,-444 637.5,-444 637.5,-444 830.5,-444 928.489,-444 1041.4,-444 1114.71,-444"/>
<polygon fill="midnightblue" stroke="midnightblue" points="1114.78,-447.5 1124.78,-444 1114.78,-440.5 1114.78,-447.5"/>
</g>
<!-- Node47 -->
<g id="node4" class="node"><title>Node47</title>
<g id="a_node4"><a xlink:href="namespacempi__utilities.html#a5a789d05be41d6109c01f46cc98620c8" target="_top" xlink:title="Request access to lock of a BL (blocking) or optionally a NB (non&#45;blocking) type. ...">
<polygon fill="white" stroke="black" points="573,-296 573,-330 704,-330 704,-296 573,-296"/>
<text text-anchor="start" x="581" y="-316.4" font-family="Ubuntu Mono" font-size="12.00">mpi_utilities::lock</text>
<text text-anchor="middle" x="638.5" y="-303.4" font-family="Ubuntu Mono" font-size="12.00">_req_acc</text>
</a>
</g>
</g>
<!-- Node46&#45;&gt;Node47 -->
<g id="edge3" class="edge"><title>Node46&#45;&gt;Node47</title>
<path fill="none" stroke="midnightblue" d="M525.253,-296.439C537.633,-298.266 550.549,-300.171 563.026,-302.012"/>
<polygon fill="midnightblue" stroke="midnightblue" points="562.517,-305.475 572.921,-303.472 563.539,-298.55 562.517,-305.475"/>
</g>
<!-- Node56 -->
<g id="node13" class="node"><title>Node56</title>
<g id="a_node13"><a xlink:href="namespacempi__utilities.html#a86f9982a0f92b51a916f832d9a3d8ba9" target="_top" xlink:title="Returns access to a lock. ">
<polygon fill="white" stroke="black" points="573,-243 573,-277 704,-277 704,-243 573,-243"/>
<text text-anchor="start" x="581" y="-263.4" font-family="Ubuntu Mono" font-size="12.00">mpi_utilities::lock</text>
<text text-anchor="middle" x="638.5" y="-250.4" font-family="Ubuntu Mono" font-size="12.00">_return_acc</text>
</a>
</g>
</g>
<!-- Node46&#45;&gt;Node56 -->
<g id="edge15" class="edge"><title>Node46&#45;&gt;Node56</title>
<path fill="none" stroke="midnightblue" d="M525.253,-275.948C537.511,-274.206 550.293,-272.39 562.656,-270.634"/>
<polygon fill="midnightblue" stroke="midnightblue" points="563.512,-274.047 572.921,-269.175 562.528,-267.117 563.512,-274.047"/>
</g>
<!-- Node48 -->
<g id="node5" class="node"><title>Node48</title>
<g id="a_node5"><a xlink:href="namespacempi__utilities.html#abe5bf3ae3b6a06eda18c2f4d62ac09c5" target="_top" xlink:title="Returns the header for lock debug messages. ">
<polygon fill="white" stroke="black" points="949,-292 949,-326 1080,-326 1080,-292 949,-292"/>
<text text-anchor="start" x="957" y="-312.4" font-family="Ubuntu Mono" font-size="12.00">mpi_utilities::lock</text>
<text text-anchor="middle" x="1014.5" y="-299.4" font-family="Ubuntu Mono" font-size="12.00">_header</text>
</a>
</g>
</g>
<!-- Node47&#45;&gt;Node48 -->
<g id="edge4" class="edge"><title>Node47&#45;&gt;Node48</title>
<path fill="none" stroke="midnightblue" d="M704.084,-326.487C719.7,-329.191 736.389,-331.623 752,-333 820.623,-339.052 838.534,-340.619 907,-333 917.349,-331.848 928.162,-330.086 938.762,-328.027"/>
<polygon fill="midnightblue" stroke="midnightblue" points="939.738,-331.4 948.838,-325.973 938.34,-324.541 939.738,-331.4"/>
</g>
<!-- Node51 -->
<g id="node8" class="node"><title>Node51</title>
<g id="a_node8"><a xlink:href="namespacempi__utilities.html#a3b0349e5ec825e14083e3126c3e7ba65" target="_top" xlink:title="Adds, removes or sets to active a rank from the waiting list for a lock and returns the lock waiting ...">
<polygon fill="white" stroke="black" points="764,-157 764,-191 895,-191 895,-157 764,-157"/>
<text text-anchor="start" x="772" y="-177.4" font-family="Ubuntu Mono" font-size="12.00">mpi_utilities::lock</text>
<text text-anchor="middle" x="829.5" y="-164.4" font-family="Ubuntu Mono" font-size="12.00">_wl_change</text>
</a>
</g>
</g>
<!-- Node47&#45;&gt;Node51 -->
<g id="edge7" class="edge"><title>Node47&#45;&gt;Node51</title>
<path fill="none" stroke="midnightblue" d="M700.854,-295.882C706.189,-293.299 711.327,-290.353 716,-287 737.379,-271.66 733.944,-259.139 752,-240 766.32,-224.821 783.852,-209.496 798.518,-197.439"/>
<polygon fill="midnightblue" stroke="midnightblue" points="800.772,-200.117 806.332,-191.099 796.361,-194.682 800.772,-200.117"/>
</g>
<!-- Node53 -->
<g id="node10" class="node"><title>Node53</title>
<g id="a_node10"><a xlink:href="namespacempi__utilities.html#a74e2e82b561f403ca8087c3925f76e29" target="_top" xlink:title="Decides whether a waiting list is empty. ">
<polygon fill="white" stroke="black" points="752,-302.5 752,-323.5 907,-323.5 907,-302.5 752,-302.5"/>
<text text-anchor="middle" x="829.5" y="-309.9" font-family="Ubuntu Mono" font-size="12.00">mpi_utilities::wl_empty</text>
</a>
</g>
</g>
<!-- Node47&#45;&gt;Node53 -->
<g id="edge10" class="edge"><title>Node47&#45;&gt;Node53</title>
<path fill="none" stroke="midnightblue" d="M704.014,-313C716.165,-313 729.054,-313 741.754,-313"/>
<polygon fill="midnightblue" stroke="midnightblue" points="741.882,-316.5 751.882,-313 741.882,-309.5 741.882,-316.5"/>
</g>
<!-- Node54 -->
<g id="node11" class="node"><title>Node54</title>
<g id="a_node11"><a xlink:href="namespacempi__utilities.html#a263a30c79639d97f5faffdb566b5a811" target="_top" xlink:title="Notifies a rank that they can get the lock. ">
<polygon fill="white" stroke="black" points="764,-249 764,-283 895,-283 895,-249 764,-249"/>
<text text-anchor="start" x="772" y="-269.4" font-family="Ubuntu Mono" font-size="12.00">mpi_utilities::lock</text>
<text text-anchor="middle" x="829.5" y="-256.4" font-family="Ubuntu Mono" font-size="12.00">_notify</text>
</a>
</g>
</g>
<!-- Node47&#45;&gt;Node54 -->
<g id="edge11" class="edge"><title>Node47&#45;&gt;Node54</title>
<path fill="none" stroke="midnightblue" d="M704.014,-296.957C720.043,-292.971 737.356,-288.665 753.828,-284.569"/>
<polygon fill="midnightblue" stroke="midnightblue" points="755.096,-287.861 763.956,-282.051 753.407,-281.068 755.096,-287.861"/>
</g>
<!-- Node55 -->
<g id="node12" class="node"><title>Node55</title>
<g id="a_node12"><a xlink:href="namespacempi__utilities.html#a17c39b0498528e2532c8347b0b7dec86" target="_top" xlink:title="Get notified that the rank can get the lock. ">
<polygon fill="white" stroke="black" points="764,-381 764,-415 895,-415 895,-381 764,-381"/>
<text text-anchor="start" x="772" y="-401.4" font-family="Ubuntu Mono" font-size="12.00">mpi_utilities::lock</text>
<text text-anchor="middle" x="829.5" y="-388.4" font-family="Ubuntu Mono" font-size="12.00">_get_notified</text>
</a>
</g>
</g>
<!-- Node47&#45;&gt;Node55 -->
<g id="edge13" class="edge"><title>Node47&#45;&gt;Node55</title>
<path fill="none" stroke="midnightblue" d="M674.784,-330.111C696.861,-340.696 725.957,-354.425 752,-366 760.125,-369.611 768.781,-373.342 777.241,-376.925"/>
<polygon fill="midnightblue" stroke="midnightblue" points="776.094,-380.24 786.669,-380.893 778.81,-373.788 776.094,-380.24"/>
</g>
<!-- Node49 -->
<g id="node6" class="node"><title>Node49</title>
<g id="a_node6"><a xlink:href="namespacestr__utilities.html#acb8c4e66aead51f178e47fdea8d7a7db" target="_top" xlink:title="Convert an integer to string. ">
<polygon fill="white" stroke="black" points="1122,-298.5 1122,-319.5 1265,-319.5 1265,-298.5 1122,-298.5"/>
<text text-anchor="middle" x="1193.5" y="-305.9" font-family="Ubuntu Mono" font-size="12.00">str_utilities::ii2str</text>
</a>
</g>
</g>
<!-- Node48&#45;&gt;Node49 -->
<g id="edge5" class="edge"><title>Node48&#45;&gt;Node49</title>
<path fill="none" stroke="midnightblue" d="M1080.15,-309C1090.41,-309 1101.12,-309 1111.69,-309"/>
<polygon fill="midnightblue" stroke="midnightblue" points="1111.75,-312.5 1121.75,-309 1111.75,-305.5 1111.75,-312.5"/>
</g>
<!-- Node48&#45;&gt;Node50 -->
<g id="edge6" class="edge"><title>Node48&#45;&gt;Node50</title>
<path fill="none" stroke="midnightblue" d="M1037.92,-326.098C1071.9,-352.02 1136.1,-400.982 1170.08,-426.903"/>
<polygon fill="midnightblue" stroke="midnightblue" points="1168.35,-429.986 1178.43,-433.267 1172.6,-424.42 1168.35,-429.986"/>
</g>
<!-- Node51&#45;&gt;Node48 -->
<g id="edge8" class="edge"><title>Node51&#45;&gt;Node48</title>
<path fill="none" stroke="midnightblue" d="M879.237,-191.172C888.778,-195.412 898.464,-200.378 907,-206 940.435,-228.022 972.582,-261.341 992.648,-284.079"/>
<polygon fill="midnightblue" stroke="midnightblue" points="990.022,-286.393 999.224,-291.644 995.305,-281.801 990.022,-286.393"/>
</g>
<!-- Node51&#45;&gt;Node52 -->
<g id="edge9" class="edge"><title>Node51&#45;&gt;Node52</title>
<path fill="none" stroke="midnightblue" d="M895.019,-165.891C907.199,-164.36 920.079,-162.741 932.685,-161.157"/>
<polygon fill="midnightblue" stroke="midnightblue" points="933.231,-164.616 942.717,-159.896 932.358,-157.671 933.231,-164.616"/>
</g>
<!-- Node54&#45;&gt;Node48 -->
<g id="edge12" class="edge"><title>Node54&#45;&gt;Node48</title>
<path fill="none" stroke="midnightblue" d="M895.019,-281.16C909.233,-284.5 924.4,-288.064 938.972,-291.488"/>
<polygon fill="midnightblue" stroke="midnightblue" points="938.411,-294.951 948.947,-293.832 940.013,-288.137 938.411,-294.951"/>
</g>
<!-- Node55&#45;&gt;Node48 -->
<g id="edge14" class="edge"><title>Node55&#45;&gt;Node48</title>
<path fill="none" stroke="midnightblue" d="M873.305,-380.939C884.373,-376.298 896.209,-371.131 907,-366 929.665,-355.224 954.413,-342.067 974.343,-331.11"/>
<polygon fill="midnightblue" stroke="midnightblue" points="976.08,-334.149 983.137,-326.247 972.692,-328.023 976.08,-334.149"/>
</g>
<!-- Node56&#45;&gt;Node48 -->
<g id="edge16" class="edge"><title>Node56&#45;&gt;Node48</title>
<path fill="none" stroke="midnightblue" d="M701.921,-242.963C757.004,-230.817 838.894,-219.866 907,-240 936.896,-248.838 966.281,-268.987 986.586,-285.243"/>
<polygon fill="midnightblue" stroke="midnightblue" points="984.492,-288.053 994.439,-291.701 988.938,-282.646 984.492,-288.053"/>
</g>
<!-- Node56&#45;&gt;Node51 -->
<g id="edge17" class="edge"><title>Node56&#45;&gt;Node51</title>
<path fill="none" stroke="midnightblue" d="M673.752,-242.996C695.932,-232.125 725.514,-217.887 752,-206 760.111,-202.36 768.761,-198.613 777.218,-195.024"/>
<polygon fill="midnightblue" stroke="midnightblue" points="778.788,-198.161 786.644,-191.053 776.07,-191.71 778.788,-198.161"/>
</g>
<!-- Node56&#45;&gt;Node53 -->
<g id="edge18" class="edge"><title>Node56&#45;&gt;Node53</title>
<path fill="none" stroke="midnightblue" d="M696.349,-277.031C714.138,-282.265 733.857,-287.969 752,-293 760.177,-295.268 768.865,-297.606 777.341,-299.849"/>
<polygon fill="midnightblue" stroke="midnightblue" points="776.588,-303.27 787.15,-302.429 778.369,-296.5 776.588,-303.27"/>
</g>
<!-- Node56&#45;&gt;Node54 -->
<g id="edge19" class="edge"><title>Node56&#45;&gt;Node54</title>
<path fill="none" stroke="midnightblue" d="M704.014,-262.048C720.043,-262.557 737.356,-263.107 753.828,-263.629"/>
<polygon fill="midnightblue" stroke="midnightblue" points="753.85,-267.132 763.956,-263.951 754.072,-260.135 753.85,-267.132"/>
</g>
<!-- Node58 -->
<g id="node15" class="node"><title>Node58</title>
<g id="a_node15"><a xlink:href="namespacemessages.html#a82dddaab795b78b3d39e1ff1aab2f665" target="_top" xlink:title="Returns the memory usage in kilobytes. ">
<polygon fill="white" stroke="black" points="561,-29.5 561,-50.5 716,-50.5 716,-29.5 561,-29.5"/>
<text text-anchor="middle" x="638.5" y="-36.9" font-family="Ubuntu Mono" font-size="12.00">messages::get_mem_usage</text>
</a>
</g>
</g>
<!-- Node57&#45;&gt;Node58 -->
<g id="edge22" class="edge"><title>Node57&#45;&gt;Node58</title>
<path fill="none" stroke="midnightblue" d="M507.431,-54.9259C520.982,-53.3709 535.915,-51.6573 550.685,-49.9624"/>
<polygon fill="midnightblue" stroke="midnightblue" points="551.329,-53.4115 560.865,-48.7942 550.531,-46.4572 551.329,-53.4115"/>
</g>
<!-- Node59 -->
<g id="node16" class="node"><title>Node59</title>
<g id="a_node16"><a xlink:href="namespacemessages.html#a61fd0b51b5e37d58fdc993c01792a3fd" target="_top" xlink:title="Returns the time. ">
<polygon fill="white" stroke="black" points="573,-69.5 573,-90.5 704,-90.5 704,-69.5 573,-69.5"/>
<text text-anchor="middle" x="638.5" y="-76.9" font-family="Ubuntu Mono" font-size="12.00">messages::get_clock</text>
</a>
</g>
</g>
<!-- Node57&#45;&gt;Node59 -->
<g id="edge23" class="edge"><title>Node57&#45;&gt;Node59</title>
<path fill="none" stroke="midnightblue" d="M507.431,-66.4956C524.621,-68.2803 544.034,-70.2959 562.517,-72.2148"/>
<polygon fill="midnightblue" stroke="midnightblue" points="562.361,-75.7174 572.669,-73.2689 563.084,-68.7549 562.361,-75.7174"/>
</g>
<!-- Node60&#45;&gt;Node57 -->
<g id="edge25" class="edge"><title>Node60&#45;&gt;Node57</title>
<path fill="none" stroke="midnightblue" d="M334.033,-54.1916C351.741,-55.2093 371.459,-56.3425 389.648,-57.3878"/>
<polygon fill="midnightblue" stroke="midnightblue" points="389.678,-60.8952 399.863,-57.9749 390.08,-53.9068 389.678,-60.8952"/>
</g>
</g>
</svg>
