<?xml version="1.0" encoding="UTF-8" standalone="no"?>
<!DOCTYPE svg PUBLIC "-//W3C//DTD SVG 1.1//EN"
 "http://www.w3.org/Graphics/SVG/1.1/DTD/svg11.dtd">
<!-- Generated by graphviz version 2.43.0 (0)
 -->
<!-- Title: vac_ops::calc_gh_1 Pages: 1 -->
<svg width="511pt" height="256pt"
 viewBox="0.00 0.00 511.00 255.50" xmlns="http://www.w3.org/2000/svg" xmlns:xlink="http://www.w3.org/1999/xlink">
<g id="graph0" class="graph" transform="scale(1 1) rotate(0) translate(4 251.5)">
<title>vac_ops::calc_gh_1</title>
<polygon fill="white" stroke="transparent" points="-4,4 -4,-251.5 507,-251.5 507,4 -4,4"/>
<!-- Node1 -->
<g id="node1" class="node">
<title>Node1</title>
<g id="a_node1"><a xlink:title="Calculates matrices G and H in 3&#45;D configuration.">
<polygon fill="#bfbfbf" stroke="black" points="0,-134.5 0,-155.5 131,-155.5 131,-134.5 0,-134.5"/>
<text text-anchor="middle" x="65.5" y="-141.9" font-family="Ubuntu Mono" font-size="12.00">vac_ops::calc_gh_1</text>
</a>
</g>
</g>
<!-- Node2 -->
<g id="node2" class="node">
<title>Node2</title>
<g id="a_node2"><a xlink:href="namespacevac__utilities.html#aa8859980354d180445ed0437d7f51bcd" target="_top" xlink:title="Calculate G_ij and H_ij on an interval for field line aligned configurations.">
<polygon fill="white" stroke="black" points="167,-213 167,-247 284,-247 284,-213 167,-213"/>
<text text-anchor="start" x="175" y="-233.4" font-family="Ubuntu Mono" font-size="12.00">vac_utilities::calc</text>
<text text-anchor="middle" x="225.5" y="-220.4" font-family="Ubuntu Mono" font-size="12.00">_gh_int_1</text>
</a>
</g>
</g>
<!-- Node1&#45;&gt;Node2 -->
<g id="edge1" class="edge">
<title>Node1&#45;&gt;Node2</title>
<path fill="none" stroke="midnightblue" d="M86.19,-155.59C110.51,-168.68 152.5,-191.27 183.85,-208.13"/>
<polygon fill="midnightblue" stroke="midnightblue" points="182.33,-211.29 192.8,-212.94 185.65,-205.12 182.33,-211.29"/>
</g>
<!-- Node3 -->
<g id="node3" class="node">
<title>Node3</title>
<g id="a_node3"><a xlink:href="namespacevac__vars.html#af0fd2f819434bf7adc494753df4af19c" target="_top" xlink:title="Indicates whether current process is in the context.">
<polygon fill="white" stroke="black" points="342.5,-146.5 342.5,-167.5 480.5,-167.5 480.5,-146.5 342.5,-146.5"/>
<text text-anchor="middle" x="411.5" y="-153.9" font-family="Ubuntu Mono" font-size="12.00">vac_vars::in_context</text>
</a>
</g>
</g>
<!-- Node1&#45;&gt;Node3 -->
<g id="edge2" class="edge">
<title>Node1&#45;&gt;Node3</title>
<path fill="none" stroke="midnightblue" d="M109.75,-155.54C127.39,-159.33 148.06,-163.13 167,-165 222.12,-170.43 284.55,-168.21 332.4,-164.75"/>
<polygon fill="midnightblue" stroke="midnightblue" points="332.67,-168.24 342.38,-164 332.15,-161.26 332.67,-168.24"/>
</g>
<!-- Node4 -->
<g id="node4" class="node">
<title>Node4</title>
<g id="a_node4"><a xlink:href="vac__ops_8f90.html#a3d8bbdba782171b063ad415370c8be48" target="_top" xlink:title=" ">
<polygon fill="white" stroke="black" points="180.5,-134.5 180.5,-155.5 270.5,-155.5 270.5,-134.5 180.5,-134.5"/>
<text text-anchor="middle" x="225.5" y="-141.9" font-family="Ubuntu Mono" font-size="12.00">on_field_line</text>
</a>
</g>
</g>
<!-- Node1&#45;&gt;Node4 -->
<g id="edge3" class="edge">
<title>Node1&#45;&gt;Node4</title>
<path fill="none" stroke="midnightblue" d="M131.22,-145C144.14,-145 157.58,-145 170.11,-145"/>
<polygon fill="midnightblue" stroke="midnightblue" points="170.38,-148.5 180.38,-145 170.38,-141.5 170.38,-148.5"/>
</g>
<!-- Node5 -->
<g id="node5" class="node">
<title>Node5</title>
<g id="a_node5"><a xlink:href="namespacevac__utilities.html#a05e8e1f24569b4bff05e61a867268fc3" target="_top" xlink:title="Gathers a distributed vector on a single process.">
<polygon fill="white" stroke="black" points="168.5,-81 168.5,-115 282.5,-115 282.5,-81 168.5,-81"/>
<text text-anchor="start" x="176.5" y="-101.4" font-family="Ubuntu Mono" font-size="12.00">vac_utilities::vec</text>
<text text-anchor="middle" x="225.5" y="-88.4" font-family="Ubuntu Mono" font-size="12.00">_dis2loc</text>
</a>
</g>
</g>
<!-- Node1&#45;&gt;Node5 -->
<g id="edge4" class="edge">
<title>Node1&#45;&gt;Node5</title>
<path fill="none" stroke="midnightblue" d="M101.96,-134.45C118.69,-129.47 139.22,-123.37 158.65,-117.59"/>
<polygon fill="midnightblue" stroke="midnightblue" points="159.8,-120.9 168.38,-114.69 157.8,-114.19 159.8,-120.9"/>
</g>
<!-- Node6 -->
<g id="node6" class="node">
<title>Node6</title>
<g id="a_node6"><a xlink:href="namespacemessages.html#aa4a8d01563e92558e8a0875b075ec54c" target="_top" xlink:title="Write output to file identified by output_i.">
<polygon fill="white" stroke="black" points="168.5,-40.5 168.5,-61.5 282.5,-61.5 282.5,-40.5 168.5,-40.5"/>
<text text-anchor="middle" x="225.5" y="-47.9" font-family="Ubuntu Mono" font-size="12.00">messages::writo</text>
</a>
</g>
</g>
<!-- Node1&#45;&gt;Node6 -->
<g id="edge6" class="edge">
<title>Node1&#45;&gt;Node6</title>
<path fill="none" stroke="midnightblue" d="M78.75,-134.34C96.97,-118.92 132.74,-90.24 167,-72 171.52,-69.6 176.37,-67.35 181.27,-65.3"/>
<polygon fill="midnightblue" stroke="midnightblue" points="182.66,-68.51 190.68,-61.58 180.09,-62 182.66,-68.51"/>
</g>
<!-- Node5&#45;&gt;Node3 -->
<g id="edge5" class="edge">
<title>Node5&#45;&gt;Node3</title>
<path fill="none" stroke="midnightblue" d="M279.72,-115.07C307.77,-124.06 341.7,-134.94 367.97,-143.36"/>
<polygon fill="midnightblue" stroke="midnightblue" points="367.04,-146.74 377.63,-146.46 369.18,-140.08 367.04,-146.74"/>
</g>
<!-- Node7 -->
<g id="node7" class="node">
<title>Node7</title>
<g id="a_node7"><a xlink:href="namespacemessages.html#a61fd0b51b5e37d58fdc993c01792a3fd" target="_top" xlink:title="Returns the time.">
<polygon fill="white" stroke="black" points="341.5,-80.5 341.5,-101.5 481.5,-101.5 481.5,-80.5 341.5,-80.5"/>
<text text-anchor="middle" x="411.5" y="-87.9" font-family="Ubuntu Mono" font-size="12.00">messages::get_clock</text>
</a>
</g>
</g>
<!-- Node6&#45;&gt;Node7 -->
<g id="edge7" class="edge">
<title>Node6&#45;&gt;Node7</title>
<path fill="none" stroke="midnightblue" d="M274.84,-61.51C298.52,-66.66 327.22,-72.9 352.11,-78.31"/>
<polygon fill="midnightblue" stroke="midnightblue" points="351.64,-81.79 362.16,-80.49 353.13,-74.95 351.64,-81.79"/>
</g>
<!-- Node8 -->
<g id="node8" class="node">
<title>Node8</title>
<g id="a_node8"><a xlink:href="namespacemessages.html#a82dddaab795b78b3d39e1ff1aab2f665" target="_top" xlink:title="Returns the memory usage in kilobytes.">
<polygon fill="white" stroke="black" points="320,-40.5 320,-61.5 503,-61.5 503,-40.5 320,-40.5"/>
<text text-anchor="middle" x="411.5" y="-47.9" font-family="Ubuntu Mono" font-size="12.00">messages::get_mem_usage</text>
</a>
</g>
</g>
<!-- Node6&#45;&gt;Node8 -->
<g id="edge8" class="edge">
<title>Node6&#45;&gt;Node8</title>
<path fill="none" stroke="midnightblue" d="M282.71,-51C291.32,-51 300.43,-51 309.66,-51"/>
<polygon fill="midnightblue" stroke="midnightblue" points="309.71,-54.5 319.71,-51 309.71,-47.5 309.71,-54.5"/>
</g>
<!-- Node9 -->
<g id="node9" class="node">
<title>Node9</title>
<g id="a_node9"><a xlink:href="namespacestr__utilities.html#a0b97e51770725a3e98ed393d26681414" target="_top" xlink:title="Convert an integer to string.">
<polygon fill="white" stroke="black" points="354.5,-0.5 354.5,-21.5 468.5,-21.5 468.5,-0.5 354.5,-0.5"/>
<text text-anchor="middle" x="411.5" y="-7.9" font-family="Ubuntu Mono" font-size="12.00">str_utilities::i2str</text>
</a>
</g>
</g>
<!-- Node6&#45;&gt;Node9 -->
<g id="edge9" class="edge">
<title>Node6&#45;&gt;Node9</title>
<path fill="none" stroke="midnightblue" d="M274.84,-40.49C298.52,-35.34 327.22,-29.1 352.11,-23.69"/>
<polygon fill="midnightblue" stroke="midnightblue" points="353.13,-27.05 362.16,-21.51 351.64,-20.21 353.13,-27.05"/>
</g>
</g>
</svg>
