<?xml version="1.0" encoding="UTF-8" standalone="no"?>
<!DOCTYPE svg PUBLIC "-//W3C//DTD SVG 1.1//EN"
 "http://www.w3.org/Graphics/SVG/1.1/DTD/svg11.dtd">
<!-- Generated by graphviz version 2.43.0 (0)
 -->
<!-- Title: vac_vars::in_context Pages: 1 -->
<svg width="1159pt" height="374pt"
 viewBox="0.00 0.00 1159.00 373.50" xmlns="http://www.w3.org/2000/svg" xmlns:xlink="http://www.w3.org/1999/xlink">
<g id="graph0" class="graph" transform="scale(1 1) rotate(0) translate(4 369.5)">
<title>vac_vars::in_context</title>
<polygon fill="white" stroke="transparent" points="-4,4 -4,-369.5 1155,-369.5 1155,4 -4,4"/>
<!-- Node1 -->
<g id="node1" class="node">
<title>Node1</title>
<g id="a_node1"><a xlink:title="Indicates whether current process is in the context.">
<polygon fill="#bfbfbf" stroke="black" points="1013,-138.5 1013,-159.5 1151,-159.5 1151,-138.5 1013,-138.5"/>
<text text-anchor="middle" x="1082" y="-145.9" font-family="Ubuntu Mono" font-size="12.00">vac_vars::in_context</text>
</a>
</g>
</g>
<!-- Node2 -->
<g id="node2" class="node">
<title>Node2</title>
<g id="a_node2"><a xlink:href="namespacevac__ops.html#a7e3f92fbe9fa6cf3de6ac301676b96d1" target="_top" xlink:title="Calculate the matrices G and H.">
<polygon fill="white" stroke="black" points="489.5,-171.5 489.5,-192.5 606.5,-192.5 606.5,-171.5 489.5,-171.5"/>
<text text-anchor="middle" x="548" y="-178.9" font-family="Ubuntu Mono" font-size="12.00">vac_ops::calc_gh</text>
</a>
</g>
</g>
<!-- Node1&#45;&gt;Node2 -->
<g id="edge1" class="edge">
<title>Node1&#45;&gt;Node2</title>
<path fill="none" stroke="midnightblue" d="M1056.28,-164.81C1035.92,-176.85 1005.8,-192.44 977,-199 843.77,-229.36 681.29,-207.38 600.19,-192.55"/>
<polygon fill="midnightblue" stroke="midnightblue" points="1058.18,-167.75 1064.92,-159.57 1054.55,-161.77 1058.18,-167.75"/>
</g>
<!-- Node3 -->
<g id="node3" class="node">
<title>Node3</title>
<g id="a_node3"><a xlink:href="namespacevac__ops.html#a5e5a8322b3aa2e3704b1050426f06d9d" target="_top" xlink:title="Calculates the vacuum response.">
<polygon fill="white" stroke="black" points="285,-248.5 285,-269.5 432,-269.5 432,-248.5 285,-248.5"/>
<text text-anchor="middle" x="358.5" y="-255.9" font-family="Ubuntu Mono" font-size="12.00">vac_ops::calc_vac_res</text>
</a>
</g>
</g>
<!-- Node1&#45;&gt;Node3 -->
<g id="edge10" class="edge">
<title>Node1&#45;&gt;Node3</title>
<path fill="none" stroke="midnightblue" d="M1069.05,-168.2C1052.03,-193.68 1018.27,-237.92 977,-259 777.95,-360.68 493.52,-296.73 394.83,-269.5"/>
<polygon fill="midnightblue" stroke="midnightblue" points="1072.03,-170.03 1074.54,-159.74 1066.16,-166.22 1072.03,-170.03"/>
</g>
<!-- Node6 -->
<g id="node6" class="node">
<title>Node6</title>
<g id="a_node6"><a xlink:href="namespacevac__ops.html#a3a2a3aed45951aecef42197b82a5a6da" target="_top" xlink:title="Calculate vacuum potential at some positions that are not resonant.">
<polygon fill="white" stroke="black" points="285,-151.5 285,-172.5 432,-172.5 432,-151.5 285,-151.5"/>
<text text-anchor="middle" x="358.5" y="-158.9" font-family="Ubuntu Mono" font-size="12.00">vac_ops::vac_pot_plot</text>
</a>
</g>
</g>
<!-- Node1&#45;&gt;Node6 -->
<g id="edge23" class="edge">
<title>Node1&#45;&gt;Node6</title>
<path fill="none" stroke="midnightblue" d="M1051.92,-133.89C1031.55,-124.15 1003.36,-112.35 977,-107 755.2,-62 688.75,-72.08 468,-122 437.65,-128.86 404.28,-142.08 382.67,-151.44"/>
<polygon fill="midnightblue" stroke="midnightblue" points="1050.46,-137.07 1060.98,-138.32 1053.54,-130.78 1050.46,-137.07"/>
</g>
<!-- Node9 -->
<g id="node9" class="node">
<title>Node9</title>
<g id="a_node9"><a xlink:href="namespacevac__ops.html#a267742c3c9a1b395aee76527d1e8352c" target="_top" xlink:title="Calculates matrices G and H in 3&#45;D configuration.">
<polygon fill="white" stroke="black" points="664,-122.5 664,-143.5 795,-143.5 795,-122.5 664,-122.5"/>
<text text-anchor="middle" x="729.5" y="-129.9" font-family="Ubuntu Mono" font-size="12.00">vac_ops::calc_gh_1</text>
</a>
</g>
</g>
<!-- Node1&#45;&gt;Node9 -->
<g id="edge8" class="edge">
<title>Node1&#45;&gt;Node9</title>
<path fill="none" stroke="midnightblue" d="M1002.39,-145.41C939.94,-142.56 853.68,-138.62 795.19,-135.95"/>
<polygon fill="midnightblue" stroke="midnightblue" points="1002.44,-148.92 1012.59,-145.88 1002.76,-141.92 1002.44,-148.92"/>
</g>
<!-- Node10 -->
<g id="node10" class="node">
<title>Node10</title>
<g id="a_node10"><a xlink:href="namespacevac__vars.html#aa6669ed787cf96e8f8fa665149bc83a3" target="_top" xlink:title="Deallocates vacuum variables.">
<polygon fill="white" stroke="black" points="831,-0.5 831,-21.5 977,-21.5 977,-0.5 831,-0.5"/>
<text text-anchor="middle" x="904" y="-7.9" font-family="Ubuntu Mono" font-size="12.00">vac_vars::dealloc_vac</text>
</a>
</g>
</g>
<!-- Node1&#45;&gt;Node10 -->
<g id="edge11" class="edge">
<title>Node1&#45;&gt;Node10</title>
<path fill="none" stroke="midnightblue" d="M1068.21,-130.1C1050.47,-105.22 1016.12,-61.66 977,-36 967.82,-29.98 957.02,-25.23 946.62,-21.57"/>
<polygon fill="midnightblue" stroke="midnightblue" points="1065.38,-132.16 1073.97,-138.35 1071.12,-128.15 1065.38,-132.16"/>
</g>
<!-- Node11 -->
<g id="node11" class="node">
<title>Node11</title>
<g id="a_node11"><a xlink:href="namespacevac__utilities.html#ae70e8a1fc132ba79a9a4f49f4944a352" target="_top" xlink:title="Gathers a distributed vector on a single process.">
<polygon fill="white" stroke="black" points="671,-239 671,-273 788,-273 788,-239 671,-239"/>
<text text-anchor="start" x="679" y="-259.4" font-family="Ubuntu Mono" font-size="12.00">vac_utilities::mat</text>
<text text-anchor="middle" x="729.5" y="-246.4" font-family="Ubuntu Mono" font-size="12.00">_dis2loc</text>
</a>
</g>
</g>
<!-- Node1&#45;&gt;Node11 -->
<g id="edge12" class="edge">
<title>Node1&#45;&gt;Node11</title>
<path fill="none" stroke="midnightblue" d="M1064.69,-167.18C1045.76,-186.93 1012.56,-217.58 977,-232 915.94,-256.77 839.65,-260.48 788.24,-259.47"/>
<polygon fill="midnightblue" stroke="midnightblue" points="1067.4,-169.4 1071.67,-159.71 1062.29,-164.62 1067.4,-169.4"/>
</g>
<!-- Node15 -->
<g id="node15" class="node">
<title>Node15</title>
<g id="a_node15"><a xlink:href="namespacevac__ops.html#ace79efa50ae5a120e515164c99ce9582" target="_top" xlink:title="Calculates potential Phi on boundary of BEM in terms of some right&#45;hand side .">
<polygon fill="white" stroke="black" points="468,-131.5 468,-152.5 628,-152.5 628,-131.5 468,-131.5"/>
<text text-anchor="middle" x="548" y="-138.9" font-family="Ubuntu Mono" font-size="12.00">vac_ops::solve_phi_bem</text>
</a>
</g>
</g>
<!-- Node1&#45;&gt;Node15 -->
<g id="edge20" class="edge">
<title>Node1&#45;&gt;Node15</title>
<path fill="none" stroke="midnightblue" d="M1023.73,-136.48C943.23,-120.6 792.11,-97.1 664,-113 635.8,-116.5 604.59,-124.65 581.8,-131.43"/>
<polygon fill="midnightblue" stroke="midnightblue" points="1023.17,-139.94 1033.66,-138.47 1024.55,-133.07 1023.17,-139.94"/>
</g>
<!-- Node16 -->
<g id="node16" class="node">
<title>Node16</title>
<g id="a_node16"><a xlink:href="namespacevac__utilities.html#a05e8e1f24569b4bff05e61a867268fc3" target="_top" xlink:title="Gathers a distributed vector on a single process.">
<polygon fill="white" stroke="black" points="847,-155 847,-189 961,-189 961,-155 847,-155"/>
<text text-anchor="start" x="855" y="-175.4" font-family="Ubuntu Mono" font-size="12.00">vac_utilities::vec</text>
<text text-anchor="middle" x="904" y="-162.4" font-family="Ubuntu Mono" font-size="12.00">_dis2loc</text>
</a>
</g>
</g>
<!-- Node1&#45;&gt;Node16 -->
<g id="edge24" class="edge">
<title>Node1&#45;&gt;Node16</title>
<path fill="none" stroke="midnightblue" d="M1002.82,-159.22C988.79,-161.05 974.43,-162.93 961.18,-164.66"/>
<polygon fill="midnightblue" stroke="midnightblue" points="1003.49,-162.66 1012.95,-157.89 1002.58,-155.72 1003.49,-162.66"/>
</g>
<!-- Node2&#45;&gt;Node3 -->
<g id="edge2" class="edge">
<title>Node2&#45;&gt;Node3</title>
<path fill="none" stroke="midnightblue" d="M511.96,-196.39C475.12,-211.52 418.03,-234.96 385.17,-248.46"/>
<polygon fill="midnightblue" stroke="midnightblue" points="513.4,-199.58 521.32,-192.55 510.74,-193.11 513.4,-199.58"/>
</g>
<!-- Node2&#45;&gt;Node6 -->
<g id="edge5" class="edge">
<title>Node2&#45;&gt;Node6</title>
<path fill="none" stroke="midnightblue" d="M479.09,-174.76C463.85,-173.13 447.61,-171.4 432.18,-169.75"/>
<polygon fill="midnightblue" stroke="midnightblue" points="479.15,-178.28 489.47,-175.86 479.9,-171.32 479.15,-178.28"/>
</g>
<!-- Node4 -->
<g id="node4" class="node">
<title>Node4</title>
<g id="a_node4"><a xlink:href="namespacedriver__sol.html#ad3b1765b3ecc5f82129bfc683ffc6c5c" target="_top" xlink:title="Main driver of PB3D solution part.">
<polygon fill="white" stroke="black" points="83,-261.5 83,-282.5 249,-282.5 249,-261.5 83,-261.5"/>
<text text-anchor="middle" x="166" y="-268.9" font-family="Ubuntu Mono" font-size="12.00">driver_sol::run_driver_sol</text>
</a>
</g>
</g>
<!-- Node3&#45;&gt;Node4 -->
<g id="edge3" class="edge">
<title>Node3&#45;&gt;Node4</title>
<path fill="none" stroke="midnightblue" d="M274.71,-264.65C266.26,-265.23 257.68,-265.81 249.23,-266.39"/>
<polygon fill="midnightblue" stroke="midnightblue" points="275.2,-268.12 284.94,-263.95 274.72,-261.14 275.2,-268.12"/>
</g>
<!-- Node5 -->
<g id="node5" class="node">
<title>Node5</title>
<g id="a_node5"><a xlink:href="PB3D_8f90.html#afaee01f014ab3398eecac996b2795fd2" target="_top" xlink:title="Peeling Ballooning in 3D.">
<polygon fill="white" stroke="black" points="0,-281.5 0,-302.5 47,-302.5 47,-281.5 0,-281.5"/>
<text text-anchor="middle" x="23.5" y="-288.9" font-family="Ubuntu Mono" font-size="12.00">pb3d</text>
</a>
</g>
</g>
<!-- Node4&#45;&gt;Node5 -->
<g id="edge4" class="edge">
<title>Node4&#45;&gt;Node5</title>
<path fill="none" stroke="midnightblue" d="M80.99,-283.96C68.57,-285.73 56.74,-287.41 47.15,-288.78"/>
<polygon fill="midnightblue" stroke="midnightblue" points="81.64,-287.4 91.05,-282.53 80.65,-280.47 81.64,-287.4"/>
</g>
<!-- Node7 -->
<g id="node7" class="node">
<title>Node7</title>
<g id="a_node7"><a xlink:href="namespacedriver__post.html#af527706d4e696d4e507443d2f74194ef" target="_top" xlink:title="Initializes the POST driver.">
<polygon fill="white" stroke="black" points="96,-151.5 96,-172.5 236,-172.5 236,-151.5 96,-151.5"/>
<text text-anchor="middle" x="166" y="-158.9" font-family="Ubuntu Mono" font-size="12.00">driver_post::init_post</text>
</a>
</g>
</g>
<!-- Node6&#45;&gt;Node7 -->
<g id="edge6" class="edge">
<title>Node6&#45;&gt;Node7</title>
<path fill="none" stroke="midnightblue" d="M274.72,-162C261.88,-162 248.72,-162 236.22,-162"/>
<polygon fill="midnightblue" stroke="midnightblue" points="274.94,-165.5 284.94,-162 274.94,-158.5 274.94,-165.5"/>
</g>
<!-- Node8 -->
<g id="node8" class="node">
<title>Node8</title>
<g id="a_node8"><a xlink:href="POST_8f90.html#ac289b64ac4671fea0b4f2298ba1188a1" target="_top" xlink:title="Peeling Ballooning in 3D: postprocessing.">
<polygon fill="white" stroke="black" points="2.5,-151.5 2.5,-172.5 44.5,-172.5 44.5,-151.5 2.5,-151.5"/>
<text text-anchor="middle" x="23.5" y="-158.9" font-family="Ubuntu Mono" font-size="12.00">post</text>
</a>
</g>
</g>
<!-- Node7&#45;&gt;Node8 -->
<g id="edge7" class="edge">
<title>Node7&#45;&gt;Node8</title>
<path fill="none" stroke="midnightblue" d="M85.9,-162C70.64,-162 55.94,-162 44.76,-162"/>
<polygon fill="midnightblue" stroke="midnightblue" points="85.98,-165.5 95.98,-162 85.98,-158.5 85.98,-165.5"/>
</g>
<!-- Node9&#45;&gt;Node2 -->
<g id="edge9" class="edge">
<title>Node9&#45;&gt;Node2</title>
<path fill="none" stroke="midnightblue" d="M682.97,-146.48C665.78,-151.48 646.02,-157.12 628,-162 616.26,-165.18 603.49,-168.48 591.71,-171.46"/>
<polygon fill="midnightblue" stroke="midnightblue" points="684.15,-149.78 692.77,-143.62 682.18,-143.07 684.15,-149.78"/>
</g>
<!-- Node11&#45;&gt;Node2 -->
<g id="edge13" class="edge">
<title>Node11&#45;&gt;Node2</title>
<path fill="none" stroke="midnightblue" d="M684.86,-234.35C660.53,-222.35 633.95,-209.38 628,-207 614.64,-201.66 599.66,-196.68 586.37,-192.59"/>
<polygon fill="midnightblue" stroke="midnightblue" points="683.51,-237.59 694.02,-238.88 686.61,-231.31 683.51,-237.59"/>
</g>
<!-- Node11&#45;&gt;Node3 -->
<g id="edge14" class="edge">
<title>Node11&#45;&gt;Node3</title>
<path fill="none" stroke="midnightblue" d="M660.74,-256.55C595.99,-257.08 498.67,-257.87 432.29,-258.41"/>
<polygon fill="midnightblue" stroke="midnightblue" points="660.87,-260.05 670.84,-256.47 660.82,-253.05 660.87,-260.05"/>
</g>
<!-- Node11&#45;&gt;Node6 -->
<g id="edge19" class="edge">
<title>Node11&#45;&gt;Node6</title>
<path fill="none" stroke="midnightblue" d="M661.03,-244.86C608.04,-235.43 532.66,-220.51 468,-202 439.05,-193.71 406.77,-181.4 385.01,-172.63"/>
<polygon fill="midnightblue" stroke="midnightblue" points="660.53,-248.33 670.99,-246.62 661.75,-241.43 660.53,-248.33"/>
</g>
<!-- Node12 -->
<g id="node12" class="node">
<title>Node12</title>
<g id="a_node12"><a xlink:href="namespacevac__utilities.html#a8e7889688701f6ac2fd2c60cdee2b96a" target="_top" xlink:title="Copies vacuum variables of a previous level into the appropriate, interlaced place of a next level.">
<polygon fill="white" stroke="black" points="471.5,-331 471.5,-365 624.5,-365 624.5,-331 471.5,-331"/>
<text text-anchor="start" x="479.5" y="-351.4" font-family="Ubuntu Mono" font-size="12.00">vac_utilities::interlaced</text>
<text text-anchor="middle" x="548" y="-338.4" font-family="Ubuntu Mono" font-size="12.00">_vac_copy</text>
</a>
</g>
</g>
<!-- Node11&#45;&gt;Node12 -->
<g id="edge15" class="edge">
<title>Node11&#45;&gt;Node12</title>
<path fill="none" stroke="midnightblue" d="M686.13,-277.72C654.46,-293.95 611.76,-315.83 582.47,-330.85"/>
<polygon fill="midnightblue" stroke="midnightblue" points="687.86,-280.76 695.16,-273.09 684.66,-274.54 687.86,-280.76"/>
</g>
<!-- Node13 -->
<g id="node13" class="node">
<title>Node13</title>
<g id="a_node13"><a xlink:href="namespacevac__ops.html#a37220702fbf378626a0f2c12f446e0aa" target="_top" xlink:title="Stores calculation of the vacuum response by storing the necessary variables.">
<polygon fill="white" stroke="black" points="294,-333.5 294,-354.5 423,-354.5 423,-333.5 294,-333.5"/>
<text text-anchor="middle" x="358.5" y="-340.9" font-family="Ubuntu Mono" font-size="12.00">vac_ops::store_vac</text>
</a>
</g>
</g>
<!-- Node12&#45;&gt;Node13 -->
<g id="edge16" class="edge">
<title>Node12&#45;&gt;Node13</title>
<path fill="none" stroke="midnightblue" d="M461.1,-346.17C448.34,-345.9 435.38,-345.62 423.18,-345.36"/>
<polygon fill="midnightblue" stroke="midnightblue" points="461.2,-349.67 471.28,-346.38 461.35,-342.67 461.2,-349.67"/>
</g>
<!-- Node14 -->
<g id="node14" class="node">
<title>Node14</title>
<g id="a_node14"><a xlink:href="namespacedriver__eq.html#adc9d5dff288fa512e5ef885627d940cc" target="_top" xlink:title="Main driver of PB3D equilibrium part.">
<polygon fill="white" stroke="black" points="84.5,-327.5 84.5,-348.5 247.5,-348.5 247.5,-327.5 84.5,-327.5"/>
<text text-anchor="middle" x="166" y="-334.9" font-family="Ubuntu Mono" font-size="12.00">driver_eq::run_driver_eq</text>
</a>
</g>
</g>
<!-- Node13&#45;&gt;Node14 -->
<g id="edge17" class="edge">
<title>Node13&#45;&gt;Node14</title>
<path fill="none" stroke="midnightblue" d="M283.57,-341.67C271.78,-341.3 259.52,-340.91 247.58,-340.54"/>
<polygon fill="midnightblue" stroke="midnightblue" points="283.7,-345.18 293.8,-341.99 283.92,-338.18 283.7,-345.18"/>
</g>
<!-- Node14&#45;&gt;Node5 -->
<g id="edge18" class="edge">
<title>Node14&#45;&gt;Node5</title>
<path fill="none" stroke="midnightblue" d="M123.22,-324.32C98.4,-316.19 67.86,-306.2 47.39,-299.49"/>
<polygon fill="midnightblue" stroke="midnightblue" points="122.17,-327.66 132.77,-327.45 124.35,-321.01 122.17,-327.66"/>
</g>
<!-- Node15&#45;&gt;Node3 -->
<g id="edge21" class="edge">
<title>Node15&#45;&gt;Node3</title>
<path fill="none" stroke="midnightblue" d="M481.33,-155.96C476.72,-157.75 472.23,-159.75 468,-162 424.94,-184.9 385.14,-228.4 368.16,-248.43"/>
<polygon fill="midnightblue" stroke="midnightblue" points="482.63,-159.22 490.91,-152.6 480.32,-152.61 482.63,-159.22"/>
</g>
<!-- Node15&#45;&gt;Node6 -->
<g id="edge22" class="edge">
<title>Node15&#45;&gt;Node6</title>
<path fill="none" stroke="midnightblue" d="M457.75,-151.52C449.19,-152.43 440.58,-153.35 432.2,-154.25"/>
<polygon fill="midnightblue" stroke="midnightblue" points="458.18,-154.99 467.75,-150.45 457.44,-148.03 458.18,-154.99"/>
</g>
<!-- Node16&#45;&gt;Node2 -->
<g id="edge25" class="edge">
<title>Node16&#45;&gt;Node2</title>
<path fill="none" stroke="midnightblue" d="M836.58,-173.88C770.32,-175.75 669.56,-178.59 606.59,-180.37"/>
<polygon fill="midnightblue" stroke="midnightblue" points="837.01,-177.37 846.91,-173.58 836.81,-170.37 837.01,-177.37"/>
</g>
<!-- Node16&#45;&gt;Node9 -->
<g id="edge26" class="edge">
<title>Node16&#45;&gt;Node9</title>
<path fill="none" stroke="midnightblue" d="M837.01,-157.08C817,-152.56 795.44,-147.68 777,-143.51"/>
<polygon fill="midnightblue" stroke="midnightblue" points="836.47,-160.55 846.99,-159.34 838.01,-153.72 836.47,-160.55"/>
</g>
</g>
</svg>
