<?xml version="1.0" encoding="UTF-8" standalone="no"?>
<!DOCTYPE svg PUBLIC "-//W3C//DTD SVG 1.1//EN"
 "http://www.w3.org/Graphics/SVG/1.1/DTD/svg11.dtd">
<!-- Generated by graphviz version 2.38.0 (20140413.2041)
 -->
<!-- Title: files_ops::open_input Pages: 1 -->
<svg width="658pt" height="149pt"
 viewBox="0.00 0.00 658.00 149.00" xmlns="http://www.w3.org/2000/svg" xmlns:xlink="http://www.w3.org/1999/xlink">
<g id="graph0" class="graph" transform="scale(1 1) rotate(0) translate(4 145)">
<title>files_ops::open_input</title>
<polygon fill="white" stroke="none" points="-4,4 -4,-145 654,-145 654,4 -4,4"/>
<!-- Node12 -->
<g id="node1" class="node"><title>Node12</title>
<polygon fill="#bfbfbf" stroke="black" points="0,-60.5 0,-81.5 143,-81.5 143,-60.5 0,-60.5"/>
<text text-anchor="middle" x="71.5" y="-67.9" font-family="Ubuntu Mono" font-size="12.00">files_ops::open_input</text>
</g>
<!-- Node13 -->
<g id="node2" class="node"><title>Node13</title>
<g id="a_node2"><a xlink:href="namespacemessages.html#aa4a8d01563e92558e8a0875b075ec54c" target="_top" xlink:title="Write output to file identified by output_i. ">
<polygon fill="white" stroke="black" points="352,-99.5 352,-120.5 459,-120.5 459,-99.5 352,-99.5"/>
<text text-anchor="middle" x="405.5" y="-106.9" font-family="Ubuntu Mono" font-size="12.00">messages::writo</text>
</a>
</g>
</g>
<!-- Node12&#45;&gt;Node13 -->
<g id="edge1" class="edge"><title>Node12&#45;&gt;Node13</title>
<path fill="none" stroke="midnightblue" d="M93.8735,-81.6462C114.924,-91.4942 148.296,-105.424 179,-111 233.254,-120.853 296.068,-119.561 341.601,-116.405"/>
<polygon fill="midnightblue" stroke="midnightblue" points="341.91,-119.892 351.624,-115.662 341.392,-112.911 341.91,-119.892"/>
</g>
<!-- Node16 -->
<g id="node5" class="node"><title>Node16</title>
<g id="a_node5"><a xlink:href="namespacemessages.html#a6e6bfb084063e4cc91ee86e542043302" target="_top" xlink:title="Increases/decreases lvl of output. ">
<polygon fill="white" stroke="black" points="191,-80.5 191,-101.5 304,-101.5 304,-80.5 191,-80.5"/>
<text text-anchor="middle" x="247.5" y="-87.9" font-family="Ubuntu Mono" font-size="12.00">messages::lvl_ud</text>
</a>
</g>
</g>
<!-- Node12&#45;&gt;Node16 -->
<g id="edge4" class="edge"><title>Node12&#45;&gt;Node16</title>
<path fill="none" stroke="midnightblue" d="M143.022,-79.1059C155.459,-80.5356 168.364,-82.0188 180.667,-83.433"/>
<polygon fill="midnightblue" stroke="midnightblue" points="180.502,-86.937 190.836,-84.6019 181.302,-79.9828 180.502,-86.937"/>
</g>
<!-- Node17 -->
<g id="node6" class="node"><title>Node17</title>
<g id="a_node6"><a xlink:href="namespacestr__utilities.html#a0b97e51770725a3e98ed393d26681414" target="_top" xlink:title="Convert an integer to string. ">
<polygon fill="white" stroke="black" points="179,-40.5 179,-61.5 316,-61.5 316,-40.5 179,-40.5"/>
<text text-anchor="middle" x="247.5" y="-47.9" font-family="Ubuntu Mono" font-size="12.00">str_utilities::i2str</text>
</a>
</g>
</g>
<!-- Node12&#45;&gt;Node17 -->
<g id="edge6" class="edge"><title>Node12&#45;&gt;Node17</title>
<path fill="none" stroke="midnightblue" d="M143.022,-62.8941C151.553,-61.9135 160.304,-60.9076 168.929,-59.9162"/>
<polygon fill="midnightblue" stroke="midnightblue" points="169.442,-63.3804 178.977,-58.7613 168.643,-56.4261 169.442,-63.3804"/>
</g>
<!-- Node18 -->
<g id="node7" class="node"><title>Node18</title>
<g id="a_node7"><a xlink:href="namespacestr__utilities.html#a92ac6c0af1979df094de1caddd28ade0" target="_top" xlink:title="Convert a real (double) to string. ">
<polygon fill="white" stroke="black" points="179,-0.5 179,-21.5 316,-21.5 316,-0.5 179,-0.5"/>
<text text-anchor="middle" x="247.5" y="-7.9" font-family="Ubuntu Mono" font-size="12.00">str_utilities::r2str</text>
</a>
</g>
</g>
<!-- Node12&#45;&gt;Node18 -->
<g id="edge7" class="edge"><title>Node12&#45;&gt;Node18</title>
<path fill="none" stroke="midnightblue" d="M99.0101,-60.4425C120.444,-52.0525 151.474,-40.2341 179,-31 185.54,-28.8061 192.477,-26.6075 199.318,-24.5129"/>
<polygon fill="midnightblue" stroke="midnightblue" points="200.65,-27.7671 209.215,-21.5311 198.63,-21.0647 200.65,-27.7671"/>
</g>
<!-- Node14 -->
<g id="node3" class="node"><title>Node14</title>
<g id="a_node3"><a xlink:href="namespacemessages.html#a82dddaab795b78b3d39e1ff1aab2f665" target="_top" xlink:title="Returns the memory usage in kilobytes. ">
<polygon fill="white" stroke="black" points="495,-119.5 495,-140.5 650,-140.5 650,-119.5 495,-119.5"/>
<text text-anchor="middle" x="572.5" y="-126.9" font-family="Ubuntu Mono" font-size="12.00">messages::get_mem_usage</text>
</a>
</g>
</g>
<!-- Node13&#45;&gt;Node14 -->
<g id="edge2" class="edge"><title>Node13&#45;&gt;Node14</title>
<path fill="none" stroke="midnightblue" d="M459.161,-116.383C467.452,-117.388 476.208,-118.449 485.025,-119.518"/>
<polygon fill="midnightblue" stroke="midnightblue" points="484.635,-122.996 494.984,-120.725 485.478,-116.047 484.635,-122.996"/>
</g>
<!-- Node15 -->
<g id="node4" class="node"><title>Node15</title>
<g id="a_node4"><a xlink:href="namespacemessages.html#a61fd0b51b5e37d58fdc993c01792a3fd" target="_top" xlink:title="Returns the time. ">
<polygon fill="white" stroke="black" points="507,-79.5 507,-100.5 638,-100.5 638,-79.5 507,-79.5"/>
<text text-anchor="middle" x="572.5" y="-86.9" font-family="Ubuntu Mono" font-size="12.00">messages::get_clock</text>
</a>
</g>
</g>
<!-- Node13&#45;&gt;Node15 -->
<g id="edge3" class="edge"><title>Node13&#45;&gt;Node15</title>
<path fill="none" stroke="midnightblue" d="M459.161,-103.617C471.142,-102.165 484.094,-100.595 496.797,-99.0549"/>
<polygon fill="midnightblue" stroke="midnightblue" points="497.402,-102.507 506.908,-97.8293 496.56,-95.5581 497.402,-102.507"/>
</g>
<!-- Node16&#45;&gt;Node13 -->
<g id="edge5" class="edge"><title>Node16&#45;&gt;Node13</title>
<path fill="none" stroke="midnightblue" d="M304.379,-97.8058C316.468,-99.2782 329.331,-100.845 341.667,-102.347"/>
<polygon fill="midnightblue" stroke="midnightblue" points="341.527,-105.856 351.877,-103.591 342.373,-98.9073 341.527,-105.856"/>
</g>
</g>
</svg>
