<?xml version="1.0" encoding="UTF-8" standalone="no"?>
<!DOCTYPE svg PUBLIC "-//W3C//DTD SVG 1.1//EN"
 "http://www.w3.org/Graphics/SVG/1.1/DTD/svg11.dtd">
<!-- Generated by graphviz version 2.43.0 (0)
 -->
<!-- Title: x_ops::print_debug_x_2 Pages: 1 -->
<svg width="644pt" height="70pt"
 viewBox="0.00 0.00 644.00 70.00" xmlns="http://www.w3.org/2000/svg" xmlns:xlink="http://www.w3.org/1999/xlink">
<g id="graph0" class="graph" transform="scale(1 1) rotate(0) translate(4 66)">
<title>x_ops::print_debug_x_2</title>
<polygon fill="white" stroke="transparent" points="-4,4 -4,-66 640,-66 640,4 -4,4"/>
<!-- Node1 -->
<g id="node1" class="node">
<title>Node1</title>
<g id="a_node1"><a xlink:title="Prints debug information for X_2 driver.">
<polygon fill="#bfbfbf" stroke="black" points="481,-19.5 481,-40.5 636,-40.5 636,-19.5 481,-19.5"/>
<text text-anchor="middle" x="558.5" y="-26.9" font-family="Ubuntu Mono" font-size="12.00">x_ops::print_debug_x_2</text>
</a>
</g>
</g>
<!-- Node2 -->
<g id="node2" class="node">
<title>Node2</title>
<g id="a_node2"><a xlink:href="namespacedriver__sol.html#ad3b1765b3ecc5f82129bfc683ffc6c5c" target="_top" xlink:title="Main driver of PB3D solution part.">
<polygon fill="white" stroke="black" points="83,-40.5 83,-61.5 249,-61.5 249,-40.5 83,-40.5"/>
<text text-anchor="middle" x="166" y="-47.9" font-family="Ubuntu Mono" font-size="12.00">driver_sol::run_driver_sol</text>
</a>
</g>
</g>
<!-- Node1&#45;&gt;Node2 -->
<g id="edge1" class="edge">
<title>Node1&#45;&gt;Node2</title>
<path fill="none" stroke="midnightblue" d="M470.42,-34.68C404.34,-38.24 314.1,-43.09 249.24,-46.58"/>
<polygon fill="midnightblue" stroke="midnightblue" points="471.02,-38.16 480.82,-34.12 470.64,-31.17 471.02,-38.16"/>
</g>
<!-- Node4 -->
<g id="node4" class="node">
<title>Node4</title>
<g id="a_node4"><a xlink:href="namespacedriver__x.html#ad3924b3d66f336f0a9a9559eafffec8e" target="_top" xlink:title="Part 2 of driver_X: Tensorial jobs.">
<polygon fill="white" stroke="black" points="285,-0.5 285,-21.5 445,-21.5 445,-0.5 285,-0.5"/>
<text text-anchor="middle" x="365" y="-7.9" font-family="Ubuntu Mono" font-size="12.00">driver_x::run_driver_x_2</text>
</a>
</g>
</g>
<!-- Node1&#45;&gt;Node4 -->
<g id="edge3" class="edge">
<title>Node1&#45;&gt;Node4</title>
<path fill="none" stroke="midnightblue" d="M470.98,-21.42C462.39,-20.56 453.71,-19.7 445.21,-18.86"/>
<polygon fill="midnightblue" stroke="midnightblue" points="470.69,-24.9 480.99,-22.41 471.38,-17.94 470.69,-24.9"/>
</g>
<!-- Node3 -->
<g id="node3" class="node">
<title>Node3</title>
<g id="a_node3"><a xlink:href="PB3D_8f90.html#afaee01f014ab3398eecac996b2795fd2" target="_top" xlink:title="Peeling Ballooning in 3D.">
<polygon fill="white" stroke="black" points="0,-20.5 0,-41.5 47,-41.5 47,-20.5 0,-20.5"/>
<text text-anchor="middle" x="23.5" y="-27.9" font-family="Ubuntu Mono" font-size="12.00">pb3d</text>
</a>
</g>
</g>
<!-- Node2&#45;&gt;Node3 -->
<g id="edge2" class="edge">
<title>Node2&#45;&gt;Node3</title>
<path fill="none" stroke="midnightblue" d="M80.99,-39.04C68.57,-37.27 56.74,-35.59 47.15,-34.22"/>
<polygon fill="midnightblue" stroke="midnightblue" points="80.65,-42.53 91.05,-40.47 81.64,-35.6 80.65,-42.53"/>
</g>
<!-- Node5 -->
<g id="node5" class="node">
<title>Node5</title>
<g id="a_node5"><a xlink:href="namespacedriver__x.html#ada3d72a0929daaa5e3da585246d62281" target="_top" xlink:title="Main driver of PB3D perturbation part.">
<polygon fill="white" stroke="black" points="93,-0.5 93,-21.5 239,-21.5 239,-0.5 93,-0.5"/>
<text text-anchor="middle" x="166" y="-7.9" font-family="Ubuntu Mono" font-size="12.00">driver_x::run_driver_x</text>
</a>
</g>
</g>
<!-- Node4&#45;&gt;Node5 -->
<g id="edge4" class="edge">
<title>Node4&#45;&gt;Node5</title>
<path fill="none" stroke="midnightblue" d="M274.4,-11C262.58,-11 250.59,-11 239.11,-11"/>
<polygon fill="midnightblue" stroke="midnightblue" points="274.72,-14.5 284.72,-11 274.72,-7.5 274.72,-14.5"/>
</g>
<!-- Node5&#45;&gt;Node3 -->
<g id="edge5" class="edge">
<title>Node5&#45;&gt;Node3</title>
<path fill="none" stroke="midnightblue" d="M82.66,-22.72C69.65,-24.57 57.21,-26.34 47.2,-27.77"/>
<polygon fill="midnightblue" stroke="midnightblue" points="83.29,-26.17 92.69,-21.29 82.3,-19.24 83.29,-26.17"/>
</g>
</g>
</svg>
