<?xml version="1.0" encoding="UTF-8" standalone="no"?>
<!DOCTYPE svg PUBLIC "-//W3C//DTD SVG 1.1//EN"
 "http://www.w3.org/Graphics/SVG/1.1/DTD/svg11.dtd">
<!-- Generated by graphviz version 2.38.0 (20140413.2041)
 -->
<!-- Title: eq_ops::divide_eq_jobs Pages: 1 -->
<svg width="431pt" height="70pt"
 viewBox="0.00 0.00 431.00 70.00" xmlns="http://www.w3.org/2000/svg" xmlns:xlink="http://www.w3.org/1999/xlink">
<g id="graph0" class="graph" transform="scale(1 1) rotate(0) translate(4 66)">
<title>eq_ops::divide_eq_jobs</title>
<polygon fill="white" stroke="none" points="-4,4 -4,-66 427,-66 427,4 -4,4"/>
<!-- Node102 -->
<g id="node1" class="node"><title>Node102</title>
<polygon fill="#bfbfbf" stroke="black" points="0,-20.5 0,-41.5 149,-41.5 149,-20.5 0,-20.5"/>
<text text-anchor="middle" x="74.5" y="-27.9" font-family="Ubuntu Mono" font-size="12.00">eq_ops::divide_eq_jobs</text>
</g>
<!-- Node103 -->
<g id="node2" class="node"><title>Node103</title>
<g id="a_node2"><a xlink:href="namespacedriver__post.html#af527706d4e696d4e507443d2f74194ef" target="_top" xlink:title="Initializes the POST driver. ">
<polygon fill="white" stroke="black" points="191,-40.5 191,-61.5 340,-61.5 340,-40.5 191,-40.5"/>
<text text-anchor="middle" x="265.5" y="-47.9" font-family="Ubuntu Mono" font-size="12.00">driver_post::init_post</text>
</a>
</g>
</g>
<!-- Node102&#45;&gt;Node103 -->
<g id="edge1" class="edge"><title>Node102&#45;&gt;Node103</title>
<path fill="none" stroke="midnightblue" d="M159.145,-39.8513C169.684,-40.9666 180.406,-42.1012 190.776,-43.1986"/>
<polygon fill="midnightblue" stroke="midnightblue" points="159.426,-36.3616 149.114,-38.7898 158.69,-43.3228 159.426,-36.3616"/>
</g>
<!-- Node105 -->
<g id="node4" class="node"><title>Node105</title>
<g id="a_node4"><a xlink:href="namespacerich__ops.html#a97206a15127960366fcb41d6889cb3b5" target="_top" xlink:title="Start a Richardson level. ">
<polygon fill="white" stroke="black" points="185,-0.5 185,-21.5 346,-21.5 346,-0.5 185,-0.5"/>
<text text-anchor="middle" x="265.5" y="-7.9" font-family="Ubuntu Mono" font-size="12.00">rich_ops::start_rich_lvl</text>
</a>
</g>
</g>
<!-- Node102&#45;&gt;Node105 -->
<g id="edge3" class="edge"><title>Node102&#45;&gt;Node105</title>
<path fill="none" stroke="midnightblue" d="M159.086,-22.155C167.642,-21.2495 176.32,-20.3312 184.833,-19.4304"/>
<polygon fill="midnightblue" stroke="midnightblue" points="158.69,-18.6772 149.114,-23.2102 159.426,-25.6384 158.69,-18.6772"/>
</g>
<!-- Node104 -->
<g id="node3" class="node"><title>Node104</title>
<g id="a_node3"><a xlink:href="POST_8f90.html#ac289b64ac4671fea0b4f2298ba1188a1" target="_top" xlink:title="Peeling Ballooning in 3D: postprocessing. ">
<polygon fill="white" stroke="black" points="382,-40.5 382,-61.5 423,-61.5 423,-40.5 382,-40.5"/>
<text text-anchor="middle" x="402.5" y="-47.9" font-family="Ubuntu Mono" font-size="12.00">post</text>
</a>
</g>
</g>
<!-- Node103&#45;&gt;Node104 -->
<g id="edge2" class="edge"><title>Node103&#45;&gt;Node104</title>
<path fill="none" stroke="midnightblue" d="M350.322,-51C362.072,-51 373.121,-51 381.924,-51"/>
<polygon fill="midnightblue" stroke="midnightblue" points="350.32,-47.5001 340.32,-51 350.32,-54.5001 350.32,-47.5001"/>
</g>
<!-- Node106 -->
<g id="node5" class="node"><title>Node106</title>
<g id="a_node5"><a xlink:href="PB3D_8f90.html#afaee01f014ab3398eecac996b2795fd2" target="_top" xlink:title="Peeling Ballooning in 3D. ">
<polygon fill="white" stroke="black" points="382,-0.5 382,-21.5 423,-21.5 423,-0.5 382,-0.5"/>
<text text-anchor="middle" x="402.5" y="-7.9" font-family="Ubuntu Mono" font-size="12.00">pb3d</text>
</a>
</g>
</g>
<!-- Node105&#45;&gt;Node106 -->
<g id="edge4" class="edge"><title>Node105&#45;&gt;Node106</title>
<path fill="none" stroke="midnightblue" d="M356.278,-11C365.755,-11 374.571,-11 381.856,-11"/>
<polygon fill="midnightblue" stroke="midnightblue" points="356.201,-7.5001 346.201,-11 356.201,-14.5001 356.201,-7.5001"/>
</g>
</g>
</svg>
