<?xml version="1.0" encoding="UTF-8" standalone="no"?>
<!DOCTYPE svg PUBLIC "-//W3C//DTD SVG 1.1//EN"
 "http://www.w3.org/Graphics/SVG/1.1/DTD/svg11.dtd">
<!-- Generated by graphviz version 2.43.0 (0)
 -->
<!-- Title: driver_post::setup_out_grids Pages: 1 -->
<svg width="1448pt" height="845pt"
 viewBox="0.00 0.00 1448.00 845.14" xmlns="http://www.w3.org/2000/svg" xmlns:xlink="http://www.w3.org/1999/xlink">
<g id="graph0" class="graph" transform="scale(1 1) rotate(0) translate(4 841.14)">
<title>driver_post::setup_out_grids</title>
<polygon fill="white" stroke="transparent" points="-4,4 -4,-841.14 1444,-841.14 1444,4 -4,4"/>
<!-- Node1 -->
<g id="node1" class="node">
<title>Node1</title>
<g id="a_node1"><a xlink:title="Sets up the output grids for a particular parallel job.">
<polygon fill="#bfbfbf" stroke="black" points="0,-567.16 0,-601.16 124,-601.16 124,-567.16 0,-567.16"/>
<text text-anchor="start" x="8" y="-587.56" font-family="Ubuntu Mono" font-size="12.00">driver_post::setup</text>
<text text-anchor="middle" x="62" y="-574.56" font-family="Ubuntu Mono" font-size="12.00">_out_grids</text>
</a>
</g>
</g>
<!-- Node2 -->
<g id="node2" class="node">
<title>Node2</title>
<g id="a_node2"><a xlink:href="namespacevmec__utilities.html#ac699116fc25fdea3e28e488513d97c87" target="_top" xlink:title="Calculate the trigonometric cosine and sine factors.">
<polygon fill="white" stroke="black" points="733,-764.16 733,-798.16 862,-798.16 862,-764.16 733,-764.16"/>
<text text-anchor="start" x="741" y="-784.56" font-family="Ubuntu Mono" font-size="12.00">vmec_utilities::calc</text>
<text text-anchor="middle" x="797.5" y="-771.56" font-family="Ubuntu Mono" font-size="12.00">_trigon_factors</text>
</a>
</g>
</g>
<!-- Node1&#45;&gt;Node2 -->
<g id="edge1" class="edge">
<title>Node1&#45;&gt;Node2</title>
<path fill="none" stroke="midnightblue" d="M71.51,-601.48C85.74,-628.35 117.07,-679.45 160,-703.16 342.25,-803.77 597.86,-799.01 722.41,-789.14"/>
<polygon fill="midnightblue" stroke="midnightblue" points="722.93,-792.61 732.6,-788.3 722.35,-785.63 722.93,-792.61"/>
</g>
<!-- Node3 -->
<g id="node3" class="node">
<title>Node3</title>
<g id="a_node3"><a xlink:href="namespacestr__utilities.html#a0b97e51770725a3e98ed393d26681414" target="_top" xlink:title="Convert an integer to string.">
<polygon fill="white" stroke="black" points="1324.5,-476.66 1324.5,-497.66 1438.5,-497.66 1438.5,-476.66 1324.5,-476.66"/>
<text text-anchor="middle" x="1381.5" y="-484.06" font-family="Ubuntu Mono" font-size="12.00">str_utilities::i2str</text>
</a>
</g>
</g>
<!-- Node1&#45;&gt;Node3 -->
<g id="edge20" class="edge">
<title>Node1&#45;&gt;Node3</title>
<path fill="none" stroke="midnightblue" d="M68.68,-601.24C80.44,-634 110.56,-705.88 160,-745.16 252.39,-818.55 294.51,-827.16 412.5,-827.16 412.5,-827.16 412.5,-827.16 993,-827.16 1125.19,-827.16 1186.57,-868.11 1287,-782.16 1371.22,-710.08 1380.42,-562.56 1380.82,-508.03"/>
<polygon fill="midnightblue" stroke="midnightblue" points="1384.32,-507.85 1380.79,-497.86 1377.32,-507.87 1384.32,-507.85"/>
</g>
<!-- Node4 -->
<g id="node4" class="node">
<title>Node4</title>
<g id="a_node4"><a xlink:href="namespacemessages.html#aa4a8d01563e92558e8a0875b075ec54c" target="_top" xlink:title="Write output to file identified by output_i.">
<polygon fill="white" stroke="black" points="935,-515.66 935,-536.66 1049,-536.66 1049,-515.66 935,-515.66"/>
<text text-anchor="middle" x="992" y="-523.06" font-family="Ubuntu Mono" font-size="12.00">messages::writo</text>
</a>
</g>
</g>
<!-- Node1&#45;&gt;Node4 -->
<g id="edge52" class="edge">
<title>Node1&#45;&gt;Node4</title>
<path fill="none" stroke="midnightblue" d="M124.19,-578.81C193.91,-573.19 311.32,-565.16 412.5,-565.16 412.5,-565.16 412.5,-565.16 599.5,-565.16 724.45,-565.16 755.99,-561.48 880,-546.16 896.17,-544.16 913.56,-541.34 929.67,-538.46"/>
<polygon fill="midnightblue" stroke="midnightblue" points="930.3,-541.9 939.51,-536.66 929.04,-535.01 930.3,-541.9"/>
</g>
<!-- Node7 -->
<g id="node7" class="node">
<title>Node7</title>
<g id="a_node7"><a xlink:href="namespacegrid__utilities.html#a39e7cd9b8f173994358dbdd6b57827e1" target="_top" xlink:title="Calculates , &#160;and &#160;on a grid grid_XYZ, determined through its E(quilibrium) coordinates.">
<polygon fill="white" stroke="black" points="175,-632.16 175,-666.16 294,-666.16 294,-632.16 175,-632.16"/>
<text text-anchor="start" x="183" y="-652.56" font-family="Ubuntu Mono" font-size="12.00">grid_utilities::calc</text>
<text text-anchor="middle" x="234.5" y="-639.56" font-family="Ubuntu Mono" font-size="12.00">_xyz_grid</text>
</a>
</g>
</g>
<!-- Node1&#45;&gt;Node7 -->
<g id="edge7" class="edge">
<title>Node1&#45;&gt;Node7</title>
<path fill="none" stroke="midnightblue" d="M107.8,-601.23C129.64,-609.56 156.09,-619.65 179.09,-628.41"/>
<polygon fill="midnightblue" stroke="midnightblue" points="178.12,-631.79 188.71,-632.08 180.61,-625.25 178.12,-631.79"/>
</g>
<!-- Node8 -->
<g id="node8" class="node">
<title>Node8</title>
<g id="a_node8"><a xlink:href="namespaceoutput__ops.html#a50bfbb88cc91805469353c3ff47b3e2e" target="_top" xlink:title="Use external program to draw a plot.">
<polygon fill="white" stroke="black" points="528.5,-638.66 528.5,-659.66 668.5,-659.66 668.5,-638.66 528.5,-638.66"/>
<text text-anchor="middle" x="598.5" y="-646.06" font-family="Ubuntu Mono" font-size="12.00">output_ops::draw_ex</text>
</a>
</g>
</g>
<!-- Node1&#45;&gt;Node8 -->
<g id="edge8" class="edge">
<title>Node1&#45;&gt;Node8</title>
<path fill="none" stroke="midnightblue" d="M74.66,-601.44C90.8,-623.64 122.27,-661.11 160,-676.16 297.27,-730.9 478.03,-687.05 557.31,-662.69"/>
<polygon fill="midnightblue" stroke="midnightblue" points="558.42,-666.01 566.92,-659.68 556.33,-659.33 558.42,-666.01"/>
</g>
<!-- Node9 -->
<g id="node9" class="node">
<title>Node9</title>
<g id="a_node9"><a xlink:href="namespacemessages.html#a6e6bfb084063e4cc91ee86e542043302" target="_top" xlink:title="Increases/decreases lvl of output.">
<polygon fill="white" stroke="black" points="738.5,-515.66 738.5,-536.66 856.5,-536.66 856.5,-515.66 738.5,-515.66"/>
<text text-anchor="middle" x="797.5" y="-523.06" font-family="Ubuntu Mono" font-size="12.00">messages::lvl_ud</text>
</a>
</g>
</g>
<!-- Node1&#45;&gt;Node9 -->
<g id="edge21" class="edge">
<title>Node1&#45;&gt;Node9</title>
<path fill="none" stroke="midnightblue" d="M104.79,-566.99C121.64,-560.85 141.46,-554.6 160,-551.16 363.97,-513.28 610.78,-517.49 728.13,-522.44"/>
<polygon fill="midnightblue" stroke="midnightblue" points="728.25,-525.95 738.39,-522.89 728.56,-518.96 728.25,-525.95"/>
</g>
<!-- Node12 -->
<g id="node12" class="node">
<title>Node12</title>
<g id="a_node12"><a xlink:href="namespacegrid__utilities.html#a414a1a11924bc935afca3a89fc31f2f5" target="_top" xlink:title="Extend a grid angularly.">
<polygon fill="white" stroke="black" points="530,-464.16 530,-498.16 667,-498.16 667,-464.16 530,-464.16"/>
<text text-anchor="start" x="538" y="-484.56" font-family="Ubuntu Mono" font-size="12.00">grid_utilities::extend</text>
<text text-anchor="middle" x="598.5" y="-471.56" font-family="Ubuntu Mono" font-size="12.00">_grid_f</text>
</a>
</g>
</g>
<!-- Node1&#45;&gt;Node12 -->
<g id="edge15" class="edge">
<title>Node1&#45;&gt;Node12</title>
<path fill="none" stroke="midnightblue" d="M80.13,-566.87C98.23,-549.85 128.47,-524.75 160,-513.16 279.75,-469.11 430.15,-469.01 519.79,-474.2"/>
<polygon fill="midnightblue" stroke="midnightblue" points="519.68,-477.7 529.87,-474.82 520.11,-470.71 519.68,-477.7"/>
</g>
<!-- Node15 -->
<g id="node15" class="node">
<title>Node15</title>
<g id="a_node15"><a xlink:href="namespacegrid__utilities.html#a0854b2d6cc61a31f68b4afe7304077a9" target="_top" xlink:title="calculates the cosine and sine mode numbers of a function defined on a non&#45;regular grid.">
<polygon fill="white" stroke="black" points="352,-616.66 352,-637.66 475,-637.66 475,-616.66 352,-616.66"/>
<text text-anchor="middle" x="413.5" y="-624.06" font-family="Ubuntu Mono" font-size="12.00">grid_utilities::nufft</text>
</a>
</g>
</g>
<!-- Node1&#45;&gt;Node15 -->
<g id="edge22" class="edge">
<title>Node1&#45;&gt;Node15</title>
<path fill="none" stroke="midnightblue" d="M124.28,-591.69C185.04,-599.17 278.06,-610.62 341.89,-618.47"/>
<polygon fill="midnightblue" stroke="midnightblue" points="341.53,-621.95 351.88,-619.7 342.38,-615 341.53,-621.95"/>
</g>
<!-- Node16 -->
<g id="node16" class="node">
<title>Node16</title>
<g id="a_node16"><a xlink:href="namespacepb3d__ops.html#a4218b582c5029ff05893265fa329877b" target="_top" xlink:title="Reconstructs grid variables from PB3D HDF5 output.">
<polygon fill="white" stroke="black" points="160,-393.16 160,-427.16 309,-427.16 309,-393.16 160,-393.16"/>
<text text-anchor="start" x="168" y="-413.56" font-family="Ubuntu Mono" font-size="12.00">pb3d_ops::reconstruct</text>
<text text-anchor="middle" x="234.5" y="-400.56" font-family="Ubuntu Mono" font-size="12.00">_pb3d_grid</text>
</a>
</g>
</g>
<!-- Node1&#45;&gt;Node16 -->
<g id="edge24" class="edge">
<title>Node1&#45;&gt;Node16</title>
<path fill="none" stroke="midnightblue" d="M76.3,-566.9C94.26,-544.04 127.74,-502.88 160,-471.16 173.32,-458.06 189.14,-444.68 202.69,-433.8"/>
<polygon fill="midnightblue" stroke="midnightblue" points="205.13,-436.33 210.79,-427.38 200.78,-430.85 205.13,-436.33"/>
</g>
<!-- Node29 -->
<g id="node29" class="node">
<title>Node29</title>
<g id="a_node29"><a xlink:href="namespacempi__utilities.html#a790ea24d32dd0e249541c1e57cd85536" target="_top" xlink:title="Wait for all processes, wrapper to MPI barrier.">
<polygon fill="white" stroke="black" points="160.5,-352.66 160.5,-373.66 308.5,-373.66 308.5,-352.66 160.5,-352.66"/>
<text text-anchor="middle" x="234.5" y="-360.06" font-family="Ubuntu Mono" font-size="12.00">mpi_utilities::wait_mpi</text>
</a>
</g>
</g>
<!-- Node1&#45;&gt;Node29 -->
<g id="edge51" class="edge">
<title>Node1&#45;&gt;Node29</title>
<path fill="none" stroke="midnightblue" d="M66.28,-566.91C74.59,-527.98 100.25,-432.81 160,-383.16 162,-381.49 164.13,-379.96 166.36,-378.56"/>
<polygon fill="midnightblue" stroke="midnightblue" points="168.17,-381.56 175.34,-373.77 164.87,-375.39 168.17,-381.56"/>
</g>
<!-- Node2&#45;&gt;Node3 -->
<g id="edge2" class="edge">
<title>Node2&#45;&gt;Node3</title>
<path fill="none" stroke="midnightblue" d="M862.16,-785.35C979.03,-791.72 1221.8,-798.38 1287,-749.16 1365.65,-689.77 1378.32,-558.58 1380.23,-507.8"/>
<polygon fill="midnightblue" stroke="midnightblue" points="1383.73,-507.81 1380.5,-497.72 1376.73,-507.62 1383.73,-507.81"/>
</g>
<!-- Node2&#45;&gt;Node4 -->
<g id="edge3" class="edge">
<title>Node2&#45;&gt;Node4</title>
<path fill="none" stroke="midnightblue" d="M824.82,-763.97C841.9,-751.95 863.9,-734.77 880,-716.16 927.54,-661.19 965.72,-583.01 982.2,-546.46"/>
<polygon fill="midnightblue" stroke="midnightblue" points="985.58,-547.47 986.43,-536.91 979.18,-544.63 985.58,-547.47"/>
</g>
<!-- Node4&#45;&gt;Node3 -->
<g id="edge6" class="edge">
<title>Node4&#45;&gt;Node3</title>
<path fill="none" stroke="midnightblue" d="M1044.77,-515.61C1063.38,-512.15 1084.57,-508.57 1104,-506.16 1175.59,-497.27 1258.15,-492.28 1314.29,-489.66"/>
<polygon fill="midnightblue" stroke="midnightblue" points="1314.63,-493.15 1324.46,-489.2 1314.31,-486.16 1314.63,-493.15"/>
</g>
<!-- Node5 -->
<g id="node5" class="node">
<title>Node5</title>
<g id="a_node5"><a xlink:href="namespacemessages.html#a61fd0b51b5e37d58fdc993c01792a3fd" target="_top" xlink:title="Returns the time.">
<polygon fill="white" stroke="black" points="1125.5,-555.66 1125.5,-576.66 1265.5,-576.66 1265.5,-555.66 1125.5,-555.66"/>
<text text-anchor="middle" x="1195.5" y="-563.06" font-family="Ubuntu Mono" font-size="12.00">messages::get_clock</text>
</a>
</g>
</g>
<!-- Node4&#45;&gt;Node5 -->
<g id="edge4" class="edge">
<title>Node4&#45;&gt;Node5</title>
<path fill="none" stroke="midnightblue" d="M1045.94,-536.67C1072.22,-541.88 1104.14,-548.22 1131.65,-553.68"/>
<polygon fill="midnightblue" stroke="midnightblue" points="1131.07,-557.13 1141.56,-555.65 1132.44,-550.27 1131.07,-557.13"/>
</g>
<!-- Node6 -->
<g id="node6" class="node">
<title>Node6</title>
<g id="a_node6"><a xlink:href="namespacemessages.html#a82dddaab795b78b3d39e1ff1aab2f665" target="_top" xlink:title="Returns the memory usage in kilobytes.">
<polygon fill="white" stroke="black" points="1104,-515.66 1104,-536.66 1287,-536.66 1287,-515.66 1104,-515.66"/>
<text text-anchor="middle" x="1195.5" y="-523.06" font-family="Ubuntu Mono" font-size="12.00">messages::get_mem_usage</text>
</a>
</g>
</g>
<!-- Node4&#45;&gt;Node6 -->
<g id="edge5" class="edge">
<title>Node4&#45;&gt;Node6</title>
<path fill="none" stroke="midnightblue" d="M1049.13,-526.16C1063.08,-526.16 1078.45,-526.16 1093.83,-526.16"/>
<polygon fill="midnightblue" stroke="midnightblue" points="1093.91,-529.66 1103.91,-526.16 1093.91,-522.66 1093.91,-529.66"/>
</g>
<!-- Node8&#45;&gt;Node3 -->
<g id="edge9" class="edge">
<title>Node8&#45;&gt;Node3</title>
<path fill="none" stroke="midnightblue" d="M612.33,-659.7C632.62,-675.63 674.03,-705.13 715,-716.16 785.82,-735.21 807.54,-727.45 880,-716.16 1067.63,-686.92 1126.27,-687.28 1287,-586.16 1320.94,-564.8 1350.96,-528.28 1367.34,-506.07"/>
<polygon fill="midnightblue" stroke="midnightblue" points="1370.31,-507.94 1373.32,-497.78 1364.63,-503.84 1370.31,-507.94"/>
</g>
<!-- Node8&#45;&gt;Node4 -->
<g id="edge14" class="edge">
<title>Node8&#45;&gt;Node4</title>
<path fill="none" stroke="midnightblue" d="M646.61,-638.61C714.73,-623.15 837.25,-594.52 880,-579.16 909.06,-568.71 940.71,-553.16 962.74,-541.6"/>
<polygon fill="midnightblue" stroke="midnightblue" points="964.67,-544.54 971.86,-536.76 961.38,-538.36 964.67,-544.54"/>
</g>
<!-- Node8&#45;&gt;Node9 -->
<g id="edge10" class="edge">
<title>Node8&#45;&gt;Node9</title>
<path fill="none" stroke="midnightblue" d="M616.64,-638.46C651.36,-616.77 730.18,-567.56 770.97,-542.09"/>
<polygon fill="midnightblue" stroke="midnightblue" points="772.91,-545.01 779.54,-536.74 769.21,-539.07 772.91,-545.01"/>
</g>
<!-- Node10 -->
<g id="node10" class="node">
<title>Node10</title>
<g id="a_node10"><a xlink:href="namespacefiles__utilities.html#ac6066df405564ba2f5e3c4bba726c1f8" target="_top" xlink:title="Search for available new unit.">
<polygon fill="white" stroke="black" points="725,-685.66 725,-706.66 870,-706.66 870,-685.66 725,-685.66"/>
<text text-anchor="middle" x="797.5" y="-693.06" font-family="Ubuntu Mono" font-size="12.00">files_utilities::nextunit</text>
</a>
</g>
</g>
<!-- Node8&#45;&gt;Node10 -->
<g id="edge12" class="edge">
<title>Node8&#45;&gt;Node10</title>
<path fill="none" stroke="midnightblue" d="M643.71,-659.7C672.99,-666.69 711.57,-675.89 742.64,-683.3"/>
<polygon fill="midnightblue" stroke="midnightblue" points="741.9,-686.73 752.44,-685.64 743.52,-679.92 741.9,-686.73"/>
</g>
<!-- Node11 -->
<g id="node11" class="node">
<title>Node11</title>
<g id="a_node11"><a xlink:href="namespaceoutput__ops.html#aa9e4855511b6ea16a08b3efb587bec51" target="_top" xlink:title="Executes command line, or displays a message if disabled.">
<polygon fill="white" stroke="black" points="715,-632.16 715,-666.16 880,-666.16 880,-632.16 715,-632.16"/>
<text text-anchor="start" x="723" y="-652.56" font-family="Ubuntu Mono" font-size="12.00">output_ops::use_execute</text>
<text text-anchor="middle" x="797.5" y="-639.56" font-family="Ubuntu Mono" font-size="12.00">_command_line</text>
</a>
</g>
</g>
<!-- Node8&#45;&gt;Node11 -->
<g id="edge13" class="edge">
<title>Node8&#45;&gt;Node11</title>
<path fill="none" stroke="midnightblue" d="M668.68,-649.16C680.37,-649.16 692.67,-649.16 704.83,-649.16"/>
<polygon fill="midnightblue" stroke="midnightblue" points="705,-652.66 715,-649.16 705,-645.66 705,-652.66"/>
</g>
<!-- Node9&#45;&gt;Node4 -->
<g id="edge11" class="edge">
<title>Node9&#45;&gt;Node4</title>
<path fill="none" stroke="midnightblue" d="M856.52,-526.16C878.02,-526.16 902.57,-526.16 924.75,-526.16"/>
<polygon fill="midnightblue" stroke="midnightblue" points="924.76,-529.66 934.75,-526.16 924.75,-522.66 924.76,-529.66"/>
</g>
<!-- Node12&#45;&gt;Node4 -->
<g id="edge19" class="edge">
<title>Node12&#45;&gt;Node4</title>
<path fill="none" stroke="midnightblue" d="M667.18,-466.39C724.69,-456.48 808.96,-448.19 880,-466.16 913.08,-474.52 946.99,-494.92 968.48,-509.61"/>
<polygon fill="midnightblue" stroke="midnightblue" points="966.7,-512.63 976.89,-515.5 970.71,-506.9 966.7,-512.63"/>
</g>
<!-- Node12&#45;&gt;Node9 -->
<g id="edge16" class="edge">
<title>Node12&#45;&gt;Node9</title>
<path fill="none" stroke="midnightblue" d="M667.02,-496.58C690.99,-502.05 717.67,-508.15 740.57,-513.38"/>
<polygon fill="midnightblue" stroke="midnightblue" points="739.93,-516.82 750.46,-515.64 741.49,-510 739.93,-516.82"/>
</g>
<!-- Node13 -->
<g id="node13" class="node">
<title>Node13</title>
<g id="a_node13"><a xlink:href="namespacestr__utilities.html#ac778d706b2e021672618939ab58fdd32" target="_top" xlink:title="Convert a real (double) to string.">
<polygon fill="white" stroke="black" points="1135,-216.66 1135,-237.66 1256,-237.66 1256,-216.66 1135,-216.66"/>
<text text-anchor="middle" x="1195.5" y="-224.06" font-family="Ubuntu Mono" font-size="12.00">str_utilities::r2strt</text>
</a>
</g>
</g>
<!-- Node12&#45;&gt;Node13 -->
<g id="edge17" class="edge">
<title>Node12&#45;&gt;Node13</title>
<path fill="none" stroke="midnightblue" d="M608.25,-463.7C624.68,-432.8 663.22,-368.68 715,-336.16 782.81,-293.57 1008.71,-254.87 1124.6,-237.22"/>
<polygon fill="midnightblue" stroke="midnightblue" points="1125.42,-240.64 1134.79,-235.68 1124.37,-233.72 1125.42,-240.64"/>
</g>
<!-- Node14 -->
<g id="node14" class="node">
<title>Node14</title>
<g id="a_node14"><a xlink:href="namespacegrid__utilities.html#a67001ff9bbcad707aacf17f90a748d90" target="_top" xlink:title="Trim a grid, removing any overlap between the different regions.">
<polygon fill="white" stroke="black" points="723,-475.66 723,-496.66 872,-496.66 872,-475.66 723,-475.66"/>
<text text-anchor="middle" x="797.5" y="-483.06" font-family="Ubuntu Mono" font-size="12.00">grid_utilities::trim_grid</text>
</a>
</g>
</g>
<!-- Node12&#45;&gt;Node14 -->
<g id="edge18" class="edge">
<title>Node12&#45;&gt;Node14</title>
<path fill="none" stroke="midnightblue" d="M667.02,-482.87C681.59,-483.24 697.17,-483.63 712.29,-484.02"/>
<polygon fill="midnightblue" stroke="midnightblue" points="712.58,-487.53 722.66,-484.28 712.75,-480.53 712.58,-487.53"/>
</g>
<!-- Node15&#45;&gt;Node8 -->
<g id="edge23" class="edge">
<title>Node15&#45;&gt;Node8</title>
<path fill="none" stroke="midnightblue" d="M475.18,-634.45C489.05,-636.12 503.98,-637.91 518.48,-639.66"/>
<polygon fill="midnightblue" stroke="midnightblue" points="518.09,-643.13 528.44,-640.85 518.93,-636.18 518.09,-643.13"/>
</g>
<!-- Node17 -->
<g id="node17" class="node">
<title>Node17</title>
<g id="a_node17"><a xlink:href="namespacepb3d__ops.html#a528ae2857b7272d29d96f66ee60980a7" target="_top" xlink:title="get grid size">
<polygon fill="white" stroke="black" points="345,-380.16 345,-414.16 482,-414.16 482,-380.16 345,-380.16"/>
<text text-anchor="start" x="353" y="-400.56" font-family="Ubuntu Mono" font-size="12.00">pb3d_ops::get_pb3d</text>
<text text-anchor="middle" x="413.5" y="-387.56" font-family="Ubuntu Mono" font-size="12.00">_grid_size</text>
</a>
</g>
</g>
<!-- Node16&#45;&gt;Node17 -->
<g id="edge25" class="edge">
<title>Node16&#45;&gt;Node17</title>
<path fill="none" stroke="midnightblue" d="M309.03,-404.76C317.56,-404.13 326.28,-403.49 334.87,-402.86"/>
<polygon fill="midnightblue" stroke="midnightblue" points="335.15,-406.35 344.87,-402.12 334.64,-399.36 335.15,-406.35"/>
</g>
<!-- Node18 -->
<g id="node18" class="node">
<title>Node18</title>
<g id="a_node18"><a xlink:href="namespacehdf5__ops.html#a5108e0d6f6b492cb981505ebceedd9ee" target="_top" xlink:title="Reads a PB3D output file in HDF5 format.">
<polygon fill="white" stroke="black" points="518,-310.66 518,-331.66 679,-331.66 679,-310.66 518,-310.66"/>
<text text-anchor="middle" x="598.5" y="-318.06" font-family="Ubuntu Mono" font-size="12.00">hdf5_ops::read_hdf5_arr</text>
</a>
</g>
</g>
<!-- Node16&#45;&gt;Node18 -->
<g id="edge50" class="edge">
<title>Node16&#45;&gt;Node18</title>
<path fill="none" stroke="midnightblue" d="M281.84,-393.14C310.94,-382.46 343.3,-370.63 345,-370.16 401.86,-354.36 467.3,-341.82 517.31,-333.38"/>
<polygon fill="midnightblue" stroke="midnightblue" points="518.13,-336.79 527.42,-331.69 516.98,-329.88 518.13,-336.79"/>
</g>
<!-- Node17&#45;&gt;Node18 -->
<g id="edge26" class="edge">
<title>Node17&#45;&gt;Node18</title>
<path fill="none" stroke="midnightblue" d="M455.57,-380.1C487.8,-366.71 532.18,-348.28 562.69,-335.61"/>
<polygon fill="midnightblue" stroke="midnightblue" points="564.18,-338.78 572.07,-331.72 561.5,-332.32 564.18,-338.78"/>
</g>
<!-- Node18&#45;&gt;Node3 -->
<g id="edge27" class="edge">
<title>Node18&#45;&gt;Node3</title>
<path fill="none" stroke="midnightblue" d="M679.1,-321.2C810.7,-323.9 1079.69,-340.67 1287,-427.16 1313.62,-438.26 1341.04,-456.86 1359.25,-470.42"/>
<polygon fill="midnightblue" stroke="midnightblue" points="1357.32,-473.35 1367.4,-476.61 1361.55,-467.77 1357.32,-473.35"/>
</g>
<!-- Node18&#45;&gt;Node4 -->
<g id="edge49" class="edge">
<title>Node18&#45;&gt;Node4</title>
<path fill="none" stroke="midnightblue" d="M615.48,-331.73C637.34,-345.92 678.1,-371.4 715,-389.16 785.74,-423.19 810.24,-416.16 880,-452.16 912.56,-468.96 947.27,-493.25 969.04,-509.36"/>
<polygon fill="midnightblue" stroke="midnightblue" points="967.15,-512.33 977.26,-515.52 971.35,-506.72 967.15,-512.33"/>
</g>
<!-- Node19 -->
<g id="node19" class="node">
<title>Node19</title>
<g id="a_node19"><a xlink:href="namespacehdf5__utilities.html#aa9d76166f970a7052cd0d96c8f3ee0be" target="_top" xlink:title="Lists all variables in a HDF5 group.">
<polygon fill="white" stroke="black" points="735,-346.16 735,-380.16 860,-380.16 860,-346.16 735,-346.16"/>
<text text-anchor="start" x="743" y="-366.56" font-family="Ubuntu Mono" font-size="12.00">hdf5_utilities::list</text>
<text text-anchor="middle" x="797.5" y="-353.56" font-family="Ubuntu Mono" font-size="12.00">_all_vars_in_group</text>
</a>
</g>
</g>
<!-- Node18&#45;&gt;Node19 -->
<g id="edge28" class="edge">
<title>Node18&#45;&gt;Node19</title>
<path fill="none" stroke="midnightblue" d="M648.96,-331.7C671.9,-336.59 699.6,-342.5 724.78,-347.87"/>
<polygon fill="midnightblue" stroke="midnightblue" points="724.15,-351.31 734.66,-349.97 725.61,-344.46 724.15,-351.31"/>
</g>
<!-- Node20 -->
<g id="node20" class="node">
<title>Node20</title>
<g id="a_node20"><a xlink:href="namespacempi__utilities.html#a5a789d05be41d6109c01f46cc98620c8" target="_top" xlink:title="Request access to lock of a BL (blocking) or optionally a NB (non&#45;blocking) type.">
<polygon fill="white" stroke="black" points="738,-151.16 738,-185.16 857,-185.16 857,-151.16 738,-151.16"/>
<text text-anchor="start" x="746" y="-171.56" font-family="Ubuntu Mono" font-size="12.00">mpi_utilities::lock</text>
<text text-anchor="middle" x="797.5" y="-158.56" font-family="Ubuntu Mono" font-size="12.00">_req_acc</text>
</a>
</g>
</g>
<!-- Node18&#45;&gt;Node20 -->
<g id="edge31" class="edge">
<title>Node18&#45;&gt;Node20</title>
<path fill="none" stroke="midnightblue" d="M613.04,-310.64C644.48,-286.22 723.05,-225.2 766.48,-191.47"/>
<polygon fill="midnightblue" stroke="midnightblue" points="768.66,-194.21 774.41,-185.31 764.37,-188.68 768.66,-194.21"/>
</g>
<!-- Node27 -->
<g id="node27" class="node">
<title>Node27</title>
<g id="a_node27"><a xlink:href="namespacempi__utilities.html#a86f9982a0f92b51a916f832d9a3d8ba9" target="_top" xlink:title="Returns access to a lock.">
<polygon fill="white" stroke="black" points="738,-85.16 738,-119.16 857,-119.16 857,-85.16 738,-85.16"/>
<text text-anchor="start" x="746" y="-105.56" font-family="Ubuntu Mono" font-size="12.00">mpi_utilities::lock</text>
<text text-anchor="middle" x="797.5" y="-92.56" font-family="Ubuntu Mono" font-size="12.00">_return_acc</text>
</a>
</g>
</g>
<!-- Node18&#45;&gt;Node27 -->
<g id="edge43" class="edge">
<title>Node18&#45;&gt;Node27</title>
<path fill="none" stroke="midnightblue" d="M603.87,-310.38C616.66,-279.99 656.83,-192.52 715,-141.16 722.5,-134.54 731.31,-128.8 740.33,-123.91"/>
<polygon fill="midnightblue" stroke="midnightblue" points="742.05,-126.96 749.37,-119.3 738.87,-120.72 742.05,-126.96"/>
</g>
<!-- Node28 -->
<g id="node28" class="node">
<title>Node28</title>
<g id="a_node28"><a xlink:href="namespacehdf5__utilities.html#a7574320980affc30a584f7776d33a51c" target="_top" xlink:title="Sets up the chunk property list and/or the 1D hyperslabs that correspond to a local subset of lim_tot...">
<polygon fill="white" stroke="black" points="739,-32.16 739,-66.16 856,-66.16 856,-32.16 739,-32.16"/>
<text text-anchor="start" x="747" y="-52.56" font-family="Ubuntu Mono" font-size="12.00">hdf5_utilities::set</text>
<text text-anchor="middle" x="797.5" y="-39.56" font-family="Ubuntu Mono" font-size="12.00">_1d_vars</text>
</a>
</g>
</g>
<!-- Node18&#45;&gt;Node28 -->
<g id="edge48" class="edge">
<title>Node18&#45;&gt;Node28</title>
<path fill="none" stroke="midnightblue" d="M601.37,-310.47C608.56,-272.49 638.05,-142.69 715,-75.16 719.43,-71.26 724.45,-67.95 729.77,-65.14"/>
<polygon fill="midnightblue" stroke="midnightblue" points="731.37,-68.26 738.95,-60.85 728.41,-61.91 731.37,-68.26"/>
</g>
<!-- Node19&#45;&gt;Node3 -->
<g id="edge29" class="edge">
<title>Node19&#45;&gt;Node3</title>
<path fill="none" stroke="midnightblue" d="M860.23,-376.31C972.86,-400.3 1210.26,-450.88 1321.12,-474.5"/>
<polygon fill="midnightblue" stroke="midnightblue" points="1320.62,-477.98 1331.13,-476.64 1322.08,-471.13 1320.62,-477.98"/>
</g>
<!-- Node19&#45;&gt;Node4 -->
<g id="edge30" class="edge">
<title>Node19&#45;&gt;Node4</title>
<path fill="none" stroke="midnightblue" d="M853.06,-380.22C862.47,-384.36 871.84,-389.32 880,-395.16 923.78,-426.48 961.03,-478.8 979.18,-506.9"/>
<polygon fill="midnightblue" stroke="midnightblue" points="976.27,-508.86 984.58,-515.44 982.19,-505.12 976.27,-508.86"/>
</g>
<!-- Node21 -->
<g id="node21" class="node">
<title>Node21</title>
<g id="a_node21"><a xlink:href="namespacempi__utilities.html#a17c39b0498528e2532c8347b0b7dec86" target="_top" xlink:title="Get notified that the rank can get the lock.">
<polygon fill="white" stroke="black" points="932.5,-178.16 932.5,-212.16 1051.5,-212.16 1051.5,-178.16 932.5,-178.16"/>
<text text-anchor="start" x="940.5" y="-198.56" font-family="Ubuntu Mono" font-size="12.00">mpi_utilities::lock</text>
<text text-anchor="middle" x="992" y="-185.56" font-family="Ubuntu Mono" font-size="12.00">_get_notified</text>
</a>
</g>
</g>
<!-- Node20&#45;&gt;Node21 -->
<g id="edge32" class="edge">
<title>Node20&#45;&gt;Node21</title>
<path fill="none" stroke="midnightblue" d="M857.04,-176.37C877.67,-179.26 901.04,-182.54 922.42,-185.54"/>
<polygon fill="midnightblue" stroke="midnightblue" points="922.02,-189.01 932.41,-186.94 922.99,-182.08 922.02,-189.01"/>
</g>
<!-- Node22 -->
<g id="node22" class="node">
<title>Node22</title>
<g id="a_node22"><a xlink:href="namespacempi__utilities.html#abe5bf3ae3b6a06eda18c2f4d62ac09c5" target="_top" xlink:title="Returns the header for lock debug messages.">
<polygon fill="white" stroke="black" points="1136,-138.16 1136,-172.16 1255,-172.16 1255,-138.16 1136,-138.16"/>
<text text-anchor="start" x="1144" y="-158.56" font-family="Ubuntu Mono" font-size="12.00">mpi_utilities::lock</text>
<text text-anchor="middle" x="1195.5" y="-145.56" font-family="Ubuntu Mono" font-size="12.00">_header</text>
</a>
</g>
</g>
<!-- Node20&#45;&gt;Node22 -->
<g id="edge36" class="edge">
<title>Node20&#45;&gt;Node22</title>
<path fill="none" stroke="midnightblue" d="M827.25,-185.3C850.33,-198.01 884.06,-214.28 916,-221.16 982.04,-235.36 1002.39,-237.24 1068,-221.16 1086.04,-216.73 1126.36,-194.84 1156.67,-177.46"/>
<polygon fill="midnightblue" stroke="midnightblue" points="1158.8,-180.27 1165.71,-172.24 1155.3,-174.21 1158.8,-180.27"/>
</g>
<!-- Node24 -->
<g id="node24" class="node">
<title>Node24</title>
<g id="a_node24"><a xlink:href="namespacempi__utilities.html#a263a30c79639d97f5faffdb566b5a811" target="_top" xlink:title="Notifies a rank that they can get the lock.">
<polygon fill="white" stroke="black" points="932.5,-72.16 932.5,-106.16 1051.5,-106.16 1051.5,-72.16 932.5,-72.16"/>
<text text-anchor="start" x="940.5" y="-92.56" font-family="Ubuntu Mono" font-size="12.00">mpi_utilities::lock</text>
<text text-anchor="middle" x="992" y="-79.56" font-family="Ubuntu Mono" font-size="12.00">_notify</text>
</a>
</g>
</g>
<!-- Node20&#45;&gt;Node24 -->
<g id="edge37" class="edge">
<title>Node20&#45;&gt;Node24</title>
<path fill="none" stroke="midnightblue" d="M834.14,-151.07C857.25,-140.24 888.14,-126.24 916,-115.16 920.68,-113.29 925.56,-111.43 930.47,-109.61"/>
<polygon fill="midnightblue" stroke="midnightblue" points="931.74,-112.87 939.94,-106.16 929.34,-106.3 931.74,-112.87"/>
</g>
<!-- Node25 -->
<g id="node25" class="node">
<title>Node25</title>
<g id="a_node25"><a xlink:href="namespacempi__utilities.html#a3b0349e5ec825e14083e3126c3e7ba65" target="_top" xlink:title="Adds, removes or sets to active a rank from the waiting list for a lock and returns the lock waiting ...">
<polygon fill="white" stroke="black" points="932.5,-125.16 932.5,-159.16 1051.5,-159.16 1051.5,-125.16 932.5,-125.16"/>
<text text-anchor="start" x="940.5" y="-145.56" font-family="Ubuntu Mono" font-size="12.00">mpi_utilities::lock</text>
<text text-anchor="middle" x="992" y="-132.56" font-family="Ubuntu Mono" font-size="12.00">_wl_change</text>
</a>
</g>
</g>
<!-- Node20&#45;&gt;Node25 -->
<g id="edge39" class="edge">
<title>Node20&#45;&gt;Node25</title>
<path fill="none" stroke="midnightblue" d="M857.04,-160.25C877.67,-157.46 901.04,-154.31 922.42,-151.42"/>
<polygon fill="midnightblue" stroke="midnightblue" points="922.96,-154.88 932.41,-150.07 922.03,-147.94 922.96,-154.88"/>
</g>
<!-- Node26 -->
<g id="node26" class="node">
<title>Node26</title>
<g id="a_node26"><a xlink:href="namespacempi__utilities.html#a74e2e82b561f403ca8087c3925f76e29" target="_top" xlink:title="Decides whether a waiting list is empty.">
<polygon fill="white" stroke="black" points="916,-31.66 916,-52.66 1068,-52.66 1068,-31.66 916,-31.66"/>
<text text-anchor="middle" x="992" y="-39.06" font-family="Ubuntu Mono" font-size="12.00">mpi_utilities::wl_empty</text>
</a>
</g>
</g>
<!-- Node20&#45;&gt;Node26 -->
<g id="edge42" class="edge">
<title>Node20&#45;&gt;Node26</title>
<path fill="none" stroke="midnightblue" d="M845.64,-151.07C857.8,-145.12 870.21,-137.53 880,-128.16 904.13,-105.04 889.73,-82.8 916,-62.16 918.28,-60.36 920.72,-58.73 923.25,-57.24"/>
<polygon fill="midnightblue" stroke="midnightblue" points="924.87,-60.34 932.23,-52.72 921.73,-54.09 924.87,-60.34"/>
</g>
<!-- Node21&#45;&gt;Node22 -->
<g id="edge33" class="edge">
<title>Node21&#45;&gt;Node22</title>
<path fill="none" stroke="midnightblue" d="M1051.55,-183.53C1074.84,-178.91 1101.79,-173.56 1125.98,-168.76"/>
<polygon fill="midnightblue" stroke="midnightblue" points="1126.67,-172.19 1135.8,-166.81 1125.31,-165.32 1126.67,-172.19"/>
</g>
<!-- Node22&#45;&gt;Node3 -->
<g id="edge34" class="edge">
<title>Node22&#45;&gt;Node3</title>
<path fill="none" stroke="midnightblue" d="M1240.31,-172.25C1256.9,-180.6 1274.72,-192.15 1287,-207.16 1352.79,-287.56 1373.02,-416.19 1378.58,-466.26"/>
<polygon fill="midnightblue" stroke="midnightblue" points="1375.13,-466.88 1379.63,-476.47 1382.09,-466.16 1375.13,-466.88"/>
</g>
<!-- Node23 -->
<g id="node23" class="node">
<title>Node23</title>
<g id="a_node23"><a xlink:href="namespacestr__utilities.html#acb8c4e66aead51f178e47fdea8d7a7db" target="_top" xlink:title="Convert an integer to string.">
<polygon fill="white" stroke="black" points="1323,-144.66 1323,-165.66 1440,-165.66 1440,-144.66 1323,-144.66"/>
<text text-anchor="middle" x="1381.5" y="-152.06" font-family="Ubuntu Mono" font-size="12.00">str_utilities::ii2str</text>
</a>
</g>
</g>
<!-- Node22&#45;&gt;Node23 -->
<g id="edge35" class="edge">
<title>Node22&#45;&gt;Node23</title>
<path fill="none" stroke="midnightblue" d="M1255.22,-155.16C1273.59,-155.16 1294,-155.16 1312.92,-155.16"/>
<polygon fill="midnightblue" stroke="midnightblue" points="1312.96,-158.66 1322.96,-155.16 1312.96,-151.66 1312.96,-158.66"/>
</g>
<!-- Node24&#45;&gt;Node22 -->
<g id="edge38" class="edge">
<title>Node24&#45;&gt;Node22</title>
<path fill="none" stroke="midnightblue" d="M1045.15,-106.24C1071.96,-115.02 1104.8,-125.78 1132.86,-134.97"/>
<polygon fill="midnightblue" stroke="midnightblue" points="1131.97,-138.36 1142.57,-138.14 1134.15,-131.71 1131.97,-138.36"/>
</g>
<!-- Node25&#45;&gt;Node13 -->
<g id="edge41" class="edge">
<title>Node25&#45;&gt;Node13</title>
<path fill="none" stroke="midnightblue" d="M1044.5,-159.22C1052.42,-162.07 1060.46,-165.1 1068,-168.16 1101.46,-181.71 1138.81,-199.47 1164.2,-211.95"/>
<polygon fill="midnightblue" stroke="midnightblue" points="1162.79,-215.16 1173.31,-216.45 1165.9,-208.89 1162.79,-215.16"/>
</g>
<!-- Node25&#45;&gt;Node22 -->
<g id="edge40" class="edge">
<title>Node25&#45;&gt;Node22</title>
<path fill="none" stroke="midnightblue" d="M1051.55,-145.93C1074.73,-147.43 1101.55,-149.16 1125.66,-150.71"/>
<polygon fill="midnightblue" stroke="midnightblue" points="1125.6,-154.22 1135.8,-151.37 1126.05,-147.23 1125.6,-154.22"/>
</g>
<!-- Node27&#45;&gt;Node22 -->
<g id="edge44" class="edge">
<title>Node27&#45;&gt;Node22</title>
<path fill="none" stroke="midnightblue" d="M857.39,-87.86C865.42,-84.46 873.22,-80.28 880,-75.16 902.72,-57.99 890.84,-35.48 916,-22.16 975.7,9.46 1005.92,4.48 1068,-22.16 1118.64,-43.88 1158.59,-96.94 1179.18,-129.09"/>
<polygon fill="midnightblue" stroke="midnightblue" points="1176.45,-131.32 1184.71,-137.95 1182.39,-127.62 1176.45,-131.32"/>
</g>
<!-- Node27&#45;&gt;Node24 -->
<g id="edge45" class="edge">
<title>Node27&#45;&gt;Node24</title>
<path fill="none" stroke="midnightblue" d="M857.04,-98.2C877.67,-96.81 901.04,-95.23 922.42,-93.79"/>
<polygon fill="midnightblue" stroke="midnightblue" points="922.67,-97.28 932.41,-93.11 922.19,-90.29 922.67,-97.28"/>
</g>
<!-- Node27&#45;&gt;Node25 -->
<g id="edge46" class="edge">
<title>Node27&#45;&gt;Node25</title>
<path fill="none" stroke="midnightblue" d="M857.04,-114.32C877.67,-118.61 901.04,-123.46 922.42,-127.9"/>
<polygon fill="midnightblue" stroke="midnightblue" points="921.9,-131.37 932.41,-129.98 923.33,-124.52 921.9,-131.37"/>
</g>
<!-- Node27&#45;&gt;Node26 -->
<g id="edge47" class="edge">
<title>Node27&#45;&gt;Node26</title>
<path fill="none" stroke="midnightblue" d="M850.74,-85.08C860.48,-81.83 870.56,-78.42 880,-75.16 896.08,-69.59 899.77,-67.24 916,-62.16 923.41,-59.83 931.29,-57.54 939.05,-55.39"/>
<polygon fill="midnightblue" stroke="midnightblue" points="940.04,-58.74 948.77,-52.74 938.2,-51.99 940.04,-58.74"/>
</g>
</g>
</svg>
