<?xml version="1.0" encoding="UTF-8" standalone="no"?>
<!DOCTYPE svg PUBLIC "-//W3C//DTD SVG 1.1//EN"
 "http://www.w3.org/Graphics/SVG/1.1/DTD/svg11.dtd">
<!-- Generated by graphviz version 2.38.0 (20140413.2041)
 -->
<!-- Title: vac_utilities::interlaced_vac_copy Pages: 1 -->
<svg width="885pt" height="280pt"
 viewBox="0.00 0.00 885.00 280.00" xmlns="http://www.w3.org/2000/svg" xmlns:xlink="http://www.w3.org/1999/xlink">
<g id="graph0" class="graph" transform="scale(1 1) rotate(0) translate(4 276)">
<title>vac_utilities::interlaced_vac_copy</title>
<polygon fill="white" stroke="none" points="-4,4 -4,-276 881,-276 881,4 -4,4"/>
<!-- Node20 -->
<g id="node1" class="node"><title>Node20</title>
<polygon fill="#bfbfbf" stroke="black" points="0,-64 0,-98 167,-98 167,-64 0,-64"/>
<text text-anchor="start" x="8" y="-84.4" font-family="Ubuntu Mono" font-size="12.00">vac_utilities::interlaced</text>
<text text-anchor="middle" x="83.5" y="-71.4" font-family="Ubuntu Mono" font-size="12.00">_vac_copy</text>
</g>
<!-- Node21 -->
<g id="node2" class="node"><title>Node21</title>
<g id="a_node2"><a xlink:href="namespaceinput__utilities.html#ad9ce824c30b32041ab70f3fb191f06db" target="_top" xlink:title="Queries for a logical value yes or no, where the default answer is also to be provided. ">
<polygon fill="white" stroke="black" points="203,-172.5 203,-193.5 364,-193.5 364,-172.5 203,-172.5"/>
<text text-anchor="middle" x="283.5" y="-179.9" font-family="Ubuntu Mono" font-size="12.00">input_utilities::get_log</text>
</a>
</g>
</g>
<!-- Node20&#45;&gt;Node21 -->
<g id="edge1" class="edge"><title>Node20&#45;&gt;Node21</title>
<path fill="none" stroke="midnightblue" d="M117.641,-98.0725C155.437,-117.543 216.671,-149.088 252.916,-167.76"/>
<polygon fill="midnightblue" stroke="midnightblue" points="251.507,-170.971 262,-172.439 254.713,-164.748 251.507,-170.971"/>
</g>
<!-- Node23 -->
<g id="node4" class="node"><title>Node23</title>
<g id="a_node4"><a xlink:href="namespacemessages.html#aa4a8d01563e92558e8a0875b075ec54c" target="_top" xlink:title="Write output to file identified by output_i. ">
<polygon fill="white" stroke="black" points="579,-172.5 579,-193.5 686,-193.5 686,-172.5 579,-172.5"/>
<text text-anchor="middle" x="632.5" y="-179.9" font-family="Ubuntu Mono" font-size="12.00">messages::writo</text>
</a>
</g>
</g>
<!-- Node20&#45;&gt;Node23 -->
<g id="edge10" class="edge"><title>Node20&#45;&gt;Node23</title>
<path fill="none" stroke="midnightblue" d="M167.126,-83.6285C279.966,-88.0611 475.922,-99.0026 543,-123 569.195,-132.371 595.052,-151.335 611.988,-165.447"/>
<polygon fill="midnightblue" stroke="midnightblue" points="610.117,-168.454 619.986,-172.308 614.675,-163.141 610.117,-168.454"/>
</g>
<!-- Node28 -->
<g id="node9" class="node"><title>Node28</title>
<g id="a_node9"><a xlink:href="namespacevac__utilities.html#ae70e8a1fc132ba79a9a4f49f4944a352" target="_top" xlink:title="Gathers a distributed vector on a single process. ">
<polygon fill="white" stroke="black" points="221,-41 221,-75 346,-75 346,-41 221,-41"/>
<text text-anchor="start" x="229" y="-61.4" font-family="Ubuntu Mono" font-size="12.00">vac_utilities::mat</text>
<text text-anchor="middle" x="283.5" y="-48.4" font-family="Ubuntu Mono" font-size="12.00">_dis2loc</text>
</a>
</g>
</g>
<!-- Node20&#45;&gt;Node28 -->
<g id="edge11" class="edge"><title>Node20&#45;&gt;Node28</title>
<path fill="none" stroke="midnightblue" d="M167.036,-71.4125C181.552,-69.7263 196.553,-67.9837 210.745,-66.3352"/>
<polygon fill="midnightblue" stroke="midnightblue" points="211.387,-69.7842 220.917,-65.1536 210.58,-62.8309 211.387,-69.7842"/>
</g>
<!-- Node30 -->
<g id="node11" class="node"><title>Node30</title>
<g id="a_node11"><a xlink:href="namespacemessages.html#a80797cedef6112b8dccaeda431f0c610" target="_top" xlink:title="Print an array of dimension 2 on the screen. ">
<polygon fill="white" stroke="black" points="215,-0.5 215,-21.5 352,-21.5 352,-0.5 215,-0.5"/>
<text text-anchor="middle" x="283.5" y="-7.9" font-family="Ubuntu Mono" font-size="12.00">messages::print_ar_2</text>
</a>
</g>
</g>
<!-- Node20&#45;&gt;Node30 -->
<g id="edge13" class="edge"><title>Node20&#45;&gt;Node30</title>
<path fill="none" stroke="midnightblue" d="M120.775,-63.9898C143.952,-53.5503 174.837,-40.4228 203,-31 210.307,-28.5552 218.079,-26.2499 225.793,-24.1346"/>
<polygon fill="midnightblue" stroke="midnightblue" points="226.726,-27.5084 235.493,-21.5604 224.93,-20.7425 226.726,-27.5084"/>
</g>
<!-- Node22 -->
<g id="node3" class="node"><title>Node22</title>
<g id="a_node3"><a xlink:href="namespacemessages.html#aed343894ae4a28ad6dfbd1d39aac64ff" target="_top" xlink:title="Stop a timer. ">
<polygon fill="white" stroke="black" points="406,-250.5 406,-271.5 537,-271.5 537,-250.5 406,-250.5"/>
<text text-anchor="middle" x="471.5" y="-257.9" font-family="Ubuntu Mono" font-size="12.00">messages::stop_time</text>
</a>
</g>
</g>
<!-- Node21&#45;&gt;Node22 -->
<g id="edge2" class="edge"><title>Node21&#45;&gt;Node22</title>
<path fill="none" stroke="midnightblue" d="M305.961,-193.548C328.964,-204.689 366.677,-222.478 400,-236 409.288,-239.769 419.385,-243.538 428.957,-246.964"/>
<polygon fill="midnightblue" stroke="midnightblue" points="428.093,-250.371 438.688,-250.397 430.422,-243.769 428.093,-250.371"/>
</g>
<!-- Node21&#45;&gt;Node23 -->
<g id="edge9" class="edge"><title>Node21&#45;&gt;Node23</title>
<path fill="none" stroke="midnightblue" d="M334.286,-193.544C354.568,-197.336 378.305,-201.136 400,-203 463.322,-208.442 479.836,-210.048 543,-203 556.348,-201.511 570.622,-198.795 583.725,-195.834"/>
<polygon fill="midnightblue" stroke="midnightblue" points="584.549,-199.236 593.481,-193.539 582.946,-192.422 584.549,-199.236"/>
</g>
<!-- Node26 -->
<g id="node7" class="node"><title>Node26</title>
<g id="a_node7"><a xlink:href="namespacemessages.html#a84d5988f3ea5ca8dc2834032f896ae90" target="_top" xlink:title="Start a timer. ">
<polygon fill="white" stroke="black" points="403,-172.5 403,-193.5 540,-193.5 540,-172.5 403,-172.5"/>
<text text-anchor="middle" x="471.5" y="-179.9" font-family="Ubuntu Mono" font-size="12.00">messages::start_time</text>
</a>
</g>
</g>
<!-- Node21&#45;&gt;Node26 -->
<g id="edge6" class="edge"><title>Node21&#45;&gt;Node26</title>
<path fill="none" stroke="midnightblue" d="M364.19,-183C373.676,-183 383.35,-183 392.807,-183"/>
<polygon fill="midnightblue" stroke="midnightblue" points="392.965,-186.5 402.965,-183 392.965,-179.5 392.965,-186.5"/>
</g>
<!-- Node27 -->
<g id="node8" class="node"><title>Node27</title>
<g id="a_node8"><a xlink:href="namespacestr__utilities.html#a219964a283968cc6a968db0197d2187e" target="_top" xlink:title="Convert a string to lowercase. ">
<polygon fill="white" stroke="black" points="400,-132.5 400,-153.5 543,-153.5 543,-132.5 400,-132.5"/>
<text text-anchor="middle" x="471.5" y="-139.9" font-family="Ubuntu Mono" font-size="12.00">str_utilities::strh2l</text>
</a>
</g>
</g>
<!-- Node21&#45;&gt;Node27 -->
<g id="edge8" class="edge"><title>Node21&#45;&gt;Node27</title>
<path fill="none" stroke="midnightblue" d="M333.369,-172.49C357.41,-167.321 386.571,-161.049 411.812,-155.621"/>
<polygon fill="midnightblue" stroke="midnightblue" points="412.594,-159.033 421.634,-153.509 411.122,-152.189 412.594,-159.033"/>
</g>
<!-- Node22&#45;&gt;Node23 -->
<g id="edge3" class="edge"><title>Node22&#45;&gt;Node23</title>
<path fill="none" stroke="midnightblue" d="M506.759,-250.383C518.457,-246.357 531.487,-241.423 543,-236 565.765,-225.278 590.201,-210.359 607.615,-199.081"/>
<polygon fill="midnightblue" stroke="midnightblue" points="609.595,-201.969 616.036,-193.557 605.755,-196.116 609.595,-201.969"/>
</g>
<!-- Node24 -->
<g id="node5" class="node"><title>Node24</title>
<g id="a_node5"><a xlink:href="namespacemessages.html#a82dddaab795b78b3d39e1ff1aab2f665" target="_top" xlink:title="Returns the memory usage in kilobytes. ">
<polygon fill="white" stroke="black" points="722,-192.5 722,-213.5 877,-213.5 877,-192.5 722,-192.5"/>
<text text-anchor="middle" x="799.5" y="-199.9" font-family="Ubuntu Mono" font-size="12.00">messages::get_mem_usage</text>
</a>
</g>
</g>
<!-- Node23&#45;&gt;Node24 -->
<g id="edge4" class="edge"><title>Node23&#45;&gt;Node24</title>
<path fill="none" stroke="midnightblue" d="M686.161,-189.383C694.452,-190.388 703.208,-191.449 712.025,-192.518"/>
<polygon fill="midnightblue" stroke="midnightblue" points="711.635,-195.996 721.984,-193.725 712.478,-189.047 711.635,-195.996"/>
</g>
<!-- Node25 -->
<g id="node6" class="node"><title>Node25</title>
<g id="a_node6"><a xlink:href="namespacemessages.html#a61fd0b51b5e37d58fdc993c01792a3fd" target="_top" xlink:title="Returns the time. ">
<polygon fill="white" stroke="black" points="734,-152.5 734,-173.5 865,-173.5 865,-152.5 734,-152.5"/>
<text text-anchor="middle" x="799.5" y="-159.9" font-family="Ubuntu Mono" font-size="12.00">messages::get_clock</text>
</a>
</g>
</g>
<!-- Node23&#45;&gt;Node25 -->
<g id="edge5" class="edge"><title>Node23&#45;&gt;Node25</title>
<path fill="none" stroke="midnightblue" d="M686.161,-176.617C698.142,-175.165 711.094,-173.595 723.797,-172.055"/>
<polygon fill="midnightblue" stroke="midnightblue" points="724.402,-175.507 733.908,-170.829 723.56,-168.558 724.402,-175.507"/>
</g>
<!-- Node26&#45;&gt;Node23 -->
<g id="edge7" class="edge"><title>Node26&#45;&gt;Node23</title>
<path fill="none" stroke="midnightblue" d="M540.392,-183C549.713,-183 559.252,-183 568.481,-183"/>
<polygon fill="midnightblue" stroke="midnightblue" points="568.742,-186.5 578.742,-183 568.742,-179.5 568.742,-186.5"/>
</g>
<!-- Node29 -->
<g id="node10" class="node"><title>Node29</title>
<g id="a_node10"><a xlink:href="namespacevac__vars.html#af0fd2f819434bf7adc494753df4af19c" target="_top" xlink:title="Indicates whether current process is in the context. ">
<polygon fill="white" stroke="black" points="403,-47.5 403,-68.5 540,-68.5 540,-47.5 403,-47.5"/>
<text text-anchor="middle" x="471.5" y="-54.9" font-family="Ubuntu Mono" font-size="12.00">vac_vars::in_context</text>
</a>
</g>
</g>
<!-- Node28&#45;&gt;Node29 -->
<g id="edge12" class="edge"><title>Node28&#45;&gt;Node29</title>
<path fill="none" stroke="midnightblue" d="M346.177,-58C361.097,-58 377.236,-58 392.787,-58"/>
<polygon fill="midnightblue" stroke="midnightblue" points="392.904,-61.5001 402.904,-58 392.904,-54.5001 392.904,-61.5001"/>
</g>
<!-- Node31 -->
<g id="node12" class="node"><title>Node31</title>
<g id="a_node12"><a xlink:href="namespacemessages.html#a5686118397930f505259225f3688216b" target="_top" xlink:title="Print an array of dimension 1 on the screen. ">
<polygon fill="white" stroke="black" points="403,-3.5 403,-24.5 540,-24.5 540,-3.5 403,-3.5"/>
<text text-anchor="middle" x="471.5" y="-10.9" font-family="Ubuntu Mono" font-size="12.00">messages::print_ar_1</text>
</a>
</g>
</g>
<!-- Node30&#45;&gt;Node31 -->
<g id="edge14" class="edge"><title>Node30&#45;&gt;Node31</title>
<path fill="none" stroke="midnightblue" d="M352.176,-12.0916C365.337,-12.3038 379.23,-12.5279 392.688,-12.745"/>
<polygon fill="midnightblue" stroke="midnightblue" points="392.819,-16.2474 402.874,-12.9093 392.932,-9.24835 392.819,-16.2474"/>
</g>
<!-- Node31&#45;&gt;Node23 -->
<g id="edge15" class="edge"><title>Node31&#45;&gt;Node23</title>
<path fill="none" stroke="midnightblue" d="M518.883,-24.6361C527.465,-27.9824 535.937,-32.3411 543,-38 585.184,-71.7973 612.328,-131.524 624.345,-162.728"/>
<polygon fill="midnightblue" stroke="midnightblue" points="621.078,-163.983 627.841,-172.139 627.64,-161.546 621.078,-163.983"/>
</g>
</g>
</svg>
