<?xml version="1.0" encoding="UTF-8" standalone="no"?>
<!DOCTYPE svg PUBLIC "-//W3C//DTD SVG 1.1//EN"
 "http://www.w3.org/Graphics/SVG/1.1/DTD/svg11.dtd">
<!-- Generated by graphviz version 14.1.2 (20260124.0452)
 -->
<!-- Title: mpi_vars::dealloc_lock Pages: 1 -->
<svg width="606pt" height="77pt"
 viewBox="0.00 0.00 606.00 77.00" xmlns="http://www.w3.org/2000/svg" xmlns:xlink="http://www.w3.org/1999/xlink">
<g id="graph0" class="graph" transform="scale(1 1) rotate(0) translate(4 72.75)">
<title>mpi_vars::dealloc_lock</title>
<!-- Node1 -->
<g id="Node000001" class="node">
<title>Node1</title>
<g id="a_Node000001"><a xlink:title="Deallocates a lock.">
<polygon fill="#999999" stroke="#666666" points="598,-40.75 450,-40.75 450,-20 598,-20 598,-40.75"/>
<text xml:space="preserve" text-anchor="middle" x="524" y="-25.35" font-family="Ubuntu Mono" font-size="12.00">mpi_vars::dealloc_lock</text>
</a>
</g>
</g>
<!-- Node2 -->
<g id="Node000002" class="node">
<title>Node2</title>
<g id="a_Node000002"><a xlink:href="namespacempi__ops.html#a0028cc7df4fbd89dbd93de245ab3b2aa" target="_top" xlink:title="Stop MPI.">
<polygon fill="white" stroke="#666666" points="414,-40.75 296,-40.75 296,-20 414,-20 414,-40.75"/>
<text xml:space="preserve" text-anchor="middle" x="355" y="-25.35" font-family="Ubuntu Mono" font-size="12.00">mpi_ops::stop_mpi</text>
</a>
</g>
</g>
<!-- Node1&#45;&gt;Node2 -->
<g id="edge1_Node000001_Node000002" class="edge">
<title>Node1&#45;&gt;Node2</title>
<g id="a_edge1_Node000001_Node000002"><a xlink:title=" ">
<path fill="none" stroke="#63b8ff" d="M438.33,-30.38C430.23,-30.38 422.15,-30.38 414.39,-30.38"/>
<polygon fill="#63b8ff" stroke="#63b8ff" points="438.24,-33.88 448.24,-30.38 438.24,-26.88 438.24,-33.88"/>
</a>
</g>
</g>
<!-- Node3 -->
<g id="Node000003" class="node">
<title>Node3</title>
<g id="a_Node000003"><a xlink:href="PB3D_8f90.html#a36e5b0ce05c9783f58b43c4463b290a1" target="_top" xlink:title="Peeling Ballooning in 3D.">
<polygon fill="white" stroke="#666666" points="88,-68.75 0,-68.75 0,-48 88,-48 88,-68.75"/>
<text xml:space="preserve" text-anchor="middle" x="44" y="-53.35" font-family="Ubuntu Mono" font-size="12.00">__pb3d_f90__</text>
</a>
</g>
</g>
<!-- Node2&#45;&gt;Node3 -->
<g id="edge2_Node000002_Node000003" class="edge">
<title>Node2&#45;&gt;Node3</title>
<g id="a_edge2_Node000002_Node000003"><a xlink:title=" ">
<path fill="none" stroke="#63b8ff" d="M296.94,-43.4C284.8,-45.75 272.02,-47.92 260,-49.38 200.85,-56.55 131.94,-58.28 88.4,-58.56"/>
<polygon fill="#63b8ff" stroke="#63b8ff" points="297.26,-46.91 306.37,-41.51 295.88,-40.05 297.26,-46.91"/>
</a>
</g>
</g>
<!-- Node4 -->
<g id="Node000004" class="node">
<title>Node4</title>
<g id="a_Node000004"><a xlink:href="POST_8f90.html#a28f8fd95cf9c74c0cfd8b386827a7a9b" target="_top" xlink:title="Peeling Ballooning in 3D: postprocessing.">
<polygon fill="white" stroke="#666666" points="88,-20.75 0,-20.75 0,0 88,0 88,-20.75"/>
<text xml:space="preserve" text-anchor="middle" x="44" y="-5.35" font-family="Ubuntu Mono" font-size="12.00">__post_f90__</text>
</a>
</g>
</g>
<!-- Node2&#45;&gt;Node4 -->
<g id="edge3_Node000002_Node000004" class="edge">
<title>Node2&#45;&gt;Node4</title>
<g id="a_edge3_Node000002_Node000004"><a xlink:title=" ">
<path fill="none" stroke="#63b8ff" d="M298.89,-17.37C286.19,-14.9 272.68,-12.67 260,-11.38 200.77,-5.31 131.89,-6.41 88.37,-8.11"/>
<polygon fill="#63b8ff" stroke="#63b8ff" points="297.82,-20.73 308.32,-19.29 299.22,-13.87 297.82,-20.73"/>
</a>
</g>
</g>
<!-- Node5 -->
<g id="Node000005" class="node">
<title>Node5</title>
<g id="a_Node000005"><a xlink:href="namespacempi__ops.html#a40e8610357a9a5b075fef9dab1c3f24f" target="_top" xlink:title="Suddenly stops the computations, aborting MPI, etc.">
<polygon fill="white" stroke="#666666" points="260,-40.75 124,-40.75 124,-20 260,-20 260,-40.75"/>
<text xml:space="preserve" text-anchor="middle" x="192" y="-25.35" font-family="Ubuntu Mono" font-size="12.00">mpi_ops::sudden_stop</text>
</a>
</g>
</g>
<!-- Node2&#45;&gt;Node5 -->
<g id="edge4_Node000002_Node000005" class="edge">
<title>Node2&#45;&gt;Node5</title>
<g id="a_edge4_Node000002_Node000005"><a xlink:title=" ">
<path fill="none" stroke="#63b8ff" d="M284.63,-30.38C276.57,-30.38 268.37,-30.38 260.35,-30.38"/>
<polygon fill="#63b8ff" stroke="#63b8ff" points="284.36,-33.88 294.36,-30.38 284.36,-26.88 284.36,-33.88"/>
</a>
</g>
</g>
<!-- Node5&#45;&gt;Node3 -->
<g id="edge5_Node000005_Node000003" class="edge">
<title>Node5&#45;&gt;Node3</title>
<g id="a_edge5_Node000005_Node000003"><a xlink:title=" ">
<path fill="none" stroke="#63b8ff" d="M123.59,-43.3C111.54,-45.61 99.29,-47.96 88.16,-50.1"/>
<polygon fill="#63b8ff" stroke="#63b8ff" points="123.9,-46.81 133.07,-41.49 122.59,-39.93 123.9,-46.81"/>
</a>
</g>
</g>
<!-- Node5&#45;&gt;Node4 -->
<g id="edge6_Node000005_Node000004" class="edge">
<title>Node5&#45;&gt;Node4</title>
<g id="a_edge6_Node000005_Node000004"><a xlink:title=" ">
<path fill="none" stroke="#63b8ff" d="M112.33,-19.6C104.11,-18.47 95.99,-17.36 88.38,-16.32"/>
<polygon fill="#63b8ff" stroke="#63b8ff" points="111.67,-23.04 122.06,-20.93 112.62,-16.11 111.67,-23.04"/>
</a>
</g>
</g>
</g>
</svg>
