<?xml version="1.0" encoding="UTF-8" standalone="no"?>
<!DOCTYPE svg PUBLIC "-//W3C//DTD SVG 1.1//EN"
 "http://www.w3.org/Graphics/SVG/1.1/DTD/svg11.dtd">
<!-- Generated by graphviz version 2.38.0 (20140413.2041)
 -->
<!-- Title: slepc_ops::setup_mats Pages: 1 -->
<svg width="1583pt" height="875pt"
 viewBox="0.00 0.00 1583.00 875.06" xmlns="http://www.w3.org/2000/svg" xmlns:xlink="http://www.w3.org/1999/xlink">
<g id="graph0" class="graph" transform="scale(1 1) rotate(0) translate(4 871.062)">
<title>slepc_ops::setup_mats</title>
<polygon fill="white" stroke="none" points="-4,4 -4,-871.062 1579,-871.062 1579,4 -4,4"/>
<!-- Node12 -->
<g id="node1" class="node"><title>Node12</title>
<polygon fill="#bfbfbf" stroke="black" points="0,-533.562 0,-554.562 143,-554.562 143,-533.562 0,-533.562"/>
<text text-anchor="middle" x="71.5" y="-540.962" font-family="Ubuntu Mono" font-size="12.00">slepc_ops::setup_mats</text>
</g>
<!-- Node13 -->
<g id="node2" class="node"><title>Node13</title>
<g id="a_node2"><a xlink:href="namespacegrid__utilities.html#a67001ff9bbcad707aacf17f90a748d90" target="_top" xlink:title="grid_utilities::trim_grid">
<polygon fill="white" stroke="black" points="179,-845.562 179,-866.562 346,-866.562 346,-845.562 179,-845.562"/>
<text text-anchor="middle" x="262.5" y="-852.962" font-family="Ubuntu Mono" font-size="12.00">grid_utilities::trim_grid</text>
</a>
</g>
</g>
<!-- Node12&#45;&gt;Node13 -->
<g id="edge1" class="edge"><title>Node12&#45;&gt;Node13</title>
<path fill="none" stroke="midnightblue" d="M73.1735,-554.739C76.395,-596.573 93.8371,-750.949 179,-831.062 183.156,-834.971 187.904,-838.271 192.975,-841.055"/>
<polygon fill="midnightblue" stroke="midnightblue" points="191.86,-844.401 202.395,-845.532 194.865,-838.078 191.86,-844.401"/>
</g>
<!-- Node14 -->
<g id="node3" class="node"><title>Node14</title>
<g id="a_node3"><a xlink:href="namespaceslepc__utilities.html#ae6568f825f3fa8a6e3d45f67f3daf412" target="_top" xlink:title="slepc_utilities::insert\l_block_mat">
<polygon fill="white" stroke="black" points="513,-481.062 513,-515.062 668,-515.062 668,-481.062 513,-481.062"/>
<text text-anchor="start" x="521" y="-501.462" font-family="Ubuntu Mono" font-size="12.00">slepc_utilities::insert</text>
<text text-anchor="middle" x="590.5" y="-488.462" font-family="Ubuntu Mono" font-size="12.00">_block_mat</text>
</a>
</g>
</g>
<!-- Node12&#45;&gt;Node14 -->
<g id="edge2" class="edge"><title>Node12&#45;&gt;Node14</title>
<path fill="none" stroke="midnightblue" d="M143.033,-537.786C236.533,-529.467 401.455,-514.793 502.555,-505.798"/>
<polygon fill="midnightblue" stroke="midnightblue" points="503.089,-509.264 512.74,-504.891 502.469,-502.292 503.089,-509.264"/>
</g>
<!-- Node18 -->
<g id="node7" class="node"><title>Node18</title>
<g id="a_node7"><a xlink:href="namespacemessages.html#aa4a8d01563e92558e8a0875b075ec54c" target="_top" xlink:title="messages::writo">
<polygon fill="white" stroke="black" points="1110,-532.562 1110,-553.562 1217,-553.562 1217,-532.562 1110,-532.562"/>
<text text-anchor="middle" x="1163.5" y="-539.962" font-family="Ubuntu Mono" font-size="12.00">messages::writo</text>
</a>
</g>
</g>
<!-- Node12&#45;&gt;Node18 -->
<g id="edge31" class="edge"><title>Node12&#45;&gt;Node18</title>
<path fill="none" stroke="midnightblue" d="M78.9765,-554.764C110.425,-605.237 252.866,-817.062 428.5,-817.062 428.5,-817.062 428.5,-817.062 794.5,-817.062 919.009,-817.062 975.055,-873.642 1074,-798.062 1149.66,-740.267 1160.97,-613.591 1162.42,-563.772"/>
<polygon fill="midnightblue" stroke="midnightblue" points="1165.92,-563.66 1162.6,-553.598 1158.92,-563.533 1165.92,-563.66"/>
</g>
<!-- Node23 -->
<g id="node12" class="node"><title>Node23</title>
<g id="a_node12"><a xlink:href="namespacestr__utilities.html#a0b97e51770725a3e98ed393d26681414" target="_top" xlink:title="str_utilities::i2str">
<polygon fill="white" stroke="black" points="725,-133.562 725,-154.562 862,-154.562 862,-133.562 725,-133.562"/>
<text text-anchor="middle" x="793.5" y="-140.962" font-family="Ubuntu Mono" font-size="12.00">str_utilities::i2str</text>
</a>
</g>
</g>
<!-- Node12&#45;&gt;Node23 -->
<g id="edge32" class="edge"><title>Node12&#45;&gt;Node23</title>
<path fill="none" stroke="midnightblue" d="M73.1111,-533.331C77.0821,-467.834 101.535,-122.649 179,-60.0617 360.295,86.4146 674.533,-75.4551 766.508,-128.456"/>
<polygon fill="midnightblue" stroke="midnightblue" points="764.782,-131.501 775.184,-133.515 768.308,-125.454 764.782,-131.501"/>
</g>
<!-- Node27 -->
<g id="node16" class="node"><title>Node27</title>
<g id="a_node16"><a xlink:href="namespaceinput__utilities.html#a41fc0c806e12bc722771210cfa1edbd3" target="_top" xlink:title="input_utilities::get_real">
<polygon fill="white" stroke="black" points="710,-649.562 710,-670.562 877,-670.562 877,-649.562 710,-649.562"/>
<text text-anchor="middle" x="793.5" y="-656.962" font-family="Ubuntu Mono" font-size="12.00">input_utilities::get_real</text>
</a>
</g>
</g>
<!-- Node12&#45;&gt;Node27 -->
<g id="edge20" class="edge"><title>Node12&#45;&gt;Node27</title>
<path fill="none" stroke="midnightblue" d="M89.1534,-554.746C109.555,-567.372 145.54,-588.162 179,-600.062 355.289,-662.757 576.934,-667.802 699.758,-664.699"/>
<polygon fill="midnightblue" stroke="midnightblue" points="699.98,-668.194 709.879,-664.419 699.786,-661.197 699.98,-668.194"/>
</g>
<!-- Node29 -->
<g id="node18" class="node"><title>Node29</title>
<g id="a_node18"><a xlink:href="namespaceinput__utilities.html#ad9ce824c30b32041ab70f3fb191f06db" target="_top" xlink:title="input_utilities::get_log">
<polygon fill="white" stroke="black" points="713,-689.562 713,-710.562 874,-710.562 874,-689.562 713,-689.562"/>
<text text-anchor="middle" x="793.5" y="-696.962" font-family="Ubuntu Mono" font-size="12.00">input_utilities::get_log</text>
</a>
</g>
</g>
<!-- Node12&#45;&gt;Node29 -->
<g id="edge25" class="edge"><title>Node12&#45;&gt;Node29</title>
<path fill="none" stroke="midnightblue" d="M81.1975,-554.598C97.9122,-574.054 136.637,-615.422 179,-635.062 351.017,-714.81 578.492,-715.348 702.474,-708.09"/>
<polygon fill="midnightblue" stroke="midnightblue" points="702.915,-711.569 712.681,-707.461 702.485,-704.583 702.915,-711.569"/>
</g>
<!-- Node31 -->
<g id="node20" class="node"><title>Node31</title>
<g id="a_node20"><a xlink:href="namespacenum__utilities.html#a5ee3fbd1fe67d0deefc7194631389f2a" target="_top" xlink:title="num_utilities::c">
<polygon fill="white" stroke="black" points="534,-172.562 534,-193.562 647,-193.562 647,-172.562 534,-172.562"/>
<text text-anchor="middle" x="590.5" y="-179.962" font-family="Ubuntu Mono" font-size="12.00">num_utilities::c</text>
</a>
</g>
</g>
<!-- Node12&#45;&gt;Node31 -->
<g id="edge30" class="edge"><title>Node12&#45;&gt;Node31</title>
<path fill="none" stroke="midnightblue" d="M77.2226,-533.439C100.783,-481.966 211.309,-257.852 382,-181.062 430.818,-159.1 492.87,-163.306 536.348,-170.702"/>
<polygon fill="midnightblue" stroke="midnightblue" points="535.966,-174.19 546.43,-172.53 537.215,-167.302 535.966,-174.19"/>
</g>
<!-- Node32 -->
<g id="node21" class="node"><title>Node32</title>
<g id="a_node21"><a xlink:href="SLEPC__ops_8f90.html#aad0c37f65f398c2aa88ea11b21eb2006" target="_top" xlink:title="set_bulk_lims">
<polygon fill="white" stroke="black" points="382,-68.5617 382,-89.5617 477,-89.5617 477,-68.5617 382,-68.5617"/>
<text text-anchor="middle" x="429.5" y="-75.9617" font-family="Ubuntu Mono" font-size="12.00">set_bulk_lims</text>
</a>
</g>
</g>
<!-- Node12&#45;&gt;Node32 -->
<g id="edge33" class="edge"><title>Node12&#45;&gt;Node32</title>
<path fill="none" stroke="midnightblue" d="M73.4635,-533.205C79.1905,-471.284 110.846,-163.428 179,-104.062 231.534,-58.3014 315.893,-59.9851 371.755,-67.6771"/>
<polygon fill="midnightblue" stroke="midnightblue" points="371.435,-71.1678 381.84,-69.1732 372.462,-64.2436 371.435,-71.1678"/>
</g>
<!-- Node33 -->
<g id="node22" class="node"><title>Node33</title>
<g id="a_node22"><a xlink:href="SLEPC__ops_8f90.html#a2304e2ffd00378a9252c04507d5a1a7e" target="_top" xlink:title="fill_mat">
<polygon fill="white" stroke="black" points="397,-610.562 397,-631.562 462,-631.562 462,-610.562 397,-610.562"/>
<text text-anchor="middle" x="429.5" y="-617.962" font-family="Ubuntu Mono" font-size="12.00">fill_mat</text>
</a>
</g>
</g>
<!-- Node12&#45;&gt;Node33 -->
<g id="edge35" class="edge"><title>Node12&#45;&gt;Node33</title>
<path fill="none" stroke="midnightblue" d="M121.254,-554.607C191.569,-569.815 320.264,-597.651 386.563,-611.991"/>
<polygon fill="midnightblue" stroke="midnightblue" points="386.135,-615.479 396.649,-614.173 387.615,-608.638 386.135,-615.479"/>
</g>
<!-- Node34 -->
<g id="node23" class="node"><title>Node34</title>
<g id="a_node23"><a xlink:href="SLEPC__ops_8f90.html#a1d58436fdcad8037090c9ce1e50a9ae1" target="_top" xlink:title="disp_mat_info">
<polygon fill="white" stroke="black" points="215,-419.562 215,-440.562 310,-440.562 310,-419.562 215,-419.562"/>
<text text-anchor="middle" x="262.5" y="-426.962" font-family="Ubuntu Mono" font-size="12.00">disp_mat_info</text>
</a>
</g>
</g>
<!-- Node12&#45;&gt;Node34 -->
<g id="edge37" class="edge"><title>Node12&#45;&gt;Node34</title>
<path fill="none" stroke="midnightblue" d="M89.9419,-533.541C123.19,-513.487 195.816,-469.68 235.067,-446.006"/>
<polygon fill="midnightblue" stroke="midnightblue" points="237.07,-448.885 243.825,-440.723 233.455,-442.891 237.07,-448.885"/>
</g>
<!-- Node15 -->
<g id="node4" class="node"><title>Node15</title>
<g id="a_node4"><a xlink:href="namespaceinput__utilities.html#a71bd36f063d55ab62c7a37864aef1185" target="_top" xlink:title="input_utilities::pause_prog">
<polygon fill="white" stroke="black" points="704,-532.562 704,-553.562 883,-553.562 883,-532.562 704,-532.562"/>
<text text-anchor="middle" x="793.5" y="-539.962" font-family="Ubuntu Mono" font-size="12.00">input_utilities::pause_prog</text>
</a>
</g>
</g>
<!-- Node14&#45;&gt;Node15 -->
<g id="edge3" class="edge"><title>Node14&#45;&gt;Node15</title>
<path fill="none" stroke="midnightblue" d="M667.489,-515.074C690.139,-520.145 714.557,-525.612 735.75,-530.357"/>
<polygon fill="midnightblue" stroke="midnightblue" points="735.034,-533.783 745.557,-532.552 736.563,-526.952 735.034,-533.783"/>
</g>
<!-- Node14&#45;&gt;Node18 -->
<g id="edge13" class="edge"><title>Node14&#45;&gt;Node18</title>
<path fill="none" stroke="midnightblue" d="M668.273,-481.116C765.163,-463.03 935.844,-442.231 1074,-484.062 1100.64,-492.127 1126.59,-511.148 1143.43,-525.428"/>
<polygon fill="midnightblue" stroke="midnightblue" points="1141.53,-528.419 1151.36,-532.38 1146.14,-523.155 1141.53,-528.419"/>
</g>
<!-- Node14&#45;&gt;Node23 -->
<g id="edge14" class="edge"><title>Node14&#45;&gt;Node23</title>
<path fill="none" stroke="midnightblue" d="M607.039,-481.061C624.118,-461.58 651.338,-428.07 668,-395.062 692.708,-346.114 680.565,-326.632 704,-277.062 724.587,-233.515 757.972,-187.842 777.316,-162.969"/>
<polygon fill="midnightblue" stroke="midnightblue" points="780.32,-164.811 783.757,-154.789 774.821,-160.48 780.32,-164.811"/>
</g>
<!-- Node24 -->
<g id="node13" class="node"><title>Node24</title>
<g id="a_node13"><a xlink:href="namespacemessages.html#a6e6bfb084063e4cc91ee86e542043302" target="_top" xlink:title="messages::lvl_ud">
<polygon fill="white" stroke="black" points="737,-286.562 737,-307.562 850,-307.562 850,-286.562 737,-286.562"/>
<text text-anchor="middle" x="793.5" y="-293.962" font-family="Ubuntu Mono" font-size="12.00">messages::lvl_ud</text>
</a>
</g>
</g>
<!-- Node14&#45;&gt;Node24 -->
<g id="edge15" class="edge"><title>Node14&#45;&gt;Node24</title>
<path fill="none" stroke="midnightblue" d="M608.637,-480.925C646.217,-443.345 735.59,-353.972 774.207,-315.355"/>
<polygon fill="midnightblue" stroke="midnightblue" points="777.044,-317.468 781.64,-307.922 772.094,-312.518 777.044,-317.468"/>
</g>
<!-- Node25 -->
<g id="node14" class="node"><title>Node25</title>
<g id="a_node14"><a xlink:href="namespacemessages.html#a80797cedef6112b8dccaeda431f0c610" target="_top" xlink:title="messages::print_ar_2">
<polygon fill="white" stroke="black" points="725,-415.562 725,-436.562 862,-436.562 862,-415.562 725,-415.562"/>
<text text-anchor="middle" x="793.5" y="-422.962" font-family="Ubuntu Mono" font-size="12.00">messages::print_ar_2</text>
</a>
</g>
</g>
<!-- Node14&#45;&gt;Node25 -->
<g id="edge17" class="edge"><title>Node14&#45;&gt;Node25</title>
<path fill="none" stroke="midnightblue" d="M632.276,-480.994C664.086,-467.684 703.057,-451.391 704,-451.062 716.015,-446.872 729.125,-442.868 741.486,-439.34"/>
<polygon fill="midnightblue" stroke="midnightblue" points="742.517,-442.686 751.202,-436.619 740.629,-435.946 742.517,-442.686"/>
</g>
<!-- Node16 -->
<g id="node5" class="node"><title>Node16</title>
<g id="a_node5"><a xlink:href="namespacempi__utilities.html#a790ea24d32dd0e249541c1e57cd85536" target="_top" xlink:title="mpi_utilities::wait_mpi">
<polygon fill="white" stroke="black" points="919,-493.562 919,-514.562 1074,-514.562 1074,-493.562 919,-493.562"/>
<text text-anchor="middle" x="996.5" y="-500.962" font-family="Ubuntu Mono" font-size="12.00">mpi_utilities::wait_mpi</text>
</a>
</g>
</g>
<!-- Node15&#45;&gt;Node16 -->
<g id="edge4" class="edge"><title>Node15&#45;&gt;Node16</title>
<path fill="none" stroke="midnightblue" d="M848.629,-532.559C874.095,-527.618 904.65,-521.689 931.28,-516.522"/>
<polygon fill="midnightblue" stroke="midnightblue" points="932.124,-519.924 941.275,-514.583 930.791,-513.052 932.124,-519.924"/>
</g>
<!-- Node17 -->
<g id="node6" class="node"><title>Node17</title>
<g id="a_node6"><a xlink:href="namespacemessages.html#a2a1154de25763d4894275ff4307b6862" target="_top" xlink:title="messages::stop_time">
<polygon fill="white" stroke="black" points="931,-649.562 931,-670.562 1062,-670.562 1062,-649.562 931,-649.562"/>
<text text-anchor="middle" x="996.5" y="-656.962" font-family="Ubuntu Mono" font-size="12.00">messages::stop_time</text>
</a>
</g>
</g>
<!-- Node15&#45;&gt;Node17 -->
<g id="edge5" class="edge"><title>Node15&#45;&gt;Node17</title>
<path fill="none" stroke="midnightblue" d="M812.692,-553.651C848.179,-574.308 926.803,-620.074 968.429,-644.304"/>
<polygon fill="midnightblue" stroke="midnightblue" points="966.801,-647.406 977.204,-649.412 970.323,-641.356 966.801,-647.406"/>
</g>
<!-- Node15&#45;&gt;Node18 -->
<g id="edge12" class="edge"><title>Node15&#45;&gt;Node18</title>
<path fill="none" stroke="midnightblue" d="M883.113,-543.062C950.062,-543.062 1040.3,-543.062 1099.88,-543.062"/>
<polygon fill="midnightblue" stroke="midnightblue" points="1099.9,-546.562 1109.9,-543.062 1099.9,-539.562 1099.9,-546.562"/>
</g>
<!-- Node22 -->
<g id="node11" class="node"><title>Node22</title>
<g id="a_node11"><a xlink:href="namespacemessages.html#ad997c3dff64c512e0070ce8816c28e7f" target="_top" xlink:title="messages::start_time">
<polygon fill="white" stroke="black" points="928,-689.562 928,-710.562 1065,-710.562 1065,-689.562 928,-689.562"/>
<text text-anchor="middle" x="996.5" y="-696.962" font-family="Ubuntu Mono" font-size="12.00">messages::start_time</text>
</a>
</g>
</g>
<!-- Node15&#45;&gt;Node22 -->
<g id="edge10" class="edge"><title>Node15&#45;&gt;Node22</title>
<path fill="none" stroke="midnightblue" d="M804.346,-553.805C820.711,-571.673 854.528,-608.642 883,-640.062 899.06,-657.785 898.57,-667.625 919,-680.062 922.562,-682.23 926.355,-684.165 930.275,-685.892"/>
<polygon fill="midnightblue" stroke="midnightblue" points="929.015,-689.158 939.603,-689.556 931.574,-682.642 929.015,-689.158"/>
</g>
<!-- Node17&#45;&gt;Node18 -->
<g id="edge6" class="edge"><title>Node17&#45;&gt;Node18</title>
<path fill="none" stroke="midnightblue" d="M1042.03,-649.553C1052.96,-645.904 1064.29,-641.151 1074,-635.062 1105.21,-615.48 1133.21,-582.532 1149,-561.836"/>
<polygon fill="midnightblue" stroke="midnightblue" points="1151.83,-563.901 1155,-553.791 1146.22,-559.718 1151.83,-563.901"/>
</g>
<!-- Node19 -->
<g id="node8" class="node"><title>Node19</title>
<g id="a_node8"><a xlink:href="namespacemessages.html#a82dddaab795b78b3d39e1ff1aab2f665" target="_top" xlink:title="messages::get_mem_usage">
<polygon fill="white" stroke="black" points="1253,-552.562 1253,-573.562 1408,-573.562 1408,-552.562 1253,-552.562"/>
<text text-anchor="middle" x="1330.5" y="-559.962" font-family="Ubuntu Mono" font-size="12.00">messages::get_mem_usage</text>
</a>
</g>
</g>
<!-- Node18&#45;&gt;Node19 -->
<g id="edge7" class="edge"><title>Node18&#45;&gt;Node19</title>
<path fill="none" stroke="midnightblue" d="M1217.16,-549.445C1225.45,-550.45 1234.21,-551.511 1243.03,-552.58"/>
<polygon fill="midnightblue" stroke="midnightblue" points="1242.64,-556.058 1252.98,-553.787 1243.48,-549.109 1242.64,-556.058"/>
</g>
<!-- Node20 -->
<g id="node9" class="node"><title>Node20</title>
<g id="a_node9"><a xlink:href="messages_8f90.html#a6d15f28783f95a7a4b2a44185619792f" target="_top" xlink:title="format_str">
<polygon fill="white" stroke="black" points="1292,-512.562 1292,-533.562 1369,-533.562 1369,-512.562 1292,-512.562"/>
<text text-anchor="middle" x="1330.5" y="-519.962" font-family="Ubuntu Mono" font-size="12.00">format_str</text>
</a>
</g>
</g>
<!-- Node18&#45;&gt;Node20 -->
<g id="edge8" class="edge"><title>Node18&#45;&gt;Node20</title>
<path fill="none" stroke="midnightblue" d="M1217.16,-536.679C1237.98,-534.155 1261.72,-531.277 1282,-528.819"/>
<polygon fill="midnightblue" stroke="midnightblue" points="1282.45,-532.291 1291.95,-527.613 1281.61,-525.342 1282.45,-532.291"/>
</g>
<!-- Node21 -->
<g id="node10" class="node"><title>Node21</title>
<g id="a_node10"><a xlink:href="namespacemessages.html#a61fd0b51b5e37d58fdc993c01792a3fd" target="_top" xlink:title="messages::get_clock">
<polygon fill="white" stroke="black" points="1444,-512.562 1444,-533.562 1575,-533.562 1575,-512.562 1444,-512.562"/>
<text text-anchor="middle" x="1509.5" y="-519.962" font-family="Ubuntu Mono" font-size="12.00">messages::get_clock</text>
</a>
</g>
</g>
<!-- Node20&#45;&gt;Node21 -->
<g id="edge9" class="edge"><title>Node20&#45;&gt;Node21</title>
<path fill="none" stroke="midnightblue" d="M1369.04,-523.062C1387.87,-523.062 1411.37,-523.062 1433.68,-523.062"/>
<polygon fill="midnightblue" stroke="midnightblue" points="1433.83,-526.562 1443.83,-523.062 1433.83,-519.562 1433.83,-526.562"/>
</g>
<!-- Node22&#45;&gt;Node18 -->
<g id="edge11" class="edge"><title>Node22&#45;&gt;Node18</title>
<path fill="none" stroke="midnightblue" d="M1056.37,-689.559C1062.64,-687.043 1068.66,-683.925 1074,-680.062 1115.65,-649.915 1142.74,-593.604 1154.97,-563.416"/>
<polygon fill="midnightblue" stroke="midnightblue" points="1158.31,-564.501 1158.68,-553.913 1151.78,-561.958 1158.31,-564.501"/>
</g>
<!-- Node24&#45;&gt;Node18 -->
<g id="edge16" class="edge"><title>Node24&#45;&gt;Node18</title>
<path fill="none" stroke="midnightblue" d="M847.867,-286.537C908.778,-277.698 1008.43,-273.285 1074,-322.062 1140.03,-371.181 1156.89,-477.597 1161.11,-522.457"/>
<polygon fill="midnightblue" stroke="midnightblue" points="1157.63,-522.785 1161.94,-532.464 1164.61,-522.21 1157.63,-522.785"/>
</g>
<!-- Node26 -->
<g id="node15" class="node"><title>Node26</title>
<g id="a_node15"><a xlink:href="namespacemessages.html#a5686118397930f505259225f3688216b" target="_top" xlink:title="messages::print_ar_1">
<polygon fill="white" stroke="black" points="928,-415.562 928,-436.562 1065,-436.562 1065,-415.562 928,-415.562"/>
<text text-anchor="middle" x="996.5" y="-422.962" font-family="Ubuntu Mono" font-size="12.00">messages::print_ar_1</text>
</a>
</g>
</g>
<!-- Node25&#45;&gt;Node26 -->
<g id="edge18" class="edge"><title>Node25&#45;&gt;Node26</title>
<path fill="none" stroke="midnightblue" d="M862.269,-426.062C880.059,-426.062 899.385,-426.062 917.657,-426.062"/>
<polygon fill="midnightblue" stroke="midnightblue" points="917.683,-429.562 927.683,-426.062 917.683,-422.562 917.683,-429.562"/>
</g>
<!-- Node26&#45;&gt;Node18 -->
<g id="edge19" class="edge"><title>Node26&#45;&gt;Node18</title>
<path fill="none" stroke="midnightblue" d="M1042.03,-436.571C1052.96,-440.219 1064.29,-444.973 1074,-451.062 1105.21,-470.644 1133.21,-503.592 1149,-524.288"/>
<polygon fill="midnightblue" stroke="midnightblue" points="1146.22,-526.406 1155,-532.332 1151.83,-522.223 1146.22,-526.406"/>
</g>
<!-- Node27&#45;&gt;Node17 -->
<g id="edge22" class="edge"><title>Node27&#45;&gt;Node17</title>
<path fill="none" stroke="midnightblue" d="M877.125,-660.062C891.501,-660.062 906.382,-660.062 920.538,-660.062"/>
<polygon fill="midnightblue" stroke="midnightblue" points="920.701,-663.562 930.701,-660.062 920.701,-656.562 920.701,-663.562"/>
</g>
<!-- Node27&#45;&gt;Node18 -->
<g id="edge24" class="edge"><title>Node27&#45;&gt;Node18</title>
<path fill="none" stroke="midnightblue" d="M859.46,-649.537C929.478,-637.673 1036,-617.964 1074,-602.062 1099.1,-591.561 1124.62,-573.607 1141.76,-560.256"/>
<polygon fill="midnightblue" stroke="midnightblue" points="1144.28,-562.726 1149.92,-553.757 1139.92,-557.251 1144.28,-562.726"/>
</g>
<!-- Node27&#45;&gt;Node22 -->
<g id="edge23" class="edge"><title>Node27&#45;&gt;Node22</title>
<path fill="none" stroke="midnightblue" d="M847.31,-670.571C873.519,-675.787 905.361,-682.124 932.802,-687.584"/>
<polygon fill="midnightblue" stroke="midnightblue" points="932.203,-691.034 942.694,-689.553 933.569,-684.168 932.203,-691.034"/>
</g>
<!-- Node28 -->
<g id="node17" class="node"><title>Node28</title>
<g id="a_node17"><a xlink:href="namespacestr__utilities.html#ac778d706b2e021672618939ab58fdd32" target="_top" xlink:title="str_utilities::r2strt">
<polygon fill="white" stroke="black" points="925,-571.562 925,-592.562 1068,-592.562 1068,-571.562 925,-571.562"/>
<text text-anchor="middle" x="996.5" y="-578.962" font-family="Ubuntu Mono" font-size="12.00">str_utilities::r2strt</text>
</a>
</g>
</g>
<!-- Node27&#45;&gt;Node28 -->
<g id="edge21" class="edge"><title>Node27&#45;&gt;Node28</title>
<path fill="none" stroke="midnightblue" d="M817.661,-649.489C842.481,-638.327 883.152,-620.521 919,-607.062 929.416,-603.151 940.753,-599.255 951.431,-595.742"/>
<polygon fill="midnightblue" stroke="midnightblue" points="952.575,-599.05 961.006,-592.634 950.414,-592.392 952.575,-599.05"/>
</g>
<!-- Node29&#45;&gt;Node17 -->
<g id="edge26" class="edge"><title>Node29&#45;&gt;Node17</title>
<path fill="none" stroke="midnightblue" d="M847.31,-689.552C873.519,-684.337 905.361,-678 932.802,-672.539"/>
<polygon fill="midnightblue" stroke="midnightblue" points="933.569,-675.955 942.694,-670.57 932.203,-669.09 933.569,-675.955"/>
</g>
<!-- Node29&#45;&gt;Node18 -->
<g id="edge29" class="edge"><title>Node29&#45;&gt;Node18</title>
<path fill="none" stroke="midnightblue" d="M818.812,-710.631C870.291,-731.244 992.269,-770.574 1074,-720.062 1130.12,-685.375 1151.85,-603.123 1159.2,-564.189"/>
<polygon fill="midnightblue" stroke="midnightblue" points="1162.7,-564.466 1160.97,-554.014 1155.81,-563.263 1162.7,-564.466"/>
</g>
<!-- Node29&#45;&gt;Node22 -->
<g id="edge27" class="edge"><title>Node29&#45;&gt;Node22</title>
<path fill="none" stroke="midnightblue" d="M874.229,-700.062C888.517,-700.062 903.391,-700.062 917.626,-700.062"/>
<polygon fill="midnightblue" stroke="midnightblue" points="917.861,-703.562 927.861,-700.062 917.861,-696.562 917.861,-703.562"/>
</g>
<!-- Node30 -->
<g id="node19" class="node"><title>Node30</title>
<g id="a_node19"><a xlink:href="namespacestr__utilities.html#a219964a283968cc6a968db0197d2187e" target="_top" xlink:title="str_utilities::strh2l">
<polygon fill="white" stroke="black" points="925,-767.562 925,-788.562 1068,-788.562 1068,-767.562 925,-767.562"/>
<text text-anchor="middle" x="996.5" y="-774.962" font-family="Ubuntu Mono" font-size="12.00">str_utilities::strh2l</text>
</a>
</g>
</g>
<!-- Node29&#45;&gt;Node30 -->
<g id="edge28" class="edge"><title>Node29&#45;&gt;Node30</title>
<path fill="none" stroke="midnightblue" d="M817.661,-710.635C842.481,-721.796 883.152,-739.603 919,-753.062 929.416,-756.972 940.753,-760.869 951.431,-764.382"/>
<polygon fill="midnightblue" stroke="midnightblue" points="950.414,-767.731 961.006,-767.489 952.575,-761.073 950.414,-767.731"/>
</g>
<!-- Node32&#45;&gt;Node23 -->
<g id="edge34" class="edge"><title>Node32&#45;&gt;Node23</title>
<path fill="none" stroke="midnightblue" d="M477.084,-87.4263C539.732,-98.6751 651.596,-118.761 723.884,-131.741"/>
<polygon fill="midnightblue" stroke="midnightblue" points="723.351,-135.201 733.813,-133.524 724.589,-128.312 723.351,-135.201"/>
</g>
<!-- Node33&#45;&gt;Node14 -->
<g id="edge36" class="edge"><title>Node33&#45;&gt;Node14</title>
<path fill="none" stroke="midnightblue" d="M444.332,-610.361C469.755,-590.695 524.461,-548.375 558.981,-521.671"/>
<polygon fill="midnightblue" stroke="midnightblue" points="561.524,-524.129 567.292,-515.242 557.241,-518.592 561.524,-524.129"/>
</g>
<!-- Node34&#45;&gt;Node14 -->
<g id="edge43" class="edge"><title>Node34&#45;&gt;Node14</title>
<path fill="none" stroke="midnightblue" d="M310.208,-439.804C360.323,-450.258 441.042,-467.095 502.845,-479.986"/>
<polygon fill="midnightblue" stroke="midnightblue" points="502.478,-483.485 512.982,-482.101 503.908,-476.633 502.478,-483.485"/>
</g>
<!-- Node34&#45;&gt;Node16 -->
<g id="edge41" class="edge"><title>Node34&#45;&gt;Node16</title>
<path fill="none" stroke="midnightblue" d="M283.445,-440.67C324.801,-461.957 423.514,-509.12 513,-524.062 580.948,-535.407 599.143,-526.162 668,-524.062 749.609,-521.572 842.498,-515.601 908.453,-510.827"/>
<polygon fill="midnightblue" stroke="midnightblue" points="909.082,-514.29 918.801,-510.072 908.573,-507.309 909.082,-514.29"/>
</g>
<!-- Node34&#45;&gt;Node18 -->
<g id="edge39" class="edge"><title>Node34&#45;&gt;Node18</title>
<path fill="none" stroke="midnightblue" d="M310.091,-425.97C472.437,-412.081 1007.01,-369.583 1074,-406.062 1119.8,-431.002 1145.51,-490.968 1156.33,-522.652"/>
<polygon fill="midnightblue" stroke="midnightblue" points="1153.02,-523.79 1159.43,-532.221 1159.67,-521.629 1153.02,-523.79"/>
</g>
<!-- Node34&#45;&gt;Node23 -->
<g id="edge44" class="edge"><title>Node34&#45;&gt;Node23</title>
<path fill="none" stroke="midnightblue" d="M264.99,-419.305C271.062,-379.92 297.766,-242.682 382,-181.062 433.211,-143.599 610.47,-140.285 714.561,-141.784"/>
<polygon fill="midnightblue" stroke="midnightblue" points="714.653,-145.286 724.708,-141.949 714.767,-138.287 714.653,-145.286"/>
</g>
<!-- Node34&#45;&gt;Node24 -->
<g id="edge38" class="edge"><title>Node34&#45;&gt;Node24</title>
<path fill="none" stroke="midnightblue" d="M273.895,-419.288C293.34,-399.732 337.306,-358.276 382,-335.062 492.32,-277.761 641.906,-280.722 726.692,-288.55"/>
<polygon fill="midnightblue" stroke="midnightblue" points="726.412,-292.039 736.704,-289.525 727.09,-285.072 726.412,-292.039"/>
</g>
<!-- Node34&#45;&gt;Node28 -->
<g id="edge40" class="edge"><title>Node34&#45;&gt;Node28</title>
<path fill="none" stroke="midnightblue" d="M274.541,-440.732C294.329,-459.204 337.904,-496.991 382,-516.062 560.181,-593.12 793.524,-594.154 914.645,-588.183"/>
<polygon fill="midnightblue" stroke="midnightblue" points="915.142,-591.662 924.946,-587.645 914.777,-584.671 915.142,-591.662"/>
</g>
<!-- Node34&#45;&gt;Node31 -->
<g id="edge42" class="edge"><title>Node34&#45;&gt;Node31</title>
<path fill="none" stroke="midnightblue" d="M265.944,-419.51C274.685,-384.326 307.908,-270.299 382,-218.062 423.049,-189.121 479.851,-181.17 523.649,-180.011"/>
<polygon fill="midnightblue" stroke="midnightblue" points="523.971,-183.507 533.917,-179.856 523.865,-176.508 523.971,-183.507"/>
</g>
<!-- Node35 -->
<g id="node24" class="node"><title>Node35</title>
<g id="a_node24"><a xlink:href="SLEPC__ops_8f90.html#abdaf8a38000d4b3d52de078affcd853d" target="_top" xlink:title="set_bc_1">
<polygon fill="white" stroke="black" points="397,-344.562 397,-365.562 462,-365.562 462,-344.562 397,-344.562"/>
<text text-anchor="middle" x="429.5" y="-351.962" font-family="Ubuntu Mono" font-size="12.00">set_bc_1</text>
</a>
</g>
</g>
<!-- Node34&#45;&gt;Node35 -->
<g id="edge45" class="edge"><title>Node34&#45;&gt;Node35</title>
<path fill="none" stroke="midnightblue" d="M286.791,-419.475C315.289,-406.521 363.711,-384.511 395.9,-369.88"/>
<polygon fill="midnightblue" stroke="midnightblue" points="397.673,-372.919 405.328,-365.594 394.776,-366.546 397.673,-372.919"/>
</g>
<!-- Node35&#45;&gt;Node14 -->
<g id="edge48" class="edge"><title>Node35&#45;&gt;Node14</title>
<path fill="none" stroke="midnightblue" d="M442.192,-365.577C467.461,-388.304 527.716,-442.495 562.835,-474.08"/>
<polygon fill="midnightblue" stroke="midnightblue" points="560.57,-476.751 570.346,-480.835 565.251,-471.546 560.57,-476.751"/>
</g>
<!-- Node35&#45;&gt;Node18 -->
<g id="edge46" class="edge"><title>Node35&#45;&gt;Node18</title>
<path fill="none" stroke="midnightblue" d="M462.037,-351.805C576.865,-340.567 971.279,-307.574 1074,-373.062 1127.4,-407.103 1150.31,-484.483 1158.56,-521.951"/>
<polygon fill="midnightblue" stroke="midnightblue" points="1155.22,-523.114 1160.66,-532.206 1162.08,-521.707 1155.22,-523.114"/>
</g>
<!-- Node35&#45;&gt;Node23 -->
<g id="edge47" class="edge"><title>Node35&#45;&gt;Node23</title>
<path fill="none" stroke="midnightblue" d="M444.48,-344.508C460.633,-332.488 488.178,-312.514 513,-297.062 601.201,-242.156 710.42,-185.464 762.346,-159.158"/>
<polygon fill="midnightblue" stroke="midnightblue" points="764.009,-162.24 771.357,-154.607 760.853,-155.991 764.009,-162.24"/>
</g>
<!-- Node35&#45;&gt;Node24 -->
<g id="edge51" class="edge"><title>Node35&#45;&gt;Node24</title>
<path fill="none" stroke="midnightblue" d="M451.992,-344.449C468.318,-336.89 491.546,-327.195 513,-322.062 584.702,-304.906 669.302,-299.297 726.495,-297.578"/>
<polygon fill="midnightblue" stroke="midnightblue" points="726.943,-301.067 736.846,-297.3 726.756,-294.07 726.943,-301.067"/>
</g>
<!-- Node35&#45;&gt;Node25 -->
<g id="edge50" class="edge"><title>Node35&#45;&gt;Node25</title>
<path fill="none" stroke="midnightblue" d="M447.822,-365.633C464.051,-375 489.295,-388.221 513,-395.062 579.487,-414.249 658.031,-421.693 714.899,-424.515"/>
<polygon fill="midnightblue" stroke="midnightblue" points="714.751,-428.012 724.901,-424.975 715.072,-421.019 714.751,-428.012"/>
</g>
<!-- Node35&#45;&gt;Node31 -->
<g id="edge49" class="edge"><title>Node35&#45;&gt;Node31</title>
<path fill="none" stroke="midnightblue" d="M437.267,-344.511C450.498,-324.28 481.283,-279.108 513,-246.062 529.486,-228.885 550.5,-211.871 566.331,-199.862"/>
<polygon fill="midnightblue" stroke="midnightblue" points="568.615,-202.525 574.532,-193.736 564.425,-196.917 568.615,-202.525"/>
</g>
<!-- Node36 -->
<g id="node25" class="node"><title>Node36</title>
<g id="a_node25"><a xlink:href="namespacestr__utilities.html#a92ac6c0af1979df094de1caddd28ade0" target="_top" xlink:title="str_utilities::r2str">
<polygon fill="white" stroke="black" points="522,-364.562 522,-385.562 659,-385.562 659,-364.562 522,-364.562"/>
<text text-anchor="middle" x="590.5" y="-371.962" font-family="Ubuntu Mono" font-size="12.00">str_utilities::r2str</text>
</a>
</g>
</g>
<!-- Node35&#45;&gt;Node36 -->
<g id="edge52" class="edge"><title>Node35&#45;&gt;Node36</title>
<path fill="none" stroke="midnightblue" d="M462.294,-359.061C476.612,-360.862 494.206,-363.075 511.691,-365.274"/>
<polygon fill="midnightblue" stroke="midnightblue" points="511.589,-368.789 521.948,-366.565 512.463,-361.844 511.589,-368.789"/>
</g>
</g>
</svg>
