<?xml version="1.0" encoding="UTF-8" standalone="no"?>
<!DOCTYPE svg PUBLIC "-//W3C//DTD SVG 1.1//EN"
 "http://www.w3.org/Graphics/SVG/1.1/DTD/svg11.dtd">
<!-- Generated by graphviz version 2.38.0 (20140413.2041)
 -->
<!-- Title: eq_ops::calc_derived_q Pages: 1 -->
<svg width="909pt" height="280pt"
 viewBox="0.00 0.00 909.00 280.00" xmlns="http://www.w3.org/2000/svg" xmlns:xlink="http://www.w3.org/1999/xlink">
<g id="graph0" class="graph" transform="scale(1 1) rotate(0) translate(4 276)">
<title>eq_ops::calc_derived_q</title>
<polygon fill="white" stroke="none" points="-4,4 -4,-276 905,-276 905,4 -4,4"/>
<!-- Node21 -->
<g id="node1" class="node"><title>Node21</title>
<polygon fill="#bfbfbf" stroke="black" points="0,-140.5 0,-161.5 149,-161.5 149,-140.5 0,-140.5"/>
<text text-anchor="middle" x="74.5" y="-147.9" font-family="Ubuntu Mono" font-size="12.00">eq_ops::calc_derived_q</text>
</g>
<!-- Node22 -->
<g id="node2" class="node"><title>Node22</title>
<g id="a_node2"><a xlink:href="namespacenum__utilities.html#a5ee3fbd1fe67d0deefc7194631389f2a" target="_top" xlink:title="Convert 2&#45;D coordinates (i,j) to the storage convention used in matrices. ">
<polygon fill="white" stroke="black" points="215,-250.5 215,-271.5 328,-271.5 328,-250.5 215,-250.5"/>
<text text-anchor="middle" x="271.5" y="-257.9" font-family="Ubuntu Mono" font-size="12.00">num_utilities::c</text>
</a>
</g>
</g>
<!-- Node21&#45;&gt;Node22 -->
<g id="edge1" class="edge"><title>Node21&#45;&gt;Node22</title>
<path fill="none" stroke="midnightblue" d="M85.2232,-161.732C103.069,-180.746 143.082,-220.291 185,-241 191.39,-244.157 198.297,-246.828 205.319,-249.085"/>
<polygon fill="midnightblue" stroke="midnightblue" points="204.348,-252.447 214.93,-251.913 206.325,-245.732 204.348,-252.447"/>
</g>
<!-- Node23 -->
<g id="node3" class="node"><title>Node23</title>
<g id="a_node3"><a xlink:href="namespacegrid__utilities.html#a67001ff9bbcad707aacf17f90a748d90" target="_top" xlink:title="Trim a grid, removing any overlap between the different regions. ">
<polygon fill="white" stroke="black" points="188,-210.5 188,-231.5 355,-231.5 355,-210.5 188,-210.5"/>
<text text-anchor="middle" x="271.5" y="-217.9" font-family="Ubuntu Mono" font-size="12.00">grid_utilities::trim_grid</text>
</a>
</g>
</g>
<!-- Node21&#45;&gt;Node23 -->
<g id="edge2" class="edge"><title>Node21&#45;&gt;Node23</title>
<path fill="none" stroke="midnightblue" d="M95.5904,-161.643C117.185,-172.731 152.763,-189.992 185,-201 192.405,-203.529 200.277,-205.847 208.133,-207.939"/>
<polygon fill="midnightblue" stroke="midnightblue" points="207.482,-211.384 218.037,-210.464 209.212,-204.602 207.482,-211.384"/>
</g>
<!-- Node24 -->
<g id="node4" class="node"><title>Node24</title>
<g id="a_node4"><a xlink:href="namespacegrid__utilities.html#a39e7cd9b8f173994358dbdd6b57827e1" target="_top" xlink:title="Calculates , &#160;and &#160;on a grid grid_XYZ, determined through its E(quilibrium) coordinates. ">
<polygon fill="white" stroke="black" points="203,-157 203,-191 340,-191 340,-157 203,-157"/>
<text text-anchor="start" x="211" y="-177.4" font-family="Ubuntu Mono" font-size="12.00">grid_utilities::calc</text>
<text text-anchor="middle" x="271.5" y="-164.4" font-family="Ubuntu Mono" font-size="12.00">_xyz_grid</text>
</a>
</g>
</g>
<!-- Node21&#45;&gt;Node24 -->
<g id="edge3" class="edge"><title>Node21&#45;&gt;Node24</title>
<path fill="none" stroke="midnightblue" d="M149.221,-159.695C163.368,-161.364 178.225,-163.116 192.501,-164.8"/>
<polygon fill="midnightblue" stroke="midnightblue" points="192.434,-168.316 202.775,-166.012 193.254,-161.365 192.434,-168.316"/>
</g>
<!-- Node27 -->
<g id="node7" class="node"><title>Node27</title>
<g id="a_node7"><a xlink:href="namespacemessages.html#aa4a8d01563e92558e8a0875b075ec54c" target="_top" xlink:title="Write output to file identified by output_i. ">
<polygon fill="white" stroke="black" points="588,-78.5 588,-99.5 695,-99.5 695,-78.5 588,-78.5"/>
<text text-anchor="middle" x="641.5" y="-85.9" font-family="Ubuntu Mono" font-size="12.00">messages::writo</text>
</a>
</g>
</g>
<!-- Node21&#45;&gt;Node27 -->
<g id="edge6" class="edge"><title>Node21&#45;&gt;Node27</title>
<path fill="none" stroke="midnightblue" d="M149.298,-146.57C240.633,-140.562 400.788,-128.309 537,-109 551.502,-106.944 567.052,-104.219 581.577,-101.444"/>
<polygon fill="midnightblue" stroke="midnightblue" points="582.297,-104.87 591.444,-99.5227 580.959,-97.9989 582.297,-104.87"/>
</g>
<!-- Node30 -->
<g id="node10" class="node"><title>Node30</title>
<g id="a_node10"><a xlink:href="namespacemessages.html#a6e6bfb084063e4cc91ee86e542043302" target="_top" xlink:title="Increases/decreases lvl of output. ">
<polygon fill="white" stroke="black" points="409,-78.5 409,-99.5 522,-99.5 522,-78.5 409,-78.5"/>
<text text-anchor="middle" x="465.5" y="-85.9" font-family="Ubuntu Mono" font-size="12.00">messages::lvl_ud</text>
</a>
</g>
</g>
<!-- Node21&#45;&gt;Node30 -->
<g id="edge9" class="edge"><title>Node21&#45;&gt;Node30</title>
<path fill="none" stroke="midnightblue" d="M101.124,-140.412C123.015,-131.839 155.546,-120.202 185,-114 257.031,-98.8329 341.4,-92.8606 398.45,-90.5129"/>
<polygon fill="midnightblue" stroke="midnightblue" points="398.918,-93.9976 408.776,-90.1153 398.648,-87.0028 398.918,-93.9976"/>
</g>
<!-- Node31 -->
<g id="node11" class="node"><title>Node31</title>
<g id="a_node11"><a xlink:href="namespaceoutput__ops.html#ab0d14194d01ab0534562eab50b37a57a" target="_top" xlink:title="Takes two input vectors and plots these as well as the relative and absolute difference in a HDF5 fil...">
<polygon fill="white" stroke="black" points="185,-39.5 185,-60.5 358,-60.5 358,-39.5 185,-39.5"/>
<text text-anchor="middle" x="271.5" y="-46.9" font-family="Ubuntu Mono" font-size="12.00">output_ops::plot_diff_hdf5</text>
</a>
</g>
</g>
<!-- Node21&#45;&gt;Node31 -->
<g id="edge11" class="edge"><title>Node21&#45;&gt;Node31</title>
<path fill="none" stroke="midnightblue" d="M88.1835,-140.375C107.802,-124.407 147.2,-94.1607 185,-76 194.958,-71.216 205.99,-67.0819 216.73,-63.6062"/>
<polygon fill="midnightblue" stroke="midnightblue" points="217.948,-66.8932 226.471,-60.5996 215.883,-60.2046 217.948,-66.8932"/>
</g>
<!-- Node25 -->
<g id="node5" class="node"><title>Node25</title>
<g id="a_node5"><a xlink:href="namespacegrid__utilities.html#af8493f3dc2f6438d1fe98214dc20b884" target="_top" xlink:title="Set up the factors for the interpolation calculation in a matrix A using a polynomial order ord...">
<polygon fill="white" stroke="black" points="394,-157 394,-191 537,-191 537,-157 394,-157"/>
<text text-anchor="start" x="402" y="-177.4" font-family="Ubuntu Mono" font-size="12.00">grid_utilities::setup</text>
<text text-anchor="middle" x="465.5" y="-164.4" font-family="Ubuntu Mono" font-size="12.00">_interp_data</text>
</a>
</g>
</g>
<!-- Node24&#45;&gt;Node25 -->
<g id="edge4" class="edge"><title>Node24&#45;&gt;Node25</title>
<path fill="none" stroke="midnightblue" d="M340.192,-174C354.179,-174 369.047,-174 383.454,-174"/>
<polygon fill="midnightblue" stroke="midnightblue" points="383.844,-177.5 393.844,-174 383.844,-170.5 383.844,-177.5"/>
</g>
<!-- Node26 -->
<g id="node6" class="node"><title>Node26</title>
<g id="a_node6"><a xlink:href="namespacestr__utilities.html#a0b97e51770725a3e98ed393d26681414" target="_top" xlink:title="Convert an integer to string. ">
<polygon fill="white" stroke="black" points="573,-163.5 573,-184.5 710,-184.5 710,-163.5 573,-163.5"/>
<text text-anchor="middle" x="641.5" y="-170.9" font-family="Ubuntu Mono" font-size="12.00">str_utilities::i2str</text>
</a>
</g>
</g>
<!-- Node25&#45;&gt;Node26 -->
<g id="edge5" class="edge"><title>Node25&#45;&gt;Node26</title>
<path fill="none" stroke="midnightblue" d="M537.022,-174C545.553,-174 554.304,-174 562.929,-174"/>
<polygon fill="midnightblue" stroke="midnightblue" points="562.977,-177.5 572.977,-174 562.977,-170.5 562.977,-177.5"/>
</g>
<!-- Node28 -->
<g id="node8" class="node"><title>Node28</title>
<g id="a_node8"><a xlink:href="namespacemessages.html#a82dddaab795b78b3d39e1ff1aab2f665" target="_top" xlink:title="Returns the memory usage in kilobytes. ">
<polygon fill="white" stroke="black" points="746,-98.5 746,-119.5 901,-119.5 901,-98.5 746,-98.5"/>
<text text-anchor="middle" x="823.5" y="-105.9" font-family="Ubuntu Mono" font-size="12.00">messages::get_mem_usage</text>
</a>
</g>
</g>
<!-- Node27&#45;&gt;Node28 -->
<g id="edge7" class="edge"><title>Node27&#45;&gt;Node28</title>
<path fill="none" stroke="midnightblue" d="M695.047,-94.8386C707.823,-96.2581 721.824,-97.8138 735.723,-99.3581"/>
<polygon fill="midnightblue" stroke="midnightblue" points="735.481,-102.853 745.806,-100.478 736.254,-95.8954 735.481,-102.853"/>
</g>
<!-- Node29 -->
<g id="node9" class="node"><title>Node29</title>
<g id="a_node9"><a xlink:href="namespacemessages.html#a61fd0b51b5e37d58fdc993c01792a3fd" target="_top" xlink:title="Returns the time. ">
<polygon fill="white" stroke="black" points="758,-58.5 758,-79.5 889,-79.5 889,-58.5 758,-58.5"/>
<text text-anchor="middle" x="823.5" y="-65.9" font-family="Ubuntu Mono" font-size="12.00">messages::get_clock</text>
</a>
</g>
</g>
<!-- Node27&#45;&gt;Node29 -->
<g id="edge8" class="edge"><title>Node27&#45;&gt;Node29</title>
<path fill="none" stroke="midnightblue" d="M695.047,-83.1614C711.442,-81.3398 729.855,-79.2939 747.479,-77.3357"/>
<polygon fill="midnightblue" stroke="midnightblue" points="748.191,-80.7782 757.743,-76.1952 747.418,-73.821 748.191,-80.7782"/>
</g>
<!-- Node30&#45;&gt;Node27 -->
<g id="edge10" class="edge"><title>Node30&#45;&gt;Node27</title>
<path fill="none" stroke="midnightblue" d="M522.033,-89C539.741,-89 559.459,-89 577.648,-89"/>
<polygon fill="midnightblue" stroke="midnightblue" points="577.863,-92.5001 587.863,-89 577.863,-85.5001 577.863,-92.5001"/>
</g>
<!-- Node31&#45;&gt;Node27 -->
<g id="edge12" class="edge"><title>Node31&#45;&gt;Node27</title>
<path fill="none" stroke="midnightblue" d="M358.23,-53.5667C410.126,-56.3689 477.551,-61.1493 537,-69 551.815,-70.9565 567.71,-73.6997 582.487,-76.5287"/>
<polygon fill="midnightblue" stroke="midnightblue" points="582.026,-80.0048 592.513,-78.4923 583.372,-73.1353 582.026,-80.0048"/>
</g>
<!-- Node31&#45;&gt;Node30 -->
<g id="edge13" class="edge"><title>Node31&#45;&gt;Node30</title>
<path fill="none" stroke="midnightblue" d="M324.205,-60.5026C348.424,-65.4221 377.461,-71.3202 402.819,-76.471"/>
<polygon fill="midnightblue" stroke="midnightblue" points="402.206,-79.9179 412.703,-78.4787 403.599,-73.058 402.206,-79.9179"/>
</g>
<!-- Node32 -->
<g id="node12" class="node"><title>Node32</title>
<g id="a_node12"><a xlink:href="namespacestr__utilities.html#ac778d706b2e021672618939ab58fdd32" target="_top" xlink:title="Convert a real (double) to string. ">
<polygon fill="white" stroke="black" points="394,-0.5 394,-21.5 537,-21.5 537,-0.5 394,-0.5"/>
<text text-anchor="middle" x="465.5" y="-7.9" font-family="Ubuntu Mono" font-size="12.00">str_utilities::r2strt</text>
</a>
</g>
</g>
<!-- Node31&#45;&gt;Node32 -->
<g id="edge14" class="edge"><title>Node31&#45;&gt;Node32</title>
<path fill="none" stroke="midnightblue" d="M324.205,-39.4974C348.424,-34.5779 377.461,-28.6798 402.819,-23.529"/>
<polygon fill="midnightblue" stroke="midnightblue" points="403.599,-26.942 412.703,-21.5213 402.206,-20.0821 403.599,-26.942"/>
</g>
</g>
</svg>
