<?xml version="1.0" encoding="UTF-8" standalone="no"?>
<!DOCTYPE svg PUBLIC "-//W3C//DTD SVG 1.1//EN"
 "http://www.w3.org/Graphics/SVG/1.1/DTD/svg11.dtd">
<!-- Generated by graphviz version 2.38.0 (20140413.2041)
 -->
<!-- Title: test::test_read_hdf5_subset Pages: 1 -->
<svg width="1500pt" height="814pt"
 viewBox="0.00 0.00 1500.00 813.50" xmlns="http://www.w3.org/2000/svg" xmlns:xlink="http://www.w3.org/1999/xlink">
<g id="graph0" class="graph" transform="scale(1 1) rotate(0) translate(4 809.5)">
<title>test::test_read_hdf5_subset</title>
<polygon fill="white" stroke="none" points="-4,4 -4,-809.5 1496,-809.5 1496,4 -4,4"/>
<!-- Node138 -->
<g id="node1" class="node"><title>Node138</title>
<polygon fill="#bfbfbf" stroke="black" points="0,-471.5 0,-505.5 137,-505.5 137,-471.5 0,-471.5"/>
<text text-anchor="start" x="8" y="-491.9" font-family="Ubuntu Mono" font-size="12.00">test::test_read_hdf5</text>
<text text-anchor="middle" x="68.5" y="-478.9" font-family="Ubuntu Mono" font-size="12.00">_subset</text>
</g>
<!-- Node139 -->
<g id="node2" class="node"><title>Node139</title>
<g id="a_node2"><a xlink:href="namespacempi__utilities.html#a790ea24d32dd0e249541c1e57cd85536" target="_top" xlink:title="mpi_utilities::wait_mpi">
<polygon fill="white" stroke="black" points="179,-784 179,-805 334,-805 334,-784 179,-784"/>
<text text-anchor="middle" x="256.5" y="-791.4" font-family="Ubuntu Mono" font-size="12.00">mpi_utilities::wait_mpi</text>
</a>
</g>
</g>
<!-- Node138&#45;&gt;Node139 -->
<g id="edge1" class="edge"><title>Node138&#45;&gt;Node139</title>
<path fill="none" stroke="midnightblue" d="M70.3255,-505.716C73.6766,-555.451 90.4206,-700.494 173,-774.5 174.694,-776.018 176.484,-777.426 178.352,-778.732"/>
<polygon fill="midnightblue" stroke="midnightblue" points="176.595,-781.759 186.987,-783.822 180.15,-775.729 176.595,-781.759"/>
</g>
<!-- Node140 -->
<g id="node3" class="node"><title>Node140</title>
<g id="a_node3"><a xlink:href="namespacegrid__utilities.html#a04f971c38083f873a04eb6568bed466b" target="_top" xlink:title="grid_utilities::copy_grid">
<polygon fill="white" stroke="black" points="173,-744 173,-765 340,-765 340,-744 173,-744"/>
<text text-anchor="middle" x="256.5" y="-751.4" font-family="Ubuntu Mono" font-size="12.00">grid_utilities::copy_grid</text>
</a>
</g>
</g>
<!-- Node138&#45;&gt;Node140 -->
<g id="edge2" class="edge"><title>Node138&#45;&gt;Node140</title>
<path fill="none" stroke="midnightblue" d="M71.5484,-505.79C77.8079,-550.633 100.876,-671.486 173,-733.5 175.388,-735.554 177.951,-737.411 180.642,-739.09"/>
<polygon fill="midnightblue" stroke="midnightblue" points="179.147,-742.259 189.618,-743.871 182.437,-736.081 179.147,-742.259"/>
</g>
<!-- Node141 -->
<g id="node4" class="node"><title>Node141</title>
<g id="a_node4"><a xlink:href="namespacegrid__utilities.html#a39e7cd9b8f173994358dbdd6b57827e1" target="_top" xlink:title="grid_utilities::calc\l_xyz_grid">
<polygon fill="white" stroke="black" points="188,-690.5 188,-724.5 325,-724.5 325,-690.5 188,-690.5"/>
<text text-anchor="start" x="196" y="-710.9" font-family="Ubuntu Mono" font-size="12.00">grid_utilities::calc</text>
<text text-anchor="middle" x="256.5" y="-697.9" font-family="Ubuntu Mono" font-size="12.00">_xyz_grid</text>
</a>
</g>
</g>
<!-- Node138&#45;&gt;Node141 -->
<g id="edge3" class="edge"><title>Node138&#45;&gt;Node141</title>
<path fill="none" stroke="midnightblue" d="M74.5075,-505.507C86.0057,-541.743 117.651,-627.185 173,-675.5 177.374,-679.319 182.256,-682.707 187.398,-685.709"/>
<polygon fill="midnightblue" stroke="midnightblue" points="185.782,-688.814 196.257,-690.405 189.061,-682.629 185.782,-688.814"/>
</g>
<!-- Node144 -->
<g id="node7" class="node"><title>Node144</title>
<g id="a_node7"><a xlink:href="namespacestr__utilities.html#a0b97e51770725a3e98ed393d26681414" target="_top" xlink:title="str_utilities::i2str">
<polygon fill="white" stroke="black" points="1352,-542 1352,-563 1489,-563 1489,-542 1352,-542"/>
<text text-anchor="middle" x="1420.5" y="-549.4" font-family="Ubuntu Mono" font-size="12.00">str_utilities::i2str</text>
</a>
</g>
</g>
<!-- Node138&#45;&gt;Node144 -->
<g id="edge73" class="edge"><title>Node138&#45;&gt;Node144</title>
<path fill="none" stroke="midnightblue" d="M83.6451,-505.583C101.954,-526.439 135.934,-561.077 173,-578.5 284.487,-630.905 323.31,-623.5 446.5,-623.5 446.5,-623.5 446.5,-623.5 645.5,-623.5 720.906,-623.5 1312.79,-572.528 1313,-572.5 1328,-570.489 1344.09,-567.767 1359.1,-564.979"/>
<polygon fill="midnightblue" stroke="midnightblue" points="1360.12,-568.348 1369.29,-563.047 1358.81,-561.471 1360.12,-568.348"/>
</g>
<!-- Node146 -->
<g id="node9" class="node"><title>Node146</title>
<g id="a_node9"><a xlink:href="namespacegrid__utilities.html#a67001ff9bbcad707aacf17f90a748d90" target="_top" xlink:title="grid_utilities::trim_grid">
<polygon fill="white" stroke="black" points="561,-498 561,-519 728,-519 728,-498 561,-498"/>
<text text-anchor="middle" x="644.5" y="-505.4" font-family="Ubuntu Mono" font-size="12.00">grid_utilities::trim_grid</text>
</a>
</g>
</g>
<!-- Node138&#45;&gt;Node146 -->
<g id="edge9" class="edge"><title>Node138&#45;&gt;Node146</title>
<path fill="none" stroke="midnightblue" d="M137.033,-490.853C239.587,-494.426 434.879,-501.231 550.697,-505.266"/>
<polygon fill="midnightblue" stroke="midnightblue" points="550.846,-508.774 560.962,-505.624 551.09,-501.778 550.846,-508.774"/>
</g>
<!-- Node147 -->
<g id="node10" class="node"><title>Node147</title>
<g id="a_node10"><a xlink:href="namespaceinput__utilities.html#aa0cf7578f9c9ab6470f8bb8d025f1daf" target="_top" xlink:title="input_utilities::dealloc_in">
<polygon fill="white" stroke="black" points="555,-652 555,-673 734,-673 734,-652 555,-652"/>
<text text-anchor="middle" x="644.5" y="-659.4" font-family="Ubuntu Mono" font-size="12.00">input_utilities::dealloc_in</text>
</a>
</g>
</g>
<!-- Node138&#45;&gt;Node147 -->
<g id="edge10" class="edge"><title>Node138&#45;&gt;Node147</title>
<path fill="none" stroke="midnightblue" d="M75.4753,-505.502C87.8728,-537.887 119.762,-607.834 173,-637.5 234.446,-671.74 425.69,-671.257 544.595,-667.253"/>
<polygon fill="midnightblue" stroke="midnightblue" points="544.931,-670.743 554.802,-666.894 544.686,-663.747 544.931,-670.743"/>
</g>
<!-- Node150 -->
<g id="node13" class="node"><title>Node150</title>
<g id="a_node13"><a xlink:href="namespacemessages.html#aa4a8d01563e92558e8a0875b075ec54c" target="_top" xlink:title="messages::writo">
<polygon fill="white" stroke="black" points="991,-495 991,-516 1098,-516 1098,-495 991,-495"/>
<text text-anchor="middle" x="1044.5" y="-502.4" font-family="Ubuntu Mono" font-size="12.00">messages::writo</text>
</a>
</g>
</g>
<!-- Node138&#45;&gt;Node150 -->
<g id="edge71" class="edge"><title>Node138&#45;&gt;Node150</title>
<path fill="none" stroke="midnightblue" d="M93.3429,-471.239C113.557,-457.474 143.833,-438.845 173,-428.5 259.082,-397.967 284.943,-403.633 376,-396.5 622.949,-377.155 694.327,-374.396 931,-447.5 962.965,-457.374 996.701,-476.018 1018.79,-489.508"/>
<polygon fill="midnightblue" stroke="midnightblue" points="1017.17,-492.62 1027.51,-494.933 1020.87,-486.678 1017.17,-492.62"/>
</g>
<!-- Node154 -->
<g id="node17" class="node"><title>Node154</title>
<g id="a_node17"><a xlink:href="namespacepb3d__ops.html#a057fc02a2d90e9ac8a7e5764d83fd1df" target="_top" xlink:title="pb3d_ops::reconstruct\l_pb3d_in">
<polygon fill="white" stroke="black" points="376,-406.5 376,-440.5 519,-440.5 519,-406.5 376,-406.5"/>
<text text-anchor="start" x="384" y="-426.9" font-family="Ubuntu Mono" font-size="12.00">pb3d_ops::reconstruct</text>
<text text-anchor="middle" x="447.5" y="-413.9" font-family="Ubuntu Mono" font-size="12.00">_pb3d_in</text>
</a>
</g>
</g>
<!-- Node138&#45;&gt;Node154 -->
<g id="edge22" class="edge"><title>Node138&#45;&gt;Node154</title>
<path fill="none" stroke="midnightblue" d="M116.386,-471.448C133.945,-465.622 154.196,-459.558 173,-455.5 237.119,-441.662 311.074,-433.465 365.902,-428.837"/>
<polygon fill="midnightblue" stroke="midnightblue" points="366.231,-432.322 375.91,-428.014 365.657,-425.346 366.231,-432.322"/>
</g>
<!-- Node167 -->
<g id="node30" class="node"><title>Node167</title>
<g id="a_node30"><a xlink:href="namespacemessages.html#a6e6bfb084063e4cc91ee86e542043302" target="_top" xlink:title="messages::lvl_ud">
<polygon fill="white" stroke="black" points="588,-458 588,-479 701,-479 701,-458 588,-458"/>
<text text-anchor="middle" x="644.5" y="-465.4" font-family="Ubuntu Mono" font-size="12.00">messages::lvl_ud</text>
</a>
</g>
</g>
<!-- Node138&#45;&gt;Node167 -->
<g id="edge72" class="edge"><title>Node138&#45;&gt;Node167</title>
<path fill="none" stroke="midnightblue" d="M137.033,-486.147C247.994,-482.281 467.518,-474.632 577.482,-470.8"/>
<polygon fill="midnightblue" stroke="midnightblue" points="577.902,-474.288 587.774,-470.442 577.658,-467.292 577.902,-474.288"/>
</g>
<!-- Node168 -->
<g id="node31" class="node"><title>Node168</title>
<g id="a_node31"><a xlink:href="namespacepb3d__ops.html#a279af758fa95e678f6485c50e5bc4ffb" target="_top" xlink:title="pb3d_ops::reconstruct\l_pb3d_grid">
<polygon fill="white" stroke="black" points="185,-208.5 185,-242.5 328,-242.5 328,-208.5 185,-208.5"/>
<text text-anchor="start" x="193" y="-228.9" font-family="Ubuntu Mono" font-size="12.00">pb3d_ops::reconstruct</text>
<text text-anchor="middle" x="256.5" y="-215.9" font-family="Ubuntu Mono" font-size="12.00">_pb3d_grid</text>
</a>
</g>
</g>
<!-- Node138&#45;&gt;Node168 -->
<g id="edge51" class="edge"><title>Node138&#45;&gt;Node168</title>
<path fill="none" stroke="midnightblue" d="M73.8909,-471.343C84.7177,-431.938 116.034,-333.661 173,-272.5 182.132,-262.696 193.782,-254.379 205.43,-247.594"/>
<polygon fill="midnightblue" stroke="midnightblue" points="207.229,-250.599 214.296,-242.704 203.849,-244.469 207.229,-250.599"/>
</g>
<!-- Node170 -->
<g id="node33" class="node"><title>Node170</title>
<g id="a_node33"><a xlink:href="namespacepb3d__ops.html#a248d51dc98b7de287499ba3a4e6c1eaa" target="_top" xlink:title="pb3d_ops::reconstruct\l_pb3d_eq_1">
<polygon fill="white" stroke="black" points="376,-314.5 376,-348.5 519,-348.5 519,-314.5 376,-314.5"/>
<text text-anchor="start" x="384" y="-334.9" font-family="Ubuntu Mono" font-size="12.00">pb3d_ops::reconstruct</text>
<text text-anchor="middle" x="447.5" y="-321.9" font-family="Ubuntu Mono" font-size="12.00">_pb3d_eq_1</text>
</a>
</g>
</g>
<!-- Node138&#45;&gt;Node170 -->
<g id="edge55" class="edge"><title>Node138&#45;&gt;Node170</title>
<path fill="none" stroke="midnightblue" d="M78.1556,-471.186C93.1827,-443.172 126.956,-388.525 173,-363.5 232.04,-331.411 308.699,-324.913 365.83,-325.577"/>
<polygon fill="midnightblue" stroke="midnightblue" points="365.837,-329.078 375.902,-325.771 365.971,-322.079 365.837,-329.078"/>
</g>
<!-- Node171 -->
<g id="node34" class="node"><title>Node171</title>
<g id="a_node34"><a xlink:href="namespacepb3d__ops.html#a13280910f320a6835cd19e62fe238240" target="_top" xlink:title="pb3d_ops::reconstruct\l_pb3d_eq_2">
<polygon fill="white" stroke="black" points="376,-261.5 376,-295.5 519,-295.5 519,-261.5 376,-261.5"/>
<text text-anchor="start" x="384" y="-281.9" font-family="Ubuntu Mono" font-size="12.00">pb3d_ops::reconstruct</text>
<text text-anchor="middle" x="447.5" y="-268.9" font-family="Ubuntu Mono" font-size="12.00">_pb3d_eq_2</text>
</a>
</g>
</g>
<!-- Node138&#45;&gt;Node171 -->
<g id="edge57" class="edge"><title>Node138&#45;&gt;Node171</title>
<path fill="none" stroke="midnightblue" d="M74.7541,-471.489C86.3401,-437.073 117.554,-359.335 173,-322.5 229.779,-284.779 307.526,-275.34 365.617,-274.428"/>
<polygon fill="midnightblue" stroke="midnightblue" points="365.885,-277.926 375.859,-274.352 365.833,-270.926 365.885,-277.926"/>
</g>
<!-- Node172 -->
<g id="node35" class="node"><title>Node172</title>
<g id="a_node35"><a xlink:href="namespacepb3d__ops.html#ababe805fcaaca1486c74ad7a8aecfb7e" target="_top" xlink:title="pb3d_ops::reconstruct\l_pb3d_x_1">
<polygon fill="white" stroke="black" points="185,-151.5 185,-185.5 328,-185.5 328,-151.5 185,-151.5"/>
<text text-anchor="start" x="193" y="-171.9" font-family="Ubuntu Mono" font-size="12.00">pb3d_ops::reconstruct</text>
<text text-anchor="middle" x="256.5" y="-158.9" font-family="Ubuntu Mono" font-size="12.00">_pb3d_x_1</text>
</a>
</g>
</g>
<!-- Node138&#45;&gt;Node172 -->
<g id="edge59" class="edge"><title>Node138&#45;&gt;Node172</title>
<path fill="none" stroke="midnightblue" d="M70.6583,-471.487C74.9114,-422.257 93.8566,-278.117 173,-198.5 175.683,-195.801 178.627,-193.343 181.756,-191.105"/>
<polygon fill="midnightblue" stroke="midnightblue" points="183.802,-193.954 190.419,-185.68 180.086,-188.022 183.802,-193.954"/>
</g>
<!-- Node173 -->
<g id="node36" class="node"><title>Node173</title>
<g id="a_node36"><a xlink:href="namespacepb3d__ops.html#a418960ddc3c8c0ec6ac0af970feedbe2" target="_top" xlink:title="pb3d_ops::reconstruct\l_pb3d_sol">
<polygon fill="white" stroke="black" points="185,-90.5 185,-124.5 328,-124.5 328,-90.5 185,-90.5"/>
<text text-anchor="start" x="193" y="-110.9" font-family="Ubuntu Mono" font-size="12.00">pb3d_ops::reconstruct</text>
<text text-anchor="middle" x="256.5" y="-97.9" font-family="Ubuntu Mono" font-size="12.00">_pb3d_sol</text>
</a>
</g>
</g>
<!-- Node138&#45;&gt;Node173 -->
<g id="edge61" class="edge"><title>Node138&#45;&gt;Node173</title>
<path fill="none" stroke="midnightblue" d="M69.6697,-471.218C71.1322,-415.912 83.0071,-241.078 173,-141.5 176.993,-137.082 181.646,-133.225 186.672,-129.858"/>
<polygon fill="midnightblue" stroke="midnightblue" points="188.628,-132.767 195.431,-124.645 185.048,-126.752 188.628,-132.767"/>
</g>
<!-- Node174 -->
<g id="node37" class="node"><title>Node174</title>
<g id="a_node37"><a xlink:href="namespacex__ops.html#ad0f44ec07a3b246da23f9aa659683bdf" target="_top" xlink:title="x_ops::setup_nm_x">
<polygon fill="white" stroke="black" points="388,-536 388,-557 507,-557 507,-536 388,-536"/>
<text text-anchor="middle" x="447.5" y="-543.4" font-family="Ubuntu Mono" font-size="12.00">x_ops::setup_nm_x</text>
</a>
</g>
</g>
<!-- Node138&#45;&gt;Node174 -->
<g id="edge63" class="edge"><title>Node138&#45;&gt;Node174</title>
<path fill="none" stroke="midnightblue" d="M115.559,-505.553C133.289,-511.488 153.869,-517.624 173,-521.5 241.849,-535.449 322.037,-541.623 377.71,-544.351"/>
<polygon fill="midnightblue" stroke="midnightblue" points="377.66,-547.852 387.812,-544.821 377.985,-540.86 377.66,-547.852"/>
</g>
<!-- Node175 -->
<g id="node38" class="node"><title>Node175</title>
<g id="a_node38"><a xlink:href="namespacevmec__utilities.html#ac699116fc25fdea3e28e488513d97c87" target="_top" xlink:title="vmec_utilities::calc\l_trigon_factors">
<polygon fill="white" stroke="black" points="782,-560.5 782,-594.5 919,-594.5 919,-560.5 782,-560.5"/>
<text text-anchor="start" x="790" y="-580.9" font-family="Ubuntu Mono" font-size="12.00">vmec_utilities::calc</text>
<text text-anchor="middle" x="850.5" y="-567.9" font-family="Ubuntu Mono" font-size="12.00">_trigon_factors</text>
</a>
</g>
</g>
<!-- Node138&#45;&gt;Node175 -->
<g id="edge68" class="edge"><title>Node138&#45;&gt;Node175</title>
<path fill="none" stroke="midnightblue" d="M93.284,-505.605C113.463,-519.16 143.721,-537.299 173,-546.5 381.309,-611.965 643.421,-598.76 771.636,-586.575"/>
<polygon fill="midnightblue" stroke="midnightblue" points="772.141,-590.043 781.755,-585.589 771.462,-583.076 772.141,-590.043"/>
</g>
<!-- Node142 -->
<g id="node5" class="node"><title>Node142</title>
<g id="a_node5"><a xlink:href="grid__utilities_8f90.html#aaabf4a8fdce3679e99ff8f8a9a30fcaf" target="_top" xlink:title="calc_xyz_grid_vmec">
<polygon fill="white" stroke="black" points="385,-734 385,-755 510,-755 510,-734 385,-734"/>
<text text-anchor="middle" x="447.5" y="-741.4" font-family="Ubuntu Mono" font-size="12.00">calc_xyz_grid_vmec</text>
</a>
</g>
</g>
<!-- Node141&#45;&gt;Node142 -->
<g id="edge4" class="edge"><title>Node141&#45;&gt;Node142</title>
<path fill="none" stroke="midnightblue" d="M325.2,-720.753C343.878,-724.41 364.079,-728.365 382.539,-731.978"/>
<polygon fill="midnightblue" stroke="midnightblue" points="382.108,-735.461 392.594,-733.947 383.453,-728.591 382.108,-735.461"/>
</g>
<!-- Node145 -->
<g id="node8" class="node"><title>Node145</title>
<g id="a_node8"><a xlink:href="grid__utilities_8f90.html#ad39ac81f24bae991c679caf84a4ad757" target="_top" xlink:title="calc_xyz_grid_hel">
<polygon fill="white" stroke="black" points="388,-694 388,-715 507,-715 507,-694 388,-694"/>
<text text-anchor="middle" x="447.5" y="-701.4" font-family="Ubuntu Mono" font-size="12.00">calc_xyz_grid_hel</text>
</a>
</g>
</g>
<!-- Node141&#45;&gt;Node145 -->
<g id="edge7" class="edge"><title>Node141&#45;&gt;Node145</title>
<path fill="none" stroke="midnightblue" d="M325.2,-706.425C342.129,-706.157 360.309,-705.868 377.309,-705.598"/>
<polygon fill="midnightblue" stroke="midnightblue" points="377.777,-709.091 387.72,-705.433 377.666,-702.092 377.777,-709.091"/>
</g>
<!-- Node143 -->
<g id="node6" class="node"><title>Node143</title>
<g id="a_node6"><a xlink:href="namespacegrid__utilities.html#a43206328f85253a6cc821cd46a498bb6" target="_top" xlink:title="grid_utilities::setup\l_interp_data">
<polygon fill="white" stroke="black" points="573,-711.5 573,-745.5 716,-745.5 716,-711.5 573,-711.5"/>
<text text-anchor="start" x="581" y="-731.9" font-family="Ubuntu Mono" font-size="12.00">grid_utilities::setup</text>
<text text-anchor="middle" x="644.5" y="-718.9" font-family="Ubuntu Mono" font-size="12.00">_interp_data</text>
</a>
</g>
</g>
<!-- Node142&#45;&gt;Node143 -->
<g id="edge5" class="edge"><title>Node142&#45;&gt;Node143</title>
<path fill="none" stroke="midnightblue" d="M510.199,-739.438C526.802,-738.075 545.013,-736.581 562.495,-735.147"/>
<polygon fill="midnightblue" stroke="midnightblue" points="563.007,-738.616 572.687,-734.31 562.434,-731.64 563.007,-738.616"/>
</g>
<!-- Node143&#45;&gt;Node144 -->
<g id="edge6" class="edge"><title>Node143&#45;&gt;Node144</title>
<path fill="none" stroke="midnightblue" d="M704.14,-745.55C827.564,-777.766 1118.76,-834.116 1313,-713.5 1366.93,-680.014 1399.35,-607.946 1412.58,-572.718"/>
<polygon fill="midnightblue" stroke="midnightblue" points="1415.96,-573.646 1416.07,-563.051 1409.38,-571.269 1415.96,-573.646"/>
</g>
<!-- Node145&#45;&gt;Node143 -->
<g id="edge8" class="edge"><title>Node145&#45;&gt;Node143</title>
<path fill="none" stroke="midnightblue" d="M507.006,-711.701C524.599,-713.866 544.219,-716.281 562.975,-718.589"/>
<polygon fill="midnightblue" stroke="midnightblue" points="562.634,-722.074 572.986,-719.821 563.489,-715.126 562.634,-722.074"/>
</g>
<!-- Node148 -->
<g id="node11" class="node"><title>Node148</title>
<g id="a_node11"><a xlink:href="namespacevmec__vars.html#ace63f2f143043b860f7705dff7089676" target="_top" xlink:title="vmec_vars::dealloc_vmec">
<polygon fill="white" stroke="black" points="773,-652 773,-673 928,-673 928,-652 773,-652"/>
<text text-anchor="middle" x="850.5" y="-659.4" font-family="Ubuntu Mono" font-size="12.00">vmec_vars::dealloc_vmec</text>
</a>
</g>
</g>
<!-- Node147&#45;&gt;Node148 -->
<g id="edge11" class="edge"><title>Node147&#45;&gt;Node148</title>
<path fill="none" stroke="midnightblue" d="M734.087,-662.5C743.563,-662.5 753.196,-662.5 762.651,-662.5"/>
<polygon fill="midnightblue" stroke="midnightblue" points="762.826,-666 772.826,-662.5 762.826,-659 762.826,-666"/>
</g>
<!-- Node153 -->
<g id="node16" class="node"><title>Node153</title>
<g id="a_node16"><a xlink:href="namespacehelena__vars.html#add7b3eea7306eca7fb45737ff915523f" target="_top" xlink:title="helena_vars::dealloc_hel">
<polygon fill="white" stroke="black" points="770,-692 770,-713 931,-713 931,-692 770,-692"/>
<text text-anchor="middle" x="850.5" y="-699.4" font-family="Ubuntu Mono" font-size="12.00">helena_vars::dealloc_hel</text>
</a>
</g>
</g>
<!-- Node147&#45;&gt;Node153 -->
<g id="edge18" class="edge"><title>Node147&#45;&gt;Node153</title>
<path fill="none" stroke="midnightblue" d="M699.099,-673.01C725.699,-678.225 758.016,-684.562 785.866,-690.023"/>
<polygon fill="midnightblue" stroke="midnightblue" points="785.419,-693.502 795.906,-691.991 786.766,-686.632 785.419,-693.502"/>
</g>
<!-- Node148&#45;&gt;Node144 -->
<g id="edge17" class="edge"><title>Node148&#45;&gt;Node144</title>
<path fill="none" stroke="midnightblue" d="M914.279,-673.006C1005.66,-685.512 1179.02,-698.598 1313,-645.5 1352.26,-629.942 1386.84,-593.3 1405.31,-570.934"/>
<polygon fill="midnightblue" stroke="midnightblue" points="1408.04,-573.123 1411.58,-563.135 1402.58,-568.74 1408.04,-573.123"/>
</g>
<!-- Node149 -->
<g id="node12" class="node"><title>Node149</title>
<g id="a_node12"><a xlink:href="namespacemessages.html#a82dddaab795b78b3d39e1ff1aab2f665" target="_top" xlink:title="messages::get_mem_usage">
<polygon fill="white" stroke="black" points="1158,-615 1158,-636 1313,-636 1313,-615 1158,-615"/>
<text text-anchor="middle" x="1235.5" y="-622.4" font-family="Ubuntu Mono" font-size="12.00">messages::get_mem_usage</text>
</a>
</g>
</g>
<!-- Node148&#45;&gt;Node149 -->
<g id="edge12" class="edge"><title>Node148&#45;&gt;Node149</title>
<path fill="none" stroke="midnightblue" d="M928.202,-653.621C941.147,-652.193 954.452,-650.769 967,-649.5 1027.24,-643.409 1095.18,-637.322 1147.52,-632.803"/>
<polygon fill="midnightblue" stroke="midnightblue" points="1148.11,-636.265 1157.78,-631.92 1147.51,-629.291 1148.11,-636.265"/>
</g>
<!-- Node148&#45;&gt;Node150 -->
<g id="edge13" class="edge"><title>Node148&#45;&gt;Node150</title>
<path fill="none" stroke="midnightblue" d="M866.414,-651.964C882.588,-640.414 909.038,-621.17 931,-603.5 964.643,-576.431 1002.17,-543.06 1024.26,-523.073"/>
<polygon fill="midnightblue" stroke="midnightblue" points="1026.88,-525.422 1031.93,-516.109 1022.18,-520.24 1026.88,-525.422"/>
</g>
<!-- Node150&#45;&gt;Node149 -->
<g id="edge14" class="edge"><title>Node150&#45;&gt;Node149</title>
<path fill="none" stroke="midnightblue" d="M1062.27,-516.149C1095.48,-537.231 1169.76,-584.394 1209.03,-609.331"/>
<polygon fill="midnightblue" stroke="midnightblue" points="1207.45,-612.469 1217.77,-614.875 1211.2,-606.56 1207.45,-612.469"/>
</g>
<!-- Node151 -->
<g id="node14" class="node"><title>Node151</title>
<g id="a_node14"><a xlink:href="messages_8f90.html#a6d15f28783f95a7a4b2a44185619792f" target="_top" xlink:title="format_str">
<polygon fill="white" stroke="black" points="1197,-495 1197,-516 1274,-516 1274,-495 1197,-495"/>
<text text-anchor="middle" x="1235.5" y="-502.4" font-family="Ubuntu Mono" font-size="12.00">format_str</text>
</a>
</g>
</g>
<!-- Node150&#45;&gt;Node151 -->
<g id="edge15" class="edge"><title>Node150&#45;&gt;Node151</title>
<path fill="none" stroke="midnightblue" d="M1098.15,-505.5C1125.82,-505.5 1159.5,-505.5 1186.46,-505.5"/>
<polygon fill="midnightblue" stroke="midnightblue" points="1186.81,-509 1196.81,-505.5 1186.81,-502 1186.81,-509"/>
</g>
<!-- Node152 -->
<g id="node15" class="node"><title>Node152</title>
<g id="a_node15"><a xlink:href="namespacemessages.html#a61fd0b51b5e37d58fdc993c01792a3fd" target="_top" xlink:title="messages::get_clock">
<polygon fill="white" stroke="black" points="1355,-495 1355,-516 1486,-516 1486,-495 1355,-495"/>
<text text-anchor="middle" x="1420.5" y="-502.4" font-family="Ubuntu Mono" font-size="12.00">messages::get_clock</text>
</a>
</g>
</g>
<!-- Node151&#45;&gt;Node152 -->
<g id="edge16" class="edge"><title>Node151&#45;&gt;Node152</title>
<path fill="none" stroke="midnightblue" d="M1274.42,-505.5C1294.75,-505.5 1320.54,-505.5 1344.72,-505.5"/>
<polygon fill="midnightblue" stroke="midnightblue" points="1344.96,-509 1354.96,-505.5 1344.96,-502 1344.96,-509"/>
</g>
<!-- Node153&#45;&gt;Node144 -->
<g id="edge21" class="edge"><title>Node153&#45;&gt;Node144</title>
<path fill="none" stroke="midnightblue" d="M907.973,-713.051C998.687,-727.127 1180.14,-743.262 1313,-677.5 1359.4,-654.533 1393.56,-601.254 1409.5,-572.222"/>
<polygon fill="midnightblue" stroke="midnightblue" points="1412.77,-573.527 1414.37,-563.053 1406.58,-570.244 1412.77,-573.527"/>
</g>
<!-- Node153&#45;&gt;Node149 -->
<g id="edge19" class="edge"><title>Node153&#45;&gt;Node149</title>
<path fill="none" stroke="midnightblue" d="M925.366,-691.988C979.963,-683.722 1055.97,-671.173 1122,-656.5 1144.6,-651.477 1169.45,-644.76 1190.03,-638.862"/>
<polygon fill="midnightblue" stroke="midnightblue" points="1191.13,-642.188 1199.76,-636.044 1189.18,-635.464 1191.13,-642.188"/>
</g>
<!-- Node153&#45;&gt;Node150 -->
<g id="edge20" class="edge"><title>Node153&#45;&gt;Node150</title>
<path fill="none" stroke="midnightblue" d="M913.508,-691.944C919.726,-689.435 925.693,-686.333 931,-682.5 987.416,-641.751 1022.3,-563.184 1036.36,-525.985"/>
<polygon fill="midnightblue" stroke="midnightblue" points="1039.77,-526.848 1039.91,-516.254 1033.19,-524.446 1039.77,-526.848"/>
</g>
<!-- Node154&#45;&gt;Node150 -->
<g id="edge47" class="edge"><title>Node154&#45;&gt;Node150</title>
<path fill="none" stroke="midnightblue" d="M519.003,-427.376C613.511,-433.451 786.164,-447.632 931,-476.5 952.914,-480.868 976.929,-486.886 997.123,-492.308"/>
<polygon fill="midnightblue" stroke="midnightblue" points="996.435,-495.748 1007,-494.995 998.272,-488.994 996.435,-495.748"/>
</g>
<!-- Node155 -->
<g id="node18" class="node"><title>Node155</title>
<g id="a_node18"><a xlink:href="namespacehdf5__ops.html#a5108e0d6f6b492cb981505ebceedd9ee" target="_top" xlink:title="hdf5_ops::read_hdf5_arr">
<polygon fill="white" stroke="black" points="567,-215 567,-236 722,-236 722,-215 567,-215"/>
<text text-anchor="middle" x="644.5" y="-222.4" font-family="Ubuntu Mono" font-size="12.00">hdf5_ops::read_hdf5_arr</text>
</a>
</g>
</g>
<!-- Node154&#45;&gt;Node155 -->
<g id="edge23" class="edge"><title>Node154&#45;&gt;Node155</title>
<path fill="none" stroke="midnightblue" d="M467.354,-406.44C481.728,-393.293 501.896,-374.54 519,-357.5 558.67,-317.977 603.278,-269.696 626.838,-243.877"/>
<polygon fill="midnightblue" stroke="midnightblue" points="629.571,-246.074 633.715,-236.323 624.395,-241.361 629.571,-246.074"/>
</g>
<!-- Node161 -->
<g id="node24" class="node"><title>Node161</title>
<g id="a_node24"><a xlink:href="namespacestr__utilities.html#ac778d706b2e021672618939ab58fdd32" target="_top" xlink:title="str_utilities::r2strt">
<polygon fill="white" stroke="black" points="1164,-258 1164,-279 1307,-279 1307,-258 1164,-258"/>
<text text-anchor="middle" x="1235.5" y="-265.4" font-family="Ubuntu Mono" font-size="12.00">str_utilities::r2strt</text>
</a>
</g>
</g>
<!-- Node154&#45;&gt;Node161 -->
<g id="edge50" class="edge"><title>Node154&#45;&gt;Node161</title>
<path fill="none" stroke="midnightblue" d="M485.152,-406.483C543.856,-380.078 663.233,-329.851 770,-306.5 902.375,-277.548 1060.34,-270.213 1153.77,-268.603"/>
<polygon fill="midnightblue" stroke="midnightblue" points="1154.05,-272.099 1164,-268.445 1153.94,-265.1 1154.05,-272.099"/>
</g>
<!-- Node154&#45;&gt;Node167 -->
<g id="edge48" class="edge"><title>Node154&#45;&gt;Node167</title>
<path fill="none" stroke="midnightblue" d="M519.175,-439.81C541.852,-445.043 566.628,-450.76 588.052,-455.704"/>
<polygon fill="midnightblue" stroke="midnightblue" points="587.427,-459.152 597.958,-457.99 589.001,-452.331 587.427,-459.152"/>
</g>
<!-- Node155&#45;&gt;Node144 -->
<g id="edge45" class="edge"><title>Node155&#45;&gt;Node144</title>
<path fill="none" stroke="midnightblue" d="M718.005,-236.003C872.769,-259.828 1228.27,-322.49 1313,-406.5 1352.24,-445.404 1311.36,-485.047 1349,-525.5 1353.39,-530.223 1358.7,-534.127 1364.42,-537.354"/>
<polygon fill="midnightblue" stroke="midnightblue" points="1363.13,-540.622 1373.65,-541.887 1366.22,-534.338 1363.13,-540.622"/>
</g>
<!-- Node155&#45;&gt;Node150 -->
<g id="edge46" class="edge"><title>Node155&#45;&gt;Node150</title>
<path fill="none" stroke="midnightblue" d="M652.209,-236.059C668.882,-261.416 714.858,-326.111 770,-359.5 833.454,-397.921 865.959,-367.83 931,-403.5 951.949,-414.989 999.627,-461.339 1025.68,-487.428"/>
<polygon fill="midnightblue" stroke="midnightblue" points="1023.49,-490.187 1033.02,-494.813 1028.46,-485.252 1023.49,-490.187"/>
</g>
<!-- Node156 -->
<g id="node19" class="node"><title>Node156</title>
<g id="a_node19"><a xlink:href="namespacehdf5__utilities.html#a7574320980affc30a584f7776d33a51c" target="_top" xlink:title="hdf5_utilities::set\l_1d_vars">
<polygon fill="white" stroke="black" points="785,-133.5 785,-167.5 916,-167.5 916,-133.5 785,-133.5"/>
<text text-anchor="start" x="793" y="-153.9" font-family="Ubuntu Mono" font-size="12.00">hdf5_utilities::set</text>
<text text-anchor="middle" x="850.5" y="-140.9" font-family="Ubuntu Mono" font-size="12.00">_1d_vars</text>
</a>
</g>
</g>
<!-- Node155&#45;&gt;Node156 -->
<g id="edge24" class="edge"><title>Node155&#45;&gt;Node156</title>
<path fill="none" stroke="midnightblue" d="M671.085,-214.92C696.137,-204.682 735.468,-188.93 770,-176.5 775.209,-174.625 780.63,-172.732 786.084,-170.867"/>
<polygon fill="midnightblue" stroke="midnightblue" points="787.544,-174.069 795.898,-167.553 785.304,-167.437 787.544,-174.069"/>
</g>
<!-- Node157 -->
<g id="node20" class="node"><title>Node157</title>
<g id="a_node20"><a xlink:href="namespacempi__utilities.html#a5a789d05be41d6109c01f46cc98620c8" target="_top" xlink:title="mpi_utilities::lock\l_req_acc">
<polygon fill="white" stroke="black" points="785,-80.5 785,-114.5 916,-114.5 916,-80.5 785,-80.5"/>
<text text-anchor="start" x="793" y="-100.9" font-family="Ubuntu Mono" font-size="12.00">mpi_utilities::lock</text>
<text text-anchor="middle" x="850.5" y="-87.9" font-family="Ubuntu Mono" font-size="12.00">_req_acc</text>
</a>
</g>
</g>
<!-- Node155&#45;&gt;Node157 -->
<g id="edge25" class="edge"><title>Node155&#45;&gt;Node157</title>
<path fill="none" stroke="midnightblue" d="M655.816,-214.716C675.959,-194.228 722.705,-149.413 770,-123.5 773.086,-121.809 776.301,-120.205 779.591,-118.687"/>
<polygon fill="midnightblue" stroke="midnightblue" points="781.217,-121.798 789.024,-114.635 778.454,-115.366 781.217,-121.798"/>
</g>
<!-- Node165 -->
<g id="node28" class="node"><title>Node165</title>
<g id="a_node28"><a xlink:href="namespacempi__utilities.html#a86f9982a0f92b51a916f832d9a3d8ba9" target="_top" xlink:title="mpi_utilities::lock\l_return_acc">
<polygon fill="white" stroke="black" points="785,-186.5 785,-220.5 916,-220.5 916,-186.5 785,-186.5"/>
<text text-anchor="start" x="793" y="-206.9" font-family="Ubuntu Mono" font-size="12.00">mpi_utilities::lock</text>
<text text-anchor="middle" x="850.5" y="-193.9" font-family="Ubuntu Mono" font-size="12.00">_return_acc</text>
</a>
</g>
</g>
<!-- Node155&#45;&gt;Node165 -->
<g id="edge37" class="edge"><title>Node155&#45;&gt;Node165</title>
<path fill="none" stroke="midnightblue" d="M722.042,-217.245C739.338,-215.38 757.676,-213.403 774.891,-211.546"/>
<polygon fill="midnightblue" stroke="midnightblue" points="775.313,-215.021 784.88,-210.469 774.562,-208.061 775.313,-215.021"/>
</g>
<!-- Node166 -->
<g id="node29" class="node"><title>Node166</title>
<g id="a_node29"><a xlink:href="namespacehdf5__utilities.html#aa9d76166f970a7052cd0d96c8f3ee0be" target="_top" xlink:title="hdf5_utilities::list\l_all_vars_in_group">
<polygon fill="white" stroke="black" points="782,-316.5 782,-350.5 919,-350.5 919,-316.5 782,-316.5"/>
<text text-anchor="start" x="790" y="-336.9" font-family="Ubuntu Mono" font-size="12.00">hdf5_utilities::list</text>
<text text-anchor="middle" x="850.5" y="-323.9" font-family="Ubuntu Mono" font-size="12.00">_all_vars_in_group</text>
</a>
</g>
</g>
<!-- Node155&#45;&gt;Node166 -->
<g id="edge42" class="edge"><title>Node155&#45;&gt;Node166</title>
<path fill="none" stroke="midnightblue" d="M665.432,-236.052C698.379,-253.495 764.862,-288.692 808.258,-311.666"/>
<polygon fill="midnightblue" stroke="midnightblue" points="806.672,-314.786 817.147,-316.372 809.947,-308.6 806.672,-314.786"/>
</g>
<!-- Node158 -->
<g id="node21" class="node"><title>Node158</title>
<g id="a_node21"><a xlink:href="namespacempi__utilities.html#a4c5de9472574b63c69212948d8a3f4e1" target="_top" xlink:title="mpi_utilities::lock\l_header">
<polygon fill="white" stroke="black" points="1170,-139.5 1170,-173.5 1301,-173.5 1301,-139.5 1170,-139.5"/>
<text text-anchor="start" x="1178" y="-159.9" font-family="Ubuntu Mono" font-size="12.00">mpi_utilities::lock</text>
<text text-anchor="middle" x="1235.5" y="-146.9" font-family="Ubuntu Mono" font-size="12.00">_header</text>
</a>
</g>
</g>
<!-- Node157&#45;&gt;Node158 -->
<g id="edge26" class="edge"><title>Node157&#45;&gt;Node158</title>
<path fill="none" stroke="midnightblue" d="M916.074,-81.7721C971.806,-71.0379 1053.85,-62.0955 1122,-82.5 1154.77,-92.3105 1186.83,-115.078 1208.28,-132.788"/>
<polygon fill="midnightblue" stroke="midnightblue" points="1206.07,-135.502 1215.97,-139.29 1210.6,-130.159 1206.07,-135.502"/>
</g>
<!-- Node160 -->
<g id="node23" class="node"><title>Node160</title>
<g id="a_node23"><a xlink:href="namespacempi__utilities.html#a0417983d618bfc9f892d6d2af5d27b1d" target="_top" xlink:title="mpi_utilities::lock\l_wl_change">
<polygon fill="white" stroke="black" points="979,-186.5 979,-220.5 1110,-220.5 1110,-186.5 979,-186.5"/>
<text text-anchor="start" x="987" y="-206.9" font-family="Ubuntu Mono" font-size="12.00">mpi_utilities::lock</text>
<text text-anchor="middle" x="1044.5" y="-193.9" font-family="Ubuntu Mono" font-size="12.00">_wl_change</text>
</a>
</g>
</g>
<!-- Node157&#45;&gt;Node160 -->
<g id="edge29" class="edge"><title>Node157&#45;&gt;Node160</title>
<path fill="none" stroke="midnightblue" d="M916.273,-114.533C921.483,-117.124 926.475,-120.095 931,-123.5 953.753,-140.622 944.447,-159.115 967,-176.5 969.301,-178.273 971.727,-179.936 974.244,-181.495"/>
<polygon fill="midnightblue" stroke="midnightblue" points="972.657,-184.617 983.101,-186.403 976.05,-178.494 972.657,-184.617"/>
</g>
<!-- Node162 -->
<g id="node25" class="node"><title>Node162</title>
<g id="a_node25"><a xlink:href="namespacempi__utilities.html#a74e2e82b561f403ca8087c3925f76e29" target="_top" xlink:title="mpi_utilities::wl_empty">
<polygon fill="white" stroke="black" points="967,-146 967,-167 1122,-167 1122,-146 967,-146"/>
<text text-anchor="middle" x="1044.5" y="-153.4" font-family="Ubuntu Mono" font-size="12.00">mpi_utilities::wl_empty</text>
</a>
</g>
</g>
<!-- Node157&#45;&gt;Node162 -->
<g id="edge32" class="edge"><title>Node157&#45;&gt;Node162</title>
<path fill="none" stroke="midnightblue" d="M903.686,-114.52C912.794,-117.504 922.175,-120.586 931,-123.5 947.015,-128.788 950.862,-130.599 967,-135.5 975.522,-138.088 984.619,-140.708 993.458,-143.18"/>
<polygon fill="midnightblue" stroke="midnightblue" points="992.712,-146.605 1003.28,-145.897 994.578,-139.858 992.712,-146.605"/>
</g>
<!-- Node163 -->
<g id="node26" class="node"><title>Node163</title>
<g id="a_node26"><a xlink:href="namespacempi__utilities.html#a5d2dbf8ffba124237c362f06c3d3ac32" target="_top" xlink:title="mpi_utilities::lock\l_notify">
<polygon fill="white" stroke="black" points="979,-92.5 979,-126.5 1110,-126.5 1110,-92.5 979,-92.5"/>
<text text-anchor="start" x="987" y="-112.9" font-family="Ubuntu Mono" font-size="12.00">mpi_utilities::lock</text>
<text text-anchor="middle" x="1044.5" y="-99.9" font-family="Ubuntu Mono" font-size="12.00">_notify</text>
</a>
</g>
</g>
<!-- Node157&#45;&gt;Node163 -->
<g id="edge33" class="edge"><title>Node157&#45;&gt;Node163</title>
<path fill="none" stroke="midnightblue" d="M916.235,-101.546C933.071,-102.598 951.347,-103.74 968.657,-104.822"/>
<polygon fill="midnightblue" stroke="midnightblue" points="968.521,-108.321 978.72,-105.451 968.958,-101.334 968.521,-108.321"/>
</g>
<!-- Node164 -->
<g id="node27" class="node"><title>Node164</title>
<g id="a_node27"><a xlink:href="namespacempi__utilities.html#a9ec02d2ade63716189369640f0da3c5f" target="_top" xlink:title="mpi_utilities::lock\l_get_notified">
<polygon fill="white" stroke="black" points="979,-0.5 979,-34.5 1110,-34.5 1110,-0.5 979,-0.5"/>
<text text-anchor="start" x="987" y="-20.9" font-family="Ubuntu Mono" font-size="12.00">mpi_utilities::lock</text>
<text text-anchor="middle" x="1044.5" y="-7.9" font-family="Ubuntu Mono" font-size="12.00">_get_notified</text>
</a>
</g>
</g>
<!-- Node157&#45;&gt;Node164 -->
<g id="edge35" class="edge"><title>Node157&#45;&gt;Node164</title>
<path fill="none" stroke="midnightblue" d="M892.689,-80.338C922.047,-68.1055 961.69,-51.5876 992.963,-38.557"/>
<polygon fill="midnightblue" stroke="midnightblue" points="994.495,-41.7106 1002.38,-34.6336 991.802,-35.2491 994.495,-41.7106"/>
</g>
<!-- Node158&#45;&gt;Node144 -->
<g id="edge28" class="edge"><title>Node158&#45;&gt;Node144</title>
<path fill="none" stroke="midnightblue" d="M1256.12,-173.724C1274.14,-190.779 1299.96,-218.609 1313,-248.5 1362.65,-362.285 1272.18,-427.972 1349,-525.5 1352.55,-530.005 1356.94,-533.758 1361.79,-536.886"/>
<polygon fill="midnightblue" stroke="midnightblue" points="1360.47,-540.15 1370.92,-541.866 1363.82,-534.005 1360.47,-540.15"/>
</g>
<!-- Node159 -->
<g id="node22" class="node"><title>Node159</title>
<g id="a_node22"><a xlink:href="namespacestr__utilities.html#acb8c4e66aead51f178e47fdea8d7a7db" target="_top" xlink:title="str_utilities::ii2str">
<polygon fill="white" stroke="black" points="1349,-146 1349,-167 1492,-167 1492,-146 1349,-146"/>
<text text-anchor="middle" x="1420.5" y="-153.4" font-family="Ubuntu Mono" font-size="12.00">str_utilities::ii2str</text>
</a>
</g>
</g>
<!-- Node158&#45;&gt;Node159 -->
<g id="edge27" class="edge"><title>Node158&#45;&gt;Node159</title>
<path fill="none" stroke="midnightblue" d="M1301.02,-156.5C1313.2,-156.5 1326.08,-156.5 1338.68,-156.5"/>
<polygon fill="midnightblue" stroke="midnightblue" points="1338.72,-160 1348.72,-156.5 1338.72,-153 1338.72,-160"/>
</g>
<!-- Node160&#45;&gt;Node158 -->
<g id="edge30" class="edge"><title>Node160&#45;&gt;Node158</title>
<path fill="none" stroke="midnightblue" d="M1110.01,-187.457C1126.04,-183.471 1143.36,-179.165 1159.83,-175.069"/>
<polygon fill="midnightblue" stroke="midnightblue" points="1161.1,-178.361 1169.96,-172.551 1159.41,-171.568 1161.1,-178.361"/>
</g>
<!-- Node160&#45;&gt;Node161 -->
<g id="edge31" class="edge"><title>Node160&#45;&gt;Node161</title>
<path fill="none" stroke="midnightblue" d="M1095.16,-220.578C1125.98,-231.177 1165.08,-244.624 1194.01,-254.575"/>
<polygon fill="midnightblue" stroke="midnightblue" points="1193.19,-257.995 1203.79,-257.938 1195.47,-251.376 1193.19,-257.995"/>
</g>
<!-- Node163&#45;&gt;Node158 -->
<g id="edge34" class="edge"><title>Node163&#45;&gt;Node158</title>
<path fill="none" stroke="midnightblue" d="M1110.01,-125.543C1126.04,-129.529 1143.36,-133.835 1159.83,-137.931"/>
<polygon fill="midnightblue" stroke="midnightblue" points="1159.41,-141.432 1169.96,-140.449 1161.1,-134.639 1159.41,-141.432"/>
</g>
<!-- Node164&#45;&gt;Node158 -->
<g id="edge36" class="edge"><title>Node164&#45;&gt;Node158</title>
<path fill="none" stroke="midnightblue" d="M1093.8,-34.5498C1103.47,-38.8247 1113.32,-43.8346 1122,-49.5 1157.69,-72.796 1192.21,-108.136 1213.39,-131.754"/>
<polygon fill="midnightblue" stroke="midnightblue" points="1210.8,-134.106 1220.05,-139.28 1216.04,-129.469 1210.8,-134.106"/>
</g>
<!-- Node165&#45;&gt;Node158 -->
<g id="edge38" class="edge"><title>Node165&#45;&gt;Node158</title>
<path fill="none" stroke="midnightblue" d="M905.774,-220.56C961.229,-235.267 1049.28,-251.026 1122,-229.5 1154.47,-219.89 1186.35,-197.642 1207.84,-180.215"/>
<polygon fill="midnightblue" stroke="midnightblue" points="1210.09,-182.893 1215.54,-173.808 1205.61,-177.51 1210.09,-182.893"/>
</g>
<!-- Node165&#45;&gt;Node160 -->
<g id="edge39" class="edge"><title>Node165&#45;&gt;Node160</title>
<path fill="none" stroke="midnightblue" d="M916.235,-203.5C933.071,-203.5 951.347,-203.5 968.657,-203.5"/>
<polygon fill="midnightblue" stroke="midnightblue" points="968.72,-207 978.72,-203.5 968.72,-200 968.72,-207"/>
</g>
<!-- Node165&#45;&gt;Node162 -->
<g id="edge40" class="edge"><title>Node165&#45;&gt;Node162</title>
<path fill="none" stroke="midnightblue" d="M916.235,-187.653C940.417,-181.734 967.571,-175.087 990.566,-169.458"/>
<polygon fill="midnightblue" stroke="midnightblue" points="991.597,-172.809 1000.48,-167.031 989.933,-166.01 991.597,-172.809"/>
</g>
<!-- Node165&#45;&gt;Node163 -->
<g id="edge41" class="edge"><title>Node165&#45;&gt;Node163</title>
<path fill="none" stroke="midnightblue" d="M912.507,-186.434C918.98,-183.566 925.28,-180.27 931,-176.5 950.971,-163.339 947.108,-149.78 967,-136.5 969.899,-134.565 972.953,-132.751 976.104,-131.054"/>
<polygon fill="midnightblue" stroke="midnightblue" points="977.772,-134.134 985.195,-126.574 974.678,-127.855 977.772,-134.134"/>
</g>
<!-- Node166&#45;&gt;Node144 -->
<g id="edge44" class="edge"><title>Node166&#45;&gt;Node144</title>
<path fill="none" stroke="midnightblue" d="M919.012,-344.212C1013.5,-361.641 1187.65,-402.836 1313,-485.5 1332.97,-498.667 1329.29,-511.958 1349,-525.5 1356.3,-530.514 1364.66,-534.762 1373.01,-538.3"/>
<polygon fill="midnightblue" stroke="midnightblue" points="1371.79,-541.58 1382.37,-541.994 1374.35,-535.069 1371.79,-541.58"/>
</g>
<!-- Node166&#45;&gt;Node150 -->
<g id="edge43" class="edge"><title>Node166&#45;&gt;Node150</title>
<path fill="none" stroke="midnightblue" d="M907.703,-350.532C916.066,-354.596 924.16,-359.535 931,-365.5 955.305,-386.696 947.467,-402.84 967,-428.5 983.912,-450.717 1006.87,-473.011 1023.22,-487.85"/>
<polygon fill="midnightblue" stroke="midnightblue" points="1021.31,-490.836 1031.09,-494.891 1025.97,-485.617 1021.31,-490.836"/>
</g>
<!-- Node167&#45;&gt;Node150 -->
<g id="edge49" class="edge"><title>Node167&#45;&gt;Node150</title>
<path fill="none" stroke="midnightblue" d="M701.259,-473.684C774.865,-480.526 904.088,-492.54 980.944,-499.685"/>
<polygon fill="midnightblue" stroke="midnightblue" points="980.689,-503.176 990.97,-500.617 981.337,-496.206 980.689,-503.176"/>
</g>
<!-- Node168&#45;&gt;Node155 -->
<g id="edge52" class="edge"><title>Node168&#45;&gt;Node155</title>
<path fill="none" stroke="midnightblue" d="M320.087,-208.489C338.004,-204.371 357.653,-200.564 376,-198.5 439.157,-191.396 455.806,-191.726 519,-198.5 544.478,-201.231 572.394,-207.02 595.324,-212.54"/>
<polygon fill="midnightblue" stroke="midnightblue" points="594.604,-215.967 605.151,-214.962 596.279,-209.171 594.604,-215.967"/>
</g>
<!-- Node169 -->
<g id="node32" class="node"><title>Node169</title>
<g id="a_node32"><a xlink:href="namespacepb3d__ops.html#a0bd4c4c24d7cbd1494b31ea993946433" target="_top" xlink:title="pb3d_ops::get_pb3d\l_grid_size">
<polygon fill="white" stroke="black" points="385,-208.5 385,-242.5 510,-242.5 510,-208.5 385,-208.5"/>
<text text-anchor="start" x="393" y="-228.9" font-family="Ubuntu Mono" font-size="12.00">pb3d_ops::get_pb3d</text>
<text text-anchor="middle" x="447.5" y="-215.9" font-family="Ubuntu Mono" font-size="12.00">_grid_size</text>
</a>
</g>
</g>
<!-- Node168&#45;&gt;Node169 -->
<g id="edge53" class="edge"><title>Node168&#45;&gt;Node169</title>
<path fill="none" stroke="midnightblue" d="M328.145,-225.5C343.309,-225.5 359.35,-225.5 374.562,-225.5"/>
<polygon fill="midnightblue" stroke="midnightblue" points="374.94,-229 384.94,-225.5 374.94,-222 374.94,-229"/>
</g>
<!-- Node169&#45;&gt;Node155 -->
<g id="edge54" class="edge"><title>Node169&#45;&gt;Node155</title>
<path fill="none" stroke="midnightblue" d="M510.199,-225.5C524.936,-225.5 540.939,-225.5 556.575,-225.5"/>
<polygon fill="midnightblue" stroke="midnightblue" points="556.781,-229 566.781,-225.5 556.781,-222 556.781,-229"/>
</g>
<!-- Node170&#45;&gt;Node155 -->
<g id="edge56" class="edge"><title>Node170&#45;&gt;Node155</title>
<path fill="none" stroke="midnightblue" d="M496.84,-314.463C504.367,-311.389 511.973,-308.03 519,-304.5 556.077,-285.871 596.115,-259.161 620.5,-242.072"/>
<polygon fill="midnightblue" stroke="midnightblue" points="622.597,-244.875 628.741,-236.244 618.556,-239.16 622.597,-244.875"/>
</g>
<!-- Node171&#45;&gt;Node155 -->
<g id="edge58" class="edge"><title>Node171&#45;&gt;Node155</title>
<path fill="none" stroke="midnightblue" d="M511.273,-261.439C538.401,-254.065 569.655,-245.571 594.964,-238.692"/>
<polygon fill="midnightblue" stroke="midnightblue" points="595.973,-242.045 604.705,-236.044 594.137,-235.29 595.973,-242.045"/>
</g>
<!-- Node172&#45;&gt;Node155 -->
<g id="edge60" class="edge"><title>Node172&#45;&gt;Node155</title>
<path fill="none" stroke="midnightblue" d="M328.2,-170.329C381.104,-172.626 455.044,-177.809 519,-189.5 547.888,-194.781 579.681,-204.034 603.908,-211.837"/>
<polygon fill="midnightblue" stroke="midnightblue" points="602.871,-215.181 613.464,-214.966 605.049,-208.528 602.871,-215.181"/>
</g>
<!-- Node173&#45;&gt;Node155 -->
<g id="edge62" class="edge"><title>Node173&#45;&gt;Node155</title>
<path fill="none" stroke="midnightblue" d="M328.169,-120.466C381.379,-131.135 455.72,-147.985 519,-169.5 552.478,-180.883 589.221,-198.018 614.052,-210.335"/>
<polygon fill="midnightblue" stroke="midnightblue" points="612.768,-213.606 623.275,-214.96 615.906,-207.349 612.768,-213.606"/>
</g>
<!-- Node174&#45;&gt;Node143 -->
<g id="edge65" class="edge"><title>Node174&#45;&gt;Node143</title>
<path fill="none" stroke="midnightblue" d="M454.713,-557.303C469.418,-582.115 508.622,-643.996 555,-682.5 566.366,-691.936 579.985,-700.192 593.093,-707.006"/>
<polygon fill="midnightblue" stroke="midnightblue" points="591.544,-710.144 602.053,-711.49 594.677,-703.884 591.544,-710.144"/>
</g>
<!-- Node174&#45;&gt;Node146 -->
<g id="edge64" class="edge"><title>Node174&#45;&gt;Node146</title>
<path fill="none" stroke="midnightblue" d="M502.559,-535.965C526.335,-531.332 554.442,-525.855 579.277,-521.015"/>
<polygon fill="midnightblue" stroke="midnightblue" points="580.19,-524.403 589.335,-519.055 578.851,-517.533 580.19,-524.403"/>
</g>
<!-- Node174&#45;&gt;Node150 -->
<g id="edge66" class="edge"><title>Node174&#45;&gt;Node150</title>
<path fill="none" stroke="midnightblue" d="M507.019,-543.003C564.738,-539.508 655.467,-533.894 734,-528.5 819.545,-522.625 918.336,-515.166 980.847,-510.363"/>
<polygon fill="midnightblue" stroke="midnightblue" points="981.239,-513.843 990.941,-509.586 980.702,-506.864 981.239,-513.843"/>
</g>
<!-- Node174&#45;&gt;Node167 -->
<g id="edge67" class="edge"><title>Node174&#45;&gt;Node167</title>
<path fill="none" stroke="midnightblue" d="M464.43,-535.99C484.687,-523.064 521.115,-501.273 555,-488.5 562.255,-485.765 569.991,-483.343 577.756,-481.214"/>
<polygon fill="midnightblue" stroke="midnightblue" points="578.769,-484.567 587.572,-478.672 577.014,-477.791 578.769,-484.567"/>
</g>
<!-- Node175&#45;&gt;Node144 -->
<g id="edge70" class="edge"><title>Node175&#45;&gt;Node144</title>
<path fill="none" stroke="midnightblue" d="M919.168,-574.522C1025.14,-569.857 1229.69,-560.854 1341.63,-555.927"/>
<polygon fill="midnightblue" stroke="midnightblue" points="1342,-559.415 1351.84,-555.478 1341.69,-552.421 1342,-559.415"/>
</g>
<!-- Node175&#45;&gt;Node150 -->
<g id="edge69" class="edge"><title>Node175&#45;&gt;Node150</title>
<path fill="none" stroke="midnightblue" d="M897.001,-560.437C930.122,-548.017 974.454,-531.392 1005.65,-519.695"/>
<polygon fill="midnightblue" stroke="midnightblue" points="1007.15,-522.871 1015.28,-516.082 1004.69,-516.316 1007.15,-522.871"/>
</g>
</g>
</svg>
