<?xml version="1.0" encoding="UTF-8" standalone="no"?>
<!DOCTYPE svg PUBLIC "-//W3C//DTD SVG 1.1//EN"
 "http://www.w3.org/Graphics/SVG/1.1/DTD/svg11.dtd">
<!-- Generated by graphviz version 2.43.0 (0)
 -->
<!-- Title: eq_ops::calc_derived_q Pages: 1 -->
<svg width="1145pt" height="378pt"
 viewBox="0.00 0.00 1145.00 378.39" xmlns="http://www.w3.org/2000/svg" xmlns:xlink="http://www.w3.org/1999/xlink">
<g id="graph0" class="graph" transform="scale(1 1) rotate(0) translate(4 374.39)">
<title>eq_ops::calc_derived_q</title>
<polygon fill="white" stroke="transparent" points="-4,4 -4,-374.39 1141,-374.39 1141,4 -4,4"/>
<!-- Node1 -->
<g id="node1" class="node">
<title>Node1</title>
<g id="a_node1"><a xlink:title="Calculates derived equilibrium quantities system.">
<polygon fill="#bfbfbf" stroke="black" points="0,-97.89 0,-118.89 155,-118.89 155,-97.89 0,-97.89"/>
<text text-anchor="middle" x="77.5" y="-105.29" font-family="Ubuntu Mono" font-size="12.00">eq_ops::calc_derived_q</text>
</a>
</g>
</g>
<!-- Node2 -->
<g id="node2" class="node">
<title>Node2</title>
<g id="a_node2"><a xlink:href="namespacenum__utilities.html#a5ee3fbd1fe67d0deefc7194631389f2a" target="_top" xlink:title="Convert 2&#45;D coordinates (i,j) to the storage convention used in matrices.">
<polygon fill="white" stroke="black" points="429,-348.89 429,-369.89 535,-369.89 535,-348.89 429,-348.89"/>
<text text-anchor="middle" x="482" y="-356.29" font-family="Ubuntu Mono" font-size="12.00">num_utilities::c</text>
</a>
</g>
</g>
<!-- Node1&#45;&gt;Node2 -->
<g id="edge1" class="edge">
<title>Node1&#45;&gt;Node2</title>
<path fill="none" stroke="midnightblue" d="M89.19,-119.06C127.2,-156.32 260.89,-281.55 397,-339.39 403.91,-342.32 411.33,-344.87 418.79,-347.08"/>
<polygon fill="midnightblue" stroke="midnightblue" points="418.02,-350.5 428.59,-349.78 419.88,-343.75 418.02,-350.5"/>
</g>
<!-- Node3 -->
<g id="node3" class="node">
<title>Node3</title>
<g id="a_node3"><a xlink:href="eq__ops_8f90.html#a369b73b541213d572d7197e0d549c014" target="_top" xlink:title=" ">
<polygon fill="white" stroke="black" points="191,-176.89 191,-197.89 361,-197.89 361,-176.89 191,-176.89"/>
<text text-anchor="middle" x="276" y="-184.29" font-family="Ubuntu Mono" font-size="12.00">calc_derived_de_epar_hel</text>
</a>
</g>
</g>
<!-- Node1&#45;&gt;Node3 -->
<g id="edge2" class="edge">
<title>Node1&#45;&gt;Node3</title>
<path fill="none" stroke="midnightblue" d="M105,-119.04C139.67,-132.98 200.55,-157.46 239.27,-173.02"/>
<polygon fill="midnightblue" stroke="midnightblue" points="238.02,-176.29 248.61,-176.78 240.63,-169.8 238.02,-176.29"/>
</g>
<!-- Node7 -->
<g id="node7" class="node">
<title>Node7</title>
<g id="a_node7"><a xlink:href="namespacemessages.html#a6e6bfb084063e4cc91ee86e542043302" target="_top" xlink:title="Increases/decreases lvl of output.">
<polygon fill="white" stroke="black" points="626.5,-19.89 626.5,-40.89 744.5,-40.89 744.5,-19.89 626.5,-19.89"/>
<text text-anchor="middle" x="685.5" y="-27.29" font-family="Ubuntu Mono" font-size="12.00">messages::lvl_ud</text>
</a>
</g>
</g>
<!-- Node1&#45;&gt;Node7 -->
<g id="edge20" class="edge">
<title>Node1&#45;&gt;Node7</title>
<path fill="none" stroke="midnightblue" d="M122.5,-97.84C183.68,-83.63 298.06,-58.71 397,-46.39 471.64,-37.09 557.86,-33.19 616.26,-31.56"/>
<polygon fill="midnightblue" stroke="midnightblue" points="616.57,-35.06 626.47,-31.29 616.38,-28.06 616.57,-35.06"/>
</g>
<!-- Node8 -->
<g id="node8" class="node">
<title>Node8</title>
<g id="a_node8"><a xlink:href="namespacemessages.html#aa4a8d01563e92558e8a0875b075ec54c" target="_top" xlink:title="Write output to file identified by output_i.">
<polygon fill="white" stroke="black" points="804,-58.89 804,-79.89 918,-79.89 918,-58.89 804,-58.89"/>
<text text-anchor="middle" x="861" y="-66.29" font-family="Ubuntu Mono" font-size="12.00">messages::writo</text>
</a>
</g>
</g>
<!-- Node1&#45;&gt;Node8 -->
<g id="edge21" class="edge">
<title>Node1&#45;&gt;Node8</title>
<path fill="none" stroke="midnightblue" d="M93.27,-97.79C113.99,-83.56 153.35,-58.75 191,-47.39 367,5.75 419.34,-18.62 603,-10.39 676.26,-7.1 697.63,10.24 768,-10.39 795.7,-18.5 822.96,-37.81 840.53,-52.13"/>
<polygon fill="midnightblue" stroke="midnightblue" points="838.43,-54.94 848.33,-58.7 842.93,-49.58 838.43,-54.94"/>
</g>
<!-- Node3&#45;&gt;Node2 -->
<g id="edge3" class="edge">
<title>Node3&#45;&gt;Node2</title>
<path fill="none" stroke="midnightblue" d="M288.15,-197.93C305.05,-214.24 337.65,-246.98 361,-278.39 379.78,-303.65 371.67,-320.7 397,-339.39 403.6,-344.26 411.22,-347.96 419.12,-350.77"/>
<polygon fill="midnightblue" stroke="midnightblue" points="418.26,-354.17 428.85,-353.78 420.33,-347.48 418.26,-354.17"/>
</g>
<!-- Node4 -->
<g id="node4" class="node">
<title>Node4</title>
<g id="a_node4"><a xlink:href="namespacegrid__utilities.html#a39e7cd9b8f173994358dbdd6b57827e1" target="_top" xlink:title="Calculates , &#160;and &#160;on a grid grid_XYZ, determined through its E(quilibrium) coordinates.">
<polygon fill="white" stroke="black" points="422.5,-255.39 422.5,-289.39 541.5,-289.39 541.5,-255.39 422.5,-255.39"/>
<text text-anchor="start" x="430.5" y="-275.79" font-family="Ubuntu Mono" font-size="12.00">grid_utilities::calc</text>
<text text-anchor="middle" x="482" y="-262.79" font-family="Ubuntu Mono" font-size="12.00">_xyz_grid</text>
</a>
</g>
</g>
<!-- Node3&#45;&gt;Node4 -->
<g id="edge4" class="edge">
<title>Node3&#45;&gt;Node4</title>
<path fill="none" stroke="midnightblue" d="M299.85,-197.9C323.88,-208.86 362.87,-226.36 397,-240.39 406.2,-244.17 416.03,-248.05 425.6,-251.75"/>
<polygon fill="midnightblue" stroke="midnightblue" points="424.46,-255.06 435.05,-255.38 426.97,-248.53 424.46,-255.06"/>
</g>
<!-- Node5 -->
<g id="node5" class="node">
<title>Node5</title>
<g id="a_node5"><a xlink:href="namespaceoutput__ops.html#a50bfbb88cc91805469353c3ff47b3e2e" target="_top" xlink:title="Use external program to draw a plot.">
<polygon fill="white" stroke="black" points="412,-136.89 412,-157.89 552,-157.89 552,-136.89 412,-136.89"/>
<text text-anchor="middle" x="482" y="-144.29" font-family="Ubuntu Mono" font-size="12.00">output_ops::draw_ex</text>
</a>
</g>
</g>
<!-- Node3&#45;&gt;Node5 -->
<g id="edge5" class="edge">
<title>Node3&#45;&gt;Node5</title>
<path fill="none" stroke="midnightblue" d="M330.6,-176.88C357.2,-171.66 389.52,-165.32 417.37,-159.86"/>
<polygon fill="midnightblue" stroke="midnightblue" points="418.27,-163.25 427.41,-157.9 416.92,-156.39 418.27,-163.25"/>
</g>
<!-- Node6 -->
<g id="node6" class="node">
<title>Node6</title>
<g id="a_node6"><a xlink:href="namespacestr__utilities.html#a0b97e51770725a3e98ed393d26681414" target="_top" xlink:title="Convert an integer to string.">
<polygon fill="white" stroke="black" points="988.5,-228.89 988.5,-249.89 1102.5,-249.89 1102.5,-228.89 988.5,-228.89"/>
<text text-anchor="middle" x="1045.5" y="-236.29" font-family="Ubuntu Mono" font-size="12.00">str_utilities::i2str</text>
</a>
</g>
</g>
<!-- Node3&#45;&gt;Node6 -->
<g id="edge15" class="edge">
<title>Node3&#45;&gt;Node6</title>
<path fill="none" stroke="midnightblue" d="M329.94,-197.91C408.18,-213.34 551.03,-240.95 603,-247.39 691.84,-258.4 714.53,-257.5 804,-260.39 854.64,-262.02 867.5,-264.55 918,-260.39 939.36,-258.63 962.53,-255.22 983.15,-251.66"/>
<polygon fill="midnightblue" stroke="midnightblue" points="983.81,-255.09 993.04,-249.9 982.58,-248.2 983.81,-255.09"/>
</g>
<!-- Node3&#45;&gt;Node7 -->
<g id="edge16" class="edge">
<title>Node3&#45;&gt;Node7</title>
<path fill="none" stroke="midnightblue" d="M286.77,-176.81C305.89,-156.79 350.45,-113.41 397,-91.39 435.16,-73.33 544.1,-53.13 616.38,-41.1"/>
<polygon fill="midnightblue" stroke="midnightblue" points="617.03,-44.54 626.33,-39.46 615.89,-37.64 617.03,-44.54"/>
</g>
<!-- Node3&#45;&gt;Node8 -->
<g id="edge19" class="edge">
<title>Node3&#45;&gt;Node8</title>
<path fill="none" stroke="midnightblue" d="M294.23,-176.85C316.96,-163.41 358.6,-140.34 397,-127.39 532.81,-81.57 702.06,-71.38 793.65,-69.46"/>
<polygon fill="midnightblue" stroke="midnightblue" points="793.95,-72.95 803.88,-69.27 793.82,-65.95 793.95,-72.95"/>
</g>
<!-- Node13 -->
<g id="node13" class="node">
<title>Node13</title>
<g id="a_node13"><a xlink:href="namespaceoutput__ops.html#ab0d14194d01ab0534562eab50b37a57a" target="_top" xlink:title="Takes two input vectors and plots these as well as the relative and absolute difference in a HDF5 fil...">
<polygon fill="white" stroke="black" points="397,-308.89 397,-329.89 567,-329.89 567,-308.89 397,-308.89"/>
<text text-anchor="middle" x="482" y="-316.29" font-family="Ubuntu Mono" font-size="12.00">output_ops::plot_diff_hdf5</text>
</a>
</g>
</g>
<!-- Node3&#45;&gt;Node13 -->
<g id="edge17" class="edge">
<title>Node3&#45;&gt;Node13</title>
<path fill="none" stroke="midnightblue" d="M285.03,-197.92C302.68,-220.3 347.28,-272.72 397,-299.39 401.24,-301.66 405.73,-303.68 410.35,-305.46"/>
<polygon fill="midnightblue" stroke="midnightblue" points="409.37,-308.83 419.96,-308.83 411.68,-302.22 409.37,-308.83"/>
</g>
<!-- Node14 -->
<g id="node14" class="node">
<title>Node14</title>
<g id="a_node14"><a xlink:href="namespacegrid__utilities.html#a67001ff9bbcad707aacf17f90a748d90" target="_top" xlink:title="Trim a grid, removing any overlap between the different regions.">
<polygon fill="white" stroke="black" points="407.5,-176.89 407.5,-197.89 556.5,-197.89 556.5,-176.89 407.5,-176.89"/>
<text text-anchor="middle" x="482" y="-184.29" font-family="Ubuntu Mono" font-size="12.00">grid_utilities::trim_grid</text>
</a>
</g>
</g>
<!-- Node3&#45;&gt;Node14 -->
<g id="edge18" class="edge">
<title>Node3&#45;&gt;Node14</title>
<path fill="none" stroke="midnightblue" d="M361.15,-187.39C373.04,-187.39 385.25,-187.39 397.13,-187.39"/>
<polygon fill="midnightblue" stroke="midnightblue" points="397.47,-190.89 407.47,-187.39 397.47,-183.89 397.47,-190.89"/>
</g>
<!-- Node5&#45;&gt;Node6 -->
<g id="edge6" class="edge">
<title>Node5&#45;&gt;Node6</title>
<path fill="none" stroke="midnightblue" d="M548.81,-157.94C555.25,-160.45 561.45,-163.56 567,-167.39 590.44,-183.56 578.13,-206.52 603,-220.39 665.48,-255.22 871.21,-249.39 978.34,-243.65"/>
<polygon fill="midnightblue" stroke="midnightblue" points="978.6,-247.14 988.39,-243.1 978.21,-240.15 978.6,-247.14"/>
</g>
<!-- Node5&#45;&gt;Node7 -->
<g id="edge7" class="edge">
<title>Node5&#45;&gt;Node7</title>
<path fill="none" stroke="midnightblue" d="M501.24,-136.8C536.81,-116.14 615.63,-70.37 657.36,-46.14"/>
<polygon fill="midnightblue" stroke="midnightblue" points="659.27,-49.08 666.16,-41.04 655.75,-43.03 659.27,-49.08"/>
</g>
<!-- Node5&#45;&gt;Node8 -->
<g id="edge14" class="edge">
<title>Node5&#45;&gt;Node8</title>
<path fill="none" stroke="midnightblue" d="M552.2,-152.27C611.08,-154.21 697.12,-151.75 768,-128.39 795.26,-119.4 822.42,-100.44 840.09,-86.43"/>
<polygon fill="midnightblue" stroke="midnightblue" points="842.42,-89.04 847.95,-80.01 837.99,-83.62 842.42,-89.04"/>
</g>
<!-- Node11 -->
<g id="node11" class="node">
<title>Node11</title>
<g id="a_node11"><a xlink:href="namespacefiles__utilities.html#ac6066df405564ba2f5e3c4bba726c1f8" target="_top" xlink:title="Search for available new unit.">
<polygon fill="white" stroke="black" points="613,-97.89 613,-118.89 758,-118.89 758,-97.89 613,-97.89"/>
<text text-anchor="middle" x="685.5" y="-105.29" font-family="Ubuntu Mono" font-size="12.00">files_utilities::nextunit</text>
</a>
</g>
</g>
<!-- Node5&#45;&gt;Node11 -->
<g id="edge12" class="edge">
<title>Node5&#45;&gt;Node11</title>
<path fill="none" stroke="midnightblue" d="M537.26,-136.88C562.79,-131.94 593.42,-126.01 620.12,-120.85"/>
<polygon fill="midnightblue" stroke="midnightblue" points="620.99,-124.24 630.14,-118.91 619.66,-117.37 620.99,-124.24"/>
</g>
<!-- Node12 -->
<g id="node12" class="node">
<title>Node12</title>
<g id="a_node12"><a xlink:href="namespaceoutput__ops.html#aa9e4855511b6ea16a08b3efb587bec51" target="_top" xlink:title="Executes command line, or displays a message if disabled.">
<polygon fill="white" stroke="black" points="603,-176.39 603,-210.39 768,-210.39 768,-176.39 603,-176.39"/>
<text text-anchor="start" x="611" y="-196.79" font-family="Ubuntu Mono" font-size="12.00">output_ops::use_execute</text>
<text text-anchor="middle" x="685.5" y="-183.79" font-family="Ubuntu Mono" font-size="12.00">_command_line</text>
</a>
</g>
</g>
<!-- Node5&#45;&gt;Node12 -->
<g id="edge13" class="edge">
<title>Node5&#45;&gt;Node12</title>
<path fill="none" stroke="midnightblue" d="M529.23,-157.94C550.16,-162.72 575.59,-168.52 599.76,-174.04"/>
<polygon fill="midnightblue" stroke="midnightblue" points="599.13,-177.49 609.66,-176.3 600.69,-170.66 599.13,-177.49"/>
</g>
<!-- Node7&#45;&gt;Node8 -->
<g id="edge8" class="edge">
<title>Node7&#45;&gt;Node8</title>
<path fill="none" stroke="midnightblue" d="M733.45,-40.94C754.96,-45.77 780.63,-51.55 803.21,-56.62"/>
<polygon fill="midnightblue" stroke="midnightblue" points="802.49,-60.05 813.01,-58.82 804.02,-53.22 802.49,-60.05"/>
</g>
<!-- Node8&#45;&gt;Node6 -->
<g id="edge11" class="edge">
<title>Node8&#45;&gt;Node6</title>
<path fill="none" stroke="midnightblue" d="M873.42,-80.02C903.89,-108.4 987.39,-186.18 1025.31,-221.51"/>
<polygon fill="midnightblue" stroke="midnightblue" points="1023.39,-224.5 1033.09,-228.76 1028.16,-219.38 1023.39,-224.5"/>
</g>
<!-- Node9 -->
<g id="node9" class="node">
<title>Node9</title>
<g id="a_node9"><a xlink:href="namespacemessages.html#a61fd0b51b5e37d58fdc993c01792a3fd" target="_top" xlink:title="Returns the time.">
<polygon fill="white" stroke="black" points="975.5,-38.89 975.5,-59.89 1115.5,-59.89 1115.5,-38.89 975.5,-38.89"/>
<text text-anchor="middle" x="1045.5" y="-46.29" font-family="Ubuntu Mono" font-size="12.00">messages::get_clock</text>
</a>
</g>
</g>
<!-- Node8&#45;&gt;Node9 -->
<g id="edge9" class="edge">
<title>Node8&#45;&gt;Node9</title>
<path fill="none" stroke="midnightblue" d="M918.25,-63.22C933.02,-61.6 949.24,-59.83 964.99,-58.1"/>
<polygon fill="midnightblue" stroke="midnightblue" points="965.69,-61.54 975.25,-56.98 964.93,-54.59 965.69,-61.54"/>
</g>
<!-- Node10 -->
<g id="node10" class="node">
<title>Node10</title>
<g id="a_node10"><a xlink:href="namespacemessages.html#a82dddaab795b78b3d39e1ff1aab2f665" target="_top" xlink:title="Returns the memory usage in kilobytes.">
<polygon fill="white" stroke="black" points="954,-78.89 954,-99.89 1137,-99.89 1137,-78.89 954,-78.89"/>
<text text-anchor="middle" x="1045.5" y="-86.29" font-family="Ubuntu Mono" font-size="12.00">messages::get_mem_usage</text>
</a>
</g>
</g>
<!-- Node8&#45;&gt;Node10 -->
<g id="edge10" class="edge">
<title>Node8&#45;&gt;Node10</title>
<path fill="none" stroke="midnightblue" d="M918.25,-75.55C926.46,-76.45 935.13,-77.4 943.91,-78.36"/>
<polygon fill="midnightblue" stroke="midnightblue" points="943.53,-81.84 953.86,-79.45 944.3,-74.88 943.53,-81.84"/>
</g>
</g>
</svg>
