<?xml version="1.0" encoding="UTF-8" standalone="no"?>
<!DOCTYPE svg PUBLIC "-//W3C//DTD SVG 1.1//EN"
 "http://www.w3.org/Graphics/SVG/1.1/DTD/svg11.dtd">
<!-- Generated by graphviz version 2.38.0 (20140413.2041)
 -->
<!-- Title: vac_ops::print_output_vac Pages: 1 -->
<svg width="461pt" height="30pt"
 viewBox="0.00 0.00 461.00 30.00" xmlns="http://www.w3.org/2000/svg" xmlns:xlink="http://www.w3.org/1999/xlink">
<g id="graph0" class="graph" transform="scale(1 1) rotate(0) translate(4 26)">
<title>vac_ops::print_output_vac</title>
<polygon fill="white" stroke="none" points="-4,4 -4,-26 457,-26 457,4 -4,4"/>
<!-- Node125 -->
<g id="node1" class="node"><title>Node125</title>
<polygon fill="#bfbfbf" stroke="black" points="0,-0.5 0,-21.5 167,-21.5 167,-0.5 0,-0.5"/>
<text text-anchor="middle" x="83.5" y="-7.9" font-family="Ubuntu Mono" font-size="12.00">vac_ops::print_output_vac</text>
</g>
<!-- Node126 -->
<g id="node2" class="node"><title>Node126</title>
<g id="a_node2"><a xlink:href="namespacedriver__sol.html#ad3b1765b3ecc5f82129bfc683ffc6c5c" target="_top" xlink:title="Main driver of PB3D solution part. ">
<polygon fill="white" stroke="black" points="203,-0.5 203,-21.5 376,-21.5 376,-0.5 203,-0.5"/>
<text text-anchor="middle" x="289.5" y="-7.9" font-family="Ubuntu Mono" font-size="12.00">driver_sol::run_driver_sol</text>
</a>
</g>
</g>
<!-- Node125&#45;&gt;Node126 -->
<g id="edge1" class="edge"><title>Node125&#45;&gt;Node126</title>
<path fill="none" stroke="midnightblue" d="M177.406,-11C185.835,-11 194.348,-11 202.712,-11"/>
<polygon fill="midnightblue" stroke="midnightblue" points="177.181,-7.5001 167.181,-11 177.18,-14.5001 177.181,-7.5001"/>
</g>
<!-- Node127 -->
<g id="node3" class="node"><title>Node127</title>
<g id="a_node3"><a xlink:href="PB3D_8f90.html#afaee01f014ab3398eecac996b2795fd2" target="_top" xlink:title="Peeling Ballooning in 3D. ">
<polygon fill="white" stroke="black" points="412,-0.5 412,-21.5 453,-21.5 453,-0.5 412,-0.5"/>
<text text-anchor="middle" x="432.5" y="-7.9" font-family="Ubuntu Mono" font-size="12.00">pb3d</text>
</a>
</g>
</g>
<!-- Node126&#45;&gt;Node127 -->
<g id="edge2" class="edge"><title>Node126&#45;&gt;Node127</title>
<path fill="none" stroke="midnightblue" d="M386.337,-11C395.873,-11 404.695,-11 411.964,-11"/>
<polygon fill="midnightblue" stroke="midnightblue" points="386.178,-7.5001 376.178,-11 386.178,-14.5001 386.178,-7.5001"/>
</g>
</g>
</svg>
