<?xml version="1.0" encoding="UTF-8" standalone="no"?>
<!DOCTYPE svg PUBLIC "-//W3C//DTD SVG 1.1//EN"
 "http://www.w3.org/Graphics/SVG/1.1/DTD/svg11.dtd">
<!-- Generated by graphviz version 2.38.0 (20140413.2041)
 -->
<!-- Title: input_ops::read_input_eq Pages: 1 -->
<svg width="1195pt" height="363pt"
 viewBox="0.00 0.00 1195.00 363.34" xmlns="http://www.w3.org/2000/svg" xmlns:xlink="http://www.w3.org/1999/xlink">
<g id="graph0" class="graph" transform="scale(1 1) rotate(0) translate(4 359.345)">
<title>input_ops::read_input_eq</title>
<polygon fill="white" stroke="none" points="-4,4 -4,-359.345 1191,-359.345 1191,4 -4,4"/>
<!-- Node30 -->
<g id="node1" class="node"><title>Node30</title>
<polygon fill="#bfbfbf" stroke="black" points="0,-260.347 0,-281.347 161,-281.347 161,-260.347 0,-260.347"/>
<text text-anchor="middle" x="80.5" y="-267.747" font-family="Ubuntu Mono" font-size="12.00">input_ops::read_input_eq</text>
</g>
<!-- Node31 -->
<g id="node2" class="node"><title>Node31</title>
<g id="a_node2"><a xlink:href="namespacevmec__ops.html#a5afb9dedf9ef3dc2b4d93e20de2e22b8" target="_top" xlink:title="Reads the VMEC equilibrium data. ">
<polygon fill="white" stroke="black" points="370,-319.347 370,-340.347 501,-340.347 501,-319.347 370,-319.347"/>
<text text-anchor="middle" x="435.5" y="-326.747" font-family="Ubuntu Mono" font-size="12.00">vmec_ops::read_vmec</text>
</a>
</g>
</g>
<!-- Node30&#45;&gt;Node31 -->
<g id="edge1" class="edge"><title>Node30&#45;&gt;Node31</title>
<path fill="none" stroke="midnightblue" d="M144.609,-281.395C205.505,-291.574 297.63,-306.971 361.621,-317.667"/>
<polygon fill="midnightblue" stroke="midnightblue" points="361.2,-321.145 371.64,-319.341 362.354,-314.24 361.2,-321.145"/>
</g>
<!-- Node38 -->
<g id="node9" class="node"><title>Node38</title>
<g id="a_node9"><a xlink:href="namespacehelena__ops.html#ae05ba1182eb002d93c27ca4ff7ab8cf2" target="_top" xlink:title="Reads the HELENA equilibrium data. ">
<polygon fill="white" stroke="black" points="197,-222.347 197,-243.347 334,-243.347 334,-222.347 197,-222.347"/>
<text text-anchor="middle" x="265.5" y="-229.747" font-family="Ubuntu Mono" font-size="12.00">helena_ops::read_hel</text>
</a>
</g>
</g>
<!-- Node30&#45;&gt;Node38 -->
<g id="edge9" class="edge"><title>Node30&#45;&gt;Node38</title>
<path fill="none" stroke="midnightblue" d="M132.476,-260.262C154.586,-255.671 180.652,-250.259 203.757,-245.461"/>
<polygon fill="midnightblue" stroke="midnightblue" points="204.718,-248.836 213.798,-243.376 203.295,-241.982 204.718,-248.836"/>
</g>
<!-- Node32 -->
<g id="node3" class="node"><title>Node32</title>
<g id="a_node3"><a xlink:href="namespacemessages.html#aa4a8d01563e92558e8a0875b075ec54c" target="_top" xlink:title="Write output to file identified by output_i. ">
<polygon fill="white" stroke="black" points="889,-77.3475 889,-98.3475 996,-98.3475 996,-77.3475 889,-77.3475"/>
<text text-anchor="middle" x="942.5" y="-84.7475" font-family="Ubuntu Mono" font-size="12.00">messages::writo</text>
</a>
</g>
</g>
<!-- Node31&#45;&gt;Node32 -->
<g id="edge2" class="edge"><title>Node31&#45;&gt;Node32</title>
<path fill="none" stroke="midnightblue" d="M476.318,-340.41C530.153,-352.609 628.142,-367.36 704,-336.847 818.054,-290.972 902.207,-157.958 930.834,-107.538"/>
<polygon fill="midnightblue" stroke="midnightblue" points="934.002,-109.044 935.812,-98.6052 927.887,-105.637 934.002,-109.044"/>
</g>
<!-- Node35 -->
<g id="node6" class="node"><title>Node35</title>
<g id="a_node6"><a xlink:href="namespacemessages.html#a6e6bfb084063e4cc91ee86e542043302" target="_top" xlink:title="Increases/decreases lvl of output. ">
<polygon fill="white" stroke="black" points="740,-163.347 740,-184.347 853,-184.347 853,-163.347 740,-163.347"/>
<text text-anchor="middle" x="796.5" y="-170.747" font-family="Ubuntu Mono" font-size="12.00">messages::lvl_ud</text>
</a>
</g>
</g>
<!-- Node31&#45;&gt;Node35 -->
<g id="edge5" class="edge"><title>Node31&#45;&gt;Node35</title>
<path fill="none" stroke="midnightblue" d="M501.06,-338.701C558.289,-343.306 642.14,-341.849 704,-305.847 747.978,-280.253 775.752,-224.075 788.077,-193.92"/>
<polygon fill="midnightblue" stroke="midnightblue" points="791.405,-195.02 791.793,-184.432 784.887,-192.467 791.405,-195.02"/>
</g>
<!-- Node36 -->
<g id="node7" class="node"><title>Node36</title>
<g id="a_node7"><a xlink:href="namespacestr__utilities.html#a92ac6c0af1979df094de1caddd28ade0" target="_top" xlink:title="Convert a real (double) to string. ">
<polygon fill="white" stroke="black" points="552,-242.347 552,-263.347 689,-263.347 689,-242.347 552,-242.347"/>
<text text-anchor="middle" x="620.5" y="-249.747" font-family="Ubuntu Mono" font-size="12.00">str_utilities::r2str</text>
</a>
</g>
</g>
<!-- Node31&#45;&gt;Node36 -->
<g id="edge7" class="edge"><title>Node31&#45;&gt;Node36</title>
<path fill="none" stroke="midnightblue" d="M461.562,-319.302C493.505,-305.862 548.886,-282.559 584.854,-267.425"/>
<polygon fill="midnightblue" stroke="midnightblue" points="586.588,-270.493 594.448,-263.388 583.873,-264.041 586.588,-270.493"/>
</g>
<!-- Node37 -->
<g id="node8" class="node"><title>Node37</title>
<g id="a_node8"><a xlink:href="namespacestr__utilities.html#a0b97e51770725a3e98ed393d26681414" target="_top" xlink:title="Convert an integer to string. ">
<polygon fill="white" stroke="black" points="552,-202.347 552,-223.347 689,-223.347 689,-202.347 552,-202.347"/>
<text text-anchor="middle" x="620.5" y="-209.747" font-family="Ubuntu Mono" font-size="12.00">str_utilities::i2str</text>
</a>
</g>
</g>
<!-- Node31&#45;&gt;Node37 -->
<g id="edge8" class="edge"><title>Node31&#45;&gt;Node37</title>
<path fill="none" stroke="midnightblue" d="M444.313,-319.212C459.694,-299.079 495.99,-255.398 537,-232.847 541.141,-230.571 545.538,-228.55 550.063,-226.758"/>
<polygon fill="midnightblue" stroke="midnightblue" points="551.25,-230.051 559.49,-223.391 548.895,-223.459 551.25,-230.051"/>
</g>
<!-- Node33 -->
<g id="node4" class="node"><title>Node33</title>
<g id="a_node4"><a xlink:href="namespacemessages.html#a82dddaab795b78b3d39e1ff1aab2f665" target="_top" xlink:title="Returns the memory usage in kilobytes. ">
<polygon fill="white" stroke="black" points="1032,-97.3475 1032,-118.347 1187,-118.347 1187,-97.3475 1032,-97.3475"/>
<text text-anchor="middle" x="1109.5" y="-104.747" font-family="Ubuntu Mono" font-size="12.00">messages::get_mem_usage</text>
</a>
</g>
</g>
<!-- Node32&#45;&gt;Node33 -->
<g id="edge3" class="edge"><title>Node32&#45;&gt;Node33</title>
<path fill="none" stroke="midnightblue" d="M996.161,-94.2306C1004.45,-95.2356 1013.21,-96.297 1022.03,-97.3657"/>
<polygon fill="midnightblue" stroke="midnightblue" points="1021.64,-100.844 1031.98,-98.5728 1022.48,-93.8948 1021.64,-100.844"/>
</g>
<!-- Node34 -->
<g id="node5" class="node"><title>Node34</title>
<g id="a_node5"><a xlink:href="namespacemessages.html#a61fd0b51b5e37d58fdc993c01792a3fd" target="_top" xlink:title="Returns the time. ">
<polygon fill="white" stroke="black" points="1044,-57.3475 1044,-78.3475 1175,-78.3475 1175,-57.3475 1044,-57.3475"/>
<text text-anchor="middle" x="1109.5" y="-64.7475" font-family="Ubuntu Mono" font-size="12.00">messages::get_clock</text>
</a>
</g>
</g>
<!-- Node32&#45;&gt;Node34 -->
<g id="edge4" class="edge"><title>Node32&#45;&gt;Node34</title>
<path fill="none" stroke="midnightblue" d="M996.161,-81.4644C1008.14,-80.0121 1021.09,-78.4421 1033.8,-76.9024"/>
<polygon fill="midnightblue" stroke="midnightblue" points="1034.4,-80.3548 1043.91,-75.6768 1033.56,-73.4056 1034.4,-80.3548"/>
</g>
<!-- Node35&#45;&gt;Node32 -->
<g id="edge6" class="edge"><title>Node35&#45;&gt;Node32</title>
<path fill="none" stroke="midnightblue" d="M815.157,-163.302C840.096,-148.408 885.83,-121.095 914.895,-103.737"/>
<polygon fill="midnightblue" stroke="midnightblue" points="916.908,-106.611 923.698,-98.479 913.318,-100.602 916.908,-106.611"/>
</g>
<!-- Node38&#45;&gt;Node32 -->
<g id="edge10" class="edge"><title>Node38&#45;&gt;Node32</title>
<path fill="none" stroke="midnightblue" d="M275.648,-222.196C307.307,-186.267 416.866,-69.5716 537,-29.8475 670.354,14.2481 718.303,5.95952 853,-33.8475 878.429,-41.3625 903.899,-58.1111 920.941,-70.9773"/>
<polygon fill="midnightblue" stroke="midnightblue" points="919,-73.9012 929.04,-77.2821 923.3,-68.3775 919,-73.9012"/>
</g>
<!-- Node38&#45;&gt;Node35 -->
<g id="edge11" class="edge"><title>Node38&#45;&gt;Node35</title>
<path fill="none" stroke="midnightblue" d="M292.046,-243.441C361.628,-270.602 559.003,-336.277 704,-272.847 741.102,-256.617 769.851,-217.099 784.588,-193.189"/>
<polygon fill="midnightblue" stroke="midnightblue" points="787.602,-194.968 789.703,-184.583 781.585,-191.391 787.602,-194.968"/>
</g>
<!-- Node38&#45;&gt;Node36 -->
<g id="edge21" class="edge"><title>Node38&#45;&gt;Node36</title>
<path fill="none" stroke="midnightblue" d="M334.144,-236.68C393.406,-240.038 479.529,-244.917 541.643,-248.436"/>
<polygon fill="midnightblue" stroke="midnightblue" points="541.602,-251.94 551.784,-249.011 541.998,-244.951 541.602,-251.94"/>
</g>
<!-- Node38&#45;&gt;Node37 -->
<g id="edge22" class="edge"><title>Node38&#45;&gt;Node37</title>
<path fill="none" stroke="midnightblue" d="M334.144,-229.015C393.406,-225.657 479.529,-220.778 541.643,-217.259"/>
<polygon fill="midnightblue" stroke="midnightblue" points="541.998,-220.744 551.784,-216.684 541.602,-213.755 541.998,-220.744"/>
</g>
<!-- Node39 -->
<g id="node10" class="node"><title>Node39</title>
<g id="a_node10"><a xlink:href="namespaceoutput__ops.html#a50bfbb88cc91805469353c3ff47b3e2e" target="_top" xlink:title="Use external program to draw a plot. ">
<polygon fill="white" stroke="black" points="370,-163.347 370,-184.347 501,-184.347 501,-163.347 370,-163.347"/>
<text text-anchor="middle" x="435.5" y="-170.747" font-family="Ubuntu Mono" font-size="12.00">output_ops::draw_ex</text>
</a>
</g>
</g>
<!-- Node38&#45;&gt;Node39 -->
<g id="edge12" class="edge"><title>Node38&#45;&gt;Node39</title>
<path fill="none" stroke="midnightblue" d="M296.535,-222.299C323.924,-212.681 364.586,-198.4 394.677,-187.833"/>
<polygon fill="midnightblue" stroke="midnightblue" points="396.167,-191.019 404.442,-184.403 393.847,-184.415 396.167,-191.019"/>
</g>
<!-- Node39&#45;&gt;Node32 -->
<g id="edge14" class="edge"><title>Node39&#45;&gt;Node32</title>
<path fill="none" stroke="midnightblue" d="M441.946,-163.078C454.702,-139.225 489.096,-82.3515 537,-60.8475 661.489,-4.96407 829.426,-49.2134 903.597,-73.9784"/>
<polygon fill="midnightblue" stroke="midnightblue" points="902.832,-77.4153 913.426,-77.331 905.092,-70.7901 902.832,-77.4153"/>
</g>
<!-- Node39&#45;&gt;Node35 -->
<g id="edge19" class="edge"><title>Node39&#45;&gt;Node35</title>
<path fill="none" stroke="midnightblue" d="M501.097,-173.847C565.769,-173.847 664.77,-173.847 729.822,-173.847"/>
<polygon fill="midnightblue" stroke="midnightblue" points="729.96,-177.348 739.96,-173.847 729.96,-170.348 729.96,-177.348"/>
</g>
<!-- Node39&#45;&gt;Node36 -->
<g id="edge20" class="edge"><title>Node39&#45;&gt;Node36</title>
<path fill="none" stroke="midnightblue" d="M451.44,-184.521C470.461,-197.651 504.739,-219.799 537,-232.847 543.15,-235.335 549.689,-237.566 556.288,-239.554"/>
<polygon fill="midnightblue" stroke="midnightblue" points="555.388,-242.937 565.963,-242.294 557.296,-236.202 555.388,-242.937"/>
</g>
<!-- Node39&#45;&gt;Node37 -->
<g id="edge13" class="edge"><title>Node39&#45;&gt;Node37</title>
<path fill="none" stroke="midnightblue" d="M486.022,-184.401C508.807,-189.257 536.025,-195.058 559.922,-200.151"/>
<polygon fill="midnightblue" stroke="midnightblue" points="559.428,-203.624 569.938,-202.285 560.887,-196.778 559.428,-203.624"/>
</g>
<!-- Node40 -->
<g id="node11" class="node"><title>Node40</title>
<g id="a_node11"><a xlink:href="namespacefiles__utilities.html#ac6066df405564ba2f5e3c4bba726c1f8" target="_top" xlink:title="Search for available new unit. ">
<polygon fill="white" stroke="black" points="537,-124.347 537,-145.347 704,-145.347 704,-124.347 537,-124.347"/>
<text text-anchor="middle" x="620.5" y="-131.747" font-family="Ubuntu Mono" font-size="12.00">files_utilities::nextunit</text>
</a>
</g>
</g>
<!-- Node39&#45;&gt;Node40 -->
<g id="edge15" class="edge"><title>Node39&#45;&gt;Node40</title>
<path fill="none" stroke="midnightblue" d="M486.022,-163.294C508.807,-158.438 536.025,-152.637 559.922,-147.544"/>
<polygon fill="midnightblue" stroke="midnightblue" points="560.887,-150.917 569.938,-145.41 559.428,-144.071 560.887,-150.917"/>
</g>
<!-- Node41 -->
<g id="node12" class="node"><title>Node41</title>
<g id="a_node12"><a xlink:href="namespaceoutput__ops.html#aa9e4855511b6ea16a08b3efb587bec51" target="_top" xlink:title="Executes command line, or displays a message if disabled. ">
<polygon fill="white" stroke="black" points="543,-70.8475 543,-104.847 698,-104.847 698,-70.8475 543,-70.8475"/>
<text text-anchor="start" x="551" y="-91.2475" font-family="Ubuntu Mono" font-size="12.00">output_ops::use_execute</text>
<text text-anchor="middle" x="620.5" y="-78.2475" font-family="Ubuntu Mono" font-size="12.00">_command_line</text>
</a>
</g>
</g>
<!-- Node39&#45;&gt;Node41 -->
<g id="edge16" class="edge"><title>Node39&#45;&gt;Node41</title>
<path fill="none" stroke="midnightblue" d="M452.289,-163.132C471.615,-150.364 505.645,-128.984 537,-114.847 541.98,-112.602 547.204,-110.451 552.503,-108.413"/>
<polygon fill="midnightblue" stroke="midnightblue" points="553.92,-111.621 562.086,-104.87 551.492,-105.055 553.92,-111.621"/>
</g>
<!-- Node41&#45;&gt;Node32 -->
<g id="edge17" class="edge"><title>Node41&#45;&gt;Node32</title>
<path fill="none" stroke="midnightblue" d="M698.148,-87.8475C753.445,-87.8475 827.17,-87.8475 878.929,-87.8475"/>
<polygon fill="midnightblue" stroke="midnightblue" points="878.976,-91.3476 888.976,-87.8475 878.976,-84.3476 878.976,-91.3476"/>
</g>
<!-- Node41&#45;&gt;Node35 -->
<g id="edge18" class="edge"><title>Node41&#45;&gt;Node35</title>
<path fill="none" stroke="midnightblue" d="M679.932,-104.892C688.147,-107.885 696.381,-111.218 704,-114.847 729.077,-126.792 755.515,-144.464 773.488,-157.353"/>
<polygon fill="midnightblue" stroke="midnightblue" points="771.443,-160.194 781.588,-163.25 775.563,-154.535 771.443,-160.194"/>
</g>
</g>
</svg>
