<?xml version="1.0" encoding="UTF-8" standalone="no"?>
<!DOCTYPE svg PUBLIC "-//W3C//DTD SVG 1.1//EN"
 "http://www.w3.org/Graphics/SVG/1.1/DTD/svg11.dtd">
<!-- Generated by graphviz version 2.43.0 (0)
 -->
<!-- Title: vac_ops::solve_phi_bem Pages: 1 -->
<svg width="914pt" height="215pt"
 viewBox="0.00 0.00 914.00 214.94" xmlns="http://www.w3.org/2000/svg" xmlns:xlink="http://www.w3.org/1999/xlink">
<g id="graph0" class="graph" transform="scale(1 1) rotate(0) translate(4 210.94)">
<title>vac_ops::solve_phi_bem</title>
<polygon fill="white" stroke="transparent" points="-4,4 -4,-210.94 910,-210.94 910,4 -4,4"/>
<!-- Node1 -->
<g id="node1" class="node">
<title>Node1</title>
<g id="a_node1"><a xlink:title="Calculates potential Phi on boundary of BEM in terms of some right&#45;hand side .">
<polygon fill="#bfbfbf" stroke="black" points="0,-98.5 0,-119.5 160,-119.5 160,-98.5 0,-98.5"/>
<text text-anchor="middle" x="80" y="-105.9" font-family="Ubuntu Mono" font-size="12.00">vac_ops::solve_phi_bem</text>
</a>
</g>
</g>
<!-- Node2 -->
<g id="node2" class="node">
<title>Node2</title>
<g id="a_node2"><a xlink:href="namespaceoutput__ops.html#a50bfbb88cc91805469353c3ff47b3e2e" target="_top" xlink:title="Use external program to draw a plot.">
<polygon fill="white" stroke="black" points="196,-98.5 196,-119.5 336,-119.5 336,-98.5 196,-98.5"/>
<text text-anchor="middle" x="266" y="-105.9" font-family="Ubuntu Mono" font-size="12.00">output_ops::draw_ex</text>
</a>
</g>
</g>
<!-- Node1&#45;&gt;Node2 -->
<g id="edge1" class="edge">
<title>Node1&#45;&gt;Node2</title>
<path fill="none" stroke="midnightblue" d="M160.1,-109C168.55,-109 177.14,-109 185.6,-109"/>
<polygon fill="midnightblue" stroke="midnightblue" points="185.81,-112.5 195.81,-109 185.81,-105.5 185.81,-112.5"/>
</g>
<!-- Node3 -->
<g id="node3" class="node">
<title>Node3</title>
<g id="a_node3"><a xlink:href="namespacestr__utilities.html#a0b97e51770725a3e98ed393d26681414" target="_top" xlink:title="Convert an integer to string.">
<polygon fill="white" stroke="black" points="757.5,-118.5 757.5,-139.5 871.5,-139.5 871.5,-118.5 757.5,-118.5"/>
<text text-anchor="middle" x="814.5" y="-125.9" font-family="Ubuntu Mono" font-size="12.00">str_utilities::i2str</text>
</a>
</g>
</g>
<!-- Node1&#45;&gt;Node3 -->
<g id="edge11" class="edge">
<title>Node1&#45;&gt;Node3</title>
<path fill="none" stroke="midnightblue" d="M105.68,-119.66C155.09,-140.34 270.15,-185.28 372,-201 522.22,-224.18 700.79,-169.84 776.57,-142.95"/>
<polygon fill="midnightblue" stroke="midnightblue" points="777.92,-146.19 786.14,-139.51 775.55,-139.6 777.92,-146.19"/>
</g>
<!-- Node10 -->
<g id="node10" class="node">
<title>Node10</title>
<g id="a_node10"><a xlink:href="namespacevac__vars.html#af0fd2f819434bf7adc494753df4af19c" target="_top" xlink:title="Indicates whether current process is in the context.">
<polygon fill="white" stroke="black" points="197,-58.5 197,-79.5 335,-79.5 335,-58.5 197,-58.5"/>
<text text-anchor="middle" x="266" y="-65.9" font-family="Ubuntu Mono" font-size="12.00">vac_vars::in_context</text>
</a>
</g>
</g>
<!-- Node1&#45;&gt;Node10 -->
<g id="edge12" class="edge">
<title>Node1&#45;&gt;Node10</title>
<path fill="none" stroke="midnightblue" d="M129.34,-98.49C153.02,-93.34 181.72,-87.1 206.61,-81.69"/>
<polygon fill="midnightblue" stroke="midnightblue" points="207.63,-85.05 216.66,-79.51 206.14,-78.21 207.63,-85.05"/>
</g>
<!-- Node2&#45;&gt;Node3 -->
<g id="edge2" class="edge">
<title>Node2&#45;&gt;Node3</title>
<path fill="none" stroke="midnightblue" d="M336.21,-111.53C442.12,-115.41 643.02,-122.76 747.17,-126.57"/>
<polygon fill="midnightblue" stroke="midnightblue" points="747.12,-130.07 757.24,-126.94 747.38,-123.08 747.12,-130.07"/>
</g>
<!-- Node4 -->
<g id="node4" class="node">
<title>Node4</title>
<g id="a_node4"><a xlink:href="namespacemessages.html#a6e6bfb084063e4cc91ee86e542043302" target="_top" xlink:title="Increases/decreases lvl of output.">
<polygon fill="white" stroke="black" points="395.5,-0.5 395.5,-21.5 513.5,-21.5 513.5,-0.5 395.5,-0.5"/>
<text text-anchor="middle" x="454.5" y="-7.9" font-family="Ubuntu Mono" font-size="12.00">messages::lvl_ud</text>
</a>
</g>
</g>
<!-- Node2&#45;&gt;Node4 -->
<g id="edge3" class="edge">
<title>Node2&#45;&gt;Node4</title>
<path fill="none" stroke="midnightblue" d="M319.12,-98.46C325.14,-95.95 330.93,-92.84 336,-89 360.18,-70.67 347.45,-48.82 372,-31 376.24,-27.92 380.89,-25.32 385.77,-23.11"/>
<polygon fill="midnightblue" stroke="midnightblue" points="387.33,-26.25 395.35,-19.33 384.76,-19.74 387.33,-26.25"/>
</g>
<!-- Node5 -->
<g id="node5" class="node">
<title>Node5</title>
<g id="a_node5"><a xlink:href="namespacemessages.html#aa4a8d01563e92558e8a0875b075ec54c" target="_top" xlink:title="Write output to file identified by output_i.">
<polygon fill="white" stroke="black" points="573,-78.5 573,-99.5 687,-99.5 687,-78.5 573,-78.5"/>
<text text-anchor="middle" x="630" y="-85.9" font-family="Ubuntu Mono" font-size="12.00">messages::writo</text>
</a>
</g>
</g>
<!-- Node2&#45;&gt;Node5 -->
<g id="edge10" class="edge">
<title>Node2&#45;&gt;Node5</title>
<path fill="none" stroke="midnightblue" d="M336.37,-105.17C401.65,-101.56 498.72,-96.2 562.91,-92.65"/>
<polygon fill="midnightblue" stroke="midnightblue" points="563.13,-96.14 572.92,-92.1 562.74,-89.16 563.13,-96.14"/>
</g>
<!-- Node8 -->
<g id="node8" class="node">
<title>Node8</title>
<g id="a_node8"><a xlink:href="namespacefiles__utilities.html#ac6066df405564ba2f5e3c4bba726c1f8" target="_top" xlink:title="Search for available new unit.">
<polygon fill="white" stroke="black" points="382,-40.5 382,-61.5 527,-61.5 527,-40.5 382,-40.5"/>
<text text-anchor="middle" x="454.5" y="-47.9" font-family="Ubuntu Mono" font-size="12.00">files_utilities::nextunit</text>
</a>
</g>
</g>
<!-- Node2&#45;&gt;Node8 -->
<g id="edge8" class="edge">
<title>Node2&#45;&gt;Node8</title>
<path fill="none" stroke="midnightblue" d="M305.1,-98.43C315.18,-95.51 326.04,-92.24 336,-89 352.18,-83.74 355.86,-81.38 372,-76 383.63,-72.12 396.26,-68.13 408.03,-64.52"/>
<polygon fill="midnightblue" stroke="midnightblue" points="409.13,-67.84 417.67,-61.58 407.09,-61.15 409.13,-67.84"/>
</g>
<!-- Node9 -->
<g id="node9" class="node">
<title>Node9</title>
<g id="a_node9"><a xlink:href="namespaceoutput__ops.html#aa9e4855511b6ea16a08b3efb587bec51" target="_top" xlink:title="Executes command line, or displays a message if disabled.">
<polygon fill="white" stroke="black" points="372,-157 372,-191 537,-191 537,-157 372,-157"/>
<text text-anchor="start" x="380" y="-177.4" font-family="Ubuntu Mono" font-size="12.00">output_ops::use_execute</text>
<text text-anchor="middle" x="454.5" y="-164.4" font-family="Ubuntu Mono" font-size="12.00">_command_line</text>
</a>
</g>
</g>
<!-- Node2&#45;&gt;Node9 -->
<g id="edge9" class="edge">
<title>Node2&#45;&gt;Node9</title>
<path fill="none" stroke="midnightblue" d="M297.38,-119.59C323.66,-128.75 362.42,-142.26 394.75,-153.52"/>
<polygon fill="midnightblue" stroke="midnightblue" points="393.95,-156.95 404.55,-156.94 396.26,-150.34 393.95,-156.95"/>
</g>
<!-- Node4&#45;&gt;Node5 -->
<g id="edge4" class="edge">
<title>Node4&#45;&gt;Node5</title>
<path fill="none" stroke="midnightblue" d="M509.35,-21.61C518.74,-24.19 528.28,-27.3 537,-31 562.69,-41.91 589.38,-59.56 607.36,-72.52"/>
<polygon fill="midnightblue" stroke="midnightblue" points="605.31,-75.36 615.44,-78.46 609.46,-69.72 605.31,-75.36"/>
</g>
<!-- Node5&#45;&gt;Node3 -->
<g id="edge7" class="edge">
<title>Node5&#45;&gt;Node3</title>
<path fill="none" stroke="midnightblue" d="M678.95,-99.51C702.43,-104.66 730.9,-110.9 755.59,-116.31"/>
<polygon fill="midnightblue" stroke="midnightblue" points="755.04,-119.77 765.55,-118.49 756.54,-112.93 755.04,-119.77"/>
</g>
<!-- Node6 -->
<g id="node6" class="node">
<title>Node6</title>
<g id="a_node6"><a xlink:href="namespacemessages.html#a61fd0b51b5e37d58fdc993c01792a3fd" target="_top" xlink:title="Returns the time.">
<polygon fill="white" stroke="black" points="744.5,-78.5 744.5,-99.5 884.5,-99.5 884.5,-78.5 744.5,-78.5"/>
<text text-anchor="middle" x="814.5" y="-85.9" font-family="Ubuntu Mono" font-size="12.00">messages::get_clock</text>
</a>
</g>
</g>
<!-- Node5&#45;&gt;Node6 -->
<g id="edge5" class="edge">
<title>Node5&#45;&gt;Node6</title>
<path fill="none" stroke="midnightblue" d="M687.25,-89C702.02,-89 718.24,-89 733.99,-89"/>
<polygon fill="midnightblue" stroke="midnightblue" points="734.25,-92.5 744.25,-89 734.25,-85.5 734.25,-92.5"/>
</g>
<!-- Node7 -->
<g id="node7" class="node">
<title>Node7</title>
<g id="a_node7"><a xlink:href="namespacemessages.html#a82dddaab795b78b3d39e1ff1aab2f665" target="_top" xlink:title="Returns the memory usage in kilobytes.">
<polygon fill="white" stroke="black" points="723,-38.5 723,-59.5 906,-59.5 906,-38.5 723,-38.5"/>
<text text-anchor="middle" x="814.5" y="-45.9" font-family="Ubuntu Mono" font-size="12.00">messages::get_mem_usage</text>
</a>
</g>
</g>
<!-- Node5&#45;&gt;Node7 -->
<g id="edge6" class="edge">
<title>Node5&#45;&gt;Node7</title>
<path fill="none" stroke="midnightblue" d="M678.95,-78.49C702.43,-73.34 730.9,-67.1 755.59,-61.69"/>
<polygon fill="midnightblue" stroke="midnightblue" points="756.54,-65.07 765.55,-59.51 755.04,-58.23 756.54,-65.07"/>
</g>
</g>
</svg>
