<?xml version="1.0" encoding="UTF-8" standalone="no"?>
<!DOCTYPE svg PUBLIC "-//W3C//DTD SVG 1.1//EN"
 "http://www.w3.org/Graphics/SVG/1.1/DTD/svg11.dtd">
<!-- Generated by graphviz version 2.38.0 (20140413.2041)
 -->
<!-- Title: rich_ops::start_rich_lvl Pages: 1 -->
<svg width="1064pt" height="318pt"
 viewBox="0.00 0.00 1064.00 317.50" xmlns="http://www.w3.org/2000/svg" xmlns:xlink="http://www.w3.org/1999/xlink">
<g id="graph0" class="graph" transform="scale(1 1) rotate(0) translate(4 313.5)">
<title>rich_ops::start_rich_lvl</title>
<polygon fill="white" stroke="none" points="-4,4 -4,-313.5 1060,-313.5 1060,4 -4,4"/>
<!-- Node68 -->
<g id="node1" class="node"><title>Node68</title>
<polygon fill="#bfbfbf" stroke="black" points="0,-98.5 0,-119.5 161,-119.5 161,-98.5 0,-98.5"/>
<text text-anchor="middle" x="80.5" y="-105.9" font-family="Ubuntu Mono" font-size="12.00">rich_ops::start_rich_lvl</text>
</g>
<!-- Node69 -->
<g id="node2" class="node"><title>Node69</title>
<g id="a_node2"><a xlink:href="namespacegrid__utilities.html#adeb8c22db4d419a278d6fcc68a34100c" target="_top" xlink:title="Calculates the local number of parallel grid points for this Richardson level, taking into account th...">
<polygon fill="white" stroke="black" points="212,-179 212,-213 349,-213 349,-179 212,-179"/>
<text text-anchor="start" x="220" y="-199.4" font-family="Ubuntu Mono" font-size="12.00">grid_utilities::calc</text>
<text text-anchor="middle" x="280.5" y="-186.4" font-family="Ubuntu Mono" font-size="12.00">_n_par_x_rich</text>
</a>
</g>
</g>
<!-- Node68&#45;&gt;Node69 -->
<g id="edge1" class="edge"><title>Node68&#45;&gt;Node69</title>
<path fill="none" stroke="midnightblue" d="M99.462,-119.502C121.809,-132.291 161.376,-154.035 197,-169 202.341,-171.243 207.937,-173.422 213.593,-175.504"/>
<polygon fill="midnightblue" stroke="midnightblue" points="212.537,-178.844 223.132,-178.913 214.892,-172.252 212.537,-178.844"/>
</g>
<!-- Node70 -->
<g id="node3" class="node"><title>Node70</title>
<g id="a_node3"><a xlink:href="namespaceeq__ops.html#a8fae749abe55865d8135fef536a8e8f1" target="_top" xlink:title="Divides the equilibrium jobs. ">
<polygon fill="white" stroke="black" points="206,-138.5 206,-159.5 355,-159.5 355,-138.5 206,-138.5"/>
<text text-anchor="middle" x="280.5" y="-145.9" font-family="Ubuntu Mono" font-size="12.00">eq_ops::divide_eq_jobs</text>
</a>
</g>
</g>
<!-- Node68&#45;&gt;Node70 -->
<g id="edge2" class="edge"><title>Node68&#45;&gt;Node70</title>
<path fill="none" stroke="midnightblue" d="M133.522,-119.51C159.227,-124.702 190.431,-131.006 217.382,-136.451"/>
<polygon fill="midnightblue" stroke="midnightblue" points="216.987,-139.942 227.482,-138.491 218.373,-133.08 216.987,-139.942"/>
</g>
<!-- Node73 -->
<g id="node6" class="node"><title>Node73</title>
<g id="a_node6"><a xlink:href="namespacemessages.html#aa4a8d01563e92558e8a0875b075ec54c" target="_top" xlink:title="Write output to file identified by output_i. ">
<polygon fill="white" stroke="black" points="758,-157.5 758,-178.5 865,-178.5 865,-157.5 758,-157.5"/>
<text text-anchor="middle" x="811.5" y="-164.9" font-family="Ubuntu Mono" font-size="12.00">messages::writo</text>
</a>
</g>
</g>
<!-- Node68&#45;&gt;Node73 -->
<g id="edge15" class="edge"><title>Node68&#45;&gt;Node73</title>
<path fill="none" stroke="midnightblue" d="M120.794,-98.4916C204.69,-77.6467 407.202,-35.8276 573,-69 653.225,-85.0513 740.22,-128.807 783.237,-152.411"/>
<polygon fill="midnightblue" stroke="midnightblue" points="781.779,-155.604 792.22,-157.4 785.177,-149.485 781.779,-155.604"/>
</g>
<!-- Node79 -->
<g id="node12" class="node"><title>Node79</title>
<g id="a_node12"><a xlink:href="namespaceeq__ops.html#a4e20b8725fce149449f83754244dc84e" target="_top" xlink:title="Calculate eq_jobs_lims. ">
<polygon fill="white" stroke="black" points="197,-0.5 197,-21.5 364,-21.5 364,-0.5 197,-0.5"/>
<text text-anchor="middle" x="280.5" y="-7.9" font-family="Ubuntu Mono" font-size="12.00">eq_ops::calc_eq_jobs_lims</text>
</a>
</g>
</g>
<!-- Node68&#45;&gt;Node79 -->
<g id="edge14" class="edge"><title>Node68&#45;&gt;Node79</title>
<path fill="none" stroke="midnightblue" d="M95.3776,-98.4724C116.384,-82.9554 157.954,-53.8572 197,-36 206.489,-31.6604 216.928,-27.8302 227.097,-24.5539"/>
<polygon fill="midnightblue" stroke="midnightblue" points="228.199,-27.8766 236.723,-21.5839 226.136,-21.1878 228.199,-27.8766"/>
</g>
<!-- Node71 -->
<g id="node4" class="node"><title>Node71</title>
<g id="a_node4"><a xlink:href="namespaceeq__utilities.html#a5a9f230ed9a6e627e31e882e9f4a00a1" target="_top" xlink:title="Calculate memory in MB necessary for variables in equilibrium job. ">
<polygon fill="white" stroke="black" points="424,-275 424,-309 549,-309 549,-275 424,-275"/>
<text text-anchor="start" x="432" y="-295.4" font-family="Ubuntu Mono" font-size="12.00">eq_utilities::calc</text>
<text text-anchor="middle" x="486.5" y="-282.4" font-family="Ubuntu Mono" font-size="12.00">_memory_eq</text>
</a>
</g>
</g>
<!-- Node70&#45;&gt;Node71 -->
<g id="edge3" class="edge"><title>Node70&#45;&gt;Node71</title>
<path fill="none" stroke="midnightblue" d="M349.492,-159.617C354.734,-162.14 359.664,-165.228 364,-169 396.815,-197.547 368.96,-229.532 400,-260 404.454,-264.372 409.56,-268.156 415.013,-271.429"/>
<polygon fill="midnightblue" stroke="midnightblue" points="413.357,-274.513 423.823,-276.164 416.671,-268.347 413.357,-274.513"/>
</g>
<!-- Node72 -->
<g id="node5" class="node"><title>Node72</title>
<g id="a_node5"><a xlink:href="namespacemessages.html#a6e6bfb084063e4cc91ee86e542043302" target="_top" xlink:title="Increases/decreases lvl of output. ">
<polygon fill="white" stroke="black" points="609,-215.5 609,-236.5 722,-236.5 722,-215.5 609,-215.5"/>
<text text-anchor="middle" x="665.5" y="-222.9" font-family="Ubuntu Mono" font-size="12.00">messages::lvl_ud</text>
</a>
</g>
</g>
<!-- Node70&#45;&gt;Node72 -->
<g id="edge11" class="edge"><title>Node70&#45;&gt;Node72</title>
<path fill="none" stroke="midnightblue" d="M346.719,-159.608C352.863,-162.111 358.747,-165.198 364,-169 388.576,-186.79 373.487,-212.251 400,-227 468.378,-265.037 562.912,-251.996 618.489,-239.021"/>
<polygon fill="midnightblue" stroke="midnightblue" points="619.508,-242.375 628.398,-236.611 617.854,-235.573 619.508,-242.375"/>
</g>
<!-- Node70&#45;&gt;Node73 -->
<g id="edge10" class="edge"><title>Node70&#45;&gt;Node73</title>
<path fill="none" stroke="midnightblue" d="M355.055,-151.642C459.66,-155.399 649.58,-162.22 747.847,-165.75"/>
<polygon fill="midnightblue" stroke="midnightblue" points="747.808,-169.25 757.927,-166.112 748.059,-162.255 747.808,-169.25"/>
</g>
<!-- Node76 -->
<g id="node9" class="node"><title>Node76</title>
<g id="a_node9"><a xlink:href="namespacex__utilities.html#a4d18921da77463d069346f1c7322b451" target="_top" xlink:title="Calculate memory in MB necessary for X variables. ">
<polygon fill="white" stroke="black" points="400,-196.5 400,-217.5 573,-217.5 573,-196.5 400,-196.5"/>
<text text-anchor="middle" x="486.5" y="-203.9" font-family="Ubuntu Mono" font-size="12.00">x_utilities::calc_memory_x</text>
</a>
</g>
</g>
<!-- Node70&#45;&gt;Node76 -->
<g id="edge8" class="edge"><title>Node70&#45;&gt;Node76</title>
<path fill="none" stroke="midnightblue" d="M328.856,-159.546C340.419,-162.377 352.709,-165.604 364,-169 380.29,-173.9 383.828,-176.721 400,-182 412.181,-185.976 425.433,-189.997 437.786,-193.617"/>
<polygon fill="midnightblue" stroke="midnightblue" points="436.885,-197 447.464,-196.426 438.836,-190.277 436.885,-197"/>
</g>
<!-- Node77 -->
<g id="node10" class="node"><title>Node77</title>
<g id="a_node10"><a xlink:href="namespacestr__utilities.html#a0b97e51770725a3e98ed393d26681414" target="_top" xlink:title="Convert an integer to string. ">
<polygon fill="white" stroke="black" points="418,-118.5 418,-139.5 555,-139.5 555,-118.5 418,-118.5"/>
<text text-anchor="middle" x="486.5" y="-125.9" font-family="Ubuntu Mono" font-size="12.00">str_utilities::i2str</text>
</a>
</g>
</g>
<!-- Node70&#45;&gt;Node77 -->
<g id="edge12" class="edge"><title>Node70&#45;&gt;Node77</title>
<path fill="none" stroke="midnightblue" d="M355.149,-141.78C372.226,-140.105 390.455,-138.318 407.704,-136.627"/>
<polygon fill="midnightblue" stroke="midnightblue" points="408.12,-140.103 417.73,-135.644 407.437,-133.137 408.12,-140.103"/>
</g>
<!-- Node78 -->
<g id="node11" class="node"><title>Node78</title>
<g id="a_node11"><a xlink:href="namespacestr__utilities.html#ac778d706b2e021672618939ab58fdd32" target="_top" xlink:title="Convert a real (double) to string. ">
<polygon fill="white" stroke="black" points="415,-78.5 415,-99.5 558,-99.5 558,-78.5 415,-78.5"/>
<text text-anchor="middle" x="486.5" y="-85.9" font-family="Ubuntu Mono" font-size="12.00">str_utilities::r2strt</text>
</a>
</g>
</g>
<!-- Node70&#45;&gt;Node78 -->
<g id="edge13" class="edge"><title>Node70&#45;&gt;Node78</title>
<path fill="none" stroke="midnightblue" d="M310.475,-138.353C334.318,-129.802 369.095,-117.809 400,-109 408.721,-106.514 418.005,-104.104 427.12,-101.868"/>
<polygon fill="midnightblue" stroke="midnightblue" points="428.005,-105.255 436.91,-99.5152 426.369,-98.4491 428.005,-105.255"/>
</g>
<!-- Node71&#45;&gt;Node72 -->
<g id="edge4" class="edge"><title>Node71&#45;&gt;Node72</title>
<path fill="none" stroke="midnightblue" d="M533.543,-274.832C562.462,-264.048 599.307,-250.309 626.544,-240.153"/>
<polygon fill="midnightblue" stroke="midnightblue" points="627.965,-243.359 636.112,-236.585 625.519,-236.8 627.965,-243.359"/>
</g>
<!-- Node72&#45;&gt;Node73 -->
<g id="edge5" class="edge"><title>Node72&#45;&gt;Node73</title>
<path fill="none" stroke="midnightblue" d="M692.577,-215.497C715.575,-206.234 749.3,-192.65 774.8,-182.379"/>
<polygon fill="midnightblue" stroke="midnightblue" points="776.162,-185.604 784.13,-178.621 773.547,-179.111 776.162,-185.604"/>
</g>
<!-- Node74 -->
<g id="node7" class="node"><title>Node74</title>
<g id="a_node7"><a xlink:href="namespacemessages.html#a82dddaab795b78b3d39e1ff1aab2f665" target="_top" xlink:title="Returns the memory usage in kilobytes. ">
<polygon fill="white" stroke="black" points="901,-177.5 901,-198.5 1056,-198.5 1056,-177.5 901,-177.5"/>
<text text-anchor="middle" x="978.5" y="-184.9" font-family="Ubuntu Mono" font-size="12.00">messages::get_mem_usage</text>
</a>
</g>
</g>
<!-- Node73&#45;&gt;Node74 -->
<g id="edge6" class="edge"><title>Node73&#45;&gt;Node74</title>
<path fill="none" stroke="midnightblue" d="M865.161,-174.383C873.452,-175.388 882.208,-176.449 891.025,-177.518"/>
<polygon fill="midnightblue" stroke="midnightblue" points="890.635,-180.996 900.984,-178.725 891.478,-174.047 890.635,-180.996"/>
</g>
<!-- Node75 -->
<g id="node8" class="node"><title>Node75</title>
<g id="a_node8"><a xlink:href="namespacemessages.html#a61fd0b51b5e37d58fdc993c01792a3fd" target="_top" xlink:title="Returns the time. ">
<polygon fill="white" stroke="black" points="913,-137.5 913,-158.5 1044,-158.5 1044,-137.5 913,-137.5"/>
<text text-anchor="middle" x="978.5" y="-144.9" font-family="Ubuntu Mono" font-size="12.00">messages::get_clock</text>
</a>
</g>
</g>
<!-- Node73&#45;&gt;Node75 -->
<g id="edge7" class="edge"><title>Node73&#45;&gt;Node75</title>
<path fill="none" stroke="midnightblue" d="M865.161,-161.617C877.142,-160.165 890.094,-158.595 902.797,-157.055"/>
<polygon fill="midnightblue" stroke="midnightblue" points="903.402,-160.507 912.908,-155.829 902.56,-153.558 903.402,-160.507"/>
</g>
<!-- Node76&#45;&gt;Node72 -->
<g id="edge9" class="edge"><title>Node76&#45;&gt;Node72</title>
<path fill="none" stroke="midnightblue" d="M573.148,-216.194C581.806,-217.123 590.5,-218.056 598.898,-218.958"/>
<polygon fill="midnightblue" stroke="midnightblue" points="598.657,-222.452 608.973,-220.039 599.404,-215.492 598.657,-222.452"/>
</g>
</g>
</svg>
