<?xml version="1.0" encoding="UTF-8" standalone="no"?>
<!DOCTYPE svg PUBLIC "-//W3C//DTD SVG 1.1//EN"
 "http://www.w3.org/Graphics/SVG/1.1/DTD/svg11.dtd">
<!-- Generated by graphviz version 2.43.0 (0)
 -->
<!-- Title: rich_ops::init_rich Pages: 1 -->
<svg width="1456pt" height="980pt"
 viewBox="0.00 0.00 1456.00 979.73" xmlns="http://www.w3.org/2000/svg" xmlns:xlink="http://www.w3.org/1999/xlink">
<g id="graph0" class="graph" transform="scale(1 1) rotate(0) translate(4 975.73)">
<title>rich_ops::init_rich</title>
<polygon fill="white" stroke="transparent" points="-4,4 -4,-975.73 1452,-975.73 1452,4 -4,4"/>
<!-- Node1 -->
<g id="node1" class="node">
<title>Node1</title>
<g id="a_node1"><a xlink:title="Initialize Richardson extrapolation system.">
<polygon fill="#bfbfbf" stroke="black" points="0,-560.5 0,-581.5 120,-581.5 120,-560.5 0,-560.5"/>
<text text-anchor="middle" x="60" y="-567.9" font-family="Ubuntu Mono" font-size="12.00">rich_ops::init_rich</text>
</a>
</g>
</g>
<!-- Node2 -->
<g id="node2" class="node">
<title>Node2</title>
<g id="a_node2"><a xlink:href="namespacerich__ops.html#ad2717df0206a397d0d7845a96aa5da23" target="_top" xlink:title="Calculates the coefficients of the Eigenvalues in the Richardson extrapolation.">
<polygon fill="white" stroke="black" points="157.5,-816.5 157.5,-837.5 303.5,-837.5 303.5,-816.5 157.5,-816.5"/>
<text text-anchor="middle" x="230.5" y="-823.9" font-family="Ubuntu Mono" font-size="12.00">rich_ops::calc_rich_ex</text>
</a>
</g>
</g>
<!-- Node1&#45;&gt;Node2 -->
<g id="edge1" class="edge">
<title>Node1&#45;&gt;Node2</title>
<path fill="none" stroke="midnightblue" d="M61.98,-581.58C66,-618.6 84.55,-743.45 156,-807 157.73,-808.54 159.56,-809.95 161.48,-811.27"/>
<polygon fill="midnightblue" stroke="midnightblue" points="159.93,-814.41 170.35,-816.35 163.41,-808.34 159.93,-814.41"/>
</g>
<!-- Node3 -->
<g id="node3" class="node">
<title>Node3</title>
<g id="a_node3"><a xlink:href="namespacerich__ops.html#ac00cce686d45540b238b3b6e39c9bdeb" target="_top" xlink:title="Decides whether convergence has been reached for the Richardson extrapolation.">
<polygon fill="white" stroke="black" points="734,-571.5 734,-592.5 877,-592.5 877,-571.5 734,-571.5"/>
<text text-anchor="middle" x="805.5" y="-578.9" font-family="Ubuntu Mono" font-size="12.00">rich_ops::check_conv</text>
</a>
</g>
</g>
<!-- Node1&#45;&gt;Node3 -->
<g id="edge2" class="edge">
<title>Node1&#45;&gt;Node3</title>
<path fill="none" stroke="midnightblue" d="M120.34,-570.59C203.13,-570.14 358,-569.75 490,-572 569.42,-573.35 660.08,-576.4 723.59,-578.77"/>
<polygon fill="midnightblue" stroke="midnightblue" points="723.82,-582.28 733.94,-579.16 724.08,-575.29 723.82,-582.28"/>
</g>
<!-- Node4 -->
<g id="node4" class="node">
<title>Node4</title>
<g id="a_node4"><a xlink:href="namespacestr__utilities.html#a0b97e51770725a3e98ed393d26681414" target="_top" xlink:title="Convert an integer to string.">
<polygon fill="white" stroke="black" points="1332.5,-463.5 1332.5,-484.5 1446.5,-484.5 1446.5,-463.5 1332.5,-463.5"/>
<text text-anchor="middle" x="1389.5" y="-470.9" font-family="Ubuntu Mono" font-size="12.00">str_utilities::i2str</text>
</a>
</g>
</g>
<!-- Node1&#45;&gt;Node4 -->
<g id="edge9" class="edge">
<title>Node1&#45;&gt;Node4</title>
<path fill="none" stroke="midnightblue" d="M62.21,-560.1C71.67,-481.16 140.51,0 414.5,0 414.5,0 414.5,0 1001,0 1143.16,0 1201.88,-18.58 1295,-126 1380.67,-224.83 1388.77,-394.33 1388.86,-453.16"/>
<polygon fill="midnightblue" stroke="midnightblue" points="1385.36,-453.37 1388.79,-463.4 1392.36,-453.42 1385.36,-453.37"/>
</g>
<!-- Node5 -->
<g id="node5" class="node">
<title>Node5</title>
<g id="a_node5"><a xlink:href="namespacestr__utilities.html#ac778d706b2e021672618939ab58fdd32" target="_top" xlink:title="Convert a real (double) to string.">
<polygon fill="white" stroke="black" points="1143,-629.5 1143,-650.5 1264,-650.5 1264,-629.5 1143,-629.5"/>
<text text-anchor="middle" x="1203.5" y="-636.9" font-family="Ubuntu Mono" font-size="12.00">str_utilities::r2strt</text>
</a>
</g>
</g>
<!-- Node1&#45;&gt;Node5 -->
<g id="edge16" class="edge">
<title>Node1&#45;&gt;Node5</title>
<path fill="none" stroke="midnightblue" d="M94.14,-581.58C112.27,-587.08 135.21,-593.55 156,-598 237.25,-615.4 258.23,-617.71 341,-625 634.22,-650.84 985.68,-645.82 1132.59,-642.11"/>
<polygon fill="midnightblue" stroke="midnightblue" points="1132.91,-645.6 1142.81,-641.85 1132.73,-638.61 1132.91,-645.6"/>
</g>
<!-- Node6 -->
<g id="node6" class="node">
<title>Node6</title>
<g id="a_node6"><a xlink:href="namespacemessages.html#aa4a8d01563e92558e8a0875b075ec54c" target="_top" xlink:title="Write output to file identified by output_i.">
<polygon fill="white" stroke="black" points="943,-402.5 943,-423.5 1057,-423.5 1057,-402.5 943,-402.5"/>
<text text-anchor="middle" x="1000" y="-409.9" font-family="Ubuntu Mono" font-size="12.00">messages::writo</text>
</a>
</g>
</g>
<!-- Node1&#45;&gt;Node6 -->
<g id="edge64" class="edge">
<title>Node1&#45;&gt;Node6</title>
<path fill="none" stroke="midnightblue" d="M99.04,-560.43C199.84,-532.92 482.54,-459.03 723,-427 794.3,-417.5 876.74,-414.33 932.83,-413.33"/>
<polygon fill="midnightblue" stroke="midnightblue" points="933.04,-416.82 942.99,-413.16 932.93,-409.82 933.04,-416.82"/>
</g>
<!-- Node9 -->
<g id="node9" class="node">
<title>Node9</title>
<g id="a_node9"><a xlink:href="namespacex__ops.html#a73a80c582379669f8e07b09dd7456878" target="_top" xlink:title="Initializes some variables concerning the mode numbers.">
<polygon fill="white" stroke="black" points="354.5,-370.5 354.5,-391.5 476.5,-391.5 476.5,-370.5 354.5,-370.5"/>
<text text-anchor="middle" x="415.5" y="-377.9" font-family="Ubuntu Mono" font-size="12.00">x_ops::init_modes</text>
</a>
</g>
</g>
<!-- Node1&#45;&gt;Node9 -->
<g id="edge10" class="edge">
<title>Node1&#45;&gt;Node9</title>
<path fill="none" stroke="midnightblue" d="M67.42,-560.28C81.01,-538.51 114.81,-488.91 156,-462 213.54,-424.4 289.64,-403.33 344.34,-392.17"/>
<polygon fill="midnightblue" stroke="midnightblue" points="345.17,-395.58 354.3,-390.2 343.81,-388.71 345.17,-395.58"/>
</g>
<!-- Node10 -->
<g id="node10" class="node">
<title>Node10</title>
<g id="a_node10"><a xlink:href="namespacemessages.html#a6e6bfb084063e4cc91ee86e542043302" target="_top" xlink:title="Increases/decreases lvl of output.">
<polygon fill="white" stroke="black" points="746.5,-236.5 746.5,-257.5 864.5,-257.5 864.5,-236.5 746.5,-236.5"/>
<text text-anchor="middle" x="805.5" y="-243.9" font-family="Ubuntu Mono" font-size="12.00">messages::lvl_ud</text>
</a>
</g>
</g>
<!-- Node1&#45;&gt;Node10 -->
<g id="edge15" class="edge">
<title>Node1&#45;&gt;Node10</title>
<path fill="none" stroke="midnightblue" d="M61.48,-560.47C63.86,-520.58 77.76,-377.12 156,-302 323.5,-141.17 639.99,-203.12 758.32,-233.81"/>
<polygon fill="midnightblue" stroke="midnightblue" points="757.59,-237.23 768.15,-236.4 759.38,-230.47 757.59,-237.23"/>
</g>
<!-- Node12 -->
<g id="node12" class="node">
<title>Node12</title>
<g id="a_node12"><a xlink:href="namespacepb3d__ops.html#a3142ca9965fa01b2777db762ed1a6eba" target="_top" xlink:title="Reconstructs the equilibrium variables from PB3D HDF5 output.">
<polygon fill="white" stroke="black" points="156,-657 156,-691 305,-691 305,-657 156,-657"/>
<text text-anchor="start" x="164" y="-677.4" font-family="Ubuntu Mono" font-size="12.00">pb3d_ops::reconstruct</text>
<text text-anchor="middle" x="230.5" y="-664.4" font-family="Ubuntu Mono" font-size="12.00">_pb3d_eq_1</text>
</a>
</g>
</g>
<!-- Node1&#45;&gt;Node12 -->
<g id="edge17" class="edge">
<title>Node1&#45;&gt;Node12</title>
<path fill="none" stroke="midnightblue" d="M73.26,-581.63C90.76,-596.46 124.31,-623.59 156,-642 162.37,-645.7 169.25,-649.24 176.15,-652.52"/>
<polygon fill="midnightblue" stroke="midnightblue" points="174.99,-655.84 185.54,-656.84 177.92,-649.48 174.99,-655.84"/>
</g>
<!-- Node24 -->
<g id="node24" class="node">
<title>Node24</title>
<g id="a_node24"><a xlink:href="namespacepb3d__ops.html#a4218b582c5029ff05893265fa329877b" target="_top" xlink:title="Reconstructs grid variables from PB3D HDF5 output.">
<polygon fill="white" stroke="black" points="156,-763 156,-797 305,-797 305,-763 156,-763"/>
<text text-anchor="start" x="164" y="-783.4" font-family="Ubuntu Mono" font-size="12.00">pb3d_ops::reconstruct</text>
<text text-anchor="middle" x="230.5" y="-770.4" font-family="Ubuntu Mono" font-size="12.00">_pb3d_grid</text>
</a>
</g>
</g>
<!-- Node1&#45;&gt;Node24 -->
<g id="edge42" class="edge">
<title>Node1&#45;&gt;Node24</title>
<path fill="none" stroke="midnightblue" d="M63.61,-581.82C71.69,-613.13 99.29,-704.66 156,-754 157.33,-755.16 158.72,-756.27 160.16,-757.33"/>
<polygon fill="midnightblue" stroke="midnightblue" points="158.51,-760.43 168.82,-762.89 162.3,-754.54 158.51,-760.43"/>
</g>
<!-- Node26 -->
<g id="node26" class="node">
<title>Node26</title>
<g id="a_node26"><a xlink:href="namespacepb3d__ops.html#ad1481747b9b9832f816d4bf1dd2d6737" target="_top" xlink:title="Reconstructs the input variables from PB3D HDF5 output.">
<polygon fill="white" stroke="black" points="341,-581 341,-615 490,-615 490,-581 341,-581"/>
<text text-anchor="start" x="349" y="-601.4" font-family="Ubuntu Mono" font-size="12.00">pb3d_ops::reconstruct</text>
<text text-anchor="middle" x="415.5" y="-588.4" font-family="Ubuntu Mono" font-size="12.00">_pb3d_in</text>
</a>
</g>
</g>
<!-- Node1&#45;&gt;Node26 -->
<g id="edge46" class="edge">
<title>Node1&#45;&gt;Node26</title>
<path fill="none" stroke="midnightblue" d="M120.17,-575.52C177.72,-579.92 265.72,-586.64 330.52,-591.59"/>
<polygon fill="midnightblue" stroke="midnightblue" points="330.47,-595.09 340.71,-592.36 331,-588.11 330.47,-595.09"/>
</g>
<!-- Node27 -->
<g id="node27" class="node">
<title>Node27</title>
<g id="a_node27"><a xlink:href="namespacepb3d__ops.html#ae7afc544227f34f2877eb5a14d620823" target="_top" xlink:title="Reconstructs the solution variables from PB3D HDF5 output.">
<polygon fill="white" stroke="black" points="156,-710 156,-744 305,-744 305,-710 156,-710"/>
<text text-anchor="start" x="164" y="-730.4" font-family="Ubuntu Mono" font-size="12.00">pb3d_ops::reconstruct</text>
<text text-anchor="middle" x="230.5" y="-717.4" font-family="Ubuntu Mono" font-size="12.00">_pb3d_sol</text>
</a>
</g>
</g>
<!-- Node1&#45;&gt;Node27 -->
<g id="edge51" class="edge">
<title>Node1&#45;&gt;Node27</title>
<path fill="none" stroke="midnightblue" d="M66.03,-581.78C78.07,-606.44 110.93,-667.45 156,-701 157.85,-702.38 159.78,-703.69 161.78,-704.93"/>
<polygon fill="midnightblue" stroke="midnightblue" points="160.41,-708.18 170.85,-709.99 163.81,-702.06 160.41,-708.18"/>
</g>
<!-- Node28 -->
<g id="node28" class="node">
<title>Node28</title>
<g id="a_node28"><a xlink:href="namespacex__ops.html#a640d64aeae8a574eb05f164c1bdad3bd" target="_top" xlink:title="Sets up some variables concerning the mode numbers.">
<polygon fill="white" stroke="black" points="347,-254.5 347,-275.5 484,-275.5 484,-254.5 347,-254.5"/>
<text text-anchor="middle" x="415.5" y="-261.9" font-family="Ubuntu Mono" font-size="12.00">x_ops::setup_modes</text>
</a>
</g>
</g>
<!-- Node1&#45;&gt;Node28 -->
<g id="edge53" class="edge">
<title>Node1&#45;&gt;Node28</title>
<path fill="none" stroke="midnightblue" d="M64.35,-560.21C74.04,-530.59 104.68,-446.92 156,-397 218.19,-336.51 313.64,-297.68 369.5,-278.74"/>
<polygon fill="midnightblue" stroke="midnightblue" points="370.73,-282.01 379.11,-275.54 368.52,-275.37 370.73,-282.01"/>
</g>
<!-- Node3&#45;&gt;Node4 -->
<g id="edge3" class="edge">
<title>Node3&#45;&gt;Node4</title>
<path fill="none" stroke="midnightblue" d="M877.24,-574.94C972.95,-564.49 1148.55,-542.16 1295,-506 1314.22,-501.26 1335.1,-494.29 1352.25,-488.07"/>
<polygon fill="midnightblue" stroke="midnightblue" points="1353.7,-491.26 1361.87,-484.51 1351.28,-484.69 1353.7,-491.26"/>
</g>
<!-- Node3&#45;&gt;Node5 -->
<g id="edge4" class="edge">
<title>Node3&#45;&gt;Node5</title>
<path fill="none" stroke="midnightblue" d="M877.28,-585.41C931.88,-588.8 1009.12,-595.26 1076,-607 1103.68,-611.86 1134.17,-619.74 1158.29,-626.58"/>
<polygon fill="midnightblue" stroke="midnightblue" points="1157.62,-630.03 1168.2,-629.43 1159.56,-623.3 1157.62,-630.03"/>
</g>
<!-- Node3&#45;&gt;Node6 -->
<g id="edge5" class="edge">
<title>Node3&#45;&gt;Node6</title>
<path fill="none" stroke="midnightblue" d="M869.36,-571.34C875.94,-568.85 882.29,-565.78 888,-562 901.19,-553.25 959.4,-470.34 985.84,-432.12"/>
<polygon fill="midnightblue" stroke="midnightblue" points="988.75,-434.07 991.55,-423.85 982.99,-430.1 988.75,-434.07"/>
</g>
<!-- Node6&#45;&gt;Node4 -->
<g id="edge8" class="edge">
<title>Node6&#45;&gt;Node4</title>
<path fill="none" stroke="midnightblue" d="M1053.99,-423.51C1072.33,-427.02 1093.04,-430.84 1112,-434 1183.61,-445.95 1266.01,-457.6 1322.1,-465.22"/>
<polygon fill="midnightblue" stroke="midnightblue" points="1321.88,-468.72 1332.26,-466.59 1322.81,-461.78 1321.88,-468.72"/>
</g>
<!-- Node7 -->
<g id="node7" class="node">
<title>Node7</title>
<g id="a_node7"><a xlink:href="namespacemessages.html#a61fd0b51b5e37d58fdc993c01792a3fd" target="_top" xlink:title="Returns the time.">
<polygon fill="white" stroke="black" points="1133.5,-363.5 1133.5,-384.5 1273.5,-384.5 1273.5,-363.5 1133.5,-363.5"/>
<text text-anchor="middle" x="1203.5" y="-370.9" font-family="Ubuntu Mono" font-size="12.00">messages::get_clock</text>
</a>
</g>
</g>
<!-- Node6&#45;&gt;Node7 -->
<g id="edge6" class="edge">
<title>Node6&#45;&gt;Node7</title>
<path fill="none" stroke="midnightblue" d="M1055.26,-402.5C1080.79,-397.56 1111.42,-391.63 1138.12,-386.46"/>
<polygon fill="midnightblue" stroke="midnightblue" points="1138.99,-389.86 1148.14,-384.52 1137.66,-382.99 1138.99,-389.86"/>
</g>
<!-- Node8 -->
<g id="node8" class="node">
<title>Node8</title>
<g id="a_node8"><a xlink:href="namespacemessages.html#a82dddaab795b78b3d39e1ff1aab2f665" target="_top" xlink:title="Returns the memory usage in kilobytes.">
<polygon fill="white" stroke="black" points="1112,-403.5 1112,-424.5 1295,-424.5 1295,-403.5 1112,-403.5"/>
<text text-anchor="middle" x="1203.5" y="-410.9" font-family="Ubuntu Mono" font-size="12.00">messages::get_mem_usage</text>
</a>
</g>
</g>
<!-- Node6&#45;&gt;Node8 -->
<g id="edge7" class="edge">
<title>Node6&#45;&gt;Node8</title>
<path fill="none" stroke="midnightblue" d="M1057.13,-413.28C1071.08,-413.35 1086.45,-413.42 1101.83,-413.5"/>
<polygon fill="midnightblue" stroke="midnightblue" points="1101.9,-417 1111.91,-413.55 1101.93,-410 1101.9,-417"/>
</g>
<!-- Node9&#45;&gt;Node6 -->
<g id="edge14" class="edge">
<title>Node9&#45;&gt;Node6</title>
<path fill="none" stroke="midnightblue" d="M476.52,-381.62C566.2,-382.91 740.43,-386.9 888,-399 902.55,-400.19 918.12,-401.89 932.86,-403.7"/>
<polygon fill="midnightblue" stroke="midnightblue" points="932.56,-407.19 942.92,-404.96 933.43,-400.24 932.56,-407.19"/>
</g>
<!-- Node9&#45;&gt;Node10 -->
<g id="edge11" class="edge">
<title>Node9&#45;&gt;Node10</title>
<path fill="none" stroke="midnightblue" d="M476.51,-381.72C533.05,-380.32 619,-372.74 687,-343 728.7,-324.76 767.64,-287.41 788.54,-265.06"/>
<polygon fill="midnightblue" stroke="midnightblue" points="791.23,-267.3 795.4,-257.56 786.07,-262.58 791.23,-267.3"/>
</g>
<!-- Node11 -->
<g id="node11" class="node">
<title>Node11</title>
<g id="a_node11"><a xlink:href="namespacegrid__utilities.html#a67001ff9bbcad707aacf17f90a748d90" target="_top" xlink:title="Trim a grid, removing any overlap between the different regions.">
<polygon fill="white" stroke="black" points="532,-312.5 532,-333.5 681,-333.5 681,-312.5 532,-312.5"/>
<text text-anchor="middle" x="606.5" y="-319.9" font-family="Ubuntu Mono" font-size="12.00">grid_utilities::trim_grid</text>
</a>
</g>
</g>
<!-- Node9&#45;&gt;Node11 -->
<g id="edge13" class="edge">
<title>Node9&#45;&gt;Node11</title>
<path fill="none" stroke="midnightblue" d="M450.73,-370.5C481.81,-360.96 527.81,-346.84 561.59,-336.48"/>
<polygon fill="midnightblue" stroke="midnightblue" points="562.68,-339.8 571.21,-333.52 560.62,-333.11 562.68,-339.8"/>
</g>
<!-- Node10&#45;&gt;Node6 -->
<g id="edge12" class="edge">
<title>Node10&#45;&gt;Node6</title>
<path fill="none" stroke="midnightblue" d="M857.81,-257.55C868.34,-261.11 878.97,-265.81 888,-272 935.31,-304.42 971.97,-363.12 988.84,-393.54"/>
<polygon fill="midnightblue" stroke="midnightblue" points="985.77,-395.23 993.61,-402.36 991.93,-391.9 985.77,-395.23"/>
</g>
<!-- Node13 -->
<g id="node13" class="node">
<title>Node13</title>
<g id="a_node13"><a xlink:href="namespacehdf5__ops.html#a5108e0d6f6b492cb981505ebceedd9ee" target="_top" xlink:title="Reads a PB3D output file in HDF5 format.">
<polygon fill="white" stroke="black" points="526,-709.5 526,-730.5 687,-730.5 687,-709.5 526,-709.5"/>
<text text-anchor="middle" x="606.5" y="-716.9" font-family="Ubuntu Mono" font-size="12.00">hdf5_ops::read_hdf5_arr</text>
</a>
</g>
</g>
<!-- Node12&#45;&gt;Node13 -->
<g id="edge18" class="edge">
<title>Node12&#45;&gt;Node13</title>
<path fill="none" stroke="midnightblue" d="M305.39,-683.09C365.81,-690.52 451.46,-701.05 515.81,-708.97"/>
<polygon fill="midnightblue" stroke="midnightblue" points="515.59,-712.47 525.94,-710.22 516.45,-705.52 515.59,-712.47"/>
</g>
<!-- Node13&#45;&gt;Node4 -->
<g id="edge19" class="edge">
<title>Node13&#45;&gt;Node4</title>
<path fill="none" stroke="midnightblue" d="M687.26,-729.37C699.22,-730.46 711.42,-731.4 723,-732 850.94,-738.63 1192.24,-736.51 1295,-660 1351.05,-618.26 1375.77,-533.46 1384.51,-494.46"/>
<polygon fill="midnightblue" stroke="midnightblue" points="1387.97,-495.05 1386.61,-484.54 1381.12,-493.6 1387.97,-495.05"/>
</g>
<!-- Node13&#45;&gt;Node6 -->
<g id="edge41" class="edge">
<title>Node13&#45;&gt;Node6</title>
<path fill="none" stroke="midnightblue" d="M610.13,-709.28C619.22,-674.55 652.69,-564.17 723,-509 782.71,-462.15 816.69,-490.98 888,-465 916.56,-454.59 947.82,-439.61 969.86,-428.4"/>
<polygon fill="midnightblue" stroke="midnightblue" points="971.71,-431.38 979,-423.69 968.51,-425.15 971.71,-431.38"/>
</g>
<!-- Node14 -->
<g id="node14" class="node">
<title>Node14</title>
<g id="a_node14"><a xlink:href="namespacehdf5__utilities.html#aa9d76166f970a7052cd0d96c8f3ee0be" target="_top" xlink:title="Lists all variables in a HDF5 group.">
<polygon fill="white" stroke="black" points="743,-518 743,-552 868,-552 868,-518 743,-518"/>
<text text-anchor="start" x="751" y="-538.4" font-family="Ubuntu Mono" font-size="12.00">hdf5_utilities::list</text>
<text text-anchor="middle" x="805.5" y="-525.4" font-family="Ubuntu Mono" font-size="12.00">_all_vars_in_group</text>
</a>
</g>
</g>
<!-- Node13&#45;&gt;Node14 -->
<g id="edge20" class="edge">
<title>Node13&#45;&gt;Node14</title>
<path fill="none" stroke="midnightblue" d="M612.33,-709.4C625.72,-681.16 666.16,-603.42 723,-562 726.39,-559.53 730.02,-557.28 733.79,-555.23"/>
<polygon fill="midnightblue" stroke="midnightblue" points="735.38,-558.34 742.81,-550.79 732.29,-552.06 735.38,-558.34"/>
</g>
<!-- Node15 -->
<g id="node15" class="node">
<title>Node15</title>
<g id="a_node15"><a xlink:href="namespacempi__utilities.html#a5a789d05be41d6109c01f46cc98620c8" target="_top" xlink:title="Request access to lock of a BL (blocking) or optionally a NB (non&#45;blocking) type.">
<polygon fill="white" stroke="black" points="746,-799 746,-833 865,-833 865,-799 746,-799"/>
<text text-anchor="start" x="754" y="-819.4" font-family="Ubuntu Mono" font-size="12.00">mpi_utilities::lock</text>
<text text-anchor="middle" x="805.5" y="-806.4" font-family="Ubuntu Mono" font-size="12.00">_req_acc</text>
</a>
</g>
</g>
<!-- Node13&#45;&gt;Node15 -->
<g id="edge23" class="edge">
<title>Node13&#45;&gt;Node15</title>
<path fill="none" stroke="midnightblue" d="M629.34,-730.64C660.75,-745.95 719.39,-774.52 760.12,-794.37"/>
<polygon fill="midnightblue" stroke="midnightblue" points="758.77,-797.61 769.29,-798.84 761.83,-791.32 758.77,-797.61"/>
</g>
<!-- Node22 -->
<g id="node22" class="node">
<title>Node22</title>
<g id="a_node22"><a xlink:href="namespacempi__utilities.html#a86f9982a0f92b51a916f832d9a3d8ba9" target="_top" xlink:title="Returns access to a lock.">
<polygon fill="white" stroke="black" points="746,-870 746,-904 865,-904 865,-870 746,-870"/>
<text text-anchor="start" x="754" y="-890.4" font-family="Ubuntu Mono" font-size="12.00">mpi_utilities::lock</text>
<text text-anchor="middle" x="805.5" y="-877.4" font-family="Ubuntu Mono" font-size="12.00">_return_acc</text>
</a>
</g>
</g>
<!-- Node13&#45;&gt;Node22 -->
<g id="edge35" class="edge">
<title>Node13&#45;&gt;Node22</title>
<path fill="none" stroke="midnightblue" d="M615.52,-730.63C633.08,-753.39 677.04,-807.63 723,-843 733.66,-851.21 746.06,-858.75 757.92,-865.18"/>
<polygon fill="midnightblue" stroke="midnightblue" points="756.37,-868.32 766.85,-869.88 759.63,-862.13 756.37,-868.32"/>
</g>
<!-- Node23 -->
<g id="node23" class="node">
<title>Node23</title>
<g id="a_node23"><a xlink:href="namespacehdf5__utilities.html#a7574320980affc30a584f7776d33a51c" target="_top" xlink:title="Sets up the chunk property list and/or the 1D hyperslabs that correspond to a local subset of lim_tot...">
<polygon fill="white" stroke="black" points="747,-688 747,-722 864,-722 864,-688 747,-688"/>
<text text-anchor="start" x="755" y="-708.4" font-family="Ubuntu Mono" font-size="12.00">hdf5_utilities::set</text>
<text text-anchor="middle" x="805.5" y="-695.4" font-family="Ubuntu Mono" font-size="12.00">_1d_vars</text>
</a>
</g>
</g>
<!-- Node13&#45;&gt;Node23 -->
<g id="edge40" class="edge">
<title>Node13&#45;&gt;Node23</title>
<path fill="none" stroke="midnightblue" d="M687.06,-713.94C703.44,-712.69 720.55,-711.39 736.48,-710.18"/>
<polygon fill="midnightblue" stroke="midnightblue" points="737.05,-713.65 746.75,-709.4 736.52,-706.67 737.05,-713.65"/>
</g>
<!-- Node14&#45;&gt;Node4 -->
<g id="edge21" class="edge">
<title>Node14&#45;&gt;Node4</title>
<path fill="none" stroke="midnightblue" d="M868.08,-528.1C886.1,-526.11 905.84,-523.94 924,-522 1065.85,-506.82 1232.16,-489.83 1322.28,-480.69"/>
<polygon fill="midnightblue" stroke="midnightblue" points="1322.76,-484.16 1332.36,-479.67 1322.06,-477.2 1322.76,-484.16"/>
</g>
<!-- Node14&#45;&gt;Node6 -->
<g id="edge22" class="edge">
<title>Node14&#45;&gt;Node6</title>
<path fill="none" stroke="midnightblue" d="M857.2,-517.89C867.67,-513.59 878.41,-508.59 888,-503 923.73,-482.17 960,-450.31 980.95,-430.61"/>
<polygon fill="midnightblue" stroke="midnightblue" points="983.37,-433.14 988.19,-423.71 978.54,-428.07 983.37,-433.14"/>
</g>
<!-- Node16 -->
<g id="node16" class="node">
<title>Node16</title>
<g id="a_node16"><a xlink:href="namespacempi__utilities.html#a17c39b0498528e2532c8347b0b7dec86" target="_top" xlink:title="Get notified that the rank can get the lock.">
<polygon fill="white" stroke="black" points="940.5,-764 940.5,-798 1059.5,-798 1059.5,-764 940.5,-764"/>
<text text-anchor="start" x="948.5" y="-784.4" font-family="Ubuntu Mono" font-size="12.00">mpi_utilities::lock</text>
<text text-anchor="middle" x="1000" y="-771.4" font-family="Ubuntu Mono" font-size="12.00">_get_notified</text>
</a>
</g>
</g>
<!-- Node15&#45;&gt;Node16 -->
<g id="edge24" class="edge">
<title>Node15&#45;&gt;Node16</title>
<path fill="none" stroke="midnightblue" d="M865.04,-805.36C885.67,-801.61 909.04,-797.36 930.42,-793.47"/>
<polygon fill="midnightblue" stroke="midnightblue" points="931.19,-796.89 940.41,-791.65 929.94,-790 931.19,-796.89"/>
</g>
<!-- Node17 -->
<g id="node17" class="node">
<title>Node17</title>
<g id="a_node17"><a xlink:href="namespacempi__utilities.html#abe5bf3ae3b6a06eda18c2f4d62ac09c5" target="_top" xlink:title="Returns the header for lock debug messages.">
<polygon fill="white" stroke="black" points="1144,-790 1144,-824 1263,-824 1263,-790 1144,-790"/>
<text text-anchor="start" x="1152" y="-810.4" font-family="Ubuntu Mono" font-size="12.00">mpi_utilities::lock</text>
<text text-anchor="middle" x="1203.5" y="-797.4" font-family="Ubuntu Mono" font-size="12.00">_header</text>
</a>
</g>
</g>
<!-- Node15&#45;&gt;Node17 -->
<g id="edge28" class="edge">
<title>Node15&#45;&gt;Node17</title>
<path fill="none" stroke="midnightblue" d="M830.78,-798.95C853.62,-784.03 889.39,-763.45 924,-755 989.63,-738.98 1009.72,-741.91 1076,-755 1105.82,-760.89 1137.45,-773.89 1161.62,-785.42"/>
<polygon fill="midnightblue" stroke="midnightblue" points="1160.31,-788.67 1170.83,-789.91 1163.37,-782.38 1160.31,-788.67"/>
</g>
<!-- Node19 -->
<g id="node19" class="node">
<title>Node19</title>
<g id="a_node19"><a xlink:href="namespacempi__utilities.html#a263a30c79639d97f5faffdb566b5a811" target="_top" xlink:title="Notifies a rank that they can get the lock.">
<polygon fill="white" stroke="black" points="940.5,-870 940.5,-904 1059.5,-904 1059.5,-870 940.5,-870"/>
<text text-anchor="start" x="948.5" y="-890.4" font-family="Ubuntu Mono" font-size="12.00">mpi_utilities::lock</text>
<text text-anchor="middle" x="1000" y="-877.4" font-family="Ubuntu Mono" font-size="12.00">_notify</text>
</a>
</g>
</g>
<!-- Node15&#45;&gt;Node19 -->
<g id="edge29" class="edge">
<title>Node15&#45;&gt;Node19</title>
<path fill="none" stroke="midnightblue" d="M849.9,-833C872.02,-841.57 899.37,-852.02 924,-861 928.89,-862.78 933.97,-864.61 939.08,-866.42"/>
<polygon fill="midnightblue" stroke="midnightblue" points="938.3,-869.86 948.9,-869.88 940.63,-863.25 938.3,-869.86"/>
</g>
<!-- Node20 -->
<g id="node20" class="node">
<title>Node20</title>
<g id="a_node20"><a xlink:href="namespacempi__utilities.html#a3b0349e5ec825e14083e3126c3e7ba65" target="_top" xlink:title="Adds, removes or sets to active a rank from the waiting list for a lock and returns the lock waiting ...">
<polygon fill="white" stroke="black" points="940.5,-817 940.5,-851 1059.5,-851 1059.5,-817 940.5,-817"/>
<text text-anchor="start" x="948.5" y="-837.4" font-family="Ubuntu Mono" font-size="12.00">mpi_utilities::lock</text>
<text text-anchor="middle" x="1000" y="-824.4" font-family="Ubuntu Mono" font-size="12.00">_wl_change</text>
</a>
</g>
</g>
<!-- Node15&#45;&gt;Node20 -->
<g id="edge31" class="edge">
<title>Node15&#45;&gt;Node20</title>
<path fill="none" stroke="midnightblue" d="M865.04,-821.47C885.67,-823.4 909.04,-825.59 930.42,-827.59"/>
<polygon fill="midnightblue" stroke="midnightblue" points="930.12,-831.07 940.41,-828.52 930.78,-824.11 930.12,-831.07"/>
</g>
<!-- Node21 -->
<g id="node21" class="node">
<title>Node21</title>
<g id="a_node21"><a xlink:href="namespacempi__utilities.html#a74e2e82b561f403ca8087c3925f76e29" target="_top" xlink:title="Decides whether a waiting list is empty.">
<polygon fill="white" stroke="black" points="924,-923.5 924,-944.5 1076,-944.5 1076,-923.5 924,-923.5"/>
<text text-anchor="middle" x="1000" y="-930.9" font-family="Ubuntu Mono" font-size="12.00">mpi_utilities::wl_empty</text>
</a>
</g>
</g>
<!-- Node15&#45;&gt;Node21 -->
<g id="edge34" class="edge">
<title>Node15&#45;&gt;Node21</title>
<path fill="none" stroke="midnightblue" d="M846.27,-833.2C860.41,-840.49 875.82,-849.89 888,-861 909.04,-880.19 900.78,-897.52 924,-914 926.69,-915.91 929.56,-917.64 932.53,-919.2"/>
<polygon fill="midnightblue" stroke="midnightblue" points="931.2,-922.44 941.75,-923.42 934.11,-916.08 931.2,-922.44"/>
</g>
<!-- Node16&#45;&gt;Node17 -->
<g id="edge25" class="edge">
<title>Node16&#45;&gt;Node17</title>
<path fill="none" stroke="midnightblue" d="M1059.55,-788.56C1082.73,-791.55 1109.55,-795.01 1133.66,-798.12"/>
<polygon fill="midnightblue" stroke="midnightblue" points="1133.44,-801.62 1143.8,-799.43 1134.33,-794.67 1133.44,-801.62"/>
</g>
<!-- Node17&#45;&gt;Node4 -->
<g id="edge26" class="edge">
<title>Node17&#45;&gt;Node4</title>
<path fill="none" stroke="midnightblue" d="M1224.85,-789.68C1244.91,-771.7 1275.35,-741.94 1295,-711 1341.68,-637.5 1371.86,-536.89 1383.31,-494.33"/>
<polygon fill="midnightblue" stroke="midnightblue" points="1386.71,-495.15 1385.87,-484.59 1379.94,-493.37 1386.71,-495.15"/>
</g>
<!-- Node18 -->
<g id="node18" class="node">
<title>Node18</title>
<g id="a_node18"><a xlink:href="namespacestr__utilities.html#acb8c4e66aead51f178e47fdea8d7a7db" target="_top" xlink:title="Convert an integer to string.">
<polygon fill="white" stroke="black" points="1331,-796.5 1331,-817.5 1448,-817.5 1448,-796.5 1331,-796.5"/>
<text text-anchor="middle" x="1389.5" y="-803.9" font-family="Ubuntu Mono" font-size="12.00">str_utilities::ii2str</text>
</a>
</g>
</g>
<!-- Node17&#45;&gt;Node18 -->
<g id="edge27" class="edge">
<title>Node17&#45;&gt;Node18</title>
<path fill="none" stroke="midnightblue" d="M1263.22,-807C1281.59,-807 1302,-807 1320.92,-807"/>
<polygon fill="midnightblue" stroke="midnightblue" points="1320.96,-810.5 1330.96,-807 1320.96,-803.5 1320.96,-810.5"/>
</g>
<!-- Node19&#45;&gt;Node17 -->
<g id="edge30" class="edge">
<title>Node19&#45;&gt;Node17</title>
<path fill="none" stroke="midnightblue" d="M1051.6,-870C1059.8,-867.09 1068.16,-864.03 1076,-861 1102.43,-850.79 1131.54,-838.45 1155.16,-828.14"/>
<polygon fill="midnightblue" stroke="midnightblue" points="1156.83,-831.22 1164.59,-824 1154.02,-824.81 1156.83,-831.22"/>
</g>
<!-- Node20&#45;&gt;Node5 -->
<g id="edge33" class="edge">
<title>Node20&#45;&gt;Node5</title>
<path fill="none" stroke="midnightblue" d="M1059.65,-817.57C1065.42,-814.82 1070.99,-811.65 1076,-808 1131.87,-767.3 1174.29,-694.92 1192.59,-659.98"/>
<polygon fill="midnightblue" stroke="midnightblue" points="1195.86,-661.28 1197.3,-650.79 1189.63,-658.09 1195.86,-661.28"/>
</g>
<!-- Node20&#45;&gt;Node17 -->
<g id="edge32" class="edge">
<title>Node20&#45;&gt;Node17</title>
<path fill="none" stroke="midnightblue" d="M1059.55,-826.15C1082.73,-823.05 1109.55,-819.45 1133.66,-816.22"/>
<polygon fill="midnightblue" stroke="midnightblue" points="1134.35,-819.66 1143.8,-814.87 1133.42,-812.72 1134.35,-819.66"/>
</g>
<!-- Node22&#45;&gt;Node17 -->
<g id="edge36" class="edge">
<title>Node22&#45;&gt;Node17</title>
<path fill="none" stroke="midnightblue" d="M828.36,-904.14C850.86,-920.61 887.68,-944.37 924,-954 989.3,-971.31 1014.6,-982.17 1076,-954 1130.13,-929.17 1169.85,-868.48 1189.23,-833.33"/>
<polygon fill="midnightblue" stroke="midnightblue" points="1192.51,-834.62 1194.15,-824.15 1186.34,-831.31 1192.51,-834.62"/>
</g>
<!-- Node22&#45;&gt;Node19 -->
<g id="edge37" class="edge">
<title>Node22&#45;&gt;Node19</title>
<path fill="none" stroke="midnightblue" d="M865.04,-887C885.57,-887 908.83,-887 930.13,-887"/>
<polygon fill="midnightblue" stroke="midnightblue" points="930.41,-890.5 940.41,-887 930.41,-883.5 930.41,-890.5"/>
</g>
<!-- Node22&#45;&gt;Node20 -->
<g id="edge38" class="edge">
<title>Node22&#45;&gt;Node20</title>
<path fill="none" stroke="midnightblue" d="M865.04,-870.88C885.76,-865.18 909.25,-858.71 930.71,-852.8"/>
<polygon fill="midnightblue" stroke="midnightblue" points="931.69,-856.16 940.41,-850.13 929.84,-849.41 931.69,-856.16"/>
</g>
<!-- Node22&#45;&gt;Node21 -->
<g id="edge39" class="edge">
<title>Node22&#45;&gt;Node21</title>
<path fill="none" stroke="midnightblue" d="M865.04,-901.29C890.82,-907.59 920.89,-914.93 946,-921.06"/>
<polygon fill="midnightblue" stroke="midnightblue" points="945.17,-924.46 955.71,-923.43 946.83,-917.66 945.17,-924.46"/>
</g>
<!-- Node24&#45;&gt;Node13 -->
<g id="edge45" class="edge">
<title>Node24&#45;&gt;Node13</title>
<path fill="none" stroke="midnightblue" d="M305.12,-796.32C357.67,-804.95 429.46,-810.53 490,-793 527.41,-782.17 564.35,-755.2 586.03,-737.25"/>
<polygon fill="midnightblue" stroke="midnightblue" points="588.46,-739.78 593.82,-730.64 583.93,-734.44 588.46,-739.78"/>
</g>
<!-- Node25 -->
<g id="node25" class="node">
<title>Node25</title>
<g id="a_node25"><a xlink:href="namespacepb3d__ops.html#a528ae2857b7272d29d96f66ee60980a7" target="_top" xlink:title="get grid size">
<polygon fill="white" stroke="black" points="347,-749 347,-783 484,-783 484,-749 347,-749"/>
<text text-anchor="start" x="355" y="-769.4" font-family="Ubuntu Mono" font-size="12.00">pb3d_ops::get_pb3d</text>
<text text-anchor="middle" x="415.5" y="-756.4" font-family="Ubuntu Mono" font-size="12.00">_grid_size</text>
</a>
</g>
</g>
<!-- Node24&#45;&gt;Node25 -->
<g id="edge43" class="edge">
<title>Node24&#45;&gt;Node25</title>
<path fill="none" stroke="midnightblue" d="M305.14,-774.37C315.6,-773.57 326.39,-772.74 336.92,-771.93"/>
<polygon fill="midnightblue" stroke="midnightblue" points="337.22,-775.42 346.93,-771.17 336.69,-768.44 337.22,-775.42"/>
</g>
<!-- Node25&#45;&gt;Node13 -->
<g id="edge44" class="edge">
<title>Node25&#45;&gt;Node13</title>
<path fill="none" stroke="midnightblue" d="M484.2,-749.52C506.6,-744.07 531.2,-738.08 552.35,-732.94"/>
<polygon fill="midnightblue" stroke="midnightblue" points="553.23,-736.33 562.11,-730.56 551.57,-729.52 553.23,-736.33"/>
</g>
<!-- Node26&#45;&gt;Node5 -->
<g id="edge48" class="edge">
<title>Node26&#45;&gt;Node5</title>
<path fill="none" stroke="midnightblue" d="M490.09,-601.93C641.22,-610.01 984.73,-628.36 1132.63,-636.27"/>
<polygon fill="midnightblue" stroke="midnightblue" points="1132.77,-639.78 1142.94,-636.82 1133.14,-632.79 1132.77,-639.78"/>
</g>
<!-- Node26&#45;&gt;Node6 -->
<g id="edge50" class="edge">
<title>Node26&#45;&gt;Node6</title>
<path fill="none" stroke="midnightblue" d="M469.17,-580.97C524.87,-562.05 614.52,-528.98 687,-490 704.16,-480.77 705.03,-472.52 723,-465 760.03,-449.49 863.6,-432.42 932.8,-422.21"/>
<polygon fill="midnightblue" stroke="midnightblue" points="933.36,-425.67 942.75,-420.76 932.34,-418.74 933.36,-425.67"/>
</g>
<!-- Node26&#45;&gt;Node10 -->
<g id="edge47" class="edge">
<title>Node26&#45;&gt;Node10</title>
<path fill="none" stroke="midnightblue" d="M434.77,-580.97C456.25,-561.12 493.14,-527.51 526,-500 595.67,-441.67 620.15,-435.55 687,-374 726.11,-337.99 767.31,-291.07 789.01,-265.53"/>
<polygon fill="midnightblue" stroke="midnightblue" points="791.81,-267.64 795.59,-257.74 786.46,-263.12 791.81,-267.64"/>
</g>
<!-- Node26&#45;&gt;Node13 -->
<g id="edge49" class="edge">
<title>Node26&#45;&gt;Node13</title>
<path fill="none" stroke="midnightblue" d="M443.18,-615.22C479.61,-638.74 544.45,-680.6 580.17,-703.65"/>
<polygon fill="midnightblue" stroke="midnightblue" points="578.7,-706.87 589,-709.35 582.5,-700.99 578.7,-706.87"/>
</g>
<!-- Node27&#45;&gt;Node13 -->
<g id="edge52" class="edge">
<title>Node27&#45;&gt;Node13</title>
<path fill="none" stroke="midnightblue" d="M305.39,-725.62C365.81,-724.49 451.46,-722.88 515.81,-721.68"/>
<polygon fill="midnightblue" stroke="midnightblue" points="516.01,-725.18 525.94,-721.49 515.88,-718.18 516.01,-725.18"/>
</g>
<!-- Node28&#45;&gt;Node4 -->
<g id="edge60" class="edge">
<title>Node28&#45;&gt;Node4</title>
<path fill="none" stroke="midnightblue" d="M441.4,-254.47C502.23,-229.74 663.72,-170 804.5,-170 804.5,-170 804.5,-170 1001,-170 1186,-170 1335.08,-387.14 1376.81,-454.39"/>
<polygon fill="midnightblue" stroke="midnightblue" points="1373.98,-456.47 1382.18,-463.18 1379.95,-452.82 1373.98,-456.47"/>
</g>
<!-- Node28&#45;&gt;Node6 -->
<g id="edge63" class="edge">
<title>Node28&#45;&gt;Node6</title>
<path fill="none" stroke="midnightblue" d="M484.18,-270.73C539.33,-276.3 618.93,-286.4 687,-303 790.7,-328.3 908.26,-374.83 964.91,-398.44"/>
<polygon fill="midnightblue" stroke="midnightblue" points="963.86,-401.8 974.44,-402.44 966.57,-395.34 963.86,-401.8"/>
</g>
<!-- Node28&#45;&gt;Node10 -->
<g id="edge61" class="edge">
<title>Node28&#45;&gt;Node10</title>
<path fill="none" stroke="midnightblue" d="M484.08,-261.86C554.75,-258.59 665.07,-253.47 736.06,-250.18"/>
<polygon fill="midnightblue" stroke="midnightblue" points="736.41,-253.66 746.24,-249.7 736.08,-246.67 736.41,-253.66"/>
</g>
<!-- Node28&#45;&gt;Node11 -->
<g id="edge62" class="edge">
<title>Node28&#45;&gt;Node11</title>
<path fill="none" stroke="midnightblue" d="M450.73,-275.5C481.81,-285.04 527.81,-299.16 561.59,-309.52"/>
<polygon fill="midnightblue" stroke="midnightblue" points="560.62,-312.89 571.21,-312.48 562.68,-306.2 560.62,-312.89"/>
</g>
<!-- Node29 -->
<g id="node29" class="node">
<title>Node29</title>
<g id="a_node29"><a xlink:href="namespaceoutput__ops.html#a50bfbb88cc91805469353c3ff47b3e2e" target="_top" xlink:title="Use external program to draw a plot.">
<polygon fill="white" stroke="black" points="536.5,-120.5 536.5,-141.5 676.5,-141.5 676.5,-120.5 536.5,-120.5"/>
<text text-anchor="middle" x="606.5" y="-127.9" font-family="Ubuntu Mono" font-size="12.00">output_ops::draw_ex</text>
</a>
</g>
</g>
<!-- Node28&#45;&gt;Node29 -->
<g id="edge54" class="edge">
<title>Node28&#45;&gt;Node29</title>
<path fill="none" stroke="midnightblue" d="M424.31,-254.33C440.73,-232.65 481.01,-183.21 526,-156 533.21,-151.64 541.25,-147.97 549.37,-144.9"/>
<polygon fill="midnightblue" stroke="midnightblue" points="550.61,-148.18 558.9,-141.57 548.3,-141.57 550.61,-148.18"/>
</g>
<!-- Node29&#45;&gt;Node4 -->
<g id="edge55" class="edge">
<title>Node29&#45;&gt;Node4</title>
<path fill="none" stroke="midnightblue" d="M676.63,-129.01C841.39,-124.9 1247.05,-118.74 1295,-156 1343.33,-193.56 1375.9,-388.28 1385.53,-453.03"/>
<polygon fill="midnightblue" stroke="midnightblue" points="1382.11,-453.84 1387.02,-463.23 1389.04,-452.83 1382.11,-453.84"/>
</g>
<!-- Node29&#45;&gt;Node6 -->
<g id="edge59" class="edge">
<title>Node29&#45;&gt;Node6</title>
<path fill="none" stroke="midnightblue" d="M676.58,-140.86C737.72,-152.56 826.53,-177.16 888,-227 944.1,-272.48 978.5,-354.4 992.18,-392.49"/>
<polygon fill="midnightblue" stroke="midnightblue" points="989.04,-394.11 995.63,-402.41 995.65,-391.82 989.04,-394.11"/>
</g>
<!-- Node29&#45;&gt;Node10 -->
<g id="edge56" class="edge">
<title>Node29&#45;&gt;Node10</title>
<path fill="none" stroke="midnightblue" d="M621.01,-141.69C651.19,-165.58 721.58,-221.26 723,-222 731.28,-226.34 740.44,-230.06 749.53,-233.2"/>
<polygon fill="midnightblue" stroke="midnightblue" points="748.74,-236.62 759.33,-236.38 750.9,-229.96 748.74,-236.62"/>
</g>
<!-- Node30 -->
<g id="node30" class="node">
<title>Node30</title>
<g id="a_node30"><a xlink:href="namespacefiles__utilities.html#ac6066df405564ba2f5e3c4bba726c1f8" target="_top" xlink:title="Search for available new unit.">
<polygon fill="white" stroke="black" points="733,-82.5 733,-103.5 878,-103.5 878,-82.5 733,-82.5"/>
<text text-anchor="middle" x="805.5" y="-89.9" font-family="Ubuntu Mono" font-size="12.00">files_utilities::nextunit</text>
</a>
</g>
</g>
<!-- Node29&#45;&gt;Node30 -->
<g id="edge57" class="edge">
<title>Node29&#45;&gt;Node30</title>
<path fill="none" stroke="midnightblue" d="M662.11,-120.47C686.24,-115.81 714.78,-110.31 739.95,-105.45"/>
<polygon fill="midnightblue" stroke="midnightblue" points="740.62,-108.89 749.78,-103.56 739.3,-102.01 740.62,-108.89"/>
</g>
<!-- Node31 -->
<g id="node31" class="node">
<title>Node31</title>
<g id="a_node31"><a xlink:href="namespaceoutput__ops.html#aa9e4855511b6ea16a08b3efb587bec51" target="_top" xlink:title="Executes command line, or displays a message if disabled.">
<polygon fill="white" stroke="black" points="723,-29 723,-63 888,-63 888,-29 723,-29"/>
<text text-anchor="start" x="731" y="-49.4" font-family="Ubuntu Mono" font-size="12.00">output_ops::use_execute</text>
<text text-anchor="middle" x="805.5" y="-36.4" font-family="Ubuntu Mono" font-size="12.00">_command_line</text>
</a>
</g>
</g>
<!-- Node29&#45;&gt;Node31 -->
<g id="edge58" class="edge">
<title>Node29&#45;&gt;Node31</title>
<path fill="none" stroke="midnightblue" d="M626.31,-120.48C648.85,-108.14 687.96,-87.51 723,-73 728.38,-70.77 734.02,-68.59 739.71,-66.5"/>
<polygon fill="midnightblue" stroke="midnightblue" points="741.06,-69.74 749.3,-63.08 738.7,-63.15 741.06,-69.74"/>
</g>
</g>
</svg>
