<?xml version="1.0" encoding="UTF-8" standalone="no"?>
<!DOCTYPE svg PUBLIC "-//W3C//DTD SVG 1.1//EN"
 "http://www.w3.org/Graphics/SVG/1.1/DTD/svg11.dtd">
<!-- Generated by graphviz version 2.38.0 (20140413.2041)
 -->
<!-- Title: messages::print_ar_2 Pages: 1 -->
<svg width="819pt" height="70pt"
 viewBox="0.00 0.00 819.00 70.00" xmlns="http://www.w3.org/2000/svg" xmlns:xlink="http://www.w3.org/1999/xlink">
<g id="graph0" class="graph" transform="scale(1 1) rotate(0) translate(4 66)">
<title>messages::print_ar_2</title>
<polygon fill="white" stroke="none" points="-4,4 -4,-66 815,-66 815,4 -4,4"/>
<!-- Node486 -->
<g id="node1" class="node"><title>Node486</title>
<polygon fill="#bfbfbf" stroke="black" points="0,-20.5 0,-41.5 137,-41.5 137,-20.5 0,-20.5"/>
<text text-anchor="middle" x="68.5" y="-27.9" font-family="Ubuntu Mono" font-size="12.00">messages::print_ar_2</text>
</g>
<!-- Node487 -->
<g id="node2" class="node"><title>Node487</title>
<g id="a_node2"><a xlink:href="namespacemessages.html#a5686118397930f505259225f3688216b" target="_top" xlink:title="messages::print_ar_1">
<polygon fill="white" stroke="black" points="173,-20.5 173,-41.5 310,-41.5 310,-20.5 173,-20.5"/>
<text text-anchor="middle" x="241.5" y="-27.9" font-family="Ubuntu Mono" font-size="12.00">messages::print_ar_1</text>
</a>
</g>
</g>
<!-- Node486&#45;&gt;Node487 -->
<g id="edge1" class="edge"><title>Node486&#45;&gt;Node487</title>
<path fill="none" stroke="midnightblue" d="M137.084,-31C145.538,-31 154.237,-31 162.83,-31"/>
<polygon fill="midnightblue" stroke="midnightblue" points="162.847,-34.5001 172.847,-31 162.847,-27.5001 162.847,-34.5001"/>
</g>
<!-- Node488 -->
<g id="node3" class="node"><title>Node488</title>
<g id="a_node3"><a xlink:href="namespacemessages.html#aa4a8d01563e92558e8a0875b075ec54c" target="_top" xlink:title="messages::writo">
<polygon fill="white" stroke="black" points="346,-20.5 346,-41.5 453,-41.5 453,-20.5 346,-20.5"/>
<text text-anchor="middle" x="399.5" y="-27.9" font-family="Ubuntu Mono" font-size="12.00">messages::writo</text>
</a>
</g>
</g>
<!-- Node487&#45;&gt;Node488 -->
<g id="edge2" class="edge"><title>Node487&#45;&gt;Node488</title>
<path fill="none" stroke="midnightblue" d="M310.017,-31C318.564,-31 327.282,-31 335.751,-31"/>
<polygon fill="midnightblue" stroke="midnightblue" points="335.929,-34.5001 345.928,-31 335.928,-27.5001 335.929,-34.5001"/>
</g>
<!-- Node489 -->
<g id="node4" class="node"><title>Node489</title>
<g id="a_node4"><a xlink:href="namespacemessages.html#a82dddaab795b78b3d39e1ff1aab2f665" target="_top" xlink:title="messages::get_mem_usage">
<polygon fill="white" stroke="black" points="489,-40.5 489,-61.5 644,-61.5 644,-40.5 489,-40.5"/>
<text text-anchor="middle" x="566.5" y="-47.9" font-family="Ubuntu Mono" font-size="12.00">messages::get_mem_usage</text>
</a>
</g>
</g>
<!-- Node488&#45;&gt;Node489 -->
<g id="edge3" class="edge"><title>Node488&#45;&gt;Node489</title>
<path fill="none" stroke="midnightblue" d="M453.161,-37.3831C461.452,-38.3881 470.208,-39.4495 479.025,-40.5182"/>
<polygon fill="midnightblue" stroke="midnightblue" points="478.635,-43.9965 488.984,-41.7253 479.478,-37.0474 478.635,-43.9965"/>
</g>
<!-- Node490 -->
<g id="node5" class="node"><title>Node490</title>
<g id="a_node5"><a xlink:href="messages_8f90.html#a6d15f28783f95a7a4b2a44185619792f" target="_top" xlink:title="format_str">
<polygon fill="white" stroke="black" points="528,-0.5 528,-21.5 605,-21.5 605,-0.5 528,-0.5"/>
<text text-anchor="middle" x="566.5" y="-7.9" font-family="Ubuntu Mono" font-size="12.00">format_str</text>
</a>
</g>
</g>
<!-- Node488&#45;&gt;Node490 -->
<g id="edge4" class="edge"><title>Node488&#45;&gt;Node490</title>
<path fill="none" stroke="midnightblue" d="M453.161,-24.6169C473.977,-22.0937 497.722,-19.2155 518.002,-16.7573"/>
<polygon fill="midnightblue" stroke="midnightblue" points="518.448,-20.229 527.954,-15.551 517.606,-13.2798 518.448,-20.229"/>
</g>
<!-- Node491 -->
<g id="node6" class="node"><title>Node491</title>
<g id="a_node6"><a xlink:href="namespacemessages.html#a61fd0b51b5e37d58fdc993c01792a3fd" target="_top" xlink:title="messages::get_clock">
<polygon fill="white" stroke="black" points="680,-0.5 680,-21.5 811,-21.5 811,-0.5 680,-0.5"/>
<text text-anchor="middle" x="745.5" y="-7.9" font-family="Ubuntu Mono" font-size="12.00">messages::get_clock</text>
</a>
</g>
</g>
<!-- Node490&#45;&gt;Node491 -->
<g id="edge5" class="edge"><title>Node490&#45;&gt;Node491</title>
<path fill="none" stroke="midnightblue" d="M605.037,-11C623.869,-11 647.372,-11 669.685,-11"/>
<polygon fill="midnightblue" stroke="midnightblue" points="669.832,-14.5001 679.832,-11 669.832,-7.5001 669.832,-14.5001"/>
</g>
</g>
</svg>
