<?xml version="1.0" encoding="UTF-8" standalone="no"?>
<!DOCTYPE svg PUBLIC "-//W3C//DTD SVG 1.1//EN"
 "http://www.w3.org/Graphics/SVG/1.1/DTD/svg11.dtd">
<!-- Generated by graphviz version 2.43.0 (0)
 -->
<!-- Title: mpi_ops::sudden_stop Pages: 1 -->
<svg width="883pt" height="246pt"
 viewBox="0.00 0.00 883.00 245.58" xmlns="http://www.w3.org/2000/svg" xmlns:xlink="http://www.w3.org/1999/xlink">
<g id="graph0" class="graph" transform="scale(1 1) rotate(0) translate(4 241.58)">
<title>mpi_ops::sudden_stop</title>
<polygon fill="white" stroke="transparent" points="-4,4 -4,-241.58 879,-241.58 879,4 -4,4"/>
<!-- Node1 -->
<g id="node1" class="node">
<title>Node1</title>
<g id="a_node1"><a xlink:title="Suddenly stops the computations, aborting MPI, etc.">
<polygon fill="#bfbfbf" stroke="black" points="0,-138.08 0,-159.08 149,-159.08 149,-138.08 0,-138.08"/>
<text text-anchor="middle" x="74.5" y="-145.48" font-family="Ubuntu Mono" font-size="12.00">mpi_ops::sudden_stop</text>
</a>
</g>
</g>
<!-- Node2 -->
<g id="node2" class="node">
<title>Node2</title>
<g id="a_node2"><a xlink:href="namespacempi__ops.html#a54d9258ef985728345579e8e57dc8dfe" target="_top" xlink:title="Abort MPI suddenly.">
<polygon fill="white" stroke="black" points="185,-216.08 185,-237.08 319,-237.08 319,-216.08 185,-216.08"/>
<text text-anchor="middle" x="252" y="-223.48" font-family="Ubuntu Mono" font-size="12.00">mpi_ops::abort_mpi</text>
</a>
</g>
</g>
<!-- Node1&#45;&gt;Node2 -->
<g id="edge1" class="edge">
<title>Node1&#45;&gt;Node2</title>
<path fill="none" stroke="midnightblue" d="M95.83,-159.09C117.63,-170.2 153.38,-187.97 185,-201.58 193.68,-205.31 203.12,-209.06 212.07,-212.49"/>
<polygon fill="midnightblue" stroke="midnightblue" points="210.94,-215.8 221.54,-216.05 213.41,-209.25 210.94,-215.8"/>
</g>
<!-- Node3 -->
<g id="node3" class="node">
<title>Node3</title>
<g id="a_node3"><a xlink:href="namespacestr__utilities.html#a0b97e51770725a3e98ed393d26681414" target="_top" xlink:title="Convert an integer to string.">
<polygon fill="white" stroke="black" points="726.5,-100.08 726.5,-121.08 840.5,-121.08 840.5,-100.08 726.5,-100.08"/>
<text text-anchor="middle" x="783.5" y="-107.48" font-family="Ubuntu Mono" font-size="12.00">str_utilities::i2str</text>
</a>
</g>
</g>
<!-- Node1&#45;&gt;Node3 -->
<g id="edge2" class="edge">
<title>Node1&#45;&gt;Node3</title>
<path fill="none" stroke="midnightblue" d="M149.03,-158.92C161.03,-160.34 173.35,-161.63 185,-162.58 327.22,-174.15 364.07,-183.3 506,-168.58 587.29,-160.14 679.9,-138.11 734.66,-123.76"/>
<polygon fill="midnightblue" stroke="midnightblue" points="735.66,-127.12 744.43,-121.18 733.87,-120.35 735.66,-127.12"/>
</g>
<!-- Node4 -->
<g id="node4" class="node">
<title>Node4</title>
<g id="a_node4"><a xlink:href="namespacemessages.html#a6e6bfb084063e4cc91ee86e542043302" target="_top" xlink:title="Increases/decreases lvl of output.">
<polygon fill="white" stroke="black" points="371.5,-138.08 371.5,-159.08 489.5,-159.08 489.5,-138.08 371.5,-138.08"/>
<text text-anchor="middle" x="430.5" y="-145.48" font-family="Ubuntu Mono" font-size="12.00">messages::lvl_ud</text>
</a>
</g>
</g>
<!-- Node1&#45;&gt;Node4 -->
<g id="edge3" class="edge">
<title>Node1&#45;&gt;Node4</title>
<path fill="none" stroke="midnightblue" d="M149.28,-148.58C211.63,-148.58 300.24,-148.58 361.04,-148.58"/>
<polygon fill="midnightblue" stroke="midnightblue" points="361.3,-152.08 371.3,-148.58 361.3,-145.08 361.3,-152.08"/>
</g>
<!-- Node5 -->
<g id="node5" class="node">
<title>Node5</title>
<g id="a_node5"><a xlink:href="namespacemessages.html#aa4a8d01563e92558e8a0875b075ec54c" target="_top" xlink:title="Write output to file identified by output_i.">
<polygon fill="white" stroke="black" points="542,-60.08 542,-81.08 656,-81.08 656,-60.08 542,-60.08"/>
<text text-anchor="middle" x="599" y="-67.48" font-family="Ubuntu Mono" font-size="12.00">messages::writo</text>
</a>
</g>
</g>
<!-- Node1&#45;&gt;Node5 -->
<g id="edge13" class="edge">
<title>Node1&#45;&gt;Node5</title>
<path fill="none" stroke="midnightblue" d="M90.59,-137.93C131.01,-110.16 246.07,-36.09 355,-12.58 420.6,1.59 441.53,6.05 506,-12.58 533.59,-20.55 560.88,-39.52 578.48,-53.61"/>
<polygon fill="midnightblue" stroke="midnightblue" points="576.36,-56.4 586.3,-60.06 580.81,-51 576.36,-56.4"/>
</g>
<!-- Node8 -->
<g id="node8" class="node">
<title>Node8</title>
<g id="a_node8"><a xlink:href="namespacempi__ops.html#a9dcb5624e665c9e15a4203edb5f44b0f" target="_top" xlink:title="Stop MPI.">
<polygon fill="white" stroke="black" points="188,-99.08 188,-120.08 316,-120.08 316,-99.08 188,-99.08"/>
<text text-anchor="middle" x="252" y="-106.48" font-family="Ubuntu Mono" font-size="12.00">mpi_ops::stop_mpi</text>
</a>
</g>
</g>
<!-- Node1&#45;&gt;Node8 -->
<g id="edge8" class="edge">
<title>Node1&#45;&gt;Node8</title>
<path fill="none" stroke="midnightblue" d="M122.99,-138.02C144.75,-133.19 170.71,-127.42 193.56,-122.34"/>
<polygon fill="midnightblue" stroke="midnightblue" points="194.47,-125.72 203.47,-120.14 192.95,-118.89 194.47,-125.72"/>
</g>
<!-- Node4&#45;&gt;Node5 -->
<g id="edge4" class="edge">
<title>Node4&#45;&gt;Node5</title>
<path fill="none" stroke="midnightblue" d="M453.95,-138.06C482.88,-124.51 533.33,-100.87 566.19,-85.48"/>
<polygon fill="midnightblue" stroke="midnightblue" points="567.8,-88.59 575.37,-81.18 564.83,-82.25 567.8,-88.59"/>
</g>
<!-- Node5&#45;&gt;Node3 -->
<g id="edge7" class="edge">
<title>Node5&#45;&gt;Node3</title>
<path fill="none" stroke="midnightblue" d="M647.95,-81.09C671.43,-86.23 699.9,-92.47 724.59,-97.88"/>
<polygon fill="midnightblue" stroke="midnightblue" points="724.04,-101.34 734.55,-100.07 725.54,-94.51 724.04,-101.34"/>
</g>
<!-- Node6 -->
<g id="node6" class="node">
<title>Node6</title>
<g id="a_node6"><a xlink:href="namespacemessages.html#a61fd0b51b5e37d58fdc993c01792a3fd" target="_top" xlink:title="Returns the time.">
<polygon fill="white" stroke="black" points="713.5,-60.08 713.5,-81.08 853.5,-81.08 853.5,-60.08 713.5,-60.08"/>
<text text-anchor="middle" x="783.5" y="-67.48" font-family="Ubuntu Mono" font-size="12.00">messages::get_clock</text>
</a>
</g>
</g>
<!-- Node5&#45;&gt;Node6 -->
<g id="edge5" class="edge">
<title>Node5&#45;&gt;Node6</title>
<path fill="none" stroke="midnightblue" d="M656.25,-70.58C671.02,-70.58 687.24,-70.58 702.99,-70.58"/>
<polygon fill="midnightblue" stroke="midnightblue" points="703.25,-74.08 713.25,-70.58 703.25,-67.08 703.25,-74.08"/>
</g>
<!-- Node7 -->
<g id="node7" class="node">
<title>Node7</title>
<g id="a_node7"><a xlink:href="namespacemessages.html#a82dddaab795b78b3d39e1ff1aab2f665" target="_top" xlink:title="Returns the memory usage in kilobytes.">
<polygon fill="white" stroke="black" points="692,-20.08 692,-41.08 875,-41.08 875,-20.08 692,-20.08"/>
<text text-anchor="middle" x="783.5" y="-27.48" font-family="Ubuntu Mono" font-size="12.00">messages::get_mem_usage</text>
</a>
</g>
</g>
<!-- Node5&#45;&gt;Node7 -->
<g id="edge6" class="edge">
<title>Node5&#45;&gt;Node7</title>
<path fill="none" stroke="midnightblue" d="M647.95,-60.07C671.43,-54.92 699.9,-48.68 724.59,-43.27"/>
<polygon fill="midnightblue" stroke="midnightblue" points="725.54,-46.64 734.55,-41.08 724.04,-39.81 725.54,-46.64"/>
</g>
<!-- Node8&#45;&gt;Node3 -->
<g id="edge10" class="edge">
<title>Node8&#45;&gt;Node3</title>
<path fill="none" stroke="midnightblue" d="M316.08,-109.69C416.83,-109.88 613.14,-110.26 716,-110.45"/>
<polygon fill="midnightblue" stroke="midnightblue" points="716.25,-113.95 726.26,-110.47 716.27,-106.95 716.25,-113.95"/>
</g>
<!-- Node8&#45;&gt;Node4 -->
<g id="edge11" class="edge">
<title>Node8&#45;&gt;Node4</title>
<path fill="none" stroke="midnightblue" d="M300.76,-120.13C322.64,-124.96 348.76,-130.73 371.73,-135.81"/>
<polygon fill="midnightblue" stroke="midnightblue" points="371.18,-139.27 381.7,-138.01 372.69,-132.44 371.18,-139.27"/>
</g>
<!-- Node8&#45;&gt;Node5 -->
<g id="edge12" class="edge">
<title>Node8&#45;&gt;Node5</title>
<path fill="none" stroke="midnightblue" d="M316.07,-100.58C328.94,-98.84 342.4,-97.09 355,-95.58 414.75,-88.4 482.93,-81.5 531.83,-76.77"/>
<polygon fill="midnightblue" stroke="midnightblue" points="532.34,-80.24 541.96,-75.8 531.67,-73.27 532.34,-80.24"/>
</g>
<!-- Node9 -->
<g id="node9" class="node">
<title>Node9</title>
<g id="a_node9"><a xlink:href="namespacempi__vars.html#af03c942b5f1c980adf9e1b2ba3f4bd58" target="_top" xlink:title="Deallocates a lock.">
<polygon fill="white" stroke="black" points="355,-22.08 355,-43.08 506,-43.08 506,-22.08 355,-22.08"/>
<text text-anchor="middle" x="430.5" y="-29.48" font-family="Ubuntu Mono" font-size="12.00">mpi_vars::dealloc_lock</text>
</a>
</g>
</g>
<!-- Node8&#45;&gt;Node9 -->
<g id="edge9" class="edge">
<title>Node8&#45;&gt;Node9</title>
<path fill="none" stroke="midnightblue" d="M271.78,-98.94C291.94,-87.77 325.13,-70.12 355,-57.58 364.53,-53.57 374.94,-49.75 384.88,-46.35"/>
<polygon fill="midnightblue" stroke="midnightblue" points="386.23,-49.59 394.61,-43.1 384.02,-42.95 386.23,-49.59"/>
</g>
</g>
</svg>
