<?xml version="1.0" encoding="UTF-8" standalone="no"?>
<!DOCTYPE svg PUBLIC "-//W3C//DTD SVG 1.1//EN"
 "http://www.w3.org/Graphics/SVG/1.1/DTD/svg11.dtd">
<!-- Generated by graphviz version 2.38.0 (20140413.2041)
 -->
<!-- Title: messages::stop_time Pages: 1 -->
<svg width="1279pt" height="1356pt"
 viewBox="0.00 0.00 1279.00 1355.89" xmlns="http://www.w3.org/2000/svg" xmlns:xlink="http://www.w3.org/1999/xlink">
<g id="graph0" class="graph" transform="scale(1 1) rotate(0) translate(4 1351.89)">
<title>messages::stop_time</title>
<polygon fill="white" stroke="none" points="-4,4 -4,-1351.89 1275,-1351.89 1275,4 -4,4"/>
<!-- Node630 -->
<g id="node1" class="node"><title>Node630</title>
<polygon fill="#bfbfbf" stroke="black" points="0,-577.5 0,-598.5 131,-598.5 131,-577.5 0,-577.5"/>
<text text-anchor="middle" x="65.5" y="-584.9" font-family="Ubuntu Mono" font-size="12.00">messages::stop_time</text>
</g>
<!-- Node631 -->
<g id="node2" class="node"><title>Node631</title>
<g id="a_node2"><a xlink:href="namespaceinput__utilities.html#ad9ce824c30b32041ab70f3fb191f06db" target="_top" xlink:title="Queries for a logical value yes or no, where the default answer is also to be provided. ">
<polygon fill="white" stroke="black" points="176,-807.5 176,-828.5 337,-828.5 337,-807.5 176,-807.5"/>
<text text-anchor="middle" x="256.5" y="-814.9" font-family="Ubuntu Mono" font-size="12.00">input_utilities::get_log</text>
</a>
</g>
</g>
<!-- Node630&#45;&gt;Node631 -->
<g id="edge1" class="edge"><title>Node630&#45;&gt;Node631</title>
<path fill="none" stroke="midnightblue" d="M81.9318,-606.779C119.888,-652.969 216.861,-770.979 246.657,-807.238"/>
<polygon fill="midnightblue" stroke="midnightblue" points="84.4154,-604.289 75.3624,-598.785 79.0071,-608.733 84.4154,-604.289"/>
</g>
<!-- Node633 -->
<g id="node4" class="node"><title>Node633</title>
<g id="a_node4"><a xlink:href="PB3D_8f90.html#afaee01f014ab3398eecac996b2795fd2" target="_top" xlink:title="Peeling Ballooning in 3D. ">
<polygon fill="white" stroke="black" points="1230,-538.5 1230,-559.5 1271,-559.5 1271,-538.5 1230,-538.5"/>
<text text-anchor="middle" x="1250.5" y="-545.9" font-family="Ubuntu Mono" font-size="12.00">pb3d</text>
</a>
</g>
</g>
<!-- Node630&#45;&gt;Node633 -->
<g id="edge75" class="edge"><title>Node630&#45;&gt;Node633</title>
<path fill="none" stroke="midnightblue" d="M69.9194,-567.377C88.4668,-463.226 186.741,-0 467.5,-0 467.5,-0 467.5,-0 893.5,-0 1084.43,-0 1102.45,-139.45 1194,-307 1238.23,-387.949 1247.3,-502.669 1249.08,-538.133"/>
<polygon fill="midnightblue" stroke="midnightblue" points="66.4601,-566.842 68.2045,-577.292 73.3577,-568.035 66.4601,-566.842"/>
</g>
<!-- Node640 -->
<g id="node11" class="node"><title>Node640</title>
<g id="a_node11"><a xlink:href="POST_8f90.html#ac289b64ac4671fea0b4f2298ba1188a1" target="_top" xlink:title="Peeling Ballooning in 3D: postprocessing. ">
<polygon fill="white" stroke="black" points="1087,-1024.5 1087,-1045.5 1128,-1045.5 1128,-1024.5 1087,-1024.5"/>
<text text-anchor="middle" x="1107.5" y="-1031.9" font-family="Ubuntu Mono" font-size="12.00">post</text>
</a>
</g>
</g>
<!-- Node630&#45;&gt;Node640 -->
<g id="edge76" class="edge"><title>Node630&#45;&gt;Node640</title>
<path fill="none" stroke="midnightblue" d="M69.0798,-608.835C81.7959,-701.308 146.982,-1076.02 382,-1212 618.296,-1348.72 739.752,-1214.92 985,-1095 1020.93,-1077.43 1062.72,-1056.74 1086.74,-1044.82"/>
<polygon fill="midnightblue" stroke="midnightblue" points="72.5306,-608.232 67.754,-598.775 65.5906,-609.147 72.5306,-608.232"/>
</g>
<!-- Node655 -->
<g id="node26" class="node"><title>Node655</title>
<g id="a_node26"><a xlink:href="namespaceinput__utilities.html#a41fc0c806e12bc722771210cfa1edbd3" target="_top" xlink:title="Queries for user input for a real value, where allowable range can be provided as well...">
<polygon fill="white" stroke="black" points="173,-289.5 173,-310.5 340,-310.5 340,-289.5 173,-289.5"/>
<text text-anchor="middle" x="256.5" y="-296.9" font-family="Ubuntu Mono" font-size="12.00">input_utilities::get_real</text>
</a>
</g>
</g>
<!-- Node630&#45;&gt;Node655 -->
<g id="edge38" class="edge"><title>Node630&#45;&gt;Node655</title>
<path fill="none" stroke="midnightblue" d="M69.3844,-567.283C76.9413,-520.408 101.468,-405.08 167,-338 179.503,-325.202 197.015,-316.464 213.164,-310.627"/>
<polygon fill="midnightblue" stroke="midnightblue" points="65.8867,-567.005 67.8478,-577.417 72.8076,-568.055 65.8867,-567.005"/>
</g>
<!-- Node656 -->
<g id="node27" class="node"><title>Node656</title>
<g id="a_node27"><a xlink:href="namespaceinput__utilities.html#a03e09af96ba6f7e187ea4a1d9b743148" target="_top" xlink:title="Queries for user input for an integer value, where allowable range can be provided as well...">
<polygon fill="white" stroke="black" points="176,-577.5 176,-598.5 337,-598.5 337,-577.5 176,-577.5"/>
<text text-anchor="middle" x="256.5" y="-584.9" font-family="Ubuntu Mono" font-size="12.00">input_utilities::get_int</text>
</a>
</g>
</g>
<!-- Node630&#45;&gt;Node656 -->
<g id="edge46" class="edge"><title>Node630&#45;&gt;Node656</title>
<path fill="none" stroke="midnightblue" d="M141.317,-588C152.678,-588 164.437,-588 175.896,-588"/>
<polygon fill="midnightblue" stroke="midnightblue" points="141.014,-584.5 131.014,-588 141.014,-591.5 141.014,-584.5"/>
</g>
<!-- Node658 -->
<g id="node29" class="node"><title>Node658</title>
<g id="a_node29"><a xlink:href="namespaceinput__utilities.html#a71bd36f063d55ab62c7a37864aef1185" target="_top" xlink:title="Pauses the running of the program. ">
<polygon fill="white" stroke="black" points="167,-347.5 167,-368.5 346,-368.5 346,-347.5 167,-347.5"/>
<text text-anchor="middle" x="256.5" y="-354.9" font-family="Ubuntu Mono" font-size="12.00">input_utilities::pause_prog</text>
</a>
</g>
</g>
<!-- Node630&#45;&gt;Node658 -->
<g id="edge58" class="edge"><title>Node630&#45;&gt;Node658</title>
<path fill="none" stroke="midnightblue" d="M81.9318,-569.221C119.888,-523.031 216.861,-405.021 246.657,-368.762"/>
<polygon fill="midnightblue" stroke="midnightblue" points="79.0071,-567.267 75.3624,-577.215 84.4154,-571.711 79.0071,-567.267"/>
</g>
<!-- Node662 -->
<g id="node33" class="node"><title>Node662</title>
<g id="a_node33"><a xlink:href="namespacemessages.html#a34da9df28502ccd63e62674d51fe8de8" target="_top" xlink:title="Display the time that has passed between t1 and t2. ">
<polygon fill="white" stroke="black" points="821,-1259.5 821,-1280.5 964,-1280.5 964,-1259.5 821,-1259.5"/>
<text text-anchor="middle" x="892.5" y="-1266.9" font-family="Ubuntu Mono" font-size="12.00">messages::passed_time</text>
</a>
</g>
</g>
<!-- Node630&#45;&gt;Node662 -->
<g id="edge72" class="edge"><title>Node630&#45;&gt;Node662</title>
<path fill="none" stroke="midnightblue" d="M66.2962,-609.037C65.7814,-711.756 69.2391,-1159.18 167,-1246 372.14,-1428.17 753.278,-1317.49 861.909,-1280.61"/>
<polygon fill="midnightblue" stroke="midnightblue" points="69.7981,-608.761 66.3683,-598.737 62.7983,-608.712 69.7981,-608.761"/>
</g>
<!-- Node632 -->
<g id="node3" class="node"><title>Node632</title>
<g id="a_node3"><a xlink:href="namespacedriver__eq.html#adc9d5dff288fa512e5ef885627d940cc" target="_top" xlink:title="Main driver of PB3D equilibrium part. ">
<polygon fill="white" stroke="black" points="812,-1064.5 812,-1085.5 973,-1085.5 973,-1064.5 812,-1064.5"/>
<text text-anchor="middle" x="892.5" y="-1071.9" font-family="Ubuntu Mono" font-size="12.00">driver_eq::run_driver_eq</text>
</a>
</g>
</g>
<!-- Node631&#45;&gt;Node632 -->
<g id="edge2" class="edge"><title>Node631&#45;&gt;Node632</title>
<path fill="none" stroke="midnightblue" d="M258.9,-838.597C263.923,-894.243 286.266,-1047.66 382,-1111 541.002,-1216.2 792.3,-1119.3 868.715,-1085.57"/>
<polygon fill="midnightblue" stroke="midnightblue" points="262.382,-838.236 258.09,-828.549 255.405,-838.798 262.382,-838.236"/>
</g>
<!-- Node634 -->
<g id="node5" class="node"><title>Node634</title>
<g id="a_node5"><a xlink:href="namespacedriver__x.html#a454779cefa6da3714d32eedcec0ef7de" target="_top" xlink:title="Part 1 of driver_x: Vectorial jobs. ">
<polygon fill="white" stroke="black" points="388,-518.5 388,-539.5 549,-539.5 549,-518.5 388,-518.5"/>
<text text-anchor="middle" x="468.5" y="-525.9" font-family="Ubuntu Mono" font-size="12.00">driver_x::run_driver_x_1</text>
</a>
</g>
</g>
<!-- Node631&#45;&gt;Node634 -->
<g id="edge4" class="edge"><title>Node631&#45;&gt;Node634</title>
<path fill="none" stroke="midnightblue" d="M265.63,-797.841C289.813,-738.277 360.922,-566.169 382,-549 386.61,-545.245 391.799,-542.17 397.285,-539.655"/>
<polygon fill="midnightblue" stroke="midnightblue" points="262.311,-796.712 261.802,-807.295 268.799,-799.339 262.311,-796.712"/>
</g>
<!-- Node636 -->
<g id="node7" class="node"><title>Node636</title>
<g id="a_node7"><a xlink:href="interfaceeq__ops_1_1calc__eq.html#ae2f56ab19ce5c33e863f32e1c9263604" target="_top" xlink:title="metric version ">
<polygon fill="white" stroke="black" points="591,-417.5 591,-438.5 764,-438.5 764,-417.5 591,-417.5"/>
<text text-anchor="middle" x="677.5" y="-424.9" font-family="Ubuntu Mono" font-size="12.00">eq_ops::calc_eq::calc_eq_2</text>
</a>
</g>
</g>
<!-- Node631&#45;&gt;Node636 -->
<g id="edge7" class="edge"><title>Node631&#45;&gt;Node636</title>
<path fill="none" stroke="midnightblue" d="M347.386,-822.404C423.735,-824.107 525.497,-820.893 555,-794 623.689,-731.388 560.716,-675.871 591,-588 611.627,-528.149 652.571,-463.648 669.213,-438.695"/>
<polygon fill="midnightblue" stroke="midnightblue" points="347.35,-818.902 337.264,-822.147 347.172,-825.9 347.35,-818.902"/>
</g>
<!-- Node637 -->
<g id="node8" class="node"><title>Node637</title>
<g id="a_node8"><a xlink:href="namespaceeq__ops.html#a9addef683b3d4a8c587510e4c994ec61" target="_top" xlink:title="Creates a VMEC input file. ">
<polygon fill="white" stroke="black" points="403,-387 403,-421 534,-421 534,-387 403,-387"/>
<text text-anchor="start" x="411" y="-407.4" font-family="Ubuntu Mono" font-size="12.00">eq_ops::create_vmec</text>
<text text-anchor="middle" x="468.5" y="-394.4" font-family="Ubuntu Mono" font-size="12.00">_input</text>
</a>
</g>
</g>
<!-- Node631&#45;&gt;Node637 -->
<g id="edge8" class="edge"><title>Node631&#45;&gt;Node637</title>
<path fill="none" stroke="midnightblue" d="M267.393,-798.246C285.389,-761.594 323.682,-680.212 346,-608 369.704,-531.302 328.299,-490.671 382,-431 387.727,-424.636 394.94,-419.76 402.736,-416.027"/>
<polygon fill="midnightblue" stroke="midnightblue" points="264.184,-796.838 262.885,-807.352 270.458,-799.943 264.184,-796.838"/>
</g>
<!-- Node638 -->
<g id="node9" class="node"><title>Node638</title>
<g id="a_node9"><a xlink:href="namespaceeq__ops.html#a6a073d160b1e0918ea4cde3b439a2277" target="_top" xlink:title="Plots the curvature. ">
<polygon fill="white" stroke="black" points="615,-1064.5 615,-1085.5 740,-1085.5 740,-1064.5 615,-1064.5"/>
<text text-anchor="middle" x="677.5" y="-1071.9" font-family="Ubuntu Mono" font-size="12.00">eq_ops::kappa_plot</text>
</a>
</g>
</g>
<!-- Node631&#45;&gt;Node638 -->
<g id="edge10" class="edge"><title>Node631&#45;&gt;Node638</title>
<path fill="none" stroke="midnightblue" d="M259.913,-838.665C267.218,-890.598 294.283,-1026.38 382,-1082 465.578,-1134.99 591.064,-1103.88 647.355,-1085.52"/>
<polygon fill="midnightblue" stroke="midnightblue" points="263.371,-838.116 258.608,-828.652 256.43,-839.021 263.371,-838.116"/>
</g>
<!-- Node641 -->
<g id="node12" class="node"><title>Node641</title>
<g id="a_node12"><a xlink:href="interfaceeq__ops_1_1calc__t__hf.html#a603859a698b8288ea62ee6a77f9fc2ca" target="_top" xlink:title="array version ">
<polygon fill="white" stroke="black" points="403,-1039 403,-1073 534,-1073 534,-1039 403,-1039"/>
<text text-anchor="start" x="411" y="-1059.4" font-family="Ubuntu Mono" font-size="12.00">eq_ops::calc_t_hf::</text>
<text text-anchor="middle" x="468.5" y="-1046.4" font-family="Ubuntu Mono" font-size="12.00">calc_t_hf_arr</text>
</a>
</g>
</g>
<!-- Node631&#45;&gt;Node641 -->
<g id="edge14" class="edge"><title>Node631&#45;&gt;Node641</title>
<path fill="none" stroke="midnightblue" d="M264.533,-838.32C279.666,-879.178 319.122,-971.824 382,-1024 389.196,-1029.97 397.617,-1034.89 406.315,-1038.92"/>
<polygon fill="midnightblue" stroke="midnightblue" points="267.741,-836.896 261.06,-828.673 261.155,-839.267 267.741,-836.896"/>
</g>
<!-- Node642 -->
<g id="node13" class="node"><title>Node642</title>
<g id="a_node13"><a xlink:href="namespaceslepc__ops.html#a79c420987056c225931b51c8d30ece1f" target="_top" xlink:title="Solve the eigenvalue system using SLEPC. ">
<polygon fill="white" stroke="black" points="827,-145 827,-179 958,-179 958,-145 827,-145"/>
<text text-anchor="start" x="835" y="-165.4" font-family="Ubuntu Mono" font-size="12.00">slepc_ops::solve_ev</text>
<text text-anchor="middle" x="892.5" y="-152.4" font-family="Ubuntu Mono" font-size="12.00">_system_slepc</text>
</a>
</g>
</g>
<!-- Node631&#45;&gt;Node642 -->
<g id="edge15" class="edge"><title>Node631&#45;&gt;Node642</title>
<path fill="none" stroke="midnightblue" d="M288.569,-832.653C313.266,-843.451 349.024,-857.223 382,-863 457.736,-876.267 482.029,-887.23 555,-863 665.005,-826.472 703.711,-805.999 764,-707 814.849,-623.502 778.835,-585.444 800,-490 826.686,-369.661 870.598,-227.769 885.975,-179.257"/>
<polygon fill="midnightblue" stroke="midnightblue" points="289.909,-829.418 279.351,-828.535 287.054,-835.809 289.909,-829.418"/>
</g>
<!-- Node644 -->
<g id="node15" class="node"><title>Node644</title>
<g id="a_node15"><a xlink:href="namespaceslepc__ops.html#aac8202cb74cbb06013eb73f1fa0c3118" target="_top" xlink:title="Sets up the matrices &#160;and &#160;in the EV problem . ">
<polygon fill="white" stroke="black" points="606,-151.5 606,-172.5 749,-172.5 749,-151.5 606,-151.5"/>
<text text-anchor="middle" x="677.5" y="-158.9" font-family="Ubuntu Mono" font-size="12.00">slepc_ops::setup_mats</text>
</a>
</g>
</g>
<!-- Node631&#45;&gt;Node644 -->
<g id="edge18" class="edge"><title>Node631&#45;&gt;Node644</title>
<path fill="none" stroke="midnightblue" d="M321.775,-805.59C409.093,-788.714 554.503,-760.544 555,-760 608.024,-701.939 573.978,-484.766 591,-408 611.849,-313.977 657.193,-206.114 671.838,-172.532"/>
<polygon fill="midnightblue" stroke="midnightblue" points="321.105,-802.155 311.95,-807.489 322.433,-809.028 321.105,-802.155"/>
</g>
<!-- Node645 -->
<g id="node16" class="node"><title>Node645</title>
<g id="a_node16"><a xlink:href="namespacetest.html#aca21ee464c0b1f4b617177afdde110ec" target="_top" xlink:title="Performs generic tests. ">
<polygon fill="white" stroke="black" points="827,-802.5 827,-823.5 958,-823.5 958,-802.5 827,-802.5"/>
<text text-anchor="middle" x="892.5" y="-809.9" font-family="Ubuntu Mono" font-size="12.00">test::generic_tests</text>
</a>
</g>
</g>
<!-- Node631&#45;&gt;Node645 -->
<g id="edge20" class="edge"><title>Node631&#45;&gt;Node645</title>
<path fill="none" stroke="midnightblue" d="M268.217,-837.534C286.669,-868.863 327.746,-929.231 382,-953 452.427,-983.854 478.958,-964.382 555,-953 651.076,-938.619 675.192,-928.377 764,-889 806.875,-869.99 853.23,-839.597 876.446,-823.614"/>
<polygon fill="midnightblue" stroke="midnightblue" points="271.232,-835.756 263.227,-828.816 265.157,-839.234 271.232,-835.756"/>
</g>
<!-- Node646 -->
<g id="node17" class="node"><title>Node646</title>
<g id="a_node17"><a xlink:href="namespacetest.html#a1c04fcea513c8c2efb189049d810318a" target="_top" xlink:title="Test calc_d2_smooth(). ">
<polygon fill="white" stroke="black" points="406,-717 406,-751 531,-751 531,-717 406,-717"/>
<text text-anchor="start" x="414" y="-737.4" font-family="Ubuntu Mono" font-size="12.00">test::test_calc_d2</text>
<text text-anchor="middle" x="468.5" y="-724.4" font-family="Ubuntu Mono" font-size="12.00">_smooth</text>
</a>
</g>
</g>
<!-- Node631&#45;&gt;Node646 -->
<g id="edge23" class="edge"><title>Node631&#45;&gt;Node646</title>
<path fill="none" stroke="midnightblue" d="M291.575,-803.362C316.518,-792.747 351.236,-778.177 382,-766 394.526,-761.042 408.16,-755.849 420.786,-751.123"/>
<polygon fill="midnightblue" stroke="midnightblue" points="290.016,-800.223 282.191,-807.366 292.762,-806.661 290.016,-800.223"/>
</g>
<!-- Node647 -->
<g id="node18" class="node"><title>Node647</title>
<g id="a_node18"><a xlink:href="namespacetest.html#a53c6b3d654d4577af301fe3b04473d6a" target="_top" xlink:title="Test spline(). ">
<polygon fill="white" stroke="black" points="615,-597.5 615,-618.5 740,-618.5 740,-597.5 615,-597.5"/>
<text text-anchor="middle" x="677.5" y="-604.9" font-family="Ubuntu Mono" font-size="12.00">test::test_splines</text>
</a>
</g>
</g>
<!-- Node631&#45;&gt;Node647 -->
<g id="edge25" class="edge"><title>Node631&#45;&gt;Node647</title>
<path fill="none" stroke="midnightblue" d="M290.541,-832.276C350.504,-855.714 478.134,-893.904 555,-832 613.458,-784.921 549.191,-729.336 591,-667 605.968,-644.683 632.477,-628.357 652.021,-618.609"/>
<polygon fill="midnightblue" stroke="midnightblue" points="291.76,-828.994 281.176,-828.519 289.154,-835.491 291.76,-828.994"/>
</g>
<!-- Node648 -->
<g id="node19" class="node"><title>Node648</title>
<g id="a_node19"><a xlink:href="test_8f90.html#a197914f99b7e194fb4bca9ca3669e0e8" target="_top" xlink:title="plot_y">
<polygon fill="white" stroke="black" points="442,-558.5 442,-579.5 495,-579.5 495,-558.5 442,-558.5"/>
<text text-anchor="middle" x="468.5" y="-565.9" font-family="Ubuntu Mono" font-size="12.00">plot_y</text>
</a>
</g>
</g>
<!-- Node631&#45;&gt;Node648 -->
<g id="edge27" class="edge"><title>Node631&#45;&gt;Node648</title>
<path fill="none" stroke="midnightblue" d="M266.984,-798.298C285.369,-761.514 328.771,-681.217 382,-627 401.477,-607.161 428.713,-590.083 447.171,-579.696"/>
<polygon fill="midnightblue" stroke="midnightblue" points="263.749,-796.943 262.474,-807.461 270.03,-800.034 263.749,-796.943"/>
</g>
<!-- Node649 -->
<g id="node20" class="node"><title>Node649</title>
<g id="a_node20"><a xlink:href="namespacetest.html#ab595ec935321ea0b1168593fb88fad22" target="_top" xlink:title="Test calculation of toroidal functions. ">
<polygon fill="white" stroke="black" points="406,-636.5 406,-657.5 531,-657.5 531,-636.5 406,-636.5"/>
<text text-anchor="middle" x="468.5" y="-643.9" font-family="Ubuntu Mono" font-size="12.00">test::test_tor_fun</text>
</a>
</g>
</g>
<!-- Node631&#45;&gt;Node649 -->
<g id="edge29" class="edge"><title>Node631&#45;&gt;Node649</title>
<path fill="none" stroke="midnightblue" d="M268.086,-798.143C286.608,-765.417 328.108,-700.453 382,-667 389.253,-662.498 397.424,-659.008 405.765,-656.304"/>
<polygon fill="midnightblue" stroke="midnightblue" points="264.858,-796.748 263.087,-807.194 270.986,-800.132 264.858,-796.748"/>
</g>
<!-- Node650 -->
<g id="node21" class="node"><title>Node650</title>
<g id="a_node21"><a xlink:href="namespacetest.html#a0d4cb791bf762b2e52260fea7644a3ee" target="_top" xlink:title="Tests calculation of volume integral. ">
<polygon fill="white" stroke="black" points="391,-922.5 391,-943.5 546,-943.5 546,-922.5 391,-922.5"/>
<text text-anchor="middle" x="468.5" y="-929.9" font-family="Ubuntu Mono" font-size="12.00">test::test_calc_int_vol</text>
</a>
</g>
</g>
<!-- Node631&#45;&gt;Node650 -->
<g id="edge31" class="edge"><title>Node631&#45;&gt;Node650</title>
<path fill="none" stroke="midnightblue" d="M277.117,-835.492C300.554,-855.57 341.677,-888.263 382,-908 394.085,-913.915 407.83,-918.697 420.712,-922.433"/>
<polygon fill="midnightblue" stroke="midnightblue" points="279.16,-832.631 269.316,-828.713 274.568,-837.915 279.16,-832.631"/>
</g>
<!-- Node651 -->
<g id="node22" class="node"><title>Node651</title>
<g id="a_node22"><a xlink:href="namespacevac__utilities.html#a8e7889688701f6ac2fd2c60cdee2b96a" target="_top" xlink:title="Copies vacuum variables of a previous level into the appropriate, interlaced place of a next level...">
<polygon fill="white" stroke="black" points="385,-1169 385,-1203 552,-1203 552,-1169 385,-1169"/>
<text text-anchor="start" x="393" y="-1189.4" font-family="Ubuntu Mono" font-size="12.00">vac_utilities::interlaced</text>
<text text-anchor="middle" x="468.5" y="-1176.4" font-family="Ubuntu Mono" font-size="12.00">_vac_copy</text>
</a>
</g>
</g>
<!-- Node631&#45;&gt;Node651 -->
<g id="edge33" class="edge"><title>Node631&#45;&gt;Node651</title>
<path fill="none" stroke="midnightblue" d="M259.303,-838.844C265.413,-896.88 290.393,-1062.09 382,-1154 388.042,-1160.06 395.339,-1164.99 403.093,-1168.99"/>
<polygon fill="midnightblue" stroke="midnightblue" points="262.77,-838.333 258.318,-828.719 255.803,-839.011 262.77,-838.333"/>
</g>
<!-- Node653 -->
<g id="node24" class="node"><title>Node653</title>
<g id="a_node24"><a xlink:href="namespacex__ops.html#a4e39701da15ff952add5133db1897b52" target="_top" xlink:title="Calculate , &#160;or , . ">
<polygon fill="white" stroke="black" points="421,-676.5 421,-697.5 516,-697.5 516,-676.5 421,-676.5"/>
<text text-anchor="middle" x="468.5" y="-683.9" font-family="Ubuntu Mono" font-size="12.00">x_ops::calc_u</text>
</a>
</g>
</g>
<!-- Node631&#45;&gt;Node653 -->
<g id="edge36" class="edge"><title>Node631&#45;&gt;Node653</title>
<path fill="none" stroke="midnightblue" d="M272.758,-799.557C294.413,-774.638 336.514,-730.62 382,-707 393.906,-700.818 407.729,-696.522 420.745,-693.547"/>
<polygon fill="midnightblue" stroke="midnightblue" points="270.05,-797.34 266.223,-807.219 275.376,-801.882 270.05,-797.34"/>
</g>
<!-- Node632&#45;&gt;Node633 -->
<g id="edge3" class="edge"><title>Node632&#45;&gt;Node633</title>
<path fill="none" stroke="midnightblue" d="M939.395,-1088.01C1005.25,-1103.57 1126.09,-1120.07 1194,-1055 1231.17,-1019.39 1246.65,-629.438 1249.14,-559.657"/>
<polygon fill="midnightblue" stroke="midnightblue" points="939.86,-1084.52 929.314,-1085.53 938.19,-1091.31 939.86,-1084.52"/>
</g>
<!-- Node635 -->
<g id="node6" class="node"><title>Node635</title>
<g id="a_node6"><a xlink:href="namespacedriver__x.html#ada3d72a0929daaa5e3da585246d62281" target="_top" xlink:title="Main driver of PB3D perturbation part. ">
<polygon fill="white" stroke="black" points="1033,-538.5 1033,-559.5 1182,-559.5 1182,-538.5 1033,-538.5"/>
<text text-anchor="middle" x="1107.5" y="-545.9" font-family="Ubuntu Mono" font-size="12.00">driver_x::run_driver_x</text>
</a>
</g>
</g>
<!-- Node634&#45;&gt;Node635 -->
<g id="edge5" class="edge"><title>Node634&#45;&gt;Node635</title>
<path fill="none" stroke="midnightblue" d="M559.28,-531.819C686.052,-535.799 915.135,-542.992 1032.63,-546.681"/>
<polygon fill="midnightblue" stroke="midnightblue" points="559.315,-528.318 549.21,-531.503 559.095,-535.315 559.315,-528.318"/>
</g>
<!-- Node635&#45;&gt;Node633 -->
<g id="edge6" class="edge"><title>Node635&#45;&gt;Node633</title>
<path fill="none" stroke="midnightblue" d="M1192.55,-549C1206.48,-549 1219.68,-549 1229.86,-549"/>
<polygon fill="midnightblue" stroke="midnightblue" points="1192.3,-545.5 1182.3,-549 1192.3,-552.5 1192.3,-545.5"/>
</g>
<!-- Node637&#45;&gt;Node636 -->
<g id="edge9" class="edge"><title>Node637&#45;&gt;Node636</title>
<path fill="none" stroke="midnightblue" d="M544.395,-412.683C559.427,-414.426 575.333,-416.27 590.702,-418.052"/>
<polygon fill="midnightblue" stroke="midnightblue" points="544.481,-409.17 534.145,-411.495 543.675,-416.124 544.481,-409.17"/>
</g>
<!-- Node638&#45;&gt;Node632 -->
<g id="edge11" class="edge"><title>Node638&#45;&gt;Node632</title>
<path fill="none" stroke="midnightblue" d="M750.263,-1075C770.026,-1075 791.582,-1075 811.765,-1075"/>
<polygon fill="midnightblue" stroke="midnightblue" points="750.108,-1071.5 740.108,-1075 750.108,-1078.5 750.108,-1071.5"/>
</g>
<!-- Node639 -->
<g id="node10" class="node"><title>Node639</title>
<g id="a_node10"><a xlink:href="namespacedriver__post.html#a33b3c6f9018a0ddc92dce77394b8ab37" target="_top" xlink:title="The main driver routine for postprocessing. ">
<polygon fill="white" stroke="black" points="800,-1024.5 800,-1045.5 985,-1045.5 985,-1024.5 800,-1024.5"/>
<text text-anchor="middle" x="892.5" y="-1031.9" font-family="Ubuntu Mono" font-size="12.00">driver_post::run_driver_post</text>
</a>
</g>
</g>
<!-- Node638&#45;&gt;Node639 -->
<g id="edge12" class="edge"><title>Node638&#45;&gt;Node639</title>
<path fill="none" stroke="midnightblue" d="M744.564,-1062.59C773.729,-1057.12 807.646,-1050.75 835.541,-1045.51"/>
<polygon fill="midnightblue" stroke="midnightblue" points="743.645,-1059.2 734.463,-1064.49 744.937,-1066.08 743.645,-1059.2"/>
</g>
<!-- Node639&#45;&gt;Node640 -->
<g id="edge13" class="edge"><title>Node639&#45;&gt;Node640</title>
<path fill="none" stroke="midnightblue" d="M995.327,-1035C1030.08,-1035 1065.51,-1035 1086.75,-1035"/>
<polygon fill="midnightblue" stroke="midnightblue" points="995.067,-1031.5 985.067,-1035 995.067,-1038.5 995.067,-1031.5"/>
</g>
<!-- Node643 -->
<g id="node14" class="node"><title>Node643</title>
<g id="a_node14"><a xlink:href="namespacedriver__sol.html#ad3b1765b3ecc5f82129bfc683ffc6c5c" target="_top" xlink:title="Main driver of PB3D solution part. ">
<polygon fill="white" stroke="black" points="1021,-316.5 1021,-337.5 1194,-337.5 1194,-316.5 1021,-316.5"/>
<text text-anchor="middle" x="1107.5" y="-323.9" font-family="Ubuntu Mono" font-size="12.00">driver_sol::run_driver_sol</text>
</a>
</g>
</g>
<!-- Node642&#45;&gt;Node643 -->
<g id="edge16" class="edge"><title>Node642&#45;&gt;Node643</title>
<path fill="none" stroke="midnightblue" d="M923.445,-185.197C970.223,-221.433 1058.79,-290.042 1092.76,-316.357"/>
<polygon fill="midnightblue" stroke="midnightblue" points="925.541,-182.394 915.492,-179.036 921.255,-187.927 925.541,-182.394"/>
</g>
<!-- Node643&#45;&gt;Node633 -->
<g id="edge17" class="edge"><title>Node643&#45;&gt;Node633</title>
<path fill="none" stroke="midnightblue" d="M1120.76,-346.31C1149.53,-391.6 1220.58,-503.464 1242.77,-538.4"/>
<polygon fill="midnightblue" stroke="midnightblue" points="1123.62,-344.272 1115.3,-337.708 1117.71,-348.025 1123.62,-344.272"/>
</g>
<!-- Node644&#45;&gt;Node642 -->
<g id="edge19" class="edge"><title>Node644&#45;&gt;Node642</title>
<path fill="none" stroke="midnightblue" d="M759.261,-162C781.591,-162 805.527,-162 826.813,-162"/>
<polygon fill="midnightblue" stroke="midnightblue" points="759.13,-158.5 749.13,-162 759.13,-165.5 759.13,-158.5"/>
</g>
<!-- Node645&#45;&gt;Node633 -->
<g id="edge21" class="edge"><title>Node645&#45;&gt;Node633</title>
<path fill="none" stroke="midnightblue" d="M916.144,-796.208C983.393,-746.337 1180.65,-600.054 1235.31,-559.52"/>
<polygon fill="midnightblue" stroke="midnightblue" points="913.844,-793.556 907.897,-802.324 918.014,-799.179 913.844,-793.556"/>
</g>
<!-- Node645&#45;&gt;Node640 -->
<g id="edge22" class="edge"><title>Node645&#45;&gt;Node640</title>
<path fill="none" stroke="midnightblue" d="M910.95,-831.187C953.68,-875.722 1062.53,-989.171 1096.33,-1024.4"/>
<polygon fill="midnightblue" stroke="midnightblue" points="913.222,-828.5 903.773,-823.708 908.171,-833.347 913.222,-828.5"/>
</g>
<!-- Node646&#45;&gt;Node645 -->
<g id="edge24" class="edge"><title>Node646&#45;&gt;Node645</title>
<path fill="none" stroke="midnightblue" d="M541.179,-747.419C624.245,-762.969 759.398,-788.27 835.258,-802.471"/>
<polygon fill="midnightblue" stroke="midnightblue" points="541.788,-743.972 531.314,-745.572 540.5,-750.852 541.788,-743.972"/>
</g>
<!-- Node647&#45;&gt;Node645 -->
<g id="edge26" class="edge"><title>Node647&#45;&gt;Node645</title>
<path fill="none" stroke="midnightblue" d="M744.387,-622.261C751.332,-625.201 758.027,-628.74 764,-633 829.477,-679.693 873.327,-770.905 886.972,-802.176"/>
<polygon fill="midnightblue" stroke="midnightblue" points="745.398,-618.901 734.807,-618.613 742.906,-625.443 745.398,-618.901"/>
</g>
<!-- Node648&#45;&gt;Node647 -->
<g id="edge28" class="edge"><title>Node648&#45;&gt;Node647</title>
<path fill="none" stroke="midnightblue" d="M505.459,-575.775C537.234,-581.761 584.085,-590.588 620.721,-597.491"/>
<polygon fill="midnightblue" stroke="midnightblue" points="505.773,-572.273 495.298,-573.861 504.477,-579.152 505.773,-572.273"/>
</g>
<!-- Node649&#45;&gt;Node645 -->
<g id="edge30" class="edge"><title>Node649&#45;&gt;Node645</title>
<path fill="none" stroke="midnightblue" d="M541.225,-637.09C603.434,-631.831 694.199,-632.385 764,-667 826.407,-697.949 871.253,-774.306 886.134,-802.402"/>
<polygon fill="midnightblue" stroke="midnightblue" points="540.749,-633.619 531.11,-638.017 541.388,-640.589 540.749,-633.619"/>
</g>
<!-- Node650&#45;&gt;Node645 -->
<g id="edge32" class="edge"><title>Node650&#45;&gt;Node645</title>
<path fill="none" stroke="midnightblue" d="M516.43,-919.655C601.036,-895.596 777.472,-845.425 854.353,-823.563"/>
<polygon fill="midnightblue" stroke="midnightblue" points="515.241,-916.354 506.58,-922.456 517.156,-923.087 515.241,-916.354"/>
</g>
<!-- Node652 -->
<g id="node23" class="node"><title>Node652</title>
<g id="a_node23"><a xlink:href="namespacevac__ops.html#a37220702fbf378626a0f2c12f446e0aa" target="_top" xlink:title="Stores calculation of the vacuum response by storing the necessary variables. ">
<polygon fill="white" stroke="black" points="615,-1171.5 615,-1192.5 740,-1192.5 740,-1171.5 615,-1171.5"/>
<text text-anchor="middle" x="677.5" y="-1178.9" font-family="Ubuntu Mono" font-size="12.00">vac_ops::store_vac</text>
</a>
</g>
</g>
<!-- Node651&#45;&gt;Node652 -->
<g id="edge34" class="edge"><title>Node651&#45;&gt;Node652</title>
<path fill="none" stroke="midnightblue" d="M562.593,-1184.2C580.346,-1183.86 598.512,-1183.51 614.972,-1183.19"/>
<polygon fill="midnightblue" stroke="midnightblue" points="562.135,-1180.71 552.204,-1184.4 562.27,-1187.71 562.135,-1180.71"/>
</g>
<!-- Node652&#45;&gt;Node632 -->
<g id="edge35" class="edge"><title>Node652&#45;&gt;Node632</title>
<path fill="none" stroke="midnightblue" d="M726.829,-1168.39C739.174,-1164.32 752.267,-1159.46 764,-1154 807.203,-1133.89 853.792,-1102.16 876.849,-1085.7"/>
<polygon fill="midnightblue" stroke="midnightblue" points="725.591,-1165.11 717.129,-1171.49 727.72,-1171.78 725.591,-1165.11"/>
</g>
<!-- Node654 -->
<g id="node25" class="node"><title>Node654</title>
<g id="a_node25"><a xlink:href="interfacex__ops_1_1calc__x.html#a837126ca92e7f4d6821261c835b987d4" target="_top" xlink:title="vectorial version ">
<polygon fill="white" stroke="black" points="600,-676.5 600,-697.5 755,-697.5 755,-676.5 600,-676.5"/>
<text text-anchor="middle" x="677.5" y="-683.9" font-family="Ubuntu Mono" font-size="12.00">x_ops::calc_x::calc_x_1</text>
</a>
</g>
</g>
<!-- Node653&#45;&gt;Node654 -->
<g id="edge37" class="edge"><title>Node653&#45;&gt;Node654</title>
<path fill="none" stroke="midnightblue" d="M526.357,-687C549.06,-687 575.551,-687 599.905,-687"/>
<polygon fill="midnightblue" stroke="midnightblue" points="526.213,-683.5 516.213,-687 526.213,-690.5 526.213,-683.5"/>
</g>
<!-- Node655&#45;&gt;Node636 -->
<g id="edge40" class="edge"><title>Node655&#45;&gt;Node636</title>
<path fill="none" stroke="midnightblue" d="M290.192,-285.483C347.228,-262.464 467.207,-224.431 555,-268 620.298,-300.406 659.959,-386.542 672.321,-417.078"/>
<polygon fill="midnightblue" stroke="midnightblue" points="288.52,-282.387 280.62,-289.446 291.198,-288.855 288.52,-282.387"/>
</g>
<!-- Node655&#45;&gt;Node637 -->
<g id="edge39" class="edge"><title>Node655&#45;&gt;Node637</title>
<path fill="none" stroke="midnightblue" d="M293.384,-314.524C309.61,-321.317 328.931,-329.721 346,-338 377.966,-353.504 413.58,-373.141 437.94,-386.95"/>
<polygon fill="midnightblue" stroke="midnightblue" points="294.307,-311.118 283.73,-310.519 291.625,-317.584 294.307,-311.118"/>
</g>
<!-- Node655&#45;&gt;Node642 -->
<g id="edge41" class="edge"><title>Node655&#45;&gt;Node642</title>
<path fill="none" stroke="midnightblue" d="M261.141,-279.334C270.829,-231.395 302.164,-113.052 382,-65 544.782,32.9752 785.35,-96.4512 864.895,-144.98"/>
<polygon fill="midnightblue" stroke="midnightblue" points="257.65,-278.956 259.215,-289.434 264.527,-280.267 257.65,-278.956"/>
</g>
<!-- Node655&#45;&gt;Node644 -->
<g id="edge42" class="edge"><title>Node655&#45;&gt;Node644</title>
<path fill="none" stroke="midnightblue" d="M262.674,-279.559C274.893,-236.158 310.073,-135.47 382,-95 449.01,-57.2965 486.055,-60.9632 555,-95 578.594,-106.648 568.897,-127.724 591,-142 596.891,-145.805 603.425,-148.888 610.181,-151.386"/>
<polygon fill="midnightblue" stroke="midnightblue" points="259.275,-278.721 260.054,-289.288 266.034,-280.542 259.275,-278.721"/>
</g>
<!-- Node655&#45;&gt;Node647 -->
<g id="edge43" class="edge"><title>Node655&#45;&gt;Node647</title>
<path fill="none" stroke="midnightblue" d="M350.179,-304.339C413.836,-311.67 496.993,-330.341 555,-377 582.568,-399.175 574.662,-416.618 591,-448 620.379,-504.43 656.628,-571.426 670.614,-597.178"/>
<polygon fill="midnightblue" stroke="midnightblue" points="350.455,-300.848 340.137,-303.257 349.705,-307.808 350.455,-300.848"/>
</g>
<!-- Node655&#45;&gt;Node648 -->
<g id="edge44" class="edge"><title>Node655&#45;&gt;Node648</title>
<path fill="none" stroke="midnightblue" d="M313.882,-314.35C326.069,-319.899 337.756,-327.532 346,-338 404.86,-412.738 316.807,-479.717 382,-549 397.148,-565.098 422.566,-569.376 441.76,-570.06"/>
<polygon fill="midnightblue" stroke="midnightblue" points="315.093,-311.064 304.513,-310.501 312.432,-317.539 315.093,-311.064"/>
</g>
<!-- Node655&#45;&gt;Node649 -->
<g id="edge45" class="edge"><title>Node655&#45;&gt;Node649</title>
<path fill="none" stroke="midnightblue" d="M314.445,-314.363C326.494,-319.903 337.977,-327.529 346,-338 414.547,-427.454 322.271,-493.433 382,-589 395.879,-611.207 421.737,-626.949 441.396,-636.377"/>
<polygon fill="midnightblue" stroke="midnightblue" points="315.748,-311.114 305.17,-310.52 313.069,-317.581 315.748,-311.114"/>
</g>
<!-- Node656&#45;&gt;Node632 -->
<g id="edge47" class="edge"><title>Node656&#45;&gt;Node632</title>
<path fill="none" stroke="midnightblue" d="M267.201,-607.815C284.885,-644.566 322.689,-726.103 346,-798 367.812,-865.275 332.271,-902.714 382,-953 413.858,-985.215 704.771,-1041.19 832.184,-1064.42"/>
<polygon fill="midnightblue" stroke="midnightblue" points="270.286,-606.155 262.775,-598.682 263.986,-609.208 270.286,-606.155"/>
</g>
<!-- Node656&#45;&gt;Node634 -->
<g id="edge48" class="edge"><title>Node656&#45;&gt;Node634</title>
<path fill="none" stroke="midnightblue" d="M298.345,-574.37C322.538,-566.506 353.866,-556.686 382,-549 394.059,-545.706 407.164,-542.47 419.409,-539.593"/>
<polygon fill="midnightblue" stroke="midnightblue" points="297.196,-571.063 288.779,-577.498 299.372,-577.716 297.196,-571.063"/>
</g>
<!-- Node656&#45;&gt;Node636 -->
<g id="edge52" class="edge"><title>Node656&#45;&gt;Node636</title>
<path fill="none" stroke="midnightblue" d="M278.808,-571.173C302.631,-553.178 343.002,-525.068 382,-509 454.786,-479.011 479.305,-492.618 555,-471 588.134,-461.537 625.372,-447.899 649.785,-438.533"/>
<polygon fill="midnightblue" stroke="midnightblue" points="276.619,-568.441 270.813,-577.304 280.878,-573.996 276.619,-568.441"/>
</g>
<!-- Node656&#45;&gt;Node637 -->
<g id="edge49" class="edge"><title>Node656&#45;&gt;Node637</title>
<path fill="none" stroke="midnightblue" d="M267.905,-568.289C286.424,-535.087 328.255,-468.015 382,-431 388.41,-426.585 395.578,-422.865 402.963,-419.737"/>
<polygon fill="midnightblue" stroke="midnightblue" points="264.633,-566.98 262.919,-577.435 270.779,-570.331 264.633,-566.98"/>
</g>
<!-- Node656&#45;&gt;Node646 -->
<g id="edge53" class="edge"><title>Node656&#45;&gt;Node646</title>
<path fill="none" stroke="midnightblue" d="M272.089,-606.515C293.523,-632.535 335.994,-679.775 382,-707 389.368,-711.36 397.517,-715.093 405.77,-718.267"/>
<polygon fill="midnightblue" stroke="midnightblue" points="274.665,-604.134 265.652,-598.565 269.224,-608.539 274.665,-604.134"/>
</g>
<!-- Node656&#45;&gt;Node647 -->
<g id="edge54" class="edge"><title>Node656&#45;&gt;Node647</title>
<path fill="none" stroke="midnightblue" d="M347.438,-592.293C428.04,-596.14 544.137,-601.682 614.71,-605.051"/>
<polygon fill="midnightblue" stroke="midnightblue" points="347.452,-588.79 337.297,-591.809 347.119,-595.782 347.452,-588.79"/>
</g>
<!-- Node656&#45;&gt;Node648 -->
<g id="edge55" class="edge"><title>Node656&#45;&gt;Node648</title>
<path fill="none" stroke="midnightblue" d="M347.293,-579.876C381.673,-576.765 418.276,-573.454 441.934,-571.313"/>
<polygon fill="midnightblue" stroke="midnightblue" points="346.835,-576.403 337.191,-580.79 347.466,-583.374 346.835,-576.403"/>
</g>
<!-- Node656&#45;&gt;Node649 -->
<g id="edge56" class="edge"><title>Node656&#45;&gt;Node649</title>
<path fill="none" stroke="midnightblue" d="M304.814,-601.293C342.636,-611.919 394.938,-626.614 429.928,-636.444"/>
<polygon fill="midnightblue" stroke="midnightblue" points="305.618,-597.883 295.044,-598.548 303.724,-604.622 305.618,-597.883"/>
</g>
<!-- Node656&#45;&gt;Node650 -->
<g id="edge57" class="edge"><title>Node656&#45;&gt;Node650</title>
<path fill="none" stroke="midnightblue" d="M269.314,-607.409C308.208,-671.306 431.456,-873.786 461.061,-922.421"/>
<polygon fill="midnightblue" stroke="midnightblue" points="272.204,-605.426 264.015,-598.703 266.225,-609.065 272.204,-605.426"/>
</g>
<!-- Node657 -->
<g id="node28" class="node"><title>Node657</title>
<g id="a_node28"><a xlink:href="namespacehelena__ops.html#a0f156b3653264fb016d6d311eb59114c" target="_top" xlink:title="Checks whether the metric elements provided by HELENA are consistent with a direct calculation using ...">
<polygon fill="white" stroke="black" points="382,-440.5 382,-461.5 555,-461.5 555,-440.5 382,-440.5"/>
<text text-anchor="middle" x="468.5" y="-447.9" font-family="Ubuntu Mono" font-size="12.00">helena_ops::test_metrics_h</text>
</a>
</g>
</g>
<!-- Node656&#45;&gt;Node657 -->
<g id="edge50" class="edge"><title>Node656&#45;&gt;Node657</title>
<path fill="none" stroke="midnightblue" d="M272.912,-569.74C294.746,-545.001 337.053,-501.055 382,-476 392.942,-469.901 405.519,-465.158 417.602,-461.525"/>
<polygon fill="midnightblue" stroke="midnightblue" points="270.229,-567.492 266.319,-577.339 275.516,-572.08 270.229,-567.492"/>
</g>
<!-- Node657&#45;&gt;Node636 -->
<g id="edge51" class="edge"><title>Node657&#45;&gt;Node636</title>
<path fill="none" stroke="midnightblue" d="M565.198,-440.367C573.764,-439.415 582.402,-438.455 590.875,-437.514"/>
<polygon fill="midnightblue" stroke="midnightblue" points="564.741,-436.896 555.189,-441.479 565.514,-443.853 564.741,-436.896"/>
</g>
<!-- Node658&#45;&gt;Node632 -->
<g id="edge59" class="edge"><title>Node658&#45;&gt;Node632</title>
<path fill="none" stroke="midnightblue" d="M302.324,-344.804C403.965,-317.965 651.803,-270.533 764,-408 855.052,-519.559 706.618,-945.383 800,-1055 803.374,-1058.96 807.335,-1062.24 811.682,-1064.96"/>
<polygon fill="midnightblue" stroke="midnightblue" points="301.41,-341.425 292.667,-347.409 303.233,-348.184 301.41,-341.425"/>
</g>
<!-- Node658&#45;&gt;Node634 -->
<g id="edge60" class="edge"><title>Node658&#45;&gt;Node634</title>
<path fill="none" stroke="midnightblue" d="M275.23,-375.571C298.763,-398.54 342.012,-439.544 382,-471 404.697,-488.855 432.663,-507.192 450.293,-518.343"/>
<polygon fill="midnightblue" stroke="midnightblue" points="277.627,-373.019 268.039,-368.513 272.724,-378.015 277.627,-373.019"/>
</g>
<!-- Node658&#45;&gt;Node636 -->
<g id="edge61" class="edge"><title>Node658&#45;&gt;Node636</title>
<path fill="none" stroke="midnightblue" d="M356.513,-356.122C414.965,-357.035 490.002,-361.74 555,-377 592.638,-385.837 633.533,-405.232 656.981,-417.395"/>
<polygon fill="midnightblue" stroke="midnightblue" points="356.21,-352.618 346.169,-355.997 356.126,-359.618 356.21,-352.618"/>
</g>
<!-- Node658&#45;&gt;Node637 -->
<g id="edge62" class="edge"><title>Node658&#45;&gt;Node637</title>
<path fill="none" stroke="midnightblue" d="M315.767,-370.763C342.807,-376.686 375.041,-383.747 402.831,-389.834"/>
<polygon fill="midnightblue" stroke="midnightblue" points="316.196,-367.274 305.678,-368.553 314.698,-374.112 316.196,-367.274"/>
</g>
<!-- Node658&#45;&gt;Node645 -->
<g id="edge70" class="edge"><title>Node658&#45;&gt;Node645</title>
<path fill="none" stroke="midnightblue" d="M291.43,-343.441C326.64,-328.392 377.25,-306.952 382,-306 548.467,-272.633 634.775,-195.885 764,-306 802.374,-338.699 788.21,-480.981 800,-530 826.082,-638.442 873.291,-765.36 887.407,-802.374"/>
<polygon fill="midnightblue" stroke="midnightblue" points="289.775,-340.342 281.958,-347.494 292.529,-346.778 289.775,-340.342"/>
</g>
<!-- Node658&#45;&gt;Node653 -->
<g id="edge71" class="edge"><title>Node658&#45;&gt;Node653</title>
<path fill="none" stroke="midnightblue" d="M266.372,-378.112C282.709,-415.345 318.4,-497.637 346,-568 363.096,-611.586 346.984,-635.921 382,-667 392.717,-676.512 407.092,-681.736 420.993,-684.537"/>
<polygon fill="midnightblue" stroke="midnightblue" points="269.53,-376.597 262.301,-368.852 263.122,-379.415 269.53,-376.597"/>
</g>
<!-- Node659 -->
<g id="node30" class="node"><title>Node659</title>
<g id="a_node30"><a xlink:href="namespacempi__ops.html#a804ec65ff711509de1f8873f97bdf967" target="_top" xlink:title="Start MPI and gather information. ">
<polygon fill="white" stroke="black" points="830,-499.5 830,-520.5 955,-520.5 955,-499.5 830,-499.5"/>
<text text-anchor="middle" x="892.5" y="-506.9" font-family="Ubuntu Mono" font-size="12.00">mpi_ops::start_mpi</text>
</a>
</g>
</g>
<!-- Node658&#45;&gt;Node659 -->
<g id="edge63" class="edge"><title>Node658&#45;&gt;Node659</title>
<path fill="none" stroke="midnightblue" d="M309.419,-343.624C322.647,-337.979 335.948,-330.307 346,-320 376.079,-289.157 346.326,-254.153 382,-230 452.294,-182.409 692.612,-184.066 764,-230 863.27,-293.874 886.164,-456.137 890.569,-499.312"/>
<polygon fill="midnightblue" stroke="midnightblue" points="307.875,-340.47 299.847,-347.384 310.434,-346.985 307.875,-340.47"/>
</g>
<!-- Node660 -->
<g id="node31" class="node"><title>Node660</title>
<g id="a_node31"><a xlink:href="namespaceslepc__utilities.html#aa34aa361f0bfff9621ecba179f9ed0c6" target="_top" xlink:title="Insert a block pertaining to 1 normal point into a matrix. ">
<polygon fill="white" stroke="black" points="391,-105 391,-139 546,-139 546,-105 391,-105"/>
<text text-anchor="start" x="399" y="-125.4" font-family="Ubuntu Mono" font-size="12.00">slepc_utilities::insert</text>
<text text-anchor="middle" x="468.5" y="-112.4" font-family="Ubuntu Mono" font-size="12.00">_block_mat</text>
</a>
</g>
</g>
<!-- Node658&#45;&gt;Node660 -->
<g id="edge66" class="edge"><title>Node658&#45;&gt;Node660</title>
<path fill="none" stroke="midnightblue" d="M312.015,-343.505C324.611,-337.93 336.954,-330.321 346,-320 384.953,-275.559 349.641,-241.449 382,-192 396.391,-170.008 419.866,-151.507 438.58,-139.059"/>
<polygon fill="midnightblue" stroke="midnightblue" points="310.353,-340.401 302.384,-347.383 312.968,-346.894 310.353,-340.401"/>
</g>
<!-- Node659&#45;&gt;Node633 -->
<g id="edge64" class="edge"><title>Node659&#45;&gt;Node633</title>
<path fill="none" stroke="midnightblue" d="M965.532,-508.882C1026.88,-509.274 1117.07,-513.043 1194,-529 1206.23,-531.538 1219.41,-536.199 1229.86,-540.383"/>
<polygon fill="midnightblue" stroke="midnightblue" points="965.193,-505.381 955.181,-508.846 965.169,-512.381 965.193,-505.381"/>
</g>
<!-- Node659&#45;&gt;Node640 -->
<g id="edge65" class="edge"><title>Node659&#45;&gt;Node640</title>
<path fill="none" stroke="midnightblue" d="M901.737,-530.302C937.106,-617.479 1075.51,-958.609 1102.08,-1024.09"/>
<polygon fill="midnightblue" stroke="midnightblue" points="904.952,-528.916 897.949,-520.965 898.465,-531.548 904.952,-528.916"/>
</g>
<!-- Node660&#45;&gt;Node644 -->
<g id="edge67" class="edge"><title>Node660&#45;&gt;Node644</title>
<path fill="none" stroke="midnightblue" d="M556.129,-138.74C578.493,-143.061 601.937,-147.592 622.132,-151.494"/>
<polygon fill="midnightblue" stroke="midnightblue" points="556.767,-135.299 546.285,-136.838 555.439,-142.171 556.767,-135.299"/>
</g>
<!-- Node661 -->
<g id="node32" class="node"><title>Node661</title>
<g id="a_node32"><a xlink:href="namespaceslepc__ops.html#a05f8a23335ed47ad1996cddf3bcfdc2e" target="_top" xlink:title="Sets the boundary conditions deep in the plasma (1) and at the edge (2). ">
<polygon fill="white" stroke="black" points="618,-111.5 618,-132.5 737,-132.5 737,-111.5 618,-111.5"/>
<text text-anchor="middle" x="677.5" y="-118.9" font-family="Ubuntu Mono" font-size="12.00">slepc_ops::set_bc</text>
</a>
</g>
</g>
<!-- Node660&#45;&gt;Node661 -->
<g id="edge68" class="edge"><title>Node660&#45;&gt;Node661</title>
<path fill="none" stroke="midnightblue" d="M556.388,-122C577.15,-122 598.827,-122 617.959,-122"/>
<polygon fill="midnightblue" stroke="midnightblue" points="556.285,-118.5 546.285,-122 556.285,-125.5 556.285,-118.5"/>
</g>
<!-- Node661&#45;&gt;Node642 -->
<g id="edge69" class="edge"><title>Node661&#45;&gt;Node642</title>
<path fill="none" stroke="midnightblue" d="M744.321,-134.361C770.579,-139.292 800.721,-144.952 826.861,-149.861"/>
<polygon fill="midnightblue" stroke="midnightblue" points="744.937,-130.915 734.463,-132.51 743.645,-137.795 744.937,-130.915"/>
</g>
<!-- Node662&#45;&gt;Node633 -->
<g id="edge73" class="edge"><title>Node662&#45;&gt;Node633</title>
<path fill="none" stroke="midnightblue" d="M954.838,-1256.55C965.143,-1253.37 975.551,-1249.54 985,-1245 1088.53,-1195.27 1136.75,-1192.57 1194,-1093 1248.89,-997.533 1249.87,-628.319 1249.58,-559.93"/>
<polygon fill="midnightblue" stroke="midnightblue" points="953.643,-1253.26 945.024,-1259.42 955.604,-1259.98 953.643,-1253.26"/>
</g>
<!-- Node662&#45;&gt;Node640 -->
<g id="edge74" class="edge"><title>Node662&#45;&gt;Node640</title>
<path fill="none" stroke="midnightblue" d="M968.3,-1255.3C974.27,-1252.45 979.939,-1249.05 985,-1245 1011.69,-1223.62 1004.17,-1206.77 1021,-1177 1049.18,-1127.15 1085.21,-1068.99 1099.86,-1045.57"/>
<polygon fill="midnightblue" stroke="midnightblue" points="966.572,-1252.23 958.715,-1259.34 969.29,-1258.68 966.572,-1252.23"/>
</g>
</g>
</svg>
