<?xml version="1.0" encoding="UTF-8" standalone="no"?>
<!DOCTYPE svg PUBLIC "-//W3C//DTD SVG 1.1//EN"
 "http://www.w3.org/Graphics/SVG/1.1/DTD/svg11.dtd">
<!-- Generated by graphviz version 2.38.0 (20140413.2041)
 -->
<!-- Title: input_ops::read_input_opts Pages: 1 -->
<svg width="1422pt" height="682pt"
 viewBox="0.00 0.00 1422.00 682.00" xmlns="http://www.w3.org/2000/svg" xmlns:xlink="http://www.w3.org/1999/xlink">
<g id="graph0" class="graph" transform="scale(1 1) rotate(0) translate(4 678)">
<title>input_ops::read_input_opts</title>
<polygon fill="white" stroke="none" points="-4,4 -4,-678 1418,-678 1418,4 -4,4"/>
<!-- Node41 -->
<g id="node1" class="node"><title>Node41</title>
<polygon fill="#bfbfbf" stroke="black" points="0,-174.5 0,-195.5 173,-195.5 173,-174.5 0,-174.5"/>
<text text-anchor="middle" x="86.5" y="-181.9" font-family="Ubuntu Mono" font-size="12.00">input_ops::read_input_opts</text>
</g>
<!-- Node42 -->
<g id="node2" class="node"><title>Node42</title>
<g id="a_node2"><a xlink:href="namespacerich__ops.html#acadb2170408937a71a230e655bd15675" target="_top" xlink:title="rich_ops::find_max\l_rich_lvl">
<polygon fill="white" stroke="black" points="376,-413 376,-447 501,-447 501,-413 376,-413"/>
<text text-anchor="start" x="384" y="-433.4" font-family="Ubuntu Mono" font-size="12.00">rich_ops::find_max</text>
<text text-anchor="middle" x="438.5" y="-420.4" font-family="Ubuntu Mono" font-size="12.00">_rich_lvl</text>
</a>
</g>
</g>
<!-- Node41&#45;&gt;Node42 -->
<g id="edge1" class="edge"><title>Node41&#45;&gt;Node42</title>
<path fill="none" stroke="midnightblue" d="M93.1315,-195.611C108.267,-223.19 152.529,-297.903 209,-340 256.011,-375.045 318.456,-398.41 366.185,-412.531"/>
<polygon fill="midnightblue" stroke="midnightblue" points="365.252,-415.905 375.831,-415.319 367.196,-409.18 365.252,-415.905"/>
</g>
<!-- Node54 -->
<g id="node14" class="node"><title>Node54</title>
<g id="a_node14"><a xlink:href="namespacemessages.html#aa4a8d01563e92558e8a0875b075ec54c" target="_top" xlink:title="messages::writo">
<polygon fill="white" stroke="black" points="385,-156.5 385,-177.5 492,-177.5 492,-156.5 385,-156.5"/>
<text text-anchor="middle" x="438.5" y="-163.9" font-family="Ubuntu Mono" font-size="12.00">messages::writo</text>
</a>
</g>
</g>
<!-- Node41&#45;&gt;Node54 -->
<g id="edge21" class="edge"><title>Node41&#45;&gt;Node54</title>
<path fill="none" stroke="midnightblue" d="M173.12,-180.597C235.419,-177.393 318.377,-173.126 374.631,-170.233"/>
<polygon fill="midnightblue" stroke="midnightblue" points="375.006,-173.719 384.813,-169.71 374.646,-166.728 375.006,-173.719"/>
</g>
<!-- Node58 -->
<g id="node18" class="node"><title>Node58</title>
<g id="a_node18"><a xlink:href="namespacemessages.html#a6e6bfb084063e4cc91ee86e542043302" target="_top" xlink:title="messages::lvl_ud">
<polygon fill="white" stroke="black" points="215,-135.5 215,-156.5 328,-156.5 328,-135.5 215,-135.5"/>
<text text-anchor="middle" x="271.5" y="-142.9" font-family="Ubuntu Mono" font-size="12.00">messages::lvl_ud</text>
</a>
</g>
</g>
<!-- Node41&#45;&gt;Node58 -->
<g id="edge25" class="edge"><title>Node41&#45;&gt;Node58</title>
<path fill="none" stroke="midnightblue" d="M137.022,-174.446C159.807,-169.59 187.025,-163.79 210.922,-158.697"/>
<polygon fill="midnightblue" stroke="midnightblue" points="211.887,-162.07 220.938,-156.562 210.428,-155.224 211.887,-162.07"/>
</g>
<!-- Node59 -->
<g id="node19" class="node"><title>Node59</title>
<g id="a_node19"><a xlink:href="input__ops_8f90.html#a5137b6d81dcbf50b3eb6a000f6b8d2b8" target="_top" xlink:title="default_input_pb3d">
<polygon fill="white" stroke="black" points="209,-15.5 209,-36.5 334,-36.5 334,-15.5 209,-15.5"/>
<text text-anchor="middle" x="271.5" y="-22.9" font-family="Ubuntu Mono" font-size="12.00">default_input_pb3d</text>
</a>
</g>
</g>
<!-- Node41&#45;&gt;Node59 -->
<g id="edge27" class="edge"><title>Node41&#45;&gt;Node59</title>
<path fill="none" stroke="midnightblue" d="M93.9845,-174.203C110.117,-148.245 154.699,-81.8442 209,-46 211.947,-44.0545 215.099,-42.2852 218.359,-40.6781"/>
<polygon fill="midnightblue" stroke="midnightblue" points="220.001,-43.7805 227.761,-36.567 217.196,-37.3669 220.001,-43.7805"/>
</g>
<!-- Node60 -->
<g id="node20" class="node"><title>Node60</title>
<g id="a_node20"><a xlink:href="input__ops_8f90.html#a45cd1d003ad2ab71d12f71492935b2bb" target="_top" xlink:title="default_input_post">
<polygon fill="white" stroke="black" points="209,-213.5 209,-234.5 334,-234.5 334,-213.5 209,-213.5"/>
<text text-anchor="middle" x="271.5" y="-220.9" font-family="Ubuntu Mono" font-size="12.00">default_input_post</text>
</a>
</g>
</g>
<!-- Node41&#45;&gt;Node60 -->
<g id="edge28" class="edge"><title>Node41&#45;&gt;Node60</title>
<path fill="none" stroke="midnightblue" d="M137.022,-195.554C159.807,-200.41 187.025,-206.21 210.922,-211.303"/>
<polygon fill="midnightblue" stroke="midnightblue" points="210.428,-214.776 220.938,-213.438 211.887,-207.93 210.428,-214.776"/>
</g>
<!-- Node61 -->
<g id="node21" class="node"><title>Node61</title>
<g id="a_node21"><a xlink:href="input__ops_8f90.html#a4f2af8cdda395ccda6a1adea6c1d578c" target="_top" xlink:title="adapt_run_pb3d">
<polygon fill="white" stroke="black" points="221,-95.5 221,-116.5 322,-116.5 322,-95.5 221,-95.5"/>
<text text-anchor="middle" x="271.5" y="-102.9" font-family="Ubuntu Mono" font-size="12.00">adapt_run_pb3d</text>
</a>
</g>
</g>
<!-- Node41&#45;&gt;Node61 -->
<g id="edge31" class="edge"><title>Node41&#45;&gt;Node61</title>
<path fill="none" stroke="midnightblue" d="M107.325,-174.323C131.068,-161.784 172.246,-140.818 209,-126 214.207,-123.901 219.725,-121.859 225.236,-119.932"/>
<polygon fill="midnightblue" stroke="midnightblue" points="226.727,-123.122 235.076,-116.599 224.482,-116.492 226.727,-123.122"/>
</g>
<!-- Node62 -->
<g id="node22" class="node"><title>Node62</title>
<g id="a_node22"><a xlink:href="input__ops_8f90.html#a911791dfa1bc69e9c2e00488d0a5d60b" target="_top" xlink:title="adapt_min_n_par_x">
<polygon fill="white" stroke="black" points="212,-253.5 212,-274.5 331,-274.5 331,-253.5 212,-253.5"/>
<text text-anchor="middle" x="271.5" y="-260.9" font-family="Ubuntu Mono" font-size="12.00">adapt_min_n_par_x</text>
</a>
</g>
</g>
<!-- Node41&#45;&gt;Node62 -->
<g id="edge33" class="edge"><title>Node41&#45;&gt;Node62</title>
<path fill="none" stroke="midnightblue" d="M107.325,-195.677C131.068,-208.216 172.246,-229.182 209,-244 214.207,-246.099 219.725,-248.141 225.236,-250.068"/>
<polygon fill="midnightblue" stroke="midnightblue" points="224.482,-253.508 235.076,-253.401 226.727,-246.878 224.482,-253.508"/>
</g>
<!-- Node63 -->
<g id="node23" class="node"><title>Node63</title>
<g id="a_node23"><a xlink:href="input__ops_8f90.html#ab580aa4852afcd4a9de50b1b98de14cb" target="_top" xlink:title="adapt_rich">
<polygon fill="white" stroke="black" points="233,-55.5 233,-76.5 310,-76.5 310,-55.5 233,-55.5"/>
<text text-anchor="middle" x="271.5" y="-62.9" font-family="Ubuntu Mono" font-size="12.00">adapt_rich</text>
</a>
</g>
</g>
<!-- Node41&#45;&gt;Node63 -->
<g id="edge37" class="edge"><title>Node41&#45;&gt;Node63</title>
<path fill="none" stroke="midnightblue" d="M97.8837,-174.219C117.721,-154.189 163.13,-111.003 209,-86 213.505,-83.5441 218.362,-81.3277 223.302,-79.3435"/>
<polygon fill="midnightblue" stroke="midnightblue" points="224.67,-82.569 232.831,-75.8121 222.238,-76.0052 224.67,-82.569"/>
</g>
<!-- Node65 -->
<g id="node25" class="node"><title>Node65</title>
<g id="a_node25"><a xlink:href="input__ops_8f90.html#a0ba5a762c885daaf5fcc2c60ab81c535" target="_top" xlink:title="adapt_run_post">
<polygon fill="white" stroke="black" points="221,-309.5 221,-330.5 322,-330.5 322,-309.5 221,-309.5"/>
<text text-anchor="middle" x="271.5" y="-316.9" font-family="Ubuntu Mono" font-size="12.00">adapt_run_post</text>
</a>
</g>
</g>
<!-- Node41&#45;&gt;Node65 -->
<g id="edge42" class="edge"><title>Node41&#45;&gt;Node65</title>
<path fill="none" stroke="midnightblue" d="M99.4289,-195.769C120.66,-214.693 166.75,-254.681 209,-284 219.377,-291.201 231.259,-298.384 241.794,-304.418"/>
<polygon fill="midnightblue" stroke="midnightblue" points="240.204,-307.539 250.634,-309.397 243.639,-301.44 240.204,-307.539"/>
</g>
<!-- Node43 -->
<g id="node3" class="node"><title>Node43</title>
<g id="a_node3"><a xlink:href="namespacehdf5__utilities.html#ae4e6c96512460a0ede8dc5b1a43681e8" target="_top" xlink:title="hdf5_utilities::probe\l_hdf5_group">
<polygon fill="white" stroke="black" points="549,-436 549,-470 692,-470 692,-436 549,-436"/>
<text text-anchor="start" x="557" y="-456.4" font-family="Ubuntu Mono" font-size="12.00">hdf5_utilities::probe</text>
<text text-anchor="middle" x="620.5" y="-443.4" font-family="Ubuntu Mono" font-size="12.00">_hdf5_group</text>
</a>
</g>
</g>
<!-- Node42&#45;&gt;Node43 -->
<g id="edge2" class="edge"><title>Node42&#45;&gt;Node43</title>
<path fill="none" stroke="midnightblue" d="M501.194,-437.883C513.32,-439.433 526.209,-441.079 538.849,-442.695"/>
<polygon fill="midnightblue" stroke="midnightblue" points="538.551,-446.185 548.914,-443.981 539.438,-439.241 538.551,-446.185"/>
</g>
<!-- Node47 -->
<g id="node7" class="node"><title>Node47</title>
<g id="a_node7"><a xlink:href="namespacestr__utilities.html#a0b97e51770725a3e98ed393d26681414" target="_top" xlink:title="str_utilities::i2str">
<polygon fill="white" stroke="black" points="1274,-290.5 1274,-311.5 1411,-311.5 1411,-290.5 1274,-290.5"/>
<text text-anchor="middle" x="1342.5" y="-297.9" font-family="Ubuntu Mono" font-size="12.00">str_utilities::i2str</text>
</a>
</g>
</g>
<!-- Node42&#45;&gt;Node47 -->
<g id="edge20" class="edge"><title>Node42&#45;&gt;Node47</title>
<path fill="none" stroke="midnightblue" d="M452,-447.158C494.052,-502.697 636.854,-674 798.5,-674 798.5,-674 798.5,-674 979.5,-674 1113.01,-674 1150.51,-619.377 1235,-516 1286.3,-453.234 1321.15,-361.649 1334.91,-321.334"/>
<polygon fill="midnightblue" stroke="midnightblue" points="1338.25,-322.405 1338.1,-311.811 1331.61,-320.187 1338.25,-322.405"/>
</g>
<!-- Node44 -->
<g id="node4" class="node"><title>Node44</title>
<g id="a_node4"><a xlink:href="namespacempi__utilities.html#a5a789d05be41d6109c01f46cc98620c8" target="_top" xlink:title="mpi_utilities::lock\l_req_acc">
<polygon fill="white" stroke="black" points="734,-499 734,-533 865,-533 865,-499 734,-499"/>
<text text-anchor="start" x="742" y="-519.4" font-family="Ubuntu Mono" font-size="12.00">mpi_utilities::lock</text>
<text text-anchor="middle" x="799.5" y="-506.4" font-family="Ubuntu Mono" font-size="12.00">_req_acc</text>
</a>
</g>
</g>
<!-- Node43&#45;&gt;Node44 -->
<g id="edge3" class="edge"><title>Node43&#45;&gt;Node44</title>
<path fill="none" stroke="midnightblue" d="M669.399,-470.049C691.436,-477.893 717.762,-487.263 740.876,-495.49"/>
<polygon fill="midnightblue" stroke="midnightblue" points="739.968,-498.882 750.563,-498.938 742.316,-492.287 739.968,-498.882"/>
</g>
<!-- Node53 -->
<g id="node13" class="node"><title>Node53</title>
<g id="a_node13"><a xlink:href="namespacempi__utilities.html#a86f9982a0f92b51a916f832d9a3d8ba9" target="_top" xlink:title="mpi_utilities::lock\l_return_acc">
<polygon fill="white" stroke="black" points="734,-436 734,-470 865,-470 865,-436 734,-436"/>
<text text-anchor="start" x="742" y="-456.4" font-family="Ubuntu Mono" font-size="12.00">mpi_utilities::lock</text>
<text text-anchor="middle" x="799.5" y="-443.4" font-family="Ubuntu Mono" font-size="12.00">_return_acc</text>
</a>
</g>
</g>
<!-- Node43&#45;&gt;Node53 -->
<g id="edge15" class="edge"><title>Node43&#45;&gt;Node53</title>
<path fill="none" stroke="midnightblue" d="M692.218,-453C702.545,-453 713.21,-453 723.617,-453"/>
<polygon fill="midnightblue" stroke="midnightblue" points="723.916,-456.5 733.916,-453 723.916,-449.5 723.916,-456.5"/>
</g>
<!-- Node45 -->
<g id="node5" class="node"><title>Node45</title>
<g id="a_node5"><a xlink:href="namespacempi__utilities.html#a4c5de9472574b63c69212948d8a3f4e1" target="_top" xlink:title="mpi_utilities::lock\l_header">
<polygon fill="white" stroke="black" points="1098,-472 1098,-506 1229,-506 1229,-472 1098,-472"/>
<text text-anchor="start" x="1106" y="-492.4" font-family="Ubuntu Mono" font-size="12.00">mpi_utilities::lock</text>
<text text-anchor="middle" x="1163.5" y="-479.4" font-family="Ubuntu Mono" font-size="12.00">_header</text>
</a>
</g>
</g>
<!-- Node44&#45;&gt;Node45 -->
<g id="edge4" class="edge"><title>Node44&#45;&gt;Node45</title>
<path fill="none" stroke="midnightblue" d="M828.334,-533.075C847.875,-544.025 875.052,-557.232 901,-563 968.248,-577.948 990.262,-583.597 1056,-563 1087.3,-553.195 1117.46,-530.589 1137.64,-512.925"/>
<polygon fill="midnightblue" stroke="midnightblue" points="1140.04,-515.481 1145.13,-506.193 1135.36,-510.275 1140.04,-515.481"/>
</g>
<!-- Node48 -->
<g id="node8" class="node"><title>Node48</title>
<g id="a_node8"><a xlink:href="namespacempi__utilities.html#a0417983d618bfc9f892d6d2af5d27b1d" target="_top" xlink:title="mpi_utilities::lock\l_wl_change">
<polygon fill="white" stroke="black" points="913,-519 913,-553 1044,-553 1044,-519 913,-519"/>
<text text-anchor="start" x="921" y="-539.4" font-family="Ubuntu Mono" font-size="12.00">mpi_utilities::lock</text>
<text text-anchor="middle" x="978.5" y="-526.4" font-family="Ubuntu Mono" font-size="12.00">_wl_change</text>
</a>
</g>
</g>
<!-- Node44&#45;&gt;Node48 -->
<g id="edge7" class="edge"><title>Node44&#45;&gt;Node48</title>
<path fill="none" stroke="midnightblue" d="M865.152,-523.305C877.265,-524.674 890.022,-526.116 902.42,-527.516"/>
<polygon fill="midnightblue" stroke="midnightblue" points="902.397,-531.036 912.727,-528.681 903.183,-524.08 902.397,-531.036"/>
</g>
<!-- Node50 -->
<g id="node10" class="node"><title>Node50</title>
<g id="a_node10"><a xlink:href="namespacempi__utilities.html#a74e2e82b561f403ca8087c3925f76e29" target="_top" xlink:title="mpi_utilities::wl_empty">
<polygon fill="white" stroke="black" points="901,-478.5 901,-499.5 1056,-499.5 1056,-478.5 901,-478.5"/>
<text text-anchor="middle" x="978.5" y="-485.9" font-family="Ubuntu Mono" font-size="12.00">mpi_utilities::wl_empty</text>
</a>
</g>
</g>
<!-- Node44&#45;&gt;Node50 -->
<g id="edge10" class="edge"><title>Node44&#45;&gt;Node50</title>
<path fill="none" stroke="midnightblue" d="M865.152,-506.138C875.965,-504.488 887.29,-502.761 898.414,-501.064"/>
<polygon fill="midnightblue" stroke="midnightblue" points="899.196,-504.485 908.554,-499.517 898.14,-497.565 899.196,-504.485"/>
</g>
<!-- Node51 -->
<g id="node11" class="node"><title>Node51</title>
<g id="a_node11"><a xlink:href="namespacempi__utilities.html#a5d2dbf8ffba124237c362f06c3d3ac32" target="_top" xlink:title="mpi_utilities::lock\l_notify">
<polygon fill="white" stroke="black" points="913,-425 913,-459 1044,-459 1044,-425 913,-425"/>
<text text-anchor="start" x="921" y="-445.4" font-family="Ubuntu Mono" font-size="12.00">mpi_utilities::lock</text>
<text text-anchor="middle" x="978.5" y="-432.4" font-family="Ubuntu Mono" font-size="12.00">_notify</text>
</a>
</g>
</g>
<!-- Node44&#45;&gt;Node51 -->
<g id="edge11" class="edge"><title>Node44&#45;&gt;Node51</title>
<path fill="none" stroke="midnightblue" d="M835.011,-498.836C854.233,-489.537 878.716,-478.117 901,-469 906.344,-466.813 911.939,-464.634 917.567,-462.517"/>
<polygon fill="midnightblue" stroke="midnightblue" points="918.864,-465.769 927.031,-459.021 916.438,-459.203 918.864,-465.769"/>
</g>
<!-- Node52 -->
<g id="node12" class="node"><title>Node52</title>
<g id="a_node12"><a xlink:href="namespacempi__utilities.html#a9ec02d2ade63716189369640f0da3c5f" target="_top" xlink:title="mpi_utilities::lock\l_get_notified">
<polygon fill="white" stroke="black" points="913,-611 913,-645 1044,-645 1044,-611 913,-611"/>
<text text-anchor="start" x="921" y="-631.4" font-family="Ubuntu Mono" font-size="12.00">mpi_utilities::lock</text>
<text text-anchor="middle" x="978.5" y="-618.4" font-family="Ubuntu Mono" font-size="12.00">_get_notified</text>
</a>
</g>
</g>
<!-- Node44&#45;&gt;Node52 -->
<g id="edge13" class="edge"><title>Node44&#45;&gt;Node52</title>
<path fill="none" stroke="midnightblue" d="M818.982,-533.321C838.315,-550.789 870.099,-577.718 901,-596 907.389,-599.78 914.307,-603.335 921.283,-606.603"/>
<polygon fill="midnightblue" stroke="midnightblue" points="920.231,-609.968 930.787,-610.876 923.101,-603.583 920.231,-609.968"/>
</g>
<!-- Node46 -->
<g id="node6" class="node"><title>Node46</title>
<g id="a_node6"><a xlink:href="namespacestr__utilities.html#acb8c4e66aead51f178e47fdea8d7a7db" target="_top" xlink:title="str_utilities::ii2str">
<polygon fill="white" stroke="black" points="1271,-478.5 1271,-499.5 1414,-499.5 1414,-478.5 1271,-478.5"/>
<text text-anchor="middle" x="1342.5" y="-485.9" font-family="Ubuntu Mono" font-size="12.00">str_utilities::ii2str</text>
</a>
</g>
</g>
<!-- Node45&#45;&gt;Node46 -->
<g id="edge5" class="edge"><title>Node45&#45;&gt;Node46</title>
<path fill="none" stroke="midnightblue" d="M1229.15,-489C1239.41,-489 1250.12,-489 1260.69,-489"/>
<polygon fill="midnightblue" stroke="midnightblue" points="1260.75,-492.5 1270.75,-489 1260.75,-485.5 1260.75,-492.5"/>
</g>
<!-- Node45&#45;&gt;Node47 -->
<g id="edge6" class="edge"><title>Node45&#45;&gt;Node47</title>
<path fill="none" stroke="midnightblue" d="M1180.52,-471.985C1213.75,-436.692 1289.92,-355.783 1324.21,-319.362"/>
<polygon fill="midnightblue" stroke="midnightblue" points="1326.93,-321.581 1331.24,-311.901 1321.83,-316.783 1326.93,-321.581"/>
</g>
<!-- Node48&#45;&gt;Node45 -->
<g id="edge8" class="edge"><title>Node48&#45;&gt;Node45</title>
<path fill="none" stroke="midnightblue" d="M1044.02,-519.43C1058.23,-515.779 1073.4,-511.884 1087.97,-508.141"/>
<polygon fill="midnightblue" stroke="midnightblue" points="1089.13,-511.457 1097.95,-505.579 1087.39,-504.677 1089.13,-511.457"/>
</g>
<!-- Node49 -->
<g id="node9" class="node"><title>Node49</title>
<g id="a_node9"><a xlink:href="namespacestr__utilities.html#ac778d706b2e021672618939ab58fdd32" target="_top" xlink:title="str_utilities::r2strt">
<polygon fill="white" stroke="black" points="1092,-290.5 1092,-311.5 1235,-311.5 1235,-290.5 1092,-290.5"/>
<text text-anchor="middle" x="1163.5" y="-297.9" font-family="Ubuntu Mono" font-size="12.00">str_utilities::r2strt</text>
</a>
</g>
</g>
<!-- Node48&#45;&gt;Node49 -->
<g id="edge9" class="edge"><title>Node48&#45;&gt;Node49</title>
<path fill="none" stroke="midnightblue" d="M1041.54,-518.898C1046.74,-516.077 1051.65,-512.801 1056,-509 1086.88,-482.002 1135.42,-367.883 1154.46,-321.116"/>
<polygon fill="midnightblue" stroke="midnightblue" points="1157.75,-322.311 1158.25,-311.728 1151.26,-319.689 1157.75,-322.311"/>
</g>
<!-- Node51&#45;&gt;Node45 -->
<g id="edge12" class="edge"><title>Node51&#45;&gt;Node45</title>
<path fill="none" stroke="midnightblue" d="M1044.02,-458.57C1058.23,-462.221 1073.4,-466.116 1087.97,-469.859"/>
<polygon fill="midnightblue" stroke="midnightblue" points="1087.39,-473.323 1097.95,-472.421 1089.13,-466.543 1087.39,-473.323"/>
</g>
<!-- Node52&#45;&gt;Node45 -->
<g id="edge14" class="edge"><title>Node52&#45;&gt;Node45</title>
<path fill="none" stroke="midnightblue" d="M1028.32,-610.955C1037.86,-606.705 1047.52,-601.703 1056,-596 1090.24,-572.975 1122.65,-537.802 1142.52,-514.13"/>
<polygon fill="midnightblue" stroke="midnightblue" points="1145.34,-516.214 1149.01,-506.276 1139.95,-511.755 1145.34,-516.214"/>
</g>
<!-- Node53&#45;&gt;Node45 -->
<g id="edge16" class="edge"><title>Node53&#45;&gt;Node45</title>
<path fill="none" stroke="midnightblue" d="M837.326,-435.888C855.97,-428.15 879.218,-419.882 901,-416 968.82,-403.912 990.197,-395.613 1056,-416 1087,-425.605 1117,-447.694 1137.22,-465.075"/>
<polygon fill="midnightblue" stroke="midnightblue" points="1134.92,-467.713 1144.73,-471.708 1139.55,-462.466 1134.92,-467.713"/>
</g>
<!-- Node53&#45;&gt;Node48 -->
<g id="edge17" class="edge"><title>Node53&#45;&gt;Node48</title>
<path fill="none" stroke="midnightblue" d="M830.502,-470.055C857.443,-485.314 893.831,-505.766 901,-509 905.694,-511.118 910.607,-513.181 915.582,-515.163"/>
<polygon fill="midnightblue" stroke="midnightblue" points="914.593,-518.533 925.183,-518.866 917.112,-512.002 914.593,-518.533"/>
</g>
<!-- Node53&#45;&gt;Node50 -->
<g id="edge18" class="edge"><title>Node53&#45;&gt;Node50</title>
<path fill="none" stroke="midnightblue" d="M865.152,-466.15C881.672,-469.51 899.39,-473.113 915.76,-476.443"/>
<polygon fill="midnightblue" stroke="midnightblue" points="915.258,-479.912 925.755,-478.476 916.653,-473.053 915.258,-479.912"/>
</g>
<!-- Node53&#45;&gt;Node51 -->
<g id="edge19" class="edge"><title>Node53&#45;&gt;Node51</title>
<path fill="none" stroke="midnightblue" d="M865.152,-448.982C877.265,-448.229 890.022,-447.436 902.42,-446.666"/>
<polygon fill="midnightblue" stroke="midnightblue" points="902.963,-450.139 912.727,-446.025 902.529,-443.153 902.963,-450.139"/>
</g>
<!-- Node55 -->
<g id="node15" class="node"><title>Node55</title>
<g id="a_node15"><a xlink:href="namespacemessages.html#a82dddaab795b78b3d39e1ff1aab2f665" target="_top" xlink:title="messages::get_mem_usage">
<polygon fill="white" stroke="black" points="543,-116.5 543,-137.5 698,-137.5 698,-116.5 543,-116.5"/>
<text text-anchor="middle" x="620.5" y="-123.9" font-family="Ubuntu Mono" font-size="12.00">messages::get_mem_usage</text>
</a>
</g>
</g>
<!-- Node54&#45;&gt;Node55 -->
<g id="edge22" class="edge"><title>Node54&#45;&gt;Node55</title>
<path fill="none" stroke="midnightblue" d="M486.793,-156.49C509.955,-151.343 538.029,-145.105 562.38,-139.693"/>
<polygon fill="midnightblue" stroke="midnightblue" points="563.208,-143.095 572.211,-137.509 561.69,-136.261 563.208,-143.095"/>
</g>
<!-- Node56 -->
<g id="node16" class="node"><title>Node56</title>
<g id="a_node16"><a xlink:href="messages_8f90.html#a6d15f28783f95a7a4b2a44185619792f" target="_top" xlink:title="format_str">
<polygon fill="white" stroke="black" points="582,-156.5 582,-177.5 659,-177.5 659,-156.5 582,-156.5"/>
<text text-anchor="middle" x="620.5" y="-163.9" font-family="Ubuntu Mono" font-size="12.00">format_str</text>
</a>
</g>
</g>
<!-- Node54&#45;&gt;Node56 -->
<g id="edge23" class="edge"><title>Node54&#45;&gt;Node56</title>
<path fill="none" stroke="midnightblue" d="M492.047,-167C517.198,-167 547.099,-167 571.615,-167"/>
<polygon fill="midnightblue" stroke="midnightblue" points="571.764,-170.5 581.764,-167 571.763,-163.5 571.764,-170.5"/>
</g>
<!-- Node57 -->
<g id="node17" class="node"><title>Node57</title>
<g id="a_node17"><a xlink:href="namespacemessages.html#a61fd0b51b5e37d58fdc993c01792a3fd" target="_top" xlink:title="messages::get_clock">
<polygon fill="white" stroke="black" points="734,-156.5 734,-177.5 865,-177.5 865,-156.5 734,-156.5"/>
<text text-anchor="middle" x="799.5" y="-163.9" font-family="Ubuntu Mono" font-size="12.00">messages::get_clock</text>
</a>
</g>
</g>
<!-- Node56&#45;&gt;Node57 -->
<g id="edge24" class="edge"><title>Node56&#45;&gt;Node57</title>
<path fill="none" stroke="midnightblue" d="M659.037,-167C677.869,-167 701.372,-167 723.685,-167"/>
<polygon fill="midnightblue" stroke="midnightblue" points="723.832,-170.5 733.832,-167 723.832,-163.5 723.832,-170.5"/>
</g>
<!-- Node58&#45;&gt;Node54 -->
<g id="edge26" class="edge"><title>Node58&#45;&gt;Node54</title>
<path fill="none" stroke="midnightblue" d="M328.361,-153.11C343.174,-154.995 359.27,-157.043 374.437,-158.974"/>
<polygon fill="midnightblue" stroke="midnightblue" points="374.399,-162.497 384.761,-160.288 375.283,-155.553 374.399,-162.497"/>
</g>
<!-- Node60&#45;&gt;Node47 -->
<g id="edge30" class="edge"><title>Node60&#45;&gt;Node47</title>
<path fill="none" stroke="midnightblue" d="M334.192,-218.866C403.537,-213.546 519.513,-206 619.5,-206 619.5,-206 619.5,-206 979.5,-206 1094.65,-206 1125.35,-213.82 1235,-249 1263.37,-258.104 1293.73,-273.548 1314.74,-285.247"/>
<polygon fill="midnightblue" stroke="midnightblue" points="1313.27,-288.437 1323.7,-290.322 1316.72,-282.347 1313.27,-288.437"/>
</g>
<!-- Node60&#45;&gt;Node54 -->
<g id="edge29" class="edge"><title>Node60&#45;&gt;Node54</title>
<path fill="none" stroke="midnightblue" d="M303.149,-213.412C329.659,-204.254 368.183,-190.946 397.188,-180.926"/>
<polygon fill="midnightblue" stroke="midnightblue" points="398.707,-184.104 407.016,-177.531 396.421,-177.488 398.707,-184.104"/>
</g>
<!-- Node61&#45;&gt;Node54 -->
<g id="edge32" class="edge"><title>Node61&#45;&gt;Node54</title>
<path fill="none" stroke="midnightblue" d="M306.144,-116.52C315.225,-119.474 325.022,-122.765 334,-126 357.127,-134.332 382.821,-144.505 402.823,-152.633"/>
<polygon fill="midnightblue" stroke="midnightblue" points="401.568,-155.901 412.149,-156.442 404.215,-149.421 401.568,-155.901"/>
</g>
<!-- Node62&#45;&gt;Node47 -->
<g id="edge35" class="edge"><title>Node62&#45;&gt;Node47</title>
<path fill="none" stroke="midnightblue" d="M331.075,-258.561C400.013,-252.639 517.973,-244 619.5,-244 619.5,-244 619.5,-244 979.5,-244 1092.14,-244 1222.12,-271.262 1291.58,-288.078"/>
<polygon fill="midnightblue" stroke="midnightblue" points="1290.83,-291.499 1301.38,-290.479 1292.5,-284.7 1290.83,-291.499"/>
</g>
<!-- Node62&#45;&gt;Node49 -->
<g id="edge36" class="edge"><title>Node62&#45;&gt;Node49</title>
<path fill="none" stroke="midnightblue" d="M331.086,-268.895C400.035,-274.225 518.005,-282 619.5,-282 619.5,-282 619.5,-282 800.5,-282 897.272,-282 1008.4,-288.855 1081.72,-294.33"/>
<polygon fill="midnightblue" stroke="midnightblue" points="1081.57,-297.829 1091.81,-295.092 1082.1,-290.849 1081.57,-297.829"/>
</g>
<!-- Node62&#45;&gt;Node54 -->
<g id="edge34" class="edge"><title>Node62&#45;&gt;Node54</title>
<path fill="none" stroke="midnightblue" d="M311.338,-253.496C319.034,-250.828 326.918,-247.66 334,-244 365.858,-227.535 398.355,-201.542 418.228,-184.382"/>
<polygon fill="midnightblue" stroke="midnightblue" points="420.725,-186.848 425.934,-177.622 416.108,-181.586 420.725,-186.848"/>
</g>
<!-- Node63&#45;&gt;Node47 -->
<g id="edge41" class="edge"><title>Node63&#45;&gt;Node47</title>
<path fill="none" stroke="midnightblue" d="M310.214,-63.121C373.91,-58.5145 506.877,-50 619.5,-50 619.5,-50 619.5,-50 979.5,-50 1142.11,-50 1284.32,-223.15 1327.85,-281.825"/>
<polygon fill="midnightblue" stroke="midnightblue" points="1325.25,-284.203 1333.98,-290.215 1330.91,-280.075 1325.25,-284.203"/>
</g>
<!-- Node63&#45;&gt;Node49 -->
<g id="edge39" class="edge"><title>Node63&#45;&gt;Node49</title>
<path fill="none" stroke="midnightblue" d="M310.191,-69.9586C373.852,-76.2925 506.77,-88 619.5,-88 619.5,-88 619.5,-88 800.5,-88 953.499,-88 1098.88,-231.084 1146.35,-282.707"/>
<polygon fill="midnightblue" stroke="midnightblue" points="1144.04,-285.375 1153.35,-290.437 1149.23,-280.676 1144.04,-285.375"/>
</g>
<!-- Node63&#45;&gt;Node54 -->
<g id="edge38" class="edge"><title>Node63&#45;&gt;Node54</title>
<path fill="none" stroke="midnightblue" d="M310.11,-75.9214C318.211,-78.6876 326.567,-82.0428 334,-86 366.748,-103.435 399.65,-131.399 419.299,-149.483"/>
<polygon fill="midnightblue" stroke="midnightblue" points="416.937,-152.066 426.631,-156.342 421.719,-146.955 416.937,-152.066"/>
</g>
<!-- Node64 -->
<g id="node24" class="node"><title>Node64</title>
<g id="a_node24"><a xlink:href="namespacestr__utilities.html#a92ac6c0af1979df094de1caddd28ade0" target="_top" xlink:title="str_utilities::r2str">
<polygon fill="white" stroke="black" points="370,-0.5 370,-21.5 507,-21.5 507,-0.5 370,-0.5"/>
<text text-anchor="middle" x="438.5" y="-7.9" font-family="Ubuntu Mono" font-size="12.00">str_utilities::r2str</text>
</a>
</g>
</g>
<!-- Node63&#45;&gt;Node64 -->
<g id="edge40" class="edge"><title>Node63&#45;&gt;Node64</title>
<path fill="none" stroke="midnightblue" d="M305.079,-55.4836C314.425,-52.4456 324.622,-49.1104 334,-46 354.851,-39.0844 378.018,-31.2629 397.139,-24.7704"/>
<polygon fill="midnightblue" stroke="midnightblue" points="398.394,-28.0406 406.735,-21.5083 396.141,-21.413 398.394,-28.0406"/>
</g>
<!-- Node65&#45;&gt;Node42 -->
<g id="edge43" class="edge"><title>Node65&#45;&gt;Node42</title>
<path fill="none" stroke="midnightblue" d="M288.321,-330.547C314.644,-348.096 368.017,-383.678 403.264,-407.176"/>
<polygon fill="midnightblue" stroke="midnightblue" points="401.545,-410.236 411.806,-412.871 405.427,-404.412 401.545,-410.236"/>
</g>
<!-- Node65&#45;&gt;Node47 -->
<g id="edge45" class="edge"><title>Node65&#45;&gt;Node47</title>
<path fill="none" stroke="midnightblue" d="M322.019,-328.861C389.177,-340.09 512.99,-358 619.5,-358 619.5,-358 619.5,-358 979.5,-358 1092.14,-358 1222.12,-330.738 1291.58,-313.922"/>
<polygon fill="midnightblue" stroke="midnightblue" points="1292.5,-317.3 1301.38,-311.521 1290.83,-310.501 1292.5,-317.3"/>
</g>
<!-- Node65&#45;&gt;Node49 -->
<g id="edge46" class="edge"><title>Node65&#45;&gt;Node49</title>
<path fill="none" stroke="midnightblue" d="M322.205,-320C389.574,-320 513.623,-320 619.5,-320 619.5,-320 619.5,-320 800.5,-320 897.272,-320 1008.4,-313.145 1081.72,-307.67"/>
<polygon fill="midnightblue" stroke="midnightblue" points="1082.1,-311.151 1091.81,-306.908 1081.57,-304.171 1082.1,-311.151"/>
</g>
<!-- Node65&#45;&gt;Node54 -->
<g id="edge44" class="edge"><title>Node65&#45;&gt;Node54</title>
<path fill="none" stroke="midnightblue" d="M294.365,-309.39C306.632,-302.916 321.863,-293.978 334,-284 370.569,-253.936 405.391,-210.472 423.844,-185.86"/>
<polygon fill="midnightblue" stroke="midnightblue" points="426.743,-187.827 429.875,-177.706 421.115,-183.664 426.743,-187.827"/>
</g>
</g>
</svg>
