<?xml version="1.0" encoding="UTF-8" standalone="no"?>
<!DOCTYPE svg PUBLIC "-//W3C//DTD SVG 1.1//EN"
 "http://www.w3.org/Graphics/SVG/1.1/DTD/svg11.dtd">
<!-- Generated by graphviz version 2.43.0 (0)
 -->
<!-- Title: x_utilities::get_sec_x_range Pages: 1 -->
<svg width="799pt" height="195pt"
 viewBox="0.00 0.00 799.00 194.50" xmlns="http://www.w3.org/2000/svg" xmlns:xlink="http://www.w3.org/1999/xlink">
<g id="graph0" class="graph" transform="scale(1 1) rotate(0) translate(4 190.5)">
<title>x_utilities::get_sec_x_range</title>
<polygon fill="white" stroke="transparent" points="-4,4 -4,-190.5 795,-190.5 795,4 -4,4"/>
<!-- Node1 -->
<g id="node1" class="node">
<title>Node1</title>
<g id="a_node1"><a xlink:title="Gets one of the the local ranges of contiguous tensorial perturbation variables to be printed or read...">
<polygon fill="#bfbfbf" stroke="black" points="666,-99 666,-133 791,-133 791,-99 666,-99"/>
<text text-anchor="start" x="674" y="-119.4" font-family="Ubuntu Mono" font-size="12.00">x_utilities::get_sec</text>
<text text-anchor="middle" x="728.5" y="-106.4" font-family="Ubuntu Mono" font-size="12.00">_x_range</text>
</a>
</g>
</g>
<!-- Node2 -->
<g id="node2" class="node">
<title>Node2</title>
<g id="a_node2"><a xlink:href="interfacex__ops_1_1print__output__x.html#a0600bd1f9ed6ec2ba0c748d52a932bc6" target="_top" xlink:title="tensorial version">
<polygon fill="white" stroke="black" points="487.5,-152 487.5,-186 623.5,-186 623.5,-152 487.5,-152"/>
<text text-anchor="start" x="495.5" y="-172.4" font-family="Ubuntu Mono" font-size="12.00">x_ops::print_output</text>
<text text-anchor="middle" x="555.5" y="-159.4" font-family="Ubuntu Mono" font-size="12.00">_x::print_output_x_2</text>
</a>
</g>
</g>
<!-- Node1&#45;&gt;Node2 -->
<g id="edge1" class="edge">
<title>Node1&#45;&gt;Node2</title>
<path fill="none" stroke="midnightblue" d="M662.67,-136.09C645.79,-141.33 627.76,-146.91 611.44,-151.97"/>
<polygon fill="midnightblue" stroke="midnightblue" points="663.94,-139.36 672.45,-133.06 661.87,-132.68 663.94,-139.36"/>
</g>
<!-- Node3 -->
<g id="node3" class="node">
<title>Node3</title>
<g id="a_node3"><a xlink:href="namespacepb3d__ops.html#a281c496a42c4ea46606e929e10d51582" target="_top" xlink:title="Reconstructs the vacuum variables from PB3D HDF5 output.">
<polygon fill="white" stroke="black" points="481,-99 481,-133 630,-133 630,-99 481,-99"/>
<text text-anchor="start" x="489" y="-119.4" font-family="Ubuntu Mono" font-size="12.00">pb3d_ops::reconstruct</text>
<text text-anchor="middle" x="555.5" y="-106.4" font-family="Ubuntu Mono" font-size="12.00">_pb3d_vac</text>
</a>
</g>
</g>
<!-- Node1&#45;&gt;Node3 -->
<g id="edge2" class="edge">
<title>Node1&#45;&gt;Node3</title>
<path fill="none" stroke="midnightblue" d="M655.59,-116C647.16,-116 638.54,-116 630.09,-116"/>
<polygon fill="midnightblue" stroke="midnightblue" points="655.77,-119.5 665.77,-116 655.77,-112.5 655.77,-119.5"/>
</g>
<!-- Node11 -->
<g id="node11" class="node">
<title>Node11</title>
<g id="a_node11"><a xlink:href="namespacepb3d__ops.html#aff64b6722845a07139e2832c0be36145" target="_top" xlink:title="Reconstructs the tensorial perturbation variables from PB3D HDF5 output.">
<polygon fill="white" stroke="black" points="481,-33 481,-67 630,-67 630,-33 481,-33"/>
<text text-anchor="start" x="489" y="-53.4" font-family="Ubuntu Mono" font-size="12.00">pb3d_ops::reconstruct</text>
<text text-anchor="middle" x="555.5" y="-40.4" font-family="Ubuntu Mono" font-size="12.00">_pb3d_x_2</text>
</a>
</g>
</g>
<!-- Node1&#45;&gt;Node11 -->
<g id="edge11" class="edge">
<title>Node1&#45;&gt;Node11</title>
<path fill="none" stroke="midnightblue" d="M673.56,-95.18C650.12,-86.13 622.99,-75.66 600.76,-67.08"/>
<polygon fill="midnightblue" stroke="midnightblue" points="672.43,-98.5 683.02,-98.83 674.95,-91.97 672.43,-98.5"/>
</g>
<!-- Node4 -->
<g id="node4" class="node">
<title>Node4</title>
<g id="a_node4"><a xlink:href="namespacevac__ops.html#a5e5a8322b3aa2e3704b1050426f06d9d" target="_top" xlink:title="Calculates the vacuum response.">
<polygon fill="white" stroke="black" points="291.5,-158.5 291.5,-179.5 438.5,-179.5 438.5,-158.5 291.5,-158.5"/>
<text text-anchor="middle" x="365" y="-165.9" font-family="Ubuntu Mono" font-size="12.00">vac_ops::calc_vac_res</text>
</a>
</g>
</g>
<!-- Node3&#45;&gt;Node4 -->
<g id="edge3" class="edge">
<title>Node3&#45;&gt;Node4</title>
<path fill="none" stroke="midnightblue" d="M490.19,-135.9C475.39,-140.34 459.68,-144.93 445,-149 433.41,-152.21 420.81,-155.5 409.14,-158.45"/>
<polygon fill="midnightblue" stroke="midnightblue" points="491.21,-139.25 499.78,-133.02 489.19,-132.55 491.21,-139.25"/>
</g>
<!-- Node7 -->
<g id="node7" class="node">
<title>Node7</title>
<g id="a_node7"><a xlink:href="namespacedriver__post.html#af527706d4e696d4e507443d2f74194ef" target="_top" xlink:title="Initializes the POST driver.">
<polygon fill="white" stroke="black" points="295,-118.5 295,-139.5 435,-139.5 435,-118.5 295,-118.5"/>
<text text-anchor="middle" x="365" y="-125.9" font-family="Ubuntu Mono" font-size="12.00">driver_post::init_post</text>
</a>
</g>
</g>
<!-- Node3&#45;&gt;Node7 -->
<g id="edge6" class="edge">
<title>Node3&#45;&gt;Node7</title>
<path fill="none" stroke="midnightblue" d="M470.83,-121.77C458.86,-122.6 446.66,-123.44 435.02,-124.24"/>
<polygon fill="midnightblue" stroke="midnightblue" points="471.08,-125.26 480.81,-121.08 470.59,-118.28 471.08,-125.26"/>
</g>
<!-- Node9 -->
<g id="node9" class="node">
<title>Node9</title>
<g id="a_node9"><a xlink:href="namespacevac__ops.html#a37220702fbf378626a0f2c12f446e0aa" target="_top" xlink:title="Stores calculation of the vacuum response by storing the necessary variables.">
<polygon fill="white" stroke="black" points="300.5,-78.5 300.5,-99.5 429.5,-99.5 429.5,-78.5 300.5,-78.5"/>
<text text-anchor="middle" x="365" y="-85.9" font-family="Ubuntu Mono" font-size="12.00">vac_ops::store_vac</text>
</a>
</g>
</g>
<!-- Node3&#45;&gt;Node9 -->
<g id="edge8" class="edge">
<title>Node3&#45;&gt;Node9</title>
<path fill="none" stroke="midnightblue" d="M470.8,-104.01C456.95,-102.03 442.8,-100 429.55,-98.1"/>
<polygon fill="midnightblue" stroke="midnightblue" points="470.42,-107.49 480.81,-105.45 471.41,-100.56 470.42,-107.49"/>
</g>
<!-- Node5 -->
<g id="node5" class="node">
<title>Node5</title>
<g id="a_node5"><a xlink:href="namespacedriver__sol.html#ad3b1765b3ecc5f82129bfc683ffc6c5c" target="_top" xlink:title="Main driver of PB3D solution part.">
<polygon fill="white" stroke="black" points="83,-158.5 83,-179.5 249,-179.5 249,-158.5 83,-158.5"/>
<text text-anchor="middle" x="166" y="-165.9" font-family="Ubuntu Mono" font-size="12.00">driver_sol::run_driver_sol</text>
</a>
</g>
</g>
<!-- Node4&#45;&gt;Node5 -->
<g id="edge4" class="edge">
<title>Node4&#45;&gt;Node5</title>
<path fill="none" stroke="midnightblue" d="M281.33,-169C270.64,-169 259.69,-169 249.01,-169"/>
<polygon fill="midnightblue" stroke="midnightblue" points="281.48,-172.5 291.48,-169 281.48,-165.5 281.48,-172.5"/>
</g>
<!-- Node6 -->
<g id="node6" class="node">
<title>Node6</title>
<g id="a_node6"><a xlink:href="PB3D_8f90.html#afaee01f014ab3398eecac996b2795fd2" target="_top" xlink:title="Peeling Ballooning in 3D.">
<polygon fill="white" stroke="black" points="0,-78.5 0,-99.5 47,-99.5 47,-78.5 0,-78.5"/>
<text text-anchor="middle" x="23.5" y="-85.9" font-family="Ubuntu Mono" font-size="12.00">pb3d</text>
</a>
</g>
</g>
<!-- Node5&#45;&gt;Node6 -->
<g id="edge5" class="edge">
<title>Node5&#45;&gt;Node6</title>
<path fill="none" stroke="midnightblue" d="M95.31,-154.97C91.04,-153.21 86.9,-151.23 83,-149 61.01,-136.45 41.89,-113.24 31.89,-99.66"/>
<polygon fill="midnightblue" stroke="midnightblue" points="94.22,-158.29 104.81,-158.48 96.65,-151.73 94.22,-158.29"/>
</g>
<!-- Node8 -->
<g id="node8" class="node">
<title>Node8</title>
<g id="a_node8"><a xlink:href="POST_8f90.html#ac289b64ac4671fea0b4f2298ba1188a1" target="_top" xlink:title="Peeling Ballooning in 3D: postprocessing.">
<polygon fill="white" stroke="black" points="145,-118.5 145,-139.5 187,-139.5 187,-118.5 145,-118.5"/>
<text text-anchor="middle" x="166" y="-125.9" font-family="Ubuntu Mono" font-size="12.00">post</text>
</a>
</g>
</g>
<!-- Node7&#45;&gt;Node8 -->
<g id="edge7" class="edge">
<title>Node7&#45;&gt;Node8</title>
<path fill="none" stroke="midnightblue" d="M284.47,-129C249.1,-129 210.34,-129 187.38,-129"/>
<polygon fill="midnightblue" stroke="midnightblue" points="284.82,-132.5 294.82,-129 284.82,-125.5 284.82,-132.5"/>
</g>
<!-- Node10 -->
<g id="node10" class="node">
<title>Node10</title>
<g id="a_node10"><a xlink:href="namespacedriver__eq.html#adc9d5dff288fa512e5ef885627d940cc" target="_top" xlink:title="Main driver of PB3D equilibrium part.">
<polygon fill="white" stroke="black" points="84.5,-78.5 84.5,-99.5 247.5,-99.5 247.5,-78.5 84.5,-78.5"/>
<text text-anchor="middle" x="166" y="-85.9" font-family="Ubuntu Mono" font-size="12.00">driver_eq::run_driver_eq</text>
</a>
</g>
</g>
<!-- Node9&#45;&gt;Node10 -->
<g id="edge9" class="edge">
<title>Node9&#45;&gt;Node10</title>
<path fill="none" stroke="midnightblue" d="M289.93,-89C276.16,-89 261.71,-89 247.75,-89"/>
<polygon fill="midnightblue" stroke="midnightblue" points="290.31,-92.5 300.31,-89 290.31,-85.5 290.31,-92.5"/>
</g>
<!-- Node10&#45;&gt;Node6 -->
<g id="edge10" class="edge">
<title>Node10&#45;&gt;Node6</title>
<path fill="none" stroke="midnightblue" d="M74.33,-89C64.33,-89 54.93,-89 47.05,-89"/>
<polygon fill="midnightblue" stroke="midnightblue" points="74.49,-92.5 84.49,-89 74.49,-85.5 74.49,-92.5"/>
</g>
<!-- Node12 -->
<g id="node12" class="node">
<title>Node12</title>
<g id="a_node12"><a xlink:href="namespacedriver__x.html#ada3d72a0929daaa5e3da585246d62281" target="_top" xlink:title="Main driver of PB3D perturbation part.">
<polygon fill="white" stroke="black" points="93,-38.5 93,-59.5 239,-59.5 239,-38.5 93,-38.5"/>
<text text-anchor="middle" x="166" y="-45.9" font-family="Ubuntu Mono" font-size="12.00">driver_x::run_driver_x</text>
</a>
</g>
</g>
<!-- Node11&#45;&gt;Node12 -->
<g id="edge12" class="edge">
<title>Node11&#45;&gt;Node12</title>
<path fill="none" stroke="midnightblue" d="M470.3,-49.78C401.31,-49.6 304.72,-49.36 239.21,-49.19"/>
<polygon fill="midnightblue" stroke="midnightblue" points="470.69,-53.28 480.7,-49.81 470.71,-46.28 470.69,-53.28"/>
</g>
<!-- Node13 -->
<g id="node13" class="node">
<title>Node13</title>
<g id="a_node13"><a xlink:href="namespacedriver__x.html#ad3924b3d66f336f0a9a9559eafffec8e" target="_top" xlink:title="Part 2 of driver_X: Tensorial jobs.">
<polygon fill="white" stroke="black" points="285,-0.5 285,-21.5 445,-21.5 445,-0.5 285,-0.5"/>
<text text-anchor="middle" x="365" y="-7.9" font-family="Ubuntu Mono" font-size="12.00">driver_x::run_driver_x_2</text>
</a>
</g>
</g>
<!-- Node11&#45;&gt;Node13 -->
<g id="edge14" class="edge">
<title>Node11&#45;&gt;Node13</title>
<path fill="none" stroke="midnightblue" d="M470.96,-32.71C452.55,-28.91 433.59,-24.98 416.93,-21.54"/>
<polygon fill="midnightblue" stroke="midnightblue" points="470.31,-36.16 480.81,-34.75 471.73,-29.3 470.31,-36.16"/>
</g>
<!-- Node12&#45;&gt;Node6 -->
<g id="edge13" class="edge">
<title>Node12&#45;&gt;Node6</title>
<path fill="none" stroke="midnightblue" d="M108.46,-62.08C99.89,-64.27 91.19,-66.61 83,-69 71.05,-72.49 57.92,-76.93 47.13,-80.73"/>
<polygon fill="midnightblue" stroke="midnightblue" points="109.55,-65.42 118.4,-59.59 107.85,-58.63 109.55,-65.42"/>
</g>
<!-- Node13&#45;&gt;Node12 -->
<g id="edge15" class="edge">
<title>Node13&#45;&gt;Node12</title>
<path fill="none" stroke="midnightblue" d="M299.56,-23.43C274.4,-28.28 245.86,-33.79 221.72,-38.44"/>
<polygon fill="midnightblue" stroke="midnightblue" points="300.23,-26.87 309.39,-21.53 298.9,-19.99 300.23,-26.87"/>
</g>
</g>
</svg>
