<?xml version="1.0" encoding="UTF-8" standalone="no"?>
<!DOCTYPE svg PUBLIC "-//W3C//DTD SVG 1.1//EN"
 "http://www.w3.org/Graphics/SVG/1.1/DTD/svg11.dtd">
<!-- Generated by graphviz version 2.38.0 (20140413.2041)
 -->
<!-- Title: str_utilities::c2strt Pages: 1 -->
<svg width="825pt" height="117pt"
 viewBox="0.00 0.00 825.00 116.50" xmlns="http://www.w3.org/2000/svg" xmlns:xlink="http://www.w3.org/1999/xlink">
<g id="graph0" class="graph" transform="scale(1 1) rotate(0) translate(4 112.5)">
<title>str_utilities::c2strt</title>
<polygon fill="white" stroke="none" points="-4,4 -4,-112.5 821,-112.5 821,4 -4,4"/>
<!-- Node15 -->
<g id="node1" class="node"><title>Node15</title>
<polygon fill="#bfbfbf" stroke="black" points="0,-47 0,-68 143,-68 143,-47 0,-47"/>
<text text-anchor="middle" x="71.5" y="-54.4" font-family="Ubuntu Mono" font-size="12.00">str_utilities::c2strt</text>
</g>
<!-- Node16 -->
<g id="node2" class="node"><title>Node16</title>
<g id="a_node2"><a xlink:href="namespacedriver__post.html#af527706d4e696d4e507443d2f74194ef" target="_top" xlink:title="Initializes the POST driver. ">
<polygon fill="white" stroke="black" points="197,-87 197,-108 346,-108 346,-87 197,-87"/>
<text text-anchor="middle" x="271.5" y="-94.4" font-family="Ubuntu Mono" font-size="12.00">driver_post::init_post</text>
</a>
</g>
</g>
<!-- Node15&#45;&gt;Node16 -->
<g id="edge1" class="edge"><title>Node15&#45;&gt;Node16</title>
<path fill="none" stroke="midnightblue" d="M134.623,-70.05C161.573,-75.4946 192.778,-81.7986 218.482,-86.9913"/>
<polygon fill="midnightblue" stroke="midnightblue" points="135.017,-66.5591 124.522,-68.0095 133.631,-73.4205 135.017,-66.5591"/>
</g>
<!-- Node18 -->
<g id="node4" class="node"><title>Node18</title>
<g id="a_node4"><a xlink:href="namespacedriver__post.html#a33b3c6f9018a0ddc92dce77394b8ab37" target="_top" xlink:title="The main driver routine for postprocessing. ">
<polygon fill="white" stroke="black" points="179,-47 179,-68 364,-68 364,-47 179,-47"/>
<text text-anchor="middle" x="271.5" y="-54.4" font-family="Ubuntu Mono" font-size="12.00">driver_post::run_driver_post</text>
</a>
</g>
</g>
<!-- Node15&#45;&gt;Node18 -->
<g id="edge3" class="edge"><title>Node15&#45;&gt;Node18</title>
<path fill="none" stroke="midnightblue" d="M153.284,-57.5C161.685,-57.5 170.267,-57.5 178.777,-57.5"/>
<polygon fill="midnightblue" stroke="midnightblue" points="153.144,-54.0001 143.144,-57.5 153.144,-61.0001 153.144,-54.0001"/>
</g>
<!-- Node19 -->
<g id="node5" class="node"><title>Node19</title>
<g id="a_node5"><a xlink:href="namespaceslepc__ops.html#a24d97496000ed55f1d11e4d436e084a6" target="_top" xlink:title="Stores the results. ">
<polygon fill="white" stroke="black" points="191,-7 191,-28 352,-28 352,-7 191,-7"/>
<text text-anchor="middle" x="271.5" y="-14.4" font-family="Ubuntu Mono" font-size="12.00">slepc_ops::store_results</text>
</a>
</g>
</g>
<!-- Node15&#45;&gt;Node19 -->
<g id="edge5" class="edge"><title>Node15&#45;&gt;Node19</title>
<path fill="none" stroke="midnightblue" d="M134.623,-44.95C161.573,-39.5054 192.778,-33.2014 218.482,-28.0087"/>
<polygon fill="midnightblue" stroke="midnightblue" points="133.631,-41.5795 124.522,-46.9905 135.017,-48.4409 133.631,-41.5795"/>
</g>
<!-- Node17 -->
<g id="node3" class="node"><title>Node17</title>
<g id="a_node3"><a xlink:href="POST_8f90.html#ac289b64ac4671fea0b4f2298ba1188a1" target="_top" xlink:title="Peeling Ballooning in 3D: postprocessing. ">
<polygon fill="white" stroke="black" points="445,-70 445,-91 486,-91 486,-70 445,-70"/>
<text text-anchor="middle" x="465.5" y="-77.4" font-family="Ubuntu Mono" font-size="12.00">post</text>
</a>
</g>
</g>
<!-- Node16&#45;&gt;Node17 -->
<g id="edge2" class="edge"><title>Node16&#45;&gt;Node17</title>
<path fill="none" stroke="midnightblue" d="M356.273,-90.0826C389.041,-87.1812 423.742,-84.1088 444.765,-82.2473"/>
<polygon fill="midnightblue" stroke="midnightblue" points="355.835,-86.6076 346.183,-90.976 356.453,-93.5803 355.835,-86.6076"/>
</g>
<!-- Node18&#45;&gt;Node17 -->
<g id="edge4" class="edge"><title>Node18&#45;&gt;Node17</title>
<path fill="none" stroke="midnightblue" d="M370.373,-69.2244C398.725,-72.6207 426.858,-75.9908 444.877,-78.1494"/>
<polygon fill="midnightblue" stroke="midnightblue" points="370.698,-65.7383 360.352,-68.024 369.865,-72.6886 370.698,-65.7383"/>
</g>
<!-- Node20 -->
<g id="node6" class="node"><title>Node20</title>
<g id="a_node6"><a xlink:href="namespaceslepc__ops.html#a79c420987056c225931b51c8d30ece1f" target="_top" xlink:title="Solve the eigenvalue system using SLEPC. ">
<polygon fill="white" stroke="black" points="400,-0.5 400,-34.5 531,-34.5 531,-0.5 400,-0.5"/>
<text text-anchor="start" x="408" y="-20.9" font-family="Ubuntu Mono" font-size="12.00">slepc_ops::solve_ev</text>
<text text-anchor="middle" x="465.5" y="-7.9" font-family="Ubuntu Mono" font-size="12.00">_system_slepc</text>
</a>
</g>
</g>
<!-- Node19&#45;&gt;Node20 -->
<g id="edge6" class="edge"><title>Node19&#45;&gt;Node20</title>
<path fill="none" stroke="midnightblue" d="M362.362,-17.5C375.022,-17.5 387.824,-17.5 399.884,-17.5"/>
<polygon fill="midnightblue" stroke="midnightblue" points="362.257,-14.0001 352.257,-17.5 362.257,-21.0001 362.257,-14.0001"/>
</g>
<!-- Node21 -->
<g id="node7" class="node"><title>Node21</title>
<g id="a_node7"><a xlink:href="namespacedriver__sol.html#ad3b1765b3ecc5f82129bfc683ffc6c5c" target="_top" xlink:title="Main driver of PB3D solution part. ">
<polygon fill="white" stroke="black" points="567,-7 567,-28 740,-28 740,-7 567,-7"/>
<text text-anchor="middle" x="653.5" y="-14.4" font-family="Ubuntu Mono" font-size="12.00">driver_sol::run_driver_sol</text>
</a>
</g>
</g>
<!-- Node20&#45;&gt;Node21 -->
<g id="edge7" class="edge"><title>Node20&#45;&gt;Node21</title>
<path fill="none" stroke="midnightblue" d="M541.183,-17.5C549.607,-17.5 558.239,-17.5 566.788,-17.5"/>
<polygon fill="midnightblue" stroke="midnightblue" points="541.032,-14.0001 531.032,-17.5 541.032,-21.0001 541.032,-14.0001"/>
</g>
<!-- Node22 -->
<g id="node8" class="node"><title>Node22</title>
<g id="a_node8"><a xlink:href="PB3D_8f90.html#afaee01f014ab3398eecac996b2795fd2" target="_top" xlink:title="Peeling Ballooning in 3D. ">
<polygon fill="white" stroke="black" points="776,-7 776,-28 817,-28 817,-7 776,-7"/>
<text text-anchor="middle" x="796.5" y="-14.4" font-family="Ubuntu Mono" font-size="12.00">pb3d</text>
</a>
</g>
</g>
<!-- Node21&#45;&gt;Node22 -->
<g id="edge8" class="edge"><title>Node21&#45;&gt;Node22</title>
<path fill="none" stroke="midnightblue" d="M750.337,-17.5C759.873,-17.5 768.695,-17.5 775.964,-17.5"/>
<polygon fill="midnightblue" stroke="midnightblue" points="750.178,-14.0001 740.178,-17.5 750.178,-21.0001 750.178,-14.0001"/>
</g>
</g>
</svg>
