<?xml version="1.0" encoding="UTF-8" standalone="no"?>
<!DOCTYPE svg PUBLIC "-//W3C//DTD SVG 1.1//EN"
 "http://www.w3.org/Graphics/SVG/1.1/DTD/svg11.dtd">
<!-- Generated by graphviz version 2.38.0 (20140413.2041)
 -->
<!-- Title: grid_ops::magn_grid_plot Pages: 1 -->
<svg width="1136pt" height="703pt"
 viewBox="0.00 0.00 1136.00 703.00" xmlns="http://www.w3.org/2000/svg" xmlns:xlink="http://www.w3.org/1999/xlink">
<g id="graph0" class="graph" transform="scale(1 1) rotate(0) translate(4 699)">
<title>grid_ops::magn_grid_plot</title>
<polygon fill="white" stroke="none" points="-4,4 -4,-699 1132,-699 1132,4 -4,4"/>
<!-- Node32 -->
<g id="node1" class="node"><title>Node32</title>
<polygon fill="#bfbfbf" stroke="black" points="0,-521.5 0,-542.5 161,-542.5 161,-521.5 0,-521.5"/>
<text text-anchor="middle" x="80.5" y="-528.9" font-family="Ubuntu Mono" font-size="12.00">grid_ops::magn_grid_plot</text>
</g>
<!-- Node33 -->
<g id="node2" class="node"><title>Node33</title>
<g id="a_node2"><a xlink:href="namespacegrid__utilities.html#a67001ff9bbcad707aacf17f90a748d90" target="_top" xlink:title="grid_utilities::trim_grid">
<polygon fill="white" stroke="black" points="197,-673.5 197,-694.5 364,-694.5 364,-673.5 197,-673.5"/>
<text text-anchor="middle" x="280.5" y="-680.9" font-family="Ubuntu Mono" font-size="12.00">grid_utilities::trim_grid</text>
</a>
</g>
</g>
<!-- Node32&#45;&gt;Node33 -->
<g id="edge1" class="edge"><title>Node32&#45;&gt;Node33</title>
<path fill="none" stroke="midnightblue" d="M87.774,-542.763C103.042,-567.959 144.744,-631.053 197,-663 201.193,-665.563 205.688,-667.815 210.337,-669.793"/>
<polygon fill="midnightblue" stroke="midnightblue" points="209.455,-673.202 220.046,-673.48 211.94,-666.658 209.455,-673.202"/>
</g>
<!-- Node34 -->
<g id="node3" class="node"><title>Node34</title>
<g id="a_node3"><a xlink:href="namespacegrid__utilities.html#a414a1a11924bc935afca3a89fc31f2f5" target="_top" xlink:title="grid_utilities::extend\l_grid_f">
<polygon fill="white" stroke="black" points="206,-620 206,-654 355,-654 355,-620 206,-620"/>
<text text-anchor="start" x="214" y="-640.4" font-family="Ubuntu Mono" font-size="12.00">grid_utilities::extend</text>
<text text-anchor="middle" x="280.5" y="-627.4" font-family="Ubuntu Mono" font-size="12.00">_grid_f</text>
</a>
</g>
</g>
<!-- Node32&#45;&gt;Node34 -->
<g id="edge2" class="edge"><title>Node32&#45;&gt;Node34</title>
<path fill="none" stroke="midnightblue" d="M94.617,-542.662C115.297,-559.041 157.228,-590.536 197,-610 201.537,-612.22 206.3,-614.322 211.152,-616.298"/>
<polygon fill="midnightblue" stroke="midnightblue" points="209.968,-619.593 220.557,-619.942 212.496,-613.065 209.968,-619.593"/>
</g>
<!-- Node35 -->
<g id="node4" class="node"><title>Node35</title>
<g id="a_node4"><a xlink:href="namespacemessages.html#aa4a8d01563e92558e8a0875b075ec54c" target="_top" xlink:title="messages::writo">
<polygon fill="white" stroke="black" points="633,-502.5 633,-523.5 740,-523.5 740,-502.5 633,-502.5"/>
<text text-anchor="middle" x="686.5" y="-509.9" font-family="Ubuntu Mono" font-size="12.00">messages::writo</text>
</a>
</g>
</g>
<!-- Node32&#45;&gt;Node35 -->
<g id="edge17" class="edge"><title>Node32&#45;&gt;Node35</title>
<path fill="none" stroke="midnightblue" d="M161.184,-536.811C257.544,-541.557 424.545,-546.352 567,-533 585.403,-531.275 605.261,-528.349 623.363,-525.259"/>
<polygon fill="midnightblue" stroke="midnightblue" points="623.972,-528.706 633.218,-523.533 622.764,-521.811 623.972,-528.706"/>
</g>
<!-- Node40 -->
<g id="node9" class="node"><title>Node40</title>
<g id="a_node9"><a xlink:href="namespacegrid__utilities.html#a39e7cd9b8f173994358dbdd6b57827e1" target="_top" xlink:title="grid_utilities::calc\l_xyz_grid">
<polygon fill="white" stroke="black" points="212,-34 212,-68 349,-68 349,-34 212,-34"/>
<text text-anchor="start" x="220" y="-54.4" font-family="Ubuntu Mono" font-size="12.00">grid_utilities::calc</text>
<text text-anchor="middle" x="280.5" y="-41.4" font-family="Ubuntu Mono" font-size="12.00">_xyz_grid</text>
</a>
</g>
</g>
<!-- Node32&#45;&gt;Node40 -->
<g id="edge8" class="edge"><title>Node32&#45;&gt;Node40</title>
<path fill="none" stroke="midnightblue" d="M86.0075,-521.05C110.867,-460.66 231.448,-167.731 268.589,-77.5066"/>
<polygon fill="midnightblue" stroke="midnightblue" points="271.931,-78.5826 272.501,-68.0031 265.458,-75.918 271.931,-78.5826"/>
</g>
<!-- Node45 -->
<g id="node14" class="node"><title>Node45</title>
<g id="a_node14"><a xlink:href="namespacevmec__utilities.html#ac699116fc25fdea3e28e488513d97c87" target="_top" xlink:title="vmec_utilities::calc\l_trigon_factors">
<polygon fill="white" stroke="black" points="415,-449 415,-483 552,-483 552,-449 415,-449"/>
<text text-anchor="start" x="423" y="-469.4" font-family="Ubuntu Mono" font-size="12.00">vmec_utilities::calc</text>
<text text-anchor="middle" x="483.5" y="-456.4" font-family="Ubuntu Mono" font-size="12.00">_trigon_factors</text>
</a>
</g>
</g>
<!-- Node32&#45;&gt;Node45 -->
<g id="edge14" class="edge"><title>Node32&#45;&gt;Node45</title>
<path fill="none" stroke="midnightblue" d="M145.483,-521.469C215.952,-509.871 329.268,-491.22 404.788,-478.79"/>
<polygon fill="midnightblue" stroke="midnightblue" points="405.426,-482.233 414.725,-477.155 404.289,-475.326 405.426,-482.233"/>
</g>
<!-- Node46 -->
<g id="node15" class="node"><title>Node46</title>
<g id="a_node15"><a xlink:href="namespacemessages.html#a6e6bfb084063e4cc91ee86e542043302" target="_top" xlink:title="messages::lvl_ud">
<polygon fill="white" stroke="black" points="427,-502.5 427,-523.5 540,-523.5 540,-502.5 427,-502.5"/>
<text text-anchor="middle" x="483.5" y="-509.9" font-family="Ubuntu Mono" font-size="12.00">messages::lvl_ud</text>
</a>
</g>
</g>
<!-- Node32&#45;&gt;Node46 -->
<g id="edge18" class="edge"><title>Node32&#45;&gt;Node46</title>
<path fill="none" stroke="midnightblue" d="M161.204,-528.223C236.093,-524.675 346.826,-519.428 416.785,-516.114"/>
<polygon fill="midnightblue" stroke="midnightblue" points="416.979,-519.609 426.802,-515.639 416.647,-512.616 416.979,-519.609"/>
</g>
<!-- Node47 -->
<g id="node16" class="node"><title>Node47</title>
<g id="a_node16"><a xlink:href="grid__ops_8f90.html#ab54f19ae54d39ec48cd2602f7ed0e73b" target="_top" xlink:title="get_full_xyz">
<polygon fill="white" stroke="black" points="236,-579.5 236,-600.5 325,-600.5 325,-579.5 236,-579.5"/>
<text text-anchor="middle" x="280.5" y="-586.9" font-family="Ubuntu Mono" font-size="12.00">get_full_xyz</text>
</a>
</g>
</g>
<!-- Node32&#45;&gt;Node47 -->
<g id="edge20" class="edge"><title>Node32&#45;&gt;Node47</title>
<path fill="none" stroke="midnightblue" d="M117.356,-542.503C150.055,-552.082 198.526,-566.28 233.954,-576.658"/>
<polygon fill="midnightblue" stroke="midnightblue" points="232.996,-580.025 243.576,-579.477 234.964,-573.307 232.996,-580.025"/>
</g>
<!-- Node48 -->
<g id="node17" class="node"><title>Node48</title>
<g id="a_node17"><a xlink:href="grid__ops_8f90.html#a7bfbb51880742066ae3add67ee03df2d" target="_top" xlink:title="magn_grid_plot_hdf5">
<polygon fill="white" stroke="black" points="215,-276.5 215,-297.5 346,-297.5 346,-276.5 215,-276.5"/>
<text text-anchor="middle" x="280.5" y="-283.9" font-family="Ubuntu Mono" font-size="12.00">magn_grid_plot_hdf5</text>
</a>
</g>
</g>
<!-- Node32&#45;&gt;Node48 -->
<g id="edge22" class="edge"><title>Node32&#45;&gt;Node48</title>
<path fill="none" stroke="midnightblue" d="M90.0078,-521.473C120.592,-483.628 225.224,-354.16 264.469,-305.599"/>
<polygon fill="midnightblue" stroke="midnightblue" points="267.237,-307.742 270.801,-297.764 261.793,-303.342 267.237,-307.742"/>
</g>
<!-- Node34&#45;&gt;Node35 -->
<g id="edge3" class="edge"><title>Node34&#45;&gt;Node35</title>
<path fill="none" stroke="midnightblue" d="M338.846,-654.062C398.658,-668.596 493.736,-682.337 567,-649 619.728,-625.008 658.127,-564.679 675.374,-533.054"/>
<polygon fill="midnightblue" stroke="midnightblue" points="678.646,-534.353 680.222,-523.876 672.456,-531.084 678.646,-534.353"/>
</g>
<!-- Node39 -->
<g id="node8" class="node"><title>Node39</title>
<g id="a_node8"><a xlink:href="namespacestr__utilities.html#ac778d706b2e021672618939ab58fdd32" target="_top" xlink:title="str_utilities::r2strt">
<polygon fill="white" stroke="black" points="412,-618.5 412,-639.5 555,-639.5 555,-618.5 412,-618.5"/>
<text text-anchor="middle" x="483.5" y="-625.9" font-family="Ubuntu Mono" font-size="12.00">str_utilities::r2strt</text>
</a>
</g>
</g>
<!-- Node34&#45;&gt;Node39 -->
<g id="edge7" class="edge"><title>Node34&#45;&gt;Node39</title>
<path fill="none" stroke="midnightblue" d="M355.204,-634.067C370.369,-633.463 386.412,-632.824 401.809,-632.212"/>
<polygon fill="midnightblue" stroke="midnightblue" points="401.965,-635.708 411.818,-631.813 401.687,-628.714 401.965,-635.708"/>
</g>
<!-- Node36 -->
<g id="node5" class="node"><title>Node36</title>
<g id="a_node5"><a xlink:href="namespacemessages.html#a82dddaab795b78b3d39e1ff1aab2f665" target="_top" xlink:title="messages::get_mem_usage">
<polygon fill="white" stroke="black" points="806,-482.5 806,-503.5 961,-503.5 961,-482.5 806,-482.5"/>
<text text-anchor="middle" x="883.5" y="-489.9" font-family="Ubuntu Mono" font-size="12.00">messages::get_mem_usage</text>
</a>
</g>
</g>
<!-- Node35&#45;&gt;Node36 -->
<g id="edge4" class="edge"><title>Node35&#45;&gt;Node36</title>
<path fill="none" stroke="midnightblue" d="M740.013,-507.614C757.129,-505.859 776.614,-503.86 795.56,-501.917"/>
<polygon fill="midnightblue" stroke="midnightblue" points="796.116,-505.378 805.707,-500.876 795.402,-498.415 796.116,-505.378"/>
</g>
<!-- Node37 -->
<g id="node6" class="node"><title>Node37</title>
<g id="a_node6"><a xlink:href="messages_8f90.html#a6d15f28783f95a7a4b2a44185619792f" target="_top" xlink:title="format_str">
<polygon fill="white" stroke="black" points="845,-522.5 845,-543.5 922,-543.5 922,-522.5 845,-522.5"/>
<text text-anchor="middle" x="883.5" y="-529.9" font-family="Ubuntu Mono" font-size="12.00">format_str</text>
</a>
</g>
</g>
<!-- Node35&#45;&gt;Node37 -->
<g id="edge5" class="edge"><title>Node35&#45;&gt;Node37</title>
<path fill="none" stroke="midnightblue" d="M740.013,-518.386C769.45,-521.405 805.894,-525.143 834.555,-528.083"/>
<polygon fill="midnightblue" stroke="midnightblue" points="834.431,-531.588 844.735,-529.127 835.145,-524.625 834.431,-531.588"/>
</g>
<!-- Node38 -->
<g id="node7" class="node"><title>Node38</title>
<g id="a_node7"><a xlink:href="namespacemessages.html#a61fd0b51b5e37d58fdc993c01792a3fd" target="_top" xlink:title="messages::get_clock">
<polygon fill="white" stroke="black" points="997,-522.5 997,-543.5 1128,-543.5 1128,-522.5 997,-522.5"/>
<text text-anchor="middle" x="1062.5" y="-529.9" font-family="Ubuntu Mono" font-size="12.00">messages::get_clock</text>
</a>
</g>
</g>
<!-- Node37&#45;&gt;Node38 -->
<g id="edge6" class="edge"><title>Node37&#45;&gt;Node38</title>
<path fill="none" stroke="midnightblue" d="M922.037,-533C940.869,-533 964.372,-533 986.685,-533"/>
<polygon fill="midnightblue" stroke="midnightblue" points="986.832,-536.5 996.832,-533 986.832,-529.5 986.832,-536.5"/>
</g>
<!-- Node41 -->
<g id="node10" class="node"><title>Node41</title>
<g id="a_node10"><a xlink:href="grid__utilities_8f90.html#aaabf4a8fdce3679e99ff8f8a9a30fcaf" target="_top" xlink:title="calc_xyz_grid_vmec">
<polygon fill="white" stroke="black" points="421,-40.5 421,-61.5 546,-61.5 546,-40.5 421,-40.5"/>
<text text-anchor="middle" x="483.5" y="-47.9" font-family="Ubuntu Mono" font-size="12.00">calc_xyz_grid_vmec</text>
</a>
</g>
</g>
<!-- Node40&#45;&gt;Node41 -->
<g id="edge9" class="edge"><title>Node40&#45;&gt;Node41</title>
<path fill="none" stroke="midnightblue" d="M349.269,-51C368.971,-51 390.556,-51 410.508,-51"/>
<polygon fill="midnightblue" stroke="midnightblue" points="410.773,-54.5001 420.773,-51 410.773,-47.5001 410.773,-54.5001"/>
</g>
<!-- Node44 -->
<g id="node13" class="node"><title>Node44</title>
<g id="a_node13"><a xlink:href="grid__utilities_8f90.html#ad39ac81f24bae991c679caf84a4ad757" target="_top" xlink:title="calc_xyz_grid_hel">
<polygon fill="white" stroke="black" points="424,-0.5 424,-21.5 543,-21.5 543,-0.5 424,-0.5"/>
<text text-anchor="middle" x="483.5" y="-7.9" font-family="Ubuntu Mono" font-size="12.00">calc_xyz_grid_hel</text>
</a>
</g>
</g>
<!-- Node40&#45;&gt;Node44 -->
<g id="edge12" class="edge"><title>Node40&#45;&gt;Node44</title>
<path fill="none" stroke="midnightblue" d="M349.269,-37.5136C372.001,-32.9899 397.24,-27.9671 419.584,-23.5206"/>
<polygon fill="midnightblue" stroke="midnightblue" points="420.502,-26.9065 429.627,-21.522 419.136,-20.0412 420.502,-26.9065"/>
</g>
<!-- Node42 -->
<g id="node11" class="node"><title>Node42</title>
<g id="a_node11"><a xlink:href="namespacegrid__utilities.html#a43206328f85253a6cc821cd46a498bb6" target="_top" xlink:title="grid_utilities::setup\l_interp_data">
<polygon fill="white" stroke="black" points="615,-34 615,-68 758,-68 758,-34 615,-34"/>
<text text-anchor="start" x="623" y="-54.4" font-family="Ubuntu Mono" font-size="12.00">grid_utilities::setup</text>
<text text-anchor="middle" x="686.5" y="-41.4" font-family="Ubuntu Mono" font-size="12.00">_interp_data</text>
</a>
</g>
</g>
<!-- Node41&#45;&gt;Node42 -->
<g id="edge10" class="edge"><title>Node41&#45;&gt;Node42</title>
<path fill="none" stroke="midnightblue" d="M546.173,-51C564.647,-51 585.191,-51 604.703,-51"/>
<polygon fill="midnightblue" stroke="midnightblue" points="604.796,-54.5001 614.796,-51 604.796,-47.5001 604.796,-54.5001"/>
</g>
<!-- Node43 -->
<g id="node12" class="node"><title>Node43</title>
<g id="a_node12"><a xlink:href="namespacestr__utilities.html#a0b97e51770725a3e98ed393d26681414" target="_top" xlink:title="str_utilities::i2str">
<polygon fill="white" stroke="black" points="815,-254.5 815,-275.5 952,-275.5 952,-254.5 815,-254.5"/>
<text text-anchor="middle" x="883.5" y="-261.9" font-family="Ubuntu Mono" font-size="12.00">str_utilities::i2str</text>
</a>
</g>
</g>
<!-- Node42&#45;&gt;Node43 -->
<g id="edge11" class="edge"><title>Node42&#45;&gt;Node43</title>
<path fill="none" stroke="midnightblue" d="M716.794,-68.1867C733.433,-78.7489 754.058,-93.2489 770,-109 813.724,-152.201 852.735,-213.932 871.204,-245.209"/>
<polygon fill="midnightblue" stroke="midnightblue" points="868.401,-247.351 876.458,-254.231 874.45,-243.829 868.401,-247.351"/>
</g>
<!-- Node44&#45;&gt;Node42 -->
<g id="edge13" class="edge"><title>Node44&#45;&gt;Node42</title>
<path fill="none" stroke="midnightblue" d="M537.31,-21.5095C557.98,-25.6228 582.153,-30.4334 604.907,-34.9616"/>
<polygon fill="midnightblue" stroke="midnightblue" points="604.409,-38.4311 614.9,-36.9502 605.775,-31.5657 604.409,-38.4311"/>
</g>
<!-- Node45&#45;&gt;Node35 -->
<g id="edge15" class="edge"><title>Node45&#45;&gt;Node35</title>
<path fill="none" stroke="midnightblue" d="M552.269,-481.847C577.699,-487.793 606.267,-494.473 630.408,-500.118"/>
<polygon fill="midnightblue" stroke="midnightblue" points="629.927,-503.6 640.462,-502.469 631.521,-496.784 629.927,-503.6"/>
</g>
<!-- Node45&#45;&gt;Node43 -->
<g id="edge16" class="edge"><title>Node45&#45;&gt;Node43</title>
<path fill="none" stroke="midnightblue" d="M552.109,-469.534C613.349,-469.61 703.849,-461.664 770,-421 823.621,-388.038 859.272,-319.038 874.344,-284.942"/>
<polygon fill="midnightblue" stroke="midnightblue" points="877.643,-286.131 878.358,-275.56 871.207,-283.378 877.643,-286.131"/>
</g>
<!-- Node46&#45;&gt;Node35 -->
<g id="edge19" class="edge"><title>Node46&#45;&gt;Node35</title>
<path fill="none" stroke="midnightblue" d="M540.223,-513C565.762,-513 596.15,-513 622.516,-513"/>
<polygon fill="midnightblue" stroke="midnightblue" points="622.783,-516.5 632.782,-513 622.782,-509.5 622.783,-516.5"/>
</g>
<!-- Node47&#45;&gt;Node35 -->
<g id="edge21" class="edge"><title>Node47&#45;&gt;Node35</title>
<path fill="none" stroke="midnightblue" d="M325.304,-590.839C382,-590.905 483.43,-587.536 567,-566 599.608,-557.597 634.519,-540.948 657.937,-528.542"/>
<polygon fill="midnightblue" stroke="midnightblue" points="659.79,-531.519 666.926,-523.688 656.464,-525.36 659.79,-531.519"/>
</g>
<!-- Node48&#45;&gt;Node35 -->
<g id="edge39" class="edge"><title>Node48&#45;&gt;Node35</title>
<path fill="none" stroke="midnightblue" d="M289.332,-297.77C306.573,-320.64 350.258,-374.155 400,-401 466.987,-437.152 496.625,-409.991 567,-439 603.189,-453.917 640.844,-479.435 663.734,-496.26"/>
<polygon fill="midnightblue" stroke="midnightblue" points="661.643,-499.066 671.75,-502.242 665.829,-493.456 661.643,-499.066"/>
</g>
<!-- Node48&#45;&gt;Node43 -->
<g id="edge41" class="edge"><title>Node48&#45;&gt;Node43</title>
<path fill="none" stroke="midnightblue" d="M289.545,-276.415C306.869,-254.61 350.192,-205.207 400,-187 477.224,-158.77 691.526,-162.457 770,-187 807.647,-198.774 843.765,-228.066 864.513,-247.213"/>
<polygon fill="midnightblue" stroke="midnightblue" points="862.263,-249.902 871.93,-254.237 867.076,-244.819 862.263,-249.902"/>
</g>
<!-- Node48&#45;&gt;Node46 -->
<g id="edge40" class="edge"><title>Node48&#45;&gt;Node46</title>
<path fill="none" stroke="midnightblue" d="M284.498,-297.935C294.512,-332.33 330.186,-439.151 400,-492 405.181,-495.922 411.016,-499.117 417.128,-501.717"/>
<polygon fill="midnightblue" stroke="midnightblue" points="416.312,-505.147 426.905,-505.335 418.741,-498.582 416.312,-505.147"/>
</g>
<!-- Node49 -->
<g id="node18" class="node"><title>Node49</title>
<g id="a_node18"><a xlink:href="namespacehdf5__ops.html#a28cdecb45d88592a69dada6fd5ab9919" target="_top" xlink:title="hdf5_ops::open_hdf5_file">
<polygon fill="white" stroke="black" points="403,-236.5 403,-257.5 564,-257.5 564,-236.5 403,-236.5"/>
<text text-anchor="middle" x="483.5" y="-243.9" font-family="Ubuntu Mono" font-size="12.00">hdf5_ops::open_hdf5_file</text>
</a>
</g>
</g>
<!-- Node48&#45;&gt;Node49 -->
<g id="edge23" class="edge"><title>Node48&#45;&gt;Node49</title>
<path fill="none" stroke="midnightblue" d="M334.31,-276.49C360.519,-271.275 392.361,-264.938 419.802,-259.477"/>
<polygon fill="midnightblue" stroke="midnightblue" points="420.569,-262.893 429.694,-257.509 419.203,-256.028 420.569,-262.893"/>
</g>
<!-- Node51 -->
<g id="node20" class="node"><title>Node51</title>
<g id="a_node20"><a xlink:href="namespacehdf5__ops.html#ade36dbd73b60da30e33a1059e590f734" target="_top" xlink:title="hdf5_ops::add_hdf5_item">
<polygon fill="white" stroke="black" points="406,-80.5 406,-101.5 561,-101.5 561,-80.5 406,-80.5"/>
<text text-anchor="middle" x="483.5" y="-87.9" font-family="Ubuntu Mono" font-size="12.00">hdf5_ops::add_hdf5_item</text>
</a>
</g>
</g>
<!-- Node48&#45;&gt;Node51 -->
<g id="edge26" class="edge"><title>Node48&#45;&gt;Node51</title>
<path fill="none" stroke="midnightblue" d="M285.846,-276.319C298.612,-246.294 338.981,-160.444 400,-116 405.822,-111.76 412.37,-108.23 419.166,-105.294"/>
<polygon fill="midnightblue" stroke="midnightblue" points="420.492,-108.534 428.543,-101.647 417.954,-102.01 420.492,-108.534"/>
</g>
<!-- Node52 -->
<g id="node21" class="node"><title>Node52</title>
<g id="a_node21"><a xlink:href="namespacehdf5__ops.html#af34b4aea64a8b67ec827aaf4a7425caf" target="_top" xlink:title="hdf5_ops::print_hdf5_top">
<polygon fill="white" stroke="black" points="606,-118.5 606,-139.5 767,-139.5 767,-118.5 606,-118.5"/>
<text text-anchor="middle" x="686.5" y="-125.9" font-family="Ubuntu Mono" font-size="12.00">hdf5_ops::print_hdf5_top</text>
</a>
</g>
</g>
<!-- Node48&#45;&gt;Node52 -->
<g id="edge27" class="edge"><title>Node48&#45;&gt;Node52</title>
<path fill="none" stroke="midnightblue" d="M287.202,-276.27C301.845,-249.953 343.615,-182.3 400,-154 460.428,-123.671 537.148,-118.496 595.837,-120.317"/>
<polygon fill="midnightblue" stroke="midnightblue" points="595.708,-123.814 605.835,-120.699 595.976,-116.819 595.708,-123.814"/>
</g>
<!-- Node53 -->
<g id="node22" class="node"><title>Node53</title>
<g id="a_node22"><a xlink:href="namespacehdf5__ops.html#ac23a71e7029f46e5f38a95468fc10e22" target="_top" xlink:title="hdf5_ops::print_hdf5_geom">
<polygon fill="white" stroke="black" points="400,-276.5 400,-297.5 567,-297.5 567,-276.5 400,-276.5"/>
<text text-anchor="middle" x="483.5" y="-283.9" font-family="Ubuntu Mono" font-size="12.00">hdf5_ops::print_hdf5_geom</text>
</a>
</g>
</g>
<!-- Node48&#45;&gt;Node53 -->
<g id="edge29" class="edge"><title>Node48&#45;&gt;Node53</title>
<path fill="none" stroke="midnightblue" d="M346.204,-287C360.098,-287 375.041,-287 389.761,-287"/>
<polygon fill="midnightblue" stroke="midnightblue" points="389.9,-290.5 399.9,-287 389.9,-283.5 389.9,-290.5"/>
</g>
<!-- Node54 -->
<g id="node23" class="node"><title>Node54</title>
<g id="a_node23"><a xlink:href="namespacehdf5__ops.html#ad794d069ca355f28536fba7e0d21bc13" target="_top" xlink:title="hdf5_ops::print_hdf5\l_3d_data_item">
<polygon fill="white" stroke="black" points="415,-317 415,-351 552,-351 552,-317 415,-317"/>
<text text-anchor="start" x="423" y="-337.4" font-family="Ubuntu Mono" font-size="12.00">hdf5_ops::print_hdf5</text>
<text text-anchor="middle" x="483.5" y="-324.4" font-family="Ubuntu Mono" font-size="12.00">_3d_data_item</text>
</a>
</g>
</g>
<!-- Node48&#45;&gt;Node54 -->
<g id="edge30" class="edge"><title>Node48&#45;&gt;Node54</title>
<path fill="none" stroke="midnightblue" d="M326.608,-297.548C349.598,-302.923 378.212,-309.614 404.626,-315.791"/>
<polygon fill="midnightblue" stroke="midnightblue" points="404.091,-319.26 414.626,-318.129 405.685,-312.444 404.091,-319.26"/>
</g>
<!-- Node56 -->
<g id="node25" class="node"><title>Node56</title>
<g id="a_node25"><a xlink:href="namespacehdf5__ops.html#a144d595445778d89ec1a1bc0b12a94fb" target="_top" xlink:title="hdf5_ops::print_hdf5_grid">
<polygon fill="white" stroke="black" points="400,-196.5 400,-217.5 567,-217.5 567,-196.5 400,-196.5"/>
<text text-anchor="middle" x="483.5" y="-203.9" font-family="Ubuntu Mono" font-size="12.00">hdf5_ops::print_hdf5_grid</text>
</a>
</g>
</g>
<!-- Node48&#45;&gt;Node56 -->
<g id="edge34" class="edge"><title>Node48&#45;&gt;Node56</title>
<path fill="none" stroke="midnightblue" d="M299.383,-276.292C322.086,-263.09 362.787,-240.722 400,-227 406.75,-224.511 413.925,-222.244 421.118,-220.205"/>
<polygon fill="midnightblue" stroke="midnightblue" points="422.156,-223.55 430.899,-217.567 420.332,-216.792 422.156,-223.55"/>
</g>
<!-- Node58 -->
<g id="node27" class="node"><title>Node58</title>
<g id="a_node27"><a xlink:href="namespacehdf5__ops.html#ad6c53fff55bd71f63470ca1e525ddb56" target="_top" xlink:title="hdf5_ops::close_hdf5_file">
<polygon fill="white" stroke="black" points="400,-370.5 400,-391.5 567,-391.5 567,-370.5 400,-370.5"/>
<text text-anchor="middle" x="483.5" y="-377.9" font-family="Ubuntu Mono" font-size="12.00">hdf5_ops::close_hdf5_file</text>
</a>
</g>
</g>
<!-- Node48&#45;&gt;Node58 -->
<g id="edge37" class="edge"><title>Node48&#45;&gt;Node58</title>
<path fill="none" stroke="midnightblue" d="M295.684,-297.733C317.166,-313.512 359.729,-342.941 400,-360 406.736,-362.854 413.952,-365.389 421.21,-367.622"/>
<polygon fill="midnightblue" stroke="midnightblue" points="420.514,-371.064 431.093,-370.482 422.46,-364.34 420.514,-371.064"/>
</g>
<!-- Node49&#45;&gt;Node43 -->
<g id="edge25" class="edge"><title>Node49&#45;&gt;Node43</title>
<path fill="none" stroke="midnightblue" d="M564.091,-256.741C577.078,-258.04 590.401,-259.198 603,-260 671.052,-264.332 748.599,-265.415 804.718,-265.511"/>
<polygon fill="midnightblue" stroke="midnightblue" points="804.938,-269.011 814.94,-265.517 804.942,-262.011 804.938,-269.011"/>
</g>
<!-- Node50 -->
<g id="node19" class="node"><title>Node50</title>
<g id="a_node19"><a xlink:href="namespacefiles__utilities.html#ac6066df405564ba2f5e3c4bba726c1f8" target="_top" xlink:title="files_utilities::nextunit">
<polygon fill="white" stroke="black" points="603,-312.5 603,-333.5 770,-333.5 770,-312.5 603,-312.5"/>
<text text-anchor="middle" x="686.5" y="-319.9" font-family="Ubuntu Mono" font-size="12.00">files_utilities::nextunit</text>
</a>
</g>
</g>
<!-- Node49&#45;&gt;Node50 -->
<g id="edge24" class="edge"><title>Node49&#45;&gt;Node50</title>
<path fill="none" stroke="midnightblue" d="M543.004,-257.511C551.292,-260.043 559.527,-263.163 567,-267 585.783,-276.645 584.496,-287.829 603,-298 610.994,-302.394 619.859,-306.113 628.726,-309.229"/>
<polygon fill="midnightblue" stroke="midnightblue" points="627.714,-312.581 638.307,-312.377 629.9,-305.931 627.714,-312.581"/>
</g>
<!-- Node52&#45;&gt;Node43 -->
<g id="edge28" class="edge"><title>Node52&#45;&gt;Node43</title>
<path fill="none" stroke="midnightblue" d="M736.273,-139.525C747.793,-143.145 759.709,-147.881 770,-154 811.378,-178.604 848.882,-221.622 868.386,-246.256"/>
<polygon fill="midnightblue" stroke="midnightblue" points="865.835,-248.678 874.731,-254.432 871.365,-244.386 865.835,-248.678"/>
</g>
<!-- Node54&#45;&gt;Node43 -->
<g id="edge33" class="edge"><title>Node54&#45;&gt;Node43</title>
<path fill="none" stroke="midnightblue" d="M552.244,-348.437C611.185,-358.133 698.177,-365.463 770,-343 807.647,-331.226 843.765,-301.934 864.513,-282.787"/>
<polygon fill="midnightblue" stroke="midnightblue" points="867.076,-285.181 871.93,-275.763 862.263,-280.098 867.076,-285.181"/>
</g>
<!-- Node55 -->
<g id="node24" class="node"><title>Node55</title>
<g id="a_node24"><a xlink:href="HDF5__ops_8f90.html#a80c977815900dc90dfb63bc20a2abb5e" target="_top" xlink:title="check_for_parallel_3d">
<polygon fill="white" stroke="black" points="615,-390.5 615,-411.5 758,-411.5 758,-390.5 615,-390.5"/>
<text text-anchor="middle" x="686.5" y="-397.9" font-family="Ubuntu Mono" font-size="12.00">check_for_parallel_3d</text>
</a>
</g>
</g>
<!-- Node54&#45;&gt;Node55 -->
<g id="edge31" class="edge"><title>Node54&#45;&gt;Node55</title>
<path fill="none" stroke="midnightblue" d="M538.851,-351.116C548.281,-354.276 557.958,-357.643 567,-361 583.249,-367.034 586.685,-370.146 603,-376 614.222,-380.027 626.449,-383.968 637.968,-387.488"/>
<polygon fill="midnightblue" stroke="midnightblue" points="637.282,-390.936 647.867,-390.463 639.298,-384.232 637.282,-390.936"/>
</g>
<!-- Node55&#45;&gt;Node43 -->
<g id="edge32" class="edge"><title>Node55&#45;&gt;Node43</title>
<path fill="none" stroke="midnightblue" d="M736.273,-390.475C747.793,-386.855 759.709,-382.119 770,-376 811.378,-351.396 848.882,-308.378 868.386,-283.744"/>
<polygon fill="midnightblue" stroke="midnightblue" points="871.365,-285.614 874.731,-275.568 865.835,-281.322 871.365,-285.614"/>
</g>
<!-- Node56&#45;&gt;Node43 -->
<g id="edge35" class="edge"><title>Node56&#45;&gt;Node43</title>
<path fill="none" stroke="midnightblue" d="M544.724,-217.549C563.383,-220.713 584.024,-224.109 603,-227 671.022,-237.362 748.571,-247.796 804.699,-255.102"/>
<polygon fill="midnightblue" stroke="midnightblue" points="804.556,-258.613 814.923,-256.429 805.457,-251.671 804.556,-258.613"/>
</g>
<!-- Node57 -->
<g id="node26" class="node"><title>Node57</title>
<g id="a_node26"><a xlink:href="namespacestr__utilities.html#a92ac6c0af1979df094de1caddd28ade0" target="_top" xlink:title="str_utilities::r2str">
<polygon fill="white" stroke="black" points="618,-196.5 618,-217.5 755,-217.5 755,-196.5 618,-196.5"/>
<text text-anchor="middle" x="686.5" y="-203.9" font-family="Ubuntu Mono" font-size="12.00">str_utilities::r2str</text>
</a>
</g>
</g>
<!-- Node56&#45;&gt;Node57 -->
<g id="edge36" class="edge"><title>Node56&#45;&gt;Node57</title>
<path fill="none" stroke="midnightblue" d="M567.125,-207C580.585,-207 594.487,-207 607.824,-207"/>
<polygon fill="midnightblue" stroke="midnightblue" points="607.895,-210.5 617.895,-207 607.895,-203.5 607.895,-210.5"/>
</g>
<!-- Node58&#45;&gt;Node35 -->
<g id="edge38" class="edge"><title>Node58&#45;&gt;Node35</title>
<path fill="none" stroke="midnightblue" d="M532.221,-391.581C544.011,-395.228 556.316,-399.963 567,-406 609.095,-429.787 648.842,-470.836 669.896,-494.579"/>
<polygon fill="midnightblue" stroke="midnightblue" points="667.329,-496.96 676.537,-502.199 672.606,-492.361 667.329,-496.96"/>
</g>
</g>
</svg>
