<?xml version="1.0" encoding="UTF-8" standalone="no"?>
<!DOCTYPE svg PUBLIC "-//W3C//DTD SVG 1.1//EN"
 "http://www.w3.org/Graphics/SVG/1.1/DTD/svg11.dtd">
<!-- Generated by graphviz version 2.43.0 (0)
 -->
<!-- Title: slepc_ops::set_bc Pages: 1 -->
<svg width="1262pt" height="586pt"
 viewBox="0.00 0.00 1262.00 586.00" xmlns="http://www.w3.org/2000/svg" xmlns:xlink="http://www.w3.org/1999/xlink">
<g id="graph0" class="graph" transform="scale(1 1) rotate(0) translate(4 582)">
<title>slepc_ops::set_bc</title>
<polygon fill="white" stroke="transparent" points="-4,4 -4,-582 1258,-582 1258,4 -4,4"/>
<!-- Node1 -->
<g id="node1" class="node">
<title>Node1</title>
<g id="a_node1"><a xlink:title="Sets the boundary conditions deep in the plasma (1) and at the edge (2).">
<polygon fill="#bfbfbf" stroke="black" points="0,-367.5 0,-388.5 120,-388.5 120,-367.5 0,-367.5"/>
<text text-anchor="middle" x="60" y="-374.9" font-family="Ubuntu Mono" font-size="12.00">slepc_ops::set_bc</text>
</a>
</g>
</g>
<!-- Node2 -->
<g id="node2" class="node">
<title>Node2</title>
<g id="a_node2"><a xlink:href="namespacenum__utilities.html#a5ee3fbd1fe67d0deefc7194631389f2a" target="_top" xlink:title="Convert 2&#45;D coordinates (i,j) to the storage convention used in matrices.">
<polygon fill="white" stroke="black" points="171.5,-556.5 171.5,-577.5 277.5,-577.5 277.5,-556.5 171.5,-556.5"/>
<text text-anchor="middle" x="224.5" y="-563.9" font-family="Ubuntu Mono" font-size="12.00">num_utilities::c</text>
</a>
</g>
</g>
<!-- Node1&#45;&gt;Node2 -->
<g id="edge1" class="edge">
<title>Node1&#45;&gt;Node2</title>
<path fill="none" stroke="midnightblue" d="M63.87,-388.56C72.49,-418.25 101.01,-503.13 156,-547 158.09,-548.67 160.32,-550.2 162.64,-551.6"/>
<polygon fill="midnightblue" stroke="midnightblue" points="161.5,-554.95 172,-556.39 164.7,-548.72 161.5,-554.95"/>
</g>
<!-- Node3 -->
<g id="node3" class="node">
<title>Node3</title>
<g id="a_node3"><a xlink:href="namespacenum__utilities.html#a4dffe3beba7165dd17cff19a99a9e2ac" target="_top" xlink:title="Calculate the coefficients for finite differences.">
<polygon fill="white" stroke="black" points="163,-503 163,-537 286,-537 286,-503 163,-503"/>
<text text-anchor="start" x="171" y="-523.4" font-family="Ubuntu Mono" font-size="12.00">num_utilities::calc</text>
<text text-anchor="middle" x="224.5" y="-510.4" font-family="Ubuntu Mono" font-size="12.00">_coeff_fin_diff</text>
</a>
</g>
</g>
<!-- Node1&#45;&gt;Node3 -->
<g id="edge2" class="edge">
<title>Node1&#45;&gt;Node3</title>
<path fill="none" stroke="midnightblue" d="M67.94,-388.68C82.22,-409.97 116.85,-458.2 156,-488 160.76,-491.62 166,-494.98 171.38,-498.05"/>
<polygon fill="midnightblue" stroke="midnightblue" points="170.06,-501.31 180.53,-502.93 173.36,-495.14 170.06,-501.31"/>
</g>
<!-- Node6 -->
<g id="node6" class="node">
<title>Node6</title>
<g id="a_node6"><a xlink:href="namespacestr__utilities.html#a0b97e51770725a3e98ed393d26681414" target="_top" xlink:title="Convert an integer to string.">
<polygon fill="white" stroke="black" points="1105.5,-368.5 1105.5,-389.5 1219.5,-389.5 1219.5,-368.5 1105.5,-368.5"/>
<text text-anchor="middle" x="1162.5" y="-375.9" font-family="Ubuntu Mono" font-size="12.00">str_utilities::i2str</text>
</a>
</g>
</g>
<!-- Node1&#45;&gt;Node6 -->
<g id="edge5" class="edge">
<title>Node1&#45;&gt;Node6</title>
<path fill="none" stroke="midnightblue" d="M77.46,-388.67C95.86,-400.11 126.92,-417.99 156,-428 264.68,-465.43 295.56,-474 410.5,-474 410.5,-474 410.5,-474 812,-474 932.91,-474 1069.38,-420.4 1129.81,-393.72"/>
<polygon fill="midnightblue" stroke="midnightblue" points="1131.48,-396.81 1139.18,-389.53 1128.62,-390.42 1131.48,-396.81"/>
</g>
<!-- Node7 -->
<g id="node7" class="node">
<title>Node7</title>
<g id="a_node7"><a xlink:href="namespaceslepc__utilities.html#aa34aa361f0bfff9621ecba179f9ed0c6" target="_top" xlink:title="Insert a block pertaining to 1 normal point into a matrix.">
<polygon fill="white" stroke="black" points="156,-246 156,-280 293,-280 293,-246 156,-246"/>
<text text-anchor="start" x="164" y="-266.4" font-family="Ubuntu Mono" font-size="12.00">slepc_utilities::insert</text>
<text text-anchor="middle" x="224.5" y="-253.4" font-family="Ubuntu Mono" font-size="12.00">_block_mat</text>
</a>
</g>
</g>
<!-- Node1&#45;&gt;Node7 -->
<g id="edge6" class="edge">
<title>Node1&#45;&gt;Node7</title>
<path fill="none" stroke="midnightblue" d="M76,-367.39C102,-348.98 156.02,-310.76 190.97,-286.02"/>
<polygon fill="midnightblue" stroke="midnightblue" points="193.27,-288.68 199.41,-280.05 189.23,-282.97 193.27,-288.68"/>
</g>
<!-- Node8 -->
<g id="node8" class="node">
<title>Node8</title>
<g id="a_node8"><a xlink:href="namespacemessages.html#a6e6bfb084063e4cc91ee86e542043302" target="_top" xlink:title="Increases/decreases lvl of output.">
<polygon fill="white" stroke="black" points="352.5,-38.5 352.5,-59.5 470.5,-59.5 470.5,-38.5 352.5,-38.5"/>
<text text-anchor="middle" x="411.5" y="-45.9" font-family="Ubuntu Mono" font-size="12.00">messages::lvl_ud</text>
</a>
</g>
</g>
<!-- Node1&#45;&gt;Node8 -->
<g id="edge27" class="edge">
<title>Node1&#45;&gt;Node8</title>
<path fill="none" stroke="midnightblue" d="M60.54,-367.44C59.26,-323.19 60.77,-151.47 156,-74 209.01,-30.88 290.28,-30.57 346.66,-37.18"/>
<polygon fill="midnightblue" stroke="midnightblue" points="346.52,-40.7 356.89,-38.49 347.41,-33.75 346.52,-40.7"/>
</g>
<!-- Node9 -->
<g id="node9" class="node">
<title>Node9</title>
<g id="a_node9"><a xlink:href="namespacemessages.html#aa4a8d01563e92558e8a0875b075ec54c" target="_top" xlink:title="Write output to file identified by output_i.">
<polygon fill="white" stroke="black" points="921,-233.5 921,-254.5 1035,-254.5 1035,-233.5 921,-233.5"/>
<text text-anchor="middle" x="978" y="-240.9" font-family="Ubuntu Mono" font-size="12.00">messages::writo</text>
</a>
</g>
</g>
<!-- Node1&#45;&gt;Node9 -->
<g id="edge30" class="edge">
<title>Node1&#45;&gt;Node9</title>
<path fill="none" stroke="midnightblue" d="M98.93,-388.5C162.72,-405.22 295.79,-436 410.5,-436 410.5,-436 410.5,-436 616.5,-436 745.13,-436 776.1,-396.45 885,-328 914.67,-309.35 943.63,-280.66 960.9,-262.11"/>
<polygon fill="midnightblue" stroke="midnightblue" points="963.6,-264.35 967.77,-254.6 958.43,-259.62 963.6,-264.35"/>
</g>
<!-- Node15 -->
<g id="node15" class="node">
<title>Node15</title>
<g id="a_node15"><a xlink:href="namespacempi__utilities.html#a790ea24d32dd0e249541c1e57cd85536" target="_top" xlink:title="Wait for all processes, wrapper to MPI barrier.">
<polygon fill="white" stroke="black" points="737,-76.5 737,-97.5 885,-97.5 885,-76.5 737,-76.5"/>
<text text-anchor="middle" x="811" y="-83.9" font-family="Ubuntu Mono" font-size="12.00">mpi_utilities::wait_mpi</text>
</a>
</g>
</g>
<!-- Node1&#45;&gt;Node15 -->
<g id="edge29" class="edge">
<title>Node1&#45;&gt;Node15</title>
<path fill="none" stroke="midnightblue" d="M65.48,-367.15C76.8,-341.04 108.98,-274.15 156,-237 325.37,-103.19 592.19,-84.5 726.66,-84.38"/>
<polygon fill="midnightblue" stroke="midnightblue" points="726.88,-87.88 736.89,-84.41 726.9,-80.88 726.88,-87.88"/>
</g>
<!-- Node19 -->
<g id="node19" class="node">
<title>Node19</title>
<g id="a_node19"><a xlink:href="namespacestr__utilities.html#ac778d706b2e021672618939ab58fdd32" target="_top" xlink:title="Convert a real (double) to string.">
<polygon fill="white" stroke="black" points="164,-0.5 164,-21.5 285,-21.5 285,-0.5 164,-0.5"/>
<text text-anchor="middle" x="224.5" y="-7.9" font-family="Ubuntu Mono" font-size="12.00">str_utilities::r2strt</text>
</a>
</g>
</g>
<!-- Node1&#45;&gt;Node19 -->
<g id="edge28" class="edge">
<title>Node1&#45;&gt;Node19</title>
<path fill="none" stroke="midnightblue" d="M60.69,-367.46C59.93,-321.59 62.98,-137.15 156,-36 159.51,-32.19 163.64,-28.96 168.12,-26.21"/>
<polygon fill="midnightblue" stroke="midnightblue" points="169.83,-29.27 177.06,-21.53 166.58,-23.07 169.83,-29.27"/>
</g>
<!-- Node4 -->
<g id="node4" class="node">
<title>Node4</title>
<g id="a_node4"><a xlink:href="namespacenum__utilities.html#a43ab60f9e202b55221373286a5bbb954" target="_top" xlink:title="Calculate factorial.">
<polygon fill="white" stroke="black" points="352.5,-546.5 352.5,-567.5 470.5,-567.5 470.5,-546.5 352.5,-546.5"/>
<text text-anchor="middle" x="411.5" y="-553.9" font-family="Ubuntu Mono" font-size="12.00">num_utilities::fac</text>
</a>
</g>
</g>
<!-- Node3&#45;&gt;Node4 -->
<g id="edge3" class="edge">
<title>Node3&#45;&gt;Node4</title>
<path fill="none" stroke="midnightblue" d="M286.08,-532.12C305.91,-536.08 327.97,-540.49 347.95,-544.49"/>
<polygon fill="midnightblue" stroke="midnightblue" points="347.38,-547.95 357.87,-546.47 348.75,-541.08 347.38,-547.95"/>
</g>
<!-- Node5 -->
<g id="node5" class="node">
<title>Node5</title>
<g id="a_node5"><a xlink:href="namespacenum__utilities.html#a54c65e345182e2e7e13ac14a0ba3647a" target="_top" xlink:title="Solve a Vandermonde system .">
<polygon fill="white" stroke="black" points="329,-506.5 329,-527.5 494,-527.5 494,-506.5 329,-506.5"/>
<text text-anchor="middle" x="411.5" y="-513.9" font-family="Ubuntu Mono" font-size="12.00">num_utilities::solve_vand</text>
</a>
</g>
</g>
<!-- Node3&#45;&gt;Node5 -->
<g id="edge4" class="edge">
<title>Node3&#45;&gt;Node5</title>
<path fill="none" stroke="midnightblue" d="M286.08,-519.02C296.56,-518.85 307.68,-518.67 318.77,-518.49"/>
<polygon fill="midnightblue" stroke="midnightblue" points="319,-521.98 328.94,-518.32 318.89,-514.99 319,-521.98"/>
</g>
<!-- Node7&#45;&gt;Node6 -->
<g id="edge7" class="edge">
<title>Node7&#45;&gt;Node6</title>
<path fill="none" stroke="midnightblue" d="M251.35,-280.24C271.73,-293.2 301.25,-310.62 329,-322 450.49,-371.82 483.19,-398 614.5,-398 614.5,-398 614.5,-398 812,-398 910.75,-398 1024.96,-390.34 1095.22,-384.75"/>
<polygon fill="midnightblue" stroke="midnightblue" points="1095.57,-388.23 1105.26,-383.94 1095.01,-381.26 1095.57,-388.23"/>
</g>
<!-- Node7&#45;&gt;Node8 -->
<g id="edge8" class="edge">
<title>Node7&#45;&gt;Node8</title>
<path fill="none" stroke="midnightblue" d="M234.84,-245.89C251.39,-216.51 287.97,-155.44 329,-112 346.04,-93.95 368.57,-76.95 385.61,-65.17"/>
<polygon fill="midnightblue" stroke="midnightblue" points="387.66,-68.02 393.97,-59.51 383.73,-62.22 387.66,-68.02"/>
</g>
<!-- Node7&#45;&gt;Node9 -->
<g id="edge26" class="edge">
<title>Node7&#45;&gt;Node9</title>
<path fill="none" stroke="midnightblue" d="M260.23,-245.94C279.99,-236.82 305.43,-226.05 329,-219 505.56,-166.18 553.45,-161.51 737,-145 802.51,-139.11 824.7,-118.72 885,-145 922.22,-161.22 951.15,-200.74 966,-224.66"/>
<polygon fill="midnightblue" stroke="midnightblue" points="963.01,-226.48 971.16,-233.26 969.02,-222.88 963.01,-226.48"/>
</g>
<!-- Node12 -->
<g id="node12" class="node">
<title>Node12</title>
<g id="a_node12"><a xlink:href="namespaceinput__utilities.html#a71bd36f063d55ab62c7a37864aef1185" target="_top" xlink:title="Pauses the running of the program.">
<polygon fill="white" stroke="black" points="530,-194.5 530,-215.5 701,-215.5 701,-194.5 530,-194.5"/>
<text text-anchor="middle" x="615.5" y="-201.9" font-family="Ubuntu Mono" font-size="12.00">input_utilities::pause_prog</text>
</a>
</g>
</g>
<!-- Node7&#45;&gt;Node12 -->
<g id="edge13" class="edge">
<title>Node7&#45;&gt;Node12</title>
<path fill="none" stroke="midnightblue" d="M293.26,-252.9C360.17,-242.92 462.52,-227.66 533.65,-217.06"/>
<polygon fill="midnightblue" stroke="midnightblue" points="534.53,-220.46 543.91,-215.53 533.5,-213.54 534.53,-220.46"/>
</g>
<!-- Node16 -->
<g id="node16" class="node">
<title>Node16</title>
<g id="a_node16"><a xlink:href="SLEPC__utilities_8f90.html#a711d6be49d3b1542ee3375bceb5b4e6d" target="_top" xlink:title="/private Set up local block, possibly translated for fast PB3D.">
<polygon fill="white" stroke="black" points="351,-291.5 351,-312.5 472,-312.5 472,-291.5 351,-291.5"/>
<text text-anchor="middle" x="411.5" y="-298.9" font-family="Ubuntu Mono" font-size="12.00">setup_local_block</text>
</a>
</g>
</g>
<!-- Node7&#45;&gt;Node16 -->
<g id="edge20" class="edge">
<title>Node7&#45;&gt;Node16</title>
<path fill="none" stroke="midnightblue" d="M293.07,-277.25C311.89,-281.21 332.18,-285.49 350.53,-289.36"/>
<polygon fill="midnightblue" stroke="midnightblue" points="349.99,-292.82 360.49,-291.46 351.43,-285.97 349.99,-292.82"/>
</g>
<!-- Node8&#45;&gt;Node9 -->
<g id="edge9" class="edge">
<title>Node8&#45;&gt;Node9</title>
<path fill="none" stroke="midnightblue" d="M451.17,-38.43C536.99,-17.38 746.66,20.65 885,-67 941.18,-102.6 964.84,-184.39 973.16,-223.04"/>
<polygon fill="midnightblue" stroke="midnightblue" points="969.79,-224.03 975.19,-233.14 976.65,-222.65 969.79,-224.03"/>
</g>
<!-- Node9&#45;&gt;Node6 -->
<g id="edge12" class="edge">
<title>Node9&#45;&gt;Node6</title>
<path fill="none" stroke="midnightblue" d="M993.32,-254.59C1024.9,-277.96 1100.75,-334.06 1138.85,-362.25"/>
<polygon fill="midnightblue" stroke="midnightblue" points="1137.13,-365.32 1147.25,-368.46 1141.29,-359.7 1137.13,-365.32"/>
</g>
<!-- Node10 -->
<g id="node10" class="node">
<title>Node10</title>
<g id="a_node10"><a xlink:href="namespacemessages.html#a61fd0b51b5e37d58fdc993c01792a3fd" target="_top" xlink:title="Returns the time.">
<polygon fill="white" stroke="black" points="1092.5,-213.5 1092.5,-234.5 1232.5,-234.5 1232.5,-213.5 1092.5,-213.5"/>
<text text-anchor="middle" x="1162.5" y="-220.9" font-family="Ubuntu Mono" font-size="12.00">messages::get_clock</text>
</a>
</g>
</g>
<!-- Node9&#45;&gt;Node10 -->
<g id="edge10" class="edge">
<title>Node9&#45;&gt;Node10</title>
<path fill="none" stroke="midnightblue" d="M1035.25,-237.84C1050.02,-236.22 1066.24,-234.44 1081.99,-232.71"/>
<polygon fill="midnightblue" stroke="midnightblue" points="1082.69,-236.16 1092.25,-231.59 1081.93,-229.2 1082.69,-236.16"/>
</g>
<!-- Node11 -->
<g id="node11" class="node">
<title>Node11</title>
<g id="a_node11"><a xlink:href="namespacemessages.html#a82dddaab795b78b3d39e1ff1aab2f665" target="_top" xlink:title="Returns the memory usage in kilobytes.">
<polygon fill="white" stroke="black" points="1071,-253.5 1071,-274.5 1254,-274.5 1254,-253.5 1071,-253.5"/>
<text text-anchor="middle" x="1162.5" y="-260.9" font-family="Ubuntu Mono" font-size="12.00">messages::get_mem_usage</text>
</a>
</g>
</g>
<!-- Node9&#45;&gt;Node11 -->
<g id="edge11" class="edge">
<title>Node9&#45;&gt;Node11</title>
<path fill="none" stroke="midnightblue" d="M1035.25,-250.16C1043.46,-251.06 1052.13,-252.01 1060.91,-252.98"/>
<polygon fill="midnightblue" stroke="midnightblue" points="1060.53,-256.46 1070.86,-254.07 1061.3,-249.5 1060.53,-256.46"/>
</g>
<!-- Node12&#45;&gt;Node9 -->
<g id="edge19" class="edge">
<title>Node12&#45;&gt;Node9</title>
<path fill="none" stroke="midnightblue" d="M673.67,-215.52C693.65,-218.92 716.27,-222.46 737,-225 795.49,-232.16 862.34,-237.19 910.6,-240.27"/>
<polygon fill="midnightblue" stroke="midnightblue" points="910.41,-243.77 920.61,-240.9 910.85,-236.78 910.41,-243.77"/>
</g>
<!-- Node13 -->
<g id="node13" class="node">
<title>Node13</title>
<g id="a_node13"><a xlink:href="namespacemessages.html#a84d5988f3ea5ca8dc2834032f896ae90" target="_top" xlink:title="Start a timer.">
<polygon fill="white" stroke="black" points="738.5,-194.5 738.5,-215.5 883.5,-215.5 883.5,-194.5 738.5,-194.5"/>
<text text-anchor="middle" x="811" y="-201.9" font-family="Ubuntu Mono" font-size="12.00">messages::start_time</text>
</a>
</g>
</g>
<!-- Node12&#45;&gt;Node13 -->
<g id="edge14" class="edge">
<title>Node12&#45;&gt;Node13</title>
<path fill="none" stroke="midnightblue" d="M701.09,-205C710.1,-205 719.26,-205 728.24,-205"/>
<polygon fill="midnightblue" stroke="midnightblue" points="728.29,-208.5 738.29,-205 728.29,-201.5 728.29,-208.5"/>
</g>
<!-- Node14 -->
<g id="node14" class="node">
<title>Node14</title>
<g id="a_node14"><a xlink:href="namespacemessages.html#aed343894ae4a28ad6dfbd1d39aac64ff" target="_top" xlink:title="Stop a timer.">
<polygon fill="white" stroke="black" points="739.5,-154.5 739.5,-175.5 882.5,-175.5 882.5,-154.5 739.5,-154.5"/>
<text text-anchor="middle" x="811" y="-161.9" font-family="Ubuntu Mono" font-size="12.00">messages::stop_time</text>
</a>
</g>
</g>
<!-- Node12&#45;&gt;Node14 -->
<g id="edge16" class="edge">
<title>Node12&#45;&gt;Node14</title>
<path fill="none" stroke="midnightblue" d="M667.34,-194.49C692.46,-189.3 722.96,-182.99 749.29,-177.55"/>
<polygon fill="midnightblue" stroke="midnightblue" points="750.08,-180.96 759.16,-175.51 748.66,-174.11 750.08,-180.96"/>
</g>
<!-- Node12&#45;&gt;Node15 -->
<g id="edge18" class="edge">
<title>Node12&#45;&gt;Node15</title>
<path fill="none" stroke="midnightblue" d="M634.01,-194.32C668.19,-173.48 743.93,-127.29 783.99,-102.86"/>
<polygon fill="midnightblue" stroke="midnightblue" points="785.95,-105.77 792.67,-97.57 782.31,-99.79 785.95,-105.77"/>
</g>
<!-- Node13&#45;&gt;Node9 -->
<g id="edge15" class="edge">
<title>Node13&#45;&gt;Node9</title>
<path fill="none" stroke="midnightblue" d="M856.65,-215.55C876.92,-220.34 901.08,-226.06 922.42,-231.1"/>
<polygon fill="midnightblue" stroke="midnightblue" points="921.78,-234.54 932.31,-233.44 923.39,-227.73 921.78,-234.54"/>
</g>
<!-- Node14&#45;&gt;Node9 -->
<g id="edge17" class="edge">
<title>Node14&#45;&gt;Node9</title>
<path fill="none" stroke="midnightblue" d="M858.69,-175.52C867.6,-178.16 876.72,-181.31 885,-185 910.62,-196.41 937.33,-214.31 955.32,-227.41"/>
<polygon fill="midnightblue" stroke="midnightblue" points="953.3,-230.26 963.41,-233.4 957.46,-224.63 953.3,-230.26"/>
</g>
<!-- Node16&#45;&gt;Node6 -->
<g id="edge21" class="edge">
<title>Node16&#45;&gt;Node6</title>
<path fill="none" stroke="midnightblue" d="M440.53,-312.61C464.06,-321.02 498.73,-332.28 530,-338 733.51,-375.26 979.33,-379.89 1095.09,-379.73"/>
<polygon fill="midnightblue" stroke="midnightblue" points="1095.22,-383.23 1105.21,-379.7 1095.2,-376.23 1095.22,-383.23"/>
</g>
<!-- Node16&#45;&gt;Node9 -->
<g id="edge25" class="edge">
<title>Node16&#45;&gt;Node9</title>
<path fill="none" stroke="midnightblue" d="M471.08,-312.56C561.88,-326.62 741.14,-345.17 885,-303 912.7,-294.88 939.96,-275.58 957.53,-261.25"/>
<polygon fill="midnightblue" stroke="midnightblue" points="959.93,-263.8 965.33,-254.69 955.43,-258.45 959.93,-263.8"/>
</g>
<!-- Node17 -->
<g id="node17" class="node">
<title>Node17</title>
<g id="a_node17"><a xlink:href="namespacemessages.html#a80797cedef6112b8dccaeda431f0c610" target="_top" xlink:title="Print an array of dimension 2 on the screen.">
<polygon fill="white" stroke="black" points="543.5,-272.5 543.5,-293.5 687.5,-293.5 687.5,-272.5 543.5,-272.5"/>
<text text-anchor="middle" x="615.5" y="-279.9" font-family="Ubuntu Mono" font-size="12.00">messages::print_ar_2</text>
</a>
</g>
</g>
<!-- Node16&#45;&gt;Node17 -->
<g id="edge22" class="edge">
<title>Node16&#45;&gt;Node17</title>
<path fill="none" stroke="midnightblue" d="M472.01,-296.4C491.13,-294.6 512.64,-292.58 533.05,-290.66"/>
<polygon fill="midnightblue" stroke="midnightblue" points="533.65,-294.12 543.28,-289.7 533,-287.15 533.65,-294.12"/>
</g>
<!-- Node18 -->
<g id="node18" class="node">
<title>Node18</title>
<g id="a_node18"><a xlink:href="namespacemessages.html#a5686118397930f505259225f3688216b" target="_top" xlink:title="Print an array of dimension 1 on the screen.">
<polygon fill="white" stroke="black" points="739,-272.5 739,-293.5 883,-293.5 883,-272.5 739,-272.5"/>
<text text-anchor="middle" x="811" y="-279.9" font-family="Ubuntu Mono" font-size="12.00">messages::print_ar_1</text>
</a>
</g>
</g>
<!-- Node17&#45;&gt;Node18 -->
<g id="edge23" class="edge">
<title>Node17&#45;&gt;Node18</title>
<path fill="none" stroke="midnightblue" d="M687.73,-283C701.04,-283 715.04,-283 728.63,-283"/>
<polygon fill="midnightblue" stroke="midnightblue" points="728.92,-286.5 738.92,-283 728.92,-279.5 728.92,-286.5"/>
</g>
<!-- Node18&#45;&gt;Node9 -->
<g id="edge24" class="edge">
<title>Node18&#45;&gt;Node9</title>
<path fill="none" stroke="midnightblue" d="M856.65,-272.45C876.92,-267.66 901.08,-261.94 922.42,-256.9"/>
<polygon fill="midnightblue" stroke="midnightblue" points="923.39,-260.27 932.31,-254.56 921.78,-253.46 923.39,-260.27"/>
</g>
</g>
</svg>
