<?xml version="1.0" encoding="UTF-8" standalone="no"?>
<!DOCTYPE svg PUBLIC "-//W3C//DTD SVG 1.1//EN"
 "http://www.w3.org/Graphics/SVG/1.1/DTD/svg11.dtd">
<!-- Generated by graphviz version 2.38.0 (20140413.2041)
 -->
<!-- Title: mpi_ops::stop_mpi Pages: 1 -->
<svg width="377pt" height="79pt"
 viewBox="0.00 0.00 377.00 79.00" xmlns="http://www.w3.org/2000/svg" xmlns:xlink="http://www.w3.org/1999/xlink">
<g id="graph0" class="graph" transform="scale(1 1) rotate(0) translate(4 75)">
<title>mpi_ops::stop_mpi</title>
<polygon fill="white" stroke="none" points="-4,4 -4,-75 373,-75 373,4 -4,4"/>
<!-- Node32 -->
<g id="node1" class="node"><title>Node32</title>
<polygon fill="#bfbfbf" stroke="black" points="0,-20.5 0,-41.5 119,-41.5 119,-20.5 0,-20.5"/>
<text text-anchor="middle" x="59.5" y="-27.9" font-family="Ubuntu Mono" font-size="12.00">mpi_ops::stop_mpi</text>
</g>
<!-- Node33 -->
<g id="node2" class="node"><title>Node33</title>
<g id="a_node2"><a xlink:href="namespacempi__ops.html#a40e8610357a9a5b075fef9dab1c3f24f" target="_top" xlink:title="Suddenly stops the computations, aborting MPI, etc. ">
<polygon fill="white" stroke="black" points="155,-20.5 155,-41.5 292,-41.5 292,-20.5 155,-20.5"/>
<text text-anchor="middle" x="223.5" y="-27.9" font-family="Ubuntu Mono" font-size="12.00">mpi_ops::sudden_stop</text>
</a>
</g>
</g>
<!-- Node32&#45;&gt;Node33 -->
<g id="edge1" class="edge"><title>Node32&#45;&gt;Node33</title>
<path fill="none" stroke="midnightblue" d="M129.543,-31C137.914,-31 146.459,-31 154.81,-31"/>
<polygon fill="midnightblue" stroke="midnightblue" points="129.444,-27.5001 119.444,-31 129.444,-34.5001 129.444,-27.5001"/>
</g>
<!-- Node34 -->
<g id="node3" class="node"><title>Node34</title>
<g id="a_node3"><a xlink:href="PB3D_8f90.html#afaee01f014ab3398eecac996b2795fd2" target="_top" xlink:title="Peeling Ballooning in 3D. ">
<polygon fill="white" stroke="black" points="328,-49.5 328,-70.5 369,-70.5 369,-49.5 328,-49.5"/>
<text text-anchor="middle" x="348.5" y="-56.9" font-family="Ubuntu Mono" font-size="12.00">pb3d</text>
</a>
</g>
</g>
<!-- Node32&#45;&gt;Node34 -->
<g id="edge4" class="edge"><title>Node32&#45;&gt;Node34</title>
<path fill="none" stroke="midnightblue" d="M113.182,-43.7245C126.736,-46.5634 141.348,-49.2479 155,-51 217.719,-59.0492 292.753,-60.1188 327.733,-60.1273"/>
<polygon fill="midnightblue" stroke="midnightblue" points="113.572,-40.2279 103.058,-41.5363 112.093,-47.0699 113.572,-40.2279"/>
</g>
<!-- Node35 -->
<g id="node4" class="node"><title>Node35</title>
<g id="a_node4"><a xlink:href="POST_8f90.html#ac289b64ac4671fea0b4f2298ba1188a1" target="_top" xlink:title="Peeling Ballooning in 3D: postprocessing. ">
<polygon fill="white" stroke="black" points="328,-0.5 328,-21.5 369,-21.5 369,-0.5 328,-0.5"/>
<text text-anchor="middle" x="348.5" y="-7.9" font-family="Ubuntu Mono" font-size="12.00">post</text>
</a>
</g>
</g>
<!-- Node32&#45;&gt;Node35 -->
<g id="edge5" class="edge"><title>Node32&#45;&gt;Node35</title>
<path fill="none" stroke="midnightblue" d="M111.146,-18.2514C125.249,-15.2574 140.64,-12.503 155,-11 217.821,-4.4251 292.807,-7.55845 327.754,-9.64892"/>
<polygon fill="midnightblue" stroke="midnightblue" points="110.148,-14.8872 101.137,-20.4593 111.656,-21.7228 110.148,-14.8872"/>
</g>
<!-- Node33&#45;&gt;Node34 -->
<g id="edge2" class="edge"><title>Node33&#45;&gt;Node34</title>
<path fill="none" stroke="midnightblue" d="M279.292,-43.9183C296.551,-47.9876 314.523,-52.2251 327.685,-55.3281"/>
<polygon fill="midnightblue" stroke="midnightblue" points="279.79,-40.44 269.254,-41.5517 278.184,-47.2532 279.79,-40.44"/>
</g>
<!-- Node33&#45;&gt;Node35 -->
<g id="edge3" class="edge"><title>Node33&#45;&gt;Node35</title>
<path fill="none" stroke="midnightblue" d="M299.419,-18.818C309.904,-17.1131 319.842,-15.4972 327.932,-14.1818"/>
<polygon fill="midnightblue" stroke="midnightblue" points="298.55,-15.4132 289.242,-20.4729 299.674,-22.3225 298.55,-15.4132"/>
</g>
</g>
</svg>
