<?xml version="1.0" encoding="UTF-8" standalone="no"?>
<!DOCTYPE svg PUBLIC "-//W3C//DTD SVG 1.1//EN"
 "http://www.w3.org/Graphics/SVG/1.1/DTD/svg11.dtd">
<!-- Generated by graphviz version 2.38.0 (20140413.2041)
 -->
<!-- Title: vac_ops::calc_gh Pages: 1 -->
<svg width="1010pt" height="752pt"
 viewBox="0.00 0.00 1010.00 751.63" xmlns="http://www.w3.org/2000/svg" xmlns:xlink="http://www.w3.org/1999/xlink">
<g id="graph0" class="graph" transform="scale(1 1) rotate(0) translate(4 747.632)">
<title>vac_ops::calc_gh</title>
<polygon fill="white" stroke="none" points="-4,4 -4,-747.632 1006,-747.632 1006,4 -4,4"/>
<!-- Node0 -->
<g id="node1" class="node"><title>Node0</title>
<polygon fill="#bfbfbf" stroke="black" points="0,-529 0,-550 113,-550 113,-529 0,-529"/>
<text text-anchor="middle" x="56.5" y="-536.4" font-family="Ubuntu Mono" font-size="12.00">vac_ops::calc_gh</text>
</g>
<!-- Node1 -->
<g id="node2" class="node"><title>Node1</title>
<g id="a_node2"><a xlink:href="namespacevac__vars.html#af0fd2f819434bf7adc494753df4af19c" target="_top" xlink:title="Indicates whether current process is in the context. ">
<polygon fill="white" stroke="black" points="334,-686 334,-707 471,-707 471,-686 334,-686"/>
<text text-anchor="middle" x="402.5" y="-693.4" font-family="Ubuntu Mono" font-size="12.00">vac_vars::in_context</text>
</a>
</g>
</g>
<!-- Node0&#45;&gt;Node1 -->
<g id="edge1" class="edge"><title>Node0&#45;&gt;Node1</title>
<path fill="none" stroke="midnightblue" d="M59.0029,-550.351C64.2303,-583.391 84.9424,-682.91 149,-722.5 218.409,-765.397 319.502,-732.641 370.138,-711.227"/>
<polygon fill="midnightblue" stroke="midnightblue" points="371.797,-714.322 379.568,-707.121 369.003,-707.904 371.797,-714.322"/>
</g>
<!-- Node2 -->
<g id="node3" class="node"><title>Node2</title>
<g id="a_node3"><a xlink:href="namespacevac__utilities.html#a05e8e1f24569b4bff05e61a867268fc3" target="_top" xlink:title="Gathers a distributed vector on a single process. ">
<polygon fill="white" stroke="black" points="152,-679.5 152,-713.5 277,-713.5 277,-679.5 152,-679.5"/>
<text text-anchor="start" x="160" y="-699.9" font-family="Ubuntu Mono" font-size="12.00">vac_utilities::vec</text>
<text text-anchor="middle" x="214.5" y="-686.9" font-family="Ubuntu Mono" font-size="12.00">_dis2loc</text>
</a>
</g>
</g>
<!-- Node0&#45;&gt;Node2 -->
<g id="edge2" class="edge"><title>Node0&#45;&gt;Node2</title>
<path fill="none" stroke="midnightblue" d="M62.3678,-550.111C74.0127,-574.427 105.759,-634.749 149,-669.5 151.029,-671.13 153.17,-672.677 155.39,-674.142"/>
<polygon fill="midnightblue" stroke="midnightblue" points="153.89,-677.321 164.279,-679.398 157.452,-671.295 153.89,-677.321"/>
</g>
<!-- Node3 -->
<g id="node4" class="node"><title>Node3</title>
<g id="a_node4"><a xlink:href="namespacevac__utilities.html#ae70e8a1fc132ba79a9a4f49f4944a352" target="_top" xlink:title="Gathers a distributed vector on a single process. ">
<polygon fill="white" stroke="black" points="152,-626.5 152,-660.5 277,-660.5 277,-626.5 152,-626.5"/>
<text text-anchor="start" x="160" y="-646.9" font-family="Ubuntu Mono" font-size="12.00">vac_utilities::mat</text>
<text text-anchor="middle" x="214.5" y="-633.9" font-family="Ubuntu Mono" font-size="12.00">_dis2loc</text>
</a>
</g>
</g>
<!-- Node0&#45;&gt;Node3 -->
<g id="edge4" class="edge"><title>Node0&#45;&gt;Node3</title>
<path fill="none" stroke="midnightblue" d="M69.336,-550.126C86.2291,-564.977 118.585,-592.277 149,-611.5 154.68,-615.09 160.818,-618.582 166.971,-621.861"/>
<polygon fill="midnightblue" stroke="midnightblue" points="165.456,-625.017 175.946,-626.498 168.668,-618.798 165.456,-625.017"/>
</g>
<!-- Node4 -->
<g id="node5" class="node"><title>Node4</title>
<g id="a_node5"><a xlink:href="namespacemessages.html#aa4a8d01563e92558e8a0875b075ec54c" target="_top" xlink:title="Write output to file identified by output_i. ">
<polygon fill="white" stroke="black" points="704,-371 704,-392 811,-392 811,-371 704,-371"/>
<text text-anchor="middle" x="757.5" y="-378.4" font-family="Ubuntu Mono" font-size="12.00">messages::writo</text>
</a>
</g>
</g>
<!-- Node0&#45;&gt;Node4 -->
<g id="edge6" class="edge"><title>Node0&#45;&gt;Node4</title>
<path fill="none" stroke="midnightblue" d="M84.2442,-550.017C174.665,-583.715 474.116,-679.974 668,-559.5 724.561,-524.354 746.136,-441.067 753.332,-402.176"/>
<polygon fill="midnightblue" stroke="midnightblue" points="756.829,-402.492 755.063,-392.045 749.929,-401.313 756.829,-402.492"/>
</g>
<!-- Node7 -->
<g id="node8" class="node"><title>Node7</title>
<g id="a_node8"><a xlink:href="namespacemessages.html#a6e6bfb084063e4cc91ee86e542043302" target="_top" xlink:title="Increases/decreases lvl of output. ">
<polygon fill="white" stroke="black" points="540,-393 540,-414 653,-414 653,-393 540,-393"/>
<text text-anchor="middle" x="596.5" y="-400.4" font-family="Ubuntu Mono" font-size="12.00">messages::lvl_ud</text>
</a>
</g>
</g>
<!-- Node0&#45;&gt;Node7 -->
<g id="edge9" class="edge"><title>Node0&#45;&gt;Node7</title>
<path fill="none" stroke="midnightblue" d="M113.091,-530.087C227.822,-510.591 480.862,-467.215 489,-462.5 510.566,-450.004 503.731,-432.495 525,-419.5 526.727,-418.445 528.516,-417.459 530.353,-416.538"/>
<polygon fill="midnightblue" stroke="midnightblue" points="532.056,-419.616 539.863,-412.454 529.294,-413.184 532.056,-419.616"/>
</g>
<!-- Node8 -->
<g id="node9" class="node"><title>Node8</title>
<g id="a_node9"><a xlink:href="namespacevac__ops.html#a95e28ef321b64104e0ec46a1f1bf70b3" target="_top" xlink:title="Calculates matrices G and H in 3&#45;D configuration. ">
<polygon fill="white" stroke="black" points="534,-529 534,-550 659,-550 659,-529 534,-529"/>
<text text-anchor="middle" x="596.5" y="-536.4" font-family="Ubuntu Mono" font-size="12.00">vac_ops::calc_gh_1</text>
</a>
</g>
</g>
<!-- Node0&#45;&gt;Node8 -->
<g id="edge11" class="edge"><title>Node0&#45;&gt;Node8</title>
<path fill="none" stroke="midnightblue" d="M113.117,-543.731C124.954,-544.468 137.385,-545.12 149,-545.5 281.108,-549.827 435.3,-545.729 523.56,-542.509"/>
<polygon fill="midnightblue" stroke="midnightblue" points="523.865,-546 533.728,-542.131 523.605,-539.005 523.865,-546"/>
</g>
<!-- Node9 -->
<g id="node10" class="node"><title>Node9</title>
<g id="a_node10"><a xlink:href="namespacevac__ops.html#a0974b2cca67f5e4652b5db526395974f" target="_top" xlink:title="Calculates matrices G and H in axisymmetric configurations. ">
<polygon fill="white" stroke="black" points="152,-139 152,-160 277,-160 277,-139 152,-139"/>
<text text-anchor="middle" x="214.5" y="-146.4" font-family="Ubuntu Mono" font-size="12.00">vac_ops::calc_gh_2</text>
</a>
</g>
</g>
<!-- Node0&#45;&gt;Node9 -->
<g id="edge13" class="edge"><title>Node0&#45;&gt;Node9</title>
<path fill="none" stroke="midnightblue" d="M60.1778,-528.905C69.796,-491.526 104.404,-362.67 149,-262.5 164.286,-228.166 186.947,-190.73 200.94,-168.727"/>
<polygon fill="midnightblue" stroke="midnightblue" points="204.066,-170.336 206.531,-160.032 198.178,-166.55 204.066,-170.336"/>
</g>
<!-- Node15 -->
<g id="node16" class="node"><title>Node15</title>
<g id="a_node16"><a xlink:href="namespacestr__utilities.html#a0b97e51770725a3e98ed393d26681414" target="_top" xlink:title="Convert an integer to string. ">
<polygon fill="white" stroke="black" points="334,-224 334,-245 471,-245 471,-224 334,-224"/>
<text text-anchor="middle" x="402.5" y="-231.4" font-family="Ubuntu Mono" font-size="12.00">str_utilities::i2str</text>
</a>
</g>
</g>
<!-- Node0&#45;&gt;Node15 -->
<g id="edge24" class="edge"><title>Node0&#45;&gt;Node15</title>
<path fill="none" stroke="midnightblue" d="M59.7076,-528.903C66.9637,-496.406 92.894,-396.777 149,-337.5 196.587,-287.223 272.189,-260.777 328.278,-247.341"/>
<polygon fill="midnightblue" stroke="midnightblue" points="329.203,-250.72 338.16,-245.06 327.628,-243.899 329.203,-250.72"/>
</g>
<!-- Node16 -->
<g id="node17" class="node"><title>Node16</title>
<g id="a_node17"><a xlink:href="namespaceoutput__ops.html#ab0d14194d01ab0534562eab50b37a57a" target="_top" xlink:title="Takes two input vectors and plots these as well as the relative and absolute difference in a HDF5 fil...">
<polygon fill="white" stroke="black" points="316,-510 316,-531 489,-531 489,-510 316,-510"/>
<text text-anchor="middle" x="402.5" y="-517.4" font-family="Ubuntu Mono" font-size="12.00">output_ops::plot_diff_hdf5</text>
</a>
</g>
</g>
<!-- Node0&#45;&gt;Node16 -->
<g id="edge25" class="edge"><title>Node0&#45;&gt;Node16</title>
<path fill="none" stroke="midnightblue" d="M113.152,-536.426C165.119,-533.556 243.761,-529.212 305.796,-525.786"/>
<polygon fill="midnightblue" stroke="midnightblue" points="306.203,-529.269 315.994,-525.223 305.817,-522.28 306.203,-529.269"/>
</g>
<!-- Node17 -->
<g id="node18" class="node"><title>Node17</title>
<g id="a_node18"><a xlink:href="namespaceoutput__ops.html#a50bfbb88cc91805469353c3ff47b3e2e" target="_top" xlink:title="Use external program to draw a plot. ">
<polygon fill="white" stroke="black" points="149,-347 149,-368 280,-368 280,-347 149,-347"/>
<text text-anchor="middle" x="214.5" y="-354.4" font-family="Ubuntu Mono" font-size="12.00">output_ops::draw_ex</text>
</a>
</g>
</g>
<!-- Node0&#45;&gt;Node17 -->
<g id="edge29" class="edge"><title>Node0&#45;&gt;Node17</title>
<path fill="none" stroke="midnightblue" d="M66.5615,-528.928C92.1946,-499.023 165.455,-413.553 197.812,-375.803"/>
<polygon fill="midnightblue" stroke="midnightblue" points="200.563,-377.971 204.413,-368.101 195.248,-373.416 200.563,-377.971"/>
</g>
<!-- Node2&#45;&gt;Node1 -->
<g id="edge3" class="edge"><title>Node2&#45;&gt;Node1</title>
<path fill="none" stroke="midnightblue" d="M277.177,-696.5C292.097,-696.5 308.236,-696.5 323.787,-696.5"/>
<polygon fill="midnightblue" stroke="midnightblue" points="323.904,-700 333.904,-696.5 323.904,-693 323.904,-700"/>
</g>
<!-- Node3&#45;&gt;Node1 -->
<g id="edge5" class="edge"><title>Node3&#45;&gt;Node1</title>
<path fill="none" stroke="midnightblue" d="M275.375,-660.561C301.022,-667.869 330.535,-676.279 354.562,-683.125"/>
<polygon fill="midnightblue" stroke="midnightblue" points="353.919,-686.581 364.495,-685.956 355.837,-679.849 353.919,-686.581"/>
</g>
<!-- Node5 -->
<g id="node6" class="node"><title>Node5</title>
<g id="a_node6"><a xlink:href="namespacemessages.html#a82dddaab795b78b3d39e1ff1aab2f665" target="_top" xlink:title="Returns the memory usage in kilobytes. ">
<polygon fill="white" stroke="black" points="847,-391 847,-412 1002,-412 1002,-391 847,-391"/>
<text text-anchor="middle" x="924.5" y="-398.4" font-family="Ubuntu Mono" font-size="12.00">messages::get_mem_usage</text>
</a>
</g>
</g>
<!-- Node4&#45;&gt;Node5 -->
<g id="edge7" class="edge"><title>Node4&#45;&gt;Node5</title>
<path fill="none" stroke="midnightblue" d="M811.161,-387.883C819.452,-388.888 828.208,-389.949 837.025,-391.018"/>
<polygon fill="midnightblue" stroke="midnightblue" points="836.635,-394.496 846.984,-392.225 837.478,-387.547 836.635,-394.496"/>
</g>
<!-- Node6 -->
<g id="node7" class="node"><title>Node6</title>
<g id="a_node7"><a xlink:href="namespacemessages.html#a61fd0b51b5e37d58fdc993c01792a3fd" target="_top" xlink:title="Returns the time. ">
<polygon fill="white" stroke="black" points="859,-351 859,-372 990,-372 990,-351 859,-351"/>
<text text-anchor="middle" x="924.5" y="-358.4" font-family="Ubuntu Mono" font-size="12.00">messages::get_clock</text>
</a>
</g>
</g>
<!-- Node4&#45;&gt;Node6 -->
<g id="edge8" class="edge"><title>Node4&#45;&gt;Node6</title>
<path fill="none" stroke="midnightblue" d="M811.161,-375.117C823.142,-373.665 836.094,-372.095 848.797,-370.555"/>
<polygon fill="midnightblue" stroke="midnightblue" points="849.402,-374.007 858.908,-369.329 848.56,-367.058 849.402,-374.007"/>
</g>
<!-- Node7&#45;&gt;Node4 -->
<g id="edge10" class="edge"><title>Node7&#45;&gt;Node4</title>
<path fill="none" stroke="midnightblue" d="M653.11,-395.805C666.241,-393.989 680.33,-392.039 693.752,-390.182"/>
<polygon fill="midnightblue" stroke="midnightblue" points="694.433,-393.621 703.859,-388.784 693.474,-386.687 694.433,-393.621"/>
</g>
<!-- Node8&#45;&gt;Node4 -->
<g id="edge12" class="edge"><title>Node8&#45;&gt;Node4</title>
<path fill="none" stroke="midnightblue" d="M610.037,-528.906C624.382,-516.647 648.417,-495.682 668,-476.5 694.349,-450.692 723.17,-419.065 740.539,-399.601"/>
<polygon fill="midnightblue" stroke="midnightblue" points="743.216,-401.857 747.241,-392.056 737.983,-397.208 743.216,-401.857"/>
</g>
<!-- Node9&#45;&gt;Node4 -->
<g id="edge21" class="edge"><title>Node9&#45;&gt;Node4</title>
<path fill="none" stroke="midnightblue" d="M253.013,-160.06C271.825,-165.137 295.017,-171.066 316,-175.5 471.129,-208.278 536.924,-144.29 668,-233.5 713.806,-264.676 739.637,-328.129 750.433,-360.895"/>
<polygon fill="midnightblue" stroke="midnightblue" points="747.189,-362.248 753.525,-370.739 753.868,-360.15 747.189,-362.248"/>
</g>
<!-- Node10 -->
<g id="node11" class="node"><title>Node10</title>
<g id="a_node11"><a xlink:href="namespacedtorh.html#af3f58b6705da916bfbaf7cc4ea05f610" target="_top" xlink:title="Calculates toroidal harmonics of a fixed order m and degrees up to nmax. ">
<polygon fill="white" stroke="black" points="355,-92 355,-113 450,-113 450,-92 355,-92"/>
<text text-anchor="middle" x="402.5" y="-99.4" font-family="Ubuntu Mono" font-size="12.00">dtorh::dtorh1</text>
</a>
</g>
</g>
<!-- Node9&#45;&gt;Node10 -->
<g id="edge14" class="edge"><title>Node9&#45;&gt;Node10</title>
<path fill="none" stroke="midnightblue" d="M253.602,-138.949C272.356,-133.836 295.324,-127.694 316,-122.5 325.437,-120.129 335.483,-117.697 345.248,-115.382"/>
<polygon fill="midnightblue" stroke="midnightblue" points="346.354,-118.718 355.285,-113.019 344.749,-111.904 346.354,-118.718"/>
</g>
<!-- Node11 -->
<g id="node12" class="node"><title>Node11</title>
<g id="a_node12"><a xlink:href="namespacestr__utilities.html#a92ac6c0af1979df094de1caddd28ade0" target="_top" xlink:title="Convert a real (double) to string. ">
<polygon fill="white" stroke="black" points="528,-98 528,-119 665,-119 665,-98 528,-98"/>
<text text-anchor="middle" x="596.5" y="-105.4" font-family="Ubuntu Mono" font-size="12.00">str_utilities::r2str</text>
</a>
</g>
</g>
<!-- Node9&#45;&gt;Node11 -->
<g id="edge22" class="edge"><title>Node9&#45;&gt;Node11</title>
<path fill="none" stroke="midnightblue" d="M226.396,-138.976C243.698,-123.079 279.272,-93.6204 316,-82.5 397.892,-57.7052 498.922,-79.1498 554.321,-95.0717"/>
<polygon fill="midnightblue" stroke="midnightblue" points="553.537,-98.4896 564.119,-97.968 555.521,-91.7767 553.537,-98.4896"/>
</g>
<!-- Node12 -->
<g id="node13" class="node"><title>Node12</title>
<g id="a_node13"><a xlink:href="namespacevac__utilities.html#af387fcaa54ec681e55d6eb685ad622bd" target="_top" xlink:title="Calculate G_ij and H_ij on an interval for axisymmetric configurations. ">
<polygon fill="white" stroke="black" points="337,-0.5 337,-34.5 468,-34.5 468,-0.5 337,-0.5"/>
<text text-anchor="start" x="345" y="-20.9" font-family="Ubuntu Mono" font-size="12.00">vac_utilities::calc</text>
<text text-anchor="middle" x="402.5" y="-7.9" font-family="Ubuntu Mono" font-size="12.00">_gh_int_2</text>
</a>
</g>
</g>
<!-- Node9&#45;&gt;Node12 -->
<g id="edge16" class="edge"><title>Node9&#45;&gt;Node12</title>
<path fill="none" stroke="midnightblue" d="M223.5,-138.973C239.2,-118.965 276.019,-75.1557 316,-49.5 322.236,-45.4983 329.046,-41.8911 336.012,-38.6676"/>
<polygon fill="midnightblue" stroke="midnightblue" points="337.796,-41.7084 345.568,-34.5088 335.002,-35.2898 337.796,-41.7084"/>
</g>
<!-- Node13 -->
<g id="node14" class="node"><title>Node13</title>
<g id="a_node14"><a xlink:href="namespacenum__ops.html#adcc4eacf15c931744316a004f4448b90" target="_top" xlink:title="Finds the zero of a function using Zhang&#39;s method, which is simpler than Brent&#39;s method. ">
<polygon fill="white" stroke="black" points="340,-132.5 340,-166.5 465,-166.5 465,-132.5 340,-132.5"/>
<text text-anchor="start" x="348" y="-152.9" font-family="Ubuntu Mono" font-size="12.00">num_ops::calc_zero</text>
<text text-anchor="middle" x="402.5" y="-139.9" font-family="Ubuntu Mono" font-size="12.00">_zhang</text>
</a>
</g>
</g>
<!-- Node9&#45;&gt;Node13 -->
<g id="edge17" class="edge"><title>Node9&#45;&gt;Node13</title>
<path fill="none" stroke="midnightblue" d="M277.177,-149.5C294.061,-149.5 312.505,-149.5 329.893,-149.5"/>
<polygon fill="midnightblue" stroke="midnightblue" points="329.99,-153 339.99,-149.5 329.99,-146 329.99,-153"/>
</g>
<!-- Node9&#45;&gt;Node15 -->
<g id="edge23" class="edge"><title>Node9&#45;&gt;Node15</title>
<path fill="none" stroke="midnightblue" d="M230.513,-160.127C249.609,-173.244 283.964,-195.525 316,-209.5 326.093,-213.903 337.186,-217.791 347.942,-221.109"/>
<polygon fill="midnightblue" stroke="midnightblue" points="347.104,-224.511 357.686,-223.995 349.092,-217.799 347.104,-224.511"/>
</g>
<!-- Node10&#45;&gt;Node11 -->
<g id="edge15" class="edge"><title>Node10&#45;&gt;Node11</title>
<path fill="none" stroke="midnightblue" d="M450.468,-103.968C470.777,-104.602 495.087,-105.362 517.947,-106.076"/>
<polygon fill="midnightblue" stroke="midnightblue" points="517.879,-109.576 527.983,-106.39 518.097,-102.579 517.879,-109.576"/>
</g>
<!-- Node13&#45;&gt;Node4 -->
<g id="edge18" class="edge"><title>Node13&#45;&gt;Node4</title>
<path fill="none" stroke="midnightblue" d="M465.112,-140.791C523.101,-136.036 609.542,-138.22 668,-181.5 727.541,-225.581 747.731,-318.645 753.967,-360.421"/>
<polygon fill="midnightblue" stroke="midnightblue" points="750.528,-361.107 755.35,-370.541 757.464,-360.159 750.528,-361.107"/>
</g>
<!-- Node13&#45;&gt;Node11 -->
<g id="edge19" class="edge"><title>Node13&#45;&gt;Node11</title>
<path fill="none" stroke="midnightblue" d="M465.042,-136.358C487.878,-131.482 513.713,-125.965 536.332,-121.135"/>
<polygon fill="midnightblue" stroke="midnightblue" points="537.094,-124.551 546.142,-119.04 535.632,-117.705 537.094,-124.551"/>
</g>
<!-- Node14 -->
<g id="node15" class="node"><title>Node14</title>
<g id="a_node15"><a xlink:href="namespacestr__utilities.html#ac778d706b2e021672618939ab58fdd32" target="_top" xlink:title="Convert a real (double) to string. ">
<polygon fill="white" stroke="black" points="525,-243 525,-264 668,-264 668,-243 525,-243"/>
<text text-anchor="middle" x="596.5" y="-250.4" font-family="Ubuntu Mono" font-size="12.00">str_utilities::r2strt</text>
</a>
</g>
</g>
<!-- Node13&#45;&gt;Node14 -->
<g id="edge20" class="edge"><title>Node13&#45;&gt;Node14</title>
<path fill="none" stroke="midnightblue" d="M435.205,-166.673C471.968,-186.587 532.011,-219.11 567.24,-238.193"/>
<polygon fill="midnightblue" stroke="midnightblue" points="565.596,-241.282 576.056,-242.968 568.93,-235.127 565.596,-241.282"/>
</g>
<!-- Node16&#45;&gt;Node4 -->
<g id="edge26" class="edge"><title>Node16&#45;&gt;Node4</title>
<path fill="none" stroke="midnightblue" d="M442.486,-509.971C457.168,-505.779 473.948,-500.714 489,-495.5 570.027,-467.434 589.452,-457.898 668,-423.5 687.404,-415.003 708.876,-404.831 725.811,-396.627"/>
<polygon fill="midnightblue" stroke="midnightblue" points="727.749,-399.576 735.207,-392.051 724.684,-393.283 727.749,-399.576"/>
</g>
<!-- Node16&#45;&gt;Node7 -->
<g id="edge27" class="edge"><title>Node16&#45;&gt;Node7</title>
<path fill="none" stroke="midnightblue" d="M458.728,-509.927C469.333,-506.395 479.943,-501.707 489,-495.5 510.705,-480.625 505.616,-466.293 525,-448.5 537.342,-437.171 552.879,-426.914 566.224,-419.063"/>
<polygon fill="midnightblue" stroke="midnightblue" points="568.096,-422.024 575.047,-414.028 564.627,-415.945 568.096,-422.024"/>
</g>
<!-- Node16&#45;&gt;Node14 -->
<g id="edge28" class="edge"><title>Node16&#45;&gt;Node14</title>
<path fill="none" stroke="midnightblue" d="M425.659,-509.875C444.568,-499.873 471.412,-483.332 489,-462.5 513.891,-433.018 507.793,-418.035 525,-383.5 544.812,-343.737 570.05,-298.336 584.327,-273.084"/>
<polygon fill="midnightblue" stroke="midnightblue" points="587.504,-274.578 589.396,-264.153 581.416,-271.123 587.504,-274.578"/>
</g>
<!-- Node17&#45;&gt;Node4 -->
<g id="edge31" class="edge"><title>Node17&#45;&gt;Node4</title>
<path fill="none" stroke="midnightblue" d="M246.309,-346.968C265.982,-340.809 292.178,-333.644 316,-330.5 458.911,-311.637 628.42,-347.651 709.167,-368.357"/>
<polygon fill="midnightblue" stroke="midnightblue" points="708.472,-371.793 719.031,-370.924 710.235,-365.018 708.472,-371.793"/>
</g>
<!-- Node17&#45;&gt;Node7 -->
<g id="edge36" class="edge"><title>Node17&#45;&gt;Node7</title>
<path fill="none" stroke="midnightblue" d="M250.052,-368.097C269.286,-373.576 293.768,-379.86 316,-383.5 388.427,-395.359 472.554,-400.186 529.44,-402.151"/>
<polygon fill="midnightblue" stroke="midnightblue" points="529.628,-405.659 539.736,-402.486 529.855,-398.663 529.628,-405.659"/>
</g>
<!-- Node17&#45;&gt;Node11 -->
<g id="edge37" class="edge"><title>Node17&#45;&gt;Node11</title>
<path fill="none" stroke="midnightblue" d="M230.093,-346.893C249.028,-333.587 283.497,-310.895 316,-297.5 389.251,-267.311 423.259,-298.718 489,-254.5 537.157,-222.11 571.325,-160.299 586.577,-128.496"/>
<polygon fill="midnightblue" stroke="midnightblue" points="589.811,-129.844 590.858,-119.301 583.465,-126.889 589.811,-129.844"/>
</g>
<!-- Node17&#45;&gt;Node15 -->
<g id="edge30" class="edge"><title>Node17&#45;&gt;Node15</title>
<path fill="none" stroke="midnightblue" d="M225.959,-346.729C249.501,-322.568 305.426,-265.676 316,-259.5 323.568,-255.08 331.975,-251.391 340.48,-248.327"/>
<polygon fill="midnightblue" stroke="midnightblue" points="341.702,-251.609 350.083,-245.128 339.489,-244.968 341.702,-251.609"/>
</g>
<!-- Node18 -->
<g id="node19" class="node"><title>Node18</title>
<g id="a_node19"><a xlink:href="namespacefiles__utilities.html#ac6066df405564ba2f5e3c4bba726c1f8" target="_top" xlink:title="Search for available new unit. ">
<polygon fill="white" stroke="black" points="319,-432 319,-453 486,-453 486,-432 319,-432"/>
<text text-anchor="middle" x="402.5" y="-439.4" font-family="Ubuntu Mono" font-size="12.00">files_utilities::nextunit</text>
</a>
</g>
</g>
<!-- Node17&#45;&gt;Node18 -->
<g id="edge32" class="edge"><title>Node17&#45;&gt;Node18</title>
<path fill="none" stroke="midnightblue" d="M230.513,-368.127C249.609,-381.244 283.964,-403.525 316,-417.5 326.093,-421.903 337.186,-425.791 347.942,-429.109"/>
<polygon fill="midnightblue" stroke="midnightblue" points="347.104,-432.511 357.686,-431.995 349.092,-425.799 347.104,-432.511"/>
</g>
<!-- Node19 -->
<g id="node20" class="node"><title>Node19</title>
<g id="a_node20"><a xlink:href="namespaceoutput__ops.html#aa9e4855511b6ea16a08b3efb587bec51" target="_top" xlink:title="Executes command line, or displays a message if disabled. ">
<polygon fill="white" stroke="black" points="325,-340.5 325,-374.5 480,-374.5 480,-340.5 325,-340.5"/>
<text text-anchor="start" x="333" y="-360.9" font-family="Ubuntu Mono" font-size="12.00">output_ops::use_execute</text>
<text text-anchor="middle" x="402.5" y="-347.9" font-family="Ubuntu Mono" font-size="12.00">_command_line</text>
</a>
</g>
</g>
<!-- Node17&#45;&gt;Node19 -->
<g id="edge33" class="edge"><title>Node17&#45;&gt;Node19</title>
<path fill="none" stroke="midnightblue" d="M280.032,-357.5C291.231,-357.5 303.039,-357.5 314.717,-357.5"/>
<polygon fill="midnightblue" stroke="midnightblue" points="314.926,-361 324.926,-357.5 314.926,-354 314.926,-361"/>
</g>
<!-- Node19&#45;&gt;Node4 -->
<g id="edge34" class="edge"><title>Node19&#45;&gt;Node4</title>
<path fill="none" stroke="midnightblue" d="M480.096,-362.708C544.023,-367.054 634.021,-373.173 693.746,-377.233"/>
<polygon fill="midnightblue" stroke="midnightblue" points="693.582,-380.73 703.797,-377.917 694.057,-373.746 693.582,-380.73"/>
</g>
<!-- Node19&#45;&gt;Node7 -->
<g id="edge35" class="edge"><title>Node19&#45;&gt;Node7</title>
<path fill="none" stroke="midnightblue" d="M474.721,-374.563C496.824,-379.859 520.808,-385.605 541.535,-390.571"/>
<polygon fill="midnightblue" stroke="midnightblue" points="540.885,-394.014 551.425,-392.94 542.516,-387.207 540.885,-394.014"/>
</g>
</g>
</svg>
