<?xml version="1.0" encoding="UTF-8" standalone="no"?>
<!DOCTYPE svg PUBLIC "-//W3C//DTD SVG 1.1//EN"
 "http://www.w3.org/Graphics/SVG/1.1/DTD/svg11.dtd">
<!-- Generated by graphviz version 2.38.0 (20140413.2041)
 -->
<!-- Title: eq_ops::kappa_plot Pages: 1 -->
<svg width="1225pt" height="544pt"
 viewBox="0.00 0.00 1225.00 543.68" xmlns="http://www.w3.org/2000/svg" xmlns:xlink="http://www.w3.org/1999/xlink">
<g id="graph0" class="graph" transform="scale(1 1) rotate(0) translate(4 539.682)">
<title>eq_ops::kappa_plot</title>
<polygon fill="white" stroke="none" points="-4,4 -4,-539.682 1221,-539.682 1221,4 -4,4"/>
<!-- Node153 -->
<g id="node1" class="node"><title>Node153</title>
<polygon fill="#bfbfbf" stroke="black" points="0,-243.5 0,-264.5 125,-264.5 125,-243.5 0,-243.5"/>
<text text-anchor="middle" x="62.5" y="-250.9" font-family="Ubuntu Mono" font-size="12.00">eq_ops::kappa_plot</text>
</g>
<!-- Node154 -->
<g id="node2" class="node"><title>Node154</title>
<g id="a_node2"><a xlink:href="namespacegrid__utilities.html#ad3d9386b9abcb1a7e17369a1b3a3750d" target="_top" xlink:title="Calculates contra&#45; and covariant components of a vector in multiple coordinate systems. ">
<polygon fill="white" stroke="black" points="161,-298 161,-332 298,-332 298,-298 161,-298"/>
<text text-anchor="start" x="169" y="-318.4" font-family="Ubuntu Mono" font-size="12.00">grid_utilities::calc</text>
<text text-anchor="middle" x="229.5" y="-305.4" font-family="Ubuntu Mono" font-size="12.00">_vec_comp</text>
</a>
</g>
</g>
<!-- Node153&#45;&gt;Node154 -->
<g id="edge1" class="edge"><title>Node153&#45;&gt;Node154</title>
<path fill="none" stroke="midnightblue" d="M92.2408,-264.625C114.361,-272.803 145.615,-284.358 172.611,-294.338"/>
<polygon fill="midnightblue" stroke="midnightblue" points="171.746,-297.75 182.339,-297.935 174.174,-291.184 171.746,-297.75"/>
</g>
<!-- Node155 -->
<g id="node3" class="node"><title>Node155</title>
<g id="a_node3"><a xlink:href="namespacenum__utilities.html#a5ee3fbd1fe67d0deefc7194631389f2a" target="_top" xlink:title="Convert 2&#45;D coordinates (i,j) to the storage convention used in matrices. ">
<polygon fill="white" stroke="black" points="361,-399.5 361,-420.5 474,-420.5 474,-399.5 361,-399.5"/>
<text text-anchor="middle" x="417.5" y="-406.9" font-family="Ubuntu Mono" font-size="12.00">num_utilities::c</text>
</a>
</g>
</g>
<!-- Node153&#45;&gt;Node155 -->
<g id="edge22" class="edge"><title>Node153&#45;&gt;Node155</title>
<path fill="none" stroke="midnightblue" d="M72.317,-264.517C88.1854,-282.775 123.419,-320.358 161,-341 220.777,-373.833 297.131,-391.789 350.742,-401.081"/>
<polygon fill="midnightblue" stroke="midnightblue" points="350.372,-404.568 360.814,-402.772 351.531,-397.665 350.372,-404.568"/>
</g>
<!-- Node156 -->
<g id="node4" class="node"><title>Node156</title>
<g id="a_node4"><a xlink:href="namespacevmec__utilities.html#ac699116fc25fdea3e28e488513d97c87" target="_top" xlink:title="Calculate the trigonometric cosine and sine factors. ">
<polygon fill="white" stroke="black" points="349,-440 349,-474 486,-474 486,-440 349,-440"/>
<text text-anchor="start" x="357" y="-460.4" font-family="Ubuntu Mono" font-size="12.00">vmec_utilities::calc</text>
<text text-anchor="middle" x="417.5" y="-447.4" font-family="Ubuntu Mono" font-size="12.00">_trigon_factors</text>
</a>
</g>
</g>
<!-- Node153&#45;&gt;Node156 -->
<g id="edge23" class="edge"><title>Node153&#45;&gt;Node156</title>
<path fill="none" stroke="midnightblue" d="M68.7243,-264.586C81.2114,-288.788 115.193,-348.495 161,-380 214.163,-416.564 285.103,-436.134 338.742,-446.378"/>
<polygon fill="midnightblue" stroke="midnightblue" points="338.42,-449.878 348.888,-448.245 339.686,-442.993 338.42,-449.878"/>
</g>
<!-- Node157 -->
<g id="node5" class="node"><title>Node157</title>
<g id="a_node5"><a xlink:href="namespacemessages.html#aa4a8d01563e92558e8a0875b075ec54c" target="_top" xlink:title="Write output to file identified by output_i. ">
<polygon fill="white" stroke="black" points="919,-201.5 919,-222.5 1026,-222.5 1026,-201.5 919,-201.5"/>
<text text-anchor="middle" x="972.5" y="-208.9" font-family="Ubuntu Mono" font-size="12.00">messages::writo</text>
</a>
</g>
</g>
<!-- Node153&#45;&gt;Node157 -->
<g id="edge34" class="edge"><title>Node153&#45;&gt;Node157</title>
<path fill="none" stroke="midnightblue" d="M73.6765,-243.291C90.193,-226.718 124.665,-195.373 161,-182 233.33,-155.379 256.973,-172.668 334,-170 578.015,-161.547 641.507,-154.001 883,-190 897.113,-192.104 912.257,-195.453 925.958,-198.91"/>
<polygon fill="midnightblue" stroke="midnightblue" points="925.085,-202.299 935.644,-201.43 926.847,-195.525 925.085,-202.299"/>
</g>
<!-- Node160 -->
<g id="node8" class="node"><title>Node160</title>
<g id="a_node8"><a xlink:href="namespacestr__utilities.html#a0b97e51770725a3e98ed393d26681414" target="_top" xlink:title="Convert an integer to string. ">
<polygon fill="white" stroke="black" points="552,-488.5 552,-509.5 689,-509.5 689,-488.5 552,-488.5"/>
<text text-anchor="middle" x="620.5" y="-495.9" font-family="Ubuntu Mono" font-size="12.00">str_utilities::i2str</text>
</a>
</g>
</g>
<!-- Node153&#45;&gt;Node160 -->
<g id="edge33" class="edge"><title>Node153&#45;&gt;Node160</title>
<path fill="none" stroke="midnightblue" d="M66.77,-264.862C76.2692,-294.602 106.692,-378.115 161,-423 269.233,-512.452 442.19,-515.409 541.86,-508.129"/>
<polygon fill="midnightblue" stroke="midnightblue" points="542.168,-511.616 551.864,-507.346 541.621,-504.637 542.168,-511.616"/>
</g>
<!-- Node161 -->
<g id="node9" class="node"><title>Node161</title>
<g id="a_node9"><a xlink:href="namespacemessages.html#a6e6bfb084063e4cc91ee86e542043302" target="_top" xlink:title="Increases/decreases lvl of output. ">
<polygon fill="white" stroke="black" points="755,-240.5 755,-261.5 868,-261.5 868,-240.5 755,-240.5"/>
<text text-anchor="middle" x="811.5" y="-247.9" font-family="Ubuntu Mono" font-size="12.00">messages::lvl_ud</text>
</a>
</g>
</g>
<!-- Node153&#45;&gt;Node161 -->
<g id="edge35" class="edge"><title>Node153&#45;&gt;Node161</title>
<path fill="none" stroke="midnightblue" d="M90.9825,-243.449C139.255,-225.608 242.816,-190.404 334,-180 407.744,-171.586 427.249,-171.649 501,-180 597.057,-190.877 706.737,-220.166 766.307,-237.54"/>
<polygon fill="midnightblue" stroke="midnightblue" points="765.549,-240.965 776.13,-240.43 767.524,-234.25 765.549,-240.965"/>
</g>
<!-- Node162 -->
<g id="node10" class="node"><title>Node162</title>
<g id="a_node10"><a xlink:href="namespacegrid__utilities.html#a67001ff9bbcad707aacf17f90a748d90" target="_top" xlink:title="Trim a grid, removing any overlap between the different regions. ">
<polygon fill="white" stroke="black" points="334,-243.5 334,-264.5 501,-264.5 501,-243.5 334,-243.5"/>
<text text-anchor="middle" x="417.5" y="-250.9" font-family="Ubuntu Mono" font-size="12.00">grid_utilities::trim_grid</text>
</a>
</g>
</g>
<!-- Node153&#45;&gt;Node162 -->
<g id="edge31" class="edge"><title>Node153&#45;&gt;Node162</title>
<path fill="none" stroke="midnightblue" d="M125.392,-254C180.179,-254 260.921,-254 323.482,-254"/>
<polygon fill="midnightblue" stroke="midnightblue" points="323.754,-257.5 333.754,-254 323.754,-250.5 323.754,-257.5"/>
</g>
<!-- Node163 -->
<g id="node11" class="node"><title>Node163</title>
<g id="a_node11"><a xlink:href="namespacegrid__utilities.html#a39e7cd9b8f173994358dbdd6b57827e1" target="_top" xlink:title="Calculates , &#160;and &#160;on a grid grid_XYZ, determined through its E(quilibrium) coordinates. ">
<polygon fill="white" stroke="black" points="349,-190 349,-224 486,-224 486,-190 349,-190"/>
<text text-anchor="start" x="357" y="-210.4" font-family="Ubuntu Mono" font-size="12.00">grid_utilities::calc</text>
<text text-anchor="middle" x="417.5" y="-197.4" font-family="Ubuntu Mono" font-size="12.00">_xyz_grid</text>
</a>
</g>
</g>
<!-- Node153&#45;&gt;Node163 -->
<g id="edge32" class="edge"><title>Node153&#45;&gt;Node163</title>
<path fill="none" stroke="midnightblue" d="M125.392,-245.759C184.796,-237.85 274.716,-225.878 338.887,-217.334"/>
<polygon fill="midnightblue" stroke="midnightblue" points="339.506,-220.782 348.956,-215.993 338.582,-213.844 339.506,-220.782"/>
</g>
<!-- Node168 -->
<g id="node16" class="node"><title>Node168</title>
<g id="a_node16"><a xlink:href="namespaceinput__utilities.html#ad9ce824c30b32041ab70f3fb191f06db" target="_top" xlink:title="Queries for a logical value yes or no, where the default answer is also to be provided. ">
<polygon fill="white" stroke="black" points="540,-73.5 540,-94.5 701,-94.5 701,-73.5 540,-73.5"/>
<text text-anchor="middle" x="620.5" y="-80.9" font-family="Ubuntu Mono" font-size="12.00">input_utilities::get_log</text>
</a>
</g>
</g>
<!-- Node153&#45;&gt;Node168 -->
<g id="edge24" class="edge"><title>Node153&#45;&gt;Node168</title>
<path fill="none" stroke="midnightblue" d="M66.987,-243.099C76.6422,-214.949 106.665,-139.869 161,-109 288.606,-36.5044 469.796,-55.3482 561.509,-71.6521"/>
<polygon fill="midnightblue" stroke="midnightblue" points="560.972,-75.1119 571.439,-73.47 562.233,-68.2263 560.972,-75.1119"/>
</g>
<!-- Node154&#45;&gt;Node155 -->
<g id="edge2" class="edge"><title>Node154&#45;&gt;Node155</title>
<path fill="none" stroke="midnightblue" d="M249.28,-332.134C268.989,-349.223 301.562,-375.027 334,-390 339.4,-392.493 345.149,-394.697 351.001,-396.641"/>
<polygon fill="midnightblue" stroke="midnightblue" points="350.318,-400.092 360.904,-399.673 352.367,-393.399 350.318,-400.092"/>
</g>
<!-- Node154&#45;&gt;Node156 -->
<g id="edge3" class="edge"><title>Node154&#45;&gt;Node156</title>
<path fill="none" stroke="midnightblue" d="M241.737,-332.413C258.774,-357.482 293.482,-403.62 334,-430 337.086,-432.009 340.335,-433.881 343.687,-435.623"/>
<polygon fill="midnightblue" stroke="midnightblue" points="342.228,-438.805 352.762,-439.938 345.234,-432.483 342.228,-438.805"/>
</g>
<!-- Node154&#45;&gt;Node157 -->
<g id="edge8" class="edge"><title>Node154&#45;&gt;Node157</title>
<path fill="none" stroke="midnightblue" d="M298.028,-309.705C366.321,-303.479 466.57,-291.696 501,-274 521.406,-263.512 516.128,-246.529 537,-237 659.15,-181.233 821.096,-190.844 908.721,-201.938"/>
<polygon fill="midnightblue" stroke="midnightblue" points="908.402,-205.426 918.773,-203.259 909.314,-198.486 908.402,-205.426"/>
</g>
<!-- Node154&#45;&gt;Node161 -->
<g id="edge9" class="edge"><title>Node154&#45;&gt;Node161</title>
<path fill="none" stroke="midnightblue" d="M298.142,-326.834C354.866,-333.597 436.68,-335.8 501,-307 522.233,-297.493 515.942,-278.89 537,-269 602.723,-238.134 687.265,-237.668 744.842,-242.329"/>
<polygon fill="midnightblue" stroke="midnightblue" points="744.643,-245.825 754.912,-243.218 745.259,-238.852 744.643,-245.825"/>
</g>
<!-- Node154&#45;&gt;Node162 -->
<g id="edge11" class="edge"><title>Node154&#45;&gt;Node162</title>
<path fill="none" stroke="midnightblue" d="M278.285,-297.926C295.763,-291.801 315.727,-284.944 334,-279 345.897,-275.13 358.821,-271.122 370.833,-267.478"/>
<polygon fill="midnightblue" stroke="midnightblue" points="372.102,-270.752 380.666,-264.514 370.081,-264.049 372.102,-270.752"/>
</g>
<!-- Node154&#45;&gt;Node163 -->
<g id="edge12" class="edge"><title>Node154&#45;&gt;Node163</title>
<path fill="none" stroke="midnightblue" d="M248.202,-297.961C267.795,-279.904 300.986,-251.616 334,-234 337.997,-231.867 342.193,-229.863 346.486,-227.986"/>
<polygon fill="midnightblue" stroke="midnightblue" points="348.077,-231.117 356,-224.082 345.42,-224.641 348.077,-231.117"/>
</g>
<!-- Node164 -->
<g id="node12" class="node"><title>Node164</title>
<g id="a_node12"><a xlink:href="namespaceoutput__ops.html#a50bfbb88cc91805469353c3ff47b3e2e" target="_top" xlink:title="Use external program to draw a plot. ">
<polygon fill="white" stroke="black" points="352,-359.5 352,-380.5 483,-380.5 483,-359.5 352,-359.5"/>
<text text-anchor="middle" x="417.5" y="-366.9" font-family="Ubuntu Mono" font-size="12.00">output_ops::draw_ex</text>
</a>
</g>
</g>
<!-- Node154&#45;&gt;Node164 -->
<g id="edge13" class="edge"><title>Node154&#45;&gt;Node164</title>
<path fill="none" stroke="midnightblue" d="M288.078,-332.026C314.827,-339.936 346.174,-349.205 371.201,-356.605"/>
<polygon fill="midnightblue" stroke="midnightblue" points="370.226,-359.966 380.808,-359.446 372.211,-353.254 370.226,-359.966"/>
</g>
<!-- Node156&#45;&gt;Node157 -->
<g id="edge4" class="edge"><title>Node156&#45;&gt;Node157</title>
<path fill="none" stroke="midnightblue" d="M442.517,-474.033C465.517,-489.223 501.826,-510.354 537,-519 609.077,-536.716 634.287,-544.477 704,-519 844.307,-467.724 935.245,-291.924 962.719,-232.111"/>
<polygon fill="midnightblue" stroke="midnightblue" points="966.067,-233.199 966.978,-222.644 959.683,-230.327 966.067,-233.199"/>
</g>
<!-- Node156&#45;&gt;Node160 -->
<g id="edge7" class="edge"><title>Node156&#45;&gt;Node160</title>
<path fill="none" stroke="midnightblue" d="M486.269,-471.161C509.897,-476.098 536.235,-481.601 559.214,-486.403"/>
<polygon fill="midnightblue" stroke="midnightblue" points="558.671,-489.865 569.175,-488.484 560.103,-483.013 558.671,-489.865"/>
</g>
<!-- Node158 -->
<g id="node6" class="node"><title>Node158</title>
<g id="a_node6"><a xlink:href="namespacemessages.html#a82dddaab795b78b3d39e1ff1aab2f665" target="_top" xlink:title="Returns the memory usage in kilobytes. ">
<polygon fill="white" stroke="black" points="1062,-221.5 1062,-242.5 1217,-242.5 1217,-221.5 1062,-221.5"/>
<text text-anchor="middle" x="1139.5" y="-228.9" font-family="Ubuntu Mono" font-size="12.00">messages::get_mem_usage</text>
</a>
</g>
</g>
<!-- Node157&#45;&gt;Node158 -->
<g id="edge5" class="edge"><title>Node157&#45;&gt;Node158</title>
<path fill="none" stroke="midnightblue" d="M1026.16,-218.383C1034.45,-219.388 1043.21,-220.449 1052.03,-221.518"/>
<polygon fill="midnightblue" stroke="midnightblue" points="1051.64,-224.996 1061.98,-222.725 1052.48,-218.047 1051.64,-224.996"/>
</g>
<!-- Node159 -->
<g id="node7" class="node"><title>Node159</title>
<g id="a_node7"><a xlink:href="namespacemessages.html#a61fd0b51b5e37d58fdc993c01792a3fd" target="_top" xlink:title="Returns the time. ">
<polygon fill="white" stroke="black" points="1074,-181.5 1074,-202.5 1205,-202.5 1205,-181.5 1074,-181.5"/>
<text text-anchor="middle" x="1139.5" y="-188.9" font-family="Ubuntu Mono" font-size="12.00">messages::get_clock</text>
</a>
</g>
</g>
<!-- Node157&#45;&gt;Node159 -->
<g id="edge6" class="edge"><title>Node157&#45;&gt;Node159</title>
<path fill="none" stroke="midnightblue" d="M1026.16,-205.617C1038.14,-204.165 1051.09,-202.595 1063.8,-201.055"/>
<polygon fill="midnightblue" stroke="midnightblue" points="1064.4,-204.507 1073.91,-199.829 1063.56,-197.558 1064.4,-204.507"/>
</g>
<!-- Node161&#45;&gt;Node157 -->
<g id="edge10" class="edge"><title>Node161&#45;&gt;Node157</title>
<path fill="none" stroke="midnightblue" d="M855.528,-240.446C874.971,-235.677 898.13,-229.997 918.621,-224.97"/>
<polygon fill="midnightblue" stroke="midnightblue" points="919.56,-228.344 928.438,-222.562 917.892,-221.545 919.56,-228.344"/>
</g>
<!-- Node164&#45;&gt;Node157 -->
<g id="edge15" class="edge"><title>Node164&#45;&gt;Node157</title>
<path fill="none" stroke="midnightblue" d="M463.096,-380.526C475.398,-383.507 488.733,-386.81 501,-390 517.071,-394.179 520.546,-397.757 537,-400 610.542,-410.024 631.557,-416.153 704,-400 789.774,-380.875 813.16,-369.341 883,-316 914.96,-291.59 943.422,-253.867 958.99,-231.191"/>
<polygon fill="midnightblue" stroke="midnightblue" points="961.99,-233.001 964.666,-222.749 956.181,-229.095 961.99,-233.001"/>
</g>
<!-- Node164&#45;&gt;Node160 -->
<g id="edge14" class="edge"><title>Node164&#45;&gt;Node160</title>
<path fill="none" stroke="midnightblue" d="M483.194,-379.175C489.658,-381.935 495.757,-385.474 501,-390 533.299,-417.882 504.701,-451.118 537,-479 538.952,-480.685 541.023,-482.234 543.187,-483.656"/>
<polygon fill="midnightblue" stroke="midnightblue" points="541.505,-486.725 551.944,-488.539 544.915,-480.612 541.505,-486.725"/>
</g>
<!-- Node164&#45;&gt;Node161 -->
<g id="edge20" class="edge"><title>Node164&#45;&gt;Node161</title>
<path fill="none" stroke="midnightblue" d="M471.801,-359.474C548.308,-344.235 682.462,-316.974 704,-309 733.582,-298.048 765.017,-280.048 786.004,-267.002"/>
<polygon fill="midnightblue" stroke="midnightblue" points="788.01,-269.875 794.594,-261.575 784.271,-263.957 788.01,-269.875"/>
</g>
<!-- Node165 -->
<g id="node13" class="node"><title>Node165</title>
<g id="a_node13"><a xlink:href="namespacefiles__utilities.html#ac6066df405564ba2f5e3c4bba726c1f8" target="_top" xlink:title="Search for available new unit. ">
<polygon fill="white" stroke="black" points="537,-448.5 537,-469.5 704,-469.5 704,-448.5 537,-448.5"/>
<text text-anchor="middle" x="620.5" y="-455.9" font-family="Ubuntu Mono" font-size="12.00">files_utilities::nextunit</text>
</a>
</g>
</g>
<!-- Node164&#45;&gt;Node165 -->
<g id="edge16" class="edge"><title>Node164&#45;&gt;Node165</title>
<path fill="none" stroke="midnightblue" d="M481.099,-380.541C488.092,-383.049 494.887,-386.155 501,-390 522.388,-403.453 516,-419.95 537,-434 543.472,-438.33 550.721,-441.933 558.164,-444.925"/>
<polygon fill="midnightblue" stroke="midnightblue" points="557.058,-448.247 567.652,-448.397 559.464,-441.674 557.058,-448.247"/>
</g>
<!-- Node166 -->
<g id="node14" class="node"><title>Node166</title>
<g id="a_node14"><a xlink:href="namespaceoutput__ops.html#aa9e4855511b6ea16a08b3efb587bec51" target="_top" xlink:title="Executes command line, or displays a message if disabled. ">
<polygon fill="white" stroke="black" points="543,-357 543,-391 698,-391 698,-357 543,-357"/>
<text text-anchor="start" x="551" y="-377.4" font-family="Ubuntu Mono" font-size="12.00">output_ops::use_execute</text>
<text text-anchor="middle" x="620.5" y="-364.4" font-family="Ubuntu Mono" font-size="12.00">_command_line</text>
</a>
</g>
</g>
<!-- Node164&#45;&gt;Node166 -->
<g id="edge17" class="edge"><title>Node164&#45;&gt;Node166</title>
<path fill="none" stroke="midnightblue" d="M483.204,-371.288C498.98,-371.602 516.11,-371.942 532.73,-372.273"/>
<polygon fill="midnightblue" stroke="midnightblue" points="532.928,-375.778 542.995,-372.478 533.067,-368.779 532.928,-375.778"/>
</g>
<!-- Node167 -->
<g id="node15" class="node"><title>Node167</title>
<g id="a_node15"><a xlink:href="namespacestr__utilities.html#a92ac6c0af1979df094de1caddd28ade0" target="_top" xlink:title="Convert a real (double) to string. ">
<polygon fill="white" stroke="black" points="552,-278.5 552,-299.5 689,-299.5 689,-278.5 552,-278.5"/>
<text text-anchor="middle" x="620.5" y="-285.9" font-family="Ubuntu Mono" font-size="12.00">str_utilities::r2str</text>
</a>
</g>
</g>
<!-- Node164&#45;&gt;Node167 -->
<g id="edge21" class="edge"><title>Node164&#45;&gt;Node167</title>
<path fill="none" stroke="midnightblue" d="M465.693,-359.377C477.615,-355.715 490.114,-350.983 501,-345 519.504,-334.829 518.496,-324.171 537,-314 544.994,-309.606 553.859,-305.887 562.726,-302.771"/>
<polygon fill="midnightblue" stroke="midnightblue" points="563.9,-306.069 572.307,-299.623 561.714,-299.419 563.9,-306.069"/>
</g>
<!-- Node166&#45;&gt;Node157 -->
<g id="edge18" class="edge"><title>Node166&#45;&gt;Node157</title>
<path fill="none" stroke="midnightblue" d="M674.313,-356.958C728.196,-338.711 813.529,-307.416 883,-271 906.677,-258.589 931.876,-241.348 949.305,-228.708"/>
<polygon fill="midnightblue" stroke="midnightblue" points="951.675,-231.309 957.661,-222.567 947.53,-225.668 951.675,-231.309"/>
</g>
<!-- Node166&#45;&gt;Node161 -->
<g id="edge19" class="edge"><title>Node166&#45;&gt;Node161</title>
<path fill="none" stroke="midnightblue" d="M673.377,-356.962C683.824,-352.686 694.505,-347.673 704,-342 738.835,-321.188 773.502,-288.848 793.423,-268.849"/>
<polygon fill="midnightblue" stroke="midnightblue" points="796.037,-271.182 800.542,-261.593 791.04,-266.279 796.037,-271.182"/>
</g>
<!-- Node168&#45;&gt;Node157 -->
<g id="edge30" class="edge"><title>Node168&#45;&gt;Node157</title>
<path fill="none" stroke="midnightblue" d="M667.822,-94.525C732.055,-109.439 844.607,-136.816 883,-154 907.416,-164.928 932.69,-182.19 949.946,-195.045"/>
<polygon fill="midnightblue" stroke="midnightblue" points="948.112,-198.046 958.192,-201.308 952.346,-192.472 948.112,-198.046"/>
</g>
<!-- Node169 -->
<g id="node17" class="node"><title>Node169</title>
<g id="a_node17"><a xlink:href="namespacemessages.html#aed343894ae4a28ad6dfbd1d39aac64ff" target="_top" xlink:title="Stop a timer. ">
<polygon fill="white" stroke="black" points="746,-40.5 746,-61.5 877,-61.5 877,-40.5 746,-40.5"/>
<text text-anchor="middle" x="811.5" y="-47.9" font-family="Ubuntu Mono" font-size="12.00">messages::stop_time</text>
</a>
</g>
</g>
<!-- Node168&#45;&gt;Node169 -->
<g id="edge25" class="edge"><title>Node168&#45;&gt;Node169</title>
<path fill="none" stroke="midnightblue" d="M681.82,-73.4679C700.404,-70.2232 721.025,-66.6227 740.217,-63.2717"/>
<polygon fill="midnightblue" stroke="midnightblue" points="740.855,-66.7132 750.104,-61.5453 739.651,-59.8175 740.855,-66.7132"/>
</g>
<!-- Node170 -->
<g id="node18" class="node"><title>Node170</title>
<g id="a_node18"><a xlink:href="namespacemessages.html#a84d5988f3ea5ca8dc2834032f896ae90" target="_top" xlink:title="Start a timer. ">
<polygon fill="white" stroke="black" points="743,-0.5 743,-21.5 880,-21.5 880,-0.5 743,-0.5"/>
<text text-anchor="middle" x="811.5" y="-7.9" font-family="Ubuntu Mono" font-size="12.00">messages::start_time</text>
</a>
</g>
</g>
<!-- Node168&#45;&gt;Node170 -->
<g id="edge27" class="edge"><title>Node168&#45;&gt;Node170</title>
<path fill="none" stroke="midnightblue" d="M642.526,-73.4839C665.925,-62.0451 705.05,-43.6985 740,-31 746.347,-28.694 753.093,-26.4844 759.799,-24.4305"/>
<polygon fill="midnightblue" stroke="midnightblue" points="760.953,-27.7388 769.545,-21.5394 758.963,-21.0279 760.953,-27.7388"/>
</g>
<!-- Node171 -->
<g id="node19" class="node"><title>Node171</title>
<g id="a_node19"><a xlink:href="namespacestr__utilities.html#a219964a283968cc6a968db0197d2187e" target="_top" xlink:title="Convert a string to lowercase. ">
<polygon fill="white" stroke="black" points="740,-80.5 740,-101.5 883,-101.5 883,-80.5 740,-80.5"/>
<text text-anchor="middle" x="811.5" y="-87.9" font-family="Ubuntu Mono" font-size="12.00">str_utilities::strh2l</text>
</a>
</g>
</g>
<!-- Node168&#45;&gt;Node171 -->
<g id="edge29" class="edge"><title>Node168&#45;&gt;Node171</title>
<path fill="none" stroke="midnightblue" d="M701.105,-86.9483C710.588,-87.2996 720.277,-87.6584 729.775,-88.0102"/>
<polygon fill="midnightblue" stroke="midnightblue" points="729.866,-91.5159 739.989,-88.3885 730.125,-84.5207 729.866,-91.5159"/>
</g>
<!-- Node169&#45;&gt;Node157 -->
<g id="edge26" class="edge"><title>Node169&#45;&gt;Node157</title>
<path fill="none" stroke="midnightblue" d="M866.096,-61.5963C872.12,-64.0956 877.91,-67.184 883,-71 925.197,-102.638 952.205,-160.817 964.236,-191.622"/>
<polygon fill="midnightblue" stroke="midnightblue" points="961.075,-193.158 967.868,-201.288 967.627,-190.696 961.075,-193.158"/>
</g>
<!-- Node170&#45;&gt;Node157 -->
<g id="edge28" class="edge"><title>Node170&#45;&gt;Node157</title>
<path fill="none" stroke="midnightblue" d="M867.57,-21.5571C873.132,-24.0642 878.412,-27.1651 883,-31 934.296,-73.8765 958.328,-153.624 967.214,-191.285"/>
<polygon fill="midnightblue" stroke="midnightblue" points="963.817,-192.135 969.414,-201.131 970.649,-190.609 963.817,-192.135"/>
</g>
</g>
</svg>
