<?xml version="1.0" encoding="UTF-8" standalone="no"?>
<!DOCTYPE svg PUBLIC "-//W3C//DTD SVG 1.1//EN"
 "http://www.w3.org/Graphics/SVG/1.1/DTD/svg11.dtd">
<!-- Generated by graphviz version 2.43.0 (0)
 -->
<!-- Title: helena_ops::get_ang_interp_data_hel Pages: 1 -->
<svg width="796pt" height="110pt"
 viewBox="0.00 0.00 796.00 110.00" xmlns="http://www.w3.org/2000/svg" xmlns:xlink="http://www.w3.org/1999/xlink">
<g id="graph0" class="graph" transform="scale(1 1) rotate(0) translate(4 106)">
<title>helena_ops::get_ang_interp_data_hel</title>
<polygon fill="white" stroke="transparent" points="-4,4 -4,-106 792,-106 792,4 -4,4"/>
<!-- Node1 -->
<g id="node1" class="node">
<title>Node1</title>
<g id="a_node1"><a xlink:title="Calculate interpolation factors for angular interpolation in grid_out of quantities defined on grid_i...">
<polygon fill="#bfbfbf" stroke="black" points="648,-34 648,-68 788,-68 788,-34 648,-34"/>
<text text-anchor="start" x="656" y="-54.4" font-family="Ubuntu Mono" font-size="12.00">helena_ops::get_ang</text>
<text text-anchor="middle" x="718" y="-41.4" font-family="Ubuntu Mono" font-size="12.00">_interp_data_hel</text>
</a>
</g>
</g>
<!-- Node2 -->
<g id="node2" class="node">
<title>Node2</title>
<g id="a_node2"><a xlink:href="namespacehelena__ops.html#a7796861de18ae7ac9c3aa07a8628be38" target="_top" xlink:title="Interpolate variables resulting from HELENA equilibria to another grid (angularly).">
<polygon fill="white" stroke="black" points="485,-34 485,-68 612,-68 612,-34 485,-34"/>
<text text-anchor="start" x="493" y="-54.4" font-family="Ubuntu Mono" font-size="12.00">helena_ops::interp</text>
<text text-anchor="middle" x="548.5" y="-41.4" font-family="Ubuntu Mono" font-size="12.00">_hel_on_grid</text>
</a>
</g>
</g>
<!-- Node1&#45;&gt;Node2 -->
<g id="edge1" class="edge">
<title>Node1&#45;&gt;Node2</title>
<path fill="none" stroke="midnightblue" d="M637.87,-51C629.28,-51 620.62,-51 612.26,-51"/>
<polygon fill="midnightblue" stroke="midnightblue" points="637.9,-54.5 647.9,-51 637.9,-47.5 637.9,-54.5"/>
</g>
<!-- Node3 -->
<g id="node3" class="node">
<title>Node3</title>
<g id="a_node3"><a xlink:href="namespacedriver__post.html#a33b3c6f9018a0ddc92dce77394b8ab37" target="_top" xlink:title="The main driver routine for postprocessing.">
<polygon fill="white" stroke="black" points="265,-80.5 265,-101.5 449,-101.5 449,-80.5 265,-80.5"/>
<text text-anchor="middle" x="357" y="-87.9" font-family="Ubuntu Mono" font-size="12.00">driver_post::run_driver_post</text>
</a>
</g>
</g>
<!-- Node2&#45;&gt;Node3 -->
<g id="edge2" class="edge">
<title>Node2&#45;&gt;Node3</title>
<path fill="none" stroke="midnightblue" d="M475.1,-66.28C452.67,-71.02 428.47,-76.13 407.92,-80.46"/>
<polygon fill="midnightblue" stroke="midnightblue" points="475.86,-69.7 484.93,-64.21 474.42,-62.85 475.86,-69.7"/>
</g>
<!-- Node5 -->
<g id="node5" class="node">
<title>Node5</title>
<g id="a_node5"><a xlink:href="namespacedriver__x.html#a2b82a9bc6c0f4af9f3468d03fedc008e" target="_top" xlink:title="part 0 of driver_x: perturbation grid as well as reconstruction of variables.">
<polygon fill="white" stroke="black" points="277,-40.5 277,-61.5 437,-61.5 437,-40.5 277,-40.5"/>
<text text-anchor="middle" x="357" y="-47.9" font-family="Ubuntu Mono" font-size="12.00">driver_x::run_driver_x_0</text>
</a>
</g>
</g>
<!-- Node2&#45;&gt;Node5 -->
<g id="edge4" class="edge">
<title>Node2&#45;&gt;Node5</title>
<path fill="none" stroke="midnightblue" d="M474.72,-51C462.39,-51 449.54,-51 437.07,-51"/>
<polygon fill="midnightblue" stroke="midnightblue" points="474.93,-54.5 484.93,-51 474.93,-47.5 474.93,-54.5"/>
</g>
<!-- Node8 -->
<g id="node8" class="node">
<title>Node8</title>
<g id="a_node8"><a xlink:href="namespacedriver__x.html#ad3924b3d66f336f0a9a9559eafffec8e" target="_top" xlink:title="Part 2 of driver_X: Tensorial jobs.">
<polygon fill="white" stroke="black" points="277,-0.5 277,-21.5 437,-21.5 437,-0.5 277,-0.5"/>
<text text-anchor="middle" x="357" y="-7.9" font-family="Ubuntu Mono" font-size="12.00">driver_x::run_driver_x_2</text>
</a>
</g>
</g>
<!-- Node2&#45;&gt;Node8 -->
<g id="edge7" class="edge">
<title>Node2&#45;&gt;Node8</title>
<path fill="none" stroke="midnightblue" d="M475.1,-35.72C452.67,-30.98 428.47,-25.87 407.92,-21.54"/>
<polygon fill="midnightblue" stroke="midnightblue" points="474.42,-39.15 484.93,-37.79 475.86,-32.3 474.42,-39.15"/>
</g>
<!-- Node4 -->
<g id="node4" class="node">
<title>Node4</title>
<g id="a_node4"><a xlink:href="POST_8f90.html#ac289b64ac4671fea0b4f2298ba1188a1" target="_top" xlink:title="Peeling Ballooning in 3D: postprocessing.">
<polygon fill="white" stroke="black" points="135,-80.5 135,-101.5 177,-101.5 177,-80.5 135,-80.5"/>
<text text-anchor="middle" x="156" y="-87.9" font-family="Ubuntu Mono" font-size="12.00">post</text>
</a>
</g>
</g>
<!-- Node3&#45;&gt;Node4 -->
<g id="edge3" class="edge">
<title>Node3&#45;&gt;Node4</title>
<path fill="none" stroke="midnightblue" d="M254.94,-91C225.43,-91 196.1,-91 177.34,-91"/>
<polygon fill="midnightblue" stroke="midnightblue" points="254.94,-94.5 264.94,-91 254.94,-87.5 254.94,-94.5"/>
</g>
<!-- Node6 -->
<g id="node6" class="node">
<title>Node6</title>
<g id="a_node6"><a xlink:href="namespacedriver__x.html#ada3d72a0929daaa5e3da585246d62281" target="_top" xlink:title="Main driver of PB3D perturbation part.">
<polygon fill="white" stroke="black" points="83,-20.5 83,-41.5 229,-41.5 229,-20.5 83,-20.5"/>
<text text-anchor="middle" x="156" y="-27.9" font-family="Ubuntu Mono" font-size="12.00">driver_x::run_driver_x</text>
</a>
</g>
</g>
<!-- Node5&#45;&gt;Node6 -->
<g id="edge5" class="edge">
<title>Node5&#45;&gt;Node6</title>
<path fill="none" stroke="midnightblue" d="M266.75,-42.03C254.18,-40.77 241.38,-39.48 229.17,-38.25"/>
<polygon fill="midnightblue" stroke="midnightblue" points="266.48,-45.52 276.78,-43.04 267.18,-38.56 266.48,-45.52"/>
</g>
<!-- Node7 -->
<g id="node7" class="node">
<title>Node7</title>
<g id="a_node7"><a xlink:href="PB3D_8f90.html#afaee01f014ab3398eecac996b2795fd2" target="_top" xlink:title="Peeling Ballooning in 3D.">
<polygon fill="white" stroke="black" points="0,-20.5 0,-41.5 47,-41.5 47,-20.5 0,-20.5"/>
<text text-anchor="middle" x="23.5" y="-27.9" font-family="Ubuntu Mono" font-size="12.00">pb3d</text>
</a>
</g>
</g>
<!-- Node6&#45;&gt;Node7 -->
<g id="edge6" class="edge">
<title>Node6&#45;&gt;Node7</title>
<path fill="none" stroke="midnightblue" d="M72.66,-31C63.39,-31 54.61,-31 47.15,-31"/>
<polygon fill="midnightblue" stroke="midnightblue" points="72.88,-34.5 82.88,-31 72.88,-27.5 72.88,-34.5"/>
</g>
<!-- Node8&#45;&gt;Node6 -->
<g id="edge8" class="edge">
<title>Node8&#45;&gt;Node6</title>
<path fill="none" stroke="midnightblue" d="M266.75,-19.97C254.18,-21.23 241.38,-22.52 229.17,-23.75"/>
<polygon fill="midnightblue" stroke="midnightblue" points="267.18,-23.44 276.78,-18.96 266.48,-16.48 267.18,-23.44"/>
</g>
</g>
</svg>
