<?xml version="1.0" encoding="UTF-8" standalone="no"?>
<!DOCTYPE svg PUBLIC "-//W3C//DTD SVG 1.1//EN"
 "http://www.w3.org/Graphics/SVG/1.1/DTD/svg11.dtd">
<!-- Generated by graphviz version 2.38.0 (20140413.2041)
 -->
<!-- Title: input_utilities::get_real Pages: 1 -->
<svg width="849pt" height="274pt"
 viewBox="0.00 0.00 849.00 273.50" xmlns="http://www.w3.org/2000/svg" xmlns:xlink="http://www.w3.org/1999/xlink">
<g id="graph0" class="graph" transform="scale(1 1) rotate(0) translate(4 269.5)">
<title>input_utilities::get_real</title>
<polygon fill="white" stroke="none" points="-4,4 -4,-269.5 845,-269.5 845,4 -4,4"/>
<!-- Node76 -->
<g id="node1" class="node"><title>Node76</title>
<polygon fill="#bfbfbf" stroke="black" points="0,-114.5 0,-135.5 167,-135.5 167,-114.5 0,-114.5"/>
<text text-anchor="middle" x="83.5" y="-121.9" font-family="Ubuntu Mono" font-size="12.00">input_utilities::get_real</text>
</g>
<!-- Node77 -->
<g id="node2" class="node"><title>Node77</title>
<g id="a_node2"><a xlink:href="namespaceeq__ops.html#a9addef683b3d4a8c587510e4c994ec61" target="_top" xlink:title="Creates a VMEC input file. ">
<polygon fill="white" stroke="black" points="209,-231 209,-265 340,-265 340,-231 209,-231"/>
<text text-anchor="start" x="217" y="-251.4" font-family="Ubuntu Mono" font-size="12.00">eq_ops::create_vmec</text>
<text text-anchor="middle" x="274.5" y="-238.4" font-family="Ubuntu Mono" font-size="12.00">_input</text>
</a>
</g>
</g>
<!-- Node76&#45;&gt;Node77 -->
<g id="edge1" class="edge"><title>Node76&#45;&gt;Node77</title>
<path fill="none" stroke="midnightblue" d="M103.863,-142.113C126.541,-161.609 165.759,-193.652 203,-216 211.99,-221.395 222.046,-226.473 231.685,-230.926"/>
<polygon fill="midnightblue" stroke="midnightblue" points="106.136,-139.452 96.2902,-135.54 101.547,-144.738 106.136,-139.452"/>
</g>
<!-- Node78 -->
<g id="node3" class="node"><title>Node78</title>
<g id="a_node3"><a xlink:href="interfaceeq__ops_1_1calc__eq.html#ae2f56ab19ce5c33e863f32e1c9263604" target="_top" xlink:title="metric version ">
<polygon fill="white" stroke="black" points="382,-214.5 382,-235.5 555,-235.5 555,-214.5 382,-214.5"/>
<text text-anchor="middle" x="468.5" y="-221.9" font-family="Ubuntu Mono" font-size="12.00">eq_ops::calc_eq::calc_eq_2</text>
</a>
</g>
</g>
<!-- Node76&#45;&gt;Node78 -->
<g id="edge3" class="edge"><title>Node76&#45;&gt;Node78</title>
<path fill="none" stroke="midnightblue" d="M126.896,-138.526C149.414,-145.546 177.611,-154.078 203,-161 278.665,-181.629 367.417,-202.415 420.468,-214.48"/>
<polygon fill="midnightblue" stroke="midnightblue" points="127.889,-135.17 117.3,-135.519 125.796,-141.849 127.889,-135.17"/>
</g>
<!-- Node79 -->
<g id="node4" class="node"><title>Node79</title>
<g id="a_node4"><a xlink:href="namespaceslepc__ops.html#a79c420987056c225931b51c8d30ece1f" target="_top" xlink:title="Solve the eigenvalue system using SLEPC. ">
<polygon fill="white" stroke="black" points="403,-108 403,-142 534,-142 534,-108 403,-108"/>
<text text-anchor="start" x="411" y="-128.4" font-family="Ubuntu Mono" font-size="12.00">slepc_ops::solve_ev</text>
<text text-anchor="middle" x="468.5" y="-115.4" font-family="Ubuntu Mono" font-size="12.00">_system_slepc</text>
</a>
</g>
</g>
<!-- Node76&#45;&gt;Node79 -->
<g id="edge4" class="edge"><title>Node76&#45;&gt;Node79</title>
<path fill="none" stroke="midnightblue" d="M145.584,-137.315C163.961,-140.476 184.23,-143.427 203,-145 266.334,-150.307 282.656,-150.179 346,-145 364.537,-143.485 384.507,-140.689 402.795,-137.659"/>
<polygon fill="midnightblue" stroke="midnightblue" points="146.049,-133.843 135.592,-135.544 144.828,-140.735 146.049,-133.843"/>
</g>
<!-- Node82 -->
<g id="node7" class="node"><title>Node82</title>
<g id="a_node7"><a xlink:href="namespaceslepc__ops.html#aac8202cb74cbb06013eb73f1fa0c3118" target="_top" xlink:title="Sets up the matrices &#160;and &#160;in the EV problem . ">
<polygon fill="white" stroke="black" points="203,-114.5 203,-135.5 346,-135.5 346,-114.5 203,-114.5"/>
<text text-anchor="middle" x="274.5" y="-121.9" font-family="Ubuntu Mono" font-size="12.00">slepc_ops::setup_mats</text>
</a>
</g>
</g>
<!-- Node76&#45;&gt;Node82 -->
<g id="edge7" class="edge"><title>Node76&#45;&gt;Node82</title>
<path fill="none" stroke="midnightblue" d="M177.224,-125C185.851,-125 194.497,-125 202.876,-125"/>
<polygon fill="midnightblue" stroke="midnightblue" points="177.123,-121.5 167.123,-125 177.123,-128.5 177.123,-121.5"/>
</g>
<!-- Node83 -->
<g id="node8" class="node"><title>Node83</title>
<g id="a_node8"><a xlink:href="namespacetest.html#a53c6b3d654d4577af301fe3b04473d6a" target="_top" xlink:title="Test spline(). ">
<polygon fill="white" stroke="black" points="406,-55.5 406,-76.5 531,-76.5 531,-55.5 406,-55.5"/>
<text text-anchor="middle" x="468.5" y="-62.9" font-family="Ubuntu Mono" font-size="12.00">test::test_splines</text>
</a>
</g>
</g>
<!-- Node76&#45;&gt;Node83 -->
<g id="edge9" class="edge"><title>Node76&#45;&gt;Node83</title>
<path fill="none" stroke="midnightblue" d="M155.489,-112.771C171.129,-110.146 187.617,-107.432 203,-105 272.459,-94.019 352.341,-82.3763 405.983,-74.7009"/>
<polygon fill="midnightblue" stroke="midnightblue" points="154.633,-109.366 145.353,-114.48 155.796,-116.269 154.633,-109.366"/>
</g>
<!-- Node86 -->
<g id="node11" class="node"><title>Node86</title>
<g id="a_node11"><a xlink:href="test_8f90.html#a197914f99b7e194fb4bca9ca3669e0e8" target="_top" xlink:title="plot_y">
<polygon fill="white" stroke="black" points="248,-36.5 248,-57.5 301,-57.5 301,-36.5 248,-36.5"/>
<text text-anchor="middle" x="274.5" y="-43.9" font-family="Ubuntu Mono" font-size="12.00">plot_y</text>
</a>
</g>
</g>
<!-- Node76&#45;&gt;Node86 -->
<g id="edge13" class="edge"><title>Node76&#45;&gt;Node86</title>
<path fill="none" stroke="midnightblue" d="M116.201,-109.993C139.899,-98.9777 173.208,-83.9224 203,-72 217.709,-66.1135 234.41,-60.1597 247.864,-55.5398"/>
<polygon fill="midnightblue" stroke="midnightblue" points="114.566,-106.893 106.987,-114.297 117.529,-113.236 114.566,-106.893"/>
</g>
<!-- Node87 -->
<g id="node12" class="node"><title>Node87</title>
<g id="a_node12"><a xlink:href="namespacetest.html#ab595ec935321ea0b1168593fb88fad22" target="_top" xlink:title="Test calculation of toroidal functions. ">
<polygon fill="white" stroke="black" points="406,-0.5 406,-21.5 531,-21.5 531,-0.5 406,-0.5"/>
<text text-anchor="middle" x="468.5" y="-7.9" font-family="Ubuntu Mono" font-size="12.00">test::test_tor_fun</text>
</a>
</g>
</g>
<!-- Node76&#45;&gt;Node87 -->
<g id="edge15" class="edge"><title>Node76&#45;&gt;Node87</title>
<path fill="none" stroke="midnightblue" d="M100.002,-106.391C120.721,-83.0452 159.869,-44.0125 203,-27 268.691,-1.08891 350.7,-0.498382 405.84,-4.17937"/>
<polygon fill="midnightblue" stroke="midnightblue" points="97.1294,-104.362 93.2293,-114.213 102.421,-108.944 97.1294,-104.362"/>
</g>
<!-- Node77&#45;&gt;Node78 -->
<g id="edge2" class="edge"><title>Node77&#45;&gt;Node78</title>
<path fill="none" stroke="midnightblue" d="M350.43,-239.024C360.757,-237.787 371.428,-236.509 381.929,-235.251"/>
<polygon fill="midnightblue" stroke="midnightblue" points="349.747,-235.581 340.235,-240.245 350.58,-242.531 349.747,-235.581"/>
</g>
<!-- Node80 -->
<g id="node5" class="node"><title>Node80</title>
<g id="a_node5"><a xlink:href="namespacedriver__sol.html#ad3b1765b3ecc5f82129bfc683ffc6c5c" target="_top" xlink:title="Main driver of PB3D solution part. ">
<polygon fill="white" stroke="black" points="591,-111.5 591,-132.5 764,-132.5 764,-111.5 591,-111.5"/>
<text text-anchor="middle" x="677.5" y="-118.9" font-family="Ubuntu Mono" font-size="12.00">driver_sol::run_driver_sol</text>
</a>
</g>
</g>
<!-- Node79&#45;&gt;Node80 -->
<g id="edge5" class="edge"><title>Node79&#45;&gt;Node80</title>
<path fill="none" stroke="midnightblue" d="M544.395,-123.915C559.427,-123.697 575.333,-123.466 590.702,-123.243"/>
<polygon fill="midnightblue" stroke="midnightblue" points="544.093,-120.418 534.145,-124.063 544.194,-127.418 544.093,-120.418"/>
</g>
<!-- Node81 -->
<g id="node6" class="node"><title>Node81</title>
<g id="a_node6"><a xlink:href="PB3D_8f90.html#afaee01f014ab3398eecac996b2795fd2" target="_top" xlink:title="Peeling Ballooning in 3D. ">
<polygon fill="white" stroke="black" points="800,-100.5 800,-121.5 841,-121.5 841,-100.5 800,-100.5"/>
<text text-anchor="middle" x="820.5" y="-107.9" font-family="Ubuntu Mono" font-size="12.00">pb3d</text>
</a>
</g>
</g>
<!-- Node80&#45;&gt;Node81 -->
<g id="edge6" class="edge"><title>Node80&#45;&gt;Node81</title>
<path fill="none" stroke="midnightblue" d="M774.337,-114.523C783.873,-113.779 792.695,-113.091 799.964,-112.524"/>
<polygon fill="midnightblue" stroke="midnightblue" points="773.875,-111.049 764.178,-115.316 774.42,-118.027 773.875,-111.049"/>
</g>
<!-- Node82&#45;&gt;Node79 -->
<g id="edge8" class="edge"><title>Node82&#45;&gt;Node79</title>
<path fill="none" stroke="midnightblue" d="M356.261,-125C371.753,-125 387.789,-125 402.698,-125"/>
<polygon fill="midnightblue" stroke="midnightblue" points="356.176,-121.5 346.176,-125 356.176,-128.5 356.176,-121.5"/>
</g>
<!-- Node84 -->
<g id="node9" class="node"><title>Node84</title>
<g id="a_node9"><a xlink:href="namespacetest.html#aca21ee464c0b1f4b617177afdde110ec" target="_top" xlink:title="Performs generic tests. ">
<polygon fill="white" stroke="black" points="612,-55.5 612,-76.5 743,-76.5 743,-55.5 612,-55.5"/>
<text text-anchor="middle" x="677.5" y="-62.9" font-family="Ubuntu Mono" font-size="12.00">test::generic_tests</text>
</a>
</g>
</g>
<!-- Node83&#45;&gt;Node84 -->
<g id="edge10" class="edge"><title>Node83&#45;&gt;Node84</title>
<path fill="none" stroke="midnightblue" d="M541.096,-66C564.117,-66 589.472,-66 611.955,-66"/>
<polygon fill="midnightblue" stroke="midnightblue" points="541.046,-62.5001 531.046,-66 541.046,-69.5001 541.046,-62.5001"/>
</g>
<!-- Node84&#45;&gt;Node81 -->
<g id="edge11" class="edge"><title>Node84&#45;&gt;Node81</title>
<path fill="none" stroke="midnightblue" d="M721.223,-79.6351C747.31,-87.9606 779.436,-98.2137 799.7,-104.681"/>
<polygon fill="midnightblue" stroke="midnightblue" points="722.149,-76.2567 711.558,-76.5505 720.021,-82.9253 722.149,-76.2567"/>
</g>
<!-- Node85 -->
<g id="node10" class="node"><title>Node85</title>
<g id="a_node10"><a xlink:href="POST_8f90.html#ac289b64ac4671fea0b4f2298ba1188a1" target="_top" xlink:title="Peeling Ballooning in 3D: postprocessing. ">
<polygon fill="white" stroke="black" points="800,-55.5 800,-76.5 841,-76.5 841,-55.5 800,-55.5"/>
<text text-anchor="middle" x="820.5" y="-62.9" font-family="Ubuntu Mono" font-size="12.00">post</text>
</a>
</g>
</g>
<!-- Node84&#45;&gt;Node85 -->
<g id="edge12" class="edge"><title>Node84&#45;&gt;Node85</title>
<path fill="none" stroke="midnightblue" d="M753.364,-66C770.574,-66 787.435,-66 799.825,-66"/>
<polygon fill="midnightblue" stroke="midnightblue" points="753.223,-62.5001 743.223,-66 753.223,-69.5001 753.223,-62.5001"/>
</g>
<!-- Node86&#45;&gt;Node83 -->
<g id="edge14" class="edge"><title>Node86&#45;&gt;Node83</title>
<path fill="none" stroke="midnightblue" d="M311.364,-50.5491C337.852,-53.1702 374.564,-56.8032 405.735,-59.8878"/>
<polygon fill="midnightblue" stroke="midnightblue" points="311.69,-47.0643 301.394,-49.5624 311.001,-54.0303 311.69,-47.0643"/>
</g>
<!-- Node87&#45;&gt;Node84 -->
<g id="edge16" class="edge"><title>Node87&#45;&gt;Node84</title>
<path fill="none" stroke="midnightblue" d="M519.225,-24.2119C555.224,-33.7769 603.241,-46.5351 636.711,-55.428"/>
<polygon fill="midnightblue" stroke="midnightblue" points="519.975,-20.7899 509.412,-21.6046 518.178,-27.5552 519.975,-20.7899"/>
</g>
</g>
</svg>
