<?xml version="1.0" encoding="UTF-8" standalone="no"?>
<!DOCTYPE svg PUBLIC "-//W3C//DTD SVG 1.1//EN"
 "http://www.w3.org/Graphics/SVG/1.1/DTD/svg11.dtd">
<!-- Generated by graphviz version 2.38.0 (20140413.2041)
 -->
<!-- Title: sol_ops::plot_harmonics Pages: 1 -->
<svg width="425pt" height="30pt"
 viewBox="0.00 0.00 425.00 30.00" xmlns="http://www.w3.org/2000/svg" xmlns:xlink="http://www.w3.org/1999/xlink">
<g id="graph0" class="graph" transform="scale(1 1) rotate(0) translate(4 26)">
<title>sol_ops::plot_harmonics</title>
<polygon fill="white" stroke="none" points="-4,4 -4,-26 421,-26 421,4 -4,4"/>
<!-- Node46 -->
<g id="node1" class="node"><title>Node46</title>
<polygon fill="#bfbfbf" stroke="black" points="0,-0.5 0,-21.5 155,-21.5 155,-0.5 0,-0.5"/>
<text text-anchor="middle" x="77.5" y="-7.9" font-family="Ubuntu Mono" font-size="12.00">sol_ops::plot_harmonics</text>
</g>
<!-- Node47 -->
<g id="node2" class="node"><title>Node47</title>
<g id="a_node2"><a xlink:href="namespacedriver__post.html#af527706d4e696d4e507443d2f74194ef" target="_top" xlink:title="Initializes the POST driver. ">
<polygon fill="white" stroke="black" points="191,-0.5 191,-21.5 340,-21.5 340,-0.5 191,-0.5"/>
<text text-anchor="middle" x="265.5" y="-7.9" font-family="Ubuntu Mono" font-size="12.00">driver_post::init_post</text>
</a>
</g>
</g>
<!-- Node46&#45;&gt;Node47 -->
<g id="edge1" class="edge"><title>Node46&#45;&gt;Node47</title>
<path fill="none" stroke="midnightblue" d="M165.258,-11C173.847,-11 182.506,-11 190.942,-11"/>
<polygon fill="midnightblue" stroke="midnightblue" points="165.227,-7.5001 155.227,-11 165.227,-14.5001 165.227,-7.5001"/>
</g>
<!-- Node48 -->
<g id="node3" class="node"><title>Node48</title>
<g id="a_node3"><a xlink:href="POST_8f90.html#ac289b64ac4671fea0b4f2298ba1188a1" target="_top" xlink:title="Peeling Ballooning in 3D: postprocessing. ">
<polygon fill="white" stroke="black" points="376,-0.5 376,-21.5 417,-21.5 417,-0.5 376,-0.5"/>
<text text-anchor="middle" x="396.5" y="-7.9" font-family="Ubuntu Mono" font-size="12.00">post</text>
</a>
</g>
</g>
<!-- Node47&#45;&gt;Node48 -->
<g id="edge2" class="edge"><title>Node47&#45;&gt;Node48</title>
<path fill="none" stroke="midnightblue" d="M350.141,-11C359.656,-11 368.56,-11 375.916,-11"/>
<polygon fill="midnightblue" stroke="midnightblue" points="350.044,-7.5001 340.044,-11 350.044,-14.5001 350.044,-7.5001"/>
</g>
</g>
</svg>
