<?xml version="1.0" encoding="UTF-8" standalone="no"?>
<!DOCTYPE svg PUBLIC "-//W3C//DTD SVG 1.1//EN"
 "http://www.w3.org/Graphics/SVG/1.1/DTD/svg11.dtd">
<!-- Generated by graphviz version 2.38.0 (20140413.2041)
 -->
<!-- Title: slepc_ops::setup_guess Pages: 1 -->
<svg width="610pt" height="43pt"
 viewBox="0.00 0.00 610.00 43.00" xmlns="http://www.w3.org/2000/svg" xmlns:xlink="http://www.w3.org/1999/xlink">
<g id="graph0" class="graph" transform="scale(1 1) rotate(0) translate(4 39)">
<title>slepc_ops::setup_guess</title>
<polygon fill="white" stroke="none" points="-4,4 -4,-39 606,-39 606,4 -4,4"/>
<!-- Node8 -->
<g id="node1" class="node"><title>Node8</title>
<polygon fill="#bfbfbf" stroke="black" points="0,-7 0,-28 149,-28 149,-7 0,-7"/>
<text text-anchor="middle" x="74.5" y="-14.4" font-family="Ubuntu Mono" font-size="12.00">slepc_ops::setup_guess</text>
</g>
<!-- Node9 -->
<g id="node2" class="node"><title>Node9</title>
<g id="a_node2"><a xlink:href="namespaceslepc__ops.html#ad9d4a9b7275ac5a6b9b35e481a7c1710" target="_top" xlink:title="slepc_ops::solve_ev\l_system_slepc">
<polygon fill="white" stroke="black" points="185,-0.5 185,-34.5 316,-34.5 316,-0.5 185,-0.5"/>
<text text-anchor="start" x="193" y="-20.9" font-family="Ubuntu Mono" font-size="12.00">slepc_ops::solve_ev</text>
<text text-anchor="middle" x="250.5" y="-7.9" font-family="Ubuntu Mono" font-size="12.00">_system_slepc</text>
</a>
</g>
</g>
<!-- Node8&#45;&gt;Node9 -->
<g id="edge1" class="edge"><title>Node8&#45;&gt;Node9</title>
<path fill="none" stroke="midnightblue" d="M159.118,-17.5C167.737,-17.5 176.401,-17.5 184.771,-17.5"/>
<polygon fill="midnightblue" stroke="midnightblue" points="159.039,-14.0001 149.039,-17.5 159.039,-21.0001 159.039,-14.0001"/>
</g>
<!-- Node10 -->
<g id="node3" class="node"><title>Node10</title>
<g id="a_node3"><a xlink:href="namespacedriver__sol.html#a208ddea649ee160b7a55da8d0a5d4847" target="_top" xlink:title="driver_sol::run_driver_sol">
<polygon fill="white" stroke="black" points="352,-7 352,-28 525,-28 525,-7 352,-7"/>
<text text-anchor="middle" x="438.5" y="-14.4" font-family="Ubuntu Mono" font-size="12.00">driver_sol::run_driver_sol</text>
</a>
</g>
</g>
<!-- Node9&#45;&gt;Node10 -->
<g id="edge2" class="edge"><title>Node9&#45;&gt;Node10</title>
<path fill="none" stroke="midnightblue" d="M326.183,-17.5C334.607,-17.5 343.239,-17.5 351.788,-17.5"/>
<polygon fill="midnightblue" stroke="midnightblue" points="326.032,-14.0001 316.032,-17.5 326.032,-21.0001 326.032,-14.0001"/>
</g>
<!-- Node11 -->
<g id="node4" class="node"><title>Node11</title>
<g id="a_node4"><a xlink:href="PB3D_8f90.html#afaee01f014ab3398eecac996b2795fd2" target="_top" xlink:title="pb3d">
<polygon fill="white" stroke="black" points="561,-7 561,-28 602,-28 602,-7 561,-7"/>
<text text-anchor="middle" x="581.5" y="-14.4" font-family="Ubuntu Mono" font-size="12.00">pb3d</text>
</a>
</g>
</g>
<!-- Node10&#45;&gt;Node11 -->
<g id="edge3" class="edge"><title>Node10&#45;&gt;Node11</title>
<path fill="none" stroke="midnightblue" d="M535.337,-17.5C544.873,-17.5 553.695,-17.5 560.964,-17.5"/>
<polygon fill="midnightblue" stroke="midnightblue" points="535.178,-14.0001 525.178,-17.5 535.178,-21.0001 535.178,-14.0001"/>
</g>
</g>
</svg>
