<?xml version="1.0" encoding="UTF-8" standalone="no"?>
<!DOCTYPE svg PUBLIC "-//W3C//DTD SVG 1.1//EN"
 "http://www.w3.org/Graphics/SVG/1.1/DTD/svg11.dtd">
<!-- Generated by graphviz version 2.38.0 (20140413.2041)
 -->
<!-- Title: eq_ops::create_vmec_input Pages: 1 -->
<svg width="1225pt" height="775pt"
 viewBox="0.00 0.00 1225.00 774.50" xmlns="http://www.w3.org/2000/svg" xmlns:xlink="http://www.w3.org/1999/xlink">
<g id="graph0" class="graph" transform="scale(1 1) rotate(0) translate(4 770.5)">
<title>eq_ops::create_vmec_input</title>
<polygon fill="white" stroke="none" points="-4,4 -4,-770.5 1221,-770.5 1221,4 -4,4"/>
<!-- Node47 -->
<g id="node1" class="node"><title>Node47</title>
<polygon fill="#bfbfbf" stroke="black" points="0,-328.5 0,-362.5 131,-362.5 131,-328.5 0,-328.5"/>
<text text-anchor="start" x="8" y="-348.9" font-family="Ubuntu Mono" font-size="12.00">eq_ops::create_vmec</text>
<text text-anchor="middle" x="65.5" y="-335.9" font-family="Ubuntu Mono" font-size="12.00">_input</text>
</g>
<!-- Node48 -->
<g id="node2" class="node"><title>Node48</title>
<g id="a_node2"><a xlink:href="namespacegrid__utilities.html#a0854b2d6cc61a31f68b4afe7304077a9" target="_top" xlink:title="calculates the cosine and sine mode numbers of a function defined on a non&#45;regular grid...">
<polygon fill="white" stroke="black" points="170,-551 170,-572 313,-572 313,-551 170,-551"/>
<text text-anchor="middle" x="241.5" y="-558.4" font-family="Ubuntu Mono" font-size="12.00">grid_utilities::nufft</text>
</a>
</g>
</g>
<!-- Node47&#45;&gt;Node48 -->
<g id="edge1" class="edge"><title>Node47&#45;&gt;Node48</title>
<path fill="none" stroke="midnightblue" d="M70.9466,-362.625C81.3881,-399.523 110.929,-487.097 167,-535.5 172.232,-540.016 178.301,-543.765 184.665,-546.874"/>
<polygon fill="midnightblue" stroke="midnightblue" points="183.57,-550.214 194.136,-550.984 186.356,-543.792 183.57,-550.214"/>
</g>
<!-- Node49 -->
<g id="node3" class="node"><title>Node49</title>
<g id="a_node3"><a xlink:href="namespaceoutput__ops.html#a50bfbb88cc91805469353c3ff47b3e2e" target="_top" xlink:title="Use external program to draw a plot. ">
<polygon fill="white" stroke="black" points="376,-552 376,-573 507,-573 507,-552 376,-552"/>
<text text-anchor="middle" x="441.5" y="-559.4" font-family="Ubuntu Mono" font-size="12.00">output_ops::draw_ex</text>
</a>
</g>
</g>
<!-- Node47&#45;&gt;Node49 -->
<g id="edge45" class="edge"><title>Node47&#45;&gt;Node49</title>
<path fill="none" stroke="midnightblue" d="M73.1584,-362.963C86.1422,-394.575 117.939,-461.184 167,-495.5 198.786,-517.733 296.264,-538.148 365.774,-550.456"/>
<polygon fill="midnightblue" stroke="midnightblue" points="365.362,-553.937 375.816,-552.212 366.568,-547.041 365.362,-553.937"/>
</g>
<!-- Node50 -->
<g id="node4" class="node"><title>Node50</title>
<g id="a_node4"><a xlink:href="namespacestr__utilities.html#a0b97e51770725a3e98ed393d26681414" target="_top" xlink:title="Convert an integer to string. ">
<polygon fill="white" stroke="black" points="582,-469 582,-490 719,-490 719,-469 582,-469"/>
<text text-anchor="middle" x="650.5" y="-476.4" font-family="Ubuntu Mono" font-size="12.00">str_utilities::i2str</text>
</a>
</g>
</g>
<!-- Node47&#45;&gt;Node50 -->
<g id="edge46" class="edge"><title>Node47&#45;&gt;Node50</title>
<path fill="none" stroke="midnightblue" d="M98.2792,-362.52C117.66,-372.268 143.205,-384.013 167,-391.5 306.244,-435.311 475.371,-459.908 571.914,-471.378"/>
<polygon fill="midnightblue" stroke="midnightblue" points="571.547,-474.859 581.886,-472.547 572.362,-467.906 571.547,-474.859"/>
</g>
<!-- Node51 -->
<g id="node5" class="node"><title>Node51</title>
<g id="a_node5"><a xlink:href="namespacemessages.html#aa4a8d01563e92558e8a0875b075ec54c" target="_top" xlink:title="Write output to file identified by output_i. ">
<polygon fill="white" stroke="black" points="919,-411 919,-432 1026,-432 1026,-411 919,-411"/>
<text text-anchor="middle" x="972.5" y="-418.4" font-family="Ubuntu Mono" font-size="12.00">messages::writo</text>
</a>
</g>
</g>
<!-- Node47&#45;&gt;Node51 -->
<g id="edge41" class="edge"><title>Node47&#45;&gt;Node51</title>
<path fill="none" stroke="midnightblue" d="M67.7299,-362.831C72.1194,-412.352 91.096,-556.315 167,-640.5 256.62,-739.898 306.665,-766.5 440.5,-766.5 440.5,-766.5 440.5,-766.5 651.5,-766.5 764.295,-766.5 806.094,-745.011 883,-662.5 943.515,-597.575 963.433,-487.841 969.297,-442.287"/>
<polygon fill="midnightblue" stroke="midnightblue" points="972.797,-442.498 970.501,-432.154 965.845,-441.672 972.797,-442.498"/>
</g>
<!-- Node56 -->
<g id="node10" class="node"><title>Node56</title>
<g id="a_node10"><a xlink:href="namespacemessages.html#a6e6bfb084063e4cc91ee86e542043302" target="_top" xlink:title="Increases/decreases lvl of output. ">
<polygon fill="white" stroke="black" points="770,-587 770,-608 883,-608 883,-587 770,-587"/>
<text text-anchor="middle" x="826.5" y="-594.4" font-family="Ubuntu Mono" font-size="12.00">messages::lvl_ud</text>
</a>
</g>
</g>
<!-- Node47&#45;&gt;Node56 -->
<g id="edge43" class="edge"><title>Node47&#45;&gt;Node56</title>
<path fill="none" stroke="midnightblue" d="M68.3365,-362.767C74.0102,-406.916 95.4483,-524.445 167,-581.5 365.611,-739.872 489.494,-722.383 734,-653.5 760.96,-645.905 787.822,-627.907 805.397,-614.35"/>
<polygon fill="midnightblue" stroke="midnightblue" points="807.588,-617.079 813.238,-608.117 803.232,-611.6 807.588,-617.079"/>
</g>
<!-- Node57 -->
<g id="node11" class="node"><title>Node57</title>
<g id="a_node11"><a xlink:href="namespacestr__utilities.html#a92ac6c0af1979df094de1caddd28ade0" target="_top" xlink:title="Convert a real (double) to string. ">
<polygon fill="white" stroke="black" points="582,-509 582,-530 719,-530 719,-509 582,-509"/>
<text text-anchor="middle" x="650.5" y="-516.4" font-family="Ubuntu Mono" font-size="12.00">str_utilities::r2str</text>
</a>
</g>
</g>
<!-- Node47&#45;&gt;Node57 -->
<g id="edge44" class="edge"><title>Node47&#45;&gt;Node57</title>
<path fill="none" stroke="midnightblue" d="M83.3638,-362.741C102.11,-380.885 134.103,-408.927 167,-424.5 300.219,-487.566 473.192,-508.776 571.714,-515.902"/>
<polygon fill="midnightblue" stroke="midnightblue" points="571.671,-519.407 581.889,-516.607 572.155,-512.424 571.671,-519.407"/>
</g>
<!-- Node58 -->
<g id="node12" class="node"><title>Node58</title>
<g id="a_node12"><a xlink:href="namespacegrid__utilities.html#a39e7cd9b8f173994358dbdd6b57827e1" target="_top" xlink:title="Calculates , &#160;and &#160;on a grid grid_XYZ, determined through its E(quilibrium) coordinates. ">
<polygon fill="white" stroke="black" points="173,-187.5 173,-221.5 310,-221.5 310,-187.5 173,-187.5"/>
<text text-anchor="start" x="181" y="-207.9" font-family="Ubuntu Mono" font-size="12.00">grid_utilities::calc</text>
<text text-anchor="middle" x="241.5" y="-194.9" font-family="Ubuntu Mono" font-size="12.00">_xyz_grid</text>
</a>
</g>
</g>
<!-- Node47&#45;&gt;Node58 -->
<g id="edge14" class="edge"><title>Node47&#45;&gt;Node58</title>
<path fill="none" stroke="midnightblue" d="M78.6987,-328.311C96.0436,-304.905 129.875,-262.908 167,-236.5 172.41,-232.652 178.356,-229.127 184.45,-225.938"/>
<polygon fill="midnightblue" stroke="midnightblue" points="186.017,-229.067 193.44,-221.508 182.923,-222.788 186.017,-229.067"/>
</g>
<!-- Node59 -->
<g id="node13" class="node"><title>Node59</title>
<g id="a_node13"><a xlink:href="namespaceinput__utilities.html#a71bd36f063d55ab62c7a37864aef1185" target="_top" xlink:title="Pauses the running of the program. ">
<polygon fill="white" stroke="black" points="352,-353 352,-374 531,-374 531,-353 352,-353"/>
<text text-anchor="middle" x="441.5" y="-360.4" font-family="Ubuntu Mono" font-size="12.00">input_utilities::pause_prog</text>
</a>
</g>
</g>
<!-- Node47&#45;&gt;Node59 -->
<g id="edge15" class="edge"><title>Node47&#45;&gt;Node59</title>
<path fill="none" stroke="midnightblue" d="M131.219,-348.615C189.187,-351.405 275.072,-355.538 341.637,-358.742"/>
<polygon fill="midnightblue" stroke="midnightblue" points="341.573,-362.243 351.73,-359.228 341.91,-355.251 341.573,-362.243"/>
</g>
<!-- Node63 -->
<g id="node17" class="node"><title>Node63</title>
<g id="a_node17"><a xlink:href="namespaceinput__utilities.html#ad9ce824c30b32041ab70f3fb191f06db" target="_top" xlink:title="Queries for a logical value yes or no, where the default answer is also to be provided. ">
<polygon fill="white" stroke="black" points="361,-313 361,-334 522,-334 522,-313 361,-313"/>
<text text-anchor="middle" x="441.5" y="-320.4" font-family="Ubuntu Mono" font-size="12.00">input_utilities::get_log</text>
</a>
</g>
</g>
<!-- Node47&#45;&gt;Node63 -->
<g id="edge22" class="edge"><title>Node47&#45;&gt;Node63</title>
<path fill="none" stroke="midnightblue" d="M131.219,-341.693C191.872,-338.125 283.087,-332.76 350.757,-328.779"/>
<polygon fill="midnightblue" stroke="midnightblue" points="351.208,-332.259 360.985,-328.177 350.797,-325.271 351.208,-332.259"/>
</g>
<!-- Node65 -->
<g id="node19" class="node"><title>Node65</title>
<g id="a_node19"><a xlink:href="namespaceinput__utilities.html#a03e09af96ba6f7e187ea4a1d9b743148" target="_top" xlink:title="Queries for user input for an integer value, where allowable range can be provided as well...">
<polygon fill="white" stroke="black" points="361,-393 361,-414 522,-414 522,-393 361,-393"/>
<text text-anchor="middle" x="441.5" y="-400.4" font-family="Ubuntu Mono" font-size="12.00">input_utilities::get_int</text>
</a>
</g>
</g>
<!-- Node47&#45;&gt;Node65 -->
<g id="edge27" class="edge"><title>Node47&#45;&gt;Node65</title>
<path fill="none" stroke="midnightblue" d="M131.215,-360.51C143.084,-363.022 155.388,-365.469 167,-367.5 228.05,-378.18 297.267,-387.262 350.793,-393.632"/>
<polygon fill="midnightblue" stroke="midnightblue" points="350.599,-397.133 360.941,-394.83 351.42,-390.182 350.599,-397.133"/>
</g>
<!-- Node66 -->
<g id="node20" class="node"><title>Node66</title>
<g id="a_node20"><a xlink:href="namespaceinput__utilities.html#a41fc0c806e12bc722771210cfa1edbd3" target="_top" xlink:title="Queries for user input for a real value, where allowable range can be provided as well...">
<polygon fill="white" stroke="black" points="358,-273 358,-294 525,-294 525,-273 358,-273"/>
<text text-anchor="middle" x="441.5" y="-280.4" font-family="Ubuntu Mono" font-size="12.00">input_utilities::get_real</text>
</a>
</g>
</g>
<!-- Node47&#45;&gt;Node66 -->
<g id="edge32" class="edge"><title>Node47&#45;&gt;Node66</title>
<path fill="none" stroke="midnightblue" d="M131.052,-332.991C142.993,-330.764 155.365,-328.514 167,-326.5 231.65,-315.309 305.117,-303.827 359.617,-295.546"/>
<polygon fill="midnightblue" stroke="midnightblue" points="360.204,-298.997 369.566,-294.037 359.154,-292.076 360.204,-298.997"/>
</g>
<!-- Node67 -->
<g id="node21" class="node"><title>Node67</title>
<g id="a_node21"><a xlink:href="namespacestr__utilities.html#ac778d706b2e021672618939ab58fdd32" target="_top" xlink:title="Convert a real (double) to string. ">
<polygon fill="white" stroke="black" points="579,-117 579,-138 722,-138 722,-117 579,-117"/>
<text text-anchor="middle" x="650.5" y="-124.4" font-family="Ubuntu Mono" font-size="12.00">str_utilities::r2strt</text>
</a>
</g>
</g>
<!-- Node47&#45;&gt;Node67 -->
<g id="edge42" class="edge"><title>Node47&#45;&gt;Node67</title>
<path fill="none" stroke="midnightblue" d="M100.053,-328.368C119.396,-318.772 144.308,-306.885 167,-297.5 326.077,-231.708 520.862,-168.09 606.093,-141.069"/>
<polygon fill="midnightblue" stroke="midnightblue" points="607.213,-144.386 615.692,-138.034 605.103,-137.712 607.213,-144.386"/>
</g>
<!-- Node68 -->
<g id="node22" class="node"><title>Node68</title>
<g id="a_node22"><a xlink:href="namespacenum__utilities.html#a3d0d04a582b3a528fc7f9975d5d2a807" target="_top" xlink:title="Returns least denominator using the GCD. ">
<polygon fill="white" stroke="black" points="179,-147 179,-168 304,-168 304,-147 179,-147"/>
<text text-anchor="middle" x="241.5" y="-154.4" font-family="Ubuntu Mono" font-size="12.00">num_utilities::gcd</text>
</a>
</g>
</g>
<!-- Node47&#45;&gt;Node68 -->
<g id="edge37" class="edge"><title>Node47&#45;&gt;Node68</title>
<path fill="none" stroke="midnightblue" d="M71.9768,-328.408C83.725,-294.518 114.618,-218.626 167,-178.5 169.966,-176.228 173.169,-174.201 176.521,-172.394"/>
<polygon fill="midnightblue" stroke="midnightblue" points="178.109,-175.515 185.68,-168.104 175.139,-169.176 178.109,-175.515"/>
</g>
<!-- Node69 -->
<g id="node23" class="node"><title>Node69</title>
<g id="a_node23"><a xlink:href="namespacenum__utilities.html#ac887f1cc7176167b352dedbd22ff2a57" target="_top" xlink:title="Calculate multiplication through shifting of fourier modes A and B into C. ">
<polygon fill="white" stroke="black" points="167,-107 167,-128 316,-128 316,-107 167,-107"/>
<text text-anchor="middle" x="241.5" y="-114.4" font-family="Ubuntu Mono" font-size="12.00">num_utilities::shift_f</text>
</a>
</g>
</g>
<!-- Node47&#45;&gt;Node69 -->
<g id="edge38" class="edge"><title>Node47&#45;&gt;Node69</title>
<path fill="none" stroke="midnightblue" d="M69.7733,-328.254C78.2688,-288.351 104.838,-189.139 167,-137.5 169.003,-135.836 171.132,-134.31 173.357,-132.911"/>
<polygon fill="midnightblue" stroke="midnightblue" points="175.17,-135.91 182.344,-128.114 171.874,-129.735 175.17,-135.91"/>
</g>
<!-- Node70 -->
<g id="node24" class="node"><title>Node70</title>
<g id="a_node24"><a xlink:href="namespacefiles__utilities.html#ac5befac3b753b28003e6878bec2af381" target="_top" xlink:title="Skips comment when reading a file. ">
<polygon fill="white" stroke="black" points="170,-53.5 170,-87.5 313,-87.5 313,-53.5 170,-53.5"/>
<text text-anchor="start" x="178" y="-73.9" font-family="Ubuntu Mono" font-size="12.00">files_utilities::skip</text>
<text text-anchor="middle" x="241.5" y="-60.9" font-family="Ubuntu Mono" font-size="12.00">_comment</text>
</a>
</g>
</g>
<!-- Node47&#45;&gt;Node70 -->
<g id="edge39" class="edge"><title>Node47&#45;&gt;Node70</title>
<path fill="none" stroke="midnightblue" d="M68.6329,-328.43C75.0581,-284.08 98.2231,-164.046 167,-97.5 168.465,-96.0821 170.012,-94.7376 171.624,-93.4629"/>
<polygon fill="midnightblue" stroke="midnightblue" points="173.867,-96.17 180.169,-87.653 169.931,-90.3813 173.867,-96.17"/>
</g>
<!-- Node71 -->
<g id="node25" class="node"><title>Node71</title>
<g id="a_node25"><a xlink:href="namespacefiles__utilities.html#a3ec80c9937d23aba0d8da951ea292a83" target="_top" xlink:title="Count non&#45;comment lines in a file. ">
<polygon fill="white" stroke="black" points="167,-0.5 167,-34.5 316,-34.5 316,-0.5 167,-0.5"/>
<text text-anchor="start" x="175" y="-20.9" font-family="Ubuntu Mono" font-size="12.00">files_utilities::count</text>
<text text-anchor="middle" x="241.5" y="-7.9" font-family="Ubuntu Mono" font-size="12.00">_lines</text>
</a>
</g>
</g>
<!-- Node47&#45;&gt;Node71 -->
<g id="edge40" class="edge"><title>Node47&#45;&gt;Node71</title>
<path fill="none" stroke="midnightblue" d="M67.241,-328.241C70.3377,-277.593 86.2273,-127.716 167,-44.5 168.385,-43.0734 169.851,-41.7216 171.385,-40.4409"/>
<polygon fill="midnightblue" stroke="midnightblue" points="173.45,-43.2677 179.557,-34.6106 169.384,-37.5693 173.45,-43.2677"/>
</g>
<!-- Node48&#45;&gt;Node49 -->
<g id="edge2" class="edge"><title>Node48&#45;&gt;Node49</title>
<path fill="none" stroke="midnightblue" d="M313.144,-561.857C330.226,-561.943 348.539,-562.036 365.801,-562.123"/>
<polygon fill="midnightblue" stroke="midnightblue" points="365.808,-565.623 375.826,-562.173 365.844,-558.623 365.808,-565.623"/>
</g>
<!-- Node49&#45;&gt;Node50 -->
<g id="edge3" class="edge"><title>Node49&#45;&gt;Node50</title>
<path fill="none" stroke="midnightblue" d="M460.058,-551.973C483.65,-538.218 527.223,-514.162 567,-499.5 573.75,-497.012 580.925,-494.746 588.118,-492.707"/>
<polygon fill="midnightblue" stroke="midnightblue" points="589.156,-496.052 597.9,-490.068 587.333,-489.294 589.156,-496.052"/>
</g>
<!-- Node49&#45;&gt;Node51 -->
<g id="edge4" class="edge"><title>Node49&#45;&gt;Node51</title>
<path fill="none" stroke="midnightblue" d="M452.182,-573.091C471.587,-593.432 517.626,-637.379 567,-653.5 701.372,-697.373 774.15,-707.68 883,-617.5 938.713,-571.343 960.791,-482.758 968.231,-442.426"/>
<polygon fill="midnightblue" stroke="midnightblue" points="971.709,-442.854 969.957,-432.405 964.81,-441.665 971.709,-442.854"/>
</g>
<!-- Node54 -->
<g id="node8" class="node"><title>Node54</title>
<g id="a_node8"><a xlink:href="namespacefiles__utilities.html#ac6066df405564ba2f5e3c4bba726c1f8" target="_top" xlink:title="Search for available new unit. ">
<polygon fill="white" stroke="black" points="567,-603 567,-624 734,-624 734,-603 567,-603"/>
<text text-anchor="middle" x="650.5" y="-610.4" font-family="Ubuntu Mono" font-size="12.00">files_utilities::nextunit</text>
</a>
</g>
</g>
<!-- Node49&#45;&gt;Node54 -->
<g id="edge7" class="edge"><title>Node49&#45;&gt;Node54</title>
<path fill="none" stroke="midnightblue" d="M484.553,-573.04C508.673,-579.068 539.528,-586.75 567,-593.5 576.348,-595.797 586.295,-598.223 595.929,-600.564"/>
<polygon fill="midnightblue" stroke="midnightblue" points="595.272,-604.006 605.816,-602.963 596.923,-597.204 595.272,-604.006"/>
</g>
<!-- Node55 -->
<g id="node9" class="node"><title>Node55</title>
<g id="a_node9"><a xlink:href="namespaceoutput__ops.html#aa9e4855511b6ea16a08b3efb587bec51" target="_top" xlink:title="Executes command line, or displays a message if disabled. ">
<polygon fill="white" stroke="black" points="573,-549.5 573,-583.5 728,-583.5 728,-549.5 573,-549.5"/>
<text text-anchor="start" x="581" y="-569.9" font-family="Ubuntu Mono" font-size="12.00">output_ops::use_execute</text>
<text text-anchor="middle" x="650.5" y="-556.9" font-family="Ubuntu Mono" font-size="12.00">_command_line</text>
</a>
</g>
</g>
<!-- Node49&#45;&gt;Node55 -->
<g id="edge8" class="edge"><title>Node49&#45;&gt;Node55</title>
<path fill="none" stroke="midnightblue" d="M507.145,-563.749C524.66,-564.088 543.913,-564.46 562.444,-564.818"/>
<polygon fill="midnightblue" stroke="midnightblue" points="562.583,-568.321 572.649,-565.015 562.718,-561.322 562.583,-568.321"/>
</g>
<!-- Node49&#45;&gt;Node56 -->
<g id="edge12" class="edge"><title>Node49&#45;&gt;Node56</title>
<path fill="none" stroke="midnightblue" d="M455.65,-573.133C477.301,-589.879 522.505,-621.704 567,-633.5 638.744,-652.519 661.078,-647.329 734,-633.5 755.51,-629.421 778.432,-620.394 795.953,-612.4"/>
<polygon fill="midnightblue" stroke="midnightblue" points="797.529,-615.527 805.088,-608.103 794.55,-609.192 797.529,-615.527"/>
</g>
<!-- Node49&#45;&gt;Node57 -->
<g id="edge13" class="edge"><title>Node49&#45;&gt;Node57</title>
<path fill="none" stroke="midnightblue" d="M493.138,-551.981C521.957,-545.994 558.252,-538.455 588.616,-532.147"/>
<polygon fill="midnightblue" stroke="midnightblue" points="589.588,-535.52 598.667,-530.059 588.165,-528.667 589.588,-535.52"/>
</g>
<!-- Node52 -->
<g id="node6" class="node"><title>Node52</title>
<g id="a_node6"><a xlink:href="namespacemessages.html#a82dddaab795b78b3d39e1ff1aab2f665" target="_top" xlink:title="Returns the memory usage in kilobytes. ">
<polygon fill="white" stroke="black" points="1062,-431 1062,-452 1217,-452 1217,-431 1062,-431"/>
<text text-anchor="middle" x="1139.5" y="-438.4" font-family="Ubuntu Mono" font-size="12.00">messages::get_mem_usage</text>
</a>
</g>
</g>
<!-- Node51&#45;&gt;Node52 -->
<g id="edge5" class="edge"><title>Node51&#45;&gt;Node52</title>
<path fill="none" stroke="midnightblue" d="M1026.16,-427.883C1034.45,-428.888 1043.21,-429.949 1052.03,-431.018"/>
<polygon fill="midnightblue" stroke="midnightblue" points="1051.64,-434.496 1061.98,-432.225 1052.48,-427.547 1051.64,-434.496"/>
</g>
<!-- Node53 -->
<g id="node7" class="node"><title>Node53</title>
<g id="a_node7"><a xlink:href="namespacemessages.html#a61fd0b51b5e37d58fdc993c01792a3fd" target="_top" xlink:title="Returns the time. ">
<polygon fill="white" stroke="black" points="1074,-391 1074,-412 1205,-412 1205,-391 1074,-391"/>
<text text-anchor="middle" x="1139.5" y="-398.4" font-family="Ubuntu Mono" font-size="12.00">messages::get_clock</text>
</a>
</g>
</g>
<!-- Node51&#45;&gt;Node53 -->
<g id="edge6" class="edge"><title>Node51&#45;&gt;Node53</title>
<path fill="none" stroke="midnightblue" d="M1026.16,-415.117C1038.14,-413.665 1051.09,-412.095 1063.8,-410.555"/>
<polygon fill="midnightblue" stroke="midnightblue" points="1064.4,-414.007 1073.91,-409.329 1063.56,-407.058 1064.4,-414.007"/>
</g>
<!-- Node55&#45;&gt;Node51 -->
<g id="edge9" class="edge"><title>Node55&#45;&gt;Node51</title>
<path fill="none" stroke="midnightblue" d="M707.372,-549.433C716.356,-546.341 725.493,-542.984 734,-539.5 811.999,-507.556 899.895,-460.956 943.646,-436.997"/>
<polygon fill="midnightblue" stroke="midnightblue" points="945.468,-439.99 952.543,-432.103 942.094,-433.856 945.468,-439.99"/>
</g>
<!-- Node55&#45;&gt;Node56 -->
<g id="edge10" class="edge"><title>Node55&#45;&gt;Node56</title>
<path fill="none" stroke="midnightblue" d="M728.072,-580.142C738.603,-582.018 749.341,-583.931 759.656,-585.769"/>
<polygon fill="midnightblue" stroke="midnightblue" points="759.348,-589.269 769.807,-587.578 760.576,-582.378 759.348,-589.269"/>
</g>
<!-- Node56&#45;&gt;Node51 -->
<g id="edge11" class="edge"><title>Node56&#45;&gt;Node51</title>
<path fill="none" stroke="midnightblue" d="M841.567,-586.657C853.321,-577.241 870.171,-562.892 883,-548.5 914.238,-513.458 944.052,-467.105 959.84,-441.194"/>
<polygon fill="midnightblue" stroke="midnightblue" points="963.017,-442.703 965.178,-432.331 957.021,-439.091 963.017,-442.703"/>
</g>
<!-- Node59&#45;&gt;Node51 -->
<g id="edge21" class="edge"><title>Node59&#45;&gt;Node51</title>
<path fill="none" stroke="midnightblue" d="M502.86,-374.014C523.195,-377.338 546.043,-380.835 567,-383.5 687.369,-398.805 828.621,-410.7 908.337,-416.857"/>
<polygon fill="midnightblue" stroke="midnightblue" points="908.457,-420.376 918.695,-417.651 908.992,-413.397 908.457,-420.376"/>
</g>
<!-- Node60 -->
<g id="node14" class="node"><title>Node60</title>
<g id="a_node14"><a xlink:href="namespacempi__utilities.html#a790ea24d32dd0e249541c1e57cd85536" target="_top" xlink:title="Wait for all processes, wrapper to MPI barrier. ">
<polygon fill="white" stroke="black" points="573,-353 573,-374 728,-374 728,-353 573,-353"/>
<text text-anchor="middle" x="650.5" y="-360.4" font-family="Ubuntu Mono" font-size="12.00">mpi_utilities::wait_mpi</text>
</a>
</g>
</g>
<!-- Node59&#45;&gt;Node60 -->
<g id="edge16" class="edge"><title>Node59&#45;&gt;Node60</title>
<path fill="none" stroke="midnightblue" d="M531.187,-363.5C541.557,-363.5 552.13,-363.5 562.476,-363.5"/>
<polygon fill="midnightblue" stroke="midnightblue" points="562.732,-367 572.732,-363.5 562.732,-360 562.732,-367"/>
</g>
<!-- Node61 -->
<g id="node15" class="node"><title>Node61</title>
<g id="a_node15"><a xlink:href="namespacemessages.html#aed343894ae4a28ad6dfbd1d39aac64ff" target="_top" xlink:title="Stop a timer. ">
<polygon fill="white" stroke="black" points="585,-313 585,-334 716,-334 716,-313 585,-313"/>
<text text-anchor="middle" x="650.5" y="-320.4" font-family="Ubuntu Mono" font-size="12.00">messages::stop_time</text>
</a>
</g>
</g>
<!-- Node59&#45;&gt;Node61 -->
<g id="edge17" class="edge"><title>Node59&#45;&gt;Node61</title>
<path fill="none" stroke="midnightblue" d="M496.887,-352.99C523.878,-347.775 556.67,-341.438 584.93,-335.977"/>
<polygon fill="midnightblue" stroke="midnightblue" points="585.963,-339.342 595.117,-334.009 584.635,-332.47 585.963,-339.342"/>
</g>
<!-- Node62 -->
<g id="node16" class="node"><title>Node62</title>
<g id="a_node16"><a xlink:href="namespacemessages.html#a84d5988f3ea5ca8dc2834032f896ae90" target="_top" xlink:title="Start a timer. ">
<polygon fill="white" stroke="black" points="582,-273 582,-294 719,-294 719,-273 582,-273"/>
<text text-anchor="middle" x="650.5" y="-280.4" font-family="Ubuntu Mono" font-size="12.00">messages::start_time</text>
</a>
</g>
</g>
<!-- Node59&#45;&gt;Node62 -->
<g id="edge19" class="edge"><title>Node59&#45;&gt;Node62</title>
<path fill="none" stroke="midnightblue" d="M509.914,-352.917C517.288,-350.416 524.477,-347.323 531,-343.5 551.635,-331.406 546.46,-315.754 567,-303.5 570.631,-301.334 574.484,-299.402 578.464,-297.679"/>
<polygon fill="midnightblue" stroke="midnightblue" points="579.865,-300.89 587.936,-294.027 577.346,-294.359 579.865,-300.89"/>
</g>
<!-- Node61&#45;&gt;Node51 -->
<g id="edge18" class="edge"><title>Node61&#45;&gt;Node51</title>
<path fill="none" stroke="midnightblue" d="M697.004,-334.053C709.065,-336.981 722.054,-340.251 734,-343.5 800.751,-361.656 817.447,-366.404 883,-388.5 900.243,-394.312 919.167,-401.286 935.074,-407.323"/>
<polygon fill="midnightblue" stroke="midnightblue" points="933.955,-410.642 944.546,-410.941 936.453,-404.103 933.955,-410.642"/>
</g>
<!-- Node62&#45;&gt;Node51 -->
<g id="edge20" class="edge"><title>Node62&#45;&gt;Node51</title>
<path fill="none" stroke="midnightblue" d="M715.189,-294.045C763.319,-303.779 829.934,-321.114 883,-349.5 910.167,-364.032 936.993,-387.486 953.863,-403.655"/>
<polygon fill="midnightblue" stroke="midnightblue" points="951.708,-406.443 961.303,-410.936 956.604,-401.44 951.708,-406.443"/>
</g>
<!-- Node63&#45;&gt;Node51 -->
<g id="edge26" class="edge"><title>Node63&#45;&gt;Node51</title>
<path fill="none" stroke="midnightblue" d="M509.914,-312.917C517.288,-310.416 524.477,-307.323 531,-303.5 551.635,-291.406 545.151,-273.231 567,-263.5 634.802,-233.304 660.415,-253.795 734,-263.5 801.978,-272.466 826.208,-265.08 883,-303.5 920.427,-328.819 948.306,-375.298 962.017,-401.736"/>
<polygon fill="midnightblue" stroke="midnightblue" points="958.954,-403.436 966.569,-410.802 965.21,-400.295 958.954,-403.436"/>
</g>
<!-- Node63&#45;&gt;Node61 -->
<g id="edge23" class="edge"><title>Node63&#45;&gt;Node61</title>
<path fill="none" stroke="midnightblue" d="M522.236,-323.5C539.401,-323.5 557.489,-323.5 574.468,-323.5"/>
<polygon fill="midnightblue" stroke="midnightblue" points="574.879,-327 584.879,-323.5 574.879,-320 574.879,-327"/>
</g>
<!-- Node63&#45;&gt;Node62 -->
<g id="edge24" class="edge"><title>Node63&#45;&gt;Node62</title>
<path fill="none" stroke="midnightblue" d="M496.887,-312.99C523.878,-307.775 556.67,-301.438 584.93,-295.977"/>
<polygon fill="midnightblue" stroke="midnightblue" points="585.963,-299.342 595.117,-294.009 584.635,-292.47 585.963,-299.342"/>
</g>
<!-- Node64 -->
<g id="node18" class="node"><title>Node64</title>
<g id="a_node18"><a xlink:href="namespacestr__utilities.html#a219964a283968cc6a968db0197d2187e" target="_top" xlink:title="Convert a string to lowercase. ">
<polygon fill="white" stroke="black" points="579,-195 579,-216 722,-216 722,-195 579,-195"/>
<text text-anchor="middle" x="650.5" y="-202.4" font-family="Ubuntu Mono" font-size="12.00">str_utilities::strh2l</text>
</a>
</g>
</g>
<!-- Node63&#45;&gt;Node64 -->
<g id="edge25" class="edge"><title>Node63&#45;&gt;Node64</title>
<path fill="none" stroke="midnightblue" d="M515.063,-312.948C520.766,-310.411 526.175,-307.303 531,-303.5 559.412,-281.108 539.412,-253.9 567,-230.5 571.794,-226.434 577.235,-223.029 582.983,-220.178"/>
<polygon fill="midnightblue" stroke="midnightblue" points="584.458,-223.353 592.217,-216.139 581.653,-216.94 584.458,-223.353"/>
</g>
<!-- Node65&#45;&gt;Node50 -->
<g id="edge28" class="edge"><title>Node65&#45;&gt;Node50</title>
<path fill="none" stroke="midnightblue" d="M491.394,-414.024C504.595,-417.74 518.639,-422.523 531,-428.5 548.768,-437.092 549.314,-445.74 567,-454.5 575.851,-458.884 585.622,-462.669 595.251,-465.873"/>
<polygon fill="midnightblue" stroke="midnightblue" points="594.202,-469.212 604.792,-468.883 596.308,-462.536 594.202,-469.212"/>
</g>
<!-- Node65&#45;&gt;Node51 -->
<g id="edge31" class="edge"><title>Node65&#45;&gt;Node51</title>
<path fill="none" stroke="midnightblue" d="M522.112,-412.91C537.009,-414.359 552.464,-415.653 567,-416.5 687.611,-423.528 828.78,-423.368 908.415,-422.507"/>
<polygon fill="midnightblue" stroke="midnightblue" points="908.803,-426.003 918.762,-422.388 908.722,-419.004 908.803,-426.003"/>
</g>
<!-- Node65&#45;&gt;Node61 -->
<g id="edge29" class="edge"><title>Node65&#45;&gt;Node61</title>
<path fill="none" stroke="midnightblue" d="M509.914,-392.917C517.288,-390.416 524.477,-387.323 531,-383.5 551.635,-371.406 546.46,-355.754 567,-343.5 570.631,-341.334 574.484,-339.402 578.464,-337.679"/>
<polygon fill="midnightblue" stroke="midnightblue" points="579.865,-340.89 587.936,-334.027 577.346,-334.359 579.865,-340.89"/>
</g>
<!-- Node65&#45;&gt;Node62 -->
<g id="edge30" class="edge"><title>Node65&#45;&gt;Node62</title>
<path fill="none" stroke="midnightblue" d="M515.645,-392.931C521.156,-390.391 526.365,-387.287 531,-383.5 561.192,-358.829 537.001,-328.405 567,-303.5 568.984,-301.853 571.083,-300.337 573.271,-298.943"/>
<polygon fill="midnightblue" stroke="midnightblue" points="574.984,-301.995 582.1,-294.145 571.642,-295.844 574.984,-301.995"/>
</g>
<!-- Node66&#45;&gt;Node51 -->
<g id="edge36" class="edge"><title>Node66&#45;&gt;Node51</title>
<path fill="none" stroke="midnightblue" d="M505.289,-272.925C514.57,-269.409 523.513,-264.729 531,-258.5 558.808,-235.362 536.28,-204.603 567,-185.5 630.03,-146.306 661.879,-167.966 734,-185.5 806.432,-203.11 829.482,-210.612 883,-262.5 924.979,-303.2 952.516,-368.156 964.552,-401.023"/>
<polygon fill="midnightblue" stroke="midnightblue" points="961.398,-402.601 968.038,-410.858 967.996,-400.263 961.398,-402.601"/>
</g>
<!-- Node66&#45;&gt;Node61 -->
<g id="edge34" class="edge"><title>Node66&#45;&gt;Node61</title>
<path fill="none" stroke="midnightblue" d="M496.887,-294.01C523.878,-299.225 556.67,-305.562 584.93,-311.023"/>
<polygon fill="midnightblue" stroke="midnightblue" points="584.635,-314.53 595.117,-312.991 585.963,-307.658 584.635,-314.53"/>
</g>
<!-- Node66&#45;&gt;Node62 -->
<g id="edge35" class="edge"><title>Node66&#45;&gt;Node62</title>
<path fill="none" stroke="midnightblue" d="M525.204,-283.5C540.484,-283.5 556.395,-283.5 571.529,-283.5"/>
<polygon fill="midnightblue" stroke="midnightblue" points="571.865,-287 581.865,-283.5 571.865,-280 571.865,-287"/>
</g>
<!-- Node66&#45;&gt;Node67 -->
<g id="edge33" class="edge"><title>Node66&#45;&gt;Node67</title>
<path fill="none" stroke="midnightblue" d="M508.274,-272.836C516.633,-269.314 524.515,-264.655 531,-258.5 567.086,-224.247 531.24,-187.093 567,-152.5 571.034,-148.598 575.656,-145.302 580.608,-142.52"/>
<polygon fill="midnightblue" stroke="midnightblue" points="582.355,-145.562 589.821,-138.045 579.297,-139.266 582.355,-145.562"/>
</g>
</g>
</svg>
