<?xml version="1.0" encoding="UTF-8" standalone="no"?>
<!DOCTYPE svg PUBLIC "-//W3C//DTD SVG 1.1//EN"
 "http://www.w3.org/Graphics/SVG/1.1/DTD/svg11.dtd">
<!-- Generated by graphviz version 2.38.0 (20140413.2041)
 -->
<!-- Title: num_utilities::derivs Pages: 1 -->
<svg width="992pt" height="200pt"
 viewBox="0.00 0.00 992.00 199.90" xmlns="http://www.w3.org/2000/svg" xmlns:xlink="http://www.w3.org/1999/xlink">
<g id="graph0" class="graph" transform="scale(1 1) rotate(0) translate(4 195.905)">
<title>num_utilities::derivs</title>
<polygon fill="white" stroke="none" points="-4,4 -4,-195.905 988,-195.905 988,4 -4,4"/>
<!-- Node96 -->
<g id="node1" class="node"><title>Node96</title>
<polygon fill="#bfbfbf" stroke="black" points="0,-100.5 0,-121.5 143,-121.5 143,-100.5 0,-100.5"/>
<text text-anchor="middle" x="71.5" y="-107.9" font-family="Ubuntu Mono" font-size="12.00">num_utilities::derivs</text>
</g>
<!-- Node97 -->
<g id="node2" class="node"><title>Node97</title>
<g id="a_node2"><a xlink:href="namespacedriver__eq.html#ac8eca434f541966edc3556d72f261eff" target="_top" xlink:title="driver_eq::run_driver_eq">
<polygon fill="white" stroke="black" points="340,-167.5 340,-188.5 501,-188.5 501,-167.5 340,-167.5"/>
<text text-anchor="middle" x="420.5" y="-174.9" font-family="Ubuntu Mono" font-size="12.00">driver_eq::run_driver_eq</text>
</a>
</g>
</g>
<!-- Node96&#45;&gt;Node97 -->
<g id="edge1" class="edge"><title>Node96&#45;&gt;Node97</title>
<path fill="none" stroke="midnightblue" d="M91.9826,-128.075C112.16,-144.527 145.392,-168.308 179,-178 232.959,-193.561 296.606,-192.771 344.865,-188.516"/>
<polygon fill="midnightblue" stroke="midnightblue" points="94.0856,-125.271 84.1713,-121.535 89.5919,-130.638 94.0856,-125.271"/>
</g>
<!-- Node99 -->
<g id="node4" class="node"><title>Node99</title>
<g id="a_node4"><a xlink:href="namespaceeq__ops.html#a91256e08dadab2ccbabd66cf369c43a5" target="_top" xlink:title="eq_ops::calc_eq_2">
<polygon fill="white" stroke="black" points="182,-147.5 182,-168.5 301,-168.5 301,-147.5 182,-147.5"/>
<text text-anchor="middle" x="241.5" y="-154.9" font-family="Ubuntu Mono" font-size="12.00">eq_ops::calc_eq_2</text>
</a>
</g>
</g>
<!-- Node96&#45;&gt;Node99 -->
<g id="edge3" class="edge"><title>Node96&#45;&gt;Node99</title>
<path fill="none" stroke="midnightblue" d="M119.952,-124.275C146.222,-131.625 178.416,-140.631 202.923,-147.487"/>
<polygon fill="midnightblue" stroke="midnightblue" points="120.776,-120.871 110.202,-121.548 118.89,-127.613 120.776,-120.871"/>
</g>
<!-- Node100 -->
<g id="node5" class="node"><title>Node100</title>
<g id="a_node5"><a xlink:href="namespaceeq__utilities.html#aad960e0306e883b83c7a2c6146b48b48" target="_top" xlink:title="eq_utilities::calc\l_f_derivs_1">
<polygon fill="white" stroke="black" points="179,-94 179,-128 304,-128 304,-94 179,-94"/>
<text text-anchor="start" x="187" y="-114.4" font-family="Ubuntu Mono" font-size="12.00">eq_utilities::calc</text>
<text text-anchor="middle" x="241.5" y="-101.4" font-family="Ubuntu Mono" font-size="12.00">_f_derivs_1</text>
</a>
</g>
</g>
<!-- Node96&#45;&gt;Node100 -->
<g id="edge4" class="edge"><title>Node96&#45;&gt;Node100</title>
<path fill="none" stroke="midnightblue" d="M153.311,-111C161.909,-111 170.552,-111 178.878,-111"/>
<polygon fill="midnightblue" stroke="midnightblue" points="153.26,-107.5 143.26,-111 153.26,-114.5 153.26,-107.5"/>
</g>
<!-- Node101 -->
<g id="node6" class="node"><title>Node101</title>
<g id="a_node6"><a xlink:href="namespaceeq__utilities.html#a9e8269c4f0a20b8b9622fbe8739ba1a8" target="_top" xlink:title="eq_utilities::calc\l_f_derivs_2">
<polygon fill="white" stroke="black" points="179,-41 179,-75 304,-75 304,-41 179,-41"/>
<text text-anchor="start" x="187" y="-61.4" font-family="Ubuntu Mono" font-size="12.00">eq_utilities::calc</text>
<text text-anchor="middle" x="241.5" y="-48.4" font-family="Ubuntu Mono" font-size="12.00">_f_derivs_2</text>
</a>
</g>
</g>
<!-- Node96&#45;&gt;Node101 -->
<g id="edge5" class="edge"><title>Node96&#45;&gt;Node101</title>
<path fill="none" stroke="midnightblue" d="M115.643,-97.3893C137.221,-90.5822 163.553,-82.2751 186.462,-75.0476"/>
<polygon fill="midnightblue" stroke="midnightblue" points="114.577,-94.0555 106.094,-100.402 116.683,-100.731 114.577,-94.0555"/>
</g>
<!-- Node102 -->
<g id="node7" class="node"><title>Node102</title>
<g id="a_node7"><a xlink:href="HELENA__ops_8f90.html#a0480c2cb24b13d76286e1f2b0fe100a1" target="_top" xlink:title="interp_var_3d_real">
<polygon fill="white" stroke="black" points="179,-0.5 179,-21.5 304,-21.5 304,-0.5 179,-0.5"/>
<text text-anchor="middle" x="241.5" y="-7.9" font-family="Ubuntu Mono" font-size="12.00">interp_var_3d_real</text>
</a>
</g>
</g>
<!-- Node96&#45;&gt;Node102 -->
<g id="edge6" class="edge"><title>Node96&#45;&gt;Node102</title>
<path fill="none" stroke="midnightblue" d="M91.6932,-93.458C112.058,-75.6289 145.817,-48.2473 179,-31 185.974,-27.3754 193.732,-24.2377 201.324,-21.5915"/>
<polygon fill="midnightblue" stroke="midnightblue" points="89.2223,-90.9715 84.0749,-100.232 93.8737,-96.2027 89.2223,-90.9715"/>
</g>
<!-- Node98 -->
<g id="node3" class="node"><title>Node98</title>
<g id="a_node3"><a xlink:href="PB3D_8f90.html#afaee01f014ab3398eecac996b2795fd2" target="_top" xlink:title="pb3d">
<polygon fill="white" stroke="black" points="943,-101.5 943,-122.5 984,-122.5 984,-101.5 943,-101.5"/>
<text text-anchor="middle" x="963.5" y="-108.9" font-family="Ubuntu Mono" font-size="12.00">pb3d</text>
</a>
</g>
</g>
<!-- Node97&#45;&gt;Node98 -->
<g id="edge2" class="edge"><title>Node97&#45;&gt;Node98</title>
<path fill="none" stroke="midnightblue" d="M511.449,-170.766C609.192,-162.261 769.776,-146.406 907,-124 918.967,-122.046 932.247,-119.199 942.815,-116.769"/>
<polygon fill="midnightblue" stroke="midnightblue" points="510.973,-167.294 501.312,-171.642 511.576,-174.268 510.973,-167.294"/>
</g>
<!-- Node103 -->
<g id="node8" class="node"><title>Node103</title>
<g id="a_node8"><a xlink:href="namespacehelena__ops.html#a7796861de18ae7ac9c3aa07a8628be38" target="_top" xlink:title="helena_ops::interp\l_hel_on_grid">
<polygon fill="white" stroke="black" points="358,-27 358,-61 483,-61 483,-27 358,-27"/>
<text text-anchor="start" x="366" y="-47.4" font-family="Ubuntu Mono" font-size="12.00">helena_ops::interp</text>
<text text-anchor="middle" x="420.5" y="-34.4" font-family="Ubuntu Mono" font-size="12.00">_hel_on_grid</text>
</a>
</g>
</g>
<!-- Node102&#45;&gt;Node103 -->
<g id="edge7" class="edge"><title>Node102&#45;&gt;Node103</title>
<path fill="none" stroke="midnightblue" d="M309.271,-23.4487C325.168,-26.4127 342.063,-29.5625 357.725,-32.4826"/>
<polygon fill="midnightblue" stroke="midnightblue" points="309.463,-19.9243 298.991,-21.5321 308.18,-26.8058 309.463,-19.9243"/>
</g>
<!-- Node104 -->
<g id="node9" class="node"><title>Node104</title>
<g id="a_node9"><a xlink:href="namespacedriver__post.html#a33b3c6f9018a0ddc92dce77394b8ab37" target="_top" xlink:title="driver_post::run_driver_post">
<polygon fill="white" stroke="black" points="537,-93.5 537,-114.5 722,-114.5 722,-93.5 537,-93.5"/>
<text text-anchor="middle" x="629.5" y="-100.9" font-family="Ubuntu Mono" font-size="12.00">driver_post::run_driver_post</text>
</a>
</g>
</g>
<!-- Node103&#45;&gt;Node104 -->
<g id="edge8" class="edge"><title>Node103&#45;&gt;Node104</title>
<path fill="none" stroke="midnightblue" d="M476.083,-64.3874C495.196,-71.1294 516.904,-78.3452 537,-84 549.209,-87.4355 562.473,-90.6341 575.015,-93.4214"/>
<polygon fill="midnightblue" stroke="midnightblue" points="477.233,-61.0816 466.639,-61.0206 474.883,-67.6752 477.233,-61.0816"/>
</g>
<!-- Node106 -->
<g id="node11" class="node"><title>Node106</title>
<g id="a_node11"><a xlink:href="namespacedriver__x.html#a2b82a9bc6c0f4af9f3468d03fedc008e" target="_top" xlink:title="driver_x::run_driver_x_0">
<polygon fill="white" stroke="black" points="549,-53.5 549,-74.5 710,-74.5 710,-53.5 549,-53.5"/>
<text text-anchor="middle" x="629.5" y="-60.9" font-family="Ubuntu Mono" font-size="12.00">driver_x::run_driver_x_0</text>
</a>
</g>
</g>
<!-- Node103&#45;&gt;Node106 -->
<g id="edge10" class="edge"><title>Node103&#45;&gt;Node106</title>
<path fill="none" stroke="midnightblue" d="M493.141,-50.9218C511.086,-52.6557 530.447,-54.5263 548.759,-56.2955"/>
<polygon fill="midnightblue" stroke="midnightblue" points="493.337,-47.4245 483.046,-49.9465 492.663,-54.3921 493.337,-47.4245"/>
</g>
<!-- Node108 -->
<g id="node13" class="node"><title>Node108</title>
<g id="a_node13"><a xlink:href="namespacedriver__x.html#ad3924b3d66f336f0a9a9559eafffec8e" target="_top" xlink:title="driver_x::run_driver_x_2">
<polygon fill="white" stroke="black" points="549,-13.5 549,-34.5 710,-34.5 710,-13.5 549,-13.5"/>
<text text-anchor="middle" x="629.5" y="-20.9" font-family="Ubuntu Mono" font-size="12.00">driver_x::run_driver_x_2</text>
</a>
</g>
</g>
<!-- Node103&#45;&gt;Node108 -->
<g id="edge13" class="edge"><title>Node103&#45;&gt;Node108</title>
<path fill="none" stroke="midnightblue" d="M493.141,-37.0782C511.086,-35.3443 530.447,-33.4737 548.759,-31.7045"/>
<polygon fill="midnightblue" stroke="midnightblue" points="492.663,-33.6079 483.046,-38.0535 493.337,-40.5755 492.663,-33.6079"/>
</g>
<!-- Node105 -->
<g id="node10" class="node"><title>Node105</title>
<g id="a_node10"><a xlink:href="POST_8f90.html#ac289b64ac4671fea0b4f2298ba1188a1" target="_top" xlink:title="post">
<polygon fill="white" stroke="black" points="812,-93.5 812,-114.5 853,-114.5 853,-93.5 812,-93.5"/>
<text text-anchor="middle" x="832.5" y="-100.9" font-family="Ubuntu Mono" font-size="12.00">post</text>
</a>
</g>
</g>
<!-- Node104&#45;&gt;Node105 -->
<g id="edge9" class="edge"><title>Node104&#45;&gt;Node105</title>
<path fill="none" stroke="midnightblue" d="M732.423,-104C762.664,-104 792.733,-104 811.674,-104"/>
<polygon fill="midnightblue" stroke="midnightblue" points="732.177,-100.5 722.177,-104 732.177,-107.5 732.177,-100.5"/>
</g>
<!-- Node107 -->
<g id="node12" class="node"><title>Node107</title>
<g id="a_node12"><a xlink:href="namespacedriver__x.html#ada3d72a0929daaa5e3da585246d62281" target="_top" xlink:title="driver_x::run_driver_x">
<polygon fill="white" stroke="black" points="758,-53.5 758,-74.5 907,-74.5 907,-53.5 758,-53.5"/>
<text text-anchor="middle" x="832.5" y="-60.9" font-family="Ubuntu Mono" font-size="12.00">driver_x::run_driver_x</text>
</a>
</g>
</g>
<!-- Node106&#45;&gt;Node107 -->
<g id="edge11" class="edge"><title>Node106&#45;&gt;Node107</title>
<path fill="none" stroke="midnightblue" d="M720.599,-64C733.025,-64 745.664,-64 757.748,-64"/>
<polygon fill="midnightblue" stroke="midnightblue" points="720.229,-60.5001 710.229,-64 720.229,-67.5001 720.229,-60.5001"/>
</g>
<!-- Node107&#45;&gt;Node98 -->
<g id="edge12" class="edge"><title>Node107&#45;&gt;Node98</title>
<path fill="none" stroke="midnightblue" d="M887.538,-77.3596C894.159,-79.3896 900.779,-81.6123 907,-84 919.695,-88.8724 933.338,-95.7315 943.921,-101.441"/>
<polygon fill="midnightblue" stroke="midnightblue" points="888.465,-73.9841 877.884,-74.5263 886.494,-80.7008 888.465,-73.9841"/>
</g>
<!-- Node108&#45;&gt;Node107 -->
<g id="edge14" class="edge"><title>Node108&#45;&gt;Node107</title>
<path fill="none" stroke="midnightblue" d="M693.203,-36.4781C720.644,-41.939 752.485,-48.2757 778.694,-53.4913"/>
<polygon fill="midnightblue" stroke="midnightblue" points="693.801,-33.0287 683.31,-34.5095 692.435,-39.8941 693.801,-33.0287"/>
</g>
</g>
</svg>
