<?xml version="1.0" encoding="UTF-8" standalone="no"?>
<!DOCTYPE svg PUBLIC "-//W3C//DTD SVG 1.1//EN"
 "http://www.w3.org/Graphics/SVG/1.1/DTD/svg11.dtd">
<!-- Generated by graphviz version 2.43.0 (0)
 -->
<!-- Title: x_utilities::calc_memory_x Pages: 1 -->
<svg width="704pt" height="110pt"
 viewBox="0.00 0.00 704.00 110.00" xmlns="http://www.w3.org/2000/svg" xmlns:xlink="http://www.w3.org/1999/xlink">
<g id="graph0" class="graph" transform="scale(1 1) rotate(0) translate(4 106)">
<title>x_utilities::calc_memory_x</title>
<polygon fill="white" stroke="transparent" points="-4,4 -4,-106 700,-106 700,4 -4,4"/>
<!-- Node1 -->
<g id="node1" class="node">
<title>Node1</title>
<g id="a_node1"><a xlink:title="Calculate memory in MB necessary for X variables.">
<polygon fill="#bfbfbf" stroke="black" points="0,-40.5 0,-61.5 173,-61.5 173,-40.5 0,-40.5"/>
<text text-anchor="middle" x="86.5" y="-47.9" font-family="Ubuntu Mono" font-size="12.00">x_utilities::calc_memory_x</text>
</a>
</g>
</g>
<!-- Node2 -->
<g id="node2" class="node">
<title>Node2</title>
<g id="a_node2"><a xlink:href="namespacemessages.html#a6e6bfb084063e4cc91ee86e542043302" target="_top" xlink:title="Increases/decreases lvl of output.">
<polygon fill="white" stroke="black" points="209,-40.5 209,-61.5 327,-61.5 327,-40.5 209,-40.5"/>
<text text-anchor="middle" x="268" y="-47.9" font-family="Ubuntu Mono" font-size="12.00">messages::lvl_ud</text>
</a>
</g>
</g>
<!-- Node1&#45;&gt;Node2 -->
<g id="edge1" class="edge">
<title>Node1&#45;&gt;Node2</title>
<path fill="none" stroke="midnightblue" d="M173.04,-51C181.65,-51 190.3,-51 198.69,-51"/>
<polygon fill="midnightblue" stroke="midnightblue" points="198.77,-54.5 208.77,-51 198.77,-47.5 198.77,-54.5"/>
</g>
<!-- Node3 -->
<g id="node3" class="node">
<title>Node3</title>
<g id="a_node3"><a xlink:href="namespacemessages.html#aa4a8d01563e92558e8a0875b075ec54c" target="_top" xlink:title="Write output to file identified by output_i.">
<polygon fill="white" stroke="black" points="363,-40.5 363,-61.5 477,-61.5 477,-40.5 363,-40.5"/>
<text text-anchor="middle" x="420" y="-47.9" font-family="Ubuntu Mono" font-size="12.00">messages::writo</text>
</a>
</g>
</g>
<!-- Node2&#45;&gt;Node3 -->
<g id="edge2" class="edge">
<title>Node2&#45;&gt;Node3</title>
<path fill="none" stroke="midnightblue" d="M327.42,-51C335.73,-51 344.32,-51 352.76,-51"/>
<polygon fill="midnightblue" stroke="midnightblue" points="352.95,-54.5 362.95,-51 352.95,-47.5 352.95,-54.5"/>
</g>
<!-- Node4 -->
<g id="node4" class="node">
<title>Node4</title>
<g id="a_node4"><a xlink:href="namespacemessages.html#a61fd0b51b5e37d58fdc993c01792a3fd" target="_top" xlink:title="Returns the time.">
<polygon fill="white" stroke="black" points="534.5,-80.5 534.5,-101.5 674.5,-101.5 674.5,-80.5 534.5,-80.5"/>
<text text-anchor="middle" x="604.5" y="-87.9" font-family="Ubuntu Mono" font-size="12.00">messages::get_clock</text>
</a>
</g>
</g>
<!-- Node3&#45;&gt;Node4 -->
<g id="edge3" class="edge">
<title>Node3&#45;&gt;Node4</title>
<path fill="none" stroke="midnightblue" d="M468.95,-61.51C492.43,-66.66 520.9,-72.9 545.59,-78.31"/>
<polygon fill="midnightblue" stroke="midnightblue" points="545.04,-81.77 555.55,-80.49 546.54,-74.93 545.04,-81.77"/>
</g>
<!-- Node5 -->
<g id="node5" class="node">
<title>Node5</title>
<g id="a_node5"><a xlink:href="namespacemessages.html#a82dddaab795b78b3d39e1ff1aab2f665" target="_top" xlink:title="Returns the memory usage in kilobytes.">
<polygon fill="white" stroke="black" points="513,-40.5 513,-61.5 696,-61.5 696,-40.5 513,-40.5"/>
<text text-anchor="middle" x="604.5" y="-47.9" font-family="Ubuntu Mono" font-size="12.00">messages::get_mem_usage</text>
</a>
</g>
</g>
<!-- Node3&#45;&gt;Node5 -->
<g id="edge4" class="edge">
<title>Node3&#45;&gt;Node5</title>
<path fill="none" stroke="midnightblue" d="M477.25,-51C485.37,-51 493.94,-51 502.63,-51"/>
<polygon fill="midnightblue" stroke="midnightblue" points="502.86,-54.5 512.86,-51 502.86,-47.5 502.86,-54.5"/>
</g>
<!-- Node6 -->
<g id="node6" class="node">
<title>Node6</title>
<g id="a_node6"><a xlink:href="namespacestr__utilities.html#a0b97e51770725a3e98ed393d26681414" target="_top" xlink:title="Convert an integer to string.">
<polygon fill="white" stroke="black" points="547.5,-0.5 547.5,-21.5 661.5,-21.5 661.5,-0.5 547.5,-0.5"/>
<text text-anchor="middle" x="604.5" y="-7.9" font-family="Ubuntu Mono" font-size="12.00">str_utilities::i2str</text>
</a>
</g>
</g>
<!-- Node3&#45;&gt;Node6 -->
<g id="edge5" class="edge">
<title>Node3&#45;&gt;Node6</title>
<path fill="none" stroke="midnightblue" d="M468.95,-40.49C492.43,-35.34 520.9,-29.1 545.59,-23.69"/>
<polygon fill="midnightblue" stroke="midnightblue" points="546.54,-27.07 555.55,-21.51 545.04,-20.23 546.54,-27.07"/>
</g>
</g>
</svg>
