<?xml version="1.0" encoding="UTF-8" standalone="no"?>
<!DOCTYPE svg PUBLIC "-//W3C//DTD SVG 1.1//EN"
 "http://www.w3.org/Graphics/SVG/1.1/DTD/svg11.dtd">
<!-- Generated by graphviz version 2.38.0 (20140413.2041)
 -->
<!-- Title: grid_ops::setup_grid_eq_b Pages: 1 -->
<svg width="1046pt" height="254pt"
 viewBox="0.00 0.00 1046.00 253.50" xmlns="http://www.w3.org/2000/svg" xmlns:xlink="http://www.w3.org/1999/xlink">
<g id="graph0" class="graph" transform="scale(1 1) rotate(0) translate(4 249.5)">
<title>grid_ops::setup_grid_eq_b</title>
<polygon fill="white" stroke="none" points="-4,4 -4,-249.5 1042,-249.5 1042,4 -4,4"/>
<!-- Node115 -->
<g id="node1" class="node"><title>Node115</title>
<polygon fill="#bfbfbf" stroke="black" points="0,-164.5 0,-185.5 167,-185.5 167,-164.5 0,-164.5"/>
<text text-anchor="middle" x="83.5" y="-171.9" font-family="Ubuntu Mono" font-size="12.00">grid_ops::setup_grid_eq_b</text>
</g>
<!-- Node116 -->
<g id="node2" class="node"><title>Node116</title>
<g id="a_node2"><a xlink:href="namespacegrid__utilities.html#adeb8c22db4d419a278d6fcc68a34100c" target="_top" xlink:title="grid_utilities::calc\l_n_par_x_rich">
<polygon fill="white" stroke="black" points="367,-211 367,-245 504,-245 504,-211 367,-211"/>
<text text-anchor="start" x="375" y="-231.4" font-family="Ubuntu Mono" font-size="12.00">grid_utilities::calc</text>
<text text-anchor="middle" x="435.5" y="-218.4" font-family="Ubuntu Mono" font-size="12.00">_n_par_x_rich</text>
</a>
</g>
</g>
<!-- Node115&#45;&gt;Node116 -->
<g id="edge1" class="edge"><title>Node115&#45;&gt;Node116</title>
<path fill="none" stroke="midnightblue" d="M154.067,-185.534C212.609,-194.399 296.246,-207.064 356.936,-216.255"/>
<polygon fill="midnightblue" stroke="midnightblue" points="356.438,-219.719 366.85,-217.756 357.486,-212.798 356.438,-219.719"/>
</g>
<!-- Node117 -->
<g id="node3" class="node"><title>Node117</title>
<g id="a_node3"><a xlink:href="namespacegrid__ops.html#a06107dbdfd1dd62e372cc29ab0255bad" target="_top" xlink:title="grid_ops::calc_ang\l_grid_eq_b">
<polygon fill="white" stroke="black" points="203,-126 203,-160 328,-160 328,-126 203,-126"/>
<text text-anchor="start" x="211" y="-146.4" font-family="Ubuntu Mono" font-size="12.00">grid_ops::calc_ang</text>
<text text-anchor="middle" x="265.5" y="-133.4" font-family="Ubuntu Mono" font-size="12.00">_grid_eq_b</text>
</a>
</g>
</g>
<!-- Node115&#45;&gt;Node117 -->
<g id="edge2" class="edge"><title>Node115&#45;&gt;Node117</title>
<path fill="none" stroke="midnightblue" d="M143.938,-164.433C159.626,-161.644 176.72,-158.605 192.974,-155.716"/>
<polygon fill="midnightblue" stroke="midnightblue" points="193.733,-159.136 202.966,-153.939 192.508,-152.244 193.733,-159.136"/>
</g>
<!-- Node117&#45;&gt;Node116 -->
<g id="edge3" class="edge"><title>Node117&#45;&gt;Node116</title>
<path fill="none" stroke="midnightblue" d="M296.509,-160.038C315.642,-170.719 341.062,-184.578 364,-196 371.107,-199.539 378.687,-203.148 386.143,-206.607"/>
<polygon fill="midnightblue" stroke="midnightblue" points="384.929,-209.9 395.478,-210.891 387.849,-203.538 384.929,-209.9"/>
</g>
<!-- Node118 -->
<g id="node4" class="node"><title>Node118</title>
<g id="a_node4"><a xlink:href="namespaceeq__utilities.html#a40f397d20b45432117744ca16870ddbb" target="_top" xlink:title="eq_utilities::print\l_info_eq">
<polygon fill="white" stroke="black" points="370,-79 370,-113 501,-113 501,-79 370,-79"/>
<text text-anchor="start" x="378" y="-99.4" font-family="Ubuntu Mono" font-size="12.00">eq_utilities::print</text>
<text text-anchor="middle" x="435.5" y="-86.4" font-family="Ubuntu Mono" font-size="12.00">_info_eq</text>
</a>
</g>
</g>
<!-- Node117&#45;&gt;Node118 -->
<g id="edge4" class="edge"><title>Node117&#45;&gt;Node118</title>
<path fill="none" stroke="midnightblue" d="M327.627,-125.899C339.354,-122.618 351.726,-119.157 363.727,-115.799"/>
<polygon fill="midnightblue" stroke="midnightblue" points="365.012,-119.074 373.7,-113.01 363.126,-112.333 365.012,-119.074"/>
</g>
<!-- Node119 -->
<g id="node5" class="node"><title>Node119</title>
<g id="a_node5"><a xlink:href="namespacemessages.html#aa4a8d01563e92558e8a0875b075ec54c" target="_top" xlink:title="messages::writo">
<polygon fill="white" stroke="black" points="558,-132.5 558,-153.5 665,-153.5 665,-132.5 558,-132.5"/>
<text text-anchor="middle" x="611.5" y="-139.9" font-family="Ubuntu Mono" font-size="12.00">messages::writo</text>
</a>
</g>
</g>
<!-- Node117&#45;&gt;Node119 -->
<g id="edge12" class="edge"><title>Node117&#45;&gt;Node119</title>
<path fill="none" stroke="midnightblue" d="M328.103,-157.596C339.951,-159.846 352.31,-161.813 364,-163 427.231,-169.418 443.734,-169.057 507,-163 522.99,-161.469 540.183,-158.637 555.873,-155.576"/>
<polygon fill="midnightblue" stroke="midnightblue" points="556.83,-158.953 565.939,-153.542 555.444,-152.092 556.83,-158.953"/>
</g>
<!-- Node123 -->
<g id="node9" class="node"><title>Node123</title>
<g id="a_node9"><a xlink:href="namespacestr__utilities.html#a0b97e51770725a3e98ed393d26681414" target="_top" xlink:title="str_utilities::i2str">
<polygon fill="white" stroke="black" points="543,-62.5 543,-83.5 680,-83.5 680,-62.5 543,-62.5"/>
<text text-anchor="middle" x="611.5" y="-69.9" font-family="Ubuntu Mono" font-size="12.00">str_utilities::i2str</text>
</a>
</g>
</g>
<!-- Node117&#45;&gt;Node123 -->
<g id="edge13" class="edge"><title>Node117&#45;&gt;Node123</title>
<path fill="none" stroke="midnightblue" d="M282.104,-125.835C299.871,-107.692 330.768,-80.183 364,-69 424.532,-48.6302 498.248,-53.3662 549.212,-60.8609"/>
<polygon fill="midnightblue" stroke="midnightblue" points="548.991,-64.3685 559.409,-62.4419 550.064,-57.4511 548.991,-64.3685"/>
</g>
<!-- Node124 -->
<g id="node10" class="node"><title>Node124</title>
<g id="a_node10"><a xlink:href="namespacemessages.html#a6e6bfb084063e4cc91ee86e542043302" target="_top" xlink:title="messages::lvl_ud">
<polygon fill="white" stroke="black" points="379,-132.5 379,-153.5 492,-153.5 492,-132.5 379,-132.5"/>
<text text-anchor="middle" x="435.5" y="-139.9" font-family="Ubuntu Mono" font-size="12.00">messages::lvl_ud</text>
</a>
</g>
</g>
<!-- Node117&#45;&gt;Node124 -->
<g id="edge10" class="edge"><title>Node117&#45;&gt;Node124</title>
<path fill="none" stroke="midnightblue" d="M328.103,-143C341.312,-143 355.317,-143 368.678,-143"/>
<polygon fill="midnightblue" stroke="midnightblue" points="368.746,-146.5 378.746,-143 368.746,-139.5 368.746,-146.5"/>
</g>
<!-- Node125 -->
<g id="node11" class="node"><title>Node125</title>
<g id="a_node11"><a xlink:href="namespacestr__utilities.html#ac778d706b2e021672618939ab58fdd32" target="_top" xlink:title="str_utilities::r2strt">
<polygon fill="white" stroke="black" points="364,-0.5 364,-21.5 507,-21.5 507,-0.5 364,-0.5"/>
<text text-anchor="middle" x="435.5" y="-7.9" font-family="Ubuntu Mono" font-size="12.00">str_utilities::r2strt</text>
</a>
</g>
</g>
<!-- Node117&#45;&gt;Node125 -->
<g id="edge14" class="edge"><title>Node117&#45;&gt;Node125</title>
<path fill="none" stroke="midnightblue" d="M278.038,-125.751C294.521,-102.341 326.946,-60.6118 364,-36 370.247,-31.8506 377.263,-28.3011 384.384,-25.2919"/>
<polygon fill="midnightblue" stroke="midnightblue" points="386.043,-28.4024 394.096,-21.5179 383.507,-21.8777 386.043,-28.4024"/>
</g>
<!-- Node118&#45;&gt;Node119 -->
<g id="edge5" class="edge"><title>Node118&#45;&gt;Node119</title>
<path fill="none" stroke="midnightblue" d="M499.81,-113.101C520.248,-118.622 542.575,-124.652 561.789,-129.842"/>
<polygon fill="midnightblue" stroke="midnightblue" points="560.96,-133.244 571.526,-132.473 562.785,-126.486 560.96,-133.244"/>
</g>
<!-- Node118&#45;&gt;Node123 -->
<g id="edge9" class="edge"><title>Node118&#45;&gt;Node123</title>
<path fill="none" stroke="midnightblue" d="M501.291,-87.4356C511.542,-86.0806 522.234,-84.6673 532.744,-83.2781"/>
<polygon fill="midnightblue" stroke="midnightblue" points="533.289,-86.7365 542.744,-81.9562 532.372,-79.7969 533.289,-86.7365"/>
</g>
<!-- Node120 -->
<g id="node6" class="node"><title>Node120</title>
<g id="a_node6"><a xlink:href="namespacemessages.html#a82dddaab795b78b3d39e1ff1aab2f665" target="_top" xlink:title="messages::get_mem_usage">
<polygon fill="white" stroke="black" points="716,-152.5 716,-173.5 871,-173.5 871,-152.5 716,-152.5"/>
<text text-anchor="middle" x="793.5" y="-159.9" font-family="Ubuntu Mono" font-size="12.00">messages::get_mem_usage</text>
</a>
</g>
</g>
<!-- Node119&#45;&gt;Node120 -->
<g id="edge6" class="edge"><title>Node119&#45;&gt;Node120</title>
<path fill="none" stroke="midnightblue" d="M665.047,-148.839C677.823,-150.258 691.824,-151.814 705.723,-153.358"/>
<polygon fill="midnightblue" stroke="midnightblue" points="705.481,-156.853 715.806,-154.478 706.254,-149.895 705.481,-156.853"/>
</g>
<!-- Node121 -->
<g id="node7" class="node"><title>Node121</title>
<g id="a_node7"><a xlink:href="messages_8f90.html#a6d15f28783f95a7a4b2a44185619792f" target="_top" xlink:title="format_str">
<polygon fill="white" stroke="black" points="755,-112.5 755,-133.5 832,-133.5 832,-112.5 755,-112.5"/>
<text text-anchor="middle" x="793.5" y="-119.9" font-family="Ubuntu Mono" font-size="12.00">format_str</text>
</a>
</g>
</g>
<!-- Node119&#45;&gt;Node121 -->
<g id="edge7" class="edge"><title>Node119&#45;&gt;Node121</title>
<path fill="none" stroke="midnightblue" d="M665.047,-137.161C690.198,-134.367 720.099,-131.045 744.615,-128.321"/>
<polygon fill="midnightblue" stroke="midnightblue" points="745.211,-131.776 754.764,-127.193 744.438,-124.819 745.211,-131.776"/>
</g>
<!-- Node122 -->
<g id="node8" class="node"><title>Node122</title>
<g id="a_node8"><a xlink:href="namespacemessages.html#a61fd0b51b5e37d58fdc993c01792a3fd" target="_top" xlink:title="messages::get_clock">
<polygon fill="white" stroke="black" points="907,-112.5 907,-133.5 1038,-133.5 1038,-112.5 907,-112.5"/>
<text text-anchor="middle" x="972.5" y="-119.9" font-family="Ubuntu Mono" font-size="12.00">messages::get_clock</text>
</a>
</g>
</g>
<!-- Node121&#45;&gt;Node122 -->
<g id="edge8" class="edge"><title>Node121&#45;&gt;Node122</title>
<path fill="none" stroke="midnightblue" d="M832.037,-123C850.869,-123 874.372,-123 896.685,-123"/>
<polygon fill="midnightblue" stroke="midnightblue" points="896.832,-126.5 906.832,-123 896.832,-119.5 896.832,-126.5"/>
</g>
<!-- Node124&#45;&gt;Node119 -->
<g id="edge11" class="edge"><title>Node124&#45;&gt;Node119</title>
<path fill="none" stroke="midnightblue" d="M492.033,-143C509.741,-143 529.459,-143 547.648,-143"/>
<polygon fill="midnightblue" stroke="midnightblue" points="547.863,-146.5 557.863,-143 547.863,-139.5 547.863,-146.5"/>
</g>
</g>
</svg>
