<?xml version="1.0" encoding="UTF-8" standalone="no"?>
<!DOCTYPE svg PUBLIC "-//W3C//DTD SVG 1.1//EN"
 "http://www.w3.org/Graphics/SVG/1.1/DTD/svg11.dtd">
<!-- Generated by graphviz version 2.38.0 (20140413.2041)
 -->
<!-- Title: rich_ops::calc_rich_ex Pages: 1 -->
<svg width="443pt" height="70pt"
 viewBox="0.00 0.00 443.00 70.00" xmlns="http://www.w3.org/2000/svg" xmlns:xlink="http://www.w3.org/1999/xlink">
<g id="graph0" class="graph" transform="scale(1 1) rotate(0) translate(4 66)">
<title>rich_ops::calc_rich_ex</title>
<polygon fill="white" stroke="none" points="-4,4 -4,-66 439,-66 439,4 -4,4"/>
<!-- Node1 -->
<g id="node1" class="node"><title>Node1</title>
<polygon fill="#bfbfbf" stroke="black" points="0,-20.5 0,-41.5 149,-41.5 149,-20.5 0,-20.5"/>
<text text-anchor="middle" x="74.5" y="-27.9" font-family="Ubuntu Mono" font-size="12.00">rich_ops::calc_rich_ex</text>
</g>
<!-- Node2 -->
<g id="node2" class="node"><title>Node2</title>
<g id="a_node2"><a xlink:href="namespacedriver__sol.html#a208ddea649ee160b7a55da8d0a5d4847" target="_top" xlink:title="driver_sol::run_driver_sol">
<polygon fill="white" stroke="black" points="185,-40.5 185,-61.5 358,-61.5 358,-40.5 185,-40.5"/>
<text text-anchor="middle" x="271.5" y="-47.9" font-family="Ubuntu Mono" font-size="12.00">driver_sol::run_driver_sol</text>
</a>
</g>
</g>
<!-- Node1&#45;&gt;Node2 -->
<g id="edge1" class="edge"><title>Node1&#45;&gt;Node2</title>
<path fill="none" stroke="midnightblue" d="M159.426,-39.6078C167.862,-40.473 176.437,-41.3525 184.89,-42.2195"/>
<polygon fill="midnightblue" stroke="midnightblue" points="159.526,-36.0998 149.221,-38.5611 158.812,-43.0633 159.526,-36.0998"/>
</g>
<!-- Node4 -->
<g id="node4" class="node"><title>Node4</title>
<g id="a_node4"><a xlink:href="namespacerich__ops.html#a9fbbda93eab8973d33063e277c489e7b" target="_top" xlink:title="rich_ops::init_rich">
<polygon fill="white" stroke="black" points="206,-0.5 206,-21.5 337,-21.5 337,-0.5 206,-0.5"/>
<text text-anchor="middle" x="271.5" y="-7.9" font-family="Ubuntu Mono" font-size="12.00">rich_ops::init_rich</text>
</a>
</g>
</g>
<!-- Node1&#45;&gt;Node4 -->
<g id="edge3" class="edge"><title>Node1&#45;&gt;Node4</title>
<path fill="none" stroke="midnightblue" d="M159.382,-22.3967C174.974,-20.7975 191.04,-19.1498 205.942,-17.6213"/>
<polygon fill="midnightblue" stroke="midnightblue" points="158.812,-18.9367 149.221,-23.4389 159.526,-25.9002 158.812,-18.9367"/>
</g>
<!-- Node3 -->
<g id="node3" class="node"><title>Node3</title>
<g id="a_node3"><a xlink:href="PB3D_8f90.html#afaee01f014ab3398eecac996b2795fd2" target="_top" xlink:title="pb3d">
<polygon fill="white" stroke="black" points="394,-20.5 394,-41.5 435,-41.5 435,-20.5 394,-20.5"/>
<text text-anchor="middle" x="414.5" y="-27.9" font-family="Ubuntu Mono" font-size="12.00">pb3d</text>
</a>
</g>
</g>
<!-- Node2&#45;&gt;Node3 -->
<g id="edge2" class="edge"><title>Node2&#45;&gt;Node3</title>
<path fill="none" stroke="midnightblue" d="M356.835,-39.0376C370.597,-37.0855 383.627,-35.2373 393.715,-33.8064"/>
<polygon fill="midnightblue" stroke="midnightblue" points="356.126,-35.6031 346.716,-40.4729 357.109,-42.5337 356.126,-35.6031"/>
</g>
<!-- Node4&#45;&gt;Node3 -->
<g id="edge4" class="edge"><title>Node4&#45;&gt;Node3</title>
<path fill="none" stroke="midnightblue" d="M347.364,-21.619C364.574,-24.0601 381.435,-26.4517 393.825,-28.2092"/>
<polygon fill="midnightblue" stroke="midnightblue" points="347.615,-18.1197 337.223,-20.1805 346.632,-25.0503 347.615,-18.1197"/>
</g>
</g>
</svg>
