<?xml version="1.0" encoding="UTF-8" standalone="no"?>
<!DOCTYPE svg PUBLIC "-//W3C//DTD SVG 1.1//EN"
 "http://www.w3.org/Graphics/SVG/1.1/DTD/svg11.dtd">
<!-- Generated by graphviz version 14.1.2 (20260124.0452)
 -->
<!-- Title: files_ops::close_output Pages: 1 -->
<svg width="286pt" height="68pt"
 viewBox="0.00 0.00 286.00 68.00" xmlns="http://www.w3.org/2000/svg" xmlns:xlink="http://www.w3.org/1999/xlink">
<g id="graph0" class="graph" transform="scale(1 1) rotate(0) translate(4 63.75)">
<title>files_ops::close_output</title>
<!-- Node1 -->
<g id="Node000001" class="node">
<title>Node1</title>
<g id="a_Node000001"><a xlink:title="Closes the output file.">
<polygon fill="#999999" stroke="#666666" points="278,-39.75 124,-39.75 124,-19 278,-19 278,-39.75"/>
<text xml:space="preserve" text-anchor="middle" x="201" y="-24.35" font-family="Ubuntu Mono" font-size="12.00">files_ops::close_output</text>
</a>
</g>
</g>
<!-- Node2 -->
<g id="Node000002" class="node">
<title>Node2</title>
<g id="a_Node000002"><a xlink:href="PB3D_8f90.html#a36e5b0ce05c9783f58b43c4463b290a1" target="_top" xlink:title="Peeling Ballooning in 3D.">
<polygon fill="white" stroke="#666666" points="88,-59.75 0,-59.75 0,-39 88,-39 88,-59.75"/>
<text xml:space="preserve" text-anchor="middle" x="44" y="-44.35" font-family="Ubuntu Mono" font-size="12.00">__pb3d_f90__</text>
</a>
</g>
</g>
<!-- Node1&#45;&gt;Node2 -->
<g id="edge1_Node000001_Node000002" class="edge">
<title>Node1&#45;&gt;Node2</title>
<g id="a_edge1_Node000001_Node000002"><a xlink:title=" ">
<path fill="none" stroke="#63b8ff" d="M112.69,-40.64C104.23,-41.73 95.93,-42.8 88.2,-43.8"/>
<polygon fill="#63b8ff" stroke="#63b8ff" points="112.89,-44.14 122.36,-39.39 112,-37.2 112.89,-44.14"/>
</a>
</g>
</g>
<!-- Node3 -->
<g id="Node000003" class="node">
<title>Node3</title>
<g id="a_Node000003"><a xlink:href="POST_8f90.html#a28f8fd95cf9c74c0cfd8b386827a7a9b" target="_top" xlink:title="Peeling Ballooning in 3D: postprocessing.">
<polygon fill="white" stroke="#666666" points="88,-20.75 0,-20.75 0,0 88,0 88,-20.75"/>
<text xml:space="preserve" text-anchor="middle" x="44" y="-5.35" font-family="Ubuntu Mono" font-size="12.00">__post_f90__</text>
</a>
</g>
</g>
<!-- Node1&#45;&gt;Node3 -->
<g id="edge2_Node000001_Node000003" class="edge">
<title>Node1&#45;&gt;Node3</title>
<g id="a_edge2_Node000001_Node000003"><a xlink:title=" ">
<path fill="none" stroke="#63b8ff" d="M112.69,-18.67C104.23,-17.64 95.93,-16.62 88.2,-15.67"/>
<polygon fill="#63b8ff" stroke="#63b8ff" points="112.01,-22.12 122.36,-19.86 112.86,-15.17 112.01,-22.12"/>
</a>
</g>
</g>
</g>
</svg>
