<?xml version="1.0" encoding="UTF-8" standalone="no"?>
<!DOCTYPE svg PUBLIC "-//W3C//DTD SVG 1.1//EN"
 "http://www.w3.org/Graphics/SVG/1.1/DTD/svg11.dtd">
<!-- Generated by graphviz version 2.38.0 (20140413.2041)
 -->
<!-- Title: grid_ops::setup_grid_eq Pages: 1 -->
<svg width="533pt" height="130pt"
 viewBox="0.00 0.00 533.00 130.00" xmlns="http://www.w3.org/2000/svg" xmlns:xlink="http://www.w3.org/1999/xlink">
<g id="graph0" class="graph" transform="scale(1 1) rotate(0) translate(4 126)">
<title>grid_ops::setup_grid_eq</title>
<polygon fill="white" stroke="none" points="-4,4 -4,-126 529,-126 529,4 -4,4"/>
<!-- Node112 -->
<g id="node1" class="node"><title>Node112</title>
<polygon fill="#bfbfbf" stroke="black" points="0,-40.5 0,-61.5 155,-61.5 155,-40.5 0,-40.5"/>
<text text-anchor="middle" x="77.5" y="-47.9" font-family="Ubuntu Mono" font-size="12.00">grid_ops::setup_grid_eq</text>
</g>
<!-- Node113 -->
<g id="node2" class="node"><title>Node113</title>
<g id="a_node2"><a xlink:href="namespacemessages.html#aa4a8d01563e92558e8a0875b075ec54c" target="_top" xlink:title="Write output to file identified by output_i. ">
<polygon fill="white" stroke="black" points="209,-80.5 209,-101.5 316,-101.5 316,-80.5 209,-80.5"/>
<text text-anchor="middle" x="262.5" y="-87.9" font-family="Ubuntu Mono" font-size="12.00">messages::writo</text>
</a>
</g>
</g>
<!-- Node112&#45;&gt;Node113 -->
<g id="edge1" class="edge"><title>Node112&#45;&gt;Node113</title>
<path fill="none" stroke="midnightblue" d="M126.581,-61.5095C150.129,-66.6566 178.671,-72.8954 203.428,-78.3067"/>
<polygon fill="midnightblue" stroke="midnightblue" points="202.906,-81.7751 213.423,-80.4913 204.401,-74.9366 202.906,-81.7751"/>
</g>
<!-- Node116 -->
<g id="node5" class="node"><title>Node116</title>
<g id="a_node5"><a xlink:href="namespacestr__utilities.html#a0b97e51770725a3e98ed393d26681414" target="_top" xlink:title="Convert an integer to string. ">
<polygon fill="white" stroke="black" points="194,-40.5 194,-61.5 331,-61.5 331,-40.5 194,-40.5"/>
<text text-anchor="middle" x="262.5" y="-47.9" font-family="Ubuntu Mono" font-size="12.00">str_utilities::i2str</text>
</a>
</g>
</g>
<!-- Node112&#45;&gt;Node116 -->
<g id="edge4" class="edge"><title>Node112&#45;&gt;Node116</title>
<path fill="none" stroke="midnightblue" d="M155.048,-51C164.542,-51 174.258,-51 183.769,-51"/>
<polygon fill="midnightblue" stroke="midnightblue" points="183.991,-54.5001 193.991,-51 183.991,-47.5001 183.991,-54.5001"/>
</g>
<!-- Node117 -->
<g id="node6" class="node"><title>Node117</title>
<g id="a_node6"><a xlink:href="namespacestr__utilities.html#ac778d706b2e021672618939ab58fdd32" target="_top" xlink:title="Convert a real (double) to string. ">
<polygon fill="white" stroke="black" points="191,-0.5 191,-21.5 334,-21.5 334,-0.5 191,-0.5"/>
<text text-anchor="middle" x="262.5" y="-7.9" font-family="Ubuntu Mono" font-size="12.00">str_utilities::r2strt</text>
</a>
</g>
</g>
<!-- Node112&#45;&gt;Node117 -->
<g id="edge5" class="edge"><title>Node112&#45;&gt;Node117</title>
<path fill="none" stroke="midnightblue" d="M126.581,-40.4905C150.129,-35.3434 178.671,-29.1046 203.428,-23.6933"/>
<polygon fill="midnightblue" stroke="midnightblue" points="204.401,-27.0634 213.423,-21.5087 202.906,-20.2249 204.401,-27.0634"/>
</g>
<!-- Node114 -->
<g id="node3" class="node"><title>Node114</title>
<g id="a_node3"><a xlink:href="namespacemessages.html#a82dddaab795b78b3d39e1ff1aab2f665" target="_top" xlink:title="Returns the memory usage in kilobytes. ">
<polygon fill="white" stroke="black" points="370,-100.5 370,-121.5 525,-121.5 525,-100.5 370,-100.5"/>
<text text-anchor="middle" x="447.5" y="-107.9" font-family="Ubuntu Mono" font-size="12.00">messages::get_mem_usage</text>
</a>
</g>
</g>
<!-- Node113&#45;&gt;Node114 -->
<g id="edge2" class="edge"><title>Node113&#45;&gt;Node114</title>
<path fill="none" stroke="midnightblue" d="M316.431,-96.7848C329.982,-98.2658 344.915,-99.8978 359.685,-101.512"/>
<polygon fill="midnightblue" stroke="midnightblue" points="359.544,-105.017 369.865,-102.625 360.304,-98.0588 359.544,-105.017"/>
</g>
<!-- Node115 -->
<g id="node4" class="node"><title>Node115</title>
<g id="a_node4"><a xlink:href="namespacemessages.html#a61fd0b51b5e37d58fdc993c01792a3fd" target="_top" xlink:title="Returns the time. ">
<polygon fill="white" stroke="black" points="382,-60.5 382,-81.5 513,-81.5 513,-60.5 382,-60.5"/>
<text text-anchor="middle" x="447.5" y="-67.9" font-family="Ubuntu Mono" font-size="12.00">messages::get_clock</text>
</a>
</g>
</g>
<!-- Node113&#45;&gt;Node115 -->
<g id="edge3" class="edge"><title>Node113&#45;&gt;Node115</title>
<path fill="none" stroke="midnightblue" d="M316.431,-85.2152C333.621,-83.3365 353.034,-81.2149 371.517,-79.1949"/>
<polygon fill="midnightblue" stroke="midnightblue" points="372.109,-82.6511 381.669,-78.0853 371.348,-75.6926 372.109,-82.6511"/>
</g>
</g>
</svg>
