<?xml version="1.0" encoding="UTF-8" standalone="no"?>
<!DOCTYPE svg PUBLIC "-//W3C//DTD SVG 1.1//EN"
 "http://www.w3.org/Graphics/SVG/1.1/DTD/svg11.dtd">
<!-- Generated by graphviz version 2.38.0 (20140413.2041)
 -->
<!-- Title: input_utilities::get_real Pages: 1 -->
<svg width="688pt" height="148pt"
 viewBox="0.00 0.00 688.00 148.00" xmlns="http://www.w3.org/2000/svg" xmlns:xlink="http://www.w3.org/1999/xlink">
<g id="graph0" class="graph" transform="scale(1 1) rotate(0) translate(4 144)">
<title>input_utilities::get_real</title>
<polygon fill="white" stroke="none" points="-4,4 -4,-144 684,-144 684,4 -4,4"/>
<!-- Node68 -->
<g id="node1" class="node"><title>Node68</title>
<polygon fill="#bfbfbf" stroke="black" points="0,-58.5 0,-79.5 167,-79.5 167,-58.5 0,-58.5"/>
<text text-anchor="middle" x="83.5" y="-65.9" font-family="Ubuntu Mono" font-size="12.00">input_utilities::get_real</text>
</g>
<!-- Node69 -->
<g id="node2" class="node"><title>Node69</title>
<g id="a_node2"><a xlink:href="namespacestr__utilities.html#ac778d706b2e021672618939ab58fdd32" target="_top" xlink:title="Convert a real (double) to string. ">
<polygon fill="white" stroke="black" points="203,-118.5 203,-139.5 346,-139.5 346,-118.5 203,-118.5"/>
<text text-anchor="middle" x="274.5" y="-125.9" font-family="Ubuntu Mono" font-size="12.00">str_utilities::r2strt</text>
</a>
</g>
</g>
<!-- Node68&#45;&gt;Node69 -->
<g id="edge1" class="edge"><title>Node68&#45;&gt;Node69</title>
<path fill="none" stroke="midnightblue" d="M114.564,-79.6034C138.438,-87.9131 172.724,-99.6018 203,-109 210.181,-111.229 217.804,-113.495 225.282,-115.662"/>
<polygon fill="midnightblue" stroke="midnightblue" points="224.403,-119.051 234.98,-118.442 226.332,-112.322 224.403,-119.051"/>
</g>
<!-- Node70 -->
<g id="node3" class="node"><title>Node70</title>
<g id="a_node3"><a xlink:href="namespacemessages.html#aed343894ae4a28ad6dfbd1d39aac64ff" target="_top" xlink:title="Stop a timer. ">
<polygon fill="white" stroke="black" points="209,-78.5 209,-99.5 340,-99.5 340,-78.5 209,-78.5"/>
<text text-anchor="middle" x="274.5" y="-85.9" font-family="Ubuntu Mono" font-size="12.00">messages::stop_time</text>
</a>
</g>
</g>
<!-- Node68&#45;&gt;Node70 -->
<g id="edge2" class="edge"><title>Node68&#45;&gt;Node70</title>
<path fill="none" stroke="midnightblue" d="M167.123,-77.7432C177.627,-78.8547 188.33,-79.9873 198.702,-81.0849"/>
<polygon fill="midnightblue" stroke="midnightblue" points="198.631,-84.5968 208.944,-82.1687 199.368,-77.6357 198.631,-84.5968"/>
</g>
<!-- Node71 -->
<g id="node4" class="node"><title>Node71</title>
<g id="a_node4"><a xlink:href="namespacemessages.html#aa4a8d01563e92558e8a0875b075ec54c" target="_top" xlink:title="Write output to file identified by output_i. ">
<polygon fill="white" stroke="black" points="382,-39.5 382,-60.5 489,-60.5 489,-39.5 382,-39.5"/>
<text text-anchor="middle" x="435.5" y="-46.9" font-family="Ubuntu Mono" font-size="12.00">messages::writo</text>
</a>
</g>
</g>
<!-- Node68&#45;&gt;Node71 -->
<g id="edge8" class="edge"><title>Node68&#45;&gt;Node71</title>
<path fill="none" stroke="midnightblue" d="M167.002,-64.5213C229.727,-61.1163 314.7,-56.5034 371.9,-53.3983"/>
<polygon fill="midnightblue" stroke="midnightblue" points="372.097,-56.8929 381.892,-52.8559 371.717,-49.9032 372.097,-56.8929"/>
</g>
<!-- Node74 -->
<g id="node7" class="node"><title>Node74</title>
<g id="a_node7"><a xlink:href="namespacemessages.html#a84d5988f3ea5ca8dc2834032f896ae90" target="_top" xlink:title="Start a timer. ">
<polygon fill="white" stroke="black" points="206,-0.5 206,-21.5 343,-21.5 343,-0.5 206,-0.5"/>
<text text-anchor="middle" x="274.5" y="-7.9" font-family="Ubuntu Mono" font-size="12.00">messages::start_time</text>
</a>
</g>
</g>
<!-- Node68&#45;&gt;Node74 -->
<g id="edge6" class="edge"><title>Node68&#45;&gt;Node74</title>
<path fill="none" stroke="midnightblue" d="M118.726,-58.4966C149.805,-48.9592 195.812,-34.8408 229.59,-24.475"/>
<polygon fill="midnightblue" stroke="midnightblue" points="230.676,-27.8029 239.209,-21.5231 228.623,-21.1109 230.676,-27.8029"/>
</g>
<!-- Node70&#45;&gt;Node71 -->
<g id="edge3" class="edge"><title>Node70&#45;&gt;Node71</title>
<path fill="none" stroke="midnightblue" d="M318.528,-78.446C337.971,-73.677 361.13,-67.9965 381.621,-62.9704"/>
<polygon fill="midnightblue" stroke="midnightblue" points="382.56,-66.3439 391.438,-60.5624 380.892,-59.5454 382.56,-66.3439"/>
</g>
<!-- Node72 -->
<g id="node5" class="node"><title>Node72</title>
<g id="a_node5"><a xlink:href="namespacemessages.html#a82dddaab795b78b3d39e1ff1aab2f665" target="_top" xlink:title="Returns the memory usage in kilobytes. ">
<polygon fill="white" stroke="black" points="525,-59.5 525,-80.5 680,-80.5 680,-59.5 525,-59.5"/>
<text text-anchor="middle" x="602.5" y="-66.9" font-family="Ubuntu Mono" font-size="12.00">messages::get_mem_usage</text>
</a>
</g>
</g>
<!-- Node71&#45;&gt;Node72 -->
<g id="edge4" class="edge"><title>Node71&#45;&gt;Node72</title>
<path fill="none" stroke="midnightblue" d="M489.161,-56.3831C497.452,-57.3881 506.208,-58.4495 515.025,-59.5182"/>
<polygon fill="midnightblue" stroke="midnightblue" points="514.635,-62.9965 524.984,-60.7253 515.478,-56.0474 514.635,-62.9965"/>
</g>
<!-- Node73 -->
<g id="node6" class="node"><title>Node73</title>
<g id="a_node6"><a xlink:href="namespacemessages.html#a61fd0b51b5e37d58fdc993c01792a3fd" target="_top" xlink:title="Returns the time. ">
<polygon fill="white" stroke="black" points="537,-19.5 537,-40.5 668,-40.5 668,-19.5 537,-19.5"/>
<text text-anchor="middle" x="602.5" y="-26.9" font-family="Ubuntu Mono" font-size="12.00">messages::get_clock</text>
</a>
</g>
</g>
<!-- Node71&#45;&gt;Node73 -->
<g id="edge5" class="edge"><title>Node71&#45;&gt;Node73</title>
<path fill="none" stroke="midnightblue" d="M489.161,-43.6169C501.142,-42.1646 514.094,-40.5947 526.797,-39.0549"/>
<polygon fill="midnightblue" stroke="midnightblue" points="527.402,-42.5073 536.908,-37.8293 526.56,-35.5581 527.402,-42.5073"/>
</g>
<!-- Node74&#45;&gt;Node71 -->
<g id="edge7" class="edge"><title>Node74&#45;&gt;Node71</title>
<path fill="none" stroke="midnightblue" d="M318.528,-21.554C337.971,-26.323 361.13,-32.0035 381.621,-37.0296"/>
<polygon fill="midnightblue" stroke="midnightblue" points="380.892,-40.4546 391.438,-39.4376 382.56,-33.6561 380.892,-40.4546"/>
</g>
</g>
</svg>
