<?xml version="1.0" encoding="UTF-8" standalone="no"?>
<!DOCTYPE svg PUBLIC "-//W3C//DTD SVG 1.1//EN"
 "http://www.w3.org/Graphics/SVG/1.1/DTD/svg11.dtd">
<!-- Generated by graphviz version 2.43.0 (0)
 -->
<!-- Title: mpi_utilities::lock_req_acc Pages: 1 -->
<svg width="625pt" height="229pt"
 viewBox="0.00 0.00 625.00 228.50" xmlns="http://www.w3.org/2000/svg" xmlns:xlink="http://www.w3.org/1999/xlink">
<g id="graph0" class="graph" transform="scale(1 1) rotate(0) translate(4 224.5)">
<title>mpi_utilities::lock_req_acc</title>
<polygon fill="white" stroke="transparent" points="-4,4 -4,-224.5 621,-224.5 621,4 -4,4"/>
<!-- Node1 -->
<g id="node1" class="node">
<title>Node1</title>
<g id="a_node1"><a xlink:title="Request access to lock of a BL (blocking) or optionally a NB (non&#45;blocking) type.">
<polygon fill="#bfbfbf" stroke="black" points="0,-94 0,-128 119,-128 119,-94 0,-94"/>
<text text-anchor="start" x="8" y="-114.4" font-family="Ubuntu Mono" font-size="12.00">mpi_utilities::lock</text>
<text text-anchor="middle" x="59.5" y="-101.4" font-family="Ubuntu Mono" font-size="12.00">_req_acc</text>
</a>
</g>
</g>
<!-- Node2 -->
<g id="node2" class="node">
<title>Node2</title>
<g id="a_node2"><a xlink:href="namespacempi__utilities.html#a17c39b0498528e2532c8347b0b7dec86" target="_top" xlink:title="Get notified that the rank can get the lock.">
<polygon fill="white" stroke="black" points="171.5,-186 171.5,-220 290.5,-220 290.5,-186 171.5,-186"/>
<text text-anchor="start" x="179.5" y="-206.4" font-family="Ubuntu Mono" font-size="12.00">mpi_utilities::lock</text>
<text text-anchor="middle" x="231" y="-193.4" font-family="Ubuntu Mono" font-size="12.00">_get_notified</text>
</a>
</g>
</g>
<!-- Node1&#45;&gt;Node2 -->
<g id="edge1" class="edge">
<title>Node1&#45;&gt;Node2</title>
<path fill="none" stroke="midnightblue" d="M85.11,-128.18C103.8,-140.85 130.41,-158.06 155,-171 162.12,-174.75 169.79,-178.41 177.39,-181.84"/>
<polygon fill="midnightblue" stroke="midnightblue" points="176.04,-185.07 186.61,-185.9 178.87,-178.67 176.04,-185.07"/>
</g>
<!-- Node3 -->
<g id="node3" class="node">
<title>Node3</title>
<g id="a_node3"><a xlink:href="namespacempi__utilities.html#abe5bf3ae3b6a06eda18c2f4d62ac09c5" target="_top" xlink:title="Returns the header for lock debug messages.">
<polygon fill="white" stroke="black" points="344,-117 344,-151 463,-151 463,-117 344,-117"/>
<text text-anchor="start" x="352" y="-137.4" font-family="Ubuntu Mono" font-size="12.00">mpi_utilities::lock</text>
<text text-anchor="middle" x="403.5" y="-124.4" font-family="Ubuntu Mono" font-size="12.00">_header</text>
</a>
</g>
</g>
<!-- Node1&#45;&gt;Node3 -->
<g id="edge5" class="edge">
<title>Node1&#45;&gt;Node3</title>
<path fill="none" stroke="midnightblue" d="M110.46,-128.07C124.68,-132.16 140.3,-135.94 155,-138 215.02,-146.41 284.03,-144.34 333.9,-140.78"/>
<polygon fill="midnightblue" stroke="midnightblue" points="334.22,-144.27 343.93,-140.03 333.69,-137.29 334.22,-144.27"/>
</g>
<!-- Node6 -->
<g id="node6" class="node">
<title>Node6</title>
<g id="a_node6"><a xlink:href="namespacempi__utilities.html#a263a30c79639d97f5faffdb566b5a811" target="_top" xlink:title="Notifies a rank that they can get the lock.">
<polygon fill="white" stroke="black" points="171.5,-94 171.5,-128 290.5,-128 290.5,-94 171.5,-94"/>
<text text-anchor="start" x="179.5" y="-114.4" font-family="Ubuntu Mono" font-size="12.00">mpi_utilities::lock</text>
<text text-anchor="middle" x="231" y="-101.4" font-family="Ubuntu Mono" font-size="12.00">_notify</text>
</a>
</g>
</g>
<!-- Node1&#45;&gt;Node6 -->
<g id="edge6" class="edge">
<title>Node1&#45;&gt;Node6</title>
<path fill="none" stroke="midnightblue" d="M119.31,-111C132.85,-111 147.37,-111 161.29,-111"/>
<polygon fill="midnightblue" stroke="midnightblue" points="161.3,-114.5 171.3,-111 161.3,-107.5 161.3,-114.5"/>
</g>
<!-- Node7 -->
<g id="node7" class="node">
<title>Node7</title>
<g id="a_node7"><a xlink:href="namespacempi__utilities.html#a3b0349e5ec825e14083e3126c3e7ba65" target="_top" xlink:title="Adds, removes or sets to active a rank from the waiting list for a lock and returns the lock waiting ...">
<polygon fill="white" stroke="black" points="171.5,-41 171.5,-75 290.5,-75 290.5,-41 171.5,-41"/>
<text text-anchor="start" x="179.5" y="-61.4" font-family="Ubuntu Mono" font-size="12.00">mpi_utilities::lock</text>
<text text-anchor="middle" x="231" y="-48.4" font-family="Ubuntu Mono" font-size="12.00">_wl_change</text>
</a>
</g>
</g>
<!-- Node1&#45;&gt;Node7 -->
<g id="edge8" class="edge">
<title>Node1&#45;&gt;Node7</title>
<path fill="none" stroke="midnightblue" d="M115.06,-93.94C131.24,-88.88 149.11,-83.29 165.84,-78.06"/>
<polygon fill="midnightblue" stroke="midnightblue" points="167.04,-81.35 175.54,-75.03 164.95,-74.67 167.04,-81.35"/>
</g>
<!-- Node9 -->
<g id="node9" class="node">
<title>Node9</title>
<g id="a_node9"><a xlink:href="namespacempi__utilities.html#a74e2e82b561f403ca8087c3925f76e29" target="_top" xlink:title="Decides whether a waiting list is empty.">
<polygon fill="white" stroke="black" points="155,-0.5 155,-21.5 307,-21.5 307,-0.5 155,-0.5"/>
<text text-anchor="middle" x="231" y="-7.9" font-family="Ubuntu Mono" font-size="12.00">mpi_utilities::wl_empty</text>
</a>
</g>
</g>
<!-- Node1&#45;&gt;Node9 -->
<g id="edge11" class="edge">
<title>Node1&#45;&gt;Node9</title>
<path fill="none" stroke="midnightblue" d="M76.24,-93.76C93.76,-75.57 123.76,-47.33 155,-31 159.33,-28.74 163.93,-26.72 168.64,-24.91"/>
<polygon fill="midnightblue" stroke="midnightblue" points="170.13,-28.1 178.43,-21.51 167.83,-21.49 170.13,-28.1"/>
</g>
<!-- Node2&#45;&gt;Node3 -->
<g id="edge2" class="edge">
<title>Node2&#45;&gt;Node3</title>
<path fill="none" stroke="midnightblue" d="M274.15,-185.94C297.3,-176.57 326.22,-164.87 350.74,-154.95"/>
<polygon fill="midnightblue" stroke="midnightblue" points="352.29,-158.09 360.25,-151.1 349.67,-151.61 352.29,-158.09"/>
</g>
<!-- Node4 -->
<g id="node4" class="node">
<title>Node4</title>
<g id="a_node4"><a xlink:href="namespacestr__utilities.html#a0b97e51770725a3e98ed393d26681414" target="_top" xlink:title="Convert an integer to string.">
<polygon fill="white" stroke="black" points="501.5,-143.5 501.5,-164.5 615.5,-164.5 615.5,-143.5 501.5,-143.5"/>
<text text-anchor="middle" x="558.5" y="-150.9" font-family="Ubuntu Mono" font-size="12.00">str_utilities::i2str</text>
</a>
</g>
</g>
<!-- Node3&#45;&gt;Node4 -->
<g id="edge3" class="edge">
<title>Node3&#45;&gt;Node4</title>
<path fill="none" stroke="midnightblue" d="M463.22,-141.68C472.44,-142.88 482.02,-144.13 491.4,-145.36"/>
<polygon fill="midnightblue" stroke="midnightblue" points="491.09,-148.85 501.46,-146.67 492,-141.91 491.09,-148.85"/>
</g>
<!-- Node5 -->
<g id="node5" class="node">
<title>Node5</title>
<g id="a_node5"><a xlink:href="namespacestr__utilities.html#acb8c4e66aead51f178e47fdea8d7a7db" target="_top" xlink:title="Convert an integer to string.">
<polygon fill="white" stroke="black" points="500,-103.5 500,-124.5 617,-124.5 617,-103.5 500,-103.5"/>
<text text-anchor="middle" x="558.5" y="-110.9" font-family="Ubuntu Mono" font-size="12.00">str_utilities::ii2str</text>
</a>
</g>
</g>
<!-- Node3&#45;&gt;Node5 -->
<g id="edge4" class="edge">
<title>Node3&#45;&gt;Node5</title>
<path fill="none" stroke="midnightblue" d="M463.22,-126.32C471.97,-125.18 481.06,-123.99 489.98,-122.83"/>
<polygon fill="midnightblue" stroke="midnightblue" points="490.49,-126.29 499.95,-121.52 489.58,-119.35 490.49,-126.29"/>
</g>
<!-- Node6&#45;&gt;Node3 -->
<g id="edge7" class="edge">
<title>Node6&#45;&gt;Node3</title>
<path fill="none" stroke="midnightblue" d="M290.68,-118.92C304.47,-120.78 319.3,-122.78 333.51,-124.69"/>
<polygon fill="midnightblue" stroke="midnightblue" points="333.34,-128.2 343.72,-126.07 334.27,-121.26 333.34,-128.2"/>
</g>
<!-- Node7&#45;&gt;Node3 -->
<g id="edge9" class="edge">
<title>Node7&#45;&gt;Node3</title>
<path fill="none" stroke="midnightblue" d="M282.38,-75.13C290.67,-78.23 299.13,-81.58 307,-85 325.6,-93.08 345.65,-103.15 362.55,-112.05"/>
<polygon fill="midnightblue" stroke="midnightblue" points="361.12,-115.25 371.59,-116.86 364.4,-109.07 361.12,-115.25"/>
</g>
<!-- Node8 -->
<g id="node8" class="node">
<title>Node8</title>
<g id="a_node8"><a xlink:href="namespacestr__utilities.html#ac778d706b2e021672618939ab58fdd32" target="_top" xlink:title="Convert a real (double) to string.">
<polygon fill="white" stroke="black" points="343,-47.5 343,-68.5 464,-68.5 464,-47.5 343,-47.5"/>
<text text-anchor="middle" x="403.5" y="-54.9" font-family="Ubuntu Mono" font-size="12.00">str_utilities::r2strt</text>
</a>
</g>
</g>
<!-- Node7&#45;&gt;Node8 -->
<g id="edge10" class="edge">
<title>Node7&#45;&gt;Node8</title>
<path fill="none" stroke="midnightblue" d="M290.68,-58C304.24,-58 318.8,-58 332.79,-58"/>
<polygon fill="midnightblue" stroke="midnightblue" points="332.85,-61.5 342.85,-58 332.85,-54.5 332.85,-61.5"/>
</g>
</g>
</svg>
