<?xml version="1.0" encoding="UTF-8" standalone="no"?>
<!DOCTYPE svg PUBLIC "-//W3C//DTD SVG 1.1//EN"
 "http://www.w3.org/Graphics/SVG/1.1/DTD/svg11.dtd">
<!-- Generated by graphviz version 2.38.0 (20140413.2041)
 -->
<!-- Title: messages::stop_time Pages: 1 -->
<svg width="473pt" height="70pt"
 viewBox="0.00 0.00 473.00 70.00" xmlns="http://www.w3.org/2000/svg" xmlns:xlink="http://www.w3.org/1999/xlink">
<g id="graph0" class="graph" transform="scale(1 1) rotate(0) translate(4 66)">
<title>messages::stop_time</title>
<polygon fill="white" stroke="none" points="-4,4 -4,-66 469,-66 469,4 -4,4"/>
<!-- Node620 -->
<g id="node1" class="node"><title>Node620</title>
<polygon fill="#bfbfbf" stroke="black" points="0,-20.5 0,-41.5 131,-41.5 131,-20.5 0,-20.5"/>
<text text-anchor="middle" x="65.5" y="-27.9" font-family="Ubuntu Mono" font-size="12.00">messages::stop_time</text>
</g>
<!-- Node621 -->
<g id="node2" class="node"><title>Node621</title>
<g id="a_node2"><a xlink:href="namespacemessages.html#aa4a8d01563e92558e8a0875b075ec54c" target="_top" xlink:title="Write output to file identified by output_i. ">
<polygon fill="white" stroke="black" points="167,-20.5 167,-41.5 274,-41.5 274,-20.5 167,-20.5"/>
<text text-anchor="middle" x="220.5" y="-27.9" font-family="Ubuntu Mono" font-size="12.00">messages::writo</text>
</a>
</g>
</g>
<!-- Node620&#45;&gt;Node621 -->
<g id="edge1" class="edge"><title>Node620&#45;&gt;Node621</title>
<path fill="none" stroke="midnightblue" d="M131.386,-31C139.632,-31 148.063,-31 156.283,-31"/>
<polygon fill="midnightblue" stroke="midnightblue" points="156.551,-34.5001 166.551,-31 156.551,-27.5001 156.551,-34.5001"/>
</g>
<!-- Node622 -->
<g id="node3" class="node"><title>Node622</title>
<g id="a_node3"><a xlink:href="namespacemessages.html#a82dddaab795b78b3d39e1ff1aab2f665" target="_top" xlink:title="Returns the memory usage in kilobytes. ">
<polygon fill="white" stroke="black" points="310,-40.5 310,-61.5 465,-61.5 465,-40.5 310,-40.5"/>
<text text-anchor="middle" x="387.5" y="-47.9" font-family="Ubuntu Mono" font-size="12.00">messages::get_mem_usage</text>
</a>
</g>
</g>
<!-- Node621&#45;&gt;Node622 -->
<g id="edge2" class="edge"><title>Node621&#45;&gt;Node622</title>
<path fill="none" stroke="midnightblue" d="M274.161,-37.3831C282.452,-38.3881 291.208,-39.4495 300.025,-40.5182"/>
<polygon fill="midnightblue" stroke="midnightblue" points="299.635,-43.9965 309.984,-41.7253 300.478,-37.0474 299.635,-43.9965"/>
</g>
<!-- Node623 -->
<g id="node4" class="node"><title>Node623</title>
<g id="a_node4"><a xlink:href="namespacemessages.html#a61fd0b51b5e37d58fdc993c01792a3fd" target="_top" xlink:title="Returns the time. ">
<polygon fill="white" stroke="black" points="322,-0.5 322,-21.5 453,-21.5 453,-0.5 322,-0.5"/>
<text text-anchor="middle" x="387.5" y="-7.9" font-family="Ubuntu Mono" font-size="12.00">messages::get_clock</text>
</a>
</g>
</g>
<!-- Node621&#45;&gt;Node623 -->
<g id="edge3" class="edge"><title>Node621&#45;&gt;Node623</title>
<path fill="none" stroke="midnightblue" d="M274.161,-24.6169C286.142,-23.1646 299.094,-21.5947 311.797,-20.0549"/>
<polygon fill="midnightblue" stroke="midnightblue" points="312.402,-23.5073 321.908,-18.8293 311.56,-16.5581 312.402,-23.5073"/>
</g>
</g>
</svg>
