<?xml version="1.0" encoding="UTF-8" standalone="no"?>
<!DOCTYPE svg PUBLIC "-//W3C//DTD SVG 1.1//EN"
 "http://www.w3.org/Graphics/SVG/1.1/DTD/svg11.dtd">
<!-- Generated by graphviz version 2.38.0 (20140413.2041)
 -->
<!-- Title: messages::print_ar_1 Pages: 1 -->
<svg width="1373pt" height="212pt"
 viewBox="0.00 0.00 1373.00 211.50" xmlns="http://www.w3.org/2000/svg" xmlns:xlink="http://www.w3.org/1999/xlink">
<g id="graph0" class="graph" transform="scale(1 1) rotate(0) translate(4 207.5)">
<title>messages::print_ar_1</title>
<polygon fill="white" stroke="none" points="-4,4 -4,-207.5 1369,-207.5 1369,4 -4,4"/>
<!-- Node474 -->
<g id="node1" class="node"><title>Node474</title>
<polygon fill="#bfbfbf" stroke="black" points="0,-129.5 0,-150.5 137,-150.5 137,-129.5 0,-129.5"/>
<text text-anchor="middle" x="68.5" y="-136.9" font-family="Ubuntu Mono" font-size="12.00">messages::print_ar_1</text>
</g>
<!-- Node475 -->
<g id="node2" class="node"><title>Node475</title>
<g id="a_node2"><a xlink:href="namespacemessages.html#a80797cedef6112b8dccaeda431f0c610" target="_top" xlink:title="messages::print_ar_2">
<polygon fill="white" stroke="black" points="173,-90.5 173,-111.5 310,-111.5 310,-90.5 173,-90.5"/>
<text text-anchor="middle" x="241.5" y="-97.9" font-family="Ubuntu Mono" font-size="12.00">messages::print_ar_2</text>
</a>
</g>
</g>
<!-- Node474&#45;&gt;Node475 -->
<g id="edge1" class="edge"><title>Node474&#45;&gt;Node475</title>
<path fill="none" stroke="midnightblue" d="M125.731,-127.175C147.912,-122.116 173.083,-116.376 194.188,-111.562"/>
<polygon fill="midnightblue" stroke="midnightblue" points="124.746,-123.81 115.775,-129.446 126.303,-130.635 124.746,-123.81"/>
</g>
<!-- Node476 -->
<g id="node3" class="node"><title>Node476</title>
<g id="a_node3"><a xlink:href="namespacenum__utilities.html#a2d5d9c66db19fb6edeeb50db6182397f" target="_top" xlink:title="num_utilities::calc\l_ext_var">
<polygon fill="white" stroke="black" points="358,-169 358,-203 489,-203 489,-169 358,-169"/>
<text text-anchor="start" x="366" y="-189.4" font-family="Ubuntu Mono" font-size="12.00">num_utilities::calc</text>
<text text-anchor="middle" x="423.5" y="-176.4" font-family="Ubuntu Mono" font-size="12.00">_ext_var</text>
</a>
</g>
</g>
<!-- Node474&#45;&gt;Node476 -->
<g id="edge17" class="edge"><title>Node474&#45;&gt;Node476</title>
<path fill="none" stroke="midnightblue" d="M147.449,-150.158C210.58,-158.384 298.469,-169.837 357.765,-177.564"/>
<polygon fill="midnightblue" stroke="midnightblue" points="147.513,-146.636 137.144,-148.815 146.608,-153.578 147.513,-146.636"/>
</g>
<!-- Node477 -->
<g id="node4" class="node"><title>Node477</title>
<g id="a_node4"><a xlink:href="namespacenum__utilities.html#a87132bd5006387bcc2afe5ca375f0830" target="_top" xlink:title="num_utilities::calc\l_coeff_fin_diff">
<polygon fill="white" stroke="black" points="358,-116 358,-150 489,-150 489,-116 358,-116"/>
<text text-anchor="start" x="366" y="-136.4" font-family="Ubuntu Mono" font-size="12.00">num_utilities::calc</text>
<text text-anchor="middle" x="423.5" y="-123.4" font-family="Ubuntu Mono" font-size="12.00">_coeff_fin_diff</text>
</a>
</g>
</g>
<!-- Node474&#45;&gt;Node477 -->
<g id="edge18" class="edge"><title>Node474&#45;&gt;Node477</title>
<path fill="none" stroke="midnightblue" d="M147.449,-138.454C210.58,-137.202 298.469,-135.46 357.765,-134.284"/>
<polygon fill="midnightblue" stroke="midnightblue" points="147.073,-134.961 137.144,-138.659 147.212,-141.96 147.073,-134.961"/>
</g>
<!-- Node475&#45;&gt;Node476 -->
<g id="edge2" class="edge"><title>Node475&#45;&gt;Node476</title>
<path fill="none" stroke="midnightblue" d="M267.997,-116.913C288.565,-129.348 318.499,-146.552 346,-159 353.699,-162.485 361.991,-165.819 370.175,-168.882"/>
<polygon fill="midnightblue" stroke="midnightblue" points="269.607,-113.795 259.248,-111.569 265.958,-119.769 269.607,-113.795"/>
</g>
<!-- Node475&#45;&gt;Node477 -->
<g id="edge3" class="edge"><title>Node475&#45;&gt;Node477</title>
<path fill="none" stroke="midnightblue" d="M312.189,-113.389C327.213,-116.06 343.033,-118.873 357.855,-121.507"/>
<polygon fill="midnightblue" stroke="midnightblue" points="312.396,-109.871 301.938,-111.567 311.171,-116.763 312.396,-109.871"/>
</g>
<!-- Node481 -->
<g id="node8" class="node"><title>Node481</title>
<g id="a_node8"><a xlink:href="SLEPC__ops_8f90.html#abdaf8a38000d4b3d52de078affcd853d" target="_top" xlink:title="set_bc_1">
<polygon fill="white" stroke="black" points="537,-0.5 537,-21.5 602,-21.5 602,-0.5 537,-0.5"/>
<text text-anchor="middle" x="569.5" y="-7.9" font-family="Ubuntu Mono" font-size="12.00">set_bc_1</text>
</a>
</g>
</g>
<!-- Node475&#45;&gt;Node481 -->
<g id="edge7" class="edge"><title>Node475&#45;&gt;Node481</title>
<path fill="none" stroke="midnightblue" d="M270.794,-85.5488C291.177,-75.0026 319.623,-61.461 346,-53 412.255,-31.7471 493.256,-19.8052 536.94,-14.4587"/>
<polygon fill="midnightblue" stroke="midnightblue" points="268.979,-82.5492 261.757,-90.3019 272.237,-88.7446 268.979,-82.5492"/>
</g>
<!-- Node484 -->
<g id="node11" class="node"><title>Node484</title>
<g id="a_node11"><a xlink:href="namespaceslepc__utilities.html#ae6568f825f3fa8a6e3d45f67f3daf412" target="_top" xlink:title="slepc_utilities::insert\l_block_mat">
<polygon fill="white" stroke="black" points="346,-63 346,-97 501,-97 501,-63 346,-63"/>
<text text-anchor="start" x="354" y="-83.4" font-family="Ubuntu Mono" font-size="12.00">slepc_utilities::insert</text>
<text text-anchor="middle" x="423.5" y="-70.4" font-family="Ubuntu Mono" font-size="12.00">_block_mat</text>
</a>
</g>
</g>
<!-- Node475&#45;&gt;Node484 -->
<g id="edge11" class="edge"><title>Node475&#45;&gt;Node484</title>
<path fill="none" stroke="midnightblue" d="M319.994,-91.959C328.552,-90.9606 337.264,-89.9442 345.812,-88.9469"/>
<polygon fill="midnightblue" stroke="midnightblue" points="319.564,-88.4853 310.037,-93.1206 320.376,-95.4382 319.564,-88.4853"/>
</g>
<!-- Node478 -->
<g id="node5" class="node"><title>Node478</title>
<g id="a_node5"><a xlink:href="namespaceslepc__ops.html#ad9d4a9b7275ac5a6b9b35e481a7c1710" target="_top" xlink:title="slepc_ops::solve_ev\l_system_slepc">
<polygon fill="white" stroke="black" points="948,-129 948,-163 1079,-163 1079,-129 948,-129"/>
<text text-anchor="start" x="956" y="-149.4" font-family="Ubuntu Mono" font-size="12.00">slepc_ops::solve_ev</text>
<text text-anchor="middle" x="1013.5" y="-136.4" font-family="Ubuntu Mono" font-size="12.00">_system_slepc</text>
</a>
</g>
</g>
<!-- Node477&#45;&gt;Node478 -->
<g id="edge4" class="edge"><title>Node477&#45;&gt;Node478</title>
<path fill="none" stroke="midnightblue" d="M499.541,-139.126C540.441,-142.161 591.967,-145.492 638,-147 746.684,-150.56 873.204,-149.041 947.865,-147.561"/>
<polygon fill="midnightblue" stroke="midnightblue" points="499.616,-135.622 489.382,-138.362 499.092,-142.602 499.616,-135.622"/>
</g>
<!-- Node479 -->
<g id="node6" class="node"><title>Node479</title>
<g id="a_node6"><a xlink:href="namespacedriver__sol.html#a208ddea649ee160b7a55da8d0a5d4847" target="_top" xlink:title="driver_sol::run_driver_sol">
<polygon fill="white" stroke="black" points="1115,-135.5 1115,-156.5 1288,-156.5 1288,-135.5 1115,-135.5"/>
<text text-anchor="middle" x="1201.5" y="-142.9" font-family="Ubuntu Mono" font-size="12.00">driver_sol::run_driver_sol</text>
</a>
</g>
</g>
<!-- Node478&#45;&gt;Node479 -->
<g id="edge5" class="edge"><title>Node478&#45;&gt;Node479</title>
<path fill="none" stroke="midnightblue" d="M1089.18,-146C1097.61,-146 1106.24,-146 1114.79,-146"/>
<polygon fill="midnightblue" stroke="midnightblue" points="1089.03,-142.5 1079.03,-146 1089.03,-149.5 1089.03,-142.5"/>
</g>
<!-- Node480 -->
<g id="node7" class="node"><title>Node480</title>
<g id="a_node7"><a xlink:href="PB3D_8f90.html#afaee01f014ab3398eecac996b2795fd2" target="_top" xlink:title="pb3d">
<polygon fill="white" stroke="black" points="1324,-135.5 1324,-156.5 1365,-156.5 1365,-135.5 1324,-135.5"/>
<text text-anchor="middle" x="1344.5" y="-142.9" font-family="Ubuntu Mono" font-size="12.00">pb3d</text>
</a>
</g>
</g>
<!-- Node479&#45;&gt;Node480 -->
<g id="edge6" class="edge"><title>Node479&#45;&gt;Node480</title>
<path fill="none" stroke="midnightblue" d="M1298.34,-146C1307.87,-146 1316.69,-146 1323.96,-146"/>
<polygon fill="midnightblue" stroke="midnightblue" points="1298.18,-142.5 1288.18,-146 1298.18,-149.5 1298.18,-142.5"/>
</g>
<!-- Node482 -->
<g id="node9" class="node"><title>Node482</title>
<g id="a_node9"><a xlink:href="SLEPC__ops_8f90.html#a1d58436fdcad8037090c9ce1e50a9ae1" target="_top" xlink:title="disp_mat_info">
<polygon fill="white" stroke="black" points="638,-38.5 638,-59.5 733,-59.5 733,-38.5 638,-38.5"/>
<text text-anchor="middle" x="685.5" y="-45.9" font-family="Ubuntu Mono" font-size="12.00">disp_mat_info</text>
</a>
</g>
</g>
<!-- Node481&#45;&gt;Node482 -->
<g id="edge8" class="edge"><title>Node481&#45;&gt;Node482</title>
<path fill="none" stroke="midnightblue" d="M611.843,-24.7811C625.387,-29.2958 640.21,-34.2368 652.915,-38.4716"/>
<polygon fill="midnightblue" stroke="midnightblue" points="612.849,-21.4271 602.255,-21.5851 610.635,-28.0679 612.849,-21.4271"/>
</g>
<!-- Node483 -->
<g id="node10" class="node"><title>Node483</title>
<g id="a_node10"><a xlink:href="namespaceslepc__ops.html#af8aa2b9b7c5154ebd595afce3f5ebcd0" target="_top" xlink:title="slepc_ops::setup_mats">
<polygon fill="white" stroke="black" points="769,-96.5 769,-117.5 912,-117.5 912,-96.5 769,-96.5"/>
<text text-anchor="middle" x="840.5" y="-103.9" font-family="Ubuntu Mono" font-size="12.00">slepc_ops::setup_mats</text>
</a>
</g>
</g>
<!-- Node482&#45;&gt;Node483 -->
<g id="edge9" class="edge"><title>Node482&#45;&gt;Node483</title>
<path fill="none" stroke="midnightblue" d="M723.763,-63.1258C750.913,-73.4181 787.105,-87.138 811.741,-96.4769"/>
<polygon fill="midnightblue" stroke="midnightblue" points="724.798,-59.7754 714.207,-59.5034 722.317,-66.3209 724.798,-59.7754"/>
</g>
<!-- Node483&#45;&gt;Node478 -->
<g id="edge10" class="edge"><title>Node483&#45;&gt;Node478</title>
<path fill="none" stroke="midnightblue" d="M897.565,-119.787C913.656,-123.457 931.332,-127.488 947.893,-131.265"/>
<polygon fill="midnightblue" stroke="midnightblue" points="898.303,-116.365 887.775,-117.554 896.746,-123.19 898.303,-116.365"/>
</g>
<!-- Node484&#45;&gt;Node481 -->
<g id="edge16" class="edge"><title>Node484&#45;&gt;Node481</title>
<path fill="none" stroke="midnightblue" d="M469.253,-58.556C494.85,-46.2908 525.836,-31.443 546.301,-21.6371"/>
<polygon fill="midnightblue" stroke="midnightblue" points="467.601,-55.4662 460.096,-62.9438 470.626,-61.7789 467.601,-55.4662"/>
</g>
<!-- Node484&#45;&gt;Node482 -->
<g id="edge15" class="edge"><title>Node484&#45;&gt;Node482</title>
<path fill="none" stroke="midnightblue" d="M511.13,-69.6711C553.421,-64.6287 602.629,-58.7616 637.792,-54.569"/>
<polygon fill="midnightblue" stroke="midnightblue" points="510.618,-66.2073 501.102,-70.8666 511.446,-73.158 510.618,-66.2073"/>
</g>
<!-- Node484&#45;&gt;Node483 -->
<g id="edge12" class="edge"><title>Node484&#45;&gt;Node483</title>
<path fill="none" stroke="midnightblue" d="M511.189,-85.64C587.644,-90.6142 697.676,-97.7729 768.881,-102.406"/>
<polygon fill="midnightblue" stroke="midnightblue" points="511.307,-82.1404 501.101,-84.9837 510.853,-89.1256 511.307,-82.1404"/>
</g>
<!-- Node485 -->
<g id="node12" class="node"><title>Node485</title>
<g id="a_node12"><a xlink:href="SLEPC__ops_8f90.html#a2304e2ffd00378a9252c04507d5a1a7e" target="_top" xlink:title="fill_mat">
<polygon fill="white" stroke="black" points="653,-116.5 653,-137.5 718,-137.5 718,-116.5 653,-116.5"/>
<text text-anchor="middle" x="685.5" y="-123.9" font-family="Ubuntu Mono" font-size="12.00">fill_mat</text>
</a>
</g>
</g>
<!-- Node484&#45;&gt;Node485 -->
<g id="edge13" class="edge"><title>Node484&#45;&gt;Node485</title>
<path fill="none" stroke="midnightblue" d="M510.92,-97.1289C519.723,-98.8052 528.536,-100.455 537,-102 576.859,-109.274 622.912,-116.966 652.809,-121.866"/>
<polygon fill="midnightblue" stroke="midnightblue" points="511.484,-93.6734 501.004,-95.2296 510.167,-100.548 511.484,-93.6734"/>
</g>
<!-- Node485&#45;&gt;Node483 -->
<g id="edge14" class="edge"><title>Node485&#45;&gt;Node483</title>
<path fill="none" stroke="midnightblue" d="M728.301,-121.536C740.812,-119.9 754.894,-118.06 768.724,-116.252"/>
<polygon fill="midnightblue" stroke="midnightblue" points="727.664,-118.089 718.202,-122.856 728.571,-125.03 727.664,-118.089"/>
</g>
</g>
</svg>
