<?xml version="1.0" encoding="UTF-8" standalone="no"?>
<!DOCTYPE svg PUBLIC "-//W3C//DTD SVG 1.1//EN"
 "http://www.w3.org/Graphics/SVG/1.1/DTD/svg11.dtd">
<!-- Generated by graphviz version 14.1.2 (20260124.0452)
 -->
<!-- Title: helena_vars::dealloc_hel Pages: 1 -->
<svg width="500pt" height="91pt"
 viewBox="0.00 0.00 500.00 91.00" xmlns="http://www.w3.org/2000/svg" xmlns:xlink="http://www.w3.org/1999/xlink">
<g id="graph0" class="graph" transform="scale(1 1) rotate(0) translate(4 86.75)">
<title>helena_vars::dealloc_hel</title>
<!-- Node1 -->
<g id="Node000001" class="node">
<title>Node1</title>
<g id="a_Node000001"><a xlink:title="Deallocates HELENA quantities that are not used any more.">
<polygon fill="#999999" stroke="#666666" points="160,-49.75 0,-49.75 0,-29 160,-29 160,-49.75"/>
<text xml:space="preserve" text-anchor="middle" x="80" y="-34.35" font-family="Ubuntu Mono" font-size="12.00">helena_vars::dealloc_hel</text>
</a>
</g>
</g>
<!-- Node2 -->
<g id="Node000002" class="node">
<title>Node2</title>
<g id="a_Node000002"><a xlink:href="namespacemessages.html#a82dddaab795b78b3d39e1ff1aab2f665" target="_top" xlink:title="Returns the memory usage in kilobytes.">
<polygon fill="white" stroke="#666666" points="492,-82.75 338,-82.75 338,-62 492,-62 492,-82.75"/>
<text xml:space="preserve" text-anchor="middle" x="415" y="-67.35" font-family="Ubuntu Mono" font-size="12.00">messages::get_mem_usage</text>
</a>
</g>
</g>
<!-- Node1&#45;&gt;Node2 -->
<g id="edge1_Node000001_Node000002" class="edge">
<title>Node1&#45;&gt;Node2</title>
<g id="a_edge1_Node000001_Node000002"><a xlink:title=" ">
<path fill="none" stroke="#63b8ff" d="M139.64,-50.22C157.67,-53.24 177.6,-56.27 196,-58.38 238.79,-63.27 286.51,-66.58 326.37,-68.74"/>
<polygon fill="#63b8ff" stroke="#63b8ff" points="325.98,-72.23 336.15,-69.26 326.35,-65.24 325.98,-72.23"/>
</a>
</g>
</g>
<!-- Node3 -->
<g id="Node000003" class="node">
<title>Node3</title>
<g id="a_Node000003"><a xlink:href="namespacestr__utilities.html#a0b97e51770725a3e98ed393d26681414" target="_top" xlink:title="Convert an integer to string.">
<polygon fill="white" stroke="#666666" points="483,-20.75 347,-20.75 347,0 483,0 483,-20.75"/>
<text xml:space="preserve" text-anchor="middle" x="415" y="-5.35" font-family="Ubuntu Mono" font-size="12.00">str_utilities::i2str</text>
</a>
</g>
</g>
<!-- Node1&#45;&gt;Node3 -->
<g id="edge2_Node000001_Node000003" class="edge">
<title>Node1&#45;&gt;Node3</title>
<g id="a_edge2_Node000001_Node000003"><a xlink:title=" ">
<path fill="none" stroke="#63b8ff" d="M138.44,-28.52C156.77,-25.42 177.18,-22.35 196,-20.38 241.98,-15.54 293.66,-13.04 335.15,-11.75"/>
<polygon fill="#63b8ff" stroke="#63b8ff" points="335.17,-15.25 345.06,-11.46 334.96,-8.26 335.17,-15.25"/>
</a>
</g>
</g>
<!-- Node4 -->
<g id="Node000004" class="node">
<title>Node4</title>
<g id="a_Node000004"><a xlink:href="namespacemessages.html#aa4a8d01563e92558e8a0875b075ec54c" target="_top" xlink:title="Write output to file identified by output_i.">
<polygon fill="white" stroke="#666666" points="302,-49.75 196,-49.75 196,-29 302,-29 302,-49.75"/>
<text xml:space="preserve" text-anchor="middle" x="249" y="-34.35" font-family="Ubuntu Mono" font-size="12.00">messages::writo</text>
</a>
</g>
</g>
<!-- Node1&#45;&gt;Node4 -->
<g id="edge4_Node000001_Node000004" class="edge">
<title>Node1&#45;&gt;Node4</title>
<g id="a_edge4_Node000001_Node000004"><a xlink:title=" ">
<path fill="none" stroke="#63b8ff" d="M160.1,-39.38C168.26,-39.38 176.47,-39.38 184.42,-39.38"/>
<polygon fill="#63b8ff" stroke="#63b8ff" points="184.35,-42.88 194.35,-39.38 184.35,-35.88 184.35,-42.88"/>
</a>
</g>
</g>
<!-- Node3&#45;&gt;Node3 -->
<g id="edge3_Node000003_Node000003" class="edge">
<title>Node3&#45;&gt;Node3</title>
<g id="a_edge3_Node000003_Node000003"><a xlink:title=" ">
<path fill="none" stroke="#63b8ff" d="M388.25,-21.15C377.55,-29.81 386.47,-38.75 415,-38.75 430.6,-38.75 440.34,-36.08 444.21,-32.24"/>
<polygon fill="#63b8ff" stroke="#63b8ff" points="447.66,-31.63 442.08,-22.62 440.83,-33.15 447.66,-31.63"/>
</a>
</g>
</g>
<!-- Node4&#45;&gt;Node2 -->
<g id="edge5_Node000004_Node000002" class="edge">
<title>Node4&#45;&gt;Node2</title>
<g id="a_edge5_Node000004_Node000002"><a xlink:title=" ">
<path fill="none" stroke="#63b8ff" d="M302.34,-49.91C317.2,-52.9 333.56,-56.19 349.07,-59.31"/>
<polygon fill="#63b8ff" stroke="#63b8ff" points="348.2,-62.71 358.7,-61.25 349.59,-55.84 348.2,-62.71"/>
</a>
</g>
</g>
<!-- Node4&#45;&gt;Node3 -->
<g id="edge6_Node000004_Node000003" class="edge">
<title>Node4&#45;&gt;Node3</title>
<g id="a_edge6_Node000004_Node000003"><a xlink:title=" ">
<path fill="none" stroke="#63b8ff" d="M302.34,-30.12C314.86,-27.9 328.45,-25.5 341.7,-23.16"/>
<polygon fill="#63b8ff" stroke="#63b8ff" points="341.99,-26.66 351.23,-21.47 340.77,-19.77 341.99,-26.66"/>
</a>
</g>
</g>
</g>
</svg>
