<?xml version="1.0" encoding="UTF-8" standalone="no"?>
<!DOCTYPE svg PUBLIC "-//W3C//DTD SVG 1.1//EN"
 "http://www.w3.org/Graphics/SVG/1.1/DTD/svg11.dtd">
<!-- Generated by graphviz version 2.38.0 (20140413.2041)
 -->
<!-- Title: hdf5_ops::read_hdf5_arr Pages: 1 -->
<svg width="897pt" height="431pt"
 viewBox="0.00 0.00 897.00 430.50" xmlns="http://www.w3.org/2000/svg" xmlns:xlink="http://www.w3.org/1999/xlink">
<g id="graph0" class="graph" transform="scale(1 1) rotate(0) translate(4 426.5)">
<title>hdf5_ops::read_hdf5_arr</title>
<polygon fill="white" stroke="none" points="-4,4 -4,-426.5 893,-426.5 893,4 -4,4"/>
<!-- Node112 -->
<g id="node1" class="node"><title>Node112</title>
<polygon fill="#bfbfbf" stroke="black" points="0,-165.5 0,-186.5 155,-186.5 155,-165.5 0,-165.5"/>
<text text-anchor="middle" x="77.5" y="-172.9" font-family="Ubuntu Mono" font-size="12.00">hdf5_ops::read_hdf5_arr</text>
</g>
<!-- Node113 -->
<g id="node2" class="node"><title>Node113</title>
<g id="a_node2"><a xlink:href="namespacehdf5__utilities.html#a7574320980affc30a584f7776d33a51c" target="_top" xlink:title="Sets up the chunk property list and/or the 1D hyperslabs that correspond to a local subset of lim_tot...">
<polygon fill="white" stroke="black" points="194,-305 194,-339 325,-339 325,-305 194,-305"/>
<text text-anchor="start" x="202" y="-325.4" font-family="Ubuntu Mono" font-size="12.00">hdf5_utilities::set</text>
<text text-anchor="middle" x="259.5" y="-312.4" font-family="Ubuntu Mono" font-size="12.00">_1d_vars</text>
</a>
</g>
</g>
<!-- Node112&#45;&gt;Node113 -->
<g id="edge1" class="edge"><title>Node112&#45;&gt;Node113</title>
<path fill="none" stroke="midnightblue" d="M85.9852,-186.824C102.45,-209.904 144.1,-264.417 191,-296 193.142,-297.442 195.375,-298.821 197.671,-300.136"/>
<polygon fill="midnightblue" stroke="midnightblue" points="196.296,-303.367 206.779,-304.9 199.54,-297.164 196.296,-303.367"/>
</g>
<!-- Node114 -->
<g id="node3" class="node"><title>Node114</title>
<g id="a_node3"><a xlink:href="namespacempi__utilities.html#a5a789d05be41d6109c01f46cc98620c8" target="_top" xlink:title="Request access to lock of a BL (blocking) or optionally a NB (non&#45;blocking) type. ...">
<polygon fill="white" stroke="black" points="194,-252 194,-286 325,-286 325,-252 194,-252"/>
<text text-anchor="start" x="202" y="-272.4" font-family="Ubuntu Mono" font-size="12.00">mpi_utilities::lock</text>
<text text-anchor="middle" x="259.5" y="-259.4" font-family="Ubuntu Mono" font-size="12.00">_req_acc</text>
</a>
</g>
</g>
<!-- Node112&#45;&gt;Node114 -->
<g id="edge2" class="edge"><title>Node112&#45;&gt;Node114</title>
<path fill="none" stroke="midnightblue" d="M94.8422,-186.641C116.36,-200.405 155.617,-224.666 191,-242 195.063,-243.99 199.311,-245.953 203.613,-247.856"/>
<polygon fill="midnightblue" stroke="midnightblue" points="202.497,-251.185 213.067,-251.915 205.259,-244.753 202.497,-251.185"/>
</g>
<!-- Node117 -->
<g id="node6" class="node"><title>Node117</title>
<g id="a_node6"><a xlink:href="namespacestr__utilities.html#a0b97e51770725a3e98ed393d26681414" target="_top" xlink:title="Convert an integer to string. ">
<polygon fill="white" stroke="black" points="749,-124.5 749,-145.5 886,-145.5 886,-124.5 749,-124.5"/>
<text text-anchor="middle" x="817.5" y="-131.9" font-family="Ubuntu Mono" font-size="12.00">str_utilities::i2str</text>
</a>
</g>
</g>
<!-- Node112&#45;&gt;Node117 -->
<g id="edge24" class="edge"><title>Node112&#45;&gt;Node117</title>
<path fill="none" stroke="midnightblue" d="M155.045,-171.748C296.237,-163.903 596.212,-147.238 738.493,-139.334"/>
<polygon fill="midnightblue" stroke="midnightblue" points="739.083,-142.806 748.874,-138.757 738.695,-135.817 739.083,-142.806"/>
</g>
<!-- Node123 -->
<g id="node12" class="node"><title>Node123</title>
<g id="a_node12"><a xlink:href="namespacempi__utilities.html#a86f9982a0f92b51a916f832d9a3d8ba9" target="_top" xlink:title="Returns access to a lock. ">
<polygon fill="white" stroke="black" points="194,-199 194,-233 325,-233 325,-199 194,-199"/>
<text text-anchor="start" x="202" y="-219.4" font-family="Ubuntu Mono" font-size="12.00">mpi_utilities::lock</text>
<text text-anchor="middle" x="259.5" y="-206.4" font-family="Ubuntu Mono" font-size="12.00">_return_acc</text>
</a>
</g>
</g>
<!-- Node112&#45;&gt;Node123 -->
<g id="edge14" class="edge"><title>Node112&#45;&gt;Node123</title>
<path fill="none" stroke="midnightblue" d="M125.793,-186.51C143.614,-190.47 164.344,-195.076 184.049,-199.455"/>
<polygon fill="midnightblue" stroke="midnightblue" points="183.408,-202.898 193.929,-201.651 184.926,-196.065 183.408,-202.898"/>
</g>
<!-- Node124 -->
<g id="node13" class="node"><title>Node124</title>
<g id="a_node13"><a xlink:href="namespacehdf5__utilities.html#aa9d76166f970a7052cd0d96c8f3ee0be" target="_top" xlink:title="Lists all variables in a HDF5 group. ">
<polygon fill="white" stroke="black" points="191,-74 191,-108 328,-108 328,-74 191,-74"/>
<text text-anchor="start" x="199" y="-94.4" font-family="Ubuntu Mono" font-size="12.00">hdf5_utilities::list</text>
<text text-anchor="middle" x="259.5" y="-81.4" font-family="Ubuntu Mono" font-size="12.00">_all_vars_in_group</text>
</a>
</g>
</g>
<!-- Node112&#45;&gt;Node124 -->
<g id="edge19" class="edge"><title>Node112&#45;&gt;Node124</title>
<path fill="none" stroke="midnightblue" d="M100.933,-165.407C128.876,-152.211 177.298,-129.345 213.108,-112.435"/>
<polygon fill="midnightblue" stroke="midnightblue" points="214.835,-115.49 222.383,-108.055 211.846,-109.161 214.835,-115.49"/>
</g>
<!-- Node125 -->
<g id="node14" class="node"><title>Node125</title>
<g id="a_node14"><a xlink:href="namespacemessages.html#aa4a8d01563e92558e8a0875b075ec54c" target="_top" xlink:title="Write output to file identified by output_i. ">
<polygon fill="white" stroke="black" points="388,-37.5 388,-58.5 495,-58.5 495,-37.5 388,-37.5"/>
<text text-anchor="middle" x="441.5" y="-44.9" font-family="Ubuntu Mono" font-size="12.00">messages::writo</text>
</a>
</g>
</g>
<!-- Node112&#45;&gt;Node125 -->
<g id="edge25" class="edge"><title>Node112&#45;&gt;Node125</title>
<path fill="none" stroke="midnightblue" d="M85.3123,-165.168C100.756,-141.717 141.003,-86.5438 191,-64 250.167,-37.3212 325.339,-36.35 377.632,-40.1568"/>
<polygon fill="midnightblue" stroke="midnightblue" points="377.525,-43.6594 387.774,-40.9757 378.088,-36.6821 377.525,-43.6594"/>
</g>
<!-- Node115 -->
<g id="node4" class="node"><title>Node115</title>
<g id="a_node4"><a xlink:href="namespacempi__utilities.html#abe5bf3ae3b6a06eda18c2f4d62ac09c5" target="_top" xlink:title="Returns the header for lock debug messages. ">
<polygon fill="white" stroke="black" points="567,-272 567,-306 698,-306 698,-272 567,-272"/>
<text text-anchor="start" x="575" y="-292.4" font-family="Ubuntu Mono" font-size="12.00">mpi_utilities::lock</text>
<text text-anchor="middle" x="632.5" y="-279.4" font-family="Ubuntu Mono" font-size="12.00">_header</text>
</a>
</g>
</g>
<!-- Node114&#45;&gt;Node115 -->
<g id="edge3" class="edge"><title>Node114&#45;&gt;Node115</title>
<path fill="none" stroke="midnightblue" d="M311.396,-286.063C317.235,-288.964 322.911,-292.268 328,-296 348.375,-310.943 341.167,-329.18 364,-340 439.569,-375.81 538.414,-337.788 592.294,-310.865"/>
<polygon fill="midnightblue" stroke="midnightblue" points="594.191,-313.826 601.498,-306.154 591.002,-307.595 594.191,-313.826"/>
</g>
<!-- Node118 -->
<g id="node7" class="node"><title>Node118</title>
<g id="a_node7"><a xlink:href="namespacempi__utilities.html#a3b0349e5ec825e14083e3126c3e7ba65" target="_top" xlink:title="Adds, removes or sets to active a rank from the waiting list for a lock and returns the lock waiting ...">
<polygon fill="white" stroke="black" points="376,-202 376,-236 507,-236 507,-202 376,-202"/>
<text text-anchor="start" x="384" y="-222.4" font-family="Ubuntu Mono" font-size="12.00">mpi_utilities::lock</text>
<text text-anchor="middle" x="441.5" y="-209.4" font-family="Ubuntu Mono" font-size="12.00">_wl_change</text>
</a>
</g>
</g>
<!-- Node114&#45;&gt;Node118 -->
<g id="edge6" class="edge"><title>Node114&#45;&gt;Node118</title>
<path fill="none" stroke="midnightblue" d="M321.942,-251.933C337.208,-247.692 353.696,-243.112 369.383,-238.755"/>
<polygon fill="midnightblue" stroke="midnightblue" points="370.331,-242.124 379.029,-236.075 368.457,-235.379 370.331,-242.124"/>
</g>
<!-- Node120 -->
<g id="node9" class="node"><title>Node120</title>
<g id="a_node9"><a xlink:href="namespacempi__utilities.html#a74e2e82b561f403ca8087c3925f76e29" target="_top" xlink:title="Decides whether a waiting list is empty. ">
<polygon fill="white" stroke="black" points="364,-255.5 364,-276.5 519,-276.5 519,-255.5 364,-255.5"/>
<text text-anchor="middle" x="441.5" y="-262.9" font-family="Ubuntu Mono" font-size="12.00">mpi_utilities::wl_empty</text>
</a>
</g>
</g>
<!-- Node114&#45;&gt;Node120 -->
<g id="edge9" class="edge"><title>Node114&#45;&gt;Node120</title>
<path fill="none" stroke="midnightblue" d="M325.23,-267.921C334.408,-267.768 343.968,-267.609 353.483,-267.45"/>
<polygon fill="midnightblue" stroke="midnightblue" points="353.83,-270.945 363.77,-267.279 353.713,-263.946 353.83,-270.945"/>
</g>
<!-- Node121 -->
<g id="node10" class="node"><title>Node121</title>
<g id="a_node10"><a xlink:href="namespacempi__utilities.html#a263a30c79639d97f5faffdb566b5a811" target="_top" xlink:title="Notifies a rank that they can get the lock. ">
<polygon fill="white" stroke="black" points="376,-296 376,-330 507,-330 507,-296 376,-296"/>
<text text-anchor="start" x="384" y="-316.4" font-family="Ubuntu Mono" font-size="12.00">mpi_utilities::lock</text>
<text text-anchor="middle" x="441.5" y="-303.4" font-family="Ubuntu Mono" font-size="12.00">_notify</text>
</a>
</g>
</g>
<!-- Node114&#45;&gt;Node121 -->
<g id="edge10" class="edge"><title>Node114&#45;&gt;Node121</title>
<path fill="none" stroke="midnightblue" d="M325.23,-284.823C338.45,-288.054 352.461,-291.479 365.991,-294.787"/>
<polygon fill="midnightblue" stroke="midnightblue" points="365.195,-298.195 375.74,-297.17 366.857,-291.395 365.195,-298.195"/>
</g>
<!-- Node122 -->
<g id="node11" class="node"><title>Node122</title>
<g id="a_node11"><a xlink:href="namespacempi__utilities.html#a17c39b0498528e2532c8347b0b7dec86" target="_top" xlink:title="Get notified that the rank can get the lock. ">
<polygon fill="white" stroke="black" points="376,-388 376,-422 507,-422 507,-388 376,-388"/>
<text text-anchor="start" x="384" y="-408.4" font-family="Ubuntu Mono" font-size="12.00">mpi_utilities::lock</text>
<text text-anchor="middle" x="441.5" y="-395.4" font-family="Ubuntu Mono" font-size="12.00">_get_notified</text>
</a>
</g>
</g>
<!-- Node114&#45;&gt;Node122 -->
<g id="edge12" class="edge"><title>Node114&#45;&gt;Node122</title>
<path fill="none" stroke="midnightblue" d="M314.398,-286.035C319.32,-288.886 323.963,-292.186 328,-296 355.461,-321.943 336.743,-346.842 364,-373 367.798,-376.645 372.071,-379.901 376.607,-382.805"/>
<polygon fill="midnightblue" stroke="midnightblue" points="375.182,-386.023 385.597,-387.967 378.667,-379.952 375.182,-386.023"/>
</g>
<!-- Node116 -->
<g id="node5" class="node"><title>Node116</title>
<g id="a_node5"><a xlink:href="namespacestr__utilities.html#acb8c4e66aead51f178e47fdea8d7a7db" target="_top" xlink:title="Convert an integer to string. ">
<polygon fill="white" stroke="black" points="746,-278.5 746,-299.5 889,-299.5 889,-278.5 746,-278.5"/>
<text text-anchor="middle" x="817.5" y="-285.9" font-family="Ubuntu Mono" font-size="12.00">str_utilities::ii2str</text>
</a>
</g>
</g>
<!-- Node115&#45;&gt;Node116 -->
<g id="edge4" class="edge"><title>Node115&#45;&gt;Node116</title>
<path fill="none" stroke="midnightblue" d="M698.019,-289C710.199,-289 723.079,-289 735.685,-289"/>
<polygon fill="midnightblue" stroke="midnightblue" points="735.717,-292.5 745.717,-289 735.717,-285.5 735.717,-292.5"/>
</g>
<!-- Node115&#45;&gt;Node117 -->
<g id="edge5" class="edge"><title>Node115&#45;&gt;Node117</title>
<path fill="none" stroke="midnightblue" d="M662.392,-271.975C677.117,-262.842 695.026,-251.015 710,-239 744.137,-211.608 779.719,-174.941 799.893,-153.26"/>
<polygon fill="midnightblue" stroke="midnightblue" points="802.627,-155.458 806.835,-145.735 797.482,-150.712 802.627,-155.458"/>
</g>
<!-- Node118&#45;&gt;Node115 -->
<g id="edge7" class="edge"><title>Node118&#45;&gt;Node115</title>
<path fill="none" stroke="midnightblue" d="M491.54,-236.097C500.682,-239.344 510.143,-242.745 519,-246 538.387,-253.125 559.562,-261.154 578.26,-268.328"/>
<polygon fill="midnightblue" stroke="midnightblue" points="577.199,-271.67 587.789,-271.992 579.712,-265.136 577.199,-271.67"/>
</g>
<!-- Node119 -->
<g id="node8" class="node"><title>Node119</title>
<g id="a_node8"><a xlink:href="namespacestr__utilities.html#ac778d706b2e021672618939ab58fdd32" target="_top" xlink:title="Convert a real (double) to string. ">
<polygon fill="white" stroke="black" points="561,-208.5 561,-229.5 704,-229.5 704,-208.5 561,-208.5"/>
<text text-anchor="middle" x="632.5" y="-215.9" font-family="Ubuntu Mono" font-size="12.00">str_utilities::r2strt</text>
</a>
</g>
</g>
<!-- Node118&#45;&gt;Node119 -->
<g id="edge8" class="edge"><title>Node118&#45;&gt;Node119</title>
<path fill="none" stroke="midnightblue" d="M507.014,-219C521.09,-219 536.156,-219 550.772,-219"/>
<polygon fill="midnightblue" stroke="midnightblue" points="550.802,-222.5 560.802,-219 550.802,-215.5 550.802,-222.5"/>
</g>
<!-- Node121&#45;&gt;Node115 -->
<g id="edge11" class="edge"><title>Node121&#45;&gt;Node115</title>
<path fill="none" stroke="midnightblue" d="M507.014,-304.808C523.043,-302.772 540.356,-300.574 556.828,-298.482"/>
<polygon fill="midnightblue" stroke="midnightblue" points="557.476,-301.928 566.956,-297.196 556.594,-294.984 557.476,-301.928"/>
</g>
<!-- Node122&#45;&gt;Node115 -->
<g id="edge13" class="edge"><title>Node122&#45;&gt;Node115</title>
<path fill="none" stroke="midnightblue" d="M488.684,-387.832C498.896,-383.449 509.498,-378.425 519,-373 549.783,-355.425 581.895,-330.712 603.893,-312.641"/>
<polygon fill="midnightblue" stroke="midnightblue" points="606.349,-315.151 611.805,-306.069 601.876,-309.766 606.349,-315.151"/>
</g>
<!-- Node123&#45;&gt;Node115 -->
<g id="edge15" class="edge"><title>Node123&#45;&gt;Node115</title>
<path fill="none" stroke="midnightblue" d="M303.278,-198.859C356.691,-180.313 449.487,-157.682 519,-192 542.594,-203.648 535.712,-221.102 555,-239 565.95,-249.161 579.193,-258.611 591.561,-266.498"/>
<polygon fill="midnightblue" stroke="midnightblue" points="590.023,-269.662 600.367,-271.953 593.709,-263.712 590.023,-269.662"/>
</g>
<!-- Node123&#45;&gt;Node118 -->
<g id="edge16" class="edge"><title>Node123&#45;&gt;Node118</title>
<path fill="none" stroke="midnightblue" d="M325.23,-217.079C338.321,-217.297 352.189,-217.528 365.597,-217.752"/>
<polygon fill="midnightblue" stroke="midnightblue" points="365.683,-221.253 375.74,-217.921 365.8,-214.254 365.683,-221.253"/>
</g>
<!-- Node123&#45;&gt;Node120 -->
<g id="edge17" class="edge"><title>Node123&#45;&gt;Node120</title>
<path fill="none" stroke="midnightblue" d="M321.234,-233.075C335.273,-237.006 350.154,-241.16 364,-245 373.064,-247.514 382.737,-250.181 392.048,-252.741"/>
<polygon fill="midnightblue" stroke="midnightblue" points="391.394,-256.191 401.964,-255.464 393.248,-249.441 391.394,-256.191"/>
</g>
<!-- Node123&#45;&gt;Node121 -->
<g id="edge18" class="edge"><title>Node123&#45;&gt;Node121</title>
<path fill="none" stroke="midnightblue" d="M313.146,-233.121C318.367,-235.736 323.422,-238.687 328,-242 348.47,-256.812 343.322,-271.48 364,-286 366.651,-287.862 369.443,-289.606 372.33,-291.241"/>
<polygon fill="midnightblue" stroke="midnightblue" points="370.733,-294.355 381.226,-295.818 373.935,-288.131 370.733,-294.355"/>
</g>
<!-- Node124&#45;&gt;Node117 -->
<g id="edge23" class="edge"><title>Node124&#45;&gt;Node117</title>
<path fill="none" stroke="midnightblue" d="M328.007,-94.1547C416.041,-98.5781 574.768,-107.613 710,-121 719.366,-121.927 729.178,-123.033 738.897,-124.211"/>
<polygon fill="midnightblue" stroke="midnightblue" points="738.613,-127.702 748.968,-125.46 739.475,-120.756 738.613,-127.702"/>
</g>
<!-- Node124&#45;&gt;Node125 -->
<g id="edge20" class="edge"><title>Node124&#45;&gt;Node125</title>
<path fill="none" stroke="midnightblue" d="M328.037,-74.866C347.312,-70.2615 368.056,-65.3061 386.414,-60.9205"/>
<polygon fill="midnightblue" stroke="midnightblue" points="387.431,-64.2762 396.344,-58.5484 385.804,-57.4678 387.431,-64.2762"/>
</g>
<!-- Node126 -->
<g id="node15" class="node"><title>Node126</title>
<g id="a_node15"><a xlink:href="namespacemessages.html#a82dddaab795b78b3d39e1ff1aab2f665" target="_top" xlink:title="Returns the memory usage in kilobytes. ">
<polygon fill="white" stroke="black" points="555,-40.5 555,-61.5 710,-61.5 710,-40.5 555,-40.5"/>
<text text-anchor="middle" x="632.5" y="-47.9" font-family="Ubuntu Mono" font-size="12.00">messages::get_mem_usage</text>
</a>
</g>
</g>
<!-- Node125&#45;&gt;Node126 -->
<g id="edge21" class="edge"><title>Node125&#45;&gt;Node126</title>
<path fill="none" stroke="midnightblue" d="M495.147,-48.8357C510.434,-49.0783 527.551,-49.35 544.356,-49.6168"/>
<polygon fill="midnightblue" stroke="midnightblue" points="544.706,-53.1227 554.761,-49.7819 544.817,-46.1236 544.706,-53.1227"/>
</g>
<!-- Node127 -->
<g id="node16" class="node"><title>Node127</title>
<g id="a_node16"><a xlink:href="namespacemessages.html#a61fd0b51b5e37d58fdc993c01792a3fd" target="_top" xlink:title="Returns the time. ">
<polygon fill="white" stroke="black" points="567,-0.5 567,-21.5 698,-21.5 698,-0.5 567,-0.5"/>
<text text-anchor="middle" x="632.5" y="-7.9" font-family="Ubuntu Mono" font-size="12.00">messages::get_clock</text>
</a>
</g>
</g>
<!-- Node125&#45;&gt;Node127 -->
<g id="edge22" class="edge"><title>Node125&#45;&gt;Node127</title>
<path fill="none" stroke="midnightblue" d="M495.147,-37.6934C517.702,-33.2779 544.244,-28.0819 567.887,-23.4534"/>
<polygon fill="midnightblue" stroke="midnightblue" points="568.681,-26.8645 577.822,-21.5084 567.336,-19.9949 568.681,-26.8645"/>
</g>
</g>
</svg>
