<?xml version="1.0" encoding="UTF-8" standalone="no"?>
<!DOCTYPE svg PUBLIC "-//W3C//DTD SVG 1.1//EN"
 "http://www.w3.org/Graphics/SVG/1.1/DTD/svg11.dtd">
<!-- Generated by graphviz version 2.38.0 (20140413.2041)
 -->
<!-- Title: vac::calc_vac Pages: 1 -->
<svg width="562pt" height="30pt"
 viewBox="0.00 0.00 562.00 30.00" xmlns="http://www.w3.org/2000/svg" xmlns:xlink="http://www.w3.org/1999/xlink">
<g id="graph0" class="graph" transform="scale(1 1) rotate(0) translate(4 26)">
<title>vac::calc_vac</title>
<polygon fill="white" stroke="none" points="-4,4 -4,-26 558,-26 558,4 -4,4"/>
<!-- Node6 -->
<g id="node1" class="node"><title>Node6</title>
<polygon fill="#bfbfbf" stroke="black" points="0,-0.5 0,-21.5 95,-21.5 95,-0.5 0,-0.5"/>
<text text-anchor="middle" x="47.5" y="-7.9" font-family="Ubuntu Mono" font-size="12.00">vac::calc_vac</text>
</g>
<!-- Node7 -->
<g id="node2" class="node"><title>Node7</title>
<g id="a_node2"><a xlink:href="namespacedriver__x.html#ad3924b3d66f336f0a9a9559eafffec8e" target="_top" xlink:title="driver_x::run_driver_x_2">
<polygon fill="white" stroke="black" points="131,-0.5 131,-21.5 292,-21.5 292,-0.5 131,-0.5"/>
<text text-anchor="middle" x="211.5" y="-7.9" font-family="Ubuntu Mono" font-size="12.00">driver_x::run_driver_x_2</text>
</a>
</g>
</g>
<!-- Node6&#45;&gt;Node7 -->
<g id="edge1" class="edge"><title>Node6&#45;&gt;Node7</title>
<path fill="none" stroke="midnightblue" d="M105.51,-11C113.7,-11 122.25,-11 130.781,-11"/>
<polygon fill="midnightblue" stroke="midnightblue" points="105.357,-7.5001 95.3571,-11 105.357,-14.5001 105.357,-7.5001"/>
</g>
<!-- Node8 -->
<g id="node3" class="node"><title>Node8</title>
<g id="a_node3"><a xlink:href="namespacedriver__x.html#ada3d72a0929daaa5e3da585246d62281" target="_top" xlink:title="driver_x::run_driver_x">
<polygon fill="white" stroke="black" points="328,-0.5 328,-21.5 477,-21.5 477,-0.5 328,-0.5"/>
<text text-anchor="middle" x="402.5" y="-7.9" font-family="Ubuntu Mono" font-size="12.00">driver_x::run_driver_x</text>
</a>
</g>
</g>
<!-- Node7&#45;&gt;Node8 -->
<g id="edge2" class="edge"><title>Node7&#45;&gt;Node8</title>
<path fill="none" stroke="midnightblue" d="M302.123,-11C310.692,-11 319.314,-11 327.708,-11"/>
<polygon fill="midnightblue" stroke="midnightblue" points="302.105,-7.5001 292.105,-11 302.105,-14.5001 302.105,-7.5001"/>
</g>
<!-- Node9 -->
<g id="node4" class="node"><title>Node9</title>
<g id="a_node4"><a xlink:href="PB3D_8f90.html#afaee01f014ab3398eecac996b2795fd2" target="_top" xlink:title="pb3d">
<polygon fill="white" stroke="black" points="513,-0.5 513,-21.5 554,-21.5 554,-0.5 513,-0.5"/>
<text text-anchor="middle" x="533.5" y="-7.9" font-family="Ubuntu Mono" font-size="12.00">pb3d</text>
</a>
</g>
</g>
<!-- Node8&#45;&gt;Node9 -->
<g id="edge3" class="edge"><title>Node8&#45;&gt;Node9</title>
<path fill="none" stroke="midnightblue" d="M487.141,-11C496.656,-11 505.56,-11 512.916,-11"/>
<polygon fill="midnightblue" stroke="midnightblue" points="487.044,-7.5001 477.044,-11 487.044,-14.5001 487.044,-7.5001"/>
</g>
</g>
</svg>
