<?xml version="1.0" encoding="UTF-8" standalone="no"?>
<!DOCTYPE svg PUBLIC "-//W3C//DTD SVG 1.1//EN"
 "http://www.w3.org/Graphics/SVG/1.1/DTD/svg11.dtd">
<!-- Generated by graphviz version 2.38.0 (20140413.2041)
 -->
<!-- Title: input_utilities::get_int Pages: 1 -->
<svg width="843pt" height="148pt"
 viewBox="0.00 0.00 843.00 148.00" xmlns="http://www.w3.org/2000/svg" xmlns:xlink="http://www.w3.org/1999/xlink">
<g id="graph0" class="graph" transform="scale(1 1) rotate(0) translate(4 144)">
<title>input_utilities::get_int</title>
<polygon fill="white" stroke="none" points="-4,4 -4,-144 839,-144 839,4 -4,4"/>
<!-- Node16 -->
<g id="node1" class="node"><title>Node16</title>
<polygon fill="#bfbfbf" stroke="black" points="0,-58.5 0,-79.5 161,-79.5 161,-58.5 0,-58.5"/>
<text text-anchor="middle" x="80.5" y="-65.9" font-family="Ubuntu Mono" font-size="12.00">input_utilities::get_int</text>
</g>
<!-- Node17 -->
<g id="node2" class="node"><title>Node17</title>
<g id="a_node2"><a xlink:href="namespacestr__utilities.html#a0b97e51770725a3e98ed393d26681414" target="_top" xlink:title="str_utilities::i2str">
<polygon fill="white" stroke="black" points="197,-118.5 197,-139.5 334,-139.5 334,-118.5 197,-118.5"/>
<text text-anchor="middle" x="265.5" y="-125.9" font-family="Ubuntu Mono" font-size="12.00">str_utilities::i2str</text>
</a>
</g>
</g>
<!-- Node16&#45;&gt;Node17 -->
<g id="edge1" class="edge"><title>Node16&#45;&gt;Node17</title>
<path fill="none" stroke="midnightblue" d="M110.81,-79.5622C134.083,-87.8492 167.502,-99.5273 197,-109 203.646,-111.134 210.686,-113.311 217.613,-115.406"/>
<polygon fill="midnightblue" stroke="midnightblue" points="217.039,-118.888 227.623,-118.402 219.047,-112.182 217.039,-118.888"/>
</g>
<!-- Node18 -->
<g id="node3" class="node"><title>Node18</title>
<g id="a_node3"><a xlink:href="namespacemessages.html#a2a1154de25763d4894275ff4307b6862" target="_top" xlink:title="messages::stop_time">
<polygon fill="white" stroke="black" points="200,-78.5 200,-99.5 331,-99.5 331,-78.5 200,-78.5"/>
<text text-anchor="middle" x="265.5" y="-85.9" font-family="Ubuntu Mono" font-size="12.00">messages::stop_time</text>
</a>
</g>
</g>
<!-- Node16&#45;&gt;Node18 -->
<g id="edge2" class="edge"><title>Node16&#45;&gt;Node18</title>
<path fill="none" stroke="midnightblue" d="M161.234,-77.7141C170.712,-78.75 180.362,-79.8046 189.767,-80.8324"/>
<polygon fill="midnightblue" stroke="midnightblue" points="189.535,-84.3279 199.856,-81.9351 190.296,-77.3693 189.535,-84.3279"/>
</g>
<!-- Node19 -->
<g id="node4" class="node"><title>Node19</title>
<g id="a_node4"><a xlink:href="namespacemessages.html#aa4a8d01563e92558e8a0875b075ec54c" target="_top" xlink:title="messages::writo">
<polygon fill="white" stroke="black" points="370,-39.5 370,-60.5 477,-60.5 477,-39.5 370,-39.5"/>
<text text-anchor="middle" x="423.5" y="-46.9" font-family="Ubuntu Mono" font-size="12.00">messages::writo</text>
</a>
</g>
</g>
<!-- Node16&#45;&gt;Node19 -->
<g id="edge9" class="edge"><title>Node16&#45;&gt;Node19</title>
<path fill="none" stroke="midnightblue" d="M161.019,-64.5693C221.603,-61.1937 303.86,-56.6104 359.828,-53.492"/>
<polygon fill="midnightblue" stroke="midnightblue" points="360.171,-56.9784 369.961,-52.9274 359.782,-49.9892 360.171,-56.9784"/>
</g>
<!-- Node23 -->
<g id="node8" class="node"><title>Node23</title>
<g id="a_node8"><a xlink:href="namespacemessages.html#ad997c3dff64c512e0070ce8816c28e7f" target="_top" xlink:title="messages::start_time">
<polygon fill="white" stroke="black" points="197,-0.5 197,-21.5 334,-21.5 334,-0.5 197,-0.5"/>
<text text-anchor="middle" x="265.5" y="-7.9" font-family="Ubuntu Mono" font-size="12.00">messages::start_time</text>
</a>
</g>
</g>
<!-- Node16&#45;&gt;Node23 -->
<g id="edge7" class="edge"><title>Node16&#45;&gt;Node23</title>
<path fill="none" stroke="midnightblue" d="M114.64,-58.4966C144.603,-49.0001 188.896,-34.9619 221.562,-24.6087"/>
<polygon fill="midnightblue" stroke="midnightblue" points="222.823,-27.8809 231.298,-21.5231 220.708,-21.208 222.823,-27.8809"/>
</g>
<!-- Node18&#45;&gt;Node19 -->
<g id="edge3" class="edge"><title>Node18&#45;&gt;Node19</title>
<path fill="none" stroke="midnightblue" d="M308.716,-78.446C327.705,-73.6987 350.307,-68.0482 370.344,-63.0389"/>
<polygon fill="midnightblue" stroke="midnightblue" points="371.398,-66.3833 380.25,-60.5624 369.7,-59.5923 371.398,-66.3833"/>
</g>
<!-- Node20 -->
<g id="node5" class="node"><title>Node20</title>
<g id="a_node5"><a xlink:href="namespacemessages.html#a82dddaab795b78b3d39e1ff1aab2f665" target="_top" xlink:title="messages::get_mem_usage">
<polygon fill="white" stroke="black" points="513,-59.5 513,-80.5 668,-80.5 668,-59.5 513,-59.5"/>
<text text-anchor="middle" x="590.5" y="-66.9" font-family="Ubuntu Mono" font-size="12.00">messages::get_mem_usage</text>
</a>
</g>
</g>
<!-- Node19&#45;&gt;Node20 -->
<g id="edge4" class="edge"><title>Node19&#45;&gt;Node20</title>
<path fill="none" stroke="midnightblue" d="M477.161,-56.3831C485.452,-57.3881 494.208,-58.4495 503.025,-59.5182"/>
<polygon fill="midnightblue" stroke="midnightblue" points="502.635,-62.9965 512.984,-60.7253 503.478,-56.0474 502.635,-62.9965"/>
</g>
<!-- Node21 -->
<g id="node6" class="node"><title>Node21</title>
<g id="a_node6"><a xlink:href="messages_8f90.html#a6d15f28783f95a7a4b2a44185619792f" target="_top" xlink:title="format_str">
<polygon fill="white" stroke="black" points="552,-19.5 552,-40.5 629,-40.5 629,-19.5 552,-19.5"/>
<text text-anchor="middle" x="590.5" y="-26.9" font-family="Ubuntu Mono" font-size="12.00">format_str</text>
</a>
</g>
</g>
<!-- Node19&#45;&gt;Node21 -->
<g id="edge5" class="edge"><title>Node19&#45;&gt;Node21</title>
<path fill="none" stroke="midnightblue" d="M477.161,-43.6169C497.977,-41.0937 521.722,-38.2155 542.002,-35.7573"/>
<polygon fill="midnightblue" stroke="midnightblue" points="542.448,-39.229 551.954,-34.551 541.606,-32.2798 542.448,-39.229"/>
</g>
<!-- Node22 -->
<g id="node7" class="node"><title>Node22</title>
<g id="a_node7"><a xlink:href="namespacemessages.html#a61fd0b51b5e37d58fdc993c01792a3fd" target="_top" xlink:title="messages::get_clock">
<polygon fill="white" stroke="black" points="704,-19.5 704,-40.5 835,-40.5 835,-19.5 704,-19.5"/>
<text text-anchor="middle" x="769.5" y="-26.9" font-family="Ubuntu Mono" font-size="12.00">messages::get_clock</text>
</a>
</g>
</g>
<!-- Node21&#45;&gt;Node22 -->
<g id="edge6" class="edge"><title>Node21&#45;&gt;Node22</title>
<path fill="none" stroke="midnightblue" d="M629.037,-30C647.869,-30 671.372,-30 693.685,-30"/>
<polygon fill="midnightblue" stroke="midnightblue" points="693.832,-33.5001 703.832,-30 693.832,-26.5001 693.832,-33.5001"/>
</g>
<!-- Node23&#45;&gt;Node19 -->
<g id="edge8" class="edge"><title>Node23&#45;&gt;Node19</title>
<path fill="none" stroke="midnightblue" d="M308.716,-21.554C327.705,-26.3013 350.307,-31.9518 370.344,-36.9611"/>
<polygon fill="midnightblue" stroke="midnightblue" points="369.7,-40.4077 380.25,-39.4376 371.398,-33.6167 369.7,-40.4077"/>
</g>
</g>
</svg>
