<?xml version="1.0" encoding="UTF-8" standalone="no"?>
<!DOCTYPE svg PUBLIC "-//W3C//DTD SVG 1.1//EN"
 "http://www.w3.org/Graphics/SVG/1.1/DTD/svg11.dtd">
<!-- Generated by graphviz version 2.38.0 (20140413.2041)
 -->
<!-- Title: x_vars::dealloc_x_2 Pages: 1 -->
<svg width="503pt" height="109pt"
 viewBox="0.00 0.00 503.00 109.00" xmlns="http://www.w3.org/2000/svg" xmlns:xlink="http://www.w3.org/1999/xlink">
<g id="graph0" class="graph" transform="scale(1 1) rotate(0) translate(4 105)">
<title>x_vars::dealloc_x_2</title>
<polygon fill="white" stroke="none" points="-4,4 -4,-105 499,-105 499,4 -4,4"/>
<!-- Node12 -->
<g id="node1" class="node"><title>Node12</title>
<polygon fill="#bfbfbf" stroke="black" points="0,-40.5 0,-61.5 131,-61.5 131,-40.5 0,-40.5"/>
<text text-anchor="middle" x="65.5" y="-47.9" font-family="Ubuntu Mono" font-size="12.00">x_vars::dealloc_x_2</text>
</g>
<!-- Node13 -->
<g id="node2" class="node"><title>Node13</title>
<g id="a_node2"><a xlink:href="namespacemessages.html#a82dddaab795b78b3d39e1ff1aab2f665" target="_top" xlink:title="Returns the memory usage in kilobytes. ">
<polygon fill="white" stroke="black" points="340,-79.5 340,-100.5 495,-100.5 495,-79.5 340,-79.5"/>
<text text-anchor="middle" x="417.5" y="-86.9" font-family="Ubuntu Mono" font-size="12.00">messages::get_mem_usage</text>
</a>
</g>
</g>
<!-- Node12&#45;&gt;Node13 -->
<g id="edge1" class="edge"><title>Node12&#45;&gt;Node13</title>
<path fill="none" stroke="midnightblue" d="M113.341,-61.5376C130.184,-65.0039 149.375,-68.5841 167,-71 220.842,-78.3802 281.644,-83.0847 329.745,-85.9661"/>
<polygon fill="midnightblue" stroke="midnightblue" points="329.622,-89.4648 339.809,-86.5536 330.03,-82.4767 329.622,-89.4648"/>
</g>
<!-- Node14 -->
<g id="node3" class="node"><title>Node14</title>
<g id="a_node3"><a xlink:href="namespacemessages.html#aa4a8d01563e92558e8a0875b075ec54c" target="_top" xlink:title="Write output to file identified by output_i. ">
<polygon fill="white" stroke="black" points="182,-40.5 182,-61.5 289,-61.5 289,-40.5 182,-40.5"/>
<text text-anchor="middle" x="235.5" y="-47.9" font-family="Ubuntu Mono" font-size="12.00">messages::writo</text>
</a>
</g>
</g>
<!-- Node12&#45;&gt;Node14 -->
<g id="edge2" class="edge"><title>Node12&#45;&gt;Node14</title>
<path fill="none" stroke="midnightblue" d="M131.453,-51C144.64,-51 158.489,-51 171.603,-51"/>
<polygon fill="midnightblue" stroke="midnightblue" points="171.937,-54.5001 181.937,-51 171.937,-47.5001 171.937,-54.5001"/>
</g>
<!-- Node16 -->
<g id="node5" class="node"><title>Node16</title>
<g id="a_node5"><a xlink:href="namespacestr__utilities.html#a0b97e51770725a3e98ed393d26681414" target="_top" xlink:title="Convert an integer to string. ">
<polygon fill="white" stroke="black" points="167,-0.5 167,-21.5 304,-21.5 304,-0.5 167,-0.5"/>
<text text-anchor="middle" x="235.5" y="-7.9" font-family="Ubuntu Mono" font-size="12.00">str_utilities::i2str</text>
</a>
</g>
</g>
<!-- Node12&#45;&gt;Node16 -->
<g id="edge5" class="edge"><title>Node12&#45;&gt;Node16</title>
<path fill="none" stroke="midnightblue" d="M110.64,-40.4905C132.066,-35.3892 157.995,-29.2155 180.581,-23.8378"/>
<polygon fill="midnightblue" stroke="midnightblue" points="181.446,-27.2298 190.363,-21.5087 179.825,-20.4202 181.446,-27.2298"/>
</g>
<!-- Node14&#45;&gt;Node13 -->
<g id="edge3" class="edge"><title>Node14&#45;&gt;Node13</title>
<path fill="none" stroke="midnightblue" d="M285.211,-61.554C307.622,-66.4097 334.394,-72.2103 357.899,-77.3031"/>
<polygon fill="midnightblue" stroke="midnightblue" points="357.236,-80.7406 367.75,-79.4376 358.718,-73.8994 357.236,-80.7406"/>
</g>
<!-- Node15 -->
<g id="node4" class="node"><title>Node15</title>
<g id="a_node4"><a xlink:href="namespacemessages.html#a61fd0b51b5e37d58fdc993c01792a3fd" target="_top" xlink:title="Returns the time. ">
<polygon fill="white" stroke="black" points="352,-39.5 352,-60.5 483,-60.5 483,-39.5 352,-39.5"/>
<text text-anchor="middle" x="417.5" y="-46.9" font-family="Ubuntu Mono" font-size="12.00">messages::get_clock</text>
</a>
</g>
</g>
<!-- Node14&#45;&gt;Node15 -->
<g id="edge4" class="edge"><title>Node14&#45;&gt;Node15</title>
<path fill="none" stroke="midnightblue" d="M289.047,-50.7081C305.442,-50.617 323.855,-50.5147 341.479,-50.4168"/>
<polygon fill="midnightblue" stroke="midnightblue" points="341.763,-53.9154 351.743,-50.3598 341.724,-46.9155 341.763,-53.9154"/>
</g>
</g>
</svg>
