<?xml version="1.0" encoding="UTF-8" standalone="no"?>
<!DOCTYPE svg PUBLIC "-//W3C//DTD SVG 1.1//EN"
 "http://www.w3.org/Graphics/SVG/1.1/DTD/svg11.dtd">
<!-- Generated by graphviz version 2.43.0 (0)
 -->
<!-- Title: vmec_vars::dealloc_vmec Pages: 1 -->
<svg width="547pt" height="110pt"
 viewBox="0.00 0.00 547.00 110.00" xmlns="http://www.w3.org/2000/svg" xmlns:xlink="http://www.w3.org/1999/xlink">
<g id="graph0" class="graph" transform="scale(1 1) rotate(0) translate(4 106)">
<title>vmec_vars::dealloc_vmec</title>
<polygon fill="white" stroke="transparent" points="-4,4 -4,-106 543,-106 543,4 -4,4"/>
<!-- Node1 -->
<g id="node1" class="node">
<title>Node1</title>
<g id="a_node1"><a xlink:title="Deallocates VMEC quantities that are not used anymore.">
<polygon fill="#bfbfbf" stroke="black" points="0,-40.5 0,-61.5 170,-61.5 170,-40.5 0,-40.5"/>
<text text-anchor="middle" x="85" y="-47.9" font-family="Ubuntu Mono" font-size="12.00">vmec_vars::dealloc_vmec</text>
</a>
</g>
</g>
<!-- Node2 -->
<g id="node2" class="node">
<title>Node2</title>
<g id="a_node2"><a xlink:href="namespacemessages.html#a82dddaab795b78b3d39e1ff1aab2f665" target="_top" xlink:title="Returns the memory usage in kilobytes.">
<polygon fill="white" stroke="black" points="356,-80.5 356,-101.5 539,-101.5 539,-80.5 356,-80.5"/>
<text text-anchor="middle" x="447.5" y="-87.9" font-family="Ubuntu Mono" font-size="12.00">messages::get_mem_usage</text>
</a>
</g>
</g>
<!-- Node1&#45;&gt;Node2 -->
<g id="edge1" class="edge">
<title>Node1&#45;&gt;Node2</title>
<path fill="none" stroke="midnightblue" d="M143.24,-61.52C163.06,-64.91 185.46,-68.44 206,-71 251.71,-76.7 302.51,-81.19 345.6,-84.46"/>
<polygon fill="midnightblue" stroke="midnightblue" points="345.58,-87.97 355.81,-85.23 346.1,-80.99 345.58,-87.97"/>
</g>
<!-- Node3 -->
<g id="node3" class="node">
<title>Node3</title>
<g id="a_node3"><a xlink:href="namespacestr__utilities.html#a0b97e51770725a3e98ed393d26681414" target="_top" xlink:title="Convert an integer to string.">
<polygon fill="white" stroke="black" points="390.5,-0.5 390.5,-21.5 504.5,-21.5 504.5,-0.5 390.5,-0.5"/>
<text text-anchor="middle" x="447.5" y="-7.9" font-family="Ubuntu Mono" font-size="12.00">str_utilities::i2str</text>
</a>
</g>
</g>
<!-- Node1&#45;&gt;Node3 -->
<g id="edge2" class="edge">
<title>Node1&#45;&gt;Node3</title>
<path fill="none" stroke="midnightblue" d="M143.24,-40.48C163.06,-37.09 185.46,-33.56 206,-31 264.8,-23.67 332.04,-18.33 380.45,-15.03"/>
<polygon fill="midnightblue" stroke="midnightblue" points="380.74,-18.51 390.48,-14.35 380.27,-11.53 380.74,-18.51"/>
</g>
<!-- Node4 -->
<g id="node4" class="node">
<title>Node4</title>
<g id="a_node4"><a xlink:href="namespacemessages.html#aa4a8d01563e92558e8a0875b075ec54c" target="_top" xlink:title="Write output to file identified by output_i.">
<polygon fill="white" stroke="black" points="206,-40.5 206,-61.5 320,-61.5 320,-40.5 206,-40.5"/>
<text text-anchor="middle" x="263" y="-47.9" font-family="Ubuntu Mono" font-size="12.00">messages::writo</text>
</a>
</g>
</g>
<!-- Node1&#45;&gt;Node4 -->
<g id="edge3" class="edge">
<title>Node1&#45;&gt;Node4</title>
<path fill="none" stroke="midnightblue" d="M170.13,-51C178.59,-51 187.08,-51 195.32,-51"/>
<polygon fill="midnightblue" stroke="midnightblue" points="195.58,-54.5 205.58,-51 195.58,-47.5 195.58,-54.5"/>
</g>
<!-- Node4&#45;&gt;Node2 -->
<g id="edge5" class="edge">
<title>Node4&#45;&gt;Node2</title>
<path fill="none" stroke="midnightblue" d="M311.95,-61.51C335.43,-66.66 363.9,-72.9 388.59,-78.31"/>
<polygon fill="midnightblue" stroke="midnightblue" points="388.04,-81.77 398.55,-80.49 389.54,-74.93 388.04,-81.77"/>
</g>
<!-- Node4&#45;&gt;Node3 -->
<g id="edge6" class="edge">
<title>Node4&#45;&gt;Node3</title>
<path fill="none" stroke="midnightblue" d="M311.95,-40.49C335.43,-35.34 363.9,-29.1 388.59,-23.69"/>
<polygon fill="midnightblue" stroke="midnightblue" points="389.54,-27.07 398.55,-21.51 388.04,-20.23 389.54,-27.07"/>
</g>
<!-- Node5 -->
<g id="node5" class="node">
<title>Node5</title>
<g id="a_node5"><a xlink:href="namespacemessages.html#a61fd0b51b5e37d58fdc993c01792a3fd" target="_top" xlink:title="Returns the time.">
<polygon fill="white" stroke="black" points="377.5,-40.5 377.5,-61.5 517.5,-61.5 517.5,-40.5 377.5,-40.5"/>
<text text-anchor="middle" x="447.5" y="-47.9" font-family="Ubuntu Mono" font-size="12.00">messages::get_clock</text>
</a>
</g>
</g>
<!-- Node4&#45;&gt;Node5 -->
<g id="edge4" class="edge">
<title>Node4&#45;&gt;Node5</title>
<path fill="none" stroke="midnightblue" d="M320.25,-51C335.02,-51 351.24,-51 366.99,-51"/>
<polygon fill="midnightblue" stroke="midnightblue" points="367.25,-54.5 377.25,-51 367.25,-47.5 367.25,-54.5"/>
</g>
</g>
</svg>
