<?xml version="1.0" encoding="UTF-8" standalone="no"?>
<!DOCTYPE svg PUBLIC "-//W3C//DTD SVG 1.1//EN"
 "http://www.w3.org/Graphics/SVG/1.1/DTD/svg11.dtd">
<!-- Generated by graphviz version 2.43.0 (0)
 -->
<!-- Title: x_ops::setup_modes Pages: 1 -->
<svg width="606pt" height="198pt"
 viewBox="0.00 0.00 606.00 198.00" xmlns="http://www.w3.org/2000/svg" xmlns:xlink="http://www.w3.org/1999/xlink">
<g id="graph0" class="graph" transform="scale(1 1) rotate(0) translate(4 194)">
<title>x_ops::setup_modes</title>
<polygon fill="white" stroke="transparent" points="-4,4 -4,-194 602,-194 602,4 -4,4"/>
<!-- Node1 -->
<g id="node1" class="node">
<title>Node1</title>
<g id="a_node1"><a xlink:title="Sets up some variables concerning the mode numbers.">
<polygon fill="#bfbfbf" stroke="black" points="461,-78.5 461,-99.5 598,-99.5 598,-78.5 461,-78.5"/>
<text text-anchor="middle" x="529.5" y="-85.9" font-family="Ubuntu Mono" font-size="12.00">x_ops::setup_modes</text>
</a>
</g>
</g>
<!-- Node2 -->
<g id="node2" class="node">
<title>Node2</title>
<g id="a_node2"><a xlink:href="namespacedriver__post.html#af527706d4e696d4e507443d2f74194ef" target="_top" xlink:title="Initializes the POST driver.">
<polygon fill="white" stroke="black" points="83,-168.5 83,-189.5 223,-189.5 223,-168.5 83,-168.5"/>
<text text-anchor="middle" x="153" y="-175.9" font-family="Ubuntu Mono" font-size="12.00">driver_post::init_post</text>
</a>
</g>
</g>
<!-- Node1&#45;&gt;Node2 -->
<g id="edge1" class="edge">
<title>Node1&#45;&gt;Node2</title>
<path fill="none" stroke="midnightblue" d="M510.8,-106.53C491.52,-124.36 458.89,-151.02 425,-163 359.35,-186.21 279.21,-187.96 223.17,-185.29"/>
<polygon fill="midnightblue" stroke="midnightblue" points="513.36,-108.92 518.21,-99.5 508.54,-103.85 513.36,-108.92"/>
</g>
<!-- Node4 -->
<g id="node4" class="node">
<title>Node4</title>
<g id="a_node4"><a xlink:href="namespacerich__ops.html#a9fbbda93eab8973d33063e277c489e7b" target="_top" xlink:title="Initialize Richardson extrapolation system.">
<polygon fill="white" stroke="black" points="93,-39.5 93,-60.5 213,-60.5 213,-39.5 93,-39.5"/>
<text text-anchor="middle" x="153" y="-46.9" font-family="Ubuntu Mono" font-size="12.00">rich_ops::init_rich</text>
</a>
</g>
</g>
<!-- Node1&#45;&gt;Node4 -->
<g id="edge3" class="edge">
<title>Node1&#45;&gt;Node4</title>
<path fill="none" stroke="midnightblue" d="M470.49,-76.51C455.71,-73.68 439.82,-70.94 425,-69 352.4,-59.48 268.19,-54.52 213.15,-52.09"/>
<polygon fill="midnightblue" stroke="midnightblue" points="470.03,-79.99 480.51,-78.47 471.37,-73.12 470.03,-79.99"/>
</g>
<!-- Node6 -->
<g id="node6" class="node">
<title>Node6</title>
<g id="a_node6"><a xlink:href="namespacedriver__sol.html#ad3b1765b3ecc5f82129bfc683ffc6c5c" target="_top" xlink:title="Main driver of PB3D solution part.">
<polygon fill="white" stroke="black" points="259,-0.5 259,-21.5 425,-21.5 425,-0.5 259,-0.5"/>
<text text-anchor="middle" x="342" y="-7.9" font-family="Ubuntu Mono" font-size="12.00">driver_sol::run_driver_sol</text>
</a>
</g>
</g>
<!-- Node1&#45;&gt;Node6 -->
<g id="edge5" class="edge">
<title>Node1&#45;&gt;Node6</title>
<path fill="none" stroke="midnightblue" d="M501.48,-73.49C480.95,-62.12 451.78,-46.84 425,-36 411.48,-30.53 396.29,-25.58 382.7,-21.56"/>
<polygon fill="midnightblue" stroke="midnightblue" points="499.83,-76.58 510.27,-78.41 503.25,-70.47 499.83,-76.58"/>
</g>
<!-- Node7 -->
<g id="node7" class="node">
<title>Node7</title>
<g id="a_node7"><a xlink:href="namespacedriver__x.html#ada3d72a0929daaa5e3da585246d62281" target="_top" xlink:title="Main driver of PB3D perturbation part.">
<polygon fill="white" stroke="black" points="269,-78.5 269,-99.5 415,-99.5 415,-78.5 269,-78.5"/>
<text text-anchor="middle" x="342" y="-85.9" font-family="Ubuntu Mono" font-size="12.00">driver_x::run_driver_x</text>
</a>
</g>
</g>
<!-- Node1&#45;&gt;Node7 -->
<g id="edge7" class="edge">
<title>Node1&#45;&gt;Node7</title>
<path fill="none" stroke="midnightblue" d="M450.56,-89C438.86,-89 426.83,-89 415.26,-89"/>
<polygon fill="midnightblue" stroke="midnightblue" points="450.74,-92.5 460.74,-89 450.74,-85.5 450.74,-92.5"/>
</g>
<!-- Node8 -->
<g id="node8" class="node">
<title>Node8</title>
<g id="a_node8"><a xlink:href="namespacetest.html#ac574f08ba400cd61070a6a6f13f6f7ee" target="_top" xlink:title="Tests reading of HDF5 subset.">
<polygon fill="white" stroke="black" points="274.5,-119 274.5,-153 409.5,-153 409.5,-119 274.5,-119"/>
<text text-anchor="start" x="282.5" y="-139.4" font-family="Ubuntu Mono" font-size="12.00">test::test_read_hdf5</text>
<text text-anchor="middle" x="342" y="-126.4" font-family="Ubuntu Mono" font-size="12.00">_subset</text>
</a>
</g>
</g>
<!-- Node1&#45;&gt;Node8 -->
<g id="edge9" class="edge">
<title>Node1&#45;&gt;Node8</title>
<path fill="none" stroke="midnightblue" d="M476.94,-102.06C456.1,-107.34 431.77,-113.51 409.61,-119.12"/>
<polygon fill="midnightblue" stroke="midnightblue" points="478.04,-105.4 486.87,-99.55 476.32,-98.61 478.04,-105.4"/>
</g>
<!-- Node3 -->
<g id="node3" class="node">
<title>Node3</title>
<g id="a_node3"><a xlink:href="POST_8f90.html#ac289b64ac4671fea0b4f2298ba1188a1" target="_top" xlink:title="Peeling Ballooning in 3D: postprocessing.">
<polygon fill="white" stroke="black" points="2.5,-146.5 2.5,-167.5 44.5,-167.5 44.5,-146.5 2.5,-146.5"/>
<text text-anchor="middle" x="23.5" y="-153.9" font-family="Ubuntu Mono" font-size="12.00">post</text>
</a>
</g>
</g>
<!-- Node2&#45;&gt;Node3 -->
<g id="edge2" class="edge">
<title>Node2&#45;&gt;Node3</title>
<path fill="none" stroke="midnightblue" d="M80.67,-166.69C67.4,-164.4 54.58,-162.19 44.54,-160.46"/>
<polygon fill="midnightblue" stroke="midnightblue" points="80.41,-170.2 90.86,-168.45 81.6,-163.3 80.41,-170.2"/>
</g>
<!-- Node5 -->
<g id="node5" class="node">
<title>Node5</title>
<g id="a_node5"><a xlink:href="PB3D_8f90.html#afaee01f014ab3398eecac996b2795fd2" target="_top" xlink:title="Peeling Ballooning in 3D.">
<polygon fill="white" stroke="black" points="0,-59.5 0,-80.5 47,-80.5 47,-59.5 0,-59.5"/>
<text text-anchor="middle" x="23.5" y="-66.9" font-family="Ubuntu Mono" font-size="12.00">pb3d</text>
</a>
</g>
</g>
<!-- Node4&#45;&gt;Node5 -->
<g id="edge4" class="edge">
<title>Node4&#45;&gt;Node5</title>
<path fill="none" stroke="midnightblue" d="M82.81,-60.85C69.87,-62.88 57.23,-64.87 47.04,-66.46"/>
<polygon fill="midnightblue" stroke="midnightblue" points="83.39,-64.3 92.73,-59.3 82.31,-57.39 83.39,-64.3"/>
</g>
<!-- Node6&#45;&gt;Node5 -->
<g id="edge6" class="edge">
<title>Node6&#45;&gt;Node5</title>
<path fill="none" stroke="midnightblue" d="M248.68,-6.27C198.4,-6.52 135.85,-11.51 83,-30 64.88,-36.34 47.12,-49.81 36.01,-59.36"/>
<polygon fill="midnightblue" stroke="midnightblue" points="248.89,-9.77 258.89,-6.28 248.9,-2.77 248.89,-9.77"/>
</g>
<!-- Node7&#45;&gt;Node5 -->
<g id="edge8" class="edge">
<title>Node7&#45;&gt;Node5</title>
<path fill="none" stroke="midnightblue" d="M258.54,-84.05C187.75,-79.8 90.47,-73.96 47.03,-71.35"/>
<polygon fill="midnightblue" stroke="midnightblue" points="258.59,-87.56 268.79,-84.66 259.01,-80.57 258.59,-87.56"/>
</g>
<!-- Node9 -->
<g id="node9" class="node">
<title>Node9</title>
<g id="a_node9"><a xlink:href="namespacetest.html#aca21ee464c0b1f4b617177afdde110ec" target="_top" xlink:title="Performs generic tests.">
<polygon fill="white" stroke="black" points="90,-125.5 90,-146.5 216,-146.5 216,-125.5 90,-125.5"/>
<text text-anchor="middle" x="153" y="-132.9" font-family="Ubuntu Mono" font-size="12.00">test::generic_tests</text>
</a>
</g>
</g>
<!-- Node8&#45;&gt;Node9 -->
<g id="edge10" class="edge">
<title>Node8&#45;&gt;Node9</title>
<path fill="none" stroke="midnightblue" d="M263.91,-136C247.96,-136 231.34,-136 216.01,-136"/>
<polygon fill="midnightblue" stroke="midnightblue" points="264.28,-139.5 274.28,-136 264.28,-132.5 264.28,-139.5"/>
</g>
<!-- Node9&#45;&gt;Node3 -->
<g id="edge12" class="edge">
<title>Node9&#45;&gt;Node3</title>
<path fill="none" stroke="midnightblue" d="M79.83,-147.89C66.93,-150.01 54.5,-152.06 44.7,-153.67"/>
<polygon fill="midnightblue" stroke="midnightblue" points="80.45,-151.33 89.74,-146.25 79.31,-144.43 80.45,-151.33"/>
</g>
<!-- Node9&#45;&gt;Node5 -->
<g id="edge11" class="edge">
<title>Node9&#45;&gt;Node5</title>
<path fill="none" stroke="midnightblue" d="M119.48,-121C107.88,-115.51 94.78,-109.13 83,-103 69.24,-95.84 53.99,-87.21 42.51,-80.58"/>
<polygon fill="midnightblue" stroke="midnightblue" points="118.27,-124.3 128.81,-125.38 121.25,-117.96 118.27,-124.3"/>
</g>
</g>
</svg>
