<?xml version="1.0" encoding="UTF-8" standalone="no"?>
<!DOCTYPE svg PUBLIC "-//W3C//DTD SVG 1.1//EN"
 "http://www.w3.org/Graphics/SVG/1.1/DTD/svg11.dtd">
<!-- Generated by graphviz version 2.38.0 (20140413.2041)
 -->
<!-- Title: plot_evolution Pages: 1 -->
<svg width="884pt" height="70pt"
 viewBox="0.00 0.00 884.00 70.00" xmlns="http://www.w3.org/2000/svg" xmlns:xlink="http://www.w3.org/1999/xlink">
<g id="graph0" class="graph" transform="scale(1 1) rotate(0) translate(4 66)">
<title>plot_evolution</title>
<polygon fill="white" stroke="none" points="-4,4 -4,-66 880,-66 880,4 -4,4"/>
<!-- Node8 -->
<g id="node1" class="node"><title>Node8</title>
<polygon fill="#bfbfbf" stroke="black" points="0,-20.5 0,-41.5 101,-41.5 101,-20.5 0,-20.5"/>
<text text-anchor="middle" x="50.5" y="-27.9" font-family="Ubuntu Mono" font-size="12.00">plot_evolution</text>
</g>
<!-- Node9 -->
<g id="node2" class="node"><title>Node9</title>
<g id="a_node2"><a xlink:href="namespacenum__ops.html#adcc4eacf15c931744316a004f4448b90" target="_top" xlink:title="num_ops::calc_zero\l_zhang">
<polygon fill="white" stroke="black" points="137,-14 137,-48 262,-48 262,-14 137,-14"/>
<text text-anchor="start" x="145" y="-34.4" font-family="Ubuntu Mono" font-size="12.00">num_ops::calc_zero</text>
<text text-anchor="middle" x="199.5" y="-21.4" font-family="Ubuntu Mono" font-size="12.00">_zhang</text>
</a>
</g>
</g>
<!-- Node8&#45;&gt;Node9 -->
<g id="edge1" class="edge"><title>Node8&#45;&gt;Node9</title>
<path fill="none" stroke="midnightblue" d="M111.347,-31C119.735,-31 128.369,-31 136.791,-31"/>
<polygon fill="midnightblue" stroke="midnightblue" points="111.268,-27.5001 101.267,-31 111.267,-34.5001 111.268,-27.5001"/>
</g>
<!-- Node10 -->
<g id="node3" class="node"><title>Node10</title>
<g id="a_node3"><a xlink:href="namespacex__ops.html#a25de9da6a17d73109146d0f92bdf11f3" target="_top" xlink:title="x_ops::calc_res_surf">
<polygon fill="white" stroke="black" points="298,-20.5 298,-41.5 435,-41.5 435,-20.5 298,-20.5"/>
<text text-anchor="middle" x="366.5" y="-27.9" font-family="Ubuntu Mono" font-size="12.00">x_ops::calc_res_surf</text>
</a>
</g>
</g>
<!-- Node9&#45;&gt;Node10 -->
<g id="edge2" class="edge"><title>Node9&#45;&gt;Node10</title>
<path fill="none" stroke="midnightblue" d="M272.602,-31C281.038,-31 289.621,-31 297.991,-31"/>
<polygon fill="midnightblue" stroke="midnightblue" points="272.409,-27.5001 262.409,-31 272.409,-34.5001 272.409,-27.5001"/>
</g>
<!-- Node11 -->
<g id="node4" class="node"><title>Node11</title>
<g id="a_node4"><a xlink:href="namespacedriver__post.html#af527706d4e696d4e507443d2f74194ef" target="_top" xlink:title="driver_post::init_post">
<polygon fill="white" stroke="black" points="650,-40.5 650,-61.5 799,-61.5 799,-40.5 650,-40.5"/>
<text text-anchor="middle" x="724.5" y="-47.9" font-family="Ubuntu Mono" font-size="12.00">driver_post::init_post</text>
</a>
</g>
</g>
<!-- Node10&#45;&gt;Node11 -->
<g id="edge3" class="edge"><title>Node10&#45;&gt;Node11</title>
<path fill="none" stroke="midnightblue" d="M445.61,-35.3882C506.402,-38.8035 590.181,-43.5101 649.818,-46.8605"/>
<polygon fill="midnightblue" stroke="midnightblue" points="445.479,-31.8754 435.299,-34.8089 445.087,-38.8644 445.479,-31.8754"/>
</g>
<!-- Node13 -->
<g id="node6" class="node"><title>Node13</title>
<g id="a_node6"><a xlink:href="namespacex__ops.html#a766228ae0a64f84c10521a013367cfc8" target="_top" xlink:title="x_ops::resonance_plot">
<polygon fill="white" stroke="black" points="471,-1.5 471,-22.5 614,-22.5 614,-1.5 471,-1.5"/>
<text text-anchor="middle" x="542.5" y="-8.9" font-family="Ubuntu Mono" font-size="12.00">x_ops::resonance_plot</text>
</a>
</g>
</g>
<!-- Node10&#45;&gt;Node13 -->
<g id="edge5" class="edge"><title>Node10&#45;&gt;Node13</title>
<path fill="none" stroke="midnightblue" d="M445.466,-22.4864C453.888,-21.5668 462.425,-20.6346 470.755,-19.725"/>
<polygon fill="midnightblue" stroke="midnightblue" points="444.832,-19.0348 435.271,-23.5997 445.592,-25.9934 444.832,-19.0348"/>
</g>
<!-- Node12 -->
<g id="node5" class="node"><title>Node12</title>
<g id="a_node5"><a xlink:href="POST_8f90.html#ac289b64ac4671fea0b4f2298ba1188a1" target="_top" xlink:title="post">
<polygon fill="white" stroke="black" points="835,-40.5 835,-61.5 876,-61.5 876,-40.5 835,-40.5"/>
<text text-anchor="middle" x="855.5" y="-47.9" font-family="Ubuntu Mono" font-size="12.00">post</text>
</a>
</g>
</g>
<!-- Node11&#45;&gt;Node12 -->
<g id="edge4" class="edge"><title>Node11&#45;&gt;Node12</title>
<path fill="none" stroke="midnightblue" d="M809.141,-51C818.656,-51 827.56,-51 834.916,-51"/>
<polygon fill="midnightblue" stroke="midnightblue" points="809.044,-47.5001 799.044,-51 809.044,-54.5001 809.044,-47.5001"/>
</g>
<!-- Node13&#45;&gt;Node11 -->
<g id="edge6" class="edge"><title>Node13&#45;&gt;Node11</title>
<path fill="none" stroke="midnightblue" d="M602.06,-24.688C625.562,-29.78 652.334,-35.5808 674.75,-40.4376"/>
<polygon fill="midnightblue" stroke="midnightblue" points="602.725,-21.2509 592.211,-22.554 601.243,-28.0922 602.725,-21.2509"/>
</g>
<!-- Node14 -->
<g id="node7" class="node"><title>Node14</title>
<g id="a_node7"><a xlink:href="namespacedriver__x.html#ada3d72a0929daaa5e3da585246d62281" target="_top" xlink:title="driver_x::run_driver_x">
<polygon fill="white" stroke="black" points="650,-0.5 650,-21.5 799,-21.5 799,-0.5 650,-0.5"/>
<text text-anchor="middle" x="724.5" y="-7.9" font-family="Ubuntu Mono" font-size="12.00">driver_x::run_driver_x</text>
</a>
</g>
</g>
<!-- Node13&#45;&gt;Node14 -->
<g id="edge7" class="edge"><title>Node13&#45;&gt;Node14</title>
<path fill="none" stroke="midnightblue" d="M624.383,-11.5507C632.854,-11.5036 641.435,-11.4559 649.82,-11.4093"/>
<polygon fill="midnightblue" stroke="midnightblue" points="624.105,-8.05205 614.124,-11.6076 624.143,-15.0519 624.105,-8.05205"/>
</g>
<!-- Node15 -->
<g id="node8" class="node"><title>Node15</title>
<g id="a_node8"><a xlink:href="PB3D_8f90.html#afaee01f014ab3398eecac996b2795fd2" target="_top" xlink:title="pb3d">
<polygon fill="white" stroke="black" points="835,-0.5 835,-21.5 876,-21.5 876,-0.5 835,-0.5"/>
<text text-anchor="middle" x="855.5" y="-7.9" font-family="Ubuntu Mono" font-size="12.00">pb3d</text>
</a>
</g>
</g>
<!-- Node14&#45;&gt;Node15 -->
<g id="edge8" class="edge"><title>Node14&#45;&gt;Node15</title>
<path fill="none" stroke="midnightblue" d="M809.141,-11C818.656,-11 827.56,-11 834.916,-11"/>
<polygon fill="midnightblue" stroke="midnightblue" points="809.044,-7.5001 799.044,-11 809.044,-14.5001 809.044,-7.5001"/>
</g>
</g>
</svg>
