<?xml version="1.0" encoding="UTF-8" standalone="no"?>
<!DOCTYPE svg PUBLIC "-//W3C//DTD SVG 1.1//EN"
 "http://www.w3.org/Graphics/SVG/1.1/DTD/svg11.dtd">
<!-- Generated by graphviz version 2.38.0 (20140413.2041)
 -->
<!-- Title: plot_evolution Pages: 1 -->
<svg width="646pt" height="130pt"
 viewBox="0.00 0.00 646.00 130.00" xmlns="http://www.w3.org/2000/svg" xmlns:xlink="http://www.w3.org/1999/xlink">
<g id="graph0" class="graph" transform="scale(1 1) rotate(0) translate(4 126)">
<title>plot_evolution</title>
<polygon fill="white" stroke="none" points="-4,4 -4,-126 642,-126 642,4 -4,4"/>
<!-- Node23 -->
<g id="node1" class="node"><title>Node23</title>
<polygon fill="#bfbfbf" stroke="black" points="0,-40.5 0,-61.5 101,-61.5 101,-40.5 0,-40.5"/>
<text text-anchor="middle" x="50.5" y="-47.9" font-family="Ubuntu Mono" font-size="12.00">plot_evolution</text>
</g>
<!-- Node24 -->
<g id="node2" class="node"><title>Node24</title>
<g id="a_node2"><a xlink:href="namespacemessages.html#aa4a8d01563e92558e8a0875b075ec54c" target="_top" xlink:title="messages::writo">
<polygon fill="white" stroke="black" points="155,-80.5 155,-101.5 262,-101.5 262,-80.5 155,-80.5"/>
<text text-anchor="middle" x="208.5" y="-87.9" font-family="Ubuntu Mono" font-size="12.00">messages::writo</text>
</a>
</g>
</g>
<!-- Node23&#45;&gt;Node24 -->
<g id="edge1" class="edge"><title>Node23&#45;&gt;Node24</title>
<path fill="none" stroke="midnightblue" d="M92.4872,-61.5095C112.115,-66.5422 135.813,-72.6186 156.585,-77.9448"/>
<polygon fill="midnightblue" stroke="midnightblue" points="155.96,-81.3978 166.516,-80.4913 157.699,-74.6171 155.96,-81.3978"/>
</g>
<!-- Node28 -->
<g id="node6" class="node"><title>Node28</title>
<g id="a_node6"><a xlink:href="namespacestr__utilities.html#a92ac6c0af1979df094de1caddd28ade0" target="_top" xlink:title="str_utilities::r2str">
<polygon fill="white" stroke="black" points="140,-40.5 140,-61.5 277,-61.5 277,-40.5 140,-40.5"/>
<text text-anchor="middle" x="208.5" y="-47.9" font-family="Ubuntu Mono" font-size="12.00">str_utilities::r2str</text>
</a>
</g>
</g>
<!-- Node23&#45;&gt;Node28 -->
<g id="edge5" class="edge"><title>Node23&#45;&gt;Node28</title>
<path fill="none" stroke="midnightblue" d="M101.288,-51C110.421,-51 120.15,-51 129.872,-51"/>
<polygon fill="midnightblue" stroke="midnightblue" points="129.975,-54.5001 139.975,-51 129.975,-47.5001 129.975,-54.5001"/>
</g>
<!-- Node29 -->
<g id="node7" class="node"><title>Node29</title>
<g id="a_node7"><a xlink:href="namespacestr__utilities.html#ac778d706b2e021672618939ab58fdd32" target="_top" xlink:title="str_utilities::r2strt">
<polygon fill="white" stroke="black" points="137,-0.5 137,-21.5 280,-21.5 280,-0.5 137,-0.5"/>
<text text-anchor="middle" x="208.5" y="-7.9" font-family="Ubuntu Mono" font-size="12.00">str_utilities::r2strt</text>
</a>
</g>
</g>
<!-- Node23&#45;&gt;Node29 -->
<g id="edge6" class="edge"><title>Node23&#45;&gt;Node29</title>
<path fill="none" stroke="midnightblue" d="M92.4872,-40.4905C112.115,-35.4578 135.813,-29.3814 156.585,-24.0552"/>
<polygon fill="midnightblue" stroke="midnightblue" points="157.699,-27.3829 166.516,-21.5087 155.96,-20.6022 157.699,-27.3829"/>
</g>
<!-- Node25 -->
<g id="node3" class="node"><title>Node25</title>
<g id="a_node3"><a xlink:href="namespacemessages.html#a82dddaab795b78b3d39e1ff1aab2f665" target="_top" xlink:title="messages::get_mem_usage">
<polygon fill="white" stroke="black" points="316,-100.5 316,-121.5 471,-121.5 471,-100.5 316,-100.5"/>
<text text-anchor="middle" x="393.5" y="-107.9" font-family="Ubuntu Mono" font-size="12.00">messages::get_mem_usage</text>
</a>
</g>
</g>
<!-- Node24&#45;&gt;Node25 -->
<g id="edge2" class="edge"><title>Node24&#45;&gt;Node25</title>
<path fill="none" stroke="midnightblue" d="M262.431,-96.7848C275.982,-98.2658 290.915,-99.8978 305.685,-101.512"/>
<polygon fill="midnightblue" stroke="midnightblue" points="305.544,-105.017 315.865,-102.625 306.304,-98.0588 305.544,-105.017"/>
</g>
<!-- Node26 -->
<g id="node4" class="node"><title>Node26</title>
<g id="a_node4"><a xlink:href="messages_8f90.html#a6d15f28783f95a7a4b2a44185619792f" target="_top" xlink:title="format_str">
<polygon fill="white" stroke="black" points="355,-60.5 355,-81.5 432,-81.5 432,-60.5 355,-60.5"/>
<text text-anchor="middle" x="393.5" y="-67.9" font-family="Ubuntu Mono" font-size="12.00">format_str</text>
</a>
</g>
</g>
<!-- Node24&#45;&gt;Node26 -->
<g id="edge3" class="edge"><title>Node24&#45;&gt;Node26</title>
<path fill="none" stroke="midnightblue" d="M262.431,-85.2152C288.409,-82.3761 319.463,-78.9821 344.713,-76.2226"/>
<polygon fill="midnightblue" stroke="midnightblue" points="345.23,-79.6871 354.79,-75.1213 344.469,-72.7285 345.23,-79.6871"/>
</g>
<!-- Node27 -->
<g id="node5" class="node"><title>Node27</title>
<g id="a_node5"><a xlink:href="namespacemessages.html#a61fd0b51b5e37d58fdc993c01792a3fd" target="_top" xlink:title="messages::get_clock">
<polygon fill="white" stroke="black" points="507,-60.5 507,-81.5 638,-81.5 638,-60.5 507,-60.5"/>
<text text-anchor="middle" x="572.5" y="-67.9" font-family="Ubuntu Mono" font-size="12.00">messages::get_clock</text>
</a>
</g>
</g>
<!-- Node26&#45;&gt;Node27 -->
<g id="edge4" class="edge"><title>Node26&#45;&gt;Node27</title>
<path fill="none" stroke="midnightblue" d="M432.037,-71C450.869,-71 474.372,-71 496.685,-71"/>
<polygon fill="midnightblue" stroke="midnightblue" points="496.832,-74.5001 506.832,-71 496.832,-67.5001 496.832,-74.5001"/>
</g>
</g>
</svg>
