<?xml version="1.0" encoding="UTF-8" standalone="no"?>
<!DOCTYPE svg PUBLIC "-//W3C//DTD SVG 1.1//EN"
 "http://www.w3.org/Graphics/SVG/1.1/DTD/svg11.dtd">
<!-- Generated by graphviz version 2.38.0 (20140413.2041)
 -->
<!-- Title: plot_evolution Pages: 1 -->
<svg width="646pt" height="90pt"
 viewBox="0.00 0.00 646.00 90.00" xmlns="http://www.w3.org/2000/svg" xmlns:xlink="http://www.w3.org/1999/xlink">
<g id="graph0" class="graph" transform="scale(1 1) rotate(0) translate(4 86)">
<title>plot_evolution</title>
<polygon fill="white" stroke="none" points="-4,4 -4,-86 642,-86 642,4 -4,4"/>
<!-- Node16 -->
<g id="node1" class="node"><title>Node16</title>
<polygon fill="#bfbfbf" stroke="black" points="0,-20.5 0,-41.5 101,-41.5 101,-20.5 0,-20.5"/>
<text text-anchor="middle" x="50.5" y="-27.9" font-family="Ubuntu Mono" font-size="12.00">plot_evolution</text>
</g>
<!-- Node17 -->
<g id="node2" class="node"><title>Node17</title>
<g id="a_node2"><a xlink:href="namespacemessages.html#aa4a8d01563e92558e8a0875b075ec54c" target="_top" xlink:title="messages::writo">
<polygon fill="white" stroke="black" points="155,-40.5 155,-61.5 262,-61.5 262,-40.5 155,-40.5"/>
<text text-anchor="middle" x="208.5" y="-47.9" font-family="Ubuntu Mono" font-size="12.00">messages::writo</text>
</a>
</g>
</g>
<!-- Node16&#45;&gt;Node17 -->
<g id="edge1" class="edge"><title>Node16&#45;&gt;Node17</title>
<path fill="none" stroke="midnightblue" d="M101.288,-37.3831C115.199,-39.1665 130.492,-41.1272 145.035,-42.9917"/>
<polygon fill="midnightblue" stroke="midnightblue" points="144.593,-46.4636 154.957,-44.2638 145.484,-39.5204 144.593,-46.4636"/>
</g>
<!-- Node21 -->
<g id="node6" class="node"><title>Node21</title>
<g id="a_node6"><a xlink:href="namespacestr__utilities.html#ac778d706b2e021672618939ab58fdd32" target="_top" xlink:title="str_utilities::r2strt">
<polygon fill="white" stroke="black" points="137,-0.5 137,-21.5 280,-21.5 280,-0.5 137,-0.5"/>
<text text-anchor="middle" x="208.5" y="-7.9" font-family="Ubuntu Mono" font-size="12.00">str_utilities::r2strt</text>
</a>
</g>
</g>
<!-- Node16&#45;&gt;Node21 -->
<g id="edge5" class="edge"><title>Node16&#45;&gt;Node21</title>
<path fill="none" stroke="midnightblue" d="M101.288,-24.6169C109.428,-23.5734 118.041,-22.4691 126.7,-21.359"/>
<polygon fill="midnightblue" stroke="midnightblue" points="127.387,-24.7996 136.861,-20.0563 126.497,-17.8565 127.387,-24.7996"/>
</g>
<!-- Node18 -->
<g id="node3" class="node"><title>Node18</title>
<g id="a_node3"><a xlink:href="namespacemessages.html#a82dddaab795b78b3d39e1ff1aab2f665" target="_top" xlink:title="messages::get_mem_usage">
<polygon fill="white" stroke="black" points="316,-60.5 316,-81.5 471,-81.5 471,-60.5 316,-60.5"/>
<text text-anchor="middle" x="393.5" y="-67.9" font-family="Ubuntu Mono" font-size="12.00">messages::get_mem_usage</text>
</a>
</g>
</g>
<!-- Node17&#45;&gt;Node18 -->
<g id="edge2" class="edge"><title>Node17&#45;&gt;Node18</title>
<path fill="none" stroke="midnightblue" d="M262.431,-56.7848C275.982,-58.2658 290.915,-59.8978 305.685,-61.512"/>
<polygon fill="midnightblue" stroke="midnightblue" points="305.544,-65.0174 315.865,-62.6246 306.304,-58.0588 305.544,-65.0174"/>
</g>
<!-- Node19 -->
<g id="node4" class="node"><title>Node19</title>
<g id="a_node4"><a xlink:href="messages_8f90.html#a6d15f28783f95a7a4b2a44185619792f" target="_top" xlink:title="format_str">
<polygon fill="white" stroke="black" points="355,-20.5 355,-41.5 432,-41.5 432,-20.5 355,-20.5"/>
<text text-anchor="middle" x="393.5" y="-27.9" font-family="Ubuntu Mono" font-size="12.00">format_str</text>
</a>
</g>
</g>
<!-- Node17&#45;&gt;Node19 -->
<g id="edge3" class="edge"><title>Node17&#45;&gt;Node19</title>
<path fill="none" stroke="midnightblue" d="M262.431,-45.2152C288.409,-42.3761 319.463,-38.9821 344.713,-36.2226"/>
<polygon fill="midnightblue" stroke="midnightblue" points="345.23,-39.6871 354.79,-35.1213 344.469,-32.7285 345.23,-39.6871"/>
</g>
<!-- Node20 -->
<g id="node5" class="node"><title>Node20</title>
<g id="a_node5"><a xlink:href="namespacemessages.html#a61fd0b51b5e37d58fdc993c01792a3fd" target="_top" xlink:title="messages::get_clock">
<polygon fill="white" stroke="black" points="507,-20.5 507,-41.5 638,-41.5 638,-20.5 507,-20.5"/>
<text text-anchor="middle" x="572.5" y="-27.9" font-family="Ubuntu Mono" font-size="12.00">messages::get_clock</text>
</a>
</g>
</g>
<!-- Node19&#45;&gt;Node20 -->
<g id="edge4" class="edge"><title>Node19&#45;&gt;Node20</title>
<path fill="none" stroke="midnightblue" d="M432.037,-31C450.869,-31 474.372,-31 496.685,-31"/>
<polygon fill="midnightblue" stroke="midnightblue" points="496.832,-34.5001 506.832,-31 496.832,-27.5001 496.832,-34.5001"/>
</g>
</g>
</svg>
