<?xml version="1.0" encoding="UTF-8" standalone="no"?>
<!DOCTYPE svg PUBLIC "-//W3C//DTD SVG 1.1//EN"
 "http://www.w3.org/Graphics/SVG/1.1/DTD/svg11.dtd">
<!-- Generated by graphviz version 2.38.0 (20140413.2041)
 -->
<!-- Title: sudden_stop Pages: 1 -->
<svg width="765pt" height="148pt"
 viewBox="0.00 0.00 765.00 148.00" xmlns="http://www.w3.org/2000/svg" xmlns:xlink="http://www.w3.org/1999/xlink">
<g id="graph0" class="graph" transform="scale(1 1) rotate(0) translate(4 144)">
<title>sudden_stop</title>
<polygon fill="white" stroke="none" points="-4,4 -4,-144 761,-144 761,4 -4,4"/>
<!-- Node148 -->
<g id="node1" class="node"><title>Node148</title>
<polygon fill="#bfbfbf" stroke="black" points="0,-59.5 0,-80.5 83,-80.5 83,-59.5 0,-59.5"/>
<text text-anchor="middle" x="41.5" y="-66.9" font-family="Ubuntu Mono" font-size="12.00">sudden_stop</text>
</g>
<!-- Node149 -->
<g id="node2" class="node"><title>Node149</title>
<g id="a_node2"><a xlink:href="namespacempi__ops.html#a54d9258ef985728345579e8e57dc8dfe" target="_top" xlink:title="mpi_ops::abort_mpi">
<polygon fill="white" stroke="black" points="125,-118.5 125,-139.5 250,-139.5 250,-118.5 125,-118.5"/>
<text text-anchor="middle" x="187.5" y="-125.9" font-family="Ubuntu Mono" font-size="12.00">mpi_ops::abort_mpi</text>
</a>
</g>
</g>
<!-- Node148&#45;&gt;Node149 -->
<g id="edge1" class="edge"><title>Node148&#45;&gt;Node149</title>
<path fill="none" stroke="midnightblue" d="M65.4352,-80.6504C80.5462,-87.5539 100.826,-96.6046 119,-104 128.106,-107.706 137.99,-111.495 147.314,-114.966"/>
<polygon fill="midnightblue" stroke="midnightblue" points="146.178,-118.277 156.772,-118.452 148.599,-111.709 146.178,-118.277"/>
</g>
<!-- Node150 -->
<g id="node3" class="node"><title>Node150</title>
<g id="a_node3"><a xlink:href="namespacemessages.html#aa4a8d01563e92558e8a0875b075ec54c" target="_top" xlink:title="messages::writo">
<polygon fill="white" stroke="black" points="292,-39.5 292,-60.5 399,-60.5 399,-39.5 292,-39.5"/>
<text text-anchor="middle" x="345.5" y="-46.9" font-family="Ubuntu Mono" font-size="12.00">messages::writo</text>
</a>
</g>
</g>
<!-- Node148&#45;&gt;Node150 -->
<g id="edge2" class="edge"><title>Node148&#45;&gt;Node150</title>
<path fill="none" stroke="midnightblue" d="M83.3916,-70.6333C94.908,-70.7848 107.445,-70.9245 119,-71 179.888,-71.3979 195.524,-78.0769 256,-71 269.998,-69.3619 284.993,-66.3136 298.587,-63.0374"/>
<polygon fill="midnightblue" stroke="midnightblue" points="299.823,-66.3359 308.671,-60.5073 298.119,-59.5464 299.823,-66.3359"/>
</g>
<!-- Node154 -->
<g id="node7" class="node"><title>Node154</title>
<g id="a_node7"><a xlink:href="namespacestr__utilities.html#a0b97e51770725a3e98ed393d26681414" target="_top" xlink:title="str_utilities::i2str">
<polygon fill="white" stroke="black" points="119,-40.5 119,-61.5 256,-61.5 256,-40.5 119,-40.5"/>
<text text-anchor="middle" x="187.5" y="-47.9" font-family="Ubuntu Mono" font-size="12.00">str_utilities::i2str</text>
</a>
</g>
</g>
<!-- Node148&#45;&gt;Node154 -->
<g id="edge6" class="edge"><title>Node148&#45;&gt;Node154</title>
<path fill="none" stroke="midnightblue" d="M83.3794,-64.6062C91.4144,-63.546 100.09,-62.4014 108.877,-61.2419"/>
<polygon fill="midnightblue" stroke="midnightblue" points="109.362,-64.7083 118.819,-59.9302 108.447,-57.7684 109.362,-64.7083"/>
</g>
<!-- Node155 -->
<g id="node8" class="node"><title>Node155</title>
<g id="a_node8"><a xlink:href="namespacemessages.html#a6e6bfb084063e4cc91ee86e542043302" target="_top" xlink:title="messages::lvl_ud">
<polygon fill="white" stroke="black" points="131,-0.5 131,-21.5 244,-21.5 244,-0.5 131,-0.5"/>
<text text-anchor="middle" x="187.5" y="-7.9" font-family="Ubuntu Mono" font-size="12.00">messages::lvl_ud</text>
</a>
</g>
</g>
<!-- Node148&#45;&gt;Node155 -->
<g id="edge7" class="edge"><title>Node148&#45;&gt;Node155</title>
<path fill="none" stroke="midnightblue" d="M60.9171,-59.4C76.142,-50.9357 98.5087,-39.1787 119,-31 124.6,-28.7651 130.547,-26.6488 136.501,-24.6886"/>
<polygon fill="midnightblue" stroke="midnightblue" points="137.984,-27.8909 146.467,-21.5434 135.877,-21.2155 137.984,-27.8909"/>
</g>
<!-- Node151 -->
<g id="node4" class="node"><title>Node151</title>
<g id="a_node4"><a xlink:href="namespacemessages.html#a82dddaab795b78b3d39e1ff1aab2f665" target="_top" xlink:title="messages::get_mem_usage">
<polygon fill="white" stroke="black" points="435,-59.5 435,-80.5 590,-80.5 590,-59.5 435,-59.5"/>
<text text-anchor="middle" x="512.5" y="-66.9" font-family="Ubuntu Mono" font-size="12.00">messages::get_mem_usage</text>
</a>
</g>
</g>
<!-- Node150&#45;&gt;Node151 -->
<g id="edge3" class="edge"><title>Node150&#45;&gt;Node151</title>
<path fill="none" stroke="midnightblue" d="M399.161,-56.3831C407.452,-57.3881 416.208,-58.4495 425.025,-59.5182"/>
<polygon fill="midnightblue" stroke="midnightblue" points="424.635,-62.9965 434.984,-60.7253 425.478,-56.0474 424.635,-62.9965"/>
</g>
<!-- Node152 -->
<g id="node5" class="node"><title>Node152</title>
<g id="a_node5"><a xlink:href="messages_8f90.html#a6d15f28783f95a7a4b2a44185619792f" target="_top" xlink:title="format_str">
<polygon fill="white" stroke="black" points="474,-19.5 474,-40.5 551,-40.5 551,-19.5 474,-19.5"/>
<text text-anchor="middle" x="512.5" y="-26.9" font-family="Ubuntu Mono" font-size="12.00">format_str</text>
</a>
</g>
</g>
<!-- Node150&#45;&gt;Node152 -->
<g id="edge4" class="edge"><title>Node150&#45;&gt;Node152</title>
<path fill="none" stroke="midnightblue" d="M399.161,-43.6169C419.977,-41.0937 443.722,-38.2155 464.002,-35.7573"/>
<polygon fill="midnightblue" stroke="midnightblue" points="464.448,-39.229 473.954,-34.551 463.606,-32.2798 464.448,-39.229"/>
</g>
<!-- Node153 -->
<g id="node6" class="node"><title>Node153</title>
<g id="a_node6"><a xlink:href="namespacemessages.html#a61fd0b51b5e37d58fdc993c01792a3fd" target="_top" xlink:title="messages::get_clock">
<polygon fill="white" stroke="black" points="626,-19.5 626,-40.5 757,-40.5 757,-19.5 626,-19.5"/>
<text text-anchor="middle" x="691.5" y="-26.9" font-family="Ubuntu Mono" font-size="12.00">messages::get_clock</text>
</a>
</g>
</g>
<!-- Node152&#45;&gt;Node153 -->
<g id="edge5" class="edge"><title>Node152&#45;&gt;Node153</title>
<path fill="none" stroke="midnightblue" d="M551.037,-30C569.869,-30 593.372,-30 615.685,-30"/>
<polygon fill="midnightblue" stroke="midnightblue" points="615.832,-33.5001 625.832,-30 615.832,-26.5001 615.832,-33.5001"/>
</g>
<!-- Node155&#45;&gt;Node150 -->
<g id="edge8" class="edge"><title>Node155&#45;&gt;Node150</title>
<path fill="none" stroke="midnightblue" d="M230.716,-21.554C249.705,-26.3013 272.307,-31.9518 292.344,-36.9611"/>
<polygon fill="midnightblue" stroke="midnightblue" points="291.7,-40.4077 302.25,-39.4376 293.398,-33.6167 291.7,-40.4077"/>
</g>
</g>
</svg>
