<?xml version="1.0" encoding="UTF-8" standalone="no"?>
<!DOCTYPE svg PUBLIC "-//W3C//DTD SVG 1.1//EN"
 "http://www.w3.org/Graphics/SVG/1.1/DTD/svg11.dtd">
<!-- Generated by graphviz version 2.38.0 (20140413.2041)
 -->
<!-- Title: fill_mat Pages: 1 -->
<svg width="1171pt" height="306pt"
 viewBox="0.00 0.00 1171.00 306.00" xmlns="http://www.w3.org/2000/svg" xmlns:xlink="http://www.w3.org/1999/xlink">
<g id="graph0" class="graph" transform="scale(1 1) rotate(0) translate(4 302)">
<title>fill_mat</title>
<polygon fill="white" stroke="none" points="-4,4 -4,-302 1167,-302 1167,4 -4,4"/>
<!-- Node23 -->
<g id="node1" class="node"><title>Node23</title>
<polygon fill="#bfbfbf" stroke="black" points="0,-80.5 0,-101.5 65,-101.5 65,-80.5 0,-80.5"/>
<text text-anchor="middle" x="32.5" y="-87.9" font-family="Ubuntu Mono" font-size="12.00">fill_mat</text>
</g>
<!-- Node24 -->
<g id="node2" class="node"><title>Node24</title>
<g id="a_node2"><a xlink:href="namespaceslepc__utilities.html#ae6568f825f3fa8a6e3d45f67f3daf412" target="_top" xlink:title="slepc_utilities::insert\l_block_mat">
<polygon fill="white" stroke="black" points="101,-74 101,-108 256,-108 256,-74 101,-74"/>
<text text-anchor="start" x="109" y="-94.4" font-family="Ubuntu Mono" font-size="12.00">slepc_utilities::insert</text>
<text text-anchor="middle" x="178.5" y="-81.4" font-family="Ubuntu Mono" font-size="12.00">_block_mat</text>
</a>
</g>
</g>
<!-- Node23&#45;&gt;Node24 -->
<g id="edge1" class="edge"><title>Node23&#45;&gt;Node24</title>
<path fill="none" stroke="midnightblue" d="M65.1014,-91C72.8611,-91 81.5464,-91 90.5583,-91"/>
<polygon fill="midnightblue" stroke="midnightblue" points="90.8401,-94.5001 100.84,-91 90.84,-87.5001 90.8401,-94.5001"/>
</g>
<!-- Node25 -->
<g id="node3" class="node"><title>Node25</title>
<g id="a_node3"><a xlink:href="namespaceinput__utilities.html#a71bd36f063d55ab62c7a37864aef1185" target="_top" xlink:title="input_utilities::pause_prog">
<polygon fill="white" stroke="black" points="292,-197.5 292,-218.5 471,-218.5 471,-197.5 292,-197.5"/>
<text text-anchor="middle" x="381.5" y="-204.9" font-family="Ubuntu Mono" font-size="12.00">input_utilities::pause_prog</text>
</a>
</g>
</g>
<!-- Node24&#45;&gt;Node25 -->
<g id="edge2" class="edge"><title>Node24&#45;&gt;Node25</title>
<path fill="none" stroke="midnightblue" d="M208.727,-108.013C247.572,-130.624 315.685,-170.272 353.417,-192.235"/>
<polygon fill="midnightblue" stroke="midnightblue" points="351.915,-195.411 362.319,-197.417 355.437,-189.361 351.915,-195.411"/>
</g>
<!-- Node28 -->
<g id="node6" class="node"><title>Node28</title>
<g id="a_node6"><a xlink:href="namespacemessages.html#aa4a8d01563e92558e8a0875b075ec54c" target="_top" xlink:title="messages::writo">
<polygon fill="white" stroke="black" points="698,-138.5 698,-159.5 805,-159.5 805,-138.5 698,-138.5"/>
<text text-anchor="middle" x="751.5" y="-145.9" font-family="Ubuntu Mono" font-size="12.00">messages::writo</text>
</a>
</g>
</g>
<!-- Node24&#45;&gt;Node28 -->
<g id="edge12" class="edge"><title>Node24&#45;&gt;Node28</title>
<path fill="none" stroke="midnightblue" d="M256.209,-105.621C268.161,-107.615 280.394,-109.491 292,-111 432.761,-129.305 599.045,-140.508 687.582,-145.648"/>
<polygon fill="midnightblue" stroke="midnightblue" points="687.543,-149.151 697.727,-146.23 687.944,-142.163 687.543,-149.151"/>
</g>
<!-- Node33 -->
<g id="node11" class="node"><title>Node33</title>
<g id="a_node11"><a xlink:href="namespacestr__utilities.html#a0b97e51770725a3e98ed393d26681414" target="_top" xlink:title="str_utilities::i2str">
<polygon fill="white" stroke="black" points="313,-80.5 313,-101.5 450,-101.5 450,-80.5 313,-80.5"/>
<text text-anchor="middle" x="381.5" y="-87.9" font-family="Ubuntu Mono" font-size="12.00">str_utilities::i2str</text>
</a>
</g>
</g>
<!-- Node24&#45;&gt;Node33 -->
<g id="edge13" class="edge"><title>Node24&#45;&gt;Node33</title>
<path fill="none" stroke="midnightblue" d="M256.063,-91C271.207,-91 287.12,-91 302.317,-91"/>
<polygon fill="midnightblue" stroke="midnightblue" points="302.705,-94.5001 312.705,-91 302.704,-87.5001 302.705,-94.5001"/>
</g>
<!-- Node34 -->
<g id="node12" class="node"><title>Node34</title>
<g id="a_node12"><a xlink:href="namespacemessages.html#a6e6bfb084063e4cc91ee86e542043302" target="_top" xlink:title="messages::lvl_ud">
<polygon fill="white" stroke="black" points="325,-40.5 325,-61.5 438,-61.5 438,-40.5 325,-40.5"/>
<text text-anchor="middle" x="381.5" y="-47.9" font-family="Ubuntu Mono" font-size="12.00">messages::lvl_ud</text>
</a>
</g>
</g>
<!-- Node24&#45;&gt;Node34 -->
<g id="edge14" class="edge"><title>Node24&#45;&gt;Node34</title>
<path fill="none" stroke="midnightblue" d="M256.063,-75.7636C276.375,-71.7214 298.072,-67.4036 317.566,-63.5241"/>
<polygon fill="midnightblue" stroke="midnightblue" points="318.416,-66.9237 327.541,-61.5392 317.05,-60.0583 318.416,-66.9237"/>
</g>
<!-- Node35 -->
<g id="node13" class="node"><title>Node35</title>
<g id="a_node13"><a xlink:href="namespacemessages.html#a80797cedef6112b8dccaeda431f0c610" target="_top" xlink:title="messages::print_ar_2">
<polygon fill="white" stroke="black" points="313,-0.5 313,-21.5 450,-21.5 450,-0.5 313,-0.5"/>
<text text-anchor="middle" x="381.5" y="-7.9" font-family="Ubuntu Mono" font-size="12.00">messages::print_ar_2</text>
</a>
</g>
</g>
<!-- Node24&#45;&gt;Node35 -->
<g id="edge16" class="edge"><title>Node24&#45;&gt;Node35</title>
<path fill="none" stroke="midnightblue" d="M206.731,-73.8003C228.935,-60.4438 261.502,-42.344 292,-31 298.801,-28.4704 306.019,-26.2037 313.285,-24.187"/>
<polygon fill="midnightblue" stroke="midnightblue" points="314.402,-27.5125 323.188,-21.5909 312.627,-20.7413 314.402,-27.5125"/>
</g>
<!-- Node26 -->
<g id="node4" class="node"><title>Node26</title>
<g id="a_node4"><a xlink:href="namespacempi__utilities.html#a790ea24d32dd0e249541c1e57cd85536" target="_top" xlink:title="mpi_utilities::wait_mpi">
<polygon fill="white" stroke="black" points="507,-276.5 507,-297.5 662,-297.5 662,-276.5 507,-276.5"/>
<text text-anchor="middle" x="584.5" y="-283.9" font-family="Ubuntu Mono" font-size="12.00">mpi_utilities::wait_mpi</text>
</a>
</g>
</g>
<!-- Node25&#45;&gt;Node26 -->
<g id="edge3" class="edge"><title>Node25&#45;&gt;Node26</title>
<path fill="none" stroke="midnightblue" d="M401.851,-218.566C425.928,-231.384 468.566,-253.008 507,-267 513.5,-269.366 520.405,-271.576 527.304,-273.599"/>
<polygon fill="midnightblue" stroke="midnightblue" points="526.786,-277.089 537.36,-276.426 528.68,-270.35 526.786,-277.089"/>
</g>
<!-- Node27 -->
<g id="node5" class="node"><title>Node27</title>
<g id="a_node5"><a xlink:href="namespacemessages.html#a2a1154de25763d4894275ff4307b6862" target="_top" xlink:title="messages::stop_time">
<polygon fill="white" stroke="black" points="519,-236.5 519,-257.5 650,-257.5 650,-236.5 519,-236.5"/>
<text text-anchor="middle" x="584.5" y="-243.9" font-family="Ubuntu Mono" font-size="12.00">messages::stop_time</text>
</a>
</g>
</g>
<!-- Node25&#45;&gt;Node27 -->
<g id="edge4" class="edge"><title>Node25&#45;&gt;Node27</title>
<path fill="none" stroke="midnightblue" d="M436.629,-218.503C462.095,-223.444 492.65,-229.372 519.28,-234.539"/>
<polygon fill="midnightblue" stroke="midnightblue" points="518.791,-238.01 529.275,-236.479 520.124,-231.138 518.791,-238.01"/>
</g>
<!-- Node25&#45;&gt;Node28 -->
<g id="edge11" class="edge"><title>Node25&#45;&gt;Node28</title>
<path fill="none" stroke="midnightblue" d="M471.246,-209.966C526.823,-209.243 599.5,-204.705 662,-189 683.524,-183.591 706.311,-173.17 723.371,-164.321"/>
<polygon fill="midnightblue" stroke="midnightblue" points="725.036,-167.399 732.216,-159.608 721.744,-161.222 725.036,-167.399"/>
</g>
<!-- Node32 -->
<g id="node10" class="node"><title>Node32</title>
<g id="a_node10"><a xlink:href="namespacemessages.html#ad997c3dff64c512e0070ce8816c28e7f" target="_top" xlink:title="messages::start_time">
<polygon fill="white" stroke="black" points="516,-158.5 516,-179.5 653,-179.5 653,-158.5 516,-158.5"/>
<text text-anchor="middle" x="584.5" y="-165.9" font-family="Ubuntu Mono" font-size="12.00">messages::start_time</text>
</a>
</g>
</g>
<!-- Node25&#45;&gt;Node32 -->
<g id="edge9" class="edge"><title>Node25&#45;&gt;Node32</title>
<path fill="none" stroke="midnightblue" d="M436.629,-197.497C462.095,-192.556 492.65,-186.628 519.28,-181.461"/>
<polygon fill="midnightblue" stroke="midnightblue" points="520.124,-184.862 529.275,-179.521 518.791,-177.99 520.124,-184.862"/>
</g>
<!-- Node27&#45;&gt;Node28 -->
<g id="edge5" class="edge"><title>Node27&#45;&gt;Node28</title>
<path fill="none" stroke="midnightblue" d="M627.176,-236.486C638.819,-232.731 651.226,-227.925 662,-222 689.146,-207.071 715.977,-183.334 732.854,-167.003"/>
<polygon fill="midnightblue" stroke="midnightblue" points="735.641,-169.17 740.297,-159.653 730.722,-164.189 735.641,-169.17"/>
</g>
<!-- Node29 -->
<g id="node7" class="node"><title>Node29</title>
<g id="a_node7"><a xlink:href="namespacemessages.html#a82dddaab795b78b3d39e1ff1aab2f665" target="_top" xlink:title="messages::get_mem_usage">
<polygon fill="white" stroke="black" points="841,-158.5 841,-179.5 996,-179.5 996,-158.5 841,-158.5"/>
<text text-anchor="middle" x="918.5" y="-165.9" font-family="Ubuntu Mono" font-size="12.00">messages::get_mem_usage</text>
</a>
</g>
</g>
<!-- Node28&#45;&gt;Node29 -->
<g id="edge6" class="edge"><title>Node28&#45;&gt;Node29</title>
<path fill="none" stroke="midnightblue" d="M805.161,-155.383C813.452,-156.388 822.208,-157.449 831.025,-158.518"/>
<polygon fill="midnightblue" stroke="midnightblue" points="830.635,-161.996 840.984,-159.725 831.478,-155.047 830.635,-161.996"/>
</g>
<!-- Node30 -->
<g id="node8" class="node"><title>Node30</title>
<g id="a_node8"><a xlink:href="messages_8f90.html#a6d15f28783f95a7a4b2a44185619792f" target="_top" xlink:title="format_str">
<polygon fill="white" stroke="black" points="880,-118.5 880,-139.5 957,-139.5 957,-118.5 880,-118.5"/>
<text text-anchor="middle" x="918.5" y="-125.9" font-family="Ubuntu Mono" font-size="12.00">format_str</text>
</a>
</g>
</g>
<!-- Node28&#45;&gt;Node30 -->
<g id="edge7" class="edge"><title>Node28&#45;&gt;Node30</title>
<path fill="none" stroke="midnightblue" d="M805.161,-142.617C825.977,-140.094 849.722,-137.216 870.002,-134.757"/>
<polygon fill="midnightblue" stroke="midnightblue" points="870.448,-138.229 879.954,-133.551 869.606,-131.28 870.448,-138.229"/>
</g>
<!-- Node31 -->
<g id="node9" class="node"><title>Node31</title>
<g id="a_node9"><a xlink:href="namespacemessages.html#a61fd0b51b5e37d58fdc993c01792a3fd" target="_top" xlink:title="messages::get_clock">
<polygon fill="white" stroke="black" points="1032,-118.5 1032,-139.5 1163,-139.5 1163,-118.5 1032,-118.5"/>
<text text-anchor="middle" x="1097.5" y="-125.9" font-family="Ubuntu Mono" font-size="12.00">messages::get_clock</text>
</a>
</g>
</g>
<!-- Node30&#45;&gt;Node31 -->
<g id="edge8" class="edge"><title>Node30&#45;&gt;Node31</title>
<path fill="none" stroke="midnightblue" d="M957.037,-129C975.869,-129 999.372,-129 1021.68,-129"/>
<polygon fill="midnightblue" stroke="midnightblue" points="1021.83,-132.5 1031.83,-129 1021.83,-125.5 1021.83,-132.5"/>
</g>
<!-- Node32&#45;&gt;Node28 -->
<g id="edge10" class="edge"><title>Node32&#45;&gt;Node28</title>
<path fill="none" stroke="midnightblue" d="M653.088,-160.808C664.535,-159.42 676.379,-157.984 687.697,-156.612"/>
<polygon fill="midnightblue" stroke="midnightblue" points="688.411,-160.052 697.917,-155.374 687.569,-153.102 688.411,-160.052"/>
</g>
<!-- Node34&#45;&gt;Node28 -->
<g id="edge15" class="edge"><title>Node34&#45;&gt;Node28</title>
<path fill="none" stroke="midnightblue" d="M437.426,-61.5498C494.196,-72.9706 585.117,-92.7094 662,-116 679.805,-121.394 699.21,-128.488 715.301,-134.716"/>
<polygon fill="midnightblue" stroke="midnightblue" points="714.259,-138.067 724.847,-138.459 716.814,-131.55 714.259,-138.067"/>
</g>
<!-- Node36 -->
<g id="node14" class="node"><title>Node36</title>
<g id="a_node14"><a xlink:href="namespacemessages.html#a5686118397930f505259225f3688216b" target="_top" xlink:title="messages::print_ar_1">
<polygon fill="white" stroke="black" points="516,-11.5 516,-32.5 653,-32.5 653,-11.5 516,-11.5"/>
<text text-anchor="middle" x="584.5" y="-18.9" font-family="Ubuntu Mono" font-size="12.00">messages::print_ar_1</text>
</a>
</g>
</g>
<!-- Node35&#45;&gt;Node36 -->
<g id="edge17" class="edge"><title>Node35&#45;&gt;Node36</title>
<path fill="none" stroke="midnightblue" d="M450.269,-14.7088C468.059,-15.6823 487.385,-16.74 505.657,-17.7399"/>
<polygon fill="midnightblue" stroke="midnightblue" points="505.507,-21.2369 515.683,-18.2886 505.889,-14.2473 505.507,-21.2369"/>
</g>
<!-- Node36&#45;&gt;Node28 -->
<g id="edge18" class="edge"><title>Node36&#45;&gt;Node28</title>
<path fill="none" stroke="midnightblue" d="M605.367,-32.5046C621.23,-41.2273 643.745,-54.3718 662,-68 688.342,-87.6654 715.842,-113.87 733.059,-131.076"/>
<polygon fill="midnightblue" stroke="midnightblue" points="730.682,-133.65 740.205,-138.293 735.656,-128.725 730.682,-133.65"/>
</g>
</g>
</svg>
