<?xml version="1.0" encoding="UTF-8" standalone="no"?>
<!DOCTYPE svg PUBLIC "-//W3C//DTD SVG 1.1//EN"
 "http://www.w3.org/Graphics/SVG/1.1/DTD/svg11.dtd">
<!-- Generated by graphviz version 2.38.0 (20140413.2041)
 -->
<!-- Title: setup_local_block Pages: 1 -->
<svg width="807pt" height="99pt"
 viewBox="0.00 0.00 807.00 99.00" xmlns="http://www.w3.org/2000/svg" xmlns:xlink="http://www.w3.org/1999/xlink">
<g id="graph0" class="graph" transform="scale(1 1) rotate(0) translate(4 95)">
<title>setup_local_block</title>
<polygon fill="white" stroke="none" points="-4,4 -4,-95 803,-95 803,4 -4,4"/>
<!-- Node0 -->
<g id="node1" class="node"><title>Node0</title>
<polygon fill="#bfbfbf" stroke="black" points="0,-40.5 0,-61.5 119,-61.5 119,-40.5 0,-40.5"/>
<text text-anchor="middle" x="59.5" y="-47.9" font-family="Ubuntu Mono" font-size="12.00">setup_local_block</text>
</g>
<!-- Node1 -->
<g id="node2" class="node"><title>Node1</title>
<g id="a_node2"><a xlink:href="namespacemessages.html#aa4a8d01563e92558e8a0875b075ec54c" target="_top" xlink:title="Write output to file identified by output_i. ">
<polygon fill="white" stroke="black" points="501,-49.5 501,-70.5 608,-70.5 608,-49.5 501,-49.5"/>
<text text-anchor="middle" x="554.5" y="-56.9" font-family="Ubuntu Mono" font-size="12.00">messages::writo</text>
</a>
</g>
</g>
<!-- Node0&#45;&gt;Node1 -->
<g id="edge1" class="edge"><title>Node0&#45;&gt;Node1</title>
<path fill="none" stroke="midnightblue" d="M101.137,-61.5407C117.717,-65.3318 137.154,-69.1322 155,-71 273.084,-83.3588 411.854,-74.2146 490.562,-66.8364"/>
<polygon fill="midnightblue" stroke="midnightblue" points="491.173,-70.294 500.793,-65.8554 490.504,-63.326 491.173,-70.294"/>
</g>
<!-- Node4 -->
<g id="node5" class="node"><title>Node4</title>
<g id="a_node5"><a xlink:href="namespacestr__utilities.html#a0b97e51770725a3e98ed393d26681414" target="_top" xlink:title="Convert an integer to string. ">
<polygon fill="white" stroke="black" points="155,-40.5 155,-61.5 292,-61.5 292,-40.5 155,-40.5"/>
<text text-anchor="middle" x="223.5" y="-47.9" font-family="Ubuntu Mono" font-size="12.00">str_utilities::i2str</text>
</a>
</g>
</g>
<!-- Node0&#45;&gt;Node4 -->
<g id="edge4" class="edge"><title>Node0&#45;&gt;Node4</title>
<path fill="none" stroke="midnightblue" d="M119.444,-51C127.612,-51 136.105,-51 144.552,-51"/>
<polygon fill="midnightblue" stroke="midnightblue" points="144.81,-54.5001 154.81,-51 144.81,-47.5001 144.81,-54.5001"/>
</g>
<!-- Node5 -->
<g id="node6" class="node"><title>Node5</title>
<g id="a_node6"><a xlink:href="namespacemessages.html#a80797cedef6112b8dccaeda431f0c610" target="_top" xlink:title="Print an array of dimension 2 on the screen. ">
<polygon fill="white" stroke="black" points="155,-0.5 155,-21.5 292,-21.5 292,-0.5 155,-0.5"/>
<text text-anchor="middle" x="223.5" y="-7.9" font-family="Ubuntu Mono" font-size="12.00">messages::print_ar_2</text>
</a>
</g>
</g>
<!-- Node0&#45;&gt;Node5 -->
<g id="edge5" class="edge"><title>Node0&#45;&gt;Node5</title>
<path fill="none" stroke="midnightblue" d="M103.064,-40.4905C123.631,-35.412 148.503,-29.2708 170.214,-23.9102"/>
<polygon fill="midnightblue" stroke="midnightblue" points="171.07,-27.3039 179.94,-21.5087 169.392,-20.508 171.07,-27.3039"/>
</g>
<!-- Node2 -->
<g id="node3" class="node"><title>Node2</title>
<g id="a_node3"><a xlink:href="namespacemessages.html#a82dddaab795b78b3d39e1ff1aab2f665" target="_top" xlink:title="Returns the memory usage in kilobytes. ">
<polygon fill="white" stroke="black" points="644,-69.5 644,-90.5 799,-90.5 799,-69.5 644,-69.5"/>
<text text-anchor="middle" x="721.5" y="-76.9" font-family="Ubuntu Mono" font-size="12.00">messages::get_mem_usage</text>
</a>
</g>
</g>
<!-- Node1&#45;&gt;Node2 -->
<g id="edge2" class="edge"><title>Node1&#45;&gt;Node2</title>
<path fill="none" stroke="midnightblue" d="M608.161,-66.3831C616.452,-67.3881 625.208,-68.4495 634.025,-69.5182"/>
<polygon fill="midnightblue" stroke="midnightblue" points="633.635,-72.9965 643.984,-70.7253 634.478,-66.0474 633.635,-72.9965"/>
</g>
<!-- Node3 -->
<g id="node4" class="node"><title>Node3</title>
<g id="a_node4"><a xlink:href="namespacemessages.html#a61fd0b51b5e37d58fdc993c01792a3fd" target="_top" xlink:title="Returns the time. ">
<polygon fill="white" stroke="black" points="656,-29.5 656,-50.5 787,-50.5 787,-29.5 656,-29.5"/>
<text text-anchor="middle" x="721.5" y="-36.9" font-family="Ubuntu Mono" font-size="12.00">messages::get_clock</text>
</a>
</g>
</g>
<!-- Node1&#45;&gt;Node3 -->
<g id="edge3" class="edge"><title>Node1&#45;&gt;Node3</title>
<path fill="none" stroke="midnightblue" d="M608.161,-53.6169C620.142,-52.1646 633.094,-50.5947 645.797,-49.0549"/>
<polygon fill="midnightblue" stroke="midnightblue" points="646.402,-52.5073 655.908,-47.8293 645.56,-45.5581 646.402,-52.5073"/>
</g>
<!-- Node6 -->
<g id="node7" class="node"><title>Node6</title>
<g id="a_node7"><a xlink:href="namespacemessages.html#a5686118397930f505259225f3688216b" target="_top" xlink:title="Print an array of dimension 1 on the screen. ">
<polygon fill="white" stroke="black" points="328,-20.5 328,-41.5 465,-41.5 465,-20.5 328,-20.5"/>
<text text-anchor="middle" x="396.5" y="-27.9" font-family="Ubuntu Mono" font-size="12.00">messages::print_ar_1</text>
</a>
</g>
</g>
<!-- Node5&#45;&gt;Node6 -->
<g id="edge6" class="edge"><title>Node5&#45;&gt;Node6</title>
<path fill="none" stroke="midnightblue" d="M292.084,-18.9045C300.538,-19.8933 309.237,-20.9108 317.83,-21.9158"/>
<polygon fill="midnightblue" stroke="midnightblue" points="317.508,-25.4019 327.847,-23.0874 318.322,-18.4493 317.508,-25.4019"/>
</g>
<!-- Node6&#45;&gt;Node1 -->
<g id="edge7" class="edge"><title>Node6&#45;&gt;Node1</title>
<path fill="none" stroke="midnightblue" d="M454.261,-41.5517C466.171,-43.7659 478.797,-46.113 490.907,-48.3642"/>
<polygon fill="midnightblue" stroke="midnightblue" points="490.46,-51.8409 500.931,-50.2276 491.739,-44.9588 490.46,-51.8409"/>
</g>
</g>
</svg>
