<?xml version="1.0" encoding="UTF-8" standalone="no"?>
<!DOCTYPE svg PUBLIC "-//W3C//DTD SVG 1.1//EN"
 "http://www.w3.org/Graphics/SVG/1.1/DTD/svg11.dtd">
<!-- Generated by graphviz version 2.38.0 (20140413.2041)
 -->
<!-- Title: set_bc_1 Pages: 1 -->
<svg width="836pt" height="43pt"
 viewBox="0.00 0.00 836.00 43.00" xmlns="http://www.w3.org/2000/svg" xmlns:xlink="http://www.w3.org/1999/xlink">
<g id="graph0" class="graph" transform="scale(1 1) rotate(0) translate(4 39)">
<title>set_bc_1</title>
<polygon fill="white" stroke="none" points="-4,4 -4,-39 832,-39 832,4 -4,4"/>
<!-- Node64 -->
<g id="node1" class="node"><title>Node64</title>
<polygon fill="#bfbfbf" stroke="black" points="0,-7 0,-28 65,-28 65,-7 0,-7"/>
<text text-anchor="middle" x="32.5" y="-14.4" font-family="Ubuntu Mono" font-size="12.00">set_bc_1</text>
</g>
<!-- Node65 -->
<g id="node2" class="node"><title>Node65</title>
<g id="a_node2"><a xlink:href="SLEPC__ops_8f90.html#a1d58436fdcad8037090c9ce1e50a9ae1" target="_top" xlink:title="disp_mat_info">
<polygon fill="white" stroke="black" points="101,-7 101,-28 196,-28 196,-7 101,-7"/>
<text text-anchor="middle" x="148.5" y="-14.4" font-family="Ubuntu Mono" font-size="12.00">disp_mat_info</text>
</a>
</g>
</g>
<!-- Node64&#45;&gt;Node65 -->
<g id="edge1" class="edge"><title>Node64&#45;&gt;Node65</title>
<path fill="none" stroke="midnightblue" d="M75.4753,-17.5C83.7834,-17.5 92.5502,-17.5 100.998,-17.5"/>
<polygon fill="midnightblue" stroke="midnightblue" points="75.2554,-14.0001 65.2554,-17.5 75.2553,-21.0001 75.2554,-14.0001"/>
</g>
<!-- Node66 -->
<g id="node3" class="node"><title>Node66</title>
<g id="a_node3"><a xlink:href="namespaceslepc__ops.html#af8aa2b9b7c5154ebd595afce3f5ebcd0" target="_top" xlink:title="slepc_ops::setup_mats">
<polygon fill="white" stroke="black" points="232,-7 232,-28 375,-28 375,-7 232,-7"/>
<text text-anchor="middle" x="303.5" y="-14.4" font-family="Ubuntu Mono" font-size="12.00">slepc_ops::setup_mats</text>
</a>
</g>
</g>
<!-- Node65&#45;&gt;Node66 -->
<g id="edge2" class="edge"><title>Node65&#45;&gt;Node66</title>
<path fill="none" stroke="midnightblue" d="M206.492,-17.5C214.751,-17.5 223.334,-17.5 231.822,-17.5"/>
<polygon fill="midnightblue" stroke="midnightblue" points="206.236,-14.0001 196.236,-17.5 206.236,-21.0001 206.236,-14.0001"/>
</g>
<!-- Node67 -->
<g id="node4" class="node"><title>Node67</title>
<g id="a_node4"><a xlink:href="namespaceslepc__ops.html#ad9d4a9b7275ac5a6b9b35e481a7c1710" target="_top" xlink:title="slepc_ops::solve_ev\l_system_slepc">
<polygon fill="white" stroke="black" points="411,-0.5 411,-34.5 542,-34.5 542,-0.5 411,-0.5"/>
<text text-anchor="start" x="419" y="-20.9" font-family="Ubuntu Mono" font-size="12.00">slepc_ops::solve_ev</text>
<text text-anchor="middle" x="476.5" y="-7.9" font-family="Ubuntu Mono" font-size="12.00">_system_slepc</text>
</a>
</g>
</g>
<!-- Node66&#45;&gt;Node67 -->
<g id="edge3" class="edge"><title>Node66&#45;&gt;Node67</title>
<path fill="none" stroke="midnightblue" d="M385.126,-17.5C393.762,-17.5 402.465,-17.5 410.881,-17.5"/>
<polygon fill="midnightblue" stroke="midnightblue" points="385.04,-14.0001 375.04,-17.5 385.039,-21.0001 385.04,-14.0001"/>
</g>
<!-- Node68 -->
<g id="node5" class="node"><title>Node68</title>
<g id="a_node5"><a xlink:href="namespacedriver__sol.html#a208ddea649ee160b7a55da8d0a5d4847" target="_top" xlink:title="driver_sol::run_driver_sol">
<polygon fill="white" stroke="black" points="578,-7 578,-28 751,-28 751,-7 578,-7"/>
<text text-anchor="middle" x="664.5" y="-14.4" font-family="Ubuntu Mono" font-size="12.00">driver_sol::run_driver_sol</text>
</a>
</g>
</g>
<!-- Node67&#45;&gt;Node68 -->
<g id="edge4" class="edge"><title>Node67&#45;&gt;Node68</title>
<path fill="none" stroke="midnightblue" d="M552.183,-17.5C560.607,-17.5 569.239,-17.5 577.788,-17.5"/>
<polygon fill="midnightblue" stroke="midnightblue" points="552.032,-14.0001 542.032,-17.5 552.032,-21.0001 552.032,-14.0001"/>
</g>
<!-- Node69 -->
<g id="node6" class="node"><title>Node69</title>
<g id="a_node6"><a xlink:href="PB3D_8f90.html#afaee01f014ab3398eecac996b2795fd2" target="_top" xlink:title="pb3d">
<polygon fill="white" stroke="black" points="787,-7 787,-28 828,-28 828,-7 787,-7"/>
<text text-anchor="middle" x="807.5" y="-14.4" font-family="Ubuntu Mono" font-size="12.00">pb3d</text>
</a>
</g>
</g>
<!-- Node68&#45;&gt;Node69 -->
<g id="edge5" class="edge"><title>Node68&#45;&gt;Node69</title>
<path fill="none" stroke="midnightblue" d="M761.337,-17.5C770.873,-17.5 779.695,-17.5 786.964,-17.5"/>
<polygon fill="midnightblue" stroke="midnightblue" points="761.178,-14.0001 751.178,-17.5 761.178,-21.0001 761.178,-14.0001"/>
</g>
</g>
</svg>
