<?xml version="1.0" encoding="UTF-8" standalone="no"?>
<!DOCTYPE svg PUBLIC "-//W3C//DTD SVG 1.1//EN"
 "http://www.w3.org/Graphics/SVG/1.1/DTD/svg11.dtd">
<!-- Generated by graphviz version 2.38.0 (20140413.2041)
 -->
<!-- Title: fill_mat Pages: 1 -->
<svg width="705pt" height="43pt"
 viewBox="0.00 0.00 705.00 43.00" xmlns="http://www.w3.org/2000/svg" xmlns:xlink="http://www.w3.org/1999/xlink">
<g id="graph0" class="graph" transform="scale(1 1) rotate(0) translate(4 39)">
<title>fill_mat</title>
<polygon fill="white" stroke="none" points="-4,4 -4,-39 701,-39 701,4 -4,4"/>
<!-- Node37 -->
<g id="node1" class="node"><title>Node37</title>
<polygon fill="#bfbfbf" stroke="black" points="0,-7 0,-28 65,-28 65,-7 0,-7"/>
<text text-anchor="middle" x="32.5" y="-14.4" font-family="Ubuntu Mono" font-size="12.00">fill_mat</text>
</g>
<!-- Node38 -->
<g id="node2" class="node"><title>Node38</title>
<g id="a_node2"><a xlink:href="namespaceslepc__ops.html#af8aa2b9b7c5154ebd595afce3f5ebcd0" target="_top" xlink:title="slepc_ops::setup_mats">
<polygon fill="white" stroke="black" points="101,-7 101,-28 244,-28 244,-7 101,-7"/>
<text text-anchor="middle" x="172.5" y="-14.4" font-family="Ubuntu Mono" font-size="12.00">slepc_ops::setup_mats</text>
</a>
</g>
</g>
<!-- Node37&#45;&gt;Node38 -->
<g id="edge1" class="edge"><title>Node37&#45;&gt;Node38</title>
<path fill="none" stroke="midnightblue" d="M75.4138,-17.5C83.5084,-17.5 92.1942,-17.5 100.914,-17.5"/>
<polygon fill="midnightblue" stroke="midnightblue" points="75.16,-14.0001 65.16,-17.5 75.16,-21.0001 75.16,-14.0001"/>
</g>
<!-- Node39 -->
<g id="node3" class="node"><title>Node39</title>
<g id="a_node3"><a xlink:href="namespaceslepc__ops.html#ad9d4a9b7275ac5a6b9b35e481a7c1710" target="_top" xlink:title="slepc_ops::solve_ev\l_system_slepc">
<polygon fill="white" stroke="black" points="280,-0.5 280,-34.5 411,-34.5 411,-0.5 280,-0.5"/>
<text text-anchor="start" x="288" y="-20.9" font-family="Ubuntu Mono" font-size="12.00">slepc_ops::solve_ev</text>
<text text-anchor="middle" x="345.5" y="-7.9" font-family="Ubuntu Mono" font-size="12.00">_system_slepc</text>
</a>
</g>
</g>
<!-- Node38&#45;&gt;Node39 -->
<g id="edge2" class="edge"><title>Node38&#45;&gt;Node39</title>
<path fill="none" stroke="midnightblue" d="M254.126,-17.5C262.762,-17.5 271.465,-17.5 279.881,-17.5"/>
<polygon fill="midnightblue" stroke="midnightblue" points="254.04,-14.0001 244.04,-17.5 254.039,-21.0001 254.04,-14.0001"/>
</g>
<!-- Node40 -->
<g id="node4" class="node"><title>Node40</title>
<g id="a_node4"><a xlink:href="namespacedriver__sol.html#a208ddea649ee160b7a55da8d0a5d4847" target="_top" xlink:title="driver_sol::run_driver_sol">
<polygon fill="white" stroke="black" points="447,-7 447,-28 620,-28 620,-7 447,-7"/>
<text text-anchor="middle" x="533.5" y="-14.4" font-family="Ubuntu Mono" font-size="12.00">driver_sol::run_driver_sol</text>
</a>
</g>
</g>
<!-- Node39&#45;&gt;Node40 -->
<g id="edge3" class="edge"><title>Node39&#45;&gt;Node40</title>
<path fill="none" stroke="midnightblue" d="M421.183,-17.5C429.607,-17.5 438.239,-17.5 446.788,-17.5"/>
<polygon fill="midnightblue" stroke="midnightblue" points="421.032,-14.0001 411.032,-17.5 421.032,-21.0001 421.032,-14.0001"/>
</g>
<!-- Node41 -->
<g id="node5" class="node"><title>Node41</title>
<g id="a_node5"><a xlink:href="PB3D_8f90.html#afaee01f014ab3398eecac996b2795fd2" target="_top" xlink:title="pb3d">
<polygon fill="white" stroke="black" points="656,-7 656,-28 697,-28 697,-7 656,-7"/>
<text text-anchor="middle" x="676.5" y="-14.4" font-family="Ubuntu Mono" font-size="12.00">pb3d</text>
</a>
</g>
</g>
<!-- Node40&#45;&gt;Node41 -->
<g id="edge4" class="edge"><title>Node40&#45;&gt;Node41</title>
<path fill="none" stroke="midnightblue" d="M630.337,-17.5C639.873,-17.5 648.695,-17.5 655.964,-17.5"/>
<polygon fill="midnightblue" stroke="midnightblue" points="630.178,-14.0001 620.178,-17.5 630.178,-21.0001 630.178,-14.0001"/>
</g>
</g>
</svg>
