<?xml version="1.0" encoding="UTF-8" standalone="no"?>
<!DOCTYPE svg PUBLIC "-//W3C//DTD SVG 1.1//EN"
 "http://www.w3.org/Graphics/SVG/1.1/DTD/svg11.dtd">
<!-- Generated by graphviz version 2.38.0 (20140413.2041)
 -->
<!-- Title: set_bc_1 Pages: 1 -->
<svg width="1171pt" height="296pt"
 viewBox="0.00 0.00 1171.00 296.24" xmlns="http://www.w3.org/2000/svg" xmlns:xlink="http://www.w3.org/1999/xlink">
<g id="graph0" class="graph" transform="scale(1 1) rotate(0) translate(4 292.236)">
<title>set_bc_1</title>
<polygon fill="white" stroke="none" points="-4,4 -4,-292.236 1167,-292.236 1167,4 -4,4"/>
<!-- Node48 -->
<g id="node1" class="node"><title>Node48</title>
<polygon fill="#bfbfbf" stroke="black" points="0,-153.5 0,-174.5 65,-174.5 65,-153.5 0,-153.5"/>
<text text-anchor="middle" x="32.5" y="-160.9" font-family="Ubuntu Mono" font-size="12.00">set_bc_1</text>
</g>
<!-- Node49 -->
<g id="node2" class="node"><title>Node49</title>
<g id="a_node2"><a xlink:href="namespacemessages.html#aa4a8d01563e92558e8a0875b075ec54c" target="_top" xlink:title="messages::writo">
<polygon fill="white" stroke="black" points="698,-119.5 698,-140.5 805,-140.5 805,-119.5 698,-119.5"/>
<text text-anchor="middle" x="751.5" y="-126.9" font-family="Ubuntu Mono" font-size="12.00">messages::writo</text>
</a>
</g>
</g>
<!-- Node48&#45;&gt;Node49 -->
<g id="edge1" class="edge"><title>Node48&#45;&gt;Node49</title>
<path fill="none" stroke="midnightblue" d="M39.1048,-174.619C48.9976,-192.177 71.3458,-226.917 101,-243 245.884,-321.576 306.324,-274.885 471,-268 556.112,-264.441 587.796,-293.838 662,-252 703.006,-228.88 730.085,-178.003 742.56,-149.801"/>
<polygon fill="midnightblue" stroke="midnightblue" points="745.81,-151.102 746.494,-140.53 739.366,-148.368 745.81,-151.102"/>
</g>
<!-- Node53 -->
<g id="node6" class="node"><title>Node53</title>
<g id="a_node6"><a xlink:href="namespacestr__utilities.html#a0b97e51770725a3e98ed393d26681414" target="_top" xlink:title="str_utilities::i2str">
<polygon fill="white" stroke="black" points="313,-197.5 313,-218.5 450,-218.5 450,-197.5 313,-197.5"/>
<text text-anchor="middle" x="381.5" y="-204.9" font-family="Ubuntu Mono" font-size="12.00">str_utilities::i2str</text>
</a>
</g>
</g>
<!-- Node48&#45;&gt;Node53 -->
<g id="edge5" class="edge"><title>Node48&#45;&gt;Node53</title>
<path fill="none" stroke="midnightblue" d="M54.8237,-174.574C67.8335,-180.503 84.9898,-187.409 101,-191 167.873,-205.998 245.853,-209.633 302.429,-209.872"/>
<polygon fill="midnightblue" stroke="midnightblue" points="302.733,-213.372 312.736,-209.879 302.738,-206.372 302.733,-213.372"/>
</g>
<!-- Node54 -->
<g id="node7" class="node"><title>Node54</title>
<g id="a_node7"><a xlink:href="namespaceslepc__utilities.html#ae6568f825f3fa8a6e3d45f67f3daf412" target="_top" xlink:title="slepc_utilities::insert\l_block_mat">
<polygon fill="white" stroke="black" points="101,-147 101,-181 256,-181 256,-147 101,-147"/>
<text text-anchor="start" x="109" y="-167.4" font-family="Ubuntu Mono" font-size="12.00">slepc_utilities::insert</text>
<text text-anchor="middle" x="178.5" y="-154.4" font-family="Ubuntu Mono" font-size="12.00">_block_mat</text>
</a>
</g>
</g>
<!-- Node48&#45;&gt;Node54 -->
<g id="edge6" class="edge"><title>Node48&#45;&gt;Node54</title>
<path fill="none" stroke="midnightblue" d="M65.1014,-164C72.8611,-164 81.5464,-164 90.5583,-164"/>
<polygon fill="midnightblue" stroke="midnightblue" points="90.8401,-167.5 100.84,-164 90.84,-160.5 90.8401,-167.5"/>
</g>
<!-- Node59 -->
<g id="node12" class="node"><title>Node59</title>
<g id="a_node12"><a xlink:href="namespacemessages.html#a6e6bfb084063e4cc91ee86e542043302" target="_top" xlink:title="messages::lvl_ud">
<polygon fill="white" stroke="black" points="325,-237.5 325,-258.5 438,-258.5 438,-237.5 325,-237.5"/>
<text text-anchor="middle" x="381.5" y="-244.9" font-family="Ubuntu Mono" font-size="12.00">messages::lvl_ud</text>
</a>
</g>
</g>
<!-- Node48&#45;&gt;Node59 -->
<g id="edge23" class="edge"><title>Node48&#45;&gt;Node59</title>
<path fill="none" stroke="midnightblue" d="M44.3726,-174.635C56.8985,-186.187 78.6431,-204.168 101,-213 170.508,-240.46 256.634,-247.608 314.766,-248.909"/>
<polygon fill="midnightblue" stroke="midnightblue" points="314.866,-252.411 324.925,-249.083 314.986,-245.412 314.866,-252.411"/>
</g>
<!-- Node60 -->
<g id="node13" class="node"><title>Node60</title>
<g id="a_node13"><a xlink:href="namespacemessages.html#a80797cedef6112b8dccaeda431f0c610" target="_top" xlink:title="messages::print_ar_2">
<polygon fill="white" stroke="black" points="313,-79.5 313,-100.5 450,-100.5 450,-79.5 313,-79.5"/>
<text text-anchor="middle" x="381.5" y="-86.9" font-family="Ubuntu Mono" font-size="12.00">messages::print_ar_2</text>
</a>
</g>
</g>
<!-- Node48&#45;&gt;Node60 -->
<g id="edge22" class="edge"><title>Node48&#45;&gt;Node60</title>
<path fill="none" stroke="midnightblue" d="M57.4807,-153.432C70.2073,-148.166 86.2297,-142.07 101,-138 168.054,-119.524 246.215,-106.822 302.806,-99.1483"/>
<polygon fill="midnightblue" stroke="midnightblue" points="303.31,-102.612 312.759,-97.8203 302.384,-95.6737 303.31,-102.612"/>
</g>
<!-- Node62 -->
<g id="node15" class="node"><title>Node62</title>
<g id="a_node15"><a xlink:href="namespacenum__utilities.html#a5ee3fbd1fe67d0deefc7194631389f2a" target="_top" xlink:title="num_utilities::c">
<polygon fill="white" stroke="black" points="122,-68.5 122,-89.5 235,-89.5 235,-68.5 122,-68.5"/>
<text text-anchor="middle" x="178.5" y="-75.9" font-family="Ubuntu Mono" font-size="12.00">num_utilities::c</text>
</a>
</g>
</g>
<!-- Node48&#45;&gt;Node62 -->
<g id="edge21" class="edge"><title>Node48&#45;&gt;Node62</title>
<path fill="none" stroke="midnightblue" d="M42.9792,-153.197C55.1819,-139.898 77.6133,-117.429 101,-104 108.571,-99.6525 117.004,-95.9379 125.426,-92.8062"/>
<polygon fill="midnightblue" stroke="midnightblue" points="126.59,-96.1071 134.885,-89.5155 124.29,-89.4958 126.59,-96.1071"/>
</g>
<!-- Node63 -->
<g id="node16" class="node"><title>Node63</title>
<g id="a_node16"><a xlink:href="namespacestr__utilities.html#a92ac6c0af1979df094de1caddd28ade0" target="_top" xlink:title="str_utilities::r2str">
<polygon fill="white" stroke="black" points="110,-28.5 110,-49.5 247,-49.5 247,-28.5 110,-28.5"/>
<text text-anchor="middle" x="178.5" y="-35.9" font-family="Ubuntu Mono" font-size="12.00">str_utilities::r2str</text>
</a>
</g>
</g>
<!-- Node48&#45;&gt;Node63 -->
<g id="edge24" class="edge"><title>Node48&#45;&gt;Node63</title>
<path fill="none" stroke="midnightblue" d="M37.3447,-153.183C45.5342,-131.748 66.794,-83.8138 101,-59 103.53,-57.1649 106.214,-55.498 109.007,-53.984"/>
<polygon fill="midnightblue" stroke="midnightblue" points="110.669,-57.07 118.232,-49.6497 107.692,-50.7344 110.669,-57.07"/>
</g>
<!-- Node50 -->
<g id="node3" class="node"><title>Node50</title>
<g id="a_node3"><a xlink:href="namespacemessages.html#a82dddaab795b78b3d39e1ff1aab2f665" target="_top" xlink:title="messages::get_mem_usage">
<polygon fill="white" stroke="black" points="841,-139.5 841,-160.5 996,-160.5 996,-139.5 841,-139.5"/>
<text text-anchor="middle" x="918.5" y="-146.9" font-family="Ubuntu Mono" font-size="12.00">messages::get_mem_usage</text>
</a>
</g>
</g>
<!-- Node49&#45;&gt;Node50 -->
<g id="edge2" class="edge"><title>Node49&#45;&gt;Node50</title>
<path fill="none" stroke="midnightblue" d="M805.161,-136.383C813.452,-137.388 822.208,-138.449 831.025,-139.518"/>
<polygon fill="midnightblue" stroke="midnightblue" points="830.635,-142.996 840.984,-140.725 831.478,-136.047 830.635,-142.996"/>
</g>
<!-- Node51 -->
<g id="node4" class="node"><title>Node51</title>
<g id="a_node4"><a xlink:href="messages_8f90.html#a6d15f28783f95a7a4b2a44185619792f" target="_top" xlink:title="format_str">
<polygon fill="white" stroke="black" points="880,-99.5 880,-120.5 957,-120.5 957,-99.5 880,-99.5"/>
<text text-anchor="middle" x="918.5" y="-106.9" font-family="Ubuntu Mono" font-size="12.00">format_str</text>
</a>
</g>
</g>
<!-- Node49&#45;&gt;Node51 -->
<g id="edge3" class="edge"><title>Node49&#45;&gt;Node51</title>
<path fill="none" stroke="midnightblue" d="M805.161,-123.617C825.977,-121.094 849.722,-118.216 870.002,-115.757"/>
<polygon fill="midnightblue" stroke="midnightblue" points="870.448,-119.229 879.954,-114.551 869.606,-112.28 870.448,-119.229"/>
</g>
<!-- Node52 -->
<g id="node5" class="node"><title>Node52</title>
<g id="a_node5"><a xlink:href="namespacemessages.html#a61fd0b51b5e37d58fdc993c01792a3fd" target="_top" xlink:title="messages::get_clock">
<polygon fill="white" stroke="black" points="1032,-99.5 1032,-120.5 1163,-120.5 1163,-99.5 1032,-99.5"/>
<text text-anchor="middle" x="1097.5" y="-106.9" font-family="Ubuntu Mono" font-size="12.00">messages::get_clock</text>
</a>
</g>
</g>
<!-- Node51&#45;&gt;Node52 -->
<g id="edge4" class="edge"><title>Node51&#45;&gt;Node52</title>
<path fill="none" stroke="midnightblue" d="M957.037,-110C975.869,-110 999.372,-110 1021.68,-110"/>
<polygon fill="midnightblue" stroke="midnightblue" points="1021.83,-113.5 1031.83,-110 1021.83,-106.5 1021.83,-113.5"/>
</g>
<!-- Node54&#45;&gt;Node49 -->
<g id="edge14" class="edge"><title>Node54&#45;&gt;Node49</title>
<path fill="none" stroke="midnightblue" d="M256.062,-170.816C382.384,-181.637 624.318,-200.409 662,-189 688.639,-180.934 714.588,-161.914 731.425,-147.634"/>
<polygon fill="midnightblue" stroke="midnightblue" points="734.143,-149.906 739.355,-140.682 729.528,-144.643 734.143,-149.906"/>
</g>
<!-- Node54&#45;&gt;Node53 -->
<g id="edge15" class="edge"><title>Node54&#45;&gt;Node53</title>
<path fill="none" stroke="midnightblue" d="M256.063,-180.76C278.087,-185.581 301.739,-190.759 322.446,-195.292"/>
<polygon fill="midnightblue" stroke="midnightblue" points="321.837,-198.741 332.354,-197.461 323.334,-191.903 321.837,-198.741"/>
</g>
<!-- Node55 -->
<g id="node8" class="node"><title>Node55</title>
<g id="a_node8"><a xlink:href="namespaceinput__utilities.html#a71bd36f063d55ab62c7a37864aef1185" target="_top" xlink:title="input_utilities::pause_prog">
<polygon fill="white" stroke="black" points="292,-119.5 292,-140.5 471,-140.5 471,-119.5 292,-119.5"/>
<text text-anchor="middle" x="381.5" y="-126.9" font-family="Ubuntu Mono" font-size="12.00">input_utilities::pause_prog</text>
</a>
</g>
</g>
<!-- Node54&#45;&gt;Node55 -->
<g id="edge7" class="edge"><title>Node54&#45;&gt;Node55</title>
<path fill="none" stroke="midnightblue" d="M256.063,-151.049C273.06,-148.174 291.026,-145.135 307.86,-142.287"/>
<polygon fill="midnightblue" stroke="midnightblue" points="308.901,-145.661 318.177,-140.542 307.733,-138.759 308.901,-145.661"/>
</g>
<!-- Node54&#45;&gt;Node59 -->
<g id="edge16" class="edge"><title>Node54&#45;&gt;Node59</title>
<path fill="none" stroke="midnightblue" d="M204.785,-181.28C226.907,-195.675 260.362,-215.738 292,-228 299.414,-230.873 307.345,-233.391 315.3,-235.582"/>
<polygon fill="midnightblue" stroke="midnightblue" points="314.425,-238.971 324.984,-238.094 316.183,-232.195 314.425,-238.971"/>
</g>
<!-- Node54&#45;&gt;Node60 -->
<g id="edge18" class="edge"><title>Node54&#45;&gt;Node60</title>
<path fill="none" stroke="midnightblue" d="M223.715,-146.852C234.427,-142.33 245.744,-137.24 256,-132 272.698,-123.468 274.624,-117.049 292,-110 298.178,-107.493 304.733,-105.269 311.371,-103.302"/>
<polygon fill="midnightblue" stroke="midnightblue" points="312.418,-106.644 321.121,-100.601 310.55,-99.8977 312.418,-106.644"/>
</g>
<!-- Node55&#45;&gt;Node49 -->
<g id="edge13" class="edge"><title>Node55&#45;&gt;Node49</title>
<path fill="none" stroke="midnightblue" d="M471.113,-130C538.062,-130 628.298,-130 687.878,-130"/>
<polygon fill="midnightblue" stroke="midnightblue" points="687.901,-133.5 697.901,-130 687.901,-126.5 687.901,-133.5"/>
</g>
<!-- Node56 -->
<g id="node9" class="node"><title>Node56</title>
<g id="a_node9"><a xlink:href="namespacempi__utilities.html#a790ea24d32dd0e249541c1e57cd85536" target="_top" xlink:title="mpi_utilities::wait_mpi">
<polygon fill="white" stroke="black" points="507,-158.5 507,-179.5 662,-179.5 662,-158.5 507,-158.5"/>
<text text-anchor="middle" x="584.5" y="-165.9" font-family="Ubuntu Mono" font-size="12.00">mpi_utilities::wait_mpi</text>
</a>
</g>
</g>
<!-- Node55&#45;&gt;Node56 -->
<g id="edge8" class="edge"><title>Node55&#45;&gt;Node56</title>
<path fill="none" stroke="midnightblue" d="M436.629,-140.503C462.095,-145.444 492.65,-151.372 519.28,-156.539"/>
<polygon fill="midnightblue" stroke="midnightblue" points="518.791,-160.01 529.275,-158.479 520.124,-153.138 518.791,-160.01"/>
</g>
<!-- Node57 -->
<g id="node10" class="node"><title>Node57</title>
<g id="a_node10"><a xlink:href="namespacemessages.html#a2a1154de25763d4894275ff4307b6862" target="_top" xlink:title="messages::stop_time">
<polygon fill="white" stroke="black" points="519,-80.5 519,-101.5 650,-101.5 650,-80.5 519,-80.5"/>
<text text-anchor="middle" x="584.5" y="-87.9" font-family="Ubuntu Mono" font-size="12.00">messages::stop_time</text>
</a>
</g>
</g>
<!-- Node55&#45;&gt;Node57 -->
<g id="edge9" class="edge"><title>Node55&#45;&gt;Node57</title>
<path fill="none" stroke="midnightblue" d="M436.629,-119.497C462.095,-114.556 492.65,-108.628 519.28,-103.461"/>
<polygon fill="midnightblue" stroke="midnightblue" points="520.124,-106.862 529.275,-101.521 518.791,-99.9903 520.124,-106.862"/>
</g>
<!-- Node58 -->
<g id="node11" class="node"><title>Node58</title>
<g id="a_node11"><a xlink:href="namespacemessages.html#ad997c3dff64c512e0070ce8816c28e7f" target="_top" xlink:title="messages::start_time">
<polygon fill="white" stroke="black" points="516,-40.5 516,-61.5 653,-61.5 653,-40.5 516,-40.5"/>
<text text-anchor="middle" x="584.5" y="-47.9" font-family="Ubuntu Mono" font-size="12.00">messages::start_time</text>
</a>
</g>
</g>
<!-- Node55&#45;&gt;Node58 -->
<g id="edge11" class="edge"><title>Node55&#45;&gt;Node58</title>
<path fill="none" stroke="midnightblue" d="M449.405,-119.49C456.949,-116.976 464.316,-113.861 471,-110 491.426,-98.201 486.774,-83.139 507,-71 510.575,-68.8542 514.379,-66.9361 518.307,-65.2218"/>
<polygon fill="midnightblue" stroke="midnightblue" points="519.602,-68.4736 527.648,-61.5804 517.059,-61.9516 519.602,-68.4736"/>
</g>
<!-- Node57&#45;&gt;Node49 -->
<g id="edge10" class="edge"><title>Node57&#45;&gt;Node49</title>
<path fill="none" stroke="midnightblue" d="M630.151,-101.554C650.42,-106.345 674.579,-112.055 695.915,-117.098"/>
<polygon fill="midnightblue" stroke="midnightblue" points="695.276,-120.543 705.813,-119.438 696.886,-113.731 695.276,-120.543"/>
</g>
<!-- Node58&#45;&gt;Node49 -->
<g id="edge12" class="edge"><title>Node58&#45;&gt;Node49</title>
<path fill="none" stroke="midnightblue" d="M635.708,-61.5669C644.646,-64.164 653.734,-67.2902 662,-71 686.676,-82.0745 712.086,-99.7901 729.312,-112.922"/>
<polygon fill="midnightblue" stroke="midnightblue" points="727.485,-115.935 737.527,-119.312 731.783,-110.41 727.485,-115.935"/>
</g>
<!-- Node59&#45;&gt;Node49 -->
<g id="edge17" class="edge"><title>Node59&#45;&gt;Node49</title>
<path fill="none" stroke="midnightblue" d="M438.023,-253.844C496.687,-257.581 590.43,-256.464 662,-222 695.721,-205.762 723.465,-170.912 738.443,-149.072"/>
<polygon fill="midnightblue" stroke="midnightblue" points="741.451,-150.869 744.061,-140.601 735.617,-147.001 741.451,-150.869"/>
</g>
<!-- Node61 -->
<g id="node14" class="node"><title>Node61</title>
<g id="a_node14"><a xlink:href="namespacemessages.html#a5686118397930f505259225f3688216b" target="_top" xlink:title="messages::print_ar_1">
<polygon fill="white" stroke="black" points="516,-0.5 516,-21.5 653,-21.5 653,-0.5 516,-0.5"/>
<text text-anchor="middle" x="584.5" y="-7.9" font-family="Ubuntu Mono" font-size="12.00">messages::print_ar_1</text>
</a>
</g>
</g>
<!-- Node60&#45;&gt;Node61 -->
<g id="edge19" class="edge"><title>Node60&#45;&gt;Node61</title>
<path fill="none" stroke="midnightblue" d="M401.851,-79.4335C425.928,-66.616 468.566,-44.9915 507,-31 513.5,-28.6337 520.405,-26.424 527.304,-24.401"/>
<polygon fill="midnightblue" stroke="midnightblue" points="528.68,-27.65 537.36,-21.5742 526.786,-20.9112 528.68,-27.65"/>
</g>
<!-- Node61&#45;&gt;Node49 -->
<g id="edge20" class="edge"><title>Node61&#45;&gt;Node49</title>
<path fill="none" stroke="midnightblue" d="M641.81,-21.6267C648.875,-24.1261 655.792,-27.2063 662,-31 695.542,-51.4967 723.663,-88.6081 738.705,-111.109"/>
<polygon fill="midnightblue" stroke="midnightblue" points="735.772,-113.02 744.157,-119.496 741.641,-109.204 735.772,-113.02"/>
</g>
</g>
</svg>
