<?xml version="1.0" encoding="UTF-8" standalone="no"?>
<!DOCTYPE svg PUBLIC "-//W3C//DTD SVG 1.1//EN"
 "http://www.w3.org/Graphics/SVG/1.1/DTD/svg11.dtd">
<!-- Generated by graphviz version 14.1.2 (20260124.0452)
 -->
<!-- Title: on_field_line Pages: 1 -->
<svg width="742pt" height="29pt"
 viewBox="0.00 0.00 742.00 29.00" xmlns="http://www.w3.org/2000/svg" xmlns:xlink="http://www.w3.org/1999/xlink">
<g id="graph0" class="graph" transform="scale(1 1) rotate(0) translate(4 24.75)">
<title>on_field_line</title>
<!-- Node1 -->
<g id="Node000001" class="node">
<title>Node1</title>
<g id="a_Node000001"><a xlink:title=" ">
<polygon fill="#999999" stroke="#666666" points="734,-20.75 640,-20.75 640,0 734,0 734,-20.75"/>
<text xml:space="preserve" text-anchor="middle" x="687" y="-5.35" font-family="Ubuntu Mono" font-size="12.00">on_field_line</text>
</a>
</g>
</g>
<!-- Node2 -->
<g id="Node000002" class="node">
<title>Node2</title>
<g id="a_Node000002"><a xlink:href="namespacevac__ops.html#aa0e2983daefe876c0eb16be9af046a97" target="_top" xlink:title="Calculates matrices G and H in 3&#45;D configuration.">
<polygon fill="white" stroke="#666666" points="604,-20.75 480,-20.75 480,0 604,0 604,-20.75"/>
<text xml:space="preserve" text-anchor="middle" x="542" y="-5.35" font-family="Ubuntu Mono" font-size="12.00">vac_ops::calc_gh_1</text>
</a>
</g>
</g>
<!-- Node1&#45;&gt;Node2 -->
<g id="edge1_Node000001_Node000002" class="edge">
<title>Node1&#45;&gt;Node2</title>
<g id="a_edge1_Node000001_Node000002"><a xlink:title=" ">
<path fill="none" stroke="#63b8ff" d="M628.23,-10.38C620.35,-10.38 612.24,-10.38 604.29,-10.38"/>
<polygon fill="#63b8ff" stroke="#63b8ff" points="628.06,-13.88 638.06,-10.38 628.06,-6.88 628.06,-13.88"/>
</a>
</g>
</g>
<!-- Node3 -->
<g id="Node000003" class="node">
<title>Node3</title>
<g id="a_Node000003"><a xlink:href="namespacevac__ops.html#a37220702fbf378626a0f2c12f446e0aa" target="_top" xlink:title="Stores calculation of the vacuum response by storing the necessary variables.">
<polygon fill="white" stroke="#666666" points="444,-20.75 320,-20.75 320,0 444,0 444,-20.75"/>
<text xml:space="preserve" text-anchor="middle" x="382" y="-5.35" font-family="Ubuntu Mono" font-size="12.00">vac_ops::store_vac</text>
</a>
</g>
</g>
<!-- Node2&#45;&gt;Node3 -->
<g id="edge2_Node000002_Node000003" class="edge">
<title>Node2&#45;&gt;Node3</title>
<g id="a_edge2_Node000002_Node000003"><a xlink:title=" ">
<path fill="none" stroke="#63b8ff" d="M468.6,-10.38C460.53,-10.38 452.36,-10.38 444.45,-10.38"/>
<polygon fill="#63b8ff" stroke="#63b8ff" points="468.4,-13.88 478.4,-10.38 468.4,-6.88 468.4,-13.88"/>
</a>
</g>
</g>
<!-- Node4 -->
<g id="Node000004" class="node">
<title>Node4</title>
<g id="a_Node000004"><a xlink:href="namespacedriver__eq.html#a40d652e15887ad4f788a3945e6253571" target="_top" xlink:title="Main driver of PB3D equilibrium part.">
<polygon fill="white" stroke="#666666" points="284,-20.75 124,-20.75 124,0 284,0 284,-20.75"/>
<text xml:space="preserve" text-anchor="middle" x="204" y="-5.35" font-family="Ubuntu Mono" font-size="12.00">driver_eq::run_driver_eq</text>
</a>
</g>
</g>
<!-- Node3&#45;&gt;Node4 -->
<g id="edge3_Node000003_Node000004" class="edge">
<title>Node3&#45;&gt;Node4</title>
<g id="a_edge3_Node000003_Node000004"><a xlink:title=" ">
<path fill="none" stroke="#63b8ff" d="M308.69,-10.38C300.63,-10.38 292.39,-10.38 284.24,-10.38"/>
<polygon fill="#63b8ff" stroke="#63b8ff" points="308.42,-13.88 318.42,-10.38 308.42,-6.88 308.42,-13.88"/>
</a>
</g>
</g>
<!-- Node5 -->
<g id="Node000005" class="node">
<title>Node5</title>
<g id="a_Node000005"><a xlink:href="PB3D_8f90.html#a36e5b0ce05c9783f58b43c4463b290a1" target="_top" xlink:title="Peeling Ballooning in 3D.">
<polygon fill="white" stroke="#666666" points="88,-20.75 0,-20.75 0,0 88,0 88,-20.75"/>
<text xml:space="preserve" text-anchor="middle" x="44" y="-5.35" font-family="Ubuntu Mono" font-size="12.00">__pb3d_f90__</text>
</a>
</g>
</g>
<!-- Node4&#45;&gt;Node5 -->
<g id="edge4_Node000004_Node000005" class="edge">
<title>Node4&#45;&gt;Node5</title>
<g id="a_edge4_Node000004_Node000005"><a xlink:title=" ">
<path fill="none" stroke="#63b8ff" d="M112.19,-10.38C103.93,-10.38 95.84,-10.38 88.3,-10.38"/>
<polygon fill="#63b8ff" stroke="#63b8ff" points="112.02,-13.88 122.02,-10.38 112.02,-6.88 112.02,-13.88"/>
</a>
</g>
</g>
</g>
</svg>
