<?xml version="1.0" encoding="UTF-8" standalone="no"?>
<!DOCTYPE svg PUBLIC "-//W3C//DTD SVG 1.1//EN"
 "http://www.w3.org/Graphics/SVG/1.1/DTD/svg11.dtd">
<!-- Generated by graphviz version 2.38.0 (20140413.2041)
 -->
<!-- Title: on_field_line Pages: 1 -->
<svg width="878pt" height="70pt"
 viewBox="0.00 0.00 878.00 70.00" xmlns="http://www.w3.org/2000/svg" xmlns:xlink="http://www.w3.org/1999/xlink">
<g id="graph0" class="graph" transform="scale(1 1) rotate(0) translate(4 66)">
<title>on_field_line</title>
<polygon fill="white" stroke="none" points="-4,4 -4,-66 874,-66 874,4 -4,4"/>
<!-- Node1 -->
<g id="node1" class="node"><title>Node1</title>
<polygon fill="#bfbfbf" stroke="black" points="0,-20.5 0,-41.5 95,-41.5 95,-20.5 0,-20.5"/>
<text text-anchor="middle" x="47.5" y="-27.9" font-family="Ubuntu Mono" font-size="12.00">on_field_line</text>
</g>
<!-- Node2 -->
<g id="node2" class="node"><title>Node2</title>
<g id="a_node2"><a xlink:href="namespacevac__ops.html#a267742c3c9a1b395aee76527d1e8352c" target="_top" xlink:title="Calculates matrices G and H in 3&#45;D configuration. ">
<polygon fill="white" stroke="black" points="131,-20.5 131,-41.5 256,-41.5 256,-20.5 131,-20.5"/>
<text text-anchor="middle" x="193.5" y="-27.9" font-family="Ubuntu Mono" font-size="12.00">vac_ops::calc_gh_1</text>
</a>
</g>
</g>
<!-- Node1&#45;&gt;Node2 -->
<g id="edge1" class="edge"><title>Node1&#45;&gt;Node2</title>
<path fill="none" stroke="midnightblue" d="M105.288,-31C113.658,-31 122.316,-31 130.78,-31"/>
<polygon fill="midnightblue" stroke="midnightblue" points="105.253,-27.5001 95.2527,-31 105.253,-34.5001 105.253,-27.5001"/>
</g>
<!-- Node3 -->
<g id="node3" class="node"><title>Node3</title>
<g id="a_node3"><a xlink:href="namespacevac__ops.html#a7e3f92fbe9fa6cf3de6ac301676b96d1" target="_top" xlink:title="Calculate the matrices G and H. ">
<polygon fill="white" stroke="black" points="292,-20.5 292,-41.5 405,-41.5 405,-20.5 292,-20.5"/>
<text text-anchor="middle" x="348.5" y="-27.9" font-family="Ubuntu Mono" font-size="12.00">vac_ops::calc_gh</text>
</a>
</g>
</g>
<!-- Node2&#45;&gt;Node3 -->
<g id="edge2" class="edge"><title>Node2&#45;&gt;Node3</title>
<path fill="none" stroke="midnightblue" d="M266.315,-31C274.909,-31 283.581,-31 291.897,-31"/>
<polygon fill="midnightblue" stroke="midnightblue" points="266.29,-27.5001 256.29,-31 266.29,-34.5001 266.29,-27.5001"/>
</g>
<!-- Node4 -->
<g id="node4" class="node"><title>Node4</title>
<g id="a_node4"><a xlink:href="namespacevac__ops.html#a5e5a8322b3aa2e3704b1050426f06d9d" target="_top" xlink:title="Calculates the vacuum response. ">
<polygon fill="white" stroke="black" points="441,-40.5 441,-61.5 584,-61.5 584,-40.5 441,-40.5"/>
<text text-anchor="middle" x="512.5" y="-47.9" font-family="Ubuntu Mono" font-size="12.00">vac_ops::calc_vac_res</text>
</a>
</g>
</g>
<!-- Node3&#45;&gt;Node4 -->
<g id="edge3" class="edge"><title>Node3&#45;&gt;Node4</title>
<path fill="none" stroke="midnightblue" d="M415.334,-39.1277C423.713,-40.162 432.315,-41.2241 440.767,-42.2675"/>
<polygon fill="midnightblue" stroke="midnightblue" points="415.605,-35.6346 405.251,-37.8829 414.747,-42.5818 415.605,-35.6346"/>
</g>
<!-- Node7 -->
<g id="node7" class="node"><title>Node7</title>
<g id="a_node7"><a xlink:href="namespacevac__ops.html#a3a2a3aed45951aecef42197b82a5a6da" target="_top" xlink:title="Calculate vacuum potential at some positions that are not resonant. ">
<polygon fill="white" stroke="black" points="441,-0.5 441,-21.5 584,-21.5 584,-0.5 441,-0.5"/>
<text text-anchor="middle" x="512.5" y="-7.9" font-family="Ubuntu Mono" font-size="12.00">vac_ops::vac_pot_plot</text>
</a>
</g>
</g>
<!-- Node3&#45;&gt;Node7 -->
<g id="edge6" class="edge"><title>Node3&#45;&gt;Node7</title>
<path fill="none" stroke="midnightblue" d="M415.334,-22.8723C423.713,-21.838 432.315,-20.7759 440.767,-19.7325"/>
<polygon fill="midnightblue" stroke="midnightblue" points="414.747,-19.4182 405.251,-24.1171 415.605,-26.3654 414.747,-19.4182"/>
</g>
<!-- Node5 -->
<g id="node5" class="node"><title>Node5</title>
<g id="a_node5"><a xlink:href="namespacedriver__sol.html#ad3b1765b3ecc5f82129bfc683ffc6c5c" target="_top" xlink:title="Main driver of PB3D solution part. ">
<polygon fill="white" stroke="black" points="620,-40.5 620,-61.5 793,-61.5 793,-40.5 620,-40.5"/>
<text text-anchor="middle" x="706.5" y="-47.9" font-family="Ubuntu Mono" font-size="12.00">driver_sol::run_driver_sol</text>
</a>
</g>
</g>
<!-- Node4&#45;&gt;Node5 -->
<g id="edge4" class="edge"><title>Node4&#45;&gt;Node5</title>
<path fill="none" stroke="midnightblue" d="M594.399,-51C602.86,-51 611.482,-51 619.993,-51"/>
<polygon fill="midnightblue" stroke="midnightblue" points="594.176,-47.5001 584.176,-51 594.176,-54.5001 594.176,-47.5001"/>
</g>
<!-- Node6 -->
<g id="node6" class="node"><title>Node6</title>
<g id="a_node6"><a xlink:href="PB3D_8f90.html#afaee01f014ab3398eecac996b2795fd2" target="_top" xlink:title="Peeling Ballooning in 3D. ">
<polygon fill="white" stroke="black" points="829,-40.5 829,-61.5 870,-61.5 870,-40.5 829,-40.5"/>
<text text-anchor="middle" x="849.5" y="-47.9" font-family="Ubuntu Mono" font-size="12.00">pb3d</text>
</a>
</g>
</g>
<!-- Node5&#45;&gt;Node6 -->
<g id="edge5" class="edge"><title>Node5&#45;&gt;Node6</title>
<path fill="none" stroke="midnightblue" d="M803.337,-51C812.873,-51 821.695,-51 828.964,-51"/>
<polygon fill="midnightblue" stroke="midnightblue" points="803.178,-47.5001 793.178,-51 803.178,-54.5001 803.178,-47.5001"/>
</g>
<!-- Node8 -->
<g id="node8" class="node"><title>Node8</title>
<g id="a_node8"><a xlink:href="namespacedriver__post.html#af527706d4e696d4e507443d2f74194ef" target="_top" xlink:title="Initializes the POST driver. ">
<polygon fill="white" stroke="black" points="632,-0.5 632,-21.5 781,-21.5 781,-0.5 632,-0.5"/>
<text text-anchor="middle" x="706.5" y="-7.9" font-family="Ubuntu Mono" font-size="12.00">driver_post::init_post</text>
</a>
</g>
</g>
<!-- Node7&#45;&gt;Node8 -->
<g id="edge7" class="edge"><title>Node7&#45;&gt;Node8</title>
<path fill="none" stroke="midnightblue" d="M594.468,-11C606.838,-11 619.55,-11 631.754,-11"/>
<polygon fill="midnightblue" stroke="midnightblue" points="594.176,-7.5001 584.176,-11 594.176,-14.5001 594.176,-7.5001"/>
</g>
<!-- Node9 -->
<g id="node9" class="node"><title>Node9</title>
<g id="a_node9"><a xlink:href="POST_8f90.html#ac289b64ac4671fea0b4f2298ba1188a1" target="_top" xlink:title="Peeling Ballooning in 3D: postprocessing. ">
<polygon fill="white" stroke="black" points="829,-0.5 829,-21.5 870,-21.5 870,-0.5 829,-0.5"/>
<text text-anchor="middle" x="849.5" y="-7.9" font-family="Ubuntu Mono" font-size="12.00">post</text>
</a>
</g>
</g>
<!-- Node8&#45;&gt;Node9 -->
<g id="edge8" class="edge"><title>Node8&#45;&gt;Node9</title>
<path fill="none" stroke="midnightblue" d="M791.546,-11C805.48,-11 818.68,-11 828.857,-11"/>
<polygon fill="midnightblue" stroke="midnightblue" points="791.304,-7.5001 781.304,-11 791.304,-14.5001 791.304,-7.5001"/>
</g>
</g>
</svg>
