<?xml version="1.0" encoding="UTF-8" standalone="no"?>
<!DOCTYPE svg PUBLIC "-//W3C//DTD SVG 1.1//EN"
 "http://www.w3.org/Graphics/SVG/1.1/DTD/svg11.dtd">
<!-- Generated by graphviz version 2.38.0 (20140413.2041)
 -->
<!-- Title: calc_magn_int_loc Pages: 1 -->
<svg width="1058pt" height="380pt"
 viewBox="0.00 0.00 1058.00 380.37" xmlns="http://www.w3.org/2000/svg" xmlns:xlink="http://www.w3.org/1999/xlink">
<g id="graph0" class="graph" transform="scale(1 1) rotate(0) translate(4 376.367)">
<title>calc_magn_int_loc</title>
<polygon fill="white" stroke="none" points="-4,4 -4,-376.367 1054,-376.367 1054,4 -4,4"/>
<!-- Node0 -->
<g id="node1" class="node"><title>Node0</title>
<polygon fill="#bfbfbf" stroke="black" points="0,-69.5 0,-90.5 119,-90.5 119,-69.5 0,-69.5"/>
<text text-anchor="middle" x="59.5" y="-76.9" font-family="Ubuntu Mono" font-size="12.00">calc_magn_int_loc</text>
</g>
<!-- Node1 -->
<g id="node2" class="node"><title>Node1</title>
<g id="a_node2"><a xlink:href="namespacegrid__utilities.html#a67001ff9bbcad707aacf17f90a748d90" target="_top" xlink:title="grid_utilities::trim_grid">
<polygon fill="white" stroke="black" points="155,-139.5 155,-160.5 322,-160.5 322,-139.5 155,-139.5"/>
<text text-anchor="middle" x="238.5" y="-146.9" font-family="Ubuntu Mono" font-size="12.00">grid_utilities::trim_grid</text>
</a>
</g>
</g>
<!-- Node0&#45;&gt;Node1 -->
<g id="edge1" class="edge"><title>Node0&#45;&gt;Node1</title>
<path fill="none" stroke="midnightblue" d="M77.3133,-90.5517C95.7581,-101.727 126.535,-119.213 155,-130 161.482,-132.456 168.366,-134.685 175.287,-136.687"/>
<polygon fill="midnightblue" stroke="midnightblue" points="174.84,-140.194 185.409,-139.458 176.688,-133.442 174.84,-140.194"/>
</g>
<!-- Node2 -->
<g id="node3" class="node"><title>Node2</title>
<g id="a_node3"><a xlink:href="namespacehdf5__ops.html#a18a07099350020b44d6fbe93ed36e804" target="_top" xlink:title="hdf5_ops::print_hdf5_arrs">
<polygon fill="white" stroke="black" points="155,-99.5 155,-120.5 322,-120.5 322,-99.5 155,-99.5"/>
<text text-anchor="middle" x="238.5" y="-106.9" font-family="Ubuntu Mono" font-size="12.00">hdf5_ops::print_hdf5_arrs</text>
</a>
</g>
</g>
<!-- Node0&#45;&gt;Node2 -->
<g id="edge2" class="edge"><title>Node0&#45;&gt;Node2</title>
<path fill="none" stroke="midnightblue" d="M119.438,-89.9896C134.205,-92.4924 150.212,-95.2054 165.534,-97.8023"/>
<polygon fill="midnightblue" stroke="midnightblue" points="165.039,-101.268 175.483,-99.4887 166.209,-94.3667 165.039,-101.268"/>
</g>
<!-- Node15 -->
<g id="node16" class="node"><title>Node15</title>
<g id="a_node16"><a xlink:href="namespacemessages.html#aa4a8d01563e92558e8a0875b075ec54c" target="_top" xlink:title="messages::writo">
<polygon fill="white" stroke="black" points="549,-20.5 549,-41.5 656,-41.5 656,-20.5 549,-20.5"/>
<text text-anchor="middle" x="602.5" y="-27.9" font-family="Ubuntu Mono" font-size="12.00">messages::writo</text>
</a>
</g>
</g>
<!-- Node0&#45;&gt;Node15 -->
<g id="edge29" class="edge"><title>Node0&#45;&gt;Node15</title>
<path fill="none" stroke="midnightblue" d="M83.3194,-69.4118C102.167,-61.0729 129.816,-49.7632 155,-43 298.981,-4.33348 340.439,0.456956 489,-12 505.673,-13.398 523.591,-15.942 540.118,-18.7236"/>
<polygon fill="midnightblue" stroke="midnightblue" points="539.753,-22.2125 550.204,-20.478 540.952,-15.3161 539.753,-22.2125"/>
</g>
<!-- Node19 -->
<g id="node20" class="node"><title>Node19</title>
<g id="a_node20"><a xlink:href="namespacemessages.html#a6e6bfb084063e4cc91ee86e542043302" target="_top" xlink:title="messages::lvl_ud">
<polygon fill="white" stroke="black" points="367,-21.5 367,-42.5 480,-42.5 480,-21.5 367,-21.5"/>
<text text-anchor="middle" x="423.5" y="-28.9" font-family="Ubuntu Mono" font-size="12.00">messages::lvl_ud</text>
</a>
</g>
</g>
<!-- Node0&#45;&gt;Node19 -->
<g id="edge30" class="edge"><title>Node0&#45;&gt;Node19</title>
<path fill="none" stroke="midnightblue" d="M119.064,-72.2346C184.158,-63.6033 289.026,-49.6982 356.85,-40.705"/>
<polygon fill="midnightblue" stroke="midnightblue" points="357.539,-44.1444 366.992,-39.3602 356.618,-37.2051 357.539,-44.1444"/>
</g>
<!-- Node3 -->
<g id="node4" class="node"><title>Node3</title>
<g id="a_node4"><a xlink:href="namespacempi__utilities.html#a5a789d05be41d6109c01f46cc98620c8" target="_top" xlink:title="mpi_utilities::lock\l_req_acc">
<polygon fill="white" stroke="black" points="358,-140 358,-174 489,-174 489,-140 358,-140"/>
<text text-anchor="start" x="366" y="-160.4" font-family="Ubuntu Mono" font-size="12.00">mpi_utilities::lock</text>
<text text-anchor="middle" x="423.5" y="-147.4" font-family="Ubuntu Mono" font-size="12.00">_req_acc</text>
</a>
</g>
</g>
<!-- Node2&#45;&gt;Node3 -->
<g id="edge3" class="edge"><title>Node2&#45;&gt;Node3</title>
<path fill="none" stroke="midnightblue" d="M284.078,-120.594C296.38,-123.576 309.72,-126.862 322,-130 331.159,-132.34 340.772,-134.852 350.272,-137.367"/>
<polygon fill="midnightblue" stroke="midnightblue" points="349.543,-140.794 360.106,-139.982 351.342,-134.029 349.543,-140.794"/>
</g>
<!-- Node6 -->
<g id="node7" class="node"><title>Node6</title>
<g id="a_node7"><a xlink:href="namespacestr__utilities.html#a0b97e51770725a3e98ed393d26681414" target="_top" xlink:title="str_utilities::i2str">
<polygon fill="white" stroke="black" points="910,-278.5 910,-299.5 1047,-299.5 1047,-278.5 910,-278.5"/>
<text text-anchor="middle" x="978.5" y="-285.9" font-family="Ubuntu Mono" font-size="12.00">str_utilities::i2str</text>
</a>
</g>
</g>
<!-- Node2&#45;&gt;Node6 -->
<g id="edge21" class="edge"><title>Node2&#45;&gt;Node6</title>
<path fill="none" stroke="midnightblue" d="M309.316,-120.55C313.97,-123.108 318.277,-126.22 322,-130 372.843,-181.621 304.616,-240.011 358,-289 525.158,-442.398 837.469,-342.995 942.221,-303.254"/>
<polygon fill="midnightblue" stroke="midnightblue" points="943.624,-306.464 951.699,-299.605 941.109,-299.932 943.624,-306.464"/>
</g>
<!-- Node12 -->
<g id="node13" class="node"><title>Node12</title>
<g id="a_node13"><a xlink:href="namespacempi__utilities.html#a86f9982a0f92b51a916f832d9a3d8ba9" target="_top" xlink:title="mpi_utilities::lock\l_return_acc">
<polygon fill="white" stroke="black" points="358,-246 358,-280 489,-280 489,-246 358,-246"/>
<text text-anchor="start" x="366" y="-266.4" font-family="Ubuntu Mono" font-size="12.00">mpi_utilities::lock</text>
<text text-anchor="middle" x="423.5" y="-253.4" font-family="Ubuntu Mono" font-size="12.00">_return_acc</text>
</a>
</g>
</g>
<!-- Node2&#45;&gt;Node12 -->
<g id="edge15" class="edge"><title>Node2&#45;&gt;Node12</title>
<path fill="none" stroke="midnightblue" d="M308.094,-120.588C313.143,-123.124 317.867,-126.221 322,-130 358.721,-163.571 324.054,-199.625 358,-236 359.224,-237.312 360.522,-238.562 361.881,-239.754"/>
<polygon fill="midnightblue" stroke="midnightblue" points="360.127,-242.81 370.245,-245.955 364.296,-237.188 360.127,-242.81"/>
</g>
<!-- Node13 -->
<g id="node14" class="node"><title>Node13</title>
<g id="a_node14"><a xlink:href="namespacehdf5__utilities.html#a7574320980affc30a584f7776d33a51c" target="_top" xlink:title="hdf5_utilities::set\l_1d_vars">
<polygon fill="white" stroke="black" points="358,-193 358,-227 489,-227 489,-193 358,-193"/>
<text text-anchor="start" x="366" y="-213.4" font-family="Ubuntu Mono" font-size="12.00">hdf5_utilities::set</text>
<text text-anchor="middle" x="423.5" y="-200.4" font-family="Ubuntu Mono" font-size="12.00">_1d_vars</text>
</a>
</g>
</g>
<!-- Node2&#45;&gt;Node13 -->
<g id="edge20" class="edge"><title>Node2&#45;&gt;Node13</title>
<path fill="none" stroke="midnightblue" d="M304.139,-120.665C310.465,-123.155 316.549,-126.223 322,-130 345.405,-146.219 335.953,-164.978 358,-183 360.015,-184.647 362.145,-186.208 364.356,-187.685"/>
<polygon fill="midnightblue" stroke="midnightblue" points="362.837,-190.854 373.218,-192.973 366.424,-184.843 362.837,-190.854"/>
</g>
<!-- Node14 -->
<g id="node15" class="node"><title>Node14</title>
<g id="a_node15"><a xlink:href="HDF5__ops_8f90.html#a9ce89bbcdaf88002bfab4d531536c989" target="_top" xlink:title="detect_ind_print">
<polygon fill="white" stroke="black" points="367,-99.5 367,-120.5 480,-120.5 480,-99.5 367,-99.5"/>
<text text-anchor="middle" x="423.5" y="-106.9" font-family="Ubuntu Mono" font-size="12.00">detect_ind_print</text>
</a>
</g>
</g>
<!-- Node2&#45;&gt;Node14 -->
<g id="edge22" class="edge"><title>Node2&#45;&gt;Node14</title>
<path fill="none" stroke="midnightblue" d="M322.166,-110C333.769,-110 345.564,-110 356.794,-110"/>
<polygon fill="midnightblue" stroke="midnightblue" points="356.926,-113.5 366.926,-110 356.926,-106.5 356.926,-113.5"/>
</g>
<!-- Node2&#45;&gt;Node15 -->
<g id="edge23" class="edge"><title>Node2&#45;&gt;Node15</title>
<path fill="none" stroke="midnightblue" d="M287.945,-99.4277C354.052,-85.0012 472.378,-59.1786 543.242,-43.7137"/>
<polygon fill="midnightblue" stroke="midnightblue" points="544.318,-47.0615 553.342,-41.5097 542.825,-40.2224 544.318,-47.0615"/>
</g>
<!-- Node2&#45;&gt;Node19 -->
<g id="edge27" class="edge"><title>Node2&#45;&gt;Node19</title>
<path fill="none" stroke="midnightblue" d="M262.068,-99.4952C285.801,-88.5455 324.304,-71.055 358,-57 366.71,-53.3671 376.149,-49.609 385.051,-46.1449"/>
<polygon fill="midnightblue" stroke="midnightblue" points="386.369,-49.3876 394.438,-42.5211 383.848,-42.8573 386.369,-49.3876"/>
</g>
<!-- Node4 -->
<g id="node5" class="node"><title>Node4</title>
<g id="a_node5"><a xlink:href="namespacempi__utilities.html#a4c5de9472574b63c69212948d8a3f4e1" target="_top" xlink:title="mpi_utilities::lock\l_header">
<polygon fill="white" stroke="black" points="728,-175 728,-209 859,-209 859,-175 728,-175"/>
<text text-anchor="start" x="736" y="-195.4" font-family="Ubuntu Mono" font-size="12.00">mpi_utilities::lock</text>
<text text-anchor="middle" x="793.5" y="-182.4" font-family="Ubuntu Mono" font-size="12.00">_header</text>
</a>
</g>
</g>
<!-- Node3&#45;&gt;Node4 -->
<g id="edge4" class="edge"><title>Node3&#45;&gt;Node4</title>
<path fill="none" stroke="midnightblue" d="M472.333,-139.909C478.17,-136.987 483.875,-133.685 489,-130 508.689,-115.844 502.909,-99.0013 525,-89 587.757,-60.5881 615.79,-64.0456 680,-89 719.916,-104.513 754.296,-141.53 774.205,-166.691"/>
<polygon fill="midnightblue" stroke="midnightblue" points="771.514,-168.934 780.389,-174.722 777.06,-164.663 771.514,-168.934"/>
</g>
<!-- Node7 -->
<g id="node8" class="node"><title>Node7</title>
<g id="a_node8"><a xlink:href="namespacempi__utilities.html#a0417983d618bfc9f892d6d2af5d27b1d" target="_top" xlink:title="mpi_utilities::lock\l_wl_change">
<polygon fill="white" stroke="black" points="537,-246 537,-280 668,-280 668,-246 537,-246"/>
<text text-anchor="start" x="545" y="-266.4" font-family="Ubuntu Mono" font-size="12.00">mpi_utilities::lock</text>
<text text-anchor="middle" x="602.5" y="-253.4" font-family="Ubuntu Mono" font-size="12.00">_wl_change</text>
</a>
</g>
</g>
<!-- Node3&#45;&gt;Node7 -->
<g id="edge7" class="edge"><title>Node3&#45;&gt;Node7</title>
<path fill="none" stroke="midnightblue" d="M475.431,-174.099C480.246,-176.709 484.865,-179.665 489,-183 511.166,-200.876 502.447,-218.615 525,-236 527.301,-237.773 529.727,-239.436 532.244,-240.995"/>
<polygon fill="midnightblue" stroke="midnightblue" points="530.657,-244.117 541.101,-245.903 534.05,-237.994 530.657,-244.117"/>
</g>
<!-- Node9 -->
<g id="node10" class="node"><title>Node9</title>
<g id="a_node10"><a xlink:href="namespacempi__utilities.html#a74e2e82b561f403ca8087c3925f76e29" target="_top" xlink:title="mpi_utilities::wl_empty">
<polygon fill="white" stroke="black" points="525,-205.5 525,-226.5 680,-226.5 680,-205.5 525,-205.5"/>
<text text-anchor="middle" x="602.5" y="-212.9" font-family="Ubuntu Mono" font-size="12.00">mpi_utilities::wl_empty</text>
</a>
</g>
</g>
<!-- Node3&#45;&gt;Node9 -->
<g id="edge10" class="edge"><title>Node3&#45;&gt;Node9</title>
<path fill="none" stroke="midnightblue" d="M467.224,-174.164C484.964,-181.027 505.844,-188.764 525,-195 533.189,-197.666 541.942,-200.282 550.495,-202.714"/>
<polygon fill="midnightblue" stroke="midnightblue" points="549.824,-206.161 560.397,-205.477 551.705,-199.418 549.824,-206.161"/>
</g>
<!-- Node10 -->
<g id="node11" class="node"><title>Node10</title>
<g id="a_node11"><a xlink:href="namespacempi__utilities.html#a5d2dbf8ffba124237c362f06c3d3ac32" target="_top" xlink:title="mpi_utilities::lock\l_notify">
<polygon fill="white" stroke="black" points="537,-152 537,-186 668,-186 668,-152 537,-152"/>
<text text-anchor="start" x="545" y="-172.4" font-family="Ubuntu Mono" font-size="12.00">mpi_utilities::lock</text>
<text text-anchor="middle" x="602.5" y="-159.4" font-family="Ubuntu Mono" font-size="12.00">_notify</text>
</a>
</g>
</g>
<!-- Node3&#45;&gt;Node10 -->
<g id="edge11" class="edge"><title>Node3&#45;&gt;Node10</title>
<path fill="none" stroke="midnightblue" d="M489.152,-161.383C501.265,-162.204 514.022,-163.069 526.42,-163.91"/>
<polygon fill="midnightblue" stroke="midnightblue" points="526.513,-167.424 536.727,-164.609 526.986,-160.44 526.513,-167.424"/>
</g>
<!-- Node11 -->
<g id="node12" class="node"><title>Node11</title>
<g id="a_node12"><a xlink:href="namespacempi__utilities.html#a9ec02d2ade63716189369640f0da3c5f" target="_top" xlink:title="mpi_utilities::lock\l_get_notified">
<polygon fill="white" stroke="black" points="537,-99 537,-133 668,-133 668,-99 537,-99"/>
<text text-anchor="start" x="545" y="-119.4" font-family="Ubuntu Mono" font-size="12.00">mpi_utilities::lock</text>
<text text-anchor="middle" x="602.5" y="-106.4" font-family="Ubuntu Mono" font-size="12.00">_get_notified</text>
</a>
</g>
</g>
<!-- Node3&#45;&gt;Node11 -->
<g id="edge13" class="edge"><title>Node3&#45;&gt;Node11</title>
<path fill="none" stroke="midnightblue" d="M489.152,-142.024C501.386,-139.19 514.277,-136.204 526.791,-133.305"/>
<polygon fill="midnightblue" stroke="midnightblue" points="527.774,-136.67 536.727,-131.004 526.195,-129.851 527.774,-136.67"/>
</g>
<!-- Node5 -->
<g id="node6" class="node"><title>Node5</title>
<g id="a_node6"><a xlink:href="namespacestr__utilities.html#acb8c4e66aead51f178e47fdea8d7a7db" target="_top" xlink:title="str_utilities::ii2str">
<polygon fill="white" stroke="black" points="907,-181.5 907,-202.5 1050,-202.5 1050,-181.5 907,-181.5"/>
<text text-anchor="middle" x="978.5" y="-188.9" font-family="Ubuntu Mono" font-size="12.00">str_utilities::ii2str</text>
</a>
</g>
</g>
<!-- Node4&#45;&gt;Node5 -->
<g id="edge5" class="edge"><title>Node4&#45;&gt;Node5</title>
<path fill="none" stroke="midnightblue" d="M859.019,-192C871.199,-192 884.079,-192 896.685,-192"/>
<polygon fill="midnightblue" stroke="midnightblue" points="896.717,-195.5 906.717,-192 896.717,-188.5 896.717,-195.5"/>
</g>
<!-- Node4&#45;&gt;Node6 -->
<g id="edge6" class="edge"><title>Node4&#45;&gt;Node6</title>
<path fill="none" stroke="midnightblue" d="M826.795,-209.118C861.256,-227.385 915.352,-256.058 948.496,-273.626"/>
<polygon fill="midnightblue" stroke="midnightblue" points="947.185,-276.893 957.66,-278.483 950.463,-270.708 947.185,-276.893"/>
</g>
<!-- Node7&#45;&gt;Node4 -->
<g id="edge8" class="edge"><title>Node7&#45;&gt;Node4</title>
<path fill="none" stroke="midnightblue" d="M652.56,-245.959C661.7,-242.706 671.155,-239.289 680,-236 699.842,-228.62 721.529,-220.219 740.519,-212.75"/>
<polygon fill="midnightblue" stroke="midnightblue" points="741.874,-215.978 749.892,-209.053 739.305,-209.466 741.874,-215.978"/>
</g>
<!-- Node8 -->
<g id="node9" class="node"><title>Node8</title>
<g id="a_node9"><a xlink:href="namespacestr__utilities.html#ac778d706b2e021672618939ab58fdd32" target="_top" xlink:title="str_utilities::r2strt">
<polygon fill="white" stroke="black" points="722,-252.5 722,-273.5 865,-273.5 865,-252.5 722,-252.5"/>
<text text-anchor="middle" x="793.5" y="-259.9" font-family="Ubuntu Mono" font-size="12.00">str_utilities::r2strt</text>
</a>
</g>
</g>
<!-- Node7&#45;&gt;Node8 -->
<g id="edge9" class="edge"><title>Node7&#45;&gt;Node8</title>
<path fill="none" stroke="midnightblue" d="M668.014,-263C682.09,-263 697.156,-263 711.772,-263"/>
<polygon fill="midnightblue" stroke="midnightblue" points="711.802,-266.5 721.802,-263 711.802,-259.5 711.802,-266.5"/>
</g>
<!-- Node10&#45;&gt;Node4 -->
<g id="edge12" class="edge"><title>Node10&#45;&gt;Node4</title>
<path fill="none" stroke="midnightblue" d="M668.014,-176.851C684.043,-178.802 701.356,-180.908 717.828,-182.913"/>
<polygon fill="midnightblue" stroke="midnightblue" points="717.606,-186.412 727.956,-184.145 718.452,-179.463 717.606,-186.412"/>
</g>
<!-- Node11&#45;&gt;Node4 -->
<g id="edge14" class="edge"><title>Node11&#45;&gt;Node4</title>
<path fill="none" stroke="midnightblue" d="M655.991,-133.137C664.075,-135.978 672.293,-138.985 680,-142 702.338,-150.739 726.711,-161.425 747.042,-170.672"/>
<polygon fill="midnightblue" stroke="midnightblue" points="745.824,-173.963 756.373,-174.943 748.737,-167.598 745.824,-173.963"/>
</g>
<!-- Node12&#45;&gt;Node4 -->
<g id="edge16" class="edge"><title>Node12&#45;&gt;Node4</title>
<path fill="none" stroke="midnightblue" d="M465.79,-280.081C518.354,-299.034 610.658,-322.785 680,-289 703.338,-277.629 696.958,-260.646 716,-243 727.32,-232.51 741.002,-222.669 753.646,-214.483"/>
<polygon fill="midnightblue" stroke="midnightblue" points="755.602,-217.387 762.193,-209.092 751.867,-211.466 755.602,-217.387"/>
</g>
<!-- Node12&#45;&gt;Node7 -->
<g id="edge17" class="edge"><title>Node12&#45;&gt;Node7</title>
<path fill="none" stroke="midnightblue" d="M489.152,-263C501.265,-263 514.022,-263 526.42,-263"/>
<polygon fill="midnightblue" stroke="midnightblue" points="526.727,-266.5 536.727,-263 526.727,-259.5 526.727,-266.5"/>
</g>
<!-- Node12&#45;&gt;Node9 -->
<g id="edge18" class="edge"><title>Node12&#45;&gt;Node9</title>
<path fill="none" stroke="midnightblue" d="M487.744,-245.939C500.095,-242.627 512.95,-239.194 525,-236 533.484,-233.751 542.502,-231.378 551.258,-229.083"/>
<polygon fill="midnightblue" stroke="midnightblue" points="552.203,-232.454 560.991,-226.536 550.43,-225.682 552.203,-232.454"/>
</g>
<!-- Node12&#45;&gt;Node10 -->
<g id="edge19" class="edge"><title>Node12&#45;&gt;Node10</title>
<path fill="none" stroke="midnightblue" d="M472.291,-245.849C478.134,-242.937 483.852,-239.653 489,-236 508.505,-222.157 505.108,-209.28 525,-196 527.899,-194.065 530.953,-192.251 534.104,-190.554"/>
<polygon fill="midnightblue" stroke="midnightblue" points="535.772,-193.634 543.195,-186.074 532.678,-187.355 535.772,-193.634"/>
</g>
<!-- Node16 -->
<g id="node17" class="node"><title>Node16</title>
<g id="a_node17"><a xlink:href="namespacemessages.html#a82dddaab795b78b3d39e1ff1aab2f665" target="_top" xlink:title="messages::get_mem_usage">
<polygon fill="white" stroke="black" points="716,-0.5 716,-21.5 871,-21.5 871,-0.5 716,-0.5"/>
<text text-anchor="middle" x="793.5" y="-7.9" font-family="Ubuntu Mono" font-size="12.00">messages::get_mem_usage</text>
</a>
</g>
</g>
<!-- Node15&#45;&gt;Node16 -->
<g id="edge24" class="edge"><title>Node15&#45;&gt;Node16</title>
<path fill="none" stroke="midnightblue" d="M656.147,-25.4289C671.434,-23.8113 688.551,-21.9999 705.356,-20.2215"/>
<polygon fill="midnightblue" stroke="midnightblue" points="706.184,-23.6536 715.761,-19.1206 705.448,-16.6924 706.184,-23.6536"/>
</g>
<!-- Node17 -->
<g id="node18" class="node"><title>Node17</title>
<g id="a_node18"><a xlink:href="messages_8f90.html#a6d15f28783f95a7a4b2a44185619792f" target="_top" xlink:title="format_str">
<polygon fill="white" stroke="black" points="755,-40.5 755,-61.5 832,-61.5 832,-40.5 755,-40.5"/>
<text text-anchor="middle" x="793.5" y="-47.9" font-family="Ubuntu Mono" font-size="12.00">format_str</text>
</a>
</g>
</g>
<!-- Node15&#45;&gt;Node17 -->
<g id="edge25" class="edge"><title>Node15&#45;&gt;Node17</title>
<path fill="none" stroke="midnightblue" d="M656.147,-36.5711C683.944,-39.5126 717.795,-43.0947 744.814,-45.9539"/>
<polygon fill="midnightblue" stroke="midnightblue" points="744.495,-49.4396 754.808,-47.0114 745.232,-42.4785 744.495,-49.4396"/>
</g>
<!-- Node18 -->
<g id="node19" class="node"><title>Node18</title>
<g id="a_node19"><a xlink:href="namespacemessages.html#a61fd0b51b5e37d58fdc993c01792a3fd" target="_top" xlink:title="messages::get_clock">
<polygon fill="white" stroke="black" points="913,-40.5 913,-61.5 1044,-61.5 1044,-40.5 913,-40.5"/>
<text text-anchor="middle" x="978.5" y="-47.9" font-family="Ubuntu Mono" font-size="12.00">messages::get_clock</text>
</a>
</g>
</g>
<!-- Node17&#45;&gt;Node18 -->
<g id="edge26" class="edge"><title>Node17&#45;&gt;Node18</title>
<path fill="none" stroke="midnightblue" d="M832.418,-51C852.754,-51 878.542,-51 902.719,-51"/>
<polygon fill="midnightblue" stroke="midnightblue" points="902.961,-54.5001 912.961,-51 902.961,-47.5001 902.961,-54.5001"/>
</g>
<!-- Node19&#45;&gt;Node15 -->
<g id="edge28" class="edge"><title>Node19&#45;&gt;Node15</title>
<path fill="none" stroke="midnightblue" d="M480.018,-31.6863C498.667,-31.581 519.595,-31.4627 538.759,-31.3545"/>
<polygon fill="midnightblue" stroke="midnightblue" points="538.917,-34.8537 548.897,-31.2972 538.877,-27.8538 538.917,-34.8537"/>
</g>
</g>
</svg>
