<?xml version="1.0" encoding="UTF-8" standalone="no"?>
<!DOCTYPE svg PUBLIC "-//W3C//DTD SVG 1.1//EN"
 "http://www.w3.org/Graphics/SVG/1.1/DTD/svg11.dtd">
<!-- Generated by graphviz version 2.38.0 (20140413.2041)
 -->
<!-- Title: calc_magn_int_loc Pages: 1 -->
<svg width="765pt" height="30pt"
 viewBox="0.00 0.00 765.00 30.00" xmlns="http://www.w3.org/2000/svg" xmlns:xlink="http://www.w3.org/1999/xlink">
<g id="graph0" class="graph" transform="scale(1 1) rotate(0) translate(4 26)">
<title>calc_magn_int_loc</title>
<polygon fill="white" stroke="none" points="-4,4 -4,-26 761,-26 761,4 -4,4"/>
<!-- Node1 -->
<g id="node1" class="node"><title>Node1</title>
<polygon fill="#bfbfbf" stroke="black" points="0,-0.5 0,-21.5 119,-21.5 119,-0.5 0,-0.5"/>
<text text-anchor="middle" x="59.5" y="-7.9" font-family="Ubuntu Mono" font-size="12.00">calc_magn_int_loc</text>
</g>
<!-- Node2 -->
<g id="node2" class="node"><title>Node2</title>
<g id="a_node2"><a xlink:href="namespacex__ops.html#a6df79622d1b95d54ab3e542751a5881d" target="_top" xlink:title="Calculate the magnetic integrals from &#160;and &#160;in an equidistant grid where the step size can vary depen...">
<polygon fill="white" stroke="black" points="155,-0.5 155,-21.5 298,-21.5 298,-0.5 155,-0.5"/>
<text text-anchor="middle" x="226.5" y="-7.9" font-family="Ubuntu Mono" font-size="12.00">x_ops::calc_magn_ints</text>
</a>
</g>
</g>
<!-- Node1&#45;&gt;Node2 -->
<g id="edge1" class="edge"><title>Node1&#45;&gt;Node2</title>
<path fill="none" stroke="midnightblue" d="M129.325,-11C137.778,-11 146.428,-11 154.906,-11"/>
<polygon fill="midnightblue" stroke="midnightblue" points="129.137,-7.5001 119.137,-11 129.137,-14.5001 129.137,-7.5001"/>
</g>
<!-- Node3 -->
<g id="node3" class="node"><title>Node3</title>
<g id="a_node3"><a xlink:href="namespacedriver__x.html#ad3924b3d66f336f0a9a9559eafffec8e" target="_top" xlink:title="Part 2 of driver_X: Tensorial jobs. ">
<polygon fill="white" stroke="black" points="334,-0.5 334,-21.5 495,-21.5 495,-0.5 334,-0.5"/>
<text text-anchor="middle" x="414.5" y="-7.9" font-family="Ubuntu Mono" font-size="12.00">driver_x::run_driver_x_2</text>
</a>
</g>
</g>
<!-- Node2&#45;&gt;Node3 -->
<g id="edge2" class="edge"><title>Node2&#45;&gt;Node3</title>
<path fill="none" stroke="midnightblue" d="M308.351,-11C316.839,-11 325.465,-11 333.94,-11"/>
<polygon fill="midnightblue" stroke="midnightblue" points="308.084,-7.5001 298.084,-11 308.084,-14.5001 308.084,-7.5001"/>
</g>
<!-- Node4 -->
<g id="node4" class="node"><title>Node4</title>
<g id="a_node4"><a xlink:href="namespacedriver__x.html#ada3d72a0929daaa5e3da585246d62281" target="_top" xlink:title="Main driver of PB3D perturbation part. ">
<polygon fill="white" stroke="black" points="531,-0.5 531,-21.5 680,-21.5 680,-0.5 531,-0.5"/>
<text text-anchor="middle" x="605.5" y="-7.9" font-family="Ubuntu Mono" font-size="12.00">driver_x::run_driver_x</text>
</a>
</g>
</g>
<!-- Node3&#45;&gt;Node4 -->
<g id="edge3" class="edge"><title>Node3&#45;&gt;Node4</title>
<path fill="none" stroke="midnightblue" d="M505.123,-11C513.692,-11 522.314,-11 530.708,-11"/>
<polygon fill="midnightblue" stroke="midnightblue" points="505.105,-7.5001 495.105,-11 505.105,-14.5001 505.105,-7.5001"/>
</g>
<!-- Node5 -->
<g id="node5" class="node"><title>Node5</title>
<g id="a_node5"><a xlink:href="PB3D_8f90.html#afaee01f014ab3398eecac996b2795fd2" target="_top" xlink:title="Peeling Ballooning in 3D. ">
<polygon fill="white" stroke="black" points="716,-0.5 716,-21.5 757,-21.5 757,-0.5 716,-0.5"/>
<text text-anchor="middle" x="736.5" y="-7.9" font-family="Ubuntu Mono" font-size="12.00">pb3d</text>
</a>
</g>
</g>
<!-- Node4&#45;&gt;Node5 -->
<g id="edge4" class="edge"><title>Node4&#45;&gt;Node5</title>
<path fill="none" stroke="midnightblue" d="M690.141,-11C699.656,-11 708.56,-11 715.916,-11"/>
<polygon fill="midnightblue" stroke="midnightblue" points="690.044,-7.5001 680.044,-11 690.044,-14.5001 690.044,-7.5001"/>
</g>
</g>
</svg>
