<?xml version="1.0" encoding="UTF-8" standalone="no"?>
<!DOCTYPE svg PUBLIC "-//W3C//DTD SVG 1.1//EN"
 "http://www.w3.org/Graphics/SVG/1.1/DTD/svg11.dtd">
<!-- Generated by graphviz version 2.38.0 (20140413.2041)
 -->
<!-- Title: test_du Pages: 1 -->
<svg width="789pt" height="128pt"
 viewBox="0.00 0.00 789.00 128.18" xmlns="http://www.w3.org/2000/svg" xmlns:xlink="http://www.w3.org/1999/xlink">
<g id="graph0" class="graph" transform="scale(1 1) rotate(0) translate(4 124.185)">
<title>test_du</title>
<polygon fill="white" stroke="none" points="-4,4 -4,-124.185 785,-124.185 785,4 -4,4"/>
<!-- Node0 -->
<g id="node1" class="node"><title>Node0</title>
<polygon fill="#bfbfbf" stroke="black" points="0,-59.5 0,-80.5 59,-80.5 59,-59.5 0,-59.5"/>
<text text-anchor="middle" x="29.5" y="-66.9" font-family="Ubuntu Mono" font-size="12.00">test_du</text>
</g>
<!-- Node1 -->
<g id="node2" class="node"><title>Node1</title>
<g id="a_node2"><a xlink:href="namespacemessages.html#aa4a8d01563e92558e8a0875b075ec54c" target="_top" xlink:title="Write output to file identified by output_i. ">
<polygon fill="white" stroke="black" points="483,-78.5 483,-99.5 590,-99.5 590,-78.5 483,-78.5"/>
<text text-anchor="middle" x="536.5" y="-85.9" font-family="Ubuntu Mono" font-size="12.00">messages::writo</text>
</a>
</g>
</g>
<!-- Node0&#45;&gt;Node1 -->
<g id="edge1" class="edge"><title>Node0&#45;&gt;Node1</title>
<path fill="none" stroke="midnightblue" d="M56.7619,-80.6063C68.3081,-84.8364 82.142,-89.3274 95,-92 248.349,-123.874 291.339,-126.37 447,-109 460.348,-107.511 474.622,-104.795 487.725,-101.834"/>
<polygon fill="midnightblue" stroke="midnightblue" points="488.549,-105.236 497.481,-99.5393 486.946,-98.4221 488.549,-105.236"/>
</g>
<!-- Node4 -->
<g id="node5" class="node"><title>Node4</title>
<g id="a_node5"><a xlink:href="namespacemessages.html#a6e6bfb084063e4cc91ee86e542043302" target="_top" xlink:title="Increases/decreases lvl of output. ">
<polygon fill="white" stroke="black" points="319,-78.5 319,-99.5 432,-99.5 432,-78.5 319,-78.5"/>
<text text-anchor="middle" x="375.5" y="-85.9" font-family="Ubuntu Mono" font-size="12.00">messages::lvl_ud</text>
</a>
</g>
</g>
<!-- Node0&#45;&gt;Node4 -->
<g id="edge4" class="edge"><title>Node0&#45;&gt;Node4</title>
<path fill="none" stroke="midnightblue" d="M59.2376,-71.5872C113.756,-74.5984 233.459,-81.2099 308.673,-85.3642"/>
<polygon fill="midnightblue" stroke="midnightblue" points="308.801,-88.8765 318.979,-85.9334 309.187,-81.8872 308.801,-88.8765"/>
</g>
<!-- Node5 -->
<g id="node6" class="node"><title>Node5</title>
<g id="a_node6"><a xlink:href="namespacestr__utilities.html#a0b97e51770725a3e98ed393d26681414" target="_top" xlink:title="Convert an integer to string. ">
<polygon fill="white" stroke="black" points="113,-40.5 113,-61.5 250,-61.5 250,-40.5 113,-40.5"/>
<text text-anchor="middle" x="181.5" y="-47.9" font-family="Ubuntu Mono" font-size="12.00">str_utilities::i2str</text>
</a>
</g>
</g>
<!-- Node0&#45;&gt;Node5 -->
<g id="edge6" class="edge"><title>Node0&#45;&gt;Node5</title>
<path fill="none" stroke="midnightblue" d="M59.0669,-66.3815C71.618,-64.7917 87.0294,-62.8396 102.607,-60.8664"/>
<polygon fill="midnightblue" stroke="midnightblue" points="103.359,-64.2992 112.84,-59.5703 102.48,-57.3547 103.359,-64.2992"/>
</g>
<!-- Node6 -->
<g id="node7" class="node"><title>Node6</title>
<g id="a_node7"><a xlink:href="namespaceoutput__ops.html#ab0d14194d01ab0534562eab50b37a57a" target="_top" xlink:title="Takes two input vectors and plots these as well as the relative and absolute difference in a HDF5 fil...">
<polygon fill="white" stroke="black" points="95,-0.5 95,-21.5 268,-21.5 268,-0.5 95,-0.5"/>
<text text-anchor="middle" x="181.5" y="-7.9" font-family="Ubuntu Mono" font-size="12.00">output_ops::plot_diff_hdf5</text>
</a>
</g>
</g>
<!-- Node0&#45;&gt;Node6 -->
<g id="edge7" class="edge"><title>Node0&#45;&gt;Node6</title>
<path fill="none" stroke="midnightblue" d="M44.9156,-59.4612C57.548,-50.6833 76.7004,-38.454 95,-31 101.166,-28.4885 107.716,-26.2519 114.34,-24.2694"/>
<polygon fill="midnightblue" stroke="midnightblue" points="115.378,-27.6135 124.062,-21.5443 113.488,-20.8733 115.378,-27.6135"/>
</g>
<!-- Node2 -->
<g id="node3" class="node"><title>Node2</title>
<g id="a_node3"><a xlink:href="namespacemessages.html#a82dddaab795b78b3d39e1ff1aab2f665" target="_top" xlink:title="Returns the memory usage in kilobytes. ">
<polygon fill="white" stroke="black" points="626,-98.5 626,-119.5 781,-119.5 781,-98.5 626,-98.5"/>
<text text-anchor="middle" x="703.5" y="-105.9" font-family="Ubuntu Mono" font-size="12.00">messages::get_mem_usage</text>
</a>
</g>
</g>
<!-- Node1&#45;&gt;Node2 -->
<g id="edge2" class="edge"><title>Node1&#45;&gt;Node2</title>
<path fill="none" stroke="midnightblue" d="M590.161,-95.3831C598.452,-96.3881 607.208,-97.4495 616.025,-98.5182"/>
<polygon fill="midnightblue" stroke="midnightblue" points="615.635,-101.996 625.984,-99.7253 616.478,-95.0474 615.635,-101.996"/>
</g>
<!-- Node3 -->
<g id="node4" class="node"><title>Node3</title>
<g id="a_node4"><a xlink:href="namespacemessages.html#a61fd0b51b5e37d58fdc993c01792a3fd" target="_top" xlink:title="Returns the time. ">
<polygon fill="white" stroke="black" points="638,-58.5 638,-79.5 769,-79.5 769,-58.5 638,-58.5"/>
<text text-anchor="middle" x="703.5" y="-65.9" font-family="Ubuntu Mono" font-size="12.00">messages::get_clock</text>
</a>
</g>
</g>
<!-- Node1&#45;&gt;Node3 -->
<g id="edge3" class="edge"><title>Node1&#45;&gt;Node3</title>
<path fill="none" stroke="midnightblue" d="M590.161,-82.6169C602.142,-81.1646 615.094,-79.5947 627.797,-78.0549"/>
<polygon fill="midnightblue" stroke="midnightblue" points="628.402,-81.5073 637.908,-76.8293 627.56,-74.5581 628.402,-81.5073"/>
</g>
<!-- Node4&#45;&gt;Node1 -->
<g id="edge5" class="edge"><title>Node4&#45;&gt;Node1</title>
<path fill="none" stroke="midnightblue" d="M432.11,-89C445.241,-89 459.33,-89 472.752,-89"/>
<polygon fill="midnightblue" stroke="midnightblue" points="472.859,-92.5001 482.859,-89 472.859,-85.5001 472.859,-92.5001"/>
</g>
<!-- Node6&#45;&gt;Node1 -->
<g id="edge8" class="edge"><title>Node6&#45;&gt;Node1</title>
<path fill="none" stroke="midnightblue" d="M231.27,-21.5967C284.359,-33.1545 371.744,-52.2456 447,-69 457.37,-71.3087 468.419,-73.7892 479.069,-76.1906"/>
<polygon fill="midnightblue" stroke="midnightblue" points="478.597,-79.6721 489.122,-78.4605 480.139,-72.8439 478.597,-79.6721"/>
</g>
<!-- Node6&#45;&gt;Node4 -->
<g id="edge9" class="edge"><title>Node6&#45;&gt;Node4</title>
<path fill="none" stroke="midnightblue" d="M244.595,-21.5254C252.708,-24.0436 260.721,-27.1559 268,-31 287.193,-41.1357 285.399,-52.8153 304,-64 310.963,-68.1866 318.733,-71.8201 326.5,-74.9206"/>
<polygon fill="midnightblue" stroke="midnightblue" points="325.326,-78.2181 335.918,-78.4397 327.776,-71.6609 325.326,-78.2181"/>
</g>
<!-- Node7 -->
<g id="node8" class="node"><title>Node7</title>
<g id="a_node8"><a xlink:href="namespacestr__utilities.html#ac778d706b2e021672618939ab58fdd32" target="_top" xlink:title="Convert a real (double) to string. ">
<polygon fill="white" stroke="black" points="304,-0.5 304,-21.5 447,-21.5 447,-0.5 304,-0.5"/>
<text text-anchor="middle" x="375.5" y="-7.9" font-family="Ubuntu Mono" font-size="12.00">str_utilities::r2strt</text>
</a>
</g>
</g>
<!-- Node6&#45;&gt;Node7 -->
<g id="edge10" class="edge"><title>Node6&#45;&gt;Node7</title>
<path fill="none" stroke="midnightblue" d="M268.112,-11C276.572,-11 285.141,-11 293.552,-11"/>
<polygon fill="midnightblue" stroke="midnightblue" points="293.715,-14.5001 303.715,-11 293.715,-7.5001 293.715,-14.5001"/>
</g>
</g>
</svg>
