<?xml version="1.0" encoding="UTF-8" standalone="no"?>
<!DOCTYPE svg PUBLIC "-//W3C//DTD SVG 1.1//EN"
 "http://www.w3.org/Graphics/SVG/1.1/DTD/svg11.dtd">
<!-- Generated by graphviz version 2.38.0 (20140413.2041)
 -->
<!-- Title: check_x_modes_1 Pages: 1 -->
<svg width="652pt" height="130pt"
 viewBox="0.00 0.00 652.00 130.00" xmlns="http://www.w3.org/2000/svg" xmlns:xlink="http://www.w3.org/1999/xlink">
<g id="graph0" class="graph" transform="scale(1 1) rotate(0) translate(4 126)">
<title>check_x_modes_1</title>
<polygon fill="white" stroke="none" points="-4,4 -4,-126 648,-126 648,4 -4,4"/>
<!-- Node31 -->
<g id="node1" class="node"><title>Node31</title>
<polygon fill="#bfbfbf" stroke="black" points="0,-40.5 0,-61.5 107,-61.5 107,-40.5 0,-40.5"/>
<text text-anchor="middle" x="53.5" y="-47.9" font-family="Ubuntu Mono" font-size="12.00">check_x_modes_1</text>
</g>
<!-- Node32 -->
<g id="node2" class="node"><title>Node32</title>
<g id="a_node2"><a xlink:href="namespacemessages.html#aa4a8d01563e92558e8a0875b075ec54c" target="_top" xlink:title="messages::writo">
<polygon fill="white" stroke="black" points="161,-80.5 161,-101.5 268,-101.5 268,-80.5 161,-80.5"/>
<text text-anchor="middle" x="214.5" y="-87.9" font-family="Ubuntu Mono" font-size="12.00">messages::writo</text>
</a>
</g>
</g>
<!-- Node31&#45;&gt;Node32 -->
<g id="edge1" class="edge"><title>Node31&#45;&gt;Node32</title>
<path fill="none" stroke="midnightblue" d="M96.2754,-61.5095C116.371,-66.5651 140.654,-72.6739 161.894,-78.0173"/>
<polygon fill="midnightblue" stroke="midnightblue" points="161.176,-81.4457 171.728,-80.4913 162.884,-74.6573 161.176,-81.4457"/>
</g>
<!-- Node36 -->
<g id="node6" class="node"><title>Node36</title>
<g id="a_node6"><a xlink:href="namespacestr__utilities.html#ac778d706b2e021672618939ab58fdd32" target="_top" xlink:title="str_utilities::r2strt">
<polygon fill="white" stroke="black" points="143,-40.5 143,-61.5 286,-61.5 286,-40.5 143,-40.5"/>
<text text-anchor="middle" x="214.5" y="-47.9" font-family="Ubuntu Mono" font-size="12.00">str_utilities::r2strt</text>
</a>
</g>
</g>
<!-- Node31&#45;&gt;Node36 -->
<g id="edge5" class="edge"><title>Node31&#45;&gt;Node36</title>
<path fill="none" stroke="midnightblue" d="M107.003,-51C115.26,-51 123.958,-51 132.677,-51"/>
<polygon fill="midnightblue" stroke="midnightblue" points="132.897,-54.5001 142.897,-51 132.897,-47.5001 132.897,-54.5001"/>
</g>
<!-- Node37 -->
<g id="node7" class="node"><title>Node37</title>
<g id="a_node7"><a xlink:href="namespacestr__utilities.html#a0b97e51770725a3e98ed393d26681414" target="_top" xlink:title="str_utilities::i2str">
<polygon fill="white" stroke="black" points="146,-0.5 146,-21.5 283,-21.5 283,-0.5 146,-0.5"/>
<text text-anchor="middle" x="214.5" y="-7.9" font-family="Ubuntu Mono" font-size="12.00">str_utilities::i2str</text>
</a>
</g>
</g>
<!-- Node31&#45;&gt;Node37 -->
<g id="edge6" class="edge"><title>Node31&#45;&gt;Node37</title>
<path fill="none" stroke="midnightblue" d="M96.2754,-40.4905C116.371,-35.4349 140.654,-29.3261 161.894,-23.9827"/>
<polygon fill="midnightblue" stroke="midnightblue" points="162.884,-27.3427 171.728,-21.5087 161.176,-20.5543 162.884,-27.3427"/>
</g>
<!-- Node33 -->
<g id="node3" class="node"><title>Node33</title>
<g id="a_node3"><a xlink:href="namespacemessages.html#a82dddaab795b78b3d39e1ff1aab2f665" target="_top" xlink:title="messages::get_mem_usage">
<polygon fill="white" stroke="black" points="322,-100.5 322,-121.5 477,-121.5 477,-100.5 322,-100.5"/>
<text text-anchor="middle" x="399.5" y="-107.9" font-family="Ubuntu Mono" font-size="12.00">messages::get_mem_usage</text>
</a>
</g>
</g>
<!-- Node32&#45;&gt;Node33 -->
<g id="edge2" class="edge"><title>Node32&#45;&gt;Node33</title>
<path fill="none" stroke="midnightblue" d="M268.431,-96.7848C281.982,-98.2658 296.915,-99.8978 311.685,-101.512"/>
<polygon fill="midnightblue" stroke="midnightblue" points="311.544,-105.017 321.865,-102.625 312.304,-98.0588 311.544,-105.017"/>
</g>
<!-- Node34 -->
<g id="node4" class="node"><title>Node34</title>
<g id="a_node4"><a xlink:href="messages_8f90.html#a6d15f28783f95a7a4b2a44185619792f" target="_top" xlink:title="format_str">
<polygon fill="white" stroke="black" points="361,-60.5 361,-81.5 438,-81.5 438,-60.5 361,-60.5"/>
<text text-anchor="middle" x="399.5" y="-67.9" font-family="Ubuntu Mono" font-size="12.00">format_str</text>
</a>
</g>
</g>
<!-- Node32&#45;&gt;Node34 -->
<g id="edge3" class="edge"><title>Node32&#45;&gt;Node34</title>
<path fill="none" stroke="midnightblue" d="M268.431,-85.2152C294.409,-82.3761 325.463,-78.9821 350.713,-76.2226"/>
<polygon fill="midnightblue" stroke="midnightblue" points="351.23,-79.6871 360.79,-75.1213 350.469,-72.7285 351.23,-79.6871"/>
</g>
<!-- Node35 -->
<g id="node5" class="node"><title>Node35</title>
<g id="a_node5"><a xlink:href="namespacemessages.html#a61fd0b51b5e37d58fdc993c01792a3fd" target="_top" xlink:title="messages::get_clock">
<polygon fill="white" stroke="black" points="513,-60.5 513,-81.5 644,-81.5 644,-60.5 513,-60.5"/>
<text text-anchor="middle" x="578.5" y="-67.9" font-family="Ubuntu Mono" font-size="12.00">messages::get_clock</text>
</a>
</g>
</g>
<!-- Node34&#45;&gt;Node35 -->
<g id="edge4" class="edge"><title>Node34&#45;&gt;Node35</title>
<path fill="none" stroke="midnightblue" d="M438.037,-71C456.869,-71 480.372,-71 502.685,-71"/>
<polygon fill="midnightblue" stroke="midnightblue" points="502.832,-74.5001 512.832,-71 502.832,-67.5001 502.832,-74.5001"/>
</g>
</g>
</svg>
