<?xml version="1.0" encoding="UTF-8" standalone="no"?>
<!DOCTYPE svg PUBLIC "-//W3C//DTD SVG 1.1//EN"
 "http://www.w3.org/Graphics/SVG/1.1/DTD/svg11.dtd">
<!-- Generated by graphviz version 2.38.0 (20140413.2041)
 -->
<!-- Title: calc_x_jobs_lims Pages: 1 -->
<svg width="753pt" height="30pt"
 viewBox="0.00 0.00 753.00 30.00" xmlns="http://www.w3.org/2000/svg" xmlns:xlink="http://www.w3.org/1999/xlink">
<g id="graph0" class="graph" transform="scale(1 1) rotate(0) translate(4 26)">
<title>calc_x_jobs_lims</title>
<polygon fill="white" stroke="none" points="-4,4 -4,-26 749,-26 749,4 -4,4"/>
<!-- Node26 -->
<g id="node1" class="node"><title>Node26</title>
<polygon fill="#bfbfbf" stroke="black" points="0,-0.5 0,-21.5 113,-21.5 113,-0.5 0,-0.5"/>
<text text-anchor="middle" x="56.5" y="-7.9" font-family="Ubuntu Mono" font-size="12.00">calc_x_jobs_lims</text>
</g>
<!-- Node27 -->
<g id="node2" class="node"><title>Node27</title>
<g id="a_node2"><a xlink:href="namespacex__ops.html#a677c88d85fe1bfbf3579a2421ce16f2f" target="_top" xlink:title="x_ops::divide_x_jobs">
<polygon fill="white" stroke="black" points="149,-0.5 149,-21.5 286,-21.5 286,-0.5 149,-0.5"/>
<text text-anchor="middle" x="217.5" y="-7.9" font-family="Ubuntu Mono" font-size="12.00">x_ops::divide_x_jobs</text>
</a>
</g>
</g>
<!-- Node26&#45;&gt;Node27 -->
<g id="edge1" class="edge"><title>Node26&#45;&gt;Node27</title>
<path fill="none" stroke="midnightblue" d="M123.288,-11C131.74,-11 140.405,-11 148.886,-11"/>
<polygon fill="midnightblue" stroke="midnightblue" points="123.111,-7.5001 113.11,-11 123.11,-14.5001 123.111,-7.5001"/>
</g>
<!-- Node28 -->
<g id="node3" class="node"><title>Node28</title>
<g id="a_node3"><a xlink:href="namespacedriver__x.html#ad3924b3d66f336f0a9a9559eafffec8e" target="_top" xlink:title="driver_x::run_driver_x_2">
<polygon fill="white" stroke="black" points="322,-0.5 322,-21.5 483,-21.5 483,-0.5 322,-0.5"/>
<text text-anchor="middle" x="402.5" y="-7.9" font-family="Ubuntu Mono" font-size="12.00">driver_x::run_driver_x_2</text>
</a>
</g>
</g>
<!-- Node27&#45;&gt;Node28 -->
<g id="edge2" class="edge"><title>Node27&#45;&gt;Node28</title>
<path fill="none" stroke="midnightblue" d="M296.306,-11C304.736,-11 313.324,-11 321.776,-11"/>
<polygon fill="midnightblue" stroke="midnightblue" points="296.123,-7.5001 286.123,-11 296.122,-14.5001 296.123,-7.5001"/>
</g>
<!-- Node29 -->
<g id="node4" class="node"><title>Node29</title>
<g id="a_node4"><a xlink:href="namespacedriver__x.html#ada3d72a0929daaa5e3da585246d62281" target="_top" xlink:title="driver_x::run_driver_x">
<polygon fill="white" stroke="black" points="519,-0.5 519,-21.5 668,-21.5 668,-0.5 519,-0.5"/>
<text text-anchor="middle" x="593.5" y="-7.9" font-family="Ubuntu Mono" font-size="12.00">driver_x::run_driver_x</text>
</a>
</g>
</g>
<!-- Node28&#45;&gt;Node29 -->
<g id="edge3" class="edge"><title>Node28&#45;&gt;Node29</title>
<path fill="none" stroke="midnightblue" d="M493.123,-11C501.692,-11 510.314,-11 518.708,-11"/>
<polygon fill="midnightblue" stroke="midnightblue" points="493.105,-7.5001 483.105,-11 493.105,-14.5001 493.105,-7.5001"/>
</g>
<!-- Node30 -->
<g id="node5" class="node"><title>Node30</title>
<g id="a_node5"><a xlink:href="PB3D_8f90.html#afaee01f014ab3398eecac996b2795fd2" target="_top" xlink:title="pb3d">
<polygon fill="white" stroke="black" points="704,-0.5 704,-21.5 745,-21.5 745,-0.5 704,-0.5"/>
<text text-anchor="middle" x="724.5" y="-7.9" font-family="Ubuntu Mono" font-size="12.00">pb3d</text>
</a>
</g>
</g>
<!-- Node29&#45;&gt;Node30 -->
<g id="edge4" class="edge"><title>Node29&#45;&gt;Node30</title>
<path fill="none" stroke="midnightblue" d="M678.141,-11C687.656,-11 696.56,-11 703.916,-11"/>
<polygon fill="midnightblue" stroke="midnightblue" points="678.044,-7.5001 668.044,-11 678.044,-14.5001 678.044,-7.5001"/>
</g>
</g>
</svg>
