<?xml version="1.0" encoding="UTF-8" standalone="no"?>
<!DOCTYPE svg PUBLIC "-//W3C//DTD SVG 1.1//EN"
 "http://www.w3.org/Graphics/SVG/1.1/DTD/svg11.dtd">
<!-- Generated by graphviz version 2.38.0 (20140413.2041)
 -->
<!-- Title: test_du Pages: 1 -->
<svg width="741pt" height="109pt"
 viewBox="0.00 0.00 741.00 109.00" xmlns="http://www.w3.org/2000/svg" xmlns:xlink="http://www.w3.org/1999/xlink">
<g id="graph0" class="graph" transform="scale(1 1) rotate(0) translate(4 105)">
<title>test_du</title>
<polygon fill="white" stroke="none" points="-4,4 -4,-105 737,-105 737,4 -4,4"/>
<!-- Node65 -->
<g id="node1" class="node"><title>Node65</title>
<polygon fill="#bfbfbf" stroke="black" points="0,-40.5 0,-61.5 59,-61.5 59,-40.5 0,-40.5"/>
<text text-anchor="middle" x="29.5" y="-47.9" font-family="Ubuntu Mono" font-size="12.00">test_du</text>
</g>
<!-- Node66 -->
<g id="node2" class="node"><title>Node66</title>
<g id="a_node2"><a xlink:href="namespacemessages.html#aa4a8d01563e92558e8a0875b075ec54c" target="_top" xlink:title="messages::writo">
<polygon fill="white" stroke="black" points="268,-59.5 268,-80.5 375,-80.5 375,-59.5 268,-59.5"/>
<text text-anchor="middle" x="321.5" y="-66.9" font-family="Ubuntu Mono" font-size="12.00">messages::writo</text>
</a>
</g>
</g>
<!-- Node65&#45;&gt;Node66 -->
<g id="edge1" class="edge"><title>Node65&#45;&gt;Node66</title>
<path fill="none" stroke="midnightblue" d="M58.0103,-61.5294C69.294,-65.319 82.5969,-69.1212 95,-71 149.519,-79.2587 212.307,-78.127 257.762,-75.438"/>
<polygon fill="midnightblue" stroke="midnightblue" points="258.008,-78.9295 267.766,-74.8045 257.565,-71.9435 258.008,-78.9295"/>
</g>
<!-- Node70 -->
<g id="node6" class="node"><title>Node70</title>
<g id="a_node6"><a xlink:href="namespacemessages.html#a6e6bfb084063e4cc91ee86e542043302" target="_top" xlink:title="messages::lvl_ud">
<polygon fill="white" stroke="black" points="107,-40.5 107,-61.5 220,-61.5 220,-40.5 107,-40.5"/>
<text text-anchor="middle" x="163.5" y="-47.9" font-family="Ubuntu Mono" font-size="12.00">messages::lvl_ud</text>
</a>
</g>
</g>
<!-- Node65&#45;&gt;Node70 -->
<g id="edge5" class="edge"><title>Node65&#45;&gt;Node70</title>
<path fill="none" stroke="midnightblue" d="M59.142,-51C70.2598,-51 83.4864,-51 96.7022,-51"/>
<polygon fill="midnightblue" stroke="midnightblue" points="96.7713,-54.5001 106.771,-51 96.7712,-47.5001 96.7713,-54.5001"/>
</g>
<!-- Node71 -->
<g id="node7" class="node"><title>Node71</title>
<g id="a_node7"><a xlink:href="namespacestr__utilities.html#a0b97e51770725a3e98ed393d26681414" target="_top" xlink:title="str_utilities::i2str">
<polygon fill="white" stroke="black" points="95,-0.5 95,-21.5 232,-21.5 232,-0.5 95,-0.5"/>
<text text-anchor="middle" x="163.5" y="-7.9" font-family="Ubuntu Mono" font-size="12.00">str_utilities::i2str</text>
</a>
</g>
</g>
<!-- Node65&#45;&gt;Node71 -->
<g id="edge7" class="edge"><title>Node65&#45;&gt;Node71</title>
<path fill="none" stroke="midnightblue" d="M59.0529,-42.0615C70.2519,-38.5779 83.2194,-34.5716 95,-31 102.076,-28.8546 109.578,-26.6062 116.909,-24.4234"/>
<polygon fill="midnightblue" stroke="midnightblue" points="118.153,-27.705 126.743,-21.5032 116.161,-20.9946 118.153,-27.705"/>
</g>
<!-- Node67 -->
<g id="node3" class="node"><title>Node67</title>
<g id="a_node3"><a xlink:href="namespacemessages.html#a82dddaab795b78b3d39e1ff1aab2f665" target="_top" xlink:title="messages::get_mem_usage">
<polygon fill="white" stroke="black" points="411,-79.5 411,-100.5 566,-100.5 566,-79.5 411,-79.5"/>
<text text-anchor="middle" x="488.5" y="-86.9" font-family="Ubuntu Mono" font-size="12.00">messages::get_mem_usage</text>
</a>
</g>
</g>
<!-- Node66&#45;&gt;Node67 -->
<g id="edge2" class="edge"><title>Node66&#45;&gt;Node67</title>
<path fill="none" stroke="midnightblue" d="M375.161,-76.3831C383.452,-77.3881 392.208,-78.4495 401.025,-79.5182"/>
<polygon fill="midnightblue" stroke="midnightblue" points="400.635,-82.9965 410.984,-80.7253 401.478,-76.0474 400.635,-82.9965"/>
</g>
<!-- Node68 -->
<g id="node4" class="node"><title>Node68</title>
<g id="a_node4"><a xlink:href="messages_8f90.html#a6d15f28783f95a7a4b2a44185619792f" target="_top" xlink:title="format_str">
<polygon fill="white" stroke="black" points="450,-39.5 450,-60.5 527,-60.5 527,-39.5 450,-39.5"/>
<text text-anchor="middle" x="488.5" y="-46.9" font-family="Ubuntu Mono" font-size="12.00">format_str</text>
</a>
</g>
</g>
<!-- Node66&#45;&gt;Node68 -->
<g id="edge3" class="edge"><title>Node66&#45;&gt;Node68</title>
<path fill="none" stroke="midnightblue" d="M375.161,-63.6169C395.977,-61.0937 419.722,-58.2155 440.002,-55.7573"/>
<polygon fill="midnightblue" stroke="midnightblue" points="440.448,-59.229 449.954,-54.551 439.606,-52.2798 440.448,-59.229"/>
</g>
<!-- Node69 -->
<g id="node5" class="node"><title>Node69</title>
<g id="a_node5"><a xlink:href="namespacemessages.html#a61fd0b51b5e37d58fdc993c01792a3fd" target="_top" xlink:title="messages::get_clock">
<polygon fill="white" stroke="black" points="602,-39.5 602,-60.5 733,-60.5 733,-39.5 602,-39.5"/>
<text text-anchor="middle" x="667.5" y="-46.9" font-family="Ubuntu Mono" font-size="12.00">messages::get_clock</text>
</a>
</g>
</g>
<!-- Node68&#45;&gt;Node69 -->
<g id="edge4" class="edge"><title>Node68&#45;&gt;Node69</title>
<path fill="none" stroke="midnightblue" d="M527.037,-50C545.869,-50 569.372,-50 591.685,-50"/>
<polygon fill="midnightblue" stroke="midnightblue" points="591.832,-53.5001 601.832,-50 591.832,-46.5001 591.832,-53.5001"/>
</g>
<!-- Node70&#45;&gt;Node66 -->
<g id="edge6" class="edge"><title>Node70&#45;&gt;Node66</title>
<path fill="none" stroke="midnightblue" d="M220.379,-57.8058C232.468,-59.2782 245.331,-60.8448 257.667,-62.3472"/>
<polygon fill="midnightblue" stroke="midnightblue" points="257.527,-65.856 267.877,-63.5907 258.373,-58.9073 257.527,-65.856"/>
</g>
</g>
</svg>
